<?xml version="1.0" encoding="UTF-8" standalone="no"?>
<svg
   xmlns:dc="http://purl.org/dc/elements/1.1/"
   xmlns:cc="http://creativecommons.org/ns#"
   xmlns:rdf="http://www.w3.org/1999/02/22-rdf-syntax-ns#"
   xmlns:svg="http://www.w3.org/2000/svg"
   xmlns="http://www.w3.org/2000/svg"
   xmlns:xlink="http://www.w3.org/1999/xlink"
   xmlns:sodipodi="http://sodipodi.sourceforge.net/DTD/sodipodi-0.dtd"
   xmlns:inkscape="http://www.inkscape.org/namespaces/inkscape"
   viewBox="0 0 256 256"
   version="1.1"
   id="svg57"
   sodipodi:docname="catarina.svg"
   inkscape:version="0.92.4 5da689c313, 2019-01-14">
  <metadata
     id="metadata61">
    <rdf:RDF>
      <cc:Work
         rdf:about="">
        <dc:format>image/svg+xml</dc:format>
        <dc:type
           rdf:resource="http://purl.org/dc/dcmitype/StillImage" />
      </cc:Work>
    </rdf:RDF>
  </metadata>
  <sodipodi:namedview
     pagecolor="#ffffff"
     bordercolor="#666666"
     borderopacity="1"
     objecttolerance="10"
     gridtolerance="10"
     guidetolerance="10"
     inkscape:pageopacity="0"
     inkscape:pageshadow="2"
     inkscape:window-width="2354"
     inkscape:window-height="1481"
     id="namedview59"
     showgrid="false"
     inkscape:zoom="0.921875"
     inkscape:cx="152.40678"
     inkscape:cy="128"
     inkscape:window-x="640"
     inkscape:window-y="197"
     inkscape:window-maximized="0"
     inkscape:current-layer="svg57" />
  <defs
     id="defs10">
    <filter
       height="1.207"
       y="-0.103"
       width="1.475"
       x="-0.237"
       id="0"
       color-interpolation-filters="sRGB">
      <feGaussianBlur
         stdDeviation="4.57714"
         id="feGaussianBlur2" />
    </filter>
    <linearGradient
       y2="534.61"
       x2="100.72"
       y1="641.75"
       x1="145"
       gradientUnits="userSpaceOnUse"
       id="1">
      <stop
         stop-color="#1a1a1a"
         id="stop5" />
      <stop
         stop-color="#202020"
         offset="1"
         id="stop7" />
    </linearGradient>
  </defs>
  <path
     d="m 231.02 203.65 c 127.95 -190.93 -280.09 -308.53 -226.07 -61.706 23.02 102 167.39 163.91 226.07 61.706 z"
     fill="#910000"
     color="#000"
     id="path12"
     style="fill:#ff2a2a" />
  <g
     transform="matrix(0.93241 0 0 0.93924 -48.14 -443.39)"
     id="g55">
    <path
       id="2"
       d="m 376 860.36 c 34.505 0 43.13 64 77.64 64"
       transform="translate(-230.71 -300.9)"
       stroke-width="4.154"
       stroke="#3f5a7e"
       fill="none"
       style="stroke:#ffffff;stroke-opacity:1" />
    <use
       xlink:href="#2"
       width="1"
       height="1"
       transform="translate(-235.45 -249)"
       id="use17" />
    <g
       id="g27"
       fill-rule="evenodd"
       color="#000">
      <g
         transform="translate(-230.71 -300.21)"
         id="g25"
         stroke="#677b94"
         fill="#385680"
         style="fill:#ffffff;fill-opacity:1;stroke:#ffffff;stroke-opacity:1">
        <path
           d="m 357.12,852.99 -7.495,7.495 7.495,7.495 h 18.625 V 852.99 H 357.12 z"
           id="path21"
           style="fill:#ffffff;fill-opacity:1;stroke:#ffffff;stroke-opacity:1" />
        <path
           d="m 357.12,907.36 -7.495,7.495 7.495,7.495 h 18.625 V 907.36 H 357.12 z"
           id="path23"
           style="fill:#ffffff;fill-opacity:1;stroke:#ffffff;stroke-opacity:1" />
      </g>
    </g>
    <path
       d="m 249.83 609.24 c -10.815 -0.378 -23.01 7.154 -23.03 18.813 -1.236 7.218 4.866 16.794 12.969 13.594 6.242 -2.238 6.683 -10.907 2.188 -14.969 -1.25 -6.801 8.897 -9.373 12.406 -4.094 5.186 7.568 0.711 17.09 -4.088 23.557 -3.798 6.198 -5.143 13.463 -5.693 20.506 0.443 5.523 9.448 6.501 10.03 0.5 -0.205 -9.843 7.717 -16.419 14.156 -22.5 7.177 -8.162 7.078 -21.609 -1.094 -29.06 -4.691 -4.582 -11.366 -6.595 -17.844 -6.344 z m -0.594 64.844 c -9.537 -0.384 -12.721 14.787 -4.03 18.5 8.176 4.955 18.05 -6.556 12.5 -14.06 -1.917 -2.762 -5.05 -4.662 -8.469 -4.438 z"
       transform="matrix(1.173 0 0 1.245 -38.98 -170.3)"
       id="path29"
       stroke-width="2.644"
       stroke="#677b94"
       fill="#385680"
       color="#000"
       style="fill:#ffffff;fill-opacity:1;stroke:#ffffff;stroke-opacity:0;opacity:1" />
    <g
       id="g39"
       stroke-width="0.037"
       stroke="#fff"
       fill="#fff">
      <g
         transform="translate(60.21 488.3)"
         id="g35">
        <path
           d="m 130.57 84.55 c -4.203 -0.879 -7.171 -3.175 -8.917 -6.899 -0.913 -1.947 -1.01 -2.592 -1.01 -6.774 0 -5.716 0.723 -7.666 3.925 -10.592 2.517 -2.301 4.801 -3.082 9.01 -3.082 4.358 0 6.633 0.854 9.279 3.481 1.804 1.791 2.317 2.612 2.985 4.775 1.061 3.437 1.061 7.402 0 10.838 -0.666 2.157 -1.186 2.991 -2.989 4.794 -1.544 1.544 -2.745 2.365 -4.105 2.806 -2.464 0.799 -6.093 1.089 -8.174 0.654 z m 6.275 -5.406 c 3.727 -2.304 4.417 -11.973 1.107 -15.514 -1.248 -1.334 -2.431 -1.806 -4.532 -1.806 -2.253 0 -4.122 1.107 -5.265 3.12 -0.866 1.525 -0.963 2.121 -0.963 5.932 0 3.679 0.116 4.455 0.882 5.889 0.485 0.909 1.439 1.991 2.119 2.406 1.699 1.036 4.953 1.022 6.653 -0.028 z"
           id="path31" />
        <path
           d="m 160.9 84.69 c -3.61 -0.668 -6.278 -2.354 -7.492 -4.735 -1.048 -2.054 -1.367 -5.259 -1.367 -13.717 v -8.648 h 3.274 h 3.274 v 9.38 c 0 5.871 0.16 9.838 0.427 10.605 0.527 1.513 2.073 2.357 4.317 2.357 2.124 0 3.558 -1.05 4.1 -3 0.219 -0.789 0.397 -5.434 0.398 -10.383 l 0.002 -8.956 h 3.105 h 3.105 l -0.119 10.304 c -0.112 9.69 -0.169 10.396 -0.948 11.845 -1.073 1.995 -2.239 3.058 -4.376 3.992 -1.749 0.765 -5.933 1.286 -7.699 0.959 z"
           id="path33" />
      </g>
      <path
         d="m 250.38 561.68 v -10.786 h -4.43 h -4.43 v -2.504 v -2.504 h 11.941 h 11.941 v 2.504 v 2.504 h -4.43 h -4.43 v 10.786 v 10.786 h -3.082 h -3.082 v -10.786 z"
         id="path37" />
    </g>
    <g
       id="g53"
       stroke="#0ff"
       fill="#0ff"
       style="stroke:#ffffff;stroke-opacity:1;fill:#ffffff;fill-opacity:1">
      <g
         id="g49"
         stroke-width="0.049"
         style="stroke:#ffffff;stroke-opacity:1;fill:#ffffff;fill-opacity:1">
        <path
           d="m 213.36 676.36 c -2.089 -0.827 -3.899 -1.604 -4.02 -1.727 -0.123 -0.123 0.883 -1.885 2.235 -3.917 3.535 -5.313 6.254 -10.857 6.653 -13.561 0.485 -3.292 1.203 -3.463 2.925 -0.696 l 1.469 2.36 l -1.073 3.084 c -1.181 3.395 -2.312 8.616 -2.845 13.13 -0.207 1.757 -0.585 2.906 -0.945 2.878 -0.33 -0.026 -2.309 -0.724 -4.398 -1.552 z"
           id="path41"
           style="stroke:#ffffff;stroke-opacity:1;fill:#ffffff;fill-opacity:1" />
        <path
           d="m 206.95 674.53 c -3.744 -5.098 -8.05 -9.493 -10.64 -10.87 -1.268 -0.672 -2.305 -1.473 -2.305 -1.778 0 -0.306 1.242 -0.834 2.76 -1.174 l 2.76 -0.618 l 3.16 2.547 c 1.738 1.401 5.399 3.645 8.135 4.988 2.736 1.343 4.937 2.596 4.889 2.784 -0.139 0.554 -5.655 7.517 -5.965 7.53 -0.156 0.007 -1.414 -1.528 -2.796 -3.41 z"
           id="path43"
           style="stroke:#ffffff;stroke-opacity:1;fill:#ffffff;fill-opacity:1" />
        <path
           d="m 197.15 688.69 c -0.374 -0.231 -0.466 -1.265 -0.263 -2.975 0.297 -2.506 0.436 -2.704 3.168 -4.51 1.572 -1.039 4.855 -3.934 7.296 -6.433 l 4.439 -4.543 l 2.556 3.989 c 1.406 2.194 2.556 4.13 2.556 4.303 0 0.172 -1.774 0.948 -3.942 1.724 -5.47 1.957 -11.412 5.087 -13.489 7.104 -0.966 0.938 -2 1.538 -2.32 1.341 z"
           id="path45"
           style="stroke:#ffffff;stroke-opacity:1;fill:#ffffff;fill-opacity:1" />
        <path
           d="m 220.08 696.21 c -1.189 -0.547 -2.162 -1.291 -2.162 -1.654 0 -1.556 -2.277 -7.558 -4.63 -12.206 -1.398 -2.761 -2.468 -5.093 -2.379 -5.183 0.161 -0.161 8.972 -2.77 9.355 -2.77 0.109 0 0.197 2.044 0.197 4.542 0 5.763 0.824 11.727 2.076 15.02 0.537 1.412 0.976 2.739 0.976 2.948 0 0.6 -1.092 0.378 -3.434 -0.698 z"
           id="path47"
           style="stroke:#ffffff;stroke-opacity:1;fill:#ffffff;fill-opacity:1" />
      </g>
      <path
         d="m 216.9 677.03 c 0 -1.348 0.128 -3.376 0.285 -4.506 l 0.285 -2.055 l 3.533 1.08 c 5.301 1.621 11.07 2.58 13.837 2.3 l 2.438 -0.247 l -1.628 1.879 c -0.895 1.033 -1.628 2.048 -1.628 2.254 0 0.206 -1.96 0.375 -4.356 0.375 -2.396 0 -5.988 0.309 -7.983 0.686 -5.03 0.952 -4.784 1.044 -4.784 -1.765 z"
         id="path51"
         stroke-width="0.045"
         style="stroke:#ffffff;stroke-opacity:1;fill:#ffffff;fill-opacity:1" />
    </g>
  </g>
</svg>
