<svg xmlns="http://www.w3.org/2000/svg" viewBox="0 0 256 256"><path d="m 193.89 31.801 c 226.71 210.75 -241.2 343.53 -189.6 63.746 25.452 -73.816 116.81 -131.42 189.6 -63.746 z" fill="#a9a9d4" color="#000"/><g transform="matrix(0.59755 0 0 0.59738 46.552 52.742)"><path d="m 104.84 256.59 c -23.684 -3.706 -49.962 -17.987 -68.03 -36.97 -17.519 -18.41 -30.25 -43.15 -33.719 -65.5 c -1.557 -10.04 -1.557 -37.55 0 -47.594 c 4.501 -29.03 23.83 -60.25 48.989 -79.13 15.816 -11.87 36.887 -21.17 53.96 -23.818 c 9.952 -1.543 37.531 -1.563 47.33 -0.033 29.11 4.542 60.16 23.569 79.13 48.49 11.898 15.63 20.981 36.512 23.732 54.56 1.429 9.375 1.429 38.09 0 47.46 -3.745 24.569 -17.511 50.51 -36.549 68.868 -18.661 17.997 -42.533 30.2 -66.11 33.792 -8.56 1.305 -40.12 1.226 -48.731 -0.121 z m 86.58 -89.69 c 2.384 -2.384 2.923 -3.772 2.923 -7.528 0 -4.295 -0.371 -4.95 -5.5 -9.724 -3.03 -2.815 -5.5 -5.701 -5.5 -6.411 0 -0.765 1.531 -1.434 3.75 -1.64 l 3.75 -0.348 l -3 -1.336 c -1.65 -0.735 -5.137 -1.563 -7.75 -1.84 -4.071 -0.432 -4.75 -0.25 -4.75 1.271 0 1.613 -0.855 1.723 -9.405 1.213 -10.703 -0.639 -13.595 -1.744 -13.595 -5.196 0 -4.074 2.252 -5.22 11.688 -5.95 7.192 -0.556 11.479 -0.21 23.312 1.883 7.975 1.41 18.55 2.843 23.5 3.185 4.95 0.341 9.787 1.025 10.75 1.518 1.428 0.733 1.75 0.46 1.75 -1.482 0 -2.96 -2.166 -4.965 -8.537 -7.902 -4.464 -2.058 -6.603 -2.305 -21.266 -2.46 -16.765 -0.176 -19.2 -0.723 -19.2 -4.316 0 -4.521 -7.869 -9.664 -15.5 -10.131 -6.816 -0.417 -12.233 0.207 -14.06 1.619 -1.827 1.413 -1.839 1.562 -0.191 2.55 0.963 0.577 1.75 1.875 1.75 2.884 0 1.915 -3.924 5.065 -6.31 5.065 -0.759 0 -2.128 0.826 -3.042 1.836 -1.564 1.728 -1.517 1.902 0.792 2.954 3.632 1.655 5.913 5.654 5.105 8.952 -0.371 1.517 -2.75 4.878 -5.287 7.471 -5.293 5.41 -5.688 5.04 7.742 7.284 5.225 0.874 13.775 2.921 19 4.55 5.225 1.629 13.1 3.297 17.5 3.707 7.482 0.698 8.02 0.904 8.345 3.194 0.254 1.797 -0.544 3.186 -3 5.223 -3.159 2.621 -3.216 2.777 -1.019 2.802 1.28 0.015 3.642 -1.288 5.25 -2.896 z m -27.827 -40.11 c -1.238 -0.497 -2.25 -1.325 -2.25 -1.839 0 -0.514 -1.35 -1.405 -3 -1.98 -1.65 -0.575 -3 -1.744 -3 -2.598 0 -1.228 1.238 -1.552 5.935 -1.552 6.363 0 11.07 1.284 11.07 3.02 0 1.136 -4.871 6.02 -5.896 5.914 -0.332 -0.035 -1.616 -0.47 -2.854 -0.968 z m -50.29 22.389 c 3.39 -0.678 3.755 -1.257 6.294 -10 1.869 -6.439 1.249 -7.647 -3.262 -6.354 -1.872 0.537 -11.08 0.939 -20.454 0.894 -14.976 -0.072 -17.84 0.182 -23.544 2.09 -3.572 1.194 -6.846 2.511 -7.277 2.925 -0.43 0.414 1.145 1.318 3.5 2.01 2.355 0.69 5.407 1.974 6.781 2.854 5.549 3.552 16.26 6.137 25.626 6.182 5.02 0.025 10.57 -0.244 12.336 -0.598 z m 109.91 -7.828 c 0.753 -0.736 1.08 -1.804 0.728 -2.374 -0.687 -1.111 -7.479 2.667 -7.554 4.202 -0.059 1.197 5.163 -0.202 6.826 -1.828 z m -95.81 -20.14 c -2.524 -2.124 -3.37 -2.379 -4.577 -1.378 -2.928 2.43 -1.72 3.983 3.097 3.983 h 4.577 l -3.097 -2.606 z m 2.443 -7.394 c 0.34 -0.55 0.168 -1 -0.382 -1 -0.55 0 -1.278 0.45 -1.618 1 -0.34 0.55 -0.168 1 0.382 1 0.55 0 1.278 -0.45 1.618 -1 z m -47.682 -14.5 c -1.192 -2.616 -3.818 -3.442 -3.818 -1.2 0 1.664 2.025 3.7 3.679 3.7 1 0 1.031 -0.543 0.139 -2.5 z m 55.18 -2.2 c 0 -2.281 -0.354 -3.336 -0.923 -2.75 -0.838 0.862 -0.37 6.45 0.54 6.45 0.211 0 0.383 -1.665 0.383 -3.7 z m -9.492 -10.262 c -1.357 -6.179 -11.988 -9.48 -16.06 -4.986 -1.839 2.032 -1.831 2.042 0.808 1.039 5.356 -2.036 12.74 2.182 12.74 7.278 0 2.807 0.132 2.927 1.604 1.456 1.161 -1.161 1.411 -2.483 0.905 -4.787 z m -34.02 2.776 c 1.398 0.637 2.51 0.731 2.51 0.212 0 -1.697 -6.866 -2.968 -10.04 -1.86 -4.134 1.441 -2.727 2.884 1.536 1.576 2.537 -0.779 4.174 -0.759 5.999 0.072 z" fill="#a9a9d4"/><path d="m 106.43 256.2 c -31.901 -5.345 -64.41 -26.607 -82.64 -54.04 -9.392 -14.14 -17.206 -32.952 -19.455 -46.847 -0.623 -3.85 -1.551 -8.627 -2.062 -10.616 -1.219 -4.748 -1.192 -23.693 0.041 -29.12 0.533 -2.345 1.705 -8.02 2.604 -12.608 9.291 -47.41 50.18 -88.29 97.58 -97.58 c 4.589 -0.899 10.263 -2.071 12.608 -2.604 5.426 -1.233 24.372 -1.259 29.12 -0.041 1.989 0.511 6.766 1.438 10.616 2.062 3.85 0.623 11.449 2.674 16.886 4.558 43.795 15.172 76.848 53.881 84.07 98.45 1.97 12.165 1.97 32.835 0 45 -8.373 51.694 -51.759 95.08 -103.45 103.45 -11.714 1.897 -34.391 1.864 -45.916 -0.067 z m 79.27 -82.88 c 2 -0.949 4.99 -3.267 6.644 -5.15 2.602 -2.964 3.01 -4.203 3.01 -9.224 0 -5.184 -0.319 -6.084 -3 -8.473 -1.65 -1.47 -3 -3.12 -3 -3.665 0 -0.613 5.868 -0.992 15.365 -0.992 14.03 0 15.594 -0.18 18 -2.073 2.02 -1.588 2.635 -2.959 2.635 -5.865 0 -10.7 -15.84 -16.808 -39.731 -15.32 l -8.231 0.513 l -2 -4.676 c -1.738 -4.055 -2.77 -5.03 -7.769 -7.342 -7.287 -3.37 -18.532 -3.729 -24.607 -0.784 -4.408 2.137 -5.707 4.381 -3.313 5.721 2.516 1.408 1.988 3.191 -1.389 4.686 -3.203 1.418 -9.393 0.861 -10.51 -0.945 -0.343 -0.555 1.381 -2.9 3.831 -5.211 5.647 -5.329 9.118 -13.952 8.456 -21.01 -0.594 -6.332 -2.329 -8.15 -3.787 -3.968 -1.326 3.804 -7.529 8.277 -11.478 8.277 h -2.924 l 3.728 -3.073 c 7.289 -6.01 2.835 -15.485 -7.843 -16.688 -3.824 -0.431 -4.692 -0.13 -7.381 2.559 -3.371 3.371 -4.087 8.094 -1.548 10.202 1.246 1.034 1.5 0.915 1.5 -0.703 0 -1.071 1.023 -2.909 2.272 -4.083 2.108 -1.98 2.558 -2.037 6.213 -0.78 2.215 0.762 4.37 2.316 4.92 3.549 0.84 1.883 0.419 2.669 -2.963 5.54 -2.968 2.519 -4.56 3.206 -6.442 2.78 -5.967 -1.349 -12 -8.667 -12 -14.556 0 -3.698 4.123 -9.09 8.03 -10.499 2.125 -0.768 5.884 -1.047 9.715 -0.722 3.672 0.311 6.25 0.136 6.25 -0.425 0 -0.525 -2.588 -2.208 -5.75 -3.74 -5.492 -2.66 -6.422 -2.787 -20.75 -2.823 -14.627 -0.037 -15.14 0.034 -20.5 2.845 -10.629 5.571 -13.704 8.271 -16.965 14.894 -4.04 8.211 -5.162 15.399 -3.508 22.515 1.043 4.488 2.251 6.461 6.625 10.821 5.01 4.997 5.977 5.497 15.349 7.965 5.5 1.448 14.275 2.975 19.5 3.392 10.936 0.873 16.01 2.424 14.11 4.317 -0.858 0.858 -6.971 1.253 -20.913 1.352 -20.669 0.146 -27.08 1.123 -34.981 5.334 -6.74 3.592 -7.491 4.597 -8.414 11.256 -0.83 5.987 -0.754 6.371 1.677 8.485 4.585 3.987 14.837 6.563 28.02 7.04 10.985 0.398 12.635 0.214 19.5 -2.174 4.794 -1.668 8.161 -3.506 9.333 -5.095 1.01 -1.367 2.642 -2.486 3.631 -2.486 2.372 0 6.539 -5.612 7.39 -9.952 0.946 -4.827 4.25 -8.05 8.255 -8.05 3.919 0 8.391 1.569 8.391 2.944 0 0.791 -6.533 6.186 -12.376 10.219 -0.528 0.365 -1.282 3.065 -1.675 6 -0.792 5.912 0.432 8.116 6.534 11.767 10.94 6.545 47.31 10.11 56.867 5.574 z m -22.85 -35.504 c -1.772 -0.762 -1.687 -0.867 0.75 -0.93 1.512 -0.039 2.75 0.38 2.75 0.93 0 1.174 -0.769 1.174 -3.5 0 z m -87 -27.921 c -5.881 -1.619 -8.166 -2.934 -11.297 -6.501 -3.696 -4.209 -4.671 -7.301 -3.867 -12.256 0.753 -4.639 2.744 -6.726 9.571 -10.03 7.295 -3.535 16.59 -3.767 22.675 -0.566 4.633 2.438 9.419 8.135 9.419 11.212 0 2.871 -1.807 2.585 -3.216 -0.508 -2.229 -4.891 -8.94 -6.62 -17 -4.381 -6.469 1.797 -8.786 8.135 -4.818 13.18 2.177 2.768 9.966 5.407 12.753 4.321 1.487 -0.579 1.243 -0.924 -1.465 -2.072 -1.787 -0.757 -3.796 -2.576 -4.464 -4.04 -1.103 -2.421 -0.952 -2.892 1.651 -5.131 2.36 -2.03 3.501 -2.347 6.464 -1.793 4.051 0.757 6.098 2.115 6.098 4.044 0 0.718 0.644 1.95 1.431 2.737 1.241 1.241 1.093 1.905 -1.115 5.01 -3.982 5.596 -15.11 8.904 -22.815 6.782 z" fill="#fd5454"/><path d="m 106.43 256.2 c -31.901 -5.345 -64.41 -26.607 -82.64 -54.04 -9.392 -14.14 -17.206 -32.952 -19.455 -46.847 -0.623 -3.85 -1.551 -8.627 -2.062 -10.616 -1.219 -4.748 -1.192 -23.693 0.041 -29.12 0.533 -2.345 1.705 -8.02 2.604 -12.608 9.291 -47.41 50.18 -88.29 97.58 -97.58 c 4.589 -0.899 10.263 -2.071 12.608 -2.604 5.426 -1.233 24.372 -1.259 29.12 -0.041 1.989 0.511 6.766 1.438 10.616 2.062 3.85 0.623 11.449 2.674 16.886 4.558 43.795 15.172 76.848 53.881 84.07 98.45 1.97 12.165 1.97 32.835 0 45 -8.373 51.694 -51.759 95.08 -103.45 103.45 -11.714 1.897 -34.391 1.864 -45.916 -0.067 z m 40.921 -7.831 c 25.951 -3.912 47.659 -14.968 66.62 -33.93 14.689 -14.689 23.828 -29.588 29.822 -48.621 8.871 -28.17 6.68 -59.734 -6.01 -86.54 c -11.228 -23.726 -33.18 -45.678 -56.906 -56.906 -16.675 -7.891 -30.874 -10.94 -51.04 -10.959 -33.65 -0.031 -60.45 11.05 -84.09 34.775 -17.803 17.868 -27.693 36.07 -33.06 60.829 c -2.481 11.45 -2.481 35.14 0 46.592 5.354 24.708 15.392 43.2 33.02 60.829 14.683 14.683 29.558 23.809 48.625 29.831 16.831 5.315 35.407 6.752 53 4.1 z m -36.504 -8.163 c -40.27 -7.189 -73.64 -35.739 -86.4 -73.897 -8.04 -24.05 -8.06 -47.903 -0.08 -71.73 5.371 -16.03 12.969 -28.572 24.857 -41.03 44.26 -46.38 117.6 -46.22 161.63 0.349 c 40.504 42.849 40.64 109.85 0.311 152.5 -25.996 27.491 -63.985 40.29 -100.32 33.804 z m 74.85 -66.888 c 2 -0.949 4.99 -3.267 6.644 -5.15 2.602 -2.964 3.01 -4.203 3.01 -9.224 0 -5.184 -0.319 -6.084 -3 -8.473 -1.65 -1.47 -3 -3.12 -3 -3.665 0 -0.613 5.868 -0.992 15.365 -0.992 14.03 0 15.594 -0.18 18 -2.073 2.02 -1.588 2.635 -2.959 2.635 -5.865 0 -10.7 -15.84 -16.808 -39.731 -15.32 l -8.231 0.513 l -2 -4.676 c -1.738 -4.055 -2.77 -5.03 -7.769 -7.342 -7.287 -3.37 -18.532 -3.729 -24.607 -0.784 -4.408 2.137 -5.707 4.381 -3.313 5.721 2.516 1.408 1.988 3.191 -1.389 4.686 -3.203 1.418 -9.393 0.861 -10.51 -0.945 -0.343 -0.555 1.381 -2.9 3.831 -5.211 5.647 -5.329 9.118 -13.952 8.456 -21.01 -0.594 -6.332 -2.329 -8.15 -3.787 -3.968 -1.326 3.804 -7.529 8.277 -11.478 8.277 h -2.924 l 3.728 -3.073 c 7.289 -6.01 2.835 -15.485 -7.843 -16.688 -3.824 -0.431 -4.692 -0.13 -7.381 2.559 -3.371 3.371 -4.087 8.094 -1.548 10.202 1.246 1.034 1.5 0.915 1.5 -0.703 0 -1.071 1.023 -2.909 2.272 -4.083 2.108 -1.98 2.558 -2.037 6.213 -0.78 2.215 0.762 4.37 2.316 4.92 3.549 0.84 1.883 0.419 2.669 -2.963 5.54 -2.968 2.519 -4.56 3.206 -6.442 2.78 -5.967 -1.349 -12 -8.667 -12 -14.556 0 -3.698 4.123 -9.09 8.03 -10.499 2.125 -0.768 5.884 -1.047 9.715 -0.722 3.672 0.311 6.25 0.136 6.25 -0.425 0 -0.525 -2.588 -2.208 -5.75 -3.74 -5.492 -2.66 -6.422 -2.787 -20.75 -2.823 -14.627 -0.037 -15.14 0.034 -20.5 2.845 -10.629 5.571 -13.704 8.271 -16.965 14.894 -4.04 8.211 -5.162 15.399 -3.508 22.515 1.043 4.488 2.251 6.461 6.625 10.821 5.01 4.997 5.977 5.497 15.349 7.965 5.5 1.448 14.275 2.975 19.5 3.392 10.936 0.873 16.01 2.424 14.11 4.317 -0.858 0.858 -6.971 1.253 -20.913 1.352 -20.669 0.146 -27.08 1.123 -34.981 5.334 -6.74 3.592 -7.491 4.597 -8.414 11.256 -0.83 5.987 -0.754 6.371 1.677 8.485 4.585 3.987 14.837 6.563 28.02 7.04 10.985 0.398 12.635 0.214 19.5 -2.174 4.794 -1.668 8.161 -3.506 9.333 -5.095 1.01 -1.367 2.642 -2.486 3.631 -2.486 2.372 0 6.539 -5.612 7.39 -9.952 0.946 -4.827 4.25 -8.05 8.255 -8.05 3.919 0 8.391 1.569 8.391 2.944 0 0.791 -6.533 6.186 -12.376 10.219 -0.528 0.365 -1.282 3.065 -1.675 6 -0.792 5.912 0.432 8.116 6.534 11.767 10.94 6.545 47.31 10.11 56.867 5.574 z m -22.85 -35.504 c -1.772 -0.762 -1.687 -0.867 0.75 -0.93 1.512 -0.039 2.75 0.38 2.75 0.93 0 1.174 -0.769 1.174 -3.5 0 z m -87 -27.921 c -5.881 -1.619 -8.166 -2.934 -11.297 -6.501 -3.696 -4.209 -4.671 -7.301 -3.867 -12.256 0.753 -4.639 2.744 -6.726 9.571 -10.03 7.295 -3.535 16.59 -3.767 22.675 -0.566 4.633 2.438 9.419 8.135 9.419 11.212 0 2.871 -1.807 2.585 -3.216 -0.508 -2.229 -4.891 -8.94 -6.62 -17 -4.381 -6.469 1.797 -8.786 8.135 -4.818 13.18 2.177 2.768 9.966 5.407 12.753 4.321 1.487 -0.579 1.243 -0.924 -1.465 -2.072 -1.787 -0.757 -3.796 -2.576 -4.464 -4.04 -1.103 -2.421 -0.952 -2.892 1.651 -5.131 2.36 -2.03 3.501 -2.347 6.464 -1.793 4.051 0.757 6.098 2.115 6.098 4.044 0 0.718 0.644 1.95 1.431 2.737 1.241 1.241 1.093 1.905 -1.115 5.01 -3.982 5.596 -15.11 8.904 -22.815 6.782 z" fill="#af5b5c"/><path d="m 112.34 257.21 c -23.93 -4.185 -41.556 -11.472 -58.666 -24.25 -24.536 -18.329 -41.17 -43.546 -47.911 -72.64 -4.37 -18.858 -4.622 -20.835 -4.141 -32.5 1.792 -43.475 22.892 -81.21 58.54 -104.68 19.478 -12.827 42.43 -20.01 67.18 -21.03 c 11.665 -0.481 13.642 -0.229 32.5 4.141 40.01 9.272 73.27 37.97 88.8 76.63 6.739 16.772 8.155 25.01 8.155 47.44 0 17.677 -0.274 21.1 -2.359 29.444 -10.255 41.06 -38.571 73.857 -77.16 89.36 -15.398 6.187 -25.23 7.999 -44.944 8.281 -9.625 0.137 -18.625 0.053 -20 -0.188 z m 35 -8.842 c 25.951 -3.912 47.659 -14.968 66.62 -33.93 14.689 -14.689 23.828 -29.588 29.822 -48.621 8.871 -28.17 6.68 -59.734 -6.01 -86.54 c -11.228 -23.726 -33.18 -45.678 -56.906 -56.906 -16.675 -7.891 -30.874 -10.94 -51.04 -10.959 -33.65 -0.031 -60.45 11.05 -84.09 34.775 -17.803 17.868 -27.693 36.07 -33.06 60.829 c -2.481 11.45 -2.481 35.14 0 46.592 5.354 24.708 15.392 43.2 33.02 60.829 14.683 14.683 29.558 23.809 48.625 29.831 16.831 5.315 35.407 6.752 53 4.1 z m -36.504 -8.163 c -40.27 -7.189 -73.64 -35.739 -86.4 -73.897 -8.04 -24.05 -8.06 -47.903 -0.08 -71.73 5.371 -16.03 12.969 -28.572 24.857 -41.03 44.26 -46.38 117.6 -46.22 161.63 0.349 c 40.504 42.849 40.64 109.85 0.311 152.5 -25.996 27.491 -63.985 40.29 -100.32 33.804 z m 69.5 -65.36 c 9.236 -1.751 12.352 -3.462 14.75 -8.1 3.387 -6.551 3.02 -11.09 -1.25 -15.231 -1.925 -1.87 -3.5 -3.916 -3.5 -4.548 0 -0.813 4.291 -1.149 14.679 -1.149 17.555 0 21.268 -0.944 21.432 -5.451 0.295 -8.122 -1.926 -11.837 -9.364 -15.662 -5.136 -2.642 -18.374 -4.262 -29.432 -3.603 l -9.184 0.548 l -2.316 -4.639 c -1.865 -3.736 -3.386 -5.171 -7.816 -7.373 -7.212 -3.586 -19.8 -3.983 -26 -0.82 -2.156 1.1 -4.143 2 -4.414 2 -0.272 0 0.606 -2.362 1.95 -5.25 1.827 -3.924 2.447 -6.955 2.454 -12 l 0.01 -6.75 h 19.532 c 21.265 0 24.322 -0.595 29.809 -5.803 6.531 -6.199 8.495 -15.722 4.741 -22.987 -5.294 -10.243 -21.468 -19.957 -43.08 -25.873 -5.03 -1.378 -10.337 -1.782 -23.5 -1.792 -15.487 -0.012 -17.878 0.231 -26.858 2.726 -11.635 3.233 -23.856 9.01 -31.992 15.13 -10.333 7.772 -13.08 13.957 -10.671 24.01 1.01 4.206 1.013 5.753 0.02 7.678 -1.029 1.995 -1.015 2.195 0.079 1.161 2.577 -2.436 2.661 -1.179 0.311 4.639 -2.481 6.142 -3.225 13.148 -2.029 19.11 l 0.702 3.5 l -2.065 -3.5 c -1.59 -2.695 -1.912 -2.925 -1.402 -1 1.254 4.732 4.588 10.269 8.243 13.69 4.509 4.221 13.383 9.05 12.525 6.811 -0.743 -1.935 0.202 -1.895 10 0.426 4.475 1.06 11.512 2.137 15.637 2.393 8.415 0.523 13.894 2.186 12.336 3.744 -1.206 1.206 -3.485 1.25 -18.836 0.371 -9.634 -0.552 -13.577 -0.343 -20 1.06 -4.4 0.961 -10.145 2.063 -12.768 2.449 -6.964 1.024 -12.888 5.522 -14.614 11.09 -0.76 2.453 -1.766 5.232 -2.235 6.174 -0.648 1.299 -0.495 1.575 0.632 1.143 0.83 -0.319 1.485 -1.82 1.485 -3.404 0 -1.559 0.487 -3.135 1.082 -3.503 0.739 -0.456 0.977 1.012 0.75 4.626 -0.314 5 -0.153 5.417 2.893 7.494 9.591 6.538 33.27 8.531 46.543 3.917 4.568 -1.588 7.906 -3.43 9.06 -5 2.282 -3.093 4.42 -3.197 4.866 -0.236 0.304 2.02 0.6 1.844 2.917 -1.75 1.439 -2.233 2.815 -6.126 3.115 -8.812 0.679 -6.084 3.796 -9.688 8.378 -9.688 3.89 0 8.391 1.566 8.391 2.919 0 1.211 -13.01 11.08 -14.605 11.08 -0.645 0 -1.472 1.688 -1.837 3.75 -0.366 2.063 -0.914 4.594 -1.218 5.625 -0.363 1.23 -0.167 1.636 0.571 1.18 0.621 -0.384 3.172 1.108 5.697 3.33 5.663 4.985 10.852 6.634 31.393 9.981 7.145 1.164 18.315 1.239 24 0.161 z m -17.731 -37.721 c 0.973 -0.254 2.323 -0.237 3 0.037 0.677 0.274 -0.119 0.481 -1.769 0.461 -1.65 -0.02 -2.204 -0.244 -1.231 -0.498 z m -30.519 -16.996 c -2.332 -0.61 -2.206 -1.533 0.564 -4.136 3.085 -2.898 3.354 -2.774 2.875 1.326 -0.225 1.925 -0.697 3.448 -1.049 3.384 -0.352 -0.064 -1.428 -0.322 -2.391 -0.573 z m 5.44 -2.061 c 0.185 -0.963 1 -1.75 1.81 -1.75 0.81 0 1.624 0.787 1.81 1.75 0.236 1.228 -0.303 1.75 -1.81 1.75 -1.506 0 -2.046 -0.522 -1.81 -1.75 z m -61.69 -8.171 c -5.881 -1.619 -8.166 -2.934 -11.297 -6.501 -3.696 -4.209 -4.671 -7.301 -3.867 -12.256 0.753 -4.639 2.744 -6.726 9.571 -10.03 7.295 -3.535 16.59 -3.767 22.675 -0.566 4.633 2.438 9.419 8.135 9.419 11.212 0 2.976 -1.182 2.534 -3.727 -1.396 c -2.576 -3.977 -6.624 -5.162 -13.906 -4.07 -11.986 1.797 -12.654 14.233 -0.94 17.512 c 2.477 0.693 5.306 0.948 6.288 0.566 1.487 -0.579 1.243 -0.924 -1.465 -2.072 -1.787 -0.757 -3.796 -2.576 -4.464 -4.04 -1.103 -2.421 -0.952 -2.892 1.651 -5.131 2.36 -2.03 3.501 -2.347 6.464 -1.793 4.342 0.811 6.098 2.126 6.098 4.566 0 1.01 0.669 2.202 1.486 2.659 2.353 1.317 -2.798 7.776 -7.797 9.776 -4.971 1.989 -12.143 2.685 -16.189 1.571 z m 37.67 -12.795 c -1.282 -0.244 -4.069 -2.183 -6.194 -4.308 -4.731 -4.731 -5.97 -9.668 -3.647 -14.538 2.454 -5.146 6 -6.944 13.628 -6.901 13.02 0.074 21.623 8.16 18.957 17.816 -1.106 4.01 -7.146 8.647 -11.252 8.647 h -2.731 l 3.535 -3.104 c 5.498 -4.827 4.772 -10.733 -1.821 -14.807 -4.97 -3.072 -10.13 -2.758 -13.722 0.834 -3.249 3.249 -3.92 8 -1.423 10.08 1.246 1.034 1.5 0.915 1.5 -0.703 0 -1.071 1.023 -2.909 2.272 -4.083 2.091 -1.964 2.578 -2.03 6.102 -0.818 3.559 1.224 5.574 2.985 5.61 4.905 0.017 0.91 -7.218 7.759 -7.985 7.558 -0.275 -0.072 -1.549 -0.331 -2.83 -0.575 z" fill="#f51919"/><path d="m 112.34 257.21 c -23.93 -4.185 -41.556 -11.472 -58.666 -24.25 -24.536 -18.329 -41.17 -43.546 -47.911 -72.64 -4.37 -18.858 -4.622 -20.835 -4.141 -32.5 1.792 -43.475 22.892 -81.21 58.54 -104.68 19.478 -12.827 42.43 -20.01 67.18 -21.03 c 11.665 -0.481 13.642 -0.229 32.5 4.141 40.01 9.272 73.27 37.97 88.8 76.63 6.739 16.772 8.155 25.01 8.155 47.44 0 17.677 -0.274 21.1 -2.359 29.444 -10.255 41.06 -38.571 73.857 -77.16 89.36 -15.398 6.187 -25.23 7.999 -44.944 8.281 -9.625 0.137 -18.625 0.053 -20 -0.188 z m 31.21 -3.898 c 14.314 -1.068 32.99 -6.983 46.49 -14.725 11.825 -6.78 18.503 -11.831 27.375 -20.703 8.872 -8.872 13.923 -15.55 20.703 -27.375 20.589 -35.908 20.57 -84.46 -0.047 -120.49 c -11.416 -19.954 -25.959 -34.867 -45.37 -46.528 -38.929 -23.384 -92.52 -22.2 -130.36 2.88 -29.895 19.817 -49.12 49.634 -55.1 85.45 c -0.505 3.03 -0.928 11.431 -0.941 18.679 -0.076 45.27 23.16 85.03 63.07 107.93 9.621 5.52 18.657 9.03 31.905 12.389 8.59 2.179 24.752 3.94 31.07 3.386 1.925 -0.169 6.967 -0.566 11.205 -0.882 z m -31.02 -18.1 c -62.762 -10.526 -102.09 -74.02 -83.65 -135.06 12.227 -40.477 48.798 -70.26 91.12 -74.21 c 18.904 -1.765 36.985 1.371 54.03 9.373 12.06 5.662 19.18 10.46 28.18 18.994 21.751 20.621 33.12 46.95 33.12 76.7 0 64.993 -58.852 114.93 -122.81 104.2 z m 67.811 -60.37 c 9.236 -1.751 12.352 -3.462 14.75 -8.1 3.387 -6.551 3.02 -11.09 -1.25 -15.231 -1.925 -1.87 -3.5 -3.916 -3.5 -4.548 0 -0.813 4.291 -1.149 14.679 -1.149 17.555 0 21.268 -0.944 21.432 -5.451 0.295 -8.122 -1.926 -11.837 -9.364 -15.662 -5.136 -2.642 -18.374 -4.262 -29.432 -3.603 l -9.184 0.548 l -2.316 -4.639 c -1.865 -3.736 -3.386 -5.171 -7.816 -7.373 -7.212 -3.586 -19.8 -3.983 -26 -0.82 -2.156 1.1 -4.143 2 -4.414 2 -0.272 0 0.606 -2.362 1.95 -5.25 1.827 -3.924 2.447 -6.955 2.454 -12 l 0.01 -6.75 h 19.532 c 21.265 0 24.322 -0.595 29.809 -5.803 6.531 -6.199 8.495 -15.722 4.741 -22.987 -5.294 -10.243 -21.468 -19.957 -43.08 -25.873 -5.03 -1.378 -10.337 -1.782 -23.5 -1.792 -15.487 -0.012 -17.878 0.231 -26.858 2.726 -11.635 3.233 -23.856 9.01 -31.992 15.13 -10.333 7.772 -13.08 13.957 -10.671 24.01 1.01 4.206 1.013 5.753 0.02 7.678 -1.029 1.995 -1.015 2.195 0.079 1.161 2.577 -2.436 2.661 -1.179 0.311 4.639 -2.481 6.142 -3.225 13.148 -2.029 19.11 l 0.702 3.5 l -2.065 -3.5 c -1.59 -2.695 -1.912 -2.925 -1.402 -1 1.254 4.732 4.588 10.269 8.243 13.69 4.509 4.221 13.383 9.05 12.525 6.811 -0.743 -1.935 0.202 -1.895 10 0.426 4.475 1.06 11.512 2.137 15.637 2.393 8.415 0.523 13.894 2.186 12.336 3.744 -1.206 1.206 -3.485 1.25 -18.836 0.371 -9.634 -0.552 -13.577 -0.343 -20 1.06 -4.4 0.961 -10.145 2.063 -12.768 2.449 -6.964 1.024 -12.888 5.522 -14.614 11.09 -0.76 2.453 -1.766 5.232 -2.235 6.174 -0.648 1.299 -0.495 1.575 0.632 1.143 0.83 -0.319 1.485 -1.82 1.485 -3.404 0 -1.559 0.487 -3.135 1.082 -3.503 0.739 -0.456 0.977 1.012 0.75 4.626 -0.314 5 -0.153 5.417 2.893 7.494 9.591 6.538 33.27 8.531 46.543 3.917 4.568 -1.588 7.906 -3.43 9.06 -5 2.282 -3.093 4.42 -3.197 4.866 -0.236 0.304 2.02 0.6 1.844 2.917 -1.75 1.439 -2.233 2.815 -6.126 3.115 -8.812 0.679 -6.084 3.796 -9.688 8.378 -9.688 3.89 0 8.391 1.566 8.391 2.919 0 1.211 -13.01 11.08 -14.605 11.08 -0.645 0 -1.472 1.688 -1.837 3.75 -0.366 2.063 -0.914 4.594 -1.218 5.625 -0.363 1.23 -0.167 1.636 0.571 1.18 0.621 -0.384 3.172 1.108 5.697 3.33 5.663 4.985 10.852 6.634 31.393 9.981 7.145 1.164 18.315 1.239 24 0.161 z m -17.731 -37.721 c 0.973 -0.254 2.323 -0.237 3 0.037 0.677 0.274 -0.119 0.481 -1.769 0.461 -1.65 -0.02 -2.204 -0.244 -1.231 -0.498 z m -30.519 -16.996 c -2.332 -0.61 -2.206 -1.533 0.564 -4.136 3.085 -2.898 3.354 -2.774 2.875 1.326 -0.225 1.925 -0.697 3.448 -1.049 3.384 -0.352 -0.064 -1.428 -0.322 -2.391 -0.573 z m 5.44 -2.061 c 0.185 -0.963 1 -1.75 1.81 -1.75 0.81 0 1.624 0.787 1.81 1.75 0.236 1.228 -0.303 1.75 -1.81 1.75 -1.506 0 -2.046 -0.522 -1.81 -1.75 z m -61.69 -8.171 c -5.881 -1.619 -8.166 -2.934 -11.297 -6.501 -3.696 -4.209 -4.671 -7.301 -3.867 -12.256 0.753 -4.639 2.744 -6.726 9.571 -10.03 7.295 -3.535 16.59 -3.767 22.675 -0.566 4.633 2.438 9.419 8.135 9.419 11.212 0 2.976 -1.182 2.534 -3.727 -1.396 c -2.576 -3.977 -6.624 -5.162 -13.906 -4.07 -11.986 1.797 -12.654 14.233 -0.94 17.512 c 2.477 0.693 5.306 0.948 6.288 0.566 1.487 -0.579 1.243 -0.924 -1.465 -2.072 -1.787 -0.757 -3.796 -2.576 -4.464 -4.04 -1.103 -2.421 -0.952 -2.892 1.651 -5.131 2.36 -2.03 3.501 -2.347 6.464 -1.793 4.342 0.811 6.098 2.126 6.098 4.566 0 1.01 0.669 2.202 1.486 2.659 2.353 1.317 -2.798 7.776 -7.797 9.776 -4.971 1.989 -12.143 2.685 -16.189 1.571 z m 37.67 -12.795 c -1.282 -0.244 -4.069 -2.183 -6.194 -4.308 -4.731 -4.731 -5.97 -9.668 -3.647 -14.538 2.454 -5.146 6 -6.944 13.628 -6.901 13.02 0.074 21.623 8.16 18.957 17.816 -1.106 4.01 -7.146 8.647 -11.252 8.647 h -2.731 l 3.535 -3.104 c 5.498 -4.827 4.772 -10.733 -1.821 -14.807 -4.97 -3.072 -10.13 -2.758 -13.722 0.834 -3.249 3.249 -3.92 8 -1.423 10.08 1.246 1.034 1.5 0.915 1.5 -0.703 0 -1.071 1.023 -2.909 2.272 -4.083 2.091 -1.964 2.578 -2.03 6.102 -0.818 3.559 1.224 5.574 2.985 5.61 4.905 0.017 0.91 -7.218 7.759 -7.985 7.558 -0.275 -0.072 -1.549 -0.331 -2.83 -0.575 z" fill="#625266"/><path d="m 115.84 256.78 c -52.09 -6.339 -95.74 -44.25 -108.57 -94.29 -5.319 -20.738 -6.211 -32.45 -3.609 -47.36 5.644 -32.33 16.356 -54.06 36.649 -74.35 20.293 -20.293 42.03 -31.01 74.35 -36.649 c 14.908 -2.603 26.619 -1.71 47.36 3.609 34.403 8.824 63.6 32.13 80.11 63.926 20.18 38.886 19.888 80.14 -0.848 118.95 -24.06 45.02 -75.63 72.22 -125.44 66.16 z m 27.705 -3.465 c 14.314 -1.068 32.99 -6.983 46.49 -14.725 11.825 -6.78 18.503 -11.831 27.375 -20.703 8.872 -8.872 13.923 -15.55 20.703 -27.375 20.589 -35.908 20.57 -84.46 -0.047 -120.49 c -11.416 -19.954 -25.959 -34.867 -45.37 -46.528 -38.929 -23.384 -92.52 -22.2 -130.36 2.88 -29.895 19.817 -49.12 49.634 -55.1 85.45 c -0.505 3.03 -0.928 11.431 -0.941 18.679 -0.076 45.27 23.16 85.03 63.07 107.93 9.621 5.52 18.657 9.03 31.905 12.389 8.59 2.179 24.752 3.94 31.07 3.386 1.925 -0.169 6.967 -0.566 11.205 -0.882 z m -31.02 -18.1 c -62.762 -10.526 -102.09 -74.02 -83.65 -135.06 12.227 -40.477 48.798 -70.26 91.12 -74.21 c 18.904 -1.765 36.985 1.371 54.03 9.373 12.06 5.662 19.18 10.46 28.18 18.994 21.751 20.621 33.12 46.95 33.12 76.7 0 64.993 -58.852 114.93 -122.81 104.2 z m 60.663 -48.742 c 9.02 -2.613 15.892 -6.816 17.377 -10.631 0.542 -1.391 1.396 -3.205 1.899 -4.03 3.03 -4.973 4.831 -10.02 4.85 -13.607 l 0.022 -4.107 l 8.03 -0.55 c 5.565 -0.381 9.461 -1.269 12.698 -2.893 6.36 -3.191 8.376 -6.241 8.427 -12.75 0.035 -4.467 -0.398 -5.743 -2.806 -8.278 -1.566 -1.648 -4.536 -3.866 -6.6 -4.927 -5.136 -2.642 -18.374 -4.262 -29.432 -3.603 l -9.184 0.548 l -2.316 -4.639 c -1.865 -3.736 -3.386 -5.171 -7.816 -7.373 -7.212 -3.586 -19.8 -3.983 -26 -0.82 -2.156 1.1 -4.143 2 -4.414 2 -0.272 0 0.606 -2.362 1.95 -5.25 1.827 -3.924 2.447 -6.955 2.454 -12 l 0.01 -6.75 h 19.532 c 21.265 0 24.322 -0.595 29.809 -5.803 6.417 -6.09 8.522 -16.05 4.848 -22.932 -2.978 -5.581 -11.943 -13.888 -18.956 -17.563 -14.74 -7.725 -28.52 -10.761 -48.705 -10.733 -27.569 0.038 -50.32 7.984 -62.66 21.879 -6.742 7.593 -8.07 12.508 -5.759 21.387 1.012 3.897 0.84 4.854 -2 11.11 -7.31 16.1 -1.615 31.12 15.04 39.679 6.49 3.335 15.02 4.959 26.11 4.97 4.495 0.004 7.75 0.428 7.75 1.01 0 0.625 -5.954 1 -15.864 1 -18.51 0 -24.367 0.9 -32.848 5.05 -7.201 3.522 -10.06 6.701 -10.934 12.136 -0.43 2.691 -1.525 4.564 -3.566 6.1 -6.561 4.936 -9.861 9.104 -9.277 11.716 1.653 7.382 12.314 11.509 29.488 11.414 16.568 -0.091 30.976 -4.11 39.35 -10.977 1.73 -1.418 4.712 -3.571 6.625 -4.783 1.913 -1.213 4.774 -4.133 6.356 -6.489 1.583 -2.356 3.069 -4.092 3.304 -3.858 1.127 1.127 -1.224 9.259 -3.758 12.996 -5.03 7.421 -3.271 13.04 5.737 18.32 7.399 4.336 16.381 6.186 30.518 6.287 10.463 0.075 14.03 -0.312 20.715 -2.25 z m -51.852 -40.578 c 0 -2.799 1.448 -4.082 4.607 -4.082 4.177 0 4.361 1.448 0.443 3.474 -3.359 1.737 -5.05 1.941 -5.05 0.607 z m 10.75 -25.771 c -2.332 -0.61 -2.206 -1.533 0.564 -4.136 3.085 -2.898 3.354 -2.774 2.875 1.326 -0.225 1.925 -0.697 3.448 -1.049 3.384 -0.352 -0.064 -1.428 -0.322 -2.391 -0.573 z m -60.25 -14.191 c -5.648 -2.593 -7.718 -5.328 -8.253 -10.905 -0.657 -6.836 2.452 -10.37 11.206 -12.739 6.99 -1.892 11.969 -1.646 17.547 0.866 3.292 1.482 3.322 1.536 0.5 0.908 -3.869 -0.862 -6.05 -0.733 -11.181 0.657 -4.63 1.256 -8.319 5.861 -8.319 10.385 0 3.618 4.161 8.112 8.987 9.704 2.262 0.747 4.343 1.728 4.622 2.181 1.01 1.631 -11.1 0.784 -15.11 -1.057 z m 14.746 -6.274 c -3.107 -3.107 0.251 -8.266 3.898 -5.988 1.09 0.681 2.885 0.951 3.989 0.6 1.773 -0.563 1.97 -0.247 1.687 2.702 -0.299 3.118 -0.585 3.359 -4.325 3.635 -2.249 0.166 -4.551 -0.251 -5.25 -0.95 z m 27.579 -8.02 c -1.819 -1.819 -1.876 -2.202 -0.528 -3.55 0.961 -0.961 2 -1.195 2.857 -0.643 0.74 0.478 2.246 0.868 3.346 0.868 3.215 0 2.557 3.707 -0.818 4.61 -2.173 0.581 -3.285 0.287 -4.857 -1.285 z m 16.87 -2.026 c 0.391 -3.655 -0.012 -4.932 -2.69 -8.531 -5.721 -7.686 -16.293 -8.194 -20.897 -1.01 -1.733 2.706 -2.076 2.896 -2.09 1.161 -0.009 -1.142 1.123 -3.147 2.517 -4.456 2.153 -2.023 3.55 -2.38 9.299 -2.38 7.24 0 12.562 2.281 15.668 6.716 2.126 3.036 1.92 9 -0.383 11.09 -1.82 1.647 -1.867 1.561 -1.423 -2.595 z" fill="#911212"/><path d="m 115.84 256.78 c -52.09 -6.339 -95.74 -44.25 -108.57 -94.29 -5.319 -20.738 -6.211 -32.45 -3.609 -47.36 5.644 -32.33 16.356 -54.06 36.649 -74.35 20.293 -20.293 42.03 -31.01 74.35 -36.649 c 14.908 -2.603 26.619 -1.71 47.36 3.609 34.403 8.824 63.6 32.13 80.11 63.926 20.18 38.886 19.888 80.14 -0.848 118.95 -24.06 45.02 -75.63 72.22 -125.44 66.16 z m 25.722 -1.962 c 20.987 -2.042 40.08 -8.834 58.16 -20.693 9.158 -6.01 27.921 -24.769 33.927 -33.927 16.05 -24.474 23.354 -52.794 20.765 -80.52 c -2.94 -31.484 -15.752 -57.953 -38.668 -79.88 -21.01 -20.11 -45.39 -31.15 -74.925 -33.932 -35.7 -3.367 -70.73 8.901 -96.89 33.932 -22.818 21.835 -35.592 48.19 -38.548 79.54 c -3.367 35.7 8.901 70.73 33.932 96.89 23.812 24.885 54.17 38.33 89.02 39.432 1.925 0.061 7.875 -0.315 13.222 -0.835 z m -23.71 -20.11 c -26.681 -2.808 -52.597 -17.188 -69.65 -38.644 -31.06 -39.09 -30.23 -93.98 2.02 -132.66 12.737 -15.276 34.02 -28.27 56.12 -34.27 c 5.02 -1.362 10.374 -1.763 23.5 -1.76 20.867 0.004 28.29 1.687 46 10.43 28.881 14.256 47.38 37.07 55.613 68.58 1.998 7.646 2.324 11.238 2.264 24.933 -0.061 13.983 -0.403 17.252 -2.712 25.929 -11.307 42.502 -47.06 73.05 -90.75 77.53 -11.11 1.14 -10.935 1.14 -22.406 -0.067 z m 29.98 -4.42 c 43.994 -7.672 78.26 -44.813 82.38 -89.3 c 2.848 -30.723 -6.724 -57.968 -28.498 -81.11 -17.638 -18.749 -35.819 -27.548 -62.06 -30.03 -21.939 -2.079 -47.23 3.01 -62.49 12.56 -5.917 3.706 -20.835 18.403 -27.317 26.912 -14.1 18.516 -20.661 38.23 -20.623 62 c 0.029 18.12 2.947 30.27 11.07 46.08 20.263 39.453 63.28 60.61 107.54 52.897 z m -26.492 -84.39 c 0 -2.799 1.448 -4.082 4.607 -4.082 4.177 0 4.361 1.448 0.443 3.474 -3.359 1.737 -5.05 1.941 -5.05 0.607 z m -49.5 -39.963 c -5.648 -2.593 -7.718 -5.328 -8.253 -10.905 -0.657 -6.836 2.452 -10.37 11.206 -12.739 6.99 -1.892 11.969 -1.646 17.547 0.866 3.292 1.482 3.322 1.536 0.5 0.908 -3.869 -0.862 -6.05 -0.733 -11.181 0.657 -4.63 1.256 -8.319 5.861 -8.319 10.385 0 3.618 4.161 8.112 8.987 9.704 2.262 0.747 4.343 1.728 4.622 2.181 1.01 1.631 -11.1 0.784 -15.11 -1.057 z m 14.746 -6.274 c -3.107 -3.107 0.251 -8.266 3.898 -5.988 1.09 0.681 2.885 0.951 3.989 0.6 1.773 -0.563 1.97 -0.247 1.687 2.702 -0.299 3.118 -0.585 3.359 -4.325 3.635 -2.249 0.166 -4.551 -0.251 -5.25 -0.95 z m 27.579 -8.02 c -1.819 -1.819 -1.876 -2.202 -0.528 -3.55 0.961 -0.961 2 -1.195 2.857 -0.643 0.74 0.478 2.246 0.868 3.346 0.868 3.215 0 2.557 3.707 -0.818 4.61 -2.173 0.581 -3.285 0.287 -4.857 -1.285 z m 16.87 -2.026 c 0.391 -3.655 -0.012 -4.932 -2.69 -8.531 -5.721 -7.686 -16.293 -8.194 -20.897 -1.01 -1.733 2.706 -2.076 2.896 -2.09 1.161 -0.009 -1.142 1.123 -3.147 2.517 -4.456 2.153 -2.023 3.55 -2.38 9.299 -2.38 7.24 0 12.562 2.281 15.668 6.716 2.126 3.036 1.92 9 -0.383 11.09 -1.82 1.647 -1.867 1.561 -1.423 -2.595 z" fill="#5a1010"/></g><path d="m 132.23 152.66 c -13.612 -3.077 -16.422 -7.627 -8.935 -14.47 4.84 -4.424 4.42 -6.341 -1.268 -5.796 -2.869 0.275 -3.674 0.966 -5.411 4.644 -1.529 3.238 -3.411 5.118 -7.507 7.5 -5.081 2.955 -6.1 3.174 -14.466 3.105 -9.846 -0.08 -16.669 -2.348 -17.325 -5.757 -1.404 -7.291 4.731 -10.512 21.453 -11.263 6.53 -0.293 12.95 -0.755 14.267 -1.025 4.228 -0.869 0.866 -2.355 -8.896 -3.934 -5.149 -0.833 -11.294 -2.369 -13.654 -3.413 -4.424 -1.957 -8.334 -6.878 -8.341 -10.497 -0.003 -1.612 0.5 -1.359 2.823 1.424 2.526 3.03 3.457 3.426 8.75 3.767 8.28 0.533 11.903 -1.771 12.864 -8.184 l 0.696 -4.64 l 1.958 2.489 c 2.924 3.717 5.639 4.206 8.491 1.527 3.104 -2.916 3.059 -4.725 -0.15 -5.945 -3.245 -1.234 -3 -1.265 -4.911 0.644 -0.89 0.89 -1.87 1.368 -2.177 1.061 -0.307 -0.307 0.589 -1.706 1.992 -3.109 2.673 -2.673 4.591 -2.616 7.912 0.236 2.334 2 2.206 4.079 -0.424 6.879 l -2.174 2.314 h 2.251 c 1.238 0 3.567 -1.315 5.174 -2.923 l 2.923 -2.923 v 4.346 c 0 3.449 -0.742 5.319 -3.595 9.06 -2.815 3.687 -3.303 4.9 -2.25 5.59 0.74 0.484 2.245 0.656 3.345 0.381 1.1 -0.275 2.611 -0.505 3.358 -0.513 0.925 -0.009 1.17 -0.764 0.769 -2.362 -1.727 -6.883 16.485 -5.624 19.369 1.339 1.137 2.746 1.371 2.827 6.581 2.289 11.04 -1.14 22.423 3.245 22.423 8.639 0 3.075 -3.065 4.081 -12.434 4.081 -4.711 0 -8.566 0.302 -8.566 0.671 0 0.369 0.75 1.5 1.667 2.513 2.549 2.817 2.098 7.505 -1.022 10.626 -2.44 2.44 -3.452 2.708 -10.917 2.886 -4.525 0.108 -11.11 -0.456 -14.64 -1.253 z m 12.412 -19.444 c 0.345 -0.558 -0.403 -0.993 -1.691 -0.985 -1.858 0.012 -2.02 0.205 -0.809 0.985 1.861 1.202 1.757 1.202 2.5 0 z" fill="#d8bfd8" fill-rule="evenodd"/></svg>