<?xml version="1.0" encoding="UTF-8" standalone="no"?>
<svg
   xmlns:dc="http://purl.org/dc/elements/1.1/"
   xmlns:cc="http://creativecommons.org/ns#"
   xmlns:rdf="http://www.w3.org/1999/02/22-rdf-syntax-ns#"
   xmlns:svg="http://www.w3.org/2000/svg"
   xmlns="http://www.w3.org/2000/svg"
   xmlns:sodipodi="http://sodipodi.sourceforge.net/DTD/sodipodi-0.dtd"
   xmlns:inkscape="http://www.inkscape.org/namespaces/inkscape"
   viewBox="0 0 256 256"
   version="1.1"
   id="svg203"
   sodipodi:docname="clipit-trayicon-offline.svg"
   inkscape:version="0.92.4 5da689c313, 2019-01-14">
  <metadata
     id="metadata207">
    <rdf:RDF>
      <cc:Work
         rdf:about="">
        <dc:format>image/svg+xml</dc:format>
        <dc:type
           rdf:resource="http://purl.org/dc/dcmitype/StillImage" />
      </cc:Work>
    </rdf:RDF>
  </metadata>
  <sodipodi:namedview
     pagecolor="#ffffff"
     bordercolor="#666666"
     borderopacity="1"
     objecttolerance="10"
     gridtolerance="10"
     guidetolerance="10"
     inkscape:pageopacity="0"
     inkscape:pageshadow="2"
     inkscape:window-width="1447"
     inkscape:window-height="862"
     id="namedview205"
     showgrid="false"
     inkscape:zoom="0.921875"
     inkscape:cx="128"
     inkscape:cy="41.220339"
     inkscape:window-x="269"
     inkscape:window-y="725"
     inkscape:window-maximized="0"
     inkscape:current-layer="svg203" />
  <defs
     id="defs175">
    <filter
       id="0"
       color-interpolation-filters="sRGB">
      <feColorMatrix
         values="1.16 0.42 0.63 -0.634921 0 1.16 0.42 0.63 -0.634921 0 1.16 0.42 0.63 -0.634921 0 0 0 0 1 0 "
         id="feColorMatrix143" />
    </filter>
    <filter
       id="1"
       color-interpolation-filters="sRGB">
      <feColorMatrix
         values="1.16 0.42 0.63 -0.634921 0 1.16 0.42 0.63 -0.634921 0 1.16 0.42 0.63 -0.634921 0 0 0 0 1 0 "
         id="feColorMatrix146" />
    </filter>
    <linearGradient
       gradientTransform="matrix(0.43837 0 0 0.45754 51.22 -6.778)"
       gradientUnits="userSpaceOnUse"
       id="4"
       y2="-19.798"
       x2="-22.574"
       y1="14.969"
       x1="-64.25">
      <stop
         stop-color="#747671"
         id="stop149" />
      <stop
         offset="1"
         stop-color="#cbcbcb"
         id="stop151" />
    </linearGradient>
    <linearGradient
       gradientTransform="matrix(0.50952 0.00872 0.01188 0.56104 -147.82 -70.37)"
       gradientUnits="userSpaceOnUse"
       id="3"
       y2="96.25"
       x2="321.58"
       y1="83.5"
       x1="321.4">
      <stop
         stop-color="#787878"
         id="stop154" />
      <stop
         offset="0.344"
         stop-color="#bebebe"
         id="stop156" />
      <stop
         offset="0.373"
         stop-color="#c8c8c8"
         id="stop158" />
      <stop
         offset="0.49"
         stop-color="#e6e6e6"
         id="stop160" />
      <stop
         offset="1"
         stop-color="#8c8c8c"
         id="stop162" />
    </linearGradient>
    <linearGradient
       gradientUnits="userSpaceOnUse"
       id="2"
       y2="-18"
       x2="9.789"
       y1="16"
       x1="9.316">
      <stop
         stop-color="#9d7d53"
         id="stop165" />
      <stop
         offset="1"
         stop-color="#ad8757"
         id="stop167" />
    </linearGradient>
    <linearGradient
       gradientTransform="matrix(0.54289 0 0 0.48891 -0.029 -18.233)"
       gradientUnits="userSpaceOnUse"
       id="5"
       y2="70.02"
       x2="25.465"
       y1="0.478"
       x1="24.467">
      <stop
         stop-color="#c1a581"
         id="stop170" />
      <stop
         offset="1"
         stop-color="#9b784b"
         id="stop172" />
    </linearGradient>
  </defs>
  <path
     inkscape:connector-curvature="0"
     style="color:#000000;fill:#b3b3b3"
     d="M 193.83035,18.670356 C 419.17035,212.08036 -44.149652,398.06036 3.4603482,98.93036 13.898348,33.340356 133.11035,-33.449644 193.83035,18.670356 Z"
     id="path417" />
  <g
     style="fill:#ffffff;fill-opacity:0.98799995"
     transform="matrix(-0.45465,0,0,0.40759,236.57035,27.612356)"
     id="g423">
    <path
       inkscape:connector-curvature="0"
       d="m 373.85,410.64 c 2.748,-2.083 5.216,-5.654 6.868,-9.938 2.553,-6.619 2.578,-7.559 2.552,-93.98 -0.025,-82.12 -0.158,-87.61 -2.245,-92.64 -1.22,-2.94 -3.94,-7.15 -6.04,-9.356 l -3.824,-4.01 -64.9,-0.368 c -46.821,-0.266 -65.826,0.059 -68.22,1.167 -4.604,2.127 -10.125,9.506 -11.627,15.537 -0.818,3.287 -1.25,35.13 -1.237,91.25 0.018,82.29 0.124,86.45 2.324,91.55 2.733,6.34 4.416,8.698 8.394,11.756 2.702,2.078 8.703,2.278 68.32,2.278 h 65.35 l 4.289,-3.251 z"
       id="path419" />
    <path
       inkscape:connector-curvature="0"
       d="m 205.97,271.29 c 0.004,-72.888 0.097,-76.08 2.339,-80.18 5.01,-9.165 4.242,-9.02 52.717,-9.762 l 43.788,-0.668 V 146.6 c 0,-38.633 -0.233,-39.805 -9.229,-46.45 l -4.968,-3.67 -33.34,-0.428 -33.34,-0.428 v -5.92 -5.92 h -17.973 -17.973 v 6.01 6.01 h -28.825 c -17.03,0 -30.971,0.603 -34.07,1.474 -6.356,1.785 -13.469,9.236 -14.414,15.1 -0.368,2.279 -0.512,52.86 -0.32,112.4 0.34,105.86 0.401,108.34 2.744,111.84 1.318,1.972 4.553,4.979 7.189,6.683 4.716,3.048 5.442,3.104 45.23,3.498 l 40.44,0.4 0.004,-75.914 z M 172.417,110.51 v -5.346 h 7.788 c 4.393,0 7.788,0.583 7.788,1.337 0,0.832 6.79,1.337 17.973,1.337 11.183,0 17.973,-0.505 17.973,-1.337 0,-0.743 3.195,-1.337 7.189,-1.337 h 7.189 v 5.346 5.346 h -32.95 -32.95 z"
       id="path421" />
  </g>
</svg>
