<svg xmlns="http://www.w3.org/2000/svg" viewBox="0 0 256 256"><path d="m 236.18 58.829 c -44.15 -89.45 -195.74 -62.25 -224.24 8.519 -33.961 84.3 37.791 250.46 175.32 161.11 46.38 -31.27 93.06 -80.18 48.908 -169.63 z" fill="#2f4f4f" color="#000"/><g fill="#fff" fill-rule="evenodd"><path d="m 48.29 152.58 c 0.06 -1.428 0.332 -1.594 2.464 -1.496 1.706 0.078 2.642 -0.249 3.247 -1.138 1.379 -2.024 2.123 -1.389 1.993 1.7 l -0.121 2.89 l -3.825 -0.176 c -3.655 -0.168 -3.822 -0.247 -3.758 -1.782 z"/><path d="m 53.675 146.07 c 0.104 -2.477 0.491 -2.865 2.5 -2.507 0.436 0.077 0.815 -0.404 0.843 -1.069 0.028 -0.671 0.783 -1.506 1.693 -1.876 0.903 -0.366 1.827 -1.094 2.052 -1.618 0.225 -0.524 0.809 -0.934 1.298 -0.911 0.51 0.023 0.915 -0.609 0.952 -1.486 0.063 -1.512 1.401 -3.048 2.446 -2.809 1.219 0.278 2.143 0.004 2.17 -0.643 0.016 -0.379 0.451 -1.077 0.966 -1.553 0.516 -0.476 1.065 -1.204 1.222 -1.618 0.19 -0.502 0.926 -0.229 2.207 0.816 2.201 1.797 2.074 2.7 -0.526 3.721 -1.01 0.396 -2.244 1.421 -2.748 2.279 -0.504 0.858 -1.248 1.544 -1.653 1.525 -1.012 -0.046 -3.377 2.426 -3.98 4.161 -0.329 0.946 -0.994 1.402 -1.978 1.357 -0.815 -0.037 -1.666 0.358 -1.89 0.879 -0.224 0.521 -0.919 0.928 -1.543 0.904 -0.915 -0.034 -0.965 0.077 -0.26 0.573 0.744 0.523 0.717 0.762 -0.181 1.591 -0.581 0.536 -1.651 0.948 -2.377 0.915 -1.116 -0.051 -1.304 -0.459 -1.213 -2.63 z"/><path d="m 79.972 129.41 c -0.009 -0.443 -0.621 -0.833 -1.36 -0.867 -0.963 -0.044 -1.222 -0.344 -0.914 -1.06 0.236 -0.549 0.441 -1.264 0.454 -1.588 0.014 -0.324 0.742 -0.557 1.618 -0.517 0.877 0.04 1.606 -0.222 1.621 -0.583 0.015 -0.361 0.758 -0.952 1.652 -1.315 1.059 -0.429 1.646 -1.182 1.687 -2.161 0.035 -0.826 0.35 -1.49 0.7 -1.473 0.351 0.016 0.625 0.318 0.611 0.672 -0.015 0.357 1.673 0.72 3.798 0.818 3.4 0.156 3.819 0.318 3.771 1.46 -0.03 0.707 -0.341 1.271 -0.691 1.255 -0.351 -0.016 -0.656 0.404 -0.678 0.934 -0.032 0.765 -0.961 0.921 -4.503 0.758 -4.335 -0.199 -4.465 -0.159 -4.53 1.401 -0.048 1.154 -0.411 1.59 -1.289 1.55 -0.672 -0.031 -1.382 0.299 -1.577 0.732 -0.284 0.631 -0.358 0.627 -0.372 -0.017 z"/><path d="m 122.58 117.37 c 0.039 -0.941 -0.623 -1.086 -7.279 -1.601 -1.051 -0.081 -2.28 0.097 -2.731 0.396 -0.608 0.403 -0.799 0.024 -0.737 -1.462 0.065 -1.562 0.36 -1.993 1.33 -1.948 1.61 0.074 4.613 -2.697 4.681 -4.319 0.034 -0.815 0.487 -1.235 1.29 -1.199 0.681 0.031 1.44 -0.243 1.687 -0.61 0.247 -0.367 0.793 -0.516 1.213 -0.331 0.42 0.185 0.784 -0.141 0.81 -0.723 0.267 -6.102 0.529 -7.06 1.968 -7.201 0.927 -0.09 1.537 -0.652 1.707 -1.575 0.194 -1.056 0.69 -1.416 1.873 -1.362 1.073 0.049 1.738 -0.349 1.996 -1.195 0.213 -0.698 0.784 -1.251 1.269 -1.229 0.487 0.022 0.913 -0.607 0.952 -1.404 0.074 -1.523 1.407 -3.979 1.363 -2.512 -0.013 0.442 0.407 0.823 0.932 0.847 0.691 0.032 0.926 0.758 0.849 2.613 -0.078 1.856 -0.373 2.557 -1.064 2.525 -0.708 -0.033 -0.988 0.705 -1.077 2.847 -0.09 2.141 0.127 2.902 0.835 2.934 0.526 0.024 0.944 0.333 0.929 0.686 -0.015 0.353 -0.505 0.62 -1.089 0.594 -0.584 -0.027 -0.934 0.093 -0.776 0.266 0.475 0.522 5.03 -0.196 5.057 -0.797 0.013 -0.307 -0.694 -0.591 -1.57 -0.631 -1.464 -0.067 -1.584 -0.309 -1.473 -2.964 0.111 -2.655 0.251 -2.885 1.715 -2.817 1.193 0.055 1.608 -0.265 1.65 -1.272 0.034 -0.805 0.574 -1.456 1.345 -1.622 2.55 -0.549 1.518 -2.047 -1.505 -2.186 -2.635 -0.121 -2.863 -0.263 -2.802 -1.738 0.037 -0.883 0.354 -1.593 0.705 -1.577 0.351 0.016 0.669 -0.621 0.708 -1.416 0.054 -1.099 0.198 -1.221 0.602 -0.512 0.45 0.789 0.703 0.776 1.636 -0.086 0.607 -0.56 1.371 -1.01 1.696 -0.992 0.326 0.015 0.61 -0.406 0.632 -0.936 0.022 -0.53 -0.267 -0.978 -0.643 -0.995 -0.376 -0.017 -0.235 -0.445 0.314 -0.951 1.12 -1.033 3.652 -1.143 3.611 -0.156 -0.015 0.353 0.26 0.656 0.611 0.672 0.925 0.043 0.911 -3.01 -0.016 -3.436 -0.627 -0.288 -0.624 -0.363 0.016 -0.375 0.439 -0.008 0.816 -0.416 0.836 -0.906 0.021 -0.511 0.998 -1.028 2.286 -1.211 1.968 -0.279 2.259 -0.557 2.328 -2.217 0.072 -1.726 0.665 -2.214 2.241 -1.845 0.309 0.072 1.269 -0.482 2.134 -1.232 1.179 -1.021 1.377 -1.503 0.791 -1.924 -1.074 -0.77 0.616 -1.761 2.851 -1.671 1.494 0.06 1.695 0.368 1.939 2.968 0.275 2.939 -0.455 5.627 -1.723 6.339 -0.382 0.215 -0.682 0.084 -0.666 -0.29 0.047 -1.126 -1.89 -0.853 -2.381 0.335 -0.251 0.608 -0.847 1.319 -1.324 1.58 -0.477 0.261 -0.89 1.039 -0.919 1.728 -0.034 0.801 -0.488 1.233 -1.259 1.197 -1.548 -0.071 -2.031 1.114 -2.211 5.421 -0.111 2.665 -0.369 3.47 -1.102 3.436 -0.526 -0.024 -0.976 0.317 -1 0.759 -0.029 0.535 -0.236 0.472 -0.621 -0.189 -0.341 -0.586 -0.595 -0.681 -0.619 -0.233 -0.023 0.418 -0.623 0.916 -1.334 1.108 -0.962 0.26 -1.316 0.913 -1.384 2.554 -0.089 2.128 0.658 2.927 1.528 1.636 0.231 -0.343 0.726 -0.61 1.099 -0.593 0.428 0.02 0.37 0.374 -0.156 0.958 -0.459 0.51 -1.229 0.909 -1.712 0.887 -0.483 -0.022 -0.9 0.469 -0.926 1.092 -0.026 0.623 -0.705 1.388 -1.508 1.701 -0.903 0.351 -1.566 1.239 -1.737 2.325 -0.152 0.966 -0.584 1.743 -0.96 1.726 -0.376 -0.017 -1.064 0.447 -1.528 1.032 -0.719 0.906 -0.993 0.927 -1.849 0.145 -0.552 -0.505 -1.196 -0.741 -1.431 -0.524 -0.235 0.217 -0.092 0.409 0.317 0.428 1.503 0.069 0.665 2.573 -0.973 2.909 -0.886 0.181 -1.629 0.66 -1.651 1.063 -0.026 0.467 -0.201 0.492 -0.482 0.069 -0.243 -0.365 -1.015 -0.69 -1.717 -0.722 -0.917 -0.042 -1.311 -0.557 -1.403 -1.834 -0.1 -1.395 -0.461 -1.791 -1.679 -1.847 -1.299 -0.06 -1.565 0.243 -1.632 1.856 -0.068 1.627 0.167 1.938 1.513 2 1.336 0.061 1.581 0.377 1.515 1.947 -0.043 1.03 0.275 2.01 0.707 2.18 0.432 0.168 -0.305 0.616 -1.638 0.994 -1.913 0.542 -2.438 1.015 -2.489 2.243 -0.04 0.955 -0.435 1.539 -1.021 1.512 -0.526 -0.024 -0.974 0.39 -0.997 0.92 -0.022 0.53 -0.327 0.95 -0.678 0.934 -0.351 -0.016 -0.619 -0.463 -0.597 -0.993 z m 3.418 -5.359 c 0.016 -0.379 -0.383 -1.142 -0.887 -1.696 -0.814 -0.895 -0.924 -0.824 -0.985 0.644 -0.043 1.04 0.285 1.668 0.887 1.696 0.526 0.024 0.969 -0.266 0.985 -0.644 z m -4.314 -3.771 c 0.036 -0.854 -0.136 -0.905 -0.946 -0.286 -0.544 0.416 -0.994 0.865 -1 0.998 -0.005 0.133 0.42 0.262 0.946 0.286 0.526 0.024 0.976 -0.425 1 -0.998 z m 19.62 -10.926 c 0.03 -0.714 -0.371 -1.304 -0.903 -1.329 -0.531 -0.024 -0.98 0.527 -1.01 1.241 -0.03 0.714 0.371 1.304 0.903 1.329 0.531 0.024 0.98 -0.527 1.01 -1.241 z m 4.785 -7.503 c 0.015 -0.353 -0.26 -0.656 -0.611 -0.672 -0.351 -0.016 -0.594 -1.113 -0.541 -2.438 l 0.097 -2.409 l -1.029 1.796 c -1.298 2.264 -1.324 2.923 -0.12 2.978 0.526 0.024 0.944 0.333 0.929 0.686 -0.015 0.353 0.26 0.656 0.611 0.672 0.351 0.016 0.65 -0.26 0.664 -0.613 z m 14.791 -17.662 c 0.022 -0.53 -0.247 -0.977 -0.597 -0.993 -0.351 -0.016 -0.656 0.404 -0.678 0.934 -0.022 0.53 0.247 0.977 0.597 0.993 0.351 0.016 0.656 -0.404 0.678 -0.934 z"/><path d="m 115.87 159.06 c 0.449 -6.943 0.637 -7.855 1.608 -7.817 1.546 0.061 2.907 -1.43 3.517 -3.854 0.414 -1.643 0.314 -2.077 -0.486 -2.114 -2.054 -0.094 -0.871 -1.936 1.654 -2.574 l 2.582 -0.653 l 0.199 -4.762 c 0.137 -3.27 -0.074 -5.062 -0.673 -5.721 -1.182 -1.3 -6.643 -1.526 -7.627 -0.316 -0.552 0.678 -0.991 0.729 -1.675 0.196 -0.698 -0.544 -0.727 -0.795 -0.117 -1.012 0.446 -0.159 0.852 -1.277 0.902 -2.484 0.05 -1.207 0.379 -2.181 0.729 -2.165 0.351 0.016 0.656 -0.404 0.678 -0.934 0.025 -0.599 0.642 -0.936 1.634 -0.89 1.139 0.052 1.608 -0.274 1.645 -1.143 0.028 -0.669 0.488 -1.363 1.023 -1.542 0.534 -0.179 0.996 -0.913 1.026 -1.631 0.04 -0.964 0.471 -1.286 1.648 -1.232 1.169 0.054 1.608 -0.269 1.648 -1.211 0.065 -1.562 -0.172 -1.605 -1.597 -0.291 -0.832 0.768 -1.215 0.82 -1.553 0.212 -0.284 -0.511 -2.356 -0.94 -5.641 -1.168 -4.415 -0.307 -5.186 -0.524 -5.148 -1.453 0.025 -0.601 0.559 -1.364 1.188 -1.696 1.051 -0.555 1.04 -0.61 -0.131 -0.68 -1.162 -0.07 -1.241 -0.438 -0.891 -4.187 0.348 -3.732 0.527 -4.14 1.942 -4.429 0.857 -0.175 1.576 -0.747 1.598 -1.27 0.022 -0.523 0.465 -0.932 0.984 -0.908 0.519 0.024 1.158 -0.684 1.42 -1.572 0.437 -1.484 0.731 -1.592 3.606 -1.327 2.793 0.257 3.339 0.078 5.068 -1.67 1.277 -1.291 1.624 -1.972 1.017 -2 -1.285 -0.059 -1.033 -4.349 0.328 -5.606 0.841 -0.776 1.154 -0.8 1.532 -0.12 0.35 0.629 0.605 0.498 0.964 -0.496 0.269 -0.743 1.056 -1.624 1.749 -1.958 0.693 -0.334 1.277 -1.012 1.297 -1.505 0.021 -0.494 0.619 -1.055 1.33 -1.247 0.711 -0.192 1.31 -0.784 1.333 -1.315 0.05 -1.201 1.649 -2.731 2.799 -2.678 1.084 0.05 3.151 -2.136 3.204 -3.388 0.022 -0.519 0.764 -1.092 1.65 -1.274 0.886 -0.181 1.628 -0.753 1.65 -1.27 0.046 -1.096 1.632 -2.705 2.621 -2.66 1.145 0.053 3.337 -2.341 3.394 -3.705 0.041 -0.98 0.479 -1.265 1.846 -1.202 2.7 0.124 4.672 -1.912 4.799 -4.953 l 0.106 -2.544 l 2.869 0.132 l 2.869 0.132 l -0.245 5.86 c -0.215 5.136 -0.123 5.766 0.745 5.104 0.856 -0.653 0.973 -0.353 0.866 2.213 -0.072 1.729 -0.417 2.956 -0.825 2.937 -0.979 -0.045 -4.559 3.596 -4.604 4.683 -0.022 0.531 -0.697 0.865 -1.658 0.821 -0.891 -0.041 -2.236 0.455 -2.989 1.101 -1.177 1.011 -1.374 1.834 -1.409 5.888 -0.056 6.538 0.131 6.215 -3.429 5.941 -1.986 -0.152 -3.471 0.076 -4.02 0.617 -0.637 0.631 -0.651 0.748 -0.052 0.442 0.449 -0.229 0.804 -0.13 0.789 0.22 -0.015 0.35 -0.536 0.777 -1.158 0.949 -1.206 0.333 -3.134 3.44 -2.162 3.485 0.318 0.015 0.547 0.749 0.51 1.632 -0.037 0.883 0.22 1.619 0.57 1.635 0.351 0.016 0.621 0.429 0.6 0.918 -0.05 1.204 1.946 1.754 7.294 2.01 4.646 0.222 6.05 -0.33 6.137 -2.412 0.027 -0.636 0.335 -1.143 0.686 -1.127 0.351 0.016 0.656 -0.404 0.678 -0.934 0.031 -0.75 0.892 -0.924 3.881 -0.787 3.51 0.161 3.899 0.041 4.514 -1.402 0.379 -0.887 1.182 -1.555 1.836 -1.525 0.64 0.029 1.496 -0.254 1.903 -0.629 1.051 -0.97 2.101 -0.03 2.024 1.812 -0.05 1.203 -0.403 1.552 -1.518 1.501 -2.746 -0.126 -4.358 1.528 -4.487 4.604 -0.143 3.413 0.286 4.856 1.46 4.91 0.488 0.022 0.875 0.343 0.86 0.711 -0.015 0.369 0.333 0.64 0.773 0.603 1.911 -0.161 2.384 0.266 2.308 2.085 -0.062 1.483 -0.367 1.914 -1.326 1.87 -0.685 -0.031 -1.99 0.245 -2.9 0.614 -1.484 0.602 -1.672 1.042 -1.815 4.261 -0.16 3.571 -1.281 6.335 -1.883 4.637 -0.175 -0.495 -1.501 -0.873 -3.356 -0.959 -3.323 -0.153 -3.862 0.349 -4 3.73 -0.07 1.663 -0.298 1.864 -2.033 1.785 -3.442 -0.158 -4.462 0.765 -4.593 4.156 -0.065 1.666 0.082 3.329 0.324 3.696 0.62 0.938 4.592 2.46 6.666 2.555 1.976 0.091 4.979 -2.502 5.057 -4.367 0.037 -0.895 0.525 -1.169 1.962 -1.103 1.608 0.074 1.923 -0.164 1.979 -1.495 0.084 -2 1.779 -2.837 5.431 -2.669 1.939 0.089 2.972 -0.17 3.25 -0.816 0.529 -1.23 2.372 -1.145 2.32 0.107 -0.025 0.6 0.562 0.991 1.554 1.037 1.397 0.064 1.582 0.352 1.5 2.321 -0.052 1.236 -0.31 2.262 -0.574 2.28 -0.264 0.017 -1.129 0.074 -1.921 0.126 -1.881 0.123 -2.258 0.525 -2.34 2.494 -0.046 1.09 -0.418 1.617 -1.122 1.584 -1.226 -0.056 -3.117 1.799 -3.502 3.437 -0.155 0.658 -1.146 1.322 -2.36 1.581 -1.968 0.419 -2.396 0.944 -2.249 2.766 0.062 0.777 -2.402 1.779 -3.489 1.419 -0.888 -0.294 -2.334 1.764 -2.403 3.423 -0.035 0.827 -0.538 1.539 -1.188 1.678 -1.074 0.231 -1.075 0.248 -0.015 0.368 0.756 0.085 1.09 0.662 1.043 1.8 -0.051 1.225 -0.323 1.563 -1.01 1.261 -0.527 -0.232 -0.956 -0.061 -0.974 0.388 -0.018 0.441 -0.625 1.192 -1.347 1.669 -0.723 0.477 -1.341 1.526 -1.375 2.331 -0.058 1.382 -0.307 1.453 -4.456 1.262 -4.84 -0.222 -5.18 0.032 -5.345 3.99 -0.087 2.081 -0.208 2.19 -2.323 2.093 -2.188 -0.1 -2.229 -0.154 -2.121 -2.741 0.087 -2.081 0.309 -2.551 1.051 -2.224 0.637 0.28 0.958 0.012 0.993 -0.831 0.035 -0.842 -0.262 -1.139 -0.92 -0.919 -0.798 0.268 -0.942 -0.374 -0.808 -3.597 0.128 -3.059 0.375 -3.913 1.12 -3.879 0.595 0.027 0.982 -0.563 1.023 -1.562 0.042 -0.999 -0.294 -1.622 -0.889 -1.65 -0.584 -0.027 -0.931 -0.643 -0.892 -1.581 0.079 -1.884 -0.925 -2.364 -5.374 -2.568 -3.03 -0.139 -3.461 -0.001 -3.508 1.126 -0.03 0.707 -0.341 1.271 -0.691 1.255 -0.351 -0.016 -0.669 0.727 -0.708 1.651 -0.06 1.446 -0.291 1.628 -1.651 1.301 -1.228 -0.295 -1.592 -0.114 -1.631 0.815 -0.028 0.658 -0.489 1.175 -1.026 1.151 -0.537 -0.025 -1.188 0.452 -1.446 1.06 -0.603 1.418 -1.92 2.647 -2.794 2.607 -0.376 -0.017 -0.713 0.691 -0.75 1.574 -0.057 1.372 -0.359 1.592 -2.069 1.514 -2.416 -0.111 -3.75 1.315 -3.897 4.165 -0.086 1.662 -0.371 2.075 -1.402 2.027 -1.24 -0.057 -1.273 -0.388 -0.787 -7.92 z m 42.14 -1.926 c 0.026 -0.087 0.28 -2.273 0.565 -4.856 0.472 -4.285 0.415 -4.683 -0.65 -4.528 -0.92 0.133 -1.278 0.979 -1.694 4 -0.597 4.339 -0.428 5.444 0.844 5.503 0.488 0.022 0.909 -0.031 0.935 -0.118 z m -15.03 -23.324 c 0.006 -0.148 -0.144 -0.734 -0.333 -1.302 -0.493 -1.481 -2.111 -1.355 -2.174 0.169 -0.036 0.856 0.371 1.304 1.221 1.343 0.701 0.032 1.28 -0.062 1.286 -0.21 z m -4.655 -10.885 c 0.015 -0.353 0.457 -0.623 0.983 -0.598 0.595 0.027 0.982 -0.563 1.023 -1.562 0.037 -0.883 0.428 -1.633 0.868 -1.667 0.441 -0.034 1.091 -0.115 1.445 -0.181 0.354 -0.066 1 -0.137 1.444 -0.157 0.44 -0.021 0.823 -0.595 0.852 -1.276 0.029 -0.681 0.5 -1.653 1.048 -2.158 0.548 -0.506 1.01 -1.194 1.022 -1.529 0.014 -0.335 -0.39 -0.989 -0.897 -1.453 -0.508 -0.464 -0.905 -1.262 -0.884 -1.774 0.076 -1.809 -1.654 -2.847 -4.999 -3 -2.757 -0.127 -3.356 0.055 -3.68 1.118 -0.213 0.698 -0.641 1.258 -0.95 1.243 -0.31 -0.014 -0.593 0.697 -0.63 1.58 -0.054 1.285 -0.386 1.591 -1.661 1.533 -2.281 -0.105 -4.234 1.952 -4.343 4.575 -0.118 2.83 0.373 4.253 1.485 4.304 0.488 0.022 0.876 0.33 0.861 0.683 -0.015 0.353 1.551 0.715 3.48 0.803 1.929 0.088 3.519 -0.128 3.533 -0.481 z m -8.645 -10.179 c 1.013 -0.934 1.056 -1.753 0.096 -1.798 -0.409 -0.019 -0.565 0.163 -0.346 0.403 0.219 0.241 -0.116 0.795 -0.744 1.233 -0.628 0.437 -0.84 0.818 -0.473 0.846 0.368 0.028 1.027 -0.28 1.466 -0.684 z m -3.692 -0.31 c 0.006 -0.148 -0.144 -0.734 -0.333 -1.302 -0.487 -1.46 -1.473 -1.333 -1.537 0.199 -0.03 0.714 0.371 1.304 0.903 1.329 0.526 0.024 0.961 -0.077 0.968 -0.225 z m 5.918 -4.04 c 0.028 -0.665 -0.334 -1.227 -0.803 -1.249 -0.47 -0.022 -1.151 -0.777 -1.513 -1.678 -0.387 -0.962 -1.192 -1.664 -1.948 -1.698 -1.01 -0.046 -1.306 0.362 -1.369 1.868 -0.064 1.527 0.196 1.94 1.254 1.988 0.771 0.035 1.446 0.578 1.598 1.286 0.344 1.601 2.711 1.162 2.781 -0.516 z m -10.214 -0.151 c 0.036 -0.854 -0.136 -0.905 -0.946 -0.286 -0.544 0.416 -0.994 0.865 -1 0.998 -0.005 0.133 0.42 0.262 0.946 0.286 0.526 0.024 0.976 -0.425 1 -0.998 z m -2.173 -1.524 c -0.437 -0.48 -2.249 0.365 -2.279 1.062 -0.018 0.423 0.442 0.401 1.251 -0.059 0.703 -0.4 1.166 -0.851 1.028 -1 z m 15.598 1.274 c 0.06 -1.425 -1.534 -1.241 -2.177 0.251 -0.253 0.589 0.045 0.918 0.869 0.955 0.823 0.038 1.273 -0.377 1.308 -1.207 z m -12 -3.222 c 0.029 -0.707 -0.241 -1.119 -0.6 -0.917 -0.36 0.202 -0.678 0.946 -0.708 1.652 -0.03 0.707 0.241 1.119 0.6 0.917 0.36 -0.202 0.678 -0.946 0.708 -1.652 z m 13.757 -0.579 c -0.202 -0.363 -0.654 -0.674 -1 -0.69 -0.351 -0.016 -0.472 0.268 -0.27 0.631 0.202 0.363 0.654 0.674 1 0.69 0.351 0.016 0.472 -0.268 0.27 -0.631 z m -0.328 -1.704 c 2.343 -0.361 2.678 -1.226 0.627 -1.616 -1.207 -0.23 -1.409 -0.665 -1.318 -2.84 0.091 -2.175 0.329 -2.591 1.55 -2.709 0.794 -0.077 1.46 -0.536 1.48 -1.022 0.02 -0.485 0.66 -1.281 1.421 -1.769 1.833 -1.174 1.109 -2.289 -1.565 -2.412 -1.186 -0.054 -2.321 -0.396 -2.523 -0.759 -0.202 -0.363 -0.996 -0.674 -1.765 -0.691 l -1.398 -0.031 l 1.392 1.074 c 1.622 1.251 1.795 4.624 0.264 5.137 -1.221 0.409 -1.577 5.689 -0.42 6.225 0.589 0.273 0.54 0.52 -0.202 1 -1.132 0.732 -0.404 0.855 2.458 0.413 z m 4.767 -5.171 c 0.03 -0.714 -0.371 -1.304 -0.903 -1.329 -0.531 -0.024 -0.98 0.527 -1.01 1.241 -0.03 0.714 0.371 1.304 0.903 1.329 0.531 0.024 0.98 -0.527 1.01 -1.241 z m -10.385 -3.695 c 0.232 -0.343 0.117 -0.638 -0.254 -0.655 -0.371 -0.017 -0.687 0.258 -0.702 0.611 -0.015 0.353 0.1 0.648 0.254 0.655 0.155 0.008 0.471 -0.268 0.702 -0.611 z m 15.168 -3.77 c 0.014 -0.332 -0.254 -0.796 -0.596 -1.031 -0.342 -0.234 -0.601 -1.349 -0.576 -2.478 l 0.045 -2.052 l -1.12 2.044 c -1.06 1.934 -1.056 2.097 0.073 3.04 1.392 1.162 2.138 1.326 2.173 0.477 z m 2.537 0.438 c 0.028 -0.678 -1.183 -1.019 -1.572 -0.442 -0.235 0.349 0.019 0.655 0.566 0.68 0.547 0.025 0.999 -0.082 1.01 -0.238 z m 1.943 -0.63 c 0.023 -0.551 -0.252 -0.836 -0.612 -0.634 -0.36 0.202 -0.666 0.64 -0.679 0.972 -0.014 0.332 0.262 0.618 0.612 0.634 0.351 0.016 0.656 -0.421 0.679 -0.972 z m -13.267 -3.505 c 0.014 -0.332 -0.262 -0.618 -0.612 -0.634 -0.351 -0.016 -0.656 0.421 -0.679 0.972 -0.023 0.551 0.252 0.836 0.612 0.634 0.36 -0.202 0.665 -0.64 0.679 -0.972 z m 9.204 -6.259 c 0.089 -2.138 -0.947 -2.695 -1.401 -0.754 -0.374 1.6 -0.145 2.253 0.804 2.297 0.292 0.013 0.561 -0.681 0.597 -1.544 z m 10.35 -3.102 c 0.015 -0.353 -0.1 -0.648 -0.254 -0.655 -0.155 -0.007 -0.471 0.268 -0.702 0.611 -0.231 0.343 -0.117 0.638 0.254 0.655 0.371 0.017 0.687 -0.258 0.702 -0.611 z m 4.573 -2.44 c 0.015 -0.353 -0.267 -0.477 -0.627 -0.275 -0.36 0.202 -0.666 0.657 -0.681 1.01 -0.015 0.353 0.267 0.477 0.627 0.275 0.36 -0.202 0.666 -0.657 0.681 -1.01 z m 0.091 -2.172 c 0.022 -0.53 -0.39 -0.983 -0.916 -1.01 -0.526 -0.024 -0.974 0.39 -0.997 0.92 -0.022 0.53 0.39 0.983 0.916 1.01 0.526 0.024 0.974 -0.39 0.997 -0.92 z m -7.988 -1.437 c -0.203 -0.364 -0.725 -0.326 -1.274 0.093 -1.254 0.958 -1.183 1.127 0.336 0.8 0.705 -0.152 1.127 -0.554 0.939 -0.893 z m 7.966 -3.734 c -0.338 -1.016 -4.168 -1.546 -4.208 -0.583 -0.013 0.304 0.671 0.452 1.52 0.329 1.19 -0.173 1.639 0.125 1.962 1.306 0.242 0.887 0.55 1.189 0.732 0.719 0.172 -0.446 0.17 -1.243 -0.006 -1.77 z m -4.903 0.761 c 0.015 -0.353 -0.26 -0.656 -0.611 -0.672 -0.351 -0.016 -0.65 0.26 -0.664 0.613 -0.015 0.353 0.26 0.656 0.611 0.672 0.351 0.016 0.65 -0.26 0.664 -0.613 z"/><path d="m 115.87 159.06 c 0.481 -7.445 0.58 -7.867 1.863 -7.992 2 -0.195 4.293 -5.723 2.406 -5.809 -1.648 -0.076 -0.287 -1.857 2.027 -2.654 l 2.592 -0.892 l 0.171 -4.084 c 0.219 -5.232 -0.782 -6.988 -4.067 -7.139 -1.305 -0.06 -2.973 0.276 -3.708 0.747 -2.07 1.327 -2.986 0.274 -2.035 -2.341 1.362 -3.748 2.256 -5 3.523 -4.944 0.676 0.031 1.395 -0.494 1.601 -1.169 0.206 -0.674 0.782 -1.362 1.282 -1.53 0.499 -0.167 0.932 -0.871 0.961 -1.565 0.034 -0.816 0.559 -1.309 1.489 -1.4 0.831 -0.081 1.56 -0.677 1.73 -1.413 0.29 -1.259 0.278 -1.26 -1.122 -0.099 -1.086 0.901 -1.584 0.99 -2.134 0.385 -0.428 -0.471 -2.729 -0.882 -5.691 -1.019 -4.364 -0.2 -4.967 -0.37 -4.924 -1.385 0.027 -0.636 0.407 -1.487 0.846 -1.892 0.62 -0.572 0.592 -0.745 -0.127 -0.777 -0.735 -0.033 -0.845 -0.896 -0.536 -4.208 0.214 -2.292 0.66 -4.154 0.993 -4.139 0.817 0.038 5.204 -4.054 5.239 -4.886 0.016 -0.375 1.535 -0.595 3.498 -0.504 4.329 0.199 5.5 -0.977 5.204 -5.223 -0.145 -2.084 0.089 -3.11 0.876 -3.836 0.591 -0.545 1.302 -0.834 1.581 -0.643 0.279 0.192 1.245 -0.511 2.146 -1.562 0.901 -1.051 2.238 -2.487 2.97 -3.193 0.732 -0.705 1.65 -1.85 2.039 -2.543 0.389 -0.693 1.257 -1.342 1.93 -1.44 1.312 -0.193 3.587 -2.379 3.67 -3.526 0.028 -0.384 0.781 -0.995 1.675 -1.357 0.893 -0.362 1.638 -0.974 1.654 -1.36 0.035 -0.846 1.701 -2.464 2.5 -2.427 0.953 0.044 3.466 -2.746 3.514 -3.902 0.031 -0.732 0.571 -1.059 1.67 -1.01 2.297 0.106 4.871 -2.65 4.983 -5.335 0.089 -2.125 0.129 -2.153 2.959 -2.023 l 2.869 0.132 l -0.144 3.453 c -0.18 4.315 0.302 7.584 1.056 7.16 0.316 -0.178 0.521 0.946 0.457 2.497 -0.097 2.321 -0.395 2.954 -1.687 3.577 -0.863 0.416 -2.132 1.71 -2.821 2.875 -0.839 1.419 -1.715 2.097 -2.654 2.054 -0.771 -0.035 -2.056 0.701 -2.854 1.637 -1.199 1.406 -1.457 2.429 -1.479 5.885 -0.039 6.04 0.109 5.798 -3.464 5.634 -1.953 -0.09 -3.199 0.136 -3.218 0.583 -0.017 0.401 -0.783 1.372 -1.703 2.159 -1.329 1.135 -1.599 1.8 -1.312 3.231 0.874 4.361 2.383 5.411 8.182 5.692 4.188 0.204 5.538 -0.417 7.01 -3.218 1.102 -2.102 1.288 -2.185 4.577 -2.034 2.785 0.128 3.589 -0.085 4.286 -1.137 0.938 -1.415 4.88 -3.152 5.769 -2.542 0.305 0.21 0.525 1.087 0.489 1.949 -0.052 1.238 -0.396 1.553 -1.635 1.496 -3.987 -0.183 -6.076 6.427 -2.97 9.4 0.846 0.81 1.754 1.449 2.02 1.42 1.538 -0.171 2.057 0.378 1.985 2.099 -0.068 1.627 -0.329 1.916 -1.674 1.854 -2.581 -0.119 -4.231 1.923 -4.389 5.43 -0.166 3.676 -1.046 5.323 -2.178 4.078 -0.417 -0.459 -1.838 -0.884 -3.158 -0.944 -2.623 -0.121 -3.771 1.036 -3.891 3.923 -0.058 1.393 -0.387 1.621 -2.446 1.7 -3.186 0.121 -4.632 2.309 -3.908 5.91 0.464 2.309 0.739 2.57 3.614 3.426 3.855 1.148 5.977 0.435 7.494 -2.517 0.714 -1.389 1.492 -2.01 2.466 -1.978 0.984 0.035 1.569 -0.443 1.895 -1.553 0.593 -2.02 2.148 -2.78 5.358 -2.633 1.457 0.067 2.865 -0.274 3.348 -0.812 1.068 -1.187 2.362 -1.128 2.781 0.128 0.18 0.539 0.909 1.01 1.622 1.04 1.053 0.048 1.278 0.476 1.202 2.289 -0.083 1.977 -0.33 2.28 -2.188 2.672 -1.625 0.343 -2.156 0.828 -2.369 2.162 -0.151 0.946 -0.635 1.703 -1.077 1.683 -0.947 -0.043 -3.318 2.264 -3.947 3.841 -0.242 0.608 -0.966 1.082 -1.608 1.052 -1.462 -0.067 -2.748 1.08 -2.808 2.504 -0.028 0.664 -1.033 1.433 -2.587 1.979 -2.786 0.979 -3.59 2.364 -3.605 6.205 -0.005 1.327 -0.308 2.399 -0.673 2.382 -1.01 -0.046 -3.889 3.211 -3.965 4.484 -0.057 0.949 -0.691 1.094 -4.084 0.939 -4.676 -0.215 -5.573 0.371 -5.713 3.728 -0.099 2.361 -0.175 2.438 -2.333 2.338 -2.17 -0.1 -2.228 -0.171 -2.126 -2.618 0.058 -1.385 0.471 -2.668 0.918 -2.854 0.65 -0.27 0.656 -0.42 0.031 -0.749 -1.13 -0.595 -0.747 -7.221 0.482 -8.355 0.976 -0.9 0.815 -2.794 -0.242 -2.843 -0.313 -0.014 -0.548 -0.546 -0.521 -1.182 0.082 -1.949 -1.266 -2.761 -4.856 -2.926 -2.902 -0.133 -3.499 0.04 -3.826 1.111 -0.213 0.698 -0.641 1.258 -0.95 1.243 -0.31 -0.014 -0.593 0.697 -0.63 1.58 -0.054 1.285 -0.386 1.591 -1.661 1.533 -0.877 -0.04 -1.605 0.191 -1.618 0.514 -0.034 0.813 -4.509 4.997 -5.306 4.96 -0.357 -0.016 -0.679 0.693 -0.716 1.576 -0.054 1.285 -0.386 1.591 -1.661 1.533 -2.164 -0.099 -4.234 1.958 -4.332 4.306 -0.063 1.508 -0.362 1.914 -1.375 1.868 -1.24 -0.057 -1.273 -0.388 -0.787 -7.92 z m 42.16 -2.568 c 0.037 -0.441 0.286 -2.601 0.553 -4.801 0.49 -4.03 -0.122 -5.233 -1.485 -2.912 -0.84 1.429 -1.362 6.613 -0.773 7.673 0.574 1.032 1.619 1.057 1.705 0.04 z m -15.04 -22.976 c 0.013 -0.31 -0.359 -0.914 -0.827 -1.342 -0.653 -0.597 -0.941 -0.568 -1.239 0.123 -0.213 0.496 -0.223 1.082 -0.023 1.303 0.558 0.613 2.062 0.553 2.089 -0.084 z m -4.309 -10.97 c 0.888 -0.531 1.638 -1.517 1.666 -2.192 0.036 -0.853 0.647 -1.319 2.01 -1.529 3.982 -0.614 4.897 -6.658 1.509 -9.965 -2.669 -2.605 -8.757 -0.633 -8.904 2.883 -0.042 1.01 -0.451 1.354 -1.552 1.303 -4.135 -0.19 -5.817 7.01 -2.157 9.231 2.19 1.33 5.459 1.449 7.432 0.269 z m -12.695 -10.323 c 0.006 -0.265 -0.239 -0.92 -0.543 -1.454 -0.686 -1.204 -1.578 -0.512 -1.118 0.868 0.339 1.019 1.642 1.479 1.662 0.587 z m -4.631 -3.591 c 0.231 -0.343 0.134 -0.637 -0.217 -0.654 -0.351 -0.016 -0.827 0.252 -1.058 0.595 -0.231 0.343 -0.134 0.637 0.217 0.653 0.351 0.016 0.827 -0.252 1.058 -0.595 z m 10.527 0.305 c 0.019 -0.451 -0.449 -1.297 -1.039 -1.88 -0.59 -0.583 -1.357 -1.603 -1.703 -2.267 -0.807 -1.548 -2.793 -0.963 -2.869 0.846 -0.034 0.818 0.542 1.581 1.513 2 0.863 0.376 1.556 0.98 1.541 1.342 -0.015 0.362 0.546 0.685 1.248 0.717 0.701 0.032 1.291 -0.311 1.309 -0.762 z m 3.113 -0.925 c 0.18 -0.474 -0.049 -0.726 -0.534 -0.588 -0.467 0.133 -0.99 0.616 -1.163 1.073 -0.18 0.474 0.049 0.726 0.534 0.588 0.467 -0.133 0.99 -0.616 1.163 -1.073 z m -11.881 -3.236 c 0.015 -0.353 -0.267 -0.477 -0.627 -0.275 -0.36 0.202 -0.666 0.657 -0.681 1.01 -0.015 0.353 0.267 0.477 0.627 0.275 0.36 -0.202 0.666 -0.657 0.681 -1.01 z m 15.13 -2.991 c 0.356 -0.185 -0.061 -0.538 -0.925 -0.783 -1.276 -0.363 -1.59 -0.898 -1.67 -2.846 -0.077 -1.886 0.169 -2.488 1.152 -2.818 1.553 -0.52 4.877 -4.109 4.347 -4.692 -0.215 -0.236 -1.207 -0.467 -2.205 -0.512 -0.998 -0.046 -2.357 -0.459 -3.02 -0.919 -0.663 -0.459 -1.44 -0.618 -1.728 -0.353 -0.288 0.265 -0.035 0.787 0.561 1.16 1.341 0.837 1.305 4.03 -0.058 5.066 -1.135 0.866 -1.497 4.793 -0.505 5.474 0.365 0.25 0.491 0.856 0.28 1.346 -0.296 0.687 0.018 0.813 1.371 0.552 0.965 -0.186 2.045 -0.49 2.4 -0.675 z m 2.776 -5.12 c -0.287 -0.517 -0.653 -0.571 -1.096 -0.162 -0.365 0.337 -0.47 0.962 -0.233 1.389 0.287 0.517 0.653 0.571 1.096 0.162 0.365 -0.337 0.47 -0.962 0.233 -1.389 z m 5.075 -6.808 c 0.014 -0.332 -0.254 -0.796 -0.596 -1.031 -0.342 -0.234 -0.606 -1.35 -0.587 -2.478 l 0.034 -2.052 l -1.024 2.113 c -0.936 1.93 -0.928 2.193 0.085 3.04 1.312 1.098 2.053 1.243 2.088 0.408 z m 4.464 0.167 c 0.015 -0.353 -0.26 -0.656 -0.611 -0.672 -0.351 -0.016 -0.65 0.26 -0.664 0.613 -0.015 0.353 0.26 0.656 0.611 0.672 0.351 0.016 0.65 -0.26 0.664 -0.613 z m -13.254 -3.827 c 0.015 -0.353 -0.26 -0.656 -0.611 -0.672 -0.351 -0.016 -0.65 0.26 -0.664 0.613 -0.015 0.353 0.26 0.656 0.611 0.672 0.351 0.016 0.65 -0.26 0.664 -0.613 z m 9.208 -6.334 c 0.037 -0.883 -0.22 -1.619 -0.57 -1.635 -0.351 -0.016 -0.668 0.693 -0.705 1.577 -0.037 0.883 0.22 1.619 0.57 1.635 0.351 0.016 0.668 -0.693 0.705 -1.577 z m 14.471 -7.702 c 0.014 -0.336 -0.279 -0.728 -0.65 -0.872 -0.372 -0.144 -0.696 0.22 -0.721 0.809 -0.025 0.589 0.268 0.981 0.65 0.872 0.382 -0.109 0.706 -0.473 0.72 -0.809 z m -1.299 -5.919 c -0.203 -0.223 -0.752 -0.271 -1.22 -0.107 -0.517 0.182 -0.372 0.341 0.369 0.406 0.671 0.059 1.054 -0.076 0.851 -0.299 z"/><path d="m 91.62 158.4 c -0.456 -0.569 -0.506 -0.964 -0.12 -0.946 0.946 0.043 1 -4.286 0.063 -4.719 -0.627 -0.288 -0.624 -0.363 0.016 -0.375 0.439 -0.008 0.816 -0.428 0.837 -0.933 0.021 -0.505 0.685 -0.982 1.475 -1.058 0.832 -0.081 1.559 -0.675 1.727 -1.413 0.16 -0.701 0.699 -1.487 1.197 -1.747 1.11 -0.579 1.366 -4.249 0.3 -4.298 -0.595 -0.027 -0.588 -0.199 0.032 -0.771 1.197 -1.104 1.233 -5.607 0.045 -5.661 -0.526 -0.024 -0.945 -0.326 -0.93 -0.67 0.017 -0.407 0.59 -0.381 1.635 0.075 2.29 0.998 2.794 0.918 2.852 -0.455 0.028 -0.666 0.483 -1.969 1.011 -2.895 0.948 -1.663 0.971 -1.667 1.817 -0.332 0.751 1.187 1.147 1.285 3.237 0.806 1.309 -0.301 2.653 -0.36 2.986 -0.131 0.343 0.235 0.459 -0.025 0.267 -0.599 -0.186 -0.558 -0.02 -1 0.368 -0.982 0.388 0.018 0.748 -0.979 0.8 -2.216 0.087 -2.088 0.235 -2.242 2.079 -2.157 1.88 0.086 1.963 0.201 1.579 2.164 -0.257 1.313 -0.08 2.482 0.485 3.188 0.791 0.99 0.736 1.258 -0.492 2.391 -0.761 0.702 -1.778 1.258 -2.261 1.236 -1.152 -0.053 -2.156 1.109 -2.775 3.212 -0.322 1.093 -1.155 1.898 -2.33 2.251 -1.179 0.355 -1.927 1.079 -2.102 2.037 -0.189 1.027 -0.769 1.533 -1.876 1.636 -2.627 0.244 -3.231 1.106 -3.097 4.416 0.143 3.531 -0.73 5.445 -1.746 3.827 -0.516 -0.822 -0.601 -0.77 -0.492 0.299 0.094 0.92 -0.184 1.225 -0.964 1.056 -0.838 -0.181 -1.219 0.37 -1.617 2.339 -0.421 2.082 -0.779 2.559 -1.872 2.489 -0.744 -0.048 -1.704 -0.526 -2.135 -1.063 z m 11.498 -18.491 c -0.698 -0.546 -0.727 -0.797 -0.117 -1.014 1.14 -0.407 1.085 -2.1 -0.07 -2.153 -0.638 -0.029 -0.983 0.598 -1.037 1.883 -0.059 1.411 0.218 1.938 1.035 1.968 0.963 0.036 0.989 -0.058 0.188 -0.684 z m 5.111 -0.028 c 0.022 -0.53 -0.247 -0.977 -0.597 -0.993 -0.351 -0.016 -0.656 0.404 -0.678 0.934 -0.022 0.53 0.247 0.977 0.597 0.993 0.351 0.016 0.656 -0.404 0.678 -0.934 z"/><path d="m 91.91 163.54 c 0.117 -2.793 -1.028 -4.184 -3.539 -4.3 -2.048 -0.094 -2.734 -1.159 -2.095 -3.252 0.266 -0.874 0.919 -1.307 1.9 -1.262 1.471 0.068 4.128 -1.974 4.3 -3.303 0.048 -0.374 0.091 -1.91 0.095 -3.414 0.006 -2.252 0.213 -2.729 1.172 -2.702 0.641 0.018 1.683 -0.328 2.316 -0.769 1.454 -1.013 2.494 -6.329 1.497 -7.652 -0.55 -0.73 -0.521 -1.011 0.126 -1.24 0.533 -0.188 0.432 -0.332 -0.276 -0.397 -1.272 -0.116 -1.475 -2.687 -0.209 -2.645 0.439 0.015 1.764 -0.759 2.946 -1.719 1.879 -1.526 2.163 -2.138 2.259 -4.874 0.142 -4.01 -0.829 -5.424 -3.81 -5.561 -2.34 -0.107 -2.626 -0.462 -1.842 -2.284 0.334 -0.777 1.405 -0.953 4.824 -0.796 3.414 0.157 4.403 -0.005 4.433 -0.73 0.021 -0.512 0.553 -1.203 1.182 -1.535 0.634 -0.335 0.789 -0.628 0.347 -0.66 -1.636 -0.115 -0.661 -1.232 1.845 -2.112 l 2.593 -0.911 l 0.157 -3.751 c 0.135 -3.228 0.361 -3.851 1.624 -4.472 0.807 -0.397 2.226 -1.676 3.153 -2.842 1.486 -1.87 2.029 -2.107 4.593 -2 4.151 0.165 5.02 -0.669 5.426 -5.223 0.3 -3.343 0.549 -3.921 1.954 -4.546 1.753 -0.78 5.602 -4.428 7.515 -7.121 0.662 -0.932 1.577 -1.677 2.034 -1.656 0.97 0.045 3.338 -2.243 3.975 -3.84 0.242 -0.608 0.887 -1.085 1.433 -1.06 0.546 0.025 1.285 -0.641 1.643 -1.481 0.358 -0.84 1.472 -1.875 2.476 -2.3 1 -0.425 2.294 -1.686 2.867 -2.803 0.574 -1.116 1.507 -2.01 2.073 -1.996 2.01 0.065 4.484 -2.39 5.01 -4.979 0.497 -2.462 0.552 -2.502 3.239 -2.379 l 2.733 0.126 l 0.247 4.847 c 0.136 2.666 0.493 5.02 0.794 5.223 0.301 0.207 0.499 1.524 0.44 2.927 -0.088 2.105 -0.506 2.874 -2.389 4.397 -1.255 1.015 -2.482 2.398 -2.727 3.073 -0.244 0.675 -0.945 1.204 -1.556 1.176 -1.52 -0.07 -3.894 2.079 -4.474 4.049 -0.263 0.893 -0.388 2.978 -0.278 4.635 0.274 4.141 -0.047 4.61 -3.058 4.472 -2.117 -0.097 -2.952 0.245 -4.495 1.84 -3.664 3.787 -1.856 8.477 3.65 9.469 4.999 0.901 7.285 0.245 9.03 -2.591 1.452 -2.359 1.678 -2.473 4.627 -2.338 2.43 0.112 3.418 -0.17 4.568 -1.301 3.275 -3.222 6.342 -3.457 6.217 -0.476 -0.054 1.293 -0.385 1.611 -1.616 1.555 -1.838 -0.084 -4.304 2.537 -4.394 4.67 -0.119 2.856 0.943 4.679 3.241 5.561 1.887 0.724 2.227 1.155 2.161 2.737 -0.059 1.412 -0.377 1.863 -1.283 1.822 -2.557 -0.117 -4.261 2.02 -4.779 5.988 -0.431 3.304 -0.638 3.713 -1.755 3.474 -0.696 -0.149 -2.157 -0.461 -3.246 -0.693 -1.569 -0.334 -2.207 -0.123 -3.077 1.02 -0.603 0.793 -1.125 2.099 -1.158 2.904 -0.048 1.139 -0.42 1.446 -1.684 1.388 -0.893 -0.041 -2.379 0.623 -3.302 1.475 -1.375 1.269 -1.617 1.929 -1.337 3.639 0.492 2.995 1.537 3.892 5.139 4.408 2.857 0.409 3.356 0.282 4.89 -1.246 0.94 -0.936 1.725 -2.074 1.744 -2.527 0.019 -0.454 0.677 -0.888 1.462 -0.965 0.785 -0.077 1.796 -0.814 2.246 -1.637 1.086 -1.985 2.142 -2.528 4.707 -2.422 1.173 0.048 2.961 -0.355 3.972 -0.897 1.714 -0.918 1.907 -0.91 2.853 0.131 0.558 0.614 1.425 1.135 1.926 1.158 0.606 0.028 0.881 0.754 0.822 2.174 -0.075 1.789 -0.429 2.265 -2.2 2.956 -1.326 0.518 -2.209 1.357 -2.375 2.26 -0.145 0.79 -0.664 1.417 -1.153 1.395 -0.489 -0.022 -1.65 0.988 -2.579 2.246 -0.93 1.258 -2.578 2.616 -3.662 3.02 -1.228 0.456 -1.992 1.199 -2.024 1.97 -0.032 0.773 -0.792 1.508 -2.024 1.958 -2.613 0.954 -3.924 2.793 -4.044 5.674 -0.077 1.843 -0.61 2.834 -2.424 4.508 -1.279 1.18 -2.345 2.608 -2.368 3.173 -0.035 0.827 -0.783 0.994 -3.823 0.854 -4.448 -0.204 -5.824 0.709 -5.96 3.955 -0.087 2.078 -0.215 2.197 -2.268 2.102 l -2.176 -0.1 l 0.256 -6.869 c 0.154 -4.15 0.551 -7.198 1 -7.699 0.553 -0.615 0.541 -1.29 -0.046 -2.614 -1.5 -3.377 -2.412 -4.111 -5.272 -4.242 -2.282 -0.105 -2.954 0.169 -4.123 1.68 -0.768 0.993 -1.416 2.266 -1.439 2.83 -0.028 0.665 -0.603 0.999 -1.637 0.952 -0.877 -0.04 -1.606 0.217 -1.621 0.573 -0.015 0.355 -1.372 1.869 -3.02 3.364 -1.643 1.495 -3.01 3.168 -3.03 3.719 -0.026 0.622 -0.608 0.975 -1.537 0.932 -1.886 -0.087 -3.545 1.578 -4.179 4.194 -0.343 1.413 -0.853 2.01 -1.687 1.972 -1.103 -0.051 -1.17 -0.656 -0.87 -7.823 0.304 -7.279 0.408 -7.786 1.64 -8.05 2.055 -0.442 4.579 -5.761 2.774 -5.844 -1.675 -0.077 -0.267 -1.921 2.102 -2.753 l 2.665 -0.936 l -0.064 -4.472 c -0.069 -4.827 -1.02 -6.411 -3.959 -6.587 -1.963 -0.118 -5.3 1.486 -5.345 2.568 -0.02 0.478 -0.492 1.216 -1.048 1.641 -0.899 0.687 -0.874 0.933 0.226 2.222 1.453 1.701 1.556 3.634 0.191 3.571 -0.526 -0.024 -0.944 -0.333 -0.929 -0.686 0.015 -0.353 -0.26 -0.656 -0.611 -0.672 -0.351 -0.016 -0.653 0.335 -0.671 0.78 -0.019 0.445 -0.623 1.144 -1.342 1.553 -0.74 0.42 -1.338 1.439 -1.376 2.344 -0.052 1.251 -0.394 1.585 -1.562 1.532 -2.384 -0.11 -3.686 1.755 -3.842 5.505 -0.076 1.827 -0.406 3.309 -0.734 3.294 -0.327 -0.015 -0.801 0.542 -1.053 1.239 -0.252 0.696 -0.869 1.247 -1.372 1.224 -0.549 -0.025 -0.94 0.598 -0.981 1.564 -0.058 1.397 -0.348 1.593 -2.23 1.506 -2.403 -0.11 -2.969 0.633 -3.114 4.093 -0.08 1.914 -0.296 2.186 -1.686 2.122 -1.403 -0.064 -1.582 -0.348 -1.498 -2.367 z m -0.581 -6.215 c -0.182 -0.522 -0.34 -0.376 -0.401 0.37 -0.056 0.676 0.079 1.062 0.3 0.858 0.221 -0.204 0.267 -0.757 0.102 -1.229 z m 8.346 -2.714 c 1.295 0.06 1.561 -0.244 1.629 -1.856 0.044 -1.06 -0.206 -1.94 -0.557 -1.956 -0.351 -0.016 -0.663 0.58 -0.694 1.324 -0.039 0.939 -0.345 1.227 -0.997 0.94 -0.573 -0.252 -0.956 -0.045 -0.98 0.53 -0.022 0.519 -0.47 0.924 -0.996 0.899 -0.526 -0.024 -0.975 0.41 -0.999 0.965 -0.038 0.918 0.053 0.922 1 0.046 0.574 -0.53 1.741 -0.931 2.592 -0.892 z m 58.761 -2.234 c 0.634 -4.251 -0.177 -6.071 -1.414 -3.173 -0.804 1.885 -1.147 6.908 -0.519 7.599 0.771 0.848 1.341 -0.46 1.932 -4.427 z m -56.903 -5.119 c 0.023 -0.551 -0.252 -0.836 -0.612 -0.634 -0.36 0.202 -0.666 0.64 -0.679 0.972 -0.014 0.332 0.262 0.618 0.612 0.634 0.351 0.016 0.656 -0.421 0.679 -0.972 z m 3.735 -2.395 c 1.53 -1.412 0.813 -1.617 -0.979 -0.281 -0.856 0.638 -1.217 1.176 -0.803 1.195 0.415 0.019 1.216 -0.392 1.782 -0.914 z m 5.506 -5.348 l 0.062 -2.089 l -1.141 1.878 c -0.9 1.482 -1.181 1.639 -1.33 0.743 -0.22 -1.324 -1.354 -1.592 -1.406 -0.333 -0.052 1.238 0.577 1.743 2.266 1.82 1.258 0.058 1.497 -0.253 1.549 -2.02 z m -7.152 -0.812 c 0.147 -1.317 -0.078 -1.933 -0.716 -1.962 -0.609 -0.028 -0.958 0.623 -1.011 1.884 -0.106 2.531 1.446 2.601 1.728 0.078 z m -2.347 -5.376 c -0.182 -0.522 -0.34 -0.376 -0.401 0.37 -0.056 0.676 0.079 1.062 0.3 0.858 0.221 -0.204 0.267 -0.757 0.102 -1.229 z m 9.187 -1.01 c 0.025 -0.587 -0.413 -0.806 -1.251 -0.626 -0.709 0.153 -1.3 0.533 -1.313 0.845 -0.013 0.312 0.55 0.594 1.251 0.626 0.701 0.032 1.292 -0.348 1.313 -0.845 z m -6.757 -0.83 c -0.159 -0.285 -0.702 -0.538 -1.207 -0.561 -0.505 -0.023 -0.928 0.185 -0.94 0.462 -0.012 0.278 0.532 0.53 1.207 0.561 0.676 0.031 1.098 -0.177 0.94 -0.463 z m 39.29 1.98 c 0.036 -0.867 -1.101 -1.522 -1.881 -1.083 -0.366 0.206 -0.511 0.65 -0.323 0.988 0.446 0.802 2.172 0.876 2.204 0.095 z m -29.364 -6.132 c 1.524 0.135 2.082 -0.193 2.794 -1.641 0.489 -0.996 1.254 -1.794 1.7 -1.773 0.988 0.045 4.341 -3.582 4.39 -4.749 0.019 -0.462 0.43 -0.822 0.913 -0.799 0.483 0.022 1.253 -0.377 1.712 -0.887 0.953 -1.059 0.033 -1.327 -1.068 -0.311 -0.525 0.484 -1.078 0.459 -1.998 -0.092 -0.7 -0.419 -3.335 -0.856 -5.857 -0.972 l -4.584 -0.211 l 0.463 -1.909 c 0.261 -1.077 0.192 -1.922 -0.158 -1.938 -0.342 -0.016 -0.688 1.561 -0.769 3.504 -0.1 2.393 -0.405 3.524 -0.945 3.506 -0.439 -0.015 -1.209 0.21 -1.711 0.5 -0.736 0.424 -0.599 0.873 0.702 2.304 1.309 1.44 1.601 2.412 1.54 5.123 -0.057 2.49 0.058 2.941 0.449 1.761 0.419 -1.264 0.91 -1.551 2.429 -1.416 z m 24.562 -5.06 c 1.169 -0.648 2.142 -1.587 2.163 -2.088 0.021 -0.501 0.911 -1.173 1.977 -1.493 2.415 -0.727 3.613 -2.981 3.183 -5.988 -0.354 -2.474 -2.729 -5.03 -4.761 -5.123 -2.589 -0.119 -5.653 2.212 -5.784 4.4 -0.039 0.649 -0.555 1.101 -1.222 1.07 -2.115 -0.097 -4.046 2.219 -4.162 4.992 -0.092 2.192 0.179 2.748 1.912 3.922 1.11 0.752 2.593 1.394 3.294 1.427 0.701 0.032 2.231 -0.471 3.4 -1.119 z m -12.191 -10.142 c 0.013 -0.31 -0.392 -0.943 -0.899 -1.407 -0.748 -0.684 -0.93 -0.667 -0.962 0.092 -0.022 0.514 0.144 1.137 0.368 1.383 0.58 0.638 1.465 0.598 1.493 -0.067 z m -4.644 -3.51 c 0.231 -0.343 0.117 -0.638 -0.254 -0.655 -0.371 -0.017 -0.687 0.258 -0.702 0.611 -0.015 0.353 0.1 0.648 0.254 0.655 0.155 0.008 0.471 -0.268 0.702 -0.611 z m 10.206 0.46 c 0.6 -0.889 -3.29 -5.254 -4.362 -4.894 -1.341 0.45 -1.113 1.53 0.741 3.517 1.816 1.947 2.947 2.377 3.621 1.377 z m 3.433 -1.08 c 0.18 -0.474 -0.049 -0.726 -0.534 -0.588 -0.467 0.133 -0.99 0.616 -1.163 1.073 -0.18 0.474 0.049 0.726 0.534 0.588 0.467 -0.133 0.99 -0.616 1.163 -1.073 z m 2.937 -6.266 c 0.013 -0.312 -0.544 -0.745 -1.237 -0.962 -0.93 -0.291 -1.238 -0.935 -1.175 -2.455 0.067 -1.61 0.69 -2.554 2.846 -4.317 3.02 -2.468 3.036 -3.766 0.053 -3.903 -1.01 -0.046 -2 -0.382 -2.205 -0.745 -0.202 -0.363 -0.825 -0.681 -1.385 -0.707 -0.918 -0.042 -0.919 0.073 -0.012 1.176 1.235 1.501 1.168 3.927 -0.153 5.536 -2 2.44 -0.872 6.755 1.803 6.878 0.792 0.036 1.451 -0.189 1.464 -0.501 z m 3.087 -5.082 c -0.287 -0.517 -0.653 -0.571 -1.096 -0.162 -0.365 0.337 -0.47 0.962 -0.233 1.389 0.287 0.517 0.653 0.571 1.096 0.162 0.365 -0.337 0.47 -0.962 0.233 -1.389 z m 4.589 -7.651 c -0.397 -0.437 -0.702 -1.532 -0.677 -2.434 l 0.046 -1.639 l -0.977 1.564 c -0.889 1.423 -0.861 1.672 0.317 2.766 1.388 1.288 2.496 1.068 1.291 -0.257 z m 4.951 1.01 c 0.015 -0.353 -0.26 -0.656 -0.611 -0.672 -0.351 -0.016 -0.65 0.26 -0.664 0.613 -0.015 0.353 0.26 0.656 0.611 0.672 0.351 0.016 0.65 -0.26 0.664 -0.613 z m -13.573 -3.842 c 0.231 -0.343 0.117 -0.638 -0.254 -0.655 -0.371 -0.017 -0.687 0.258 -0.702 0.611 -0.015 0.353 0.1 0.648 0.254 0.655 0.155 0.007 0.471 -0.268 0.702 -0.611 z m 9.526 -6.32 c 0.02 -0.488 -0.242 -1.079 -0.584 -1.314 -0.354 -0.243 -0.651 0.298 -0.691 1.255 -0.04 0.958 0.211 1.523 0.584 1.314 0.36 -0.202 0.671 -0.767 0.691 -1.255 z"/><path d="m 91.89 164.05 c 0.11 -2.633 -1.457 -4.715 -3.624 -4.815 -1.227 -0.056 -1.941 -0.485 -2.16 -1.296 -0.461 -1.71 0.365 -3.292 1.686 -3.231 0.616 0.028 1.902 -0.513 2.856 -1.203 1.487 -1.075 1.756 -1.744 1.879 -4.677 0.134 -3.198 0.266 -3.46 2.01 -3.986 2.223 -0.669 3.835 -4.171 3.188 -6.926 -0.226 -0.965 -0.355 -1.969 -0.287 -2.231 0.069 -0.262 -0.162 -0.49 -0.513 -0.506 -1.176 -0.054 -0.549 -2.508 0.73 -2.854 0.695 -0.188 2.03 -1.182 2.967 -2.209 3.383 -3.71 1.928 -9.481 -2.441 -9.682 -1.946 -0.089 -2.199 -0.488 -1.434 -2.266 0.324 -0.753 1.347 -0.956 4.162 -0.827 2.976 0.137 3.998 -0.091 5.04 -1.126 0.72 -0.714 1.186 -1.668 1.036 -2.12 -0.165 -0.496 0.77 -1.19 2.356 -1.747 2.625 -0.922 2.63 -0.931 2.777 -4.431 0.14 -3.357 0.291 -3.64 3.5 -6.602 2.988 -2.757 3.652 -3.081 6.093 -2.969 3.603 0.166 4.772 -1.078 5.212 -5.545 0.286 -2.899 0.6 -3.614 1.833 -4.162 1.517 -0.675 4.242 -3.242 7.272 -6.851 0.93 -1.108 2.074 -1.996 2.542 -1.975 0.468 0.022 1.397 -0.681 2.065 -1.561 1.07 -1.41 4.759 -4.979 9.351 -9.05 0.821 -0.727 1.507 -1.667 1.525 -2.087 0.018 -0.421 0.879 -0.913 1.915 -1.093 2.089 -0.363 3.813 -2.376 4.516 -5.276 0.428 -1.766 0.667 -1.897 3.223 -1.78 2.702 0.124 2.766 0.178 3.01 2.552 0.138 1.334 0.468 4.045 0.735 6.03 0.765 5.685 0.538 6.983 -1.498 8.56 -1.01 0.781 -2.265 2.153 -2.79 3.048 -0.526 0.895 -1.322 1.611 -1.769 1.59 -0.447 -0.021 -1.645 0.622 -2.663 1.428 -1.69 1.338 -1.876 1.874 -2.149 6.176 -0.165 2.591 -0.336 4.926 -0.38 5.19 -0.045 0.263 -1.199 0.428 -2.565 0.365 -2.045 -0.094 -2.85 0.271 -4.558 2.066 -2.483 2.61 -2.698 4.566 -0.756 6.871 1.057 1.255 2.354 1.869 4.854 2.298 4.339 0.744 6.62 -0.018 8.423 -2.814 1.273 -1.974 1.696 -2.184 4.174 -2.071 1.958 0.09 3.297 -0.287 4.622 -1.301 4.242 -3.247 6.739 -3.419 6.615 -0.455 -0.048 1.141 -0.412 1.61 -1.223 1.573 -1.576 -0.072 -3.932 2.063 -4.535 4.109 -0.666 2.262 0.68 4.818 3.201 6.082 1.569 0.787 2.01 1.408 1.948 2.773 -0.06 1.434 -0.432 1.822 -2.01 2.096 -2.33 0.405 -3.301 1.901 -4.03 6.204 -0.578 3.433 -0.592 3.44 -4.407 2.408 -2.399 -0.649 -4.744 1.115 -4.85 3.648 -0.052 1.25 -0.394 1.591 -1.541 1.538 -2.229 -0.102 -4.359 2.067 -4.463 4.547 -0.115 2.759 1.561 4.396 5.08 4.96 2.508 0.402 2.934 0.259 4.561 -1.525 0.987 -1.082 1.805 -2.204 1.817 -2.492 0.012 -0.288 0.674 -0.662 1.472 -0.83 0.798 -0.169 1.975 -1.16 2.617 -2.202 0.961 -1.561 1.572 -1.876 3.46 -1.79 1.261 0.058 3.194 -0.314 4.296 -0.826 1.857 -0.863 2.157 -0.839 4.106 0.335 1.677 1.01 2.086 1.66 2.02 3.208 -0.066 1.495 -0.548 2.18 -2.102 2.98 -1.109 0.571 -2.188 1.598 -2.396 2.282 -0.209 0.684 -0.857 1.374 -1.44 1.534 -0.584 0.16 -1.672 1.146 -2.418 2.191 -0.746 1.045 -2.089 2.217 -2.983 2.605 -0.894 0.387 -1.919 1.304 -2.277 2.036 -0.358 0.732 -1.59 1.788 -2.738 2.345 -2.338 1.136 -3.605 3.174 -3.723 5.99 -0.052 1.241 -0.733 2.472 -1.98 3.579 -1.045 0.928 -2.129 2.329 -2.409 3.113 -0.445 1.248 -0.938 1.405 -3.972 1.266 -4.074 -0.187 -6.074 1.174 -6.202 4.22 -0.075 1.785 -0.25 1.919 -2.384 1.821 l -2.303 -0.106 l 0.518 -8.503 c 0.632 -10.378 0.672 -9.824 -0.817 -11.461 -1.815 -1.997 -5.334 -1.96 -7.379 0.077 -0.899 0.895 -1.657 2.164 -1.684 2.819 -0.029 0.69 -0.503 1.17 -1.126 1.141 -1.189 -0.055 -8.09 6.555 -8.172 7.83 -0.03 0.441 -0.573 0.778 -1.208 0.749 -1.665 -0.077 -4.03 2.181 -4.56 4.345 -0.306 1.263 -0.835 1.843 -1.647 1.806 -1.102 -0.051 -1.17 -0.653 -0.876 -7.689 0.312 -7.47 0.355 -7.655 1.986 -8.631 2.01 -1.202 3.365 -3.971 2.44 -4.989 -1.158 -1.273 -0.598 -2.161 2.027 -3.213 2.506 -1 2.603 -1.151 2.727 -4.114 0.071 -1.69 -0.114 -3.809 -0.411 -4.709 -1.235 -3.746 -5.788 -3.971 -8.718 -0.43 -1.665 2.01 -1.704 2.199 -0.788 3.75 1.43 2.421 1.195 3.84 -0.549 3.313 -1.11 -0.335 -1.761 0.02 -2.942 1.605 -0.834 1.119 -1.531 2.379 -1.548 2.798 -0.018 0.42 -0.606 0.737 -1.307 0.705 -2.316 -0.106 -3.92 2.085 -4.065 5.556 -0.111 2.657 -0.451 3.456 -2.125 5 -1.096 1.012 -2.01 2.295 -2.036 2.852 -0.028 0.681 -0.627 0.986 -1.827 0.931 -2.417 -0.111 -3.36 0.926 -3.482 3.83 -0.091 2.175 -0.275 2.433 -1.696 2.368 -1.318 -0.06 -1.581 -0.382 -1.519 -1.857 z m 9.297 -11.236 c 0.143 -0.737 -0.047 -1.353 -0.422 -1.37 -0.375 -0.017 -0.7 0.402 -0.722 0.932 -0.022 0.53 -0.339 0.95 -0.704 0.933 -0.365 -0.017 -1.277 0.496 -2.027 1.14 -1.351 1.161 -1.342 1.164 1.126 0.437 1.675 -0.493 2.574 -1.171 2.749 -2.072 z m 57.19 -0.476 c 0.562 -3.659 -0.25 -5.13 -1.376 -2.491 -0.81 1.9 -1.115 6.272 -0.485 6.964 0.657 0.723 1.3 -0.821 1.861 -4.473 z m -57.17 -4.736 c 0.231 -0.343 0.117 -0.638 -0.254 -0.655 -0.371 -0.017 -0.687 0.258 -0.702 0.611 -0.015 0.353 0.1 0.648 0.254 0.655 0.155 0.008 0.471 -0.268 0.702 -0.611 z m 9.455 -7.982 c 0.236 -1.498 0.211 -1.509 -0.784 -0.345 -1.244 1.456 -1.367 2.43 -0.267 2.12 0.444 -0.125 0.917 -0.924 1.051 -1.775 z m -7.382 -2.436 c -0.813 -0.894 -1.65 1.05 -1.111 2.579 0.352 0.999 0.488 0.95 1.062 -0.382 0.42 -0.975 0.438 -1.769 0.049 -2.197 z m 4.957 2.697 c 0.022 -0.53 -0.247 -0.977 -0.597 -0.993 -0.351 -0.016 -0.656 0.404 -0.678 0.934 -0.022 0.53 0.247 0.977 0.597 0.993 0.351 0.016 0.656 -0.404 0.678 -0.934 z m 2.238 -7.689 c 0.006 -0.139 -0.42 -0.272 -0.946 -0.296 -0.526 -0.024 -0.968 0.236 -0.982 0.578 -0.014 0.342 0.411 0.476 0.946 0.296 0.534 -0.179 0.977 -0.439 0.982 -0.578 z m 32.522 1.31 c 0.013 -0.315 -0.399 -0.76 -0.917 -0.987 -0.573 -0.252 -0.956 -0.045 -0.98 0.53 -0.022 0.519 0.391 0.963 0.917 0.987 0.526 0.024 0.967 -0.214 0.98 -0.53 z m -29.09 -6.554 c 1.137 0.052 1.974 -0.428 2.598 -1.49 0.506 -0.862 1.268 -1.551 1.693 -1.531 0.863 0.04 4.28 -3.838 4.325 -4.907 0.016 -0.377 0.424 -0.667 0.907 -0.645 0.483 0.022 1.253 -0.377 1.712 -0.887 0.934 -1.039 0.043 -1.337 -1.031 -0.345 -0.476 0.439 -1.219 0.405 -2.4 -0.11 -0.941 -0.41 -3.537 -0.83 -5.769 -0.933 -3.702 -0.17 -4.077 -0.315 -4.274 -1.644 -0.119 -0.802 -0.311 -0.12 -0.427 1.514 -0.17 2.391 -0.463 3.03 -1.5 3.25 -0.709 0.153 -1.3 0.549 -1.314 0.882 -0.014 0.332 0.521 1.297 1.188 2.144 0.722 0.917 1.175 2.462 1.118 3.818 -0.074 1.772 0.082 2.115 0.702 1.543 0.439 -0.405 1.552 -0.701 2.475 -0.659 z m 23.435 -4.335 c 1.203 -0.443 2.39 -1.33 2.638 -1.97 0.248 -0.64 1.398 -1.704 2.556 -2.364 1.802 -1.026 2.146 -1.614 2.388 -4.073 0.386 -3.921 -1.143 -6.093 -4.395 -6.242 -1.801 -0.083 -2.757 0.302 -3.96 1.592 -0.872 0.935 -1.606 2.046 -1.631 2.467 -0.026 0.422 -0.99 1.158 -2.143 1.635 -3.925 1.626 -4.317 6.793 -0.654 8.609 2.61 1.294 2.627 1.295 5.201 0.347 z m -11.728 -10.894 c -0.18 -0.539 -0.574 -0.992 -0.876 -1.01 -0.302 -0.014 -0.402 0.416 -0.223 0.955 0.18 0.539 0.574 0.992 0.876 1.01 0.302 0.014 0.402 -0.416 0.223 -0.955 z m 5.629 -2.664 c 0.045 -1.083 -2.533 -4.595 -3.402 -4.635 -1.711 -0.079 -1.552 1.304 0.37 3.236 2.106 2.116 2.984 2.522 3.03 1.399 z m 3.877 -1.063 c 0.014 -0.342 -0.411 -0.476 -0.946 -0.296 -0.534 0.179 -0.977 0.439 -0.982 0.578 -0.006 0.139 0.42 0.272 0.946 0.296 0.526 0.024 0.968 -0.236 0.982 -0.578 z m 2.453 -6.27 c 0.205 -0.304 -0.191 -0.73 -0.881 -0.946 -0.915 -0.286 -1.231 -0.936 -1.17 -2.405 0.064 -1.528 0.763 -2.614 2.903 -4.511 3.102 -2.749 3.216 -2.463 -1.735 -4.333 -1.899 -0.717 -2.878 -0.216 -1.469 0.752 0.907 0.623 0.649 3.149 -0.533 5.211 -1.309 2.284 -1.349 3.396 -0.186 5.231 0.957 1.511 2.408 1.984 3.071 1 z m 3.424 -4.421 c 0.231 -0.343 0.134 -0.637 -0.217 -0.654 -0.351 -0.016 -0.827 0.252 -1.058 0.595 -0.231 0.343 -0.134 0.637 0.217 0.654 0.351 0.016 0.827 -0.252 1.058 -0.595 z m 9.567 -7.283 c 0.015 -0.353 -0.26 -0.656 -0.611 -0.672 -0.351 -0.016 -0.65 0.26 -0.664 0.613 -0.015 0.353 0.26 0.656 0.611 0.672 0.351 0.016 0.65 -0.26 0.664 -0.613 z m -5.586 -2.835 l -0.402 -2.267 l -0.575 1.812 c -0.405 1.278 -0.326 1.983 0.267 2.391 1.135 0.779 1.173 0.676 0.709 -1.937 z m -7.987 -1.01 c 0.231 -0.343 0.117 -0.638 -0.254 -0.655 -0.371 -0.017 -0.687 0.258 -0.702 0.611 -0.015 0.353 0.1 0.648 0.254 0.655 0.155 0.007 0.471 -0.268 0.702 -0.611 z m 9.526 -6.32 c 0.022 -0.53 -0.247 -0.977 -0.597 -0.993 -0.351 -0.016 -0.656 0.404 -0.678 0.934 -0.022 0.53 0.247 0.977 0.597 0.993 0.351 0.016 0.656 -0.404 0.678 -0.934 z"/><path d="m 91.88 164.32 c 0.09 -2.14 -2.132 -5.01 -3.942 -5.095 -2.845 -0.131 -2.62 -4.182 0.265 -4.773 2.813 -0.576 4.191 -2.437 4.334 -5.853 0.11 -2.636 0.361 -3.202 1.652 -3.725 0.837 -0.339 2.064 -1.651 2.726 -2.915 1.149 -2.191 1.157 -2.453 0.179 -5.607 l -1.026 -3.308 l 1.599 -0.968 c 3.883 -2.351 4.305 -2.909 4.428 -5.862 0.146 -3.479 -1.366 -5.657 -4.01 -5.779 -1.851 -0.085 -2.094 -0.497 -1.335 -2.261 0.318 -0.74 1.321 -0.957 3.868 -0.84 3.475 0.16 6.04 -1.139 6.131 -3.097 0.019 -0.442 1.135 -1.332 2.478 -1.978 2.292 -1.103 2.463 -1.382 2.777 -4.541 0.305 -3.078 0.618 -3.629 3.653 -6.429 2.863 -2.641 3.665 -3.046 5.839 -2.947 3.475 0.16 5.141 -1.474 5.297 -5.191 0.115 -2.756 0.332 -3.046 6.258 -8.366 3.376 -3.03 6.588 -5.933 7.136 -6.449 8.511 -8 11.311 -10.817 11.335 -11.39 0.016 -0.378 0.42 -0.67 0.899 -0.648 1.663 0.076 4.315 -2.46 5.169 -4.946 0.829 -2.41 0.959 -2.496 3.616 -2.374 3.057 0.14 2.836 -0.263 3.758 6.887 0.851 6.604 0.511 9.09 -1.398 10.235 -0.917 0.548 -2.022 1.7 -2.456 2.559 -0.434 0.859 -1.771 1.979 -2.971 2.488 -2.849 1.207 -3.58 2.575 -3.744 7 -0.196 5.306 -0.512 5.886 -3.149 5.765 -1.711 -0.079 -2.795 0.397 -4.511 1.981 -2.639 2.435 -2.89 4.046 -1 6.452 3.042 3.883 10.602 3.902 13.21 0.034 1.233 -1.829 1.818 -2.114 4.631 -2.256 1.989 -0.101 3.781 -0.634 4.687 -1.395 3.502 -2.938 6.349 -3.117 6.21 -0.391 -0.053 1.017 -0.717 1.731 -2.174 2.334 -4.479 1.855 -4.824 6.768 -0.653 9.302 3.161 1.92 3.122 4.365 -0.086 5.371 -1.767 0.554 -2.405 1.203 -2.998 3.048 -0.415 1.29 -0.788 3.122 -0.83 4.073 -0.097 2.217 -0.713 2.523 -3.301 1.646 -2.633 -0.893 -4.97 0.312 -5.594 2.883 -0.313 1.29 -0.973 1.901 -2.455 2.271 -2.48 0.62 -4.115 3.074 -3.629 5.447 0.402 1.961 1.538 2.796 4.884 3.588 2.092 0.495 2.552 0.345 4.307 -1.406 1.081 -1.078 2.32 -2.283 2.754 -2.677 0.434 -0.394 1.75 -1.613 2.925 -2.71 1.533 -1.43 2.717 -1.967 4.194 -1.899 1.132 0.052 2.96 -0.325 4.062 -0.837 1.857 -0.863 2.157 -0.839 4.106 0.335 2.871 1.729 2.855 4.674 -0.033 6.161 -1.081 0.557 -2.14 1.417 -2.352 1.911 -0.545 1.267 -5.623 6.05 -7.767 7.316 -0.986 0.582 -1.812 1.413 -1.834 1.846 -0.022 0.433 -1.08 1.401 -2.35 2.151 -2.478 1.464 -3.625 3.434 -3.751 6.444 -0.043 1.037 -0.343 1.873 -0.666 1.858 -0.323 -0.015 -1.453 1.226 -2.511 2.757 -1.785 2.584 -2.121 2.777 -4.675 2.681 -4.422 -0.165 -6.529 1.217 -6.679 4.383 -0.076 1.588 -0.308 1.756 -2.315 1.663 l -2.231 -0.102 l 0.388 -9.267 c 0.387 -9.246 0.385 -9.27 -1.236 -10.676 -0.893 -0.775 -2.325 -1.441 -3.181 -1.48 -1.743 -0.08 -5.418 2.953 -5.483 4.525 -0.023 0.557 -0.429 0.995 -0.902 0.973 -0.997 -0.046 -8.371 6.906 -8.413 7.932 -0.016 0.379 -0.553 0.666 -1.193 0.637 -1.51 -0.069 -3.824 2.239 -4.472 4.46 -0.331 1.137 -0.93 1.727 -1.715 1.691 -1.114 -0.051 -1.182 -0.626 -0.894 -7.506 l 0.312 -7.45 l 2.071 -1.784 c 1.842 -1.587 2.038 -2.062 1.778 -4.307 -0.281 -2.419 -0.192 -2.568 2.146 -3.59 2.029 -0.887 2.491 -1.443 2.745 -3.305 0.472 -3.452 -0.679 -7.07 -2.503 -7.863 -2.124 -0.926 -5.39 0.353 -6.859 2.686 -0.99 1.573 -1.028 1.975 -0.289 3.091 1.374 2.077 0.98 3.506 -1.01 3.644 -1.279 0.089 -2.139 0.767 -3.137 2.471 -0.757 1.292 -1.747 2.332 -2.202 2.312 -0.454 -0.02 -1.56 0.641 -2.457 1.469 -1.233 1.138 -1.659 2.188 -1.748 4.309 -0.092 2.208 -0.543 3.244 -2.12 4.874 -1.102 1.139 -2.02 2.452 -2.038 2.918 -0.02 0.469 -0.726 0.816 -1.584 0.777 -2.173 -0.1 -3.62 1.475 -3.729 4.058 -0.08 1.921 -0.296 2.193 -1.686 2.129 -1.251 -0.058 -1.58 -0.4 -1.53 -1.592 z m 7.05 -9.825 c 1.646 -0.667 2.868 -2.355 1.743 -2.407 -0.34 -0.016 -0.629 0.251 -0.644 0.593 -0.014 0.342 -0.833 1.017 -1.819 1.5 -2.117 1.036 -1.608 1.258 0.72 0.314 z m 59.25 -2.416 c 0.089 -2.12 -0.091 -3.712 -0.4 -3.539 -0.668 0.375 -1.759 6.674 -1.3 7.501 0.776 1.395 1.551 -0.412 1.699 -3.963 z m -49.965 -11.873 c 0.015 -0.353 -0.26 -0.655 -0.611 -0.672 -0.351 -0.016 -0.65 0.26 -0.664 0.613 -0.015 0.353 0.26 0.656 0.611 0.672 0.351 0.016 0.65 -0.26 0.664 -0.613 z m 2.426 -0.411 c 0.431 -1.139 -0.897 -0.956 -1.391 0.191 -0.264 0.615 -0.134 0.915 0.338 0.78 0.422 -0.121 0.896 -0.558 1.052 -0.971 z m -7.457 -1.467 c 0.039 -0.932 -0.214 -1.485 -0.585 -1.276 -0.36 0.202 -0.678 0.929 -0.706 1.614 -0.029 0.686 0.235 1.26 0.585 1.276 0.351 0.016 0.668 -0.71 0.706 -1.614 z m 39.489 -4.905 c 0.231 -0.343 -0.043 -0.646 -0.611 -0.672 -0.567 -0.026 -0.866 0.25 -0.664 0.613 0.202 0.363 0.477 0.665 0.611 0.672 0.134 0.007 0.433 -0.27 0.664 -0.613 z m -26.312 -7.939 c 0.647 -0.758 1.773 -1.666 2.503 -2.02 0.73 -0.352 1.911 -1.628 2.624 -2.835 0.713 -1.207 1.821 -2.307 2.462 -2.445 0.641 -0.138 1.18 -0.602 1.198 -1.032 0.024 -0.576 -0.197 -0.606 -0.843 -0.112 -0.607 0.464 -1.537 0.445 -3.03 -0.06 -1.183 -0.401 -3.946 -0.812 -6.14 -0.912 -3.83 -0.176 -3.991 -0.119 -4.056 1.423 -0.041 0.97 -0.431 1.589 -0.986 1.564 -1.596 -0.073 -1.812 1.157 -0.523 2.965 0.685 0.961 1.219 2.382 1.187 3.159 -0.032 0.777 0.077 1.562 0.243 1.744 0.712 0.783 4.279 -0.175 5.358 -1.439 z m 23.661 -5.04 c 1.094 -0.961 2.66 -2.319 3.48 -3.02 1.648 -1.405 2.077 -4.31 0.981 -6.645 -0.894 -1.906 -1.681 -2.427 -3.832 -2.537 -2.511 -0.129 -3.997 0.733 -4.997 2.899 -0.472 1.023 -1.685 2.162 -2.694 2.53 -4.067 1.485 -4.206 6.741 -0.229 8.642 2.427 1.16 4.422 0.648 7.291 -1.872 z m -14.646 -8.728 c 0.022 -0.53 -0.238 -0.976 -0.577 -0.992 -0.34 -0.016 -0.471 0.413 -0.291 0.952 0.18 0.539 0.439 0.986 0.577 0.992 0.138 0.006 0.269 -0.422 0.291 -0.952 z m 5.866 -2.794 c 0.041 -0.973 -2.805 -4.466 -3.67 -4.506 -1.128 -0.052 -0.69 1.491 0.962 3.388 1.77 2.032 2.655 2.398 2.708 1.118 z m 6.05 -7.209 c 0.013 -0.316 -0.399 -0.76 -0.917 -0.987 -1.777 -0.781 -0.968 -4.173 1.549 -6.496 1.279 -1.18 2.337 -2.411 2.35 -2.736 0.014 -0.325 -1.039 -0.941 -2.338 -1.369 -3.075 -1.014 -3.738 -1.022 -2.841 -0.036 0.978 1.076 0.778 3.716 -0.428 5.644 -1.305 2.086 -1.316 3.259 -0.05 5.01 1.064 1.469 2.629 2.039 2.674 0.975 z m 7.743 -13.865 c -0.188 -1.818 -1.322 -2.211 -1.395 -0.483 -0.026 0.62 1.086 2.393 1.513 2.413 0.044 0.002 -0.009 -0.866 -0.119 -1.93 z m 1.459 -7.624 c 0.014 -0.332 -0.254 -0.796 -0.596 -1.031 -0.342 -0.234 -0.64 0.024 -0.663 0.575 -0.023 0.551 0.245 1.015 0.596 1.031 0.351 0.016 0.649 -0.243 0.663 -0.575 z"/><path d="m 91.85 164.84 c 0.09 -2.151 -1.772 -4.921 -3.616 -5.381 -1.944 -0.485 -2.766 -2.02 -2.02 -3.765 0.245 -0.57 0.867 -1.016 1.383 -0.992 0.515 0.024 1.811 -0.763 2.879 -1.749 1.583 -1.461 1.965 -2.338 2.066 -4.746 0.104 -2.491 0.367 -3.052 1.677 -3.583 0.854 -0.346 1.944 -1.295 2.422 -2.108 1.033 -1.759 1.187 -5.263 0.275 -6.266 -1.243 -1.367 -0.536 -3.349 1.806 -5.067 2.957 -2.169 3.752 -3.979 3.064 -6.979 -0.555 -2.421 -1.964 -3.692 -4.206 -3.795 -1.373 -0.063 -1.56 -0.561 -0.838 -2.238 0.3 -0.698 1.262 -0.96 3.2 -0.871 3.553 0.163 5.998 -0.84 6.54 -2.683 0.236 -0.801 0.93 -1.591 1.542 -1.757 2.534 -0.685 3.995 -2.701 4.119 -5.685 0.111 -2.648 0.421 -3.176 3.484 -5.929 2.514 -2.259 3.845 -2.999 5.275 -2.934 2.02 0.093 4.422 -0.798 5.257 -1.946 0.274 -0.377 0.553 -1.888 0.619 -3.357 0.119 -2.605 0.431 -2.958 12.414 -14.05 6.761 -6.259 12.305 -11.672 12.32 -12.03 0.015 -0.357 0.755 -0.799 1.645 -0.981 1.816 -0.372 3.96 -2.824 4.717 -5.394 0.449 -1.526 0.798 -1.694 3.272 -1.58 2.653 0.122 2.795 0.23 3.36 2.568 0.324 1.342 0.659 4.946 0.743 8.01 0.142 5.165 0.057 5.614 -1.184 6.212 -0.736 0.355 -1.98 1.599 -2.766 2.764 -0.786 1.166 -2.264 2.424 -3.285 2.797 -2.377 0.868 -3.393 2.928 -3.574 7.247 -0.187 4.467 -0.661 5.462 -2.561 5.375 -2.372 -0.109 -5.258 1.493 -6.443 3.576 -0.957 1.683 -0.973 2.067 -0.164 3.824 1.222 2.653 2.629 3.358 7.115 3.564 3.637 0.167 3.923 0.063 6.04 -2.201 1.77 -1.89 2.804 -2.425 5.05 -2.617 1.556 -0.132 3.596 -0.808 4.534 -1.502 3.775 -2.793 6.575 -2.901 6.439 -0.248 -0.053 1.017 -0.717 1.731 -2.174 2.334 -4.387 1.817 -4.655 6.181 -0.559 9.123 1.622 1.165 2.169 2.026 2.12 3.337 -0.04 1.083 -0.409 1.751 -0.952 1.726 -2.023 -0.093 -3.869 2.203 -4.778 5.944 l -0.916 3.769 l -2.988 -0.358 c -3.399 -0.407 -4.627 0.257 -5.314 2.875 -0.357 1.359 -0.961 1.906 -2.378 2.152 -3.617 0.628 -5.128 6.176 -2.166 7.95 0.694 0.415 2.427 0.856 3.851 0.978 2.191 0.189 2.811 -0.057 4.03 -1.598 0.792 -1 2 -2.24 2.69 -2.751 0.687 -0.511 2.01 -1.691 2.936 -2.622 1.073 -1.077 2.339 -1.662 3.481 -1.61 0.987 0.045 2.952 -0.324 4.366 -0.821 2.396 -0.842 2.702 -0.818 4.47 0.344 2.656 1.747 2.547 4.754 -0.227 6.24 -1.078 0.578 -1.969 1.272 -1.981 1.543 -0.031 0.733 -7.292 7.465 -8.02 7.432 -0.343 -0.016 -0.95 0.618 -1.349 1.408 -0.399 0.79 -1.612 1.965 -2.696 2.611 -2.334 1.391 -3.903 3.865 -4.03 6.358 -0.058 1.126 -0.825 2.46 -2.052 3.571 -1.078 0.975 -2.15 2.302 -2.384 2.947 -0.339 0.936 -1.068 1.144 -3.599 1.028 -2.52 -0.116 -3.51 0.164 -4.804 1.359 -0.897 0.828 -1.662 2.24 -1.699 3.14 -0.06 1.44 -0.334 1.623 -2.3 1.533 l -2.231 -0.102 l 0.373 -8.921 c 0.407 -9.726 0.003 -11.198 -3.326 -12.12 -2.073 -0.572 -5.649 1.437 -6.262 3.517 -0.256 0.871 -0.988 1.725 -1.626 1.898 -1.122 0.303 -6.394 5.151 -7.687 7.07 -0.35 0.518 -1.463 1.265 -2.474 1.659 -1.153 0.449 -2.275 1.65 -3.01 3.22 -0.728 1.557 -1.593 2.487 -2.287 2.459 -1 -0.041 -1.083 -0.83 -0.8 -7.594 l 0.316 -7.549 l 2.054 -1.788 c 1.813 -1.578 2.02 -2.08 1.767 -4.267 -0.273 -2.349 -0.167 -2.53 2.02 -3.461 2.605 -1.11 3.332 -2.741 2.825 -6.336 -0.445 -3.149 -1.797 -4.744 -4.113 -4.851 -3.097 -0.142 -7.211 4.499 -5.208 5.875 1.374 0.943 0.518 3.275 -1.439 3.919 -1.067 0.351 -2.481 1.516 -3.142 2.589 -0.661 1.073 -1.865 2.091 -2.675 2.262 -1.772 0.375 -3.462 3.132 -3.575 5.831 -0.114 2.714 -4.055 8.125 -5.891 8.09 -1.742 -0.037 -3.48 2.158 -3.579 4.519 -0.062 1.475 -0.351 1.771 -1.668 1.711 -1.014 -0.047 -1.579 -0.435 -1.552 -1.069 z m 8.797 -11.792 c 0.022 -0.53 -0.072 -0.969 -0.21 -0.975 -0.138 -0.007 -0.434 0.414 -0.658 0.935 -0.224 0.521 -0.129 0.959 0.21 0.975 0.34 0.016 0.636 -0.405 0.658 -0.935 z m 57.33 -0.632 c 0.522 -4.327 -0.546 -4.298 -1.321 0.036 -0.5 2.793 -0.25 4.623 0.532 3.901 0.195 -0.18 0.55 -1.951 0.789 -3.937 z m -47.595 -12.469 c 0.242 -0.562 0.146 -0.824 -0.225 -0.616 -0.356 0.2 -0.658 0.635 -0.672 0.968 -0.039 0.924 0.427 0.741 0.897 -0.352 z m -7.202 -1.623 c 0.023 -0.551 -0.252 -0.836 -0.612 -0.634 -0.36 0.202 -0.666 0.64 -0.679 0.972 -0.014 0.332 0.262 0.618 0.612 0.634 0.351 0.016 0.656 -0.421 0.679 -0.972 z m 39.17 -4.92 c 0.015 -0.353 -0.277 -0.656 -0.648 -0.673 -0.371 -0.017 -0.51 0.266 -0.308 0.629 0.202 0.363 0.494 0.666 0.648 0.673 0.155 0.008 0.293 -0.276 0.308 -0.629 z m -25.467 -8.571 c 1.353 -1.177 2.662 -2.13 2.908 -2.119 0.246 0.011 1.02 -0.947 1.719 -2.13 0.699 -1.183 1.828 -2.371 2.51 -2.641 1.413 -0.56 -1.325 -1.039 -8.416 -1.472 -3.631 -0.222 -4.166 -0.101 -4.428 1.01 -0.164 0.692 -0.781 1.583 -1.372 1.981 -0.99 0.667 -0.993 0.876 -0.038 2.688 0.57 1.08 1.01 2.57 0.979 3.311 -0.094 2.259 3.211 1.924 6.138 -0.622 z m 24.608 -5.888 c 3.964 -3.777 4.546 -5.903 2.428 -8.872 -2.166 -3.037 -7.236 -2.1 -8.592 1.588 -0.228 0.621 -1.3 1.583 -2.381 2.138 -3.601 1.849 -4.084 6.637 -0.827 8.2 2.895 1.39 5.65 0.492 9.372 -3.055 z m -10.262 -9.815 c 0.035 -0.828 -2.985 -4.691 -3.692 -4.724 -1.116 -0.051 -0.625 1.372 1.146 3.32 1.863 2.049 2.504 2.402 2.545 1.404 z m 6.06 -7.425 c 0.013 -0.316 -0.399 -0.76 -0.917 -0.987 -1.793 -0.789 -0.941 -4.428 1.58 -6.743 1.267 -1.164 2.313 -2.333 2.324 -2.598 0.011 -0.265 -1.043 -0.833 -2.343 -1.261 -3.075 -1.014 -3.738 -1.022 -2.841 -0.036 0.992 1.091 0.833 3.138 -0.459 5.914 -1.086 2.334 -1.01 2.951 0.643 5.067 0.98 1.256 1.974 1.574 2.01 0.644 z m 7.612 -14.01 c 0.043 -1.038 -0.137 -1.232 -0.68 -0.731 -0.407 0.375 -0.56 1.01 -0.34 1.4 0.614 1.105 0.956 0.882 1.021 -0.669 z m 1.273 -7.536 c 0.232 -0.343 0.117 -0.638 -0.254 -0.655 -0.371 -0.017 -0.687 0.258 -0.702 0.611 -0.015 0.353 0.1 0.648 0.254 0.655 0.155 0.007 0.471 -0.268 0.702 -0.611 z"/><path d="m 91.86 164.6 c 0.07 -1.681 -2.809 -5.327 -4.259 -5.394 -2.562 -0.118 -2.03 -4.334 0.615 -4.876 2.169 -0.444 4.214 -3.344 4.331 -6.141 0.078 -1.87 0.589 -2.779 2.49 -4.433 2.506 -2.18 2.698 -3.251 1.557 -8.715 -0.309 -1.48 0.052 -2.114 2.357 -4.136 2.327 -2.042 2.738 -2.772 2.833 -5.03 0.126 -3.01 -1.602 -5.347 -4.044 -5.459 -1.468 -0.067 -1.836 -1.048 -0.889 -2.365 0.274 -0.381 2.064 -0.768 3.978 -0.861 2.695 -0.131 3.747 -0.501 4.667 -1.645 1.496 -1.861 2.51 -2.796 4.481 -4.134 1.185 -0.805 1.673 -1.853 2.01 -4.328 0.395 -2.869 0.823 -3.594 3.521 -5.971 2.403 -2.117 3.697 -2.76 5.949 -2.956 3.535 -0.307 5.2 -1.992 5.343 -5.406 0.097 -2.314 0.691 -3.01 9.574 -11.274 5.209 -4.844 11.05 -10.365 12.983 -12.268 1.932 -1.903 4.081 -3.614 4.776 -3.802 0.695 -0.188 1.975 -1.751 2.845 -3.473 1.581 -3.129 1.585 -3.132 4.401 -2.816 2.527 0.283 2.865 0.518 3.267 2.267 0.247 1.073 0.499 4.56 0.56 7.748 l 0.112 5.797 l -3.199 2.923 c -1.76 1.608 -4.06 3.553 -5.113 4.322 -1.647 1.204 -1.971 1.926 -2.326 5.189 -0.679 6.229 -0.798 6.456 -3.562 6.772 -4.23 0.484 -6.938 4.01 -5.77 7.52 0.569 1.706 3.632 3.092 7.199 3.256 3.02 0.139 3.537 -0.06 5.751 -2.208 1.819 -1.765 3.146 -2.442 5.262 -2.684 1.556 -0.178 3.806 -1.01 5 -1.844 1.195 -0.836 2.958 -1.538 3.919 -1.56 1.434 -0.032 1.769 0.255 1.868 1.603 0.097 1.327 -0.319 1.829 -2.169 2.617 -3.951 1.683 -4.165 6.293 -0.417 8.984 2.741 1.969 2.949 4.863 0.386 5.388 -1.955 0.4 -3.49 2.889 -4.188 6.789 l -0.512 2.86 l -2.674 -0.495 c -3.283 -0.608 -5.219 0.24 -5.844 2.559 -0.308 1.142 -1.199 2.057 -2.557 2.623 -1.147 0.478 -2.509 1.68 -3.03 2.67 -0.841 1.604 -0.815 1.991 0.235 3.55 0.913 1.356 1.809 1.819 3.976 2.054 2.701 0.294 2.957 0.155 7.416 -4 2.834 -2.643 5.142 -4.284 5.972 -4.245 0.744 0.034 2.703 -0.333 4.353 -0.817 2.797 -0.82 3.127 -0.796 4.889 0.363 2.649 1.742 2.535 4.751 -0.235 6.235 -1.078 0.578 -1.97 1.283 -1.982 1.568 -0.02 0.473 -8.407 8.403 -13.231 12.51 -1.262 1.074 -2.186 2.588 -2.484 4.069 -0.519 2.577 -0.513 2.566 -3.445 6.277 -1.747 2.212 -2.354 2.549 -4.447 2.474 -3.703 -0.133 -6.115 1.267 -6.721 3.9 -0.466 2.025 -0.709 2.218 -2.673 2.128 l -2.16 -0.099 l 0.351 -8.382 c 0.389 -9.294 -0.206 -11.821 -2.935 -12.477 -2.233 -0.537 -5.282 0.975 -6.267 3.108 -0.461 1 -1.365 1.96 -2.01 2.133 -1.036 0.28 -6.408 5.277 -7.782 7.239 -0.286 0.409 -1.328 1.117 -2.314 1.574 -0.986 0.457 -2.324 1.915 -2.973 3.241 -0.741 1.513 -1.609 2.391 -2.332 2.357 -1.045 -0.048 -1.123 -0.746 -0.84 -7.515 0.309 -7.393 0.331 -7.482 2.338 -9.592 1.677 -1.763 1.973 -2.495 1.721 -4.255 -0.275 -1.924 -0.084 -2.243 2.02 -3.367 2.767 -1.481 3.557 -3.612 2.659 -7.174 -1.137 -4.512 -5.446 -5.223 -8.529 -1.409 -1.162 1.438 -1.274 1.943 -0.671 3.02 1.225 2.179 0.784 3.703 -1.247 4.314 -1.028 0.309 -2.391 1.37 -3.03 2.357 -0.637 0.987 -2.02 2.241 -3.067 2.787 -2.01 1.044 -3.268 3.226 -3.378 5.853 -0.087 2.089 -4.179 7.725 -5.592 7.704 -1.759 -0.026 -3.767 2.246 -3.855 4.363 -0.068 1.627 -0.329 1.916 -1.674 1.854 -1.148 -0.053 -1.579 -0.419 -1.542 -1.309 z m 66.34 -13.896 c 0.046 -0.617 -0.174 -1.134 -0.49 -1.149 -0.652 -0.03 -1.551 5.704 -1.051 6.709 0.311 0.626 1.363 -3.169 1.541 -5.56 z m -55.02 -12.38 c 0.023 -0.551 -0.252 -0.836 -0.612 -0.634 -0.36 0.202 -0.666 0.64 -0.679 0.972 -0.014 0.332 0.262 0.618 0.612 0.634 0.351 0.016 0.656 -0.421 0.679 -0.972 z m 39.17 -4.92 c 0.015 -0.353 -0.277 -0.656 -0.648 -0.673 -0.371 -0.017 -0.51 0.266 -0.308 0.629 0.202 0.363 0.494 0.666 0.648 0.673 0.155 0.008 0.293 -0.276 0.308 -0.629 z m -24.9 -9.226 c 4.01 -3 6.406 -6.256 4.992 -6.77 -4.22 -1.533 -11.308 -1.237 -11.38 0.474 -0.017 0.411 -0.51 1.069 -1.094 1.46 -0.979 0.656 -0.988 0.874 -0.116 2.769 0.521 1.131 0.922 2.649 0.892 3.373 -0.094 2.251 2.677 1.711 6.706 -1.307 z m 19.315 -1.976 c 2.336 -0.775 7.404 -5.547 7.984 -7.519 0.645 -2.193 -0.997 -5.547 -3.01 -6.156 -2.125 -0.642 -4.565 0.405 -5.913 2.536 -0.598 0.946 -2.01 2.261 -3.127 2.922 -1.598 0.942 -2.104 1.729 -2.342 3.638 -0.338 2.718 0.398 4.098 2.45 4.599 0.757 0.185 1.572 0.384 1.81 0.444 0.238 0.059 1.206 -0.149 2.151 -0.463 z m -6.855 -15.237 c -1.523 -2.179 -2.929 -3.164 -2.974 -2.083 -0.034 0.806 3.02 4.142 3.827 4.179 0.348 0.016 -0.036 -0.927 -0.853 -2.096 z m 7.379 -5.259 c 0.013 -0.316 -0.399 -0.76 -0.917 -0.987 -0.576 -0.253 -0.906 -1.244 -0.851 -2.556 0.067 -1.605 0.672 -2.663 2.413 -4.22 2.482 -2.219 2.398 -2.814 -0.538 -3.809 -1.839 -0.623 -1.864 -0.599 -2.059 2.01 -0.109 1.452 -0.446 3.727 -0.749 5.056 -0.426 1.866 -0.307 2.715 0.524 3.725 1.137 1.382 2.137 1.742 2.177 0.784 z m 7.608 -13.916 c 0.03 -0.727 -0.226 -1.164 -0.57 -0.971 -0.344 0.193 -0.482 0.783 -0.306 1.311 0.45 1.351 0.811 1.211 0.876 -0.34 z"/><path d="m 54.11 150.29 c 0.246 -5.886 1.219 -6.806 6.289 -5.944 1.099 0.187 2.053 -0.954 2.119 -2.535 0.067 -1.594 1.964 -3.576 4.258 -4.447 2.276 -0.865 4.6 -2.589 5.165 -3.832 0.565 -1.243 2.035 -2.214 3.266 -2.158 1.286 0.059 2.304 -1.442 2.391 -3.527 0.15 -3.593 3.513 -7.235 6.149 -6.661 3.074 0.67 5.403 0.025 5.468 -1.515 0.038 -0.9 1.129 -2.558 2.426 -3.685 1.297 -1.127 2.679 -2.854 3.072 -3.837 0.476 -1.191 2.334 -0.539 5.569 1.955 5.561 4.286 5.244 6.431 -1.304 8.84 -2.538 0.934 -5.65 3.363 -6.915 5.398 -1.265 2.035 -3.136 3.662 -4.159 3.615 -2.551 -0.117 -8.499 5.745 -10.01 9.865 -0.823 2.245 -2.499 3.327 -4.979 3.213 -2.056 -0.095 -4.198 0.84 -4.76 2.076 -0.562 1.236 -2.31 2.199 -3.886 2.139 -2.307 -0.087 -2.434 0.178 -0.652 1.361 1.88 1.248 1.812 1.817 -0.446 3.78 -1.462 1.271 -4.157 2.242 -5.989 2.158 -2.813 -0.129 -3.29 -1.101 -3.075 -6.26 z"/></g></svg>