<?xml version="1.0" encoding="UTF-8" standalone="no"?>
<svg
   xmlns:dc="http://purl.org/dc/elements/1.1/"
   xmlns:cc="http://creativecommons.org/ns#"
   xmlns:rdf="http://www.w3.org/1999/02/22-rdf-syntax-ns#"
   xmlns:svg="http://www.w3.org/2000/svg"
   xmlns="http://www.w3.org/2000/svg"
   xmlns:sodipodi="http://sodipodi.sourceforge.net/DTD/sodipodi-0.dtd"
   xmlns:inkscape="http://www.inkscape.org/namespaces/inkscape"
   viewBox="0 0 256 256"
   version="1.1"
   id="svg10"
   sodipodi:docname="firefox.svg"
   inkscape:version="0.92.4 5da689c313, 2019-01-14">
  <metadata
     id="metadata16">
    <rdf:RDF>
      <cc:Work
         rdf:about="">
        <dc:format>image/svg+xml</dc:format>
        <dc:type
           rdf:resource="http://purl.org/dc/dcmitype/StillImage" />
      </cc:Work>
    </rdf:RDF>
  </metadata>
  <defs
     id="defs14" />
  <sodipodi:namedview
     pagecolor="#ffffff"
     bordercolor="#666666"
     borderopacity="1"
     objecttolerance="10"
     gridtolerance="10"
     guidetolerance="10"
     inkscape:pageopacity="0"
     inkscape:pageshadow="2"
     inkscape:window-width="2385"
     inkscape:window-height="1734"
     id="namedview12"
     showgrid="false"
     inkscape:zoom="2.6074563"
     inkscape:cx="210.75212"
     inkscape:cy="83.197858"
     inkscape:window-x="0"
     inkscape:window-y="56"
     inkscape:window-maximized="0"
     inkscape:current-layer="g8" />
  <g
     transform="translate(0 -796.36)"
     color="#000"
     id="g8">
    <path
       d="m -1374.42 1658.71 c 127.95 -192.46 -280.09 -311 -226.07 -62.2 23.02 102.82 167.39 165.22 226.07 62.2 z"
       transform="matrix(0 -1 -1 0 1711.48 -553.08)"
       fill="#ff8b00"
       id="path2"
       style="fill:#ff6d8b;fill-opacity:1" />
    <path
       d="m 182.74 936.88 c 0 32.01 -32.3 56.731 -57.955 56.731 -25.658 0 -57.955 -24.724 -57.955 -56.731 0 -19.263 16.775 -65.796 29.388 -73.867 8.344 -5.339 18.351 27.409 28.567 27.409 10.594 0 20.962 -32.523 29.486 -26.807 12.12 8.128 28.469 54.47 28.469 73.26 z"
       fill="#ffd29b"
       id="path4"
       style="fill:#ffcae3;fill-opacity:1" />
    <path
       d="m 97.82 862.5 c -0.534 0.012 -1.082 0.191 -1.603 0.525 -12.613 8.07 -29.38 54.59 -29.38 73.85 0 27.307 23.513 41.777 46.35 35.05 0 0.009 0 0.019 0 0.028 0 2.182 5.194 6.357 11.608 6.357 6.414 0 11.608 -4.175 11.608 -6.357 0 -0.009 0 -0.019 0 -0.028 22.837 6.731 46.35 -7.738 46.35 -35.05 0 -18.792 -16.348 -65.14 -28.468 -73.27 -8.523 -5.716 -18.896 32.503 -29.49 32.503 -9.577 0 -18.963 -33.785 -26.975 -33.608 z"
       fill="#fff"
       id="path6" />
  </g>
</svg>
