<svg xmlns="http://www.w3.org/2000/svg" viewBox="0 0 256 256"><path d="m 260.02 66.64 c -48.541 -88.14 -200.63 -53.931 -226.36 18.64 -30.66 86.45 49.14 250.63 184.3 154.45 45.527 -33.585 90.6 -84.949 42.05 -173.09 z" transform="translate(-26.04 -13.02)" fill="#d8bfd8" color="#000"/><g transform="matrix(1.16 0 0 1.2179 -17.619 -24.344)"><path d="m 105.25 167.36 c -1.191 -1.519 -1.174 -1.608 0.128 -0.671 2.172 1.562 22.953 1.685 24.927 0.147 1.387 -1.081 1.411 -1.019 0.201 0.524 -1.162 1.482 -3.098 1.75 -12.628 1.75 -9.53 0 -11.466 -0.268 -12.628 -1.75 z m -8.948 -4 l -2.424 -2.75 l 3 2.5 c 1.65 1.375 3.187 2.613 3.417 2.75 0.229 0.137 -0.03 0.25 -0.576 0.25 -0.546 0 -2.083 -1.238 -3.417 -2.75 z m 37.16 2.5 c 0.229 -0.137 1.767 -1.375 3.417 -2.75 l 3 -2.5 l -2.424 2.75 c -1.333 1.512 -2.871 2.75 -3.417 2.75 -0.546 0 -0.805 -0.113 -0.576 -0.25 z m 13.875 -10 c 4.144 -4.415 5.04 -5.209 5.04 -4.458 0 0.16 -2.137 2.298 -4.75 4.75 l -4.75 4.458 l 4.458 -4.75 z m -71.4 -7.282 c -1.068 -0.808 -1.46 -1.468 -0.872 -1.468 0.588 0 1.629 0.675 2.314 1.5 1.557 1.876 1.067 1.865 -1.441 -0.032 z m 76.44 0.591 c 0 -0.518 0.445 -1.216 0.989 -1.552 0.567 -0.35 0.735 0.051 0.393 0.941 -0.665 1.732 -1.382 2.049 -1.382 0.611 z m -89.25 -1.721 c 0.688 -0.277 1.813 -0.277 2.5 0 0.688 0.277 0.125 0.504 -1.25 0.504 -1.375 0 -1.938 -0.227 -1.25 -0.504 z m 94.12 -1.588 c 1.121 -1.43 2.769 -1.714 9 -1.551 l 7.628 0.199 l -7.455 0.349 c -4.1 0.192 -8.15 0.89 -9 1.551 -1.356 1.055 -1.377 0.988 -0.172 -0.548 z m 21.09 -0.282 c 1.088 -1.775 0.852 -2.455 -1.869 -5.367 -1.713 -1.834 -3.389 -4.519 -3.724 -5.968 -0.335 -1.448 -1.197 -3.58 -1.917 -4.737 -0.72 -1.157 -1.557 -3.857 -1.861 -6 l -0.553 -3.896 l 1.35 4 c 0.743 2.2 2.755 7.091 4.471 10.869 3.241 7.133 3.217 7.118 8.639 5.121 1.716 -0.632 1.678 -0.496 -0.267 0.955 -1.247 0.93 -2.045 2.051 -1.774 2.489 0.271 0.439 -0.46 1.646 -1.625 2.682 -2.088 1.857 -2.1 1.855 -0.872 -0.149 z m 4.85 -1.151 c 0.722 -0.289 1.584 -0.253 1.917 0.079 0.332 0.332 -0.258 0.569 -1.313 0.525 -1.165 -0.048 -1.402 -0.285 -0.604 -0.604 z m -110.8 -4.01 c 0.008 -0.445 0.452 -1.484 0.985 -2.309 0.835 -1.293 0.971 -1.266 0.985 0.191 0.008 0.93 -0.435 1.969 -0.985 2.309 -0.55 0.34 -0.993 0.254 -0.985 -0.191 z m 113.8 -0.992 c 0.722 -0.289 1.584 -0.253 1.917 0.079 0.332 0.332 -0.258 0.569 -1.313 0.525 -1.165 -0.048 -1.402 -0.285 -0.604 -0.604 z m -61.61 -1.517 c -1.589 -1.589 -1.531 -3.8 0.1 -3.8 1.672 0 3.7 2.028 3.7 3.7 0 1.631 -2.211 1.689 -3.8 0.1 z m -50.17 -2.491 c -0.017 -0.655 0.418 -1.469 0.968 -1.809 0.55 -0.34 1.01 -1.829 1.015 -3.309 0.008 -1.48 0.497 -3.366 1.087 -4.191 0.84 -1.176 0.948 -0.96 0.498 1 -0.315 1.375 -0.579 3.201 -0.587 4.059 -0.016 1.837 -2.935 5.998 -2.982 4.25 z m 68.49 -1.882 c -2.738 -1.357 -6.676 -4.125 -8.75 -6.15 -6.131 -5.987 -4.389 -11.218 2.071 -6.22 1.462 1.131 5.578 4.175 9.147 6.765 10.224 7.418 8.605 11.09 -2.468 5.605 z m -81.27 -0.507 c 2.141 -1.247 2.313 -5.767 0.25 -6.558 -2.178 -0.836 -1.84 -3.362 0.45 -3.362 1.073 0 2.409 -0.787 2.97 -1.75 0.561 -0.963 1.033 -1.243 1.05 -0.622 0.017 0.62 -0.653 1.695 -1.489 2.388 -1.082 0.898 -1.337 2.233 -0.887 4.633 0.643 3.427 -0.743 6.38 -2.966 6.32 -0.62 -0.017 -0.34 -0.489 0.622 -1.05 z m 123 -6.632 c -1.744 -3.748 -1.561 -5.176 0.32 -2.492 0.863 1.233 1.426 2.902 1.25 3.71 -0.206 0.945 -0.765 0.511 -1.57 -1.218 z m -104.61 -8.488 c 0.334 -1.815 1.255 -4.339 2.047 -5.609 2.408 -3.862 1.359 -6.63 -2.684 -7.083 -3.099 -0.347 -3.224 -0.464 -1.094 -1.023 2.279 -0.598 2.315 -0.722 0.679 -2.358 -0.95 -0.95 -1.231 -1.727 -0.624 -1.727 0.607 0 1.362 0.675 1.678 1.5 0.317 0.825 1.315 1.501 2.219 1.502 2.218 0.003 2.665 6.414 0.648 9.294 -0.828 1.182 -1.505 3.372 -1.505 4.867 0 1.495 -0.443 2.992 -0.985 3.327 -0.614 0.379 -0.756 -0.635 -0.378 -2.691 z m 102.01 0.598 c -1.84 -2.525 -1.839 -2.532 0.25 -1.228 1.155 0.721 2.1 1.878 2.1 2.571 0 1.711 -0.214 1.589 -2.35 -1.343 z m 4.55 1.403 c -0.66 -0.66 -1.148 -2.123 -1.084 -3.25 0.114 -2.01 0.126 -2.01 0.608 -0.05 0.27 1.1 0.948 2.563 1.506 3.25 1.295 1.595 0.551 1.631 -1.03 0.05 z m -98.2 -1.729 c 0 -4.159 7.397 -8.123 11.592 -6.211 1.376 0.627 3.86 1.14 5.521 1.14 1.66 0 3.992 0.521 5.181 1.157 2.113 1.131 2.117 1.175 0.184 1.93 -1.088 0.425 -4.929 0.804 -8.537 0.843 -4.121 0.044 -7.28 0.616 -8.5 1.538 -2.786 2.108 -5.441 1.914 -5.441 -0.397 z m 78.05 -1.474 c -0.706 -1.32 -1.043 -3.01 -0.747 -3.748 0.326 -0.817 0.568 -0.541 0.616 0.701 0.043 1.127 0.611 2.582 1.262 3.233 0.651 0.651 0.952 1.415 0.668 1.698 -0.283 0.283 -1.093 -0.565 -1.8 -1.885 z m -106.05 -0.49 c 0 -0.491 0.675 -1.152 1.5 -1.469 0.985 -0.378 1.5 -1.939 1.5 -4.548 0 -2.185 0.45 -4.25 1 -4.59 1.703 -1.053 1.115 -2.374 -1.75 -3.928 -1.513 -0.821 -2.3 -1.507 -1.75 -1.525 0.55 -0.018 2.259 0.797 3.799 1.812 1.539 1.015 4.01 1.695 5.5 1.512 2.695 -0.333 2.695 -0.331 0.201 0.464 -1.718 0.548 -2.393 1.39 -2.158 2.689 0.188 1.04 -0.203 3.542 -0.869 5.559 -0.939 2.846 -1.632 3.557 -3.092 3.176 -1.035 -0.271 -1.881 0.011 -1.881 0.625 0 0.614 -0.45 1.117 -1 1.117 -0.55 0 -1 -0.402 -1 -0.893 z m 6.82 -7.279 c -0.471 -3.201 -2.82 -3.544 -2.82 -0.412 0 1.681 0.549 2.583 1.57 2.583 1.042 0 1.462 -0.729 1.25 -2.172 z m 111.55 0.511 c -0.926 -3.991 -0.887 -4.395 0.273 -2.809 1.126 1.539 1.984 7.469 1.081 7.469 -0.15 0 -0.759 -2.097 -1.354 -4.66 z m 4.226 1.41 c -0.753 -1.787 -1.758 -4.563 -2.234 -6.168 -0.975 -3.289 -3.365 -4.691 -3.365 -1.974 0 1.593 -0.127 1.614 -1.25 0.198 -0.688 -0.867 -1.925 -1.855 -2.75 -2.196 -0.825 -0.341 -0.265 -0.456 1.244 -0.255 1.516 0.202 3.252 -0.248 3.88 -1 0.625 -0.753 2.904 -2.363 5.064 -3.577 3.294 -1.851 3.636 -2.323 2.12 -2.921 -1.596 -0.63 -1.61 -0.721 -0.117 -0.783 3.093 -0.129 2.981 1.925 -0.201 3.689 -6.01 3.33 -6.531 3.884 -5.198 5.49 1.233 1.486 5.26 12.751 4.558 12.751 -0.21 0 -0.998 -1.463 -1.751 -3.25 z m -19.559 -2.174 c -0.733 -1.37 -1.015 -3.54 -0.649 -4.999 0.724 -2.885 -1 -3.461 -4.266 -1.423 -1.46 0.912 -2.343 0.807 -4.209 -0.5 -1.299 -0.91 -1.901 -1.654 -1.339 -1.654 0.562 0 1.574 0.551 2.247 1.225 0.967 0.967 1.639 0.967 3.186 0 1.079 -0.674 2.83 -1.225 3.892 -1.225 1.062 0 2.08 -0.338 2.264 -0.75 0.183 -0.412 1.908 -1.79 3.833 -3.06 l 3.5 -2.31 l -3.25 2.883 c -3.956 3.509 -4.01 3.989 -0.5 4.521 2.535 0.384 2.494 0.428 -0.531 0.566 -3.851 0.176 -4.984 2.174 -3.313 5.843 1.516 3.328 0.822 4.04 -0.866 0.883 z m -26.04 -2.161 c -5.098 -2.423 -6.152 -2.566 -14.412 -1.966 -7.975 0.58 -8.777 0.485 -7.628 -0.9 0.707 -0.852 2.227 -1.548 3.379 -1.548 1.152 0 3.909 -0.613 6.128 -1.363 11.511 -3.89 10.241 -3.901 17.422 0.145 3.629 2.045 7.451 4.168 8.493 4.718 3.339 1.763 2.254 2.993 -2.882 3.264 -3.717 0.196 -6.411 -0.407 -10.5 -2.35 z m -44 -1.146 c 1.375 -0.253 3.175 -0.979 4 -1.614 1.305 -1 1.322 -0.927 0.128 0.596 -0.757 0.965 -2.552 1.689 -4 1.614 l -2.628 -0.136 l 2.5 -0.46 z m 8.364 -3.774 c 3.647 -1.902 4.573 -1.914 2.077 -0.026 -1.068 0.808 -2.616 1.48 -3.441 1.494 -0.825 0.014 -0.211 -0.647 1.364 -1.468 z m 10.95 -2.249 c 0.998 -1.125 2.798 -2.293 4 -2.596 2.156 -0.543 2.159 -0.53 0.185 0.974 -1.1 0.838 -2.9 2.01 -4 2.596 -1.947 1.044 -1.952 1.018 -0.185 -0.974 z m 36.19 -0.234 c -0.35 -0.567 0.051 -0.735 0.941 -0.393 1.732 0.665 2.049 1.382 0.611 1.382 -0.518 0 -1.216 -0.445 -1.552 -0.989 z m -24.507 -4.725 c 0.825 -0.305 2.175 -1.057 3 -1.671 1.303 -0.97 1.32 -0.886 0.128 0.634 -0.755 0.963 -2.105 1.714 -3 1.671 -1.361 -0.066 -1.382 -0.17 -0.128 -0.634 z m 53 -0.019 c 1.375 -0.253 3.175 -0.979 4 -1.614 1.305 -1 1.322 -0.927 0.128 0.596 -0.757 0.965 -2.552 1.689 -4 1.614 l -2.628 -0.136 l 2.5 -0.46 z m -47.19 -2.951 c 0.722 -0.289 1.584 -0.253 1.917 0.079 0.332 0.332 -0.258 0.569 -1.313 0.525 -1.165 -0.048 -1.402 -0.285 -0.604 -0.604 z" fill="#f6cca9"/><path d="m 105.83 167.19 c -0.522 -0.503 -2.075 -1.117 -3.45 -1.364 l -2.5 -0.448 l 2.628 -0.136 c 1.445 -0.075 3.188 0.539 3.872 1.364 1.361 1.64 0.973 2.052 -0.55 0.585 z m 4.838 -0.284 c 0.667 -0.424 2.562 -0.77 4.212 -0.77 1.65 0 3.546 0.347 4.212 0.77 0.667 0.424 -1.229 0.77 -4.212 0.77 -2.984 0 -4.879 -0.347 -4.212 -0.77 z m -14.593 -4.333 c -1.543 -1.358 -2.409 -2.468 -1.924 -2.468 0.485 0 1.938 1.125 3.23 2.5 2.989 3.181 2.328 3.165 -1.306 -0.032 z m -7.507 -4.968 c -1.196 -1.375 -1.778 -2.5 -1.295 -2.5 0.483 0 1.616 1.125 2.516 2.5 0.901 1.375 1.484 2.5 1.295 2.5 -0.188 0 -1.321 -1.125 -2.516 -2.5 z m 58.31 -2.5 c 2.709 -2.75 5.15 -5 5.425 -5 0.275 0 -1.716 2.25 -4.425 5 -2.709 2.75 -5.15 5 -5.425 5 -0.275 0 1.716 -2.25 4.425 -5 z m -66.58 -2.75 l -2.424 -2.75 l 3 2.5 c 1.65 1.375 3.188 2.613 3.417 2.75 0.229 0.137 -0.03 0.25 -0.576 0.25 -0.546 0 -2.083 -1.238 -3.417 -2.75 z m 72.08 -4.77 c 0 -0.183 1.395 -1.029 3.1 -1.88 2.344 -1.169 2.824 -1.213 1.967 -0.181 -1.021 1.23 -5.068 2.876 -5.068 2.061 z m 26.08 -4.063 c 0.048 -1.165 0.285 -1.402 0.604 -0.604 0.289 0.722 0.253 1.584 -0.079 1.917 -0.332 0.332 -0.569 -0.258 -0.525 -1.313 z m -116.33 -1.122 c 1.237 -0.238 3.263 -0.238 4.5 0 1.237 0.238 0.225 0.433 -2.25 0.433 -2.475 0 -3.487 -0.195 -2.25 -0.433 z m 9.5 -0.866 c 1.513 -0.821 2.75 -2.168 2.75 -2.995 0 -0.827 0.61 -2.5 1.355 -3.718 0.745 -1.218 1.901 -4.795 2.568 -7.948 0.667 -3.153 1.632 -5.992 2.145 -6.309 0.513 -0.317 0.932 -1.85 0.932 -3.406 0 -3.089 3.906 -8.907 3.967 -5.909 0.018 0.904 -0.653 1.906 -1.491 2.228 -1.077 0.413 -1.336 1.338 -0.881 3.147 0.432 1.723 0.091 3.172 -1.041 4.424 -0.927 1.024 -1.829 3.419 -2.01 5.322 -0.177 1.903 -1.156 5.21 -2.176 7.348 -1.02 2.138 -1.914 4.225 -1.987 4.638 -0.073 0.412 -0.189 1.128 -0.258 1.589 -0.069 0.462 -1.271 1.362 -2.672 2 -3.627 1.653 -4.474 1.363 -1.203 -0.411 z m 100.25 -5.428 c -0.853 -1.65 -1.245 -3 -0.871 -3 0.374 0 -0.007 -0.787 -0.848 -1.75 -1.825 -2.09 -4.225 -9.139 -3.394 -9.97 0.323 -0.323 -0.302 -2.023 -1.387 -3.78 -1.085 -1.756 -1.736 -3.43 -1.446 -3.721 0.29 -0.29 -0.42 -2.134 -1.579 -4.097 -1.615 -2.737 -1.866 -4.02 -1.076 -5.495 0.567 -1.059 0.746 -2.209 0.399 -2.557 -0.347 -0.347 -0.118 -0.631 0.51 -0.631 0.729 0 0.93 1.058 0.557 2.924 -0.377 1.886 -0.013 3.74 1.025 5.222 0.885 1.264 1.61 3.233 1.61 4.376 0 1.143 0.486 2.563 1.079 3.157 0.594 0.594 1.504 3.046 2.023 5.45 0.873 4.04 1.995 6.935 5.473 14.12 1.813 3.745 -0.131 3.511 -2.076 -0.25 z m -110.29 -4.399 c 0.709 -0.77 1.447 -1.249 1.64 -1.067 0.593 0.563 -0.91 2.466 -1.949 2.466 -0.539 0 -0.4 -0.63 0.309 -1.399 z m 88.19 -0.851 l -1.905 -2.25 l 2.25 1.905 c 2.114 1.79 2.705 2.595 1.905 2.595 -0.19 0 -1.202 -1.012 -2.25 -2.25 z m -16.459 -3.5 l -3.446 -3.75 l 3.75 3.446 c 3.49 3.208 4.21 4.054 3.446 4.054 -0.167 0 -1.855 -1.688 -3.75 -3.75 z m 53.05 0.45 c 0 -1.265 -0.563 -2.867 -1.25 -3.559 -1 -1.01 -0.903 -1.127 0.5 -0.593 1.11 0.423 1.75 1.724 1.75 3.559 0 1.591 -0.225 2.893 -0.5 2.893 -0.275 0 -0.5 -1.035 -0.5 -2.3 z m -124.79 -0.301 c -0.709 -0.77 -0.848 -1.399 -0.309 -1.399 1.038 0 2.542 1.902 1.949 2.466 -0.193 0.183 -0.93 -0.297 -1.64 -1.067 z m 0.492 -5.099 c 1.211 -0.235 2.494 -1.344 2.849 -2.464 0.729 -2.297 -0.906 -4.69 -1.998 -2.923 -0.37 0.598 -1.127 1.087 -1.684 1.087 -0.557 0 -0.294 -0.719 0.585 -1.597 0.878 -0.878 2.261 -1.343 3.071 -1.031 3.182 1.221 0.747 7.711 -2.811 7.492 l -2.215 -0.136 l 2.203 -0.427 z m 67.46 -1.3 c 0 -1.375 0.227 -1.938 0.504 -1.25 0.277 0.688 0.277 1.813 0 2.5 -0.277 0.688 -0.504 0.125 -0.504 -1.25 z m 54.45 -0.422 c 0.43 -1.121 -0.076 -2.217 -1.477 -3.198 -1.493 -1.045 -2.131 -2.554 -2.131 -5.03 0 -1.946 -0.739 -4.958 -1.643 -6.693 -3.225 -6.192 -3.233 -6.251 -1.108 -7.578 1.66 -1.037 1.782 -1.443 0.648 -2.162 -1.189 -0.753 -1.186 -0.887 0.024 -0.9 0.782 -0.008 2.178 -0.7 3.103 -1.537 1.137 -1.029 2.381 -1.263 3.842 -0.723 2.062 0.763 2.01 0.883 -1.103 2.67 -1.795 1.029 -4.046 2.545 -5 3.37 -1.654 1.425 -1.654 1.565 0 2.821 1.068 0.811 1.257 1.334 0.491 1.353 -0.688 0.017 -1.25 0.53 -1.25 1.139 0 0.609 0.675 0.848 1.5 0.531 1.055 -0.405 1.501 0.082 1.504 1.643 0.002 1.22 0.902 3.692 2 5.493 1.098 1.801 1.996 4.073 1.996 5.05 0 0.977 0.454 2.312 1.01 2.967 0.555 0.655 0.708 0.974 0.342 0.709 -0.366 -0.266 -1.281 0.027 -2.031 0.65 -1.084 0.9 -1.23 0.782 -0.711 -0.572 z m 0.391 -5.02 c 0 -1.593 -1.814 -3.078 -2.69 -2.202 -0.823 0.823 0.462 3.643 1.659 3.643 0.567 0 1.031 -0.648 1.031 -1.441 z m -1.029 -20.52 c 0.809 -0.512 1.136 -1.265 0.726 -1.675 -0.41 -0.41 -1.506 0.016 -2.435 0.946 -1.807 1.807 -0.725 2.269 1.709 0.73 z m -71.792 19.74 c -0.653 -0.653 -3.323 -1.52 -5.933 -1.925 l -4.745 -0.737 l 5.309 0.3 c 4.824 0.273 8.323 1.784 7.06 3.049 -0.275 0.275 -1.035 -0.034 -1.688 -0.688 z m -47.18 -6.362 c 0 -3.133 2.348 -2.79 2.82 0.412 0.212 1.442 -0.208 2.172 -1.25 2.172 -1.021 0 -1.57 -0.903 -1.57 -2.583 z m 1.683 -0.604 c -0.319 -0.798 -0.556 -0.561 -0.604 0.604 -0.043 1.054 0.193 1.645 0.525 1.313 0.332 -0.332 0.368 -1.195 0.079 -1.917 z m 80.32 1.797 c 0 -0.215 1.543 -0.571 3.43 -0.791 1.886 -0.22 3.21 -0.044 2.941 0.391 -0.484 0.783 -6.371 1.153 -6.371 0.4 z m -12 -3.609 c -1.925 -1.054 -3.05 -1.916 -2.5 -1.916 0.55 0 2.575 0.862 4.5 1.916 1.925 1.054 3.05 1.916 2.5 1.916 -0.55 0 -2.575 -0.862 -4.5 -1.916 z m -40.32 0.304 c 1.198 -0.233 2.715 -1.072 3.372 -1.864 0.657 -0.792 1.95 -1.44 2.873 -1.44 0.923 0 2.274 -0.563 3 -1.25 1.069 -1.01 1.238 -0.961 0.873 0.25 -0.249 0.825 -1.681 1.645 -3.184 1.822 -1.503 0.177 -2.979 0.965 -3.28 1.75 -0.305 0.795 -1.719 1.368 -3.191 1.292 -2.248 -0.116 -2.318 -0.199 -0.466 -0.56 z m -10.677 -1.205 c 0 -1.038 1.902 -2.542 2.466 -1.949 0.183 0.193 -0.297 0.93 -1.067 1.64 -0.77 0.709 -1.399 0.848 -1.399 0.309 z m 29.571 -0.67 c -0.864 -0.864 -1.571 -1.961 -1.571 -2.437 0 -0.476 -1.463 -1.059 -3.25 -1.296 -2.604 -0.345 -2.424 -0.419 0.907 -0.373 3.02 0.042 5.211 -0.704 8 -2.718 3.682 -2.659 3.725 -2.666 1.03 -0.183 -2.476 2.281 -2.605 2.672 -1.077 3.259 0.955 0.367 3.857 -0.087 6.448 -1.01 2.591 -0.92 5.776 -1.643 7.077 -1.606 2.409 0.069 -4.814 2.528 -10.634 3.621 -1.65 0.31 -3.606 1.048 -4.347 1.64 -1.099 0.879 -1.01 1.211 0.5 1.804 1.582 0.623 1.606 0.737 0.168 0.797 -0.923 0.039 -2.386 -0.637 -3.25 -1.501 z m 9.241 -0.112 c 0.722 -0.289 1.584 -0.253 1.917 0.079 0.332 0.332 -0.258 0.569 -1.313 0.525 -1.165 -0.048 -1.402 -0.285 -0.604 -0.604 z m 25.695 -0.305 c -0.35 -0.567 0.051 -0.735 0.941 -0.393 1.732 0.665 2.049 1.382 0.611 1.382 -0.518 0 -1.216 -0.445 -1.552 -0.989 z m -83.01 -2.01 c -1.65 -1.093 -2.55 -1.98 -2 -1.971 1 0.016 6.44 3.913 5.5 3.942 -0.275 0.009 -1.85 -0.878 -3.5 -1.971 z m 6.287 1.179 c -0.942 -0.374 -1.392 -1.13 -1 -1.68 1.671 -2.342 8.566 -1.628 9.572 0.992 0.455 1.185 -0.219 1.494 -3.14 1.438 -2.045 -0.039 -4.49 -0.376 -5.432 -0.75 z m 6.713 -1.179 c -0.34 -0.55 -1.716 -1 -3.059 -1 -1.343 0 -2.441 0.45 -2.441 1 0 0.55 1.377 1 3.059 1 1.785 0 2.802 -0.417 2.441 -1 z m 76.17 1.333 c -1.398 -1.398 -0.591 -2.515 0.915 -1.266 1.307 1.084 1.958 1.078 3.75 -0.038 1.977 -1.231 2.047 -1.203 0.796 0.31 -1.394 1.687 -4.248 2.206 -5.461 0.994 z m -15.167 -4.401 c -1.65 -1.057 -2.487 -1.924 -1.861 -1.927 0.627 -0.003 2.202 0.88 3.5 1.961 2.973 2.477 2.258 2.462 -1.639 -0.035 z m 26.5 1.103 c 0 -0.531 1.012 -1.504 2.25 -2.164 2.01 -1.069 2.108 -1.026 0.938 0.392 -1.139 1.381 -0.94 1.647 1.5 2.01 2.338 0.351 2.18 0.448 -0.938 0.572 -2.063 0.082 -3.75 -0.284 -3.75 -0.815 z m -100.19 -2.718 c 0.722 -0.289 1.584 -0.253 1.917 0.079 0.332 0.332 -0.258 0.569 -1.313 0.525 -1.165 -0.048 -1.402 -0.285 -0.604 -0.604 z m 81.06 -1.067 c -1.244 -1.586 -1.208 -1.621 0.378 -0.378 1.666 1.306 2.195 2.128 1.372 2.128 -0.208 0 -0.995 -0.787 -1.75 -1.75 z m -5.372 -2.25 c -0.34 -0.55 -2.729 -1.079 -5.309 -1.175 l -4.691 -0.175 l 4.249 -0.383 c 2.765 -0.249 5.03 0.161 6.473 1.175 1.223 0.857 1.7 1.557 1.06 1.557 -0.64 0 -1.442 -0.45 -1.782 -1 z m 31.25 0.338 c 0.688 -0.277 1.813 -0.277 2.5 0 0.688 0.277 0.125 0.504 -1.25 0.504 -1.375 0 -1.938 -0.227 -1.25 -0.504 z" fill="#dcaf9b"/><path d="m 108.41 163.15 c -0.809 -0.512 -1.136 -1.266 -0.726 -1.675 0.41 -0.41 1.506 0.016 2.435 0.946 1.807 1.807 0.725 2.269 -1.709 0.73 z m 12.53 -3.571 c -1.068 -0.808 -3.135 -1.468 -4.595 -1.468 -1.46 0 -3.471 -0.903 -4.469 -2.01 -2.396 -2.648 -1.579 -3.269 1.916 -1.456 1.55 0.804 3.391 1.462 4.09 1.462 0.699 0 2.56 0.672 4.136 1.494 1.575 0.822 3.539 1.504 4.364 1.515 0.825 0.012 2.175 0.458 3 0.991 1.104 0.713 0.443 0.965 -2.5 0.953 -2.2 -0.009 -4.874 -0.677 -5.941 -1.485 z m -22.559 -1.468 c 0 -0.55 0.45 -1 1 -1 0.55 0 1 0.45 1 1 0 0.55 -0.45 1 -1 1 -0.55 0 -1 -0.45 -1 -1 z m 35.948 -3.563 c -1.188 -1.431 -1.08 -1.587 0.89 -1.283 1.233 0.19 2.258 0.785 2.277 1.321 0.061 1.683 -1.756 1.661 -3.167 -0.038 z m -9.198 -3.554 c -2.063 -1.044 -3.75 -2.345 -3.75 -2.891 0 -0.546 -0.675 -0.992 -1.5 -0.992 -0.825 0 -1.5 -0.436 -1.5 -0.969 0 -1.27 2.425 -0.318 8.25 3.239 6.843 4.179 5.795 5.306 -1.5 1.613 z m -24.291 -0.95 c -0.363 -0.587 -0.453 -1.272 -0.202 -1.524 0.697 -0.697 3.743 0.683 3.743 1.697 0 1.252 -2.743 1.117 -3.541 -0.174 z m 41.46 -2.085 c -0.994 -1.858 -0.92 -2.063 0.547 -1.5 0.934 0.358 2.111 0.652 2.616 0.652 0.505 0 0.918 0.675 0.918 1.5 0 2.248 -2.766 1.806 -4.081 -0.652 z m -54.64 -3.107 c -2.746 -1.913 -2.749 -1.928 -0.279 -1.272 1.375 0.366 3.998 1.045 5.829 1.51 4.707 1.195 5.074 1.993 0.841 1.834 -1.987 -0.075 -4.863 -1.01 -6.392 -2.072 z m 20.865 0.649 c -1.191 -1.346 -0.957 -1.494 1.923 -1.212 1.803 0.177 3.464 0.884 3.689 1.571 0.591 1.8 -3.96 1.509 -5.612 -0.359 z m 27.906 -0.297 c -1.301 -2.432 -1.32 -3.094 -0.085 -3.094 1.459 0 3.22 3.768 2.088 4.467 -0.524 0.324 -1.425 -0.294 -2 -1.374 z m -57.38 -1.76 c -1.151 -1.151 -0.728 -2.333 0.833 -2.333 0.825 0 1.5 0.675 1.5 1.5 0 1.562 -1.183 1.984 -2.333 0.833 z m 44.33 -4.318 c -2.475 -1.66 -5.063 -2.807 -5.75 -2.549 -0.688 0.259 -1.25 0.034 -1.25 -0.498 0 -0.533 0.675 -0.969 1.5 -0.969 1 0 1.5 -1 1.5 -3 0 -3.951 1.432 -3.799 7.5 0.797 3.617 2.739 5 4.467 5 6.245 0 3.574 -3.147 3.564 -8.5 -0.026 z m 5.298 -0.647 c 0.347 -0.347 0.181 -1.472 -0.369 -2.5 -1.132 -2.116 -4.93 -2.554 -4.93 -0.569 0 2.596 3.654 4.712 5.298 3.069 z m 23.2 2.253 c 1.89 -1.473 1.736 -1.56 -2.817 -1.59 -3.913 -0.026 -5.574 -0.642 -8.852 -3.282 -9.655 -7.777 -12.66 -11.18 -12.999 -14.719 -0.243 -2.535 -1.058 -3.874 -3.03 -4.976 -2.501 -1.397 -2.918 -1.345 -5.71 0.719 -2.611 1.93 -4.261 2.226 -12.417 2.226 -7.791 0 -9.829 0.333 -11.869 1.938 -3.467 2.727 -7.393 3.581 -8.092 1.76 -1.024 -2.669 0.487 -9.845 2.179 -10.348 0.884 -0.263 3.071 -1.195 4.86 -2.073 2.611 -1.28 3.755 -1.367 5.797 -0.436 1.399 0.638 4.21 1.166 6.247 1.175 2.037 0.009 6.363 0.641 9.615 1.406 3.252 0.765 6.434 1.191 7.07 0.946 2.385 -0.915 18.05 7.645 22.517 12.306 1.513 1.578 -6.148 -2.955 -9.08 -5.372 -0.868 -0.716 -2.556 -1.302 -3.75 -1.302 -6.03 0 1.226 10.06 10.375 14.392 8.904 4.216 13.201 3.285 9.343 -2.024 l -2.084 -2.868 l 2.651 2.868 c 3.315 3.586 3.341 9.89 0.044 10.464 -2 0.348 -2 0.348 0 -1.21 z m -58.47 -21.371 c 1.649 -1.166 5.212 -1.935 10.696 -2.307 4.523 -0.307 8.543 -0.877 8.933 -1.267 1.515 -1.515 -1.736 -2.88 -9.01 -3.782 -6.49 -0.806 -8.128 -0.685 -11.354 0.834 -3.712 1.748 -5 3.997 -3.913 6.831 0.721 1.879 1.639 1.818 4.643 -0.308 z m 66.973 17.395 c 0 -1.323 4.367 -6.646 5.452 -6.646 0.301 0 0.548 1.098 0.548 2.441 0 1.343 0.45 2.719 1 3.059 2.18 1.347 0.797 2.5 -3 2.5 -2.697 0 -4 -0.441 -4 -1.354 z m -81.914 -4.146 c 0.104 -1.894 1.771 -5.084 1.829 -3.5 0.03 0.825 -0.381 2.175 -0.914 3 -0.533 0.825 -0.945 1.05 -0.914 0.5 z m 77.16 -5.75 c 0.229 -0.688 1.165 -1.395 2.08 -1.573 1.16 -0.225 1.481 0.153 1.06 1.25 -0.709 1.849 -3.752 2.161 -3.14 0.323 z m -72.69 -7.04 c 0.376 -0.986 0.935 -1.541 1.243 -1.233 0.308 0.308 0.001 1.115 -0.683 1.793 -0.988 0.98 -1.102 0.865 -0.56 -0.56 z m 59.838 -3.185 c -4.351 -3.974 -4.64 -4.48 -2.567 -4.5 1.43 -0.013 3.536 1.334 5.434 3.478 1.704 1.925 3.717 3.5 4.474 3.5 0.756 0 1.097 0.45 0.757 1 -1.159 1.876 -3.192 1 -8.097 -3.478 z m 13.41 0.795 c 0.722 -0.289 1.584 -0.253 1.917 0.079 0.332 0.332 -0.258 0.569 -1.313 0.525 -1.165 -0.048 -1.402 -0.285 -0.604 -0.604 z m 7.646 -0.383 c -0.363 -0.587 -0.445 -1.281 -0.183 -1.543 0.262 -0.262 0.743 0.218 1.069 1.067 0.676 1.762 0.1 2.072 -0.886 0.477 z m -28.961 -6.274 c -1.574 -0.52 -2.44 -1.474 -2.271 -2.5 0.228 -1.385 -0.84 -1.708 -6.458 -1.954 -3.702 -0.162 -7.541 0.138 -8.53 0.668 -1.02 0.546 -4.169 0.656 -7.269 0.254 l -5.47 -0.709 l 3.28 -1.75 c 3 -1.601 3.416 -1.614 4.874 -0.156 1 1 2.572 1.402 4.22 1.079 9.86 -1.931 12.179 -1.839 17.915 0.709 3.141 1.396 8.294 2.851 11.449 3.233 4.942 0.599 5.831 0.451 6.412 -1.063 0.416 -1.083 0.073 -2.198 -0.893 -2.905 -1.276 -0.933 -0.794 -1.163 2.588 -1.234 3.21 -0.067 3.587 0.073 1.656 0.615 l -2.5 0.702 l 2.25 0.744 c 1.238 0.409 2.25 1.148 2.25 1.641 0 3.043 -16.624 4.901 -23.502 2.627 z m 12.502 -7.659 c -0.901 -0.582 -1.025 -0.975 -0.309 -0.985 0.655 -0.008 1.469 0.435 1.809 0.985 0.767 1.242 0.421 1.242 -1.5 0 z m -6.128 -3.75 c -1.244 -1.586 -1.208 -1.621 0.378 -0.378 0.963 0.755 1.75 1.542 1.75 1.75 0 0.823 -0.821 0.293 -2.128 -1.372 z m -8.872 -2.204 c 0.825 -0.558 2.363 -1.022 3.417 -1.03 2.558 -0.02 1.76 0.552 -1.917 1.374 -2.191 0.49 -2.595 0.397 -1.5 -0.344 z" fill="#f4a46c"/><path d="m 118.19 166.58 c -0.289 -0.289 -2.111 -0.585 -4.05 -0.658 -3.993 -0.15 -8.405 -2.962 -7.343 -4.68 0.954 -1.544 3.681 -1.379 5.982 0.363 1.868 1.414 3.603 1.192 3.603 -0.461 0 -0.464 -1.237 -1.355 -2.75 -1.98 -1.513 -0.625 -4.55 -2.208 -6.75 -3.517 -2.2 -1.309 -4.739 -2.416 -5.643 -2.461 -0.904 -0.044 -1.902 -0.756 -2.219 -1.581 -0.317 -0.825 -1.688 -1.5 -3.048 -1.5 -1.36 0 -2.75 -0.45 -3.09 -1 -0.34 -0.55 -1.69 -1 -3 -1 -1.31 0 -2.66 -0.45 -3 -1 -0.34 -0.55 -1.854 -1 -3.365 -1 -1.511 0 -4.186 -1.062 -5.945 -2.36 l -3.198 -2.36 l 2.64 -2.64 c 1.452 -1.452 2.117 -2.64 1.478 -2.64 -0.801 0 -0.687 -0.918 0.364 -2.95 0.839 -1.623 1.526 -4.124 1.526 -5.559 0 -1.484 0.431 -2.342 1 -1.991 0.55 0.34 1.069 0.029 1.152 -0.691 0.084 -0.72 0.208 -1.759 0.276 -2.309 0.068 -0.55 0.476 -1.563 0.907 -2.25 0.43 -0.688 0.504 -1.7 0.165 -2.25 -0.34 -0.55 -0.113 -1 0.504 -1 0.617 0 1.042 -0.787 0.944 -1.75 -0.356 -3.495 0.098 -4.25 2.552 -4.25 1.375 0 3.29 -0.787 4.255 -1.75 1.987 -1.981 3.524 -2.063 7.56 -0.406 3.556 1.46 3.984 1.449 3.041 -0.076 -0.939 -1.519 -1.233 -4.746 -0.439 -4.827 0.321 -0.032 2.336 -0.192 4.48 -0.355 l 3.897 -0.296 l -2.897 1.567 l -2.897 1.567 l 5.47 0.705 c 3.01 0.388 6.241 0.292 7.184 -0.212 2.343 -1.254 3.777 -1.108 1.596 0.163 -0.963 0.561 -1.75 1.731 -1.75 2.6 0 1.227 0.732 1.462 3.266 1.051 2.313 -0.375 3.95 0.024 5.611 1.369 1.29 1.044 2.97 1.899 3.734 1.899 0.764 0 2.177 0.71 3.139 1.577 0.963 0.867 5.01 4.05 9 7.07 3.988 3.02 7.25 5.718 7.25 5.991 0 0.477 -2.101 -0.986 -9.881 -6.884 -4.619 -3.501 -16.12 -8.971 -17.636 -8.388 -0.638 0.245 -3.82 -0.181 -7.07 -0.946 -3.252 -0.765 -7.578 -1.398 -9.615 -1.406 -2.037 -0.009 -4.848 -0.537 -6.247 -1.175 -2.042 -0.93 -3.186 -0.844 -5.797 0.436 -1.789 0.877 -3.976 1.81 -4.86 2.073 -1.692 0.503 -3.203 7.678 -2.179 10.348 0.699 1.822 4.624 0.968 8.092 -1.76 2.041 -1.605 4.078 -1.938 11.869 -1.938 8.156 0 9.806 -0.296 12.417 -2.226 2.791 -2.064 3.208 -2.116 5.71 -0.719 1.972 1.102 2.788 2.441 3.03 4.976 0.339 3.539 3.343 6.942 12.999 14.719 3.278 2.64 4.939 3.256 8.852 3.282 4.553 0.03 4.708 0.117 2.817 1.59 -2 1.558 -2 1.558 0 1.21 3.03 -0.527 3.257 -6.3 0.405 -10.235 -2.178 -3.01 -2.181 -3.041 -0.1 -1.215 1.179 1.035 2.411 2.723 2.737 3.75 0.326 1.027 1.238 1.868 2.026 1.868 2.384 0 1.607 -3.84 -1.141 -5.64 -2.512 -1.646 -2.623 -2.493 -0.88 -6.747 0.71 -1.733 0.413 -1.834 -3.637 -1.229 -4.252 0.635 -4.606 0.479 -9.893 -4.362 -3.105 -2.843 -6.438 -5.02 -7.683 -5.02 -1.321 0 -2.452 -0.799 -2.834 -2 -0.349 -1.1 -1.449 -2 -2.445 -2 -0.996 0 -2.395 -0.705 -3.11 -1.566 -1.152 -1.388 -0.795 -1.53 3.128 -1.25 3.486 0.249 4.369 0.672 4.151 1.99 -0.371 2.249 2.195 2.932 12.497 3.328 6.481 0.249 9.181 -0.047 10.942 -1.201 3.07 -2.01 2.95 -2.806 -0.649 -4.297 -1.713 -0.71 -2.701 -1.7 -2.317 -2.322 0.466 -0.754 0.792 -0.718 1.071 0.116 0.22 0.66 1.614 1.201 3.098 1.201 2.069 0 2.957 0.688 3.812 2.952 0.63 1.669 0.721 3.083 0.209 3.253 -0.498 0.166 0.156 1.875 1.453 3.798 1.297 1.923 2.164 4.059 1.927 4.747 -0.237 0.688 0.007 1.25 0.541 1.25 0.535 0 1.285 1.688 1.668 3.75 0.383 2.063 1.445 4.615 2.361 5.672 0.916 1.057 1.103 1.593 0.415 1.191 -1.876 -1.097 -1.506 0.196 0.75 2.618 2.554 2.742 2.516 3.155 -0.44 4.737 -1.55 0.83 -4.194 1.103 -7.25 0.749 -4.178 -0.484 -5.156 -0.229 -7.439 1.934 -2.409 2.282 -2.966 2.4 -6.659 1.406 -4.196 -1.13 -9.635 -4.914 -16.252 -11.307 -3.607 -3.485 -6.96 -4.882 -6.96 -2.9 0 1.326 10.977 10.503 16.204 13.547 5.391 3.139 6.988 6.258 4.235 8.272 -1.515 1.108 -2.193 1.068 -4.203 -0.25 -1.318 -0.864 -3.148 -1.278 -4.066 -0.92 -1.46 0.569 -1.374 0.891 0.689 2.574 3.687 3.01 2.149 5.345 -2.98 4.525 -2.249 -0.36 -5.369 -1.316 -6.934 -2.125 -3.063 -1.584 -5.954 -1.935 -5.929 -0.721 0.035 1.733 1.692 3.136 4.495 3.809 7.829 1.878 6.567 4.441 -2.186 4.441 -6.456 0 -6.55 0.039 -6.08 2.5 0.497 2.6 0.441 2.852 -0.437 1.975 z m -8.07 -4.165 c -0.93 -0.93 -2.026 -1.355 -2.435 -0.946 -0.41 0.41 -0.083 1.163 0.726 1.675 2.435 1.54 3.517 1.078 1.709 -0.73 z m 19.262 -2.31 c -0.825 -0.533 -2.175 -0.979 -3 -0.991 -0.825 -0.012 -2.789 -0.694 -4.364 -1.515 -1.575 -0.822 -3.436 -1.494 -4.136 -1.494 -0.699 0 -2.54 -0.658 -4.09 -1.462 -3.494 -1.813 -4.311 -1.191 -1.916 1.456 0.999 1.103 3.01 2.01 4.469 2.01 1.46 0 3.527 0.661 4.595 1.468 1.068 0.808 3.741 1.476 5.941 1.485 2.943 0.012 3.604 -0.24 2.5 -0.953 z m 8.115 -5.525 c -0.019 -0.536 -1.044 -1.131 -2.277 -1.321 -1.969 -0.304 -2.077 -0.148 -0.89 1.283 1.41 1.699 3.228 1.721 3.167 0.038 z m -16.11 -1.275 c 0 -1.413 -2.345 -3.2 -4.2 -3.2 -1.765 0 -2.45 2.02 -1.133 3.333 0.942 0.941 5.333 0.832 5.333 -0.133 z m 10 -0.614 c 0 -0.539 -8.978 -6.02 -11.25 -6.87 -0.963 -0.359 -1.75 -0.218 -1.75 0.315 0 0.533 0.675 0.969 1.5 0.969 0.825 0 1.5 0.446 1.5 0.992 0 0.546 1.688 1.847 3.75 2.891 3.634 1.84 6.25 2.553 6.25 1.703 z m -27 -2.479 c 0 -1.014 -3.046 -2.395 -3.743 -1.697 -0.251 0.251 -0.16 0.937 0.202 1.524 0.798 1.291 3.541 1.425 3.541 0.174 z m 30.46 -1.042 c 0.551 -0.891 -5.332 -6.07 -6.896 -6.07 -0.411 0 -1.892 -0.9 -3.29 -2 -4.193 -3.298 -8.642 -2.213 -4.621 1.128 2.843 2.362 11.791 7.71 13.04 7.793 0.655 0.044 1.451 -0.341 1.769 -0.855 z m 11.54 -0.565 c 0 -0.825 -0.413 -1.5 -0.918 -1.5 -0.505 0 -1.682 -0.293 -2.616 -0.652 -1.466 -0.563 -1.541 -0.358 -0.547 1.5 1.315 2.458 4.081 2.899 4.081 0.652 z m -49.28 -2.113 c -0.309 -0.309 -2.06 -0.943 -3.892 -1.407 -1.831 -0.465 -4.454 -1.144 -5.829 -1.51 -2.47 -0.657 -2.467 -0.642 0.279 1.272 2.409 1.679 10.966 3.17 9.442 1.646 z m 17.04 -0.637 c -0.226 -0.688 -1.886 -1.395 -3.689 -1.571 -2.88 -0.282 -3.114 -0.134 -1.923 1.212 1.652 1.868 6.203 2.159 5.612 0.359 z m 24.21 -1.811 c -0.951 -1.777 -2.968 -2.711 -2.968 -1.374 0 1.574 2.223 4.415 3.053 3.902 0.595 -0.368 0.563 -1.317 -0.085 -2.528 z m -56.968 -1.439 c 0 -0.825 -0.675 -1.5 -1.5 -1.5 -1.562 0 -1.984 1.183 -0.833 2.333 1.151 1.151 2.333 0.728 2.333 -0.833 z m 50.5 -3.458 c 0 -1.778 -1.383 -3.506 -5 -6.245 -6.068 -4.596 -7.5 -4.748 -7.5 -0.797 0 2 -0.5 3 -1.5 3 -0.825 0 -1.5 0.436 -1.5 0.969 0 0.533 0.563 0.757 1.25 0.498 0.688 -0.259 3.275 0.888 5.75 2.549 5.353 3.591 8.5 3.6 8.5 0.026 z m 36.5 -1.983 c 0 -0.518 -0.45 -1.219 -1 -1.559 -0.55 -0.34 -1 -1.716 -1 -3.059 0 -3.093 -0.519 -3.063 -3.548 0.205 -3.603 3.887 -3.179 5.354 1.548 5.354 2.2 0 4 -0.423 4 -0.941 z m -9.61 -10.632 c 0.421 -1.097 0.1 -1.475 -1.06 -1.25 -0.915 0.177 -1.851 0.885 -2.08 1.573 -0.612 1.839 2.431 1.526 3.14 -0.323 z m -7.89 -6.427 c 0.34 -0.55 -0.001 -1 -0.757 -1 -0.756 0 -2.769 -1.575 -4.474 -3.5 -1.898 -2.144 -4 -3.491 -5.434 -3.478 -2.072 0.02 -1.783 0.526 2.567 4.5 4.905 4.481 6.938 5.354 8.097 3.478 z m 7.229 -2.604 c -0.332 -0.332 -1.195 -0.368 -1.917 -0.079 -0.798 0.319 -0.561 0.556 0.604 0.604 1.054 0.043 1.645 -0.193 1.313 -0.525 z m -59.61 42.33 c -2.495 -2.495 -0.253 -5.906 2.422 -3.685 0.801 0.665 1.456 1.78 1.456 2.479 0 1.773 -2.526 2.558 -3.878 1.206 z m 1.878 -1.722 c 0 -0.55 -0.45 -1 -1 -1 -0.55 0 -1 0.45 -1 1 0 0.55 0.45 1 1 1 0.55 0 1 -0.45 1 -1 z m -12 -4.355 c 2.119 -2.102 5.5 -2.498 5.5 -0.645 0 0.987 -1.196 1.608 -3.5 1.817 -3.103 0.281 -3.33 0.148 -2 -1.171 z m 60.51 -50.634 c -0.35 -0.567 0.051 -0.735 0.941 -0.393 1.732 0.665 2.049 1.382 0.611 1.382 -0.518 0 -1.216 -0.445 -1.552 -0.989 z m -31.695 -2.695 c 0.722 -0.289 1.584 -0.253 1.917 0.079 0.332 0.332 -0.258 0.569 -1.313 0.525 -1.165 -0.048 -1.402 -0.285 -0.604 -0.604 z m 18.938 -4.01 c -0.963 -0.252 -1.75 -0.874 -1.75 -1.384 0 -1.413 1.606 -1.106 3 0.573 0.685 0.825 1.077 1.448 0.872 1.384 -0.205 -0.064 -1.16 -0.322 -2.122 -0.573 z" fill="#f39b65"/><path d="m 106.25 166.36 c -1.27 -1.619 -1.222 -1.64 0.628 -0.283 1.1 0.807 2.188 1.594 2.417 1.75 0.229 0.156 -0.053 0.283 -0.628 0.283 -0.574 0 -1.662 -0.787 -2.417 -1.75 z m 17.13 1.024 c 4.454 -0.516 13.931 -4.931 14.659 -6.828 0.305 -0.795 1.311 -1.446 2.236 -1.446 2.051 0 10.647 -8.676 11.532 -11.64 0.36 -1.205 1.704 -2.343 3.076 -2.606 1.341 -0.256 2.199 -0.081 1.909 0.39 -0.291 0.471 -1.191 0.856 -2 0.856 -0.81 0 -1.746 0.787 -2.081 1.75 -0.815 2.345 -10.455 12.25 -11.922 12.25 -0.639 0 -1.728 0.682 -2.419 1.515 -2.301 2.773 -11.01 6.491 -14.82 6.325 l -3.668 -0.16 z m -26.08 -5.02 l -2.424 -2.75 l 3 2.5 c 1.65 1.375 3.187 2.613 3.417 2.75 0.229 0.137 -0.03 0.25 -0.576 0.25 -0.546 0 -2.083 -1.238 -3.417 -2.75 z m -7.05 -4 c -1.193 -1.521 -1.176 -1.604 0.128 -0.634 0.825 0.614 2.175 1.366 3 1.671 1.255 0.465 1.234 0.568 -0.128 0.634 -0.895 0.043 -2.245 -0.709 -3 -1.671 z m -5.06 -3.933 c 0.722 -0.289 1.584 -0.253 1.917 0.079 0.332 0.332 -0.258 0.569 -1.313 0.525 -1.165 -0.048 -1.402 -0.285 -0.604 -0.604 z m -6.192 -4.317 c -2.036 -2.2 -3.345 -3.992 -2.911 -3.982 0.781 0.018 7.773 7.982 7.01 7.982 -0.218 0 -2.061 -1.8 -4.097 -4 z m -14.62 -4.314 l 4.5 -1.099 l -4.5 -0.643 l -4.5 -0.643 l 5.316 -0.15 c 2.924 -0.083 6.299 -0.613 7.5 -1.179 2.116 -0.997 2.114 -0.977 -0.078 0.63 -2.131 1.562 -2.16 1.737 -0.5 2.997 1.523 1.156 0.81 1.328 -5.237 1.262 l -7 -0.075 l 4.5 -1.099 z m 110.5 -0.686 c -0.34 -0.55 -4.304 -1.091 -8.809 -1.201 l -8.191 -0.201 l 7.845 -0.343 c 5.058 -0.221 8.353 0.079 9.274 0.844 2.122 1.761 2.965 0.204 1.042 -1.921 -0.913 -1.01 -1.661 -2.222 -1.661 -2.695 0 -0.473 0.9 0.106 2 1.287 1.1 1.181 2 2.841 2 3.689 0 1.714 -2.533 2.106 -3.5 0.542 z m 6.965 -2.056 c -0.765 -1.238 1.145 -2.903 3.358 -2.928 1.885 -0.022 0.988 3.397 -0.992 3.779 -0.905 0.174 -1.97 -0.208 -2.367 -0.85 z m -105.9 -6.237 c 0.376 -0.986 0.935 -1.541 1.243 -1.233 0.308 0.308 0.001 1.115 -0.683 1.793 -0.988 0.98 -1.102 0.865 -0.56 -0.56 z m -15.564 7.375 c 0 -0.208 0.685 -13.405 1.523 -14.1 1.273 -1.057 1.42 -0.995 0.893 0.378 -0.538 1.402 -2.416 14.843 -2.416 13.723 z m 126.02 -3.646 c -0.044 -0.727 1.147 -1.271 1.107 -4.894 -0.047 -4.294 -1.355 -11.729 -1.877 -12.11 -1.181 -0.873 -1.422 -1.626 -0.742 -2.319 2.01 -2.047 3.633 0.457 3.231 4.99 -0.235 2.656 -1.614 16.08 -1.719 14.337 z m -106.02 -17.436 c 0.589 -1.1 1.295 -2 1.57 -2 0.275 0 0.018 0.9 -0.57 2 -0.589 1.1 -1.295 2 -1.57 2 -0.275 0 -0.018 -0.9 0.57 -2 z m -20 -2.759 c 0 -2.11 3.612 -4.677 4.518 -3.211 0.336 0.544 0.327 1.884 -0.021 2.98 -0.792 2.494 -4.497 2.685 -4.497 0.232 z m 105.46 -0.307 c -0.363 -0.587 -0.445 -1.281 -0.183 -1.543 0.262 -0.262 0.743 0.218 1.069 1.067 0.676 1.762 0.1 2.072 -0.886 0.477 z m 15.886 -4.477 c -0.326 -0.849 -0.341 -1.794 -0.035 -2.1 0.876 -0.876 2.69 0.61 2.69 2.202 0 1.919 -1.908 1.845 -2.655 -0.102 z m -99.35 -0.339 c 0 -0.55 0.45 -1.278 1 -1.618 0.55 -0.34 1 -0.168 1 0.382 0 0.55 -0.45 1.278 -1 1.618 -0.55 0.34 -1 0.168 -1 -0.382 z m 80.56 -2.825 c -0.543 -1.425 -0.428 -1.54 0.56 -0.56 0.683 0.678 0.991 1.485 0.683 1.793 -0.308 0.308 -0.867 -0.247 -1.243 -1.233 z m -97.49 -3.876 c 0.048 -1.165 0.285 -1.402 0.604 -0.604 0.289 0.722 0.253 1.584 -0.079 1.917 -0.332 0.332 -0.569 -0.258 -0.525 -1.313 z m 19.07 -1.167 c -0.156 -3.39 1.098 -4.096 3.85 -2.169 1.185 0.83 1.042 0.922 -0.679 0.44 -1.811 -0.507 -2.25 -0.138 -2.6 2.185 -0.4 2.657 -0.428 2.634 -0.571 -0.455 z m 73.85 -3.128 c 0 -1.247 2.568 -3.221 3.273 -2.516 0.966 0.966 -0.379 3.394 -1.88 3.394 -0.766 0 -1.393 -0.395 -1.393 -0.878 z m 20 -0.122 c 0 -0.55 0.45 -1 1 -1 0.55 0 1 0.45 1 1 0 0.55 -0.45 1 -1 1 -0.55 0 -1 -0.45 -1 -1 z m -112.56 -2.468 c -1.068 -0.808 -2.729 -1.483 -3.691 -1.5 -3.524 -0.064 -1.631 -1.709 2.137 -1.856 3.965 -0.155 6.869 1.791 5.64 3.781 -0.871 1.41 -1.787 1.315 -4.086 -0.424 z m 2.059 -1.532 c -0.34 -0.55 -1.068 -1 -1.618 -1 -0.55 0 -0.722 0.45 -0.382 1 0.34 0.55 1.068 1 1.618 1 0.55 0 0.722 -0.45 0.382 -1 z m 4.5 2 c 0 -0.55 1.098 -1 2.441 -1 1.343 0 2.719 0.45 3.059 1 0.361 0.583 -0.656 1 -2.441 1 -1.682 0 -3.059 -0.45 -3.059 -1 z m 35 0 l -3.5 -0.737 l 3.75 -0.132 c 2.063 -0.072 3.75 0.318 3.75 0.868 0 0.55 -0.112 0.941 -0.25 0.868 -0.138 -0.072 -1.825 -0.463 -3.75 -0.868 z m 43.24 -0.325 c -1.242 -0.69 -2.955 -2.249 -3.807 -3.465 -0.851 -1.216 -2.367 -2.21 -3.369 -2.21 -1 0 -2.417 -0.787 -3.145 -1.75 -1.127 -1.489 -1.115 -1.563 0.078 -0.5 0.771 0.688 2.137 1.25 3.036 1.25 0.899 0 2.838 1.35 4.308 3 1.47 1.65 3.345 3 4.165 3 0.821 0 1.492 0.45 1.492 1 0 1.22 0.03 1.223 -2.759 -0.325 z m -32.424 -4.175 c 1.634 -1.375 4.054 -2.5 5.377 -2.5 1.323 0 2.972 -0.563 3.665 -1.25 1.01 -1 1.127 -0.903 0.593 0.5 -0.445 1.169 -1.741 1.75 -3.904 1.75 -1.968 0 -3.948 0.784 -5.05 2 -0.995 1.1 -2.225 2 -2.732 2 -0.507 0 0.415 -1.125 2.049 -2.5 z m 50.774 0 c 1.698 -2.592 6.418 -3.414 9.26 -1.613 2.144 1.359 -2.608 4.113 -7.097 4.113 h -3.801 z m 5.826 0.893 c 0.87 -0.334 1.582 -1.039 1.582 -1.566 0 -1.399 -5.271 -0.553 -5.756 0.923 -0.438 1.333 1.571 1.642 4.174 0.643 z m 6.844 -4.083 c 0.93 -0.93 2.026 -1.355 2.435 -0.946 0.41 0.41 0.083 1.163 -0.726 1.675 -2.435 1.54 -3.517 1.078 -1.709 -0.73 z m -47.993 -1 c 0.973 -0.254 2.323 -0.237 3 0.037 0.677 0.274 -0.119 0.481 -1.769 0.461 -1.65 -0.02 -2.204 -0.244 -1.231 -0.498 z" fill="#b5999a"/><path d="m 106.8 164.14 c -2.396 -2.44 -3.482 -2.869 -6.081 -2.405 -2.634 0.471 -3.45 0.131 -4.865 -2.029 -1.044 -1.593 -2.622 -2.595 -4.085 -2.595 -1.312 0 -2.385 -0.45 -2.385 -1 0 -0.55 0.873 -1 1.941 -1 2.273 0 3.673 -1.786 2.398 -3.061 -0.515 -0.515 -2.061 -0.277 -3.693 0.569 -2.667 1.384 -2.925 1.315 -5.206 -1.397 -1.32 -1.569 -3.659 -3.374 -5.198 -4.01 -1.539 -0.637 -3.352 -2.046 -4.03 -3.13 -1.57 -2.515 -0.708 -2.505 2.513 0.029 1.398 1.1 3.805 2 5.349 2 1.543 0 3.084 0.45 3.424 1 0.34 0.55 1.69 1 3 1 1.31 0 2.66 0.45 3 1 0.34 0.55 1.731 1 3.09 1 1.36 0 2.731 0.675 3.048 1.5 0.317 0.825 1.315 1.536 2.219 1.581 0.904 0.044 3.443 1.152 5.643 2.461 2.2 1.309 5.237 2.892 6.75 3.517 1.513 0.625 2.75 1.517 2.75 1.98 0 1.653 -1.735 1.875 -3.603 0.461 -1.044 -0.79 -2.658 -1.45 -3.588 -1.468 -2.85 -0.054 -3.239 2.135 -0.718 4.04 1.308 0.987 2.123 2.05 1.81 2.363 -0.313 0.313 -1.881 -0.768 -3.485 -2.402 z m -4.417 -5.514 c 0 -0.699 -0.655 -1.814 -1.456 -2.479 -2.675 -2.22 -4.917 1.191 -2.422 3.685 1.352 1.352 3.878 0.566 3.878 -1.206 z m 16.75 7.908 c -0.412 -0.416 -0.75 -1.581 -0.75 -2.59 0 -1.588 0.862 -1.833 6.441 -1.833 8.647 0 9.847 -2.576 2.069 -4.441 -2.803 -0.672 -4.459 -2.076 -4.495 -3.809 -0.025 -1.214 2.867 -0.862 5.929 0.721 1.565 0.809 4.685 1.766 6.934 2.125 5.128 0.82 6.667 -1.517 2.98 -4.525 -2.063 -1.683 -2.149 -2 -0.689 -2.574 0.918 -0.358 2.748 0.056 4.066 0.92 2.01 1.317 2.688 1.358 4.203 0.25 2.753 -2.01 1.156 -5.132 -4.235 -8.272 -5.227 -3.044 -16.204 -12.221 -16.204 -13.547 0 -1.982 3.353 -0.585 6.96 2.9 6.617 6.393 12.06 10.177 16.252 11.307 3.692 0.994 4.25 0.877 6.659 -1.406 2.283 -2.164 3.261 -2.418 7.439 -1.934 3.055 0.354 5.7 0.081 7.249 -0.748 2.647 -1.417 4.821 -0.453 2.412 1.07 -1.625 1.027 -5.716 1.442 -10.768 1.091 -2.295 -0.159 -4.203 0.533 -6.277 2.279 -1.639 1.379 -3.602 2.269 -4.362 1.977 -0.847 -0.325 -1.652 0.369 -2.079 1.792 -1.036 3.453 -9.556 11.822 -12.04 11.822 -1.322 0 -2.577 0.987 -3.315 2.606 -1.045 2.293 -1.597 2.529 -4.601 1.966 -4.304 -0.807 -8.331 0.167 -8.728 2.112 -0.168 0.822 -0.643 1.155 -1.055 0.739 z m -3.083 -13.09 c -1.317 -1.317 -0.631 -3.333 1.133 -3.333 1.855 0 4.2 1.787 4.2 3.2 0 0.965 -4.392 1.075 -5.333 0.133 z m 10.736 -6.663 c -6.199 -3.855 -8.402 -5.637 -8.402 -6.793 0 -1.579 3.675 -0.921 6.273 1.122 1.398 1.1 2.879 2 3.29 2 1.565 0 7.447 5.174 6.896 6.07 -0.922 1.492 -2.619 0.988 -8.06 -2.395 z m -49.902 -9.671 c 0.34 -0.55 1.068 -1 1.618 -1 0.55 0 0.722 0.45 0.382 1 -0.34 0.55 -1.068 1 -1.618 1 -0.55 0 -0.722 -0.45 -0.382 -1 z m 78 -2.989 c -0.347 -1.094 -4.99 -5.338 -10.317 -9.432 -5.327 -4.093 -10.474 -8.148 -11.436 -9.01 -0.963 -0.863 -2.375 -1.568 -3.139 -1.568 -0.764 0 -2.445 -0.855 -3.734 -1.899 -1.688 -1.367 -3.289 -1.746 -5.712 -1.353 -2.9 0.471 -3.317 0.286 -3.01 -1.33 0.553 -2.874 5.334 -4.188 7.64 -2.1 1.022 0.925 2.581 1.682 3.463 1.682 0.882 0 1.89 0.9 2.239 2 0.381 1.201 1.513 2 2.834 2 1.245 0 4.578 2.178 7.683 5.02 5.288 4.841 5.641 4.997 9.893 4.362 4.049 -0.604 4.347 -0.504 3.637 1.229 -1.743 4.254 -1.632 5.101 0.88 6.747 2.748 1.8 3.525 5.64 1.141 5.64 -0.788 0 -1.717 -0.895 -2.064 -1.989 z m 13.497 -2.07 c 0 -0.582 0.45 -0.781 1 -0.441 0.55 0.34 1 0.816 1 1.059 0 0.243 -0.45 0.441 -1 0.441 -0.55 0 -1 -0.477 -1 -1.059 z m -87.3 -6.61 c -0.716 -1.159 0.953 -4.01 1.833 -3.127 0.355 0.355 0.217 1.413 -0.307 2.349 -0.524 0.937 -1.211 1.287 -1.526 0.777 z m 83.3 -5.39 c 0 -0.582 0.45 -0.781 1 -0.441 0.55 0.34 1 0.816 1 1.059 0 0.243 -0.45 0.441 -1 0.441 -0.55 0 -1 -0.477 -1 -1.059 z m -81 -3.882 c 0 -0.518 0.45 -1.219 1 -1.559 0.55 -0.34 1 0.084 1 0.941 0 0.857 -0.45 1.559 -1 1.559 -0.55 0 -1 -0.423 -1 -0.941 z m 78.05 -2.973 c -0.774 -1.446 -0.789 -2.086 -0.05 -2.086 1.212 0 2.533 2.805 1.708 3.629 -0.298 0.298 -1.045 -0.396 -1.659 -1.543 z m -74.55 -2.805 c 1.1 -0.268 2.79 -1.188 3.756 -2.045 0.966 -0.857 2.09 -1.223 2.498 -0.815 1.157 1.157 -2.848 3.592 -5.696 3.463 -2.071 -0.094 -2.178 -0.209 -0.559 -0.603 z m 12.75 -1.312 c -1.237 -0.497 -2.25 -1.355 -2.25 -1.905 0 -0.55 0.675 -0.742 1.5 -0.425 0.963 0.37 1.5 -0.02 1.5 -1.09 0 -0.927 0.474 -1.373 1.068 -1.01 0.587 0.363 0.848 1.235 0.578 1.937 -0.27 0.702 0.015 1.782 0.632 2.399 1.32 1.32 0.12 1.356 -3.03 0.091 z m 4.75 -5.969 c 0 -0.55 1.463 -0.993 3.25 -0.985 2.466 0.012 2.888 0.249 1.75 0.985 -1.965 1.27 -5 1.27 -5 0 z m 43.752 -0.912 c -4.889 -2.283 -5.789 -3.246 -2.027 -2.167 3.363 0.964 7.275 2.908 7.275 3.614 0 0.758 -1.282 0.405 -5.248 -1.447 z m -19.438 -5.104 c 1.548 -0.465 3.46 -1.381 4.25 -2.036 0.79 -0.656 1.436 -0.759 1.436 -0.23 0 1.195 -4.502 3.313 -6.797 3.197 -0.937 -0.047 -0.437 -0.466 1.111 -0.931 z m 8.559 -1.733 c -1.244 -1.586 -1.208 -1.621 0.378 -0.378 0.963 0.755 1.75 1.542 1.75 1.75 0 0.823 -0.821 0.293 -2.128 -1.372 z" fill="#d2764d"/><path d="m 105.91 165.55 c -1.084 -0.82 -2.503 -1.286 -3.153 -1.037 -0.65 0.249 -1.971 -0.124 -2.937 -0.83 -1.608 -1.176 -1.525 -1.341 0.984 -1.971 2.221 -0.557 3.327 -0.112 5.848 2.352 3.214 3.142 2.73 4.111 -0.742 1.486 z m 14.471 0.162 c 0 -1.785 4.409 -2.897 8.192 -2.066 2.732 0.6 2.81 0.74 1.122 2.02 -2.452 1.859 -9.313 1.893 -9.313 0.047 z m 13.182 -4.108 c 0.626 -1.375 1.967 -2.5 2.979 -2.5 2.49 0 2.318 1.552 -0.383 3.443 -3.154 2.209 -3.907 1.935 -2.596 -0.943 z m -41.18 -2.769 c -2.165 -0.897 -2.251 -1.095 -0.644 -1.477 1.021 -0.243 2.341 0.043 2.933 0.636 1.613 1.613 0.531 2.01 -2.29 0.842 z m 51.18 -4.481 c 2.533 -2.613 4.917 -5.787 5.297 -7.06 0.814 -2.715 3.172 -2.358 2.694 0.409 -0.423 2.448 -9.136 11.396 -11.1 11.396 -0.897 0 0.35 -1.908 3.106 -4.75 z m -63.08 -3.785 c -3.69 -4.202 -3.875 -4.933 -0.854 -3.375 2.828 1.458 6.75 4.993 6.75 6.085 0 1.95 -3.03 0.559 -5.896 -2.709 z m -20.1 -5.465 c 0 -0.55 1.913 -0.968 4.25 -0.93 3.292 0.054 3.799 0.264 2.25 0.93 -2.789 1.198 -6.5 1.198 -6.5 0 z m 11.11 0.092 c -1.117 -0.707 -1 -1.082 0.597 -1.938 1.956 -1.047 4.288 0.065 4.288 2.046 0 1.064 -3.145 0.994 -4.885 -0.108 z m 84.18 -1.798 c 1.45 -1.655 2.997 -2.045 8.115 -2.045 3.478 0 7.144 -0.459 8.147 -1.02 1.452 -0.813 2.215 -0.522 3.749 1.428 2.114 2.687 1.614 4.348 -0.725 2.407 -1.652 -1.371 -15.714 -1.078 -19.08 0.397 -1.938 0.85 -1.945 0.814 -0.208 -1.167 z m -95.29 -13.736 c 0 -0.857 0.45 -1.559 1 -1.559 0.55 0 1 0.423 1 0.941 0 0.518 -0.45 1.219 -1 1.559 -0.55 0.34 -1 -0.083 -1 -0.941 z m 25 -22.06 c 0 -2.857 -0.034 -2.843 3.544 -1.483 2.218 0.843 2.464 1.269 1.443 2.5 -2.04 2.458 -4.986 1.857 -4.986 -1.017 z m 13 -1.441 c 0 -0.518 0.45 -1.219 1 -1.559 0.55 -0.34 1 0.084 1 0.941 0 0.857 -0.45 1.559 -1 1.559 -0.55 0 -1 -0.423 -1 -0.941 z m -32.5 -6.06 c -0.34 -0.55 -0.168 -1 0.382 -1 0.55 0 1.278 0.45 1.618 1 0.34 0.55 0.168 1 -0.382 1 -0.55 0 -1.278 -0.45 -1.618 -1 z m 52.5 -0.8 c 0 -1.737 2.558 -3.2 5.593 -3.2 1.916 0 3.423 -0.6 3.769 -1.5 0.647 -1.685 4.191 -2.033 5.136 -0.504 0.338 0.548 -0.647 1.486 -2.191 2.084 -1.544 0.599 -4.08 1.726 -5.637 2.504 -3.099 1.55 -6.669 1.879 -6.669 0.616 z m 22.732 -1.736 c -2.053 -1.395 -3.732 -2.97 -3.732 -3.5 0 -1.446 1.591 -1.161 3 0.536 0.685 0.825 2 1.5 2.922 1.5 1.753 0 4.078 1.824 4.078 3.2 0 1.503 -2.533 0.802 -6.268 -1.736 z m 29.512 0.286 c 0.485 -1.476 5.756 -2.322 5.756 -0.923 0 1.07 -2.369 2.173 -4.665 2.173 -0.826 0 -1.317 -0.563 -1.091 -1.25 z" fill="#aa695a"/><g transform="matrix(0.86207 0 0 0.82109 15.189 19.989)" fill="#fff" stroke="#fff" fill-rule="evenodd" stroke-width="2.443"><path d="m 52.962 149.67 c 0.005 -0.307 0.376 -2.783 0.823 -5.502 0.598 -3.641 1.096 -5.327 1.887 -6.398 0.97 -1.313 1.074 -1.896 1.074 -6.02 0 -4.326 0.067 -4.659 1.259 -6.222 1.552 -2.035 2.096 -6.447 1 -8.118 -0.571 -0.871 -0.576 -1.088 -0.035 -1.537 1.01 -0.839 1.992 -3.946 2.605 -8.25 0.535 -3.751 0.658 -4.056 1.953 -4.812 1.166 -0.681 1.951 -0.76 5.03 -0.503 2.01 0.167 3.405 0.453 3.111 0.635 -0.6 0.371 0.068 0.636 2.85 1.13 2.138 0.379 4.319 2.163 4.319 3.531 0 0.566 -0.838 3.109 -1.862 5.651 -1.343 3.335 -1.897 5.39 -1.987 7.381 -0.154 3.389 -1.318 7.56 -2.203 7.9 -0.886 0.34 -1.468 2.01 -1.992 5.703 -0.267 1.885 -0.808 3.591 -1.387 4.374 -0.659 0.892 -0.862 1.628 -0.666 2.412 0.214 0.851 0.006 1.406 -0.844 2.256 -0.62 0.62 -1.252 1.751 -1.404 2.513 -0.187 0.933 -0.804 1.725 -1.888 2.425 -1.809 1.167 -4.821 1.983 -4.318 1.169 0.213 -0.345 -0.716 -0.494 -3.068 -0.494 -3.054 0 -4.278 0.453 -2.816 1.043 0.307 0.124 0.106 0.241 -0.446 0.26 -0.552 0.019 -1 -0.216 -0.994 -0.523 z" opacity="0.92"/><path d="m 188.13 145.89 c -1.373 -1.373 -7.764 -16.55 -9.597 -22.792 -0.311 -1.06 -0.7 -1.69 -0.871 -1.413 -0.191 0.309 -0.402 0.145 -0.552 -0.43 -0.134 -0.512 -0.061 -0.93 0.161 -0.93 0.674 0 0.458 -1 -0.713 -3.311 -0.613 -1.208 -1.114 -2.664 -1.114 -3.236 0 -1.106 -0.667 -1.414 -1.043 -0.482 -0.237 0.587 -0.492 -1.518 -0.36 -2.969 0.043 -0.467 -0.327 -1.93 -0.822 -3.252 -0.495 -1.322 -0.899 -2.907 -0.899 -3.523 0 -1.848 1.725 -3.144 4.676 -3.513 1.54 -0.192 2.378 -0.468 2.046 -0.673 -0.358 -0.221 0.051 -0.462 1.125 -0.664 1.245 -0.233 1.519 -0.422 1.048 -0.721 -0.493 -0.312 -0.413 -0.406 0.352 -0.411 0.853 -0.006 2.897 1.61 6.868 5.427 0.428 0.411 0.681 1.119 0.562 1.573 -0.317 1.213 1.41 8.669 2.463 10.633 0.499 0.931 0.8 1.868 0.668 2.081 -0.281 0.455 1.695 3.965 2.705 4.803 0.382 0.317 0.695 0.966 0.695 1.441 0 0.475 0.201 0.74 0.446 0.588 0.245 -0.152 0.446 0.031 0.446 0.406 0 0.423 -0.254 0.584 -0.669 0.425 -0.479 -0.184 -0.668 0.043 -0.665 0.795 0.006 1.388 2.024 5.688 2.812 5.99 0.354 0.136 0.855 1.516 1.171 3.228 0.653 3.539 0.087 9.468 -1.01 10.565 -0.902 0.902 -2.594 0.918 -2.25 0.022 0.208 -0.542 -0.207 -0.502 -2.315 0.223 -3.152 1.084 -4.37 1.111 -5.363 0.118 z" opacity="0.92"/></g></g></svg>