<svg xmlns="http://www.w3.org/2000/svg" xmlns:xlink="http://www.w3.org/1999/xlink" viewBox="0 0 256 256"><defs><path id="0" d="m -158.93 -30.656 c 0 6.678 -4.898 12.09 -10.941 12.09 -6.04 0 -10.941 -5.414 -10.941 -12.09 0 -6.678 4.898 -12.09 10.941 -12.09 5.984 0 10.858 5.314 10.94 11.928"/><filter id="2"><feGaussianBlur stdDeviation="0.6183"/></filter><filter id="3"><feGaussianBlur stdDeviation="0.84997"/></filter><filter id="1"><feGaussianBlur stdDeviation="0.35212"/></filter><linearGradient x2="251.76" x1="211.9" gradientUnits="userSpaceOnUse" id="A"><stop stop-color="#f00"/><stop offset="1" stop-color="#f00" stop-opacity="0"/></linearGradient><linearGradient id="B"><stop stop-color="#fff"/><stop offset="0.538" stop-color="#fff" stop-opacity="0.607"/><stop offset="1" stop-color="#fff"/></linearGradient><linearGradient x2="250.26" x1="213.4" gradientUnits="userSpaceOnUse" id="9"><stop stop-color="#ff0014"/><stop offset="1" stop-color="#ff0014" stop-opacity="0"/></linearGradient><linearGradient x2="234.84" x1="194.98" gradientTransform="matrix(0.99588 0 0 1.23187 17.553 -105.86)" gradientUnits="userSpaceOnUse" id="8"><stop stop-opacity="0.263"/><stop offset="1" stop-opacity="0.059"/></linearGradient><linearGradient y2="30.828" x2="19.689" y1="31.17" x1="19.893" gradientUnits="userSpaceOnUse" id="4"><stop/><stop offset="1" stop-color="#c9c9c9"/></linearGradient><linearGradient x2="234.84" x1="194.98" gradientTransform="matrix(0.99588 0 0 1.23187 17.553 -46.752)" gradientUnits="userSpaceOnUse" id="5"><stop stop-opacity="0.28"/><stop offset="1" stop-color="#000014" stop-opacity="0"/></linearGradient><linearGradient y2="22.251" x2="45.32" y1="17.376" x1="43.24" gradientUnits="userSpaceOnUse" id="6"><stop stop-color="#ffd1d1"/><stop offset="0.5" stop-color="#ff1d1d"/><stop offset="1" stop-color="#6f0000"/></linearGradient><linearGradient y2="22.625" x2="42.02" y1="19.813" x1="40.33" gradientUnits="userSpaceOnUse" id="7"><stop stop-color="#c1c1c1"/><stop offset="1" stop-color="#acacac"/></linearGradient><radialGradient r="12.01" cy="48.15" cx="76.22" gradientTransform="matrix(0.56151 0 0 0.60596 -24.841 -13.428)" gradientUnits="userSpaceOnUse" id="E" xlink:href="#B"/><radialGradient r="19.563" cy="40.44" cx="20.525" gradientTransform="matrix(0.75668 0 0 0.10224 6.617 40.574)" gradientUnits="userSpaceOnUse" id="C"><stop/><stop offset="1" stop-opacity="0"/></radialGradient><radialGradient r="3.241" cy="27.641" cx="29.05" gradientTransform="matrix(2.92357 0 0 2.02972 -61.56 -27.884)" gradientUnits="userSpaceOnUse" id="F"><stop stop-color="#e7e2b8"/><stop offset="1" stop-color="#e7e2b8" stop-opacity="0"/></radialGradient><radialGradient r="8.274" cy="44.37" cx="59.9" gradientTransform="matrix(0.56151 0 0 1.04222 -24.841 -32.435)" gradientUnits="userSpaceOnUse" id="D" xlink:href="#B"/></defs><g transform="translate(0 -796.36)"><path d="m 182.83 797.33 c -368.15 -25.644 -92.2 469.58 64.2 143.49 21.558 -50.25 5.804 -125.18 -64.2 -143.49 z" fill="#b0e0e6" color="#000"/><g transform="matrix(3.97771 0 0 3.62106 32.08 838.84)"><text y="33.36" x="72.32" text-align="start" line-height="125%" font-family="Georgia" font-size="48"><tspan x="72.32" y="33.36"/></text><g transform="matrix(1.0337 -0.27698 0.27698 1.0337 -22.09 14.759)"><path d="m 17.341 32.5 l 5.625 -5.625 l 20.09 -9.75 c 3.25 -1.25 5.188 3.375 2.313 5 l -20.03 9.375 l -8 1 z" fill="#cb9022" stroke="#5c410c" fill-rule="evenodd"/><path d="m 38.33 20 c 0 0 1.438 0.094 2 1.344 0.579 1.288 0 2.656 0 2.656 l 5.03 -2.469 c 0 0 1.452 -0.881 0.656 -2.844 -0.785 -1.936 -2.688 -1.156 -2.688 -1.156 l -5 2.469 z" fill="url(#6)"/><path d="m 38.33 20 c 0 0 1.438 0.094 2 1.344 0.579 1.288 0 2.656 0 2.656 l 2 -1 c 0 0 0.827 -1.319 0.219 -2.688 c -0.625 -1.406 -2.219 -1.313 -2.219 -1.313 l -2 1 z" fill="url(#7)"/><path d="m 18.768 31.781 l 4.5 -4.5 c 1.5 0.813 2.281 2.156 1.875 3.719 l -6.375 0.781 z" fill="url(#F)"/><path d="m 20.11 30.375 l -1.625 1.594 l 2.344 -0.313 c 0.219 -0.719 -0.188 -1.063 -0.719 -1.281 z" fill="url(#4)"/><g fill-opacity="0.364"><path d="m 23.268 27.25 l 1.563 1.25 l 15.387 -7.319 c -0.444 -0.856 -1.242 -1.085 -1.903 -1.162 l -15.05 7.231 z" fill="#fff"/><path d="m 25.14 31.06 l 0.188 -0.75 l 15.231 -7.13 c 0 0 -0.11 0.614 -0.216 0.749 l -15.203 7.13 z"/></g></g><path transform="matrix(0.56151 0 0 0.51374 -24.841 -8.988)" d="m 64.38 56.855 c -8.09 40.922 14.329 43.666 27.996 41.648 13.573 -2 17.248 -9.108 19.16 -25.2" stroke-opacity="0.823" fill="none" filter="url(#1)" stroke="#0b13af" stroke-linecap="round" stroke-width="7"/><g fill-opacity="0.801"><path transform="matrix(0.19575 0 0 0.19118 35.881 4.062)" d="m 46.07 105.82 c 0 18.445 -14.437 33.398 -32.25 33.398 -17.809 0 -32.25 -14.953 -32.25 -33.398 0 -18.445 14.437 -33.398 32.25 -33.398 17.638 0 32 14.677 32.24 32.944" filter="url(#3)"/><use transform="matrix(0.24263 0.13399 -0.14094 0.21363 48.47 33.42)" xlink:href="#0" filter="url(#2)"/></g><path transform="matrix(0.56151 0 0 0.51374 -24.841 -8.988)" d="m 82.52 36.513 c 0 0 5.613 24.339 -16.381 21.02" stroke-opacity="0.804" fill="none" filter="url(#1)" stroke="#000" stroke-linecap="round" stroke-width="7"/><use transform="matrix(0.24263 0.13399 -0.14094 0.21363 58.4 35.954)" xlink:href="#0" filter="url(#2)" fill-opacity="0.801"/><path transform="matrix(0.56151 0 0 0.51374 -24.841 -8.988)" d="m 61.01 30.11 c 0 0 -18.09 17.224 2.094 26.57" stroke-opacity="0.804" fill="none" filter="url(#1)" stroke="#000" stroke-linecap="round" stroke-width="7"/><path transform="matrix(0.19575 0 0 0.19118 36.764 4.562)" d="m 46.07 105.82 c 0 18.445 -14.437 33.398 -32.25 33.398 -17.809 0 -32.25 -14.953 -32.25 -33.398 0 -18.445 14.437 -33.398 32.25 -33.398 17.638 0 32 14.677 32.24 32.944" fill="#e3e3e3"/><path transform="matrix(0.28816 0 0 0.24626 115.89 46.15)" d="m -257.97 -87.66 c 0 5.088 -3.609 9.213 -8.06 9.213 -4.452 0 -8.06 -4.125 -8.06 -9.213 0 -5.088 3.609 -9.213 8.06 -9.213 4.41 0 8 4.049 8.06 9.09" fill="#0b13af" fill-opacity="0.824"/><path d="m 22.378 10.271 c 0 0 3.152 12.504 -9.198 10.801" fill="none" stroke="url(#E)" stroke-linecap="round" stroke-width="3.76"/><use transform="matrix(0.24263 0.13399 -0.14094 0.21363 59.29 36.455)" xlink:href="#0" fill="#5c5c5c"/><path d="m 10.298 6.98 c 0 0 -10.157 8.849 1.176 13.65" fill="none" stroke="url(#D)" stroke-linecap="round" stroke-width="3.76"/><use transform="matrix(0.24263 0.13399 -0.14094 0.21363 49.35 33.921)" xlink:href="#0" fill="#0b13af" fill-opacity="0.824"/><rect transform="matrix(-0.27568 0.96125 -0.96125 -0.27568 0 0)" rx="5.105" ry="7.04" y="-48.45" x="-2.438" height="31.883" width="11.883" fill="#fff" stroke="#fff" stroke-width="0.768"/><g transform="matrix(-0.09173 0.31986 -0.31986 -0.09173 73.07 -55.53)"><rect width="35.713" height="95.82" x="213.72" y="19.555" ry="21.15" rx="15.341" fill="url(#5)" stroke="url(#8)" stroke-width="2.307"/><path d="m 229.3 19.986 h 5.05 c 8.534 0 15.405 7.659 15.405 17.17 v 31.31 c -17.17 -5.134 -22.22 -4.629 -35.86 0 v -31.31 c 0 -9.514 6.871 -17.17 15.405 -17.17 z" fill="url(#9)" stroke="url(#A)" stroke-width="2"/></g><path d="m 39.25 44.708 a 14.803 2 0 0 1 -29.605 0 14.803 2 0 1 1 29.605 0 z" opacity="0.2" fill="url(#C)"/><g transform="matrix(0.9992 -0.04403 0.03648 0.9992 -1.038 2.218)" fill="#012538" stroke="#012538"><g stroke-width="0.584" transform="matrix(0.2512 0.01107 -0.01008 0.27594 -6.513 -14.247)"><path d="m 97.69 78.25 c -0.228 -0.093 0.183 -1.698 1.274 -4.983 0.885 -2.665 1.653 -4.896 1.705 -4.958 0.053 -0.062 1.46 0.249 3.128 0.691 2.238 0.593 2.992 0.907 2.879 1.201 -0.193 0.504 -0.138 0.508 -2.68 -0.197 -1.178 -0.327 -2.236 -0.49 -2.35 -0.363 -0.114 0.127 -0.414 0.858 -0.668 1.623 -0.347 1.049 -0.375 1.421 -0.111 1.507 0.192 0.063 1.166 0.335 2.164 0.605 1.102 0.298 1.814 0.646 1.814 0.887 0 0.516 -0.203 0.504 -2.604 -0.162 l -2.02 -0.559 l -0.796 2.445 c -0.757 2.325 -0.955 2.582 -1.738 2.262 z"/><path d="m 105.31 80.23 c -0.079 -0.128 0.348 -1.793 0.95 -3.7 0.897 -2.844 1.194 -3.467 1.65 -3.467 0.416 0 0.533 0.17 0.463 0.671 -0.093 0.665 -0.085 0.667 0.833 0.192 1.069 -0.553 2.888 -0.366 2.888 0.297 0 0.316 -0.311 0.372 -1.378 0.247 -2.02 -0.236 -2.737 0.442 -3.745 3.535 -0.718 2.205 -1.241 2.904 -1.661 2.224 z"/><path d="m 114.92 83.05 c -3.06 -0.721 -4.25 -3.272 -2.747 -5.893 1.5 -2.617 5.02 -2.911 6.867 -0.573 0.542 0.687 0.627 1.058 0.483 2.116 -0.096 0.706 -0.21 1.319 -0.254 1.362 -0.044 0.044 -1.512 -0.305 -3.263 -0.775 -1.751 -0.47 -3.216 -0.855 -3.256 -0.855 -0.04 0 -0.073 0.439 -0.073 0.976 0 1.845 1.713 3.08 4.28 3.084 0.644 0.001 0.943 0.14 0.943 0.437 0 0.494 -1.187 0.542 -2.979 0.119 z m 3.56 -4.921 c 0 -2.02 -2.73 -3.066 -4.459 -1.707 -1.207 0.949 -0.957 1.314 1.339 1.957 2.94 0.823 3.119 0.809 3.119 -0.25 z"/><path d="m 124.96 85.68 c -2.677 -0.529 -3.867 -1.666 -3.867 -3.693 0 -4.055 4.692 -5.96 7.376 -2.994 0.557 0.616 0.797 2.976 0.348 3.426 -0.114 0.114 -1.409 -0.104 -2.878 -0.485 -1.468 -0.381 -2.898 -0.751 -3.178 -0.822 -0.421 -0.107 -0.508 0.071 -0.508 1.04 0 0.939 0.169 1.311 0.858 1.891 0.86 0.723 3.441 1.317 4.061 0.934 0.167 -0.103 0.304 0.002 0.304 0.234 0 0.386 -0.647 0.818 -1.112 0.742 -0.107 -0.017 -0.739 -0.14 -1.405 -0.271 z m 3.044 -5.01 c 0.241 -2.037 -3.092 -3.07 -4.704 -1.458 -0.426 0.426 -0.672 0.874 -0.547 0.996 0.28 0.274 4.47 1.391 4.87 1.299 0.16 -0.037 0.331 -0.414 0.381 -0.837 z"/><path d="m 139.09 89.25 c 0.001 -0.12 0.638 -2.209 1.416 -4.643 0.778 -2.434 1.332 -4.417 1.232 -4.406 -0.1 0.01 -1.334 1.439 -2.742 3.175 -2.244 2.766 -2.638 3.127 -3.192 2.924 -0.58 -0.213 -0.656 -0.532 -0.926 -3.88 -0.162 -2.01 -0.382 -3.736 -0.491 -3.844 -0.108 -0.108 -0.817 1.776 -1.575 4.187 -1.11 3.529 -1.481 4.384 -1.903 4.384 -0.774 0 -0.68 -0.528 0.994 -5.584 l 1.519 -4.588 l 0.875 0.187 c 0.481 0.103 0.961 0.238 1.066 0.299 0.105 0.062 0.285 1.809 0.4 3.883 0.115 2.074 0.313 3.771 0.441 3.771 0.128 0 1.36 -1.359 2.739 -3.02 2.445 -2.946 2.529 -3.01 3.397 -2.766 0.49 0.14 0.936 0.301 0.991 0.357 0.056 0.056 -0.626 2.28 -1.516 4.942 -1.34 4.01 -1.712 4.841 -2.172 4.841 -0.305 0 -0.555 -0.098 -0.554 -0.218 z"/><path d="m 147.34 91.8 c -3.587 -0.858 -4.643 -4.132 -2.185 -6.768 0.861 -0.923 1.321 -1.171 2.392 -1.292 2.47 -0.278 4.316 1.204 4.306 3.457 -0.008 1.68 -0.157 1.715 -3.481 0.809 -1.848 -0.503 -3.15 -0.725 -3.314 -0.564 -0.452 0.445 0.208 2.351 1.024 2.957 0.459 0.341 1.441 0.621 2.515 0.719 1.329 0.121 1.724 0.257 1.609 0.557 -0.163 0.426 -1.386 0.479 -2.867 0.125 z m 3.357 -5.075 c 0 -2.034 -2.98 -3.02 -4.511 -1.485 -0.392 0.392 -0.712 0.829 -0.712 0.972 0 0.257 3.739 1.433 4.715 1.482 0.39 0.02 0.508 -0.205 0.508 -0.969 z"/><path d="m 159.01 94.74 c -0.373 -0.075 -0.489 -0.283 -0.384 -0.685 0.119 -0.455 0.048 -0.532 -0.336 -0.365 -0.965 0.421 -2.403 0.472 -3.264 0.115 -1.225 -0.507 -1.818 -1.782 -1.649 -3.544 0.153 -1.596 0.814 -2.655 2.274 -3.649 1.477 -1.01 3.435 -0.535 4.4 1.056 0.441 0.726 0.446 0.72 1.113 -1.351 0.504 -1.563 0.8 -2.08 1.193 -2.08 0.288 0 0.52 0.098 0.517 0.218 -0.004 0.12 -0.755 2.507 -1.669 5.305 -1.42 4.348 -1.74 5.072 -2.197 4.979 z m -1.024 -1.671 c 0.959 -0.496 1.977 -2.373 1.988 -3.664 0.01 -1.242 -1.114 -2.323 -2.415 -2.323 -1.262 0 -2.116 0.636 -2.697 2.01 -0.801 1.892 -0.462 3.435 0.881 4.02 1.152 0.502 1.197 0.501 2.243 -0.04 z"/><path d="m 163.39 95.94 c -0.279 -0.073 -0.508 -0.206 -0.508 -0.296 0 -0.362 2.972 -9.53 3.148 -9.71 0.213 -0.219 5.563 1.132 5.953 1.502 0.138 0.131 0.169 0.369 0.07 0.53 -0.116 0.188 -0.957 0.082 -2.351 -0.297 -1.193 -0.324 -2.347 -0.522 -2.564 -0.439 -0.216 0.083 -0.565 0.763 -0.774 1.511 -0.452 1.614 -0.411 1.657 2.079 2.185 1.81 0.384 2.069 0.543 1.742 1.072 -0.147 0.238 -0.763 0.173 -2.223 -0.231 -1.111 -0.308 -2.117 -0.56 -2.235 -0.56 -0.118 0 -0.553 1.11 -0.967 2.467 -0.414 1.357 -0.777 2.451 -0.807 2.433 -0.03 -0.019 -0.284 -0.093 -0.563 -0.166 z"/><path d="m 173.62 98.84 c -0.816 -0.297 -2 -1.617 -2.18 -2.424 -0.441 -2.01 1.107 -4.659 3.062 -5.245 2.291 -0.686 4.928 1.124 4.914 3.375 -0.007 1.22 -0.932 3.121 -1.881 3.868 -0.783 0.616 -2.792 0.834 -3.915 0.426 z m 3.297 -1.431 c 1.909 -1.909 1.518 -4.991 -0.694 -5.477 -2.066 -0.454 -3.647 1.544 -3.505 4.427 0.089 1.807 2.772 2.477 4.199 1.049 z"/><path d="m 180.74 100.52 c -0.145 -0.235 1.628 -6.551 2.056 -7.324 0.058 -0.105 0.351 -0.126 0.652 -0.048 0.388 0.102 0.501 0.318 0.388 0.747 -0.132 0.504 -0.066 0.566 0.396 0.373 1.486 -0.62 3.471 -0.487 3.234 0.217 -0.078 0.233 -0.624 0.319 -1.615 0.253 -1.298 -0.086 -1.582 -0.003 -2.142 0.625 -0.355 0.398 -0.984 1.741 -1.399 2.983 -0.725 2.172 -1.182 2.805 -1.572 2.174 z"/><path d="m 197.51 104.73 c 0.096 -0.251 0.524 -1.576 0.951 -2.944 0.625 -2.01 0.713 -2.622 0.456 -3.188 -0.565 -1.241 -2.737 -1.311 -3.759 -0.121 -0.274 0.319 -0.835 1.589 -1.247 2.821 -0.584 1.748 -0.882 2.261 -1.353 2.331 -0.591 0.088 -0.586 0.032 0.241 -2.539 1.017 -3.164 1.05 -3.903 0.2 -4.498 -1.847 -1.294 -3.615 0.02 -4.604 3.424 -0.503 1.73 -0.762 2.218 -1.18 2.218 -0.733 0 -0.695 -0.268 0.578 -4.072 0.718 -2.145 1.26 -3.327 1.523 -3.327 0.225 0 0.449 0.28 0.498 0.623 0.086 0.601 0.129 0.608 1.184 0.193 0.976 -0.383 1.213 -0.381 2.183 0.025 0.712 0.297 1.198 0.745 1.405 1.292 l 0.316 0.838 l 1.205 -0.533 c 1.437 -0.635 3.046 -0.343 3.766 0.685 0.606 0.866 0.561 1.403 -0.373 4.422 -0.69 2.231 -0.907 2.626 -1.487 2.71 -0.519 0.075 -0.638 -0.01 -0.504 -0.359 z"/></g><path d="m 43.33 17.478 c -0.274 -0.13 -0.375 -0.22 -0.371 -0.333 0.007 -0.189 -0.027 -0.195 0.393 0.063 0.403 0.248 0.702 0.286 0.873 0.113 0.233 -0.237 0.146 -0.391 -0.449 -0.8 -0.35 -0.24 -0.443 -0.457 -0.327 -0.756 0.093 -0.239 0.3 -0.344 0.645 -0.327 0.291 0.015 0.888 0.299 0.884 0.421 -0.005 0.15 -0.094 0.148 -0.347 -0.008 -0.352 -0.217 -0.784 -0.234 -0.89 -0.035 -0.117 0.219 -0.049 0.355 0.29 0.579 0.643 0.425 0.766 0.751 0.416 1.106 -0.232 0.235 -0.587 0.228 -1.116 -0.023 z" stroke-width="0.154"/></g></g></g></svg>