<svg xmlns="http://www.w3.org/2000/svg" viewBox="0 0 256 256"><path d="m 59.704 229.18 c 94.43 83.76 239.74 -48.37 180.98 -158.96 -59.4 -111.81 -255.97 -82.02 -239.26 55.31 c 4.977 40.865 27.46 76.32 58.27 103.65 z" fill="#f5f5f5" color="#000"/><g transform="matrix(1.09935 0 0 1.04137 -37.629 111.76)"><path d="m 149.44 89.35 c -3.865 0.509 0.196 -12.05 -3.643 -12.05 -2.933 0 -13.05 1.018 -13.477 -1.365 l -1.168 -6.506 l 11.144 -14.607 c 3.344 -4.383 -0.844 7.288 0.109 11.04 0.6 2.362 0.393 3.282 4.081 2.918 4.247 -0.419 2.912 1.31 2.912 -3.291 0 -4.861 1.982 -4.115 -3.077 -3.81 -1.68 0.102 -2.971 3.212 -3.861 2.624 -2.068 -1.367 -1.973 -7.63 0.429 -10.1 2.25 -2.317 9.741 -2.989 12.581 -1.129 1.972 1.291 2.52 17.518 0.827 24.502 l -0.786 10.977 z m 13.562 -42.492 c -2.043 -8.091 2.03 -14.691 -1.837 -22.374 -0.915 -1.709 -1.692 -4.068 -1.728 -5.242 -0.051 -1.687 -2.089 -2.134 -9.738 -2.134 h -9.674 l 0.488 13.712 c 0.493 13.853 1.475 16.751 -0.883 16.751 -2.248 -0.957 -3.69 0.043 -5.079 0 -4.571 -0.141 -5.339 1.441 -5.079 -5.167 0.476 -12.08 2.65 -38.26 -2.114 -46.668 -1.175 -1.21 -6.676 -5.447 -8.04 -5 -1.721 0.562 -1.02 2.441 -5.425 -2.03 -3.498 -3.55 -6.906 -6.455 -7.573 -6.455 -0.667 0 -1.538 -1.28 -1.936 -2.845 -1.056 -4.157 -6.688 -3.606 -10.907 1.067 -3.495 3.871 -3.527 4.123 -3.049 23.83 0.631 26.01 1.169 28.942 5.631 30.688 4.906 1.92 7.697 0.705 13.456 -5.856 6.02 -6.709 5.344 -12.352 -3.084 -13.275 -3.494 -0.346 -3.719 -3.687 -3.719 -5.867 0 -2.392 1.063 -2.915 6.672 -3.284 8.73 -0.573 13.382 0.584 12.518 8.473 -0.378 3.452 -2.926 8.797 -2.06 11.354 1.515 4.472 1.325 4.91 -4.962 11.481 -3.664 3.83 -7.804 6.831 -9.422 6.831 -1.587 0 -3.61 0.746 -4.495 1.657 -1.225 1.261 -4.728 1.506 -13.315 -7.157 c -11.04 -11.139 -10.817 -14.03 -8.737 -17.387 0.522 -12.766 0.619 -23.814 -0.541 -35.2 c -0.696 -6.355 2.051 -6.865 8.235 -13.216 6.345 -6.517 6.532 -6.597 13.781 -5.872 5.946 0.594 8.413 1.716 12.923 5.879 3.066 2.83 6.46 6.905 7.544 9.06 2.388 4.744 5.393 5.03 7.538 0.711 0.875 -1.761 4.449 -6.242 7.943 -9.959 5.937 -6.315 6.812 -6.758 13.367 -6.758 6.555 0 7.43 0.443 13.367 6.758 3.494 3.717 7.07 8.198 7.943 9.959 2.059 4.144 7.02 6.49 9.249 2.25 0.974 -1.85 2.659 -8.973 6.097 -12.879 5.516 -6.266 6.65 -6.949 9.642 -5.81 1.865 0.71 4.823 0.921 6.574 0.469 2.458 -0.635 4.635 0.589 9.546 5.366 1.778 2.576 2.7 3.368 4.287 5.808 5.659 8.697 10.563 17.881 4.253 25.13 -0.786 1.758 -2.407 7.818 -4.62 9.923 -1.698 1.616 -4.92 -0.384 -4.59 1.319 0.344 1.507 -2.028 1.972 -10.613 2.08 l -11.06 0.139 v 13.03 c 0 7.168 -0.356 13.403 -0.791 13.856 -0.435 0.453 -3.208 4.697 -5.723 2.344 l -3.01 -3.937 v -25.834 c 0 -22.255 1.767 -31 0 -31 -0.671 0 -3.73 -2.305 -5.079 0 -2.186 3.738 -2.755 14.374 -2.841 27.626 -0.09 13.889 -0.157 25.573 -0.149 25.964 0.085 5.578 3.381 8.672 1.01 8.521 -1.391 0 -10.195 1.328 -10.195 -0.823 z m 45.17 -45.17 c 2.303 -2.475 4.311 -5.46 4.464 -6.633 0.771 -5.946 -0.296 -8.813 -4.121 -11.07 -6.334 -4.908 -7.898 -10.69 -15.245 -3.407 -3.694 3.803 -3.861 4.517 -3.161 13.502 0.757 9.711 1.751 11.617 6.583 12.636 4.399 0.927 7 -0.212 11.48 -5.02 z m -45.622 -5.595 c 2.049 -13.826 -4.565 -10.498 -6.563 -17.255 -0.99 -3.899 -8.723 -2.816 -13.09 1.871 -3.677 3.951 -3.815 4.583 -2.869 13.16 0.547 4.955 1.644 9.837 2.44 10.848 0.984 1.251 4.355 1.706 10.557 1.423 l 9.111 -0.416 z m -35.997 -7.559 c -1.317 -1.356 -8.215 -4.601 -7.234 -2.966 0.583 0.972 5.614 6.388 6.607 5.366 0.814 -0.838 1.096 -1.918 0.627 -2.4 z" fill="#090909"/><g fill="#f5f5f5" stroke="#f5f5f5" fill-rule="evenodd" stroke-width="1.341"><rect width="6.988" height="14.801" x="119.32" y="-19.948" rx="0.7"/><rect width="6.988" height="14.801" x="171.58" y="-19.948" rx="0.7"/></g></g></svg>