<svg xmlns="http://www.w3.org/2000/svg" viewBox="0 0 256 256"><defs><clipPath><path d="M 0,64 H64 V128 H0 z"/></clipPath></defs><g fill="#ba55d3" color="#000"><path d="m -1360.14 1641.33 c 46.11 -98.28 -119.59 -146.07 -181.85 -106.06 -62.25 40.01 -83.52 108.58 -13.01 143.08 70.51 34.501 148.75 61.26 194.86 -37.03 z" transform="matrix(0 1.02443 -1.34125 0 2295.19 1640.17)"/></g><g fill="#fff" fill-rule="evenodd"><path d="m 121.24 211.06 c -0.079 -0.241 -0.957 -0.396 -2.638 -0.466 -1.652 -0.069 -2.656 -0.244 -2.916 -0.508 -0.241 -0.245 -1 -0.403 -1.942 -0.403 -0.85 0 -1.546 -0.13 -1.546 -0.29 0 -0.159 -0.705 -0.29 -1.566 -0.29 -1.202 0 -1.566 -0.101 -1.566 -0.435 0 -0.305 -0.303 -0.435 -1.017 -0.435 -0.559 0 -1.209 -0.196 -1.444 -0.435 -0.235 -0.239 -0.802 -0.435 -1.261 -0.435 -0.459 0 -0.834 -0.13 -0.834 -0.29 0 -0.159 -0.641 -0.29 -1.424 -0.29 -1.076 0 -1.424 -0.106 -1.424 -0.435 0 -0.265 -0.266 -0.435 -0.681 -0.435 -0.375 0 -0.755 -0.196 -0.845 -0.435 -0.09 -0.239 -0.433 -0.435 -0.763 -0.435 -0.329 0 -0.791 -0.196 -1.026 -0.435 -0.235 -0.239 -0.738 -0.435 -1.119 -0.435 -0.38 0 -0.692 -0.13 -0.692 -0.29 0 -0.159 -0.384 -0.29 -0.854 -0.29 -0.57 0 -0.854 -0.145 -0.854 -0.435 0 -0.265 -0.266 -0.435 -0.681 -0.435 -0.375 0 -0.755 -0.196 -0.845 -0.435 -0.09 -0.239 -0.424 -0.435 -0.742 -0.435 -0.318 0 -0.578 -0.13 -0.578 -0.29 0 -0.159 -0.384 -0.29 -0.854 -0.29 -0.57 0 -0.854 -0.145 -0.854 -0.435 0 -0.27 -0.269 -0.435 -0.712 -0.435 -0.443 0 -0.712 -0.164 -0.712 -0.435 0 -0.239 -0.192 -0.435 -0.427 -0.435 -0.235 0 -0.427 -0.196 -0.427 -0.435 0 -0.27 -0.269 -0.435 -0.712 -0.435 -0.392 0 -0.712 -0.13 -0.712 -0.29 0 -0.159 -0.192 -0.29 -0.427 -0.29 -0.235 0 -0.427 -0.196 -0.427 -0.435 0 -0.27 -0.269 -0.435 -0.712 -0.435 -0.443 0 -0.712 -0.164 -0.712 -0.435 0 -0.239 -0.192 -0.435 -0.427 -0.435 -0.235 0 -0.427 -0.13 -0.427 -0.29 0 -0.159 -0.32 -0.29 -0.712 -0.29 -0.443 0 -0.712 -0.164 -0.712 -0.435 0 -0.239 -0.192 -0.435 -0.427 -0.435 -0.235 0 -0.427 -0.14 -0.427 -0.31 0 -0.511 -0.773 -1.138 -1.404 -1.138 -0.335 0 -0.59 -0.188 -0.59 -0.435 0 -0.239 -0.192 -0.435 -0.427 -0.435 -0.235 0 -0.427 -0.196 -0.427 -0.435 0 -0.239 -0.192 -0.435 -0.427 -0.435 -0.235 0 -0.427 -0.13 -0.427 -0.29 0 -0.159 0.192 -0.29 0.427 -0.29 0.235 0 0.427 -0.196 0.427 -0.435 0 -0.27 0.269 -0.435 0.712 -0.435 0.392 0 0.712 -0.13 0.712 -0.29 0 -0.159 0.192 -0.29 0.427 -0.29 0.235 0 0.427 -0.196 0.427 -0.435 0 -0.239 0.128 -0.435 0.285 -0.435 0.157 0 0.285 -0.196 0.285 -0.435 0 -0.29 0.285 -0.435 0.854 -0.435 0.47 0 0.854 -0.14 0.854 -0.31 0 -0.49 0.763 -1.138 1.34 -1.138 0.537 0 1.508 -0.934 1.508 -1.452 0 -0.158 0.32 -0.286 0.712 -0.286 0.392 0 0.712 -0.13 0.712 -0.29 0 -0.159 0.192 -0.29 0.427 -0.29 0.235 0 0.427 -0.196 0.427 -0.435 0 -0.239 0.192 -0.435 0.427 -0.435 0.235 0 0.427 -0.196 0.427 -0.435 0 -0.239 0.192 -0.435 0.427 -0.435 0.235 0 0.427 -0.196 0.427 -0.435 0 -0.27 0.269 -0.435 0.712 -0.435 0.392 0 0.712 -0.13 0.712 -0.29 0 -0.159 0.192 -0.29 0.427 -0.29 0.235 0 0.427 -0.196 0.427 -0.435 0 -0.239 0.128 -0.435 0.285 -0.435 0.157 0 0.285 -0.196 0.285 -0.435 0 -0.27 0.269 -0.435 0.712 -0.435 0.392 0 0.712 -0.13 0.712 -0.29 0 -0.159 0.192 -0.29 0.427 -0.29 0.235 0 0.427 -0.196 0.427 -0.435 0 -0.239 0.192 -0.435 0.427 -0.435 0.235 0 0.427 -0.196 0.427 -0.435 0 -0.239 0.192 -0.435 0.427 -0.435 0.235 0 0.427 -0.13 0.427 -0.29 0 -0.159 0.26 -0.29 0.578 -0.29 0.318 0 0.652 -0.196 0.742 -0.435 0.102 -0.269 0.535 -0.435 1.139 -0.435 0.604 0 1.038 -0.165 1.139 -0.435 0.131 -0.348 0.755 -0.435 3.124 -0.435 2.441 0 2.96 -0.076 2.96 -0.435 0 -0.354 0.475 -0.435 2.563 -0.435 1.519 0 2.563 -0.118 2.563 -0.29 0 -0.165 0.848 -0.29 1.973 -0.29 1.374 0 2.103 -0.132 2.4 -0.435 0.267 -0.272 0.967 -0.435 1.871 -0.435 1.094 0 1.444 -0.105 1.444 -0.435 0 -0.334 0.364 -0.435 1.566 -0.435 0.861 0 1.566 -0.13 1.566 -0.29 0 -0.159 0.632 -0.29 1.404 -0.29 0.868 0 1.567 -0.166 1.831 -0.435 0.277 -0.282 0.983 -0.435 2.01 -0.435 1.22 0 1.587 -0.1 1.587 -0.435 0 -0.328 0.348 -0.435 1.424 -0.435 0.783 0 1.424 -0.13 1.424 -0.29 0 -0.159 0.503 -0.29 1.119 -0.29 0.615 0 1.311 -0.196 1.546 -0.435 0.235 -0.239 0.889 -0.435 1.453 -0.435 0.649 0 1.086 -0.16 1.19 -0.435 0.107 -0.283 0.55 -0.435 1.273 -0.435 0.796 0 1.109 -0.123 1.109 -0.435 0 -0.314 0.316 -0.435 1.139 -0.435 0.627 0 1.139 -0.13 1.139 -0.29 0 -0.159 0.453 -0.29 1.01 -0.29 0.631 0 1.067 -0.162 1.17 -0.435 0.09 -0.239 0.471 -0.435 0.845 -0.435 0.416 0 0.681 -0.169 0.681 -0.435 0 -0.314 0.316 -0.435 1.139 -0.435 0.627 0 1.139 -0.13 1.139 -0.29 0 -0.159 0.32 -0.29 0.712 -0.29 0.443 0 0.712 -0.164 0.712 -0.435 0 -0.29 0.285 -0.435 0.854 -0.435 0.57 0 0.854 -0.145 0.854 -0.435 0 -0.27 0.269 -0.435 0.712 -0.435 0.443 0 0.712 -0.164 0.712 -0.435 0 -0.27 0.269 -0.435 0.712 -0.435 0.392 0 0.712 -0.13 0.712 -0.29 0 -0.159 0.32 -0.29 0.712 -0.29 0.443 0 0.712 -0.164 0.712 -0.435 0 -0.29 0.285 -0.435 0.854 -0.435 0.57 0 0.854 -0.145 0.854 -0.435 0 -0.27 0.269 -0.435 0.712 -0.435 0.392 0 0.712 -0.13 0.712 -0.29 0 -0.159 0.192 -0.29 0.427 -0.29 0.235 0 0.427 -0.196 0.427 -0.435 0 -0.27 0.269 -0.435 0.712 -0.435 0.443 0 0.712 -0.164 0.712 -0.435 0 -0.27 0.269 -0.435 0.712 -0.435 0.392 0 0.712 -0.13 0.712 -0.29 0 -0.159 0.192 -0.29 0.427 -0.29 0.235 0 0.427 -0.196 0.427 -0.435 0 -0.239 0.192 -0.435 0.427 -0.435 0.235 0 0.427 -0.196 0.427 -0.435 0 -0.27 0.269 -0.435 0.712 -0.435 0.443 0 0.712 -0.164 0.712 -0.435 0 -0.239 0.137 -0.435 0.305 -0.435 0.394 0 1.119 -0.737 1.119 -1.138 0 -0.171 0.32 -0.31 0.712 -0.31 0.443 0 0.712 -0.164 0.712 -0.435 0 -0.239 0.192 -0.435 0.427 -0.435 0.235 0 0.427 -0.13 0.427 -0.29 0 -0.159 0.192 -0.29 0.427 -0.29 0.235 0 0.427 -0.196 0.427 -0.435 0 -0.239 0.192 -0.435 0.427 -0.435 0.235 0 0.427 -0.14 0.427 -0.31 0 -0.401 0.725 -1.138 1.119 -1.138 0.168 0 0.305 -0.196 0.305 -0.435 0 -0.239 0.128 -0.435 0.285 -0.435 0.157 0 0.285 -0.196 0.285 -0.435 0 -0.239 0.192 -0.435 0.427 -0.435 0.235 0 0.427 -0.196 0.427 -0.435 0 -0.239 0.126 -0.435 0.279 -0.435 0.154 0 0.36 -0.326 0.458 -0.724 0.098 -0.398 0.293 -0.724 0.433 -0.724 0.14 0 0.254 -0.196 0.254 -0.435 0 -0.239 0.127 -0.435 0.282 -0.435 0.557 0 1.427 -1.011 1.427 -1.658 0 -0.363 0.128 -0.66 0.285 -0.66 0.157 0 0.285 -0.196 0.285 -0.435 0 -0.239 0.192 -0.435 0.427 -0.435 0.266 0 0.427 -0.274 0.427 -0.724 0 -0.451 0.161 -0.724 0.427 -0.724 0.266 0 0.427 -0.274 0.427 -0.724 0 -0.398 0.128 -0.724 0.285 -0.724 0.157 0 0.285 -0.391 0.285 -0.869 0 -0.579 0.142 -0.869 0.427 -0.869 0.266 0 0.427 -0.274 0.427 -0.724 0 -0.451 0.161 -0.724 0.427 -0.724 0.285 0 0.427 -0.29 0.427 -0.869 0 -0.478 0.128 -0.869 0.285 -0.869 0.157 0 0.285 -0.522 0.285 -1.159 0 -0.837 0.119 -1.159 0.427 -1.159 0.309 0 0.427 -0.322 0.427 -1.159 0 -0.837 0.119 -1.159 0.427 -1.159 0.328 0 0.427 -0.37 0.427 -1.593 0 -0.876 0.128 -1.594 0.285 -1.594 0.166 0 0.285 -0.958 0.285 -2.294 0 -1.578 0.111 -2.331 0.356 -2.414 0.269 -0.091 0.377 -1.921 0.441 -7.523 0.073 -6.372 0.023 -7.465 -0.356 -7.85 -0.325 -0.331 -0.441 -1.063 -0.441 -2.787 0 -1.286 -0.113 -2.338 -0.251 -2.338 -0.138 0 -0.308 -0.807 -0.378 -1.794 -0.072 -1.01 -0.274 -1.844 -0.461 -1.907 -0.184 -0.062 -0.334 -0.484 -0.334 -0.938 0 -0.453 -0.192 -1.02 -0.427 -1.259 -0.235 -0.239 -0.427 -0.77 -0.427 -1.18 0 -0.41 -0.128 -0.745 -0.285 -0.745 -0.157 0 -0.285 -0.326 -0.285 -0.724 0 -0.451 -0.161 -0.724 -0.427 -0.724 -0.235 0 -0.427 -0.196 -0.427 -0.435 0 -0.239 -0.192 -0.435 -0.427 -0.435 -0.266 0 -0.427 -0.274 -0.427 -0.724 0 -0.398 -0.128 -0.724 -0.285 -0.724 -0.157 0 -0.285 -0.196 -0.285 -0.435 0 -0.239 -0.192 -0.435 -0.427 -0.435 -0.235 0 -0.427 -0.196 -0.427 -0.435 0 -0.239 -0.137 -0.435 -0.305 -0.435 -0.394 0 -1.119 -0.737 -1.119 -1.138 0 -0.171 -0.192 -0.31 -0.427 -0.31 -0.235 0 -0.427 -0.196 -0.427 -0.435 0 -0.27 -0.269 -0.435 -0.712 -0.435 -0.392 0 -0.712 -0.13 -0.712 -0.29 0 -0.159 -0.384 -0.29 -0.854 -0.29 -0.57 0 -0.854 -0.145 -0.854 -0.435 0 -0.304 -0.301 -0.435 -0.997 -0.435 -0.873 0 -0.997 -0.09 -0.997 -0.724 0 -0.451 -0.161 -0.724 -0.427 -0.724 -0.309 0 -0.427 -0.322 -0.427 -1.159 0 -0.837 0.119 -1.159 0.427 -1.159 0.235 0 0.427 -0.14 0.427 -0.31 0 -0.401 0.725 -1.138 1.119 -1.138 0.168 0 0.305 -0.196 0.305 -0.435 0 -0.239 0.128 -0.435 0.285 -0.435 0.157 0 0.285 -0.196 0.285 -0.435 0 -0.239 0.192 -0.435 0.427 -0.435 0.266 0 0.427 -0.274 0.427 -0.724 0 -0.451 0.161 -0.724 0.427 -0.724 0.235 0 0.427 -0.196 0.427 -0.435 0 -0.239 0.128 -0.435 0.285 -0.435 0.157 0 0.285 -0.326 0.285 -0.724 0 -0.451 0.161 -0.724 0.427 -0.724 0.285 0 0.427 -0.29 0.427 -0.869 0 -0.579 0.142 -0.869 0.427 -0.869 0.35 0 0.427 -0.499 0.427 -2.752 0 -2.253 -0.077 -2.752 -0.427 -2.752 -0.235 0 -0.427 -0.196 -0.427 -0.435 0 -0.239 -0.192 -0.435 -0.427 -0.435 -0.235 0 -0.427 -0.196 -0.427 -0.435 0 -0.27 -0.269 -0.435 -0.712 -0.435 -0.392 0 -0.712 -0.13 -0.712 -0.29 0 -0.159 -0.384 -0.29 -0.854 -0.29 -0.57 0 -0.854 -0.145 -0.854 -0.435 0 -0.362 -0.57 -0.435 -3.417 -0.435 -2.848 0 -3.417 0.072 -3.417 0.435 0 0.338 -0.38 0.435 -1.709 0.435 -0.949 0 -1.709 0.129 -1.709 0.29 0 0.159 -0.375 0.29 -0.834 0.29 -0.459 0 -1.026 0.196 -1.261 0.435 -0.235 0.239 -0.757 0.435 -1.159 0.435 -0.461 0 -0.732 0.161 -0.732 0.435 0 0.27 -0.269 0.435 -0.712 0.435 -0.392 0 -0.712 0.13 -0.712 0.29 0 0.159 -0.192 0.29 -0.427 0.29 -0.235 0 -0.427 0.196 -0.427 0.435 0 0.27 -0.269 0.435 -0.712 0.435 -0.443 0 -0.712 0.164 -0.712 0.435 0 0.239 -0.192 0.435 -0.427 0.435 -0.235 0 -0.427 0.196 -0.427 0.435 0 0.251 -0.257 0.435 -0.608 0.435 -0.334 0 -0.905 0.326 -1.268 0.724 -0.363 0.398 -0.794 0.724 -0.958 0.724 -0.164 0 -0.298 0.165 -0.298 0.366 0 0.201 -0.32 0.611 -0.712 0.91 -0.392 0.299 -0.712 0.665 -0.712 0.814 0 0.148 -0.16 0.452 -0.356 0.674 -0.886 1 -1.068 1.297 -1.068 1.715 0 0.246 -0.126 0.447 -0.279 0.447 -0.154 0 -0.36 0.326 -0.458 0.724 -0.098 0.398 -0.357 0.724 -0.575 0.724 -0.233 0 -0.396 0.299 -0.396 0.724 0 0.398 -0.128 0.724 -0.285 0.724 -0.157 0 -0.285 0.196 -0.285 0.435 0 0.239 -0.192 0.435 -0.427 0.435 -0.266 0 -0.427 0.274 -0.427 0.724 0 0.398 -0.128 0.724 -0.285 0.724 -0.157 0 -0.285 0.391 -0.285 0.869 0 0.579 -0.142 0.869 -0.427 0.869 -0.266 0 -0.427 0.274 -0.427 0.724 0 0.451 -0.161 0.724 -0.427 0.724 -0.285 0 -0.427 0.29 -0.427 0.869 0 0.478 -0.128 0.869 -0.285 0.869 -0.157 0 -0.285 0.456 -0.285 1.014 0 0.708 -0.129 1.014 -0.427 1.014 -0.285 0 -0.427 0.29 -0.427 0.869 0 0.579 -0.142 0.869 -0.427 0.869 -0.309 0 -0.427 0.322 -0.427 1.159 0 0.637 -0.128 1.159 -0.285 1.159 -0.157 0 -0.285 0.522 -0.285 1.159 0 0.837 -0.119 1.159 -0.427 1.159 -0.309 0 -0.427 0.322 -0.427 1.159 0 0.837 -0.119 1.159 -0.427 1.159 -0.309 0 -0.427 0.322 -0.427 1.159 0 0.637 -0.128 1.159 -0.285 1.159 -0.157 0 -0.285 0.717 -0.285 1.593 0 1.223 -0.099 1.593 -0.427 1.593 -0.309 0 -0.427 0.322 -0.427 1.159 0 0.837 -0.119 1.159 -0.427 1.159 -0.309 0 -0.427 0.322 -0.427 1.159 0 0.637 -0.128 1.159 -0.285 1.159 -0.157 0 -0.285 0.508 -0.285 1.128 0 0.735 -0.149 1.186 -0.427 1.295 -0.282 0.11 -0.427 0.564 -0.427 1.335 0 0.845 -0.118 1.168 -0.427 1.168 -0.309 0 -0.427 0.322 -0.427 1.159 0 0.637 -0.128 1.159 -0.285 1.159 -0.157 0 -0.285 0.522 -0.285 1.159 0 0.837 -0.119 1.159 -0.427 1.159 -0.261 0 -0.427 0.27 -0.427 0.693 0 0.381 -0.192 0.768 -0.427 0.86 -0.235 0.092 -0.427 0.497 -0.427 0.9 0 0.403 -0.128 0.733 -0.285 0.733 -0.157 0 -0.285 0.522 -0.285 1.159 0 0.837 -0.119 1.159 -0.427 1.159 -0.269 0 -0.427 0.276 -0.427 0.745 0 0.41 -0.192 0.941 -0.427 1.18 -0.235 0.239 -0.427 0.751 -0.427 1.138 0 0.387 -0.128 0.704 -0.285 0.704 -0.157 0 -0.285 0.196 -0.285 0.435 0 0.239 -0.118 0.435 -0.262 0.435 -0.144 0 -0.347 0.391 -0.45 0.869 -0.103 0.478 -0.303 0.869 -0.444 0.869 -0.141 0 -0.337 0.326 -0.435 0.724 -0.098 0.398 -0.293 0.724 -0.433 0.724 -0.14 0 -0.254 0.391 -0.254 0.869 0 0.478 -0.126 0.869 -0.279 0.869 -0.154 0 -0.36 0.326 -0.458 0.724 -0.098 0.398 -0.293 0.724 -0.433 0.724 -0.14 0 -0.254 0.326 -0.254 0.724 0 0.451 -0.161 0.724 -0.427 0.724 -0.266 0 -0.427 0.274 -0.427 0.724 0 0.451 -0.161 0.724 -0.427 0.724 -0.269 0 -0.427 0.276 -0.427 0.745 0 0.764 -0.575 1.573 -1.119 1.573 -0.168 0 -0.305 0.391 -0.305 0.869 0 0.579 -0.142 0.869 -0.427 0.869 -0.235 0 -0.427 0.196 -0.427 0.435 0 0.239 -0.128 0.435 -0.285 0.435 -0.157 0 -0.285 0.326 -0.285 0.724 0 0.451 -0.161 0.724 -0.427 0.724 -0.266 0 -0.427 0.274 -0.427 0.724 0 0.451 -0.161 0.724 -0.427 0.724 -0.235 0 -0.427 0.196 -0.427 0.435 0 0.239 -0.128 0.435 -0.285 0.435 -0.157 0 -0.285 0.391 -0.285 0.869 0 0.579 -0.142 0.869 -0.427 0.869 -0.235 0 -0.427 0.13 -0.427 0.29 0 0.159 -0.192 0.29 -0.427 0.29 -0.235 0 -0.427 0.196 -0.427 0.435 0 0.239 -0.128 0.435 -0.285 0.435 -0.157 0 -0.285 0.326 -0.285 0.724 0 0.451 -0.161 0.724 -0.427 0.724 -0.235 0 -0.427 0.137 -0.427 0.304 0 0.167 -0.32 0.606 -0.712 0.975 -0.392 0.369 -0.712 0.95 -0.712 1.29 0 0.357 -0.181 0.619 -0.427 0.619 -0.235 0 -0.427 0.196 -0.427 0.435 0 0.239 -0.192 0.435 -0.427 0.435 -0.266 0 -0.427 0.274 -0.427 0.724 0 0.398 -0.128 0.724 -0.285 0.724 -0.157 0 -0.285 0.196 -0.285 0.435 0 0.239 -0.192 0.435 -0.427 0.435 -0.235 0 -0.427 0.196 -0.427 0.435 0 0.239 -0.126 0.435 -0.279 0.435 -0.154 0 -0.36 0.326 -0.458 0.724 -0.098 0.398 -0.293 0.724 -0.433 0.724 -0.14 0 -0.254 0.196 -0.254 0.435 0 0.239 -0.137 0.435 -0.305 0.435 -0.394 0 -1.119 0.737 -1.119 1.138 0 0.171 -0.192 0.31 -0.427 0.31 -0.235 0 -0.427 0.196 -0.427 0.435 0 0.239 -0.192 0.435 -0.427 0.435 -0.235 0 -0.427 0.196 -0.427 0.435 0 0.239 -0.128 0.435 -0.285 0.435 -0.157 0 -0.285 0.326 -0.285 0.724 0 0.451 -0.161 0.724 -0.427 0.724 -0.235 0 -0.427 0.196 -0.427 0.435 0 0.239 -0.137 0.435 -0.305 0.435 -0.394 0 -1.119 0.737 -1.119 1.138 0 0.171 -0.192 0.31 -0.427 0.31 -0.235 0 -0.427 0.196 -0.427 0.435 0 0.239 -0.192 0.435 -0.427 0.435 -0.235 0 -0.427 0.196 -0.427 0.435 0 0.239 -0.128 0.435 -0.285 0.435 -0.157 0 -0.285 0.196 -0.285 0.435 0 0.239 -0.192 0.435 -0.427 0.435 -0.266 0 -0.427 0.274 -0.427 0.724 0 0.398 -0.137 0.724 -0.305 0.724 -0.394 0 -1.119 0.737 -1.119 1.138 0 0.171 -0.192 0.31 -0.427 0.31 -0.235 0 -0.427 0.196 -0.427 0.435 0 0.239 -0.137 0.435 -0.305 0.435 -0.394 0 -1.119 0.737 -1.119 1.138 0 0.171 -0.192 0.31 -0.427 0.31 -0.235 0 -0.427 0.196 -0.427 0.435 0 0.239 -0.192 0.435 -0.427 0.435 -0.235 0 -0.427 0.14 -0.427 0.31 0 0.401 -0.725 1.138 -1.119 1.138 -0.168 0 -0.305 0.196 -0.305 0.435 0 0.27 -0.269 0.435 -0.712 0.435 -0.392 0 -0.712 0.14 -0.712 0.31 0 0.37 -0.713 1.138 -1.055 1.138 -0.313 0 -1.223 1.08 -1.223 1.452 0 0.158 -0.137 0.286 -0.305 0.286 -0.168 0 -0.488 0.186 -0.712 0.414 -0.224 0.228 -0.407 0.554 -0.407 0.724 0 0.171 -0.192 0.31 -0.427 0.31 -0.235 0 -0.427 0.196 -0.427 0.435 0 0.27 -0.269 0.435 -0.712 0.435 -0.443 0 -0.712 0.164 -0.712 0.435 0 0.239 -0.192 0.435 -0.427 0.435 -0.235 0 -0.427 0.13 -0.427 0.29 0 0.159 -0.192 0.29 -0.427 0.29 -0.235 0 -0.427 0.196 -0.427 0.435 0 0.239 -0.128 0.435 -0.285 0.435 -0.157 0 -0.285 0.196 -0.285 0.435 0 0.27 -0.269 0.435 -0.712 0.435 -0.392 0 -0.712 0.13 -0.712 0.29 0 0.159 -0.192 0.29 -0.427 0.29 -0.235 0 -0.427 0.196 -0.427 0.435 0 0.239 -0.192 0.435 -0.427 0.435 -0.235 0 -0.427 0.196 -0.427 0.435 0 0.27 -0.269 0.435 -0.712 0.435 -0.443 0 -0.712 0.164 -0.712 0.435 0 0.239 -0.192 0.435 -0.427 0.435 -0.235 0 -0.427 0.13 -0.427 0.29 0 0.159 -0.192 0.29 -0.427 0.29 -0.235 0 -0.427 0.196 -0.427 0.435 0 0.27 -0.269 0.435 -0.712 0.435 -0.443 0 -0.712 0.164 -0.712 0.435 0 0.27 -0.269 0.435 -0.712 0.435 -0.443 0 -0.712 -0.164 -0.712 -0.435 0 -0.239 -0.128 -0.435 -0.285 -0.435 -0.157 0 -0.285 -0.196 -0.285 -0.435 0 -0.239 -0.192 -0.435 -0.427 -0.435 -0.235 0 -0.427 -0.13 -0.427 -0.29 0 -0.159 -0.192 -0.29 -0.427 -0.29 -0.235 0 -0.427 -0.196 -0.427 -0.435 0 -0.239 -0.128 -0.435 -0.285 -0.435 -0.157 0 -0.285 -0.196 -0.285 -0.435 0 -0.239 -0.192 -0.435 -0.427 -0.435 -0.235 0 -0.427 -0.196 -0.427 -0.435 0 -0.239 -0.137 -0.435 -0.305 -0.435 -0.482 0 -1.119 -0.776 -1.119 -1.364 0 -0.547 -0.918 -1.534 -1.427 -1.534 -0.155 0 -0.282 -0.196 -0.282 -0.435 0 -0.239 -0.128 -0.435 -0.285 -0.435 -0.157 0 -0.285 -0.196 -0.285 -0.435 0 -0.239 -0.192 -0.435 -0.427 -0.435 -0.266 0 -0.427 -0.274 -0.427 -0.724 0 -0.451 -0.161 -0.724 -0.427 -0.724 -0.235 0 -0.427 -0.196 -0.427 -0.435 0 -0.239 -0.128 -0.435 -0.285 -0.435 -0.157 0 -0.285 -0.196 -0.285 -0.435 0 -0.239 -0.192 -0.435 -0.427 -0.435 -0.266 0 -0.427 -0.274 -0.427 -0.724 0 -0.451 -0.161 -0.724 -0.427 -0.724 -0.235 0 -0.427 -0.196 -0.427 -0.435 0 -0.239 -0.128 -0.435 -0.285 -0.435 -0.157 0 -0.285 -0.326 -0.285 -0.724 0 -0.451 -0.161 -0.724 -0.427 -0.724 -0.235 0 -0.427 -0.196 -0.427 -0.435 0 -0.239 -0.128 -0.435 -0.285 -0.435 -0.157 0 -0.285 -0.326 -0.285 -0.724 0 -0.426 -0.163 -0.724 -0.396 -0.724 -0.218 0 -0.477 -0.326 -0.575 -0.724 -0.098 -0.398 -0.304 -0.724 -0.458 -0.724 -0.154 0 -0.279 -0.196 -0.279 -0.435 0 -0.239 -0.128 -0.435 -0.285 -0.435 -0.157 0 -0.285 -0.391 -0.285 -0.869 0 -0.579 -0.142 -0.869 -0.427 -0.869 -0.266 0 -0.427 -0.274 -0.427 -0.724 0 -0.451 -0.161 -0.724 -0.427 -0.724 -0.285 0 -0.427 -0.29 -0.427 -0.869 0 -0.478 -0.128 -0.869 -0.285 -0.869 -0.157 0 -0.285 -0.326 -0.285 -0.724 0 -0.421 -0.164 -0.724 -0.391 -0.724 -0.236 0 -0.463 -0.46 -0.573 -1.159 -0.1 -0.637 -0.309 -1.159 -0.464 -1.159 -0.155 0 -0.281 -0.391 -0.281 -0.869 0 -0.478 -0.128 -0.869 -0.285 -0.869 -0.157 0 -0.285 -0.46 -0.285 -1.023 0 -0.642 -0.159 -1.085 -0.427 -1.19 -0.235 -0.092 -0.427 -0.479 -0.427 -0.86 0 -0.423 -0.166 -0.693 -0.427 -0.693 -0.309 0 -0.427 -0.322 -0.427 -1.159 0 -0.637 -0.128 -1.159 -0.285 -1.159 -0.157 0 -0.285 -0.717 -0.285 -1.593 0 -1.223 -0.099 -1.594 -0.427 -1.594 -0.328 0 -0.427 -0.37 -0.427 -1.593 0 -1.223 -0.099 -1.594 -0.427 -1.594 -0.336 0 -0.427 -0.402 -0.427 -1.883 0 -1.062 -0.124 -1.883 -0.285 -1.883 -0.166 0 -0.285 -0.969 -0.285 -2.327 0 -1.801 -0.097 -2.365 -0.427 -2.494 -0.358 -0.14 -0.427 -1.026 -0.427 -5.496 0 -4.544 -0.063 -5.329 -0.427 -5.329 -0.235 0 -0.427 -0.196 -0.427 -0.435 0 -0.239 0.192 -0.435 0.427 -0.435 0.363 0 0.427 -0.743 0.427 -4.946 0 -4.01 0.081 -5.03 0.427 -5.381 0.312 -0.318 0.427 -1.092 0.427 -2.877 0 -1.435 0.117 -2.442 0.285 -2.442 0.161 0 0.285 -0.821 0.285 -1.883 0 -1.481 0.091 -1.883 0.427 -1.883 0.31 0 0.427 -0.324 0.427 -1.18 0 -0.662 0.187 -1.37 0.427 -1.614 0.235 -0.239 0.427 -0.947 0.427 -1.573 0 -0.626 0.128 -1.138 0.285 -1.138 0.157 0 0.285 -0.522 0.285 -1.159 0 -0.837 0.119 -1.159 0.427 -1.159 0.309 0 0.427 -0.322 0.427 -1.159 0 -0.837 0.119 -1.159 0.427 -1.159 0.309 0 0.427 -0.322 0.427 -1.159 0 -0.637 0.128 -1.159 0.285 -1.159 0.157 0 0.285 -0.391 0.285 -0.869 0 -0.579 0.142 -0.869 0.427 -0.869 0.266 0 0.427 -0.274 0.427 -0.724 0 -0.451 0.161 -0.724 0.427 -0.724 0.285 0 0.427 -0.29 0.427 -0.869 0 -0.478 0.128 -0.869 0.285 -0.869 0.157 0 0.285 -0.312 0.285 -0.693 0 -0.381 0.192 -0.768 0.427 -0.86 0.235 -0.092 0.427 -0.418 0.427 -0.724 0 -0.307 0.192 -0.633 0.427 -0.724 0.235 -0.092 0.427 -0.497 0.427 -0.9 0 -0.403 0.128 -0.733 0.285 -0.733 0.157 0 0.285 -0.326 0.285 -0.724 0 -0.451 0.161 -0.724 0.427 -0.724 0.235 0 0.427 -0.196 0.427 -0.435 0 -0.239 0.114 -0.435 0.254 -0.435 0.14 0 0.334 -0.326 0.433 -0.724 0.098 -0.398 0.304 -0.724 0.458 -0.724 0.154 0 0.279 -0.391 0.279 -0.869 0 -0.579 0.142 -0.869 0.427 -0.869 0.235 0 0.427 -0.196 0.427 -0.435 0 -0.239 0.128 -0.435 0.285 -0.435 0.157 0 0.285 -0.326 0.285 -0.724 0 -0.451 0.161 -0.724 0.427 -0.724 0.235 0 0.427 -0.196 0.427 -0.435 0 -0.239 0.192 -0.435 0.427 -0.435 0.235 0 0.427 -0.196 0.427 -0.435 0 -0.239 0.128 -0.435 0.285 -0.435 0.157 0 0.285 -0.326 0.285 -0.724 0 -0.451 0.161 -0.724 0.427 -0.724 0.235 0 0.427 -0.13 0.427 -0.29 0 -0.159 0.192 -0.29 0.427 -0.29 0.237 0 0.427 -0.258 0.427 -0.579 0 -0.319 0.128 -0.579 0.285 -0.579 0.157 0 0.285 -0.326 0.285 -0.724 0 -0.451 0.161 -0.724 0.427 -0.724 0.235 0 0.427 -0.13 0.427 -0.29 0 -0.159 0.192 -0.29 0.427 -0.29 0.235 0 0.427 -0.196 0.427 -0.435 0 -0.239 0.128 -0.435 0.285 -0.435 0.157 0 0.285 -0.196 0.285 -0.435 0 -0.239 0.192 -0.435 0.427 -0.435 0.235 0 0.427 -0.13 0.427 -0.29 0 -0.159 0.192 -0.29 0.427 -0.29 0.235 0 0.427 -0.196 0.427 -0.435 0 -0.239 0.128 -0.435 0.285 -0.435 0.157 0 0.285 -0.196 0.285 -0.435 0 -0.239 0.138 -0.435 0.307 -0.435 0.399 0 1.972 -1.6 1.972 -2.01 0 -0.172 0.192 -0.312 0.427 -0.312 0.235 0 0.427 -0.196 0.427 -0.435 0 -0.239 0.137 -0.435 0.305 -0.435 0.394 0 1.119 -0.737 1.119 -1.138 0 -0.171 0.192 -0.31 0.427 -0.31 0.235 0 0.427 -0.196 0.427 -0.435 0 -0.239 0.137 -0.435 0.305 -0.435 0.394 0 1.119 -0.737 1.119 -1.138 0 -0.171 0.384 -0.31 0.854 -0.31 0.47 0 0.854 -0.14 0.854 -0.31 0 -0.401 0.725 -1.138 1.119 -1.138 0.168 0 0.305 -0.196 0.305 -0.435 0 -0.27 0.269 -0.435 0.712 -0.435 0.443 0 0.712 -0.164 0.712 -0.435 0 -0.239 0.192 -0.435 0.427 -0.435 0.235 0 0.427 -0.14 0.427 -0.31 0 -0.553 0.795 -1.138 1.546 -1.138 0.461 0 0.732 -0.161 0.732 -0.435 0 -0.27 0.269 -0.435 0.712 -0.435 0.443 0 0.712 -0.164 0.712 -0.435 0 -0.239 0.192 -0.435 0.427 -0.435 0.235 0 0.427 -0.13 0.427 -0.29 0 -0.159 0.32 -0.29 0.712 -0.29 0.443 0 0.712 -0.164 0.712 -0.435 0 -0.27 0.269 -0.435 0.712 -0.435 0.443 0 0.712 -0.164 0.712 -0.435 0 -0.239 0.192 -0.435 0.427 -0.435 0.235 0 0.427 -0.196 0.427 -0.435 0 -0.27 0.269 -0.435 0.712 -0.435 0.392 0 0.712 -0.13 0.712 -0.29 0 -0.159 0.375 -0.29 0.834 -0.29 0.459 0 1.026 -0.196 1.261 -0.435 0.235 -0.239 0.693 -0.435 1.017 -0.435 0.335 0 0.59 -0.188 0.59 -0.435 0 -0.29 0.285 -0.435 0.854 -0.435 0.47 0 0.854 -0.13 0.854 -0.29 0 -0.159 0.32 -0.29 0.712 -0.29 0.443 0 0.712 -0.164 0.712 -0.435 0 -0.314 0.316 -0.435 1.139 -0.435 0.823 0 1.139 -0.121 1.139 -0.435 0 -0.314 0.316 -0.435 1.139 -0.435 0.627 0 1.139 -0.13 1.139 -0.29 0 -0.159 0.32 -0.29 0.712 -0.29 0.443 0 0.712 -0.164 0.712 -0.435 0 -0.329 0.349 -0.435 1.433 -0.435 1.01 0 1.481 -0.128 1.597 -0.435 0.118 -0.312 0.597 -0.435 1.7 -0.435 1.175 0 1.536 -0.102 1.536 -0.435 0 -0.328 0.348 -0.435 1.424 -0.435 0.783 0 1.424 -0.13 1.424 -0.29 0 -0.169 0.949 -0.29 2.278 -0.29 1.835 0 2.278 -0.084 2.278 -0.435 0 -0.365 0.617 -0.435 3.845 -0.435 3.228 0 3.845 -0.07 3.845 -0.435 0 -0.368 0.68 -0.435 4.414 -0.435 3.734 0 4.414 0.067 4.414 0.435 0 0.365 0.617 0.435 3.845 0.435 3.228 0 3.845 0.07 3.845 0.435 0 0.35 0.443 0.435 2.278 0.435 1.329 0 2.278 0.121 2.278 0.29 0 0.159 0.641 0.29 1.424 0.29 1.076 0 1.424 0.106 1.424 0.435 0 0.334 0.364 0.435 1.566 0.435 1.202 0 1.566 0.101 1.566 0.435 0 0.328 0.348 0.435 1.424 0.435 1.076 0 1.424 0.106 1.424 0.435 0 0.29 0.285 0.435 0.854 0.435 0.47 0 0.854 0.13 0.854 0.29 0 0.159 0.513 0.29 1.139 0.29 0.823 0 1.139 0.121 1.139 0.435 0 0.304 0.301 0.435 0.997 0.435 0.696 0 0.997 0.131 0.997 0.435 0 0.29 0.285 0.435 0.854 0.435 0.47 0 0.854 0.13 0.854 0.29 0 0.159 0.384 0.29 0.854 0.29 0.57 0 0.854 0.145 0.854 0.435 0 0.246 0.255 0.435 0.59 0.435 0.324 0 0.782 0.196 1.017 0.435 0.235 0.239 0.738 0.435 1.119 0.435 0.38 0 0.692 0.13 0.692 0.29 0 0.159 0.384 0.29 0.854 0.29 0.47 0 0.854 0.129 0.854 0.286 0 0.566 0.994 1.452 1.63 1.452 0.387 0 0.649 0.175 0.649 0.435 0 0.27 0.269 0.435 0.712 0.435 0.392 0 0.712 0.13 0.712 0.29 0 0.159 0.192 0.29 0.427 0.29 0.235 0 0.427 0.196 0.427 0.435 0 0.27 0.269 0.435 0.712 0.435 0.443 0 0.712 0.164 0.712 0.435 0 0.27 0.269 0.435 0.712 0.435 0.392 0 0.712 0.13 0.712 0.29 0 0.159 0.192 0.29 0.427 0.29 0.235 0 0.427 0.196 0.427 0.435 0 0.239 0.128 0.435 0.285 0.435 0.157 0 0.285 0.196 0.285 0.435 0 0.29 0.285 0.435 0.854 0.435 0.47 0 0.854 0.14 0.854 0.31 0 0.401 0.725 1.138 1.119 1.138 0.168 0 0.305 0.196 0.305 0.435 0 0.27 0.269 0.435 0.712 0.435 0.443 0 0.712 0.164 0.712 0.435 0 0.239 0.192 0.435 0.427 0.435 0.235 0 0.427 0.13 0.427 0.29 0 0.159 0.192 0.29 0.427 0.29 0.235 0 0.427 0.196 0.427 0.435 0 0.239 0.128 0.435 0.285 0.435 0.157 0 0.285 0.196 0.285 0.435 0 0.239 0.192 0.435 0.427 0.435 0.235 0 0.427 0.13 0.427 0.29 0 0.159 0.192 0.29 0.427 0.29 0.235 0 0.427 0.196 0.427 0.435 0 0.239 0.128 0.435 0.285 0.435 0.157 0 0.285 0.196 0.285 0.435 0 0.239 0.192 0.435 0.427 0.435 0.235 0 0.427 0.196 0.427 0.435 0 0.239 0.137 0.435 0.305 0.435 0.394 0 1.119 0.737 1.119 1.138 0 0.171 0.192 0.31 0.427 0.31 0.235 0 0.427 0.196 0.427 0.435 0 0.239 0.137 0.435 0.305 0.435 0.394 0 1.119 0.737 1.119 1.138 0 0.171 0.192 0.31 0.427 0.31 0.235 0 0.427 0.196 0.427 0.435 0 0.239 0.137 0.435 0.305 0.435 0.434 0 1.01 0.644 1.243 1.39 0.11 0.351 0.319 0.638 0.465 0.638 0.146 0 0.266 0.261 0.266 0.579 0 0.319 0.137 0.579 0.305 0.579 0.434 0 1.01 0.644 1.243 1.39 0.11 0.351 0.319 0.638 0.465 0.638 0.146 0 0.266 0.196 0.266 0.435 0 0.239 0.128 0.435 0.285 0.435 0.157 0 0.285 0.196 0.285 0.435 0 0.239 0.178 0.435 0.396 0.435 0.218 0 0.477 0.326 0.575 0.724 0.098 0.398 0.304 0.724 0.458 0.724 0.154 0 0.279 0.196 0.279 0.435 0 0.239 0.128 0.435 0.285 0.435 0.157 0 0.285 0.391 0.285 0.869 0 0.574 0.143 0.869 0.422 0.869 0.232 0 0.502 0.326 0.6 0.724 0.098 0.398 0.293 0.724 0.433 0.724 0.14 0 0.254 0.196 0.254 0.435 0 0.239 0.128 0.435 0.285 0.435 0.157 0 0.285 0.326 0.285 0.724 0 0.451 0.161 0.724 0.427 0.724 0.267 0 0.427 0.275 0.427 0.733 0 0.403 0.192 0.808 0.427 0.9 0.235 0.092 0.427 0.479 0.427 0.86 0 0.381 0.128 0.693 0.285 0.693 0.157 0 0.285 0.326 0.285 0.724 0 0.451 0.161 0.724 0.427 0.724 0.285 0 0.427 0.29 0.427 0.869 0 0.579 0.142 0.869 0.427 0.869 0.266 0 0.427 0.274 0.427 0.724 0 0.398 0.128 0.724 0.285 0.724 0.157 0 0.285 0.391 0.285 0.869 0 0.579 0.142 0.869 0.427 0.869 0.309 0 0.427 0.322 0.427 1.159 0 0.837 0.119 1.159 0.427 1.159 0.309 0 0.427 0.322 0.427 1.159 0 0.637 0.128 1.159 0.285 1.159 0.157 0 0.285 0.46 0.285 1.023 0 0.642 0.159 1.085 0.427 1.19 0.299 0.117 0.427 0.592 0.427 1.584 0 1.067 0.106 1.418 0.427 1.418 0.316 0 0.427 0.338 0.427 1.304 0 0.717 0.128 1.304 0.285 1.304 0.161 0 0.285 0.821 0.285 1.883 0 1.481 0.091 1.883 0.427 1.883 0.35 0 0.427 0.499 0.427 2.752 0 2.253 0.077 2.752 0.427 2.752 0.363 0 0.427 0.757 0.427 5.07 0 3.187 0.106 5.07 0.285 5.07 0.157 0 0.285 0.196 0.285 0.435 0 0.239 -0.128 0.435 -0.285 0.435 -0.18 0 -0.285 1.98 -0.285 5.36 0 4.571 -0.063 5.36 -0.427 5.36 -0.35 0 -0.427 0.499 -0.427 2.752 0 2.253 -0.077 2.752 -0.427 2.752 -0.328 0 -0.427 0.37 -0.427 1.593 0 0.876 -0.128 1.593 -0.285 1.593 -0.157 0 -0.285 0.717 -0.285 1.594 0 1.223 -0.099 1.593 -0.427 1.593 -0.328 0 -0.427 0.37 -0.427 1.594 0 1.223 -0.099 1.593 -0.427 1.593 -0.309 0 -0.427 0.322 -0.427 1.159 0 0.637 -0.128 1.159 -0.285 1.159 -0.157 0 -0.285 0.391 -0.285 0.869 0 0.579 -0.142 0.869 -0.427 0.869 -0.296 0 -0.427 0.302 -0.427 0.983 0 0.607 -0.164 1.047 -0.427 1.15 -0.282 0.11 -0.427 0.564 -0.427 1.335 0 0.642 -0.128 1.168 -0.285 1.168 -0.157 0 -0.285 0.326 -0.285 0.724 0 0.451 -0.161 0.724 -0.427 0.724 -0.266 0 -0.427 0.274 -0.427 0.724 0 0.451 -0.161 0.724 -0.427 0.724 -0.285 0 -0.427 0.29 -0.427 0.869 0 0.478 -0.128 0.869 -0.285 0.869 -0.157 0 -0.285 0.326 -0.285 0.724 0 0.451 -0.161 0.724 -0.427 0.724 -0.285 0 -0.427 0.29 -0.427 0.869 0 0.579 -0.142 0.869 -0.427 0.869 -0.235 0 -0.427 0.196 -0.427 0.435 0 0.239 -0.128 0.435 -0.285 0.435 -0.157 0 -0.285 0.326 -0.285 0.724 0 0.451 -0.161 0.724 -0.427 0.724 -0.266 0 -0.427 0.274 -0.427 0.724 0 0.451 -0.161 0.724 -0.427 0.724 -0.235 0 -0.427 0.196 -0.427 0.435 0 0.239 -0.128 0.435 -0.285 0.435 -0.157 0 -0.285 0.326 -0.285 0.724 0 0.451 -0.161 0.724 -0.427 0.724 -0.235 0 -0.427 0.196 -0.427 0.435 0 0.239 -0.114 0.435 -0.254 0.435 -0.14 0 -0.334 0.326 -0.433 0.724 -0.098 0.398 -0.304 0.724 -0.458 0.724 -0.154 0 -0.279 0.137 -0.279 0.304 0 0.167 -0.32 0.606 -0.712 0.975 -0.392 0.369 -0.712 0.95 -0.712 1.29 0 0.357 -0.181 0.619 -0.427 0.619 -0.235 0 -0.427 0.196 -0.427 0.435 0 0.239 -0.192 0.435 -0.427 0.435 -0.235 0 -0.427 0.196 -0.427 0.435 0 0.239 -0.128 0.435 -0.285 0.435 -0.157 0 -0.285 0.196 -0.285 0.435 0 0.239 -0.192 0.435 -0.427 0.435 -0.266 0 -0.427 0.274 -0.427 0.724 0 0.398 -0.137 0.724 -0.305 0.724 -0.394 0 -1.119 0.737 -1.119 1.138 0 0.171 -0.192 0.31 -0.427 0.31 -0.235 0 -0.427 0.196 -0.427 0.435 0 0.239 -0.192 0.435 -0.427 0.435 -0.235 0 -0.427 0.14 -0.427 0.31 0 0.401 -0.725 1.138 -1.119 1.138 -0.168 0 -0.305 0.196 -0.305 0.435 0 0.239 -0.192 0.435 -0.427 0.435 -0.235 0 -0.427 0.14 -0.427 0.31 0 0.401 -0.725 1.138 -1.119 1.138 -0.168 0 -0.305 0.196 -0.305 0.435 0 0.239 -0.192 0.435 -0.427 0.435 -0.235 0 -0.427 0.196 -0.427 0.435 0 0.239 -0.198 0.435 -0.441 0.435 -0.242 0 -0.738 0.326 -1.101 0.724 -0.363 0.398 -0.805 0.724 -0.983 0.724 -0.178 0 -0.323 0.196 -0.323 0.435 0 0.239 -0.192 0.435 -0.427 0.435 -0.235 0 -0.427 0.196 -0.427 0.435 0 0.251 -0.257 0.435 -0.608 0.435 -0.334 0 -0.905 0.326 -1.268 0.724 -0.363 0.398 -0.794 0.724 -0.958 0.724 -0.164 0 -0.298 0.196 -0.298 0.435 0 0.241 -0.253 0.435 -0.57 0.435 -0.313 0 -0.57 0.13 -0.57 0.29 0 0.159 -0.192 0.29 -0.427 0.29 -0.235 0 -0.427 0.181 -0.427 0.403 0 0.222 -0.32 0.485 -0.712 0.585 -0.392 0.1 -0.712 0.31 -0.712 0.466 0 0.156 -0.192 0.284 -0.427 0.284 -0.235 0 -0.427 0.13 -0.427 0.29 0 0.159 -0.292 0.29 -0.649 0.29 -0.357 0 -0.868 0.261 -1.136 0.579 -0.268 0.319 -0.681 0.579 -0.918 0.579 -0.236 0 -0.43 0.13 -0.43 0.29 0 0.159 -0.192 0.29 -0.427 0.29 -0.235 0 -0.427 0.196 -0.427 0.435 0 0.27 -0.269 0.435 -0.712 0.435 -0.392 0 -0.712 0.13 -0.712 0.29 0 0.159 -0.32 0.29 -0.712 0.29 -0.443 0 -0.712 0.164 -0.712 0.435 0 0.29 -0.285 0.435 -0.854 0.435 -0.57 0 -0.854 0.145 -0.854 0.435 0 0.27 -0.269 0.435 -0.712 0.435 -0.392 0 -0.712 0.13 -0.712 0.29 0 0.159 -0.32 0.29 -0.712 0.29 -0.443 0 -0.712 0.164 -0.712 0.435 0 0.314 -0.316 0.435 -1.139 0.435 -0.823 0 -1.139 0.121 -1.139 0.435 0 0.314 -0.316 0.435 -1.139 0.435 -0.823 0 -1.139 0.121 -1.139 0.435 0 0.27 -0.269 0.435 -0.712 0.435 -0.392 0 -0.712 0.13 -0.712 0.29 0 0.159 -0.513 0.29 -1.139 0.29 -0.823 0 -1.139 0.121 -1.139 0.435 0 0.334 -0.364 0.435 -1.566 0.435 -1.202 0 -1.566 0.101 -1.566 0.435 0 0.334 -0.364 0.435 -1.566 0.435 -0.861 0 -1.566 0.115 -1.566 0.255 0 0.14 -0.779 0.312 -1.731 0.382 -0.952 0.07 -1.817 0.267 -1.922 0.437 -0.105 0.17 -1.27 0.359 -2.589 0.419 -1.567 0.072 -2.439 0.233 -2.516 0.467 -0.171 0.523 -19.619 0.519 -19.791 -0.004 z"/><path d="m 140.11 101.76 c 0 -1.223 0.099 -1.593 0.427 -1.593 0.323 0 0.427 -0.354 0.427 -1.449 0 -1.095 0.104 -1.449 0.427 -1.449 0.316 0 0.427 -0.338 0.427 -1.304 0 -0.717 0.128 -1.304 0.285 -1.304 0.157 0 0.285 -0.391 0.285 -0.869 0 -0.579 0.142 -0.869 0.427 -0.869 0.298 0 0.427 -0.306 0.427 -1.014 0 -0.708 0.129 -1.014 0.427 -1.014 0.285 0 0.427 -0.29 0.427 -0.869 0 -0.478 0.128 -0.869 0.285 -0.869 0.157 0 0.285 -0.326 0.285 -0.724 0 -0.398 0.127 -0.724 0.281 -0.724 0.155 0 0.363 -0.522 0.464 -1.159 0.11 -0.699 0.337 -1.159 0.573 -1.159 0.227 0 0.391 -0.304 0.391 -0.724 0 -0.398 0.128 -0.724 0.285 -0.724 0.157 0 0.285 -0.391 0.285 -0.869 0 -0.579 0.142 -0.869 0.427 -0.869 0.261 0 0.427 -0.27 0.427 -0.693 0 -0.381 0.192 -0.768 0.427 -0.86 0.235 -0.092 0.427 -0.497 0.427 -0.9 0 -0.403 0.128 -0.733 0.285 -0.733 0.157 0 0.285 -0.326 0.285 -0.724 0 -0.451 0.161 -0.724 0.427 -0.724 0.235 0 0.427 -0.196 0.427 -0.435 0 -0.239 0.126 -0.435 0.279 -0.435 0.154 0 0.36 -0.326 0.458 -0.724 0.098 -0.398 0.293 -0.724 0.433 -0.724 0.14 0 0.254 -0.196 0.254 -0.435 0 -0.239 0.128 -0.435 0.285 -0.435 0.157 0 0.285 -0.196 0.285 -0.435 0 -0.239 0.192 -0.435 0.427 -0.435 0.235 0 0.427 -0.196 0.427 -0.435 0 -0.239 0.192 -0.435 0.427 -0.435 0.266 0 0.427 -0.274 0.427 -0.724 0 -0.451 0.161 -0.724 0.427 -0.724 0.235 0 0.427 -0.128 0.427 -0.284 0 -0.156 0.32 -0.366 0.712 -0.466 0.392 -0.1 0.712 -0.298 0.712 -0.44 0 -0.142 0.192 -0.258 0.427 -0.258 0.235 0 0.427 -0.196 0.427 -0.435 0 -0.27 0.269 -0.435 0.712 -0.435 0.443 0 0.712 -0.164 0.712 -0.435 0 -0.239 0.192 -0.435 0.427 -0.435 0.235 0 0.427 -0.13 0.427 -0.29 0 -0.159 0.311 -0.29 0.692 -0.29 0.38 0 0.884 -0.196 1.119 -0.435 0.235 -0.239 0.757 -0.435 1.159 -0.435 0.461 0 0.732 -0.161 0.732 -0.435 0 -0.359 0.522 -0.435 2.99 -0.435 1.804 0 2.99 -0.115 2.99 -0.29 0 -0.163 0.807 -0.29 1.851 -0.29 h 1.851 v 0.983 c 0 0.607 -0.164 1.047 -0.427 1.15 -0.235 0.092 -0.427 0.497 -0.427 0.9 0 0.403 -0.128 0.733 -0.285 0.733 -0.157 0 -0.285 0.196 -0.285 0.435 0 0.239 -0.126 0.435 -0.279 0.435 -0.154 0 -0.36 0.326 -0.458 0.724 -0.098 0.398 -0.302 0.724 -0.453 0.724 -0.516 0 -1.088 0.827 -1.088 1.573 0 0.469 -0.158 0.745 -0.427 0.745 -0.235 0 -0.427 0.196 -0.427 0.435 0 0.239 -0.137 0.435 -0.305 0.435 -0.543 0 -1.119 0.809 -1.119 1.573 0 0.469 -0.158 0.745 -0.427 0.745 -0.269 0 -0.427 0.276 -0.427 0.745 0 0.41 -0.192 0.941 -0.427 1.18 -0.235 0.239 -0.427 0.751 -0.427 1.138 0 0.7 -0.014 0.704 -2.99 0.704 -2.468 0 -2.99 0.076 -2.99 0.435 0 0.239 -0.128 0.435 -0.285 0.435 -0.18 0 -0.285 2.028 -0.285 5.505 0 4.7 -0.062 5.505 -0.427 5.505 -0.309 0 -0.427 0.322 -0.427 1.159 0 0.837 -0.119 1.159 -0.427 1.159 -0.235 0 -0.427 0.14 -0.427 0.31 0 0.553 -0.795 1.138 -1.546 1.138 -0.457 0 -0.732 0.161 -0.732 0.429 0 0.236 -0.32 0.511 -0.712 0.611 -0.392 0.1 -0.712 0.298 -0.712 0.44 0 0.142 -0.192 0.258 -0.427 0.258 -0.235 0 -0.427 0.13 -0.427 0.29 0 0.159 -0.26 0.29 -0.578 0.29 -0.318 0 -0.648 0.184 -0.733 0.408 -0.085 0.225 -0.465 0.488 -0.845 0.585 -0.38 0.097 -0.691 0.304 -0.691 0.461 0 0.156 -0.32 0.284 -0.712 0.284 -0.443 0 -0.712 0.164 -0.712 0.435 0 0.29 -0.285 0.435 -0.854 0.435 -0.47 0 -0.854 0.13 -0.854 0.29 0 0.159 -0.32 0.29 -0.712 0.29 -0.443 0 -0.712 0.164 -0.712 0.435 0 0.342 -0.396 0.435 -1.851 0.435 -1.456 0 -1.851 0.093 -1.851 0.435 0 0.239 -0.192 0.435 -0.427 0.435 -0.328 0 -0.427 -0.37 -0.427 -1.593 z"/><path d="m 52.37 205.58 c 0 -0.464 0.347 -0.665 1.15 -0.665 0.632 0 1.15 -0.199 1.15 -0.443 0 -0.244 0.443 -0.443 0.986 -0.443 0.657 0 0.986 -0.222 0.986 -0.665 0 -0.414 0.31 -0.665 0.821 -0.665 0.511 0 0.821 -0.251 0.821 -0.665 0 -0.443 0.329 -0.665 0.986 -0.665 0.542 0 0.986 -0.199 0.986 -0.443 0 -0.244 0.37 -0.443 0.821 -0.443 0.511 0 0.821 -0.251 0.821 -0.665 0 -0.414 0.31 -0.665 0.821 -0.665 0.511 0 0.821 -0.251 0.821 -0.665 0 -0.414 0.31 -0.665 0.821 -0.665 0.511 0 0.821 -0.251 0.821 -0.665 0 -0.366 0.222 -0.665 0.493 -0.665 0.271 0 0.493 -0.199 0.493 -0.443 0 -0.244 0.37 -0.443 0.821 -0.443 0.511 0 0.821 -0.251 0.821 -0.665 0 -0.443 0.329 -0.665 0.986 -0.665 0.542 0 0.986 -0.214 0.986 -0.475 0 -0.846 0.917 -1.741 1.783 -1.741 0.514 0 0.845 -0.248 0.845 -0.635 0 -0.349 0.296 -0.761 0.657 -0.916 0.361 -0.155 0.657 -0.467 0.657 -0.695 0 -0.227 0.296 -0.413 0.657 -0.413 0.361 0 0.657 -0.199 0.657 -0.443 0 -0.244 0.517 -0.443 1.15 -0.443 0.632 0 1.15 0.199 1.15 0.443 0 0.244 0.222 0.443 0.493 0.443 0.271 0 0.493 0.299 0.493 0.665 0 0.366 0.148 0.665 0.329 0.665 0.181 0 0.329 0.199 0.329 0.443 0 0.244 -0.3 0.443 -0.667 0.443 -0.367 0 -0.752 0.299 -0.856 0.665 -0.104 0.366 -0.543 0.665 -0.975 0.665 -0.48 0 -0.786 0.259 -0.786 0.665 0 0.366 -0.222 0.665 -0.493 0.665 -0.271 0 -0.493 0.199 -0.493 0.443 0 0.244 -0.37 0.443 -0.821 0.443 -0.511 0 -0.821 0.251 -0.821 0.665 0 0.414 -0.31 0.665 -0.821 0.665 -0.511 0 -0.821 0.251 -0.821 0.665 0 0.443 -0.329 0.665 -0.986 0.665 -0.542 0 -0.986 0.199 -0.986 0.443 0 0.244 -0.37 0.443 -0.821 0.443 -0.511 0 -0.821 0.251 -0.821 0.665 0 0.414 -0.31 0.665 -0.821 0.665 -0.511 0 -0.821 0.251 -0.821 0.665 0 0.443 -0.329 0.665 -0.986 0.665 -0.542 0 -0.986 0.199 -0.986 0.443 0 0.244 -0.591 0.443 -1.314 0.443 -0.949 0 -1.314 0.185 -1.314 0.665 0 0.48 -0.365 0.665 -1.314 0.665 -0.949 0 -1.314 0.185 -1.314 0.665 0 0.48 -0.365 0.665 -1.314 0.665 -0.949 0 -1.314 0.185 -1.314 0.665 0 0.517 -0.438 0.665 -1.971 0.665 -1.533 0 -1.971 -0.148 -1.971 -0.665 z"/></g></svg>