<?xml version="1.0" encoding="UTF-8" standalone="no"?>
<svg
   width="256"
   height="256"
   version="1.1"
   viewBox="-18.3 -18.3 292.6 292.6"
   id="svg2"
   sodipodi:docname="kitty.svg"
   inkscape:version="1.4.2 (ebf0e940d0, 2025-05-08)"
   xmlns:inkscape="http://www.inkscape.org/namespaces/inkscape"
   xmlns:sodipodi="http://sodipodi.sourceforge.net/DTD/sodipodi-0.dtd"
   xmlns="http://www.w3.org/2000/svg"
   xmlns:svg="http://www.w3.org/2000/svg">
  <defs
     id="defs2" />
  <sodipodi:namedview
     id="namedview2"
     pagecolor="#ffffff"
     bordercolor="#666666"
     borderopacity="1.0"
     inkscape:showpageshadow="2"
     inkscape:pageopacity="0.0"
     inkscape:pagecheckerboard="0"
     inkscape:deskcolor="#d1d1d1"
     inkscape:zoom="3.2929688"
     inkscape:cx="128"
     inkscape:cy="128"
     inkscape:window-width="1920"
     inkscape:window-height="1023"
     inkscape:window-x="0"
     inkscape:window-y="0"
     inkscape:window-maximized="1"
     inkscape:current-layer="svg2" />
  <path
     id="rect1"
     style="fill:#252525;stroke:#ffffff;stroke-width:8.02387;stroke-opacity:0"
     d="M 43.066279,-14.036936 H 213.62785 c 31.63518,0 57.10321,25.624562 57.10321,57.454174 V 212.58276 c 0,31.82961 -25.46803,57.45417 -57.10321,57.45417 H 43.066279 c -31.635181,0 -57.103215,-25.62456 -57.103215,-57.45417 V 43.417238 c 0,-31.829612 25.468034,-57.454174 57.103215,-57.454174 z" />
  <path
     d="m42.918 164.35v-17.664l29.63-15.718q3.7575-1.9482 8.2649-2.9875-4.5075-0.90906-8.2649-2.857l-29.63-15.718v-17.804l49.381 27.02v18.572z"
     fill="#fff"
     id="path1" />
  <path
     d="m213.07 164.35-49.381-27.02v-18.572l49.381-27.136v17.664l-29.63 15.718q-3.7575 1.9482-8.265 2.9875 4.5075 0.90906 8.265 2.857l29.63 15.718z"
     fill="#fff"
     id="path2" />
</svg>
