<svg xmlns="http://www.w3.org/2000/svg" viewBox="0 0 256 256"><defs><clipPath><path transform="matrix(15.33333 0 0 11.5 415 -125.5)" d="m -24 13 c 0 1.105 -0.672 2 -1.5 2 -0.828 0 -1.5 -0.895 -1.5 -2 0 -1.105 0.672 -2 1.5 -2 0.828 0 1.5 0.895 1.5 2 z"/></clipPath></defs><path d="m 222.65 37.868 c 145.18 221.56 -251.35 307.3 -219.76 79.37 12.881 -92.96 164.23 -164.13 219.76 -79.37 z" transform="translate(0.508 2.624)" fill="#6b8e23" color="#000"/><rect width="127.99" height="111.44" x="65.48" y="76.916" rx="4.837" ry="1.699" fill="#fff" stroke="#fff" fill-rule="evenodd" stroke-width="1.192"/><g transform="matrix(1.10014 0 0 1.07804 -12.547 -1.247)"><path d="m 69.1 181.12 c -1.175 -0.777 -1.372 -9.51 -1.226 -54.25 0.096 -29.327 0.501 -53.644 0.9 -54.04 c 0.399 -0.393 8.151 -0.387 17.226 0.014 l 16.5 0.728 l -13.625 0.824 c -7.494 0.453 -14.203 1.181 -14.909 1.618 -1.536 0.949 -2.118 40.671 -0.626 42.729 1.298 1.791 8.584 1.615 9.29 -0.225 0.311 -0.811 -0.378 -3 -1.531 -4.868 c -1.18 -1.91 -2.097 -5.079 -2.097 -7.249 0 -3.416 0.692 -4.514 6.071 -9.632 3.919 -3.729 6.917 -5.777 8.46 -5.777 c 3.052 0 6.854 -4.074 10.03 -10.75 2.748 -5.776 4.523 -6.556 6.257 -2.75 1.435 3.149 2.676 3.149 5.594 0 2.633 -2.842 4.783 -3.174 6.574 -1.016 0.8 0.964 2.856 1.438 5.872 1.352 8.913 -0.253 20.16 4.741 21.764 9.664 0.358 1.1 1.49 3.073 2.514 4.385 1.155 1.479 1.862 4.01 1.862 6.664 0 4.02 0.283 4.455 4.75 7.231 7.487 4.653 13.55 10.539 18.716 18.17 4.444 6.564 5.393 7.456 7.237 6.8 1.313 -0.467 -0.059 -52.52 -1.42 -53.855 c -0.431 -0.424 -6.633 -1.293 -13.783 -1.932 c -7.15 -0.639 -13.14 -1.295 -13.312 -1.458 -0.172 -0.163 5.453 -0.594 12.5 -0.958 7.05 -0.364 13.994 -0.884 15.439 -1.157 3.719 -0.702 6.2 2.02 5.483 6.01 -0.855 4.766 -0.905 58.686 -0.075 81.14 0.689 18.637 0.613 20.17 -1.085 21.866 -1.715 1.715 -3.339 1.776 -26.888 1.01 c -25.522 -0.83 -75.6 -0.748 -85.56 0.141 c -3.03 0.27 -6.13 0.074 -6.9 -0.436 z m 38.711 -5.867 c -0.185 -0.96 -3.255 -3.596 -6.823 -5.858 -9.894 -6.273 -15.912 -12.182 -18.608 -18.272 -3.998 -9.03 -2.708 -15.12 4.078 -19.263 l 3.043 -1.856 l -3 0.032 c -1.65 0.017 -4.125 0.675 -5.5 1.461 -1.375 0.786 -3.457 1.445 -4.628 1.465 -1.17 0.019 -2.573 0.598 -3.117 1.285 -0.626 0.791 -0.763 8.601 -0.372 21.25 l 0.617 20 l 3.5 0.618 c 1.925 0.34 9.72 0.678 17.323 0.75 12.651 0.12 13.795 -0.016 13.487 -1.613 z m 32.35 -64.01 c 6.724 -7.298 7.721 -13.389 3.267 -19.956 -2.907 -4.285 -4.305 -5.252 -9.185 -6.353 -5.237 -1.181 -9.628 0.84 -13.159 6.06 -5.62 8.305 -3.767 16.474 4.759 20.978 5.546 2.93 11.215 2.642 14.319 -0.728 z m -14.236 -8.173 c -1.608 -1.608 -2.923 -3.892 -2.923 -5.077 c 0 -1.185 1.315 -3.469 2.923 -5.077 4.108 -4.108 8.248 -3.952 12.677 0.477 4.03 4.03 4.288 6.803 0.945 10.145 -3.631 3.631 -9.733 3.421 -13.622 -0.469 z" fill="#cae4b0"/><path d="m 69.4 179.26 c -0.915 -0.915 -1.327 -2.429 -0.996 -3.661 0.31 -1.155 0.57 -2.663 0.578 -3.351 c 0.008 -0.688 0.464 -1.25 1.014 -1.25 c 0.55 0 1 0.9 1 2 0 1.1 0.9 2.9 2 4 2.477 2.477 2.476 2.642 -0.018 3.294 -1.128 0.295 -2.705 -0.16 -3.578 -1.032 z m 95.1 0.79 c -16 -0.464 -19.544 -0.848 -22.447 -2.429 -2.891 -1.575 -4.692 -1.774 -11.172 -1.233 -4.249 0.354 -9.568 1.295 -11.821 2.089 -4.994 1.762 -6 1.418 -9.831 -3.343 -1.653 -2.057 -5.597 -5.292 -8.764 -7.188 c -8.844 -5.295 -14.414 -10.775 -17.08 -16.806 -3.969 -8.974 -2.679 -15.385 3.765 -18.718 1.568 -0.811 2.852 -1.913 2.852 -2.449 c 0 -1.532 -5.586 -1.139 -9.355 0.658 -2.344 1.118 -4.561 1.419 -7.03 0.955 c -3.571 -0.67 -3.611 -0.732 -3.611 -5.632 v -4.955 h 5.309 c 3.084 0 6.122 -0.609 7.25 -1.452 1.912 -1.431 1.908 -1.512 -0.309 -5.448 -3.803 -6.753 -3.126 -10.18 3.272 -16.578 c 3.829 -3.829 6.309 -5.522 8.09 -5.522 c 1.602 0 3.559 -1.129 5.201 -3 3.228 -3.679 5.417 -3.807 7.229 -0.423 1.678 3.136 4.245 4.634 6.474 3.778 1.435 -0.551 1.309 -0.963 -0.928 -3.037 -3.103 -2.877 -3.242 -4.417 -0.615 -6.794 1.414 -1.28 2.848 -1.61 5.063 -1.167 2.804 0.561 3.03 0.422 2.418 -1.501 -0.63 -1.985 -0.427 -2.073 3.187 -1.392 2.123 0.4 6.334 0.915 9.359 1.146 3.03 0.23 6.598 0.667 7.941 0.971 c 2.822 0.639 10.06 6.105 10.06 7.596 c 0 0.555 0.9 2.152 2 3.551 1.287 1.636 2 4.057 2 6.789 0 3.662 0.472 4.607 3.433 6.865 1.888 1.44 3.906 2.619 4.484 2.619 1.476 0 16.08 14.764 16.09 16.266 0.005 0.679 2.194 3.787 4.866 6.908 l 4.857 5.674 l 0.622 9.826 c 1.323 20.895 1.192 32.37 -0.382 33.365 -0.81 0.512 -1.922 0.849 -2.472 0.748 -0.55 -0.101 -9.55 -0.431 -20 -0.735 z m -23.34 -67.801 c 4.734 -5.138 5.841 -7.56 5.816 -12.723 c -0.043 -8.76 -7.696 -16.527 -16.284 -16.527 c -2.451 0 -8.538 3.942 -9.172 5.941 -0.313 0.988 -1.458 2.6 -2.544 3.582 -2.996 2.711 -2.737 12.04 0.434 15.64 3.498 3.971 9.477 6.742 14.654 6.793 3.729 0.036 5.03 -0.459 7.097 -2.706 z m -11.66 -7.806 c -5.957 -3.039 -7.05 -6.984 -3.045 -10.989 3.489 -3.489 7.553 -3.227 11.427 0.735 3.715 3.8 3.833 4.912 0.869 8.174 -3.02 3.325 -5.651 3.916 -9.25 2.08 z m -23.833 -22.11 c -1.218 -1.218 -0.689 -3.333 0.833 -3.333 c 0.833 0 1.5 0.889 1.5 2 0 1.992 -1.066 2.601 -2.333 1.333 z m 79.917 -6.976 c -0.347 -0.904 -0.425 -1.849 -0.174 -2.1 0.795 -0.795 2.59 0.801 2.59 2.302 0 1.962 -1.639 1.824 -2.417 -0.202 z" fill="#a2a4a0"/><path d="m 70.01 178.51 c -0.679 -0.818 -0.956 -2.214 -0.615 -3.101 0.529 -1.378 0.897 -1.271 2.519 0.732 1.822 2.25 1.884 3.856 0.148 3.856 -0.45 0 -1.374 -0.669 -2.053 -1.487 z m 75.879 0.739 c -0.886 -0.19 -2.095 -1.407 -2.686 -2.705 -1.345 -2.953 -5.813 -4.03 -10.888 -2.618 -2.099 0.583 -5.433 1.062 -7.41 1.065 -2.32 0.004 -4.237 0.715 -5.405 2.01 -2.284 2.524 -7.345 2.68 -8.122 0.25 -1.524 -4.767 -3.365 -6.745 -9.841 -10.57 c -12.871 -7.602 -18.537 -15.2 -18.537 -24.855 c 0 -4.246 1.679 -6.651 6.099 -8.738 7.699 -3.635 1.08 -7.582 -7.706 -4.595 -2.882 0.98 -5.935 1.514 -6.784 1.188 -0.85 -0.326 -1.811 -0.162 -2.136 0.364 c -1.421 2.3 -2.473 0.58 -2.473 -4.04 c 0 -4.745 1.174 -6.594 2.309 -3.636 0.407 1.06 1.676 1.182 5.7 0.546 c 5.381 -0.851 7.991 -2.282 7.991 -4.383 c 0 -0.676 -1.154 -3.399 -2.565 -6.05 -1.678 -3.156 -2.358 -5.648 -1.966 -7.21 0.891 -3.548 8.663 -10.825 13.13 -12.288 2.148 -0.704 4.888 -1.919 6.089 -2.7 2 -1.301 2.453 -1.163 5.398 1.652 c 1.985 1.897 4.26 3.072 5.949 3.072 c 3 0 3.93 1.853 3.955 7.882 0.026 6.407 10.28 14.09 18.829 14.11 4.856 0.012 11.476 -5.319 13.239 -10.659 1.28 -3.879 2.162 -4.077 5.787 -1.296 1.462 1.121 4.966 3.709 7.786 5.75 4.934 3.571 11.174 10.59 16.393 18.441 1.364 2.051 3.722 4.246 5.242 4.877 1.64 0.681 3.03 2.213 3.426 3.771 0.365 1.443 0.697 11.398 0.737 22.12 l 0.074 19.5 l -20 0.049 c -11 0.027 -20.725 -0.107 -21.611 -0.296 z m -17.715 -77.57 c -2.417 -2.572 -2.835 -5.929 -0.924 -7.408 3.178 -2.459 4.952 -2.272 7.844 0.823 3.299 3.531 3.581 5.081 1.334 7.328 -2.252 2.252 -5.735 1.938 -8.254 -0.743 z m -13.924 -12.894 c -2.343 -1.143 -3.02 -4.195 -1.19 -5.329 0.583 -0.36 2.406 -0.098 4.051 0.583 2.179 0.903 2.909 1.808 2.69 3.336 -0.351 2.444 -2.375 2.958 -5.551 1.409 z m 7.377 -6.261 c 0.341 -0.888 1.048 -1.472 1.572 -1.298 1.498 0.499 1.069 2.234 -0.642 2.59 -1.069 0.223 -1.357 -0.178 -0.93 -1.292 z m 64.01 -7.03 c -0.317 -0.825 -0.14 -1.5 0.393 -1.5 0.533 0 0.969 0.675 0.969 1.5 c 0 0.825 -0.177 1.5 -0.393 1.5 -0.216 0 -0.652 -0.675 -0.969 -1.5 z" fill="#8ec66b"/><path d="m 110.61 173.73 c -2.262 -2.4 -6.673 -5.813 -9.802 -7.585 c -8.377 -4.744 -14.428 -11.316 -16.278 -17.68 -0.843 -2.9 -1.533 -5.954 -1.533 -6.787 c 0 -2.821 3.421 -7.497 6.469 -8.841 3.84 -1.693 3.881 -3.887 0.098 -5.148 -2.215 -0.738 -4.217 -0.542 -8.173 0.803 -5.489 1.866 -8.04 1.588 -9.03 -0.982 c -0.867 -2.259 1.475 -4.51 4.692 -4.51 c 3.849 0 7.871 -1.65 8.59 -3.524 0.328 -0.855 -0.584 -3.828 -2.026 -6.607 c -1.442 -2.779 -2.622 -5.605 -2.622 -6.279 0 -1.548 6.127 -9.59 7.306 -9.59 c 0.483 0 2.022 -0.9 3.421 -2 1.398 -1.1 3.465 -2 4.593 -2 1.128 0 3.052 -0.941 4.276 -2.091 l 2.226 -2.091 l 2.754 3.091 c 1.998 2.242 3.637 3.091 5.969 3.091 c 3.212 0 3.215 0.005 3.646 5.963 0.486 6.724 1.835 8.755 8.755 13.189 3.456 2.214 5.626 2.849 9.747 2.849 4.678 0 5.768 -0.421 9.271 -3.586 2.183 -1.972 4.525 -5.122 5.204 -7 1.426 -3.943 2.756 -4.263 5.428 -1.304 1.048 1.16 4.235 3.658 7.084 5.55 6.04 4.01 10.441 8.669 15.742 16.654 2.095 3.156 4.657 6.192 5.694 6.747 3.587 1.92 1.663 6.939 -2.66 6.939 -2.204 0 -4.709 2.246 -5.728 5.135 -0.979 2.776 1.953 5.717 6.04 6.06 l 3.735 0.309 l 0.629 7 c 0.346 3.85 0.979 9.659 1.406 12.908 l 0.778 5.908 l -5.406 -0.789 c -2.973 -0.434 -6.531 -0.767 -7.906 -0.739 c -1.375 0.027 -8.141 0.194 -15.04 0.372 -11.617 0.298 -12.739 0.163 -15.297 -1.849 -5.182 -4.076 -9.845 -3.811 -24.05 1.367 l -3.887 1.417 l -4.113 -4.363 z m 67.39 -39.08 c 0 -0.741 -1.934 -3.484 -4.298 -6.096 -3.757 -4.15 -4.46 -4.553 -5.583 -3.2 -1.657 1.997 -0.61 5.284 2.644 8.3 2.751 2.549 7.237 3.167 7.237 0.996 z m -49.826 -32.967 c -2.417 -2.572 -2.835 -5.929 -0.924 -7.408 3.178 -2.459 4.952 -2.272 7.844 0.823 3.299 3.531 3.581 5.081 1.334 7.328 -2.252 2.252 -5.735 1.938 -8.254 -0.743 z m -13.924 -12.894 c -2.343 -1.143 -3.02 -4.195 -1.19 -5.329 0.583 -0.36 2.406 -0.098 4.051 0.583 2.179 0.903 2.909 1.808 2.69 3.336 -0.351 2.444 -2.375 2.958 -5.551 1.409 z m 7.377 -6.261 c 0.341 -0.888 1.048 -1.472 1.572 -1.298 1.498 0.499 1.069 2.234 -0.642 2.59 -1.069 0.223 -1.357 -0.178 -0.93 -1.292 z" fill="#60a82a"/><path d="m 110.44 172.92 c -3.02 -3.172 -10.944 -8.915 -12.3 -8.915 c -0.419 0 -3.322 -2.688 -6.45 -5.974 c -3.839 -4.03 -5.688 -6.795 -5.688 -8.5 c 0 -3.63 2.9 -3.274 3.644 0.446 0.588 2.938 4.841 6.974 9.537 9.05 1.275 0.564 4.118 2.092 6.318 3.396 2.2 1.304 7.483 4.106 11.741 6.226 4.257 2.12 7.745 4.121 7.75 4.447 0.012 0.762 -7.125 2.908 -9.67 2.908 -1.071 0 -3.269 -1.388 -4.884 -3.085 z m 31.13 -0.021 c -2.538 -2.849 -2.855 -3.97 -2.954 -10.439 -0.079 -5.2 -0.576 -7.771 -1.761 -9.102 -0.908 -1.02 -2.138 -3.646 -2.733 -5.835 -0.869 -3.196 -0.801 -4.263 0.345 -5.409 1.23 -1.23 1.72 -1.232 3.539 -0.019 2.464 1.645 6.989 12.138 6.996 16.223 0.002 1.548 0.942 4.993 2.087 7.655 3.834 8.913 0.255 13.405 -5.519 6.925 z m 11.636 1.906 c -1.294 -1.294 -1.537 -4.94 -0.57 -8.55 0.816 -3.046 1.887 -2.829 3.34 0.678 0.667 1.61 2.067 3.701 3.112 4.647 1.796 1.626 1.805 1.791 0.159 3.04 -2.191 1.664 -4.492 1.734 -6.04 0.185 z m -3.82 -26.25 c -0.306 -0.799 -0.266 -1.924 0.09 -2.5 1.165 -1.885 2.53 -1.101 2.53 1.452 0 2.711 -1.718 3.398 -2.62 1.048 z m -49.88 -3.531 c -6.406 -1.174 -13 -5.249 -13 -8.03 0 -1.781 0.736 -2.547 3.02 -3.137 c 2.773 -0.719 6.485 -5.11 6.485 -7.673 c 0 -0.651 -2.704 -0.814 -7.5 -0.451 -4.163 0.315 -7.504 0.169 -7.509 -0.327 -0.005 -0.492 1.434 -2.08 3.198 -3.53 3.188 -2.621 3.199 -2.659 1.833 -6.799 -0.756 -2.29 -2.01 -4.517 -2.78 -4.95 -0.847 -0.474 -1.274 -1.942 -1.074 -3.693 0.634 -5.541 3.408 -4.269 13.69 6.282 9.354 9.597 13.732 12.587 23.977 16.376 3.516 1.3 6.165 3.442 6.165 4.984 0 1.53 -5.841 6.266 -11.331 9.186 -5.229 2.781 -7.921 3.095 -15.169 1.767 z m 13.32 -6.777 c 0.267 -1.87 -0.15 -2.24 -2.527 -2.24 c -1.566 0 -3.818 -0.68 -5 -1.511 -3.71 -2.599 -3.463 0.15 0.312 3.465 4.02 3.533 6.741 3.641 7.219 0.286 z m 35.2 -5.874 c -6.194 -5.212 -2 -12.523 6.288 -10.967 3.712 0.696 7.688 3.91 7.688 6.213 0 0.679 -1.165 2.619 -2.589 4.311 -3.275 3.892 -7.112 4.04 -11.388 0.443 z m -20.592 -12.478 c -1.199 -1.941 1.902 -2.947 7.07 -2.294 5.652 0.714 5.958 0.856 5.04 2.339 -0.874 1.415 -11.232 1.376 -12.11 -0.045 z m 38.684 -1.437 c -1.312 -1.383 -2.114 -2.786 -1.781 -3.118 0.65 -0.65 5.621 3.675 5.649 4.917 0.033 1.418 -1.487 0.711 -3.868 -1.799 z m -44.3 -3.134 c 0.722 -0.289 1.584 -0.253 1.917 0.079 0.332 0.332 -0.258 0.569 -1.313 0.525 -1.165 -0.048 -1.402 -0.285 -0.604 -0.604 z m 27.19 -8.258 c 0 -2.821 1.839 -3.515 4.04 -1.523 c 2.32 2.1 1.691 3.464 -1.598 3.464 -1.75 0 -2.441 -0.55 -2.441 -1.941 z m -36.942 -4.951 c -1.525 -2.849 -0.989 -6.608 0.942 -6.608 c 1.784 0 2.56 4.677 1.185 7.134 -0.849 1.517 -1.062 1.464 -2.127 -0.526 z m 16.633 -0.136 c -3.036 -2.388 -3.443 -5.077 -1.12 -7.4 2.811 -2.811 6.271 -1.97 8.156 1.982 2.918 6.119 -1.661 9.646 -7.04 5.418 z m -41.691 -1.972 c 0 -0.55 0.477 -1 1.059 -1 0.582 0 0.781 0.45 0.441 1 -0.34 0.55 -0.816 1 -1.059 1 c -0.243 0 -0.441 -0.45 -0.441 -1 z m 6.813 -4.683 c 0.722 -0.289 1.584 -0.253 1.917 0.079 0.332 0.332 -0.258 0.569 -1.313 0.525 -1.165 -0.048 -1.402 -0.285 -0.604 -0.604 z m 8.188 -4.376 c 0 -0.582 0.45 -0.781 1 -0.441 0.55 0.34 1 0.816 1 1.059 c 0 0.243 -0.45 0.441 -1 0.441 c -0.55 0 -1 -0.477 -1 -1.059 z m 12.223 -2.498 c -2.445 -1.713 -2.922 -4.03 -0.973 -4.723 2.133 -0.761 6.977 2.245 6.331 3.929 c -0.32 0.833 -0.581 1.702 -0.581 1.932 c 0 0.956 -2.708 0.311 -4.777 -1.138 z m 7.777 -5.443 c 0 -0.55 0.477 -1 1.059 -1 0.582 0 0.781 0.45 0.441 1 -0.34 0.55 -0.816 1 -1.059 1 c -0.243 0 -0.441 -0.45 -0.441 -1 z" fill="#365e15"/><path d="m 100.33 142.96 c -4.191 -0.829 -12.327 -5.491 -12.327 -7.06 c 0 -0.463 1.262 -1.494 2.805 -2.292 2.507 -1.297 1.735 -3.448 1.735 -5.806 0 -0.482 0.084 -2.386 -4.04 -2.074 -2.726 0.206 -8.261 3.795 -11.392 4.136 -3.152 0.344 -3.891 -2.562 -3.891 -3 0 -0.658 0.485 -1.667 2.135 -2.242 3.774 -1.315 12.584 -5.962 9.257 -12.586 -1.315 -2.619 -2.07 -5.283 -1.676 -5.92 0.996 -1.611 8.243 4.098 14.802 11.662 4.293 4.95 6.948 6.875 14.75 10.696 5.336 2.613 9.515 5.28 9.515 6.073 0 0.778 -1.237 2.171 -2.75 3.097 -1.513 0.926 -4.349 2.736 -6.304 4.02 -3.722 2.45 -5.734 2.657 -12.619 1.296 z m 12.492 -4.716 c 0.267 -1.87 -0.15 -2.24 -2.527 -2.24 c -1.566 0 -3.818 -0.68 -5 -1.511 -3.71 -2.599 -3.463 0.15 0.312 3.465 4.02 3.533 6.741 3.641 7.219 0.286 z m 15.265 -37.13 c -2.923 -2.514 -1.222 -5.61 2.083 -6.659 2.463 -0.782 6.308 -0.403 7.097 4.745 0.742 4.847 -5.376 5.187 -9.18 1.915 z m -13.626 -12.377 c -0.14 -0.227 -2.287 -0.709 -2.262 -1.669 0.039 -1.522 2.338 -3.702 2.492 -3.856 0.697 -0.697 3.743 2.89 3.743 3.903 0 1.252 -3.176 2.913 -3.974 1.622 z" fill="#972f2d"/></g></svg>