<svg xmlns="http://www.w3.org/2000/svg" viewBox="0 0 256 256"><defs><clipPath><rect rx="4" y="0.998" x="1" height="46" width="46" fill="#1580b9"/></clipPath></defs><g transform="translate(0 -796.36)"><path d="m 125.73 800.57 c -111.92 -22.17 -154.42 129.91 -105.92 212.5 38.644 65.804 171.02 46.997 220.37 -41.835 49.35 -88.83 -24.617 -152.87 -114.45 -170.67 z" fill="#808080" color="#000"/><g transform="matrix(3.61416 0 0 3.44963 32.18 843.94)" fill="#7f7f7f" stroke="#d6d6d6"><path d="M 4.553,-43.512 H 43.512 V -4.553 H 4.553 z" transform="scale(1 -1)" fill="#bcbcbc" stroke-width="0.976"/><g transform="matrix(0.97649 0 0 1.0003 0.838 -0.007)"><path d="m 17.979 4.848 v 13.549 h -13.825 v 0.342 h 13.825 v 10.625 h -13.825 v 0.342 h 13.825 v 13.539 h 0.351 v -13.539 h 10.85 v 13.539 h 0.351 v -13.539 h 13.825 v -0.342 h -13.825 v -10.625 h 13.825 v -0.342 h -13.825 v -13.549 h -0.351 v 13.549 h -10.85 v -13.549 h -0.351 z m 0.351 13.888 h 10.85 v 10.625 h -10.85 v -10.625 z" stroke-width="0.972"/><g stroke="#7f7f7f" fill-rule="evenodd"><g transform="matrix(0.27799 0 0 0.28987 -9.152 -13.789)" stroke-width="0.77"><path d="m 51.37 86.949 v -21.907 h 22.244 h 22.244 v 21.907 v 21.907 h -22.244 h -22.244 v -21.907 z"/><path d="m 51.37 173.9 v -21.907 h 22.244 h 22.244 v 21.907 v 21.907 h -22.244 h -22.244 v -21.907 z"/><g fill="#fff"><path d="m 141.02 173.9 v -21.907 h 23.255 h 23.255 v 21.907 v 21.907 h -23.255 h -23.255 v -21.907 z"/><path d="m 141.02 86.949 v -21.907 h 23.255 h 23.255 v 21.907 v 21.907 h -23.255 h -23.255 v -21.907 z"/></g></g><g fill="#fff"><path d="m 6.8 27.674 c 0.24 -0.424 0.38 -0.857 0.31 -0.962 -0.069 -0.105 0.005 -0.196 0.165 -0.201 0.16 -0.005 0.221 -0.075 0.135 -0.156 -0.086 -0.081 0.19 -0.813 0.612 -1.627 0.423 -0.814 0.772 -1.587 0.777 -1.718 0.02 -0.555 0.245 -1 0.517 -1.029 0.445 -0.045 1.331 -0.295 1.545 -0.437 0.105 -0.069 0.501 -0.2 0.881 -0.291 0.815 -0.194 1.042 -0.267 1.513 -0.479 0.193 -0.087 0.67 -0.231 1.059 -0.319 0.389 -0.088 0.837 -0.191 0.996 -0.229 0.158 -0.038 0.36 -0.145 0.448 -0.239 0.192 -0.205 1.029 -0.254 1.034 -0.061 0.002 0.075 -0.259 0.619 -0.581 1.209 -0.322 0.59 -0.512 1.07 -0.423 1.068 0.089 -0.003 -0.198 0.688 -0.638 1.535 -0.44 0.847 -0.729 1.606 -0.644 1.687 0.086 0.081 0.025 0.151 -0.135 0.156 -0.16 0.005 -0.222 0.114 -0.137 0.242 0.085 0.128 0.068 0.244 -0.038 0.258 -0.105 0.013 -0.35 0.07 -0.545 0.127 -0.194 0.057 -0.512 0.149 -0.706 0.205 -0.194 0.056 -0.511 0.174 -0.705 0.261 -0.193 0.087 -0.67 0.231 -1.059 0.319 -0.891 0.201 -1.415 0.347 -1.413 0.394 0.001 0.02 -0.158 0.08 -0.352 0.134 -0.194 0.054 -0.618 0.172 -0.942 0.262 -0.324 0.091 -0.719 0.195 -0.877 0.232 -0.158 0.037 -0.36 0.144 -0.448 0.238 -0.088 0.094 -0.301 0.175 -0.473 0.18 -0.228 0.007 -0.195 -0.199 0.124 -0.761 z" stroke-width="0.272"/><path d="m 19.593 41.02 c 0.152 -0.44 0.211 -0.871 0.13 -0.959 -0.08 -0.088 -0.027 -0.185 0.119 -0.217 0.146 -0.031 0.19 -0.108 0.098 -0.17 -0.091 -0.062 0.044 -0.798 0.301 -1.635 0.257 -0.838 0.453 -1.625 0.437 -1.749 -0.07 -0.526 0.064 -0.985 0.309 -1.056 0.4 -0.117 1.17 -0.502 1.343 -0.671 0.085 -0.083 0.426 -0.273 0.759 -0.422 0.714 -0.32 0.911 -0.426 1.307 -0.706 0.163 -0.115 0.576 -0.33 0.918 -0.478 0.342 -0.148 0.735 -0.321 0.874 -0.383 0.139 -0.062 0.306 -0.198 0.372 -0.301 0.143 -0.225 0.9 -0.412 0.936 -0.231 0.014 0.07 -0.138 0.627 -0.338 1.236 -0.2 0.61 -0.298 1.095 -0.217 1.077 0.081 -0.017 -0.072 0.682 -0.339 1.553 -0.267 0.872 -0.411 1.636 -0.32 1.698 0.091 0.062 0.047 0.138 -0.098 0.17 -0.146 0.031 -0.185 0.145 -0.087 0.251 0.098 0.107 0.101 0.219 0.006 0.249 -0.094 0.03 -0.309 0.125 -0.478 0.211 -0.169 0.086 -0.445 0.226 -0.613 0.312 -0.169 0.086 -0.44 0.25 -0.603 0.365 -0.163 0.115 -0.576 0.33 -0.918 0.478 -0.783 0.339 -1.238 0.565 -1.23 0.609 0.004 0.019 -0.132 0.102 -0.301 0.186 -0.169 0.083 -0.538 0.266 -0.82 0.406 -0.282 0.14 -0.626 0.305 -0.765 0.366 -0.139 0.062 -0.306 0.196 -0.372 0.299 -0.066 0.103 -0.247 0.215 -0.404 0.249 -0.208 0.045 -0.21 -0.154 -0.008 -0.738 z" stroke-width="0.256"/></g></g></g><g stroke="#7f7f7f" fill-rule="evenodd"><path transform="matrix(0.94643 -0.3229 -0.36277 0.93188 0 0)" d="m 36.891 36.693 h 6.478 v 5.674 h -6.478 z" stroke-width="0.251"/><path transform="matrix(0.91027 -0.41401 -0.29424 0.95573 0 0)" d="m 31.702 23.735 h 6.828 v 6.684 h -6.828 z" stroke-width="0.279"/><path transform="matrix(0.96108 -0.27628 -0.40497 0.91433 0 0)" d="m 53.39 40.621 h 7.166 v 6.28 h -7.166 z" stroke-width="0.277"/></g></g></g></svg>