<svg xmlns="http://www.w3.org/2000/svg" viewBox="0 0 256 256"><defs><clipPath><rect width="46" height="46" x="1" y="1" rx="4" fill="#1890d0"/></clipPath><clipPath><rect width="46" height="46" x="1" y="1" rx="4" fill="#1890d0"/></clipPath></defs><g transform="translate(0 -796.36)"><path d="m 28.618 855.12 c -84.12 95.24 48.573 241.79 159.63 182.53 112.29 -59.906 82.36 -258.16 -55.54 -241.3 c -41.04 5.02 -76.65 27.695 -104.09 58.764" fill="#d3d3d3" color="#000"/><g transform="matrix(0.92823 0 0 0.89633 7.365 96.95)" fill-opacity="0"><ellipse cx="118.04" cy="873.53" rx="4.477" ry="5.419" fill="#ff8c00"/><g fill="#fff"><path d="m 136.19 870.94 a 16.493 6.597 0 0 1 -1.559 2.8"/><path d="m 117.34 872.59 a 8.953 4.01 0 0 1 -0.846 1.7"/></g></g><g transform="translate(61.24 36.747)"><path d="m 9.344 964.65 c -1.82 -1.677 -1.493 -2.546 2.229 -5.91 1.884 -1.703 3.426 -3.395 3.426 -3.76 0 -0.874 -16.831 -16.576 -17.768 -16.576 -0.398 0 -2.368 1.417 -4.378 3.148 -3.799 3.274 -5.365 3.497 -6.83 0.974 -0.634 -1.091 -0.155 -1.926 2.739 -4.776 3.413 -3.361 3.474 -3.5 2.284 -5.173 -1.161 -1.632 -1.122 -1.83 0.776 -3.907 2.133 -2.335 4.01 -2.719 6.438 -1.319 1.332 0.766 1.879 0.528 4.639 -2.01 3.121 -2.875 3.125 -2.887 1.799 -4.751 -1.293 -1.818 -1.279 -1.918 0.489 -3.66 2.906 -2.862 4.394 -3.357 6.02 -2 1.333 1.111 1.58 1.051 4.457 -1.078 3.724 -2.757 4.118 -3.597 2.614 -5.574 -1.103 -1.45 -1.023 -1.684 1.349 -3.937 2.848 -2.707 3.457 -2.853 5.341 -1.282 1.237 1.032 1.593 0.896 4.808 -1.835 l 3.472 -2.948 l -1.288 -2.01 c -1.264 -1.971 -1.246 -2.05 0.913 -4.126 2.21 -2.125 4.465 -2.723 5.342 -1.415 0.898 1.338 3.14 0.689 5.56 -1.611 2.68 -2.547 2.892 -3.327 1.481 -5.45 -0.846 -1.273 -0.628 -1.707 1.962 -3.907 2.692 -2.286 3.02 -2.39 4.247 -1.363 1.915 1.596 2.465 1.434 5.798 -1.71 2.664 -2.513 2.885 -2.977 2.02 -4.251 -1.29 -1.904 -0.54 -3.786 2.234 -5.606 2.103 -1.38 2.384 -1.408 3.631 -0.369 1.934 1.613 2.478 1.454 5.816 -1.695 2.617 -2.469 2.874 -2.993 2.058 -4.198 -1.408 -2.077 -1.155 -3.041 1.391 -5.288 2.298 -2.028 2.35 -2.037 4.609 -0.843 l 2.285 1.208 l 3.193 -2.758 c 2.849 -2.46 3.091 -2.912 2.242 -4.187 -1.375 -2.066 -1.198 -2.888 1.094 -5.092 2.264 -2.177 3.334 -2.387 5.575 -1.098 1.331 0.766 1.879 0.528 4.639 -2.01 3.112 -2.867 3.122 -2.892 1.811 -4.735 -1.308 -1.838 -1.296 -1.873 1.502 -4.304 2.813 -2.444 2.827 -2.447 5.05 -1.236 l 2.232 1.214 l 3.117 -2.871 c 3.059 -2.818 3.094 -2.904 1.853 -4.648 -1.225 -1.722 -1.19 -1.854 1.139 -4.297 2.698 -2.83 3.433 -3.02 5.405 -1.373 1.289 1.075 1.593 0.985 4.755 -1.402 3.87 -2.921 5.376 -3.165 6.594 -1.068 0.751 1.293 0.463 1.856 -2.257 4.409 -1.715 1.61 -3.118 3.364 -3.118 3.899 0 0.947 7.738 8.68 14.301 14.292 l 3.263 2.79 l 2.446 -2.078 c 4.341 -3.687 4.861 -3.93 6.584 -3.08 2.293 1.13 1.936 2.776 -1.254 5.785 l -2.825 2.665 l 1.351 2.107 c 1.347 2.101 1.344 2.113 -0.923 4.202 -2.477 2.282 -3.886 2.56 -6.205 1.226 -1.331 -0.766 -1.879 -0.528 -4.639 2.01 -3.048 2.808 -3.097 2.927 -1.894 4.618 1.16 1.631 1.138 1.848 -0.358 3.6 -2.442 2.86 -4.379 3.593 -5.975 2.263 -1.906 -1.589 -2.464 -1.428 -5.736 1.659 -2.916 2.751 -2.925 2.778 -1.606 4.633 1.311 1.843 1.297 1.894 -1.177 4.245 -2.829 2.688 -3.442 2.835 -5.317 1.272 -1.627 -1.356 -3.413 -0.636 -6.326 2.554 -1.943 2.127 -1.959 2.227 -0.687 4.21 1.282 1.999 1.268 2.065 -0.899 4.148 -2.21 2.125 -4.465 2.723 -5.342 1.415 -0.944 -1.407 -3.184 -0.638 -6.071 2.086 -2.798 2.64 -2.887 2.856 -1.677 4.087 1.737 1.768 1.623 2.375 -0.858 4.565 -2.195 1.937 -4.268 2.418 -5.097 1.183 -0.898 -1.339 -3.14 -0.689 -5.56 1.611 -2.546 2.42 -3 3.897 -1.596 5.19 1.231 1.134 0.145 3.477 -2.379 5.133 -2.088 1.369 -2.322 1.386 -4.125 0.298 -1.845 -1.114 -2.02 -1.076 -4.973 1.079 -2.94 2.145 -3.905 4.357 -2.3 5.271 1.388 0.79 0.79 2.868 -1.374 4.777 -2.482 2.19 -3.672 2.337 -5.64 0.697 -1.355 -1.129 -1.58 -1.044 -4.619 1.755 -2.82 2.598 -3.084 3.106 -2.252 4.333 1.368 2.02 1.185 2.853 -1.103 5.05 -2.33 2.24 -3.726 2.45 -5.648 0.847 -1.246 -1.039 -1.579 -0.915 -4.627 1.716 -2.933 2.533 -3.183 2.989 -2.333 4.265 1.542 2.317 1.109 4.04 -1.488 5.911 -2.35 1.694 -2.518 1.716 -4.577 0.596 -2.12 -1.153 -2.162 -1.14 -5.174 1.634 -2.896 2.668 -2.994 2.9 -2.122 5.03 0.797 1.945 0.725 2.426 -0.561 3.735 -2.468 2.512 -4.11 3.03 -5.613 1.779 -1.909 -1.591 -2.463 -1.429 -5.776 1.697 -3.262 3.078 -4.243 3.354 -6.04 1.703 z m 16.15 -18.03 c 1.762 -1.654 3.203 -3.236 3.203 -3.516 0 -0.96 -14.247 -14.872 -16.232 -15.851 -1.863 -0.918 -2.193 -0.819 -5.436 1.629 -1.899 1.433 -3.453 3.194 -3.453 3.913 0 1.54 16 16.831 17.611 16.831 0.606 0 2.544 -1.353 4.306 -3.01 z m 13.315 -12.08 c 2.916 -2.52 3.497 -3.39 2.919 -4.371 -1.086 -1.842 -14.499 -14.822 -16.17 -15.644 -1.204 -0.593 -2.054 -0.193 -4.963 2.34 -2.785 2.424 -3.404 3.368 -2.992 4.562 0.533 1.546 15.916 16.292 16.974 16.271 0.323 -0.007 2.226 -1.428 4.229 -3.158 z m 13.645 -12.05 c 1.588 -1.428 2.887 -3.133 2.887 -3.788 0 -1.276 -13.663 -14.91 -16.191 -16.16 -1.293 -0.637 -2.02 -0.284 -4.925 2.392 -2.681 2.47 -3.297 3.462 -2.887 4.651 0.717 2.081 15.405 15.498 16.967 15.498 0.695 0 2.562 -1.168 4.15 -2.597 z m 13.702 -11.921 c 1.588 -1.428 2.887 -3.163 2.887 -3.854 0 -1.478 -15.699 -16.69 -17.225 -16.69 -1.696 0 -7.134 4.953 -7.134 6.497 0 1.678 15.674 16.643 17.432 16.643 0.634 0 2.453 -1.168 4.04 -2.597 z m 13.385 -12.331 c 1.762 -1.654 3.203 -3.388 3.203 -3.854 0 -1.323 -16.03 -16.279 -17.449 -16.279 -0.695 0 -2.768 1.411 -4.605 3.136 -3.337 3.132 -3.339 3.137 -1.903 4.733 3.38 3.756 16.01 15.271 16.744 15.271 0.444 0 2.249 -1.353 4.01 -3.01 z m 14.567 -12.701 c 2.405 -2.302 2.531 -2.635 1.604 -4.23 -0.553 -0.952 -4.549 -4.943 -8.879 -8.868 l -7.874 -7.138 l -3.246 2.669 c -1.785 1.468 -3.525 3.094 -3.865 3.614 -0.802 1.223 2.042 4.505 10.4 12 7.235 6.488 7.141 6.473 11.86 1.953 z m 13.08 -11.552 c 3.141 -2.567 3.267 -2.813 2.301 -4.476 -1.302 -2.241 -15.777 -15.948 -16.842 -15.948 -1.227 0 -7.616 5.662 -7.616 6.749 0 1.436 15.976 16.392 17.51 16.392 0.729 0 2.82 -1.222 4.648 -2.716 z m 13.577 -12.32 c 3.214 -3.02 3.281 -3.169 2.112 -4.813 -1.886 -2.651 -15.675 -15.212 -16.7 -15.212 -1.183 0 -7.445 5.647 -7.445 6.714 0 1.326 16.02 16.427 17.421 16.427 0.711 0 2.786 -1.402 4.612 -3.116 z m 13.702 -11.921 c 3.243 -3.044 3.291 -3.155 2.079 -4.859 -2.126 -2.989 -15.495 -15.166 -16.65 -15.166 -1.634 0 -7.462 4.837 -7.459 6.19 0.003 1.484 16.04 16.95 17.571 16.95 0.627 0 2.634 -1.402 4.459 -3.116 z" fill="#909090"/><path d="m -6.116 834.36 l 1.507 -1.735 l 3.693 3.41 c 2.031 1.876 4.252 3.41 4.935 3.41 1.311 0 16.891 -13.626 18.18 -15.904 0.619 -1.091 0.113 -1.982 -2.786 -4.904 -3.569 -3.598 -3.961 -5.312 -1.424 -6.23 0.798 -0.289 2.32 0.582 4.424 2.529 3.454 3.196 4.258 3.451 6.583 2.081 1.314 -0.774 1.825 -0.589 3.973 1.436 2.404 2.267 2.434 2.372 1.219 4.261 -1.215 1.888 -1.18 2.01 1.438 5.03 2.841 3.269 3.883 3.633 6.314 2.201 1.314 -0.774 1.826 -0.589 3.977 1.44 2.152 2.029 2.348 2.511 1.527 3.75 -1.469 2.219 -1.164 3.099 2.122 6.125 2.681 2.469 3.25 2.711 4.558 1.941 2.158 -1.271 3.32 -1.096 5.19 0.782 1.759 1.766 2.151 3.709 0.894 4.441 -1.533 0.893 -0.689 3.01 2.302 5.76 2.681 2.469 3.25 2.711 4.558 1.941 2.237 -1.317 3.301 -1.09 5.629 1.201 2.076 2.043 2.09 2.116 0.78 4 l -1.335 1.921 l 3.452 3.255 c 3.438 3.241 3.461 3.25 5.45 2.02 1.966 -1.215 2.034 -1.198 4.286 1.076 2.62 2.645 2.765 3.343 1.065 5.114 -1.139 1.187 -0.988 1.509 2.193 4.683 3.384 3.378 3.434 3.398 5.366 2.204 1.878 -1.16 2.037 -1.137 4.279 0.643 2.311 1.834 3.03 4.1 1.567 4.951 -1.485 0.865 -0.723 2.718 2.283 5.553 3.01 2.84 3.066 2.858 5.03 1.646 1.929 -1.192 2.041 -1.172 4.189 0.769 2.434 2.199 2.671 3.198 1.263 5.323 -0.837 1.263 -0.539 1.806 2.632 4.796 3.502 3.302 3.608 3.345 5.112 2.061 1.434 -1.224 1.662 -1.233 3.432 -0.139 2.927 1.808 3.849 3.897 2.391 5.416 -1.718 1.79 -1.547 2.327 1.685 5.302 3.134 2.886 3.963 3.12 6.255 1.771 1.314 -0.774 1.825 -0.589 3.973 1.436 2.4 2.263 2.432 2.375 1.226 4.251 -1.208 1.878 -1.171 2 1.508 5.03 2.917 3.29 3.843 3.622 6.217 2.224 1.277 -0.752 1.813 -0.581 3.797 1.211 2.532 2.287 2.784 3.276 1.377 5.401 -0.817 1.234 -0.558 1.772 2.077 4.317 2.468 2.383 2.862 3.131 2.184 4.145 -1.468 2.198 -3.322 1.842 -6.313 -1.212 -1.58 -1.614 -3.271 -2.935 -3.756 -2.935 -1.414 0 -18.386 15.866 -18.386 17.187 0 0.659 1.199 2.295 2.665 3.634 2.786 2.547 3.288 4.151 1.751 5.6 -1.402 1.322 -2.01 1.088 -5.283 -2.026 l -3.03 -2.887 l -2.246 1.251 c -2.237 1.246 -2.256 1.241 -4.692 -1.055 l -2.445 -2.306 l 1.397 -2.23 l 1.397 -2.23 l -3.259 -3.132 c -3.258 -3.13 -3.26 -3.131 -5.424 -1.926 -2.133 1.188 -2.201 1.172 -4.622 -1.112 -2.141 -2.02 -2.336 -2.5 -1.516 -3.739 1.509 -2.278 1.112 -3.876 -1.569 -6.326 -2.526 -2.308 -4.612 -2.908 -5.484 -1.577 -0.809 1.235 -3.092 0.788 -4.817 -0.944 -1.759 -1.766 -2.151 -3.709 -0.894 -4.441 1.533 -0.893 0.689 -3.01 -2.302 -5.76 -2.681 -2.469 -3.25 -2.711 -4.558 -1.941 -2.239 1.319 -3.301 1.09 -5.642 -1.213 l -2.127 -2.093 l 1.393 -2.223 l 1.393 -2.223 l -3.176 -2.995 c -2.954 -2.786 -3.318 -2.934 -5.206 -2.123 -2.559 1.099 -4.416 0.556 -6.03 -1.763 -1.165 -1.676 -1.167 -1.955 -0.034 -3.586 1.146 -1.649 1.129 -1.9 -0.246 -3.719 -0.811 -1.073 -2.223 -2.589 -3.138 -3.368 -1.581 -1.347 -1.774 -1.358 -3.88 -0.218 -2.147 1.162 -2.288 1.142 -4.51 -0.621 -2.281 -1.81 -2.987 -4.076 -1.533 -4.923 1.532 -0.893 0.69 -3.01 -2.29 -5.75 -3.03 -2.792 -3.066 -2.802 -5.213 -1.606 -2.11 1.176 -2.208 1.157 -4.182 -0.785 -2.081 -2.049 -2.596 -4 -1.259 -4.782 1.509 -0.879 0.708 -2.989 -2.126 -5.598 -3.267 -3.01 -3.686 -3.12 -5.599 -1.487 -1.27 1.083 -1.516 1.083 -3.269 0 -2.927 -1.808 -3.849 -3.897 -2.391 -5.416 1.696 -1.767 1.556 -2.198 -1.822 -5.628 -3.291 -3.342 -3.938 -3.58 -5.351 -1.974 -1.392 1.582 -2.5 1.334 -4.988 -1.115 l -2.227 -2.192 l 1.366 -2.245 l 1.367 -2.245 l -3.437 -3.241 c -3.272 -3.085 -3.505 -3.183 -4.862 -2.025 -1.943 1.658 -2.588 1.547 -5.04 -0.871 -2.01 -1.978 -2.069 -2.223 -1.13 -4.671 0.978 -2.549 0.948 -2.625 -2.244 -5.691 l -3.234 -3.108 l 1.507 -1.735 z m 21.732 17.46 c 0.448 0.29 1.269 0.532 1.825 0.538 1.23 0.013 18.406 -15.687 18.406 -16.825 0 -0.445 -1.703 -2.39 -3.784 -4.323 l -3.784 -3.514 l -1.736 1.377 c -4.058 3.219 -11.811 10.244 -14.495 13.13 l -2.897 3.12 l 2.825 2.983 c 1.554 1.641 3.192 3.22 3.64 3.51 z m 10.551 10.452 c 1.796 1.662 3.733 3.02 4.305 3.02 1.271 0 18.319 -15.74 18.319 -16.913 0 -1.135 -6.35 -7.499 -7.482 -7.499 -1.422 0 -18.407 15.852 -18.407 17.18 0 0.654 1.469 2.55 3.265 4.211 z m 12.965 12.846 c 2.515 2.51 3.649 3.171 4.832 2.817 2.382 -0.713 17.771 -15.12 17.771 -16.639 0 -1.514 -5.895 -7.491 -7.388 -7.491 -1.307 0 -18.517 15.895 -18.508 17.09 0 0.517 1.486 2.415 3.293 4.219 z m 13.42 12.75 c 3.609 3.352 3.834 3.449 5.52 2.388 2.828 -1.779 14.14 -11.941 15.928 -14.303 l 1.635 -2.165 l -3.686 -3.529 c -2.027 -1.941 -4.147 -3.529 -4.711 -3.529 -1.202 0 -18.454 15.802 -18.451 16.9 0 0.41 1.695 2.317 3.764 4.239 z m 13.327 13.285 l 3.383 3.131 l 2.082 -1.286 c 3.21 -1.984 17.04 -14.971 17.04 -16 -0.002 -1.451 -6.145 -7.343 -7.655 -7.343 -1.977 0 -18.259 15.08 -18.246 16.903 0.008 0.806 1.533 2.875 3.394 4.597 z m 12.94 12.749 c 2.946 2.778 3.582 3.083 4.969 2.383 2.58 -1.302 16.674 -14.364 17.207 -15.948 0.368 -1.092 -0.327 -2.238 -2.792 -4.607 -1.805 -1.734 -3.881 -3.153 -4.614 -3.153 -1.808 0 -18.15 15.14 -18.15 16.811 0 0.73 1.52 2.761 3.379 4.513 z m 12.831 12.271 c 1.796 1.662 3.85 3.02 4.566 3.02 1.701 0 18.07 -14.915 18.03 -16.428 -0.046 -1.722 -5.655 -7.266 -7.351 -7.266 -1.758 0 -18.506 14.987 -18.506 16.56 0 0.6 1.469 2.45 3.265 4.112 z m 12.822 12.73 c 1.728 1.768 3.755 3.215 4.504 3.215 1.399 0 16.945 -13.511 18.307 -15.911 0.623 -1.097 0.156 -1.943 -2.575 -4.668 -2.741 -2.736 -3.67 -3.249 -5.216 -2.883 -1.92 0.454 -18.16 15.06 -18.16 16.333 0 0.385 1.414 2.147 3.143 3.915 z m 17.611 16.11 c 1.464 0.035 18.841 -15.445 18.841 -16.784 0 -0.455 -1.684 -2.392 -3.742 -4.304 l -3.742 -3.476 l -2.159 1.463 c -1.187 0.805 -5.537 4.714 -9.665 8.687 l -7.507 7.223 l 3.319 3.579 c 1.825 1.968 3.92 3.593 4.656 3.611 z" fill="#6e6e6e"/><path d="m 8.587 963.1 c -1.442 -1.35 -1.089 -2.085 2.464 -5.141 1.848 -1.589 3.361 -3.264 3.361 -3.721 0 -1.211 -14.853 -16.17 -16.939 -17.06 -1.517 -0.647 -2.11 -0.461 -4.176 1.311 -5.45 4.673 -5.374 4.639 -6.843 3.119 -1.273 -1.317 -1.203 -1.466 2.119 -4.49 3.477 -3.165 4.04 -4.217 2.689 -5 -1.31 -0.758 -0.805 -2.853 1.091 -4.521 1.672 -1.472 2.047 -1.536 4.168 -0.713 2.261 0.877 2.431 0.81 5.711 -2.261 l 3.38 -3.166 l -1.349 -1.928 l -1.349 -1.928 l 2.451 -2.051 c 2.334 -1.953 2.538 -1.998 4.263 -0.939 2.201 1.351 3.577 0.794 6.962 -2.816 2.309 -2.463 2.344 -2.595 1.144 -4.311 -1.2 -1.716 -1.169 -1.835 1.029 -3.893 2.239 -2.097 2.292 -2.108 4.272 -0.892 l 2.01 1.231 l 3.637 -3.355 c 3.512 -3.24 3.597 -3.412 2.476 -5.01 -1.047 -1.496 -1.048 -1.821 -0.009 -3.306 1.373 -1.963 4.01 -2.894 5.15 -1.822 1.454 1.362 3.144 0.829 5.972 -1.883 2.994 -2.872 3.244 -3.643 1.859 -5.721 -0.766 -1.149 -0.63 -1.635 0.877 -3.138 1.831 -1.825 4.066 -2.319 4.884 -1.079 0.849 1.287 2.585 0.72 5.599 -1.83 3.188 -2.697 3.531 -3.672 2.066 -5.869 -0.804 -1.206 -0.615 -1.674 1.464 -3.621 2.264 -2.121 2.46 -2.175 3.783 -1.053 1.993 1.69 2.458 1.542 6.113 -1.947 3.061 -2.921 3.214 -3.244 2.297 -4.849 -1.194 -2.09 -0.713 -3.465 1.737 -4.969 1.715 -1.052 1.996 -1.051 3.729 0.012 1.833 1.125 1.95 1.085 5.28 -1.789 3.601 -3.109 3.968 -4.03 2.483 -6.263 -0.794 -1.191 -0.646 -1.643 1.064 -3.245 1.822 -1.706 2.174 -1.788 4.238 -0.987 2.049 0.795 2.494 0.701 4.946 -1.051 3.603 -2.574 4.339 -3.982 3.25 -6.221 -0.758 -1.558 -0.643 -2.026 0.874 -3.537 1.956 -1.95 3.069 -2.138 5.216 -0.883 1.293 0.756 1.872 0.488 4.844 -2.244 3.624 -3.331 3.998 -4.255 2.271 -5.597 -1.372 -1.067 -0.433 -2.992 2.27 -4.651 1.727 -1.06 1.961 -1.056 3.272 0.056 1.629 1.381 3.069 0.898 5.961 -1.998 2.078 -2.081 3.209 -2.262 4.567 -0.731 0.813 0.917 0.484 1.535 -2.149 4.048 -1.709 1.631 -3.108 3.467 -3.108 4.08 0 1.342 16.4 17.399 17.753 17.381 0.523 -0.007 2.454 -1.311 4.292 -2.898 2.781 -2.401 3.53 -2.739 4.464 -2.01 1.671 1.299 1.402 2.122 -1.649 5.05 -2.747 2.635 -2.76 2.675 -1.519 4.643 1.223 1.939 1.204 2.028 -0.817 3.841 -2.131 1.912 -4.164 2.385 -4.974 1.157 -0.93 -1.41 -3.129 -0.631 -6.01 2.128 l -2.948 2.827 l 1.301 2.124 c 1.293 2.111 1.288 2.136 -0.928 4.212 -2.224 2.083 -2.236 2.085 -4.476 0.845 l -2.246 -1.243 l -3.364 3.092 c -3.748 3.445 -3.906 3.878 -2.101 5.746 1.197 1.239 1.143 1.419 -1.038 3.462 l -2.301 2.155 l -2.319 -1.283 l -2.319 -1.283 l -3.364 3.092 c -3.732 3.431 -3.902 3.882 -2.145 5.701 1.12 1.159 1.122 1.399 0.02 2.975 -1.595 2.28 -3.759 2.837 -5.906 1.52 -1.644 -1.01 -1.914 -0.945 -4.52 1.067 -3.837 2.962 -4.693 4.614 -3.194 6.165 1.584 1.64 1.491 2.342 -0.549 4.136 -1.837 1.616 -3.858 1.975 -4.619 0.821 -0.92 -1.394 -2.994 -0.641 -6.101 2.215 -3.166 2.91 -3.169 2.918 -1.917 4.903 1.235 1.958 1.217 2.023 -1.122 4.213 -2.253 2.11 -2.448 2.164 -3.771 1.042 -2.149 -1.821 -3.44 -1.448 -6.8 1.966 -2.996 3.044 -3.059 3.205 -1.909 4.849 2.264 3.236 -1.777 7.02 -5.232 4.897 -1.789 -1.098 -1.962 -1.05 -5.235 1.462 -3.485 2.675 -4.063 4.229 -2.462 6.63 0.796 1.194 0.639 1.649 -1.139 3.313 -2.035 1.904 -2.092 1.913 -4.317 0.72 l -2.255 -1.209 l -3.327 2.872 c -3.518 3.037 -3.885 3.975 -2.416 6.177 0.782 1.173 0.604 1.665 -1.257 3.484 -2.027 1.982 -2.277 2.051 -3.872 1.073 -2.514 -1.543 -3.407 -1.321 -6.459 1.606 -2.974 2.853 -3.241 3.647 -1.901 5.658 1.107 1.66 0.464 3.191 -1.964 4.681 -1.782 1.094 -2.027 1.097 -3.273 0.041 -1.866 -1.582 -2.134 -1.505 -5.796 1.656 -3.521 3.039 -4.02 3.221 -5.365 1.958 z m 15.835 -17.278 c 1.983 -1.886 3.483 -3.767 3.332 -4.18 -0.15 -0.413 -3.91 -4.378 -8.355 -8.811 -5.428 -5.414 -8.606 -8.06 -9.68 -8.06 -1.925 0 -8 5.391 -8 7.098 0 1.584 16.222 17.382 17.849 17.382 0.688 0 2.873 -1.543 4.856 -3.429 z m 13.248 -11.859 c 1.995 -1.868 3.627 -3.734 3.627 -4.146 0 -0.922 -15.381 -16.04 -17.295 -16.996 -1.127 -0.565 -2.065 -0.092 -5.112 2.577 -2.052 1.798 -3.731 3.845 -3.731 4.549 0 1.483 16.343 17.413 17.864 17.413 0.56 0 2.651 -1.529 4.646 -3.397 z m 13.18 -12.192 c 1.728 -1.65 3.143 -3.578 3.143 -4.286 0 -1.36 -16.248 -17.195 -17.644 -17.195 -1.727 0 -7.747 5.712 -7.747 7.35 0 2.163 15.377 17.15 17.581 17.14 0.839 -0.006 2.939 -1.36 4.667 -3.01 z m 13.442 -11.89 c 1.728 -1.649 3.143 -3.562 3.143 -4.251 0 -1.612 -16.263 -17.23 -17.941 -17.23 -0.699 0 -2.848 1.579 -4.775 3.509 l -3.505 3.509 l 1.63 2.143 c 3.173 4.174 15.452 15.319 16.877 15.319 0.786 0 2.844 -1.35 4.572 -2.999 z m 13.379 -11.925 c 2.784 -2.463 3.343 -3.351 2.973 -4.721 -0.609 -2.255 -15.744 -16.725 -17.493 -16.725 -0.755 0 -3.01 1.555 -5.01 3.456 -3.562 3.387 -3.61 3.49 -2.418 5.194 2.083 2.977 16.203 15.831 17.39 15.831 0.62 0 2.67 -1.365 4.556 -3.034 z m 13.205 -12.276 c 2.686 -2.554 3.478 -3.769 3.128 -4.8 -0.612 -1.806 -16.336 -16.961 -17.598 -16.961 -1.233 0 -8.226 6.506 -8.226 7.653 0 1.085 17.13 17.527 18.261 17.527 0.461 0 2.457 -1.539 4.434 -3.419 z m 14.159 -12.539 c 2.234 -2.16 2.76 -3.12 2.358 -4.307 -0.669 -1.976 -16.254 -16.805 -17.661 -16.805 -0.589 0 -2.717 1.565 -4.728 3.477 -3.439 3.27 -3.598 3.58 -2.668 5.207 0.544 0.952 4.614 5.076 9.04 9.165 9 8.31 8.546 8.201 13.655 3.262 z m 12.637 -11.558 c 1.942 -1.67 3.531 -3.393 3.531 -3.829 0 -1.947 -16.08 -17.624 -18.06 -17.607 -1.348 0.011 -8.07 6.177 -8.07 7.401 0 1.411 16.378 17.07 17.853 17.07 0.673 0 2.812 -1.366 4.754 -3.036 z m 13.569 -12.31 l 3.634 -3.456 l -1.357 -1.939 c -2.502 -3.576 -14.789 -14.959 -16.61 -15.387 -1.435 -0.337 -2.47 0.192 -5.101 2.61 -1.815 1.668 -3.3 3.559 -3.3 4.202 0 1.567 16.233 17.425 17.837 17.425 0.694 0 2.898 -1.555 4.897 -3.456 z" fill="#4e4e4e"/><path d="m -2.423 831.55 c 0.75 0 2.698 1.289 4.329 2.864 1.631 1.575 3.632 2.864 4.448 2.864 1.436 0 19.461 -16.07 19.461 -17.355 0 -0.333 -1.576 -2.196 -3.503 -4.139 -2.2 -2.218 -3.338 -3.939 -3.06 -4.623 0.722 -1.775 2.277 -1.267 5.425 1.774 3.189 3.081 4.099 3.356 6.51 1.969 1.364 -0.784 1.788 -0.642 3.439 1.151 1.759 1.91 1.806 2.158 0.711 3.734 -0.645 0.928 -1.172 1.867 -1.172 2.087 0 0.904 6.346 6.811 7.318 6.811 0.579 0 1.728 -0.398 2.554 -0.885 1.295 -0.763 1.788 -0.614 3.584 1.08 1.796 1.694 1.953 2.159 1.145 3.381 -1.433 2.165 -1.165 2.976 2.077 6.269 3.244 3.294 3.822 3.499 6.097 2.158 1.295 -0.763 1.788 -0.614 3.584 1.08 1.796 1.694 1.953 2.159 1.145 3.381 -1.48 2.235 -1.159 3.081 2.431 6.404 3.285 3.041 3.429 3.095 5.803 2.167 2.302 -0.899 2.535 -0.842 4.261 1.051 1.704 1.868 1.742 2.089 0.58 3.301 -1.648 1.718 -0.995 3.38 2.645 6.733 2.868 2.641 3.084 2.715 5.367 1.823 2.196 -0.858 2.526 -0.79 4.298 0.881 1.881 1.774 1.892 1.85 0.578 3.742 l -1.342 1.932 l 3.921 3.698 c 3.489 3.291 4.086 3.601 5.427 2.811 2.268 -1.336 3.635 -1.082 5.04 0.939 0.955 1.375 1.053 2.03 0.397 2.649 -1.653 1.559 -0.862 3.827 2.383 6.831 3.655 3.383 4.03 3.497 5.992 1.821 1.31 -1.118 1.512 -1.089 3.286 0.483 1.946 1.724 2.467 3.868 1.131 4.647 -1.34 0.781 -0.819 2.392 1.622 5.01 3.369 3.619 4.808 4.216 6.96 2.886 1.663 -1.028 1.894 -0.967 3.932 1.04 2.041 2.01 2.093 2.208 0.898 3.454 -1.809 1.885 -1.648 2.349 1.987 5.714 3.336 3.089 4.9 3.626 6.41 2.202 1.16 -1.094 2.88 -0.371 4.433 1.865 1.206 1.736 1.205 1.928 -0.016 3.201 -1.569 1.635 -1 2.872 2.947 6.458 2.577 2.338 2.87 2.43 5.169 1.612 2.222 -0.791 2.605 -0.709 4.34 0.927 1.631 1.538 1.769 1.998 0.965 3.212 -1.382 2.087 -1.203 2.706 1.719 5.926 2.971 3.275 3.188 3.954 1.462 4.579 -0.773 0.28 -2.323 -0.612 -4.393 -2.528 -1.759 -1.629 -3.666 -2.961 -4.238 -2.961 -1.372 0 -19.02 16.461 -19.02 17.741 0 0.545 1.195 2.368 2.657 4.05 1.461 1.682 2.657 3.401 2.657 3.82 0 1.825 -2.133 1.211 -5.08 -1.462 -3.16 -2.866 -3.197 -2.878 -5.185 -1.65 -2.367 1.463 -3.611 1.147 -5.351 -1.357 -1.187 -1.709 -1.19 -1.943 -0.044 -3.138 1.752 -1.826 1.615 -2.206 -2.169 -6.01 -3.678 -3.699 -4.278 -3.944 -5.701 -2.327 -1.342 1.526 -2.508 1.338 -4.573 -0.735 -1.763 -1.77 -1.773 -1.855 -0.469 -3.937 l 1.333 -2.128 l -3.404 -3.399 c -3.333 -3.328 -3.456 -3.38 -5.908 -2.507 -2.303 0.82 -2.657 0.747 -4.407 -0.904 -1.631 -1.538 -1.769 -1.998 -0.965 -3.212 1.541 -2.327 1.092 -3.867 -1.941 -6.66 -3.063 -2.821 -4.551 -3.192 -7.05 -1.756 -1.364 0.785 -1.789 0.642 -3.444 -1.156 -1.72 -1.869 -1.784 -2.16 -0.711 -3.278 1.825 -1.902 1.438 -3.08 -2.077 -6.335 -3.499 -3.239 -4.296 -3.496 -6.617 -2.128 -1.289 0.759 -1.777 0.625 -3.446 -0.949 -1.93 -1.821 -1.934 -1.85 -0.578 -4.079 l 1.366 -2.245 l -3.381 -3.25 c -3.271 -3.144 -5.508 -4.02 -6.48 -2.534 -0.863 1.317 -3.367 0.735 -4.624 -1.074 -1.154 -1.661 -1.152 -1.922 0.033 -3.628 1.412 -2.033 1.32 -2.241 -2.919 -6.575 -2.482 -2.538 -3.492 -2.789 -5.786 -1.437 -2.742 1.615 -6.438 -1.871 -4.725 -4.457 1.489 -2.249 1.167 -3.086 -2.476 -6.459 -3.416 -3.162 -3.421 -3.164 -5.576 -1.964 -2.107 1.174 -2.203 1.156 -4.172 -0.783 -1.829 -1.801 -1.912 -2.114 -0.9 -3.376 1.778 -2.217 1.385 -3.394 -2.255 -6.765 -3.388 -3.136 -3.439 -3.155 -5.517 -1.997 -3.703 2.063 -7.377 -1.432 -5.04 -4.795 1.216 -1.751 1.173 -1.878 -1.63 -4.84 -3.921 -4.144 -4.617 -4.448 -6.919 -3.03 -1.885 1.165 -2.02 1.143 -3.921 -0.654 -1.944 -1.834 -1.953 -1.888 -0.633 -3.995 l 1.338 -2.136 l -3.068 -3.14 c -3.272 -3.348 -3.936 -5.486 -1.704 -5.486 z m 16.577 15.07 c 2.127 2.145 4.171 3.549 5.167 3.549 1.749 0 19.401 -15.86 19.393 -17.423 -0.008 -1.101 -7.11 -8.352 -8.183 -8.352 -2.05 0 -19.896 16.234 -19.896 18.1 0 0.318 1.584 2.175 3.519 4.127 z m 13.298 12.907 c 1.952 2.184 3.761 3.524 4.744 3.514 2.113 -0.021 19.426 -15.724 19.426 -17.62 0 -0.766 -1.698 -2.97 -3.773 -4.898 -3.646 -3.387 -3.842 -3.471 -5.799 -2.483 -3.071 1.55 -17.752 15.422 -17.752 16.774 0 0.651 1.42 2.772 3.155 4.713 z m 13.325 12.991 c 1.967 1.884 4.147 3.426 4.843 3.426 1.908 0 18.935 -15.812 18.919 -17.568 -0.008 -0.802 -1.712 -3.037 -3.787 -4.965 -3.66 -3.4 -3.836 -3.475 -5.841 -2.479 -3.046 1.513 -17.71 15.554 -17.71 16.958 0 0.662 1.61 2.745 3.577 4.629 z m 12.846 12.764 c 1.936 1.952 4.157 3.549 4.936 3.549 1.526 0 19.648 -16.283 19.636 -17.643 -0.014 -1.524 -6.943 -8.132 -8.528 -8.132 -1.707 0 -19.564 16.213 -19.564 17.762 0 0.503 1.584 2.511 3.52 4.464 z m 13.289 12.542 c 2.148 2.142 4.348 3.895 4.888 3.895 1.364 0 18.349 -15.515 18.954 -17.313 0.376 -1.117 -0.37 -2.287 -3.163 -4.962 -2.01 -1.925 -4.311 -3.5 -5.112 -3.5 -1.386 0 -19.473 16.177 -19.473 17.417 0 0.313 1.757 2.321 3.905 4.464 z m 13.334 13.357 c 1.967 1.884 4.02 3.426 4.566 3.426 1.44 0 19.18 -16.459 19.18 -17.795 0 -1.564 -6.847 -7.981 -8.515 -7.981 -1.988 0 -18.81 15.591 -18.81 17.434 0 0.82 1.61 3.03 3.577 4.916 z m 13.08 12.899 l 3.754 3.541 l 2.268 -1.263 c 4.184 -2.331 17.549 -15.213 17.549 -16.914 0 -2.132 -5.881 -7.724 -8.123 -7.724 -2.203 0 -19.219 15.471 -19.21 17.465 0 0.745 1.697 2.949 3.761 4.896 z m 12.881 12.305 c 3.034 2.819 4.078 3.385 5.586 3.03 2.166 -0.513 18.766 -15.692 18.766 -17.16 0 -0.547 -1.874 -2.666 -4.164 -4.709 -3.499 -3.121 -4.397 -3.597 -5.625 -2.977 -2.613 1.319 -18.317 16.12 -18.306 17.25 0.007 0.606 1.69 2.661 3.742 4.568 z m 12.846 12.748 c 3.117 3.082 3.972 3.562 5.641 3.167 2.292 -0.543 18.768 -15.492 18.768 -17.03 0 -1.321 -6.981 -8.492 -8.268 -8.492 -1.647 0 -19.776 16.597 -19.805 18.13 -0.008 0.325 1.642 2.225 3.663 4.223 z" fill="#2e2e2e"/></g></g></svg>