<svg xmlns="http://www.w3.org/2000/svg" viewBox="0 0 256 256"><path d="m 6.726 155.81 c 19.594 130.31 214.64 134.22 244.12 7.546 30.339 -102.55 -79.52 -186.4 -161.69 -152.8 -55.02 15.88 -99.48 80.86 -82.42 145.25 z" fill="#ff8c00" color="#000"/><g fill-rule="evenodd"><g fill="#fff"><path d="m 114.69 194.17 c 0 -0.751 1.814 -0.874 12.825 -0.874 11.01 0 12.825 0.124 12.825 0.874 0 0.751 -1.814 0.874 -12.825 0.874 -11.01 0 -12.825 -0.124 -12.825 -0.874 z"/><path d="m 97.2 188.34 c 0 -1.339 0.214 -1.457 2.623 -1.457 2.41 0 2.623 0.119 2.623 1.457 0 1.339 -0.214 1.457 -2.623 1.457 -2.41 0 -2.623 -0.119 -2.623 -1.457 z"/></g><path d="m 194.71 135.03 a 56.55 59.17 0 1 1 -113.1 0 56.55 59.17 0 1 1 113.1 0 z" transform="matrix(1.19433 0 0 1.15616 -37.925 -27.499)" fill="#ff8c00" stroke="#fff"/><g fill="#fff"><path d="m 103.61 191.88 c 0 -1.01 -0.389 -2.238 -2.915 -2.238 -2.721 0 -3.987 -0.455 -3.987 -1.815 0 -1.378 0.898 -0.385 -2.134 -0.385 -3.174 0 -3.564 -1.448 -3.564 -3.179 0 -1.684 -0.455 -0.676 -2.981 -0.676 -1.943 0 -2.623 -2.372 -2.623 -3.02 0 -0.648 1.395 -3.02 3.338 -3.02 h 2.623 v -3.498 c 0 -3.109 -0.13 -3.498 -1.166 -3.498 -1.055 0 -1.166 -0.389 -1.166 -4.081 0 -3.964 -0.042 -4.081 -1.457 -4.081 -1.452 0 -1.457 -0.019 -1.457 -5.538 1.455 -7.287 -0.249 1.569 -0.28 -0.744 -1.481 -1.232 -2.587 -1.658 -2.852 -0.51 -0.545 2.172 -2.115 2.02 -2.115 -0.204 0 -1.555 -0.194 -1.749 -1.749 -1.749 -1.36 0 -1.749 -0.259 -1.749 -1.166 0 -0.907 -0.389 -1.166 -1.749 -1.166 -1.477 0 -1.749 -0.227 -1.749 -1.457 0 -0.907 -0.33 -1.457 -0.874 -1.457 -0.544 0 -0.874 -0.551 -0.874 -1.457 0 -1.231 -0.272 -1.457 -1.749 -1.457 -1.36 0 -1.749 -0.259 -1.749 -1.166 0 -0.641 -0.23 -1.166 -0.512 -1.166 -1.045 0 -1.67 1.554 -2.01 5 -0.427 4.293 -0.843 5.49 -1.91 5.49 -0.634 0 -0.812 -1.151 -0.812 -5.247 v -5.247 h -1.749 h -1.749 v -16.906 v -16.906 h 1.749 c 1.731 0 1.749 -0.032 1.749 -3.206 0 -2.461 0.203 -3.206 0.874 -3.206 0.648 0 0.874 -0.68 0.874 -2.623 0 -2.526 0.065 -2.623 1.749 -2.623 1.71 0 1.749 -0.065 1.749 -2.915 0 -2.85 0.039 -2.915 1.749 -2.915 1.731 0 1.749 -0.032 1.749 -3.206 0 -2.461 0.203 -3.206 0.874 -3.206 0.481 0 0.874 -0.394 0.874 -0.874 0 -0.583 0.583 -0.874 1.749 -0.874 1.731 0 1.749 -0.032 1.749 -3.206 l -0.715 -1.419 l 3.338 -1.787 c 1.97 -1.055 2.623 -0.173 2.623 -1.166 0 -1.025 0.389 -1.166 3.206 -1.166 3.03 0 3.206 -0.079 3.206 -1.457 0 -1.069 0.311 -1.457 1.166 -1.457 0.907 0 1.166 -0.389 1.166 -1.749 0 -1.731 0.032 -1.749 3.206 -1.749 2.818 0 3.206 -0.141 3.206 -1.166 0 -0.777 0.389 -1.166 1.166 -1.166 0.855 0 1.166 -0.389 1.166 -1.457 v -1.457 h 6.121 h 6.121 v -1.749 l -2.502 0.039 l 13.453 -1.787 h 10.951 l 1.033 1.749 c 1.367 2.314 2.716 2.295 2.716 -0.039 0 -1.591 0.884 1.092 2.259 1.257 0.849 0.101 1.118 -2.151 1.471 -1.509 0.353 0.641 0.729 1.297 0.835 1.457 0.107 0.16 1.812 0.423 3.789 0.583 3.02 0.245 3.688 0.501 4.171 1.603 0.505 1.152 1 1.312 4.098 1.312 2.854 0 3.682 0.221 4.363 1.166 0.55 0.764 1.509 1.166 2.779 1.166 1.544 0 2.141 0.356 2.932 1.745 0.546 0.96 1.312 1.747 1.701 1.749 0.389 0.002 1.351 0.951 2.138 2.109 0.787 1.158 2.239 2.597 3.227 3.198 0.988 0.601 1.797 1.49 1.797 1.976 0 0.486 0.459 0.883 1.02 0.884 0.574 0.001 1.744 1.147 2.677 2.623 0.976 1.544 2.094 2.622 2.72 2.622 0.621 0 1.386 0.728 1.838 1.749 0.427 0.964 1.224 1.749 1.775 1.749 0.683 0 1.211 0.781 1.664 2.461 0.364 1.353 1.03 2.986 1.48 3.628 0.45 0.642 0.817 1.743 0.817 2.447 0 1.849 0.595 3.124 1.457 3.124 0.992 0 1.422 1.243 1.851 5.344 0.281 2.691 0.565 3.4 1.359 3.4 1.474 0 1.745 3.169 1.745 20.412 0 17.362 -0.146 18.646 -2.113 18.646 h -1.385 v -15.449 v -15.449 h -1.749 c -1.555 0 -1.749 -0.194 -1.749 -1.749 0 -1.36 -0.259 -1.749 -1.166 -1.749 -0.855 0 -2.953 6.05 -2.953 4.977 -9.603 -5.989 -0.846 -1.543 -0.816 0.43 -0.09 1.479 -0.62 2.615 -1.679 3.596 -0.851 0.789 -1.548 1.948 -1.548 2.576 0 1.991 -5.113 7.34 -6.621 7.34 -6.402 -7.439 1.243 -0.696 1.323 1.984 0.136 5.336 0.51 10.577 1.572 10.577 0.446 0 0.84 0.197 0.874 0.437 0.035 0.24 0.363 2.142 0.729 4.227 0.633 3.601 0.753 3.799 2.415 3.987 2.472 0.279 3.404 1.146 2.357 2.192 -0.449 0.449 3.578 4.749 3.268 4.749 -0.662 0 -0.197 1.757 -0.197 3.278 0 0.592 -2.497 2.501 -2.927 2.931 -0.43 0.43 -2.168 1.367 -2.55 2.082 -0.383 0.715 -2.058 -1.303 -1.921 -0.845 0.523 1.756 3.034 -2.713 2.957 -0.447 -0.106 3.161 -3.217 12.328 -5.814 6.92 -0.374 -0.779 0.621 -0.088 -0.122 0.194 -0.743 0.283 -0.991 1.947 -1.861 3.262 -0.87 1.315 -3.408 2.748 -3.893 2.748 -0.484 0 -1.845 0.656 -2.15 1.457 -0.42 1.104 -1.69 1.815 -3 1.815 -1.701 0 -2.453 -7.571 -2.634 -10.859 -0.144 -2.597 -0.307 -3.09 -0.725 -2.186 -1.2 2.592 -1.384 2.623 -15.416 2.623 h -13.436 l -0.955 1.457 c -0.606 0.925 -1.499 1.457 -2.445 1.457 -0.82 0 -1.979 0.443 -2.577 0.984 -0.598 0.541 -2.185 1.131 -3.527 1.312 -1.678 0.225 -2.629 0.706 -3.043 1.539 -0.332 0.666 -1.06 1.668 -1.619 2.227 -0.779 0.779 -0.875 1.277 -0.413 2.141 0.331 0.619 0.874 1.125 1.206 1.125 0.332 0 -2.649 5.756 -3.13 6.237 -0.672 0.672 3.351 2.662 -1.609 2.662 -6.07 0 -9.314 -2.215 -9.314 -3.311 z m 65.875 -27.741 c 0 -0.962 -0.262 -1.749 -0.583 -1.749 -0.648 0 -0.805 2.499 -0.194 3.109 0.659 0.659 0.777 0.451 0.777 -1.36 z m -36.727 -13.7 c 0 -1.069 0.311 -1.457 1.166 -1.457 1.062 0 1.166 1.756 1.166 -2.227 0 -4.275 0.747 -2.942 2.172 -2.942 1.231 0 2.53 -0.987 2.53 -2.464 0 -1.555 0.194 -2.821 1.749 -2.821 1.166 0 -0.038 -2.079 -0.038 -2.662 0 -0.481 0.393 -0.874 0.874 -0.874 0.583 0 0.874 -0.583 0.874 -1.749 0 -1.555 0.194 -1.749 1.749 -1.749 1.684 0 1.749 -0.097 1.749 -2.623 0 -2.526 -0.065 -2.623 -1.749 -2.623 -1.731 0 -1.749 -0.032 -1.749 -3.206 0 -2.461 -0.203 -3.206 -0.874 -3.206 -0.486 0 -0.874 -0.518 -0.874 -1.166 0 -0.907 -0.389 -1.166 -1.749 -1.166 -1.731 0 -1.749 -0.032 -1.749 -3.206 0 -3.03 -0.079 -3.206 -1.457 -3.206 -1.069 0 -1.457 -0.311 -1.457 -1.166 0 -0.777 -0.389 -1.166 -1.166 -1.166 -0.855 0 -1.166 -0.389 -1.166 -1.457 0 -1.069 -0.311 -1.457 -1.166 -1.457 -0.907 0 -1.166 0.389 -1.166 1.749 0 1.106 0.298 1.749 0.812 1.749 0.447 0 0.963 0.394 1.148 0.874 0.185 0.481 0.68 0.874 1.101 0.874 1.103 0 -3.497 -8.11 -4.087 -6.582 -0.823 2.13 -1.205 2.1 -3.446 2.1 -1.424 0 -5.03 1.028 -5.291 1.735 -0.626 1.697 -4.238 4.02 -10.754 4.03 l -0.547 9.661 l -1.787 6.837 c -1.351 5.169 1.48 3.39 -0.318 3.402 -1.739 0.012 0.68 2.725 0.189 4.3 -0.61 1.955 0.552 3.565 2.724 3.774 1.299 0.125 2.075 0.595 2.469 1.494 0.419 0.955 1.068 1.312 2.387 1.312 1.071 0 2.243 0.476 2.867 1.166 0.58 0.641 1.401 1.166 1.824 1.166 0.423 0 1.176 0.787 1.674 1.749 1.204 2.328 2.623 2.305 2.623 -0.043 0 -1.39 0.228 -1.748 1.016 -1.596 0.559 0.108 1.36 0.914 1.781 1.792 0.421 0.878 1.15 1.596 1.62 1.596 0.47 0 1.154 0.656 1.519 1.457 0.365 0.802 1.147 1.457 1.736 1.457 0.755 0 1.072 -0.431 1.072 -1.457 z m -23.902 -27.399 c 0 -1.763 -0.262 -3.206 -0.583 -3.206 -0.642 0 -0.816 5.402 -0.194 6.02 0.701 0.701 0.777 0.425 0.777 -2.818 z m 3.498 -10.202 c 0 -1.324 -0.267 -1.749 -1.098 -1.749 -1.113 0 -1.83 1.437 -1.382 2.769 0.135 0.401 0.748 0.729 1.363 0.729 0.853 0 1.117 -0.414 1.117 -1.749 z m 5.247 -2.915 c 0 -0.641 -0.234 -1.166 -0.521 -1.166 -0.655 0 -1.267 1.516 -0.799 1.983 0.702 0.702 1.32 0.319 1.32 -0.817 z m -40.19 -4.081 c 3.303 0 3.461 -0.067 3.461 -1.457 0 -0.907 0.33 -1.457 0.874 -1.457 0.486 0 0.874 -0.518 0.874 -1.166 0 -1.383 -0.741 -1.506 -1.749 -0.291 -0.399 0.481 -1.349 0.874 -2.112 0.874 -1.228 0 1.831 2.952 1.831 0.885 0 -2.202 3.672 -1.259 5.324 -1.259 1.555 0 -0.753 -2.339 -0.753 -3.894 0 -1.684 3.691 1.971 2.623 -0.319 l 1.908 -1.43 l 2.86 -2.623 c 1.776 -1.629 -1.311 -0.121 0.027 -0.121 1.339 0 2.422 -3.756 0.742 -5.483 v 0.237 h -0.275 l 4.73 -4.647 v -1.749 c 0 -1.477 -0.227 -1.749 -1.457 -1.749 -1.166 0 -1.457 -0.291 -1.457 -1.457 0 -1.384 -0.167 -1.457 -3.33 -1.457 -2.755 0 -3.586 0.249 -4.809 1.442 -4.233 4.126 -7.16 6.72 -7.582 6.72 -0.26 0 -0.656 0.979 -0.88 2.175 -0.559 2.981 -1.319 4.237 -2.563 4.237 -0.579 0 -1.4 0.721 -1.824 1.603 -0.919 1.906 -1.501 12.251 -0.82 14.558 l 0.478 1.619 l 0.209 -1.895 l 0.209 -1.895 z m 11.622 -6.704 c 0 -1.069 0.311 -1.457 1.166 -1.457 0.907 0 1.166 -0.389 1.166 -1.749 0 -2.13 -0.702 -2.247 -1.749 -0.291 -0.429 0.802 -1.111 1.457 -1.517 1.457 -0.859 0 -1.641 2.05 -1.11 2.91 0.718 1.162 2.044 0.598 2.044 -0.869 z m 75.2 -18.946 v -5.247 h -1.749 c -1.456 0 -1.749 -0.234 -1.749 -1.395 0 -1.534 -0.959 -2.103 -3.545 -2.103 -1.426 0 -1.701 -0.236 -1.701 -1.457 0 -1.339 -0.214 -1.457 -2.623 -1.457 -1.845 0 -2.623 -0.239 -2.623 -0.806 0 -0.444 -0.59 -0.965 -1.312 -1.158 -1.708 -0.458 -11.995 -0.362 -13.734 0.128 -2.088 0.588 -1.795 1.526 0.538 1.721 1.582 0.132 2.27 0.536 2.764 1.62 0.362 0.794 1.167 1.633 1.789 1.864 0.622 0.231 1.739 1.314 2.482 2.406 0.743 1.092 1.876 2.273 2.517 2.623 1.614 0.883 2.02 1.556 2.031 3.359 0.018 3.212 0.33 3.4 5.651 3.4 3.609 0 5.169 0.235 5.809 0.874 0.481 0.481 1.905 0.874 3.165 0.874 h 2.29 z"/><path d="m 174.24 168.24 c 0 -2.721 1.17 1.732 2.53 1.732 1.069 0 1.457 -0.311 1.457 -1.166 0 -0.777 0.389 -1.166 1.166 -1.166 0.993 0 -3.839 -4.259 -3.839 -2.024 0 2.235 -1.603 2.623 -2.596 2.623 -0.855 0 0.979 -3.186 0.979 -2.117 0 1.166 -1.721 2.53 -2.887 2.53 -1.36 0 3.19 2.308 3.19 -0.412 z"/></g></g></svg>