<svg xmlns="http://www.w3.org/2000/svg" viewBox="0 0 256 256"><path d="m 226.22 46.721 c 62.27 95.76 12.03 183 -58.47 203.69 -94.83 27.843 -223.59 -45.32 -138.75 -196.1 c 33.72 -59.925 152.85 -75.79 197.21 -7.587 z" fill="#396552" color="#000"/><g transform="matrix(1.27328 0 0 1.25498 -24.289 -33.767)"><path d="m 149.46 179.17 c -5.977 -1.853 -6.643 -3.322 -6.643 -14.656 0 -5.69 -0.338 -10.336 -0.75 -10.325 -0.412 0.011 -3.555 0.426 -6.982 0.922 -4.833 0.699 -8.201 0.503 -15 -0.874 -4.822 -0.977 -9.06 -1.504 -9.421 -1.172 -0.359 0.332 -0.274 2.854 0.19 5.604 1.378 8.168 1.146 16.17 -0.517 17.837 -0.936 0.936 -4.649 1.744 -10.1 2.198 -7.933 0.661 -8.782 0.552 -10.707 -1.374 -2.034 -2.034 -2.059 -2.444 -0.923 -14.876 2.133 -23.338 -0.978 -26.772 -18.781 -20.73 -5.584 1.895 -8.498 2.37 -11.462 1.869 -4.643 -0.784 -7.551 -2.388 -7.551 -4.165 0 -0.693 -0.45 -1.259 -1 -1.259 -2.027 0 -1.069 -8.932 1.37 -12.77 3.55 -5.587 5.771 -7.156 11.97 -8.456 5.071 -1.064 6.133 -0.971 10.619 0.924 l 4.985 2.106 l 3.291 -3.652 c 1.81 -2.01 4.999 -7.114 7.086 -11.345 4.803 -9.736 8.785 -13.574 20.11 -19.381 l 9.07 -4.651 l 8.751 0.648 c 4.976 0.369 10.584 1.451 13 2.508 7.288 3.19 17.221 15.217 22.886 27.71 1.655 3.651 3.905 7.849 5 9.33 1.916 2.592 1.926 2.828 0.271 6.299 l -1.72 3.607 l 5.208 5.699 c 4.541 4.968 5.17 6.162 4.906 9.311 -0.276 3.301 -0.593 3.64 -3.679 3.935 -1.857 0.178 -3.86 -0.16 -4.45 -0.75 -0.59 -0.59 -1.433 -1.073 -1.873 -1.073 -1.123 0 -0.983 11.279 0.232 18.769 1.086 6.689 0.398 9.409 -2.805 11.09 -2.724 1.432 -11.444 2.113 -14.585 1.139 z m -47.27 -6.664 l 3.875 -0.64 l -0.509 -5.599 c -0.749 -8.241 -2.806 -14.303 -5.05 -14.891 -1.049 -0.274 -2.515 -1.896 -3.259 -3.604 -1.346 -3.091 -1.353 -3.078 -1.593 2.895 -0.38 9.45 -0.712 13.679 -1.431 18.25 -0.629 3.999 -0.528 4.249 1.713 4.239 1.31 -0.006 4.126 -0.299 6.257 -0.651 z m -25.375 -40.34 c 1.219 -0.788 1.09 -0.972 -0.691 -0.985 -1.205 -0.008 -2.469 0.435 -2.809 0.985 -0.787 1.273 1.53 1.273 3.5 0 z" fill="#b6decb"/><path d="m 150.07 178.19 c -5.76 -1.367 -6.164 -2.235 -6.473 -13.87 l -0.283 -10.655 l -9 0.334 c -5.626 0.209 -11.797 -0.256 -16.46 -1.24 -4.19 -0.884 -7.839 -1.196 -8.324 -0.71 -0.485 0.485 -0.393 3.41 0.21 6.674 1.447 7.829 1.364 15.96 -0.176 17.219 -0.688 0.562 -5.145 1.342 -9.906 1.733 -8.332 0.685 -8.701 0.626 -9.874 -1.565 -0.795 -1.486 -1 -4.302 -0.594 -8.11 0.343 -3.209 0.907 -8.49 1.254 -11.735 0.821 -7.692 -0.194 -12.754 -3.151 -15.711 -3.104 -3.104 -7.687 -3.095 -17.485 0.035 -5.864 1.873 -8.446 2.226 -11.803 1.612 -5.888 -1.077 -9.191 -4.357 -9.191 -9.126 0 -2.058 0.357 -3.892 0.793 -4.076 0.436 -0.183 1.829 -2.032 3.097 -4.108 4.259 -6.976 13.808 -9.503 21.62 -5.722 l 4.586 2.22 l 3.481 -3.862 c 1.914 -2.124 5.267 -7.527 7.45 -12.01 4.538 -9.311 7.566 -12.317 18.604 -18.469 7.737 -4.312 8.03 -4.385 16.879 -4.291 10.01 0.107 16.675 2.307 21.826 7.207 4.209 4 11.512 14.79 14.305 21.13 1.35 3.064 3.592 7.217 4.981 9.229 2.408 3.489 2.452 3.8 0.953 6.7 -0.865 1.673 -1.573 3.543 -1.573 4.156 0 0.613 2.475 3.63 5.5 6.703 4.162 4.229 5.5 6.307 5.5 8.54 0 2.831 -0.153 2.931 -3.75 2.46 -2.063 -0.27 -4.762 -0.82 -6 -1.222 -2.197 -0.713 -2.25 -0.555 -2.25 6.703 0 4.088 0.471 9.981 1.047 13.1 1.387 7.505 0.399 9.229 -6.086 10.62 -5.576 1.196 -5.152 1.191 -9.705 0.11 z m -43.06 -5.382 c 0.877 -1.377 -3.225 9.318 -5.214 0.615 -0.841 -3.681 -4.592 -1.128 -4.233 -1.709 0.931 -1.507 13.918 -24.78 19.656 -23.04 6.495 1.97 20.56 1.947 25.32 -0.042 5.785 -2.417 6.259 -1.746 6.167 8.746 -0.107 12.233 -0.185 11.786 2.068 11.786 1.081 0 2.466 0.937 3.08 2.083 0.983 1.837 1.312 1.914 2.785 0.652 0.919 -0.787 2.516 -1.732 3.548 -2.101 1.554 -0.554 1.768 -1.314 1.24 -4.402 -2.422 -14.172 -1.616 -22.504 2.23 -23.06 1.247 -0.18 3.394 0.411 4.77 1.313 4.849 3.177 4.5 0.899 -0.592 -3.864 -4.641 -4.341 -5.319 -4.673 -6.839 -3.349 -3.724 3.244 -16.359 5.971 -34.33 7.409 -5.743 0.46 -8.171 0.044 -18 -3.081 -7.437 -2.365 -13.568 -5.079 -17.748 -7.857 -15.595 -10.363 -21.34 -12.197 -30.364 -9.691 -4.135 1.148 -4.829 2.432 -1.75 3.237 2.289 0.599 2.732 4.216 0.615 5.03 -0.762 0.292 -2.291 -0.103 -3.399 -0.879 -1.755 -1.229 -2.09 -1.209 -2.615 0.157 -1.405 3.662 -0.741 4.521 2.96 3.826 3.117 -0.585 3.634 -0.392 4.141 1.548 0.658 2.515 2.599 2.459 12.298 -0.352 7.31 -2.119 11.826 -2.02 15.696 0.338 5.02 3.058 20.657 19.628 19.309 35.415 -0.678 7.948 -15.529 1.498 -14.977 2.162 1.157 1.393 13.2 0.638 14.172 -0.89 z" fill="#94caaa"/><path d="m 150.62 178.21 c -6.279 -1.202 -6.705 -2.045 -7.02 -13.885 l -0.283 -10.655 l -8.5 0.316 c -4.964 0.184 -11.81 -0.332 -16.458 -1.242 -4.377 -0.856 -8.336 -1.18 -8.797 -0.719 -0.461 0.461 -0.371 3.72 0.201 7.242 1.401 8.636 1.321 15.444 -0.196 16.662 -0.688 0.552 -5.179 1.322 -9.981 1.711 l -8.731 0.707 l -1.209 -2.655 c -0.942 -2.068 -0.946 -4.474 -0.019 -10.89 1.568 -10.847 1.503 -16.948 -0.225 -21.08 -2.503 -5.992 -7.904 -7.05 -18.08 -3.548 -3.197 1.1 -8.222 2 -11.166 2 -4.524 0 -5.816 -0.442 -8.343 -2.858 -2.225 -2.127 -2.991 -3.769 -2.991 -6.417 0 -1.957 0.357 -3.708 0.793 -3.892 0.436 -0.183 1.793 -1.973 3.02 -3.977 4.149 -6.799 15.03 -9.411 22.481 -5.398 l 3.639 1.958 l 3.554 -3.958 c 1.955 -2.177 5.413 -7.693 7.684 -12.258 4.597 -9.237 7.133 -11.729 18.619 -18.294 7.608 -4.348 7.83 -4.406 16.72 -4.311 9.679 0.103 16.56 2.264 21.34 6.703 3.908 3.629 11.06 14.172 14.739 21.736 1.9 3.905 4.414 8.396 5.585 9.98 2.01 2.724 2.04 3.02 0.48 5.397 -2.543 3.882 -2.071 5.294 3.851 11.502 3.95 4.141 5.5 6.545 5.5 8.531 0 2.615 -0.202 2.738 -3.75 2.273 -2.063 -0.27 -4.699 -0.804 -5.859 -1.185 -1.857 -0.61 -2.187 -0.208 -2.758 3.363 -0.357 2.231 0.017 8.171 0.83 13.2 1.737 10.742 1.173 12.537 -4.225 13.448 -2.056 0.347 -4.413 0.759 -5.238 0.917 -0.825 0.157 -3.164 -0.032 -5.198 -0.421 z m -43.37 -5.141 c 0.571 -0.527 0.435 -4.049 -0.354 -9.129 -0.706 -4.549 -1.349 -10.07 -1.43 -12.27 -0.14 -3.828 -0.017 -3.996 2.854 -3.911 1.65 0.049 6.976 0.914 11.835 1.923 8.802 1.827 14.551 1.585 24.915 -1.047 l 2.75 -0.698 v 10.617 v 10.617 h 2.5 c 1.375 0 2.507 0.563 2.515 1.25 0.008 0.688 0.41 1.873 0.892 2.634 0.707 1.117 1.56 0.862 4.42 -1.319 l 3.544 -2.703 l -0.576 -12.191 c -0.511 -10.817 -0.379 -12.355 1.171 -13.642 1.546 -1.283 2.19 -1.195 5.584 0.758 5.601 3.224 6.05 0.914 0.859 -4.379 -4.188 -4.267 -7.464 -5.452 -9.486 -3.43 -2.66 2.66 -13.584 5.166 -26.297 6.03 -13.07 0.891 -13.598 0.847 -23.2 -1.937 -9.27 -2.687 -12.418 -4.222 -29.31 -14.289 -11.666 -6.953 -21.19 -6.391 -25.5 1.507 -3.45 6.315 -2.469 8.912 2.862 7.578 0.912 -0.228 1.607 0.49 1.82 1.881 0.445 2.914 2.247 2.869 11.923 -0.293 9.298 -3.039 14.261 -2.63 18.406 1.514 3.728 3.728 4.317 8.122 2.979 22.22 -1.412 14.869 -1.273 15.14 7.296 14.221 3.355 -0.36 6.519 -1.04 7.03 -1.512 z m -50.742 -42.545 c -1.416 -1.416 -0.615 -3.354 1.386 -3.354 1.398 0 1.968 0.543 1.75 1.667 -0.357 1.84 -2.064 2.759 -3.136 1.687 z m 79.48 4.546 c -1 -4.201 -7.402 -5.443 -10.344 -2.01 -1.511 1.765 -1.475 1.959 0.528 2.874 3.221 1.471 10.226 0.853 9.816 -0.866 z m -18.17 0.068 c 0 -1.197 -2.821 -2.481 -3.643 -1.659 -0.876 0.876 0.61 2.69 2.202 2.69 0.793 0 1.441 -0.464 1.441 -1.031 z m 30.539 -0.032 c 0.883 -1.429 -2.404 -4.937 -4.627 -4.937 -1.88 0 -3.472 3.286 -2.418 4.991 0.827 1.338 6.209 1.297 7.04 -0.054 z m 5.661 -3.137 c -0.933 -0.933 -1.467 -0.933 -2.4 0 -0.933 0.933 -0.667 1.2 1.2 1.2 1.867 0 2.133 -0.267 1.2 -1.2 z m 9.149 -6.268 c 0.641 -1.671 -0.849 -2.96 -2.349 -2.032 -1.495 0.924 -1.206 3.5 0.393 3.5 0.766 0 1.647 -0.661 1.956 -1.468 z m -71.846 -6.532 l 0.745 -2.5 l -2.612 2.413 c -2.064 1.907 -2.368 2.706 -1.449 3.813 1.302 1.569 1.957 0.834 3.316 -3.726 z m 67.06 -2.103 c 0.953 -1.542 -3.599 -10.897 -5.302 -10.897 -0.855 0 -1.201 0.678 -0.893 1.75 0.277 0.963 1.054 3.662 1.726 6 1.181 4.107 3.059 5.429 4.469 3.147 z m -26.23 -3.071 c 0.672 -2.569 0.069 -3.826 -1.835 -3.826 -1.961 0 -2.396 1.154 -1.415 3.75 1.077 2.851 2.516 2.884 3.25 0.076 z m -36.34 -5.1 c 0 -1.986 -0.127 -2.028 -1.618 -0.537 -0.89 0.89 -1.309 2.119 -0.931 2.731 1.01 1.628 2.549 0.3 2.549 -2.194 z" fill="#94a2a5"/><path d="m 91.31 176.17 c -0.34 -0.55 -0.168 -1 0.382 -1 0.55 0 1.278 0.45 1.618 1 0.34 0.55 0.168 1 -0.382 1 -0.55 0 -1.278 -0.45 -1.618 -1 z m 58 0.345 c -3.603 -0.972 -4.01 -2.238 -3.649 -11.417 0.277 -7.07 0.003 -9.501 -1.292 -11.477 -1.814 -2.768 -1.342 -4.45 1.249 -4.451 1.483 0 1.691 1.319 1.691 10.724 v 10.724 l 2.5 0.026 c 2.01 0.021 2.439 0.464 2.187 2.276 -0.285 2.05 0.092 2.25 4.25 2.25 3.727 0 4.563 -0.33 4.563 -1.8 0 -0.99 0.418 -2.227 0.929 -2.75 0.511 -0.523 1.082 -2.525 1.269 -4.45 0.326 -3.349 0.395 -3.266 1.6 1.935 1.028 4.435 1.019 5.676 -0.047 6.742 -1.403 1.403 -11.954 2.557 -15.251 1.668 z m 12.657 -24.13 c -0.122 -6.423 0.168 -8.406 1.295 -8.839 2.591 -0.994 4.072 0.764 1.949 2.314 -1.41 1.03 -2.055 3.122 -2.494 8.097 l -0.593 6.709 l -0.157 -8.281 z m -55.945 1.311 c -1.483 -5.02 -0.551 -5.95 4.941 -4.936 l 4.346 0.802 l -3.5 0.552 c -3.082 0.486 -3.566 0.969 -4.057 4.052 l -0.557 3.5 l -1.173 -3.97 z m 23.537 -1.192 c 0.688 -0.277 1.813 -0.277 2.5 0 0.688 0.277 0.125 0.504 -1.25 0.504 -1.375 0 -1.938 -0.227 -1.25 -0.504 z m 43.836 -6.829 c 1.794 -2.738 3.414 -2.477 3.414 0.55 0 1.408 -0.692 1.941 -2.523 1.941 -2.459 0 -2.482 -0.063 -0.891 -2.491 z m -83.58 -4.49 c -0.583 -1.09 -2.287 -2.672 -3.785 -3.516 -2.709 -1.526 -2.71 -1.534 -0.275 -1.269 1.545 0.168 3.148 1.467 4.342 3.516 1.041 1.787 1.642 3.25 1.336 3.25 -0.306 0 -1.034 -0.892 -1.617 -1.981 z m 23.99 -0.041 c -2.475 -1.026 -5.4 -1.892 -6.5 -1.925 -2.557 -0.075 -14.12 -5.889 -21.384 -10.753 -3.089 -2.068 -5.77 -3.847 -5.957 -3.954 -0.892 -0.508 1.201 -4.425 3.841 -7.187 1.616 -1.691 4.937 -7.05 7.38 -11.919 4.607 -9.173 5.108 -9.669 17.12 -16.971 7.254 -4.41 11.807 -5.586 19.486 -5.04 13.93 0.997 22.463 7.894 30.631 24.757 2 4.132 4.87 9.357 6.376 11.612 2.45 3.669 2.598 4.353 1.408 6.5 -0.731 1.32 -1.346 3.637 -1.365 5.15 -0.026 2.043 -0.534 2.75 -1.976 2.75 -1.068 0 -2.201 0.421 -2.519 0.935 -1.234 1.997 -12.04 5.107 -20.827 5.994 -19.853 2 -20.995 2.01 -25.713 0.049 z m 22.17 -6.077 c -1 -4.201 -7.402 -5.443 -10.344 -2.01 -1.511 1.765 -1.475 1.959 0.528 2.874 3.221 1.471 10.226 0.853 9.816 -0.866 z m -18.17 0.068 c 0 -1.197 -2.821 -2.481 -3.643 -1.659 -0.876 0.876 0.61 2.69 2.202 2.69 0.793 0 1.441 -0.464 1.441 -1.031 z m 30.539 -0.032 c 0.883 -1.429 -2.404 -4.937 -4.627 -4.937 -1.88 0 -3.472 3.286 -2.418 4.991 0.827 1.338 6.209 1.297 7.04 -0.054 z m 5.661 -3.137 c -0.933 -0.933 -1.467 -0.933 -2.4 0 -0.933 0.933 -0.667 1.2 1.2 1.2 1.867 0 2.133 -0.267 1.2 -1.2 z m 9.629 -7.152 c 0.254 -1.321 -0.156 -1.731 -1.477 -1.477 -1.01 0.194 -1.988 1.175 -2.182 2.182 -0.254 1.321 0.156 1.731 1.477 1.477 1.01 -0.194 1.988 -1.175 2.182 -2.182 z m -72.33 -5.648 l 0.745 -2.5 l -2.612 2.413 c -2.064 1.907 -2.368 2.706 -1.449 3.813 1.302 1.569 1.957 0.834 3.316 -3.726 z m 67.06 -2.103 c 0.953 -1.542 -3.599 -10.897 -5.302 -10.897 -0.855 0 -1.201 0.678 -0.893 1.75 0.277 0.963 1.054 3.662 1.726 6 1.181 4.107 3.059 5.429 4.469 3.147 z m -26.23 -3.071 c 0.672 -2.569 0.069 -3.826 -1.835 -3.826 -1.961 0 -2.396 1.154 -1.415 3.75 1.077 2.851 2.516 2.884 3.25 0.076 z m -36.34 -5.1 c 0 -1.986 -0.127 -2.028 -1.618 -0.537 -0.89 0.89 -1.309 2.119 -0.931 2.731 1.01 1.628 2.549 0.3 2.549 -2.194 z m -43.909 29.363 c -1.898 -1.855 -3.091 -4.03 -3.091 -5.639 0 -3.515 2.397 -2.672 2.828 0.995 0.304 2.588 0.582 2.75 3.811 2.226 3.306 -0.537 3.468 -0.429 3.172 2.123 -0.436 3.761 -3.056 3.876 -6.72 0.295 z m 17.409 -0.089 c 2.752 -1.183 3.731 -1.183 3 0 -0.34 0.55 -1.604 0.968 -2.809 0.93 -2.112 -0.068 -2.119 -0.101 -0.191 -0.93 z m -12.5 -9 c 0 -0.55 0.702 -1 1.559 -1 0.857 0 1.281 0.45 0.941 1 -0.34 0.55 -1.041 1 -1.559 1 -0.518 0 -0.941 -0.45 -0.941 -1 z m 9 -9 c -2.047 -0.656 -1.65 -0.819 2.191 -0.9 2.58 -0.055 4.969 0.35 5.309 0.9 0.726 1.174 -3.833 1.174 -7.5 0 z" fill="#74a889"/><path d="m 146.48 174.5 c -0.956 -0.956 -0.822 -2.333 0.226 -2.333 0.491 0 1.152 0.675 1.469 1.5 0.585 1.524 -0.48 2.048 -1.695 0.833 z m 15.517 -2.01 c 0.461 -3.893 2.816 -4.236 2.816 -0.41 0 2.132 -0.483 3.083 -1.566 3.083 -1.11 0 -1.474 -0.779 -1.25 -2.673 z m -13.184 -0.327 c 0 -0.55 0.702 -1 1.559 -1 0.857 0 1.281 0.45 0.941 1 -0.34 0.55 -1.041 1 -1.559 1 -0.518 0 -0.941 -0.45 -0.941 -1 z m -5 -20.02 c -1.333 -0.875 -1.333 -1.094 0 -1.969 2.248 -1.476 3 -1.229 3 0.985 0 2.214 -0.752 2.461 -3 0.985 z m -38 -1.426 c 0 -1.792 1.652 -2.892 3.049 -2.029 0.717 0.443 0.678 1.094 -0.122 2.059 -1.511 1.821 -2.926 1.806 -2.926 -0.03 z m 68.39 -4.141 c 0.334 -0.87 0.607 -2.02 0.607 -2.559 0 -0.537 0.45 -0.699 1 -0.359 1.63 1.01 1.159 4.5 -0.607 4.5 -1.055 0 -1.398 -0.544 -1 -1.582 z m -11.393 -0.918 c 0 -0.825 0.73 -1.5 1.622 -1.5 1.329 0 1.397 0.271 0.378 1.5 -0.685 0.825 -1.415 1.5 -1.622 1.5 -0.208 0 -0.378 -0.675 -0.378 -1.5 z m -55 -7.03 c -8.635 -2.935 -13.646 -5.473 -24.335 -12.322 -2.02 -1.292 -3.665 -2.691 -3.665 -3.109 0 -0.418 1.731 -2.736 3.848 -5.151 2.116 -2.415 5.484 -7.85 7.483 -12.08 2.316 -4.897 4.855 -8.617 6.997 -10.25 3.739 -2.852 5.595 -3.38 3.652 -1.039 -0.696 0.838 -0.995 1.794 -0.666 2.124 1.258 1.258 3.834 -0.758 5.225 -4.088 0.964 -2.308 3.041 -4.404 6.205 -6.264 4.205 -2.472 5.686 -2.783 12.791 -2.687 12.145 0.163 19.287 3.867 26.594 13.792 3.191 4.335 3.651 6.6 1.34 6.6 -2.404 0 -2.824 2.611 -1.458 9.05 1.17 5.513 1.464 5.95 4 5.95 1.507 0 3.306 -0.681 3.996 -1.512 0.955 -1.15 1.582 -1.241 2.622 -0.378 1.609 1.335 1.823 3.89 0.327 3.89 -2.367 0 -6.712 4.23 -6.232 6.067 0.912 3.488 2.781 4.107 5.631 1.866 l 2.641 -2.078 l -0.019 2.823 c -0.017 2.541 -0.741 3.137 -7.25 5.971 -7.99 3.479 -16.398 5.02 -30.731 5.643 -8.671 0.375 -10.329 0.129 -19 -2.818 z m 29.641 -1.981 c 0.318 -0.829 -0.156 -2.629 -1.054 -4 -1.457 -2.224 -2.318 -2.492 -7.988 -2.492 -4.429 0 -6.732 -0.455 -7.599 -1.5 -0.685 -0.825 -2.495 -1.5 -4.02 -1.5 -2.137 0 -3.276 0.842 -4.931 3.647 -2.837 4.809 -1.886 5.599 7.704 6.402 14.06 1.177 17.264 1.077 17.891 -0.557 z m 9.674 0.334 c 1.201 -0.646 3.532 -1.451 5.178 -1.79 3.97 -0.817 4.287 -3.344 0.736 -5.873 -2.385 -1.698 -3.718 -1.929 -7.803 -1.349 -4.678 0.664 -4.943 0.866 -5.245 4.01 -0.523 5.433 2.452 7.52 7.134 5 z m -41.41 -5.976 c 1.869 -5.362 1.382 -7.707 -2.033 -9.784 -3.592 -2.185 -5.513 -1.805 -6.45 1.276 -0.361 1.187 -1.333 2.928 -2.159 3.87 -1.838 2.095 -0.985 4.787 1.517 4.787 1.012 0 2.714 0.661 3.781 1.468 2.927 2.214 4.135 1.848 5.343 -1.617 z m -13.428 -8.801 c 3.527 -6.821 -0.579 -9.974 -5.262 -4.04 -1.967 2.492 -2.109 3.185 -1.01 4.945 1.821 2.916 4.495 2.53 6.271 -0.904 z m 40.895 -0.3 c 0.332 -1.237 0.609 -4.612 0.617 -7.5 l 0.014 -5.25 h -4.566 c -6.05 0 -8.434 1.374 -8.434 4.869 0 3.699 0.952 4.485 3.089 2.551 1.609 -1.456 1.84 -1.421 2.831 0.432 0.594 1.109 1.08 3.172 1.08 4.583 0 2.037 0.491 2.566 2.383 2.566 1.626 0 2.575 -0.715 2.986 -2.25 z m 8.63 -0.75 c 0 -0.55 -0.198 -1 -0.441 -1 -0.243 0 -0.719 0.45 -1.059 1 -0.34 0.55 -0.141 1 0.441 1 0.582 0 1.059 -0.45 1.059 -1 z m -31.858 -9.08 c 1.35 -4.506 0.464 -5.876 -3.819 -5.906 -2.02 -0.014 -6.323 4.149 -6.323 6.117 0 0.896 5.594 3.644 7.71 3.786 0.665 0.045 1.76 -1.754 2.432 -3.997 z m 9.418 -1.825 c -1.227 -1.986 -2.559 -1.143 -2.559 1.618 0 2.501 0.127 2.587 1.618 1.096 0.89 -0.89 1.314 -2.112 0.941 -2.714 z m 27.26 1.651 c 0.44 -2.32 -1.812 -3.079 -5.252 -1.771 -2.354 0.895 -2.586 1.293 -1.508 2.591 1.675 2.02 6.328 1.454 6.76 -0.82 z m -49.882 -0.622 c 1.641 -3.066 2.483 -10.125 1.207 -10.125 -1.305 0 -6.14 7.334 -6.14 9.313 0 3.12 3.398 3.679 4.933 0.812 z m 35.888 -8.435 c 0.189 -0.983 -0.196 -2.437 -0.855 -3.231 -1.028 -1.238 -1.536 -1.124 -3.559 0.798 -2.188 2.079 -2.236 2.336 -0.653 3.522 2.233 1.672 4.635 1.156 5.067 -1.088 z m -5.233 -12.435 c -1.092 -1.092 -1.841 0.645 -1.057 2.452 0.744 1.713 0.798 1.712 1.212 -0.035 0.239 -1.01 0.169 -2.093 -0.155 -2.417 z m -74.13 48.678 c -0.794 -1.285 -0.599 -1.488 2.291 -2.377 1.831 -0.563 2.25 -0.306 2.25 1.376 0 2.222 -3.333 2.956 -4.541 1 z m -4.459 -5.433 c 0 -1.375 0.45 -2.5 1 -2.5 0.55 0 1 1.125 1 2.5 0 1.375 -0.45 2.5 -1 2.5 -0.55 0 -1 -1.125 -1 -2.5 z m 116 -9.5 c 0 -1.867 0.267 -2.133 1.2 -1.2 0.933 0.933 0.933 1.467 0 2.4 -0.933 0.933 -1.2 0.667 -1.2 -1.2 z" fill="#5a9770"/><path d="m 161.81 173.29 c 0 -1.033 0.675 -2.438 1.5 -3.122 1.279 -1.061 1.5 -0.785 1.5 1.878 0 2.109 -0.487 3.122 -1.5 3.122 -0.825 0 -1.5 -0.845 -1.5 -1.878 z m -17.5 -21.12 c -0.399 -0.646 -0.276 -1.624 0.274 -2.174 0.667 -0.667 1.242 -0.609 1.726 0.174 0.399 0.646 0.276 1.624 -0.274 2.174 -0.667 0.667 -1.242 0.609 -1.726 -0.174 z m -38.35 -1.438 c 0.19 -0.917 0.796 -1.644 1.346 -1.615 1.484 0.078 1.212 2.316 -0.346 2.835 -0.841 0.28 -1.216 -0.177 -1 -1.219 z m 68.846 -5.121 c 0 -1.451 0.433 -2.292 1 -1.941 0.55 0.34 1 1.491 1 2.559 0 1.068 -0.45 1.941 -1 1.941 -0.55 0 -1 -1.152 -1 -2.559 z m -61 -5.886 c -1.375 -0.816 -3.503 -1.5 -4.73 -1.519 -2.436 -0.039 -10.01 -2.766 -12.04 -4.336 -2.314 -1.788 -0.535 -1.814 3.17 -0.048 3.17 1.512 3.818 1.55 4.991 0.293 1.961 -2.103 3.517 -9.365 2.425 -11.317 -1.176 -2.101 -6.615 -4.917 -8.271 -4.282 -1.497 0.574 -6.541 9.273 -6.541 11.28 0 1.968 -0.953 1.708 -5.802 -1.578 -2.366 -1.604 -4.8 -3.082 -5.408 -3.284 -1.848 -0.616 0.004 -5.117 2.962 -7.195 l 2.749 -1.931 l -1.951 2.232 c -1.834 2.098 -1.853 2.394 -0.321 4.931 2.414 3.999 5.14 3.958 7.657 -0.114 1.163 -1.882 2.115 -4.4 2.115 -5.595 0 -1.195 0.896 -3.392 1.992 -4.882 2.616 -3.558 3.904 -12.21 1.818 -12.21 -1.686 0 -5.81 4.085 -5.81 5.755 0 0.62 -0.473 1.419 -1.051 1.776 -1.19 0.735 1.385 -5.857 3.626 -9.282 1.582 -2.419 2.937 -2.85 3.926 -1.25 1.842 2.98 6.223 -0.282 10.07 -7.5 3.314 -6.216 19.608 -7.976 29.14 -3.149 5.199 2.635 13.84 10.644 14.822 13.74 0.347 1.093 -0.237 2.617 -1.478 3.858 -2.383 2.383 -2.476 3.754 -0.722 10.551 1.121 4.343 1.655 5.04 4.069 5.325 1.651 0.193 3.58 -0.4 4.751 -1.46 1.631 -1.476 2.121 -1.546 2.826 -0.404 0.601 0.973 0.042 1.849 -1.89 2.96 -6.742 3.879 -6.585 3.687 -5.312 6.483 1.499 3.291 0.567 3.297 -2.853 0.021 -2.547 -2.44 -2.916 -2.511 -7.05 -1.352 -2.402 0.673 -5.172 2.128 -6.157 3.235 -1.358 1.527 -2.07 1.732 -2.95 0.852 -0.638 -0.638 -3.271 -1.16 -5.851 -1.16 -2.58 0 -6.652 -0.89 -9.05 -1.978 -6.165 -2.797 -8.685 -2.613 -9.951 0.728 -0.573 1.512 -1.927 3.695 -3.01 4.85 -3.201 3.417 -0.503 4.513 13.696 5.561 10.422 0.769 12.995 0.682 14.803 -0.502 1.863 -1.221 2.467 -1.229 4.071 -0.056 1.036 0.758 1.691 1.557 1.457 1.776 -0.235 0.219 -6.277 0.683 -13.427 1.03 -10.542 0.511 -13.473 0.35 -15.5 -0.853 z m 21.07 -21.555 c 0.311 -3.575 0.362 -7.097 0.114 -7.827 -0.74 -2.173 -4.241 -2.815 -12.143 -2.228 l -7.463 0.555 l -0.771 3.5 c -1.328 6.03 -0.395 7.658 5.142 8.987 2.726 0.654 5.503 1.847 6.171 2.652 0.758 0.914 2.559 1.35 4.8 1.162 l 3.586 -0.301 l 0.566 -6.5 z m 9.865 3.544 c 3.719 -2.348 3.869 -2.646 3.398 -6.75 -0.722 -6.29 -1.01 -6.794 -3.863 -6.794 -5.405 0 -6.534 1.494 -5.886 7.787 0.652 6.334 1.088 8.213 1.909 8.213 0.303 0 2.302 -1.105 4.442 -2.456 z m -33.597 -9.294 c 1.797 -5.436 1.18 -6.628 -3.988 -7.708 -2.771 -0.579 -3.47 -0.245 -5.75 2.744 -3.352 4.394 -3.272 5.331 0.654 7.725 5.367 3.272 7.281 2.69 9.08 -2.761 z m 22.412 -9.25 c 0.366 -3.725 -5.762 -14.5 -8.245 -14.5 -1.608 0 -2.063 0.774 -2.322 3.947 -0.177 2.171 -1.19 5.165 -2.25 6.654 -1.06 1.489 -1.928 3.114 -1.928 3.611 0 1.154 7.575 3.072 11.5 2.911 2.429 -0.1 3.047 -0.599 3.245 -2.623 z m 10.848 1.617 c 0.49 -1.277 -5.266 -10.617 -6.543 -10.617 -0.599 0 -0.216 8.635 0.477 10.75 0.556 1.697 5.404 1.591 6.07 -0.133 z m -28.367 -8.194 c 2.138 -5.961 2.21 -7.423 0.363 -7.423 -1.747 0 -6.589 5.616 -6.589 7.642 0 2.38 2.03 5.514 3.298 5.092 0.639 -0.213 1.957 -2.603 2.928 -5.311 z m 32.819 0.15 c -1.215 -1.965 -2.622 -3.573 -3.127 -3.573 -1.306 0 -1.176 0.574 1.163 5.159 1.448 2.838 2.399 3.761 3.127 3.033 0.728 -0.728 0.374 -2.133 -1.163 -4.619 z m -95.34 42.795 c -1.406 -1.406 -0.642 -2.368 1.882 -2.368 1.622 0 2.428 0.465 2.167 1.25 -0.481 1.446 -3.02 2.147 -4.049 1.118 z m 95.8 -2.368 c 0.34 -0.55 1.604 -0.993 2.809 -0.985 1.781 0.012 1.91 0.197 0.691 0.985 -1.97 1.273 -4.287 1.273 -3.5 0 z m -100.5 -3.5 c 0 -1.375 0.45 -2.5 1 -2.5 0.55 0 1 1.125 1 2.5 0 1.375 -0.45 2.5 -1 2.5 -0.55 0 -1 -1.125 -1 -2.5 z m 107.34 0.008 c 0.636 -1.371 1.917 -2.496 2.847 -2.5 0.93 -0.004 1.969 -0.458 2.309 -1.01 0.941 -1.523 3.5 -1.192 3.5 0.453 0 1.09 -7.66 5.547 -9.533 5.547 -0.153 0 0.241 -1.121 0.877 -2.492 z m -68.34 -20.317 c 0 -0.445 0.603 -1.633 1.339 -2.64 1.254 -1.715 1.381 -1.721 2 -0.101 0.365 0.952 0.411 2.14 0.102 2.64 -0.696 1.127 -3.444 1.207 -3.444 0.101 z" fill="#4f7266"/><path d="m 119.06 139.48 c 0.963 -0.252 2.537 -0.252 3.5 0 0.963 0.252 0.175 0.457 -1.75 0.457 -1.925 0 -2.713 -0.206 -1.75 -0.457 z m -70.17 -5.894 c 0.048 -1.165 0.285 -1.402 0.604 -0.604 0.289 0.722 0.253 1.584 -0.079 1.917 -0.332 0.332 -0.569 -0.258 -0.525 -1.313 z m 59.94 -5.482 c 1.084 -3.78 -0.237 -6.997 -3.747 -9.127 l -2.576 -1.563 l 3.849 0.128 c 3.163 0.105 4.079 -0.318 5.137 -2.372 l 1.288 -2.5 l 0.015 2.679 c 0.019 3.536 1.885 5.245 7.414 6.793 2.509 0.703 5.076 1.896 5.704 2.653 0.628 0.756 2.646 1.375 4.484 1.375 4.01 0 5.413 -2.071 5.413 -7.993 0 -2.495 0.395 -3.881 1 -3.507 0.55 0.34 1 2.336 1 4.437 0 5.946 1.857 6.686 7.873 3.138 4.636 -2.734 5.349 -2.885 8.116 -1.721 l 3.034 1.276 l -2.277 2.139 c -1.392 1.307 -2.774 1.833 -3.554 1.351 -1.496 -0.924 -9.671 0.959 -11.32 2.608 -1.519 1.519 -14.64 0.496 -17.636 -1.376 -1.244 -0.778 -3.944 -1.512 -6 -1.632 -3.343 -0.196 -3.888 0.124 -5.168 3.03 -1.811 4.115 -3.214 4.241 -2.051 0.185 z m -20.519 0.065 c -0.34 -0.55 0.309 -1 1.441 -1 1.132 0 2.059 0.45 2.059 1 0 0.55 -0.648 1 -1.441 1 -0.793 0 -1.719 -0.45 -2.059 -1 z m -5.833 -3.667 c -0.956 -0.956 -0.822 -2.333 0.226 -2.333 0.491 0 1.152 0.675 1.469 1.5 0.585 1.524 -0.48 2.048 -1.695 0.833 z m 13.333 -7.855 c 0 -2.71 2.061 -3.315 3.87 -1.136 0.865 1.042 0.556 1.597 -1.378 2.479 -2.291 1.044 -2.492 0.936 -2.492 -1.343 z m 39.26 -7.617 c -0.634 -0.634 -0.905 -2.39 -0.603 -3.903 0.803 -4.02 -5.367 -16.819 -8.493 -17.62 -1.415 -0.363 -2.905 -0.028 -3.781 0.848 -1.411 1.411 -3.35 9.378 -3.706 15.229 -0.226 3.707 -1.824 4.216 -6.404 2.043 -2.01 -0.953 -5.366 -1.732 -7.462 -1.732 -3.249 0 -3.812 -0.322 -3.812 -2.178 0 -1.505 1.082 -2.694 3.5 -3.847 2.702 -1.288 3.5 -1.37 3.5 -0.36 0 2.06 4.722 5.979 6.419 5.327 0.837 -0.321 1.792 -1.84 2.123 -3.377 0.331 -1.536 1.291 -4.431 2.132 -6.433 0.841 -2 1.245 -4.537 0.897 -5.634 -0.495 -1.559 -0.072 -2.135 1.938 -2.639 3.63 -0.911 12.528 0.421 15.467 2.316 3.162 2.039 7.956 7.261 7.994 8.707 0.016 0.611 1.171 2.792 2.566 4.848 2.961 4.363 2.625 8.233 -0.566 6.526 -1.051 -0.563 -1.653 -1.646 -1.352 -2.432 0.882 -2.298 -10.666 -16.838 -12.174 -15.33 -0.299 0.299 0.634 2.278 2.073 4.398 2.051 3.02 2.481 4.576 1.99 7.193 -0.384 2.047 -0.153 3.908 0.597 4.812 1.657 1.996 -1.028 5.05 -2.843 3.235 z" fill="#35624e"/></g></svg>