<svg xmlns="http://www.w3.org/2000/svg" viewBox="0 0 256 256"><defs><clipPath><path transform="matrix(15.33333 0 0 11.5 415 -125.5)" d="m -24 13 c 0 1.105 -0.672 2 -1.5 2 -0.828 0 -1.5 -0.895 -1.5 -2 0 -1.105 0.672 -2 1.5 -2 0.828 0 1.5 0.895 1.5 2 z"/></clipPath></defs><path d="m 33.675 216.42 c -145.18 -221.56 251.35 -307.3 219.76 -79.37 c -12.881 92.96 -164.23 164.13 -219.76 79.37 z" fill="#789" color="#000"/><g transform="matrix(3.60337 0 0 3.63051 40.43 40.33)"><g font-family="Bitstream Vera Sans"><g font-size="12.666"><text x="877.23" y="10.813" opacity="0.8"><tspan x="877.23" y="10.813"/></text><text x="901.19" y="-29.929" opacity="0.8"><tspan x="901.19" y="-29.929"/></text><text x="-569.37" y="-60.01" opacity="0.8"><tspan x="-569.37" y="-60.01"/></text><text x="-2393.06" y="685.55" opacity="0.8"><tspan x="-2393.06" y="685.55"/></text><text x="-454.88" y="-445.33" opacity="0.8"><tspan x="-454.88" y="-445.33"/></text><text x="352.72" y="-858.8" opacity="0.8"><tspan x="352.72" y="-858.8"/></text><text x="376.68" y="-899.54" opacity="0.8"><tspan x="376.68" y="-899.54"/></text><text x="-1114.78" y="-906.75" opacity="0.8"><tspan x="-1114.78" y="-906.75"/></text><text x="345.76" y="-1179.98" opacity="0.8"><tspan x="345.76" y="-1179.98"/></text><text x="1831.89" y="-553.29" opacity="0.8"><tspan x="1831.89" y="-553.29"/></text><text x="1855.85" y="-594.03" opacity="0.8"><tspan x="1855.85" y="-594.03"/></text><text x="364.38" y="-601.24" opacity="0.8"><tspan x="364.38" y="-601.24"/></text><text x="1824.93" y="-874.48" opacity="0.8"><tspan x="1824.93" y="-874.48"/></text><text x="-573.43" y="-649.34" opacity="0.8"><tspan x="-573.43" y="-649.34"/></text><text x="-2397.12" y="96.22" opacity="0.8"><tspan x="-2397.12" y="96.22"/></text><text x="-682.36" y="189.09" opacity="0.8"><tspan x="-682.36" y="189.09"/></text><text x="426.66" y="9.908" opacity="0.8"><tspan x="426.66" y="9.908"/></text><text x="450.62" y="-30.834" opacity="0.8"><tspan x="450.62" y="-30.834"/></text><text x="-1040.84" y="-38.04" opacity="0.8"><tspan x="-1040.84" y="-38.04"/></text><text x="419.7" y="-311.28" opacity="0.8"><tspan x="419.7" y="-311.28"/></text><text x="-608.03" y="-40.758" opacity="0.8"><tspan x="-608.03" y="-40.758"/></text><text x="-2431.72" y="704.8" opacity="0.8"><tspan x="-2431.72" y="704.8"/></text><text x="-456.94" y="-902.29" opacity="0.8"><tspan x="-456.94" y="-902.29"/></text><text x="350.66" y="-1315.76" opacity="0.8"><tspan x="350.66" y="-1315.76"/></text><text x="374.62" y="-1356.5" opacity="0.8"><tspan x="374.62" y="-1356.5"/></text><text x="-1116.84" y="-1363.71" opacity="0.8"><tspan x="-1116.84" y="-1363.71"/></text><text x="343.7" y="-1636.94" opacity="0.8"><tspan x="343.7" y="-1636.94"/></text><text x="1829.83" y="-1010.25" opacity="0.8"><tspan x="1829.83" y="-1010.25"/></text><text x="1853.79" y="-1050.99" opacity="0.8"><tspan x="1853.79" y="-1050.99"/></text><text x="362.32" y="-1058.2" opacity="0.8"><tspan x="362.32" y="-1058.2"/></text><text x="1822.87" y="-1331.44" opacity="0.8"><tspan x="1822.87" y="-1331.44"/></text><text x="-575.49" y="-1106.3" opacity="0.8"><tspan x="-575.49" y="-1106.3"/></text><text x="-2399.18" y="-360.74" opacity="0.8"><tspan x="-2399.18" y="-360.74"/></text><text x="-684.42" y="-267.87" opacity="0.8"><tspan x="-684.42" y="-267.87"/></text><text x="155.59" y="-26.956" opacity="0.8"><tspan x="155.59" y="-26.956"/></text><text x="179.55" y="-67.7" opacity="0.8"><tspan x="179.55" y="-67.7"/></text><text x="-1090.26" y="-261.73" opacity="0.8"><tspan x="-1090.26" y="-261.73"/></text><text x="-282.66" y="-675.2" opacity="0.8"><tspan x="-282.66" y="-675.2"/></text><text x="-258.7" y="-715.94" opacity="0.8"><tspan x="-258.7" y="-715.94"/></text><text x="-1750.16" y="-723.15" opacity="0.8"><tspan x="-1750.16" y="-723.15"/></text><text x="-289.62" y="-996.38" opacity="0.8"><tspan x="-289.62" y="-996.38"/></text><text x="1196.5" y="-369.69" opacity="0.8"><tspan x="1196.5" y="-369.69"/></text><text x="1220.46" y="-410.43" opacity="0.8"><tspan x="1220.46" y="-410.43"/></text><text x="-271" y="-417.64" opacity="0.8"><tspan x="-271" y="-417.64"/></text><text x="1189.54" y="-690.88" opacity="0.8"><tspan x="1189.54" y="-690.88"/></text><text x="-1208.82" y="-465.73" opacity="0.8"><tspan x="-1208.82" y="-465.73"/></text><text x="-3032.5" y="279.82" opacity="0.8"><tspan x="-3032.5" y="279.82"/></text></g><text x="-664.27" y="1159.42" transform="matrix(0.90475 0 0 0.90475 -716.75 -676.29)" opacity="0.8" font-size="14"><tspan x="-664.27" y="1159.42"/></text><g font-size="12.666"><text x="877.23" y="18.05" opacity="0.8"><tspan x="877.23" y="18.05"/></text><text x="901.19" y="-22.691" opacity="0.8"><tspan x="901.19" y="-22.691"/></text><text x="-569.37" y="-52.769" opacity="0.8"><tspan x="-569.37" y="-52.769"/></text><text x="-2393.06" y="692.78" opacity="0.8"><tspan x="-2393.06" y="692.78"/></text><text x="-454.88" y="-438.09" opacity="0.8"><tspan x="-454.88" y="-438.09"/></text><text x="352.72" y="-851.56" opacity="0.8"><tspan x="352.72" y="-851.56"/></text><text x="376.68" y="-892.3" opacity="0.8"><tspan x="376.68" y="-892.3"/></text><text x="-1114.78" y="-899.51" opacity="0.8"><tspan x="-1114.78" y="-899.51"/></text><text x="345.76" y="-1172.75" opacity="0.8"><tspan x="345.76" y="-1172.75"/></text><text x="1831.89" y="-546.05" opacity="0.8"><tspan x="1831.89" y="-546.05"/></text><text x="1855.85" y="-586.8" opacity="0.8"><tspan x="1855.85" y="-586.8"/></text><text x="364.38" y="-594.01" opacity="0.8"><tspan x="364.38" y="-594.01"/></text><text x="1824.93" y="-867.24" opacity="0.8"><tspan x="1824.93" y="-867.24"/></text><text x="-573.43" y="-642.1" opacity="0.8"><tspan x="-573.43" y="-642.1"/></text><text x="-2397.12" y="103.46" opacity="0.8"><tspan x="-2397.12" y="103.46"/></text><text x="-682.36" y="196.33" opacity="0.8"><tspan x="-682.36" y="196.33"/></text><text x="426.66" y="17.15" opacity="0.8"><tspan x="426.66" y="17.15"/></text><text x="450.62" y="-23.596" opacity="0.8"><tspan x="450.62" y="-23.596"/></text><text x="-1040.84" y="-30.806" opacity="0.8"><tspan x="-1040.84" y="-30.806"/></text><text x="419.7" y="-304.04" opacity="0.8"><tspan x="419.7" y="-304.04"/></text><text x="-608.03" y="-33.52" opacity="0.8"><tspan x="-608.03" y="-33.52"/></text><text x="-2431.72" y="712.03" opacity="0.8"><tspan x="-2431.72" y="712.03"/></text><text x="-456.94" y="-895.05" opacity="0.8"><tspan x="-456.94" y="-895.05"/></text><text x="350.66" y="-1308.52" opacity="0.8"><tspan x="350.66" y="-1308.52"/></text><text x="374.62" y="-1349.26" opacity="0.8"><tspan x="374.62" y="-1349.26"/></text><text x="-1116.84" y="-1356.47" opacity="0.8"><tspan x="-1116.84" y="-1356.47"/></text><text x="343.7" y="-1629.71" opacity="0.8"><tspan x="343.7" y="-1629.71"/></text><text x="1829.83" y="-1003.02" opacity="0.8"><tspan x="1829.83" y="-1003.02"/></text><text x="1853.79" y="-1043.76" opacity="0.8"><tspan x="1853.79" y="-1043.76"/></text><text x="362.32" y="-1050.97" opacity="0.8"><tspan x="362.32" y="-1050.97"/></text><text x="1822.87" y="-1324.2" opacity="0.8"><tspan x="1822.87" y="-1324.2"/></text><text x="-575.49" y="-1099.06" opacity="0.8"><tspan x="-575.49" y="-1099.06"/></text><text x="-2399.18" y="-353.5" opacity="0.8"><tspan x="-2399.18" y="-353.5"/></text><text x="-684.42" y="-260.63" opacity="0.8"><tspan x="-684.42" y="-260.63"/></text><text x="155.59" y="-19.718" opacity="0.8"><tspan x="155.59" y="-19.718"/></text><text x="179.55" y="-60.46" opacity="0.8"><tspan x="179.55" y="-60.46"/></text><text x="-1090.26" y="-254.49" opacity="0.8"><tspan x="-1090.26" y="-254.49"/></text><text x="-282.66" y="-667.96" opacity="0.8"><tspan x="-282.66" y="-667.96"/></text><text x="-258.7" y="-708.7" opacity="0.8"><tspan x="-258.7" y="-708.7"/></text><text x="-1750.16" y="-715.91" opacity="0.8"><tspan x="-1750.16" y="-715.91"/></text><text x="-289.62" y="-989.14" opacity="0.8"><tspan x="-289.62" y="-989.14"/></text><text x="1196.5" y="-362.45" opacity="0.8"><tspan x="1196.5" y="-362.45"/></text><text x="1220.46" y="-403.19" opacity="0.8"><tspan x="1220.46" y="-403.19"/></text><text x="-271" y="-410.4" opacity="0.8"><tspan x="-271" y="-410.4"/></text><text x="1189.54" y="-683.64" opacity="0.8"><tspan x="1189.54" y="-683.64"/></text><text x="-1208.82" y="-458.5" opacity="0.8"><tspan x="-1208.82" y="-458.5"/></text><text x="-3032.5" y="287.06" opacity="0.8"><tspan x="-3032.5" y="287.06"/></text></g><text x="-664.27" y="1159.42" transform="matrix(0.90475 0 0 0.90475 -716.75 -669.05)" opacity="0.8" font-size="14"><tspan x="-664.27" y="1159.42"/></text></g><g font-size="12.666"><text x="435.9" y="-361.23" font-family="Droid Sans"><tspan x="435.9" y="-361.23"/><tspan x="435.9" y="-345.39"/></text><g font-family="Bitstream Vera Sans"><text x="901.09" y="-843.27" opacity="0.8"><tspan x="901.09" y="-843.27"/></text><text x="-922.6" y="-97.72" opacity="0.8"><tspan x="-922.6" y="-97.72"/></text><text x="1628.17" y="-1128.27" opacity="0.8"><tspan x="1628.17" y="-1128.27"/></text><text x="1652.13" y="-1169.01" opacity="0.8"><tspan x="1652.13" y="-1169.01"/></text><text x="160.67" y="-1176.22" opacity="0.8"><tspan x="160.67" y="-1176.22"/></text><text x="1621.21" y="-1449.45" opacity="0.8"><tspan x="1621.21" y="-1449.45"/></text><text x="824.35" y="15.778" opacity="0.8"><tspan x="824.35" y="15.778"/></text><text x="848.31" y="-24.964" opacity="0.8"><tspan x="848.31" y="-24.964"/></text><text x="-622.25" y="-55.04" opacity="0.8"><tspan x="-622.25" y="-55.04"/></text><text x="-2445.94" y="690.51" opacity="0.8"><tspan x="-2445.94" y="690.51"/></text><text x="-507.76" y="-440.36" opacity="0.8"><tspan x="-507.76" y="-440.36"/></text><text x="299.84" y="-853.83" opacity="0.8"><tspan x="299.84" y="-853.83"/></text><text x="323.8" y="-894.57" opacity="0.8"><tspan x="323.8" y="-894.57"/></text><text x="-1167.66" y="-901.78" opacity="0.8"><tspan x="-1167.66" y="-901.78"/></text><text x="292.88" y="-1175.02" opacity="0.8"><tspan x="292.88" y="-1175.02"/></text><text x="1779.01" y="-548.33" opacity="0.8"><tspan x="1779.01" y="-548.33"/></text><text x="1802.97" y="-589.07" opacity="0.8"><tspan x="1802.97" y="-589.07"/></text><text x="311.5" y="-596.28" opacity="0.8"><tspan x="311.5" y="-596.28"/></text><text x="1772.05" y="-869.51" opacity="0.8"><tspan x="1772.05" y="-869.51"/></text><text x="-626.31" y="-644.37" opacity="0.8"><tspan x="-626.31" y="-644.37"/></text><text x="-2450" y="101.18" opacity="0.8"><tspan x="-2450" y="101.18"/></text><text x="-735.24" y="194.06" opacity="0.8"><tspan x="-735.24" y="194.06"/></text><text x="373.78" y="14.873" opacity="0.8"><tspan x="373.78" y="14.873"/></text><text x="397.74" y="-25.868" opacity="0.8"><tspan x="397.74" y="-25.868"/></text><text x="-1093.72" y="-33.08" opacity="0.8"><tspan x="-1093.72" y="-33.08"/></text><text x="366.82" y="-306.31" opacity="0.8"><tspan x="366.82" y="-306.31"/></text><text x="-660.91" y="-35.793" opacity="0.8"><tspan x="-660.91" y="-35.793"/></text><text x="-2484.6" y="709.76" opacity="0.8"><tspan x="-2484.6" y="709.76"/></text><text x="-509.82" y="-897.32" opacity="0.8"><tspan x="-509.82" y="-897.32"/></text><text x="297.78" y="-1310.79" opacity="0.8"><tspan x="297.78" y="-1310.79"/></text><text x="321.74" y="-1351.53" opacity="0.8"><tspan x="321.74" y="-1351.53"/></text><text x="-1169.72" y="-1358.74" opacity="0.8"><tspan x="-1169.72" y="-1358.74"/></text><text x="290.82" y="-1631.98" opacity="0.8"><tspan x="290.82" y="-1631.98"/></text><text x="1776.95" y="-1005.29" opacity="0.8"><tspan x="1776.95" y="-1005.29"/></text><text x="1800.91" y="-1046.03" opacity="0.8"><tspan x="1800.91" y="-1046.03"/></text><text x="309.45" y="-1053.24" opacity="0.8"><tspan x="309.45" y="-1053.24"/></text><text x="1769.99" y="-1326.47" opacity="0.8"><tspan x="1769.99" y="-1326.47"/></text><text x="-628.37" y="-1101.33" opacity="0.8"><tspan x="-628.37" y="-1101.33"/></text><text x="-2452.06" y="-355.78" opacity="0.8"><tspan x="-2452.06" y="-355.78"/></text><text x="-737.3" y="-262.9" opacity="0.8"><tspan x="-737.3" y="-262.9"/></text><text x="102.71" y="-21.991" opacity="0.8"><tspan x="102.71" y="-21.991"/></text><text x="126.67" y="-62.732" opacity="0.8"><tspan x="126.67" y="-62.732"/></text><text x="-1143.14" y="-256.76" opacity="0.8"><tspan x="-1143.14" y="-256.76"/></text><text x="-335.54" y="-670.23" opacity="0.8"><tspan x="-335.54" y="-670.23"/></text><text x="-311.58" y="-710.97" opacity="0.8"><tspan x="-311.58" y="-710.97"/></text><text x="-1803.04" y="-718.18" opacity="0.8"><tspan x="-1803.04" y="-718.18"/></text><text x="-342.5" y="-991.42" opacity="0.8"><tspan x="-342.5" y="-991.42"/></text><text x="1143.62" y="-364.73" opacity="0.8"><tspan x="1143.62" y="-364.73"/></text><text x="1167.58" y="-405.47" opacity="0.8"><tspan x="1167.58" y="-405.47"/></text><text x="-323.88" y="-412.68" opacity="0.8"><tspan x="-323.88" y="-412.68"/></text><text x="1136.66" y="-685.91" opacity="0.8"><tspan x="1136.66" y="-685.91"/></text><text x="-1261.7" y="-460.77" opacity="0.8"><tspan x="-1261.7" y="-460.77"/></text><text x="-3085.38" y="284.78" opacity="0.8"><tspan x="-3085.38" y="284.78"/></text></g></g><g font-family="Bitstream Vera Sans"><text x="-664.27" y="1159.42" transform="matrix(0.90475 0 0 0.90475 -769.62 -671.32)" opacity="0.8" font-size="14"><tspan x="-664.27" y="1159.42"/></text><g font-size="12.666"><text x="824.35" y="23.02" opacity="0.8"><tspan x="824.35" y="23.02"/></text><text x="848.31" y="-17.726" opacity="0.8"><tspan x="848.31" y="-17.726"/></text><text x="-622.25" y="-47.804" opacity="0.8"><tspan x="-622.25" y="-47.804"/></text><text x="-2445.94" y="697.75" opacity="0.8"><tspan x="-2445.94" y="697.75"/></text><text x="-507.76" y="-433.12" opacity="0.8"><tspan x="-507.76" y="-433.12"/></text><text x="299.84" y="-846.59" opacity="0.8"><tspan x="299.84" y="-846.59"/></text><text x="323.8" y="-887.34" opacity="0.8"><tspan x="323.8" y="-887.34"/></text><text x="-1167.66" y="-894.55" opacity="0.8"><tspan x="-1167.66" y="-894.55"/></text><text x="292.88" y="-1167.78" opacity="0.8"><tspan x="292.88" y="-1167.78"/></text><text x="1779.01" y="-541.09" opacity="0.8"><tspan x="1779.01" y="-541.09"/></text><text x="1802.97" y="-581.83" opacity="0.8"><tspan x="1802.97" y="-581.83"/></text><text x="311.5" y="-589.04" opacity="0.8"><tspan x="311.5" y="-589.04"/></text><text x="1772.05" y="-862.27" opacity="0.8"><tspan x="1772.05" y="-862.27"/></text><text x="-626.31" y="-637.13" opacity="0.8"><tspan x="-626.31" y="-637.13"/></text><text x="-2450" y="108.42" opacity="0.8"><tspan x="-2450" y="108.42"/></text><text x="-735.24" y="201.29" opacity="0.8"><tspan x="-735.24" y="201.29"/></text><text x="373.78" y="22.11" opacity="0.8"><tspan x="373.78" y="22.11"/></text><text x="397.74" y="-18.63" opacity="0.8"><tspan x="397.74" y="-18.63"/></text><text x="-1093.72" y="-25.84" opacity="0.8"><tspan x="-1093.72" y="-25.84"/></text><text x="366.82" y="-299.07" opacity="0.8"><tspan x="366.82" y="-299.07"/></text><text x="-660.91" y="-28.555" opacity="0.8"><tspan x="-660.91" y="-28.555"/></text><text x="-2484.6" y="717" opacity="0.8"><tspan x="-2484.6" y="717"/></text><text x="-509.82" y="-890.09" opacity="0.8"><tspan x="-509.82" y="-890.09"/></text><text x="297.78" y="-1303.56" opacity="0.8"><tspan x="297.78" y="-1303.56"/></text><text x="321.74" y="-1344.3" opacity="0.8"><tspan x="321.74" y="-1344.3"/></text><text x="-1169.72" y="-1351.51" opacity="0.8"><tspan x="-1169.72" y="-1351.51"/></text><text x="290.82" y="-1624.74" opacity="0.8"><tspan x="290.82" y="-1624.74"/></text><text x="1776.95" y="-998.05" opacity="0.8"><tspan x="1776.95" y="-998.05"/></text><text x="1800.91" y="-1038.79" opacity="0.8"><tspan x="1800.91" y="-1038.79"/></text><text x="309.45" y="-1046" opacity="0.8"><tspan x="309.45" y="-1046"/></text><text x="1769.99" y="-1319.24" opacity="0.8"><tspan x="1769.99" y="-1319.24"/></text><text x="-628.37" y="-1094.09" opacity="0.8"><tspan x="-628.37" y="-1094.09"/></text><text x="-2452.06" y="-348.54" opacity="0.8"><tspan x="-2452.06" y="-348.54"/></text><text x="-737.3" y="-255.67" opacity="0.8"><tspan x="-737.3" y="-255.67"/></text><text x="102.71" y="-14.753" opacity="0.8"><tspan x="102.71" y="-14.753"/></text><text x="126.67" y="-55.49" opacity="0.8"><tspan x="126.67" y="-55.49"/></text><text x="-1143.14" y="-249.52" opacity="0.8"><tspan x="-1143.14" y="-249.52"/></text><text x="-335.54" y="-662.99" opacity="0.8"><tspan x="-335.54" y="-662.99"/></text><text x="-311.58" y="-703.73" opacity="0.8"><tspan x="-311.58" y="-703.73"/></text><text x="-1803.04" y="-710.94" opacity="0.8"><tspan x="-1803.04" y="-710.94"/></text><text x="-342.5" y="-984.18" opacity="0.8"><tspan x="-342.5" y="-984.18"/></text><text x="1143.62" y="-357.49" opacity="0.8"><tspan x="1143.62" y="-357.49"/></text><text x="1167.58" y="-398.23" opacity="0.8"><tspan x="1167.58" y="-398.23"/></text><text x="-323.88" y="-405.44" opacity="0.8"><tspan x="-323.88" y="-405.44"/></text><text x="1136.66" y="-678.67" opacity="0.8"><tspan x="1136.66" y="-678.67"/></text><text x="-1261.7" y="-453.53" opacity="0.8"><tspan x="-1261.7" y="-453.53"/></text><text x="-3085.38" y="292.02" opacity="0.8"><tspan x="-3085.38" y="292.02"/></text></g><text x="-664.27" y="1159.42" transform="matrix(0.90475 0 0 0.90475 -769.62 -664.08)" opacity="0.8" font-size="14"><tspan x="-664.27" y="1159.42"/></text></g><g font-size="12.666"><text x="383.02" y="-356.26" font-family="Droid Sans"><tspan x="383.02" y="-356.26"/><tspan x="383.02" y="-340.43"/></text><g font-family="Bitstream Vera Sans"><text x="848.21" y="-838.3" opacity="0.8"><tspan x="848.21" y="-838.3"/></text><text x="-975.48" y="-92.75" opacity="0.8"><tspan x="-975.48" y="-92.75"/></text><text x="1575.29" y="-1123.3" opacity="0.8"><tspan x="1575.29" y="-1123.3"/></text><text x="1599.25" y="-1164.04" opacity="0.8"><tspan x="1599.25" y="-1164.04"/></text><text x="107.79" y="-1171.25" opacity="0.8"><tspan x="107.79" y="-1171.25"/></text><text x="1568.33" y="-1444.49" opacity="0.8"><tspan x="1568.33" y="-1444.49"/></text></g></g><g transform="translate(1)"><path d="M 23,4 C 11.92,4 3,12.92 3,24 3,35.08 11.92,44 23,44 34.08,44 43,35.08 43,24 43,12.92 34.08,4 23,4 z" fill="#d2d2d2"/><path d="m 23 4 c 11.07 0 19.982 8.92 19.982 20 0 0.168 -0.008 0.333 -0.012 0.5 -0.264 -10.846 -9.07 -19.5 -19.97 -19.5 -10.902 0 -19.706 8.654 -19.97 19.5 -0.004 -0.167 -0.012 -0.332 -0.012 -0.5 0 -11.08 8.912 -20 19.982 -20 z" opacity="0.2" fill="#fff"/><path d="m 3.01 23.5 c -0.004 0.167 -0.012 0.332 -0.012 0.5 0 11.08 8.92 20 20 20 11.08 0 20 -8.92 20 -20 0 -0.168 -0.008 -0.333 -0.012 -0.5 c -0.264 10.846 -9.08 19.5 -19.988 19.5 -10.912 0 -19.724 -8.654 -19.988 -19.5 z" opacity="0.3"/></g><g font-family="Bitstream Vera Sans"><g font-size="12.666"><text x="817.84" y="5.515" opacity="0.8"><tspan x="817.84" y="5.515"/></text><text x="841.8" y="-35.23" opacity="0.8"><tspan x="841.8" y="-35.23"/></text><text x="-628.76" y="-65.3" opacity="0.8"><tspan x="-628.76" y="-65.3"/></text><text x="-2452.45" y="680.25" opacity="0.8"><tspan x="-2452.45" y="680.25"/></text><text x="-514.27" y="-450.63" opacity="0.8"><tspan x="-514.27" y="-450.63"/></text><text x="293.33" y="-864.1" opacity="0.8"><tspan x="293.33" y="-864.1"/></text><text x="317.29" y="-904.84" opacity="0.8"><tspan x="317.29" y="-904.84"/></text><text x="-1174.17" y="-912.05" opacity="0.8"><tspan x="-1174.17" y="-912.05"/></text><text x="286.37" y="-1185.28" opacity="0.8"><tspan x="286.37" y="-1185.28"/></text><text x="1772.5" y="-558.59" opacity="0.8"><tspan x="1772.5" y="-558.59"/></text><text x="1796.46" y="-599.33" opacity="0.8"><tspan x="1796.46" y="-599.33"/></text><text x="304.99" y="-606.54" opacity="0.8"><tspan x="304.99" y="-606.54"/></text><text x="1765.54" y="-879.78" opacity="0.8"><tspan x="1765.54" y="-879.78"/></text><text x="-632.82" y="-654.63" opacity="0.8"><tspan x="-632.82" y="-654.63"/></text><text x="-2456.51" y="90.92" opacity="0.8"><tspan x="-2456.51" y="90.92"/></text><text x="-741.75" y="183.79" opacity="0.8"><tspan x="-741.75" y="183.79"/></text><text x="367.27" y="4.611" opacity="0.8"><tspan x="367.27" y="4.611"/></text><text x="391.23" y="-36.13" opacity="0.8"><tspan x="391.23" y="-36.13"/></text><text x="-1100.23" y="-43.34" opacity="0.8"><tspan x="-1100.23" y="-43.34"/></text><text x="360.31" y="-316.58" opacity="0.8"><tspan x="360.31" y="-316.58"/></text><text x="-667.42" y="-46.06" opacity="0.8"><tspan x="-667.42" y="-46.06"/></text><text x="-2491.11" y="699.5" opacity="0.8"><tspan x="-2491.11" y="699.5"/></text><text x="-516.33" y="-907.59" opacity="0.8"><tspan x="-516.33" y="-907.59"/></text><text x="291.27" y="-1321.06" opacity="0.8"><tspan x="291.27" y="-1321.06"/></text><text x="315.23" y="-1361.8" opacity="0.8"><tspan x="315.23" y="-1361.8"/></text><text x="-1176.23" y="-1369.01" opacity="0.8"><tspan x="-1176.23" y="-1369.01"/></text><text x="284.31" y="-1642.24" opacity="0.8"><tspan x="284.31" y="-1642.24"/></text><text x="1770.44" y="-1015.55" opacity="0.8"><tspan x="1770.44" y="-1015.55"/></text><text x="1794.4" y="-1056.29" opacity="0.8"><tspan x="1794.4" y="-1056.29"/></text><text x="302.93" y="-1063.5" opacity="0.8"><tspan x="302.93" y="-1063.5"/></text><text x="1763.48" y="-1336.74" opacity="0.8"><tspan x="1763.48" y="-1336.74"/></text><text x="-634.88" y="-1111.59" opacity="0.8"><tspan x="-634.88" y="-1111.59"/></text><text x="-2458.57" y="-366.04" opacity="0.8"><tspan x="-2458.57" y="-366.04"/></text><text x="-743.81" y="-273.17" opacity="0.8"><tspan x="-743.81" y="-273.17"/></text><text x="96.2" y="-32.25" opacity="0.8"><tspan x="96.2" y="-32.25"/></text><text x="120.16" y="-72.995" opacity="0.8"><tspan x="120.16" y="-72.995"/></text><text x="-1149.65" y="-267.02" opacity="0.8"><tspan x="-1149.65" y="-267.02"/></text><text x="-342.05" y="-680.49" opacity="0.8"><tspan x="-342.05" y="-680.49"/></text><text x="-318.09" y="-721.24" opacity="0.8"><tspan x="-318.09" y="-721.24"/></text><text x="-1809.55" y="-728.45" opacity="0.8"><tspan x="-1809.55" y="-728.45"/></text><text x="-349.01" y="-1001.68" opacity="0.8"><tspan x="-349.01" y="-1001.68"/></text><text x="1137.11" y="-374.99" opacity="0.8"><tspan x="1137.11" y="-374.99"/></text><text x="1161.07" y="-415.73" opacity="0.8"><tspan x="1161.07" y="-415.73"/></text><text x="-330.39" y="-422.94" opacity="0.8"><tspan x="-330.39" y="-422.94"/></text><text x="1130.15" y="-696.17" opacity="0.8"><tspan x="1130.15" y="-696.17"/></text><text x="-1268.21" y="-471.03" opacity="0.8"><tspan x="-1268.21" y="-471.03"/></text><text x="-3091.89" y="274.52" opacity="0.8"><tspan x="-3091.89" y="274.52"/></text></g><text x="-664.27" y="1159.42" transform="matrix(0.90475 0 0 0.90475 -776.14 -681.59)" opacity="0.8" font-size="14"><tspan x="-664.27" y="1159.42"/></text><g font-size="12.666"><text x="817.84" y="12.753" opacity="0.8"><tspan x="817.84" y="12.753"/></text><text x="841.8" y="-27.988" opacity="0.8"><tspan x="841.8" y="-27.988"/></text><text x="-628.76" y="-58.07" opacity="0.8"><tspan x="-628.76" y="-58.07"/></text><text x="-2452.45" y="687.49" opacity="0.8"><tspan x="-2452.45" y="687.49"/></text><text x="-514.27" y="-443.39" opacity="0.8"><tspan x="-514.27" y="-443.39"/></text><text x="293.33" y="-856.86" opacity="0.8"><tspan x="293.33" y="-856.86"/></text><text x="317.29" y="-897.6" opacity="0.8"><tspan x="317.29" y="-897.6"/></text><text x="-1174.17" y="-904.81" opacity="0.8"><tspan x="-1174.17" y="-904.81"/></text><text x="286.37" y="-1178.04" opacity="0.8"><tspan x="286.37" y="-1178.04"/></text><text x="1772.5" y="-551.35" opacity="0.8"><tspan x="1772.5" y="-551.35"/></text><text x="1796.46" y="-592.09" opacity="0.8"><tspan x="1796.46" y="-592.09"/></text><text x="304.99" y="-599.3" opacity="0.8"><tspan x="304.99" y="-599.3"/></text><text x="1765.54" y="-872.54" opacity="0.8"><tspan x="1765.54" y="-872.54"/></text><text x="-632.82" y="-647.39" opacity="0.8"><tspan x="-632.82" y="-647.39"/></text><text x="-2456.51" y="98.16" opacity="0.8"><tspan x="-2456.51" y="98.16"/></text><text x="-741.75" y="191.03" opacity="0.8"><tspan x="-741.75" y="191.03"/></text><text x="367.27" y="11.849" opacity="0.8"><tspan x="367.27" y="11.849"/></text><text x="391.23" y="-28.893" opacity="0.8"><tspan x="391.23" y="-28.893"/></text><text x="-1100.23" y="-36.1" opacity="0.8"><tspan x="-1100.23" y="-36.1"/></text><text x="360.31" y="-309.34" opacity="0.8"><tspan x="360.31" y="-309.34"/></text><text x="-667.42" y="-38.817" opacity="0.8"><tspan x="-667.42" y="-38.817"/></text><text x="-2491.11" y="706.74" opacity="0.8"><tspan x="-2491.11" y="706.74"/></text><text x="-516.33" y="-900.35" opacity="0.8"><tspan x="-516.33" y="-900.35"/></text><text x="291.27" y="-1313.82" opacity="0.8"><tspan x="291.27" y="-1313.82"/></text><text x="315.23" y="-1354.56" opacity="0.8"><tspan x="315.23" y="-1354.56"/></text><text x="-1176.23" y="-1361.77" opacity="0.8"><tspan x="-1176.23" y="-1361.77"/></text><text x="284.31" y="-1635" opacity="0.8"><tspan x="284.31" y="-1635"/></text><text x="1770.44" y="-1008.31" opacity="0.8"><tspan x="1770.44" y="-1008.31"/></text><text x="1794.4" y="-1049.05" opacity="0.8"><tspan x="1794.4" y="-1049.05"/></text><text x="302.93" y="-1056.26" opacity="0.8"><tspan x="302.93" y="-1056.26"/></text><text x="1763.48" y="-1329.5" opacity="0.8"><tspan x="1763.48" y="-1329.5"/></text><text x="-634.88" y="-1104.36" opacity="0.8"><tspan x="-634.88" y="-1104.36"/></text><text x="-2458.57" y="-358.8" opacity="0.8"><tspan x="-2458.57" y="-358.8"/></text><text x="-743.81" y="-265.93" opacity="0.8"><tspan x="-743.81" y="-265.93"/></text><text x="96.2" y="-25.02" opacity="0.8"><tspan x="96.2" y="-25.02"/></text><text x="120.16" y="-65.757" opacity="0.8"><tspan x="120.16" y="-65.757"/></text><text x="-1149.65" y="-259.79" opacity="0.8"><tspan x="-1149.65" y="-259.79"/></text><text x="-342.05" y="-673.26" opacity="0.8"><tspan x="-342.05" y="-673.26"/></text><text x="-318.09" y="-714" opacity="0.8"><tspan x="-318.09" y="-714"/></text><text x="-1809.55" y="-721.21" opacity="0.8"><tspan x="-1809.55" y="-721.21"/></text><text x="-349.01" y="-994.44" opacity="0.8"><tspan x="-349.01" y="-994.44"/></text><text x="1137.11" y="-367.75" opacity="0.8"><tspan x="1137.11" y="-367.75"/></text><text x="1161.07" y="-408.49" opacity="0.8"><tspan x="1161.07" y="-408.49"/></text><text x="-330.39" y="-415.7" opacity="0.8"><tspan x="-330.39" y="-415.7"/></text><text x="1130.15" y="-688.94" opacity="0.8"><tspan x="1130.15" y="-688.94"/></text><text x="-1268.21" y="-463.79" opacity="0.8"><tspan x="-1268.21" y="-463.79"/></text><text x="-3091.89" y="281.76" opacity="0.8"><tspan x="-3091.89" y="281.76"/></text></g><text x="-664.27" y="1159.42" transform="matrix(0.90475 0 0 0.90475 -776.14 -674.35)" opacity="0.8" font-size="14"><tspan x="-664.27" y="1159.42"/></text></g><g font-size="12.666"><text x="376.51" y="-366.52" font-family="Droid Sans"><tspan x="376.51" y="-366.52"/><tspan x="376.51" y="-350.69"/></text><g font-family="Bitstream Vera Sans"><text x="841.7" y="-848.57" opacity="0.8"><tspan x="841.7" y="-848.57"/></text><text x="-981.99" y="-103.01" opacity="0.8"><tspan x="-981.99" y="-103.01"/></text><text x="1568.78" y="-1133.56" opacity="0.8"><tspan x="1568.78" y="-1133.56"/></text><text x="1592.74" y="-1174.3" opacity="0.8"><tspan x="1592.74" y="-1174.3"/></text><text x="101.28" y="-1181.51" opacity="0.8"><tspan x="101.28" y="-1181.51"/></text><text x="1561.82" y="-1454.75" opacity="0.8"><tspan x="1561.82" y="-1454.75"/></text></g></g><path d="m 14 15 v 12 c 0 0 0 5 6 5 6 0 6 -5 6 -5 v -9 c 0 0 0 -2 -2 -2 -2 0 -2 2 -2 2 v 9 c 0 0 0 5 6 5 6 0 6 -5 6 -5 v -12" fill="none" stroke="#313131" stroke-width="2"/></g></svg>