<svg xmlns="http://www.w3.org/2000/svg" viewBox="0 0 256 256"><defs><clipPath><path d="m -24 13 c 0 1.105 -0.672 2 -1.5 2 -0.828 0 -1.5 -0.895 -1.5 -2 0 -1.105 0.672 -2 1.5 -2 0.828 0 1.5 0.895 1.5 2 z" transform="matrix(15.33333 0 0 11.5 415 -125.5)"/></clipPath></defs><path d="m 255.37 138.1 c 14.702 -154.62 -233.26 -196.24 -252.52 -37.473 -23.866 145.99 200.9 221.18 245.85 76.12 c 4.925 -12.265 4.832 -25.677 6.668 -38.643 z" fill="#ff8c00" color="#000"/><path d="m 184.11 126.38 v -68.14 h -58.32 h -58.32 v 63.46 v 63.46 l 2.894 3.118 c 1.681 1.811 4.258 3.775 6.149 4.686 l 3.254 1.569 h 52.17 h 52.17 v -68.14 z m -94.26 35.13 c 0 -1.348 5.418 -4.843 12.251 -7.902 9.174 -4.107 13.521 -6.76 14.275 -8.712 0.315 -0.817 0.574 -3.297 0.574 -5.511 0 -3.773 -0.188 -4.353 -2.988 -9.199 -1.643 -2.845 -3.338 -6.431 -3.767 -7.97 -0.428 -1.538 -1.245 -3.686 -1.815 -4.773 -1.124 -2.144 -1.127 -2.235 -0.376 -10.783 0.603 -6.873 2.144 -10.381 6.156 -14.02 3.251 -2.95 4.622 -3.687 8.533 -4.589 2.447 -0.564 3.739 -0.564 6.186 0 3.911 0.902 5.282 1.639 8.533 4.589 3.98 3.611 5.608 7.23 5.918 13.152 0.142 2.711 0.494 5.177 0.783 5.481 0.895 0.939 0.581 3.744 -0.705 6.291 -0.676 1.34 -1.7 3.743 -2.275 5.34 -0.575 1.597 -2.275 4.774 -3.778 7.06 -2.714 4.13 -2.732 4.192 -2.732 9.169 0 2.756 0.276 5.52 0.614 6.141 0.904 1.663 4.394 3.651 12.582 7.166 4.01 1.722 8.361 3.795 9.664 4.605 2.231 1.386 4.239 3.542 4.239 4.55 0 0.248 -16.17 0.451 -35.936 0.451 -21.54 0 -35.936 -0.214 -35.936 -0.535 z" fill="#fefefe"/></svg>