
<svg xmlns="http://www.w3.org/2000/svg" xmlns:xlink="http://www.w3.org/1999/xlink" width="24px" height="24px" viewBox="0 0 24 24" version="1.1">
<g id="surface1">
<path style=" stroke:none;fill-rule:nonzero;fill:rgb(86.27451%,86.27451%,86.27451%);fill-opacity:1;" d="M 0.398438 14.777344 C 5.082031 36.964844 37.324219 13.144531 17.957031 1.867188 C 10.433594 -2.96875 -2.011719 3.367188 0.398438 14.777344 Z M 0.398438 14.777344 "/>
<path style=" stroke:none;fill-rule:nonzero;fill:rgb(0%,0%,0%);fill-opacity:0.196078;" d="M 14.605469 6.230469 L 14.628906 6.25 L 14.695312 6.230469 Z M 15.449219 6.949219 L 20.085938 10.902344 L 20.085938 6.949219 Z M 15.449219 6.949219 "/>
<path style=" stroke:none;fill-rule:nonzero;fill:rgb(100%,100%,100%);fill-opacity:0.392157;" d="M 14.605469 2.277344 L 20.085938 6.949219 L 15.449219 6.949219 C 15.039062 6.949219 14.605469 6.578125 14.605469 6.230469 Z M 14.605469 2.277344 "/>
<path style=" stroke:none;fill-rule:nonzero;fill:rgb(50.196078%,50.196078%,50.196078%);fill-opacity:1;" d="M 13.554688 12.5 C 13.554688 12.136719 13.59375 11.792969 13.675781 11.480469 C 13.753906 11.164062 13.871094 10.890625 14.019531 10.664062 C 14.167969 10.4375 14.347656 10.257812 14.558594 10.136719 C 14.769531 10.007812 15 9.945312 15.253906 9.945312 C 15.535156 9.945312 15.777344 10.007812 15.980469 10.132812 C 16.183594 10.257812 16.289062 10.453125 16.289062 10.722656 C 16.289062 10.859375 16.253906 10.984375 16.191406 11.09375 C 16.128906 11.199219 16.046875 11.253906 15.953125 11.253906 C 15.902344 11.253906 15.824219 11.226562 15.714844 11.167969 C 15.605469 11.109375 15.527344 11.070312 15.476562 11.046875 C 15.425781 11.023438 15.359375 11.015625 15.273438 11.015625 C 15.074219 11.015625 14.90625 11.082031 14.773438 11.21875 C 14.640625 11.355469 14.546875 11.539062 14.480469 11.765625 C 14.421875 11.996094 14.390625 12.238281 14.390625 12.5 C 14.390625 12.914062 14.460938 13.257812 14.605469 13.535156 C 14.746094 13.8125 14.945312 13.953125 15.203125 13.953125 C 15.339844 13.953125 15.445312 13.9375 15.523438 13.910156 C 15.601562 13.882812 15.683594 13.84375 15.769531 13.792969 C 15.855469 13.746094 15.921875 13.71875 15.96875 13.71875 C 16.0625 13.71875 16.136719 13.75 16.1875 13.8125 C 16.238281 13.875 16.273438 13.941406 16.292969 14.023438 C 16.308594 14.101562 16.316406 14.175781 16.316406 14.238281 C 16.316406 14.429688 16.261719 14.585938 16.148438 14.710938 C 16.035156 14.832031 15.894531 14.921875 15.726562 14.980469 C 15.558594 15.035156 15.398438 15.066406 15.238281 15.066406 C 14.890625 15.066406 14.585938 14.953125 14.332031 14.726562 C 14.078125 14.496094 13.882812 14.1875 13.75 13.800781 C 13.617188 13.410156 13.554688 12.976562 13.554688 12.503906 Z M 11.667969 9.945312 C 11.917969 9.945312 12.148438 10.003906 12.355469 10.125 C 12.566406 10.246094 12.742188 10.414062 12.890625 10.636719 C 13.035156 10.859375 13.148438 11.128906 13.230469 11.449219 C 13.3125 11.765625 13.351562 12.117188 13.351562 12.5 C 13.351562 12.886719 13.3125 13.238281 13.230469 13.554688 C 13.148438 13.875 13.035156 14.148438 12.890625 14.371094 C 12.742188 14.59375 12.566406 14.765625 12.355469 14.882812 C 12.148438 15.003906 11.917969 15.0625 11.667969 15.0625 C 11.417969 15.0625 11.1875 15.003906 10.976562 14.882812 C 10.769531 14.765625 10.589844 14.59375 10.441406 14.367188 C 10.296875 14.144531 10.179688 13.875 10.101562 13.554688 C 10.023438 13.238281 9.980469 12.886719 9.980469 12.5 C 9.980469 12.117188 10.023438 11.765625 10.101562 11.449219 C 10.183594 11.128906 10.296875 10.859375 10.445312 10.636719 C 10.589844 10.414062 10.769531 10.246094 10.976562 10.125 C 11.1875 10.003906 11.417969 9.945312 11.667969 9.945312 Z M 11.667969 10.972656 C 11.476562 10.972656 11.316406 11.042969 11.191406 11.1875 C 11.0625 11.328125 10.96875 11.515625 10.90625 11.753906 C 10.847656 11.984375 10.816406 12.234375 10.816406 12.5 C 10.816406 12.769531 10.847656 13.023438 10.90625 13.257812 C 10.96875 13.492188 11.0625 13.679688 11.191406 13.824219 C 11.316406 13.964844 11.476562 14.035156 11.667969 14.035156 C 11.855469 14.035156 12.015625 13.964844 12.140625 13.828125 C 12.269531 13.683594 12.363281 13.5 12.425781 13.265625 C 12.484375 13.035156 12.511719 12.777344 12.511719 12.5 C 12.511719 12.226562 12.484375 11.972656 12.425781 11.742188 C 12.363281 11.511719 12.269531 11.328125 12.140625 11.1875 C 12.015625 11.046875 11.855469 10.972656 11.667969 10.972656 Z M 5.902344 13.230469 L 6.210938 10.714844 C 6.269531 10.246094 6.441406 10.011719 6.726562 10.011719 C 6.851562 10.011719 6.949219 10.050781 7.023438 10.125 C 7.097656 10.199219 7.164062 10.320312 7.210938 10.484375 C 7.265625 10.644531 7.328125 10.890625 7.402344 11.21875 L 7.78125 12.902344 L 7.792969 12.902344 L 8.171875 11.21875 C 8.246094 10.890625 8.308594 10.644531 8.359375 10.484375 C 8.410156 10.320312 8.472656 10.199219 8.546875 10.125 C 8.621094 10.050781 8.722656 10.011719 8.84375 10.011719 C 9.132812 10.011719 9.304688 10.246094 9.363281 10.714844 L 9.667969 13.230469 C 9.757812 13.949219 9.800781 14.359375 9.800781 14.464844 C 9.800781 14.601562 9.765625 14.722656 9.699219 14.832031 C 9.632812 14.941406 9.542969 14.992188 9.433594 14.992188 C 9.324219 14.992188 9.238281 14.960938 9.175781 14.898438 C 9.113281 14.832031 9.070312 14.746094 9.042969 14.636719 C 9.015625 14.53125 8.996094 14.40625 8.980469 14.257812 L 8.75 12.085938 L 8.738281 12.085938 L 8.214844 14.492188 C 8.175781 14.671875 8.125 14.800781 8.058594 14.878906 C 7.992188 14.953125 7.902344 14.992188 7.785156 14.992188 C 7.671875 14.992188 7.578125 14.953125 7.515625 14.878906 C 7.449219 14.800781 7.398438 14.671875 7.359375 14.492188 L 6.832031 12.085938 L 6.824219 12.085938 L 6.59375 14.257812 C 6.578125 14.40625 6.558594 14.53125 6.53125 14.636719 C 6.503906 14.746094 6.460938 14.832031 6.398438 14.898438 C 6.335938 14.960938 6.25 14.992188 6.140625 14.992188 C 6.03125 14.992188 5.941406 14.941406 5.875 14.832031 C 5.808594 14.722656 5.773438 14.601562 5.773438 14.464844 C 5.773438 14.335938 5.816406 13.921875 5.90625 13.230469 Z M 5.902344 13.230469 "/>
</g>
</svg>
