<svg xmlns="http://www.w3.org/2000/svg" viewBox="0 0 48 48"><g fill="#d41919"><path d="m 43.17 38.11 c 23.688 -36.09 -51.848 -58.31 -41.848 -11.664 c 4.262 19.281 30.988 30.98 41.848 11.664"/><path d="m 45.26 23.891 c 0 11.03 -9.379 19.977 -20.949 19.977 c -11.566 0 -20.945 -8.945 -20.945 -19.977 c 0 -11.04 9.379 -19.977 20.945 -19.977 c 11.57 0 20.949 8.941 20.949 19.977" fill-rule="evenodd"/></g><path d="m 37.629 23.988 c 0 7.05 -5.992 12.77 -13.391 12.77 c -7.395 0 -13.387 -5.715 -13.387 -12.77 c 0 -7.05 5.992 -12.77 13.387 -12.77 c 7.395 0 13.391 5.719 13.391 12.77" fill="#fff"/><path d="m 37.629 23.988 c 0 7.05 -5.992 12.77 -13.391 12.77 c -7.395 0 -13.387 -5.715 -13.387 -12.77 c 0 -7.05 5.992 -12.77 13.387 -12.77 c 7.395 0 13.391 5.719 13.391 12.77"/><path d="m 30.426 23.988 c 0 3.258 -2.77 5.898 -6.184 5.898 c -3.418 0 -6.184 -2.641 -6.184 -5.898 c 0 -3.258 2.77 -5.895 6.184 -5.895 c 3.414 0 6.184 2.641 6.184 5.895" fill="#fff"/><path d="m 26.563 25.43 c 0 0.277 -0.047 0.531 -0.141 0.766 c -0.09 0.23 -0.23 0.43 -0.418 0.598 c -0.188 0.168 -0.43 0.301 -0.723 0.398 c -0.293 0.094 -0.637 0.141 -1.039 0.141 c -0.398 0 -0.746 -0.047 -1.039 -0.141 c -0.289 -0.098 -0.531 -0.227 -0.727 -0.395 c -0.188 -0.168 -0.332 -0.367 -0.422 -0.598 c -0.094 -0.234 -0.137 -0.488 -0.137 -0.762 c 0 -0.238 0.035 -0.445 0.109 -0.633 c 0.078 -0.184 0.18 -0.34 0.305 -0.473 c 0.129 -0.137 0.273 -0.242 0.438 -0.324 c 0.164 -0.082 0.332 -0.137 0.508 -0.164 v -0.02 c -0.191 -0.043 -0.363 -0.113 -0.516 -0.207 c -0.145 -0.098 -0.273 -0.211 -0.375 -0.344 c -0.102 -0.133 -0.176 -0.281 -0.23 -0.445 c -0.055 -0.164 -0.078 -0.336 -0.078 -0.516 c 0 -0.23 0.043 -0.441 0.133 -0.641 c 0.094 -0.203 0.23 -0.383 0.414 -0.531 c 0.18 -0.152 0.402 -0.273 0.672 -0.359 c 0.266 -0.09 0.574 -0.133 0.926 -0.133 c 0.371 0 0.691 0.043 0.965 0.133 c 0.273 0.09 0.496 0.211 0.676 0.363 c 0.18 0.152 0.313 0.328 0.402 0.531 c 0.086 0.203 0.129 0.418 0.129 0.645 c 0 0.18 -0.027 0.348 -0.082 0.512 c -0.051 0.164 -0.129 0.313 -0.23 0.449 c -0.102 0.133 -0.227 0.246 -0.379 0.34 c -0.148 0.094 -0.32 0.156 -0.516 0.195 v 0.016 c 0.195 0.031 0.379 0.09 0.543 0.172 c 0.168 0.078 0.313 0.188 0.438 0.324 c 0.121 0.129 0.219 0.289 0.289 0.473 c 0.07 0.184 0.105 0.395 0.105 0.629 m -1.07 -3.063 c 0 -0.164 -0.023 -0.313 -0.07 -0.449 c -0.043 -0.133 -0.113 -0.25 -0.211 -0.344 c -0.102 -0.098 -0.23 -0.176 -0.395 -0.227 c -0.16 -0.055 -0.359 -0.082 -0.594 -0.082 c -0.227 0 -0.422 0.027 -0.578 0.082 c -0.16 0.051 -0.289 0.129 -0.395 0.227 c -0.098 0.094 -0.172 0.211 -0.215 0.344 c -0.047 0.137 -0.07 0.285 -0.07 0.449 c 0 0.129 0.02 0.262 0.055 0.395 c 0.035 0.137 0.102 0.262 0.195 0.371 c 0.09 0.109 0.219 0.199 0.387 0.273 c 0.164 0.07 0.375 0.105 0.633 0.105 c 0.273 0 0.492 -0.035 0.656 -0.105 c 0.168 -0.074 0.293 -0.164 0.383 -0.273 c 0.09 -0.109 0.148 -0.234 0.172 -0.371 c 0.031 -0.133 0.043 -0.266 0.043 -0.395 m 0.172 2.984 c 0 -0.156 -0.023 -0.309 -0.066 -0.453 c -0.047 -0.148 -0.125 -0.277 -0.234 -0.387 c -0.109 -0.113 -0.258 -0.207 -0.445 -0.273 c -0.184 -0.07 -0.414 -0.105 -0.691 -0.105 c -0.254 0 -0.473 0.035 -0.652 0.105 c -0.176 0.066 -0.32 0.16 -0.434 0.273 c -0.109 0.113 -0.191 0.246 -0.242 0.395 c -0.051 0.148 -0.078 0.301 -0.078 0.461 c 0 0.199 0.027 0.383 0.078 0.551 c 0.051 0.164 0.133 0.305 0.246 0.422 c 0.113 0.117 0.262 0.211 0.445 0.273 c 0.184 0.066 0.406 0.098 0.668 0.098 c 0.262 0 0.484 -0.031 0.668 -0.098 c 0.18 -0.063 0.324 -0.156 0.434 -0.273 c 0.109 -0.117 0.188 -0.262 0.23 -0.426 c 0.051 -0.172 0.074 -0.359 0.074 -0.563"/></svg>