<svg xmlns="http://www.w3.org/2000/svg" viewBox="0 0 48 48"><path d="m 39.461 7.04 c 37.523 49.734 -65.734 56.801 -32.598 6.03 c 7.555 -11.574 22.66 -19.2 32.598 -6.03" fill="#9acd31"/><path d="m 13.766 36.965 c -0.207 -0.219 -0.172 -1.363 0.047 -1.504 c 0.102 -0.066 0.25 -0.391 0.328 -0.715 c 0.168 -0.719 -0.121 -0.961 -1.16 -0.965 c -1.031 -0.004 -1.668 -0.742 -1.668 -1.926 c 0 -1.254 0.887 -2.57 3.391 -5.03 c 1.141 -1.121 2.078 -2.109 2.078 -2.191 c 0 -0.086 -0.754 -0.82 -1.676 -1.633 c -0.918 -0.813 -2.148 -2.148 -2.73 -2.965 c -0.922 -1.301 -1.059 -1.625 -1.059 -2.551 c -0.004 -0.957 0.063 -1.102 0.68 -1.5 c 0.375 -0.242 1.047 -0.441 1.492 -0.441 c 0.57 0 1.078 -0.207 1.746 -0.715 c 0.789 -0.598 1.125 -0.715 2.047 -0.699 c 1.344 0.02 2.102 0.496 2.668 1.672 c 0.227 0.469 0.48 0.852 0.566 0.848 c 0.086 -0.004 0.492 -0.93 0.91 -2.055 l 0.754 -2.055 h 4.125 l 0.949 2.52 c 1.047 2.777 0.973 2.723 2.664 1.934 c 0.348 -0.16 1.105 -0.445 1.684 -0.633 c 3.195 -1.039 4.387 -1.094 5.344 -0.242 c 1.02 0.906 0.828 2.02 -0.738 4.313 c -0.293 0.43 -0.484 0.957 -0.43 1.184 c 0.156 0.637 -0.277 1.773 -0.887 2.324 c -0.422 0.379 -0.82 0.5 -1.66 0.5 c -0.766 0 -1.105 0.09 -1.105 0.289 c 0 0.16 0.668 0.879 1.484 1.598 c 2.422 2.133 3.984 4.363 3.984 5.691 c 0 0.922 -0.906 1.746 -1.93 1.754 c -0.91 0.008 -1.438 0.191 -1.438 0.5 c 0 0.121 0.152 0.551 0.332 0.961 c 0.184 0.406 0.301 0.973 0.266 1.254 c -0.066 0.492 -0.168 0.52 -1.898 0.582 c -2.082 0.074 -2.02 0.121 -2.742 -2.176 c -0.77 -2.457 -0.957 -2.762 -2.039 -3.289 c -0.887 -0.43 -1.371 -0.492 -3.785 -0.492 c -2.52 0 -2.871 0.051 -3.883 0.555 c -1.184 0.594 -1.273 0.738 -2.227 3.555 c -0.246 0.734 -0.551 1.461 -0.672 1.613 c -0.23 0.297 -3.547 0.414 -3.813 0.133 m 1.582 -5.91 c 0.383 -0.715 1.012 -2.453 1.012 -2.789 c 0 -0.52 -0.805 0.129 -1.773 1.441 c -0.508 0.684 -0.875 1.379 -0.816 1.547 c 0.184 0.504 1.277 0.367 1.578 -0.199 m 19.613 0.281 c 0.191 -0.328 -0.262 -1.086 -1.426 -2.391 c -1.117 -1.246 -1.41 -1.41 -1.41 -0.781 c 0 0.57 0.715 2.457 1.117 2.957 c 0.367 0.453 1.496 0.598 1.719 0.215 m -9.145 -4.695 c 0.578 -0.375 1.055 -0.781 1.055 -0.902 c 0 -0.645 -0.746 -2.477 -1.211 -2.965 c -0.789 -0.836 -1.348 -0.902 -2.289 -0.273 c -0.973 0.648 -1.242 0.977 -1.395 1.715 c -0.066 0.305 -0.18 0.77 -0.258 1.027 c -0.117 0.395 0.059 0.598 1.086 1.273 c 0.676 0.441 1.391 0.805 1.594 0.805 c 0.199 0.004 0.84 -0.301 1.418 -0.68 m -6.844 -5.375 c 0.512 -1.434 0.52 -1.5 0.129 -1.5 c -0.223 0 -0.465 0.102 -0.535 0.223 c -0.07 0.121 -0.617 0.223 -1.207 0.223 c -1.145 0 -2.363 -0.645 -2.586 -1.371 c -0.156 -0.512 -0.664 -0.922 -0.93 -0.746 c -0.152 0.098 -0.148 0.281 0.008 0.594 c 0.629 1.246 4.102 4.594 4.414 4.262 c 0.098 -0.098 0.414 -0.855 0.707 -1.68 m 11.902 0.828 c 0.227 -1.727 0.836 -2.387 2.363 -2.551 c 0.84 -0.09 1.141 -0.238 1.488 -0.738 c 0.379 -0.531 0.395 -0.648 0.129 -0.828 c -0.445 -0.297 -1.336 -0.266 -2.254 0.086 c -0.434 0.168 -1.313 0.48 -1.949 0.695 c -1.688 0.578 -1.75 0.734 -1.086 2.695 c 0.641 1.887 1.113 2.117 1.309 0.641 m -6.203 -2.797 c 0.199 -0.336 -0.23 -0.734 -0.621 -0.574 c -0.191 0.078 -0.277 0.277 -0.203 0.477 c 0.145 0.395 0.621 0.453 0.824 0.098" fill="#f38969"/><path d="m 13.766 36.965 c -0.246 -0.258 -0.152 -1.094 0.207 -1.852 c 0.453 -0.961 0.188 -1.41 -0.93 -1.57 c -1.191 -0.172 -1.52 -0.531 -1.52 -1.66 c 0 -0.789 0.168 -1.191 0.98 -2.332 c 0.539 -0.758 1.77 -2.094 2.73 -2.969 c 0.965 -0.875 1.754 -1.746 1.754 -1.938 c 0 -0.191 -0.289 -0.574 -0.645 -0.848 c -1.293 -1.016 -3.547 -3.414 -4.176 -4.453 c -0.453 -0.746 -0.645 -1.336 -0.645 -1.98 c 0 -0.793 0.086 -0.969 0.621 -1.262 c 0.34 -0.184 0.988 -0.336 1.441 -0.336 c 0.598 0 1.039 -0.184 1.617 -0.668 c 0.688 -0.578 0.965 -0.668 2.094 -0.668 c 1.387 0 1.648 0.172 2.496 1.613 c 0.195 0.336 0.477 0.609 0.617 0.605 c 0.141 -0.004 0.598 -0.93 1.012 -2.059 l 0.758 -2.051 h 4.117 l 0.98 2.559 c 1.117 2.918 0.977 2.84 3.273 1.895 c 1.566 -0.648 2.723 -0.945 4.414 -1.145 c 0.875 -0.102 1.172 -0.035 1.785 0.402 c 0.82 0.59 1.066 1.484 0.539 1.949 c -0.18 0.16 -0.328 0.387 -0.328 0.508 c 0 0.121 -0.316 0.688 -0.707 1.254 c -0.496 0.723 -0.742 1.359 -0.82 2.133 c -0.156 1.535 -0.813 2.121 -2.375 2.121 c -1 0 -1.145 0.055 -1.145 0.445 c 0 0.246 0.262 0.672 0.574 0.945 c 1.637 1.418 3.859 3.875 4.293 4.742 c 0.273 0.543 0.566 0.984 0.652 0.984 c 0.086 0 0.156 0.262 0.156 0.578 c 0 0.785 -0.906 1.508 -2.07 1.645 c -1.207 0.145 -1.461 0.559 -0.988 1.613 c 0.199 0.441 0.328 1.031 0.293 1.316 c -0.066 0.488 -0.168 0.52 -1.883 0.582 c -2.086 0.074 -2.098 0.063 -2.805 -2.289 c -1.035 -3.449 -1.215 -3.559 -5.895 -3.559 c -4.578 0 -4.684 0.066 -5.867 3.656 c -0.297 0.895 -0.645 1.766 -0.777 1.934 c -0.25 0.32 -3.551 0.453 -3.832 0.156 m 1.488 -5.801 c 0.582 -0.895 1.164 -2.68 1.012 -3.102 c -0.109 -0.297 -0.309 -0.184 -1.082 0.617 c -1.344 1.391 -1.883 2.352 -1.555 2.77 c 0.414 0.527 1.188 0.395 1.625 -0.285 m 19.82 0.273 c 0.215 -0.273 0.215 -0.445 0.012 -0.855 c -0.383 -0.75 -2.418 -3.03 -2.711 -3.03 c -0.586 0 0.121 2.707 0.973 3.719 c 0.492 0.582 1.336 0.664 1.727 0.168 m -9.305 -4.547 c 0.496 -0.238 0.957 -0.59 1.027 -0.785 c 0.07 -0.195 -0.078 -1.047 -0.332 -1.895 c -0.477 -1.598 -1.191 -2.441 -2.063 -2.441 c -0.594 0 -2.098 1.223 -2.25 1.824 c -0.074 0.281 -0.242 0.898 -0.375 1.375 c -0.234 0.82 -0.219 0.887 0.348 1.367 c 1.191 1 2.344 1.18 3.645 0.555 m 5.316 -4.73 c 0.164 -1.496 1 -2.391 2.246 -2.391 c 0.691 0 1.043 -0.133 1.434 -0.547 c 0.941 -0.996 0.563 -1.664 -0.957 -1.676 c -0.84 -0.008 -4.063 1.176 -4.605 1.691 c -0.297 0.285 -0.238 0.527 0.852 3.605 c 0.32 0.902 0.898 0.52 1.031 -0.684 m -12.145 -0.809 c 0.328 -0.898 0.539 -1.691 0.473 -1.762 c -0.066 -0.07 -0.434 -0.008 -0.813 0.137 c -1.68 0.641 -3.117 0.145 -3.836 -1.324 c -0.363 -0.742 -1.188 -0.824 -1.313 -0.129 c -0.102 0.566 3.973 4.902 4.504 4.797 c 0.266 -0.055 0.582 -0.605 0.984 -1.715 m 5.789 -2.09 c 0.082 -0.461 -0.523 -0.77 -0.844 -0.43 c -0.32 0.336 -0.027 0.98 0.406 0.891 c 0.203 -0.043 0.398 -0.25 0.438 -0.461" fill="#fa9619"/><path d="m 13.766 36.965 c -0.246 -0.258 -0.152 -1.094 0.207 -1.852 c 0.453 -0.961 0.188 -1.41 -0.93 -1.57 c -1.191 -0.172 -1.52 -0.531 -1.52 -1.66 c 0 -0.789 0.168 -1.191 0.98 -2.332 c 0.539 -0.758 1.77 -2.094 2.73 -2.969 c 0.965 -0.875 1.754 -1.746 1.754 -1.938 c 0 -0.191 -0.289 -0.574 -0.645 -0.848 c -1.293 -1.016 -3.547 -3.414 -4.176 -4.453 c -0.453 -0.746 -0.645 -1.336 -0.645 -1.98 c 0 -0.793 0.086 -0.969 0.621 -1.262 c 0.34 -0.184 0.988 -0.336 1.441 -0.336 c 0.598 0 1.039 -0.184 1.617 -0.668 c 0.453 -0.383 1.027 -0.66 1.34 -0.648 c 0.535 0.016 0.531 0.027 -0.137 0.336 c -1.523 0.703 -2 2.879 -0.898 4.047 c 1.426 1.508 3.605 0.801 4.113 -1.34 c 0.223 -0.934 -0.457 -2.156 -1.461 -2.641 l -0.855 -0.41 l 0.645 -0.004 c 0.664 -0.008 1.141 0.41 1.844 1.605 c 0.199 0.336 0.477 0.609 0.617 0.605 c 0.141 -0.004 0.598 -0.93 1.012 -2.059 l 0.758 -2.051 h 4.121 l 0.926 2.449 c 0.512 1.344 1.012 2.535 1.113 2.641 c 0.172 0.184 1.148 -0.141 3.387 -1.125 c 0.418 -0.184 0.984 -0.297 1.262 -0.254 c 0.355 0.059 0.035 0.234 -1.074 0.594 c -2.176 0.711 -6.41 2.906 -6.141 3.188 c 0.137 0.145 0.434 0.094 0.879 -0.148 c 1.309 -0.715 4.719 -2.113 5.457 -2.238 c 0.75 -0.125 0.75 -0.125 0.227 0.211 c -0.289 0.188 -0.68 0.344 -0.867 0.348 c -0.531 0.012 -2.301 0.898 -2.414 1.207 c -0.055 0.152 0.176 1.07 0.512 2.039 c 0.469 1.344 0.707 1.766 1.01 1.766 c 0.313 0 0.418 -0.215 0.508 -1.051 c 0.164 -1.504 1 -2.398 2.246 -2.398 c 0.695 0 1.043 -0.133 1.434 -0.543 c 0.992 -1.051 0.594 -1.633 -1.164 -1.703 l -0.738 -0.031 l 0.902 -0.227 c 0.641 -0.164 1.047 -0.156 1.418 0.02 c 0.594 0.289 0.652 0.766 0.203 1.676 c -0.406 0.828 -0.398 1.035 0.055 1.027 c 0.508 -0.008 1.523 -1.594 1.523 -2.387 c 0 -0.996 -0.566 -1.387 -2.02 -1.391 c -0.879 -0.004 -1.152 -0.066 -0.93 -0.219 c 0.582 -0.398 2 -0.254 2.754 0.285 c 0.801 0.566 1.039 1.469 0.516 1.926 c -0.18 0.16 -0.324 0.387 -0.324 0.508 c 0 0.121 -0.32 0.688 -0.711 1.254 c -0.496 0.723 -0.738 1.359 -0.82 2.133 c -0.156 1.535 -0.813 2.121 -2.371 2.121 c -1.01 0 -1.145 0.055 -1.145 0.445 c 0 0.246 0.258 0.672 0.574 0.945 c 1.633 1.418 3.855 3.875 4.293 4.742 c 0.27 0.543 0.563 0.984 0.652 0.984 c 0.086 0 0.156 0.262 0.156 0.578 c 0 0.785 -0.906 1.508 -2.07 1.645 c -1.207 0.145 -1.461 0.559 -0.988 1.613 c 0.195 0.441 0.328 1.031 0.289 1.316 c -0.066 0.488 -0.164 0.52 -1.879 0.582 c -2.09 0.074 -2.098 0.063 -2.805 -2.289 c -1.039 -3.449 -1.215 -3.559 -5.895 -3.559 c -4.578 0 -4.684 0.066 -5.867 3.656 c -0.297 0.895 -0.648 1.766 -0.777 1.934 c -0.25 0.32 -3.551 0.453 -3.832 0.156 m 0.293 -3.863 c 0.586 -0.328 0.5 -0.84 -0.148 -0.922 c -0.875 -0.109 -1.07 -0.664 -0.59 -1.648 c 0.867 -1.762 5.414 -5.867 9.07 -8.184 c 1.223 -0.777 0.848 -1.094 -0.41 -0.348 c -2.656 1.578 -6.27 4.504 -8.184 6.621 c -1.82 2.02 -2.297 3.074 -1.77 3.926 c 0.285 0.461 0.547 0.594 1.457 0.758 c 0.098 0.016 0.355 -0.074 0.578 -0.203 m 22.641 -0.27 c 0.402 -0.34 0.309 -1.523 -0.188 -2.391 c -1.066 -1.859 -5.078 -5.398 -9.266 -8.176 c -2.613 -1.734 -6.703 -3.902 -6.922 -3.668 c -0.137 0.141 0.465 0.566 1.75 1.23 c 1.074 0.559 2.293 1.25 2.703 1.535 c 0.41 0.285 1.07 0.707 1.469 0.941 c 2.586 1.516 6.25 4.496 7.875 6.402 c 1.82 2.141 2.01 3.32 0.559 3.473 c -0.785 0.082 -0.895 0.625 -0.191 0.922 c 0.531 0.227 1.805 0.07 2.207 -0.27 m -21.441 -1.668 c 0.582 -0.895 1.164 -2.68 1.012 -3.102 c -0.109 -0.301 -0.309 -0.184 -1.086 0.617 c -1.344 1.391 -1.879 2.348 -1.551 2.77 c 0.414 0.527 1.184 0.391 1.625 -0.285 m 19.82 0.27 c 0.215 -0.27 0.215 -0.441 0.008 -0.852 c -0.379 -0.754 -2.414 -3.03 -2.707 -3.03 c -0.586 0 0.121 2.707 0.973 3.715 c 0.492 0.586 1.336 0.668 1.727 0.168 m -9.305 -4.547 c 0.492 -0.234 0.953 -0.59 1.023 -0.781 c 0.07 -0.195 -0.078 -1.047 -0.332 -1.895 c -0.477 -1.598 -1.188 -2.441 -2.063 -2.441 c -0.59 0 -2.094 1.219 -2.25 1.82 c -0.07 0.285 -0.238 0.902 -0.375 1.379 c -0.234 0.82 -0.215 0.887 0.352 1.363 c 1.191 1.01 2.344 1.18 3.645 0.555 m -8.152 -3.059 c -0.008 -0.285 -0.27 -0.574 -1.555 -1.719 c -1.367 -1.211 -3.066 -3.5 -3.066 -4.121 c 0 -0.215 0.234 -0.559 0.523 -0.758 c 0.781 -0.539 0.68 -1.02 -0.211 -1.02 c -1.031 0 -1.648 0.684 -1.461 1.625 c 0.207 1.035 1.633 2.887 3.559 4.621 c 1.543 1.391 2.219 1.809 2.211 1.371 m 16.344 -0.07 c 0.375 -0.137 0.793 -0.543 1.023 -1 c 0.379 -0.746 0.379 -0.789 0.004 -1.527 c -0.73 -1.434 -2.34 -1.57 -3.09 -0.266 c -0.223 0.383 -0.402 0.855 -0.402 1.051 c 0 0.484 0.793 1.523 1.344 1.758 c 0.242 0.105 0.453 0.199 0.465 0.207 c 0.012 0.008 0.305 -0.094 0.656 -0.223 m -15.02 -2.406 c 0.324 -0.898 0.539 -1.691 0.473 -1.762 c -0.066 -0.07 -0.434 -0.012 -0.816 0.137 c -1.68 0.641 -3.113 0.145 -3.832 -1.328 c -0.363 -0.738 -1.188 -0.82 -1.313 -0.125 c -0.102 0.563 3.973 4.902 4.504 4.793 c 0.266 -0.055 0.578 -0.602 0.984 -1.715 m 5.789 -2.086 c 0.082 -0.461 -0.523 -0.77 -0.844 -0.43 c -0.32 0.336 -0.027 0.98 0.406 0.891 c 0.203 -0.043 0.398 -0.25 0.438 -0.461" fill="#e4611f"/><path d="m 13.766 36.965 c -0.227 -0.238 -0.16 -1.297 0.094 -1.566 c 0.129 -0.133 0.258 -0.531 0.289 -0.879 c 0.059 -0.609 0.352 -1.457 1.16 -3.297 c 0.691 -1.59 1.051 -2.605 1.051 -2.988 c 0 -0.207 0.258 -0.637 0.578 -0.953 c 0.809 -0.805 4.68 -3.73 4.934 -3.73 c 0.215 0 0.168 0.41 -0.266 2.305 c -0.188 0.828 -0.188 1.125 0 1.246 c 0.32 0.211 5.086 0.152 5.414 -0.066 c 0.168 -0.109 0.195 -0.332 0.078 -0.66 c -0.156 -0.445 -0.359 -1.133 -0.75 -2.547 c -0.203 -0.75 0.145 -0.633 1.949 0.645 c 2.477 1.75 3.828 3.03 3.828 3.625 c 0 0.508 0.309 1.418 1.051 3.121 c 0.832 1.902 1.113 2.68 1.074 2.949 c -0.023 0.152 0.113 0.621 0.301 1.039 c 0.188 0.418 0.309 0.992 0.273 1.277 c -0.066 0.488 -0.168 0.52 -1.879 0.582 c -2.117 0.074 -2.094 0.094 -2.902 -2.574 c -0.691 -2.273 -1.203 -3.01 -2.234 -3.203 c -1.059 -0.195 -5.785 -0.195 -7.03 0.004 c -0.816 0.129 -1 0.266 -1.406 1.027 c -0.254 0.48 -0.672 1.531 -0.922 2.332 c -0.766 2.449 -0.777 2.461 -2.801 2.461 c -0.961 0 -1.809 -0.066 -1.887 -0.148 m 4.387 -13.621 c -0.066 -0.117 -0.031 -0.266 0.074 -0.332 c 0.105 -0.07 0.449 -0.879 0.766 -1.797 c 0.395 -1.141 0.684 -1.668 0.914 -1.664 c 0.523 0.004 2.01 0.969 2.066 1.336 c 0.031 0.195 -0.652 0.797 -1.699 1.496 c -1.875 1.246 -1.934 1.277 -2.117 0.961 m 10.133 -1.145 c -1.672 -1.145 -1.82 -1.328 -1.367 -1.699 c 0.324 -0.266 2.051 -0.984 2.051 -0.855 c 0 0.051 0.281 0.902 0.625 1.887 c 0.344 0.988 0.559 1.793 0.473 1.793 c -0.082 -0.004 -0.883 -0.508 -1.781 -1.121 m -3.648 -3.266 c -0.203 -0.34 -0.297 -0.352 -0.758 -0.094 c -0.473 0.27 -0.668 0.223 -2.027 -0.504 c -1.07 -0.57 -1.504 -0.922 -1.504 -1.223 c 0 -0.234 0.074 -0.457 0.16 -0.5 c 0.086 -0.039 0.5 -0.973 0.918 -2.074 l 0.762 -2 h 4.109 l 0.914 2.414 c 0.504 1.324 0.918 2.504 0.918 2.613 c 0 0.156 -2.914 1.754 -3.199 1.754 c -0.035 0 -0.168 -0.176 -0.293 -0.387" fill="#605d5d"/><path d="m 14.1 36.742 c -0.348 -0.148 -0.332 -0.551 0.051 -1.328 c 0.172 -0.352 0.316 -0.836 0.32 -1.082 c 0.004 -0.598 0.43 -1.832 0.953 -2.781 c 0.488 -0.887 1.051 -2.453 1.246 -3.473 c 0.141 -0.738 0.609 -1.199 3.234 -3.176 c 1.01 -0.758 1.621 -1.094 1.754 -0.953 c 0.137 0.141 0.133 0.363 0 0.629 c -0.113 0.23 -0.27 0.926 -0.348 1.551 l -0.145 1.133 l 1.852 0.121 c 1.023 0.066 2.426 0.059 3.117 -0.02 l 1.262 -0.145 l -0.059 -0.781 c -0.035 -0.426 -0.215 -1.156 -0.402 -1.617 c -0.563 -1.379 -0.129 -1.418 1.617 -0.148 c 2.719 1.984 2.703 1.965 3.402 4.117 c 0.355 1.094 0.805 2.234 1 2.543 c 0.453 0.699 1.063 2.434 1.066 3.01 c 0 0.242 0.141 0.723 0.316 1.074 c 0.613 1.25 0.375 1.477 -1.59 1.477 c -1.371 0 -1.961 -0.418 -2.152 -1.52 c -0.141 -0.809 -0.898 -2.855 -1.293 -3.496 c -0.457 -0.734 -1.543 -1.027 -4.297 -1.152 c -2.688 -0.121 -4.711 0.203 -5.414 0.875 c -0.246 0.234 -0.609 0.844 -0.809 1.359 c -0.199 0.512 -0.496 1.262 -0.656 1.66 c -0.164 0.402 -0.297 0.879 -0.297 1.059 c 0 0.773 -0.789 1.215 -2.152 1.195 c -0.723 -0.008 -1.434 -0.066 -1.578 -0.129 m 4.781 -14.03 c 0.004 -0.617 0.766 -2.586 1.09 -2.801 c 0.336 -0.223 1.879 0.469 2.01 0.898 c 0.066 0.223 -2.641 2.289 -2.996 2.289 c -0.059 0 -0.105 -0.176 -0.105 -0.387 m 9.09 -0.754 c -0.723 -0.504 -1.313 -1 -1.313 -1.105 c 0 -0.105 0.391 -0.402 0.863 -0.656 c 1.016 -0.547 1.148 -0.465 1.699 1.066 c 0.406 1.137 0.473 1.617 0.223 1.613 c -0.086 -0.004 -0.75 -0.414 -1.473 -0.918 m -6.04 -3.574 c -0.695 -0.371 -1.301 -0.711 -1.348 -0.758 c -0.047 -0.047 0.059 -0.41 0.238 -0.809 c 0.18 -0.398 0.422 -0.973 0.535 -1.277 c 0.703 -1.891 1.01 -2.578 1.199 -2.723 c 0.281 -0.211 3.09 -0.211 3.391 0 c 0.188 0.129 1.977 4.527 1.977 4.855 c 0 0.047 -0.578 0.391 -1.285 0.77 l -1.285 0.688 l -0.465 -0.461 c -0.57 -0.57 -0.715 -0.574 -1.262 -0.035 c -0.43 0.418 -0.449 0.414 -1.695 -0.25" fill="#090504"/></svg>