<svg xmlns="http://www.w3.org/2000/svg" viewBox="0 0 48 48"><path d="m 24.03 12.461 c -0.879 0 -1.582 0.668 -1.582 1.504 v 1.656 c -3.621 0.691 -6.328 3.723 -6.328 7.375 v 6.02 c -1.754 0 -3.168 1.344 -3.168 3.01 v 1.504 h 9.496 v 1.504 c 0 0.836 0.703 1.504 1.582 1.504 c 0.875 0 1.582 -0.668 1.582 -1.504 v -1.504 h 9.492 v -1.504 c 0 -1.668 -1.41 -3.01 -3.164 -3.01 v -6.02 c 0 -3.652 -2.711 -6.684 -6.328 -7.375 v -1.656 c 0 -0.836 -0.707 -1.504 -1.582 -1.504" fill="#fff"/><path d="m 12.02 3.676 c -41.867 36.1 44.21 70.813 35.37 14.98 c -1.938 -12.242 -24.09 -24.707 -35.37 -14.98" fill="#ffd600"/><path d="m 24.543 38.516 c 0.133 -0.148 0.102 -0.32 -0.254 -1.355 c -0.512 -1.508 -0.578 -1.813 -0.582 -2.664 c 0 -0.707 0.012 -0.77 0.16 -0.906 c 0.086 -0.082 0.234 -0.148 0.328 -0.148 c 0.398 0 2.137 -0.574 3.383 -1.113 c 2.102 -0.914 5 -3.01 6.867 -4.953 c 0.219 -0.227 0.422 -0.414 0.453 -0.414 c 0.031 0 0.098 0.133 0.141 0.289 c 0.109 0.375 0.633 1.578 0.824 1.898 c 0.859 1.41 1.945 2.387 3.188 2.867 c 0.676 0.258 1.48 0.422 2.078 0.422 c 0.809 0 0.898 -0.242 0.41 -1.137 c -0.848 -1.535 -1.52 -3.469 -1.809 -5.188 c -0.121 -0.723 -0.105 -2.01 0.035 -2.773 c 0.227 -1.262 0.719 -2.648 1.496 -4.238 c 0.535 -1.09 0.574 -1.25 0.379 -1.469 c -0.133 -0.148 -0.191 -0.16 -0.668 -0.113 c -2.074 0.207 -4.051 1.754 -5.574 4.371 c -0.238 0.414 -0.461 0.754 -0.488 0.754 c -0.027 0 -0.348 -0.293 -0.711 -0.648 c -1.445 -1.414 -3.43 -3.03 -4.699 -3.82 c -0.762 -0.477 -1.125 -1.117 -1.188 -2.09 c -0.059 -0.977 0.27 -1.891 1.227 -3.402 c 0.281 -0.438 0.547 -0.879 0.594 -0.98 c 0.191 -0.414 0.391 -0.398 -4.727 -0.398 h -4.73 l -0.41 0.188 c -1.332 0.613 -2.809 2.293 -3.48 3.961 l -0.293 0.719 l -0.477 0.164 c -1.273 0.434 -2.809 1.246 -3.848 2.035 c -1.895 1.441 -3.578 3.605 -4.578 5.887 c -0.254 0.578 -0.285 0.707 -0.285 1.195 c 0 0.645 0.168 1.047 0.879 2.137 c 1.883 2.883 4.688 4.758 8.344 5.57 c 0.465 0.105 0.969 0.215 1.113 0.242 c 0.191 0.035 0.273 0.094 0.301 0.219 c 0.09 0.395 0.578 1.336 1.035 1.98 c 0.75 1.066 2.063 2.391 2.824 2.848 c 0.246 0.145 0.383 0.16 1.465 0.16 c 0.84 0 1.223 -0.027 1.277 -0.094 m -10.824 -11.723 c -0.34 -0.133 -0.879 -0.563 -1.102 -0.883 c -0.109 -0.16 -0.273 -0.496 -0.367 -0.75 c -0.141 -0.395 -0.16 -0.555 -0.133 -1.094 c 0.035 -0.809 0.254 -1.34 0.77 -1.875 c 0.527 -0.547 0.988 -0.73 1.734 -0.691 c 0.496 0.027 0.637 0.07 1.01 0.293 c 0.5 0.301 0.84 0.711 1.09 1.313 c 0.148 0.352 0.18 0.535 0.18 1.078 c 0 0.547 -0.031 0.73 -0.18 1.094 c -0.332 0.805 -1.01 1.441 -1.707 1.605 c -0.332 0.078 -0.965 0.035 -1.293 -0.09 m 1.238 -1.582 c 0.324 -0.195 0.492 -0.488 0.527 -0.922 c 0.039 -0.504 -0.137 -0.855 -0.547 -1.098 c -0.227 -0.133 -0.375 -0.168 -0.535 -0.133 c -0.551 0.117 -0.895 0.582 -0.887 1.195 c 0.008 0.789 0.82 1.328 1.441 0.957" fill="#fff"/></svg>