<svg xmlns="http://www.w3.org/2000/svg" viewBox="0 0 48 48"><path d="m 46.45 17.645 c 8.961 24.816 -23.25 36.883 -35.35 26.781 c -12.1 -10.11 -16.234 -27.418 -2.527 -36.13 c 13.703 -8.711 28.91 -15.469 37.875 9.348" fill="#473d8b"/><g fill="#fff" fill-rule="evenodd"><path d="m 23.434 38.04 c -0.105 -0.168 -0.168 -14.539 -0.066 -15.383 c 0.035 -0.309 -0.07 -0.406 -0.445 -0.406 c -0.473 0 -0.914 0.512 -1.418 1.648 c -0.105 0.234 -0.473 0.734 -0.816 1.113 c -0.348 0.375 -0.629 0.77 -0.629 0.871 c 0 0.102 -0.203 0.379 -0.457 0.617 c -0.25 0.238 -0.727 0.801 -1.055 1.246 c -0.332 0.445 -0.832 1.012 -1.121 1.262 c -0.285 0.25 -0.656 0.598 -0.824 0.773 c -1.18 1.23 -1.941 1.926 -2.105 1.926 c -0.105 0 -0.504 0.32 -0.883 0.715 c -0.715 0.734 -1.359 1 -0.852 0.355 c 0.449 -0.578 1.258 -1.492 1.84 -2.09 c 0.297 -0.309 0.688 -0.844 0.871 -1.191 c 0.18 -0.348 0.414 -0.637 0.523 -0.637 c 0.109 0 0.199 -0.09 0.199 -0.199 c 0 -0.109 0.32 -0.527 0.711 -0.93 c 0.391 -0.406 0.711 -0.813 0.711 -0.906 c 0 -0.094 0.332 -0.52 0.738 -0.949 c 0.406 -0.426 1.01 -1.258 1.34 -1.844 c 0.336 -0.586 0.688 -1.066 0.789 -1.066 c 0.102 0 0.184 -0.145 0.184 -0.32 c 0 -0.176 0.117 -0.449 0.258 -0.605 c 0.59 -0.66 0.762 -0.898 0.762 -1.078 c 0 -0.102 0.129 -0.293 0.285 -0.426 c 0.395 -0.328 0.637 -2.18 0.332 -2.547 c -0.191 -0.23 -0.129 -0.297 0.336 -0.352 l 0.57 -0.063 l 0.059 -3.418 l 0.055 -3.422 l 0.859 0.063 c 0.621 0.047 0.875 0.16 0.922 0.422 c 0.043 0.215 -0.055 0.355 -0.25 0.355 c -0.277 0 -0.32 0.398 -0.32 2.906 c 0 1.824 0.082 2.992 0.219 3.129 c 0.16 0.16 0.16 0.262 0 0.359 c -0.324 0.199 -0.266 0.922 0.086 1.055 c 0.168 0.066 0.305 0.336 0.305 0.605 c 0 0.266 0.09 0.484 0.199 0.484 c 0.113 0 0.332 0.301 0.488 0.664 c 0.156 0.363 0.754 1.23 1.324 1.934 c 0.57 0.699 1.039 1.344 1.039 1.438 c 0 0.09 0.512 0.703 1.133 1.359 c 0.621 0.66 1.281 1.453 1.465 1.766 c 0.188 0.313 0.434 0.57 0.555 0.57 c 0.117 0 0.348 0.184 0.508 0.406 c 0.16 0.223 0.371 0.406 0.469 0.406 c 0.098 0 0.477 0.313 0.848 0.691 c 0.367 0.379 1.023 0.855 1.457 1.059 c 0.434 0.199 0.832 0.426 0.887 0.5 c 0.059 0.074 0.309 0.199 0.559 0.281 c 0.254 0.078 0.461 0.227 0.461 0.332 c 0 0.102 0.227 0.188 0.508 0.188 c 0.316 0 0.508 0.117 0.508 0.305 c 0 0.168 0.176 0.305 0.391 0.305 c 0.73 0 1.066 0.223 0.809 0.535 c -0.125 0.152 -0.348 0.281 -0.492 0.281 c -0.141 0 -0.309 0.137 -0.375 0.305 c -0.063 0.168 -0.246 0.305 -0.41 0.305 c -0.16 0 -0.348 0.113 -0.414 0.254 c -0.094 0.203 -0.141 0.203 -0.234 0 c -0.066 -0.141 -0.336 -0.254 -0.602 -0.254 c -0.305 0 -0.84 -0.367 -1.48 -1.016 c -0.551 -0.563 -1.059 -1.02 -1.125 -1.02 c -0.223 0 -1.547 -1.516 -1.551 -1.777 c -0.004 -0.137 -0.191 -0.367 -0.414 -0.508 c -0.223 -0.137 -0.406 -0.367 -0.406 -0.508 c 0 -0.141 -0.137 -0.258 -0.305 -0.258 c -0.168 0 -0.305 -0.094 -0.305 -0.211 c 0 -0.117 -0.457 -0.688 -1.016 -1.27 c -0.563 -0.586 -1.02 -1.176 -1.02 -1.316 c 0 -0.141 -0.09 -0.254 -0.203 -0.254 c -0.113 0 -0.203 -0.105 -0.203 -0.238 c 0 -0.129 -0.125 -0.383 -0.273 -0.559 c -0.152 -0.176 -0.496 -0.734 -0.766 -1.238 c -0.266 -0.5 -0.602 -0.988 -0.742 -1.078 c -0.137 -0.086 -0.254 -0.285 -0.254 -0.434 c 0 -0.152 -0.137 -0.328 -0.305 -0.391 c -0.168 -0.066 -0.297 -0.191 -0.281 -0.277 c 0.082 -0.496 -0.066 -0.688 -0.48 -0.629 l -0.457 0.066 l -0.055 8.387 c -0.031 5.359 -0.125 8.391 -0.254 8.391 c -0.109 0 -0.199 0.137 -0.199 0.305 c 0 0.328 -0.516 0.422 -0.695 0.129"/><path d="m 23.461 38.12 c 0 -0.047 -0.047 -0.094 -0.102 -0.109 c -0.102 -0.023 -0.102 -0.07 -0.102 -7.313 c 0 -6.445 -0.008 -7.289 -0.078 -7.289 c -0.039 0 -0.074 -0.043 -0.074 -0.102 c 0 -0.055 0.035 -0.102 0.074 -0.102 c 0.059 0 0.078 -0.059 0.078 -0.203 c 0 -0.113 0.023 -0.207 0.051 -0.207 c 0.074 0 0.063 -0.383 -0.012 -0.445 c -0.223 -0.176 -0.629 -0.102 -0.949 0.172 c -0.195 0.168 -0.211 0.199 -0.211 0.434 c 0 0.215 -0.016 0.25 -0.105 0.25 c -0.055 0 -0.102 0.035 -0.102 0.078 c 0 0.039 -0.035 0.074 -0.078 0.074 c -0.043 0 -0.094 0.039 -0.109 0.09 c -0.02 0.051 -0.066 0.121 -0.102 0.156 c -0.035 0.039 -0.066 0.168 -0.066 0.293 c 0 0.203 -0.012 0.227 -0.121 0.227 c -0.086 0 -0.145 0.051 -0.215 0.188 c -0.055 0.102 -0.219 0.313 -0.363 0.473 c -0.148 0.156 -0.27 0.32 -0.27 0.367 c 0 0.047 -0.035 0.098 -0.078 0.113 c -0.039 0.016 -0.074 0.063 -0.074 0.105 c 0 0.043 -0.031 0.078 -0.07 0.078 c -0.109 0 -0.34 0.371 -0.34 0.555 c 0 0.125 -0.02 0.16 -0.098 0.16 c -0.113 0 -0.258 0.18 -0.258 0.32 c 0 0.055 -0.039 0.09 -0.102 0.09 c -0.07 0 -0.102 0.031 -0.102 0.102 c 0 0.059 -0.035 0.102 -0.082 0.102 c -0.09 0 -0.273 0.191 -0.273 0.289 c -0.004 0.031 -0.039 0.07 -0.078 0.086 c -0.043 0.016 -0.078 0.066 -0.078 0.109 c 0 0.043 -0.027 0.078 -0.063 0.078 c -0.082 0 -0.344 0.367 -0.344 0.477 c 0 0.047 -0.031 0.082 -0.066 0.082 c -0.105 0 -0.496 0.473 -0.496 0.598 c 0 0.09 -0.027 0.117 -0.121 0.117 c -0.145 0 -0.285 0.148 -0.285 0.297 c 0 0.066 -0.035 0.113 -0.078 0.113 c -0.043 0 -0.078 0.031 -0.078 0.074 c 0 0.047 -0.047 0.078 -0.117 0.078 c -0.148 0 -0.289 0.145 -0.289 0.297 c 0 0.082 -0.031 0.109 -0.117 0.109 c -0.148 0 -0.445 0.301 -0.445 0.449 c 0 0.082 -0.031 0.113 -0.117 0.113 c -0.063 0 -0.145 0.027 -0.18 0.059 c -0.031 0.035 -0.059 0.117 -0.059 0.18 c 0 0.082 -0.031 0.117 -0.102 0.117 c -0.07 0 -0.102 0.035 -0.102 0.102 c 0 0.074 -0.035 0.102 -0.117 0.102 c -0.066 0 -0.148 0.027 -0.18 0.063 c -0.035 0.035 -0.063 0.113 -0.063 0.18 c 0 0.082 -0.027 0.117 -0.098 0.117 c -0.152 0 -0.258 0.055 -0.258 0.133 c 0 0.039 -0.035 0.07 -0.078 0.07 c -0.043 0 -0.09 0.035 -0.105 0.074 c -0.02 0.043 -0.074 0.09 -0.129 0.105 c -0.051 0.016 -0.098 0.063 -0.098 0.102 c 0 0.035 -0.07 0.082 -0.156 0.102 c -0.086 0.02 -0.168 0.066 -0.184 0.105 c -0.016 0.039 -0.07 0.074 -0.125 0.074 c -0.051 0 -0.094 0.031 -0.094 0.074 c 0 0.043 -0.035 0.078 -0.078 0.078 c -0.043 0 -0.074 0.043 -0.074 0.102 c 0 0.074 -0.035 0.102 -0.121 0.102 c -0.137 0 -0.289 0.145 -0.289 0.273 c 0 0.047 -0.035 0.082 -0.074 0.082 c -0.043 0 -0.078 0.047 -0.078 0.105 c 0 0.078 -0.035 0.102 -0.152 0.102 c -0.086 0 -0.176 0.039 -0.215 0.09 c -0.035 0.051 -0.105 0.109 -0.156 0.129 c -0.047 0.016 -0.09 0.066 -0.09 0.109 c 0 0.055 -0.051 0.078 -0.176 0.078 c -0.125 0 -0.18 0.023 -0.18 0.078 c 0 0.043 -0.047 0.074 -0.102 0.074 c -0.07 0 -0.102 0.035 -0.102 0.102 c 0 0.059 -0.035 0.105 -0.078 0.105 c -0.043 0 -0.078 0.043 -0.078 0.102 c 0 0.082 -0.031 0.102 -0.176 0.102 c -0.145 0 -0.18 -0.02 -0.18 -0.102 c 0 -0.07 0.035 -0.102 0.102 -0.102 c 0.059 0 0.102 -0.035 0.102 -0.078 c 0 -0.043 0.035 -0.078 0.078 -0.078 c 0.043 0 0.074 -0.043 0.074 -0.102 c 0 -0.066 0.035 -0.102 0.105 -0.102 c 0.066 0 0.102 -0.031 0.102 -0.102 c 0 -0.066 0.031 -0.102 0.102 -0.102 c 0.066 0 0.102 -0.035 0.102 -0.102 c 0 -0.059 0.035 -0.102 0.078 -0.102 c 0.039 0 0.074 -0.035 0.074 -0.078 c 0 -0.043 0.035 -0.074 0.082 -0.074 c 0.043 0 0.094 -0.047 0.109 -0.105 c 0.012 -0.055 0.055 -0.102 0.094 -0.102 c 0.039 0 0.082 -0.078 0.102 -0.176 c 0.027 -0.141 0.059 -0.18 0.145 -0.18 c 0.145 0 0.234 -0.094 0.234 -0.238 c 0 -0.086 0.031 -0.117 0.102 -0.117 c 0.07 0 0.102 -0.035 0.102 -0.105 c 0 -0.055 0.035 -0.102 0.078 -0.102 c 0.043 0 0.074 -0.043 0.074 -0.102 c 0 -0.066 0.035 -0.102 0.102 -0.102 c 0.086 0 0.105 -0.035 0.105 -0.18 c 0 -0.145 0.02 -0.176 0.102 -0.176 c 0.066 0 0.102 -0.035 0.102 -0.102 c 0 -0.086 0.035 -0.105 0.18 -0.105 h 0.176 v -0.559 h 0.18 c 0.168 0 0.18 -0.008 0.18 -0.18 c 0 -0.145 0.02 -0.18 0.102 -0.18 c 0.066 0 0.102 -0.031 0.102 -0.102 c 0 -0.066 0.035 -0.102 0.102 -0.102 c 0.066 0 0.102 -0.031 0.102 -0.102 c 0 -0.055 0.035 -0.102 0.078 -0.102 c 0.051 0 0.074 -0.055 0.074 -0.18 c 0 -0.145 0.02 -0.176 0.102 -0.176 c 0.07 0 0.102 -0.035 0.102 -0.102 c 0 -0.086 0.035 -0.105 0.18 -0.105 h 0.18 v -0.555 l 0.191 -0.016 c 0.172 -0.012 0.191 -0.027 0.207 -0.18 c 0.008 -0.105 0.043 -0.168 0.09 -0.168 c 0.039 0 0.07 -0.043 0.07 -0.102 c 0 -0.078 0.035 -0.102 0.152 -0.102 c 0.18 0 0.258 -0.113 0.258 -0.379 c 0 -0.148 0.02 -0.18 0.102 -0.18 c 0.059 0 0.102 -0.035 0.102 -0.078 c 0 -0.043 0.035 -0.078 0.078 -0.078 c 0.043 0 0.074 -0.043 0.074 -0.102 c 0 -0.066 0.035 -0.102 0.102 -0.102 c 0.086 0 0.105 -0.031 0.105 -0.176 c 0 -0.152 0.016 -0.18 0.113 -0.18 c 0.184 0 0.445 -0.336 0.445 -0.57 c 0 -0.191 0.008 -0.195 0.18 -0.195 c 0.168 0 0.18 -0.008 0.18 -0.18 c 0 -0.145 0.02 -0.176 0.102 -0.176 c 0.066 0 0.102 -0.035 0.102 -0.105 c 0 -0.07 0.031 -0.102 0.109 -0.102 c 0.148 0 0.242 -0.141 0.246 -0.367 c 0 -0.156 0.02 -0.191 0.102 -0.191 c 0.07 0 0.102 -0.035 0.102 -0.102 c 0 -0.07 0.035 -0.105 0.105 -0.105 c 0.063 0 0.102 -0.031 0.102 -0.094 c 0 -0.055 0.031 -0.109 0.074 -0.129 c 0.055 -0.02 0.078 -0.102 0.078 -0.285 c 0 -0.223 0.012 -0.254 0.102 -0.254 c 0.055 0 0.102 0.023 0.102 0.055 c 0 0.035 0.047 0 0.102 -0.07 c 0.066 -0.082 0.102 -0.207 0.102 -0.34 c 0 -0.148 0.023 -0.207 0.078 -0.207 c 0.043 0 0.074 -0.031 0.074 -0.074 c 0 -0.047 0.066 -0.078 0.191 -0.09 l 0.191 -0.016 l 0.016 -0.367 c 0.016 -0.348 0.023 -0.371 0.129 -0.371 c 0.148 0 0.238 -0.09 0.238 -0.238 c 0 -0.086 0.031 -0.117 0.102 -0.117 c 0.086 0 0.105 -0.035 0.105 -0.207 c 0 -0.199 0.004 -0.203 0.176 -0.203 h 0.18 v -0.355 c 0 -0.324 0.008 -0.359 0.102 -0.359 c 0.066 0 0.102 -0.031 0.102 -0.102 c 0 -0.055 0.035 -0.102 0.078 -0.102 c 0.039 0 0.074 0.039 0.074 0.082 c 0 0.063 0.027 0.051 0.102 -0.043 c 0.09 -0.113 0.105 -0.207 0.105 -0.645 c 0 -0.48 0.004 -0.516 0.102 -0.516 c 0.066 0 0.102 -0.035 0.102 -0.102 c 0 -0.059 0.023 -0.102 0.051 -0.102 c 0.09 0 0.059 -0.742 -0.039 -0.941 c -0.074 -0.148 -0.117 -0.18 -0.254 -0.18 c -0.133 0 -0.168 -0.023 -0.168 -0.105 c 0 -0.102 -0.031 -0.102 -5.637 -0.102 c -4.973 0 -5.633 -0.008 -5.633 -0.074 c 0 -0.07 0.723 -0.078 6.207 -0.078 c 3.824 0 6.242 -0.02 6.289 -0.051 c 0.066 -0.039 0.078 -0.473 0.09 -3.289 c 0.016 -2.895 0.008 -3.238 -0.063 -3.238 c -0.047 0 -0.078 -0.043 -0.078 -0.102 c 0 -0.059 0.031 -0.102 0.074 -0.102 c 0.043 0 0.078 -0.035 0.078 -0.078 c 0 -0.066 0.125 -0.078 0.84 -0.078 c 0.715 0 0.844 0.012 0.844 0.078 c 0 0.043 0.031 0.078 0.074 0.078 c 0.063 0 0.078 0.074 0.078 0.383 v 0.379 h -0.184 c -0.16 0 -0.188 0.023 -0.266 0.191 c -0.168 0.391 -0.137 5.23 0.039 5.695 l 0.051 0.133 h 4.516 c 4.48 0 4.512 0 4.512 -0.102 c 0 -0.066 0.035 -0.102 0.102 -0.102 c 0.07 0 0.105 -0.035 0.105 -0.102 c 0 -0.09 0.031 -0.102 0.277 -0.102 h 0.281 v -0.18 c 0 -0.125 0.023 -0.18 0.078 -0.18 c 0.043 0 0.074 -0.043 0.074 -0.102 c 0 -0.086 0.035 -0.102 0.207 -0.102 h 0.203 v -0.563 h 0.254 c 0.223 0 0.254 0.016 0.254 0.105 c 0 0.066 0.035 0.102 0.102 0.102 c 0.07 0 0.105 0.031 0.105 0.102 c 0 0.066 0.031 0.102 0.102 0.102 c 0.055 0 0.102 0.035 0.102 0.074 c 0 0.055 0.055 0.078 0.18 0.078 c 0.145 0 0.176 0.02 0.176 0.102 c 0 0.07 0.035 0.102 0.102 0.102 c 0.082 0 0.102 0.035 0.102 0.18 v 0.18 h 0.563 v 0.559 h -6.094 c -6.06 0 -6.098 0 -6.098 0.102 c 0 0.066 -0.031 0.105 -0.094 0.105 c -0.18 0 -0.289 0.188 -0.289 0.508 c 0 0.332 0.113 0.52 0.285 0.473 c 0.066 -0.016 0.098 0 0.098 0.059 c 0 0.043 0.031 0.082 0.07 0.082 c 0.051 0 0.078 0.109 0.102 0.383 c 0.039 0.461 0.094 0.586 0.266 0.586 c 0.078 0 0.125 0.027 0.125 0.074 c 0 0.043 0.047 0.078 0.102 0.078 c 0.082 0 0.102 0.035 0.102 0.184 c 0 0.246 0.082 0.379 0.234 0.379 c 0.117 0 0.125 0.016 0.125 0.258 c 0 0.219 0.016 0.266 0.102 0.285 c 0.055 0.016 0.102 0.07 0.102 0.125 c 0 0.051 0.035 0.094 0.074 0.094 c 0.043 0 0.078 0.047 0.078 0.105 c 0 0.066 0.035 0.102 0.102 0.102 c 0.082 0 0.102 0.031 0.102 0.168 c 0 0.172 0.168 0.391 0.297 0.391 c 0.035 0 0.063 0.047 0.063 0.102 c 0 0.059 0.039 0.145 0.094 0.195 c 0.051 0.055 0.105 0.133 0.125 0.18 c 0.016 0.047 0.066 0.086 0.109 0.086 c 0.043 0 0.078 0.035 0.078 0.078 c 0 0.039 0.035 0.074 0.078 0.074 c 0.043 0 0.074 0.047 0.074 0.102 c 0 0.07 0.035 0.102 0.102 0.102 c 0.082 0 0.105 0.035 0.105 0.16 c 0 0.113 0.027 0.164 0.102 0.184 c 0.055 0.016 0.102 0.07 0.102 0.121 c 0 0.055 0.031 0.098 0.07 0.098 c 0.039 0 0.082 0.074 0.098 0.172 c 0.031 0.207 0.176 0.391 0.301 0.391 c 0.066 0 0.09 0.039 0.094 0.141 c 0 0.156 0.207 0.418 0.328 0.418 c 0.043 0 0.078 0.035 0.078 0.078 c 0 0.043 0.035 0.074 0.074 0.074 c 0.051 0 0.078 0.051 0.078 0.129 c 0 0.078 0.027 0.129 0.078 0.129 c 0.039 0 0.074 0.035 0.074 0.074 c 0 0.043 0.047 0.078 0.102 0.078 c 0.07 0 0.102 0.035 0.102 0.102 c 0 0.066 0.035 0.102 0.105 0.102 c 0.07 0 0.102 0.035 0.102 0.117 c 0 0.148 0.09 0.242 0.238 0.242 c 0.082 0 0.117 0.027 0.117 0.102 c 0 0.066 0.035 0.102 0.102 0.102 c 0.082 0 0.102 0.035 0.102 0.18 c 0 0.145 0.02 0.176 0.102 0.176 c 0.07 0 0.105 0.035 0.105 0.102 c 0 0.059 0.027 0.102 0.063 0.102 c 0.039 0 0.09 0.078 0.117 0.168 c 0.035 0.129 0.078 0.168 0.188 0.18 c 0.102 0.012 0.141 0.047 0.141 0.117 c 0 0.063 0.035 0.098 0.102 0.098 c 0.082 0 0.102 0.035 0.102 0.18 c 0 0.172 0.008 0.176 0.207 0.176 c 0.168 0 0.203 0.02 0.203 0.105 c 0 0.055 0.035 0.102 0.074 0.102 c 0.043 0 0.078 0.043 0.078 0.102 c 0 0.086 0.035 0.102 0.203 0.102 c 0.203 0 0.203 0 0.203 0.199 c 0 0.238 0.137 0.363 0.395 0.363 c 0.129 0 0.168 0.02 0.168 0.094 c 0 0.113 0.156 0.262 0.273 0.262 c 0.051 0 0.086 0.039 0.086 0.102 c 0 0.066 0.031 0.102 0.102 0.102 c 0.055 0 0.102 0.031 0.102 0.066 c 0.004 0.094 0.184 0.293 0.27 0.293 c 0.039 0 0.086 0.043 0.102 0.102 c 0.02 0.074 0.07 0.102 0.184 0.102 c 0.125 0 0.16 0.023 0.16 0.098 c 0 0.156 0.195 0.258 0.496 0.258 c 0.234 0 0.27 0.016 0.27 0.102 c 0 0.07 0.031 0.102 0.102 0.102 c 0.066 0 0.102 0.035 0.102 0.098 c 0 0.141 0.219 0.262 0.48 0.262 c 0.223 0 0.234 0.008 0.234 0.145 c 0 0.164 0.152 0.262 0.41 0.262 c 0.098 0 0.148 0.027 0.148 0.078 c 0 0.055 0.059 0.074 0.207 0.074 c 0.191 0 0.203 0.012 0.191 0.145 c -0.016 0.23 0.039 0.266 0.402 0.266 c 0.293 0 0.352 0.016 0.457 0.129 c 0.066 0.074 0.121 0.172 0.121 0.219 c 0 0.176 0.109 0.215 0.594 0.215 c 0.391 0 0.477 0.012 0.477 0.074 c 0 0.055 0.055 0.078 0.203 0.078 c 0.172 0 0.203 0.016 0.203 0.102 c 0 0.055 0.035 0.102 0.078 0.102 c 0.043 0 0.078 0.035 0.078 0.078 c 0 0.051 -0.055 0.074 -0.172 0.074 c -0.184 0 -0.391 0.172 -0.391 0.324 c 0 0.066 -0.051 0.086 -0.246 0.086 c -0.191 0 -0.27 0.023 -0.359 0.117 c -0.059 0.063 -0.109 0.133 -0.109 0.148 c 0 0.078 -0.27 0.293 -0.363 0.293 c -0.164 0 -0.402 0.148 -0.402 0.25 c 0 0.055 -0.035 0.109 -0.074 0.125 c -0.043 0.02 -0.078 0.066 -0.078 0.109 c 0 0.043 -0.043 0.078 -0.102 0.078 c -0.066 0 -0.102 -0.035 -0.102 -0.102 c 0 -0.066 -0.035 -0.102 -0.098 -0.102 c -0.07 0 -0.105 -0.043 -0.117 -0.141 c -0.02 -0.164 -0.133 -0.207 -0.59 -0.211 c -0.281 -0.008 -0.316 -0.02 -0.316 -0.109 c 0 -0.066 -0.035 -0.102 -0.102 -0.102 c -0.07 0 -0.105 -0.035 -0.105 -0.102 c 0 -0.066 -0.031 -0.102 -0.102 -0.102 c -0.055 0 -0.102 -0.035 -0.102 -0.078 c 0 -0.051 -0.055 -0.074 -0.176 -0.074 c -0.16 0 -0.176 -0.016 -0.191 -0.164 c -0.012 -0.137 -0.043 -0.172 -0.18 -0.211 c -0.109 -0.031 -0.168 -0.082 -0.168 -0.145 c 0 -0.059 -0.035 -0.094 -0.102 -0.094 c -0.055 0 -0.102 -0.035 -0.102 -0.078 c 0 -0.039 -0.043 -0.074 -0.102 -0.074 c -0.066 0 -0.102 -0.035 -0.102 -0.102 c 0 -0.059 -0.035 -0.102 -0.078 -0.102 c -0.043 0 -0.074 -0.047 -0.074 -0.102 c 0 -0.07 -0.035 -0.105 -0.102 -0.105 c -0.059 0 -0.102 -0.031 -0.102 -0.074 c 0 -0.043 -0.047 -0.078 -0.098 -0.078 c -0.055 0 -0.109 -0.043 -0.121 -0.102 c -0.02 -0.074 -0.07 -0.102 -0.188 -0.102 c -0.141 0 -0.156 -0.016 -0.156 -0.156 c 0 -0.117 -0.027 -0.168 -0.102 -0.188 c -0.059 -0.012 -0.102 -0.047 -0.102 -0.078 c 0 -0.027 -0.082 -0.125 -0.18 -0.219 c -0.098 -0.094 -0.18 -0.18 -0.18 -0.195 c 0 -0.055 -0.242 -0.285 -0.297 -0.285 c -0.031 0 -0.059 -0.047 -0.059 -0.102 c 0 -0.07 -0.035 -0.102 -0.102 -0.102 c -0.082 0 -0.102 -0.035 -0.102 -0.18 c 0 -0.145 -0.02 -0.18 -0.102 -0.18 c -0.07 0 -0.105 -0.035 -0.105 -0.102 c 0 -0.055 -0.031 -0.102 -0.074 -0.102 c -0.043 0 -0.078 -0.035 -0.078 -0.078 c 0 -0.043 -0.043 -0.074 -0.102 -0.074 c -0.074 0 -0.102 -0.035 -0.102 -0.125 c 0 -0.148 -0.121 -0.285 -0.254 -0.285 c -0.078 0 -0.102 -0.043 -0.113 -0.242 l -0.016 -0.242 l -0.266 -0.043 c -0.25 -0.039 -0.27 -0.051 -0.27 -0.184 c 0 -0.176 -0.176 -0.41 -0.309 -0.41 c -0.066 0 -0.098 -0.035 -0.098 -0.105 c 0 -0.172 -0.262 -0.457 -0.422 -0.457 c -0.129 0 -0.141 -0.016 -0.141 -0.176 c 0 -0.125 -0.023 -0.18 -0.078 -0.18 c -0.039 0 -0.074 -0.035 -0.074 -0.082 c 0 -0.043 -0.047 -0.094 -0.102 -0.109 c -0.059 -0.012 -0.102 -0.059 -0.102 -0.094 c 0 -0.039 -0.047 -0.074 -0.105 -0.074 c -0.066 0 -0.102 -0.031 -0.102 -0.102 c 0 -0.055 -0.031 -0.102 -0.074 -0.102 c -0.043 0 -0.078 -0.043 -0.078 -0.102 c 0 -0.066 -0.035 -0.102 -0.102 -0.102 c -0.066 0 -0.102 -0.035 -0.102 -0.102 c 0 -0.066 -0.035 -0.102 -0.102 -0.102 c -0.09 0 -0.102 -0.035 -0.102 -0.281 v -0.281 h -0.359 v -0.258 c 0 -0.219 -0.016 -0.266 -0.102 -0.289 c -0.055 -0.012 -0.102 -0.059 -0.102 -0.098 c 0 -0.039 -0.047 -0.07 -0.102 -0.07 c -0.066 0 -0.102 -0.031 -0.102 -0.102 c 0 -0.055 -0.035 -0.102 -0.078 -0.102 c -0.051 0 -0.074 -0.055 -0.074 -0.18 c 0 -0.266 -0.078 -0.379 -0.258 -0.379 c -0.141 0 -0.152 -0.016 -0.152 -0.18 c 0 -0.125 -0.023 -0.18 -0.074 -0.18 c -0.055 0 -0.078 -0.055 -0.078 -0.18 c 0 -0.266 -0.078 -0.379 -0.258 -0.379 c -0.148 0 -0.148 -0.004 -0.148 -0.281 v -0.281 h -0.18 c -0.145 0 -0.18 -0.02 -0.18 -0.102 c 0 -0.066 -0.031 -0.102 -0.098 -0.102 c -0.09 0 -0.102 -0.043 -0.117 -0.344 c -0.012 -0.34 -0.016 -0.348 -0.18 -0.395 c -0.09 -0.027 -0.164 -0.078 -0.164 -0.113 c 0 -0.035 -0.043 -0.066 -0.094 -0.066 c -0.082 0 -0.094 -0.047 -0.098 -0.34 c -0.004 -0.219 -0.031 -0.355 -0.074 -0.387 c -0.074 -0.051 -0.738 -0.023 -0.797 0.035 c -0.035 0.035 -0.098 7.828 -0.105 13.629 l -0.008 3.172 l -0.164 0.016 c -0.164 0.016 -0.168 0.023 -0.184 0.285 l -0.012 0.266 h -0.355 c -0.289 0 -0.355 -0.012 -0.355 -0.082"/><path d="m 23.461 38.13 c 0 -0.039 -0.047 -0.086 -0.102 -0.105 c -0.102 -0.031 -0.102 -0.078 -0.105 -6.57 c 0 -6.637 -0.02 -7.926 -0.102 -8.01 c -0.074 -0.074 -0.055 -0.219 0.027 -0.25 c 0.051 -0.02 0.078 -0.098 0.078 -0.207 c 0 -0.098 0.023 -0.191 0.051 -0.211 c 0.078 -0.047 0.059 -0.313 -0.027 -0.402 c -0.121 -0.121 -0.52 -0.105 -0.738 0.027 c -0.34 0.203 -0.406 0.297 -0.406 0.563 c 0 0.215 -0.016 0.246 -0.102 0.246 c -0.059 0 -0.102 0.035 -0.102 0.078 c 0 0.043 -0.035 0.074 -0.078 0.074 c -0.043 0 -0.094 0.043 -0.113 0.09 c -0.02 0.051 -0.063 0.121 -0.102 0.156 c -0.035 0.039 -0.066 0.172 -0.066 0.293 c 0 0.191 -0.016 0.227 -0.098 0.227 c -0.094 0 -0.309 0.219 -0.309 0.313 c 0 0.023 -0.105 0.152 -0.23 0.285 c -0.125 0.137 -0.266 0.32 -0.309 0.41 c -0.043 0.09 -0.102 0.168 -0.129 0.168 c -0.027 0 -0.047 0.031 -0.047 0.07 c 0 0.043 -0.043 0.086 -0.094 0.105 c -0.117 0.035 -0.316 0.383 -0.316 0.555 c 0 0.086 -0.027 0.137 -0.074 0.137 c -0.098 0 -0.281 0.199 -0.281 0.309 c 0 0.047 -0.047 0.098 -0.102 0.113 c -0.059 0.016 -0.102 0.063 -0.102 0.105 c 0 0.047 -0.031 0.082 -0.07 0.082 c -0.078 0 -0.289 0.211 -0.289 0.293 c 0 0.031 -0.035 0.066 -0.074 0.082 c -0.043 0.02 -0.078 0.051 -0.078 0.074 c 0 0.023 -0.09 0.145 -0.203 0.266 c -0.113 0.121 -0.203 0.262 -0.203 0.316 c 0 0.051 -0.023 0.094 -0.055 0.094 c -0.09 0 -0.465 0.426 -0.492 0.563 c -0.016 0.094 -0.07 0.145 -0.188 0.18 c -0.117 0.035 -0.172 0.09 -0.207 0.215 c -0.027 0.09 -0.078 0.164 -0.117 0.164 c -0.035 0 -0.066 0.035 -0.066 0.078 c 0 0.039 -0.039 0.074 -0.09 0.074 c -0.148 0 -0.316 0.148 -0.316 0.285 c 0 0.09 -0.027 0.125 -0.105 0.125 c -0.141 0 -0.457 0.313 -0.457 0.453 c 0 0.078 -0.031 0.105 -0.117 0.105 c -0.145 0 -0.238 0.09 -0.238 0.234 c 0 0.07 -0.039 0.121 -0.102 0.137 c -0.059 0.016 -0.102 0.066 -0.102 0.109 c 0 0.051 -0.047 0.082 -0.117 0.082 c -0.066 0 -0.145 0.027 -0.18 0.063 c -0.035 0.031 -0.063 0.113 -0.063 0.176 c 0 0.094 -0.027 0.117 -0.125 0.117 c -0.074 0 -0.156 0.047 -0.191 0.102 c -0.035 0.059 -0.086 0.105 -0.117 0.105 c -0.027 0 -0.121 0.074 -0.203 0.164 c -0.086 0.094 -0.23 0.199 -0.32 0.238 c -0.09 0.035 -0.164 0.086 -0.164 0.113 c 0 0.023 -0.027 0.043 -0.063 0.043 c -0.078 0.004 -0.293 0.223 -0.293 0.301 c 0 0.031 -0.043 0.059 -0.094 0.059 c -0.137 0 -0.316 0.145 -0.316 0.258 c 0 0.055 -0.035 0.098 -0.074 0.098 c -0.043 0 -0.078 0.047 -0.078 0.102 c 0 0.078 -0.035 0.102 -0.148 0.102 c -0.09 0 -0.18 0.039 -0.219 0.094 c -0.035 0.051 -0.105 0.109 -0.156 0.125 c -0.047 0.02 -0.09 0.07 -0.09 0.113 c 0 0.055 -0.051 0.078 -0.176 0.078 c -0.125 0 -0.18 0.023 -0.18 0.074 c 0 0.043 -0.035 0.078 -0.082 0.078 c -0.043 0 -0.094 0.047 -0.109 0.102 c -0.012 0.055 -0.059 0.102 -0.094 0.102 c -0.039 0 -0.074 0.047 -0.074 0.102 c 0 0.082 -0.031 0.102 -0.176 0.102 c -0.145 0 -0.18 -0.02 -0.18 -0.102 c 0 -0.055 0.027 -0.102 0.063 -0.102 c 0.078 0 0.293 -0.223 0.293 -0.301 c 0 -0.031 0.039 -0.055 0.082 -0.055 c 0.047 0 0.094 -0.047 0.109 -0.102 c 0.016 -0.059 0.059 -0.105 0.098 -0.105 c 0.039 0 0.086 -0.035 0.105 -0.082 c 0.043 -0.113 0.203 -0.273 0.273 -0.273 c 0.027 0 0.066 -0.039 0.086 -0.086 c 0.016 -0.047 0.074 -0.125 0.125 -0.176 c 0.051 -0.055 0.094 -0.137 0.094 -0.188 c 0 -0.059 0.059 -0.109 0.164 -0.141 c 0.129 -0.035 0.168 -0.078 0.184 -0.188 c 0.008 -0.086 0.047 -0.141 0.094 -0.141 c 0.043 0 0.09 -0.043 0.102 -0.098 c 0.016 -0.055 0.059 -0.113 0.098 -0.125 c 0.039 -0.016 0.07 -0.066 0.07 -0.109 c 0 -0.043 0.047 -0.078 0.105 -0.078 c 0.082 0 0.102 -0.031 0.102 -0.176 c 0 -0.129 0.02 -0.18 0.082 -0.18 c 0.043 0 0.09 -0.047 0.105 -0.102 c 0.02 -0.078 0.07 -0.102 0.199 -0.102 h 0.172 v -0.563 h 0.18 c 0.168 0 0.18 -0.008 0.18 -0.172 c 0 -0.129 0.023 -0.18 0.102 -0.199 c 0.055 -0.016 0.102 -0.059 0.102 -0.102 c 0 -0.043 0.047 -0.086 0.102 -0.102 c 0.055 -0.016 0.102 -0.063 0.102 -0.109 c 0 -0.043 0.035 -0.082 0.078 -0.082 c 0.051 0 0.074 -0.051 0.074 -0.176 c 0 -0.145 0.02 -0.18 0.102 -0.18 c 0.07 0 0.105 -0.035 0.105 -0.102 c 0 -0.082 0.031 -0.102 0.176 -0.102 h 0.18 v -0.563 h 0.172 c 0.176 0 0.234 -0.063 0.234 -0.254 c 0 -0.051 0.035 -0.105 0.078 -0.121 c 0.043 -0.016 0.078 -0.063 0.078 -0.105 c 0 -0.051 0.047 -0.078 0.125 -0.078 c 0.156 0 0.281 -0.176 0.281 -0.395 c 0 -0.133 0.02 -0.168 0.102 -0.168 c 0.059 0 0.102 -0.035 0.102 -0.078 c 0 -0.039 0.035 -0.074 0.078 -0.074 c 0.043 0 0.074 -0.047 0.074 -0.102 c 0 -0.07 0.035 -0.105 0.105 -0.105 c 0.082 0 0.102 -0.031 0.102 -0.172 c 0 -0.148 0.02 -0.176 0.145 -0.199 c 0.184 -0.039 0.414 -0.363 0.414 -0.586 c 0 -0.152 0.012 -0.164 0.18 -0.164 c 0.168 0 0.18 -0.008 0.18 -0.172 c 0 -0.129 0.023 -0.18 0.102 -0.199 c 0.055 -0.016 0.102 -0.063 0.102 -0.109 c 0 -0.047 0.043 -0.078 0.098 -0.078 c 0.137 0 0.258 -0.191 0.258 -0.395 c 0 -0.121 0.023 -0.168 0.082 -0.168 c 0.047 0 0.094 -0.047 0.109 -0.102 c 0.016 -0.059 0.07 -0.102 0.121 -0.102 c 0.055 0 0.098 -0.035 0.098 -0.082 c 0 -0.043 0.035 -0.113 0.078 -0.156 c 0.043 -0.047 0.074 -0.168 0.074 -0.309 c 0 -0.219 0.008 -0.23 0.129 -0.207 c 0.168 0.031 0.281 -0.121 0.281 -0.379 c 0 -0.141 0.02 -0.195 0.074 -0.195 c 0.043 0 0.078 -0.031 0.078 -0.07 c 0 -0.039 0.074 -0.086 0.172 -0.102 c 0.195 -0.039 0.234 -0.121 0.234 -0.504 c 0 -0.219 0.012 -0.242 0.117 -0.242 c 0.148 0 0.242 -0.09 0.242 -0.234 c 0 -0.066 0.039 -0.121 0.102 -0.137 c 0.078 -0.02 0.102 -0.07 0.102 -0.211 c 0 -0.176 0.008 -0.184 0.176 -0.184 h 0.18 v -0.355 c 0 -0.293 0.016 -0.359 0.082 -0.359 c 0.043 0 0.094 -0.043 0.109 -0.102 c 0.027 -0.109 0.164 -0.141 0.168 -0.035 c 0 0.035 0.047 0.008 0.102 -0.059 c 0.086 -0.102 0.102 -0.199 0.102 -0.617 c 0 -0.457 0.008 -0.504 0.102 -0.527 c 0.055 -0.016 0.102 -0.063 0.102 -0.105 c 0 -0.047 0.023 -0.082 0.051 -0.082 c 0.055 0 0.07 -0.508 0.02 -0.758 c -0.039 -0.203 -0.195 -0.367 -0.352 -0.367 c -0.074 0 -0.125 -0.027 -0.125 -0.07 c 0 -0.039 -0.039 -0.086 -0.082 -0.102 c -0.043 -0.016 -2.582 -0.031 -5.637 -0.031 c -4.902 0 -5.555 -0.008 -5.555 -0.074 c 0 -0.07 0.707 -0.078 6.05 -0.078 c 3.332 0 6.145 -0.016 6.246 -0.031 c 0.105 -0.02 0.207 -0.07 0.227 -0.117 c 0.02 -0.043 0.047 -1.5 0.059 -3.23 c 0.02 -2.852 0.016 -3.152 -0.059 -3.18 c -0.113 -0.043 -0.102 -0.152 0.02 -0.277 c 0.094 -0.094 0.172 -0.102 0.918 -0.102 c 0.691 0 0.816 0.012 0.816 0.078 c 0 0.039 0.035 0.074 0.078 0.074 c 0.059 0 0.074 0.078 0.074 0.383 v 0.383 h -0.145 c -0.25 0 -0.32 0.141 -0.367 0.723 c -0.102 1.207 -0.027 4.758 0.105 5.129 l 0.059 0.168 h 4.352 c 2.391 0 4.422 -0.016 4.508 -0.031 c 0.09 -0.02 0.16 -0.063 0.16 -0.102 c 0 -0.039 0.047 -0.07 0.102 -0.07 c 0.07 0 0.102 -0.035 0.102 -0.102 c 0 -0.09 0.035 -0.105 0.281 -0.105 h 0.281 v -0.172 c 0 -0.105 0.027 -0.184 0.078 -0.203 c 0.039 -0.016 0.074 -0.063 0.074 -0.105 c 0 -0.059 0.055 -0.078 0.203 -0.078 h 0.207 v -0.563 h 0.254 c 0.219 0 0.254 0.016 0.254 0.102 c 0 0.07 0.035 0.102 0.102 0.102 c 0.059 0 0.102 0.035 0.102 0.082 c 0 0.047 0.047 0.094 0.102 0.109 c 0.059 0.016 0.105 0.059 0.105 0.098 c 0 0.047 0.059 0.07 0.176 0.07 c 0.129 0 0.18 0.023 0.18 0.082 c 0 0.043 0.047 0.094 0.102 0.105 c 0.078 0.02 0.102 0.07 0.102 0.199 v 0.172 h 0.563 v 0.563 h -5.938 c -3.262 0 -6.01 0.016 -6.094 0.031 c -0.09 0.02 -0.16 0.063 -0.16 0.102 c 0 0.039 -0.043 0.07 -0.098 0.07 c -0.156 0 -0.258 0.199 -0.258 0.5 c 0 0.336 0.066 0.469 0.23 0.469 c 0.078 0 0.125 0.031 0.125 0.078 c 0 0.043 0.031 0.078 0.07 0.078 c 0.047 0 0.078 0.109 0.102 0.367 c 0.039 0.402 0.133 0.602 0.289 0.602 c 0.055 0 0.102 0.031 0.102 0.074 c 0 0.043 0.043 0.078 0.102 0.078 c 0.082 0 0.102 0.035 0.102 0.191 c 0.004 0.227 0.098 0.367 0.246 0.367 c 0.094 0 0.109 0.031 0.109 0.203 c 0 0.246 0.043 0.359 0.133 0.359 c 0.039 0 0.074 0.047 0.074 0.102 c 0 0.059 0.031 0.102 0.07 0.102 c 0.035 0 0.082 0.047 0.094 0.102 c 0.016 0.059 0.066 0.105 0.109 0.105 c 0.055 0 0.082 0.043 0.082 0.145 c 0 0.16 0.172 0.414 0.281 0.414 c 0.035 0 0.082 0.07 0.102 0.156 c 0.02 0.086 0.066 0.168 0.102 0.184 c 0.035 0.012 0.078 0.07 0.094 0.125 c 0.012 0.051 0.063 0.098 0.105 0.098 c 0.043 0 0.082 0.035 0.082 0.074 c 0 0.043 0.035 0.078 0.074 0.078 c 0.043 0 0.078 0.047 0.078 0.102 c 0 0.066 0.035 0.102 0.102 0.102 c 0.082 0 0.102 0.035 0.102 0.16 c 0 0.113 0.027 0.164 0.102 0.184 c 0.059 0.016 0.102 0.059 0.102 0.098 c 0 0.039 0.035 0.086 0.078 0.102 c 0.043 0.016 0.078 0.082 0.078 0.148 c 0 0.137 0.227 0.43 0.336 0.43 c 0.039 0 0.07 0.055 0.07 0.125 c 0 0.125 0.223 0.438 0.313 0.438 c 0.066 0 0.25 0.195 0.25 0.27 c 0 0.078 0.223 0.293 0.301 0.293 c 0.031 0 0.055 0.035 0.055 0.078 c 0 0.047 0.043 0.094 0.098 0.109 c 0.055 0.016 0.109 0.086 0.125 0.172 c 0.023 0.117 0.066 0.16 0.184 0.184 c 0.105 0.02 0.156 0.059 0.156 0.125 c 0 0.063 0.035 0.094 0.102 0.094 c 0.078 0 0.102 0.035 0.102 0.16 c 0 0.113 0.027 0.164 0.102 0.184 c 0.055 0.016 0.102 0.059 0.102 0.094 c 0 0.039 0.031 0.09 0.066 0.109 c 0.031 0.023 0.098 0.109 0.141 0.195 c 0.043 0.086 0.125 0.16 0.191 0.168 c 0.063 0.012 0.113 0.051 0.113 0.094 c 0 0.043 0.043 0.09 0.098 0.105 c 0.066 0.016 0.105 0.078 0.117 0.188 c 0.012 0.145 0.031 0.16 0.203 0.176 c 0.129 0.008 0.191 0.039 0.191 0.09 c 0 0.043 0.035 0.086 0.074 0.102 c 0.039 0.016 0.082 0.074 0.098 0.125 c 0.02 0.074 0.07 0.102 0.203 0.102 c 0.168 0 0.176 0.008 0.211 0.227 c 0.039 0.254 0.129 0.332 0.383 0.332 c 0.098 0 0.156 0.027 0.156 0.07 c 0 0.102 0.176 0.289 0.273 0.289 c 0.047 0 0.082 0.039 0.082 0.102 c 0 0.066 0.035 0.102 0.102 0.102 c 0.059 0 0.102 0.031 0.102 0.066 c 0 0.082 0.215 0.289 0.297 0.289 c 0.035 0 0.063 0.035 0.063 0.074 c 0 0.074 0.105 0.133 0.258 0.133 c 0.063 0 0.098 0.035 0.098 0.094 c 0 0.148 0.219 0.262 0.508 0.262 c 0.223 0 0.258 0.012 0.258 0.102 c 0 0.066 0.035 0.102 0.102 0.102 c 0.063 0 0.102 0.035 0.102 0.09 c 0 0.133 0.262 0.27 0.508 0.27 c 0.188 0 0.207 0.012 0.207 0.121 c 0 0.156 0.176 0.285 0.387 0.285 c 0.098 0 0.176 0.031 0.191 0.078 c 0.02 0.047 0.098 0.074 0.211 0.074 c 0.172 0 0.18 0.012 0.18 0.176 c 0 0.203 0.055 0.234 0.438 0.234 c 0.316 0 0.449 0.086 0.535 0.336 c 0.063 0.195 0.145 0.223 0.672 0.223 c 0.316 0 0.395 0.016 0.395 0.078 c 0 0.055 0.059 0.078 0.207 0.078 c 0.168 0 0.203 0.016 0.203 0.102 c 0 0.055 0.031 0.102 0.074 0.102 c 0.043 0 0.078 0.035 0.078 0.074 c 0 0.051 -0.051 0.078 -0.145 0.078 c -0.18 0 -0.418 0.176 -0.418 0.309 c 0 0.086 -0.035 0.098 -0.246 0.098 c -0.191 0 -0.27 0.027 -0.355 0.121 c -0.063 0.063 -0.109 0.133 -0.109 0.148 c 0 0.078 -0.27 0.293 -0.367 0.293 c -0.152 0 -0.398 0.16 -0.398 0.262 c 0 0.047 -0.035 0.098 -0.078 0.113 c -0.043 0.016 -0.074 0.066 -0.074 0.109 c 0 0.043 -0.047 0.078 -0.105 0.078 c -0.066 0 -0.102 -0.035 -0.102 -0.102 c 0 -0.07 -0.031 -0.105 -0.102 -0.105 c -0.066 0 -0.102 -0.031 -0.102 -0.094 c 0 -0.16 -0.137 -0.227 -0.539 -0.25 c -0.328 -0.023 -0.379 -0.039 -0.379 -0.121 c 0 -0.059 -0.035 -0.094 -0.098 -0.094 c -0.051 0 -0.105 -0.047 -0.121 -0.102 c -0.016 -0.059 -0.063 -0.102 -0.102 -0.102 c -0.043 0 -0.09 -0.035 -0.105 -0.078 c -0.016 -0.043 -0.094 -0.078 -0.18 -0.078 c -0.125 0 -0.152 -0.023 -0.18 -0.156 c -0.02 -0.113 -0.07 -0.172 -0.184 -0.215 c -0.09 -0.035 -0.152 -0.094 -0.152 -0.148 c 0 -0.059 -0.039 -0.09 -0.102 -0.09 c -0.059 0 -0.102 -0.035 -0.102 -0.078 c 0 -0.043 -0.047 -0.074 -0.105 -0.074 c -0.066 0 -0.102 -0.035 -0.102 -0.105 c 0 -0.055 -0.031 -0.102 -0.07 -0.102 c -0.039 0 -0.082 -0.043 -0.098 -0.102 c -0.012 -0.055 -0.063 -0.102 -0.105 -0.102 c -0.047 0 -0.082 -0.035 -0.082 -0.074 c 0 -0.043 -0.043 -0.078 -0.098 -0.078 c -0.051 0 -0.105 -0.047 -0.121 -0.102 c -0.02 -0.074 -0.07 -0.102 -0.184 -0.102 c -0.129 0 -0.16 -0.023 -0.16 -0.109 c 0 -0.059 -0.078 -0.191 -0.172 -0.293 c -0.098 -0.102 -0.305 -0.32 -0.461 -0.488 c -0.156 -0.164 -0.285 -0.332 -0.285 -0.371 c 0 -0.035 -0.047 -0.066 -0.102 -0.066 c -0.078 0 -0.102 -0.031 -0.102 -0.156 c 0 -0.117 -0.027 -0.164 -0.102 -0.184 c -0.055 -0.016 -0.102 -0.055 -0.102 -0.086 c -0.004 -0.07 -0.227 -0.289 -0.297 -0.289 c -0.027 0 -0.063 -0.07 -0.078 -0.156 c -0.023 -0.113 -0.074 -0.172 -0.188 -0.215 c -0.105 -0.039 -0.152 -0.094 -0.152 -0.172 c 0 -0.258 -0.082 -0.359 -0.328 -0.395 c -0.207 -0.031 -0.234 -0.051 -0.234 -0.164 c 0 -0.172 -0.184 -0.426 -0.309 -0.426 c -0.066 0 -0.098 -0.035 -0.098 -0.109 c 0 -0.137 -0.316 -0.453 -0.453 -0.453 c -0.09 0 -0.109 -0.031 -0.109 -0.18 c 0 -0.125 -0.023 -0.176 -0.074 -0.176 c -0.043 0 -0.078 -0.035 -0.078 -0.074 c 0 -0.039 -0.047 -0.086 -0.102 -0.105 c -0.055 -0.02 -0.102 -0.066 -0.102 -0.105 c 0 -0.039 -0.047 -0.074 -0.102 -0.074 c -0.07 0 -0.102 -0.031 -0.102 -0.102 c 0 -0.055 -0.035 -0.102 -0.078 -0.102 c -0.043 0 -0.078 -0.047 -0.078 -0.102 c 0 -0.07 -0.031 -0.102 -0.102 -0.102 c -0.066 0 -0.102 -0.035 -0.102 -0.102 c 0 -0.07 -0.031 -0.102 -0.102 -0.102 c -0.09 0 -0.102 -0.035 -0.102 -0.281 v -0.281 h -0.18 c -0.172 0 -0.176 -0.004 -0.176 -0.199 c 0 -0.25 -0.043 -0.363 -0.133 -0.363 c -0.039 0 -0.074 -0.031 -0.074 -0.074 c 0 -0.043 -0.043 -0.078 -0.102 -0.078 c -0.066 0 -0.102 -0.035 -0.102 -0.102 c 0 -0.055 -0.035 -0.102 -0.074 -0.102 c -0.055 0 -0.078 -0.055 -0.078 -0.184 c 0 -0.262 -0.078 -0.379 -0.258 -0.379 c -0.137 0 -0.148 -0.012 -0.148 -0.176 c 0 -0.125 -0.023 -0.18 -0.078 -0.18 c -0.055 0 -0.078 -0.055 -0.078 -0.195 c 0 -0.219 -0.117 -0.367 -0.297 -0.367 c -0.098 0 -0.109 -0.023 -0.109 -0.277 v -0.281 h -0.18 c -0.145 0 -0.18 -0.02 -0.18 -0.102 c 0 -0.066 -0.031 -0.102 -0.098 -0.102 c -0.086 0 -0.102 -0.043 -0.113 -0.32 c -0.016 -0.293 -0.027 -0.32 -0.168 -0.395 c -0.086 -0.043 -0.172 -0.105 -0.195 -0.141 c -0.023 -0.035 -0.074 -0.063 -0.113 -0.063 c -0.059 0 -0.074 -0.078 -0.074 -0.332 c 0 -0.285 -0.016 -0.336 -0.113 -0.387 c -0.125 -0.066 -0.637 -0.031 -0.719 0.047 c -0.051 0.051 -0.129 8.246 -0.137 14.07 l -0.004 2.715 h -0.145 c -0.168 0 -0.211 0.074 -0.211 0.363 v 0.199 h -0.355 c -0.277 0 -0.359 -0.016 -0.359 -0.074"/><path d="m 10.707 17.281 h 26.766 c 0.129 0 0.23 0.332 0.23 0.746 c 0 0.41 -0.102 0.746 -0.23 0.746 h -26.766 c -0.129 0 -0.23 -0.336 -0.23 -0.746 c 0 -0.414 0.102 -0.746 0.23 -0.746"/></g></svg>