<svg xmlns="http://www.w3.org/2000/svg" viewBox="0 0 48 48"><path d="m 42.42 39.672 c 11.676 -17.957 2.254 -34.31 -10.965 -38.19 c -17.781 -5.223 -41.922 8.496 -26.02 36.77 c 6.324 11.234 28.66 14.207 36.977 1.422" fill="#d44a4a"/><path d="m 24.1 11.895 c -3.684 0.004 -7.18 1.641 -9.574 4.484 l 3.883 6.828 c 0.047 -0.184 0.105 -0.367 0.168 -0.547 c 0.066 -0.184 0.141 -0.363 0.223 -0.543 c 0.004 -0.004 0.004 -0.008 0.008 -0.012 c 0.074 -0.16 0.156 -0.316 0.246 -0.469 c 0.016 -0.023 0.027 -0.047 0.039 -0.07 c 0.086 -0.137 0.176 -0.273 0.27 -0.402 c 0.023 -0.031 0.047 -0.063 0.07 -0.094 c 0.094 -0.129 0.195 -0.25 0.301 -0.367 c 0.023 -0.031 0.051 -0.059 0.074 -0.09 c 0.102 -0.105 0.207 -0.211 0.313 -0.309 c 0.043 -0.039 0.082 -0.078 0.125 -0.117 c 0.09 -0.082 0.188 -0.156 0.281 -0.23 c 0.063 -0.051 0.129 -0.102 0.191 -0.148 c 0.086 -0.059 0.168 -0.113 0.254 -0.168 c 0.063 -0.043 0.125 -0.082 0.191 -0.125 c 0.027 -0.016 0.055 -0.031 0.086 -0.047 c 0.031 -0.016 0.063 -0.031 0.094 -0.051 c 0.109 -0.059 0.219 -0.113 0.332 -0.164 c 0.09 -0.039 0.184 -0.082 0.277 -0.117 c 0.082 -0.035 0.168 -0.066 0.254 -0.094 c 0.102 -0.035 0.203 -0.066 0.305 -0.098 c 0.086 -0.023 0.172 -0.047 0.258 -0.066 c 0.105 -0.023 0.211 -0.047 0.316 -0.066 c 0.09 -0.016 0.18 -0.027 0.27 -0.039 c 0.098 -0.016 0.199 -0.023 0.301 -0.031 c 0.098 -0.008 0.195 -0.016 0.293 -0.016 c 0.051 -0.004 0.102 -0.008 0.152 -0.008 h 11.137 c -2.18 -4.195 -6.465 -6.82 -11.137 -6.824 m -10.656 5.996 c -1.266 2.035 -1.938 4.391 -1.945 6.793 c 0 7.07 5.645 12.793 12.602 12.793 c 1.434 -0.004 2.852 -0.258 4.199 -0.742 v -7.871 c -0.043 0.043 -0.086 0.086 -0.133 0.125 c -0.074 0.074 -0.148 0.148 -0.227 0.219 c -0.078 0.066 -0.156 0.133 -0.238 0.191 c -0.07 0.059 -0.145 0.113 -0.219 0.168 c -0.082 0.059 -0.168 0.113 -0.254 0.168 c -0.063 0.039 -0.125 0.078 -0.188 0.117 c -0.031 0.016 -0.059 0.031 -0.09 0.047 c -0.027 0.02 -0.059 0.035 -0.09 0.051 c -0.109 0.059 -0.223 0.113 -0.332 0.164 c -0.094 0.043 -0.184 0.082 -0.277 0.121 c -0.086 0.031 -0.172 0.063 -0.258 0.094 c -0.102 0.035 -0.199 0.066 -0.305 0.094 c -0.082 0.027 -0.168 0.047 -0.258 0.066 c -0.102 0.027 -0.207 0.051 -0.316 0.066 c -0.086 0.016 -0.176 0.031 -0.266 0.043 c -0.102 0.012 -0.203 0.023 -0.301 0.031 c -0.098 0.008 -0.195 0.012 -0.293 0.016 c -0.055 0.004 -0.105 0.008 -0.156 0.008 c -0.063 0 -0.129 -0.004 -0.191 -0.004 c -0.047 -0.004 -0.094 -0.004 -0.137 -0.008 c -0.109 -0.008 -0.219 -0.016 -0.328 -0.031 c -0.09 -0.008 -0.18 -0.02 -0.27 -0.035 c -0.098 -0.016 -0.195 -0.035 -0.293 -0.059 c -0.098 -0.02 -0.195 -0.039 -0.293 -0.066 c -0.086 -0.023 -0.172 -0.051 -0.254 -0.078 c -0.105 -0.031 -0.207 -0.066 -0.309 -0.105 c -0.078 -0.031 -0.156 -0.063 -0.23 -0.098 c -0.105 -0.043 -0.207 -0.09 -0.305 -0.137 c -0.078 -0.039 -0.152 -0.082 -0.227 -0.129 c -0.098 -0.051 -0.195 -0.105 -0.289 -0.164 c -0.074 -0.051 -0.145 -0.102 -0.219 -0.152 c -0.086 -0.063 -0.172 -0.121 -0.258 -0.188 c -0.074 -0.059 -0.145 -0.121 -0.215 -0.188 c -0.078 -0.063 -0.156 -0.133 -0.23 -0.203 c -0.066 -0.066 -0.133 -0.133 -0.195 -0.199 c -0.074 -0.074 -0.141 -0.152 -0.207 -0.227 c -0.066 -0.078 -0.129 -0.16 -0.191 -0.238 c -0.055 -0.074 -0.113 -0.148 -0.164 -0.223 c -0.059 -0.086 -0.113 -0.172 -0.168 -0.258 c -0.039 -0.066 -0.082 -0.129 -0.117 -0.195 m 9.203 -7.246 c 0.043 0.047 0.082 0.09 0.125 0.137 c 0.074 0.074 0.145 0.152 0.215 0.23 c 0.063 0.078 0.129 0.16 0.188 0.242 c 0.059 0.07 0.113 0.145 0.164 0.219 c 0.059 0.086 0.113 0.172 0.168 0.258 c 0.039 0.066 0.078 0.129 0.117 0.195 c 0.016 0.027 0.031 0.059 0.047 0.086 c 0.02 0.031 0.035 0.063 0.051 0.094 c 0.059 0.113 0.109 0.223 0.16 0.34 c 0.043 0.09 0.082 0.184 0.117 0.281 c 0.035 0.086 0.066 0.172 0.094 0.258 c 0.035 0.102 0.066 0.207 0.094 0.309 c 0.027 0.086 0.047 0.176 0.066 0.262 c 0.027 0.105 0.047 0.215 0.066 0.32 c 0.016 0.094 0.027 0.184 0.039 0.273 c 0.008 0.055 0.016 0.109 0.023 0.164 c 0.004 0.047 0.008 0.094 0.008 0.141 c 0.008 0.102 0.012 0.199 0.016 0.301 c 0.004 0.051 0.008 0.102 0.012 0.152 v 11.305 c 4.129 -2.211 6.715 -6.563 6.719 -11.305 c -0.004 -1.449 -0.25 -2.895 -0.73 -4.262 m -13.988 0.852 c -0.055 -0.008 -0.094 -0.004 -0.117 0.016 c -0.379 0.27 -0.379 6.516 0 6.789 c 0.383 0.273 4.754 -2.852 4.754 -3.395 c 0 -0.508 -3.844 -3.281 -4.637 -3.41" fill-opacity="0.2"/><path d="m 24.1 11.04 c -3.684 0.004 -7.18 1.641 -9.574 4.484 l 3.883 6.828 c 0.047 -0.184 0.105 -0.367 0.168 -0.547 c 0.066 -0.184 0.141 -0.367 0.223 -0.543 c 0.004 -0.004 0.004 -0.008 0.008 -0.012 c 0.074 -0.16 0.156 -0.316 0.246 -0.473 c 0.016 -0.02 0.027 -0.043 0.039 -0.066 c 0.086 -0.137 0.176 -0.273 0.27 -0.402 c 0.023 -0.031 0.047 -0.063 0.07 -0.098 c 0.094 -0.125 0.195 -0.246 0.301 -0.363 c 0.023 -0.031 0.051 -0.063 0.074 -0.09 c 0.102 -0.109 0.207 -0.211 0.313 -0.313 c 0.043 -0.039 0.082 -0.078 0.125 -0.113 c 0.09 -0.082 0.188 -0.16 0.281 -0.234 c 0.063 -0.047 0.129 -0.098 0.191 -0.145 c 0.086 -0.059 0.168 -0.113 0.254 -0.168 c 0.063 -0.043 0.125 -0.086 0.191 -0.125 c 0.027 -0.016 0.055 -0.031 0.086 -0.047 c 0.031 -0.016 0.063 -0.035 0.094 -0.051 c 0.109 -0.059 0.219 -0.113 0.332 -0.164 c 0.09 -0.043 0.184 -0.082 0.277 -0.117 c 0.082 -0.035 0.168 -0.066 0.254 -0.098 c 0.102 -0.031 0.203 -0.066 0.305 -0.094 c 0.086 -0.023 0.172 -0.047 0.258 -0.066 c 0.105 -0.027 0.211 -0.047 0.316 -0.066 c 0.09 -0.016 0.18 -0.031 0.27 -0.043 c 0.098 -0.012 0.199 -0.023 0.301 -0.031 c 0.098 -0.008 0.195 -0.012 0.293 -0.016 c 0.051 0 0.102 -0.004 0.152 -0.008 h 11.137 c -2.18 -4.191 -6.465 -6.816 -11.137 -6.82 m -10.656 5.996 c -1.266 2.031 -1.938 4.387 -1.945 6.793 c 0 7.06 5.645 12.789 12.602 12.789 c 1.434 -0.004 2.852 -0.254 4.199 -0.742 v -7.867 c -0.043 0.043 -0.086 0.086 -0.133 0.125 c -0.074 0.074 -0.148 0.148 -0.227 0.219 c -0.078 0.066 -0.156 0.129 -0.238 0.191 c -0.07 0.059 -0.145 0.113 -0.219 0.168 c -0.082 0.059 -0.168 0.113 -0.254 0.168 c -0.063 0.039 -0.125 0.078 -0.188 0.117 c -0.031 0.016 -0.059 0.031 -0.09 0.047 c -0.027 0.016 -0.059 0.035 -0.09 0.051 c -0.109 0.059 -0.223 0.113 -0.332 0.164 c -0.094 0.043 -0.184 0.082 -0.277 0.117 c -0.086 0.035 -0.172 0.066 -0.258 0.094 c -0.102 0.035 -0.199 0.07 -0.305 0.098 c -0.082 0.023 -0.168 0.047 -0.258 0.066 c -0.102 0.027 -0.207 0.047 -0.316 0.066 c -0.086 0.016 -0.176 0.031 -0.266 0.039 c -0.102 0.016 -0.203 0.023 -0.301 0.035 c -0.098 0.004 -0.195 0.012 -0.293 0.012 c -0.055 0.004 -0.105 0.008 -0.156 0.012 c -0.063 0 -0.129 -0.004 -0.191 -0.008 c -0.047 0 -0.094 0 -0.137 -0.004 c -0.109 -0.008 -0.219 -0.02 -0.328 -0.031 c -0.09 -0.008 -0.18 -0.02 -0.27 -0.035 c -0.098 -0.016 -0.195 -0.039 -0.293 -0.059 c -0.098 -0.02 -0.195 -0.043 -0.293 -0.066 c -0.086 -0.023 -0.172 -0.051 -0.254 -0.078 c -0.105 -0.031 -0.207 -0.066 -0.309 -0.105 c -0.078 -0.031 -0.156 -0.063 -0.23 -0.098 c -0.105 -0.043 -0.207 -0.09 -0.305 -0.137 c -0.078 -0.043 -0.152 -0.086 -0.227 -0.129 c -0.098 -0.051 -0.195 -0.109 -0.289 -0.164 c -0.074 -0.051 -0.145 -0.102 -0.219 -0.156 c -0.086 -0.059 -0.172 -0.121 -0.258 -0.184 c -0.074 -0.059 -0.145 -0.121 -0.215 -0.188 c -0.078 -0.066 -0.156 -0.133 -0.23 -0.203 c -0.066 -0.066 -0.133 -0.133 -0.195 -0.203 c -0.074 -0.074 -0.141 -0.148 -0.207 -0.227 c -0.066 -0.078 -0.129 -0.156 -0.191 -0.234 c -0.055 -0.074 -0.113 -0.148 -0.164 -0.223 c -0.059 -0.086 -0.113 -0.172 -0.168 -0.262 c -0.039 -0.063 -0.082 -0.125 -0.117 -0.191 m 9.203 -7.246 c 0.043 0.043 0.082 0.09 0.125 0.137 c 0.074 0.074 0.145 0.152 0.215 0.23 c 0.063 0.078 0.129 0.16 0.188 0.242 c 0.059 0.07 0.113 0.145 0.164 0.219 c 0.059 0.086 0.113 0.172 0.168 0.258 c 0.039 0.063 0.078 0.129 0.117 0.191 c 0.016 0.031 0.031 0.059 0.047 0.09 c 0.02 0.031 0.035 0.063 0.051 0.094 c 0.059 0.109 0.109 0.223 0.16 0.336 c 0.043 0.094 0.082 0.188 0.117 0.281 c 0.035 0.086 0.066 0.176 0.094 0.262 c 0.035 0.102 0.066 0.203 0.094 0.309 c 0.027 0.086 0.047 0.172 0.066 0.262 c 0.027 0.105 0.047 0.211 0.066 0.32 c 0.016 0.09 0.027 0.184 0.039 0.273 c 0.008 0.055 0.016 0.109 0.023 0.164 c 0.004 0.047 0.008 0.094 0.008 0.141 c 0.008 0.098 0.012 0.199 0.016 0.297 c 0.004 0.055 0.008 0.105 0.012 0.156 v 11.305 c 4.129 -2.215 6.715 -6.563 6.719 -11.305 c -0.004 -1.453 -0.25 -2.895 -0.73 -4.262 m -13.988 0.852 c -0.055 -0.008 -0.094 -0.004 -0.117 0.016 c -0.379 0.27 -0.379 6.516 0 6.785 c 0.383 0.277 4.754 -2.848 4.754 -3.391 c 0 -0.508 -3.844 -3.281 -4.637 -3.41" fill="#fff"/></svg>