<svg xmlns="http://www.w3.org/2000/svg" viewBox="0 0 48 48"><path d="m 0.555 29.496 c 2.977 19.352 29.414 24.531 41.08 10.715 c 10.277 -10.262 7.719 -29.906 -4.883 -36.641 c -14.477 -9.01 -35.566 2.129 -36.719 20.07 c -0.117 1.965 0.047 3.953 0.52 5.859" fill="#f4f4f4"/><path d="m 34.33 39.613 c -0.184 -0.18 -0.305 -1.051 -0.305 -2.188 c 0 -1.77 -0.23 -2.969 -1.18 -6.16 c -0.328 -1.113 -0.477 -1.305 -1.01 -1.305 h -0.617 v 4.301 c 0 3.02 -0.09 4.395 -0.305 4.605 c -0.168 0.164 -0.965 0.297 -1.766 0.297 c -2.25 0 -2.262 -0.027 -2.262 -4.992 c 0 -4.047 -0.02 -4.211 -0.508 -4.211 c -0.484 0 -0.512 0.164 -0.512 3.301 c 0 2.711 -0.082 3.453 -0.465 4.164 c -0.555 1.035 -2.293 1.992 -3.602 1.98 c -1.172 -0.004 -2.844 -0.754 -3.496 -1.566 l -0.52 -0.641 l -0.328 0.598 c -0.551 1.01 -1.723 1.367 -4.449 1.367 c -1.355 0 -2.684 -0.113 -2.957 -0.258 c -0.465 -0.242 -0.492 -0.578 -0.492 -6.168 c 0 -4.266 0.086 -5.996 0.309 -6.211 c 0.383 -0.375 4.285 -0.398 5.633 -0.031 c 0.535 0.145 1.188 0.477 1.453 0.734 c 0.477 0.465 0.492 0.461 0.82 -0.203 c 0.316 -0.641 0.434 -0.676 2.238 -0.707 c 1.047 -0.016 2.047 -0.047 2.223 -0.063 c 0.215 -0.02 0.32 -0.508 0.32 -1.523 v -1.492 h -1.352 c -0.742 0 -1.484 -0.129 -1.648 -0.293 c -0.23 -0.223 -0.41 -0.195 -0.762 0.117 c -1.387 1.223 -3.664 1.48 -5.406 0.613 c -2.082 -1.039 -2.172 -1.316 -2.172 -6.531 c 0 -4.223 0.039 -4.617 0.523 -5.25 c 0.816 -1.066 1.668 -1.574 2.918 -1.738 c 2.547 -0.336 4.629 0.871 5.191 3.01 l 0.328 1.246 l 0.191 -1.492 c 0.305 -2.418 0.535 -2.613 3.066 -2.613 c 1.539 0 2.246 0.102 2.516 0.363 c 0.32 0.313 0.852 2.492 0.977 4.01 c 0.02 0.262 0.109 -0.434 0.199 -1.547 c 0.086 -1.113 0.313 -2.203 0.5 -2.426 c 0.242 -0.285 0.77 -0.402 1.824 -0.402 c 2.203 0 2.277 0.172 2.277 5.156 c 0 3.883 0.023 4.051 0.512 4.051 c 0.488 0 0.508 -0.168 0.508 -4.215 c 0 -3.496 0.07 -4.277 0.402 -4.602 c 0.508 -0.496 3.227 -0.543 3.637 -0.063 c 0.172 0.203 0.309 1.949 0.352 4.539 c 0.066 3.984 0.094 4.211 0.578 4.297 c 0.941 0.168 1.402 0.805 1.402 1.926 c 0 1.809 -0.055 1.824 -6.156 1.824 c -2.957 0 -5.43 0.055 -5.496 0.121 c -0.066 0.063 -0.145 0.543 -0.176 1.066 c -0.031 0.523 -0.105 1.117 -0.164 1.324 c -0.098 0.316 0.523 0.391 4.164 0.496 c 3.375 0.098 4.328 0.203 4.508 0.488 c 0.199 0.313 0.301 0.301 0.727 -0.074 c 0.379 -0.336 0.844 -0.422 1.965 -0.363 c 2.188 0.109 2.215 0.238 0.934 4.605 c -0.895 3.047 -1.078 4.04 -1.074 5.801 c 0.004 2.832 -0.27 3.227 -2.254 3.227 c -0.805 0 -1.598 -0.133 -1.77 -0.301 m -21.77 -7.98 l -0.094 -1.051 l -0.207 0.809 c -0.145 0.551 -0.359 0.809 -0.688 0.809 c -0.387 0 -0.477 0.188 -0.477 0.98 c 0 0.824 0.113 1.035 0.699 1.313 l 0.703 0.328 l 0.078 -1.07 c 0.043 -0.586 0.035 -1.543 -0.016 -2.117 m 17.492 2.66 c 0.266 -0.672 0.152 -2.191 -0.211 -2.828 c -0.188 -0.336 -0.285 -0.754 -0.215 -0.934 c 0.07 -0.184 -0.055 -0.324 -0.289 -0.324 c -0.551 0 -0.914 0.992 -0.914 2.484 c 0 1.582 0.184 1.996 0.891 1.996 c 0.32 0 0.652 -0.176 0.738 -0.395 m -9.273 -1.996 c 0 -1.852 -0.055 -2.121 -0.402 -1.992 c -0.223 0.082 -0.566 0.152 -0.766 0.152 c -0.277 0 -0.359 0.398 -0.359 1.703 c 0 1.52 0.063 1.73 0.574 1.973 c 0.313 0.148 0.656 0.277 0.762 0.285 c 0.105 0.012 0.191 -0.945 0.191 -2.121 m -4.074 0.406 c 0 -1.238 -0.066 -1.461 -0.395 -1.336 c -0.23 0.082 -0.555 -0.051 -0.766 -0.32 c -0.332 -0.422 -0.363 -0.305 -0.309 1.152 c 0.055 1.352 0.137 1.605 0.492 1.547 c 0.234 -0.039 0.5 0.047 0.59 0.188 c 0.309 0.488 0.387 0.246 0.387 -1.23 m 7.816 0.195 c -0.082 -0.199 -0.141 -0.141 -0.152 0.148 c -0.012 0.262 0.047 0.41 0.133 0.328 c 0.082 -0.082 0.094 -0.297 0.02 -0.477 m 11.01 -1.012 c -0.016 -0.445 -0.102 -1.121 -0.191 -1.504 c -0.141 -0.605 -0.215 -0.656 -0.582 -0.375 c -0.379 0.293 -0.383 0.438 -0.055 1.504 c 0.418 1.359 0.871 1.563 0.828 0.375 m 2.559 -0.586 c 0.164 -0.637 0.262 -1.184 0.223 -1.219 c -0.043 -0.035 -0.316 0.023 -0.613 0.133 c -0.629 0.234 -1.051 1.965 -0.551 2.266 c 0.457 0.277 0.617 0.074 0.941 -1.18 m -26.352 -0.098 c -0.086 -0.137 -0.266 -0.25 -0.398 -0.25 c -0.133 0 -0.238 0.113 -0.238 0.25 c 0 0.137 0.176 0.246 0.395 0.246 c 0.219 0 0.328 -0.109 0.242 -0.246 m 24.21 -14.551 v -1.949 l -0.703 -0.031 c -0.805 -0.035 -0.922 0.23 -0.84 1.852 c 0.141 2.648 0.07 2.465 0.84 2.262 c 0.691 -0.18 0.703 -0.215 0.703 -2.133 m -13.27 0.094 c 0.188 -1.609 0 -2.32 -0.266 -1.016 c -0.086 0.426 -0.289 0.754 -0.449 0.723 c -0.16 -0.031 -0.32 0.355 -0.367 0.879 c -0.066 0.785 0 0.934 0.414 0.934 c 0.414 0 0.52 -0.242 0.668 -1.52 m -8.273 0.586 c -0.008 -0.652 -0.023 -0.664 -0.379 -0.199 c -0.297 0.379 -0.309 0.523 -0.059 0.68 c 0.449 0.277 0.449 0.281 0.438 -0.48 m 5.359 -0.016 c 0 -0.355 -0.301 -0.418 -2.039 -0.418 c -1.867 0 -2.035 0.043 -2.035 0.496 c -0.004 0.465 0.141 0.492 2.035 0.418 c 1.707 -0.066 2.039 -0.148 2.039 -0.496 m 6.078 0.48 c 0.219 -0.137 0.285 -0.41 0.176 -0.746 c -0.098 -0.293 -0.273 -0.473 -0.391 -0.402 c -0.117 0.07 -0.293 -0.215 -0.387 -0.637 c -0.27 -1.188 -0.426 -0.688 -0.23 0.734 c 0.176 1.316 0.25 1.41 0.832 1.051 m 3.859 -0.836 c 0 -0.121 0.117 -0.145 0.258 -0.059 c 0.145 0.086 0.199 0.25 0.125 0.367 c -0.074 0.121 -0.02 0.285 0.121 0.371 c 0.168 0.102 0.258 -0.449 0.254 -1.535 c -0.008 -1.465 -0.055 -1.637 -0.348 -1.258 c -0.398 0.508 -0.824 0.563 -1.01 0.121 c -0.07 -0.168 -0.133 0.473 -0.141 1.434 c -0.008 1.582 0.023 1.695 0.363 1.258 c 0.207 -0.266 0.375 -0.582 0.375 -0.699 m -10.957 -1.277 c 0 -0.207 -1.559 -0.309 -1.684 -0.113 c -0.07 0.113 0.277 0.207 0.777 0.207 c 0.5 0 0.906 -0.043 0.906 -0.094" fill="#cecfd1"/><path d="m 34.29 39.18 c -0.145 -0.266 -0.266 -1.414 -0.27 -2.551 c -0.004 -1.516 -0.191 -2.699 -0.711 -4.43 c -0.609 -2.047 -0.785 -2.375 -1.305 -2.449 c -0.328 -0.047 -0.691 0.066 -0.813 0.25 c -0.117 0.184 -0.215 2.195 -0.219 4.473 c -0.004 3.543 -0.063 4.16 -0.406 4.289 c -0.742 0.281 -2.84 0.16 -3.125 -0.176 c -0.172 -0.203 -0.309 -1.949 -0.352 -4.539 l -0.07 -4.211 h -1.273 l -0.129 3.605 c -0.086 2.426 -0.238 3.77 -0.469 4.105 c -0.672 0.977 -1.645 1.465 -3.086 1.559 c -1.684 0.105 -2.898 -0.438 -3.766 -1.676 l -0.566 -0.813 l -0.23 0.59 c -0.523 1.332 -1.145 1.578 -4.203 1.652 c -1.586 0.039 -3.01 -0.039 -3.223 -0.176 c -0.316 -0.203 -0.395 -1.176 -0.461 -5.547 c -0.051 -3.273 0.02 -5.555 0.184 -5.98 l 0.266 -0.68 h 2.617 c 2.785 0 3.77 0.285 4.488 1.285 c 0.367 0.516 0.379 0.508 0.656 -0.32 l 0.281 -0.844 l 2.094 -0.004 c 1.152 -0.004 2.219 -0.129 2.371 -0.277 c 0.152 -0.148 0.238 -0.914 0.195 -1.734 l -0.078 -1.465 l -1.395 -0.078 c -0.766 -0.043 -1.527 -0.188 -1.691 -0.32 c -0.207 -0.168 -0.602 -0.047 -1.246 0.383 c -1.633 1.082 -4.113 1.168 -5.457 0.195 c -1.48 -1.078 -1.676 -1.805 -1.676 -6.152 c 0 -4.379 0.191 -5.066 1.738 -6.191 c 1.09 -0.793 4.047 -0.754 5.234 0.07 c 1 0.703 1.563 1.859 1.563 3.238 c 0 1.816 0.441 1.281 0.727 -0.883 c 0.156 -1.18 0.414 -2.297 0.574 -2.484 c 0.203 -0.238 0.922 -0.34 2.418 -0.34 c 2.598 0 2.703 0.109 3.145 3.348 c 0.465 3.391 0.766 3.438 0.773 0.121 c 0.004 -1.895 0.109 -2.977 0.313 -3.172 c 0.422 -0.41 3.125 -0.387 3.48 0.031 c 0.172 0.203 0.305 1.949 0.348 4.539 l 0.07 4.211 h 1.273 l 0.07 -4.211 c 0.043 -2.59 0.18 -4.336 0.352 -4.539 c 0.172 -0.207 0.848 -0.328 1.781 -0.328 c 1.383 0 1.523 0.051 1.754 0.637 c 0.137 0.352 0.246 2.371 0.246 4.484 c 0 3.449 0.047 3.863 0.449 3.984 c 1.01 0.305 1.211 0.551 1.289 1.57 c 0.133 1.75 0.152 1.746 -5.879 1.746 c -2.953 0 -5.457 0.086 -5.559 0.195 c -0.105 0.105 -0.23 0.867 -0.277 1.688 l -0.086 1.492 l 4.141 0.066 c 4.102 0.07 4.141 0.074 4.555 0.695 l 0.422 0.625 l 0.289 -0.57 c 0.258 -0.504 0.477 -0.566 1.941 -0.566 c 2.109 0 2.117 0.039 0.77 4.52 c -0.855 2.859 -1.031 3.813 -1.031 5.602 c 0 2.648 -0.215 2.938 -2.176 2.938 c -1.098 0 -1.43 -0.098 -1.641 -0.48 m -10.32 -1.574 c 0.652 -0.551 0.676 -0.668 0.809 -4.074 c 0.082 -2.152 0.039 -3.566 -0.109 -3.656 c -0.137 -0.082 -0.516 0.125 -0.84 0.461 c -0.508 0.531 -0.547 0.699 -0.289 1.25 c 0.379 0.816 0.375 0.863 -0.102 0.863 c -0.305 0 -0.379 0.219 -0.32 0.93 c 0.07 0.801 0.164 0.926 0.652 0.875 c 0.523 -0.055 0.574 0.043 0.566 1.121 c -0.008 1.348 -0.594 2.219 -1.703 2.543 l -0.711 0.207 l 0.688 0.023 c 0.379 0.012 0.988 -0.234 1.359 -0.543 m -7.387 -0.199 c 0.273 -0.434 -0.039 -0.527 -0.387 -0.113 c -0.199 0.234 -0.219 0.379 -0.051 0.379 c 0.148 0 0.348 -0.121 0.438 -0.266 m 0.344 -4.883 c 0.027 -2.191 -0.254 -3.18 -0.574 -2 l -0.148 0.559 l -0.406 -0.566 c -0.223 -0.309 -0.512 -0.5 -0.645 -0.418 c -0.27 0.16 -0.313 2.742 -0.07 4.176 c 0.133 0.77 0.254 0.93 0.637 0.832 c 0.348 -0.09 0.52 0.051 0.652 0.539 l 0.18 0.66 l 0.172 -0.746 c 0.094 -0.41 0.188 -1.773 0.203 -3.03 m -4 -0.512 c 0.074 -3.227 -0.063 -4.184 -0.461 -3.172 c -0.082 0.203 -0.363 0.371 -0.629 0.371 c -0.574 0 -0.641 0.387 -0.102 0.59 c 0.586 0.219 0.457 0.859 -0.191 0.949 c -0.469 0.066 -0.586 0.262 -0.656 1.074 c -0.152 1.828 0.18 3.109 0.867 3.367 c 0.34 0.125 0.617 0.363 0.617 0.531 c 0 0.191 0.09 0.219 0.238 0.07 c 0.129 -0.129 0.273 -1.832 0.316 -3.781 m 8.094 0.262 c 0.016 -2.316 -0.203 -3.223 -0.617 -2.566 c -0.09 0.137 -0.371 0.25 -0.629 0.25 c -0.625 0 -0.777 0.48 -0.773 2.449 c 0.004 2.234 0.191 2.852 0.813 2.691 c 0.301 -0.078 0.551 0.027 0.645 0.273 c 0.309 0.785 0.543 -0.5 0.563 -3.098 m 9.297 2.137 c 0.094 -0.703 0.098 -2.027 0.004 -2.949 c -0.109 -1.094 -0.066 -1.863 0.125 -2.211 c 0.16 -0.297 0.223 -0.535 0.141 -0.535 c -0.301 0 -1.785 0.824 -1.965 1.094 c -0.223 0.324 -0.262 4.668 -0.047 5.215 c 0.082 0.207 0.297 0.32 0.484 0.25 c 0.184 -0.066 0.41 -0.004 0.504 0.141 c 0.344 0.547 0.586 0.227 0.754 -1 m 7.492 -1.527 c 0.453 -1.402 0.895 -2.992 0.984 -3.535 l 0.164 -0.984 l -0.91 0.863 c -0.559 0.527 -0.98 1.207 -1.082 1.746 c -0.406 2.105 -0.988 1.891 -1.406 -0.52 c -0.164 -0.957 -0.402 -1.738 -0.531 -1.738 c -0.129 0 -0.23 0.129 -0.23 0.289 c 0 0.16 -0.16 0.469 -0.355 0.688 c -0.301 0.332 -0.301 0.586 -0.004 1.707 c 0.195 0.727 0.594 1.867 0.891 2.535 c 0.465 1.055 0.723 1.305 1.52 1.469 c 0.078 0.016 0.508 -1.117 0.961 -2.52 m -1.84 0.602 c -0.219 -0.348 0.539 -0.867 1.012 -0.691 c 0.223 0.082 0.359 0.289 0.301 0.461 c -0.129 0.383 -1.109 0.555 -1.313 0.23 m -12.5 -13.344 c 0.477 -0.352 0.465 -0.367 -0.203 -0.375 c -0.457 -0.004 -0.703 0.121 -0.703 0.367 c 0 0.469 0.277 0.473 0.906 0.008 m -4.473 -0.242 c 0 -0.199 -0.113 -0.43 -0.254 -0.512 c -0.141 -0.086 -0.254 0.074 -0.254 0.355 c 0 0.281 0.113 0.512 0.254 0.512 c 0.141 0 0.254 -0.16 0.254 -0.355 m 16.621 -0.008 c 0.281 0.105 0.422 -0.102 0.539 -0.805 c 0.211 -1.254 0.164 -4.27 -0.078 -5.05 c -0.172 -0.547 -0.219 -0.566 -0.391 -0.176 c -0.117 0.273 -0.406 0.418 -0.734 0.375 c -0.512 -0.07 -0.547 0.043 -0.621 2.164 c -0.094 2.789 0.098 4.01 0.57 3.621 c 0.184 -0.148 0.508 -0.207 0.715 -0.129 m -20.91 -4.207 c 0.066 -2.566 0.023 -3.074 -0.234 -2.727 c -0.176 0.234 -0.32 0.66 -0.324 0.941 c -0.004 0.82 -0.379 1.207 -0.98 1.02 c -0.434 -0.137 -0.543 -0.066 -0.543 0.344 c 0 0.383 0.164 0.516 0.621 0.516 c 0.727 0 0.973 0.289 0.746 0.867 c -0.113 0.293 -0.34 0.371 -0.766 0.266 c -0.461 -0.113 -0.602 -0.047 -0.598 0.293 c 0.004 0.547 0.234 0.859 0.887 1.211 c 0.281 0.152 0.555 0.543 0.605 0.871 c 0.207 1.324 0.5 -0.477 0.586 -3.602 m 15.988 0.715 c 0.008 -1.094 -0.07 -2.109 -0.176 -2.254 c -0.102 -0.148 -0.531 -0.262 -0.949 -0.25 l -0.766 0.02 l -0.078 1.738 c -0.109 2.426 0.09 3.344 0.691 3.188 c 0.262 -0.066 0.566 0.023 0.676 0.195 c 0.348 0.551 0.586 -0.5 0.602 -2.637 m -8.195 2.301 c 0.25 -0.301 0.867 -5.191 0.68 -5.383 c -0.051 -0.051 -0.207 0.191 -0.344 0.547 c -0.137 0.352 -0.477 0.758 -0.75 0.902 c -0.387 0.199 -0.543 0.637 -0.68 1.875 c -0.098 0.891 -0.109 1.785 -0.027 1.992 c 0.18 0.461 0.77 0.496 1.121 0.07 m 3.77 -1.496 c -0.098 -0.855 -0.297 -2.098 -0.441 -2.758 l -0.262 -1.207 l -0.512 0.824 c -0.43 0.691 -0.488 1.078 -0.348 2.387 c 0.215 2.051 0.336 2.313 1.102 2.313 c 0.637 0 0.641 -0.016 0.465 -1.555 m -8.172 0.68 l 1.785 -0.004 l 0.078 -0.965 c 0.078 -0.918 0.063 -0.941 -0.359 -0.531 c -0.363 0.352 -0.793 0.414 -2.313 0.34 l -1.867 -0.09 v 0.84 c 0 0.715 0.066 0.809 0.445 0.625 c 0.246 -0.113 1.25 -0.211 2.23 -0.215 m 0.891 -2.484 c 0 -0.648 -0.383 -0.855 -0.578 -0.313 c -0.082 0.227 -0.246 0.195 -0.613 -0.125 c -0.582 -0.5 -0.848 -0.352 -0.848 0.477 c 0 0.512 0.121 0.582 1.02 0.582 c 0.918 0 1.02 -0.063 1.02 -0.621" fill="#b8c3d0"/><path d="m 34.547 39.43 c -0.266 -0.164 -0.418 -1 -0.547 -3.043 c -0.168 -2.637 -0.918 -5.953 -1.469 -6.488 c -0.125 -0.125 -0.5 -0.188 -0.832 -0.141 l -0.602 0.082 l -0.07 4.211 c -0.043 2.59 -0.18 4.34 -0.352 4.539 c -0.355 0.422 -2.527 0.434 -3.094 0.02 c -0.367 -0.266 -0.438 -0.922 -0.496 -4.539 l -0.066 -4.23 l -0.699 -0.078 l -0.703 -0.078 v 3.313 c 0 3.633 -0.266 4.57 -1.563 5.5 c -1.617 1.156 -4.738 0.586 -5.723 -1.039 c -0.258 -0.426 -0.531 -0.773 -0.613 -0.773 c -0.078 0 -0.273 0.336 -0.434 0.75 c -0.422 1.094 -1.613 1.488 -4.477 1.488 c -1.508 0 -2.488 -0.109 -2.684 -0.297 c -0.434 -0.426 -0.434 -11.422 0 -11.844 c 0.438 -0.43 4.586 -0.391 5.672 0.055 c 0.473 0.191 1.066 0.656 1.316 1.023 l 0.449 0.676 l 0.281 -0.965 l 0.277 -0.965 h 2.027 c 1.117 0 2.172 -0.09 2.348 -0.199 c 0.199 -0.129 0.32 -0.797 0.32 -1.805 v -1.602 h -1.266 c -0.691 0 -1.547 -0.129 -1.895 -0.281 c -0.547 -0.246 -0.742 -0.195 -1.414 0.355 c -1.934 1.59 -5.629 0.914 -6.527 -1.191 c -0.527 -1.238 -0.52 -8.57 0.012 -9.574 c 1.254 -2.363 5.703 -2.645 7.297 -0.461 c 0.676 0.926 0.992 3.953 0.48 4.555 c -0.367 0.434 -3.184 0.539 -3.441 0.129 c -0.359 -0.566 -0.637 -0.176 -0.637 0.902 c 0 0.969 0.055 1.102 0.363 0.852 c 0.227 -0.184 1.078 -0.273 2.223 -0.238 l 1.859 0.059 l 0.516 -3.461 c 0.285 -1.902 0.609 -3.602 0.723 -3.773 c 0.293 -0.441 4.348 -0.426 4.727 0.02 c 0.152 0.184 0.465 1.555 0.691 3.047 c 0.586 3.848 0.855 4.02 0.867 0.523 c 0.004 -1.613 0.125 -3.156 0.27 -3.418 c 0.215 -0.395 0.543 -0.48 1.77 -0.48 c 0.922 0 1.586 0.117 1.711 0.309 c 0.113 0.172 0.262 2.215 0.332 4.539 l 0.129 4.23 l 0.699 0.078 l 0.703 0.078 v -4.32 c 0 -3.03 0.09 -4.406 0.305 -4.617 c 0.418 -0.41 2.871 -0.387 3.223 0.031 c 0.172 0.203 0.309 1.949 0.352 4.539 l 0.07 4.211 l 0.637 0.082 c 0.832 0.102 1.273 0.691 1.273 1.691 c 0 1.504 -0.203 1.555 -6.03 1.559 c -3.133 0 -5.363 0.102 -5.512 0.246 c -0.141 0.137 -0.289 0.676 -0.336 1.195 c -0.043 0.523 -0.113 1.172 -0.156 1.445 c -0.07 0.48 0.109 0.504 4.258 0.625 c 4.191 0.117 4.34 0.141 4.586 0.684 c 0.32 0.715 0.488 0.703 0.848 -0.063 c 0.254 -0.543 0.453 -0.621 1.551 -0.621 c 1.543 0 2.063 0.176 2.059 0.711 c 0 0.223 -0.461 1.914 -1.02 3.762 c -0.836 2.762 -1.016 3.723 -1.016 5.48 c 0 2.734 -0.305 3.234 -1.988 3.227 c -0.656 0 -1.363 -0.105 -1.566 -0.23 m 2.539 -0.762 c 0 -0.137 -0.348 -0.25 -0.766 -0.25 c -0.422 0 -0.766 0.113 -0.766 0.25 c 0 0.137 0.344 0.246 0.766 0.246 c 0.418 0 0.766 -0.109 0.766 -0.246 m -13.5 -0.625 c 0.406 -0.207 0.859 -0.59 1 -0.855 c 0.344 -0.621 0.348 -7.645 0.008 -7.848 c -0.141 -0.086 -0.254 -0.035 -0.254 0.109 c 0 0.145 -0.168 0.262 -0.375 0.262 c -0.535 0 -0.973 0.941 -0.813 1.734 c 0.078 0.375 0.02 0.797 -0.125 0.941 c -0.363 0.355 0.203 2.961 0.688 3.141 c 0.566 0.211 0.441 1 -0.266 1.645 c -0.473 0.434 -0.93 0.582 -1.789 0.582 c -1.137 0 -1.262 0.25 -0.25 0.488 c 0.945 0.223 1.426 0.18 2.172 -0.199 m -7.555 -0.152 c 0.504 -0.227 0.664 -0.531 0.805 -1.527 c 0.309 -2.184 0.227 -6.148 -0.133 -6.477 c -0.25 -0.234 -0.348 -0.23 -0.438 0.012 c -0.074 0.191 -0.352 0.254 -0.734 0.16 l -0.617 -0.152 v 2.5 c 0 2.668 0.262 3.773 0.887 3.773 c 0.461 0 0.516 0.773 0.082 1.195 c -0.168 0.164 -0.883 0.309 -1.59 0.324 c -2.211 0.039 -2.82 0.418 -0.727 0.445 c 1.01 0.016 2.117 -0.102 2.465 -0.254 m 14.172 -0.098 c 0 -0.285 -0.172 -0.34 -0.699 -0.219 c -1.141 0.262 -1.273 0.594 -0.242 0.594 c 0.672 0 0.941 -0.105 0.941 -0.375 m 0.105 -2.176 c 0.09 -0.586 0.145 -2.207 0.121 -3.602 c -0.031 -1.855 0.051 -2.652 0.313 -2.961 c 0.324 -0.387 0.266 -0.406 -0.785 -0.242 c -0.625 0.098 -1.223 0.309 -1.328 0.473 c -0.52 0.824 -0.566 5.191 -0.07 6.461 c 0.094 0.238 0.387 0.434 0.652 0.434 c 0.266 0 0.484 0.113 0.484 0.25 c 0 0.137 0.102 0.246 0.227 0.246 c 0.121 0 0.297 -0.477 0.387 -1.059 m -17.43 -2.977 c 0 -2.918 0.07 -3.59 0.422 -3.969 c 0.395 -0.426 0.391 -0.453 -0.078 -0.453 c -0.273 0 -0.641 0.137 -0.813 0.309 c -0.176 0.168 -0.512 0.309 -0.754 0.309 c -0.254 0.004 -0.469 0.234 -0.516 0.563 c -0.063 0.426 0.043 0.563 0.445 0.563 c 0.309 0 0.527 0.16 0.527 0.387 c 0 0.262 -0.188 0.363 -0.574 0.313 c -0.559 -0.078 -0.57 -0.023 -0.566 2.23 c 0.004 2.262 0.016 2.316 0.762 2.898 c 0.418 0.324 0.848 0.539 0.953 0.477 c 0.105 -0.063 0.191 -1.695 0.191 -3.625 m 8.215 1.777 c 0.188 -1.773 0.094 -3.754 -0.242 -5.328 c -0.16 -0.746 -0.16 -0.746 -0.328 -0.125 c -0.109 0.418 -0.324 0.609 -0.652 0.578 c -0.742 -0.066 -0.871 0.344 -0.875 2.828 c -0.004 2.555 0.273 3.633 0.879 3.402 c 0.258 -0.094 0.391 0 0.391 0.277 c 0 0.23 0.145 0.371 0.32 0.316 c 0.191 -0.063 0.395 -0.84 0.508 -1.949 m 17.379 -3.586 c 0.355 -1.234 0.648 -2.395 0.648 -2.582 c 0.004 -0.184 -0.461 0.113 -1.027 0.668 c -0.75 0.73 -1.082 1.297 -1.219 2.078 c -0.273 1.578 -0.949 1.598 -1.176 0.035 c -0.324 -2.262 -0.457 -2.813 -0.684 -2.813 c -0.125 0 -0.227 0.227 -0.227 0.504 c 0 0.277 -0.172 0.57 -0.379 0.648 c -0.543 0.203 -0.488 0.617 0.465 3.652 c 0.676 2.156 0.969 2.754 1.465 2.996 c 0.605 0.293 0.625 0.27 1.047 -1.324 c 0.238 -0.895 0.727 -2.633 1.082 -3.863 m -2.148 2.363 c 0 -0.137 0.172 -0.25 0.383 -0.25 c 0.211 0 0.383 0.113 0.383 0.25 c 0 0.137 -0.172 0.246 -0.383 0.246 c -0.211 0 -0.383 -0.109 -0.383 -0.246 m -4.457 -4.48 c 0.086 -0.137 0.035 -0.246 -0.113 -0.246 c -0.148 0 -0.27 0.109 -0.27 0.246 c 0 0.137 0.051 0.25 0.113 0.25 c 0.059 0 0.18 -0.113 0.27 -0.25 m -14.09 -5.996 c 0.988 -0.516 1.707 -3.457 0.844 -3.457 c -0.297 0 -0.348 0.227 -0.23 1.059 c 0.125 0.906 0.055 1.141 -0.488 1.637 c -0.348 0.316 -1.133 0.738 -1.742 0.938 l -1.113 0.359 l 1.117 -0.137 c 0.613 -0.078 1.34 -0.254 1.613 -0.398 m 4.789 -0.719 c 0 -0.137 -0.344 -0.25 -0.766 -0.25 c -0.422 0 -0.766 0.113 -0.766 0.25 c 0 0.137 0.344 0.25 0.766 0.25 c 0.422 0 0.766 -0.113 0.766 -0.25 m 4.203 0 c 0.086 -0.137 -0.027 -0.25 -0.254 -0.25 c -0.227 0 -0.344 0.113 -0.254 0.25 c 0.086 0.137 0.199 0.25 0.254 0.25 c 0.051 0 0.168 -0.113 0.254 -0.25 m 5.734 -0.02 c 0 -0.184 -0.551 -0.215 -1.723 -0.094 c -2.293 0.234 -2.328 0.363 -0.105 0.363 c 1.137 0 1.828 -0.102 1.828 -0.27 m 5.352 0.063 c 0 -0.117 -0.66 -0.164 -1.469 -0.105 c -2.121 0.145 -2.23 0.27 -0.254 0.293 c 0.945 0.008 1.723 -0.074 1.723 -0.188 m -14.02 -0.293 c 0 -0.137 -0.117 -0.25 -0.254 -0.25 c -0.141 0 -0.258 0.113 -0.258 0.25 c 0 0.137 0.117 0.25 0.258 0.25 c 0.137 0 0.254 -0.113 0.254 -0.25 m -9.05 -4.512 c 0.051 -2.238 0.172 -4.27 0.27 -4.512 c 0.133 -0.328 0.078 -0.402 -0.215 -0.289 c -0.215 0.078 -0.547 0.613 -0.734 1.184 c -0.27 0.824 -0.449 1.027 -0.879 0.984 c -0.344 -0.035 -0.59 0.113 -0.668 0.406 c -0.137 0.516 0.121 1.063 0.477 0.996 c 0.559 -0.102 0.867 0.047 0.867 0.418 c 0 0.301 -0.156 0.363 -0.637 0.242 c -0.598 -0.145 -0.637 -0.094 -0.637 0.816 c 0 0.758 0.137 1.059 0.625 1.371 c 0.398 0.254 0.688 0.738 0.797 1.336 c 0.449 2.426 0.629 1.699 0.734 -2.957 m 8.863 2.945 c 0.672 -0.234 0.535 -0.59 -0.281 -0.746 c -0.723 -0.145 -0.727 -0.152 -0.535 -1.465 c 0.109 -0.723 0.266 -2.156 0.352 -3.184 c 0.141 -1.699 0.121 -1.824 -0.23 -1.383 c -0.215 0.266 -0.387 0.629 -0.387 0.809 c 0 0.18 -0.16 0.324 -0.355 0.324 c -0.516 0 -0.699 0.621 -0.852 2.926 c -0.133 1.973 -0.117 2.051 0.406 2.051 c 0.441 0 0.543 0.148 0.543 0.785 c 0 0.723 0.035 0.754 0.449 0.41 c 0.242 -0.207 0.645 -0.441 0.891 -0.527 m 12.05 0.223 c 0.43 -0.309 0.504 -0.727 0.582 -3.254 c 0.047 -1.598 0.012 -3.187 -0.078 -3.531 c -0.152 -0.594 -0.188 -0.605 -0.625 -0.219 c -0.258 0.227 -0.617 0.379 -0.797 0.34 c -0.492 -0.109 -0.723 1.344 -0.598 3.766 c 0.172 3.355 0.359 3.723 1.516 2.898 m -5.02 -3.879 c 0 -2.785 -0.207 -3.867 -0.621 -3.223 c -0.129 0.199 -0.465 0.363 -0.746 0.363 c -0.477 0 -0.508 0.164 -0.508 2.734 c 0 2.535 0.035 2.738 0.508 2.824 c 0.281 0.051 0.617 0.273 0.746 0.492 c 0.41 0.699 0.621 -0.375 0.621 -3.191 m -4.379 0.891 c -0.168 -2.535 -0.605 -4.621 -0.969 -4.621 c -0.121 0 -0.223 0.168 -0.223 0.379 c 0 0.207 -0.129 0.578 -0.289 0.824 c -0.199 0.313 -0.23 1.207 -0.102 2.859 c 0.176 2.324 0.203 2.406 0.797 2.406 c 0.336 0 0.613 0.113 0.613 0.25 c 0 0.137 0.074 0.246 0.164 0.246 c 0.094 0 0.098 -1.055 0.008 -2.344 m -7.309 -2.492 c 0 -0.609 -0.113 -1.172 -0.254 -1.258 c -0.145 -0.086 -0.254 0.121 -0.254 0.484 c 0 0.672 -0.457 0.836 -0.965 0.34 c -0.375 -0.367 -0.453 -0.281 -0.648 0.73 l -0.156 0.809 h 2.277" fill="#a5b5c8"/><path d="m 34.461 39.26 c -0.098 -0.098 -0.18 -1.027 -0.18 -2.063 c 0 -2.5 -1.332 -7.391 -2.078 -7.621 c -1.086 -0.336 -1.234 0.195 -1.234 4.375 c 0 2.16 -0.07 4.105 -0.156 4.324 c -0.223 0.566 -3.289 0.566 -3.512 0 c -0.086 -0.219 -0.156 -2.227 -0.156 -4.461 c 0 -3.914 -0.02 -4.074 -0.535 -4.234 c -0.293 -0.094 -0.625 -0.074 -0.734 0.043 c -0.113 0.117 -0.25 1.797 -0.313 3.73 c -0.113 3.746 -0.328 4.469 -1.531 5.094 c -1.844 0.965 -4.07 0.672 -5.293 -0.688 c -0.422 -0.469 -0.766 -0.961 -0.766 -1.09 c 0 -0.539 -0.426 -0.188 -0.715 0.586 c -0.168 0.457 -0.566 0.953 -0.879 1.105 c -0.727 0.348 -5.613 0.551 -6.152 0.254 c -0.598 -0.324 -0.617 -11.41 -0.023 -11.891 c 0.277 -0.227 1.105 -0.281 2.914 -0.195 c 2.824 0.133 3.66 0.477 4.199 1.734 c 0.262 0.605 0.359 0.672 0.492 0.332 c 0.09 -0.23 0.164 -0.742 0.164 -1.141 c 0 -0.887 0.688 -1.113 2.676 -0.887 c 2.047 0.234 2.164 0.137 2.164 -1.832 c 0 -1.855 -0.105 -1.984 -1.504 -1.832 c -0.516 0.055 -1.121 -0.066 -1.492 -0.301 c -0.574 -0.371 -0.656 -0.363 -1.168 0.09 c -0.938 0.832 -1.605 1.047 -3.27 1.047 c -1.73 -0.004 -2.672 -0.414 -3.473 -1.52 c -0.355 -0.492 -0.445 -1.332 -0.508 -4.824 c -0.066 -3.773 -0.023 -4.324 0.41 -5.094 c 0.723 -1.293 2.379 -2.074 4.055 -1.914 c 2.512 0.242 3.504 1.273 3.785 3.934 c 0.137 1.328 0.094 1.684 -0.262 2.031 c -0.543 0.531 -2.617 0.566 -3.363 0.055 c -0.691 -0.473 -0.855 -0.281 -0.855 1.016 c 0 1.188 0.285 1.531 0.785 0.945 c 0.258 -0.305 0.734 -0.375 2.133 -0.309 l 1.797 0.082 l 0.523 -3.563 c 0.352 -2.391 0.645 -3.637 0.891 -3.789 c 0.559 -0.344 3.902 -0.289 4.371 0.074 c 0.27 0.207 0.543 1.254 0.828 3.172 c 0.23 1.574 0.5 3.03 0.594 3.234 c 0.094 0.207 0.23 -1.113 0.305 -2.934 c 0.148 -3.699 0.188 -3.773 1.961 -3.781 c 1.941 -0.004 1.867 -0.18 1.871 4.441 c 0.004 2.277 0.09 4.27 0.191 4.426 c 0.102 0.156 0.473 0.324 0.824 0.371 l 0.637 0.09 l 0.129 -4.355 c 0.07 -2.395 0.219 -4.492 0.332 -4.664 c 0.281 -0.426 2.832 -0.41 3.195 0.02 c 0.172 0.199 0.309 1.945 0.352 4.523 l 0.07 4.195 l 0.797 0.203 c 0.609 0.152 0.828 0.371 0.949 0.949 c 0.25 1.227 -0.191 1.988 -1.168 2 c -0.457 0.008 -2.867 0.012 -5.348 0.012 c -5.01 -0.004 -5.305 0.082 -5.281 1.547 c 0.008 0.438 -0.02 1.074 -0.063 1.414 l -0.082 0.625 l 4.281 0.121 c 4.375 0.129 4.75 0.223 4.762 1.184 c 0.004 0.172 0.121 0.313 0.258 0.313 c 0.141 0 0.258 -0.152 0.258 -0.336 c 0 -0.656 0.906 -1.16 2.09 -1.16 c 1.883 0 1.914 0.203 0.672 4.273 c -0.844 2.766 -1.117 4.121 -1.223 6.05 l -0.141 2.488 l -1.539 0.074 c -0.844 0.039 -1.617 -0.008 -1.719 -0.105 m 2.82 -2.309 c 0.059 -1.5 0.328 -2.891 0.961 -4.926 c 0.484 -1.559 0.879 -3.191 0.879 -3.629 v -0.793 l -1.016 1.055 c -0.684 0.707 -1.066 1.367 -1.172 2.02 c -0.348 2.125 -0.992 1.988 -1.258 -0.273 c -0.102 -0.855 -0.301 -1.836 -0.441 -2.18 l -0.258 -0.621 l -0.227 0.809 c -0.129 0.445 -0.34 0.809 -0.477 0.809 c -0.402 0 -0.289 1.01 0.375 3.246 c 0.34 1.156 0.699 2.68 0.793 3.387 c 0.129 0.965 0.293 1.316 0.652 1.406 c 0.637 0.164 0.621 0.918 -0.016 0.918 c -0.273 0 -0.566 0.109 -0.652 0.25 c -0.285 0.449 0.164 0.773 0.977 0.695 l 0.801 -0.074 m -20.73 -1.285 c 0.434 -0.426 0.527 -0.953 0.656 -3.602 c 0.16 -3.258 -0.172 -5.293 -0.762 -4.715 c -0.156 0.148 -0.551 0.273 -0.883 0.273 h -0.605 l 0.039 3.293 c 0.02 1.816 0.027 3.539 0.016 3.836 c -0.016 0.488 -0.203 0.555 -1.93 0.715 c -1.84 0.168 -2.398 0.438 -1.465 0.703 c 0.246 0.07 1.34 0.098 2.438 0.059 c 1.586 -0.055 2.09 -0.168 2.496 -0.563 m 7.676 -0.066 l 0.832 -0.727 l -0.004 -3.855 c -0.004 -2.125 -0.074 -3.926 -0.16 -4.01 c -0.277 -0.27 -1.48 0.426 -1.664 0.961 c -0.098 0.289 -0.184 2.031 -0.195 3.875 l -0.016 3.352 l -0.707 0.242 c -1.063 0.367 -1.508 -0.184 -1.199 -1.473 c 0.441 -1.855 0.211 -8.336 -0.297 -8.336 c -0.121 0 -0.219 0.32 -0.219 0.707 c 0 0.875 -0.227 1.117 -0.695 0.738 c -0.629 -0.508 -0.824 0.254 -0.828 3.188 c -0.008 3.523 0.137 4.172 1.145 5.215 c 0.703 0.73 0.988 0.852 1.996 0.852 c 0.941 0 1.344 -0.145 2.01 -0.727 m 6.03 0.387 c 0.184 -0.219 0.309 -1.887 0.348 -4.668 l 0.063 -4.324 l 0.699 -0.078 c 0.574 -0.063 0.699 -0.199 0.695 -0.746 c -0.008 -0.574 -0.047 -0.605 -0.27 -0.23 c -0.199 0.336 -0.598 0.434 -1.742 0.434 h -1.48 l -0.16 1.309 c -0.211 1.719 -0.176 4.453 0.078 6.156 c 0.113 0.754 0.105 1.547 -0.012 1.77 c -0.117 0.223 -0.141 0.473 -0.051 0.563 c 0.293 0.285 1.539 0.16 1.832 -0.184 m -17.25 -2.152 c 0.109 -0.477 0.184 -2.25 0.16 -3.938 c -0.027 -2.27 0.047 -3.125 0.289 -3.27 c 0.613 -0.371 0.051 -0.738 -0.723 -0.477 c -0.398 0.137 -0.879 0.215 -1.066 0.172 c -0.879 -0.188 -0.961 7.094 -0.09 8.04 c 0.645 0.695 1.199 0.492 1.43 -0.523 m 14.406 -7.113 c -0.086 -0.082 -0.305 -0.09 -0.488 -0.02 c -0.203 0.078 -0.145 0.137 0.152 0.152 c 0.27 0.008 0.418 -0.051 0.336 -0.133 m -1.289 -4.125 c -0.078 -0.199 -0.141 -0.141 -0.152 0.148 c -0.012 0.266 0.051 0.41 0.133 0.328 c 0.086 -0.082 0.094 -0.297 0.02 -0.477 m -7.953 -2.262 c 0.848 -0.828 1.449 -2.75 0.992 -3.156 c -0.121 -0.105 -0.656 -0.141 -1.191 -0.074 c -0.719 0.09 -0.934 0.219 -0.828 0.488 c 0.078 0.199 0.145 0.59 0.145 0.867 c 0 0.344 0.121 0.457 0.383 0.359 c 0.215 -0.078 0.383 -0.004 0.383 0.176 c 0 0.648 -0.668 1.176 -1.66 1.305 c -0.559 0.074 -1.297 0.191 -1.641 0.262 c -0.988 0.199 -0.109 0.578 1.352 0.586 c 1.059 0 1.352 -0.113 2.066 -0.813 m 4.418 -0.23 c 0.168 -0.164 0.305 -0.59 0.305 -0.949 c 0 -0.5 0.207 -0.75 0.898 -1.07 l 0.902 -0.418 l 0.891 0.871 c 0.492 0.477 0.773 0.883 0.629 0.902 c -0.145 0.016 -0.395 0.043 -0.559 0.063 c -0.164 0.016 -0.348 0.168 -0.406 0.34 c -0.07 0.211 0.195 0.313 0.824 0.313 h 0.934 l -0.16 -2.055 c -0.227 -2.875 -0.867 -6.879 -1.195 -7.48 c -0.266 -0.484 -0.293 -0.477 -0.672 0.223 c -0.379 0.691 -0.406 1.34 -0.215 5.328 c 0.035 0.789 -0.031 0.879 -0.691 0.953 c -0.402 0.047 -0.836 -0.016 -0.957 -0.141 c -0.219 -0.211 0.129 -4.648 0.438 -5.602 c 0.09 -0.285 0.004 -0.434 -0.262 -0.434 c -0.219 0 -0.398 0.102 -0.398 0.23 c 0 0.125 -0.273 0.547 -0.609 0.934 c -0.953 1.109 -1.633 6.301 -0.82 6.301 c 0.195 0 0.426 0.176 0.512 0.391 c 0.223 0.57 0.203 0.602 -0.34 0.602 c -0.563 0 -0.887 0.375 -0.652 0.746 c 0.219 0.344 1.234 0.313 1.605 -0.047 m 9.941 -0.512 c 0.094 -0.797 0.102 -0.797 -0.914 -0.301 c -0.434 0.211 -1.191 0.355 -1.688 0.324 c -0.984 -0.066 -1.32 0.105 -1.051 0.531 c 0.109 0.172 0.828 0.25 1.875 0.203 c 1.641 -0.07 1.699 -0.094 1.777 -0.758 m 5.609 -0.02 c 0.066 -0.586 0.004 -0.684 -0.383 -0.57 c -1.359 0.402 -2.648 0.578 -2.773 0.379 c -0.078 -0.121 0.184 -0.223 0.582 -0.223 h 0.727 l 0.063 -4.04 c 0.055 -3.781 -0.125 -5.152 -0.586 -4.426 c -0.102 0.16 -0.449 0.391 -0.777 0.512 c -0.797 0.293 -1.016 1.777 -0.766 5.203 c 0.191 2.645 0.297 3.813 0.355 3.945 c 0.02 0.043 0.809 0.043 1.754 0 c 1.68 -0.07 1.723 -0.09 1.805 -0.777 m -14.227 0.207 c 0 -0.203 -0.113 -0.371 -0.254 -0.371 c -0.141 0 -0.254 0.168 -0.254 0.371 c 0 0.207 0.113 0.375 0.254 0.375 c 0.141 0 0.254 -0.168 0.254 -0.375 m -8.918 -4.246 c 0 -2.66 0.109 -4.566 0.277 -4.871 c 0.234 -0.43 0.203 -0.492 -0.191 -0.418 c -0.258 0.047 -0.695 0.504 -0.977 1.016 c -0.281 0.512 -0.648 0.93 -0.82 0.93 c -0.602 0.004 -0.797 0.918 -0.691 3.285 c 0.113 2.586 0.402 3.684 0.965 3.684 c 0.195 0 0.5 0.168 0.672 0.371 c 0.176 0.207 0.418 0.375 0.543 0.375 c 0.121 0 0.223 -1.969 0.223 -4.371 m -1.785 -1.352 c 0 -0.137 0.117 -0.25 0.258 -0.25 c 0.141 0 0.254 0.113 0.254 0.25 c 0 0.137 -0.113 0.25 -0.254 0.25 c -0.141 0 -0.258 -0.113 -0.258 -0.25 m 17.324 3.992 c 0.293 -0.535 0.441 -6.742 0.172 -7.168 c -0.25 -0.395 -1.664 0.195 -1.852 0.773 c -0.41 1.262 -0.059 6.789 0.414 6.504 c 0.121 -0.07 0.289 -0.016 0.375 0.125 c 0.25 0.391 0.598 0.301 0.891 -0.234 m -11.512 -4.305 c 0.289 -0.344 0.266 -1.414 -0.055 -2.488 c -0.254 -0.844 -0.73 -0.914 -0.512 -0.074 c 0.227 0.887 -0.094 1.258 -0.656 0.758 c -0.254 -0.223 -0.516 -0.313 -0.582 -0.199 c -0.258 0.422 -0.469 1.816 -0.316 2.063 c 0.23 0.359 1.801 0.316 2.121 -0.059" fill="#9ca2a5"/><path d="m 34.453 38.996 c -0.094 -0.09 -0.172 -1.063 -0.172 -2.164 c 0 -2.098 -1.012 -6.355 -1.695 -7.141 c -0.188 -0.219 -0.344 -0.805 -0.344 -1.309 c 0 -0.941 -0.559 -1.293 -0.855 -0.539 c -0.16 0.41 -0.926 0.52 -0.926 0.133 c 0 -0.367 -2.246 -0.238 -2.574 0.148 c -0.16 0.188 -0.563 0.34 -0.898 0.34 c -0.332 0 -0.605 0.129 -0.605 0.285 c 0 0.281 -0.73 0.938 -1.059 0.953 c -0.094 0.004 -0.246 -0.441 -0.344 -0.988 c -0.156 -0.902 -0.637 -1.426 -0.637 -0.695 c 0 0.168 -0.313 0.547 -0.699 0.848 l -0.699 0.547 l -0.164 7.758 l -0.637 0.156 c -0.352 0.086 -0.734 0.059 -0.855 -0.063 c -0.117 -0.117 -0.105 -1.168 0.027 -2.332 c 0.305 -2.703 0.047 -7.461 -0.406 -7.461 c -0.18 0 -0.469 0.168 -0.641 0.371 c -0.176 0.207 -0.473 0.375 -0.664 0.375 c -0.547 0 -0.738 1.137 -0.734 4.352 c 0 3.508 0.125 4.055 1.172 5.219 c 0.434 0.484 0.656 0.879 0.492 0.879 c -0.699 0 -1.863 -0.844 -2.168 -1.574 c -0.438 -1.043 -0.684 -5.477 -0.449 -8.129 l 0.184 -2.117 l 2.074 -0.008 c 2.699 -0.008 2.895 -0.168 2.895 -2.391 c 0 -1.258 0.098 -1.758 0.363 -1.855 c 0.199 -0.074 0.43 -0.309 0.516 -0.523 c 0.172 -0.441 -0.313 -1.129 -0.652 -0.926 c -0.121 0.074 -0.227 0.02 -0.227 -0.121 c 0 -0.141 0.359 -0.438 0.801 -0.66 c 0.977 -0.492 1.324 -0.164 1.137 1.074 c -0.102 0.688 -0.031 0.828 0.48 0.957 c 1.301 0.316 1.535 0.086 1.535 -1.52 c 0 -0.82 0.113 -1.656 0.254 -1.863 c 0.141 -0.203 0.313 -2.105 0.383 -4.227 l 0.129 -3.859 l 1.582 -0.07 c 1.52 -0.074 1.594 -0.051 1.75 0.57 c 0.23 0.887 0.066 0.996 -1.734 1.18 c -0.242 0.027 -0.559 0.375 -0.703 0.777 c -0.297 0.84 -0.313 4.625 -0.027 6.609 c 0.246 1.676 -0.105 2.754 -0.898 2.754 c -0.605 0 -0.859 0.426 -0.867 1.449 c 0 0.367 -0.113 0.832 -0.25 1.039 c -0.191 0.289 -0.246 0.227 -0.25 -0.297 c -0.004 -0.82 -0.422 -1.133 -0.633 -0.477 c -0.246 0.754 0.109 1.703 0.715 1.914 c 0.301 0.105 2.441 0.258 4.75 0.336 c 3.656 0.121 4.215 0.191 4.285 0.555 c 0.059 0.313 -0.051 0.383 -0.445 0.281 c -0.48 -0.121 -0.656 0.113 -0.551 0.742 c 0.02 0.105 -0.141 0.258 -0.352 0.336 c -0.551 0.207 -0.484 0.906 0.379 3.906 c 0.449 1.563 0.766 3.246 0.762 4.086 c -0.004 2.086 -0.301 2.914 -0.848 2.383 m -9.566 -14.43 c -0.238 -0.402 -0.273 -0.367 -0.281 0.277 c -0.004 0.535 0.07 0.66 0.273 0.457 c 0.203 -0.195 0.203 -0.402 0.008 -0.734 m -1.051 0.289 c 0 -0.207 -0.117 -0.375 -0.258 -0.375 c -0.141 0 -0.254 0.168 -0.254 0.375 c 0 0.203 0.113 0.371 0.254 0.371 c 0.141 0 0.258 -0.168 0.258 -0.371 m -13.754 13.328 c -0.316 -0.586 -0.355 -10.688 -0.039 -11.172 c 0.168 -0.258 0.887 -0.316 3.078 -0.25 c 2.77 0.082 2.879 0.105 3.473 0.781 c 0.719 0.816 0.879 1.695 0.211 1.152 c -0.328 -0.266 -0.438 -0.266 -0.609 0.008 c -0.117 0.18 -0.387 0.266 -0.602 0.184 c -0.723 -0.27 -1.02 1.363 -0.859 4.707 c 0.156 3.258 0.098 3.453 -1.094 3.613 c -0.551 0.078 -0.625 0.004 -0.543 -0.535 c 0.051 -0.34 0.125 -2.234 0.16 -4.203 c 0.059 -2.988 0.141 -3.617 0.48 -3.805 c 0.719 -0.391 0.449 -0.629 -0.902 -0.805 c -2.01 -0.262 -2.078 -0.121 -2.055 4.133 c 0.008 1.961 0.117 3.953 0.238 4.434 c 0.156 0.613 0.121 1.07 -0.125 1.555 c -0.414 0.813 -0.469 0.828 -0.813 0.203 m 17.32 -3.891 c 0 -2.27 -0.117 -4.328 -0.254 -4.586 c -0.207 -0.371 -0.152 -0.496 0.273 -0.629 c 0.289 -0.09 0.566 -0.125 0.609 -0.078 c 0.082 0.082 0.227 8.102 0.164 8.98 c -0.016 0.238 -0.203 0.434 -0.41 0.434 c -0.328 0 -0.383 -0.625 -0.383 -4.121 m 8.652 -2.531 c -0.008 -0.105 -0.113 -0.691 -0.234 -1.309 c -0.164 -0.828 -0.129 -1.277 0.137 -1.738 c 0.199 -0.344 0.473 -0.938 0.613 -1.32 c 0.246 -0.668 0.32 -0.695 1.703 -0.621 c 1.738 0.09 2.086 0.574 0.582 0.82 c -1.176 0.195 -1.527 0.727 -2.051 3.105 c -0.148 0.688 -0.379 1.246 -0.508 1.246 c -0.129 0 -0.238 -0.082 -0.242 -0.188 m -5.215 -2.301 c 0.09 -0.137 0.211 -0.246 0.27 -0.246 c 0.063 0 0.113 0.109 0.113 0.246 c 0 0.137 -0.121 0.25 -0.27 0.25 c -0.148 0 -0.199 -0.113 -0.113 -0.25 m -17.855 -6.438 c -1.293 -0.77 -1.508 -1.656 -1.508 -6.168 c 0 -3.68 0.043 -4.086 0.527 -4.727 c 1.383 -1.84 4.863 -2.156 6.469 -0.59 c 0.605 0.59 0.688 1.121 0.145 0.918 c -0.203 -0.074 -0.441 -0.031 -0.523 0.098 c -0.082 0.133 -0.367 0.238 -0.633 0.238 c -0.398 0 -0.516 0.262 -0.672 1.555 c -0.105 0.855 -0.16 1.707 -0.121 1.895 c 0.035 0.184 -0.086 0.289 -0.27 0.227 c -0.184 -0.059 -0.422 -0.711 -0.531 -1.457 c -0.109 -0.742 -0.313 -1.383 -0.449 -1.43 c -0.371 -0.125 -0.301 -0.566 0.176 -1.078 c 0.395 -0.43 0.387 -0.457 -0.191 -0.453 c -0.375 0.004 -1.102 0.449 -1.855 1.141 l -1.238 1.137 l 0.117 3.03 c 0.117 3.043 0.527 4.68 1.422 5.699 c 0.5 0.57 0.121 0.555 -0.863 -0.031 m 6.609 -0.738 c -0.5 -0.41 -0.527 -0.563 -0.301 -1.77 c 0.258 -1.379 0.008 -1.902 -0.77 -1.625 c -0.184 0.07 -0.629 0.125 -0.984 0.125 c -0.633 0 -0.645 0.031 -0.539 1.473 c 0.102 1.363 0.066 1.496 -0.496 1.746 c -0.723 0.32 -1.031 0.176 -1.344 -0.637 c -0.184 -0.473 -0.125 -0.711 0.27 -1.098 c 0.305 -0.297 0.504 -0.824 0.504 -1.336 c 0 -0.539 0.145 -0.898 0.402 -0.996 c 0.684 -0.254 2.383 -0.168 2.902 0.152 c 0.273 0.164 0.559 0.242 0.633 0.168 c 0.078 -0.074 0.359 -1.738 0.633 -3.695 c 0.27 -1.957 0.594 -3.66 0.723 -3.785 c 0.129 -0.125 1.199 -0.191 2.375 -0.152 c 1.918 0.066 2.152 0.125 2.215 0.57 c 0.055 0.367 -0.078 0.508 -0.508 0.531 c -0.598 0.035 -2.098 0.551 -2.715 0.934 c -0.75 0.469 -1.277 2.305 -1.57 5.488 c -0.258 2.781 -0.559 4.387 -0.813 4.359 c -0.039 -0.004 -0.316 -0.211 -0.617 -0.457 m 13.605 0.293 c -0.316 -0.082 -0.445 -0.363 -0.445 -0.969 v -0.855 l -1.039 0.16 c -1.027 0.16 -1.039 0.156 -0.957 -0.555 c 0.059 -0.5 0.203 -0.688 0.465 -0.613 c 0.211 0.059 0.727 0.113 1.148 0.125 l 0.766 0.016 l 0.125 -4.477 l 0.129 -4.477 h 1.527 c 1.52 0 1.531 0.004 1.586 0.746 c 0.031 0.41 -0.008 0.605 -0.086 0.434 c -0.172 -0.379 -0.523 -0.398 -0.938 -0.055 c -0.168 0.145 -0.535 0.414 -0.816 0.605 c -0.473 0.32 -0.512 0.648 -0.551 4.656 c -0.023 2.371 -0.051 4.563 -0.063 4.871 c -0.023 0.566 -0.066 0.586 -0.852 0.387 m 3.215 -1.941 c -0.313 -0.797 0.059 -1.078 1.031 -0.781 c 1.035 0.316 1.191 0.773 0.34 0.996 c -0.898 0.234 -1.215 0.184 -1.371 -0.219 m -13.254 -1.992 c -0.414 -1.051 0.523 -6.215 0.988 -5.441 c 0.074 0.121 0.215 1.48 0.313 3.02 l 0.18 2.801 h -0.664 c -0.367 0 -0.734 -0.172 -0.816 -0.379" fill="#78868f"/><path d="m 34.453 38.75 c -0.094 -0.094 -0.172 -1.066 -0.172 -2.168 c 0 -2.098 -1.012 -6.355 -1.695 -7.141 c -0.188 -0.215 -0.344 -0.719 -0.344 -1.121 v -0.727 l -2.172 -0.063 c -1.746 -0.055 -2.203 0.008 -2.32 0.309 c -0.082 0.207 -0.363 0.379 -0.625 0.379 c -0.262 0 -0.668 0.281 -0.898 0.629 c -0.547 0.816 -0.957 0.668 -1.121 -0.402 c -0.117 -0.773 -0.195 -0.844 -0.887 -0.77 c -0.418 0.047 -0.84 0.207 -0.938 0.363 c -0.336 0.527 -0.559 2.797 -0.578 5.848 c -0.012 2.434 -0.094 3.105 -0.398 3.293 c -0.211 0.129 -0.492 0.199 -0.629 0.156 c -0.156 -0.047 -0.223 -1.953 -0.176 -5.03 c 0.063 -4.277 0.129 -4.992 0.488 -5.207 c 0.23 -0.137 0.648 -0.488 0.934 -0.785 c 0.469 -0.488 0.539 -0.5 0.824 -0.121 c 0.77 1.01 1.828 -1.188 1.145 -2.379 c -0.207 -0.359 -0.273 -0.289 -0.395 0.434 c -0.082 0.473 -0.121 1.051 -0.086 1.281 c 0.031 0.234 -0.055 0.43 -0.195 0.434 c -0.137 0.008 -0.254 -0.383 -0.254 -0.871 c 0 -0.586 -0.152 -0.969 -0.445 -1.133 c -0.57 -0.313 -0.563 -0.508 0.063 -1.211 c 0.629 -0.707 0.656 -1.391 0.066 -1.711 c -0.531 -0.293 -0.422 -0.434 0.508 -0.66 c 0.738 -0.18 0.84 0.035 0.711 1.563 c -0.043 0.504 0.066 0.559 1.098 0.559 h 1.141 l 0.164 -1.68 c 0.09 -0.922 0.223 -3.41 0.289 -5.523 c 0.074 -2.27 0.242 -3.984 0.41 -4.18 c 0.344 -0.402 2.789 -0.328 2.93 0.09 c 0.051 0.152 -0.207 0.469 -0.57 0.699 c -0.527 0.34 -0.738 0.363 -1.035 0.125 c -0.203 -0.164 -0.453 -0.219 -0.555 -0.121 c -0.102 0.102 -0.207 2.328 -0.23 4.949 c -0.023 2.625 -0.051 4.965 -0.063 5.203 c -0.012 0.273 -0.223 0.438 -0.566 0.438 c -0.613 0 -1.219 0.645 -1.23 1.32 c -0.004 0.246 -0.117 0.383 -0.25 0.301 c -0.137 -0.078 -0.18 -0.309 -0.102 -0.512 c 0.078 -0.199 0.031 -0.363 -0.109 -0.363 c -0.57 0 -0.793 2.813 -0.246 3.156 c 0.176 0.109 2.316 0.258 4.758 0.324 c 3.23 0.094 4.465 0.211 4.543 0.438 c 0.059 0.176 -0.105 0.313 -0.375 0.313 c -1.262 0 -1.41 1.48 -0.48 4.785 c 1.121 3.969 1.156 7.555 0.07 6.492 m -24.24 -0.586 c -0.082 -0.211 -0.121 -2.84 -0.082 -5.848 l 0.07 -5.469 l 2.164 -0.078 c 2.488 -0.086 3.945 0.242 4.355 0.992 c 0.27 0.488 0.234 0.512 -0.57 0.371 c -3.762 -0.645 -4.852 -0.738 -5.05 -0.426 c -0.352 0.555 -0.559 4.613 -0.375 7.305 c 0.117 1.684 0.082 2.754 -0.094 3.059 c -0.227 0.398 -0.293 0.41 -0.418 0.094 m 8.738 -0.453 l -0.852 -0.746 l -0.082 -4.602 c -0.102 -5.484 -0.055 -5.637 1.73 -5.637 c 1.965 0 1.855 0.414 -0.289 1.078 c -0.574 0.18 -0.805 2.098 -0.688 5.688 c 0.078 2.383 0.184 2.957 0.676 3.773 c 0.32 0.531 0.531 1.016 0.469 1.078 c -0.063 0.059 -0.496 -0.227 -0.965 -0.633 m 8.445 -3.441 c -0.004 -2.164 -0.074 -4.188 -0.156 -4.496 c -0.121 -0.434 -0.047 -0.559 0.32 -0.559 c 0.449 0 0.477 0.266 0.477 4.395 c 0 3.293 -0.082 4.418 -0.32 4.496 c -0.246 0.082 -0.316 -0.793 -0.32 -3.836 m -14.258 2.219 c 0.004 -0.375 0.176 -0.898 0.383 -1.164 c 0.531 -0.691 0.52 -4.801 -0.016 -5.547 c -0.363 -0.508 -0.348 -0.57 0.262 -0.961 c 0.359 -0.23 0.723 -0.352 0.805 -0.266 c 0.086 0.082 0.137 1.914 0.109 4.074 c -0.035 3.324 -0.109 3.973 -0.465 4.238 c -0.688 0.508 -1.086 0.367 -1.078 -0.375 m 22.832 -5.348 c -0.336 -1.219 -0.148 -2.09 0.836 -3.918 c 0.293 -0.547 2.824 -0.668 2.824 -0.137 c 0 0.281 -0.266 0.387 -1 0.387 c -0.992 0 -1 0.008 -1.406 1.359 c -0.223 0.75 -0.473 1.699 -0.559 2.113 c -0.184 0.895 -0.48 0.977 -0.695 0.195 m -23.621 -8.789 c -0.598 -0.621 -0.621 -0.789 -0.703 -4.914 c -0.098 -4.996 0.066 -5.535 1.922 -6.414 c 1.363 -0.641 3.32 -0.555 4.348 0.195 c 1.051 0.766 1 1.078 -0.176 1.078 h -1.039 l -0.004 1.43 c -0.004 1.66 -0.215 2.602 -0.535 2.406 c -0.125 -0.074 -0.227 -0.594 -0.227 -1.16 c 0 -0.574 -0.172 -1.207 -0.395 -1.449 c -0.359 -0.387 -0.34 -0.469 0.254 -0.926 c 0.832 -0.637 0.82 -0.801 -0.051 -0.797 c -1 0.008 -2.672 1.01 -3.121 1.871 c -0.594 1.148 -0.422 6.512 0.254 8.01 c 0.281 0.617 0.512 1.168 0.512 1.219 c 0 0.273 -0.496 0.012 -1.039 -0.551 m 7.164 -0.332 c -0.289 -0.527 -0.082 -2.707 0.301 -3.18 c 0.133 -0.168 0.457 -1.852 0.719 -3.746 c 0.262 -1.895 0.551 -3.641 0.645 -3.879 c 0.148 -0.371 0.465 -0.422 2.223 -0.359 c 1.141 0.039 2.09 0.188 2.141 0.332 c 0.047 0.145 -0.633 0.492 -1.512 0.777 c -1.199 0.387 -1.707 0.699 -2.043 1.254 c -0.477 0.793 -1.207 4.91 -1.207 6.836 c -0.004 1.176 -0.414 2.438 -0.797 2.438 c -0.113 0 -0.324 -0.215 -0.469 -0.477 m 13.418 0.32 c -0.098 -0.094 -0.176 -0.523 -0.176 -0.953 c 0 -0.738 -0.047 -0.773 -0.863 -0.68 c -0.906 0.102 -1.273 -0.145 -0.957 -0.641 c 0.137 -0.215 0.426 -0.23 1.059 -0.055 c 0.477 0.133 0.953 0.156 1.063 0.051 c 0.105 -0.102 0.227 -2.199 0.266 -4.66 l 0.07 -4.473 l 1.465 -0.074 c 1.781 -0.09 1.98 0.363 0.445 1.012 c -0.563 0.234 -1.039 0.457 -1.063 0.492 c -0.027 0.035 -0.113 2.301 -0.191 5.04 c -0.125 4.219 -0.207 4.984 -0.543 5.05 c -0.215 0.043 -0.473 -0.004 -0.574 -0.102 m -17.633 -0.84 c -0.113 -0.344 -0.039 -0.633 0.219 -0.824 c 0.215 -0.16 0.426 -0.738 0.469 -1.285 l 0.078 -0.996 l 1.59 -0.074 c 0.988 -0.047 1.594 0.023 1.594 0.188 c 0 0.145 -0.551 0.258 -1.262 0.258 h -1.262 l -0.074 1.555 c -0.07 1.379 -0.141 1.566 -0.629 1.633 c -0.379 0.055 -0.605 -0.09 -0.723 -0.453 m 21.19 -0.926 c -0.074 -0.117 -0.051 -0.344 0.051 -0.504 c 0.211 -0.336 1.516 -0.082 1.625 0.313 c 0.082 0.309 -1.488 0.484 -1.676 0.191 m -13.08 -1.746 c -0.363 -0.23 -0.051 -4.672 0.359 -5.07 c 0.418 -0.41 0.512 -0.004 0.609 2.641 c 0.078 2.055 0.027 2.492 -0.289 2.547 c -0.211 0.039 -0.516 -0.016 -0.68 -0.117" fill="#707a84"/><path d="m 34.535 36.969 c 0 -1.805 -1.195 -6.527 -1.926 -7.621 c -0.219 -0.32 -0.359 -0.891 -0.316 -1.266 l 0.078 -0.676 l -2.867 -0.086 c -2.574 -0.074 -2.867 -0.039 -2.875 0.344 c -0.008 0.617 -0.891 1.652 -1.23 1.445 c -0.16 -0.098 -0.293 -0.504 -0.293 -0.906 c 0 -0.703 -0.047 -0.73 -1.145 -0.73 c -1.117 0 -1.148 0.02 -1.18 0.809 c -0.02 0.441 -0.105 2.598 -0.191 4.789 c -0.156 3.953 -0.16 3.98 -0.766 4.063 c -0.555 0.078 -0.59 0.023 -0.41 -0.621 c 0.109 -0.391 0.246 -2.637 0.305 -5 c 0.105 -4.105 0.133 -4.301 0.664 -4.574 c 0.309 -0.16 0.629 -0.395 0.715 -0.523 c 0.094 -0.137 0.387 -0.098 0.719 0.102 c 0.5 0.297 0.613 0.27 1.035 -0.234 c 0.434 -0.516 0.5 -0.531 0.719 -0.141 c 0.313 0.539 0.652 0.578 5.324 0.59 c 2.25 0.004 3.941 0.109 4.03 0.254 c 0.082 0.133 -0.199 0.313 -0.633 0.398 c -0.434 0.082 -0.832 0.227 -0.891 0.316 c -0.156 0.242 0.52 3.484 1.117 5.375 c 0.559 1.773 0.746 5.59 0.27 5.59 c -0.145 0 -0.254 -0.73 -0.254 -1.695 m -24.461 -4.242 c 0 -4.563 0.063 -5.492 0.387 -5.758 c 0.57 -0.461 4.746 -0.191 5.617 0.367 c 0.926 0.59 0.625 0.727 -0.902 0.406 c -0.719 -0.148 -1.977 -0.273 -2.801 -0.273 c -1.469 0 -1.5 0.016 -1.672 0.781 c -0.098 0.43 -0.148 2.695 -0.113 5.04 c 0.074 4.914 0.074 4.879 -0.262 4.879 c -0.164 0 -0.254 -1.98 -0.254 -5.441 m 8.777 4.832 c -0.621 -0.609 -0.625 -0.637 -0.625 -5.57 c 0 -5.484 -0.07 -5.262 1.699 -5.262 c 1.121 0 1.035 0.586 -0.102 0.695 c -1.027 0.102 -1.094 0.41 -1.109 5 c -0.012 3.281 0.047 3.82 0.52 4.723 c 0.609 1.172 0.508 1.281 -0.383 0.41 m 8.551 -3.992 c 0 -2.758 0.09 -4.363 0.246 -4.313 c 0.398 0.133 0.465 8.473 0.07 8.602 c -0.246 0.082 -0.316 -0.883 -0.316 -4.289 m -14.27 2.941 c 0 -0.227 0.199 -0.633 0.445 -0.898 c 0.363 -0.395 0.445 -0.953 0.445 -3.105 c 0 -1.883 -0.09 -2.66 -0.32 -2.734 c -0.172 -0.055 -0.316 -0.25 -0.316 -0.426 c 0 -0.348 0.688 -0.707 0.996 -0.52 c 0.293 0.18 0.266 7.438 -0.031 7.789 c -0.387 0.457 -1.219 0.387 -1.219 -0.105 m 22.781 -5.961 c -0.117 -0.617 -0.051 -1.109 0.207 -1.555 c 0.211 -0.359 0.457 -0.949 0.543 -1.313 c 0.133 -0.543 0.352 -0.695 1.207 -0.836 c 0.652 -0.105 1.148 -0.07 1.328 0.102 c 0.293 0.289 0.211 0.316 -1.086 0.375 c -0.563 0.023 -0.672 0.219 -1.145 2.078 c -0.289 1.129 -0.602 2.051 -0.703 2.051 c -0.098 0 -0.258 -0.406 -0.352 -0.902 m -11.805 -4.965 c 0.012 -0.289 0.07 -0.348 0.152 -0.148 c 0.074 0.18 0.066 0.395 -0.02 0.477 c -0.086 0.082 -0.145 -0.063 -0.133 -0.328 m 0.016 -1.656 c -0.02 -0.375 -0.156 -0.684 -0.301 -0.684 c -0.172 0 -0.164 -0.184 0.027 -0.531 c 0.16 -0.293 0.23 -0.902 0.156 -1.352 c -0.094 -0.57 -0.027 -0.855 0.227 -0.953 c 0.391 -0.145 0.719 0.695 0.574 1.477 c -0.063 0.352 0.168 0.512 1.02 0.719 c 0.605 0.148 1.023 0.344 0.93 0.438 c -0.094 0.09 -0.332 0.109 -0.527 0.035 c -0.195 -0.074 -0.414 0.047 -0.484 0.266 c -0.406 1.246 -0.449 1.293 -0.617 0.664 c -0.234 -0.859 -0.73 -0.914 -0.855 -0.094 l -0.109 0.699 m -11.98 -2.539 c -0.391 -0.582 -0.453 -1.281 -0.453 -5.121 v -4.445 l 0.816 -0.715 c 1.449 -1.262 3.426 -1.48 5.234 -0.578 c 0.988 0.492 0.91 0.938 -0.125 0.711 c -0.457 -0.098 -1.574 -0.195 -2.48 -0.215 l -1.648 -0.035 l -0.645 1.121 c -0.605 1.051 -0.641 1.32 -0.617 4.477 c 0.02 2.422 0.141 3.656 0.434 4.418 c 0.461 1.188 0.168 1.402 -0.516 0.383 m 15.13 -0.137 c -0.078 -0.305 -0.035 -1.01 0.094 -1.555 c 0.129 -0.547 0.238 -2.637 0.242 -4.648 c 0.008 -4.582 0.125 -4.93 1.641 -4.93 c 1.18 0 1.75 0.391 1.137 0.773 c -0.191 0.121 -0.66 0.16 -1.035 0.082 c -0.629 -0.129 -0.703 -0.059 -0.891 0.809 c -0.113 0.523 -0.18 2.797 -0.148 5.05 c 0.035 2.254 0 4.301 -0.078 4.539 c -0.203 0.617 -0.789 0.543 -0.961 -0.125 m 5.91 0.441 c -0.242 -0.234 0.094 -10.949 0.355 -11.262 c 0.344 -0.422 2.563 -0.422 2.422 0 c -0.055 0.172 -0.457 0.348 -0.887 0.387 c -0.535 0.055 -0.844 0.25 -0.973 0.621 c -0.105 0.301 -0.211 2.648 -0.238 5.219 c -0.039 4.164 -0.215 5.488 -0.68 5.04 m -13.645 -0.543 c -0.09 -0.227 -0.027 -0.984 0.137 -1.68 c 0.164 -0.699 0.543 -2.949 0.836 -5 c 0.297 -2.055 0.656 -3.879 0.805 -4.055 c 0.32 -0.387 3.91 -0.32 3.828 0.074 c -0.027 0.137 -0.648 0.359 -1.383 0.5 c -2.031 0.379 -2.395 1.25 -3.02 7.211 c -0.145 1.367 -0.328 2.684 -0.406 2.922 c -0.176 0.551 -0.582 0.563 -0.793 0.023 m -4.242 -0.453 c -0.094 -0.23 0 -0.453 0.223 -0.539 c 0.238 -0.09 0.375 -0.477 0.375 -1.059 c 0 -0.504 0.141 -1.055 0.309 -1.219 c 0.387 -0.379 2.852 -0.41 2.613 -0.031 c -0.094 0.145 -0.586 0.23 -1.098 0.188 l -0.93 -0.082 l -0.129 1.496 c -0.109 1.281 -0.203 1.5 -0.668 1.566 c -0.316 0.043 -0.605 -0.09 -0.695 -0.32 m 15.801 -0.793 c -0.344 -0.336 -0.152 -0.578 0.453 -0.578 c 0.742 0 1.066 0.383 0.504 0.594 c -0.52 0.195 -0.746 0.191 -0.957 -0.016 m 5.605 0 c -0.344 -0.336 -0.152 -0.578 0.453 -0.578 c 0.742 0 1.066 0.383 0.504 0.594 c -0.52 0.195 -0.746 0.191 -0.957 -0.016 m -13.449 -1.934 c -0.203 -0.203 0.223 -4.406 0.477 -4.652 c 0.25 -0.246 0.895 4.203 0.66 4.574 c -0.125 0.203 -0.949 0.258 -1.137 0.078 m -7.359 -3.945 c 0 -0.59 -0.141 -1.207 -0.316 -1.379 c -0.25 -0.246 -0.238 -0.355 0.063 -0.543 c 0.828 -0.512 1.059 -0.035 0.844 1.742 c -0.184 1.527 -0.59 1.652 -0.59 0.18" fill="#5c6062"/></svg>