<svg xmlns="http://www.w3.org/2000/svg" viewBox="0 0 48 48"><path d="m 9.926 43.16 c 36.01 23.664 58.19 -51.801 11.641 -41.809 c -19.238 4.254 -30.914 30.957 -11.641 41.809" fill="#f4f4dc"/><path d="m 58.21 869.86 h 140.94 c 0.854 0 1.542 1.083 1.542 2.396 v 103.35 c 0 1.333 -0.688 2.396 -1.542 2.396 h -140.94 c -0.854 0 -1.542 -1.063 -1.542 -2.396 v -103.35 c 0 -1.313 0.688 -2.396 1.542 -2.396" transform="matrix(0.1875 0 0 0.1875 0 -149.32)" fill="#fff" stroke="#696969" stroke-width="1.149"/><path d="m 10.816 34.34 c -0.223 -0.246 -0.539 -0.445 -0.703 -0.445 c -0.246 0 -0.297 -1.758 -0.297 -9.918 c 0 -8.156 0.051 -9.914 0.297 -9.914 c 0.164 0 0.48 -0.203 0.703 -0.445 c 0.395 -0.438 0.68 -0.445 13.328 -0.441 l 12.922 0.008 l 1.227 1.078 v 19.43 l -1.227 1.078 l -12.922 0.008 c -12.648 0.008 -12.934 0 -13.328 -0.438 m 25.695 -0.746 c 0 -0.164 0.188 -0.469 0.418 -0.676 c 0.387 -0.352 0.426 -0.965 0.578 -8.602 l 0.164 -8.227 l -0.637 -0.988 c -0.496 -0.777 -0.801 -1.02 -1.414 -1.125 c -1.016 -0.172 -21.898 -0.172 -22.914 0 c -0.609 0.105 -0.914 0.348 -1.414 1.125 l -0.637 0.988 l 0.164 8.227 c 0.152 7.637 0.195 8.25 0.582 8.602 c 0.227 0.207 0.414 0.512 0.414 0.676 c 0 0.25 2.152 0.301 12.348 0.301 c 10.195 0 12.348 -0.051 12.348 -0.301 m -23.836 -1.195 c -0.508 -0.121 -0.648 -0.836 -0.273 -1.371 c 0.199 -0.285 0.23 -0.496 0.086 -0.586 c -0.297 -0.184 -0.289 -1.074 0.016 -1.379 c 0.176 -0.176 0.176 -0.285 0 -0.395 c -0.305 -0.188 -0.316 -1.164 -0.016 -1.348 c 0.141 -0.09 0.102 -0.316 -0.113 -0.621 c -0.426 -0.609 -0.43 -1.371 -0.004 -1.793 c 0.289 -0.293 0.25 -0.359 -0.336 -0.563 l -0.66 -0.23 v -7.957 l 0.758 -0.738 l 0.762 -0.738 l 11.305 0.035 l 11.309 0.035 l 0.723 0.703 l 0.727 0.703 v 3.953 c 0 2.605 -0.082 4 -0.242 4.102 c -0.133 0.082 -3.828 0.137 -8.215 0.113 c -4.383 -0.02 -8.715 0.035 -9.629 0.117 l -1.656 0.148 l 0.246 0.652 c 0.199 0.527 0.172 0.777 -0.129 1.305 c -0.215 0.375 -0.285 0.707 -0.164 0.781 c 0.289 0.18 0.266 1.156 -0.031 1.34 c -0.176 0.109 -0.176 0.219 0 0.395 c 0.305 0.305 0.313 1.195 0.016 1.379 c -0.145 0.09 -0.113 0.301 0.086 0.586 c 0.648 0.926 -0.242 1.816 -1.168 1.168 c -0.285 -0.199 -0.492 -0.23 -0.582 -0.086 c -0.18 0.289 -1.156 0.293 -1.336 0.004 c -0.086 -0.137 -0.316 -0.109 -0.625 0.078 c -0.27 0.164 -0.652 0.258 -0.855 0.207 m 1.566 -1.988 c -0.195 -0.234 -0.328 -0.25 -0.563 -0.055 c -0.234 0.195 -0.246 0.328 -0.051 0.563 c 0.195 0.234 0.328 0.246 0.563 0.055 c 0.23 -0.195 0.246 -0.332 0.051 -0.563 m 1.781 0 c -0.195 -0.234 -0.328 -0.25 -0.563 -0.055 c -0.234 0.195 -0.246 0.328 -0.055 0.563 c 0.195 0.234 0.328 0.246 0.563 0.055 c 0.234 -0.195 0.246 -0.332 0.055 -0.563 m -1.781 -1.785 c -0.195 -0.234 -0.328 -0.246 -0.563 -0.051 c -0.234 0.191 -0.246 0.328 -0.051 0.563 c 0.195 0.234 0.328 0.246 0.563 0.051 c 0.23 -0.195 0.246 -0.328 0.051 -0.563 m 1.781 0 c -0.195 -0.234 -0.328 -0.246 -0.563 -0.051 c -0.234 0.191 -0.246 0.328 -0.055 0.563 c 0.195 0.234 0.328 0.246 0.563 0.051 c 0.234 -0.195 0.246 -0.328 0.055 -0.563 m -1.531 -1.641 c 0 -0.281 -0.574 -0.418 -0.895 -0.219 c -0.25 0.156 -0.25 0.246 -0.008 0.539 c 0.223 0.273 0.367 0.297 0.598 0.102 c 0.168 -0.137 0.305 -0.328 0.305 -0.422 m 1.777 0 c 0 -0.281 -0.57 -0.418 -0.895 -0.219 c -0.246 0.156 -0.25 0.246 -0.004 0.539 c 0.223 0.273 0.363 0.297 0.598 0.102 c 0.164 -0.137 0.305 -0.328 0.305 -0.422 m -2.203 -2.531 c -0.59 -0.266 -0.844 -0.039 -0.469 0.414 c 0.227 0.273 0.348 0.289 0.609 0.07 c 0.285 -0.238 0.266 -0.305 -0.141 -0.484 m 1.953 0.066 c -0.145 -0.09 -0.402 -0.113 -0.57 -0.051 c -0.234 0.09 -0.246 0.191 -0.047 0.43 c 0.199 0.242 0.328 0.254 0.57 0.051 c 0.242 -0.199 0.254 -0.305 0.047 -0.43 m -0.785 -3.141 c -0.348 -0.387 -0.398 -0.391 -0.785 -0.039 c -0.383 0.348 -0.387 0.398 -0.039 0.781 c 0.348 0.387 0.398 0.387 0.785 0.039 c 0.383 -0.348 0.387 -0.398 0.039 -0.781 m 1.777 0 c -0.348 -0.387 -0.398 -0.391 -0.781 -0.039 c -0.383 0.348 -0.387 0.398 -0.039 0.781 c 0.348 0.387 0.398 0.387 0.781 0.039 c 0.387 -0.348 0.387 -0.398 0.039 -0.781 m -2.551 -2.047 c 0.27 -0.328 0.117 -0.59 -0.344 -0.59 c -0.164 0 -0.297 0.199 -0.297 0.445 c 0 0.516 0.281 0.578 0.641 0.145 m 3.141 -0.145 c 0 -0.43 -0.434 -0.605 -0.738 -0.301 c -0.168 0.172 0.254 0.746 0.543 0.746 c 0.109 0 0.195 -0.199 0.195 -0.445 m -2.766 -2.402 c -0.195 -0.195 -1.016 0.656 -1.01 1.043 c 0.004 0.254 0.168 0.172 0.566 -0.281 c 0.309 -0.352 0.508 -0.695 0.441 -0.762 m 2.355 0.328 c -0.652 -0.648 -0.809 -0.352 -0.215 0.402 c 0.313 0.398 0.527 0.523 0.586 0.348 c 0.051 -0.156 -0.117 -0.492 -0.371 -0.75 m 7.945 15.285 c -0.57 -0.137 -0.664 -0.93 -0.168 -1.426 c 0.395 -0.395 0.402 -0.473 0.098 -0.781 c -0.43 -0.426 -0.43 -0.625 -0.012 -0.977 c 0.715 -0.594 1.555 0.379 0.926 1.074 c -0.32 0.355 -0.316 0.41 0.043 0.633 c 0.289 0.184 0.488 0.172 0.777 -0.039 c 0.762 -0.559 1.527 0.047 1.313 1.039 c -0.105 0.488 -0.828 0.656 -1.313 0.301 c -0.313 -0.227 -0.484 -0.227 -0.844 -0.012 c -0.25 0.152 -0.621 0.234 -0.82 0.188 m -5.684 -0.43 c -0.328 -0.855 0.855 -1.484 1.34 -0.711 c 0.168 0.27 0.152 0.469 -0.059 0.723 c -0.383 0.461 -1.105 0.453 -1.281 -0.012 m 1.945 0.043 c -0.563 -0.68 0.324 -1.566 1 -1 c 0.473 0.395 0.313 1.199 -0.258 1.281 c -0.254 0.035 -0.59 -0.086 -0.746 -0.277 m 7.844 -0.043 c -0.078 -0.199 -0.02 -0.555 0.125 -0.785 c 0.207 -0.336 0.199 -0.52 -0.051 -0.879 c -0.637 -0.91 0.227 -1.832 1.125 -1.199 c 0.336 0.234 0.484 0.234 0.805 -0.004 c 0.934 -0.684 1.836 0.43 1.016 1.25 c -0.391 0.395 -0.402 0.473 -0.094 0.781 c 0.43 0.43 0.43 0.625 -0.012 0.992 c -0.25 0.207 -0.457 0.227 -0.707 0.066 c -0.523 -0.328 -0.566 -0.648 -0.145 -1.07 c 0.344 -0.344 0.344 -0.391 -0.035 -0.668 c -0.309 -0.227 -0.504 -0.234 -0.809 -0.047 c -0.422 0.266 -0.531 0.59 -0.199 0.59 c 0.336 0 0.488 0.707 0.223 1.031 c -0.348 0.418 -1.074 0.387 -1.242 -0.059 m 3.723 0.043 c -0.563 -0.68 0.324 -1.566 1 -1 c 0.477 0.395 0.316 1.199 -0.254 1.281 c -0.258 0.035 -0.594 -0.086 -0.75 -0.277 m -13.348 -1.781 c -0.602 -0.727 0.391 -1.598 1.059 -0.93 c 0.285 0.281 0.313 0.457 0.125 0.754 c -0.324 0.516 -0.84 0.594 -1.184 0.176 m 1.777 0 c -0.598 -0.727 0.395 -1.598 1.063 -0.93 c 0.281 0.281 0.313 0.457 0.125 0.754 c -0.324 0.516 -0.84 0.594 -1.188 0.176 m 1.781 0 c -0.602 -0.727 0.395 -1.598 1.059 -0.93 c 0.285 0.281 0.313 0.457 0.129 0.754 c -0.328 0.516 -0.84 0.594 -1.188 0.176 m 10.688 0.008 c -0.473 -0.57 -0.203 -1.137 0.539 -1.137 c 0.59 0 0.668 0.078 0.668 0.668 c 0 0.512 -0.113 0.688 -0.465 0.738 c -0.258 0.035 -0.59 -0.086 -0.742 -0.27 m -14.246 -1.793 c -0.602 -0.723 0.391 -1.598 1.059 -0.93 c 0.285 0.285 0.313 0.461 0.125 0.758 c -0.324 0.516 -0.84 0.59 -1.184 0.172 m 1.777 0 c -0.598 -0.723 0.395 -1.598 1.063 -0.93 c 0.281 0.285 0.313 0.461 0.125 0.758 c -0.324 0.516 -0.84 0.59 -1.188 0.172 m 1.781 0 c -0.602 -0.723 0.395 -1.598 1.059 -0.93 c 0.285 0.285 0.313 0.461 0.129 0.758 c -0.328 0.516 -0.84 0.59 -1.188 0.172 m 1.781 0 c -0.602 -0.723 0.391 -1.598 1.059 -0.93 c 0.281 0.285 0.313 0.461 0.125 0.758 c -0.324 0.516 -0.84 0.59 -1.184 0.172 m 1.676 -1.945 c -0.297 -0.426 -0.355 -0.438 -0.48 -0.109 c -0.184 0.477 -1.121 0.484 -1.387 0.016 c -0.184 -0.332 -0.211 -0.332 -0.336 0 c -0.18 0.461 -1.184 0.461 -1.441 0 c -0.184 -0.332 -0.211 -0.332 -0.34 0 c -0.176 0.457 -1.234 0.469 -1.406 0.016 c -0.117 -0.301 -0.164 -0.297 -0.395 0.023 c -0.156 0.211 -0.492 0.328 -0.809 0.281 c -0.473 -0.066 -0.543 -0.191 -0.543 -0.965 c 0 -1.012 0.52 -1.305 1.207 -0.684 c 0.355 0.32 0.426 0.324 0.68 0.02 c 0.355 -0.434 0.762 -0.434 1.121 0 c 0.25 0.305 0.32 0.305 0.656 0 c 0.203 -0.188 0.48 -0.34 0.605 -0.34 c 0.129 0 0.363 0.152 0.516 0.34 c 0.254 0.305 0.32 0.305 0.656 0 c 0.207 -0.188 0.48 -0.34 0.609 -0.34 c 0.129 0 0.359 0.152 0.516 0.34 c 0.254 0.305 0.32 0.305 0.656 0 c 0.207 -0.188 0.461 -0.34 0.563 -0.34 c 0.102 0 0.355 0.152 0.563 0.34 c 0.336 0.305 0.402 0.305 0.656 0 c 0.156 -0.188 0.406 -0.34 0.563 -0.34 c 0.152 0 0.406 0.152 0.559 0.34 c 0.254 0.305 0.32 0.305 0.656 0 c 0.207 -0.188 0.461 -0.34 0.563 -0.34 c 0.105 0 0.355 0.152 0.563 0.34 c 0.336 0.305 0.406 0.305 0.656 0 c 0.359 -0.434 0.766 -0.434 1.125 0 c 0.25 0.305 0.32 0.301 0.676 -0.02 c 0.68 -0.617 1.207 -0.328 1.207 0.66 c 0 1.141 -0.613 1.594 -1.195 0.883 c -0.383 -0.465 -0.402 -0.469 -0.656 -0.059 c -0.34 0.543 -0.852 0.539 -1.191 -0.008 c -0.266 -0.426 -0.273 -0.426 -0.57 0 c -0.387 0.551 -0.836 0.551 -1.223 0 c -0.297 -0.426 -0.305 -0.426 -0.57 0 c -0.148 0.238 -0.414 0.43 -0.59 0.43 c -0.172 0 -0.453 -0.191 -0.617 -0.43 c -0.301 -0.426 -0.305 -0.426 -0.574 0 c -0.352 0.566 -0.824 0.547 -1.246 -0.055" fill="#d2d2d2"/><path d="m 10.1 23.789 c 0 -5.426 0.078 -8.359 0.219 -8.359 c 0.145 0 0.219 2.934 0.219 8.359 c 0 5.43 -0.074 8.359 -0.219 8.359 c -0.141 0 -0.219 -2.93 -0.219 -8.359 m 27.66 0 c 0 -5.426 0.078 -8.359 0.219 -8.359 c 0.145 0 0.219 2.934 0.219 8.359 c 0 5.43 -0.074 8.359 -0.219 8.359 c -0.141 0 -0.219 -2.93 -0.219 -8.359 m -24.953 7.586 c -0.07 -0.188 -0.016 -0.453 0.121 -0.586 c 0.309 -0.309 1.039 0.316 0.809 0.688 c -0.219 0.352 -0.777 0.289 -0.926 -0.102 m 1.777 0.102 c -0.082 -0.129 -0.004 -0.379 0.172 -0.551 c 0.277 -0.277 0.352 -0.277 0.594 0.008 c 0.148 0.18 0.211 0.43 0.133 0.555 c -0.188 0.297 -0.711 0.289 -0.898 -0.012 m 1.758 0 c -0.234 -0.371 0.5 -0.996 0.809 -0.688 c 0.137 0.133 0.191 0.398 0.117 0.586 c -0.152 0.391 -0.707 0.453 -0.926 0.102 m 3.66 -0.055 c -0.266 -0.316 -0.117 -0.574 0.34 -0.574 c 0.328 0 0.398 0.559 0.098 0.746 c -0.105 0.063 -0.305 -0.012 -0.438 -0.172 m 1.875 0.148 c -0.082 -0.078 -0.145 -0.273 -0.145 -0.434 c 0 -0.324 0.566 -0.395 0.754 -0.098 c 0.148 0.238 -0.41 0.727 -0.609 0.531 m 3.227 -0.18 c -0.074 -0.195 -0.031 -0.461 0.098 -0.586 c 0.332 -0.332 0.969 -0.031 0.879 0.418 c -0.098 0.5 -0.801 0.621 -0.977 0.168 m 1.758 0 c -0.078 -0.195 -0.035 -0.461 0.094 -0.586 c 0.336 -0.332 0.969 -0.031 0.883 0.418 c -0.098 0.5 -0.801 0.621 -0.977 0.168 m 2.801 0.031 c -0.27 -0.316 -0.117 -0.574 0.34 -0.574 c 0.324 0 0.398 0.559 0.098 0.746 c -0.109 0.063 -0.305 -0.012 -0.438 -0.172 m 3.566 -0.023 c -0.195 -0.508 0.219 -0.871 0.547 -0.48 c 0.199 0.238 0.18 0.367 -0.074 0.574 c -0.27 0.223 -0.355 0.203 -0.473 -0.094 m -1.836 -0.227 c 0 -0.18 0.145 -0.324 0.328 -0.324 c 0.18 0 0.328 0.145 0.328 0.324 c 0 0.18 -0.148 0.328 -0.328 0.328 c -0.184 0 -0.328 -0.148 -0.328 -0.328 m -18.586 -1.535 c -0.199 -0.516 0.266 -0.875 0.688 -0.531 c 0.258 0.211 0.281 0.348 0.09 0.574 c -0.328 0.395 -0.617 0.379 -0.777 -0.043 m 1.926 0.047 c -0.191 -0.227 -0.176 -0.359 0.055 -0.547 c 0.23 -0.191 0.363 -0.18 0.555 0.051 c 0.188 0.227 0.176 0.359 -0.055 0.547 c -0.23 0.191 -0.363 0.176 -0.555 -0.051 m 1.754 -0.004 c -0.188 -0.227 -0.164 -0.363 0.094 -0.574 c 0.418 -0.348 0.887 0.016 0.688 0.531 c -0.16 0.422 -0.449 0.434 -0.781 0.043 m 7.145 0.148 c -0.266 -0.262 -0.145 -0.719 0.188 -0.719 c 0.18 0 0.328 0.141 0.328 0.313 c 0 0.363 -0.313 0.609 -0.516 0.406 m 5.863 -0.176 c -0.074 -0.195 -0.031 -0.461 0.098 -0.586 c 0.336 -0.332 0.969 -0.027 0.879 0.422 c -0.098 0.496 -0.801 0.617 -0.977 0.164 m 1.758 0 c -0.074 -0.195 -0.031 -0.461 0.098 -0.586 c 0.332 -0.332 0.965 -0.027 0.879 0.422 c -0.098 0.496 -0.801 0.617 -0.977 0.164 m 2.801 0.031 c -0.191 -0.227 -0.18 -0.359 0.051 -0.547 c 0.23 -0.191 0.363 -0.18 0.555 0.051 c 0.191 0.227 0.18 0.359 -0.051 0.547 c -0.23 0.191 -0.363 0.176 -0.555 -0.051 m -14.08 -0.25 c 0 -0.176 0.148 -0.324 0.332 -0.324 c 0.18 0 0.328 0.148 0.328 0.324 c 0 0.18 -0.148 0.328 -0.328 0.328 c -0.184 0 -0.332 -0.148 -0.332 -0.328 m 1.758 0 c 0 -0.176 0.148 -0.324 0.328 -0.324 c 0.184 0 0.332 0.148 0.332 0.324 c 0 0.18 -0.148 0.328 -0.332 0.328 c -0.18 0 -0.328 -0.148 -0.328 -0.328 m 3.512 0 c 0 -0.176 0.148 -0.324 0.332 -0.324 c 0.18 0 0.328 0.148 0.328 0.324 c 0 0.18 -0.148 0.328 -0.328 0.328 c -0.184 0 -0.332 -0.148 -0.332 -0.328 m -12.438 -1.535 c -0.199 -0.512 0.27 -0.875 0.688 -0.531 c 0.258 0.211 0.281 0.352 0.094 0.578 c -0.332 0.391 -0.621 0.375 -0.781 -0.047 m 1.926 0.047 c -0.188 -0.227 -0.176 -0.359 0.055 -0.547 c 0.23 -0.191 0.363 -0.176 0.555 0.051 c 0.191 0.227 0.176 0.359 -0.055 0.547 c -0.23 0.191 -0.363 0.18 -0.555 -0.051 m 1.758 0 c -0.191 -0.227 -0.168 -0.367 0.09 -0.578 c 0.422 -0.344 0.887 0.02 0.688 0.531 c -0.16 0.422 -0.449 0.438 -0.777 0.047 m 3.488 -0.246 c 0 -0.18 0.145 -0.328 0.328 -0.328 c 0.18 0 0.328 0.148 0.328 0.328 c 0 0.176 -0.148 0.324 -0.328 0.324 c -0.184 0 -0.328 -0.148 -0.328 -0.324 m 1.754 0 c 0 -0.18 0.148 -0.328 0.328 -0.328 c 0.184 0 0.332 0.148 0.332 0.328 c 0 0.176 -0.148 0.324 -0.332 0.324 c -0.18 0 -0.328 -0.148 -0.328 -0.324 m 1.758 0 c 0 -0.18 0.148 -0.328 0.328 -0.328 c 0.18 0 0.328 0.148 0.328 0.328 c 0 0.176 -0.148 0.324 -0.328 0.324 c -0.18 0 -0.328 -0.148 -0.328 -0.324 m 1.754 0 c 0 -0.227 0.145 -0.332 0.387 -0.285 c 0.461 0.086 0.434 0.473 -0.043 0.57 c -0.199 0.043 -0.344 -0.078 -0.344 -0.285 m -12.551 -1.781 c -0.176 -0.73 0.047 -1.18 0.551 -1.109 c 0.68 0.094 0.691 1.34 0.012 1.434 c -0.305 0.043 -0.5 -0.07 -0.563 -0.324 m 1.887 0.07 c -0.223 -0.566 0.004 -1.113 0.461 -1.113 c 0.336 0 0.434 0.145 0.434 0.648 c 0 0.711 -0.668 1.059 -0.895 0.465 m 1.75 -0.016 c -0.215 -0.551 0.016 -1.098 0.492 -1.164 c 0.488 -0.07 0.723 0.387 0.57 1.098 c -0.098 0.457 -0.891 0.508 -1.063 0.066 m 3.574 0.168 c -0.234 -0.23 -0.168 -1.117 0.094 -1.277 c 0.387 -0.238 0.922 0.445 0.754 0.965 c -0.145 0.449 -0.559 0.602 -0.848 0.313 m 1.711 -0.313 c -0.09 -0.281 -0.023 -0.578 0.168 -0.77 c 0.277 -0.273 0.352 -0.273 0.59 0.012 c 0.328 0.391 0.113 1.215 -0.309 1.215 c -0.168 0 -0.367 -0.207 -0.449 -0.457 m 1.758 0 c -0.09 -0.281 -0.027 -0.578 0.168 -0.77 c 0.273 -0.273 0.352 -0.273 0.59 0.012 c 0.324 0.391 0.113 1.215 -0.313 1.215 c -0.164 0 -0.367 -0.207 -0.445 -0.457 m 1.754 0 c -0.09 -0.281 -0.023 -0.578 0.172 -0.77 c 0.273 -0.273 0.352 -0.273 0.586 0.012 c 0.328 0.391 0.117 1.215 -0.309 1.215 c -0.168 0 -0.367 -0.207 -0.449 -0.457 m 1.809 0.32 c -0.254 -0.25 -0.172 -0.879 0.148 -1.141 c 0.375 -0.309 0.871 0.195 0.758 0.777 c -0.078 0.402 -0.637 0.629 -0.906 0.363 m 1.758 0 c -0.254 -0.25 -0.176 -0.879 0.145 -1.141 c 0.379 -0.309 0.871 0.195 0.758 0.777 c -0.078 0.402 -0.637 0.629 -0.902 0.363 m 1.754 0 c -0.254 -0.25 -0.172 -0.879 0.148 -1.141 c 0.375 -0.309 0.871 0.195 0.758 0.777 c -0.078 0.402 -0.637 0.629 -0.906 0.363 m 1.758 0 c -0.254 -0.25 -0.176 -0.879 0.145 -1.141 c 0.379 -0.309 0.871 0.195 0.762 0.777 c -0.082 0.402 -0.641 0.629 -0.906 0.363 m 1.676 -0.203 c -0.172 -0.445 0.184 -1.07 0.609 -1.07 c 0.473 0 0.398 1.277 -0.078 1.371 c -0.215 0.039 -0.453 -0.094 -0.531 -0.301 m -21.762 -2.309 c -0.184 -0.18 -0.266 -1.328 -0.266 -3.758 v -3.496 l 0.727 -0.691 l 0.723 -0.695 h 21.957 l 0.703 0.715 l 0.699 0.719 v 3.473 c 0 2.414 -0.078 3.555 -0.262 3.734 c -0.383 0.375 -23.902 0.375 -24.281 0 m 3.418 -1.297 c 0.199 -0.199 0.391 -0.188 0.82 0.039 c 0.508 0.27 0.609 0.25 1.043 -0.18 c 0.375 -0.371 0.434 -0.563 0.254 -0.84 c -0.438 -0.691 -0.93 -0.852 -1.34 -0.449 c -0.352 0.352 -0.398 0.352 -0.785 0.008 c -0.441 -0.398 -0.914 -0.246 -1.348 0.43 c -0.168 0.266 -0.121 0.465 0.188 0.801 c 0.461 0.508 0.793 0.563 1.168 0.191 m 10.258 -0.613 c 0.074 -0.121 0.031 -0.219 -0.098 -0.219 c -0.129 0 -0.23 0.098 -0.23 0.219 c 0 0.117 0.043 0.215 0.094 0.215 c 0.055 0 0.16 -0.098 0.234 -0.215 m -5.16 -0.977 c 0 -0.723 -0.086 -0.977 -0.328 -0.977 c -0.246 0 -0.328 0.254 -0.328 0.977 c 0 0.723 0.082 0.977 0.328 0.977 c 0.242 0 0.328 -0.254 0.328 -0.977 m 1.758 0 c 0 -0.723 -0.086 -0.977 -0.332 -0.977 c -0.242 0 -0.328 0.254 -0.328 0.977 c 0 0.723 0.086 0.977 0.328 0.977 c 0.246 0 0.332 -0.254 0.332 -0.977 m 1.754 0 c 0 -0.723 -0.086 -0.977 -0.328 -0.977 c -0.242 0 -0.328 0.254 -0.328 0.977 c 0 0.723 0.086 0.977 0.328 0.977 c 0.242 0 0.328 -0.254 0.328 -0.977 m 3.402 -0.762 c 0.078 -0.117 0.031 -0.215 -0.094 -0.215 c -0.129 0 -0.234 0.098 -0.234 0.215 c 0 0.121 0.043 0.219 0.098 0.219 c 0.055 0 0.156 -0.098 0.23 -0.219 m -12.805 -0.359 c 0.492 -0.441 0.504 -0.688 0.055 -1.184 c -0.324 -0.352 -0.313 -0.41 0.109 -0.77 c 0.492 -0.418 0.629 -1.379 0.199 -1.379 c -0.145 0 -0.488 0.215 -0.77 0.473 c -0.426 0.398 -0.508 0.691 -0.508 1.848 c 0 1.453 0.188 1.664 0.914 1.012 m 3.258 -0.984 c 0 -1.078 -0.094 -1.441 -0.477 -1.844 c -0.266 -0.277 -0.609 -0.504 -0.77 -0.504 c -0.457 0 -0.34 0.949 0.168 1.379 c 0.422 0.359 0.43 0.418 0.109 0.77 c -0.438 0.484 -0.438 0.652 0.016 1.148 c 0.691 0.754 0.953 0.496 0.953 -0.949 m -1.879 -0.629 c -0.07 -0.113 -0.223 -0.148 -0.336 -0.078 c -0.113 0.07 -0.152 0.219 -0.078 0.332 c 0.07 0.113 0.219 0.148 0.336 0.078 c 0.113 -0.066 0.148 -0.219 0.078 -0.332 m 4.512 -0.305 c 0 -0.324 -0.125 -0.543 -0.313 -0.543 c -0.352 0 -0.551 0.406 -0.398 0.813 c 0.184 0.492 0.711 0.293 0.711 -0.27 m 1.758 0 c 0 -0.34 -0.125 -0.543 -0.332 -0.543 c -0.203 0 -0.328 0.203 -0.328 0.543 c 0 0.336 0.125 0.543 0.328 0.543 c 0.207 0 0.332 -0.207 0.332 -0.543 m 1.754 0 c 0 -0.34 -0.125 -0.543 -0.328 -0.543 c -0.203 0 -0.328 0.203 -0.328 0.543 c 0 0.336 0.125 0.543 0.328 0.543 c 0.203 0 0.328 -0.207 0.328 -0.543 m 1.758 0 c 0 -0.34 -0.125 -0.543 -0.328 -0.543 c -0.207 0 -0.332 0.203 -0.332 0.543 c 0 0.336 0.125 0.543 0.332 0.543 c 0.203 0 0.328 -0.207 0.328 -0.543 m 1.816 0.27 c 0.141 -0.402 -0.066 -0.813 -0.414 -0.813 c -0.18 0 -0.305 0.223 -0.305 0.543 c 0 0.563 0.543 0.766 0.719 0.27" fill="#adb0ad"/><path d="m 12.758 25.949 c -0.082 -0.207 -0.039 -0.48 0.094 -0.613 c 0.176 -0.176 0.281 -0.137 0.387 0.137 c 0.082 0.207 0.039 0.484 -0.094 0.617 c -0.176 0.172 -0.281 0.137 -0.387 -0.141 m 3.512 0 c -0.082 -0.207 -0.039 -0.48 0.094 -0.613 c 0.176 -0.176 0.281 -0.137 0.387 0.137 c 0.082 0.207 0.039 0.484 -0.094 0.617 c -0.176 0.172 -0.281 0.137 -0.387 -0.141 m -1.844 -0.238 c 0 -0.18 0.148 -0.324 0.328 -0.324 c 0.18 0 0.328 0.145 0.328 0.324 c 0 0.18 -0.148 0.328 -0.328 0.328 c -0.18 0 -0.328 -0.148 -0.328 -0.328 m 9.273 -2.01 l -11.688 -0.059 v -3.543 c 0 -3.473 0.008 -3.551 0.535 -4.04 l 0.535 -0.496 l 10.93 0.035 c 10.824 0.035 10.938 0.039 11.43 0.496 c 0.477 0.445 0.496 0.605 0.496 3.984 c 0 2.633 -0.066 3.539 -0.273 3.598 c -0.152 0.043 -5.535 0.055 -11.965 0.023 m -8.445 -0.742 c 0.199 -0.199 0.383 -0.191 0.797 0.027 c 0.48 0.254 0.613 0.227 1.199 -0.234 c 0.738 -0.574 0.855 -1.082 0.352 -1.5 c -0.301 -0.246 -0.289 -0.328 0.109 -0.746 c 0.344 -0.363 0.445 -0.762 0.445 -1.746 c 0 -1.145 -0.074 -1.355 -0.699 -1.996 c -0.957 -0.977 -1.52 -0.91 -1.582 0.188 c -0.031 0.527 -0.457 0.527 -0.484 0 c -0.063 -1.086 -0.574 -1.152 -1.559 -0.207 c -0.66 0.633 -0.723 0.809 -0.723 1.992 c 0 1.01 0.098 1.406 0.445 1.77 c 0.395 0.418 0.41 0.504 0.109 0.746 c -0.492 0.406 -0.414 0.828 0.266 1.422 c 0.684 0.594 0.953 0.652 1.324 0.285 m 10.586 -0.719 c 0.363 -0.434 0.121 -0.98 -0.438 -0.98 c -0.5 0 -0.777 0.469 -0.578 0.977 c 0.16 0.418 0.664 0.418 1.016 0.004 m -5.145 -0.406 c 0.207 -0.828 0.016 -1.926 -0.379 -2.168 c -0.613 -0.383 -1.063 0.195 -1.063 1.367 c 0 1.164 0.09 1.313 0.801 1.313 c 0.352 0 0.551 -0.16 0.641 -0.516 m 1.754 0.004 c 0.359 -1.418 -0.324 -2.738 -1.09 -2.109 c -0.352 0.285 -0.477 1.605 -0.215 2.277 c 0.215 0.551 1.152 0.43 1.305 -0.168 m 1.59 0.25 c 0.391 -0.387 0.332 -2.02 -0.082 -2.359 c -0.766 -0.629 -1.453 0.691 -1.094 2.109 c 0.141 0.555 0.742 0.68 1.176 0.25 m 3.535 -1.559 c 0.363 -0.434 0.055 -1 -0.551 -1 c -0.402 0 -0.527 0.117 -0.527 0.508 c 0 0.816 0.582 1.086 1.078 0.496 m -1.777 -0.516 c 0.059 -0.398 -0.035 -0.488 -0.492 -0.488 c -0.402 0 -0.563 0.117 -0.563 0.398 c 0 0.844 0.938 0.922 1.055 0.09 m -5.164 -1.594 c 0.121 -0.191 0.152 -0.613 0.07 -0.938 c -0.121 -0.484 -0.254 -0.578 -0.746 -0.52 c -0.469 0.051 -0.609 0.195 -0.664 0.676 c -0.125 1.082 0.805 1.621 1.34 0.781 m 1.758 0 c 0.367 -0.582 0.008 -1.5 -0.594 -1.5 c -0.523 0 -0.789 0.359 -0.789 1.063 c 0 0.836 0.938 1.137 1.383 0.438 m 1.754 0 c 0.371 -0.582 0.008 -1.5 -0.594 -1.5 c -0.52 0 -0.785 0.359 -0.785 1.063 c 0 0.836 0.938 1.137 1.379 0.438 m 1.758 0 c 0.371 -0.582 0.008 -1.5 -0.594 -1.5 c -0.52 0 -0.789 0.359 -0.789 1.063 c 0 0.836 0.938 1.137 1.383 0.438 m 1.68 0.141 c 0.145 -0.172 0.23 -0.586 0.191 -0.922 c -0.051 -0.453 -0.203 -0.629 -0.594 -0.684 c -0.289 -0.039 -0.605 0.059 -0.711 0.219 c -0.633 0.988 0.383 2.258 1.113 1.387" fill="#208c20"/></svg>