<svg xmlns="http://www.w3.org/2000/svg" viewBox="0 0 48 48"><path d="m 1.555 30.594 c -8.965 -25.01 23.25 -37.18 35.35 -26.992 c 12.1 10.184 16.23 27.637 2.527 36.414 c -13.707 8.781 -28.914 15.594 -37.875 -9.422" fill="#9370db"/><g stroke="#000" stroke-width="15"><path d="m 174.07 636.76 l 93.83 49.584 l 193.82 -159.96 l 100.47 52.916 l -288.44 200.56 l -167.4 -94.83" transform="matrix(0.04938 0 0 0.03868 5.132 4.772)" fill="#87aa00" fill-rule="evenodd"/><g fill="none"><path d="m 370.64 486.24 c -6.21 30.876 -19.04 53.936 -38.42 69.08 c -19.458 14.955 -45.954 22.385 -79.49 22.385 c -47.03 0 -83.46 -12.35 -109.3 -37.05 c -25.834 -24.894 -38.751 -59.918 -38.751 -104.98 c 0 -44.48 12.669 -79.22 38.09 -104.21 c 25.585 -25.18 61.11 -37.823 106.65 -37.823 c 18.299 0 36.764 1.833 55.31 5.403 c 18.713 3.666 37.84 8.877 57.3 15.824 v 74.873 h -27.821 c -2.65 -22.867 -9.191 -39.752 -19.541 -50.559 c -10.433 -10.999 -25.09 -16.596 -44.05 -16.596 c -24.509 0 -41.98 8.491 -52.33 25.472 c -10.433 16.789 -15.567 45.928 -15.567 87.61 c 0 40.717 5.05 69.76 15.235 87.22 c 10.1 17.561 26.579 26.24 49.35 26.24 c 17.885 0 32.13 -5.403 42.725 -16.21 c 10.598 -10.806 17.06 -26.341 19.541 -46.699" transform="matrix(0.04718 0 0 0.04049 5.132 4.772)"/><path d="m 617.07 212.2 v 66.831 h 64.39 v 30.351 h -64.39 v 66.831 h -29.346 v -66.831 h -64.39 v -30.351 h 64.39 v -66.831 m 250.21 0 v 66.831 h 64.39 v 30.351 h -64.39 v 66.831 h -29.346 v -66.831 h -64.39 v -30.351 h 64.39 v -66.831" transform="matrix(0.03567 0 0 0.05354 5.132 4.772)"/></g></g></svg>