<svg xmlns="http://www.w3.org/2000/svg" viewBox="0 0 48 48"><path d="m 41.844 7.605 c 27.22 41.621 -47.13 57.727 -41.21 14.91 c 2.414 -17.461 30.793 -30.832 41.21 -14.91" fill="#dcdcdc"/><path d="m 28.617 28.922 c -0.102 -0.211 -0.297 -0.477 -0.438 -0.59 c -0.297 -0.238 -0.434 -0.539 -0.578 -1.266 c -0.168 -0.855 0.125 -1.289 0.875 -1.289 c 0.297 0 0.461 0.109 1.109 0.746 c 0.934 0.914 0.957 1.078 0.277 1.672 c -0.418 0.359 -0.477 0.461 -0.414 0.684 c 0.078 0.289 -0.059 0.426 -0.426 0.43 c -0.156 0 -0.273 -0.113 -0.406 -0.383" fill="#a9a9a9" fill-rule="evenodd"/><path d="m 10.301 37 c -0.996 -0.141 -1.473 -0.398 -1.727 -0.934 l -0.168 -0.344 l 0.023 -3.711 c 0.012 -2.043 0.051 -4.914 0.086 -6.383 c 0.168 -6.609 0.152 -6.262 0.273 -6.523 c 0.191 -0.41 0.477 -0.719 1.016 -1.105 c 0.672 -0.48 0.688 -0.496 0.418 -0.441 l -0.23 0.047 l 0.125 -0.148 c 0.141 -0.168 0.863 -0.566 1.023 -0.566 c 0.059 0 0.141 -0.059 0.18 -0.125 c 0.039 -0.066 0.277 -0.23 0.523 -0.363 c 0.574 -0.305 1.031 -0.316 1.699 -0.035 c 0.371 0.156 0.504 0.18 0.82 0.141 c 0.711 -0.082 0.75 -0.098 0.66 -0.25 c -0.102 -0.168 0.016 -0.266 0.324 -0.27 c 0.113 0 0.285 -0.043 0.383 -0.098 c 0.133 -0.07 0.238 -0.078 0.41 -0.031 c 0.168 0.051 0.379 0.035 0.785 -0.047 c 0.305 -0.066 0.605 -0.098 0.664 -0.074 c 0.059 0.023 0.172 0.004 0.25 -0.051 c 0.137 -0.094 1.035 -0.203 1.789 -0.219 c 0.215 -0.004 0.453 -0.039 0.527 -0.082 c 0.18 -0.109 1.496 -0.254 1.75 -0.195 c 0.137 0.031 0.281 0.012 0.418 -0.063 c 0.113 -0.059 0.375 -0.125 0.582 -0.148 c 0.207 -0.023 0.402 -0.078 0.438 -0.125 c 0.035 -0.043 0.094 -0.246 0.137 -0.445 c 0.18 -0.898 1.078 -2.27 1.758 -2.688 c 0.48 -0.297 0.68 -0.313 3.637 -0.316 c 2.422 0 2.883 0.016 3.191 0.109 c 0.813 0.254 1.305 0.734 1.754 1.719 c 0.258 0.566 0.344 0.848 0.57 1.863 c 0.07 0.324 0.188 0.367 0.449 0.16 c 0.363 -0.281 0.488 -0.273 1.621 0.105 c 0.578 0.195 1.48 0.465 2.01 0.605 c 0.828 0.219 0.988 0.281 1.172 0.477 c 0.172 0.18 0.215 0.277 0.215 0.508 c 0 0.32 0.188 0.758 0.469 1.098 c 0.102 0.121 0.207 0.34 0.238 0.484 c 0.027 0.145 0.051 3.789 0.051 8.102 v 7.836 l -0.176 0.395 c -0.234 0.523 -0.625 0.957 -1.09 1.207 l -0.383 0.203 l -4.16 0.039 c -3.035 0.027 -4.273 0.063 -4.586 0.129 c -0.648 0.137 -2.383 0.129 -3.465 -0.016 c -0.832 -0.117 -1.406 -0.125 -5.906 -0.105 l -4.98 0.02 l -0.352 0.258 c -0.191 0.145 -0.461 0.297 -0.594 0.344 c -0.293 0.102 -3.977 0.148 -4.621 0.055 m 25.578 -2.734 c 0 -0.18 -0.074 -0.23 -0.152 -0.102 c -0.051 0.09 0.012 0.273 0.094 0.273 c 0.031 0 0.059 -0.078 0.059 -0.172 m 0.957 -0.004 c -0.023 -0.121 -0.055 -0.156 -0.102 -0.109 c -0.07 0.074 -0.02 0.285 0.074 0.285 c 0.031 0 0.043 -0.078 0.027 -0.176 m 0.254 0.09 c -0.012 -0.086 -0.102 -0.07 -0.129 0.02 c -0.016 0.047 0.008 0.07 0.055 0.059 c 0.043 -0.016 0.074 -0.051 0.074 -0.078 m 1.379 0.016 c 0 -0.133 -0.086 -0.277 -0.168 -0.277 c -0.09 0 -0.25 0.234 -0.199 0.289 c 0.051 0.051 0.367 0.043 0.367 -0.012 m 0.395 0.02 c 0 -0.125 -0.113 -0.238 -0.16 -0.164 c -0.023 0.043 -0.027 0.109 -0.004 0.145 c 0.047 0.082 0.168 0.094 0.164 0.02 m -2.676 -0.078 c 0.02 -0.035 -0.008 -0.102 -0.063 -0.148 c -0.082 -0.07 -0.098 -0.063 -0.098 0.063 c 0 0.148 0.094 0.199 0.16 0.086 m 0.301 -0.043 c 0 -0.059 -0.027 -0.105 -0.066 -0.105 c -0.035 0 -0.066 0.047 -0.066 0.105 c 0 0.055 0.031 0.102 0.066 0.102 c 0.039 0 0.066 -0.047 0.066 -0.102 m 0.926 -0.004 c 0 -0.059 -0.031 -0.09 -0.066 -0.066 c -0.039 0.023 -0.051 0.074 -0.031 0.109 c 0.059 0.098 0.098 0.078 0.098 -0.043 m 0.461 -0.07 c 0 -0.055 -0.043 -0.102 -0.098 -0.102 c -0.113 0 -0.117 0.016 -0.059 0.168 c 0.043 0.129 0.156 0.082 0.156 -0.066 m -8.707 -5.27 c 0.219 -0.117 0.246 -0.223 0.086 -0.344 c -0.137 -0.105 -0.027 -0.352 0.191 -0.422 c 0.477 -0.156 0.77 -0.98 0.41 -1.152 c -0.09 -0.043 -0.164 -0.117 -0.164 -0.16 c 0 -0.137 -0.926 -1 -1.078 -1.01 c -0.078 -0.004 -0.238 -0.008 -0.359 -0.012 c -0.203 -0.008 -0.477 0.168 -0.477 0.305 c 0 0.035 -0.047 0.113 -0.105 0.176 c -0.109 0.117 -0.102 0.375 0.031 1 c 0.098 0.461 0.238 0.719 0.469 0.863 c 0.113 0.07 0.242 0.238 0.305 0.402 c 0.184 0.488 0.313 0.555 0.691 0.348 m 8.938 -9.207 c 0.137 -0.121 0.176 -0.219 0.176 -0.449 c 0.004 -0.301 -0.07 -0.457 -0.285 -0.578 c -0.465 -0.262 -0.879 0.602 -0.488 1.016 c 0.203 0.211 0.375 0.215 0.598 0.012 m -0.453 -0.23 c -0.16 -0.43 0.191 -0.816 0.367 -0.41 c 0.055 0.129 0.055 0.219 0 0.348 c -0.086 0.195 -0.309 0.234 -0.367 0.063 m -22.77 0.074 c 0.426 -0.223 0.695 -0.695 0.309 -0.539 c -0.191 0.078 -0.844 0.715 -0.73 0.715 c 0.051 0 0.242 -0.078 0.422 -0.176 m 23.996 -0.141 c 0.09 -0.203 0.207 -0.188 0.238 0.031 c 0.023 0.152 0.027 0.152 0.148 0.035 c 0.152 -0.145 0.164 -0.395 0.023 -0.516 c -0.082 -0.074 -0.121 -0.07 -0.211 0.023 c -0.102 0.105 -0.117 0.105 -0.254 -0.031 c -0.203 -0.199 -0.289 -0.113 -0.289 0.293 c 0 0.297 0.016 0.34 0.133 0.34 c 0.078 0 0.164 -0.07 0.211 -0.176 m -19.613 -1.488 c 0 -0.07 -0.039 -0.141 -0.082 -0.156 c -0.137 -0.051 -0.25 0.023 -0.25 0.16 c 0 0.066 0.039 0.137 0.082 0.152 c 0.137 0.051 0.25 -0.023 0.25 -0.156 m 7.03 -3.223 c 0.195 -0.207 0.207 -0.406 0.031 -0.59 c -0.359 -0.379 -0.957 0.152 -0.645 0.566 c 0.176 0.234 0.402 0.242 0.613 0.023 m -0.367 -0.273 c 0 -0.117 0.035 -0.18 0.105 -0.18 c 0.066 0 0.094 0.051 0.082 0.152 c -0.031 0.219 -0.188 0.246 -0.188 0.027 m 3.5 0.375 c 0.098 0 0.145 -0.281 0.063 -0.383 c -0.117 -0.148 -0.258 -0.125 -0.32 0.047 c -0.043 0.129 -0.059 0.133 -0.094 0.039 c -0.047 -0.129 0.109 -0.328 0.254 -0.328 c 0.055 0 0.098 -0.027 0.098 -0.063 c 0 -0.227 -0.484 -0.141 -0.645 0.113 c -0.098 0.156 -0.098 0.195 -0.012 0.355 c 0.094 0.18 0.344 0.301 0.512 0.246 c 0.047 -0.016 0.113 -0.027 0.145 -0.027 m 0.723 0.004 c 0.086 -0.059 0.082 -0.082 -0.023 -0.164 c -0.09 -0.066 -0.105 -0.109 -0.047 -0.148 c 0.043 -0.027 0.059 -0.105 0.039 -0.176 c -0.02 -0.07 -0.008 -0.148 0.031 -0.172 c 0.113 -0.074 0.008 -0.176 -0.188 -0.176 c -0.25 0 -0.34 0.117 -0.34 0.461 c 0 0.383 0.25 0.559 0.527 0.375 m -2.809 -0.414 c -0.008 -0.215 -0.016 -0.395 -0.02 -0.406 c -0.004 -0.012 -0.07 0.016 -0.145 0.055 c -0.102 0.059 -0.16 0.059 -0.234 -0.008 c -0.148 -0.129 -0.258 0.02 -0.156 0.215 c 0.059 0.117 0.059 0.199 0.008 0.324 c -0.043 0.094 -0.074 0.18 -0.074 0.191 c 0 0.012 0.141 0.02 0.316 0.02 l 0.316 -0.008 m 0.883 -0.078 c 0 -0.063 0.047 -0.203 0.105 -0.32 c 0.059 -0.117 0.086 -0.262 0.063 -0.32 c -0.035 -0.102 -0.047 -0.102 -0.145 0 c -0.098 0.102 -0.121 0.102 -0.262 0.004 c -0.137 -0.094 -0.16 -0.094 -0.191 0 c -0.023 0.059 0.008 0.199 0.063 0.316 c 0.059 0.117 0.105 0.258 0.105 0.32 c 0 0.059 0.055 0.105 0.133 0.105 c 0.074 0 0.129 -0.047 0.129 -0.105 m 2.406 -0.008 c 0.035 -0.105 0.051 -0.105 0.16 0 c 0.152 0.145 0.313 0.145 0.363 0.004 c 0.07 -0.188 0.047 -0.48 -0.047 -0.617 c -0.09 -0.129 -0.094 -0.125 -0.18 0.02 l -0.09 0.148 l -0.148 -0.148 c -0.125 -0.121 -0.168 -0.129 -0.25 -0.059 c -0.102 0.09 -0.145 0.629 -0.059 0.719 c 0.082 0.086 0.207 0.051 0.25 -0.066 m 1.051 -1.742 c -0.164 -0.125 -6.02 -0.125 -6.184 0 c -0.09 0.07 0.512 0.086 3.09 0.086 c 2.582 0 3.184 -0.016 3.094 -0.086" fill="#6c6c6c"/><path d="m 10.387 36.93 c -1.039 -0.129 -1.531 -0.371 -1.777 -0.859 c -0.133 -0.273 -0.137 -0.348 -0.113 -3.398 c 0.012 -1.715 0.047 -3.18 0.074 -3.254 c 0.055 -0.156 0.133 2.219 0.137 4.078 c 0 0.691 0.027 1.379 0.063 1.531 c 0.07 0.32 0.293 0.551 0.645 0.66 c 0.324 0.102 1.68 0.172 2.152 0.109 l 0.371 -0.051 v -15.02 l -0.281 -0.043 c -0.152 -0.023 -0.648 -0.059 -1.105 -0.078 c -0.453 -0.023 -1.039 -0.055 -1.301 -0.078 l -0.48 -0.039 v -0.539 c 0 -0.754 0.199 -1.152 0.828 -1.648 c 0.914 -0.719 1.391 -0.879 3.133 -1.051 c 0.902 -0.09 1.32 -0.207 1.32 -0.367 c 0 -0.066 0.023 -0.133 0.051 -0.152 c 0.027 -0.02 0.422 -0.07 0.875 -0.113 c 4.301 -0.402 6.465 -0.641 6.711 -0.734 c 0.293 -0.113 0.375 -0.238 0.156 -0.238 c -0.156 0 -0.297 -0.172 -0.246 -0.309 c 0.027 -0.082 0.074 -0.09 0.207 -0.035 c 0.258 0.102 0.414 0.082 0.563 -0.07 c 0.086 -0.09 0.219 -0.141 0.387 -0.141 c 0.488 0 0.676 -0.074 0.75 -0.293 l 0.066 -0.203 l 0.516 0.023 l 0.512 0.023 l 0.074 -0.383 c 0.063 -0.34 0.109 -0.414 0.398 -0.66 c 0.18 -0.152 0.426 -0.313 0.543 -0.359 c 0.156 -0.059 1.02 -0.082 3.02 -0.082 c 3.152 -0.004 3.055 -0.02 3.605 0.531 c 0.242 0.246 0.277 0.32 0.32 0.699 c 0.047 0.434 0.117 0.582 0.188 0.391 c 0.051 -0.133 0.168 -0.129 0.313 0.008 c 0.078 0.074 0.27 0.109 0.633 0.121 l 0.516 0.012 l 0.066 0.234 c 0.105 0.371 0.242 0.418 0.539 0.176 c 0.332 -0.266 0.738 -0.266 1.359 0.004 c 0.434 0.184 0.445 0.199 0.449 0.441 c 0.004 0.234 0.012 0.242 0.074 0.098 c 0.047 -0.098 0.133 -0.156 0.23 -0.156 c 0.121 0 0.164 0.047 0.195 0.211 l 0.043 0.211 l 0.125 -0.141 c 0.066 -0.078 0.148 -0.141 0.176 -0.141 c 0.094 0 0.207 0.164 0.211 0.309 c 0 0.133 0.004 0.133 0.121 -0.023 c 0.109 -0.152 0.152 -0.16 0.484 -0.117 c 0.5 0.066 1.016 0.215 1.215 0.352 c 0.195 0.133 0.355 0.492 0.355 0.797 c 0 0.242 0.078 0.41 0.371 0.781 c 0.113 0.148 0.242 0.398 0.281 0.559 c 0.059 0.215 0.074 2.375 0.059 8.199 l -0.02 7.906 l -0.195 0.371 c -0.254 0.48 -0.742 0.938 -1.195 1.117 c -0.352 0.137 -0.488 0.141 -4.281 0.141 c -3.426 0 -3.984 0.016 -4.469 0.117 c -0.762 0.164 -2.84 0.164 -3.586 0 c -0.469 -0.102 -1.121 -0.117 -5.746 -0.117 h -5.215 l -0.281 0.215 c -0.605 0.473 -0.77 0.5 -2.813 0.52 c -1.02 0.012 -2.086 -0.012 -2.379 -0.047 m 18.215 -2.285 c 0 -0.148 -0.191 -0.125 -0.219 0.027 c -0.016 0.09 0.008 0.121 0.098 0.102 c 0.066 -0.016 0.121 -0.07 0.121 -0.129 m -0.758 -0.07 c 0 -0.035 -0.031 -0.066 -0.066 -0.066 c -0.035 0 -0.066 0.047 -0.066 0.109 c 0 0.059 0.031 0.086 0.066 0.063 c 0.035 -0.023 0.066 -0.07 0.066 -0.105 m 1.848 0.043 c 0 -0.055 -0.031 -0.121 -0.066 -0.145 c -0.035 -0.023 -0.066 0.023 -0.066 0.102 c 0 0.078 0.031 0.141 0.066 0.141 c 0.035 0 0.066 -0.043 0.066 -0.098 m -1.52 -0.039 c 0 -0.039 -0.027 -0.07 -0.066 -0.07 c -0.035 0 -0.063 0.031 -0.063 0.07 c 0 0.039 0.027 0.07 0.063 0.07 c 0.039 0 0.066 -0.031 0.066 -0.07 m -0.66 -0.07 c 0 -0.039 -0.012 -0.07 -0.027 -0.07 c -0.016 0 -0.047 0.031 -0.07 0.07 c -0.023 0.039 -0.008 0.07 0.027 0.07 c 0.039 0 0.07 -0.031 0.07 -0.07 m 8.625 -0.074 c 0.051 -0.055 0.113 -0.055 0.203 -0.004 c 0.09 0.051 0.148 0.047 0.203 -0.008 c 0.059 -0.063 0.098 -0.059 0.156 0.004 c 0.098 0.102 0.426 0.109 0.484 0.008 c 0.031 -0.051 0.066 -0.051 0.125 0 c 0.105 0.09 0.168 0.027 0.168 -0.168 c 0 -0.211 -0.066 -0.262 -0.199 -0.137 c -0.098 0.094 -0.117 0.094 -0.195 0 c -0.098 -0.125 -0.273 -0.137 -0.379 -0.027 c -0.059 0.063 -0.102 0.059 -0.18 -0.008 c -0.074 -0.063 -0.125 -0.066 -0.188 -0.016 c -0.051 0.047 -0.117 0.051 -0.18 0.012 c -0.281 -0.188 -0.582 -0.008 -0.488 0.289 c 0.043 0.145 0.352 0.18 0.469 0.055 m 1.805 -0.285 c 0 -0.09 -0.051 -0.125 -0.168 -0.125 c -0.184 0 -0.195 0.043 -0.094 0.324 c 0.07 0.188 0.074 0.191 0.168 0.059 c 0.051 -0.074 0.094 -0.191 0.094 -0.258 m 0.578 0.211 c 0.012 -0.055 -0.023 -0.16 -0.078 -0.234 c -0.078 -0.109 -0.121 -0.121 -0.215 -0.063 c -0.066 0.043 -0.129 0.156 -0.141 0.254 c -0.02 0.16 0 0.176 0.195 0.156 c 0.125 -0.008 0.227 -0.059 0.238 -0.113 m 0.477 0.125 c 0 -0.051 -0.207 -0.461 -0.234 -0.461 c -0.012 0 -0.059 0.063 -0.098 0.141 c -0.086 0.172 0.016 0.344 0.207 0.344 c 0.07 0 0.125 -0.012 0.125 -0.023 m -12.211 -0.117 c 0 -0.035 -0.027 -0.066 -0.063 -0.066 c -0.039 0 -0.066 0.031 -0.066 0.066 c 0 0.039 0.027 0.07 0.066 0.07 c 0.035 0 0.063 -0.031 0.063 -0.07 m 4.078 -0.012 c -0.016 -0.043 -0.063 -0.094 -0.105 -0.109 c -0.047 -0.016 -0.063 0.016 -0.035 0.082 c 0.043 0.125 0.18 0.152 0.141 0.027 m 0.676 -0.258 c 0 -0.082 -0.129 -0.172 -0.176 -0.121 c -0.047 0.051 0.035 0.184 0.113 0.184 c 0.035 0 0.063 -0.027 0.063 -0.063 m -5.711 -0.145 c 0.023 -0.039 0.012 -0.07 -0.027 -0.07 c -0.039 0 -0.07 0.031 -0.07 0.07 c 0 0.039 0.012 0.07 0.031 0.07 c 0.016 0 0.047 -0.031 0.066 -0.07 m 4.34 -4.18 c 0.102 -0.078 0.098 -0.117 -0.039 -0.453 c -0.082 -0.199 -0.184 -0.398 -0.223 -0.441 c -0.055 -0.055 -0.02 -0.137 0.137 -0.301 c 0.156 -0.164 0.313 -0.242 0.621 -0.313 c 0.508 -0.109 0.523 -0.191 0.152 -0.777 c -0.145 -0.227 -0.293 -0.52 -0.328 -0.652 c -0.453 -1.727 -2.668 -1.926 -3.367 -0.305 c -0.418 0.973 0.094 2.195 1.055 2.531 c 0.176 0.063 0.355 0.16 0.398 0.215 c 0.191 0.246 0.293 0.238 0.652 -0.043 c 0.395 -0.316 0.48 -0.34 0.453 -0.121 c -0.016 0.105 -0.07 0.16 -0.168 0.164 c -0.191 0.012 -0.43 0.309 -0.34 0.422 c 0.121 0.152 0.832 0.207 0.996 0.074 m 0.563 -0.41 c -0.012 -0.047 -0.059 -0.098 -0.102 -0.109 c -0.051 -0.02 -0.066 0.012 -0.039 0.082 c 0.047 0.125 0.18 0.152 0.141 0.027 m 0.34 -0.488 c 0.094 -0.281 0.043 -0.328 -0.324 -0.273 c -0.348 0.055 -0.379 0.164 -0.098 0.359 c 0.27 0.188 0.336 0.172 0.422 -0.086 m -7.355 -9.06 c 0.91 -0.641 1.457 -0.934 2.445 -1.301 c 0.898 -0.336 0.875 -0.383 -0.063 -0.133 c -0.719 0.191 -1.785 0.699 -2.422 1.152 c -0.664 0.477 -2.035 1.934 -2.035 2.168 c 0 0.02 0.305 -0.285 0.68 -0.676 c 0.426 -0.441 0.953 -0.902 1.395 -1.211 m 0.395 1.871 c 0.02 -0.031 -0.02 -0.113 -0.09 -0.176 c -0.133 -0.129 -0.23 -0.055 -0.164 0.129 c 0.043 0.117 0.195 0.148 0.254 0.047 m 0.234 -0.242 c 0 -0.051 -0.039 -0.133 -0.09 -0.176 c -0.129 -0.109 -0.215 0.031 -0.105 0.172 c 0.102 0.125 0.195 0.129 0.195 0.004 m 0.465 -0.34 c 0 -0.102 -0.129 -0.258 -0.211 -0.258 c -0.066 0 -0.074 0.234 -0.012 0.301 c 0.078 0.078 0.223 0.051 0.223 -0.043 m 0.301 -0.195 c 0.063 -0.113 -0.152 -0.32 -0.238 -0.227 c -0.039 0.039 -0.051 0.125 -0.027 0.188 c 0.051 0.129 0.199 0.152 0.266 0.039 m 0.25 -0.324 c -0.09 -0.152 -0.184 -0.145 -0.211 0.016 c -0.027 0.148 0.125 0.27 0.219 0.172 c 0.043 -0.047 0.039 -0.109 -0.008 -0.188 m 0.77 -0.25 c 0 -0.055 -0.047 -0.133 -0.102 -0.184 c -0.082 -0.07 -0.098 -0.063 -0.098 0.051 c 0 0.074 0.02 0.156 0.043 0.184 c 0.074 0.074 0.156 0.051 0.156 -0.051 m 0.395 -0.141 c 0 -0.117 -0.16 -0.266 -0.223 -0.203 c -0.098 0.102 -0.039 0.301 0.09 0.301 c 0.074 0 0.133 -0.043 0.133 -0.098 m 4.355 -0.043 c 0 -0.09 -0.043 -0.137 -0.133 -0.137 c -0.125 0 -0.18 0.137 -0.086 0.23 c 0.09 0.094 0.219 0.043 0.219 -0.094 m -4.105 -0.082 c -0.016 -0.043 -0.063 -0.094 -0.105 -0.109 c -0.051 -0.016 -0.063 0.016 -0.039 0.082 c 0.047 0.129 0.184 0.152 0.145 0.027 m 3.711 -0.023 c 0 -0.059 -0.047 -0.125 -0.105 -0.148 c -0.125 -0.051 -0.258 0.074 -0.195 0.18 c 0.066 0.113 0.301 0.09 0.301 -0.031 m -0.465 -0.176 c 0 -0.148 -0.098 -0.18 -0.172 -0.055 c -0.031 0.059 -0.07 0.043 -0.133 -0.043 c -0.066 -0.098 -0.105 -0.105 -0.176 -0.047 c -0.066 0.059 -0.109 0.055 -0.168 -0.004 c -0.055 -0.059 -0.098 -0.063 -0.148 -0.004 c -0.105 0.105 -0.004 0.246 0.145 0.203 c 0.07 -0.016 0.141 -0.008 0.16 0.023 c 0.016 0.031 0.086 0.043 0.156 0.023 c 0.066 -0.02 0.145 0 0.168 0.043 c 0.066 0.105 0.168 0.02 0.168 -0.141 m -15.668 0.004 c 0.668 -0.18 0.992 -0.406 1.16 -0.805 c 0.203 -0.484 0.063 -1.117 -0.309 -1.375 c -0.199 -0.137 -0.934 -0.313 -1.313 -0.316 c -0.578 0 -1.926 1.195 -2.402 2.137 l -0.215 0.422 l 0.184 0.027 c 0.102 0.016 0.676 0.035 1.277 0.039 c 0.906 0.008 1.188 -0.012 1.617 -0.129 m -1.43 -0.156 c -0.488 -0.344 -0.578 -0.973 -0.215 -1.52 c 0.262 -0.398 0.637 -0.566 1.188 -0.531 c 0.633 0.043 1.031 0.418 1.023 0.961 c -0.008 0.859 -1.313 1.57 -1.996 1.09 m 0.66 -0.801 c 0.273 -0.156 0.5 -0.547 0.391 -0.684 c -0.234 -0.301 -1.176 0.16 -1.176 0.574 c 0 0.25 0.43 0.309 0.785 0.109 m 14.207 0.875 c -0.059 -0.066 -0.078 -0.047 -0.078 0.082 c 0 0.129 0.02 0.148 0.078 0.086 c 0.063 -0.066 0.063 -0.102 0 -0.168 m 0.484 0.016 c 0 -0.152 -0.258 -0.133 -0.285 0.02 c -0.02 0.102 0.008 0.125 0.129 0.105 c 0.086 -0.012 0.156 -0.07 0.156 -0.125 m 0.477 0.016 c 0.035 -0.113 -0.172 -0.195 -0.258 -0.102 c -0.039 0.039 -0.051 0.109 -0.023 0.152 c 0.059 0.098 0.246 0.066 0.281 -0.051 m 9.449 -0.129 c 0.301 -0.402 0.082 -1.066 -0.352 -1.066 c -0.508 0 -0.734 0.828 -0.32 1.16 c 0.191 0.152 0.52 0.105 0.672 -0.094 m -0.48 -0.145 c -0.082 -0.086 -0.043 -0.559 0.047 -0.598 c 0.129 -0.051 0.242 0.086 0.242 0.301 c 0 0.242 -0.172 0.422 -0.289 0.297 m 1.191 -0.066 l 0.117 -0.188 l 0.035 0.164 c 0.059 0.258 0.191 0.242 0.301 -0.035 c 0.094 -0.23 0.094 -0.273 -0.004 -0.422 c -0.113 -0.188 -0.168 -0.203 -0.281 -0.086 c -0.063 0.063 -0.117 0.063 -0.242 -0.008 c -0.262 -0.148 -0.367 -0.055 -0.367 0.328 c 0 0.188 0.02 0.359 0.043 0.383 c 0.098 0.105 0.289 0.035 0.398 -0.137 m -19.516 -1.273 c 0.16 -0.168 0.164 -0.203 0.031 -0.398 c -0.125 -0.188 -0.398 -0.203 -0.57 -0.039 c -0.137 0.129 -0.156 0.371 -0.039 0.492 c 0.121 0.129 0.434 0.102 0.578 -0.055 m 18.941 -1.961 c 0 -0.031 -0.031 -0.039 -0.066 -0.016 c -0.035 0.023 -0.066 0.098 -0.066 0.16 c 0.004 0.102 0.012 0.102 0.066 0.016 c 0.035 -0.059 0.066 -0.133 0.066 -0.16 m -12.04 -1.422 c 0.137 -0.094 0.23 -0.359 0.188 -0.539 c -0.063 -0.25 -0.305 -0.402 -0.551 -0.344 c -0.559 0.129 -0.512 0.938 0.047 0.938 c 0.137 -0.004 0.277 -0.027 0.316 -0.055 m -0.297 -0.402 c 0.004 -0.082 0.02 -0.098 0.039 -0.043 c 0.02 0.051 0.02 0.109 -0.004 0.133 c -0.023 0.023 -0.039 -0.016 -0.035 -0.09 m 1.488 0.375 c 0.02 -0.035 0 -0.109 -0.043 -0.16 c -0.047 -0.063 -0.063 -0.199 -0.035 -0.371 c 0.047 -0.285 -0.047 -0.406 -0.23 -0.289 c -0.051 0.035 -0.145 0.027 -0.215 -0.012 c -0.195 -0.109 -0.352 0.078 -0.242 0.289 c 0.059 0.117 0.059 0.199 0.004 0.328 c -0.039 0.09 -0.059 0.191 -0.043 0.223 c 0.047 0.074 0.758 0.066 0.805 -0.008 m 0.863 -0.23 c 0.152 -0.422 0.148 -0.629 -0.016 -0.602 c -0.223 0.039 -0.324 0.035 -0.441 -0.02 c -0.172 -0.078 -0.219 0.133 -0.098 0.434 c 0.055 0.141 0.117 0.313 0.141 0.383 c 0.066 0.223 0.305 0.113 0.414 -0.195 m 2.309 0.23 c 0.051 -0.043 0.121 -0.035 0.203 0.02 c 0.242 0.16 0.344 0.035 0.344 -0.414 c 0 -0.441 -0.105 -0.582 -0.293 -0.387 c -0.086 0.094 -0.113 0.094 -0.25 0 c -0.09 -0.063 -0.184 -0.078 -0.238 -0.043 c -0.051 0.031 -0.172 0.023 -0.277 -0.02 c -0.258 -0.102 -0.539 0.008 -0.594 0.23 c -0.043 0.172 -0.043 0.172 -0.07 -0.035 c -0.023 -0.191 -0.043 -0.207 -0.277 -0.199 c -0.438 0.016 -0.68 0.422 -0.438 0.742 c 0.133 0.176 0.145 0.18 0.973 0.176 c 0.461 0 0.875 -0.031 0.918 -0.07 m -19.266 2.262 c -0.086 -0.09 -0.055 -0.172 0.133 -0.352 c 0.336 -0.328 0.672 -0.461 1.168 -0.465 c 0.566 -0.004 1.043 0.227 1.078 0.523 l 0.02 0.176 l -0.582 -0.031 c -0.52 -0.031 -1.125 0.027 -1.605 0.156 c -0.09 0.023 -0.188 0.02 -0.211 -0.008 m 3.754 -0.84 c -0.109 -0.113 -0.023 -0.168 0.207 -0.129 c 0.195 0.035 0.289 0.016 0.426 -0.098 c 0.254 -0.211 0.523 -0.043 0.301 0.191 c -0.082 0.086 -0.855 0.117 -0.934 0.035 m 2.168 -0.23 c -0.078 -0.133 0.035 -0.195 0.285 -0.16 c 0.18 0.027 0.285 0.004 0.359 -0.074 c 0.059 -0.063 0.168 -0.113 0.242 -0.113 c 0.176 0 0.184 0.246 0.008 0.344 c -0.164 0.094 -0.84 0.094 -0.895 0.004 m 2.188 -0.184 c -0.023 -0.027 -0.043 -0.094 -0.043 -0.145 c 0 -0.078 0.059 -0.09 0.25 -0.055 c 0.199 0.035 0.289 0.012 0.426 -0.098 c 0.242 -0.203 0.445 -0.191 0.445 0.027 c 0 0.098 -0.055 0.203 -0.125 0.242 c -0.141 0.078 -0.883 0.098 -0.953 0.027" fill="#4e4e4e"/><path d="m 10.289 36.863 c -1.01 -0.141 -1.445 -0.367 -1.656 -0.852 c -0.105 -0.25 -0.121 -0.445 -0.117 -1.398 l 0.008 -1.109 l 0.086 0.941 c 0.098 1.094 0.176 1.449 0.355 1.617 c 0.18 0.172 0.582 0.313 0.91 0.316 c 0.258 0 0.281 -0.012 0.281 -0.172 c 0 -0.164 0.023 -0.172 0.348 -0.18 c 0.188 0 1.168 -0.027 2.168 -0.055 c 1.555 -0.043 1.852 -0.07 2 -0.172 l 0.168 -0.117 v -7.48 c 0 -6.633 -0.008 -7.492 -0.098 -7.57 c -0.074 -0.063 -0.648 -0.102 -2.105 -0.141 c -2 -0.055 -2.48 -0.094 -2.48 -0.211 c 0 -0.035 0.008 -0.066 0.016 -0.07 c 0.008 -0.004 0.848 -0.031 1.863 -0.063 c 2.293 -0.07 2.859 -0.195 3.348 -0.738 c 0.34 -0.375 0.395 -0.777 0.191 -1.391 l -0.117 -0.367 h 0.145 c 0.18 0 0.688 0.555 0.891 0.973 c 0.078 0.16 0.168 0.266 0.195 0.234 c 0.031 -0.035 0.27 -0.563 0.531 -1.172 c 0.262 -0.609 0.504 -1.125 0.535 -1.148 c 0.113 -0.074 3.484 -0.438 3.539 -0.379 c 0.02 0.016 -0.031 0.164 -0.105 0.328 c -0.074 0.164 -0.164 0.484 -0.199 0.715 c -0.09 0.578 -0.059 0.598 0.977 0.574 l 0.82 -0.02 l 0.469 -0.852 c 0.254 -0.469 0.547 -0.961 0.648 -1.094 l 0.184 -0.238 l 0.324 0.172 c 0.523 0.281 0.621 0.223 0.438 -0.25 c -0.086 -0.215 -0.086 -0.465 0 -0.883 c 0.047 -0.246 0.223 -0.055 0.223 0.246 c 0 0.129 0.031 0.297 0.07 0.371 c 0.063 0.129 0.172 0.133 3.449 0.133 c 2.543 0 3.402 -0.02 3.461 -0.082 c 0.047 -0.047 0.082 -0.188 0.082 -0.316 c 0 -0.129 0.031 -0.297 0.07 -0.379 c 0.098 -0.188 0.168 -0.07 0.227 0.379 c 0.035 0.25 0.02 0.379 -0.059 0.504 c -0.059 0.094 -0.105 0.227 -0.105 0.301 c 0 0.176 -0.141 0.289 -0.418 0.336 c -0.211 0.035 -0.359 0.223 -0.262 0.324 c 0.035 0.039 1.07 -0.332 1.352 -0.484 c 0.098 -0.051 0.223 -0.094 0.281 -0.094 c 0.117 0 0.52 0.633 1.02 1.613 c 0.34 0.668 0.348 0.676 0.59 0.676 c 0.199 0 0.277 -0.043 0.395 -0.211 c 0.219 -0.309 0.531 -0.289 0.793 0.043 c 0.195 0.254 0.348 0.273 0.305 0.047 c -0.172 -0.902 -0.137 -0.84 -0.938 -1.695 l -0.758 -0.805 l 0.254 -0.184 c 0.285 -0.203 0.578 -0.227 0.914 -0.082 c 0.211 0.094 0.219 0.113 0.184 0.383 c -0.031 0.254 -0.02 0.281 0.105 0.281 c 0.074 0 0.168 -0.063 0.207 -0.137 c 0.102 -0.199 0.199 -0.172 0.199 0.063 c 0 0.254 0.164 0.328 0.313 0.145 c 0.152 -0.184 0.215 -0.172 0.215 0.039 c 0 0.238 0.191 0.309 0.316 0.113 c 0.129 -0.203 0.211 -0.191 0.211 0.023 c 0 0.242 0.188 0.305 0.336 0.113 c 0.152 -0.199 0.191 -0.188 0.191 0.051 c 0 0.113 0.043 0.219 0.098 0.238 c 0.098 0.043 0.301 -0.117 0.301 -0.234 c 0 -0.035 0.027 -0.066 0.059 -0.066 c 0.035 0 0.074 0.102 0.086 0.227 c 0.023 0.266 0.207 0.34 0.313 0.125 c 0.055 -0.105 0.055 -0.184 0 -0.289 c -0.07 -0.137 -0.063 -0.145 0.094 -0.105 c 0.535 0.141 0.695 0.313 0.762 0.816 c 0.055 0.43 0.113 0.555 0.43 0.953 c 0.148 0.188 0.254 0.414 0.301 0.652 c 0.047 0.254 0.066 2.719 0.051 8.098 l -0.016 7.73 l -0.176 0.395 c -0.309 0.691 -0.891 1.156 -1.633 1.305 c -0.215 0.043 -1.879 0.07 -4.191 0.074 c -3.133 0 -3.938 0.02 -4.395 0.105 c -0.738 0.137 -2.363 0.137 -3.113 0 c -0.477 -0.09 -1.434 -0.109 -5.898 -0.109 l -5.332 -0.004 l -0.238 0.172 c -0.129 0.098 -0.383 0.246 -0.566 0.332 c -0.316 0.156 -0.395 0.16 -2.309 0.172 c -1.09 0.004 -2.172 -0.016 -2.41 -0.051 m 18.395 -2.117 c 0.023 -0.063 -0.008 -0.164 -0.07 -0.227 c -0.09 -0.094 -0.133 -0.098 -0.238 -0.027 c -0.094 0.063 -0.133 0.063 -0.133 0.008 c 0 -0.047 -0.066 -0.063 -0.164 -0.043 c -0.094 0.016 -0.18 0.008 -0.199 -0.02 c -0.016 -0.027 -0.141 -0.047 -0.277 -0.043 c -0.18 0.008 -0.254 0.043 -0.27 0.129 c -0.016 0.082 0.02 0.121 0.102 0.121 c 0.066 0 0.156 0.035 0.195 0.078 c 0.043 0.047 0.113 0.055 0.164 0.02 c 0.145 -0.094 0.508 -0.082 0.543 0.02 c 0.047 0.129 0.297 0.117 0.348 -0.016 m 0.707 -0.02 c 0.047 -0.078 -0.133 -0.336 -0.191 -0.277 c -0.059 0.063 0.023 0.336 0.102 0.336 c 0.031 0 0.07 -0.027 0.09 -0.059 m 0.391 -0.039 c 0.02 -0.055 -0.004 -0.156 -0.055 -0.227 c -0.086 -0.121 -0.098 -0.121 -0.203 -0.008 c -0.094 0.098 -0.098 0.137 -0.027 0.223 c 0.105 0.137 0.238 0.141 0.285 0.012 m 0.309 -0.145 c 0 -0.109 -0.035 -0.176 -0.098 -0.176 c -0.098 0 -0.137 0.215 -0.055 0.301 c 0.09 0.098 0.152 0.043 0.152 -0.125 m 0.238 -0.227 c -0.074 -0.074 -0.121 0.047 -0.07 0.172 c 0.051 0.117 0.055 0.117 0.082 -0.004 c 0.016 -0.07 0.008 -0.145 -0.012 -0.168 m 6.066 0.168 c 0.145 -0.012 0.313 0.004 0.375 0.035 c 0.059 0.031 0.242 0.035 0.41 0.012 c 0.227 -0.031 0.309 -0.078 0.344 -0.188 c 0.043 -0.145 0.043 -0.145 0.098 0.008 c 0.07 0.199 0.246 0.199 0.32 0 c 0.059 -0.152 0.063 -0.152 0.066 -0.008 c 0.004 0.129 0.051 0.148 0.48 0.184 c 0.266 0.02 0.5 0.016 0.531 -0.012 c 0.074 -0.074 -0.145 -0.492 -0.258 -0.492 c -0.051 0 -0.113 0.051 -0.137 0.109 c -0.035 0.098 -0.059 0.09 -0.16 -0.051 c -0.105 -0.145 -0.133 -0.152 -0.258 -0.074 c -0.109 0.07 -0.164 0.074 -0.234 0.012 c -0.066 -0.059 -0.191 -0.063 -0.453 -0.016 c -0.23 0.043 -0.383 0.043 -0.426 0 c -0.035 -0.039 -0.141 -0.047 -0.25 -0.012 c -0.234 0.066 -0.535 0.066 -0.734 0 c -0.086 -0.027 -0.227 -0.031 -0.313 -0.012 c -0.133 0.035 -0.16 0.09 -0.16 0.281 c 0 0.258 0.078 0.328 0.328 0.273 c 0.09 -0.02 0.285 -0.043 0.43 -0.051 m -9.34 -0.063 c 0 -0.102 -0.32 -0.273 -0.406 -0.219 c -0.031 0.02 -0.055 0.098 -0.055 0.168 c 0 0.109 0.047 0.137 0.23 0.137 c 0.141 0 0.23 -0.035 0.23 -0.086 m 3.867 -0.012 c 0.02 -0.055 0.09 -0.082 0.16 -0.059 c 0.152 0.039 0.25 -0.16 0.137 -0.281 c -0.059 -0.059 -0.105 -0.059 -0.203 0.004 c -0.07 0.047 -0.172 0.066 -0.223 0.047 c -0.133 -0.055 -0.195 0.078 -0.109 0.246 c 0.082 0.164 0.188 0.184 0.238 0.043 m -4.605 -0.195 c 0.016 -0.098 -0.258 -0.266 -0.297 -0.188 c -0.008 0.016 -0.055 -0.023 -0.102 -0.082 c -0.047 -0.063 -0.164 -0.133 -0.266 -0.16 c -0.102 -0.023 -0.18 -0.09 -0.18 -0.145 c 0 -0.148 -0.184 -0.129 -0.262 0.027 c -0.055 0.105 -0.035 0.152 0.102 0.25 c 0.094 0.063 0.27 0.133 0.395 0.152 c 0.125 0.023 0.227 0.078 0.227 0.129 c 0 0.18 0.348 0.191 0.383 0.016 m 5.258 -0.164 c 0 -0.086 -0.051 -0.141 -0.148 -0.156 c -0.164 -0.023 -0.199 0.113 -0.066 0.254 c 0.105 0.113 0.215 0.066 0.215 -0.098 m 0.141 -0.219 c -0.066 -0.07 -0.125 0.035 -0.066 0.129 c 0.039 0.07 0.055 0.07 0.078 0 c 0.016 -0.047 0.008 -0.105 -0.012 -0.129 m 0.355 -0.02 c 0 -0.078 -0.047 -0.16 -0.102 -0.184 c -0.137 -0.055 -0.184 0.008 -0.133 0.18 c 0.059 0.184 0.234 0.188 0.234 0.004 m 0.297 -0.066 c 0.047 -0.082 -0.078 -0.348 -0.168 -0.348 c -0.109 0 -0.148 0.203 -0.063 0.313 c 0.094 0.121 0.172 0.133 0.23 0.035 m -2.039 -3.898 c 0.078 -0.078 0.082 -0.145 0.027 -0.297 c -0.09 -0.25 -0.02 -0.328 0.113 -0.125 c 0.145 0.227 0.305 0.191 0.504 -0.109 c 0.281 -0.422 0.363 -0.914 0.16 -0.914 c -0.043 0 -0.043 -0.031 0.004 -0.09 c 0.047 -0.059 0.059 -0.348 0.035 -0.84 c -0.043 -0.945 -0.184 -1.363 -0.629 -1.875 c -1.273 -1.465 -3.52 -0.953 -4.082 0.922 c -0.168 0.559 -0.168 0.988 0 1.547 c 0.309 1.047 1.094 1.648 2.34 1.793 c 0.359 0.039 0.672 0.094 0.691 0.113 c 0.07 0.078 0.738 -0.023 0.836 -0.125 m 7.582 -2 c 0.07 -0.121 -0.035 -0.223 -0.137 -0.133 c -0.051 0.043 -0.074 0.109 -0.055 0.141 c 0.047 0.082 0.141 0.078 0.191 -0.008 m -0.008 -1.539 c -0.016 -0.031 -0.074 -0.055 -0.129 -0.055 c -0.078 0 -0.078 0.023 -0.016 0.137 c 0.059 0.094 0.098 0.109 0.129 0.055 c 0.027 -0.043 0.035 -0.105 0.016 -0.137 m 0.555 -0.313 c -0.098 -0.219 -0.352 -0.367 -0.719 -0.418 c -0.371 -0.051 -0.32 0.09 0.066 0.188 c 0.348 0.09 0.488 0.211 0.566 0.48 c 0.043 0.148 0.059 0.152 0.113 0.055 c 0.039 -0.078 0.031 -0.18 -0.027 -0.305 m -17.18 -3.453 c 0.656 -1.063 1.609 -2.078 2.605 -2.777 c 1.504 -1.051 2.891 -1.492 5.05 -1.613 l 0.926 -0.055 l -0.359 -0.086 c -0.504 -0.121 -1.84 -0.109 -2.508 0.027 c -1.723 0.344 -3.148 1.105 -4.422 2.367 c -0.977 0.965 -1.734 2.16 -2.109 3.332 c -0.242 0.758 -0.145 0.703 0.277 -0.152 c 0.227 -0.461 0.469 -0.926 0.539 -1.043 m 12.191 -0.703 c 0.121 -0.117 0.164 -0.305 0.07 -0.301 c -0.117 0.004 -0.363 0.262 -0.32 0.336 c 0.063 0.105 0.105 0.098 0.25 -0.035 m -9.121 -0.238 c 0.16 -0.152 0.422 -0.344 0.574 -0.426 c 0.156 -0.082 0.285 -0.176 0.285 -0.207 c 0 -0.031 0.043 -0.055 0.09 -0.055 c 0.051 0 0.129 -0.047 0.176 -0.105 c 0.063 -0.082 0.059 -0.137 -0.027 -0.277 c -0.102 -0.164 -0.371 -0.246 -0.371 -0.109 c 0 0.031 -0.113 0.125 -0.254 0.199 c -0.137 0.078 -0.336 0.223 -0.438 0.32 c -0.102 0.098 -0.223 0.18 -0.266 0.18 c -0.047 0 -0.102 0.047 -0.121 0.105 c -0.023 0.055 -0.086 0.102 -0.141 0.102 c -0.145 0 -0.133 0.391 0.016 0.48 c 0.16 0.098 0.148 0.105 0.477 -0.207 m 8.754 -0.172 c 0.156 -0.25 0.027 -0.379 -0.164 -0.164 c -0.148 0.168 -0.168 0.223 -0.098 0.293 c 0.082 0.086 0.148 0.051 0.262 -0.129 m -9.215 -0.355 c 1.129 -0.914 2.551 -1.543 3.984 -1.758 c 0.402 -0.063 0.398 -0.063 -0.125 -0.031 c -1.41 0.078 -3.02 0.82 -4.121 1.91 c -0.41 0.402 -0.355 0.379 0.262 -0.121 m 8.781 0.043 c 0.086 -0.172 0.035 -0.355 -0.086 -0.305 c -0.117 0.047 -0.262 0.301 -0.215 0.383 c 0.07 0.113 0.223 0.07 0.301 -0.078 m -0.492 -0.379 c 0.023 -0.098 0.023 -0.195 0.004 -0.219 c -0.066 -0.07 -0.242 0.125 -0.242 0.262 c 0 0.195 0.191 0.16 0.238 -0.043 m -6.258 -0.098 c 0.063 -0.035 0.172 -0.086 0.246 -0.117 c 0.07 -0.027 0.266 -0.102 0.43 -0.164 c 0.336 -0.129 0.383 -0.238 0.199 -0.488 c -0.102 -0.137 -0.145 -0.156 -0.211 -0.086 c -0.043 0.047 -0.148 0.086 -0.23 0.086 c -0.082 0 -0.164 0.031 -0.188 0.066 c -0.02 0.039 -0.078 0.051 -0.129 0.031 c -0.051 -0.02 -0.125 0.027 -0.164 0.105 c -0.043 0.082 -0.113 0.125 -0.168 0.102 c -0.152 -0.063 -0.195 0.16 -0.074 0.355 c 0.121 0.195 0.129 0.199 0.289 0.109 m 5.059 -0.395 c 0.055 -0.152 -0.074 -0.305 -0.262 -0.305 c -0.086 0 -0.172 -0.031 -0.195 -0.07 c -0.023 -0.035 -0.129 -0.066 -0.234 -0.066 c -0.105 0 -0.195 -0.027 -0.195 -0.063 c 0 -0.031 -0.18 -0.09 -0.398 -0.125 c -0.367 -0.063 -0.41 -0.055 -0.555 0.086 l -0.156 0.152 l 0.141 0.078 c 0.082 0.043 0.352 0.121 0.605 0.176 c 0.254 0.055 0.566 0.133 0.695 0.168 c 0.352 0.102 0.508 0.094 0.555 -0.031 m -2.109 -0.309 c 0.043 -0.047 0.039 -0.109 -0.008 -0.188 c -0.051 -0.09 -0.172 -0.121 -0.457 -0.133 c -0.211 -0.004 -0.465 -0.027 -0.563 -0.047 c -0.125 -0.027 -0.191 -0.004 -0.219 0.07 c -0.031 0.09 -0.059 0.094 -0.141 0.02 c -0.16 -0.141 -0.273 0.02 -0.172 0.254 l 0.078 0.18 l 0.711 -0.043 c 0.387 -0.027 0.734 -0.078 0.77 -0.113 m 9.313 -0.164 c 0.086 -0.094 0.16 -0.203 0.16 -0.246 c 0 -0.039 0.031 -0.07 0.066 -0.07 c 0.035 0 0.066 0.047 0.066 0.105 c 0 0.164 0.18 0.199 0.363 0.074 c 0.09 -0.063 0.164 -0.086 0.164 -0.051 c 0 0.035 0.043 0.082 0.098 0.105 c 0.148 0.059 0.363 -0.227 0.363 -0.48 c 0 -0.285 -0.133 -0.402 -0.387 -0.348 c -0.113 0.027 -0.211 0.016 -0.238 -0.027 c -0.074 -0.125 -0.289 -0.078 -0.371 0.078 l -0.074 0.152 l -0.094 -0.184 c -0.188 -0.375 -0.531 -0.43 -0.82 -0.125 c -0.152 0.16 -0.191 0.266 -0.191 0.492 c 0 0.227 0.039 0.332 0.191 0.488 c 0.238 0.25 0.484 0.262 0.703 0.035 m -0.473 -0.348 c -0.063 -0.168 0 -0.422 0.105 -0.422 c 0.066 0 0.105 0.086 0.121 0.262 c 0.016 0.199 -0.004 0.262 -0.086 0.262 c -0.059 0 -0.121 -0.047 -0.141 -0.102 m -1.582 0.293 c 0.109 -0.16 0.141 -0.402 0.055 -0.402 c -0.078 0 -0.41 0.465 -0.367 0.516 c 0.082 0.082 0.211 0.039 0.313 -0.113 m -16.68 -1.023 c 0.582 -0.371 0.117 -1.383 -0.512 -1.109 c -0.195 0.086 -0.391 0.375 -0.391 0.582 c 0 0.215 0.168 0.48 0.359 0.566 c 0.266 0.121 0.297 0.121 0.543 -0.039 m 16.254 -0.137 c 0 -0.27 -0.086 -0.418 -0.164 -0.285 c -0.055 0.098 0.031 0.559 0.105 0.559 c 0.031 0 0.059 -0.121 0.059 -0.273 m 3.75 -1.859 c -0.023 -0.23 -0.223 -0.293 -0.281 -0.09 c -0.059 0.184 0.004 0.281 0.172 0.281 c 0.105 0 0.125 -0.039 0.109 -0.191 m -9.238 0.035 l 0.637 -0.086 l -0.363 -0.047 c -0.484 -0.059 -2.785 -0.059 -3.199 0.004 l -0.328 0.051 l 0.492 0.074 c 0.703 0.102 2.01 0.105 2.762 0.004 m 5.543 -1.156 c 0.027 -0.191 -0.109 -0.309 -0.234 -0.203 c -0.09 0.082 -0.113 0.281 -0.039 0.363 c 0.094 0.094 0.254 0.004 0.273 -0.16 m -0.551 -0.07 c 0.047 -0.082 -0.078 -0.164 -0.164 -0.109 c -0.074 0.051 -0.027 0.176 0.066 0.176 c 0.031 0 0.074 -0.031 0.098 -0.066 m -22.19 4.164 c -0.336 -0.227 -0.277 -0.32 0.211 -0.32 c 0.371 0 0.453 -0.023 0.672 -0.211 c 0.137 -0.117 0.309 -0.332 0.379 -0.477 l 0.133 -0.27 l -0.148 -0.125 c -0.34 -0.289 -0.934 -0.223 -1.316 0.148 c -0.125 0.117 -0.238 0.199 -0.254 0.18 c -0.055 -0.055 0.191 -0.445 0.371 -0.582 c 0.512 -0.395 1.176 -0.367 1.586 0.063 c 0.168 0.176 0.199 0.266 0.199 0.551 c 0 0.281 -0.035 0.379 -0.207 0.586 c -0.43 0.512 -1.207 0.73 -1.625 0.457 m -1.531 -2.734 c 0 -0.094 0.297 -0.355 0.594 -0.523 c 0.254 -0.145 1.082 -0.137 1.238 0.012 c 0.066 0.063 0.156 0.117 0.191 0.117 c 0.098 0 0.246 0.203 0.195 0.258 c -0.027 0.027 -0.203 -0.035 -0.398 -0.141 c -0.555 -0.297 -1.012 -0.246 -1.48 0.16 c -0.262 0.23 -0.34 0.254 -0.34 0.117 m 4.387 -0.883 c 0.086 -0.098 0.145 -0.117 0.191 -0.066 c 0.078 0.082 -0.051 0.207 -0.219 0.207 c -0.07 0 -0.063 -0.031 0.027 -0.141 m 2.23 -0.254 c 0.059 -0.063 0.129 -0.098 0.152 -0.074 c 0.063 0.07 -0.035 0.191 -0.156 0.191 c -0.102 0 -0.102 -0.008 0.004 -0.117 m 2.137 -0.238 c 0.148 -0.156 0.305 -0.125 0.242 0.047 c -0.02 0.055 -0.113 0.102 -0.207 0.102 h -0.176 m 2.309 -0.379 c 0.238 -0.207 0.297 -0.215 0.297 -0.043 c 0 0.141 -0.125 0.215 -0.352 0.215 c -0.133 0 -0.129 -0.016 0.055 -0.172" fill="#363636"/><path d="m 10.03 36.785 c -0.496 -0.074 -0.996 -0.285 -1.18 -0.496 c -0.137 -0.16 -0.281 -0.543 -0.277 -0.734 c 0.004 -0.059 0.047 0.016 0.098 0.168 c 0.121 0.359 0.348 0.559 0.809 0.711 c 0.332 0.105 0.66 0.121 2.656 0.117 c 1.582 -0.004 2.359 -0.027 2.551 -0.086 c 0.613 -0.191 1.246 -0.844 1.406 -1.453 c 0.035 -0.141 0.055 -0.262 0.047 -0.273 c -0.012 -0.008 -0.129 0.137 -0.266 0.328 c -0.148 0.211 -0.293 0.344 -0.375 0.344 c -0.129 0 -0.129 -0.059 -0.113 -7.441 l 0.016 -7.438 l 0.398 -0.035 l 0.395 -0.035 l 0.031 -0.867 l 0.035 -0.867 l 0.117 0.227 c 0.063 0.121 0.141 0.41 0.168 0.641 c 0.031 0.23 0.078 0.441 0.102 0.469 c 0.055 0.055 1.797 0.035 2.133 -0.027 c 0.273 -0.047 0.652 0.086 0.781 0.273 c 0.145 0.223 0.121 0.449 -0.133 1.34 c -0.129 0.445 -0.305 1.188 -0.395 1.648 c -0.16 0.828 -0.344 2.449 -0.285 2.512 c 0.02 0.016 0.234 -0.438 0.48 -1.012 c 0.246 -0.57 0.477 -1.039 0.504 -1.039 c 0.031 0 0.059 0.602 0.063 1.336 c 0.004 1.25 0.047 1.699 0.148 1.531 c 0.02 -0.039 0.102 -0.367 0.18 -0.723 c 0.582 -2.773 1.863 -4.785 3.945 -6.199 c 2.051 -1.395 4.508 -1.766 7.203 -1.086 c 0.305 0.078 0.57 0.125 0.59 0.105 c 0.02 -0.02 -0.004 -0.098 -0.051 -0.176 c -0.074 -0.125 -0.066 -0.145 0.07 -0.184 c 0.082 -0.023 0.566 -0.191 1.074 -0.379 c 0.508 -0.184 0.969 -0.344 1.023 -0.352 c 0.055 -0.008 0.172 0.133 0.277 0.332 c 0.18 0.352 0.668 1.711 0.906 2.535 c 0.094 0.316 0.227 0.566 0.441 0.832 c 0.625 0.762 1.109 1.68 1.508 2.84 l 0.223 0.66 l -0.031 -0.555 c -0.148 -2.68 -0.688 -6.184 -1.094 -7.09 c -0.082 -0.184 -0.375 -0.531 -0.785 -0.93 c -0.359 -0.348 -0.652 -0.676 -0.652 -0.727 c 0 -0.129 0.094 -0.125 0.199 0.008 c 0.043 0.055 0.133 0.102 0.199 0.102 c 0.066 0 0.203 0.043 0.305 0.098 c 0.559 0.285 0.832 0.379 1.211 0.418 c 0.09 0.008 0.234 0.055 0.32 0.105 c 0.086 0.047 0.211 0.07 0.277 0.051 c 0.066 -0.016 0.156 0.012 0.199 0.063 c 0.043 0.055 0.164 0.098 0.27 0.098 c 0.109 0 0.242 0.051 0.301 0.109 c 0.059 0.063 0.172 0.098 0.258 0.082 c 0.086 -0.02 0.188 0.012 0.23 0.063 c 0.039 0.051 0.168 0.094 0.285 0.094 c 0.113 0 0.246 0.039 0.289 0.086 c 0.047 0.047 0.188 0.086 0.316 0.086 c 0.215 0 0.242 0.027 0.324 0.27 c 0.047 0.148 0.18 0.383 0.293 0.52 c 0.113 0.141 0.27 0.395 0.352 0.566 l 0.145 0.313 v 15.742 l -0.172 0.391 c -0.238 0.527 -0.59 0.922 -1.039 1.152 l -0.371 0.191 l -4.227 0.043 c -3.199 0.031 -4.301 0.063 -4.551 0.133 c -0.508 0.141 -2.703 0.125 -3.336 -0.023 c -0.441 -0.105 -1.055 -0.117 -5.758 -0.117 h -5.266 l -0.352 0.246 c -0.613 0.43 -0.754 0.449 -3 0.441 c -1.109 -0.008 -2.211 -0.039 -2.441 -0.074 m 19.789 -1.621 c 1.973 -0.336 3.73 -1.465 4.969 -3.184 c 0.391 -0.543 0.926 -1.613 1.133 -2.273 c 0.504 -1.602 0.492 -3.586 -0.031 -5.16 c -0.922 -2.77 -3.055 -4.73 -5.82 -5.344 c -0.754 -0.168 -2.258 -0.168 -3.02 0.004 c -1.582 0.355 -2.918 1.148 -4.04 2.391 c -1.395 1.539 -2.105 3.414 -2.109 5.559 c -0.004 2.98 1.449 5.594 3.941 7.094 c 0.629 0.375 1.656 0.762 2.344 0.879 c 0.273 0.047 0.539 0.094 0.594 0.105 c 0.305 0.063 1.504 0.023 2.043 -0.07 m -2.355 -0.137 c -1.867 -0.355 -3.539 -1.41 -4.645 -2.941 c -0.449 -0.621 -1.043 -1.895 -1.086 -2.332 c -0.039 -0.398 0.07 -0.68 0.277 -0.711 c 0.109 -0.016 0.16 0.043 0.25 0.313 c 0.43 1.23 1.254 2.418 2.242 3.223 c 1.738 1.418 3.973 1.863 5.98 1.199 c 0.539 -0.18 1.426 -0.785 2.203 -1.508 c 0.867 -0.805 1.645 -2.133 1.969 -3.355 c 0.121 -0.457 0.141 -0.723 0.141 -1.688 c 0 -1.047 -0.016 -1.199 -0.18 -1.77 c -0.336 -1.16 -0.961 -2.258 -1.699 -2.984 c -0.215 -0.211 -0.191 -0.168 0.102 0.176 c 1.32 1.563 1.895 3.41 1.617 5.199 c -0.082 0.539 -0.227 0.902 -0.531 1.336 c -0.121 0.18 -0.371 0.594 -0.555 0.926 c -0.977 1.793 -2.734 2.934 -4.684 3.051 c -0.328 0.02 -0.832 0.066 -1.121 0.109 c -0.668 0.094 -1.27 -0.027 -1.961 -0.395 c -1.543 -0.813 -2.613 -2.164 -3.133 -3.965 c -0.156 -0.543 -0.176 -0.73 -0.18 -1.684 c -0.008 -0.922 0.016 -1.16 0.145 -1.66 c 0.621 -2.391 2.344 -4.148 4.633 -4.734 c 0.164 -0.043 0.699 -0.102 1.188 -0.129 l 0.891 -0.055 l -0.957 0.023 c -1.066 0.027 -1.566 0.133 -2.539 0.547 c -0.949 0.402 -0.824 0.191 0.199 -0.34 c 0.969 -0.5 1.523 -0.625 2.77 -0.617 c 0.934 0.004 1.133 0.023 1.711 0.191 c 0.938 0.27 2.25 1.016 2.629 1.492 c 0.156 0.199 0.273 0.184 0.469 -0.059 l 0.164 -0.207 l 0.41 0.461 c 1.742 1.961 2.359 4.906 1.566 7.512 c -0.738 2.434 -2.441 4.254 -4.738 5.074 c -1.082 0.387 -2.477 0.504 -3.547 0.301 m 1.203 -0.379 c 0 -0.23 -0.012 -0.246 -0.23 -0.254 c -0.129 -0.004 -0.414 -0.027 -0.641 -0.051 c -0.363 -0.039 -0.418 -0.031 -0.477 0.09 c -0.098 0.188 -0.098 0.191 0.133 0.309 c 0.137 0.074 0.297 0.094 0.488 0.066 c 0.184 -0.023 0.297 -0.012 0.328 0.043 c 0.027 0.043 0.129 0.07 0.223 0.059 c 0.152 -0.02 0.176 -0.051 0.176 -0.262 m 0.719 0.227 c 0.023 -0.023 0.184 -0.055 0.355 -0.066 c 0.172 -0.012 0.34 -0.059 0.379 -0.109 c 0.035 -0.051 0.117 -0.082 0.18 -0.066 c 0.086 0.016 0.117 -0.02 0.117 -0.145 c 0 -0.223 -0.164 -0.375 -0.285 -0.266 c -0.051 0.043 -0.109 0.059 -0.129 0.035 c -0.023 -0.023 -0.078 -0.016 -0.125 0.02 c -0.09 0.059 -0.121 0.063 -0.504 0.082 c -0.25 0.012 -0.309 0.117 -0.215 0.379 c 0.066 0.184 0.137 0.23 0.227 0.137 m -2.281 -0.438 c 0.016 -0.141 -0.023 -0.191 -0.195 -0.258 c -0.16 -0.063 -0.234 -0.066 -0.301 -0.004 c -0.141 0.121 -0.074 0.355 0.113 0.41 c 0.262 0.078 0.359 0.039 0.383 -0.148 m 3.84 0.07 c 0 -0.039 0.074 -0.07 0.16 -0.07 c 0.09 0 0.18 -0.031 0.203 -0.066 c 0.023 -0.039 0.094 -0.07 0.16 -0.07 c 0.07 0 0.141 -0.047 0.16 -0.102 c 0.02 -0.055 0.141 -0.121 0.27 -0.145 c 0.129 -0.027 0.234 -0.074 0.234 -0.109 c 0 -0.035 0.059 -0.063 0.125 -0.063 c 0.156 0 0.227 -0.176 0.137 -0.352 c -0.086 -0.164 -0.234 -0.164 -0.492 0.012 c -0.199 0.133 -0.391 0.23 -0.691 0.359 c -0.094 0.035 -0.219 0.094 -0.281 0.129 c -0.063 0.031 -0.16 0.063 -0.215 0.063 c -0.102 0 -0.129 0.18 -0.059 0.375 c 0.043 0.117 0.289 0.152 0.289 0.039 m -4.633 -0.082 c 0.043 -0.047 0.078 -0.156 0.078 -0.246 c 0 -0.129 -0.078 -0.199 -0.426 -0.367 c -0.238 -0.113 -0.43 -0.234 -0.43 -0.273 c 0 -0.039 -0.051 -0.07 -0.113 -0.07 c -0.121 0 -0.352 0.191 -0.352 0.297 c 0 0.133 0.324 0.379 0.559 0.426 c 0.129 0.023 0.234 0.066 0.234 0.094 c 0 0.043 0.227 0.188 0.332 0.215 c 0.023 0.004 0.074 -0.031 0.117 -0.074 m 3.34 -2.242 c 0.578 -0.129 1.547 -0.625 2.02 -1.035 c 0.512 -0.445 0.961 -1.031 1.223 -1.605 c 0.293 -0.629 0.297 -0.824 0.008 -0.262 c -0.863 1.684 -2.188 2.582 -4.04 2.73 c -0.398 0.035 -0.801 0.086 -0.891 0.113 l -0.164 0.051 l 0.164 0.051 c 0.289 0.086 1.207 0.063 1.676 -0.043 m 0.039 -2.01 c 0.547 -0.141 0.793 -0.242 0.793 -0.324 c 0 -0.035 0.086 -0.094 0.195 -0.133 c 0.371 -0.137 0.797 -1.082 0.922 -2.055 c 0.156 -1.207 -0.496 -2.512 -1.535 -3.066 c -1.656 -0.883 -3.625 0.063 -4.113 1.973 c -0.25 0.98 0.059 2.113 0.777 2.867 c 0.777 0.816 1.738 1.055 2.961 0.738 m -5.633 -5.477 c 0.621 -1.063 1.375 -1.816 2.297 -2.305 c 0.348 -0.184 1.988 -0.699 2.273 -0.715 c 0.023 -0.004 -0.004 -0.031 -0.059 -0.066 c -0.145 -0.086 -1.121 0.043 -1.605 0.211 c -0.852 0.301 -1.422 0.68 -2.129 1.418 c -0.563 0.586 -0.707 0.785 -0.938 1.281 c -0.148 0.324 -0.289 0.668 -0.313 0.766 l -0.039 0.172 l 0.133 -0.172 c 0.074 -0.098 0.246 -0.363 0.379 -0.59 m 8.535 -2.488 c 0 -0.012 -0.066 -0.082 -0.148 -0.156 l -0.148 -0.133 l 0.129 0.156 c 0.117 0.148 0.168 0.188 0.168 0.133 m -0.359 -0.32 c -0.023 -0.039 -0.105 -0.105 -0.188 -0.145 c -0.125 -0.066 -0.121 -0.055 0.02 0.066 c 0.188 0.16 0.227 0.176 0.168 0.078 m -0.859 -0.559 c -0.023 -0.035 -0.078 -0.066 -0.121 -0.066 c -0.047 0 -0.039 0.027 0.023 0.066 c 0.125 0.086 0.148 0.086 0.098 0 m -0.43 -0.207 c -0.055 -0.035 -0.129 -0.066 -0.164 -0.066 c -0.035 0 -0.023 0.031 0.031 0.066 c 0.055 0.035 0.129 0.066 0.168 0.066 c 0.035 0 0.02 -0.031 -0.035 -0.066 m -0.676 -0.25 c -0.023 -0.023 -0.082 -0.027 -0.129 -0.004 c -0.051 0.02 -0.035 0.039 0.039 0.039 c 0.07 0.004 0.109 -0.012 0.09 -0.035 m -0.266 -0.07 c -0.023 -0.023 -0.078 -0.023 -0.125 -0.004 c -0.055 0.023 -0.039 0.039 0.039 0.043 c 0.07 0 0.109 -0.016 0.086 -0.039 m -0.363 -0.074 c -0.043 -0.016 -0.117 -0.016 -0.164 0 c -0.043 0.02 -0.008 0.035 0.082 0.035 c 0.094 0 0.129 -0.016 0.082 -0.035 m -10.172 14.402 c 0.164 -0.094 0.16 -0.195 -0.043 -0.785 c -1.441 -4.16 -1.566 -8.719 -0.352 -12.867 c 0.109 -0.367 0.188 -0.746 0.176 -0.84 c -0.02 -0.172 -0.027 -0.176 -0.711 -0.195 c -0.383 -0.012 -0.789 -0.004 -0.906 0.02 l -0.215 0.043 l 0.031 14.594 l 0.199 0.043 c 0.328 0.074 1.684 0.066 1.82 -0.012 m 17.02 -0.57 c 0.543 0.039 0.945 0.02 1.027 -0.055 c 0.059 -0.047 0.098 -0.051 0.125 0 c 0.023 0.039 0.273 0.07 0.551 0.07 c 0.281 0.004 0.555 0.008 0.609 0.016 c 0.234 0.023 0.328 -0.02 0.328 -0.152 c 0 -0.074 -0.031 -0.137 -0.066 -0.137 c -0.039 0 -0.098 -0.078 -0.133 -0.176 c -0.063 -0.172 -0.328 -0.25 -0.328 -0.094 c 0 0.055 -0.031 0.051 -0.098 -0.008 c -0.094 -0.078 -1.203 -0.105 -2.02 -0.047 c -0.16 0.012 -0.367 -0.008 -0.453 -0.039 c -0.316 -0.117 -0.527 0.105 -0.441 0.465 c 0.043 0.184 0.184 0.238 0.434 0.176 c 0.09 -0.023 0.301 -0.031 0.461 -0.02 m -0.488 -1.301 c 0.051 -0.047 0.156 -0.23 0.23 -0.406 c 0.184 -0.438 0.598 -1.688 0.566 -1.719 c -0.012 -0.016 -0.16 0.223 -0.328 0.527 c -0.172 0.305 -0.5 0.82 -0.738 1.145 c -0.234 0.324 -0.43 0.621 -0.43 0.66 c 0 0.078 0.559 -0.086 0.699 -0.207 m 1.914 -5.352 c 0.027 -0.043 0.051 -0.438 0.055 -0.875 c 0.004 -0.77 0 -0.797 -0.148 -0.855 c -0.367 -0.145 -0.43 -0.023 -0.207 0.406 c 0.152 0.301 0.168 0.641 0.039 0.906 c -0.051 0.102 -0.109 0.258 -0.137 0.344 c -0.039 0.137 -0.023 0.156 0.152 0.156 c 0.109 0 0.223 -0.035 0.246 -0.082 m 0.645 -1.254 c 0.152 -0.59 -0.039 -0.957 -0.578 -1.121 c -0.488 -0.148 -0.582 -0.141 -0.555 0.043 c 0.016 0.117 0.094 0.172 0.336 0.234 c 0.406 0.109 0.496 0.195 0.547 0.504 c 0.086 0.527 0.172 0.648 0.25 0.34 m -0.281 -6.93 c 0.051 -0.102 0.09 -0.117 0.152 -0.063 c 0.082 0.07 0.617 0.086 0.848 0.027 c 0.063 -0.02 0.148 -0.148 0.191 -0.301 c 0.063 -0.223 0.059 -0.297 -0.027 -0.434 c -0.09 -0.145 -0.156 -0.168 -0.535 -0.172 c -0.238 -0.004 -0.453 0.023 -0.477 0.059 c -0.02 0.039 -0.109 -0.012 -0.195 -0.109 c -0.281 -0.32 -0.758 -0.211 -0.93 0.215 c -0.168 0.426 0.035 0.93 0.406 1.012 c 0.195 0.043 0.488 -0.078 0.566 -0.234 m -0.492 -0.246 c -0.086 -0.09 -0.043 -0.438 0.059 -0.438 c 0.063 0 0.098 0.07 0.098 0.207 c 0 0.203 -0.074 0.316 -0.156 0.23 m -15.816 1.32 c 0 -0.109 0.504 -1.629 0.766 -2.313 c 0.277 -0.727 0.473 -1.109 0.563 -1.109 c 0.035 0 0.336 0.125 0.676 0.277 c 0.34 0.152 0.828 0.348 1.09 0.434 c 0.258 0.086 0.473 0.172 0.473 0.191 c 0 0.02 -0.371 0.23 -0.828 0.473 c -0.875 0.465 -1.566 0.973 -2.293 1.676 c -0.242 0.238 -0.445 0.402 -0.445 0.371 m -8.309 -1.199 c 0.871 -0.277 1.207 -1.086 0.59 -1.422 c -0.281 -0.152 -0.844 -0.137 -1.109 0.031 c -0.289 0.188 -0.332 0.176 -0.141 -0.043 c 0.332 -0.379 0.867 -0.473 1.352 -0.242 c 0.32 0.152 0.52 0.516 0.453 0.82 c -0.105 0.461 -0.676 0.93 -1.121 0.918 l -0.195 -0.008 m 21.949 -0.293 c -0.039 -0.055 -0.105 -0.281 -0.145 -0.504 c -0.125 -0.73 0.18 -1.23 0.539 -0.887 c 0.164 0.156 0.285 0.551 0.234 0.766 c -0.055 0.223 -0.145 0.164 -0.195 -0.129 c -0.055 -0.305 -0.219 -0.539 -0.34 -0.492 c -0.129 0.055 -0.129 0.523 0 0.969 c 0.055 0.188 0.098 0.348 0.102 0.355 c 0 0.059 -0.129 0.004 -0.195 -0.078 m -9.871 -3.387 c -0.145 -0.039 -0.301 -0.082 -0.348 -0.094 c -0.043 -0.012 -0.082 -0.074 -0.082 -0.129 c 0 -0.098 0.398 -0.109 3.461 -0.109 c 1.941 0 3.477 0.027 3.5 0.063 c 0.051 0.09 -0.094 0.191 -0.359 0.254 c -0.355 0.082 -5.863 0.098 -6.172 0.016" fill="#262626"/><path d="m 9.902 36.691 c -0.266 -0.051 -0.504 -0.113 -0.527 -0.141 c -0.023 -0.027 0.031 -0.031 0.121 -0.012 c 0.602 0.148 1.488 0.199 3.211 0.176 c 1.902 -0.023 1.906 -0.023 2.277 -0.207 c 0.5 -0.246 0.914 -0.66 1.148 -1.148 l 0.195 -0.402 l 0.031 -6.969 c 0.031 -6.527 0.063 -7.609 0.207 -7.07 c 0.023 0.094 0.047 3.262 0.051 7.04 c 0.004 6.699 0 6.875 -0.125 7.168 c -0.23 0.527 -0.266 0.512 0.941 0.461 c 1.141 -0.047 1.383 -0.086 1.105 -0.176 c -0.152 -0.047 -0.145 -0.055 0.066 -0.059 c 0.625 -0.02 0.934 -0.098 1.031 -0.258 c 0.094 -0.145 0.078 -0.219 -0.164 -0.945 c -0.297 -0.891 -0.703 -2.535 -0.766 -3.105 c -0.027 -0.262 0.031 -0.102 0.188 0.52 c 0.242 0.969 0.504 1.789 0.813 2.566 c 0.277 0.691 0.301 0.836 0.188 1.07 c -0.055 0.109 -0.137 0.219 -0.184 0.238 c -0.047 0.02 0.273 0.035 0.707 0.039 l 0.793 0.004 l 0.371 -0.875 l 0.375 -0.875 l -0.117 -0.219 c -0.066 -0.117 -0.289 -0.477 -0.496 -0.797 c -0.75 -1.172 -1.293 -2.648 -1.285 -3.52 c 0 -0.414 0.051 -0.34 0.332 0.508 c 0.723 2.168 1.98 3.902 3.656 5.03 c 1.957 1.324 4.367 1.734 6.641 1.133 c 3.773 -1 6.398 -4.543 6.395 -8.633 c 0 -2.453 -0.859 -4.594 -2.613 -6.527 c -0.699 -0.773 -0.859 -1.027 -0.473 -0.77 c 1.094 0.727 2.227 2.23 2.797 3.723 c 0.223 0.578 0.438 1.352 0.52 1.855 c 0.043 0.277 0.059 0.289 0.449 0.359 c 0.383 0.066 0.484 0.215 0.527 0.793 c 0.023 0.297 0.09 0.582 0.156 0.688 c 0.066 0.105 0.117 0.324 0.117 0.52 c 0.004 0.293 -0.02 0.359 -0.207 0.535 c -0.148 0.141 -0.313 0.215 -0.543 0.246 c -0.184 0.027 -0.355 0.082 -0.387 0.125 c -0.035 0.043 -0.109 0.297 -0.172 0.563 c -0.273 1.168 -0.941 2.602 -1.633 3.504 c -0.172 0.227 -0.391 0.535 -0.48 0.688 c -0.094 0.152 -0.398 0.484 -0.68 0.738 c -0.438 0.391 -0.727 0.609 -1.578 1.188 c -0.094 0.066 0.527 0.082 2.867 0.086 c 3.242 0.004 3.199 0.012 3.695 -0.387 c 0.125 -0.102 0.297 -0.34 0.383 -0.535 l 0.156 -0.355 l 0.004 -7.719 c 0 -8.418 0.012 -8.094 -0.371 -8.258 c -0.105 -0.043 -0.43 -0.109 -0.719 -0.148 c -0.289 -0.039 -0.957 -0.188 -1.484 -0.332 l -0.957 -0.262 l -0.176 -0.344 c -0.105 -0.203 -0.434 -0.602 -0.793 -0.961 c -0.66 -0.656 -0.645 -0.707 0.098 -0.359 c 0.277 0.129 0.434 0.258 0.586 0.484 c 0.117 0.172 0.258 0.328 0.313 0.344 c 1.105 0.348 2.336 0.672 2.746 0.727 c 0.504 0.066 0.535 0.078 0.773 0.367 c 0.527 0.629 0.477 -0.23 0.477 8.727 v 8.01 l -0.176 0.355 c -0.098 0.191 -0.328 0.496 -0.512 0.668 c -0.617 0.586 -0.402 0.559 -5.219 0.609 c -3.043 0.031 -4.348 0.07 -4.586 0.133 c -0.426 0.109 -2.258 0.109 -2.738 0 c -0.258 -0.059 -1.992 -0.098 -5.906 -0.133 l -5.543 -0.051 l -0.332 0.23 c -0.617 0.43 -0.691 0.441 -2.992 0.434 c -1.426 -0.004 -2.242 -0.035 -2.574 -0.098 m 27.957 -8.68 c 0.148 -0.039 0.152 -0.055 0.133 -0.949 l -0.02 -0.906 l -0.25 -0.063 c -0.137 -0.035 -0.27 -0.047 -0.289 -0.023 c -0.023 0.023 -0.004 0.27 0.043 0.547 c 0.059 0.379 0.063 0.605 0.008 0.91 c -0.039 0.223 -0.055 0.434 -0.035 0.469 c 0.043 0.07 0.195 0.078 0.41 0.016 m -5.332 5.598 c 0 -0.074 -0.066 -0.191 -0.152 -0.258 l -0.152 -0.121 l 0.48 -0.402 c 0.262 -0.223 0.676 -0.629 0.918 -0.906 c 0.242 -0.273 0.48 -0.523 0.527 -0.555 c 0.129 -0.078 0.426 0.066 0.426 0.211 c 0 0.313 -1.152 1.578 -1.863 2.051 c -0.176 0.117 -0.184 0.113 -0.184 -0.016 m -5.082 -0.77 c -0.941 -0.246 -1.848 -0.773 -1.848 -1.082 c 0 -0.094 0.012 -0.168 0.027 -0.168 c 0.016 0 0.277 0.125 0.578 0.277 c 0.82 0.41 1.465 0.566 2.332 0.566 c 1.488 0 2.723 -0.574 3.742 -1.742 c 1.133 -1.289 1.547 -2.855 1.262 -4.801 c -0.031 -0.234 -0.023 -0.254 0.098 -0.219 c 0.309 0.082 0.523 1.305 0.41 2.289 c -0.164 1.379 -0.676 2.457 -1.629 3.434 c -0.773 0.789 -1.59 1.25 -2.613 1.473 c -0.676 0.148 -1.727 0.137 -2.355 -0.027 m 0.227 -1.102 c -1.516 -0.395 -2.707 -1.523 -3.273 -3.117 c -0.125 -0.355 -0.195 -0.457 -0.363 -0.531 c -0.254 -0.113 -0.309 -0.316 -0.305 -1.148 c 0.004 -2.23 1.508 -4.219 3.621 -4.785 c 0.688 -0.188 1.676 -0.184 2.363 0 c 0.965 0.258 1.82 0.809 1.82 1.172 c 0 0.121 0.074 0.262 0.203 0.395 c 0.355 0.355 0.801 1.02 1.031 1.543 c 0.582 1.313 0.551 2.824 -0.09 4.125 c -0.344 0.703 -1.199 1.59 -1.871 1.941 c -0.988 0.52 -2.129 0.664 -3.137 0.406 m 2.086 -1.051 c 1.09 -0.332 2.043 -1.398 2.301 -2.566 c 0.086 -0.398 0.086 -1.262 0 -1.66 c -0.18 -0.816 -0.801 -1.734 -1.488 -2.195 c -0.723 -0.488 -1.637 -0.668 -2.469 -0.484 c -1.254 0.273 -2.199 1.168 -2.613 2.469 c -0.164 0.516 -0.16 1.477 0.008 2.078 c 0.18 0.648 0.668 1.379 1.207 1.801 c 0.91 0.715 1.922 0.902 3.051 0.559 m -11.148 -0.246 c 0.004 -0.082 0.02 -0.098 0.039 -0.043 c 0.02 0.051 0.016 0.109 -0.004 0.133 c -0.023 0.023 -0.039 -0.02 -0.035 -0.09 m 4.27 -2.125 c -0.25 -0.195 -0.328 -1.531 -0.145 -2.461 c 0.258 -1.309 0.723 -2.207 1.645 -3.18 c 0.707 -0.742 1.191 -1.082 2.023 -1.422 c 1.777 -0.719 3.949 -0.449 5.418 0.676 c 0.23 0.176 0.313 0.285 0.313 0.414 c 0 0.094 -0.023 0.16 -0.051 0.148 c -0.027 -0.012 -0.301 -0.16 -0.609 -0.328 c -1.109 -0.602 -2 -0.816 -3.121 -0.75 c -1.797 0.105 -3.43 1.117 -4.422 2.727 c -0.609 0.988 -0.844 1.844 -0.898 3.273 c -0.035 0.926 -0.047 0.988 -0.152 0.902 m 12.172 -1.629 c -0.215 -1.773 -0.801 -3.055 -1.988 -4.348 c -0.664 -0.723 -0.492 -0.684 0.211 0.047 c 0.742 0.77 1.328 1.766 1.617 2.754 c 0.156 0.535 0.301 1.59 0.27 1.977 c -0.02 0.203 -0.047 0.086 -0.109 -0.43 m -16.309 -3.254 c 0.004 -0.078 0.02 -0.098 0.039 -0.039 c 0.02 0.047 0.016 0.109 -0.004 0.133 c -0.023 0.023 -0.039 -0.02 -0.035 -0.094 m 0.066 -0.344 c 0 -0.082 0.016 -0.098 0.039 -0.043 c 0.02 0.051 0.016 0.109 -0.008 0.133 c -0.02 0.023 -0.035 -0.02 -0.031 -0.09 m 0.066 -0.227 c -0.008 -0.117 0.285 -1.34 0.418 -1.738 c 0.18 -0.531 0.094 -0.785 -0.293 -0.859 c -0.141 -0.027 -0.133 -0.031 0.051 -0.043 c 0.227 -0.008 0.477 0.188 0.477 0.375 c 0 0.059 -0.129 0.551 -0.289 1.094 c -0.16 0.543 -0.305 1.047 -0.324 1.125 c -0.016 0.074 -0.035 0.098 -0.039 0.047 m -4.441 -4.676 c -0.211 -0.168 -0.723 -0.234 -1.063 -0.137 c -0.297 0.086 -0.313 0.055 -0.051 -0.09 c 0.379 -0.203 1.016 -0.102 1.254 0.207 c 0.133 0.164 0.059 0.176 -0.141 0.02" fill="#111"/></svg>