<svg xmlns="http://www.w3.org/2000/svg" viewBox="0 0 48 48"><path d="m 39.594 6.961 c 37.844 49.945 -66.3 57.04 -32.879 6.06 c 7.621 -11.621 22.855 -19.285 32.879 -6.06" fill="#1b225d"/><path d="m 9.406 26.08 v -16.07 h 30.32 v 32.15 h -30.32 m 18.465 -4.637 c 1.578 -0.852 4.04 -3.059 4.04 -3.629 c 0 -0.254 -0.156 -0.598 -0.344 -0.766 c -0.457 -0.402 -1.313 -2.852 -1.313 -3.754 c 0 -0.391 0.156 -1.113 0.348 -1.598 c 0.285 -0.727 0.293 -0.934 0.039 -1.156 c -0.832 -0.734 -8.59 -0.539 -10.941 0.273 c -0.93 0.324 -0.934 0.328 -1 1.793 c -0.055 1.113 0.082 1.895 0.566 3.262 c 0.863 2.43 1.969 3.965 3.719 5.18 c 1.809 1.254 3.102 1.355 4.895 0.395 m -4.734 -3.793 c -0.125 -0.352 -0.23 -0.934 -0.23 -1.285 c 0 -0.551 0.055 -0.598 0.363 -0.324 c 0.277 0.242 0.492 0.254 0.891 0.043 c 0.289 -0.152 1.602 -0.453 2.922 -0.664 c 2.832 -0.461 2.695 -0.453 2.695 -0.145 c 0 0.434 -1.266 0.957 -2.727 1.129 c -2.531 0.297 -2.656 0.348 -2.809 1.152 c -0.172 0.922 -0.789 0.973 -1.102 0.094 m -2.457 -1.73 c -0.52 -0.848 -0.48 -1.145 0.152 -1.074 c 0.395 0.043 0.551 -0.09 0.609 -0.52 c 0.102 -0.75 0.758 -0.637 1.148 0.195 c 0.25 0.531 0.227 0.684 -0.172 1.078 c -0.254 0.25 -0.461 0.563 -0.461 0.695 c 0 0.492 -0.906 0.223 -1.277 -0.375" fill="#f3d594"/><path d="m 9.406 26.08 v -16.07 h 30.32 v 32.15 h -30.32 m 13.992 -3.199 c -1.422 -0.777 -4.754 -4.348 -4.754 -5.094 c 0 -0.258 -0.105 -0.535 -0.234 -0.621 c -0.125 -0.082 -0.332 -0.516 -0.449 -0.957 c -0.16 -0.574 -0.227 -0.652 -0.242 -0.27 c -0.02 0.535 0.609 2.367 0.895 2.605 c 0.082 0.07 0.352 0.551 0.602 1.07 c 0.941 1.957 3.313 3.875 4.867 3.934 c 0.43 0.016 0.258 -0.156 -0.684 -0.672 m 4.07 0.527 c -0.164 -0.07 -0.43 -0.07 -0.594 0 c -0.164 0.066 -0.031 0.125 0.297 0.125 c 0.324 0 0.457 -0.059 0.297 -0.125 m 2.125 -0.84 c 0.539 -0.277 1.18 -0.504 1.426 -0.504 c 0.242 0 0.375 -0.113 0.297 -0.25 c -0.082 -0.137 0.082 -0.25 0.363 -0.25 c 0.801 0 1.867 -0.953 2.832 -2.543 c 0.871 -1.426 1.816 -4.363 1.613 -5.01 c -0.055 -0.176 -0.59 0.426 -1.191 1.336 c -1.762 2.672 -4.578 6.04 -5.617 6.715 c -0.527 0.34 -0.961 0.707 -0.961 0.813 c 0 0.285 0.16 0.246 1.238 -0.309 m -1.516 -1.035 c 1.191 -0.68 4.066 -3.137 4.066 -3.473 c 0 -0.129 -0.348 -0.82 -0.77 -1.543 c -0.695 -1.191 -0.766 -1.484 -0.727 -3.094 c 0.023 -0.98 0.074 -2.121 0.117 -2.535 l 0.078 -0.754 l -2.605 -0.23 c -2.766 -0.246 -6.629 0.059 -8.652 0.684 l -1.059 0.324 l 0.016 1.875 c 0.031 3.422 1.598 6.445 4.363 8.426 c 1.438 1.027 1.629 1.094 2.844 1 c 0.758 -0.059 1.73 -0.344 2.328 -0.684 m -4.703 -3.75 c -0.336 -0.664 -0.133 -1.285 0.352 -1.086 c 0.398 0.16 0.5 1.23 0.141 1.469 c -0.125 0.078 -0.344 -0.094 -0.492 -0.383 m -2.609 -2.02 c -0.223 -0.441 -0.188 -0.543 0.23 -0.656 c 0.27 -0.074 0.492 -0.332 0.492 -0.566 c 0 -0.613 0.258 -0.809 0.629 -0.484 c 0.352 0.313 0.434 1.223 0.109 1.223 c -0.117 0 -0.266 0.227 -0.336 0.504 c -0.16 0.652 -0.789 0.645 -1.125 -0.02 m 5.34 0.156 c 0.844 -0.434 2.719 -0.535 2.332 -0.125 c -0.141 0.148 -0.879 0.32 -1.648 0.379 c -1.359 0.113 -1.375 0.105 -0.684 -0.254 m -7.04 -6.313 c 1.277 -0.578 10.957 -0.57 11.793 0.012 c 1.168 0.809 1.52 0.344 1.508 -2 c -0.008 -1.496 -0.418 -2.809 -1.289 -4.145 c -0.52 -0.793 -0.918 -1.074 -2.098 -1.473 c -3.316 -1.121 -4.574 -0.887 -6.559 1.211 c -1.055 1.117 -3.719 4.887 -4.582 6.48 c -0.23 0.422 0.168 0.395 1.227 -0.086 m 10.773 -1.813 c -0.387 -0.262 -1.137 -3.355 -0.941 -3.895 c 0.082 -0.234 0.375 -0.426 0.645 -0.426 c 0.855 0 1.934 2.953 1.512 4.125 c -0.156 0.422 -0.734 0.516 -1.215 0.195 m -2.656 -0.539 c -0.52 -0.547 -1.027 -2.277 -0.914 -3.109 c 0.051 -0.387 0.266 -0.57 0.727 -0.625 c 0.574 -0.07 0.719 0.059 1.121 1 c 0.574 1.344 0.625 2.855 0.102 3.066 c -0.52 0.211 -0.52 0.211 -1.035 -0.336" fill="#d1a36c"/><path d="m 9.406 26.08 v -16.07 h 30.32 v 32.15 h -30.32 m 19.844 -2.02 c 2.586 -0.941 4.934 -3.121 6.203 -5.766 c 0.406 -0.84 1.191 -4.066 1.191 -4.883 c 0 -0.793 -0.492 -0.332 -2.117 1.996 c -0.918 1.313 -1.777 2.383 -1.906 2.383 c -0.484 0 -1.645 -2.09 -1.906 -3.434 c -0.23 -1.184 -0.211 -1.559 0.129 -2.512 c 0.258 -0.711 0.609 -1.199 0.965 -1.344 c 0.551 -0.223 0.641 -0.449 0.926 -2.328 c 0.301 -1.977 -1.234 -5.484 -2.84 -6.488 c -0.457 -0.285 -0.828 -0.672 -0.828 -0.859 c 0 -0.184 -0.246 -0.621 -0.551 -0.965 c -0.508 -0.586 -0.605 -0.605 -1.41 -0.313 c -0.473 0.172 -1.051 0.492 -1.285 0.711 c -0.234 0.219 -0.754 0.473 -1.152 0.563 c -1.063 0.238 -2.938 2.102 -4.75 4.73 c -0.883 1.277 -2.129 2.992 -2.77 3.816 l -1.168 1.496 l 0.137 1.641 c 0.281 3.297 1.875 7.316 3.895 9.82 c 0.426 0.527 1.438 1.316 2.25 1.75 c 1.402 0.758 1.574 0.789 3.488 0.66 c 1.109 -0.074 2.68 -0.379 3.5 -0.676 m 0.59 -16.879 c -0.223 -0.301 -0.773 -2.391 -0.773 -2.938 c 0 -0.414 0.602 -0.309 0.984 0.176 c 0.449 0.563 0.918 2.262 0.75 2.723 c -0.156 0.438 -0.652 0.457 -0.961 0.039 m -2.621 -0.363 c -0.57 -1.168 -0.801 -2.355 -0.523 -2.707 c 0.148 -0.195 0.414 -0.297 0.582 -0.227 c 0.445 0.18 1.133 1.926 1.039 2.629 c -0.098 0.734 -0.793 0.93 -1.098 0.305" fill="#565b8c"/><path d="m 9.406 39.898 c 0 -2.164 0.023 -2.262 0.563 -2.406 c 0.309 -0.082 0.707 -0.129 0.887 -0.102 c 0.648 0.098 0.82 -0.023 1.262 -0.887 c 0.246 -0.484 0.59 -0.883 0.77 -0.883 c 0.18 0 0.387 -0.168 0.461 -0.375 c 0.074 -0.203 0.563 -0.508 1.082 -0.676 c 2.195 -0.695 1.25 -3.426 -1.059 -3.066 c -0.438 0.07 -1.273 -0.078 -1.949 -0.348 c -1.105 -0.438 -1.184 -0.523 -1.148 -1.293 c 0.023 -0.512 0.281 -1.09 0.684 -1.535 c 0.496 -0.551 0.605 -0.859 0.488 -1.367 c -0.094 -0.391 -0.02 -0.926 0.184 -1.332 c 0.676 -1.344 1.133 -2.609 1 -2.75 c -0.078 -0.082 -0.258 0.211 -0.398 0.648 c -0.145 0.434 -0.359 0.793 -0.477 0.793 c -0.117 0 -0.215 0.156 -0.215 0.352 c 0 0.492 -1.688 3.918 -1.93 3.918 c -0.355 0 -0.215 -1.445 0.152 -1.598 c 0.195 -0.078 0.355 -0.32 0.355 -0.531 c 0 -0.215 0.102 -0.586 0.227 -0.824 c 0.125 -0.242 0.398 -0.891 0.613 -1.441 c 0.211 -0.555 0.484 -1.203 0.602 -1.441 c 0.285 -0.57 0.922 -2.512 0.926 -2.816 c 0 -0.133 -0.125 -0.105 -0.281 0.063 c -0.219 0.23 -0.406 0.176 -0.832 -0.25 c -0.402 -0.402 -0.617 -0.473 -0.813 -0.266 c -0.359 0.379 -0.07 1.086 0.508 1.246 c 0.262 0.074 0.473 0.281 0.473 0.465 c 0 0.578 -1.617 4.129 -1.879 4.129 c -0.383 0 -0.34 -6.445 0.043 -6.633 c 0.238 -0.117 0.238 -0.176 0 -0.293 c -0.16 -0.082 -0.293 -0.488 -0.293 -0.906 c 0 -0.672 0.063 -0.746 0.555 -0.613 c 0.398 0.105 0.703 -0.023 1.09 -0.457 c 0.688 -0.777 0.434 -1.328 -0.355 -0.781 c -1.203 0.836 -1.289 0.652 -1.289 -2.621 v -3.02 h 5.918 c 5.605 0 5.949 0.027 6.395 0.504 c 0.262 0.273 0.477 0.68 0.477 0.898 c 0 0.305 0.152 0.359 0.684 0.234 c 0.379 -0.086 1.23 -0.164 1.898 -0.168 c 0.848 -0.008 1.207 -0.109 1.207 -0.348 c 0 -0.188 -0.105 -0.406 -0.238 -0.492 c -0.641 -0.422 -0.051 -0.629 1.777 -0.629 c 1.543 0 2.01 0.082 2.01 0.344 c 0 0.219 0.41 0.402 1.125 0.508 c 0.957 0.141 1.188 0.09 1.52 -0.344 c 0.324 -0.414 0.676 -0.508 1.953 -0.508 c 1.594 0 2.184 0.406 0.793 0.551 c -0.504 0.051 -0.793 0.227 -0.844 0.516 c -0.102 0.563 0.793 0.605 1.082 0.059 c 0.172 -0.328 0.395 -0.344 1.492 -0.105 c 0.707 0.152 1.688 0.398 2.176 0.547 l 0.891 0.273 v 1.699 c 0 1.512 -0.066 1.754 -0.594 2.191 c -0.805 0.672 -0.805 1.414 0 1.199 c 0.535 -0.145 0.594 -0.086 0.594 0.617 c 0 0.426 -0.109 0.984 -0.238 1.246 c -0.16 0.313 -0.16 0.52 0 0.625 c 0.152 0.102 0.238 4.168 0.238 11.445 v 11.285 h -30.32 m 17.17 -1.254 c 0.078 -0.137 0.539 -0.234 1.02 -0.215 c 1.16 0.047 2.367 -0.254 2.59 -0.641 c 0.098 -0.172 0.863 -0.754 1.703 -1.297 c 2.438 -1.582 3.926 -3.867 4.605 -7.07 c 0.824 -3.867 0.383 -4 -1.938 -0.578 c -0.887 1.313 -1.762 2.387 -1.941 2.387 c -0.18 0 -0.629 -0.605 -0.992 -1.348 c -0.891 -1.805 -0.941 -4.03 -0.117 -4.906 c 0.301 -0.32 0.676 -0.625 0.84 -0.684 c 0.164 -0.059 0.406 -0.918 0.551 -1.934 c 0.242 -1.75 0.227 -1.906 -0.41 -3.512 c -0.949 -2.391 -1.672 -3.531 -2.355 -3.715 c -0.414 -0.109 -0.594 -0.328 -0.594 -0.727 c 0 -0.363 -0.176 -0.621 -0.473 -0.703 c -0.285 -0.078 -0.473 -0.344 -0.473 -0.66 c 0 -0.625 -0.641 -0.699 -1.316 -0.156 c -0.254 0.203 -0.648 0.375 -0.875 0.379 c -0.23 0.004 -0.629 0.234 -0.891 0.508 c -0.258 0.277 -0.684 0.504 -0.945 0.504 c -0.637 0 -3.898 3.309 -4.914 4.984 c -0.449 0.738 -1.391 2.063 -2.098 2.941 c -0.703 0.883 -1.281 1.777 -1.281 1.988 c 0 0.211 -0.105 0.383 -0.234 0.383 c -0.133 0 -0.238 0.566 -0.238 1.258 c 0 0.691 0.082 1.254 0.18 1.254 c 0.098 0.004 0.195 0.426 0.223 0.938 c 0.023 0.516 0.16 0.977 0.297 1.027 c 0.141 0.047 0.188 0.195 0.113 0.328 c -0.078 0.133 0 0.422 0.176 0.645 c 0.172 0.223 0.281 0.445 0.238 0.496 c -0.164 0.195 0.246 1.59 0.465 1.59 c 0.129 0 0.168 0.113 0.086 0.25 c -0.082 0.141 -0.027 0.254 0.117 0.254 c 0.148 0 0.211 0.094 0.141 0.211 c -0.066 0.117 0.063 0.43 0.293 0.691 c 0.23 0.262 0.766 1.02 1.195 1.684 c 0.852 1.316 2.238 2.504 3.492 2.984 c 0.441 0.168 0.801 0.395 0.801 0.508 c 0 0.289 2.789 0.246 2.961 -0.051 m 3.215 -18.16 c -0.121 -0.34 -0.297 -1.043 -0.391 -1.559 c -0.129 -0.738 -0.094 -0.914 0.164 -0.824 c 0.699 0.242 1.324 2.68 0.742 2.895 c -0.16 0.063 -0.395 -0.168 -0.516 -0.512 m -2.75 -0.789 c -0.223 -0.617 -0.332 -1.316 -0.246 -1.555 c 0.141 -0.398 0.195 -0.391 0.637 0.078 c 0.629 0.664 0.91 2.594 0.379 2.594 c -0.215 0 -0.531 -0.457 -0.77 -1.117 m 9.129 -0.766 c 0 -0.207 -0.16 -0.375 -0.355 -0.375 c -0.195 0 -0.355 0.168 -0.355 0.375 c 0 0.207 0.16 0.379 0.355 0.379 c 0.195 0 0.355 -0.168 0.355 -0.379 m 2.367 -1.379 c 0 -0.141 -0.105 -0.25 -0.238 -0.25 c -0.129 0 -0.234 0.109 -0.234 0.25 c 0 0.137 0.105 0.25 0.234 0.25 c 0.133 0 0.238 -0.113 0.238 -0.25 m -25.348 -1.336 c 0.004 -0.109 -0.102 -0.133 -0.234 -0.047 c -0.129 0.086 -0.234 0.348 -0.23 0.582 c 0.004 0.363 0.035 0.371 0.23 0.047 c 0.129 -0.207 0.234 -0.469 0.234 -0.582 m 2.602 -2.648 c 0.008 -1.016 -0.031 -1.086 -0.523 -0.945 c -0.293 0.082 -0.703 0.152 -0.91 0.152 c -0.234 0.004 -0.484 0.379 -0.652 0.977 c -0.395 1.391 -0.348 1.793 0.199 1.793 c 0.289 0 0.477 0.168 0.48 0.438 c 0.004 0.324 0.191 0.207 0.703 -0.438 c 0.535 -0.676 0.699 -1.137 0.703 -1.977 m 22.04 1.598 c 0 -0.207 -0.16 -0.375 -0.355 -0.375 c -0.195 0 -0.355 0.168 -0.355 0.375 c 0 0.207 0.16 0.379 0.355 0.379 c 0.195 0 0.355 -0.172 0.355 -0.379 m -25.344 -2.387 c 0 -0.137 -0.047 -0.25 -0.105 -0.25 c -0.055 0 -0.168 0.113 -0.25 0.25 c -0.078 0.141 -0.031 0.254 0.105 0.254 c 0.137 0 0.25 -0.113 0.25 -0.254 m 7.949 -3.457 c -0.078 -0.086 -0.328 0.051 -0.555 0.301 c -0.391 0.434 -0.383 0.441 0.145 0.152 c 0.305 -0.164 0.488 -0.371 0.41 -0.453 m -8.66 23.59 c 0 -0.41 0.934 -1.102 1.293 -0.957 c 0.535 0.219 0.445 0.547 -0.238 0.879 c -0.715 0.344 -1.055 0.371 -1.055 0.078 m -2.07 -0.457 c -0.164 -0.066 -0.297 -0.512 -0.297 -0.984 c 0 -0.934 0.273 -1.039 1.863 -0.699 c 0.969 0.203 0.988 0.949 0.043 1.469 c -0.715 0.391 -1.086 0.441 -1.609 0.215 m 2.152 -1.957 c -0.27 -0.203 -0.934 -0.445 -1.473 -0.535 c -0.629 -0.109 -0.977 -0.297 -0.977 -0.535 c 0 -0.289 0.207 -0.328 1.01 -0.188 c 0.551 0.098 1.184 0.277 1.402 0.398 c 0.223 0.121 0.621 0.223 0.891 0.223 c 0.574 0 0.656 0.629 0.113 0.852 c -0.473 0.191 -0.387 0.211 -0.965 -0.215" fill="#0145ab"/><path d="m 9.406 39.91 c 0 -2.176 0.023 -2.273 0.563 -2.418 c 0.309 -0.082 0.707 -0.129 0.887 -0.102 c 0.648 0.098 0.82 -0.023 1.262 -0.891 c 0.246 -0.48 0.59 -0.879 0.77 -0.879 c 0.18 0 0.387 -0.168 0.461 -0.375 c 0.074 -0.207 0.563 -0.508 1.082 -0.676 c 2.195 -0.695 1.25 -3.426 -1.059 -3.066 c -0.438 0.07 -1.273 -0.082 -1.949 -0.348 c -1.105 -0.438 -1.184 -0.523 -1.148 -1.293 c 0.023 -0.512 0.281 -1.09 0.684 -1.535 c 0.496 -0.551 0.605 -0.859 0.488 -1.367 c -0.094 -0.391 -0.02 -0.93 0.184 -1.336 c 0.676 -1.34 1.133 -2.605 1 -2.75 c -0.078 -0.078 -0.258 0.215 -0.398 0.648 c -0.145 0.438 -0.359 0.797 -0.477 0.797 c -0.117 0 -0.215 0.156 -0.215 0.352 c 0 0.492 -1.688 3.918 -1.93 3.918 c -0.355 0 -0.215 -1.449 0.152 -1.598 c 0.195 -0.082 0.355 -0.32 0.355 -0.535 c 0 -0.211 0.102 -0.582 0.227 -0.824 c 0.125 -0.238 0.398 -0.887 0.613 -1.438 c 0.211 -0.555 0.484 -1.203 0.602 -1.441 c 0.285 -0.57 0.922 -2.512 0.926 -2.816 c 0 -0.133 -0.125 -0.105 -0.281 0.059 c -0.219 0.234 -0.406 0.176 -0.832 -0.246 c -0.402 -0.406 -0.617 -0.473 -0.813 -0.266 c -0.359 0.379 -0.07 1.086 0.508 1.246 c 0.262 0.07 0.473 0.281 0.473 0.465 c 0 0.574 -1.617 4.129 -1.879 4.129 c -0.383 0 -0.34 -6.445 0.043 -6.637 c 0.238 -0.117 0.238 -0.176 0 -0.293 c -0.16 -0.078 -0.293 -0.488 -0.293 -0.906 c 0 -0.672 0.063 -0.742 0.555 -0.609 c 0.398 0.105 0.703 -0.023 1.09 -0.457 c 0.688 -0.777 0.434 -1.332 -0.355 -0.781 c -1.203 0.832 -1.289 0.652 -1.289 -2.625 v -3.01 h 5.918 c 5.605 0 5.949 0.027 6.395 0.5 c 0.262 0.277 0.477 0.684 0.477 0.902 c 0 0.305 0.152 0.359 0.684 0.234 c 0.379 -0.086 1.23 -0.164 1.898 -0.168 c 0.848 -0.008 1.207 -0.109 1.207 -0.348 c 0 -0.188 -0.105 -0.406 -0.238 -0.492 c -0.641 -0.422 -0.051 -0.629 1.777 -0.629 c 1.543 0 2.01 0.078 2.01 0.344 c 0 0.215 0.41 0.402 1.125 0.508 c 0.957 0.141 1.188 0.09 1.52 -0.344 c 0.324 -0.418 0.676 -0.508 1.953 -0.508 c 1.594 0 2.184 0.406 0.793 0.547 c -0.504 0.055 -0.793 0.23 -0.844 0.52 c -0.102 0.559 0.793 0.605 1.082 0.055 c 0.172 -0.324 0.395 -0.34 1.492 -0.105 c 0.707 0.156 1.688 0.402 2.176 0.551 l 0.891 0.273 v 1.699 c 0 1.512 -0.066 1.754 -0.594 2.191 c -0.805 0.672 -0.805 1.414 0 1.199 c 0.535 -0.145 0.594 -0.086 0.594 0.617 c 0 0.426 -0.109 0.984 -0.238 1.246 c -0.16 0.313 -0.16 0.52 0 0.625 c 0.152 0.102 0.238 4.168 0.238 11.441 v 11.289 h -4.266 c -2.684 0 -4.262 -0.094 -4.262 -0.25 c 0 -0.141 -0.16 -0.254 -0.355 -0.254 c -0.195 0 -0.355 0.113 -0.355 0.254 c 0 0.355 -2.07 0.316 -2.184 -0.043 c -0.07 -0.223 -0.281 -0.223 -0.883 0 c -1.059 0.391 -2.789 0.379 -2.914 -0.02 c -0.078 -0.238 -0.18 -0.246 -0.434 -0.027 c -0.234 0.203 -2.508 0.301 -7.5 0.328 l -7.164 0.039 v -2.27 m 17.17 0.988 c 0.078 -0.137 0.539 -0.23 1.02 -0.215 c 1.16 0.047 2.367 -0.254 2.59 -0.641 c 0.098 -0.172 0.863 -0.754 1.703 -1.297 c 2.438 -1.582 3.926 -3.867 4.605 -7.07 c 0.824 -3.867 0.383 -4 -1.938 -0.578 c -0.887 1.313 -1.762 2.387 -1.941 2.387 c -0.18 0 -0.629 -0.605 -0.992 -1.348 c -0.891 -1.805 -0.941 -4.03 -0.117 -4.906 c 0.301 -0.32 0.676 -0.625 0.836 -0.684 c 0.16 -0.055 0.406 -0.891 0.547 -1.852 c 0.285 -1.941 0.191 -2.383 -1.027 -5.02 c -0.668 -1.441 -0.676 -1.48 -0.133 -0.941 c 0.309 0.309 0.664 0.563 0.785 0.563 c 0.406 0 2.691 -2.137 3.43 -3.203 c 0.852 -1.223 0.738 -1.703 -0.594 -2.535 c -1.359 -0.852 -3.168 -1.293 -5.273 -1.293 c -2.047 0 -3.191 0.371 -3.461 1.121 c -0.18 0.488 -1.012 0.504 -1.184 0.023 c -0.074 -0.199 -0.383 -0.539 -0.695 -0.754 c -0.5 -0.348 -0.688 -0.352 -1.73 -0.02 c -0.641 0.203 -1.898 0.824 -2.789 1.379 c -0.895 0.559 -1.934 1.012 -2.309 1.012 c -0.711 0 -0.859 0.219 -0.441 0.66 c 0.168 0.18 -0.016 0.715 -0.582 1.715 c -1.324 2.328 -1.363 4.211 -0.109 4.926 c 0.492 0.277 0.492 0.277 0.023 0.82 c -0.66 0.77 -0.895 1.676 -0.43 1.676 c 0.199 0 1.223 -1.16 2.277 -2.574 c 2.758 -3.711 5.418 -6.488 6.05 -6.316 c 0.355 0.094 0.609 -0.047 0.879 -0.48 c 0.297 -0.484 0.664 -0.652 1.707 -0.793 c 1.555 -0.203 1.719 -0.102 2.547 1.594 c 0.547 1.117 0.563 1.211 0.152 1.102 c -0.273 -0.078 -0.445 -0.348 -0.445 -0.695 c 0 -0.359 -0.176 -0.617 -0.477 -0.699 c -0.281 -0.078 -0.473 -0.344 -0.473 -0.656 c 0 -0.629 -0.637 -0.703 -1.316 -0.16 c -0.254 0.203 -0.645 0.375 -0.875 0.379 c -0.227 0.004 -0.629 0.234 -0.887 0.508 c -0.262 0.277 -0.688 0.504 -0.949 0.504 c -0.633 0 -3.898 3.309 -4.914 4.984 c -0.445 0.738 -1.391 2.063 -2.094 2.941 c -0.707 0.883 -1.281 1.777 -1.281 1.988 c 0 0.211 -0.105 0.383 -0.238 0.383 c -0.129 0 -0.234 0.566 -0.234 1.258 c 0 0.691 0.078 1.254 0.176 1.258 c 0.098 0 0.199 0.422 0.223 0.934 c 0.027 0.516 0.16 0.977 0.301 1.027 c 0.137 0.047 0.188 0.195 0.109 0.328 c -0.078 0.133 0.004 0.422 0.176 0.645 c 0.176 0.223 0.281 0.445 0.238 0.496 c -0.16 0.195 0.246 1.59 0.465 1.59 c 0.129 0 0.168 0.113 0.086 0.25 c -0.078 0.141 -0.027 0.254 0.121 0.254 c 0.145 0 0.207 0.094 0.141 0.211 c -0.07 0.117 0.063 0.43 0.289 0.691 c 0.23 0.262 0.77 1.02 1.199 1.684 c 0.852 1.32 2.238 2.504 3.492 2.984 c 0.438 0.168 0.801 0.398 0.801 0.508 c 0 0.293 2.785 0.246 2.957 -0.051 m 3.215 -18.16 c -0.121 -0.34 -0.297 -1.043 -0.391 -1.559 c -0.129 -0.738 -0.094 -0.914 0.164 -0.824 c 0.699 0.242 1.324 2.68 0.742 2.895 c -0.16 0.063 -0.395 -0.168 -0.516 -0.512 m -2.75 -0.789 c -0.223 -0.617 -0.332 -1.316 -0.246 -1.555 c 0.141 -0.398 0.195 -0.391 0.637 0.078 c 0.629 0.668 0.91 2.594 0.379 2.594 c -0.215 0 -0.531 -0.457 -0.77 -1.117 m 9.129 -0.762 c 0 -0.211 -0.16 -0.379 -0.355 -0.379 c -0.195 0 -0.355 0.168 -0.355 0.379 c 0 0.207 0.16 0.375 0.355 0.375 c 0.195 0 0.355 -0.168 0.355 -0.375 m 2.367 -1.383 c 0 -0.137 -0.105 -0.25 -0.238 -0.25 c -0.129 0 -0.234 0.113 -0.234 0.25 c 0 0.137 0.105 0.25 0.234 0.25 c 0.133 0 0.238 -0.113 0.238 -0.25 m -25.348 -1.332 c 0.004 -0.113 -0.102 -0.137 -0.234 -0.051 c -0.129 0.086 -0.234 0.348 -0.23 0.582 c 0.004 0.363 0.035 0.371 0.23 0.047 c 0.129 -0.207 0.234 -0.469 0.234 -0.578 m 2.602 -2.652 c 0.008 -1.016 -0.031 -1.086 -0.523 -0.945 c -0.293 0.082 -0.703 0.152 -0.91 0.152 c -0.234 0.004 -0.484 0.383 -0.652 0.977 c -0.395 1.391 -0.348 1.793 0.199 1.793 c 0.289 0 0.477 0.168 0.48 0.438 c 0.004 0.324 0.191 0.207 0.703 -0.438 c 0.535 -0.676 0.699 -1.137 0.703 -1.977 m 22.04 1.598 c 0 -0.207 -0.16 -0.375 -0.355 -0.375 c -0.195 0 -0.355 0.168 -0.355 0.375 c 0 0.207 0.16 0.379 0.355 0.379 c 0.195 0 0.355 -0.172 0.355 -0.379 m -25.344 -2.387 c 0 -0.137 -0.047 -0.25 -0.105 -0.25 c -0.055 0 -0.168 0.113 -0.25 0.25 c -0.078 0.141 -0.031 0.254 0.105 0.254 c 0.137 0 0.25 -0.113 0.25 -0.254 m 7.949 -3.457 c -0.078 -0.086 -0.328 0.051 -0.555 0.301 c -0.391 0.434 -0.383 0.441 0.145 0.152 c 0.305 -0.164 0.488 -0.371 0.41 -0.453 m -8.66 23.59 c 0 -0.41 0.934 -1.102 1.293 -0.953 c 0.535 0.215 0.445 0.543 -0.238 0.875 c -0.715 0.344 -1.055 0.371 -1.055 0.078 m -2.07 -0.457 c -0.164 -0.066 -0.297 -0.512 -0.297 -0.984 c 0 -0.934 0.273 -1.035 1.863 -0.699 c 0.969 0.203 0.988 0.949 0.043 1.469 c -0.715 0.391 -1.086 0.441 -1.609 0.215 m 2.152 -1.957 c -0.27 -0.203 -0.934 -0.445 -1.473 -0.535 c -0.629 -0.105 -0.977 -0.297 -0.977 -0.535 c 0 -0.289 0.207 -0.328 1.01 -0.188 c 0.551 0.098 1.184 0.277 1.402 0.398 c 0.223 0.121 0.621 0.223 0.891 0.223 c 0.574 0 0.656 0.629 0.113 0.852 c -0.473 0.191 -0.387 0.211 -0.965 -0.215" fill="#c01c12"/><path d="m 9.406 39.898 c 0 -2.164 0.023 -2.262 0.563 -2.406 c 0.309 -0.082 0.707 -0.129 0.887 -0.102 c 0.648 0.098 0.82 -0.023 1.262 -0.887 c 0.246 -0.484 0.59 -0.883 0.77 -0.883 c 0.18 0 0.387 -0.168 0.461 -0.375 c 0.074 -0.203 0.563 -0.508 1.082 -0.676 c 2.195 -0.695 1.25 -3.426 -1.059 -3.066 c -0.438 0.07 -1.273 -0.078 -1.949 -0.348 c -1.105 -0.438 -1.184 -0.523 -1.148 -1.293 c 0.023 -0.512 0.281 -1.09 0.684 -1.535 c 0.496 -0.551 0.605 -0.859 0.488 -1.367 c -0.094 -0.391 -0.02 -0.926 0.184 -1.332 c 0.676 -1.344 1.133 -2.609 1 -2.75 c -0.078 -0.082 -0.258 0.211 -0.398 0.648 c -0.145 0.434 -0.359 0.793 -0.477 0.793 c -0.117 0 -0.215 0.156 -0.215 0.352 c 0 0.492 -1.688 3.918 -1.93 3.918 c -0.355 0 -0.215 -1.445 0.152 -1.598 c 0.195 -0.078 0.355 -0.32 0.355 -0.531 c 0 -0.215 0.102 -0.586 0.227 -0.824 c 0.125 -0.242 0.398 -0.891 0.613 -1.441 c 0.211 -0.555 0.484 -1.203 0.602 -1.441 c 0.285 -0.57 0.922 -2.512 0.926 -2.816 c 0 -0.133 -0.125 -0.105 -0.281 0.063 c -0.219 0.23 -0.406 0.176 -0.832 -0.25 c -0.402 -0.402 -0.617 -0.473 -0.813 -0.266 c -0.359 0.379 -0.07 1.086 0.508 1.246 c 0.262 0.074 0.473 0.281 0.473 0.465 c 0 0.578 -1.617 4.129 -1.879 4.129 c -0.383 0 -0.34 -6.445 0.043 -6.633 c 0.238 -0.117 0.238 -0.176 0 -0.293 c -0.16 -0.082 -0.293 -0.488 -0.293 -0.906 c 0 -0.672 0.063 -0.746 0.555 -0.613 c 0.398 0.105 0.703 -0.023 1.09 -0.457 c 0.688 -0.777 0.434 -1.328 -0.355 -0.781 c -1.203 0.836 -1.289 0.652 -1.289 -2.621 v -3.02 h 5.918 c 5.605 0 5.949 0.027 6.395 0.504 c 0.262 0.273 0.477 0.68 0.477 0.898 c 0 0.305 0.152 0.359 0.684 0.234 c 0.379 -0.086 1.23 -0.164 1.898 -0.168 c 0.848 -0.008 1.207 -0.109 1.207 -0.348 c 0 -0.188 -0.105 -0.406 -0.238 -0.492 c -0.641 -0.422 -0.051 -0.629 1.777 -0.629 c 1.543 0 2.01 0.082 2.01 0.344 c 0 0.219 0.41 0.402 1.125 0.508 c 0.957 0.141 1.188 0.09 1.52 -0.344 c 0.324 -0.414 0.676 -0.508 1.953 -0.508 c 1.594 0 2.184 0.406 0.793 0.551 c -0.504 0.051 -0.793 0.227 -0.844 0.516 c -0.102 0.563 0.793 0.605 1.082 0.059 c 0.172 -0.328 0.395 -0.344 1.492 -0.105 c 0.707 0.152 1.688 0.398 2.176 0.547 l 0.891 0.273 v 1.699 c 0 1.512 -0.066 1.754 -0.594 2.191 c -0.805 0.672 -0.805 1.414 0 1.199 c 0.535 -0.145 0.594 -0.086 0.594 0.617 c 0 0.426 -0.109 0.984 -0.238 1.246 c -0.16 0.313 -0.16 0.52 0 0.625 c 0.152 0.102 0.238 4.168 0.238 11.445 v 11.285 h -1.719 l -1.715 -0.004 l -1.043 -1.125 c -0.574 -0.621 -1.453 -1.328 -1.949 -1.57 c -0.496 -0.242 -0.906 -0.52 -0.91 -0.617 c -0.004 -0.098 0.508 -0.723 1.137 -1.391 c 1.547 -1.641 2.402 -3.27 2.918 -5.559 c 0.539 -2.391 0.566 -3.363 0.086 -3.254 c -0.195 0.047 -1.082 1.156 -1.969 2.469 c -0.891 1.313 -1.766 2.387 -1.945 2.387 c -0.18 0 -0.625 -0.605 -0.992 -1.348 c -0.887 -1.805 -0.941 -4.03 -0.117 -4.906 c 0.301 -0.32 0.676 -0.625 0.836 -0.684 c 0.16 -0.055 0.406 -0.891 0.547 -1.852 c 0.285 -1.941 0.195 -2.383 -1.027 -5.02 c -0.668 -1.441 -0.672 -1.48 -0.133 -0.941 c 0.313 0.309 0.664 0.563 0.789 0.563 c 0.402 0 2.688 -2.137 3.43 -3.203 c 0.848 -1.223 0.734 -1.703 -0.594 -2.535 c -1.363 -0.852 -3.168 -1.293 -5.277 -1.293 c -2.047 0 -3.191 0.371 -3.461 1.121 c -0.176 0.488 -1.01 0.504 -1.184 0.023 c -0.07 -0.199 -0.383 -0.539 -0.691 -0.754 c -0.504 -0.348 -0.691 -0.352 -1.73 -0.02 c -0.645 0.203 -1.898 0.824 -2.793 1.379 c -0.895 0.559 -1.934 1.012 -2.309 1.012 c -0.711 0 -0.855 0.219 -0.441 0.66 c 0.168 0.18 -0.016 0.715 -0.582 1.715 c -1.32 2.328 -1.363 4.211 -0.105 4.926 c 0.488 0.277 0.488 0.277 0.02 0.82 c -0.66 0.77 -0.895 1.676 -0.43 1.676 c 0.203 0 1.227 -1.16 2.277 -2.574 c 2.758 -3.711 5.418 -6.488 6.05 -6.316 c 0.355 0.094 0.609 -0.047 0.879 -0.48 c 0.301 -0.484 0.668 -0.652 1.711 -0.793 c 1.551 -0.203 1.715 -0.102 2.547 1.594 c 0.543 1.117 0.559 1.211 0.148 1.102 c -0.27 -0.078 -0.445 -0.348 -0.445 -0.695 c 0 -0.359 -0.176 -0.617 -0.473 -0.699 c -0.285 -0.078 -0.477 -0.344 -0.477 -0.656 c 0 -0.629 -0.637 -0.703 -1.316 -0.16 c -0.254 0.203 -0.645 0.375 -0.875 0.379 c -0.227 0.004 -0.625 0.234 -0.887 0.508 c -0.262 0.277 -0.688 0.504 -0.945 0.504 c -0.637 0 -3.898 3.309 -4.914 4.984 c -0.449 0.738 -1.375 2.043 -2.063 2.902 c -1.578 1.969 -1.789 2.398 -1.789 3.621 c 0 1.344 1.031 5.109 1.898 6.926 c 0.391 0.813 0.707 1.617 0.707 1.785 c 0 0.172 -0.629 0.449 -1.434 0.629 c -2.453 0.555 -3.766 1.797 -4.57 4.332 c -0.113 0.352 -0.418 0.438 -1.566 0.438 h -1.43 v -2.254 m 26.762 -18.719 c 0 -0.207 -0.16 -0.375 -0.355 -0.375 c -0.195 0 -0.355 0.168 -0.355 0.375 c 0 0.207 0.16 0.379 0.355 0.379 c 0.195 0 0.355 -0.172 0.355 -0.379 m 2.367 -1.379 c 0 -0.141 -0.105 -0.254 -0.238 -0.254 c -0.129 0 -0.234 0.113 -0.234 0.254 c 0 0.137 0.105 0.25 0.234 0.25 c 0.133 0 0.238 -0.113 0.238 -0.25 m -25.348 -1.336 c 0.004 -0.109 -0.102 -0.133 -0.23 -0.047 c -0.133 0.086 -0.238 0.348 -0.234 0.578 c 0.004 0.367 0.035 0.375 0.234 0.051 c 0.125 -0.207 0.23 -0.469 0.23 -0.582 m 2.602 -2.652 c 0.008 -1.016 -0.031 -1.082 -0.523 -0.945 c -0.293 0.086 -0.703 0.156 -0.91 0.156 c -0.234 0.004 -0.484 0.379 -0.652 0.977 c -0.395 1.387 -0.348 1.789 0.199 1.789 c 0.289 0 0.477 0.172 0.48 0.441 c 0.004 0.32 0.191 0.203 0.703 -0.441 c 0.535 -0.672 0.699 -1.133 0.703 -1.973 m 22.04 1.598 c 0 -0.207 -0.16 -0.379 -0.355 -0.379 c -0.195 0 -0.355 0.172 -0.355 0.379 c 0 0.207 0.16 0.375 0.355 0.375 c 0.195 0 0.355 -0.168 0.355 -0.375 m -25.344 -2.387 c 0 -0.137 -0.047 -0.25 -0.102 -0.25 c -0.059 0 -0.172 0.113 -0.254 0.25 c -0.078 0.137 -0.031 0.25 0.105 0.25 c 0.137 0 0.25 -0.113 0.25 -0.25 m 7.949 -3.457 c -0.078 -0.086 -0.328 0.051 -0.551 0.301 c -0.395 0.434 -0.387 0.441 0.141 0.152 c 0.305 -0.168 0.488 -0.371 0.41 -0.453 m 2 30.363 c 0.016 -0.711 0.516 -0.883 2.406 -0.824 c 1.91 0.063 4.762 -0.473 5.273 -0.988 c 0.125 -0.125 0.352 -0.227 0.508 -0.227 c 0.332 0 1.141 1.996 0.902 2.227 c -0.086 0.086 -0.207 0.016 -0.266 -0.156 c -0.059 -0.172 -0.246 -0.313 -0.422 -0.313 c -0.172 0 -0.367 0.141 -0.434 0.313 c -0.078 0.207 -0.125 0.184 -0.137 -0.074 c -0.047 -0.969 -1.203 -1.172 -1.203 -0.215 c 0 0.262 -0.16 0.477 -0.355 0.477 c -0.195 0 -0.355 -0.125 -0.355 -0.277 c 0 -0.184 -0.223 -0.211 -0.652 -0.082 c -0.914 0.277 -2.988 0.289 -3.172 0.02 c -0.082 -0.125 -0.285 -0.137 -0.453 -0.027 c -0.379 0.25 -1.645 0.363 -1.641 0.152 m -10.664 -6.777 c 0 -0.414 0.938 -1.102 1.297 -0.957 c 0.531 0.219 0.445 0.547 -0.242 0.879 c -0.715 0.344 -1.055 0.367 -1.055 0.078 m -2.07 -0.457 c -0.164 -0.07 -0.297 -0.512 -0.297 -0.984 c 0 -0.934 0.273 -1.039 1.867 -0.703 c 0.965 0.207 0.984 0.953 0.039 1.469 c -0.715 0.395 -1.086 0.441 -1.609 0.219 m 2.156 -1.961 c -0.273 -0.203 -0.938 -0.441 -1.477 -0.535 c -0.629 -0.105 -0.977 -0.297 -0.977 -0.531 c 0 -0.293 0.207 -0.332 1.01 -0.191 c 0.551 0.098 1.184 0.277 1.402 0.398 c 0.223 0.125 0.621 0.223 0.891 0.223 c 0.574 0 0.66 0.633 0.113 0.852 c -0.473 0.195 -0.387 0.215 -0.961 -0.215 m 17.934 -10.01 c -0.125 -0.34 -0.297 -1.043 -0.391 -1.559 c -0.129 -0.738 -0.098 -0.914 0.164 -0.824 c 0.699 0.242 1.324 2.68 0.742 2.895 c -0.16 0.063 -0.395 -0.168 -0.516 -0.512 m -2.75 -0.789 c -0.223 -0.617 -0.336 -1.316 -0.25 -1.555 c 0.145 -0.398 0.195 -0.391 0.641 0.078 c 0.629 0.664 0.91 2.594 0.379 2.594 c -0.215 0 -0.531 -0.461 -0.77 -1.121" fill="#1b225d"/><path d="m 11.539 41.73 c 0 -1.48 2.125 -4.113 4.156 -5.164 c 0.867 -0.445 1.066 -0.66 0.969 -1.066 c -0.066 -0.277 -0.23 -0.957 -0.367 -1.508 c -0.133 -0.555 -0.254 -1.457 -0.258 -2.01 c -0.008 -0.551 -0.172 -1.223 -0.363 -1.492 c -0.391 -0.551 -0.469 -1.648 -0.113 -1.648 c 0.125 0 0.293 0.313 0.363 0.691 c 0.324 1.672 1.191 4.313 1.809 5.523 c 0.371 0.723 0.672 1.469 0.672 1.66 c 0 0.219 -0.52 0.465 -1.43 0.668 c -2.453 0.555 -3.766 1.797 -4.57 4.332 c -0.18 0.563 -0.867 0.574 -0.867 0.016 m 10.895 0.195 c 0 -0.309 0.676 -1.027 0.965 -1.027 c 0.414 0 0.223 0.441 -0.371 0.855 c -0.328 0.227 -0.594 0.305 -0.594 0.172 m 2.371 -0.082 c 0 -0.105 0.242 -0.191 0.543 -0.191 c 0.301 0 0.645 -0.102 0.77 -0.223 c 0.273 -0.266 2 -0.617 2 -0.406 c 0 0.082 -0.398 0.324 -0.883 0.543 c -0.957 0.422 -2.43 0.59 -2.43 0.277 m 4.051 -0.254 c -0.02 -0.504 0.086 -0.691 0.387 -0.688 c 0.266 0 0.316 0.07 0.148 0.188 c -0.148 0.102 -0.324 0.41 -0.387 0.688 c -0.094 0.383 -0.125 0.34 -0.148 -0.188 m 2.473 0.102 c -0.082 -0.273 -0.305 -0.559 -0.496 -0.637 c -0.367 -0.152 -0.488 -1.16 -0.133 -1.16 c 0.238 0 1.051 2.01 0.887 2.184 c -0.059 0.063 -0.176 -0.113 -0.258 -0.387 m 3.918 -0.668 c -0.574 -0.621 -1.449 -1.324 -1.945 -1.566 c -0.5 -0.246 -0.91 -0.52 -0.914 -0.613 c -0.004 -0.09 0.621 -0.832 1.387 -1.641 c 1.879 -1.992 2.691 -3.895 3.23 -7.547 c 0.141 -0.957 0.105 -1.066 -0.32 -1.066 c -0.332 0 -0.961 0.727 -2.078 2.395 c -1.012 1.516 -1.734 2.371 -1.965 2.324 c -0.563 -0.117 -1.379 -1.879 -1.551 -3.348 c -0.176 -1.461 0.305 -3.129 0.895 -3.129 c 0.586 0 0.891 -0.656 1.063 -2.301 c 0.09 -0.875 0.27 -1.566 0.402 -1.531 c 0.406 0.102 0.414 2.977 0.012 3.809 c -0.461 0.945 -0.465 1.281 -0.012 1.281 c 0.227 0 0.355 0.238 0.355 0.664 c 0 0.641 0.047 0.617 1.305 -0.645 c 0.922 -0.926 1.461 -1.285 1.836 -1.23 c 0.492 0.074 0.535 0.223 0.598 2.207 c 0.098 2.961 -0.547 5.05 -2.457 7.973 l -1.02 1.563 l 1.406 1.496 c 0.777 0.82 1.41 1.617 1.41 1.766 c 0 0.559 -0.625 0.23 -1.637 -0.859 m -2.746 -11.176 c 0 -0.691 -0.078 -1.258 -0.176 -1.258 c -0.098 0 -0.18 0.566 -0.18 1.258 c 0 0.688 0.082 1.254 0.18 1.254 c 0.098 0 0.176 -0.566 0.176 -1.254 m -17.355 -2.07 c -0.145 -0.184 -0.262 -0.781 -0.258 -1.332 c 0.004 -1.949 -0.031 -2.238 -0.414 -3.305 c -0.602 -1.668 -0.129 -3.801 1.25 -5.637 c 0.141 -0.188 0.328 -0.781 0.422 -1.316 c 0.164 -0.969 0.164 -0.969 0.539 -0.402 c 0.238 0.359 0.297 0.68 0.164 0.871 c -1.391 1.965 -1.598 2.52 -1.609 4.301 c -0.012 1.152 0.098 1.938 0.301 2.199 c 0.184 0.234 0.266 0.699 0.191 1.102 c -0.078 0.426 0.012 0.852 0.23 1.113 c 0.305 0.359 0.312 0.563 0.051 1.379 c -0.398 1.25 -0.551 1.43 -0.867 1.027 m 14.758 -4.773 c -0.184 -0.586 -0.598 -2.324 -0.598 -2.512 c 0 -0.105 0.109 -0.191 0.246 -0.191 c 0.324 0 0.938 1.559 0.938 2.379 c 0 0.656 -0.414 0.879 -0.586 0.324 m -2.43 -0.254 c -0.242 -0.328 -0.773 -1.863 -0.773 -2.234 c 0 -0.512 0.73 -0.148 1.059 0.527 c 0.613 1.258 0.387 2.621 -0.285 1.707 m 5.03 -1.852 c -0.453 -1.145 -0.457 -1.098 0.176 -1.098 c 0.297 0 0.668 -0.227 0.832 -0.504 c 0.352 -0.594 0.766 -0.66 0.766 -0.117 c 0 0.211 -0.246 0.48 -0.547 0.602 c -0.465 0.188 -0.531 0.363 -0.449 1.125 c 0.129 1.184 -0.309 1.18 -0.777 -0.008 m 3.426 -4.137 c 0.523 -0.703 0.953 -1.539 0.953 -1.859 c 0 -1.109 -2.84 -2.887 -4.609 -2.887 c -0.941 0 -1.305 -0.383 -0.566 -0.586 c 0.602 -0.168 1.816 0.055 1.996 0.367 c 0.07 0.117 0.328 0.219 0.574 0.219 c 0.246 0 0.852 0.242 1.348 0.543 c 2.344 1.418 2.559 2.41 0.926 4.289 c -1.383 1.59 -1.824 1.527 -0.621 -0.086 m -17.992 -2.234 c -0.188 -0.125 -0.293 -0.266 -0.234 -0.313 c 1.688 -1.289 3.719 -2.117 3.5 -1.422 c -0.164 0.527 -2.895 1.977 -3.266 1.734 m 7.254 -1.906 c -0.824 -0.766 -0.73 -0.953 0.273 -0.551 c 0.633 0.254 0.797 0.238 1.051 -0.098 c 0.348 -0.461 2.313 -0.855 2.313 -0.465 c 0 0.141 -0.164 0.254 -0.367 0.254 c -0.508 0 -1.84 0.75 -2.07 1.164 c -0.258 0.469 -0.414 0.43 -1.199 -0.305" fill="#16142c"/><g fill-opacity="0.988"><path d="m 23.13 37.05 c -2.77 -1.672 -4.727 -5.305 -4.57 -8.484 c 0.066 -1.383 0.07 -1.387 0.969 -1.703 c 1.18 -0.422 7.316 -0.875 8.906 -0.66 c 1.84 0.25 1.914 0.332 1.559 1.789 c -0.387 1.586 -0.035 3.164 1.16 5.195 c 0.309 0.527 0.262 0.613 -1.055 1.922 c -2.656 2.641 -4.813 3.242 -6.969 1.941 m 0.84 -3.516 c 0.309 -0.68 0.617 -0.801 3.082 -1.223 c 1.574 -0.273 2.695 -0.875 2.336 -1.258 c -0.148 -0.152 -1.141 -0.055 -2.898 0.281 c -1.473 0.285 -2.98 0.535 -3.355 0.559 c -0.629 0.035 -0.668 0.094 -0.598 0.867 c 0.141 1.48 0.918 1.902 1.434 0.773 m -1.922 -1.762 c 0.531 -0.801 0.445 -1.527 -0.238 -1.969 c -0.297 -0.195 -0.469 -0.141 -0.77 0.25 c -0.211 0.273 -0.563 0.563 -0.777 0.645 c -0.512 0.188 -0.5 0.434 0.07 1.195 c 0.613 0.82 1.113 0.785 1.715 -0.121" fill="#fff"/><g fill="#1b225d"><path d="m 36.25 13.367 c -1.066 -0.258 -1.77 -0.477 -1.566 -0.484 c 0.199 -0.008 0.309 -0.105 0.242 -0.219 c -0.082 -0.129 0.539 -0.203 1.719 -0.203 h 1.848 v 0.711 c 0 0.395 -0.07 0.703 -0.152 0.688 c -0.086 -0.012 -1.027 -0.234 -2.09 -0.492"/><path d="m 29.613 12.773 c -0.359 -0.273 -0.27 -0.301 1 -0.305 c 1.223 -0.008 1.371 0.031 1.148 0.297 c -0.324 0.395 -1.637 0.398 -2.152 0.008"/><path d="m 22.797 13.48 c 0 -0.113 -0.184 -0.387 -0.406 -0.613 c -0.406 -0.406 -0.406 -0.406 1.395 -0.406 c 1.703 0 1.813 0.027 2.023 0.488 c 0.203 0.445 0.168 0.496 -0.402 0.609 c -0.977 0.195 -2.609 0.145 -2.609 -0.078"/><path d="m 37.777 11.223 c -1.77 -0.477 -2.309 -0.484 -2.789 -0.051 c -0.258 0.23 -0.445 0.273 -0.586 0.133 c -0.27 -0.266 0.133 -0.613 0.828 -0.715 c 0.281 -0.043 0.484 -0.188 0.457 -0.324 c -0.035 -0.184 0.488 -0.25 1.988 -0.25 h 2.039 v 0.816 c 0 0.934 0.039 0.926 -1.938 0.391"/><path d="m 30.621 10.801 c -0.535 -0.098 -1 -0.273 -1 -0.383 c 0 -0.043 -0.066 -0.145 -0.148 -0.223 c -0.137 -0.137 0.008 -0.148 1.582 -0.145 c 0.953 0.004 1.668 0.031 1.59 0.059 c -0.078 0.031 -0.297 0.199 -0.484 0.379 c -0.387 0.367 -0.777 0.445 -1.539 0.313"/><path d="m 22.293 11.496 c -0.258 -0.793 -0.523 -1.129 -1.031 -1.309 c -0.344 -0.121 -0.148 -0.133 2.125 -0.133 c 1.59 0 2.426 0.035 2.293 0.086 c -0.277 0.113 -0.27 0.273 0.023 0.551 c 0.531 0.504 0.27 0.656 -1.332 0.77 c -0.723 0.051 -1.473 0.117 -1.668 0.152 c -0.293 0.051 -0.359 0.031 -0.41 -0.117"/><path d="m 21.14 9.977 c 0.977 -0.016 2.57 -0.016 3.543 0 c 0.977 0.016 0.18 0.027 -1.77 0.027 c -1.949 0 -2.746 -0.012 -1.773 -0.027"/><path d="m 9.5 36.12 v -1.496 l 0.293 0.145 c 0.945 0.473 2.82 -0.871 2.094 -1.5 c -0.391 -0.336 -1.965 -0.59 -2.242 -0.359 c -0.125 0.102 -0.145 0.051 -0.145 -0.402 v -0.516 l 0.402 0.121 c 0.219 0.066 0.695 0.215 1.051 0.324 c 0.359 0.109 0.805 0.305 0.992 0.43 c 0.395 0.27 0.578 0.285 0.961 0.086 c 0.484 -0.25 0.34 -0.895 -0.199 -0.895 c -0.137 0 -0.5 -0.086 -0.809 -0.195 c -0.816 -0.289 -1.543 -0.457 -1.996 -0.461 l -0.402 -0.004 v -1.316 c 0 -1.25 0.012 -1.332 0.219 -1.539 c 0.293 -0.293 1.414 -2.516 1.707 -3.383 c 0.129 -0.383 0.301 -0.746 0.383 -0.809 c 0.082 -0.059 0.277 -0.395 0.438 -0.742 c 0.156 -0.352 0.305 -0.621 0.324 -0.602 c 0.074 0.074 -0.227 0.926 -0.711 2.02 c -0.426 0.961 -0.48 1.164 -0.469 1.68 c 0.023 0.949 0.016 0.973 -0.387 1.48 c -0.539 0.684 -0.742 1.18 -0.746 1.813 c -0.004 0.473 0.027 0.563 0.27 0.762 c 0.148 0.125 0.625 0.348 1.063 0.496 c 0.641 0.215 0.984 0.27 1.789 0.289 c 1.117 0.023 1.398 0.121 1.855 0.641 c 0.762 0.867 0.344 1.941 -0.93 2.387 c -0.316 0.113 -0.648 0.328 -0.887 0.57 c -0.211 0.215 -0.48 0.418 -0.598 0.457 c -0.125 0.039 -0.375 0.32 -0.582 0.652 c -0.68 1.082 -0.699 1.098 -1.313 1.098 c -0.301 0 -0.742 0.063 -0.984 0.133 l -0.441 0.133 m 3.238 -2.445 c 0.766 -0.387 0.902 -0.629 0.492 -0.895 c -0.313 -0.207 -0.621 -0.121 -1.086 0.305 c -0.48 0.43 -0.52 0.789 -0.09 0.789 c 0.156 0 0.465 -0.09 0.684 -0.199"/><path d="m 9.5 26.23 c 0 -0.824 0.02 -0.949 0.156 -0.938 c 0.262 0.02 1.52 -2.535 1.848 -3.762 c 0.129 -0.488 0.07 -0.594 -0.488 -0.883 c -0.391 -0.207 -0.617 -0.578 -0.539 -0.895 c 0.094 -0.363 0.324 -0.395 0.695 -0.094 c 0.629 0.5 0.758 0.555 0.98 0.418 c 0.109 -0.066 0.219 -0.105 0.238 -0.086 c 0.102 0.102 -0.508 1.84 -1.328 3.809 c -0.5 1.191 -0.93 2.32 -0.961 2.512 c -0.035 0.207 -0.168 0.453 -0.328 0.609 l -0.273 0.262"/><path d="m 9.5 16.285 c 0 -0.453 0.016 -0.496 0.129 -0.34 c 0.148 0.203 0.508 0.148 0.914 -0.145 c 0.441 -0.309 0.75 -0.395 0.816 -0.219 c 0.082 0.215 -0.234 0.77 -0.598 1.043 c -0.246 0.188 -0.391 0.227 -0.781 0.203 l -0.48 -0.031"/><path d="m 38.645 16.852 c -0.125 -0.207 0.051 -0.574 0.52 -1.094 l 0.473 -0.52 v 0.805 c 0 0.723 -0.02 0.805 -0.18 0.805 c -0.098 0 -0.305 0.023 -0.461 0.055 c -0.172 0.035 -0.309 0.016 -0.352 -0.051"/><path d="m 14.414 18.19 c 0 -0.23 -0.152 -0.363 -0.5 -0.453 c -0.367 -0.09 -0.441 -0.285 -0.34 -0.918 c 0.094 -0.605 0.422 -1.547 0.566 -1.637 c 0.172 -0.105 1.355 -0.324 1.488 -0.273 c 0.098 0.039 0.121 0.242 0.09 0.922 c -0.031 0.73 -0.082 0.949 -0.301 1.344 c -0.262 0.477 -0.543 0.836 -0.844 1.074 c -0.141 0.113 -0.16 0.105 -0.16 -0.059"/><path d="m 39.625 20.688 c -0.027 -0.82 -0.059 -1.129 -0.137 -1.297 c -0.102 -0.211 -0.098 -0.234 0.051 -0.656 l 0.156 -0.438 l 0.004 1.734 c 0 0.957 -0.008 1.734 -0.02 1.734 c -0.012 0 -0.039 -0.484 -0.055 -1.078"/><path d="m 25.59 9.969 c 0.297 -0.012 0.805 -0.012 1.125 0 c 0.316 0.012 0.074 0.02 -0.547 0.02 c -0.617 0 -0.879 -0.008 -0.578 -0.02"/><path d="m 9.418 19.13 l -0.008 -1.277 l 0.078 0.227 c 0.051 0.152 0.129 0.27 0.227 0.352 l 0.148 0.125 l -0.117 0.086 c -0.086 0.066 -0.129 0.145 -0.164 0.309 c -0.051 0.242 -0.129 0.879 -0.148 1.23 c -0.004 0.125 -0.012 -0.348 -0.016 -1.051"/><path d="m 9.41 29.953 c 0 -1.184 0.012 -1.539 0.047 -1.477 c 0.023 0.043 0.07 0.094 0.102 0.113 c 0.047 0.027 0.047 0.051 0.004 0.125 c -0.039 0.066 -0.055 0.445 -0.066 1.406 c -0.004 0.75 -0.027 1.336 -0.051 1.359 c -0.023 0.023 -0.039 -0.551 -0.035 -1.523"/><path d="m 9.418 25.941 c 0 -1.148 0.012 -1.594 0.035 -1.359 c 0.016 0.195 0.051 0.43 0.074 0.523 c 0.031 0.117 0.031 0.207 0.004 0.281 c -0.059 0.148 -0.055 1.793 0 1.793 c 0.027 0 0.031 0.02 0.016 0.043 c -0.016 0.027 -0.051 0.133 -0.082 0.238 c -0.043 0.164 -0.051 -0.063 -0.047 -1.52"/><path d="m 9.418 16 c 0 -0.801 0.008 -0.961 0.035 -0.723 c 0.02 0.172 0.055 0.363 0.078 0.43 c 0.031 0.086 0.027 0.129 0 0.148 c -0.027 0.02 -0.043 0.203 -0.039 0.496 c 0.004 0.262 -0.012 0.52 -0.035 0.574 c -0.031 0.074 -0.043 -0.188 -0.043 -0.926"/><path d="m 9.414 36.15 c 0 -1.727 0.008 -2.01 0.051 -1.852 c 0.031 0.102 0.07 0.223 0.086 0.266 c 0.027 0.055 0.02 0.07 -0.012 0.047 c -0.039 -0.023 -0.051 0.344 -0.051 1.5 c 0 1.344 0.008 1.527 0.063 1.508 c 0.078 -0.031 0.078 -0.008 0 0.113 c -0.035 0.055 -0.078 0.18 -0.098 0.277 c -0.023 0.113 -0.039 -0.602 -0.039 -1.855"/><path d="m 9.41 32.555 c 0 -0.512 0.012 -0.727 0.039 -0.699 c 0.059 0.059 0.063 1.199 0.008 1.336 c -0.031 0.074 -0.043 -0.086 -0.047 -0.637"/><path d="m 21.05 10.145 c -0.086 -0.027 -0.578 -0.078 -0.973 -0.102 c -0.184 -0.012 1.176 -0.02 3.02 -0.02 c 2.852 -0.004 3.313 0.004 3.094 0.031 c -0.137 0.016 -0.301 0.047 -0.359 0.063 c -0.078 0.02 -0.121 0.02 -0.156 0 c -0.094 -0.051 -1.457 -0.082 -2.969 -0.07 c -0.816 0.008 -1.504 0.02 -1.531 0.031 c -0.023 0.012 -0.039 0.035 -0.031 0.055 c 0.016 0.039 0.008 0.039 -0.09 0.012"/><path d="m 29.332 10.125 c -0.051 -0.02 -0.188 -0.051 -0.305 -0.07 c -0.191 -0.031 0.051 -0.035 1.977 -0.031 c 1.203 0 2.152 0.004 2.105 0.012 c -0.105 0.012 -0.375 0.07 -0.445 0.098 c -0.031 0.012 -0.043 0.008 -0.027 -0.012 c 0.008 -0.016 -0.02 -0.035 -0.078 -0.047 c -0.129 -0.023 -2.973 -0.027 -3.059 0 c -0.035 0.008 -0.07 0.031 -0.074 0.051 c -0.008 0.027 -0.023 0.027 -0.094 0"/><path d="m 35.621 10.191 c -0.035 -0.031 -0.395 -0.121 -0.602 -0.148 c -0.105 -0.016 0.117 -0.023 0.652 -0.02 c 0.566 0 0.75 0.004 0.602 0.02 c -0.297 0.027 -0.473 0.07 -0.547 0.125 c -0.07 0.059 -0.074 0.059 -0.105 0.023"/><path d="m 39.73 15.684 c 0 -0.891 0.004 -1.254 0.008 -0.805 c 0.004 0.453 0.004 1.184 0 1.625 c -0.004 0.441 -0.008 0.074 -0.008 -0.82"/><path d="m 39.684 17 c -0.012 -0.039 -0.051 -0.086 -0.09 -0.109 c -0.063 -0.035 -0.066 -0.043 -0.035 -0.07 c 0.023 -0.016 0.051 -0.082 0.059 -0.152 c 0.027 -0.148 0.031 -1.43 0.008 -1.43 c -0.008 0 -0.031 0.02 -0.051 0.043 c -0.027 0.031 -0.031 0.035 -0.023 0.008 c 0.086 -0.258 0.125 -0.406 0.141 -0.551 c 0.012 -0.105 0.023 0.313 0.023 1.074 c 0.004 0.688 0 1.25 -0.008 1.25 c -0.004 0 -0.016 -0.027 -0.023 -0.063"/><path d="m 39.688 23.363 c -0.008 -0.832 -0.004 -1.656 0.004 -1.832 c 0.012 -0.188 0.02 0.434 0.023 1.516 c 0.004 1.01 0 1.832 -0.004 1.832 c -0.004 0 -0.016 -0.684 -0.023 -1.516"/><path d="m 37.898 42.14 c 0.148 -0.004 0.398 -0.004 0.559 0 c 0.156 0.004 0.035 0.008 -0.273 0.008 c -0.305 0 -0.434 -0.004 -0.285 -0.008"/><path d="m 9.48 31.3 c -0.004 -0.039 -0.004 -0.195 0.004 -0.348 l 0.016 -0.281 l 0.004 0.352 c 0.004 0.332 -0.004 0.43 -0.023 0.277"/><path d="m 19.11 9.996 c 0.332 -0.004 0.871 -0.004 1.191 0 c 0.324 0.004 0.055 0.008 -0.602 0.008 c -0.656 0 -0.922 -0.004 -0.59 -0.008"/><path d="m 20.18 10.04 c 0.016 -0.008 0.039 -0.008 0.055 0 c 0.016 0.008 0.004 0.012 -0.027 0.012 c -0.031 0 -0.043 -0.008 -0.027 -0.012"/><path d="m 19.539 10.03 c -0.211 -0.008 0.191 -0.016 0.895 -0.016 c 0.703 0 1.242 0.004 1.191 0.008 c -0.176 0.012 -1.711 0.016 -2.086 0.008"/><path d="m 25.801 10.03 c -0.434 -0.012 -0.43 -0.012 0.219 -0.02 c 0.363 0 0.656 0 0.652 0.004 c -0.02 0.02 -0.453 0.023 -0.871 0.016"/><path d="m 36.23 10.03 c -0.055 -0.008 0.059 -0.016 0.254 -0.016 c 0.352 0 0.359 0.012 0.023 0.02 c -0.098 0.004 -0.223 0 -0.277 -0.004"/><path d="m 39.742 21.277 l -0.008 -11.285 l -9.891 -0.004 l -9.887 -0.004 v -2.363 h 20.11 l 0.223 0.301 c 0.922 1.258 1.953 2.801 2.754 4.137 c 2.941 4.891 4.551 9.43 4.887 13.773 c 0.051 0.637 0.066 1.844 0.035 2.441 c -0.074 1.406 -0.277 2.684 -0.625 3.945 l -0.094 0.336 h -7.5 l -0.004 -11.281"/><path d="m 23.277 10.02 c 0.207 0 0.543 0 0.746 0 c 0.203 0.004 0.039 0.004 -0.371 0.004 c -0.41 0 -0.578 0 -0.375 -0.004"/><path d="m 25.25 10.02 c 0.051 0 0.133 0 0.184 0 c 0.051 0.004 0.008 0.004 -0.094 0.004 c -0.098 0 -0.141 0 -0.09 -0.004"/><path d="m 10.902 11.715 c 0 0.43 0 0.863 0 1.297 c 0 0.402 0 0.805 0 1.207 c 0 0.379 0 0.758 0 1.141 c 0 0.414 0 0.832 0 1.25 c 0 0.402 0 0.805 0 1.211 c 0 0.379 0 0.758 0 1.141 c 0 0.395 0 0.793 0 1.191 c 0 0.527 0 1.055 0 1.582 c 0 0.461 0 0.922 0 1.383 c 0 0.438 0 0.871 0 1.309 c 0 0.391 0 0.781 0 1.172 c 0 0.375 0 0.754 0 1.133 c 0 0.387 0 0.773 0 1.16 c 0 0.473 0 0.949 0 1.422 c 0 0.473 0 0.945 0 1.422 c 0 0.43 0 0.863 0 1.297 c 0 0.383 0 0.766 0 1.148 c 0 0.379 0 0.758 0 1.137 c 0 0.379 0 0.758 0 1.137 c 0 0.379 0 0.758 0 1.137 c 0 0.379 0 0.758 0 1.141 c 0 0.379 0 0.754 0 1.137 c 0 0.379 0 0.758 0 1.137 c 0 0.379 0 0.758 0 1.137 c 0 0.191 0 0.379 0 0.57 c 0 2.01 -2.844 2.01 -2.844 0 c 0 -0.191 0 -0.379 0 -0.57 c 0 -0.379 0 -0.758 0 -1.137 c 0 -0.379 0 -0.758 0 -1.137 c 0 -0.379 0 -0.758 0 -1.137 c 0 -0.379 0 -0.758 0 -1.141 c 0 -0.379 0 -0.758 0 -1.137 c 0 -0.379 0 -0.758 0 -1.137 c 0 -0.379 0 -0.758 0 -1.137 c 0 -0.383 0 -0.766 0 -1.148 c 0 -0.434 0 -0.867 0 -1.297 c 0 -0.477 0 -0.949 0 -1.422 c 0 -0.473 0 -0.945 0 -1.422 c 0 -0.387 0 -0.773 0 -1.16 c 0 -0.379 0 -0.758 0 -1.133 c 0 -0.391 0 -0.781 0 -1.172 c 0 -0.438 0 -0.871 0 -1.309 c 0 -0.461 0 -0.922 0 -1.383 c 0 -0.527 0 -1.055 0 -1.582 c 0 -0.398 0 -0.797 0 -1.191 c 0 -0.383 0 -0.762 0 -1.141 c 0 -0.406 0 -0.809 0 -1.211 c 0 -0.418 0 -0.836 0 -1.25 c 0 -0.383 0 -0.762 0 -1.141 c 0 -0.402 0 -0.805 0 -1.207 c 0 -0.434 0 -0.867 0 -1.297 c 0 -2.01 2.844 -2.01 2.844 0"/><path d="m 11.594 8.715 c 0.422 0.055 0.836 0.176 1.254 0.254 c 0.316 0.055 0.637 0.066 0.957 0.074 c 0.258 0 0.59 0.016 0.762 -0.027 c 0.391 -0.09 0.793 -0.129 1.195 -0.148 c 0.281 -0.02 0.637 0.008 0.848 -0.043 c 0.332 -0.047 0.527 -0.102 0.813 -0.184 c 0.23 -0.039 0.262 -0.09 0.512 -0.164 c 0.227 -0.066 0.316 -0.055 0.215 -0.066 c 0.41 -0.18 0.848 -0.25 1.289 -0.289 c 0.402 -0.031 0.809 -0.027 1.211 -0.027 c 0.375 0 0.746 0 1.121 0 c 0.371 0 0.742 0 1.113 0 c 0.227 0 0.5 -0.082 0.789 -0.125 c -0.012 0 -0.039 0 -0.027 -0.004 c 0.285 -0.141 0.656 -0.168 0.965 -0.207 c 0.414 -0.039 0.824 -0.043 1.238 -0.043 c 0.375 -0.004 0.75 0 1.125 0 c 0.371 0 0.742 0 1.113 0 c 0.371 0 0.742 0 1.113 0 c 0.371 0 0.746 0 1.117 0 c 0.371 0 0.742 0 1.113 0 c 0.371 0 0.746 0 1.117 0 c 0.371 0 0.742 0 1.113 0 c 0.371 0 0.742 0 1.117 0 c 0.449 -0.012 0.895 0 1.34 0.074 c 0.383 0.055 0.742 0.199 1.121 0.262 c 0.375 0.023 0.738 0.117 1.105 0.176 c 0.387 0.059 0.734 0.258 1.109 0.363 c 1.887 0.582 1.082 3.305 -0.805 2.723 c -0.254 -0.078 -0.508 -0.168 -0.75 -0.277 c -0.375 -0.063 -0.746 -0.156 -1.125 -0.184 c -0.375 -0.066 -0.738 -0.176 -1.109 -0.258 c -0.293 -0.051 -0.59 -0.035 -0.887 -0.035 c -0.375 0 -0.746 0 -1.117 0 c -0.371 0 -0.742 0 -1.113 0 c -0.375 0 -0.746 0 -1.117 0 c -0.371 0 -0.742 0 -1.113 0 c -0.371 0 -0.746 0 -1.117 0 c -0.371 0 -0.742 0 -1.113 0 c -0.375 0 -0.746 0 -1.117 0 c -0.371 0 -0.738 -0.004 -1.109 0 c -0.309 0 -0.613 0 -0.922 0.023 c -0.305 0.035 -0.586 0.137 -0.883 0.203 c -0.391 0.055 -0.773 0.176 -1.172 0.152 c -0.375 0 -0.746 0 -1.117 0 c -0.371 0 -0.742 0 -1.113 0 c -0.328 0 -0.652 -0.004 -0.977 0.016 c -0.188 0.016 -0.371 0.031 -0.543 0.117 c -0.32 0.113 -0.645 0.215 -0.973 0.313 c -0.332 0.09 -0.664 0.18 -1.01 0.23 c -0.414 0.078 -0.828 0.094 -1.25 0.094 c -0.266 0.012 -0.531 0.031 -0.789 0.098 c -0.453 0.09 -0.91 0.098 -1.367 0.078 c -0.473 -0.008 -0.945 -0.031 -1.414 -0.117 c -0.43 -0.086 -0.852 -0.203 -1.285 -0.266 c -1.934 -0.395 -1.387 -3.18 0.547 -2.785"/><path d="m 41.04 10.867 c 0.164 0.441 0.25 0.91 0.316 1.379 c 0.059 0.461 0.066 0.926 0.07 1.395 c 0 0.383 0 0.77 0 1.152 c 0 0.379 0 0.754 0 1.133 c 0 0.379 0 0.758 0 1.137 c 0 0.379 0 0.758 0 1.137 c 0 0.379 0 0.758 0 1.141 c 0 0.379 0 0.758 0 1.137 c 0.086 0.32 0.113 0.672 0.148 1 c 0.035 0.418 0.039 0.84 0.039 1.262 c 0.004 0.383 0 0.766 0 1.148 c 0 0.379 0 0.758 0 1.137 c 0 0.379 0 0.758 0 1.137 c 0 0.379 0 0.758 0 1.137 c 0 0.379 0 0.758 0 1.141 c 0 0.379 0 0.754 0 1.137 c 0 0.379 0 0.758 0 1.137 c 0 0.379 0 0.758 0 1.137 c 0 0.379 0 0.758 0 1.137 c 0 0.379 0 0.758 0 1.141 c 0 0.379 0 0.758 0 1.137 c 0 0.379 0 0.758 0 1.137 c 0 0.379 0 0.758 0 1.137 c 0 0.191 0 0.379 0 0.57 c 0 2.01 -2.844 2.01 -2.844 0 c 0 -0.191 0 -0.379 0 -0.57 c 0 -0.379 0 -0.758 0 -1.137 c 0 -0.379 0 -0.758 0 -1.137 c 0 -0.379 0 -0.758 0 -1.137 c 0 -0.379 0 -0.758 0 -1.141 c 0 -0.379 0 -0.758 0 -1.137 c 0 -0.379 0 -0.758 0 -1.137 c 0 -0.379 0 -0.758 0 -1.137 c 0 -0.379 0 -0.758 0 -1.137 c 0 -0.379 0 -0.758 0 -1.141 c 0 -0.379 0 -0.758 0 -1.137 c 0 -0.379 0 -0.758 0 -1.137 c 0 -0.379 0 -0.762 0 -1.141 c 0 -0.375 0.004 -0.75 0 -1.125 c 0 -0.34 -0.004 -0.676 -0.027 -1.012 c -0.039 -0.426 -0.133 -0.844 -0.16 -1.273 c 0 -0.379 0 -0.758 0 -1.137 c 0 -0.379 0 -0.758 0 -1.137 c 0 -0.379 0 -0.758 0 -1.137 c 0 -0.379 0 -0.762 0 -1.141 c 0 -0.379 0 -0.758 0 -1.137 c 0 -0.375 0 -0.75 0 -1.125 c -0.004 -0.344 -0.004 -0.684 -0.043 -1.023 c -0.055 -0.414 -0.164 -0.816 -0.289 -1.215 c -0.395 -1.973 2.395 -2.531 2.789 -0.559"/><path d="m 37.73 41.41 c 0.234 -0.004 0.465 0 0.699 0.031 c 0.164 0.031 0.332 0.047 0.5 0.055 c 0.938 0.043 0.875 1.367 -0.063 1.324 c -0.207 -0.012 -0.418 -0.027 -0.625 -0.063 c -0.168 -0.027 -0.34 -0.02 -0.512 -0.02 c -0.938 0 -0.938 -1.328 0 -1.328"/><path d="m 38.957 41.578 c 0 -0.199 0 -0.402 0 -0.602 c -0.008 -0.223 0.012 -0.438 0.055 -0.656 c 0.023 -0.121 0.027 -0.25 0.031 -0.379 c 0.008 -0.051 0.016 -0.105 0.023 -0.16 c 0.148 -0.926 1.457 -0.711 1.309 0.215 c 0 -0.004 -0.004 -0.008 -0.004 -0.008 c -0.008 0.195 -0.02 0.395 -0.059 0.59 c -0.008 0.039 -0.023 0.07 -0.027 0.105 c -0.004 0.098 0.004 0.195 0 0.293 c 0 0.199 0 0.402 0 0.605 c 0 0.938 -1.328 0.938 -1.328 0"/><path d="m 10.559 42.828 c -0.199 0 -0.402 0 -0.605 0 c -0.094 0 -0.191 0 -0.289 0 c -0.938 0 -0.938 -1.328 0 -1.328 c 0.098 0 0.195 0 0.289 0 c 0.203 0 0.406 0 0.605 0 c 0.938 0 0.938 1.328 0 1.328"/></g></g></svg>