<svg xmlns="http://www.w3.org/2000/svg" viewBox="0 0 48 48"><path d="m 29.23 0.152 c 2.828 0.25 5.914 0.965 8.191 1.895 c 7.961 3.25 11.672 9.848 10.223 18.19 c -0.777 4.484 -3 9.555 -6.539 14.918 c -4.227 6.402 -10.754 11.254 -16.801 12.484 c -1.273 0.262 -3.688 0.352 -4.973 0.191 c -4.305 -0.543 -7.891 -2.871 -11.18 -7.266 c -3.148 -4.203 -5.48 -8.477 -6.797 -12.457 c -2.703 -8.18 -1.066 -15.477 4.66 -20.762 c 4.02 -3.711 9.473 -6.078 16.16 -7.02 c 1 -0.141 6.02 -0.262 7.05 -0.168" fill="#86cefa"/><path d="m 10.06 29.742 v -6.488 h 6.129 c 5.297 0 6.176 0.043 6.457 0.332 c 0.285 0.289 0.328 1.18 0.328 6.488 v 6.156 h -12.914 m 13.875 -0.336 c -0.07 -0.188 -0.125 -3.039 -0.125 -6.34 c 0 -4.387 0.066 -6.074 0.25 -6.262 c 0.18 -0.184 1.832 -0.254 6.125 -0.254 c 3.234 0 6.03 0.059 6.207 0.129 c 0.293 0.113 0.332 0.895 0.332 6.598 v 6.465 h -6.332 c -5.582 0 -6.344 -0.039 -6.457 -0.336 m -13.613 -13.633 c -0.203 -0.082 -0.262 -1.625 -0.262 -6.688 v -6.578 h 6.434 c 5.68 0 6.453 0.043 6.563 0.34 c 0.07 0.184 0.129 3.086 0.129 6.445 c 0 4.469 -0.07 6.18 -0.25 6.363 c -0.188 0.188 -1.855 0.254 -6.305 0.238 c -3.328 -0.008 -6.168 -0.063 -6.309 -0.121 m 13.734 -0.117 c -0.18 -0.184 -0.25 -1.895 -0.25 -6.363 c 0 -3.359 0.059 -6.262 0.129 -6.445 c 0.109 -0.297 0.875 -0.34 6.457 -0.34 h 6.332 v 6.574 c 0 5.797 -0.039 6.59 -0.332 6.703 c -0.18 0.07 -2.973 0.129 -6.207 0.129 c -4.293 0 -5.945 -0.07 -6.129 -0.258" fill="#edddb1"/><path d="m 10.06 29.742 v -6.488 h 6.129 c 5.297 0 6.176 0.043 6.457 0.332 c 0.285 0.289 0.328 1.18 0.328 6.488 v 6.156 h -12.914 m 14.12 -6.32 c 0.035 -3.477 0.086 -6.344 0.113 -6.375 c 0.027 -0.027 2.836 -0.078 6.238 -0.113 l 6.191 -0.063 v 12.871 h -12.602 m -14.06 -20.691 v -6.543 h 12.813 l -0.063 6.328 c -0.035 3.48 -0.129 6.398 -0.211 6.48 c -0.082 0.086 -2.938 0.18 -6.344 0.215 l -6.195 0.063 m 14.555 -0.035 c -0.531 -0.145 -0.598 -0.977 -0.598 -7.227 v -5.824 h 12.707 v 13.191 l -5.887 -0.023 c -3.234 -0.016 -6.04 -0.066 -6.223 -0.117" fill="#fdc32e"/><path d="m 10.06 29.742 v -6.488 h 6.129 c 5.297 0 6.176 0.043 6.457 0.332 c 0.285 0.289 0.328 1.18 0.328 6.488 v 6.156 h -12.914 m 14.629 -6.117 l 0.055 -6.117 l 5.988 -0.055 l 5.988 -0.059 v 12.348 h -12.09 l 0.059 -6.113 m -14.629 -14.578 v -6.543 h 12.809 l -0.063 6.227 c -0.043 4.508 -0.129 6.293 -0.313 6.477 c -0.18 0.188 -1.93 0.277 -6.344 0.32 l -6.09 0.063 m 14.551 -0.035 c -0.527 -0.145 -0.598 -0.977 -0.598 -7.227 v -5.824 h 12.707 v 13.191 l -5.883 -0.023 c -3.238 -0.016 -6.04 -0.066 -6.227 -0.117" fill="#fdb800"/><path d="m 10.06 29.742 v -6.488 h 6.129 c 5.297 0 6.176 0.043 6.457 0.332 c 0.285 0.289 0.328 1.18 0.328 6.488 v 6.156 h -12.914 m 0 -20.691 v -6.543 h 12.809 l -0.059 6.227 c -0.043 4.508 -0.129 6.293 -0.313 6.477 c -0.184 0.188 -1.93 0.277 -6.344 0.32 l -6.094 0.063 m 14.555 -0.035 c -0.531 -0.145 -0.598 -0.977 -0.598 -7.227 v -5.824 h 12.707 v 13.191 l -5.887 -0.023 c -3.234 -0.016 -6.04 -0.066 -6.223 -0.117" fill="#06a4ed"/><path d="m 10.06 15.539 v -6.543 h 12.809 l -0.063 6.227 c -0.043 4.508 -0.129 6.293 -0.313 6.477 c -0.18 0.188 -1.93 0.277 -6.344 0.32 l -6.09 0.063 m 14.551 -0.035 c -0.527 -0.145 -0.598 -0.977 -0.598 -7.227 v -5.824 h 12.707 v 13.191 l -5.883 -0.023 c -3.238 -0.016 -6.04 -0.066 -6.227 -0.117" fill="#94c52e"/><path d="m 10.06 15.539 v -6.543 h 12.809 l -0.063 6.227 c -0.043 4.508 -0.129 6.293 -0.313 6.477 c -0.18 0.188 -1.93 0.277 -6.344 0.32 l -6.09 0.063 m 14.719 -0.672 c -0.078 -0.078 -0.141 -2.902 -0.141 -6.277 v -6.137 h 12.08 v 12.555 h -5.902 c -3.246 0 -5.961 -0.063 -6.04 -0.141" fill="#f15123"/><path d="m 24.777 21.406 c -0.078 -0.078 -0.141 -2.902 -0.141 -6.273 v -6.137 h 12.08 v 12.555 h -5.902 c -3.246 0 -5.961 -0.066 -6.04 -0.145" fill="#7eb900"/></svg>