<svg xmlns="http://www.w3.org/2000/svg" viewBox="0 0 48 48"><defs><linearGradient id="8" gradientUnits="userSpaceOnUse" x1="13.885" y1="43.09" x2="19.93" y2="9.191" gradientTransform="matrix(0.67171 0 0 0.66223 6.299 6.767)"><stop stop-color="#7c9d2e" stop-opacity="0.78"/><stop offset="1" stop-color="#badd69" stop-opacity="0.78"/></linearGradient><linearGradient id="9" gradientUnits="userSpaceOnUse" x1="37.599" y1="45.44" x2="37.3" y2="27.387" gradientTransform="matrix(0.67171 0 0 0.66223 6.299 6.767)"><stop stop-color="#5d9cd5"/><stop offset="0.569" stop-color="#7ebaed"/><stop offset="1" stop-color="#8ecdff"/></linearGradient><linearGradient id="E" gradientUnits="userSpaceOnUse" x1="37.643" y1="41.24" x2="37.26" y2="31.955" gradientTransform="matrix(0.67171 0 0 0.66223 6.299 6.767)"><stop stop-color="#e5e5e5"/><stop offset="1" stop-color="#fff"/></linearGradient><linearGradient id="A" gradientUnits="userSpaceOnUse" x1="37.4" y1="26.922" x2="37.495" y2="28.895" gradientTransform="matrix(0.67171 0 0 0.66223 6.299 6.767)"><stop stop-color="#e5f5ff"/><stop offset="1" stop-color="#c3e7ff"/></linearGradient><linearGradient id="C" gradientUnits="userSpaceOnUse" x1="40.21" y1="31.367" x2="40.704" y2="42.639" gradientTransform="matrix(0.67171 0 0 0.66223 6.299 6.767)"><stop stop-color="#5a93c3" stop-opacity="0.322"/><stop offset="1" stop-color="#4a7fa8" stop-opacity="0.322"/></linearGradient><linearGradient id="D" gradientUnits="userSpaceOnUse" x1="40.471" y1="30.989" x2="40.01" y2="41.834" gradientTransform="matrix(0.67171 0 0 0.66223 6.299 6.767)"><stop stop-color="#5d9cd5" stop-opacity="0.78"/><stop offset="1" stop-color="#4d86b3" stop-opacity="0.78"/></linearGradient><linearGradient id="B" gradientUnits="userSpaceOnUse" x1="37.16" y1="26.63" x2="37.778" y2="46.47" gradientTransform="matrix(0.67171 0 0 0.66223 6.299 6.767)"><stop stop-color="#5d9cd5"/><stop offset="1" stop-color="#4d86b3"/></linearGradient><linearGradient id="7" gradientUnits="userSpaceOnUse" x1="38.21" y1="18.13" x2="37.749" y2="21.558" gradientTransform="matrix(0.67171 0 0 0.66223 6.299 6.767)"><stop stop-color="#c0e272"/><stop offset="1" stop-color="#a2c849"/></linearGradient><linearGradient id="0" gradientUnits="userSpaceOnUse" x1="27.29" y1="2.989" x2="24.713" y2="46.31" gradientTransform="matrix(0.67171 0 0 0.66223 6.299 6.767)"><stop stop-color="#fff"/><stop offset="1" stop-color="#e5e5e5"/></linearGradient><linearGradient id="1" gradientUnits="userSpaceOnUse" x1="26.398" y1="25.976" x2="26.23" y2="17.713" gradientTransform="matrix(0.67171 0 0 0.66223 6.299 6.767)"><stop stop-color="#e4e4e4" stop-opacity="0.922"/><stop offset="1" stop-color="#fff" stop-opacity="0.922"/></linearGradient><linearGradient id="6" gradientUnits="userSpaceOnUse" x1="20.747" y1="34.857" x2="20.861" y2="22.25" gradientTransform="matrix(0.67171 0 0 0.66223 6.299 6.767)"><stop stop-color="#eaffb4"/><stop offset="0.369" stop-color="#e3ff9c"/><stop offset="1" stop-color="#a8ce52"/></linearGradient><linearGradient id="2" gradientUnits="userSpaceOnUse" y1="27.494" x2="0" y2="21.247" gradientTransform="matrix(0.67171 0 0 0.66223 6.299 6.767)"><stop stop-color="#7f7f7f"/><stop offset="1" stop-color="#999"/></linearGradient><linearGradient id="4" gradientUnits="userSpaceOnUse" x1="25.367" y1="41.835" x2="26.635" y2="7.459" gradientTransform="matrix(0.67171 0 0 0.66223 6.299 6.767)"><stop stop-color="#858585"/><stop offset="1" stop-color="#ababab"/></linearGradient><linearGradient id="5" gradientUnits="userSpaceOnUse" x1="19.835" y1="18.816" x2="20.2" y2="33.951" gradientTransform="matrix(0.67171 0 0 0.66223 6.299 6.767)"><stop stop-color="#a2c849"/><stop offset="1" stop-color="#a8ce52"/></linearGradient><linearGradient id="3" gradientUnits="userSpaceOnUse" x1="20.479" y1="20.731" x2="25.995" y2="46.708" gradientTransform="matrix(0.67171 0 0 0.66223 6.299 6.767)"><stop stop-color="#191919" stop-opacity="0.38"/><stop offset="1" stop-color="#999" stop-opacity="0.38"/></linearGradient></defs><path d="m 39.809 8.211 c 24.355 19.66 -11.301 55.15 -32.852 32.477 c -21.598 -19.512 12.11 -57.38 32.852 -32.477" fill="#e0e340"/><g fill-rule="evenodd"><path d="m 31.04 34.17 c 5.223 -0.41 7.332 0.645 8.109 1.949 v 2.309 c -0.082 0.051 -0.18 0.094 -0.285 0.133 h -15.273 l -0.09 -0.066 v -1.711 c 0.559 -1.094 2.293 -2.199 7.535 -2.609" fill-opacity="0.004"/><path d="m 31.05 34.402 c 5.23 -0.395 7.355 0.723 8.094 2.023 v 1.934 c -0.121 0.082 -0.27 0.145 -0.445 0.195 h -14.992 c -0.082 -0.043 -0.152 -0.094 -0.207 -0.148 v -1.324 c 0.488 -1.102 2.18 -2.273 7.551 -2.68" fill-opacity="0.008"/><path d="m 31.07 34.641 c 5.227 -0.375 7.391 0.797 8.07 2.09 v 1.566 c -0.152 0.113 -0.367 0.199 -0.641 0.258 h -14.664 c -0.148 -0.066 -0.266 -0.145 -0.34 -0.238 v -0.934 c 0.402 -1.102 2.066 -2.348 7.566 -2.742" fill-opacity="0.016"/><path d="m 31.09 34.879 c 5.207 -0.355 7.434 0.871 8.06 2.141 v 1.211 c -0.184 0.164 -0.488 0.266 -0.895 0.324 h -14.254 c -0.258 -0.09 -0.43 -0.203 -0.5 -0.352 v -0.496 c 0.258 -1.09 1.895 -2.441 7.586 -2.828" fill-opacity="0.02"/><path d="m 31.11 35.12 c 5.199 -0.332 7.52 0.949 8.04 2.184 v 0.855 c -0.203 0.23 -0.652 0.344 -1.281 0.398 h -4 c -0.387 -0.004 -0.789 -0.004 -1.195 0 h -8.473 c -0.426 -0.109 -0.664 -0.273 -0.664 -0.504 c 0 -1.051 1.609 -2.555 7.57 -2.934" fill-opacity="0.024"/><path d="m 31.12 35.36 c 5.227 -0.309 7.684 1.055 8.03 2.25 v 0.461 c -0.215 0.406 -1.215 0.488 -2.637 0.488 c -1.406 0 -3.23 -0.078 -5.113 0 h -6.93 c -0.547 -0.094 -0.863 -0.25 -0.863 -0.484 c 0 -0.977 1.875 -2.383 7.516 -2.715" fill-opacity="0.027"/><path d="m 31.14 35.59 c 5.32 -0.285 7.961 1.199 7.977 2.332 c 0.016 0.93 -3.77 0.441 -7.766 0.598 l -0.949 0.035 h -5.508 c -0.762 -0.078 -1.211 -0.227 -1.211 -0.469 c 0 -0.902 2.141 -2.211 7.461 -2.496" fill-opacity="0.031"/><path d="m 31.16 35.828 c 4.996 -0.238 7.871 1.121 7.883 2.137 c 0.012 0.789 -3.75 0.387 -7.684 0.516 c -0.891 0.031 -1.77 0.055 -2.594 0.074 h -2.945 c -1.262 -0.047 -2.066 -0.172 -2.066 -0.453 c 0 -0.824 2.406 -2.039 7.406 -2.273" fill-opacity="0.035"/><path d="m 31.17 36.06 c 4.676 -0.188 7.785 1.043 7.793 1.945 c 0.012 0.645 -3.727 0.332 -7.602 0.434 c -3.879 0.102 -7.543 0.164 -7.543 -0.324 c 0 -0.75 2.676 -1.863 7.352 -2.055" fill-opacity="0.043"/><path d="m 31.19 36.3 c 4.355 -0.141 7.695 0.961 7.703 1.754 c 0.008 0.5 -3.707 0.273 -7.523 0.352 c -3.816 0.074 -7.477 0.113 -7.477 -0.27 c 0 -0.676 2.941 -1.691 7.297 -1.836" fill-opacity="0.047"/><path d="m 31.21 36.539 c 4.04 -0.094 7.605 0.883 7.609 1.559 c 0.004 0.359 -3.684 0.219 -7.441 0.27 c -3.758 0.051 -7.41 0.066 -7.41 -0.211 c 0 -0.602 3.207 -1.52 7.242 -1.617" fill-opacity="0.051"/><path d="m 31.23 36.777 c 3.715 -0.047 7.516 0.801 7.52 1.363 c 0 0.219 -3.664 0.168 -7.363 0.191 c -3.699 0.027 -7.344 0.016 -7.344 -0.16 c 0 -0.523 3.473 -1.344 7.188 -1.395" fill-opacity="0.055"/><path d="m 31.24 37.02 c 3.395 0 7.43 0.719 7.43 1.168 c 0 0.148 -14.559 0.141 -14.559 0.008 c 0 -0.449 3.734 -1.176 7.129 -1.176" fill-opacity="0.059"/><g fill="#333"><path d="m 23.254 36.969 c 9.137 -0.148 10.168 0.852 10.234 1.105 h -19.863 c 0.023 -0.234 0.504 -0.961 9.629 -1.105" fill-opacity="0.012"/><path d="m 23.301 36.996 c 8.59 -0.137 9.391 0.848 9.391 1.039 c 0 0.012 -0.02 0.023 -0.059 0.039 h -18.12 c -0.039 -0.016 -0.059 -0.027 -0.059 -0.039 c 0 -0.191 0.262 -0.906 8.852 -1.039" fill-opacity="0.024"/><path d="m 23.348 37.02 c 7.684 -0.117 8.547 0.77 8.547 0.953 c 0 0.031 -0.148 0.063 -0.418 0.098 h -15.777 c -0.27 -0.035 -0.418 -0.066 -0.418 -0.098 c 0 -0.184 0.383 -0.836 8.07 -0.953" fill-opacity="0.035"/><path d="m 23.395 37.05 c 6.781 -0.102 7.703 0.691 7.703 0.863 c 0 0.051 -0.457 0.105 -1.23 0.16 h -12.527 c -0.773 -0.055 -1.227 -0.109 -1.227 -0.16 c 0 -0.176 0.504 -0.762 7.285 -0.863" fill-opacity="0.047"/><path d="m 23.445 37.08 c 5.875 -0.086 6.855 0.605 6.855 0.773 c 0 0.07 -1.176 0.16 -2.934 0.219 h -7.469 c -1.77 -0.059 -2.953 -0.148 -2.953 -0.219 c 0 -0.168 0.625 -0.691 6.5 -0.773" fill-opacity="0.059"/><path d="m 23.492 37.11 c 4.973 -0.066 6.01 0.527 6.01 0.684 c 0 0.098 -2.707 0.23 -5.863 0.23 c -3.156 0 -5.863 -0.133 -5.863 -0.23 c 0 -0.156 0.75 -0.617 5.719 -0.684" fill-opacity="0.075"/><path d="m 23.543 37.14 c 4.063 -0.051 5.16 0.445 5.16 0.598 c 0 0.074 -2.355 0.176 -5.05 0.176 c -2.691 0 -5.05 -0.102 -5.05 -0.176 c 0 -0.152 0.867 -0.547 4.938 -0.598" fill-opacity="0.086"/><path d="m 23.59 37.16 c 3.164 -0.031 4.316 0.367 4.316 0.508 c 0 0.059 -2.01 0.129 -4.234 0.129 c -2.23 0 -4.238 -0.07 -4.238 -0.129 c 0 -0.141 0.996 -0.473 4.156 -0.508" fill-opacity="0.098"/><path d="m 23.641 37.2 c 2.258 -0.02 3.469 0.285 3.469 0.418 c 0 0.039 -1.656 0.078 -3.422 0.078 c -1.766 0 -3.422 -0.043 -3.422 -0.078 c 0 -0.133 1.117 -0.402 3.375 -0.418" fill-opacity="0.11"/><path d="m 23.688 37.22 c 1.352 0 2.625 0.207 2.625 0.328 c 0 0.043 -5.215 0.039 -5.215 0 c 0 -0.121 1.234 -0.328 2.59 -0.328" fill-opacity="0.122"/></g><path d="m 23.762 8.934 c 7.949 0 14.398 6.34 14.398 14.156 c 0 7.816 -6.449 14.15 -14.398 14.15 c -7.949 0 -14.395 -6.336 -14.395 -14.15 c 0 -7.816 6.449 -14.156 14.395 -14.156 m 0 9.418 c 2.664 0 4.82 2.121 4.82 4.738 c 0 2.617 -2.156 4.738 -4.82 4.738 c -2.66 0 -4.816 -2.121 -4.816 -4.738 c 0 -2.617 2.156 -4.738 4.816 -4.738" fill="url(#0)"/><g fill="#e5e5e5"><path d="m 26.25 19.1 l 2.461 -9.223 c 5.539 1.969 9.504 7.188 9.504 13.316 c 0 0.77 -0.063 1.527 -0.184 2.266 l -9.398 -2.496 c -0.078 -1.648 -1.016 -3.074 -2.383 -3.859" fill-opacity="0.059"/><path d="m 26.398 19.19 l 2.965 -9.07 c 5.195 2.137 8.848 7.184 8.848 13.07 c 0 0.402 -0.02 0.805 -0.055 1.199 l -9.551 -1.699 c -0.156 -1.473 -0.996 -2.746 -2.207 -3.5" fill-opacity="0.114"/><path d="m 26.551 19.289 l 3.492 -8.863 c 4.832 2.285 8.164 7.145 8.164 12.766 v 0.039 l -9.641 -0.828 c -0.219 -1.289 -0.969 -2.398 -2.02 -3.113" fill-opacity="0.173"/><path d="m 26.707 19.395 l 4.04 -8.613 c 4.113 2.227 7 6.371 7.414 11.211 l -9.652 0.098 c -0.266 -1.094 -0.914 -2.039 -1.801 -2.691" fill-opacity="0.231"/><path d="m 26.855 19.516 l 4.602 -8.32 c 3.379 2.082 5.813 5.508 6.531 9.512 l -9.574 1.063 c -0.285 -0.895 -0.836 -1.676 -1.559 -2.254" fill-opacity="0.29"/><path d="m 27 19.641 l 5.168 -7.973 c 2.648 1.859 4.629 4.574 5.52 7.738 l -9.395 2.043 c -0.281 -0.699 -0.727 -1.316 -1.293 -1.809" fill-opacity="0.345"/><path d="m 27.15 19.77 l 5.73 -7.574 c 1.945 1.555 3.469 3.598 4.383 5.934 l -9.109 2.996 c -0.254 -0.508 -0.594 -0.969 -1 -1.355" fill-opacity="0.404"/><path d="m 27.29 19.906 l 6.281 -7.121 c 1.293 1.172 2.363 2.57 3.152 4.133 l -8.738 3.898 c -0.195 -0.328 -0.43 -0.637 -0.699 -0.91" fill-opacity="0.463"/></g><path d="m 22.24 27.637 l -0.926 9.492 c -5.793 -1.074 -10.551 -5.602 -11.547 -11.652 c -0.129 -0.762 -0.188 -1.52 -0.188 -2.266 l 9.684 0.988 c 0.344 1.613 1.504 2.875 2.977 3.438" fill="#bcc0ca" fill-opacity="0.059"/><path d="m 22.07 27.57 l -1.449 9.414 c -5.477 -1.293 -9.902 -5.699 -10.863 -11.504 c -0.066 -0.402 -0.113 -0.801 -0.145 -1.195 l 9.707 0.176 c 0.391 1.43 1.43 2.551 2.746 3.109" fill="#b9c1d1" fill-opacity="0.114"/><path d="m 21.91 27.496 l -2.01 9.297 c -5.141 -1.496 -9.223 -5.766 -10.137 -11.316 l -0.004 -0.039 l 9.652 -0.699 c 0.426 1.234 1.344 2.215 2.496 2.754" fill="#b4c1d7" fill-opacity="0.173"/><path d="m 21.738 27.414 l -2.586 9.141 c -4.422 -1.551 -7.945 -5.188 -9.141 -9.898 l 9.516 -1.617 c 0.438 1.039 1.23 1.871 2.211 2.375" fill="#b1c2de" fill-opacity="0.231"/><path d="m 21.57 27.324 l -3.188 8.934 c -3.672 -1.523 -6.633 -4.52 -7.996 -8.359 l 9.281 -2.559 c 0.426 0.84 1.094 1.523 1.902 1.984" fill="#adc3e5" fill-opacity="0.29"/><path d="m 21.402 27.22 l -3.801 8.68 c -2.918 -1.418 -5.313 -3.789 -6.707 -6.773 l 8.941 -3.488 c 0.391 0.645 0.934 1.184 1.566 1.578" fill="#aac5ec" fill-opacity="0.345"/><path d="m 21.238 27.12 l -4.426 8.375 c -2.172 -1.227 -4.01 -3 -5.289 -5.168 l 8.504 -4.387 c 0.332 0.461 0.742 0.859 1.211 1.18" fill="#a5c6f2" fill-opacity="0.404"/><path d="m 21.08 27 l -5.04 8.02 c -1.465 -0.953 -2.754 -2.164 -3.785 -3.586 l 7.992 -5.219 c 0.246 0.293 0.527 0.559 0.836 0.785" fill="#a2c7f9" fill-opacity="0.463"/><g fill="#fff"><path d="m 26.652 19.297 l 5.52 -7.695 c 1.594 1.129 2.945 2.574 3.957 4.238 l -7.676 6.168 c -0.262 -1.102 -0.914 -2.055 -1.801 -2.711" fill-opacity="0.035"/><path d="m 26.805 19.414 l 5.703 -7.566 c 1.332 1 2.48 2.23 3.391 3.625 l -7.547 6.16 c -0.289 -0.879 -0.832 -1.648 -1.543 -2.219" fill-opacity="0.075"/><path d="m 26.953 19.539 l 5.883 -7.438 c 1.082 0.863 2.027 1.879 2.82 3.01 l -7.438 6.164 c -0.281 -0.672 -0.719 -1.266 -1.262 -1.738" fill-opacity="0.11"/><path d="m 27.09 19.664 l 6.066 -7.297 c 0.836 0.711 1.59 1.512 2.242 2.395 l -7.344 6.18 c -0.246 -0.477 -0.574 -0.906 -0.961 -1.273" fill-opacity="0.145"/><path d="m 27.23 19.797 l 6.246 -7.156 c 0.602 0.543 1.156 1.133 1.66 1.77 l -7.258 6.207 c -0.188 -0.297 -0.406 -0.57 -0.648 -0.82" fill-opacity="0.184"/><path d="m 27.352 19.93 l 6.426 -7 c 0.383 0.359 0.742 0.742 1.078 1.141 l -7.188 6.25 c -0.098 -0.137 -0.203 -0.266 -0.313 -0.387" fill-opacity="0.22"/></g><path d="m 19.2 21.57 l -7.945 -5.484 c 2 -3.453 5.449 -6 9.527 -6.844 l 2.18 9.176 c -1.762 0.293 -3.203 1.523 -3.762 3.152" fill="#e5edf6" fill-opacity="0.22"/><g fill="#fffffb"><path d="m 19.348 21.2 l -7.516 -6.03 c 1.793 -2.605 4.445 -4.594 7.555 -5.566 l 3.402 8.848 c -1.547 0.313 -2.824 1.355 -3.445 2.746" fill-opacity="0.024"/><path d="m 19.418 21.04 l -7.387 -6.152 c 1.746 -2.406 4.238 -4.254 7.141 -5.215 l 3.465 8.813 c -1.422 0.336 -2.598 1.289 -3.219 2.555" fill-opacity="0.047"/><path d="m 19.496 20.887 l -7.258 -6.277 c 1.688 -2.215 4.02 -3.922 6.719 -4.863 l 3.523 8.773 c -1.297 0.352 -2.371 1.219 -2.984 2.367" fill-opacity="0.075"/></g><g fill="#fffffc"><path d="m 19.582 20.734 l -7.133 -6.402 c 1.625 -2.023 3.793 -3.598 6.293 -4.512 l 3.586 8.742 c -1.172 0.359 -2.148 1.145 -2.746 2.172" fill-opacity="0.098"/><path d="m 19.672 20.59 l -6.996 -6.523 c 1.547 -1.836 3.555 -3.281 5.852 -4.164 l 3.648 8.715 c -1.047 0.355 -1.926 1.063 -2.504 1.973" fill-opacity="0.122"/></g><g fill="#fffffd"><path d="m 19.766 20.445 l -6.863 -6.641 c 1.465 -1.656 3.316 -2.973 5.414 -3.82 l 3.711 8.684 c -0.926 0.352 -1.711 0.98 -2.258 1.777" fill-opacity="0.145"/><path d="m 19.867 20.305 l -6.73 -6.762 c 1.375 -1.477 3.066 -2.668 4.965 -3.469 l 3.777 8.652 c -0.809 0.34 -1.504 0.891 -2.01 1.578" fill-opacity="0.173"/></g><g fill="#fff"><path d="m 19.969 20.17 l -6.59 -6.879 c 1.277 -1.309 2.809 -2.375 4.512 -3.125 l 3.84 8.629 c -0.691 0.316 -1.293 0.789 -1.762 1.375" fill-opacity="0.196"/><path d="m 20.08 20.04 l -6.449 -6.996 c 1.168 -1.145 2.539 -2.09 4.047 -2.785 l 3.906 8.605 c -0.578 0.289 -1.09 0.691 -1.508 1.176" fill-opacity="0.22"/></g><g fill="#fffffb"><path d="m 28.391 23.781 l 8.109 5.277 c -1.508 2.809 -3.953 5.063 -6.926 6.355 l -4.355 -8.434 c 1.527 -0.477 2.723 -1.68 3.168 -3.199" fill-opacity="0.024"/><path d="m 28.332 23.969 l 7.973 5.441 c -1.473 2.566 -3.738 4.637 -6.465 5.887 l -4.449 -8.375 c 1.387 -0.488 2.477 -1.578 2.945 -2.953" fill-opacity="0.047"/><path d="m 28.27 24.16 l 7.828 5.613 c -1.426 2.32 -3.508 4.207 -6 5.41 l -4.535 -8.316 c 1.242 -0.492 2.227 -1.477 2.707 -2.707" fill-opacity="0.075"/></g><g fill="#fffffc"><path d="m 28.19 24.336 l 7.684 5.781 c -1.367 2.082 -3.27 3.789 -5.523 4.93 l -4.629 -8.254 c 1.105 -0.484 1.988 -1.367 2.469 -2.457" fill-opacity="0.098"/><path d="m 28.11 24.516 l 7.531 5.949 c -1.289 1.848 -3.02 3.379 -5.03 4.453 l -4.723 -8.203 c 0.965 -0.465 1.75 -1.242 2.219 -2.199" fill-opacity="0.122"/></g><g fill="#fffffd"><path d="m 28.02 24.691 l 7.375 6.117 c -1.203 1.617 -2.75 2.973 -4.531 3.969 l -4.813 -8.145 c 0.836 -0.441 1.52 -1.117 1.969 -1.941" fill-opacity="0.145"/><path d="m 27.914 24.867 l 7.215 6.281 c -1.105 1.395 -2.469 2.578 -4.02 3.488 l -4.906 -8.09 c 0.707 -0.406 1.297 -0.984 1.711 -1.68" fill-opacity="0.173"/></g><g fill="#fff"><path d="m 27.809 25.04 l 7.05 6.441 c -0.992 1.18 -2.176 2.195 -3.5 3.01 l -5 -8.04 c 0.582 -0.363 1.074 -0.848 1.453 -1.414" fill-opacity="0.196"/><path d="m 27.695 25.2 l 6.879 6.605 c -0.867 0.969 -1.867 1.82 -2.973 2.527 l -5.09 -7.98 c 0.457 -0.316 0.859 -0.703 1.184 -1.152" fill-opacity="0.22"/></g><g fill="#c3deff"><path d="m 22.04 27.516 l -6.418 7.246 c -1.66 -1.121 -3.07 -2.582 -4.129 -4.273 l 8.01 -5.195 c 0.543 1.012 1.445 1.809 2.539 2.223" fill-opacity="0.035"/><path d="m 21.848 27.434 l -6.57 7.086 c -1.395 -1 -2.598 -2.246 -3.547 -3.668 l 7.953 -5.242 c 0.516 0.801 1.27 1.441 2.164 1.824" fill-opacity="0.075"/><path d="m 21.66 27.355 l -6.727 6.914 c -1.133 -0.867 -2.129 -1.895 -2.957 -3.051 l 7.918 -5.305 c 0.457 0.609 1.063 1.109 1.766 1.441" fill-opacity="0.11"/><path d="m 21.477 27.26 l -6.875 6.742 c -0.883 -0.715 -1.676 -1.531 -2.363 -2.43 l 7.887 -5.379 c 0.383 0.43 0.84 0.793 1.352 1.066" fill-opacity="0.145"/><path d="m 21.301 27.16 l -7.03 6.566 c -0.637 -0.551 -1.227 -1.152 -1.754 -1.805 l 7.867 -5.457 c 0.277 0.27 0.582 0.5 0.914 0.695" fill-opacity="0.184"/><path d="m 21.13 27.06 l -7.18 6.383 c -0.406 -0.371 -0.789 -0.762 -1.145 -1.18 l 7.863 -5.543 c 0.145 0.121 0.301 0.234 0.461 0.34" fill-opacity="0.22"/></g><path d="m 23.844 15.734 c 4.094 0 7.414 3.266 7.414 7.289 c 0 4.03 -3.32 7.293 -7.414 7.293 c -4.094 0 -7.414 -3.266 -7.414 -7.293 c 0 -4.02 3.32 -7.289 7.414 -7.289 m -0.078 2.793 c 2.563 0 4.641 2.043 4.641 4.563 c 0 2.52 -2.078 4.563 -4.641 4.563 c -2.563 0 -4.641 -2.043 -4.641 -4.563 c 0 -2.52 2.078 -4.563 4.641 -4.563" fill="#acacac" fill-opacity="0.22"/><path d="m 23.762 18.16 c 2.563 0 4.641 2.125 4.641 4.746 c 0 2.621 -2.078 4.746 -4.641 4.746 c -2.563 0 -4.641 -2.125 -4.641 -4.746 c 0 -2.621 2.078 -4.746 4.641 -4.746 m 0 2.941 c 0.973 0 1.762 0.809 1.762 1.805 c 0 0.996 -0.789 1.801 -1.762 1.801 c -0.973 0 -1.762 -0.805 -1.762 -1.801 c 0 -0.996 0.789 -1.805 1.762 -1.805" fill="url(#1)"/></g><path d="m 23.762 20.793 c 0.574 0 1.098 0.238 1.473 0.621 c 0.371 0.383 0.605 0.91 0.605 1.488 c 0 0.578 -0.234 1.109 -0.605 1.488 c -0.375 0.383 -0.898 0.625 -1.473 0.625 c -0.57 0 -1.094 -0.242 -1.469 -0.625 c -0.371 -0.379 -0.605 -0.91 -0.605 -1.488 c 0 -0.578 0.234 -1.105 0.605 -1.488 c 0.375 -0.383 0.898 -0.621 1.469 -0.621 m 1.023 1.047 c -0.262 -0.266 -0.621 -0.43 -1.023 -0.43 c -0.398 0 -0.758 0.168 -1.02 0.43 c -0.266 0.27 -0.43 0.648 -0.43 1.063 c 0 0.418 0.164 0.793 0.43 1.063 c 0.258 0.266 0.621 0.434 1.02 0.434 c 0.402 0 0.762 -0.168 1.023 -0.434 c 0.266 -0.27 0.426 -0.645 0.426 -1.063 c 0 -0.414 -0.16 -0.789 -0.426 -1.063" fill="url(#2)"/><g fill="#fff"><path d="m 23.762 19.18 c 2.563 0 4.641 2.047 4.641 4.566 c 0 0.066 0 0.133 -0.004 0.199 c -0.105 -2.43 -2.141 -4.367 -4.637 -4.367 c -2.492 0 -4.527 1.938 -4.633 4.367 c -0.004 -0.066 -0.004 -0.133 -0.004 -0.199 c 0 -2.52 2.074 -4.566 4.637 -4.566 m 1.754 4.766 c -0.102 0.859 -0.848 1.531 -1.754 1.531 c -0.902 0 -1.648 -0.672 -1.75 -1.531 c -0.008 0.063 -0.012 0.129 -0.012 0.195 c 0 0.957 0.789 1.734 1.762 1.734 c 0.973 0 1.762 -0.777 1.762 -1.734 c 0 -0.066 -0.004 -0.133 -0.012 -0.195" fill-rule="evenodd" fill-opacity="0.78"/><path d="m 23.762 19.06 c 1.133 0 2.156 0.453 2.902 1.18 c 0.738 0.73 1.199 1.738 1.199 2.852 c 0 1.113 -0.461 2.121 -1.199 2.848 c -0.746 0.73 -1.77 1.184 -2.902 1.184 c -1.129 0 -2.152 -0.453 -2.898 -1.184 c -0.742 -0.727 -1.199 -1.734 -1.199 -2.848 c 0 -1.113 0.457 -2.121 1.199 -2.852 c 0.746 -0.727 1.77 -1.18 2.898 -1.18 m 2.605 1.473 c -0.668 -0.656 -1.586 -1.063 -2.605 -1.063 c -1.016 0 -1.934 0.406 -2.602 1.063 c -0.664 0.652 -1.078 1.559 -1.078 2.559 c 0 1 0.414 1.906 1.078 2.559 c 0.668 0.656 1.586 1.063 2.602 1.063 c 1.02 0 1.938 -0.406 2.605 -1.063 c 0.664 -0.652 1.078 -1.559 1.078 -2.559 c 0 -1 -0.414 -1.906 -1.078 -2.559" fill-opacity="0.502"/><path d="m 9.59 21.449 c 0.922 -7.695 8.02 -13.203 15.844 -12.293 c 7.828 0.906 13.426 7.883 12.504 15.578 c -0.922 7.695 -8.02 13.203 -15.844 12.293 c -7.828 -0.906 -13.426 -7.883 -12.504 -15.578 m 1.602 0.184 c 0.816 -6.824 7.113 -11.707 14.05 -10.902 c 6.941 0.805 11.906 6.992 11.09 13.82 c -0.82 6.824 -7.113 11.707 -14.05 10.902 c -6.945 -0.805 -11.91 -6.992 -11.09 -13.82" fill-rule="evenodd" fill-opacity="0.58"/></g><g fill-rule="evenodd"><path d="m 20.17 36.691 l 4.758 -8.582 l -5.406 0.23 c -0.508 -1.445 -1.035 -3.824 -1.102 -4.03 c -0.688 -2.082 -0.668 -4.133 0.902 -6.125 c 0.73 -0.934 1.594 -1.625 2.523 -2.102 c -2.582 -0.527 -5.082 -0.902 -5.363 -0.945 c -0.148 0.129 -0.293 0.262 -0.434 0.402 c -2.863 2.805 -3.465 5.961 -3.035 9.289 c 0.082 0.645 0.293 2.402 0.504 3.875 l -4.469 0.914 l 4.719 4.262 c 0.371 0.082 0.762 0.172 1.176 0.277 c 0 0 3.094 1.598 5.227 2.531" fill="url(#3)"/><path d="m 9.59 21.449 c 0.922 -7.695 8.02 -13.203 15.844 -12.293 c 7.828 0.906 13.426 7.883 12.504 15.578 c -0.922 7.695 -8.02 13.203 -15.844 12.293 c -7.828 -0.906 -13.426 -7.883 -12.504 -15.578 m 0.363 0.043 c 0.898 -7.5 7.813 -12.863 15.438 -11.973 c 7.625 0.883 13.08 7.68 12.18 15.18 c -0.898 7.496 -7.813 12.859 -15.438 11.977 c -7.625 -0.883 -13.08 -7.68 -12.18 -15.18" fill="#fff" fill-opacity="0.58"/></g><path d="m 23.762 8.629 c 4.059 0 7.738 1.617 10.398 4.234 c 2.664 2.617 4.309 6.234 4.309 10.227 c 0 3.992 -1.645 7.609 -4.309 10.227 c -2.66 2.617 -6.34 4.234 -10.398 4.234 c -4.055 0 -7.738 -1.617 -10.398 -4.234 c -2.66 -2.617 -4.309 -6.234 -4.309 -10.227 c 0 -3.992 1.648 -7.609 4.309 -10.227 c 2.664 -2.617 6.34 -4.234 10.398 -4.234 m 9.961 4.668 c -2.551 -2.504 -6.074 -4.055 -9.961 -4.055 c -3.887 0 -7.414 1.551 -9.957 4.055 c -2.551 2.504 -4.125 5.965 -4.125 9.793 c 0 3.82 1.578 7.281 4.125 9.789 c 2.543 2.504 6.07 4.055 9.957 4.055 c 3.891 0 7.41 -1.551 9.961 -4.055 c 2.547 -2.504 4.121 -5.969 4.121 -9.789 c 0 -3.828 -1.574 -7.285 -4.121 -9.793" fill="url(#4)"/><path d="m 23.809 18.898 c 2.566 0 4.641 2.043 4.641 4.566 c 0 0.066 0 0.133 -0.004 0.195 c -0.105 -2.426 -2.141 -4.363 -4.637 -4.363 c -2.492 0 -4.527 1.938 -4.633 4.363 c -0.004 -0.063 -0.004 -0.129 -0.004 -0.195 c 0 -2.523 2.074 -4.566 4.637 -4.566 m 1.754 4.762 c -0.102 0.863 -0.848 1.535 -1.754 1.535 c -0.902 0 -1.648 -0.672 -1.75 -1.535 c -0.008 0.066 -0.012 0.133 -0.012 0.199 c 0 0.957 0.789 1.734 1.762 1.734 c 0.973 0 1.762 -0.777 1.762 -1.734 c 0 -0.066 -0.004 -0.133 -0.012 -0.199" fill="#fff" fill-rule="evenodd" fill-opacity="0.78"/><path d="m 23.762 17.855 c 1.414 0 2.695 0.566 3.629 1.477 c 0.926 0.914 1.504 2.18 1.504 3.57 c 0 1.391 -0.578 2.656 -1.504 3.566 c -0.93 0.914 -2.211 1.477 -3.629 1.477 c -1.414 0 -2.699 -0.563 -3.625 -1.477 c -0.93 -0.914 -1.504 -2.176 -1.504 -3.566 c 0 -1.395 0.574 -2.656 1.504 -3.57 c 0.93 -0.91 2.211 -1.477 3.629 -1.477 m 3.184 1.914 c -0.816 -0.801 -1.941 -1.297 -3.188 -1.297 c -1.242 0 -2.371 0.496 -3.184 1.297 c -0.816 0.797 -1.32 1.91 -1.32 3.133 c 0 1.223 0.504 2.332 1.316 3.133 c 0.816 0.801 1.945 1.297 3.191 1.297 c 1.242 0 2.371 -0.496 3.184 -1.297 c 0.816 -0.801 1.32 -1.91 1.32 -3.133 c 0 -1.223 -0.508 -2.332 -1.32 -3.133" fill="#acacac"/><g fill-rule="evenodd"><path d="m 14.08 37.84 l 3.977 -5.434 l 3.977 -5.738 h -4.836 c -0.188 -1.422 -0.367 -2.82 -0.387 -3.02 c -0.246 -2.176 -0.211 -4.176 1.734 -5.816 c 4.168 -3.508 9.938 -1.551 12.227 2.434 c 0.539 -0.262 1.336 -0.648 2.02 -0.871 c -2.332 -5.867 -10.746 -8.758 -16.902 -4.805 c -3.379 2.168 -5.078 5.09 -5.344 8.438 c -0.051 0.629 -0.207 2.215 -0.301 3.59 l -4.109 0.051 l 3.977 5.738 l 3.977 5.434 m 18.12 -10.574 c 0.441 -0.75 0.777 -1.602 0.988 -2.574 c 0.078 -0.375 0.137 -0.746 0.172 -1.109 c -0.313 1.16 -0.707 2.441 -1.16 3.684" fill="url(#5)"/><path d="m 18.66 30.699 l 0.516 -0.742 l -0.855 -0.102 c -1.137 1.641 -3.105 3.348 -4.289 4.965 c -1.184 -1.617 -3.203 -3.219 -4.34 -4.863 h -0.805 l 0.563 0.809 h 0.293 c 1.137 1.645 3.156 3.25 4.34 4.867 c 1.184 -1.617 3.152 -3.324 4.289 -4.969 l 0.293 0.035" fill="#90b240" fill-opacity="0.502"/><path d="m 14.08 37.84 l 3.977 -5.434 l 1.172 -1.688 l -0.855 -0.102 c -1.141 1.645 -3.109 3.352 -4.293 4.969 c -1.18 -1.621 -3.199 -3.223 -4.34 -4.867 h -0.805 l 1.172 1.688 l 3.977 5.434" fill="#e3ff9c" fill-opacity="0.22"/><path d="m 14.08 37.84 l 0.031 -0.043 m 4.508 -11.129 h -1.309 m -0.465 -2.734 l -0.035 -0.285 c -0.004 0.047 0.008 0.145 0.035 0.285 m 1.844 -6.219 c 0.969 -0.781 2.02 -1.27 3.09 -1.516 l -0.008 -0.012 c -1.07 0.246 -2.117 0.742 -3.082 1.527 m 0.195 -0.969 c -1.602 0.734 -2.574 1.797 -3.102 3.383 c -0.387 1.172 -0.449 2.398 -0.309 3.66 v 0.02 l 0.145 1.133 l 0.004 0.004 l 0.246 1.887 l 0.102 0.781 l 0.605 -0.137 l 0.438 -0.148 h -0.367 l -0.074 -0.578 l -0.012 -0.082 l -0.254 -1.637 l -0.164 -1.301 v -0.008 c -0.133 -1.176 -0.074 -2.313 0.277 -3.387 c 0.363 -1.09 1.023 -2.102 2.098 -3 c 0.258 -0.219 0.105 -0.414 0.367 -0.586 m -8.652 9.871 l -2.973 0.051 m 1.871 0.609 l 2.336 0.664 h 0.023 l 0.086 -1.238 c 0.059 -0.828 0.156 -1.934 0.23 -2.738 v -0.004 l 0.07 -0.824 v -0.008 c 0.117 -1.508 0.453 -2.918 1.121 -4.172 c 0.727 -2.465 4.684 -5.355 7.594 -5.305 l -0.184 -0.145 c -1.59 0.285 -3.055 0.844 -4.16 1.633 c -1.586 1.02 -3.129 2.172 -3.844 3.508 c -0.715 1.344 -1.07 2.84 -1.199 4.43 l -0.059 0.703 v 0.004 c -0.07 0.852 -0.18 1.824 -0.246 2.871 l -0.039 0.621 m 21.336 -0.012 c 0.445 -0.75 0.781 -1.602 0.988 -2.574 c 0.039 -0.176 0.07 -0.348 0.098 -0.52 l -0.082 -0.023 c -0.281 1 -0.621 2.074 -1 3.117" fill="url(#6)"/><g fill="#e3ff9c"><path d="m 12.484 19.52 h 3.867 c -0.133 0.266 -0.246 0.539 -0.336 0.816 c -0.355 1.074 -0.414 2.211 -0.281 3.387 v 0.008 l 0.164 1.301 l 0.254 1.637 l 0.012 0.082 l 0.074 0.578 h 0.496 l 0.055 0.492 h 3.605 l -2.875 4.199 l -1.016 1.387 h -4.84 l -1.016 -1.387 l -2.875 -4.199 h 2.93 l 0.031 -0.492 h 0.594 l 0.039 -0.617 c 0.063 -1.047 0.172 -2.02 0.246 -2.875 l 0.055 -0.707 c 0.102 -1.273 0.352 -2.488 0.816 -3.609" fill-opacity="0.024"/><path d="m 12.289 20.02 h 3.836 c -0.039 0.105 -0.078 0.207 -0.109 0.309 c -0.355 1.074 -0.414 2.215 -0.281 3.387 v 0.008 l 0.164 1.301 v 0.004 l 0.254 1.633 l 0.012 0.086 l 0.074 0.578 h 0.496 l 0.055 0.488 h 3.605 l -2.875 4.199 l -0.277 0.383 h -6.316 l -0.277 -0.383 l -2.875 -4.199 h 2.93 l 0.031 -0.488 h 0.594 l 0.039 -0.621 c 0.063 -1.047 0.172 -2.02 0.246 -2.871 v -0.004 l 0.055 -0.703 c 0.086 -1.086 0.281 -2.125 0.621 -3.105" fill-opacity="0.047"/><path d="m 12.13 20.535 h 3.824 c -0.301 1.016 -0.344 2.086 -0.219 3.188 v 0.008 l 0.164 1.301 l 0.254 1.637 l 0.012 0.082 l 0.074 0.578 h 0.496 l 0.055 0.492 h 3.605 l -2.445 3.57 h -7.73 l -2.445 -3.57 h 2.93 l 0.027 -0.492 h 0.594 l 0.039 -0.617 c 0.066 -1.047 0.176 -2.02 0.246 -2.875 l 0.059 -0.707 c 0.07 -0.898 0.215 -1.766 0.461 -2.594" fill-opacity="0.075"/><path d="m 11.992 21.04 h 3.832 c -0.18 0.863 -0.191 1.762 -0.09 2.684 v 0.008 l 0.164 1.301 l 0.254 1.637 l 0.012 0.082 l 0.074 0.578 h 0.496 l 0.055 0.492 h 3.605 l -1.758 2.566 h -9.105 l -1.758 -2.566 h 2.93 l 0.027 -0.492 h 0.594 l 0.039 -0.617 c 0.066 -1.047 0.176 -2.02 0.246 -2.875 l 0.059 -0.707 c 0.059 -0.715 0.16 -1.414 0.324 -2.09" fill-opacity="0.098"/><path d="m 11.879 21.551 h 3.859 c -0.098 0.703 -0.09 1.43 -0.004 2.172 v 0.008 l 0.164 1.301 l 0.254 1.637 l 0.012 0.082 l 0.074 0.578 h 0.492 l 0.055 0.492 h 3.609 l -1.07 1.563 h -10.48 l -1.07 -1.563 h 2.93 l 0.027 -0.492 h 0.594 l 0.039 -0.617 c 0.066 -1.047 0.176 -2.02 0.246 -2.875 l 0.059 -0.707 c 0.043 -0.535 0.113 -1.063 0.211 -1.578" fill-opacity="0.122"/><path d="m 11.793 22.06 h 3.895 c -0.035 0.543 -0.016 1.098 0.047 1.664 v 0.008 l 0.164 1.297 v 0.004 l 0.254 1.637 l 0.012 0.082 l 0.074 0.578 h 0.496 l 0.055 0.488 h 3.605 l -0.383 0.555 h -11.859 l -0.379 -0.555 h 2.93 l 0.027 -0.488 h 0.594 l 0.039 -0.621 c 0.066 -1.047 0.176 -2.02 0.246 -2.871 v -0.004 l 0.059 -0.703 c 0.031 -0.363 0.07 -0.719 0.125 -1.07" fill-opacity="0.145"/><path d="m 11.727 22.566 h 3.945 c -0.004 0.379 0.02 0.766 0.063 1.156 v 0.008 l 0.164 1.301 h 0.004 l 0.25 1.637 l 0.012 0.082 l 0.074 0.578 h 0.496 l 0.004 0.039 h -6.01 l 0.004 -0.039 h 0.594 l 0.039 -0.617 c 0.066 -1.047 0.172 -2.02 0.246 -2.875 l 0.059 -0.707 c 0.012 -0.188 0.031 -0.375 0.055 -0.563" fill-opacity="0.173"/><path d="m 11.672 23.07 h 4.01 c 0.012 0.215 0.027 0.43 0.055 0.648 v 0.008 l 0.16 1.301 h 0.004 l 0.207 1.332 h -4.719 c 0.066 -0.914 0.16 -1.766 0.223 -2.523 v -0.004 l 0.059 -0.703 l 0.008 -0.059" fill-opacity="0.196"/></g><path d="m 30.586 19.961 c 0.215 0.332 0.402 0.68 0.559 1.043 l 1.887 -0.914 c -0.133 -0.441 -0.301 -0.867 -0.5 -1.277 l -1.914 1.137" fill="url(#7)"/><g fill="#e3ff9c"><path d="m 7.359 27.3 h 4.047 v 0.633 h -4.047"/><path d="m 15.684 27.309 l 4.867 -0.012 v 0.633 l -4.867 0.016"/></g><g fill="#b2d661"><path d="m 30.957 21.09 l 1.926 -1.145 l 0.004 0.004 c 0.195 0.414 0.355 0.848 0.484 1.293 l -1.871 0.91 c -0.156 -0.371 -0.336 -0.723 -0.543 -1.063"/><path d="m 31.457 22.2 c 0.613 -0.34 1.227 -0.684 1.836 -1.023 c 0 0 0.004 0 0.004 0.004 c 0.168 0.395 0.309 0.801 0.418 1.227 c -0.594 0.266 -1.188 0.535 -1.777 0.801 c -0.137 -0.348 -0.297 -0.688 -0.48 -1.012" fill-opacity="0.937"/><path d="m 31.691 23.316 c 0.582 -0.301 1.164 -0.602 1.746 -0.902 c 0 0 0 0 0.004 0.004 c 0.148 0.375 0.266 0.758 0.352 1.156 c -0.563 0.234 -1.121 0.465 -1.688 0.695 c -0.113 -0.328 -0.25 -0.648 -0.414 -0.953" fill-opacity="0.875"/><path d="m 31.762 24.402 c 0.551 -0.262 1.105 -0.52 1.656 -0.777 c 0 0 0.004 0 0.004 0 c 0.125 0.352 0.219 0.715 0.289 1.09 c -0.531 0.199 -1.063 0.395 -1.594 0.59 c -0.098 -0.309 -0.215 -0.613 -0.355 -0.902" fill-opacity="0.812"/><path d="m 31.723 25.441 c 0.523 -0.219 1.047 -0.438 1.566 -0.656 c 0.004 0 0.004 0 0.004 0 c 0.102 0.332 0.176 0.676 0.223 1.023 c -0.5 0.164 -1 0.324 -1.5 0.484 c -0.074 -0.293 -0.172 -0.574 -0.293 -0.852" fill-opacity="0.749"/><path d="m 31.602 26.43 c 0.492 -0.18 0.984 -0.359 1.477 -0.535 c 0 0 0 0 0.004 0 c 0.074 0.313 0.129 0.629 0.156 0.953 c -0.469 0.129 -0.938 0.254 -1.406 0.383 c -0.059 -0.273 -0.133 -0.543 -0.23 -0.801" fill-opacity="0.686"/><path d="m 31.387 27.355 c 0.465 -0.137 0.926 -0.277 1.391 -0.414 c 0.055 0.293 0.086 0.586 0.094 0.887 c -0.441 0.09 -0.879 0.184 -1.316 0.273 c -0.035 -0.254 -0.094 -0.504 -0.168 -0.746" fill-opacity="0.624"/><path d="m 31.02 28.19 c 0.43 -0.098 0.863 -0.195 1.297 -0.293 c 0.031 0.27 0.039 0.543 0.027 0.816 c -0.406 0.059 -0.813 0.113 -1.219 0.172 c -0.02 -0.238 -0.055 -0.469 -0.109 -0.699" fill-opacity="0.561"/><path d="m 30.586 28.949 c 0.402 -0.059 0.809 -0.113 1.211 -0.172 c 0.008 0.25 -0.004 0.5 -0.035 0.75 c -0.379 0.02 -0.754 0.043 -1.129 0.063 c 0 -0.215 -0.016 -0.43 -0.047 -0.641" fill-opacity="0.502"/><path d="m 30.1 29.633 c 0.371 -0.016 0.742 -0.031 1.117 -0.047 c -0.016 0.227 -0.047 0.453 -0.102 0.68 c -0.344 -0.012 -0.691 -0.027 -1.035 -0.039 c 0.02 -0.199 0.027 -0.395 0.02 -0.594" fill-opacity="0.439"/><path d="m 29.574 30.25 c 0.34 0.023 0.684 0.047 1.027 0.07 c -0.039 0.207 -0.094 0.41 -0.164 0.613 c -0.316 -0.047 -0.629 -0.098 -0.945 -0.145 c 0.039 -0.18 0.07 -0.359 0.082 -0.539" fill-opacity="0.376"/><path d="m 29.02 30.801 c 0.309 0.063 0.625 0.129 0.938 0.191 c 0 0 0 0 0 0.004 c -0.063 0.184 -0.141 0.363 -0.23 0.543 c -0.285 -0.086 -0.57 -0.168 -0.852 -0.254 c 0.059 -0.16 0.109 -0.32 0.145 -0.484" fill-opacity="0.314"/><path d="m 28.434 31.29 c 0.281 0.105 0.566 0.211 0.852 0.316 c -0.086 0.164 -0.184 0.324 -0.297 0.473 c -0.254 -0.117 -0.508 -0.234 -0.758 -0.355 c 0.078 -0.141 0.148 -0.285 0.203 -0.434" fill-opacity="0.251"/><path d="m 27.84 31.719 c 0.254 0.145 0.504 0.293 0.758 0.438 c -0.109 0.145 -0.227 0.277 -0.359 0.406 c -0.223 -0.152 -0.441 -0.309 -0.664 -0.461 c 0.098 -0.121 0.188 -0.25 0.266 -0.383" fill-opacity="0.188"/><path d="m 27.23 32.1 c 0.223 0.184 0.449 0.371 0.672 0.559 c -0.133 0.121 -0.273 0.234 -0.426 0.336 c -0.191 -0.188 -0.383 -0.379 -0.574 -0.566 c 0.117 -0.102 0.23 -0.211 0.328 -0.328" fill-opacity="0.125"/><path d="m 26.625 32.418 c 0.191 0.227 0.387 0.453 0.578 0.68 c -0.156 0.102 -0.316 0.191 -0.488 0.27 c -0.16 -0.223 -0.32 -0.449 -0.484 -0.672 c 0.141 -0.082 0.273 -0.176 0.395 -0.277" fill-opacity="0.063"/></g><g fill="#e5ffa8"><path d="m 10.992 23.17 h 5.367 c 0.008 0.16 0.023 0.32 0.043 0.48 c 0.02 0.199 0.199 1.598 0.387 3.02 h 5.246 l -0.645 0.93 h -14.613 l -0.645 -0.93 h 4.57 c 0.09 -1.313 0.234 -2.82 0.293 -3.5" fill-opacity="0.024"/><path d="m 10.98 23.328 h 5.387 l 0.031 0.32 c 0.023 0.199 0.199 1.598 0.387 3.02 h 5.25 l -0.426 0.609 h -15.06 l -0.426 -0.609 h 4.574 c 0.082 -1.219 0.215 -2.602 0.277 -3.34" fill-opacity="0.047"/><path d="m 10.965 23.488 h 5.422 l 0.016 0.16 c 0.023 0.195 0.199 1.598 0.387 3.02 h 5.25 l -0.203 0.289 h -15.5 l -0.203 -0.289 h 4.574 c 0.078 -1.133 0.195 -2.41 0.262 -3.176" fill-opacity="0.075"/><path d="m 10.949 23.652 h 5.453 c 0.023 0.207 0.195 1.582 0.379 2.984 h -6.078 c 0.074 -1.051 0.18 -2.215 0.246 -2.984" fill-opacity="0.098"/><path d="m 10.938 23.816 h 5.484 l 0.32 2.5 h -6.02 c 0.066 -0.887 0.148 -1.82 0.211 -2.5" fill-opacity="0.122"/><path d="m 10.922 23.977 h 5.52 l 0.258 2.02 h -5.949 c 0.059 -0.715 0.121 -1.438 0.172 -2.02" fill-opacity="0.145"/><path d="m 10.906 24.14 h 5.555 l 0.195 1.535 h -5.879 c 0.043 -0.543 0.09 -1.078 0.129 -1.535" fill-opacity="0.173"/><path d="m 10.895 24.301 h 5.586 l 0.137 1.047 h -5.816" fill-opacity="0.196"/></g></g><path d="m 14.08 36.711 l 3.438 -4.691 l 3.207 -4.688 h -4.078 l -0.074 -0.582 l -0.012 -0.082 l -0.25 -1.637 h -0.004 l -0.164 -1.301 v -0.008 c -0.133 -1.176 -0.074 -2.313 0.281 -3.387 c 0.359 -1.086 1.02 -2.098 2.098 -3 c 1.832 -1.543 3.289 -1.938 5.328 -1.785 c 3.238 0.246 4.703 1.504 6.949 4.727 c -0.324 -0.273 0.363 0.238 -0.047 -0.039 c -2.301 -3.965 -8.07 -5.926 -12.207 -2.398 c -1.906 1.625 -1.598 3.516 -1.734 5.816 c -0.012 0.211 0.305 1.5 0.504 3.02 h 4.824 l -3.977 5.738 l -4.078 5.434 l -3.977 -5.434 l -3.977 -5.738 l 4.102 -0.051 c 0.098 -1.484 0.258 -2.941 0.309 -3.59 c 0.266 -3.348 1.965 -6.266 5.344 -8.438 c 4.777 -3.066 10.91 -2.01 14.512 1.352 c 0.063 0.395 0.078 -0.023 0.191 0.402 c -3.266 -3.891 -10.719 -3.785 -14.336 -1.199 c -1.586 1.02 -3.133 2.172 -3.844 3.508 c -0.719 1.34 -1.074 2.836 -1.199 4.43 l -0.059 0.703 v 0.004 c -0.074 0.852 -0.18 1.824 -0.246 2.871 l -0.039 0.621 h -0.668 l -2.758 0.051 l 3.207 4.691 l 3.438 4.691" fill="url(#8)"/><g fill-rule="evenodd"><path d="m 24.805 26.06 h 11.453 c 0.582 0 1.055 0.391 1.055 0.863 v 9.352 c 0 0.473 -0.473 0.859 -1.055 0.859 h -11.453 c -0.578 0 -1.055 -0.387 -1.055 -0.859 v -9.352 c 0 -0.477 0.477 -0.863 1.055 -0.863" fill-opacity="0.078"/><path d="m 25.754 24.2 h 11.402 c 0.598 0 1.078 0.477 1.078 1.063 v 11.242 c 0 0.59 -0.48 1.063 -1.078 1.063 h -11.402 c -0.598 0 -1.082 -0.473 -1.082 -1.063 v -11.242 c 0 -0.586 0.484 -1.063 1.082 -1.063" fill="url(#9)"/><path d="m 25.727 24.2 h 11.453 c 0.582 0 1.055 0.465 1.055 1.039 v 11.289 c 0 0.574 -0.473 1.039 -1.055 1.039 h -11.453 c -0.578 0 -1.055 -0.465 -1.055 -1.039 v -11.289 c 0 -0.57 0.477 -1.039 1.055 -1.039 m 11.453 0.992 h -11.453 c -0.012 0 -0.023 0.004 -0.031 0.012 v 0.004 c -0.008 0.008 -0.016 0.02 -0.016 0.031 v 11.289 c 0 0.012 0.008 0.023 0.016 0.031 v 0.004 c 0.008 0.004 0.02 0.012 0.031 0.012 h 11.453 c 0.016 0 0.027 -0.008 0.035 -0.012 v -0.004 c 0.008 -0.008 0.012 -0.02 0.012 -0.031 v -11.289 c 0 -0.012 -0.004 -0.027 -0.012 -0.031 v -0.004 c -0.008 -0.008 -0.02 -0.012 -0.035 -0.012" fill="#8bc5f4"/><path d="m 25.727 24.2 h 11.453 c 0.582 0 1.055 0.465 1.055 1.039 v 1.063 c -0.016 -0.563 -0.48 -1.016 -1.055 -1.016 h -11.453 c -0.57 0 -1.039 0.453 -1.055 1.016 v -1.063 c 0 -0.57 0.477 -1.039 1.055 -1.039" fill="url(#A)"/></g><path d="m 25.754 24.04 h 11.453 c 0.379 0 0.727 0.156 0.98 0.402 c 0.254 0.25 0.41 0.594 0.41 0.969 l -0.027 11.11 c 0 0.375 -0.156 0.719 -0.406 0.969 c -0.254 0.246 -0.602 0.402 -0.984 0.402 h -11.453 c -0.379 0 -0.727 -0.156 -0.98 -0.402 c -0.254 -0.25 -0.41 -0.594 -0.41 -0.969 l 0.027 -11.11 c 0 -0.375 0.156 -0.719 0.406 -0.969 h 0.004 c 0.25 -0.246 0.602 -0.402 0.98 -0.402 m 11.453 0.664 h -11.453 c -0.199 0 -0.379 0.078 -0.508 0.207 c -0.129 0.129 -0.211 0.305 -0.211 0.5 l -0.023 11.11 c 0 0.195 0.078 0.371 0.207 0.5 c 0.133 0.129 0.313 0.207 0.508 0.207 h 11.453 c 0.199 0 0.379 -0.078 0.508 -0.207 c 0.129 -0.129 0.211 -0.305 0.211 -0.5 l 0.027 -11.11 c 0 -0.195 -0.082 -0.371 -0.211 -0.5 c -0.129 -0.129 -0.313 -0.207 -0.508 -0.207" fill="url(#B)"/><path d="m 25.824 30.922 c 0 -0.328 0.035 -0.645 0.102 -0.941 h 0.004 c 0.066 -0.313 0.168 -0.602 0.301 -0.875 c 0.137 -0.273 0.301 -0.523 0.484 -0.738 c 0.191 -0.227 0.41 -0.414 0.645 -0.563 c 0.234 -0.148 0.488 -0.262 0.754 -0.336 c 0.266 -0.074 0.543 -0.113 0.832 -0.113 c 0.48 0 0.922 0.098 1.32 0.293 c 0.395 0.191 0.734 0.48 1.016 0.863 h 0.004 c 0.117 0.16 0.223 0.328 0.313 0.5 c 0.02 -0.07 0.043 -0.141 0.07 -0.207 h 0.004 c 0.121 -0.301 0.301 -0.566 0.543 -0.789 c 0.246 -0.227 0.543 -0.398 0.879 -0.508 c 0.316 -0.102 0.672 -0.152 1.07 -0.152 c 0.367 0 0.699 0.039 0.984 0.109 c 0.32 0.078 0.598 0.207 0.832 0.379 c 0.234 0.176 0.434 0.395 0.59 0.664 c 0.145 0.246 0.258 0.531 0.34 0.863 l 0.152 0.629 l -0.641 0.145 l -0.289 0.063 c 0.164 0.105 0.305 0.223 0.418 0.352 l 0.004 0.004 c 0.184 0.199 0.32 0.438 0.41 0.707 h 0.004 c 0.082 0.25 0.125 0.523 0.125 0.824 c 0 0.359 -0.066 0.695 -0.195 1 v 0.004 c -0.121 0.289 -0.301 0.551 -0.531 0.777 l -0.008 -0.035 l -1.898 -0.152 l -1.598 0.684 c -0.188 -0.086 -0.359 -0.188 -0.52 -0.309 c -0.258 -0.203 -0.477 -0.449 -0.648 -0.742 c -0.051 -0.086 -0.098 -0.176 -0.141 -0.27 c -0.113 0.203 -0.238 0.391 -0.375 0.559 c -0.191 0.227 -0.41 0.418 -0.648 0.574 c -0.059 0.035 -0.113 0.07 -0.168 0.102 l -0.664 -0.75 h -1.18 l -0.996 0.766 c -0.309 -0.168 -0.586 -0.395 -0.836 -0.676 c -0.293 -0.336 -0.512 -0.738 -0.656 -1.203 l -0.004 -0.004 c -0.133 -0.441 -0.203 -0.941 -0.203 -1.5 m 1.34 -0.504 c -0.027 0.156 -0.039 0.32 -0.039 0.492 c 0.004 -0.176 0.016 -0.34 0.039 -0.492 m 3.605 0.555 c 0 -0.164 -0.012 -0.32 -0.031 -0.473 c 0.016 0.156 0.027 0.32 0.027 0.492 c 0 0.09 0 0.176 -0.008 0.258 m 1.297 0.07 c -0.004 0.086 -0.012 0.172 -0.023 0.258 l 0.246 -0.043 l -0.035 -0.027 v -0.004 c -0.066 -0.059 -0.129 -0.117 -0.188 -0.184 m -4.535 1.273 c 0.031 0.051 0.066 0.098 0.105 0.145 l -0.02 -0.023 m 0.816 -1.711 c 0 0.441 0.07 0.75 0.211 0.934 c 0.059 0.074 0.121 0.129 0.176 0.16 c 0.043 0.02 0.094 0.031 0.148 0.031 c 0.102 0 0.199 -0.063 0.297 -0.191 c 0.066 -0.082 0.117 -0.191 0.148 -0.328 c 0.043 -0.168 0.066 -0.375 0.066 -0.617 c 0 -0.23 -0.023 -0.43 -0.066 -0.586 c -0.035 -0.137 -0.086 -0.25 -0.148 -0.332 c -0.063 -0.078 -0.117 -0.133 -0.172 -0.164 c -0.039 -0.02 -0.09 -0.031 -0.141 -0.031 c -0.105 0 -0.207 0.066 -0.305 0.191 c -0.063 0.082 -0.113 0.195 -0.148 0.328 c -0.043 0.172 -0.063 0.371 -0.063 0.605 m 7.336 0.922 c 0.012 0.043 0.023 0.082 0.031 0.125 c -0.004 -0.145 -0.023 -0.273 -0.059 -0.383 h 0.004 c -0.035 -0.098 -0.086 -0.188 -0.152 -0.262 c -0.07 -0.074 -0.188 -0.152 -0.355 -0.234 v -0.004 c -0.199 -0.098 -0.461 -0.195 -0.773 -0.281 c -0.336 -0.09 -0.602 -0.172 -0.797 -0.238 h -0.004 c -0.234 -0.082 -0.41 -0.164 -0.523 -0.242 c -0.125 -0.082 -0.227 -0.184 -0.301 -0.301 c 0.012 0.047 0.027 0.09 0.043 0.133 c 0.051 0.117 0.125 0.219 0.227 0.309 c 0.086 0.07 0.258 0.16 0.52 0.262 c 0.309 0.121 0.711 0.25 1.199 0.375 c 0.141 0.035 0.266 0.078 0.367 0.129 c 0.141 0.066 0.258 0.145 0.348 0.238 l 0.012 0.012 c 0.098 0.105 0.172 0.23 0.215 0.363" fill="url(#C)"/><path d="m 26.08 29.461 c 0.043 -0.121 0.094 -0.238 0.152 -0.355 c 0.133 -0.273 0.297 -0.52 0.48 -0.738 c 0.195 -0.227 0.41 -0.414 0.645 -0.563 c 0.238 -0.148 0.492 -0.262 0.758 -0.336 c 0.262 -0.074 0.543 -0.113 0.828 -0.113 c 0.484 0 0.926 0.098 1.32 0.293 c 0.395 0.191 0.734 0.48 1.016 0.863 l 0.004 0.004 c 0.117 0.156 0.223 0.324 0.313 0.496 c 0.023 -0.07 0.047 -0.137 0.07 -0.207 h 0.004 c 0.121 -0.301 0.305 -0.566 0.543 -0.789 h 0.004 c 0.246 -0.227 0.539 -0.398 0.875 -0.508 h 0.004 c 0.313 -0.098 0.672 -0.152 1.066 -0.152 c 0.367 0 0.699 0.039 0.988 0.109 c 0.316 0.082 0.594 0.211 0.828 0.379 h 0.004 c 0.23 0.176 0.43 0.395 0.586 0.664 c 0.145 0.246 0.258 0.531 0.34 0.863 l 0.051 0.211 c -1.785 0.246 -8.73 -0.027 -10.879 -0.121" fill="url(#D)"/><path d="m 36.36 33.879 l -0.059 0.055 c -0.262 0.246 -0.57 0.43 -0.922 0.547 h -0.004 c -0.336 0.113 -0.711 0.172 -1.121 0.172 c -0.371 0 -0.719 -0.047 -1.031 -0.141 c -0.125 -0.039 -0.25 -0.082 -0.367 -0.137 l 1.598 -0.688 l 1.898 0.152 m -5.996 0.449 c -0.188 0.102 -0.387 0.184 -0.59 0.246 c -0.266 0.078 -0.539 0.117 -0.82 0.117 c -0.449 0 -0.867 -0.086 -1.25 -0.262 c -0.063 -0.027 -0.121 -0.055 -0.18 -0.09 l 0.996 -0.762 h 1.18" fill="#ccecff" fill-opacity="0.439"/><path d="m 26.469 30.922 c 0 -0.563 0.117 -1.078 0.344 -1.539 c 0.227 -0.461 0.523 -0.809 0.891 -1.039 c 0.367 -0.23 0.781 -0.348 1.238 -0.348 c 0.77 0 1.371 0.297 1.813 0.891 c 0.441 0.598 0.66 1.289 0.66 2.086 c 0 0.59 -0.113 1.125 -0.344 1.602 c -0.23 0.48 -0.531 0.84 -0.902 1.078 c -0.371 0.238 -0.777 0.359 -1.223 0.359 c -0.711 0 -1.301 -0.266 -1.77 -0.801 c -0.469 -0.535 -0.707 -1.297 -0.707 -2.289 m 1.301 0.082 c 0 0.582 0.113 1.023 0.344 1.32 c 0.23 0.297 0.512 0.445 0.836 0.445 c 0.32 0 0.594 -0.148 0.82 -0.449 c 0.227 -0.297 0.34 -0.742 0.34 -1.332 c 0 -0.566 -0.117 -1 -0.344 -1.305 c -0.234 -0.297 -0.508 -0.449 -0.832 -0.449 c -0.316 0 -0.594 0.152 -0.82 0.449 c -0.23 0.301 -0.344 0.742 -0.344 1.316 m 4.195 1.238 l 1.27 -0.23 c 0.109 0.602 0.449 0.906 1.023 0.906 c 0.301 0 0.527 -0.063 0.68 -0.176 c 0.148 -0.117 0.223 -0.266 0.223 -0.449 c 0 -0.129 -0.031 -0.227 -0.094 -0.297 c -0.074 -0.074 -0.211 -0.137 -0.414 -0.191 c -1.043 -0.27 -1.703 -0.527 -1.984 -0.773 c -0.352 -0.309 -0.527 -0.73 -0.527 -1.266 c 0 -0.535 0.172 -0.961 0.516 -1.281 c 0.344 -0.324 0.844 -0.484 1.5 -0.484 c 0.629 0 1.105 0.121 1.434 0.359 c 0.324 0.242 0.555 0.629 0.684 1.164 l -1.191 0.266 c -0.105 -0.461 -0.406 -0.695 -0.902 -0.695 c -0.313 0 -0.531 0.047 -0.664 0.137 c -0.133 0.086 -0.199 0.199 -0.199 0.344 c 0 0.125 0.063 0.23 0.184 0.313 c 0.121 0.086 0.496 0.219 1.125 0.391 c 0.707 0.195 1.188 0.43 1.441 0.711 c 0.25 0.277 0.371 0.648 0.371 1.109 c 0 0.559 -0.191 1.016 -0.578 1.379 c -0.387 0.363 -0.922 0.539 -1.602 0.539 c -0.621 0 -1.129 -0.148 -1.52 -0.449 c -0.391 -0.301 -0.648 -0.742 -0.773 -1.32" fill="url(#E)"/></svg>