<svg xmlns="http://www.w3.org/2000/svg" viewBox="0 0 48 48"><path d="m 39.594 7.309 c 37.844 49.52 -66.3 56.56 -32.879 6.01 c 7.621 -11.527 22.855 -19.12 32.879 -6.01" fill="#f4f4f4"/><path d="m 21.895 39.19 c -0.898 -0.121 -1.949 -0.352 -2.336 -0.512 c -0.387 -0.156 -1.098 -0.285 -1.574 -0.285 c -0.543 0 -0.926 -0.152 -1.012 -0.398 c -0.082 -0.219 -0.332 -0.398 -0.559 -0.398 c -0.227 0 -0.793 -0.25 -1.262 -0.551 c -0.633 -0.406 -0.773 -0.621 -0.563 -0.844 c 0.457 -0.488 0.336 -1.117 -0.594 -3.03 c -0.672 -1.387 -0.875 -2.125 -0.875 -3.203 c -0.004 -1.34 -0.035 -1.406 -0.746 -1.555 c -1.066 -0.227 -2.32 -1.645 -2.828 -3.199 c -0.547 -1.66 -0.551 -2.285 -0.031 -3.938 c 0.742 -2.375 2.363 -3.648 4.281 -3.379 c 0.969 0.141 1.059 0.094 1.461 -0.73 c 0.605 -1.238 2.832 -3.66 3.875 -4.215 c 5.203 -2.777 12.1 -1.125 14.758 3.539 l 0.84 1.473 l 1.336 -0.039 c 2.258 -0.063 3.77 1.582 4.156 4.527 c 0.352 2.645 -1.137 5.559 -3.043 5.961 c -0.711 0.152 -0.742 0.223 -0.742 1.527 c 0 1.07 -0.219 1.816 -1 3.449 c -1.152 2.391 -1.195 2.617 -0.48 2.617 c 0.305 0 0.48 0.137 0.418 0.332 c -0.184 0.586 -3.01 2.078 -4.164 2.199 c -0.613 0.066 -1.523 0.23 -2.02 0.367 c -1.367 0.371 -5.461 0.531 -7.297 0.285 m 1.258 -9.148 c 0.266 -0.34 0.195 -0.398 -0.473 -0.398 c -0.781 0 -1.059 0.367 -0.469 0.621 c 0.512 0.219 0.613 0.195 0.941 -0.223 m 4.449 -0.066 c 0.066 -0.207 -0.137 -0.332 -0.543 -0.332 c -0.633 0 -0.824 0.258 -0.473 0.629 c 0.258 0.273 0.895 0.086 1.016 -0.297" fill="#e8c8a3"/><path d="m 20.426 38.39 c -2.254 -0.645 -3.195 -1.242 -4.645 -2.941 c -1.48 -1.742 -2.254 -3.477 -2.41 -5.395 c -0.117 -1.465 -0.176 -1.586 -0.879 -1.824 c -1.145 -0.383 -2.301 -1.699 -2.738 -3.117 c -0.504 -1.625 -0.5 -2.453 0.023 -3.949 c 0.797 -2.297 2.168 -3.332 4.059 -3.074 l 1.164 0.16 l 0.75 -1.359 c 1.777 -3.215 5.168 -5.148 9.03 -5.148 c 3.852 0 7.602 2.156 9.16 5.266 l 0.598 1.184 l 1.391 -0.043 c 1.781 -0.055 2.84 0.688 3.672 2.582 c 0.691 1.57 0.754 2.813 0.215 4.426 c -0.488 1.461 -1.215 2.297 -2.563 2.938 c -1.012 0.484 -1.063 0.563 -1.063 1.648 c 0 1.52 -0.383 2.625 -1.563 4.531 c -1.98 3.207 -4.398 4.383 -9.348 4.543 c -2.422 0.078 -3.363 -0.004 -4.852 -0.426 m 6.887 -2.918 c 0.84 -0.141 1.738 -0.344 1.996 -0.445 c 0.816 -0.332 -0.793 -0.617 -1.719 -0.305 c -1.457 0.492 -4.234 0.512 -5.094 0.035 c -0.508 -0.281 -1.02 -0.363 -1.477 -0.242 c -1.078 0.285 -0.434 0.699 1.492 0.949 c 0.922 0.121 1.754 0.301 1.844 0.395 c 0.09 0.098 0.449 0.105 0.797 0.023 c 0.344 -0.086 1.316 -0.27 2.16 -0.41 m -8.176 -1.465 c 0 -0.219 -0.047 -0.395 -0.105 -0.395 c -0.059 0 -0.281 -0.074 -0.5 -0.164 c -0.258 -0.102 -0.398 -0.016 -0.398 0.246 c 0 0.363 0.32 0.637 0.816 0.691 c 0.102 0.012 0.188 -0.16 0.188 -0.379 m 11.984 0.082 c 0.406 -0.43 0.379 -0.742 -0.066 -0.742 c -0.203 0 -0.488 0.238 -0.637 0.531 c -0.203 0.406 -0.188 0.527 0.066 0.527 c 0.184 0 0.473 -0.141 0.637 -0.316 m -3.063 -0.484 c 0.809 -0.328 2.613 -2.223 2.613 -2.754 c 0 -0.238 0.281 -0.547 0.625 -0.684 c 0.434 -0.176 0.629 -0.453 0.629 -0.906 c 0 -0.359 -0.105 -0.723 -0.23 -0.805 c -0.391 -0.254 -1.023 0.152 -1.023 0.66 c 0 0.727 -0.453 0.883 -0.547 0.191 c -0.074 -0.555 -0.18 -0.59 -1.336 -0.469 c -2.262 0.238 -7.746 0.105 -9.137 -0.223 c -1.117 -0.266 -1.422 -0.258 -1.699 0.035 c -0.402 0.426 -0.188 1.184 0.367 1.301 c 0.219 0.043 0.52 0.543 0.668 1.113 c 0.395 1.484 1.719 2.539 3.434 2.727 c 0.746 0.082 1.41 0.203 1.477 0.273 c 0.18 0.184 3.465 -0.184 4.16 -0.461 m -10.512 -1.176 c -0.082 -0.223 -0.27 -0.406 -0.418 -0.406 c -0.184 0 -0.18 0.168 0.012 0.551 c 0.313 0.613 0.637 0.5 0.406 -0.145 m 14.977 0.234 c 0.219 -0.602 0.195 -0.645 -0.223 -0.473 c -0.207 0.082 -0.375 0.316 -0.375 0.52 c 0 0.504 0.41 0.469 0.598 -0.047 m 0.734 -1.273 c 0.125 -0.352 -0.254 -0.961 -0.598 -0.961 c -0.09 0 -0.109 0.301 -0.047 0.664 c 0.133 0.727 0.438 0.867 0.645 0.297 m -16.13 -0.762 c 0.004 -0.109 -0.164 -0.199 -0.371 -0.199 c -0.383 0 -0.512 0.563 -0.203 0.891 c 0.168 0.176 0.566 -0.305 0.574 -0.691 m 15.922 -2.691 c -0.449 -1.137 -0.832 -1.109 -0.43 0.035 c 0.145 0.402 0.348 0.973 0.449 1.266 c 0.148 0.414 0.211 0.441 0.285 0.121 c 0.051 -0.227 -0.086 -0.863 -0.305 -1.422 m -15.918 -0.453 c 0 -0.293 -0.113 -0.457 -0.25 -0.367 c -0.137 0.09 -0.25 0.402 -0.25 0.695 c 0 0.289 0.113 0.457 0.25 0.367 c 0.137 -0.09 0.25 -0.402 0.25 -0.695 m 9.922 -0.25 c 2.191 -0.41 2.363 -0.492 2.285 -1.055 c -0.109 -0.75 -0.289 -0.836 -1.012 -0.492 c -0.527 0.258 -0.859 0.23 -1.785 -0.145 c -0.625 -0.25 -1.137 -0.625 -1.137 -0.832 c 0 -0.223 -0.254 -0.375 -0.625 -0.375 c -0.348 0 -0.629 0.148 -0.629 0.332 c 0 0.566 -1.07 1.078 -2.313 1.105 c -0.738 0.016 -1.34 0.191 -1.598 0.461 c -0.434 0.457 -0.496 0.434 2.781 1.113 c 0.988 0.207 2.566 0.164 4.03 -0.113" fill="#deb88e"/><path d="m 23.02 38.75 c -0.277 -0.055 -1.121 -0.234 -1.883 -0.395 c -2.164 -0.457 -3.852 -1.434 -5.223 -3.02 c -1.578 -1.828 -2.309 -3.43 -2.484 -5.449 c -0.129 -1.5 -0.18 -1.609 -0.844 -1.75 c -1.797 -0.379 -3.379 -3.41 -2.973 -5.699 c 0.324 -1.813 0.629 -2.445 1.641 -3.383 c 0.902 -0.836 1.016 -0.871 2.406 -0.719 l 1.457 0.164 l 0.367 -0.926 c 0.871 -2.207 3.504 -4.395 6.406 -5.328 c 4.418 -1.418 10.176 1.01 12.04 5.066 l 0.539 1.18 l 1.43 -0.156 c 1.305 -0.145 1.504 -0.094 2.25 0.57 c 1.313 1.168 1.867 2.59 1.754 4.488 c -0.141 2.359 -0.813 3.578 -2.41 4.391 c -1.191 0.605 -1.305 0.738 -1.305 1.559 c 0 1.465 -0.523 2.973 -1.66 4.801 c -1.641 2.645 -3.805 3.93 -7.574 4.508 c -1.691 0.258 -3.01 0.289 -3.93 0.098 m 4.762 -2.969 c 2.148 -0.492 2.832 -0.805 4.01 -1.844 c 1.242 -1.094 1.867 -2.406 1.875 -3.949 c 0.008 -1.672 -0.25 -2.445 -1.277 -3.797 c -0.699 -0.918 -0.773 -1.176 -0.656 -2.262 l 0.129 -1.23 l -0.742 0.953 c -0.852 1.09 -1.109 1.168 -1.336 0.414 c -0.148 -0.496 -0.207 -0.473 -0.715 0.328 c -0.746 1.172 -1.629 1.48 -2.5 0.875 c -0.371 -0.258 -0.73 -0.75 -0.797 -1.098 c -0.066 -0.344 -0.18 -0.926 -0.254 -1.289 c -0.184 -0.941 -1.309 -0.941 -1.492 0 c -0.074 0.363 -0.188 0.945 -0.254 1.289 c -0.066 0.348 -0.426 0.84 -0.797 1.098 c -0.863 0.598 -1.754 0.297 -2.477 -0.84 c -0.5 -0.785 -0.547 -0.801 -0.828 -0.32 c -0.238 0.398 -0.402 0.449 -0.781 0.234 c -0.68 -0.383 -0.762 -0.348 -0.762 0.344 c 0 0.344 -0.344 0.953 -0.785 1.391 c -2.098 2.09 -1.957 5.504 0.324 7.672 c 1.258 1.195 1.902 1.512 4.098 2.02 c 2.539 0.582 3.527 0.586 6.02 0.016 m -7.707 -7.426 c -2.281 -0.387 -2.445 -0.457 -2.445 -1.031 c 0 -0.813 0.645 -1.047 1.469 -0.539 c 0.363 0.227 1.863 0.563 3.336 0.75 c 2.637 0.336 4.461 0.184 8.543 -0.719 c 0.5 -0.109 0.73 -0.031 0.844 0.285 c 0.09 0.242 0.09 0.516 0.004 0.605 c -0.348 0.367 -5.418 1.125 -7.301 1.094 c -1.105 -0.016 -3.109 -0.219 -4.453 -0.445 m -5.469 -3.207 c 0.297 -0.195 0.309 -0.422 0.074 -1.254 c -0.156 -0.559 -0.352 -1.355 -0.434 -1.773 c -0.203 -1.031 -0.41 -0.723 -0.5 0.746 c -0.039 0.668 -0.207 1.387 -0.371 1.594 c -0.578 0.734 0.371 1.266 1.23 0.688 m 22.379 -0.453 c 0.457 -0.438 0.625 -1.152 0.27 -1.152 c -0.105 0.004 -0.383 0.359 -0.617 0.797 c -0.477 0.883 -0.348 1.016 0.348 0.355 m 0.16 -2.387 c -0.121 -0.668 -0.707 -0.758 -0.707 -0.113 c 0 0.328 0.164 0.555 0.395 0.555 c 0.234 0 0.363 -0.184 0.313 -0.441 m -6.473 -4.563 c 0 -0.664 -2.543 -1.414 -2.875 -0.848 c -0.102 0.176 0.105 0.289 0.539 0.293 c 0.387 0.004 0.988 0.18 1.332 0.387 c 0.734 0.445 1 0.488 1 0.168 m -9.348 -0.398 c 0.645 0.004 0.754 -0.066 0.535 -0.344 c -0.332 -0.422 -0.559 -0.434 -1.781 -0.074 c -0.516 0.152 -0.941 0.406 -0.941 0.559 c 0 0.184 0.246 0.207 0.691 0.066 c 0.379 -0.117 1.055 -0.211 1.496 -0.207" fill="#dca469"/><path d="m 23.02 38.75 c -0.277 -0.055 -1.121 -0.234 -1.883 -0.395 c -2.164 -0.457 -3.852 -1.434 -5.223 -3.02 c -1.578 -1.828 -2.309 -3.43 -2.484 -5.449 c -0.129 -1.5 -0.18 -1.609 -0.844 -1.75 c -1.797 -0.379 -3.379 -3.41 -2.973 -5.699 c 0.324 -1.813 0.629 -2.445 1.641 -3.383 c 0.902 -0.836 1.016 -0.871 2.406 -0.719 l 1.457 0.164 l 0.367 -0.926 c 0.871 -2.207 3.504 -4.395 6.406 -5.328 c 4.418 -1.418 10.176 1.01 12.04 5.066 l 0.539 1.18 l 1.43 -0.156 c 1.305 -0.145 1.504 -0.094 2.25 0.57 c 1.313 1.168 1.867 2.59 1.754 4.488 c -0.141 2.359 -0.813 3.578 -2.41 4.391 c -1.191 0.605 -1.305 0.738 -1.305 1.559 c 0 1.465 -0.523 2.973 -1.66 4.801 c -1.641 2.645 -3.805 3.93 -7.574 4.508 c -1.691 0.258 -3.01 0.289 -3.93 0.098 m 5.465 -2.902 c 2.141 -0.586 3.977 -2.01 4.789 -3.707 c 1.09 -2.273 0.887 -3.602 -0.961 -6.344 c -0.43 -0.633 -0.449 -0.852 -0.188 -1.887 c 1.023 -4.051 -0.586 -7.457 -3.578 -7.574 c -0.922 -0.035 -2.41 0.949 -2.902 1.918 c -0.414 0.82 -1.145 0.613 -2.363 -0.676 c -0.969 -1.023 -1.273 -1.191 -2.148 -1.191 c -1.371 0 -2.262 0.531 -3.145 1.879 c -0.668 1.016 -0.734 1.313 -0.707 3.133 c 0.02 1.109 0.113 2.438 0.211 2.957 c 0.148 0.781 0.07 1.082 -0.434 1.723 c -1.578 1.996 -1.836 3.82 -0.836 5.891 c 0.613 1.27 1.488 2.254 2.707 3.051 c 1.781 1.168 6.75 1.598 9.555 0.828 m -8.141 -7.625 c -1.195 -0.313 -2.266 -0.668 -2.375 -0.785 c -0.305 -0.32 0.453 -0.707 0.898 -0.457 c 1.418 0.789 7.18 1.02 10.41 0.41 c 1.098 -0.207 2.051 -0.32 2.113 -0.254 c 0.266 0.277 -0.457 0.602 -2.531 1.141 c -2.793 0.727 -5.613 0.707 -8.516 -0.055 m 0.801 -3.082 c -1.051 -1.113 -0.902 -2.887 0.309 -3.664 c 0.637 -0.41 0.715 -0.402 1.371 0.113 c 0.965 0.762 1.121 2.699 0.285 3.52 c -0.703 0.695 -1.328 0.703 -1.965 0.031 m 5.293 -0.031 c -0.836 -0.82 -0.68 -2.758 0.285 -3.52 c 0.656 -0.516 0.734 -0.523 1.375 -0.113 c 1.207 0.777 1.355 2.551 0.305 3.664 c -0.637 0.672 -1.262 0.664 -1.965 -0.031 m -11.711 0.043 c 0.363 -0.422 0.395 -0.668 0.18 -1.391 c -0.145 -0.484 -0.355 -1.297 -0.469 -1.809 c -0.289 -1.273 -1.039 -1.359 -1.941 -0.227 c -0.555 0.695 -0.66 1.035 -0.547 1.773 c 0.281 1.813 1.844 2.746 2.777 1.652 m 22.395 -0.371 c 1.199 -1.137 0.332 -4.02 -1.156 -3.836 c -0.59 0.07 -0.68 0.23 -0.875 1.539 c -0.348 2.32 -0.332 2.469 0.324 2.82 c 0.664 0.352 0.848 0.297 1.707 -0.523" fill="#ab8b66"/><path d="m 23.02 38.504 c -0.277 -0.066 -1.121 -0.25 -1.883 -0.41 c -4.09 -0.859 -7.207 -4.293 -7.477 -8.234 l -0.105 -1.559 l -1.211 -0.551 c -0.668 -0.301 -1.395 -0.844 -1.617 -1.203 c -1.738 -2.805 -0.891 -6.934 1.652 -8.05 c 0.539 -0.234 0.918 -0.234 1.594 0 c 1.063 0.371 1.297 0.25 1.762 -0.934 c 0.543 -1.367 2.469 -3.387 3.984 -4.172 c 5.23 -2.707 11.547 -0.883 14.03 4.055 c 0.625 1.234 0.789 1.301 2.305 0.938 c 0.98 -0.238 2.289 0.668 3.066 2.117 c 0.762 1.422 0.777 3.75 0.031 5.375 c -0.438 0.957 -0.785 1.297 -1.879 1.824 c -1.324 0.645 -1.344 0.664 -1.344 1.813 c 0 1.734 -0.848 3.813 -2.219 5.438 c -1.898 2.254 -4.367 3.324 -8.188 3.551 c -1.102 0.066 -2.23 0.066 -2.504 0 m 5.723 -2.488 c 3.246 -0.98 5.434 -3.582 5.434 -6.461 c 0 -1.398 -0.211 -1.941 -1.324 -3.41 c -0.602 -0.793 -0.707 -1.125 -0.559 -1.727 c 0.105 -0.406 0.242 -1.594 0.305 -2.633 c 0.09 -1.531 0.016 -2.09 -0.383 -2.918 c -0.863 -1.777 -2.211 -2.746 -3.824 -2.746 c -0.875 0 -2.344 0.949 -2.773 1.793 c -0.375 0.738 -1.375 0.797 -1.586 0.094 c -0.219 -0.723 -2 -1.887 -2.895 -1.887 c -2.602 0 -4.43 2.574 -4.18 5.887 c 0.07 0.918 0.203 2.043 0.297 2.496 c 0.141 0.684 0.039 0.98 -0.598 1.746 c -0.422 0.508 -0.883 1.246 -1.027 1.645 c -0.891 2.477 0.566 5.762 3.254 7.34 c 2.25 1.32 6.871 1.688 9.859 0.781 m -7.563 -11.227 c -0.77 -0.871 -0.719 -2.121 0.117 -2.816 c 0.84 -0.695 0.984 -0.688 1.734 0.102 c 0.75 0.797 0.785 1.703 0.094 2.629 c -0.641 0.859 -1.23 0.887 -1.945 0.086 m 5.242 -0.086 c -0.691 -0.926 -0.656 -1.832 0.094 -2.629 c 0.75 -0.789 0.895 -0.801 1.734 -0.102 c 0.863 0.719 0.898 2.035 0.078 2.852 c -0.762 0.762 -1.273 0.727 -1.906 -0.121 m -11.582 0.672 c 0.355 -0.352 0.508 -0.723 0.406 -0.996 c -0.09 -0.238 -0.285 -1.031 -0.438 -1.762 c -0.152 -0.727 -0.383 -1.473 -0.516 -1.656 c -0.398 -0.559 -1.18 -0.371 -1.98 0.477 c -0.672 0.707 -0.75 0.941 -0.629 1.887 c 0.156 1.238 1.238 2.605 2.059 2.605 c 0.293 0 0.785 -0.25 1.098 -0.555 m 22.395 -0.422 c 0.941 -0.953 0.965 -2.363 0.055 -3.508 c -0.988 -1.242 -2.359 -0.992 -2.359 0.426 c 0 0.336 -0.141 1.156 -0.309 1.828 c -0.281 1.113 -0.266 1.254 0.172 1.594 c 0.742 0.574 1.668 0.445 2.441 -0.34" fill="#90724e"/><path d="m 23.02 38.23 c -5.414 -0.813 -8.684 -3.762 -9.07 -8.188 l -0.152 -1.754 l -1.195 -0.641 c -1.75 -0.938 -2.344 -1.969 -2.441 -4.23 c -0.09 -2.211 0.371 -3.379 1.707 -4.324 c 0.668 -0.473 1.055 -0.574 1.629 -0.434 c 1.699 0.422 1.957 0.324 2.535 -0.941 c 0.297 -0.656 0.859 -1.492 1.242 -1.855 l 0.699 -0.664 l -0.547 0.836 c -0.742 1.141 -0.695 1.66 0.082 0.887 c 0.344 -0.344 0.625 -0.781 0.625 -0.973 c 0 -0.195 0.117 -0.352 0.262 -0.352 c 0.145 0 0.594 -0.262 1 -0.578 c 0.563 -0.438 0.672 -0.656 0.461 -0.922 c -0.207 -0.266 -0.16 -0.391 0.195 -0.512 c 0.254 -0.09 0.832 -0.355 1.281 -0.594 c 0.668 -0.355 0.91 -0.375 1.316 -0.109 c 0.672 0.445 1.254 0.414 1.254 -0.07 c 0 -0.277 0.262 -0.395 0.875 -0.395 c 0.613 0 0.879 0.117 0.879 0.395 c 0 0.484 0.582 0.516 1.254 0.07 c 0.402 -0.266 0.645 -0.246 1.313 0.109 c 0.449 0.238 1.027 0.504 1.285 0.594 c 0.355 0.121 0.398 0.246 0.191 0.512 c -0.211 0.266 -0.125 0.488 0.352 0.926 c 0.34 0.316 0.699 0.574 0.789 0.574 c 0.094 0 0.477 0.387 0.852 0.859 c 0.844 1.063 1.246 0.801 0.492 -0.316 c -0.301 -0.445 -0.438 -0.809 -0.309 -0.809 c 0.34 0 1.531 1.711 1.836 2.629 c 0.32 0.98 0.813 1.176 1.898 0.762 c 0.75 -0.285 0.977 -0.262 1.777 0.195 c 0.504 0.289 1.18 1 1.5 1.582 c 0.484 0.887 0.566 1.367 0.504 2.918 c -0.094 2.234 -0.719 3.305 -2.477 4.25 l -1.152 0.621 l -0.156 1.754 c -0.332 3.742 -3.03 6.762 -6.941 7.766 c -1.328 0.34 -4.57 0.582 -5.641 0.422 m 5.301 -1.824 c 0.496 -0.219 1.086 -0.398 1.309 -0.402 c 0.82 0 3.164 -1.891 3.895 -3.133 c 0.566 -0.965 0.75 -1.648 0.844 -3.098 l 0.117 -1.855 l -1.066 -1.43 c -1 -1.34 -1.051 -1.48 -0.781 -2.27 c 0.156 -0.461 0.285 -1.652 0.285 -2.645 c 0 -1.895 -0.359 -2.82 -1.73 -4.453 c -0.699 -0.836 -2.242 -1.367 -3.277 -1.129 c -0.387 0.09 -1.242 0.688 -1.902 1.328 c -1.211 1.176 -1.473 1.219 -2.066 0.352 c -0.176 -0.262 -0.813 -0.781 -1.41 -1.152 c -1.941 -1.199 -3.664 -0.457 -5.309 2.301 c -0.5 0.836 -0.602 1.352 -0.602 3.02 c 0 1.434 0.109 2.125 0.375 2.41 c 0.523 0.551 0.504 0.605 -0.625 1.949 c -1.121 1.332 -1.391 2.332 -1.152 4.242 c 0.242 1.934 1.145 3.391 2.824 4.555 c 0.797 0.555 1.621 1.012 1.832 1.016 c 0.211 0 0.832 0.176 1.387 0.383 c 1.387 0.531 5.867 0.535 7.06 0.008 m -7.05 -11.785 c -0.836 -0.98 -0.258 -2.922 0.871 -2.922 c 1.121 0 1.691 2.148 0.797 3 c -0.605 0.582 -1.121 0.555 -1.668 -0.082 m 5.297 0.035 c -0.84 -0.98 -0.25 -2.961 0.883 -2.961 c 0.57 0 1.273 0.953 1.273 1.723 c 0 0.797 -0.711 1.723 -1.316 1.723 c -0.234 0 -0.613 -0.215 -0.84 -0.484 m -11.633 0.914 c 0.531 -0.43 0.547 -1.016 0.074 -2.938 c -0.461 -1.875 -0.539 -1.996 -1.289 -1.996 c -0.852 0 -1.75 0.672 -2.102 1.57 c -0.383 0.984 0.047 2.762 0.809 3.324 c 0.672 0.496 1.91 0.516 2.508 0.039 m 22.477 -0.57 c 1.195 -1.438 0.941 -3.094 -0.633 -4.121 c -1.086 -0.707 -1.77 -0.355 -1.977 1.02 c -0.086 0.547 -0.258 1.266 -0.387 1.598 c -0.375 0.969 -0.277 1.551 0.328 1.996 c 0.953 0.703 1.805 0.547 2.668 -0.492 m -15.52 -11.254 c 0 -0.148 -0.227 -0.266 -0.5 -0.266 c -0.277 0 -0.504 0.117 -0.504 0.266 c 0 0.145 0.227 0.262 0.504 0.262 c 0.273 0 0.5 -0.117 0.5 -0.262 m 6.77 0 c 0 -0.148 -0.223 -0.266 -0.5 -0.266 c -0.277 0 -0.5 0.117 -0.5 0.266 c 0 0.145 0.223 0.262 0.5 0.262 c 0.277 0 0.5 -0.117 0.5 -0.262" fill="#8f5f26"/><path d="m 23.02 38.23 c -5.352 -0.805 -8.871 -3.941 -9.02 -8.05 c -0.066 -1.871 -0.137 -1.988 -1.48 -2.617 c -1.617 -0.758 -2.266 -1.898 -2.359 -4.148 c -0.09 -2.211 0.371 -3.379 1.703 -4.324 c 0.68 -0.477 1.051 -0.574 1.633 -0.426 c 0.414 0.109 1.117 0.207 1.566 0.219 c 0.91 0.027 0.93 0.082 0.523 1.516 c -0.23 0.816 -0.219 1.18 0.047 1.754 c 0.184 0.402 0.473 1.262 0.641 1.91 c 0.297 1.148 0.281 1.207 -0.574 2.383 c -0.84 1.156 -0.871 1.281 -0.762 2.957 c 0.219 3.316 1.996 5.613 5.348 6.906 c 2.051 0.789 6.613 0.852 8.629 0.121 c 3.742 -1.359 5.754 -3.992 5.766 -7.539 c 0 -1.219 -0.117 -1.566 -0.855 -2.52 l -0.855 -1.105 l 0.336 -1.371 c 0.184 -0.754 0.461 -1.613 0.613 -1.914 c 0.285 -0.566 0.129 -1.766 -0.309 -2.352 c -0.344 -0.461 -0.051 -0.707 0.902 -0.766 c 0.438 -0.027 1.137 -0.125 1.551 -0.215 c 1.027 -0.223 2.219 0.602 2.898 2.01 c 0.43 0.891 0.52 1.465 0.445 2.863 c -0.117 2.176 -0.934 3.473 -2.613 4.152 c -0.609 0.246 -1.117 0.52 -1.125 0.609 c -0.008 0.09 -0.051 0.895 -0.094 1.789 c -0.168 3.559 -3 6.727 -6.91 7.727 c -1.328 0.344 -4.57 0.586 -5.641 0.422 m -8.02 -12.453 c 0.707 -0.492 0.785 -1.367 0.285 -3.285 c -0.598 -2.313 -1.109 -2.715 -2.828 -2.227 c -0.836 0.238 -1.395 1.773 -1.199 3.316 c 0.277 2.199 2.148 3.297 3.742 2.195 m 22.305 -0.301 c 0.922 -0.977 1.191 -1.816 0.992 -3.105 c -0.23 -1.488 -0.965 -2.262 -2.152 -2.262 c -1.063 0 -1.391 0.41 -1.785 2.25 c -0.547 2.555 -0.523 2.883 0.234 3.375 c 1.035 0.664 1.914 0.582 2.711 -0.258 m -16 -0.816 c -0.609 -0.711 -0.535 -2.047 0.141 -2.551 c 0.719 -0.527 0.844 -0.52 1.449 0.117 c 0.625 0.664 0.648 1.898 0.043 2.48 c -0.598 0.566 -1.121 0.555 -1.633 -0.047 m 5.266 0 c -0.563 -0.66 -0.523 -1.789 0.086 -2.434 c 0.602 -0.637 0.73 -0.648 1.449 -0.117 c 1.043 0.773 0.492 3.035 -0.742 3.035 c -0.207 0 -0.566 -0.219 -0.793 -0.484 m 6.469 -7.488 c -0.09 -0.152 -0.113 -0.336 -0.047 -0.406 c 0.066 -0.07 0.188 0.059 0.27 0.281 c 0.168 0.469 0.023 0.551 -0.223 0.129 m -14.66 -1.043 c 0 -0.148 0.121 -0.266 0.266 -0.266 c 0.148 0 0.199 0.117 0.113 0.266 c -0.086 0.145 -0.207 0.262 -0.266 0.262 c -0.063 0 -0.113 -0.117 -0.113 -0.262 m 13.668 -0.266 c -0.25 -0.293 -0.328 -0.531 -0.172 -0.531 c 0.152 0 0.398 0.238 0.547 0.531 c 0.148 0.289 0.227 0.527 0.172 0.527 c -0.051 0 -0.297 -0.238 -0.547 -0.527 m -12.664 -0.266 c 0 -0.145 0.176 -0.266 0.391 -0.266 c 0.215 0 0.324 0.121 0.238 0.266 c -0.086 0.145 -0.262 0.266 -0.391 0.266 c -0.133 0 -0.238 -0.121 -0.238 -0.266 m 10.156 0 c -0.086 -0.145 -0.043 -0.266 0.094 -0.266 c 0.141 0 0.32 0.121 0.406 0.266 c 0.086 0.145 0.043 0.266 -0.094 0.266 c -0.141 0 -0.32 -0.121 -0.406 -0.266 m -8.199 -0.582 c 0.234 -0.25 0.367 -0.25 0.602 0 c 0.234 0.246 0.168 0.316 -0.301 0.316 c -0.469 0 -0.535 -0.07 -0.301 -0.316 m 6.27 0 c 0.234 -0.25 0.367 -0.25 0.602 0 c 0.234 0.246 0.168 0.316 -0.301 0.316 c -0.469 0 -0.535 -0.07 -0.301 -0.316" fill="#624727"/></svg>