<svg xmlns="http://www.w3.org/2000/svg" xmlns:xlink="http://www.w3.org/1999/xlink" viewBox="0 0 48 48"><defs><g id="U" clip-path="url(#T)"><path d="m 35.414 9.668 c 0 0 -2.926 1.059 -3.832 1.223 c -0.902 0.164 -2.531 0.594 -2.531 0.594 c 0.594 -0.156 1.379 5.828 1.719 6.711 l -0.008 0.035 c 1.422 -0.477 6.176 -0.422 6.551 -1.434 c 0 0 -0.574 -1.961 -0.906 -3.816 c -0.332 -1.859 -0.992 -3.313 -0.992 -3.313" fill="url(#L)"/><path d="m 12.223 16.05 c 0 0 -0.664 1.605 -0.992 3.125 c -0.332 1.52 -0.695 2.91 -0.695 2.91 l 6.105 2.258 l 1.902 -7.453" fill="url(#M)"/><path d="m 12.1 29.05 c 0 0 -0.48 1.293 -0.902 3.066 c -0.422 1.77 -0.605 3.898 -0.605 3.898 c 0 0 0.02 -0.004 0.055 -0.008 c 0.246 -0.035 1.352 -0.152 3.383 0.27 c 2.324 0.484 3.891 0.883 3.891 0.883 l 0.18 -6.688 l -0.094 0.016" fill="url(#N)"/><path d="m 22.809 9.512 c 0 0 -0.395 0.438 -2.652 0.941 c -2.262 0.508 -3.32 0.633 -3.32 0.633 c 0.625 1.895 1.453 3.777 1.719 5.758 l -0.012 0.039 l 5.797 -0.328 l 0.133 0.035 c -0.406 -1.711 -0.938 -6.988 -1.664 -7.07" fill="url(#O)"/><path d="m 23.15 22.547 l -6.469 1.809 l -0.043 -0.012 l -0.016 0.059 l 1.48 5.973 l -0.004 0.094 l 5.965 -0.953 l 0.066 0.027 l 0.004 -0.008 l -0.996 -6.945" fill="url(#P)"/><path d="m 24.473 16.59 c 0.027 0.121 0.059 0.223 0.086 0.305 l -1.406 5.652 l 0.012 -0.004 l 6.246 2.402 l 1.352 -6.715 c -0.043 0.016 -0.086 0.031 -0.121 0.047" fill="url(#Q)"/><path d="m 24.11 29.535 l -1.332 6.141 c 0 0 0.664 0.082 2.715 0.879 c 0.254 0.098 0.5 0.191 0.738 0.281 c 0.238 0.086 0.465 0.164 0.68 0.238 c 1.281 0.445 2.109 0.668 2.109 0.668 l 1.535 -5.742 c -0.063 0.02 -0.125 0.043 -0.184 0.066 l -6.262 -2.535" fill="url(#R)"/><path d="m 35.26 23.18 c -1.891 0.742 -3.824 1.305 -5.797 1.789 l -0.055 -0.023 l 1.148 7.05 l -0.004 0.012 c 2.152 -0.746 4.266 -1.578 6.367 -2.465 c 0 0 -0.063 -0.578 -0.453 -2.531 c -0.395 -1.957 -1.207 -3.828 -1.207 -3.828" fill="url(#S)"/></g><g id="f" clip-path="url(#e)"><path d="m 10.621 9.184 c -0.133 -0.004 -0.238 0 -0.328 0 c -0.051 0 -0.102 0 -0.137 0.004 c -0.004 0 -0.008 0 -0.012 0 c -0.051 0.004 -0.082 0.004 -0.094 0.008 c 0 0 0.906 1.684 1.418 3.582 c 0.516 1.895 0.754 3.273 0.754 3.273 l 6.211 0.836 l 0.113 -0.004 l 0.008 -0.039 c -0.266 -1.98 -1.094 -3.863 -1.719 -5.754 c 0 0 -2.23 -1.215 -3.797 -1.582 c -0.125 -0.027 -0.242 -0.055 -0.363 -0.078 c -0.07 -0.016 -0.141 -0.027 -0.211 -0.043 c -0.027 -0.004 -0.055 -0.008 -0.082 -0.012 c -0.156 -0.027 -0.313 -0.055 -0.461 -0.074 c -0.09 -0.012 -0.168 -0.023 -0.254 -0.031 c -0.082 -0.012 -0.16 -0.02 -0.238 -0.027 c -0.121 -0.012 -0.23 -0.023 -0.336 -0.031 c -0.176 -0.012 -0.336 -0.02 -0.473 -0.023" fill="url(#W)"/><path d="m 10.535 22.09 c 0 0 0.695 2.059 1.117 3.855 c 0.422 1.797 0.449 3.105 0.449 3.105 l 5.906 1.438 l 0.094 -0.016 l 0.004 -0.094 l -1.48 -5.973 l 0.016 -0.059" fill="url(#X)"/><path d="m 24.34 16.555 l -5.789 0.336 h -0.004 l -1.906 7.453 l 0.043 0.012 l 6.469 -1.813 l 1.402 -5.648 c -0.023 -0.082 -0.055 -0.184 -0.082 -0.305 l -0.137 -0.035" fill="url(#Y)"/><path d="m 24.07 29.516 l -5.965 0.953 l -0.18 6.688 c 0 0 1.539 -0.305 2.895 -0.711 c 1.359 -0.406 1.961 -0.77 1.961 -0.77 l 1.355 -6.133" fill="url(#Z)"/><path d="m 22.809 9.512 c 0.727 0.09 1.262 5.367 1.664 7.078 l 6.168 1.688 c 0.039 -0.016 0.078 -0.031 0.121 -0.047 l 0.008 -0.035 c -0.34 -0.883 -1.125 -6.867 -1.719 -6.711 c 0 0 -0.074 -0.035 -0.207 -0.098 c -0.398 -0.188 -1.336 -0.625 -2.445 -1.063 c -1.477 -0.586 -3.59 -0.809 -3.59 -0.809" fill="url(#a)"/><path d="m 23.16 22.543 l -0.012 0.004 l -0.012 0.043 l 0.996 6.816 l -0.027 0.129 l 6.262 2.531 c 0.059 -0.02 0.121 -0.043 0.184 -0.066 v -0.012 l -1.145 -7.04 l -6.25 -2.402" fill="url(#b)"/><path d="m 36.922 29.535 c -2.102 0.887 -4.215 1.719 -6.367 2.465 l -1.535 5.742 c 0 0 1.566 -0.305 3.137 -0.637 c 1.566 -0.336 3.195 -0.926 3.195 -0.926 c 0 0 -0.09 -0.641 0.512 -3.109 c 0.605 -2.465 1.059 -3.535 1.059 -3.535" fill="url(#c)"/><path d="m 37.31 16.797 c -0.375 1.012 -5.129 0.957 -6.551 1.434 l -1.352 6.715 l 0.055 0.02 c 1.973 -0.484 3.906 -1.047 5.797 -1.789 c 0 0 0.211 -1.332 0.813 -3 c 0.605 -1.672 1.238 -3.375 1.238 -3.375" fill="url(#d)"/></g><clipPath id="A"><path d="m 21 14 h 11 v 15 h -11"/></clipPath><clipPath id="D"><path d="m 31 14 h 4 v 3 h -4"/></clipPath><clipPath id="B"><path d="m 21 14 h 7 v 15 h -7"/></clipPath><clipPath id="C"><path d="m 21 14 h 5 v 15 h -5"/></clipPath><clipPath id="E"><path d="m 21 24 h 14 v 5 h -14"/></clipPath><clipPath id="F"><path d="m 21 28 h 14 v 1 h -14"/></clipPath><clipPath id="T"><path d="M 0,0 H48 V48 H0 z"/></clipPath><clipPath id="H"><path d="m 21 23 h 14 v 6 h -14"/></clipPath><clipPath id="e"><path d="M 0,0 H48 V48 H0 z"/></clipPath><clipPath id="G"><path d="m 21 14 h 3 v 15 h -3"/></clipPath><clipPath id="3"><path d="m 20 23 h 15 v 12 h -15"/></clipPath><clipPath id="2"><path d="m 15 12 h 8 v 24 h -8"/></clipPath><clipPath id="0"><path d="m 12 12 h 22 v 24 h -22"/></clipPath><clipPath id="1"><path d="m 12.512 12.75 c 0 0 0.723 1.324 1.133 2.824 c 0.41 1.504 0.602 2.598 0.602 2.598 c 0 0 -0.531 1.297 -0.793 2.52 c -0.266 1.219 -0.555 2.34 -0.555 2.34 c 0 0 0.555 1.629 0.891 3.051 c 0.336 1.426 0.359 2.469 0.359 2.469 c 0 0 -0.383 1.043 -0.723 2.469 c -0.336 1.426 -0.48 3.129 -0.48 3.129 c 0 0 0.891 -0.203 2.746 0.129 c 1.852 0.328 3.105 0.609 3.105 0.609 c 0 0 1.227 -0.281 2.309 -0.637 c 1.086 -0.355 1.566 -0.66 1.566 -0.66 c 0 0 0.531 0.051 2.168 0.637 c 1.637 0.586 2.816 0.863 2.816 0.863 c 0 0 1.25 -0.277 2.504 -0.586 c 1.25 -0.305 2.551 -0.813 2.551 -0.813 c 0 0 -0.07 -0.508 0.41 -2.492 c 0.48 -1.984 0.844 -2.852 0.844 -2.852 c 0 0 -0.051 -0.457 -0.363 -2.01 c -0.313 -1.555 -0.961 -3.03 -0.961 -3.03 c 0 0 0.168 -1.066 0.648 -2.414 c 0.48 -1.352 0.988 -2.723 0.988 -2.723 c 0 0 -0.457 -1.555 -0.723 -3.03 c -0.266 -1.477 -0.797 -2.621 -0.797 -2.621 c 0 0 -2.332 0.914 -3.055 1.066 c -0.723 0.152 -2.023 0.535 -2.023 0.535 c 0 0 -0.938 -0.434 -2.117 -0.863 c -1.18 -0.434 -2.867 -0.563 -2.867 -0.563 c 0 0 -0.313 0.359 -2.117 0.816 c -1.805 0.457 -2.648 0.586 -2.648 0.586 c 0 0 -1.781 -0.918 -3.035 -1.172 c -1.25 -0.254 -2.309 -0.203 -2.383 -0.18"/></clipPath><clipPath id="9"><path d="m 21 14 h 2 v 2 h -2"/></clipPath><clipPath id="8"><path d="m 23 15 h 3 v 3 h -3"/></clipPath><clipPath id="7"><path d="m 21 19 h 14 v 10 h -14"/></clipPath><clipPath id="4"><path d="m 21 14 h 14 v 15 h -14"/></clipPath><clipPath id="5"><path d="m 23.879 26.03 c 2.512 2.656 6.586 2.656 9.1 0 c 2.512 -2.656 2.512 -6.961 0 -9.613 c -2.512 -2.656 -6.586 -2.656 -9.1 0 c -2.516 2.652 -2.516 6.961 0 9.613"/></clipPath><clipPath id="6"><path d="m 10.05 9.195 c 0 0 0.906 1.684 1.418 3.582 c 0.516 1.895 0.754 3.273 0.754 3.273 c 0 0 -0.664 1.605 -0.992 3.125 c -0.332 1.52 -0.695 2.91 -0.695 2.91 c 0 0 0.695 2.059 1.117 3.855 c 0.422 1.797 0.449 3.105 0.449 3.105 c 0 0 -0.48 1.293 -0.902 3.066 c -0.422 1.77 -0.605 3.898 -0.605 3.898 c 0 0 1.117 -0.219 3.438 0.262 c 2.324 0.484 3.891 0.883 3.891 0.883 c 0 0 1.539 -0.305 2.895 -0.711 c 1.359 -0.406 1.961 -0.77 1.961 -0.77 c 0 0 0.664 0.082 2.715 0.879 c 2.051 0.793 3.527 1.188 3.527 1.188 c 0 0 1.566 -0.305 3.137 -0.641 c 1.566 -0.336 3.195 -0.922 3.195 -0.922 c 0 0 -0.09 -0.641 0.512 -3.109 c 0.605 -2.469 1.059 -3.535 1.059 -3.535 c 0 0 -0.063 -0.578 -0.453 -2.531 c -0.395 -1.957 -1.207 -3.828 -1.207 -3.828 c 0 0 0.211 -1.332 0.813 -3 c 0.605 -1.672 1.238 -3.375 1.238 -3.375 c 0 0 -0.574 -1.961 -0.906 -3.816 c -0.332 -1.859 -0.992 -3.313 -0.992 -3.313 c 0 0 -2.926 1.059 -3.832 1.223 c -0.902 0.164 -2.531 0.594 -2.531 0.594 c 0 0 -1.176 -0.578 -2.656 -1.164 c -1.477 -0.586 -3.586 -0.809 -3.586 -0.809 c 0 0 -0.395 0.438 -2.652 0.941 c -2.262 0.508 -3.32 0.633 -3.32 0.633 c 0 0 -2.23 -1.211 -3.797 -1.578 c -1.57 -0.363 -2.895 -0.34 -2.988 -0.313"/></clipPath><filter id="J" filterUnits="objectBoundingBox" x="0" y="0" width="48" height="48"><feColorMatrix type="matrix" in="SourceGraphic" values="0 0 0 0 1 0 0 0 0 1 0 0 0 0 1 0 0 0 1 0"/></filter><linearGradient id="c" gradientUnits="userSpaceOnUse" x1="156" y1="-26.5" x2="208.25" y2="39.75" gradientTransform="matrix(0.12062 0.0036 0 0.12747 8.967 32.08)" xlink:href="#W"/><linearGradient id="Z" gradientUnits="userSpaceOnUse" x1="56.5" y1="-50.44" x2="125.72" y2="7.06" gradientTransform="matrix(0.12062 0.0036 0 0.12747 8.967 32.08)" xlink:href="#W"/><linearGradient id="b" gradientUnits="userSpaceOnUse" x1="57" y1="-141.11" x2="179" y2="-41.609" gradientTransform="matrix(0.12062 0.0036 0 0.12747 8.967 32.08)" xlink:href="#W"/><linearGradient id="a" gradientUnits="userSpaceOnUse" x1="35" y1="-163.3" x2="180.75" y2="-146.8" gradientTransform="matrix(0.12062 0.0036 0 0.12747 8.967 32.08)" xlink:href="#W"/><linearGradient id="d" gradientUnits="userSpaceOnUse" x1="142.75" y1="-169.3" x2="235" y2="-77.3" gradientTransform="matrix(0.12062 0.0036 0 0.12747 8.967 32.08)" xlink:href="#W"/><linearGradient id="Y" gradientUnits="userSpaceOnUse" x1="77.63" y1="-163.12" x2="115.25" y2="-74.62" gradientTransform="matrix(0.12062 0.0036 0 0.12747 8.967 32.08)" xlink:href="#W"/><linearGradient id="k" gradientUnits="userSpaceOnUse" x1="120.81" y1="72.07" x2="115.87" y2="67.13" gradientTransform="matrix(0.38375 0 0 0.40556 -25.847 2.363)" xlink:href="#h"/><linearGradient id="l" gradientUnits="userSpaceOnUse" x1="120.63" y1="87.06" x2="115.87" y2="67.13" gradientTransform="matrix(0.38375 0 0 0.40556 -25.847 2.363)"><stop stop-color="#000" stop-opacity="0.596"/><stop offset="1" stop-color="#000" stop-opacity="0"/></linearGradient><linearGradient id="j" gradientUnits="userSpaceOnUse" x1="114.63" y1="69.35" x2="118.59" y2="73.3" gradientTransform="matrix(0.38375 0 0 0.40556 -25.847 2.363)" xlink:href="#g"/><linearGradient id="h" gradientUnits="userSpaceOnUse" x1="129.49" y1="58.45" x2="127.98" y2="61.38" gradientTransform="matrix(0.38375 0 0 0.40556 -25.847 2.363)"><stop stop-color="#2d3335"/><stop offset="0.5" stop-color="#4c454a"/><stop offset="1" stop-color="#373f42"/></linearGradient><linearGradient id="g" gradientUnits="userSpaceOnUse" x1="98.08" y1="85.9" x2="102.04" y2="89.85" gradientTransform="matrix(0.38375 0 0 0.40556 -25.847 2.363)"><stop stop-color="#f9e295"/><stop offset="0.125" stop-color="#f6dd84"/><stop offset="0.206" stop-color="#fff"/><stop offset="0.301" stop-color="#f4ce51"/><stop offset="0.341" stop-color="#f9e6aa"/><stop offset="1" stop-color="#eeba0d"/></linearGradient><linearGradient id="i" gradientUnits="userSpaceOnUse" x1="126.77" y1="63.64" x2="124.3" y2="61.17" gradientTransform="matrix(0.38375 0 0 0.40556 -25.847 2.363)" xlink:href="#h"/><linearGradient id="N" gradientUnits="userSpaceOnUse" x1="39.5" y1="6.625" x2="75.72" y2="-17.12" gradientTransform="matrix(0.12062 0.0036 0 0.12747 8.967 32.08)" xlink:href="#L"/><linearGradient id="X" gradientUnits="userSpaceOnUse" x1="50.75" y1="-114.44" x2="35.75" y2="-30.438" gradientTransform="matrix(0.12062 0.0036 0 0.12747 8.967 32.08)" xlink:href="#W"/><linearGradient id="P" gradientUnits="userSpaceOnUse" x1="117.75" y1="-78.09" x2="63.5" y2="-14.75" gradientTransform="matrix(0.12062 0.0036 0 0.12747 8.967 32.08)" xlink:href="#L"/><linearGradient id="M" gradientUnits="userSpaceOnUse" x1="53.25" y1="-126.5" x2="57.656" y2="-62.47" gradientTransform="matrix(0.12062 0.0036 0 0.12747 8.967 32.08)" xlink:href="#L"/><linearGradient id="I" gradientUnits="userSpaceOnUse" x1="210.17" y1="264.06" x2="9" y2="-21.25" gradientTransform="matrix(0.12062 0.0036 0 0.12747 8.967 7.602)"><stop stop-color="#000" stop-opacity="0.039"/><stop offset="1" stop-color="#000" stop-opacity="0"/></linearGradient><linearGradient id="L" gradientUnits="userSpaceOnUse" x1="214.25" y1="-161.36" x2="166.5" y2="-113.72" gradientTransform="matrix(0.12062 0.0036 0 0.12747 8.967 32.08)"><stop stop-color="#fff"/><stop offset="1" stop-color="#fff" stop-opacity="0"/></linearGradient><linearGradient id="O" gradientUnits="userSpaceOnUse" x1="102" y1="-162.34" x2="85.31" y2="-121.44" gradientTransform="matrix(0.12062 0.0036 0 0.12747 8.967 32.08)" xlink:href="#L"/><linearGradient id="W" gradientUnits="userSpaceOnUse" x1="94.25" y1="-94.67" x2="9" y2="-179.97" gradientTransform="matrix(0.12062 0.0036 0 0.12747 8.967 32.08)"><stop stop-color="#000"/><stop offset="1" stop-color="#000" stop-opacity="0"/></linearGradient><linearGradient id="S" gradientUnits="userSpaceOnUse" x1="213.5" y1="-76" x2="181.75" y2="-5.656" gradientTransform="matrix(0.12062 0.0036 0 0.12747 8.967 32.08)" xlink:href="#L"/><linearGradient id="Q" gradientUnits="userSpaceOnUse" x1="180.69" y1="-125.12" x2="133.94" y2="-60.75" gradientTransform="matrix(0.12062 0.0036 0 0.12747 8.967 32.08)" xlink:href="#L"/><linearGradient id="R" gradientUnits="userSpaceOnUse" x1="170.75" y1="-23.5" x2="130.22" y2="33.375" gradientTransform="matrix(0.12062 0.0036 0 0.12747 8.967 32.08)" xlink:href="#L"/><mask id="V"><g filter="url(#J)"><path fill-opacity="0.043" d="M 0,0 H48 V48 H0 z"/></g></mask><mask id="K"><g filter="url(#J)"><path fill-opacity="0.271" d="M 0,0 H48 V48 H0 z"/></g></mask><radialGradient id="m" gradientUnits="userSpaceOnUse" cx="128" cy="86" r="47" gradientTransform="matrix(0.09708 0.1023 0.09708 -0.1023 7.666 16.895)"><stop stop-color="#cfe8f2" stop-opacity="0"/><stop offset="0.839" stop-color="#cfe8f2" stop-opacity="0"/><stop offset="0.943" stop-color="#cfe8f2" stop-opacity="0.282"/><stop offset="1" stop-color="#cfe8f2"/></radialGradient></defs><path d="m 6.313 40.578 c -27.22 -41.543 47.13 -57.62 41.21 -14.883 c -2.414 17.43 -30.793 30.777 -41.21 14.883" fill="#e54004"/><path d="m 12.199 12.906 c 0 0 0.789 1.324 1.238 2.824 c 0.445 1.5 0.656 2.598 0.656 2.598 c 0 0 -0.578 1.297 -0.867 2.516 c -0.289 1.223 -0.605 2.344 -0.605 2.344 c 0 0 0.605 1.629 0.973 3.051 c 0.371 1.426 0.395 2.469 0.395 2.469 c 0 0 -0.422 1.043 -0.789 2.469 c -0.367 1.426 -0.527 3.129 -0.527 3.129 c 0 0 0.977 -0.203 3 0.129 c 2.027 0.328 3.395 0.609 3.395 0.609 c 0 0 1.344 -0.281 2.531 -0.637 c 1.184 -0.355 1.711 -0.66 1.711 -0.66 c 0 0 0.578 0.051 2.371 0.637 c 1.789 0.582 3.082 0.863 3.082 0.863 c 0 0 1.367 -0.281 2.738 -0.586 c 1.367 -0.305 2.789 -0.816 2.789 -0.816 c 0 0 -0.078 -0.508 0.449 -2.492 c 0.527 -1.984 0.922 -2.852 0.922 -2.852 c 0 0 -0.051 -0.457 -0.395 -2.01 c -0.344 -1.555 -1.055 -3.03 -1.055 -3.03 c 0 0 0.184 -1.07 0.711 -2.418 c 0.527 -1.348 1.082 -2.723 1.082 -2.723 c 0 0 -0.5 -1.551 -0.789 -3.03 c -0.293 -1.477 -0.871 -2.621 -0.871 -2.621 c 0 0 -2.555 0.918 -3.344 1.07 c -0.793 0.152 -2.215 0.531 -2.215 0.531 c 0 0 -1.027 -0.43 -2.316 -0.863 c -1.289 -0.434 -3.133 -0.559 -3.133 -0.559 c 0 0 -0.344 0.355 -2.32 0.813 c -1.973 0.457 -2.895 0.586 -2.895 0.586 c 0 0 -1.949 -0.914 -3.32 -1.172 c -1.367 -0.254 -2.527 -0.203 -2.605 -0.176" fill="#ceedab"/><g clip-path="url(#0)"><g clip-path="url(#1)"><path d="m 22.313 12.07 l -0.41 0.711 c -0.074 0.914 -0.219 1.398 -0.82 1.68 c -0.602 0.277 -1.18 0.355 -1.059 0.762 c 0.121 0.406 1.254 0.941 1.371 1.324 c 0.121 0.383 0.797 0.18 1.063 0.711 c 0.262 0.535 0.191 1.555 -0.363 1.758 c -0.555 0.203 -1.684 0.051 -1.949 0.965 c -0.266 0.918 -0.457 1.07 -0.867 1.297 c -0.41 0.23 -0.699 1.07 -0.336 1.68 c 0.359 0.613 1.18 -0.125 1.445 -0.66 c 0.262 -0.535 0.695 -0.891 0.695 -0.891 h 2.289 l 5.68 -0.18 l 0.313 -0.379 c 0 0 0.313 0.406 0.266 0.891 c -0.047 0.48 -0.359 1.5 0.023 1.754 c 0.387 0.254 1.879 -0.203 2.313 -0.711 c 0.434 -0.512 -0.457 -2.875 -1.012 -3 c -0.555 -0.125 -1.781 -0.176 -1.637 -0.711 c 0.145 -0.535 1.133 0.457 1.66 0.328 c 0.531 -0.125 1.613 -2.137 1.156 -2.566 c -0.457 -0.434 -2.336 -0.535 -2.48 -0.816 c -0.145 -0.281 2.023 -0.813 2.145 -1.117 c 0.121 -0.309 -0.242 -0.738 -0.602 -0.867 c -0.363 -0.125 -1.348 1.652 -2.023 1.602 c -0.676 -0.051 -1.926 0.586 -1.66 1.172 c 0.266 0.586 -0.578 1.121 -1.398 0.66 c -0.816 -0.457 -2.383 -1.32 -2.094 -2.441 c 0.289 -1.117 2.07 -1.906 2.07 -1.906 m -5.086 9.867 c -0.152 0.016 -0.43 0.477 -0.473 0.715 c -0.051 0.254 -0.316 0.688 -0.34 1.246 c -0.023 0.563 0.457 0.688 0.844 0.664 c 0.387 -0.027 0.266 -0.688 0.191 -1.527 c -0.023 0 -0.047 -1.043 -0.191 -1.094 c -0.008 -0.004 -0.02 -0.004 -0.031 -0.004 m 8.93 5.258 c -0.609 0.031 -0.637 0.758 -0.715 0.902 c -0.117 0.23 0.219 1.398 0.195 1.832 c -0.023 0.434 -0.457 0.535 -0.914 0.992 c -0.461 0.457 0.047 1.629 1.082 3.156 l 4.309 0.125 l -0.098 -3.563 c 0 0 0.461 -0.43 -1.996 -2.465 c -0.922 -0.766 -1.496 -1 -1.863 -0.98 m -14.441 1.68 c -0.387 -0.008 -0.797 0.582 -0.934 0.773 c -0.145 0.203 -0.602 0.512 -1.637 0.969 l -1.398 3.484 l 5.105 0.434 c 0 0 0.168 -1.121 -0.41 -1.605 c -0.578 -0.48 -1.66 -0.582 -1.758 -1.348 c -0.094 -0.762 0.891 -1.016 1.324 -1.449 c 0.434 -0.434 0.195 -1.145 -0.215 -1.246 c -0.027 -0.008 -0.055 -0.008 -0.078 -0.012" fill="#a5dd8b"/></g></g><path d="m 26.91 20.19 c -0.457 -0.004 -0.867 0.098 -1.109 0.32 c -0.77 0.711 -3.371 0.078 -4.672 0.711 c -1.301 0.637 -1.273 3.867 -1.418 4.531 c -0.145 0.66 -1.688 2.109 -1.926 2.391 c -0.242 0.281 -1.277 0.738 -1.879 0.863 c -0.602 0.129 -1.227 0.738 -1.492 1.121 c -0.195 0.281 -0.715 0.656 -0.977 0.836 c -0.004 0.02 -0.008 0.035 -0.012 0.055 c -0.012 0.055 -0.023 0.109 -0.035 0.164 c 0.48 -0.164 1.074 -0.832 1.602 -1.387 c 0.602 -0.633 1.926 -0.789 2.672 -1.168 c 0.746 -0.383 1.371 -2.01 2.551 -2.418 c 1.18 -0.406 2.047 1.195 2.336 1.883 c 0.289 0.688 0.168 1.297 0.359 1.73 c 0.195 0.434 1.063 1.195 1.109 1.375 c 0.047 0.176 -0.48 0.66 -0.602 0.863 c -0.121 0.203 -1.012 0.711 -1.133 0.891 c -0.094 0.137 -0.184 0.688 -0.223 0.938 c 0.039 -0.016 0.074 -0.031 0.109 -0.047 c 0.047 -0.258 0.145 -0.723 0.281 -0.867 c 0.195 -0.203 1.086 -0.457 1.203 -0.863 c 0.121 -0.406 0.676 -0.66 0.676 -0.66 c 0 0 0.266 0.402 1.543 1.422 c 0.852 0.68 1.23 1.582 1.387 2.109 c 0.066 0.02 0.148 0.043 0.195 0.055 c -0.117 -0.441 -0.465 -1.652 -0.859 -2.113 c -0.48 -0.559 -1.781 -1.094 -2.191 -2.238 c -0.41 -1.145 -2.359 -3.484 -1.684 -4.098 c 0.672 -0.609 1.586 -0.402 2.742 0.766 c 1.156 1.172 4.453 0.586 5.563 0.383 c 0.957 -0.176 2.01 1.512 2.301 2.648 c 0.059 -0.215 0.109 -0.406 0.16 -0.586 c -0.168 -0.195 -0.355 -0.469 -0.512 -0.844 c -0.359 -0.863 -1.152 -1.348 -1.152 -1.348 c 0 0 0.84 -0.508 1.418 -0.789 c 0.156 -0.074 0.289 -0.172 0.402 -0.27 c -0.016 -0.078 -0.023 -0.129 -0.039 -0.215 c -0.004 -0.016 -0.008 -0.027 -0.012 -0.043 c -0.457 0.566 -1.852 0.977 -2.086 1.113 c -0.262 0.152 -1.758 0.305 -3.441 0.457 c -1.684 0.152 -2.574 -0.762 -3.297 -1.5 c -0.723 -0.738 -1.254 -3.664 -0.289 -3.867 c 0.961 -0.203 1.926 1.398 2.887 1.73 c 0.965 0.328 2.07 -1.605 1.902 -2.75 c -0.117 -0.785 -1.348 -1.285 -2.355 -1.289 m -5.141 1.355 c 0.125 0 0.566 0.16 0.633 0.242 c 0.219 0.254 0.191 0.738 0 0.813 c -0.191 0.078 -1.227 0.816 -1.012 1.453 c 0.219 0.633 0.168 1.832 -0.336 1.832 c -0.504 0 -0.773 0 -0.965 -0.254 c -0.191 -0.258 -0.191 -1.223 0 -2.01 c 0.195 -0.789 0.34 -1.527 0.773 -1.859 c 0.297 -0.227 0.637 -0.215 0.91 -0.215 m 1.305 7.438 c 0.02 0 0.184 0.359 0.457 0.715 c 0.289 0.383 0.313 0.84 0.313 0.84 c 0 0 -0.41 -0.484 -0.578 -0.816 c -0.168 -0.328 -0.191 -0.734 -0.191 -0.734 c 0 -0.004 0 -0.004 0 -0.004" fill="#aac2e6"/><g stroke-opacity="0.388" fill="none" stroke="#6c7f42" stroke-linejoin="round" stroke-linecap="round" stroke-width="0.251" transform="matrix(0.38375 0 0 0.40556 -25.847 2.363)"><path d="m 128.5 40.677 c 1.568 0.125 3.074 -0.568 2.697 -1.637 c -0.377 -1.059 -3.135 -1.82 -3.318 -0.751 c -0.193 1.069 0.499 2.639 0.621 2.389"/><path d="m 124.99 36.786 c -2.127 -1.377 -2.127 -1.82 -1.751 -2.01 c 0.377 -0.183 2.565 1.252 3.196 2.01 c 0.631 0.751 -0.56 0.501 -1.445 0"/></g><g clip-path="url(#2)"><g clip-path="url(#1)"><path d="m 57.75 19.987 l -8.518 28.25 l 18.01 6.256 l 7.748 36.27 l -20.971 22.22 l 8.965 10.517 l -11.966 11.476 l 0.487 4.529 l 20.241 24.488 l 13.995 -6.755 l 20.525 18.5 l -10.506 28.25 l 10.222 8.521 l -2.718 12.973" transform="matrix(0.0963 0 0 0.10177 11.646 11.505)" fill="none" stroke="#d28484" stroke-linecap="round" stroke-width="2"/></g></g><g clip-path="url(#3)"><g clip-path="url(#1)"><path d="m 105.74 212.25 l 12.494 -27.751 l 11.03 -6.986 l 27.502 15.737 l 20.485 -3.762 l -0.243 -15.737 l -10.263 -5.988 l 12.737 -26.25 l 5.76 -3.762 l 38.738 -9.98" transform="matrix(0.0963 0 0 0.10177 11.646 11.505)" fill="none" stroke="#d28484" stroke-linecap="round" stroke-width="2"/></g></g><g clip-path="url(#4)"><g clip-path="url(#5)"><path d="m 10.05 9.195 c 0 0 0.906 1.684 1.418 3.582 c 0.516 1.895 0.754 3.273 0.754 3.273 c 0 0 -0.664 1.605 -0.992 3.125 c -0.332 1.52 -0.695 2.91 -0.695 2.91 c 0 0 0.695 2.059 1.117 3.855 c 0.422 1.797 0.449 3.105 0.449 3.105 c 0 0 -0.48 1.293 -0.902 3.066 c -0.422 1.77 -0.605 3.898 -0.605 3.898 c 0 0 1.117 -0.219 3.438 0.262 c 2.324 0.484 3.891 0.883 3.891 0.883 c 0 0 1.539 -0.305 2.895 -0.711 c 1.359 -0.406 1.961 -0.77 1.961 -0.77 c 0 0 0.664 0.082 2.715 0.879 c 2.051 0.793 3.527 1.188 3.527 1.188 c 0 0 1.566 -0.305 3.137 -0.641 c 1.566 -0.336 3.195 -0.922 3.195 -0.922 c 0 0 -0.09 -0.641 0.512 -3.109 c 0.605 -2.469 1.059 -3.535 1.059 -3.535 c 0 0 -0.063 -0.578 -0.453 -2.531 c -0.395 -1.957 -1.207 -3.828 -1.207 -3.828 c 0 0 0.211 -1.332 0.813 -3 c 0.605 -1.672 1.238 -3.375 1.238 -3.375 c 0 0 -0.574 -1.961 -0.906 -3.816 c -0.332 -1.859 -0.992 -3.313 -0.992 -3.313 c 0 0 -2.926 1.059 -3.832 1.223 c -0.902 0.164 -2.531 0.594 -2.531 0.594 c 0 0 -1.176 -0.578 -2.656 -1.164 c -1.477 -0.586 -3.586 -0.809 -3.586 -0.809 c 0 0 -0.395 0.438 -2.652 0.941 c -2.262 0.508 -3.32 0.633 -3.32 0.633 c 0 0 -2.23 -1.211 -3.797 -1.578 c -1.57 -0.363 -2.895 -0.34 -2.988 -0.313" fill="#ceedab"/><g clip-path="url(#6)"><path d="m 22.324 8.703 l -0.512 0.875 c -0.09 1.145 -0.27 1.746 -1.023 2.074 c -0.754 0.328 -1.48 0.402 -1.328 0.914 c 0.152 0.516 1.566 1.227 1.719 1.711 c 0.152 0.48 0.996 0.254 1.328 0.93 c 0.332 0.68 0.238 1.953 -0.453 2.188 c -0.695 0.234 -2.113 0 -2.441 1.137 c -0.332 1.137 -0.574 1.32 -1.086 1.594 c -0.516 0.27 -0.875 1.313 -0.422 2.09 c 0.449 0.777 1.477 -0.113 1.809 -0.773 c 0.332 -0.66 0.875 -1.09 0.875 -1.09 l 2.863 0.086 l 7.117 -0.012 l 0.391 -0.465 c 0 0 0.391 0.52 0.332 1.125 c -0.059 0.602 -0.453 1.867 0.031 2.199 c 0.48 0.332 2.352 -0.184 2.895 -0.805 c 0.543 -0.621 -0.574 -3.617 -1.266 -3.801 c -0.695 -0.18 -2.234 -0.289 -2.051 -0.953 c 0.18 -0.664 1.418 0.617 2.078 0.477 c 0.664 -0.137 2.023 -2.617 1.449 -3.176 c -0.574 -0.559 -2.926 -0.754 -3.105 -1.109 c -0.184 -0.359 2.531 -0.945 2.684 -1.324 c 0.148 -0.379 -0.301 -0.934 -0.754 -1.105 c -0.453 -0.172 -1.688 2.02 -2.535 1.934 c -0.844 -0.09 -2.41 0.66 -2.078 1.402 c 0.332 0.742 -0.727 1.379 -1.75 0.777 c -1.023 -0.605 -2.984 -1.746 -2.625 -3.141 c 0.363 -1.391 2.594 -2.313 2.594 -2.313 m -6.367 12.172 c -0.195 0.012 -0.539 0.582 -0.598 0.879 c -0.059 0.316 -0.391 0.848 -0.422 1.551 c -0.031 0.699 0.574 0.875 1.055 0.859 c 0.484 -0.02 0.332 -0.852 0.242 -1.906 c -0.031 0 -0.059 -1.309 -0.242 -1.379 c -0.012 -0.004 -0.023 -0.004 -0.035 -0.004 m 11.184 6.918 c -0.766 0.016 -0.801 0.93 -0.895 1.105 c -0.152 0.281 0.27 1.762 0.242 2.301 c -0.031 0.543 -0.574 0.652 -1.148 1.211 c -0.57 0.555 0.063 2.039 1.359 3.992 l 5.395 0.32 l -0.117 -4.465 c 0 0 0.57 -0.527 -2.504 -3.168 c -1.152 -0.988 -1.875 -1.305 -2.332 -1.297 m -18.09 1.566 c -0.488 -0.027 -1 0.699 -1.168 0.934 c -0.184 0.25 -0.754 0.617 -2.051 1.152 l -1.75 4.313 l 6.395 0.73 c 0 0 0.211 -1.395 -0.516 -2.02 c -0.723 -0.629 -2.078 -0.797 -2.199 -1.758 c -0.121 -0.957 1.113 -1.238 1.656 -1.766 c 0.543 -0.527 0.242 -1.426 -0.27 -1.57 c -0.031 -0.008 -0.066 -0.012 -0.098 -0.016" fill="#a5dd8b"/></g></g></g><g clip-path="url(#7)"><g clip-path="url(#5)"><path d="m 28.09 19.05 c -0.574 -0.02 -1.09 0.09 -1.391 0.363 c -0.965 0.863 -4.223 -0.031 -5.852 0.715 c -1.629 0.75 -1.598 4.797 -1.777 5.621 c -0.184 0.824 -2.113 2.582 -2.414 2.922 c -0.301 0.344 -1.598 0.879 -2.352 1.016 c -0.754 0.137 -1.539 0.879 -1.871 1.344 c -0.242 0.344 -0.891 0.797 -1.219 1.012 c -0.008 0.023 -0.012 0.047 -0.016 0.066 c -0.016 0.07 -0.031 0.141 -0.047 0.207 c 0.602 -0.188 1.348 -1 2.01 -1.676 c 0.754 -0.773 2.41 -0.918 3.344 -1.367 c 0.938 -0.449 1.719 -2.465 3.199 -2.93 c 1.477 -0.469 2.563 1.574 2.926 2.445 c 0.359 0.871 0.211 1.629 0.449 2.18 c 0.242 0.547 1.328 1.535 1.387 1.762 c 0.063 0.227 -0.602 0.809 -0.754 1.063 c -0.148 0.25 -1.266 0.852 -1.414 1.07 c -0.117 0.168 -0.234 0.859 -0.281 1.168 c 0.051 -0.02 0.09 -0.035 0.137 -0.055 c 0.059 -0.32 0.184 -0.898 0.355 -1.074 c 0.238 -0.246 1.355 -0.531 1.508 -1.039 c 0.148 -0.504 0.844 -0.801 0.844 -0.801 c 0 0 0.332 0.52 1.93 1.84 c 1.066 0.883 1.539 2.027 1.738 2.695 c 0.078 0.023 0.184 0.055 0.242 0.074 c -0.145 -0.555 -0.582 -2.09 -1.078 -2.68 c -0.602 -0.719 -2.23 -1.434 -2.742 -2.887 c -0.512 -1.449 -2.957 -4.453 -2.109 -5.191 c 0.844 -0.738 1.988 -0.449 3.438 1.059 c 1.445 1.508 5.578 0.898 6.965 0.688 c 1.199 -0.188 2.512 1.969 2.883 3.402 c 0.07 -0.266 0.137 -0.508 0.199 -0.727 c -0.211 -0.254 -0.445 -0.602 -0.641 -1.074 c -0.453 -1.098 -1.449 -1.734 -1.449 -1.734 c 0 0 1.059 -0.605 1.781 -0.934 c 0.195 -0.09 0.363 -0.203 0.504 -0.324 c -0.02 -0.098 -0.031 -0.16 -0.051 -0.27 c -0.004 -0.016 -0.008 -0.035 -0.012 -0.055 c -0.574 0.691 -2.32 1.156 -2.613 1.316 c -0.332 0.18 -2.199 0.316 -4.313 0.445 c -2.109 0.129 -3.227 -1.051 -4.129 -2 c -0.906 -0.949 -1.57 -4.637 -0.363 -4.855 c 1.207 -0.219 2.414 1.824 3.617 2.277 c 1.207 0.449 2.594 -1.934 2.383 -3.371 c -0.145 -0.992 -1.688 -1.66 -2.949 -1.703 m -6.434 1.5 c 0.152 0.008 0.707 0.227 0.789 0.328 c 0.273 0.328 0.242 0.93 0 1.02 c -0.238 0.09 -1.535 0.973 -1.266 1.777 c 0.273 0.805 0.211 2.301 -0.422 2.285 c -0.633 -0.02 -0.965 -0.031 -1.207 -0.355 c -0.242 -0.328 -0.242 -1.539 0 -2.52 c 0.242 -0.98 0.422 -1.898 0.965 -2.297 c 0.375 -0.273 0.801 -0.246 1.141 -0.238 m 1.637 9.367 c 0.027 0.004 0.23 0.457 0.57 0.914 c 0.363 0.488 0.391 1.063 0.391 1.063 c 0 0 -0.512 -0.621 -0.723 -1.043 c -0.211 -0.418 -0.242 -0.93 -0.242 -0.93 c 0 -0.004 0.004 -0.004 0.004 -0.004" fill="#aac2e6"/></g></g><g clip-path="url(#8)"><g clip-path="url(#5)"><path d="m 122.75 72.25 c 6.25 0.498 12.242 -2.246 10.752 -6.494 c -1.522 -4.247 -12.501 -7.247 -13.246 -2.997 c -0.745 4.25 1.976 10.486 2.494 9.491" transform="matrix(0.12062 0.0036 0 0.12747 8.967 7.602)" stroke-opacity="0.388" fill="none" stroke="#6c7f42" stroke-linejoin="round" stroke-linecap="round"/></g></g><g clip-path="url(#9)"><g clip-path="url(#5)"><path d="m 108.76 56.739 c -8.517 -5.49 -8.517 -7.237 -7.03 -7.983 c 1.522 -0.748 10.266 4.981 12.76 8.01 c 2.494 2.994 -2.235 1.994 -5.732 -0.022" transform="matrix(0.12062 0.0036 0 0.12747 8.967 7.602)" stroke-opacity="0.388" fill="none" stroke="#6c7f42" stroke-linejoin="round" stroke-linecap="round"/></g></g><g clip-path="url(#A)"><g clip-path="url(#5)"><g clip-path="url(#6)"><path d="m 17.501 177.24 c 18.233 -9.984 28.758 -8.474 35.01 -11.5 c 6.25 -2.996 13.246 -5.737 15.739 -9.485 c 2.494 -3.748 5.765 -11.501 5.765 -17.998 c 0 -6.497 -3.53 -35.999 3.239 -43.514 c 6.736 -7.484 17.261 -25.984 26.01 -23.23 c 8.744 2.725 12.242 9.736 21.99 9.491 c 9.748 -0.245 21.763 -4.02 24.26 -12.238 c 2.494 -8.252 -15.739 -16.01 -15.998 -23.02 c -0.259 -6.98 5.506 -14.252 20.241 -16.997 c 14.768 -2.746 23.512 -11.482 23.512 -11.482" transform="matrix(0.12062 0.0036 0 0.12747 8.967 7.602)" stroke-opacity="0.388" fill="none" stroke="#6c7f42"/></g></g></g><g clip-path="url(#B)"><g clip-path="url(#5)"><g clip-path="url(#6)"><path d="m 14.49 160.99 c 15.254 -1.473 22.249 3.508 31.511 1.776 c 9.262 -1.763 13.246 -3.01 17.747 -5.772 c 4.502 -2.732 5.991 -3.755 6.25 -6.489 c 0.259 -2.765 1 -12.501 -3.01 -22.01 c -3.983 -9.479 -12.501 -31.486 -8.226 -38.747 c 4.243 -7.26 5.246 -21.507 15.739 -24.5 c 10.493 -2.993 20.986 -6.231 27.754 -1.244 c 6.736 4.989 12.76 14.257 19.982 14.512 c 7.254 0.224 11.756 -1.527 14.509 -4.516 c 2.753 -2.989 4.502 -10.24 1.749 -13.747 c -2.753 -3.508 -15.48 -5.508 -17.229 -9.503 c -1.749 -3.996 -10.752 -17.01 -0.259 -26.745 c 10.493 -9.766 36.24 -8.256 36.24 -8.256" transform="matrix(0.12062 0.0036 0 0.12747 8.967 7.602)" stroke-opacity="0.388" fill="none" stroke="#6c7f42" stroke-linejoin="round" stroke-linecap="round"/></g></g></g><g clip-path="url(#C)"><g clip-path="url(#5)"><g clip-path="url(#6)"><path d="m 21.258 158.99 c 13.731 1.022 21.504 4.265 33.487 -0.486 c 12.02 -4.752 13.505 -5.254 13.764 -8.755 c 0.227 -3.5 -0.259 -15.744 -3.01 -19.987 c -2.753 -4.274 -12.987 -13.76 -15.739 -24.25 c -2.753 -10.494 0.227 -41.01 8.485 -48.26 c 8.258 -7.251 31.997 -7.247 37.502 -10.498 c 5.506 -3.251 5.246 -16.757 13.02 -24.485 c 7.74 -7.757 26.977 -12.254 26.977 -12.254" transform="matrix(0.12062 0.0036 0 0.12747 8.967 7.602)" stroke-opacity="0.388" fill="none" stroke="#6c7f42" stroke-linejoin="round" stroke-linecap="round"/></g></g></g><g clip-path="url(#D)"><g clip-path="url(#5)"><g clip-path="url(#6)"><path d="m 189.99 18.498 c 11.756 5 39.02 9.746 47.25 40.25" transform="matrix(0.12062 0.0036 0 0.12747 8.967 7.602)" stroke-opacity="0.388" fill="none" stroke="#6c7f42" stroke-linejoin="round" stroke-linecap="round"/></g></g></g><g clip-path="url(#E)"><g clip-path="url(#5)"><g clip-path="url(#6)"><path d="m 9.761 214.01 c 18.978 -12.518 35.98 -1.262 48.999 -4.02 c 12.987 -2.757 38.25 -37.24 45.987 -37 c 7.74 0.272 5.506 -11.739 8.517 -13.234 c 2.979 -1.524 5.473 6 11.724 8 c 6.25 1.999 24.516 -2.776 23.512 -5.751 c -1 -3.01 -6.995 -7.77 -5.506 -8.517 c 1.49 -0.747 8.517 5 12.76 3.501 c 4.243 -1.499 43.753 -0.991 48.48 -13.505 c 4.761 -12.484 21.504 -13.478 21.504 -13.478" transform="matrix(0.12062 0.0036 0 0.12747 8.967 7.602)" stroke-opacity="0.388" fill="none" stroke="#6c7f42" stroke-linejoin="round" stroke-linecap="round"/></g></g></g><g clip-path="url(#F)"><g clip-path="url(#5)"><g clip-path="url(#6)"><path d="m 77.51 233.49 c 13.472 -11.474 23.25 -24.988 28.499 -26.975 c 5.246 -2.02 12.728 -3.761 15.739 -8.01 c 3.01 -4.253 2.494 -10.735 5.246 -12.01 c 2.753 -1.242 3.757 5.747 8.744 6 c 5.02 0.257 36.758 -4.992 42.749 -11.749 c 6.02 -6.759 32.26 -12.495 32.515 -14.494 c 0.259 -1.999 -1 -4.752 0.259 -5.493 c 1.231 -0.77 24.743 -6 24.743 -6" transform="matrix(0.12062 0.0036 0 0.12747 8.967 7.602)" stroke-opacity="0.388" fill="none" stroke="#6c7f42" stroke-linejoin="round" stroke-linecap="round"/></g></g></g><g clip-path="url(#G)"><g clip-path="url(#5)"><g clip-path="url(#6)"><path d="m 57.757 19.997 l -8.517 28.25 l 18.01 6.264 l 7.74 36.25 l -20.986 22.23 l 9 10.502 l -12.02 11.525 l 0.518 4.49 l 20.241 24.495 l 13.991 -6.739 l 20.5 18.482 l -10.493 28.27 l 10.266 8.474 l -2.753 13.01" transform="matrix(0.12062 0.0036 0 0.12747 8.967 7.602)" fill="none" stroke="#d28484" stroke-linecap="round" stroke-width="2"/></g></g></g><g clip-path="url(#H)"><g clip-path="url(#5)"><g clip-path="url(#6)"><path d="m 105.75 212.25 l 12.501 -27.749 l 11.01 -6.992 l 27.495 15.74 l 20.5 -3.766 l -0.259 -15.744 l -10.266 -5.992 l 12.76 -26.25 l 5.765 -3.748 l 38.733 -9.981" transform="matrix(0.12062 0.0036 0 0.12747 8.967 7.602)" fill="none" stroke="#d28484" stroke-linecap="round" stroke-width="2"/></g></g></g><g clip-path="url(#4)"><g clip-path="url(#5)"><path d="m 10.05 9.195 c 0 0 0.906 1.684 1.418 3.582 c 0.516 1.895 0.754 3.273 0.754 3.273 c 0 0 -0.664 1.605 -0.992 3.125 c -0.332 1.52 -0.695 2.91 -0.695 2.91 c 0 0 0.695 2.059 1.117 3.855 c 0.422 1.797 0.449 3.105 0.449 3.105 c 0 0 -0.48 1.293 -0.902 3.066 c -0.422 1.77 -0.605 3.898 -0.605 3.898 c 0 0 1.117 -0.219 3.438 0.262 c 2.324 0.484 3.891 0.883 3.891 0.883 c 0 0 1.539 -0.305 2.895 -0.711 c 1.359 -0.406 1.961 -0.77 1.961 -0.77 c 0 0 0.664 0.082 2.715 0.879 c 2.051 0.793 3.527 1.188 3.527 1.188 c 0 0 1.566 -0.305 3.137 -0.641 c 1.566 -0.336 3.195 -0.922 3.195 -0.922 c 0 0 -0.09 -0.641 0.512 -3.109 c 0.605 -2.469 1.059 -3.535 1.059 -3.535 c 0 0 -0.063 -0.578 -0.453 -2.531 c -0.395 -1.957 -1.207 -3.828 -1.207 -3.828 c 0 0 0.211 -1.332 0.813 -3 c 0.605 -1.672 1.238 -3.375 1.238 -3.375 c 0 0 -0.574 -1.961 -0.906 -3.816 c -0.332 -1.859 -0.992 -3.313 -0.992 -3.313 c 0 0 -2.926 1.059 -3.832 1.223 c -0.902 0.164 -2.531 0.594 -2.531 0.594 c 0 0 -1.176 -0.578 -2.656 -1.164 c -1.477 -0.586 -3.586 -0.809 -3.586 -0.809 c 0 0 -0.395 0.438 -2.652 0.941 c -2.262 0.508 -3.32 0.633 -3.32 0.633 c 0 0 -2.23 -1.211 -3.797 -1.578 c -1.57 -0.363 -2.895 -0.34 -2.988 -0.313" fill="url(#I)"/><use xlink:href="#U" mask="url(#K)"/><use xlink:href="#f" mask="url(#V)"/></g></g><path d="m 16.27 35.672 l -0.461 0.465 c -0.484 -0.543 -0.988 -1.09 -1.453 -1.645 l 0.434 -0.414 c 0.656 0.664 0.852 0.867 1.48 1.594" fill="url(#g)"/><path d="m 21.938 20.973 c 0 3.934 2.926 7.121 6.531 7.121 c 3.609 0 6.531 -3.188 6.531 -7.121" fill="#fdfdfd"/><path d="m 34.98 21.15 c 0 -3.805 -2.926 -6.887 -6.531 -6.887 c -3.609 0 -6.531 3.082 -6.531 6.887" fill="#e10"/><path d="m 23.688 26.23 c -2.617 -2.766 -2.617 -7.25 0 -10.02 c 2.617 -2.766 6.863 -2.766 9.48 0 c 2.617 2.77 2.617 7.254 0 10.02 c -2.617 2.766 -6.863 2.766 -9.48 0 m 0.285 -0.301 c 2.512 2.656 6.492 2.754 9 0.098 c 2.512 -2.652 2.418 -6.859 -0.094 -9.516 c -2.512 -2.656 -6.492 -2.754 -9 -0.098 c -2.516 2.652 -2.418 6.859 0.094 9.516" fill="#2d3335"/><path d="m 23.688 26.23 c -2.617 -2.766 -2.617 -7.25 0 -10.02 c 0.016 -0.016 0.031 -0.031 0.047 -0.047 c -2.57 2.77 -2.555 7.215 0.047 9.965 c 2.602 2.75 6.813 2.766 9.434 0.051 c -0.016 0.016 -0.031 0.031 -0.047 0.051 c -2.621 2.766 -6.863 2.766 -9.48 0 m 0.238 -9.867 c 0.016 -0.016 0.031 -0.035 0.047 -0.051 c 2.512 -2.656 6.492 -2.555 9 0.102 c 2.512 2.656 2.609 6.859 0.094 9.516 c -0.016 0.016 -0.031 0.035 -0.047 0.051 c 2.465 -2.66 2.355 -6.828 -0.141 -9.469 c -2.496 -2.637 -6.441 -2.754 -8.957 -0.148" fill="#9daaab"/><path d="m 22.82 24.25 l -0.555 0.418 c 0.32 0.633 0.73 1.223 1.234 1.758 c 0.504 0.531 1.066 0.969 1.664 1.305 l 0.395 -0.586 c -0.57 -0.309 -1.105 -0.715 -1.586 -1.219 c -0.477 -0.504 -0.859 -1.07 -1.152 -1.676" fill="url(#h)"/><path d="m 23.664 26.25 c 0.168 0.176 0.297 0.375 0.398 0.582 l -2.523 2.668 c -0.199 -0.105 -0.383 -0.242 -0.551 -0.418 c -0.168 -0.176 -0.297 -0.375 -0.398 -0.582 l 2.523 -2.668 c 0.199 0.105 0.383 0.242 0.551 0.418" fill="url(#i)"/><path d="m 22.844 28.727 l -6.363 6.727 c -0.383 -0.223 -0.559 -0.309 -0.895 -0.66 c -0.332 -0.352 -0.41 -0.539 -0.621 -0.945 l 6.363 -6.723 c 0.488 0.383 1.164 1.059 1.516 1.602" fill="url(#j)"/><path d="m 21.836 28.21 c 0.332 0.352 0.715 0.68 0.82 1.121 l -6.176 6.527 c -0.629 -0.527 -1.402 -1.305 -1.895 -2 l 6.172 -6.527 c 0.336 0.023 0.738 0.527 1.07 0.879" fill="url(#k)"/><path d="m 21.809 28.23 c 0.332 0.355 0.738 0.656 0.844 1.098 l -6.176 6.523 c -0.758 -0.703 -1.137 -1.082 -1.895 -2 l 6.172 -6.527 c 0.34 0.023 0.715 0.555 1.047 0.906 h 0.008" fill="url(#l)"/><path d="m 23.879 26 c 2.52 2.652 6.605 2.652 9.125 0 c 2.52 -2.656 2.52 -6.961 0 -9.617 c -2.52 -2.656 -6.605 -2.656 -9.125 0 c -2.52 2.656 -2.52 6.957 0 9.617" fill="url(#m)"/></svg>