<svg xmlns="http://www.w3.org/2000/svg" viewBox="0 0 48 48"><path d="m 47.871 21.805 c 2.758 28.883 -43.719 36.656 -47.33 7 c -4.473 -27.27 37.656 -41.31 46.08 -14.215 c 0.926 2.289 0.906 4.793 1.25 7.215" fill="#bcb76a"/><g fill="#fff" fill-rule="evenodd"><path d="m 25.613 36.461 c -0.086 -0.145 -1.859 -0.215 -5.01 -0.199 c -4.484 0.02 -5.965 -0.129 -5.336 -0.531 c 0.168 -0.105 0.238 -2.02 0.238 -6.496 v -6.348 h 2.5 c 2.246 0 2.5 -0.039 2.492 -0.379 c -0.004 -0.207 -0.246 -0.57 -0.535 -0.809 c -0.293 -0.234 -0.797 -0.695 -1.121 -1.023 c -0.738 -0.734 -1.293 -0.746 -2.172 -0.055 c -0.375 0.297 -0.793 0.539 -0.926 0.539 c -0.133 0 -0.238 0.148 -0.238 0.324 c 0 0.18 -0.137 0.324 -0.301 0.324 c -0.16 0 -0.492 0.258 -0.73 0.57 c -0.238 0.316 -0.492 0.516 -0.559 0.449 c -0.113 -0.121 0.5 -1.434 0.777 -1.668 c 0.07 -0.059 0.195 -0.324 0.277 -0.59 c 0.078 -0.27 0.23 -0.488 0.34 -0.488 c 0.23 0 0.266 -1.938 0.039 -1.945 c -0.086 0 -0.52 -0.34 -0.965 -0.754 c -0.441 -0.41 -0.887 -0.746 -0.988 -0.746 c -0.102 0 -0.188 -0.098 -0.188 -0.219 c 0 -0.125 0.688 -0.215 1.641 -0.215 h 1.641 l 0.133 -1 c 0.074 -0.551 0.133 -1.32 0.133 -1.711 c 0 -0.391 0.094 -0.773 0.207 -0.848 c 0.117 -0.07 0.211 0.055 0.211 0.285 c 0 0.23 0.141 0.539 0.313 0.688 c 0.172 0.148 0.313 0.395 0.313 0.547 c 0 0.531 0.73 1.605 1.094 1.605 c 0.199 0.004 0.363 0.113 0.363 0.25 c 0 0.172 0.449 0.211 1.512 0.129 c 0.832 -0.066 1.395 -0.07 1.25 -0.012 c -0.145 0.055 -0.707 0.531 -1.25 1.055 c -0.543 0.523 -1.059 0.953 -1.145 0.953 c -0.086 0 -0.156 0.242 -0.156 0.539 c 0 0.297 0.09 0.539 0.199 0.539 c 0.109 0 0.258 0.34 0.336 0.754 c 0.074 0.414 0.219 0.754 0.32 0.754 c 0.102 0 0.188 0.242 0.188 0.539 c 0 0.297 0.074 0.539 0.172 0.539 c 0.094 0 0.297 0.242 0.453 0.539 c 0.238 0.461 0.426 0.539 1.285 0.539 c 0.926 0 1.01 -0.043 1.01 -0.523 c 0 -0.289 -0.141 -0.672 -0.313 -0.848 c -0.172 -0.18 -0.313 -0.48 -0.313 -0.668 c 0 -0.313 0.055 -0.313 0.625 -0.012 c 0.344 0.188 0.625 0.48 0.625 0.652 c 0 0.688 0.91 0.289 2 -0.879 c 1.023 -1.098 1.125 -1.156 1.125 -0.668 c 0 0.297 -0.113 0.574 -0.246 0.621 c -0.141 0.047 -0.254 0.539 -0.262 1.148 l -0.016 1.066 l 0.938 0.109 c 1.01 0.113 1.277 0.5 0.418 0.598 c -1.855 0.207 -1.879 0.219 -1.879 1.168 c 0 0.563 0.121 0.973 0.34 1.137 c 0.293 0.223 0.336 0.816 0.32 4.488 c -0.012 2.504 0.066 4.289 0.184 4.363 c 0.109 0.07 0.199 0.305 0.199 0.523 c 0 0.219 0.141 0.453 0.313 0.52 c 0.473 0.188 0.375 0.719 -0.156 0.863 c -0.727 0.203 -1.578 0.16 -1.723 -0.086"/><path d="m 25.2 36.449 c -0.344 -0.109 -2.617 -0.191 -5.05 -0.184 c -2.434 0.012 -4.574 -0.066 -4.754 -0.172 c -0.27 -0.156 -0.289 -0.309 -0.113 -0.785 c 0.133 -0.359 0.219 -2.914 0.219 -6.5 v -5.91 l 2.43 -0.059 c 1.41 -0.035 2.465 -0.152 2.504 -0.281 c 0.129 -0.398 -2.137 -2.477 -2.703 -2.477 c -0.211 0 -0.691 0.242 -1.066 0.539 c -0.375 0.297 -0.793 0.539 -0.926 0.539 c -0.133 0 -0.238 0.148 -0.238 0.324 c 0 0.18 -0.109 0.324 -0.238 0.324 c -0.129 0 -0.465 0.254 -0.742 0.563 c -0.277 0.309 -0.555 0.512 -0.617 0.445 c -0.098 -0.102 0.484 -1.367 0.762 -1.656 c 0.355 -0.367 0.836 -1.648 0.832 -2.227 c 0 -0.578 -0.172 -0.813 -1.145 -1.539 c -0.633 -0.469 -1.145 -0.93 -1.145 -1.023 c 0 -0.094 0.734 -0.168 1.637 -0.168 h 1.641 l 0.133 -1 c 0.074 -0.551 0.133 -1.313 0.133 -1.691 c 0 -1.043 0.223 -1.063 0.672 -0.051 c 0.738 1.66 0.961 1.984 1.629 2.371 c 0.527 0.309 0.723 0.332 0.969 0.121 c 0.242 -0.207 0.34 -0.207 0.469 0.008 c 0.113 0.187 0.41 0.227 0.973 0.121 l 0.813 -0.152 l -1.395 1.16 c -0.766 0.637 -1.398 1.266 -1.406 1.398 c -0.012 0.219 0.395 1.23 0.836 2.074 c 0.105 0.207 0.195 0.516 0.195 0.688 c 0 0.172 0.266 0.617 0.594 0.988 c 0.504 0.574 0.723 0.664 1.41 0.605 c 0.758 -0.063 0.805 -0.109 0.762 -0.711 c -0.023 -0.355 -0.141 -0.68 -0.258 -0.719 c -0.121 -0.043 -0.215 -0.266 -0.215 -0.496 c 0 -0.367 0.059 -0.387 0.469 -0.172 c 0.258 0.137 0.621 0.449 0.813 0.695 c 0.32 0.418 0.371 0.426 0.852 0.098 c 0.281 -0.191 0.902 -0.758 1.379 -1.258 c 0.723 -0.766 0.867 -0.844 0.867 -0.473 c 0 0.242 -0.141 0.719 -0.313 1.059 c -0.629 1.242 -0.355 1.953 0.789 2.055 c 1.098 0.098 1.063 0.48 -0.063 0.613 c -0.516 0.063 -1.055 0.191 -1.199 0.285 c -0.363 0.234 -0.324 1.434 0.063 1.875 c 0.254 0.293 0.34 1.156 0.418 4.223 c 0.117 4.617 0.227 5.609 0.625 5.77 c 0.168 0.063 0.305 0.254 0.305 0.422 c 0 0.543 -1.395 0.723 -2.605 0.336"/><path d="m 25.1 19.484 c 0 -0.25 0.094 -0.516 0.211 -0.586 c 0.113 -0.074 0.207 -0.711 0.207 -1.414 c 0 -1.211 -0.027 -1.281 -0.504 -1.281 c -0.277 0 -0.535 -0.098 -0.574 -0.215 c -0.039 -0.117 -0.656 -0.277 -1.371 -0.355 c -1.93 -0.207 -1.582 -0.41 0.563 -0.332 c 1.859 0.07 1.871 0.066 2 -0.484 c 0.074 -0.305 0.23 -0.555 0.348 -0.555 c 0.129 0 0.172 -0.344 0.102 -0.863 c -0.059 -0.473 -0.039 -0.906 0.047 -0.961 c 0.168 -0.105 0.637 1.301 0.637 1.902 c 0 0.555 1.063 0.438 1.715 -0.188 c 0.309 -0.293 0.66 -0.539 0.781 -0.539 c 0.254 0 -0.367 1.098 -0.77 1.359 c -0.379 0.246 -0.344 1.645 0.047 1.797 c 0.172 0.07 0.313 0.262 0.313 0.426 c 0 0.164 0.141 0.301 0.313 0.301 c 0.172 0 0.313 0.098 0.313 0.215 c 0 0.117 -0.086 0.215 -0.191 0.215 c -0.27 0 -1.566 -0.719 -1.652 -0.914 c -0.152 -0.359 -0.68 -0.129 -0.867 0.375 c -0.109 0.297 -0.285 0.539 -0.387 0.539 c -0.105 0 -0.25 0.172 -0.32 0.379 c -0.152 0.43 -0.625 1.285 -0.824 1.492 c -0.074 0.078 -0.137 -0.063 -0.137 -0.313"/><path d="m 33.863 23.48 c -0.004 -0.445 -0.098 -0.809 -0.203 -0.809 c -0.109 0 -0.262 -0.438 -0.336 -0.973 l -0.141 -0.969 h -0.988 c -0.543 0 -1.262 0.09 -1.594 0.195 c -0.973 0.32 -2.168 0.441 -2.168 0.223 c 0 -0.113 0.125 -0.203 0.281 -0.203 c 0.156 0 0.672 -0.289 1.145 -0.645 c 0.477 -0.359 0.906 -0.648 0.957 -0.648 c 0.055 0 0.43 -0.316 0.84 -0.703 c 0.707 -0.672 0.738 -0.758 0.609 -1.727 c -0.074 -0.563 -0.219 -1.02 -0.316 -1.02 c -0.098 0 -0.18 -0.152 -0.18 -0.336 c 0 -0.184 -0.145 -0.617 -0.316 -0.969 c -0.418 -0.832 -0.246 -0.805 0.672 0.117 c 0.414 0.418 0.813 0.754 0.891 0.754 c 0.078 0 0.27 0.242 0.422 0.539 c 0.199 0.387 0.453 0.539 0.883 0.539 c 0.328 0 0.555 -0.078 0.496 -0.172 c -0.055 -0.094 0.512 -0.742 1.266 -1.438 c 1.086 -1 1.336 -1.16 1.211 -0.742 c -0.09 0.285 -0.227 0.57 -0.309 0.629 c -0.082 0.059 -0.215 0.465 -0.293 0.898 c -0.078 0.438 -0.23 0.824 -0.344 0.863 c -0.113 0.039 -0.223 0.52 -0.246 1.066 c -0.043 0.977 0.328 1.699 0.867 1.699 c 0.121 0 0.223 0.145 0.223 0.324 c 0 0.176 0.141 0.324 0.313 0.324 c 0.172 0 0.313 0.109 0.313 0.242 c 0 0.172 -0.363 0.207 -1.164 0.125 c -1.301 -0.141 -1.754 -0.035 -1.754 0.41 c 0 0.164 -0.094 0.301 -0.211 0.301 c -0.113 0 -0.207 0.328 -0.207 0.727 c 0 0.402 -0.137 1.059 -0.305 1.457 l -0.305 0.727"/><path d="m 33.23 30.594 c 0.113 -0.27 0.309 -0.754 0.434 -1.078 c 0.125 -0.328 0.313 -0.594 0.414 -0.594 c 0.105 0 0.188 -0.332 0.188 -0.742 c 0 -0.559 -0.105 -0.773 -0.438 -0.883 c -0.5 -0.164 -1.316 -0.945 -1.16 -1.105 c 0.059 -0.063 0.418 0.035 0.801 0.215 c 1.465 0.684 1.551 0.668 2.027 -0.348 c 0.242 -0.516 0.438 -1.203 0.438 -1.531 c 0 -0.336 0.09 -0.531 0.211 -0.457 c 0.113 0.074 0.207 0.809 0.207 1.637 c 0 1.746 0.211 1.957 1.375 1.387 c 0.996 -0.488 1.105 -0.297 0.195 0.34 c -0.617 0.438 -0.734 0.645 -0.734 1.324 c 0 0.445 0.094 0.809 0.207 0.809 c 0.113 0 0.207 0.313 0.207 0.691 v 0.688 l -0.688 -0.688 c -0.48 -0.484 -0.887 -0.691 -1.355 -0.691 c -0.367 0 -0.668 0.098 -0.668 0.219 c 0 0.117 -0.141 0.215 -0.313 0.215 c -0.172 0 -0.313 0.098 -0.313 0.215 c 0 0.117 -0.129 0.215 -0.289 0.215 c -0.16 0 -0.344 0.145 -0.41 0.324 c -0.066 0.176 -0.215 0.324 -0.328 0.324 c -0.137 0 -0.141 -0.168 -0.008 -0.484"/></g></svg>