<svg xmlns="http://www.w3.org/2000/svg" viewBox="0 0 48 48"><path d="m 0.32 22.12 c -2.758 28.742 43.734 36.48 47.35 6.965 c 4.473 -27.14 -37.668 -41.12 -46.1 -14.15 c -0.922 2.277 -0.906 4.773 -1.25 7.184" fill="#4581b3"/><g fill="#fff" fill-rule="evenodd"><path d="m 17.563 36.34 c 0 -0.172 -0.16 -0.371 -0.355 -0.445 c -0.195 -0.074 -0.449 -0.262 -0.566 -0.414 c -0.258 -0.344 -1.234 -0.152 -1.395 0.273 c -0.148 0.383 -0.531 0.367 -0.531 -0.02 c 0 -0.168 -0.137 -0.305 -0.305 -0.305 c -0.395 0 -0.395 -0.551 0 -0.945 c 0.402 -0.398 0.402 -1.293 0 -1.293 c -0.168 0 -0.305 -0.09 -0.305 -0.203 c 0 -0.109 -0.145 -0.203 -0.32 -0.203 c -0.227 0 -0.301 -0.16 -0.254 -0.559 c 0.059 -0.512 0.152 -0.566 1.082 -0.66 l 1.016 -0.102 l 0.016 -0.789 c 0.008 -0.527 0.141 -0.883 0.395 -1.07 c 0.527 -0.387 0.711 -0.348 0.711 0.148 c 0 0.82 1.438 1.582 1.699 0.895 c 0.152 -0.395 0.824 -0.391 1.156 0.012 c 0.379 0.457 1.098 0.289 1.176 -0.277 c 0.082 -0.57 -0.289 -1.055 -0.805 -1.055 c -0.484 0 -0.527 -0.914 -0.055 -1.18 c 0.18 -0.102 0.293 -0.355 0.254 -0.57 c -0.059 -0.309 -0.281 -0.398 -1.141 -0.445 c -1 -0.059 -1.066 -0.035 -1.066 0.422 c 0 0.629 -0.105 0.719 -0.715 0.602 c -0.422 -0.078 -0.504 -0.211 -0.504 -0.797 c 0 -0.387 -0.133 -0.836 -0.293 -0.996 c -0.328 -0.328 -1.336 -0.395 -1.336 -0.086 c 0 0.379 -0.563 0.207 -0.668 -0.207 c -0.133 -0.5 -0.094 -0.727 0.109 -0.656 c 0.086 0.027 0.152 -0.086 0.152 -0.254 c 0 -0.168 0.094 -0.309 0.203 -0.309 c 0.113 0 0.203 -0.355 0.203 -0.793 c 0 -0.449 0.113 -0.844 0.254 -0.898 c 0.141 -0.055 -0.086 -0.051 -0.508 0.012 c -0.738 0.105 -0.762 0.09 -0.762 -0.516 c 0 -0.598 0.031 -0.621 0.691 -0.512 c 0.578 0.094 0.711 0.039 0.828 -0.32 c 0.074 -0.234 0.227 -0.43 0.336 -0.43 c 0.113 0 0.176 -0.297 0.141 -0.656 c -0.043 -0.453 -0.184 -0.684 -0.445 -0.734 c -0.234 -0.043 -0.328 0.016 -0.242 0.152 c 0.078 0.125 0 0.223 -0.172 0.223 c -0.172 0 -0.598 0.281 -0.949 0.625 c -0.348 0.34 -0.68 0.578 -0.738 0.52 c -0.098 -0.094 0.523 -1.344 0.773 -1.551 c 0.066 -0.055 0.184 -0.355 0.258 -0.66 c 0.074 -0.309 0.227 -0.563 0.336 -0.563 c 0.109 0 0.199 -0.457 0.199 -1.016 c 0 -0.559 -0.086 -1.016 -0.191 -1.016 c -0.105 0 -0.434 -0.223 -0.723 -0.492 c -0.293 -0.27 -0.73 -0.629 -0.977 -0.801 c -0.418 -0.293 -0.34 -0.313 1.203 -0.324 l 1.648 -0.012 l 0.129 -1.066 c 0.07 -0.586 0.129 -1.406 0.129 -1.82 c 0 -0.41 0.094 -0.805 0.207 -0.875 c 0.113 -0.07 0.203 0.094 0.203 0.371 c 0 0.277 0.137 0.555 0.305 0.617 c 0.168 0.066 0.305 0.348 0.305 0.633 c 0 0.281 0.09 0.516 0.203 0.516 c 0.113 0 0.203 0.117 0.203 0.266 c 0 0.57 0.539 0.98 1.359 1.043 c 0.457 0.035 0.934 0.125 1.063 0.203 c 0.125 0.078 0.43 0.086 0.684 0.016 c 0.313 -0.086 0.09 0.219 -0.715 0.977 c -0.645 0.602 -1.168 1.188 -1.168 1.301 c 0 0.109 0.242 0.648 0.539 1.199 c 0.297 0.547 0.527 1.195 0.512 1.441 c -0.016 0.25 0.238 0.742 0.563 1.098 c 0.551 0.602 0.617 0.625 0.93 0.316 c 0.461 -0.461 0.914 -0.418 0.914 0.086 c 0 0.293 0.109 0.402 0.352 0.355 c 0.52 -0.102 0.551 -0.695 0.07 -1.215 c -0.234 -0.25 -0.418 -0.688 -0.418 -0.973 c 0.008 -0.516 0.016 -0.512 0.715 0.242 c 0.629 0.676 1.508 1.027 1.523 0.609 c 0.004 -0.086 0.418 -0.605 0.918 -1.156 c 0.746 -0.828 0.906 -0.93 0.906 -0.57 c 0 0.238 -0.082 0.48 -0.18 0.543 c -0.254 0.156 -0.477 1.48 -0.328 1.945 c 0.086 0.277 0.348 0.402 0.93 0.445 c 1.051 0.082 1.043 0.453 -0.012 0.535 c -0.449 0.031 -0.816 0.148 -0.816 0.254 c 0 0.105 -0.141 0.191 -0.316 0.191 c -0.262 0 -0.309 0.281 -0.285 1.676 c 0.02 0.922 -0.031 1.84 -0.113 2.035 c -0.211 0.523 0.418 1.371 1.012 1.371 c 0.273 0 0.551 -0.09 0.617 -0.203 c 0.07 -0.109 0.258 -0.203 0.422 -0.203 c 0.391 0 0.375 0.75 -0.027 0.973 c -0.234 0.133 -0.301 0.434 -0.254 1.18 c 0.059 0.879 0.121 1 0.52 1.01 c 0.25 0.004 0.457 0.07 0.457 0.152 c 0.004 0.078 0.004 0.285 0.004 0.449 c 0 0.219 -0.219 0.309 -0.742 0.309 c -0.465 0 -0.84 0.129 -1.01 0.355 c -0.32 0.418 -0.371 1.395 -0.082 1.574 c 0.309 0.191 0.246 0.508 -0.102 0.508 c -0.168 0 -0.305 0.094 -0.305 0.203 c 0 0.375 -0.336 0.211 -0.609 -0.305 c -0.219 -0.406 -0.43 -0.508 -1.055 -0.508 c -0.715 0 -0.797 0.059 -0.91 0.621 c -0.098 0.488 -0.219 0.609 -0.555 0.559 c -0.363 -0.051 -0.418 -0.176 -0.363 -0.824 c 0.047 -0.535 -0.016 -0.762 -0.207 -0.762 c -0.148 0 -0.383 -0.184 -0.523 -0.406 c -0.305 -0.484 -1.227 -0.543 -1.402 -0.09 c -0.07 0.176 -0.02 0.426 0.105 0.551 c 0.625 0.621 0.109 1.406 -1.023 1.559 c -0.852 0.113 -0.883 0.141 -0.945 0.906 c -0.078 0.961 -0.852 1.898 -0.852 1.035 m 0.406 -3.465 v -0.926 l -0.863 0.063 c -0.859 0.063 -0.863 0.066 -0.926 0.926 l -0.063 0.867 h 1.852 m 1.906 -1.324 c -0.066 -0.168 -0.199 -0.305 -0.301 -0.305 c -0.098 0 -0.18 0.137 -0.18 0.305 c 0 0.168 0.133 0.305 0.297 0.305 c 0.184 0 0.254 -0.117 0.184 -0.305 m 4.922 -1.816 c 0.762 -0.762 0.066 -1.945 -1.148 -1.945 c -0.676 0 -0.781 0.066 -0.895 0.582 c -0.07 0.324 -0.066 0.828 0.008 1.121 c 0.117 0.465 0.238 0.535 0.938 0.535 c 0.445 0 0.938 -0.133 1.098 -0.293 m -0.512 -4.711 c 0.238 -0.379 0.512 -0.691 0.617 -0.691 c 0.102 0 0.188 -0.184 0.188 -0.406 c 0 -0.223 -0.07 -0.406 -0.156 -0.406 c -0.082 0 -0.277 -0.281 -0.426 -0.621 c -0.258 -0.578 -0.34 -0.617 -1.223 -0.559 c -0.801 0.051 -0.953 0.129 -1.01 0.52 c -0.043 0.305 0.039 0.457 0.254 0.457 c 0.219 0 0.32 0.191 0.32 0.609 c 0 0.598 -0.297 0.84 -0.453 0.371 c -0.051 -0.156 -0.219 -0.184 -0.477 -0.07 c -0.375 0.16 -0.375 0.172 -0.016 0.258 c 0.289 0.066 0.355 0.238 0.301 0.73 c -0.078 0.641 -0.074 0.645 0.789 0.57 c 0.727 -0.059 0.93 -0.18 1.289 -0.762 m -4.98 -1.387 c 0.16 -0.16 0.293 -0.613 0.293 -1 c 0 -0.828 -0.426 -1.063 -1.543 -0.852 c -0.633 0.117 -0.695 0.191 -0.695 0.84 c 0 0.391 0.113 0.84 0.254 1 c 0.332 0.379 1.324 0.383 1.695 0.016 m -0.668 -4.66 c -0.059 -0.816 -0.41 -1.152 -1.203 -1.152 c -0.652 0 -0.688 0.039 -0.688 0.711 c 0 0.496 0.09 0.711 0.305 0.711 c 0.168 0 0.305 0.098 0.305 0.219 c 0 0.121 0.289 0.188 0.66 0.152 c 0.586 -0.059 0.656 -0.129 0.621 -0.641"/><path d="m 25.05 16.438 c 0.074 -1.172 0.035 -1.355 -0.297 -1.465 c -0.207 -0.066 -0.57 -0.211 -0.805 -0.324 c -0.238 -0.113 -0.922 -0.277 -1.527 -0.363 c -1.051 -0.152 -1.02 -0.16 0.68 -0.184 l 1.773 -0.027 l 0.344 -0.66 c 0.188 -0.363 0.406 -0.938 0.48 -1.27 c 0.137 -0.598 0.141 -0.594 0.328 0.305 c 0.16 0.781 0.27 0.922 0.73 0.977 c 0.387 0.047 0.707 -0.113 1.137 -0.559 c 0.926 -0.969 1.141 -0.73 0.348 0.391 c -0.871 1.242 -0.895 1.789 -0.105 2.543 c 0.336 0.32 0.574 0.617 0.535 0.656 c -0.039 0.043 -0.512 -0.156 -1.043 -0.441 c -0.742 -0.395 -1.039 -0.461 -1.246 -0.289 c -0.152 0.125 -0.281 0.332 -0.281 0.457 c -0.004 0.129 -0.262 0.535 -0.57 0.91 l -0.566 0.684"/><path d="m 34.25 21.344 c -0.004 -0.418 -0.098 -0.762 -0.207 -0.762 c -0.105 0 -0.258 -0.461 -0.332 -1.02 c -0.141 -1.082 -0.379 -1.41 -0.75 -1.039 c -0.121 0.125 -0.578 0.227 -1.012 0.227 c -0.434 0 -0.941 0.082 -1.129 0.176 c -0.188 0.098 -0.754 0.23 -1.258 0.293 l -0.914 0.113 l 0.508 -0.391 c 0.871 -0.672 1.543 -1.121 2 -1.34 c 0.152 -0.07 0.594 -0.418 0.98 -0.773 c 0.676 -0.621 0.695 -0.68 0.563 -1.699 c -0.078 -0.582 -0.223 -1.055 -0.32 -1.055 c -0.098 0 -0.176 -0.141 -0.176 -0.316 c 0 -0.172 -0.141 -0.586 -0.309 -0.914 c -0.484 -0.934 -0.105 -0.707 1.215 0.727 c 0.668 0.723 1.32 1.316 1.453 1.316 c 0.133 0 0.844 -0.617 1.582 -1.371 c 1.121 -1.152 1.34 -1.301 1.344 -0.918 c 0 0.254 -0.078 0.457 -0.176 0.457 c -0.098 0 -0.234 0.359 -0.305 0.797 c -0.07 0.438 -0.215 0.828 -0.328 0.867 c -0.109 0.035 -0.223 0.531 -0.246 1.098 c -0.039 0.926 0.023 1.102 0.617 1.68 c 0.359 0.355 0.746 0.645 0.855 0.645 c 0.105 0 0.195 0.148 0.195 0.328 c 0 0.258 -0.121 0.297 -0.559 0.184 c -0.309 -0.082 -0.926 -0.16 -1.375 -0.176 c -0.699 -0.027 -0.82 0.035 -0.879 0.426 c -0.035 0.254 -0.148 0.461 -0.254 0.461 c -0.102 0 -0.188 0.309 -0.188 0.688 c 0 0.379 -0.133 0.996 -0.297 1.371 l -0.297 0.684"/><path d="m 32.14 28.363 c 0.066 -0.195 0.191 -0.449 0.27 -0.559 c 0.078 -0.113 0.203 -0.457 0.277 -0.762 c 0.074 -0.309 0.223 -0.563 0.332 -0.563 c 0.109 0 0.199 -0.316 0.199 -0.707 c 0 -0.586 -0.086 -0.73 -0.508 -0.836 c -0.277 -0.07 -0.508 -0.254 -0.508 -0.41 c 0 -0.156 -0.098 -0.281 -0.219 -0.281 c -0.27 0 -0.797 -0.516 -0.797 -0.773 c 0 -0.105 0.523 0.07 1.168 0.391 c 0.645 0.32 1.281 0.582 1.418 0.582 c 0.348 0.004 1.074 -1.566 1.074 -2.313 c 0 -1.242 0.387 -0.207 0.445 1.195 c 0.059 1.328 0.098 1.43 0.547 1.492 c 0.27 0.039 0.543 -0.023 0.613 -0.137 c 0.07 -0.113 0.398 -0.266 0.734 -0.336 l 0.609 -0.133 l -0.715 0.617 c -0.391 0.344 -0.777 0.625 -0.863 0.625 c -0.234 0.012 -0.18 1.527 0.066 1.773 c 0.121 0.121 0.191 0.457 0.152 0.75 l -0.066 0.531 l -0.746 -0.711 c -0.789 -0.746 -1.523 -0.918 -1.723 -0.402 c -0.063 0.164 -0.242 0.305 -0.398 0.305 c -0.156 0 -0.285 0.09 -0.285 0.203 c 0 0.109 -0.125 0.203 -0.281 0.203 c -0.156 0 -0.336 0.137 -0.402 0.305 c -0.164 0.43 -0.551 0.383 -0.395 -0.051"/><path d="m 17 35.922 c -0.684 -0.703 -1.02 -0.73 -1.711 -0.137 c -0.301 0.254 -0.391 0.238 -0.766 -0.133 c -0.438 -0.441 -0.566 -1.035 -0.223 -1.035 c 0.109 0 0.258 -0.234 0.332 -0.52 c 0.094 -0.383 0.016 -0.629 -0.293 -0.918 c -0.234 -0.215 -0.527 -0.395 -0.648 -0.395 c -0.129 0 -0.199 -0.246 -0.164 -0.559 c 0.063 -0.512 0.148 -0.563 1.031 -0.621 c 0.828 -0.051 0.98 -0.133 1.09 -0.559 c 0.07 -0.273 0.074 -0.633 0.008 -0.797 c -0.066 -0.172 0.074 -0.43 0.328 -0.609 c 0.59 -0.414 0.723 -0.395 0.797 0.125 c 0.039 0.242 0.316 0.625 0.621 0.852 c 0.52 0.387 0.578 0.391 0.93 0.07 c 0.469 -0.422 0.93 -0.438 1.262 -0.035 c 0.32 0.383 0.695 0.387 1.01 0.008 c 0.352 -0.422 0.07 -1.105 -0.512 -1.25 c -0.586 -0.148 -0.664 -0.781 -0.164 -1.332 c 0.273 -0.301 0.285 -0.426 0.078 -0.676 c -0.344 -0.414 -1.813 -0.418 -1.941 -0.004 c -0.055 0.168 -0.133 0.43 -0.184 0.582 c -0.055 0.184 -0.27 0.246 -0.609 0.18 c -0.434 -0.082 -0.523 -0.211 -0.523 -0.758 c 0 -0.379 -0.156 -0.797 -0.371 -0.992 c -0.406 -0.367 -1.258 -0.457 -1.258 -0.133 c 0 0.379 -0.559 0.207 -0.668 -0.207 c -0.133 -0.5 -0.094 -0.727 0.109 -0.656 c 0.086 0.027 0.152 -0.086 0.152 -0.254 c 0 -0.168 0.094 -0.305 0.203 -0.305 c 0.113 0 0.207 -0.367 0.207 -0.816 c 0 -0.73 -0.051 -0.813 -0.512 -0.813 c -0.426 0 -0.508 -0.094 -0.508 -0.598 c 0 -0.566 0.039 -0.59 0.691 -0.484 c 0.578 0.094 0.715 0.043 0.828 -0.316 c 0.074 -0.238 0.223 -0.434 0.324 -0.434 c 0.254 0 0.246 -0.957 -0.008 -1.113 c -0.242 -0.148 -1.168 0.32 -1.797 0.914 c -0.262 0.246 -0.516 0.402 -0.566 0.348 c -0.055 -0.051 0.273 -0.809 0.723 -1.684 c 1.145 -2.203 1.105 -2.652 -0.301 -3.773 l -1.121 -0.895 l 1.602 -0.059 l 1.605 -0.059 l 0.129 -1.059 c 0.07 -0.582 0.125 -1.398 0.129 -1.813 c 0 -0.41 0.094 -0.805 0.203 -0.875 c 0.113 -0.07 0.203 0.051 0.203 0.27 c 0 0.215 0.137 0.508 0.305 0.645 c 0.168 0.141 0.309 0.348 0.309 0.465 c 0 0.117 0.152 0.566 0.344 0.996 c 0.273 0.621 0.504 0.824 1.105 0.988 c 0.418 0.113 0.836 0.191 0.926 0.176 c 0.09 -0.016 0.484 -0.016 0.871 -0.004 l 0.707 0.023 l -1.184 1.195 c -0.988 0.996 -1.148 1.254 -0.977 1.574 c 0.625 1.16 1.012 2.082 0.918 2.18 c -0.156 0.156 0.57 1.324 0.902 1.449 c 0.152 0.063 0.449 0.02 0.656 -0.094 c 0.535 -0.285 0.813 -0.25 0.813 0.102 c 0 0.344 0.52 0.418 0.715 0.102 c 0.07 -0.113 -0.063 -0.469 -0.293 -0.793 c -0.23 -0.324 -0.422 -0.793 -0.422 -1.039 c 0 -0.418 0.063 -0.398 0.816 0.285 c 0.445 0.402 0.895 0.734 0.996 0.734 c 0.098 0 0.648 -0.52 1.219 -1.152 c 1.117 -1.242 1.215 -1.195 0.715 0.332 c -0.414 1.266 -0.18 1.785 0.836 1.875 c 0.93 0.082 1.01 0.449 0.117 0.535 c -0.379 0.039 -0.906 0.207 -1.172 0.383 c -0.453 0.297 -0.477 0.422 -0.461 2.375 c 0.016 1.563 0.098 2.145 0.34 2.414 c 0.352 0.391 0.973 0.473 1.172 0.152 c 0.066 -0.109 0.258 -0.203 0.418 -0.203 c 0.387 0 0.375 0.695 -0.012 1.016 c -0.609 0.508 -0.23 2.418 0.438 2.195 c 0.191 -0.066 0.273 0.098 0.273 0.551 c 0 0.211 -0.211 0.305 -0.68 0.305 c -0.402 0 -0.82 0.156 -1.016 0.375 c -0.371 0.41 -0.453 1.363 -0.133 1.559 c 0.297 0.188 0.246 0.508 -0.086 0.508 c -0.16 0 -0.328 0.117 -0.379 0.254 c -0.059 0.164 -0.254 0.055 -0.539 -0.305 c -0.652 -0.809 -1.594 -0.777 -1.91 0.059 c -0.168 0.449 -0.348 0.602 -0.645 0.559 c -0.316 -0.043 -0.395 -0.184 -0.348 -0.629 c 0.086 -0.828 -0.949 -1.867 -1.676 -1.688 c -0.523 0.133 -0.699 0.598 -0.316 0.836 c 0.637 0.395 -0.094 1.523 -0.992 1.523 c -0.727 0 -1.043 0.344 -1.043 1.121 c 0 0.57 -0.32 1.156 -0.602 1.094 c -0.059 -0.012 -0.406 -0.332 -0.77 -0.707 m 0.961 -3.03 c 0 -0.902 -0.012 -0.918 -0.668 -0.918 c -0.852 0 -1.16 0.313 -1.16 1.16 c 0 0.66 0.016 0.672 0.914 0.672 h 0.914 m 1.75 -1.57 c -0.207 -0.207 -0.375 0.102 -0.207 0.375 c 0.129 0.211 0.176 0.211 0.246 0.004 c 0.047 -0.145 0.031 -0.313 -0.039 -0.383 m 5 -1.609 c 0.84 -0.762 0.055 -2.01 -1.176 -1.863 c -0.695 0.078 -1.063 0.957 -0.719 1.711 c 0.27 0.59 1.313 0.676 1.895 0.152 m -0.355 -4.82 c 0.691 -0.844 0.906 -1.352 0.574 -1.352 c -0.086 -0.004 -0.309 -0.277 -0.5 -0.613 c -0.395 -0.691 -1.227 -0.824 -1.902 -0.301 c -0.375 0.289 -0.379 0.316 -0.039 0.582 c 0.195 0.152 0.355 0.516 0.355 0.813 c 0 0.555 -0.184 0.676 -0.52 0.34 c -0.125 -0.121 -0.309 -0.121 -0.5 0 c -0.258 0.16 -0.25 0.191 0.055 0.191 c 0.258 0.004 0.355 0.172 0.355 0.617 c 0 0.559 0.059 0.609 0.699 0.609 c 0.574 0 0.82 -0.156 1.422 -0.887 m -5.086 -1.332 c 0.207 -0.23 0.324 -0.625 0.285 -0.965 c -0.137 -1.191 -2.203 -1.133 -2.203 0.059 c 0 1.133 1.199 1.695 1.918 0.906 m -0.738 -4.52 c 0.082 -0.688 -0.465 -1.234 -1.152 -1.156 c -0.738 0.086 -0.852 0.91 -0.199 1.418 c 0.668 0.52 1.277 0.402 1.352 -0.262"/></g></svg>