<svg xmlns="http://www.w3.org/2000/svg" viewBox="0 0 48 48"><path d="m 8.875 41.1 c -37.39 -49.52 65.52 -56.56 32.488 -6.01 c -7.527 11.527 -22.582 19.13 -32.488 6.01" fill="#f4f4f4"/><path d="m 18.738 37.35 c -0.938 -1.117 -0.926 -1.605 0.066 -2.719 c 0.863 -0.969 0.949 -1.195 0.535 -1.457 c -0.375 -0.238 -0.336 -1.602 0.059 -2 c 0.258 -0.262 -0.055 -0.723 -1.465 -2.164 c -1.41 -1.441 -1.863 -1.762 -2.121 -1.5 c -0.418 0.43 -1.414 0.43 -2.09 -0.004 c -0.461 -0.293 -0.629 -0.223 -1.32 0.547 c -0.996 1.117 -1.566 1.113 -2.641 -0.016 c -0.754 -0.793 -0.852 -1.082 -0.852 -2.418 c 0 -1.172 0.121 -1.629 0.535 -2.01 c 0.66 -0.613 0.66 -0.723 0 -1.504 c -0.398 -0.469 -0.535 -1.023 -0.535 -2.145 c 0 -1.273 0.113 -1.641 0.719 -2.285 c 0.945 -1.01 1.906 -0.996 2.879 0.043 c 0.695 0.742 0.805 0.773 1.313 0.41 c 0.727 -0.52 1.219 -0.504 1.836 0.07 c 0.484 0.445 0.578 0.387 2.227 -1.41 c 1.77 -1.926 1.918 -2.184 1.457 -2.477 c -0.371 -0.234 -0.336 -1.598 0.051 -1.996 c 0.25 -0.254 0.133 -0.527 -0.535 -1.227 c -1.082 -1.145 -1.074 -1.781 0.027 -2.875 c 0.77 -0.762 1.066 -0.875 2.324 -0.875 c 1.113 0 1.582 0.137 2.059 0.594 l 0.621 0.598 l 0.617 -0.598 c 0.48 -0.461 0.949 -0.594 2.09 -0.594 c 1.309 0 1.559 0.098 2.324 0.902 c 1.074 1.137 1.074 1.711 -0.004 2.848 c -0.664 0.699 -0.781 0.973 -0.535 1.227 c 0.391 0.398 0.426 1.762 0.055 1.996 c -0.461 0.293 -0.313 0.551 1.457 2.477 c 1.648 1.797 1.742 1.855 2.227 1.41 c 0.617 -0.574 1.109 -0.59 1.836 -0.07 c 0.508 0.363 0.617 0.332 1.313 -0.41 c 0.973 -1.039 1.934 -1.051 2.879 -0.043 c 0.605 0.645 0.719 1.012 0.719 2.285 c 0 1.121 -0.137 1.676 -0.535 2.145 c -0.664 0.781 -0.664 0.891 0 1.504 c 0.414 0.383 0.535 0.84 0.535 2.039 c 0 1.387 -0.09 1.633 -0.883 2.418 c -1.109 1.102 -1.621 1.098 -2.609 -0.012 c -0.691 -0.77 -0.859 -0.84 -1.32 -0.547 c -0.676 0.434 -1.672 0.434 -2.094 0.004 c -0.254 -0.262 -0.707 0.059 -2.117 1.5 c -1.41 1.441 -1.723 1.902 -1.465 2.164 c 0.391 0.402 0.434 1.766 0.059 2 c -0.414 0.262 -0.332 0.488 0.535 1.457 c 0.996 1.117 1 1.629 0.043 2.73 c -0.695 0.793 -0.898 0.867 -2.375 0.867 c -1.109 0 -1.719 -0.125 -1.949 -0.41 c -0.184 -0.223 -0.543 -0.41 -0.801 -0.41 c -0.258 0 -0.621 0.188 -0.805 0.41 c -0.23 0.285 -0.836 0.41 -1.969 0.41 c -1.512 -0.004 -1.699 -0.074 -2.375 -0.879 m -5.988 -3.359 c -0.086 -0.23 -0.008 -0.598 0.172 -0.82 c 0.262 -0.324 0.262 -0.492 0 -0.813 c -0.68 -0.84 0.477 -1.73 1.238 -0.953 c 0.191 0.199 0.625 -0.098 1.398 -0.957 c 1.164 -1.289 1.813 -1.543 2.086 -0.809 c 0.109 0.285 -0.285 0.902 -1.145 1.813 c -0.813 0.855 -1.18 1.426 -0.973 1.504 c 0.469 0.176 0.418 1.16 -0.07 1.352 c -0.223 0.086 -0.59 0 -0.813 -0.188 c -0.309 -0.266 -0.484 -0.273 -0.719 -0.031 c -0.434 0.441 -0.992 0.395 -1.18 -0.098 m 19.344 0.23 c -0.301 -0.309 -0.199 -1.133 0.156 -1.266 c 0.207 -0.078 -0.16 -0.648 -0.973 -1.504 c -0.859 -0.91 -1.254 -1.527 -1.148 -1.813 c 0.277 -0.734 0.926 -0.48 2.09 0.809 c 0.773 0.859 1.207 1.152 1.398 0.957 c 0.746 -0.762 1.922 0.109 1.254 0.93 c -0.238 0.297 -0.234 0.516 0.031 0.945 c 0.273 0.449 0.273 0.633 0.008 0.906 c -0.27 0.273 -0.445 0.27 -0.895 -0.016 c -0.402 -0.258 -0.641 -0.273 -0.848 -0.063 c -0.328 0.336 -0.809 0.387 -1.074 0.113 m -16.383 -18.883 c -1.055 -1.113 -1.281 -1.238 -1.723 -0.953 c -1.01 0.641 -1.816 -0.402 -1 -1.289 c 0.27 -0.289 0.27 -0.387 0 -0.484 c -0.469 -0.176 -0.418 -1.16 0.07 -1.352 c 0.223 -0.086 0.586 -0.008 0.805 0.18 c 0.316 0.266 0.48 0.266 0.793 0 c 0.813 -0.688 1.695 0.484 0.941 1.254 c -0.176 0.18 0.141 0.676 0.938 1.477 c 1.238 1.242 1.504 2.01 0.797 2.289 c -0.254 0.098 -0.848 -0.309 -1.617 -1.121 m 14.66 1.113 c -0.637 -0.266 -0.328 -1.082 0.867 -2.281 c 0.801 -0.801 1.113 -1.297 0.938 -1.477 c -0.754 -0.77 0.129 -1.941 0.941 -1.254 c 0.316 0.266 0.48 0.266 0.797 0 c 0.219 -0.188 0.578 -0.266 0.801 -0.18 c 0.488 0.191 0.539 1.176 0.07 1.352 c -0.266 0.098 -0.266 0.195 0 0.484 c 0.82 0.887 0.008 1.93 -1 1.289 c -0.441 -0.285 -0.664 -0.16 -1.73 0.961 c -0.672 0.707 -1.25 1.273 -1.285 1.262 c -0.035 -0.012 -0.215 -0.082 -0.398 -0.156" fill="#e4a19f"/><path d="m 19.09 37.12 c -0.453 -0.461 -0.824 -0.957 -0.824 -1.102 c 0 -0.145 0.422 -0.691 0.938 -1.219 c 1.047 -1.07 1.109 -1.273 0.535 -1.758 c -0.527 -0.449 -0.508 -1.066 0.051 -1.699 c 0.43 -0.484 0.359 -0.605 -1.531 -2.551 c -2.023 -2.078 -2.488 -2.355 -2.762 -1.629 c -0.086 0.227 -0.383 0.41 -0.664 0.41 c -0.281 0 -0.66 -0.184 -0.844 -0.41 c -0.496 -0.609 -0.922 -0.504 -1.605 0.41 c -0.77 1.027 -1.563 1.047 -2.492 0.055 c -0.922 -0.984 -1.02 -2.973 -0.184 -3.746 c 0.684 -0.633 0.684 -1.527 0 -2.125 c -0.813 -0.711 -0.734 -2.648 0.16 -3.73 c 0.887 -1.082 1.34 -1.063 2.523 0.121 l 0.965 0.965 l 0.625 -0.555 c 0.746 -0.664 0.91 -0.68 1.344 -0.145 c 0.578 0.711 1.152 0.398 3.055 -1.672 c 1.754 -1.906 1.824 -2.039 1.402 -2.516 c -0.559 -0.633 -0.563 -1.105 -0.008 -1.73 c 0.41 -0.465 0.375 -0.566 -0.539 -1.602 c -0.797 -0.902 -0.93 -1.203 -0.707 -1.625 c 0.832 -1.586 3.215 -2.203 4.289 -1.109 c 0.293 0.301 0.773 0.547 1.066 0.547 c 0.297 0 0.777 -0.246 1.07 -0.547 c 1.074 -1.094 3.457 -0.477 4.289 1.109 c 0.219 0.422 0.09 0.723 -0.707 1.625 c -0.918 1.035 -0.949 1.137 -0.539 1.602 c 0.555 0.625 0.551 1.098 -0.012 1.73 c -0.422 0.477 -0.348 0.609 1.406 2.516 c 1.902 2.07 2.477 2.383 3.055 1.672 c 0.434 -0.535 0.598 -0.52 1.344 0.145 l 0.625 0.555 l 0.965 -0.965 c 1.184 -1.184 1.633 -1.203 2.523 -0.121 c 0.891 1.082 0.973 3.02 0.16 3.73 c -0.297 0.258 -0.535 0.73 -0.535 1.051 c 0 0.316 0.238 0.801 0.535 1.074 c 0.387 0.359 0.535 0.844 0.535 1.77 c 0 1.039 -0.141 1.406 -0.75 2.01 c -0.977 0.953 -1.699 0.93 -2.461 -0.086 c -0.684 -0.914 -1.109 -1.02 -1.605 -0.41 c -0.184 0.227 -0.563 0.41 -0.844 0.41 c -0.281 0 -0.578 -0.184 -0.664 -0.41 c -0.273 -0.727 -0.742 -0.449 -2.762 1.629 c -1.891 1.945 -1.961 2.066 -1.531 2.551 c 0.559 0.633 0.578 1.25 0.051 1.699 c -0.574 0.484 -0.516 0.688 0.535 1.758 c 0.516 0.527 0.934 1.074 0.934 1.219 c 0 0.145 -0.367 0.641 -0.82 1.102 c -0.691 0.703 -1.031 0.844 -2.098 0.844 c -0.938 0 -1.406 -0.148 -1.762 -0.547 c -0.266 -0.301 -0.688 -0.547 -0.938 -0.547 c -0.246 0 -0.668 0.246 -0.934 0.547 c -0.355 0.398 -0.824 0.547 -1.762 0.547 c -1.066 0 -1.406 -0.141 -2.098 -0.844 m -5.906 -3.531 c 0 -0.152 0.121 -0.273 0.27 -0.273 c 0.148 0 0.266 -0.246 0.266 -0.547 c 0 -0.301 -0.117 -0.547 -0.266 -0.547 c -0.148 0 -0.266 -0.215 -0.258 -0.48 c 0.008 -0.453 0.023 -0.453 0.363 0 c 0.531 0.719 0.809 0.605 2.242 -0.93 c 0.738 -0.793 1.391 -1.285 1.484 -1.129 c 0.094 0.156 -0.43 0.859 -1.16 1.559 c -1.457 1.391 -1.57 1.691 -0.867 2.238 c 0.445 0.348 0.445 0.363 0 0.371 c -0.258 0.008 -0.469 -0.113 -0.469 -0.262 c 0 -0.152 -0.238 -0.273 -0.535 -0.273 c -0.293 0 -0.535 0.121 -0.535 0.273 c 0 0.148 -0.117 0.273 -0.266 0.273 c -0.148 0 -0.27 -0.125 -0.27 -0.273 m 19.328 -0.109 c 0.703 -0.547 0.586 -0.848 -0.867 -2.238 c -0.73 -0.703 -1.254 -1.402 -1.16 -1.559 c 0.094 -0.156 0.746 0.336 1.484 1.129 c 1.434 1.535 1.707 1.648 2.242 0.93 c 0.34 -0.453 0.355 -0.453 0.363 0 c 0.004 0.262 -0.109 0.48 -0.258 0.48 c -0.387 0 -0.328 1.023 0.066 1.168 c 0.195 0.07 0.234 0.223 0.098 0.367 c -0.137 0.141 -0.289 0.098 -0.355 -0.102 c -0.145 -0.402 -1.145 -0.465 -1.145 -0.066 c 0 0.148 -0.211 0.27 -0.469 0.262 c -0.445 -0.008 -0.445 -0.023 0 -0.371 m -16.992 -18.848 c -1.219 -1.352 -1.289 -1.391 -1.668 -0.887 c -0.215 0.289 -0.473 0.445 -0.566 0.348 c -0.098 -0.098 -0.016 -0.375 0.18 -0.617 c 0.289 -0.355 0.293 -0.543 0.02 -0.988 c -0.441 -0.723 -0.137 -1.023 0.348 -0.348 c 0.367 0.516 0.387 0.516 0.938 0.008 c 0.309 -0.285 0.648 -0.43 0.758 -0.32 c 0.105 0.113 -0.016 0.32 -0.27 0.469 c -0.73 0.418 -0.566 0.836 0.855 2.137 c 0.727 0.668 1.262 1.313 1.188 1.438 c -0.23 0.379 -0.469 0.215 -1.781 -1.238 m 14.949 1.238 c -0.07 -0.121 0.465 -0.77 1.191 -1.438 c 1.418 -1.301 1.586 -1.719 0.855 -2.137 c -0.258 -0.148 -0.379 -0.355 -0.27 -0.469 c 0.105 -0.109 0.449 0.035 0.758 0.32 c 0.551 0.508 0.566 0.508 0.934 -0.008 c 0.207 -0.285 0.453 -0.441 0.551 -0.344 c 0.094 0.098 0.012 0.379 -0.184 0.617 c -0.289 0.355 -0.293 0.543 -0.02 0.992 c 0.445 0.727 0.137 1.016 -0.367 0.34 c -0.375 -0.504 -0.449 -0.465 -1.73 0.91 c -1.402 1.504 -1.5 1.57 -1.715 1.215" fill="#d6d60a"/><path d="m 19.09 37.12 c -0.453 -0.461 -0.824 -0.957 -0.824 -1.102 c 0 -0.145 0.422 -0.691 0.938 -1.219 c 1.047 -1.07 1.109 -1.273 0.535 -1.758 c -0.527 -0.449 -0.508 -1.066 0.051 -1.699 c 0.43 -0.484 0.359 -0.605 -1.531 -2.551 c -2.023 -2.078 -2.488 -2.355 -2.762 -1.629 c -0.086 0.227 -0.383 0.41 -0.664 0.41 c -0.281 0 -0.66 -0.184 -0.844 -0.41 c -0.496 -0.609 -0.922 -0.504 -1.605 0.41 c -0.77 1.027 -1.563 1.047 -2.492 0.055 c -0.922 -0.984 -1.02 -2.973 -0.184 -3.746 c 0.684 -0.633 0.684 -1.527 0 -2.125 c -0.813 -0.711 -0.734 -2.648 0.16 -3.73 c 0.887 -1.082 1.34 -1.063 2.523 0.121 l 0.965 0.965 l 0.625 -0.555 c 0.746 -0.664 0.91 -0.68 1.344 -0.145 c 0.578 0.711 1.152 0.398 3.055 -1.672 c 1.754 -1.906 1.824 -2.039 1.402 -2.516 c -0.559 -0.633 -0.563 -1.105 -0.008 -1.73 c 0.41 -0.465 0.375 -0.566 -0.539 -1.602 c -0.797 -0.902 -0.93 -1.203 -0.707 -1.625 c 0.832 -1.586 3.215 -2.203 4.289 -1.109 c 0.293 0.301 0.773 0.547 1.066 0.547 c 0.297 0 0.777 -0.246 1.07 -0.547 c 1.074 -1.094 3.457 -0.477 4.289 1.109 c 0.219 0.422 0.09 0.723 -0.707 1.625 c -0.918 1.035 -0.949 1.137 -0.539 1.602 c 0.555 0.625 0.551 1.098 -0.012 1.73 c -0.422 0.477 -0.348 0.609 1.406 2.516 c 1.902 2.07 2.477 2.383 3.055 1.672 c 0.434 -0.535 0.598 -0.52 1.344 0.145 l 0.625 0.555 l 0.965 -0.965 c 1.184 -1.184 1.633 -1.203 2.523 -0.121 c 0.891 1.082 0.973 3.02 0.16 3.73 c -0.297 0.258 -0.535 0.73 -0.535 1.051 c 0 0.316 0.238 0.801 0.535 1.074 c 0.387 0.359 0.535 0.844 0.535 1.77 c 0 1.039 -0.141 1.406 -0.75 2.01 c -0.977 0.953 -1.699 0.93 -2.461 -0.086 c -0.684 -0.914 -1.109 -1.02 -1.605 -0.41 c -0.184 0.227 -0.563 0.41 -0.844 0.41 c -0.281 0 -0.578 -0.184 -0.664 -0.41 c -0.273 -0.727 -0.742 -0.449 -2.762 1.629 c -1.891 1.945 -1.961 2.066 -1.531 2.551 c 0.559 0.633 0.578 1.25 0.051 1.699 c -0.574 0.484 -0.516 0.688 0.535 1.758 c 0.516 0.527 0.934 1.074 0.934 1.219 c 0 0.145 -0.367 0.641 -0.82 1.102 c -0.691 0.703 -1.031 0.844 -2.098 0.844 c -0.938 0 -1.406 -0.148 -1.762 -0.547 c -0.266 -0.301 -0.688 -0.547 -0.938 -0.547 c -0.246 0 -0.668 0.246 -0.934 0.547 c -0.355 0.398 -0.824 0.547 -1.762 0.547 c -1.066 0 -1.406 -0.141 -2.098 -0.844 m 1.852 -4.746 c 0 -0.219 -0.121 -0.473 -0.266 -0.563 c -0.148 -0.094 -0.27 0.082 -0.27 0.395 c 0 0.309 0.121 0.563 0.27 0.563 c 0.145 0 0.266 -0.18 0.266 -0.395 m 1.871 -0.152 c 0 -0.301 -0.117 -0.547 -0.266 -0.547 c -0.148 0 -0.27 0.246 -0.27 0.547 c 0 0.301 0.121 0.547 0.27 0.547 c 0.148 0 0.266 -0.246 0.266 -0.547 m 2.676 0 c 0 -0.301 -0.121 -0.547 -0.266 -0.547 c -0.148 0 -0.27 0.246 -0.27 0.547 c 0 0.301 0.121 0.547 0.27 0.547 c 0.145 0 0.266 -0.246 0.266 -0.547 m 1.875 -0.016 c 0 -0.313 -0.121 -0.488 -0.27 -0.395 c -0.148 0.09 -0.266 0.344 -0.266 0.563 c 0 0.215 0.117 0.395 0.266 0.395 c 0.148 0 0.27 -0.254 0.27 -0.563 m -4.598 -3.621 c 0.133 -0.707 -3.602 -4.566 -4.418 -4.566 c -1.141 0 -0.711 1.035 1.32 3.176 c 1.961 2.063 2.895 2.484 3.098 1.391 m 5.344 -1.402 c 2.023 -2.129 2.449 -3.164 1.309 -3.164 c -0.41 0 -1.246 0.664 -2.539 2.02 c -1.797 1.879 -2.188 2.547 -1.746 2.996 c 0.465 0.477 1.203 0.02 2.977 -1.848 m -12.918 -0.977 c 0.09 -0.152 -0.082 -0.273 -0.387 -0.273 c -0.301 0 -0.551 0.121 -0.551 0.273 c 0 0.148 0.176 0.273 0.387 0.273 c 0.211 0 0.461 -0.125 0.551 -0.273 m 18.32 0 c 0 -0.152 -0.246 -0.273 -0.547 -0.273 c -0.305 0 -0.477 0.121 -0.387 0.273 c 0.09 0.148 0.34 0.273 0.551 0.273 c 0.211 0 0.383 -0.125 0.383 -0.273 m -8.06 -2.047 c 0.609 -0.672 1.105 -1.289 1.105 -1.371 c 0 -0.398 -2.266 -2.598 -2.676 -2.598 c -0.406 0 -2.672 2.199 -2.672 2.598 c 0 0.395 2.266 2.598 2.672 2.598 c 0.258 0 0.965 -0.551 1.57 -1.227 m -2.316 -0.469 c -0.91 -0.93 0.16 -2.473 1.281 -1.859 c 0.945 0.516 0.535 2.188 -0.535 2.188 c -0.234 0 -0.57 -0.148 -0.746 -0.328 m -7.945 0.602 c 0.09 -0.152 -0.09 -0.273 -0.402 -0.273 c -0.313 0 -0.492 0.121 -0.402 0.273 c 0.094 0.148 0.273 0.273 0.402 0.273 c 0.129 0 0.313 -0.125 0.402 -0.273 m 18.19 0 c 0.094 -0.152 -0.09 -0.273 -0.398 -0.273 c -0.313 0 -0.492 0.121 -0.402 0.273 c 0.09 0.148 0.27 0.273 0.402 0.273 c 0.129 0 0.309 -0.125 0.398 -0.273 m -18.19 -2.734 c 0.09 -0.152 -0.09 -0.273 -0.402 -0.273 c -0.313 0 -0.492 0.121 -0.402 0.273 c 0.094 0.148 0.273 0.273 0.402 0.273 c 0.129 0 0.313 -0.125 0.402 -0.273 m 5.543 -1.84 c 2.051 -2.086 2.484 -2.938 1.656 -3.266 c -0.293 -0.113 -1.086 0.508 -2.543 1.984 c -1.949 1.984 -2.402 2.734 -1.938 3.211 c 0.391 0.398 0.828 0.102 2.824 -1.93 m 9.242 1.426 c 0.105 -0.746 -3.996 -4.93 -4.598 -4.691 c -0.824 0.324 -0.406 1.152 1.648 3.262 c 2.055 2.113 2.805 2.477 2.949 1.43 m 3.402 0.414 c 0.09 -0.152 -0.09 -0.273 -0.402 -0.273 c -0.313 0 -0.492 0.121 -0.402 0.273 c 0.094 0.148 0.273 0.273 0.402 0.273 c 0.129 0 0.313 -0.125 0.402 -0.273 m -18.27 -2.242 c -0.25 -0.254 -0.391 -0.254 -0.641 0 c -0.25 0.254 -0.18 0.328 0.32 0.328 c 0.5 0 0.57 -0.074 0.32 -0.328 m 18.19 0 c -0.25 -0.254 -0.395 -0.254 -0.645 0 c -0.25 0.254 -0.176 0.328 0.324 0.328 c 0.496 0 0.57 -0.074 0.32 -0.328 m -12.359 -5.809 c 0 -0.215 -0.121 -0.469 -0.266 -0.563 c -0.148 -0.09 -0.27 0.086 -0.27 0.395 c 0 0.309 0.121 0.563 0.27 0.563 c 0.145 0 0.266 -0.176 0.266 -0.395 m 1.875 -0.168 c 0 -0.309 -0.121 -0.488 -0.27 -0.395 c -0.148 0.094 -0.266 0.348 -0.266 0.563 c 0 0.219 0.117 0.395 0.266 0.395 c 0.148 0 0.27 -0.254 0.27 -0.563 m 2.672 0.168 c 0 -0.215 -0.121 -0.469 -0.266 -0.563 c -0.148 -0.09 -0.27 0.086 -0.27 0.395 c 0 0.309 0.121 0.563 0.27 0.563 c 0.145 0 0.266 -0.176 0.266 -0.395 m 1.875 -0.168 c 0 -0.309 -0.121 -0.488 -0.27 -0.395 c -0.148 0.094 -0.266 0.348 -0.266 0.563 c 0 0.219 0.117 0.395 0.266 0.395 c 0.148 0 0.27 -0.254 0.27 -0.563 m -14.18 20.25 c 0 -0.152 0.121 -0.273 0.27 -0.273 c 0.145 0 0.266 -0.246 0.266 -0.547 c 0 -0.301 -0.121 -0.547 -0.266 -0.547 c -0.148 0 -0.266 -0.215 -0.258 -0.48 c 0.008 -0.453 0.023 -0.453 0.363 0 c 0.531 0.719 0.809 0.605 2.242 -0.93 c 0.738 -0.793 1.387 -1.285 1.484 -1.129 c 0.094 0.156 -0.43 0.859 -1.164 1.559 c -1.453 1.391 -1.57 1.691 -0.863 2.238 c 0.445 0.348 0.445 0.363 0 0.371 c -0.258 0.008 -0.469 -0.113 -0.469 -0.262 c 0 -0.152 -0.238 -0.273 -0.535 -0.273 c -0.293 0 -0.535 0.121 -0.535 0.273 c 0 0.148 -0.117 0.273 -0.266 0.273 c -0.148 0 -0.27 -0.125 -0.27 -0.273 m 19.328 -0.109 c 0.703 -0.547 0.586 -0.848 -0.867 -2.238 c -0.73 -0.703 -1.254 -1.402 -1.16 -1.559 c 0.094 -0.156 0.746 0.336 1.484 1.129 c 1.434 1.535 1.707 1.648 2.242 0.93 c 0.34 -0.453 0.355 -0.453 0.363 0 c 0.004 0.262 -0.109 0.48 -0.258 0.48 c -0.387 0 -0.328 1.023 0.066 1.168 c 0.195 0.07 0.234 0.223 0.098 0.367 c -0.137 0.141 -0.289 0.098 -0.355 -0.102 c -0.145 -0.402 -1.145 -0.465 -1.145 -0.066 c 0 0.148 -0.211 0.27 -0.469 0.262 c -0.445 -0.008 -0.445 -0.023 0 -0.371 m -16.992 -18.848 c -1.219 -1.352 -1.289 -1.391 -1.668 -0.887 c -0.215 0.289 -0.473 0.445 -0.566 0.348 c -0.098 -0.098 -0.016 -0.375 0.18 -0.617 c 0.289 -0.355 0.293 -0.543 0.02 -0.988 c -0.441 -0.723 -0.137 -1.023 0.348 -0.348 c 0.367 0.516 0.387 0.516 0.938 0.008 c 0.309 -0.285 0.648 -0.43 0.758 -0.32 c 0.105 0.113 -0.016 0.32 -0.27 0.469 c -0.73 0.418 -0.566 0.836 0.855 2.137 c 0.727 0.668 1.262 1.313 1.188 1.438 c -0.23 0.379 -0.469 0.215 -1.781 -1.238 m 14.949 1.238 c -0.07 -0.121 0.461 -0.77 1.191 -1.438 c 1.418 -1.301 1.586 -1.719 0.855 -2.137 c -0.258 -0.148 -0.379 -0.355 -0.27 -0.469 c 0.105 -0.109 0.449 0.035 0.758 0.32 c 0.551 0.508 0.566 0.508 0.934 -0.008 c 0.207 -0.285 0.453 -0.441 0.551 -0.344 c 0.094 0.098 0.012 0.379 -0.184 0.617 c -0.289 0.355 -0.293 0.543 -0.02 0.992 c 0.445 0.727 0.137 1.016 -0.367 0.34 c -0.375 -0.504 -0.449 -0.465 -1.73 0.91 c -1.402 1.504 -1.5 1.57 -1.715 1.215" fill="#d16863"/><path d="m 19.465 37.08 c -0.891 -0.715 -0.832 -1.184 0.301 -2.465 l 0.957 -1.086 l -1.25 -1.359 l 0.617 -0.512 c 0.477 -0.395 0.559 -0.625 0.359 -1 c -0.309 -0.59 -4.18 -4.453 -4.461 -4.453 c -0.105 0 -0.422 0.266 -0.699 0.594 l -0.5 0.59 l -0.672 -0.645 l -0.668 -0.641 l -1.012 1.01 c -1.184 1.184 -1.371 1.215 -2.145 0.375 c -0.707 -0.77 -0.82 -2.926 -0.18 -3.469 c 0.219 -0.188 0.402 -0.68 0.402 -1.094 c 0 -0.414 -0.184 -0.906 -0.402 -1.094 c -0.262 -0.223 -0.402 -0.832 -0.402 -1.762 c 0 -1.148 0.125 -1.543 0.645 -2.043 c 0.742 -0.711 1.383 -0.52 2.133 0.648 c 0.516 0.805 1.355 0.91 1.742 0.219 c 0.223 -0.402 0.348 -0.422 0.75 -0.137 c 1.086 0.773 1.207 0.715 3.5 -1.672 l 2.281 -2.371 l -1.289 -1.406 l 0.621 -0.512 c 0.699 -0.582 0.574 -1.035 -0.594 -2.152 c -0.82 -0.785 -0.844 -1.047 -0.176 -1.867 c 0.398 -0.488 0.781 -0.617 1.832 -0.617 c 0.855 0 1.449 0.148 1.66 0.41 c 0.43 0.531 1.711 0.531 2.141 0 c 0.215 -0.262 0.809 -0.41 1.664 -0.41 c 1.051 0 1.434 0.129 1.828 0.617 c 0.672 0.82 0.645 1.082 -0.172 1.867 c -1.168 1.117 -1.293 1.57 -0.594 2.152 l 0.617 0.512 l -0.645 0.703 l -0.641 0.703 l 2.277 2.371 c 2.293 2.387 2.418 2.445 3.504 1.672 c 0.402 -0.285 0.527 -0.266 0.746 0.137 c 0.387 0.691 1.23 0.586 1.746 -0.219 c 0.746 -1.168 1.387 -1.359 2.133 -0.648 c 0.52 0.5 0.645 0.895 0.645 2.043 c 0 0.93 -0.141 1.539 -0.402 1.762 c -0.223 0.188 -0.402 0.68 -0.402 1.094 c 0 0.414 0.18 0.906 0.402 1.094 c 0.664 0.566 0.527 2.789 -0.219 3.508 c -0.34 0.324 -0.727 0.594 -0.859 0.594 c -0.129 0 -0.691 -0.453 -1.246 -1.01 l -1.012 -1.01 l -0.672 0.641 l -0.668 0.645 l -0.504 -0.594 c -0.273 -0.324 -0.59 -0.59 -0.699 -0.59 c -0.281 0 -4.148 3.863 -4.461 4.453 c -0.199 0.379 -0.117 0.609 0.359 1 l 0.617 0.512 l -0.625 0.68 l -0.621 0.68 l 0.957 1.086 c 1.129 1.277 1.188 1.75 0.301 2.465 c -0.785 0.633 -2.621 0.598 -3.336 -0.063 c -0.254 -0.234 -0.742 -0.426 -1.09 -0.426 c -0.344 0 -0.832 0.191 -1.09 0.426 c -0.711 0.66 -2.547 0.695 -3.332 0.063 m 1.48 -4.711 c 0 -0.219 -0.121 -0.473 -0.27 -0.563 c -0.145 -0.094 -0.266 0.082 -0.266 0.395 c 0 0.309 0.121 0.563 0.266 0.563 c 0.148 0 0.27 -0.18 0.27 -0.395 m 1.871 -0.152 c 0 -0.301 -0.121 -0.547 -0.266 -0.547 c -0.148 0 -0.27 0.246 -0.27 0.547 c 0 0.301 0.121 0.547 0.27 0.547 c 0.145 0 0.266 -0.246 0.266 -0.547 m 2.676 0 c 0 -0.301 -0.121 -0.547 -0.266 -0.547 c -0.148 0 -0.27 0.246 -0.27 0.547 c 0 0.301 0.121 0.547 0.27 0.547 c 0.145 0 0.266 -0.246 0.266 -0.547 m 1.871 -0.016 c 0 -0.313 -0.117 -0.488 -0.266 -0.395 c -0.148 0.09 -0.27 0.344 -0.27 0.563 c 0 0.215 0.121 0.395 0.27 0.395 c 0.148 0 0.266 -0.254 0.266 -0.563 m -4.594 -3.621 c 0.133 -0.707 -3.605 -4.566 -4.418 -4.566 c -1.141 0 -0.711 1.035 1.32 3.176 c 1.961 2.063 2.895 2.484 3.098 1.391 m 5.344 -1.402 c 2.023 -2.129 2.449 -3.164 1.309 -3.164 c -0.414 0 -1.25 0.664 -2.539 2.02 c -1.797 1.879 -2.188 2.547 -1.746 2.996 c 0.465 0.477 1.203 0.02 2.977 -1.848 m -12.918 -0.977 c 0.09 -0.152 -0.082 -0.273 -0.387 -0.273 c -0.301 0 -0.551 0.121 -0.551 0.273 c 0 0.148 0.176 0.273 0.387 0.273 c 0.211 0 0.457 -0.125 0.551 -0.273 m 18.32 0 c 0 -0.152 -0.246 -0.273 -0.551 -0.273 c -0.301 0 -0.477 0.121 -0.383 0.273 c 0.09 0.148 0.336 0.273 0.551 0.273 c 0.211 0 0.383 -0.125 0.383 -0.273 m -8.06 -2.047 c 0.609 -0.672 1.105 -1.289 1.105 -1.371 c 0 -0.398 -2.266 -2.598 -2.676 -2.598 c -0.406 0 -2.676 2.199 -2.676 2.598 c 0 0.395 2.27 2.598 2.676 2.598 c 0.258 0 0.965 -0.551 1.57 -1.227 m -2.32 -0.469 c -0.906 -0.93 0.16 -2.473 1.285 -1.859 c 0.945 0.516 0.535 2.188 -0.535 2.188 c -0.234 0 -0.57 -0.148 -0.75 -0.328 m -7.941 0.602 c 0.09 -0.152 -0.09 -0.273 -0.402 -0.273 c -0.313 0 -0.492 0.121 -0.402 0.273 c 0.094 0.148 0.273 0.273 0.402 0.273 c 0.129 0 0.309 -0.125 0.402 -0.273 m 18.19 0 c 0.09 -0.152 -0.09 -0.273 -0.402 -0.273 c -0.309 0 -0.492 0.121 -0.398 0.273 c 0.09 0.148 0.27 0.273 0.398 0.273 c 0.133 0 0.313 -0.125 0.402 -0.273 m -18.19 -2.734 c 0.09 -0.152 -0.09 -0.273 -0.402 -0.273 c -0.313 0 -0.492 0.121 -0.402 0.273 c 0.094 0.148 0.273 0.273 0.402 0.273 c 0.129 0 0.309 -0.125 0.402 -0.273 m 5.543 -1.84 c 2.051 -2.086 2.484 -2.938 1.656 -3.266 c -0.293 -0.113 -1.086 0.508 -2.543 1.984 c -1.949 1.984 -2.406 2.734 -1.938 3.211 c 0.391 0.398 0.828 0.102 2.824 -1.93 m 9.242 1.426 c 0.105 -0.746 -3.996 -4.93 -4.598 -4.691 c -0.824 0.324 -0.406 1.152 1.648 3.262 c 2.055 2.113 2.805 2.477 2.949 1.43 m 3.402 0.414 c 0.09 -0.152 -0.09 -0.273 -0.402 -0.273 c -0.313 0 -0.492 0.121 -0.402 0.273 c 0.094 0.148 0.273 0.273 0.402 0.273 c 0.129 0 0.309 -0.125 0.402 -0.273 m -18.27 -2.242 c -0.25 -0.254 -0.391 -0.254 -0.641 0 c -0.25 0.254 -0.18 0.328 0.32 0.328 c 0.5 0 0.57 -0.074 0.32 -0.328 m 18.19 0 c -0.25 -0.254 -0.395 -0.254 -0.645 0 c -0.25 0.254 -0.176 0.328 0.32 0.328 c 0.5 0 0.57 -0.074 0.324 -0.328 m -12.359 -5.809 c 0 -0.215 -0.121 -0.469 -0.266 -0.563 c -0.148 -0.09 -0.27 0.086 -0.27 0.395 c 0 0.309 0.121 0.563 0.27 0.563 c 0.145 0 0.266 -0.176 0.266 -0.395 m 1.871 -0.168 c 0 -0.309 -0.117 -0.488 -0.266 -0.395 c -0.148 0.094 -0.27 0.348 -0.27 0.563 c 0 0.219 0.121 0.395 0.27 0.395 c 0.148 0 0.266 -0.254 0.266 -0.563 m 2.676 0.168 c 0 -0.215 -0.121 -0.469 -0.266 -0.563 c -0.148 -0.09 -0.27 0.086 -0.27 0.395 c 0 0.309 0.121 0.563 0.27 0.563 c 0.145 0 0.266 -0.176 0.266 -0.395 m 1.871 -0.168 c 0 -0.309 -0.117 -0.488 -0.266 -0.395 c -0.148 0.094 -0.27 0.348 -0.27 0.563 c 0 0.219 0.121 0.395 0.27 0.395 c 0.148 0 0.266 -0.254 0.266 -0.563" fill="#b2ac34"/><path d="m 19.465 37.08 c -0.887 -0.711 -0.832 -1.176 0.289 -2.508 c 0.523 -0.617 1.066 -1.273 1.203 -1.457 c 0.355 -0.461 0.316 -1.387 -0.078 -1.914 c -0.434 -0.578 -4.527 -4.762 -5.094 -5.203 c -0.809 -0.637 -1.695 -0.379 -3.074 0.887 c -0.738 0.676 -1.453 1.23 -1.586 1.23 c -0.137 0 -0.512 -0.285 -0.832 -0.633 c -0.707 -0.77 -0.816 -2.926 -0.18 -3.469 c 0.219 -0.188 0.402 -0.68 0.402 -1.094 c 0 -0.414 -0.184 -0.906 -0.402 -1.094 c -0.262 -0.223 -0.402 -0.832 -0.402 -1.762 c 0 -1.148 0.125 -1.543 0.645 -2.043 c 0.742 -0.711 1.383 -0.52 2.133 0.648 c 0.246 0.383 0.625 0.695 0.848 0.695 c 0.223 0 0.473 0.184 0.559 0.41 c 0.207 0.555 1.703 0.555 1.703 0 c 0 -0.227 0.164 -0.41 0.367 -0.41 c 0.203 0 1.469 -1.172 2.809 -2.605 c 1.746 -1.867 2.441 -2.805 2.441 -3.293 c 0 -0.734 -0.02 -0.762 -1.457 -2.473 c -1.09 -1.293 -1.109 -1.391 -0.43 -2.223 c 0.395 -0.484 0.777 -0.613 1.828 -0.613 c 0.855 0 1.449 0.145 1.664 0.41 c 0.43 0.527 1.711 0.527 2.141 0 c 0.211 -0.266 0.805 -0.41 1.66 -0.41 c 1.051 0 1.434 0.129 1.832 0.613 c 0.676 0.832 0.66 0.93 -0.43 2.223 c -1.441 1.711 -1.461 1.738 -1.461 2.473 c 0 0.488 0.695 1.426 2.441 3.293 c 1.34 1.434 2.605 2.605 2.809 2.605 c 0.203 0 0.367 0.184 0.367 0.41 c 0 0.27 0.266 0.41 0.777 0.41 c 0.438 0 0.84 -0.176 0.926 -0.41 c 0.086 -0.227 0.336 -0.41 0.559 -0.41 c 0.223 0 0.602 -0.313 0.848 -0.695 c 0.75 -1.168 1.391 -1.359 2.133 -0.648 c 0.52 0.5 0.645 0.895 0.645 2.043 c 0 0.93 -0.141 1.539 -0.402 1.762 c -0.219 0.188 -0.402 0.68 -0.402 1.094 c 0 0.414 0.184 0.906 0.402 1.094 c 0.668 0.566 0.531 2.789 -0.219 3.508 c -0.34 0.328 -0.711 0.594 -0.828 0.594 c -0.117 0 -0.813 -0.555 -1.551 -1.23 c -1.379 -1.27 -2.266 -1.523 -3.074 -0.887 c -0.566 0.441 -4.66 4.625 -5.094 5.203 c -0.395 0.527 -0.434 1.453 -0.078 1.914 c 0.137 0.184 0.68 0.84 1.203 1.457 c 1.121 1.332 1.176 1.797 0.289 2.508 c -0.785 0.633 -2.621 0.598 -3.332 -0.063 c -0.254 -0.234 -0.746 -0.426 -1.09 -0.426 c -0.344 0 -0.836 0.191 -1.09 0.426 c -0.715 0.66 -2.547 0.695 -3.336 0.063 m 3.172 -0.918 c 0.477 -0.668 0.473 -0.699 -0.133 -1.352 c -0.777 -0.836 -1 -0.836 -1.777 0 c -0.609 0.652 -0.613 0.684 -0.137 1.352 c 0.27 0.379 0.73 0.684 1.023 0.684 c 0.297 0 0.754 -0.309 1.023 -0.684 m 4.547 0 c 0.477 -0.668 0.473 -0.699 -0.133 -1.352 c -0.777 -0.836 -1 -0.836 -1.777 0 c -0.609 0.652 -0.613 0.684 -0.137 1.352 c 0.27 0.379 0.73 0.684 1.023 0.684 c 0.297 0 0.754 -0.309 1.023 -0.684 m -4.234 -3.945 c 0 -0.426 -0.172 -0.711 -0.465 -0.77 c -0.367 -0.07 -0.469 0.098 -0.469 0.77 c 0 0.672 0.102 0.84 0.469 0.766 c 0.293 -0.055 0.465 -0.34 0.465 -0.766 m 2.809 0 c 0 -0.883 -0.688 -1.172 -0.973 -0.41 c -0.215 0.578 0.082 1.23 0.566 1.23 c 0.277 0 0.41 -0.266 0.41 -0.82 m -2.723 -3.496 c 0.129 -0.945 -3.773 -4.98 -4.816 -4.98 c -0.656 0 -0.754 0.105 -0.754 0.805 c 0 0.621 0.43 1.258 1.938 2.863 c 1.652 1.754 2.059 2.055 2.742 2 c 0.609 -0.047 0.824 -0.215 0.891 -0.688 m 5.285 -1.305 c 1.559 -1.625 1.98 -2.238 1.98 -2.871 c 0 -0.699 -0.098 -0.805 -0.754 -0.805 c -0.594 0 -1.199 0.469 -2.809 2.156 c -2.375 2.492 -2.691 3.586 -1.047 3.586 c 0.453 0 1.242 -0.621 2.629 -2.066 m -15.41 -2.156 c 0.008 -0.32 -1.082 -1.52 -1.379 -1.52 c -0.34 0 -1.289 1.051 -1.289 1.426 c 0 0.184 0.316 0.613 0.703 0.953 l 0.703 0.617 l 0.629 -0.609 c 0.348 -0.336 0.633 -0.723 0.633 -0.863 m 24.13 0.688 c 0.621 -0.543 0.605 -0.988 -0.055 -1.664 c -0.668 -0.684 -0.762 -0.684 -1.52 0.047 c -0.77 0.738 -0.77 0.945 -0.023 1.738 c 0.602 0.641 0.742 0.629 1.598 -0.121 m -11.516 -1.352 c 0.715 -0.73 1.297 -1.512 1.297 -1.734 c 0 -0.656 -2.285 -2.953 -2.941 -2.953 c -0.656 0 -2.941 2.297 -2.941 2.953 c 0 0.496 2.465 3.063 2.941 3.063 c 0.188 0 0.93 -0.598 1.645 -1.328 m -2.258 -1.031 c -0.34 -0.348 -0.199 -1.406 0.211 -1.566 c 0.715 -0.281 1.238 0.121 1.152 0.887 c -0.078 0.703 -0.926 1.125 -1.363 0.68 m -7.727 0.785 c -0.055 -0.285 -0.383 -0.512 -0.824 -0.563 c -0.59 -0.07 -0.734 0.023 -0.734 0.48 c 0 0.445 0.172 0.563 0.824 0.563 c 0.637 0 0.801 -0.105 0.734 -0.48 m 18.238 -0.086 c 0 -0.453 -0.145 -0.547 -0.734 -0.477 c -0.441 0.051 -0.77 0.277 -0.824 0.563 c -0.066 0.371 0.098 0.48 0.734 0.48 c 0.652 0 0.824 -0.117 0.824 -0.566 m -18.246 -2.953 c -0.047 -0.254 -0.398 -0.48 -0.816 -0.531 c -0.582 -0.07 -0.734 0.027 -0.734 0.457 c 0 0.297 0.152 0.594 0.336 0.656 c 0.598 0.207 1.297 -0.129 1.215 -0.586 m 18.246 -0.078 c 0 -0.422 -0.156 -0.52 -0.734 -0.449 c -0.848 0.102 -1.164 0.938 -0.418 1.105 c 0.738 0.168 1.152 -0.066 1.152 -0.656 m -21.398 0.047 c 0.293 -0.301 0.535 -0.668 0.535 -0.82 c 0 -0.355 -0.992 -1.367 -1.34 -1.367 c -0.344 0 -1.336 1.012 -1.336 1.367 c 0 0.391 0.875 1.32 1.27 1.344 c 0.184 0.012 0.574 -0.223 0.871 -0.523 m 8.656 -1.602 c 1.629 -1.676 2.07 -2.293 2 -2.805 c -0.063 -0.445 -0.293 -0.68 -0.73 -0.742 c -0.93 -0.137 -4.844 3.852 -4.844 4.938 c 0 0.645 0.109 0.758 0.742 0.758 c 0.57 0 1.223 -0.496 2.832 -2.148 m 9.266 1.391 c 0 -1.086 -3.914 -5.074 -4.844 -4.938 c -0.438 0.063 -0.668 0.297 -0.73 0.742 c -0.133 0.953 3.77 4.953 4.832 4.953 c 0.633 0 0.742 -0.113 0.742 -0.758 m 6.688 0.211 c 0.293 -0.301 0.531 -0.668 0.531 -0.82 c 0 -0.355 -0.988 -1.367 -1.336 -1.367 c -0.348 0 -1.336 1.012 -1.336 1.367 c 0 0.391 0.875 1.32 1.27 1.344 c 0.184 0.012 0.574 -0.223 0.867 -0.523 m -14.04 -7.93 c 0 -0.426 -0.176 -0.711 -0.469 -0.766 c -0.367 -0.074 -0.469 0.094 -0.469 0.766 c 0 0.672 0.102 0.84 0.469 0.77 c 0.293 -0.059 0.469 -0.344 0.469 -0.77 m 2.809 0 c 0 -0.879 -0.688 -1.168 -0.973 -0.41 c -0.219 0.582 0.078 1.23 0.563 1.23 c 0.277 0 0.41 -0.266 0.41 -0.82 m -3.223 -2.586 l 0.621 -0.676 l -0.641 -0.688 c -0.352 -0.379 -0.758 -0.688 -0.906 -0.688 c -0.148 0 -0.555 0.309 -0.906 0.688 l -0.641 0.688 l 0.621 0.676 c 0.34 0.371 0.758 0.672 0.926 0.672 c 0.168 0 0.586 -0.301 0.926 -0.672 m 4.547 0 l 0.621 -0.676 l -0.641 -0.688 c -0.352 -0.379 -0.758 -0.688 -0.906 -0.688 c -0.148 0 -0.555 0.309 -0.906 0.688 l -0.641 0.688 l 0.621 0.676 c 0.34 0.371 0.758 0.672 0.926 0.672 c 0.168 0 0.586 -0.301 0.926 -0.672 m -7.359 21.699 c -0.098 -0.164 -0.047 -0.434 0.117 -0.602 c 0.219 -0.223 0.297 -0.145 0.297 0.297 c 0 0.66 -0.137 0.762 -0.414 0.305 m 7.906 -0.25 c 0 -0.508 0.07 -0.582 0.32 -0.328 c 0.25 0.258 0.25 0.402 0 0.656 c -0.25 0.258 -0.32 0.184 -0.32 -0.328 m -13.242 -5.191 c -0.09 -0.152 0.023 -0.273 0.254 -0.273 c 0.23 0 0.418 0.121 0.418 0.273 c 0 0.148 -0.113 0.273 -0.254 0.273 c -0.137 0 -0.324 -0.125 -0.418 -0.273 m 18.324 0 c 0 -0.152 0.188 -0.273 0.418 -0.273 c 0.227 0 0.34 0.121 0.25 0.273 c -0.09 0.148 -0.277 0.273 -0.418 0.273 c -0.137 0 -0.25 -0.125 -0.25 -0.273 m -18.324 -8.203 c -0.09 -0.152 0.023 -0.273 0.254 -0.273 c 0.23 0 0.418 0.121 0.418 0.273 c 0 0.148 -0.113 0.273 -0.254 0.273 c -0.137 0 -0.324 -0.125 -0.418 -0.273 m 18.324 0 c 0 -0.152 0.188 -0.273 0.418 -0.273 c 0.227 0 0.34 0.121 0.25 0.273 c -0.09 0.148 -0.277 0.273 -0.418 0.273 c -0.137 0 -0.25 -0.125 -0.25 -0.273 m -12.988 -5.219 c -0.098 -0.164 -0.047 -0.434 0.117 -0.602 c 0.219 -0.223 0.297 -0.145 0.297 0.297 c 0 0.66 -0.137 0.762 -0.414 0.305 m 7.906 -0.25 c 0 -0.512 0.07 -0.582 0.32 -0.328 c 0.25 0.254 0.25 0.402 0 0.656 c -0.25 0.254 -0.32 0.184 -0.32 -0.328" fill="#9c9b4f"/><path d="m 19.465 37.08 c -0.879 -0.707 -0.832 -1.184 0.242 -2.398 c 0.496 -0.563 0.949 -1.172 1.012 -1.359 c 0.059 -0.188 0.586 -0.355 1.172 -0.379 c 0.941 -0.039 1.063 -0.121 1.063 -0.727 c 0 -0.613 -0.109 -0.684 -1.051 -0.684 c -0.695 0 -1.086 -0.137 -1.172 -0.41 c -0.066 -0.227 -1.098 -1.41 -2.293 -2.629 c -1.195 -1.223 -2.355 -2.277 -2.574 -2.348 c -0.266 -0.086 -0.402 -0.484 -0.402 -1.199 c 0 -0.977 -0.066 -1.078 -0.773 -1.16 c -0.734 -0.086 -0.766 -0.047 -0.605 0.762 c 0.148 0.762 0.023 0.988 -1.234 2.203 c -0.77 0.742 -1.527 1.355 -1.684 1.359 c -0.16 0 -0.551 -0.281 -0.871 -0.629 c -0.707 -0.77 -0.816 -2.926 -0.18 -3.469 c 0.219 -0.188 0.402 -0.68 0.402 -1.094 c 0 -0.414 -0.184 -0.906 -0.402 -1.094 c -0.262 -0.223 -0.402 -0.832 -0.402 -1.762 c 0 -1.148 0.125 -1.543 0.645 -2.043 c 0.742 -0.711 1.383 -0.52 2.133 0.648 c 0.246 0.383 0.617 0.695 0.832 0.695 c 0.535 0 0.941 0.883 0.754 1.625 c -0.184 0.719 0.266 1.109 1.035 0.902 c 0.383 -0.102 0.488 -0.301 0.383 -0.727 c -0.195 -0.793 0.09 -1.801 0.504 -1.801 c 0.188 0 1.449 -1.188 2.809 -2.637 c 2.051 -2.195 2.605 -2.645 3.305 -2.668 c 0.715 -0.023 0.844 -0.133 0.844 -0.711 c 0 -0.609 -0.109 -0.684 -1.051 -0.684 c -0.656 0 -1.094 -0.141 -1.168 -0.379 c -0.07 -0.211 -0.531 -0.84 -1.027 -1.398 c -1.039 -1.176 -1.059 -1.289 -0.383 -2.117 c 0.398 -0.484 0.781 -0.613 1.832 -0.613 c 0.855 0 1.449 0.145 1.66 0.41 c 0.43 0.527 1.711 0.527 2.141 0 c 0.215 -0.266 0.809 -0.41 1.664 -0.41 c 1.051 0 1.434 0.129 1.828 0.613 c 0.68 0.828 0.656 0.941 -0.379 2.117 c -0.496 0.559 -0.957 1.188 -1.027 1.398 c -0.078 0.238 -0.516 0.379 -1.172 0.379 c -0.938 0 -1.047 0.074 -1.047 0.684 c 0 0.578 0.129 0.688 0.84 0.711 c 0.699 0.023 1.258 0.473 3.309 2.668 c 1.355 1.449 2.621 2.637 2.805 2.637 c 0.418 0 0.699 1.01 0.508 1.801 c -0.105 0.426 0 0.625 0.379 0.727 c 0.773 0.207 1.223 -0.184 1.039 -0.902 c -0.191 -0.742 0.219 -1.625 0.754 -1.625 c 0.211 0 0.586 -0.313 0.832 -0.695 c 0.746 -1.168 1.387 -1.359 2.133 -0.648 c 0.52 0.5 0.641 0.895 0.641 2.043 c 0 0.93 -0.137 1.539 -0.398 1.762 c -0.223 0.188 -0.402 0.68 -0.402 1.094 c 0 0.414 0.18 0.906 0.402 1.094 c 0.664 0.566 0.527 2.789 -0.219 3.508 c -0.34 0.324 -0.73 0.59 -0.871 0.59 c -0.137 -0.004 -0.879 -0.617 -1.648 -1.359 c -1.254 -1.215 -1.383 -1.441 -1.23 -2.203 c 0.156 -0.809 0.125 -0.848 -0.609 -0.762 c -0.703 0.082 -0.773 0.184 -0.773 1.16 c 0 0.715 -0.133 1.113 -0.398 1.199 c -0.223 0.07 -1.379 1.125 -2.574 2.348 c -1.195 1.219 -2.227 2.402 -2.297 2.629 c -0.082 0.273 -0.473 0.41 -1.172 0.41 c -0.938 0 -1.047 0.07 -1.047 0.684 c 0 0.605 0.117 0.688 1.063 0.727 c 0.582 0.023 1.109 0.191 1.172 0.379 c 0.059 0.188 0.516 0.797 1.012 1.359 c 1.07 1.215 1.121 1.691 0.242 2.398 c -0.785 0.633 -2.621 0.598 -3.336 -0.063 c -0.254 -0.234 -0.742 -0.426 -1.09 -0.426 c -0.344 0 -0.832 0.191 -1.09 0.426 c -0.711 0.66 -2.547 0.695 -3.332 0.063 m 3.23 -0.875 c 0.801 -1.254 -0.629 -2.531 -1.887 -1.688 c -0.781 0.52 -1.336 1.5 -1.023 1.801 c 0.121 0.121 0.465 0.277 0.758 0.352 c 1.199 0.293 1.738 0.176 2.152 -0.465 m 5.297 0.129 c 0.309 -0.316 -0.242 -1.293 -1.027 -1.816 c -0.758 -0.508 -1.473 -0.344 -1.957 0.453 c -0.297 0.484 -0.281 0.68 0.094 1.262 c 0.395 0.617 0.563 0.672 1.555 0.512 c 0.609 -0.102 1.211 -0.285 1.336 -0.41 m -5.184 -6.832 c 0.512 -0.98 0.285 -1.441 -1.777 -3.605 c -1.535 -1.613 -2.23 -2.156 -2.754 -2.156 c -0.754 0 -1.344 0.441 -1.344 1 c 0 0.531 4.621 5.289 5.137 5.289 c 0.254 0 0.586 -0.238 0.738 -0.527 m 5.691 -1.945 c 1.289 -1.359 2.34 -2.625 2.34 -2.816 c 0 -0.559 -0.59 -1 -1.344 -1 c -0.523 0 -1.219 0.543 -2.754 2.156 c -1.129 1.188 -2.055 2.363 -2.055 2.617 c 0 0.738 0.52 1.516 1.016 1.516 c 0.25 0 1.508 -1.113 2.797 -2.473 m -16.05 -1.391 c 0.637 -0.875 0.434 -1.781 -0.492 -2.211 c -0.527 -0.246 -0.746 -0.207 -1.199 0.211 c -0.445 0.414 -0.52 0.707 -0.379 1.477 c 0.098 0.531 0.238 1.066 0.313 1.188 c 0.254 0.422 1.234 0.051 1.758 -0.664 m 24.895 -0.32 c 0.195 -0.844 0.148 -1.141 -0.234 -1.57 c -0.598 -0.68 -1.055 -0.676 -1.727 0.012 c -0.68 0.695 -0.672 1.113 0.031 2.027 c 0.813 1.059 1.625 0.859 1.93 -0.469 m -11.379 -0.816 c 0.938 -0.977 1.125 -1.352 1.125 -2.246 c 0 -0.891 -0.188 -1.27 -1.125 -2.246 c -1.566 -1.629 -2.602 -1.629 -4.168 0 c -0.934 0.977 -1.125 1.355 -1.125 2.246 c 0 0.895 0.191 1.27 1.125 2.246 c 0.91 0.949 1.309 1.172 2.086 1.172 c 0.777 0 1.172 -0.223 2.086 -1.172 m -2.699 -1.461 c -0.344 -0.348 -0.199 -1.406 0.211 -1.566 c 0.715 -0.281 1.238 0.121 1.152 0.887 c -0.082 0.703 -0.93 1.129 -1.363 0.68 m -10.844 -2.195 c 0.672 -0.621 0.613 -1.16 -0.23 -2.059 c -1.121 -1.199 -1.508 -1.063 -1.82 0.625 c -0.289 1.586 0.949 2.453 2.051 1.434 m 8.574 -1.66 c 2.199 -2.23 2.473 -2.902 1.547 -3.762 c -0.52 -0.48 -0.59 -0.434 -3.074 2.059 c -1.398 1.402 -2.547 2.688 -2.547 2.855 c 0 0.516 0.609 0.961 1.32 0.961 c 0.484 0 1.262 -0.594 2.754 -2.113 m 9.676 1.492 c 0.25 -0.418 -0.086 -0.871 -2.316 -3.117 c -2.551 -2.578 -2.617 -2.621 -3.141 -2.137 c -0.918 0.848 -0.648 1.508 1.539 3.762 c 1.754 1.805 2.191 2.121 2.848 2.055 c 0.426 -0.043 0.91 -0.297 1.07 -0.563 m 6.449 0.168 c 0.328 -0.336 0.398 -0.699 0.262 -1.434 c -0.309 -1.688 -0.699 -1.82 -1.82 -0.625 c -0.832 0.887 -0.891 1.316 -0.273 2.01 c 0.547 0.621 1.254 0.641 1.832 0.047 m -14.578 -10.484 c 0.672 -0.688 0.668 -0.953 -0.02 -1.656 c -0.43 -0.438 -0.742 -0.523 -1.402 -0.383 c -0.469 0.102 -1.035 0.363 -1.254 0.582 c -0.355 0.352 -0.301 0.488 0.473 1.203 c 1.027 0.945 1.477 0.996 2.203 0.254 m 4.875 -0.254 c 0.773 -0.715 0.828 -0.852 0.473 -1.203 c -0.223 -0.219 -0.785 -0.48 -1.254 -0.582 c -0.66 -0.141 -0.977 -0.055 -1.402 0.383 c -0.688 0.703 -0.691 0.969 -0.02 1.656 c 0.727 0.742 1.176 0.691 2.203 -0.254 m -7.699 21.832 c -0.102 -0.164 -0.047 -0.434 0.117 -0.602 c 0.219 -0.223 0.297 -0.145 0.297 0.297 c 0 0.66 -0.137 0.762 -0.414 0.305 m 7.902 -0.25 c 0 -0.512 0.074 -0.582 0.324 -0.328 c 0.246 0.254 0.246 0.402 0 0.656 c -0.25 0.254 -0.324 0.184 -0.324 -0.328 m -13.238 -5.195 c -0.09 -0.148 0.023 -0.273 0.254 -0.273 c 0.227 0 0.414 0.125 0.414 0.273 c 0 0.152 -0.113 0.273 -0.25 0.273 c -0.141 0 -0.328 -0.121 -0.418 -0.273 m 18.324 0 c 0 -0.148 0.188 -0.273 0.414 -0.273 c 0.23 0 0.344 0.125 0.254 0.273 c -0.09 0.152 -0.281 0.273 -0.418 0.273 c -0.137 0 -0.25 -0.121 -0.25 -0.273 m -18.324 -8.203 c -0.09 -0.148 0.023 -0.273 0.254 -0.273 c 0.227 0 0.414 0.125 0.414 0.273 c 0 0.152 -0.113 0.273 -0.25 0.273 c -0.141 0 -0.328 -0.121 -0.418 -0.273 m 18.324 0 c 0 -0.148 0.188 -0.273 0.414 -0.273 c 0.23 0 0.344 0.125 0.254 0.273 c -0.09 0.152 -0.281 0.273 -0.418 0.273 c -0.137 0 -0.25 -0.121 -0.25 -0.273 m -12.988 -5.219 c -0.102 -0.164 -0.047 -0.434 0.117 -0.602 c 0.219 -0.223 0.297 -0.145 0.297 0.297 c 0 0.66 -0.137 0.762 -0.414 0.305 m 7.902 -0.25 c 0 -0.508 0.074 -0.582 0.324 -0.328 c 0.246 0.258 0.246 0.402 0 0.656 c -0.25 0.258 -0.324 0.184 -0.324 -0.328" fill="#9e624d"/><path d="m 19.969 37.34 c -0.07 -0.113 0.504 -0.203 1.273 -0.203 c 0.77 0 1.324 0.074 1.238 0.164 c -0.238 0.242 -2.371 0.277 -2.512 0.039 m 5.43 0.004 c -0.168 -0.109 0.344 -0.203 1.141 -0.203 c 0.797 -0.004 1.371 0.074 1.277 0.172 c -0.246 0.25 -2.047 0.273 -2.418 0.031 m -2.363 -1.918 c -0.082 -1.129 -0.113 -1.164 -1.133 -1.297 c -1.355 -0.176 -1.625 -0.82 -0.344 -0.82 c 1.84 0 2.09 -1.59 0.32 -2.063 c -1.52 -0.406 -5.742 -4.723 -6.137 -6.277 c -0.215 -0.84 -0.426 -1.113 -0.918 -1.184 c -0.773 -0.113 -1.09 0.336 -1.098 1.547 c -0.004 1.281 -0.637 0.98 -0.805 -0.383 c -0.129 -1.02 -0.191 -1.082 -1.203 -1.211 c -0.879 -0.113 -1.086 -0.254 -1.16 -0.789 c -0.105 -0.758 0.391 -1.184 1.16 -1 c 0.82 0.195 1.152 -0.164 1.25 -1.336 c 0.113 -1.387 0.754 -1.668 0.754 -0.336 c 0 1.117 0.574 1.832 1.309 1.633 c 0.488 -0.129 0.82 -0.82 0.828 -1.73 c 0.004 -0.23 1.16 -1.613 2.574 -3.078 c 2.02 -2.094 2.727 -2.66 3.309 -2.66 c 0.852 0 1.43 -0.57 1.297 -1.285 c -0.059 -0.328 -0.469 -0.578 -1.223 -0.746 c -0.625 -0.145 -1.137 -0.352 -1.137 -0.461 c 0 -0.262 1.063 -0.609 1.258 -0.41 c 0.395 0.398 1.121 -0.453 1.199 -1.402 c 0.07 -0.887 0.172 -1.023 0.75 -1.023 c 0.582 0 0.68 0.137 0.754 1.023 c 0.078 0.949 0.805 1.801 1.199 1.402 c 0.195 -0.199 1.258 0.148 1.258 0.41 c 0 0.109 -0.512 0.316 -1.137 0.461 c -0.758 0.172 -1.164 0.418 -1.223 0.746 c -0.133 0.715 0.441 1.285 1.297 1.285 c 0.582 0 1.285 0.566 3.309 2.66 c 1.414 1.465 2.57 2.848 2.574 3.078 c 0.008 0.91 0.336 1.602 0.828 1.73 c 0.734 0.199 1.309 -0.516 1.309 -1.633 c 0 -1.332 0.641 -1.051 0.754 0.336 c 0.094 1.172 0.43 1.531 1.25 1.336 c 0.77 -0.184 1.266 0.242 1.16 1 c -0.074 0.535 -0.281 0.676 -1.16 0.789 c -1.016 0.129 -1.074 0.191 -1.203 1.211 c -0.172 1.363 -0.801 1.664 -0.805 0.383 c -0.008 -1.211 -0.324 -1.66 -1.098 -1.547 c -0.492 0.07 -0.703 0.344 -0.918 1.184 c -0.395 1.555 -4.617 5.871 -6.137 6.277 c -1.77 0.473 -1.523 2.063 0.32 2.063 c 1.281 0 1.012 0.645 -0.344 0.82 c -1.02 0.133 -1.055 0.172 -1.133 1.297 c -0.074 1.082 -0.137 1.164 -0.852 1.164 c -0.719 0 -0.777 -0.082 -0.855 -1.164 m -0.27 -5.18 c 0.5 -0.512 0.375 -1.984 -0.234 -2.781 l -0.555 -0.719 h 3.824 l -0.555 0.719 c -0.922 1.195 -0.629 3.109 0.469 3.109 c 0.41 0 5 -4.457 5.434 -5.273 c 0.141 -0.27 0.184 -0.73 0.09 -1.023 c -0.129 -0.426 -0.406 -0.539 -1.316 -0.539 c -0.699 0 -1.285 0.164 -1.488 0.41 c -0.609 0.754 -0.801 0.426 -0.801 -1.367 c 0 -1.867 0.09 -2.023 0.789 -1.379 c 0.473 0.441 2.125 0.645 2.633 0.324 c 0.703 -0.445 0.219 -1.281 -2.223 -3.836 c -2.152 -2.25 -2.66 -2.648 -3.277 -2.574 c -0.648 0.074 -0.738 0.211 -0.813 1.203 c -0.051 0.754 0.055 1.23 0.336 1.469 c 0.805 0.684 0.457 0.965 -1.191 0.965 c -1.645 0 -1.996 -0.281 -1.188 -0.965 c 0.277 -0.238 0.387 -0.715 0.332 -1.469 c -0.07 -0.992 -0.164 -1.129 -0.809 -1.203 c -0.617 -0.074 -1.125 0.324 -3.277 2.574 c -2.445 2.555 -2.926 3.391 -2.223 3.836 c 0.508 0.32 2.156 0.117 2.633 -0.324 c 0.699 -0.645 0.789 -0.488 0.789 1.379 c 0 1.793 -0.191 2.121 -0.805 1.367 c -0.199 -0.246 -0.785 -0.41 -1.484 -0.41 c -0.91 0 -1.188 0.113 -1.32 0.539 c -0.242 0.781 0.09 1.25 2.746 3.906 c 2.398 2.391 2.883 2.68 3.484 2.063 m -1.789 -4.469 c -0.352 -0.379 -0.582 -0.746 -0.516 -0.813 c 0.066 -0.07 0.469 0.242 0.887 0.691 c 0.422 0.449 0.656 0.816 0.516 0.813 c -0.137 -0.004 -0.535 -0.316 -0.887 -0.691 m 5.449 -0.121 c 0.422 -0.449 0.824 -0.762 0.891 -0.691 c 0.16 0.164 -1.082 1.496 -1.406 1.504 c -0.137 0.004 0.094 -0.363 0.516 -0.813 m -3.148 -2.09 c -0.344 -0.348 -0.199 -1.406 0.211 -1.566 c 0.715 -0.281 1.238 0.121 1.148 0.887 c -0.078 0.703 -0.926 1.129 -1.359 0.68 m -2.863 -3.039 c 0.008 -0.301 1.328 -1.535 1.48 -1.379 c 0.07 0.07 -0.168 0.457 -0.531 0.855 c -0.668 0.738 -0.957 0.895 -0.949 0.523 m 5.949 -0.539 c -0.332 -0.395 -0.547 -0.77 -0.477 -0.844 c 0.148 -0.152 1.469 1.082 1.473 1.383 c 0.012 0.387 -0.398 0.168 -0.996 -0.539 m -6.598 12.535 c -0.117 -0.191 -0.137 -0.418 -0.051 -0.508 c 0.242 -0.246 0.504 0.113 0.371 0.512 c -0.09 0.277 -0.152 0.277 -0.32 -0.004 m 7.867 -0.156 c 0 -0.234 0.121 -0.426 0.27 -0.426 c 0.145 0 0.266 0.113 0.266 0.258 c 0 0.141 -0.121 0.332 -0.266 0.426 c -0.148 0.094 -0.27 -0.023 -0.27 -0.258 m -13.238 -5.348 c -0.09 -0.148 0.023 -0.273 0.25 -0.273 c 0.23 0 0.418 0.125 0.418 0.273 c 0 0.148 -0.113 0.273 -0.25 0.273 c -0.141 0 -0.328 -0.125 -0.418 -0.273 m 18.324 0 c 0 -0.148 0.188 -0.273 0.414 -0.273 c 0.23 0 0.344 0.125 0.254 0.273 c -0.094 0.148 -0.281 0.273 -0.418 0.273 c -0.137 0 -0.25 -0.125 -0.25 -0.273 m -22.969 -1.367 c -0.016 -1.098 0.051 -1.379 0.238 -1.047 c 0.164 0.281 0.168 0.848 0.02 1.504 c -0.238 1.043 -0.242 1.043 -0.258 -0.457 m 27.961 0.367 c -0.09 -0.551 -0.047 -1.195 0.09 -1.434 c 0.176 -0.313 0.25 -0.02 0.258 1 c 0.008 1.676 -0.125 1.844 -0.348 0.434 m -27.961 -6.109 c 0.016 -1.5 0.02 -1.5 0.258 -0.453 c 0.148 0.652 0.145 1.219 -0.02 1.504 c -0.188 0.332 -0.254 0.047 -0.238 -1.051 m 27.945 0.891 c -0.078 -0.266 -0.039 -0.91 0.09 -1.438 c 0.219 -0.918 0.227 -0.898 0.254 0.48 c 0.027 1.465 -0.094 1.809 -0.344 0.957 m -23.301 -1.984 c -0.09 -0.148 0.023 -0.273 0.25 -0.273 c 0.23 0 0.418 0.125 0.418 0.273 c 0 0.152 -0.113 0.273 -0.25 0.273 c -0.141 0 -0.328 -0.121 -0.418 -0.273 m 18.324 0 c 0 -0.148 0.188 -0.273 0.414 -0.273 c 0.23 0 0.344 0.125 0.254 0.273 c -0.094 0.152 -0.281 0.273 -0.418 0.273 c -0.137 0 -0.25 -0.121 -0.25 -0.273 m -21.938 -1.094 c 0 -0.148 0.121 -0.273 0.27 -0.273 c 0.148 0 0.266 0.125 0.266 0.273 c 0 0.152 -0.117 0.273 -0.266 0.273 c -0.148 0 -0.27 -0.121 -0.27 -0.273 m 25.68 0 c 0 -0.148 0.121 -0.273 0.27 -0.273 c 0.145 0 0.266 0.125 0.266 0.273 c 0 0.152 -0.121 0.273 -0.266 0.273 c -0.148 0 -0.27 -0.121 -0.27 -0.273 m -16.695 -4.063 c -0.113 -0.191 -0.137 -0.422 -0.047 -0.512 c 0.238 -0.246 0.5 0.117 0.371 0.512 c -0.094 0.277 -0.156 0.277 -0.324 0 m 7.867 -0.16 c 0 -0.234 0.121 -0.426 0.27 -0.426 c 0.148 0 0.266 0.117 0.266 0.258 c 0 0.141 -0.117 0.336 -0.266 0.426 c -0.148 0.094 -0.27 -0.023 -0.27 -0.258 m -8.805 -3.863 c 0.012 -0.32 0.078 -0.383 0.164 -0.168 c 0.074 0.199 0.066 0.434 -0.023 0.527 c -0.09 0.09 -0.152 -0.074 -0.141 -0.359 m 9.898 0 c 0.012 -0.32 0.074 -0.383 0.16 -0.168 c 0.078 0.199 0.066 0.434 -0.02 0.527 c -0.09 0.09 -0.152 -0.074 -0.141 -0.359 m -8.316 -1.207 c -0.523 -0.172 -0.359 -0.227 0.754 -0.25 c 0.883 -0.016 1.359 0.078 1.254 0.25 c -0.191 0.313 -1.043 0.313 -2 0 m 4.945 0 c -0.102 -0.172 0.371 -0.266 1.254 -0.25 c 1.113 0.023 1.277 0.078 0.754 0.25 c -0.965 0.313 -1.816 0.313 -2.01 0" fill="#b72119"/></svg>