<svg xmlns="http://www.w3.org/2000/svg" viewBox="0 0 48 48"><defs><linearGradient id="0" gradientUnits="userSpaceOnUse" x1="22.935" y1="42.898" x2="22.871" y2="5.6" gradientTransform="matrix(0.93048 0 0 0.86927 1.414 -0.741)"><stop stop-color="#d26113"/><stop offset="1" stop-color="#d6b945"/></linearGradient></defs><path d="m 8.406 41.04 c -37.84 -49.945 66.3 -57.04 32.879 -6.06 c -7.621 11.621 -22.855 19.285 -32.879 6.06" fill="#2f4e4e"/><path d="m 35.57 35.758 c -0.551 -0.07 -1.039 -0.262 -1.488 -0.582 c -0.18 -0.125 -0.441 -0.359 -0.578 -0.512 c -0.086 -0.094 -0.109 -0.129 -0.133 -0.223 c -0.035 -0.137 -0.145 -0.332 -0.223 -0.395 c -0.031 -0.023 -0.098 -0.066 -0.145 -0.09 c -0.078 -0.043 -0.098 -0.063 -0.191 -0.211 c -0.273 -0.449 -0.484 -0.883 -0.656 -1.359 c -0.137 -0.379 -0.219 -0.672 -0.285 -1.043 c -0.055 -0.309 -0.059 -0.352 -0.023 -0.375 c 0.035 -0.031 0.031 -0.082 -0.027 -0.242 l -0.047 -0.145 v -0.414 c 0 -0.227 0.004 -0.512 0.016 -0.633 c 0.086 -1.137 0.379 -2.25 0.871 -3.32 c 0.125 -0.27 0.383 -0.758 0.504 -0.957 c 0.082 -0.133 0.105 -0.16 0.172 -0.191 c 0.09 -0.043 0.117 -0.078 0.102 -0.148 c -0.008 -0.063 0.035 -0.129 0.18 -0.262 c 0.16 -0.152 0.168 -0.156 0.766 -0.168 c 0.281 -0.004 0.715 -0.016 0.969 -0.027 c 0.77 -0.027 2.242 -0.02 2.641 0.012 c 0.082 0.008 0.117 0.004 0.148 -0.016 c 0.055 -0.031 0.473 -0.031 0.621 0 c 0.27 0.059 0.406 0.195 0.406 0.402 c 0 0.184 -0.086 0.32 -0.367 0.578 c -0.199 0.184 -0.559 0.441 -0.828 0.594 c -0.184 0.105 -0.496 0.246 -0.582 0.258 l -0.059 0.012 l -0.012 -0.094 c -0.02 -0.16 -0.105 -0.27 -0.27 -0.348 c -0.168 -0.074 -0.59 -0.125 -0.934 -0.109 c -0.121 0.004 -0.457 0.016 -0.746 0.023 c -0.656 0.02 -1.051 0.051 -1.133 0.09 c -0.078 0.039 -0.137 0.129 -0.223 0.332 c -0.027 0.059 -0.074 0.145 -0.105 0.184 c -0.074 0.086 -0.09 0.137 -0.117 0.336 c -0.008 0.082 -0.039 0.23 -0.066 0.332 c -0.023 0.102 -0.055 0.238 -0.066 0.301 c -0.02 0.109 -0.016 0.125 0.012 0.18 c 0.043 0.078 0.137 0.121 0.313 0.152 c 0.195 0.035 0.957 0.02 1.637 -0.031 c 0.824 -0.063 1.148 -0.074 1.535 -0.066 c 0.504 0.012 0.73 0.059 0.867 0.188 c 0.121 0.109 0.113 0.258 -0.012 0.438 c -0.094 0.137 -0.25 0.277 -0.301 0.277 c -0.055 0 -0.16 0.074 -0.219 0.148 c -0.055 0.074 -0.309 0.23 -0.602 0.375 c -0.246 0.117 -0.27 0.125 -0.27 0.074 c 0 -0.02 -0.027 -0.066 -0.059 -0.102 c -0.043 -0.047 -0.082 -0.07 -0.145 -0.086 c -0.164 -0.039 -0.613 -0.074 -1.316 -0.102 c -0.832 -0.031 -1.301 0.012 -1.438 0.129 c -0.09 0.078 -0.094 0.102 -0.094 0.441 c 0.004 1.016 0.379 2.285 0.914 3.07 c 0.043 0.066 0.078 0.137 0.078 0.16 c 0 0.047 0.051 0.148 0.09 0.195 c 0.027 0.027 0.129 0.07 0.172 0.07 c 0.016 0 0.043 -0.008 0.059 -0.02 c 0.023 -0.02 0.031 -0.02 0.078 0.02 c 0.059 0.051 0.066 0.082 0.031 0.117 c -0.023 0.02 -0.016 0.031 0.094 0.113 c 0.242 0.18 0.379 0.25 1.051 0.535 c 0.32 0.137 0.617 0.176 0.902 0.121 c 0.332 -0.063 0.668 -0.191 1.301 -0.512 c 0.52 -0.258 0.609 -0.301 0.609 -0.285 c 0 0.031 -0.262 0.492 -0.359 0.637 c -0.273 0.395 -0.578 0.723 -1.094 1.176 c -0.512 0.449 -1.051 0.832 -1.336 0.953 c -0.102 0.043 -0.133 0.051 -0.301 0.055 c -0.098 0 -0.23 -0.004 -0.293 -0.012 m -7.91 -0.098 c -0.266 -0.082 -0.313 -0.109 -0.52 -0.293 c -0.188 -0.168 -0.328 -0.324 -0.426 -0.473 c -0.066 -0.105 -0.07 -0.117 -0.07 -0.238 v -0.121 l -0.086 -0.102 c -0.043 -0.055 -0.09 -0.121 -0.098 -0.145 c -0.008 -0.027 -0.02 -1.031 -0.023 -2.234 c -0.012 -2.09 -0.016 -2.195 -0.047 -2.375 c -0.02 -0.105 -0.047 -0.207 -0.059 -0.23 c -0.016 -0.02 -0.059 -0.043 -0.094 -0.055 c -0.039 -0.012 -0.07 -0.023 -0.07 -0.027 c 0 -0.016 0.125 -0.172 0.215 -0.277 c 0.039 -0.043 0.074 -0.098 0.082 -0.121 c 0.008 -0.023 0.063 -0.098 0.121 -0.164 c 0.145 -0.156 0.152 -0.18 0.086 -0.242 l -0.051 -0.043 h -0.652 c -0.645 0 -0.656 -0.004 -0.691 -0.035 c -0.031 -0.031 -0.047 -0.031 -0.207 -0.023 c -0.125 0.004 -0.184 0.012 -0.215 0.031 c -0.035 0.023 -0.051 0.023 -0.07 0.008 c -0.016 -0.012 -0.055 -0.012 -0.117 -0.008 c -0.234 0.023 -0.469 0.008 -0.543 -0.043 c -0.09 -0.055 -0.125 -0.109 -0.125 -0.207 c 0 -0.098 0.039 -0.16 0.207 -0.324 c 0.254 -0.258 0.941 -0.684 0.969 -0.605 c 0.016 0.035 0.098 0.098 0.168 0.129 c 0.07 0.031 0.117 0.031 1.973 0.031 l 1.898 -0.004 l 0.098 0.039 c 0.141 0.055 0.27 0.055 0.332 0 c 0.051 -0.043 0.094 -0.043 0.543 -0.023 c 0.211 0.012 0.273 0.02 0.34 0.047 c 0.102 0.039 0.184 0.109 0.23 0.195 c 0.047 0.078 0.051 0.281 0.008 0.355 c -0.027 0.047 -0.422 0.398 -0.641 0.57 c -0.109 0.086 -0.273 0.188 -0.297 0.188 c -0.008 0 -0.012 -0.012 -0.012 -0.031 c 0 -0.047 -0.059 -0.141 -0.125 -0.195 c -0.113 -0.09 -0.156 -0.094 -0.973 -0.094 h -0.738 l -0.059 0.035 c -0.086 0.055 -0.102 0.113 -0.102 0.426 c 0 0.148 0.012 0.387 0.023 0.523 c 0.012 0.141 0.02 0.445 0.02 0.68 v 0.422 l -0.043 0.098 c -0.113 0.227 -0.121 0.457 -0.027 0.59 l 0.051 0.066 l -0.012 0.234 c -0.008 0.125 -0.012 0.508 -0.012 0.848 c 0 0.492 0.004 0.656 0.027 0.813 c 0.035 0.25 0.086 0.465 0.137 0.594 c 0.023 0.055 0.039 0.117 0.039 0.145 c 0 0.07 0.047 0.148 0.098 0.172 c 0.027 0.008 0.102 0.066 0.164 0.129 c 0.063 0.063 0.145 0.129 0.184 0.152 c 0.117 0.063 0.309 0.098 0.52 0.098 c 0.227 0 0.297 -0.016 0.465 -0.094 c 0.074 -0.031 0.133 -0.051 0.141 -0.043 c 0.012 0.02 -0.148 0.246 -0.297 0.406 c -0.172 0.191 -0.559 0.535 -0.742 0.66 c -0.211 0.148 -0.43 0.242 -0.566 0.25 c -0.09 0.008 -0.133 0 -0.328 -0.063 m -10.02 0.043 c -0.008 -0.004 0.008 -0.035 0.027 -0.066 c 0.113 -0.156 0.145 -0.289 0.168 -0.754 c 0.012 -0.176 0.016 -0.211 0.047 -0.234 c 0.074 -0.07 0.086 -0.16 0.035 -0.254 c -0.047 -0.082 -0.051 -0.184 -0.035 -1.152 c 0.012 -0.797 0.02 -1 0.039 -1.055 c 0.043 -0.121 0.047 -0.191 0.012 -0.25 c -0.027 -0.051 -0.031 -0.121 -0.039 -1.223 c -0.012 -1.313 -0.008 -1.285 -0.125 -1.398 c -0.047 -0.039 -0.078 -0.059 -0.113 -0.059 h -0.047 l 0.043 -0.078 c 0.023 -0.039 0.125 -0.172 0.23 -0.285 c 0.211 -0.238 0.297 -0.348 0.297 -0.379 c 0 -0.016 -0.02 -0.043 -0.039 -0.063 c -0.035 -0.031 -0.063 -0.039 -0.156 -0.047 c -0.199 -0.02 -0.363 -0.043 -0.41 -0.066 c -0.063 -0.031 -0.148 -0.027 -0.199 0.012 c -0.086 0.059 -0.32 0.031 -0.43 -0.055 c -0.055 -0.047 -0.063 -0.059 -0.063 -0.121 c 0 -0.055 0.016 -0.086 0.066 -0.16 c 0.172 -0.238 0.641 -0.602 0.938 -0.723 c 0.129 -0.051 0.164 -0.059 0.164 -0.035 c 0 0.027 0.094 0.109 0.16 0.141 c 0.172 0.078 0.605 0.078 1.832 0 c 0.285 -0.02 0.602 -0.027 1.039 -0.027 c 0.816 0.004 1.109 0.031 1.352 0.129 c 0.133 0.059 0.172 0.086 0.172 0.137 c 0 0.051 0.098 0.141 0.156 0.141 c 0.074 0 0.152 0.141 0.203 0.359 c 0.031 0.145 0.031 0.32 0.008 2.191 c -0.02 1.328 -0.023 1.422 -0.051 1.48 c -0.047 0.09 -0.055 0.152 -0.035 0.227 c 0.02 0.063 0.02 0.078 -0.016 0.148 c -0.035 0.078 -0.035 0.094 -0.027 0.379 c 0.008 0.215 0.02 0.316 0.035 0.352 c 0.02 0.039 0.027 0.148 0.031 0.551 c 0.008 0.445 0.012 0.516 0.047 0.652 c 0.02 0.082 0.051 0.176 0.066 0.207 c 0.043 0.082 0.18 0.191 0.273 0.227 l 0.078 0.027 l -0.027 0.047 c -0.117 0.211 -0.895 0.859 -1.215 1.012 c -0.113 0.055 -0.152 0.066 -0.23 0.066 c -0.168 0 -0.313 -0.105 -0.383 -0.277 c -0.09 -0.215 -0.09 -0.238 -0.078 -1.723 c 0.004 -0.758 0.016 -1.445 0.023 -1.535 c 0.008 -0.086 0.008 -0.418 0 -0.73 c -0.02 -0.621 -0.02 -0.641 -0.121 -0.707 c -0.047 -0.031 -0.063 -0.031 -0.945 -0.039 l -0.902 -0.004 l -0.055 0.035 c -0.035 0.023 -0.066 0.059 -0.078 0.094 c -0.066 0.18 -0.086 0.742 -0.059 1.477 c 0.02 0.414 0.02 0.535 0 0.605 c -0.016 0.074 -0.016 0.09 0.008 0.125 c 0.023 0.031 0.027 0.094 0.027 0.438 c 0 0.543 -0.031 0.82 -0.133 1.164 c -0.078 0.254 -0.176 0.43 -0.313 0.555 c -0.195 0.18 -0.441 0.309 -0.742 0.395 c -0.098 0.027 -0.234 0.066 -0.301 0.086 c -0.07 0.016 -0.141 0.039 -0.16 0.043 c -0.02 0.008 -0.039 0.008 -0.047 0 m 3.695 -5.945 c 0.141 -0.063 0.184 -0.219 0.164 -0.617 c -0.02 -0.543 -0.098 -0.668 -0.453 -0.723 c -0.152 -0.027 -1.344 -0.051 -1.504 -0.031 c -0.074 0.008 -0.105 0.02 -0.148 0.059 l -0.051 0.051 l 0.012 0.227 c 0.012 0.219 0.012 0.23 -0.023 0.281 c -0.031 0.047 -0.035 0.066 -0.027 0.129 c 0.008 0.039 0.023 0.094 0.035 0.125 c 0.016 0.027 0.023 0.105 0.023 0.18 c 0 0.211 0.043 0.254 0.281 0.289 c 0.223 0.039 0.512 0.051 1.098 0.055 c 0.465 0 0.539 -0.004 0.59 -0.023 m -11.312 5.816 c -0.074 -0.02 -0.172 -0.086 -0.238 -0.168 c -0.129 -0.152 -0.305 -0.543 -0.379 -0.848 c -0.035 -0.141 -0.035 -0.191 -0.043 -1.031 l -0.004 -0.883 l 0.043 -0.047 c 0.074 -0.082 0.098 -0.137 0.098 -0.234 c -0.004 -0.105 -0.051 -0.211 -0.105 -0.238 c -0.035 -0.02 -0.035 -0.035 -0.035 -0.77 c 0 -0.594 0.004 -0.773 0.023 -0.867 c 0.051 -0.242 0.066 -0.527 0.066 -1.254 c 0.004 -1.074 -0.051 -1.59 -0.203 -1.941 c -0.043 -0.102 -0.164 -0.242 -0.242 -0.281 c -0.027 -0.012 -0.012 -0.031 0.137 -0.164 c 0.098 -0.094 0.188 -0.191 0.219 -0.246 c 0.031 -0.051 0.094 -0.129 0.137 -0.172 c 0.16 -0.156 0.367 -0.383 0.367 -0.41 c 0 -0.012 -0.016 -0.039 -0.031 -0.059 c -0.051 -0.059 -0.199 -0.078 -0.758 -0.094 c -0.57 -0.016 -0.77 -0.035 -0.898 -0.078 c -0.176 -0.059 -0.277 -0.188 -0.238 -0.301 c 0.051 -0.16 0.32 -0.43 0.473 -0.469 c 0.195 -0.047 0.434 -0.199 0.484 -0.309 c 0.023 -0.051 0.211 -0.156 0.484 -0.266 c 0.258 -0.102 0.254 -0.102 0.285 -0.012 c 0.035 0.09 0.148 0.191 0.242 0.219 c 0.113 0.031 0.57 0.035 0.953 0.008 c 0.23 -0.02 0.422 -0.023 0.547 -0.02 c 0.359 0.02 0.555 0.02 0.613 0 c 0.102 -0.031 0.316 -0.055 0.355 -0.035 c 0.043 0.02 0.172 0.02 0.246 -0.008 c 0.059 -0.023 0.387 -0.047 1.359 -0.102 c 0.477 -0.027 1.355 -0.035 1.625 -0.016 c 0.656 0.047 1.066 0.152 1.363 0.348 c 0.137 0.09 0.188 0.176 0.156 0.273 c -0.078 0.273 -0.402 0.594 -0.984 0.984 c -0.219 0.145 -0.453 0.277 -0.633 0.355 c -0.133 0.055 -0.285 0.102 -0.297 0.086 c -0.008 -0.004 0 -0.027 0.008 -0.059 c 0.027 -0.063 0.012 -0.227 -0.023 -0.285 c -0.07 -0.129 -0.215 -0.207 -0.469 -0.254 c -0.246 -0.047 -0.5 -0.059 -1.465 -0.078 c -1.449 -0.027 -1.859 0.012 -1.961 0.188 c -0.031 0.051 -0.031 0.09 -0.027 0.762 l 0.004 0.711 l 0.043 0.063 c 0.027 0.035 0.07 0.074 0.102 0.086 c 0.07 0.031 0.328 0.055 0.754 0.074 c 0.188 0.008 0.391 0.02 0.453 0.031 c 0.063 0.012 0.145 0.012 0.191 0.008 c 0.133 -0.02 2.059 -0.027 2.16 -0.008 c 0.125 0.02 0.23 0.07 0.273 0.129 c 0.031 0.039 0.039 0.066 0.039 0.148 c 0 0.086 -0.012 0.117 -0.066 0.207 c -0.121 0.219 -0.504 0.539 -0.773 0.652 c -0.094 0.043 -0.145 0.074 -0.156 0.098 c -0.016 0.027 -0.066 0.059 -0.164 0.102 c -0.203 0.086 -0.215 0.09 -0.227 0.043 c -0.016 -0.055 -0.121 -0.16 -0.203 -0.199 c -0.066 -0.031 -0.07 -0.035 -1.125 -0.035 h -1.059 l -0.059 0.055 c -0.066 0.059 -0.09 0.113 -0.133 0.32 c -0.047 0.199 -0.063 0.434 -0.078 1.145 c -0.008 0.387 -0.023 0.887 -0.035 1.117 c -0.031 0.711 -0.004 1.414 0.078 1.762 c 0.012 0.063 0.023 0.152 0.023 0.203 c 0 0.109 0.023 0.164 0.074 0.188 c 0.02 0.008 0.059 0.051 0.086 0.094 c 0.063 0.094 0.199 0.211 0.305 0.258 c 0.043 0.02 0.129 0.047 0.191 0.063 l 0.113 0.023 l -0.129 0.176 c -0.309 0.422 -0.449 0.57 -0.766 0.813 c -0.438 0.34 -0.91 0.52 -1.168 0.449 m 11.449 -10.508 c -0.438 -0.043 -0.852 -0.246 -1.125 -0.555 c -0.27 -0.301 -0.504 -0.727 -0.543 -0.984 c -0.012 -0.051 -0.027 -0.113 -0.043 -0.133 c -0.012 -0.02 -0.023 -0.059 -0.023 -0.086 c 0.012 -0.195 0.004 -0.273 -0.031 -0.344 c -0.043 -0.09 -0.047 -0.258 -0.02 -0.617 c 0.051 -0.637 0.176 -1.023 0.547 -1.703 c 0.105 -0.191 0.188 -0.355 0.188 -0.363 c 0 -0.012 -0.016 -0.035 -0.031 -0.059 c -0.035 -0.039 -0.039 -0.039 -0.289 -0.043 c -0.281 -0.008 -0.34 -0.023 -0.395 -0.109 c -0.063 -0.094 0.066 -0.254 0.387 -0.477 c 0.125 -0.086 0.418 -0.242 0.453 -0.242 c 0.004 0 0.012 0.02 0.012 0.043 c 0 0.102 0.043 0.109 0.5 0.109 c 0.328 0 0.387 0.004 0.402 0.023 c 0.027 0.027 0.137 0.023 0.367 -0.008 c 0.184 -0.027 0.594 -0.012 0.762 0.027 c 0.445 0.109 0.758 0.418 0.938 0.926 c 0.078 0.227 0.113 0.391 0.195 0.949 c 0.074 0.504 0.082 0.645 0.051 0.934 c -0.031 0.277 -0.102 0.637 -0.129 0.656 c -0.035 0.027 -0.059 0.094 -0.059 0.188 c 0 0.191 -0.262 0.801 -0.359 0.836 c -0.031 0.012 -0.039 0.023 -0.039 0.059 c 0 0.113 -0.32 0.457 -0.613 0.66 c -0.172 0.117 -0.305 0.18 -0.582 0.258 c -0.258 0.07 -0.289 0.074 -0.52 0.051 m 0.797 -0.875 c 0.313 -0.102 0.539 -0.426 0.641 -0.926 c 0.027 -0.121 0.031 -0.223 0.031 -0.563 c 0 -0.441 -0.027 -0.715 -0.094 -1.02 c -0.02 -0.082 -0.027 -0.168 -0.023 -0.188 c 0.008 -0.02 -0.004 -0.047 -0.031 -0.078 c -0.02 -0.023 -0.059 -0.105 -0.086 -0.18 c -0.039 -0.105 -0.102 -0.219 -0.25 -0.441 c -0.23 -0.352 -0.355 -0.477 -0.543 -0.559 c -0.109 -0.047 -0.113 -0.051 -0.41 -0.055 c -0.336 -0.004 -0.363 0 -0.453 0.094 c -0.074 0.074 -0.121 0.164 -0.195 0.383 c -0.039 0.121 -0.066 0.172 -0.109 0.207 c -0.047 0.043 -0.09 0.133 -0.09 0.199 c 0 0.016 0.012 0.051 0.027 0.078 c 0.023 0.047 0.023 0.063 0 0.172 c -0.051 0.234 -0.078 0.445 -0.078 0.652 c 0 0.824 0.262 1.598 0.668 1.973 c 0.273 0.246 0.684 0.352 0.996 0.25 m 2.918 0.797 c -0.059 -0.016 -0.102 -0.047 -0.164 -0.129 c -0.039 -0.047 -0.047 -0.074 -0.047 -0.145 c 0 -0.07 -0.012 -0.109 -0.066 -0.211 l -0.066 -0.121 v -0.941 c 0 -0.641 0.004 -0.973 0.02 -1.039 c 0.023 -0.137 0.023 -1.012 0 -1.199 c -0.031 -0.211 -0.055 -0.297 -0.09 -0.328 c -0.016 -0.016 -0.031 -0.039 -0.031 -0.051 c 0 -0.012 -0.031 -0.047 -0.07 -0.078 l -0.07 -0.059 l 0.066 -0.047 c 0.078 -0.059 0.203 -0.172 0.309 -0.293 c 0.059 -0.063 0.078 -0.098 0.074 -0.121 c -0.02 -0.066 -0.07 -0.078 -0.406 -0.09 c -0.328 -0.012 -0.383 -0.023 -0.457 -0.09 c -0.059 -0.051 -0.059 -0.105 0 -0.184 c 0.121 -0.152 0.578 -0.453 0.742 -0.488 c 0.035 -0.008 0.047 -0.004 0.055 0.027 c 0.008 0.023 0.039 0.059 0.07 0.082 c 0.059 0.039 0.07 0.043 0.281 0.047 c 0.246 0.008 0.789 -0.016 1.199 -0.051 c 0.438 -0.039 0.949 -0.047 1.121 -0.02 c 0.203 0.035 0.324 0.082 0.41 0.156 c 0.086 0.074 0.094 0.121 0.047 0.227 c -0.02 0.043 -0.043 0.066 -0.082 0.082 c -0.09 0.035 -0.227 0.191 -0.227 0.258 c 0 0.027 -0.195 0.188 -0.285 0.23 l -0.063 0.031 v -0.035 c 0 -0.039 -0.07 -0.145 -0.117 -0.176 c -0.102 -0.074 -0.289 -0.098 -0.863 -0.102 c -0.512 -0.004 -0.57 0.004 -0.637 0.086 c -0.043 0.051 -0.043 0.051 -0.043 0.379 c 0 0.363 0.008 0.395 0.105 0.445 c 0.047 0.023 0.121 0.027 0.723 0.031 c 0.559 0.004 0.676 0.008 0.707 0.027 c 0.02 0.012 0.082 0.027 0.141 0.031 c 0.09 0.008 0.102 0.016 0.125 0.055 c 0.023 0.043 0.023 0.055 0 0.117 c -0.063 0.148 -0.434 0.426 -0.656 0.488 c -0.035 0.008 -0.039 0.004 -0.039 -0.031 c 0 -0.02 -0.016 -0.051 -0.035 -0.07 c -0.031 -0.027 -0.055 -0.027 -0.477 -0.027 h -0.445 l -0.055 0.051 c -0.047 0.039 -0.055 0.066 -0.074 0.168 c -0.012 0.066 -0.02 0.141 -0.02 0.164 c 0 0.027 -0.012 0.07 -0.031 0.098 c -0.039 0.059 -0.043 0.133 -0.008 0.145 c 0.02 0.008 0.023 0.105 0.02 0.727 c -0.004 0.777 0 0.805 0.09 1.031 c 0.047 0.117 0.211 0.27 0.305 0.293 l 0.066 0.012 l -0.191 0.172 c -0.324 0.289 -0.539 0.43 -0.699 0.461 c -0.035 0.004 -0.07 0.012 -0.086 0.016 c -0.012 0 -0.047 0 -0.07 -0.008 m -13.02 -3.035 c -0.016 -0.008 -0.016 -0.02 0.016 -0.043 c 0.113 -0.094 0.578 -0.664 0.676 -0.836 c 0.035 -0.055 0.102 -0.164 0.148 -0.238 c 0.117 -0.184 0.191 -0.32 0.23 -0.422 c 0.086 -0.238 0.176 -1 0.223 -1.938 c 0.012 -0.191 0.016 -0.219 0.047 -0.25 c 0.031 -0.027 0.039 -0.059 0.039 -0.141 c 0 -0.082 0.008 -0.113 0.035 -0.148 c 0.047 -0.051 0.063 -0.145 0.047 -0.313 c -0.016 -0.172 -0.035 -0.238 -0.082 -0.289 l -0.039 -0.047 l 0.012 -0.598 c 0.008 -0.332 0.016 -1.172 0.02 -1.863 c 0.004 -1.254 0.004 -1.266 -0.031 -1.418 c -0.063 -0.262 -0.195 -0.465 -0.344 -0.531 c -0.066 -0.027 -0.102 -0.031 -0.398 -0.031 c -0.32 0 -0.32 0 -0.371 -0.039 c -0.063 -0.047 -0.09 -0.047 -0.266 0 c -0.137 0.039 -0.152 0.039 -0.66 0.039 c -0.691 0 -0.828 0.023 -0.926 0.152 c -0.035 0.051 -0.035 0.055 -0.035 0.586 c 0 0.293 -0.008 1.074 -0.02 1.734 c -0.016 1.125 -0.02 1.207 -0.051 1.273 c -0.039 0.086 -0.043 0.188 -0.004 0.211 c 0.02 0.02 0.023 0.09 0.023 0.453 c 0 0.523 0.023 0.664 0.141 0.777 c 0.051 0.051 0.156 0.102 0.223 0.102 h 0.055 l -0.066 0.086 c -0.117 0.164 -0.473 0.559 -0.641 0.723 c -0.266 0.254 -0.473 0.402 -0.594 0.422 c -0.059 0.012 -0.094 0.027 -0.133 0.066 c -0.086 0.086 -0.352 0.141 -0.504 0.102 c -0.172 -0.043 -0.313 -0.234 -0.375 -0.5 c -0.031 -0.145 -0.066 -0.574 -0.055 -0.68 c 0.004 -0.031 0.016 -0.172 0.023 -0.309 c 0.012 -0.133 0.027 -0.293 0.035 -0.355 c 0.016 -0.086 0.016 -0.156 -0.008 -0.359 c -0.059 -0.527 -0.059 -1.332 -0.004 -2.242 c 0.016 -0.219 0.035 -0.563 0.047 -0.762 c 0.016 -0.34 0.02 -0.363 0.055 -0.398 c 0.168 -0.172 0.184 -0.523 0.031 -0.703 l -0.055 -0.07 v -0.465 c 0 -0.57 -0.027 -1.508 -0.051 -1.762 c -0.043 -0.48 -0.105 -0.617 -0.297 -0.684 l -0.047 -0.016 l 0.211 -0.195 c 0.375 -0.352 1.199 -0.977 1.527 -1.16 c 0.074 -0.043 0.055 -0.066 0.219 0.23 c 0.129 0.234 0.195 0.395 0.238 0.551 c 0.02 0.082 0.02 0.102 -0.004 0.141 c -0.031 0.059 -0.031 0.063 0.027 0.184 l 0.055 0.105 l -0.004 0.926 c -0.004 0.855 -0.004 0.934 0.023 0.984 c 0.02 0.039 0.051 0.066 0.086 0.078 c 0.051 0.02 0.066 0.02 0.129 -0.008 c 0.039 -0.016 0.188 -0.102 0.336 -0.191 c 0.418 -0.258 0.254 -0.23 1.414 -0.238 l 0.996 -0.004 l 0.043 -0.039 l 0.047 -0.039 l 0.012 -0.828 c 0.012 -0.922 0.008 -0.984 -0.082 -1.105 c -0.039 -0.055 -0.086 -0.09 -0.176 -0.137 c -0.164 -0.082 -0.172 -0.094 -0.102 -0.188 c 0.082 -0.109 0.336 -0.41 0.484 -0.566 c 0.375 -0.406 0.789 -0.688 1.105 -0.754 c 0.211 -0.047 0.332 -0.027 0.453 0.078 c 0.102 0.086 0.172 0.219 0.215 0.402 c 0.035 0.145 0.07 0.57 0.059 0.691 c -0.004 0.039 -0.016 0.184 -0.023 0.32 c -0.012 0.137 -0.027 0.293 -0.039 0.348 c -0.012 0.078 -0.012 0.152 0.012 0.352 c 0.043 0.383 0.059 0.91 0.043 1.41 c -0.02 0.508 -0.078 1.496 -0.094 1.52 c -0.004 0.008 -0.012 0.703 -0.016 1.543 c -0.004 1.523 -0.027 2.566 -0.063 2.652 c -0.023 0.07 -0.039 0.352 -0.016 0.387 c 0.016 0.031 0.008 0.277 -0.031 0.93 c -0.039 0.645 -0.059 0.793 -0.156 1.063 c -0.141 0.418 -0.359 0.75 -0.695 1.07 c -0.363 0.344 -0.59 0.477 -1.68 0.98 c -0.293 0.137 -0.547 0.246 -0.57 0.246 c -0.02 0 -0.047 -0.008 -0.059 -0.012 m 22.13 -2.578 c -0.227 -0.008 -0.629 -0.02 -0.898 -0.031 c -0.266 -0.008 -0.734 -0.02 -1.043 -0.023 c -0.309 -0.004 -0.57 -0.016 -0.578 -0.023 c -0.09 -0.063 -0.23 -0.078 -0.34 -0.039 c -0.059 0.023 -0.07 0.023 -0.164 -0.008 c -0.117 -0.035 -0.348 -0.152 -0.348 -0.176 c 0 -0.008 0.023 -0.02 0.051 -0.023 c 0.086 -0.02 0.324 -0.145 0.445 -0.238 c 0.191 -0.152 0.313 -0.328 0.43 -0.633 c 0.113 -0.293 0.117 -0.348 0.133 -1.078 l 0.012 -0.66 l 0.059 -0.086 c 0.051 -0.074 0.055 -0.094 0.063 -0.223 c 0.004 -0.148 -0.012 -0.223 -0.07 -0.305 l -0.039 -0.051 l 0.012 -0.73 c 0.051 -2.785 0.051 -3.648 0.008 -3.809 c -0.07 -0.27 -0.23 -0.43 -0.43 -0.434 c -0.047 0 -0.082 -0.004 -0.082 -0.008 c 0 -0.039 0.133 -0.199 0.273 -0.336 c 0.184 -0.176 0.379 -0.328 0.711 -0.559 c 0.109 -0.078 0.207 -0.152 0.211 -0.172 c 0.016 -0.039 -0.016 -0.09 -0.066 -0.102 c -0.023 -0.004 -0.129 0 -0.238 0.008 c -0.109 0.008 -0.273 0.02 -0.367 0.027 c -0.168 0.008 -0.172 0.008 -0.223 -0.031 c -0.027 -0.023 -0.07 -0.047 -0.094 -0.051 c -0.063 -0.016 -0.18 0.004 -0.297 0.047 c -0.059 0.023 -0.133 0.039 -0.164 0.039 c -0.105 0 -0.367 -0.059 -0.441 -0.098 c -0.34 -0.184 -0.066 -0.617 0.719 -1.129 c 0.215 -0.137 0.336 -0.207 0.523 -0.285 c 0.133 -0.059 0.145 -0.063 0.164 -0.035 c 0.043 0.066 0.102 0.121 0.164 0.148 c 0.063 0.023 0.121 0.027 0.551 0.027 c 0.48 0 0.484 0 0.516 0.035 c 0.027 0.031 0.043 0.035 0.195 0.035 c 0.129 0 0.184 -0.008 0.254 -0.035 c 0.086 -0.035 0.098 -0.035 1.102 -0.035 c 1.676 0.004 2.238 0.027 2.668 0.117 c 0.344 0.07 0.504 0.148 0.754 0.375 c 0.207 0.191 0.336 0.363 0.5 0.672 c 0.188 0.359 0.34 0.766 0.457 1.258 c 0.039 0.148 0.039 0.188 0.027 0.266 c -0.039 0.219 -0.012 0.406 0.074 0.523 c 0.039 0.055 0.047 0.078 0.063 0.324 c 0.027 0.406 -0.02 1.188 -0.121 2.051 c -0.055 0.469 -0.145 0.824 -0.371 1.449 c -0.086 0.25 -0.125 0.34 -0.164 0.375 c -0.078 0.074 -0.117 0.16 -0.117 0.262 c 0 0.105 -0.043 0.215 -0.344 0.879 c -0.52 1.156 -0.965 1.953 -1.316 2.352 c -0.141 0.16 -0.117 0.152 -0.797 0.176 c -0.582 0.016 -0.59 0.016 -0.629 -0.012 c -0.02 -0.02 -0.063 -0.039 -0.094 -0.051 c -0.063 -0.02 -0.426 -0.02 -0.652 -0.004 c -0.117 0.008 -0.145 0.016 -0.164 0.047 c -0.016 0.02 -0.039 0.031 -0.051 0.031 c -0.016 0 -0.215 -0.008 -0.438 -0.016 m 0.746 -1.316 c 1.656 -0.012 1.539 0 1.648 -0.129 c 0.121 -0.141 0.313 -0.531 0.395 -0.813 c 0.02 -0.063 0.055 -0.121 0.098 -0.168 c 0.074 -0.086 0.094 -0.16 0.059 -0.207 c -0.02 -0.031 -0.016 -0.059 0.031 -0.242 c 0.031 -0.117 0.07 -0.301 0.09 -0.41 c 0.02 -0.109 0.055 -0.258 0.082 -0.332 c 0.133 -0.355 0.234 -1.148 0.25 -1.988 c 0.016 -0.984 -0.086 -1.715 -0.324 -2.383 c -0.379 -1.051 -1.035 -1.582 -2.133 -1.738 c -0.113 -0.016 -0.34 -0.027 -0.637 -0.031 c -0.422 -0.008 -0.465 -0.004 -0.52 0.02 c -0.113 0.055 -0.113 0.066 -0.133 0.629 c -0.008 0.281 -0.031 0.773 -0.047 1.094 c -0.051 1.086 -0.031 2.523 0.039 3.066 c 0.016 0.102 0.031 0.215 0.035 0.254 c 0.008 0.043 0 0.117 -0.016 0.18 c -0.035 0.145 -0.035 0.313 0.008 0.84 c 0.031 0.41 0.031 0.445 0.004 0.605 c -0.027 0.18 -0.102 0.406 -0.195 0.594 c -0.031 0.066 -0.199 0.309 -0.367 0.539 c -0.172 0.234 -0.316 0.441 -0.324 0.457 c -0.016 0.055 0.012 0.113 0.074 0.152 c 0.059 0.039 0.066 0.039 0.234 0.031 c 0.098 -0.008 0.84 -0.016 1.648 -0.02 m -6.996 -1 c -0.191 -0.047 -0.301 -0.188 -0.352 -0.453 c -0.039 -0.211 -0.035 -0.262 0.031 -0.344 c 0.051 -0.066 0.055 -0.078 0.059 -0.227 c 0.008 -0.176 -0.008 -0.25 -0.07 -0.316 l -0.043 -0.047 l 0.008 -0.793 c 0.004 -0.434 0.012 -0.836 0.016 -0.895 c 0.008 -0.074 0.008 -0.117 -0.008 -0.145 c -0.016 -0.027 -0.02 -0.23 -0.008 -0.957 c 0.012 -1.023 0.035 -1.578 0.066 -1.73 c 0.043 -0.184 0.133 -0.316 0.449 -0.672 c 0.109 -0.125 0.246 -0.289 0.301 -0.363 c 0.117 -0.164 0.125 -0.215 0.047 -0.277 l -0.051 -0.039 h -1.375 c -1.523 0 -1.434 -0.008 -1.496 0.098 c -0.027 0.047 -0.027 0.105 -0.008 0.949 c 0.02 0.871 0.043 2.047 0.051 2.457 c 0.012 0.965 -0.027 1.77 -0.117 2.301 c -0.023 0.16 -0.039 0.199 -0.113 0.332 c -0.129 0.234 -0.23 0.344 -0.461 0.5 c -0.227 0.156 -0.543 0.309 -0.867 0.43 c -0.117 0.043 -0.215 0.078 -0.223 0.078 c -0.02 0 0.043 -0.109 0.133 -0.238 c 0.168 -0.23 0.191 -0.328 0.203 -0.863 c 0.008 -0.301 0.012 -0.332 0.051 -0.41 c 0.066 -0.141 0.051 -0.313 -0.031 -0.395 c -0.031 -0.027 -0.035 -0.066 -0.051 -0.461 c -0.016 -0.348 -0.016 -0.465 0.004 -0.629 c 0.02 -0.172 0.039 -1.305 0.035 -1.934 c -0.004 -0.07 -0.004 -0.254 0 -0.402 c 0 -0.297 -0.039 -0.727 -0.074 -0.805 c -0.023 -0.055 -0.125 -0.145 -0.188 -0.164 c -0.051 -0.016 -0.051 -0.031 -0.016 -0.098 c 0.051 -0.086 0.164 -0.211 0.391 -0.43 c 0.121 -0.117 0.219 -0.219 0.219 -0.23 c 0 -0.012 -0.012 -0.035 -0.023 -0.055 c -0.027 -0.035 -0.035 -0.035 -0.309 -0.035 h -0.277 l -0.105 -0.051 l -0.105 -0.047 l -0.055 0.027 c -0.059 0.027 -0.059 0.027 -0.137 -0.008 c -0.16 -0.07 -0.207 -0.203 -0.125 -0.352 c 0.059 -0.105 0.285 -0.305 0.504 -0.438 c 0.211 -0.129 0.438 -0.242 0.48 -0.242 c 0.016 0 0.043 0.027 0.063 0.066 c 0.02 0.035 0.059 0.074 0.094 0.09 c 0.055 0.031 0.082 0.031 0.469 0.023 c 0.223 -0.004 0.516 -0.016 0.645 -0.027 c 0.145 -0.012 0.426 -0.016 0.75 -0.008 c 0.398 0.004 0.539 0 0.613 -0.016 c 0.145 -0.031 0.363 -0.031 0.445 0.004 c 0.086 0.031 0.293 0.023 0.434 -0.023 c 0.09 -0.031 0.133 -0.031 0.535 -0.031 c 0.98 0 1.32 0.063 1.492 0.273 c 0.051 0.059 0.059 0.078 0.059 0.156 c 0 0.078 -0.016 0.109 -0.09 0.25 c -0.141 0.246 -0.227 0.367 -0.34 0.477 c -0.109 0.102 -0.121 0.125 -0.094 0.164 c 0.012 0.016 -0.012 0.074 -0.066 0.18 c -0.094 0.184 -0.109 0.238 -0.133 0.488 c -0.023 0.273 -0.055 2.309 -0.047 2.957 c 0.008 0.445 0.004 0.559 -0.016 0.621 c -0.02 0.063 -0.02 0.09 0 0.145 c 0.012 0.043 0.023 0.133 0.023 0.203 c 0.039 0.824 0.055 0.996 0.102 1.086 c 0.027 0.055 0.125 0.156 0.156 0.164 c 0.129 0.039 -0.629 0.785 -1.043 1.027 c -0.133 0.078 -0.305 0.121 -0.406 0.098 m -6.82 -0.027 c -0.117 -0.027 -0.23 -0.133 -0.297 -0.273 c -0.043 -0.098 -0.074 -0.277 -0.086 -0.508 c -0.008 -0.203 -0.008 -0.223 0.035 -0.359 c 0.055 -0.164 0.051 -0.266 -0.004 -0.418 c -0.031 -0.082 -0.031 -0.121 -0.02 -0.977 c 0.008 -0.492 0.023 -0.973 0.031 -1.063 c 0.008 -0.094 0.008 -0.234 0 -0.309 c -0.004 -0.078 -0.012 -0.32 -0.012 -0.539 c -0.004 -0.379 -0.004 -0.402 -0.039 -0.449 c -0.02 -0.031 -0.063 -0.066 -0.105 -0.086 c -0.063 -0.023 -0.125 -0.027 -0.941 -0.027 c -0.863 0 -0.879 0 -0.926 0.031 c -0.117 0.074 -0.129 0.176 -0.152 1 c -0.02 0.785 -0.02 0.789 0.012 0.852 c 0.035 0.078 0.051 1.035 0.023 1.359 c -0.035 0.445 -0.148 0.66 -0.504 0.973 c -0.199 0.176 -0.703 0.445 -1.027 0.551 c -0.063 0.023 -0.117 0.039 -0.117 0.035 c -0.004 0 0.023 -0.063 0.063 -0.137 c 0.082 -0.168 0.094 -0.246 0.113 -0.773 c 0.02 -0.473 0.051 -2.461 0.051 -3.348 v -0.559 l 0.051 -0.039 c 0.066 -0.055 0.066 -0.137 -0.004 -0.27 l -0.051 -0.094 l 0.008 -0.262 c 0.012 -0.297 -0.004 -0.461 -0.051 -0.559 c -0.039 -0.078 -0.164 -0.211 -0.199 -0.211 c -0.012 0 -0.023 -0.004 -0.023 -0.012 c 0 -0.031 0.129 -0.199 0.27 -0.359 c 0.234 -0.254 0.27 -0.305 0.262 -0.355 c 0 -0.027 -0.02 -0.059 -0.047 -0.078 c -0.043 -0.027 -0.082 -0.031 -0.512 -0.043 c -0.277 -0.004 -0.492 -0.016 -0.531 -0.027 c -0.035 -0.012 -0.094 -0.043 -0.129 -0.074 c -0.086 -0.07 -0.086 -0.129 -0.012 -0.25 c 0.074 -0.117 0.398 -0.418 0.508 -0.465 c 0.043 -0.02 0.09 -0.051 0.098 -0.066 c 0.02 -0.039 0.219 -0.16 0.352 -0.215 c 0.078 -0.035 0.102 -0.035 0.113 -0.02 c 0.008 0.008 0.012 0.023 0.012 0.027 c 0 0.008 0.035 0.031 0.078 0.059 c 0.117 0.07 0.273 0.086 0.793 0.086 c 0.246 -0.004 0.598 -0.012 0.781 -0.023 c 0.184 -0.012 0.508 -0.023 0.719 -0.023 c 0.258 0 0.398 -0.008 0.43 -0.02 c 0.027 -0.012 0.109 -0.02 0.18 -0.02 c 0.109 0 0.137 0.008 0.16 0.031 c 0.043 0.043 0.184 0.055 0.391 0.031 c 0.516 -0.063 0.902 0.023 1.156 0.258 c 0.191 0.176 0.266 0.363 0.281 0.715 c 0.004 0.105 -0.004 0.98 -0.016 1.945 c -0.023 1.488 -0.031 1.758 -0.055 1.797 c -0.031 0.059 -0.031 0.137 0.004 0.172 c 0.023 0.023 0.023 0.066 0 0.531 c -0.031 0.598 -0.02 1.168 0.031 1.316 c 0.066 0.195 0.215 0.371 0.352 0.414 c 0.031 0.012 0.059 0.023 0.059 0.031 c 0 0.008 -0.035 0.055 -0.078 0.109 c -0.211 0.262 -0.914 0.82 -1.188 0.945 c -0.094 0.043 -0.207 0.059 -0.289 0.039 m -0.434 -5.957 c 0.023 -0.016 0.059 -0.059 0.082 -0.094 c 0.035 -0.055 0.039 -0.082 0.043 -0.27 c 0.008 -0.199 0.012 -0.211 0.047 -0.246 c 0.055 -0.043 0.051 -0.102 -0.004 -0.176 c -0.027 -0.035 -0.055 -0.105 -0.066 -0.164 c -0.043 -0.207 -0.145 -0.316 -0.336 -0.359 c -0.102 -0.023 -0.219 -0.027 -0.875 -0.035 c -0.5 -0.004 -0.777 0 -0.809 0.008 c -0.098 0.035 -0.102 0.039 -0.086 0.645 l 0.012 0.551 l 0.047 0.047 c 0.043 0.047 0.066 0.055 0.203 0.078 c 0.25 0.039 0.488 0.051 1.109 0.047 c 0.559 0 0.59 -0.004 0.633 -0.031" fill="#0a0a0a" fill-opacity="0.149"/><path d="m 35.57 34.891 c -0.551 -0.07 -1.039 -0.262 -1.488 -0.582 c -0.18 -0.129 -0.441 -0.359 -0.578 -0.512 c -0.086 -0.098 -0.109 -0.133 -0.133 -0.223 c -0.035 -0.137 -0.145 -0.336 -0.223 -0.395 c -0.031 -0.027 -0.098 -0.066 -0.145 -0.094 c -0.078 -0.039 -0.098 -0.063 -0.191 -0.211 c -0.273 -0.449 -0.484 -0.883 -0.656 -1.359 c -0.137 -0.375 -0.219 -0.672 -0.285 -1.039 c -0.055 -0.313 -0.059 -0.352 -0.023 -0.379 c 0.035 -0.027 0.031 -0.078 -0.027 -0.242 l -0.047 -0.145 v -0.41 c 0 -0.227 0.004 -0.516 0.016 -0.637 c 0.086 -1.137 0.379 -2.25 0.871 -3.32 c 0.125 -0.27 0.383 -0.754 0.504 -0.957 c 0.082 -0.133 0.105 -0.156 0.172 -0.188 c 0.09 -0.047 0.117 -0.082 0.102 -0.152 c -0.008 -0.063 0.035 -0.125 0.18 -0.262 c 0.16 -0.152 0.168 -0.152 0.766 -0.164 c 0.281 -0.004 0.715 -0.02 0.969 -0.027 c 0.77 -0.031 2.242 -0.023 2.641 0.012 c 0.082 0.004 0.117 0.004 0.148 -0.016 c 0.055 -0.035 0.473 -0.035 0.621 -0.004 c 0.27 0.059 0.406 0.195 0.406 0.402 c 0 0.188 -0.086 0.324 -0.367 0.578 c -0.199 0.184 -0.559 0.441 -0.828 0.594 c -0.184 0.105 -0.496 0.246 -0.582 0.262 l -0.059 0.008 l -0.012 -0.094 c -0.02 -0.16 -0.105 -0.27 -0.27 -0.344 c -0.168 -0.078 -0.59 -0.129 -0.934 -0.113 c -0.121 0.004 -0.457 0.016 -0.746 0.023 c -0.656 0.02 -1.051 0.051 -1.133 0.094 c -0.078 0.035 -0.137 0.129 -0.223 0.328 c -0.027 0.063 -0.074 0.145 -0.105 0.188 c -0.074 0.086 -0.09 0.133 -0.117 0.332 c -0.008 0.082 -0.039 0.23 -0.066 0.332 c -0.023 0.102 -0.055 0.238 -0.066 0.305 c -0.02 0.109 -0.016 0.121 0.012 0.176 c 0.043 0.078 0.137 0.125 0.313 0.156 c 0.195 0.031 0.957 0.02 1.637 -0.031 c 0.824 -0.063 1.148 -0.078 1.535 -0.07 c 0.504 0.016 0.73 0.063 0.867 0.188 c 0.121 0.109 0.113 0.262 -0.012 0.441 c -0.094 0.133 -0.25 0.277 -0.301 0.277 c -0.055 0 -0.16 0.07 -0.219 0.148 c -0.055 0.074 -0.309 0.23 -0.602 0.371 c -0.246 0.117 -0.27 0.125 -0.27 0.078 c 0 -0.023 -0.027 -0.066 -0.059 -0.102 c -0.043 -0.051 -0.082 -0.07 -0.145 -0.086 c -0.164 -0.043 -0.613 -0.078 -1.316 -0.105 c -0.832 -0.031 -1.301 0.012 -1.438 0.129 c -0.09 0.078 -0.094 0.105 -0.094 0.445 c 0.004 1.016 0.379 2.285 0.914 3.066 c 0.043 0.066 0.078 0.141 0.078 0.164 c 0 0.043 0.051 0.145 0.09 0.191 c 0.027 0.031 0.129 0.074 0.172 0.074 c 0.016 0 0.043 -0.012 0.059 -0.023 c 0.023 -0.02 0.031 -0.02 0.078 0.023 c 0.059 0.051 0.066 0.078 0.031 0.113 c -0.023 0.02 -0.016 0.035 0.094 0.113 c 0.242 0.184 0.379 0.25 1.051 0.539 c 0.32 0.133 0.617 0.172 0.902 0.121 c 0.332 -0.063 0.668 -0.195 1.301 -0.512 c 0.52 -0.258 0.609 -0.301 0.609 -0.285 c 0 0.031 -0.262 0.492 -0.359 0.633 c -0.273 0.398 -0.578 0.723 -1.094 1.18 c -0.512 0.445 -1.051 0.832 -1.336 0.953 c -0.102 0.043 -0.133 0.047 -0.301 0.051 c -0.098 0.004 -0.23 -0.004 -0.293 -0.008 m -7.91 -0.102 c -0.266 -0.078 -0.313 -0.109 -0.52 -0.293 c -0.188 -0.164 -0.328 -0.324 -0.426 -0.473 c -0.066 -0.105 -0.07 -0.117 -0.07 -0.234 v -0.125 l -0.086 -0.102 c -0.043 -0.055 -0.09 -0.117 -0.098 -0.145 c -0.008 -0.023 -0.02 -1.031 -0.023 -2.234 c -0.012 -2.086 -0.016 -2.195 -0.047 -2.375 c -0.02 -0.102 -0.047 -0.207 -0.059 -0.227 c -0.016 -0.023 -0.059 -0.047 -0.094 -0.059 c -0.039 -0.008 -0.07 -0.023 -0.07 -0.027 c 0 -0.012 0.125 -0.172 0.215 -0.273 c 0.039 -0.047 0.074 -0.102 0.082 -0.125 c 0.008 -0.023 0.063 -0.098 0.121 -0.164 c 0.145 -0.156 0.152 -0.18 0.086 -0.238 l -0.051 -0.047 h -0.652 c -0.645 0 -0.656 0 -0.691 -0.031 c -0.031 -0.031 -0.047 -0.035 -0.207 -0.027 c -0.125 0.004 -0.184 0.016 -0.215 0.035 c -0.035 0.02 -0.051 0.02 -0.07 0.008 c -0.016 -0.012 -0.055 -0.016 -0.117 -0.008 c -0.234 0.023 -0.469 0.004 -0.543 -0.043 c -0.09 -0.059 -0.125 -0.109 -0.125 -0.207 c 0 -0.102 0.039 -0.164 0.207 -0.328 c 0.254 -0.254 0.941 -0.68 0.969 -0.602 c 0.016 0.035 0.098 0.098 0.168 0.129 c 0.07 0.027 0.117 0.027 1.973 0.027 h 1.898 l 0.098 0.039 c 0.141 0.051 0.27 0.051 0.332 0 c 0.051 -0.047 0.094 -0.047 0.543 -0.023 c 0.211 0.008 0.273 0.016 0.34 0.043 c 0.102 0.043 0.184 0.113 0.23 0.195 c 0.047 0.078 0.051 0.281 0.008 0.355 c -0.027 0.051 -0.422 0.402 -0.641 0.574 c -0.109 0.082 -0.273 0.188 -0.297 0.188 c -0.008 0 -0.012 -0.016 -0.012 -0.031 c 0 -0.051 -0.059 -0.145 -0.125 -0.195 c -0.113 -0.094 -0.156 -0.098 -0.973 -0.098 h -0.738 l -0.059 0.035 c -0.086 0.055 -0.102 0.117 -0.102 0.43 c 0 0.148 0.012 0.383 0.023 0.523 c 0.012 0.141 0.02 0.445 0.02 0.68 v 0.422 l -0.043 0.094 c -0.113 0.227 -0.121 0.461 -0.027 0.59 l 0.051 0.07 l -0.012 0.23 c -0.008 0.129 -0.012 0.508 -0.012 0.848 c 0 0.492 0.004 0.656 0.027 0.816 c 0.035 0.246 0.086 0.465 0.137 0.594 c 0.023 0.051 0.039 0.117 0.039 0.141 c 0 0.074 0.047 0.152 0.098 0.172 c 0.027 0.012 0.102 0.07 0.164 0.133 c 0.063 0.059 0.145 0.129 0.184 0.148 c 0.117 0.063 0.309 0.102 0.52 0.102 c 0.227 -0.004 0.297 -0.016 0.465 -0.094 c 0.074 -0.035 0.133 -0.055 0.141 -0.047 c 0.012 0.023 -0.148 0.246 -0.297 0.41 c -0.172 0.188 -0.559 0.531 -0.742 0.656 c -0.211 0.148 -0.43 0.246 -0.566 0.254 c -0.09 0.008 -0.133 -0.004 -0.328 -0.063 m -10.02 0.043 c -0.008 -0.008 0.008 -0.035 0.027 -0.066 c 0.113 -0.156 0.145 -0.293 0.168 -0.754 c 0.012 -0.176 0.016 -0.211 0.047 -0.238 c 0.074 -0.07 0.086 -0.156 0.035 -0.254 c -0.047 -0.082 -0.051 -0.184 -0.035 -1.148 c 0.012 -0.797 0.02 -1 0.039 -1.059 c 0.043 -0.117 0.047 -0.191 0.012 -0.25 c -0.027 -0.047 -0.031 -0.117 -0.039 -1.223 c -0.012 -1.313 -0.008 -1.285 -0.125 -1.395 c -0.047 -0.043 -0.078 -0.059 -0.113 -0.059 h -0.047 l 0.043 -0.078 c 0.023 -0.043 0.125 -0.172 0.23 -0.289 c 0.211 -0.234 0.297 -0.348 0.297 -0.379 c 0 -0.012 -0.02 -0.039 -0.039 -0.063 c -0.035 -0.031 -0.063 -0.039 -0.156 -0.047 c -0.199 -0.016 -0.363 -0.043 -0.41 -0.063 c -0.063 -0.031 -0.148 -0.027 -0.199 0.008 c -0.086 0.063 -0.32 0.031 -0.43 -0.055 c -0.055 -0.043 -0.063 -0.059 -0.063 -0.117 c 0 -0.055 0.016 -0.09 0.066 -0.16 c 0.172 -0.238 0.641 -0.602 0.938 -0.723 c 0.129 -0.055 0.164 -0.063 0.164 -0.035 c 0 0.027 0.094 0.109 0.16 0.137 c 0.172 0.082 0.605 0.082 1.832 0 c 0.285 -0.02 0.602 -0.027 1.039 -0.023 c 0.816 0 1.109 0.027 1.352 0.129 c 0.133 0.055 0.172 0.086 0.172 0.133 c 0 0.051 0.098 0.145 0.156 0.145 c 0.074 0 0.152 0.137 0.203 0.359 c 0.031 0.145 0.031 0.32 0.008 2.188 c -0.02 1.328 -0.023 1.422 -0.051 1.48 c -0.047 0.094 -0.055 0.156 -0.035 0.23 c 0.02 0.059 0.02 0.074 -0.016 0.148 c -0.035 0.074 -0.035 0.09 -0.027 0.379 c 0.008 0.215 0.02 0.313 0.035 0.348 c 0.02 0.039 0.027 0.152 0.031 0.551 c 0.008 0.445 0.012 0.52 0.047 0.652 c 0.02 0.086 0.051 0.18 0.066 0.211 c 0.043 0.078 0.18 0.191 0.273 0.223 l 0.078 0.027 l -0.027 0.047 c -0.117 0.215 -0.895 0.859 -1.215 1.016 c -0.113 0.051 -0.152 0.063 -0.23 0.063 c -0.168 0.004 -0.313 -0.102 -0.383 -0.277 c -0.09 -0.211 -0.09 -0.238 -0.078 -1.723 c 0.004 -0.754 0.016 -1.445 0.023 -1.531 c 0.008 -0.09 0.008 -0.418 0 -0.734 c -0.02 -0.621 -0.02 -0.637 -0.121 -0.707 c -0.047 -0.031 -0.063 -0.031 -0.945 -0.035 l -0.902 -0.004 l -0.055 0.035 c -0.035 0.023 -0.066 0.059 -0.078 0.09 c -0.066 0.18 -0.086 0.746 -0.059 1.48 c 0.02 0.414 0.02 0.535 0 0.602 c -0.016 0.078 -0.016 0.094 0.008 0.125 c 0.023 0.035 0.027 0.094 0.027 0.438 c 0 0.543 -0.031 0.82 -0.133 1.168 c -0.078 0.25 -0.176 0.43 -0.313 0.555 c -0.195 0.176 -0.441 0.309 -0.742 0.391 c -0.098 0.027 -0.234 0.066 -0.301 0.086 c -0.07 0.02 -0.141 0.039 -0.16 0.047 c -0.02 0.004 -0.039 0.004 -0.047 0 m 3.695 -5.949 c 0.141 -0.063 0.184 -0.215 0.164 -0.613 c -0.02 -0.543 -0.098 -0.668 -0.453 -0.727 c -0.152 -0.023 -1.344 -0.047 -1.504 -0.027 c -0.074 0.008 -0.105 0.02 -0.148 0.059 l -0.051 0.047 l 0.012 0.227 c 0.012 0.219 0.012 0.23 -0.023 0.285 c -0.031 0.043 -0.035 0.066 -0.027 0.125 c 0.008 0.039 0.023 0.098 0.035 0.125 c 0.016 0.031 0.023 0.105 0.023 0.184 c 0 0.207 0.043 0.25 0.281 0.289 c 0.223 0.035 0.512 0.051 1.098 0.051 c 0.465 0 0.539 0 0.59 -0.023 m -11.312 5.816 c -0.074 -0.02 -0.172 -0.086 -0.238 -0.164 c -0.129 -0.152 -0.305 -0.543 -0.379 -0.848 c -0.035 -0.141 -0.035 -0.195 -0.043 -1.031 l -0.004 -0.883 l 0.043 -0.047 c 0.074 -0.082 0.098 -0.141 0.098 -0.238 c -0.004 -0.105 -0.051 -0.211 -0.105 -0.238 c -0.035 -0.016 -0.035 -0.031 -0.035 -0.766 c 0 -0.594 0.004 -0.777 0.023 -0.867 c 0.051 -0.242 0.066 -0.531 0.066 -1.254 c 0.004 -1.078 -0.051 -1.59 -0.203 -1.941 c -0.043 -0.105 -0.164 -0.242 -0.242 -0.281 c -0.027 -0.012 -0.012 -0.035 0.137 -0.168 c 0.098 -0.094 0.188 -0.188 0.219 -0.246 c 0.031 -0.051 0.094 -0.125 0.137 -0.168 c 0.16 -0.156 0.367 -0.387 0.367 -0.41 c 0 -0.016 -0.016 -0.043 -0.031 -0.063 c -0.051 -0.055 -0.199 -0.074 -0.758 -0.09 c -0.57 -0.02 -0.77 -0.035 -0.898 -0.082 c -0.176 -0.059 -0.277 -0.184 -0.238 -0.297 c 0.051 -0.164 0.32 -0.434 0.473 -0.469 c 0.195 -0.051 0.434 -0.203 0.484 -0.313 c 0.023 -0.051 0.211 -0.156 0.484 -0.262 c 0.258 -0.105 0.254 -0.105 0.285 -0.016 c 0.035 0.09 0.148 0.191 0.242 0.219 c 0.113 0.035 0.57 0.035 0.953 0.008 c 0.23 -0.016 0.422 -0.023 0.547 -0.016 c 0.359 0.016 0.555 0.016 0.613 -0.004 c 0.102 -0.031 0.316 -0.051 0.355 -0.035 c 0.043 0.023 0.172 0.02 0.246 -0.008 c 0.059 -0.02 0.387 -0.047 1.359 -0.102 c 0.477 -0.023 1.355 -0.035 1.625 -0.016 c 0.656 0.047 1.066 0.152 1.363 0.348 c 0.137 0.09 0.188 0.176 0.156 0.273 c -0.078 0.273 -0.402 0.598 -0.984 0.984 c -0.219 0.148 -0.453 0.277 -0.633 0.355 c -0.133 0.059 -0.285 0.102 -0.297 0.09 c -0.008 -0.008 0 -0.031 0.008 -0.059 c 0.027 -0.066 0.012 -0.227 -0.023 -0.289 c -0.07 -0.129 -0.215 -0.207 -0.469 -0.254 c -0.246 -0.043 -0.5 -0.059 -1.465 -0.078 c -1.449 -0.027 -1.859 0.012 -1.961 0.188 c -0.031 0.051 -0.031 0.094 -0.027 0.766 l 0.004 0.711 l 0.043 0.059 c 0.027 0.035 0.07 0.074 0.102 0.09 c 0.07 0.031 0.328 0.055 0.754 0.07 c 0.188 0.008 0.391 0.023 0.453 0.031 c 0.063 0.012 0.145 0.016 0.191 0.008 c 0.133 -0.016 2.059 -0.023 2.16 -0.008 c 0.125 0.023 0.23 0.07 0.273 0.129 c 0.031 0.039 0.039 0.07 0.039 0.148 c 0 0.086 -0.012 0.117 -0.066 0.211 c -0.121 0.215 -0.504 0.539 -0.773 0.652 c -0.094 0.039 -0.145 0.07 -0.156 0.098 c -0.016 0.027 -0.066 0.059 -0.164 0.098 c -0.203 0.09 -0.215 0.09 -0.227 0.043 c -0.016 -0.055 -0.121 -0.156 -0.203 -0.195 c -0.066 -0.035 -0.07 -0.035 -1.125 -0.035 h -1.059 l -0.059 0.055 c -0.066 0.055 -0.09 0.113 -0.133 0.316 c -0.047 0.199 -0.063 0.434 -0.078 1.145 c -0.008 0.387 -0.023 0.891 -0.035 1.117 c -0.031 0.711 -0.004 1.414 0.078 1.762 c 0.012 0.063 0.023 0.152 0.023 0.203 c 0 0.113 0.023 0.164 0.074 0.188 c 0.02 0.008 0.059 0.051 0.086 0.094 c 0.063 0.098 0.199 0.215 0.305 0.262 c 0.043 0.02 0.129 0.047 0.191 0.059 l 0.113 0.023 l -0.129 0.18 c -0.309 0.422 -0.449 0.566 -0.766 0.813 c -0.438 0.336 -0.91 0.52 -1.168 0.449 m 11.449 -10.512 c -0.438 -0.043 -0.852 -0.246 -1.125 -0.555 c -0.27 -0.301 -0.504 -0.723 -0.543 -0.98 c -0.012 -0.055 -0.027 -0.113 -0.043 -0.133 c -0.012 -0.02 -0.023 -0.059 -0.023 -0.09 c 0.012 -0.191 0.004 -0.27 -0.031 -0.344 c -0.043 -0.086 -0.047 -0.254 -0.02 -0.617 c 0.051 -0.633 0.176 -1.023 0.547 -1.703 c 0.105 -0.188 0.188 -0.352 0.188 -0.363 c 0 -0.008 -0.016 -0.035 -0.031 -0.055 c -0.035 -0.039 -0.039 -0.039 -0.289 -0.047 c -0.281 -0.004 -0.34 -0.02 -0.395 -0.105 c -0.063 -0.098 0.066 -0.258 0.387 -0.477 c 0.125 -0.086 0.418 -0.246 0.453 -0.246 c 0.004 0 0.012 0.02 0.012 0.043 c 0 0.102 0.043 0.109 0.5 0.109 c 0.328 0 0.387 0.004 0.402 0.027 c 0.027 0.027 0.137 0.023 0.367 -0.012 c 0.184 -0.027 0.594 -0.012 0.762 0.031 c 0.445 0.109 0.758 0.414 0.938 0.922 c 0.078 0.227 0.113 0.395 0.195 0.953 c 0.074 0.504 0.082 0.641 0.051 0.934 c -0.031 0.273 -0.102 0.633 -0.129 0.652 c -0.035 0.027 -0.059 0.094 -0.059 0.191 c 0 0.191 -0.262 0.797 -0.359 0.832 c -0.031 0.012 -0.039 0.027 -0.039 0.063 c 0 0.113 -0.32 0.453 -0.613 0.66 c -0.172 0.117 -0.305 0.176 -0.582 0.254 c -0.258 0.074 -0.289 0.078 -0.52 0.055 m 0.797 -0.879 c 0.313 -0.102 0.539 -0.426 0.641 -0.926 c 0.027 -0.117 0.031 -0.223 0.031 -0.563 c 0 -0.438 -0.027 -0.711 -0.094 -1.016 c -0.02 -0.086 -0.027 -0.168 -0.023 -0.188 c 0.008 -0.023 -0.004 -0.051 -0.031 -0.078 c -0.02 -0.023 -0.059 -0.105 -0.086 -0.184 c -0.039 -0.102 -0.102 -0.219 -0.25 -0.438 c -0.23 -0.352 -0.355 -0.48 -0.543 -0.563 c -0.109 -0.047 -0.113 -0.047 -0.41 -0.051 c -0.336 -0.008 -0.363 0 -0.453 0.094 c -0.074 0.07 -0.121 0.164 -0.195 0.383 c -0.039 0.121 -0.066 0.172 -0.109 0.207 c -0.047 0.043 -0.09 0.129 -0.09 0.195 c 0 0.016 0.012 0.051 0.027 0.082 c 0.023 0.047 0.023 0.063 0 0.172 c -0.051 0.23 -0.078 0.445 -0.078 0.652 c 0 0.824 0.262 1.594 0.668 1.969 c 0.273 0.25 0.684 0.352 0.996 0.25 m 2.918 0.801 c -0.059 -0.016 -0.102 -0.051 -0.164 -0.129 c -0.039 -0.051 -0.047 -0.078 -0.047 -0.148 c 0 -0.07 -0.012 -0.109 -0.066 -0.207 l -0.066 -0.125 v -0.938 c 0 -0.645 0.004 -0.973 0.02 -1.043 c 0.023 -0.137 0.023 -1.012 0 -1.199 c -0.031 -0.211 -0.055 -0.293 -0.09 -0.328 c -0.016 -0.016 -0.031 -0.039 -0.031 -0.051 c 0 -0.012 -0.031 -0.047 -0.07 -0.078 l -0.07 -0.055 l 0.066 -0.051 c 0.078 -0.055 0.203 -0.168 0.309 -0.289 c 0.059 -0.066 0.078 -0.098 0.074 -0.121 c -0.02 -0.07 -0.07 -0.082 -0.406 -0.094 c -0.328 -0.012 -0.383 -0.02 -0.457 -0.086 c -0.059 -0.055 -0.059 -0.105 0 -0.188 c 0.121 -0.152 0.578 -0.453 0.742 -0.488 c 0.035 -0.008 0.047 -0.004 0.055 0.031 c 0.008 0.02 0.039 0.055 0.07 0.078 c 0.059 0.043 0.07 0.047 0.281 0.051 c 0.246 0.004 0.789 -0.02 1.199 -0.055 c 0.438 -0.035 0.949 -0.043 1.121 -0.016 c 0.203 0.031 0.324 0.078 0.41 0.156 c 0.086 0.074 0.094 0.117 0.047 0.223 c -0.02 0.043 -0.043 0.07 -0.082 0.086 c -0.09 0.031 -0.227 0.188 -0.227 0.254 c 0 0.031 -0.195 0.188 -0.285 0.234 l -0.063 0.027 v -0.035 c 0 -0.039 -0.07 -0.141 -0.117 -0.176 c -0.102 -0.074 -0.289 -0.094 -0.863 -0.098 c -0.512 -0.004 -0.57 0.004 -0.637 0.082 c -0.043 0.055 -0.043 0.055 -0.043 0.379 c 0 0.363 0.008 0.398 0.105 0.445 c 0.047 0.023 0.121 0.027 0.723 0.031 c 0.559 0.004 0.676 0.008 0.707 0.031 c 0.02 0.012 0.082 0.023 0.141 0.031 c 0.09 0.008 0.102 0.012 0.125 0.055 c 0.023 0.043 0.023 0.051 0 0.117 c -0.063 0.148 -0.434 0.422 -0.656 0.484 c -0.035 0.012 -0.039 0.008 -0.039 -0.027 c 0 -0.023 -0.016 -0.055 -0.035 -0.07 c -0.031 -0.031 -0.055 -0.031 -0.477 -0.031 h -0.445 l -0.055 0.051 c -0.047 0.043 -0.055 0.066 -0.074 0.172 c -0.012 0.066 -0.02 0.137 -0.02 0.164 c 0 0.023 -0.012 0.066 -0.031 0.094 c -0.039 0.063 -0.043 0.133 -0.008 0.148 c 0.02 0.008 0.023 0.102 0.02 0.727 c -0.004 0.773 0 0.801 0.09 1.027 c 0.047 0.117 0.211 0.273 0.305 0.293 l 0.066 0.016 l -0.191 0.168 c -0.324 0.293 -0.539 0.434 -0.699 0.461 c -0.035 0.008 -0.07 0.016 -0.086 0.016 c -0.012 0.004 -0.047 0 -0.07 -0.008 m -13.02 -3.03 c -0.016 -0.012 -0.016 -0.023 0.016 -0.043 c 0.113 -0.094 0.578 -0.668 0.676 -0.836 c 0.035 -0.059 0.102 -0.164 0.148 -0.242 c 0.117 -0.18 0.191 -0.32 0.23 -0.422 c 0.086 -0.234 0.176 -1 0.223 -1.934 c 0.012 -0.191 0.016 -0.223 0.047 -0.254 c 0.031 -0.027 0.039 -0.055 0.039 -0.141 c 0 -0.082 0.008 -0.113 0.035 -0.145 c 0.047 -0.055 0.063 -0.148 0.047 -0.313 c -0.016 -0.172 -0.035 -0.238 -0.082 -0.293 l -0.039 -0.043 l 0.012 -0.602 c 0.008 -0.328 0.016 -1.168 0.02 -1.863 c 0.004 -1.25 0.004 -1.266 -0.031 -1.414 c -0.063 -0.266 -0.195 -0.465 -0.344 -0.531 c -0.066 -0.031 -0.102 -0.035 -0.398 -0.035 c -0.32 0 -0.32 0 -0.371 -0.035 c -0.063 -0.051 -0.09 -0.051 -0.266 0 c -0.137 0.035 -0.152 0.035 -0.66 0.035 c -0.691 0 -0.828 0.023 -0.926 0.152 c -0.035 0.055 -0.035 0.059 -0.035 0.586 c 0 0.293 -0.008 1.074 -0.02 1.734 c -0.016 1.125 -0.02 1.207 -0.051 1.273 c -0.039 0.09 -0.043 0.188 -0.004 0.215 c 0.02 0.016 0.023 0.086 0.023 0.449 c 0 0.523 0.023 0.664 0.141 0.781 c 0.051 0.051 0.156 0.098 0.223 0.098 h 0.055 l -0.066 0.09 c -0.117 0.16 -0.473 0.559 -0.641 0.723 c -0.266 0.254 -0.473 0.398 -0.594 0.422 c -0.059 0.008 -0.094 0.027 -0.133 0.063 c -0.086 0.09 -0.352 0.141 -0.504 0.102 c -0.172 -0.039 -0.313 -0.234 -0.375 -0.496 c -0.031 -0.148 -0.066 -0.574 -0.055 -0.68 c 0.004 -0.035 0.016 -0.172 0.023 -0.309 c 0.012 -0.137 0.027 -0.297 0.035 -0.355 c 0.016 -0.09 0.016 -0.16 -0.008 -0.363 c -0.059 -0.527 -0.059 -1.332 -0.004 -2.238 c 0.016 -0.219 0.035 -0.563 0.047 -0.762 c 0.016 -0.344 0.02 -0.367 0.055 -0.402 c 0.168 -0.168 0.184 -0.52 0.031 -0.703 l -0.055 -0.066 v -0.469 c 0 -0.566 -0.027 -1.508 -0.051 -1.758 c -0.043 -0.48 -0.105 -0.621 -0.297 -0.688 l -0.047 -0.016 l 0.211 -0.191 c 0.375 -0.352 1.199 -0.977 1.527 -1.16 c 0.074 -0.043 0.055 -0.066 0.219 0.23 c 0.129 0.234 0.195 0.391 0.238 0.547 c 0.02 0.086 0.02 0.102 -0.004 0.141 c -0.031 0.059 -0.031 0.063 0.027 0.184 l 0.055 0.105 l -0.004 0.93 c -0.004 0.852 -0.004 0.93 0.023 0.984 c 0.02 0.035 0.051 0.063 0.086 0.078 c 0.051 0.02 0.066 0.016 0.129 -0.008 c 0.039 -0.016 0.188 -0.105 0.336 -0.195 c 0.418 -0.258 0.254 -0.23 1.414 -0.234 l 0.996 -0.004 l 0.043 -0.039 l 0.047 -0.039 l 0.012 -0.828 c 0.012 -0.926 0.008 -0.988 -0.082 -1.109 c -0.039 -0.051 -0.086 -0.086 -0.176 -0.133 c -0.164 -0.086 -0.172 -0.094 -0.102 -0.188 c 0.082 -0.113 0.336 -0.41 0.484 -0.57 c 0.375 -0.402 0.789 -0.688 1.105 -0.754 c 0.211 -0.047 0.332 -0.023 0.453 0.078 c 0.102 0.09 0.172 0.223 0.215 0.406 c 0.035 0.145 0.07 0.566 0.059 0.691 c -0.004 0.039 -0.016 0.184 -0.023 0.316 c -0.012 0.137 -0.027 0.293 -0.039 0.348 c -0.012 0.078 -0.012 0.156 0.012 0.355 c 0.043 0.383 0.059 0.906 0.043 1.406 c -0.02 0.512 -0.078 1.5 -0.094 1.52 c -0.004 0.008 -0.012 0.703 -0.016 1.543 c -0.004 1.527 -0.027 2.566 -0.063 2.656 c -0.023 0.066 -0.039 0.348 -0.016 0.387 c 0.016 0.027 0.008 0.273 -0.031 0.93 c -0.039 0.645 -0.059 0.789 -0.156 1.063 c -0.141 0.414 -0.359 0.75 -0.695 1.066 c -0.363 0.348 -0.59 0.477 -1.68 0.984 c -0.293 0.133 -0.547 0.246 -0.57 0.242 c -0.02 0 -0.047 -0.004 -0.059 -0.012 m 22.13 -2.578 c -0.227 -0.008 -0.629 -0.02 -0.898 -0.027 c -0.266 -0.012 -0.734 -0.023 -1.043 -0.027 c -0.309 -0.004 -0.57 -0.012 -0.578 -0.02 c -0.09 -0.063 -0.23 -0.082 -0.34 -0.039 c -0.059 0.02 -0.07 0.02 -0.164 -0.008 c -0.117 -0.039 -0.348 -0.156 -0.348 -0.18 c 0 -0.008 0.023 -0.016 0.051 -0.023 c 0.086 -0.016 0.324 -0.145 0.445 -0.238 c 0.191 -0.152 0.313 -0.324 0.43 -0.633 c 0.113 -0.293 0.117 -0.348 0.133 -1.074 l 0.012 -0.664 l 0.059 -0.082 c 0.051 -0.078 0.055 -0.098 0.063 -0.223 c 0.004 -0.152 -0.012 -0.227 -0.07 -0.305 l -0.039 -0.055 l 0.012 -0.73 c 0.051 -2.781 0.051 -3.648 0.008 -3.809 c -0.07 -0.266 -0.23 -0.43 -0.43 -0.434 c -0.047 0 -0.082 -0.004 -0.082 -0.008 c 0 -0.039 0.133 -0.199 0.273 -0.336 c 0.184 -0.172 0.379 -0.328 0.711 -0.555 c 0.109 -0.078 0.207 -0.156 0.211 -0.172 c 0.016 -0.043 -0.016 -0.094 -0.066 -0.102 c -0.023 -0.008 -0.129 -0.004 -0.238 0.004 c -0.109 0.012 -0.273 0.023 -0.367 0.027 c -0.168 0.012 -0.172 0.012 -0.223 -0.031 c -0.027 -0.02 -0.07 -0.043 -0.094 -0.047 c -0.063 -0.016 -0.18 0.004 -0.297 0.047 c -0.059 0.02 -0.133 0.039 -0.164 0.039 c -0.105 0 -0.367 -0.063 -0.441 -0.102 c -0.34 -0.184 -0.066 -0.617 0.719 -1.125 c 0.215 -0.141 0.336 -0.207 0.523 -0.289 c 0.133 -0.059 0.145 -0.059 0.164 -0.035 c 0.043 0.066 0.102 0.125 0.164 0.148 c 0.063 0.027 0.121 0.031 0.551 0.031 c 0.48 0 0.484 0 0.516 0.035 c 0.027 0.031 0.043 0.031 0.195 0.031 c 0.129 0 0.184 -0.008 0.254 -0.035 c 0.086 -0.031 0.098 -0.031 1.102 -0.031 c 1.676 0 2.238 0.023 2.668 0.113 c 0.344 0.07 0.504 0.152 0.754 0.379 c 0.207 0.191 0.336 0.359 0.5 0.668 c 0.188 0.359 0.34 0.766 0.457 1.262 c 0.039 0.148 0.039 0.188 0.027 0.266 c -0.039 0.215 -0.012 0.406 0.074 0.523 c 0.039 0.051 0.047 0.078 0.063 0.32 c 0.027 0.41 -0.02 1.188 -0.121 2.051 c -0.055 0.469 -0.145 0.824 -0.371 1.453 c -0.086 0.25 -0.125 0.336 -0.164 0.371 c -0.078 0.078 -0.117 0.16 -0.117 0.266 c 0 0.102 -0.043 0.211 -0.344 0.875 c -0.52 1.156 -0.965 1.953 -1.316 2.352 c -0.141 0.16 -0.117 0.156 -0.797 0.176 c -0.582 0.02 -0.59 0.02 -0.629 -0.012 c -0.02 -0.016 -0.063 -0.039 -0.094 -0.047 c -0.063 -0.02 -0.426 -0.023 -0.652 -0.004 c -0.117 0.008 -0.145 0.016 -0.164 0.043 c -0.016 0.02 -0.039 0.035 -0.051 0.031 c -0.016 0 -0.215 -0.008 -0.438 -0.012 m 0.746 -1.316 c 1.656 -0.012 1.539 -0.004 1.648 -0.133 c 0.121 -0.137 0.313 -0.531 0.395 -0.813 c 0.02 -0.063 0.055 -0.121 0.098 -0.168 c 0.074 -0.082 0.094 -0.156 0.059 -0.207 c -0.02 -0.027 -0.016 -0.055 0.031 -0.242 c 0.031 -0.113 0.07 -0.301 0.09 -0.41 c 0.02 -0.109 0.055 -0.258 0.082 -0.328 c 0.133 -0.355 0.234 -1.148 0.25 -1.988 c 0.016 -0.984 -0.086 -1.719 -0.324 -2.387 c -0.379 -1.047 -1.035 -1.582 -2.133 -1.734 c -0.113 -0.016 -0.34 -0.031 -0.637 -0.035 c -0.422 -0.004 -0.465 -0.004 -0.52 0.02 c -0.113 0.055 -0.113 0.07 -0.133 0.633 c -0.008 0.277 -0.031 0.77 -0.047 1.09 c -0.051 1.09 -0.031 2.527 0.039 3.066 c 0.016 0.102 0.031 0.219 0.035 0.258 c 0.008 0.039 0 0.113 -0.016 0.18 c -0.035 0.141 -0.035 0.313 0.008 0.836 c 0.031 0.41 0.031 0.445 0.004 0.605 c -0.027 0.184 -0.102 0.406 -0.195 0.598 c -0.031 0.063 -0.199 0.305 -0.367 0.539 c -0.172 0.234 -0.316 0.438 -0.324 0.457 c -0.016 0.051 0.012 0.109 0.074 0.148 c 0.059 0.039 0.066 0.043 0.234 0.031 c 0.098 -0.004 0.84 -0.012 1.648 -0.016 m -6.996 -1.01 c -0.191 -0.043 -0.301 -0.184 -0.352 -0.453 c -0.039 -0.207 -0.035 -0.258 0.031 -0.34 c 0.051 -0.07 0.055 -0.082 0.059 -0.23 c 0.008 -0.172 -0.008 -0.246 -0.07 -0.316 l -0.043 -0.047 l 0.008 -0.789 c 0.004 -0.434 0.012 -0.84 0.016 -0.898 c 0.008 -0.074 0.008 -0.117 -0.008 -0.141 c -0.016 -0.031 -0.02 -0.234 -0.008 -0.957 c 0.012 -1.027 0.035 -1.578 0.066 -1.734 c 0.043 -0.18 0.133 -0.316 0.449 -0.668 c 0.109 -0.125 0.246 -0.289 0.301 -0.367 c 0.117 -0.16 0.125 -0.215 0.047 -0.277 l -0.051 -0.039 h -1.375 c -1.523 0 -1.434 -0.008 -1.496 0.102 c -0.027 0.047 -0.027 0.105 -0.008 0.949 c 0.02 0.867 0.043 2.043 0.051 2.453 c 0.012 0.965 -0.027 1.77 -0.117 2.305 c -0.023 0.156 -0.039 0.195 -0.113 0.332 c -0.129 0.234 -0.23 0.34 -0.461 0.5 c -0.227 0.152 -0.543 0.309 -0.867 0.43 c -0.117 0.043 -0.215 0.078 -0.223 0.078 c -0.02 0 0.043 -0.113 0.133 -0.242 c 0.168 -0.23 0.191 -0.328 0.203 -0.863 c 0.008 -0.297 0.012 -0.328 0.051 -0.41 c 0.066 -0.141 0.051 -0.313 -0.031 -0.391 c -0.031 -0.031 -0.035 -0.066 -0.051 -0.465 c -0.016 -0.348 -0.016 -0.465 0.004 -0.629 c 0.02 -0.168 0.039 -1.301 0.035 -1.934 c -0.004 -0.07 -0.004 -0.25 0 -0.398 c 0 -0.297 -0.039 -0.727 -0.074 -0.805 c -0.023 -0.055 -0.125 -0.145 -0.188 -0.168 c -0.051 -0.016 -0.051 -0.031 -0.016 -0.094 c 0.051 -0.086 0.164 -0.215 0.391 -0.434 c 0.121 -0.113 0.219 -0.219 0.219 -0.23 c 0 -0.012 -0.012 -0.035 -0.023 -0.055 c -0.027 -0.031 -0.035 -0.031 -0.309 -0.031 h -0.277 l -0.211 -0.102 l -0.055 0.031 c -0.059 0.027 -0.059 0.027 -0.137 -0.008 c -0.16 -0.07 -0.207 -0.207 -0.125 -0.355 c 0.059 -0.105 0.285 -0.301 0.504 -0.434 c 0.211 -0.133 0.438 -0.242 0.48 -0.242 c 0.016 0 0.043 0.027 0.063 0.063 c 0.02 0.039 0.059 0.074 0.094 0.094 c 0.055 0.027 0.082 0.027 0.469 0.02 c 0.223 -0.004 0.516 -0.016 0.645 -0.023 c 0.145 -0.012 0.426 -0.016 0.75 -0.012 c 0.398 0.008 0.539 0.004 0.613 -0.012 c 0.145 -0.031 0.363 -0.031 0.445 0 c 0.086 0.035 0.293 0.023 0.434 -0.023 c 0.09 -0.027 0.133 -0.031 0.535 -0.031 c 0.98 0 1.32 0.063 1.492 0.273 c 0.051 0.059 0.059 0.082 0.059 0.156 c 0 0.078 -0.016 0.113 -0.09 0.25 c -0.141 0.246 -0.227 0.367 -0.34 0.48 c -0.109 0.102 -0.121 0.125 -0.094 0.164 c 0.012 0.012 -0.012 0.074 -0.066 0.176 c -0.094 0.184 -0.109 0.238 -0.133 0.492 c -0.023 0.27 -0.055 2.305 -0.047 2.953 c 0.008 0.445 0.004 0.563 -0.016 0.621 c -0.02 0.063 -0.02 0.09 0 0.148 c 0.012 0.039 0.023 0.129 0.023 0.203 c 0.039 0.82 0.055 0.996 0.102 1.082 c 0.027 0.055 0.125 0.156 0.156 0.168 c 0.129 0.039 -0.629 0.785 -1.043 1.027 c -0.133 0.078 -0.305 0.117 -0.406 0.094 m -6.82 -0.027 c -0.117 -0.027 -0.23 -0.133 -0.297 -0.27 c -0.043 -0.102 -0.074 -0.277 -0.086 -0.508 c -0.008 -0.207 -0.008 -0.223 0.035 -0.363 c 0.055 -0.164 0.051 -0.266 -0.004 -0.414 c -0.031 -0.082 -0.031 -0.121 -0.02 -0.98 c 0.008 -0.492 0.023 -0.969 0.031 -1.063 c 0.008 -0.094 0.008 -0.23 0 -0.309 c -0.004 -0.074 -0.012 -0.316 -0.012 -0.535 c -0.004 -0.379 -0.004 -0.402 -0.039 -0.453 c -0.02 -0.031 -0.063 -0.066 -0.105 -0.082 c -0.063 -0.027 -0.125 -0.027 -0.941 -0.027 c -0.863 0 -0.879 0 -0.926 0.031 c -0.117 0.074 -0.129 0.172 -0.152 1 c -0.02 0.781 -0.02 0.785 0.012 0.852 c 0.035 0.074 0.051 1.035 0.023 1.355 c -0.035 0.445 -0.148 0.664 -0.504 0.973 c -0.199 0.176 -0.703 0.449 -1.027 0.555 c -0.063 0.02 -0.117 0.035 -0.117 0.035 c -0.004 -0.004 0.023 -0.063 0.063 -0.137 c 0.082 -0.172 0.094 -0.246 0.113 -0.777 c 0.02 -0.473 0.051 -2.461 0.051 -3.348 v -0.559 l 0.051 -0.039 c 0.066 -0.055 0.066 -0.137 -0.004 -0.266 l -0.051 -0.098 l 0.008 -0.258 c 0.012 -0.301 -0.004 -0.465 -0.051 -0.563 c -0.039 -0.074 -0.164 -0.207 -0.199 -0.207 c -0.012 0 -0.023 -0.008 -0.023 -0.012 c 0 -0.035 0.129 -0.203 0.27 -0.359 c 0.234 -0.258 0.27 -0.305 0.262 -0.359 c 0 -0.027 -0.02 -0.059 -0.047 -0.074 c -0.043 -0.031 -0.082 -0.035 -0.512 -0.043 c -0.277 -0.008 -0.492 -0.02 -0.531 -0.031 c -0.035 -0.008 -0.094 -0.043 -0.129 -0.07 c -0.086 -0.07 -0.086 -0.133 -0.012 -0.254 c 0.074 -0.117 0.398 -0.418 0.508 -0.465 c 0.043 -0.02 0.09 -0.047 0.098 -0.066 c 0.02 -0.039 0.219 -0.16 0.352 -0.215 c 0.078 -0.031 0.102 -0.035 0.113 -0.02 c 0.008 0.012 0.012 0.023 0.012 0.031 c 0 0.004 0.035 0.031 0.078 0.055 c 0.117 0.07 0.273 0.09 0.793 0.086 c 0.246 0 0.598 -0.012 0.781 -0.023 c 0.184 -0.008 0.508 -0.02 0.719 -0.02 c 0.258 -0.004 0.398 -0.008 0.43 -0.02 c 0.027 -0.012 0.109 -0.02 0.18 -0.02 c 0.109 0 0.137 0.004 0.16 0.027 c 0.043 0.047 0.184 0.059 0.391 0.031 c 0.516 -0.063 0.902 0.027 1.156 0.262 c 0.191 0.176 0.266 0.359 0.281 0.711 c 0.004 0.105 -0.004 0.98 -0.016 1.945 c -0.023 1.492 -0.031 1.762 -0.055 1.801 c -0.031 0.055 -0.031 0.133 0.004 0.168 c 0.023 0.027 0.023 0.066 0 0.535 c -0.031 0.598 -0.02 1.168 0.031 1.313 c 0.066 0.199 0.215 0.375 0.352 0.418 c 0.031 0.008 0.059 0.023 0.059 0.027 c 0 0.008 -0.035 0.059 -0.078 0.113 c -0.211 0.258 -0.914 0.82 -1.188 0.945 c -0.094 0.039 -0.207 0.055 -0.289 0.039 m -0.434 -5.957 c 0.023 -0.02 0.059 -0.059 0.082 -0.094 c 0.035 -0.055 0.039 -0.086 0.043 -0.273 c 0.008 -0.199 0.012 -0.211 0.047 -0.242 c 0.055 -0.047 0.051 -0.105 -0.004 -0.18 c -0.027 -0.035 -0.055 -0.102 -0.066 -0.16 c -0.043 -0.207 -0.145 -0.316 -0.336 -0.363 c -0.102 -0.023 -0.219 -0.027 -0.875 -0.031 c -0.5 -0.008 -0.777 -0.004 -0.809 0.008 c -0.098 0.035 -0.102 0.035 -0.086 0.641 l 0.012 0.551 l 0.047 0.051 c 0.043 0.043 0.066 0.055 0.203 0.074 c 0.25 0.043 0.488 0.051 1.109 0.051 c 0.559 -0.004 0.59 -0.004 0.633 -0.035" fill="url(#0)"/></svg>