<svg xmlns="http://www.w3.org/2000/svg" viewBox="0 0 48 48"><g fill="#213655"><path d="m 10.02 2.828 c 71.5 -20.852 25.922 82.17 -6.066 30.492 c -5.848 -9.496 -6.254 -25.613 6.066 -30.492"/><path d="m 45.31 24 c 0 11.07 -9.543 20.05 -21.313 20.05 c -11.773 0 -21.313 -8.977 -21.313 -20.05 c 0 -11.07 9.543 -20.05 21.313 -20.05 c 11.773 0 21.313 8.977 21.313 20.05" fill-rule="evenodd"/></g><path d="m 24.25 7.805 c -2.34 0.051 -4.672 0.117 -4.813 2.816 c -2.52 6.602 -4.992 13.219 -7.523 19.816 c 0.465 0.273 0.68 0.691 1.145 0.969 c 0.285 0.344 0.586 0.668 1 0.945 c 0.234 0.383 0.734 0.633 0.969 1.02 c 0.469 0.277 0.68 0.691 1.145 0.969 c 0.242 0.387 0.734 0.637 0.973 1.023 c 0.465 0.277 0.68 0.691 1.145 0.969 c 0.242 0.387 0.734 0.633 0.977 1.023 c 0.465 0.277 0.676 0.691 1.145 0.969 c 0.293 0.621 -0.914 2.059 -0.074 2.344 c 0.34 0.203 0.594 0.453 0.781 0.738 c 0.477 0.27 0.668 0.691 1.148 0.961 c 0.227 0.395 0.738 0.633 0.969 1.031 c 0.316 0.18 0.512 0.426 0.75 0.652 c 0.004 0 0.008 0 0.012 0 c 10.793 0 19.711 -7.547 21.12 -17.34 c -2.375 -2.238 -4.738 -4.492 -7.078 -6.762 c -1.031 -0.84 -1.809 -2.23 -3.344 -2.223 c -0.297 -0.363 -0.754 -0.602 -0.977 -1.012 c -0.504 -0.227 -0.656 -0.707 -1.16 -0.93 c -0.203 -0.441 -0.754 -0.621 -0.957 -1.063 c -0.504 -0.227 -0.66 -0.703 -1.16 -0.93 c -0.203 -0.438 -0.754 -0.621 -0.957 -1.063 c -0.5 -0.227 -0.66 -0.703 -1.16 -0.93 c -0.203 -0.438 -0.754 -0.621 -0.957 -1.063 c -0.504 -0.223 -0.656 -0.703 -1.16 -0.926 c -0.203 -0.441 -0.754 -0.625 -0.957 -1.063 c -0.406 -0.246 -0.762 -0.578 -1 -0.945" fill-opacity="0.235"/><path d="m 20.367 8.188 c -2.844 7.41 -5.609 14.836 -8.453 22.25 c 0.18 0.051 0.359 0.031 0.547 0.035 c 1.035 -0.004 2.074 0.004 3.113 0 c 0.141 0 0.121 -0.191 0.18 -0.277 c 1.25 -3.313 2.523 -6.609 3.773 -9.918 c 0.078 -0.207 0.156 -0.426 0.258 -0.621 c 0.648 0.012 1.289 -0.008 1.941 0 c -1.363 3.59 -2.719 7.199 -4.102 10.781 c 0.145 0.055 0.285 0.031 0.438 0.035 c 1.09 -0.008 2.172 0.016 3.258 0 c 1.23 -3.262 2.504 -6.52 3.738 -9.781 c 0.266 -0.668 0.273 -1.449 -0.145 -2.066 c -0.367 -0.543 -1.063 -0.836 -1.723 -0.859 c -0.906 -0.027 -1.801 0.012 -2.707 0 c 1.246 -3.328 2.531 -6.629 3.77 -9.957 c -3.879 0.383 -3.125 0.301 -3.883 0.379 m 8.094 9.508 c -0.027 0.055 -0.047 0.188 -0.074 0.242 c -2.82 7.441 -5.66 14.875 -8.496 22.316 c 3.578 0.488 1 0.152 3.59 0.484 c 1.234 -3.266 2.488 -6.52 3.738 -9.781 c 1.355 -0.027 2.703 -0.012 4.059 -0.035 c 0.867 -0.031 1.73 -0.52 2.02 -1.309 c 1.148 -3.035 2.293 -6.05 3.406 -9.09 c 0.18 -0.461 0.289 -0.965 0.145 -1.445 c -0.195 -0.613 -0.785 -1.078 -1.426 -1.238 c -0.555 -0.164 -1.113 -0.094 -1.684 -0.105 c -1.742 -0.004 -3.531 -0.02 -5.273 -0.035 m 3.191 1.918 c 0.082 0 0.168 0.02 0.25 0.012 c 0.504 0.008 0.996 -0.012 1.5 0 c -1.172 3.141 -2.359 6.289 -3.516 9.438 c -0.648 0.043 -1.324 0.004 -1.977 0 c 1.191 -3.121 2.363 -6.246 3.551 -9.367 c 0.027 -0.031 0.078 -0.063 0.113 -0.07 c 0.027 -0.008 0.051 -0.012 0.078 -0.012" fill="#fff"/></svg>