<svg xmlns="http://www.w3.org/2000/svg" viewBox="0 0 48 48"><path d="m 38.11 4.684 c -36.09 -23.992 -58.31 52.52 -11.664 42.39 c 19.281 -4.316 30.98 -31.383 11.664 -42.39" fill="#473d8b"/><g fill="#695acd"><path d="m 25.594 11.488 c -1.391 0 -4.176 0.645 -4.176 2.379 v 11.926 c -0.453 -0.109 -0.922 -0.168 -1.391 -0.172 c -3.074 0 -5.566 2.301 -5.566 5.141 c 0 2.84 2.492 5.141 5.566 5.141 c 2.805 -0.004 5.168 -1.93 5.52 -4.496 c 0 0 0.047 -0.469 0.047 -0.645 v -10.922 c 0 -5.781 6.988 2 8.352 3.211 c 0 -2.566 -0.695 -11.563 -8.352 -11.563"/><g fill-opacity="0.2"><path d="m 25.594 11.488 c -1.391 0 -4.176 0.645 -4.176 2.379 v 0.645 c 0 -1.738 2.785 -2.379 4.176 -2.379 c 7.141 0 8.215 7.758 8.328 10.895 c 0.004 0.004 0.02 0.02 0.023 0.023 c 0 -2.566 -0.695 -11.563 -8.352 -11.563 m -5.566 14.13 c -3.074 0 -5.566 2.301 -5.566 5.141 c 0 0.109 0.008 0.215 0.016 0.32 c 0.18 -2.688 2.594 -4.816 5.551 -4.816 c 0.469 0 0.938 0.059 1.391 0.172 v -0.645 c -0.453 -0.109 -0.922 -0.168 -1.391 -0.172"/><path d="m 26.707 17.09 c -0.676 0.066 -1.113 0.664 -1.113 2.109 v 0.641 c 0 -5.781 6.988 2 8.352 3.211 c 0 -0.172 -0.016 -0.438 -0.023 -0.664 c -1.047 -0.938 -5.195 -5.488 -7.215 -5.297 m -1.113 13.03 c 0 0.176 -0.047 0.641 -0.047 0.641 c -0.352 2.566 -2.715 4.496 -5.52 4.496 c -2.957 0 -5.371 -2.129 -5.551 -4.816 c -0.008 0.105 -0.016 0.211 -0.016 0.32 c 0 2.84 2.492 5.141 5.566 5.141 c 2.805 -0.004 5.168 -1.93 5.52 -4.496 c 0 0 0.047 -0.469 0.047 -0.645"/></g></g></svg>