<svg xmlns="http://www.w3.org/2000/svg" viewBox="0 0 48 48"><path d="m 9.895 43.32 c 36.09 23.992 58.31 -52.52 11.664 -42.39 c -19.281 4.316 -30.98 31.387 -11.664 42.39" fill="#fc6"/><path d="m 13.891 34.898 c -0.211 -0.129 -0.23 -0.285 -0.094 -0.652 c 0.098 -0.262 1.867 -2.684 3.93 -5.375 c 2.063 -2.695 3.781 -4.98 3.816 -5.074 c 0.063 -0.16 -1.242 -1.922 -6.06 -8.191 c -0.98 -1.277 -1.785 -2.422 -1.785 -2.543 c 0 -0.566 0.48 -0.672 3.047 -0.672 c 3.059 0 2.66 -0.25 4.949 3.121 c 0.809 1.191 1.938 2.688 2.508 3.32 c 0.57 0.637 1.277 1.469 1.57 1.855 c 0.293 0.387 0.602 0.703 0.688 0.703 c 0.086 0 1.676 -1.969 3.535 -4.383 c 1.855 -2.41 3.512 -4.434 3.68 -4.5 c 0.391 -0.148 1.652 -0.148 2.039 0 c 0.645 0.246 0.211 1.027 -2.637 4.758 c -1.613 2.117 -3.398 4.457 -3.961 5.207 l -1.031 1.363 l 2.188 2.855 c 1.203 1.57 2.945 3.828 3.871 5.01 c 1.758 2.25 2.105 2.926 1.66 3.207 c -0.145 0.09 -1.426 0.164 -2.848 0.168 c -3.063 0.004 -2.676 0.254 -5.04 -3.27 c -0.84 -1.242 -1.957 -2.723 -2.484 -3.293 c -0.531 -0.566 -1.203 -1.348 -1.5 -1.738 c -0.293 -0.391 -0.602 -0.688 -0.684 -0.656 c -0.082 0.027 -1.641 1.992 -3.465 4.363 c -1.824 2.375 -3.41 4.375 -3.527 4.453 c -0.301 0.195 -2.031 0.168 -2.359 -0.039 m 9.02 -16.93 c -0.184 -0.184 -0.207 -0.164 -0.105 0.102 c 0.07 0.188 0.176 0.289 0.234 0.234 c 0.059 -0.059 0 -0.211 -0.129 -0.336" fill="#d6aaa2"/><path d="m 13.949 34.609 c -0.105 -0.273 0.563 -1.195 5.883 -8.137 c 1.059 -1.379 1.926 -2.621 1.926 -2.754 c 0 -0.242 -2.234 -3.266 -5.691 -7.703 c -0.98 -1.258 -1.867 -2.445 -1.973 -2.645 c -0.355 -0.664 0.082 -0.793 2.66 -0.793 h 2.422 l 0.719 0.785 c 0.938 1.023 1.73 2.496 1.59 2.941 c -0.164 0.512 1.785 3.094 2.27 3.01 c 0.434 -0.078 0.676 0.098 1.477 1.082 c 0.633 0.773 0.848 1.188 0.785 1.508 c -0.082 0.426 -0.074 0.43 0.293 0.105 c 0.203 -0.184 1.598 -1.938 3.098 -3.898 c 4.227 -5.52 4.234 -5.531 5.164 -5.527 c 0.43 0 0.906 0.082 1.063 0.184 c 0.402 0.258 0.254 0.484 -4 6.04 c -2.027 2.645 -3.688 4.891 -3.688 4.988 c 0 0.211 2.477 3.539 5.605 7.539 c 1.25 1.598 2.25 3.03 2.223 3.188 c -0.043 0.234 -0.5 0.281 -2.766 0.281 h -2.711 l -0.992 -1.383 c -0.543 -0.762 -1.035 -1.605 -1.09 -1.875 c -0.258 -1.262 -1.684 -3.211 -2.348 -3.211 c -0.34 0 -2.234 -2.086 -2.234 -2.461 c 0 -0.102 0.098 -0.371 0.219 -0.598 c 0.547 -1.027 -0.656 0.406 -4.094 4.883 l -3.641 4.738 h -1.027 c -0.75 0 -1.063 -0.078 -1.141 -0.285" fill="#ec8770"/><path d="m 14.09 34.719 c -0.145 -0.09 -0.219 -0.277 -0.16 -0.418 c 0.055 -0.141 1.84 -2.523 3.965 -5.301 c 2.125 -2.777 3.863 -5.168 3.863 -5.309 c 0 -0.484 -2.602 -4.125 -4.121 -5.77 c -1.254 -1.352 -3.566 -4.48 -3.566 -4.824 c 0 -0.445 0.402 -0.52 2.844 -0.52 h 2.254 l 0.559 0.598 c 0.613 0.656 1.336 1.953 1.246 2.23 c -0.105 0.309 -1.418 -0.73 -1.68 -1.32 c -0.141 -0.313 -0.336 -0.566 -0.441 -0.566 c -0.363 0.004 -1.031 0.23 -1.027 0.348 c 0.004 0.066 0.477 0.457 1.055 0.867 c 0.578 0.414 1.504 1.277 2.059 1.922 c 0.555 0.645 1.484 1.727 2.066 2.406 c 0.684 0.793 1.105 1.152 1.195 1.012 c 0.344 -0.559 2 1.18 1.813 1.898 c -0.102 0.383 -0.094 0.383 0.281 0.047 c 0.215 -0.191 1.863 -2.27 3.672 -4.621 c 1.805 -2.348 3.457 -4.395 3.672 -4.547 c 0.441 -0.309 1.57 -0.359 1.996 -0.086 c 0.402 0.262 0.254 0.484 -4.02 6.066 l -3.715 4.848 l 0.285 0.59 c 0.402 0.832 3.01 4.363 3.965 5.371 c 0.879 0.93 3.121 3.805 3.449 4.426 c 0.371 0.703 -0.027 0.824 -2.703 0.824 h -2.477 l -0.555 -0.703 c -0.77 -0.98 -1.211 -1.902 -1.078 -2.25 c 0.199 -0.52 -2.492 -4.172 -3.078 -4.172 c -0.422 0 -1.188 -0.598 -1.711 -1.336 c -0.348 -0.484 -0.375 -0.637 -0.184 -1.055 c 0.199 -0.441 0.191 -0.461 -0.094 -0.223 c -0.172 0.145 -1.832 2.246 -3.688 4.672 c -1.855 2.426 -3.539 4.559 -3.746 4.738 c -0.402 0.352 -1.734 0.449 -2.191 0.156 m 11.137 -12.953 c 0.063 -0.102 0.027 -0.188 -0.082 -0.188 c -0.109 0 -0.199 0.086 -0.199 0.188 c 0 0.102 0.035 0.188 0.082 0.188 c 0.047 0 0.137 -0.086 0.199 -0.188 m 9.09 -8.05 c 0 -0.098 -0.086 -0.23 -0.188 -0.293 c -0.102 -0.063 -0.188 0.016 -0.188 0.176 c 0 0.16 0.086 0.293 0.188 0.293 c 0.102 0 0.188 -0.078 0.188 -0.176" fill="#f4694d"/><path d="m 14.09 34.719 c -0.145 -0.09 -0.219 -0.277 -0.16 -0.418 c 0.055 -0.141 1.84 -2.523 3.965 -5.301 c 2.125 -2.777 3.859 -5.184 3.859 -5.344 c -0.004 -0.164 -0.168 -0.508 -0.371 -0.766 c -0.203 -0.258 -0.367 -0.543 -0.371 -0.629 c -0.004 -0.09 -0.383 -0.703 -0.84 -1.359 c -0.461 -0.66 -0.793 -1.199 -0.734 -1.199 c 0.055 0 0.48 0.402 0.941 0.891 c 0.941 1 0.824 0.652 -0.422 -1.277 c -0.453 -0.699 -0.824 -1.352 -0.824 -1.453 c 0 -0.098 0.738 0.07 1.641 0.375 c 1.516 0.512 1.727 0.648 2.805 1.805 c 0.695 0.746 1.168 1.426 1.172 1.676 c 0.008 0.465 0.191 0.539 0.523 0.207 c 0.164 -0.164 0.125 -0.332 -0.148 -0.684 c -0.699 -0.887 -0.281 -1.117 0.5 -0.277 c 0.313 0.336 0.445 0.66 0.391 0.945 c -0.082 0.418 -0.074 0.422 0.293 0.098 c 0.203 -0.184 1.852 -2.258 3.656 -4.609 c 1.805 -2.348 3.457 -4.395 3.672 -4.547 c 0.445 -0.309 1.574 -0.359 1.996 -0.086 c 0.402 0.262 0.258 0.48 -4.03 6.074 l -3.719 4.859 l 0.441 0.859 c 0.242 0.477 0.813 1.406 1.27 2.07 c 0.453 0.664 0.855 1.375 0.895 1.582 c 0.094 0.477 0.402 0.785 1.219 1.219 c 0.602 0.32 3.227 3.434 3.828 4.543 c 0.438 0.809 0.117 0.918 -2.648 0.918 h -2.488 l -0.664 -0.867 c -0.684 -0.898 -0.809 -1.348 -0.469 -1.688 c 0.137 -0.141 -0.152 -0.676 -0.965 -1.773 c -1.566 -2.125 -3.043 -3.82 -3.121 -3.586 c -0.113 0.332 -0.789 0.02 -1.199 -0.559 c -0.336 -0.473 -0.363 -0.625 -0.172 -1.039 c 0.199 -0.445 0.191 -0.465 -0.094 -0.227 c -0.172 0.145 -1.832 2.246 -3.688 4.672 c -1.855 2.43 -3.539 4.563 -3.746 4.742 c -0.402 0.352 -1.734 0.445 -2.191 0.156 m 10.855 -8.832 c 0 -0.207 -0.125 -0.375 -0.281 -0.375 c -0.285 0 -0.387 0.398 -0.156 0.625 c 0.238 0.238 0.438 0.125 0.438 -0.25 m -1.781 -2.063 c 0 -0.137 -0.105 -0.285 -0.234 -0.328 c -0.141 -0.047 -0.234 0.086 -0.234 0.328 c 0 0.242 0.094 0.375 0.234 0.328 c 0.129 -0.043 0.234 -0.191 0.234 -0.328 m 10.11 -8.688 c 0.68 -0.809 1.191 -1.547 1.133 -1.641 c -0.176 -0.285 -0.645 -0.191 -0.645 0.133 c 0 0.164 -0.313 0.734 -0.695 1.266 c -1.402 1.945 -1.621 2.27 -1.328 1.992 c 0.164 -0.152 0.852 -0.941 1.535 -1.75 m -15.59 2.777 c -0.563 -0.395 -3.609 -4.457 -3.609 -4.813 c 0 -0.453 0.398 -0.527 2.848 -0.527 h 2.254 l 0.629 0.684 c 0.734 0.805 1.141 1.754 0.746 1.754 c -0.266 0 -1.418 -1.207 -1.418 -1.484 c 0 -0.18 -3.203 -0.039 -3.41 0.148 c -0.07 0.066 0.41 0.816 1.066 1.668 c 1.41 1.832 1.914 3.285 0.895 2.57" fill="#b0625f"/><path d="m 14.195 34.578 c -0.176 -0.176 0.039 -0.48 4.125 -5.82 c 1.992 -2.605 3.625 -4.867 3.625 -5.03 c 0 -0.16 -0.59 -1.133 -1.309 -2.16 c -0.719 -1.027 -1.262 -1.867 -1.203 -1.867 c 0.059 0 0.484 0.402 0.945 0.891 c 0.941 1 0.824 0.652 -0.422 -1.277 c -0.453 -0.699 -0.824 -1.352 -0.824 -1.453 c 0 -0.098 0.738 0.07 1.641 0.375 c 1.516 0.512 1.727 0.648 2.805 1.805 c 0.691 0.746 1.168 1.426 1.172 1.676 c 0.008 0.465 0.191 0.539 0.523 0.207 c 0.164 -0.164 0.125 -0.332 -0.148 -0.684 c -0.203 -0.254 -0.367 -0.539 -0.367 -0.625 c 0 -0.336 0.363 -0.145 0.746 0.395 c 0.336 0.469 0.363 0.625 0.172 0.984 c -0.254 0.484 -7.676 10.219 -8.934 11.723 c -0.758 0.906 -0.891 0.984 -1.625 0.984 c -0.438 0 -0.855 -0.055 -0.922 -0.125 m 8.969 -10.75 c 0 -0.137 -0.105 -0.285 -0.234 -0.328 c -0.141 -0.047 -0.234 0.086 -0.234 0.328 c 0 0.242 0.094 0.375 0.234 0.328 c 0.129 -0.043 0.234 -0.191 0.234 -0.328 m 6.672 9.984 c -0.805 -0.938 -0.891 -1.16 -0.57 -1.48 c 0.137 -0.137 -0.156 -0.672 -0.965 -1.773 c -1.609 -2.18 -3.047 -3.816 -3.129 -3.57 c -0.109 0.328 -0.742 -0.086 -1.051 -0.684 c -0.246 -0.48 -0.227 -0.57 0.324 -1.367 c 1.168 -1.684 8.535 -11.152 9.08 -11.672 c 0.449 -0.422 0.699 -0.516 1.27 -0.469 c 0.391 0.035 0.742 0.152 0.777 0.262 c 0.035 0.109 -1.707 2.512 -3.875 5.344 c -2.164 2.828 -3.938 5.254 -3.941 5.383 c 0 0.133 0.598 1.098 1.328 2.141 c 0.73 1.043 1.359 2.063 1.398 2.266 c 0.094 0.484 0.406 0.84 0.992 1.121 c 0.445 0.215 2.797 3.051 3.613 4.359 c 0.629 1 0.574 1.031 -2.07 1.031 h -2.422 m -5.652 -8.813 c 0 -0.207 -0.125 -0.375 -0.281 -0.375 c -0.285 0 -0.383 0.398 -0.156 0.625 c 0.238 0.238 0.438 0.125 0.438 -0.25 m 8.324 -10.75 c 0.684 -0.809 1.191 -1.547 1.137 -1.641 c -0.18 -0.285 -0.648 -0.191 -0.648 0.133 c 0 0.164 -0.313 0.734 -0.691 1.266 c -1.406 1.945 -1.621 2.27 -1.332 1.992 c 0.164 -0.152 0.855 -0.941 1.535 -1.75 m -16.477 1.535 c -1.977 -2.492 -2.633 -3.547 -2.324 -3.742 c 0.141 -0.094 1.266 -0.145 2.496 -0.121 l 2.238 0.047 l 0.836 1.023 c 0.512 0.629 0.746 1.051 0.605 1.098 c -0.27 0.09 -1.273 -0.824 -1.422 -1.289 c -0.09 -0.281 -0.309 -0.309 -1.738 -0.227 c -0.898 0.055 -1.691 0.148 -1.762 0.215 c -0.07 0.066 0.406 0.816 1.063 1.668 c 1.07 1.391 1.617 2.523 1.348 2.793 c -0.055 0.055 -0.656 -0.605 -1.34 -1.465" fill="#ef4c31"/><path d="m 14.195 34.578 c -0.176 -0.176 0.039 -0.48 4.125 -5.82 c 1.992 -2.605 3.625 -4.891 3.625 -5.078 c 0 -0.188 -0.105 -0.453 -0.234 -0.59 c -0.191 -0.199 -0.184 -0.23 0.031 -0.164 c 0.465 0.141 0.672 0.652 0.477 1.172 c -0.098 0.262 -1.742 2.508 -3.648 4.988 c -1.91 2.48 -3.586 4.676 -3.727 4.875 c -0.242 0.344 -0.215 0.367 0.426 0.367 c 0.539 0 0.746 -0.109 1 -0.52 c 0.676 -1.078 8.285 -10.848 8.867 -11.387 c 0.93 -0.855 0.617 -0.414 -3.637 5.156 c -5.586 7.313 -5.418 7.125 -6.387 7.125 c -0.438 0 -0.855 -0.059 -0.922 -0.125 m 15.977 -0.391 c -0.258 -0.285 -0.59 -0.676 -0.738 -0.875 c -0.254 -0.336 -0.246 -0.344 0.152 -0.133 c 0.23 0.121 0.559 0.438 0.73 0.695 c 0.309 0.469 0.324 0.473 2.719 0.418 c 1.832 -0.047 2.41 -0.004 2.41 0.176 c 0 0.176 -0.605 0.234 -2.402 0.234 c -2.383 0 -2.406 -0.004 -2.871 -0.516 m 4.668 -0.434 c -0.629 -0.367 -2.766 -3.43 -2.543 -3.652 c 0.063 -0.063 2.48 3.02 2.828 3.598 c 0.176 0.297 0.145 0.305 -0.285 0.055 m -6.766 -6.883 c -0.188 -0.039 -0.309 -0.168 -0.27 -0.281 c 0.113 -0.344 0.461 -0.359 0.59 -0.023 c 0.145 0.375 0.117 0.402 -0.32 0.305 m -3.945 -1.461 c 0.48 -0.797 8.789 -11.59 9.148 -11.887 c 0.59 -0.488 0.27 0.176 -0.691 1.438 c -4.414 5.785 -7.711 9.988 -8.211 10.461 l -0.598 0.563 m 3.828 -1.633 c -0.121 -0.121 -0.223 -0.371 -0.223 -0.555 c 0 -0.184 1.695 -2.582 3.77 -5.332 c 3.82 -5.07 3.953 -5.313 2.895 -5.32 c -0.258 -0.004 -0.305 -0.063 -0.164 -0.203 c 0.316 -0.32 1.66 -0.141 1.637 0.215 c -0.012 0.164 -1.668 2.441 -3.676 5.063 c -4.422 5.77 -4.246 5.5 -3.941 5.984 c 0.254 0.41 0.063 0.508 -0.293 0.148 m -1.996 -2.906 c -0.102 -0.266 -0.082 -0.289 0.105 -0.105 c 0.129 0.129 0.184 0.277 0.129 0.336 c -0.059 0.059 -0.164 -0.047 -0.234 -0.23 m -9.625 -5.813 c -0.75 -0.992 -1.309 -1.852 -1.246 -1.914 c 0.238 -0.23 2.809 3.145 2.676 3.52 c -0.039 0.105 -0.68 -0.617 -1.43 -1.605 m 3.543 -1.836 l -0.598 -0.656 h -2.152 c -1.547 0 -2.148 0.063 -2.148 0.227 c 0 0.168 -0.059 0.168 -0.234 -0.008 c -0.43 -0.43 0.246 -0.59 2.496 -0.59 c 2.348 -0.004 2.309 -0.02 3.348 1.355 c 0.449 0.594 -0.102 0.34 -0.711 -0.328" fill="#af1e19"/></svg>