<svg xmlns="http://www.w3.org/2000/svg" viewBox="0 0 48 48"><g fill="#9acc31"><path d="m 25.512 47.871 c -0.156 -0.023 -0.688 -0.086 -1.184 -0.141 c -3.43 -0.391 -7.477 -1.727 -10.914 -3.598 c -6.383 -3.48 -11.168 -8.957 -12.723 -14.578 c -0.484 -1.738 -0.555 -2.305 -0.555 -4.453 c -0.004 -2.289 0.129 -3.168 0.758 -5.086 c 2.297 -7.02 9.344 -13.438 20.387 -18.578 c 1.676 -0.777 2.426 -0.992 4.418 -1.246 c 1.25 -0.16 3.785 -0.137 5.105 0.047 c 6.535 0.91 12.223 5.133 15.176 11.281 c 1.547 3.215 1.93 5.352 1.926 10.82 c 0 6.367 -1.035 11.355 -3.23 15.547 c -2.848 5.445 -7.574 8.836 -13.672 9.813 c -0.898 0.145 -4.809 0.266 -5.492 0.172 m 3.645 -12.184 c 0.898 -0.461 0.973 -0.84 0.93 -4.703 c -0.027 -2.879 -0.031 -2.902 -0.262 -3.305 c -0.129 -0.227 -0.383 -0.5 -0.57 -0.617 c -0.328 -0.207 -0.383 -0.207 -4.926 -0.238 c -4.918 -0.031 -5.355 0 -5.805 0.414 c -0.551 0.516 -0.551 0.492 -0.52 4.234 l 0.027 3.434 l 0.227 0.316 c 0.125 0.176 0.402 0.398 0.617 0.496 c 0.359 0.164 0.711 0.176 5.125 0.18 c 4.73 0 4.738 0 5.156 -0.211 m -12.297 -6.445 c 0.031 -1.531 0.051 -1.664 0.273 -2.102 c 0.156 -0.297 0.41 -0.59 0.707 -0.801 l 0.469 -0.336 h 11.371 l 0.398 0.262 c 0.484 0.313 0.836 0.82 0.965 1.395 c 0.055 0.234 0.102 1.063 0.102 1.836 v 1.41 l 1.113 -0.051 c 0.82 -0.035 1.254 -0.102 1.648 -0.25 c 1.023 -0.391 1.863 -1.227 2.277 -2.27 c 0.203 -0.512 0.215 -0.676 0.246 -3.871 c 0.02 -1.98 -0.004 -3.594 -0.063 -3.957 c -0.242 -1.566 -1.277 -2.77 -2.754 -3.207 c -0.379 -0.113 -0.914 -0.152 -2.043 -0.152 h -1.531 l -0.055 0.699 c -0.027 0.383 -0.117 0.824 -0.199 0.98 c -0.203 0.391 -0.668 0.762 -1.031 0.828 c -0.168 0.031 -2.426 0.043 -5.01 0.027 c -4.602 -0.027 -4.711 -0.031 -4.973 -0.227 c -0.535 -0.398 -0.691 -0.754 -0.691 -1.566 v -0.742 h -1.594 c -1.141 0 -1.727 0.039 -2.07 0.141 c -1.496 0.441 -2.563 1.668 -2.781 3.195 c -0.117 0.816 -0.109 6.324 0.008 7.078 c 0.254 1.598 1.496 2.91 3.043 3.215 c 0.227 0.043 0.801 0.086 1.277 0.09 l 0.867 0.012 m 11.57 -11.918 c 0.18 -0.094 0.414 -0.289 0.52 -0.434 c 0.18 -0.242 0.191 -0.41 0.219 -3.141 c 0.027 -2.797 0.023 -2.898 -0.176 -3.246 c -0.414 -0.742 -0.277 -0.723 -4.965 -0.723 c -4.691 0 -4.551 -0.02 -4.969 0.723 c -0.195 0.348 -0.199 0.449 -0.172 3.227 c 0.027 2.789 0.031 2.879 0.238 3.164 c 0.43 0.605 0.406 0.602 4.902 0.602 c 3.785 0.004 4.098 -0.008 4.402 -0.172"/><path d="m 14.426 6.34 h 25.637 c 1.918 0 3.473 1.566 3.473 3.504 v 25.879 c 0 1.938 -1.555 3.504 -3.473 3.504 h -25.637 c -1.918 0 -3.473 -1.566 -3.473 -3.504 v -25.879 c 0 -1.938 1.555 -3.504 3.473 -3.504" fill-rule="evenodd"/></g><path d="m 23.1 10.422 c -1.238 -0.023 -2.309 1.223 -2.047 2.465 c 0.176 1.902 1.391 3.441 2.34 5.01 c 0.105 0.586 -0.199 1.152 -0.223 1.734 c -0.617 3.402 -1.559 6.789 -3.01 9.914 c -1.793 0.836 -3.824 1.656 -4.871 3.453 c -0.668 1.246 0.27 2.93 1.648 3.059 c 1.273 0.18 2.223 -0.926 2.918 -1.852 c 0.73 -0.996 1.211 -2.18 1.816 -3.25 c 3.668 -1.492 7.527 -2.531 11.469 -2.93 c 1.59 1.152 3.277 2.508 5.32 2.59 c 1.188 -0.016 2.148 -1.18 2.02 -2.363 c -0.078 -1.074 -1.023 -1.828 -2 -2.031 c -1.582 -0.48 -3.277 -0.219 -4.887 -0.207 c -3.098 -2.496 -5.957 -5.371 -8.207 -8.66 c 0.168 -1.996 0.504 -4.211 -0.527 -6.03 c -0.395 -0.574 -1.059 -0.969 -1.758 -0.906 m 0.059 1.816 c 0.352 0.066 0.375 0.59 0.473 0.871 c 0.09 0.574 0.082 1.156 0.074 1.734 c -0.414 -0.785 -0.957 -1.605 -0.859 -2.531 c 0.109 -0.004 0.207 -0.063 0.313 -0.074 m 1.922 7.797 c 1.848 2.316 3.898 4.449 6.133 6.383 c -2.949 0.457 -5.879 1.215 -8.688 2.242 c 1.078 -2.84 1.898 -5.773 2.438 -8.77 c 0.039 0.047 0.078 0.098 0.117 0.145 m 11.512 7.789 c 0.719 0.07 1.543 0.027 2.117 0.523 c 0.051 0.449 -0.492 0.516 -0.781 0.355 c -0.605 -0.207 -1.203 -0.461 -1.719 -0.852 c 0.129 -0.008 0.258 -0.027 0.383 -0.027 m -17.883 4.727 c -0.34 0.637 -0.836 1.238 -1.352 1.691 c -0.172 0.281 -0.645 -0.238 -0.426 -0.457 c 0.449 -0.707 1.23 -1.086 1.922 -1.508 c -0.047 0.09 -0.094 0.18 -0.145 0.273" fill-opacity="0.302"/><path d="m 22.664 9.984 c -1.238 -0.023 -2.309 1.223 -2.047 2.465 c 0.176 1.898 1.391 3.441 2.336 5.01 c 0.109 0.582 -0.195 1.152 -0.219 1.73 c -0.617 3.406 -1.559 6.793 -3.01 9.918 c -1.793 0.832 -3.824 1.656 -4.871 3.453 c -0.668 1.246 0.27 2.926 1.645 3.059 c 1.277 0.176 2.227 -0.926 2.922 -1.852 c 0.73 -0.996 1.207 -2.18 1.816 -3.25 c 3.668 -1.492 7.527 -2.535 11.465 -2.93 c 1.594 1.152 3.281 2.508 5.324 2.59 c 1.188 -0.016 2.148 -1.18 2.02 -2.363 c -0.078 -1.074 -1.023 -1.828 -2 -2.031 c -1.582 -0.48 -3.277 -0.219 -4.887 -0.207 c -3.098 -2.496 -5.957 -5.371 -8.207 -8.66 c 0.164 -2 0.5 -4.211 -0.531 -6.03 c -0.391 -0.57 -1.055 -0.965 -1.754 -0.902 m 0.059 1.816 c 0.348 0.066 0.371 0.59 0.469 0.871 c 0.094 0.57 0.082 1.156 0.078 1.73 c -0.418 -0.781 -0.957 -1.602 -0.859 -2.531 c 0.109 -0.004 0.207 -0.059 0.313 -0.07 m 1.922 7.797 c 1.848 2.316 3.895 4.449 6.133 6.383 c -2.949 0.453 -5.879 1.215 -8.688 2.242 c 1.078 -2.84 1.895 -5.777 2.438 -8.77 c 0.039 0.047 0.078 0.094 0.117 0.145 m 11.512 7.785 c 0.715 0.07 1.543 0.031 2.113 0.527 c 0.055 0.449 -0.488 0.516 -0.777 0.352 c -0.605 -0.203 -1.207 -0.461 -1.719 -0.852 c 0.129 -0.008 0.254 -0.023 0.383 -0.027 m -17.883 4.727 c -0.34 0.641 -0.836 1.242 -1.352 1.695 c -0.172 0.281 -0.645 -0.238 -0.426 -0.457 c 0.445 -0.711 1.23 -1.086 1.922 -1.508 c -0.047 0.09 -0.098 0.18 -0.145 0.27" fill="#fff"/></svg>