<svg xmlns="http://www.w3.org/2000/svg" viewBox="0 0 48 48"><path d="m 24.08 0.645 c 32.21 -3.598 31.762 47.926 -0.574 47.32 c -30.07 1.699 -32.785 -50.12 0.574 -47.32" fill="#623502"/><path d="m 16.652 37.801 c 0.031 -0.398 -0.305 -0.367 -0.504 -0.625 c -0.52 -0.449 -0.934 -0.938 -1.484 -1.246 c -0.195 -0.051 -0.215 -0.145 -0.215 -0.918 c 0 -0.781 0.02 -0.871 0.219 -0.922 c 0.543 -0.668 1.563 -1.07 2.043 -1.758 c 0.211 -0.535 1.652 -0.227 2.242 -0.227 c 1.805 0 2.203 -0.023 2.344 -0.141 c -0.07 -0.777 -0.371 -0.539 -0.371 -1.379 c 0 -0.781 0.02 -0.867 0.219 -0.922 c 0.34 -1.129 1.609 -1.406 2.578 -1.43 c 0.922 0 1.035 0.02 1.098 0.18 c 0.879 0.074 1.281 1.113 1.48 1.25 c 0.199 0.055 0.219 0.141 0.219 0.922 c 0.172 0.797 -0.648 1.133 -0.371 1.379 c 0.141 0.117 0.535 0.141 2.289 0.141 h 2.121 l 0.449 0.469 c 0.105 0.109 -0.207 0.012 -0.043 0.047 c 0.555 0.188 1.422 1.398 1.762 1.477 c 0.266 0.055 0.27 0.078 0.27 0.914 c 0 0.828 -0.008 0.855 -0.266 0.91 c -0.148 0.031 -0.297 0.137 -0.336 0.238 c -0.293 0.305 -1.789 1.488 -1.738 1.621 c 0.051 0.117 -0.828 0.133 -6.98 0.133 c -5.57 0 -7.04 -0.023 -7.02 -0.113 m 13.07 -1.105 c 1.375 -0.098 1.555 -1.211 1.621 -1.758 c 0 -0.445 -0.68 -1.371 -0.898 -1.441 c -0.141 -0.043 -0.32 -0.148 -0.402 -0.234 c -0.465 -0.105 -3.215 -0.445 -3.309 -0.398 c -1.766 -0.027 -2.441 0.07 -3.613 0.074 c -0.719 0 -0.992 -0.035 -1.094 -0.141 c -1.875 0.305 -3.816 0.09 -4.797 0.344 c -0.508 0.18 -1.563 1.129 -1.59 1.43 c -0.031 0.344 -0.008 1.172 0.246 1.102 c 0.266 -0.07 1.465 0.965 1.512 1.086 c 5.707 0.211 6.777 0.074 12.324 -0.063 m -6.27 -5.785 c 0.715 -0.348 0.727 -0.395 1.148 -0.922 c 0.215 -0.289 0.348 -0.719 0.02 -0.828 c -0.152 -0.047 -0.332 -0.172 -0.398 -0.273 c -0.145 -0.227 -0.887 -0.27 -1.09 -0.063 c -1.172 0.516 -2.34 1.766 -0.723 2.27 c 0.398 0.145 0.668 0.094 1.043 -0.184 m -13.828 -11.18 v -5.414 h 28.09 v 10.832 h -28.09 m 8.809 -1.207 c 0.055 -0.148 0.105 -1.016 0.117 -1.93 l 0.02 -1.66 l 5.125 -0.043 c 4.488 -0.043 5.148 -0.066 5.301 -0.195 c 0.141 -0.117 0.148 -0.164 0.031 -0.242 c -0.184 -0.133 -11.129 -0.195 -11.262 -0.066 c -0.148 0.145 0.039 4.164 0.203 4.332 c 0.191 0.191 0.352 0.129 0.465 -0.195 m 11.746 0 c 0.051 -0.148 0.102 -1.016 0.113 -1.93 l 0.02 -1.66 l 3.371 -0.023 c 3.109 -0.023 3.379 -0.035 3.477 -0.188 c 0.059 -0.094 0.074 -0.211 0.031 -0.266 c -0.102 -0.137 -7.539 -0.207 -7.676 -0.074 c -0.152 0.148 0.027 4.164 0.195 4.332 c 0.191 0.195 0.352 0.133 0.469 -0.191 m -13.551 -0.258 c 0.137 -0.074 0.191 -2.484 0.063 -2.77 c -0.086 -0.184 -0.523 -0.191 -0.703 -0.008 c -0.074 0.074 -0.105 0.203 -0.066 0.281 c 0.055 0.41 -0.016 0.73 -0.074 1.148 h -0.422 c -0.305 0 -0.426 0.039 -0.426 0.137 c 0 0.102 0.121 0.141 0.441 0.141 c 0.355 0 0.438 0.031 0.438 0.172 c 0 0.145 -0.105 0.18 -0.629 0.215 c -0.348 0.027 -0.84 0.027 -1.098 0 c -0.43 -0.039 -0.469 -0.066 -0.469 -0.309 c -0.043 -0.379 -0.445 -0.395 -0.617 -0.695 c -0.238 -0.313 -0.5 -0.215 -0.918 -0.215 v 0.395 c 0 0.293 0.055 0.422 0.219 0.508 c 0.383 0.199 0.238 0.297 -0.441 0.297 c -0.359 0 -0.656 -0.035 -0.656 -0.082 c 0 -0.043 -0.102 -0.102 -0.227 -0.129 c -0.125 -0.031 -0.258 -0.137 -0.289 -0.242 c -0.137 -0.441 -0.313 -0.051 -0.395 0.867 l -0.023 0.277 l 1.813 0.047 c 2.438 0.063 4.32 0.047 4.477 -0.035 m 11.754 -0.008 c 0.129 -0.066 0.176 -2.496 0.055 -2.762 c -0.082 -0.184 -0.52 -0.191 -0.699 -0.008 c -0.078 0.074 -0.105 0.203 -0.07 0.281 c 0.055 0.41 -0.016 0.73 -0.074 1.148 h -0.422 c -0.305 0 -0.426 0.039 -0.426 0.137 c 0.27 0.234 0.691 0.086 0.879 0.313 c 0 0.141 -0.105 0.18 -0.617 0.215 c -0.34 0.023 -0.855 0.023 -1.152 0 c -0.496 -0.039 -0.535 -0.063 -0.535 -0.293 c -0.305 -0.383 -1.066 -0.332 -0.547 -0.785 c 0 -0.105 -0.129 -0.141 -0.496 -0.141 h -0.492 v 0.395 c 0 0.313 0.047 0.41 0.238 0.484 c 0.496 0.188 0.359 0.32 -0.34 0.32 c -0.367 0 -0.668 -0.039 -0.668 -0.082 c 0 -0.043 -0.102 -0.105 -0.227 -0.133 c -0.313 -0.227 -0.973 -0.715 -0.98 -0.816 c 0 -0.172 -0.648 -0.332 -0.871 -0.219 c -0.242 0.129 -0.121 0.426 0.211 0.523 c 0.281 0.082 0.332 0.145 0.332 0.41 c 0 0.297 -0.023 0.316 -0.387 0.316 c -0.363 0 -0.383 -0.02 -0.383 -0.313 c 0.074 -0.637 -1.195 -0.254 -1.207 -0.707 c 0 -0.102 -0.051 -0.18 -0.109 -0.18 c -0.063 0 -0.109 0.176 -0.109 0.395 c 0 0.293 0.063 0.438 0.242 0.57 l 0.246 0.176 l -0.352 0.078 c -0.422 0.09 -0.656 0.387 -0.465 0.582 c 0.086 0.086 0.422 0.137 1.023 0.156 c 1.668 0.047 8.281 0 8.402 -0.063 m 8.73 -0.059 c 0.066 -0.055 0.059 -0.195 -0.027 -0.391 c 0.004 -0.539 -0.355 -0.887 -0.57 -1.305 c 0 -0.105 -0.125 -0.141 -0.492 -0.141 h -0.496 c 0.008 0.289 -0.047 0.754 0.223 0.902 c 0.375 0.195 0.242 0.297 -0.387 0.297 c -0.332 0 -0.602 -0.039 -0.602 -0.086 c -0.199 -0.133 -0.43 -0.172 -0.594 -0.336 c -0.059 -0.105 -0.207 -0.23 -0.332 -0.277 c -0.289 -0.219 -0.348 -0.5 -0.672 -0.555 c -0.504 -0.078 -0.73 0.008 -0.688 0.258 c 0.023 0.141 0.145 0.227 0.391 0.277 c 0.316 0.07 0.355 0.113 0.355 0.398 c 0 0.313 -0.012 0.32 -0.438 0.32 c -0.711 0 -0.281 -0.602 -0.797 -0.691 c -0.652 -0.109 -0.738 -0.148 -0.738 -0.328 c 0 -0.098 -0.074 -0.18 -0.168 -0.18 c -0.121 0 -0.164 0.105 -0.164 0.41 c -0.059 0.383 0.727 0.777 0.273 0.789 c -0.262 0 -0.711 0.285 -0.711 0.449 c 0 0.191 0.34 0.281 1.156 0.305 c 1.566 0.051 5.371 -0.031 5.477 -0.117 m -22.273 -1.465 c 0.125 -0.172 -0.074 -1.199 -0.234 -1.199 c -0.082 0 -0.148 0.035 -0.148 0.082 c -0.754 0.48 -0.539 0.395 -0.109 0.863 c 0.113 0.234 0.262 0.426 0.492 0.254 m 11.742 0 c 0.129 -0.172 -0.07 -1.199 -0.23 -1.199 c -0.195 0.082 -0.305 0.211 -0.508 0.254 c -0.438 0.098 -0.508 0.418 -0.105 0.465 c 0.367 0.063 0.621 0.758 0.844 0.48 m -14.871 -0.832 c -0.121 0 -0.219 0.063 -0.219 0.137 c 0 0.078 0.098 0.141 0.219 0.141 c 0.32 -0.07 0.195 -0.215 0 -0.277 m 9 -0.047 c 0 -0.32 -0.004 -0.32 -0.492 -0.32 c -0.512 0 -0.668 0.125 -0.27 0.211 c 0.125 0.027 -0.934 0.609 0.289 0.48 c 0.238 0.34 0.473 -0.145 0.473 -0.371 m 2.852 0.184 c -0.27 -0.027 -0.07 -0.137 -0.164 -0.137 c -0.09 0 -0.164 0.063 -0.164 0.137 c 0.102 0.211 0.242 0.125 0.328 0 m 8.781 -0.184 c 0 -0.313 -0.008 -0.32 -0.438 -0.32 c -0.465 0 -0.918 0.461 -0.535 0.543 c 0.309 0.168 0.961 0.332 0.973 -0.223 m 2.965 0.184 c 0 -0.074 -0.074 -0.137 -0.164 -0.137 c -0.09 0 -0.164 0.063 -0.164 0.137 c 0.098 0.211 0.238 0.125 0.328 0 m -17.961 -1.324 c 0.141 -0.098 0.156 -0.156 0.059 -0.254 c -0.098 -0.102 -0.797 -0.125 -3.613 -0.125 c -3.66 0 -3.723 0.008 -3.484 0.398 c 0.098 0.16 0.301 0.168 3.48 0.137 c 2.672 -0.023 3.414 -0.055 3.559 -0.156 m 1.129 -1.117 c 0.102 -0.258 0.18 -0.316 0.387 -0.301 c 0.766 0.059 9.484 0.012 9.559 -0.055 c 0.047 -0.039 0.074 -0.691 0.059 -1.449 l -0.031 -1.375 l -0.309 -0.031 c -0.168 -0.016 -0.367 0.012 -0.441 0.066 c -0.086 0.059 -1.59 0.086 -4.211 0.074 c -2.242 -0.012 -4.113 0.016 -4.16 0.055 c -0.047 0.039 -0.102 0.535 -0.121 1.102 c 0.219 2.234 -0.742 2.578 -0.809 1.496 c -0.023 -0.941 0.141 -3.047 0.207 -3.102 c 0.043 -0.035 2.348 -0.074 5.125 -0.086 c 4.113 -0.02 5.203 0.145 5.414 0.035 c 0.461 -0.23 0.289 -0.02 0.457 1.863 c -0.215 0.145 -0.188 2.055 0.637 1.688 c 0.07 -0.223 0.152 -0.297 0.305 -0.277 c 0.117 0.012 1.617 0.023 3.332 0.023 c 3.223 0 3.414 -0.023 3.223 -0.371 c -0.043 -0.078 -0.098 -0.656 -0.117 -1.293 l -0.043 -1.152 l -2.945 0.004 c -1.621 0 -2.984 0.031 -3.03 0.07 c -0.047 0.039 -0.102 0.535 -0.117 1.102 c -0.027 0.762 -0.188 1.637 -0.309 1.738 c -0.328 0.273 -0.301 -0.578 -0.285 -1.949 c 0.008 -0.719 0.043 -1.344 0.074 -1.391 c 0.031 -0.043 1.535 -0.078 3.336 -0.078 c 2.797 0 3.305 -0.023 3.445 -0.141 c 0.156 -0.133 0.141 -0.398 -0.023 -0.426 c -0.039 -0.008 -1.676 -0.02 -3.641 -0.031 c -2.91 -0.02 -3.621 0.004 -3.879 0.109 c -0.242 0.102 -0.379 0.109 -0.602 0.031 c -0.195 -0.066 -2.082 -0.113 -5.559 -0.137 c -4.414 -0.027 -5.316 -0.012 -5.57 0.098 c -0.211 0.09 -0.367 0.105 -0.504 0.043 c -0.109 -0.051 -1.688 -0.109 -3.512 -0.133 c -2.777 -0.035 -3.344 -0.02 -3.473 0.09 c -0.203 0.168 -0.102 0.391 0.199 0.453 c 0.133 0.027 1.703 0.035 3.492 0.016 c 2.383 -0.023 3.355 0.176 3.477 0.09 c 0.293 -0.203 0.293 -0.172 0.324 1.688 c 0.016 0.988 0.055 1.609 0.086 1.727 c 0.082 0.316 0.406 0.5 0.559 0.117 m -1.773 -1.75 v -1.43 l -0.309 -0.031 c -0.172 -0.016 -0.375 0.016 -0.453 0.07 c -0.098 0.07 -0.898 0.09 -2.492 0.063 c -1.289 -0.02 -2.48 -0.016 -2.648 0.012 l -0.301 0.047 v 0.996 c 0 0.547 -0.051 1.109 -0.113 1.25 c -0.23 0.508 -0.27 0.5 3.156 0.477 l 3.16 -0.027" fill="#faf5ba"/></svg>