<svg xmlns="http://www.w3.org/2000/svg" viewBox="0 0 48 48"><path d="m 38.11 4.684 c -36.09 -23.992 -58.31 52.52 -11.664 42.39 c 19.281 -4.316 30.98 -31.383 11.664 -42.39" fill="#dcdcdc"/><path d="m 21.352 39.35 c -2.777 -0.098 -5.301 -0.457 -6.52 -0.93 c -0.441 -0.172 -0.547 -0.281 -0.547 -0.563 c 0 -0.445 1.316 -0.891 3.441 -1.168 c 0.855 -0.109 1.043 -0.16 1.52 -0.418 l 0.543 -0.293 l -0.063 -2.441 c -0.059 -2.355 -0.066 -2.441 -0.254 -2.559 c -0.156 -0.098 -0.199 -0.215 -0.215 -0.586 c -0.012 -0.258 -0.047 -0.535 -0.082 -0.621 c -0.035 -0.082 0 -0.344 0.078 -0.574 c 0.109 -0.332 0.129 -0.703 0.094 -1.785 c -0.074 -2.055 -0.113 -2.324 -0.336 -2.379 c -0.336 -0.082 -0.289 -0.262 -0.836 3.238 l -0.203 1.289 l 0.25 0.152 c 0.176 0.109 0.262 0.238 0.285 0.438 c 0.02 0.156 0.066 0.465 0.102 0.68 c 0.098 0.594 -0.203 2.02 -0.426 2.02 c -0.047 0 -0.16 0.059 -0.25 0.129 c -0.5 0.379 -0.797 0.52 -1.098 0.52 c -0.273 0 -0.316 -0.023 -0.316 -0.176 c 0 -0.098 0.039 -0.195 0.09 -0.219 c 0.152 -0.074 0.109 -0.18 -0.07 -0.18 c -0.121 0 -0.168 0.055 -0.164 0.195 c 0.004 0.16 -0.043 0.203 -0.234 0.223 c -0.305 0.027 -0.465 -0.117 -0.813 -0.742 c -0.262 -0.477 -0.273 -0.531 -0.188 -1 c 0.129 -0.727 0.672 -1.777 1.063 -2.055 c 0.211 -0.148 0.316 -0.285 0.316 -0.418 c 0 -0.105 0.063 -0.484 0.141 -0.844 c 0.078 -0.355 0.18 -0.855 0.23 -1.113 c 0.047 -0.258 0.18 -0.953 0.289 -1.547 c 0.113 -0.594 0.199 -1.27 0.195 -1.5 c -0.008 -0.23 0.031 -0.504 0.09 -0.609 c 0.098 -0.195 0.098 -0.195 0.203 0.125 c 0.09 0.273 0.148 0.328 0.406 0.379 c 0.676 0.137 1.438 -0.582 1.145 -1.078 c -0.086 -0.148 -0.148 -0.172 -0.379 -0.137 c -0.367 0.059 -0.348 0.016 0.094 -0.211 c 0.289 -0.148 0.375 -0.238 0.375 -0.395 c 0 -0.18 -0.043 -0.211 -0.352 -0.25 c -0.711 -0.09 -2.363 -0.383 -2.422 -0.43 c -0.035 -0.023 -0.094 -0.262 -0.129 -0.527 c -0.172 -1.293 -0.156 -1.266 -1.289 -1.879 c -0.605 -0.328 -1.09 -0.73 -1.148 -0.957 c -0.164 -0.629 -0.039 -1.293 0.254 -1.336 c 0.18 -0.027 0.203 0.102 0.066 0.379 c -0.141 0.289 0.043 0.906 0.328 1.102 c 0.352 0.238 0.914 0.219 1.469 -0.055 c 0.582 -0.285 0.754 -0.594 0.672 -1.199 c -0.035 -0.277 -0.02 -0.465 0.039 -0.492 c 0.215 -0.102 0.063 -0.254 -0.441 -0.43 c -0.461 -0.164 -0.512 -0.203 -0.363 -0.266 c 0.094 -0.039 0.25 -0.059 0.348 -0.039 c 0.262 0.055 0.395 -0.191 0.332 -0.59 c -0.039 -0.238 0 -0.445 0.133 -0.727 c 0.102 -0.219 0.242 -0.543 0.309 -0.719 c 0.277 -0.75 0.895 -1.418 1.996 -2.18 c 0.898 -0.617 1.117 -0.738 1.547 -0.844 c 0.203 -0.051 0.527 -0.152 0.719 -0.23 c 0.422 -0.16 0.461 -0.383 0.117 -0.633 c -0.215 -0.16 -0.23 -0.219 -0.23 -0.824 c 0 -0.555 0.098 -0.957 0.203 -0.832 c 0.188 0.227 0.262 0.402 0.262 0.633 c 0 0.41 0.551 0.734 1.25 0.734 c 0.426 0 0.625 -0.172 0.594 -0.504 c -0.016 -0.188 0.039 -0.324 0.18 -0.465 c 0.246 -0.242 0.25 -0.273 0.063 -0.547 c -0.16 -0.242 -0.066 -0.273 0.242 -0.078 c 0.188 0.117 0.219 0.211 0.254 0.777 c 0.043 0.668 -0.055 0.953 -0.395 1.172 c -0.18 0.117 -0.188 0.336 -0.012 0.387 c 0.07 0.02 0.563 0.078 1.09 0.129 c 1.102 0.102 1.82 0.328 2.836 0.906 c 0.336 0.188 0.75 0.418 0.922 0.504 c 0.523 0.273 1.141 0.824 1.473 1.316 c 0.426 0.629 0.801 1.73 0.891 2.617 c 0.039 0.402 0.141 0.852 0.223 0.996 c 0.102 0.184 0.152 0.477 0.152 0.926 c 0 0.582 -0.035 0.711 -0.277 1.109 c -0.242 0.387 -0.289 0.566 -0.352 1.332 c -0.066 0.832 -0.086 0.895 -0.301 1.02 c -0.129 0.074 -0.84 0.238 -1.582 0.363 c -0.742 0.129 -1.375 0.266 -1.41 0.301 c -0.098 0.109 0.02 0.285 0.328 0.488 l 0.289 0.195 l -0.324 -0.016 l -0.324 -0.012 l -0.008 0.434 c -0.008 0.453 0.234 0.969 0.457 0.969 c 0.168 0 0.828 -0.27 0.914 -0.375 c 0.043 -0.051 0.074 -0.219 0.078 -0.375 c 0 -0.27 0.008 -0.281 0.16 -0.164 c 0.133 0.102 0.172 0.324 0.223 1.23 c 0.035 0.609 0.086 1.168 0.117 1.242 c 0.031 0.074 0.098 0.477 0.148 0.891 c 0.102 0.805 0.219 1.629 0.359 2.543 c 0.078 0.484 0.129 0.594 0.363 0.773 c 0.426 0.32 0.875 1.332 0.926 2.082 c 0.039 0.563 0.02 0.648 -0.238 1.086 c -0.328 0.551 -0.48 0.672 -0.813 0.621 c -0.16 -0.023 -0.301 0.008 -0.41 0.094 c -0.258 0.199 -0.613 0.094 -1.219 -0.355 c -0.473 -0.355 -0.559 -0.461 -0.637 -0.793 c -0.109 -0.441 -0.113 -1.445 -0.012 -2 c 0.047 -0.27 0.145 -0.438 0.332 -0.594 l 0.266 -0.211 l -0.16 -1.352 c -0.168 -1.383 -0.309 -2.566 -0.371 -3.078 c -0.035 -0.297 -0.246 -0.422 -0.395 -0.238 c -0.086 0.105 -0.223 1.746 -0.215 2.543 c 0 0.273 0.066 0.867 0.141 1.309 c 0.133 0.797 0.105 1.504 -0.074 1.77 c -0.047 0.074 -0.207 0.188 -0.355 0.258 l -0.273 0.129 l -0.035 2.418 c -0.016 1.332 -0.008 2.445 0.023 2.477 c 0.031 0.035 0.285 0.207 0.566 0.391 c 0.477 0.305 0.57 0.336 1.305 0.414 c 1.09 0.117 2.52 0.406 3.074 0.625 c 0.32 0.125 0.512 0.258 0.617 0.434 c 0.152 0.246 0.152 0.25 -0.102 0.457 c -1 0.809 -6.04 1.355 -10.938 1.184 m -0.266 -1.539 c 0.602 -0.129 0.547 -0.426 -0.078 -0.426 c -0.164 -0.004 -0.41 -0.043 -0.547 -0.09 c -0.207 -0.074 -0.262 -0.07 -0.363 0.035 c -0.074 0.078 -0.242 0.125 -0.473 0.125 c -0.434 0 -0.352 0.082 0.285 0.273 c 0.551 0.168 0.727 0.18 1.176 0.082 m 5.641 -0.117 c 0.484 -0.184 0.465 -0.363 -0.063 -0.578 c -0.016 -0.004 0.063 -0.141 0.18 -0.301 c 0.172 -0.238 0.188 -0.309 0.09 -0.402 c -0.125 -0.117 -0.488 -0.137 -0.793 -0.043 c -0.109 0.035 -0.336 0.016 -0.547 -0.039 c -0.199 -0.055 -0.523 -0.102 -0.723 -0.102 c -0.418 0 -0.438 -0.035 -0.137 -0.281 l 0.223 -0.184 l -0.09 -2.301 c -0.047 -1.266 -0.098 -2.313 -0.113 -2.324 c -0.012 -0.012 -0.66 0.02 -1.434 0.066 l -1.41 0.086 l -0.02 0.363 c -0.008 0.203 -0.023 0.496 -0.031 0.652 c -0.008 0.16 -0.027 1.043 -0.035 1.961 l -0.02 1.672 l 0.262 0.18 c 0.324 0.223 0.684 0.281 1.52 0.242 c 0.617 -0.027 0.656 -0.02 0.707 0.137 c 0.086 0.262 0.582 0.543 0.875 0.5 c 0.281 -0.047 0.648 0.012 0.648 0.098 c 0 0.078 -1 0.238 -1.168 0.188 c -0.168 -0.051 -0.184 0.141 -0.02 0.219 c 0.063 0.035 0.348 0.133 0.629 0.219 c 0.566 0.18 0.938 0.172 1.469 -0.027 m -4.633 -0.816 c 0.242 -0.098 0.238 -0.273 -0.016 -0.48 c -0.215 -0.18 -0.449 -0.211 -0.727 -0.094 c -0.094 0.039 -0.5 0.074 -0.898 0.082 c -1.051 0.016 -1.477 0.27 -0.891 0.531 c 0.207 0.09 0.457 0.105 1.301 0.074 c 0.574 -0.02 1.129 -0.07 1.23 -0.113 m -0.98 -1.074 c 0.133 -0.113 0.16 -0.273 0.152 -0.93 c -0.004 -0.434 -0.043 -0.863 -0.086 -0.953 c -0.051 -0.105 -0.031 -0.234 0.059 -0.375 c 0.184 -0.281 0.109 -1.34 -0.109 -1.598 c -0.211 -0.25 -0.586 -0.242 -0.711 0.012 c -0.148 0.301 -0.23 1.723 -0.102 1.781 c 0.078 0.039 0.078 0.09 0.004 0.199 c -0.137 0.195 -0.07 1.625 0.086 1.84 c 0.145 0.203 0.488 0.211 0.707 0.023 m 4.945 -0.211 c 0.18 -0.277 0.262 -2.102 0.121 -2.605 c -0.07 -0.234 -0.172 -0.426 -0.234 -0.426 c -0.059 0 -0.219 0.07 -0.359 0.152 l -0.254 0.156 l 0.031 0.844 c 0.027 0.723 0.059 0.871 0.219 1 c 0.172 0.148 0.176 0.164 0.023 0.25 c -0.195 0.109 -0.23 0.727 -0.047 0.785 c 0.211 0.066 0.391 0.012 0.5 -0.16 m 3.938 -2.383 c 0 -0.082 -0.059 -0.145 -0.137 -0.145 c -0.168 0 -0.18 0.082 -0.027 0.199 c 0.148 0.117 0.164 0.113 0.164 -0.055 m 0.293 -0.746 c 0.316 -0.18 0.438 -0.57 0.383 -1.242 c -0.063 -0.824 -0.191 -1.031 -0.652 -1.047 c -0.746 -0.027 -0.914 -0.043 -1.184 -0.09 c -0.262 -0.051 -0.27 -0.047 -0.102 0.059 c 0.168 0.105 0.168 0.113 -0.074 0.184 c -0.445 0.129 -0.488 0.402 -0.266 1.656 c 0.066 0.391 0.074 0.398 0.395 0.418 c 0.18 0.012 0.41 0.051 0.512 0.086 c 0.402 0.145 0.711 0.137 0.988 -0.023 m -13.06 -0.133 c 0.113 -0.043 0.273 -0.055 0.359 -0.031 c 0.234 0.07 0.414 -0.086 0.414 -0.352 c 0 -0.129 0.066 -0.355 0.145 -0.504 c 0.105 -0.191 0.129 -0.375 0.082 -0.66 c -0.066 -0.406 -0.223 -0.598 -0.488 -0.602 c -0.137 0 -0.133 -0.016 0.023 -0.105 c 0.238 -0.141 0.141 -0.203 -0.172 -0.109 c -0.141 0.039 -0.52 0.074 -0.844 0.074 c -0.711 0 -0.883 0.125 -0.887 0.645 c 0 0.18 -0.043 0.457 -0.09 0.613 c -0.141 0.457 0.141 0.984 0.594 1.113 c 0.211 0.059 0.578 0.023 0.863 -0.082 m 8.863 -0.422 c 0 -0.34 -0.078 -0.5 -0.238 -0.5 c -0.133 0 -0.184 0.098 -0.273 0.551 c -0.051 0.254 -0.035 0.305 0.109 0.328 c 0.266 0.047 0.402 -0.082 0.402 -0.379 m -2.883 -1.625 c 0.43 -0.156 0.602 -0.18 1.07 -0.148 c 0.414 0.027 0.633 0.008 0.852 -0.082 c 0.438 -0.18 1.215 -0.969 1.27 -1.293 c 0.07 -0.398 0.02 -0.672 -0.145 -0.742 c -0.207 -0.09 -1.82 -0.094 -1.961 -0.004 c -0.063 0.043 -0.168 0.051 -0.234 0.02 c -0.07 -0.035 0.18 -0.105 0.637 -0.184 c 0.809 -0.137 1.207 -0.355 1.207 -0.664 c 0 -0.215 -0.066 -0.234 -0.785 -0.27 c -0.652 -0.027 -0.957 -0.113 -0.414 -0.113 c 0.438 0 1.223 -0.242 1.316 -0.41 c 0.047 -0.078 0.039 -0.215 -0.012 -0.324 c -0.086 -0.172 -0.16 -0.195 -0.703 -0.242 c -0.602 -0.047 -0.855 -0.176 -0.352 -0.176 c 0.414 0 0.688 -0.191 0.652 -0.453 c -0.023 -0.191 -0.078 -0.234 -0.352 -0.281 c -0.457 -0.082 -3.281 0.012 -3.938 0.125 c -0.605 0.105 -0.805 0.207 -0.805 0.398 c 0 0.164 0.266 0.281 0.645 0.281 c 0.398 0 0.352 0.094 -0.113 0.219 c -0.359 0.098 -0.395 0.129 -0.422 0.383 c -0.02 0.164 0.027 0.344 0.117 0.445 c 0.191 0.23 0.191 0.227 -0.184 0.32 c -0.336 0.09 -0.379 0.188 -0.242 0.57 c 0.047 0.133 0.168 0.195 0.523 0.266 c 0.258 0.051 0.609 0.102 0.789 0.109 c 0.316 0.012 0.316 0.016 0.051 0.043 c -0.301 0.035 -0.793 0.277 -0.793 0.387 c 0 0.039 0.094 0.102 0.207 0.137 c 0.207 0.063 0.207 0.063 -0.023 0.066 c -0.125 0.004 -0.293 -0.023 -0.367 -0.063 c -0.195 -0.094 -0.434 0.031 -0.551 0.297 c -0.082 0.184 -0.078 0.25 0.031 0.344 c 0.074 0.066 0.203 0.238 0.281 0.387 c 0.078 0.145 0.203 0.266 0.273 0.266 c 0.07 0 0.148 0.066 0.176 0.145 c 0.035 0.105 0.129 0.145 0.359 0.148 c 0.168 0.004 0.52 0.066 0.773 0.141 c 0.602 0.172 0.566 0.172 1.164 -0.047 m 0.355 -2.309 c 0.066 -0.02 0.145 -0.016 0.176 0.008 c 0.031 0.023 -0.023 0.039 -0.121 0.035 c -0.109 0 -0.129 -0.02 -0.055 -0.043 m -1.492 -1.082 c 0.219 -0.016 0.555 -0.016 0.742 0 c 0.191 0.016 0.012 0.027 -0.395 0.027 c -0.41 0 -0.566 -0.012 -0.348 -0.027 m 0.543 -1.086 c -0.031 -0.039 0.102 -0.086 0.293 -0.102 c 0.535 -0.055 0.574 0.035 0.055 0.121 c -0.16 0.027 -0.32 0.016 -0.348 -0.02 m 0.918 -0.086 c -0.031 -0.039 0.031 -0.07 0.137 -0.07 c 0.223 0 0.246 0.039 0.055 0.098 c -0.078 0.02 -0.164 0.008 -0.191 -0.031 m 6.05 3.297 c -0.047 -0.992 -0.098 -1.387 -0.328 -2.355 c -0.098 -0.418 -0.203 -1.055 -0.238 -1.422 c -0.031 -0.367 -0.098 -0.684 -0.141 -0.707 c -0.047 -0.02 -0.168 0 -0.277 0.043 c -0.172 0.07 -0.188 0.121 -0.133 0.488 c 0.035 0.227 0.125 0.621 0.199 0.875 c 0.074 0.258 0.109 0.547 0.078 0.641 c -0.07 0.223 0.309 2.074 0.477 2.324 c 0.082 0.125 0.094 0.211 0.035 0.238 c -0.223 0.109 -0.027 0.684 0.23 0.684 c 0.105 0 0.125 -0.148 0.098 -0.809 m -12.266 0.484 c 0.031 -0.102 0.035 -0.277 0.004 -0.395 c -0.031 -0.121 0 -0.297 0.078 -0.41 c 0.16 -0.242 0.512 -1.695 0.512 -2.113 c 0 -0.16 0.086 -0.621 0.191 -1.02 c 0.168 -0.641 0.176 -0.738 0.055 -0.832 c -0.262 -0.203 -0.41 -0.055 -0.473 0.465 c -0.031 0.27 -0.141 0.785 -0.238 1.141 c -0.254 0.914 -0.441 1.883 -0.449 2.301 c -0.004 0.199 -0.035 0.516 -0.07 0.703 c -0.055 0.316 -0.047 0.344 0.137 0.344 c 0.133 0 0.215 -0.063 0.254 -0.184 m 5.059 -4.836 c 0.023 -0.02 0.047 -0.133 0.047 -0.254 c 0 -0.121 0.047 -0.234 0.109 -0.25 c 0.066 -0.016 0.09 0.023 0.059 0.113 c -0.063 0.191 0.133 0.266 0.336 0.121 c 0.156 -0.109 0.164 -0.105 0.121 0.066 c -0.039 0.16 -0.012 0.184 0.223 0.184 c 0.148 0 0.422 -0.035 0.613 -0.078 c 0.277 -0.059 0.352 -0.109 0.352 -0.242 c 0 -0.09 0.063 -0.207 0.137 -0.258 c 0.078 -0.047 0.141 -0.148 0.141 -0.219 c 0 -0.07 0.043 -0.152 0.094 -0.176 c 0.051 -0.023 0.094 -0.008 0.094 0.035 c 0 0.047 0.074 0.066 0.172 0.039 c 0.141 -0.035 0.168 -0.012 0.137 0.121 c -0.059 0.266 0.102 0.387 0.402 0.305 c 0.223 -0.059 0.258 -0.109 0.273 -0.402 c 0.016 -0.273 -0.027 -0.379 -0.234 -0.57 c -0.285 -0.266 -0.43 -0.242 -0.52 0.082 c -0.078 0.27 -0.258 0.332 -0.543 0.191 c -0.156 -0.082 -0.398 -0.105 -0.926 -0.082 c -0.711 0.027 -0.844 -0.016 -0.574 -0.188 c 0.254 -0.164 0.156 -0.234 -0.258 -0.184 c -0.219 0.027 -0.434 0.078 -0.484 0.117 c -0.145 0.109 -0.305 0.078 -0.355 -0.078 c -0.066 -0.195 -0.367 -0.184 -0.688 0.027 c -0.195 0.133 -0.23 0.195 -0.156 0.273 c 0.164 0.156 0.234 0.891 0.109 1.105 c -0.09 0.152 -0.086 0.199 0.023 0.254 c 0.125 0.059 1.195 0.016 1.297 -0.055 m 2.398 -0.375 c 0.023 -0.055 -0.012 -0.082 -0.082 -0.063 c -0.066 0.016 -0.141 0.074 -0.16 0.125 c -0.023 0.055 0.012 0.082 0.078 0.063 c 0.07 -0.016 0.141 -0.074 0.164 -0.125 m -3.98 -0.117 c 0 -0.066 -0.063 -0.105 -0.156 -0.09 c -0.23 0.035 -0.262 0.203 -0.035 0.203 c 0.113 0 0.191 -0.047 0.191 -0.113 m 2.559 -2.695 c 0.512 -0.047 1.18 -0.129 1.484 -0.184 c 0.309 -0.055 0.836 -0.102 1.176 -0.102 c 0.473 -0.004 0.668 -0.035 0.852 -0.145 c 0.16 -0.102 0.379 -0.145 0.684 -0.148 c 0.492 0 0.742 -0.082 0.645 -0.203 c -0.059 -0.078 -0.508 -0.094 -2.844 -0.105 c -1.953 -0.012 -7 0.098 -7.344 0.156 l -0.324 0.059 l 0.348 0.164 c 0.191 0.09 0.348 0.191 0.348 0.227 c 0 0.035 0.066 0.066 0.148 0.066 c 0.082 0 0.25 0.063 0.375 0.137 c 0.203 0.125 0.383 0.137 1.758 0.133 c 0.844 -0.004 1.559 0.016 1.594 0.039 c 0.031 0.027 0.082 0.035 0.113 0.02 c 0.031 -0.016 0.477 -0.066 0.988 -0.113 m -5.441 -0.215 c 0 -0.039 -0.016 -0.074 -0.039 -0.074 c -0.02 0 -0.105 -0.02 -0.188 -0.043 c -0.105 -0.031 -0.133 -0.012 -0.09 0.074 c 0.063 0.125 0.316 0.16 0.316 0.043 m 6.461 -1.055 c 0.719 -0.063 1.484 -0.109 1.703 -0.109 c 0.258 0.004 0.418 -0.031 0.449 -0.094 c 0.047 -0.098 -0.34 -0.633 -0.52 -0.723 c -0.055 -0.023 -0.184 -0.172 -0.285 -0.328 c -0.148 -0.223 -0.238 -0.285 -0.441 -0.285 c -0.316 0 -0.531 -0.102 -0.445 -0.207 c 0.035 -0.043 0.16 -0.078 0.277 -0.078 c 0.348 0 0.469 -0.191 0.523 -0.832 c 0.047 -0.531 0.09 -0.641 0.387 -0.988 c 0.383 -0.445 0.945 -0.699 1.684 -0.758 c 0.457 -0.035 0.676 -0.188 0.438 -0.301 c -0.066 -0.031 -0.172 -0.176 -0.238 -0.316 c -0.09 -0.211 -0.09 -0.262 0.004 -0.262 c 0.223 0 0.395 -0.324 0.461 -0.883 c 0.043 -0.367 0.105 -0.555 0.172 -0.535 c 0.137 0.035 0.273 0.445 0.262 0.789 c -0.012 0.371 0.234 0.371 0.293 0 c 0.023 -0.148 0.098 -0.496 0.164 -0.777 l 0.121 -0.508 l -0.375 -0.426 c -0.371 -0.422 -0.648 -0.617 -1.168 -0.82 c -0.141 -0.059 -0.359 -0.207 -0.48 -0.332 c -0.359 -0.359 -1.285 -0.664 -2.219 -0.723 l -0.781 -0.047 l -0.258 0.262 c -0.141 0.141 -0.461 0.375 -0.707 0.516 c -0.262 0.148 -0.516 0.371 -0.613 0.535 c -0.094 0.156 -0.195 0.285 -0.227 0.285 c -0.031 0.004 -0.082 -0.133 -0.109 -0.297 c -0.035 -0.207 -0.129 -0.344 -0.301 -0.449 c -0.137 -0.086 -0.273 -0.262 -0.313 -0.402 c -0.059 -0.234 -0.09 -0.254 -0.465 -0.273 c -0.328 -0.02 -0.508 0.027 -1.031 0.266 c -0.586 0.27 -1.117 0.652 -1.117 0.801 c 0 0.035 -0.168 0.211 -0.367 0.391 c -0.219 0.195 -0.348 0.375 -0.316 0.438 c 0.031 0.063 -0.082 0.211 -0.285 0.363 c -0.383 0.301 -0.379 0.281 -0.188 0.715 c 0.113 0.266 0.121 0.379 0.039 0.582 c -0.098 0.219 -0.082 0.281 0.133 0.566 c 0.289 0.379 0.297 0.48 0.055 0.648 c -0.102 0.074 -0.188 0.188 -0.188 0.258 c 0 0.066 -0.094 0.145 -0.207 0.172 c -0.172 0.039 -0.094 0.078 0.422 0.211 c 0.789 0.207 1.059 0.363 1.406 0.809 c 0.219 0.281 0.281 0.457 0.313 0.871 c 0.047 0.621 0.156 0.723 0.836 0.754 c 0.27 0.012 0.477 0.055 0.465 0.094 c -0.016 0.039 -0.254 0.063 -0.543 0.055 c -0.457 -0.02 -0.539 0 -0.766 0.18 c -0.172 0.141 -0.27 0.316 -0.313 0.563 c -0.035 0.195 -0.129 0.395 -0.211 0.438 c -0.223 0.129 -0.102 0.168 0.699 0.234 c 1.191 0.098 2.781 0.082 4.176 -0.039 m -1.754 -1.367 c -0.141 -0.109 -0.047 -0.242 0.172 -0.242 c 0.168 0 0.23 0.039 0.23 0.145 c 0 0.141 -0.262 0.203 -0.402 0.098 m -0.758 -0.098 c -0.031 -0.039 0.031 -0.07 0.141 -0.07 c 0.105 0 0.168 0.031 0.137 0.07 c -0.031 0.039 -0.094 0.07 -0.137 0.07 c -0.047 0 -0.109 -0.031 -0.141 -0.07 m 1.625 -0.125 c 0 -0.102 0.852 -0.18 0.969 -0.09 c 0.063 0.047 -0.012 0.07 -0.227 0.07 c -0.18 0 -0.418 0.023 -0.531 0.047 c -0.117 0.023 -0.211 0.012 -0.211 -0.027 m -0.93 -1.281 c -0.066 -0.059 -0.098 -0.125 -0.07 -0.145 c 0.066 -0.051 0.535 0.121 0.535 0.195 c 0 0.102 -0.34 0.066 -0.465 -0.051 m 0 -2.551 c 0 -0.043 0.039 -0.074 0.09 -0.074 c 0.047 0 0.113 0.031 0.145 0.074 c 0.031 0.039 -0.008 0.07 -0.09 0.07 c -0.078 0 -0.145 -0.031 -0.145 -0.07 m 7.82 3.879 c 0.543 -0.211 0.863 -0.984 0.5 -1.219 c -0.074 -0.047 -0.141 -0.141 -0.141 -0.207 c -0.004 -0.063 -0.098 -0.203 -0.211 -0.309 c -0.531 -0.5 -1.563 -0.438 -2.137 0.129 c -0.168 0.168 -0.203 0.285 -0.188 0.652 c 0.023 0.555 0.207 0.844 0.648 1.02 c 0.402 0.16 1.012 0.133 1.527 -0.066 m -1.273 -0.457 c -0.438 -0.148 -0.547 -0.605 -0.219 -0.93 c 0.395 -0.391 1.309 -0.285 1.434 0.168 c 0.082 0.289 -0.227 0.68 -0.617 0.785 c -0.16 0.043 -0.297 0.078 -0.301 0.078 c -0.004 -0.004 -0.141 -0.047 -0.297 -0.102 m -10.04 -0.625 c 0.035 0.043 0.125 0.078 0.199 0.078 c 0.262 0 0.129 -0.289 -0.281 -0.609 c -0.316 -0.25 -0.563 -0.363 -1.09 -0.496 c -0.883 -0.223 -0.969 -0.176 -0.691 0.391 c 0.246 0.512 0.695 0.82 1.098 0.758 c 0.141 -0.02 0.281 0 0.316 0.043 c 0.043 0.051 0.121 0.02 0.223 -0.086 c 0.105 -0.105 0.184 -0.133 0.227 -0.078 m 8.648 -0.395 c 0.547 -0.52 0.988 -0.746 1.551 -0.801 c 0.25 -0.023 0.453 -0.063 0.453 -0.094 c 0 -0.227 -1.285 -0.383 -1.75 -0.215 c -1.324 0.488 -1.48 0.578 -1.559 0.914 c -0.047 0.191 -0.02 0.281 0.137 0.41 c 0.109 0.086 0.195 0.215 0.195 0.285 c 0 0.211 0.492 -0.043 0.973 -0.5 m 1.168 -1.609 c 0 -0.082 -0.184 -0.176 -0.25 -0.125 c -0.066 0.055 0.051 0.195 0.16 0.195 c 0.051 0 0.09 -0.031 0.09 -0.07 m 0.105 -0.578 c 0.09 0 0.188 -0.035 0.223 -0.078 c 0.039 -0.051 -0.047 -0.066 -0.25 -0.047 c -0.219 0.016 -0.32 0.066 -0.344 0.164 c -0.027 0.113 -0.008 0.121 0.09 0.051 c 0.066 -0.051 0.191 -0.09 0.281 -0.09 m -6.082 -3.707 c 0.414 -0.227 0.367 -1.117 -0.059 -1.117 c -0.438 0 -0.781 0.977 -0.402 1.148 c 0.211 0.094 0.227 0.094 0.461 -0.031 m -7.82 6.43 c -0.363 -0.402 -0.031 -0.996 0.563 -0.996 c 0.176 0 0.402 0.035 0.504 0.074 c 0.25 0.105 0.234 0.488 -0.035 0.797 c -0.273 0.316 -0.801 0.383 -1.031 0.125 m 7.148 -9.344 c -0.109 -0.137 0.059 -0.219 0.461 -0.219 c 0.496 0 0.699 0.055 0.699 0.188 c 0 0.074 -0.141 0.102 -0.551 0.102 c -0.305 0 -0.578 -0.031 -0.609 -0.07" fill="#52514c"/><path d="m 20.05 38.93 c -2.09 -0.207 -3.215 -0.461 -3.672 -0.828 c -0.211 -0.172 -0.234 -0.227 -0.145 -0.355 c 0.141 -0.203 0.824 -0.461 1.734 -0.652 c 0.637 -0.133 0.773 -0.188 0.883 -0.359 c 0.07 -0.113 0.316 -0.316 0.547 -0.449 l 0.418 -0.246 v -4.887 l -0.262 -0.199 c -0.23 -0.172 -0.258 -0.234 -0.203 -0.477 c 0.035 -0.152 0.016 -0.406 -0.039 -0.566 c -0.078 -0.223 -0.07 -0.383 0.039 -0.711 c 0.105 -0.328 0.125 -0.719 0.086 -1.789 c -0.078 -2.301 -0.121 -2.48 -0.551 -2.48 c -0.191 0 -0.223 0.051 -0.316 0.484 c -0.164 0.785 -0.465 2.586 -0.566 3.391 l -0.094 0.746 l 0.285 0.254 c 0.164 0.141 0.266 0.297 0.234 0.355 c -0.027 0.059 -0.055 0.156 -0.055 0.223 c 0 0.09 -0.047 0.078 -0.23 -0.059 c -0.141 -0.102 -0.215 -0.215 -0.184 -0.289 c 0.043 -0.109 -0.039 -0.121 -0.777 -0.102 c -0.453 0.008 -0.914 0.039 -1.023 0.066 c -0.305 0.074 -0.25 -0.098 0.125 -0.414 c 0.25 -0.211 0.324 -0.336 0.324 -0.539 c 0 -0.148 0.047 -0.395 0.102 -0.551 c 0.172 -0.469 0.285 -0.16 0.215 0.59 c -0.055 0.637 -0.051 0.664 0.133 0.664 c 0.227 0 0.438 -0.414 0.348 -0.688 c -0.031 -0.098 -0.012 -0.246 0.047 -0.328 c 0.133 -0.191 0.363 -1.207 0.461 -2.043 c 0.043 -0.355 0.141 -0.859 0.223 -1.113 c 0.195 -0.652 0.188 -0.844 -0.047 -0.941 c -0.289 -0.117 -0.355 -0.023 -0.465 0.656 c -0.055 0.332 -0.18 0.883 -0.273 1.219 c -0.098 0.336 -0.207 0.801 -0.242 1.027 c -0.078 0.539 -0.254 0.645 -0.191 0.113 c 0.086 -0.703 0.25 -1.672 0.391 -2.293 c 0.074 -0.336 0.137 -0.844 0.137 -1.133 c 0.004 -0.543 0.082 -0.648 0.266 -0.34 c 0.059 0.098 0.215 0.219 0.348 0.266 c 0.363 0.129 1.031 -0.172 1.156 -0.52 c 0.125 -0.344 0.113 -0.816 -0.016 -0.918 c -0.086 -0.066 -0.074 -0.117 0.051 -0.227 c 0.098 -0.082 0.152 -0.219 0.133 -0.34 c -0.023 -0.152 -0.094 -0.211 -0.309 -0.25 c -0.152 -0.027 -0.695 -0.121 -1.207 -0.207 c -0.512 -0.09 -1 -0.172 -1.082 -0.191 c -0.109 -0.02 -0.164 -0.156 -0.207 -0.508 c -0.031 -0.266 -0.102 -0.512 -0.152 -0.555 c -0.051 -0.039 -0.094 -0.199 -0.094 -0.355 c 0 -0.254 -0.059 -0.328 -0.488 -0.633 c -0.27 -0.191 -0.516 -0.352 -0.547 -0.352 c -0.121 0 -0.945 -0.566 -1.113 -0.766 c -0.121 -0.141 -0.172 -0.328 -0.168 -0.602 c 0.004 -0.422 0.063 -0.379 0.266 0.203 c 0.078 0.223 0.191 0.348 0.406 0.449 c 0.449 0.211 0.84 0.18 1.422 -0.121 c 0.711 -0.363 0.895 -0.723 0.73 -1.43 l -0.051 -0.215 l 0.18 0.16 c 0.102 0.09 0.211 0.293 0.246 0.449 c 0.039 0.172 0.133 0.32 0.234 0.363 c 0.094 0.039 0.199 0.133 0.23 0.215 c 0.043 0.105 0.141 0.141 0.363 0.141 c 0.188 0 0.371 0.059 0.473 0.145 c 0.094 0.082 0.219 0.145 0.277 0.145 c 0.18 0 0.699 -0.508 0.699 -0.684 c 0 -0.094 -0.176 -0.316 -0.414 -0.52 c -0.352 -0.305 -0.516 -0.383 -1.094 -0.52 c -0.652 -0.16 -0.922 -0.234 -1.512 -0.441 c -0.266 -0.09 -0.27 -0.094 -0.066 -0.121 c 0.27 -0.035 0.406 -0.297 0.375 -0.73 c -0.023 -0.379 0.078 -0.766 0.254 -0.977 c 0.066 -0.082 0.168 -0.305 0.223 -0.496 c 0.059 -0.195 0.207 -0.484 0.332 -0.648 c 0.297 -0.383 1.219 -1.172 1.297 -1.113 c 0.035 0.023 -0.133 0.211 -0.363 0.414 c -0.234 0.203 -0.426 0.41 -0.426 0.461 c 0 0.051 -0.082 0.219 -0.184 0.375 c -0.227 0.344 -0.234 0.52 -0.035 0.695 c 0.129 0.109 0.137 0.164 0.047 0.313 c -0.141 0.246 -0.129 0.535 0.031 0.754 c 0.215 0.289 0.168 0.488 -0.188 0.766 c -0.184 0.141 -0.316 0.293 -0.297 0.336 c 0.02 0.047 0.297 0.121 0.617 0.172 c 0.863 0.137 1.266 0.34 1.598 0.813 c 0.23 0.324 0.289 0.492 0.305 0.914 c 0.016 0.285 0.07 0.563 0.133 0.617 c 0.082 0.078 0.051 0.152 -0.164 0.348 c -0.152 0.133 -0.277 0.301 -0.277 0.367 c -0.004 0.066 -0.156 0.273 -0.336 0.457 c -0.184 0.188 -0.301 0.363 -0.258 0.395 c 0.109 0.082 2.234 0.195 3.238 0.176 c 0.461 -0.012 1.402 -0.059 2.094 -0.105 c 0.688 -0.047 1.43 -0.082 1.641 -0.078 c 0.215 0.004 0.5 -0.027 0.637 -0.066 l 0.242 -0.07 l -0.191 -0.211 c -0.109 -0.117 -0.324 -0.305 -0.48 -0.414 c -0.152 -0.113 -0.363 -0.324 -0.461 -0.469 c -0.098 -0.148 -0.246 -0.297 -0.328 -0.332 c -0.141 -0.059 -0.141 -0.082 0.004 -0.25 c 0.109 -0.129 0.16 -0.344 0.164 -0.676 c 0 -0.512 0.152 -0.836 0.59 -1.293 c 0.281 -0.289 1.176 -0.57 2.039 -0.641 c 0.727 -0.059 0.887 -0.121 0.887 -0.355 c 0 -0.086 0.102 -0.234 0.23 -0.324 c 0.258 -0.188 0.316 -0.539 0.102 -0.602 c -0.156 -0.047 -0.137 -0.59 0.027 -0.715 c 0.262 -0.203 0.008 -0.754 -0.637 -1.379 c -0.266 -0.262 -0.449 -0.473 -0.406 -0.473 c 0.344 0 1.328 0.785 1.707 1.367 c 0.398 0.605 0.746 1.648 0.805 2.41 c 0.035 0.434 0.125 0.859 0.227 1.066 c 0.125 0.246 0.176 0.531 0.172 1.01 c 0 0.59 -0.031 0.707 -0.273 1.082 c -0.238 0.359 -0.285 0.527 -0.332 1.188 c -0.031 0.422 -0.07 0.836 -0.094 0.922 c -0.051 0.199 -0.371 0.297 -1.895 0.57 l -1.262 0.223 l -0.031 0.234 c -0.016 0.125 0.02 0.273 0.074 0.328 c 0.074 0.066 0.074 0.109 0.008 0.145 c -0.055 0.027 -0.098 0.324 -0.098 0.715 c 0 0.629 0.016 0.68 0.223 0.785 c 0.414 0.211 1.148 -0.066 1.313 -0.496 l 0.109 -0.281 l 0.07 0.27 c 0.039 0.148 0.051 0.355 0.027 0.461 c -0.027 0.105 0.012 0.566 0.086 1.023 c 0.117 0.746 0.223 1.539 0.371 2.84 c 0.031 0.262 0.016 0.406 -0.039 0.383 c -0.047 -0.023 -0.117 -0.266 -0.148 -0.531 c -0.035 -0.27 -0.121 -0.715 -0.191 -0.992 c -0.074 -0.277 -0.18 -0.859 -0.238 -1.297 c -0.059 -0.434 -0.137 -0.816 -0.172 -0.844 c -0.039 -0.031 -0.16 -0.004 -0.273 0.059 c -0.23 0.125 -0.262 0.41 -0.109 0.965 c 0.051 0.18 0.129 0.699 0.176 1.152 c 0.113 1.059 0.336 2.141 0.473 2.27 c 0.074 0.07 0.074 0.137 0.004 0.238 c -0.211 0.309 0.141 0.875 0.406 0.652 c 0.09 -0.074 0.102 -0.234 0.051 -0.641 c -0.043 -0.32 -0.035 -0.594 0.02 -0.672 c 0.133 -0.195 0.18 -0.113 0.262 0.449 c 0.059 0.41 0.121 0.551 0.359 0.773 c 0.352 0.332 0.383 0.488 0.082 0.414 c -0.117 -0.031 -0.461 -0.063 -0.766 -0.074 c -0.309 -0.012 -0.68 -0.043 -0.832 -0.07 c -0.234 -0.043 -0.262 -0.031 -0.203 0.078 c 0.082 0.168 -0.309 0.52 -0.422 0.379 c -0.141 -0.168 -0.078 -0.336 0.199 -0.559 c 0.328 -0.258 0.324 -0.234 0.137 -1.762 c -0.406 -3.344 -0.41 -3.348 -0.605 -3.348 c -0.375 0 -0.43 0.156 -0.492 1.461 c -0.043 0.836 -0.027 1.547 0.051 2.113 c 0.137 1 0.129 1.836 -0.016 2.109 c -0.059 0.109 -0.23 0.242 -0.379 0.297 l -0.277 0.102 l -0.047 2.492 l -0.043 2.492 l 0.422 0.266 c 0.23 0.148 0.492 0.387 0.582 0.531 c 0.152 0.25 0.195 0.27 1.086 0.445 c 1.168 0.227 1.758 0.469 1.797 0.73 c 0.059 0.402 -1 0.758 -3.098 1.043 c -1.164 0.156 -6.03 0.199 -7.391 0.066 m 1.465 -1.168 c 0.348 -0.098 0.668 -0.344 0.555 -0.43 c -0.02 -0.016 -0.348 -0.055 -0.727 -0.09 c -0.645 -0.055 -0.672 -0.063 -0.43 -0.141 c 0.145 -0.047 0.449 -0.086 0.676 -0.086 c 0.52 0 0.816 -0.195 0.727 -0.477 c -0.055 -0.172 -0.047 -0.18 0.137 -0.105 c 0.109 0.047 0.199 0.113 0.199 0.152 c 0 0.121 1.129 0.082 1.309 -0.043 c 0.145 -0.102 0.176 -0.094 0.355 0.102 c 0.223 0.242 0.246 0.375 0.086 0.5 c -0.227 0.176 0.055 0.414 0.688 0.578 c 0.676 0.176 0.934 0.191 1.512 0.078 c 0.559 -0.109 0.813 -0.328 0.734 -0.637 c -0.039 -0.145 -0.129 -0.254 -0.234 -0.273 c -0.133 -0.027 -0.148 -0.063 -0.07 -0.172 c 0.23 -0.34 -0.203 -0.582 -0.762 -0.43 c -0.23 0.063 -0.387 0.055 -0.719 -0.035 c -0.234 -0.059 -0.52 -0.09 -0.641 -0.07 c -0.27 0.055 -0.289 -0.117 -0.031 -0.258 c 0.18 -0.094 0.18 -0.152 0.086 -2.473 c -0.055 -1.305 -0.113 -2.387 -0.125 -2.398 c -0.016 -0.012 -0.703 0.02 -1.527 0.07 l -1.496 0.09 l -0.016 0.363 c -0.012 0.199 -0.027 0.508 -0.035 0.688 c -0.055 1.023 -0.059 3.59 -0.008 3.711 c 0.047 0.121 -0.004 0.16 -0.348 0.238 c -0.223 0.051 -0.723 0.094 -1.113 0.098 c -0.559 0.004 -0.746 0.035 -0.895 0.141 c -0.281 0.203 -0.23 0.363 0.16 0.527 c 0.43 0.18 0.43 0.273 -0.012 0.328 c -0.656 0.086 -0.547 0.238 0.34 0.473 c 0.617 0.16 0.977 0.156 1.625 -0.02 m -0.355 -1.941 c 0.172 -0.172 0.191 -0.293 0.195 -1.172 c 0.004 -0.539 0.039 -1.121 0.082 -1.293 c 0.098 -0.398 -0.055 -1.371 -0.246 -1.535 c -0.074 -0.066 -0.266 -0.145 -0.418 -0.168 c -0.52 -0.09 -0.547 -0.004 -0.598 1.695 c -0.043 1.559 0.055 2.496 0.273 2.605 c 0.223 0.109 0.52 0.051 0.711 -0.133 m 5.082 -0.316 c 0.086 -0.27 0.102 -1.391 0.039 -2.785 c -0.004 -0.086 -0.039 -0.176 -0.086 -0.195 c -0.043 -0.023 -0.059 -0.266 -0.031 -0.543 c 0.051 -0.539 -0.043 -0.723 -0.355 -0.723 c -0.254 0 -0.305 0.117 -0.387 0.828 c -0.168 1.453 -0.18 1.813 -0.074 2.195 c 0.117 0.434 0.117 0.438 0.035 1 c -0.047 0.328 -0.027 0.406 0.117 0.488 c 0.098 0.055 0.277 0.086 0.406 0.074 c 0.191 -0.016 0.25 -0.078 0.336 -0.344 m -2.668 -5.05 c 0.164 -0.156 0.195 -0.16 0.629 -0.074 c 0.523 0.102 0.68 0.07 1.18 -0.234 c 0.313 -0.195 0.43 -0.223 0.93 -0.223 c 0.313 0 0.602 -0.031 0.641 -0.07 c 0.117 -0.125 0.074 -0.652 -0.066 -0.797 c -0.074 -0.078 -0.141 -0.238 -0.141 -0.355 c 0 -0.117 -0.047 -0.336 -0.098 -0.477 c -0.078 -0.223 -0.145 -0.27 -0.418 -0.313 c -0.391 -0.055 -0.41 -0.125 -0.066 -0.238 l 0.254 -0.086 l -0.266 0.039 c -0.148 0.02 -0.328 0.086 -0.402 0.141 c -0.074 0.059 -0.246 0.102 -0.383 0.102 l -0.25 -0.008 l 0.266 -0.063 c 0.258 -0.059 0.449 -0.215 0.68 -0.555 c 0.094 -0.137 0.082 -0.176 -0.09 -0.27 c -0.109 -0.059 -0.297 -0.109 -0.41 -0.109 c -0.305 0 -0.266 -0.117 0.055 -0.168 c 0.371 -0.055 0.57 -0.23 0.57 -0.508 c 0 -0.293 -0.145 -0.402 -0.531 -0.402 c -0.336 0 -0.414 -0.109 -0.125 -0.18 c 0.188 -0.047 0.309 -0.238 0.262 -0.406 c -0.016 -0.066 0.055 -0.094 0.23 -0.078 c 0.141 0.012 0.254 -0.008 0.254 -0.047 c 0 -0.34 -4.387 -0.324 -5.645 0.02 c -0.305 0.086 -0.348 0.125 -0.332 0.301 c 0.012 0.113 -0.027 0.23 -0.09 0.262 c -0.07 0.031 -0.004 0.055 0.164 0.059 c 0.152 0.004 0.363 0.035 0.465 0.066 c 0.168 0.051 0.148 0.066 -0.148 0.164 c -0.309 0.102 -0.332 0.133 -0.348 0.441 c -0.012 0.262 0.023 0.352 0.172 0.422 c 0.23 0.113 0.238 0.199 0.012 0.199 c -0.316 0 -0.504 0.246 -0.43 0.578 c 0.035 0.16 0.113 0.309 0.172 0.32 c 0.059 0.016 0.211 0.043 0.344 0.066 c 0.207 0.031 0.23 0.07 0.199 0.273 c -0.027 0.207 -0.07 0.238 -0.297 0.238 c -0.145 0 -0.297 -0.027 -0.332 -0.055 c -0.039 -0.031 -0.105 -0.055 -0.148 -0.055 c -0.117 0 -0.094 0.199 0.023 0.23 c 0.07 0.02 0.063 0.105 -0.031 0.277 c -0.125 0.234 -0.113 0.273 0.18 0.73 c 0.168 0.266 0.309 0.516 0.309 0.555 c 0 0.098 0.609 0.223 1.094 0.223 c 0.223 0 0.547 0.063 0.742 0.148 c 0.441 0.188 0.977 0.152 1.223 -0.086 m 2.848 -1.137 c -0.078 -0.098 0.047 -0.293 0.191 -0.293 c 0.141 0 0.16 0.066 0.074 0.246 c -0.063 0.125 -0.184 0.148 -0.266 0.047 m -4.305 -4.574 c 0.191 -0.008 0.406 -0.055 0.48 -0.102 c 0.102 -0.066 0.148 -0.066 0.199 -0.004 c 0.129 0.164 1.723 -0.055 2.01 -0.273 c 0.105 -0.082 0.035 -0.234 -0.105 -0.234 c -0.043 0 -0.145 0.051 -0.227 0.113 c -0.113 0.09 -0.145 0.094 -0.145 0.016 c 0 -0.297 0.477 -0.359 0.637 -0.086 c 0.098 0.164 0.152 0.184 0.402 0.145 c 0.422 -0.066 0.547 -0.176 0.523 -0.457 c -0.016 -0.172 0.031 -0.281 0.145 -0.344 c 0.25 -0.145 0.117 -0.422 -0.176 -0.363 c -0.215 0.039 -0.512 -0.105 -0.512 -0.254 c 0 -0.148 -0.371 -0.051 -0.555 0.152 c -0.219 0.234 -0.504 0.281 -0.598 0.098 c -0.039 -0.082 -0.121 -0.102 -0.289 -0.07 c -0.168 0.035 -0.23 0.016 -0.23 -0.059 c 0 -0.117 -0.484 -0.188 -1.254 -0.188 c -0.258 0 -0.648 -0.004 -0.875 -0.012 c -0.348 -0.012 -0.438 0.016 -0.617 0.191 c -0.316 0.305 -0.336 0.52 -0.078 0.813 c 0.27 0.309 0.277 0.445 0.035 0.684 c -0.102 0.102 -0.188 0.199 -0.188 0.223 c 0 0.063 0.492 0.105 0.793 0.066 c 0.152 -0.02 0.434 -0.043 0.625 -0.055 m -1.277 -0.578 c 0 -0.215 -0.363 -0.191 -0.402 0.023 c -0.027 0.141 0.004 0.164 0.188 0.145 c 0.145 -0.016 0.215 -0.07 0.215 -0.168 m 3.207 -2.738 c 0.434 -0.063 1.188 -0.141 1.676 -0.172 c 0.484 -0.027 1.07 -0.086 1.301 -0.129 c 0.23 -0.047 0.605 -0.117 0.836 -0.164 c 0.23 -0.043 0.813 -0.125 1.293 -0.176 c 0.832 -0.094 1.027 -0.164 1.031 -0.379 c 0 -0.105 -0.445 -0.121 -0.762 -0.027 c -0.613 0.18 -0.93 0.23 -1.031 0.172 c -0.063 -0.039 -1.012 -0.059 -2.113 -0.051 c -3.199 0.031 -7.707 0.109 -8.383 0.152 l -0.625 0.039 l 0.055 0.227 c 0.094 0.371 0.203 0.547 0.344 0.547 c 0.266 0 0.43 -0.09 0.43 -0.234 c 0 -0.152 0.137 -0.109 0.141 0.043 c 0.004 0.047 0.102 0.078 0.223 0.066 c 0.121 -0.012 0.266 0.027 0.324 0.086 c 0.074 0.078 0.332 0.113 0.895 0.133 c 1.629 0.047 3.586 -0.012 4.367 -0.129 m 6.113 -2.664 c 0.855 -0.195 1.129 -0.836 0.676 -1.57 c -0.234 -0.379 -0.594 -0.594 -1.113 -0.668 c -0.289 -0.043 -0.414 -0.023 -0.957 0.152 c -0.238 0.074 -0.203 -0.086 0.039 -0.188 c 0.109 -0.043 0.445 -0.078 0.742 -0.074 c 0.305 0.008 0.543 -0.02 0.543 -0.059 c 0 -0.039 -0.164 -0.137 -0.367 -0.219 c -0.398 -0.156 -1.535 -0.203 -1.84 -0.078 c -0.09 0.039 -0.395 0.148 -0.676 0.246 c -0.625 0.219 -0.828 0.379 -0.898 0.727 c -0.043 0.207 -0.016 0.297 0.141 0.422 c 0.125 0.105 0.176 0.219 0.145 0.313 c -0.07 0.203 0.156 0.262 0.582 0.148 c 0.289 -0.074 0.359 -0.133 0.461 -0.41 c 0.121 -0.32 0.582 -0.793 0.773 -0.793 c 0.145 0 0.125 0.063 -0.109 0.313 c -0.418 0.453 -0.16 1.355 0.48 1.684 c 0.367 0.191 0.723 0.207 1.379 0.055 m -1.164 -0.648 c -0.297 -0.164 -0.293 -0.668 0.008 -0.883 c 0.281 -0.207 0.832 -0.211 1.086 -0.016 c 0.613 0.477 -0.375 1.285 -1.094 0.898 m 0.305 15.441 c -0.102 -0.035 -0.406 -0.223 -0.676 -0.422 c -0.527 -0.391 -0.535 -0.402 -0.629 -1.414 c -0.051 -0.547 -0.047 -0.566 0.09 -0.383 c 0.078 0.105 0.16 0.379 0.176 0.605 c 0.035 0.441 0.191 0.605 0.586 0.605 c 0.113 0 0.238 0.035 0.273 0.082 c 0.039 0.047 0.27 0.066 0.605 0.047 c 0.633 -0.035 0.844 -0.152 1.121 -0.629 c 0.172 -0.301 0.176 -0.344 0.047 -0.523 c -0.094 -0.129 -0.125 -0.285 -0.086 -0.465 l 0.055 -0.27 l 0.133 0.285 c 0.07 0.156 0.152 0.512 0.18 0.789 c 0.043 0.453 0.02 0.551 -0.238 0.988 c -0.395 0.66 -0.789 0.801 -0.863 0.309 c -0.023 -0.172 -0.07 -0.211 -0.215 -0.191 c -0.293 0.035 -0.398 0.152 -0.211 0.234 c 0.203 0.09 0.211 0.32 0.016 0.379 c -0.082 0.023 -0.152 0.043 -0.164 0.039 c -0.008 0 -0.098 -0.031 -0.199 -0.066 m -12.625 -0.117 c -0.113 -0.086 -0.074 -0.293 0.074 -0.387 c 0.188 -0.121 0.086 -0.215 -0.234 -0.215 c -0.234 0 -0.266 0.023 -0.25 0.195 c 0.016 0.168 -0.02 0.199 -0.215 0.199 c -0.191 0 -0.281 -0.078 -0.527 -0.469 c -0.164 -0.258 -0.297 -0.578 -0.297 -0.719 c -0.004 -0.316 0.203 -1.074 0.344 -1.262 c 0.09 -0.125 0.105 -0.109 0.105 0.133 c 0.004 0.148 -0.063 0.348 -0.141 0.441 c -0.137 0.16 -0.129 0.199 0.09 0.57 c 0.156 0.266 0.328 0.438 0.512 0.512 c 0.309 0.121 1.082 0.148 1.172 0.039 c 0.031 -0.043 0.176 -0.074 0.324 -0.074 c 0.344 0 0.555 -0.23 0.563 -0.609 c 0 -0.16 0.066 -0.371 0.141 -0.469 c 0.137 -0.172 0.141 -0.152 0.09 0.289 c -0.105 0.961 -0.145 1.035 -0.73 1.434 c -0.297 0.199 -0.574 0.363 -0.617 0.363 c -0.047 0 -0.141 0.02 -0.211 0.039 c -0.07 0.02 -0.156 0.016 -0.191 -0.012 m 11.332 -2.516 c -0.031 -0.063 -0.016 -0.168 0.035 -0.234 c 0.07 -0.094 0.09 -0.07 0.094 0.113 c 0.004 0.258 -0.039 0.297 -0.129 0.121 m -9.617 -0.043 c -0.008 -0.066 -0.039 -0.18 -0.074 -0.25 c -0.047 -0.102 -0.035 -0.113 0.055 -0.051 c 0.063 0.043 0.094 0.156 0.074 0.25 c -0.023 0.094 -0.051 0.117 -0.055 0.051 m 2.539 -12.148 c 0.031 -0.039 0.117 -0.051 0.191 -0.027 c 0.195 0.055 0.172 0.098 -0.055 0.098 c -0.105 0 -0.164 -0.031 -0.137 -0.07 m -5.812 -1.051 c -0.066 -0.066 -0.121 -0.234 -0.113 -0.379 c 0.012 -0.355 0.398 -0.621 0.805 -0.559 c 0.383 0.059 0.469 0.141 0.457 0.441 c -0.016 0.398 -0.242 0.609 -0.668 0.609 c -0.215 0 -0.41 -0.047 -0.48 -0.113 m -1.016 -0.602 c 0 -0.039 0.039 -0.09 0.09 -0.113 c 0.055 -0.023 0.07 0.004 0.039 0.066 c -0.063 0.125 -0.129 0.148 -0.129 0.047 m 14.191 -1.711 c -0.098 -0.074 -0.07 -0.453 0.031 -0.453 c 0.051 0 0.094 0.113 0.094 0.25 c 0 0.262 -0.016 0.289 -0.125 0.203 m -5.824 -3.477 c 0 -0.141 -0.094 -0.293 -0.27 -0.438 c -0.148 -0.117 -0.297 -0.328 -0.328 -0.461 c -0.051 -0.211 -0.102 -0.246 -0.359 -0.266 l -0.301 -0.023 l 0.305 -0.129 c 0.383 -0.16 0.41 -0.453 0.07 -0.699 c -0.203 -0.148 -0.234 -0.23 -0.234 -0.641 c 0.004 -0.262 0.027 -0.547 0.059 -0.637 c 0.09 -0.262 0.223 -0.109 0.223 0.262 c 0 0.41 0.18 0.586 0.773 0.762 c 0.344 0.102 0.477 0.109 0.742 0.043 c 0.434 -0.113 0.566 -0.25 0.543 -0.57 c -0.012 -0.148 0.063 -0.383 0.164 -0.543 c 0.102 -0.152 0.16 -0.316 0.129 -0.359 c -0.035 -0.051 -0.016 -0.051 0.059 0.004 c 0.066 0.047 0.137 0.34 0.164 0.684 c 0.047 0.586 0.039 0.609 -0.246 0.91 c -0.395 0.418 -0.352 0.555 0.227 0.699 c 0.172 0.043 0.176 0.051 0.027 0.137 c -0.09 0.047 -0.199 0.172 -0.25 0.277 c -0.051 0.102 -0.32 0.316 -0.594 0.473 c -0.277 0.156 -0.555 0.387 -0.621 0.508 c -0.152 0.285 -0.281 0.285 -0.281 0.008 m 0.527 -0.563 c 0.156 -0.074 0.309 -0.414 0.309 -0.688 c 0 -0.465 -0.449 -0.688 -0.898 -0.441 c -0.215 0.113 -0.375 0.699 -0.266 0.961 c 0.078 0.191 0.602 0.297 0.855 0.168 m 4.645 0.227 c -0.137 -0.105 -0.23 -0.203 -0.207 -0.223 c 0.059 -0.047 0.363 0.094 0.559 0.262 c 0.273 0.234 -0.047 0.199 -0.352 -0.039 m -5.289 -3.168 c -0.379 -0.082 -0.125 -0.172 0.418 -0.152 c 0.32 0.012 0.582 0.055 0.582 0.094 c 0 0.074 -0.723 0.117 -1 0.059" fill="#474439"/><path d="m 21.77 38.738 c -1.273 -0.059 -2.703 -0.266 -3.332 -0.484 c -0.375 -0.125 -0.434 -0.176 -0.434 -0.359 c 0 -0.18 0.066 -0.246 0.395 -0.383 c 0.324 -0.141 0.41 -0.223 0.477 -0.457 c 0.137 -0.484 0.168 -0.52 0.262 -0.266 c 0.063 0.184 0.047 0.285 -0.078 0.449 c -0.203 0.266 -0.113 0.352 0.598 0.57 c 0.828 0.25 1.797 0.168 2.418 -0.199 c 0.266 -0.152 0.309 -0.219 0.273 -0.406 c -0.023 -0.121 -0.004 -0.301 0.047 -0.398 l 0.086 -0.18 l 0.172 0.16 c 0.141 0.137 0.262 0.164 0.727 0.164 c 0.523 0 0.559 -0.012 0.617 -0.191 l 0.063 -0.191 l 0.199 0.152 c 0.156 0.121 0.176 0.176 0.086 0.242 c -0.152 0.121 -0.141 0.355 0.035 0.547 c 0.223 0.246 0.758 0.391 1.48 0.398 c 0.906 0.008 1.383 -0.109 1.621 -0.41 l 0.191 -0.242 l 0.395 0.148 c 0.52 0.191 0.723 0.328 0.723 0.492 c 0 0.566 -3.645 1.01 -7.02 0.844 m 5.438 -2.145 c 0 -0.086 0.063 -0.148 0.148 -0.148 c 0.086 0 0.133 0.047 0.117 0.117 c -0.047 0.184 -0.266 0.207 -0.266 0.031 m -7.164 -0.34 c -0.148 -0.031 -0.168 -0.332 -0.09 -1.43 l 0.023 -0.359 l 0.078 0.324 c 0.039 0.18 0.102 0.512 0.133 0.738 c 0.055 0.371 0.094 0.426 0.359 0.535 l 0.293 0.121 l -0.23 0.051 c -0.266 0.059 -0.359 0.063 -0.566 0.02 m 5.727 -0.02 c -0.027 -0.039 -0.238 -0.09 -0.465 -0.117 c -0.414 -0.047 -0.414 -0.047 -0.254 -0.215 c 0.133 -0.141 0.18 -0.148 0.297 -0.07 c 0.43 0.297 1.023 0.145 1.023 -0.258 c 0 -0.109 0.043 -0.223 0.094 -0.246 c 0.055 -0.027 0.094 0.066 0.094 0.23 c 0 0.152 0.039 0.32 0.086 0.379 c 0.063 0.074 0.027 0.125 -0.125 0.184 c -0.324 0.133 -0.688 0.188 -0.75 0.113 m -4.695 -0.137 c 0 -0.043 0.039 -0.098 0.09 -0.121 c 0.055 -0.023 0.141 -0.188 0.199 -0.363 c 0.133 -0.406 0.266 -0.348 0.266 0.117 c 0 0.258 -0.035 0.355 -0.129 0.355 c -0.074 0 -0.199 0.02 -0.281 0.043 c -0.078 0.023 -0.145 0.008 -0.145 -0.031 m 4.063 -0.984 c -0.035 -0.199 -0.09 -1.188 -0.121 -2.195 c -0.027 -1.012 -0.086 -1.863 -0.129 -1.895 c -0.039 -0.035 -0.523 -0.027 -1.078 0.016 c -0.551 0.043 -1.223 0.078 -1.492 0.078 c -0.27 0 -0.512 0.031 -0.543 0.07 c -0.031 0.039 -0.066 0.379 -0.082 0.754 c -0.012 0.375 -0.051 0.707 -0.09 0.734 c -0.066 0.055 -0.102 -0.176 -0.074 -0.484 c 0.031 -0.328 -0.141 -0.551 -0.496 -0.641 c -0.227 -0.059 -0.328 -0.125 -0.309 -0.207 c 0.02 -0.082 -0.043 -0.117 -0.203 -0.117 c -0.191 0 -0.238 0.047 -0.301 0.289 c -0.168 0.648 -0.172 0.656 -0.281 0.512 c -0.055 -0.082 -0.07 -0.305 -0.035 -0.555 c 0.059 -0.387 0.047 -0.426 -0.148 -0.504 c -0.313 -0.129 -0.359 -0.215 -0.297 -0.547 c 0.031 -0.164 0.008 -0.41 -0.051 -0.547 c -0.082 -0.195 -0.074 -0.332 0.047 -0.672 c 0.086 -0.234 0.148 -0.473 0.145 -0.531 c -0.008 -0.059 -0.023 -0.668 -0.043 -1.348 c -0.016 -0.684 -0.055 -1.266 -0.09 -1.293 c -0.035 -0.027 -0.066 -0.246 -0.066 -0.492 c 0 -0.5 -0.184 -0.715 -0.57 -0.672 c -0.195 0.023 -0.227 0.082 -0.332 0.637 c -0.066 0.336 -0.18 0.922 -0.258 1.301 c -0.195 0.988 -0.352 2.426 -0.301 2.734 c 0.043 0.25 0.031 0.27 -0.234 0.313 c -0.48 0.074 -0.574 0.059 -0.438 -0.066 c 0.063 -0.063 0.148 -0.328 0.188 -0.594 c 0.039 -0.27 0.18 -0.875 0.309 -1.348 c 0.133 -0.477 0.238 -1.031 0.242 -1.238 c 0 -0.207 0.059 -0.578 0.133 -0.828 c 0.227 -0.805 0.242 -0.984 0.078 -1.109 c -0.09 -0.07 -0.25 -0.102 -0.41 -0.082 c -0.25 0.027 -0.266 0.016 -0.266 -0.246 c 0 -0.289 0.09 -0.344 0.27 -0.176 c 0.199 0.184 0.664 0.199 1.086 0.039 l 0.398 -0.148 l 0.051 -0.516 c 0.121 -1.141 0.109 -1.578 -0.035 -1.637 c -0.078 -0.035 -0.434 -0.121 -0.793 -0.191 c -0.582 -0.117 -0.617 -0.133 -0.324 -0.152 c 0.176 -0.016 0.355 -0.063 0.391 -0.109 c 0.047 -0.059 0.07 -0.047 0.074 0.035 c 0 0.102 0.191 0.125 1.371 0.18 c 1.746 0.078 3.527 0.059 3.68 -0.035 c 0.188 -0.121 1.453 -0.301 2.129 -0.301 c 0.344 0 0.805 -0.031 1.023 -0.07 c 1.102 -0.195 1.586 -0.242 2.371 -0.234 l 0.863 0.008 l 0.145 -0.215 c 0.078 -0.121 0.129 -0.301 0.113 -0.406 c -0.023 -0.16 -0.09 -0.203 -0.398 -0.25 c -0.285 -0.047 -0.434 -0.035 -0.633 0.055 c -0.238 0.109 -0.746 0.152 -2.289 0.203 c -0.172 0.008 -0.332 -0.027 -0.352 -0.07 c -0.023 -0.051 0.184 -0.098 0.57 -0.133 c 0.336 -0.027 0.629 -0.074 0.652 -0.105 c 0.027 -0.035 -0.145 -0.098 -0.375 -0.141 c -0.324 -0.066 -0.566 -0.191 -1.012 -0.531 c -0.832 -0.637 -0.875 -0.727 -0.805 -1.637 c 0.047 -0.621 0.094 -0.793 0.266 -0.98 c 0.117 -0.125 0.211 -0.258 0.211 -0.293 c 0 -0.211 1.117 -0.668 1.629 -0.668 c 0.391 0 0.254 0.098 -0.508 0.367 c -0.434 0.156 -0.797 0.336 -0.891 0.449 c -0.23 0.273 -0.285 0.715 -0.102 0.855 c 0.082 0.063 0.148 0.199 0.148 0.305 c 0 0.102 0.043 0.227 0.098 0.273 c 0.051 0.051 0.148 0.148 0.219 0.227 c 0.117 0.133 0.125 0.133 0.305 -0.008 c 0.102 -0.078 0.289 -0.141 0.41 -0.137 c 0.203 0.004 0.227 -0.027 0.25 -0.316 c 0.031 -0.438 0.098 -0.648 0.207 -0.648 c 0.047 0 0.063 0.047 0.035 0.102 c -0.082 0.164 0.152 0.922 0.352 1.137 c 0.098 0.105 0.297 0.262 0.445 0.344 c 0.246 0.133 0.32 0.141 0.996 0.07 c 0.648 -0.07 0.754 -0.102 0.98 -0.309 c 0.137 -0.125 0.277 -0.316 0.309 -0.426 c 0.086 -0.301 0.23 -0.313 0.23 -0.023 c 0 0.145 -0.129 0.477 -0.281 0.738 c -0.238 0.41 -0.293 0.609 -0.352 1.313 c -0.066 0.824 -0.07 0.832 -0.332 0.93 c -0.273 0.102 -1.973 0.457 -2.598 0.547 l -0.352 0.047 l 0.023 0.41 c 0.012 0.227 0.004 0.781 -0.012 1.23 c -0.027 0.73 -0.016 0.832 0.141 0.918 c 0.395 0.227 1.051 0.07 1.281 -0.305 c 0.082 -0.137 0.188 -0.246 0.23 -0.246 c 0.043 0 0.082 0.211 0.086 0.469 c 0.012 0.453 0.004 0.465 -0.148 0.32 l -0.156 -0.152 l -0.254 0.184 c -0.273 0.195 -0.281 0.355 -0.043 1.27 c 0.055 0.215 0.105 0.637 0.113 0.934 c 0.012 0.602 0.262 1.941 0.398 2.129 c 0.051 0.066 0.066 0.262 0.043 0.434 c -0.031 0.219 0 0.367 0.109 0.496 c 0.195 0.23 0.035 0.301 -0.367 0.164 l -0.277 -0.09 l -0.012 -1.082 c -0.008 -0.594 -0.078 -1.434 -0.156 -1.871 c -0.082 -0.434 -0.172 -1.105 -0.211 -1.492 c -0.063 -0.676 -0.07 -0.703 -0.281 -0.703 c -0.121 0 -0.297 0.059 -0.391 0.133 c -0.148 0.113 -0.18 0.305 -0.23 1.402 c -0.039 0.832 -0.02 1.539 0.055 2.047 c 0.133 0.918 0.125 2.027 -0.016 2.234 c -0.055 0.078 -0.242 0.184 -0.41 0.227 l -0.313 0.078 l 0.035 1.395 c 0.023 0.871 0.004 1.414 -0.055 1.441 c -0.117 0.055 -0.203 -0.465 -0.277 -1.734 l -0.063 -0.996 l -0.301 0.012 c -0.555 0.02 -0.582 0.047 -0.582 0.617 c 0 0.285 -0.043 0.871 -0.094 1.301 c -0.063 0.504 -0.066 0.98 -0.008 1.367 c 0.051 0.324 0.059 0.734 0.023 0.914 l -0.066 0.324 m -1.063 -4.758 c 0.434 -0.066 0.988 -0.16 1.227 -0.215 c 0.238 -0.059 0.688 -0.102 0.992 -0.102 c 0.328 0 0.59 -0.035 0.629 -0.086 c 0.16 -0.203 0.191 -0.695 0.078 -1.309 c -0.137 -0.758 -0.246 -1.012 -0.473 -1.113 c -0.137 -0.059 -0.145 -0.09 -0.047 -0.18 c 0.148 -0.141 0.063 -0.262 -0.18 -0.262 c -0.25 0 -0.227 -0.105 0.051 -0.203 c 0.281 -0.098 0.227 -0.27 -0.105 -0.336 c -0.344 -0.066 -0.215 -0.238 0.27 -0.355 c 0.121 -0.027 0.164 -0.113 0.164 -0.328 c 0 -0.273 -0.023 -0.301 -0.371 -0.406 c -0.441 -0.137 -0.48 -0.281 -0.098 -0.34 c 0.277 -0.043 0.465 -0.309 0.332 -0.473 c -0.078 -0.102 -0.672 -0.223 -1.086 -0.223 c -0.574 0 -0.91 -0.078 -0.852 -0.191 c 0.027 -0.059 0.141 -0.102 0.25 -0.094 c 0.109 0.008 0.367 0.008 0.578 0.004 c 0.355 -0.008 0.387 -0.023 0.484 -0.277 c 0.059 -0.148 0.117 -0.332 0.129 -0.406 c 0.027 -0.133 0.152 -0.211 0.469 -0.289 c 0.191 -0.043 0.211 -0.313 0.039 -0.484 c -0.063 -0.066 -0.242 -0.133 -0.391 -0.145 c -0.262 -0.023 -0.273 -0.039 -0.27 -0.367 c 0.004 -0.188 -0.023 -0.344 -0.059 -0.344 c -0.035 0 -0.195 0.023 -0.355 0.047 c -0.293 0.047 -0.406 0.172 -0.148 0.172 c 0.078 0 0.137 0.063 0.137 0.148 c 0 0.082 0.043 0.211 0.098 0.289 c 0.125 0.18 -0.012 0.176 -0.215 -0.008 c -0.176 -0.16 -0.438 -0.188 -0.602 -0.063 c -0.059 0.047 -0.176 0.063 -0.262 0.035 c -0.117 -0.035 -0.145 -0.098 -0.102 -0.262 c 0.063 -0.234 -0.055 -0.281 -0.273 -0.109 c -0.094 0.074 -0.199 0.086 -0.344 0.043 c -0.152 -0.043 -0.258 -0.023 -0.398 0.078 c -0.191 0.137 -0.578 0.16 -2.023 0.129 c -0.289 -0.008 -0.422 0.039 -0.676 0.23 c -0.172 0.129 -0.316 0.266 -0.316 0.309 c 0 0.039 -0.09 0.145 -0.203 0.238 c -0.172 0.141 -0.207 0.258 -0.219 0.715 c -0.012 0.535 -0.008 0.547 0.254 0.617 c 0.324 0.086 0.336 0.184 0.027 0.242 c -0.273 0.055 -0.449 0.266 -0.375 0.449 c 0.031 0.07 0.059 0.387 0.066 0.699 c 0.004 0.316 0.051 0.613 0.102 0.664 c 0.063 0.059 0.055 0.125 -0.023 0.199 c -0.082 0.074 -0.102 0.25 -0.063 0.57 c 0.043 0.344 0.02 0.52 -0.094 0.688 c -0.109 0.176 -0.133 0.363 -0.094 0.781 c 0.023 0.301 0.004 0.684 -0.047 0.848 c -0.133 0.43 -0.016 0.555 0.543 0.574 c 0.805 0.031 1.84 0.145 2.078 0.227 c 0.336 0.113 0.863 0.105 1.766 -0.027 m 2.418 -6.332 c 0 -0.121 -0.238 -0.137 -0.332 -0.023 c -0.07 0.09 0.141 0.223 0.258 0.164 c 0.039 -0.02 0.074 -0.082 0.074 -0.141 m 1.98 -4.914 c 0.16 -0.047 0.16 -0.059 -0.027 -0.188 c -0.184 -0.129 -0.203 -0.129 -0.352 -0.012 c -0.141 0.105 -0.145 0.129 -0.023 0.191 c 0.16 0.078 0.176 0.078 0.402 0.008 m -7.086 15.14 c 0.008 -0.621 0.164 -0.855 0.168 -0.254 c 0.004 0.258 -0.035 0.52 -0.082 0.578 c -0.066 0.074 -0.09 -0.02 -0.086 -0.324 m -1.488 -0.293 c 0.004 -0.086 0.027 -0.102 0.055 -0.043 c 0.027 0.051 0.023 0.113 -0.008 0.137 c -0.031 0.023 -0.051 -0.02 -0.047 -0.094 m 0.008 -0.535 c 0 -0.098 0.02 -0.141 0.047 -0.09 c 0.023 0.051 0.023 0.129 0 0.18 c -0.027 0.051 -0.047 0.008 -0.047 -0.09 m 9.16 -0.352 c -0.285 -0.145 -0.996 -0.723 -0.996 -0.813 c 0 -0.121 0.188 -0.117 0.543 0.016 c 0.207 0.078 0.504 0.141 0.656 0.141 c 0.328 0 0.449 0.105 0.23 0.203 c -0.145 0.063 -0.141 0.086 0.043 0.266 c 0.328 0.324 0.023 0.445 -0.477 0.188 m -12.48 -0.086 c -0.035 -0.039 0.016 -0.141 0.105 -0.219 c 0.137 -0.113 0.148 -0.172 0.063 -0.277 c -0.133 -0.164 -0.066 -0.219 0.273 -0.219 c 0.145 0 0.418 -0.047 0.605 -0.109 c 0.379 -0.121 0.637 -0.09 0.52 0.063 c -0.043 0.051 -0.316 0.262 -0.609 0.469 c -0.52 0.359 -0.828 0.453 -0.957 0.293 m 3.211 -0.492 c 0 -0.566 0.113 -0.805 0.234 -0.504 c 0.086 0.203 -0.039 1.074 -0.148 1.074 c -0.047 0 -0.086 -0.258 -0.086 -0.57 m 10.273 0.496 c -0.031 -0.039 -0.031 -0.137 0.004 -0.219 c 0.031 -0.082 0.012 -0.191 -0.047 -0.246 c -0.082 -0.074 -0.063 -0.109 0.094 -0.145 c 0.105 -0.027 0.34 -0.148 0.52 -0.27 c 0.176 -0.121 0.344 -0.199 0.375 -0.176 c 0.066 0.051 -0.285 0.75 -0.488 0.977 c -0.148 0.16 -0.359 0.199 -0.457 0.078 m -14.258 -0.164 c -0.145 -0.137 -0.57 -0.898 -0.57 -1.023 c 0 -0.137 0.152 -0.137 0.219 0.004 c 0.031 0.059 0.242 0.199 0.477 0.313 c 0.332 0.164 0.395 0.223 0.297 0.285 c -0.074 0.051 -0.105 0.168 -0.082 0.297 c 0.043 0.238 -0.145 0.305 -0.34 0.125 m 12.258 -2.992 c 0 -0.133 0.156 -0.273 0.23 -0.215 c 0.117 0.094 0.074 0.313 -0.066 0.336 c -0.113 0.016 -0.164 -0.02 -0.164 -0.121 m -10.08 -0.004 c -0.078 -0.098 0.051 -0.305 0.172 -0.273 c 0.164 0.043 0.188 0.34 0.023 0.34 c -0.078 0 -0.164 -0.027 -0.195 -0.066 m 11.609 -0.336 c 0.027 -0.063 0.055 -0.191 0.055 -0.285 c 0 -0.234 0.109 -0.223 0.301 0.027 c 0.121 0.156 0.129 0.227 0.047 0.289 c -0.164 0.129 -0.473 0.105 -0.402 -0.031 m -13.223 -0.121 c -0.074 -0.07 -0.043 -0.148 0.121 -0.309 l 0.227 -0.211 l 0.004 0.191 c 0 0.105 0.027 0.242 0.059 0.305 c 0.07 0.145 -0.266 0.16 -0.41 0.023 m 13.242 -0.758 c -0.039 -0.133 -0.051 -0.258 -0.02 -0.281 c 0.105 -0.082 0.16 0.039 0.129 0.277 l -0.031 0.242 m -13.06 -0.336 c 0 -0.133 0.043 -0.289 0.094 -0.348 c 0.066 -0.078 0.09 -0.027 0.09 0.191 c 0 0.168 -0.039 0.324 -0.09 0.348 c -0.055 0.027 -0.094 -0.051 -0.094 -0.191 m 12.598 -2.418 c -0.125 -0.504 -0.145 -0.883 -0.047 -0.883 c 0.051 0 0.094 0.043 0.098 0.09 c 0.004 0.051 0.035 0.309 0.074 0.578 c 0.074 0.516 -0.012 0.668 -0.125 0.215 m -12.12 0.055 c 0 -0.098 0.059 -0.391 0.133 -0.648 l 0.133 -0.469 l -0.039 0.523 c -0.02 0.285 -0.082 0.578 -0.133 0.648 c -0.086 0.109 -0.098 0.102 -0.094 -0.055 m -0.473 -5.473 c 0 -0.199 -0.059 -0.453 -0.125 -0.559 c -0.07 -0.105 -0.152 -0.32 -0.184 -0.477 c -0.066 -0.324 -0.359 -0.59 -1.063 -0.949 c -0.566 -0.293 -1.109 -0.703 -1.191 -0.906 c -0.09 -0.215 0.035 -0.246 0.137 -0.035 c 0.125 0.246 0.551 0.41 1.082 0.41 c 0.355 0 0.523 -0.051 0.898 -0.262 c 0.254 -0.145 0.5 -0.344 0.547 -0.438 c 0.094 -0.191 0.27 -0.16 0.27 0.051 c 0 0.297 0.102 0.359 0.574 0.359 c 0.441 0 0.527 0.027 0.93 0.313 c 0.184 0.129 0.195 0.129 0.469 -0.07 c 0.637 -0.469 0.699 -0.895 0.211 -1.41 c -0.176 -0.188 -0.488 -0.406 -0.695 -0.488 c -0.449 -0.176 -0.477 -0.242 -0.07 -0.176 c 0.551 0.09 0.887 0.309 1.195 0.773 c 0.254 0.387 0.285 0.5 0.246 0.848 c -0.027 0.223 -0.008 0.457 0.043 0.527 c 0.066 0.094 0.031 0.191 -0.148 0.395 c -0.133 0.148 -0.242 0.305 -0.242 0.348 c 0 0.043 -0.195 0.266 -0.43 0.488 c -0.297 0.281 -0.398 0.43 -0.332 0.484 c 0.098 0.074 2.445 0.203 2.723 0.148 c 0.086 -0.02 0.184 0.004 0.219 0.047 c 0.082 0.102 -2.641 0.094 -2.809 -0.012 c -0.078 -0.051 -0.203 -0.043 -0.395 0.016 c -0.152 0.051 -0.539 0.094 -0.859 0.102 l -0.582 0.008 l -0.016 0.324 c -0.008 0.176 0.02 0.355 0.066 0.398 c 0.051 0.047 -0.016 0.082 -0.195 0.09 c -0.27 0.016 -0.273 0.012 -0.273 -0.348 m 0.637 -1.727 c 0.219 -0.379 -0.008 -0.547 -0.43 -0.316 c -0.176 0.094 -0.258 0.098 -0.531 0.02 c -0.238 -0.066 -0.355 -0.07 -0.43 -0.012 c -0.109 0.086 -0.09 0.094 0.707 0.418 c 0.449 0.18 0.523 0.168 0.684 -0.109 m 0.832 -0.559 c 0.023 -0.121 -0.016 -0.16 -0.156 -0.16 c -0.223 0 -0.328 0.109 -0.254 0.262 c 0.082 0.16 0.379 0.09 0.41 -0.102 m 4.34 1.711 c -0.031 -0.039 0.012 -0.07 0.094 -0.07 c 0.082 0 0.125 0.031 0.094 0.07 c -0.031 0.039 -0.074 0.074 -0.094 0.074 c -0.02 0 -0.063 -0.035 -0.094 -0.074 m 0.418 -0.004 c 0 -0.063 1.207 -0.164 1.281 -0.109 c 0.027 0.023 0.035 0.055 0.016 0.07 c -0.074 0.051 -1.297 0.086 -1.297 0.039 m -0.953 -0.043 c 0.066 -0.02 0.172 -0.02 0.234 0 c 0.063 0.02 0.012 0.035 -0.117 0.035 c -0.125 0 -0.18 -0.016 -0.117 -0.035 m 2.582 -0.023 c -0.031 -0.039 0.031 -0.074 0.141 -0.074 c 0.105 0 0.168 0.035 0.137 0.074 c -0.031 0.039 -0.094 0.07 -0.137 0.07 c -0.047 0 -0.109 -0.031 -0.141 -0.07 m 0.656 0.008 c -0.059 -0.074 0.254 -0.148 0.621 -0.152 c 0.281 0 0.344 0.102 0.109 0.172 c -0.219 0.066 -0.672 0.055 -0.73 -0.02 m 3.801 -2.344 c -0.566 -0.441 0.082 -1.117 0.832 -0.875 c 0.531 0.172 0.531 0.578 -0.004 0.902 c -0.32 0.195 -0.547 0.188 -0.828 -0.027 m -13.844 -0.414 c -0.078 -0.09 -0.145 -0.223 -0.145 -0.293 c 0 -0.156 0.172 -0.426 0.316 -0.5 c 0.18 -0.094 0.68 -0.059 0.801 0.051 c 0.148 0.141 0.063 0.586 -0.148 0.766 c -0.219 0.188 -0.645 0.176 -0.824 -0.023 m 15.727 -0.445 c -0.133 -0.215 -0.285 -0.41 -0.336 -0.438 c -0.055 -0.027 -0.102 -0.105 -0.102 -0.176 c 0 -0.324 -0.879 -0.652 -1.746 -0.652 c -0.281 0 -0.484 -0.027 -0.445 -0.055 c 0.039 -0.031 0.457 -0.055 0.922 -0.055 c 0.754 0 0.852 -0.016 0.84 -0.125 c -0.008 -0.07 0.023 -0.129 0.07 -0.129 c 0.043 0 0.082 0.051 0.082 0.109 c 0 0.145 0.152 0.137 0.223 -0.004 c 0.094 -0.195 0.063 -0.352 -0.133 -0.648 c -0.102 -0.156 -0.246 -0.59 -0.313 -0.969 c -0.121 -0.656 -0.316 -1.063 -0.77 -1.582 c -0.102 -0.113 -0.016 -0.074 0.238 0.109 c 0.809 0.59 1.324 1.656 1.496 3.105 c 0.055 0.441 0.156 0.91 0.227 1.043 c 0.188 0.348 0.227 0.852 0.066 0.852 c -0.047 0 -0.191 -0.176 -0.32 -0.387 m -14.03 -1.078 c -0.188 -0.063 -0.23 -0.113 -0.164 -0.191 c 0.047 -0.059 0.086 -0.309 0.086 -0.559 c 0.004 -0.617 0.305 -1.145 0.508 -0.887 c 0.027 0.035 0.066 0.234 0.09 0.441 c 0.02 0.207 0.094 0.406 0.164 0.441 c 0.102 0.051 0.098 0.078 -0.023 0.152 c -0.23 0.137 -0.379 0.402 -0.316 0.559 c 0.066 0.16 0.012 0.168 -0.344 0.043 m 0.484 -2.277 c 0 -0.039 0.043 -0.07 0.098 -0.07 c 0.055 0 0.07 0.031 0.039 0.07 c -0.031 0.039 -0.074 0.074 -0.098 0.074 c -0.023 0 -0.039 -0.035 -0.039 -0.074 m 5.137 -2.16 c -0.098 -0.207 -0.09 -0.215 0.16 -0.215 c 0.215 0 0.254 0.027 0.215 0.141 c -0.09 0.27 -0.262 0.301 -0.371 0.074 m 0.746 -0.418 c 0.109 -0.094 0.156 -0.262 0.156 -0.57 c 0 -0.57 -0.133 -0.68 -0.781 -0.652 l -0.477 0.023 l -0.086 0.305 c -0.047 0.168 -0.121 0.305 -0.16 0.305 c -0.043 0 -0.051 -0.137 -0.02 -0.305 c 0.043 -0.266 0.02 -0.328 -0.188 -0.48 c -0.152 -0.109 -0.242 -0.25 -0.242 -0.379 c 0 -0.211 0.152 -0.277 0.242 -0.102 c 0.086 0.18 0.961 0.422 1.363 0.383 c 0.559 -0.059 0.813 -0.285 0.813 -0.73 c 0 -0.406 0.117 -0.641 0.219 -0.438 c 0.031 0.066 0.059 0.293 0.059 0.5 c 0 0.316 -0.047 0.43 -0.277 0.652 c -0.277 0.27 -0.355 0.52 -0.199 0.652 c 0.043 0.035 0.105 0.176 0.137 0.309 c 0.051 0.207 0.02 0.27 -0.227 0.449 c -0.316 0.23 -0.578 0.289 -0.332 0.078 m -0.961 -2.965 c 0 -0.09 0.375 -0.09 0.559 0 c 0.102 0.055 0.051 0.07 -0.211 0.074 c -0.191 0 -0.348 -0.031 -0.348 -0.074" fill="#2c2926"/></svg>