<svg xmlns="http://www.w3.org/2000/svg" xmlns:xlink="http://www.w3.org/1999/xlink" viewBox="0 0 48 48"><defs><g id="3" clip-path="url(#2)"><path d="m 150.77 190.54 c -6.625 -0.833 -14.917 -2.521 -14.917 -3.042 c 0 -1.083 -2.292 -0.458 -3.667 1 c -1.896 2.02 -5.354 2.02 -11.188 0.042 c -2.396 -0.833 -5.938 -1.938 -7.896 -2.458 c -4.313 -1.208 -4.896 -2.313 -3.542 -6.688 c 0.521 -1.688 1.208 -3.271 1.521 -3.479 c 0.792 -0.542 0.042 -7.521 -1.167 -11.02 c -0.563 -1.583 -1.792 -3.729 -2.75 -4.75 c -0.958 -1.021 -1.604 -2.229 -1.417 -2.688 c 0.167 -0.458 -0.625 -1.521 -1.833 -2.458 c -1.167 -0.896 -2 -1.979 -1.833 -2.417 c 0.375 -0.938 -2.688 -3.542 -3.542 -3 c -0.313 0.188 -1.167 -0.188 -1.896 -0.854 c -0.729 -0.667 -2.771 -1.938 -4.542 -2.833 c -3.104 -1.542 -3.188 -1.667 -3.188 -4.188 c 0 -1.417 0.542 -4.563 1.208 -6.979 c 0.667 -2.417 1.229 -5.104 1.229 -5.938 c 0 -0.896 0.896 -2.521 2.167 -3.937 c 1.188 -1.313 2.25 -3.125 2.333 -4 c 0.104 -0.875 0.563 -2 1.042 -2.5 c 2.313 -2.396 12.688 -10.813 14.5 -11.75 c 2.042 -1.083 2.063 -1.083 5.417 0.75 c 4.292 2.313 10.02 2.813 11.313 0.958 c 0.458 -0.646 0.958 -1.021 1.146 -0.833 c 0.167 0.167 1.479 -0.646 2.896 -1.833 c 3.042 -2.542 4.75 -3.083 7.833 -2.458 c 1.229 0.25 3.146 0.521 4.25 0.604 c 1.292 0.083 2.729 0.792 3.979 1.979 c 1.063 1 2.563 2.146 3.313 2.542 c 1.188 0.604 1.375 1.188 1.375 4.417 c 0 3.02 -0.354 4.313 -1.854 6.958 c -3.292 5.729 -6.688 7.521 -10.333 5.438 c -1.979 -1.125 -2.667 -1.125 -2.229 0 c 0.188 0.5 0.104 0.917 -0.188 0.917 c -0.313 0 -0.729 -0.542 -0.938 -1.229 c -0.458 -1.438 -2.458 -1.604 -3.75 -0.292 c -0.708 0.708 -0.729 0.917 -0.104 0.958 c 0.438 0.021 0.25 0.271 -0.417 0.563 c -1.875 0.792 -2.354 0.708 -1.521 -0.313 c 0.625 -0.75 0.542 -0.917 -0.521 -0.917 c -1.542 0 -4.188 3.208 -5.667 6.813 c -0.729 1.833 -1.042 4.208 -1.021 7.833 c 0.021 3.229 0.188 4.479 0.438 3.333 l 0.417 -1.813 l 0.729 2.063 c 0.938 2.604 0.938 2.542 -0.313 2.063 c -0.979 -0.375 -0.979 -0.271 0.063 1.375 c 3.417 5.354 5.438 6.375 12.542 6.375 c 3.271 0 5.521 0.25 5.521 0.604 c 0 0.333 1.104 0.625 2.438 0.625 c 2.604 0 3.333 -0.958 1.063 -1.417 c -0.75 -0.125 1.229 -0.25 4.417 -0.25 c 3.188 0 5.04 0.125 4.125 0.271 c -2.417 0.354 -2.063 1.396 0.458 1.396 c 1.167 0 2.125 -0.292 2.125 -0.625 c 0 -0.333 0.375 -0.604 0.854 -0.604 c 0.458 0 1 -0.375 1.167 -0.833 c 0.417 -1.104 3.542 -1.875 4.063 -1.021 c 0.292 0.458 1.229 0.375 3.104 -0.292 c 2.5 -0.875 2.729 -0.875 3.5 0.146 c 1.271 1.688 0.729 12.854 -0.667 13.875 c -1.292 0.938 -1.333 2.542 -0.125 3.75 c 0.5 0.5 0.917 1.729 0.917 2.729 c 0 1.104 0.375 1.938 0.979 2.188 c 0.792 0.292 0.917 0.917 0.604 3.146 c -0.521 3.854 -2.938 7.02 -7.313 9.667 c -2.063 1.229 -3.854 2.417 -4.02 2.667 c -0.792 1.104 -7.167 2.104 -10.667 1.667 m -21.854 -10.02 c 0.479 -1.229 -1.563 -3.271 -6.563 -6.542 l -3.896 -2.542 l -0.188 -3.5 c -0.167 -3.042 -0.354 -3.5 -1.396 -3.5 c -1.667 0 -4.208 2.667 -4.208 4.417 c 0 2.688 11.75 12.313 15.396 12.604 c 0.271 0.021 0.646 -0.396 0.854 -0.938 m 24.292 -27.06 c -0.208 -0.333 -0.896 -0.604 -1.542 -0.604 c -0.625 0 -1.313 0.271 -1.521 0.604 c -0.208 0.354 0.417 0.604 1.521 0.604 c 1.125 0 1.75 -0.25 1.542 -0.604" transform="scale(0.1875)" stroke-opacity="0.604" fill="#fff" fill-rule="evenodd" stroke="#fff" stroke-width="3.336"/></g><g id="6" clip-path="url(#5)"><path d="m 131.13 86.27 c -1.521 -1.896 -1.396 -3.271 0.458 -5.02 c 2.792 -2.667 2.375 -5.292 -1.167 -7.333 c -0.646 -0.354 -0.771 -0.229 -0.479 0.521 c 0.354 0.938 -0.229 1.333 -1.646 1.063 c -0.292 -0.063 -1.167 0.5 -1.937 1.229 c -0.917 0.854 -1.875 1.208 -2.708 0.979 c -0.792 -0.208 -1.417 0 -1.604 0.521 c -0.271 0.729 -0.479 0.708 -1.25 -0.063 c -2.375 -2.375 -5.104 -4 -6.396 -3.833 c -1.188 0.188 -1.417 0.583 -1.479 2.646 c -0.042 1.438 0.417 3.25 1.125 4.438 c 1.125 1.854 1.125 2.104 0.208 3.5 c -1.708 2.604 -3.02 1.938 -4.5 -2.292 c -2.521 -7.146 -1.438 -12.729 3.229 -16.833 c 2.646 -2.313 3.667 -2.375 7.104 -0.396 c 3.042 1.729 7.271 2.042 8.458 0.604 c 1.271 -1.542 6.271 -1.188 8.396 0.604 c 3.521 2.958 4.688 10.896 2.271 15.542 c -2.167 4.167 -6.354 6.313 -8.08 4.125" transform="scale(0.1875)" stroke-opacity="0.604" fill="#fff" fill-rule="evenodd" stroke="#fff" stroke-width="3.336"/></g><clipPath id="2"><path d="M 0,0 H48 V48 H0 z"/></clipPath><clipPath id="5"><path d="M 0,0 H48 V48 H0 z"/></clipPath><filter id="0" filterUnits="objectBoundingBox" x="0" y="0" width="48" height="48"><feColorMatrix type="matrix" in="SourceGraphic" values="0 0 0 0 1 0 0 0 0 1 0 0 0 0 1 0 0 0 1 0"/></filter><mask id="4"><g filter="url(#0)"><path fill-opacity="0.922" d="M 0,0 H48 V48 H0 z"/></g></mask><mask id="1"><g filter="url(#0)"><path fill-opacity="0.922" d="M 0,0 H48 V48 H0 z"/></g></mask></defs><path d="m 42.44 39.516 c 11.629 -17.887 2.246 -34.18 -10.918 -38.04 c -17.711 -5.199 -41.754 8.461 -25.91 36.621 c 6.297 11.188 28.543 14.15 36.824 1.414" fill="#dcdcdc"/><path d="m 30.418 37.785 c 0.391 -0.047 1.027 -0.047 1.414 0 c 0.391 0.051 0.07 0.09 -0.707 0.09 c -0.777 0 -1.094 -0.039 -0.707 -0.09 m 2.25 -0.121 c 0.051 -0.035 0.285 -0.211 0.523 -0.387 c 0.406 -0.301 0.414 -0.297 0.137 0.063 c -0.164 0.211 -0.398 0.387 -0.523 0.387 c -0.125 0 -0.188 -0.031 -0.137 -0.063 m 1.309 -1.199 c 0.16 -0.27 0.336 -0.441 0.395 -0.383 c 0.055 0.059 -0.074 0.277 -0.289 0.488 c -0.375 0.363 -0.379 0.359 -0.105 -0.105 m -7.313 -0.066 c -0.238 -0.105 -0.801 -0.25 -1.25 -0.324 c -0.863 -0.145 -0.984 -0.301 -0.555 -0.734 c 0.355 -0.363 0.719 -0.336 0.418 0.031 c -0.27 0.332 -0.113 0.586 0.359 0.586 c 0.199 0 0.262 -0.129 0.18 -0.355 c -0.105 -0.273 -0.047 -0.32 0.246 -0.191 c 0.211 0.09 1.02 0.234 1.797 0.324 l 1.418 0.16 l -1.281 0.031 c -1.109 0.027 -1.242 0.074 -1 0.363 c 0.305 0.371 0.285 0.379 -0.328 0.109 m -5 -0.699 c -0.359 -0.121 -1.34 -0.223 -2.18 -0.223 c -1.301 -0.008 -1.398 -0.031 -0.676 -0.176 c 0.492 -0.098 1.02 -0.391 1.258 -0.695 c 0.223 -0.289 0.352 -0.371 0.285 -0.18 c -0.094 0.273 0.18 0.41 1.32 0.648 c 0.789 0.168 2.516 0.891 2.715 1.047 c 0.32 0.242 1.18 -0.406 0.52 -0.418 c -0.418 -0.008 -2.887 0.117 -3.242 -0.004 m 8.613 -0.25 c 0.051 -0.035 0.387 -0.242 0.746 -0.457 l 0.652 -0.387 l -0.516 0.457 c -0.281 0.25 -0.617 0.453 -0.742 0.453 c -0.129 0 -0.191 -0.031 -0.141 -0.066 m -13.293 -0.617 c -0.363 -0.301 -0.398 -0.375 -0.109 -0.223 c 0.711 0.371 1.102 0.68 0.871 0.676 c -0.121 0 -0.465 -0.203 -0.762 -0.453 m -1.117 -0.809 c -0.27 -0.348 -0.262 -0.355 0.082 -0.082 c 0.363 0.289 0.48 0.469 0.301 0.469 c -0.047 0 -0.219 -0.172 -0.383 -0.387 m 6.598 -0.969 c -0.637 -0.488 -1.211 -1.031 -1.273 -1.207 c -0.148 -0.387 0.297 -0.973 0.742 -0.973 c 0.246 0 0.297 0.164 0.199 0.66 c -0.117 0.582 -0.047 0.707 0.57 1.023 c 0.82 0.422 1.461 0.961 1.461 1.223 c 0 0.383 -0.574 0.137 -1.699 -0.727 m -0.477 -1.738 c 0 -0.121 -0.043 -0.219 -0.094 -0.219 c -0.055 0 -0.156 0.098 -0.23 0.219 c -0.074 0.125 -0.031 0.223 0.094 0.223 c 0.129 0 0.23 -0.098 0.23 -0.223 m 11.941 2.047 c -0.27 -0.352 -0.262 -0.359 0.082 -0.086 c 0.211 0.168 0.383 0.34 0.383 0.387 c 0 0.184 -0.18 0.066 -0.465 -0.301 m -13.293 -1.094 c -0.082 -0.633 -0.305 -1.477 -0.496 -1.879 c -0.309 -0.645 -0.309 -0.68 -0.008 -0.293 c 0.438 0.559 0.813 1.973 0.723 2.727 c -0.047 0.391 -0.121 0.203 -0.219 -0.555 m -6.512 -0.012 c -0.27 -0.352 -0.262 -0.359 0.082 -0.086 c 0.363 0.289 0.48 0.473 0.301 0.473 c -0.047 0 -0.219 -0.176 -0.383 -0.387 m 18.04 -0.039 c -0.094 -0.367 -0.066 -0.453 0.094 -0.289 c 0.129 0.129 0.188 0.363 0.137 0.523 c -0.055 0.164 -0.152 0.066 -0.23 -0.234 m 1.145 0.219 c 0 -0.117 0.098 -0.27 0.215 -0.344 c 0.125 -0.078 0.16 0.012 0.086 0.207 c -0.145 0.383 -0.301 0.453 -0.301 0.137 m 0.559 -0.965 c 0.082 -0.215 0.203 -0.34 0.273 -0.27 c 0.066 0.066 0 0.246 -0.152 0.395 c -0.215 0.215 -0.238 0.191 -0.121 -0.125 m -2.063 -0.285 c 0.012 -0.254 0.063 -0.309 0.133 -0.133 c 0.063 0.16 0.055 0.352 -0.02 0.426 c -0.07 0.074 -0.125 -0.059 -0.113 -0.293 m 2.352 -0.926 c -0.074 -0.438 -0.039 -0.645 0.078 -0.523 c 0.113 0.113 0.164 0.438 0.121 0.727 c -0.07 0.441 -0.102 0.41 -0.199 -0.203 m -1.895 -1.234 c -0.043 -1.141 0 -1.117 -1.238 -0.707 c -0.238 0.078 -0.113 -0.031 0.277 -0.238 c 0.914 -0.492 1.195 -0.219 1.082 1.051 l -0.086 0.969 m -18.992 -0.68 c 0.012 -0.258 0.063 -0.309 0.133 -0.133 c 0.063 0.16 0.055 0.348 -0.016 0.422 c -0.074 0.074 -0.125 -0.055 -0.117 -0.289 m 6.05 -0.258 c -0.273 -0.352 -0.266 -0.359 0.082 -0.082 c 0.207 0.164 0.379 0.34 0.379 0.387 c 0 0.18 -0.176 0.063 -0.461 -0.305 m 14.04 0.078 c -0.066 -0.172 -0.086 -0.645 -0.043 -1.051 c 0.066 -0.648 0.09 -0.609 0.18 0.309 c 0.105 1.078 0.066 1.285 -0.137 0.742 m -6.344 -0.508 c 0.207 -0.055 0.551 -0.055 0.762 0 c 0.207 0.059 0.035 0.102 -0.383 0.102 c -0.418 0 -0.59 -0.043 -0.379 -0.102 m 1.961 0 c 0.211 -0.055 0.504 -0.051 0.652 0.008 c 0.148 0.063 -0.023 0.105 -0.383 0.102 c -0.359 -0.004 -0.48 -0.055 -0.27 -0.109 m -10.316 -0.453 c -0.27 -0.352 -0.262 -0.359 0.082 -0.086 c 0.211 0.168 0.383 0.344 0.383 0.387 c 0 0.184 -0.18 0.066 -0.465 -0.301 m 5.402 -0.234 c -0.324 -0.34 -0.586 -0.695 -0.586 -0.789 c 0 -0.094 0.25 0.129 0.555 0.496 c 0.441 0.535 0.758 0.688 1.578 0.75 l 1.023 0.082 l -0.992 0.043 c -0.832 0.031 -1.09 -0.063 -1.578 -0.582 m -10.379 0.02 c 0 -0.125 0.172 -0.367 0.379 -0.531 c 0.355 -0.281 0.359 -0.27 0.063 0.137 c -0.176 0.246 -0.348 0.484 -0.379 0.535 c -0.035 0.051 -0.063 -0.012 -0.063 -0.141 m 1.25 -0.953 c 0.27 -0.109 0.492 -0.32 0.492 -0.465 c 0 -0.145 0.063 -0.199 0.141 -0.121 c 0.211 0.215 -0.363 0.816 -0.766 0.801 c -0.242 -0.012 -0.199 -0.078 0.133 -0.215 m 1.363 -0.504 c 0 -0.566 0.648 -2.656 0.781 -2.52 c 0.047 0.047 -0.07 0.551 -0.262 1.125 c -0.195 0.57 -0.301 1.234 -0.238 1.473 c 0.059 0.238 0.023 0.434 -0.086 0.434 c -0.109 0 -0.199 -0.23 -0.199 -0.512 m 16.801 -0.043 c 0.004 -0.363 0.055 -0.484 0.109 -0.27 c 0.055 0.215 0.051 0.512 -0.008 0.664 c -0.059 0.148 -0.105 -0.027 -0.102 -0.391 m -9.805 -0.578 c -0.031 -1.074 0.625 -2.398 1.277 -2.566 c 0.223 -0.059 0.207 -0.012 -0.055 0.156 c -0.563 0.363 -0.895 1.09 -1.051 2.324 l -0.141 1.105 m -7.66 -0.965 c -0.012 -0.164 -0.262 -0.594 -0.563 -0.953 c -0.406 -0.492 -0.535 -0.891 -0.516 -1.582 l 0.031 -0.922 l 0.141 1.043 c 0.09 0.629 0.344 1.258 0.648 1.586 c 0.277 0.301 0.453 0.676 0.391 0.836 c -0.094 0.238 -0.121 0.234 -0.133 -0.008 m 17.641 -0.73 c -0.016 -0.324 -0.086 -0.773 -0.156 -0.996 c -0.117 -0.383 -0.113 -0.383 0.125 -0.012 c 0.133 0.215 0.207 0.664 0.156 0.996 l -0.09 0.602 m -7.125 -2.219 c -0.504 -0.387 -0.289 -0.434 0.293 -0.063 c 0.547 0.348 1.461 -0.246 1.879 -1.215 c 0.195 -0.457 0.305 -0.559 0.309 -0.293 c 0.008 0.469 -1.328 1.914 -1.766 1.902 c -0.16 -0.004 -0.484 -0.152 -0.715 -0.332 m 5.977 -1.25 c -0.414 -0.727 -1.078 -1.613 -1.477 -1.965 c -0.395 -0.355 -0.629 -0.645 -0.52 -0.645 c 0.469 0 3.109 3.59 2.832 3.855 c -0.043 0.043 -0.418 -0.52 -0.836 -1.246 m -14.586 0.484 c 0.129 -0.242 0.281 -0.441 0.34 -0.441 c 0.063 0 0.004 0.199 -0.121 0.441 c -0.129 0.242 -0.285 0.441 -0.344 0.441 c -0.059 0 -0.004 -0.199 0.125 -0.441 m 7.574 0.293 c 0.16 -0.066 0.348 -0.059 0.418 0.016 c 0.074 0.074 -0.055 0.125 -0.285 0.117 c -0.254 -0.012 -0.305 -0.063 -0.133 -0.133 m -10.402 -0.883 c 0 -0.316 1.453 -1.617 1.801 -1.617 c 0.148 0 -0.043 0.191 -0.418 0.422 c -0.375 0.234 -0.84 0.652 -1.031 0.934 c -0.195 0.281 -0.352 0.398 -0.352 0.262 m 3.77 -0.766 c 0.684 -0.922 2.23 -2.035 2.609 -1.879 c 0.141 0.059 0.094 0.117 -0.109 0.125 c -0.203 0.008 -0.984 0.59 -1.73 1.289 c -1.094 1.016 -1.246 1.109 -0.77 0.465 m -1.215 -1.078 c 0.27 -0.113 0.684 -0.527 0.926 -0.926 c 0.238 -0.398 0.434 -0.609 0.434 -0.469 c 0.004 0.434 -1.098 1.621 -1.484 1.605 c -0.258 -0.008 -0.219 -0.074 0.125 -0.211 m 6.148 -0.082 c 0 -0.047 0.152 -0.145 0.34 -0.219 c 0.191 -0.074 0.281 -0.039 0.203 0.086 c -0.129 0.211 -0.543 0.313 -0.543 0.133 m 4.449 -0.477 c -0.406 -0.332 -0.402 -0.336 0.066 -0.105 c 0.27 0.133 0.492 0.289 0.492 0.344 c 0 0.172 -0.113 0.121 -0.559 -0.238 m -3.16 -0.375 c 0.59 -0.68 1.117 -0.746 2.086 -0.266 c 0.359 0.18 0.457 0.27 0.219 0.199 c -1.332 -0.395 -1.66 -0.375 -2.242 0.148 l -0.59 0.527 m 4.719 -1.191 c -0.359 -0.656 -0.473 -1.227 -0.473 -2.391 c 0 -2.957 -0.891 -4.582 -3.047 -5.57 c -0.539 -0.25 -0.863 -0.453 -0.723 -0.457 c 0.574 -0.012 1.422 0.473 2.352 1.344 c 1.18 1.105 1.633 2.418 1.633 4.738 c 0 1.32 0.09 1.719 0.539 2.391 c 0.297 0.441 0.461 0.801 0.367 0.801 c -0.094 0 -0.387 -0.383 -0.648 -0.855 m -10.23 -2.375 c -0.035 -2.059 0.012 -2.336 0.57 -3.426 c 0.652 -1.277 2.313 -2.637 3.172 -2.602 c 0.383 0.016 0.363 0.051 -0.133 0.199 c -0.852 0.262 -2.23 1.43 -2.816 2.387 c -0.418 0.68 -0.523 1.234 -0.629 3.25 l -0.125 2.43 m 1.563 -3.191 c -0.68 -1.336 -0.301 -3.129 0.789 -3.75 c 0.52 -0.293 0.664 -0.285 1.484 0.09 c 0.734 0.336 0.992 0.367 1.328 0.156 c 0.227 -0.145 0.703 -0.266 1.055 -0.266 c 0.742 0 1.219 0.559 1.559 1.836 c 0.184 0.688 0.152 0.988 -0.168 1.645 c -0.219 0.445 -0.543 0.848 -0.719 0.898 c -0.25 0.07 -0.238 0.02 0.043 -0.211 c 0.898 -0.727 0.922 -2.715 0.043 -3.605 c -0.375 -0.379 -1.512 -0.461 -1.719 -0.117 c -0.199 0.32 -1.023 0.254 -1.512 -0.121 c -0.613 -0.469 -0.945 -0.402 -1.66 0.324 c -0.738 0.746 -0.863 2.023 -0.305 3.117 c 0.18 0.359 0.281 0.652 0.223 0.652 c -0.059 0 -0.258 -0.293 -0.441 -0.652 m 2.086 0.363 c -0.016 -0.25 -0.125 -0.34 -0.297 -0.242 c -0.215 0.125 -0.215 0.094 -0.004 -0.137 c 0.336 -0.367 0.566 -0.16 0.43 0.375 c -0.098 0.387 -0.105 0.387 -0.129 0.004 m -1.059 -0.805 c -0.223 -0.363 -0.211 -0.414 0.059 -0.309 c 0.176 0.07 0.324 0.266 0.324 0.434 c 0 0.41 -0.063 0.391 -0.383 -0.125 m 2.773 0.098 c 0 -0.18 0.148 -0.328 0.328 -0.328 c 0.398 0 0.426 -0.461 0.055 -0.883 c -0.23 -0.266 -0.215 -0.266 0.109 -0.02 c 0.496 0.383 0.48 0.719 -0.055 1.184 c -0.363 0.316 -0.438 0.324 -0.438 0.047 m -2.184 -0.891 c -0.152 -0.188 -0.434 -0.281 -0.625 -0.207 c -0.266 0.102 -0.285 0.074 -0.09 -0.129 c 0.199 -0.203 0.391 -0.156 0.848 0.207 c 0.324 0.258 0.488 0.473 0.367 0.473 c -0.121 0 -0.344 -0.156 -0.5 -0.344 m 1.531 0.258 c 0 -0.043 0.152 -0.207 0.332 -0.363 c 0.277 -0.23 0.309 -0.219 0.195 0.086 c -0.117 0.309 -0.527 0.527 -0.527 0.277" fill="#ababca"/><path d="m 28.355 37.16 c -0.609 -0.313 -1.23 -0.707 -1.375 -0.887 c -0.223 -0.273 -0.102 -0.32 0.813 -0.32 c 1.68 0 3.191 -0.551 3.965 -1.445 c 0.656 -0.758 0.762 -1.063 0.688 -1.977 c -0.027 -0.34 0.012 -0.371 0.168 -0.141 c 0.113 0.168 0.313 0.238 0.445 0.152 c 0.133 -0.082 0.242 -0.051 0.242 0.066 c 0 0.121 0.293 0.516 0.652 0.879 c 0.766 0.777 0.813 1.328 0.223 2.566 c -0.414 0.871 -1.387 1.676 -1.996 1.656 c -0.16 -0.004 0.008 -0.141 0.379 -0.305 c 0.863 -0.379 1.563 -1.293 1.742 -2.262 c 0.121 -0.648 0.047 -0.867 -0.469 -1.414 c -0.707 -0.75 -0.926 -0.801 -1.117 -0.262 c -0.516 1.449 -1.98 2.445 -3.902 2.645 c -0.645 0.066 -1.172 0.207 -1.172 0.309 c 0 0.301 1.301 0.891 2.375 1.074 c 0.941 0.164 0.957 0.176 0.227 0.199 c -0.438 0.016 -1.254 -0.219 -1.887 -0.535 m -3.207 -1.41 c -0.066 -0.113 -0.023 -0.27 0.098 -0.348 c 0.258 -0.16 0.656 0.047 0.656 0.344 c 0 0.27 -0.59 0.27 -0.754 0.004 m -8.543 -1.352 c -1.777 -1.18 -3.344 -3.23 -3.316 -4.344 c 0.008 -0.219 0.145 -0.02 0.305 0.441 c 0.613 1.742 1.953 3.16 3.973 4.211 c 0.945 0.492 1.457 0.457 2.141 -0.141 c 1.332 -1.16 0.66 -4.254 -1.32 -6.105 c -0.926 -0.867 -2.25 -1.426 -2.836 -1.195 c -0.262 0.102 -0.262 0.02 0.012 -0.512 c 0.426 -0.828 0.414 -0.945 -0.16 -1.613 c -0.43 -0.492 -0.402 -0.488 0.191 0.063 c 0.492 0.449 0.715 0.543 0.793 0.328 c 0.059 -0.16 0.059 0.105 0.004 0.594 c -0.105 0.855 -0.078 0.898 0.699 1.184 c 0.441 0.16 1.184 0.68 1.645 1.148 c 1.98 2.01 2.512 4.805 1.188 6.254 c -0.781 0.855 -1.68 0.77 -3.316 -0.316 m 15.465 -2.762 c -0.074 -0.188 -0.035 -0.66 0.078 -1.047 c 0.203 -0.676 0.211 -0.664 0.191 0.34 c -0.02 1.125 -0.066 1.246 -0.27 0.707 m -10.414 -0.316 c 0.074 -0.125 0.18 -0.223 0.23 -0.223 c 0.055 0 0.098 0.098 0.098 0.223 c 0 0.121 -0.105 0.219 -0.23 0.219 c -0.125 0 -0.172 -0.098 -0.098 -0.219 m 12.03 -1.48 c -0.469 -0.121 -0.66 -0.82 -0.543 -1.969 c 0.078 -0.77 0.09 -0.738 0.125 0.273 c 0.027 0.898 0.137 1.203 0.523 1.477 c 0.516 0.367 0.508 0.383 -0.105 0.219 m -20.17 -0.637 c 0.012 -0.258 0.063 -0.313 0.133 -0.137 c 0.063 0.16 0.055 0.352 -0.016 0.426 c -0.074 0.074 -0.125 -0.059 -0.117 -0.289 m 18.961 -0.203 c 0.004 -0.367 0.055 -0.488 0.109 -0.273 c 0.055 0.215 0.051 0.512 -0.008 0.664 c -0.059 0.148 -0.105 -0.027 -0.102 -0.391 m -4.219 -0.262 c 0.16 -0.066 0.348 -0.059 0.418 0.016 c 0.074 0.074 -0.055 0.125 -0.285 0.117 c -0.254 -0.012 -0.305 -0.063 -0.133 -0.133 m -1.535 -0.219 c 0.148 -0.059 0.395 -0.059 0.543 0 c 0.148 0.063 0.027 0.113 -0.27 0.113 c -0.301 0 -0.422 -0.051 -0.273 -0.113 m 2.844 -0.004 c 0.156 -0.063 0.344 -0.055 0.414 0.02 c 0.074 0.07 -0.055 0.125 -0.285 0.113 c -0.254 -0.008 -0.305 -0.063 -0.129 -0.133 m -5.074 -0.289 c -0.074 -0.125 0.012 -0.16 0.207 -0.086 c 0.375 0.148 0.445 0.305 0.133 0.305 c -0.113 0 -0.266 -0.098 -0.34 -0.219 m -10.301 -0.578 c 0.195 -0.195 0.461 -0.32 0.586 -0.277 c 0.129 0.043 -0.031 0.207 -0.352 0.359 c -0.543 0.258 -0.563 0.254 -0.234 -0.082 m 17.297 0.078 c 0.055 -0.09 0.238 -0.164 0.402 -0.164 c 0.164 0 0.348 0.074 0.402 0.164 c 0.055 0.094 -0.125 0.168 -0.402 0.168 c -0.277 0 -0.457 -0.074 -0.402 -0.168 m -7.543 -3.563 c 0 -0.043 0.172 -0.219 0.383 -0.387 c 0.344 -0.273 0.352 -0.266 0.082 0.086 c -0.285 0.367 -0.465 0.484 -0.465 0.301 m -6.961 -0.277 c 0 -0.121 0.152 -0.41 0.336 -0.645 c 0.32 -0.406 0.324 -0.398 0.078 0.121 c -0.316 0.68 -0.414 0.805 -0.414 0.523 m 8.109 -0.453 c 0.211 -0.059 0.504 -0.055 0.652 0.008 c 0.148 0.059 -0.027 0.105 -0.383 0.102 c -0.359 -0.004 -0.48 -0.055 -0.27 -0.109 m -9.633 -1.727 c 0.281 -0.305 0.559 -0.551 0.617 -0.551 c 0.063 0 -0.121 0.246 -0.402 0.551 c -0.281 0.305 -0.559 0.555 -0.617 0.555 c -0.063 0 0.121 -0.25 0.402 -0.555 m 13.27 -0.375 c -0.059 -0.57 -0.023 -0.957 0.074 -0.859 c 0.098 0.102 0.145 0.57 0.105 1.039 l -0.074 0.859 m -10.766 -0.414 c 0 -0.047 0.172 -0.223 0.383 -0.387 c 0.344 -0.277 0.352 -0.27 0.082 0.082 c -0.285 0.367 -0.465 0.484 -0.465 0.305 m 12.719 -1.297 l -0.641 -0.719 l 0.707 0.648 c 0.391 0.355 0.707 0.68 0.707 0.719 c 0 0.168 -0.18 0.02 -0.773 -0.648 m -12.828 -0.387 c 0.219 -0.246 0.445 -0.441 0.504 -0.441 c 0.059 0 -0.066 0.195 -0.285 0.441 c -0.215 0.242 -0.441 0.441 -0.504 0.441 c -0.059 0 0.07 -0.199 0.285 -0.441 m 3.703 -0.34 c -1.074 -0.668 -0.832 -0.727 0.293 -0.066 c 0.996 0.578 1.672 0.457 2.746 -0.5 c 0.418 -0.375 0.887 -0.629 1.039 -0.566 c 0.18 0.074 0.156 0.117 -0.074 0.129 c -0.191 0.008 -0.531 0.227 -0.762 0.48 c -0.508 0.57 -1.457 1.086 -1.98 1.078 c -0.215 -0.004 -0.785 -0.254 -1.262 -0.555 m 5.984 -0.324 c -0.199 -0.129 -0.223 -0.215 -0.066 -0.219 c 0.141 0 0.316 0.098 0.391 0.219 c 0.168 0.273 0.094 0.273 -0.324 0 m -8.648 -2.652 c 0 -0.547 0.043 -0.77 0.094 -0.496 c 0.055 0.273 0.055 0.723 0 0.996 c -0.051 0.27 -0.094 0.047 -0.094 -0.5 m 9.371 -0.66 c 0 -0.914 0.039 -1.285 0.086 -0.832 c 0.047 0.457 0.047 1.203 0 1.66 c -0.047 0.453 -0.086 0.082 -0.086 -0.828 m -6.273 0.887 c -0.074 -0.125 -0.039 -0.227 0.078 -0.227 c 0.117 0 0.262 -0.172 0.316 -0.387 c 0.074 -0.297 0.105 -0.273 0.125 0.098 c 0.027 0.535 -0.305 0.867 -0.52 0.516 m -1.703 -0.797 c 0.055 -0.145 0.285 -0.215 0.512 -0.152 c 0.297 0.078 0.492 -0.059 0.676 -0.473 c 0.227 -0.5 0.203 -0.621 -0.156 -0.891 c -0.332 -0.25 -0.363 -0.371 -0.152 -0.586 c 0.215 -0.219 0.355 -0.195 0.695 0.117 c 0.234 0.215 0.508 0.34 0.605 0.281 c 0.094 -0.063 0.188 0.121 0.207 0.402 c 0.02 0.355 -0.066 0.477 -0.273 0.398 c -0.27 -0.105 -0.785 0.742 -0.625 1.031 c 0.035 0.063 -0.309 0.117 -0.762 0.121 c -0.551 0.008 -0.793 -0.078 -0.727 -0.25 m 1.375 -1.859 c 0 -0.121 -0.098 -0.219 -0.219 -0.219 c -0.117 0 -0.215 0.098 -0.215 0.219 c 0 0.121 0.098 0.223 0.215 0.223 c 0.121 0 0.219 -0.102 0.219 -0.223 m 2.648 1.938 c -0.141 -0.141 -0.254 -0.375 -0.254 -0.516 c 0 -0.141 -0.219 -0.539 -0.484 -0.883 c -0.27 -0.348 -0.359 -0.547 -0.203 -0.449 c 0.176 0.109 0.387 0.027 0.559 -0.211 c 0.156 -0.215 0.395 -0.316 0.531 -0.23 c 0.371 0.234 0.305 0.793 -0.102 0.793 c -0.27 0 -0.316 0.133 -0.199 0.605 c 0.195 0.789 0.465 0.938 1.273 0.699 c 0.363 -0.105 0.57 -0.105 0.461 -0.004 c -0.371 0.344 -1.32 0.461 -1.582 0.199 m 0.18 -1.941 c 0 -0.121 -0.098 -0.219 -0.215 -0.219 c -0.121 0 -0.219 0.098 -0.219 0.219 c 0 0.121 0.098 0.223 0.219 0.223 c 0.117 0 0.215 -0.102 0.215 -0.223 m -4.77 -0.348 c 0.012 -0.258 0.063 -0.313 0.133 -0.137 c 0.063 0.16 0.055 0.352 -0.02 0.426 c -0.07 0.074 -0.121 -0.059 -0.113 -0.289 m 0.141 -1.262 c -0.141 -0.367 1.078 -1.629 1.324 -1.375 c 0.07 0.066 -0.098 0.281 -0.367 0.473 c -0.27 0.191 -0.566 0.555 -0.656 0.805 c -0.141 0.383 -0.188 0.398 -0.301 0.098 m 3.27 -2.301 c 0.27 -0.055 0.711 -0.055 0.98 0 c 0.27 0.051 0.047 0.094 -0.488 0.094 c -0.539 0 -0.762 -0.043 -0.492 -0.094" fill="#a19ea6"/><path d="m 16.809 34.06 c -2.395 -1.211 -3.801 -4.207 -2.66 -5.676 c 0.398 -0.516 0.504 -0.543 1.359 -0.348 c 1.207 0.273 1.77 0.648 3.168 2.117 c 0.891 0.938 1.207 1.461 1.402 2.32 c 0.246 1.074 0.234 1.121 -0.348 1.629 c -0.77 0.676 -1.523 0.664 -2.922 -0.043 m 5.04 -16.238 c -0.773 -0.23 -1.273 -0.738 -1.066 -1.078 c 0.238 -0.395 0.957 -0.254 1.215 0.234 c 0.359 0.68 0.629 0.25 0.688 -1.098 c 0.027 -0.645 0.133 -1.223 0.234 -1.285 c 0.293 -0.184 0.988 0.582 1.246 1.367 c 0.137 0.43 0.422 0.773 0.695 0.848 c 0.371 0.098 0.41 0.184 0.203 0.438 c -0.141 0.176 -0.539 0.375 -0.879 0.441 c -0.344 0.07 -0.855 0.176 -1.141 0.234 c -0.281 0.059 -0.82 0.012 -1.195 -0.102" fill="#e5cc04"/><path d="m 30.625 37.27 c -0.363 -0.43 -0.949 -0.41 -0.688 0.023 c 0.199 0.328 -0.367 0.234 -1.367 -0.23 c -1.145 -0.523 -1.188 -0.887 -0.109 -0.898 c 0.449 -0.004 1.199 -0.148 1.672 -0.32 c 0.469 -0.168 0.961 -0.25 1.086 -0.176 c 0.129 0.074 0.164 0.055 0.078 -0.039 c -0.086 -0.098 0.074 -0.359 0.352 -0.582 c 0.281 -0.223 0.676 -0.758 0.875 -1.188 c 0.199 -0.426 0.438 -0.777 0.531 -0.777 c 0.09 0 0.441 0.289 0.777 0.648 c 0.516 0.547 0.59 0.766 0.473 1.414 c -0.184 0.992 -0.895 1.891 -1.793 2.273 c -0.984 0.418 -1.441 0.383 -1.887 -0.148 m 2.023 -0.188 c 0 -0.109 -0.141 -0.254 -0.316 -0.32 c -0.211 -0.082 -0.273 -0.016 -0.191 0.195 c 0.133 0.352 0.508 0.441 0.508 0.125 m 1.305 -1.352 c 0 -0.121 -0.098 -0.219 -0.215 -0.219 c -0.121 0 -0.219 0.098 -0.219 0.219 c 0 0.125 0.098 0.223 0.219 0.223 c 0.117 0 0.215 -0.098 0.215 -0.223 m -16.594 -1.117 c -1.023 -0.551 -1.059 -0.73 -0.059 -0.305 c 1.035 0.438 1.695 0.398 2.371 -0.141 c 0.316 -0.25 0.574 -0.355 0.574 -0.234 c 0 0.359 -1.109 1.137 -1.609 1.125 c -0.254 -0.004 -0.828 -0.207 -1.273 -0.445 m 2.727 -2.113 c -0.203 -0.887 -0.516 -1.402 -1.414 -2.348 c -1.391 -1.461 -1.961 -1.844 -3.145 -2.113 c -0.73 -0.164 -0.973 -0.137 -1.25 0.145 c -0.191 0.195 -0.348 0.246 -0.348 0.113 c 0 -0.672 1.648 -1.23 2.734 -0.93 c 1.809 0.508 3.91 3.551 3.754 5.441 l -0.066 0.824 l -0.262 -1.133 m -5.34 0.086 c -0.781 -1.047 -1.258 -2.063 -1.238 -2.641 c 0.02 -0.543 0.086 -0.422 0.285 0.512 c 0.07 0.316 0.473 1.086 0.895 1.711 c 0.855 1.262 0.895 1.531 0.059 0.414 m 6.906 -12.871 c -1.059 -0.664 -0.652 -0.727 0.574 -0.09 c 1.016 0.523 1.715 0.367 2.598 -0.586 c 0.27 -0.293 0.578 -0.535 0.68 -0.535 c 0.246 0 -1.102 1.188 -1.715 1.516 c -0.695 0.371 -1.164 0.305 -2.137 -0.305 m 0.039 -1.75 c -0.461 -0.168 -0.891 -0.359 -0.961 -0.43 c -0.066 -0.07 -0.25 0.043 -0.402 0.254 c -0.262 0.363 -0.285 0.363 -0.426 -0.004 c -0.203 -0.535 0 -0.965 0.516 -1.102 c 0.305 -0.082 0.406 -0.027 0.328 0.172 c -0.18 0.477 0.957 1.059 2.055 1.059 c 0.688 0 0.871 0.055 0.582 0.168 c -0.586 0.234 -0.746 0.223 -1.691 -0.117 m 3.988 -0.355 c 0 -0.426 -0.031 -0.434 -0.484 -0.113 c -0.266 0.191 -0.684 0.336 -0.926 0.32 c -0.438 -0.027 -0.438 -0.027 -0.008 -0.133 c 0.645 -0.16 0.973 -0.496 0.836 -0.852 c -0.16 -0.422 0.66 -0.422 1 0 c 0.191 0.238 0.199 0.438 0.02 0.773 c -0.305 0.578 -0.441 0.578 -0.441 0.004" fill="#af9513"/><path d="m 32.438 32 c -0.145 -0.355 -0.219 -0.828 -0.16 -1.051 c 0.074 -0.297 0.109 -0.258 0.129 0.148 c 0.047 0.875 0.355 1.246 0.758 0.906 c 0.309 -0.262 0.926 -1.77 0.758 -1.859 c -0.043 -0.023 -0.301 -0.168 -0.57 -0.324 c -0.445 -0.25 -0.516 -0.227 -0.684 0.223 c -0.133 0.367 -0.176 0.16 -0.156 -0.758 c 0.035 -1.711 -0.211 -1.914 -1.535 -1.262 c -1.098 0.539 -2.449 0.648 -4.855 0.391 c -1.609 -0.172 -1.863 -0.313 -2.293 -1.23 c -0.973 -2.082 0.848 -4.422 2.559 -3.285 c 0.461 0.305 0.563 0.301 1.121 -0.074 c 1.461 -0.973 1.895 -2.809 0.906 -3.816 c -0.297 -0.297 -0.957 -0.676 -1.473 -0.84 c -1.188 -0.379 -1.422 -0.586 -1.066 -0.941 c 0.219 -0.219 0.262 -0.215 0.207 0.02 c -0.043 0.176 0.375 0.465 1.066 0.73 c 1.348 0.52 2.02 1.293 2.02 2.332 c 0 1 -0.488 1.906 -1.422 2.629 c -0.766 0.59 -0.773 0.594 -1.492 0.199 c -0.996 -0.543 -1.73 -0.316 -2.195 0.684 c -0.43 0.914 -0.316 2 0.281 2.75 c 0.695 0.871 4.992 1.039 6.582 0.262 c 1.199 -0.59 1.418 -0.605 1.727 -0.105 c 0.191 0.313 0.223 0.211 0.152 -0.496 c -0.051 -0.484 0 -1.125 0.109 -1.422 c 0.441 -1.219 -1.492 -4.707 -3.059 -5.52 c -1.168 -0.605 -1.773 -2.063 -1.773 -4.266 c 0 -1.789 -0.566 -3.293 -1.453 -3.871 l -0.477 -0.309 l 0.422 0.836 c 0.23 0.461 0.418 1.152 0.418 1.539 c 0 0.785 -0.75 2.672 -0.941 2.359 c -0.066 -0.109 0.07 -0.492 0.301 -0.848 c 0.5 -0.773 0.539 -1.605 0.117 -2.629 c -0.547 -1.324 -1.324 -1.605 -2.664 -0.957 c -0.359 0.172 -0.594 0.141 -0.977 -0.133 c -0.277 -0.195 -0.727 -0.355 -0.996 -0.355 c -0.273 0 -0.496 -0.09 -0.496 -0.195 c 0 -0.41 1.336 -0.738 2.664 -0.652 c 1.09 0.07 1.563 0.227 2.375 0.793 c 1.426 0.996 1.926 2.137 1.926 4.387 c 0 2.047 0.582 3.539 1.563 4.01 c 1.277 0.617 3.316 3.797 3.262 5.09 c -0.059 1.539 -0.012 3.945 0.086 4.27 c 0.059 0.203 0.313 0.418 0.563 0.484 c 0.379 0.102 0.43 0.23 0.305 0.742 c -0.184 0.734 -0.953 2.059 -1.199 2.059 c -0.098 0 -0.293 -0.293 -0.438 -0.645 m -7.363 -20.582 c 1 -0.031 -0.301 -0.395 -1.477 -0.41 c -1.355 -0.02 -1.578 0.164 -0.797 0.652 c 0.52 0.328 0.672 0.336 1.184 0.074 c 0.324 -0.164 0.816 -0.309 1.09 -0.316 m -9.512 13.711 c -1.355 -1.434 -0.609 -3.547 1.504 -4.262 c 0.551 -0.184 1.07 -0.566 1.355 -0.992 c 0.52 -0.781 0.832 -2.715 0.621 -3.859 c -0.164 -0.871 0.164 -2.297 0.668 -2.934 c 0.328 -0.41 0.34 -0.391 0.23 0.418 c -0.066 0.496 0.027 1.273 0.227 1.867 c 0.328 0.98 0.324 1.031 -0.117 1.391 c -0.25 0.207 -0.598 0.93 -0.773 1.609 c -0.426 1.664 -0.875 2.215 -2.359 2.867 c -1.012 0.445 -1.32 0.707 -1.582 1.344 c -0.441 1.074 -0.07 2.555 0.645 2.555 c 0.141 0 0.52 -0.59 0.848 -1.309 c 0.742 -1.652 2.055 -3.348 3.082 -3.992 c 0.504 -0.316 0.75 -0.613 0.676 -0.813 c -0.066 -0.176 -0.023 -0.258 0.094 -0.184 c 0.387 0.242 0.23 0.691 -0.352 1 c -1.344 0.73 -2.859 2.852 -3.914 5.469 l -0.203 0.508 l -0.652 -0.688 m 4.449 -9.02 c -0.008 -0.199 -0.137 -0.707 -0.289 -1.129 c -0.223 -0.625 -0.293 -0.688 -0.383 -0.332 c -0.203 0.797 0.051 2.07 0.383 1.941 c 0.168 -0.066 0.297 -0.281 0.289 -0.48 m 1.324 -1.578 c 0 -0.121 0.098 -0.223 0.215 -0.223 c 0.121 0 0.219 0.102 0.219 0.223 c 0 0.121 -0.098 0.219 -0.219 0.219 c -0.117 0 -0.215 -0.098 -0.215 -0.219 m 2.828 0 c 0 -0.121 0.098 -0.223 0.219 -0.223 c 0.117 0 0.215 0.102 0.215 0.223 c 0 0.121 -0.098 0.219 -0.215 0.219 c -0.121 0 -0.219 -0.098 -0.219 -0.219" fill="#4e4e95"/><path d="m 29.969 37.36 c -0.074 -0.078 -0.09 -0.223 -0.027 -0.324 c 0.133 -0.223 0.746 -0.004 0.746 0.266 c 0 0.23 -0.512 0.27 -0.719 0.059 m 2.168 -0.402 c -0.078 -0.211 -0.016 -0.277 0.195 -0.195 c 0.172 0.066 0.316 0.211 0.316 0.32 c 0 0.316 -0.379 0.227 -0.512 -0.125 m 1.383 -1.227 c 0 -0.121 0.098 -0.219 0.215 -0.219 c 0.121 0 0.219 0.098 0.219 0.219 c 0 0.125 -0.098 0.223 -0.219 0.223 c -0.117 0 -0.215 -0.098 -0.215 -0.223 m -11.609 -16.23 c -1.324 -0.645 -2.328 -1.609 -2.297 -2.203 c 0.027 -0.441 0.031 -0.441 0.133 -0.012 c 0.156 0.664 0.461 0.902 0.621 0.48 c 0.109 -0.293 0.223 -0.316 0.582 -0.121 c 0.992 0.539 1.734 0.617 2.934 0.297 c 0.66 -0.172 1.328 -0.422 1.484 -0.555 c 0.215 -0.184 0.301 -0.121 0.359 0.27 l 0.074 0.512 l 0.281 -0.512 c 0.234 -0.418 0.234 -0.578 -0.004 -0.883 c -0.258 -0.336 -0.246 -0.344 0.094 -0.07 c 0.211 0.168 0.383 0.43 0.383 0.582 c 0 0.488 -2.875 2.797 -3.414 2.742 c -0.098 -0.008 -0.652 -0.246 -1.23 -0.531 m 0.23 -0.93 c 0.043 -0.129 -0.172 -0.281 -0.473 -0.34 c -0.605 -0.117 -0.703 0.035 -0.293 0.453 c 0.297 0.297 0.648 0.246 0.766 -0.113 m 2.781 -0.066 c 0.383 -0.43 0.379 -0.441 -0.129 -0.422 c -0.289 0.012 -0.77 0.098 -1.07 0.191 l -0.543 0.168 l 0.543 0.238 c 0.746 0.324 0.754 0.324 1.199 -0.176" fill="#a35a0d"/><path d="m 32.563 31.852 c -0.188 -0.5 -0.164 -1.086 0.074 -1.719 c 0.188 -0.5 0.262 -0.527 0.77 -0.293 c 0.453 0.211 0.535 0.367 0.434 0.813 c -0.16 0.676 -0.699 1.547 -0.953 1.547 c -0.105 0 -0.25 -0.156 -0.324 -0.348 m -5.789 -3.633 c -0.418 -0.117 -0.984 -0.16 -1.258 -0.098 c -1.203 0.273 -2.141 -1.844 -1.457 -3.305 c 0.469 -1 1.199 -1.227 2.195 -0.684 c 0.719 0.395 0.727 0.395 1.492 -0.199 c 1.406 -1.086 1.848 -2.836 0.992 -3.938 c -0.402 -0.52 -0.738 -0.707 -2.262 -1.27 c -0.602 -0.227 -0.609 -0.246 -0.266 -0.781 c 0.211 -0.328 0.301 -0.758 0.223 -1.078 c -0.074 -0.301 0.016 -0.816 0.215 -1.203 c 0.461 -0.906 0.434 -1.973 -0.078 -2.988 l -0.422 -0.836 l 0.477 0.309 c 0.891 0.578 1.453 2.082 1.453 3.871 c 0 2.203 0.605 3.66 1.777 4.266 c 1.563 0.813 3.496 4.301 3.055 5.52 c -0.109 0.297 -0.156 0.938 -0.109 1.422 c 0.07 0.707 0.039 0.809 -0.152 0.5 c -0.305 -0.5 -0.527 -0.488 -1.676 0.074 c -1.07 0.527 -3.07 0.723 -4.199 0.414 m -11.262 -3.359 c -0.426 -0.551 -0.496 -1.488 -0.172 -2.277 c 0.262 -0.641 0.566 -0.895 1.586 -1.344 c 1.418 -0.621 2.094 -1.441 2.336 -2.84 l 0.152 -0.883 l 0.633 0.719 c 0.348 0.398 0.633 0.813 0.633 0.922 c 0 0.109 -0.352 0.418 -0.777 0.688 c -1.016 0.637 -2.332 2.34 -3.074 3.98 c -0.59 1.309 -0.91 1.559 -1.313 1.035 m 5.863 -6.172 c -0.41 -0.418 -0.313 -0.57 0.289 -0.453 c 0.305 0.059 0.52 0.211 0.477 0.34 c -0.117 0.359 -0.473 0.41 -0.766 0.113 m 2.348 -0.004 l -0.543 -0.238 l 0.543 -0.168 c 0.297 -0.094 0.777 -0.18 1.066 -0.191 c 0.512 -0.02 0.516 -0.008 0.129 0.422 c -0.445 0.5 -0.453 0.5 -1.195 0.176 m -4.402 -2.789 c -0.055 -0.445 -0.047 -1.01 0.016 -1.246 c 0.09 -0.355 0.156 -0.297 0.383 0.332 c 0.363 1.027 0.363 1.469 0 1.609 c -0.219 0.086 -0.332 -0.113 -0.398 -0.695 m 3.477 -4.23 c -0.781 -0.492 -0.559 -0.672 0.797 -0.652 c 1.176 0.016 2.48 0.379 1.477 0.41 c -0.273 0.008 -0.766 0.148 -1.086 0.316 c -0.512 0.262 -0.668 0.254 -1.188 -0.074" fill="#080862"/><use xlink:href="#3" mask="url(#1)"/><use xlink:href="#6" mask="url(#4)"/><g fill="#080862" fill-rule="evenodd" stroke="#080862"><path d="m 133.65 78.83 c 0.021 0.708 -0.375 1.375 -1 1.729 c -0.646 0.354 -1.438 0.354 -2.083 0 c -0.625 -0.354 -1.021 -1.021 -1 -1.729 c -0.021 -0.708 0.375 -1.354 1 -1.708 c 0.646 -0.354 1.438 -0.354 2.083 0 c 0.625 0.354 1.021 1 1 1.708" transform="matrix(0.1875 0 0 0.1875 -0.364 -0.182)"/><path d="m 133.66 78.83 c 0 0.708 -0.375 1.375 -1.021 1.729 c -0.625 0.354 -1.417 0.354 -2.063 0 c -0.646 -0.354 -1.021 -1.021 -1 -1.729 c -0.021 -0.708 0.354 -1.354 1 -1.708 c 0.646 -0.354 1.438 -0.354 2.063 0 c 0.646 0.354 1.021 1 1.021 1.708" transform="matrix(0.1875 0 0 0.1875 -3.096 -0.182)"/></g></svg>