<svg xmlns="http://www.w3.org/2000/svg" viewBox="0 0 48 48"><path d="m 39.438 5.781 c -17.957 -11.676 -34.31 -2.254 -38.19 10.965 c -5.223 17.777 8.496 41.922 36.77 26.02 c 11.234 -6.324 14.207 -28.66 1.422 -36.977" fill="#00bfff"/><path d="m 26.836 10.08 l -5.266 1.391 v 2.086 h -2.633 c -4.211 0 -4.211 3.48 -4.211 3.48 v 3.48 h 6.844 c 0 -1.152 0.445 -2.086 1.316 -2.086 c 0.871 0 1.316 0.934 1.316 2.086 h 0.055 l -9.434 8.352 h -0.098 v 5.57 h 6.844 v 3.477 l 5.266 -1.391 v -2.086 h 6.844 v -5.57 h -9.414 l 7.328 -6.676 c 1.031 -0.98 2.086 -1.676 2.086 -4.461 c 0 0 0 -4.176 -5.789 -4.176 h -1.055" fill="#2096fb"/><path d="m 26.836 10.08 l -5.266 1.391 v 0.695 l 5.266 -1.391 m -7.898 2.781 c -4.211 0 -4.211 3.48 -4.211 3.48 v 0.695 c 0 0 0 -3.477 4.211 -3.477 h 2.633 v -0.699 m 5.266 0 v 0.699 h 1.055 c 4.965 0 5.664 3.051 5.766 3.93 c 0.008 -0.152 0.023 -0.285 0.023 -0.453 c 0 0 0 -4.176 -5.789 -4.176 m -3.738 7.05 l -9.332 8.262 h -0.094 v 0.695 h 0.094 l 9.434 -8.352 h -0.051 c 0 -0.211 -0.02 -0.41 -0.051 -0.605 m 0.875 8.262 l -0.762 0.695 h 9.414 v -0.695" fill="#fff" fill-opacity="0.2"/><path d="m 33.656 17.488 c -0.113 2.395 -1.09 3.09 -2.063 4.01 l -7.328 6.676 h 0.762 l 6.566 -5.98 c 1.031 -0.98 2.086 -1.676 2.086 -4.461 c 0 0 -0.004 -0.098 -0.023 -0.246 m -10.77 0.246 c -0.871 0 -1.316 0.938 -1.316 2.09 h -6.844 v 0.695 h 6.844 c 0 -1.152 0.445 -2.086 1.316 -2.086 c 0.711 0 1.133 0.625 1.266 1.48 l 0.102 -0.09 h -0.051 c 0 -1.152 -0.445 -2.09 -1.316 -2.09 m -8.16 16.01 v 0.699 h 6.844 v -0.699 m 5.266 0 v 0.699 h 6.844 v -0.699 m -6.844 2.09 l -5.266 1.391 v 0.695 l 5.266 -1.391" fill-opacity="0.302"/></svg>