<svg xmlns="http://www.w3.org/2000/svg" viewBox="0 0 48 48"><path d="m 24.08 47.82 c 31.664 3.602 31.23 -47.984 -0.563 -47.37 c -29.563 -1.699 -32.23 50.18 0.563 47.38" fill="#dfffff"/><path d="m 85.27 72.21 h 78.65 c 7.229 0 13.1 5.813 13.1 12.958 v 103.67 c 0 7.167 -5.875 12.958 -13.1 12.958 h -78.65 c -7.25 0 -13.1 -5.792 -13.1 -12.958 v -103.67 c 0 -7.146 5.854 -12.958 13.1 -12.958" transform="matrix(0.1875 0 0 0.1875 0.828 0)" fill="#fff" stroke="#fff" stroke-width="2.542"/><path d="m 12.219 38.762 c -0.059 -0.168 -0.082 -6.297 -0.051 -13.621 l 0.059 -13.313 l 5.199 -0.063 l 5.199 -0.066 l -0.438 0.793 c -0.484 0.879 -0.559 1.984 -0.203 3.01 l 0.238 0.684 l 0.305 -0.637 c 0.633 -1.328 1.477 -1.055 1.695 0.547 c 0.105 0.797 0.027 0.973 -0.875 1.934 c -1.074 1.145 -1.629 2.336 -2.582 5.527 c -0.34 1.125 -0.891 2.531 -1.234 3.125 c -0.352 0.613 -0.578 1.297 -0.523 1.586 c 0.051 0.277 0.156 1.348 0.23 2.379 l 0.141 1.875 h 6.316 c 6 0 6.32 -0.023 6.445 -0.457 c 0.242 -0.844 0.168 -8.598 -0.098 -10.191 c -0.387 -2.328 -1.164 -3.941 -2.52 -5.238 c -0.699 -0.668 -1.125 -1.25 -1.055 -1.449 c 0.082 -0.242 -0.09 -0.332 -0.645 -0.332 c -1.141 0 -3.074 -0.453 -3.379 -0.793 c -0.188 -0.207 -0.211 -0.57 -0.086 -1.188 c 0.219 -1.059 -0.016 -1.41 -0.941 -1.41 h -0.656 l 0.629 -0.727 c 0.809 -0.93 2.234 -1.691 3.164 -1.691 c 0.398 0 1.063 0.23 1.473 0.508 c 0.684 0.469 0.938 0.496 3.094 0.34 c 2.18 -0.156 2.391 -0.133 2.895 0.332 c 0.516 0.473 0.52 0.5 0.09 0.504 c -0.25 0.008 -0.988 0.199 -1.645 0.434 l -1.188 0.422 l 2.625 0.121 l 2.629 0.121 v 27.11 l -12.1 0.063 c -9.566 0.051 -12.12 0 -12.211 -0.242 m 13.348 -1.055 c 0.586 -0.246 0.418 -1.035 -0.254 -1.199 c -0.949 -0.23 -1.078 -0.309 -0.559 -0.328 c 0.422 -0.016 1.16 -0.816 1.16 -1.254 c 0 -0.262 -0.988 -0.395 -1.461 -0.199 c -0.375 0.152 -0.43 0.375 -0.391 1.594 c 0.023 0.777 0.059 1.441 0.07 1.473 c 0.059 0.121 1.098 0.059 1.434 -0.086 m -1.01 -0.629 c 0.203 -0.223 0.32 -0.223 0.523 0 c 0.203 0.227 0.145 0.293 -0.262 0.293 c -0.41 0 -0.469 -0.066 -0.262 -0.293 m 0.043 -1.766 c 0 -0.199 0.098 -0.363 0.219 -0.363 c 0.121 0 0.219 0.164 0.219 0.363 c 0 0.199 -0.098 0.363 -0.219 0.363 c -0.121 0 -0.219 -0.164 -0.219 -0.363 m -7 1.121 c 0 -0.309 0.203 -0.5 0.625 -0.594 c 0.684 -0.152 0.977 -0.813 0.648 -1.461 c -0.137 -0.266 -0.492 -0.398 -1.066 -0.398 h -0.867 v 1.453 c 0 1.129 0.074 1.453 0.328 1.453 c 0.184 0 0.328 -0.203 0.328 -0.453 m 0.004 -1.484 c 0 -0.363 0.113 -0.496 0.383 -0.438 c 0.211 0.043 0.383 0.242 0.383 0.438 c 0 0.195 -0.176 0.395 -0.383 0.438 c -0.27 0.059 -0.383 -0.074 -0.383 -0.438 m 3.5 1.695 c 0 -0.133 -0.246 -0.242 -0.547 -0.242 c -0.301 0 -0.547 -0.109 -0.547 -0.242 c 0 -0.133 0.246 -0.242 0.547 -0.242 c 0.656 0 0.773 -0.824 0.164 -1.168 c -0.973 -0.555 -1.891 0.98 -1.105 1.848 c 0.316 0.348 1.488 0.387 1.488 0.047 m -0.98 -1.457 c 0.074 -0.133 0.227 -0.184 0.34 -0.105 c 0.305 0.207 0.246 0.352 -0.137 0.352 c -0.188 0 -0.281 -0.109 -0.203 -0.246 m 2.074 0.852 c 0 -0.59 0.102 -0.848 0.328 -0.848 c 0.23 0 0.332 0.258 0.332 0.848 c 0 0.605 0.094 0.848 0.34 0.848 c 0.266 0 0.324 -0.227 0.273 -1.027 c -0.066 -1.023 -0.07 -1.031 -1 -1.105 l -0.93 -0.074 v 1.105 c 0 0.816 0.086 1.102 0.328 1.102 c 0.23 0 0.328 -0.254 0.328 -0.848 m 5.914 -0.281 c 0 -0.77 -0.09 -1.051 -0.328 -1.051 c -0.23 0 -0.328 0.258 -0.328 0.848 c 0 0.465 -0.102 0.848 -0.219 0.848 c -0.121 0 -0.223 -0.383 -0.223 -0.848 c 0 -0.59 -0.098 -0.848 -0.328 -0.848 c -0.234 0 -0.328 0.266 -0.328 0.93 c 0 1.141 0.086 1.242 1.016 1.203 c 0.719 -0.031 0.738 -0.059 0.738 -1.082 m 1.313 0.039 c 0 -0.805 -0.086 -1.09 -0.328 -1.09 c -0.242 0 -0.328 0.285 -0.328 1.09 c 0 0.809 0.086 1.09 0.328 1.09 c 0.242 0 0.328 -0.281 0.328 -1.09 m 1.094 0.242 c 0 -0.59 0.102 -0.848 0.328 -0.848 c 0.23 0 0.332 0.258 0.332 0.848 c 0 0.605 0.094 0.848 0.34 0.848 c 0.266 0 0.324 -0.227 0.273 -1.027 c -0.066 -1.023 -0.07 -1.031 -1 -1.105 l -0.93 -0.074 v 1.105 c 0 0.816 0.086 1.102 0.328 1.102 c 0.23 0 0.328 -0.254 0.328 -0.848 m -1.145 -2.102 c -0.133 -0.449 -0.605 -0.523 -0.605 -0.098 c 0 0.211 0.156 0.383 0.348 0.383 c 0.191 0 0.309 -0.129 0.258 -0.285" fill="#89c8d6"/><path d="m 12.379 38.754 c -0.176 -0.195 -0.262 -1.277 -0.262 -3.27 v -2.977 h 2.121 l 0.27 -2.465 c 0.379 -3.43 1.996 -8.547 3.742 -11.816 c 0.566 -1.066 3.066 -4.113 3.371 -4.113 c 0.07 0 0.129 0.223 0.129 0.5 c 0 0.273 0.109 0.723 0.242 1 c 0.238 0.488 0.254 0.488 0.73 -0.18 c 0.625 -0.859 1.145 -0.672 1.34 0.484 c 0.133 0.793 0.063 0.969 -0.875 2.078 c -1.117 1.32 -1.242 1.59 -2.398 5.262 c -0.43 1.371 -1.043 2.871 -1.363 3.336 c -0.574 0.832 -0.578 0.859 -0.387 3.316 l 0.195 2.477 l 8.699 0.063 l 8.703 0.063 v 2.977 c 0 1.988 -0.086 3.07 -0.262 3.266 c -0.379 0.418 -23.617 0.418 -23.996 0 m 13.422 -1.645 c 0 -0.473 -0.141 -0.637 -0.656 -0.758 c -0.516 -0.121 -0.551 -0.16 -0.16 -0.184 c 0.453 -0.027 0.926 -0.793 0.926 -1.496 c 0 -0.34 -1.441 -0.273 -1.703 0.074 c -0.219 0.297 -0.301 2.531 -0.105 2.918 c 0.055 0.109 0.457 0.164 0.898 0.121 c 0.691 -0.063 0.801 -0.156 0.801 -0.676 m -1.027 0.074 c 0.16 -0.07 0.348 -0.063 0.422 0.02 c 0.074 0.078 -0.059 0.137 -0.289 0.125 c -0.254 -0.012 -0.305 -0.066 -0.133 -0.145 m -0.176 -1.773 c 0 -0.133 0.098 -0.238 0.219 -0.238 c 0.121 0 0.219 0.105 0.219 0.238 c 0 0.137 -0.098 0.242 -0.219 0.242 c -0.121 0 -0.219 -0.105 -0.219 -0.242 m -3.504 1.184 c 0 -0.117 -0.246 -0.215 -0.547 -0.215 c -0.301 0 -0.547 -0.109 -0.547 -0.242 c 0 -0.133 0.242 -0.242 0.535 -0.242 c 0.703 0 0.836 -0.285 0.43 -0.926 c -0.648 -1.023 -1.621 -0.504 -1.621 0.863 c 0 0.609 0.117 0.855 0.484 1 c 0.543 0.223 1.266 0.086 1.266 -0.242 m -0.918 -1.348 c 0.16 -0.07 0.348 -0.063 0.422 0.02 c 0.074 0.082 -0.059 0.137 -0.289 0.129 c -0.254 -0.012 -0.305 -0.07 -0.133 -0.148 m 7.75 1.563 c 0.375 0.109 0.414 0 0.352 -1.059 c -0.051 -0.895 -0.16 -1.199 -0.453 -1.262 c -0.313 -0.066 -0.383 0.098 -0.383 0.906 c 0 0.543 -0.098 0.984 -0.219 0.984 c -0.117 0 -0.219 -0.434 -0.219 -0.969 c 0 -0.699 -0.09 -0.965 -0.328 -0.965 c -0.246 0 -0.328 0.293 -0.328 1.188 c 0 1.211 0.258 1.582 0.852 1.23 c 0.168 -0.098 0.496 -0.125 0.727 -0.059 m -10.336 -0.426 c 0 -0.355 0.145 -0.484 0.551 -0.484 c 0.383 0 0.633 -0.191 0.816 -0.633 c 0.23 -0.559 0.199 -0.688 -0.25 -1.09 c -0.281 -0.25 -0.793 -0.453 -1.141 -0.453 h -0.633 v 1.574 c 0 1.234 0.07 1.57 0.328 1.57 c 0.184 0 0.328 -0.215 0.328 -0.484 m 0 -1.449 c 0 -0.469 0.43 -0.656 0.727 -0.328 c 0.168 0.184 -0.246 0.809 -0.535 0.809 c -0.105 0 -0.191 -0.215 -0.191 -0.48 m 4.641 1.168 c 0.098 -1.109 0.613 -1.195 0.613 -0.102 c 0 0.625 0.098 0.867 0.34 0.867 c 0.27 0 0.328 -0.238 0.273 -1.148 l -0.066 -1.148 l -1.859 -0.094 v 1.195 c 0 0.879 0.082 1.195 0.313 1.195 c 0.195 0 0.344 -0.297 0.383 -0.766 m 7.184 -0.445 c 0 -0.914 -0.078 -1.207 -0.328 -1.207 c -0.246 0 -0.328 0.293 -0.328 1.207 c 0 0.914 0.082 1.211 0.328 1.211 c 0.25 0 0.328 -0.297 0.328 -1.211 m 1.137 0.445 c 0.102 -1.109 0.617 -1.195 0.617 -0.102 c 0 0.625 0.098 0.867 0.34 0.867 c 0.27 0 0.328 -0.238 0.273 -1.148 l -0.066 -1.148 l -1.859 -0.094 v 1.195 c 0 0.879 0.082 1.195 0.313 1.195 c 0.195 0 0.344 -0.297 0.383 -0.766 m -1.137 -2.258 c 0 -0.199 -0.141 -0.363 -0.313 -0.363 c -0.367 0 -0.613 0.344 -0.41 0.57 c 0.262 0.289 0.723 0.156 0.723 -0.207" fill="#252e2f"/><path d="m 14.621 37.773 c -0.277 -2.176 -0.152 -7.906 0.215 -9.809 c 0.445 -2.285 1.68 -5.934 2.891 -8.547 c 1.01 -2.168 3.719 -5.66 3.898 -5.02 c 0.051 0.18 0.148 0.621 0.223 0.988 c 0.16 0.805 0.598 0.867 0.891 0.121 c 0.121 -0.301 0.41 -0.543 0.645 -0.543 c 0.324 0 0.473 0.234 0.609 0.953 c 0.168 0.906 0.133 1.01 -0.789 2.059 c -1.168 1.336 -1.273 1.559 -2.363 4.949 c -0.477 1.477 -1.121 3.121 -1.438 3.652 l -0.57 0.965 l 0.266 3.391 c 0.266 3.383 0.207 5.484 -0.211 7.207 l -0.219 0.906 h -3.883 m 2.961 -2.664 c -0.09 -0.375 -0.004 -0.484 0.371 -0.484 c 0.617 0 1.01 -0.434 1.01 -1.129 c 0 -0.645 -0.582 -1.047 -1.52 -1.047 h -0.672 v 1.574 c 0 1.438 0.039 1.57 0.465 1.57 c 0.355 0 0.438 -0.113 0.348 -0.484 m -0.023 -1.594 c -0.078 -0.234 -0.031 -0.344 0.129 -0.285 c 0.328 0.121 0.508 0.668 0.219 0.668 c -0.117 0 -0.273 -0.172 -0.348 -0.383" fill="#001e34"/><path d="m 137.23 76.83 c -1.979 -0.458 -5.104 -1.25 -6.958 -1.75 l -3.396 -0.896 l 0.604 -6.292 c 0.729 -7.208 0.271 -7.854 -5.375 -7.875 l -3.542 -0.021 l 3.083 -2.604 c 4.958 -4.167 11.958 -8.125 15.375 -8.667 c 2.313 -0.375 4.521 0.104 8.25 1.813 c 4.688 2.146 6.06 2.333 16.958 2.333 c 16.17 0 21.19 2 10.917 4.333 c -7.104 1.625 -13.06 5.313 -17.458 10.833 c -8.5 10.667 -9.125 10.958 -18.458 8.792" transform="matrix(0.1875 0 0 0.1875 0.828 0)" fill="#0b899c" stroke="#0b899c" stroke-width="2.266"/><path d="m 141.9 58.51 c 0 0.869 -0.435 1.569 -0.975 1.569 c -0.527 0 -0.962 -0.7 -0.962 -1.569 c 0 -0.845 0.435 -1.545 0.962 -1.545 c 0.54 0 0.975 0.7 0.975 1.545" transform="matrix(0.29635 0 0 0.16178 -14.697 1.292)" fill="#252e2f" stroke="#252e2f" stroke-width="2.542"/><path d="m 100.79 171.75 c -1.75 -0.25 -1.625 0.271 -2.938 -14.896 l -0.708 -8.563 l 3.271 -7.354 c 1.813 -4.04 5.04 -12.646 7.188 -19.12 c 4.438 -13.313 7.438 -19.75 11.458 -24.438 c 6.04 -7.06 6.146 -7.271 5.813 -11.479 c -0.375 -4.729 -1.917 -7.604 -4.208 -7.875 c -1.917 -0.208 -4 1.458 -5.104 4.104 c -0.938 2.292 -1.833 1.875 -2.792 -1.292 c -1.292 -4.25 -0.646 -10.271 1.563 -14.688 c 1.021 -2.042 1.854 -4.104 1.854 -4.583 c 0 -0.688 0.771 -0.813 3.896 -0.604 c 5.271 0.333 5.667 0.938 5.167 7.562 c -0.313 4.271 -0.229 5.208 0.604 6.04 c 1.438 1.417 8.146 3.333 13.271 3.771 c 3.708 0.313 4.146 0.458 2.688 0.854 c -6.542 1.729 -16.771 11.417 -18.625 17.604 c -1.271 4.208 0.292 5.271 17.438 12 c 5.521 2.167 10.604 4.167 11.313 4.479 c 0.792 0.313 1.542 1.396 1.917 2.771 c 1.958 7 5 22.625 7.354 37.792 c 1.479 9.5 2.854 17.521 3.02 17.813 c 0.313 0.521 -60.15 0.625 -63.42 0.125" transform="matrix(0.1875 0 0 0.1875 0.828 0)" fill="#bae8f5" stroke="#bae8f5" stroke-width="1.497"/></svg>