<svg xmlns="http://www.w3.org/2000/svg" xmlns:xlink="http://www.w3.org/1999/xlink" viewBox="0 0 48 48"><defs><g id="5" clip-path="url(#4)"><path d="m 35.531 19.07 l 0.008 11 l -10.258 5.5 l -10.262 -5.496 l -0.004 -11 l 10.258 -5.5"/><path d="m 24.504 17.238 v 14.668 h 1.539 v -14.668"/><path d="m 27.836 28.699 c 0 0.758 -1.145 1.375 -2.563 1.375 c -1.422 0 -2.566 -0.617 -2.566 -1.375 c 0 -0.762 1.145 -1.375 2.566 -1.375 c 1.418 0 2.563 0.613 2.563 1.375"/><path d="m 20.398 30.992 v -12.836 h -1.539 v 12.836"/><path d="m 22.2 22.281 c 0 0.758 -1.148 1.375 -2.566 1.375 c -1.418 0 -2.566 -0.617 -2.566 -1.375 c 0 -0.762 1.148 -1.375 2.566 -1.375 c 1.418 0 2.566 0.613 2.566 1.375"/><path d="m 31.684 30.992 v -12.836 h -1.539 v 12.836"/><path d="m 33.48 22.281 c 0 0.758 -1.145 1.375 -2.566 1.375 c -1.418 0 -2.563 -0.617 -2.563 -1.375 c 0 -0.762 1.145 -1.375 2.563 -1.375 c 1.422 0 2.566 0.613 2.566 1.375"/></g><clipPath id="8"><path d="m 21 26 h 6 v 4 h -6"/></clipPath><clipPath id="C"><path d="m 27 19 h 6 v 4 h -6"/></clipPath><clipPath id="9"><path d="m 17 17 h 3 v 14 h -3"/></clipPath><clipPath id="B"><path d="m 29 17 h 2 v 14 h -2"/></clipPath><clipPath id="A"><path d="m 16 19 h 6 v 4 h -6"/></clipPath><clipPath id="7"><path d="m 23 16 h 3 v 15 h -3"/></clipPath><clipPath id="0"><path d="m 0 2 h 48 v 43 h -48"/></clipPath><clipPath id="6"><path d="m 13 12 h 22 v 23 h -22"/></clipPath><clipPath id="1"><path d="m 47.848 23.656 c 0 11.648 -10.574 21.09 -23.602 21.09 c -13.03 0 -23.602 -9.438 -23.602 -21.09 c 0 -11.652 10.574 -21.09 23.602 -21.09 c 13.03 0 23.602 9.434 23.602 21.09"/></clipPath><clipPath id="4"><path d="M 0,0 H48 V48 H0 z"/></clipPath><filter id="2" filterUnits="objectBoundingBox" x="0" y="0" width="48" height="48"><feColorMatrix type="matrix" in="SourceGraphic" values="0 0 0 0 1 0 0 0 0 1 0 0 0 0 1 0 0 0 1 0"/></filter><mask id="3"><g filter="url(#2)"><path fill-opacity="0.102" d="M 0,0 H48 V48 H0 z"/></g></mask></defs><path d="m 9.895 43.32 c 36.09 23.992 58.31 -52.52 11.664 -42.39 c -19.281 4.316 -30.98 31.387 -11.664 42.39" fill="#ffd6b9"/><g clip-path="url(#0)"><g clip-path="url(#1)"><use xlink:href="#5" mask="url(#3)"/></g></g><g clip-path="url(#6)"><g clip-path="url(#1)"><path d="m 34.508 18.16 l 0.004 11 l -10.258 5.5 l -10.262 -5.496 l -0.004 -11 l 10.258 -5.504" fill="#7f0000"/></g></g><g clip-path="url(#7)"><g clip-path="url(#1)"><path d="m 23.477 16.32 v 14.672 h 1.539 v -14.672" fill="#ffd6b9"/></g></g><g clip-path="url(#8)"><g clip-path="url(#1)"><path d="m 26.813 27.781 c 0 0.758 -1.148 1.375 -2.566 1.375 c -1.418 0 -2.566 -0.617 -2.566 -1.375 c 0 -0.758 1.148 -1.375 2.566 -1.375 c 1.418 0 2.566 0.617 2.566 1.375" fill="#ffd6b9"/></g></g><g clip-path="url(#9)"><g clip-path="url(#1)"><path d="m 19.371 30.07 v -12.836 h -1.539 v 12.836" fill="#ffd6b9"/></g></g><g clip-path="url(#A)"><g clip-path="url(#1)"><path d="m 21.17 21.363 c 0 0.758 -1.148 1.375 -2.566 1.375 c -1.418 0 -2.566 -0.617 -2.566 -1.375 c 0 -0.758 1.148 -1.375 2.566 -1.375 c 1.418 0 2.566 0.617 2.566 1.375" fill="#ffd6b9"/></g></g><g clip-path="url(#B)"><g clip-path="url(#1)"><path d="m 30.66 30.07 v -12.836 h -1.539 v 12.836" fill="#ffd6b9"/></g></g><g clip-path="url(#C)"><g clip-path="url(#1)"><path d="m 32.453 21.363 c 0 0.758 -1.145 1.375 -2.563 1.375 c -1.422 0 -2.566 -0.617 -2.566 -1.375 c 0 -0.758 1.145 -1.375 2.566 -1.375 c 1.418 0 2.563 0.617 2.563 1.375" fill="#ffd6b9"/></g></g></svg>