<svg xmlns="http://www.w3.org/2000/svg" viewBox="0 0 48 48" xmlns:xlink="http://www.w3.org/1999/xlink"><defs><linearGradient id="2" gradientUnits="userSpaceOnUse" x1="-602.56" y1="-582.88" x2="612.14" y2="227.18" gradientTransform="matrix(0.02427 0 0 0.02432 2.292 22.09)" xlink:href="#0"/><linearGradient id="1" gradientUnits="userSpaceOnUse" x1="610.85" y1="220.39" x2="758.95" y2="72.28" spreadMethod="reflect" gradientTransform="matrix(-0.0445 0.02574 -0.02569 -0.04458 60.19 21.409)"><stop stop-color="#5c5c5c"/><stop offset="1" stop-color="#000"/></linearGradient><radialGradient id="0" gradientUnits="userSpaceOnUse" cx="1129.63" cy="322.76" r="506.42" gradientTransform="matrix(0.08078 -0.02168 0.02164 0.08092 -49.17 34.6)"><stop stop-color="#fff"/><stop offset="1" stop-color="#fff" stop-opacity="0"/></radialGradient></defs><path d="m 43.871 10.05 c -9.102 -16.527 -37.617 -10.113 -42.44 3.492 c -5.75 16.211 9.211 46.996 34.555 28.961 c 8.535 -6.297 16.988 -15.926 7.887 -32.453" fill="#b0c3de"/><path d="m -52.618 -94.37 c -141.27 0 -255.72 114.62 -255.72 256.04 c 0 141.34 114.45 255.96 255.72 255.96 c 141.19 0 255.72 -114.62 255.72 -255.96 c 0 -141.42 -114.53 -256.04 -255.72 -256.04 m 0.84 219.23 c 19.483 0 35.22 15.73 35.22 35.28 c 0 19.472 -15.739 35.28 -35.22 35.28 c -19.483 0 -35.3 -15.807 -35.3 -35.28 c 0 -19.548 15.816 -35.28 35.3 -35.28" transform="matrix(0.05113 0 0 0.05116 26.85 14.902)" stroke="#fff" stroke-width="1.5"/><path d="m 17.934 12.363 c 0.758 -0.309 1.645 -0.82 2.516 -1.051 c 4.621 -1.516 10.03 0.047 13.145 3.785 c 0.426 0.402 1.211 1.75 1.277 1.703 c -2.441 -4.238 -7.535 -6.707 -12.367 -5.996 c -1.605 0.215 -3.168 0.746 -4.57 1.559 m 0.133 0.23 c 0.738 -0.297 1.609 -0.801 2.461 -1.027 c 4.57 -1.5 9.93 0.082 12.961 3.82 c 0.375 0.371 1.051 1.543 1.152 1.547 c -2.391 -4.145 -7.371 -6.559 -12.1 -5.863 c -1.57 0.207 -3.098 0.73 -4.473 1.523 m 0.133 0.23 c 0.723 -0.285 1.578 -0.785 2.41 -1 c 4.469 -1.465 9.707 0.078 12.672 3.734 c 0.371 0.363 1.027 1.512 1.133 1.516 c -2.363 -4.098 -7.316 -6.461 -11.98 -5.719 c -1.488 0.219 -2.934 0.719 -4.234 1.473 m 0.133 0.234 c 0.711 -0.285 1.539 -0.77 2.355 -0.984 c 4.414 -1.445 9.594 0.117 12.48 3.762 c 0.371 0.41 1.531 2.258 0.711 0.887 c -2.5 -3.887 -7.449 -5.957 -11.969 -5.01 c -1.254 0.246 -2.469 0.703 -3.578 1.344 m 0.133 0.23 c 1.406 -0.688 3.078 -1.344 4.738 -1.438 c 4.281 -0.41 8.668 1.883 10.777 5.637 c -0.676 -1.422 -1.977 -2.73 -3.313 -3.684 c -3.531 -2.508 -8.469 -2.727 -12.203 -0.516 m 0.133 0.23 c 1.375 -0.672 3.01 -1.309 4.629 -1.402 c 4.184 -0.402 8.465 1.836 10.523 5.504 c -0.656 -1.387 -1.93 -2.668 -3.234 -3.598 c -3.453 -2.453 -8.27 -2.66 -11.918 -0.504 m 0.137 0.23 c 1.34 -0.652 2.934 -1.277 4.516 -1.367 c 4.082 -0.391 8.258 1.793 10.27 5.375 c -0.641 -1.359 -1.883 -2.609 -3.156 -3.516 c -3.371 -2.395 -8.07 -2.594 -11.629 -0.492 m 0.133 0.234 c 1.305 -0.633 2.863 -1.246 4.406 -1.336 c 3.98 -0.379 8.05 1.75 10.02 5.242 c -0.617 -1.32 -1.836 -2.543 -3.078 -3.426 c -3.285 -2.34 -7.871 -2.531 -11.344 -0.48 m 0.133 0.23 c 1.273 -0.613 2.789 -1.215 4.293 -1.301 c 3.883 -0.371 7.852 1.707 9.766 5.109 c -0.605 -1.289 -1.789 -2.48 -3 -3.34 c -3.203 -2.281 -7.676 -2.469 -11.06 -0.469 m 0.133 0.23 c 1.234 -0.594 2.719 -1.184 4.184 -1.266 c 3.781 -0.363 7.648 1.664 9.512 4.977 c -0.586 -1.254 -1.746 -2.414 -2.922 -3.254 c -3.121 -2.223 -7.477 -2.402 -10.773 -0.457 m 0.133 0.23 c 1.203 -0.57 2.648 -1.152 4.074 -1.227 c 3.68 -0.355 7.441 1.617 9.254 4.84 c -0.559 -1.215 -1.695 -2.352 -2.84 -3.168 c -3.039 -2.16 -7.277 -2.34 -10.488 -0.445 m 0.133 0.23 c 1.168 -0.551 2.578 -1.121 3.965 -1.191 c 3.578 -0.348 7.238 1.57 9 4.711 c -0.539 -1.188 -1.648 -2.293 -2.762 -3.086 c -2.957 -2.102 -7.078 -2.277 -10.203 -0.434 m 0.133 0.234 c 1.137 -0.535 2.504 -1.09 3.852 -1.16 c 3.477 -0.336 7.04 1.527 8.75 4.578 c -0.523 -1.152 -1.602 -2.227 -2.684 -3 c -2.875 -2.043 -6.883 -2.211 -9.918 -0.418 m 0.133 0.23 c 1.102 -0.512 2.434 -1.059 3.742 -1.125 c 3.375 -0.324 6.832 1.484 8.496 4.445 c -0.5 -1.117 -1.559 -2.164 -2.605 -2.914 c -2.789 -1.984 -6.684 -2.148 -9.633 -0.406 m 0.133 0.23 c 1.07 -0.492 2.363 -1.027 3.633 -1.09 c 3.273 -0.316 6.629 1.438 8.242 4.313 c -0.48 -1.082 -1.512 -2.098 -2.527 -2.828 c -2.707 -1.922 -6.484 -2.086 -9.348 -0.395 m 0.137 0.23 c 1.035 -0.477 2.285 -0.996 3.52 -1.055 c 3.172 -0.305 6.426 1.395 7.988 4.18 c -0.465 -1.051 -1.465 -2.035 -2.449 -2.742 c -2.625 -1.863 -6.285 -2.02 -9.06 -0.383 m 0.133 0.23 c 1 -0.449 2.215 -0.961 3.406 -1.02 c 3.074 -0.293 6.223 1.352 7.738 4.051 c -0.445 -1.016 -1.418 -1.973 -2.371 -2.656 c -2.543 -1.809 -6.09 -1.961 -8.773 -0.375 m 0.133 0.234 c 0.969 -0.438 2.145 -0.934 3.297 -0.988 c 2.973 -0.285 6.02 1.309 7.484 3.918 c -0.422 -0.98 -1.371 -1.91 -2.293 -2.57 c -2.461 -1.75 -5.891 -1.895 -8.488 -0.359 m 0.133 0.23 c 0.934 -0.418 2.07 -0.902 3.188 -0.953 c 2.871 -0.273 5.813 1.266 7.23 3.785 c -0.41 -0.949 -1.328 -1.848 -2.215 -2.484 c -2.379 -1.691 -5.691 -1.832 -8.203 -0.348 m 0.133 0.23 c 0.898 -0.395 2 -0.871 3.078 -0.918 c 2.77 -0.266 5.609 1.223 6.977 3.652 c -0.391 -0.918 -1.281 -1.781 -2.137 -2.398 c -2.293 -1.633 -5.496 -1.77 -7.918 -0.336 m 0.133 0.23 c 0.867 -0.375 1.93 -0.84 2.965 -0.883 c 2.672 -0.254 5.41 1.176 6.727 3.52 c -0.371 -0.883 -1.234 -1.719 -2.059 -2.313 c -2.211 -1.574 -5.297 -1.703 -7.633 -0.324 m 0.133 0.23 c 0.832 -0.352 1.859 -0.805 2.855 -0.844 c 2.57 -0.246 5.203 1.129 6.469 3.383 c -0.344 -0.844 -1.184 -1.656 -1.977 -2.227 c -2.129 -1.512 -5.098 -1.637 -7.344 -0.313 m 0.129 0.23 c 0.801 -0.332 1.785 -0.773 2.746 -0.809 c 2.469 -0.238 5 1.086 6.215 3.25 c -0.324 -0.813 -1.137 -1.59 -1.898 -2.141 c -2.047 -1.453 -4.898 -1.574 -7.06 -0.301 m 0.133 0.234 c 0.766 -0.32 1.711 -0.742 2.633 -0.777 c 2.367 -0.227 4.793 1.039 5.961 3.117 c -0.309 -0.777 -1.09 -1.527 -1.82 -2.055 c -1.961 -1.395 -4.703 -1.512 -6.773 -0.285 m 0.133 0.23 c 0.727 -0.297 1.641 -0.715 2.52 -0.742 c 2.27 -0.219 4.594 0.996 5.711 2.988 c -0.285 -0.746 -1.047 -1.469 -1.742 -1.973 c -1.879 -1.336 -4.504 -1.445 -6.488 -0.273 m 0.133 0.23 c 1.145 -0.551 2.617 -0.922 3.961 -0.629 c 1.648 0.266 3.094 1.449 3.949 2.754 c -1.41 -2.586 -4.918 -3.664 -7.535 -2.324 c -0.125 0.063 -0.254 0.129 -0.375 0.199 m 0.133 0.23 c 1.363 -0.68 3.188 -0.969 4.699 -0.336 c 1.199 0.402 2.184 1.41 2.848 2.363 c -1.426 -2.602 -5.02 -3.566 -7.547 -2.027 m 0.133 0.234 c 1.297 -0.645 3.03 -0.926 4.473 -0.32 c 1.145 0.383 2.078 1.348 2.711 2.246 c -1.355 -2.477 -4.773 -3.395 -7.184 -1.926 m 0.133 0.23 c 1.23 -0.605 2.879 -0.879 4.246 -0.301 c 1.086 0.359 1.969 1.281 2.574 2.129 c -1.285 -2.352 -4.531 -3.223 -6.82 -1.828 m 0.137 0.23 c 1.16 -0.566 2.723 -0.828 4.02 -0.281 c 1.027 0.336 1.863 1.219 2.434 2.01 c -1.215 -2.227 -4.285 -3.047 -6.449 -1.73 m 0.133 0.23 c 1.09 -0.523 2.566 -0.781 3.789 -0.262 c 0.969 0.316 1.758 1.16 2.297 1.895 c -1.148 -2.098 -4.04 -2.875 -6.086 -1.633 m 0.133 0.23 c 1.02 -0.48 2.414 -0.734 3.563 -0.242 c 0.914 0.293 1.652 1.098 2.16 1.781 c -1.078 -1.977 -3.805 -2.707 -5.723 -1.539 m 0.133 0.234 c 0.953 -0.449 2.262 -0.691 3.332 -0.227 c 0.742 0.117 1.891 1.449 1.93 1.5 c -1.082 -1.738 -3.508 -2.328 -5.262 -1.273 m 0.133 0.23 c 0.887 -0.402 2.105 -0.645 3.105 -0.207 c 0.695 0.113 1.75 1.348 1.797 1.395 c -1 -1.621 -3.266 -2.172 -4.902 -1.188 m 0.133 0.23 c 0.82 -0.363 1.953 -0.598 2.879 -0.188 c 0.652 0.105 1.609 1.246 1.668 1.289 c -0.934 -1.504 -3.03 -2.01 -4.547 -1.102 m 0.133 0.23 c 0.754 -0.32 1.801 -0.547 2.652 -0.168 c 0.602 0.102 1.473 1.145 1.535 1.184 c -0.859 -1.383 -2.789 -1.852 -4.188 -1.016 m 0.133 0.234 c 1.27 -0.719 3.164 -0.211 3.906 1.047 c -0.742 -1.352 -2.586 -1.848 -3.906 -1.047 m 0.137 0.23 c 1.145 -0.645 2.867 -0.176 3.535 0.949 c -0.672 -1.223 -2.344 -1.672 -3.535 -0.949 m 0.133 0.23 c 1.02 -0.566 2.57 -0.152 3.172 0.852 c -0.598 -1.094 -2.109 -1.5 -3.172 -0.852 m -9.629 8.258 c 2.395 4.266 7.457 6.793 12.297 6.145 c 1.66 -0.203 3.273 -0.742 4.723 -1.578 c -0.758 0.305 -1.648 0.82 -2.52 1.051 c -4.621 1.512 -10.03 -0.047 -13.145 -3.789 c -0.512 -0.543 -0.93 -1.316 -1.355 -1.828 m 0.234 -0.137 c 2.34 4.176 7.293 6.652 12.03 6.02 c 1.621 -0.199 3.203 -0.727 4.617 -1.547 c -0.738 0.297 -1.609 0.805 -2.461 1.031 c -4.523 1.48 -9.82 -0.047 -12.863 -3.707 c -0.504 -0.535 -0.91 -1.285 -1.324 -1.793 m 0.23 -0.133 c 2.289 4.082 7.133 6.508 11.766 5.883 c 1.59 -0.191 3.137 -0.711 4.52 -1.512 c -0.723 0.289 -1.574 0.785 -2.406 1 c -4.426 1.453 -9.605 -0.043 -12.582 -3.621 c -0.492 -0.523 -0.891 -1.262 -1.297 -1.754 m 0.23 -0.133 c 2.258 4.04 7.07 6.406 11.645 5.734 c 1.504 -0.203 2.965 -0.699 4.277 -1.461 c -0.703 0.277 -1.539 0.766 -2.355 0.98 c -4.32 1.418 -9.387 -0.039 -12.297 -3.543 c -0.48 -0.508 -0.871 -1.238 -1.27 -1.711 m 0.23 -0.137 c 2.34 4.203 7.516 6.523 12.199 5.461 c 1.152 -0.262 2.434 -0.668 3.336 -1.324 c -4.188 2.504 -9.938 1.84 -13.438 -1.563 c -0.828 -0.73 -1.5 -1.746 -2.094 -2.574 m 0.227 -0.129 c 2.328 4.184 7.539 6.441 12.18 5.273 c 1.027 -0.266 2.199 -0.641 2.992 -1.238 c -4.09 2.445 -9.703 1.797 -13.12 -1.527 c -0.809 -0.711 -1.465 -1.711 -2.047 -2.508 m 0.23 -0.137 c 2.273 4.086 7.359 6.293 11.887 5.148 c 1 -0.258 2.148 -0.625 2.918 -1.211 c -3.988 2.391 -9.469 1.758 -12.805 -1.484 c -0.789 -0.695 -1.43 -1.668 -2 -2.453 m 0.234 -0.133 c 2.254 4.066 7.367 6.211 11.844 4.961 c 0.887 -0.258 1.914 -0.594 2.594 -1.121 c -3.965 2.379 -9.438 1.684 -12.676 -1.629 c -0.691 -0.633 -1.25 -1.527 -1.762 -2.211 m 0.227 -0.133 c 2.203 3.961 7.188 6.05 11.547 4.836 c 0.863 -0.25 1.879 -0.578 2.531 -1.094 c -3.863 2.316 -9.199 1.641 -12.352 -1.59 c -0.676 -0.613 -1.223 -1.496 -1.723 -2.152 m 0.227 -0.133 c 2.148 3.859 7 5.895 11.254 4.711 c 0.84 -0.246 1.832 -0.563 2.461 -1.066 c -3.766 2.258 -8.957 1.59 -12.03 -1.547 c -0.66 -0.602 -1.191 -1.461 -1.684 -2.098 m 0.23 -0.133 c 2.129 3.832 6.996 5.805 11.184 4.52 c 0.734 -0.234 1.621 -0.523 2.168 -0.973 c -3.734 2.242 -8.91 1.516 -11.879 -1.676 c -0.57 -0.543 -1.031 -1.324 -1.473 -1.871 m 0.234 -0.137 c 2.066 3.73 6.801 5.648 10.875 4.398 c 0.715 -0.227 1.578 -0.508 2.109 -0.945 c -3.633 2.18 -8.668 1.477 -11.555 -1.633 c -0.555 -0.523 -1 -1.285 -1.43 -1.82 m 0.23 -0.133 c 2.01 3.625 6.613 5.492 10.57 4.277 c 0.695 -0.227 1.543 -0.496 2.051 -0.926 c -3.531 2.121 -8.426 1.438 -11.23 -1.582 c -0.539 -0.512 -0.973 -1.258 -1.391 -1.77 m 0.23 -0.133 c 1.984 3.59 6.59 5.391 10.477 4.09 c 0.508 -0.047 2.617 -1.23 1.199 -0.527 c -3.633 1.84 -8.422 0.738 -10.895 -2.504 c -0.289 -0.309 -0.52 -0.824 -0.781 -1.059 m 0.23 -0.133 c 1.926 3.48 6.395 5.23 10.168 3.969 c 0.492 -0.047 2.535 -1.195 1.16 -0.516 c -3.523 1.785 -8.172 0.723 -10.57 -2.426 c -0.281 -0.301 -0.504 -0.805 -0.758 -1.027 m 0.23 -0.133 c 1.902 3.441 6.359 5.121 10.05 3.781 c 0.469 -0.07 2.223 -1.082 0.934 -0.434 c -3.418 1.73 -7.926 0.699 -10.25 -2.352 c -0.273 -0.289 -0.488 -0.789 -0.734 -0.996 m 0.23 -0.137 c 1.84 3.336 6.16 4.961 9.734 3.664 c 0.457 -0.066 2.152 -1.051 0.902 -0.422 c -3.309 1.676 -7.672 0.68 -9.926 -2.277 c -0.262 -0.277 -0.473 -0.758 -0.711 -0.965 m 0.234 -0.133 c 1.777 3.227 5.953 4.801 9.414 3.547 c 0.625 -0.148 2.098 -1.043 0.699 -0.332 c -3.301 1.578 -7.586 0.43 -9.656 -2.59 c -0.16 -0.148 -0.301 -0.578 -0.461 -0.625 m 0.23 -0.133 c 1.723 3.117 5.758 4.641 9.102 3.426 c 0.609 -0.145 2.027 -1.012 0.672 -0.32 c -3.246 1.551 -7.469 0.363 -9.43 -2.656 c -0.125 -0.063 -0.207 -0.504 -0.344 -0.449 m 0.234 -0.133 c 1.688 3.063 5.695 4.523 8.953 3.246 c 0.605 -0.184 1.684 -0.875 0.477 -0.25 c -3.133 1.496 -7.207 0.352 -9.102 -2.563 c -0.117 -0.063 -0.199 -0.488 -0.328 -0.434 m 0.23 -0.133 c 1.625 2.953 5.488 4.355 8.629 3.129 c 0.59 -0.176 1.621 -0.844 0.461 -0.242 c -3.02 1.441 -6.945 0.336 -8.773 -2.473 c -0.113 -0.055 -0.191 -0.473 -0.316 -0.414 m 0.23 -0.133 c 1.594 2.895 5.418 4.23 8.461 2.949 c 0.602 -0.207 1.285 -0.703 0.289 -0.172 c -3.063 1.473 -7.07 0.184 -8.711 -2.805 m 0.191 -0.109 c 1.531 2.785 5.207 4.07 8.133 2.84 c 0.582 -0.199 1.234 -0.68 0.277 -0.172 c -2.945 1.414 -6.797 0.176 -8.367 -2.691 m 0.188 -0.109 c 1.492 2.723 5.121 3.941 7.949 2.664 c 1.535 -0.789 -0.574 0.281 -1.184 0.32 c -2.582 0.586 -5.434 -0.695 -6.723 -3.01 m 0.188 -0.109 c 1.453 2.656 5.02 3.805 7.75 2.492 c 1.25 -0.68 -0.906 0.438 -1.414 0.395 c -2.434 0.484 -5.082 -0.742 -6.293 -2.91 m 0.188 -0.109 c 1.434 2.633 5.04 3.695 7.664 2.258 c 1.066 -0.594 -2.219 1 -1.332 0.441 c -2.395 0.602 -5.09 -0.559 -6.289 -2.723 m 0.188 -0.109 c 1.41 2.602 5.03 3.57 7.547 2.023 c -1.207 0.59 -2.789 0.934 -4.18 0.508 c -1.387 -0.367 -2.609 -1.309 -3.324 -2.559 m 0.188 -0.109 c 1.344 2.477 4.785 3.402 7.184 1.93 c -1.145 0.551 -2.656 0.887 -3.977 0.477 c -1.352 -0.316 -2.488 -1.348 -3.207 -2.406 m 0.234 -0.133 c 1.273 2.352 4.539 3.23 6.816 1.828 c -1.09 0.52 -2.523 0.844 -3.777 0.453 c -1.281 -0.301 -2.359 -1.281 -3.039 -2.281 m 0.227 -0.133 c 1.207 2.227 4.301 3.055 6.457 1.73 c -1.027 0.484 -2.387 0.801 -3.574 0.426 c -1.223 -0.281 -2.227 -1.215 -2.883 -2.156 m 0.23 -0.133 c 1.141 2.098 4.059 2.883 6.094 1.633 c -0.965 0.441 -2.254 0.754 -3.371 0.398 c -1.117 -0.293 -2.102 -1.051 -2.68 -2.055 m 0.191 -0.109 c 1.07 1.973 3.813 2.711 5.727 1.535 c -0.969 0.453 -2.266 0.719 -3.371 0.313 c -0.996 -0.277 -1.813 -1.09 -2.355 -1.848 m 0.23 -0.137 c 1 1.852 3.57 2.539 5.363 1.441 c -0.848 0.375 -1.988 0.664 -2.973 0.344 c -1.01 -0.227 -1.848 -1.027 -2.391 -1.785 m 0.23 -0.133 c 0.934 1.723 3.328 2.367 4.996 1.344 c -0.781 0.336 -1.848 0.617 -2.762 0.316 c -0.949 -0.207 -1.727 -0.969 -2.234 -1.66 m 0.23 -0.133 c 0.867 1.598 3.086 2.195 4.633 1.246 c -0.723 0.301 -1.711 0.57 -2.559 0.289 c -0.848 -0.223 -1.598 -0.797 -2.031 -1.559 m 0.188 -0.109 c 0.797 1.473 2.844 2.02 4.27 1.145 c -0.66 0.266 -1.574 0.531 -2.359 0.27 c -0.777 -0.207 -1.469 -0.738 -1.867 -1.438 m 0.188 -0.109 c 0.688 1.352 2.727 1.879 3.883 1 c -1.313 0.848 -3.137 0.191 -3.883 -1 m 0.23 -0.133 c 0.664 1.223 2.359 1.676 3.543 0.949 c -0.832 0.387 -2.059 0.445 -2.852 -0.234 c -0.277 -0.156 -0.492 -0.582 -0.691 -0.715 m 0.23 -0.137 c 0.594 1.098 2.117 1.508 3.18 0.855 c -0.738 0.328 -1.848 0.402 -2.555 -0.215 c -0.254 -0.133 -0.438 -0.543 -0.625 -0.641" fill="url(#0)"/><path d="m 17.801 12.441 c -4.137 2.398 -6.598 7.336 -6.02 12.09 c 0.184 1.711 0.73 3.387 1.59 4.879 c -0.305 -0.758 -0.816 -1.648 -1.047 -2.52 c -1.496 -4.582 0.008 -9.941 3.664 -13.07 c 0.426 -0.465 1.922 -1.352 1.813 -1.379 m 0.137 0.23 c -4.094 2.371 -6.504 7.281 -5.875 11.977 c 0.195 1.625 0.727 3.207 1.543 4.625 c -0.305 -0.742 -0.801 -1.609 -1.027 -2.465 c -1.445 -4.434 -0.027 -9.617 3.477 -12.691 c 0.43 -0.484 2.059 -1.469 1.883 -1.445 m 0.137 0.23 c -4 2.316 -6.363 7.121 -5.75 11.715 c 0.195 1.59 0.711 3.137 1.512 4.523 c -0.293 -0.727 -0.785 -1.574 -1 -2.41 c -1.43 -4.383 0.008 -9.516 3.508 -12.508 c 0.406 -0.445 1.836 -1.289 1.734 -1.32 m 0.133 0.23 c -3.957 2.289 -6.262 7.06 -5.598 11.59 c 0.199 1.508 0.699 2.969 1.457 4.285 c -0.277 -0.707 -0.766 -1.543 -0.98 -2.355 c -1.398 -4.285 0.008 -9.305 3.434 -12.23 c 0.395 -0.434 1.785 -1.258 1.688 -1.289 m 0.141 0.23 c -3.867 2.238 -6.125 6.902 -5.473 11.328 c 0.195 1.469 0.684 2.898 1.426 4.184 c -0.277 -0.691 -0.75 -1.508 -0.961 -2.305 c -1.379 -4.23 0.043 -9.188 3.457 -12.04 c 0.367 -0.387 1.594 -1.102 1.547 -1.168 m 0.137 0.227 c -3.816 2.207 -6.02 6.84 -5.324 11.199 c 0.203 1.391 0.672 2.738 1.371 3.953 c -0.258 -0.676 -0.73 -1.473 -0.934 -2.25 c -1.363 -4.176 0.074 -9.07 3.477 -11.844 c 0.344 -0.348 1.406 -0.953 1.41 -1.059 m 0.148 0.242 c -0.07 0.016 -1.129 0.684 -1.316 0.898 c -3.371 2.676 -4.84 7.457 -3.551 11.57 c 0.242 0.805 0.578 1.578 0.996 2.309 c -0.422 -0.961 -0.992 -2.098 -1.176 -3.219 c -0.961 -4.316 1.051 -9.09 4.836 -11.387 c 0.176 -0.125 0.23 -0.176 0.211 -0.172 m 0.262 0.191 c -1.32 0.625 -2.539 1.84 -3.422 3.086 c -2.332 3.285 -2.531 7.891 -0.48 11.363 c -0.633 -1.305 -1.242 -2.863 -1.332 -4.406 c -0.379 -3.988 1.746 -8.08 5.234 -10.04 m 0.133 0.234 c -1.285 0.598 -2.477 1.793 -3.336 3 c -2.273 3.199 -2.465 7.695 -0.469 11.08 c -0.605 -1.27 -1.211 -2.793 -1.297 -4.297 c -0.371 -3.891 1.703 -7.871 5.102 -9.785 m 0.133 0.23 c -1.25 0.578 -2.41 1.746 -3.246 2.926 c -2.219 3.125 -2.406 7.488 -0.461 10.793 c -0.586 -1.238 -1.18 -2.723 -1.258 -4.188 c -0.363 -3.789 1.656 -7.664 4.965 -9.531 m 0.133 0.23 c -1.215 0.566 -2.344 1.699 -3.16 2.848 c -2.16 3.039 -2.34 7.297 -0.449 10.508 c -0.566 -1.203 -1.148 -2.652 -1.223 -4.078 c -0.355 -3.684 1.609 -7.461 4.832 -9.277 m 0.133 0.23 c -1.184 0.547 -2.285 1.652 -3.078 2.77 c -2.098 2.957 -2.273 7.098 -0.43 10.223 c -0.555 -1.172 -1.121 -2.578 -1.195 -3.969 c -0.344 -3.582 1.57 -7.258 4.703 -9.02 m 0.137 0.234 c -1.152 0.52 -2.227 1.605 -2.996 2.688 c -2.039 2.871 -2.207 6.902 -0.418 9.934 c -0.531 -1.133 -1.09 -2.504 -1.16 -3.852 c -0.336 -3.484 1.527 -7.05 4.574 -8.77 m 0.133 0.23 c -1.117 0.5 -2.16 1.559 -2.906 2.609 c -1.98 2.793 -2.148 6.695 -0.41 9.648 c -0.512 -1.102 -1.059 -2.434 -1.121 -3.746 c -0.324 -3.383 1.48 -6.844 4.434 -8.512 m 0.137 0.23 c -1.082 0.484 -2.094 1.512 -2.82 2.531 c -1.922 2.711 -2.09 6.496 -0.398 9.363 c -0.492 -1.07 -1.027 -2.363 -1.086 -3.633 c -0.316 -3.285 1.434 -6.645 4.305 -8.262 m 0.133 0.23 c -1.047 0.461 -2.031 1.469 -2.734 2.453 c -1.863 2.625 -2.023 6.305 -0.387 9.08 c -0.473 -1.035 -0.992 -2.289 -1.055 -3.523 c -0.305 -3.18 1.395 -6.441 4.176 -8.01 m 0.133 0.234 c -1.012 0.441 -1.969 1.418 -2.648 2.371 c -1.809 2.543 -1.957 6.105 -0.375 8.793 c -0.457 -1 -0.961 -2.219 -1.02 -3.41 c -0.293 -3.082 1.352 -6.238 4.04 -7.754 m 0.133 0.23 c -0.98 0.422 -1.906 1.375 -2.566 2.297 c -1.746 2.453 -1.891 5.906 -0.359 8.504 c -0.438 -0.969 -0.93 -2.148 -0.984 -3.301 c -0.285 -2.98 1.305 -6.03 3.91 -7.5 m 0.133 0.23 c -0.945 0.402 -1.84 1.324 -2.477 2.215 c -1.688 2.379 -1.832 5.703 -0.348 8.219 c -0.414 -0.934 -0.902 -2.074 -0.949 -3.188 c -0.277 -2.879 1.258 -5.828 3.773 -7.246 m 0.133 0.23 c -0.91 0.391 -1.777 1.281 -2.391 2.137 c -1.633 2.297 -1.766 5.508 -0.336 7.934 c -0.398 -0.902 -0.867 -2 -0.918 -3.078 c -0.266 -2.777 1.219 -5.625 3.645 -6.992 m 14.461 0.129 c 0.305 0.758 0.816 1.648 1.051 2.523 c 1.492 4.578 -0.012 9.938 -3.668 13.07 c -0.578 0.555 -1.383 1 -1.941 1.453 c 4.164 -2.348 6.684 -7.254 6.168 -12.01 c -0.172 -1.766 -0.723 -3.496 -1.609 -5.04 m -14.328 0.102 c -0.879 0.371 -1.715 1.234 -2.305 2.063 c -1.574 2.211 -1.703 5.309 -0.324 7.645 c -0.379 -0.867 -0.836 -1.93 -0.883 -2.969 c -0.258 -2.676 1.172 -5.418 3.512 -6.738 m 14.1 0.035 c 0.297 0.742 0.801 1.613 1.027 2.465 c 1.457 4.48 -0.012 9.727 -3.59 12.789 c -0.566 0.543 -1.355 0.988 -1.898 1.426 c 4.117 -2.32 6.586 -7.203 6.02 -11.902 c -0.184 -1.68 -0.719 -3.316 -1.559 -4.777 m -0.23 0.133 c 0.285 0.727 0.781 1.578 1 2.414 c 1.426 4.383 -0.012 9.512 -3.512 12.508 c -0.551 0.531 -1.328 0.961 -1.855 1.391 c 4.03 -2.266 6.445 -7.04 5.887 -11.641 c -0.176 -1.641 -0.699 -3.242 -1.523 -4.672 m -13.734 0.063 c -0.844 0.355 -1.652 1.188 -2.223 1.984 c -1.512 2.125 -1.637 5.113 -0.309 7.359 c -0.359 -0.836 -0.805 -1.859 -0.848 -2.855 c -0.246 -2.578 1.129 -5.219 3.379 -6.488 m 13.5 0.07 c 0.285 0.711 0.77 1.543 0.984 2.363 c 1.41 4.328 -0.047 9.398 -3.539 12.316 c -0.508 0.48 -1.234 0.871 -1.711 1.27 c 3.984 -2.242 6.348 -6.984 5.742 -11.52 c -0.188 -1.555 -0.691 -3.074 -1.477 -4.43 m -0.23 0.133 c 0.27 0.691 0.75 1.508 0.957 2.309 c 1.398 4.273 -0.074 9.285 -3.563 12.13 c -0.465 0.434 -1.145 0.785 -1.563 1.152 c 3.895 -2.191 6.203 -6.824 5.609 -11.258 c -0.184 -1.52 -0.676 -3 -1.441 -4.328 m -13.13 0.031 c -0.813 0.324 -1.59 1.141 -2.137 1.898 c -1.453 2.051 -1.578 4.91 -0.301 7.078 c -0.34 -0.801 -0.773 -1.789 -0.809 -2.746 c -0.238 -2.477 1.082 -5.01 3.246 -6.23 m 12.902 0.102 c 0.258 0.676 0.73 1.477 0.934 2.254 c 1.363 4.176 -0.074 9.07 -3.477 11.84 c -0.453 0.426 -1.117 0.77 -1.527 1.129 c 3.844 -2.16 6.102 -6.762 5.461 -11.129 c -0.191 -1.438 -0.664 -2.836 -1.391 -4.094 m -12.77 0.129 c -0.777 0.305 -1.527 1.094 -2.051 1.82 c -1.395 1.965 -1.512 4.715 -0.289 6.793 c -0.316 -0.766 -0.742 -1.715 -0.773 -2.637 c -0.23 -2.375 1.039 -4.805 3.113 -5.977 m 12.539 0.008 c 0.418 0.957 0.992 2.098 1.176 3.219 c 0.957 4.316 -1.051 9.09 -4.832 11.387 c -0.035 0.09 -0.398 0.141 -0.316 0.25 c 3.75 -2.109 5.953 -6.602 5.332 -10.863 c -0.188 -1.402 -0.652 -2.766 -1.359 -3.992 m -0.273 0.156 c 2.324 3.898 1.707 9.25 -1.449 12.512 c -0.676 0.773 -1.625 1.395 -2.387 1.957 c 3.98 -2.223 6.129 -7.191 5.02 -11.617 c -0.254 -0.977 -0.609 -2.102 -1.18 -2.852 m -12.133 0.066 c -0.742 0.285 -1.465 1.047 -1.965 1.742 c -1.336 1.883 -1.449 4.516 -0.277 6.504 c -0.297 -0.73 -0.711 -1.641 -0.742 -2.523 c -0.215 -2.273 0.996 -4.602 2.984 -5.723 m 11.902 0.07 c 2.313 3.871 1.629 9.211 -1.586 12.371 c -0.613 0.676 -1.488 1.223 -2.152 1.727 c 3.879 -2.164 5.969 -7.01 4.891 -11.32 c -0.246 -0.953 -0.598 -2.047 -1.152 -2.777 m -0.23 0.133 c 2.254 3.77 1.586 8.973 -1.543 12.05 c -0.602 0.66 -1.457 1.195 -2.098 1.684 c 3.855 -2.148 5.887 -7.01 4.703 -11.266 c -0.242 -0.844 -0.563 -1.832 -1.063 -2.469 m -11.539 0.027 c -0.711 0.273 -1.398 1 -1.883 1.668 c -1.277 1.797 -1.383 4.313 -0.262 6.215 c -0.281 -0.699 -0.68 -1.57 -0.707 -2.41 c -0.207 -2.176 0.949 -4.398 2.852 -5.473 m 11.309 0.105 c 2.191 3.668 1.547 8.734 -1.504 11.73 c -0.582 0.641 -1.422 1.16 -2.035 1.637 c 3.75 -2.09 5.727 -6.824 4.574 -10.965 c -0.238 -0.82 -0.547 -1.789 -1.035 -2.402 m -11.176 0.125 c -0.676 0.254 -1.336 0.957 -1.793 1.59 c -1.219 1.715 -1.32 4.121 -0.254 5.93 c -0.262 -0.664 -0.645 -1.496 -0.672 -2.301 c -0.199 -2.074 0.906 -4.195 2.719 -5.219 m 10.945 0.008 c 2.133 3.57 1.504 8.496 -1.461 11.41 c -0.566 0.625 -1.387 1.129 -1.98 1.598 c 3.648 -2.035 5.566 -6.641 4.449 -10.668 c -0.23 -0.797 -0.527 -1.746 -1.01 -2.34 m -0.23 0.133 c 2.117 3.535 1.426 8.434 -1.582 11.246 c -0.508 0.543 -1.25 0.977 -1.766 1.395 c 3.617 -2.01 5.477 -6.621 4.27 -10.586 c -0.227 -0.695 -0.496 -1.547 -0.922 -2.055 m -10.605 0.051 c -2.484 1.375 -3.391 4.758 -1.926 7.195 c -0.547 -1.148 -0.887 -2.66 -0.477 -3.984 c 0.309 -1.352 1.355 -2.492 2.402 -3.211 m 10.371 0.082 c 2.059 3.434 1.391 8.191 -1.531 10.922 c -0.496 0.527 -1.223 0.949 -1.715 1.355 c 3.512 -1.953 5.32 -6.434 4.145 -10.281 c -0.219 -0.676 -0.477 -1.508 -0.898 -1.996 m -10.238 0.148 c -2.359 1.305 -3.215 4.516 -1.824 6.828 c -0.52 -1.086 -0.844 -2.523 -0.453 -3.781 c 0.293 -1.281 1.289 -2.363 2.277 -3.047 m 10.09 0.082 c -0.004 0.008 0.055 0.145 0.215 0.469 c 1.781 3.531 0.715 8.188 -2.422 10.59 c -0.301 0.281 -0.805 0.504 -1.027 0.758 c 3.477 -1.93 5.219 -6.406 3.961 -10.184 c -0.031 -0.375 -0.715 -1.668 -0.727 -1.633 m -0.23 0.129 c -0.004 0.012 0.051 0.145 0.203 0.457 c 1.727 3.422 0.695 7.934 -2.348 10.262 c -0.289 0.273 -0.777 0.492 -0.992 0.738 c 3.371 -1.871 5.05 -6.211 3.84 -9.871 c -0.035 -0.367 -0.691 -1.617 -0.707 -1.586 m -9.699 0.063 c -1.055 0.461 -1.922 1.664 -2.227 2.836 c -0.324 1.199 -0.152 2.516 0.473 3.59 c -0.48 -1.027 -0.801 -2.391 -0.426 -3.578 c 0.313 -1.188 1.113 -2.234 2.18 -2.848 m 9.465 0.07 c -0.004 0.008 0.055 0.137 0.203 0.441 c 1.672 3.313 0.672 7.68 -2.273 9.934 c -0.277 0.266 -0.766 0.477 -0.961 0.719 c 3.262 -1.813 4.895 -6.02 3.719 -9.559 c -0.035 -0.359 -0.672 -1.57 -0.688 -1.535 m -0.238 0.117 c -0.008 0.012 0.051 0.133 0.199 0.438 c 1.652 3.266 0.609 7.582 -2.348 9.73 c -0.219 0.211 -0.648 0.371 -0.781 0.574 c 3.219 -1.781 4.789 -5.965 3.539 -9.43 c -0.047 -0.332 -0.594 -1.34 -0.609 -1.313 m -9.09 0.047 c -0.992 0.418 -1.813 1.566 -2.102 2.672 c -0.309 1.129 -0.145 2.371 0.445 3.383 c -0.441 -0.965 -0.754 -2.254 -0.398 -3.375 c 0.293 -1.117 1.051 -2.105 2.055 -2.68 m 8.859 0.086 c -0.004 0.008 0.051 0.129 0.195 0.422 c 1.625 3.211 0.543 7.469 -2.418 9.512 c -0.137 0.156 -0.57 0.289 -0.602 0.445 c 3.105 -1.723 4.625 -5.766 3.418 -9.113 c -0.051 -0.32 -0.578 -1.293 -0.594 -1.266 m -0.238 0.121 c -0.008 0 0.039 0.113 0.195 0.418 c 1.566 3.098 0.523 7.207 -2.336 9.176 c -0.125 0.148 -0.566 0.281 -0.578 0.434 c 3.059 -1.691 4.508 -5.707 3.238 -8.965 c -0.063 -0.301 -0.488 -1.059 -0.516 -1.063 m -8.695 0.086 c -0.004 0.004 -0.008 0.008 -0.012 0.012 c 0.004 -0.004 0.012 -0.008 0.016 -0.012 c 0 0 0 0 -0.004 0 m -0.016 0.012 c -1.844 1.16 -2.457 3.746 -1.34 5.617 c -0.449 -0.969 -0.719 -2.27 -0.313 -3.375 c 0.066 -0.816 1.477 -2.105 1.652 -2.242 m 8.492 0.063 c -0.02 -0.012 0.035 0.129 0.242 0.527 c 1.441 3.02 0.336 6.961 -2.465 8.789 c -0.055 0.117 -0.48 0.191 -0.418 0.32 c 2.949 -1.629 4.348 -5.5 3.125 -8.645 c -0.113 -0.387 -0.441 -0.969 -0.484 -0.992 m -8.164 0.051 c -1.855 1.027 -2.531 3.555 -1.438 5.371 c -0.371 -0.844 -0.66 -1.984 -0.344 -2.969 c 0.215 -1.016 1.039 -1.855 1.781 -2.402 m 7.934 0.082 c -0.023 -0.004 0.031 0.133 0.23 0.508 c 1.41 2.961 0.277 6.824 -2.512 8.547 c 0.012 0.102 -0.387 0.09 -0.262 0.215 c 2.891 -1.594 4.223 -5.426 2.949 -8.473 c -0.133 -0.379 -0.371 -0.785 -0.406 -0.797 m -0.234 0.129 c -0.02 -0.004 0.031 0.129 0.223 0.488 c 1.355 2.848 0.266 6.559 -2.414 8.211 c 0.008 0.098 -0.371 0.09 -0.25 0.211 c 2.781 -1.531 4.059 -5.215 2.836 -8.145 c -0.125 -0.367 -0.359 -0.754 -0.395 -0.766 m -7.543 0.063 c -0.809 0.316 -1.492 1.285 -1.73 2.188 c -0.25 0.926 -0.113 1.945 0.367 2.777 c -0.336 -0.785 -0.617 -1.848 -0.316 -2.766 c 0.238 -0.918 0.859 -1.727 1.68 -2.199 m 7.309 0.07 c -0.012 0.012 0.043 0.148 0.215 0.465 c 1.324 2.781 0.211 6.41 -2.445 7.961 l -0.133 0.078 l 0.023 0.043 c 2.715 -1.496 3.93 -5.129 2.66 -7.961 c -0.141 -0.355 -0.301 -0.605 -0.32 -0.586 m -0.23 0.129 c -0.016 0.012 0.035 0.145 0.199 0.445 c 1.273 2.66 0.207 6.141 -2.34 7.625 l -0.125 0.074 l 0.023 0.043 c 2.602 -1.434 3.766 -4.914 2.547 -7.625 c -0.133 -0.344 -0.285 -0.582 -0.305 -0.563 m -6.945 0.031 c -0.75 0.281 -1.387 1.191 -1.605 2.023 c -0.23 0.859 -0.105 1.809 0.34 2.578 c -0.301 -0.727 -0.57 -1.719 -0.289 -2.57 c 0.223 -0.848 0.797 -1.594 1.555 -2.031 m 6.738 0.137 c -0.027 0 0.613 1.344 0.582 1.723 c 0.465 2.332 -0.707 4.863 -2.773 6.02 l 0.023 0.047 c 2.531 -1.395 3.629 -4.813 2.379 -7.422 c -0.145 -0.262 -0.203 -0.367 -0.211 -0.367 m -6.602 0.098 c -0.691 0.246 -1.285 1.094 -1.484 1.859 c -0.215 0.793 -0.098 1.664 0.316 2.371 c -0.273 -0.664 -0.527 -1.578 -0.266 -2.363 c 0.203 -0.781 0.734 -1.469 1.434 -1.867 m 6.367 0.031 c -0.027 0 0.586 1.277 0.555 1.645 c 0.438 2.219 -0.676 4.637 -2.648 5.742 l 0.027 0.043 c 2.414 -1.332 3.461 -4.59 2.266 -7.078 c -0.137 -0.25 -0.191 -0.352 -0.199 -0.352 m -0.277 0.004 c 0.645 1.297 0.922 3.035 0.316 4.477 c -0.391 1.152 -1.328 2.078 -2.238 2.715 c 2.469 -1.344 3.391 -4.793 1.922 -7.191 m -0.23 0.133 c 0.605 1.23 0.875 2.879 0.301 4.25 c -0.371 1.094 -1.27 1.973 -2.125 2.578 c 2.344 -1.273 3.215 -4.551 1.824 -6.828 m -5.871 0.094 c -1.266 0.785 -1.695 2.559 -0.926 3.836 c -0.23 -0.602 -0.484 -1.445 -0.238 -2.16 c 0.016 -0.676 1.211 -1.699 1.164 -1.676 m 5.641 0.039 c 0.566 1.16 0.828 2.727 0.281 4.02 c -0.348 1.035 -1.203 1.867 -2.01 2.441 c 2.215 -1.207 3.047 -4.309 1.727 -6.465 m -0.23 0.133 c 0.52 1.094 0.781 2.574 0.262 3.797 c -0.324 0.977 -1.145 1.758 -1.895 2.305 c 2.094 -1.141 2.875 -4.066 1.633 -6.102 m -5.199 0.027 c -0.012 0 -0.113 0.066 -0.367 0.25 c -0.926 0.785 -1.16 2.211 -0.539 3.254 c -0.43 -0.902 -0.434 -2.258 0.391 -3.043 c 0.23 -0.203 0.539 -0.461 0.516 -0.461 m 4.969 0.105 c 0.48 1.023 0.734 2.422 0.242 3.57 c -0.305 0.918 -1.082 1.652 -1.777 2.168 c 1.969 -1.074 2.703 -3.824 1.535 -5.738 m -4.836 0.121 c -0.023 0.012 -0.121 0.074 -0.328 0.227 c -0.828 0.703 -1.039 1.984 -0.48 2.918 c -0.371 -0.805 -0.387 -2.023 0.355 -2.727 c 0.223 -0.188 0.512 -0.438 0.453 -0.418 m 4.605 0.012 c 0.445 0.957 0.688 2.266 0.223 3.344 c -0.277 0.855 -1.016 1.547 -1.66 2.027 c 1.844 -1 2.531 -3.578 1.438 -5.371 m -0.234 0.137 c 0.406 0.887 0.645 2.109 0.211 3.109 c -0.262 0.809 -0.957 1.441 -1.547 1.895 c 1.719 -0.934 2.359 -3.336 1.336 -5 m -0.23 0.133 c 0.363 0.82 0.598 1.957 0.191 2.883 c -0.238 0.746 -0.898 1.336 -1.43 1.758 c 1.59 -0.867 2.188 -3.094 1.238 -4.641 m -0.23 0.133 c 0.324 0.754 0.551 1.801 0.172 2.656 c -0.219 0.691 -0.828 1.227 -1.316 1.621 c 1.469 -0.801 2.02 -2.852 1.145 -4.277 m -0.23 0.133 c 0.285 0.688 0.504 1.648 0.152 2.43 c -0.195 0.633 -0.766 1.117 -1.199 1.48 c 1.344 -0.73 1.844 -2.602 1.047 -3.91 m -0.273 0.16 c 0.754 1.219 0.184 2.813 -0.906 3.52 c 1.223 -0.625 1.707 -2.488 0.906 -3.52 m -0.23 0.133 c 0.68 1.098 0.152 2.52 -0.809 3.156 c 1.098 -0.559 1.531 -2.246 0.809 -3.156" fill="url(#1)"/><path d="m 24.14 18.73 c -2.445 0 -4.43 1.988 -4.43 4.438 c 0 2.453 1.984 4.441 4.43 4.441 c 2.449 0 4.43 -1.988 4.43 -4.441 c 0 -2.449 -1.98 -4.438 -4.43 -4.438 m 0.016 2.633 c 0.996 0 1.805 0.809 1.805 1.805 c 0 1 -0.809 1.809 -1.805 1.809 c -0.996 0 -1.805 -0.809 -1.805 -1.809 c 0 -0.996 0.809 -1.805 1.805 -1.805" fill="#00007f"/><path d="m 24.18 10.223 c -3.617 0 -6.887 1.492 -9.23 3.895 c 2.172 3.766 5.711 6.01 8.957 8.473 c -0.648 -2.922 0.262 -11.633 2.898 -11.637 c 3.289 0.66 6.316 2.598 8.285 5.641 c 3.273 5.05 1.98 11.539 -1.91 15.773 c 0.004 0.008 0.008 0.016 0.016 0.027 c 2.398 -2.348 3.887 -5.625 3.887 -9.25 c 0 -7.137 -5.773 -12.922 -12.898 -12.922" fill="url(#2)"/><path d="m 24.14 18.609 c -2.512 0 -4.551 2.043 -4.551 4.559 c 0 2.52 2.039 4.563 4.551 4.563 c 2.516 0 4.555 -2.043 4.555 -4.563 c 0 -2.516 -2.039 -4.559 -4.555 -4.559 m 0 0.246 c 2.383 0 4.309 1.93 4.309 4.313 c 0 2.387 -1.926 4.316 -4.309 4.316 c -2.379 0 -4.309 -1.93 -4.309 -4.316 c 0 -2.383 1.93 -4.313 4.309 -4.313" fill="#00f"/><path d="m 170.83 14.9 c -5.39 0 -10.278 0.407 -14.665 1.253 c -4.418 0.72 -9.495 1.848 -15.323 3.414 c -8.931 2.412 -15.731 3.602 -20.4 3.602 c -2.57 0 -4.951 0.72 -7.239 2.13 c -2.131 1.441 -3.196 3.633 -3.196 6.608 c 0 1.973 0.157 3.602 0.439 4.886 c 0.407 1.127 0.94 2.255 1.504 3.382 c 0.407 0.877 0.627 1.503 0.627 1.942 c 0 2.975 -0.501 5.888 -1.504 8.707 c -0.846 2.693 -2.256 6.358 -4.23 11.06 c -0.439 0.72 -1.065 2.13 -1.912 4.259 v 0.219 c -0.157 -0.157 -0.219 -0.282 -0.219 -0.438 c 0 0 -0.063 -0.063 -0.219 -0.219 l -3.416 -4.886 c -4.826 -6.671 -8.429 -11.776 -10.842 -15.315 c -2.413 -3.664 -4.105 -6.859 -5.108 -9.552 c -0.564 -1.441 -1.128 -3.539 -1.692 -6.389 c -0.564 -3.696 -1.473 -6.389 -2.758 -8.08 c -1.128 -1.848 -3.478 -2.756 -7.02 -2.756 c -4.262 0 -9.652 0.971 -16.17 2.975 c -6.361 1.848 -12.66 4.259 -18.896 7.235 c -6.236 2.975 -11.5 6.232 -15.762 9.771 c -4.105 3.539 -6.142 6.89 -6.142 9.991 c 0 2.568 0.909 4.541 2.758 5.951 c 1.974 1.409 5.108 3.038 9.37 4.886 c 3.259 1.441 5.641 2.568 7.207 3.414 c 1.849 0.971 3.478 2.036 4.888 3.194 c 1.41 1.127 2.852 2.537 4.262 4.259 c 1.567 1.691 3.259 3.821 5.108 6.358 c 1.818 2.412 5.05 6.733 9.558 12.966 c 2.695 3.696 4.324 5.982 4.888 6.827 l 6.393 8.707 c 0.846 1 1.41 1.691 1.692 2.13 c 0.439 0.438 0.658 0.689 0.658 0.846 c 0 0.157 -0.157 0.407 -0.439 0.846 c -0.564 0.72 -0.909 1.221 -1.065 1.503 c -8.367 10.774 -18.363 22.11 -29.989 34.01 c -3.259 3.414 -6.518 6.264 -9.777 8.519 c -3.134 2.13 -6.863 4.541 -11.281 7.235 c -4.669 2.975 -7.991 5.387 -9.996 7.235 c -1.974 1.691 -2.946 3.883 -2.946 6.577 c 0 1.973 0.407 3.633 1.253 4.886 c 1 1.127 2.131 2 3.416 2.568 c 1.41 0.564 2.695 0.908 3.823 1.065 c 1.128 0.125 2.35 0.188 3.604 0.188 h 47.851 c 1.974 0 4.04 -0.626 6.173 -1.91 c 2.256 -1.284 3.384 -3.194 3.384 -5.731 c 0 -4.666 -0.407 -7.955 -1.285 -9.771 c -0.846 -2 -1.818 -3.476 -2.946 -4.479 c -0.595 -0.438 -0.846 -0.783 -0.846 -1.065 c 0 -4.823 0.971 -9.489 2.946 -14.03 c 2.01 -4.541 5.05 -10.398 9.15 -17.632 c 0.721 -1.159 1.222 -2 1.504 -2.568 l 21.06 29.565 c 1.128 1.284 1.912 2.255 2.319 2.975 c 0.564 0.72 1 1.566 1.285 2.537 h -0.219 c -0.125 -0.125 -0.282 -0.219 -0.407 -0.219 c -1.567 0 -3.071 0.94 -4.481 2.787 c -1.41 1.691 -2.131 4.604 -2.131 8.707 c 0 3.821 1.441 6.608 4.262 8.299 c 2.852 1.691 5.453 2.537 7.865 2.537 h 68.69 c 2.256 0 4.794 -1.065 7.646 -3.194 c 2.82 -2.098 4.262 -4.572 4.262 -7.422 c 0 -4.666 -1.065 -7.798 -3.196 -9.364 c -2.01 -1.535 -5.05 -2.693 -9.15 -3.382 c -2.538 -0.595 -4.669 -1.127 -6.361 -1.723 c -1.567 -0.689 -2.914 -1.754 -4.04 -3.163 l -53.18 -68.27 c -1.128 -1.284 -1.912 -2.13 -2.319 -2.537 c -0.282 -0.595 -0.439 -1.065 -0.439 -1.503 c 0 -0.125 0.157 -0.407 0.439 -0.846 c 0.407 -0.407 1.128 -1.221 2.131 -2.349 c 4.23 -5.387 8.649 -10.492 13.161 -15.283 c 4.544 -4.823 9.09 -9.08 13.6 -12.778 c 3.134 -2.568 7.615 -5.951 13.412 -10.21 c 6.675 -4.948 11.563 -8.863 14.665 -11.682 c 3.259 -2.85 4.888 -5.387 4.888 -7.673 c 0 -2.819 -0.909 -4.604 -2.758 -5.293 c -1.692 -0.846 -3.76 -1.284 -6.173 -1.284 m 0 1.065 c 2.256 0 4.105 0.345 5.515 1.034 c 1.567 0.595 2.35 2.067 2.35 4.479 c 0 1.973 -1.504 4.322 -4.481 7.02 c -2.977 2.693 -7.709 6.452 -14.227 11.275 c -6.111 4.385 -10.686 7.861 -13.819 10.398 c -4.387 3.57 -8.868 7.798 -13.412 12.778 c -4.512 4.823 -9.06 9.991 -13.6 15.503 c -0.971 1.284 -1.692 2.224 -2.131 2.787 c -0.282 0.407 -0.407 0.783 -0.407 1.065 c 0 0.407 0.188 0.971 0.627 1.691 c 0.407 0.72 1.128 1.691 2.131 2.975 l 53.15 68.27 c 1.285 1.535 2.758 2.756 4.481 3.602 c 1.692 0.72 3.948 1.347 6.8 1.91 c 3.823 0.846 6.675 1.973 8.492 3.382 c 1.849 1.441 2.758 4.134 2.758 8.111 c 0 2.537 -1.253 4.823 -3.823 6.796 c -2.538 1.848 -4.888 2.756 -7.02 2.756 h -68.66 c -2.256 0 -4.763 -0.783 -7.458 -2.318 c -2.538 -1.566 -3.823 -4.071 -3.823 -7.454 c 0 -4.541 0.783 -7.516 2.35 -8.926 c 1.567 -1.441 2.977 -2.13 4.262 -2.13 c 0 -1.284 -0.219 -2.349 -0.658 -3.194 c -0.407 -0.846 -1.191 -1.91 -2.35 -3.194 l -21.465 -30.19 l -0.407 -0.438 l -0.282 0.438 l -0.595 0.219 c 0.251 0 0.439 -0.063 0.595 -0.157 l -2.288 3.758 c -4.105 6.953 -7.145 12.747 -9.15 17.444 c -1.974 4.666 -2.946 9.427 -2.946 14.25 c 0 0.407 0.407 1.065 1.253 1.91 c 1.128 1.284 2.068 2.819 2.758 4.666 c 0.846 1.848 1.285 4.76 1.285 8.738 c 0 2.255 -1 3.946 -2.977 5.074 c -1.974 1 -3.886 1.503 -5.735 1.503 h -47.851 c -2.82 0 -5.39 -0.407 -7.646 -1.284 c -2.288 -0.971 -3.416 -3.101 -3.416 -6.358 c 0 -2.412 0.94 -4.479 2.789 -6.17 c 1.974 -1.723 5.108 -3.915 9.338 -6.608 c 4.544 -2.693 8.429 -5.168 11.688 -7.422 c 3.259 -2.286 6.612 -5.199 9.996 -8.738 c 12.911 -13.592 22.907 -24.961 29.989 -34.01 c 0.846 -1.127 1.347 -1.848 1.473 -2.13 c 0.157 -0.282 0.219 -0.564 0.219 -0.846 c 0 -0.157 -0.345 -0.72 -1.065 -1.723 c -0.407 -0.564 -0.909 -1.19 -1.473 -1.91 l -6.393 -8.707 l -4.669 -6.389 c -3.541 -5.105 -6.518 -9.114 -8.931 -12.09 c -2.256 -3.132 -4.199 -5.606 -5.735 -7.454 c -1.567 -1.848 -3.134 -3.351 -4.7 -4.479 c -1.41 -1.127 -3.102 -2.255 -5.076 -3.382 c -1.567 -0.877 -3.98 -2 -7.239 -3.414 c -4.105 -1.691 -7.082 -3.194 -8.931 -4.479 c -1.692 -1.409 -2.57 -3.257 -2.57 -5.512 c 0 -2.975 2.01 -6.17 5.985 -9.583 c 4.105 -3.382 9.182 -6.514 15.292 -9.364 c 6.236 -2.975 12.566 -5.387 18.927 -7.203 c 6.393 -1.848 11.626 -2.756 15.731 -2.756 c 3.102 0 5.17 0.846 6.173 2.537 c 1.128 1.566 1.974 4.04 2.538 7.422 c 0.595 3.01 1.128 5.199 1.692 6.608 c 1.723 4.259 7.458 13.12 17.235 26.589 c 0.439 0.689 1.222 1.848 2.35 3.382 c 0.282 0.313 0.564 0.658 0.846 1.065 c 0.282 0.282 0.501 0.501 0.627 0.658 c 0.313 -0.564 0.564 -1.065 0.846 -1.503 l 1.504 -3.602 c 2.131 -4.823 3.698 -8.738 4.669 -11.713 c 1 -2.975 1.504 -6.01 1.504 -9.114 c 0 -0.595 -0.282 -1.441 -0.846 -2.568 c -1.285 -2.568 -1.912 -5.105 -1.912 -7.673 c 0 -2.537 0.971 -4.447 2.977 -5.731 c 1.974 -1.409 4.168 -2.13 6.581 -2.13 c 3.102 0 6.079 -0.282 8.931 -0.846 c 2.977 -0.564 6.863 -1.503 11.688 -2.756 c 5.797 -1.441 10.842 -2.505 15.1 -3.194 c 4.387 -0.846 9.276 -1.284 14.665 -1.284 m 0 4.071 c -4.951 0 -9.495 0.345 -13.6 1.034 c -3.98 0.72 -8.806 1.785 -14.477 3.194 c -4.794 1.284 -8.931 2.286 -12.315 2.975 c -3.259 0.564 -6.612 0.877 -9.996 0.877 c -3.698 0 -5.515 1.253 -5.515 3.821 c 0 1.409 0.407 3.101 1.253 5.105 c 0.846 1.973 1.285 3.696 1.285 5.105 c 0 3.821 -0.627 7.579 -1.912 11.275 c -1.128 3.539 -2.852 7.861 -5.108 12.966 l -0.846 1.691 c -1.692 3.539 -3.134 5.324 -4.262 5.324 c -0.846 0 -2.256 -1.284 -4.262 -3.821 l -0.627 -0.877 c -0.564 -0.846 -1 -1.472 -1.285 -1.91 c -5.797 -7.924 -10.06 -13.968 -12.754 -18.07 c -2.695 -4.103 -4.732 -7.798 -6.142 -11.06 c -0.877 -2.255 -1.661 -4.948 -2.35 -8.08 c -0.439 -2.098 -0.94 -3.602 -1.504 -4.447 c -0.407 -1 -1.347 -1.503 -2.758 -1.503 c -3.823 0 -8.649 0.846 -14.446 2.568 c -5.829 1.535 -11.626 3.664 -17.454 6.358 c -5.797 2.568 -10.623 5.324 -14.446 8.299 c -3.698 2.85 -5.547 5.481 -5.547 7.892 c 0 1.535 2.57 3.445 7.677 5.731 c 3.698 1.566 6.581 2.913 8.712 4.04 c 2.256 1.127 4.199 2.412 5.735 3.821 c 1.723 1.284 3.416 2.913 5.108 4.886 c 1.692 1.848 3.478 4.04 5.327 6.577 c 1.974 2.568 5.17 6.89 9.558 12.997 c 1.849 2.537 3.478 4.823 4.888 6.796 l 6.361 8.738 c 0.439 0.564 0.783 1.065 1.065 1.472 c 1.441 1.848 2.225 3.194 2.35 4.04 c 0 1.566 -0.846 3.539 -2.538 5.951 c -9.495 12.06 -19.648 23.458 -30.428 34.23 c -4.105 4.259 -8.08 7.736 -11.908 10.429 c -3.666 2.537 -7.709 5.105 -12.1 7.642 c -3.259 2 -5.547 3.57 -6.8 4.698 c -1.285 0.971 -1.912 2.13 -1.912 3.382 c 0 1.566 0.627 2.568 1.912 2.975 c 1.41 0.438 3.165 0.658 5.296 0.658 h 47.851 c 1.41 0 2.538 -0.157 3.416 -0.438 c 0.846 -0.407 1.253 -1.127 1.253 -2.13 c 0 -1.973 -0.282 -3.539 -0.846 -4.666 c -0.439 -1.284 -1.065 -2.568 -1.912 -3.852 c -1 -1.253 -1.692 -2.318 -2.131 -3.163 c -0.282 -1 -0.407 -2.224 -0.407 -3.633 c 0 -5.512 1.034 -10.774 3.165 -15.722 c 2.288 -5.105 5.609 -11.337 9.996 -18.697 c 1 -1.566 1.692 -2.787 2.131 -3.633 c 1.285 -2.255 2.413 -3.414 3.416 -3.414 c 0.564 0 1.755 1.221 3.604 3.633 v 0.219 l 21.277 29.753 c 2.695 2.412 4.04 5.387 4.04 8.926 c 0 1.127 -0.846 2.349 -2.57 3.633 c -1.253 0.971 -2.256 1.973 -2.977 2.975 c -0.721 1 -1.065 2.474 -1.065 4.447 c 0 2 0.783 3.476 2.35 4.479 c 1.567 0.846 3.196 1.284 4.888 1.284 h 68.66 c 1.441 0 2.914 -0.501 4.481 -1.503 c 1.567 -1.127 2.35 -2.474 2.35 -4.04 c 0 -1.973 -0.658 -3.414 -1.912 -4.259 c -1.128 -0.846 -3.071 -1.566 -5.766 -2.13 c -2.977 -0.846 -5.578 -1.754 -7.865 -2.756 c -2.131 -1.127 -4.168 -2.881 -6.142 -5.293 l -53.18 -68.49 c -2.413 -2.819 -3.604 -5.168 -3.604 -7.02 c 0 -1.566 1.128 -3.696 3.416 -6.389 c 4.387 -5.387 8.931 -10.554 13.6 -15.503 c 4.669 -5.105 9.338 -9.583 14.01 -13.404 c 3.98 -3.257 9.307 -7.235 15.982 -11.901 c 5.39 -3.977 9.213 -6.953 11.469 -8.926 c 2.413 -2 3.604 -3.539 3.604 -4.698 c 0 -0.689 -0.282 -1.127 -0.846 -1.253 c -0.439 -0.157 -1.41 -0.219 -2.977 -0.219 m -65.62 69.934 c 8.335 0 15.07 6.765 15.07 15.06 c 0 8.331 -6.737 15.06 -15.07 15.06 c -8.304 0 -15.04 -6.733 -15.04 -15.06 c 0 -8.299 6.737 -15.06 15.04 -15.06" transform="matrix(0.12466 0 0 0.12473 11.194 9.747)" fill="#f4f4f4" stroke="#ff0" stroke-width="0.82"/></svg>