<svg xmlns="http://www.w3.org/2000/svg" viewBox="0 0 48 48"><path d="m 43.05 36.719 c 17.262 -24.547 -14.613 -49.42 -34.945 -29.418 c -19.16 18.844 -1.398 48.13 22.441 38.973 c 4.973 -1.91 9.336 -5.05 12.504 -9.555" fill="#ffdeac"/><path d="m 29 34.543 c -0.074 -0.117 -2.039 -0.188 -5.277 -0.188 c -4.879 0 -5.188 -0.02 -5.641 -0.375 c -0.43 -0.34 -0.762 -0.375 -3.453 -0.375 h -2.973 v -11.06 h 0.531 c 0.297 0 0.688 -0.168 0.875 -0.375 c 0.188 -0.207 0.523 -0.375 0.75 -0.375 c 0.227 0 0.563 -0.168 0.75 -0.375 c 0.188 -0.207 0.523 -0.375 0.75 -0.375 c 0.227 0 0.563 -0.168 0.75 -0.375 c 0.188 -0.207 0.523 -0.375 0.75 -0.375 c 0.227 0 0.563 -0.168 0.75 -0.375 c 0.188 -0.207 0.523 -0.375 0.75 -0.375 c 0.227 0 0.563 -0.168 0.75 -0.375 c 0.188 -0.207 0.523 -0.375 0.75 -0.375 c 0.227 0 0.563 -0.168 0.75 -0.375 c 0.188 -0.207 0.523 -0.375 0.75 -0.375 c 0.227 0 0.563 -0.168 0.75 -0.375 c 0.188 -0.207 0.523 -0.375 0.75 -0.375 c 0.227 0 0.563 -0.168 0.75 -0.375 c 0.188 -0.207 0.523 -0.375 0.75 -0.375 c 0.227 0 0.563 -0.168 0.75 -0.375 c 0.188 -0.207 0.523 -0.375 0.75 -0.375 c 0.227 0 0.563 -0.168 0.75 -0.375 c 0.188 -0.207 0.52 -0.375 0.742 -0.375 c 0.219 0 0.727 -0.336 1.133 -0.75 c 0.719 -0.734 0.762 -0.75 2.051 -0.75 h 1.316 l 1.363 1.355 c 0.836 0.832 1.363 1.508 1.363 1.75 c 0 0.219 0.168 0.551 0.375 0.738 c 0.277 0.25 0.375 0.578 0.375 1.246 c 0 0.5 0.082 0.91 0.188 0.91 c 0.121 0 0.188 2.434 0.188 6.93 v 6.934 l -0.664 0.66 l -0.66 0.664 h -2.609 c -1.535 0 -2.656 -0.078 -2.723 -0.188" fill="#edd8aa"/><path d="m 29.848 34.523 c 0 -0.117 -0.117 -0.164 -0.258 -0.109 c -0.145 0.055 -0.34 0.02 -0.438 -0.082 c -0.105 -0.102 -2.227 -0.18 -5.07 -0.188 c -3.734 -0.004 -4.969 -0.063 -5.227 -0.254 c -0.273 -0.199 -0.293 -0.297 -0.105 -0.527 c 0.344 -0.41 11.03 -0.234 11.516 0.191 c 0.219 0.195 0.793 0.293 1.844 0.313 c 1.512 0.031 1.527 0.027 2.078 -0.602 c 0.5 -0.57 0.555 -0.758 0.543 -1.883 c -0.008 -0.688 0.027 -2.336 0.074 -3.664 c 0.055 -1.43 0.016 -2.563 -0.094 -2.766 c -0.273 -0.516 -1.68 -0.484 -2.16 0.043 c -0.301 0.332 -0.375 0.797 -0.465 2.953 c -0.059 1.41 -0.043 2.793 0.035 3.074 c 0.273 1.01 -0.059 1.102 -3.543 0.988 c -2.512 -0.086 -3.18 -0.164 -3.449 -0.41 c -0.273 -0.246 -0.816 -0.309 -2.824 -0.328 c -1.965 -0.023 -2.613 -0.094 -3.094 -0.352 c -0.484 -0.262 -1.129 -0.328 -3.312 -0.34 c -1.488 -0.012 -2.793 0.031 -2.895 0.098 c -0.105 0.063 -0.246 0.371 -0.313 0.684 c -0.207 0.93 0.133 1.145 1.77 1.117 c 2.91 -0.047 3.398 -0.008 3.512 0.289 c 0.063 0.16 0.059 0.34 -0.004 0.402 c -0.16 0.16 -5.285 0.305 -5.844 0.164 l -0.465 -0.113 v -10.496 h 0.582 c 0.316 0 0.793 -0.168 1.055 -0.375 c 0.262 -0.203 0.602 -0.375 0.75 -0.375 c 0.152 0 0.488 -0.168 0.75 -0.375 c 0.262 -0.203 0.602 -0.375 0.75 -0.375 c 0.152 0 0.488 -0.168 0.75 -0.375 c 0.262 -0.203 0.602 -0.375 0.75 -0.375 c 0.152 0 0.488 -0.168 0.75 -0.375 c 0.262 -0.203 0.637 -0.375 0.828 -0.375 c 0.191 0 0.52 -0.168 0.723 -0.375 c 0.207 -0.203 0.512 -0.375 0.676 -0.375 c 0.164 0 0.512 -0.168 0.773 -0.375 c 0.262 -0.203 0.602 -0.375 0.75 -0.375 c 0.152 0 0.488 -0.168 0.75 -0.375 c 0.262 -0.203 0.602 -0.375 0.75 -0.375 c 0.152 0 0.488 -0.168 0.75 -0.375 c 0.262 -0.203 0.637 -0.375 0.828 -0.375 c 0.191 0 0.52 -0.168 0.723 -0.375 c 0.207 -0.203 0.512 -0.375 0.676 -0.375 c 0.164 0 0.512 -0.168 0.773 -0.375 c 0.262 -0.203 0.617 -0.375 0.789 -0.375 c 0.172 0 0.641 -0.336 1.043 -0.75 c 0.699 -0.715 0.789 -0.75 1.891 -0.75 h 1.16 l 1.336 1.422 c 0.734 0.781 1.332 1.57 1.332 1.754 c 0 0.18 0.172 0.484 0.375 0.668 c 0.277 0.25 0.375 0.578 0.375 1.23 c 0 0.617 0.086 0.922 0.281 0.996 c 0.246 0.094 0.281 1.012 0.281 6.703 v 6.598 l -0.863 0.816 l -0.863 0.813 h -2.043 c -1.367 0 -2.043 -0.066 -2.043 -0.207 m 4.59 -11.344 c 0.438 -0.438 0.316 -2.707 -0.176 -3.25 c -0.219 -0.238 -0.34 -0.637 -0.324 -1.047 c 0.016 -0.449 -0.094 -0.766 -0.344 -0.98 c -0.203 -0.172 -0.375 -0.527 -0.379 -0.789 c -0.004 -0.293 -0.324 -0.816 -0.832 -1.371 c -0.719 -0.777 -0.953 -0.914 -1.75 -1.01 c -1.203 -0.145 -1.441 0.184 -0.629 0.855 c 0.871 0.723 1.531 1.711 1.531 2.293 c 0 0.285 0.094 0.574 0.207 0.645 c 0.414 0.254 1.055 2.074 1.18 3.348 c 0.074 0.715 0.176 1.367 0.227 1.453 c 0.164 0.266 0.969 0.172 1.289 -0.148" fill="#c38e1c"/><path d="m 30.04 34.578 c 0 -0.328 -1.82 -0.602 -4.02 -0.602 c -2.145 0 -2.977 -0.164 -2.242 -0.445 c 0.164 -0.063 1.578 -0.117 3.145 -0.117 c 2.402 0 2.922 0.055 3.313 0.328 c 0.316 0.219 0.977 0.355 2.043 0.422 c 1.023 0.063 1.605 0.18 1.656 0.328 c 0.059 0.18 -0.402 0.234 -1.906 0.234 c -1.09 0 -1.984 -0.066 -1.984 -0.148 m -10.938 -0.727 c -0.344 -0.34 0.031 -0.438 1.734 -0.438 c 1.918 0 2.527 0.105 2.348 0.398 c -0.117 0.191 -3.891 0.23 -4.082 0.039 m 15.06 0.023 c 0 -0.055 0.168 -0.328 0.379 -0.609 c 0.344 -0.465 0.379 -0.84 0.422 -4.496 c 0.051 -4.469 0.086 -4.348 -1.301 -4.352 c -0.641 0 -0.863 0.102 -1.266 0.574 c -0.445 0.535 -0.484 0.715 -0.484 2.395 c 0 0.996 -0.078 2.094 -0.18 2.441 c -0.137 0.473 -0.113 0.727 0.098 1.047 c 0.152 0.234 0.227 0.566 0.16 0.738 c -0.109 0.281 -0.445 0.305 -3.219 0.219 c -2.492 -0.074 -3.191 -0.152 -3.582 -0.414 c -0.398 -0.258 -0.906 -0.316 -2.648 -0.301 c -1.754 0.016 -2.313 -0.047 -2.984 -0.344 c -0.684 -0.301 -1.285 -0.363 -3.562 -0.375 c -1.504 -0.008 -2.883 0.043 -3.059 0.113 c -0.391 0.156 -0.652 1.344 -0.387 1.766 c 0.141 0.223 0.555 0.309 1.664 0.344 c 1.75 0.055 2.383 0.176 2.23 0.426 c -0.066 0.102 -1.141 0.184 -2.445 0.184 h -2.332 v -10.547 l 0.465 0.09 c 0.305 0.059 0.676 -0.063 1.07 -0.352 c 0.328 -0.246 0.75 -0.445 0.938 -0.445 c 0.188 0 0.508 -0.168 0.715 -0.375 c 0.207 -0.203 0.508 -0.375 0.672 -0.375 c 0.164 0 0.512 -0.168 0.777 -0.375 c 0.262 -0.203 0.633 -0.375 0.824 -0.375 c 0.191 0 0.508 -0.156 0.703 -0.352 c 0.234 -0.234 0.52 -0.32 0.844 -0.258 c 0.277 0.051 0.492 0.008 0.492 -0.105 c 0 -0.32 0.563 -0.785 0.949 -0.785 c 0.199 0 0.531 -0.168 0.738 -0.375 c 0.207 -0.203 0.543 -0.375 0.75 -0.375 c 0.207 0 0.543 -0.168 0.75 -0.375 c 0.207 -0.203 0.543 -0.375 0.75 -0.375 c 0.207 0 0.543 -0.168 0.75 -0.375 c 0.207 -0.203 0.551 -0.375 0.766 -0.375 c 0.215 0 0.605 -0.168 0.871 -0.375 c 0.262 -0.203 0.621 -0.375 0.801 -0.375 c 0.18 0 0.434 -0.125 0.563 -0.281 c 0.129 -0.152 0.383 -0.281 0.566 -0.281 c 0.184 0 0.711 -0.363 1.172 -0.813 c 0.809 -0.785 0.875 -0.813 1.949 -0.781 c 1.207 0.031 0.969 -0.141 3.336 2.414 c 0.262 0.281 0.477 0.637 0.477 0.785 c 0 0.148 0.168 0.438 0.371 0.645 c 0.27 0.266 0.367 0.598 0.344 1.148 c -0.02 0.547 0.063 0.824 0.285 0.945 c 0.258 0.148 0.313 0.5 0.313 2.137 c 0 1.398 -0.066 1.957 -0.227 1.957 c -0.176 0 -0.176 0.051 0 0.227 c 0.164 0.164 0.227 1.449 0.227 4.602 v 4.379 l -0.516 0.453 c -0.477 0.418 -0.984 0.605 -0.984 0.363 m -14.816 -8.523 c 0 -0.102 -0.086 -0.188 -0.188 -0.188 c -0.102 0 -0.188 0.086 -0.188 0.188 c 0 0.105 0.086 0.188 0.188 0.188 c 0.102 0 0.188 -0.082 0.188 -0.188 m 3.422 -0.234 c -0.027 -0.078 -0.09 -0.141 -0.141 -0.141 c -0.051 0 -0.473 0 -0.938 0 c -0.465 0 -0.844 0.086 -0.844 0.188 c 0 0.102 0.434 0.164 0.984 0.137 c 0.543 -0.023 0.965 -0.105 0.938 -0.184 m -6.719 -0.629 c 0.473 -0.18 0.145 -0.449 -0.559 -0.449 c -0.719 0 -0.879 0.305 -0.223 0.434 c 0.23 0.043 0.438 0.09 0.453 0.105 c 0.02 0.012 0.164 -0.027 0.328 -0.09 m -2.141 -0.262 c 0 -0.102 -0.211 -0.188 -0.469 -0.188 c -0.258 0 -0.469 0.086 -0.469 0.188 c 0 0.105 0.211 0.188 0.469 0.188 c 0.258 0 0.469 -0.082 0.469 -0.188 m 3.609 0.066 c -0.129 -0.055 -0.34 -0.055 -0.469 0 c -0.129 0.051 -0.023 0.094 0.234 0.094 c 0.258 0 0.363 -0.043 0.234 -0.094 m 14.238 -1.707 c -0.051 -1.148 -0.137 -1.516 -0.422 -1.762 c -0.199 -0.172 -0.363 -0.531 -0.363 -0.801 c 0 -0.266 -0.168 -0.633 -0.375 -0.809 c -0.207 -0.176 -0.375 -0.527 -0.375 -0.781 c 0 -0.305 -0.285 -0.727 -0.848 -1.25 c -0.676 -0.629 -0.965 -0.777 -1.453 -0.742 c -0.422 0.031 -0.664 0.172 -0.793 0.461 c -0.152 0.344 -0.297 0.402 -0.785 0.324 c -0.484 -0.078 -0.652 -0.008 -0.902 0.367 c -0.164 0.258 -0.445 0.453 -0.621 0.434 c -0.59 -0.059 -0.742 0.012 -0.84 0.391 c -0.078 0.293 -0.234 0.371 -0.68 0.336 c -0.426 -0.031 -0.66 0.074 -0.883 0.387 c -0.199 0.285 -0.426 0.398 -0.668 0.336 c -0.238 -0.063 -0.504 0.063 -0.762 0.359 c -0.23 0.266 -0.602 0.453 -0.883 0.453 c -0.863 0 -3.285 1.504 -3.141 1.949 c 0.039 0.117 0.441 0.266 0.898 0.336 c 1.281 0.195 1.941 0.379 2.07 0.578 c 0.102 0.152 2.523 0.246 7.672 0.297 c 0.57 0.004 1.289 0.141 1.594 0.301 c 0.305 0.156 1.02 0.289 1.59 0.289 h 1.035 m 2.953 -1.348 c 0.156 -1.164 -0.063 -2.598 -0.461 -2.992 c -0.215 -0.219 -0.344 -0.617 -0.344 -1.074 c 0 -0.418 -0.121 -0.824 -0.281 -0.961 c -0.156 -0.129 -0.281 -0.457 -0.281 -0.73 c 0 -0.352 -0.273 -0.77 -0.902 -1.391 c -0.766 -0.75 -1.043 -0.902 -1.836 -0.996 c -0.691 -0.082 -0.988 -0.043 -1.156 0.16 c -0.184 0.223 -0.039 0.461 0.805 1.309 c 0.859 0.871 1.027 1.148 1.027 1.711 c 0 0.453 0.148 0.832 0.469 1.176 c 0.258 0.277 0.469 0.652 0.469 0.828 c 0 0.18 0.125 0.629 0.281 1 c 0.156 0.371 0.281 1.082 0.281 1.586 c 0 0.5 0.055 0.969 0.125 1.035 c 0.07 0.07 0.48 0.125 0.914 0.125 c 0.781 0 0.785 -0.004 0.891 -0.785 m -17.953 10.363 c -0.129 -0.215 0.57 -0.461 0.836 -0.297 c 0.109 0.066 0.145 0.199 0.086 0.297 c -0.141 0.223 -0.781 0.223 -0.922 0" fill="#a16906"/><path d="m 30.04 34.578 c 0 -0.328 -1.82 -0.602 -4.02 -0.602 c -2.145 0 -2.977 -0.164 -2.242 -0.445 c 0.164 -0.063 1.578 -0.117 3.145 -0.117 c 2.402 0 2.922 0.055 3.313 0.328 c 0.316 0.219 0.977 0.355 2.043 0.422 c 1.023 0.063 1.605 0.18 1.656 0.328 c 0.059 0.18 -0.402 0.234 -1.906 0.234 c -1.09 0 -1.984 -0.066 -1.984 -0.148 m -10.938 -0.727 c -0.344 -0.34 0.031 -0.438 1.734 -0.438 c 1.918 0 2.527 0.105 2.348 0.398 c -0.117 0.191 -3.891 0.23 -4.082 0.039 m 15.06 0.023 c 0 -0.055 0.168 -0.328 0.379 -0.609 c 0.344 -0.465 0.379 -0.84 0.422 -4.496 c 0.051 -4.492 0.094 -4.348 -1.363 -4.352 c -0.754 0 -0.891 0.07 -1.285 0.648 c -0.391 0.57 -0.445 0.895 -0.488 2.766 c -0.027 1.16 -0.113 2.266 -0.191 2.449 c -0.09 0.215 -0.031 0.457 0.168 0.676 c 0.172 0.195 0.254 0.477 0.188 0.656 c -0.109 0.281 -0.441 0.305 -3.219 0.219 c -2.492 -0.074 -3.191 -0.156 -3.582 -0.414 c -0.398 -0.258 -0.906 -0.316 -2.648 -0.301 c -1.711 0.016 -2.32 -0.051 -2.938 -0.324 c -0.563 -0.246 -1.32 -0.352 -2.719 -0.383 c -4.156 -0.086 -4.473 0 -4.473 1.199 c 0 0.914 0.27 1.055 1.992 1.055 c 1.617 0 2.203 0.113 2.027 0.395 c -0.055 0.094 -1.152 0.168 -2.437 0.168 h -2.332 v -10.543 l 0.469 0.09 c 0.305 0.055 0.676 -0.066 1.066 -0.355 c 0.332 -0.242 0.754 -0.441 0.941 -0.441 c 0.188 0 0.508 -0.168 0.715 -0.375 c 0.203 -0.207 0.508 -0.375 0.672 -0.375 c 0.164 0 0.512 -0.168 0.773 -0.375 c 0.266 -0.207 0.637 -0.375 0.828 -0.375 c 0.191 0 0.512 -0.164 0.711 -0.363 c 0.348 -0.344 1.141 -0.352 1.141 -0.004 c 0 0.082 -0.594 0.578 -1.313 1.105 c -0.723 0.523 -1.313 1.035 -1.313 1.133 c 0 0.266 0.734 0.613 1.047 0.492 c 0.449 -0.172 1.234 0.227 1.164 0.59 c -0.055 0.297 -0.348 0.328 -2.871 0.328 h -2.809 l -0.063 0.516 l -0.059 0.516 h 2.344 c 2.566 0 3.211 0.145 3.402 0.762 c 0.117 0.359 0.227 0.395 0.922 0.301 c 0.438 -0.059 1.68 -0.164 2.762 -0.234 l 1.969 -0.129 l 0.473 0.508 l 0.469 0.508 l 2.984 -0.156 l 2.984 -0.152 v -0.656 c 0 -0.895 0.191 -1.125 0.945 -1.125 c 0.738 0 0.887 -0.418 0.273 -0.75 c -0.324 -0.172 -0.375 -0.391 -0.375 -1.57 c 0 -1.133 -0.066 -1.43 -0.375 -1.711 c -0.207 -0.188 -0.375 -0.484 -0.375 -0.66 c 0 -0.176 -0.156 -0.52 -0.348 -0.766 c -0.191 -0.246 -0.402 -0.668 -0.465 -0.938 c -0.066 -0.27 -0.5 -0.84 -0.965 -1.266 c -0.656 -0.605 -0.988 -0.777 -1.508 -0.777 c -0.523 0 -0.707 0.098 -0.875 0.469 c -0.168 0.363 -0.355 0.469 -0.836 0.469 c -0.426 0 -0.68 0.117 -0.82 0.375 c -0.129 0.246 -0.391 0.375 -0.75 0.375 c -0.355 0 -0.617 0.133 -0.75 0.375 c -0.129 0.246 -0.391 0.375 -0.75 0.375 c -0.355 0 -0.617 0.133 -0.75 0.375 c -0.129 0.246 -0.391 0.375 -0.75 0.375 c -0.355 0 -0.617 0.133 -0.75 0.375 c -0.148 0.277 -0.391 0.375 -0.945 0.375 c -0.406 0 -0.742 -0.078 -0.742 -0.172 c 0 -0.305 0.574 -0.766 0.953 -0.766 c 0.199 0 0.527 -0.168 0.734 -0.375 c 0.207 -0.207 0.543 -0.375 0.75 -0.375 c 0.207 0 0.543 -0.168 0.75 -0.375 c 0.207 -0.207 0.543 -0.375 0.75 -0.375 c 0.207 0 0.543 -0.168 0.75 -0.375 c 0.207 -0.207 0.551 -0.375 0.77 -0.375 c 0.215 0 0.605 -0.168 0.867 -0.375 c 0.262 -0.207 0.625 -0.375 0.805 -0.375 c 0.18 0 0.43 -0.125 0.559 -0.281 c 0.129 -0.152 0.383 -0.281 0.57 -0.281 c 0.184 0 0.711 -0.367 1.172 -0.813 c 0.809 -0.789 0.875 -0.813 1.945 -0.785 c 1.211 0.035 0.969 -0.141 3.34 2.418 c 0.262 0.281 0.473 0.633 0.473 0.785 c 0 0.148 0.168 0.438 0.375 0.645 c 0.266 0.266 0.363 0.594 0.344 1.145 c -0.023 0.551 0.059 0.824 0.281 0.949 c 0.262 0.145 0.313 0.5 0.313 2.121 c 0 1.371 -0.07 1.973 -0.234 2.051 c -0.188 0.09 -0.188 0.133 0 0.219 c 0.18 0.082 0.234 1.172 0.234 4.512 v 4.398 l -0.516 0.453 c -0.473 0.418 -0.984 0.605 -0.984 0.363 m 0.617 -11.184 c 0.156 -1.164 -0.063 -2.598 -0.461 -2.992 c -0.215 -0.219 -0.344 -0.617 -0.344 -1.074 c 0 -0.418 -0.121 -0.824 -0.281 -0.961 c -0.156 -0.125 -0.281 -0.453 -0.281 -0.723 c 0 -0.66 -1.48 -2.188 -2.273 -2.348 c -0.906 -0.18 -1.41 -0.137 -1.637 0.137 c -0.164 0.195 0.02 0.48 0.82 1.285 c 0.859 0.871 1.027 1.148 1.027 1.711 c 0 0.453 0.152 0.832 0.469 1.176 c 0.258 0.277 0.469 0.652 0.469 0.832 c 0 0.176 0.125 0.625 0.281 0.996 c 0.156 0.371 0.281 1.082 0.281 1.586 c 0 0.5 0.055 0.969 0.125 1.035 c 0.07 0.07 0.48 0.125 0.914 0.125 c 0.781 0 0.789 -0.004 0.891 -0.785 m -17.953 10.363 c -0.129 -0.215 0.57 -0.461 0.84 -0.293 c 0.105 0.063 0.141 0.195 0.082 0.293 c -0.141 0.223 -0.781 0.227 -0.922 0 m 4.258 -8.566 c -0.426 -0.191 -0.262 -0.809 0.25 -0.938 c 0.75 -0.188 4.375 0.023 4.625 0.27 c 0.469 0.469 -0.199 0.668 -2.434 0.723 c -1.215 0.027 -2.313 0.004 -2.438 -0.055" fill="#8e014d"/><path d="m 30.04 34.578 c 0 -0.328 -1.82 -0.602 -4.02 -0.602 c -2.145 0 -2.977 -0.164 -2.242 -0.445 c 0.164 -0.063 1.578 -0.117 3.145 -0.117 c 2.402 0 2.922 0.055 3.313 0.328 c 0.316 0.219 0.977 0.355 2.043 0.422 c 1.023 0.063 1.605 0.18 1.656 0.328 c 0.059 0.18 -0.402 0.234 -1.906 0.234 c -1.09 0 -1.984 -0.066 -1.984 -0.148 m -10.938 -0.727 c -0.344 -0.34 0.031 -0.438 1.734 -0.438 c 1.918 0 2.527 0.105 2.348 0.398 c -0.117 0.191 -3.891 0.23 -4.082 0.039 m 15.06 0.023 c 0 -0.055 0.168 -0.328 0.379 -0.609 c 0.344 -0.465 0.379 -0.84 0.422 -4.496 c 0.051 -4.492 0.094 -4.348 -1.363 -4.352 c -0.754 0 -0.891 0.07 -1.285 0.648 c -0.391 0.57 -0.445 0.895 -0.488 2.766 c -0.027 1.16 -0.113 2.266 -0.191 2.449 c -0.09 0.215 -0.031 0.457 0.168 0.676 c 0.172 0.195 0.254 0.477 0.188 0.656 c -0.109 0.281 -0.441 0.305 -3.219 0.219 c -2.492 -0.074 -3.191 -0.156 -3.582 -0.414 c -0.398 -0.258 -0.906 -0.316 -2.648 -0.301 c -1.711 0.016 -2.32 -0.051 -2.938 -0.324 c -0.563 -0.246 -1.32 -0.352 -2.719 -0.383 c -4.156 -0.086 -4.473 0 -4.473 1.199 c 0 0.914 0.27 1.055 1.992 1.055 c 1.617 0 2.203 0.113 2.027 0.395 c -0.055 0.094 -1.152 0.168 -2.437 0.168 h -2.332 v -2.637 c 0 -2.629 0.004 -2.641 0.422 -2.578 c 0.324 0.047 0.438 0.203 0.48 0.668 c 0.059 0.598 0.078 0.609 1.031 0.629 c 3.688 0.066 5.672 0.184 6.363 0.371 c 0.438 0.121 1.895 0.289 3.234 0.379 c 1.34 0.086 3.281 0.281 4.313 0.434 c 2.109 0.313 3.59 0.371 3.727 0.148 c 0.055 -0.086 0.047 -0.789 -0.012 -1.566 l -0.109 -1.418 l -2.453 -0.117 c -2.223 -0.105 -2.484 -0.156 -2.762 -0.52 c -0.277 -0.371 -0.41 -0.395 -1.539 -0.273 c -0.68 0.074 -1.918 0.074 -2.754 0 c -1.23 -0.105 -1.555 -0.199 -1.715 -0.496 c -0.105 -0.203 -0.168 -0.395 -0.133 -0.43 c 0.035 -0.031 1.039 -0.121 2.238 -0.195 l 2.172 -0.133 l 0.469 0.504 l 0.469 0.508 l 2.98 -0.156 l 2.984 -0.152 v -0.656 c 0 -0.895 0.191 -1.125 0.949 -1.125 c 0.734 0 0.887 -0.418 0.27 -0.75 c -0.324 -0.172 -0.375 -0.391 -0.375 -1.57 c 0 -1.133 -0.066 -1.43 -0.375 -1.711 c -0.207 -0.188 -0.375 -0.484 -0.375 -0.66 c 0 -0.176 -0.156 -0.52 -0.348 -0.766 c -0.188 -0.246 -0.398 -0.668 -0.465 -0.938 c -0.066 -0.27 -0.496 -0.84 -0.961 -1.266 c -0.656 -0.605 -0.988 -0.777 -1.508 -0.777 c -0.527 0 -0.707 0.098 -0.879 0.469 c -0.164 0.363 -0.352 0.469 -0.832 0.469 c -0.43 0 -0.684 0.117 -0.82 0.375 c -0.129 0.246 -0.395 0.375 -0.75 0.375 c -0.359 0 -0.621 0.133 -0.75 0.375 c -0.129 0.246 -0.395 0.375 -0.75 0.375 c -0.359 0 -0.621 0.133 -0.75 0.375 c -0.129 0.246 -0.395 0.375 -0.75 0.375 c -0.359 0 -0.621 0.133 -0.75 0.375 c -0.148 0.277 -0.395 0.375 -0.945 0.375 c -0.41 0 -0.742 -0.078 -0.742 -0.172 c 0 -0.305 0.574 -0.766 0.949 -0.766 c 0.199 0 0.531 -0.168 0.738 -0.375 c 0.203 -0.207 0.543 -0.375 0.75 -0.375 c 0.203 0 0.543 -0.168 0.75 -0.375 c 0.203 -0.207 0.543 -0.375 0.75 -0.375 c 0.203 0 0.543 -0.168 0.75 -0.375 c 0.203 -0.207 0.551 -0.375 0.766 -0.375 c 0.215 0 0.605 -0.168 0.871 -0.375 c 0.262 -0.207 0.621 -0.375 0.801 -0.375 c 0.18 0 0.434 -0.125 0.563 -0.281 c 0.129 -0.152 0.383 -0.281 0.566 -0.281 c 0.184 0 0.711 -0.367 1.172 -0.813 c 0.809 -0.789 0.875 -0.813 1.949 -0.785 c 1.207 0.035 0.965 -0.141 3.336 2.418 c 0.262 0.281 0.477 0.633 0.477 0.785 c 0 0.148 0.168 0.438 0.371 0.645 c 0.27 0.266 0.367 0.594 0.344 1.145 c -0.02 0.551 0.063 0.824 0.285 0.949 c 0.258 0.145 0.313 0.5 0.313 2.121 c 0 1.371 -0.07 1.973 -0.234 2.051 c -0.188 0.09 -0.188 0.133 0 0.219 c 0.176 0.082 0.234 1.172 0.234 4.512 v 4.398 l -0.516 0.453 c -0.477 0.418 -0.984 0.605 -0.984 0.363 m 0.617 -11.184 c 0.156 -1.164 -0.063 -2.598 -0.461 -2.992 c -0.215 -0.219 -0.344 -0.617 -0.344 -1.074 c 0 -0.418 -0.121 -0.824 -0.281 -0.961 c -0.156 -0.125 -0.281 -0.453 -0.281 -0.723 c 0 -0.66 -1.48 -2.188 -2.273 -2.348 c -0.906 -0.18 -1.41 -0.137 -1.637 0.137 c -0.164 0.195 0.02 0.48 0.82 1.285 c 0.859 0.871 1.027 1.148 1.027 1.711 c 0 0.453 0.152 0.832 0.469 1.176 c 0.258 0.277 0.469 0.652 0.469 0.832 c 0 0.176 0.125 0.625 0.281 0.996 c 0.156 0.371 0.281 1.082 0.281 1.586 c 0 0.5 0.055 0.969 0.125 1.035 c 0.07 0.07 0.48 0.125 0.914 0.125 c 0.781 0 0.789 -0.004 0.891 -0.785 m -17.953 10.363 c -0.129 -0.215 0.57 -0.461 0.84 -0.293 c 0.105 0.063 0.141 0.195 0.082 0.293 c -0.141 0.223 -0.781 0.227 -0.922 0 m -5.164 -7.992 v -2.379 l 0.469 0.09 c 0.305 0.059 0.676 -0.063 1.066 -0.352 c 0.332 -0.246 0.754 -0.445 0.941 -0.445 c 0.184 0 0.508 -0.168 0.715 -0.375 c 0.203 -0.203 0.508 -0.375 0.672 -0.375 c 0.164 0 0.512 -0.168 0.773 -0.375 c 0.266 -0.203 0.637 -0.375 0.828 -0.375 c 0.191 0 0.512 -0.16 0.711 -0.359 c 0.348 -0.348 1.141 -0.352 1.141 -0.008 c 0 0.082 -0.594 0.582 -1.313 1.105 c -0.723 0.523 -1.313 1.035 -1.313 1.133 c 0 0.266 0.734 0.613 1.047 0.496 c 0.449 -0.176 1.234 0.223 1.164 0.59 c -0.055 0.293 -0.348 0.328 -2.871 0.328 h -2.809 l -0.063 0.516 l -0.059 0.516 h 2.344 c 1.289 0 2.551 0.078 2.801 0.172 c 0.457 0.172 0.801 0.719 0.59 0.93 c -0.063 0.066 -1.211 0.102 -2.551 0.086 c -1.93 -0.027 -2.508 -0.094 -2.766 -0.328 c -0.566 -0.512 -1.277 -0.32 -0.754 0.203 c 0.109 0.109 0.176 0.484 0.141 0.836 c -0.047 0.488 -0.156 0.645 -0.484 0.691 c -0.418 0.059 -0.422 0.039 -0.422 -2.32 m 9.422 -0.574 c -0.426 -0.191 -0.262 -0.809 0.25 -0.938 c 0.75 -0.188 4.375 0.023 4.625 0.27 c 0.469 0.469 -0.199 0.668 -2.434 0.723 c -1.215 0.027 -2.313 0.004 -2.438 -0.055" fill="#6a4f1e"/><path d="m 30.504 34.543 c 0.063 -0.105 0.695 -0.188 1.406 -0.188 c 0.711 0 1.344 0.082 1.406 0.188 c 0.074 0.117 -0.438 0.188 -1.406 0.188 c -0.969 0 -1.48 -0.07 -1.406 -0.188 m -18.844 -2.824 c 0 -1.027 0.074 -1.406 0.301 -1.574 c 0.277 -0.203 0.277 -0.246 0 -0.523 c -0.164 -0.168 -0.301 -0.609 -0.301 -0.984 c 0 -0.602 0.051 -0.676 0.422 -0.625 c 0.324 0.047 0.438 0.203 0.48 0.672 c 0.059 0.598 0.074 0.609 1.031 0.625 c 3.719 0.066 5.848 0.188 5.992 0.336 c 0.105 0.105 0.039 0.211 -0.172 0.277 c -0.301 0.086 -2.813 0.168 -4.191 0.129 c -0.258 -0.008 -1.016 0.051 -1.688 0.129 l -1.219 0.145 l -0.094 1.297 c -0.059 0.801 -0.184 1.328 -0.328 1.375 c -0.172 0.055 -0.234 -0.277 -0.234 -1.277 m 23.625 -0.355 c 0 -0.922 0.086 -1.727 0.188 -1.789 c 0.121 -0.074 0.188 0.527 0.188 1.676 c 0 1.07 -0.074 1.793 -0.188 1.793 c -0.109 0 -0.188 -0.684 -0.188 -1.68 m -8.527 0.234 c -0.516 -0.043 -1.066 -0.191 -1.219 -0.324 c -0.156 -0.137 -0.707 -0.309 -1.223 -0.383 c -0.945 -0.137 -1.219 -0.141 -2.875 -0.055 c -1.105 0.059 -1.746 -0.316 -1.211 -0.707 c 0.23 -0.168 0.871 -0.211 2.203 -0.152 c 2.852 0.121 3.477 0.223 3.355 0.543 c -0.059 0.148 -0.02 0.273 0.086 0.273 c 0.105 0 0.227 -0.102 0.266 -0.223 c 0.059 -0.172 0.512 -0.168 1.953 0.016 c 1.035 0.133 2.168 0.215 2.523 0.184 c 0.785 -0.066 1.105 0.109 1.105 0.613 c 0 0.352 -0.082 0.371 -0.984 0.27 c -1.215 -0.137 -1.559 -0.145 -2.391 -0.051 c -0.359 0.039 -1.078 0.039 -1.59 -0.004 m 4.402 -2.93 v -1.063 l -1.266 -0.004 c -2.332 0 -3.797 -0.211 -3.988 -0.57 c -0.152 -0.285 -0.082 -0.328 0.523 -0.34 c 0.387 -0.004 1.629 -0.078 2.762 -0.16 l 2.063 -0.145 l 0.059 -0.809 c 0.035 -0.5 0.164 -0.848 0.336 -0.914 c 0.387 -0.148 0.547 0.066 0.281 0.383 c -0.117 0.145 -0.285 1.203 -0.367 2.348 c -0.164 2.246 -0.402 3 -0.402 1.273 m 4.25 0.125 c -0.207 -0.207 -0.145 -4.188 0.063 -4.188 c 0.113 0 0.188 0.844 0.188 2.156 c 0 1.184 -0.027 2.156 -0.063 2.156 c -0.035 0 -0.117 -0.059 -0.188 -0.125 m -23.75 -3.52 v -2.168 h 0.629 c 0.387 0 0.754 -0.145 0.965 -0.375 c 0.188 -0.207 0.539 -0.375 0.781 -0.375 c 0.242 0 0.586 -0.172 0.762 -0.375 c 0.176 -0.207 0.5 -0.375 0.719 -0.375 c 0.219 0 0.551 -0.172 0.738 -0.375 c 0.203 -0.227 0.574 -0.375 0.918 -0.371 l 0.582 0.004 l -0.656 0.559 c -0.359 0.305 -0.848 0.609 -1.078 0.672 c -0.23 0.063 -0.422 0.188 -0.422 0.277 c 0 0.262 1.293 0.734 2.01 0.734 c 0.441 0 0.621 0.074 0.563 0.234 c -0.047 0.129 -0.195 0.207 -0.328 0.176 c -0.133 -0.031 -0.457 -0.047 -0.727 -0.035 c -0.266 0.008 -1.289 0.039 -2.27 0.063 c -0.98 0.027 -1.887 0.113 -2.02 0.191 c -0.125 0.078 -0.23 0.414 -0.23 0.746 v 0.605 l 2.613 -0.035 c 2.383 -0.031 2.641 -0.004 2.945 0.332 c 0.52 0.574 0.105 0.676 -2.414 0.605 c -1.691 -0.047 -2.344 -0.137 -2.578 -0.348 c -0.555 -0.504 -1.254 -0.301 -0.742 0.215 c 0.113 0.109 0.176 0.488 0.141 0.836 c -0.047 0.488 -0.152 0.645 -0.48 0.691 c -0.418 0.059 -0.422 0.035 -0.422 -2.109 m 9.285 1.41 c -0.637 -0.074 -0.957 -0.203 -0.992 -0.402 c -0.043 -0.215 0.125 -0.297 0.652 -0.324 c 0.391 -0.02 1.355 -0.086 2.145 -0.145 c 1.344 -0.105 1.449 -0.086 1.734 0.32 c 0.281 0.402 0.281 0.441 -0.027 0.563 c -0.383 0.152 -2.176 0.148 -3.516 -0.012 m 0.176 -2.473 c -0.195 -0.316 0.207 -0.59 0.891 -0.609 c 2.293 -0.055 3.586 0.215 2.965 0.625 c -0.391 0.254 -3.695 0.242 -3.855 -0.016 m 10.914 -1.012 c -0.125 -0.324 0.035 -0.844 0.254 -0.844 c 0.168 0 0.375 0.469 0.375 0.859 c 0 0.352 -0.492 0.34 -0.629 -0.016 m 3.105 -1.453 c 0.031 -0.996 0.133 -1.734 0.242 -1.734 c 0.109 0 0.211 0.738 0.242 1.734 c 0.047 1.477 0.008 1.734 -0.242 1.734 c -0.25 0 -0.289 -0.258 -0.242 -1.734 m -3.039 -0.422 c 0 -0.156 0.086 -0.281 0.188 -0.281 c 0.102 0 0.188 0.125 0.188 0.281 c 0 0.152 -0.086 0.281 -0.188 0.281 c -0.102 0 -0.188 -0.129 -0.188 -0.281 m -14.13 -0.934 c 0.063 -0.16 0.227 -0.285 0.371 -0.285 c 0.367 0 0.324 0.137 -0.109 0.371 c -0.301 0.16 -0.352 0.145 -0.262 -0.086 m 13.375 -0.488 c -0.258 -0.48 -0.102 -0.953 0.27 -0.813 c 0.34 0.133 0.512 0.551 0.367 0.922 c -0.148 0.391 -0.391 0.348 -0.637 -0.109 m -11.68 -0.109 c -0.27 -0.273 -0.098 -0.438 0.461 -0.438 c 0.5 0 0.551 0.039 0.352 0.281 c -0.246 0.297 -0.602 0.363 -0.813 0.156 m 14.688 -1.094 c 0 -0.465 0.086 -0.844 0.188 -0.844 c 0.102 0 0.188 0.379 0.188 0.844 c 0 0.461 -0.086 0.844 -0.188 0.844 c -0.102 0 -0.188 -0.383 -0.188 -0.844 m -13.188 0.344 c -0.27 -0.273 -0.098 -0.438 0.461 -0.438 c 0.5 0 0.551 0.039 0.352 0.281 c -0.246 0.297 -0.602 0.363 -0.813 0.156 m 9.316 -0.953 c -0.316 -0.777 -1.691 -2.297 -2.074 -2.297 c -0.316 0 -0.305 -0.219 0.035 -0.668 c 0.266 -0.348 0.332 -0.313 1.5 0.879 c 1.105 1.125 1.223 1.32 1.223 2.02 c 0 0.961 -0.305 0.992 -0.684 0.07 m -7.707 0.203 c -0.441 -0.18 -0.234 -0.438 0.352 -0.438 c 0.5 0 0.551 0.039 0.352 0.281 c -0.242 0.293 -0.32 0.309 -0.703 0.156 m 1.449 -0.816 c -0.379 -0.234 -0.121 -0.41 0.504 -0.34 c 0.508 0.063 0.516 0.074 0.148 0.285 c -0.234 0.133 -0.492 0.152 -0.652 0.055 m 9.48 -0.238 c -0.082 -0.188 -0.094 -0.391 -0.031 -0.453 c 0.191 -0.191 0.344 0.074 0.258 0.445 c -0.078 0.328 -0.09 0.328 -0.227 0.008 m -7.789 -0.695 c 0 -0.105 0.168 -0.188 0.375 -0.188 c 0.207 0 0.375 0.082 0.375 0.188 c 0 0.102 -0.168 0.188 -0.375 0.188 c -0.207 0 -0.375 -0.086 -0.375 -0.188" fill="#5a2217"/><path d="m 30.84 34.613 c 0.066 -0.066 0.59 -0.117 1.164 -0.117 c 0.578 0 1.102 0.051 1.164 0.117 c 0.066 0.063 -0.457 0.117 -1.164 0.117 c -0.703 0 -1.227 -0.055 -1.164 -0.117 m 4.699 -3.352 c 0 -0.828 0.031 -1.141 0.074 -0.699 c 0.039 0.441 0.039 1.117 -0.004 1.5 c -0.039 0.383 -0.07 0.023 -0.07 -0.801 m -23.875 0.281 c 0 -0.516 0.082 -0.938 0.188 -0.938 c 0.102 0 0.188 0.422 0.188 0.938 c 0 0.516 -0.086 0.938 -0.188 0.938 c -0.105 0 -0.188 -0.422 -0.188 -0.938 m 15.973 -0.012 c -0.625 -0.25 -0.328 -0.551 0.539 -0.551 c 0.762 0 1.043 0.402 0.441 0.633 c -0.367 0.141 -0.438 0.137 -0.98 -0.082 m 2.449 0.078 c -0.133 -0.055 -0.234 -0.223 -0.234 -0.375 c 0 -0.211 0.203 -0.262 0.891 -0.219 c 0.641 0.039 0.891 0.137 0.891 0.34 c 0 0.285 -1.063 0.461 -1.547 0.254 m -9.285 -0.836 c -0.5 -0.289 -0.211 -0.543 0.613 -0.543 c 0.836 0 1.113 0.266 0.578 0.551 c -0.457 0.246 -0.766 0.242 -1.191 -0.008 m 3.082 0.008 c -0.586 -0.234 -0.344 -0.551 0.426 -0.551 c 0.605 0 1.16 0.379 0.914 0.625 c -0.168 0.172 -0.816 0.133 -1.34 -0.074 m -11.375 -0.738 c -0.23 -0.371 0.129 -0.563 1.031 -0.563 c 0.93 0 1.379 0.285 0.914 0.578 c -0.355 0.227 -1.805 0.211 -1.945 -0.016 m 3.301 0.016 c -0.141 -0.09 -0.199 -0.258 -0.129 -0.371 c 0.152 -0.246 1.031 -0.273 1.398 -0.039 c 0.207 0.133 0.184 0.207 -0.129 0.371 c -0.465 0.25 -0.789 0.262 -1.141 0.039 m -4.145 -1.234 c 0 -0.156 0.082 -0.281 0.188 -0.281 c 0.102 0 0.188 0.125 0.188 0.281 c 0 0.152 -0.086 0.281 -0.188 0.281 c -0.105 0 -0.188 -0.129 -0.188 -0.281 m 23.777 -2.02 c -0.035 -1.059 0 -2 0.078 -2.102 c 0.078 -0.098 0.145 0.766 0.145 1.922 c 0 1.156 -0.039 2.102 -0.082 2.102 c -0.047 0 -0.109 -0.867 -0.141 -1.922 m -7.84 0.426 c -0.551 -0.348 0.105 -0.566 1.828 -0.602 c 1.809 -0.039 2.035 0.023 1.855 0.492 c -0.09 0.23 -0.445 0.289 -1.758 0.289 c -0.906 -0.004 -1.773 -0.082 -1.926 -0.18 m -15.941 -0.66 c 0 -0.156 0.086 -0.281 0.188 -0.281 c 0.105 0 0.188 0.125 0.188 0.281 c 0 0.152 -0.082 0.281 -0.188 0.281 c -0.102 0 -0.188 -0.129 -0.188 -0.281 m 9.84 -0.105 c -0.25 -0.406 0.238 -0.57 1.523 -0.516 c 1 0.043 1.293 0.121 1.293 0.34 c 0 0.219 -0.297 0.293 -1.344 0.336 c -0.852 0.031 -1.391 -0.023 -1.473 -0.16 m -6.605 -0.676 c -0.352 -0.145 -0.281 -0.586 0.117 -0.711 c 0.402 -0.129 1.336 0.176 1.336 0.434 c 0 0.332 -0.895 0.5 -1.453 0.277 m 2.105 -0.141 c -0.336 -0.246 -0.34 -0.281 -0.051 -0.395 c 0.469 -0.184 0.992 -0.031 0.992 0.285 c 0 0.379 -0.492 0.441 -0.941 0.109 m -3.652 -0.203 c 0 -0.215 0.133 -0.289 0.422 -0.25 c 0.234 0.035 0.422 0.145 0.422 0.25 c 0 0.102 -0.188 0.215 -0.422 0.246 c -0.289 0.043 -0.422 -0.035 -0.422 -0.246 m -1.688 -1.313 v -1.031 h 0.66 c 0.426 0 0.77 -0.133 0.98 -0.375 c 0.176 -0.207 0.539 -0.375 0.813 -0.375 c 0.27 0 0.645 -0.172 0.828 -0.375 c 0.188 -0.207 0.539 -0.375 0.777 -0.375 c 0.242 0 0.547 -0.172 0.676 -0.375 c 0.133 -0.219 0.43 -0.375 0.703 -0.371 l 0.469 0.008 l -0.563 0.465 c -0.309 0.254 -0.836 0.563 -1.172 0.688 c -0.738 0.27 -0.762 0.426 -0.113 0.746 c 0.852 0.422 0.508 0.617 -1.188 0.676 c -1.734 0.059 -2.121 0.215 -2.121 0.867 c 0 0.406 -0.313 0.859 -0.598 0.859 c -0.082 0 -0.152 -0.465 -0.152 -1.031 m 9.859 0.113 c -0.219 -0.352 0.074 -0.582 0.738 -0.582 c 0.574 0 1.012 0.266 0.789 0.488 c -0.215 0.215 -1.41 0.285 -1.527 0.094 m 2.234 -0.027 c -0.074 -0.117 -0.047 -0.301 0.063 -0.41 c 0.25 -0.25 0.84 -0.031 0.738 0.277 c -0.105 0.313 -0.637 0.402 -0.801 0.133 m 11.461 -0.898 c -0.121 -0.191 -0.117 -2.453 0.008 -2.891 c 0.227 -0.828 0.438 -0.18 0.438 1.359 c 0 1.492 -0.148 2.01 -0.445 1.531 m -3.117 -0.313 c 0 -0.156 0.086 -0.281 0.188 -0.281 c 0.105 0 0.188 0.125 0.188 0.281 c 0 0.152 -0.082 0.281 -0.188 0.281 c -0.102 0 -0.188 -0.129 -0.188 -0.281 m -0.676 -3.18 c -0.129 -0.336 0.078 -0.711 0.316 -0.566 c 0.234 0.148 0.223 0.836 -0.02 0.836 c -0.105 0 -0.242 -0.121 -0.297 -0.27 m -11.699 -0.289 c 0 -0.105 0.129 -0.188 0.281 -0.188 c 0.156 0 0.281 0.082 0.281 0.188 c 0 0.102 -0.125 0.188 -0.281 0.188 c -0.152 0 -0.281 -0.086 -0.281 -0.188 m 14.664 -0.766 c 0.063 -0.82 0.336 -0.891 0.336 -0.09 c 0 0.367 -0.086 0.668 -0.191 0.668 c -0.102 0 -0.168 -0.262 -0.145 -0.578 m -13.164 0.016 c 0 -0.105 0.129 -0.188 0.281 -0.188 c 0.156 0 0.281 0.082 0.281 0.188 c 0 0.102 -0.125 0.188 -0.281 0.188 c -0.152 0 -0.281 -0.086 -0.281 -0.188 m 9.211 -1.082 c -0.199 -0.395 -0.762 -1.082 -1.242 -1.527 c -0.598 -0.547 -0.816 -0.867 -0.688 -1 c 0.133 -0.129 0.469 0.035 1.059 0.52 c 1.031 0.844 1.598 1.598 1.598 2.121 c 0 0.68 -0.352 0.625 -0.727 -0.113 m -7.711 0.332 c 0 -0.105 0.129 -0.188 0.281 -0.188 c 0.156 0 0.281 0.082 0.281 0.188 c 0 0.102 -0.125 0.188 -0.281 0.188 c -0.152 0 -0.281 -0.086 -0.281 -0.188 m 1.5 -0.75 c 0 -0.105 0.129 -0.188 0.281 -0.188 c 0.156 0 0.281 0.082 0.281 0.188 c 0 0.102 -0.125 0.188 -0.281 0.188 c -0.152 0 -0.281 -0.086 -0.281 -0.188" fill="#26170c"/></svg>