<svg xmlns="http://www.w3.org/2000/svg" viewBox="0 0 48 48"><path d="m 0.18 14.13 c -4.805 68.21 88.05 17.09 26.906 -11.895 c -9.422 -3.992 -23.473 -1.074 -26.906 11.895" fill="#6a8e22"/><g fill="#fffced" fill-rule="evenodd"><path d="m 32.68 33.703 c -1.125 -0.234 -1.746 -0.574 -2.207 -1.195 c -0.371 -0.504 -0.398 -0.82 -0.461 -5.258 l -0.066 -4.719 h -1.855 v -1.328 h 1.891 v -3.785 h 3.789 v 3.785 h 3.598 v 1.328 h -3.621 l 0.059 4.844 c 0.066 5.488 0.035 5.383 1.598 5.383 c 0.641 0 0.879 -0.102 1.195 -0.5 c 0.215 -0.273 0.391 -0.699 0.391 -0.945 c 0 -0.391 0.094 -0.449 0.688 -0.449 c 0.672 0 0.684 0.012 0.566 0.617 c -0.164 0.836 -0.676 1.496 -1.457 1.887 c -0.789 0.391 -2.988 0.574 -4.105 0.336"/><path d="m 21.539 36.949 c -1.977 -0.254 -3.168 -1.027 -4.258 -2.754 c -0.422 -0.664 -0.82 -1.215 -0.891 -1.215 c -0.695 -0.02 -2.852 -0.441 -3.855 -0.75 c -2.238 -0.691 -4.203 -2.605 -4.965 -4.832 c -0.836 -2.438 -0.5 -6.605 0.684 -8.473 c 1.684 -2.656 4.398 -3.969 8.219 -3.973 c 4.598 0 7.688 2.031 8.984 5.91 c 0.352 1.055 0.398 1.539 0.332 3.406 c -0.105 2.957 -0.641 4.309 -2.406 6.074 c -1.258 1.254 -2.102 1.695 -4.324 2.262 c -0.441 0.109 -0.805 0.273 -0.805 0.355 c 0 0.082 0.441 0.391 0.977 0.684 c 0.703 0.383 1.336 0.555 2.273 0.621 l 1.297 0.094 v 1.395 c 0 0.77 -0.023 1.387 -0.047 1.371 c -0.027 -0.012 -0.574 -0.09 -1.215 -0.176 m -2.965 -5.594 c 0.723 -0.539 1.492 -1.68 1.898 -2.82 c 0.281 -0.789 0.336 -1.566 0.332 -4.641 c -0.008 -3.426 -0.039 -3.777 -0.453 -4.82 c -0.605 -1.523 -1.93 -2.852 -3.03 -3.039 c -1.863 -0.313 -3.629 0.508 -4.512 2.102 c -0.836 1.516 -1.043 2.887 -0.957 6.402 c 0.066 2.754 0.141 3.391 0.488 4.277 c 0.496 1.262 1.414 2.418 2.203 2.773 c 0.906 0.41 3.352 0.266 4.03 -0.234"/></g></svg>