<svg xmlns="http://www.w3.org/2000/svg" viewBox="0 0 48 48"><path d="m 40.559 6.04 c 22.488 19.504 -11.129 55.852 -32.852 35.66 c -21.754 -17.05 9.633 -55.789 32.852 -35.66" fill="#695acd"/><path d="m 23.602 41.25 c -0.152 -0.688 -0.23 -1.402 -0.168 -1.594 c 0.078 -0.246 0.035 -0.344 -0.152 -0.344 c -0.336 0 -0.344 -0.477 -0.012 -0.605 c 0.137 -0.051 0.25 -0.23 0.25 -0.398 c 0 -0.168 0.074 -0.352 0.168 -0.41 c 0.309 -0.188 0.172 -0.527 -0.293 -0.727 l -0.461 -0.199 l 0.418 0.332 c 0.324 0.25 0.375 0.371 0.223 0.523 c -0.109 0.109 -0.297 0.148 -0.418 0.086 c -0.785 -0.398 -1.063 -0.625 -1.074 -0.883 c -0.051 -0.84 -0.074 -0.879 -0.527 -0.895 c -0.363 -0.008 -0.301 -0.055 0.293 -0.215 c 0.414 -0.113 0.828 -0.164 0.918 -0.117 c 0.094 0.051 0.035 0.117 -0.125 0.148 c -0.16 0.031 -0.293 0.117 -0.293 0.195 c 0 0.227 0.457 0.094 0.871 -0.254 l 0.387 -0.324 l -0.32 0.375 c -0.176 0.203 -0.289 0.395 -0.254 0.422 c 0.039 0.023 0.277 0.148 0.531 0.273 c 0.359 0.184 0.461 0.348 0.461 0.777 c 0 0.301 -0.078 0.59 -0.168 0.648 c -0.094 0.055 -0.16 0.266 -0.152 0.465 c 0.016 0.34 0.027 0.34 0.152 -0.051 c 0.086 -0.262 0.133 0.281 0.125 1.457 c -0.008 1.031 0.047 1.93 0.113 2 c 0.07 0.066 0.105 -0.102 0.078 -0.375 c -0.027 -0.277 0.043 -0.664 0.152 -0.867 c 0.223 -0.402 0.27 -0.91 0.141 -1.547 c -0.344 -1.723 -0.352 -1.637 0.195 -1.949 c 0.277 -0.16 0.543 -0.457 0.582 -0.664 c 0.039 -0.207 0.012 -0.336 -0.063 -0.293 c -0.07 0.043 -0.172 0.012 -0.227 -0.074 c -0.051 -0.082 0.109 -0.133 0.359 -0.105 c 0.402 0.047 0.418 0.027 0.16 -0.16 c -0.254 -0.188 -0.223 -0.207 0.258 -0.18 c 0.52 0.027 0.551 0.063 0.523 0.617 c -0.023 0.543 0.043 0.633 0.797 1.07 c 0.809 0.469 0.957 0.738 0.477 0.867 c -0.195 0.051 -0.195 0.031 0.008 -0.113 c 0.227 -0.156 0.227 -0.18 0 -0.199 c -0.137 -0.012 -0.363 -0.012 -0.5 0.004 c -0.203 0.023 -0.207 -0.004 -0.027 -0.121 c 0.18 -0.125 0.172 -0.172 -0.039 -0.254 c -0.145 -0.055 -0.254 -0.047 -0.238 0.02 c 0.012 0.066 -0.035 0.254 -0.109 0.418 c -0.117 0.27 -0.16 0.273 -0.52 0.039 c -0.219 -0.141 -0.523 -0.254 -0.684 -0.254 c -0.258 0 -0.254 0.027 0.035 0.246 c 0.309 0.234 0.301 0.242 -0.176 0.188 c -0.277 -0.031 -0.402 -0.023 -0.281 0.016 c 0.121 0.043 0.184 0.18 0.133 0.309 c -0.047 0.125 -0.016 0.273 0.07 0.328 c 0.25 0.152 0.191 0.41 -0.094 0.41 c -0.191 0 -0.227 0.109 -0.141 0.441 c 0.078 0.313 0.031 0.5 -0.156 0.637 c -0.172 0.125 -0.281 0.512 -0.316 1.098 c -0.039 0.684 -0.117 0.914 -0.332 0.953 c -0.223 0.043 -0.336 -0.199 -0.559 -1.195 m 0.195 -1.473 c -0.047 -0.117 -0.082 -0.023 -0.082 0.207 c 0 0.227 0.035 0.32 0.082 0.207 c 0.047 -0.113 0.047 -0.301 0 -0.414 m 1.57 -2.164 l 0.406 -0.375 l -0.387 -0.055 c -0.371 -0.055 -1.031 0.371 -1.031 0.66 c 0 0.277 0.613 0.137 1.012 -0.23 m 1.066 0.234 c 0.047 -0.078 -0.023 -0.141 -0.152 -0.141 c -0.129 0 -0.199 0.063 -0.148 0.141 c 0.047 0.078 0.113 0.141 0.148 0.141 c 0.035 0 0.102 -0.063 0.152 -0.141 m -3.75 0.457 c 0 -0.406 0.391 -0.348 0.473 0.07 c 0.031 0.164 -0.055 0.277 -0.211 0.277 c -0.152 0 -0.262 -0.141 -0.262 -0.348 m -2.164 -0.266 c -0.008 -0.203 0.063 -0.414 0.156 -0.469 c 0.195 -0.121 0.195 0.043 0 0.5 c -0.141 0.32 -0.145 0.32 -0.156 -0.031 m 3.863 -1.199 c -0.164 -0.102 -0.105 -0.164 0.215 -0.223 c 0.27 -0.051 0.418 -0.016 0.383 0.09 c -0.082 0.246 -0.332 0.301 -0.598 0.133 m -5.715 -0.344 c 0 -0.176 0.063 -0.359 0.141 -0.41 c 0.078 -0.047 0.109 0.098 0.066 0.324 c -0.098 0.492 -0.207 0.539 -0.207 0.086 m 9.242 -0.008 c -0.301 -0.184 -0.68 -0.336 -0.836 -0.336 c -0.25 -0.004 -0.254 -0.023 -0.039 -0.164 c 0.207 -0.133 0.195 -0.164 -0.082 -0.176 c -0.324 -0.012 -0.328 -0.016 -0.016 -0.141 c 0.289 -0.109 0.293 -0.137 0.047 -0.23 c -0.164 -0.063 -0.238 -0.211 -0.18 -0.359 c 0.055 -0.141 0.176 -0.207 0.273 -0.148 c 0.102 0.063 0.125 0.027 0.059 -0.086 c -0.172 -0.273 -0.438 -0.238 -0.438 0.059 c 0 0.32 -0.164 0.316 -0.637 -0.012 c -0.352 -0.246 -0.426 -0.234 -1.09 0.152 l -0.715 0.414 l -0.91 -0.559 c -0.5 -0.305 -0.934 -0.531 -0.965 -0.5 c -0.031 0.027 -0.063 0.27 -0.07 0.535 c -0.012 0.504 -0.27 0.609 -1.109 0.445 c -0.34 -0.066 -0.363 -0.109 -0.168 -0.359 c 0.207 -0.258 0.199 -0.262 -0.082 -0.043 c -0.301 0.234 -0.301 0.246 0 0.469 c 0.168 0.125 0.477 0.195 0.684 0.156 c 0.207 -0.039 0.379 -0.004 0.379 0.074 c 0 0.246 -0.953 0.156 -1.176 -0.109 c -0.117 -0.141 -0.332 -0.219 -0.48 -0.172 c -0.148 0.047 -0.367 0.023 -0.48 -0.051 c -0.156 -0.094 -0.098 -0.195 0.207 -0.355 c 0.523 -0.277 0.813 -1.195 0.828 -2.621 c 0.012 -0.969 0.043 -1.051 0.473 -1.227 c 0.387 -0.16 0.461 -0.289 0.461 -0.824 c 0 -0.477 0.102 -0.715 0.418 -0.961 c 0.23 -0.18 0.418 -0.43 0.422 -0.551 c 0 -0.125 0.109 -0.527 0.242 -0.895 c 0.379 -1.039 0.32 -1.129 -0.402 -0.652 c -0.363 0.238 -0.723 0.398 -0.801 0.348 c -0.074 -0.047 -0.402 -0.023 -0.719 0.051 l -0.582 0.137 l 0.699 0.02 c 0.387 0.008 0.738 0.074 0.781 0.141 c 0.043 0.07 -0.023 0.363 -0.145 0.652 c -0.227 0.539 -0.738 0.926 -1.113 0.848 c -0.215 -0.047 -0.25 0.059 -0.285 0.832 c -0.02 0.363 -0.18 0.539 -0.793 0.863 c -0.422 0.223 -0.883 0.578 -1.023 0.789 c -0.141 0.211 -0.391 0.387 -0.559 0.387 c -0.172 0 -0.387 0.129 -0.48 0.289 c -0.094 0.16 -0.172 0.215 -0.176 0.117 c 0 -0.098 0.086 -0.266 0.195 -0.375 c 0.113 -0.109 0.129 -0.199 0.035 -0.199 c -0.41 0 -0.57 0.457 -0.57 1.633 v 1.238 l -0.375 -0.246 c -0.258 -0.172 -0.422 -0.504 -0.516 -1.063 c -0.172 -0.996 -0.336 -1.32 -0.652 -1.293 c -0.184 0.012 -0.238 -0.164 -0.219 -0.711 c 0.031 -0.836 0.34 -1.293 0.594 -0.891 c 0.211 0.328 0.207 0.711 0 0.582 c -0.094 -0.055 -0.125 0.008 -0.07 0.145 c 0.113 0.293 0.77 0.48 1.168 0.328 c 0.199 -0.078 0.254 -0.051 0.172 0.082 c -0.078 0.125 -0.027 0.156 0.16 0.086 c 0.254 -0.098 0.254 -0.121 0.008 -0.258 c -0.148 -0.082 -0.277 -0.352 -0.285 -0.598 c -0.016 -0.379 -0.035 -0.398 -0.125 -0.117 c -0.059 0.184 -0.223 0.355 -0.359 0.387 c -0.203 0.043 -0.211 0.012 -0.043 -0.16 c 0.355 -0.359 0.238 -0.563 -0.543 -0.941 l -0.754 -0.363 v -0.898 c 0 -0.785 -0.047 -0.91 -0.371 -0.992 c -0.523 -0.137 -0.574 -0.008 -0.23 0.57 c 0.352 0.598 0.254 0.773 -0.293 0.527 c -0.262 -0.121 -0.469 -0.125 -0.629 -0.012 c -0.195 0.137 -0.188 0.152 0.027 0.086 c 0.207 -0.066 0.246 0.02 0.188 0.406 c -0.047 0.344 0.023 0.57 0.242 0.746 c 0.234 0.191 0.246 0.234 0.047 0.176 c -0.457 -0.141 -0.711 0.133 -0.379 0.398 c 0.238 0.195 0.266 0.195 0.152 0.008 c -0.098 -0.16 -0.07 -0.203 0.094 -0.148 c 0.129 0.047 0.211 0.176 0.188 0.285 c -0.027 0.109 0.031 0.152 0.125 0.094 c 0.254 -0.156 0.504 0.055 0.398 0.336 c -0.055 0.133 -0.176 0.195 -0.27 0.137 c -0.105 -0.066 -0.129 -0.031 -0.059 0.082 c 0.066 0.105 0.227 0.191 0.359 0.191 c 0.172 0 0.25 0.223 0.27 0.75 c 0.016 0.41 0.035 0.879 0.043 1.039 c 0.008 0.16 -0.109 0.313 -0.258 0.34 c -0.328 0.063 -0.887 -1.016 -0.762 -1.48 c 0.051 -0.203 -0.031 -0.379 -0.238 -0.488 c -0.273 -0.148 -0.316 -0.113 -0.316 0.25 c 0 0.465 -0.406 0.586 -0.563 0.172 c -0.121 -0.301 -0.445 -0.332 -0.445 -0.035 c 0 0.117 -0.316 0.293 -0.711 0.398 c -0.391 0.102 -0.875 0.238 -1.078 0.305 c -0.301 0.098 -0.363 0.055 -0.34 -0.234 c 0.027 -0.363 0.289 -0.5 0.289 -0.152 c 0 0.109 0.102 0.063 0.227 -0.105 c 0.125 -0.176 0.313 -0.254 0.422 -0.188 c 0.117 0.07 0.18 0.035 0.152 -0.086 c -0.027 -0.113 0.129 -0.297 0.344 -0.41 c 0.578 -0.297 0.824 -0.574 0.512 -0.574 c -0.137 0 -0.328 0.078 -0.426 0.176 c -0.23 0.23 -0.633 -0.242 -0.5 -0.59 c 0.141 -0.367 0.496 -0.309 0.934 0.152 c 0.211 0.223 0.484 0.375 0.613 0.336 c 0.785 -0.242 0.793 -0.25 0.598 -0.445 c -0.109 -0.105 -0.207 -0.57 -0.223 -1.035 c -0.02 -0.645 -0.043 -0.707 -0.09 -0.258 c -0.035 0.32 -0.109 0.695 -0.168 0.832 c -0.059 0.137 -0.094 0.297 -0.086 0.352 c 0.035 0.184 -0.539 0.066 -0.926 -0.188 c -0.207 -0.133 -0.379 -0.383 -0.379 -0.555 c 0 -0.246 0.086 -0.289 0.418 -0.207 c 0.539 0.137 0.527 0.066 -0.082 -0.543 c -0.52 -0.516 -0.676 -1.188 -0.273 -1.188 c 0.129 0 0.336 0.125 0.461 0.281 c 0.203 0.246 0.195 0.266 -0.074 0.164 c -0.234 -0.086 -0.289 -0.043 -0.242 0.18 c 0.035 0.16 0.16 0.27 0.277 0.242 c 0.117 -0.023 0.172 0.023 0.121 0.102 c -0.051 0.082 0.098 0.109 0.332 0.066 l 0.422 -0.078 l -0.344 -0.367 c -0.629 -0.664 -0.301 -0.82 0.512 -0.246 l 0.488 0.348 l -0.207 -0.473 c -0.109 -0.258 -0.609 -0.855 -1.109 -1.328 c -1.297 -1.227 -0.828 -1.711 0.691 -0.711 c 0.848 0.563 1.539 0.605 1.539 0.098 c 0 -0.203 0.207 -0.375 0.625 -0.52 c 0.551 -0.191 0.926 -0.402 1.723 -0.992 c 0.141 -0.102 0.305 -0.063 0.492 0.125 c 0.34 0.34 0.574 0.344 1 0.023 c 0.395 -0.297 0.777 -0.32 0.723 -0.043 c -0.027 0.121 0.164 0.203 0.484 0.207 c 0.289 0.004 0.496 -0.043 0.457 -0.105 c -0.035 -0.063 0.344 -0.195 0.852 -0.301 c 1.012 -0.211 1.383 -0.5 0.641 -0.5 c -0.258 0 -0.734 -0.086 -1.055 -0.188 c -0.32 -0.102 -0.961 -0.199 -1.422 -0.215 c -0.461 -0.016 -1.035 -0.09 -1.273 -0.16 c -0.309 -0.09 -0.512 -0.055 -0.699 0.133 c -0.352 0.348 -0.469 0.328 -0.934 -0.156 c -0.215 -0.227 -0.453 -0.375 -0.527 -0.332 c -0.074 0.047 -0.445 -0.082 -0.824 -0.281 c -0.594 -0.316 -0.781 -0.344 -1.348 -0.191 c -0.363 0.098 -0.625 0.117 -0.578 0.043 c 0.207 -0.332 -0.285 -0.27 -0.848 0.109 c -0.402 0.273 -0.688 0.367 -0.793 0.266 c -0.246 -0.246 0.004 -0.797 0.508 -1.121 l 0.453 -0.289 l -0.313 0.352 l -0.309 0.348 l 0.73 -0.043 c 0.609 -0.039 1.711 -0.418 1.25 -0.434 c -0.078 -0.004 -0.051 -0.117 0.066 -0.258 c 0.172 -0.203 0.258 -0.211 0.469 -0.043 c 0.219 0.176 0.238 0.172 0.121 -0.023 c -0.109 -0.176 -0.074 -0.211 0.121 -0.137 c 0.199 0.078 0.25 0.02 0.203 -0.23 c -0.039 -0.211 0.012 -0.309 0.137 -0.266 c 0.113 0.039 0.191 0.195 0.18 0.344 c -0.027 0.297 0.195 0.371 0.352 0.121 c 0.051 -0.086 0.02 -0.203 -0.074 -0.262 c -0.094 -0.055 -0.172 -0.609 -0.172 -1.227 v -1.125 l 0.672 -0.375 c 0.66 -0.371 0.668 -0.391 0.664 -1.32 c -0.004 -0.727 -0.047 -0.879 -0.176 -0.656 c -0.094 0.16 -0.254 0.293 -0.352 0.293 c -0.113 0 -0.094 -0.109 0.043 -0.293 c 0.187 -0.246 0.187 -0.262 -0.016 -0.082 c -0.148 0.133 -0.219 0.461 -0.188 0.875 c 0.039 0.516 -0.012 0.664 -0.215 0.664 c -0.16 0 -0.27 -0.148 -0.273 -0.375 l -0.012 -0.375 l -0.152 0.375 c -0.082 0.207 -0.199 0.375 -0.258 0.375 c -0.059 0 -0.063 -0.121 -0.004 -0.27 c 0.074 -0.188 0.031 -0.238 -0.137 -0.176 c -0.188 0.07 -0.234 -0.055 -0.211 -0.563 c 0.023 -0.563 0.082 -0.656 0.406 -0.656 c 0.207 0 0.375 0.086 0.375 0.191 c 0 0.113 0.129 0.078 0.313 -0.09 c 0.203 -0.18 0.348 -0.609 0.41 -1.215 c 0.055 -0.516 0.164 -0.98 0.242 -1.035 c 0.082 -0.055 0.199 -0.23 0.258 -0.391 c 0.293 -0.793 0.738 0.395 0.535 1.43 c -0.082 0.414 -0.063 0.473 0.09 0.277 c 0.148 -0.199 0.172 -0.121 0.105 0.363 c -0.09 0.625 0.238 1.184 0.469 0.809 c 0.105 -0.164 -0.008 -0.238 -0.289 -0.191 c -0.07 0.008 -0.082 -0.188 -0.02 -0.441 c 0.141 -0.582 0.23 -0.688 0.23 -0.27 c 0 0.184 0.266 0.582 0.586 0.895 c 0.391 0.375 0.52 0.602 0.391 0.684 c -0.191 0.117 0.848 0.477 1.391 0.48 c 0.207 0 0.277 0.156 0.277 0.613 c 0 0.629 0.086 0.734 1.027 1.254 c 0.422 0.23 0.512 0.387 0.512 0.863 c 0 0.32 0.078 0.625 0.172 0.684 c 0.094 0.059 0.121 0.184 0.063 0.277 c -0.07 0.113 -0.16 0.094 -0.25 -0.051 c -0.121 -0.188 -0.145 -0.188 -0.148 -0.004 c 0 0.125 0.148 0.262 0.332 0.313 c 0.512 0.133 0.398 0.32 -0.164 0.281 c -0.289 -0.02 -0.461 0.035 -0.402 0.125 c 0.055 0.09 0.211 0.121 0.348 0.066 c 0.133 -0.051 0.355 0.02 0.496 0.156 c 0.262 0.262 0.73 0.34 0.727 0.125 c -0.008 -0.234 -0.328 -0.641 -0.332 -0.418 c 0 0.117 -0.059 0.211 -0.129 0.211 c -0.066 0 -0.125 -0.188 -0.125 -0.418 c 0 -0.535 0.145 -0.523 0.559 0.039 l 0.332 0.457 l -0.129 -0.664 c -0.188 -0.938 -0.48 -1.609 -0.855 -1.957 c -0.211 -0.195 -0.324 -0.523 -0.324 -0.934 c 0 -0.508 -0.078 -0.668 -0.402 -0.816 c -0.359 -0.16 -0.414 -0.316 -0.48 -1.316 c -0.117 -1.691 -0.285 -2.109 -1.168 -2.879 c -1.266 -1.109 -0.984 -1.773 0.387 -0.91 c 0.371 0.23 0.746 0.375 0.84 0.32 c 0.09 -0.059 0.145 -0.004 0.117 0.113 c -0.023 0.121 0.125 0.242 0.336 0.273 c 0.207 0.035 0.543 0.277 0.742 0.543 l 0.359 0.484 l 0.742 -0.41 c 0.918 -0.512 1.18 -0.516 2.125 -0.043 c 0.547 0.277 0.746 0.477 0.75 0.75 c 0.008 0.406 -0.156 0.48 -0.445 0.195 c -0.129 -0.133 -0.211 -0.129 -0.297 0.004 c -0.063 0.102 -0.02 0.164 0.102 0.137 c 0.117 -0.023 0.215 0.07 0.219 0.207 c 0.004 0.137 0.16 0.25 0.344 0.25 c 0.199 0 0.316 -0.094 0.285 -0.234 c -0.027 -0.129 0.047 -0.297 0.168 -0.375 c 0.164 -0.105 0.168 -0.137 0.008 -0.137 c -0.117 -0.004 -0.211 -0.113 -0.211 -0.242 c 0 -0.133 -0.227 -0.398 -0.5 -0.594 c -0.492 -0.348 -0.68 -0.832 -0.324 -0.832 c 0.098 0 0.133 0.066 0.082 0.148 c -0.047 0.078 0.039 0.246 0.199 0.371 c 0.266 0.207 0.27 0.199 0.063 -0.063 c -0.273 -0.348 -0.063 -0.375 0.371 -0.051 c 0.234 0.18 0.422 0.191 0.809 0.059 c 0.383 -0.133 0.449 -0.215 0.281 -0.332 c -0.152 -0.105 -0.098 -0.121 0.172 -0.043 c 0.27 0.074 0.359 0.051 0.285 -0.07 c -0.074 -0.117 -0.016 -0.145 0.172 -0.074 c 0.23 0.09 0.27 0.039 0.188 -0.262 c -0.078 -0.297 -0.051 -0.332 0.129 -0.184 c 0.172 0.141 0.328 0.125 0.629 -0.074 c 0.223 -0.141 0.453 -0.211 0.516 -0.148 c 0.219 0.219 0.105 0.535 -0.227 0.641 c -0.184 0.059 -0.285 0.188 -0.227 0.285 c 0.074 0.117 0.035 0.133 -0.109 0.043 c -0.156 -0.098 -0.191 -0.063 -0.121 0.121 c 0.059 0.156 -0.063 0.398 -0.305 0.609 c -0.227 0.195 -0.406 0.531 -0.406 0.75 c 0 0.422 -0.391 0.859 -0.637 0.707 c -0.078 -0.047 -0.137 0.309 -0.133 0.797 c 0.012 0.637 0.074 0.863 0.223 0.809 c 0.402 -0.152 0.207 0.465 -0.207 0.652 c -0.277 0.125 -0.418 0.324 -0.418 0.59 c 0 0.488 -0.301 1.086 -0.492 0.969 c -0.074 -0.047 -0.184 0.211 -0.242 0.57 c -0.074 0.469 -0.172 0.633 -0.34 0.57 c -0.129 -0.051 -0.281 -0.008 -0.344 0.09 c -0.063 0.102 -0.184 0.141 -0.266 0.086 c -0.086 -0.051 -0.109 0.023 -0.055 0.168 c 0.09 0.234 0.129 0.23 0.328 -0.031 c 0.262 -0.344 0.273 -0.23 0.086 0.746 c -0.125 0.641 -0.113 0.688 0.133 0.504 c 0.633 -0.484 1.691 -1.727 1.691 -1.988 c 0 -0.152 0.266 -0.441 0.586 -0.641 c 0.508 -0.313 0.586 -0.445 0.586 -1.012 c 0 -0.57 0.047 -0.652 0.387 -0.652 c 0.215 0 0.648 -0.234 0.965 -0.516 c 0.316 -0.285 0.742 -0.633 0.949 -0.77 c 0.27 -0.18 0.383 -0.426 0.395 -0.855 c 0.02 -0.684 0.141 -1.121 0.441 -1.605 c 0.211 -0.332 0.211 -0.332 0.477 0 c 0.191 0.242 0.238 0.547 0.176 1.125 c -0.051 0.434 -0.023 0.789 0.063 0.789 c 0.086 0 0.105 0.133 0.047 0.293 c -0.094 0.246 -0.07 0.258 0.148 0.082 c 0.211 -0.172 0.297 -0.168 0.453 0.02 c 0.152 0.184 0.117 0.227 -0.188 0.207 c -0.223 -0.012 -0.379 0.078 -0.379 0.219 c 0 0.129 -0.105 0.27 -0.234 0.313 c -0.141 0.047 -0.184 0.004 -0.113 -0.113 c 0.066 -0.109 0.004 -0.188 -0.156 -0.188 c -0.152 0 -0.219 0.082 -0.156 0.184 c 0.078 0.129 0.004 0.125 -0.246 -0.008 c -0.195 -0.105 -0.309 -0.273 -0.246 -0.375 c 0.074 -0.117 0.039 -0.137 -0.09 -0.055 c -0.141 0.086 -0.156 0.184 -0.039 0.293 c 0.09 0.094 0.129 0.273 0.078 0.398 c -0.047 0.125 0 0.23 0.105 0.23 c 0.109 0 0.164 0.055 0.121 0.125 c -0.043 0.066 0.027 0.223 0.156 0.34 c 0.195 0.18 0.234 0.137 0.238 -0.25 c 0 -0.363 0.039 -0.41 0.164 -0.215 c 0.125 0.191 0.164 0.199 0.164 0.023 c 0.004 -0.16 0.129 -0.195 0.441 -0.117 c 0.344 0.086 0.422 0.059 0.348 -0.133 c -0.051 -0.133 0.039 -0.363 0.207 -0.512 c 0.203 -0.184 0.27 -0.414 0.211 -0.723 c -0.078 -0.406 -0.059 -0.43 0.191 -0.227 c 0.254 0.207 0.277 0.16 0.262 -0.5 c -0.016 -0.609 -0.039 -0.66 -0.152 -0.309 l -0.133 0.414 l -0.016 -0.426 c -0.02 -0.52 0.363 -1.082 0.625 -0.922 c 0.109 0.07 0.195 0.539 0.195 1.094 c 0 0.625 0.074 1.01 0.207 1.059 c 0.152 0.063 0.145 0.09 -0.023 0.098 c -0.18 0.012 -0.16 0.102 0.082 0.387 c 0.258 0.301 0.266 0.328 0.027 0.145 c -0.254 -0.195 -0.293 -0.188 -0.293 0.055 c 0 0.16 0.246 0.379 0.586 0.52 c 0.434 0.184 0.578 0.34 0.566 0.617 c -0.016 0.285 -0.039 0.305 -0.098 0.078 c -0.043 -0.16 -0.16 -0.242 -0.258 -0.184 c -0.098 0.063 -0.133 0.035 -0.074 -0.055 c 0.055 -0.094 -0.078 -0.25 -0.297 -0.348 c -0.316 -0.145 -0.418 -0.133 -0.492 0.059 c -0.051 0.129 -0.246 0.238 -0.434 0.238 c -0.191 0 -0.34 0.109 -0.34 0.254 c 0 0.227 -0.051 0.227 -0.492 0 c -0.551 -0.281 -1.012 -0.332 -1.012 -0.105 c 0 0.082 0.172 0.191 0.379 0.242 c 0.77 0.191 1.129 0.719 1.129 1.664 c 0 0.48 -0.094 0.965 -0.203 1.074 c -0.156 0.156 -0.117 0.199 0.168 0.199 c 0.398 0 0.5 0.254 0.16 0.391 c -0.117 0.047 -0.043 0.09 0.16 0.098 c 0.258 0.008 0.344 0.086 0.277 0.262 c -0.07 0.18 0.012 0.246 0.297 0.238 c 0.371 -0.012 0.375 -0.02 0.059 -0.156 c -0.309 -0.133 -0.301 -0.145 0.086 -0.172 l 0.418 -0.027 l -0.418 -0.121 c -0.23 -0.07 -0.402 -0.211 -0.379 -0.316 c 0.078 -0.359 0.082 -0.441 0.047 -0.859 l -0.039 -0.418 l -0.141 0.418 c -0.113 0.328 -0.133 0.262 -0.102 -0.332 c 0.039 -0.684 0.078 -0.75 0.469 -0.746 c 0.332 0.004 0.41 -0.063 0.348 -0.301 c -0.07 -0.262 -0.012 -0.289 0.402 -0.191 c 0.266 0.066 0.594 0.211 0.73 0.324 c 0.141 0.113 0.559 0.359 0.934 0.547 c 0.738 0.371 1.43 1.027 0.852 0.813 c -0.168 -0.063 -0.414 -0.113 -0.551 -0.113 c -0.145 0 -0.199 -0.082 -0.129 -0.191 c 0.07 -0.113 0.047 -0.148 -0.055 -0.086 c -0.098 0.059 -0.223 -0.008 -0.277 -0.152 c -0.055 -0.141 -0.176 -0.211 -0.27 -0.156 c -0.27 0.168 -0.199 0.324 0.293 0.625 c 0.254 0.156 0.363 0.285 0.246 0.289 c -0.121 0 -0.398 -0.113 -0.621 -0.258 c -0.223 -0.145 -0.613 -0.242 -0.871 -0.215 c -0.258 0.027 -0.559 -0.008 -0.668 -0.074 c -0.324 -0.199 -0.441 0.215 -0.152 0.535 c 0.148 0.16 0.758 0.578 1.355 0.926 c 1.012 0.59 1.473 1.195 0.793 1.047 c -0.16 -0.035 -0.277 -0.145 -0.258 -0.242 c 0.02 -0.098 -0.094 -0.168 -0.25 -0.156 c -0.168 0.012 -0.266 -0.074 -0.234 -0.215 c 0.043 -0.199 0.008 -0.199 -0.223 -0.008 c -0.258 0.211 -0.254 0.246 0.02 0.445 c 0.418 0.301 -0.004 0.273 -0.621 -0.043 c -0.48 -0.246 -1.43 -0.203 -1.652 0.07 c -0.047 0.059 -0.348 0.238 -0.672 0.395 c -0.32 0.16 -0.707 0.379 -0.855 0.484 c -0.219 0.156 -0.371 0.125 -0.77 -0.156 c -0.473 -0.336 -0.516 -0.34 -0.902 -0.07 c -0.227 0.164 -0.762 0.297 -1.238 0.313 c -1.078 0.039 -1.625 0.141 -2.098 0.391 l -0.383 0.207 l 0.527 0.219 c 0.555 0.234 0.715 0.57 0.27 0.57 c -0.16 0 -0.215 -0.078 -0.141 -0.207 c 0.066 -0.113 0.063 -0.156 -0.012 -0.09 c -0.074 0.066 -0.277 0.043 -0.457 -0.055 c -0.293 -0.152 -0.309 -0.137 -0.148 0.16 c 0.238 0.445 1.02 1.043 1.207 0.926 c 0.086 -0.051 0.102 -0.18 0.039 -0.289 c -0.063 -0.105 -0.055 -0.141 0.02 -0.074 c 0.18 0.16 0.789 -0.184 0.668 -0.379 c -0.055 -0.086 -0.188 -0.156 -0.297 -0.156 c -0.121 0.004 -0.098 0.066 0.051 0.164 c 0.141 0.09 0.168 0.164 0.063 0.164 c -0.242 0.004 -0.594 -0.414 -0.457 -0.547 c 0.055 -0.055 0.309 0.004 0.559 0.133 c 0.355 0.18 0.5 0.188 0.66 0.035 c 0.113 -0.109 0.191 -0.125 0.172 -0.035 c -0.066 0.363 0.02 0.449 0.258 0.254 c 0.137 -0.113 0.199 -0.289 0.137 -0.391 c -0.063 -0.102 0.176 -0.012 0.527 0.195 l 0.641 0.375 l 0.383 -0.359 c 0.398 -0.375 0.832 -0.297 0.672 0.117 c -0.051 0.133 -0.023 0.199 0.063 0.145 c 0.086 -0.051 0.441 0.059 0.793 0.242 c 0.348 0.188 0.789 0.34 0.98 0.34 c 0.258 0 0.348 0.098 0.34 0.371 c -0.012 0.301 0.09 0.387 0.488 0.426 c 0.387 0.035 0.445 0.008 0.25 -0.125 c -0.223 -0.148 -0.223 -0.168 0 -0.176 c 0.188 -0.004 0.199 -0.039 0.047 -0.133 c -0.141 -0.09 -0.02 -0.215 0.371 -0.391 c 0.32 -0.145 0.543 -0.207 0.5 -0.137 c -0.117 0.191 0.336 0.316 0.59 0.164 c 0.27 -0.168 0.703 -0.023 0.574 0.188 c -0.168 0.266 -1.652 0.934 -1.895 0.848 c -0.129 -0.043 -0.188 -0.008 -0.129 0.086 c 0.055 0.09 -0.051 0.301 -0.234 0.469 c -0.246 0.219 -0.313 0.426 -0.238 0.75 c 0.066 0.316 0.02 0.477 -0.16 0.543 c -0.184 0.07 -0.289 -0.031 -0.359 -0.352 c -0.211 -0.965 -0.41 -1.285 -0.809 -1.309 c -0.262 -0.016 -0.469 0.113 -0.609 0.375 c -0.273 0.508 -0.828 0.535 -0.828 0.043 c 0 -0.195 0.129 -0.453 0.289 -0.566 c 0.254 -0.184 0.23 -0.199 -0.188 -0.121 c -0.277 0.055 -0.516 0.223 -0.563 0.402 c -0.043 0.168 -0.152 0.309 -0.238 0.309 c -0.086 0 -0.109 -0.078 -0.047 -0.176 c 0.063 -0.102 0.008 -0.156 -0.117 -0.129 c -0.281 0.066 -0.977 -0.605 -0.977 -0.945 c 0 -0.395 0.328 -0.289 0.5 0.168 c 0.188 0.492 0.336 0.539 0.336 0.113 c 0 -0.418 -0.805 -0.855 -0.996 -0.543 c -0.078 0.121 -0.242 0.172 -0.367 0.105 c -0.125 -0.063 -0.094 -0.008 0.066 0.121 c 0.16 0.133 0.293 0.352 0.293 0.484 c 0 0.137 0.18 0.328 0.398 0.43 c 0.219 0.098 0.664 0.41 0.988 0.695 c 0.676 0.594 0.922 0.594 1.332 0.008 c 0.16 -0.227 0.293 -0.352 0.293 -0.27 c 0 0.078 0.102 0.063 0.227 -0.043 c 0.172 -0.141 0.285 -0.113 0.48 0.105 c 0.195 0.223 0.227 0.512 0.141 1.242 c -0.063 0.523 -0.145 0.977 -0.188 1 c -0.039 0.031 -0.363 0.203 -0.715 0.383 c -0.754 0.383 -0.883 0.539 -0.645 0.781 c 0.168 0.164 0.121 2.492 -0.066 3.414 c -0.152 0.73 -0.895 0.199 -0.902 -0.645 c -0.012 -0.863 -0.215 -1.469 -0.527 -1.566 c -0.176 -0.055 -0.316 -0.203 -0.316 -0.328 c 0 -0.125 -0.41 -0.477 -0.914 -0.781 c -0.777 -0.465 -0.918 -0.625 -0.922 -1.047 c -0.008 -0.387 -0.145 -0.59 -0.594 -0.879 c -0.32 -0.207 -0.582 -0.512 -0.582 -0.684 c 0 -0.172 -0.113 -0.406 -0.25 -0.52 c -0.141 -0.113 -0.254 -0.277 -0.254 -0.359 c 0 -0.086 -0.301 -0.449 -0.668 -0.805 c -0.367 -0.359 -0.668 -0.633 -0.668 -0.605 c 0 0.023 0.121 0.398 0.27 0.832 c 0.145 0.43 0.234 0.961 0.191 1.176 c -0.055 0.293 0.043 0.457 0.402 0.668 c 0.406 0.238 0.473 0.383 0.473 1 c 0 0.645 0.055 0.75 0.504 0.945 c 0.488 0.215 0.695 0.641 0.313 0.641 c -0.125 0 -0.156 0.234 -0.094 0.699 c 0.059 0.453 0.039 0.613 -0.063 0.457 c -0.125 -0.203 -0.152 -0.195 -0.152 0.035 c -0.004 0.152 -0.098 0.316 -0.215 0.363 c -0.113 0.047 -0.008 0.09 0.234 0.098 c 0.551 0.016 0.781 0.613 0.297 0.766 c -0.176 0.055 -0.395 0.055 -0.484 -0.004 c -0.094 -0.059 -0.172 -0.031 -0.172 0.055 c 0 0.086 0.113 0.203 0.254 0.254 c 0.137 0.055 0.25 0.191 0.25 0.309 c 0 0.117 0.484 0.461 1.074 0.766 c 0.59 0.305 1.117 0.664 1.168 0.801 c 0.055 0.137 0.023 0.203 -0.07 0.145 c -0.09 -0.055 -0.164 -0.027 -0.164 0.066 c 0 0.09 -0.34 0 -0.754 -0.199 c -0.438 -0.211 -0.723 -0.453 -0.676 -0.57 c 0.043 -0.113 -0.055 -0.277 -0.215 -0.363 c -0.23 -0.121 -0.301 -0.086 -0.32 0.168 c -0.012 0.18 0.047 0.281 0.133 0.227 c 0.09 -0.051 0.16 -0.023 0.16 0.066 c 0 0.086 0.242 0.313 0.543 0.504 c 0.695 0.445 0.391 0.461 -0.34 0.02 m -7.488 -1.328 c 0.059 -0.098 -0.008 -0.125 -0.156 -0.066 c -0.289 0.109 -0.344 0.23 -0.102 0.23 c 0.086 0 0.203 -0.074 0.258 -0.164 m 1.758 -0.68 c 0 -0.281 -0.086 -0.488 -0.207 -0.488 c -0.129 0 -0.199 0.203 -0.18 0.539 c 0.035 0.691 0.023 0.664 0.223 0.543 c 0.09 -0.059 0.168 -0.324 0.168 -0.594 m 1.625 0.152 c -0.164 -0.09 -0.254 -0.227 -0.207 -0.305 c 0.047 -0.078 -0.066 -0.098 -0.258 -0.051 c -0.32 0.086 -0.313 0.109 0.125 0.379 c 0.258 0.16 0.508 0.258 0.551 0.215 c 0.047 -0.039 -0.047 -0.145 -0.211 -0.234 m 1.809 -0.277 c -0.023 -0.023 -0.27 -0.074 -0.547 -0.109 c -0.434 -0.055 -0.504 -0.012 -0.484 0.297 c 0.02 0.348 0.043 0.352 0.547 0.109 c 0.289 -0.137 0.508 -0.27 0.484 -0.297 m -4.641 0.043 c -0.051 -0.051 -0.145 0.043 -0.207 0.207 c -0.09 0.234 -0.07 0.254 0.094 0.094 c 0.113 -0.113 0.164 -0.25 0.113 -0.301 m 10.594 -0.344 c -0.094 -0.348 -0.133 -0.82 -0.082 -1.055 c 0.074 -0.336 0.055 -0.375 -0.086 -0.18 c -0.238 0.34 -0.23 1.262 0.02 1.66 c 0.293 0.465 0.352 0.301 0.148 -0.426 m -14.75 -0.691 c -0.004 -0.746 -0.043 -0.891 -0.18 -0.66 c -0.379 0.652 -0.371 1.617 0.012 1.617 c 0.102 0 0.172 -0.406 0.168 -0.957 m 9.563 0.574 c -0.215 -0.215 -0.434 -0.047 -0.273 0.207 c 0.063 0.102 0.191 0.133 0.281 0.078 c 0.117 -0.07 0.113 -0.164 -0.008 -0.285 m -0.332 -0.34 c 0.055 -0.074 0.129 -0.113 0.168 -0.086 c 0.035 0.031 0.227 -0.059 0.426 -0.199 c 0.27 -0.188 0.336 -0.363 0.27 -0.707 c -0.121 -0.645 -0.379 -0.73 -0.379 -0.125 c 0 0.359 -0.082 0.508 -0.273 0.508 c -0.223 0 -0.234 -0.043 -0.059 -0.254 c 0.117 -0.141 0.164 -0.301 0.102 -0.359 c -0.059 -0.059 -0.105 -0.031 -0.105 0.059 c 0 0.09 -0.105 0.168 -0.234 0.168 c -0.246 0 -0.262 -0.227 -0.035 -0.586 c 0.117 -0.184 0.074 -0.191 -0.211 -0.035 c -0.195 0.102 -0.355 0.293 -0.355 0.418 c 0 0.316 0.461 0.754 0.805 0.766 c 0.164 0.004 0.074 0.102 -0.219 0.234 c -0.277 0.125 -0.438 0.234 -0.359 0.242 c 0.082 0.008 0.043 0.145 -0.082 0.305 c -0.211 0.27 -0.207 0.273 0.105 0.043 c 0.184 -0.137 0.379 -0.313 0.438 -0.391 m -11.234 -0.441 c 0 -0.445 -0.074 -0.668 -0.223 -0.668 c -0.238 0 -0.27 0.777 -0.047 1.137 c 0.207 0.332 0.27 0.223 0.27 -0.469 m 9.563 -1.098 c 0.008 -0.816 -0.059 -1.672 -0.148 -1.898 c -0.121 -0.301 -0.109 -0.473 0.035 -0.609 c 0.117 -0.105 0.172 -0.418 0.129 -0.715 c -0.094 -0.629 -0.223 -0.555 -0.309 0.184 c -0.035 0.297 -0.156 0.598 -0.273 0.668 c -0.164 0.105 -0.164 0.133 0 0.137 c 0.117 0 0.211 0.086 0.211 0.188 c 0 0.102 -0.148 0.148 -0.336 0.098 c -0.184 -0.047 -0.293 -0.02 -0.242 0.063 c 0.055 0.086 0.242 0.152 0.422 0.152 c 0.297 0 0.324 0.129 0.324 1.691 c 0 0.934 0.039 1.656 0.086 1.609 c 0.047 -0.047 0.094 -0.754 0.102 -1.566 m -2.531 1.262 c 0 -0.09 -0.035 -0.164 -0.074 -0.164 c -0.039 0 -0.121 0.074 -0.176 0.164 c -0.059 0.094 -0.027 0.168 0.07 0.168 c 0.098 0 0.18 -0.074 0.18 -0.168 m 0.773 -0.605 c 0.02 -0.125 -0.035 -0.184 -0.121 -0.133 c -0.086 0.055 -0.113 0.168 -0.059 0.25 c 0.051 0.086 0.016 0.156 -0.078 0.156 c -0.102 0 -0.133 -0.203 -0.074 -0.5 c 0.066 -0.316 0.035 -0.5 -0.086 -0.5 c -0.105 0 -0.195 0.133 -0.199 0.293 c -0.012 0.25 -0.035 0.242 -0.156 -0.043 c -0.129 -0.293 -0.145 -0.277 -0.156 0.129 c -0.008 0.254 0.078 0.602 0.184 0.773 c 0.18 0.281 0.223 0.285 0.457 0.059 c 0.141 -0.141 0.27 -0.359 0.289 -0.484 m 1.191 0.355 c -0.043 -0.227 -0.031 -0.414 0.023 -0.414 c 0.145 0 0.102 -1.832 -0.039 -1.84 c -0.063 0 -0.246 0.07 -0.406 0.164 c -0.238 0.141 -0.25 0.195 -0.055 0.324 c 0.336 0.219 0.09 0.742 -0.297 0.641 c -0.238 -0.059 -0.293 -0.008 -0.234 0.219 c 0.094 0.352 0.492 0.551 0.637 0.316 c 0.055 -0.086 0.18 -0.156 0.281 -0.156 c 0.102 0 0.047 0.148 -0.117 0.332 c -0.25 0.273 -0.352 0.293 -0.57 0.125 c -0.238 -0.184 -0.242 -0.176 -0.039 0.082 c 0.203 0.254 0.191 0.293 -0.082 0.309 c -0.234 0.012 -0.211 0.051 0.105 0.148 c 0.746 0.238 0.879 0.199 0.797 -0.25 m -0.465 0.105 c 0 -0.094 0.078 -0.215 0.168 -0.27 c 0.094 -0.059 0.168 -0.027 0.168 0.063 c 0 0.094 -0.074 0.215 -0.168 0.27 c -0.09 0.059 -0.168 0.027 -0.168 -0.063 m 1.695 -0.246 c -0.262 -0.539 -0.273 -0.543 -0.324 -0.141 c -0.031 0.227 0.043 0.477 0.168 0.555 c 0.398 0.25 0.434 0.152 0.156 -0.414 m -3.75 -0.73 c -0.035 -0.254 -0.07 -0.086 -0.07 0.375 c 0 0.457 0.031 0.664 0.07 0.457 c 0.039 -0.203 0.039 -0.578 0 -0.832 m 3.883 -0.395 c -0.172 -0.332 -0.039 -0.48 0.43 -0.48 c 0.293 0 0.355 -0.098 0.355 -0.566 c 0 -0.535 -0.027 -0.563 -0.578 -0.547 c -0.316 0.008 -0.484 0.047 -0.375 0.082 c 0.148 0.051 0.145 0.133 -0.02 0.332 c -0.164 0.199 -0.164 0.234 -0.008 0.141 c 0.117 -0.07 0.211 -0.043 0.211 0.059 c 0 0.105 0.074 0.141 0.168 0.082 c 0.094 -0.059 0.129 -0.172 0.074 -0.258 c -0.051 -0.086 -0.016 -0.156 0.082 -0.156 c 0.098 0 0.176 0.113 0.176 0.25 c 0 0.242 -0.086 0.281 -0.707 0.316 c -0.371 0.023 -0.375 0.047 -0.117 0.91 c 0.172 0.57 0.246 0.66 0.336 0.418 c 0.063 -0.172 0.051 -0.434 -0.027 -0.582 m -9.02 0.621 c 0 -0.035 -0.129 -0.164 -0.293 -0.289 c -0.266 -0.207 -0.27 -0.203 -0.063 0.063 c 0.219 0.277 0.355 0.363 0.355 0.227 m 10.996 -0.301 c -0.055 -0.133 -0.094 -0.094 -0.102 0.102 c -0.008 0.176 0.031 0.273 0.086 0.219 c 0.055 -0.055 0.063 -0.199 0.016 -0.32 m 4.848 -0.309 c 0.043 -0.305 0.02 -0.348 -0.098 -0.168 c -0.086 0.133 -0.121 0.301 -0.074 0.375 c 0.043 0.074 0 0.133 -0.098 0.133 c -0.113 0 -0.141 -0.168 -0.07 -0.441 c 0.109 -0.434 0.105 -0.434 -0.215 -0.125 c -0.285 0.281 -0.293 0.34 -0.063 0.52 c 0.355 0.277 0.551 0.188 0.617 -0.293 m -10.08 -0.117 c -0.082 -0.07 -0.207 -0.199 -0.273 -0.293 c -0.074 -0.094 -0.129 -0.039 -0.129 0.125 c 0 0.164 0.121 0.293 0.277 0.293 c 0.152 0 0.211 -0.059 0.125 -0.125 m 0.664 -0.141 c 0.156 -0.406 0.125 -0.445 -0.148 -0.176 c -0.285 0.285 -0.32 0.441 -0.102 0.441 c 0.082 0 0.195 -0.121 0.25 -0.266 m 3.965 0.031 c -0.113 -0.141 -0.34 -0.191 -0.563 -0.129 c -0.34 0.09 -0.328 0.109 0.133 0.211 c 0.273 0.063 0.527 0.121 0.563 0.133 c 0.035 0.012 -0.023 -0.086 -0.133 -0.215 m 0.926 0.043 c 0.07 -0.113 0.043 -0.148 -0.063 -0.082 c -0.098 0.059 -0.207 0.02 -0.246 -0.094 c -0.043 -0.125 -0.105 -0.094 -0.176 0.082 c -0.125 0.324 0.289 0.402 0.484 0.094 m 2.641 -0.172 c -0.078 -0.125 -0.031 -0.16 0.141 -0.094 c 0.195 0.074 0.238 0.016 0.168 -0.246 c -0.063 -0.238 -0.031 -0.309 0.102 -0.23 c 0.105 0.066 0.195 0.051 0.195 -0.039 c 0 -0.086 -0.113 -0.199 -0.254 -0.254 c -0.168 -0.063 -0.25 0.008 -0.25 0.223 c 0 0.176 -0.074 0.363 -0.168 0.422 c -0.16 0.098 -0.078 0.414 0.105 0.414 c 0.047 0 0.027 -0.086 -0.039 -0.195 m -12.574 -0.484 c -0.063 -0.242 -0.129 -0.285 -0.219 -0.141 c -0.152 0.246 -0.016 0.688 0.176 0.57 c 0.074 -0.047 0.094 -0.238 0.043 -0.43 m 2.426 -0.48 c 0.152 -0.246 0.141 -0.328 -0.059 -0.402 c -0.137 -0.055 -0.211 -0.031 -0.16 0.047 c 0.051 0.082 -0.004 0.219 -0.117 0.309 c -0.371 0.285 -0.781 0.363 -0.898 0.176 c -0.07 -0.113 -0.039 -0.137 0.078 -0.066 c 0.105 0.066 0.195 0.035 0.195 -0.066 c 0 -0.102 0.07 -0.145 0.156 -0.09 c 0.086 0.055 0.145 -0.047 0.133 -0.223 c -0.016 -0.184 -0.113 -0.281 -0.238 -0.234 c -0.121 0.047 -0.168 0.16 -0.109 0.258 c 0.066 0.105 0.016 0.141 -0.125 0.09 c -0.176 -0.07 -0.238 0.066 -0.246 0.547 l -0.008 0.637 l 0.605 -0.34 c 0.332 -0.184 0.688 -0.473 0.793 -0.641 m 11.277 0.285 c -0.168 -0.164 -0.188 -0.145 -0.094 0.094 c 0.063 0.164 0.156 0.254 0.207 0.203 c 0.051 -0.051 0 -0.184 -0.113 -0.297 m -2.141 -0.047 c -0.055 -0.141 -0.133 -0.223 -0.18 -0.176 c -0.043 0.043 -0.027 0.156 0.031 0.254 c 0.164 0.266 0.262 0.215 0.148 -0.078 m 0.871 -0.035 c -0.023 -0.16 0.039 -0.352 0.141 -0.426 c 0.105 -0.078 0.027 -0.094 -0.176 -0.035 c -0.285 0.078 -0.355 0.035 -0.32 -0.195 c 0.031 -0.207 0.203 -0.309 0.559 -0.328 c 0.426 -0.02 0.508 0.031 0.457 0.293 c -0.035 0.176 0.008 0.316 0.094 0.316 c 0.086 0 0.164 -0.055 0.172 -0.125 c 0.008 -0.066 0.039 -0.254 0.07 -0.414 c 0.027 -0.16 -0.016 -0.25 -0.098 -0.199 c -0.086 0.051 -0.203 -0.031 -0.262 -0.184 c -0.059 -0.152 -0.02 -0.328 0.09 -0.395 c 0.121 -0.078 -0.121 -0.293 -0.645 -0.578 l -0.844 -0.453 v 0.508 c 0 0.555 0.043 0.586 0.484 0.352 c 0.23 -0.121 0.297 -0.094 0.301 0.125 c 0.004 0.156 -0.07 0.379 -0.16 0.492 c -0.133 0.164 -0.211 0.152 -0.371 -0.066 c -0.176 -0.242 -0.195 -0.227 -0.156 0.125 c 0.023 0.219 0.059 0.418 0.078 0.441 c 0.02 0.02 0.043 0.191 0.055 0.379 c 0.012 0.188 0.133 0.41 0.273 0.496 c 0.324 0.203 0.313 0.211 0.258 -0.129 m 0.258 -1.801 c 0.008 -0.195 0.047 -0.234 0.098 -0.102 c 0.051 0.121 0.043 0.262 -0.012 0.32 c -0.055 0.055 -0.094 -0.043 -0.086 -0.219 m -11.898 1.781 c 0 -0.082 -0.133 -0.195 -0.293 -0.25 c -0.16 -0.059 -0.406 -0.148 -0.543 -0.203 c -0.141 -0.051 -0.027 0.059 0.25 0.25 c 0.574 0.395 0.586 0.398 0.586 0.203 m 4.801 -0.387 c -0.055 -0.133 -0.094 -0.094 -0.102 0.102 c -0.008 0.176 0.031 0.273 0.09 0.219 c 0.055 -0.055 0.059 -0.199 0.012 -0.32 m 9.547 -0.195 c -0.031 -0.09 -0.168 -0.195 -0.301 -0.23 c -0.195 -0.055 -0.191 -0.035 0.012 0.109 c 0.219 0.156 0.215 0.18 -0.023 0.18 c -0.152 0 -0.316 0.113 -0.367 0.246 c -0.078 0.199 -0.023 0.211 0.32 0.055 c 0.227 -0.105 0.391 -0.266 0.359 -0.359 m -19.09 -0.148 c -0.047 -0.113 -0.086 -0.02 -0.086 0.211 c 0 0.227 0.039 0.32 0.086 0.207 c 0.047 -0.113 0.047 -0.301 0 -0.418 m 3.152 0.375 c 0.055 -0.09 -0.02 -0.164 -0.168 -0.164 c -0.148 0 -0.223 0.074 -0.168 0.164 c 0.059 0.094 0.133 0.168 0.168 0.168 c 0.035 0 0.109 -0.074 0.168 -0.168 m 0.418 -0.406 c 0 -0.039 -0.074 -0.117 -0.168 -0.176 c -0.094 -0.055 -0.168 -0.023 -0.168 0.074 c 0 0.098 0.074 0.176 0.168 0.176 c 0.094 0 0.168 -0.031 0.168 -0.074 m 1.453 -0.289 c -0.055 -0.133 -0.094 -0.094 -0.102 0.102 c -0.008 0.176 0.031 0.273 0.09 0.219 c 0.055 -0.059 0.059 -0.199 0.012 -0.32 m 7.082 0.297 c 0 -0.035 -0.117 -0.109 -0.258 -0.164 c -0.148 -0.055 -0.219 -0.027 -0.16 0.066 c 0.098 0.156 0.418 0.234 0.418 0.098 m -7.867 -0.441 c 0 0.105 0.082 0.145 0.176 0.086 c 0.121 -0.074 0.121 -0.172 0.004 -0.316 c -0.098 -0.113 -0.121 -0.262 -0.051 -0.332 c 0.066 -0.07 -0.082 -0.031 -0.336 0.082 c -0.254 0.117 -0.461 0.262 -0.461 0.32 c 0 0.246 0.23 0.324 0.445 0.148 c 0.164 -0.137 0.223 -0.137 0.223 0.012 m 1.844 0.008 c 0 -0.09 -0.082 -0.164 -0.18 -0.164 c -0.098 0 -0.129 0.074 -0.074 0.164 c 0.059 0.094 0.137 0.168 0.18 0.168 c 0.039 0 0.074 -0.074 0.074 -0.168 m 3.18 0.094 c 0 -0.176 -0.324 -0.25 -0.418 -0.098 c -0.059 0.094 0.012 0.172 0.156 0.172 c 0.145 0 0.262 -0.035 0.262 -0.074 m 8.676 -0.281 c -0.336 -0.211 -0.477 -0.172 -0.371 0.094 c 0.051 0.133 0.203 0.195 0.344 0.145 c 0.203 -0.078 0.207 -0.121 0.027 -0.238 m -7.727 -0.352 c -0.047 -0.117 -0.086 -0.023 -0.086 0.207 c 0 0.23 0.039 0.324 0.086 0.207 c 0.043 -0.113 0.043 -0.301 0 -0.414 m 4.883 0.211 c -0.215 -0.18 -0.313 -0.328 -0.219 -0.332 c 0.098 -0.004 0.273 0.09 0.387 0.203 c 0.168 0.168 0.191 0.148 0.102 -0.082 c -0.063 -0.16 -0.18 -0.293 -0.262 -0.293 c -0.082 0 -0.141 -0.055 -0.129 -0.125 c 0.074 -0.473 -0.039 -0.586 -0.285 -0.281 c -0.145 0.18 -0.215 0.23 -0.156 0.117 c 0.063 -0.129 0.016 -0.172 -0.129 -0.117 c -0.129 0.047 -0.23 0.195 -0.23 0.324 c 0 0.129 0.063 0.195 0.145 0.145 c 0.082 -0.051 0.301 0.102 0.488 0.34 c 0.184 0.238 0.418 0.43 0.512 0.43 c 0.098 0 -0.004 -0.148 -0.223 -0.328 m 4.664 -0.543 c -0.043 -0.207 -0.074 -0.078 -0.078 0.289 c 0 0.367 0.031 0.535 0.074 0.375 c 0.039 -0.156 0.043 -0.457 0.004 -0.664 m -17.375 0.344 c -0.09 -0.168 -0.199 -0.305 -0.242 -0.305 c -0.043 0 -0.074 0.137 -0.074 0.305 c 0 0.168 0.105 0.305 0.238 0.305 c 0.184 0 0.203 -0.074 0.078 -0.305 m 4.516 -0.855 c -0.098 -0.344 -0.066 -0.488 0.121 -0.563 c 0.145 -0.051 0.211 -0.203 0.156 -0.348 c -0.082 -0.207 -0.055 -0.215 0.16 -0.035 c 0.145 0.117 0.309 0.164 0.367 0.105 c 0.059 -0.059 0.023 -0.105 -0.082 -0.105 c -0.105 0 -0.148 -0.113 -0.094 -0.25 c 0.113 -0.297 0.66 -0.336 0.828 -0.059 c 0.074 0.117 0.047 0.145 -0.074 0.074 c -0.113 -0.07 -0.191 -0.016 -0.191 0.141 c 0 0.141 0.055 0.258 0.125 0.254 c 0.234 -0.004 0.461 -0.246 0.461 -0.496 c 0 -0.137 -0.074 -0.305 -0.168 -0.371 c -0.105 -0.078 -0.098 -0.125 0.02 -0.125 c 0.27 -0.004 0.586 0.418 0.438 0.582 c -0.066 0.074 -0.031 0.082 0.082 0.02 c 0.145 -0.082 0.156 -0.238 0.039 -0.539 c -0.09 -0.234 -0.113 -0.512 -0.051 -0.621 c 0.063 -0.105 0.051 -0.137 -0.027 -0.066 c -0.074 0.066 -0.27 0.008 -0.43 -0.137 c -0.195 -0.18 -0.324 -0.203 -0.402 -0.078 c -0.059 0.098 -0.02 0.16 0.09 0.133 c 0.109 -0.023 0.238 0.059 0.285 0.188 c 0.047 0.133 0.008 0.184 -0.09 0.121 c -0.098 -0.059 -0.289 0.008 -0.43 0.145 c -0.141 0.137 -0.414 0.25 -0.609 0.25 c -0.195 0 -0.309 0.078 -0.254 0.168 c 0.129 0.203 -0.086 0.211 -0.398 0.016 c -0.133 -0.082 -0.176 -0.234 -0.098 -0.355 c 0.086 -0.137 0.063 -0.168 -0.063 -0.094 c -0.242 0.152 -0.254 0.602 -0.016 0.602 c 0.098 0 0.129 0.074 0.074 0.164 c -0.168 0.273 -0.375 0.191 -0.473 -0.184 c -0.059 -0.219 -0.168 -0.301 -0.293 -0.223 c -0.121 0.074 -0.32 -0.035 -0.5 -0.27 c -0.258 -0.34 -0.328 -0.359 -0.574 -0.156 c -0.203 0.168 -0.25 0.375 -0.176 0.781 c 0.082 0.438 0.051 0.551 -0.164 0.551 c -0.148 0 -0.23 0.059 -0.188 0.133 c 0.047 0.074 0.031 0.219 -0.035 0.328 c -0.082 0.129 -0.191 0.082 -0.336 -0.152 c -0.121 -0.188 -0.137 -0.293 -0.035 -0.234 c 0.105 0.07 0.176 -0.039 0.172 -0.273 l -0.004 -0.383 l -0.32 0.383 c -0.176 0.207 -0.383 0.395 -0.457 0.414 c -0.074 0.02 -0.121 0.133 -0.109 0.25 c 0.016 0.121 -0.098 0.195 -0.25 0.168 c -0.164 -0.031 -0.297 -0.25 -0.332 -0.531 c -0.047 -0.434 -0.012 -0.469 0.371 -0.398 c 0.387 0.074 0.406 0.051 0.227 -0.27 c -0.105 -0.191 -0.18 -0.402 -0.16 -0.469 c 0.02 -0.066 -0.082 -0.074 -0.223 -0.02 c -0.219 0.082 -0.211 0.125 0.043 0.309 c 0.27 0.195 0.258 0.215 -0.129 0.191 c -0.563 -0.035 -0.594 -0.512 -0.055 -0.754 c 0.523 -0.234 0.902 -0.242 0.902 -0.012 c 0 0.098 -0.07 0.133 -0.152 0.082 c -0.176 -0.105 -0.141 0.352 0.035 0.484 c 0.066 0.051 0.078 0.039 0.035 -0.023 c -0.047 -0.059 0.035 -0.242 0.18 -0.402 c 0.242 -0.266 0.238 -0.305 -0.043 -0.453 c -0.227 -0.121 -0.492 -0.07 -1.016 0.195 c -0.703 0.359 -0.703 0.363 -0.457 0.836 c 0.137 0.262 0.246 0.617 0.246 0.789 c 0 0.172 0.152 0.402 0.336 0.52 c 0.184 0.113 0.332 0.301 0.332 0.414 c 0 0.16 0.098 0.164 0.438 0.008 c 0.242 -0.109 0.355 -0.227 0.254 -0.262 c -0.105 -0.035 -0.188 -0.133 -0.188 -0.223 c 0 -0.102 0.102 -0.102 0.277 -0.008 c 0.191 0.109 0.445 0.059 0.836 -0.172 c 0.316 -0.188 0.559 -0.25 0.559 -0.148 c 0 0.102 -0.055 0.188 -0.125 0.188 c -0.066 0.004 -0.313 0.16 -0.543 0.348 c -0.23 0.191 -0.328 0.301 -0.223 0.246 c 0.109 -0.055 0.23 0.031 0.273 0.191 c 0.063 0.234 0.082 0.223 0.098 -0.063 c 0.02 -0.34 0.32 -0.563 0.746 -0.555 c 0.105 0 0.016 0.141 -0.203 0.309 c -0.223 0.168 -0.359 0.406 -0.309 0.535 c 0.066 0.168 0.098 0.152 0.105 -0.059 c 0.02 -0.406 0.625 -0.371 0.73 0.043 c 0.051 0.184 0.211 0.332 0.355 0.332 c 0.223 0 0.211 -0.055 -0.066 -0.332 c -0.184 -0.184 -0.348 -0.445 -0.359 -0.582 c -0.016 -0.137 -0.035 -0.344 -0.043 -0.457 c -0.008 -0.117 -0.148 -0.309 -0.309 -0.426 c -0.164 -0.121 -0.293 -0.359 -0.293 -0.535 c 0 -0.25 0.105 -0.309 0.5 -0.281 c 0.277 0.02 0.477 0.109 0.441 0.199 c -0.031 0.094 -0.238 0.148 -0.457 0.121 c -0.383 -0.043 -0.387 -0.039 -0.066 0.195 c 0.18 0.129 0.383 0.207 0.445 0.168 c 0.063 -0.039 0.164 0.004 0.223 0.098 c 0.07 0.113 0.227 0.105 0.473 -0.023 c 0.363 -0.188 0.363 -0.188 0.047 0.168 c -0.176 0.195 -0.27 0.355 -0.207 0.355 c 0.063 0 -0.004 0.227 -0.145 0.5 c -0.23 0.445 -0.234 0.5 -0.004 0.5 c 0.141 0 0.258 0.133 0.258 0.293 c 0 0.215 0.059 0.18 0.219 -0.125 c 0.141 -0.266 0.176 -0.59 0.094 -0.883 m 4.906 0.68 c -0.156 -0.156 -0.199 -0.109 -0.199 0.199 c 0 0.313 0.043 0.355 0.199 0.199 c 0.156 -0.152 0.156 -0.242 0 -0.398 m -9.07 -0.301 c 0 -0.09 -0.031 -0.164 -0.074 -0.164 c -0.039 0 -0.121 0.074 -0.176 0.164 c -0.059 0.094 -0.023 0.168 0.074 0.168 c 0.098 0 0.176 -0.074 0.176 -0.168 m -2.188 -0.457 c -0.008 -0.398 -0.027 -0.414 -0.145 -0.125 c -0.074 0.184 -0.102 0.391 -0.063 0.457 c 0.141 0.246 0.219 0.121 0.207 -0.332 m 20.04 -0.082 c -0.047 -0.113 -0.082 -0.02 -0.082 0.207 c 0 0.23 0.039 0.324 0.082 0.211 c 0.047 -0.117 0.047 -0.305 0 -0.418 m -9.367 -0.246 c -0.043 -0.164 -0.078 -0.07 -0.082 0.203 c -0.004 0.277 0.031 0.41 0.078 0.297 c 0.043 -0.113 0.047 -0.34 0.004 -0.5 m 0.75 0.082 c -0.125 -0.125 -0.145 -0.059 -0.074 0.219 c 0.063 0.227 0.137 0.301 0.18 0.176 c 0.039 -0.121 -0.008 -0.297 -0.105 -0.395 m 5.16 0.477 c 0 -0.035 -0.113 -0.16 -0.254 -0.273 c -0.215 -0.176 -0.238 -0.168 -0.148 0.063 c 0.09 0.234 0.402 0.398 0.402 0.211 m -0.727 -0.34 c 0 -0.129 -0.094 -0.195 -0.207 -0.152 c -0.254 0.098 -0.559 -0.426 -0.453 -0.777 c 0.059 -0.195 0.039 -0.203 -0.082 -0.031 c -0.125 0.176 -0.266 0.16 -0.758 -0.07 c -0.332 -0.156 -0.57 -0.344 -0.527 -0.41 c 0.043 -0.07 -0.047 -0.105 -0.203 -0.086 c -0.367 0.055 -0.441 0.563 -0.078 0.535 c 0.168 -0.012 0.266 0.094 0.25 0.281 c -0.023 0.293 -0.016 0.293 0.316 0 c 0.336 -0.297 0.34 -0.297 0.133 0.094 c -0.133 0.254 -0.141 0.352 -0.023 0.277 c 0.102 -0.063 0.23 0.004 0.285 0.148 c 0.059 0.145 0.172 0.262 0.262 0.262 c 0.086 0 0.113 -0.078 0.055 -0.168 c -0.156 -0.25 0.289 -0.191 0.66 0.09 c 0.395 0.297 0.371 0.293 0.371 0.008 m -1.367 -0.43 c -0.055 -0.094 -0.023 -0.168 0.074 -0.168 c 0.098 0 0.18 0.074 0.18 0.168 c 0 0.09 -0.035 0.164 -0.074 0.164 c -0.043 0 -0.121 -0.074 -0.18 -0.164 m -13.691 0.066 c 0.07 -0.188 0.137 -0.207 0.223 -0.066 c 0.066 0.109 0.262 0.168 0.438 0.133 c 0.25 -0.051 0.207 -0.109 -0.219 -0.301 c -0.293 -0.129 -0.488 -0.309 -0.434 -0.395 c 0.055 -0.086 0.008 -0.102 -0.098 -0.035 c -0.109 0.066 -0.145 0.203 -0.082 0.305 c 0.074 0.117 0.016 0.145 -0.164 0.074 c -0.172 -0.063 -0.281 -0.023 -0.281 0.113 c 0 0.465 0.453 0.594 0.617 0.172 m 4.816 0.109 c 0.055 -0.086 0.031 -0.191 -0.047 -0.242 c -0.078 -0.047 -0.141 0.023 -0.141 0.156 c 0 0.281 0.051 0.305 0.188 0.086 m 4.441 -0.27 c 0 -0.133 -0.059 -0.238 -0.129 -0.238 c -0.074 0 -0.133 0.145 -0.133 0.32 c 0 0.176 0.059 0.281 0.133 0.238 c 0.07 -0.043 0.129 -0.188 0.129 -0.32 m 0.949 -0.281 c -0.047 -0.113 -0.086 -0.02 -0.086 0.207 c 0 0.23 0.039 0.324 0.086 0.207 c 0.047 -0.113 0.047 -0.301 0 -0.414 m 9.141 0.316 c -0.063 -0.098 0.012 -0.121 0.184 -0.055 c 0.16 0.059 0.246 0.043 0.199 -0.035 c -0.156 -0.254 -0.738 -0.324 -0.828 -0.102 c -0.098 0.262 -0.016 0.359 0.309 0.359 c 0.133 0 0.195 -0.074 0.137 -0.168 m -7.496 -0.109 c -0.055 -0.09 0.035 -0.172 0.199 -0.176 c 0.27 -0.012 0.266 -0.027 -0.031 -0.148 c -0.184 -0.074 -0.363 -0.109 -0.398 -0.078 c -0.086 0.078 0.117 0.57 0.234 0.57 c 0.055 0 0.055 -0.074 -0.004 -0.168 m 5.953 -0.262 c 0.227 -0.238 0.332 -0.414 0.238 -0.398 c -0.09 0.02 -0.203 0.02 -0.25 0.004 c -0.336 -0.133 -0.684 -0.117 -0.777 0.031 c -0.063 0.098 -0.039 0.133 0.051 0.078 c 0.086 -0.051 0.262 -0.031 0.391 0.047 c 0.191 0.117 0.195 0.188 0.012 0.406 c -0.352 0.422 -0.105 0.301 0.336 -0.168 m -19.867 -0.344 c -0.703 -0.426 -0.898 -0.477 -0.898 -0.238 c 0 0.309 0.84 0.813 1.195 0.719 c 0.316 -0.082 0.285 -0.133 -0.297 -0.48 m 14.918 0.441 c 0.059 -0.094 -0.008 -0.121 -0.16 -0.066 c -0.289 0.113 -0.34 0.23 -0.102 0.23 c 0.086 0 0.203 -0.074 0.262 -0.164 m 8.05 -0.578 c -0.02 -0.137 -0.086 -0.297 -0.145 -0.355 c -0.063 -0.063 -0.082 0.055 -0.039 0.258 c 0.047 0.254 0 0.344 -0.148 0.289 c -0.117 -0.047 -0.215 0.02 -0.215 0.141 c 0 0.164 0.082 0.184 0.293 0.07 c 0.16 -0.086 0.277 -0.266 0.254 -0.402 m -11.492 -0.309 c 0.004 -0.074 -0.066 -0.086 -0.156 -0.031 c -0.094 0.059 -0.164 0.27 -0.156 0.469 c 0.012 0.352 0.016 0.352 0.156 0.031 c 0.078 -0.184 0.148 -0.395 0.156 -0.469 m 2.688 0.301 c -0.113 -0.137 -0.277 -0.25 -0.363 -0.25 c -0.191 0 0.227 0.484 0.426 0.496 c 0.082 0.004 0.051 -0.105 -0.063 -0.246 m -9.371 -0.176 c 0 -0.141 -0.078 -0.211 -0.172 -0.152 c -0.094 0.055 -0.125 0.172 -0.074 0.258 c 0.145 0.23 0.246 0.188 0.246 -0.105 m 7.082 -0.281 c -0.145 -0.758 -0.223 -0.781 -0.223 -0.066 c 0 0.332 0.074 0.609 0.164 0.609 c 0.094 0 0.121 -0.23 0.059 -0.543 m 3.965 0.48 c 0 -0.035 -0.102 -0.148 -0.223 -0.25 c -0.172 -0.137 -0.227 -0.121 -0.227 0.063 c 0 0.137 0.102 0.25 0.227 0.25 c 0.121 0 0.223 -0.031 0.223 -0.063 m 3.242 -0.238 c 0.043 -0.07 -0.082 -0.145 -0.281 -0.156 c -0.289 -0.023 -0.313 0.004 -0.113 0.129 c 0.305 0.191 0.293 0.191 0.395 0.027 m 1.277 -0.117 c 0 -0.023 -0.102 -0.086 -0.227 -0.133 c -0.121 -0.047 -0.223 0.016 -0.223 0.133 c 0 0.121 0.102 0.18 0.223 0.133 c 0.125 -0.047 0.227 -0.105 0.227 -0.133 m -6.863 -0.098 c 0 -0.102 -0.152 -0.223 -0.336 -0.27 c -0.184 -0.047 -0.336 -0.164 -0.336 -0.262 c 0 -0.098 -0.047 -0.125 -0.109 -0.066 c -0.121 0.125 0.414 0.777 0.641 0.777 c 0.078 0 0.141 -0.078 0.141 -0.18 m 3.262 -0.152 c 0.059 -0.09 0.023 -0.164 -0.074 -0.164 c -0.098 0 -0.176 0.074 -0.176 0.164 c 0 0.094 0.035 0.168 0.074 0.168 c 0.039 0 0.121 -0.074 0.176 -0.168 m 0.836 -0.27 c -0.164 -0.121 -0.371 -0.172 -0.457 -0.121 c -0.199 0.125 0.113 0.336 0.488 0.336 c 0.227 0 0.223 -0.031 -0.031 -0.215 m -6.922 -0.504 c 0.207 -0.254 0.195 -0.262 -0.148 -0.078 c -0.387 0.207 -0.484 0.352 -0.23 0.352 c 0.082 0 0.254 -0.121 0.379 -0.273 m -2.41 0.008 c -0.055 -0.055 -0.199 -0.063 -0.32 -0.012 c -0.133 0.051 -0.094 0.09 0.102 0.098 c 0.176 0.008 0.273 -0.031 0.219 -0.086 m 4.01 -0.141 c 0 -0.133 -0.063 -0.207 -0.133 -0.164 c -0.07 0.047 -0.211 -0.07 -0.313 -0.254 c -0.102 -0.188 -0.273 -0.332 -0.387 -0.324 c -0.152 0.008 -0.148 0.031 0.008 0.094 c 0.113 0.047 0.207 0.164 0.207 0.262 c 0 0.129 0.406 0.547 0.602 0.625 c 0.008 0 0.016 -0.105 0.016 -0.238 m -2.797 -1.43 c -0.395 -0.25 -0.609 -0.172 -0.258 0.094 c 0.18 0.133 0.363 0.203 0.414 0.152 c 0.051 -0.051 -0.02 -0.16 -0.156 -0.246 m 4.02 0.273 c 0 -0.035 -0.117 -0.109 -0.262 -0.164 c -0.148 -0.055 -0.215 -0.027 -0.156 0.066 c 0.098 0.156 0.418 0.234 0.418 0.098 m 2.176 -0.184 c 0 -0.027 -0.102 -0.086 -0.223 -0.133 c -0.125 -0.047 -0.223 0.012 -0.223 0.133 c 0 0.121 0.098 0.18 0.223 0.133 c 0.121 -0.047 0.223 -0.105 0.223 -0.133 m 1.59 -0.086 c 0.168 -0.184 0.254 -0.383 0.195 -0.441 c -0.063 -0.063 -0.113 -0.02 -0.113 0.094 c 0 0.113 -0.086 0.148 -0.191 0.086 c -0.129 -0.078 -0.148 -0.047 -0.059 0.102 c 0.102 0.16 0.063 0.191 -0.148 0.109 c -0.16 -0.059 -0.25 -0.047 -0.203 0.027 c 0.047 0.074 -0.016 0.137 -0.141 0.137 c -0.383 0 -0.125 -0.348 0.578 -0.777 c 0.426 -0.262 0.73 -0.605 0.848 -0.957 c 0.188 -0.566 0.488 -0.59 0.488 -0.035 c 0 0.227 0.078 0.285 0.277 0.211 c 0.18 -0.07 0.238 -0.043 0.168 0.078 c -0.063 0.098 -0.039 0.23 0.059 0.289 c 0.094 0.059 0.141 0.156 0.102 0.219 c -0.145 0.23 0.355 0.703 0.629 0.598 c 0.359 -0.137 0.18 -0.402 -0.281 -0.402 c -0.297 -0.004 -0.32 -0.035 -0.117 -0.164 c 0.184 -0.117 0.191 -0.164 0.035 -0.164 c -0.121 -0.004 -0.176 -0.074 -0.125 -0.16 c 0.055 -0.082 0.02 -0.199 -0.074 -0.258 c -0.094 -0.059 -0.168 -0.25 -0.168 -0.43 c 0 -0.176 -0.113 -0.32 -0.254 -0.32 c -0.137 0 -0.25 -0.074 -0.25 -0.16 c 0 -0.09 0.133 -0.121 0.293 -0.07 c 0.23 0.074 0.242 0.059 0.059 -0.07 c -0.301 -0.211 -1.527 0.441 -1.793 0.953 c -0.102 0.195 -0.344 0.523 -0.535 0.727 c -0.285 0.301 -0.348 0.629 -0.211 1.074 c 0.055 0.176 0.688 -0.02 0.934 -0.289 m -0.086 -1.5 c 0 -0.09 0.082 -0.164 0.18 -0.164 c 0.098 0 0.129 0.074 0.074 0.164 c -0.059 0.094 -0.137 0.168 -0.18 0.168 c -0.039 0 -0.074 -0.074 -0.074 -0.168 m -9.219 1.617 c -0.039 -0.023 -0.219 -0.156 -0.402 -0.289 c -0.313 -0.227 -0.32 -0.223 -0.105 0.047 c 0.125 0.16 0.309 0.289 0.402 0.289 c 0.098 0 0.145 -0.02 0.105 -0.047 m -3.75 -0.285 c 0.055 -0.09 0.027 -0.164 -0.066 -0.164 c -0.09 0 -0.211 0.074 -0.27 0.164 c -0.055 0.094 -0.027 0.168 0.063 0.168 c 0.094 0 0.215 -0.074 0.273 -0.168 m 7.656 -0.25 c 0.043 -0.227 0.016 -0.414 -0.066 -0.414 c -0.078 0 -0.145 0.188 -0.145 0.414 c 0 0.23 0.031 0.418 0.066 0.418 c 0.035 0 0.102 -0.188 0.145 -0.418 m 1.719 0.086 c -0.074 -0.117 -0.363 -0.117 -0.758 -0.004 c -0.043 0.016 0.066 0.086 0.254 0.16 c 0.367 0.148 0.637 0.063 0.504 -0.156 m -4.855 0 c -0.059 -0.094 -0.195 -0.168 -0.305 -0.164 c -0.121 0 -0.098 0.066 0.051 0.164 c 0.324 0.203 0.383 0.203 0.254 0 m -9.875 -0.168 c 0.055 -0.094 0.023 -0.168 -0.074 -0.168 c -0.098 0 -0.18 0.074 -0.18 0.168 c 0 0.09 0.035 0.168 0.074 0.168 c 0.043 0 0.121 -0.078 0.18 -0.168 m 4.789 -0.059 c -0.102 -0.121 -0.141 -0.266 -0.086 -0.32 c 0.055 -0.055 -0.063 -0.055 -0.262 -0.004 l -0.359 0.094 l 0.387 0.211 c 0.512 0.281 0.539 0.281 0.32 0.02 m 10.691 0.031 c 0 -0.078 -0.074 -0.141 -0.168 -0.141 c -0.094 0 -0.168 -0.078 -0.168 -0.176 c 0 -0.098 0.086 -0.121 0.195 -0.059 c 0.113 0.07 0.148 0.047 0.082 -0.059 c -0.063 -0.098 -0.016 -0.215 0.098 -0.258 c 0.117 -0.043 0.059 -0.074 -0.133 -0.063 c -0.418 0.02 -0.574 0.891 -0.16 0.891 c 0.141 0 0.254 -0.063 0.254 -0.137 m 0.922 0.027 c -0.059 -0.094 -0.18 -0.168 -0.273 -0.168 c -0.09 0 -0.121 0.074 -0.063 0.168 c 0.055 0.09 0.18 0.168 0.27 0.168 c 0.094 0 0.121 -0.078 0.066 -0.168 m -12.523 -0.512 c -0.043 -0.172 -0.031 -0.305 0.027 -0.297 c 0.344 0.047 0.527 -0.055 0.527 -0.285 c 0 -0.156 -0.078 -0.211 -0.195 -0.137 c -0.133 0.078 -0.16 0.031 -0.094 -0.148 c 0.074 -0.184 0.031 -0.242 -0.129 -0.18 c -0.129 0.051 -0.188 0.203 -0.129 0.352 c 0.059 0.145 0.031 0.219 -0.059 0.164 c -0.09 -0.055 -0.16 0.148 -0.16 0.461 c 0 0.305 0.066 0.516 0.148 0.469 c 0.078 -0.051 0.109 -0.23 0.063 -0.398 m 5.586 0.293 l 0.41 0.102 l -0.422 -0.324 c -0.934 -0.723 -1.301 -0.895 -1.395 -0.648 c -0.055 0.141 0.102 0.305 0.406 0.43 c 0.422 0.176 0.461 0.242 0.281 0.473 c -0.184 0.234 -0.176 0.242 0.047 0.07 c 0.145 -0.113 0.445 -0.156 0.672 -0.102 m 3.059 -0.246 c -0.051 -0.203 -0.168 -0.367 -0.254 -0.367 c -0.086 0 -0.125 0.055 -0.09 0.125 c 0.039 0.066 0.121 0.266 0.184 0.438 c 0.152 0.426 0.281 0.266 0.16 -0.195 m 4.688 0.219 c 0.055 -0.133 0.004 -0.297 -0.105 -0.359 c -0.113 -0.063 -0.148 -0.055 -0.078 0.02 c 0.066 0.074 -0.008 0.234 -0.168 0.355 c -0.262 0.199 -0.266 0.219 -0.016 0.227 c 0.152 0 0.316 -0.105 0.367 -0.242 m -8.594 -0.152 c 0 -0.035 -0.113 -0.109 -0.25 -0.16 c -0.137 -0.055 -0.25 -0.023 -0.25 0.063 c 0 0.09 0.113 0.164 0.25 0.164 c 0.137 0 0.25 -0.031 0.25 -0.066 m 15.254 -0.227 c 0.207 -0.262 0.199 -0.27 -0.066 -0.063 c -0.277 0.219 -0.367 0.355 -0.227 0.355 c 0.031 0 0.164 -0.133 0.293 -0.293 m -6.52 -0.105 c 0.344 -0.016 0.465 -0.121 0.539 -0.473 c 0.059 -0.293 0.172 -0.426 0.313 -0.371 c 0.125 0.047 0.371 -0.07 0.547 -0.266 l 0.32 -0.352 l -0.496 0.211 c -0.277 0.117 -0.652 0.344 -0.836 0.504 c -0.367 0.32 -0.809 0.324 -1.121 0.012 c -0.25 -0.246 -0.469 -0.258 -0.469 -0.023 c 0 0.098 0.07 0.133 0.156 0.082 c 0.316 -0.195 0.371 0.273 0.07 0.609 c -0.305 0.344 -0.305 0.348 0.109 0.219 c 0.23 -0.07 0.617 -0.141 0.863 -0.152 m -14.758 0 c 0 -0.039 -0.113 -0.109 -0.258 -0.164 c -0.148 -0.059 -0.215 -0.031 -0.156 0.063 c 0.098 0.16 0.414 0.234 0.414 0.102 m 4.03 -0.289 c 0.195 -0.371 0.172 -0.41 -0.555 -0.824 c -0.199 -0.113 -0.293 -0.109 -0.293 0.008 c 0 0.094 -0.145 0.172 -0.316 0.172 c -0.176 0 -0.355 0.148 -0.402 0.332 c -0.066 0.25 -0.008 0.332 0.234 0.332 c 0.18 0 0.367 -0.109 0.422 -0.246 c 0.055 -0.141 0.176 -0.203 0.273 -0.145 c 0.102 0.066 0.125 0.031 0.055 -0.082 c -0.066 -0.105 -0.047 -0.191 0.039 -0.191 c 0.238 0 0.348 0.613 0.145 0.816 c -0.133 0.129 -0.129 0.18 0.012 0.18 c 0.109 0 0.281 -0.156 0.387 -0.352 m 0.93 -0.398 c -0.535 -0.391 -0.313 -0.598 0.563 -0.523 c 0.461 0.039 0.84 0.012 0.84 -0.063 c 0 -0.074 -0.305 -0.449 -0.676 -0.832 c -0.578 -0.598 -0.645 -0.738 -0.461 -0.969 c 0.188 -0.238 0.18 -0.246 -0.051 -0.066 c -0.148 0.113 -0.301 0.172 -0.344 0.133 c -0.039 -0.043 -0.074 0.07 -0.074 0.25 c 0 0.18 0.102 0.324 0.223 0.324 c 0.148 0 0.113 0.117 -0.109 0.355 c -0.43 0.461 -0.809 0.313 -0.766 -0.297 c 0.02 -0.293 0.008 -0.332 -0.039 -0.098 c -0.098 0.516 -0.652 0.48 -0.938 -0.066 c -0.168 -0.32 -0.27 -0.383 -0.363 -0.227 c -0.141 0.227 0.492 0.82 0.883 0.828 c 0.117 0.004 0.402 0.125 0.629 0.273 c 0.395 0.258 0.398 0.285 0.121 0.512 c -0.164 0.133 -0.215 0.203 -0.117 0.156 c 0.098 -0.047 0.32 0.148 0.492 0.438 c 0.199 0.344 0.336 0.445 0.387 0.297 c 0.043 -0.125 -0.047 -0.316 -0.199 -0.426 m 0.305 -0.926 c -0.059 -0.098 -0.066 -0.219 -0.016 -0.27 c 0.137 -0.137 0.609 0.078 0.609 0.277 c 0 0.227 -0.449 0.223 -0.594 -0.004 m 1.582 1.07 c -0.234 -0.277 -0.59 -0.297 -0.754 -0.035 c -0.074 0.117 -0.047 0.145 0.074 0.07 c 0.109 -0.066 0.238 -0.008 0.293 0.133 c 0.051 0.137 0.203 0.207 0.336 0.156 c 0.188 -0.07 0.199 -0.145 0.051 -0.324 m 6.945 0.297 c 0.047 -0.074 -0.02 -0.137 -0.148 -0.137 c -0.133 0 -0.199 0.063 -0.152 0.137 c 0.047 0.078 0.113 0.141 0.152 0.141 c 0.035 0 0.102 -0.063 0.148 -0.141 m -3.969 -0.391 c -0.055 -0.133 -0.094 -0.094 -0.102 0.102 c -0.008 0.176 0.031 0.273 0.086 0.219 c 0.059 -0.059 0.063 -0.199 0.016 -0.32 m 10.43 0.031 c 0 -0.09 -0.035 -0.168 -0.074 -0.168 c -0.039 0 -0.121 0.074 -0.176 0.168 c -0.059 0.09 -0.023 0.168 0.07 0.168 c 0.098 0 0.18 -0.078 0.18 -0.168 m -18.14 -0.25 c -0.063 -0.16 0.004 -0.254 0.191 -0.262 c 0.238 -0.008 0.23 -0.035 -0.047 -0.145 c -0.32 -0.129 -0.32 -0.137 0.047 -0.195 l 0.383 -0.063 l -0.359 -0.223 c -0.195 -0.121 -0.313 -0.148 -0.258 -0.059 c 0.055 0.086 -0.012 0.25 -0.145 0.359 c -0.191 0.16 -0.199 0.262 -0.039 0.516 c 0.238 0.383 0.359 0.418 0.227 0.07 m 16.371 0.094 c 0.055 -0.086 0.031 -0.191 -0.047 -0.242 c -0.078 -0.047 -0.141 0.023 -0.141 0.156 c 0 0.281 0.055 0.305 0.188 0.086 m -3.926 -0.176 c 0 -0.094 -0.031 -0.168 -0.074 -0.168 c -0.039 0 -0.121 0.074 -0.176 0.168 c -0.059 0.09 -0.023 0.164 0.074 0.164 c 0.098 0 0.176 -0.074 0.176 -0.164 m -11.547 -0.336 c 0 -0.09 -0.035 -0.164 -0.074 -0.164 c -0.043 0 -0.121 0.074 -0.176 0.164 c -0.059 0.094 -0.027 0.168 0.07 0.168 c 0.098 0 0.18 -0.074 0.18 -0.168 m 0.926 -0.152 c -0.059 -0.098 -0.191 -0.18 -0.289 -0.18 c -0.109 0 -0.098 0.098 0.035 0.254 c 0.23 0.277 0.434 0.215 0.254 -0.074 m 11.918 -0.012 c 0.422 -0.254 0.543 -0.441 0.543 -0.832 c 0 -0.418 -0.066 -0.5 -0.402 -0.5 c -0.223 0 -0.445 -0.094 -0.488 -0.207 c -0.063 -0.148 -0.09 -0.152 -0.098 -0.012 c -0.008 0.105 0.172 0.34 0.402 0.523 c 0.516 0.402 0.531 0.625 0.055 0.75 c -0.434 0.113 -0.641 0.012 -0.641 -0.316 c 0 -0.133 -0.066 -0.238 -0.145 -0.238 c -0.113 0 -0.145 0.887 -0.039 1.125 c 0.047 0.105 0.316 0.012 0.813 -0.293 m -14.285 0.027 c 0.047 -0.078 -0.02 -0.141 -0.152 -0.141 c -0.129 0 -0.195 0.063 -0.148 0.141 c 0.047 0.074 0.113 0.137 0.148 0.137 c 0.039 0 0.105 -0.063 0.152 -0.137 m 7.914 -0.652 c -0.043 -0.16 -0.078 -0.027 -0.078 0.293 c 0 0.32 0.035 0.449 0.078 0.289 c 0.043 -0.16 0.043 -0.422 0 -0.582 m 5.156 0.625 c 0.059 -0.094 -0.082 -0.168 -0.324 -0.168 c -0.234 0 -0.43 0.074 -0.43 0.168 c 0 0.09 0.148 0.164 0.328 0.164 c 0.176 0 0.371 -0.074 0.426 -0.164 m -13.688 -1.043 c -0.043 -0.203 -0.074 -0.035 -0.074 0.375 c 0 0.414 0.031 0.582 0.074 0.375 c 0.039 -0.203 0.039 -0.543 0 -0.746 m 17.02 0.785 c 0.078 -0.207 0.035 -0.223 -0.234 -0.078 c -0.387 0.207 -0.426 0.332 -0.098 0.332 c 0.129 0 0.277 -0.113 0.332 -0.254 m -11.23 -0.203 c -0.098 -0.266 -0.078 -0.27 0.207 -0.043 c 0.184 0.148 0.262 0.164 0.188 0.039 c -0.164 -0.27 -1.113 -0.758 -1.238 -0.637 c -0.098 0.098 0.617 0.883 0.832 0.914 c 0.066 0.008 0.07 -0.113 0.012 -0.273 m 4.391 -0.043 c -0.059 -0.09 -0.195 -0.164 -0.305 -0.164 c -0.121 0 -0.098 0.066 0.051 0.164 c 0.324 0.207 0.379 0.207 0.254 0 m 9.957 -0.082 c 0 -0.141 -0.074 -0.25 -0.164 -0.25 c -0.09 0 -0.117 0.109 -0.066 0.25 c 0.055 0.137 0.129 0.25 0.164 0.25 c 0.035 0 0.066 -0.113 0.066 -0.25 m -11.969 -0.086 c -0.055 -0.09 -0.176 -0.164 -0.27 -0.164 c -0.094 0 -0.121 0.074 -0.063 0.164 c 0.055 0.094 0.176 0.168 0.27 0.168 c 0.09 0 0.121 -0.074 0.063 -0.168 m 7.867 0.004 c 0.059 -0.094 -0.008 -0.121 -0.16 -0.066 c -0.289 0.109 -0.34 0.23 -0.102 0.23 c 0.086 0 0.203 -0.074 0.262 -0.164 m -13.14 -0.699 c 0 -0.281 -0.043 -0.305 -0.238 -0.145 c -0.133 0.109 -0.203 0.305 -0.152 0.438 c 0.129 0.324 0.391 0.129 0.391 -0.293 m 10.797 0.363 c 0.059 -0.09 -0.012 -0.168 -0.156 -0.168 c -0.145 0 -0.262 0.078 -0.262 0.168 c 0 0.094 0.07 0.168 0.156 0.168 c 0.09 0 0.207 -0.074 0.262 -0.168 m -5.863 -0.344 c -0.055 -0.086 -0.215 -0.156 -0.359 -0.156 c -0.211 0 -0.223 0.047 -0.055 0.25 c 0.215 0.258 0.582 0.176 0.414 -0.094 m 1.43 0.008 c 0 -0.207 -0.082 -0.289 -0.238 -0.227 c -0.375 0.141 -0.43 0.492 -0.078 0.52 c 0.207 0.016 0.316 -0.086 0.316 -0.293 m -7.922 0.063 c -0.059 -0.063 0.023 -0.215 0.184 -0.344 c 0.266 -0.219 0.262 -0.223 -0.047 -0.07 c -0.25 0.125 -0.418 0.094 -0.664 -0.113 c -0.273 -0.23 -0.297 -0.234 -0.129 -0.016 c 0.113 0.145 0.148 0.328 0.082 0.402 c -0.07 0.074 -0.035 0.086 0.074 0.023 c 0.109 -0.063 0.242 -0.039 0.301 0.055 c 0.059 0.094 0.152 0.172 0.207 0.172 c 0.059 0 0.055 -0.051 -0.008 -0.109 m 9.352 -0.379 c -0.137 -0.219 -0.594 -0.238 -0.594 -0.023 c 0 0.082 0.133 0.18 0.293 0.219 c 0.363 0.078 0.441 0.031 0.301 -0.195 m -2.539 -0.215 c -0.066 -0.102 -0.16 -0.078 -0.25 0.059 c -0.086 0.137 -0.145 0.152 -0.145 0.035 c -0.004 -0.105 -0.117 -0.23 -0.254 -0.285 c -0.148 -0.059 -0.25 0 -0.25 0.137 c 0 0.246 0.441 0.41 0.793 0.293 c 0.113 -0.039 0.16 -0.145 0.105 -0.238 m 1.691 -0.273 c -0.055 -0.055 -0.168 0.012 -0.254 0.148 c -0.129 0.203 -0.156 0.203 -0.16 0.008 c 0 -0.129 -0.047 -0.191 -0.102 -0.137 c -0.055 0.055 -0.047 0.184 0.016 0.285 c 0.082 0.137 0.18 0.133 0.355 -0.012 c 0.133 -0.109 0.195 -0.242 0.145 -0.293 m -7.777 -0.285 c 0 -0.324 -0.066 -0.551 -0.141 -0.504 c -0.133 0.078 -0.063 1.098 0.074 1.098 c 0.035 0 0.066 -0.266 0.066 -0.594 m 1.074 0.445 c 0.105 -0.168 -0.328 -0.57 -0.676 -0.621 c -0.285 -0.039 -0.305 0.297 -0.031 0.57 c 0.234 0.234 0.578 0.262 0.707 0.051 m 12.1 -0.41 c -0.02 -0.105 -0.109 -0.246 -0.203 -0.316 c -0.105 -0.078 -0.074 -0.184 0.086 -0.289 c 0.137 -0.09 0.188 -0.164 0.117 -0.164 c -0.074 -0.004 -0.414 0.184 -0.75 0.414 c -0.52 0.348 -0.559 0.414 -0.254 0.414 c 0.199 0 0.41 0.074 0.461 0.16 c 0.133 0.211 0.59 0.027 0.543 -0.219 m -0.441 -0.039 c 0.008 -0.191 0.051 -0.23 0.102 -0.098 c 0.051 0.117 0.043 0.262 -0.012 0.316 c -0.055 0.055 -0.094 -0.043 -0.09 -0.219 m -11.227 0.203 c 0 -0.035 -0.129 -0.168 -0.293 -0.293 c -0.266 -0.207 -0.27 -0.199 -0.063 0.063 c 0.219 0.277 0.355 0.367 0.355 0.23 m 5.172 -0.848 c -0.023 -0.496 -0.105 -0.867 -0.184 -0.816 c -0.082 0.051 -0.25 0.004 -0.375 -0.098 c -0.141 -0.113 -0.27 -0.129 -0.328 -0.035 c -0.055 0.086 0.09 0.203 0.32 0.262 c 0.277 0.07 0.418 0.219 0.418 0.453 c 0 0.289 -0.043 0.316 -0.246 0.148 c -0.137 -0.109 -0.344 -0.164 -0.461 -0.117 c -0.121 0.051 -0.07 0.094 0.121 0.102 c 0.277 0.016 0.293 0.043 0.082 0.18 c -0.207 0.137 -0.188 0.184 0.125 0.27 c 0.414 0.113 0.492 0.32 0.168 0.453 c -0.121 0.047 -0.082 0.086 0.094 0.094 c 0.258 0.012 0.297 -0.113 0.262 -0.895 m 0.559 -0.086 c -0.105 -0.719 -0.289 -0.621 -0.309 0.164 c -0.016 0.504 0.031 0.629 0.184 0.504 c 0.109 -0.09 0.168 -0.391 0.125 -0.668 m 1.023 0.527 c 0.055 0.137 0.09 0.105 0.102 -0.086 c 0.008 -0.227 -0.07 -0.273 -0.324 -0.195 c -0.594 0.188 -0.375 -0.582 0.23 -0.805 c 0.258 -0.094 0.273 -0.156 0.098 -0.371 c -0.117 -0.141 -0.309 -0.219 -0.43 -0.172 c -0.254 0.098 -0.109 -0.414 0.176 -0.605 c 0.102 -0.07 0.023 -0.125 -0.184 -0.125 c -0.199 0 -0.398 -0.098 -0.441 -0.211 c -0.039 -0.113 -0.051 0.055 -0.023 0.375 c 0.027 0.32 0.059 1.023 0.063 1.566 c 0.012 0.953 0.02 0.973 0.328 0.695 c 0.246 -0.223 0.336 -0.234 0.406 -0.066 m 7.227 -0.199 c -0.059 -0.09 -0.191 -0.164 -0.301 -0.164 c -0.121 0.004 -0.102 0.066 0.051 0.164 c 0.32 0.207 0.379 0.207 0.25 0 m -17.375 -0.363 c -0.055 -0.133 -0.094 -0.094 -0.102 0.102 c -0.008 0.176 0.031 0.273 0.09 0.219 c 0.055 -0.055 0.059 -0.199 0.012 -0.32 m 1.605 -0.297 c 0.051 -0.188 0.02 -0.379 -0.063 -0.43 c -0.082 -0.051 -0.152 0.016 -0.152 0.152 c 0 0.137 -0.051 0.375 -0.113 0.535 c -0.07 0.184 -0.047 0.25 0.066 0.184 c 0.094 -0.059 0.215 -0.258 0.262 -0.441 m 4.973 0.328 c 0 -0.09 -0.078 -0.168 -0.176 -0.168 c -0.098 0 -0.129 0.078 -0.074 0.168 c 0.059 0.094 0.137 0.168 0.18 0.168 c 0.039 0 0.07 -0.074 0.07 -0.168 m 11.551 -0.082 c 0 -0.137 -0.074 -0.25 -0.164 -0.25 c -0.09 0 -0.117 0.113 -0.066 0.25 c 0.055 0.137 0.129 0.25 0.164 0.25 c 0.035 0 0.066 -0.113 0.066 -0.25 m -11.219 -0.926 c 0.086 0.137 0.125 0.035 0.113 -0.281 c -0.023 -0.559 -0.445 -0.574 -0.445 -0.016 c 0 0.18 -0.074 0.281 -0.168 0.223 c -0.09 -0.059 -0.164 0.066 -0.164 0.281 c 0.004 0.309 0.035 0.336 0.164 0.137 c 0.137 -0.211 0.168 -0.195 0.191 0.082 c 0.016 0.191 0.059 0.129 0.102 -0.152 c 0.047 -0.332 0.113 -0.418 0.207 -0.273 m 4.391 0.121 c 0.051 -0.617 0.266 -0.559 0.348 0.098 l 0.066 0.539 l 0.027 -0.547 c 0.02 -0.426 -0.055 -0.574 -0.344 -0.684 c -0.203 -0.074 -0.523 -0.09 -0.711 -0.039 c -0.328 0.094 -0.324 0.102 0.035 0.156 c 0.297 0.043 0.375 0.164 0.375 0.57 c 0 0.613 0.152 0.543 0.203 -0.094 m -3.703 -0.355 c 0.246 0.152 0.176 -0.027 -0.098 -0.254 c -0.215 -0.18 -0.25 -0.137 -0.23 0.27 c 0.012 0.285 0.051 0.359 0.094 0.184 c 0.043 -0.16 0.148 -0.25 0.234 -0.199 m 11.152 -0.961 c -0.035 -0.297 -0.066 -0.094 -0.07 0.457 c 0 0.547 0.031 0.793 0.07 0.543 c 0.039 -0.25 0.039 -0.699 0 -1 m -17.613 0.191 c -0.027 -0.469 -0.141 -0.938 -0.254 -1.043 c -0.164 -0.148 -0.18 -0.066 -0.086 0.391 c 0.066 0.32 0.121 0.695 0.121 0.832 c 0 0.141 0.027 0.344 0.063 0.461 c 0.137 0.438 0.199 0.172 0.156 -0.641 m 7.398 0.059 c -0.043 -0.164 -0.078 -0.031 -0.078 0.289 c 0 0.32 0.035 0.453 0.078 0.293 c 0.043 -0.16 0.043 -0.422 0 -0.582 m 8.09 0.309 c 0 -0.172 -0.121 -0.527 -0.27 -0.789 l -0.266 -0.48 l 0.102 0.563 c 0.055 0.309 0.098 0.664 0.098 0.793 c 0 0.125 0.074 0.227 0.168 0.227 c 0.09 0 0.168 -0.141 0.168 -0.313 m -9.594 -0.68 c -0.027 -0.184 -0.098 -0.375 -0.152 -0.434 c -0.059 -0.055 -0.078 0.035 -0.047 0.203 c 0.031 0.172 0.063 0.363 0.07 0.434 c 0.008 0.066 0.051 0.125 0.098 0.125 c 0.043 0 0.059 -0.148 0.031 -0.328 m 1.18 0.063 c -0.059 -0.059 -0.203 -0.063 -0.32 -0.016 c -0.137 0.055 -0.094 0.094 0.098 0.102 c 0.18 0.008 0.277 -0.031 0.223 -0.086 m 1.418 -0.266 c -0.148 -0.148 -0.148 -0.258 0 -0.457 c 0.148 -0.195 0.121 -0.191 -0.113 0.023 c -0.262 0.234 -0.277 0.324 -0.094 0.543 c 0.121 0.145 0.262 0.223 0.313 0.172 c 0.047 -0.047 0 -0.176 -0.105 -0.281 m -1.055 -0.262 c -0.125 -0.16 -0.242 -0.316 -0.262 -0.352 c -0.023 -0.031 -0.027 0.098 -0.012 0.293 c 0.012 0.195 0.133 0.352 0.262 0.352 c 0.199 0 0.199 -0.047 0.012 -0.293 m 3.75 -0.02 c -0.043 -0.176 0 -0.367 0.098 -0.426 c 0.117 -0.07 0.145 0 0.086 0.188 c -0.07 0.207 -0.051 0.234 0.051 0.094 c 0.086 -0.113 0.293 -0.309 0.461 -0.434 c 0.242 -0.176 0.262 -0.254 0.09 -0.359 c -0.145 -0.086 -0.18 -0.066 -0.102 0.059 c 0.133 0.211 -0.102 0.266 -0.297 0.074 c -0.066 -0.066 0.055 -0.262 0.266 -0.434 c 0.375 -0.305 0.371 -0.305 -0.199 0 c -0.48 0.262 -0.59 0.426 -0.629 0.934 c -0.027 0.34 0.02 0.617 0.105 0.617 c 0.086 0 0.117 -0.141 0.07 -0.313 m 0.117 -0.688 c -0.152 -0.094 -0.172 -0.16 -0.055 -0.164 c 0.109 0 0.246 0.074 0.305 0.164 c 0.129 0.207 0.07 0.207 -0.25 0 m -7.07 0.125 c -0.023 -0.113 0.055 -0.188 0.168 -0.164 c 0.375 0.074 0.223 -0.109 -0.332 -0.406 c -0.301 -0.156 -0.648 -0.266 -0.773 -0.242 c -0.137 0.027 -0.176 -0.031 -0.098 -0.156 c 0.082 -0.133 0.055 -0.164 -0.074 -0.082 c -0.152 0.094 -0.156 0.18 -0.012 0.355 c 0.105 0.125 0.242 0.223 0.301 0.215 c 0.301 -0.039 0.57 0.035 0.477 0.133 c -0.063 0.063 -0.027 0.211 0.074 0.332 c 0.234 0.281 0.324 0.285 0.27 0.016 m 1.383 0.137 c 0 -0.043 -0.074 -0.121 -0.168 -0.176 c -0.094 -0.059 -0.168 -0.023 -0.168 0.07 c 0 0.098 0.074 0.18 0.168 0.18 c 0.094 0 0.168 -0.035 0.168 -0.074 m 5.188 -0.094 c 0 -0.09 -0.078 -0.168 -0.176 -0.168 c -0.098 0 -0.133 0.078 -0.074 0.168 c 0.055 0.09 0.137 0.168 0.176 0.168 c 0.043 0 0.074 -0.078 0.074 -0.168 m -7.773 21.723 c 0.32 -0.246 0.32 -0.246 -0.008 -0.152 c -0.293 0.082 -0.297 0.07 -0.059 -0.082 c 0.156 -0.102 0.402 -0.133 0.551 -0.078 c 0.242 0.094 0.238 0.125 -0.027 0.328 c -0.164 0.125 -0.406 0.227 -0.539 0.23 c -0.172 0.004 -0.148 -0.066 0.082 -0.246 m 14.13 -1.578 c -0.102 -0.195 -0.156 -0.48 -0.117 -0.633 c 0.055 -0.227 0.102 -0.203 0.25 0.133 c 0.156 0.348 0.168 0.281 0.094 -0.418 c -0.125 -1.172 -0.254 -1.441 -0.398 -0.832 l -0.121 0.5 l -0.02 -0.488 c -0.012 -0.266 -0.141 -0.613 -0.281 -0.77 c -0.207 -0.227 -0.227 -0.41 -0.102 -0.848 c 0.09 -0.309 0.172 -0.445 0.18 -0.309 c 0.016 0.223 0.039 0.223 0.18 0 c 0.137 -0.207 0.164 -0.191 0.168 0.082 c 0.004 0.188 0.059 0.258 0.129 0.16 c 0.066 -0.094 0.219 -0.16 0.332 -0.145 c 0.117 0.016 0.281 0.035 0.371 0.047 c 0.09 0.012 0.113 0.152 0.055 0.313 c -0.102 0.266 -0.082 0.27 0.211 0.043 c 0.18 -0.137 0.387 -0.344 0.461 -0.457 c 0.074 -0.117 0.242 -0.211 0.375 -0.211 c 0.133 0 0.242 -0.109 0.242 -0.25 c 0 -0.137 0.059 -0.246 0.125 -0.246 c 0.203 0.004 0.648 0.324 0.461 0.332 c -0.09 0 -0.055 0.082 0.086 0.18 c 0.188 0.133 0.199 0.199 0.039 0.262 c -0.289 0.117 -0.262 0.391 0.043 0.391 c 0.137 0 0.25 0.078 0.25 0.172 c 0 0.117 -0.098 0.117 -0.32 0 c -0.406 -0.215 -0.516 -0.219 -0.516 -0.008 c 0 0.094 0.059 0.16 0.125 0.148 c 0.398 -0.063 0.57 0.043 0.477 0.293 c -0.09 0.227 -0.066 0.238 0.148 0.063 c 0.176 -0.145 0.254 -0.152 0.254 -0.023 c 0 0.102 0.133 0.184 0.293 0.184 c 0.266 -0.008 0.27 -0.027 0.023 -0.211 c -0.402 -0.305 -0.57 -0.949 -0.242 -0.949 c 0.145 0 0.262 0.109 0.262 0.25 c 0 0.219 0.188 0.316 0.523 0.273 c 0.059 -0.008 0.238 0.133 0.402 0.313 c 0.355 0.391 0.215 0.422 -0.32 0.074 c -0.375 -0.242 -0.387 -0.234 -0.402 0.246 c -0.008 0.277 0.066 0.551 0.168 0.613 c 0.109 0.066 0.133 0.035 0.059 -0.086 c -0.066 -0.105 -0.059 -0.18 0.016 -0.164 c 0.078 0.016 0.266 -0.023 0.418 -0.094 c 0.18 -0.078 0.52 0.039 0.961 0.332 c 0.781 0.512 0.895 0.902 0.258 0.902 c -0.477 0 -1.301 -0.766 -1.133 -1.059 c 0.055 -0.105 0 -0.086 -0.129 0.039 c -0.184 0.18 -0.188 0.246 -0.027 0.309 c 0.117 0.039 0.211 0.148 0.211 0.234 c 0 0.23 -1.219 -0.012 -1.438 -0.285 c -0.133 -0.164 -0.23 -0.176 -0.371 -0.035 c -0.137 0.137 -0.246 0.133 -0.422 -0.012 c -0.133 -0.105 -0.359 -0.148 -0.508 -0.09 c -0.191 0.07 -0.32 -0.031 -0.441 -0.344 c -0.242 -0.633 -0.211 -0.887 0.125 -0.973 c 0.23 -0.059 0.219 -0.078 -0.063 -0.094 c -0.438 -0.023 -0.859 0.402 -0.531 0.535 c 0.168 0.063 0.168 0.086 0.008 0.098 c -0.148 0.008 -0.211 0.375 -0.211 1.242 c 0 0.859 -0.07 1.285 -0.238 1.426 c -0.191 0.156 -0.277 0.125 -0.43 -0.156 m -24.758 -1.375 c 0.004 -0.113 0.34 -0.469 0.742 -0.789 c 0.402 -0.32 0.781 -0.715 0.836 -0.875 c 0.137 -0.383 0.445 -0.371 0.785 0.027 c 0.258 0.297 0.258 0.328 -0.004 0.445 c -0.152 0.07 -0.469 0.133 -0.695 0.141 c -0.309 0.008 -0.418 0.102 -0.418 0.359 c -0.004 0.191 -0.105 0.473 -0.234 0.625 c -0.266 0.32 -1.027 0.371 -1.012 0.066 m 25.598 -2.426 c 0 -0.199 0.316 -0.434 0.434 -0.32 c 0.039 0.043 -0.039 0.172 -0.18 0.289 c -0.16 0.129 -0.254 0.141 -0.254 0.031 m 0.332 -0.727 c 0 -0.129 0.078 -0.313 0.176 -0.41 c 0.121 -0.117 0.094 -0.238 -0.086 -0.387 c -0.141 -0.117 -0.258 -0.355 -0.258 -0.531 c 0 -0.277 0.047 -0.293 0.379 -0.113 c 0.207 0.113 0.621 0.215 0.922 0.23 c 0.559 0.027 0.992 0.242 0.484 0.242 c -0.254 0 -0.355 0.195 -0.293 0.555 c 0.012 0.074 -0.047 0.094 -0.137 0.039 c -0.086 -0.055 -0.207 -0.023 -0.266 0.07 c -0.148 0.246 -0.457 0.207 -0.332 -0.039 c 0.059 -0.113 -0.051 -0.031 -0.242 0.184 c -0.223 0.254 -0.348 0.313 -0.348 0.16 m 0.504 -0.863 c 0 -0.035 -0.117 -0.156 -0.254 -0.273 c -0.215 -0.176 -0.238 -0.164 -0.152 0.063 c 0.09 0.234 0.406 0.398 0.406 0.211 m 0.586 -0.605 c 0.055 -0.09 0.23 -0.164 0.387 -0.16 c 0.242 0 0.246 0.023 0.031 0.16 c -0.328 0.211 -0.551 0.211 -0.418 0 m -23.301 -6.961 c 0.543 -0.664 0.578 -1.027 0.098 -1.027 c -0.285 0 -0.336 -0.078 -0.273 -0.414 c 0.043 -0.23 0.016 -0.418 -0.063 -0.418 c -0.082 0 -0.145 -0.148 -0.145 -0.332 c 0 -0.246 -0.113 -0.332 -0.418 -0.332 c -0.336 0 -0.418 -0.086 -0.418 -0.418 c 0 -0.258 -0.098 -0.414 -0.254 -0.414 c -0.137 0 -0.25 -0.113 -0.25 -0.25 c 0 -0.137 -0.066 -0.25 -0.148 -0.25 c -0.246 0 -2.027 -1.703 -2.027 -1.941 c 0 -0.328 0.563 -0.273 1.039 0.102 c 0.234 0.18 0.484 0.262 0.566 0.184 c 0.23 -0.211 1.238 -0.004 1.238 0.254 c 0 0.133 0.105 0.188 0.254 0.129 c 0.141 -0.055 0.379 0.004 0.531 0.129 c 0.215 0.18 0.289 0.184 0.344 0.02 c 0.086 -0.246 0.547 -0.281 0.547 -0.043 c 0 0.094 -0.059 0.148 -0.125 0.125 c -0.07 -0.02 -0.145 0.035 -0.168 0.125 c -0.02 0.094 0.055 0.168 0.168 0.172 c 0.113 0.004 0.305 0.066 0.426 0.141 c 0.285 0.176 -0.086 0.66 -0.41 0.535 c -0.125 -0.047 -0.227 -0.008 -0.227 0.094 c 0 0.109 0.18 0.137 0.461 0.074 c 0.43 -0.098 0.441 -0.09 0.145 0.141 c -0.355 0.277 -1.039 0.055 -0.836 -0.273 c 0.07 -0.109 0.039 -0.137 -0.078 -0.066 c -0.168 0.105 -0.262 -0.078 -0.219 -0.422 c 0.008 -0.063 -0.133 -0.07 -0.313 -0.023 c -0.207 0.051 -0.367 -0.016 -0.43 -0.184 c -0.059 -0.148 -0.215 -0.27 -0.352 -0.27 c -0.133 0 -0.359 -0.117 -0.504 -0.258 c -0.309 -0.309 -0.59 -0.246 -0.648 0.145 c -0.023 0.152 0.031 0.238 0.117 0.184 c 0.09 -0.055 0.281 0 0.43 0.125 c 0.148 0.121 0.297 0.203 0.328 0.18 c 0.176 -0.125 0.395 -0.012 0.293 0.148 c -0.07 0.113 -0.047 0.148 0.055 0.086 c 0.098 -0.059 0.219 0.004 0.273 0.137 c 0.059 0.152 0.203 0.207 0.379 0.137 c 0.184 -0.07 0.242 -0.043 0.172 0.074 c -0.066 0.105 0.035 0.23 0.223 0.293 c 0.188 0.059 0.301 0.172 0.254 0.25 c -0.051 0.078 -0.004 0.195 0.105 0.262 c 0.121 0.074 0.152 0.051 0.078 -0.07 c -0.133 -0.211 0.336 -0.195 0.68 0.023 c 0.117 0.07 0.23 0 0.273 -0.172 c 0.07 -0.262 0.082 -0.266 0.098 -0.012 c 0.012 0.152 -0.055 0.328 -0.148 0.383 c -0.09 0.059 -0.168 0.25 -0.168 0.434 c 0 0.18 -0.105 0.367 -0.238 0.418 c -0.133 0.051 -0.199 0.203 -0.145 0.336 c 0.051 0.137 0.203 0.203 0.344 0.152 c 0.203 -0.078 0.23 0.004 0.145 0.43 c -0.059 0.289 -0.031 0.613 0.059 0.723 c 0.109 0.129 0.082 0.313 -0.086 0.547 c -0.289 0.41 -0.93 0.449 -0.781 0.051 c 0.066 -0.191 -0.012 -0.172 -0.309 0.074 c -0.355 0.297 -0.348 0.273 0.059 -0.223 m 0.938 -0.266 c -0.043 -0.043 -0.18 0.086 -0.301 0.285 c -0.211 0.352 -0.207 0.355 0.082 0.082 c 0.164 -0.16 0.266 -0.324 0.219 -0.367 m -1.488 -2.926 c -0.141 -0.09 -0.328 -0.16 -0.418 -0.16 c -0.094 0 -0.055 0.07 0.082 0.16 c 0.137 0.09 0.328 0.164 0.418 0.164 c 0.094 0 0.055 -0.074 -0.082 -0.164 m 1.906 3.07 c 0.055 -0.148 0.102 -0.387 0.102 -0.531 c 0 -0.348 0.16 -0.18 0.242 0.258 c 0.039 0.199 -0.039 0.379 -0.188 0.438 c -0.188 0.07 -0.23 0.023 -0.156 -0.164 m -3.297 -0.629 c -0.047 -0.125 0.094 -0.441 0.313 -0.707 c 0.219 -0.27 0.398 -0.402 0.402 -0.297 c 0.004 0.102 -0.105 0.281 -0.246 0.395 c -0.305 0.254 -0.324 0.609 -0.043 0.723 c 0.133 0.051 0.109 0.09 -0.063 0.098 c -0.152 0.004 -0.316 -0.09 -0.363 -0.211 m 25.23 -1.285 c -0.063 -0.098 -0.074 -0.215 -0.031 -0.258 c 0.043 -0.043 0.125 0.035 0.18 0.176 c 0.113 0.293 0.016 0.348 -0.148 0.082 m 0.344 -0.328 c 0.043 -0.066 -0.082 -0.164 -0.273 -0.215 c -0.379 -0.098 -0.34 -0.559 0.039 -0.484 c 0.148 0.027 0.125 -0.039 -0.063 -0.188 c -0.332 -0.262 -0.398 -0.52 -0.082 -0.344 c 0.145 0.082 0.156 0.063 0.043 -0.059 c -0.094 -0.098 -0.352 -0.203 -0.57 -0.23 c -0.461 -0.066 -0.598 -0.52 -0.301 -0.992 c 0.27 -0.43 0.617 -0.395 0.629 0.063 l 0.012 0.375 l 0.156 -0.395 c 0.117 -0.289 0.25 -0.371 0.504 -0.305 c 0.211 0.055 0.379 -0.004 0.434 -0.148 c 0.051 -0.129 0.309 -0.238 0.578 -0.238 c 0.266 0 0.48 -0.074 0.48 -0.168 c 0 -0.098 0.246 -0.168 0.547 -0.16 c 0.297 0.008 0.75 -0.035 1 -0.098 c 0.602 -0.145 0.641 0.324 0.051 0.629 c -0.227 0.117 -0.414 0.27 -0.418 0.34 c -0.008 0.07 -0.012 0.18 -0.012 0.25 c -0.004 0.066 -0.086 0.012 -0.184 -0.125 c -0.152 -0.211 -0.164 -0.203 -0.086 0.047 c 0.109 0.332 -0.344 0.859 -0.883 1.031 c -0.207 0.063 -0.352 0.25 -0.352 0.449 c 0 0.285 -0.086 0.328 -0.504 0.27 c -0.523 -0.078 -0.688 0.094 -0.25 0.262 c 0.383 0.145 0.301 0.391 -0.164 0.477 c -0.227 0.043 -0.379 0.023 -0.336 -0.043 m 0.133 -1.27 c -0.066 -0.168 -0.043 -0.238 0.063 -0.172 c 0.094 0.059 0.336 -0.066 0.535 -0.277 c 0.27 -0.289 0.297 -0.387 0.113 -0.387 c -0.137 0 -0.211 0.055 -0.172 0.121 c 0.094 0.148 -0.402 0.355 -0.582 0.246 c -0.102 -0.063 -0.125 0.516 -0.031 0.703 c 0.094 0.184 0.156 -0.02 0.074 -0.234 m 0.73 0.031 c 0 -0.133 -0.066 -0.199 -0.145 -0.152 c -0.078 0.047 -0.098 0.156 -0.043 0.242 c 0.133 0.219 0.188 0.191 0.188 -0.086 m 0.891 -1.082 c 0 -0.086 -0.086 -0.211 -0.191 -0.273 c -0.129 -0.082 -0.148 -0.047 -0.059 0.102 c 0.102 0.16 0.063 0.191 -0.148 0.109 c -0.172 -0.066 -0.246 -0.043 -0.184 0.055 c 0.129 0.211 0.582 0.215 0.582 0.008 m 0.406 -0.324 c 0.051 -0.082 -0.012 -0.234 -0.141 -0.34 c -0.164 -0.137 -0.27 -0.141 -0.348 -0.016 c -0.059 0.098 -0.008 0.16 0.113 0.133 c 0.121 -0.023 0.203 0.047 0.18 0.164 c -0.051 0.238 0.063 0.273 0.195 0.059 m -24.508 0.73 c 0 -0.227 0.066 -0.414 0.145 -0.414 c 0.082 0 0.109 0.188 0.066 0.414 c -0.047 0.23 -0.109 0.418 -0.145 0.418 c -0.035 0 -0.066 -0.188 -0.066 -0.418 m -0.406 -0.566 c -0.117 -0.188 0.141 -1.277 0.391 -1.66 c 0.184 -0.285 0.523 -0.098 0.508 0.281 c -0.012 0.234 -0.035 0.227 -0.141 -0.039 c -0.121 -0.316 -0.125 -0.316 -0.266 0 c -0.078 0.176 -0.156 0.566 -0.176 0.871 c -0.043 0.609 -0.156 0.809 -0.316 0.547 m 9.172 -3.102 c -0.32 -0.141 -0.566 -0.395 -0.629 -0.652 c -0.059 -0.234 -0.18 -0.422 -0.266 -0.422 c -0.09 0 -0.426 -0.234 -0.75 -0.52 c -1.25 -1.09 -0.355 -1.359 1.109 -0.336 c 0.867 0.602 0.953 0.625 1.367 0.41 c 0.246 -0.129 0.445 -0.344 0.445 -0.477 c 0 -0.188 -0.082 -0.164 -0.336 0.09 c -0.184 0.18 -0.465 0.324 -0.625 0.316 c -0.191 -0.008 -0.215 -0.043 -0.074 -0.098 c 0.164 -0.066 0.141 -0.148 -0.086 -0.332 c -0.164 -0.137 -0.188 -0.188 -0.051 -0.117 c 0.215 0.105 0.219 0.086 0.027 -0.148 c -0.355 -0.434 -0.066 -0.688 0.418 -0.371 c 0.406 0.266 0.414 0.266 0.223 -0.09 c -0.148 -0.277 -0.148 -0.629 -0.004 -1.469 c 0.395 -2.258 0.531 -2.707 0.809 -2.652 c 0.277 0.051 0.613 0.965 0.355 0.965 c -0.086 0 -0.152 0.148 -0.152 0.332 c 0 0.184 0.082 0.332 0.184 0.332 c 0.109 0 0.141 -0.121 0.074 -0.289 c -0.078 -0.203 -0.059 -0.238 0.063 -0.121 c 0.094 0.094 0.203 0.555 0.238 1.023 c 0.039 0.469 0.121 0.938 0.184 1.039 c 0.066 0.102 0.066 0.422 0.004 0.703 c -0.086 0.395 -0.063 0.484 0.098 0.387 c 0.125 -0.078 0.168 -0.063 0.105 0.039 c -0.055 0.094 0.012 0.309 0.156 0.484 c 0.141 0.172 0.211 0.223 0.152 0.109 c -0.07 -0.137 -0.016 -0.172 0.152 -0.109 c 0.145 0.055 0.223 0.16 0.176 0.234 c -0.043 0.074 0.063 0.094 0.234 0.051 c 0.48 -0.125 0.598 0.258 0.207 0.676 c -0.316 0.332 -0.328 0.402 -0.102 0.719 c 0.23 0.328 0.223 0.344 -0.129 0.258 c -0.207 -0.047 -0.457 -0.152 -0.559 -0.23 c -0.102 -0.078 -0.246 -0.086 -0.32 -0.016 c -0.074 0.066 -0.07 0.008 0.012 -0.129 c 0.238 -0.406 0.227 -0.648 -0.035 -0.551 c -0.27 0.102 -0.25 -0.285 0.023 -0.488 c 0.105 -0.078 0.078 -0.184 -0.074 -0.281 c -0.258 -0.164 -0.57 -0.07 -0.441 0.133 c 0.043 0.066 -0.07 0.133 -0.25 0.145 c -0.184 0.016 -0.289 -0.039 -0.238 -0.121 c 0.191 -0.305 -0.207 -0.301 -0.469 0.008 c -0.27 0.313 -0.262 0.324 0.219 0.324 c 0.277 0 0.5 0.082 0.5 0.18 c 0 0.113 -0.184 0.141 -0.5 0.07 c -0.484 -0.105 -0.602 0.004 -0.516 0.477 c 0.016 0.082 -0.105 0.098 -0.262 0.035 c -0.273 -0.102 -0.277 -0.09 -0.008 0.203 c 0.523 0.574 0.27 0.684 -0.66 0.277 m -0.594 -1.523 c -0.047 -0.25 -1.141 -0.852 -1.141 -0.629 c 0 0.148 0.871 0.91 1.039 0.91 c 0.086 0 0.133 -0.125 0.102 -0.281 m 2.75 -0.523 c 0.047 -0.188 -0.008 -0.305 -0.148 -0.305 c -0.238 0 -0.309 0.309 -0.117 0.5 c 0.16 0.156 0.176 0.145 0.266 -0.195 m -0.203 -1.016 c -0.254 -0.473 -0.211 -0.582 0.121 -0.324 c 0.262 0.207 0.27 0.203 0.07 -0.055 c -0.129 -0.156 -0.176 -0.43 -0.117 -0.621 c 0.086 -0.262 0.051 -0.316 -0.152 -0.242 c -0.145 0.055 -0.262 0.285 -0.262 0.512 c 0 0.402 0.266 1.051 0.43 1.051 c 0.047 0 0.004 -0.145 -0.09 -0.32 m -0.727 -1.539 c -0.055 -0.133 -0.094 -0.094 -0.102 0.098 c -0.008 0.176 0.031 0.277 0.086 0.219 c 0.055 -0.055 0.063 -0.199 0.016 -0.316 m 0.887 -0.34 c 0 -0.07 -0.113 -0.129 -0.25 -0.129 c -0.176 0 -0.254 -0.188 -0.266 -0.625 c -0.004 -0.344 -0.047 -0.512 -0.094 -0.375 c -0.047 0.137 -0.168 0.422 -0.273 0.637 c -0.148 0.301 -0.137 0.414 0.043 0.527 c 0.281 0.172 0.84 0.148 0.84 -0.035" fill="#fff"/></svg>