<svg xmlns="http://www.w3.org/2000/svg" viewBox="0 0 48 48"><path d="m 69.44 186.06 v -14.208 h 6.083 v 23.333 h 11.167 v 5.083 h -17.25" transform="scale(0.1875)" fill="#fff" fill-rule="evenodd" stroke="#fff" stroke-width="2.778"/><path d="m 23.582 0.898 c -20.809 -4.141 -28.711 24.24 -19.695 39.648 c 7.188 12.281 31.797 8.77 40.973 -7.805 c 9.172 -16.574 -4.578 -28.523 -21.277 -31.844" fill="#e03d3d"/><g fill="#fff" fill-rule="evenodd" stroke="#fff"><path d="m 24.4 157.54 v -14.391 h 6.135 v 23.634 h 11.262 v 5.149 h -17.397" transform="matrix(0.18591 0 0 0.18512 7.151 5.723)" stroke-width="2.808"/><g stroke-width="2.778" transform="scale(0.1875)"><path d="m 54.708 111.46 v -28.917 h 10.542 c 16.25 0.021 20.813 1 25.19 5.375 c 3.083 3.083 4.479 6.625 4.771 12.146 c 0.313 5.938 -0.958 10.583 -3.75 13.854 c -4.02 4.688 -8.292 6.167 -17.813 6.167 h -6.25 v 20.313 h -12.687 m 24.521 -31.625 c 2.417 -1.563 3.146 -3.271 3.146 -7.271 c 0 -6.292 -2.479 -8.313 -10.271 -8.313 h -4.708 v 16.854 l 5.25 -0.188 c 3.875 -0.146 5.583 -0.417 6.583 -1.083"/><path d="m 104.96 111.46 v -28.917 h 34 v 11.167 h -21.813 v 11.146 h 20.792 v 10.667 h -20.792 v 24.875 h -12.188"/><path d="m 160.65 140.58 c -1.875 -0.417 -4.854 -1.25 -6.604 -1.875 l -3.167 -1.125 l -0.146 -6 c -0.063 -3.313 0.042 -5.938 0.271 -5.833 c 0.208 0.104 1.542 0.792 2.979 1.542 c 4.729 2.479 9.208 3.667 13.896 3.667 c 6.563 0 9.146 -1.938 9.146 -6.833 c 0 -1.708 -0.313 -2.438 -1.646 -3.75 c -1.354 -1.333 -2.792 -1.958 -7.729 -3.313 c -7.854 -2.167 -9.896 -3.083 -12.625 -5.604 c -3.354 -3.063 -4.604 -6.333 -4.604 -11.938 c -0.021 -5.729 1.104 -9.229 3.938 -12.313 c 5.271 -5.708 13.938 -6.917 27.23 -3.771 l 3.813 0.896 l 0.146 5.958 l 0.146 5.979 l -2.104 -1.063 c -5.146 -2.646 -14.792 -3.854 -18.375 -2.354 c -3.167 1.333 -4.625 4.542 -3.458 7.563 c 0.771 2.042 3.042 3.167 9.375 4.708 c 13.625 3.313 17.667 7.396 17.646 17.771 c -0.021 9.875 -3.917 15.604 -12 17.708 c -3.75 0.979 -11.5 0.958 -16.12 -0.021"/><path d="m 152.67 185.5 v -14.271 l 6.979 0.208 c 7.938 0.229 9.958 0.917 12.771 4.333 c 4.854 5.833 3.708 17.25 -2.146 21.5 c -2.521 1.833 -5.792 2.479 -12.313 2.479 h -5.292 v -14.271 m 12.396 8.208 c 3.063 -1.5 4.083 -3.521 4.083 -8.146 c 0 -6.167 -2.583 -9.125 -7.979 -9.125 h -2.417 v 18.271 h 2.125 c 1.167 0 3.063 -0.458 4.188 -1"/><path d="m 120.19 195.83 c 0.813 -2.438 2.854 -8.833 4.563 -14.208 l 3.083 -9.771 h 7.333 l 4.271 13.563 c 2.333 7.479 4.354 13.875 4.479 14.229 c 0.167 0.458 -0.583 0.625 -2.771 0.625 h -3 l -0.667 -2.563 l -0.646 -2.542 l -10.708 0.292 l -0.708 2.396 l -0.688 2.417 h -6 m 16.17 -10.688 c 0 -1.313 -3.229 -11.646 -3.542 -11.292 c -0.188 0.229 -0.958 2.583 -1.708 5.229 c -0.771 2.646 -1.521 5.229 -1.646 5.708 c -0.25 0.792 0.146 0.896 3.313 0.896 c 2.188 0 3.583 -0.208 3.583 -0.542"/><path d="m 95.06 199.5 c -1.125 -0.375 -2.979 -1.708 -4.167 -2.958 c -2.833 -3 -3.896 -6.604 -3.604 -12.313 c 0.313 -5.688 2.125 -9.375 5.708 -11.604 c 2.229 -1.375 2.896 -1.542 6.625 -1.542 c 3.729 0 4.396 0.167 6.625 1.542 c 3.583 2.229 5.417 5.917 5.708 11.604 c 0.313 5.938 -0.771 9.458 -3.875 12.563 c -3.417 3.396 -8.25 4.417 -13.02 2.729 m 8.354 -5.75 c 1.708 -1.708 2.542 -4.396 2.542 -8.208 c 0 -3.75 -0.771 -6.333 -2.479 -8.229 c -1.208 -1.354 -1.75 -1.583 -3.854 -1.583 c -2.083 0 -2.646 0.229 -3.854 1.583 c -3.417 3.813 -3.375 12.979 0.063 16.438 c 1.167 1.146 1.875 1.438 3.792 1.438 c 1.917 0 2.646 -0.292 3.792 -1.438"/></g></g></svg>