
<svg xmlns="http://www.w3.org/2000/svg" xmlns:xlink="http://www.w3.org/1999/xlink" width="48px" height="48px" viewBox="0 0 48 48" version="1.1">
<g id="surface1">
<path style=" stroke:none;fill-rule:nonzero;fill:rgb(82.745098%,82.745098%,82.745098%);fill-opacity:1;" d="M 23.574219 47.589844 C 2.589844 51.746094 -5.378906 23.230469 3.714844 7.746094 C 10.960938 -4.59375 35.78125 -1.066406 45.035156 15.589844 C 54.285156 32.246094 40.417969 44.253906 23.574219 47.589844 Z M 23.574219 47.589844 "/>
<path style="fill-rule:nonzero;fill:rgb(82.745098%,82.745098%,82.745098%);fill-opacity:1;stroke-width:1.033;stroke-linecap:butt;stroke-linejoin:miter;stroke:rgb(41.176471%,41.176471%,41.176471%);stroke-opacity:1;stroke-miterlimit:4;" d="M 3.075779 44.744206 L 44.082069 44.744206 L 44.082069 3.323012 L 3.075779 3.323012 Z M 3.075779 44.744206 " transform="matrix(0.635764,0,0,0.603744,7.696875,9.853125)"/>
<path style="fill-rule:nonzero;fill:rgb(41.176471%,41.176471%,41.176471%);fill-opacity:1;stroke-width:1;stroke-linecap:butt;stroke-linejoin:miter;stroke:rgb(41.176471%,41.176471%,41.176471%);stroke-opacity:1;stroke-miterlimit:4;" d="M 18.061446 4.080007 L 18.061446 18.171753 L 3.978974 18.171753 L 3.978974 18.527605 L 18.061446 18.527605 L 18.061446 29.578433 L 3.978974 29.578433 L 3.978974 29.934285 L 18.061446 29.934285 L 18.061446 44.013091 L 18.417809 44.013091 L 18.417809 29.934285 L 29.465053 29.934285 L 29.465053 44.013091 L 29.821416 44.013091 L 29.821416 29.934285 L 43.903887 29.934285 L 43.903887 29.578433 L 29.821416 29.578433 L 29.821416 18.527605 L 43.903887 18.527605 L 43.903887 18.171753 L 29.821416 18.171753 L 29.821416 4.080007 L 29.465053 4.080007 L 29.465053 18.171753 L 18.417809 18.171753 L 18.417809 4.080007 Z M 18.417809 18.521135 L 29.465053 18.521135 L 29.465053 29.571963 L 18.417809 29.571963 Z M 18.417809 18.521135 " transform="matrix(0.635764,0,0,0.603744,7.696875,9.853125)"/>
<path style="fill-rule:evenodd;fill:rgb(50.196078%,50.196078%,50.196078%);fill-opacity:1;stroke-width:1;stroke-linecap:butt;stroke-linejoin:miter;stroke:rgb(41.176471%,41.176471%,41.176471%);stroke-opacity:1;stroke-miterlimit:4;" d="M 92.198193 180.608983 C 92.198193 188.696532 85.652154 195.249909 77.560522 195.249909 C 69.468891 195.249909 62.904668 188.696532 62.904668 180.608983 C 62.904668 172.521433 69.468891 165.968056 77.560522 165.968056 C 85.652154 165.968056 92.198193 172.521433 92.198193 180.608983 Z M 92.198193 180.608983 " transform="matrix(0.214825,0,0,0.206239,6.209188,-12.940036)"/>
<path style="fill-rule:evenodd;fill:rgb(50.196078%,50.196078%,50.196078%);fill-opacity:1;stroke-width:1;stroke-linecap:butt;stroke-linejoin:miter;stroke:rgb(41.176471%,41.176471%,41.176471%);stroke-opacity:1;stroke-miterlimit:4;" d="M 92.201392 180.609529 C 92.201392 188.702071 85.649112 195.249042 77.552251 195.249042 C 69.471648 195.249042 62.919368 188.702071 62.919368 180.609529 C 62.919368 172.516987 69.471648 165.970016 77.552251 165.970016 C 85.649112 165.970016 92.201392 172.516987 92.201392 180.609529 Z M 92.201392 180.609529 " transform="matrix(0.240255,0,0,0.224937,12.672362,-8.059367)"/>
<path style="fill-rule:evenodd;fill:rgb(50.196078%,50.196078%,50.196078%);fill-opacity:1;stroke-width:1;stroke-linecap:butt;stroke-linejoin:miter;stroke:rgb(41.176471%,41.176471%,41.176471%);stroke-opacity:1;stroke-miterlimit:4;" d="M 92.198686 180.611113 C 92.198686 188.696552 85.646671 195.245927 77.556939 195.245927 C 69.467207 195.245927 62.915193 188.696552 62.915193 180.611113 C 62.915193 172.525673 69.467207 165.959419 77.556939 165.959419 C 85.646671 165.959419 92.198686 172.525673 92.198686 180.611113 Z M 92.198686 180.611113 " transform="matrix(0.233707,0,0,0.231415,-3.402924,-25.272723)"/>
<path style="fill-rule:evenodd;fill:rgb(50.196078%,50.196078%,50.196078%);fill-opacity:1;stroke-width:1;stroke-linecap:butt;stroke-linejoin:miter;stroke:rgb(41.176471%,41.176471%,41.176471%);stroke-opacity:1;stroke-miterlimit:4;" d="M 92.197502 180.603102 C 92.197502 188.701619 85.648884 195.247919 77.553349 195.247919 C 69.457813 195.247919 62.909195 188.701619 62.909195 180.603102 C 62.909195 172.521458 69.475001 165.958286 77.553349 165.958286 C 85.648884 165.958286 92.197502 172.521458 92.197502 180.603102 Z M 92.197502 180.603102 " transform="matrix(0.227266,0,0,0.231524,13.679412,-25.477996)"/>
</g>
</svg>
