<svg xmlns="http://www.w3.org/2000/svg" xmlns:xlink="http://www.w3.org/1999/xlink" viewBox="0 0 48 48"><defs><g id="3" clip-path="url(#2)"><path d="m 41.998 5.995 h 12 v 84 h -12" transform="matrix(0.28349 0 0 0.28096 10.06 12.07)" fill="#f8f8ff" stroke="#fff"/></g><g id="6" clip-path="url(#5)"><path d="m 48.01 5.995 h 0.992 v 79.998 h -0.992" transform="matrix(0.28349 0 0 0.28096 10.06 12.07)" fill="#f8f8ff" stroke="#fff"/></g><g id="9" clip-path="url(#8)"><path d="m 53.999 5.995 h 1.998 v 84 h -1.998" transform="matrix(0.28349 0 0 0.28096 10.06 12.07)" fill="#f8f8ff" stroke="#fff"/></g><g id="C" clip-path="url(#B)"><path d="m -41.998 5.995 h 1.998 v 84 h -1.998" transform="matrix(-0.28349 0 0 0.28096 10.06 12.07)" fill="#f8f8ff" stroke="#fff"/></g><g id="F" clip-path="url(#E)"><path d="m 41.998 5.995 v 84 h 1.01 v -84" transform="matrix(0.28349 0 0 0.28096 10.06 12.07)" fill="#f8f8ff" stroke="#fff"/></g><g id="I" clip-path="url(#H)"><path d="m 41.998 5.995 h 12 v 84 h -12" transform="matrix(0.28349 0 0 0.28096 10.06 12.07)" fill="#f8f8ff" stroke="#fff"/></g><g id="L" clip-path="url(#K)"><path d="m 12 85.993 c -3.321 0 -5.994 -2.669 -5.994 -5.992 v -68 c 0 -3.323 2.673 -6.01 5.994 -6.01 h 71.996 c 3.321 0 6.01 2.683 6.01 6.01 v 68 c 0 3.323 -2.687 5.992 -6.01 5.992 m -71.996 -0.959 h 71.996 c 2.811 0 5.03 -2.224 5.03 -5.03 v -68 c 0 -2.808 -2.218 -5.03 -5.03 -5.03 h -71.996 c -2.811 0 -5.03 2.224 -5.03 5.03 v 68 c 0 2.808 2.218 5.03 5.03 5.03" transform="matrix(0.28349 0 0 0.28096 10.06 12.07)" fill="#f8f8ff" stroke="#fff"/></g><g id="O" clip-path="url(#N)"><path d="m 6.01 77.999 v 2 c 0 3.323 2.673 5.992 5.994 5.992 h 71.996 c 3.321 0 6.01 -2.669 6.01 -5.992 v -2 c 0 3.323 -2.687 6.01 -6.01 6.01 h -71.996 c -3.321 0 -5.994 -2.683 -5.994 -6.01" transform="matrix(0.28349 0 0 0.28096 10.06 12.07)" fill="#f8f8ff" stroke="#fff"/></g><g id="R" clip-path="url(#Q)"><path d="m 6.01 82 v 2 c 0 3.323 2.673 5.992 5.994 5.992 h 71.996 c 3.321 0 6.01 -2.669 6.01 -5.992 v -2 c 0 3.323 -2.687 5.992 -6.01 5.992 h -71.996 c -3.321 0 -5.994 -2.669 -5.994 -5.992" transform="matrix(0.28349 0 0 0.28096 10.06 12.07)" fill="#f8f8ff" stroke="#fff"/></g><g id="U" clip-path="url(#T)"><path d="m 6.01 83 v 1 c 0 3.323 2.673 5.992 5.994 5.992 h 71.996 c 3.321 0 6.01 -2.669 6.01 -5.992 v -1 c 0 3.323 -2.687 5.992 -6.01 5.992 h -71.996 c -3.321 0 -5.994 -2.669 -5.994 -5.992" transform="matrix(0.28349 0 0 0.28096 10.06 12.07)" fill="#f8f8ff" stroke="#fff"/></g><g id="X" clip-path="url(#W)"><path d="m 59.48 55.09 c -1.116 0 -1.998 0.89 -1.998 1.988 v 22.01 c 0 1.098 0.882 2 1.998 2 h 21.992 c 1.116 0 2.01 -0.904 2.01 -2 v -22.01 c 0 -1.098 -0.896 -1.988 -2.01 -1.988 m -21 1.988 h 20.01 c 0.551 0 0.992 0.445 0.992 1 v 20.01 c 0 0.556 -0.441 1 -0.992 1 h -20.01 c -0.551 0 -0.992 -0.445 -0.992 -1 v -20.01 c 0 -0.556 0.441 -1 0.992 -1 m 8.791 2 c -0.358 0 -0.689 0.306 -0.689 0.653 v 1.293 c -0.634 0.167 -1.226 0.417 -1.791 0.737 l -0.868 -0.932 c -0.262 -0.25 -0.689 -0.25 -0.937 0 l -1.75 1.752 c -0.248 0.25 -0.262 0.681 0 0.932 l 0.937 0.876 c -0.317 0.556 -0.579 1.154 -0.758 1.78 h -1.268 c -0.372 0 -0.661 0.334 -0.661 0.695 v 2.433 c 0 0.361 0.289 0.695 0.661 0.695 h 1.268 c 0.179 0.626 0.441 1.223 0.758 1.78 l -0.937 0.876 c -0.262 0.25 -0.248 0.681 0 0.932 l 1.75 1.752 c 0.248 0.25 0.675 0.25 0.937 0 l 0.868 -0.932 c 0.565 0.32 1.157 0.57 1.791 0.751 v 1.279 c 0 0.361 0.331 0.653 0.689 0.653 h 2.439 c 0.344 0 0.675 -0.292 0.675 -0.653 v -1.279 c 0.634 -0.181 1.24 -0.431 1.791 -0.751 l 0.868 0.932 c 0.124 0.125 0.303 0.153 0.468 0.153 c 0.165 0 0.344 -0.028 0.468 -0.153 l 1.75 -1.752 c 0.248 -0.25 0.262 -0.681 0 -0.932 l -0.937 -0.876 c 0.331 -0.556 0.579 -1.154 0.758 -1.78 h 1.281 c 0.358 0 0.648 -0.334 0.648 -0.695 v -2.433 c 0 -0.361 -0.289 -0.695 -0.648 -0.695 h -1.281 c -0.179 -0.626 -0.427 -1.223 -0.758 -1.78 l 0.937 -0.876 c 0.262 -0.25 0.248 -0.681 0 -0.932 l -1.75 -1.752 c -0.248 -0.25 -0.675 -0.25 -0.937 0 l -0.868 0.932 c -0.551 -0.32 -1.157 -0.57 -1.791 -0.737 v -1.293 c 0 -0.348 -0.331 -0.653 -0.689 -0.653 m -1.213 5.617 c 1.86 0 3.376 1.515 3.376 3.378 c 0 1.863 -1.516 3.378 -3.376 3.378 c -1.86 0 -3.376 -1.515 -3.376 -3.378 c 0 -1.863 1.516 -3.378 3.376 -3.378" transform="matrix(0.28349 0 0 0.28096 10.06 12.07)" fill="#f8f8ff" stroke="#fff"/></g><clipPath id="8"><path d="M 0,0 H48 V48 H0 z"/></clipPath><clipPath id="E"><path d="M 0,0 H48 V48 H0 z"/></clipPath><clipPath id="K"><path d="M 0,0 H48 V48 H0 z"/></clipPath><clipPath id="H"><path d="M 0,0 H48 V48 H0 z"/></clipPath><clipPath id="B"><path d="M 0,0 H48 V48 H0 z"/></clipPath><clipPath id="N"><path d="M 0,0 H48 V48 H0 z"/></clipPath><clipPath id="W"><path d="M 0,0 H48 V48 H0 z"/></clipPath><clipPath id="5"><path d="M 0,0 H48 V48 H0 z"/></clipPath><clipPath id="T"><path d="M 0,0 H48 V48 H0 z"/></clipPath><clipPath id="Q"><path d="M 0,0 H48 V48 H0 z"/></clipPath><clipPath id="2"><path d="M 0,0 H48 V48 H0 z"/></clipPath><filter id="0" filterUnits="objectBoundingBox" x="0" y="0" width="48" height="48"><feColorMatrix type="matrix" in="SourceGraphic" values="0 0 0 0 1 0 0 0 0 1 0 0 0 0 1 0 0 0 1 0"/></filter><mask id="4"><g filter="url(#0)"><path fill-opacity="0.2" d="M 0,0 H48 V48 H0 z"/></g></mask><mask id="G"><g filter="url(#0)"><path fill-opacity="0.2" d="M 0,0 H48 V48 H0 z"/></g></mask><mask id="S"><g filter="url(#0)"><path fill-opacity="0.149" d="M 0,0 H48 V48 H0 z"/></g></mask><mask id="V"><g filter="url(#0)"><path fill-opacity="0.573" d="M 0,0 H48 V48 H0 z"/></g></mask><mask id="1"><g filter="url(#0)"><path fill-opacity="0.702" d="M 0,0 H48 V48 H0 z"/></g></mask><mask id="P"><g filter="url(#0)"><path fill-opacity="0.102" d="M 0,0 H48 V48 H0 z"/></g></mask><mask id="D"><g filter="url(#0)"><path fill-opacity="0.502" d="M 0,0 H48 V48 H0 z"/></g></mask><mask id="7"><g filter="url(#0)"><path fill-opacity="0.102" d="M 0,0 H48 V48 H0 z"/></g></mask><mask id="J"><g filter="url(#0)"><path fill-opacity="0.302" d="M 0,0 H48 V48 H0 z"/></g></mask><mask id="M"><g filter="url(#0)"><path fill-opacity="0.102" d="M 0,0 H48 V48 H0 z"/></g></mask><mask id="A"><g filter="url(#0)"><path fill-opacity="0.051" d="M 0,0 H48 V48 H0 z"/></g></mask></defs><path d="m 47.38 24.527 c 4.172 20.703 -24.445 28.563 -39.98 19.59 c -12.383 -7.145 -8.844 -31.633 7.871 -40.762 c 16.711 -9.129 28.762 4.555 32.11 21.17" fill="#730097"/><use xlink:href="#3" mask="url(#1)"/><use xlink:href="#6" mask="url(#4)"/><use xlink:href="#9" mask="url(#7)"/><use xlink:href="#C" mask="url(#A)"/><use xlink:href="#F" mask="url(#D)"/><use xlink:href="#I" mask="url(#G)"/><use xlink:href="#L" mask="url(#J)"/><use xlink:href="#O" mask="url(#M)"/><path d="m 6.01 80 v 4 c 0 3.323 2.673 5.992 5.994 5.992 h 71.996 c 3.321 0 6.01 -2.669 6.01 -5.992 v -4 c 0 3.323 -2.687 5.992 -6.01 5.992 h -71.996 c -3.321 0 -5.994 -2.669 -5.994 -5.992" transform="matrix(0.28349 0 0 0.28096 10.06 12.07)" fill="#f8f8ff" stroke="#fff"/><use xlink:href="#R" mask="url(#P)"/><use xlink:href="#U" mask="url(#S)"/><use xlink:href="#X" mask="url(#V)"/><g fill-rule="evenodd"><g fill="#f8f8ff" stroke="#fff" fill-opacity="0.992" transform="scale(0.1875 0.1875)"><path d="m 141.83 185.87 c -0.521 -0.271 -1.146 -0.854 -1.354 -1.25 c -0.583 -1.104 -0.813 -12.708 -0.521 -25.25 l 0.271 -10.937 l 1 -1 l 0.979 -1 h 36.06 l 0.917 0.917 c 0.563 0.562 1 1.5 1.125 2.396 c 0.125 0.812 0.167 8.917 0.125 18 l -0.125 16.542 l -1.958 1.958 l -17.771 0.083 c -15.208 0.063 -17.917 0 -18.729 -0.437 m 34.31 -19.437 c 0.063 -12.208 -0.021 -15.604 -0.354 -15.833 c -0.771 -0.479 -30.854 -0.354 -31.354 0.125 c -0.313 0.333 -0.417 4.229 -0.417 15.375 c 0 8.208 0.104 15.187 0.208 15.5 c 0.208 0.5 1.854 0.562 16.02 0.479 l 15.792 -0.104 l 0.083 -15.542"/><path d="m 157.33 179.87 c -0.292 -0.312 -0.542 -1 -0.542 -1.521 c 0 -0.75 -0.25 -1.062 -1.042 -1.354 c -0.896 -0.333 -1.146 -0.292 -1.646 0.271 c -0.958 1.042 -2.125 0.812 -3.833 -0.75 c -1.875 -1.729 -2.146 -2.521 -1.208 -3.708 c 0.979 -1.25 0.604 -3 -0.646 -3 c -1.896 0 -2.25 -0.521 -2.25 -3.333 c 0 -2.833 0.229 -3.271 1.917 -3.458 c 1.5 -0.167 1.938 -1.667 0.896 -3.062 c -0.583 -0.812 -0.688 -1.187 -0.396 -1.729 c 0.438 -0.812 3.458 -3.646 3.896 -3.646 c 0.167 0 0.729 0.333 1.25 0.729 c 1.292 1.021 2.833 0.542 3 -0.937 c 0.188 -1.687 0.604 -1.917 3.625 -1.917 c 3.02 0 2.875 -0.104 3.229 2.271 c 0.063 0.375 0.542 0.833 1.063 1 c 0.771 0.271 1.167 0.167 1.917 -0.417 c 0.521 -0.396 1.083 -0.729 1.25 -0.729 c 0.583 0 4.188 3.625 4.188 4.187 c 0 0.292 -0.333 0.917 -0.75 1.354 c -0.688 0.708 -0.708 0.917 -0.313 1.875 c 0.375 0.896 0.646 1.083 1.625 1.083 c 1.583 0 2.02 0.896 1.854 3.792 c -0.167 2.458 -0.5 2.917 -2.167 2.917 c -1.417 0.021 -1.938 1.5 -0.958 2.75 c 1 1.271 0.917 1.687 -0.938 3.646 c -1.813 1.937 -2.854 2.208 -3.958 1.021 c -0.667 -0.708 -0.75 -0.708 -1.792 -0.167 c -0.854 0.437 -1.104 0.792 -1.104 1.604 c 0 1.354 -0.813 1.771 -3.479 1.771 c -1.458 0 -2.292 -0.167 -2.688 -0.562 m 6.083 -10.562 c 0.938 -1.021 1.146 -1.542 1.146 -2.854 c 0 -2.687 -1.729 -4.417 -4.438 -4.417 c -3.458 0 -5.5 3.687 -3.688 6.646 c 1.542 2.521 4.958 2.833 6.979 0.625"/></g><g fill="#fff" stroke="#695acd"><g transform="matrix(0.1875 0 0 0.1875 0 -149.32)"><path d="m 187.6 929.44 l -0.021 -52.31 l -0.771 -1.604 c -0.479 -0.958 -1.375 -1.979 -2.271 -2.563 l -1.479 -0.979 l -22.04 -0.083 l -22.04 -0.104 v -2.542 l 22.02 0.021 c 20.521 0 22.13 0.042 23.479 0.667 c 2.208 1 3.688 2.396 4.729 4.5 l 0.938 1.875 v 50.646 c 0 50.4 0 50.625 -0.729 50.625 c -0.542 0 -0.729 0.25 -0.75 1 c 0 0.563 -0.25 1.5 -0.521 2.104 c -0.417 0.917 -0.5 -6.563 -0.521 -51.23"/><path d="m 64.17 980.55 c -0.25 -0.688 -0.458 -1.625 -0.458 -2.104 c 0 -0.604 -0.208 -0.854 -0.729 -0.854 c -0.729 0 -0.729 -0.229 -0.729 -50.27 c 0 -56.1 -0.188 -52.29 2.563 -55.1 c 2.854 -2.938 1.104 -2.75 26.21 -2.875 l 22.375 -0.104 v 2.563 l -22.04 0.083 l -22.04 0.104 l -1.271 0.875 c -0.708 0.479 -1.688 1.458 -2.167 2.167 l -0.875 1.271 l -0.188 52.729 c -0.146 42.771 -0.271 52.5 -0.646 51.5"/><path d="m 113.4 870.55 c 0 -1.25 0.042 -1.271 1.458 -1.271 c 1.438 0 1.479 0.021 1.479 1.271 c 0 1.229 -0.042 1.271 -1.479 1.271 c -1.417 0 -1.458 -0.042 -1.458 -1.271"/><path d="m 136.06 870.55 c 0 -1.25 0.042 -1.271 1.458 -1.271 c 1.438 0 1.458 0.021 1.458 1.271 c 0 1.229 -0.021 1.271 -1.458 1.271 c -1.417 0 -1.458 -0.042 -1.458 -1.271"/><path d="m 190.25 979.05 c 0 -0.896 0.063 -1.271 0.146 -0.813 c 0.083 0.438 0.083 1.188 0 1.625 c -0.083 0.458 -0.146 0.083 -0.146 -0.813"/><path d="m 188.79 979.49 c 0.25 -2.25 1.333 -2.604 1.333 -0.438 c 0 1.208 -0.104 1.458 -0.729 1.458 c -0.563 0 -0.688 -0.208 -0.604 -1.021"/><path d="m 62.25 979.05 c 0 -1.646 0.563 -1.917 1.104 -0.521 c 0.542 1.417 0.438 1.979 -0.375 1.979 c -0.604 0 -0.729 -0.25 -0.729 -1.458"/><path d="m 119.6 929.07 v -56.896 h 5.854 v 113.77 h -5.854"/><path d="m 128.63 985.71 c -0.125 -0.125 -0.229 -25.729 -0.229 -56.896 v -56.646 h 6.208 v 113.79 h -2.875 c -1.563 0 -2.958 -0.104 -3.104 -0.25"/><path d="m 128.38 986.76 c 0 -0.688 -0.208 -0.792 -1.458 -0.792 h -1.458 v -114.15 h 2.917 l 0.083 57.708 c 0.063 31.75 0.063 57.792 0.021 57.875 c -0.063 0.083 -0.104 -0.208 -0.104 -0.646"/><path d="m 119.6 987.96 c 0 -0.438 0.583 -0.542 2.938 -0.542 c 2.354 0 2.917 0.104 2.917 0.542 c 0 0.438 -0.563 0.542 -2.917 0.542 c -2.354 0 -2.938 -0.104 -2.938 -0.542"/><path d="m 128.38 987.96 c 0 -0.458 0.667 -0.542 3.833 -0.542 c 3.167 0 3.854 0.083 3.854 0.542 c 0 0.438 -0.688 0.542 -3.854 0.542 c -3.167 0 -3.833 -0.104 -3.833 -0.542"/><path d="m 117.33 987.15 c -0.604 -0.146 -0.646 -3.208 -0.646 -57.75 v -57.58 h 2.563 v 57.792 c 0 54.833 -0.042 57.792 -0.646 57.771 c -0.354 -0.042 -0.917 -0.125 -1.271 -0.208"/><path d="m 119.6 870.55 v -1.271 h 5.854 v 2.542 h -5.854"/><path d="m 125.46 870.55 c 0 -1.25 0.042 -1.271 1.458 -1.271 c 1.437 0 1.458 0.021 1.458 1.271 c 0 1.229 -0.021 1.271 -1.458 1.271 c -1.417 0 -1.458 -0.042 -1.458 -1.271"/><path d="m 128.38 870.55 v -1.271 h 6.208 v 2.542 h -6.208"/><path d="m 119.48 986.71 v -0.667 l 3 0.083 l 3.02 0.063 v 1.167 h -6.02"/><path d="m 128.63 986.61 v -0.75 l 1.979 0.146 c 1.104 0.083 2.438 0.167 3.02 0.167 c 0.917 0 1.021 0.042 1.021 0.583 v 0.604 h -6.02"/><path d="m 125.5 986.76 c 0 -0.583 0.042 -0.604 1.354 -0.542 c 1.146 0.063 1.375 0.167 1.542 0.625 c 0.208 0.521 0.167 0.542 -1.354 0.542 c -1.5 0 -1.542 -0.021 -1.542 -0.625"/><path d="m 125.5 988.03 v -0.771 l 1.438 0.083 c 1.417 0.083 1.438 0.083 1.438 0.771 c 0 0.688 0 0.708 -1.438 0.708 h -1.438"/></g><g transform="scale(0.1875)"><path d="m 67.71 187.88 c -1.875 -1.104 -2.02 -4.938 -2.02 -54.54 c 0 -50.21 0.125 -53.46 2.104 -55.25 c 1.813 -1.625 5.229 -1.917 23.625 -1.917 h 21.521 v 112.94 l -21.604 -0.021 c -12.521 -0.021 -22.458 -0.542 -23.625 -1.208"/><path d="m 139.15 132.48 v -56.854 l 21.646 0.063 l 21.667 0.083 l 1.396 0.771 c 1.542 0.854 2.833 2.521 3.292 4.208 c 0.188 0.646 0.25 19.1 0.208 53.19 l -0.083 52.21 l -1.083 1.021 c -0.604 0.542 -1.771 1.271 -2.625 1.583 c -1.521 0.563 -1.708 0.563 -22.979 0.563 h -21.438 m 39.563 -3.104 c 0.583 -0.271 1.104 -0.833 1.458 -1.563 c 0.521 -1.104 0.542 -1.563 0.542 -18.354 c 0 -19.229 0.063 -18.479 -1.833 -19.667 l -0.979 -0.604 h -17.708 c -16.688 0 -17.729 0.021 -18.5 0.479 c -0.438 0.271 -1.042 0.813 -1.333 1.208 c -0.521 0.708 -0.542 1.188 -0.604 18.292 c -0.083 19.604 -0.167 18.729 1.792 20.04 l 0.896 0.604 h 17.688 c 15.625 0 17.792 -0.063 18.583 -0.438"/><path d="m 144.85 181.85 c -0.271 -0.167 -0.333 -3.479 -0.271 -15.625 l 0.063 -15.396 h 31.1 l 0.063 15.396 c 0.063 12.146 0 15.458 -0.25 15.625 c -0.188 0.104 -7.104 0.208 -15.354 0.208 c -8.271 0 -15.167 -0.104 -15.354 -0.208 m 18.417 -1.604 c 0.354 -0.271 0.646 -0.896 0.729 -1.563 c 0.125 -0.854 0.313 -1.188 0.813 -1.417 c 0.563 -0.25 0.771 -0.208 1.458 0.375 c 1.354 1.125 2.167 0.917 4.208 -1.042 c 1.521 -1.479 1.75 -1.854 1.75 -2.667 c 0 -0.646 -0.208 -1.188 -0.604 -1.625 c -0.521 -0.542 -0.583 -0.792 -0.375 -1.417 c 0.208 -0.646 0.417 -0.771 1.333 -0.833 c 1.625 -0.125 2.063 -0.771 2.188 -3.146 c 0.167 -3.229 -0.583 -4.417 -2.75 -4.417 c -0.396 0 -0.667 -0.25 -0.875 -0.813 c -0.271 -0.667 -0.229 -0.854 0.167 -1.125 c 0.563 -0.417 1.083 -1.354 1.083 -1.958 c 0 -0.25 -0.792 -1.271 -1.792 -2.292 c -1.563 -1.625 -1.896 -1.854 -2.75 -1.854 c -0.708 0 -1.167 0.188 -1.604 0.646 c -0.521 0.542 -0.708 0.604 -1.354 0.396 c -0.604 -0.229 -0.771 -0.479 -0.896 -1.354 c -0.229 -1.854 -0.688 -2.104 -3.646 -2.104 c -3.125 0 -3.667 0.271 -3.917 2 c -0.146 0.979 -0.313 1.229 -0.938 1.458 c -0.625 0.208 -0.833 0.146 -1.354 -0.396 c -0.417 -0.438 -0.896 -0.646 -1.521 -0.646 c -0.771 0 -1.208 0.271 -2.625 1.667 c -2.104 2.083 -2.333 2.771 -1.25 3.979 c 0.667 0.771 0.75 0.979 0.5 1.604 c -0.208 0.583 -0.479 0.771 -1.333 0.875 c -1.833 0.25 -2.188 0.875 -2.188 3.792 c 0 3 0.354 3.625 2.042 3.625 c 0.917 0 1.083 0.104 1.396 0.875 c 0.313 0.771 0.313 0.917 -0.104 1.208 c -0.25 0.167 -0.604 0.667 -0.771 1.104 c -0.438 1.042 0 1.875 1.958 3.729 c 1.708 1.625 2.604 1.792 3.875 0.729 c 0.688 -0.583 0.896 -0.646 1.479 -0.375 c 0.5 0.229 0.708 0.583 0.833 1.479 c 0.25 1.688 0.813 1.979 3.792 1.979 c 1.958 0 2.583 -0.104 3.042 -0.479"/><path d="m 158.73 170.25 c -2.375 -0.979 -3.333 -3.688 -2.104 -5.875 c 1.125 -2 3.667 -2.688 5.688 -1.542 c 2.646 1.521 2.708 5.063 0.146 6.979 c -0.833 0.625 -2.771 0.854 -3.729 0.438"/></g></g><path d="m 29.531 33.48 c -0.129 -0.352 -0.285 -0.434 -0.633 -0.34 c -0.359 0.102 -0.621 0.004 -0.816 -0.297 c -0.105 -0.156 -0.117 -0.246 -0.047 -0.371 c 0.176 -0.332 0.109 -0.566 -0.203 -0.715 c -0.277 -0.133 -0.289 -0.156 -0.289 -0.582 c 0 -0.406 0.016 -0.449 0.211 -0.496 c 0.297 -0.078 0.422 -0.387 0.289 -0.715 c -0.098 -0.234 -0.09 -0.277 0.09 -0.469 c 0.297 -0.316 0.461 -0.387 0.664 -0.277 c 0.258 0.141 0.547 0.031 0.672 -0.254 c 0.105 -0.238 0.133 -0.25 0.637 -0.25 c 0.332 0 0.508 0.031 0.473 0.086 c -0.18 0.289 0.348 0.605 0.699 0.418 c 0.227 -0.121 0.523 0.023 0.711 0.34 c 0.125 0.215 0.129 0.27 0.027 0.43 c -0.168 0.266 -0.02 0.617 0.285 0.688 c 0.273 0.059 0.363 0.305 0.281 0.746 c -0.035 0.195 -0.102 0.289 -0.195 0.293 c -0.078 0 -0.215 0.055 -0.301 0.121 c -0.152 0.113 -0.152 0.207 -0.012 0.668 c 0.035 0.117 -0.035 0.254 -0.234 0.469 c -0.273 0.297 -0.289 0.305 -0.52 0.184 c -0.336 -0.172 -0.605 -0.078 -0.746 0.266 c -0.117 0.273 -0.141 0.289 -0.539 0.289 c -0.379 0 -0.426 -0.023 -0.504 -0.23 m 1.117 -1.676 c 0.625 -0.602 0.227 -1.508 -0.66 -1.508 c -0.242 0 -0.363 0.063 -0.594 0.309 c -0.262 0.273 -0.285 0.34 -0.25 0.668 c 0.094 0.82 0.91 1.109 1.508 0.535" fill="#9370db"/></g></svg>