<svg xmlns="http://www.w3.org/2000/svg" xmlns:xlink="http://www.w3.org/1999/xlink" viewBox="0 0 48 48"><defs><g id="4" clip-path="url(#3)"><path d="m 24.496 18.535 l 5.082 -5.277 l 4.852 0.566 l 2.02 4 v 6.664 l 2.332 2.672 l -3.711 2.668 v 3.344 l -1.371 0.41 h -1.371 l -8.723 -1.613 l -4.313 -2.516 l 2.656 -7.617"/><path d="m 10.188 42.31 c -0.223 -0.191 -0.383 -0.512 -0.434 -0.848 c -0.074 -0.453 -0.039 -0.594 0.25 -0.844 c 0.77 -0.707 1.742 -0.441 1.594 0.426 c -0.273 1.621 -0.629 1.934 -1.402 1.266 m 8.516 -4.77 c -0.375 -0.422 -0.781 -0.754 -0.934 -0.754 c -0.145 0 -0.457 -0.238 -0.707 -0.527 c -0.309 -0.375 -0.566 -0.551 -0.863 -0.578 c -0.418 -0.043 -0.512 -0.133 -0.801 -0.898 c -0.117 -0.324 -0.336 -0.531 -0.762 -0.719 c -0.371 -0.172 -0.645 -0.41 -0.734 -0.637 c -0.254 -0.641 -0.313 -1.48 -0.141 -1.863 c 0.156 -0.332 0.141 -0.391 -0.332 -0.809 c -0.652 -0.59 -0.746 -0.879 -0.391 -1.313 c 0.391 -0.484 0.363 -0.648 -0.281 -1.43 c -0.418 -0.52 -0.727 -0.738 -1.281 -0.93 c -0.488 -0.172 -0.793 -0.375 -0.941 -0.625 c -0.125 -0.211 -0.398 -0.43 -0.633 -0.48 c -0.41 -0.105 -0.422 -0.141 -0.379 -0.824 c 0.066 -1.203 0.625 -1.906 1.504 -1.906 c 1.023 0 1.574 0.438 2.234 1.77 c 0.277 0.555 0.422 0.66 1.254 1.01 c 0.926 0.375 0.941 0.383 1.395 0.145 c 0.25 -0.133 0.672 -0.289 0.926 -0.336 c 0.383 -0.074 0.473 -0.156 0.516 -0.492 c 0.082 -0.734 0.273 -0.793 0.879 -0.27 c 0.617 0.547 0.559 0.527 0.996 0.328 c 0.344 -0.152 0.797 -0.77 0.797 -1.094 c 0 -0.102 -0.219 -0.496 -0.484 -0.891 c -0.27 -0.383 -0.488 -0.813 -0.488 -0.949 c 0 -0.145 0.203 -0.434 0.441 -0.652 c 0.242 -0.215 0.563 -0.672 0.715 -1 c 0.148 -0.34 0.363 -0.707 0.469 -0.82 c 0.141 -0.156 0.148 -0.328 0.051 -0.66 c -0.137 -0.453 -0.066 -0.559 0.75 -1.195 c 0.145 -0.117 0.191 -0.301 0.141 -0.551 c -0.055 -0.254 -0.008 -0.434 0.141 -0.555 c 0.262 -0.211 0.289 -0.805 0.055 -1.301 c -0.148 -0.328 -0.125 -0.383 0.281 -0.688 c 0.52 -0.402 0.547 -0.566 0.152 -1.055 c -0.371 -0.449 -0.293 -0.547 0.234 -0.289 c 0.363 0.184 0.434 0.18 0.82 -0.059 c 0.23 -0.148 0.66 -0.391 0.953 -0.543 c 0.289 -0.156 0.586 -0.43 0.652 -0.605 c 0.074 -0.18 0.25 -0.359 0.402 -0.406 c 0.348 -0.105 0.477 -0.43 0.297 -0.758 c -0.074 -0.137 -0.137 -0.473 -0.137 -0.742 c 0 -0.402 0.047 -0.484 0.246 -0.449 c 0.191 0.043 0.238 0.164 0.203 0.563 l -0.043 0.508 l 0.672 -0.016 c 0.988 -0.023 1.566 0.133 1.805 0.496 c 0.25 0.371 0.426 0.406 0.738 0.129 c 0.25 -0.219 1.25 -0.297 1.895 -0.156 c 0.352 0.082 0.477 0.027 0.824 -0.32 c 0.23 -0.227 0.484 -0.418 0.57 -0.418 c 0.387 0 1.227 1.289 1.352 2.094 c 0.027 0.148 0.207 0.355 0.41 0.465 c 0.348 0.188 0.406 0.176 0.922 -0.168 c 0.301 -0.199 0.625 -0.523 0.707 -0.703 c 0.086 -0.188 0.254 -0.34 0.371 -0.34 c 0.34 0 0.422 0.414 0.164 0.848 c -0.355 0.598 -0.293 0.805 0.5 1.633 c 0.82 0.859 1.289 1 1.438 0.43 c 0.063 -0.246 0.188 -0.344 0.418 -0.344 c 0.43 0 0.512 0.152 0.563 1.102 c 0.035 0.672 0.113 0.883 0.527 1.375 c 0.652 0.781 1.211 1.844 1.211 2.313 c 0 0.211 0.129 0.539 0.281 0.734 c 0.27 0.328 0.281 0.465 0.195 2.66 c -0.047 1.27 -0.094 2.402 -0.094 2.512 c 0 0.113 -0.176 0.605 -0.391 1.086 c -0.242 0.563 -0.418 1.266 -0.48 1.949 c -0.094 0.957 -0.461 1.945 -0.754 2 c -0.055 0.02 -0.277 0.035 -0.504 0.074 c -0.227 0.02 -0.68 0.227 -1 0.449 c -0.324 0.211 -0.863 0.477 -1.188 0.551 c -0.332 0.09 -0.684 0.215 -0.777 0.301 c -0.285 0.227 -0.195 0.746 0.172 1.031 c 0.375 0.285 0.449 0.555 0.199 0.793 c -0.113 0.113 -0.293 0.066 -0.652 -0.172 c -0.613 -0.41 -0.652 -0.41 -1.469 0.016 c -0.586 0.305 -0.695 0.32 -0.949 0.152 c -0.242 -0.164 -0.523 -0.199 -0.324 -0.273 c 0.125 -0.051 0.648 -0.09 0.832 -0.09 c 0.207 0 0.426 -0.141 0.582 -0.371 c 0.207 -0.309 0.246 -0.613 0.203 -1.961 c -0.059 -1.984 0.086 -2.281 1.367 -2.875 c 1.082 -0.496 1.492 -1.211 1.168 -2.035 c -0.102 -0.258 -1.039 -0.754 -1.43 -0.754 c -0.148 0 -0.434 -0.184 -0.633 -0.418 c -0.293 -0.332 -0.363 -0.555 -0.363 -1.156 c 0 -0.41 0.066 -0.863 0.145 -1 c 0.246 -0.441 0.344 -2.801 0.137 -3.176 c -0.137 -0.25 -0.164 -0.719 -0.094 -1.809 c 0.082 -1.344 0.066 -1.508 -0.195 -1.789 c -0.148 -0.168 -0.27 -0.43 -0.27 -0.566 c 0 -0.141 -0.176 -0.426 -0.383 -0.633 c -0.344 -0.328 -0.551 -0.387 -2 -0.551 c -2.633 -0.293 -3.293 -0.082 -4.246 1.352 c -0.344 0.52 -0.617 0.996 -0.617 1.059 c 0 0.16 -1.551 2.043 -2.023 2.457 c -0.414 0.359 -1.328 2.063 -1.328 2.465 c 0 0.133 -0.301 0.535 -0.676 0.898 c -0.672 0.648 -0.953 1.215 -1.348 2.66 c -0.098 0.375 -0.281 0.91 -0.418 1.203 c -0.383 0.895 -0.301 1.355 0.32 1.836 c 0.418 0.32 0.762 0.453 1.5 0.547 c 0.523 0.07 1.363 0.191 1.859 0.27 c 0.5 0.086 1.621 0.207 2.492 0.266 c 1.961 0.148 2.191 0.301 2.297 1.477 c 0.031 0.422 0.156 1.094 0.262 1.512 c 0.191 0.703 0.227 0.746 0.75 0.859 c 0.301 0.063 0.879 0.141 1.277 0.18 c 0.402 0.043 0.926 0.109 0.926 0.156 c 0 0.047 -0.395 0.199 -0.633 0.328 c -0.324 0.18 -0.418 0.313 -0.359 0.508 c 0.086 0.355 -0.102 0.457 -0.469 0.238 c -0.254 -0.148 -0.32 -0.137 -0.496 0.098 c -0.102 0.137 -0.195 0.363 -0.195 0.512 c 0 0.137 -0.109 0.281 -0.25 0.32 c -0.137 0.027 -0.414 0.145 -0.617 0.258 c -0.746 0.395 -1.324 0.141 -2.246 -0.984 c -0.129 -0.164 -0.363 -0.313 -0.504 -0.313 c -0.145 0 -0.488 -0.086 -0.77 -0.195 c -0.324 -0.145 -0.793 -0.203 -1.305 -0.16 c -0.688 0.047 -0.867 0.004 -1.258 -0.281 c -0.816 -0.598 -1.313 -0.23 -1.348 0.98 c -0.012 0.387 -0.035 0.406 -0.641 0.406 c -0.801 0.008 -1.715 0.629 -1.629 1.117 c 0.047 0.254 0.008 0.285 -0.238 0.227 c -0.402 -0.094 -1.063 0.152 -1.063 0.402 c 0 0.258 0.453 0.398 1.395 0.41 c 0.629 0.008 0.777 0.055 0.816 0.262 c 0.074 0.375 -0.086 0.457 -1.164 0.555 l -0.984 0.09 m 12.371 -2.156 c 0 -0.09 0.055 -0.109 0.137 -0.059 c 0.074 0.035 0.141 0.109 0.141 0.137 c 0 0.031 -0.063 0.059 -0.141 0.059 c -0.078 0 -0.137 -0.063 -0.137 -0.137 m -3.766 -11.207 c -0.336 -0.109 -0.699 -0.469 -0.699 -0.664 c 0 -0.09 0.227 -0.648 0.512 -1.238 c 0.375 -0.773 0.648 -1.156 1.055 -1.441 c 0.535 -0.375 0.559 -0.379 0.797 -0.125 c 0.137 0.137 0.391 0.633 0.566 1.109 c 0.207 0.555 0.465 0.957 0.719 1.145 c 0.477 0.344 0.52 0.813 0.082 1.102 c -0.223 0.156 -0.637 0.207 -1.57 0.207 c -0.691 -0.004 -1.352 -0.047 -1.465 -0.09"/><path d="m 10.215 42.26 c -0.113 -0.129 -0.254 -0.414 -0.301 -0.641 c -0.074 -0.352 -0.02 -0.457 0.418 -0.801 c 0.645 -0.496 0.891 -0.508 1.156 -0.059 c 0.172 0.281 0.18 0.426 0.055 0.672 c -0.082 0.176 -0.191 0.484 -0.238 0.688 c -0.066 0.297 -0.16 0.375 -0.477 0.375 c -0.215 0 -0.488 -0.105 -0.609 -0.238 m 8.68 -4.648 c -0.332 -0.383 -0.816 -0.777 -1.07 -0.883 c -0.254 -0.109 -0.566 -0.355 -0.703 -0.563 c -0.129 -0.207 -0.258 -0.402 -0.273 -0.43 c -0.027 -0.031 -0.277 -0.086 -0.563 -0.141 c -0.449 -0.07 -0.547 -0.148 -0.668 -0.555 c -0.207 -0.676 -0.309 -0.793 -0.91 -1.031 c -0.602 -0.234 -0.695 -0.375 -0.84 -1.34 c -0.082 -0.512 -0.055 -0.734 0.102 -0.898 c 0.285 -0.313 0.125 -0.703 -0.445 -1.078 c -0.645 -0.43 -0.688 -0.613 -0.273 -1.098 c 0.422 -0.492 0.371 -0.734 -0.336 -1.582 c -0.332 -0.391 -0.793 -0.723 -1.363 -0.984 c -0.508 -0.223 -0.895 -0.492 -0.945 -0.648 c -0.047 -0.148 -0.309 -0.344 -0.586 -0.441 c -0.43 -0.156 -0.477 -0.215 -0.418 -0.543 c 0.16 -0.781 0.5 -1.324 1.043 -1.676 c 0.973 -0.625 1.703 -0.234 2.602 1.402 c 0.348 0.641 0.512 0.797 0.969 0.941 c 0.305 0.094 0.656 0.262 0.785 0.375 c 0.305 0.273 0.816 0.242 1.309 -0.074 c 0.234 -0.148 0.531 -0.27 0.652 -0.27 c 0.367 0 0.699 -0.414 0.633 -0.773 c -0.094 -0.492 0.141 -0.512 0.684 -0.055 c 0.629 0.539 0.91 0.527 1.43 -0.059 c 0.566 -0.617 0.547 -1.023 -0.059 -1.824 c -0.258 -0.355 -0.477 -0.715 -0.477 -0.805 c 0 -0.086 0.23 -0.348 0.508 -0.586 c 0.277 -0.238 0.598 -0.652 0.715 -0.91 c 0.113 -0.266 0.297 -0.582 0.414 -0.711 c 0.164 -0.168 0.191 -0.383 0.117 -0.84 c -0.055 -0.34 -0.043 -0.617 0.02 -0.617 c 0.063 0 0.293 -0.156 0.504 -0.352 c 0.281 -0.254 0.387 -0.453 0.352 -0.734 c -0.023 -0.223 0.063 -0.492 0.211 -0.648 c 0.23 -0.25 0.234 -0.328 0.055 -1.027 c -0.148 -0.551 -0.156 -0.758 -0.039 -0.758 c 0.09 0 0.305 -0.129 0.469 -0.285 c 0.344 -0.309 0.309 -0.668 -0.098 -1.121 c -0.219 -0.25 -0.211 -0.25 0.23 -0.031 c 0.488 0.246 0.676 0.199 1.469 -0.375 c 1.098 -0.797 1.77 -1.488 1.77 -1.832 c 0 -0.332 0.031 -0.355 0.734 -0.34 c 1.434 0.023 1.496 0.039 1.633 0.383 c 0.195 0.484 0.613 0.559 1.203 0.203 c 0.398 -0.238 0.605 -0.273 1.082 -0.199 c 1.168 0.195 1.258 0.164 1.715 -0.563 c 0.152 -0.238 0.16 -0.238 0.457 0.02 c 0.398 0.336 0.984 1.492 0.984 1.91 c 0 0.363 0.363 0.602 0.914 0.602 c 0.371 0 0.906 -0.43 1.348 -1.086 c 0.18 -0.266 0.273 -0.301 0.402 -0.176 c 0.129 0.125 0.105 0.262 -0.137 0.648 c -0.273 0.434 -0.301 0.539 -0.141 0.902 c 0.102 0.223 0.324 0.504 0.5 0.613 c 0.18 0.113 0.359 0.32 0.406 0.469 c 0.105 0.309 0.844 0.711 1.129 0.605 c 0.105 -0.035 0.254 -0.23 0.332 -0.418 c 0.074 -0.184 0.227 -0.336 0.328 -0.336 c 0.242 0 0.363 0.406 0.371 1.168 c 0 0.449 0.113 0.699 0.57 1.258 c 0.652 0.805 1.238 1.957 1.246 2.43 c 0 0.184 0.113 0.449 0.25 0.594 c 0.266 0.285 0.27 0.434 0.137 3.484 c -0.078 1.758 -0.129 2.047 -0.469 2.766 c -0.277 0.594 -0.395 1.07 -0.43 1.828 c -0.059 1.246 -0.492 2.043 -1.129 2.043 c -0.215 0 -0.703 0.211 -1.098 0.465 c -0.391 0.254 -0.945 0.508 -1.23 0.559 c -0.578 0.105 -1.051 0.477 -1.051 0.816 c 0 0.121 0.191 0.391 0.418 0.598 c 0.23 0.207 0.422 0.438 0.422 0.52 c 0 0.297 -0.32 0.313 -0.703 0.035 c -0.516 -0.367 -0.988 -0.363 -1.668 0.023 c -0.434 0.242 -0.578 0.262 -0.719 0.133 c -0.137 -0.133 -0.086 -0.172 0.254 -0.172 c 0.262 0 0.531 -0.121 0.75 -0.348 c 0.324 -0.332 0.332 -0.418 0.309 -1.996 c -0.047 -1.988 0.055 -2.227 1.293 -2.871 c 0.641 -0.328 0.934 -0.59 1.234 -1.09 c 0.363 -0.598 0.379 -0.695 0.207 -1 c -0.121 -0.207 -0.602 -0.535 -1.258 -0.848 l -1.07 -0.5 l -0.18 -0.758 c -0.129 -0.566 -0.141 -0.875 -0.027 -1.191 c 0.152 -0.418 0.234 -0.965 0.398 -2.566 c 0.055 -0.578 0.023 -0.793 -0.105 -0.848 c -0.141 -0.051 -0.184 -0.438 -0.145 -1.633 c 0.031 -1.398 0.012 -1.605 -0.246 -1.914 c -0.156 -0.191 -0.297 -0.445 -0.301 -0.566 c -0.008 -0.117 -0.145 -0.43 -0.328 -0.688 c -0.313 -0.473 -0.332 -0.48 -1.492 -0.531 c -0.637 -0.027 -1.742 -0.055 -2.449 -0.055 c -1.219 0 -1.305 0.023 -1.758 0.395 c -0.266 0.215 -0.625 0.641 -0.785 0.934 c -0.762 1.355 -0.941 1.605 -1.234 1.711 c -0.207 0.074 -0.305 0.227 -0.305 0.441 c 0 0.215 -0.234 0.551 -0.652 0.949 c -0.363 0.344 -0.695 0.625 -0.754 0.625 c -0.055 0 -0.18 0.215 -0.262 0.477 c -0.09 0.262 -0.32 0.645 -0.5 0.828 c -0.242 0.246 -0.344 0.508 -0.344 0.875 c 0 0.449 -0.09 0.613 -0.688 1.164 c -0.48 0.449 -0.82 0.941 -1.117 1.613 c -0.234 0.535 -0.434 1.047 -0.434 1.152 c 0 0.102 -0.125 0.496 -0.273 0.895 c -0.445 1.125 -0.383 1.543 0.289 2.109 c 0.465 0.383 0.738 0.492 1.363 0.559 c 0.438 0.039 1.039 0.137 1.348 0.199 c 0.742 0.164 1.75 0.281 2.859 0.348 c 2.352 0.141 2.633 0.305 2.676 1.59 c 0.035 1.324 0.051 1.504 0.145 1.723 c 0.047 0.109 0.117 0.293 0.145 0.406 c 0.063 0.203 0.219 0.238 1.781 0.328 c 1.148 0.07 1.117 0.055 0.66 0.293 c -0.262 0.137 -0.379 0.305 -0.379 0.539 c 0 0.305 -0.035 0.316 -0.293 0.191 c -0.426 -0.223 -0.656 -0.082 -0.82 0.539 c -0.109 0.391 -0.23 0.543 -0.418 0.543 c -0.145 0 -0.453 0.105 -0.691 0.234 c -0.395 0.223 -0.453 0.223 -0.813 0.016 c -0.207 -0.121 -0.535 -0.434 -0.715 -0.703 c -0.43 -0.617 -1.66 -1.039 -3.03 -1.039 c -0.781 0 -0.988 -0.055 -1.332 -0.344 c -0.516 -0.418 -0.602 -0.418 -1.047 0.012 c -0.305 0.301 -0.344 0.426 -0.27 0.875 l 0.094 0.535 h -0.695 c -0.574 0 -0.777 0.074 -1.188 0.426 c -0.27 0.227 -0.5 0.539 -0.5 0.676 c 0 0.199 -0.098 0.258 -0.426 0.258 c -0.52 0 -0.969 0.211 -0.969 0.461 c 0 0.344 0.418 0.516 1.348 0.531 c 1.246 0.031 1.438 0.48 0.25 0.57 c -0.254 0.027 -0.645 0.082 -0.855 0.129 c -0.355 0.078 -0.469 0.004 -1.01 -0.613 m 8.926 -13 c -0.289 -0.309 -0.379 -0.848 -0.156 -0.984 c 0.074 -0.043 0.234 -0.375 0.359 -0.746 c 0.227 -0.652 0.871 -1.355 1.25 -1.355 c 0.285 0 0.574 0.426 0.859 1.281 c 0.191 0.574 0.379 0.863 0.648 1.016 c 0.434 0.238 0.496 0.559 0.168 0.875 c -0.172 0.164 -0.527 0.215 -1.527 0.215 c -1.172 0 -1.348 -0.039 -1.598 -0.297 m -2.273 -13.719 c -0.047 -0.227 -0.027 -0.465 0.043 -0.535 c 0.219 -0.211 0.297 0.012 0.164 0.484 l -0.117 0.457" fill-opacity="0.502"/><path d="m 10.203 42.26 c -0.344 -0.367 -0.301 -0.492 0.406 -1.203 c 0.613 -0.617 0.645 -0.637 0.832 -0.387 c 0.234 0.309 0.25 0.531 0.07 0.859 c -0.074 0.125 -0.168 0.402 -0.215 0.605 c -0.066 0.305 -0.156 0.375 -0.477 0.375 c -0.215 0 -0.5 -0.109 -0.621 -0.254 m 8.703 -4.641 c -0.336 -0.379 -0.816 -0.781 -1.074 -0.887 c -0.254 -0.102 -0.566 -0.355 -0.699 -0.563 c -0.133 -0.203 -0.262 -0.395 -0.277 -0.422 c -0.027 -0.031 -0.281 -0.094 -0.566 -0.145 c -0.434 -0.063 -0.535 -0.141 -0.566 -0.418 c -0.074 -0.574 -0.336 -0.93 -0.824 -1.09 c -0.602 -0.191 -0.879 -0.465 -0.879 -0.875 c 0 -0.371 0.105 -0.402 0.621 -0.176 c 0.305 0.133 0.391 0.121 0.551 -0.094 c 0.16 -0.219 0.223 -0.23 0.41 -0.078 c 0.199 0.16 0.23 0.145 0.23 -0.105 c 0 -0.293 -0.215 -0.359 -1.01 -0.293 c -0.293 0.023 -0.387 -0.031 -0.387 -0.23 c 0 -0.137 0.066 -0.316 0.152 -0.395 c 0.086 -0.082 0.133 -0.285 0.102 -0.461 c -0.031 -0.234 -0.16 -0.34 -0.477 -0.402 c -0.516 -0.102 -1.16 -0.539 -1.164 -0.773 c -0.008 -0.203 0.66 -0.48 0.918 -0.379 c 0.125 0.047 0.188 -0.043 0.188 -0.258 c 0 -0.445 0.195 -0.527 0.488 -0.203 c 0.234 0.25 0.242 0.285 0.023 0.516 c -0.266 0.285 -0.305 0.645 -0.086 0.777 c 0.09 0.047 0.223 0.027 0.305 -0.059 c 0.109 -0.105 0.199 -0.105 0.336 0 c 0.137 0.109 0.242 0.105 0.387 -0.016 c 0.18 -0.145 0.176 -0.207 -0.012 -0.488 c -0.203 -0.297 -0.203 -0.332 0 -0.406 c 0.125 -0.047 0.191 -0.141 0.148 -0.203 c -0.105 -0.18 -1.324 -0.676 -1.461 -0.594 c -0.063 0.035 -0.156 0.004 -0.203 -0.07 c -0.047 -0.074 -0.207 -0.137 -0.348 -0.137 c -0.145 0 -0.5 -0.281 -0.789 -0.633 c -0.359 -0.422 -0.809 -0.746 -1.395 -1.01 c -0.512 -0.23 -0.895 -0.492 -0.949 -0.652 c -0.047 -0.152 -0.301 -0.348 -0.566 -0.438 c -0.266 -0.09 -0.484 -0.211 -0.484 -0.27 c 0 -0.055 0.191 -0.223 0.414 -0.383 c 0.227 -0.152 0.43 -0.418 0.453 -0.586 c 0.035 -0.234 0.148 -0.313 0.492 -0.344 c 0.328 -0.031 0.422 -0.094 0.371 -0.25 c -0.102 -0.25 0.352 -0.586 0.645 -0.492 c 0.43 0.148 0.875 0.66 1.344 1.551 c 0.477 0.91 0.457 1.16 -0.078 0.988 c -0.324 -0.094 -0.891 0.16 -0.77 0.344 c 0.047 0.078 0.234 0.133 0.414 0.133 c 0.195 0 0.375 0.059 0.422 0.133 c 0.137 0.219 0.531 0.164 0.441 -0.059 c -0.082 -0.219 0.277 -0.574 0.434 -0.422 c 0.055 0.051 0.098 0.234 0.098 0.398 c 0 0.316 0.258 0.379 1.434 0.363 c 0.609 -0.012 0.637 0.012 0.793 0.688 c 0.063 0.305 0.004 0.41 -0.406 0.641 c -0.582 0.336 -0.605 0.469 -0.137 0.672 c 0.297 0.133 0.371 0.121 0.441 -0.078 c 0.133 -0.344 1.031 -1.301 1.328 -1.418 c 0.273 -0.105 0.332 -0.313 0.117 -0.445 c -0.07 -0.043 -0.098 -0.273 -0.051 -0.512 c 0.047 -0.238 0.09 -0.684 0.098 -0.988 c 0.016 -0.559 0.023 -0.563 0.328 -0.344 c 0.203 0.141 0.305 0.344 0.281 0.555 c -0.02 0.289 0.031 0.348 0.41 0.379 c 0.242 0.027 0.473 0.129 0.516 0.227 c 0.059 0.141 -0.082 0.176 -0.582 0.164 c -0.578 -0.02 -0.66 0.012 -0.695 0.281 c -0.051 0.359 0.266 0.414 0.539 0.09 c 0.109 -0.121 0.305 -0.18 0.484 -0.137 c 0.168 0.035 0.441 -0.023 0.617 -0.145 c 0.266 -0.184 0.34 -0.191 0.449 -0.031 c 0.105 0.152 0.168 0.145 0.332 -0.074 c 0.188 -0.238 0.188 -0.281 -0.004 -0.379 c -0.117 -0.066 -0.281 -0.07 -0.363 -0.023 c -0.184 0.105 -0.402 -0.176 -0.402 -0.52 c -0.004 -0.27 0.418 -0.316 0.832 -0.098 c 0.406 0.211 0.469 -0.082 0.086 -0.375 c -0.324 -0.246 -0.336 -0.293 -0.168 -0.754 c 0.23 -0.656 0.313 -0.711 0.504 -0.363 c 0.121 0.215 0.121 0.336 0.012 0.449 c -0.25 0.238 -0.176 0.363 0.215 0.363 c 0.289 0 0.34 0.047 0.254 0.234 c -0.055 0.133 -0.137 0.406 -0.168 0.617 c -0.043 0.215 -0.156 0.422 -0.258 0.457 c -0.129 0.047 -0.195 0.289 -0.195 0.676 c 0 0.5 -0.051 0.621 -0.281 0.68 c -0.172 0.039 -0.273 0.184 -0.273 0.359 c 0 0.242 -0.086 0.289 -0.453 0.273 c -0.586 -0.02 -0.805 0.066 -0.805 0.305 c 0 0.105 -0.094 0.184 -0.211 0.184 c -0.109 0 -0.199 0.07 -0.199 0.152 c 0 0.094 0.152 0.117 0.449 0.059 c 0.258 -0.047 0.617 -0.086 0.816 -0.078 c 0.203 0.004 0.449 -0.086 0.547 -0.203 c 0.156 -0.184 0.195 -0.18 0.355 0.027 c 0.156 0.207 0.219 0.211 0.535 0.047 c 0.316 -0.156 0.391 -0.156 0.617 0.043 c 0.141 0.121 0.371 0.223 0.5 0.223 c 0.156 0 0.23 0.086 0.199 0.238 c -0.031 0.16 -0.152 0.219 -0.363 0.195 c -0.383 -0.051 -0.418 0.328 -0.09 0.941 c 0.16 0.305 0.301 0.391 0.488 0.344 c 0.363 -0.082 0.363 0.324 0.012 0.637 c -0.238 0.211 -0.262 0.211 -0.473 -0.027 c -0.141 -0.137 -0.234 -0.375 -0.234 -0.531 c 0 -0.156 -0.074 -0.324 -0.141 -0.367 c -0.078 -0.047 -0.105 -0.148 -0.063 -0.211 c 0.086 -0.141 -0.316 -0.344 -0.438 -0.223 c -0.078 0.09 0.227 0.656 0.422 0.809 c 0.191 0.141 -0.031 0.523 -0.254 0.43 c -0.113 -0.031 -0.293 -0.293 -0.402 -0.555 c -0.145 -0.355 -0.328 -0.527 -0.707 -0.648 c -0.555 -0.184 -0.652 -0.148 -0.652 0.246 c 0 0.211 0.07 0.246 0.336 0.184 c 0.266 -0.07 0.355 -0.02 0.418 0.211 c 0.039 0.164 0.02 0.367 -0.043 0.441 c -0.066 0.074 -0.137 0.199 -0.145 0.273 c -0.016 0.133 -0.27 0.129 -0.676 -0.012 c -0.129 -0.043 -0.172 -0.227 -0.141 -0.602 c 0.047 -0.48 0.023 -0.535 -0.254 -0.535 c -0.207 0 -0.316 0.09 -0.355 0.301 c -0.023 0.199 -0.152 0.316 -0.359 0.352 c -0.285 0.035 -0.32 0.09 -0.301 0.395 c 0 0.059 0.156 0.086 0.348 0.059 c 0.188 -0.02 0.344 0.027 0.344 0.102 c 0 0.086 -0.086 0.137 -0.191 0.137 c -0.121 0 -0.219 0.195 -0.254 0.48 c -0.039 0.297 0 0.477 0.102 0.477 c 0.09 0 0.27 0.125 0.414 0.27 c 0.133 0.148 0.352 0.27 0.477 0.27 c 0.547 0 0.746 0.613 0.313 0.984 c -0.375 0.328 -0.48 0.281 -0.375 -0.18 c 0.074 -0.309 0.043 -0.406 -0.125 -0.406 c -0.125 0 -0.223 0.09 -0.223 0.184 c 0 0.105 -0.094 0.23 -0.211 0.27 c -0.129 0.051 -0.207 0 -0.207 -0.133 c 0 -0.121 -0.086 -0.195 -0.242 -0.156 c -0.148 0.027 -0.32 -0.09 -0.422 -0.285 c -0.145 -0.281 -0.137 -0.371 0.059 -0.578 c 0.195 -0.199 0.195 -0.258 0.035 -0.266 c -0.105 -0.004 -0.316 -0.02 -0.469 -0.031 c -0.418 -0.027 -0.426 -0.465 -0.023 -0.77 c 0.281 -0.211 0.336 -0.332 0.242 -0.574 c -0.137 -0.367 -0.055 -0.648 0.25 -0.875 c 0.188 -0.145 0.195 -0.191 0.031 -0.293 c -0.117 -0.066 -0.164 -0.238 -0.121 -0.402 c 0.039 -0.156 0.016 -0.285 -0.063 -0.285 c -0.086 0 -0.047 -0.148 0.082 -0.332 c 0.277 -0.418 0.289 -0.703 0.023 -0.801 c -0.223 -0.086 -0.418 0.129 -0.418 0.457 c 0 0.121 -0.16 0.223 -0.398 0.242 c -0.586 0.07 -1.465 0.98 -0.934 0.98 c 0.074 0 0.137 -0.063 0.137 -0.137 c 0 -0.34 0.258 -0.09 0.34 0.344 c 0.051 0.258 0.148 0.469 0.211 0.469 c 0.07 0 0.199 0.223 0.293 0.488 c 0.207 0.625 0.004 0.895 -0.453 0.605 c -0.219 -0.133 -0.324 -0.141 -0.359 -0.031 c -0.031 0.09 -0.254 0.156 -0.504 0.156 c -0.254 0 -0.5 0.031 -0.547 0.082 c -0.086 0.09 0.531 0.727 0.703 0.727 c 0.043 0 0.16 0.105 0.258 0.238 c 0.172 0.223 0.191 0.215 0.387 -0.027 c 0.195 -0.258 0.199 -0.258 0.359 0.027 c 0.207 0.371 0.195 0.438 -0.055 0.438 c -0.297 0 -0.258 0.223 0.074 0.547 c 0.16 0.152 0.359 0.238 0.453 0.18 c 0.098 -0.059 0.086 0.016 -0.035 0.164 c -0.117 0.137 -0.207 0.273 -0.227 0.297 c -0.004 0.027 -0.242 -0.059 -0.52 -0.172 c -0.66 -0.27 -0.656 -0.27 -0.656 0.211 c 0 0.395 0.031 0.414 0.406 0.336 c 0.23 -0.047 0.445 -0.031 0.496 0.051 c 0.109 0.164 0.883 0.031 1.258 -0.211 c 0.656 -0.438 0.656 -0.086 0.004 0.594 c -0.406 0.418 -0.453 0.523 -0.273 0.613 c 0.359 0.199 1.121 0.07 1.059 -0.168 c -0.148 -0.574 -0.129 -1.063 0.059 -1.133 c 0.113 -0.039 0.203 -0.016 0.203 0.059 c 0 0.074 0.223 0.133 0.488 0.133 c 0.27 0 0.484 -0.055 0.484 -0.117 c 0 -0.059 0.176 -0.117 0.383 -0.129 c 0.215 -0.004 0.574 -0.039 0.805 -0.09 c 0.387 -0.086 0.422 -0.137 0.371 -0.555 c -0.031 -0.258 -0.113 -0.461 -0.188 -0.461 c -0.07 0 -0.121 -0.211 -0.121 -0.48 c 0 -0.543 -0.305 -0.645 -0.57 -0.172 c -0.141 0.254 -0.121 0.324 0.133 0.535 c 0.34 0.258 0.387 0.465 0.109 0.57 c -0.285 0.102 -0.637 -0.402 -0.637 -0.918 c 0 -0.258 -0.09 -0.48 -0.18 -0.523 c -0.32 -0.105 -0.66 0.066 -0.66 0.324 c 0 0.141 -0.066 0.258 -0.137 0.258 c -0.082 0 -0.141 -0.109 -0.141 -0.25 c 0 -0.137 -0.074 -0.305 -0.156 -0.395 c -0.27 -0.258 0.012 -0.473 0.5 -0.387 c 0.332 0.07 0.539 0.016 0.805 -0.191 c 0.344 -0.266 0.375 -0.266 0.82 -0.043 c 0.582 0.309 0.805 0.566 0.813 0.953 c 0.004 0.168 0.066 0.301 0.141 0.301 c 0.188 0 0.18 -0.492 0 -0.602 c -0.09 -0.059 -0.086 -0.176 0.004 -0.344 c 0.191 -0.344 0.422 -0.34 0.422 0.004 c 0 0.352 0.281 0.363 0.371 0.012 c 0.086 -0.316 0.75 -0.484 1.141 -0.285 c 0.363 0.184 0.336 0.191 0.719 -0.137 c 0.258 -0.207 0.285 -0.309 0.148 -0.434 c -0.141 -0.141 -0.23 -0.098 -0.441 0.172 l -0.266 0.34 l -0.004 -0.375 c 0 -0.227 0.066 -0.375 0.195 -0.375 c 0.195 0 0.422 -0.387 0.305 -0.504 c -0.027 -0.031 -0.211 -0.008 -0.387 0.043 c -0.184 0.059 -0.418 0.109 -0.531 0.117 c -0.129 0.004 -0.234 0.164 -0.254 0.379 c -0.051 0.441 -0.254 0.488 -0.379 0.09 c -0.051 -0.176 -0.004 -0.367 0.137 -0.52 c 0.293 -0.309 0.281 -0.555 -0.027 -0.555 c -0.195 -0.004 -0.176 -0.051 0.105 -0.27 c 0.441 -0.332 1.691 -0.375 1.953 -0.066 c 0.195 0.227 0.906 0.289 0.77 0.066 c -0.047 -0.074 0.008 -0.133 0.133 -0.133 c 0.121 0 0.289 0.117 0.383 0.254 c 0.125 0.203 0.227 0.23 0.422 0.129 c 0.137 -0.07 0.219 -0.191 0.176 -0.254 c -0.098 -0.152 0.215 -0.168 0.461 -0.016 c 0.227 0.137 -0.125 0.629 -0.652 0.887 c -0.328 0.168 -0.438 0.168 -0.758 0.016 c -0.203 -0.098 -0.367 -0.137 -0.367 -0.059 c 0 0.074 0.063 0.133 0.137 0.133 c 0.074 0 0.141 0.117 0.141 0.266 c 0 0.316 -0.176 0.355 -0.422 0.07 c -0.148 -0.18 -0.195 -0.176 -0.359 0.027 c -0.25 0.309 -0.242 0.441 0.012 0.441 c 0.113 0 0.207 0.066 0.207 0.141 c 0 0.078 0.133 0.137 0.281 0.137 c 0.156 0 0.277 0.09 0.277 0.199 c 0 0.113 0.063 0.199 0.141 0.199 c 0.078 0 0.137 -0.059 0.137 -0.133 c 0 -0.074 -0.063 -0.16 -0.137 -0.211 c -0.328 -0.203 -0.117 -0.371 0.359 -0.297 c 0.68 0.105 0.898 -0.008 0.898 -0.461 c 0 -0.258 0.063 -0.371 0.172 -0.324 c 0.191 0.074 0.527 0.688 0.527 0.965 c 0 0.332 0.32 0.355 0.57 0.027 c 0.242 -0.305 0.266 -0.309 0.484 -0.09 c 0.219 0.199 0.215 0.238 -0.063 0.469 c -0.156 0.133 -0.297 0.297 -0.297 0.363 c 0 0.063 0.223 0.391 0.488 0.734 c 0.594 0.75 0.637 1.121 0.129 1.121 c -0.285 0 -1.113 0.512 -0.887 0.551 c 0.934 0.176 1.145 0.09 1.52 -0.629 c 0.297 -0.578 0.348 -0.617 0.754 -0.547 c 0.238 0.043 0.68 0.023 0.98 -0.047 c 0.688 -0.152 0.941 -0.027 0.453 0.223 c -0.25 0.121 -0.367 0.297 -0.367 0.527 c 0 0.305 -0.031 0.32 -0.289 0.188 c -0.43 -0.223 -0.66 -0.074 -0.824 0.539 c -0.109 0.398 -0.23 0.551 -0.418 0.551 c -0.145 0 -0.453 0.105 -0.688 0.23 c -0.402 0.223 -0.457 0.223 -0.813 0.02 c -0.211 -0.125 -0.539 -0.441 -0.723 -0.707 c -0.426 -0.613 -1.656 -1.035 -3.02 -1.035 c -0.781 0 -0.988 -0.055 -1.332 -0.344 c -0.516 -0.43 -0.605 -0.43 -1.047 0.008 c -0.305 0.297 -0.344 0.43 -0.266 0.879 l 0.09 0.535 h -0.695 c -0.574 0 -0.777 0.07 -1.188 0.422 c -0.27 0.23 -0.496 0.535 -0.496 0.68 c 0 0.195 -0.098 0.258 -0.43 0.258 c -0.875 0 -1.211 0.418 -0.691 0.875 c 0.207 0.184 0.457 0.223 1.133 0.191 c 1.195 -0.066 1.367 0.41 0.184 0.5 c -0.254 0.023 -0.641 0.074 -0.859 0.121 c -0.348 0.074 -0.473 0.008 -1 -0.613 m 1.07 -2.539 c 0 -0.078 -0.09 -0.137 -0.207 -0.137 c -0.109 0 -0.203 0.063 -0.203 0.137 c 0 0.074 0.094 0.133 0.203 0.133 c 0.117 0 0.207 -0.059 0.207 -0.133 m 8.73 -1.344 c -0.105 -0.168 -0.496 -0.199 -0.496 -0.035 c 0 0.059 0.078 0.18 0.168 0.266 c 0.191 0.188 0.473 0 0.328 -0.23 m -12.91 -0.285 c 0 -0.074 -0.066 -0.133 -0.145 -0.133 c -0.086 0 -0.109 0.066 -0.063 0.133 c 0.047 0.082 0.113 0.141 0.145 0.141 c 0.031 0 0.063 -0.066 0.063 -0.141 m 11.73 -0.051 c -0.199 -0.234 -0.805 -0.395 -1.016 -0.266 c -0.238 0.141 0.293 0.457 0.77 0.457 c 0.332 0 0.375 -0.039 0.246 -0.191 m 1.801 0.098 c 0 -0.328 -0.375 -1 -0.594 -1.074 c -0.324 -0.098 -0.324 -0.098 -0.422 0.508 c -0.066 0.434 -0.039 0.48 0.199 0.422 c 0.137 -0.039 0.262 0 0.262 0.082 c 0 0.082 0.133 0.156 0.281 0.156 c 0.156 0 0.277 -0.043 0.277 -0.09 m -10.602 -0.547 c 0 -0.27 -0.332 -0.145 -0.391 0.141 c -0.035 0.156 0.023 0.199 0.172 0.145 c 0.125 -0.047 0.219 -0.172 0.219 -0.285 m 6.773 0.223 c 0.051 -0.086 0.063 -0.176 0.027 -0.207 c -0.098 -0.094 -0.523 0.09 -0.523 0.23 c 0 0.168 0.383 0.152 0.496 -0.023 m -0.691 -0.465 c 0.039 -0.113 0.164 -0.199 0.27 -0.199 c 0.102 0 0.254 -0.125 0.336 -0.27 c 0.195 -0.34 -0.066 -0.371 -0.512 -0.07 c -0.262 0.18 -0.324 0.18 -0.508 0.004 c -0.223 -0.223 -0.371 -0.141 -0.371 0.191 c 0 0.465 0.621 0.746 0.785 0.344 m -1.137 -0.066 c 0.047 -0.078 -0.008 -0.133 -0.125 -0.133 c -0.113 0 -0.25 0.055 -0.297 0.133 c -0.047 0.078 0.012 0.133 0.121 0.133 c 0.113 0 0.254 -0.059 0.301 -0.133 m 2.414 -0.102 c -0.055 -0.281 -0.301 -0.266 -0.363 0.031 c -0.031 0.125 0.055 0.207 0.188 0.207 c 0.141 0 0.215 -0.086 0.184 -0.234 m 1.816 -0.199 c 0.051 -0.441 -0.141 -0.48 -0.609 -0.129 c -0.254 0.199 -0.293 0.297 -0.16 0.418 c 0.285 0.285 0.715 0.121 0.762 -0.285 m -7.641 -1.328 c 0 -0.078 -0.063 -0.137 -0.133 -0.137 c -0.09 0 -0.148 0.063 -0.148 0.137 c 0 0.086 0.063 0.145 0.148 0.145 c 0.07 0 0.133 -0.066 0.133 -0.145 m -3.691 -0.414 c 0.043 -0.074 -0.047 -0.129 -0.207 -0.129 c -0.16 0 -0.254 0.063 -0.207 0.129 c 0.047 0.082 0.141 0.145 0.207 0.145 c 0.066 0 0.16 -0.07 0.207 -0.145 m 2.039 -0.871 c 0 -0.074 -0.066 -0.145 -0.152 -0.18 c -0.082 -0.027 -0.148 0.051 -0.148 0.18 c 0 0.133 0.066 0.195 0.148 0.184 c 0.086 -0.031 0.152 -0.105 0.152 -0.184 m -3.793 -1.664 c 0.105 -0.121 0.105 -0.254 0.008 -0.43 c -0.133 -0.242 -0.184 -0.25 -0.594 -0.086 c -0.582 0.238 -0.637 0.422 -0.234 0.836 c 0.305 0.316 0.34 0.32 0.5 0.094 c 0.098 -0.141 0.25 -0.324 0.32 -0.414 m 0.949 -0.063 c 0.227 -0.223 0.211 -0.652 -0.016 -0.652 c -0.266 0 -0.699 0.5 -0.59 0.668 c 0.125 0.195 0.402 0.184 0.605 -0.016 m 4.07 -0.09 c 0 -0.164 -0.285 -0.371 -0.652 -0.488 c -0.355 -0.105 -0.438 0.16 -0.148 0.441 c 0.195 0.191 0.805 0.223 0.805 0.047 m -8.164 -1.914 c -0.039 -0.082 -0.176 -0.141 -0.285 -0.141 c -0.109 0 -0.195 0.066 -0.195 0.141 c 0 0.074 0.125 0.133 0.285 0.133 c 0.156 0 0.25 -0.066 0.195 -0.133 m 1.047 0 c 0 -0.082 -0.063 -0.141 -0.141 -0.141 c -0.082 0 -0.109 0.066 -0.066 0.141 c 0.051 0.074 0.121 0.133 0.148 0.133 c 0.031 0 0.059 -0.066 0.059 -0.133 m -1.598 -0.555 c 0.055 -0.082 0.188 -0.113 0.297 -0.07 c 0.25 0.094 0.418 -0.297 0.215 -0.496 c -0.121 -0.113 -0.254 -0.055 -0.512 0.219 c -0.191 0.203 -0.352 0.398 -0.352 0.434 c 0 0.117 0.266 0.055 0.352 -0.082 m 22.281 8.164 c -0.051 -0.074 0.254 -0.035 0.496 -0.035 c 0.305 0 0.539 -0.145 0.906 -0.551 c 0.418 -0.461 0.48 -0.617 0.418 -0.992 c -0.047 -0.277 -0.008 -0.492 0.09 -0.551 c 0.117 -0.07 0.098 -0.145 -0.07 -0.266 c -0.191 -0.137 -0.207 -0.215 -0.078 -0.461 c 0.203 -0.367 0.578 -0.375 0.672 -0.008 c 0.047 0.168 0.152 0.246 0.281 0.199 c 0.109 -0.043 0.223 -0.082 0.258 -0.082 c 0.18 0 0.02 -0.426 -0.191 -0.496 c -0.129 -0.047 -0.348 -0.168 -0.469 -0.273 c -0.156 -0.129 -0.258 -0.145 -0.32 -0.047 c -0.293 0.461 -0.496 -0.176 -0.215 -0.68 c 0.168 -0.297 0.418 -0.348 0.418 -0.086 c 0 0.223 0.695 0.73 1.176 0.848 c 0.195 0.047 0.398 0.152 0.445 0.223 c 0.105 0.16 0.75 -0.406 0.75 -0.656 c 0 -0.098 0.094 -0.18 0.215 -0.18 c 0.301 0 0.414 -0.363 0.195 -0.617 c -0.109 -0.125 -0.125 -0.258 -0.047 -0.328 c 0.078 -0.082 0.234 0.027 0.406 0.273 c 0.313 0.457 0.48 0.457 0.645 0.016 c 0.098 -0.258 0.078 -0.289 -0.141 -0.227 c -0.297 0.094 -0.68 -0.254 -0.441 -0.398 c 0.086 -0.047 0.27 -0.047 0.422 -0.004 c 0.359 0.113 0.508 -0.238 0.301 -0.688 c -0.129 -0.27 -0.117 -0.355 0.055 -0.414 c 0.301 -0.109 0.254 -0.273 -0.086 -0.363 c -0.16 -0.051 -0.27 -0.148 -0.234 -0.25 c 0.063 -0.191 -0.363 -0.66 -0.586 -0.66 c -0.074 0 -0.145 -0.051 -0.156 -0.102 c -0.141 -0.914 -0.133 -0.938 0.301 -0.875 c 0.293 0.031 0.414 0.133 0.414 0.309 c 0 0.141 0.09 0.293 0.195 0.332 c 0.598 0.223 1.117 -0.777 0.707 -1.344 l -0.215 -0.297 l -0.086 0.324 c -0.078 0.297 -0.129 0.313 -0.797 0.234 c -0.391 -0.055 -0.773 -0.156 -0.863 -0.219 c -0.223 -0.184 -1.055 0.152 -1 0.41 c 0.063 0.316 0.484 0.32 0.566 0.02 c 0.094 -0.371 0.383 -0.371 0.383 -0.016 c 0 0.148 -0.063 0.27 -0.148 0.27 c -0.078 0 -0.129 0.102 -0.105 0.234 c 0.023 0.137 -0.008 0.309 -0.07 0.418 c -0.176 0.262 -0.488 0.195 -0.539 -0.145 c -0.023 -0.172 -0.16 -0.328 -0.316 -0.355 c -0.25 -0.051 -0.254 -0.031 -0.074 0.191 c 0.188 0.223 0.184 0.234 -0.074 0.145 c -0.156 -0.059 -0.453 -0.172 -0.66 -0.238 c -0.348 -0.129 -0.898 -0.879 -0.75 -1.035 c 0.105 -0.094 0.371 0.113 0.293 0.234 c -0.035 0.07 0.039 0.25 0.176 0.406 c 0.266 0.313 0.734 0.262 0.734 -0.078 c 0 -0.105 0.059 -0.191 0.141 -0.191 c 0.07 0 0.141 -0.09 0.141 -0.207 c 0 -0.164 -0.059 -0.172 -0.281 -0.051 c -0.242 0.121 -0.336 0.094 -0.559 -0.164 c -0.344 -0.402 -0.344 -0.543 0 -0.758 c 0.156 -0.09 0.281 -0.313 0.281 -0.48 c 0 -0.199 0.125 -0.367 0.355 -0.473 c 0.367 -0.164 0.688 -0.762 0.566 -1.063 c -0.113 -0.285 -0.391 -0.203 -0.293 0.09 c 0.086 0.254 -0.176 0.816 -0.375 0.816 c -0.18 0 -0.41 -0.555 -0.473 -1.176 c -0.055 -0.543 -0.035 -0.594 0.211 -0.52 c 0.176 0.055 0.316 0.008 0.398 -0.137 c 0.184 -0.313 0.703 -0.137 0.754 0.254 c 0.031 0.199 0.145 0.305 0.324 0.305 c 0.156 0 0.281 0.086 0.281 0.199 c 0 0.109 -0.086 0.184 -0.18 0.164 c -0.234 -0.047 -0.223 0.262 0.027 0.586 c 0.203 0.258 0.207 0.258 0.207 -0.039 c 0.008 -0.32 0.203 -0.41 0.359 -0.164 c 0.055 0.078 0.199 0.133 0.324 0.121 c 0.438 -0.043 0.582 0.012 0.582 0.211 c 0 0.109 0.094 0.199 0.207 0.199 c 0.109 0 0.203 -0.059 0.203 -0.137 c 0 -0.07 0.156 -0.168 0.355 -0.211 c 0.258 -0.063 0.348 -0.176 0.348 -0.457 c 0 -0.379 -0.223 -0.688 -0.504 -0.688 c -0.098 0 -0.141 0.113 -0.098 0.254 c 0.035 0.141 0 0.297 -0.086 0.344 c -0.086 0.055 -0.219 -0.145 -0.32 -0.527 c -0.117 -0.418 -0.246 -0.613 -0.402 -0.613 c -0.254 0 -0.629 -0.367 -0.508 -0.488 c 0.043 -0.039 0.336 -0.109 0.648 -0.145 c 0.313 -0.051 0.566 -0.156 0.566 -0.246 c 0 -0.184 -1.363 -0.492 -1.473 -0.328 c -0.09 0.148 -0.859 0.297 -1.027 0.203 c -0.246 -0.148 0.012 -0.484 0.367 -0.484 c 0.34 0 0.355 -0.023 0.262 -0.555 c -0.078 -0.477 -0.059 -0.547 0.137 -0.477 c 0.117 0.047 0.25 0.082 0.281 0.082 c 0.145 0 0.035 0.797 -0.121 0.863 c -0.105 0.039 -0.086 0.074 0.063 0.078 c 0.129 0.004 0.273 -0.047 0.32 -0.121 c 0.047 -0.086 0.242 -0.145 0.426 -0.145 c 0.461 0 0.426 -0.113 -0.199 -0.781 c -0.465 -0.477 -0.574 -0.535 -0.715 -0.359 c -0.207 0.242 -0.555 0.258 -0.555 0.027 c 0 -0.285 -0.781 -0.539 -1.113 -0.371 c -0.156 0.086 -0.285 0.227 -0.285 0.313 c 0 0.09 -0.129 0.391 -0.277 0.672 c -0.156 0.281 -0.281 0.539 -0.281 0.574 c 0 0.039 0.129 0.078 0.281 0.078 c 0.148 0 0.277 0.082 0.277 0.195 c 0 0.27 -0.191 0.258 -0.469 -0.043 c -0.277 -0.301 -0.34 -1.723 -0.063 -1.559 c 0.105 0.066 0.129 0.016 0.051 -0.164 c -0.25 -0.59 -0.23 -0.742 0.137 -1.207 c 0.309 -0.398 0.348 -0.52 0.207 -0.684 c -0.27 -0.313 -0.5 -0.242 -0.496 0.164 c 0.008 0.531 -0.379 0.555 -0.578 0.047 c -0.176 -0.445 -0.125 -0.551 0.254 -0.551 c 0.313 0 0.324 -0.109 0.043 -0.41 c -0.191 -0.211 -0.168 -0.309 0.363 -1.074 c 0.395 -0.578 0.625 -0.805 0.723 -0.711 c 0.094 0.102 0.035 0.309 -0.184 0.648 c -0.301 0.477 -0.301 0.512 -0.082 0.961 c 0.125 0.254 0.32 0.5 0.426 0.535 c 0.25 0.094 0.801 0.984 0.691 1.148 c -0.047 0.07 0.105 0.309 0.324 0.535 c 0.43 0.434 0.617 0.52 0.504 0.227 c -0.031 -0.098 0.031 -0.258 0.141 -0.352 c 0.117 -0.098 0.281 -0.41 0.359 -0.699 c 0.254 -0.895 0.551 -0.539 0.555 0.645 c 0 0.438 0.105 0.695 0.488 1.152 c 0.609 0.73 1.328 2.102 1.328 2.543 c 0 0.18 0.109 0.441 0.246 0.586 c 0.27 0.293 0.273 0.434 0.137 3.484 c -0.07 1.758 -0.125 2.051 -0.469 2.77 c -0.281 0.598 -0.395 1.066 -0.426 1.824 c -0.063 1.254 -0.492 2.043 -1.133 2.043 c -0.215 0 -0.703 0.211 -1.094 0.465 c -0.395 0.258 -0.949 0.508 -1.238 0.563 c -0.578 0.105 -1.043 0.48 -1.043 0.82 c 0 0.113 0.188 0.383 0.418 0.59 c 0.234 0.207 0.418 0.441 0.418 0.527 c 0 0.293 -0.32 0.305 -0.699 0.031 c -0.5 -0.363 -1.059 -0.367 -1.598 -0.012 c -0.465 0.297 -0.875 0.238 -1.01 0.035 m 6.723 -7.574 c 0.102 -0.266 -0.324 -0.434 -0.477 -0.191 c -0.066 0.098 -0.086 0.23 -0.047 0.289 c 0.117 0.188 0.434 0.121 0.523 -0.098 m -3.047 -2.383 c 0.129 -0.375 -0.113 -0.602 -0.348 -0.328 c -0.188 0.219 -0.109 0.621 0.113 0.621 c 0.078 0 0.176 -0.133 0.23 -0.285 m 2.109 -0.09 c 0.188 -0.223 0.203 -0.223 0.34 0 c 0.25 0.391 0.516 0.273 0.598 -0.262 c 0.098 -0.59 0.016 -0.762 -0.328 -0.648 c -0.176 0.047 -0.281 -0.012 -0.344 -0.199 c -0.051 -0.16 -0.211 -0.281 -0.367 -0.281 c -0.418 0 -0.289 0.578 0.156 0.676 c 0.223 0.047 0.289 0.117 0.191 0.18 c -0.09 0.055 -0.367 -0.027 -0.637 -0.172 c -0.539 -0.324 -0.688 -0.344 -0.582 -0.086 c 0.047 0.133 -0.027 0.164 -0.266 0.121 c -0.227 -0.043 -0.367 0.012 -0.426 0.16 c -0.102 0.262 0.5 0.535 0.91 0.406 c 0.156 -0.055 0.293 -0.004 0.344 0.133 c 0.109 0.27 0.188 0.266 0.418 -0.027 m -2.023 -0.887 c -0.176 -0.172 -0.363 -0.039 -0.223 0.168 c 0.051 0.09 0.152 0.109 0.234 0.063 c 0.09 -0.059 0.09 -0.137 -0.012 -0.23 m -0.293 -6.523 c 0 -0.195 -0.082 -0.344 -0.188 -0.344 c -0.293 0 -0.375 0.148 -0.223 0.426 c 0.195 0.363 0.418 0.309 0.418 -0.09 m -7.477 14.832 c -0.129 -0.207 0.047 -0.348 0.23 -0.172 c 0.098 0.094 0.105 0.176 0.012 0.227 c -0.086 0.055 -0.188 0.027 -0.242 -0.055 m -0.16 -0.617 c -0.121 -0.305 0.152 -0.516 0.363 -0.27 c 0.184 0.215 0.094 0.484 -0.141 0.484 c -0.078 0 -0.176 -0.098 -0.223 -0.215 m -0.918 -0.004 c -0.055 -0.051 -0.102 -0.242 -0.102 -0.422 c 0 -0.262 0.059 -0.32 0.313 -0.289 c 0.234 0.039 0.316 0.141 0.316 0.383 c 0 0.328 -0.32 0.523 -0.527 0.32 m 7.566 -1.266 c 0 -0.074 0.063 -0.129 0.145 -0.129 c 0.074 0 0.141 0.063 0.141 0.129 c 0 0.082 -0.063 0.141 -0.141 0.141 c -0.078 0 -0.145 -0.063 -0.145 -0.141 m 0.805 -0.094 c -0.551 -0.078 -0.5 -0.48 0.117 -0.797 c 0.277 -0.145 0.555 -0.398 0.629 -0.566 c 0.102 -0.258 0.16 -0.281 0.391 -0.145 c 0.219 0.133 0.344 0.117 0.645 -0.074 c 0.207 -0.133 0.461 -0.199 0.578 -0.156 c 0.176 0.063 0.148 0.141 -0.117 0.477 c -0.363 0.441 -0.609 0.512 -0.723 0.211 c -0.141 -0.352 -0.395 -0.227 -0.355 0.164 c 0.02 0.203 -0.051 0.508 -0.16 0.676 c -0.195 0.301 -0.266 0.316 -1 0.207 m -20.305 -2.223 c 0.074 -0.211 0.387 -0.25 0.402 -0.047 c 0.004 0.078 -0.102 0.156 -0.23 0.184 c -0.145 0.027 -0.207 -0.02 -0.172 -0.137 m 11.766 -2.133 c -0.098 -0.156 0.422 -0.332 0.617 -0.215 c 0.074 0.047 0.141 0.141 0.141 0.211 c 0 0.156 -0.652 0.164 -0.758 0 m 1.289 -0.039 c 0.305 -0.285 0.203 -0.547 -0.16 -0.457 c -0.203 0.047 -0.402 0.008 -0.5 -0.105 c -0.125 -0.156 -0.066 -0.23 0.297 -0.41 l 0.453 -0.223 l 0.594 0.582 c 0.328 0.32 0.59 0.625 0.598 0.684 c 0.004 0.059 -0.316 0.102 -0.723 0.102 c -0.563 0 -0.688 -0.039 -0.559 -0.164 m -7.988 -0.641 c 0.047 -0.148 0.016 -0.301 -0.063 -0.352 c -0.207 -0.121 -0.176 -0.336 0.047 -0.336 c 0.359 0 0.539 0.355 0.34 0.664 c -0.227 0.355 -0.438 0.371 -0.324 0.027 m 6.352 0.117 c 0 -0.074 0.063 -0.133 0.141 -0.133 c 0.078 0 0.141 0.063 0.141 0.133 c 0 0.078 -0.063 0.137 -0.141 0.137 c -0.078 0 -0.141 -0.063 -0.141 -0.137 m -8.08 -0.613 c -0.234 -0.266 -0.434 -0.566 -0.434 -0.672 c 0 -0.273 0.551 -0.535 0.73 -0.359 c 0.078 0.078 0.336 0.105 0.551 0.063 c 0.391 -0.078 0.406 -0.063 0.355 0.371 c -0.051 0.449 -0.383 0.746 -0.383 0.344 c 0 -0.121 -0.055 -0.219 -0.117 -0.219 c -0.063 0 -0.086 0.18 -0.055 0.395 c 0.086 0.582 -0.168 0.613 -0.652 0.074 m 8.371 -0.41 c 0.004 -0.156 0.035 -0.191 0.086 -0.078 c 0.047 0.094 0.031 0.211 -0.004 0.258 c -0.047 0.043 -0.09 -0.035 -0.086 -0.18 m 1.254 -0.043 c 0 -0.141 0.516 -0.414 0.613 -0.32 c 0.168 0.164 0.078 0.277 -0.266 0.344 c -0.195 0.031 -0.348 0.027 -0.348 -0.023 m -7.957 -0.348 c 0 -0.152 0.098 -0.207 0.316 -0.18 c 0.172 0.027 0.316 0.098 0.316 0.18 c 0 0.074 -0.145 0.145 -0.316 0.172 c -0.219 0.027 -0.316 -0.027 -0.316 -0.172 m 14.297 -0.07 c 0.047 -0.086 0.109 -0.137 0.145 -0.137 c 0.027 0 0.063 0.059 0.063 0.137 c 0 0.078 -0.066 0.133 -0.152 0.133 c -0.078 0 -0.102 -0.059 -0.055 -0.133 m -6.793 -0.406 c -0.152 -0.164 -0.195 -0.297 -0.098 -0.352 c 0.238 -0.141 0.551 0.055 0.551 0.34 c 0 0.344 -0.152 0.348 -0.453 0.012 m -5.855 -0.086 c -0.027 -0.121 -0.266 -0.293 -0.535 -0.375 c -0.609 -0.191 -0.762 -0.785 -0.266 -1.039 c 0.156 -0.09 0.301 -0.141 0.32 -0.109 c 0.027 0.027 0.141 0.215 0.277 0.422 c 0.137 0.207 0.398 0.434 0.586 0.504 c 0.395 0.141 0.434 0.301 0.125 0.598 c -0.281 0.27 -0.445 0.258 -0.504 -0.008 m 12.445 -0.484 c 0.008 -0.508 0.027 -0.543 0.188 -0.34 c 0.195 0.25 0.141 0.91 -0.07 0.91 c -0.063 0 -0.121 -0.258 -0.117 -0.574 m 4.109 0.035 c 0.047 -0.082 0.109 -0.137 0.145 -0.137 c 0.031 0 0.063 0.063 0.063 0.137 c 0 0.078 -0.066 0.137 -0.148 0.137 c -0.078 0 -0.105 -0.063 -0.059 -0.137 m -18.668 -0.09 c -0.051 -0.047 -0.09 -0.227 -0.09 -0.406 c 0 -0.316 0.191 -0.395 0.613 -0.234 c 0.191 0.07 0.191 0.109 -0.008 0.406 c -0.223 0.336 -0.352 0.395 -0.516 0.234 m 2.563 -0.379 c 0 -0.113 0.063 -0.203 0.137 -0.203 c 0.078 0 0.137 0.09 0.137 0.203 c 0 0.105 -0.059 0.199 -0.137 0.199 c -0.082 0 -0.137 -0.094 -0.137 -0.199 m 15.16 -0.023 c -0.184 -0.18 -0.094 -0.316 0.195 -0.316 c 0.156 0 0.262 0.074 0.234 0.164 c -0.066 0.195 -0.301 0.281 -0.43 0.156 m -15.441 -0.66 c 0.098 -0.109 0.227 -0.199 0.301 -0.199 c 0.063 0 0.121 0.09 0.121 0.199 c 0 0.113 -0.125 0.203 -0.297 0.203 c -0.246 0 -0.273 -0.039 -0.125 -0.203 m -1.566 -0.098 c -0.438 -0.328 -0.352 -0.832 0.297 -1.641 c 0.629 -0.789 1.148 -1 1.332 -0.539 c 0.191 0.477 -0.324 1.09 -0.777 0.93 c -0.102 -0.035 -0.301 0.016 -0.441 0.121 c -0.246 0.188 -0.246 0.203 0.043 0.473 c 0.242 0.246 0.258 0.324 0.113 0.555 c -0.203 0.313 -0.258 0.324 -0.555 0.102 m 0.996 -1.863 c 0 -0.078 -0.059 -0.137 -0.141 -0.137 c -0.07 0 -0.137 0.063 -0.137 0.137 c 0 0.074 0.063 0.133 0.137 0.133 c 0.078 0 0.141 -0.063 0.141 -0.133 m 15.301 1.805 c -0.051 -0.047 -0.094 -0.18 -0.094 -0.293 c 0 -0.156 0.039 -0.156 0.211 -0.023 c 0.113 0.086 0.207 0.219 0.207 0.285 c 0 0.141 -0.199 0.156 -0.328 0.031 m -13.844 -0.336 c -0.102 -0.164 0.207 -0.41 0.379 -0.309 c 0.141 0.078 -0.012 0.461 -0.168 0.461 c -0.066 0 -0.16 -0.066 -0.211 -0.148 m 11.945 -0.047 c 0 -0.23 0.414 -0.473 0.637 -0.383 c 0.086 0.027 0.125 0.172 0.086 0.316 c -0.082 0.316 -0.734 0.375 -0.734 0.07 m -12.977 -0.074 c 0 -0.082 0.063 -0.137 0.141 -0.137 c 0.078 0 0.145 0.063 0.145 0.137 c 0 0.074 -0.063 0.133 -0.145 0.133 c -0.07 0 -0.141 -0.063 -0.141 -0.133 m 1.016 -0.707 l -0.305 -0.32 l 0.422 -0.172 c 0.227 -0.09 0.418 -0.281 0.418 -0.402 c 0 -0.152 0.121 -0.227 0.352 -0.227 c 0.242 0 0.348 0.074 0.348 0.242 c 0 0.332 -0.254 0.766 -0.441 0.766 c -0.086 0 -0.23 0.094 -0.313 0.211 c -0.141 0.191 -0.195 0.176 -0.465 -0.105 m -0.879 -0.098 c 0 -0.078 0.102 -0.133 0.219 -0.133 c 0.121 0 0.184 0.063 0.137 0.133 c -0.051 0.078 -0.152 0.141 -0.219 0.141 c -0.074 0 -0.137 -0.07 -0.137 -0.141 m 13.355 -0.086 c -0.113 -0.113 0.012 -0.324 0.188 -0.324 c 0.074 0 0.137 0.09 0.137 0.203 c 0 0.211 -0.168 0.27 -0.316 0.113 m 0.535 -0.766 c -0.16 -0.117 -0.203 -0.215 -0.109 -0.273 c 0.211 -0.129 0.582 0.039 0.582 0.262 c 0 0.238 -0.145 0.238 -0.473 0.008 m -11.316 -0.277 c -0.137 -0.32 0.16 -0.598 0.391 -0.375 c 0.137 0.133 0.117 0.207 -0.07 0.387 c -0.211 0.211 -0.242 0.211 -0.32 -0.012 m -2.984 -0.453 c 0 -0.145 0.566 -0.715 1.09 -1.105 c 0.242 -0.176 0.441 -0.426 0.441 -0.555 c 0 -0.254 0.418 -0.68 0.684 -0.68 c 0.094 0 0.328 -0.094 0.516 -0.211 c 0.426 -0.273 0.523 -0.199 0.348 0.262 c -0.078 0.211 -0.246 0.359 -0.398 0.359 c -0.289 0 -0.699 0.617 -0.527 0.77 c 0.063 0.059 0.195 -0.027 0.32 -0.195 c 0.25 -0.371 0.461 -0.391 0.461 -0.063 c 0 0.34 -0.531 0.629 -0.77 0.426 c -0.141 -0.109 -0.266 -0.109 -0.48 -0.004 c -0.305 0.164 -0.363 0.348 -0.145 0.48 c 0.344 0.199 0.113 0.371 -0.41 0.301 c -0.391 -0.051 -0.566 -0.016 -0.621 0.125 c -0.078 0.199 -0.504 0.27 -0.504 0.086 m 13.824 -0.02 c 0.063 -0.176 0.25 -0.199 0.27 -0.043 c 0.008 0.055 -0.066 0.129 -0.152 0.148 c -0.094 0.031 -0.141 -0.016 -0.117 -0.105 m -11.141 -0.234 c -0.395 -0.145 -0.164 -0.41 0.352 -0.379 c 0.695 0.035 0.699 0.043 0.387 0.27 c -0.273 0.207 -0.434 0.227 -0.738 0.109 m -2.77 -0.641 c -0.043 -0.109 -0.039 -0.27 0.016 -0.355 c 0.051 -0.082 0.02 -0.227 -0.07 -0.332 c -0.125 -0.148 -0.082 -0.238 0.199 -0.422 c 0.195 -0.129 0.457 -0.191 0.578 -0.141 c 0.32 0.117 0.176 0.551 -0.199 0.594 c -0.266 0.039 -0.313 0.105 -0.238 0.371 c 0.094 0.355 -0.156 0.602 -0.281 0.281 m -0.621 -0.68 c 0 -0.117 0.063 -0.211 0.148 -0.211 c 0.07 0 0.137 0.059 0.137 0.129 c 0 0.078 -0.066 0.164 -0.137 0.211 c -0.082 0.047 -0.148 -0.012 -0.148 -0.129 m 4.07 0.066 c 0.035 -0.09 0.098 -0.16 0.156 -0.156 c 0.164 0.023 0.133 0.203 -0.047 0.262 c -0.094 0.023 -0.141 -0.02 -0.117 -0.113 m 0.547 -0.133 c 0 -0.074 0.188 -0.156 0.418 -0.207 c 0.473 -0.098 0.566 -0.457 0.148 -0.563 c -0.145 -0.039 -0.344 -0.262 -0.441 -0.484 c -0.145 -0.344 -0.141 -0.426 0.035 -0.559 c 0.121 -0.082 0.293 -0.285 0.383 -0.457 c 0.223 -0.418 0.363 -0.379 0.715 0.172 c 0.168 0.258 0.371 0.434 0.441 0.387 c 0.086 -0.051 0.121 0.031 0.09 0.168 c -0.031 0.141 -0.199 0.313 -0.363 0.387 c -0.238 0.105 -0.301 0.215 -0.246 0.48 c 0.035 0.191 -0.004 0.422 -0.098 0.535 c -0.184 0.215 -1.078 0.332 -1.078 0.141 m -3.406 -1.047 c -0.156 -0.152 -0.105 -0.309 0.121 -0.309 c 0.113 0 0.207 0.086 0.207 0.199 c 0 0.211 -0.168 0.27 -0.328 0.117 m 0.883 -0.59 c 0 -0.406 0.332 -0.578 0.461 -0.238 c 0.051 0.137 0.098 0.137 0.254 0 c 0.207 -0.191 0.824 -0.234 0.824 -0.063 c 0 0.066 0.109 0.105 0.246 0.098 c 0.129 -0.004 0.246 0.051 0.246 0.133 c 0 0.074 -0.141 0.125 -0.316 0.09 c -0.172 -0.02 -0.352 0.043 -0.387 0.145 c -0.039 0.105 -0.328 0.195 -0.691 0.199 c -0.605 0.031 -0.625 0.023 -0.625 -0.371 m 7.949 -0.137 c 0 -0.168 0.277 -0.168 0.555 0 c 0.16 0.102 0.121 0.137 -0.176 0.141 c -0.215 0 -0.379 -0.059 -0.379 -0.141 m -3.559 -0.133 c -0.051 -0.078 -0.047 -0.27 0.004 -0.43 c 0.078 -0.227 0.047 -0.273 -0.129 -0.199 c -0.156 0.059 -0.23 0.012 -0.23 -0.156 c 0 -0.336 -0.148 -0.453 -0.359 -0.277 c -0.195 0.152 -0.473 0.059 -0.473 -0.156 c 0 -0.074 0.09 -0.133 0.195 -0.133 c 0.129 0 0.188 -0.145 0.176 -0.43 c -0.035 -0.637 0.27 -0.613 0.582 0.047 c 0.465 0.965 0.535 1.031 0.777 0.719 c 0.16 -0.211 0.238 -0.238 0.371 -0.105 c 0.141 0.129 0.125 0.18 -0.055 0.25 c -0.297 0.109 -0.313 0.734 -0.027 0.734 c 0.113 0 0.207 -0.09 0.207 -0.199 c 0 -0.141 0.129 -0.195 0.449 -0.164 c 0.332 0.023 0.461 -0.031 0.496 -0.199 c 0.043 -0.18 -0.035 -0.238 -0.297 -0.238 c -0.336 0 -0.344 -0.012 -0.137 -0.41 c 0.254 -0.496 0.605 -0.539 0.605 -0.066 c 0 0.402 0.109 0.422 0.363 0.094 c 0.168 -0.199 0.184 -0.191 0.188 0.211 c 0.008 0.355 0.059 0.445 0.254 0.406 c 0.164 -0.031 0.242 -0.18 0.254 -0.465 c 0.004 -0.227 0.145 -0.594 0.316 -0.82 c 0.172 -0.238 0.305 -0.484 0.305 -0.57 c 0 -0.207 0.113 -0.184 0.402 0.09 c 0.652 0.625 1.207 2.398 0.789 2.551 c -0.109 0.047 -0.391 -0.055 -0.613 -0.207 c -0.23 -0.152 -0.508 -0.281 -0.637 -0.281 c -0.129 0 -0.227 -0.094 -0.227 -0.211 c 0 -0.289 -0.262 -0.098 -0.422 0.305 c -0.125 0.316 -0.191 0.336 -0.957 0.289 c -0.457 -0.02 -0.875 0 -0.93 0.059 c -0.156 0.148 -1.141 0.129 -1.25 -0.031 m -2.352 -0.699 c -0.098 -0.363 -0.102 -0.363 0.359 -0.281 c 0.422 0.074 0.527 0.371 0.16 0.5 c -0.359 0.137 -0.434 0.098 -0.52 -0.219 m -0.648 -2.508 c 0 -0.238 0.051 -0.438 0.141 -0.438 c 0.164 0 0.164 0.23 0 0.605 c -0.102 0.223 -0.137 0.203 -0.141 -0.168" fill-opacity="0.502"/></g><clipPath id="5"><path d="m 17 11 h 21 v 22 h -21"/></clipPath><clipPath id="6"><path d="m 8 8 h 33 v 34 h -33"/></clipPath><clipPath id="3"><path d="M 0,0 H48 V48 H0 z"/></clipPath><clipPath id="0"><path d="m 54.777 25.04 c 0 17.211 -13.719 31.15 -30.625 31.15 c -16.902 0 -30.621 -13.938 -30.621 -31.15 c 0 -17.211 13.719 -31.15 30.621 -31.15 c 16.906 0 30.625 13.938 30.625 31.15"/></clipPath><filter id="1" filterUnits="objectBoundingBox" x="0" y="0" width="48" height="48"><feColorMatrix type="matrix" in="SourceGraphic" values="0 0 0 0 1 0 0 0 0 1 0 0 0 0 1 0 0 0 1 0"/></filter><mask id="2"><g filter="url(#1)"><path fill-opacity="0.102" d="M 0,0 H48 V48 H0 z"/></g></mask></defs><path d="m 42.28 10.641 c -1.59 -2.309 -3.723 -4.637 -5.672 -6.172 c -6.789 -5.375 -14.59 -5.598 -21.504 -0.621 c -3.715 2.676 -7.273 6.855 -10.469 12.293 c -3.809 6.492 -5.098 14.262 -3.316 20 c 0.379 1.211 1.453 3.32 2.219 4.352 c 2.563 3.449 6.414 5.48 12 6.332 c 5.344 0.816 10.363 0.902 14.625 0.246 c 8.766 -1.344 14.637 -6.02 16.703 -13.297 c 1.453 -5.113 0.996 -10.848 -1.359 -17 c -0.352 -0.922 -2.652 -5.285 -3.234 -6.129" fill="#2f4e4e"/><g clip-path="url(#0)"><use xlink:href="#4" mask="url(#2)"/></g><g clip-path="url(#5)"><g clip-path="url(#0)"><path d="m 23.16 17.18 l 5.082 -5.277 l 4.855 0.566 l 2.02 4 v 6.668 l 2.332 2.672 l -3.707 2.664 v 3.344 l -1.375 0.41 h -1.371 l -8.723 -1.613 l -4.313 -2.512 l 2.656 -7.617" fill="#f9f9f9"/></g></g><g clip-path="url(#6)"><g clip-path="url(#0)"><path d="m 8.859 40.953 c -0.227 -0.191 -0.387 -0.512 -0.438 -0.844 c -0.074 -0.457 -0.035 -0.594 0.25 -0.848 c 0.77 -0.703 1.742 -0.438 1.598 0.43 c -0.277 1.617 -0.633 1.93 -1.406 1.262 m 8.516 -4.77 c -0.375 -0.418 -0.781 -0.754 -0.934 -0.754 c -0.145 0 -0.457 -0.238 -0.707 -0.527 c -0.309 -0.375 -0.566 -0.551 -0.859 -0.578 c -0.422 -0.043 -0.516 -0.133 -0.805 -0.898 c -0.117 -0.324 -0.336 -0.531 -0.762 -0.719 c -0.371 -0.168 -0.645 -0.406 -0.734 -0.637 c -0.254 -0.641 -0.313 -1.48 -0.141 -1.859 c 0.156 -0.336 0.141 -0.395 -0.332 -0.813 c -0.648 -0.586 -0.746 -0.875 -0.391 -1.313 c 0.391 -0.484 0.363 -0.648 -0.281 -1.43 c -0.418 -0.516 -0.727 -0.738 -1.277 -0.93 c -0.492 -0.168 -0.797 -0.375 -0.941 -0.625 c -0.125 -0.211 -0.402 -0.426 -0.637 -0.48 c -0.41 -0.105 -0.422 -0.137 -0.379 -0.824 c 0.066 -1.203 0.625 -1.906 1.504 -1.906 c 1.023 0 1.574 0.441 2.234 1.77 c 0.277 0.555 0.422 0.66 1.254 1.012 c 0.926 0.375 0.941 0.379 1.395 0.141 c 0.25 -0.133 0.672 -0.285 0.926 -0.332 c 0.383 -0.074 0.473 -0.16 0.516 -0.492 c 0.082 -0.734 0.273 -0.793 0.879 -0.27 c 0.617 0.543 0.563 0.523 0.996 0.328 c 0.344 -0.152 0.797 -0.773 0.797 -1.098 c 0 -0.098 -0.219 -0.496 -0.484 -0.887 c -0.27 -0.387 -0.488 -0.816 -0.488 -0.953 c 0 -0.141 0.203 -0.434 0.445 -0.648 c 0.238 -0.219 0.559 -0.672 0.711 -1.01 c 0.148 -0.336 0.363 -0.707 0.469 -0.816 c 0.141 -0.16 0.148 -0.328 0.051 -0.664 c -0.137 -0.453 -0.066 -0.559 0.75 -1.195 c 0.145 -0.117 0.191 -0.301 0.141 -0.551 c -0.051 -0.254 -0.008 -0.43 0.141 -0.555 c 0.262 -0.211 0.289 -0.805 0.055 -1.301 c -0.148 -0.328 -0.125 -0.379 0.281 -0.688 c 0.523 -0.402 0.547 -0.566 0.152 -1.051 c -0.371 -0.449 -0.293 -0.551 0.234 -0.293 c 0.363 0.188 0.438 0.18 0.82 -0.059 c 0.23 -0.148 0.66 -0.391 0.953 -0.543 c 0.289 -0.152 0.586 -0.43 0.652 -0.602 c 0.074 -0.184 0.254 -0.363 0.402 -0.41 c 0.348 -0.105 0.477 -0.426 0.297 -0.758 c -0.074 -0.137 -0.137 -0.469 -0.137 -0.738 c 0 -0.402 0.047 -0.488 0.246 -0.449 c 0.191 0.039 0.238 0.164 0.203 0.559 l -0.043 0.508 l 0.672 -0.016 c 0.988 -0.023 1.566 0.133 1.805 0.496 c 0.25 0.371 0.426 0.41 0.738 0.129 c 0.25 -0.219 1.25 -0.297 1.895 -0.152 c 0.352 0.078 0.477 0.027 0.824 -0.324 c 0.23 -0.227 0.484 -0.418 0.57 -0.418 c 0.391 0 1.227 1.289 1.352 2.094 c 0.027 0.148 0.207 0.355 0.41 0.469 c 0.352 0.184 0.406 0.172 0.922 -0.172 c 0.301 -0.199 0.625 -0.523 0.707 -0.703 c 0.086 -0.184 0.254 -0.34 0.375 -0.34 c 0.336 0 0.418 0.414 0.16 0.848 c -0.355 0.598 -0.293 0.805 0.5 1.633 c 0.82 0.859 1.289 1 1.441 0.43 c 0.063 -0.242 0.188 -0.344 0.414 -0.344 c 0.434 0 0.512 0.152 0.563 1.102 c 0.035 0.672 0.113 0.883 0.527 1.375 c 0.652 0.785 1.211 1.848 1.211 2.313 c 0 0.211 0.129 0.539 0.281 0.734 c 0.27 0.328 0.281 0.465 0.195 2.66 c -0.047 1.273 -0.094 2.402 -0.094 2.516 c 0 0.109 -0.176 0.602 -0.391 1.082 c -0.242 0.563 -0.418 1.266 -0.48 1.949 c -0.094 0.957 -0.457 1.945 -0.754 2 c -0.051 0.023 -0.277 0.035 -0.504 0.074 c -0.227 0.023 -0.68 0.227 -1 0.449 c -0.324 0.211 -0.863 0.477 -1.188 0.551 c -0.332 0.09 -0.684 0.215 -0.773 0.301 c -0.289 0.227 -0.199 0.746 0.172 1.031 c 0.371 0.289 0.445 0.559 0.195 0.797 c -0.113 0.109 -0.293 0.063 -0.648 -0.176 c -0.613 -0.406 -0.656 -0.406 -1.473 0.016 c -0.586 0.309 -0.695 0.324 -0.945 0.152 c -0.246 -0.164 -0.527 -0.199 -0.328 -0.273 c 0.125 -0.047 0.648 -0.09 0.832 -0.09 c 0.207 0 0.426 -0.137 0.582 -0.371 c 0.207 -0.305 0.246 -0.613 0.203 -1.961 c -0.059 -1.984 0.086 -2.281 1.367 -2.871 c 1.082 -0.5 1.492 -1.215 1.172 -2.039 c -0.105 -0.258 -1.043 -0.75 -1.43 -0.75 c -0.152 0 -0.438 -0.188 -0.637 -0.418 c -0.293 -0.336 -0.363 -0.559 -0.363 -1.16 c 0 -0.406 0.066 -0.863 0.145 -1 c 0.246 -0.438 0.344 -2.797 0.137 -3.176 c -0.137 -0.25 -0.16 -0.719 -0.094 -1.809 c 0.082 -1.344 0.066 -1.508 -0.191 -1.789 c -0.152 -0.168 -0.273 -0.426 -0.273 -0.566 c 0 -0.141 -0.176 -0.426 -0.383 -0.633 c -0.344 -0.328 -0.551 -0.387 -2 -0.551 c -2.633 -0.293 -3.293 -0.078 -4.242 1.355 c -0.344 0.52 -0.621 0.992 -0.621 1.059 c 0 0.156 -1.551 2.039 -2.023 2.453 c -0.41 0.359 -1.328 2.063 -1.328 2.465 c 0 0.133 -0.301 0.535 -0.676 0.898 c -0.672 0.652 -0.949 1.219 -1.348 2.664 c -0.098 0.375 -0.281 0.91 -0.414 1.199 c -0.387 0.895 -0.305 1.355 0.316 1.836 c 0.418 0.32 0.762 0.453 1.504 0.551 c 0.52 0.066 1.359 0.191 1.855 0.27 c 0.5 0.086 1.625 0.203 2.492 0.262 c 1.961 0.148 2.195 0.305 2.297 1.477 c 0.031 0.426 0.156 1.098 0.262 1.512 c 0.191 0.707 0.23 0.75 0.75 0.859 c 0.301 0.063 0.879 0.141 1.277 0.18 c 0.402 0.043 0.926 0.109 0.926 0.16 c 0 0.047 -0.395 0.195 -0.633 0.328 c -0.324 0.18 -0.418 0.309 -0.359 0.508 c 0.086 0.352 -0.102 0.453 -0.469 0.238 c -0.25 -0.148 -0.316 -0.141 -0.496 0.094 c -0.102 0.137 -0.195 0.363 -0.195 0.512 c 0 0.141 -0.109 0.281 -0.25 0.324 c -0.137 0.027 -0.414 0.141 -0.613 0.254 c -0.75 0.398 -1.328 0.141 -2.25 -0.984 c -0.129 -0.164 -0.363 -0.313 -0.504 -0.313 c -0.145 0 -0.488 -0.086 -0.77 -0.195 c -0.32 -0.145 -0.789 -0.199 -1.305 -0.16 c -0.688 0.047 -0.867 0.008 -1.258 -0.277 c -0.816 -0.598 -1.313 -0.234 -1.348 0.977 c -0.012 0.387 -0.035 0.41 -0.641 0.41 c -0.801 0.004 -1.715 0.629 -1.629 1.113 c 0.047 0.254 0.008 0.285 -0.238 0.227 c -0.402 -0.094 -1.063 0.156 -1.063 0.402 c 0 0.262 0.453 0.398 1.395 0.41 c 0.633 0.012 0.777 0.059 0.816 0.262 c 0.074 0.375 -0.086 0.457 -1.164 0.559 l -0.984 0.086 m 12.371 -2.156 c 0 -0.09 0.055 -0.105 0.137 -0.059 c 0.074 0.035 0.141 0.109 0.141 0.137 c 0 0.031 -0.063 0.059 -0.141 0.059 c -0.078 0 -0.137 -0.063 -0.137 -0.137 m -3.766 -11.207 c -0.336 -0.109 -0.699 -0.469 -0.699 -0.664 c 0 -0.09 0.227 -0.645 0.512 -1.238 c 0.375 -0.773 0.648 -1.152 1.055 -1.441 c 0.535 -0.375 0.559 -0.379 0.797 -0.125 c 0.137 0.137 0.391 0.633 0.566 1.109 c 0.211 0.555 0.465 0.957 0.719 1.145 c 0.477 0.344 0.52 0.816 0.086 1.105 c -0.227 0.152 -0.641 0.203 -1.574 0.203 c -0.691 -0.004 -1.352 -0.047 -1.465 -0.086" fill="#cc2d2d"/><g fill-opacity="0.502"><path d="m 8.883 40.902 c -0.113 -0.129 -0.254 -0.414 -0.301 -0.641 c -0.074 -0.352 -0.016 -0.457 0.418 -0.801 c 0.645 -0.496 0.891 -0.508 1.156 -0.059 c 0.172 0.281 0.184 0.426 0.059 0.672 c -0.086 0.176 -0.195 0.488 -0.242 0.688 c -0.066 0.297 -0.16 0.375 -0.477 0.375 c -0.215 0 -0.488 -0.105 -0.609 -0.238 m 8.68 -4.648 c -0.332 -0.383 -0.813 -0.777 -1.07 -0.883 c -0.254 -0.105 -0.566 -0.355 -0.703 -0.563 c -0.129 -0.203 -0.258 -0.402 -0.273 -0.426 c -0.027 -0.031 -0.277 -0.09 -0.563 -0.145 c -0.445 -0.066 -0.547 -0.145 -0.664 -0.555 c -0.211 -0.676 -0.313 -0.793 -0.914 -1.031 c -0.602 -0.234 -0.695 -0.375 -0.84 -1.34 c -0.078 -0.512 -0.055 -0.734 0.102 -0.898 c 0.289 -0.313 0.125 -0.703 -0.445 -1.078 c -0.645 -0.43 -0.688 -0.613 -0.27 -1.098 c 0.418 -0.488 0.367 -0.734 -0.34 -1.582 c -0.332 -0.391 -0.789 -0.723 -1.363 -0.984 c -0.508 -0.219 -0.895 -0.488 -0.945 -0.648 c -0.047 -0.148 -0.305 -0.344 -0.582 -0.438 c -0.434 -0.16 -0.48 -0.219 -0.422 -0.547 c 0.16 -0.781 0.5 -1.32 1.043 -1.676 c 0.973 -0.625 1.703 -0.234 2.602 1.402 c 0.348 0.641 0.512 0.797 0.969 0.941 c 0.305 0.094 0.656 0.262 0.785 0.375 c 0.309 0.273 0.816 0.242 1.313 -0.074 c 0.23 -0.148 0.527 -0.27 0.648 -0.27 c 0.367 0 0.699 -0.414 0.633 -0.773 c -0.09 -0.492 0.141 -0.512 0.684 -0.051 c 0.629 0.539 0.91 0.523 1.43 -0.059 c 0.566 -0.621 0.547 -1.027 -0.059 -1.828 c -0.258 -0.352 -0.477 -0.711 -0.477 -0.805 c 0 -0.082 0.23 -0.348 0.512 -0.586 c 0.273 -0.238 0.598 -0.648 0.711 -0.91 c 0.113 -0.266 0.297 -0.582 0.418 -0.707 c 0.16 -0.172 0.188 -0.387 0.113 -0.844 c -0.051 -0.336 -0.043 -0.617 0.02 -0.617 c 0.063 0 0.293 -0.152 0.508 -0.352 c 0.277 -0.254 0.383 -0.453 0.348 -0.734 c -0.023 -0.223 0.063 -0.492 0.211 -0.648 c 0.23 -0.25 0.234 -0.328 0.055 -1.027 c -0.145 -0.551 -0.156 -0.758 -0.039 -0.758 c 0.09 0 0.305 -0.125 0.469 -0.285 c 0.344 -0.309 0.309 -0.668 -0.098 -1.121 c -0.219 -0.25 -0.211 -0.25 0.23 -0.031 c 0.488 0.25 0.676 0.199 1.473 -0.375 c 1.094 -0.793 1.766 -1.488 1.766 -1.832 c 0 -0.332 0.031 -0.355 0.734 -0.336 c 1.434 0.02 1.496 0.035 1.633 0.379 c 0.195 0.484 0.613 0.559 1.203 0.207 c 0.398 -0.238 0.605 -0.277 1.082 -0.203 c 1.168 0.199 1.258 0.164 1.715 -0.559 c 0.152 -0.238 0.16 -0.238 0.457 0.016 c 0.398 0.34 0.984 1.492 0.984 1.91 c 0 0.363 0.363 0.602 0.918 0.602 c 0.367 0 0.902 -0.426 1.344 -1.086 c 0.18 -0.262 0.273 -0.301 0.402 -0.172 c 0.129 0.121 0.105 0.258 -0.137 0.645 c -0.273 0.434 -0.301 0.539 -0.141 0.906 c 0.102 0.219 0.324 0.5 0.5 0.613 c 0.18 0.109 0.359 0.316 0.406 0.465 c 0.105 0.313 0.844 0.715 1.129 0.609 c 0.105 -0.039 0.254 -0.234 0.336 -0.422 c 0.07 -0.184 0.223 -0.336 0.324 -0.336 c 0.242 0 0.363 0.406 0.371 1.168 c 0 0.449 0.113 0.699 0.57 1.258 c 0.652 0.805 1.238 1.957 1.246 2.43 c 0 0.188 0.113 0.449 0.25 0.594 c 0.266 0.285 0.27 0.434 0.141 3.484 c -0.078 1.758 -0.133 2.051 -0.469 2.77 c -0.281 0.594 -0.398 1.066 -0.434 1.824 c -0.055 1.25 -0.492 2.043 -1.129 2.043 c -0.211 0 -0.699 0.211 -1.098 0.465 c -0.391 0.254 -0.945 0.508 -1.23 0.563 c -0.578 0.105 -1.051 0.477 -1.051 0.813 c 0 0.125 0.191 0.395 0.418 0.598 c 0.23 0.207 0.422 0.441 0.422 0.52 c 0 0.297 -0.32 0.313 -0.703 0.035 c -0.512 -0.367 -0.984 -0.363 -1.668 0.023 c -0.43 0.242 -0.578 0.266 -0.719 0.133 c -0.133 -0.133 -0.086 -0.168 0.254 -0.168 c 0.262 0 0.531 -0.125 0.75 -0.352 c 0.324 -0.332 0.336 -0.418 0.309 -1.992 c -0.047 -1.992 0.055 -2.23 1.293 -2.875 c 0.641 -0.328 0.934 -0.586 1.234 -1.09 c 0.363 -0.598 0.379 -0.691 0.207 -1 c -0.117 -0.207 -0.602 -0.535 -1.258 -0.848 l -1.07 -0.5 l -0.18 -0.758 c -0.129 -0.566 -0.137 -0.875 -0.023 -1.191 c 0.148 -0.418 0.234 -0.961 0.395 -2.566 c 0.055 -0.574 0.027 -0.793 -0.105 -0.844 c -0.141 -0.055 -0.18 -0.441 -0.145 -1.637 c 0.031 -1.395 0.012 -1.602 -0.246 -1.914 c -0.156 -0.191 -0.297 -0.445 -0.301 -0.566 c -0.004 -0.117 -0.145 -0.43 -0.328 -0.688 c -0.313 -0.473 -0.332 -0.477 -1.492 -0.531 c -0.637 -0.027 -1.742 -0.051 -2.449 -0.051 c -1.219 0 -1.305 0.02 -1.758 0.391 c -0.266 0.215 -0.625 0.641 -0.785 0.938 c -0.762 1.352 -0.941 1.602 -1.234 1.707 c -0.207 0.074 -0.305 0.227 -0.305 0.445 c 0 0.211 -0.234 0.551 -0.652 0.945 c -0.363 0.344 -0.695 0.625 -0.754 0.625 c -0.055 0 -0.18 0.215 -0.262 0.477 c -0.09 0.266 -0.316 0.645 -0.5 0.832 c -0.242 0.242 -0.344 0.508 -0.344 0.871 c 0 0.449 -0.09 0.613 -0.688 1.164 c -0.477 0.449 -0.82 0.941 -1.117 1.613 c -0.234 0.535 -0.434 1.047 -0.434 1.152 c 0 0.102 -0.125 0.5 -0.273 0.895 c -0.441 1.129 -0.379 1.547 0.289 2.113 c 0.465 0.379 0.742 0.492 1.363 0.555 c 0.438 0.043 1.039 0.137 1.348 0.199 c 0.746 0.164 1.754 0.281 2.859 0.352 c 2.352 0.137 2.633 0.301 2.676 1.586 c 0.035 1.328 0.055 1.508 0.145 1.723 c 0.047 0.113 0.117 0.293 0.148 0.41 c 0.063 0.199 0.215 0.238 1.777 0.328 c 1.148 0.066 1.117 0.051 0.66 0.289 c -0.258 0.137 -0.379 0.309 -0.379 0.539 c 0 0.309 -0.035 0.316 -0.293 0.191 c -0.426 -0.223 -0.652 -0.082 -0.82 0.539 c -0.109 0.391 -0.23 0.543 -0.418 0.543 c -0.145 0 -0.453 0.105 -0.691 0.234 c -0.395 0.223 -0.453 0.223 -0.813 0.016 c -0.207 -0.121 -0.535 -0.434 -0.715 -0.703 c -0.426 -0.613 -1.66 -1.039 -3.03 -1.039 c -0.781 0 -0.988 -0.051 -1.332 -0.344 c -0.516 -0.418 -0.602 -0.418 -1.047 0.012 c -0.305 0.301 -0.34 0.43 -0.27 0.879 l 0.094 0.535 h -0.695 c -0.574 0 -0.777 0.074 -1.188 0.422 c -0.27 0.227 -0.5 0.539 -0.5 0.676 c 0 0.203 -0.098 0.262 -0.426 0.262 c -0.52 0 -0.969 0.211 -0.969 0.461 c 0 0.344 0.418 0.512 1.348 0.527 c 1.246 0.031 1.438 0.48 0.254 0.57 c -0.258 0.027 -0.645 0.082 -0.859 0.129 c -0.355 0.078 -0.469 0.004 -1 -0.613 m 8.922 -13 c -0.289 -0.305 -0.379 -0.844 -0.152 -0.984 c 0.07 -0.043 0.234 -0.375 0.359 -0.746 c 0.223 -0.648 0.867 -1.355 1.246 -1.355 c 0.289 0 0.574 0.426 0.859 1.281 c 0.195 0.578 0.379 0.863 0.648 1.016 c 0.434 0.238 0.496 0.563 0.168 0.879 c -0.172 0.164 -0.527 0.211 -1.527 0.211 c -1.172 0 -1.344 -0.035 -1.598 -0.297 m -2.273 -13.719 c -0.047 -0.227 -0.027 -0.465 0.043 -0.535 c 0.219 -0.211 0.297 0.012 0.164 0.488 l -0.117 0.453" fill="#c01919"/><path d="m 8.871 40.902 c -0.344 -0.367 -0.301 -0.492 0.406 -1.203 c 0.613 -0.617 0.645 -0.633 0.832 -0.387 c 0.234 0.309 0.25 0.531 0.07 0.859 c -0.074 0.129 -0.168 0.402 -0.215 0.609 c -0.066 0.301 -0.156 0.375 -0.477 0.375 c -0.215 0 -0.5 -0.113 -0.621 -0.258 m 8.703 -4.637 c -0.332 -0.383 -0.816 -0.785 -1.074 -0.891 c -0.254 -0.098 -0.566 -0.355 -0.699 -0.559 c -0.133 -0.207 -0.262 -0.398 -0.277 -0.426 c -0.027 -0.031 -0.281 -0.094 -0.566 -0.141 c -0.43 -0.066 -0.535 -0.145 -0.566 -0.418 c -0.074 -0.578 -0.332 -0.934 -0.824 -1.09 c -0.602 -0.191 -0.875 -0.469 -0.875 -0.879 c 0 -0.371 0.102 -0.402 0.617 -0.176 c 0.305 0.133 0.391 0.121 0.551 -0.094 c 0.16 -0.219 0.223 -0.227 0.41 -0.074 c 0.199 0.156 0.23 0.141 0.23 -0.105 c 0 -0.297 -0.211 -0.359 -1.01 -0.297 c -0.293 0.027 -0.387 -0.031 -0.387 -0.227 c 0 -0.141 0.07 -0.32 0.152 -0.398 c 0.086 -0.078 0.133 -0.285 0.102 -0.461 c -0.031 -0.234 -0.16 -0.34 -0.477 -0.402 c -0.516 -0.102 -1.16 -0.539 -1.164 -0.77 c -0.008 -0.207 0.66 -0.484 0.918 -0.383 c 0.125 0.047 0.188 -0.043 0.188 -0.258 c 0 -0.445 0.195 -0.523 0.488 -0.199 c 0.234 0.246 0.242 0.285 0.023 0.512 c -0.266 0.285 -0.305 0.645 -0.086 0.777 c 0.09 0.047 0.227 0.027 0.305 -0.059 c 0.109 -0.105 0.203 -0.105 0.336 0 c 0.137 0.109 0.242 0.105 0.387 -0.016 c 0.184 -0.145 0.176 -0.207 -0.012 -0.488 c -0.203 -0.297 -0.203 -0.332 0 -0.406 c 0.125 -0.047 0.195 -0.137 0.152 -0.199 c -0.109 -0.18 -1.328 -0.68 -1.465 -0.598 c -0.063 0.035 -0.156 0.004 -0.199 -0.07 c -0.047 -0.074 -0.211 -0.137 -0.352 -0.137 c -0.145 0 -0.5 -0.281 -0.789 -0.629 c -0.359 -0.426 -0.805 -0.746 -1.395 -1.012 c -0.512 -0.227 -0.895 -0.492 -0.945 -0.648 c -0.047 -0.156 -0.305 -0.352 -0.57 -0.441 c -0.262 -0.09 -0.48 -0.211 -0.48 -0.27 c 0 -0.051 0.188 -0.223 0.41 -0.379 c 0.23 -0.152 0.43 -0.418 0.453 -0.59 c 0.035 -0.23 0.148 -0.309 0.492 -0.344 c 0.328 -0.031 0.422 -0.094 0.371 -0.25 c -0.102 -0.246 0.352 -0.586 0.645 -0.488 c 0.43 0.145 0.879 0.66 1.344 1.551 c 0.477 0.91 0.457 1.156 -0.078 0.988 c -0.324 -0.098 -0.891 0.156 -0.77 0.344 c 0.047 0.074 0.234 0.133 0.418 0.133 c 0.191 0 0.371 0.059 0.418 0.133 c 0.137 0.215 0.531 0.164 0.441 -0.059 c -0.082 -0.223 0.277 -0.578 0.434 -0.426 c 0.055 0.055 0.098 0.234 0.098 0.398 c 0 0.316 0.262 0.379 1.434 0.363 c 0.609 -0.008 0.637 0.012 0.793 0.691 c 0.063 0.301 0.004 0.406 -0.406 0.641 c -0.582 0.332 -0.602 0.465 -0.137 0.672 c 0.297 0.133 0.371 0.121 0.441 -0.082 c 0.133 -0.344 1.031 -1.301 1.328 -1.418 c 0.273 -0.105 0.332 -0.313 0.121 -0.445 c -0.074 -0.039 -0.102 -0.273 -0.055 -0.512 c 0.047 -0.238 0.09 -0.684 0.098 -0.988 c 0.02 -0.555 0.023 -0.563 0.328 -0.344 c 0.203 0.141 0.305 0.344 0.281 0.555 c -0.02 0.289 0.031 0.348 0.414 0.379 c 0.238 0.027 0.473 0.129 0.516 0.23 c 0.055 0.137 -0.086 0.172 -0.586 0.164 c -0.578 -0.023 -0.66 0.008 -0.695 0.277 c -0.051 0.363 0.266 0.414 0.539 0.09 c 0.109 -0.121 0.305 -0.18 0.484 -0.137 c 0.168 0.035 0.441 -0.023 0.621 -0.145 c 0.262 -0.184 0.336 -0.188 0.445 -0.031 c 0.105 0.156 0.168 0.145 0.332 -0.074 c 0.188 -0.238 0.188 -0.277 -0.004 -0.379 c -0.113 -0.063 -0.281 -0.07 -0.363 -0.023 c -0.184 0.105 -0.402 -0.172 -0.402 -0.516 c -0.004 -0.27 0.418 -0.316 0.832 -0.102 c 0.406 0.211 0.469 -0.078 0.086 -0.375 c -0.324 -0.242 -0.332 -0.293 -0.168 -0.75 c 0.23 -0.656 0.313 -0.715 0.504 -0.367 c 0.121 0.215 0.121 0.34 0.012 0.449 c -0.25 0.238 -0.176 0.367 0.215 0.367 c 0.289 0 0.344 0.047 0.254 0.23 c -0.055 0.133 -0.137 0.41 -0.168 0.621 c -0.039 0.211 -0.156 0.418 -0.258 0.453 c -0.125 0.047 -0.195 0.293 -0.195 0.68 c 0 0.496 -0.051 0.617 -0.281 0.676 c -0.172 0.043 -0.273 0.184 -0.273 0.359 c 0 0.246 -0.086 0.293 -0.453 0.277 c -0.582 -0.023 -0.805 0.063 -0.805 0.301 c 0 0.105 -0.094 0.184 -0.211 0.184 c -0.105 0 -0.199 0.07 -0.199 0.156 c 0 0.094 0.156 0.113 0.453 0.055 c 0.254 -0.047 0.613 -0.082 0.816 -0.078 c 0.199 0.004 0.445 -0.086 0.543 -0.199 c 0.156 -0.188 0.195 -0.18 0.355 0.027 c 0.156 0.203 0.219 0.211 0.535 0.047 c 0.316 -0.16 0.391 -0.16 0.617 0.039 c 0.141 0.125 0.371 0.223 0.5 0.223 c 0.156 0 0.23 0.086 0.199 0.238 c -0.031 0.16 -0.152 0.219 -0.363 0.199 c -0.379 -0.055 -0.418 0.328 -0.09 0.941 c 0.16 0.301 0.305 0.391 0.488 0.344 c 0.363 -0.086 0.363 0.32 0.012 0.633 c -0.238 0.211 -0.258 0.211 -0.473 -0.027 c -0.141 -0.137 -0.234 -0.375 -0.234 -0.527 c 0 -0.16 -0.074 -0.328 -0.141 -0.371 c -0.078 -0.047 -0.102 -0.148 -0.063 -0.211 c 0.086 -0.137 -0.316 -0.344 -0.438 -0.223 c -0.078 0.09 0.227 0.656 0.422 0.809 c 0.195 0.141 -0.031 0.527 -0.254 0.43 c -0.113 -0.031 -0.293 -0.289 -0.402 -0.555 c -0.145 -0.355 -0.324 -0.523 -0.707 -0.645 c -0.555 -0.188 -0.652 -0.148 -0.652 0.242 c 0 0.211 0.07 0.25 0.336 0.184 c 0.266 -0.066 0.355 -0.02 0.418 0.215 c 0.043 0.16 0.02 0.363 -0.043 0.438 c -0.066 0.074 -0.133 0.199 -0.145 0.273 c -0.016 0.133 -0.27 0.129 -0.676 -0.012 c -0.129 -0.039 -0.172 -0.227 -0.141 -0.602 c 0.047 -0.48 0.023 -0.535 -0.254 -0.535 c -0.207 0 -0.316 0.09 -0.352 0.305 c -0.027 0.195 -0.156 0.316 -0.363 0.348 c -0.285 0.035 -0.32 0.09 -0.301 0.398 c 0 0.055 0.156 0.082 0.348 0.055 c 0.188 -0.02 0.344 0.027 0.344 0.102 c 0 0.086 -0.086 0.141 -0.191 0.141 c -0.121 0 -0.219 0.195 -0.254 0.48 c -0.035 0.297 0 0.477 0.102 0.477 c 0.09 0 0.273 0.121 0.414 0.27 c 0.137 0.145 0.352 0.27 0.477 0.27 c 0.547 0 0.746 0.613 0.313 0.984 c -0.375 0.328 -0.477 0.277 -0.375 -0.18 c 0.074 -0.313 0.043 -0.41 -0.125 -0.41 c -0.125 0 -0.223 0.09 -0.223 0.188 c 0 0.105 -0.094 0.227 -0.207 0.27 c -0.133 0.047 -0.211 0 -0.211 -0.133 c 0 -0.121 -0.086 -0.199 -0.242 -0.16 c -0.145 0.027 -0.316 -0.09 -0.422 -0.285 c -0.145 -0.281 -0.137 -0.371 0.059 -0.578 c 0.195 -0.199 0.195 -0.258 0.035 -0.262 c -0.105 -0.008 -0.316 -0.023 -0.469 -0.031 c -0.418 -0.027 -0.426 -0.469 -0.023 -0.773 c 0.281 -0.211 0.336 -0.332 0.242 -0.57 c -0.137 -0.371 -0.055 -0.652 0.25 -0.879 c 0.188 -0.141 0.195 -0.191 0.031 -0.289 c -0.117 -0.07 -0.164 -0.238 -0.121 -0.402 c 0.043 -0.16 0.016 -0.289 -0.063 -0.289 c -0.082 0 -0.047 -0.145 0.082 -0.332 c 0.277 -0.418 0.289 -0.703 0.023 -0.797 c -0.223 -0.086 -0.418 0.125 -0.418 0.453 c 0 0.121 -0.16 0.223 -0.398 0.246 c -0.586 0.066 -1.465 0.977 -0.934 0.977 c 0.074 0 0.137 -0.063 0.137 -0.137 c 0 -0.34 0.262 -0.09 0.34 0.344 c 0.051 0.258 0.148 0.473 0.211 0.473 c 0.07 0 0.199 0.219 0.293 0.484 c 0.207 0.625 0.004 0.895 -0.453 0.609 c -0.219 -0.133 -0.32 -0.145 -0.359 -0.031 c -0.031 0.09 -0.254 0.152 -0.504 0.152 c -0.254 0 -0.5 0.031 -0.547 0.086 c -0.082 0.09 0.531 0.723 0.703 0.723 c 0.047 0 0.16 0.105 0.258 0.238 c 0.172 0.223 0.195 0.219 0.387 -0.027 c 0.195 -0.258 0.199 -0.258 0.359 0.027 c 0.207 0.371 0.195 0.441 -0.055 0.441 c -0.297 0 -0.258 0.219 0.074 0.543 c 0.16 0.152 0.359 0.238 0.453 0.18 c 0.098 -0.059 0.09 0.016 -0.035 0.164 c -0.113 0.137 -0.207 0.273 -0.223 0.297 c -0.008 0.027 -0.246 -0.059 -0.523 -0.168 c -0.66 -0.27 -0.652 -0.27 -0.652 0.211 c 0 0.391 0.027 0.41 0.406 0.332 c 0.227 -0.047 0.441 -0.031 0.492 0.051 c 0.109 0.164 0.883 0.031 1.258 -0.211 c 0.656 -0.438 0.656 -0.082 0.008 0.594 c -0.406 0.418 -0.453 0.523 -0.277 0.613 c 0.359 0.203 1.125 0.07 1.063 -0.168 c -0.152 -0.57 -0.133 -1.063 0.055 -1.133 c 0.117 -0.035 0.203 -0.016 0.203 0.059 c 0 0.074 0.223 0.133 0.488 0.133 c 0.27 0 0.484 -0.055 0.484 -0.117 c 0 -0.059 0.176 -0.117 0.383 -0.125 c 0.215 -0.008 0.574 -0.043 0.809 -0.09 c 0.383 -0.09 0.418 -0.141 0.367 -0.555 c -0.031 -0.262 -0.113 -0.461 -0.188 -0.461 c -0.066 0 -0.121 -0.211 -0.121 -0.48 c 0 -0.547 -0.305 -0.648 -0.57 -0.176 c -0.141 0.254 -0.121 0.328 0.137 0.535 c 0.336 0.258 0.383 0.465 0.105 0.57 c -0.285 0.102 -0.637 -0.402 -0.637 -0.914 c 0 -0.258 -0.09 -0.48 -0.176 -0.523 c -0.324 -0.105 -0.664 0.063 -0.664 0.32 c 0 0.145 -0.066 0.258 -0.137 0.258 c -0.078 0 -0.141 -0.109 -0.141 -0.246 c 0 -0.141 -0.074 -0.309 -0.156 -0.398 c -0.27 -0.254 0.012 -0.473 0.5 -0.387 c 0.332 0.07 0.539 0.016 0.805 -0.191 c 0.344 -0.262 0.375 -0.262 0.82 -0.039 c 0.586 0.305 0.809 0.563 0.813 0.949 c 0.004 0.172 0.066 0.305 0.141 0.305 c 0.188 0 0.18 -0.492 0 -0.605 c -0.09 -0.059 -0.086 -0.172 0.004 -0.344 c 0.195 -0.344 0.422 -0.336 0.422 0.008 c 0 0.348 0.281 0.359 0.375 0.008 c 0.082 -0.316 0.746 -0.484 1.137 -0.285 c 0.363 0.188 0.34 0.191 0.719 -0.137 c 0.258 -0.207 0.285 -0.309 0.148 -0.434 c -0.141 -0.137 -0.227 -0.094 -0.441 0.176 l -0.266 0.336 l -0.004 -0.375 c 0 -0.227 0.066 -0.375 0.195 -0.375 c 0.195 0 0.422 -0.387 0.305 -0.5 c -0.027 -0.031 -0.207 -0.012 -0.387 0.039 c -0.18 0.059 -0.414 0.113 -0.527 0.117 c -0.133 0.008 -0.234 0.164 -0.258 0.383 c -0.051 0.438 -0.254 0.484 -0.379 0.086 c -0.051 -0.172 -0.004 -0.367 0.137 -0.516 c 0.293 -0.313 0.281 -0.555 -0.027 -0.555 c -0.195 -0.008 -0.176 -0.055 0.105 -0.27 c 0.441 -0.336 1.691 -0.375 1.957 -0.07 c 0.191 0.227 0.902 0.289 0.77 0.07 c -0.047 -0.078 0.004 -0.133 0.129 -0.133 c 0.121 0 0.293 0.113 0.383 0.254 c 0.129 0.199 0.227 0.227 0.422 0.125 c 0.137 -0.066 0.219 -0.191 0.18 -0.254 c -0.102 -0.152 0.211 -0.168 0.457 -0.016 c 0.227 0.137 -0.125 0.629 -0.652 0.887 c -0.324 0.172 -0.434 0.172 -0.758 0.02 c -0.203 -0.102 -0.367 -0.141 -0.367 -0.059 c 0 0.074 0.063 0.133 0.141 0.133 c 0.07 0 0.137 0.113 0.137 0.262 c 0 0.316 -0.176 0.355 -0.418 0.07 c -0.152 -0.18 -0.199 -0.176 -0.359 0.027 c -0.254 0.313 -0.246 0.445 0.008 0.445 c 0.117 0 0.207 0.063 0.207 0.137 c 0 0.078 0.133 0.137 0.281 0.137 c 0.156 0 0.277 0.09 0.277 0.203 c 0 0.109 0.063 0.195 0.141 0.195 c 0.078 0 0.141 -0.059 0.141 -0.133 c 0 -0.074 -0.063 -0.16 -0.141 -0.211 c -0.328 -0.199 -0.117 -0.371 0.359 -0.297 c 0.68 0.105 0.898 -0.004 0.898 -0.461 c 0 -0.258 0.063 -0.371 0.172 -0.32 c 0.195 0.074 0.527 0.688 0.527 0.961 c 0 0.332 0.32 0.355 0.57 0.027 c 0.242 -0.301 0.266 -0.309 0.484 -0.09 c 0.219 0.199 0.215 0.238 -0.063 0.473 c -0.156 0.133 -0.297 0.297 -0.297 0.359 c 0 0.063 0.223 0.391 0.488 0.734 c 0.594 0.754 0.637 1.121 0.133 1.121 c -0.289 0 -1.113 0.516 -0.891 0.551 c 0.938 0.176 1.145 0.09 1.52 -0.629 c 0.297 -0.578 0.348 -0.613 0.754 -0.547 c 0.238 0.043 0.68 0.023 0.98 -0.047 c 0.688 -0.152 0.941 -0.027 0.453 0.223 c -0.25 0.121 -0.367 0.297 -0.367 0.531 c 0 0.301 -0.031 0.316 -0.289 0.184 c -0.43 -0.223 -0.66 -0.074 -0.824 0.539 c -0.109 0.398 -0.23 0.551 -0.418 0.551 c -0.145 0 -0.453 0.105 -0.688 0.234 c -0.398 0.223 -0.457 0.223 -0.809 0.016 c -0.215 -0.121 -0.543 -0.441 -0.723 -0.703 c -0.43 -0.617 -1.66 -1.039 -3.03 -1.039 c -0.781 0 -0.988 -0.055 -1.332 -0.344 c -0.516 -0.43 -0.602 -0.43 -1.047 0.012 c -0.305 0.297 -0.344 0.426 -0.262 0.875 l 0.086 0.535 h -0.695 c -0.574 0 -0.777 0.07 -1.188 0.426 c -0.27 0.227 -0.492 0.535 -0.492 0.676 c 0 0.195 -0.102 0.258 -0.434 0.258 c -0.871 0 -1.211 0.418 -0.691 0.875 c 0.207 0.184 0.457 0.223 1.133 0.191 c 1.195 -0.063 1.367 0.414 0.184 0.504 c -0.254 0.02 -0.641 0.074 -0.859 0.121 c -0.348 0.074 -0.473 0.004 -1 -0.613 m 1.074 -2.539 c 0 -0.082 -0.094 -0.141 -0.211 -0.141 c -0.109 0 -0.199 0.066 -0.199 0.141 c 0 0.074 0.09 0.133 0.199 0.133 c 0.117 0 0.211 -0.059 0.211 -0.133 m 8.727 -1.344 c -0.105 -0.172 -0.496 -0.203 -0.496 -0.039 c 0 0.059 0.082 0.18 0.168 0.266 c 0.191 0.191 0.473 0 0.328 -0.227 m -12.91 -0.289 c 0 -0.074 -0.066 -0.129 -0.145 -0.129 c -0.082 0 -0.109 0.063 -0.063 0.129 c 0.047 0.082 0.113 0.141 0.145 0.141 c 0.031 0 0.063 -0.063 0.063 -0.141 m 11.73 -0.051 c -0.199 -0.234 -0.805 -0.391 -1.016 -0.266 c -0.238 0.145 0.293 0.457 0.77 0.457 c 0.332 0 0.375 -0.039 0.246 -0.191 m 1.801 0.102 c 0 -0.328 -0.375 -1.01 -0.594 -1.074 c -0.32 -0.102 -0.32 -0.102 -0.422 0.508 c -0.066 0.434 -0.039 0.48 0.199 0.418 c 0.141 -0.039 0.266 0 0.266 0.086 c 0 0.078 0.129 0.152 0.281 0.152 c 0.152 0 0.273 -0.043 0.273 -0.09 m -10.602 -0.543 c 0 -0.27 -0.332 -0.148 -0.387 0.137 c -0.039 0.16 0.02 0.199 0.172 0.148 c 0.125 -0.047 0.215 -0.176 0.215 -0.285 m 6.773 0.219 c 0.051 -0.082 0.063 -0.172 0.027 -0.203 c -0.098 -0.098 -0.52 0.09 -0.52 0.227 c 0 0.168 0.379 0.152 0.492 -0.023 m -0.691 -0.465 c 0.039 -0.109 0.164 -0.199 0.27 -0.199 c 0.105 0 0.254 -0.121 0.34 -0.27 c 0.191 -0.34 -0.07 -0.371 -0.516 -0.07 c -0.262 0.18 -0.324 0.18 -0.504 0.008 c -0.227 -0.223 -0.375 -0.145 -0.375 0.188 c 0 0.469 0.625 0.746 0.785 0.348 m -1.137 -0.07 c 0.047 -0.074 -0.008 -0.133 -0.125 -0.133 c -0.113 0 -0.25 0.059 -0.297 0.133 c -0.047 0.078 0.012 0.133 0.121 0.133 c 0.113 0 0.254 -0.059 0.301 -0.133 m 2.414 -0.102 c -0.055 -0.281 -0.301 -0.262 -0.363 0.031 c -0.027 0.129 0.055 0.207 0.188 0.207 c 0.141 0 0.215 -0.086 0.184 -0.234 m 1.816 -0.199 c 0.051 -0.438 -0.141 -0.48 -0.609 -0.129 c -0.254 0.203 -0.293 0.297 -0.16 0.418 c 0.285 0.289 0.715 0.125 0.762 -0.285 m -7.641 -1.324 c 0 -0.082 -0.063 -0.141 -0.133 -0.141 c -0.09 0 -0.145 0.063 -0.145 0.141 c 0 0.082 0.063 0.141 0.145 0.141 c 0.07 0 0.133 -0.063 0.133 -0.141 m -3.691 -0.414 c 0.043 -0.074 -0.047 -0.133 -0.207 -0.133 c -0.16 0 -0.254 0.063 -0.207 0.133 c 0.047 0.078 0.141 0.141 0.207 0.141 c 0.07 0 0.16 -0.066 0.207 -0.141 m 2.039 -0.875 c 0 -0.074 -0.066 -0.141 -0.148 -0.18 c -0.086 -0.027 -0.152 0.055 -0.152 0.18 c 0 0.133 0.066 0.195 0.152 0.188 c 0.082 -0.031 0.148 -0.105 0.148 -0.188 m -3.793 -1.66 c 0.105 -0.121 0.105 -0.254 0.008 -0.434 c -0.133 -0.238 -0.184 -0.25 -0.594 -0.086 c -0.582 0.238 -0.637 0.422 -0.234 0.836 c 0.305 0.316 0.34 0.32 0.5 0.094 c 0.098 -0.137 0.25 -0.32 0.32 -0.414 m 0.949 -0.063 c 0.227 -0.223 0.211 -0.648 -0.016 -0.648 c -0.266 0 -0.699 0.496 -0.59 0.664 c 0.125 0.199 0.402 0.188 0.605 -0.016 m 4.07 -0.09 c 0 -0.164 -0.285 -0.367 -0.652 -0.484 c -0.355 -0.105 -0.438 0.156 -0.145 0.438 c 0.191 0.191 0.801 0.223 0.801 0.047 m -8.16 -1.914 c -0.043 -0.078 -0.18 -0.137 -0.289 -0.137 c -0.109 0 -0.195 0.063 -0.195 0.137 c 0 0.074 0.125 0.133 0.285 0.133 c 0.156 0 0.25 -0.063 0.199 -0.133 m 1.043 0 c 0 -0.078 -0.063 -0.137 -0.141 -0.137 c -0.082 0 -0.109 0.063 -0.066 0.137 c 0.051 0.074 0.121 0.133 0.152 0.133 c 0.027 0 0.055 -0.063 0.055 -0.133 m -1.594 -0.555 c 0.051 -0.082 0.188 -0.113 0.297 -0.07 c 0.25 0.094 0.414 -0.297 0.211 -0.496 c -0.121 -0.113 -0.254 -0.055 -0.508 0.223 c -0.195 0.199 -0.355 0.395 -0.355 0.434 c 0 0.117 0.266 0.051 0.355 -0.086 m 22.277 8.168 c -0.051 -0.078 0.258 -0.039 0.496 -0.039 c 0.305 0 0.539 -0.141 0.906 -0.551 c 0.418 -0.457 0.48 -0.617 0.418 -0.992 c -0.047 -0.273 -0.008 -0.492 0.09 -0.551 c 0.121 -0.07 0.098 -0.141 -0.066 -0.262 c -0.195 -0.141 -0.211 -0.219 -0.082 -0.461 c 0.203 -0.371 0.578 -0.375 0.672 -0.012 c 0.047 0.168 0.152 0.25 0.281 0.199 c 0.109 -0.043 0.223 -0.078 0.262 -0.078 c 0.176 0 0.016 -0.43 -0.195 -0.5 c -0.129 -0.047 -0.348 -0.168 -0.469 -0.273 c -0.156 -0.125 -0.258 -0.141 -0.32 -0.047 c -0.293 0.461 -0.496 -0.176 -0.215 -0.676 c 0.168 -0.297 0.418 -0.352 0.418 -0.086 c 0 0.223 0.695 0.73 1.176 0.844 c 0.195 0.051 0.398 0.156 0.445 0.223 c 0.105 0.16 0.75 -0.406 0.75 -0.652 c 0 -0.102 0.094 -0.184 0.215 -0.184 c 0.301 0 0.414 -0.363 0.195 -0.617 c -0.109 -0.121 -0.125 -0.254 -0.047 -0.328 c 0.078 -0.078 0.234 0.027 0.406 0.273 c 0.313 0.457 0.48 0.457 0.645 0.02 c 0.098 -0.262 0.078 -0.293 -0.141 -0.23 c -0.297 0.098 -0.68 -0.254 -0.441 -0.395 c 0.086 -0.047 0.27 -0.047 0.422 -0.008 c 0.359 0.113 0.512 -0.238 0.301 -0.688 c -0.129 -0.27 -0.117 -0.355 0.055 -0.41 c 0.301 -0.113 0.254 -0.277 -0.086 -0.367 c -0.16 -0.047 -0.27 -0.148 -0.234 -0.25 c 0.063 -0.191 -0.363 -0.66 -0.586 -0.66 c -0.074 0 -0.145 -0.047 -0.156 -0.102 c -0.141 -0.914 -0.129 -0.934 0.301 -0.871 c 0.293 0.031 0.414 0.133 0.414 0.305 c 0 0.145 0.094 0.293 0.195 0.336 c 0.598 0.219 1.117 -0.777 0.707 -1.344 l -0.211 -0.297 l -0.09 0.32 c -0.078 0.297 -0.129 0.313 -0.797 0.234 c -0.391 -0.055 -0.773 -0.152 -0.863 -0.219 c -0.223 -0.184 -1.055 0.156 -1 0.41 c 0.063 0.316 0.484 0.32 0.57 0.02 c 0.09 -0.367 0.379 -0.367 0.379 -0.016 c 0 0.148 -0.063 0.27 -0.145 0.27 c -0.082 0 -0.133 0.102 -0.109 0.234 c 0.023 0.137 -0.008 0.313 -0.07 0.418 c -0.176 0.266 -0.488 0.195 -0.539 -0.141 c -0.023 -0.176 -0.16 -0.328 -0.316 -0.355 c -0.25 -0.055 -0.254 -0.031 -0.074 0.191 c 0.188 0.219 0.184 0.23 -0.074 0.141 c -0.156 -0.059 -0.453 -0.168 -0.66 -0.238 c -0.348 -0.129 -0.898 -0.879 -0.75 -1.031 c 0.105 -0.094 0.371 0.109 0.293 0.23 c -0.035 0.07 0.043 0.25 0.176 0.41 c 0.266 0.313 0.734 0.258 0.734 -0.082 c 0 -0.105 0.059 -0.191 0.141 -0.191 c 0.074 0 0.141 -0.086 0.141 -0.203 c 0 -0.164 -0.059 -0.176 -0.281 -0.055 c -0.242 0.121 -0.332 0.094 -0.559 -0.164 c -0.344 -0.402 -0.344 -0.543 0 -0.758 c 0.156 -0.086 0.281 -0.309 0.281 -0.48 c 0 -0.199 0.125 -0.363 0.355 -0.469 c 0.367 -0.164 0.688 -0.762 0.566 -1.063 c -0.113 -0.289 -0.391 -0.207 -0.293 0.086 c 0.086 0.258 -0.176 0.816 -0.371 0.816 c -0.184 0 -0.414 -0.555 -0.473 -1.172 c -0.059 -0.547 -0.039 -0.594 0.207 -0.52 c 0.176 0.051 0.316 0.004 0.398 -0.141 c 0.184 -0.309 0.703 -0.137 0.754 0.258 c 0.031 0.195 0.145 0.301 0.324 0.301 c 0.156 0 0.281 0.09 0.281 0.199 c 0 0.113 -0.086 0.188 -0.18 0.164 c -0.234 -0.047 -0.223 0.266 0.027 0.59 c 0.203 0.254 0.207 0.254 0.207 -0.043 c 0.008 -0.316 0.203 -0.406 0.359 -0.164 c 0.055 0.078 0.199 0.133 0.324 0.121 c 0.438 -0.043 0.582 0.012 0.582 0.211 c 0 0.113 0.094 0.203 0.207 0.203 c 0.109 0 0.203 -0.059 0.203 -0.141 c 0 -0.07 0.156 -0.168 0.355 -0.211 c 0.258 -0.063 0.348 -0.176 0.348 -0.453 c 0 -0.383 -0.223 -0.691 -0.504 -0.691 c -0.098 0 -0.141 0.113 -0.098 0.258 c 0.035 0.137 0 0.297 -0.086 0.344 c -0.086 0.051 -0.219 -0.148 -0.32 -0.531 c -0.117 -0.418 -0.246 -0.613 -0.402 -0.613 c -0.254 0 -0.629 -0.367 -0.508 -0.484 c 0.047 -0.043 0.336 -0.113 0.648 -0.148 c 0.313 -0.047 0.566 -0.152 0.566 -0.246 c 0 -0.184 -1.359 -0.488 -1.469 -0.324 c -0.094 0.145 -0.863 0.293 -1.031 0.199 c -0.246 -0.148 0.012 -0.48 0.367 -0.48 c 0.34 0 0.355 -0.027 0.262 -0.555 c -0.078 -0.477 -0.059 -0.551 0.137 -0.477 c 0.117 0.047 0.25 0.078 0.281 0.078 c 0.145 0 0.035 0.801 -0.121 0.863 c -0.105 0.043 -0.086 0.074 0.063 0.078 c 0.129 0.008 0.277 -0.047 0.32 -0.121 c 0.047 -0.086 0.242 -0.141 0.43 -0.141 c 0.457 0 0.426 -0.117 -0.203 -0.785 c -0.465 -0.477 -0.574 -0.535 -0.715 -0.359 c -0.207 0.246 -0.555 0.258 -0.555 0.027 c 0 -0.285 -0.781 -0.539 -1.113 -0.371 c -0.156 0.086 -0.285 0.23 -0.285 0.313 c 0 0.09 -0.125 0.391 -0.277 0.672 c -0.156 0.281 -0.281 0.539 -0.281 0.578 c 0 0.035 0.133 0.074 0.281 0.074 c 0.152 0 0.277 0.086 0.277 0.195 c 0 0.27 -0.188 0.258 -0.469 -0.043 c -0.277 -0.301 -0.34 -1.723 -0.063 -1.559 c 0.109 0.07 0.129 0.016 0.051 -0.164 c -0.25 -0.586 -0.23 -0.742 0.137 -1.207 c 0.309 -0.395 0.348 -0.52 0.207 -0.684 c -0.27 -0.309 -0.5 -0.242 -0.496 0.164 c 0.008 0.531 -0.379 0.555 -0.578 0.047 c -0.176 -0.441 -0.125 -0.547 0.258 -0.547 c 0.309 0 0.32 -0.113 0.039 -0.414 c -0.191 -0.211 -0.164 -0.309 0.363 -1.074 c 0.395 -0.578 0.625 -0.805 0.723 -0.707 c 0.094 0.098 0.039 0.305 -0.18 0.645 c -0.305 0.477 -0.305 0.512 -0.086 0.965 c 0.125 0.254 0.324 0.496 0.426 0.535 c 0.25 0.094 0.801 0.984 0.691 1.148 c -0.043 0.066 0.105 0.305 0.324 0.531 c 0.43 0.434 0.617 0.52 0.504 0.23 c -0.031 -0.102 0.031 -0.258 0.141 -0.355 c 0.121 -0.094 0.281 -0.406 0.359 -0.699 c 0.254 -0.895 0.551 -0.539 0.555 0.645 c 0 0.441 0.105 0.695 0.492 1.156 c 0.605 0.73 1.324 2.102 1.324 2.539 c 0 0.18 0.109 0.445 0.246 0.586 c 0.27 0.293 0.273 0.434 0.141 3.488 c -0.074 1.754 -0.129 2.047 -0.469 2.766 c -0.281 0.598 -0.398 1.07 -0.43 1.824 c -0.063 1.254 -0.492 2.043 -1.133 2.043 c -0.211 0 -0.703 0.211 -1.09 0.469 c -0.398 0.258 -0.953 0.508 -1.238 0.559 c -0.578 0.105 -1.047 0.48 -1.047 0.82 c 0 0.117 0.188 0.387 0.418 0.594 c 0.234 0.203 0.418 0.438 0.418 0.523 c 0 0.297 -0.32 0.309 -0.699 0.031 c -0.5 -0.359 -1.059 -0.367 -1.598 -0.012 c -0.465 0.297 -0.875 0.238 -1.01 0.035 m 6.723 -7.574 c 0.105 -0.266 -0.32 -0.434 -0.477 -0.191 c -0.063 0.102 -0.086 0.234 -0.047 0.293 c 0.117 0.184 0.438 0.121 0.523 -0.102 m -3.047 -2.383 c 0.133 -0.375 -0.113 -0.602 -0.348 -0.324 c -0.188 0.215 -0.109 0.617 0.113 0.617 c 0.078 0 0.176 -0.133 0.23 -0.285 m 2.109 -0.09 c 0.188 -0.223 0.203 -0.223 0.34 0 c 0.25 0.391 0.516 0.273 0.598 -0.258 c 0.098 -0.594 0.016 -0.762 -0.328 -0.652 c -0.176 0.047 -0.281 -0.008 -0.344 -0.199 c -0.051 -0.16 -0.211 -0.281 -0.367 -0.281 c -0.418 0 -0.285 0.578 0.156 0.68 c 0.223 0.047 0.289 0.113 0.191 0.18 c -0.086 0.051 -0.367 -0.027 -0.633 -0.176 c -0.543 -0.324 -0.688 -0.344 -0.586 -0.086 c 0.047 0.133 -0.027 0.164 -0.266 0.121 c -0.227 -0.039 -0.367 0.012 -0.426 0.16 c -0.102 0.262 0.5 0.535 0.91 0.406 c 0.156 -0.051 0.293 -0.004 0.344 0.133 c 0.109 0.27 0.188 0.266 0.418 -0.027 m -2.023 -0.887 c -0.176 -0.172 -0.363 -0.039 -0.223 0.168 c 0.051 0.09 0.156 0.113 0.234 0.063 c 0.094 -0.055 0.094 -0.137 -0.012 -0.23 m -0.293 -6.523 c 0 -0.195 -0.082 -0.344 -0.188 -0.344 c -0.289 0 -0.375 0.148 -0.223 0.43 c 0.195 0.359 0.418 0.305 0.418 -0.09 m -7.477 14.828 c -0.129 -0.207 0.047 -0.344 0.23 -0.172 c 0.098 0.098 0.105 0.176 0.012 0.23 c -0.086 0.051 -0.188 0.027 -0.242 -0.059 m -0.16 -0.613 c -0.117 -0.309 0.152 -0.52 0.363 -0.27 c 0.184 0.211 0.094 0.48 -0.141 0.48 c -0.078 0 -0.176 -0.094 -0.223 -0.211 m -0.918 -0.008 c -0.055 -0.051 -0.102 -0.242 -0.102 -0.422 c 0 -0.258 0.059 -0.316 0.313 -0.285 c 0.234 0.035 0.316 0.137 0.316 0.379 c 0 0.328 -0.32 0.523 -0.527 0.324 m 7.566 -1.266 c 0 -0.074 0.063 -0.133 0.145 -0.133 c 0.074 0 0.141 0.063 0.141 0.133 c 0 0.078 -0.063 0.137 -0.141 0.137 c -0.078 0 -0.145 -0.063 -0.145 -0.137 m 0.805 -0.094 c -0.551 -0.082 -0.496 -0.484 0.117 -0.801 c 0.281 -0.141 0.555 -0.398 0.629 -0.566 c 0.102 -0.258 0.16 -0.281 0.391 -0.141 c 0.219 0.133 0.344 0.113 0.645 -0.074 c 0.207 -0.133 0.461 -0.203 0.578 -0.16 c 0.176 0.063 0.148 0.141 -0.117 0.477 c -0.363 0.445 -0.605 0.512 -0.723 0.211 c -0.141 -0.348 -0.395 -0.227 -0.352 0.164 c 0.016 0.207 -0.055 0.508 -0.164 0.676 c -0.195 0.305 -0.262 0.32 -1 0.207 m -20.305 -2.223 c 0.074 -0.211 0.387 -0.25 0.402 -0.047 c 0.004 0.082 -0.098 0.16 -0.23 0.188 c -0.145 0.023 -0.207 -0.023 -0.172 -0.141 m 11.766 -2.133 c -0.098 -0.156 0.422 -0.332 0.621 -0.215 c 0.07 0.047 0.137 0.141 0.137 0.211 c 0 0.16 -0.652 0.164 -0.758 0 m 1.289 -0.035 c 0.305 -0.285 0.203 -0.551 -0.16 -0.461 c -0.203 0.047 -0.398 0.012 -0.5 -0.105 c -0.125 -0.152 -0.066 -0.227 0.297 -0.41 l 0.453 -0.219 l 0.594 0.582 c 0.328 0.316 0.594 0.621 0.598 0.68 c 0.004 0.059 -0.316 0.102 -0.723 0.102 c -0.563 0 -0.688 -0.035 -0.559 -0.164 m -7.988 -0.641 c 0.047 -0.148 0.016 -0.301 -0.063 -0.348 c -0.207 -0.125 -0.176 -0.34 0.047 -0.34 c 0.359 0 0.539 0.355 0.34 0.668 c -0.227 0.352 -0.438 0.367 -0.324 0.027 m 6.352 0.113 c 0 -0.074 0.063 -0.133 0.141 -0.133 c 0.078 0 0.141 0.066 0.141 0.133 c 0 0.082 -0.063 0.141 -0.141 0.141 c -0.078 0 -0.141 -0.066 -0.141 -0.141 m -8.08 -0.613 c -0.234 -0.262 -0.434 -0.566 -0.434 -0.672 c 0 -0.273 0.551 -0.535 0.73 -0.359 c 0.082 0.082 0.336 0.105 0.555 0.063 c 0.387 -0.078 0.406 -0.063 0.352 0.371 c -0.051 0.449 -0.383 0.746 -0.383 0.344 c 0 -0.121 -0.055 -0.215 -0.117 -0.215 c -0.063 0 -0.086 0.18 -0.055 0.391 c 0.086 0.582 -0.168 0.613 -0.652 0.074 m 8.371 -0.406 c 0.004 -0.16 0.035 -0.191 0.086 -0.082 c 0.047 0.094 0.031 0.211 -0.004 0.258 c -0.047 0.043 -0.09 -0.035 -0.086 -0.18 m 1.254 -0.043 c 0 -0.141 0.516 -0.41 0.613 -0.32 c 0.168 0.164 0.078 0.281 -0.266 0.344 c -0.195 0.031 -0.348 0.027 -0.348 -0.023 m -7.957 -0.348 c 0 -0.152 0.098 -0.207 0.316 -0.18 c 0.172 0.027 0.316 0.102 0.316 0.18 c 0 0.074 -0.145 0.148 -0.316 0.176 c -0.219 0.027 -0.316 -0.027 -0.316 -0.176 m 14.297 -0.07 c 0.047 -0.086 0.109 -0.137 0.145 -0.137 c 0.027 0 0.063 0.059 0.063 0.137 c 0 0.082 -0.066 0.133 -0.148 0.133 c -0.078 0 -0.105 -0.059 -0.059 -0.133 m -6.793 -0.406 c -0.152 -0.164 -0.195 -0.297 -0.098 -0.352 c 0.238 -0.141 0.551 0.055 0.551 0.34 c 0 0.344 -0.152 0.352 -0.453 0.012 m -5.855 -0.086 c -0.027 -0.121 -0.266 -0.289 -0.535 -0.375 c -0.609 -0.191 -0.762 -0.781 -0.266 -1.039 c 0.156 -0.086 0.301 -0.141 0.32 -0.109 c 0.027 0.027 0.141 0.219 0.277 0.426 c 0.137 0.203 0.402 0.434 0.586 0.5 c 0.398 0.145 0.434 0.305 0.125 0.598 c -0.281 0.27 -0.445 0.258 -0.504 -0.004 m 12.449 -0.488 c 0.004 -0.508 0.023 -0.543 0.188 -0.336 c 0.191 0.246 0.137 0.91 -0.074 0.91 c -0.063 0 -0.121 -0.262 -0.113 -0.578 m 4.105 0.035 c 0.047 -0.078 0.109 -0.137 0.148 -0.137 c 0.027 0 0.063 0.063 0.063 0.137 c 0 0.082 -0.07 0.141 -0.152 0.141 c -0.078 0 -0.105 -0.066 -0.059 -0.141 m -18.664 -0.09 c -0.055 -0.047 -0.094 -0.227 -0.094 -0.406 c 0 -0.316 0.191 -0.391 0.613 -0.234 c 0.191 0.07 0.191 0.113 -0.008 0.41 c -0.223 0.332 -0.352 0.391 -0.512 0.23 m 2.559 -0.379 c 0 -0.113 0.063 -0.199 0.137 -0.199 c 0.082 0 0.137 0.086 0.137 0.199 c 0 0.105 -0.055 0.199 -0.137 0.199 c -0.082 0 -0.137 -0.094 -0.137 -0.199 m 15.16 -0.023 c -0.184 -0.18 -0.094 -0.316 0.199 -0.316 c 0.152 0 0.258 0.074 0.23 0.164 c -0.066 0.195 -0.301 0.281 -0.43 0.16 m -15.441 -0.66 c 0.098 -0.113 0.227 -0.203 0.301 -0.203 c 0.063 0 0.121 0.09 0.121 0.203 c 0 0.109 -0.125 0.199 -0.297 0.199 c -0.246 0 -0.27 -0.039 -0.125 -0.199 m -1.566 -0.102 c -0.438 -0.328 -0.348 -0.832 0.297 -1.641 c 0.629 -0.789 1.148 -1 1.332 -0.539 c 0.191 0.477 -0.324 1.09 -0.777 0.934 c -0.102 -0.039 -0.301 0.016 -0.441 0.121 c -0.242 0.184 -0.242 0.199 0.043 0.469 c 0.246 0.246 0.258 0.324 0.113 0.559 c -0.203 0.309 -0.258 0.32 -0.555 0.098 m 0.996 -1.859 c 0 -0.082 -0.055 -0.141 -0.137 -0.141 c -0.074 0 -0.141 0.063 -0.141 0.141 c 0 0.074 0.063 0.129 0.141 0.129 c 0.078 0 0.137 -0.063 0.137 -0.129 m 15.301 1.801 c -0.051 -0.047 -0.09 -0.18 -0.09 -0.289 c 0 -0.16 0.035 -0.16 0.207 -0.027 c 0.113 0.09 0.207 0.223 0.207 0.285 c 0 0.141 -0.199 0.16 -0.328 0.031 m -13.844 -0.332 c -0.098 -0.164 0.207 -0.414 0.379 -0.313 c 0.141 0.078 -0.012 0.461 -0.168 0.461 c -0.066 0 -0.16 -0.063 -0.211 -0.148 m 11.945 -0.047 c 0 -0.227 0.414 -0.473 0.637 -0.383 c 0.086 0.027 0.125 0.172 0.086 0.32 c -0.082 0.316 -0.73 0.375 -0.73 0.066 m -12.977 -0.074 c 0 -0.078 0.063 -0.137 0.137 -0.137 c 0.082 0 0.148 0.063 0.148 0.137 c 0 0.074 -0.063 0.133 -0.148 0.133 c -0.07 0 -0.137 -0.063 -0.137 -0.133 m 1.012 -0.707 l -0.305 -0.316 l 0.422 -0.176 c 0.227 -0.09 0.418 -0.281 0.418 -0.402 c 0 -0.152 0.121 -0.227 0.352 -0.227 c 0.242 0 0.348 0.074 0.348 0.242 c 0 0.336 -0.254 0.766 -0.441 0.766 c -0.086 0 -0.23 0.098 -0.313 0.215 c -0.141 0.188 -0.191 0.172 -0.465 -0.105 m -0.879 -0.102 c 0 -0.074 0.102 -0.133 0.219 -0.133 c 0.121 0 0.184 0.063 0.137 0.133 c -0.051 0.078 -0.148 0.141 -0.219 0.141 c -0.074 0 -0.137 -0.066 -0.137 -0.141 m 13.355 -0.086 c -0.113 -0.109 0.012 -0.324 0.188 -0.324 c 0.074 0 0.137 0.09 0.137 0.203 c 0 0.211 -0.164 0.27 -0.316 0.117 m 0.535 -0.77 c -0.16 -0.113 -0.203 -0.215 -0.109 -0.273 c 0.215 -0.129 0.582 0.043 0.582 0.266 c 0 0.238 -0.145 0.238 -0.473 0.004 m -11.316 -0.273 c -0.137 -0.324 0.16 -0.598 0.391 -0.375 c 0.137 0.133 0.121 0.203 -0.066 0.383 c -0.215 0.211 -0.246 0.211 -0.324 -0.008 m -2.984 -0.457 c 0 -0.141 0.566 -0.715 1.09 -1.105 c 0.242 -0.176 0.445 -0.422 0.445 -0.555 c 0 -0.254 0.414 -0.676 0.68 -0.676 c 0.094 0 0.328 -0.098 0.516 -0.211 c 0.426 -0.277 0.527 -0.203 0.348 0.258 c -0.078 0.211 -0.242 0.359 -0.398 0.359 c -0.289 0 -0.699 0.621 -0.527 0.773 c 0.063 0.059 0.195 -0.027 0.324 -0.199 c 0.25 -0.367 0.457 -0.391 0.457 -0.063 c 0 0.34 -0.531 0.629 -0.77 0.43 c -0.141 -0.113 -0.266 -0.113 -0.48 -0.008 c -0.305 0.164 -0.363 0.352 -0.145 0.48 c 0.344 0.203 0.117 0.371 -0.41 0.305 c -0.391 -0.055 -0.566 -0.016 -0.621 0.121 c -0.078 0.199 -0.504 0.27 -0.504 0.09 m 13.824 -0.023 c 0.063 -0.172 0.25 -0.199 0.273 -0.043 c 0.004 0.055 -0.07 0.129 -0.156 0.148 c -0.094 0.031 -0.141 -0.016 -0.117 -0.105 m -11.141 -0.23 c -0.395 -0.148 -0.164 -0.414 0.352 -0.383 c 0.695 0.039 0.699 0.043 0.391 0.27 c -0.277 0.207 -0.438 0.227 -0.742 0.113 m -2.77 -0.641 c -0.043 -0.113 -0.035 -0.27 0.016 -0.355 c 0.051 -0.086 0.02 -0.227 -0.07 -0.336 c -0.125 -0.145 -0.082 -0.238 0.199 -0.422 c 0.195 -0.129 0.457 -0.191 0.578 -0.137 c 0.32 0.113 0.176 0.547 -0.199 0.59 c -0.262 0.039 -0.309 0.105 -0.238 0.371 c 0.094 0.355 -0.156 0.602 -0.281 0.281 m -0.617 -0.676 c 0 -0.117 0.063 -0.215 0.145 -0.215 c 0.07 0 0.141 0.059 0.141 0.129 c 0 0.078 -0.07 0.164 -0.141 0.211 c -0.078 0.047 -0.145 -0.012 -0.145 -0.125 m 4.066 0.063 c 0.035 -0.09 0.098 -0.16 0.156 -0.152 c 0.164 0.02 0.137 0.199 -0.047 0.258 c -0.094 0.027 -0.141 -0.016 -0.113 -0.113 m 0.543 -0.133 c 0 -0.074 0.188 -0.156 0.418 -0.203 c 0.473 -0.102 0.566 -0.461 0.152 -0.566 c -0.148 -0.039 -0.344 -0.258 -0.445 -0.48 c -0.145 -0.344 -0.137 -0.43 0.039 -0.563 c 0.117 -0.078 0.289 -0.285 0.379 -0.453 c 0.223 -0.418 0.363 -0.383 0.715 0.168 c 0.168 0.258 0.371 0.434 0.445 0.387 c 0.082 -0.047 0.117 0.031 0.086 0.168 c -0.031 0.145 -0.195 0.313 -0.363 0.387 c -0.238 0.105 -0.301 0.215 -0.246 0.48 c 0.039 0.191 -0.004 0.426 -0.098 0.535 c -0.184 0.219 -1.078 0.332 -1.078 0.141 m -3.406 -1.047 c -0.156 -0.152 -0.105 -0.305 0.121 -0.305 c 0.113 0 0.207 0.086 0.207 0.195 c 0 0.211 -0.168 0.27 -0.328 0.117 m 0.883 -0.59 c 0 -0.406 0.336 -0.574 0.461 -0.238 c 0.051 0.141 0.098 0.141 0.254 0 c 0.207 -0.191 0.824 -0.23 0.824 -0.063 c 0 0.07 0.109 0.105 0.246 0.102 c 0.133 -0.008 0.246 0.047 0.246 0.133 c 0 0.074 -0.141 0.121 -0.316 0.09 c -0.172 -0.023 -0.352 0.039 -0.387 0.141 c -0.039 0.105 -0.328 0.195 -0.691 0.199 c -0.602 0.031 -0.625 0.023 -0.625 -0.367 m 7.949 -0.141 c 0 -0.168 0.281 -0.168 0.555 0 c 0.16 0.102 0.121 0.141 -0.176 0.145 c -0.215 0 -0.379 -0.059 -0.379 -0.145 m -3.559 -0.133 c -0.051 -0.078 -0.047 -0.27 0.004 -0.426 c 0.078 -0.23 0.047 -0.277 -0.129 -0.203 c -0.156 0.059 -0.23 0.012 -0.23 -0.156 c 0 -0.332 -0.148 -0.449 -0.359 -0.277 c -0.195 0.156 -0.473 0.059 -0.473 -0.156 c 0 -0.074 0.09 -0.133 0.195 -0.133 c 0.129 0 0.188 -0.141 0.176 -0.43 c -0.035 -0.633 0.27 -0.613 0.582 0.047 c 0.465 0.965 0.535 1.035 0.777 0.723 c 0.16 -0.211 0.238 -0.238 0.371 -0.105 c 0.141 0.125 0.125 0.18 -0.055 0.246 c -0.297 0.113 -0.313 0.738 -0.027 0.738 c 0.113 0 0.207 -0.09 0.207 -0.203 c 0 -0.141 0.133 -0.195 0.449 -0.164 c 0.332 0.023 0.461 -0.031 0.496 -0.199 c 0.043 -0.18 -0.035 -0.238 -0.297 -0.238 c -0.336 0 -0.34 -0.012 -0.137 -0.406 c 0.254 -0.5 0.605 -0.539 0.605 -0.07 c 0 0.402 0.109 0.422 0.367 0.094 c 0.164 -0.199 0.18 -0.191 0.188 0.211 c 0.004 0.355 0.055 0.445 0.25 0.41 c 0.164 -0.031 0.242 -0.18 0.254 -0.469 c 0.004 -0.227 0.145 -0.59 0.316 -0.816 c 0.172 -0.238 0.305 -0.488 0.305 -0.574 c 0 -0.203 0.117 -0.184 0.402 0.09 c 0.656 0.625 1.207 2.398 0.789 2.551 c -0.109 0.047 -0.391 -0.051 -0.613 -0.207 c -0.227 -0.152 -0.508 -0.277 -0.633 -0.277 c -0.133 0 -0.23 -0.098 -0.23 -0.211 c 0 -0.293 -0.258 -0.102 -0.422 0.301 c -0.125 0.316 -0.191 0.34 -0.957 0.289 c -0.457 -0.02 -0.871 0 -0.93 0.059 c -0.156 0.148 -1.137 0.129 -1.25 -0.031 m -2.352 -0.699 c -0.098 -0.363 -0.102 -0.363 0.359 -0.277 c 0.422 0.074 0.527 0.367 0.164 0.496 c -0.359 0.137 -0.438 0.102 -0.523 -0.219 m -0.648 -2.508 c 0 -0.238 0.051 -0.438 0.141 -0.438 c 0.164 0 0.164 0.234 0 0.609 c -0.102 0.223 -0.137 0.199 -0.141 -0.172" fill="#b91717"/></g></g></g></svg>