<svg xmlns="http://www.w3.org/2000/svg" viewBox="0 0 48 48"><path d="m 8.461 40.19 c 19.348 24.355 54.28 -11.301 31.961 -32.852 c -19.2 -21.598 -56.47 12.11 -31.961 32.852" fill="#ffd600"/><g fill="#590000" fill-rule="evenodd"><path d="m 39.33 33.988 l -1.254 0.477 v -0.484"/><path d="m 9.66 33.984 l 1.254 0.473 v -0.473"/></g><path d="m 10.91 10.266 h 27.18 v 27.656 h -27.18"/><g fill="#ffc82d"><path d="m 10.906 29.914 v 4.547 h 27.18 v -4.547 m -9.582 0.73 h 0.363 v 2.387 l -0.32 0.691 h -1.098 l -0.367 -0.797 v -2.18 l 0.406 0.02 v 2.102 l 0.16 0.363 h 0.684 l 0.176 -0.375 m -11.125 -2.18 c 0.391 0 0.711 0.391 0.711 0.875 c 0 0.383 -0.203 0.723 -0.504 0.836 l 0.688 1.094 v 0.172 h -0.555 l -0.691 -1.191 h -0.332 v 1.191 h -0.414 v -2.957 c 0 0 0.742 -0.016 1.035 -0.016 c 0.023 -0.004 0.043 -0.004 0.063 -0.004 m 2.621 0.004 h 1.633 v 0.551 h -1.148 v 0.676 h 1.133 v 0.496 h -1.148 v 0.695 h 1.176 v 0.52 h -1.645 m 4.793 -2.934 l 0.508 0.633 v 1.738 l -0.461 0.578 h -1.371 v -2.902 m 8.488 -0.039 h 0.547 l -0.688 1.496 l 0.641 1.383 h -0.5 l -0.469 -1.016 l -0.473 1.02 h -0.465 l 0.648 -1.406 l -0.625 -1.438 l 0.48 0.027 l 0.438 0.945 m -14.438 -0.586 c -0.125 0 -0.246 0 -0.367 0 v 0.875 c 0.238 -0.008 0.504 0.016 0.734 -0.008 c 0.156 -0.031 0.273 -0.215 0.273 -0.434 c 0 -0.215 -0.117 -0.398 -0.273 -0.43 v -0.004 c -0.121 0 -0.246 0 -0.367 0 m 6.789 0.113 v 1.852 h 0.816 l 0.219 -0.277 v -1.313 l -0.199 -0.254" fill-opacity="0.502"/><path d="m 9.656 29.441 v 4.547 h 29.672 v -4.547 m -10.824 0.727 h 0.363 v 2.391 l -0.32 0.691 h -1.098 l -0.367 -0.801 v -2.176 l 0.406 0.016 v 2.105 l 0.16 0.363 h 0.684 l 0.176 -0.375 m -11.125 -2.18 c 0.391 0 0.711 0.391 0.711 0.871 c 0 0.387 -0.203 0.727 -0.504 0.836 l 0.688 1.094 v 0.172 h -0.555 l -0.691 -1.191 h -0.332 v 1.191 h -0.414 v -2.953 c 0 0 0.742 -0.016 1.035 -0.016 c 0.023 -0.004 0.043 -0.004 0.063 -0.004 m 2.621 0 h 1.633 v 0.555 h -1.148 v 0.672 h 1.133 v 0.496 h -1.148 v 0.699 h 1.176 v 0.516 h -1.645 m 4.793 -2.934 l 0.508 0.637 v 1.738 l -0.461 0.578 h -1.371 v -2.902 m 8.488 -0.039 h 0.547 l -0.688 1.492 l 0.641 1.387 h -0.5 l -0.469 -1.02 l -0.473 1.02 h -0.465 l 0.648 -1.406 l -0.625 -1.438 l 0.48 0.027 l 0.438 0.949 m -14.438 -0.59 c -0.125 0 -0.246 0.004 -0.367 0.004 v 0.875 c 0.238 -0.012 0.504 0.016 0.734 -0.008 c 0.156 -0.035 0.273 -0.219 0.273 -0.434 c 0 -0.215 -0.117 -0.398 -0.273 -0.43 v -0.004 c -0.121 -0.004 -0.246 -0.004 -0.367 -0.004 m 6.789 0.117 v 1.848 h 0.816 l 0.219 -0.273 v -1.316 l -0.199 -0.25"/></g><g fill="#fff" fill-rule="evenodd"><path d="m 33 15.684 c -1.297 0.063 -2.434 1.109 -2.867 2.637 c -0.004 -0.109 -0.016 -0.227 -0.031 -0.352 c -0.258 -1.934 -1.727 -2.055 -2.09 -2.055 c -0.051 0 -0.078 0 -0.078 0 h -8.641 l -0.02 1.738 h 3.285 v 5.664 h 1.75 v -5.688 h 3.473 c 0.023 -0.004 0.051 -0.008 0.078 -0.008 c 0.391 0 0.707 0.398 0.707 0.887 c 0 0.484 -0.313 0.875 -0.699 0.883 v 0.004 h -1.391 v -1.344 h -1.559 v 5.293 h 1.559 v -2.211 h 0.781 l 1.18 2.188 h 1.793 l -1.371 -2.531 c 0 0 0.738 -0.293 1.094 -1.207 c 0 0.02 0 0.035 0 0.055 c 0 2.129 1.348 3.871 3.047 3.953 v -1.824 c -0.895 -0.078 -1.586 -1.01 -1.586 -2.129 c 0 -1.121 0.691 -2.051 1.586 -2.129 m 0.238 -1.82 v 1.824 c 0.895 0.078 1.586 1.01 1.59 2.125 c 0 1.121 -0.695 2.051 -1.59 2.129 v 1.824 c 1.699 -0.078 3.047 -1.824 3.047 -3.953 c 0 -2.125 -1.348 -3.871 -3.047 -3.949 m -15.883 0.281 l -1.516 2.805 l -1.352 -2.793 l -1.77 0.027 l 3.152 5.875 l 1.527 -2.699 l 0.02 4.215 l 1.656 -0.016 l 0.008 -2.922 h 2.855 v -1.609 h -2.875 l -0.012 -2.883 m -6.352 0.422 l 0.012 6.902 l 1.641 0.023 l 0.012 -3.816 m 4.949 2.039 l -0.02 1.816 h 2.992 v -1.816"/><path d="m 29.449 24.555 c -0.762 0.004 -1.375 0.688 -1.375 1.656 v 0.43 c 0 0.965 0.613 1.648 1.375 1.652 v -0.684 c -0.359 -0.047 -0.641 -0.426 -0.641 -0.891 v -0.586 c 0 -0.461 0.281 -0.844 0.641 -0.891 m 0.152 -0.688 v 0.688 c 0.266 0.035 0.488 0.25 0.586 0.547 h 0.605 c -0.137 -0.707 -0.609 -1.156 -1.191 -1.234 m -10.465 0 v 0.496 c 0.121 0.008 0.223 0.055 0.309 0.148 c 0.09 0.098 0.137 0.23 0.137 0.398 h 0.66 c 0 -0.188 -0.031 -0.352 -0.094 -0.492 c -0.059 -0.137 -0.141 -0.254 -0.242 -0.344 c -0.102 -0.094 -0.223 -0.16 -0.363 -0.203 c -0.129 -0.039 -0.266 0 -0.406 -0.004 m -0.09 0 c -0.113 0.008 -0.23 -0.031 -0.352 0.012 c -0.141 0.047 -0.27 0.121 -0.383 0.219 c -0.113 0.094 -0.211 0.215 -0.285 0.363 c -0.07 0.141 -0.105 0.305 -0.105 0.492 c 0 0.211 0.043 0.379 0.129 0.508 c 0.09 0.121 0.199 0.223 0.328 0.297 c 0.133 0.078 0.273 0.141 0.43 0.188 c 0.082 0.023 0.164 0.051 0.238 0.074 v -0.668 c -0.012 -0.004 -0.027 -0.008 -0.039 -0.012 c -0.129 -0.055 -0.238 -0.117 -0.328 -0.188 c -0.09 -0.066 -0.133 -0.164 -0.133 -0.289 c 0 -0.078 0.02 -0.152 0.055 -0.211 c 0.035 -0.063 0.078 -0.113 0.133 -0.156 c 0.055 -0.043 0.117 -0.074 0.18 -0.098 c 0.047 -0.016 0.09 -0.027 0.133 -0.031 m 16.461 -0.5 l 0.012 0.73 h 0.73 v -0.73 m -14.879 0 v 3.738 h 0.672 v -3.738 m 9.828 0 h -0.68 v 3.738 h 0.68 m -9.711 -3.738 v 0.707 h 0.773 v -0.707 m 4.855 0 h -0.637 v 3.738 h 0.637 m -15.05 -3.738 v 3.738 h 0.652 v -3.738 m 7.078 0 v 0.73 h 0.75 v -0.73 m 12.656 0 v 0.719 h 0.711 v -0.719 m -9.152 0 h -0.676 v 3.738 h 0.66 v -3.738 m 10.01 0 h -0.691 v 3.738 h 0.691 m -2.52 -3.738 v 1.355 l -0.93 0.027 v 0.711 h 0.949 v 1.645 h 0.629 v -3.738 m -17.516 0 l -0.988 3.738 h 0.75 l 0.629 -2.867 l 0.309 1.398 h -0.488 l -0.16 0.625 h 0.828 l 0.191 0.844 h 0.711 l -1.039 -3.738 m 2.352 1.516 v 0.668 c 0.031 0.012 0.07 0.023 0.102 0.039 c 0.133 0.051 0.242 0.109 0.328 0.184 c 0.09 0.074 0.133 0.172 0.133 0.301 c 0 0.086 -0.02 0.156 -0.059 0.219 c -0.035 0.063 -0.082 0.113 -0.141 0.156 c -0.059 0.039 -0.121 0.066 -0.191 0.086 c -0.059 0.016 -0.117 0.027 -0.172 0.027 v 0.543 c 0 0 0.25 0.02 0.383 -0.02 c 0.145 -0.047 0.277 -0.117 0.395 -0.215 c 0.121 -0.098 0.223 -0.215 0.301 -0.359 c 0.078 -0.145 0.117 -0.316 0.117 -0.508 c 0 -0.211 -0.043 -0.383 -0.133 -0.512 c -0.09 -0.133 -0.199 -0.238 -0.332 -0.313 c -0.133 -0.082 -0.273 -0.145 -0.426 -0.191 c -0.109 -0.035 -0.207 -0.07 -0.305 -0.105 m 10.375 0.129 v 0.695 h 0.719 c -0.059 0.383 -0.313 0.676 -0.629 0.715 v 0.684 c 0.281 -0.035 0.539 -0.098 0.742 -0.316 v 0.254 h 0.488 v -1.445 c 0 -0.047 0.004 -0.098 0.004 -0.145 v -0.434 m -13.01 0.898 c 0 0.207 0.035 0.391 0.102 0.543 c 0.07 0.152 0.164 0.281 0.281 0.387 c 0.117 0.102 0.25 0.176 0.402 0.23 c 0.137 0.047 0.285 0.023 0.434 0.027 v -0.543 c 0 0 -0.281 -0.055 -0.383 -0.141 c -0.109 -0.098 -0.168 -0.266 -0.176 -0.504 m 7.02 0.406 l 0.031 0.051 v 0.73 h 1.227 v -0.781 m -13.266 0.039 v 0.742 h 1.25 v -0.742"/></g></svg>