<svg xmlns="http://www.w3.org/2000/svg" viewBox="0 0 48 48"><path d="m 8.211 8.02 c 19.66 -23.836 55.15 11.06 32.477 32.16 c -19.512 21.14 -57.38 -11.855 -32.477 -32.16" fill="#6c3"/><path d="m 36.449 9.785 c -2.777 0 -4.188 0.984 -5.293 2.348 c -1.105 1.367 -1.77 3.188 -2.527 4.754 c -0.512 1.047 -1.648 4.953 -2.695 8.637 c -0.523 1.84 -1.051 3.672 -1.539 5.199 c -0.492 1.523 -0.863 2.66 -1.43 3.539 c -0.938 1.441 -2.438 2.254 -3.949 2.254 c -0.535 0 -1.063 -0.102 -1.57 -0.297 c 1.793 2.566 5.934 6.727 10.77 -0.203 c 3.352 -4.805 4.473 -15.16 6.84 -19.05 c 3.01 -4.953 4.52 -3.785 4.879 -3.367 c 0.066 -0.406 0.105 -0.828 0.086 -1.234 c -0.031 -0.746 -0.219 -1.316 -0.648 -1.738 c -0.43 -0.426 -1.238 -0.836 -2.926 -0.836 m -22.605 4.367 c 0.715 0.832 1.289 1.887 1.637 3.133 c 0.77 2.781 0.922 6.234 1.094 9.277 c 0.086 1.523 0.176 2.938 0.316 4.047 c 0.145 1.109 0.418 1.934 0.5 2.059 c 0.457 0.707 1.047 0.977 1.629 0.977 c 0.578 0 1.168 -0.27 1.629 -0.977 c 0.121 -0.188 0.559 -1.223 0.996 -2.531 c -0.738 -0.316 -1.805 -2.09 -2.625 -8.871 c -0.477 -3.914 -3.258 -6.074 -5.176 -7.113 m -4.395 0.695 c -0.355 0.004 -0.652 0.105 -0.891 0.273 c -0.316 0.227 -0.59 0.59 -0.715 1.355 l -0.078 -0.012 c 0.051 2.086 1.391 3.465 1.391 3.465 c 0 0 0 -1.434 1.395 -2.152 c 0.75 -0.387 1.688 0.242 2.395 0.902 c -0.047 -0.211 -0.098 -0.414 -0.148 -0.605 c -0.566 -2.043 -1.922 -3.02 -2.973 -3.195 c -0.133 -0.02 -0.258 -0.031 -0.379 -0.031" fill="#fff"/></svg>