<svg xmlns="http://www.w3.org/2000/svg" viewBox="0 0 48 48"><path d="m 24.453 47.742 c -4.949 -0.383 -10.742 -2.758 -14.781 -6.06 c -4.91 -4.01 -8.5 -10.164 -9.469 -16.23 c -0.211 -1.328 -0.27 -4.395 -0.113 -5.758 c 0.66 -5.66 3.98 -11.285 8.828 -14.953 c 2.629 -1.992 6.109 -3.574 9.371 -4.27 c 8.496 -1.801 17.355 1.613 23.43 9.04 c 3.645 4.445 5.527 8.93 5.988 14.234 c 0.551 6.359 -1.953 13.176 -6.523 17.766 c -3.594 3.605 -8.406 5.898 -12.98 6.18 c -0.664 0.039 -1.477 0.094 -1.809 0.117 c -0.332 0.023 -1.203 -0.004 -1.941 -0.063" fill="#dcdcdc"/><path d="m 12.34 13.188 v 0.598 c 2.242 0.094 2.863 0.566 6.242 4.938 l 3.754 5.03 l -5.41 6.07 c -3.07 3.332 -3.242 3.457 -5 3.586 v 0.598 h 8.03 v -0.598 c -1.996 -0.129 -2.617 -0.379 -2.617 -1.102 c 0 -0.473 0.516 -1.258 1.793 -2.707 l 4.102 -4.652 l 3.273 4.402 c 1.141 1.539 1.758 2.609 1.758 3.082 c 0 0.566 -0.551 0.879 -1.723 0.91 c -0.137 0 -0.516 0.031 -0.93 0.063 v 0.598 h 10.238 v -0.598 c -1.828 -0.188 -2.344 -0.5 -3.828 -2.324 l -6.621 -8.617 l 5.04 -5.723 c 2.242 -2.453 2.93 -2.828 5.137 -2.957 v -0.598 h -8.203 v 0.598 c 1.859 0.063 2.414 0.285 2.414 1.01 c 0 0.473 -0.379 1.039 -1.383 2.168 l -3.895 4.34 l -1.445 -1.855 c -2.105 -2.672 -2.93 -4.02 -2.93 -4.719 c 0 -0.625 0.516 -0.879 1.652 -0.91 l 0.965 -0.031 v -0.598" fill="#2f4e4e"/></svg>