<svg xmlns="http://www.w3.org/2000/svg" viewBox="0 0 48 48"><path d="m 10.152 43.16 c 35.43 23.664 57.25 -51.801 11.449 -41.809 c -18.926 4.258 -30.414 30.957 -11.449 41.809" fill="#ed81ed"/><path d="m 12.82 37.08 c 0 -0.566 0.113 -0.813 0.418 -0.914 c 0.23 -0.074 1.34 -1.133 2.469 -2.348 c 1.184 -1.277 2.301 -2.277 2.633 -2.367 c 0.465 -0.121 0.582 -0.285 0.582 -0.809 c 0 -0.449 0.133 -0.699 0.418 -0.793 c 0.23 -0.078 1.355 -1.148 2.504 -2.387 c 2.848 -3.074 2.766 -3.078 6.102 0.375 c 1.418 1.469 2.531 2.805 2.531 3.043 c 0 0.258 0.207 0.473 0.543 0.563 c 0.832 0.215 5.563 5.211 5.563 5.875 v 0.535 h -5.676 c -4.844 0 -5.695 -0.051 -5.801 -0.336 c -0.07 -0.188 -0.25 -0.34 -0.406 -0.34 c -0.152 0 -0.336 0.152 -0.406 0.34 c -0.105 0.285 -0.957 0.336 -5.801 0.336 h -5.672 m -1.602 -1.73 c -0.078 -0.082 -0.145 -2.699 -0.145 -5.813 c 0 -5.59 0.008 -5.668 0.48 -5.973 l 0.477 -0.309 l -0.48 -0.406 c -0.48 -0.402 -0.484 -0.457 -0.426 -6.121 l 0.059 -5.715 l 0.801 -0.07 c 0.637 -0.055 0.824 0.023 0.934 0.379 c 0.074 0.242 1.109 1.41 2.301 2.594 c 1.191 1.184 2.227 2.41 2.305 2.727 c 0.109 0.449 0.277 0.578 0.754 0.578 c 0.418 0 0.66 0.141 0.75 0.43 c 0.074 0.238 1.129 1.426 2.348 2.637 c 2.953 2.934 2.953 2.891 0 5.828 c -1.219 1.211 -2.277 2.395 -2.348 2.633 c -0.09 0.293 -0.332 0.434 -0.75 0.434 c -0.477 0 -0.645 0.129 -0.754 0.574 c -0.078 0.32 -1.113 1.547 -2.305 2.727 c -1.191 1.184 -2.223 2.348 -2.297 2.586 c -0.094 0.309 -0.332 0.43 -0.844 0.43 c -0.391 0 -0.777 -0.066 -0.859 -0.148 m 5.523 -5.777 c 0 -0.461 -4.652 -5.43 -4.871 -5.203 c -0.191 0.199 -0.184 10.11 0.012 10.313 c 0.227 0.234 4.859 -4.637 4.859 -5.109 m 6.105 -6.371 c 0 -0.52 -4.613 -5.418 -4.863 -5.16 c -0.199 0.207 -0.199 10.113 0 10.32 c 0.25 0.258 4.863 -4.641 4.863 -5.16 m -6.105 0 c 0 -3.01 -0.07 -4.176 -0.25 -4.176 c -0.367 0 -3.891 3.781 -3.891 4.172 c 0 0.402 3.488 4.164 3.871 4.172 c 0.207 0.004 0.27 -0.977 0.27 -4.168 m 0 -6.371 c 0 -0.477 -4.633 -5.344 -4.859 -5.109 c -0.195 0.199 -0.203 10.11 -0.012 10.309 c 0.219 0.23 4.871 -4.738 4.871 -5.199 m 17.816 16.03 c -2.02 -2.105 -2.551 -2.793 -2.555 -3.285 c 0 -0.539 -0.07 -0.609 -0.496 -0.496 c -0.414 0.105 -0.926 -0.316 -3.051 -2.535 c -2.094 -2.188 -2.555 -2.785 -2.555 -3.328 c -0.004 -0.543 0.445 -1.141 2.449 -3.273 c 2.027 -2.156 2.559 -2.602 3.051 -2.574 c 0.508 0.027 0.602 -0.055 0.602 -0.551 c 0 -0.836 4.664 -5.801 5.449 -5.801 h 0.547 l 0.059 5.742 c 0.047 4.945 0.012 5.773 -0.273 5.938 c -0.184 0.105 -0.332 0.332 -0.332 0.508 c 0 0.172 0.148 0.402 0.332 0.508 c 0.285 0.164 0.32 0.992 0.273 5.934 c -0.074 7.156 0.113 6.984 -3.5 3.215 m -2.02 -4.563 c 0.07 -0.117 0.027 -0.277 -0.098 -0.352 c -0.121 -0.078 -0.219 0.016 -0.219 0.207 c 0 0.398 0.129 0.457 0.316 0.145 m 0 -9.93 c 0.07 -0.117 0.027 -0.277 -0.098 -0.355 c -0.121 -0.074 -0.219 0.02 -0.219 0.211 c 0 0.398 0.129 0.457 0.316 0.145 m -8.363 3.664 c -0.172 -0.074 -1.309 -1.184 -2.531 -2.473 c -1.223 -1.285 -2.336 -2.336 -2.473 -2.336 c -0.137 0 -0.25 -0.297 -0.25 -0.652 c 0 -0.512 -0.121 -0.688 -0.559 -0.801 c -0.305 -0.078 -1.566 -1.207 -2.801 -2.504 c -1.238 -1.301 -2.363 -2.363 -2.508 -2.363 c -0.172 0 -0.238 -0.301 -0.195 -0.848 l 0.066 -0.844 l 5.523 -0.063 c 5.438 -0.059 5.527 -0.051 5.902 0.43 l 0.383 0.492 l 0.332 -0.492 c 0.328 -0.484 0.402 -0.488 5.867 -0.43 l 5.539 0.063 l 0.066 0.844 c 0.043 0.547 -0.027 0.848 -0.195 0.848 c -0.145 0 -1.273 1.063 -2.508 2.363 c -1.234 1.297 -2.496 2.426 -2.805 2.504 c -0.438 0.113 -0.555 0.289 -0.555 0.801 c 0 0.355 -0.113 0.652 -0.25 0.652 c -0.137 0 -1.258 1.063 -2.492 2.359 c -2.137 2.246 -2.863 2.746 -3.563 2.449" fill="#e5e500"/><path d="m 12.82 37.08 c 0 -0.566 0.113 -0.813 0.418 -0.914 c 0.23 -0.074 1.34 -1.133 2.469 -2.348 c 1.184 -1.277 2.301 -2.277 2.633 -2.367 c 0.465 -0.121 0.582 -0.285 0.582 -0.809 c 0 -0.449 0.133 -0.699 0.418 -0.793 c 0.23 -0.078 1.355 -1.148 2.504 -2.387 c 2.848 -3.074 2.766 -3.078 6.102 0.375 c 1.418 1.469 2.531 2.805 2.531 3.043 c 0 0.258 0.207 0.473 0.543 0.563 c 0.832 0.215 5.563 5.211 5.563 5.875 v 0.535 h -5.676 c -4.844 0 -5.695 -0.051 -5.801 -0.336 c -0.07 -0.188 -0.25 -0.34 -0.406 -0.34 c -0.152 0 -0.336 0.152 -0.406 0.34 c -0.105 0.285 -0.957 0.336 -5.801 0.336 h -5.672 m -1.602 -1.73 c -0.078 -0.082 -0.145 -2.699 -0.145 -5.813 c 0 -5.59 0.008 -5.668 0.48 -5.973 l 0.477 -0.309 l -0.48 -0.406 c -0.48 -0.402 -0.484 -0.457 -0.426 -6.121 l 0.059 -5.715 l 0.801 -0.07 c 0.637 -0.055 0.824 0.023 0.934 0.379 c 0.074 0.242 1.109 1.41 2.301 2.594 c 1.191 1.184 2.227 2.41 2.305 2.727 c 0.109 0.449 0.277 0.578 0.754 0.578 c 0.418 0 0.66 0.141 0.75 0.43 c 0.074 0.238 1.129 1.426 2.348 2.637 c 2.953 2.934 2.953 2.891 0 5.828 c -1.219 1.211 -2.277 2.395 -2.348 2.633 c -0.09 0.293 -0.332 0.434 -0.75 0.434 c -0.477 0 -0.645 0.129 -0.754 0.574 c -0.078 0.32 -1.113 1.547 -2.305 2.727 c -1.191 1.184 -2.223 2.348 -2.297 2.586 c -0.094 0.309 -0.332 0.43 -0.844 0.43 c -0.391 0 -0.777 -0.066 -0.859 -0.148 m 5.523 -5.777 c 0 -0.461 -4.652 -5.43 -4.871 -5.203 c -0.191 0.199 -0.184 10.11 0.012 10.313 c 0.227 0.234 4.859 -4.637 4.859 -5.109 m 6.105 -6.371 c 0 -0.52 -4.613 -5.418 -4.863 -5.16 c -0.199 0.207 -0.199 10.113 0 10.32 c 0.25 0.258 4.863 -4.641 4.863 -5.16 m -6.105 0 c 0 -3.01 -0.07 -4.176 -0.25 -4.176 c -0.367 0 -3.891 3.781 -3.891 4.172 c 0 0.402 3.488 4.164 3.871 4.172 c 0.207 0.004 0.27 -0.977 0.27 -4.168 m 0 -6.371 c 0 -0.477 -4.633 -5.344 -4.859 -5.109 c -0.195 0.199 -0.203 10.11 -0.012 10.309 c 0.219 0.23 4.871 -4.738 4.871 -5.199 m 17.816 16.03 c -2.02 -2.105 -2.551 -2.793 -2.555 -3.285 c 0 -0.539 -0.07 -0.609 -0.496 -0.496 c -0.414 0.105 -0.926 -0.316 -3.051 -2.535 c -2.094 -2.188 -2.555 -2.785 -2.555 -3.328 c -0.004 -0.543 0.445 -1.141 2.449 -3.273 c 2.027 -2.156 2.559 -2.602 3.051 -2.574 c 0.508 0.027 0.602 -0.055 0.602 -0.551 c 0 -0.836 4.664 -5.801 5.449 -5.801 h 0.547 l 0.059 5.742 c 0.047 4.945 0.012 5.773 -0.273 5.938 c -0.184 0.105 -0.332 0.332 -0.332 0.508 c 0 0.172 0.148 0.402 0.332 0.508 c 0.285 0.164 0.32 0.992 0.273 5.934 c -0.074 7.156 0.113 6.984 -3.5 3.215 m -2.02 -4.563 c 0.07 -0.117 0.027 -0.277 -0.098 -0.352 c -0.121 -0.078 -0.219 0.016 -0.219 0.207 c 0 0.398 0.129 0.457 0.316 0.145 m 0 -9.93 c 0.07 -0.117 0.027 -0.277 -0.098 -0.355 c -0.121 -0.074 -0.219 0.02 -0.219 0.211 c 0 0.398 0.129 0.457 0.316 0.145 m -8.363 3.664 c -0.172 -0.074 -1.309 -1.184 -2.531 -2.473 c -1.223 -1.285 -2.336 -2.336 -2.473 -2.336 c -0.137 0 -0.25 -0.297 -0.25 -0.652 c 0 -0.512 -0.121 -0.688 -0.559 -0.801 c -0.305 -0.078 -1.566 -1.207 -2.801 -2.504 c -1.238 -1.301 -2.363 -2.363 -2.508 -2.363 c -0.172 0 -0.238 -0.301 -0.195 -0.848 l 0.066 -0.844 l 5.523 -0.063 c 5.438 -0.059 5.527 -0.051 5.902 0.43 l 0.383 0.492 l 0.332 -0.492 c 0.328 -0.484 0.402 -0.488 5.867 -0.43 l 5.539 0.063 l 0.066 0.844 c 0.043 0.547 -0.027 0.848 -0.195 0.848 c -0.145 0 -1.273 1.063 -2.508 2.363 c -1.234 1.297 -2.496 2.426 -2.805 2.504 c -0.438 0.113 -0.555 0.289 -0.555 0.801 c 0 0.355 -0.113 0.652 -0.25 0.652 c -0.137 0 -1.258 1.063 -2.492 2.359 c -2.137 2.246 -2.863 2.746 -3.563 2.449 m 3.352 -3.207 c 1.258 -1.285 2.238 -2.426 2.172 -2.535 c -0.145 -0.246 -9.836 -0.262 -9.984 -0.016 c -0.148 0.25 -0.086 0.32 2.527 2.941 c 1.754 1.758 2.41 2.285 2.66 2.141 c 0.184 -0.105 1.363 -1.246 2.625 -2.531 m -6.098 -6.328 c 1.352 -1.379 2.227 -2.43 2.109 -2.551 c -0.188 -0.191 -9.797 -0.293 -9.984 -0.102 c -0.203 0.211 0.32 0.84 2.559 3.051 c 1.742 1.723 2.445 2.277 2.684 2.141 c 0.18 -0.105 1.363 -1.246 2.633 -2.539 m 12.203 0.004 c 2.203 -2.242 2.563 -2.719 2.078 -2.734 c -3.305 -0.105 -9.703 0.035 -9.879 0.215 c -0.125 0.133 -0.184 0.266 -0.129 0.297 c 0.051 0.035 1.191 1.16 2.531 2.508 c 1.84 1.844 2.52 2.395 2.77 2.25 c 0.184 -0.105 1.367 -1.246 2.629 -2.535 m -4.895 2.188 c 0 -0.469 -3.555 -4.01 -4.02 -4.01 c -0.48 0 -4.04 3.527 -4.04 4 c 0 0.219 0.914 0.285 4.03 0.285 c 3.047 0 4.04 -0.066 4.04 -0.277" fill="#e56262"/><path d="m 12.82 37.08 c 0 -0.566 0.113 -0.813 0.418 -0.914 c 0.23 -0.074 1.34 -1.133 2.469 -2.348 c 1.184 -1.277 2.301 -2.277 2.633 -2.367 c 0.465 -0.121 0.582 -0.285 0.582 -0.809 c 0 -0.449 0.133 -0.699 0.418 -0.793 c 0.23 -0.078 1.355 -1.148 2.504 -2.387 c 2.848 -3.074 2.766 -3.078 6.102 0.375 c 1.418 1.469 2.531 2.805 2.531 3.043 c 0 0.258 0.207 0.473 0.543 0.563 c 0.832 0.215 5.563 5.211 5.563 5.875 v 0.535 h -5.676 c -4.844 0 -5.695 -0.051 -5.801 -0.336 c -0.07 -0.188 -0.25 -0.34 -0.406 -0.34 c -0.152 0 -0.336 0.152 -0.406 0.34 c -0.105 0.285 -0.957 0.336 -5.801 0.336 h -5.672 m 10.68 -0.66 c 0 -0.363 -4.621 -4.98 -4.984 -4.98 c -0.41 0 -4.824 4.488 -4.824 4.902 c 0 0.223 1.09 0.289 4.906 0.289 c 2.867 0 4.902 -0.09 4.902 -0.211 m 12.211 -0.078 c 0 -0.418 -4.414 -4.902 -4.824 -4.902 c -0.367 0 -4.988 4.617 -4.988 4.98 c 0 0.121 2.039 0.207 4.906 0.207 c 3.816 0 4.906 -0.063 4.906 -0.285 m -8.859 -2.551 c 1.039 -1.063 1.832 -2.027 1.766 -2.145 c -0.168 -0.273 -7.668 -0.273 -7.832 0.004 c -0.164 0.273 3.367 4 3.828 4.04 c 0.191 0.02 1.199 -0.836 2.238 -1.902 m 2.754 -3.766 c 0 -0.473 -4.434 -4.906 -4.906 -4.906 c -0.473 0 -4.902 4.434 -4.902 4.906 c 0 0.223 1.09 0.285 4.902 0.285 c 3.816 0 4.906 -0.063 4.906 -0.285 m -18.383 5.324 c -0.082 -0.082 -0.148 -2.699 -0.148 -5.813 c 0 -5.59 0.008 -5.668 0.48 -5.973 l 0.48 -0.309 l -0.484 -0.406 c -0.477 -0.402 -0.48 -0.457 -0.426 -6.121 l 0.059 -5.715 l 0.801 -0.07 c 0.637 -0.055 0.824 0.023 0.934 0.379 c 0.078 0.242 1.113 1.41 2.301 2.594 c 1.191 1.184 2.227 2.41 2.305 2.727 c 0.109 0.449 0.277 0.578 0.754 0.578 c 0.418 0 0.66 0.141 0.75 0.43 c 0.074 0.238 1.129 1.426 2.348 2.633 c 2.953 2.938 2.953 2.895 0 5.832 c -1.219 1.211 -2.273 2.395 -2.348 2.633 c -0.09 0.293 -0.332 0.434 -0.75 0.434 c -0.477 0 -0.645 0.129 -0.754 0.574 c -0.078 0.32 -1.113 1.547 -2.305 2.727 c -1.188 1.184 -2.223 2.348 -2.297 2.586 c -0.094 0.309 -0.332 0.43 -0.844 0.43 c -0.391 0 -0.777 -0.066 -0.855 -0.148 m 3.41 -3.172 c 1.746 -1.871 2.313 -2.617 2.18 -2.863 c -0.277 -0.512 -4.684 -5.098 -4.895 -5.098 c -0.105 0 -0.191 0.102 -0.195 0.223 c -0.004 0.125 -0.008 2.41 -0.008 5.078 c 0 2.672 0.004 4.961 0.008 5.094 c 0.016 0.527 0.645 0 2.91 -2.434 m 5.859 -6.06 c 1.234 -1.316 2.328 -2.539 2.426 -2.719 c 0.129 -0.238 -0.469 -1.02 -2.18 -2.859 c -2.266 -2.426 -2.898 -2.957 -2.91 -2.434 c 0 0.133 -0.004 2.426 -0.004 5.094 c 0 2.672 0.004 4.957 0.004 5.078 c 0.012 0.523 0.535 0.098 2.664 -2.164 m -3.75 -2.91 c 0 -3.152 -0.063 -4.176 -0.266 -4.176 c -0.457 0 -3.875 3.676 -3.875 4.164 c 0 0.496 3.406 4.184 3.863 4.184 c 0.215 0 0.277 -0.945 0.277 -4.172 m -2.375 -3.398 c 1.242 -1.309 2.344 -2.531 2.445 -2.719 c 0.133 -0.246 -0.434 -0.992 -2.18 -2.863 c -2.266 -2.434 -2.895 -2.961 -2.91 -2.438 c -0.004 0.137 -0.008 2.426 -0.008 5.098 c 0 2.668 0.004 4.953 0.008 5.078 c 0.016 0.5 0.48 0.121 2.645 -2.156 m 20.19 13.05 c -2.02 -2.105 -2.551 -2.793 -2.551 -3.285 c -0.004 -0.539 -0.074 -0.609 -0.5 -0.496 c -0.414 0.105 -0.922 -0.316 -3.051 -2.535 c -2.094 -2.188 -2.551 -2.785 -2.555 -3.328 c 0 -0.547 0.445 -1.145 2.449 -3.273 c 2.027 -2.156 2.559 -2.602 3.055 -2.574 c 0.508 0.027 0.598 -0.055 0.598 -0.551 c 0 -0.836 4.664 -5.801 5.449 -5.801 h 0.547 l 0.059 5.742 c 0.051 4.941 0.012 5.77 -0.273 5.938 c -0.18 0.105 -0.332 0.332 -0.332 0.508 c 0 0.172 0.152 0.402 0.332 0.508 c 0.285 0.164 0.324 0.992 0.273 5.934 c -0.074 7.152 0.113 6.984 -3.5 3.215 m -2.02 -4.566 c 0.07 -0.113 0.027 -0.273 -0.094 -0.352 c -0.121 -0.078 -0.223 0.02 -0.223 0.211 c 0 0.398 0.133 0.457 0.316 0.141 m 0 -9.93 c 0.07 -0.113 0.027 -0.273 -0.094 -0.352 c -0.121 -0.078 -0.223 0.016 -0.223 0.211 c 0 0.398 0.133 0.457 0.316 0.141 m -8.363 3.664 c -0.168 -0.07 -1.309 -1.18 -2.531 -2.469 c -1.223 -1.285 -2.336 -2.34 -2.473 -2.34 c -0.137 0 -0.25 -0.293 -0.25 -0.652 c 0 -0.512 -0.117 -0.684 -0.555 -0.797 c -0.309 -0.078 -1.57 -1.207 -2.805 -2.508 c -1.234 -1.297 -2.363 -2.359 -2.508 -2.359 c -0.168 0 -0.238 -0.301 -0.195 -0.848 l 0.07 -0.848 l 5.52 -0.059 c 5.438 -0.059 5.527 -0.055 5.902 0.43 l 0.387 0.488 l 0.332 -0.488 c 0.324 -0.484 0.398 -0.488 5.867 -0.43 l 5.535 0.059 l 0.066 0.848 c 0.043 0.547 -0.023 0.848 -0.191 0.848 c -0.145 0 -1.273 1.063 -2.508 2.359 c -1.238 1.301 -2.5 2.43 -2.805 2.508 c -0.438 0.113 -0.559 0.285 -0.559 0.797 c 0 0.359 -0.109 0.652 -0.246 0.652 c -0.137 0 -1.262 1.066 -2.496 2.363 c -2.133 2.246 -2.859 2.742 -3.559 2.445 m 3.348 -3.203 c 1.262 -1.285 2.238 -2.426 2.176 -2.535 c -0.148 -0.246 -9.836 -0.262 -9.984 -0.016 c -0.148 0.25 -0.09 0.32 2.523 2.941 c 1.754 1.758 2.41 2.285 2.66 2.141 c 0.184 -0.105 1.363 -1.246 2.625 -2.531 m -6.098 -6.328 c 1.355 -1.379 2.227 -2.43 2.113 -2.551 c -0.188 -0.195 -9.801 -0.293 -9.984 -0.105 c -0.207 0.215 0.32 0.84 2.559 3.055 c 1.742 1.719 2.441 2.277 2.684 2.141 c 0.18 -0.105 1.363 -1.246 2.629 -2.539 m 12.207 0.004 c 2.199 -2.242 2.559 -2.719 2.078 -2.734 c -3.305 -0.105 -9.703 0.035 -9.879 0.215 c -0.129 0.129 -0.188 0.266 -0.133 0.297 c 0.055 0.035 1.195 1.16 2.535 2.504 c 1.84 1.848 2.516 2.398 2.77 2.254 c 0.184 -0.105 1.367 -1.246 2.629 -2.535 m -4.898 2.188 c 0 -0.473 -3.551 -4.01 -4.02 -4.01 c -0.48 0 -4.04 3.527 -4.04 4 c 0 0.223 0.914 0.289 4.03 0.289 c 3.047 0 4.04 -0.07 4.04 -0.277" fill="#00e400"/><path d="m 12.82 37.08 c 0 -0.566 0.113 -0.813 0.418 -0.914 c 0.23 -0.074 1.34 -1.133 2.469 -2.348 c 1.184 -1.277 2.301 -2.277 2.633 -2.367 c 0.465 -0.121 0.582 -0.285 0.582 -0.809 c 0 -0.449 0.133 -0.699 0.418 -0.793 c 0.23 -0.078 1.355 -1.148 2.504 -2.387 c 2.848 -3.074 2.766 -3.078 6.102 0.375 c 1.418 1.469 2.531 2.805 2.531 3.043 c 0 0.258 0.207 0.473 0.543 0.563 c 0.832 0.215 5.563 5.211 5.563 5.875 v 0.535 h -5.676 c -4.844 0 -5.695 -0.051 -5.801 -0.336 c -0.07 -0.188 -0.25 -0.34 -0.406 -0.34 c -0.152 0 -0.336 0.152 -0.406 0.34 c -0.105 0.285 -0.957 0.336 -5.801 0.336 h -5.672 m 10.68 -0.66 c 0 -0.363 -4.621 -4.98 -4.984 -4.98 c -0.41 0 -4.824 4.488 -4.824 4.902 c 0 0.223 1.09 0.289 4.906 0.289 c 2.867 0 4.902 -0.09 4.902 -0.211 m 12.211 -0.078 c 0 -0.418 -4.414 -4.902 -4.824 -4.902 c -0.367 0 -4.988 4.617 -4.988 4.98 c 0 0.121 2.039 0.207 4.906 0.207 c 3.816 0 4.906 -0.063 4.906 -0.285 m -8.859 -2.551 c 1.039 -1.063 1.832 -2.027 1.766 -2.145 c -0.168 -0.273 -7.668 -0.273 -7.832 0.004 c -0.164 0.273 3.367 4 3.828 4.04 c 0.191 0.02 1.199 -0.836 2.238 -1.902 m 2.754 -3.766 c 0 -0.473 -4.434 -4.906 -4.906 -4.906 c -0.473 0 -4.902 4.434 -4.902 4.906 c 0 0.223 1.09 0.285 4.902 0.285 c 3.816 0 4.906 -0.063 4.906 -0.285 m -18.383 5.324 c -0.082 -0.082 -0.148 -2.699 -0.148 -5.813 c 0 -5.59 0.008 -5.668 0.48 -5.973 l 0.48 -0.309 l -0.484 -0.406 c -0.477 -0.402 -0.48 -0.457 -0.426 -6.121 l 0.059 -5.715 l 0.801 -0.07 c 0.637 -0.055 0.824 0.023 0.934 0.379 c 0.078 0.242 1.113 1.41 2.301 2.594 c 1.191 1.184 2.227 2.41 2.305 2.727 c 0.109 0.449 0.277 0.578 0.754 0.578 c 0.418 0 0.66 0.141 0.75 0.43 c 0.074 0.238 1.129 1.426 2.348 2.633 c 2.953 2.938 2.953 2.895 0 5.832 c -1.219 1.211 -2.273 2.395 -2.348 2.633 c -0.09 0.293 -0.332 0.434 -0.75 0.434 c -0.477 0 -0.645 0.129 -0.754 0.574 c -0.078 0.32 -1.113 1.547 -2.305 2.727 c -1.188 1.184 -2.223 2.348 -2.297 2.586 c -0.094 0.309 -0.332 0.43 -0.844 0.43 c -0.391 0 -0.777 -0.066 -0.855 -0.148 m 3.41 -3.172 c 1.746 -1.871 2.313 -2.617 2.18 -2.863 c -0.277 -0.512 -4.684 -5.098 -4.895 -5.098 c -0.105 0 -0.191 0.102 -0.195 0.223 c -0.004 0.125 -0.008 2.41 -0.008 5.078 c 0 2.672 0.004 4.961 0.008 5.094 c 0.016 0.527 0.645 0 2.91 -2.434 m 5.859 -6.06 c 1.234 -1.316 2.328 -2.539 2.426 -2.719 c 0.129 -0.238 -0.469 -1.02 -2.18 -2.859 c -2.266 -2.426 -2.898 -2.957 -2.91 -2.434 c 0 0.133 -0.004 2.426 -0.004 5.094 c 0 2.672 0.004 4.957 0.004 5.078 c 0.012 0.523 0.535 0.098 2.664 -2.164 m -3.75 -2.91 c 0 -3.152 -0.063 -4.176 -0.266 -4.176 c -0.457 0 -3.875 3.676 -3.875 4.164 c 0 0.496 3.406 4.184 3.863 4.184 c 0.215 0 0.277 -0.945 0.277 -4.172 m -2.375 -3.398 c 1.242 -1.309 2.344 -2.531 2.445 -2.719 c 0.133 -0.246 -0.434 -0.992 -2.18 -2.863 c -2.266 -2.434 -2.895 -2.961 -2.91 -2.438 c -0.004 0.137 -0.008 2.426 -0.008 5.098 c 0 2.668 0.004 4.953 0.008 5.078 c 0.016 0.5 0.48 0.121 2.645 -2.156 m 20.19 13.05 c -2.02 -2.105 -2.551 -2.793 -2.551 -3.285 c -0.004 -0.539 -0.074 -0.609 -0.5 -0.496 c -0.414 0.105 -0.922 -0.316 -3.051 -2.535 c -2.094 -2.188 -2.551 -2.785 -2.555 -3.328 c 0 -0.547 0.445 -1.145 2.449 -3.273 c 2.027 -2.156 2.559 -2.602 3.055 -2.574 c 0.508 0.027 0.598 -0.055 0.598 -0.551 c 0 -0.836 4.664 -5.801 5.449 -5.801 h 0.547 l 0.059 5.742 c 0.051 4.941 0.012 5.77 -0.273 5.938 c -0.18 0.105 -0.332 0.332 -0.332 0.508 c 0 0.172 0.152 0.402 0.332 0.508 c 0.285 0.164 0.324 0.992 0.273 5.934 c -0.074 7.152 0.113 6.984 -3.5 3.215 m 3.113 -3.34 c 0 -2.793 -0.082 -5.078 -0.188 -5.078 c -0.344 0 -4.824 4.789 -4.824 5.156 c 0 0.43 4.332 5 4.738 5 c 0.215 0 0.273 -1.129 0.273 -5.078 m -5.133 -1.227 c 0.07 -0.113 0.027 -0.273 -0.094 -0.352 c -0.121 -0.078 -0.223 0.02 -0.223 0.211 c 0 0.398 0.133 0.457 0.316 0.141 m -0.969 -5.09 c 0 -3.953 -0.063 -5.078 -0.277 -5.078 c -0.457 0 -4.738 4.586 -4.738 5.078 c 0 0.488 4.281 5.074 4.738 5.074 c 0.215 0 0.277 -1.125 0.277 -5.074 m 3.352 2.227 c 1.031 -1.07 1.879 -2.074 1.879 -2.227 c 0 -0.395 -3.711 -4.199 -3.949 -4.047 c -0.105 0.066 -0.191 1.875 -0.191 4.02 c 0 3.328 0.066 4.199 0.332 4.199 c 0.027 0 0.895 -0.875 1.926 -1.945 m 2.754 -8.547 c 0 -3.949 -0.059 -5.078 -0.273 -5.078 c -0.41 0 -4.738 4.57 -4.738 5 c 0 0.414 4.316 5.078 4.742 5.125 c 0.211 0.023 0.27 -1.121 0.27 -5.05 m -5.133 1.48 c 0.07 -0.113 0.027 -0.273 -0.094 -0.352 c -0.121 -0.078 -0.223 0.016 -0.223 0.211 c 0 0.398 0.133 0.457 0.316 0.141 m -8.363 3.664 c -0.168 -0.07 -1.309 -1.18 -2.531 -2.469 c -1.223 -1.285 -2.336 -2.34 -2.473 -2.34 c -0.137 0 -0.25 -0.293 -0.25 -0.652 c 0 -0.512 -0.117 -0.684 -0.555 -0.797 c -0.309 -0.078 -1.57 -1.207 -2.805 -2.508 c -1.234 -1.297 -2.363 -2.359 -2.508 -2.359 c -0.168 0 -0.238 -0.301 -0.195 -0.848 l 0.07 -0.848 l 5.52 -0.059 c 5.438 -0.059 5.527 -0.055 5.902 0.43 l 0.387 0.488 l 0.332 -0.488 c 0.324 -0.484 0.398 -0.488 5.867 -0.43 l 5.535 0.059 l 0.066 0.848 c 0.043 0.547 -0.023 0.848 -0.191 0.848 c -0.145 0 -1.273 1.063 -2.508 2.359 c -1.238 1.301 -2.5 2.43 -2.805 2.508 c -0.438 0.113 -0.559 0.285 -0.559 0.797 c 0 0.359 -0.109 0.652 -0.246 0.652 c -0.137 0 -1.262 1.066 -2.496 2.363 c -2.133 2.246 -2.859 2.742 -3.559 2.445 m 3.348 -3.203 c 1.262 -1.285 2.238 -2.426 2.176 -2.535 c -0.148 -0.246 -9.836 -0.262 -9.984 -0.016 c -0.148 0.25 -0.09 0.32 2.523 2.941 c 1.754 1.758 2.41 2.285 2.66 2.141 c 0.184 -0.105 1.363 -1.246 2.625 -2.531 m -6.098 -6.328 c 1.355 -1.379 2.227 -2.43 2.113 -2.551 c -0.188 -0.195 -9.801 -0.293 -9.984 -0.105 c -0.207 0.215 0.32 0.84 2.559 3.055 c 1.742 1.719 2.441 2.277 2.684 2.141 c 0.18 -0.105 1.363 -1.246 2.629 -2.539 m 12.207 0.004 c 2.199 -2.242 2.559 -2.719 2.078 -2.734 c -3.305 -0.105 -9.703 0.035 -9.879 0.215 c -0.129 0.129 -0.188 0.266 -0.133 0.297 c 0.055 0.035 1.195 1.16 2.535 2.504 c 1.84 1.848 2.516 2.398 2.77 2.254 c 0.184 -0.105 1.367 -1.246 2.629 -2.535 m -4.898 2.188 c 0 -0.473 -3.551 -4.01 -4.02 -4.01 c -0.48 0 -4.04 3.527 -4.04 4 c 0 0.223 0.914 0.289 4.03 0.289 c 3.047 0 4.04 -0.07 4.04 -0.277" fill="#5f2626"/><path d="m 12.82 37.08 c 0 -0.734 -0.047 -0.777 -0.82 -0.844 l -0.816 -0.07 l -0.059 -5.719 c -0.055 -5.629 -0.051 -5.719 0.418 -6.109 l 0.473 -0.398 l -0.473 -0.344 c -0.469 -0.34 -0.473 -0.414 -0.418 -6.074 l 0.059 -5.73 l 0.805 -0.07 c 0.758 -0.063 0.809 -0.117 0.875 -0.902 l 0.066 -0.832 l 5.52 -0.059 c 5.438 -0.063 5.527 -0.055 5.902 0.43 l 0.387 0.488 l 0.328 -0.488 c 0.328 -0.484 0.402 -0.492 5.871 -0.43 l 5.535 0.059 l 0.066 0.848 c 0.043 0.547 -0.023 0.844 -0.195 0.844 c -0.141 0 -1.27 1.063 -2.508 2.363 c -1.234 1.301 -2.496 2.426 -2.801 2.508 c -0.438 0.113 -0.559 0.285 -0.559 0.797 c 0 0.359 -0.113 0.652 -0.25 0.652 c -0.137 0 -1.281 1.086 -2.543 2.414 c -3.047 3.203 -2.922 3.203 -5.969 0 c -1.262 -1.328 -2.41 -2.414 -2.543 -2.414 c -0.609 0 -0.094 0.723 2.082 2.934 c 1.949 1.973 2.332 2.477 2.332 3.047 c 0 0.57 -0.387 1.074 -2.332 3.051 c -1.281 1.301 -2.332 2.492 -2.332 2.648 c 0 0.652 0.668 0.152 2.789 -2.086 c 3.03 -3.203 2.891 -3.207 6.234 0.25 c 1.418 1.469 2.531 2.809 2.531 3.043 c 0 0.262 0.207 0.473 0.543 0.563 c 0.828 0.215 5.563 5.211 5.563 5.875 c 0 0.344 -0.129 0.535 -0.355 0.535 c -0.285 0 -0.301 -0.063 -0.09 -0.324 c 0.348 -0.438 0.277 -0.535 -2.512 -3.344 c -2.508 -2.523 -2.988 -2.781 -3.695 -1.973 c -0.371 0.426 -0.422 0.43 -0.793 0.082 c -0.594 -0.559 -8.281 -0.559 -8.875 0 c -0.371 0.348 -0.422 0.344 -0.793 -0.082 c -0.707 -0.809 -1.188 -0.551 -3.695 1.973 c -2.789 2.809 -2.859 2.906 -2.512 3.344 c 0.211 0.262 0.195 0.324 -0.09 0.324 c -0.258 0 -0.355 -0.211 -0.355 -0.773 m 2.766 -3.148 c 1.219 -1.285 2.469 -2.406 2.777 -2.484 c 0.449 -0.117 0.563 -0.285 0.563 -0.82 c 0 -0.59 -0.074 -0.672 -0.629 -0.672 c -0.488 0 -0.66 0.125 -0.766 0.555 c -0.074 0.309 -1.164 1.602 -2.422 2.879 c -1.258 1.277 -2.285 2.449 -2.285 2.602 c 0 0.652 0.668 0.156 2.762 -2.055 m -0.91 -0.539 c 1.43 -1.52 2.504 -2.84 2.504 -3.09 c 0.004 -0.238 -0.195 -0.652 -0.434 -0.922 l -0.441 -0.484 l 0.441 -0.41 c 0.406 -0.383 0.438 -0.688 0.438 -4.48 c 0 -3.77 -0.031 -4.105 -0.438 -4.555 l -0.441 -0.484 l 0.441 -0.41 c 0.797 -0.75 0.539 -1.242 -2.102 -4.047 c -2.063 -2.184 -2.602 -2.645 -2.887 -2.457 c -0.305 0.199 -0.359 0.949 -0.41 5.559 c -0.055 5.137 -0.043 5.344 0.383 5.617 c 0.563 0.363 0.566 1.113 0.004 1.477 c -0.418 0.27 -0.438 0.527 -0.438 5.539 c 0 5.125 0.082 5.797 0.699 5.797 c 0.098 0 1.305 -1.191 2.68 -2.648 m 15.398 -2.379 c 0.266 -0.484 -4.629 -5.465 -5.371 -5.465 c -0.355 0 -1.27 0.77 -3.03 2.559 c -2.01 2.039 -2.484 2.633 -2.328 2.934 c 0.172 0.336 0.742 0.371 5.367 0.348 c 4.418 -0.023 5.203 -0.078 5.363 -0.375 m -9.293 -3.941 c 1.5 -1.594 2.5 -2.832 2.5 -3.102 c 0 -0.273 -1.012 -1.523 -2.535 -3.141 c -2.063 -2.184 -2.602 -2.645 -2.887 -2.457 c -0.301 0.199 -0.355 0.941 -0.406 5.48 c -0.059 5.121 0.023 5.871 0.633 5.871 c 0.105 0 1.316 -1.191 2.695 -2.652 m 6.922 -7.191 c 1.926 -1.977 2.508 -2.707 2.367 -2.965 c -0.277 -0.512 -10.457 -0.512 -10.734 0 c -0.242 0.449 4.695 5.586 5.367 5.586 c 0.277 0 1.418 -0.996 3 -2.621 m -8.773 -2.543 c 0 -0.512 -0.121 -0.684 -0.559 -0.801 c -0.309 -0.078 -1.57 -1.207 -2.805 -2.504 c -1.234 -1.301 -2.355 -2.363 -2.492 -2.363 c -0.605 0 -0.098 0.719 2.035 2.883 c 1.258 1.277 2.348 2.574 2.422 2.879 c 0.105 0.43 0.277 0.559 0.766 0.559 c 0.551 0 0.633 -0.086 0.633 -0.656 m 0.543 -1.605 c 0.371 -0.422 0.426 -0.426 0.797 -0.078 c 0.594 0.555 8.277 0.555 8.871 0 c 0.371 -0.348 0.426 -0.344 0.797 0.078 c 0.73 0.836 1.203 0.574 3.875 -2.172 c 1.406 -1.441 2.555 -2.691 2.555 -2.773 c 0 -0.605 -0.707 -0.691 -5.594 -0.691 c -4.848 0 -5.082 0.02 -5.305 0.449 c -0.137 0.262 -0.457 0.453 -0.762 0.453 c -0.309 0 -0.629 -0.191 -0.766 -0.453 c -0.223 -0.43 -0.457 -0.449 -5.305 -0.449 c -4.887 0 -5.594 0.086 -5.594 0.691 c 0 0.082 1.148 1.332 2.555 2.773 c 2.672 2.746 3.145 3.01 3.879 2.172 m 4.465 21.668 c 0.137 -0.258 0.457 -0.449 0.762 -0.449 c 0.309 0 0.629 0.191 0.766 0.449 c 0.164 0.32 0.164 0.453 0 0.453 c -0.129 0 -0.289 -0.152 -0.359 -0.34 c -0.066 -0.184 -0.25 -0.336 -0.406 -0.336 c -0.152 0 -0.336 0.152 -0.402 0.336 c -0.07 0.188 -0.23 0.34 -0.359 0.34 c -0.164 0 -0.164 -0.133 0 -0.453 m 10.621 -3.77 c -2.02 -2.105 -2.551 -2.793 -2.551 -3.285 c -0.004 -0.539 -0.074 -0.609 -0.5 -0.496 c -0.414 0.105 -0.926 -0.316 -3.051 -2.535 c -2.094 -2.184 -2.555 -2.781 -2.555 -3.328 c -0.004 -0.543 0.445 -1.141 2.449 -3.273 c 2.027 -2.156 2.559 -2.602 3.055 -2.574 c 0.508 0.027 0.598 -0.055 0.598 -0.551 c 0 -0.836 4.664 -5.801 5.449 -5.801 h 0.547 l 0.059 5.742 c 0.051 4.945 0.012 5.773 -0.273 5.938 c -0.184 0.105 -0.332 0.332 -0.332 0.508 c 0 0.172 0.148 0.402 0.332 0.508 c 0.285 0.164 0.324 0.992 0.273 5.934 c -0.074 7.156 0.113 6.984 -3.5 3.215 m 3.113 -3.336 c 0 -2.793 -0.082 -5.078 -0.188 -5.078 c -0.344 0 -4.824 4.785 -4.824 5.156 c 0 0.426 4.328 4.996 4.734 4.996 c 0.215 0 0.277 -1.125 0.277 -5.078 m -5.133 -1.223 c 0.07 -0.117 0.027 -0.273 -0.094 -0.352 c -0.125 -0.078 -0.223 0.016 -0.223 0.207 c 0 0.398 0.129 0.457 0.316 0.145 m -0.973 -5.094 c 0 -3.949 -0.059 -5.078 -0.273 -5.078 c -0.457 0 -4.738 4.59 -4.738 5.078 c 0 0.488 4.281 5.078 4.738 5.078 c 0.215 0 0.273 -1.129 0.273 -5.078 m 3.352 2.227 c 1.035 -1.07 1.883 -2.074 1.883 -2.227 c 0 -0.395 -3.715 -4.199 -3.949 -4.047 c -0.105 0.066 -0.195 1.879 -0.195 4.02 c 0 3.328 0.07 4.199 0.336 4.199 c 0.023 0 0.891 -0.879 1.926 -1.949 m 2.754 -8.547 c 0 -3.949 -0.063 -5.078 -0.277 -5.078 c -0.406 0 -4.734 4.57 -4.734 5 c 0 0.414 4.316 5.078 4.738 5.125 c 0.211 0.023 0.273 -1.117 0.273 -5.05 m -5.133 1.484 c 0.07 -0.117 0.027 -0.277 -0.094 -0.352 c -0.125 -0.078 -0.223 0.016 -0.223 0.207 c 0 0.398 0.129 0.457 0.316 0.145" fill="#006000"/><path d="m 12.82 37.08 c 0 -0.734 -0.047 -0.777 -0.82 -0.844 l -0.816 -0.07 l -0.059 -5.719 c -0.055 -5.629 -0.051 -5.719 0.418 -6.109 l 0.473 -0.398 l -0.473 -0.344 c -0.469 -0.34 -0.473 -0.414 -0.418 -6.074 l 0.059 -5.73 l 0.805 -0.07 c 0.758 -0.063 0.809 -0.117 0.875 -0.902 l 0.066 -0.832 l 5.52 -0.059 c 5.438 -0.063 5.527 -0.055 5.902 0.43 l 0.387 0.488 l 0.328 -0.488 c 0.328 -0.484 0.402 -0.492 5.871 -0.43 l 5.535 0.059 l 0.066 0.848 c 0.043 0.547 -0.023 0.844 -0.195 0.844 c -0.141 0 -1.27 1.063 -2.508 2.363 c -1.234 1.301 -2.496 2.426 -2.801 2.508 c -0.438 0.113 -0.559 0.285 -0.559 0.797 c 0 0.359 -0.113 0.652 -0.25 0.652 c -0.137 0 -1.281 1.086 -2.543 2.414 c -3.047 3.203 -2.922 3.203 -5.969 0 c -1.262 -1.328 -2.41 -2.414 -2.543 -2.414 c -0.609 0 -0.094 0.723 2.082 2.934 c 1.949 1.973 2.332 2.477 2.332 3.047 c 0 0.57 -0.387 1.074 -2.332 3.051 c -1.281 1.301 -2.332 2.492 -2.332 2.648 c 0 0.652 0.668 0.152 2.789 -2.086 c 3.03 -3.203 2.891 -3.207 6.234 0.25 c 1.418 1.469 2.531 2.809 2.531 3.043 c 0 0.262 0.207 0.473 0.543 0.563 c 0.828 0.215 5.563 5.211 5.563 5.875 c 0 0.344 -0.129 0.535 -0.355 0.535 c -0.285 0 -0.301 -0.063 -0.09 -0.324 c 0.348 -0.438 0.277 -0.535 -2.512 -3.344 c -2.508 -2.523 -2.988 -2.781 -3.695 -1.973 c -0.371 0.426 -0.422 0.43 -0.793 0.082 c -0.594 -0.559 -8.281 -0.559 -8.875 0 c -0.371 0.348 -0.422 0.344 -0.793 -0.082 c -0.707 -0.809 -1.188 -0.551 -3.695 1.973 c -2.789 2.809 -2.859 2.906 -2.512 3.344 c 0.211 0.262 0.195 0.324 -0.09 0.324 c -0.258 0 -0.355 -0.211 -0.355 -0.773 m 2.766 -3.148 c 1.219 -1.285 2.469 -2.406 2.777 -2.484 c 0.449 -0.117 0.563 -0.285 0.563 -0.82 c 0 -0.59 -0.074 -0.672 -0.629 -0.672 c -0.488 0 -0.66 0.125 -0.766 0.555 c -0.074 0.309 -1.164 1.602 -2.422 2.879 c -1.258 1.277 -2.285 2.449 -2.285 2.602 c 0 0.652 0.668 0.156 2.762 -2.055 m -0.91 -0.539 c 1.43 -1.52 2.504 -2.84 2.504 -3.09 c 0.004 -0.238 -0.195 -0.652 -0.434 -0.922 l -0.441 -0.484 l 0.441 -0.41 c 0.406 -0.383 0.438 -0.688 0.438 -4.48 c 0 -3.77 -0.031 -4.105 -0.438 -4.555 l -0.441 -0.484 l 0.441 -0.41 c 0.797 -0.75 0.539 -1.242 -2.102 -4.047 c -2.063 -2.184 -2.602 -2.645 -2.887 -2.457 c -0.305 0.199 -0.359 0.949 -0.41 5.559 c -0.055 5.137 -0.043 5.344 0.383 5.617 c 0.563 0.363 0.566 1.113 0.004 1.477 c -0.418 0.27 -0.438 0.527 -0.438 5.539 c 0 5.125 0.082 5.797 0.699 5.797 c 0.098 0 1.305 -1.191 2.68 -2.648 m 15.398 -2.379 c 0.266 -0.484 -4.629 -5.465 -5.371 -5.465 c -0.355 0 -1.27 0.77 -3.03 2.559 c -2.01 2.039 -2.484 2.633 -2.328 2.934 c 0.172 0.336 0.742 0.371 5.367 0.348 c 4.418 -0.023 5.203 -0.078 5.363 -0.375 m -9.293 -3.941 c 1.5 -1.594 2.5 -2.832 2.5 -3.102 c 0 -0.273 -1.012 -1.523 -2.535 -3.141 c -2.063 -2.184 -2.602 -2.645 -2.887 -2.457 c -0.301 0.199 -0.355 0.941 -0.406 5.48 c -0.059 5.121 0.023 5.871 0.633 5.871 c 0.105 0 1.316 -1.191 2.695 -2.652 m 6.922 -7.191 c 1.926 -1.977 2.508 -2.707 2.367 -2.965 c -0.277 -0.512 -10.457 -0.512 -10.734 0 c -0.242 0.449 4.695 5.586 5.367 5.586 c 0.277 0 1.418 -0.996 3 -2.621 m -8.773 -2.543 c 0 -0.512 -0.121 -0.684 -0.559 -0.801 c -0.309 -0.078 -1.57 -1.207 -2.805 -2.504 c -1.234 -1.301 -2.355 -2.363 -2.492 -2.363 c -0.605 0 -0.098 0.719 2.035 2.883 c 1.258 1.277 2.348 2.574 2.422 2.879 c 0.105 0.43 0.277 0.559 0.766 0.559 c 0.551 0 0.633 -0.086 0.633 -0.656 m 0.543 -1.605 c 0.371 -0.422 0.426 -0.426 0.797 -0.078 c 0.594 0.555 8.277 0.555 8.871 0 c 0.371 -0.348 0.426 -0.344 0.797 0.078 c 0.73 0.836 1.203 0.574 3.875 -2.172 c 1.406 -1.441 2.555 -2.691 2.555 -2.773 c 0 -0.605 -0.707 -0.691 -5.594 -0.691 c -4.848 0 -5.082 0.02 -5.305 0.449 c -0.137 0.262 -0.457 0.453 -0.762 0.453 c -0.309 0 -0.629 -0.191 -0.766 -0.453 c -0.223 -0.43 -0.457 -0.449 -5.305 -0.449 c -4.887 0 -5.594 0.086 -5.594 0.691 c 0 0.082 1.148 1.332 2.555 2.773 c 2.672 2.746 3.145 3.01 3.879 2.172 m 4.465 21.668 c 0.137 -0.258 0.457 -0.449 0.762 -0.449 c 0.309 0 0.629 0.191 0.766 0.449 c 0.164 0.32 0.164 0.453 0 0.453 c -0.129 0 -0.289 -0.152 -0.359 -0.34 c -0.066 -0.184 -0.25 -0.336 -0.406 -0.336 c -0.152 0 -0.336 0.152 -0.402 0.336 c -0.07 0.188 -0.23 0.34 -0.359 0.34 c -0.164 0 -0.164 -0.133 0 -0.453 m 10.621 -3.77 c -2.02 -2.105 -2.551 -2.793 -2.551 -3.285 c -0.004 -0.539 -0.074 -0.609 -0.5 -0.496 c -0.414 0.105 -0.926 -0.316 -3.051 -2.535 c -2.094 -2.184 -2.555 -2.781 -2.555 -3.328 c -0.004 -0.543 0.445 -1.141 2.449 -3.273 c 2.027 -2.156 2.559 -2.602 3.055 -2.574 c 0.508 0.027 0.598 -0.055 0.598 -0.551 c 0 -0.82 4.664 -5.801 5.434 -5.801 c 0.289 0 0.57 0.152 0.625 0.34 c 0.082 0.273 0.043 0.281 -0.188 0.055 c -0.16 -0.156 -0.355 -0.281 -0.438 -0.281 c -0.078 0 -1.285 1.191 -2.68 2.648 c -2.648 2.766 -2.906 3.254 -2.098 4.01 c 0.41 0.383 0.414 0.438 0.078 0.82 c -0.309 0.352 -0.359 1.023 -0.359 4.594 c 0 3.57 0.051 4.242 0.359 4.594 c 0.336 0.383 0.332 0.438 -0.078 0.82 c -0.809 0.758 -0.551 1.246 2.098 4.01 c 1.395 1.457 2.602 2.648 2.68 2.648 c 0.082 0 0.277 -0.129 0.438 -0.281 c 0.23 -0.23 0.27 -0.219 0.188 0.055 c -0.258 0.891 -0.98 0.441 -3.504 -2.191 m -2.715 -9.656 c 0 -4.563 -0.047 -5.395 -0.328 -5.559 c -0.434 -0.25 -5.398 4.863 -5.398 5.559 c 0 0.695 4.965 5.805 5.398 5.555 c 0.281 -0.164 0.328 -0.992 0.328 -5.555 m 0.695 5.094 c 0.07 -0.117 0.027 -0.273 -0.094 -0.352 c -0.125 -0.078 -0.223 0.016 -0.223 0.207 c 0 0.398 0.129 0.457 0.316 0.145 m 0 -9.93 c 0.07 -0.117 0.027 -0.277 -0.094 -0.352 c -0.125 -0.078 -0.223 0.016 -0.223 0.207 c 0 0.398 0.129 0.457 0.316 0.145 m 5.078 5.598 c -0.52 -0.301 -0.484 -1.254 0.055 -1.551 c 0.246 -0.137 0.438 -0.152 0.438 -0.035 c 0 0.117 -0.148 0.27 -0.328 0.34 c -0.441 0.176 -0.414 0.75 0.051 1.02 c 0.211 0.121 0.332 0.27 0.273 0.332 c -0.063 0.063 -0.281 0.016 -0.488 -0.105" fill="#0b0a04"/></svg>