<svg xmlns="http://www.w3.org/2000/svg" viewBox="0 0 48 48"><path d="m 10.152 43.16 c 35.43 23.664 57.25 -51.801 11.449 -41.809 c -18.926 4.258 -30.414 30.957 -11.449 41.809" fill="#b0dfe5"/><path d="m 22.977 38.39 c -0.07 -0.125 -0.348 -0.223 -0.617 -0.223 c -0.266 0 -0.66 -0.203 -0.871 -0.445 c -0.211 -0.246 -0.594 -0.449 -0.848 -0.449 c -0.258 0 -0.641 -0.199 -0.852 -0.445 c -0.211 -0.246 -0.594 -0.445 -0.852 -0.445 c -0.258 0 -0.637 -0.199 -0.852 -0.445 c -0.211 -0.246 -0.594 -0.445 -0.848 -0.445 c -0.258 0 -0.641 -0.203 -0.852 -0.445 c -0.211 -0.246 -0.594 -0.445 -0.852 -0.445 c -0.254 0 -0.637 -0.203 -0.852 -0.449 c -0.211 -0.242 -0.594 -0.445 -0.848 -0.445 c -0.258 0 -0.641 -0.199 -0.852 -0.445 c -0.211 -0.246 -0.586 -0.449 -0.832 -0.453 c -0.242 -0.004 -0.754 -0.301 -1.137 -0.664 l -0.688 -0.66 v -14.05 l 0.688 -0.66 c 0.383 -0.363 0.895 -0.664 1.137 -0.668 c 0.246 0 0.621 -0.207 0.832 -0.449 c 0.211 -0.246 0.594 -0.445 0.852 -0.445 c 0.254 0 0.637 -0.203 0.848 -0.449 c 0.215 -0.242 0.598 -0.445 0.852 -0.445 c 0.258 0 0.637 -0.199 0.852 -0.445 c 0.211 -0.246 0.594 -0.445 0.852 -0.445 c 0.254 0 0.637 -0.199 0.848 -0.445 c 0.215 -0.246 0.594 -0.445 0.852 -0.445 c 0.258 0 0.637 -0.203 0.852 -0.445 c 0.211 -0.246 0.594 -0.449 0.852 -0.449 c 0.254 0 0.637 -0.199 0.848 -0.445 c 0.211 -0.242 0.613 -0.445 0.891 -0.445 c 0.277 0 0.563 -0.148 0.629 -0.332 c 0.168 -0.465 1.898 -0.465 2.066 0 c 0.066 0.184 0.352 0.332 0.629 0.332 c 0.277 0 0.676 0.203 0.891 0.445 c 0.211 0.246 0.594 0.445 0.848 0.445 c 0.258 0 0.641 0.203 0.852 0.449 c 0.211 0.242 0.594 0.445 0.852 0.445 c 0.254 0 0.637 0.199 0.852 0.445 c 0.211 0.246 0.594 0.445 0.848 0.445 c 0.258 0 0.641 0.199 0.852 0.445 c 0.211 0.246 0.594 0.445 0.852 0.445 c 0.254 0 0.637 0.203 0.852 0.445 c 0.211 0.246 0.594 0.449 0.848 0.449 c 0.258 0 0.641 0.199 0.852 0.445 c 0.211 0.242 0.578 0.445 0.82 0.445 c 0.238 0 0.699 0.27 1.027 0.598 l 0.598 0.598 v 14.328 l -0.598 0.598 c -0.328 0.328 -0.789 0.598 -1.027 0.598 c -0.242 0 -0.609 0.203 -0.82 0.449 c -0.211 0.242 -0.594 0.445 -0.852 0.445 c -0.254 0 -0.637 0.199 -0.848 0.445 c -0.215 0.246 -0.598 0.445 -0.852 0.445 c -0.258 0 -0.641 0.199 -0.852 0.445 c -0.211 0.246 -0.594 0.445 -0.852 0.445 c -0.254 0 -0.637 0.203 -0.848 0.445 c -0.215 0.246 -0.598 0.449 -0.852 0.449 c -0.258 0 -0.637 0.199 -0.852 0.445 c -0.211 0.242 -0.594 0.445 -0.852 0.445 c -0.254 0 -0.637 0.199 -0.848 0.445 c -0.215 0.246 -0.605 0.445 -0.871 0.445 c -0.27 0 -0.547 0.102 -0.617 0.223 c -0.074 0.125 -0.551 0.223 -1.066 0.223 c -0.512 0 -0.988 -0.098 -1.063 -0.223" fill="#8e8ef5"/><path d="m 23.01 38.27 c -0.066 -0.184 -0.352 -0.332 -0.629 -0.332 c -0.277 0 -0.676 -0.203 -0.891 -0.449 c -0.211 -0.242 -0.594 -0.445 -0.848 -0.445 c -0.258 0 -0.641 -0.199 -0.852 -0.445 c -0.211 -0.246 -0.594 -0.445 -0.852 -0.445 c -0.254 0 -0.637 -0.199 -0.852 -0.445 c -0.211 -0.246 -0.594 -0.445 -0.848 -0.445 c -0.258 0 -0.641 -0.203 -0.852 -0.445 c -0.211 -0.246 -0.594 -0.449 -0.852 -0.449 c -0.254 0 -0.637 -0.199 -0.848 -0.445 c -0.215 -0.242 -0.598 -0.445 -0.852 -0.445 c -0.258 0 -0.641 -0.199 -0.852 -0.445 c -0.211 -0.246 -0.594 -0.445 -0.852 -0.445 c -0.254 0 -0.637 -0.199 -0.848 -0.445 c -0.215 -0.246 -0.516 -0.445 -0.672 -0.445 c -0.234 0 -0.285 -1.324 -0.285 -7.246 c 0 -5.922 0.051 -7.246 0.285 -7.246 c 0.156 0 0.457 -0.199 0.672 -0.445 c 0.211 -0.246 0.594 -0.445 0.848 -0.445 c 0.258 0 0.641 -0.199 0.852 -0.445 c 0.211 -0.246 0.594 -0.445 0.852 -0.445 c 0.254 0 0.637 -0.203 0.852 -0.449 c 0.211 -0.242 0.594 -0.445 0.848 -0.445 c 0.258 0 0.641 -0.199 0.852 -0.445 c 0.211 -0.246 0.594 -0.445 0.852 -0.445 c 0.254 0 0.637 -0.199 0.848 -0.445 c 0.215 -0.246 0.598 -0.445 0.852 -0.445 c 0.258 0 0.637 -0.203 0.852 -0.445 c 0.211 -0.246 0.594 -0.449 0.852 -0.449 c 0.254 0 0.637 -0.199 0.848 -0.445 c 0.215 -0.242 0.621 -0.445 0.906 -0.445 c 0.34 0 0.555 -0.152 0.629 -0.445 c 0.09 -0.359 0.289 -0.445 1.02 -0.445 c 0.727 0 0.93 0.086 1.016 0.445 c 0.074 0.293 0.293 0.445 0.633 0.445 c 0.285 0 0.691 0.203 0.902 0.445 c 0.211 0.246 0.594 0.445 0.852 0.445 c 0.254 0 0.637 0.203 0.848 0.449 c 0.215 0.242 0.598 0.445 0.852 0.445 c 0.258 0 0.637 0.199 0.852 0.445 c 0.211 0.246 0.594 0.445 0.852 0.445 c 0.254 0 0.637 0.199 0.848 0.445 c 0.211 0.246 0.594 0.445 0.852 0.445 c 0.258 0 0.637 0.203 0.852 0.445 c 0.211 0.246 0.594 0.449 0.852 0.449 c 0.254 0 0.637 0.199 0.848 0.445 c 0.211 0.246 0.586 0.445 0.832 0.453 c 0.246 0.004 0.707 0.25 1.031 0.547 l 0.582 0.539 v 14.09 l -0.582 0.539 c -0.324 0.297 -0.785 0.543 -1.031 0.547 c -0.246 0.004 -0.621 0.207 -0.832 0.453 c -0.211 0.246 -0.594 0.445 -0.848 0.445 c -0.258 0 -0.641 0.203 -0.852 0.445 c -0.211 0.246 -0.594 0.445 -0.852 0.445 c -0.258 0 -0.637 0.203 -0.852 0.449 c -0.211 0.242 -0.594 0.445 -0.848 0.445 c -0.258 0 -0.641 0.199 -0.852 0.445 c -0.211 0.246 -0.594 0.445 -0.852 0.445 c -0.254 0 -0.637 0.199 -0.852 0.445 c -0.211 0.246 -0.594 0.445 -0.848 0.445 c -0.258 0 -0.641 0.203 -0.852 0.445 c -0.211 0.246 -0.613 0.449 -0.891 0.449 c -0.277 0 -0.559 0.148 -0.629 0.332 c -0.082 0.227 -0.418 0.336 -1.031 0.336 c -0.613 0 -0.953 -0.109 -1.035 -0.336 m -0.172 -2.535 c 0.051 -0.574 -0.07 -0.898 -0.52 -1.391 c -0.324 -0.355 -0.777 -0.645 -1.01 -0.645 c -0.234 0 -0.605 -0.172 -0.824 -0.379 c -0.391 -0.371 -0.398 -0.34 -0.336 0.945 c 0.063 1.27 0.094 1.332 0.656 1.402 c 0.328 0.039 0.711 0.266 0.852 0.508 c 0.418 0.703 1.098 0.449 1.176 -0.441 m -4.254 -2.426 c -0.063 -1.23 -0.09 -1.281 -0.684 -1.355 c -0.34 -0.039 -0.777 -0.281 -0.977 -0.539 c -0.516 -0.664 -1.063 -0.375 -1.063 0.566 c 0 0.875 0.918 1.941 1.668 1.941 c 0.258 0 0.527 0.152 0.594 0.336 c 0.277 0.754 0.52 0.254 0.461 -0.949 m 3.734 -3.43 c -0.32 -0.352 -0.773 -0.637 -1 -0.637 c -0.234 0 -0.598 -0.168 -0.813 -0.371 c -0.371 -0.352 -0.387 -0.316 -0.387 0.824 c 0 0.992 0.094 1.301 0.57 1.82 c 0.313 0.344 0.781 0.625 1.035 0.625 c 0.258 0 0.598 0.168 0.758 0.371 c 0.258 0.324 0.301 0.227 0.359 -0.813 c 0.055 -1.031 -0.008 -1.262 -0.52 -1.82 m -7.984 1.398 c 0.055 -0.578 -0.066 -0.902 -0.516 -1.395 c -0.324 -0.352 -0.777 -0.641 -1.012 -0.641 c -0.23 0 -0.602 -0.172 -0.82 -0.379 c -0.391 -0.371 -0.398 -0.344 -0.336 0.945 c 0.063 1.27 0.09 1.332 0.656 1.398 c 0.324 0.039 0.707 0.27 0.852 0.508 c 0.414 0.707 1.094 0.453 1.176 -0.438 m 4.184 -2.375 c 0 -1.305 -0.012 -1.336 -0.617 -1.406 c -0.34 -0.039 -0.777 -0.285 -0.977 -0.539 c -0.23 -0.301 -0.488 -0.414 -0.723 -0.32 c -0.293 0.121 -0.348 0.387 -0.297 1.434 c 0.063 1.238 0.086 1.285 0.695 1.359 c 0.348 0.039 0.762 0.27 0.922 0.512 c 0.16 0.242 0.453 0.406 0.645 0.367 c 0.281 -0.055 0.352 -0.34 0.352 -1.406 m -4.703 -3.48 c -0.32 -0.352 -0.773 -0.641 -1.01 -0.641 c -0.23 0 -0.594 -0.164 -0.809 -0.367 c -0.371 -0.352 -0.391 -0.316 -0.391 0.824 c 0 0.992 0.098 1.297 0.574 1.816 c 0.313 0.344 0.781 0.625 1.035 0.625 c 0.258 0 0.598 0.168 0.758 0.371 c 0.258 0.328 0.301 0.227 0.355 -0.809 c 0.059 -1.035 -0.004 -1.262 -0.516 -1.82 m 8.973 -0.34 c -0.059 -0.164 -0.32 -0.301 -0.578 -0.301 c -0.262 0 -0.691 -0.211 -0.953 -0.473 c -0.754 -0.742 -1.141 -0.414 -1.141 0.957 c 0 0.961 0.098 1.273 0.57 1.789 c 0.313 0.344 0.781 0.625 1.035 0.625 c 0.258 0 0.598 0.168 0.758 0.371 c 0.254 0.324 0.301 0.176 0.355 -1.148 c 0.035 -0.836 0.016 -1.652 -0.047 -1.82 m -4.203 -0.5 c 0.059 -1.051 -0.004 -1.273 -0.52 -1.836 c -0.32 -0.352 -0.75 -0.637 -0.953 -0.637 c -0.203 0 -0.512 -0.152 -0.688 -0.336 c -0.176 -0.184 -0.379 -0.336 -0.449 -0.336 c -0.074 0 -0.102 0.777 -0.07 1.73 l 0.063 1.727 l 0.633 0.074 c 0.348 0.043 0.762 0.273 0.922 0.516 c 0.539 0.805 0.992 0.422 1.063 -0.902 m -4.301 -3.957 c -0.059 -0.164 -0.32 -0.301 -0.582 -0.301 c -0.258 0 -0.688 -0.211 -0.953 -0.473 c -0.75 -0.742 -1.141 -0.414 -1.141 0.957 c 0 0.961 0.102 1.273 0.574 1.789 c 0.313 0.344 0.777 0.625 1.035 0.625 c 0.258 0 0.598 0.168 0.758 0.371 c 0.254 0.32 0.301 0.176 0.355 -1.148 c 0.035 -0.836 0.016 -1.656 -0.047 -1.82" fill="#d85f5f"/><path d="m 23.01 38.27 c -0.066 -0.184 -0.352 -0.332 -0.629 -0.332 c -0.277 0 -0.676 -0.203 -0.891 -0.449 c -0.211 -0.242 -0.594 -0.445 -0.848 -0.445 c -0.258 0 -0.641 -0.199 -0.852 -0.445 c -0.211 -0.246 -0.594 -0.445 -0.852 -0.445 c -0.254 0 -0.637 -0.199 -0.852 -0.445 c -0.211 -0.246 -0.594 -0.445 -0.848 -0.445 c -0.258 0 -0.641 -0.203 -0.852 -0.445 c -0.211 -0.246 -0.594 -0.449 -0.852 -0.449 c -0.254 0 -0.637 -0.199 -0.848 -0.445 c -0.215 -0.242 -0.598 -0.445 -0.852 -0.445 c -0.258 0 -0.641 -0.199 -0.852 -0.445 c -0.211 -0.246 -0.594 -0.445 -0.852 -0.445 c -0.254 0 -0.637 -0.199 -0.848 -0.445 c -0.215 -0.246 -0.516 -0.445 -0.672 -0.445 c -0.234 0 -0.285 -1.324 -0.285 -7.246 c 0 -5.922 0.051 -7.246 0.285 -7.246 c 0.156 0 0.457 -0.199 0.672 -0.445 c 0.211 -0.246 0.594 -0.445 0.848 -0.445 c 0.258 0 0.641 -0.199 0.852 -0.445 c 0.211 -0.246 0.594 -0.445 0.852 -0.445 c 0.254 0 0.637 -0.203 0.852 -0.449 c 0.211 -0.242 0.594 -0.445 0.848 -0.445 c 0.258 0 0.641 -0.199 0.852 -0.445 c 0.211 -0.246 0.594 -0.445 0.852 -0.445 c 0.254 0 0.637 -0.199 0.848 -0.445 c 0.215 -0.246 0.598 -0.445 0.852 -0.445 c 0.258 0 0.637 -0.203 0.852 -0.445 c 0.211 -0.246 0.594 -0.449 0.852 -0.449 c 0.254 0 0.637 -0.199 0.848 -0.445 c 0.215 -0.242 0.621 -0.445 0.906 -0.445 c 0.34 0 0.555 -0.152 0.629 -0.445 c 0.09 -0.359 0.289 -0.445 1.02 -0.445 c 0.727 0 0.93 0.086 1.016 0.445 c 0.074 0.293 0.293 0.445 0.633 0.445 c 0.285 0 0.691 0.203 0.902 0.445 c 0.211 0.246 0.594 0.445 0.852 0.445 c 0.254 0 0.637 0.203 0.848 0.449 c 0.215 0.242 0.598 0.445 0.852 0.445 c 0.258 0 0.637 0.199 0.852 0.445 c 0.211 0.246 0.594 0.445 0.852 0.445 c 0.254 0 0.637 0.199 0.848 0.445 c 0.211 0.246 0.594 0.445 0.852 0.445 c 0.258 0 0.637 0.203 0.852 0.445 c 0.211 0.246 0.594 0.449 0.852 0.449 c 0.254 0 0.637 0.199 0.848 0.445 c 0.211 0.246 0.586 0.445 0.832 0.453 c 0.246 0.004 0.707 0.25 1.031 0.547 l 0.582 0.539 v 14.09 l -0.582 0.539 c -0.324 0.297 -0.785 0.543 -1.031 0.547 c -0.246 0.004 -0.621 0.207 -0.832 0.453 c -0.211 0.246 -0.594 0.445 -0.848 0.445 c -0.258 0 -0.641 0.203 -0.852 0.445 c -0.211 0.246 -0.594 0.445 -0.852 0.445 c -0.258 0 -0.637 0.203 -0.852 0.449 c -0.211 0.242 -0.594 0.445 -0.848 0.445 c -0.258 0 -0.641 0.199 -0.852 0.445 c -0.211 0.246 -0.594 0.445 -0.852 0.445 c -0.254 0 -0.637 0.199 -0.852 0.445 c -0.211 0.246 -0.594 0.445 -0.848 0.445 c -0.258 0 -0.641 0.203 -0.852 0.445 c -0.211 0.246 -0.613 0.449 -0.891 0.449 c -0.277 0 -0.559 0.148 -0.629 0.332 c -0.082 0.227 -0.418 0.336 -1.031 0.336 c -0.613 0 -0.953 -0.109 -1.035 -0.336 m 3.691 -1.672 c 0.16 -0.309 0.445 -0.445 0.945 -0.445 h 0.715 l -0.063 -1.609 c -0.047 -1.184 -0.152 -1.672 -0.402 -1.84 c -0.262 -0.172 -0.418 -0.105 -0.672 0.273 c -0.184 0.277 -0.543 0.5 -0.801 0.5 c -0.633 0 -1.637 1.352 -1.637 2.203 c 0 0.363 0.152 0.82 0.336 1.016 c 0.469 0.488 1.305 0.438 1.578 -0.098 m -3.867 -0.863 c 0.055 -0.574 -0.066 -0.898 -0.516 -1.391 c -0.324 -0.355 -0.777 -0.645 -1.01 -0.645 c -0.234 0 -0.605 -0.172 -0.824 -0.379 c -0.391 -0.371 -0.398 -0.34 -0.336 0.945 c 0.063 1.27 0.09 1.332 0.656 1.402 c 0.328 0.039 0.711 0.266 0.852 0.508 c 0.414 0.703 1.098 0.449 1.176 -0.441 m 7.332 -0.918 c 0.074 -0.297 0.289 -0.449 0.645 -0.449 c 1.027 0 1.867 -1.293 1.664 -2.563 c -0.129 -0.801 -0.215 -0.898 -0.82 -0.961 c -0.504 -0.051 -0.73 0.047 -0.906 0.391 c -0.137 0.27 -0.449 0.461 -0.746 0.461 c -0.281 0 -0.582 0.117 -0.668 0.262 c -0.273 0.469 -0.207 2.695 0.094 3.01 c 0.391 0.414 0.605 0.367 0.738 -0.148 m -11.59 -1.508 c -0.059 -1.23 -0.086 -1.281 -0.68 -1.355 c -0.34 -0.039 -0.781 -0.281 -0.977 -0.539 c -0.516 -0.664 -1.063 -0.375 -1.063 0.566 c 0 0.875 0.914 1.941 1.664 1.941 c 0.262 0 0.531 0.152 0.598 0.336 c 0.277 0.754 0.52 0.254 0.457 -0.949 m 7.438 -0.5 c 0.145 -0.246 0.484 -0.445 0.754 -0.445 c 0.816 0 1.5 -1.211 1.5 -2.652 c 0 -0.898 -0.094 -1.281 -0.355 -1.453 c -0.281 -0.188 -0.43 -0.133 -0.691 0.262 c -0.184 0.273 -0.543 0.5 -0.801 0.5 c -0.273 0 -0.703 0.313 -1.051 0.766 c -0.473 0.625 -0.582 0.996 -0.582 1.973 c 0 0.66 0.063 1.266 0.141 1.348 c 0.277 0.289 0.824 0.141 1.086 -0.297 m -3.699 -2.93 c -0.32 -0.352 -0.773 -0.637 -1 -0.637 c -0.234 0 -0.598 -0.168 -0.813 -0.371 c -0.371 -0.352 -0.391 -0.316 -0.391 0.824 c 0 0.992 0.098 1.301 0.574 1.816 c 0.313 0.348 0.781 0.629 1.035 0.629 c 0.258 0 0.598 0.164 0.758 0.371 c 0.258 0.324 0.301 0.227 0.359 -0.813 c 0.055 -1.035 -0.008 -1.262 -0.52 -1.82 m 12.891 2.262 c 0.16 -0.316 0.445 -0.449 0.973 -0.449 h 0.746 l -0.063 -1.723 c -0.051 -1.469 -0.117 -1.738 -0.453 -1.805 c -0.219 -0.043 -0.527 0.125 -0.703 0.387 c -0.172 0.258 -0.52 0.469 -0.777 0.469 c -0.746 0 -1.598 1.289 -1.473 2.23 c 0.055 0.43 0.199 0.902 0.316 1.055 c 0.328 0.434 1.18 0.332 1.434 -0.168 m -20.875 -0.859 c 0.051 -0.578 -0.07 -0.902 -0.52 -1.395 c -0.32 -0.352 -0.777 -0.641 -1.01 -0.641 c -0.23 0 -0.602 -0.172 -0.824 -0.383 c -0.387 -0.367 -0.398 -0.34 -0.336 0.949 c 0.063 1.266 0.094 1.332 0.66 1.398 c 0.324 0.039 0.707 0.27 0.848 0.508 c 0.418 0.707 1.098 0.453 1.18 -0.438 m 16.625 -1.145 c 0.125 -0.25 0.445 -0.445 0.723 -0.445 c 0.746 0 0.918 -0.418 0.781 -1.895 c -0.121 -1.309 -0.137 -1.34 -0.801 -1.406 c -0.508 -0.051 -0.734 0.047 -0.91 0.391 c -0.137 0.266 -0.449 0.457 -0.746 0.457 c -0.281 0 -0.586 0.125 -0.68 0.277 c -0.168 0.281 -0.113 2.582 0.07 2.898 c 0.211 0.363 1.336 0.164 1.563 -0.277 m -12.441 -1.23 c 0 -1.309 -0.012 -1.336 -0.617 -1.406 c -0.34 -0.043 -0.781 -0.285 -0.977 -0.539 c -0.23 -0.301 -0.488 -0.414 -0.723 -0.32 c -0.293 0.117 -0.352 0.387 -0.297 1.43 c 0.059 1.242 0.082 1.289 0.691 1.359 c 0.348 0.043 0.766 0.273 0.926 0.516 c 0.16 0.242 0.449 0.406 0.645 0.367 c 0.281 -0.055 0.352 -0.34 0.352 -1.406 m 7.5 -0.555 c 0.145 -0.242 0.484 -0.445 0.754 -0.445 c 0.305 0 0.684 -0.273 1.01 -0.723 c 0.43 -0.605 0.504 -0.93 0.441 -1.953 c -0.102 -1.781 -0.641 -2.258 -1.512 -1.344 c -0.23 0.242 -0.684 0.508 -1.01 0.594 c -0.324 0.082 -0.66 0.262 -0.746 0.395 c -0.195 0.305 -0.215 3.57 -0.023 3.773 c 0.277 0.293 0.824 0.141 1.086 -0.297 m 8.504 0 c 0.148 -0.242 0.48 -0.445 0.742 -0.445 c 0.293 0 0.711 -0.305 1.074 -0.781 c 0.52 -0.684 0.586 -0.941 0.531 -2.059 c -0.051 -1.035 -0.141 -1.293 -0.457 -1.355 c -0.219 -0.047 -0.527 0.125 -0.703 0.387 c -0.172 0.254 -0.527 0.465 -0.789 0.465 c -0.781 0 -1.492 1.223 -1.492 2.566 c 0 1.645 0.508 2.211 1.094 1.223 m -20.707 -2.93 c -0.324 -0.348 -0.773 -0.637 -1.01 -0.637 c -0.23 0 -0.598 -0.164 -0.809 -0.367 c -0.375 -0.355 -0.391 -0.32 -0.391 0.82 c 0 0.992 0.098 1.301 0.57 1.82 c 0.316 0.344 0.781 0.625 1.039 0.625 c 0.254 0 0.598 0.168 0.758 0.371 c 0.254 0.324 0.301 0.227 0.355 -0.813 c 0.059 -1.031 -0.008 -1.258 -0.516 -1.82 m 8.973 -0.336 c -0.059 -0.164 -0.32 -0.301 -0.582 -0.301 c -0.258 0 -0.688 -0.215 -0.953 -0.473 c -0.75 -0.742 -1.141 -0.418 -1.141 0.953 c 0 0.961 0.102 1.277 0.574 1.793 c 0.313 0.344 0.781 0.625 1.035 0.625 c 0.258 0 0.598 0.168 0.758 0.371 c 0.254 0.32 0.301 0.176 0.355 -1.148 c 0.035 -0.836 0.016 -1.656 -0.047 -1.82 m 8.168 0.59 c 0.133 -0.254 0.445 -0.445 0.742 -0.445 c 0.281 0 0.578 -0.113 0.66 -0.254 c 0.121 -0.203 0.188 -2.605 0.105 -3.758 c -0.023 -0.332 -0.566 -0.27 -0.855 0.098 c -0.141 0.176 -0.531 0.383 -0.871 0.461 c -0.34 0.078 -0.848 0.426 -1.125 0.777 c -0.434 0.535 -0.496 0.809 -0.418 1.82 c 0.133 1.652 0.18 1.75 0.898 1.75 c 0.422 0 0.715 -0.152 0.867 -0.449 m -12.375 -1.09 c 0.059 -1.051 -0.008 -1.277 -0.52 -1.836 c -0.32 -0.352 -0.75 -0.641 -0.953 -0.641 c -0.203 0 -0.512 -0.148 -0.688 -0.332 c -0.176 -0.184 -0.379 -0.336 -0.449 -0.336 c -0.074 0 -0.105 0.777 -0.07 1.727 l 0.063 1.73 l 0.633 0.074 c 0.344 0.039 0.762 0.273 0.922 0.512 c 0.539 0.809 0.992 0.426 1.063 -0.898 m 15.938 -0.691 c 0.148 -0.246 0.48 -0.445 0.742 -0.445 c 0.289 0 0.707 -0.305 1.063 -0.77 c 1.348 -1.77 0.316 -4.746 -1.121 -3.238 c -0.238 0.25 -0.719 0.512 -1.066 0.586 c -0.344 0.074 -0.637 0.219 -0.645 0.328 c -0.086 1.031 -0.016 3.527 0.102 3.727 c 0.23 0.391 0.633 0.309 0.926 -0.188 m -20.238 -3.266 c -0.063 -0.168 -0.324 -0.301 -0.582 -0.301 c -0.258 0 -0.688 -0.215 -0.953 -0.477 c -0.75 -0.738 -1.141 -0.414 -1.141 0.957 c 0 0.961 0.102 1.273 0.57 1.789 c 0.316 0.344 0.781 0.625 1.039 0.625 c 0.254 0 0.598 0.168 0.758 0.371 c 0.254 0.324 0.301 0.176 0.355 -1.148 c 0.035 -0.836 0.012 -1.652 -0.047 -1.816" fill="#6262b2"/><path d="m 23.24 38.18 c -0.066 -0.266 -0.328 -0.457 -0.699 -0.5 c -0.742 -0.094 -0.965 -0.633 -0.258 -0.633 c 0.723 0 1.016 -0.406 1.016 -1.422 c 0 -0.613 -0.148 -1.055 -0.48 -1.43 l -0.477 -0.539 l 0.477 -0.336 c 0.41 -0.289 0.48 -0.535 0.48 -1.691 c 0 -1.094 -0.09 -1.453 -0.48 -1.891 l -0.477 -0.539 l 0.477 -0.34 c 0.434 -0.305 0.48 -0.516 0.48 -2.16 c 0 -1.926 -0.176 -2.355 -0.965 -2.355 c -0.254 0 -0.633 -0.203 -0.844 -0.449 c -0.488 -0.566 -1.301 -0.574 -1.586 -0.012 c -0.121 0.234 -0.219 0.957 -0.219 1.602 c 0 0.902 0.105 1.289 0.473 1.699 l 0.477 0.531 l -0.465 0.375 c -0.668 0.543 -0.668 2.816 0.004 3.566 l 0.461 0.52 l -0.496 0.391 c -0.348 0.273 -0.48 0.586 -0.453 1.043 c 0.102 1.578 0.004 2.07 -0.449 2.219 c -0.652 0.219 -0.988 -0.23 -0.555 -0.734 c 0.262 -0.301 0.34 -0.77 0.305 -1.816 c -0.047 -1.395 -0.055 -1.414 -0.773 -1.66 c -0.895 -0.309 -1.121 -0.809 -0.371 -0.809 c 0.918 0 1.23 -0.559 1.16 -2.063 c -0.063 -1.305 -0.082 -1.344 -0.793 -1.59 c -0.891 -0.309 -1.117 -0.809 -0.367 -0.809 c 0.871 0 1.203 -0.547 1.203 -1.977 c 0 -1.152 -0.066 -1.352 -0.699 -1.992 c -0.387 -0.391 -0.883 -0.711 -1.102 -0.711 c -0.219 0 -0.57 -0.164 -0.777 -0.363 c -0.211 -0.199 -0.531 -0.301 -0.719 -0.227 c -0.273 0.113 -0.324 0.473 -0.273 2.063 l 0.063 1.926 l 0.727 0.25 c 0.895 0.309 1.121 0.809 0.371 0.809 c -0.918 0 -1.23 0.555 -1.16 2.059 c 0.063 1.309 0.082 1.348 0.789 1.594 c 0.895 0.309 1.121 0.809 0.371 0.809 c -0.297 0 -0.688 0.156 -0.871 0.348 c -0.426 0.449 -0.438 1.957 -0.012 2.324 c 0.172 0.156 0.316 0.418 0.316 0.586 c 0 0.453 -0.727 0.375 -1.156 -0.125 c -0.207 -0.238 -0.621 -0.465 -0.922 -0.504 c -0.734 -0.09 -0.887 -0.625 -0.18 -0.625 c 1.031 0 1.367 -1.883 0.508 -2.844 l -0.477 -0.527 l 0.465 -0.375 c 0.672 -0.547 0.668 -2.813 -0.008 -3.578 l -0.461 -0.523 l 0.477 -0.34 c 0.43 -0.305 0.48 -0.52 0.48 -2.16 c 0 -1.926 -0.18 -2.359 -0.969 -2.359 c -0.25 0 -0.629 -0.199 -0.84 -0.445 c -0.43 -0.496 -1.168 -0.582 -1.555 -0.176 c -0.141 0.148 -0.254 0.859 -0.254 1.602 c 0 1.074 0.094 1.438 0.48 1.875 l 0.477 0.539 l -0.477 0.336 c -0.41 0.289 -0.48 0.535 -0.48 1.691 c 0 1.09 0.094 1.453 0.48 1.891 l 0.477 0.539 l -0.477 0.34 c -0.414 0.289 -0.48 0.531 -0.48 1.734 c 0 1.309 -0.164 1.668 -0.762 1.668 c -0.047 0 -0.09 -3.16 -0.09 -7.02 c 0 -6.676 0.02 -7.02 0.395 -7.02 c 0.215 0 0.566 -0.203 0.777 -0.445 c 0.211 -0.246 0.594 -0.449 0.852 -0.449 c 0.254 0 0.637 -0.199 0.848 -0.445 c 0.211 -0.246 0.594 -0.445 0.852 -0.445 c 0.258 0 0.637 -0.199 0.852 -0.445 c 0.211 -0.246 0.594 -0.445 0.848 -0.445 c 0.258 0 0.641 -0.203 0.852 -0.445 c 0.211 -0.246 0.594 -0.445 0.852 -0.445 c 0.258 0 0.637 -0.203 0.852 -0.449 c 0.211 -0.242 0.594 -0.445 0.848 -0.445 c 0.258 0 0.641 -0.199 0.852 -0.445 c 0.211 -0.246 0.594 -0.445 0.852 -0.445 c 0.254 0 0.633 -0.195 0.84 -0.434 c 0.203 -0.238 0.625 -0.465 0.938 -0.5 c 0.395 -0.051 0.582 -0.219 0.629 -0.57 c 0.055 -0.406 0.203 -0.504 0.781 -0.504 c 0.582 0 0.73 0.098 0.785 0.504 c 0.047 0.352 0.234 0.52 0.629 0.57 c 0.309 0.035 0.73 0.262 0.938 0.5 c 0.207 0.238 0.582 0.434 0.84 0.434 c 0.254 0 0.637 0.199 0.852 0.445 c 0.211 0.246 0.594 0.445 0.848 0.445 c 0.258 0 0.641 0.203 0.852 0.445 c 0.211 0.246 0.594 0.449 0.852 0.449 c 0.254 0 0.637 0.199 0.852 0.445 c 0.211 0.242 0.594 0.445 0.848 0.445 c 0.258 0 0.641 0.199 0.852 0.445 c 0.211 0.246 0.594 0.445 0.852 0.445 c 0.254 0 0.637 0.199 0.848 0.445 c 0.215 0.246 0.598 0.445 0.852 0.445 c 0.258 0 0.641 0.203 0.852 0.449 c 0.211 0.242 0.512 0.445 0.672 0.445 c 0.23 0 0.285 1.289 0.285 7.02 c 0 6 -0.047 7.02 -0.309 7.02 c -0.238 0 -0.324 -0.379 -0.375 -1.613 c -0.051 -1.363 -0.121 -1.625 -0.453 -1.691 c -0.219 -0.047 -0.527 0.125 -0.703 0.387 c -0.172 0.258 -0.52 0.465 -0.777 0.465 c -0.746 0 -1.598 1.293 -1.473 2.234 c 0.133 0.996 0.398 1.332 1.059 1.332 c 0.449 0 0.488 0.055 0.266 0.336 c -0.145 0.184 -0.477 0.332 -0.734 0.332 c -0.262 0 -0.648 0.203 -0.859 0.449 c -0.34 0.395 -1.383 0.637 -1.383 0.324 c 0 -0.066 0.188 -0.395 0.41 -0.727 c 0.324 -0.469 0.379 -0.797 0.266 -1.492 c -0.133 -0.801 -0.219 -0.898 -0.82 -0.961 c -0.508 -0.055 -0.734 0.047 -0.91 0.391 c -0.133 0.262 -0.449 0.457 -0.734 0.457 c -0.703 0 -0.875 0.375 -0.852 1.867 c 0.016 0.988 0.109 1.359 0.387 1.52 c 0.484 0.285 0.066 0.848 -0.629 0.848 c -0.418 0 -0.512 -0.145 -0.621 -0.945 c -0.074 -0.523 -0.102 -1.184 -0.066 -1.473 c 0.039 -0.313 -0.086 -0.629 -0.305 -0.777 c -0.301 -0.207 -0.434 -0.16 -0.703 0.246 c -0.184 0.273 -0.543 0.5 -0.801 0.5 c -0.277 0 -0.703 0.313 -1.051 0.766 c -0.984 1.293 -0.645 2.801 0.625 2.801 c 0.457 0 0.5 0.051 0.277 0.332 c -0.145 0.184 -0.5 0.336 -0.789 0.336 c -0.348 0 -0.563 0.152 -0.637 0.445 c -0.156 0.621 -1.453 0.637 -1.609 0.016 m 2.773 -5.367 c 0.145 -0.246 0.488 -0.445 0.754 -0.445 c 0.816 0 1.5 -1.211 1.5 -2.652 c 0 -0.898 -0.094 -1.281 -0.355 -1.453 c -0.281 -0.188 -0.43 -0.133 -0.691 0.262 c -0.184 0.273 -0.543 0.5 -0.797 0.5 c -0.277 0 -0.707 0.313 -1.051 0.766 c -0.477 0.625 -0.586 0.996 -0.586 1.973 c 0 0.66 0.063 1.266 0.141 1.348 c 0.277 0.289 0.824 0.141 1.086 -0.297 m 4.941 -2.676 c 0.125 -0.25 0.445 -0.445 0.723 -0.445 c 0.746 0 0.918 -0.418 0.781 -1.895 c -0.121 -1.309 -0.137 -1.34 -0.801 -1.406 c -0.508 -0.051 -0.734 0.047 -0.91 0.391 c -0.137 0.266 -0.449 0.457 -0.746 0.457 c -0.281 0 -0.586 0.125 -0.68 0.281 c -0.168 0.277 -0.113 2.582 0.07 2.895 c 0.211 0.367 1.336 0.164 1.563 -0.277 m -4.941 -1.781 c 0.145 -0.246 0.488 -0.449 0.754 -0.449 c 0.309 0 0.688 -0.27 1.01 -0.723 c 0.43 -0.602 0.504 -0.93 0.441 -1.949 c -0.102 -1.781 -0.637 -2.258 -1.512 -1.344 c -0.23 0.238 -0.684 0.508 -1.01 0.59 c -0.324 0.082 -0.66 0.262 -0.746 0.395 c -0.195 0.309 -0.215 3.574 -0.023 3.773 c 0.277 0.293 0.824 0.145 1.086 -0.297 m 8.504 0.004 c 0.148 -0.246 0.48 -0.449 0.742 -0.449 c 0.293 0 0.711 -0.305 1.074 -0.781 c 0.52 -0.684 0.586 -0.941 0.531 -2.059 c -0.051 -1.035 -0.141 -1.293 -0.457 -1.355 c -0.219 -0.043 -0.527 0.125 -0.703 0.387 c -0.172 0.258 -0.527 0.465 -0.789 0.465 c -0.781 0 -1.492 1.223 -1.492 2.566 c 0 1.645 0.508 2.211 1.094 1.227 m -3.563 -2.676 c 0.129 -0.258 0.445 -0.445 0.738 -0.445 c 0.281 0 0.578 -0.117 0.66 -0.258 c 0.121 -0.203 0.188 -2.605 0.105 -3.758 c -0.023 -0.328 -0.566 -0.27 -0.855 0.098 c -0.141 0.176 -0.531 0.387 -0.871 0.465 c -0.34 0.078 -0.848 0.426 -1.125 0.773 c -0.434 0.539 -0.492 0.813 -0.414 1.824 c 0.129 1.652 0.176 1.746 0.895 1.746 c 0.422 0 0.715 -0.152 0.867 -0.445 m 3.563 -1.785 c 0.148 -0.246 0.48 -0.445 0.742 -0.445 c 0.289 0 0.711 -0.305 1.063 -0.77 c 1.348 -1.77 0.316 -4.742 -1.121 -3.234 c -0.238 0.246 -0.719 0.512 -1.063 0.582 c -0.348 0.074 -0.641 0.223 -0.648 0.328 c -0.086 1.035 -0.016 3.527 0.102 3.73 c 0.23 0.387 0.633 0.305 0.926 -0.191 m -14.258 12.789 c -0.301 -0.313 -0.137 -0.527 0.398 -0.527 c 0.344 0 0.516 0.105 0.461 0.277 c -0.102 0.324 -0.641 0.48 -0.859 0.25 m 6.492 -0.137 c 0.047 -0.152 0.41 -0.313 0.801 -0.352 c 0.633 -0.063 0.684 -0.031 0.438 0.277 c -0.336 0.422 -1.367 0.484 -1.238 0.074 m -9.895 -1.645 c -0.301 -0.316 -0.137 -0.527 0.398 -0.527 c 0.344 0 0.516 0.102 0.461 0.277 c -0.102 0.32 -0.641 0.477 -0.859 0.25 m 13.352 -0.086 c -0.133 -0.223 0.016 -0.309 0.902 -0.516 c 0.531 -0.121 0.617 0.063 0.223 0.473 c -0.309 0.328 -0.945 0.352 -1.125 0.043 m -9.156 -1.664 c -0.355 -0.285 -0.367 -0.359 -0.094 -0.555 c 0.422 -0.297 0.484 -0.289 0.973 0.098 c 0.355 0.289 0.367 0.363 0.094 0.555 c -0.422 0.297 -0.484 0.289 -0.973 -0.098 m -9.301 -0.926 c -0.297 -0.313 -0.133 -0.527 0.402 -0.527 c 0.344 0 0.516 0.102 0.461 0.277 c -0.102 0.324 -0.645 0.48 -0.863 0.25 m 23.508 -0.137 c 0.047 -0.156 0.406 -0.313 0.801 -0.352 c 0.629 -0.066 0.68 -0.031 0.434 0.277 c -0.332 0.422 -1.363 0.484 -1.234 0.074 m -22.711 -3.398 c -0.355 -0.285 -0.371 -0.359 -0.094 -0.551 c 0.422 -0.297 0.484 -0.289 0.969 0.098 c 0.359 0.285 0.371 0.359 0.094 0.555 c -0.418 0.293 -0.484 0.289 -0.969 -0.102 m 8.504 0 c -0.355 -0.285 -0.367 -0.359 -0.094 -0.551 c 0.422 -0.297 0.484 -0.289 0.973 0.098 c 0.355 0.285 0.367 0.359 0.094 0.555 c -0.422 0.293 -0.484 0.289 -0.973 -0.102 m -8.504 -4.457 c -0.355 -0.285 -0.371 -0.359 -0.094 -0.555 c 0.422 -0.293 0.484 -0.289 0.969 0.102 c 0.359 0.285 0.371 0.359 0.094 0.555 c -0.418 0.293 -0.484 0.285 -0.969 -0.102" fill="#00ec00"/><path d="m 23.24 38.18 c -0.066 -0.266 -0.328 -0.457 -0.699 -0.5 c -0.742 -0.094 -0.965 -0.633 -0.258 -0.633 c 0.723 0 1.016 -0.406 1.016 -1.422 c 0 -0.613 -0.148 -1.055 -0.48 -1.43 l -0.477 -0.539 l 0.477 -0.336 c 0.41 -0.289 0.48 -0.535 0.48 -1.691 c 0 -1.094 -0.09 -1.453 -0.48 -1.891 l -0.477 -0.539 l 0.477 -0.34 c 0.434 -0.305 0.48 -0.516 0.48 -2.16 c 0 -1.926 -0.176 -2.355 -0.965 -2.355 c -0.254 0 -0.633 -0.203 -0.844 -0.449 c -0.488 -0.566 -1.301 -0.574 -1.586 -0.012 c -0.121 0.234 -0.219 0.957 -0.219 1.602 c 0 0.902 0.105 1.289 0.473 1.699 l 0.477 0.531 l -0.465 0.375 c -0.668 0.543 -0.668 2.816 0.004 3.566 l 0.461 0.52 l -0.496 0.391 c -0.348 0.273 -0.48 0.586 -0.453 1.043 c 0.102 1.578 0.004 2.07 -0.449 2.219 c -0.652 0.219 -0.988 -0.23 -0.555 -0.734 c 0.262 -0.301 0.34 -0.77 0.305 -1.816 c -0.047 -1.395 -0.055 -1.414 -0.773 -1.66 c -0.895 -0.309 -1.121 -0.809 -0.371 -0.809 c 0.918 0 1.23 -0.559 1.16 -2.063 c -0.063 -1.305 -0.082 -1.344 -0.793 -1.59 c -0.891 -0.309 -1.117 -0.809 -0.367 -0.809 c 0.871 0 1.203 -0.547 1.203 -1.977 c 0 -1.152 -0.066 -1.352 -0.699 -1.992 c -0.387 -0.391 -0.883 -0.711 -1.102 -0.711 c -0.219 0 -0.57 -0.164 -0.777 -0.363 c -0.211 -0.199 -0.531 -0.301 -0.719 -0.227 c -0.273 0.113 -0.324 0.473 -0.273 2.063 l 0.063 1.926 l 0.727 0.25 c 0.895 0.309 1.121 0.809 0.371 0.809 c -0.918 0 -1.23 0.555 -1.16 2.059 c 0.063 1.309 0.082 1.348 0.789 1.594 c 0.895 0.309 1.121 0.809 0.371 0.809 c -0.297 0 -0.688 0.156 -0.871 0.348 c -0.426 0.449 -0.438 1.957 -0.012 2.324 c 0.172 0.156 0.316 0.418 0.316 0.586 c 0 0.453 -0.727 0.375 -1.156 -0.125 c -0.207 -0.238 -0.621 -0.465 -0.922 -0.504 c -0.734 -0.09 -0.887 -0.625 -0.18 -0.625 c 1.031 0 1.367 -1.883 0.508 -2.844 l -0.477 -0.527 l 0.465 -0.375 c 0.672 -0.547 0.668 -2.813 -0.008 -3.578 l -0.461 -0.523 l 0.477 -0.34 c 0.43 -0.305 0.48 -0.52 0.48 -2.16 c 0 -1.926 -0.18 -2.359 -0.969 -2.359 c -0.25 0 -0.629 -0.199 -0.84 -0.445 c -0.43 -0.496 -1.168 -0.582 -1.555 -0.176 c -0.141 0.148 -0.254 0.859 -0.254 1.602 c 0 1.074 0.094 1.438 0.48 1.875 l 0.477 0.539 l -0.477 0.336 c -0.41 0.289 -0.48 0.535 -0.48 1.691 c 0 1.09 0.094 1.453 0.48 1.891 l 0.477 0.539 l -0.477 0.34 c -0.414 0.289 -0.48 0.531 -0.48 1.734 c 0 1.309 -0.164 1.668 -0.762 1.668 c -0.047 0 -0.09 -3.16 -0.09 -7.02 c 0 -6.676 0.02 -7.02 0.395 -7.02 c 0.215 0 0.566 -0.203 0.777 -0.445 c 0.211 -0.246 0.594 -0.449 0.852 -0.449 c 0.254 0 0.637 -0.199 0.848 -0.445 c 0.211 -0.246 0.594 -0.445 0.852 -0.445 c 0.258 0 0.637 -0.199 0.852 -0.445 c 0.211 -0.246 0.594 -0.445 0.848 -0.445 c 0.258 0 0.641 -0.203 0.852 -0.445 c 0.211 -0.246 0.594 -0.445 0.852 -0.445 c 0.258 0 0.637 -0.203 0.852 -0.449 c 0.211 -0.242 0.594 -0.445 0.848 -0.445 c 0.258 0 0.641 -0.199 0.852 -0.445 c 0.211 -0.246 0.594 -0.445 0.852 -0.445 c 0.254 0 0.633 -0.195 0.84 -0.434 c 0.203 -0.238 0.625 -0.465 0.938 -0.5 c 0.395 -0.051 0.582 -0.219 0.629 -0.57 c 0.055 -0.406 0.203 -0.504 0.781 -0.504 c 0.582 0 0.73 0.098 0.785 0.504 c 0.047 0.352 0.234 0.52 0.629 0.57 c 0.309 0.035 0.73 0.262 0.938 0.5 c 0.207 0.238 0.582 0.434 0.84 0.434 c 0.254 0 0.637 0.199 0.852 0.445 c 0.211 0.246 0.594 0.445 0.848 0.445 c 0.258 0 0.641 0.203 0.852 0.445 c 0.211 0.246 0.594 0.449 0.852 0.449 c 0.254 0 0.637 0.199 0.852 0.445 c 0.211 0.242 0.594 0.445 0.848 0.445 c 0.258 0 0.641 0.199 0.852 0.445 c 0.211 0.246 0.594 0.445 0.852 0.445 c 0.254 0 0.637 0.199 0.848 0.445 c 0.215 0.246 0.598 0.445 0.852 0.445 c 0.258 0 0.641 0.203 0.852 0.449 c 0.211 0.242 0.512 0.445 0.672 0.445 c 0.23 0 0.285 1.289 0.285 7.02 c 0 6 -0.047 7.02 -0.309 7.02 c -0.238 0 -0.324 -0.379 -0.375 -1.613 c -0.051 -1.363 -0.121 -1.625 -0.453 -1.691 c -0.219 -0.047 -0.527 0.125 -0.703 0.387 c -0.172 0.258 -0.52 0.465 -0.777 0.465 c -0.746 0 -1.598 1.293 -1.473 2.234 c 0.133 0.996 0.398 1.332 1.059 1.332 c 0.449 0 0.488 0.055 0.266 0.336 c -0.145 0.184 -0.477 0.332 -0.734 0.332 c -0.262 0 -0.648 0.203 -0.859 0.449 c -0.34 0.395 -1.383 0.637 -1.383 0.324 c 0 -0.066 0.188 -0.395 0.41 -0.727 c 0.324 -0.469 0.379 -0.797 0.266 -1.492 c -0.133 -0.801 -0.219 -0.898 -0.82 -0.961 c -0.508 -0.055 -0.734 0.047 -0.91 0.391 c -0.133 0.262 -0.449 0.457 -0.734 0.457 c -0.703 0 -0.875 0.375 -0.852 1.867 c 0.016 0.988 0.109 1.359 0.387 1.52 c 0.484 0.285 0.066 0.848 -0.629 0.848 c -0.418 0 -0.512 -0.145 -0.621 -0.945 c -0.074 -0.523 -0.102 -1.184 -0.066 -1.473 c 0.039 -0.313 -0.086 -0.629 -0.305 -0.777 c -0.301 -0.207 -0.434 -0.16 -0.703 0.246 c -0.184 0.273 -0.543 0.5 -0.801 0.5 c -0.277 0 -0.703 0.313 -1.051 0.766 c -0.984 1.293 -0.645 2.801 0.625 2.801 c 0.457 0 0.5 0.051 0.277 0.332 c -0.145 0.184 -0.5 0.336 -0.789 0.336 c -0.348 0 -0.563 0.152 -0.637 0.445 c -0.156 0.621 -1.453 0.637 -1.609 0.016 m 2.773 -5.367 c 0.145 -0.246 0.488 -0.445 0.754 -0.445 c 0.816 0 1.5 -1.211 1.5 -2.652 c 0 -0.898 -0.094 -1.281 -0.355 -1.453 c -0.281 -0.188 -0.43 -0.133 -0.691 0.262 c -0.184 0.273 -0.543 0.5 -0.797 0.5 c -0.277 0 -0.707 0.313 -1.051 0.766 c -0.477 0.625 -0.586 0.996 -0.586 1.973 c 0 0.66 0.063 1.266 0.141 1.348 c 0.277 0.289 0.824 0.141 1.086 -0.297 m 4.941 -2.676 c 0.125 -0.25 0.445 -0.445 0.723 -0.445 c 0.746 0 0.918 -0.418 0.781 -1.895 c -0.121 -1.309 -0.137 -1.34 -0.801 -1.406 c -0.508 -0.051 -0.734 0.047 -0.91 0.391 c -0.137 0.266 -0.449 0.457 -0.746 0.457 c -0.281 0 -0.586 0.125 -0.68 0.281 c -0.168 0.277 -0.113 2.582 0.07 2.895 c 0.211 0.367 1.336 0.164 1.563 -0.277 m -4.941 -1.781 c 0.145 -0.246 0.488 -0.449 0.754 -0.449 c 0.309 0 0.688 -0.27 1.01 -0.723 c 0.43 -0.602 0.504 -0.93 0.441 -1.949 c -0.102 -1.781 -0.637 -2.258 -1.512 -1.344 c -0.23 0.238 -0.684 0.508 -1.01 0.59 c -0.324 0.082 -0.66 0.262 -0.746 0.395 c -0.195 0.309 -0.215 3.574 -0.023 3.773 c 0.277 0.293 0.824 0.145 1.086 -0.297 m 8.504 0.004 c 0.148 -0.246 0.48 -0.449 0.742 -0.449 c 0.293 0 0.711 -0.305 1.074 -0.781 c 0.52 -0.684 0.586 -0.941 0.531 -2.059 c -0.051 -1.035 -0.141 -1.293 -0.457 -1.355 c -0.219 -0.043 -0.527 0.125 -0.703 0.387 c -0.172 0.258 -0.527 0.465 -0.789 0.465 c -0.781 0 -1.492 1.223 -1.492 2.566 c 0 1.645 0.508 2.211 1.094 1.227 m -3.563 -2.676 c 0.129 -0.258 0.445 -0.445 0.738 -0.445 c 0.281 0 0.578 -0.117 0.66 -0.258 c 0.121 -0.203 0.188 -2.605 0.105 -3.758 c -0.023 -0.328 -0.566 -0.27 -0.855 0.098 c -0.141 0.176 -0.531 0.387 -0.871 0.465 c -0.34 0.078 -0.848 0.426 -1.125 0.773 c -0.434 0.539 -0.492 0.813 -0.414 1.824 c 0.129 1.652 0.176 1.746 0.895 1.746 c 0.422 0 0.715 -0.152 0.867 -0.445 m 3.563 -1.785 c 0.148 -0.246 0.48 -0.445 0.742 -0.445 c 0.289 0 0.711 -0.305 1.063 -0.77 c 1.348 -1.77 0.316 -4.742 -1.121 -3.234 c -0.238 0.246 -0.719 0.512 -1.063 0.582 c -0.348 0.074 -0.641 0.223 -0.648 0.328 c -0.086 1.035 -0.016 3.527 0.102 3.73 c 0.23 0.387 0.633 0.305 0.926 -0.191 m -8.824 -1.113 c 0.203 -0.246 0.559 -0.445 0.793 -0.445 c 0.52 0 0.539 -0.172 0.074 -0.707 c -0.191 -0.227 -0.621 -0.41 -0.949 -0.41 c -0.379 0 -0.68 -0.16 -0.824 -0.445 c -0.133 -0.258 -0.445 -0.445 -0.742 -0.445 c -0.301 0 -0.613 0.188 -0.746 0.445 c -0.141 0.273 -0.445 0.445 -0.789 0.445 c -0.543 0 -1.336 0.551 -1.336 0.93 c 0 0.102 0.191 0.188 0.426 0.188 c 0.234 0 0.59 0.199 0.793 0.445 c 0.289 0.355 0.625 0.445 1.652 0.445 c 1.023 0 1.359 -0.09 1.648 -0.445 m -5.04 -2.23 c 0.227 0 0.531 -0.199 0.68 -0.445 c 0.148 -0.25 0.492 -0.445 0.793 -0.445 c 0.293 0 0.531 -0.094 0.531 -0.211 c 0 -0.332 -0.898 -0.902 -1.422 -0.902 c -0.262 0 -0.578 -0.203 -0.707 -0.449 c -0.129 -0.258 -0.441 -0.445 -0.742 -0.445 c -0.301 0 -0.613 0.188 -0.746 0.445 c -0.141 0.281 -0.445 0.449 -0.809 0.449 c -0.32 0 -0.746 0.199 -0.949 0.445 c -0.199 0.242 -0.559 0.445 -0.801 0.445 c -0.242 0 -0.383 0.102 -0.309 0.223 c 0.07 0.121 0.305 0.223 0.516 0.223 c 0.215 0 0.508 0.148 0.652 0.336 c 0.145 0.184 0.477 0.332 0.738 0.332 c 0.258 0 0.645 0.203 0.859 0.449 l 0.387 0.453 l 0.457 -0.453 c 0.25 -0.246 0.641 -0.449 0.871 -0.449 m 9.379 0 c 0.242 0 0.559 -0.148 0.703 -0.332 c 0.148 -0.188 0.441 -0.336 0.652 -0.336 c 0.215 0 0.445 -0.102 0.52 -0.223 c 0.07 -0.121 -0.066 -0.223 -0.309 -0.223 c -0.242 0 -0.605 -0.203 -0.805 -0.445 c -0.199 -0.246 -0.625 -0.445 -0.949 -0.445 c -0.363 0 -0.668 -0.168 -0.809 -0.449 c -0.133 -0.258 -0.445 -0.445 -0.746 -0.445 c -0.297 0 -0.609 0.188 -0.742 0.445 c -0.125 0.246 -0.441 0.449 -0.703 0.449 c -0.523 0 -1.422 0.57 -1.422 0.902 c 0 0.117 0.238 0.211 0.527 0.211 c 0.301 0 0.645 0.195 0.797 0.445 c 0.145 0.246 0.465 0.445 0.711 0.445 c 0.246 0 0.625 0.203 0.836 0.449 l 0.387 0.453 l 0.457 -0.453 c 0.25 -0.246 0.656 -0.449 0.895 -0.449 m -14.605 -2.23 c 0.145 -0.277 0.445 -0.445 0.812 -0.445 c 0.32 0 0.746 -0.199 0.945 -0.445 c 0.203 -0.246 0.582 -0.453 0.848 -0.465 c 0.402 -0.016 0.379 -0.051 -0.148 -0.215 c -0.344 -0.105 -0.707 -0.348 -0.805 -0.539 c -0.281 -0.523 -1.891 -0.453 -2.348 0.105 c -0.199 0.246 -0.57 0.445 -0.828 0.445 c -0.465 0 -1.242 0.578 -1.242 0.926 c 0 0.105 0.195 0.188 0.43 0.188 c 0.234 0 0.59 0.203 0.789 0.445 c 0.203 0.246 0.582 0.449 0.844 0.449 c 0.262 0 0.578 -0.203 0.703 -0.449 m 9.73 -0.445 c 0.488 -0.488 1.082 -0.891 1.32 -0.891 c 0.238 0 0.434 -0.094 0.434 -0.211 c 0 -0.332 -0.898 -0.902 -1.422 -0.902 c -0.262 0 -0.582 -0.203 -0.707 -0.445 c -0.297 -0.586 -1.188 -0.586 -1.488 0 c -0.125 0.242 -0.441 0.445 -0.703 0.445 c -0.523 0 -1.422 0.57 -1.422 0.902 c 0 0.117 0.195 0.211 0.434 0.211 c 0.238 0 0.832 0.402 1.316 0.891 c 0.488 0.492 0.992 0.895 1.121 0.895 c 0.129 0 0.629 -0.402 1.117 -0.895 m 9.04 0.445 c 0.199 -0.242 0.555 -0.445 0.793 -0.445 c 0.234 0 0.426 -0.066 0.426 -0.148 c 0 -0.363 -0.75 -0.965 -1.203 -0.965 c -0.277 0 -0.664 -0.199 -0.867 -0.445 c -0.254 -0.309 -0.625 -0.445 -1.227 -0.445 c -0.598 0 -0.973 0.137 -1.227 0.445 c -0.199 0.246 -0.578 0.453 -0.844 0.465 c -0.406 0.016 -0.383 0.051 0.145 0.215 c 0.344 0.105 0.707 0.348 0.809 0.539 c 0.102 0.188 0.461 0.34 0.801 0.34 c 0.402 0 0.703 0.156 0.848 0.445 c 0.125 0.246 0.445 0.449 0.707 0.449 c 0.262 0 0.641 -0.203 0.84 -0.449 m -13.242 -3.117 c 0.559 -0.492 1.195 -0.902 1.414 -0.914 c 0.242 -0.012 0.152 -0.094 -0.23 -0.215 c -0.344 -0.105 -0.707 -0.348 -0.809 -0.535 c -0.258 -0.484 -1.063 -0.426 -1.492 0.102 c -0.203 0.246 -0.574 0.445 -0.828 0.445 c -0.469 0 -1.242 0.578 -1.242 0.926 c 0 0.105 0.234 0.191 0.523 0.191 c 0.305 0 0.617 0.184 0.75 0.445 c 0.336 0.652 0.777 0.551 1.914 -0.445 m 8.08 0.445 c 0.133 -0.262 0.445 -0.445 0.75 -0.445 c 0.289 0 0.523 -0.07 0.523 -0.152 c 0 -0.363 -0.746 -0.965 -1.203 -0.965 c -0.273 0 -0.664 -0.199 -0.863 -0.445 c -0.434 -0.527 -1.238 -0.586 -1.496 -0.102 c -0.102 0.188 -0.465 0.43 -0.809 0.535 c -0.449 0.141 -0.504 0.203 -0.199 0.223 c 0.234 0.016 0.855 0.422 1.383 0.906 c 1.07 0.98 1.578 1.102 1.914 0.445 m -4.195 -2.676 c 0.199 -0.246 0.555 -0.445 0.789 -0.445 c 0.238 0 0.43 -0.102 0.43 -0.223 c 0 -0.125 -0.199 -0.223 -0.445 -0.223 c -0.246 0 -0.688 -0.199 -0.98 -0.441 c -0.531 -0.441 -1.109 -0.355 -1.445 0.219 c -0.074 0.121 -0.363 0.223 -0.652 0.223 c -0.285 0 -0.516 0.098 -0.516 0.223 c 0 0.121 0.191 0.223 0.426 0.223 c 0.234 0 0.59 0.199 0.793 0.445 c 0.199 0.246 0.559 0.445 0.801 0.445 c 0.238 0 0.602 -0.199 0.801 -0.445 m -4.586 23.711 c -0.301 -0.313 -0.137 -0.527 0.398 -0.527 c 0.348 0 0.516 0.105 0.461 0.277 c -0.102 0.324 -0.641 0.48 -0.859 0.25 m 6.492 -0.137 c 0.051 -0.152 0.41 -0.313 0.805 -0.352 c 0.629 -0.063 0.68 -0.031 0.434 0.277 c -0.332 0.422 -1.363 0.484 -1.238 0.074 m -9.895 -1.645 c -0.301 -0.316 -0.137 -0.527 0.398 -0.527 c 0.348 0 0.52 0.102 0.461 0.277 c -0.102 0.32 -0.641 0.477 -0.859 0.25 m 13.352 -0.086 c -0.133 -0.223 0.016 -0.309 0.906 -0.516 c 0.527 -0.121 0.613 0.063 0.223 0.473 c -0.313 0.328 -0.949 0.352 -1.129 0.043 m -9.152 -1.664 c -0.359 -0.285 -0.371 -0.359 -0.094 -0.555 c 0.418 -0.297 0.484 -0.289 0.969 0.098 c 0.355 0.289 0.367 0.363 0.094 0.555 c -0.422 0.297 -0.484 0.289 -0.969 -0.098 m -9.301 -0.926 c -0.301 -0.313 -0.137 -0.527 0.398 -0.527 c 0.344 0 0.516 0.102 0.461 0.277 c -0.102 0.324 -0.641 0.48 -0.859 0.25 m 23.504 -0.137 c 0.047 -0.156 0.406 -0.313 0.801 -0.352 c 0.629 -0.066 0.68 -0.031 0.438 0.277 c -0.336 0.422 -1.367 0.484 -1.238 0.074 m -22.711 -3.398 c -0.355 -0.285 -0.367 -0.359 -0.094 -0.551 c 0.422 -0.297 0.484 -0.289 0.969 0.098 c 0.359 0.285 0.371 0.359 0.094 0.555 c -0.418 0.293 -0.484 0.289 -0.969 -0.102 m 8.508 0 c -0.359 -0.285 -0.371 -0.359 -0.094 -0.551 c 0.418 -0.297 0.484 -0.289 0.969 0.098 c 0.355 0.285 0.367 0.359 0.094 0.555 c -0.422 0.293 -0.484 0.289 -0.969 -0.102 m -8.508 -4.457 c -0.355 -0.285 -0.367 -0.359 -0.094 -0.555 c 0.422 -0.293 0.484 -0.289 0.969 0.102 c 0.359 0.285 0.371 0.359 0.094 0.555 c -0.418 0.293 -0.484 0.285 -0.969 -0.102" fill="#00a100"/><path d="m 23.24 38.18 c -0.066 -0.266 -0.328 -0.457 -0.699 -0.5 c -0.742 -0.094 -0.965 -0.633 -0.258 -0.633 c 0.723 0 1.016 -0.406 1.016 -1.422 c 0 -0.613 -0.148 -1.055 -0.48 -1.43 l -0.477 -0.539 l 0.477 -0.336 c 0.41 -0.289 0.48 -0.535 0.48 -1.691 c 0 -1.094 -0.09 -1.453 -0.48 -1.891 l -0.477 -0.539 l 0.477 -0.34 c 0.434 -0.305 0.48 -0.516 0.48 -2.16 c 0 -1.926 -0.176 -2.355 -0.965 -2.355 c -0.254 0 -0.633 -0.203 -0.844 -0.449 c -0.488 -0.566 -1.301 -0.574 -1.586 -0.012 c -0.121 0.234 -0.219 0.957 -0.219 1.602 c 0 0.902 0.105 1.289 0.473 1.699 l 0.477 0.531 l -0.465 0.375 c -0.668 0.543 -0.668 2.816 0.004 3.566 l 0.461 0.52 l -0.496 0.391 c -0.348 0.273 -0.48 0.586 -0.453 1.043 c 0.102 1.578 0.004 2.07 -0.449 2.219 c -0.652 0.219 -0.988 -0.23 -0.555 -0.734 c 0.262 -0.301 0.34 -0.77 0.305 -1.816 c -0.047 -1.395 -0.055 -1.414 -0.773 -1.66 c -0.895 -0.309 -1.121 -0.809 -0.371 -0.809 c 0.918 0 1.23 -0.559 1.16 -2.063 c -0.063 -1.305 -0.082 -1.344 -0.793 -1.59 c -0.891 -0.309 -1.117 -0.809 -0.367 -0.809 c 0.871 0 1.203 -0.547 1.203 -1.977 c 0 -1.152 -0.066 -1.352 -0.699 -1.992 c -0.387 -0.391 -0.883 -0.711 -1.102 -0.711 c -0.219 0 -0.57 -0.164 -0.777 -0.363 c -0.211 -0.199 -0.531 -0.301 -0.719 -0.227 c -0.273 0.113 -0.324 0.473 -0.273 2.063 l 0.063 1.926 l 0.727 0.25 c 0.895 0.309 1.121 0.809 0.371 0.809 c -0.918 0 -1.23 0.555 -1.16 2.059 c 0.063 1.309 0.082 1.348 0.789 1.594 c 0.895 0.309 1.121 0.809 0.371 0.809 c -0.297 0 -0.688 0.156 -0.871 0.348 c -0.426 0.449 -0.438 1.957 -0.012 2.324 c 0.172 0.156 0.316 0.418 0.316 0.586 c 0 0.453 -0.727 0.375 -1.156 -0.125 c -0.207 -0.238 -0.621 -0.465 -0.922 -0.504 c -0.734 -0.09 -0.887 -0.625 -0.18 -0.625 c 1.031 0 1.367 -1.883 0.508 -2.844 l -0.477 -0.527 l 0.465 -0.375 c 0.672 -0.547 0.668 -2.813 -0.008 -3.578 l -0.461 -0.523 l 0.477 -0.34 c 0.43 -0.305 0.48 -0.52 0.48 -2.16 c 0 -1.926 -0.18 -2.359 -0.969 -2.359 c -0.25 0 -0.629 -0.199 -0.84 -0.445 c -0.43 -0.496 -1.168 -0.582 -1.555 -0.176 c -0.141 0.148 -0.254 0.859 -0.254 1.602 c 0 1.074 0.094 1.438 0.48 1.875 l 0.477 0.539 l -0.477 0.336 c -0.41 0.289 -0.48 0.535 -0.48 1.691 c 0 1.09 0.094 1.453 0.48 1.891 l 0.477 0.539 l -0.477 0.34 c -0.414 0.289 -0.48 0.531 -0.48 1.734 c 0 1.309 -0.164 1.668 -0.762 1.668 c -0.047 0 -0.09 -3.16 -0.09 -7.02 c 0 -6.676 0.02 -7.02 0.395 -7.02 c 0.215 0 0.566 -0.203 0.777 -0.445 c 0.211 -0.246 0.594 -0.449 0.852 -0.449 c 0.254 0 0.637 -0.199 0.848 -0.445 c 0.211 -0.246 0.594 -0.445 0.852 -0.445 c 0.258 0 0.637 -0.199 0.852 -0.445 c 0.211 -0.246 0.594 -0.445 0.848 -0.445 c 0.258 0 0.641 -0.203 0.852 -0.445 c 0.211 -0.246 0.594 -0.445 0.852 -0.445 c 0.258 0 0.637 -0.203 0.852 -0.449 c 0.211 -0.242 0.594 -0.445 0.848 -0.445 c 0.258 0 0.641 -0.199 0.852 -0.445 c 0.211 -0.246 0.594 -0.445 0.852 -0.445 c 0.254 0 0.633 -0.195 0.84 -0.434 c 0.203 -0.238 0.625 -0.465 0.938 -0.5 c 0.395 -0.051 0.582 -0.219 0.629 -0.57 c 0.055 -0.406 0.203 -0.504 0.781 -0.504 c 0.582 0 0.73 0.098 0.785 0.504 c 0.047 0.352 0.234 0.52 0.629 0.57 c 0.309 0.035 0.73 0.262 0.938 0.5 c 0.207 0.238 0.582 0.434 0.84 0.434 c 0.254 0 0.637 0.199 0.852 0.445 c 0.211 0.246 0.594 0.445 0.848 0.445 c 0.258 0 0.641 0.203 0.852 0.445 c 0.211 0.246 0.594 0.449 0.852 0.449 c 0.254 0 0.637 0.199 0.852 0.445 c 0.211 0.242 0.594 0.445 0.848 0.445 c 0.258 0 0.641 0.199 0.852 0.445 c 0.211 0.246 0.594 0.445 0.852 0.445 c 0.254 0 0.637 0.199 0.848 0.445 c 0.215 0.246 0.598 0.445 0.852 0.445 c 0.258 0 0.641 0.203 0.852 0.449 c 0.211 0.242 0.512 0.445 0.672 0.445 c 0.23 0 0.285 1.289 0.285 7.02 c 0 6 -0.047 7.02 -0.309 7.02 c -0.238 0 -0.324 -0.379 -0.375 -1.613 c -0.051 -1.363 -0.121 -1.625 -0.453 -1.691 c -0.219 -0.047 -0.527 0.125 -0.703 0.387 c -0.172 0.258 -0.52 0.465 -0.777 0.465 c -0.746 0 -1.598 1.293 -1.473 2.234 c 0.133 0.996 0.398 1.332 1.059 1.332 c 0.449 0 0.488 0.055 0.266 0.336 c -0.145 0.184 -0.477 0.332 -0.734 0.332 c -0.262 0 -0.648 0.203 -0.859 0.449 c -0.34 0.395 -1.383 0.637 -1.383 0.324 c 0 -0.066 0.188 -0.395 0.41 -0.727 c 0.324 -0.469 0.379 -0.797 0.266 -1.492 c -0.133 -0.801 -0.219 -0.898 -0.82 -0.961 c -0.508 -0.055 -0.734 0.047 -0.91 0.391 c -0.133 0.262 -0.449 0.457 -0.734 0.457 c -0.703 0 -0.875 0.375 -0.852 1.867 c 0.016 0.988 0.109 1.359 0.387 1.52 c 0.484 0.285 0.066 0.848 -0.629 0.848 c -0.418 0 -0.512 -0.145 -0.621 -0.945 c -0.074 -0.523 -0.102 -1.184 -0.066 -1.473 c 0.039 -0.313 -0.086 -0.629 -0.305 -0.777 c -0.301 -0.207 -0.434 -0.16 -0.703 0.246 c -0.184 0.273 -0.543 0.5 -0.801 0.5 c -0.277 0 -0.703 0.313 -1.051 0.766 c -0.984 1.293 -0.645 2.801 0.625 2.801 c 0.457 0 0.5 0.051 0.277 0.332 c -0.145 0.184 -0.5 0.336 -0.789 0.336 c -0.348 0 -0.563 0.152 -0.637 0.445 c -0.156 0.621 -1.453 0.637 -1.609 0.016 m 2.773 -5.367 c 0.145 -0.246 0.488 -0.445 0.754 -0.445 c 0.816 0 1.5 -1.211 1.5 -2.652 c 0 -0.898 -0.094 -1.281 -0.355 -1.453 c -0.281 -0.188 -0.43 -0.133 -0.691 0.262 c -0.184 0.273 -0.543 0.5 -0.797 0.5 c -0.277 0 -0.707 0.313 -1.051 0.766 c -0.477 0.625 -0.586 0.996 -0.586 1.973 c 0 0.66 0.063 1.266 0.141 1.348 c 0.277 0.289 0.824 0.141 1.086 -0.297 m 4.941 -2.676 c 0.125 -0.25 0.445 -0.445 0.723 -0.445 c 0.746 0 0.918 -0.418 0.781 -1.895 c -0.121 -1.309 -0.137 -1.34 -0.801 -1.406 c -0.508 -0.051 -0.734 0.047 -0.91 0.391 c -0.137 0.266 -0.449 0.457 -0.746 0.457 c -0.281 0 -0.586 0.125 -0.68 0.281 c -0.168 0.277 -0.113 2.582 0.07 2.895 c 0.211 0.367 1.336 0.164 1.563 -0.277 m -4.941 -1.781 c 0.145 -0.246 0.488 -0.449 0.754 -0.449 c 0.309 0 0.688 -0.27 1.01 -0.723 c 0.43 -0.602 0.504 -0.93 0.441 -1.949 c -0.102 -1.781 -0.637 -2.258 -1.512 -1.344 c -0.23 0.238 -0.684 0.508 -1.01 0.59 c -0.324 0.082 -0.66 0.262 -0.746 0.395 c -0.195 0.309 -0.215 3.574 -0.023 3.773 c 0.277 0.293 0.824 0.145 1.086 -0.297 m 8.504 0.004 c 0.148 -0.246 0.48 -0.449 0.742 -0.449 c 0.293 0 0.711 -0.305 1.074 -0.781 c 0.52 -0.684 0.586 -0.941 0.531 -2.059 c -0.051 -1.035 -0.141 -1.293 -0.457 -1.355 c -0.219 -0.043 -0.527 0.125 -0.703 0.387 c -0.172 0.258 -0.527 0.465 -0.789 0.465 c -0.781 0 -1.492 1.223 -1.492 2.566 c 0 1.645 0.508 2.211 1.094 1.227 m -3.563 -2.676 c 0.129 -0.258 0.445 -0.445 0.738 -0.445 c 0.281 0 0.578 -0.117 0.66 -0.258 c 0.121 -0.203 0.188 -2.605 0.105 -3.758 c -0.023 -0.328 -0.566 -0.27 -0.855 0.098 c -0.141 0.176 -0.531 0.387 -0.871 0.465 c -0.34 0.078 -0.848 0.426 -1.125 0.773 c -0.434 0.539 -0.492 0.813 -0.414 1.824 c 0.129 1.652 0.176 1.746 0.895 1.746 c 0.422 0 0.715 -0.152 0.867 -0.445 m 3.563 -1.785 c 0.148 -0.246 0.48 -0.445 0.742 -0.445 c 0.289 0 0.711 -0.305 1.063 -0.77 c 1.348 -1.77 0.316 -4.742 -1.121 -3.234 c -0.238 0.246 -0.719 0.512 -1.063 0.582 c -0.348 0.074 -0.641 0.223 -0.648 0.328 c -0.086 1.035 -0.016 3.527 0.102 3.73 c 0.23 0.387 0.633 0.305 0.926 -0.191 m -8.91 -0.75 c 0.211 -0.199 0.566 -0.367 0.793 -0.367 c 0.223 0 0.539 -0.09 0.699 -0.195 c 0.48 -0.32 -0.539 -1.586 -1.281 -1.586 c -0.371 0 -0.676 -0.164 -0.816 -0.445 c -0.16 -0.313 -0.445 -0.445 -0.957 -0.445 c -0.512 0 -0.797 0.133 -0.957 0.445 c -0.145 0.281 -0.445 0.445 -0.82 0.445 c -0.738 0 -1.762 1.266 -1.277 1.586 c 0.16 0.105 0.465 0.195 0.68 0.195 c 0.215 0 0.613 0.184 0.879 0.406 c 0.625 0.516 2.5 0.492 3.059 -0.039 m -5.605 -1.926 c 0.215 -0.242 0.586 -0.445 0.832 -0.445 c 0.246 0 0.57 -0.199 0.715 -0.445 c 0.168 -0.285 0.496 -0.445 0.902 -0.445 c 0.383 0 0.637 -0.117 0.637 -0.293 c 0 -0.398 -1.16 -1.27 -1.688 -1.27 c -0.234 0 -0.527 -0.199 -0.652 -0.445 c -0.16 -0.313 -0.445 -0.445 -0.957 -0.445 c -0.512 0 -0.797 0.133 -0.957 0.445 c -0.145 0.281 -0.445 0.445 -0.813 0.445 c -0.32 0 -0.746 0.203 -0.945 0.449 c -0.199 0.242 -0.605 0.445 -0.898 0.445 c -0.859 0 -0.645 0.621 0.309 0.887 c 0.461 0.133 0.898 0.336 0.969 0.457 c 0.07 0.117 0.301 0.215 0.508 0.215 c 0.207 0 0.555 0.203 0.766 0.445 c 0.211 0.246 0.496 0.449 0.637 0.449 c 0.141 0 0.426 -0.203 0.637 -0.449 m 9.355 0 c 0.215 -0.242 0.559 -0.445 0.766 -0.445 c 0.211 0 0.438 -0.098 0.508 -0.215 c 0.07 -0.121 0.508 -0.324 0.969 -0.457 c 0.953 -0.266 1.168 -0.887 0.309 -0.887 c -0.293 0 -0.695 -0.203 -0.898 -0.445 c -0.199 -0.246 -0.625 -0.449 -0.945 -0.449 c -0.367 0 -0.668 -0.164 -0.813 -0.445 c -0.16 -0.313 -0.445 -0.445 -0.957 -0.445 c -0.512 0 -0.797 0.133 -0.957 0.445 c -0.125 0.246 -0.418 0.445 -0.652 0.445 c -0.527 0 -1.684 0.871 -1.684 1.27 c 0 0.176 0.25 0.293 0.633 0.293 c 0.406 0 0.734 0.16 0.902 0.445 c 0.148 0.246 0.469 0.445 0.715 0.445 c 0.246 0 0.621 0.203 0.832 0.445 c 0.211 0.246 0.496 0.445 0.637 0.445 c 0.141 0 0.426 -0.199 0.637 -0.445 m -13.84 -2.563 c 0.273 -0.305 0.727 -0.559 1.01 -0.559 c 0.281 0 0.676 -0.199 0.875 -0.445 c 0.203 -0.242 0.605 -0.445 0.898 -0.445 c 0.332 0 0.535 -0.125 0.535 -0.332 c 0 -0.207 -0.199 -0.336 -0.523 -0.336 c -0.289 0 -0.695 -0.188 -0.902 -0.414 c -0.211 -0.23 -0.785 -0.48 -1.273 -0.559 c -0.766 -0.121 -0.977 -0.063 -1.469 0.414 c -0.313 0.309 -0.77 0.559 -1.01 0.559 c -0.48 0 -1.418 0.82 -1.418 1.242 c 0 0.289 0.465 0.539 0.996 0.539 c 0.176 0 0.563 0.203 0.863 0.449 c 0.691 0.57 0.824 0.559 1.418 -0.113 m 18.469 0.113 c 0.301 -0.246 0.688 -0.449 0.863 -0.449 c 0.508 0 0.992 -0.246 0.992 -0.508 c 0 -0.434 -0.914 -1.273 -1.387 -1.273 c -0.254 0 -0.723 -0.25 -1.039 -0.559 c -0.488 -0.477 -0.699 -0.535 -1.465 -0.414 c -0.488 0.078 -1.063 0.328 -1.273 0.559 c -0.207 0.227 -0.613 0.414 -0.902 0.414 c -0.324 0 -0.523 0.129 -0.523 0.336 c 0 0.207 0.203 0.332 0.535 0.332 c 0.293 0 0.695 0.203 0.895 0.445 c 0.203 0.246 0.598 0.445 0.879 0.445 c 0.281 0 0.734 0.254 1.01 0.559 c 0.594 0.672 0.727 0.684 1.418 0.113 m -8.652 -0.668 c 0.566 -0.602 1.023 -0.887 1.418 -0.891 c 0.34 0 0.586 -0.125 0.586 -0.297 c 0 -0.395 -1.156 -1.266 -1.684 -1.266 c -0.234 0 -0.531 -0.203 -0.656 -0.445 c -0.316 -0.621 -1.598 -0.621 -1.914 0 c -0.125 0.242 -0.418 0.445 -0.652 0.445 c -0.527 0 -1.684 0.871 -1.684 1.266 c 0 0.172 0.246 0.297 0.582 0.297 c 0.398 0.004 0.855 0.289 1.422 0.891 c 0.457 0.488 1.039 0.891 1.289 0.891 c 0.254 0 0.836 -0.402 1.293 -0.891 m -4.18 -2.68 c 0.531 -0.5 1.156 -0.891 1.438 -0.891 c 0.297 0 0.492 -0.133 0.492 -0.332 c 0 -0.203 -0.195 -0.336 -0.5 -0.336 c -0.273 0 -0.758 -0.25 -1.074 -0.559 c -0.313 -0.305 -0.707 -0.555 -0.867 -0.555 c -0.164 0 -0.559 0.25 -0.871 0.555 c -0.316 0.309 -0.77 0.559 -1.01 0.559 c -0.496 0 -1.418 0.824 -1.418 1.266 c 0 0.18 0.25 0.297 0.629 0.297 c 0.414 0 0.711 0.152 0.859 0.445 c 0.371 0.727 1.258 0.555 2.324 -0.449 m 8.094 0.449 c 0.148 -0.293 0.445 -0.449 0.859 -0.449 c 0.348 0 0.629 -0.117 0.629 -0.262 c 0 -0.453 -0.902 -1.297 -1.387 -1.297 c -0.254 0 -0.723 -0.25 -1.039 -0.559 c -0.719 -0.699 -1.02 -0.699 -1.738 0 c -0.316 0.309 -0.801 0.559 -1.074 0.559 c -0.305 0 -0.5 0.133 -0.5 0.336 c 0 0.199 0.195 0.332 0.496 0.332 c 0.277 0 0.906 0.391 1.434 0.891 c 1.063 1 1.949 1.176 2.32 0.445 m -4.195 -2.672 c 0.199 -0.246 0.609 -0.445 0.914 -0.445 c 0.758 0 0.621 -0.754 -0.152 -0.852 c -0.309 -0.035 -0.73 -0.262 -0.938 -0.5 c -0.477 -0.555 -1.199 -0.555 -1.68 0 c -0.203 0.238 -0.625 0.465 -0.934 0.5 c -0.773 0.098 -0.91 0.852 -0.152 0.852 c 0.301 0 0.715 0.199 0.914 0.445 c 0.215 0.266 0.629 0.445 1.012 0.445 c 0.387 0 0.801 -0.18 1.016 -0.445 m -4.797 23.488 c -0.301 -0.313 -0.137 -0.527 0.398 -0.527 c 0.344 0 0.516 0.105 0.461 0.277 c -0.102 0.324 -0.641 0.48 -0.859 0.25 m 6.492 -0.137 c 0.047 -0.152 0.41 -0.313 0.801 -0.352 c 0.629 -0.066 0.684 -0.031 0.438 0.277 c -0.336 0.422 -1.367 0.484 -1.238 0.074 m -9.895 -1.645 c -0.301 -0.316 -0.137 -0.531 0.398 -0.531 c 0.344 0 0.516 0.105 0.461 0.281 c -0.102 0.32 -0.641 0.477 -0.859 0.25 m 13.352 -0.086 c -0.133 -0.223 0.016 -0.309 0.902 -0.516 c 0.527 -0.121 0.617 0.063 0.223 0.473 c -0.309 0.328 -0.945 0.352 -1.125 0.043 m -9.156 -1.664 c -0.355 -0.289 -0.367 -0.363 -0.094 -0.555 c 0.422 -0.297 0.484 -0.289 0.969 0.098 c 0.359 0.285 0.371 0.363 0.094 0.555 c -0.418 0.297 -0.484 0.289 -0.969 -0.098 m -9.301 -0.926 c -0.297 -0.316 -0.137 -0.527 0.402 -0.527 c 0.344 0 0.516 0.102 0.461 0.277 c -0.102 0.32 -0.645 0.477 -0.863 0.25 m 23.504 -0.141 c 0.051 -0.152 0.41 -0.309 0.805 -0.352 c 0.629 -0.063 0.68 -0.031 0.434 0.281 c -0.332 0.422 -1.363 0.48 -1.234 0.07 m -22.711 -3.395 c -0.355 -0.285 -0.371 -0.359 -0.094 -0.555 c 0.422 -0.293 0.484 -0.285 0.969 0.102 c 0.359 0.285 0.371 0.359 0.094 0.555 c -0.418 0.293 -0.484 0.289 -0.969 -0.102 m 8.504 0 c -0.355 -0.285 -0.367 -0.359 -0.094 -0.555 c 0.422 -0.293 0.484 -0.285 0.969 0.102 c 0.359 0.285 0.371 0.359 0.094 0.555 c -0.418 0.293 -0.484 0.289 -0.969 -0.102 m -8.504 -4.457 c -0.355 -0.285 -0.371 -0.359 -0.094 -0.555 c 0.422 -0.293 0.484 -0.289 0.969 0.102 c 0.359 0.285 0.371 0.359 0.094 0.551 c -0.418 0.297 -0.484 0.289 -0.969 -0.098" fill="#046204"/><path d="m 23.24 38.18 c -0.066 -0.266 -0.328 -0.457 -0.699 -0.5 c -0.742 -0.094 -0.965 -0.633 -0.258 -0.633 c 0.723 0 1.016 -0.406 1.016 -1.422 c 0 -0.613 -0.148 -1.055 -0.48 -1.43 l -0.477 -0.539 l 0.477 -0.336 c 0.41 -0.289 0.48 -0.535 0.48 -1.691 c 0 -1.094 -0.09 -1.453 -0.48 -1.891 l -0.477 -0.539 l 0.477 -0.34 c 0.434 -0.305 0.48 -0.516 0.48 -2.16 c 0 -1.926 -0.176 -2.355 -0.965 -2.355 c -0.254 0 -0.633 -0.203 -0.844 -0.449 c -0.488 -0.566 -1.301 -0.574 -1.586 -0.012 c -0.121 0.234 -0.219 0.957 -0.219 1.602 c 0 0.902 0.105 1.289 0.473 1.699 l 0.477 0.531 l -0.465 0.375 c -0.668 0.543 -0.668 2.816 0.004 3.566 l 0.461 0.52 l -0.496 0.391 c -0.348 0.273 -0.48 0.586 -0.453 1.043 c 0.102 1.578 0.004 2.07 -0.449 2.219 c -0.652 0.219 -0.988 -0.23 -0.555 -0.734 c 0.262 -0.301 0.34 -0.77 0.305 -1.816 c -0.047 -1.395 -0.055 -1.414 -0.773 -1.66 c -0.895 -0.309 -1.121 -0.809 -0.371 -0.809 c 0.918 0 1.23 -0.559 1.16 -2.063 c -0.063 -1.305 -0.082 -1.344 -0.793 -1.59 c -0.891 -0.309 -1.117 -0.809 -0.367 -0.809 c 0.871 0 1.203 -0.547 1.203 -1.977 c 0 -1.152 -0.066 -1.352 -0.699 -1.992 c -0.387 -0.391 -0.883 -0.711 -1.102 -0.711 c -0.219 0 -0.57 -0.164 -0.777 -0.363 c -0.211 -0.199 -0.531 -0.301 -0.719 -0.227 c -0.273 0.113 -0.324 0.473 -0.273 2.063 l 0.063 1.926 l 0.727 0.25 c 0.895 0.309 1.121 0.809 0.371 0.809 c -0.918 0 -1.23 0.555 -1.16 2.059 c 0.063 1.309 0.082 1.348 0.789 1.594 c 0.895 0.309 1.121 0.809 0.371 0.809 c -0.297 0 -0.688 0.156 -0.871 0.348 c -0.426 0.449 -0.438 1.957 -0.012 2.324 c 0.172 0.156 0.316 0.418 0.316 0.586 c 0 0.453 -0.727 0.375 -1.156 -0.125 c -0.207 -0.238 -0.621 -0.465 -0.922 -0.504 c -0.734 -0.09 -0.887 -0.625 -0.18 -0.625 c 1.031 0 1.367 -1.883 0.508 -2.844 l -0.477 -0.527 l 0.465 -0.375 c 0.672 -0.547 0.668 -2.813 -0.008 -3.578 l -0.461 -0.523 l 0.477 -0.34 c 0.43 -0.305 0.48 -0.52 0.48 -2.16 c 0 -1.926 -0.18 -2.359 -0.969 -2.359 c -0.25 0 -0.629 -0.199 -0.84 -0.445 c -0.43 -0.496 -1.168 -0.582 -1.555 -0.176 c -0.141 0.148 -0.254 0.859 -0.254 1.602 c 0 1.074 0.094 1.438 0.48 1.875 l 0.477 0.539 l -0.477 0.336 c -0.41 0.289 -0.48 0.535 -0.48 1.691 c 0 1.09 0.094 1.453 0.48 1.891 l 0.477 0.539 l -0.477 0.34 c -0.414 0.289 -0.48 0.531 -0.48 1.734 c 0 1.309 -0.164 1.668 -0.762 1.668 c -0.047 0 -0.09 -3.16 -0.09 -7.02 c 0 -6.434 0.031 -7.02 0.359 -7.02 c 0.199 0 0.574 -0.211 0.836 -0.469 c 0.621 -0.613 1.047 -0.367 0.602 0.344 c -0.293 0.469 -0.289 0.555 0.02 0.879 c 0.188 0.199 0.535 0.359 0.773 0.359 c 0.234 0 0.672 0.199 0.969 0.445 c 0.297 0.246 0.703 0.445 0.902 0.445 c 0.203 0 0.539 0.203 0.75 0.445 c 0.211 0.246 0.57 0.449 0.797 0.449 c 0.227 0 0.656 0.199 0.953 0.445 c 0.297 0.242 0.723 0.445 0.941 0.445 c 0.223 0 0.461 0.148 0.527 0.332 c 0.133 0.367 1.141 0.473 1.141 0.121 c 0 -0.117 0.203 -0.328 0.449 -0.465 c 0.57 -0.32 0.984 0.039 0.516 0.449 c -0.664 0.578 -0.285 1.348 0.668 1.348 c 0.176 0 0.563 0.199 0.859 0.445 c 0.75 0.617 2.559 0.617 3.305 0 c 0.301 -0.246 0.688 -0.445 0.863 -0.445 c 0.953 0 1.332 -0.77 0.668 -1.348 c -0.473 -0.41 -0.055 -0.773 0.516 -0.449 c 0.246 0.137 0.449 0.348 0.449 0.465 c 0 0.352 1.01 0.246 1.141 -0.121 c 0.066 -0.184 0.301 -0.332 0.523 -0.332 c 0.223 0 0.648 -0.203 0.945 -0.445 c 0.297 -0.246 0.742 -0.445 0.988 -0.445 c 0.246 0 0.609 -0.203 0.809 -0.449 c 0.203 -0.242 0.523 -0.445 0.715 -0.445 c 0.191 0 0.594 -0.199 0.891 -0.445 c 0.297 -0.246 0.734 -0.445 0.969 -0.445 c 0.238 0 0.586 -0.16 0.773 -0.359 c 0.309 -0.324 0.313 -0.41 0.016 -0.879 c -0.441 -0.711 -0.016 -0.957 0.605 -0.344 c 0.262 0.258 0.59 0.469 0.727 0.469 c 0.191 0 0.254 1.754 0.254 7.02 c 0 6 -0.047 7.02 -0.309 7.02 c -0.238 0 -0.324 -0.379 -0.375 -1.613 c -0.051 -1.363 -0.121 -1.625 -0.453 -1.691 c -0.219 -0.047 -0.527 0.125 -0.703 0.387 c -0.172 0.258 -0.52 0.465 -0.777 0.465 c -0.746 0 -1.598 1.293 -1.473 2.234 c 0.133 0.996 0.398 1.332 1.059 1.332 c 0.449 0 0.488 0.055 0.266 0.336 c -0.145 0.184 -0.477 0.332 -0.734 0.332 c -0.262 0 -0.648 0.203 -0.859 0.449 c -0.34 0.395 -1.383 0.637 -1.383 0.324 c 0 -0.066 0.188 -0.395 0.41 -0.727 c 0.324 -0.469 0.379 -0.797 0.266 -1.492 c -0.133 -0.801 -0.219 -0.898 -0.824 -0.961 c -0.504 -0.055 -0.73 0.047 -0.906 0.391 c -0.137 0.262 -0.449 0.457 -0.734 0.457 c -0.703 0 -0.875 0.375 -0.852 1.867 c 0.016 0.988 0.109 1.359 0.387 1.52 c 0.484 0.285 0.066 0.848 -0.629 0.848 c -0.418 0 -0.512 -0.145 -0.621 -0.945 c -0.074 -0.523 -0.102 -1.184 -0.066 -1.473 c 0.039 -0.313 -0.086 -0.629 -0.305 -0.777 c -0.301 -0.207 -0.434 -0.16 -0.703 0.246 c -0.184 0.273 -0.547 0.5 -0.801 0.5 c -0.277 0 -0.703 0.313 -1.051 0.766 c -0.984 1.293 -0.645 2.801 0.625 2.801 c 0.457 0 0.5 0.051 0.277 0.332 c -0.145 0.184 -0.5 0.336 -0.789 0.336 c -0.348 0 -0.563 0.152 -0.637 0.445 c -0.156 0.621 -1.453 0.637 -1.609 0.016 m 2.773 -5.367 c 0.145 -0.246 0.488 -0.445 0.754 -0.445 c 0.816 0 1.5 -1.211 1.5 -2.652 c 0 -0.898 -0.094 -1.281 -0.355 -1.453 c -0.281 -0.188 -0.43 -0.133 -0.691 0.262 c -0.184 0.273 -0.543 0.5 -0.797 0.5 c -0.277 0 -0.707 0.313 -1.051 0.766 c -0.477 0.625 -0.586 0.996 -0.586 1.973 c 0 0.66 0.063 1.266 0.141 1.348 c 0.277 0.289 0.824 0.141 1.086 -0.297 m 4.941 -2.676 c 0.125 -0.25 0.445 -0.445 0.723 -0.445 c 0.746 0 0.918 -0.418 0.781 -1.895 c -0.121 -1.309 -0.137 -1.34 -0.801 -1.406 c -0.508 -0.051 -0.734 0.047 -0.91 0.391 c -0.137 0.266 -0.449 0.457 -0.746 0.457 c -0.281 0 -0.586 0.125 -0.68 0.281 c -0.168 0.277 -0.113 2.582 0.07 2.895 c 0.211 0.367 1.336 0.164 1.563 -0.277 m -4.941 -1.781 c 0.145 -0.246 0.488 -0.449 0.754 -0.449 c 0.309 0 0.688 -0.27 1.01 -0.723 c 0.43 -0.602 0.504 -0.93 0.441 -1.949 c -0.102 -1.781 -0.637 -2.258 -1.512 -1.344 c -0.23 0.238 -0.684 0.508 -1.01 0.59 c -0.324 0.082 -0.66 0.262 -0.746 0.395 c -0.195 0.309 -0.215 3.574 -0.023 3.773 c 0.277 0.293 0.824 0.145 1.086 -0.297 m 8.504 0.004 c 0.148 -0.246 0.48 -0.449 0.742 -0.449 c 0.293 0 0.711 -0.305 1.074 -0.781 c 0.52 -0.684 0.586 -0.941 0.531 -2.059 c -0.051 -1.035 -0.141 -1.293 -0.457 -1.355 c -0.219 -0.043 -0.527 0.125 -0.703 0.387 c -0.172 0.258 -0.527 0.465 -0.789 0.465 c -0.781 0 -1.492 1.223 -1.492 2.566 c 0 1.645 0.508 2.211 1.094 1.227 m -3.563 -2.676 c 0.129 -0.258 0.445 -0.445 0.738 -0.445 c 0.281 0 0.578 -0.117 0.66 -0.258 c 0.121 -0.203 0.188 -2.605 0.105 -3.758 c -0.023 -0.328 -0.566 -0.27 -0.855 0.098 c -0.141 0.176 -0.531 0.387 -0.871 0.465 c -0.34 0.078 -0.848 0.426 -1.125 0.773 c -0.434 0.539 -0.492 0.813 -0.414 1.824 c 0.129 1.652 0.176 1.746 0.895 1.746 c 0.422 0 0.715 -0.152 0.867 -0.445 m 3.563 -1.785 c 0.148 -0.246 0.48 -0.445 0.742 -0.445 c 0.289 0 0.711 -0.305 1.063 -0.77 c 1.348 -1.77 0.316 -4.742 -1.121 -3.234 c -0.238 0.246 -0.719 0.512 -1.063 0.582 c -0.348 0.074 -0.641 0.223 -0.648 0.328 c -0.086 1.035 -0.016 3.527 0.102 3.73 c 0.23 0.387 0.633 0.305 0.926 -0.191 m -14.258 12.789 c -0.301 -0.313 -0.137 -0.527 0.398 -0.527 c 0.344 0 0.516 0.105 0.461 0.277 c -0.102 0.324 -0.641 0.48 -0.859 0.25 m 6.492 -0.137 c 0.047 -0.152 0.41 -0.313 0.801 -0.352 c 0.633 -0.063 0.684 -0.031 0.438 0.277 c -0.336 0.422 -1.367 0.484 -1.238 0.074 m -9.895 -1.645 c -0.301 -0.316 -0.137 -0.527 0.398 -0.527 c 0.344 0 0.516 0.102 0.461 0.277 c -0.102 0.32 -0.641 0.477 -0.859 0.25 m 13.352 -0.086 c -0.133 -0.223 0.016 -0.309 0.902 -0.516 c 0.531 -0.121 0.617 0.063 0.223 0.473 c -0.309 0.328 -0.945 0.352 -1.125 0.043 m -9.156 -1.664 c -0.355 -0.285 -0.367 -0.359 -0.094 -0.555 c 0.422 -0.297 0.484 -0.289 0.973 0.098 c 0.355 0.289 0.367 0.363 0.094 0.555 c -0.422 0.297 -0.484 0.289 -0.973 -0.098 m -9.301 -0.926 c -0.297 -0.313 -0.133 -0.527 0.402 -0.527 c 0.344 0 0.516 0.102 0.461 0.277 c -0.102 0.324 -0.645 0.48 -0.863 0.25 m 23.508 -0.137 c 0.047 -0.156 0.406 -0.313 0.801 -0.352 c 0.629 -0.066 0.68 -0.031 0.434 0.277 c -0.332 0.422 -1.363 0.484 -1.234 0.074 m -22.711 -3.398 c -0.355 -0.285 -0.371 -0.359 -0.094 -0.551 c 0.422 -0.297 0.484 -0.289 0.969 0.098 c 0.359 0.285 0.371 0.359 0.094 0.555 c -0.418 0.293 -0.484 0.289 -0.969 -0.102 m 8.504 0 c -0.355 -0.285 -0.367 -0.359 -0.094 -0.551 c 0.422 -0.297 0.484 -0.289 0.973 0.098 c 0.355 0.285 0.367 0.359 0.094 0.555 c -0.422 0.293 -0.484 0.289 -0.973 -0.102 m -8.504 -4.457 c -0.355 -0.285 -0.371 -0.359 -0.094 -0.555 c 0.422 -0.293 0.484 -0.289 0.969 0.102 c 0.359 0.285 0.371 0.359 0.094 0.555 c -0.418 0.293 -0.484 0.285 -0.969 -0.102 m 9.379 -3.668 c -0.07 -0.113 -0.035 -0.266 0.074 -0.336 c 0.277 -0.18 0.895 0.105 0.75 0.344 c -0.152 0.262 -0.672 0.258 -0.824 -0.008 m 3.406 0.008 c -0.145 -0.238 0.473 -0.523 0.75 -0.344 c 0.109 0.07 0.145 0.223 0.074 0.336 c -0.152 0.266 -0.672 0.27 -0.824 0.008 m -1.719 -0.914 c -0.16 -0.277 0.426 -0.543 0.738 -0.34 c 0.125 0.082 0.172 0.242 0.105 0.355 c -0.164 0.273 -0.676 0.266 -0.844 -0.016 m -7.559 -0.898 c -0.238 -0.156 -0.223 -0.223 0.086 -0.344 c 0.211 -0.086 0.477 -0.055 0.594 0.07 c 0.285 0.297 -0.285 0.527 -0.68 0.273 m 15.309 0 c -0.238 -0.156 -0.223 -0.223 0.086 -0.344 c 0.211 -0.086 0.477 -0.055 0.594 0.07 c 0.285 0.297 -0.285 0.527 -0.68 0.273 m -13.688 -0.859 c -0.063 -0.113 0 -0.246 0.148 -0.305 c 0.371 -0.141 0.82 0.055 0.676 0.297 c -0.152 0.262 -0.672 0.266 -0.824 0.008 m 3.402 0 c -0.141 -0.242 0.477 -0.523 0.754 -0.344 c 0.109 0.07 0.141 0.219 0.074 0.336 c -0.156 0.262 -0.676 0.266 -0.828 0.008 m 5.098 -0.008 c -0.066 -0.117 -0.031 -0.266 0.074 -0.336 c 0.277 -0.18 0.898 0.102 0.754 0.344 c -0.152 0.258 -0.672 0.254 -0.828 -0.008 m 3.406 0.008 c -0.063 -0.113 0.004 -0.246 0.148 -0.305 c 0.371 -0.141 0.82 0.055 0.68 0.297 c -0.156 0.262 -0.676 0.266 -0.828 0.008 m -10.219 -0.918 c -0.164 -0.273 0.422 -0.543 0.738 -0.336 c 0.125 0.078 0.168 0.238 0.102 0.352 c -0.16 0.277 -0.676 0.266 -0.84 -0.016 m 8.504 0 c -0.16 -0.273 0.422 -0.543 0.738 -0.336 c 0.125 0.078 0.172 0.238 0.105 0.352 c -0.164 0.277 -0.676 0.266 -0.844 -0.016 m -9.988 -0.887 c -0.172 -0.289 0.316 -0.535 0.559 -0.281 c 0.137 0.141 0.098 0.262 -0.117 0.348 c -0.18 0.074 -0.379 0.043 -0.441 -0.066 m 11.816 0.008 c -0.211 -0.137 -0.219 -0.219 -0.023 -0.344 c 0.141 -0.09 0.348 -0.063 0.465 0.059 c 0.277 0.289 -0.078 0.523 -0.441 0.285 m -16.07 -0.238 c 0.074 -0.125 0.223 -0.168 0.332 -0.098 c 0.297 0.191 0.242 0.324 -0.133 0.324 c -0.184 0 -0.27 -0.102 -0.199 -0.227 m 20.414 0 c 0.074 -0.125 0.223 -0.168 0.332 -0.098 c 0.293 0.191 0.238 0.324 -0.133 0.324 c -0.184 0 -0.273 -0.102 -0.199 -0.227 m -12.11 -0.641 c -0.063 -0.109 0.004 -0.246 0.148 -0.301 c 0.371 -0.145 0.824 0.051 0.68 0.297 c -0.156 0.258 -0.672 0.262 -0.828 0.004 m 3.402 0 c -0.063 -0.109 0.004 -0.246 0.148 -0.301 c 0.371 -0.145 0.82 0.051 0.68 0.297 c -0.156 0.258 -0.676 0.262 -0.828 0.004 m -9.578 -0.332 c 0.348 -0.16 0.766 -0.457 0.93 -0.66 c 0.297 -0.379 0.875 -0.508 0.875 -0.195 c 0 0.094 -0.148 0.395 -0.332 0.668 c -0.254 0.379 -0.535 0.492 -1.223 0.484 l -0.891 -0.008 l 0.637 -0.289 m 15.11 -0.188 c -0.184 -0.273 -0.332 -0.574 -0.332 -0.668 c 0 -0.313 0.578 -0.184 0.875 0.195 c 0.164 0.203 0.582 0.5 0.93 0.66 l 0.641 0.289 l -0.891 0.012 c -0.688 0.004 -0.969 -0.105 -1.223 -0.488 m -7.242 -0.398 c -0.164 -0.273 0.422 -0.539 0.738 -0.336 c 0.121 0.078 0.168 0.238 0.102 0.352 c -0.16 0.277 -0.676 0.266 -0.84 -0.016 m -1.477 -0.871 c -0.07 -0.117 -0.035 -0.27 0.074 -0.34 c 0.113 -0.074 0.258 -0.039 0.328 0.078 c 0.066 0.117 0.031 0.27 -0.078 0.344 c -0.109 0.07 -0.258 0.035 -0.324 -0.082 m 3.402 0 c -0.07 -0.117 -0.035 -0.27 0.074 -0.34 c 0.113 -0.074 0.258 -0.039 0.328 0.078 c 0.066 0.117 0.031 0.27 -0.078 0.344 c -0.109 0.07 -0.258 0.035 -0.324 -0.082 m -6.813 -0.246 c 0.07 -0.125 0.223 -0.168 0.328 -0.098 c 0.297 0.191 0.242 0.324 -0.133 0.324 c -0.18 0 -0.27 -0.102 -0.195 -0.227 m 10.203 0 c 0.074 -0.125 0.223 -0.168 0.332 -0.098 c 0.297 0.191 0.242 0.324 -0.133 0.324 c -0.184 0 -0.27 -0.102 -0.199 -0.227 m -8.504 -0.891 c 0.074 -0.125 0.223 -0.168 0.332 -0.098 c 0.293 0.191 0.238 0.324 -0.133 0.324 c -0.184 0 -0.273 -0.102 -0.199 -0.227 m 6.805 0 c 0.074 -0.125 0.223 -0.168 0.332 -0.098 c 0.293 0.191 0.238 0.324 -0.133 0.324 c -0.184 0 -0.273 -0.102 -0.199 -0.227 m -5.105 -0.891 c 0.074 -0.125 0.223 -0.172 0.332 -0.102 c 0.297 0.191 0.242 0.328 -0.133 0.328 c -0.184 0 -0.27 -0.105 -0.199 -0.227 m 3.402 0 c 0.074 -0.125 0.223 -0.172 0.332 -0.102 c 0.297 0.191 0.242 0.328 -0.133 0.328 c -0.184 0 -0.27 -0.105 -0.199 -0.227 m -2.082 -0.805 c -0.328 -0.348 -0.117 -0.531 0.609 -0.531 c 0.516 0 0.734 0.09 0.676 0.277 c -0.098 0.313 -1.051 0.5 -1.285 0.254" fill="#111210"/></svg>