<svg xmlns="http://www.w3.org/2000/svg" viewBox="0 0 48 48"><path d="m 8.246 39.801 c -24.355 -19.504 11.301 -54.711 32.852 -32.22 c 21.598 19.355 -12.11 56.926 -32.852 32.22" fill="#2f4e4e"/><g fill="#fff" fill-rule="evenodd"><path d="m 17.703 38.559 v -1.473 h 5 l 0.031 -7.879 c 0.023 -6.02 0.063 -7.914 0.168 -8.04 c 0.578 -0.695 0.785 -0.871 1.094 -0.934 c 0.191 -0.039 0.352 -0.113 0.352 -0.168 c 0 -0.125 0.281 -0.121 0.52 0.008 c 0.105 0.059 0.352 0.168 0.547 0.246 c 0.207 0.082 0.387 0.246 0.418 0.379 c 0.035 0.133 0.129 0.266 0.215 0.297 c 0.086 0.035 0.152 0.16 0.152 0.281 c 0 0.121 0.051 0.223 0.109 0.223 c 0.074 0 0.109 2.672 0.109 7.793 v 7.797 h 5.234 v 2.941 h -13.953"/><path d="m 17.832 22.664 c -0.02 -1.145 0.117 -2.211 0.297 -2.363 c 0.035 -0.031 0.188 -0.301 0.336 -0.602 c 0.152 -0.297 0.336 -0.582 0.41 -0.629 c 0.074 -0.051 0.137 -0.141 0.137 -0.207 c 0 -0.063 0.324 -0.43 0.719 -0.813 c 0.723 -0.695 2.039 -1.457 2.527 -1.457 c 0.121 0 0.242 -0.063 0.27 -0.137 c 0.059 -0.18 3.539 -0.195 3.656 -0.02 c 0.043 0.066 0.309 0.184 0.594 0.262 c 0.285 0.078 0.52 0.172 0.52 0.215 c 0 0.039 0.184 0.137 0.406 0.219 c 0.449 0.164 2.211 1.859 2.211 2.133 c 0 0.09 0.039 0.164 0.09 0.164 c 0.051 0 0.156 0.195 0.234 0.434 c 0.082 0.242 0.184 0.438 0.227 0.438 c 0.047 0 0.117 0.195 0.156 0.438 c 0.039 0.238 0.117 0.434 0.172 0.434 c 0.059 0 0.09 0.609 0.078 1.391 c -0.023 1.359 -0.023 1.367 -0.059 0.305 c -0.02 -0.594 -0.078 -1.137 -0.133 -1.199 c -0.051 -0.063 -0.129 -0.297 -0.172 -0.523 c -0.039 -0.223 -0.113 -0.406 -0.16 -0.406 c -0.047 0 -0.117 -0.176 -0.156 -0.391 c -0.039 -0.211 -0.141 -0.41 -0.219 -0.441 c -0.082 -0.031 -0.18 -0.18 -0.215 -0.324 c -0.07 -0.27 -1.418 -1.68 -1.605 -1.68 c -0.094 0 -0.219 -0.086 -0.57 -0.398 c -0.078 -0.07 -0.359 -0.191 -0.621 -0.266 c -0.266 -0.074 -0.543 -0.184 -0.617 -0.238 c -0.074 -0.059 -0.457 -0.129 -0.848 -0.16 c -0.391 -0.031 -0.738 -0.102 -0.77 -0.152 c -0.078 -0.121 -0.672 -0.121 -0.746 0 c -0.031 0.051 -0.414 0.121 -0.848 0.16 c -0.438 0.035 -0.813 0.117 -0.832 0.18 c -0.02 0.063 -0.117 0.113 -0.211 0.113 c -0.242 0 -0.898 0.246 -0.898 0.336 c 0 0.043 -0.121 0.105 -0.273 0.145 c -0.148 0.035 -0.27 0.117 -0.27 0.176 c 0 0.059 -0.066 0.105 -0.145 0.105 c -0.082 0 -0.25 0.109 -0.375 0.246 c -0.125 0.133 -0.43 0.434 -0.672 0.664 c -0.246 0.23 -0.445 0.488 -0.445 0.574 c 0 0.082 -0.051 0.152 -0.109 0.152 c -0.059 0 -0.109 0.051 -0.109 0.117 c 0 0.066 -0.098 0.242 -0.219 0.398 c -0.117 0.152 -0.215 0.367 -0.215 0.48 c 0 0.109 -0.043 0.203 -0.098 0.203 c -0.152 0 -0.262 0.621 -0.34 1.961 l -0.07 1.254"/><path d="m 13.945 22.11 c 0.023 -0.836 0.09 -1.547 0.145 -1.582 c 0.055 -0.035 0.133 -0.285 0.18 -0.555 c 0.043 -0.27 0.172 -0.695 0.285 -0.945 c 0.113 -0.254 0.203 -0.512 0.203 -0.574 c 0 -0.063 0.051 -0.113 0.109 -0.113 c 0.063 0 0.109 -0.07 0.109 -0.156 c 0 -0.086 0.066 -0.223 0.148 -0.305 c 0.082 -0.082 0.184 -0.254 0.223 -0.379 c 0.039 -0.125 0.156 -0.324 0.258 -0.445 c 0.105 -0.125 0.262 -0.336 0.352 -0.473 c 0.09 -0.137 0.313 -0.406 0.492 -0.602 c 0.18 -0.195 0.402 -0.441 0.496 -0.551 c 0.094 -0.109 0.309 -0.297 0.48 -0.418 c 0.172 -0.117 0.395 -0.297 0.5 -0.398 c 0.105 -0.098 0.293 -0.211 0.422 -0.25 c 0.125 -0.039 0.227 -0.117 0.227 -0.168 c 0 -0.051 0.172 -0.156 0.383 -0.234 c 0.207 -0.074 0.379 -0.172 0.379 -0.215 c 0 -0.043 0.148 -0.109 0.328 -0.148 c 0.18 -0.043 0.328 -0.113 0.328 -0.16 c 0 -0.047 0.234 -0.148 0.516 -0.227 c 0.285 -0.078 0.547 -0.18 0.578 -0.227 c 0.031 -0.047 0.496 -0.141 1.035 -0.211 c 0.535 -0.07 1.063 -0.168 1.168 -0.223 c 0.258 -0.137 1.906 -0.125 1.988 0.008 c 0.039 0.063 0.238 0.109 0.441 0.109 c 0.52 0 1.902 0.246 1.902 0.34 c 0 0.043 0.246 0.137 0.547 0.207 c 0.301 0.07 0.543 0.172 0.543 0.227 c 0 0.055 0.125 0.125 0.273 0.164 c 0.148 0.039 0.273 0.105 0.273 0.148 c 0 0.043 0.191 0.145 0.43 0.223 c 0.238 0.078 0.457 0.207 0.488 0.289 c 0.031 0.082 0.129 0.148 0.223 0.148 c 0.094 0 0.168 0.051 0.168 0.109 c 0 0.063 0.129 0.172 0.285 0.242 c 0.48 0.219 1.676 1.48 1.676 1.766 c 0 0.18 -0.266 -0.008 -0.922 -0.645 c -0.402 -0.391 -0.762 -0.711 -0.805 -0.711 c -0.039 0 -0.238 -0.148 -0.445 -0.328 c -0.203 -0.184 -0.484 -0.359 -0.625 -0.395 c -0.141 -0.035 -0.254 -0.098 -0.254 -0.145 c 0 -0.043 -0.199 -0.145 -0.438 -0.223 c -0.238 -0.078 -0.438 -0.184 -0.438 -0.23 c 0 -0.047 -0.184 -0.121 -0.406 -0.16 c -0.227 -0.043 -0.438 -0.121 -0.473 -0.176 c -0.035 -0.051 -0.406 -0.148 -0.82 -0.207 c -0.414 -0.063 -0.836 -0.16 -0.941 -0.215 c -0.246 -0.133 -3.082 -0.133 -3.328 0 c -0.105 0.055 -0.531 0.152 -0.949 0.215 c -0.422 0.063 -0.781 0.164 -0.801 0.227 c -0.02 0.063 -0.152 0.113 -0.293 0.113 c -0.141 0 -0.324 0.066 -0.41 0.152 c -0.086 0.086 -0.359 0.215 -0.609 0.289 c -0.246 0.074 -0.453 0.164 -0.453 0.203 c 0 0.035 -0.156 0.133 -0.352 0.219 c -0.195 0.082 -0.379 0.184 -0.41 0.223 c -0.031 0.039 -0.246 0.215 -0.48 0.391 c -0.516 0.383 -1.699 1.527 -1.699 1.637 c 0 0.043 -0.113 0.18 -0.246 0.305 c -0.137 0.129 -0.316 0.391 -0.395 0.586 c -0.082 0.195 -0.188 0.355 -0.23 0.355 c -0.047 0 -0.117 0.121 -0.156 0.273 c -0.035 0.148 -0.113 0.27 -0.168 0.27 c -0.055 0 -0.137 0.172 -0.176 0.383 c -0.039 0.211 -0.109 0.383 -0.156 0.383 c -0.043 0 -0.145 0.328 -0.219 0.734 c -0.078 0.406 -0.18 0.762 -0.23 0.797 c -0.047 0.031 -0.137 0.668 -0.195 1.414 l -0.105 1.359"/><path d="m 10.359 25.355 c -0.039 -0.281 -0.07 -0.648 -0.07 -0.82 c 0 -0.172 -0.047 -0.313 -0.109 -0.313 c -0.066 0 -0.109 -0.617 -0.109 -1.633 c 0 -0.898 0.043 -1.637 0.094 -1.637 c 0.055 0 0.129 -0.352 0.168 -0.781 c 0.039 -0.43 0.113 -0.836 0.168 -0.898 c 0.051 -0.066 0.156 -0.398 0.23 -0.746 c 0.078 -0.344 0.176 -0.625 0.219 -0.625 c 0.043 0 0.113 -0.172 0.152 -0.383 c 0.039 -0.211 0.117 -0.383 0.176 -0.383 c 0.055 0 0.102 -0.055 0.102 -0.125 c 0 -0.172 0.574 -1.336 0.68 -1.383 c 0.047 -0.02 0.086 -0.105 0.086 -0.191 c 0 -0.09 0.074 -0.188 0.164 -0.223 c 0.09 -0.035 0.16 -0.133 0.16 -0.219 c 0 -0.086 0.074 -0.184 0.164 -0.215 c 0.09 -0.035 0.164 -0.129 0.164 -0.211 c 0 -0.082 0.066 -0.188 0.148 -0.234 c 0.082 -0.047 0.211 -0.207 0.289 -0.355 c 0.078 -0.148 0.285 -0.395 0.461 -0.547 c 0.176 -0.152 0.605 -0.543 0.961 -0.875 c 1.031 -0.965 1.238 -1.133 1.637 -1.332 c 0.207 -0.105 0.449 -0.238 0.539 -0.293 c 0.766 -0.477 1.355 -0.777 1.73 -0.891 c 0.246 -0.074 0.449 -0.176 0.449 -0.227 c 0 -0.051 0.086 -0.09 0.191 -0.094 c 0.105 0 0.32 -0.066 0.48 -0.148 c 0.156 -0.086 0.648 -0.215 1.09 -0.293 c 0.438 -0.078 0.836 -0.191 0.879 -0.258 c 0.105 -0.16 5.184 -0.16 5.293 0 c 0.043 0.066 0.438 0.18 0.879 0.258 c 0.441 0.078 0.93 0.207 1.09 0.293 c 0.16 0.082 0.375 0.148 0.48 0.148 c 0.105 0.004 0.191 0.047 0.191 0.102 c 0 0.051 0.133 0.129 0.297 0.168 c 0.379 0.094 1.238 0.508 1.426 0.688 c 0.082 0.074 0.211 0.137 0.293 0.137 c 0.082 0 0.211 0.059 0.293 0.137 c 0.078 0.074 0.289 0.207 0.469 0.297 c 0.18 0.09 0.426 0.262 0.547 0.383 c 0.117 0.121 0.348 0.289 0.504 0.367 c 0.16 0.082 0.352 0.266 0.43 0.406 c 0.074 0.145 0.172 0.262 0.219 0.262 c 0.074 0 0.969 0.883 1.52 1.504 c 0.148 0.168 0.344 0.453 0.434 0.629 c 0.09 0.176 0.227 0.359 0.301 0.406 c 0.074 0.051 0.137 0.16 0.137 0.246 c 0 0.086 0.047 0.16 0.109 0.16 c 0.059 0 0.109 0.074 0.109 0.164 c 0 0.094 0.07 0.195 0.164 0.23 c 0.09 0.035 0.16 0.133 0.16 0.215 c 0 0.086 0.098 0.336 0.219 0.559 c 0.121 0.227 0.25 0.566 0.285 0.766 c 0.035 0.195 0.105 0.355 0.152 0.355 c 0.051 0 0.121 0.195 0.164 0.434 c 0.039 0.242 0.113 0.438 0.16 0.438 c 0.047 0 0.121 0.234 0.164 0.52 c 0.043 0.285 0.133 0.586 0.203 0.668 c 0.176 0.219 0.176 5.109 0 5.223 c -0.07 0.043 -0.148 0.223 -0.176 0.402 c -0.047 0.313 -0.047 0.309 -0.063 -0.059 c -0.012 -0.215 0.039 -0.445 0.109 -0.516 c 0.168 -0.168 0.176 -4.156 0.012 -4.258 c -0.063 -0.039 -0.148 -0.379 -0.191 -0.754 c -0.043 -0.375 -0.121 -0.68 -0.176 -0.68 c -0.055 0 -0.098 -0.102 -0.098 -0.227 c 0 -0.121 -0.094 -0.43 -0.207 -0.68 c -0.113 -0.25 -0.238 -0.617 -0.281 -0.813 c -0.043 -0.195 -0.117 -0.355 -0.168 -0.355 c -0.051 0 -0.125 -0.145 -0.164 -0.324 c -0.039 -0.18 -0.113 -0.328 -0.168 -0.328 c -0.055 0 -0.129 -0.117 -0.164 -0.266 c -0.039 -0.145 -0.129 -0.289 -0.207 -0.316 c -0.078 -0.031 -0.172 -0.184 -0.215 -0.344 c -0.039 -0.16 -0.191 -0.402 -0.34 -0.539 c -0.148 -0.137 -0.266 -0.289 -0.266 -0.336 c 0 -0.047 -0.102 -0.188 -0.219 -0.313 c -1.16 -1.219 -1.766 -1.813 -1.855 -1.813 c -0.059 0 -0.109 -0.047 -0.109 -0.109 c 0 -0.059 -0.047 -0.105 -0.109 -0.105 c -0.059 0 -0.199 -0.086 -0.313 -0.191 c -0.363 -0.34 -0.707 -0.574 -0.84 -0.574 c -0.07 0 -0.156 -0.066 -0.191 -0.152 c -0.031 -0.082 -0.203 -0.184 -0.383 -0.223 c -0.18 -0.043 -0.352 -0.145 -0.387 -0.23 c -0.031 -0.086 -0.125 -0.156 -0.207 -0.156 c -0.078 0 -0.348 -0.098 -0.598 -0.219 c -0.246 -0.121 -0.5 -0.219 -0.566 -0.219 c -0.063 0 -0.113 -0.047 -0.113 -0.109 c 0 -0.059 -0.082 -0.109 -0.184 -0.109 c -0.195 0 -0.852 -0.188 -1.137 -0.328 c -0.094 -0.051 -0.414 -0.121 -0.707 -0.164 c -0.293 -0.043 -0.602 -0.133 -0.688 -0.199 c -0.215 -0.172 -5.148 -0.172 -5.363 0 c -0.082 0.066 -0.41 0.16 -0.723 0.199 c -0.316 0.043 -0.574 0.113 -0.574 0.156 c 0 0.039 -0.293 0.141 -0.652 0.219 c -0.359 0.082 -0.656 0.184 -0.656 0.23 c 0 0.047 -0.125 0.113 -0.281 0.152 c -0.434 0.109 -1.352 0.531 -1.352 0.621 c 0 0.043 -0.152 0.113 -0.336 0.152 c -0.184 0.039 -0.359 0.141 -0.391 0.227 c -0.035 0.086 -0.129 0.152 -0.215 0.152 c -0.086 0 -0.184 0.074 -0.219 0.164 c -0.035 0.09 -0.133 0.164 -0.215 0.164 c -0.082 0 -0.238 0.086 -0.348 0.191 c -0.105 0.105 -0.375 0.328 -0.602 0.496 c -0.648 0.492 -1.82 1.734 -2.059 2.191 c -0.066 0.125 -0.188 0.266 -0.266 0.316 c -0.082 0.047 -0.148 0.156 -0.148 0.242 c 0 0.09 -0.051 0.16 -0.109 0.16 c -0.059 0 -0.109 0.074 -0.109 0.168 c 0 0.09 -0.066 0.191 -0.148 0.223 c -0.082 0.031 -0.211 0.25 -0.289 0.488 c -0.078 0.234 -0.18 0.43 -0.227 0.43 c -0.043 0 -0.113 0.145 -0.152 0.324 c -0.039 0.18 -0.117 0.328 -0.172 0.328 c -0.055 0 -0.102 0.086 -0.105 0.191 c 0 0.105 -0.098 0.387 -0.215 0.625 c -0.113 0.242 -0.211 0.547 -0.215 0.684 c 0 0.133 -0.043 0.246 -0.094 0.246 c -0.113 0 -0.344 1.586 -0.344 2.371 c 0 0.313 -0.051 0.57 -0.109 0.57 c -0.133 0 -0.148 1.117 -0.016 1.258 c 0.094 0.102 0.277 2.34 0.195 2.34 c -0.023 0 -0.074 -0.227 -0.109 -0.504"/><path d="m 17.832 22.992 c -0.02 -1.145 0.117 -2.211 0.297 -2.363 c 0.035 -0.031 0.188 -0.301 0.336 -0.602 c 0.152 -0.297 0.336 -0.582 0.41 -0.629 c 0.074 -0.051 0.137 -0.141 0.137 -0.207 c 0 -0.063 0.324 -0.43 0.719 -0.813 c 0.723 -0.695 2.039 -1.457 2.527 -1.457 c 0.121 0 0.242 -0.063 0.27 -0.137 c 0.059 -0.18 3.539 -0.195 3.656 -0.02 c 0.043 0.066 0.309 0.184 0.594 0.262 c 0.285 0.078 0.52 0.172 0.52 0.215 c 0 0.039 0.184 0.137 0.406 0.219 c 0.449 0.164 2.211 1.859 2.211 2.133 c 0 0.09 0.039 0.164 0.09 0.164 c 0.051 0 0.156 0.195 0.234 0.434 c 0.082 0.242 0.184 0.438 0.227 0.438 c 0.047 0 0.117 0.195 0.156 0.438 c 0.039 0.238 0.117 0.434 0.172 0.434 c 0.059 0 0.09 0.609 0.078 1.391 c -0.023 1.359 -0.023 1.367 -0.059 0.305 c -0.02 -0.594 -0.078 -1.137 -0.133 -1.199 c -0.051 -0.063 -0.129 -0.297 -0.172 -0.523 c -0.039 -0.223 -0.113 -0.406 -0.16 -0.406 c -0.047 0 -0.117 -0.176 -0.156 -0.391 c -0.039 -0.211 -0.141 -0.41 -0.219 -0.441 c -0.082 -0.031 -0.18 -0.18 -0.215 -0.324 c -0.07 -0.27 -1.418 -1.68 -1.605 -1.68 c -0.094 0 -0.219 -0.086 -0.57 -0.398 c -0.078 -0.07 -0.359 -0.191 -0.621 -0.266 c -0.266 -0.074 -0.543 -0.184 -0.617 -0.238 c -0.074 -0.059 -0.457 -0.129 -0.848 -0.16 c -0.391 -0.031 -0.738 -0.102 -0.77 -0.152 c -0.078 -0.121 -0.672 -0.121 -0.746 0 c -0.031 0.051 -0.414 0.121 -0.848 0.16 c -0.438 0.035 -0.813 0.117 -0.832 0.18 c -0.02 0.063 -0.117 0.113 -0.211 0.113 c -0.242 0 -0.898 0.246 -0.898 0.336 c 0 0.043 -0.121 0.105 -0.273 0.145 c -0.148 0.035 -0.27 0.117 -0.27 0.176 c 0 0.059 -0.066 0.105 -0.145 0.105 c -0.082 0 -0.25 0.109 -0.375 0.246 c -0.125 0.133 -0.43 0.434 -0.672 0.664 c -0.246 0.23 -0.445 0.488 -0.445 0.574 c 0 0.082 -0.051 0.152 -0.109 0.152 c -0.059 0 -0.109 0.051 -0.109 0.117 c 0 0.066 -0.098 0.242 -0.219 0.398 c -0.117 0.152 -0.215 0.367 -0.215 0.48 c 0 0.109 -0.043 0.203 -0.098 0.203 c -0.152 0 -0.262 0.621 -0.34 1.961 l -0.07 1.254"/><path d="m 34.773 22.11 c -0.023 -0.836 -0.09 -1.547 -0.145 -1.582 c -0.055 -0.035 -0.133 -0.285 -0.18 -0.555 c -0.043 -0.27 -0.172 -0.695 -0.285 -0.945 c -0.113 -0.254 -0.207 -0.512 -0.207 -0.574 c 0 -0.063 -0.047 -0.113 -0.105 -0.113 c -0.063 0 -0.109 -0.07 -0.109 -0.156 c 0 -0.086 -0.07 -0.223 -0.152 -0.305 c -0.078 -0.082 -0.18 -0.254 -0.219 -0.379 c -0.039 -0.125 -0.156 -0.324 -0.262 -0.445 c -0.102 -0.125 -0.258 -0.336 -0.348 -0.473 c -0.094 -0.137 -0.313 -0.406 -0.492 -0.602 c -0.18 -0.195 -0.402 -0.441 -0.496 -0.551 c -0.094 -0.109 -0.309 -0.297 -0.48 -0.418 c -0.172 -0.117 -0.395 -0.297 -0.5 -0.398 c -0.105 -0.098 -0.293 -0.211 -0.422 -0.25 c -0.125 -0.039 -0.227 -0.117 -0.227 -0.168 c 0 -0.051 -0.172 -0.156 -0.383 -0.234 c -0.211 -0.074 -0.383 -0.172 -0.383 -0.215 c 0 -0.043 -0.145 -0.109 -0.324 -0.148 c -0.18 -0.043 -0.328 -0.113 -0.328 -0.16 c 0 -0.047 -0.234 -0.148 -0.52 -0.227 c -0.285 -0.078 -0.543 -0.18 -0.574 -0.227 c -0.031 -0.047 -0.496 -0.141 -1.035 -0.211 c -0.539 -0.07 -1.063 -0.168 -1.168 -0.223 c -0.258 -0.137 -1.906 -0.125 -1.988 0.008 c -0.039 0.063 -0.238 0.109 -0.441 0.109 c -0.52 0 -1.902 0.246 -1.902 0.34 c 0 0.043 -0.246 0.137 -0.547 0.207 c -0.301 0.07 -0.547 0.172 -0.547 0.227 c 0 0.055 -0.121 0.125 -0.27 0.164 c -0.152 0.039 -0.273 0.105 -0.273 0.148 c 0 0.043 -0.195 0.145 -0.43 0.223 c -0.238 0.078 -0.457 0.207 -0.488 0.289 c -0.031 0.082 -0.133 0.148 -0.223 0.148 c -0.094 0 -0.168 0.051 -0.168 0.109 c 0 0.063 -0.129 0.172 -0.285 0.242 c -0.48 0.219 -1.676 1.48 -1.676 1.766 c 0 0.18 0.262 -0.008 0.922 -0.645 c 0.402 -0.391 0.762 -0.711 0.805 -0.711 c 0.039 0 0.238 -0.148 0.441 -0.328 c 0.207 -0.184 0.488 -0.359 0.629 -0.395 c 0.141 -0.035 0.254 -0.098 0.254 -0.145 c 0 -0.043 0.195 -0.145 0.438 -0.223 c 0.238 -0.078 0.438 -0.184 0.438 -0.23 c 0 -0.047 0.184 -0.121 0.406 -0.16 c 0.227 -0.043 0.438 -0.121 0.473 -0.176 c 0.035 -0.051 0.402 -0.148 0.816 -0.207 c 0.418 -0.063 0.84 -0.16 0.945 -0.215 c 0.246 -0.133 3.082 -0.133 3.328 0 c 0.102 0.055 0.531 0.152 0.949 0.215 c 0.422 0.063 0.781 0.164 0.801 0.227 c 0.02 0.063 0.152 0.113 0.293 0.113 c 0.141 0 0.324 0.066 0.41 0.152 c 0.086 0.086 0.359 0.215 0.605 0.289 c 0.25 0.074 0.453 0.164 0.453 0.203 c 0 0.035 0.16 0.133 0.355 0.219 c 0.195 0.082 0.379 0.184 0.41 0.223 c 0.027 0.039 0.246 0.215 0.48 0.391 c 0.512 0.383 1.699 1.527 1.699 1.637 c 0 0.043 0.109 0.18 0.246 0.305 c 0.137 0.129 0.316 0.391 0.395 0.586 c 0.082 0.195 0.188 0.355 0.23 0.355 c 0.047 0 0.117 0.121 0.152 0.273 c 0.039 0.148 0.117 0.27 0.172 0.27 c 0.055 0 0.133 0.172 0.172 0.383 c 0.043 0.211 0.113 0.383 0.156 0.383 c 0.047 0 0.148 0.328 0.223 0.734 c 0.078 0.406 0.18 0.762 0.227 0.797 c 0.051 0.031 0.141 0.668 0.199 1.414 l 0.102 1.359"/><path d="m 34.773 22.438 c -0.023 -0.836 -0.09 -1.547 -0.145 -1.582 c -0.055 -0.035 -0.133 -0.285 -0.18 -0.555 c -0.043 -0.27 -0.172 -0.695 -0.285 -0.945 c -0.113 -0.254 -0.207 -0.512 -0.207 -0.574 c 0 -0.063 -0.047 -0.113 -0.105 -0.113 c -0.063 0 -0.109 -0.07 -0.109 -0.156 c 0 -0.086 -0.07 -0.223 -0.152 -0.305 c -0.078 -0.082 -0.18 -0.254 -0.219 -0.379 c -0.039 -0.125 -0.156 -0.324 -0.262 -0.445 c -0.102 -0.125 -0.258 -0.336 -0.348 -0.473 c -0.094 -0.137 -0.313 -0.406 -0.492 -0.602 c -0.18 -0.195 -0.402 -0.441 -0.496 -0.551 c -0.094 -0.109 -0.309 -0.297 -0.48 -0.418 c -0.172 -0.117 -0.395 -0.297 -0.5 -0.398 c -0.105 -0.098 -0.293 -0.211 -0.422 -0.25 c -0.125 -0.039 -0.227 -0.117 -0.227 -0.168 c 0 -0.051 -0.172 -0.156 -0.383 -0.234 c -0.211 -0.074 -0.383 -0.172 -0.383 -0.215 c 0 -0.043 -0.145 -0.109 -0.324 -0.148 c -0.18 -0.043 -0.328 -0.113 -0.328 -0.16 c 0 -0.047 -0.234 -0.148 -0.52 -0.227 c -0.285 -0.078 -0.543 -0.18 -0.574 -0.227 c -0.031 -0.047 -0.496 -0.141 -1.035 -0.211 c -0.539 -0.07 -1.063 -0.168 -1.168 -0.223 c -0.258 -0.137 -1.906 -0.125 -1.988 0.008 c -0.039 0.063 -0.238 0.109 -0.441 0.109 c -0.52 0 -1.902 0.246 -1.902 0.34 c 0 0.043 -0.246 0.137 -0.547 0.207 c -0.301 0.07 -0.547 0.172 -0.547 0.227 c 0 0.055 -0.121 0.125 -0.27 0.164 c -0.152 0.039 -0.273 0.105 -0.273 0.148 c 0 0.043 -0.195 0.145 -0.43 0.223 c -0.238 0.078 -0.457 0.207 -0.488 0.289 c -0.031 0.082 -0.133 0.148 -0.223 0.148 c -0.094 0 -0.168 0.051 -0.168 0.109 c 0 0.063 -0.129 0.172 -0.285 0.242 c -0.48 0.219 -1.676 1.48 -1.676 1.766 c 0 0.18 0.262 -0.008 0.922 -0.645 c 0.402 -0.391 0.762 -0.711 0.805 -0.711 c 0.039 0 0.238 -0.148 0.441 -0.328 c 0.207 -0.184 0.488 -0.359 0.629 -0.395 c 0.141 -0.035 0.254 -0.098 0.254 -0.145 c 0 -0.043 0.195 -0.145 0.438 -0.223 c 0.238 -0.078 0.438 -0.184 0.438 -0.23 c 0 -0.047 0.184 -0.121 0.406 -0.16 c 0.227 -0.043 0.438 -0.121 0.473 -0.176 c 0.035 -0.051 0.402 -0.148 0.816 -0.207 c 0.418 -0.063 0.84 -0.16 0.945 -0.215 c 0.246 -0.133 3.082 -0.133 3.328 0 c 0.102 0.055 0.531 0.152 0.949 0.215 c 0.422 0.063 0.781 0.164 0.801 0.227 c 0.02 0.063 0.152 0.113 0.293 0.113 c 0.141 0 0.324 0.066 0.41 0.152 c 0.086 0.086 0.359 0.215 0.605 0.289 c 0.25 0.074 0.453 0.164 0.453 0.203 c 0 0.035 0.16 0.133 0.355 0.219 c 0.195 0.082 0.379 0.184 0.41 0.223 c 0.027 0.039 0.246 0.215 0.48 0.391 c 0.512 0.383 1.699 1.527 1.699 1.637 c 0 0.043 0.109 0.18 0.246 0.305 c 0.137 0.129 0.316 0.391 0.395 0.586 c 0.082 0.195 0.188 0.355 0.23 0.355 c 0.047 0 0.117 0.121 0.152 0.273 c 0.039 0.148 0.117 0.27 0.172 0.27 c 0.055 0 0.133 0.172 0.172 0.383 c 0.043 0.211 0.113 0.383 0.156 0.383 c 0.047 0 0.148 0.328 0.223 0.734 c 0.078 0.406 0.18 0.762 0.227 0.797 c 0.051 0.031 0.141 0.668 0.199 1.414 l 0.102 1.359"/><path d="m 13.836 22.438 c 0.023 -0.836 0.09 -1.547 0.145 -1.582 c 0.055 -0.035 0.133 -0.285 0.18 -0.555 c 0.043 -0.27 0.172 -0.695 0.285 -0.945 c 0.113 -0.254 0.207 -0.512 0.207 -0.574 c 0 -0.063 0.047 -0.113 0.105 -0.113 c 0.063 0 0.109 -0.07 0.109 -0.156 c 0 -0.086 0.07 -0.223 0.152 -0.305 c 0.078 -0.082 0.18 -0.254 0.219 -0.379 c 0.039 -0.125 0.156 -0.324 0.262 -0.445 c 0.102 -0.125 0.258 -0.336 0.348 -0.473 c 0.094 -0.137 0.313 -0.406 0.492 -0.602 c 0.18 -0.195 0.402 -0.441 0.496 -0.551 c 0.094 -0.109 0.309 -0.297 0.48 -0.418 c 0.172 -0.117 0.395 -0.297 0.5 -0.398 c 0.105 -0.098 0.293 -0.211 0.422 -0.25 c 0.125 -0.039 0.227 -0.117 0.227 -0.168 c 0 -0.051 0.172 -0.156 0.383 -0.234 c 0.211 -0.074 0.383 -0.172 0.383 -0.215 c 0 -0.043 0.145 -0.109 0.324 -0.148 c 0.18 -0.043 0.328 -0.113 0.328 -0.16 c 0 -0.047 0.234 -0.148 0.52 -0.227 c 0.285 -0.078 0.543 -0.18 0.574 -0.227 c 0.031 -0.047 0.496 -0.141 1.035 -0.211 c 0.539 -0.07 1.063 -0.168 1.168 -0.223 c 0.258 -0.137 1.906 -0.125 1.988 0.008 c 0.039 0.063 0.238 0.109 0.441 0.109 c 0.52 0 1.902 0.246 1.902 0.34 c 0 0.043 0.246 0.137 0.547 0.207 c 0.301 0.07 0.547 0.172 0.547 0.227 c 0 0.055 0.121 0.125 0.27 0.164 c 0.152 0.039 0.273 0.105 0.273 0.148 c 0 0.043 0.195 0.145 0.43 0.223 c 0.238 0.078 0.457 0.207 0.488 0.289 c 0.031 0.082 0.133 0.148 0.223 0.148 c 0.094 0 0.168 0.051 0.168 0.109 c 0 0.063 0.129 0.172 0.285 0.242 c 0.48 0.219 1.676 1.48 1.676 1.766 c 0 0.18 -0.262 -0.008 -0.922 -0.645 c -0.402 -0.391 -0.762 -0.711 -0.805 -0.711 c -0.039 0 -0.238 -0.148 -0.441 -0.328 c -0.207 -0.184 -0.488 -0.359 -0.629 -0.395 c -0.141 -0.035 -0.254 -0.098 -0.254 -0.145 c 0 -0.043 -0.195 -0.145 -0.438 -0.223 c -0.238 -0.078 -0.438 -0.184 -0.438 -0.23 c 0 -0.047 -0.184 -0.121 -0.406 -0.16 c -0.227 -0.043 -0.438 -0.121 -0.473 -0.176 c -0.035 -0.051 -0.402 -0.148 -0.816 -0.207 c -0.418 -0.063 -0.84 -0.16 -0.945 -0.215 c -0.246 -0.133 -3.082 -0.133 -3.328 0 c -0.102 0.055 -0.531 0.152 -0.949 0.215 c -0.422 0.063 -0.781 0.164 -0.801 0.227 c -0.02 0.063 -0.152 0.113 -0.293 0.113 c -0.141 0 -0.324 0.066 -0.41 0.152 c -0.086 0.086 -0.359 0.215 -0.605 0.289 c -0.25 0.074 -0.453 0.164 -0.453 0.203 c 0 0.035 -0.16 0.133 -0.355 0.219 c -0.195 0.082 -0.379 0.184 -0.41 0.223 c -0.027 0.039 -0.246 0.215 -0.48 0.391 c -0.512 0.383 -1.699 1.527 -1.699 1.637 c 0 0.043 -0.109 0.18 -0.246 0.305 c -0.137 0.129 -0.316 0.391 -0.395 0.586 c -0.082 0.195 -0.188 0.355 -0.23 0.355 c -0.047 0 -0.117 0.121 -0.152 0.273 c -0.039 0.148 -0.117 0.27 -0.172 0.27 c -0.055 0 -0.133 0.172 -0.172 0.383 c -0.043 0.211 -0.113 0.383 -0.156 0.383 c -0.047 0 -0.148 0.328 -0.223 0.734 c -0.078 0.406 -0.18 0.762 -0.227 0.797 c -0.051 0.031 -0.141 0.668 -0.199 1.414 l -0.102 1.359"/><path d="m 10.359 25.14 c -0.039 -0.277 -0.07 -0.648 -0.07 -0.816 c 0 -0.172 -0.047 -0.313 -0.109 -0.313 c -0.066 0 -0.109 -0.617 -0.109 -1.637 c 0 -0.898 0.043 -1.633 0.094 -1.633 c 0.055 0 0.129 -0.355 0.168 -0.785 c 0.039 -0.43 0.113 -0.832 0.168 -0.898 c 0.051 -0.063 0.156 -0.398 0.23 -0.742 c 0.078 -0.348 0.176 -0.629 0.219 -0.629 c 0.043 0 0.113 -0.172 0.152 -0.383 c 0.039 -0.207 0.117 -0.379 0.176 -0.379 c 0.055 0 0.102 -0.059 0.102 -0.125 c 0 -0.172 0.574 -1.34 0.68 -1.383 c 0.047 -0.02 0.086 -0.109 0.086 -0.195 c 0 -0.086 0.074 -0.188 0.164 -0.223 c 0.09 -0.031 0.16 -0.129 0.16 -0.215 c 0 -0.086 0.074 -0.184 0.164 -0.219 c 0.09 -0.035 0.164 -0.129 0.164 -0.211 c 0 -0.078 0.066 -0.184 0.148 -0.234 c 0.082 -0.047 0.211 -0.207 0.289 -0.355 c 0.078 -0.148 0.285 -0.395 0.461 -0.547 c 0.176 -0.148 0.605 -0.543 0.961 -0.871 c 1.031 -0.965 1.238 -1.137 1.637 -1.336 c 0.207 -0.105 0.449 -0.234 0.539 -0.293 c 0.766 -0.473 1.355 -0.777 1.73 -0.891 c 0.246 -0.074 0.449 -0.176 0.449 -0.227 c 0 -0.047 0.086 -0.09 0.191 -0.09 c 0.105 0 0.32 -0.07 0.48 -0.152 c 0.156 -0.082 0.648 -0.215 1.09 -0.293 c 0.438 -0.078 0.836 -0.191 0.879 -0.258 c 0.105 -0.16 5.184 -0.16 5.293 0 c 0.043 0.066 0.438 0.18 0.879 0.258 c 0.441 0.078 0.93 0.211 1.09 0.293 c 0.16 0.082 0.375 0.152 0.48 0.152 c 0.105 0 0.191 0.043 0.191 0.098 c 0 0.055 0.133 0.129 0.297 0.172 c 0.379 0.09 1.238 0.504 1.426 0.684 c 0.082 0.074 0.211 0.137 0.293 0.137 c 0.082 0 0.211 0.063 0.293 0.137 c 0.078 0.074 0.289 0.211 0.469 0.301 c 0.18 0.09 0.426 0.262 0.547 0.383 c 0.117 0.121 0.348 0.285 0.504 0.367 c 0.16 0.078 0.352 0.262 0.43 0.406 c 0.074 0.141 0.172 0.258 0.219 0.258 c 0.074 0 0.969 0.887 1.52 1.504 c 0.148 0.172 0.344 0.453 0.434 0.629 c 0.09 0.176 0.227 0.359 0.301 0.41 c 0.074 0.047 0.137 0.156 0.137 0.246 c 0 0.086 0.047 0.156 0.109 0.156 c 0.059 0 0.109 0.074 0.109 0.168 c 0 0.09 0.07 0.195 0.164 0.23 c 0.09 0.031 0.16 0.129 0.16 0.215 c 0 0.082 0.098 0.332 0.219 0.559 c 0.121 0.223 0.25 0.566 0.285 0.762 c 0.035 0.195 0.105 0.355 0.152 0.355 c 0.051 0 0.121 0.195 0.164 0.438 c 0.039 0.238 0.113 0.434 0.16 0.434 c 0.047 0 0.121 0.234 0.164 0.52 c 0.043 0.285 0.133 0.586 0.203 0.672 c 0.176 0.215 0.176 5.109 0 5.219 c -0.07 0.043 -0.148 0.227 -0.176 0.406 c -0.047 0.313 -0.047 0.309 -0.063 -0.063 c -0.012 -0.211 0.039 -0.445 0.109 -0.516 c 0.168 -0.164 0.176 -4.152 0.012 -4.258 c -0.063 -0.039 -0.148 -0.379 -0.191 -0.754 c -0.043 -0.371 -0.121 -0.68 -0.176 -0.68 c -0.055 0 -0.098 -0.102 -0.098 -0.223 c 0 -0.125 -0.094 -0.43 -0.207 -0.684 c -0.113 -0.25 -0.238 -0.617 -0.281 -0.813 c -0.043 -0.191 -0.117 -0.352 -0.168 -0.352 c -0.051 0 -0.125 -0.148 -0.164 -0.328 c -0.039 -0.18 -0.113 -0.328 -0.168 -0.328 c -0.055 0 -0.129 -0.117 -0.164 -0.262 c -0.039 -0.148 -0.129 -0.289 -0.207 -0.32 c -0.078 -0.027 -0.172 -0.184 -0.215 -0.344 c -0.039 -0.16 -0.191 -0.402 -0.34 -0.539 c -0.148 -0.137 -0.266 -0.285 -0.266 -0.332 c 0 -0.047 -0.102 -0.188 -0.219 -0.316 c -1.16 -1.219 -1.766 -1.809 -1.855 -1.809 c -0.059 0 -0.109 -0.051 -0.109 -0.109 c 0 -0.063 -0.047 -0.109 -0.109 -0.109 c -0.059 0 -0.199 -0.086 -0.313 -0.191 c -0.363 -0.336 -0.707 -0.57 -0.84 -0.57 c -0.07 0 -0.156 -0.07 -0.191 -0.156 c -0.031 -0.082 -0.203 -0.184 -0.383 -0.223 c -0.18 -0.039 -0.352 -0.145 -0.387 -0.23 c -0.031 -0.086 -0.125 -0.156 -0.207 -0.156 c -0.078 0 -0.348 -0.098 -0.598 -0.219 c -0.246 -0.117 -0.5 -0.215 -0.566 -0.215 c -0.063 0 -0.113 -0.051 -0.113 -0.109 c 0 -0.063 -0.082 -0.109 -0.184 -0.109 c -0.195 0 -0.852 -0.191 -1.137 -0.332 c -0.094 -0.047 -0.414 -0.121 -0.707 -0.164 c -0.293 -0.043 -0.602 -0.133 -0.688 -0.199 c -0.215 -0.172 -5.148 -0.172 -5.363 0 c -0.082 0.07 -0.41 0.16 -0.723 0.203 c -0.316 0.043 -0.574 0.109 -0.574 0.152 c 0 0.043 -0.293 0.141 -0.652 0.223 c -0.359 0.078 -0.656 0.18 -0.656 0.227 c 0 0.047 -0.125 0.117 -0.281 0.156 c -0.434 0.109 -1.352 0.527 -1.352 0.617 c 0 0.043 -0.152 0.113 -0.336 0.152 c -0.184 0.043 -0.359 0.145 -0.391 0.227 c -0.035 0.086 -0.129 0.156 -0.215 0.156 c -0.086 0 -0.184 0.07 -0.219 0.16 c -0.035 0.09 -0.133 0.164 -0.215 0.164 c -0.082 0 -0.238 0.086 -0.348 0.191 c -0.105 0.105 -0.375 0.328 -0.602 0.496 c -0.648 0.492 -1.82 1.738 -2.059 2.191 c -0.066 0.125 -0.188 0.27 -0.266 0.316 c -0.082 0.047 -0.148 0.156 -0.148 0.246 c 0 0.086 -0.051 0.156 -0.109 0.156 c -0.059 0 -0.109 0.074 -0.109 0.168 c 0 0.09 -0.066 0.191 -0.148 0.223 c -0.082 0.031 -0.211 0.25 -0.289 0.488 c -0.078 0.234 -0.18 0.43 -0.227 0.43 c -0.043 0 -0.113 0.148 -0.152 0.328 c -0.039 0.18 -0.117 0.324 -0.172 0.324 c -0.055 0 -0.102 0.086 -0.105 0.191 c 0 0.105 -0.098 0.387 -0.215 0.629 c -0.113 0.238 -0.211 0.547 -0.215 0.68 c 0 0.137 -0.043 0.246 -0.094 0.246 c -0.113 0 -0.344 1.59 -0.344 2.371 c 0 0.316 -0.051 0.57 -0.109 0.57 c -0.133 0 -0.148 1.117 -0.016 1.262 c 0.094 0.098 0.277 2.336 0.195 2.336 c -0.023 0 -0.074 -0.227 -0.109 -0.504"/><path d="m 10.359 24.809 c -0.039 -0.277 -0.07 -0.645 -0.07 -0.816 c 0 -0.172 -0.047 -0.313 -0.109 -0.313 c -0.066 0 -0.109 -0.617 -0.109 -1.633 c 0 -0.902 0.043 -1.637 0.094 -1.637 c 0.055 0 0.129 -0.352 0.168 -0.781 c 0.039 -0.43 0.113 -0.836 0.168 -0.898 c 0.051 -0.066 0.156 -0.402 0.23 -0.746 c 0.078 -0.344 0.176 -0.625 0.219 -0.625 c 0.043 0 0.113 -0.172 0.152 -0.383 c 0.039 -0.211 0.117 -0.383 0.176 -0.383 c 0.055 0 0.102 -0.055 0.102 -0.125 c 0 -0.172 0.574 -1.336 0.68 -1.383 c 0.047 -0.02 0.086 -0.105 0.086 -0.195 c 0 -0.086 0.074 -0.184 0.164 -0.219 c 0.09 -0.035 0.16 -0.133 0.16 -0.219 c 0 -0.086 0.074 -0.184 0.164 -0.219 c 0.09 -0.035 0.164 -0.129 0.164 -0.207 c 0 -0.082 0.066 -0.188 0.148 -0.234 c 0.082 -0.047 0.211 -0.207 0.289 -0.359 c 0.078 -0.148 0.285 -0.391 0.461 -0.543 c 0.176 -0.152 0.605 -0.547 0.961 -0.875 c 1.031 -0.965 1.238 -1.133 1.637 -1.336 c 0.207 -0.102 0.449 -0.234 0.539 -0.289 c 0.766 -0.477 1.355 -0.777 1.73 -0.891 c 0.246 -0.074 0.449 -0.176 0.449 -0.227 c 0 -0.051 0.086 -0.094 0.191 -0.094 c 0.105 0 0.32 -0.066 0.48 -0.152 c 0.156 -0.082 0.648 -0.211 1.09 -0.289 c 0.438 -0.078 0.836 -0.195 0.879 -0.258 c 0.105 -0.16 5.184 -0.16 5.293 0 c 0.043 0.063 0.438 0.18 0.879 0.258 c 0.441 0.078 0.93 0.207 1.09 0.289 c 0.16 0.086 0.375 0.152 0.48 0.152 c 0.105 0 0.191 0.047 0.191 0.098 c 0 0.055 0.133 0.133 0.297 0.172 c 0.379 0.094 1.238 0.504 1.426 0.688 c 0.082 0.074 0.211 0.133 0.293 0.133 c 0.082 0 0.211 0.063 0.293 0.137 c 0.078 0.078 0.289 0.211 0.469 0.301 c 0.18 0.09 0.426 0.262 0.547 0.383 c 0.117 0.121 0.348 0.285 0.504 0.367 c 0.16 0.082 0.352 0.266 0.43 0.406 c 0.074 0.145 0.172 0.262 0.219 0.262 c 0.074 0 0.969 0.883 1.52 1.504 c 0.148 0.168 0.344 0.449 0.434 0.629 c 0.09 0.176 0.227 0.359 0.301 0.406 c 0.074 0.051 0.137 0.16 0.137 0.246 c 0 0.086 0.047 0.156 0.109 0.156 c 0.059 0 0.109 0.078 0.109 0.168 c 0 0.094 0.07 0.195 0.164 0.23 c 0.09 0.035 0.16 0.133 0.16 0.215 c 0 0.086 0.098 0.336 0.219 0.559 c 0.121 0.223 0.25 0.566 0.285 0.762 c 0.035 0.199 0.105 0.359 0.152 0.359 c 0.051 0 0.121 0.195 0.164 0.434 c 0.039 0.242 0.113 0.438 0.16 0.438 c 0.047 0 0.121 0.234 0.164 0.516 c 0.043 0.285 0.133 0.59 0.203 0.672 c 0.176 0.215 0.176 5.109 0 5.223 c -0.07 0.043 -0.148 0.223 -0.176 0.402 c -0.047 0.313 -0.047 0.309 -0.063 -0.059 c -0.012 -0.215 0.039 -0.445 0.109 -0.516 c 0.168 -0.168 0.176 -4.156 0.012 -4.262 c -0.063 -0.039 -0.148 -0.375 -0.191 -0.75 c -0.043 -0.375 -0.121 -0.68 -0.176 -0.68 c -0.055 0 -0.098 -0.102 -0.098 -0.227 c 0 -0.121 -0.094 -0.43 -0.207 -0.68 c -0.113 -0.254 -0.238 -0.617 -0.281 -0.813 c -0.043 -0.195 -0.117 -0.355 -0.168 -0.355 c -0.051 0 -0.125 -0.145 -0.164 -0.324 c -0.039 -0.184 -0.113 -0.328 -0.168 -0.328 c -0.055 0 -0.129 -0.121 -0.164 -0.266 c -0.039 -0.145 -0.129 -0.289 -0.207 -0.316 c -0.078 -0.031 -0.172 -0.188 -0.215 -0.348 c -0.039 -0.156 -0.191 -0.402 -0.34 -0.539 c -0.148 -0.137 -0.266 -0.285 -0.266 -0.332 c 0 -0.047 -0.102 -0.188 -0.219 -0.313 c -1.16 -1.219 -1.766 -1.813 -1.855 -1.813 c -0.059 0 -0.109 -0.047 -0.109 -0.109 c 0 -0.059 -0.047 -0.109 -0.109 -0.109 c -0.059 0 -0.199 -0.086 -0.313 -0.188 c -0.363 -0.34 -0.707 -0.574 -0.84 -0.574 c -0.07 0 -0.156 -0.07 -0.191 -0.152 c -0.031 -0.086 -0.203 -0.188 -0.383 -0.227 c -0.18 -0.039 -0.352 -0.141 -0.387 -0.227 c -0.031 -0.086 -0.125 -0.156 -0.207 -0.156 c -0.078 0 -0.348 -0.098 -0.598 -0.219 c -0.246 -0.121 -0.5 -0.219 -0.566 -0.219 c -0.063 0 -0.113 -0.051 -0.113 -0.109 c 0 -0.059 -0.082 -0.109 -0.184 -0.109 c -0.195 0 -0.852 -0.191 -1.137 -0.332 c -0.094 -0.047 -0.414 -0.121 -0.707 -0.16 c -0.293 -0.043 -0.602 -0.133 -0.688 -0.203 c -0.215 -0.172 -5.148 -0.168 -5.363 0.004 c -0.082 0.066 -0.41 0.156 -0.723 0.199 c -0.316 0.043 -0.574 0.113 -0.574 0.152 c 0 0.043 -0.293 0.145 -0.652 0.223 c -0.359 0.082 -0.656 0.184 -0.656 0.23 c 0 0.043 -0.125 0.113 -0.281 0.152 c -0.434 0.109 -1.352 0.531 -1.352 0.621 c 0 0.043 -0.152 0.113 -0.336 0.152 c -0.184 0.039 -0.359 0.141 -0.391 0.227 c -0.035 0.082 -0.129 0.152 -0.215 0.152 c -0.086 0 -0.184 0.074 -0.219 0.164 c -0.035 0.09 -0.133 0.164 -0.215 0.164 c -0.082 0 -0.238 0.086 -0.348 0.191 c -0.105 0.102 -0.375 0.328 -0.602 0.496 c -0.648 0.492 -1.82 1.734 -2.059 2.191 c -0.066 0.125 -0.188 0.266 -0.266 0.313 c -0.082 0.051 -0.148 0.16 -0.148 0.246 c 0 0.086 -0.051 0.16 -0.109 0.16 c -0.059 0 -0.109 0.074 -0.109 0.164 c 0 0.094 -0.066 0.195 -0.148 0.227 c -0.082 0.031 -0.211 0.25 -0.289 0.484 c -0.078 0.238 -0.18 0.434 -0.227 0.434 c -0.043 0 -0.113 0.145 -0.152 0.324 c -0.039 0.18 -0.117 0.328 -0.172 0.328 c -0.055 0 -0.102 0.086 -0.105 0.191 c 0 0.105 -0.098 0.387 -0.215 0.625 c -0.113 0.242 -0.211 0.547 -0.215 0.684 c 0 0.133 -0.043 0.242 -0.094 0.242 c -0.113 0 -0.344 1.59 -0.344 2.371 c 0 0.316 -0.051 0.574 -0.109 0.574 c -0.133 0 -0.148 1.113 -0.016 1.258 c 0.094 0.102 0.277 2.34 0.195 2.34 c -0.023 0 -0.074 -0.227 -0.109 -0.508"/></g></svg>