<svg xmlns="http://www.w3.org/2000/svg" viewBox="0 0 32 32"><path d="m 17.387 0.348 c -19.16 -1.828 -24.32 29.04 -4.645 31.434 c 18.09 2.969 27.414 -25.01 9.434 -30.602 c -1.52 -0.613 -3.18 -0.602 -4.789 -0.832" fill="#f60"/><g stroke="#fff" transform="matrix(0.05692 0 0 0.06011 -0.51 2.77)"><g fill="#fff"><g stroke-width="1.457"><path d="m 118.09 149.78 h 129.3 v 96.57 h -129.3"/><path d="m 264.62 149.78 v 96.57 h 129.3 v -96.57 m -120.66 9.683 h 112.01 v 77.2 h -112.01"/><path d="m 118.09 265.65 h 129.3 v 96.51 h -129.3"/><path d="m 264.62 265.65 h 129.3 v 96.51 h -129.3"/></g><g stroke-width="9.194"><path d="m 269.08 154.59 h 120.24 v 87.02 h -120.24"/><path d="m 269.08 270.53 h 120.24 v 87.02 h -120.24"/><path d="m 122.42 154.59 h 120.24 v 87.02 h -120.24"/></g></g><path d="m 122.42 270.53 h 120.24 v 87.02 h -120.24" fill="#f60" stroke-width="9.194"/></g></svg>