<svg xmlns="http://www.w3.org/2000/svg" viewBox="0 0 24 24"><path d="m 21.355 4.488 c 8.199 10.391 -4.199 26.12 -16.313 16.539 c -11.473 -9.07 -1.586 -25.08 11.852 -20.08 c 1.848 0.687 3.266 2.023 4.465 3.543" fill="#f60"/><path d="m 7.242 6.348 h 5.145 l 0.68 0.996 h 4.738 c 0.633 0 1.145 0.512 1.145 1.148 v 5.03 c 0 0.637 -0.512 1.148 -1.145 1.148 h -10.563 c -0.637 0 -1.145 -0.512 -1.145 -1.148 v -6.02 c 0 -0.637 0.508 -1.148 1.145 -1.148" fill="#edb4ab"/><path d="m 7.242 8.09 h 10.563 c 0.633 0 1.145 0.512 1.145 1.148 v 5.648 c 0 0.633 -0.512 1.148 -1.145 1.148 h -10.563 c -0.633 0 -1.148 -0.516 -1.148 -1.148 v -5.648 c 0 -0.637 0.516 -1.148 1.148 -1.148" fill="#fff"/><g fill="#f60" stroke="#f60" transform="matrix(0.09375 0 0 0.09375 0 -74.66)"><path d="m 100.25 945.74 l -8.375 -14.167 l 2.625 -4.5 c 2.583 -4.375 2.583 -4.583 1 -5.75 c -1.458 -1.042 -0.542 -1.167 7.375 -0.917 l 9.04 0.25 l 1.542 3 c 0.875 1.667 2.417 4.667 3.458 6.667 l 1.917 3.667 h -2.167 c -1.542 0 -2.667 0.875 -4 3.042 c -1 1.708 -1.833 3.25 -1.833 3.458 c 0 0.208 4.167 0.375 9.208 0.375 h 9.208 l -0.5 18.5 l -10.04 0.25 l -10.08 0.25" stroke-width="1.334"/><path d="m 111.17 914.57 c -4.625 -2.542 -8.417 -4.875 -8.375 -5.208 c 0 -0.583 4.625 -8.375 9.125 -15.458 l 1.875 -2.958 h 18.25 l 18.208 0.042 l 2.875 4.5 c 1.583 2.5 3.417 4.542 4.083 4.542 c 1.75 0.042 1.583 0.458 -2.75 7.417 l -3.958 6.292 h -8.5 c -4.708 0 -8.542 -0.208 -8.542 -0.458 c 0 -0.25 0.5 -1.25 1.167 -2.208 c 0.917 -1.417 0.792 -2.375 -0.708 -5 c -1 -1.792 -2.292 -3.25 -2.833 -3.25 c -0.542 0 -2.792 2.958 -5 6.625 c -6.667 10.875 -5.292 10.417 -14.917 5.125" stroke-width="1.439"/><path d="m 142.38 954.03 c -1.875 -2.917 -3.417 -5.583 -3.417 -6 c 0 -0.417 1.792 -3.583 4.04 -7.083 c 4.04 -6.292 4.04 -6.292 5.333 -4.125 c 1.083 1.833 1.958 2.167 5.583 2.167 c 5.542 0 5.542 -0.958 -0.042 -8.625 c -2.417 -3.292 -4.583 -6.458 -4.833 -7.083 c -0.292 -0.667 1.75 -2.208 5.083 -3.917 c 3.042 -1.583 6.958 -3.667 8.708 -4.625 c 1.75 -1 3.333 -1.625 3.458 -1.458 c 0.167 0.167 2.917 4.208 6.083 8.958 l 5.792 8.667 l -9.167 13.917 l -9.208 13.875 l -7 0.292 l -7 0.25" stroke-width="1.402"/></g></svg>