<svg xmlns="http://www.w3.org/2000/svg" viewBox="0 0 24 24"><path d="m 21.66 4.945 c 11.996 18.05 -26.26 29.16 -21.2 5.832 c 2.16 -9.637 15.691 -15.488 21.2 -5.832" fill="#31cd31"/><path d="m 91.29 992.11 c -1.083 -0.792 -3 -1.167 -4.292 -0.875 c -4 -1.417 -15.708 -8.292 -18.17 -10.625 c -4.792 -4.708 -4.25 -6.875 0.375 -11.333 c 5.458 -4.833 22 -15.167 28.542 -15.208 c 5.458 0 10.833 3.042 10.833 6.083 c 1.375 4.417 7.167 9.917 12.167 10.125 c 0.792 0 2.542 -1 3.875 -2.25 c 5.125 -6.125 11 -14 14.13 -20.21 c 0 -1.667 7.083 -10.5 13.625 -17.04 c 6.333 -6.333 12.625 -13.708 16.625 -19.5 c 2.458 -3.542 2.625 -4.333 1.667 -8.417 c -0.583 -2.5 -1.625 -4.542 -2.333 -4.542 c -4.083 -1.958 -8.833 -4.542 -12.833 -5.542 c -2.667 -0.583 -3.167 -1.333 -4.625 -6.917 c -1.5 -7.333 1 -14.917 2.917 -22 c 0.875 -2.833 5.292 -11.125 5.958 -11.125 c 2.167 -3.083 5.125 -3.208 8.208 -1.292 c 6.625 4.417 10.958 8.792 18.17 18.5 c 4.458 9.958 3.125 22.17 1.667 32.17 c -0.667 5.417 -1.708 10.292 -2.25 10.833 c -1.167 1.875 -0.875 4.292 -2.083 5.667 c -3 12.792 -13.667 23.708 -19.75 33.875 c -13.25 17.542 -31.04 22.417 -41.958 33.542 c -3.542 2.5 -27.333 8.125 -30.458 6.083" transform="matrix(0.09375 0 0 0.09375 0 -74.66)" fill="#fff" stroke="#fff" stroke-width="0.374"/></svg>