<svg xmlns="http://www.w3.org/2000/svg" viewBox="0 0 16 16"><path d="m 3.762 1.648 c 8.184 -5.754 16.477 4.871 9.805 11.648 c -6.281 6.387 -16.04 0.469 -12.988 -7.48 c 0.633 -1.656 1.68 -3.113 3.184 -4.168" fill="#007f7f"/><g fill="#fff" stroke="#fff" stroke-width="1.037" transform="matrix(0.04193 0 0 0.09316 0 -49.773)"><path d="m 131.17 625.63 v 34.26 h -9.316 v -33.923 c 0 -5.367 -1.025 -9.351 -3.074 -12.03 c -2.143 -2.684 -5.217 -4.03 -9.502 -4.03 c -4.938 0 -8.85 1.635 -11.738 4.822 c -2.981 3.229 -4.379 7.59 -4.379 13.08 v 32.08 h -9.316 v -78.83 h 9.316 v 30.946 c 2.236 -3.438 4.844 -5.996 7.826 -7.674 c 2.981 -1.677 6.428 -2.516 10.434 -2.516 c 6.428 0 11.366 2.01 14.626 6.04 c 3.447 4.03 5.124 9.938 5.124 17.779 m 28.694 -38.577 v 16.1 h 19.19 v 7.254 h -19.19 v 30.82 c 0 4.613 0.652 7.59 1.863 8.89 c 1.304 1.3 3.913 1.971 7.826 1.971 h 9.502 v 7.799 h -9.502 c -7.173 0 -12.11 -1.342 -14.906 -4.03 c -2.702 -2.684 -4.099 -7.548 -4.099 -14.634 v -30.82 h -6.801 v -7.254 h 6.801 v -16.1 m 85.43 27 c 2.329 -4.235 5.124 -7.296 8.385 -9.309 c 3.167 -1.971 6.987 -2.935 11.366 -2.935 c 5.869 0 10.434 2.055 13.602 6.206 c 3.167 4.109 4.844 9.98 4.844 17.611 v 34.26 h -9.316 v -33.923 c 0 -5.451 -1.025 -9.477 -2.981 -12.08 c -1.956 -2.642 -4.844 -3.984 -8.757 -3.984 c -4.751 0 -8.571 1.593 -11.366 4.822 c -2.888 3.187 -4.285 7.548 -4.285 13.08 v 32.08 h -9.316 v -33.923 c 0 -5.493 -0.932 -9.519 -2.795 -12.16 c -1.956 -2.6 -4.938 -3.9 -8.943 -3.9 c -4.751 0 -8.571 1.635 -11.366 4.864 c -2.702 3.229 -4.099 7.548 -4.099 13.04 v 32.08 h -9.316 v -56.734 h 9.316 v 8.806 c 2.05 -3.48 4.658 -6.04 7.639 -7.715 c 2.981 -1.635 6.428 -2.432 10.527 -2.432 c 4.099 0 7.639 1.048 10.434 3.103 c 2.888 2.097 5.03 5.158 6.428 9.141 m 58.32 -33 h 9.316 v 78.83 h -9.316"/><path d="m 126.33 625.63 v 34.26 h -9.316 v -33.923 c 0 -5.367 -1.025 -9.351 -3.074 -12.03 c -2.143 -2.684 -5.217 -4.03 -9.502 -4.03 c -4.938 0 -8.85 1.635 -11.738 4.822 c -2.981 3.229 -4.379 7.59 -4.379 13.08 v 32.08 h -9.316 v -78.83 h 9.316 v 30.946 c 2.236 -3.438 4.844 -5.996 7.826 -7.674 c 2.981 -1.677 6.428 -2.516 10.434 -2.516 c 6.428 0 11.366 2.01 14.626 6.04 c 3.447 4.03 5.124 9.938 5.124 17.779 m 28.694 -38.577 v 16.1 h 19.19 v 7.254 h -19.19 v 30.82 c 0 4.613 0.652 7.59 1.863 8.89 c 1.304 1.3 3.913 1.971 7.826 1.971 h 9.502 v 7.799 h -9.502 c -7.173 0 -12.11 -1.342 -14.906 -4.03 c -2.702 -2.684 -4.099 -7.548 -4.099 -14.634 v -30.82 h -6.801 v -7.254 h 6.801 v -16.1 m 85.43 27 c 2.329 -4.235 5.124 -7.296 8.385 -9.309 c 3.167 -1.971 6.987 -2.935 11.366 -2.935 c 5.869 0 10.434 2.055 13.602 6.206 c 3.167 4.109 4.844 9.98 4.844 17.611 v 34.26 h -9.316 v -33.923 c 0 -5.451 -1.025 -9.477 -2.981 -12.08 c -1.956 -2.642 -4.844 -3.984 -8.757 -3.984 c -4.751 0 -8.571 1.593 -11.366 4.822 c -2.888 3.187 -4.285 7.548 -4.285 13.08 v 32.08 h -9.316 v -33.923 c 0 -5.493 -0.932 -9.519 -2.795 -12.16 c -1.956 -2.6 -4.938 -3.9 -8.943 -3.9 c -4.751 0 -8.571 1.635 -11.366 4.864 c -2.702 3.229 -4.099 7.548 -4.099 13.04 v 32.08 h -9.316 v -56.734 h 9.316 v 8.806 c 2.05 -3.48 4.658 -6.04 7.639 -7.715 c 2.981 -1.635 6.428 -2.432 10.527 -2.432 c 4.099 0 7.639 1.048 10.434 3.103 c 2.888 2.097 5.03 5.158 6.428 9.141 m 58.32 -33 h 9.316 v 78.83 h -9.316"/></g></svg>