
<svg xmlns="http://www.w3.org/2000/svg" xmlns:xlink="http://www.w3.org/1999/xlink" width="16px" height="16px" viewBox="0 0 16 16" version="1.1">
<g id="surface1">
<path style=" stroke:none;fill-rule:nonzero;fill:rgb(92.54902%,94.117647%,94.509804%);fill-opacity:1;" d="M 0.203125 9.832031 C 3.328125 24.824219 24.820312 8.730469 11.910156 1.105469 C 6.894531 -2.160156 -1.402344 2.121094 0.203125 9.832031 Z M 0.203125 9.832031 "/>
<path style=" stroke:none;fill-rule:nonzero;fill:rgb(0%,0%,0%);fill-opacity:0.196078;" d="M 9.621094 4.476562 L 9.636719 4.492188 L 9.679688 4.476562 Z M 10.160156 4.976562 L 13.132812 7.75 L 13.132812 4.976562 Z M 10.160156 4.976562 "/>
<path style=" stroke:none;fill-rule:nonzero;fill:rgb(100%,100%,100%);fill-opacity:0.392157;" d="M 9.621094 1.703125 L 13.132812 4.976562 L 10.160156 4.976562 C 9.898438 4.976562 9.621094 4.71875 9.621094 4.476562 L 9.621094 1.703125 "/>
<path style=" stroke:none;fill-rule:nonzero;fill:rgb(50.196078%,50.196078%,50.196078%);fill-opacity:1;" d="M 8.023438 6.96875 C 6.707031 6.96875 5.625 8.089844 5.625 9.453125 C 5.625 10.816406 6.707031 11.929688 8.023438 11.929688 C 8.535156 11.929688 9.003906 11.757812 9.394531 11.476562 L 9.871094 11.96875 L 10.460938 11.367188 L 9.976562 10.871094 C 10.253906 10.46875 10.414062 9.980469 10.414062 9.453125 C 10.414062 8.089844 9.339844 6.96875 8.023438 6.96875 Z M 8.023438 7.824219 C 8.894531 7.824219 9.585938 8.550781 9.585938 9.453125 C 9.585938 9.746094 9.511719 10.015625 9.382812 10.253906 L 8.605469 9.453125 L 9.101562 8.929688 L 8.519531 8.324219 L 6.9375 9.964844 L 7.519531 10.570312 L 8.023438 10.046875 L 8.796875 10.859375 C 8.570312 10.992188 8.308594 11.070312 8.023438 11.070312 C 7.152344 11.070312 6.453125 10.351562 6.453125 9.453125 C 6.453125 8.550781 7.152344 7.824219 8.023438 7.824219 Z M 8.023438 7.824219 "/>
<path style=" stroke:none;fill-rule:nonzero;fill:rgb(50.196078%,50.196078%,50.196078%);fill-opacity:1;" d="M 4.140625 4.71875 L 3.300781 4.90625 L 3.304688 5.0625 L 3.714844 5.113281 L 3.097656 8.308594 L 3.683594 8.308594 L 3.972656 6.640625 C 4.226562 6.417969 4.4375 6.316406 4.570312 6.316406 C 4.714844 6.316406 4.796875 6.414062 4.796875 6.59375 C 4.796875 6.667969 4.785156 6.78125 4.757812 6.921875 L 4.585938 7.730469 C 4.5625 7.835938 4.546875 7.921875 4.546875 7.992188 C 4.546875 8.21875 4.679688 8.335938 4.929688 8.335938 C 5.109375 8.335938 5.34375 8.277344 5.640625 8.167969 L 5.640625 7.984375 C 5.527344 8.019531 5.425781 8.039062 5.332031 8.039062 C 5.222656 8.039062 5.132812 7.941406 5.132812 7.789062 C 5.132812 7.710938 5.152344 7.59375 5.183594 7.433594 L 5.324219 6.761719 C 5.359375 6.59375 5.378906 6.464844 5.378906 6.367188 C 5.378906 6.078125 5.199219 5.898438 4.925781 5.898438 C 4.695312 5.898438 4.394531 6.058594 4.015625 6.382812 L 4.175781 5.554688 C 4.234375 5.257812 4.289062 4.980469 4.351562 4.71875 Z M 4.140625 4.71875 "/>
</g>
</svg>
