<svg xmlns="http://www.w3.org/2000/svg" viewBox="0 0 16 16"><path d="m 0.203 9.832 c 3.125 14.992 24.617 -1.102 11.707 -8.727 c -5.02 -3.266 -13.313 1.016 -11.707 8.727" fill="#dcdcdc"/><path d="m 9.621 4.477 l 0.016 0.016 l 0.043 -0.016 m 0.48 0.5 l 2.973 2.773 v -2.773" fill-opacity="0.196"/><path d="m 9.621 1.703 l 3.512 3.273 h -2.973 c -0.262 0 -0.539 -0.258 -0.539 -0.5 v -2.773" fill="#fff" fill-opacity="0.392"/><g fill="#878787" stroke="#878787" stroke-width="0.641"><path d="m 44.25 176.81 c 0 -0.875 0.813 -1.75 1.875 -2.063 c 1.438 -0.375 3.938 -6.563 9.375 -23.06 c 7.313 -22 7.563 -22.625 10.438 -22.625 c 2.875 0 3.188 0.625 10.563 23 c 6.06 18.438 8 22.938 9.563 22.938 c 1.063 0 1.938 0.75 1.938 1.688 c 0 1.313 -1.75 1.625 -8.75 1.625 c -7.06 0 -8.75 -0.313 -8.75 -1.625 c 0 -0.938 0.75 -1.688 1.75 -1.688 c 1.375 0 1.563 -0.625 1 -3 c -1.813 -7.375 -2.938 -8.438 -9.313 -8.813 c -8.75 -0.5 -10.375 0.188 -11.875 5.125 c -1.75 5.813 -1.625 6.688 0.938 6.688 c 1.188 0 2.188 0.75 2.188 1.688 c 0 1.188 -1.375 1.625 -5.5 1.625 c -3.938 0 -5.438 -0.438 -5.438 -1.5 m 24.875 -17.375 c -0.313 -0.75 -1.875 -5.5 -3.5 -10.5 c -1.688 -5 -3.438 -8.688 -3.875 -8.188 c -0.875 0.938 -6.563 17.688 -6.563 19.25 c 0 0.438 3.25 0.813 7.188 0.813 c 5.313 0 7.125 -0.375 6.75 -1.375" transform="scale(0.0625)"/><g transform="matrix(0.0625 0 0 0.0625 0 -49.773)"><path d="m 95.63 973.05 c 0 -1.063 1.063 -1.688 2.75 -1.688 h 2.75 v -43.688 h -2.75 c -1.5 0 -2.75 -0.5 -2.75 -1.125 c 0 -1.875 25.875 -1.375 29.938 0.563 c 6.938 3.313 9.375 12.875 5.125 19.875 c -2.813 4.625 -5.25 5.75 -13.75 6.563 l -7.06 0.688 v 17.13 h 3.813 c 2.688 0 3.813 0.5 3.813 1.688 c 0 1.313 -1.938 1.625 -10.938 1.625 c -9 0 -10.938 -0.313 -10.938 -1.625 m 23.938 -25.06 c 5.25 -5.563 3.188 -17.438 -3.313 -19.688 c -5.688 -1.938 -6.375 -0.688 -6.375 11.313 v 11 h 3.625 c 2.438 0 4.438 -0.875 6.06 -2.625"/><path d="m 138.25 974.3 c 0 -1.188 0.938 -1.813 2.75 -1.813 h 2.75 v -43.75 h -2.75 c -1.5 0 -2.75 -0.5 -2.75 -1.188 c 0 -0.813 4.688 -1.063 14.625 -0.813 c 13.625 0.313 14.813 0.563 18.938 3.25 c 5.625 3.75 8.375 9.438 8.875 18.438 c 0.563 8.75 -1.063 15.188 -4.938 19.813 c -4.438 5.313 -9.06 6.688 -24.06 7.313 c -11.875 0.438 -13.375 0.313 -13.375 -1.25 m 26.563 -4 c 3.813 -3.063 5.5 -8.813 5.563 -19.12 c 0.125 -11.625 -2.313 -18.25 -7.625 -20.75 c -2.125 -1 -5.188 -1.688 -6.813 -1.5 l -2.938 0.375 l -0.313 21.563 l -0.313 21.625 h 4.813 c 3.125 0 5.75 -0.75 7.625 -2.188"/></g></g></svg>