<svg xmlns="http://www.w3.org/2000/svg" viewBox="0 0 16 16"><path d="m 0.203 9.832 c 3.125 14.992 24.617 -1.102 11.707 -8.727 c -5.02 -3.266 -13.313 1.016 -11.707 8.727" fill="#ac9a9d"/><path d="m 9.621 4.477 l 0.016 0.016 l 0.043 -0.016 m 0.48 0.5 l 2.973 2.773 v -2.773" fill-opacity="0.196"/><path d="m 9.621 1.703 l 3.512 3.273 h -2.973 c -0.262 0 -0.539 -0.258 -0.539 -0.5 v -2.773" fill="#fff" fill-opacity="0.392"/><path d="m 6.344 12.758 c -0.277 -0.051 -0.559 -0.195 -0.656 -0.34 c -0.113 -0.164 -0.086 -3.32 0.031 -3.625 c 0.125 -0.32 0.266 -0.664 0.383 -0.918 c 0.051 -0.113 0.156 -0.438 0.23 -0.715 c 0.125 -0.449 0.133 -0.594 0.105 -1.348 c -0.02 -0.613 -0.012 -0.863 0.043 -0.914 c 0.121 -0.113 0.484 -0.141 0.617 -0.047 c 0.102 0.07 0.113 0.152 0.113 0.758 c 0 0.891 0.18 1.605 0.605 2.43 c 0.168 0.32 0.605 1.621 0.605 1.797 c 0 0.031 -0.082 0.152 -0.188 0.266 c -0.211 0.23 -0.211 0.238 -0.188 1.355 l 0.016 0.691 l 0.18 0.074 c 0.273 0.109 0.25 0.277 -0.063 0.398 c -0.395 0.156 -1.34 0.227 -1.836 0.137 m 1.164 -2.797 c 0.117 -0.254 0.055 -0.418 -0.18 -0.48 c -0.273 -0.074 -0.418 0 -0.418 0.215 c 0 0.133 0.047 0.211 0.195 0.328 c 0.105 0.086 0.223 0.148 0.254 0.141 c 0.035 -0.008 0.102 -0.102 0.148 -0.203" fill="#1c1611"/></svg>