<svg xmlns="http://www.w3.org/2000/svg" viewBox="0 0 16 16"><path d="m 0.203 9.832 c 3.125 14.992 24.617 -1.102 11.707 -8.727 c -5.02 -3.266 -13.313 1.016 -11.707 8.727" fill="#3984ff"/><path d="m 9.621 4.477 l 0.016 0.016 l 0.043 -0.016 m 0.48 0.5 l 2.973 2.773 v -2.773" fill-opacity="0.196"/><path d="m 9.621 1.703 l 3.512 3.273 h -2.973 c -0.262 0 -0.539 -0.258 -0.539 -0.5 v -2.773" fill="#fff" fill-opacity="0.392"/><g fill="#d2e4ff"><path d="m 5.121 6.238 v 5.172 h 0.648 v -5.172"/><path d="m 6.09 6.238 v 0.516 h 1.293 c 0.43 0 0.75 0.09 0.957 0.23 c 0.207 0.145 0.332 0.348 0.332 0.676 c 0 0.332 -0.125 0.535 -0.332 0.676 c -0.207 0.145 -0.527 0.23 -0.957 0.23 h -1.293 v 0.516 h 1.293 c 0.535 0 1.02 -0.105 1.379 -0.352 c 0.355 -0.246 0.555 -0.625 0.555 -1.07 c 0 -0.445 -0.199 -0.824 -0.555 -1.07 c -0.359 -0.242 -0.844 -0.352 -1.379 -0.352"/><path d="m 8.859 8.996 c -0.195 0.113 -0.406 0.195 -0.637 0.254 c 0.043 0.02 0.082 0.039 0.117 0.063 c 0.207 0.145 0.332 0.348 0.332 0.676 c 0 0.332 -0.125 0.535 -0.332 0.676 c -0.207 0.145 -0.527 0.23 -0.961 0.23 h -1.289 v 0.516 h 1.289 c 0.539 0 1.023 -0.105 1.383 -0.352 c 0.355 -0.246 0.555 -0.625 0.555 -1.07 c 0 -0.402 -0.164 -0.75 -0.457 -0.992"/></g></svg>