
<svg xmlns="http://www.w3.org/2000/svg" xmlns:xlink="http://www.w3.org/1999/xlink" width="16px" height="16px" viewBox="0 0 16 16" version="1.1">
<g id="surface1">
<path style=" stroke:none;fill-rule:nonzero;fill:rgb(86.27451%,86.27451%,86.27451%);fill-opacity:1;" d="M 0.265625 9.851562 C 3.390625 24.644531 24.882812 8.765625 11.972656 1.246094 C 6.957031 -1.976562 -1.339844 2.242188 0.265625 9.851562 Z M 0.265625 9.851562 "/>
<path style=" stroke:none;fill-rule:nonzero;fill:rgb(0%,0%,0%);fill-opacity:0.196078;" d="M 9.734375 4.152344 L 9.753906 4.167969 L 9.796875 4.152344 Z M 10.296875 4.632812 L 13.390625 7.265625 L 13.390625 4.632812 Z M 10.296875 4.632812 "/>
<path style=" stroke:none;fill-rule:nonzero;fill:rgb(100%,100%,100%);fill-opacity:0.392157;" d="M 9.734375 1.515625 L 13.390625 4.632812 L 10.296875 4.632812 C 10.027344 4.632812 9.734375 4.386719 9.734375 4.152344 Z M 9.734375 1.515625 "/>
<path style=" stroke:none;fill-rule:nonzero;fill:rgb(50.196078%,50.196078%,50.196078%);fill-opacity:1;" d="M 9.035156 8.335938 C 9.035156 8.089844 9.0625 7.863281 9.117188 7.652344 C 9.171875 7.441406 9.246094 7.261719 9.347656 7.109375 C 9.445312 6.957031 9.566406 6.839844 9.707031 6.757812 C 9.847656 6.671875 10 6.628906 10.167969 6.628906 C 10.355469 6.628906 10.515625 6.671875 10.652344 6.753906 C 10.789062 6.835938 10.859375 6.96875 10.859375 7.148438 C 10.859375 7.242188 10.835938 7.324219 10.792969 7.394531 C 10.753906 7.46875 10.699219 7.503906 10.632812 7.503906 C 10.601562 7.503906 10.550781 7.484375 10.476562 7.445312 C 10.402344 7.40625 10.351562 7.378906 10.316406 7.363281 C 10.285156 7.351562 10.238281 7.34375 10.179688 7.34375 C 10.050781 7.34375 9.9375 7.386719 9.847656 7.480469 C 9.761719 7.570312 9.695312 7.691406 9.65625 7.84375 C 9.613281 7.996094 9.59375 8.160156 9.59375 8.335938 C 9.59375 8.609375 9.640625 8.839844 9.734375 9.023438 C 9.832031 9.210938 9.964844 9.300781 10.136719 9.300781 C 10.226562 9.300781 10.296875 9.292969 10.351562 9.273438 C 10.402344 9.253906 10.457031 9.226562 10.511719 9.195312 C 10.570312 9.164062 10.613281 9.148438 10.644531 9.148438 C 10.707031 9.148438 10.757812 9.167969 10.792969 9.207031 C 10.828125 9.25 10.847656 9.296875 10.859375 9.347656 C 10.871094 9.402344 10.878906 9.449219 10.878906 9.492188 C 10.878906 9.617188 10.839844 9.722656 10.765625 9.804688 C 10.691406 9.890625 10.597656 9.949219 10.484375 9.984375 C 10.375 10.023438 10.265625 10.042969 10.160156 10.042969 C 9.925781 10.042969 9.722656 9.96875 9.554688 9.816406 C 9.386719 9.664062 9.257812 9.460938 9.167969 9.199219 C 9.078125 8.941406 9.035156 8.652344 9.035156 8.335938 Z M 7.777344 6.628906 C 7.945312 6.628906 8.097656 6.671875 8.238281 6.75 C 8.378906 6.828125 8.496094 6.945312 8.59375 7.089844 C 8.691406 7.238281 8.765625 7.421875 8.820312 7.632812 C 8.875 7.84375 8.902344 8.078125 8.902344 8.335938 C 8.902344 8.589844 8.875 8.824219 8.820312 9.039062 C 8.765625 9.25 8.691406 9.433594 8.59375 9.582031 C 8.496094 9.730469 8.378906 9.84375 8.238281 9.921875 C 8.097656 10.003906 7.945312 10.042969 7.777344 10.042969 C 7.609375 10.042969 7.457031 10.003906 7.320312 9.921875 C 7.179688 9.84375 7.0625 9.726562 6.960938 9.578125 C 6.863281 9.429688 6.789062 9.25 6.734375 9.039062 C 6.679688 8.824219 6.65625 8.589844 6.65625 8.335938 C 6.65625 8.078125 6.679688 7.84375 6.734375 7.632812 C 6.789062 7.421875 6.863281 7.238281 6.964844 7.089844 C 7.0625 6.945312 7.179688 6.828125 7.320312 6.75 C 7.457031 6.671875 7.609375 6.628906 7.777344 6.628906 Z M 7.777344 7.316406 C 7.652344 7.316406 7.546875 7.363281 7.460938 7.457031 C 7.375 7.550781 7.3125 7.679688 7.273438 7.835938 C 7.230469 7.992188 7.210938 8.15625 7.210938 8.335938 C 7.210938 8.511719 7.230469 8.679688 7.273438 8.839844 C 7.3125 8.996094 7.375 9.121094 7.460938 9.214844 C 7.546875 9.308594 7.652344 9.359375 7.777344 9.359375 C 7.90625 9.359375 8.011719 9.3125 8.09375 9.21875 C 8.179688 9.125 8.242188 9 8.28125 8.84375 C 8.320312 8.691406 8.34375 8.519531 8.34375 8.335938 C 8.34375 8.152344 8.324219 7.984375 8.28125 7.828125 C 8.242188 7.675781 8.179688 7.550781 8.09375 7.457031 C 8.011719 7.363281 7.90625 7.316406 7.777344 7.316406 Z M 3.933594 8.820312 L 4.140625 7.140625 C 4.179688 6.832031 4.292969 6.675781 4.484375 6.675781 C 4.566406 6.675781 4.632812 6.699219 4.683594 6.75 C 4.734375 6.800781 4.773438 6.878906 4.808594 6.988281 C 4.84375 7.097656 4.882812 7.261719 4.933594 7.480469 L 5.1875 8.601562 L 5.195312 8.601562 L 5.449219 7.480469 C 5.496094 7.261719 5.539062 7.097656 5.570312 6.988281 C 5.605469 6.878906 5.648438 6.800781 5.699219 6.75 C 5.746094 6.699219 5.8125 6.675781 5.894531 6.675781 C 6.085938 6.675781 6.203125 6.832031 6.242188 7.140625 L 6.445312 8.820312 C 6.503906 9.300781 6.53125 9.574219 6.53125 9.644531 C 6.53125 9.734375 6.511719 9.816406 6.464844 9.886719 C 6.421875 9.960938 6.363281 9.996094 6.289062 9.996094 C 6.214844 9.996094 6.160156 9.976562 6.117188 9.933594 C 6.074219 9.886719 6.046875 9.828125 6.027344 9.757812 C 6.011719 9.6875 5.996094 9.601562 5.988281 9.503906 L 5.832031 8.054688 L 5.824219 8.054688 L 5.476562 9.660156 C 5.453125 9.78125 5.417969 9.867188 5.375 9.917969 C 5.328125 9.96875 5.269531 9.996094 5.191406 9.996094 C 5.113281 9.996094 5.054688 9.96875 5.007812 9.917969 C 4.964844 9.867188 4.929688 9.78125 4.90625 9.660156 L 4.554688 8.054688 L 4.550781 8.054688 L 4.394531 9.503906 C 4.386719 9.601562 4.371094 9.6875 4.355469 9.757812 C 4.335938 9.828125 4.308594 9.886719 4.265625 9.933594 C 4.222656 9.976562 4.167969 9.996094 4.09375 9.996094 C 4.019531 9.996094 3.960938 9.960938 3.914062 9.886719 C 3.871094 9.816406 3.851562 9.734375 3.851562 9.644531 C 3.851562 9.554688 3.878906 9.28125 3.9375 8.820312 Z M 3.933594 8.820312 "/>
</g>
</svg>
