
<svg xmlns="http://www.w3.org/2000/svg" xmlns:xlink="http://www.w3.org/1999/xlink" width="16px" height="16px" viewBox="0 0 16 16" version="1.1">
<g id="surface1">
<path style=" stroke:none;fill-rule:nonzero;fill:rgb(67.843137%,84.705882%,90.196078%);fill-opacity:1;" d="M 0.203125 9.832031 C 3.328125 24.824219 24.820312 8.730469 11.910156 1.105469 C 6.894531 -2.160156 -1.402344 2.121094 0.203125 9.832031 Z M 0.203125 9.832031 "/>
<path style=" stroke:none;fill-rule:nonzero;fill:rgb(0%,0%,0%);fill-opacity:0.196078;" d="M 9.621094 4.476562 L 9.636719 4.492188 L 9.679688 4.476562 Z M 10.160156 4.976562 L 13.132812 7.75 L 13.132812 4.976562 Z M 10.160156 4.976562 "/>
<path style=" stroke:none;fill-rule:nonzero;fill:rgb(100%,100%,100%);fill-opacity:0.392157;" d="M 9.621094 1.703125 L 13.132812 4.976562 L 10.160156 4.976562 C 9.898438 4.976562 9.621094 4.71875 9.621094 4.476562 L 9.621094 1.703125 "/>
<path style=" stroke:none;fill-rule:nonzero;fill:rgb(13.333333%,65.490196%,94.117647%);fill-opacity:1;" d="M 5.519531 5.6875 L 5.519531 6.890625 L 6.582031 6.890625 L 6.582031 5.6875 Z M 7.113281 5.6875 L 7.113281 6.890625 L 8.179688 6.890625 L 8.179688 5.6875 Z M 4.457031 7.492188 L 4.457031 8.695312 L 5.519531 8.695312 L 5.519531 7.492188 Z M 6.050781 7.492188 L 6.050781 8.695312 L 7.113281 8.695312 L 7.113281 7.492188 Z M 7.648438 7.492188 L 7.648438 8.695312 L 8.710938 8.695312 L 8.710938 7.492188 Z M 7.648438 7.492188 "/>
<path style=" stroke:none;fill-rule:nonzero;fill:rgb(13.333333%,65.490196%,94.117647%);fill-opacity:1;" d="M 9.46875 7.632812 C 9.1875 7.851562 9.121094 8.246094 9.207031 8.621094 C 9.296875 8.996094 9.519531 9.265625 9.863281 9.296875 C 9.976562 9.660156 10.28125 9.90625 10.625 9.90625 C 10.964844 9.90625 11.269531 9.660156 11.382812 9.296875 C 11.269531 8.929688 10.964844 8.6875 10.625 8.6875 C 10.460938 8.6875 10.300781 8.742188 10.167969 8.847656 C 10.222656 8.675781 10.226562 8.484375 10.183594 8.304688 C 10.097656 7.933594 9.808594 7.664062 9.46875 7.632812 Z M 9.863281 9.296875 L 3.394531 9.296875 C 3.394531 11.316406 4.84375 12.347656 6.628906 12.347656 C 8.414062 12.347656 9.863281 11.316406 9.863281 9.296875 Z M 4.734375 9.703125 C 4.980469 9.703125 5.179688 9.925781 5.179688 10.203125 C 5.179688 10.480469 4.980469 10.707031 4.734375 10.707031 C 4.488281 10.707031 4.292969 10.480469 4.292969 10.203125 C 4.292969 9.925781 4.488281 9.703125 4.734375 9.703125 Z M 4.734375 9.703125 "/>
</g>
</svg>
