<svg xmlns="http://www.w3.org/2000/svg" viewBox="0 0 256 256"><defs><clipPath><path d="m 171 132 h 54.625 v 24 h -54.625"/></clipPath><clipPath><path d="m 148 97 h 77.63 v 24 h -77.62"/></clipPath><clipPath><path d="m 74 56.824 h 129 v 139.69 h -129"/></clipPath><clipPath><path d="m 27.707 56.824 h 82.29 v 139.69 h -82.29"/></clipPath></defs><g transform="translate(-1.087 -793.1)"><path d="m 140.19 795.9 c -153.31 -14.64 -194.57 232.26 -37.15 251.44 144.75 23.765 219.3 -200.04 75.47 -244.81 -12.16 -4.904 -25.458 -4.811 -38.31 -6.639 z" fill="#f60" color="#fff"/><g transform="matrix(0.45533 0 0 0.48086 -2.996 815.27)" fill="#fff" stroke="#fff"><text line-height="125%" y="231.36" x="729.64" font-family="Gentium Book Basic" word-spacing="0" letter-spacing="0" font-size="129.23"><tspan y="231.36" x="729.64" fill="#fff" stroke="#fff"/></text><text transform="scale(4.0128 0.2492)" y="579.25" x="378.91" font-family="Arial" text-anchor="middle" font-size="46.954"/><text line-height="125%" y="151.36" x="1310.91" font-family="Gentium Book Basic" word-spacing="0" letter-spacing="0" font-size="129.23"><tspan y="151.36" x="1310.91" fill="#fff" stroke="#fff"/></text><text transform="scale(4.0128 0.2492)" y="258.22" x="523.76" font-family="Arial" text-anchor="middle" font-size="46.954"/><text line-height="125%" y="-29.901" x="239.33" font-family="Gentium Book Basic" word-spacing="0" letter-spacing="0" font-size="129.23"><tspan y="-29.901" x="239.33" fill="#fff" stroke="#fff"/></text><text transform="scale(4.0128 0.2492)" y="-469.14" x="256.72" font-family="Arial" text-anchor="middle" font-size="46.954"/><text line-height="125%" y="-246.37" x="1337.38" font-family="Gentium Book Basic" word-spacing="0" letter-spacing="0" font-size="129.23"><tspan y="-246.37" x="1337.38" fill="#fff" stroke="#fff"/></text><text transform="scale(4.0128 0.2492)" y="-1337.81" x="530.36" font-family="Arial" text-anchor="middle" font-size="46.954"/><text line-height="125%" y="-326.38" x="1918.65" font-family="Gentium Book Basic" word-spacing="0" letter-spacing="0" font-size="129.23"><tspan y="-326.38" x="1918.65" fill="#fff" stroke="#fff"/></text><text transform="scale(4.0128 0.2492)" y="-1658.85" x="675.21" font-family="Arial" text-anchor="middle" font-size="46.954"/><text line-height="125%" y="-798.78" x="1529.53" font-family="Gentium Book Basic" word-spacing="0" letter-spacing="0" font-size="129.23"><tspan y="-798.78" x="1529.53" fill="#fff" stroke="#fff"/></text><text transform="scale(4.0128 0.2492)" y="-3554.51" x="578.24" font-family="Arial" text-anchor="middle" font-size="46.954"/><text line-height="125%" y="-878.78" x="2110.79" font-family="Gentium Book Basic" word-spacing="0" letter-spacing="0" font-size="129.23"><tspan y="-878.78" x="2110.79" fill="#fff" stroke="#fff"/></text><text transform="scale(4.0128 0.2492)" y="-3875.54" x="723.09" font-family="Arial" text-anchor="middle" font-size="46.954"/><text line-height="125%" y="535.94" x="277.99" font-family="Gentium Book Basic" word-spacing="0" letter-spacing="0" font-size="208.33"><tspan y="535.94" x="277.99" fill="#fff" stroke="#fff"/></text><g stroke-width="1.457"><path d="m 118.09,149.81 h 129.29 v 96.53 H 118.09 z"/><path d="m 264.62,149.81 v 96.53 H 393.91 V 149.81 H 264.62 z m 8.619,9.653 h 112.05 v 77.23 h -112.05 v -77.23 z"/><path d="m 118.09,265.65 h 129.29 v 96.53 H 118.09 z"/><path d="m 264.62,265.65 h 129.29 v 96.53 H 264.62 z"/></g><g stroke-width="9.194"><g fill="#fff"><path d="m 269.06,154.61 h 120.25 v 86.994 H 269.06 z"/><path d="m 269.06,270.56 h 120.25 v 86.995 H 269.06 z"/><path d="m 122.41,154.61 h 120.25 v 86.994 H 122.41 z"/></g><path d="m 122.41,270.56 h 120.25 v 86.995 H 122.41 z" fill="#f60"/></g></g></g></svg>