<svg xmlns="http://www.w3.org/2000/svg" viewBox="0 0 256 256"><g transform="translate(0 -796.36)"><g color="#000"><path d="m 227.81 844.22 c 87.44 110.84 -44.799 278.58 -174.02 176.43 -122.38 -96.74 -16.907 -267.55 126.43 -214.19 c 19.694 7.333 34.821 21.566 47.595 37.758 z" fill="#f60"/><path d="m 77.25 864.07 h 54.86 l 7.272 10.623 h 50.52 c 6.776 0 12.231 5.455 12.231 12.231 v 53.656 c 0 6.776 -5.455 12.231 -12.231 12.231 h -112.65 c -6.776 0 -12.231 -5.455 -12.231 -12.231 v -64.28 c 0 -6.776 5.455 -12.231 12.231 -12.231 z" fill="#eeb5ac"/><rect width="137.11" height="84.74" x="65.02" y="882.61" rx="12.231" fill="#fff"/></g><g fill="#f60" stroke="#f60"><path d="m 100.24 945.72 l -8.385 -14.14 l 2.649 -4.521 c 2.568 -4.384 2.598 -4.558 0.982 -5.722 -1.458 -1.051 -0.536 -1.17 7.374 -0.953 l 9.04 0.248 l 1.57 3.01 c 0.863 1.657 2.419 4.66 3.458 6.673 l 1.888 3.659 h -2.154 c -1.542 0 -2.675 0.87 -3.987 3.063 -1.01 1.685 -1.834 3.234 -1.834 3.444 0 0.21 4.141 0.381 9.203 0.381 h 9.203 l -0.248 9.256 l -0.248 9.256 l -10.06 0.241 l -10.06 0.241 l -8.385 -14.14 z" stroke-width="1.334"/><path d="m 111.15 914.56 c -4.618 -2.533 -8.388 -4.88 -8.377 -5.216 0.018 -0.563 4.637 -8.367 9.133 -15.432 l 1.883 -2.96 l 18.234 0.011 l 18.234 0.011 l 2.879 4.528 c 1.583 2.49 3.419 4.535 4.079 4.545 1.746 0.025 1.593 0.437 -2.748 7.385 l -3.948 6.318 h -8.528 c -4.69 0 -8.528 -0.211 -8.528 -0.469 0 -0.258 0.516 -1.255 1.148 -2.216 0.933 -1.42 0.802 -2.358 -0.698 -5.01 -1.015 -1.792 -2.287 -3.254 -2.827 -3.247 -0.54 0.006 -2.795 2.983 -5.01 6.615 -6.641 10.884 -5.285 10.418 -14.924 5.131 z" stroke-width="1.439"/><path d="m 142.37 954.01 c -1.887 -2.885 -3.431 -5.579 -3.431 -5.986 0 -0.407 1.823 -3.587 4.051 -7.07 4.04 -6.303 4.055 -6.318 5.334 -4.138 1.082 1.846 1.957 2.188 5.591 2.188 5.559 0 5.553 -0.972 -0.056 -8.651 -2.4 -3.286 -4.577 -6.468 -4.836 -7.07 -0.283 -0.658 1.753 -2.234 5.088 -3.94 3.057 -1.564 6.989 -3.641 8.738 -4.617 1.748 -0.976 3.304 -1.631 3.457 -1.456 0.153 0.175 2.888 4.215 6.078 8.978 l 5.8 8.659 l -9.19 13.895 l -9.19 13.895 l -7 0.278 l -7 0.278 l -3.431 -5.246 z" stroke-width="1.402"/></g></g></svg>