<svg xmlns="http://www.w3.org/2000/svg" viewBox="0 0 32 32"><path d="m 28.703 24.48 c 11.508 -16.367 -9.742 -32.949 -23.297 -19.613 c -12.773 12.563 -0.934 32.09 14.961 25.98 c 3.316 -1.273 6.223 -3.363 8.336 -6.367" fill="#ffd600"/><path d="m 9.629 7.125 c -0.41 0 -0.738 0.43 -0.738 0.965 v 17.313 c 0 0.531 0.328 0.961 0.738 0.961 h 8.117 l 5.906 -7.695 v -10.578 c 0 -0.535 -0.328 -0.965 -0.738 -0.965" fill="#fdcd37"/><path d="m 23.652 18.668 h -5.168 c -0.406 0 -0.738 0.43 -0.738 0.961 v 6.734" fill="#ffe59b"/><path d="m 18.484 18.668 c -0.406 0 -0.738 0.43 -0.738 0.961 v 0.484 c 0 -0.531 0.332 -0.965 0.738 -0.965 h 4.801 l 0.367 -0.48" fill="#fff" fill-opacity="0.2"/><path d="m 12.949 18.19 v -0.961 h 4.43 v 0.961 m -4.43 -1.922 v -0.965 h 6.645 v 0.965 m -6.645 -1.926 v -0.961 h 6.645 v 0.961 m -6.645 -1.922 v -0.965 h 6.645 v 0.965" fill-opacity="0.502"/></svg>