<svg xmlns="http://www.w3.org/2000/svg" viewBox="0 0 32 32"><path d="m 11.355 31.809 c -1.48 -0.23 -3.543 -0.852 -4.988 -1.496 c -2.336 -1.047 -4.434 -3.09 -5.359 -5.219 c -0.566 -1.297 -0.785 -2.484 -0.781 -4.211 c 0.004 -1.492 0.07 -2.039 0.418 -3.402 c 0.664 -2.59 2.109 -5.633 4.121 -8.652 c 0.773 -1.164 1.441 -1.957 2.68 -3.188 c 1.906 -1.895 3.047 -2.75 4.992 -3.746 c 1.152 -0.594 1.871 -0.891 2.797 -1.156 c 0.652 -0.191 0.699 -0.195 2.43 -0.227 c 1.918 -0.035 2.105 -0.02 3.105 0.305 c 2.766 0.887 5.074 3.02 7.551 6.984 c 1.652 2.645 2.57 4.691 3.156 7.05 c 0.363 1.473 0.441 2.109 0.438 3.668 c -0.004 1.262 -0.02 1.465 -0.18 2.211 c -0.477 2.25 -1.441 4.051 -3.129 5.836 c -1.441 1.52 -4.02 3.176 -6.156 3.953 c -0.906 0.328 -2.887 0.883 -3.969 1.113 l -0.926 0.191 l -2.926 0.02 c -1.605 0.012 -3.082 -0.004 -3.273 -0.035" fill="#12cf18"/><path d="m 30.02 16.383 c 0 7.06 -5.813 12.781 -12.98 12.781 c -7.168 0 -12.98 -5.723 -12.98 -12.781 c 0 -7.06 5.813 -12.785 12.98 -12.785 c 7.168 0 12.98 5.723 12.98 12.785" fill="#fff" fill-rule="evenodd"/><path d="m 15.898 29.898 c -0.012 -0.012 -0.145 -0.031 -0.293 -0.043 c -0.301 -0.02 -0.582 -0.059 -0.969 -0.125 c -0.438 -0.074 -0.543 -0.098 -0.895 -0.184 c -0.055 -0.016 -0.18 -0.043 -0.277 -0.066 c -0.211 -0.047 -0.484 -0.125 -0.645 -0.184 c -0.066 -0.023 -0.234 -0.082 -0.379 -0.129 c -0.145 -0.047 -0.395 -0.145 -0.563 -0.215 c -0.168 -0.07 -0.313 -0.125 -0.32 -0.125 c -0.02 0 -0.363 -0.16 -0.684 -0.316 c -0.211 -0.102 -0.777 -0.406 -0.918 -0.492 c -0.199 -0.121 -1.027 -0.664 -1.105 -0.723 c -0.344 -0.262 -0.613 -0.477 -0.715 -0.566 c -0.063 -0.063 -0.172 -0.148 -0.234 -0.195 c -0.289 -0.207 -1.301 -1.273 -1.773 -1.867 c -0.359 -0.453 -0.844 -1.18 -1.148 -1.727 c -0.227 -0.41 -0.613 -1.203 -0.695 -1.426 c -0.027 -0.082 -0.086 -0.234 -0.129 -0.348 c -0.043 -0.109 -0.105 -0.285 -0.141 -0.387 c -0.031 -0.102 -0.098 -0.297 -0.145 -0.434 c -0.047 -0.137 -0.082 -0.277 -0.082 -0.309 c 0 -0.031 -0.012 -0.066 -0.027 -0.074 c -0.012 -0.008 -0.031 -0.059 -0.043 -0.109 c -0.031 -0.16 -0.109 -0.52 -0.137 -0.648 c -0.016 -0.066 -0.043 -0.184 -0.059 -0.258 c -0.055 -0.246 -0.129 -0.738 -0.176 -1.215 c -0.035 -0.375 -0.035 -2.25 0.004 -2.586 c 0.074 -0.664 0.102 -0.848 0.172 -1.164 c 0.02 -0.078 0.039 -0.184 0.047 -0.23 c 0.008 -0.047 0.027 -0.129 0.043 -0.188 c 0.012 -0.055 0.047 -0.203 0.074 -0.328 c 0.027 -0.125 0.086 -0.34 0.129 -0.473 c 0.043 -0.137 0.098 -0.305 0.117 -0.375 c 0.141 -0.484 0.434 -1.207 0.777 -1.91 c 0.145 -0.293 0.383 -0.73 0.43 -0.785 c 0.02 -0.027 0.063 -0.094 0.094 -0.148 c 0.078 -0.145 0.383 -0.602 0.465 -0.707 c 0.039 -0.047 0.102 -0.137 0.137 -0.199 c 0.039 -0.063 0.125 -0.18 0.191 -0.258 c 0.066 -0.082 0.156 -0.195 0.199 -0.258 c 0.211 -0.309 1.328 -1.453 1.84 -1.883 c 0.484 -0.41 1.188 -0.914 1.73 -1.25 c 0.605 -0.371 1.605 -0.859 2.234 -1.09 c 0.16 -0.059 0.313 -0.121 0.344 -0.137 c 0.027 -0.012 0.074 -0.023 0.102 -0.023 c 0.031 0 0.066 -0.012 0.082 -0.027 c 0.027 -0.023 0.254 -0.094 0.613 -0.188 c 0.098 -0.027 0.234 -0.07 0.309 -0.094 c 0.129 -0.043 0.215 -0.066 0.512 -0.121 c 0.078 -0.016 0.164 -0.035 0.191 -0.043 c 0.023 -0.012 0.133 -0.031 0.246 -0.047 c 0.113 -0.016 0.277 -0.043 0.367 -0.059 c 0.68 -0.121 1.113 -0.152 2.227 -0.152 c 1.09 0 1.566 0.035 2.223 0.152 c 0.09 0.016 0.242 0.039 0.34 0.055 c 0.258 0.035 0.766 0.152 1.035 0.234 c 0.043 0.012 0.129 0.035 0.191 0.055 c 0.457 0.121 1.191 0.375 1.531 0.523 c 0.074 0.031 0.199 0.086 0.27 0.117 c 1.035 0.449 2.063 1.063 2.922 1.746 c 0.699 0.555 0.738 0.59 1.25 1.102 c 0.445 0.449 0.578 0.59 0.914 0.984 c 0.297 0.348 1.152 1.559 1.152 1.629 c 0 0.016 0.031 0.066 0.066 0.117 c 0.074 0.098 0.41 0.734 0.605 1.156 c 0.238 0.508 0.613 1.5 0.613 1.621 c 0 0.031 0.016 0.063 0.031 0.074 c 0.016 0.008 0.027 0.047 0.027 0.086 c 0 0.035 0.012 0.074 0.027 0.082 c 0.016 0.008 0.031 0.051 0.043 0.098 c 0.008 0.043 0.031 0.137 0.047 0.207 c 0.059 0.227 0.121 0.527 0.137 0.648 c 0.008 0.063 0.027 0.125 0.043 0.141 c 0.016 0.016 0.027 0.082 0.027 0.148 c 0 0.066 0.012 0.129 0.023 0.137 c 0.016 0.012 0.035 0.09 0.047 0.184 c 0.008 0.09 0.031 0.254 0.047 0.367 c 0.063 0.449 0.082 0.852 0.082 1.793 c 0.004 0.945 -0.016 1.316 -0.082 1.77 c -0.016 0.109 -0.039 0.273 -0.047 0.359 c -0.008 0.086 -0.027 0.184 -0.043 0.215 c -0.012 0.031 -0.031 0.102 -0.039 0.156 c -0.008 0.059 -0.027 0.16 -0.047 0.23 c -0.059 0.262 -0.121 0.563 -0.137 0.656 c -0.012 0.051 -0.027 0.102 -0.043 0.109 c -0.016 0.008 -0.027 0.043 -0.027 0.074 c 0 0.035 -0.023 0.137 -0.055 0.223 c -0.031 0.09 -0.09 0.27 -0.133 0.406 c -0.078 0.242 -0.164 0.48 -0.238 0.645 c -0.02 0.047 -0.082 0.203 -0.137 0.344 c -0.059 0.145 -0.129 0.313 -0.164 0.375 c -0.031 0.063 -0.113 0.227 -0.18 0.359 c -0.156 0.324 -0.406 0.777 -0.457 0.836 c -0.023 0.023 -0.043 0.059 -0.043 0.07 c 0 0.051 -0.582 0.926 -0.773 1.16 c -0.047 0.063 -0.133 0.172 -0.191 0.246 c -0.539 0.707 -1.637 1.797 -2.293 2.289 c -0.484 0.359 -0.953 0.688 -1.164 0.816 c -0.129 0.078 -0.316 0.195 -0.418 0.258 c -0.16 0.098 -1.246 0.645 -1.496 0.75 c -0.727 0.305 -1.457 0.559 -1.934 0.664 c -0.098 0.023 -0.227 0.051 -0.293 0.07 c -0.063 0.016 -0.168 0.039 -0.234 0.051 c -0.063 0.016 -0.176 0.043 -0.246 0.059 c -0.074 0.02 -0.219 0.043 -0.324 0.059 c -0.105 0.016 -0.223 0.035 -0.262 0.047 c -0.078 0.02 -0.316 0.051 -0.793 0.102 c -0.336 0.035 -2.496 0.063 -2.527 0.031 m 5.434 -4.105 c 0.754 -0.168 1.453 -0.617 1.672 -1.066 c 0.09 -0.188 0.094 -0.211 0.09 -0.539 c 0 -0.309 -0.008 -0.371 -0.082 -0.563 c -0.102 -0.258 -0.254 -0.563 -0.387 -0.77 c -0.055 -0.082 -0.098 -0.164 -0.098 -0.18 c 0 -0.016 0.086 -0.133 0.191 -0.262 c 0.23 -0.281 0.461 -0.727 0.523 -1.016 c 0.055 -0.254 0.055 -0.582 0.004 -0.805 c -0.023 -0.094 -0.051 -0.262 -0.063 -0.367 c -0.051 -0.492 -0.258 -0.859 -1.047 -1.836 c -0.59 -0.727 -0.871 -1.102 -1.016 -1.34 c -0.191 -0.32 -0.277 -0.68 -0.496 -2.105 c -0.031 -0.211 -0.086 -0.508 -0.121 -0.652 c -0.039 -0.145 -0.063 -0.27 -0.055 -0.277 c 0.008 -0.008 0.211 0.02 0.453 0.059 c 1.141 0.18 2.074 0.273 2.82 0.281 c 0.453 0.004 0.57 -0.004 0.691 -0.047 c 0.426 -0.145 0.645 -0.605 0.461 -0.973 c -0.129 -0.258 -0.504 -0.574 -1.188 -1 c -0.555 -0.348 -1.234 -0.723 -1.906 -1.047 c -1.309 -0.637 -1.824 -0.777 -2.813 -0.773 c -0.57 0 -0.902 0.043 -1.34 0.168 c -0.453 0.129 -0.668 0.273 -0.902 0.609 l -0.09 0.125 h -0.316 c -0.336 0 -0.734 0.078 -1.012 0.199 c -0.078 0.031 -0.16 0.059 -0.188 0.059 c -0.027 0 -0.094 -0.09 -0.176 -0.242 c -0.246 -0.469 -0.828 -1.148 -1.727 -2.027 c -1.422 -1.391 -2.336 -2.062 -2.797 -2.066 c -0.273 -0.004 -0.516 0.152 -0.652 0.414 c -0.066 0.129 -0.074 0.164 -0.059 0.402 c 0.02 0.324 0.172 0.832 0.453 1.535 c 0.531 1.316 1.492 3.254 2.207 4.453 l 0.23 0.387 l -0.031 0.305 c -0.047 0.398 -0.02 1.059 0.074 1.844 c 0.164 1.418 0.164 1.441 -0.074 2.871 c -0.078 0.48 -0.156 0.973 -0.172 1.09 c -0.016 0.121 -0.063 0.309 -0.102 0.426 c -0.195 0.531 -0.16 1.012 0.117 1.531 c 0.68 1.277 2.961 2.078 5.398 1.895 c 0.359 -0.027 1.051 -0.121 1.176 -0.16 c 0.039 -0.012 0.082 0.027 0.16 0.152 c 0.277 0.426 0.691 0.887 0.957 1.066 c 0.418 0.281 0.758 0.352 1.23 0.246 m -0.68 -1.438 c -0.141 -0.141 -0.277 -0.285 -0.297 -0.32 c -0.031 -0.063 -0.023 -0.07 0.152 -0.145 c 0.102 -0.039 0.359 -0.164 0.574 -0.27 c 0.219 -0.105 0.406 -0.188 0.418 -0.18 c 0.082 0.051 0.32 0.605 0.32 0.758 c 0 0.09 -0.52 0.352 -0.785 0.391 l -0.121 0.02 m -7.02 -5.402 c 0.012 -0.027 0.039 -0.203 0.066 -0.395 c 0.063 -0.43 0.063 -1.168 0 -1.91 c -0.102 -1.191 -0.113 -1.355 -0.098 -1.84 c 0.012 -0.438 0.023 -0.531 0.09 -0.734 c 0.043 -0.125 0.125 -0.297 0.18 -0.379 c 0.336 -0.484 1.109 -1.027 1.789 -1.246 c 0.602 -0.199 1.613 0.047 2.5 0.609 c 0.652 0.41 0.82 0.789 1.027 2.266 c 0.082 0.613 0.188 1.113 0.293 1.434 c 0.113 0.344 0.359 0.816 0.586 1.129 c 0.184 0.258 0.203 0.297 0.121 0.273 c -0.645 -0.195 -2.02 -0.301 -2.906 -0.223 c -1.195 0.109 -2.293 0.402 -3.219 0.867 c -0.219 0.109 -0.406 0.199 -0.418 0.199 c -0.016 0 -0.02 -0.023 -0.008 -0.051 m 2.391 -1.465 c 0.203 -0.098 0.398 -0.309 0.52 -0.555 c 0.105 -0.211 0.105 -0.219 0.105 -0.574 c 0 -0.359 0 -0.363 -0.109 -0.578 c -0.332 -0.66 -1.047 -0.805 -1.547 -0.313 c -0.602 0.59 -0.453 1.691 0.273 2.031 c 0.133 0.059 0.188 0.07 0.387 0.063 c 0.172 -0.008 0.273 -0.027 0.371 -0.074 m 2.379 -0.465 c 0.395 -0.199 0.637 -0.723 0.551 -1.211 c -0.066 -0.383 -0.281 -0.68 -0.594 -0.816 c -0.16 -0.07 -0.207 -0.078 -0.391 -0.066 c -0.129 0.008 -0.25 0.035 -0.324 0.074 c -0.18 0.09 -0.363 0.285 -0.465 0.496 c -0.086 0.172 -0.09 0.207 -0.09 0.516 c 0 0.301 0.004 0.344 0.082 0.504 c 0.102 0.211 0.309 0.43 0.504 0.52 c 0.195 0.094 0.516 0.086 0.727 -0.016 m 3.328 -4.285 c -0.492 -0.066 -1.301 -0.199 -1.934 -0.32 l -0.484 -0.09 l -0.246 -0.18 c -0.137 -0.102 -0.422 -0.27 -0.629 -0.375 l -0.383 -0.195 l 0.133 -0.043 c 0.195 -0.059 0.934 -0.059 1.273 0.008 c 0.316 0.063 0.781 0.238 1.375 0.523 c 0.738 0.355 1.438 0.742 1.316 0.727 c -0.016 0 -0.207 -0.027 -0.422 -0.055 m -9.137 -0.609 c -0.461 -0.813 -0.93 -1.727 -1.168 -2.273 c -0.223 -0.52 -0.27 -0.648 -0.238 -0.648 c 0.051 0 0.93 0.832 1.344 1.27 c 0.621 0.66 0.863 0.965 1.035 1.313 l 0.148 0.297 l -0.359 0.332 c -0.199 0.184 -0.367 0.34 -0.379 0.344 c -0.012 0.004 -0.184 -0.281 -0.383 -0.633" fill="#12cf18"/></svg>