<svg xmlns="http://www.w3.org/2000/svg" xmlns:xlink="http://www.w3.org/1999/xlink" viewBox="0 0 32 32"><defs><g id="4" clip-path="url(#3)"><path d="m 87.09 290.06 h 337.88" transform="matrix(0.06429 0 0 0.06472 -0.962 0.123)" fill="none" stroke="url(#2)" stroke-width="2.112"/></g><g id="8" clip-path="url(#7)"><path d="m 390.15 106.21 v 218.62" transform="matrix(0.06429 0 0 0.06472 -0.962 0.123)" fill="none" stroke="url(#6)" stroke-width="2.112"/></g><g id="C" clip-path="url(#B)"><path d="m 87.09 140.97 h 337.88" transform="matrix(0.06429 0 0 0.06472 -0.962 0.123)" fill="none" stroke="url(#2)" stroke-width="2.112"/></g><g id="H" clip-path="url(#G)"><path d="m 111.89 324.83 v -218.62" transform="matrix(0.06429 0 0 0.06472 -0.576 0.123)" fill="none" stroke="url(#F)" stroke-width="2.112"/></g><g id="L" clip-path="url(#K)"><path d="m 87.07 140.96 l 337.88 0.04" transform="matrix(0.04441 -0.04679 0.04649 0.04471 2.928 21.647)" stroke="url(#2)" stroke-width="2.112"/></g><g id="O" clip-path="url(#N)"><path d="m 87.08 140.98 h 337.89" transform="matrix(0 -0.06472 0.06429 0 8.452 32.554)" fill="none" stroke="url(#2)" stroke-width="2.112"/></g><g id="S" clip-path="url(#R)"><path d="m 60.906 140.94 h 364.02" transform="matrix(0 -0.04949 0.06429 0 2.927 31.889)" fill="none" stroke="url(#Q)" stroke-width="2.158"/></g><g id="W" clip-path="url(#V)"><path d="m 87.03 140.96 h 337.91" transform="matrix(0 -0.04188 0.06429 0 1.898 23.21)" fill="none" stroke="url(#2)" stroke-width="2.112"/></g><clipPath id="7"><path d="M 0,0 H32 V32 H0 z"/></clipPath><clipPath id="G"><path d="M 0,0 H32 V32 H0 z"/></clipPath><clipPath id="B"><path d="M 0,0 H32 V32 H0 z"/></clipPath><clipPath id="K"><path d="M 0,0 H32 V32 H0 z"/></clipPath><clipPath id="3"><path d="M 0,0 H32 V32 H0 z"/></clipPath><clipPath id="V"><path d="M 0,0 H32 V32 H0 z"/></clipPath><clipPath id="N"><path d="M 0,0 H32 V32 H0 z"/></clipPath><clipPath id="R"><path d="M 0,0 H32 V32 H0 z"/></clipPath><filter id="0" filterUnits="objectBoundingBox" x="0" y="0" width="32" height="32"><feColorMatrix type="matrix" in="SourceGraphic" values="0 0 0 0 1 0 0 0 0 1 0 0 0 0 1 0 0 0 1 0"/></filter><linearGradient id="6" gradientUnits="userSpaceOnUse" y1="106.19" x2="0" y2="304.95" xlink:href="#2"/><linearGradient id="2" gradientUnits="userSpaceOnUse" x1="87.06" x2="424.94"><stop stop-color="#e4eaff" stop-opacity="0.2"/><stop offset="0.794" stop-color="#e4eaff"/><stop offset="1" stop-color="#e4eaff" stop-opacity="0.2"/></linearGradient><linearGradient id="Q" gradientUnits="userSpaceOnUse" x1="295" x2="329" gradientTransform="matrix(10.70557 0 0 9.63385 -3097.21 -2277.14)" xlink:href="#2"/><linearGradient id="T" gradientUnits="userSpaceOnUse" x1="295" x2="329" gradientTransform="matrix(10.70557 0 0 9.63385 -3097.21 -2278.43)" xlink:href="#9"/><linearGradient id="I" gradientUnits="userSpaceOnUse" y1="322.5" x2="0" y2="123.74" xlink:href="#9"/><linearGradient id="F" gradientUnits="userSpaceOnUse" y1="324.82" x2="0" y2="126.07" xlink:href="#2"/><linearGradient id="D" gradientUnits="userSpaceOnUse" y1="103.87" x2="0" y2="302.63" xlink:href="#9"/><linearGradient id="9" gradientUnits="userSpaceOnUse" x1="87.06" x2="424.94"><stop stop-color="#e4eaff" stop-opacity="0.16"/><stop offset="0.794" stop-color="#e4eaff" stop-opacity="0.8"/><stop offset="1" stop-color="#e4eaff" stop-opacity="0.16"/></linearGradient><mask id="1"><g filter="url(#0)"><path fill-opacity="0.161" d="M 0,0 H32 V32 H0 z"/></g></mask><mask id="U"><g filter="url(#0)"><path fill-opacity="0.161" d="M 0,0 H32 V32 H0 z"/></g></mask><mask id="M"><g filter="url(#0)"><path fill-opacity="0.161" d="M 0,0 H32 V32 H0 z"/></g></mask><mask id="E"><g filter="url(#0)"><path fill-opacity="0.161" d="M 0,0 H32 V32 H0 z"/></g></mask><mask id="P"><g filter="url(#0)"><path fill-opacity="0.161" d="M 0,0 H32 V32 H0 z"/></g></mask><mask id="J"><g filter="url(#0)"><path fill-opacity="0.161" d="M 0,0 H32 V32 H0 z"/></g></mask><mask id="A"><g filter="url(#0)"><path fill-opacity="0.161" d="M 0,0 H32 V32 H0 z"/></g></mask><mask id="5"><g filter="url(#0)"><path fill-opacity="0.161" d="M 0,0 H32 V32 H0 z"/></g></mask></defs><path d="m 0.371 19.711 c 1.984 12.852 19.609 16.293 27.387 7.117 c 6.852 -6.813 5.145 -19.859 -3.254 -24.332 c -9.652 -5.98 -23.715 1.414 -24.48 13.328 c -0.078 1.305 0.031 2.621 0.348 3.887" fill="#ff8c00"/><use xlink:href="#4" mask="url(#1)"/><use xlink:href="#8" mask="url(#5)"/><path d="m 87.09 288.13 h 337.88" transform="matrix(0.06429 0 0 0.06472 -0.962 0.123)" fill="none" stroke="url(#9)" stroke-width="2.112"/><use xlink:href="#C" mask="url(#A)"/><g fill="none" stroke-width="2.112"><path d="m 87.09 138.68 h 337.88" transform="matrix(0.06429 0 0 0.06472 -0.962 0.123)" stroke="url(#9)"/><path d="m 390.15 103.85 v 218.62" transform="matrix(0.06429 0 0 0.06472 -0.962 0.123)" stroke="url(#D)"/></g><use xlink:href="#H" mask="url(#E)"/><g fill="none" stroke-width="2.112"><path d="m 111.28 322.47 v -218.62" transform="matrix(0.06429 0 0 0.06472 -0.576 0.123)" stroke="url(#I)"/><path d="m 87.09 183.89 h 337.88" transform="matrix(0.06429 0 0 0.06472 -0.962 0.123)" stroke="url(#9)"/></g><use xlink:href="#L" mask="url(#J)"/><path d="m 87.03 138.65 l 337.92 -0.002" transform="matrix(0.04441 -0.04679 0.04649 0.04471 2.928 21.647)" fill="none" stroke="url(#9)" stroke-width="2.112"/><use xlink:href="#O" mask="url(#M)"/><path d="m 87.08 138.67 h 337.89" transform="matrix(0 -0.06472 0.06429 0 8.452 32.554)" fill="none" stroke="url(#9)" stroke-width="2.112"/><use xlink:href="#S" mask="url(#P)"/><path d="m 60.906 139.67 h 364.02" transform="matrix(0 -0.04949 0.06429 0 2.927 31.889)" fill="none" stroke="url(#T)" stroke-width="2.158"/><use xlink:href="#W" mask="url(#U)"/><path d="m 87.03 139.62 h 337.91" transform="matrix(0 -0.04188 0.06429 0 1.898 23.21)" fill="none" stroke="url(#9)" stroke-width="2.112"/><g fill="#fff"><g fill-opacity="0.016"><path d="m 15.887 5.098 c -5.445 0 -9.945 4.258 -9.945 9.41 c 0 2.527 1.105 4.801 2.828 6.496 l 0.949 3.625 c 0.172 0.648 0.527 1.238 1.027 1.707 l 1.23 1.148 c 0.715 0.676 1.684 1.059 2.695 1.063 h 2.43 c 1.012 -0.004 1.98 -0.387 2.699 -1.063 l 1.227 -1.148 c 0.504 -0.469 0.859 -1.059 1.027 -1.707 l 0.949 -3.625 c 1.723 -1.695 2.832 -3.969 2.832 -6.496 c 0 -5.152 -4.504 -9.41 -9.949 -9.41 m 0 8.488 c 0.59 0 0.977 0.367 0.977 0.922 c 0 0.07 -0.008 0.145 -0.07 0.305 c 0 0.004 0 0.008 0 0.012 c 0 0.004 0 0.008 0 0.016 c 0.086 -0.207 0.102 -0.203 -0.066 0.086 c -0.109 0.195 -0.152 0.219 -0.078 0.129 c -0.004 0.008 -0.008 0.016 -0.016 0.023 c -0.09 0.113 -0.016 0.023 -0.039 0.051 c -0.039 0.035 -0.02 0.023 -0.066 0.063 c -0.008 0.008 -0.02 0.02 -0.027 0.027 c 0.055 -0.047 -0.02 0.02 -0.16 0.102 c 0.078 -0.047 -0.004 -0.016 -0.094 0.023 c -0.031 0.016 0 0.004 -0.027 0.012 c -0.156 0.059 -0.27 0.086 -0.16 0.063 c -0.047 0.012 -0.066 0.016 -0.172 0.016 c -0.082 0 -0.109 -0.004 -0.16 -0.016 c 0.09 0.02 0.02 0.02 -0.176 -0.063 c -0.207 -0.086 -0.223 -0.098 -0.117 -0.035 c -0.02 -0.016 -0.035 -0.027 -0.055 -0.039 c -0.129 -0.07 -0.137 -0.078 -0.199 -0.113 c 0.102 0.098 0.133 0.133 -0.066 -0.113 c 0.074 0.09 0.043 0.066 -0.066 -0.129 h 0.012 c -0.086 -0.152 -0.09 -0.148 -0.055 -0.063 c 0.035 0.078 -0.039 -0.074 0 0.027 c -0.004 -0.012 -0.008 -0.02 -0.012 -0.027 c 0.004 0.012 0.008 -0.012 0.012 0 c -0.008 -0.016 -0.016 -0.035 -0.027 -0.051 c -0.004 -0.02 -0.004 -0.02 -0.012 -0.039 c -0.043 -0.121 -0.055 -0.203 -0.055 -0.262 c 0 -0.082 0.004 -0.109 0.016 -0.164 c 0.09 -0.418 0.469 -0.762 0.961 -0.762"/><path d="m 15.887 5.297 c -5.336 0 -9.734 4.164 -9.734 9.211 c 0 2.488 1.09 4.719 2.793 6.383 l 0.973 3.703 c 0.16 0.609 0.492 1.172 0.961 1.617 l 1.23 1.148 c 0.684 0.637 1.605 0.992 2.563 0.988 h 2.43 c 0.957 0.004 1.879 -0.352 2.563 -0.988 l 1.23 -1.148 c 0.469 -0.445 0.805 -1.01 0.961 -1.617 l 0.973 -3.703 c 1.703 -1.664 2.793 -3.895 2.793 -6.383 c 0 -5.05 -4.398 -9.211 -9.734 -9.211 m 0 8.09 c 0.699 0 1.188 0.461 1.188 1.121 c 0 0.094 -0.012 0.191 -0.078 0.367 c -0.004 0.004 -0.012 0.008 -0.016 0.012 c -0.027 0.082 -0.027 0.086 0 0.016 c 0 0.004 0 0.008 0 0.012 c 0.078 -0.188 0.082 -0.184 -0.078 0.102 c -0.113 0.195 -0.145 0.238 -0.082 0.164 c -0.008 0.004 -0.016 0.008 -0.027 0.012 c -0.121 0.152 -0.047 0.082 -0.051 0.09 c -0.043 0.035 -0.031 0.02 -0.082 0.063 c -0.008 0.004 -0.02 0.008 -0.027 0.012 c 0.043 -0.035 -0.039 0.043 -0.188 0.125 c 0.07 -0.039 -0.008 -0.008 -0.121 0.039 c -0.027 0.012 0 0.004 -0.023 0.012 c -0.176 0.066 -0.297 0.094 -0.203 0.078 c -0.063 0.012 -0.094 0.023 -0.211 0.023 c -0.094 0 -0.133 -0.012 -0.203 -0.023 c 0.07 0.012 -0.016 0.004 -0.211 -0.078 c -0.211 -0.082 -0.238 -0.102 -0.148 -0.051 c -0.02 -0.012 -0.035 -0.023 -0.055 -0.035 c -0.133 -0.074 -0.152 -0.082 -0.211 -0.113 c 0.02 0.016 -0.031 -0.027 -0.016 -0.016 c 0.141 0.129 0.121 0.129 -0.094 -0.137 c 0.063 0.078 0.031 0.031 -0.078 -0.164 c -0.086 -0.152 -0.086 -0.164 -0.055 -0.09 c -0.004 -0.004 -0.008 -0.008 -0.012 -0.012 c 0 -0.004 0 -0.008 0 -0.012 c -0.016 -0.027 -0.027 -0.051 -0.043 -0.078 c 0.012 0.023 -0.012 -0.039 0 -0.012 c -0.004 -0.008 -0.008 -0.016 -0.012 -0.027 c -0.031 -0.105 -0.055 -0.207 -0.055 -0.277 c 0 -0.09 0.012 -0.129 0.027 -0.203 c 0.109 -0.504 0.574 -0.922 1.164 -0.922"/><path d="m 15.887 5.5 c -5.215 0 -9.52 4.078 -9.52 9.01 c 0 2.453 1.09 4.652 2.777 6.281 l 0.988 3.754 c 0.148 0.574 0.465 1.098 0.906 1.516 l 1.23 1.148 c 0.641 0.602 1.504 0.938 2.402 0.938 h 2.43 c 0.902 0 1.766 -0.336 2.402 -0.938 l 1.23 -1.148 c 0.445 -0.418 0.758 -0.941 0.906 -1.516 l 0.988 -3.754 c 1.688 -1.629 2.777 -3.832 2.777 -6.281 c 0 -4.934 -4.305 -9.01 -9.52 -9.01 m 0 7.684 c 0.82 0 1.402 0.551 1.402 1.324 c 0 0.125 -0.02 0.246 -0.094 0.445 c 0 0.004 0 0.008 0 0.012 c -0.031 0.078 -0.027 0.078 0 0.012 c -0.004 0.004 -0.008 0.008 -0.012 0.012 c 0.066 -0.164 0.074 -0.148 -0.082 0.129 c -0.109 0.195 -0.156 0.246 -0.105 0.188 c -0.004 0.004 -0.012 0.008 -0.016 0.012 c -0.086 0.113 -0.023 0.043 -0.051 0.078 c -0.059 0.047 -0.043 0.035 -0.121 0.102 c -0.008 0.008 -0.02 0.016 -0.027 0.023 c 0.027 -0.02 -0.063 0.051 -0.215 0.141 c 0.066 -0.039 0.008 -0.008 -0.16 0.063 c -0.012 0.004 0 -0.004 -0.012 0 c -0.215 0.086 -0.32 0.117 -0.242 0.102 c -0.004 0 -0.008 0 -0.012 0 c -0.078 0.016 -0.125 0.012 -0.254 0.012 c -0.121 0 -0.18 -0.004 -0.281 -0.023 c 0.016 0 -0.043 -0.016 -0.227 -0.09 c -0.207 -0.086 -0.246 -0.105 -0.172 -0.063 c -0.016 -0.008 -0.027 -0.02 -0.043 -0.027 c -0.324 -0.18 -0.195 -0.102 -0.078 -0.023 c -0.02 -0.012 -0.012 -0.004 -0.027 -0.012 c -0.09 -0.066 -0.145 -0.098 -0.148 -0.102 c -0.004 -0.004 -0.008 -0.008 -0.012 -0.012 c 0.18 0.164 0.109 0.105 -0.121 -0.18 c 0.051 0.063 0.004 0.008 -0.105 -0.188 c -0.086 -0.152 -0.082 -0.164 -0.055 -0.102 c -0.012 -0.023 -0.027 -0.043 -0.039 -0.063 c -0.008 -0.02 -0.008 -0.023 -0.016 -0.039 c -0.059 -0.168 -0.078 -0.293 -0.078 -0.406 c 0 -0.113 0.004 -0.156 0.027 -0.266 c 0.137 -0.59 0.688 -1.059 1.375 -1.059"/><path d="m 15.887 5.703 c -5.102 0 -9.305 3.98 -9.305 8.805 c 0 2.418 1.078 4.586 2.75 6.18 l 1 3.805 c 0.141 0.539 0.438 1.035 0.855 1.426 l 1.227 1.152 c 0.602 0.559 1.414 0.871 2.258 0.871 h 2.43 c 0.844 0 1.656 -0.313 2.258 -0.871 l 1.227 -1.152 c 0.418 -0.391 0.715 -0.887 0.855 -1.426 l 1 -3.805 c 1.676 -1.594 2.754 -3.762 2.754 -6.18 c 0 -4.824 -4.207 -8.805 -9.309 -8.805 m 0 7.277 c 0.934 0 1.617 0.645 1.617 1.527 c 0 0.148 -0.027 0.293 -0.109 0.508 c 0 0.004 0 0.008 0 0.012 c -0.027 0.078 -0.035 0.082 -0.012 0.027 c 0 0.004 0 0.008 0 0.012 c 0.059 -0.145 0.059 -0.129 -0.094 0.137 c 0 0.004 0 0.012 0 0.016 c -0.113 0.195 -0.168 0.246 -0.133 0.199 c -0.004 0.012 -0.012 0.02 -0.016 0.027 c -0.094 0.121 -0.039 0.055 -0.066 0.09 c -0.059 0.047 -0.043 0.039 -0.133 0.113 c -0.004 0.008 -0.008 0.016 -0.012 0.023 c 0.008 -0.008 -0.098 0.059 -0.254 0.152 c 0.047 -0.027 -0.023 0.008 -0.188 0.074 c -0.016 0.008 -0.004 0.008 -0.016 0.016 c -0.211 0.082 -0.332 0.109 -0.277 0.102 c -0.008 0 -0.012 0 -0.016 0 c -0.09 0.016 -0.148 0.023 -0.293 0.023 c -0.121 0 -0.195 -0.008 -0.293 -0.023 c 0.023 0.004 -0.086 -0.02 -0.297 -0.102 c -0.207 -0.086 -0.254 -0.121 -0.199 -0.09 c -0.012 -0.008 -0.027 -0.016 -0.039 -0.027 c -0.332 -0.184 -0.246 -0.117 -0.109 -0.023 c -0.016 -0.012 -0.012 -0.004 -0.023 -0.012 c -0.102 -0.07 -0.148 -0.117 -0.16 -0.129 c -0.008 -0.004 -0.012 -0.008 -0.016 -0.012 c 0.16 0.148 0.094 0.078 -0.133 -0.203 c 0.035 0.047 -0.023 -0.004 -0.133 -0.199 c -0.086 -0.148 -0.09 -0.176 -0.066 -0.129 c -0.004 -0.004 -0.012 -0.008 -0.016 -0.012 c -0.004 -0.016 -0.008 -0.035 -0.012 -0.051 c -0.004 -0.004 -0.008 -0.008 -0.016 -0.012 c 0 -0.004 0.004 -0.008 0 -0.012 c 0.023 0.043 -0.055 -0.117 -0.012 -0.027 c 0 -0.004 0 -0.008 0 -0.012 c -0.063 -0.18 -0.094 -0.324 -0.094 -0.457 c 0 -0.121 0.004 -0.18 0.027 -0.289 c 0 -0.004 0 -0.008 0 -0.012 c 0.156 -0.688 0.797 -1.227 1.59 -1.227"/></g><g fill-opacity="0.02"><path d="m 15.887 5.906 c -4.988 0 -9.09 3.883 -9.09 8.602 c 0 2.379 1.07 4.516 2.727 6.078 l 1.012 3.855 c 0.133 0.508 0.41 0.973 0.801 1.34 l 1.23 1.148 c 0.563 0.523 1.32 0.813 2.109 0.809 h 2.43 c 0.789 0.004 1.547 -0.285 2.109 -0.809 l 1.23 -1.148 c 0.391 -0.367 0.668 -0.832 0.801 -1.34 l 1.016 -3.855 c 1.656 -1.563 2.723 -3.699 2.723 -6.078 c 0 -4.719 -4.105 -8.602 -9.09 -8.602 m 0 6.871 c 1.047 0 1.828 0.742 1.828 1.73 c 0 0.176 -0.031 0.34 -0.117 0.57 c 0 0.004 0 0.008 0 0.012 c -0.031 0.074 -0.035 0.09 -0.016 0.039 c -0.004 0.004 -0.008 0.008 -0.012 0.012 c 0.051 -0.121 0.039 -0.098 -0.109 0.164 c -0.109 0.199 -0.156 0.27 -0.133 0.242 c -0.004 0.004 -0.008 0.008 -0.012 0.012 c -0.117 0.145 -0.078 0.102 -0.094 0.125 c -0.059 0.051 -0.047 0.043 -0.133 0.113 c -0.012 0.004 -0.02 0.008 -0.027 0.016 c -0.004 0 -0.117 0.094 -0.281 0.188 c 0.035 -0.02 -0.043 0.008 -0.215 0.078 v 0.012 c -0.008 0.004 0 -0.004 -0.012 0 c -0.219 0.086 -0.352 0.117 -0.32 0.113 c -0.105 0.02 -0.191 0.039 -0.348 0.039 c -0.137 0 -0.223 -0.02 -0.336 -0.039 c 0.004 0 -0.117 -0.027 -0.332 -0.113 c -0.207 -0.086 -0.266 -0.113 -0.227 -0.09 c -0.012 -0.008 -0.027 -0.016 -0.039 -0.023 c -0.398 -0.223 -0.453 -0.27 -0.148 -0.066 c -0.098 -0.066 -0.152 -0.117 -0.172 -0.137 c -0.012 -0.004 -0.02 -0.008 -0.027 -0.012 c 0.137 0.125 0.059 0.059 -0.16 -0.215 c 0.023 0.027 -0.02 -0.043 -0.133 -0.242 c -0.086 -0.145 -0.098 -0.176 -0.082 -0.137 c -0.016 -0.039 -0.035 -0.078 -0.055 -0.117 c -0.078 -0.215 -0.117 -0.375 -0.117 -0.543 c 0 -0.133 0.012 -0.207 0.039 -0.328 c 0 -0.004 0 -0.008 0 -0.012 c 0.172 -0.777 0.898 -1.391 1.789 -1.391"/><path d="m 15.887 6.105 c -4.867 0 -8.879 3.797 -8.879 8.402 c 0 2.348 1.078 4.449 2.723 5.977 l 1.027 3.906 c 0.121 0.469 0.375 0.898 0.734 1.238 l 1.23 1.148 c 0.52 0.488 1.219 0.762 1.949 0.762 h 2.43 c 0.73 0 1.43 -0.273 1.949 -0.762 l 1.23 -1.148 c 0.359 -0.34 0.613 -0.77 0.734 -1.238 l 1.027 -3.906 c 1.648 -1.527 2.723 -3.629 2.723 -5.977 c 0 -4.605 -4.01 -8.402 -8.879 -8.402 m 0 6.473 c 1.168 0 2.043 0.828 2.043 1.93 c 0 0.203 -0.023 0.395 -0.121 0.645 c -0.004 0.008 -0.008 0.012 -0.012 0.016 c -0.027 0.07 -0.031 0.082 -0.016 0.035 c 0 0.004 0 0.012 0 0.016 c 0.043 -0.102 0.027 -0.066 -0.117 0.188 c -0.113 0.199 -0.172 0.277 -0.16 0.266 c -0.004 0.004 -0.012 0.008 -0.016 0.012 c -0.121 0.156 -0.102 0.129 -0.117 0.152 c -0.059 0.047 -0.047 0.043 -0.137 0.113 c -0.008 0.008 -0.016 0.02 -0.027 0.027 c -0.016 0.016 -0.137 0.102 -0.305 0.199 c 0.02 -0.008 -0.059 0.027 -0.242 0.102 c -0.008 0.004 -0.004 -0.004 -0.012 0 c -0.23 0.094 -0.383 0.141 -0.375 0.141 c -0.121 0.023 -0.219 0.023 -0.387 0.023 c -0.16 0 -0.262 -0.008 -0.402 -0.035 c -0.035 -0.008 -0.152 -0.043 -0.359 -0.129 c -0.207 -0.086 -0.277 -0.113 -0.254 -0.102 c -0.012 -0.008 -0.027 -0.016 -0.039 -0.023 c -0.336 -0.188 -0.313 -0.172 -0.133 -0.051 c -0.012 -0.008 -0.008 -0.008 -0.016 -0.012 c -0.125 -0.086 -0.18 -0.133 -0.211 -0.164 c -0.008 -0.004 -0.012 -0.008 -0.016 -0.012 c 0.117 0.105 0.027 0.023 -0.188 -0.242 c 0.012 0.012 -0.047 -0.066 -0.16 -0.266 c -0.082 -0.145 -0.102 -0.176 -0.094 -0.152 c -0.004 -0.004 -0.008 -0.008 -0.012 -0.012 c -0.027 -0.063 0.02 0.039 0 -0.012 c -0.004 -0.004 -0.012 -0.008 -0.016 -0.012 c -0.008 -0.023 -0.016 -0.043 -0.023 -0.063 c -0.098 -0.25 -0.121 -0.445 -0.121 -0.645 c 0 -0.156 0.008 -0.238 0.039 -0.383 c 0.195 -0.867 1.01 -1.551 2 -1.551"/></g><g fill-opacity="0.031"><path d="m 15.887 6.512 c -4.641 0 -8.453 3.605 -8.453 7.996 c 0 2.273 1.055 4.305 2.672 5.766 l 1.055 4.02 c 0.102 0.398 0.32 0.762 0.629 1.051 l 1.227 1.148 c 0.441 0.414 1.035 0.645 1.656 0.645 h 2.43 c 0.621 0 1.215 -0.23 1.656 -0.645 l 1.23 -1.148 c 0.305 -0.289 0.523 -0.652 0.625 -1.051 l 1.055 -4.02 c 1.617 -1.461 2.672 -3.492 2.672 -5.766 c 0 -4.391 -3.813 -7.996 -8.453 -7.996 m 0 5.66 c 1.395 0 2.469 1.02 2.469 2.336 c 0 0.254 -0.051 0.5 -0.16 0.785 c -0.023 0.07 -0.023 0.094 -0.012 0.063 c -0.004 0 -0.008 0 -0.012 0 c 0.023 -0.059 0 0 -0.137 0.242 c -0.113 0.199 -0.184 0.297 -0.199 0.316 c -0.004 0.004 -0.008 0.008 -0.012 0.012 c -0.18 0.223 -0.238 0.297 -0.215 0.277 c 0.051 -0.047 -0.047 0.043 -0.012 0.012 c 0.195 -0.184 0.266 -0.258 -0.094 0.039 c -0.008 0.004 -0.012 0.008 -0.016 0.012 c -0.047 0.043 -0.191 0.148 -0.371 0.254 c -0.016 0.008 -0.09 0.043 -0.297 0.125 c -0.25 0.102 -0.41 0.156 -0.453 0.164 c -0.004 0 -0.008 0 -0.012 0 c -0.152 0.031 -0.277 0.039 -0.469 0.039 c -0.188 0 -0.316 -0.02 -0.48 -0.051 c -0.07 -0.016 -0.219 -0.063 -0.441 -0.152 c -0.207 -0.086 -0.297 -0.121 -0.309 -0.125 c -0.012 -0.008 -0.023 -0.02 -0.039 -0.027 c -0.289 -0.16 -0.273 -0.141 -0.16 -0.063 c 0.02 0.016 -0.059 -0.035 -0.027 -0.012 c -0.129 -0.09 -0.199 -0.152 -0.254 -0.203 c -0.004 -0.004 -0.008 -0.008 -0.012 -0.012 c 0.07 0.066 -0.023 -0.039 -0.227 -0.289 c -0.016 -0.02 -0.086 -0.113 -0.199 -0.316 c -0.082 -0.145 -0.109 -0.191 -0.109 -0.191 c -0.008 -0.016 -0.016 -0.035 -0.027 -0.051 c -0.004 -0.012 -0.016 -0.012 -0.027 -0.039 c 0 -0.008 0 -0.016 0 -0.023 c -0.105 -0.285 -0.16 -0.531 -0.16 -0.785 c 0 -0.176 0.02 -0.301 0.055 -0.465 c 0.238 -1.055 1.219 -1.871 2.418 -1.871"/><path d="m 15.887 6.715 c -4.523 0 -8.238 3.512 -8.238 7.793 c 0 2.242 1.055 4.238 2.656 5.664 l 1.07 4.078 c 0.094 0.359 0.293 0.688 0.574 0.949 l 1.227 1.148 c 0.398 0.371 0.938 0.582 1.496 0.582 h 2.43 c 0.563 0 1.098 -0.211 1.496 -0.582 l 1.23 -1.148 c 0.277 -0.262 0.477 -0.59 0.574 -0.949 l 1.066 -4.078 c 1.605 -1.426 2.656 -3.422 2.656 -5.664 c 0 -4.281 -3.715 -7.793 -8.238 -7.793 m 0 5.254 c 1.512 0 2.684 1.109 2.684 2.539 c 0 0.281 -0.047 0.547 -0.16 0.848 c -0.004 0.004 -0.008 0.008 -0.012 0.012 c -0.027 0.07 -0.023 0.09 -0.016 0.066 c -0.004 0 -0.008 0 -0.012 0 c 0.016 -0.039 -0.016 0.02 -0.148 0.25 c -0.113 0.203 -0.184 0.32 -0.211 0.355 c -0.008 0.004 -0.012 0.008 -0.016 0.012 c -0.172 0.219 -0.234 0.297 -0.227 0.289 c 0.039 -0.035 -0.043 0.043 -0.012 0.016 c 0.188 -0.176 0.23 -0.23 -0.109 0.051 c -0.004 0.004 -0.008 0.008 -0.012 0.012 c -0.063 0.051 -0.215 0.168 -0.402 0.277 c -0.027 0.016 -0.129 0.063 -0.32 0.141 c -0.004 0 -0.004 -0.004 -0.012 0 c -0.246 0.098 -0.426 0.148 -0.496 0.164 c -0.164 0.031 -0.313 0.051 -0.52 0.051 c -0.199 0 -0.34 -0.02 -0.52 -0.051 c -0.094 -0.02 -0.266 -0.074 -0.496 -0.164 c -0.207 -0.086 -0.305 -0.125 -0.332 -0.141 c -0.008 -0.008 -0.02 -0.016 -0.027 -0.023 c -0.293 -0.164 -0.32 -0.168 -0.188 -0.078 c -0.008 -0.004 -0.008 -0.008 -0.012 -0.012 c -0.145 -0.098 -0.23 -0.168 -0.297 -0.227 c -0.004 -0.004 -0.008 -0.012 -0.012 -0.016 c 0.051 0.047 -0.043 -0.055 -0.238 -0.301 c -0.027 -0.035 -0.105 -0.148 -0.215 -0.344 c -0.004 -0.004 0.004 -0.004 0 -0.012 c -0.074 -0.125 -0.117 -0.191 -0.121 -0.203 c -0.008 -0.012 -0.016 -0.023 -0.027 -0.035 c -0.008 -0.023 -0.016 -0.031 -0.027 -0.063 c -0.004 -0.012 -0.008 -0.02 -0.012 -0.027 c -0.117 -0.305 -0.16 -0.566 -0.16 -0.848 c 0 -0.184 0.016 -0.32 0.055 -0.492 c 0 -0.004 -0.004 -0.008 0 -0.012 c 0.254 -1.148 1.324 -2.035 2.629 -2.035"/><path d="m 15.887 6.902 c -4.418 0 -8.04 3.426 -8.04 7.609 c 0 2.199 1.043 4.164 2.633 5.559 l 1.078 4.133 c 0.09 0.324 0.27 0.621 0.523 0.859 l 1.227 1.148 c 0.363 0.34 0.852 0.531 1.363 0.531 h 2.43 c 0.512 0 1 -0.191 1.363 -0.531 l 1.227 -1.148 c 0.254 -0.238 0.434 -0.535 0.523 -0.859 l 1.078 -4.133 c 1.59 -1.395 2.633 -3.359 2.633 -5.559 c 0 -4.184 -3.621 -7.609 -8.04 -7.609 m 0 4.879 c 1.617 0 2.883 1.195 2.883 2.727 c 0 0.305 -0.063 0.59 -0.188 0.91 c -0.023 0.066 -0.031 0.094 -0.023 0.078 c 0 0.004 0 0.008 0 0.012 c 0.008 -0.02 -0.035 0.039 -0.16 0.266 c -0.117 0.203 -0.188 0.328 -0.23 0.379 c -0.004 0.004 -0.008 0.008 -0.012 0.012 c -0.172 0.215 -0.246 0.305 -0.254 0.316 c 0.035 -0.031 -0.039 0.035 -0.012 0.012 c 0.168 -0.156 0.207 -0.195 -0.109 0.063 c -0.004 0.004 -0.008 0.008 -0.012 0.012 c -0.078 0.066 -0.25 0.168 -0.441 0.281 c -0.043 0.023 -0.141 0.078 -0.348 0.164 v -0.016 c -0.258 0.105 -0.445 0.176 -0.531 0.191 c -0.18 0.035 -0.344 0.051 -0.563 0.051 c -0.207 0 -0.363 -0.016 -0.547 -0.051 c -0.004 0 -0.012 0 -0.016 0 c -0.109 -0.023 -0.297 -0.082 -0.531 -0.176 c -0.211 -0.086 -0.305 -0.141 -0.348 -0.164 c -0.012 -0.004 -0.02 -0.012 -0.027 -0.016 c -0.277 -0.152 -0.332 -0.168 -0.215 -0.086 c -0.008 -0.004 -0.004 -0.008 -0.012 -0.012 c -0.148 -0.105 -0.234 -0.172 -0.309 -0.242 c -0.004 -0.004 -0.008 -0.008 -0.012 -0.012 c 0.027 0.027 -0.074 -0.09 -0.27 -0.328 c -0.039 -0.051 -0.109 -0.176 -0.227 -0.379 c -0.078 -0.141 -0.109 -0.191 -0.117 -0.215 c -0.012 -0.016 -0.02 -0.027 -0.027 -0.039 c -0.004 0 -0.012 0 -0.016 0 c -0.008 -0.023 -0.012 -0.043 -0.027 -0.078 c 0 -0.008 0 -0.016 0 -0.023 c -0.121 -0.32 -0.188 -0.605 -0.188 -0.91 c 0 -0.195 0.016 -0.348 0.055 -0.531 c 0 -0.004 0 -0.008 0 -0.012 c 0.273 -1.234 1.434 -2.188 2.832 -2.188"/></g><g fill-opacity="0.035"><path d="m 15.887 7.117 c -4.293 0 -7.813 3.332 -7.813 7.391 c 0 2.172 1.039 4.105 2.617 5.461 l 1.098 4.184 c 0.074 0.285 0.23 0.547 0.453 0.758 l 1.227 1.148 c 0.32 0.301 0.754 0.469 1.203 0.469 h 2.43 c 0.453 0 0.883 -0.168 1.203 -0.469 l 1.227 -1.148 c 0.223 -0.211 0.383 -0.473 0.457 -0.758 l 1.094 -4.184 c 1.578 -1.355 2.617 -3.289 2.617 -5.461 c 0 -4.063 -3.52 -7.391 -7.813 -7.391 m 0 4.449 c 1.742 0 3.109 1.293 3.109 2.941 c 0 0.332 -0.059 0.648 -0.184 0.988 c -0.023 0.063 -0.047 0.098 -0.043 0.086 c 0 0.004 -0.035 0.074 -0.16 0.293 c -0.004 0.004 -0.008 0.008 -0.012 0.012 c -0.117 0.207 -0.199 0.324 -0.254 0.391 c 0 0.004 0 0.012 0 0.016 c -0.168 0.211 -0.254 0.313 -0.281 0.34 c 0.027 -0.023 -0.031 0.031 -0.012 0.012 c 0.152 -0.141 0.168 -0.16 -0.121 0.078 c -0.004 0 -0.008 0 -0.012 0 c -0.094 0.078 -0.27 0.199 -0.469 0.316 c -0.063 0.035 -0.168 0.09 -0.375 0.176 v -0.012 c -0.262 0.102 -0.469 0.18 -0.586 0.199 c -0.195 0.039 -0.371 0.051 -0.602 0.051 c -0.219 0 -0.402 -0.012 -0.602 -0.051 c 0 0 -0.008 0.004 -0.012 0 c -0.133 -0.027 -0.328 -0.094 -0.563 -0.188 c -0.004 -0.004 -0.008 0 -0.012 0 c -0.199 -0.082 -0.316 -0.145 -0.375 -0.176 c -0.008 -0.008 -0.016 -0.012 -0.027 -0.016 c -0.258 -0.145 -0.316 -0.164 -0.227 -0.102 c -0.008 -0.004 -0.008 -0.008 -0.012 -0.012 c -0.152 -0.105 -0.25 -0.184 -0.336 -0.266 c -0.004 -0.004 -0.008 -0.008 -0.012 -0.012 c 0.004 0.004 -0.105 -0.121 -0.293 -0.352 c -0.055 -0.066 -0.125 -0.188 -0.242 -0.395 c -0.078 -0.137 -0.117 -0.215 -0.133 -0.25 c -0.012 -0.023 -0.027 -0.043 -0.039 -0.066 c -0.02 -0.035 -0.016 -0.02 -0.027 -0.051 c -0.004 -0.004 0 -0.004 0 -0.012 c -0.004 -0.004 -0.012 -0.008 -0.016 -0.012 c 0 -0.004 0.004 -0.008 0 -0.012 c -0.125 -0.336 -0.188 -0.645 -0.188 -0.973 c 0 -0.211 0.016 -0.375 0.055 -0.57 c 0 -0.004 0 -0.008 0 -0.012 c 0.293 -1.336 1.551 -2.363 3.059 -2.363"/><path d="m 15.887 7.32 c -4.18 0 -7.598 3.234 -7.598 7.187 c 0 2.125 1.023 4.02 2.578 5.336 l 1.121 4.258 c 0.066 0.254 0.203 0.484 0.398 0.668 l 1.23 1.148 c 0.281 0.262 0.66 0.41 1.055 0.406 h 2.43 c 0.395 0.004 0.773 -0.145 1.055 -0.406 l 1.23 -1.148 c 0.195 -0.184 0.332 -0.414 0.398 -0.668 l 1.121 -4.258 c 1.555 -1.32 2.578 -3.207 2.578 -5.336 c 0 -3.953 -3.418 -7.187 -7.598 -7.187 m 0 4.04 c 1.855 0 3.324 1.391 3.324 3.145 c 0 0.359 -0.063 0.695 -0.199 1.051 c 0 0.004 0 0.008 0 0.012 c -0.023 0.063 -0.043 0.078 -0.039 0.078 c 0 0.004 0 0.008 0 0.012 c -0.012 0.023 -0.07 0.105 -0.188 0.316 c -0.117 0.207 -0.203 0.348 -0.27 0.43 c 0 0.004 0 0.008 0 0.012 c -0.172 0.215 -0.277 0.328 -0.32 0.367 c 0.156 -0.145 0.141 -0.137 -0.133 0.086 c -0.109 0.094 -0.289 0.223 -0.492 0.344 c -0.078 0.043 -0.211 0.094 -0.414 0.176 c -0.266 0.105 -0.477 0.176 -0.617 0.203 c -0.004 0 -0.008 0 -0.012 0 c -0.211 0.039 -0.398 0.063 -0.641 0.063 c -0.234 0 -0.43 -0.023 -0.641 -0.063 c -0.004 0 -0.012 0 -0.016 0 c -0.156 -0.031 -0.367 -0.102 -0.613 -0.203 c -0.207 -0.086 -0.336 -0.133 -0.414 -0.176 c -0.004 -0.004 -0.008 -0.008 -0.012 -0.012 c -0.242 -0.137 -0.309 -0.164 -0.242 -0.117 c -0.008 -0.004 -0.008 -0.008 -0.012 -0.012 c -0.16 -0.109 -0.266 -0.199 -0.363 -0.289 c -0.004 0 -0.008 0 -0.012 0 c -0.016 -0.016 -0.125 -0.152 -0.309 -0.379 c -0.066 -0.082 -0.148 -0.223 -0.266 -0.43 c -0.078 -0.141 -0.125 -0.203 -0.148 -0.254 c -0.008 -0.016 -0.016 -0.035 -0.027 -0.051 c -0.004 0 -0.008 0 -0.012 0 c -0.012 -0.023 -0.016 -0.047 -0.027 -0.074 c 0 -0.008 0.004 -0.012 0 -0.016 c -0.004 -0.008 -0.008 -0.016 -0.012 -0.023 c -0.004 -0.004 0 -0.008 0 -0.012 c -0.133 -0.355 -0.203 -0.684 -0.203 -1.039 c 0 -0.227 0.023 -0.402 0.07 -0.617 c 0.309 -1.434 1.641 -2.527 3.258 -2.527"/><path d="m 15.887 7.523 c -4.063 0 -7.383 3.141 -7.383 6.984 c 0 2.105 1.02 3.977 2.574 5.258 l 1.125 4.285 c 0.051 0.215 0.168 0.41 0.332 0.566 l 1.227 1.152 c 0.242 0.227 0.57 0.352 0.91 0.352 h 2.43 c 0.34 0 0.668 -0.125 0.906 -0.352 l 1.23 -1.152 c 0.164 -0.156 0.277 -0.352 0.332 -0.566 l 1.121 -4.285 c 1.559 -1.281 2.578 -3.152 2.578 -5.258 c 0 -3.844 -3.32 -6.984 -7.383 -6.984 m 0 3.637 c 1.973 0 3.539 1.484 3.539 3.348 c 0 0.387 -0.074 0.75 -0.215 1.125 c -0.023 0.059 -0.039 0.086 -0.039 0.09 c 0 0.004 0 0.008 0 0.012 c -0.02 0.043 -0.086 0.125 -0.199 0.328 c 0 0.004 0 0.008 0 0.016 c -0.121 0.207 -0.203 0.355 -0.281 0.453 c -0.004 0 -0.008 0 -0.016 0 c -0.164 0.207 -0.258 0.336 -0.32 0.391 c 0.164 -0.148 0.113 -0.113 -0.145 0.102 c -0.004 0 -0.012 0 -0.016 0 c -0.121 0.105 -0.309 0.234 -0.52 0.355 c -0.094 0.051 -0.23 0.121 -0.426 0.203 c -0.008 0 -0.008 -0.004 -0.016 0 c -0.262 0.102 -0.492 0.18 -0.652 0.211 c -0.223 0.047 -0.441 0.066 -0.695 0.066 c -0.246 0 -0.453 -0.023 -0.68 -0.066 c -0.004 0 -0.012 0.004 -0.016 0 c -0.176 -0.035 -0.402 -0.109 -0.652 -0.211 c -0.211 -0.086 -0.348 -0.148 -0.441 -0.203 c -0.004 -0.004 -0.008 -0.008 -0.012 -0.012 c -0.23 -0.129 -0.309 -0.164 -0.254 -0.129 c -0.004 0 -0.012 0.004 -0.016 0 c -0.164 -0.113 -0.293 -0.203 -0.398 -0.301 c 0 -0.008 0 -0.012 0 -0.016 c -0.039 -0.035 -0.156 -0.172 -0.336 -0.391 c -0.078 -0.098 -0.16 -0.246 -0.277 -0.453 c -0.078 -0.137 -0.137 -0.219 -0.164 -0.281 c -0.004 -0.016 -0.008 -0.031 -0.012 -0.051 c 0 0 -0.012 0.004 -0.012 0 c -0.004 -0.004 0 -0.004 0 -0.012 c -0.016 -0.031 -0.027 -0.051 -0.043 -0.086 c -0.004 -0.012 -0.008 -0.035 -0.012 -0.039 c 0 -0.004 -0.012 -0.012 -0.012 -0.012 c -0.133 -0.363 -0.203 -0.719 -0.203 -1.09 c 0 -0.238 0.02 -0.43 0.066 -0.656 c 0.332 -1.523 1.758 -2.691 3.473 -2.691"/><path d="m 15.887 7.738 c -3.941 0 -7.156 3.039 -7.156 6.77 c 0 2.059 1 3.887 2.535 5.133 l 1.148 4.359 c 0.047 0.176 0.145 0.336 0.281 0.465 l 1.23 1.152 c 0.199 0.188 0.465 0.289 0.746 0.289 h 2.43 c 0.281 0 0.551 -0.102 0.75 -0.289 l 1.227 -1.152 c 0.137 -0.129 0.234 -0.289 0.281 -0.465 l 1.148 -4.359 c 1.535 -1.246 2.535 -3.074 2.535 -5.133 c 0 -3.73 -3.211 -6.77 -7.156 -6.77 m 0 3.207 c 2.094 0 3.766 1.586 3.766 3.566 c 0 0.41 -0.09 0.793 -0.242 1.188 c -0.02 0.055 -0.035 0.102 -0.039 0.113 c -0.027 0.066 -0.09 0.156 -0.199 0.352 c 0 0.004 0 0.008 0 0.016 c -0.121 0.207 -0.215 0.363 -0.309 0.48 c -0.156 0.199 -0.27 0.34 -0.348 0.414 c 0.012 -0.012 -0.02 0.023 -0.012 0.012 c 0.078 -0.074 0.055 -0.078 -0.148 0.09 c -0.004 0.004 -0.008 0.008 -0.012 0.012 c -0.141 0.117 -0.332 0.242 -0.547 0.367 c -0.113 0.066 -0.262 0.133 -0.469 0.215 c -0.27 0.109 -0.516 0.191 -0.707 0.227 c -0.238 0.047 -0.465 0.078 -0.734 0.078 c -0.266 0 -0.488 -0.031 -0.734 -0.078 c -0.203 -0.039 -0.445 -0.117 -0.707 -0.227 c -0.211 -0.086 -0.359 -0.152 -0.469 -0.215 c -0.004 0 -0.008 0 -0.012 0 c -0.211 -0.117 -0.293 -0.156 -0.27 -0.137 c -0.004 -0.004 -0.008 0 -0.012 0 c -0.172 -0.121 -0.297 -0.219 -0.414 -0.332 c -0.004 -0.004 -0.008 -0.008 -0.012 -0.012 c -0.063 -0.055 -0.176 -0.203 -0.348 -0.418 c -0.094 -0.113 -0.191 -0.27 -0.309 -0.48 c -0.074 -0.133 -0.129 -0.227 -0.16 -0.301 c -0.004 -0.012 -0.008 -0.027 -0.012 -0.039 c -0.105 -0.207 -0.109 -0.215 -0.027 -0.012 c 0 -0.004 0 -0.008 0 -0.012 c -0.016 -0.035 -0.027 -0.063 -0.043 -0.102 c 0 -0.004 0 -0.008 0 -0.012 c -0.148 -0.395 -0.238 -0.777 -0.238 -1.191 c 0 -0.25 0.027 -0.457 0.078 -0.691 c 0.352 -1.625 1.863 -2.871 3.688 -2.871"/></g><g fill-opacity="0.059"><path d="m 15.887 7.926 c -3.832 0 -6.957 2.957 -6.957 6.582 c 0 2.031 1.01 3.836 2.539 5.04 l 1.148 4.398 c 0.035 0.148 0.113 0.285 0.227 0.391 l 1.227 1.152 c 0.16 0.145 0.379 0.227 0.602 0.227 h 2.43 c 0.227 0 0.441 -0.082 0.602 -0.227 l 1.227 -1.152 c 0.113 -0.105 0.195 -0.242 0.23 -0.391 l 1.148 -4.398 c 1.527 -1.207 2.535 -3.01 2.535 -5.04 c 0 -3.625 -3.125 -6.582 -6.957 -6.582 m 0 2.832 c 2.203 0 3.965 1.668 3.965 3.75 c 0 0.438 -0.086 0.844 -0.238 1.254 c 0 0.004 0 0.008 0 0.012 c -0.023 0.055 -0.035 0.082 -0.043 0.102 c -0.004 0 -0.008 0 -0.012 0 c -0.035 0.086 -0.094 0.203 -0.199 0.391 c -0.121 0.211 -0.23 0.375 -0.336 0.508 c 0 0.004 0 0.008 0 0.012 c -0.16 0.199 -0.277 0.34 -0.371 0.43 c 0.086 -0.082 0.031 -0.047 -0.164 0.113 c -0.004 0 -0.008 0 -0.012 0 c -0.152 0.129 -0.352 0.262 -0.574 0.391 c -0.125 0.074 -0.285 0.145 -0.492 0.227 c -0.277 0.113 -0.535 0.199 -0.75 0.242 c -0.25 0.051 -0.492 0.074 -0.773 0.074 c -0.277 0 -0.516 -0.023 -0.773 -0.074 c -0.227 -0.043 -0.48 -0.133 -0.75 -0.242 c -0.207 -0.082 -0.367 -0.152 -0.492 -0.227 c -0.004 0 -0.012 0 -0.016 0 c -0.191 -0.105 -0.277 -0.152 -0.277 -0.152 c -0.004 0 -0.012 0.004 -0.016 0 c -0.176 -0.121 -0.313 -0.234 -0.441 -0.352 c -0.082 -0.078 -0.207 -0.238 -0.371 -0.441 c -0.105 -0.133 -0.215 -0.297 -0.336 -0.508 c -0.074 -0.133 -0.121 -0.23 -0.16 -0.316 c -0.004 -0.012 -0.008 -0.023 -0.012 -0.035 c -0.09 -0.176 -0.09 -0.184 -0.027 -0.027 c -0.016 -0.035 -0.023 -0.07 -0.039 -0.113 c -0.004 -0.004 -0.012 -0.008 -0.016 -0.012 c -0.152 -0.41 -0.238 -0.816 -0.238 -1.254 c 0 -0.262 0.027 -0.48 0.078 -0.73 c 0.371 -1.711 1.965 -3.02 3.887 -3.02"/><path d="m 15.887 8.129 c -3.719 0 -6.742 2.863 -6.742 6.379 c 0 1.988 0.988 3.758 2.496 4.93 l 1.176 4.473 c 0.031 0.105 0.09 0.203 0.172 0.277 l 1.23 1.152 c 0.121 0.113 0.281 0.176 0.453 0.176 h 2.43 c 0.172 0 0.336 -0.063 0.453 -0.176 l 1.23 -1.152 c 0.082 -0.074 0.145 -0.172 0.172 -0.277 l 1.176 -4.473 c 1.508 -1.172 2.496 -2.941 2.496 -4.93 c 0 -3.516 -3.02 -6.379 -6.742 -6.379 m 0 2.426 c 2.316 0 4.18 1.762 4.18 3.953 c 0 0.465 -0.094 0.902 -0.254 1.328 c -0.02 0.055 -0.043 0.09 -0.055 0.113 c -0.043 0.105 -0.109 0.223 -0.211 0.406 c -0.121 0.211 -0.23 0.398 -0.348 0.543 c -0.16 0.195 -0.285 0.359 -0.402 0.465 c 0.039 -0.035 -0.02 -0.012 -0.172 0.117 c -0.168 0.141 -0.387 0.285 -0.617 0.414 c -0.141 0.082 -0.313 0.156 -0.52 0.242 c -0.277 0.109 -0.547 0.207 -0.789 0.25 c -0.266 0.055 -0.52 0.078 -0.813 0.078 c -0.289 0 -0.547 -0.027 -0.816 -0.078 c -0.004 0 -0.008 0.004 -0.012 0 c -0.246 -0.047 -0.504 -0.141 -0.773 -0.25 c -0.211 -0.086 -0.379 -0.16 -0.523 -0.242 c -0.004 0 -0.008 0 -0.012 0 c -0.18 -0.098 -0.285 -0.148 -0.309 -0.164 c -0.184 -0.125 -0.324 -0.234 -0.465 -0.367 c -0.008 0 -0.012 0 -0.016 0 c -0.105 -0.094 -0.227 -0.266 -0.387 -0.465 c -0.117 -0.145 -0.227 -0.332 -0.348 -0.543 c -0.074 -0.133 -0.129 -0.234 -0.172 -0.328 c -0.004 -0.012 -0.008 -0.02 -0.016 -0.027 c -0.066 -0.137 -0.07 -0.148 -0.027 -0.039 c -0.016 -0.039 -0.035 -0.082 -0.051 -0.125 c -0.164 -0.43 -0.254 -0.867 -0.254 -1.328 c 0 -0.273 0.027 -0.512 0.078 -0.77 c 0.004 -0.004 0 -0.008 0 -0.012 c 0.395 -1.797 2.082 -3.172 4.102 -3.172"/><path d="m 15.887 8.332 c -3.602 0 -6.527 2.766 -6.527 6.176 c 0 1.957 0.98 3.707 2.48 4.84 l 1.191 4.512 c 0.016 0.07 0.051 0.137 0.105 0.191 l 1.227 1.148 c 0.086 0.074 0.195 0.117 0.309 0.113 h 2.43 c 0.113 0.004 0.227 -0.039 0.309 -0.113 l 1.227 -1.148 c 0.055 -0.055 0.09 -0.121 0.109 -0.191 l 1.188 -4.512 c 1.5 -1.133 2.484 -2.883 2.484 -4.84 c 0 -3.41 -2.926 -6.176 -6.531 -6.176 m 0 2.02 c 2.43 0 4.395 1.859 4.395 4.156 c 0 0.488 -0.102 0.945 -0.27 1.391 c -0.02 0.051 -0.039 0.098 -0.051 0.129 c -0.055 0.125 -0.129 0.254 -0.23 0.43 c -0.117 0.211 -0.242 0.395 -0.371 0.555 c 0 0.004 0 0.008 0 0.012 c -0.156 0.195 -0.281 0.355 -0.414 0.48 c 0.004 -0.008 -0.051 0.027 -0.176 0.129 c -0.18 0.152 -0.418 0.293 -0.652 0.43 c -0.16 0.09 -0.34 0.168 -0.547 0.25 c -0.281 0.113 -0.551 0.215 -0.816 0.266 c -0.004 0 -0.008 0 -0.012 0 c -0.281 0.055 -0.551 0.09 -0.855 0.09 c -0.301 0 -0.574 -0.035 -0.855 -0.09 c -0.004 0 -0.008 0.004 -0.012 0 c -0.266 -0.051 -0.539 -0.152 -0.813 -0.266 c -0.211 -0.082 -0.391 -0.16 -0.551 -0.25 c -0.004 0 -0.008 0 -0.012 0 c -0.156 -0.09 -0.27 -0.133 -0.32 -0.164 c -0.188 -0.133 -0.344 -0.25 -0.492 -0.395 c -0.008 0 -0.012 0 -0.016 0 c -0.125 -0.113 -0.246 -0.301 -0.398 -0.492 c -0.133 -0.16 -0.254 -0.344 -0.375 -0.555 c -0.074 -0.133 -0.125 -0.246 -0.176 -0.355 c -0.004 -0.004 -0.008 -0.008 -0.012 -0.012 c -0.051 -0.105 -0.066 -0.113 -0.039 -0.051 c 0 -0.004 0 -0.008 0 -0.012 c -0.02 -0.043 -0.039 -0.07 -0.055 -0.113 c 0 -0.004 0 -0.008 0 -0.012 c -0.168 -0.445 -0.266 -0.902 -0.266 -1.391 c 0 -0.289 0.035 -0.551 0.094 -0.82 c 0.406 -1.895 2.176 -3.336 4.297 -3.336"/><path d="m 15.887 8.52 c -3.492 0 -6.328 2.688 -6.328 5.992 c 0 1.918 0.984 3.629 2.469 4.723 l 1.203 4.574 c 0.008 0.039 0.023 0.074 0.051 0.102 l 1.23 1.152 c 0.043 0.039 0.102 0.063 0.16 0.063 h 2.43 c 0.063 0 0.117 -0.023 0.16 -0.063 l 1.23 -1.152 c 0.027 -0.027 0.043 -0.063 0.051 -0.102 l 1.203 -4.574 c 1.488 -1.094 2.469 -2.805 2.469 -4.723 c 0 -3.305 -2.836 -5.992 -6.328 -5.992 m 0 1.645 c 2.543 0 4.594 1.938 4.594 4.348 c 0 0.512 -0.105 0.988 -0.281 1.453 c -0.02 0.047 -0.023 0.098 -0.039 0.137 c -0.063 0.148 -0.16 0.277 -0.254 0.441 c -0.121 0.215 -0.23 0.418 -0.375 0.594 c -0.148 0.191 -0.285 0.363 -0.441 0.508 c -0.02 0.02 -0.09 0.059 -0.188 0.137 c -0.195 0.168 -0.441 0.32 -0.68 0.457 c -0.172 0.098 -0.355 0.184 -0.559 0.266 c -0.004 0 -0.012 -0.004 -0.016 0 c -0.281 0.113 -0.57 0.223 -0.855 0.277 c -0.293 0.059 -0.59 0.078 -0.906 0.078 c -0.316 0 -0.609 -0.02 -0.91 -0.078 c -0.289 -0.059 -0.57 -0.164 -0.852 -0.277 c -0.211 -0.086 -0.398 -0.164 -0.574 -0.266 c -0.004 0 -0.012 0 -0.016 0 c -0.137 -0.078 -0.254 -0.125 -0.332 -0.176 c -0.191 -0.133 -0.359 -0.27 -0.52 -0.418 c -0.148 -0.137 -0.293 -0.32 -0.441 -0.508 c -0.145 -0.176 -0.254 -0.379 -0.375 -0.594 c -0.074 -0.129 -0.145 -0.23 -0.199 -0.352 c 0 -0.004 0 -0.008 0 -0.012 c -0.035 -0.07 -0.063 -0.094 -0.055 -0.078 c -0.02 -0.043 -0.023 -0.078 -0.039 -0.125 c 0 -0.004 0 -0.008 0 -0.012 c -0.176 -0.465 -0.281 -0.941 -0.281 -1.453 c 0 -0.305 0.02 -0.578 0.082 -0.859 c 0.426 -1.984 2.289 -3.488 4.512 -3.488 m -1.91 10.512 h 3.82 v 0.379 h -3.82"/></g><path d="m 15.82 8.289 c -3.734 0 -6.762 2.883 -6.762 6.441 c 0 2.102 1.07 3.977 2.703 5.152 l 1.355 5.152 l 1.352 1.289 h 2.703 l 1.352 -1.289 l 1.352 -5.152 c 1.637 -1.176 2.707 -3.051 2.707 -5.152 c 0 -3.559 -3.03 -6.441 -6.762 -6.441 m 0 1.352 c 2.949 0 5.34 2.277 5.34 5.086 c 0 0.605 -0.133 1.16 -0.332 1.699 c -0.02 0.051 -0.035 0.105 -0.059 0.156 c -0.078 0.191 -0.176 0.355 -0.277 0.531 c -0.133 0.242 -0.273 0.477 -0.445 0.691 c -0.16 0.203 -0.309 0.402 -0.5 0.582 c -0.066 0.063 -0.152 0.102 -0.223 0.16 c -0.234 0.199 -0.508 0.371 -0.777 0.527 c -0.215 0.125 -0.438 0.227 -0.668 0.32 c -0.32 0.129 -0.652 0.25 -1 0.316 c -0.344 0.07 -0.688 0.105 -1.055 0.105 c -0.367 0 -0.711 -0.039 -1.059 -0.105 c -0.348 -0.07 -0.68 -0.188 -1 -0.316 c -0.23 -0.098 -0.453 -0.195 -0.668 -0.32 c -0.129 -0.07 -0.266 -0.129 -0.391 -0.211 c -0.215 -0.152 -0.418 -0.297 -0.609 -0.477 c -0.191 -0.176 -0.344 -0.383 -0.504 -0.582 c -0.172 -0.215 -0.309 -0.449 -0.441 -0.691 c -0.082 -0.141 -0.16 -0.273 -0.223 -0.422 c -0.02 -0.035 -0.043 -0.07 -0.059 -0.109 c -0.02 -0.051 -0.035 -0.102 -0.055 -0.156 c -0.203 -0.539 -0.332 -1.094 -0.332 -1.695 c 0 -0.352 0.039 -0.676 0.109 -1.01 c 0.5 -2.32 2.648 -4.082 5.23 -4.082 m -2.367 11.723 h 4.734 v 0.902 h -4.734"/></g></svg>