<svg xmlns="http://www.w3.org/2000/svg" viewBox="0 0 32 32"><g fill="#ff4500"><path d="m 21.13 20.711 c 0 -1.527 -1.23 -2.766 -2.742 -2.766 c -1.516 0 -2.742 1.238 -2.742 2.766 c 0 1.527 1.227 2.766 2.742 2.766 c 1.516 0 2.742 -1.238 2.742 -2.766"/><path d="m 21.457 10.996 c 0 -1.527 -1.227 -2.766 -2.742 -2.766 c -1.512 0 -2.742 1.238 -2.742 2.766 c 0 1.527 1.23 2.766 2.742 2.766 c 1.516 0 2.742 -1.238 2.742 -2.766"/><path d="m 10.941 16.309 c 0 -1.527 -1.227 -2.766 -2.742 -2.766 c -1.516 0 -2.742 1.238 -2.742 2.766 c 0 1.527 1.227 2.766 2.742 2.766 c 1.516 0 2.742 -1.238 2.742 -2.766"/></g><path d="m 3.352 25.22 c -15.789 -23.762 34.566 -38.4 27.902 -7.68 c -2.844 12.699 -20.66 20.402 -27.902 7.68" fill="#7f007f"/><path d="m 9.766 24.07 c -0.125 -0.113 -0.406 -0.328 -0.633 -0.477 c -0.223 -0.148 -0.426 -0.395 -0.449 -0.543 c -0.059 -0.371 0.555 -1.484 1.125 -2.047 c 0.262 -0.258 0.441 -0.523 0.398 -0.59 c -0.043 -0.066 0.152 -0.309 0.438 -0.535 c 0.281 -0.23 0.469 -0.418 0.414 -0.418 c -0.188 0 0.426 -0.98 0.668 -1.07 c 0.133 -0.047 0.242 -0.188 0.242 -0.305 c 0 -0.121 0.152 -0.297 0.336 -0.391 c 0.184 -0.094 0.316 -0.223 0.301 -0.285 c -0.02 -0.066 0.125 -0.359 0.316 -0.652 c 0.23 -0.352 0.383 -0.461 0.441 -0.32 c 0.055 0.129 0.094 0.09 0.105 -0.109 c 0.008 -0.176 0.164 -0.5 0.344 -0.723 c 0.355 -0.434 0.434 -0.801 0.168 -0.801 c -0.094 0 -0.168 -0.082 -0.168 -0.18 c 0 -0.105 0.156 -0.141 0.391 -0.082 c 0.262 0.063 0.508 -0.012 0.746 -0.223 c 0.195 -0.176 0.453 -0.32 0.574 -0.32 c 0.297 -0.004 0.969 -0.711 0.969 -1.02 c 0 -0.141 0.188 -0.375 0.418 -0.52 c 0.23 -0.145 0.418 -0.367 0.418 -0.492 c 0 -0.125 0.145 -0.375 0.32 -0.559 c 0.566 -0.582 0.848 -2.547 0.363 -2.547 c -0.063 0 -0.285 -0.152 -0.488 -0.332 c -0.332 -0.297 -0.535 -0.328 -1.75 -0.27 c -0.754 0.039 -1.543 0.125 -1.75 0.191 c -0.313 0.105 -0.379 0.066 -0.379 -0.211 c 0 -0.246 0.246 -0.461 0.879 -0.777 c 1.469 -0.734 2.07 -0.844 4.57 -0.848 l 2.352 -0.004 l 0.832 0.816 c 0.457 0.445 0.953 0.934 1.102 1.082 c 0.152 0.148 0.324 0.426 0.383 0.617 c 0.117 0.363 1.586 1.609 1.813 1.539 c 0.352 -0.109 0.168 0.914 -0.285 1.566 c -0.281 0.41 -0.414 0.902 -0.496 1.801 c -0.059 0.684 -0.223 1.516 -0.363 1.848 c -0.516 1.215 -0.961 2.063 -1.348 2.563 c -0.215 0.281 -0.395 0.586 -0.395 0.676 c 0 0.09 -0.133 0.254 -0.301 0.371 c -0.164 0.117 -0.41 0.359 -0.543 0.547 c -0.363 0.5 -2.469 2.184 -3.426 2.734 c -1.941 1.117 -3.063 1.504 -4.332 1.5 l -1.195 -0.004 l 0.613 -0.547 c 0.336 -0.301 0.57 -0.586 0.516 -0.637 c -0.051 -0.051 -0.008 -0.094 0.102 -0.094 c 0.105 0 0.195 -0.141 0.195 -0.313 c 0 -0.172 0.145 -0.406 0.324 -0.527 c 0.313 -0.211 0.777 -1.605 0.965 -2.895 c 0.105 -0.754 -0.309 -0.844 -0.617 -0.129 c -0.109 0.258 -0.313 0.508 -0.449 0.559 c -0.133 0.051 -0.199 0.164 -0.141 0.254 c 0.059 0.09 0.02 0.16 -0.082 0.16 c -0.105 0 -0.141 0.078 -0.078 0.172 c 0.063 0.094 -0.027 0.207 -0.199 0.25 c -0.172 0.043 -0.445 0.344 -0.609 0.672 c -0.164 0.328 -0.555 1.063 -0.871 1.637 c -0.316 0.574 -0.539 1.133 -0.5 1.246 c 0.098 0.281 -1.992 0.273 -2.297 -0.008 m 9 -5.16 c 0.133 -0.125 0.238 -0.285 0.238 -0.348 c 0 -0.066 0.117 -0.246 0.262 -0.398 c 0.145 -0.152 0.293 -0.504 0.328 -0.785 c 0.039 -0.281 0.223 -0.75 0.414 -1.043 c 0.207 -0.32 0.297 -0.645 0.227 -0.816 c -0.063 -0.164 -0.047 -0.246 0.043 -0.195 c 0.094 0.059 0.18 -0.777 0.211 -2.059 c 0.031 -1.188 0.02 -2.156 -0.027 -2.156 c -0.168 0 -1.027 0.48 -0.871 0.488 c 0.094 0 0.039 0.078 -0.125 0.168 c -0.16 0.09 -0.414 0.395 -0.566 0.676 c -0.152 0.285 -0.398 0.605 -0.547 0.711 c -0.145 0.109 -0.211 0.199 -0.145 0.199 c 0.066 0.004 -0.129 0.258 -0.438 0.563 c -0.41 0.402 -0.563 0.699 -0.563 1.082 c 0 0.293 -0.039 0.637 -0.09 0.77 c -0.273 0.73 -0.27 0.879 0.035 1.352 c 0.184 0.281 0.383 0.816 0.445 1.188 c 0.113 0.688 0.48 0.918 0.621 0.395 c 0.059 -0.211 0.082 -0.191 0.098 0.078 c 0.023 0.422 0.121 0.449 0.449 0.133" fill="#fff" fill-rule="evenodd"/></svg>