<svg xmlns="http://www.w3.org/2000/svg" viewBox="0 0 32 32"><path d="m 28.645 24.512 c 11.453 -16.301 -9.699 -32.813 -23.19 -19.531 c -12.715 12.508 -0.926 31.949 14.891 25.871 c 3.301 -1.27 6.199 -3.352 8.301 -6.34" fill="#2f4e4e"/><path d="m 8.08 7.805 l 4.359 17.477 h 7.133 l 4.352 -17.477 h -4.352 l -3.566 13.98 l -3.566 -13.98" fill="#fdcd37"/><g fill="#fff" fill-opacity="0.2"><path d="m 8.08 7.805 l 4.359 17.477 h 4.359 l -0.793 -3.496 l -3.566 -13.98"/><path d="m 8.08 7.805 l 0.109 0.438 h 4.25 l 3.566 13.98 l 3.566 -13.98 h 4.242 l 0.109 -0.438 h -4.352 l -3.566 13.98 l -3.566 -13.98"/></g><path d="m 8.08 7.805 l 4.359 17.477 h 7.133 l 4.352 -17.477 h -0.109 l -4.242 17.04 h -7.133 l -4.25 -17.04" fill-opacity="0.302"/></svg>