<svg xmlns="http://www.w3.org/2000/svg" viewBox="0 0 32 32"><path d="m 0.371 19.664 c 1.984 12.902 19.609 16.355 27.387 7.145 c 6.852 -6.844 5.145 -19.938 -3.254 -24.43 c -9.652 -6.01 -23.715 1.418 -24.48 13.379 c -0.078 1.309 0.031 2.633 0.348 3.906" fill="#f4f4f4"/><path d="m 22.887 26.41 c -0.121 -0.121 -0.203 -0.703 -0.203 -1.461 c 0 -1.18 -0.152 -1.977 -0.785 -4.105 c -0.219 -0.742 -0.32 -0.871 -0.672 -0.871 h -0.41 v 2.871 c 0 2.01 -0.063 2.926 -0.207 3.066 c -0.109 0.109 -0.641 0.199 -1.176 0.199 c -1.496 0 -1.508 -0.02 -1.508 -3.328 c 0 -2.699 -0.012 -2.809 -0.34 -2.809 c -0.32 0 -0.34 0.109 -0.34 2.199 c 0 1.809 -0.055 2.305 -0.309 2.781 c -0.367 0.688 -1.527 1.324 -2.402 1.32 c -0.781 -0.008 -1.895 -0.508 -2.332 -1.047 l -0.344 -0.426 l -0.219 0.398 c -0.367 0.672 -1.148 0.91 -2.965 0.91 c -0.902 0 -1.789 -0.078 -1.973 -0.172 c -0.309 -0.16 -0.328 -0.387 -0.328 -4.113 c 0 -2.844 0.059 -3.996 0.203 -4.141 c 0.258 -0.25 2.859 -0.266 3.758 -0.02 c 0.355 0.098 0.793 0.316 0.969 0.488 c 0.316 0.313 0.328 0.309 0.547 -0.133 c 0.211 -0.426 0.289 -0.453 1.492 -0.473 c 0.699 -0.012 1.367 -0.031 1.48 -0.043 c 0.145 -0.012 0.215 -0.34 0.215 -1.012 v -0.996 h -0.902 c -0.492 0 -0.988 -0.09 -1.098 -0.195 c -0.156 -0.148 -0.273 -0.133 -0.508 0.078 c -0.926 0.816 -2.441 0.988 -3.605 0.406 c -1.387 -0.691 -1.449 -0.875 -1.449 -4.352 c 0 -2.816 0.027 -3.078 0.352 -3.504 c 0.543 -0.711 1.109 -1.047 1.945 -1.156 c 1.699 -0.223 3.086 0.582 3.461 2.01 l 0.219 0.828 l 0.125 -0.996 c 0.207 -1.613 0.359 -1.742 2.047 -1.742 c 1.027 0 1.496 0.07 1.676 0.242 c 0.215 0.211 0.57 1.664 0.652 2.676 c 0.016 0.176 0.074 -0.289 0.133 -1.031 c 0.059 -0.742 0.207 -1.469 0.332 -1.617 c 0.164 -0.191 0.516 -0.27 1.219 -0.27 c 1.469 0 1.516 0.117 1.516 3.437 c 0 2.59 0.016 2.699 0.34 2.699 c 0.328 0 0.34 -0.109 0.34 -2.805 c 0 -2.332 0.047 -2.855 0.27 -3.07 c 0.34 -0.332 2.152 -0.363 2.426 -0.039 c 0.113 0.133 0.203 1.297 0.23 3.02 c 0.047 2.656 0.066 2.809 0.387 2.867 c 0.629 0.109 0.938 0.531 0.938 1.281 c 0 1.203 -0.039 1.215 -4.105 1.215 c -1.969 0.004 -3.621 0.039 -3.664 0.082 c -0.043 0.043 -0.098 0.363 -0.117 0.711 c -0.02 0.348 -0.07 0.746 -0.109 0.883 c -0.063 0.211 0.348 0.262 2.777 0.332 c 2.25 0.063 2.883 0.133 3 0.324 c 0.133 0.207 0.199 0.199 0.484 -0.051 c 0.254 -0.223 0.563 -0.281 1.309 -0.242 c 1.461 0.074 1.477 0.16 0.625 3.07 c -0.598 2.031 -0.719 2.695 -0.719 3.867 c 0.004 1.891 -0.18 2.152 -1.5 2.152 c -0.535 0 -1.066 -0.09 -1.18 -0.199 m -14.516 -5.324 l -0.063 -0.699 l -0.137 0.539 c -0.094 0.371 -0.238 0.539 -0.457 0.539 c -0.258 0 -0.32 0.125 -0.32 0.656 c 0 0.551 0.074 0.688 0.469 0.875 l 0.469 0.219 l 0.051 -0.715 c 0.027 -0.391 0.023 -1.027 -0.012 -1.414 m 11.664 1.777 c 0.176 -0.449 0.102 -1.461 -0.141 -1.887 c -0.125 -0.223 -0.191 -0.504 -0.145 -0.621 c 0.047 -0.125 -0.035 -0.215 -0.195 -0.215 c -0.363 0 -0.605 0.66 -0.605 1.652 c 0 1.055 0.121 1.332 0.594 1.332 c 0.211 0 0.434 -0.117 0.492 -0.262 m -6.184 -1.332 c 0 -1.234 -0.035 -1.414 -0.27 -1.328 c -0.145 0.055 -0.375 0.102 -0.508 0.102 c -0.184 0 -0.242 0.266 -0.242 1.137 c 0 1.012 0.043 1.152 0.383 1.313 c 0.211 0.102 0.441 0.188 0.512 0.191 c 0.066 0.008 0.125 -0.629 0.125 -1.414 m -2.719 0.27 c 0 -0.824 -0.043 -0.973 -0.262 -0.891 c -0.152 0.059 -0.367 -0.035 -0.508 -0.211 c -0.223 -0.281 -0.246 -0.203 -0.207 0.766 c 0.035 0.902 0.09 1.07 0.328 1.031 c 0.156 -0.023 0.332 0.031 0.391 0.125 c 0.207 0.328 0.258 0.164 0.258 -0.82 m 5.215 0.129 c -0.055 -0.129 -0.098 -0.09 -0.105 0.102 c -0.004 0.176 0.035 0.273 0.09 0.219 c 0.059 -0.055 0.063 -0.199 0.016 -0.32 m 7.336 -0.672 c -0.012 -0.297 -0.066 -0.75 -0.125 -1 c -0.094 -0.402 -0.145 -0.438 -0.387 -0.25 c -0.254 0.195 -0.258 0.293 -0.039 1 c 0.277 0.906 0.582 1.043 0.551 0.25 m 1.707 -0.391 c 0.109 -0.422 0.176 -0.789 0.148 -0.813 c -0.027 -0.023 -0.211 0.016 -0.406 0.09 c -0.422 0.152 -0.703 1.309 -0.371 1.512 c 0.305 0.184 0.414 0.047 0.629 -0.789 m -17.57 -0.066 c -0.055 -0.09 -0.176 -0.164 -0.262 -0.164 c -0.09 0 -0.16 0.074 -0.16 0.164 c 0 0.094 0.117 0.168 0.266 0.168 c 0.145 0 0.215 -0.074 0.156 -0.168 m 16.14 -9.699 v -1.301 l -0.469 -0.02 c -0.535 -0.023 -0.617 0.152 -0.559 1.234 c 0.09 1.766 0.047 1.645 0.559 1.508 c 0.461 -0.117 0.469 -0.145 0.469 -1.422 m -8.848 0.063 c 0.125 -1.074 0.004 -1.547 -0.176 -0.68 c -0.059 0.285 -0.191 0.504 -0.297 0.484 c -0.109 -0.02 -0.219 0.238 -0.246 0.586 c -0.043 0.523 0 0.621 0.273 0.621 c 0.277 0 0.348 -0.16 0.445 -1.012 m -5.512 0.391 c -0.008 -0.438 -0.016 -0.441 -0.258 -0.133 c -0.195 0.254 -0.203 0.352 -0.035 0.453 c 0.297 0.184 0.297 0.188 0.293 -0.32 m 3.57 -0.012 c 0 -0.238 -0.199 -0.277 -1.359 -0.277 c -1.242 0 -1.359 0.027 -1.359 0.332 c 0 0.309 0.094 0.328 1.359 0.277 c 1.137 -0.047 1.359 -0.102 1.359 -0.332 m 4.055 0.32 c 0.145 -0.09 0.188 -0.273 0.113 -0.496 c -0.063 -0.195 -0.18 -0.316 -0.258 -0.27 c -0.082 0.051 -0.195 -0.141 -0.262 -0.422 c -0.176 -0.793 -0.281 -0.461 -0.152 0.488 c 0.121 0.879 0.168 0.941 0.559 0.699 m 2.57 -0.555 c 0 -0.082 0.078 -0.098 0.172 -0.043 c 0.094 0.059 0.133 0.172 0.082 0.25 c -0.051 0.078 -0.012 0.188 0.082 0.246 c 0.113 0.066 0.172 -0.301 0.168 -1.027 c -0.004 -0.973 -0.035 -1.086 -0.23 -0.836 c -0.266 0.34 -0.551 0.375 -0.672 0.082 c -0.047 -0.113 -0.09 0.316 -0.094 0.953 c -0.008 1.055 0.016 1.133 0.242 0.84 c 0.137 -0.176 0.25 -0.387 0.25 -0.465 m -7.305 -0.852 c 0 -0.137 -1.039 -0.207 -1.121 -0.074 c -0.047 0.074 0.184 0.137 0.516 0.137 c 0.332 0 0.605 -0.027 0.605 -0.066" fill="#cecfd1"/><path d="m 22.859 26.12 c -0.094 -0.18 -0.176 -0.941 -0.18 -1.703 c 0 -1.01 -0.129 -1.801 -0.473 -2.953 c -0.41 -1.363 -0.527 -1.582 -0.871 -1.633 c -0.219 -0.031 -0.461 0.047 -0.539 0.168 c -0.082 0.121 -0.148 1.465 -0.148 2.98 c 0 2.363 -0.039 2.777 -0.27 2.863 c -0.496 0.184 -1.895 0.105 -2.086 -0.121 c -0.113 -0.133 -0.203 -1.297 -0.234 -3.03 l -0.047 -2.805 h -0.848 l -0.086 2.402 c -0.055 1.617 -0.16 2.516 -0.313 2.738 c -0.449 0.652 -1.094 0.977 -2.059 1.039 c -1.121 0.07 -1.93 -0.289 -2.508 -1.117 l -0.379 -0.543 l -0.156 0.395 c -0.348 0.891 -0.758 1.051 -2.801 1.102 c -1.055 0.027 -2 -0.027 -2.148 -0.117 c -0.207 -0.137 -0.262 -0.781 -0.309 -3.695 c -0.031 -2.188 0.016 -3.707 0.125 -3.988 l 0.176 -0.457 l 1.746 0.004 c 1.855 0 2.512 0.188 2.992 0.855 c 0.246 0.344 0.254 0.34 0.438 -0.211 l 0.188 -0.563 l 1.395 -0.008 c 0.77 0 1.48 -0.082 1.582 -0.18 c 0.102 -0.102 0.16 -0.609 0.129 -1.156 l -0.051 -0.98 l -0.93 -0.051 c -0.512 -0.027 -1.02 -0.125 -1.129 -0.215 c -0.137 -0.109 -0.398 -0.031 -0.828 0.254 c -1.09 0.723 -2.742 0.781 -3.637 0.133 c -0.988 -0.719 -1.121 -1.203 -1.121 -4.102 c 0 -2.918 0.129 -3.379 1.16 -4.129 c 0.727 -0.527 2.699 -0.5 3.488 0.051 c 0.672 0.465 1.043 1.234 1.043 2.156 c 0 1.211 0.293 0.855 0.484 -0.59 c 0.102 -0.785 0.277 -1.527 0.383 -1.656 c 0.137 -0.16 0.613 -0.227 1.613 -0.227 c 1.73 0 1.801 0.074 2.094 2.23 c 0.309 2.262 0.512 2.293 0.516 0.082 c 0.004 -1.262 0.074 -1.98 0.211 -2.113 c 0.277 -0.273 2.082 -0.258 2.316 0.02 c 0.117 0.137 0.207 1.301 0.234 3.03 l 0.047 2.809 h 0.848 l 0.047 -2.809 c 0.031 -1.727 0.121 -2.891 0.234 -3.03 c 0.117 -0.137 0.566 -0.219 1.188 -0.219 c 0.922 0 1.02 0.035 1.172 0.426 c 0.09 0.234 0.164 1.578 0.164 2.988 c 0 2.301 0.031 2.578 0.297 2.656 c 0.672 0.203 0.809 0.371 0.859 1.051 c 0.09 1.164 0.102 1.16 -3.918 1.16 c -1.969 0 -3.637 0.059 -3.707 0.133 c -0.07 0.07 -0.152 0.574 -0.184 1.125 l -0.059 0.992 l 2.762 0.047 c 2.734 0.043 2.762 0.047 3.039 0.461 l 0.277 0.418 l 0.195 -0.379 c 0.172 -0.336 0.316 -0.379 1.293 -0.379 c 1.406 0 1.41 0.027 0.516 3.02 c -0.574 1.902 -0.691 2.539 -0.691 3.73 c 0 1.766 -0.145 1.961 -1.449 1.961 c -0.734 0 -0.953 -0.066 -1.094 -0.32 m -6.879 -1.051 c 0.434 -0.367 0.449 -0.445 0.539 -2.715 c 0.055 -1.438 0.027 -2.379 -0.074 -2.438 c -0.094 -0.055 -0.344 0.082 -0.559 0.305 c -0.34 0.355 -0.367 0.469 -0.195 0.836 c 0.254 0.543 0.25 0.574 -0.066 0.574 c -0.203 0 -0.254 0.145 -0.211 0.621 c 0.043 0.531 0.105 0.617 0.434 0.582 c 0.348 -0.035 0.383 0.027 0.375 0.746 c -0.004 0.898 -0.395 1.48 -1.137 1.699 l -0.469 0.137 l 0.457 0.016 c 0.25 0.008 0.66 -0.156 0.906 -0.363 m -4.926 -0.133 c 0.184 -0.289 -0.023 -0.352 -0.258 -0.078 c -0.133 0.16 -0.148 0.254 -0.035 0.254 c 0.102 0 0.23 -0.078 0.293 -0.176 m 0.227 -3.254 c 0.02 -1.461 -0.168 -2.121 -0.379 -1.336 l -0.102 0.371 l -0.27 -0.375 c -0.148 -0.207 -0.34 -0.336 -0.43 -0.281 c -0.18 0.109 -0.207 1.828 -0.047 2.785 c 0.09 0.512 0.168 0.617 0.426 0.555 c 0.23 -0.063 0.348 0.035 0.434 0.359 l 0.121 0.441 l 0.113 -0.5 c 0.063 -0.273 0.125 -1.184 0.137 -2.02 m -2.668 -0.344 c 0.047 -2.148 -0.047 -2.789 -0.309 -2.113 c -0.055 0.137 -0.242 0.25 -0.422 0.25 c -0.383 0 -0.426 0.254 -0.066 0.391 c 0.391 0.145 0.305 0.574 -0.125 0.633 c -0.313 0.043 -0.395 0.176 -0.441 0.715 c -0.102 1.219 0.121 2.074 0.578 2.246 c 0.227 0.082 0.414 0.242 0.414 0.355 c 0 0.129 0.059 0.145 0.156 0.047 c 0.09 -0.09 0.184 -1.223 0.215 -2.523 m 5.391 0.176 c 0.012 -1.543 -0.133 -2.148 -0.41 -1.711 c -0.059 0.094 -0.246 0.168 -0.418 0.168 c -0.418 0 -0.52 0.316 -0.516 1.629 c 0.004 1.492 0.129 1.902 0.543 1.797 c 0.199 -0.051 0.363 0.02 0.43 0.184 c 0.207 0.523 0.359 -0.332 0.371 -2.066 m 6.199 1.422 c 0.063 -0.465 0.066 -1.348 0.004 -1.965 c -0.074 -0.727 -0.047 -1.242 0.082 -1.473 c 0.105 -0.195 0.152 -0.355 0.098 -0.355 c -0.203 0 -1.191 0.547 -1.313 0.727 c -0.148 0.219 -0.176 3.113 -0.031 3.477 c 0.055 0.141 0.199 0.215 0.32 0.168 c 0.125 -0.047 0.277 -0.004 0.336 0.094 c 0.234 0.367 0.395 0.152 0.504 -0.672 m 4.996 -1.016 c 0.301 -0.938 0.598 -1.996 0.656 -2.355 l 0.109 -0.656 l -0.609 0.574 c -0.367 0.352 -0.648 0.805 -0.719 1.164 c -0.27 1.406 -0.66 1.262 -0.938 -0.344 c -0.109 -0.641 -0.27 -1.16 -0.355 -1.16 c -0.082 0 -0.152 0.086 -0.152 0.191 c 0 0.109 -0.105 0.313 -0.238 0.457 c -0.199 0.223 -0.199 0.391 0 1.141 c 0.129 0.48 0.395 1.242 0.594 1.691 c 0.309 0.699 0.48 0.867 1.012 0.977 c 0.051 0.012 0.34 -0.746 0.641 -1.68 m -1.227 0.402 c -0.148 -0.234 0.359 -0.582 0.672 -0.465 c 0.152 0.059 0.242 0.195 0.203 0.309 c -0.086 0.258 -0.738 0.371 -0.875 0.156 m -8.332 -8.898 c 0.316 -0.234 0.309 -0.242 -0.137 -0.25 c -0.305 0 -0.469 0.082 -0.469 0.246 c 0 0.313 0.184 0.316 0.605 0.004 m -2.984 -0.16 c 0 -0.133 -0.074 -0.285 -0.168 -0.344 c -0.094 -0.055 -0.172 0.055 -0.172 0.242 c 0 0.188 0.078 0.34 0.172 0.34 c 0.094 0 0.168 -0.109 0.168 -0.238 m 11.08 -0.004 c 0.188 0.07 0.281 -0.07 0.359 -0.535 c 0.141 -0.836 0.109 -2.848 -0.055 -3.367 c -0.113 -0.367 -0.145 -0.379 -0.258 -0.121 c -0.078 0.184 -0.27 0.281 -0.488 0.25 c -0.344 -0.047 -0.367 0.031 -0.414 1.445 c -0.063 1.855 0.063 2.668 0.379 2.414 c 0.125 -0.102 0.336 -0.141 0.477 -0.086 m -13.941 -2.805 c 0.047 -1.715 0.016 -2.051 -0.156 -1.816 c -0.117 0.156 -0.211 0.438 -0.215 0.625 c -0.004 0.547 -0.254 0.805 -0.656 0.68 c -0.289 -0.09 -0.359 -0.043 -0.359 0.23 c 0 0.254 0.109 0.344 0.414 0.344 c 0.484 0 0.648 0.191 0.496 0.578 c -0.074 0.191 -0.227 0.246 -0.508 0.176 c -0.309 -0.074 -0.402 -0.031 -0.398 0.195 c 0.004 0.363 0.156 0.574 0.59 0.809 c 0.188 0.102 0.371 0.359 0.402 0.578 c 0.141 0.883 0.336 -0.316 0.391 -2.398 m 10.66 0.477 c 0.004 -0.73 -0.047 -1.406 -0.117 -1.504 c -0.066 -0.098 -0.352 -0.172 -0.633 -0.168 l -0.512 0.012 l -0.051 1.164 c -0.074 1.617 0.059 2.227 0.461 2.125 c 0.176 -0.047 0.379 0.012 0.449 0.129 c 0.23 0.363 0.391 -0.332 0.402 -1.758 m -5.465 1.535 c 0.168 -0.203 0.578 -3.461 0.453 -3.59 c -0.035 -0.035 -0.137 0.129 -0.227 0.363 c -0.094 0.234 -0.32 0.504 -0.504 0.602 c -0.254 0.133 -0.359 0.426 -0.449 1.25 c -0.066 0.594 -0.074 1.191 -0.02 1.328 c 0.117 0.305 0.512 0.328 0.746 0.047 m 2.516 -0.996 c -0.066 -0.57 -0.199 -1.398 -0.293 -1.84 l -0.176 -0.805 l -0.344 0.551 c -0.285 0.461 -0.324 0.715 -0.23 1.59 c 0.141 1.367 0.227 1.539 0.734 1.539 c 0.426 0 0.426 -0.008 0.309 -1.035 m -5.445 0.457 l 1.188 -0.004 l 0.055 -0.645 c 0.051 -0.609 0.039 -0.629 -0.242 -0.355 c -0.242 0.234 -0.527 0.277 -1.539 0.227 l -1.246 -0.059 v 0.559 c 0 0.477 0.043 0.539 0.297 0.418 c 0.164 -0.078 0.832 -0.141 1.488 -0.141 m 0.594 -1.66 c 0 -0.43 -0.258 -0.57 -0.387 -0.207 c -0.055 0.152 -0.164 0.129 -0.41 -0.082 c -0.387 -0.336 -0.563 -0.234 -0.563 0.316 c 0 0.34 0.082 0.387 0.68 0.387 c 0.609 0 0.68 -0.039 0.68 -0.414" fill="#b8c3d0"/><path d="m 23.03 26.29 c -0.18 -0.113 -0.277 -0.668 -0.367 -2.031 c -0.109 -1.758 -0.609 -3.969 -0.977 -4.324 c -0.086 -0.082 -0.336 -0.125 -0.555 -0.094 l -0.402 0.055 l -0.047 2.809 c -0.027 1.727 -0.117 2.891 -0.234 3.03 c -0.234 0.277 -1.684 0.285 -2.063 0.012 c -0.242 -0.18 -0.289 -0.617 -0.328 -3.03 l -0.047 -2.82 l -0.465 -0.051 l -0.469 -0.055 v 2.207 c 0 2.426 -0.18 3.051 -1.043 3.668 c -1.074 0.77 -3.156 0.395 -3.813 -0.691 c -0.172 -0.285 -0.355 -0.516 -0.41 -0.516 c -0.051 0 -0.184 0.223 -0.289 0.5 c -0.281 0.727 -1.074 0.992 -2.984 0.992 c -1.01 0 -1.66 -0.074 -1.789 -0.199 c -0.289 -0.281 -0.289 -7.613 0 -7.895 c 0.293 -0.285 3.059 -0.258 3.781 0.035 c 0.316 0.129 0.711 0.438 0.875 0.684 l 0.305 0.449 l 0.184 -0.641 l 0.188 -0.645 h 1.352 c 0.742 0 1.445 -0.059 1.563 -0.133 c 0.137 -0.086 0.215 -0.531 0.215 -1.203 v -1.066 h -0.844 c -0.461 0 -1.031 -0.086 -1.262 -0.191 c -0.367 -0.16 -0.496 -0.129 -0.945 0.242 c -1.289 1.055 -3.75 0.605 -4.352 -0.797 c -0.352 -0.824 -0.344 -5.711 0.008 -6.383 c 0.836 -1.578 3.805 -1.762 4.867 -0.305 c 0.449 0.613 0.66 2.633 0.32 3.035 c -0.246 0.289 -2.121 0.359 -2.297 0.086 c -0.238 -0.379 -0.422 -0.117 -0.422 0.598 c 0 0.648 0.035 0.738 0.242 0.57 c 0.152 -0.121 0.715 -0.184 1.48 -0.156 l 1.238 0.039 l 0.344 -2.309 c 0.191 -1.27 0.406 -2.402 0.484 -2.516 c 0.195 -0.297 2.898 -0.285 3.148 0.012 c 0.105 0.121 0.313 1.035 0.461 2.031 c 0.391 2.566 0.574 2.676 0.578 0.352 c 0.004 -1.078 0.086 -2.105 0.18 -2.281 c 0.145 -0.262 0.363 -0.32 1.18 -0.32 c 0.617 0 1.059 0.078 1.141 0.207 c 0.078 0.113 0.176 1.477 0.223 3.03 l 0.086 2.816 l 0.469 0.055 l 0.465 0.051 v -2.879 c 0 -2.02 0.063 -2.941 0.203 -3.078 c 0.281 -0.273 1.914 -0.258 2.152 0.02 c 0.113 0.133 0.203 1.301 0.23 3.03 l 0.047 2.805 l 0.426 0.055 c 0.555 0.07 0.848 0.461 0.848 1.129 c 0 1 -0.133 1.035 -4.02 1.039 c -2.09 0 -3.574 0.066 -3.676 0.164 c -0.094 0.09 -0.191 0.449 -0.223 0.797 c -0.031 0.348 -0.078 0.781 -0.105 0.965 c -0.047 0.316 0.074 0.336 2.84 0.414 c 2.793 0.082 2.895 0.094 3.055 0.457 c 0.215 0.477 0.328 0.469 0.566 -0.043 c 0.168 -0.359 0.301 -0.414 1.031 -0.414 c 1.031 0 1.379 0.121 1.375 0.473 c 0 0.152 -0.305 1.281 -0.68 2.508 c -0.559 1.844 -0.676 2.484 -0.676 3.656 c 0 1.824 -0.203 2.156 -1.328 2.152 c -0.438 0 -0.906 -0.07 -1.043 -0.156 m 1.691 -0.508 c 0 -0.09 -0.23 -0.164 -0.508 -0.164 c -0.281 0 -0.512 0.074 -0.512 0.164 c 0 0.094 0.23 0.168 0.512 0.168 c 0.277 0 0.508 -0.074 0.508 -0.168 m -9 -0.414 c 0.273 -0.141 0.574 -0.395 0.672 -0.57 c 0.227 -0.418 0.23 -5.098 0.004 -5.234 c -0.094 -0.055 -0.168 -0.023 -0.168 0.074 c 0 0.094 -0.113 0.176 -0.25 0.176 c -0.355 0 -0.652 0.625 -0.543 1.156 c 0.051 0.25 0.016 0.531 -0.082 0.625 c -0.246 0.238 0.137 1.977 0.457 2.094 c 0.379 0.145 0.293 0.668 -0.176 1.098 c -0.316 0.289 -0.621 0.391 -1.195 0.391 c -0.754 0 -0.84 0.164 -0.164 0.32 c 0.629 0.148 0.949 0.121 1.445 -0.129 m -5.04 -0.105 c 0.336 -0.148 0.441 -0.352 0.535 -1.016 c 0.207 -1.457 0.152 -4.098 -0.086 -4.316 c -0.168 -0.156 -0.234 -0.156 -0.293 0.008 c -0.051 0.129 -0.234 0.168 -0.488 0.105 l -0.41 -0.102 v 1.664 c 0 1.781 0.172 2.52 0.59 2.52 c 0.309 0 0.344 0.512 0.055 0.797 c -0.113 0.109 -0.59 0.203 -1.063 0.215 c -1.473 0.027 -1.879 0.277 -0.484 0.297 c 0.676 0.012 1.414 -0.066 1.645 -0.168 m 9.449 -0.066 c 0 -0.191 -0.113 -0.227 -0.469 -0.145 c -0.758 0.176 -0.848 0.395 -0.16 0.395 c 0.449 0 0.629 -0.07 0.629 -0.25 m 0.07 -1.453 c 0.059 -0.387 0.094 -1.469 0.078 -2.398 c -0.02 -1.238 0.035 -1.77 0.207 -1.973 c 0.219 -0.258 0.18 -0.273 -0.52 -0.164 c -0.418 0.066 -0.816 0.207 -0.887 0.316 c -0.348 0.551 -0.379 3.461 -0.047 4.309 c 0.063 0.156 0.258 0.289 0.438 0.289 c 0.176 0 0.32 0.074 0.32 0.164 c 0 0.09 0.066 0.168 0.148 0.168 c 0.086 0 0.199 -0.32 0.262 -0.711 m -11.621 -1.984 c 0 -1.945 0.047 -2.391 0.281 -2.641 c 0.262 -0.285 0.258 -0.305 -0.051 -0.305 c -0.184 0 -0.426 0.094 -0.543 0.207 c -0.117 0.109 -0.34 0.203 -0.5 0.207 c -0.172 0 -0.316 0.152 -0.348 0.375 c -0.039 0.281 0.031 0.371 0.297 0.371 c 0.207 0 0.352 0.109 0.352 0.262 c 0 0.172 -0.125 0.242 -0.379 0.207 c -0.375 -0.051 -0.383 -0.016 -0.383 1.484 c 0.004 1.508 0.016 1.547 0.512 1.934 c 0.277 0.219 0.562 0.359 0.633 0.316 c 0.07 -0.043 0.129 -1.129 0.129 -2.418 m 5.477 1.188 c 0.125 -1.184 0.063 -2.504 -0.16 -3.551 c -0.109 -0.496 -0.109 -0.496 -0.219 -0.086 c -0.074 0.277 -0.219 0.406 -0.438 0.387 c -0.492 -0.047 -0.578 0.23 -0.582 1.883 c -0.004 1.707 0.184 2.422 0.586 2.273 c 0.172 -0.066 0.262 -0.004 0.262 0.18 c 0 0.156 0.094 0.25 0.211 0.215 c 0.129 -0.043 0.266 -0.559 0.34 -1.301 m 11.586 -2.391 c 0.238 -0.82 0.434 -1.594 0.434 -1.719 c 0 -0.125 -0.309 0.074 -0.688 0.441 c -0.5 0.488 -0.719 0.863 -0.809 1.387 c -0.184 1.051 -0.637 1.063 -0.785 0.023 c -0.215 -1.508 -0.305 -1.875 -0.457 -1.875 c -0.082 0 -0.148 0.152 -0.148 0.336 c 0 0.188 -0.117 0.379 -0.258 0.434 c -0.359 0.133 -0.324 0.41 0.313 2.434 c 0.449 1.438 0.645 1.836 0.977 1.996 c 0.402 0.199 0.418 0.184 0.699 -0.883 c 0.156 -0.594 0.48 -1.754 0.723 -2.574 m -1.434 1.574 c 0 -0.09 0.113 -0.164 0.254 -0.164 c 0.141 0 0.254 0.074 0.254 0.164 c 0 0.094 -0.113 0.168 -0.254 0.168 c -0.141 0 -0.254 -0.074 -0.254 -0.168 m -2.973 -2.984 c 0.059 -0.09 0.023 -0.168 -0.074 -0.168 c -0.102 0 -0.18 0.078 -0.18 0.168 c 0 0.09 0.031 0.164 0.074 0.164 c 0.039 0 0.121 -0.074 0.18 -0.164 m -9.395 -4 c 0.66 -0.344 1.141 -2.301 0.563 -2.301 c -0.195 0 -0.23 0.148 -0.152 0.703 c 0.082 0.605 0.039 0.758 -0.324 1.09 c -0.234 0.211 -0.758 0.492 -1.164 0.625 l -0.738 0.242 l 0.742 -0.094 c 0.406 -0.051 0.891 -0.168 1.074 -0.266 m 3.191 -0.477 c 0 -0.094 -0.227 -0.168 -0.508 -0.168 c -0.281 0 -0.508 0.074 -0.508 0.168 c 0 0.09 0.227 0.164 0.508 0.164 c 0.281 0 0.508 -0.074 0.508 -0.164 m 2.805 0 c 0.059 -0.094 -0.02 -0.168 -0.168 -0.168 c -0.152 0 -0.23 0.074 -0.172 0.168 c 0.059 0.09 0.133 0.164 0.172 0.164 c 0.035 0 0.109 -0.074 0.168 -0.164 m 3.82 -0.016 c 0 -0.121 -0.363 -0.141 -1.145 -0.063 c -1.527 0.156 -1.555 0.242 -0.07 0.242 c 0.758 0 1.215 -0.066 1.215 -0.18 m 3.57 0.043 c 0 -0.078 -0.441 -0.109 -0.977 -0.07 c -1.418 0.098 -1.488 0.18 -0.172 0.195 c 0.633 0.008 1.148 -0.051 1.148 -0.125 m -9.344 -0.195 c 0 -0.09 -0.078 -0.164 -0.172 -0.164 c -0.094 0 -0.168 0.074 -0.168 0.164 c 0 0.09 0.074 0.168 0.168 0.168 c 0.094 0 0.172 -0.078 0.172 -0.168 m -6.04 -3.01 c 0.035 -1.492 0.117 -2.848 0.184 -3.01 c 0.086 -0.219 0.051 -0.266 -0.145 -0.195 c -0.145 0.055 -0.363 0.41 -0.488 0.793 c -0.18 0.547 -0.301 0.684 -0.59 0.652 c -0.227 -0.023 -0.391 0.078 -0.441 0.273 c -0.094 0.344 0.078 0.707 0.316 0.664 c 0.371 -0.066 0.578 0.031 0.578 0.277 c 0 0.203 -0.105 0.242 -0.426 0.164 c -0.398 -0.098 -0.426 -0.066 -0.426 0.543 c 0 0.504 0.094 0.707 0.418 0.914 c 0.266 0.172 0.461 0.492 0.531 0.891 c 0.301 1.617 0.422 1.133 0.488 -1.969 m 5.91 1.961 c 0.449 -0.156 0.359 -0.395 -0.188 -0.5 c -0.48 -0.094 -0.484 -0.102 -0.355 -0.973 c 0.074 -0.484 0.18 -1.441 0.234 -2.125 c 0.094 -1.133 0.082 -1.215 -0.152 -0.922 c -0.145 0.18 -0.262 0.422 -0.262 0.539 c 0 0.121 -0.105 0.219 -0.234 0.219 c -0.344 0 -0.465 0.414 -0.57 1.949 c -0.086 1.316 -0.078 1.367 0.273 1.367 c 0.293 0 0.363 0.098 0.363 0.523 c 0 0.484 0.023 0.504 0.297 0.273 c 0.164 -0.137 0.43 -0.297 0.594 -0.352 m 8.04 0.148 c 0.285 -0.207 0.336 -0.484 0.387 -2.168 c 0.031 -1.066 0.008 -2.125 -0.051 -2.355 c -0.102 -0.395 -0.125 -0.402 -0.418 -0.145 c -0.172 0.148 -0.41 0.25 -0.531 0.223 c -0.328 -0.07 -0.48 0.898 -0.398 2.512 c 0.113 2.238 0.242 2.48 1.012 1.934 m -3.348 -2.586 c 0 -1.859 -0.141 -2.578 -0.414 -2.148 c -0.086 0.133 -0.309 0.242 -0.496 0.242 c -0.32 0 -0.34 0.109 -0.34 1.82 c 0 1.691 0.023 1.828 0.34 1.887 c 0.188 0.035 0.41 0.18 0.496 0.324 c 0.273 0.469 0.414 -0.246 0.414 -2.125 m -2.918 0.594 c -0.113 -1.691 -0.406 -3.082 -0.645 -3.082 c -0.082 0 -0.152 0.113 -0.152 0.254 c 0 0.137 -0.086 0.387 -0.191 0.551 c -0.133 0.207 -0.152 0.801 -0.07 1.906 c 0.121 1.551 0.137 1.602 0.535 1.602 c 0.223 0 0.406 0.074 0.406 0.168 c 0 0.09 0.051 0.164 0.113 0.164 c 0.059 0 0.063 -0.703 0.004 -1.563 m -4.871 -1.66 c 0 -0.406 -0.078 -0.785 -0.172 -0.84 c -0.098 -0.059 -0.168 0.082 -0.168 0.32 c 0 0.449 -0.305 0.559 -0.645 0.23 c -0.25 -0.246 -0.301 -0.188 -0.434 0.484 l -0.105 0.539 h 1.523" fill="#a5b5c8"/><path d="m 22.973 26.17 c -0.066 -0.066 -0.117 -0.684 -0.117 -1.375 c 0 -1.668 -0.891 -4.926 -1.387 -5.082 c -0.723 -0.223 -0.824 0.129 -0.824 2.918 c 0 1.441 -0.047 2.738 -0.102 2.883 c -0.148 0.379 -2.195 0.379 -2.344 0 c -0.055 -0.145 -0.102 -1.484 -0.102 -2.977 c 0 -2.609 -0.016 -2.715 -0.355 -2.82 c -0.199 -0.063 -0.418 -0.047 -0.492 0.031 c -0.074 0.074 -0.168 1.195 -0.207 2.484 c -0.078 2.5 -0.223 2.977 -1.023 3.398 c -1.227 0.641 -2.711 0.445 -3.527 -0.461 c -0.281 -0.313 -0.512 -0.641 -0.512 -0.727 c 0 -0.359 -0.285 -0.125 -0.477 0.391 c -0.109 0.305 -0.375 0.637 -0.586 0.734 c -0.484 0.234 -3.742 0.367 -4.102 0.172 c -0.395 -0.215 -0.41 -7.609 -0.016 -7.93 c 0.188 -0.148 0.738 -0.184 1.945 -0.129 c 1.883 0.09 2.438 0.32 2.801 1.156 c 0.172 0.402 0.238 0.449 0.324 0.223 c 0.063 -0.152 0.109 -0.496 0.109 -0.758 c 0 -0.594 0.457 -0.746 1.785 -0.594 c 1.367 0.156 1.445 0.09 1.445 -1.223 c 0 -1.234 -0.074 -1.32 -1 -1.219 c -0.344 0.035 -0.75 -0.047 -0.996 -0.203 c -0.383 -0.246 -0.438 -0.242 -0.777 0.063 c -0.629 0.555 -1.074 0.695 -2.184 0.695 c -1.152 0 -1.777 -0.273 -2.313 -1.012 c -0.238 -0.328 -0.297 -0.887 -0.34 -3.215 c -0.043 -2.52 -0.016 -2.883 0.273 -3.398 c 0.484 -0.859 1.586 -1.379 2.703 -1.273 c 1.676 0.16 2.34 0.848 2.523 2.621 c 0.094 0.887 0.063 1.121 -0.176 1.355 c -0.359 0.352 -1.742 0.375 -2.238 0.035 c -0.461 -0.316 -0.57 -0.188 -0.57 0.676 c 0 0.793 0.191 1.023 0.523 0.633 c 0.172 -0.203 0.488 -0.25 1.418 -0.207 l 1.199 0.055 l 0.352 -2.375 c 0.23 -1.594 0.43 -2.426 0.594 -2.527 c 0.371 -0.23 2.598 -0.191 2.914 0.051 c 0.18 0.141 0.359 0.836 0.551 2.113 c 0.156 1.051 0.332 2.02 0.395 2.156 c 0.063 0.137 0.156 -0.742 0.203 -1.953 c 0.102 -2.469 0.129 -2.516 1.309 -2.52 c 1.293 -0.008 1.246 -0.125 1.246 2.957 c 0.004 1.52 0.059 2.848 0.129 2.949 c 0.07 0.105 0.316 0.219 0.551 0.25 l 0.422 0.059 l 0.086 -2.902 c 0.047 -1.598 0.148 -2.996 0.223 -3.109 c 0.188 -0.281 1.891 -0.273 2.133 0.012 c 0.113 0.137 0.203 1.297 0.23 3.02 l 0.047 2.797 l 0.531 0.137 c 0.41 0.102 0.555 0.25 0.633 0.633 c 0.168 0.816 -0.129 1.324 -0.777 1.332 c -0.305 0.008 -1.91 0.008 -3.566 0.008 c -3.34 0 -3.535 0.055 -3.52 1.035 c 0.004 0.289 -0.016 0.715 -0.043 0.941 l -0.051 0.414 l 2.852 0.082 c 2.914 0.086 3.168 0.148 3.176 0.789 c 0 0.113 0.078 0.207 0.172 0.207 c 0.094 0 0.168 -0.102 0.168 -0.223 c 0 -0.438 0.609 -0.773 1.395 -0.773 c 1.258 0 1.277 0.137 0.449 2.848 c -0.563 1.848 -0.742 2.75 -0.816 4.04 l -0.09 1.66 l -1.027 0.047 c -0.566 0.027 -1.082 -0.004 -1.148 -0.07 m 1.883 -1.535 c 0.035 -1 0.219 -1.93 0.641 -3.285 c 0.32 -1.043 0.586 -2.129 0.586 -2.422 v -0.527 l -0.68 0.703 c -0.453 0.473 -0.711 0.91 -0.781 1.344 c -0.23 1.418 -0.66 1.324 -0.836 -0.184 c -0.07 -0.57 -0.199 -1.223 -0.297 -1.449 l -0.168 -0.414 l -0.156 0.539 c -0.082 0.293 -0.227 0.535 -0.316 0.535 c -0.27 0 -0.191 0.676 0.25 2.164 c 0.227 0.773 0.465 1.789 0.531 2.258 c 0.086 0.645 0.191 0.879 0.434 0.941 c 0.422 0.105 0.414 0.609 -0.012 0.609 c -0.18 0 -0.375 0.074 -0.434 0.164 c -0.191 0.305 0.109 0.52 0.652 0.465 l 0.531 -0.051 l 0.055 -1.395 m -13.875 0.539 c 0.289 -0.281 0.355 -0.633 0.438 -2.398 c 0.105 -2.172 -0.113 -3.531 -0.508 -3.145 c -0.102 0.102 -0.367 0.18 -0.586 0.18 h -0.402 l 0.023 2.199 c 0.012 1.207 0.02 2.359 0.012 2.555 c -0.012 0.324 -0.137 0.371 -1.289 0.477 c -1.227 0.113 -1.598 0.293 -0.977 0.473 c 0.164 0.047 0.895 0.063 1.625 0.039 c 1.059 -0.039 1.395 -0.113 1.664 -0.379 m 5.117 -0.043 l 0.555 -0.484 l -0.004 -2.57 c 0 -1.414 -0.047 -2.617 -0.105 -2.672 c -0.184 -0.18 -0.984 0.285 -1.105 0.641 c -0.066 0.191 -0.125 1.355 -0.133 2.582 l -0.012 2.234 l -0.469 0.164 c -0.707 0.242 -1.01 -0.121 -0.801 -0.984 c 0.293 -1.234 0.141 -5.555 -0.199 -5.555 c -0.078 0 -0.145 0.211 -0.145 0.469 c 0 0.586 -0.152 0.746 -0.465 0.492 c -0.418 -0.336 -0.551 0.172 -0.551 2.129 c -0.004 2.348 0.09 2.777 0.762 3.473 c 0.473 0.488 0.66 0.57 1.332 0.57 c 0.629 0 0.895 -0.098 1.34 -0.488 m 4.02 0.258 c 0.125 -0.145 0.207 -1.258 0.23 -3.109 l 0.043 -2.883 l 0.465 -0.051 c 0.383 -0.043 0.469 -0.133 0.465 -0.5 c -0.004 -0.379 -0.031 -0.402 -0.18 -0.152 c -0.133 0.223 -0.398 0.289 -1.16 0.289 h -0.988 l -0.105 0.871 c -0.141 1.148 -0.121 2.969 0.051 4.105 c 0.074 0.504 0.07 1.031 -0.008 1.18 c -0.078 0.148 -0.094 0.316 -0.035 0.375 c 0.195 0.191 1.027 0.105 1.223 -0.125 m -11.5 -1.43 c 0.074 -0.32 0.121 -1.504 0.109 -2.629 c -0.02 -1.512 0.031 -2.082 0.191 -2.18 c 0.406 -0.246 0.031 -0.492 -0.484 -0.316 c -0.266 0.09 -0.586 0.141 -0.711 0.113 c -0.586 -0.125 -0.641 4.73 -0.059 5.355 c 0.43 0.465 0.797 0.332 0.953 -0.348 m 9.605 -4.742 c -0.059 -0.055 -0.203 -0.059 -0.328 -0.012 c -0.137 0.055 -0.094 0.094 0.102 0.102 c 0.18 0.008 0.281 -0.035 0.227 -0.09 m -0.859 -2.75 c -0.055 -0.133 -0.094 -0.094 -0.102 0.102 c -0.008 0.176 0.031 0.273 0.086 0.219 c 0.059 -0.055 0.063 -0.199 0.016 -0.32 m -5.301 -1.508 c 0.563 -0.551 0.965 -1.832 0.656 -2.102 c -0.078 -0.074 -0.434 -0.094 -0.793 -0.051 c -0.477 0.063 -0.621 0.145 -0.551 0.324 c 0.055 0.133 0.098 0.395 0.098 0.578 c 0 0.23 0.078 0.309 0.254 0.242 c 0.145 -0.055 0.254 -0.004 0.254 0.117 c 0 0.43 -0.445 0.781 -1.105 0.867 c -0.371 0.051 -0.863 0.129 -1.094 0.176 c -0.66 0.133 -0.074 0.387 0.898 0.391 c 0.707 0 0.906 -0.078 1.383 -0.543 m 2.941 -0.152 c 0.113 -0.109 0.203 -0.395 0.203 -0.633 c 0 -0.332 0.141 -0.5 0.602 -0.715 l 0.602 -0.277 l 0.594 0.582 c 0.328 0.316 0.516 0.59 0.418 0.598 c -0.098 0.012 -0.266 0.031 -0.375 0.043 c -0.105 0.012 -0.227 0.113 -0.266 0.227 c -0.051 0.141 0.129 0.211 0.547 0.211 h 0.621 l -0.105 -1.371 c -0.152 -1.918 -0.578 -4.586 -0.797 -4.988 c -0.176 -0.324 -0.195 -0.316 -0.449 0.148 c -0.25 0.465 -0.27 0.895 -0.145 3.555 c 0.027 0.523 -0.02 0.586 -0.457 0.637 c -0.27 0.027 -0.559 -0.016 -0.641 -0.094 c -0.145 -0.141 0.086 -3.102 0.293 -3.734 c 0.063 -0.191 0.004 -0.293 -0.172 -0.293 c -0.148 0 -0.27 0.07 -0.27 0.156 c 0 0.082 -0.18 0.363 -0.402 0.621 c -0.641 0.742 -1.09 4.199 -0.547 4.199 c 0.129 0 0.281 0.117 0.34 0.262 c 0.148 0.379 0.137 0.402 -0.227 0.402 c -0.375 0 -0.594 0.25 -0.438 0.496 c 0.145 0.23 0.824 0.211 1.07 -0.031 m 6.629 -0.34 c 0.063 -0.535 0.07 -0.531 -0.609 -0.203 c -0.289 0.141 -0.793 0.238 -1.125 0.219 c -0.656 -0.043 -0.879 0.07 -0.699 0.355 c 0.07 0.113 0.551 0.164 1.246 0.133 c 1.098 -0.047 1.137 -0.063 1.188 -0.504 m 3.738 -0.016 c 0.047 -0.391 0.004 -0.453 -0.254 -0.379 c -0.906 0.27 -1.766 0.387 -1.852 0.254 c -0.051 -0.082 0.125 -0.148 0.391 -0.148 h 0.484 l 0.043 -2.695 c 0.035 -2.52 -0.086 -3.438 -0.391 -2.953 c -0.066 0.105 -0.301 0.262 -0.52 0.34 c -0.531 0.199 -0.676 1.188 -0.512 3.473 c 0.129 1.762 0.199 2.539 0.238 2.629 c 0.012 0.027 0.539 0.027 1.168 0 c 1.121 -0.047 1.148 -0.059 1.203 -0.52 m -9.484 0.141 c 0 -0.137 -0.074 -0.25 -0.168 -0.25 c -0.094 0 -0.172 0.113 -0.172 0.25 c 0 0.137 0.078 0.25 0.172 0.25 c 0.094 0 0.168 -0.113 0.168 -0.25 m -5.945 -2.832 c 0 -1.773 0.074 -3.043 0.188 -3.25 c 0.152 -0.285 0.137 -0.324 -0.129 -0.277 c -0.172 0.035 -0.465 0.34 -0.652 0.68 c -0.188 0.34 -0.434 0.621 -0.547 0.621 c -0.398 0 -0.527 0.609 -0.461 2.188 c 0.078 1.727 0.27 2.457 0.645 2.457 c 0.129 0 0.332 0.109 0.449 0.246 c 0.117 0.137 0.277 0.25 0.359 0.25 c 0.082 0 0.148 -1.313 0.148 -2.914 m -1.188 -0.902 c 0 -0.09 0.078 -0.164 0.168 -0.164 c 0.094 0 0.172 0.074 0.172 0.164 c 0 0.094 -0.078 0.168 -0.172 0.168 c -0.09 0 -0.168 -0.074 -0.168 -0.168 m 11.547 2.66 c 0.195 -0.355 0.297 -4.492 0.113 -4.773 c -0.164 -0.266 -1.105 0.125 -1.23 0.512 c -0.273 0.844 -0.039 4.527 0.277 4.336 c 0.078 -0.047 0.188 -0.008 0.246 0.082 c 0.168 0.262 0.398 0.203 0.594 -0.152 m -7.676 -2.871 c 0.195 -0.23 0.18 -0.941 -0.035 -1.656 c -0.168 -0.566 -0.484 -0.613 -0.34 -0.055 c 0.152 0.594 -0.063 0.84 -0.438 0.508 c -0.168 -0.148 -0.344 -0.207 -0.391 -0.133 c -0.168 0.281 -0.309 1.211 -0.207 1.375 c 0.152 0.238 1.199 0.211 1.414 -0.039" fill="#9ca2a5"/><path d="m 22.969 26 c -0.063 -0.063 -0.113 -0.711 -0.113 -1.445 c 0 -1.398 -0.676 -4.238 -1.133 -4.762 c -0.125 -0.145 -0.227 -0.535 -0.227 -0.871 c 0 -0.625 -0.375 -0.863 -0.57 -0.359 c -0.109 0.273 -0.621 0.348 -0.621 0.09 c 0 -0.246 -1.496 -0.16 -1.715 0.098 c -0.105 0.125 -0.375 0.227 -0.598 0.227 c -0.223 0 -0.402 0.086 -0.402 0.191 c 0 0.184 -0.488 0.625 -0.707 0.633 c -0.063 0.004 -0.164 -0.293 -0.227 -0.656 c -0.105 -0.602 -0.426 -0.949 -0.426 -0.465 c 0 0.113 -0.211 0.367 -0.469 0.566 l -0.465 0.363 l -0.109 5.172 l -0.426 0.105 c -0.234 0.055 -0.488 0.039 -0.566 -0.043 c -0.082 -0.078 -0.074 -0.777 0.016 -1.555 c 0.203 -1.801 0.031 -4.977 -0.273 -4.977 c -0.117 0 -0.309 0.113 -0.426 0.25 c -0.117 0.137 -0.316 0.25 -0.441 0.25 c -0.363 0 -0.492 0.758 -0.492 2.902 c 0.004 2.336 0.086 2.703 0.785 3.48 c 0.289 0.32 0.438 0.582 0.328 0.582 c -0.469 0 -1.242 -0.563 -1.445 -1.047 c -0.293 -0.695 -0.457 -3.652 -0.301 -5.422 l 0.125 -1.41 l 1.379 -0.004 c 1.801 -0.008 1.934 -0.113 1.934 -1.598 c 0 -0.836 0.063 -1.168 0.238 -1.234 c 0.133 -0.051 0.289 -0.207 0.344 -0.348 c 0.117 -0.293 -0.207 -0.754 -0.434 -0.617 c -0.082 0.047 -0.148 0.012 -0.148 -0.082 c 0 -0.094 0.238 -0.293 0.531 -0.441 c 0.648 -0.328 0.883 -0.109 0.758 0.719 c -0.066 0.457 -0.02 0.551 0.32 0.637 c 0.867 0.211 1.023 0.059 1.023 -1.016 c 0 -0.543 0.074 -1.102 0.168 -1.238 c 0.094 -0.137 0.211 -1.406 0.258 -2.82 l 0.082 -2.57 l 1.059 -0.051 c 1.012 -0.047 1.059 -0.031 1.168 0.383 c 0.148 0.59 0.043 0.664 -1.16 0.785 c -0.16 0.02 -0.371 0.25 -0.465 0.52 c -0.203 0.559 -0.211 3.082 -0.02 4.406 c 0.164 1.117 -0.07 1.836 -0.598 1.836 c -0.406 0 -0.574 0.285 -0.578 0.965 c -0.004 0.246 -0.078 0.555 -0.168 0.691 c -0.129 0.195 -0.168 0.152 -0.168 -0.195 c -0.004 -0.547 -0.281 -0.754 -0.422 -0.316 c -0.164 0.5 0.07 1.133 0.477 1.273 c 0.203 0.07 1.629 0.172 3.168 0.223 c 2.438 0.082 2.809 0.133 2.855 0.371 c 0.039 0.207 -0.035 0.258 -0.297 0.188 c -0.32 -0.082 -0.438 0.074 -0.367 0.496 c 0.012 0.07 -0.094 0.172 -0.234 0.223 c -0.367 0.141 -0.32 0.605 0.254 2.605 c 0.301 1.043 0.508 2.164 0.508 2.723 c -0.004 1.391 -0.203 1.945 -0.566 1.59 m -6.379 -9.617 c -0.156 -0.27 -0.18 -0.246 -0.188 0.18 c -0.004 0.359 0.047 0.441 0.184 0.309 c 0.137 -0.133 0.137 -0.27 0.004 -0.488 m -0.699 0.191 c 0 -0.137 -0.078 -0.25 -0.172 -0.25 c -0.094 0 -0.168 0.113 -0.168 0.25 c 0 0.137 0.074 0.246 0.168 0.246 c 0.094 0 0.172 -0.109 0.172 -0.246 m -9.168 8.883 c -0.215 -0.387 -0.238 -7.125 -0.027 -7.449 c 0.109 -0.168 0.594 -0.207 2.051 -0.164 c 1.848 0.055 1.918 0.07 2.316 0.523 c 0.477 0.543 0.586 1.125 0.141 0.766 c -0.219 -0.18 -0.289 -0.176 -0.406 0.004 c -0.078 0.121 -0.258 0.176 -0.402 0.125 c -0.48 -0.184 -0.68 0.91 -0.57 3.137 c 0.105 2.172 0.066 2.301 -0.73 2.41 c -0.367 0.051 -0.418 0.004 -0.363 -0.355 c 0.035 -0.23 0.082 -1.492 0.109 -2.805 c 0.039 -1.992 0.09 -2.414 0.32 -2.539 c 0.477 -0.258 0.301 -0.418 -0.602 -0.535 c -1.34 -0.172 -1.387 -0.078 -1.371 2.758 c 0.004 1.305 0.078 2.633 0.16 2.953 c 0.105 0.41 0.078 0.715 -0.086 1.035 c -0.277 0.543 -0.313 0.555 -0.539 0.137 m 11.547 -2.594 c 0 -1.512 -0.078 -2.887 -0.172 -3.055 c -0.137 -0.25 -0.102 -0.332 0.184 -0.418 c 0.191 -0.063 0.375 -0.086 0.406 -0.055 c 0.055 0.055 0.152 5.402 0.109 5.984 c -0.012 0.16 -0.133 0.293 -0.273 0.293 c -0.219 0 -0.258 -0.418 -0.258 -2.75 m 5.77 -1.688 c -0.004 -0.066 -0.074 -0.461 -0.152 -0.871 c -0.109 -0.551 -0.086 -0.852 0.09 -1.16 c 0.129 -0.227 0.316 -0.625 0.406 -0.879 c 0.164 -0.445 0.215 -0.461 1.137 -0.414 c 1.16 0.059 1.391 0.383 0.391 0.547 c -0.785 0.129 -1.02 0.484 -1.371 2.07 c -0.098 0.457 -0.25 0.832 -0.336 0.832 c -0.086 0 -0.16 -0.059 -0.164 -0.125 m -3.473 -1.535 c 0.055 -0.09 0.137 -0.164 0.18 -0.164 c 0.039 0 0.074 0.074 0.074 0.164 c 0 0.094 -0.082 0.168 -0.18 0.168 c -0.102 0 -0.133 -0.074 -0.074 -0.168 m -11.906 -4.293 c -0.859 -0.512 -1 -1.102 -1 -4.109 c 0 -2.453 0.027 -2.727 0.352 -3.152 c 0.918 -1.227 3.242 -1.438 4.313 -0.391 c 0.402 0.391 0.457 0.746 0.098 0.609 c -0.141 -0.051 -0.297 -0.02 -0.352 0.066 c -0.055 0.086 -0.246 0.16 -0.422 0.16 c -0.266 0 -0.344 0.172 -0.449 1.035 c -0.07 0.57 -0.105 1.137 -0.082 1.262 c 0.027 0.125 -0.055 0.191 -0.176 0.152 c -0.125 -0.043 -0.285 -0.477 -0.355 -0.973 c -0.074 -0.492 -0.207 -0.922 -0.297 -0.953 c -0.25 -0.082 -0.203 -0.379 0.113 -0.719 c 0.266 -0.285 0.258 -0.305 -0.125 -0.301 c -0.25 0 -0.734 0.301 -1.238 0.758 l -0.824 0.758 l 0.078 2.02 c 0.078 2.027 0.352 3.121 0.945 3.801 c 0.332 0.379 0.082 0.367 -0.574 -0.023 m 4.406 -0.492 c -0.332 -0.27 -0.352 -0.375 -0.199 -1.18 c 0.168 -0.918 0.004 -1.266 -0.512 -1.082 c -0.125 0.047 -0.422 0.082 -0.66 0.082 c -0.422 0 -0.43 0.023 -0.355 0.984 c 0.066 0.906 0.039 0.996 -0.332 1.16 c -0.484 0.215 -0.688 0.117 -0.898 -0.422 c -0.121 -0.316 -0.082 -0.473 0.18 -0.73 c 0.203 -0.199 0.336 -0.551 0.336 -0.891 c 0 -0.359 0.098 -0.602 0.27 -0.664 c 0.457 -0.172 1.586 -0.113 1.934 0.102 c 0.184 0.109 0.371 0.16 0.422 0.109 c 0.051 -0.051 0.242 -1.156 0.422 -2.461 c 0.18 -1.305 0.398 -2.441 0.484 -2.523 c 0.086 -0.082 0.797 -0.129 1.582 -0.102 c 1.281 0.043 1.434 0.082 1.477 0.379 c 0.035 0.242 -0.055 0.336 -0.34 0.355 c -0.398 0.02 -1.398 0.363 -1.809 0.621 c -0.5 0.313 -0.852 1.535 -1.047 3.66 c -0.172 1.852 -0.371 2.926 -0.543 2.902 c -0.027 0 -0.211 -0.137 -0.41 -0.301 m 9.07 0.195 c -0.211 -0.055 -0.297 -0.242 -0.297 -0.648 v -0.57 l -0.695 0.109 c -0.684 0.105 -0.691 0.102 -0.637 -0.371 c 0.039 -0.332 0.137 -0.457 0.313 -0.41 c 0.141 0.039 0.484 0.078 0.766 0.082 l 0.508 0.016 l 0.086 -2.988 l 0.086 -2.984 h 1.02 c 1.01 0 1.016 0.004 1.055 0.496 c 0.02 0.277 -0.004 0.406 -0.059 0.293 c -0.113 -0.254 -0.348 -0.266 -0.621 -0.035 c -0.113 0.094 -0.359 0.273 -0.547 0.398 c -0.316 0.215 -0.34 0.438 -0.367 3.105 c -0.016 1.582 -0.035 3.043 -0.043 3.246 c -0.016 0.383 -0.043 0.395 -0.566 0.262 m 2.141 -1.297 c -0.207 -0.531 0.043 -0.719 0.691 -0.52 c 0.688 0.211 0.793 0.516 0.227 0.664 c -0.602 0.156 -0.813 0.125 -0.918 -0.145 m -8.832 -1.328 c -0.277 -0.703 0.348 -4.145 0.656 -3.629 c 0.051 0.082 0.145 0.988 0.211 2.02 l 0.121 1.863 h -0.445 c -0.246 0 -0.488 -0.113 -0.543 -0.25" fill="#78868f"/><path d="m 22.969 25.832 c -0.063 -0.059 -0.113 -0.711 -0.113 -1.445 c 0 -1.398 -0.676 -4.234 -1.133 -4.758 c -0.125 -0.145 -0.227 -0.48 -0.227 -0.746 v -0.484 l -1.449 -0.047 c -1.164 -0.031 -1.469 0.008 -1.547 0.211 c -0.055 0.137 -0.242 0.25 -0.418 0.25 c -0.172 0 -0.441 0.188 -0.598 0.418 c -0.367 0.543 -0.637 0.445 -0.746 -0.266 c -0.078 -0.516 -0.133 -0.563 -0.594 -0.516 c -0.277 0.031 -0.559 0.141 -0.625 0.242 c -0.223 0.355 -0.371 1.867 -0.383 3.898 c -0.008 1.625 -0.063 2.07 -0.266 2.195 c -0.141 0.086 -0.332 0.133 -0.422 0.105 c -0.102 -0.031 -0.148 -1.301 -0.117 -3.355 c 0.043 -2.852 0.086 -3.328 0.328 -3.469 c 0.152 -0.094 0.434 -0.328 0.621 -0.523 c 0.313 -0.328 0.359 -0.332 0.551 -0.082 c 0.512 0.672 1.215 -0.793 0.762 -1.586 c -0.137 -0.238 -0.18 -0.191 -0.266 0.289 c -0.055 0.316 -0.078 0.699 -0.055 0.855 c 0.023 0.152 -0.035 0.285 -0.129 0.289 c -0.094 0.004 -0.172 -0.258 -0.172 -0.582 c 0 -0.391 -0.098 -0.648 -0.297 -0.754 c -0.379 -0.207 -0.371 -0.34 0.043 -0.809 c 0.418 -0.473 0.438 -0.926 0.043 -1.141 c -0.352 -0.195 -0.281 -0.289 0.34 -0.441 c 0.492 -0.121 0.559 0.023 0.473 1.043 c -0.027 0.336 0.047 0.371 0.734 0.371 h 0.762 l 0.105 -1.117 c 0.063 -0.617 0.148 -2.273 0.195 -3.684 c 0.051 -1.512 0.16 -2.656 0.273 -2.785 c 0.227 -0.27 1.859 -0.219 1.953 0.059 c 0.031 0.102 -0.137 0.313 -0.383 0.469 c -0.352 0.223 -0.492 0.242 -0.688 0.082 c -0.137 -0.109 -0.305 -0.148 -0.371 -0.082 c -0.07 0.066 -0.137 1.551 -0.152 3.301 c -0.016 1.746 -0.035 3.309 -0.043 3.469 c -0.008 0.18 -0.148 0.289 -0.379 0.289 c -0.41 0 -0.809 0.434 -0.82 0.883 c 0 0.164 -0.078 0.254 -0.164 0.199 c -0.09 -0.051 -0.121 -0.207 -0.07 -0.34 c 0.055 -0.133 0.023 -0.242 -0.07 -0.242 c -0.383 0 -0.531 1.875 -0.168 2.102 c 0.117 0.074 1.547 0.172 3.172 0.219 c 2.156 0.059 2.98 0.141 3.03 0.289 c 0.039 0.117 -0.07 0.207 -0.25 0.207 c -0.84 0 -0.941 0.988 -0.32 3.191 c 0.746 2.648 0.77 5.04 0.047 4.328 m -16.16 -0.391 c -0.055 -0.137 -0.078 -1.891 -0.055 -3.898 l 0.047 -3.645 l 1.445 -0.051 c 1.656 -0.059 2.629 0.16 2.902 0.66 c 0.18 0.328 0.156 0.34 -0.379 0.25 c -2.508 -0.434 -3.238 -0.492 -3.367 -0.285 c -0.234 0.367 -0.375 3.074 -0.25 4.867 c 0.074 1.125 0.055 1.84 -0.063 2.043 c -0.152 0.262 -0.195 0.273 -0.281 0.059 m 5.828 -0.301 l -0.57 -0.496 l -0.055 -3.07 c -0.066 -3.652 -0.035 -3.758 1.156 -3.758 c 1.309 0 1.234 0.277 -0.195 0.723 c -0.379 0.117 -0.535 1.395 -0.457 3.789 c 0.055 1.59 0.121 1.973 0.449 2.516 c 0.215 0.355 0.355 0.676 0.316 0.719 c -0.043 0.039 -0.332 -0.148 -0.645 -0.422 m 5.629 -2.293 c 0 -1.445 -0.047 -2.793 -0.105 -3 c -0.078 -0.289 -0.031 -0.371 0.215 -0.371 c 0.301 0 0.32 0.176 0.316 2.93 c 0 2.195 -0.051 2.945 -0.211 2.996 c -0.164 0.055 -0.215 -0.527 -0.215 -2.555 m -9.504 1.48 c 0 -0.254 0.117 -0.602 0.254 -0.781 c 0.355 -0.457 0.348 -3.195 -0.012 -3.695 c -0.242 -0.34 -0.23 -0.383 0.176 -0.641 c 0.238 -0.152 0.48 -0.234 0.539 -0.18 c 0.055 0.059 0.09 1.281 0.07 2.719 c -0.023 2.215 -0.07 2.648 -0.309 2.824 c -0.457 0.34 -0.727 0.246 -0.719 -0.25 m 15.219 -3.563 c -0.223 -0.813 -0.098 -1.395 0.559 -2.613 c 0.195 -0.363 1.883 -0.445 1.883 -0.09 c 0 0.188 -0.18 0.254 -0.668 0.254 c -0.664 0 -0.668 0.008 -0.938 0.91 c -0.148 0.496 -0.316 1.133 -0.375 1.406 c -0.121 0.598 -0.32 0.652 -0.461 0.133 m -15.75 -5.859 c -0.395 -0.414 -0.414 -0.527 -0.465 -3.277 c -0.066 -3.332 0.039 -3.688 1.281 -4.273 c 0.906 -0.43 2.211 -0.371 2.895 0.129 c 0.703 0.512 0.668 0.715 -0.113 0.715 h -0.695 l -0.004 0.953 c 0 1.109 -0.141 1.738 -0.355 1.605 c -0.082 -0.047 -0.148 -0.395 -0.148 -0.77 c 0 -0.387 -0.117 -0.809 -0.266 -0.969 c -0.242 -0.258 -0.227 -0.313 0.172 -0.617 c 0.551 -0.426 0.543 -0.535 -0.035 -0.531 c -0.672 0.004 -1.781 0.672 -2.082 1.246 c -0.395 0.77 -0.281 4.34 0.172 5.34 c 0.184 0.414 0.34 0.781 0.34 0.813 c 0 0.188 -0.332 0.012 -0.695 -0.363 m 4.777 -0.223 c -0.191 -0.352 -0.055 -1.805 0.199 -2.121 c 0.09 -0.109 0.305 -1.23 0.48 -2.496 c 0.176 -1.262 0.367 -2.426 0.43 -2.586 c 0.098 -0.246 0.313 -0.281 1.48 -0.242 c 0.762 0.027 1.395 0.125 1.426 0.223 c 0.035 0.098 -0.418 0.332 -1 0.52 c -0.801 0.258 -1.141 0.465 -1.363 0.836 c -0.316 0.527 -0.805 3.273 -0.805 4.559 c 0 0.781 -0.277 1.625 -0.531 1.625 c -0.078 0 -0.215 -0.145 -0.313 -0.32 m 8.945 0.215 c -0.066 -0.063 -0.117 -0.348 -0.117 -0.633 c 0 -0.496 -0.031 -0.52 -0.574 -0.457 c -0.605 0.07 -0.848 -0.094 -0.641 -0.426 c 0.094 -0.145 0.285 -0.152 0.707 -0.035 c 0.316 0.09 0.637 0.105 0.707 0.035 c 0.074 -0.07 0.152 -1.469 0.176 -3.109 l 0.047 -2.98 l 0.977 -0.051 c 1.188 -0.059 1.32 0.242 0.301 0.676 c -0.375 0.156 -0.695 0.305 -0.711 0.328 c -0.016 0.023 -0.074 1.535 -0.129 3.355 c -0.082 2.813 -0.137 3.324 -0.359 3.367 c -0.145 0.023 -0.316 -0.004 -0.383 -0.07 m -11.758 -0.559 c -0.074 -0.23 -0.023 -0.422 0.148 -0.551 c 0.145 -0.105 0.285 -0.492 0.313 -0.859 l 0.051 -0.66 l 1.063 -0.051 c 0.66 -0.031 1.063 0.016 1.063 0.125 c 0 0.098 -0.371 0.172 -0.844 0.172 h -0.84 l -0.051 1.039 c -0.043 0.918 -0.094 1.039 -0.418 1.086 c -0.254 0.035 -0.402 -0.059 -0.484 -0.301 m 14.13 -0.621 c -0.051 -0.074 -0.035 -0.227 0.031 -0.336 c 0.141 -0.223 1.012 -0.051 1.086 0.211 c 0.055 0.207 -0.992 0.324 -1.117 0.125 m -8.719 -1.164 c -0.246 -0.152 -0.035 -3.113 0.238 -3.379 c 0.277 -0.273 0.34 0 0.406 1.762 c 0.051 1.371 0.02 1.66 -0.191 1.699 c -0.141 0.023 -0.344 -0.012 -0.453 -0.082" fill="#707a84"/><path d="m 23.02 24.645 c 0 -1.203 -0.797 -4.352 -1.285 -5.078 c -0.145 -0.215 -0.238 -0.594 -0.211 -0.844 l 0.051 -0.453 l -1.91 -0.055 c -1.715 -0.051 -1.91 -0.027 -1.914 0.23 c -0.004 0.41 -0.594 1.098 -0.824 0.961 c -0.105 -0.063 -0.191 -0.336 -0.191 -0.605 c 0 -0.465 -0.031 -0.488 -0.766 -0.488 c -0.742 0 -0.766 0.016 -0.785 0.539 c -0.016 0.297 -0.07 1.734 -0.129 3.195 c -0.102 2.637 -0.105 2.652 -0.508 2.707 c -0.371 0.051 -0.395 0.016 -0.273 -0.414 c 0.07 -0.258 0.164 -1.758 0.203 -3.332 c 0.066 -2.738 0.086 -2.867 0.441 -3.051 c 0.207 -0.105 0.418 -0.262 0.477 -0.348 c 0.063 -0.094 0.258 -0.066 0.48 0.066 c 0.332 0.199 0.406 0.18 0.688 -0.156 c 0.293 -0.344 0.332 -0.352 0.48 -0.094 c 0.207 0.359 0.434 0.387 3.551 0.395 c 1.5 0.004 2.625 0.074 2.684 0.168 c 0.059 0.09 -0.133 0.211 -0.418 0.266 c -0.289 0.055 -0.559 0.152 -0.594 0.211 c -0.105 0.164 0.344 2.324 0.742 3.586 c 0.375 1.18 0.5 3.727 0.184 3.727 c -0.098 0 -0.172 -0.488 -0.172 -1.133 m -16.309 -2.828 c 0 -3.043 0.043 -3.66 0.258 -3.836 c 0.383 -0.309 3.168 -0.129 3.746 0.242 c 0.617 0.395 0.418 0.488 -0.602 0.273 c -0.48 -0.102 -1.32 -0.184 -1.867 -0.184 c -0.98 0 -1 0.012 -1.113 0.52 c -0.066 0.289 -0.102 1.801 -0.078 3.359 c 0.051 3.277 0.051 3.254 -0.172 3.254 c -0.109 0 -0.172 -1.32 -0.172 -3.629 m 5.855 3.223 c -0.418 -0.406 -0.418 -0.426 -0.418 -3.715 c 0 -3.656 -0.047 -3.508 1.133 -3.508 c 0.746 0 0.688 0.391 -0.07 0.465 c -0.684 0.066 -0.727 0.273 -0.738 3.336 c -0.008 2.188 0.031 2.547 0.348 3.148 c 0.406 0.781 0.336 0.852 -0.254 0.273 m 5.695 -2.664 c 0 -1.836 0.063 -2.906 0.168 -2.871 c 0.266 0.086 0.309 5.648 0.047 5.734 c -0.164 0.055 -0.215 -0.59 -0.215 -2.863 m -9.512 1.965 c 0 -0.152 0.133 -0.422 0.297 -0.598 c 0.246 -0.266 0.297 -0.641 0.297 -2.074 c 0 -1.254 -0.059 -1.77 -0.211 -1.82 c -0.117 -0.039 -0.211 -0.168 -0.211 -0.285 c 0 -0.234 0.457 -0.469 0.664 -0.348 c 0.195 0.121 0.176 4.957 -0.023 5.195 c -0.258 0.305 -0.813 0.254 -0.813 -0.07 m 15.188 -3.977 c -0.078 -0.41 -0.035 -0.738 0.141 -1.035 c 0.141 -0.238 0.305 -0.633 0.363 -0.875 c 0.086 -0.363 0.23 -0.465 0.801 -0.559 c 0.438 -0.07 0.77 -0.043 0.887 0.07 c 0.195 0.191 0.141 0.211 -0.723 0.246 c -0.379 0.02 -0.449 0.148 -0.766 1.387 c -0.191 0.754 -0.402 1.367 -0.465 1.367 c -0.066 0.004 -0.172 -0.27 -0.238 -0.602 m -7.867 -3.309 c 0.008 -0.191 0.047 -0.23 0.102 -0.098 c 0.047 0.117 0.043 0.262 -0.016 0.316 c -0.055 0.055 -0.094 -0.043 -0.086 -0.219 m 0.012 -1.105 c -0.016 -0.25 -0.105 -0.457 -0.203 -0.457 c -0.113 0 -0.109 -0.121 0.02 -0.352 c 0.105 -0.195 0.152 -0.602 0.102 -0.898 c -0.063 -0.383 -0.016 -0.574 0.152 -0.637 c 0.258 -0.098 0.477 0.461 0.383 0.984 c -0.043 0.23 0.113 0.34 0.68 0.48 c 0.402 0.098 0.684 0.227 0.621 0.289 c -0.063 0.063 -0.223 0.07 -0.352 0.023 c -0.133 -0.051 -0.277 0.031 -0.324 0.176 c -0.27 0.832 -0.297 0.863 -0.41 0.445 c -0.156 -0.574 -0.488 -0.613 -0.574 -0.063 l -0.07 0.465 l -0.027 -0.457 m -7.961 -1.234 c -0.258 -0.391 -0.301 -0.855 -0.301 -3.414 v -2.965 l 0.547 -0.477 c 0.961 -0.84 2.281 -0.988 3.488 -0.387 c 0.656 0.332 0.605 0.625 -0.086 0.477 c -0.305 -0.066 -1.047 -0.133 -1.652 -0.145 l -1.098 -0.023 l -0.43 0.746 c -0.402 0.703 -0.43 0.883 -0.414 2.984 c 0.016 1.617 0.094 2.438 0.293 2.945 c 0.305 0.793 0.109 0.938 -0.348 0.258 m 10.09 -0.09 c -0.051 -0.207 -0.023 -0.672 0.063 -1.039 c 0.09 -0.363 0.16 -1.758 0.164 -3.098 c 0.004 -3.059 0.082 -3.285 1.094 -3.285 c 0.785 0 1.168 0.258 0.758 0.516 c -0.129 0.078 -0.441 0.102 -0.691 0.051 c -0.418 -0.086 -0.469 -0.039 -0.594 0.539 c -0.078 0.348 -0.121 1.867 -0.098 3.371 c 0.023 1.504 -0.004 2.867 -0.055 3.03 c -0.133 0.41 -0.527 0.359 -0.641 -0.082 m 3.941 0.293 c -0.16 -0.16 0.063 -7.301 0.234 -7.508 c 0.234 -0.281 1.711 -0.281 1.617 0 c -0.039 0.113 -0.305 0.23 -0.59 0.258 c -0.359 0.035 -0.563 0.164 -0.648 0.414 c -0.07 0.199 -0.145 1.766 -0.16 3.477 c -0.023 2.777 -0.145 3.66 -0.453 3.359 m -9.1 -0.363 c -0.059 -0.148 -0.016 -0.652 0.094 -1.117 c 0.109 -0.465 0.359 -1.965 0.555 -3.336 c 0.199 -1.367 0.441 -2.582 0.539 -2.699 c 0.211 -0.258 2.605 -0.215 2.551 0.047 c -0.02 0.09 -0.434 0.242 -0.922 0.332 c -1.355 0.258 -1.598 0.836 -2.02 4.809 c -0.098 0.914 -0.219 1.789 -0.27 1.949 c -0.117 0.367 -0.387 0.375 -0.531 0.016 m -2.828 -0.301 c -0.059 -0.156 0 -0.305 0.148 -0.359 c 0.16 -0.059 0.254 -0.32 0.254 -0.707 c 0 -0.336 0.09 -0.703 0.203 -0.813 c 0.258 -0.25 1.902 -0.273 1.742 -0.02 c -0.063 0.098 -0.391 0.152 -0.734 0.121 l -0.617 -0.051 l -0.086 0.996 c -0.074 0.855 -0.137 1 -0.445 1.043 c -0.211 0.031 -0.406 -0.059 -0.465 -0.211 m 10.535 -0.527 c -0.23 -0.227 -0.102 -0.391 0.301 -0.391 c 0.496 0 0.715 0.258 0.336 0.398 c -0.344 0.129 -0.496 0.129 -0.637 -0.008 m 3.738 0 c -0.23 -0.227 -0.102 -0.391 0.301 -0.391 c 0.496 0 0.711 0.258 0.336 0.398 c -0.344 0.129 -0.496 0.129 -0.637 -0.008 m -8.965 -1.293 c -0.141 -0.133 0.148 -2.938 0.316 -3.102 c 0.168 -0.164 0.594 2.805 0.438 3.051 c -0.082 0.137 -0.633 0.172 -0.754 0.051 m -4.91 -2.629 c 0 -0.391 -0.094 -0.805 -0.211 -0.918 c -0.168 -0.164 -0.156 -0.238 0.043 -0.363 c 0.551 -0.34 0.707 -0.023 0.563 1.16 c -0.121 1.02 -0.395 1.102 -0.395 0.121" fill="#5c6062"/></svg>