<svg xmlns="http://www.w3.org/2000/svg" viewBox="0 0 32 32"><path d="m 6.617 28.777 c 24.01 15.773 38.793 -34.535 7.758 -27.875 c -12.824 2.84 -20.605 20.641 -7.758 27.875" fill="#f4f4dc"/><path d="m 58.22 869.86 h 140.94 c 0.844 0 1.531 1.063 1.531 2.406 v 103.34 c 0 1.313 -0.688 2.375 -1.531 2.375 h -140.94 c -0.875 0 -1.563 -1.063 -1.563 -2.375 v -103.34 c 0 -1.344 0.688 -2.406 1.563 -2.406" transform="matrix(0.125 0 0 0.125 0 -99.55)" fill="#fff" stroke="#696969" stroke-width="1.149"/><path d="m 7.211 22.891 c -0.148 -0.164 -0.359 -0.297 -0.469 -0.297 c -0.164 0 -0.199 -1.172 -0.199 -6.609 c 0 -5.441 0.035 -6.613 0.199 -6.613 c 0.109 0 0.32 -0.133 0.469 -0.297 c 0.262 -0.289 0.453 -0.297 8.883 -0.293 l 8.617 0.004 l 0.41 0.363 l 0.406 0.359 v 12.953 l -0.406 0.359 l -0.41 0.359 l -8.617 0.004 c -8.43 0.004 -8.621 -0.004 -8.883 -0.293 m 17.13 -0.496 c 0 -0.109 0.125 -0.313 0.277 -0.453 c 0.262 -0.234 0.289 -0.641 0.391 -5.734 l 0.109 -5.484 l -0.426 -0.66 c -0.332 -0.516 -0.535 -0.68 -0.945 -0.746 c -0.676 -0.117 -14.598 -0.117 -15.273 0 c -0.41 0.066 -0.613 0.23 -0.945 0.746 l -0.422 0.66 l 0.109 5.484 c 0.102 5.094 0.129 5.5 0.387 5.734 c 0.152 0.141 0.277 0.344 0.277 0.453 c 0 0.164 1.434 0.199 8.23 0.199 c 6.797 0 8.23 -0.035 8.23 -0.199 m -15.891 -0.797 c -0.336 -0.082 -0.43 -0.559 -0.184 -0.914 c 0.133 -0.191 0.156 -0.332 0.059 -0.391 c -0.199 -0.125 -0.191 -0.719 0.012 -0.922 c 0.117 -0.117 0.117 -0.188 0 -0.262 c -0.203 -0.125 -0.211 -0.773 -0.012 -0.898 c 0.098 -0.059 0.07 -0.211 -0.074 -0.414 c -0.285 -0.406 -0.285 -0.914 -0.004 -1.195 c 0.195 -0.195 0.168 -0.238 -0.223 -0.375 l -0.441 -0.152 v -5.309 l 0.508 -0.488 l 0.504 -0.492 l 15.08 0.047 l 0.484 0.465 l 0.48 0.469 v 2.637 c 0 1.738 -0.055 2.672 -0.16 2.738 c -0.09 0.055 -2.555 0.086 -5.477 0.074 c -2.922 -0.012 -5.809 0.02 -6.418 0.074 l -1.105 0.102 l 0.164 0.434 c 0.133 0.352 0.117 0.52 -0.086 0.871 c -0.145 0.25 -0.188 0.473 -0.109 0.52 c 0.191 0.121 0.176 0.773 -0.023 0.895 c -0.113 0.074 -0.113 0.145 0 0.262 c 0.203 0.203 0.211 0.797 0.012 0.922 c -0.094 0.059 -0.074 0.199 0.059 0.391 c 0.434 0.617 -0.16 1.211 -0.777 0.777 c -0.191 -0.133 -0.332 -0.152 -0.391 -0.059 c -0.117 0.195 -0.77 0.195 -0.891 0.004 c -0.055 -0.094 -0.211 -0.074 -0.414 0.051 c -0.18 0.109 -0.438 0.172 -0.57 0.141 m 1.043 -1.328 c -0.129 -0.156 -0.219 -0.164 -0.375 -0.035 c -0.156 0.129 -0.164 0.219 -0.035 0.375 c 0.129 0.156 0.219 0.164 0.375 0.035 c 0.156 -0.129 0.164 -0.219 0.035 -0.375 m 1.188 0 c -0.129 -0.156 -0.219 -0.164 -0.375 -0.035 c -0.156 0.129 -0.164 0.219 -0.035 0.375 c 0.129 0.156 0.219 0.164 0.375 0.035 c 0.156 -0.129 0.164 -0.219 0.035 -0.375 m -1.188 -1.188 c -0.129 -0.156 -0.219 -0.164 -0.375 -0.035 c -0.156 0.129 -0.164 0.219 -0.035 0.375 c 0.129 0.156 0.219 0.164 0.375 0.035 c 0.156 -0.129 0.164 -0.219 0.035 -0.375 m 1.188 0 c -0.129 -0.156 -0.219 -0.164 -0.375 -0.035 c -0.156 0.129 -0.164 0.219 -0.035 0.375 c 0.129 0.156 0.219 0.164 0.375 0.035 c 0.156 -0.129 0.164 -0.219 0.035 -0.375 m -1.02 -1.098 c 0 -0.184 -0.383 -0.277 -0.598 -0.141 c -0.168 0.102 -0.168 0.164 -0.004 0.359 c 0.148 0.18 0.242 0.195 0.398 0.066 c 0.109 -0.094 0.203 -0.219 0.203 -0.285 m 1.184 0 c 0 -0.184 -0.379 -0.277 -0.598 -0.141 c -0.164 0.102 -0.164 0.164 -0.004 0.359 c 0.152 0.18 0.246 0.195 0.398 0.066 c 0.113 -0.094 0.203 -0.219 0.203 -0.285 m -1.465 -1.684 c -0.395 -0.176 -0.566 -0.027 -0.316 0.273 c 0.152 0.184 0.234 0.191 0.41 0.047 c 0.188 -0.156 0.176 -0.199 -0.098 -0.32 m 1.305 0.043 c -0.098 -0.063 -0.27 -0.074 -0.379 -0.031 c -0.156 0.059 -0.164 0.125 -0.031 0.285 c 0.133 0.16 0.219 0.168 0.379 0.031 c 0.16 -0.133 0.168 -0.199 0.031 -0.285 m -0.523 -2.094 c -0.234 -0.258 -0.266 -0.258 -0.523 -0.027 c -0.254 0.234 -0.258 0.266 -0.023 0.523 c 0.23 0.258 0.262 0.258 0.52 0.027 c 0.258 -0.234 0.258 -0.266 0.027 -0.523 m 1.184 0 c -0.23 -0.258 -0.262 -0.258 -0.52 -0.027 c -0.258 0.234 -0.258 0.266 -0.027 0.523 c 0.234 0.258 0.266 0.258 0.523 0.027 c 0.254 -0.234 0.258 -0.266 0.023 -0.523 m -1.699 -1.363 c 0.18 -0.219 0.078 -0.395 -0.23 -0.395 c -0.105 0 -0.195 0.133 -0.195 0.297 c 0 0.344 0.188 0.387 0.426 0.098 m 2.094 -0.098 c 0 -0.285 -0.289 -0.402 -0.492 -0.199 c -0.113 0.113 0.168 0.496 0.363 0.496 c 0.07 0 0.129 -0.133 0.129 -0.297 m -1.844 -1.602 c -0.129 -0.129 -0.676 0.438 -0.672 0.695 c 0.004 0.168 0.113 0.117 0.379 -0.188 c 0.203 -0.234 0.336 -0.461 0.293 -0.508 m 1.57 0.219 c -0.434 -0.434 -0.539 -0.234 -0.145 0.27 c 0.207 0.266 0.352 0.348 0.391 0.23 c 0.035 -0.105 -0.078 -0.328 -0.246 -0.5 m 5.297 10.191 c -0.383 -0.094 -0.441 -0.621 -0.109 -0.953 c 0.258 -0.262 0.266 -0.313 0.063 -0.52 c -0.285 -0.285 -0.289 -0.418 -0.008 -0.648 c 0.477 -0.398 1.035 0.25 0.617 0.715 c -0.215 0.234 -0.211 0.273 0.027 0.422 c 0.195 0.121 0.328 0.113 0.52 -0.027 c 0.508 -0.371 1.02 0.031 0.875 0.691 c -0.07 0.328 -0.551 0.441 -0.875 0.203 c -0.207 -0.152 -0.32 -0.152 -0.563 -0.008 c -0.168 0.102 -0.414 0.156 -0.547 0.125 m -3.789 -0.289 c -0.219 -0.57 0.57 -0.988 0.895 -0.473 c 0.113 0.18 0.102 0.313 -0.039 0.48 c -0.254 0.309 -0.738 0.305 -0.855 -0.008 m 1.297 0.031 c -0.375 -0.453 0.215 -1.047 0.668 -0.672 c 0.316 0.266 0.211 0.801 -0.172 0.855 c -0.168 0.023 -0.395 -0.059 -0.496 -0.184 m 5.23 -0.027 c -0.055 -0.137 -0.016 -0.371 0.082 -0.527 c 0.141 -0.223 0.133 -0.344 -0.035 -0.586 c -0.426 -0.605 0.152 -1.219 0.754 -0.801 c 0.223 0.16 0.32 0.156 0.535 0 c 0.621 -0.453 1.223 0.285 0.676 0.832 c -0.262 0.262 -0.266 0.316 -0.063 0.52 c 0.289 0.289 0.285 0.422 -0.008 0.664 c -0.164 0.137 -0.305 0.152 -0.473 0.047 c -0.348 -0.223 -0.375 -0.434 -0.098 -0.715 c 0.23 -0.23 0.23 -0.262 -0.023 -0.445 c -0.203 -0.152 -0.332 -0.16 -0.535 -0.031 c -0.281 0.176 -0.355 0.391 -0.133 0.391 c 0.223 0 0.324 0.473 0.148 0.688 c -0.234 0.281 -0.719 0.258 -0.828 -0.039 m 2.48 0.031 c -0.375 -0.453 0.219 -1.047 0.668 -0.672 c 0.32 0.266 0.211 0.801 -0.168 0.855 c -0.172 0.023 -0.395 -0.059 -0.5 -0.184 m -8.898 -1.191 c -0.402 -0.48 0.262 -1.063 0.707 -0.617 c 0.188 0.188 0.207 0.305 0.082 0.504 c -0.215 0.344 -0.559 0.395 -0.789 0.117 m 1.188 -0.004 c -0.402 -0.48 0.262 -1.063 0.703 -0.617 c 0.191 0.188 0.211 0.305 0.086 0.504 c -0.219 0.344 -0.559 0.395 -0.789 0.117 m 1.184 -0.004 c -0.398 -0.48 0.262 -1.063 0.707 -0.617 c 0.191 0.188 0.211 0.305 0.086 0.504 c -0.219 0.344 -0.562 0.395 -0.793 0.117 m 7.125 0.004 c -0.313 -0.379 -0.133 -0.758 0.359 -0.758 c 0.395 0 0.445 0.051 0.445 0.445 c 0 0.34 -0.074 0.457 -0.309 0.492 c -0.172 0.023 -0.395 -0.059 -0.496 -0.18 m -9.496 -1.195 c -0.402 -0.484 0.262 -1.063 0.707 -0.617 c 0.188 0.188 0.207 0.305 0.082 0.5 c -0.215 0.348 -0.559 0.398 -0.789 0.117 m 1.188 0 c -0.402 -0.484 0.262 -1.063 0.703 -0.617 c 0.191 0.188 0.211 0.305 0.086 0.5 c -0.219 0.348 -0.559 0.398 -0.789 0.117 m 1.184 0 c -0.398 -0.484 0.262 -1.063 0.707 -0.617 c 0.191 0.188 0.211 0.305 0.086 0.5 c -0.219 0.348 -0.562 0.398 -0.793 0.117 m 1.188 0 c -0.398 -0.484 0.262 -1.063 0.707 -0.617 c 0.188 0.188 0.207 0.305 0.082 0.5 c -0.215 0.348 -0.559 0.398 -0.789 0.117 m 1.121 -1.297 c -0.199 -0.285 -0.238 -0.293 -0.324 -0.074 c -0.121 0.316 -0.746 0.324 -0.922 0.012 c -0.125 -0.223 -0.141 -0.223 -0.227 0 c -0.117 0.309 -0.789 0.309 -0.961 0 c -0.121 -0.223 -0.141 -0.223 -0.227 0 c -0.113 0.305 -0.82 0.313 -0.938 0.012 c -0.078 -0.203 -0.105 -0.199 -0.262 0.012 c -0.105 0.145 -0.328 0.223 -0.539 0.191 c -0.316 -0.043 -0.363 -0.129 -0.363 -0.645 c 0 -0.672 0.348 -0.871 0.805 -0.457 c 0.238 0.215 0.285 0.219 0.453 0.016 c 0.238 -0.289 0.508 -0.289 0.746 0 c 0.172 0.203 0.215 0.203 0.438 0 c 0.141 -0.125 0.32 -0.227 0.406 -0.227 c 0.086 0 0.242 0.102 0.344 0.227 c 0.168 0.203 0.215 0.203 0.438 0 c 0.137 -0.125 0.32 -0.227 0.406 -0.227 c 0.086 0 0.242 0.102 0.344 0.227 c 0.168 0.203 0.215 0.203 0.438 0 c 0.137 -0.125 0.305 -0.227 0.375 -0.227 c 0.07 0 0.238 0.102 0.375 0.227 c 0.223 0.203 0.27 0.203 0.438 0 c 0.105 -0.125 0.273 -0.227 0.375 -0.227 c 0.102 0 0.27 0.102 0.375 0.227 c 0.168 0.203 0.211 0.203 0.438 0 c 0.137 -0.125 0.305 -0.227 0.375 -0.227 c 0.066 0 0.234 0.102 0.375 0.227 c 0.223 0.203 0.27 0.203 0.438 0 c 0.238 -0.289 0.508 -0.289 0.746 0 c 0.168 0.203 0.215 0.199 0.453 -0.016 c 0.453 -0.41 0.805 -0.215 0.805 0.441 c 0 0.762 -0.41 1.063 -0.801 0.586 c -0.254 -0.309 -0.266 -0.309 -0.434 -0.035 c -0.227 0.363 -0.57 0.359 -0.797 -0.008 c -0.176 -0.285 -0.18 -0.285 -0.379 0 c -0.258 0.367 -0.559 0.367 -0.816 0 c -0.195 -0.285 -0.203 -0.285 -0.379 0 c -0.098 0.16 -0.273 0.289 -0.391 0.289 c -0.117 0 -0.305 -0.129 -0.414 -0.289 c -0.199 -0.285 -0.203 -0.285 -0.383 0 c -0.234 0.379 -0.551 0.367 -0.828 -0.035" fill="#d2d2d2"/><path d="m 6.73 15.859 c 0 -3.617 0.051 -5.57 0.148 -5.57 c 0.094 0 0.145 1.953 0.145 5.57 c 0 3.621 -0.051 5.574 -0.145 5.574 c -0.098 0 -0.148 -1.953 -0.148 -5.574 m 18.441 0 c 0 -3.617 0.051 -5.57 0.148 -5.57 c 0.094 0 0.145 1.953 0.145 5.57 c 0 3.621 -0.051 5.574 -0.145 5.574 c -0.098 0 -0.148 -1.953 -0.148 -5.574 m -16.633 5.059 c -0.051 -0.125 -0.016 -0.301 0.078 -0.395 c 0.207 -0.203 0.695 0.215 0.539 0.461 c -0.145 0.234 -0.516 0.195 -0.617 -0.066 m 1.184 0.066 c -0.055 -0.086 -0.004 -0.254 0.113 -0.367 c 0.188 -0.184 0.238 -0.184 0.398 0.008 c 0.102 0.117 0.141 0.285 0.086 0.367 c -0.121 0.199 -0.473 0.195 -0.598 -0.008 m 1.172 0 c -0.156 -0.246 0.332 -0.664 0.539 -0.461 c 0.094 0.094 0.129 0.27 0.078 0.395 c -0.102 0.262 -0.473 0.301 -0.617 0.066 m 2.441 -0.035 c -0.18 -0.215 -0.078 -0.383 0.227 -0.383 c 0.219 0 0.266 0.371 0.066 0.496 c -0.074 0.043 -0.203 -0.008 -0.293 -0.113 m 1.25 0.098 c -0.055 -0.055 -0.098 -0.184 -0.098 -0.289 c 0 -0.215 0.379 -0.266 0.504 -0.066 c 0.098 0.16 -0.273 0.484 -0.406 0.355 m 2.152 -0.121 c -0.051 -0.129 -0.023 -0.305 0.063 -0.391 c 0.223 -0.219 0.645 -0.02 0.586 0.281 c -0.063 0.332 -0.531 0.414 -0.648 0.109 m 1.172 0 c -0.051 -0.129 -0.023 -0.305 0.063 -0.391 c 0.223 -0.219 0.645 -0.02 0.586 0.281 c -0.063 0.332 -0.535 0.414 -0.652 0.109 m 1.871 0.023 c -0.18 -0.215 -0.078 -0.383 0.223 -0.383 c 0.219 0 0.27 0.371 0.066 0.496 c -0.07 0.043 -0.203 -0.008 -0.289 -0.113 m 2.379 -0.016 c -0.133 -0.34 0.141 -0.582 0.359 -0.32 c 0.133 0.156 0.125 0.242 -0.047 0.383 c -0.18 0.148 -0.238 0.137 -0.313 -0.063 m -1.227 -0.152 c 0 -0.117 0.098 -0.215 0.219 -0.215 c 0.121 0 0.219 0.098 0.219 0.215 c 0 0.121 -0.098 0.219 -0.219 0.219 c -0.121 0 -0.219 -0.098 -0.219 -0.219 m -12.391 -1.023 c -0.133 -0.344 0.18 -0.586 0.457 -0.355 c 0.176 0.145 0.188 0.234 0.063 0.387 c -0.219 0.258 -0.41 0.25 -0.52 -0.031 m 1.285 0.031 c -0.129 -0.152 -0.121 -0.238 0.035 -0.367 c 0.152 -0.125 0.242 -0.117 0.367 0.035 c 0.129 0.152 0.121 0.238 -0.031 0.367 c -0.156 0.125 -0.242 0.117 -0.371 -0.035 m 1.168 0 c -0.125 -0.152 -0.109 -0.242 0.063 -0.387 c 0.281 -0.23 0.59 0.012 0.457 0.355 c -0.105 0.281 -0.301 0.289 -0.52 0.031 m 4.762 0.098 c -0.176 -0.176 -0.094 -0.48 0.125 -0.48 c 0.121 0 0.219 0.094 0.219 0.207 c 0 0.242 -0.207 0.406 -0.344 0.273 m 3.91 -0.117 c -0.051 -0.133 -0.02 -0.309 0.066 -0.391 c 0.223 -0.223 0.645 -0.02 0.586 0.277 c -0.066 0.336 -0.535 0.414 -0.652 0.113 m 1.172 0 c -0.051 -0.133 -0.023 -0.309 0.063 -0.391 c 0.223 -0.223 0.648 -0.02 0.59 0.277 c -0.066 0.336 -0.535 0.414 -0.652 0.113 m 1.867 0.02 c -0.129 -0.152 -0.121 -0.238 0.035 -0.367 c 0.152 -0.125 0.242 -0.117 0.367 0.035 c 0.129 0.152 0.121 0.238 -0.031 0.367 c -0.156 0.125 -0.242 0.117 -0.371 -0.035 m -9.383 -0.164 c 0 -0.121 0.098 -0.219 0.219 -0.219 c 0.121 0 0.219 0.098 0.219 0.219 c 0 0.117 -0.098 0.215 -0.219 0.215 c -0.121 0 -0.219 -0.098 -0.219 -0.215 m 1.168 0 c 0 -0.121 0.102 -0.219 0.223 -0.219 c 0.117 0 0.219 0.098 0.219 0.219 c 0 0.117 -0.102 0.215 -0.219 0.215 c -0.121 0 -0.223 -0.098 -0.223 -0.215 m 2.344 0 c 0 -0.121 0.098 -0.219 0.219 -0.219 c 0.121 0 0.219 0.098 0.219 0.219 c 0 0.117 -0.098 0.215 -0.219 0.215 c -0.121 0 -0.219 -0.098 -0.219 -0.215 m -8.293 -1.023 c -0.133 -0.344 0.18 -0.586 0.457 -0.355 c 0.176 0.141 0.188 0.23 0.063 0.383 c -0.219 0.262 -0.41 0.25 -0.52 -0.027 m 1.285 0.027 c -0.129 -0.148 -0.121 -0.238 0.035 -0.363 c 0.152 -0.125 0.242 -0.117 0.367 0.035 c 0.129 0.152 0.121 0.238 -0.031 0.363 c -0.156 0.125 -0.242 0.117 -0.371 -0.035 m 1.168 0 c -0.125 -0.152 -0.109 -0.242 0.063 -0.383 c 0.281 -0.23 0.59 0.012 0.457 0.355 c -0.105 0.277 -0.301 0.289 -0.52 0.027 m 2.328 -0.164 c 0 -0.121 0.098 -0.219 0.219 -0.219 c 0.121 0 0.219 0.098 0.219 0.219 c 0 0.121 -0.098 0.219 -0.219 0.219 c -0.121 0 -0.219 -0.098 -0.219 -0.219 m 1.168 0 c 0 -0.121 0.102 -0.219 0.223 -0.219 c 0.121 0 0.219 0.098 0.219 0.219 c 0 0.121 -0.098 0.219 -0.219 0.219 c -0.121 0 -0.223 -0.098 -0.223 -0.219 m 1.172 0 c 0 -0.121 0.098 -0.219 0.219 -0.219 c 0.121 0 0.223 0.098 0.223 0.219 c 0 0.121 -0.102 0.219 -0.223 0.219 c -0.121 0 -0.219 -0.098 -0.219 -0.219 m 1.172 0 c 0 -0.148 0.094 -0.219 0.254 -0.191 c 0.309 0.063 0.289 0.316 -0.027 0.383 c -0.133 0.027 -0.227 -0.051 -0.227 -0.191 m -8.367 -1.188 c -0.117 -0.484 0.031 -0.785 0.367 -0.738 c 0.453 0.063 0.457 0.891 0.008 0.957 c -0.203 0.027 -0.336 -0.047 -0.375 -0.219 m 1.258 0.047 c -0.148 -0.379 0 -0.742 0.305 -0.742 c 0.227 0 0.293 0.098 0.293 0.434 c 0 0.473 -0.445 0.703 -0.602 0.309 m 1.168 -0.008 c -0.141 -0.367 0.012 -0.73 0.328 -0.777 c 0.324 -0.047 0.484 0.258 0.383 0.73 c -0.066 0.305 -0.598 0.34 -0.711 0.047 m 2.383 0.109 c -0.156 -0.152 -0.113 -0.742 0.063 -0.852 c 0.258 -0.156 0.617 0.297 0.504 0.645 c -0.094 0.301 -0.371 0.402 -0.566 0.207 m 1.141 -0.207 c -0.059 -0.188 -0.016 -0.387 0.113 -0.516 c 0.184 -0.18 0.234 -0.18 0.395 0.012 c 0.215 0.258 0.074 0.809 -0.207 0.809 c -0.109 0 -0.246 -0.137 -0.301 -0.305 m 1.172 0 c -0.059 -0.188 -0.016 -0.387 0.113 -0.516 c 0.184 -0.18 0.234 -0.18 0.395 0.012 c 0.215 0.258 0.074 0.809 -0.211 0.809 c -0.109 0 -0.242 -0.137 -0.297 -0.305 m 1.172 0 c -0.063 -0.188 -0.016 -0.387 0.113 -0.516 c 0.184 -0.18 0.234 -0.18 0.391 0.012 c 0.219 0.258 0.078 0.809 -0.207 0.809 c -0.109 0 -0.242 -0.137 -0.297 -0.305 m 1.203 0.215 c -0.168 -0.168 -0.113 -0.586 0.098 -0.762 c 0.254 -0.207 0.582 0.133 0.508 0.52 c -0.055 0.266 -0.426 0.418 -0.605 0.242 m 1.172 0 c -0.168 -0.168 -0.113 -0.586 0.098 -0.762 c 0.254 -0.207 0.582 0.133 0.508 0.52 c -0.055 0.266 -0.426 0.418 -0.605 0.242 m 1.172 0 c -0.168 -0.168 -0.117 -0.586 0.098 -0.762 c 0.25 -0.207 0.582 0.133 0.504 0.52 c -0.051 0.266 -0.422 0.418 -0.602 0.242 m 1.172 0 c -0.172 -0.168 -0.117 -0.586 0.098 -0.762 c 0.25 -0.207 0.578 0.133 0.504 0.52 c -0.051 0.266 -0.426 0.418 -0.602 0.242 m 1.117 -0.137 c -0.117 -0.297 0.121 -0.715 0.406 -0.715 c 0.316 0 0.266 0.855 -0.055 0.914 c -0.141 0.027 -0.301 -0.063 -0.352 -0.199 m -14.512 -1.539 c -0.121 -0.121 -0.176 -0.883 -0.176 -2.504 v -2.332 l 0.484 -0.461 l 0.484 -0.465 h 14.637 l 0.469 0.48 l 0.465 0.477 v 2.316 c 0 1.605 -0.051 2.367 -0.176 2.488 c -0.25 0.25 -15.93 0.25 -16.184 0 m 2.277 -0.867 c 0.133 -0.129 0.262 -0.125 0.547 0.027 c 0.336 0.18 0.406 0.168 0.695 -0.121 c 0.25 -0.246 0.289 -0.371 0.168 -0.559 c -0.293 -0.457 -0.617 -0.566 -0.891 -0.297 c -0.234 0.23 -0.266 0.23 -0.523 0.004 c -0.293 -0.266 -0.613 -0.164 -0.898 0.285 c -0.113 0.176 -0.082 0.313 0.121 0.535 c 0.313 0.336 0.531 0.375 0.781 0.125 m 6.84 -0.406 c 0.047 -0.078 0.02 -0.145 -0.066 -0.145 c -0.086 0 -0.156 0.066 -0.156 0.145 c 0 0.078 0.031 0.145 0.066 0.145 c 0.035 0 0.105 -0.066 0.156 -0.145 m -3.441 -0.652 c 0 -0.48 -0.055 -0.652 -0.219 -0.652 c -0.164 0 -0.219 0.172 -0.219 0.652 c 0 0.484 0.055 0.652 0.219 0.652 c 0.164 0 0.219 -0.168 0.219 -0.652 m 1.172 0 c 0 -0.48 -0.059 -0.652 -0.219 -0.652 c -0.164 0 -0.223 0.172 -0.223 0.652 c 0 0.484 0.059 0.652 0.223 0.652 c 0.16 0 0.219 -0.168 0.219 -0.652 m 1.172 0 c 0 -0.48 -0.059 -0.652 -0.223 -0.652 c -0.16 0 -0.219 0.172 -0.219 0.652 c 0 0.484 0.059 0.652 0.219 0.652 c 0.164 0 0.223 -0.168 0.223 -0.652 m 2.266 -0.508 c 0.051 -0.078 0.023 -0.145 -0.063 -0.145 c -0.086 0 -0.156 0.066 -0.156 0.145 c 0 0.082 0.031 0.148 0.066 0.148 c 0.035 0 0.105 -0.066 0.152 -0.148 m -8.535 -0.238 c 0.328 -0.293 0.336 -0.457 0.035 -0.789 c -0.215 -0.234 -0.211 -0.273 0.07 -0.512 c 0.328 -0.277 0.422 -0.918 0.133 -0.918 c -0.094 0 -0.324 0.141 -0.512 0.313 c -0.285 0.266 -0.336 0.461 -0.336 1.23 c 0 0.973 0.125 1.109 0.609 0.676 m 2.168 -0.656 c 0 -0.719 -0.059 -0.961 -0.316 -1.23 c -0.176 -0.184 -0.406 -0.332 -0.512 -0.332 c -0.305 0 -0.227 0.629 0.113 0.918 c 0.281 0.238 0.285 0.277 0.07 0.512 c -0.293 0.32 -0.289 0.434 0.012 0.766 c 0.461 0.504 0.637 0.332 0.637 -0.633 m -1.254 -0.418 c -0.047 -0.078 -0.148 -0.102 -0.223 -0.055 c -0.078 0.047 -0.102 0.148 -0.055 0.223 c 0.047 0.074 0.148 0.102 0.223 0.055 c 0.078 -0.047 0.102 -0.148 0.055 -0.223 m 3.01 -0.207 c 0 -0.215 -0.082 -0.359 -0.207 -0.359 c -0.234 0 -0.367 0.27 -0.27 0.543 c 0.125 0.328 0.477 0.195 0.477 -0.184 m 1.172 0 c 0 -0.223 -0.082 -0.359 -0.219 -0.359 c -0.137 0 -0.223 0.137 -0.223 0.359 c 0 0.227 0.086 0.363 0.223 0.363 c 0.137 0 0.219 -0.137 0.219 -0.363 m 1.172 0 c 0 -0.223 -0.086 -0.359 -0.223 -0.359 c -0.137 0 -0.219 0.137 -0.219 0.359 c 0 0.227 0.082 0.363 0.219 0.363 c 0.137 0 0.223 -0.137 0.223 -0.363 m 1.168 0 c 0 -0.223 -0.082 -0.359 -0.219 -0.359 c -0.137 0 -0.219 0.137 -0.219 0.359 c 0 0.227 0.082 0.363 0.219 0.363 c 0.137 0 0.219 -0.137 0.219 -0.363 m 1.211 0.184 c 0.094 -0.27 -0.043 -0.543 -0.273 -0.543 c -0.121 0 -0.203 0.148 -0.203 0.359 c 0 0.379 0.359 0.516 0.477 0.184" fill="#adb0ad"/><path d="m 8.504 17.301 c -0.055 -0.137 -0.023 -0.324 0.063 -0.41 c 0.117 -0.117 0.188 -0.09 0.262 0.09 c 0.051 0.141 0.023 0.324 -0.066 0.41 c -0.117 0.117 -0.188 0.094 -0.258 -0.09 m 2.344 0 c -0.055 -0.137 -0.027 -0.324 0.063 -0.41 c 0.117 -0.117 0.188 -0.09 0.258 0.09 c 0.055 0.141 0.023 0.324 -0.063 0.41 c -0.117 0.117 -0.188 0.094 -0.258 -0.09 m -1.23 -0.16 c 0 -0.117 0.098 -0.215 0.219 -0.215 c 0.121 0 0.219 0.098 0.219 0.215 c 0 0.121 -0.098 0.219 -0.219 0.219 c -0.121 0 -0.219 -0.098 -0.219 -0.219 m 6.184 -1.34 l -7.793 -0.035 v -2.363 c 0 -2.316 0.004 -2.367 0.355 -2.695 l 0.359 -0.332 l 7.285 0.023 c 7.219 0.023 7.293 0.027 7.621 0.332 c 0.316 0.297 0.332 0.406 0.332 2.656 c 0 1.754 -0.047 2.363 -0.184 2.398 c -0.102 0.031 -3.691 0.035 -7.977 0.016 m -5.633 -0.496 c 0.133 -0.129 0.258 -0.125 0.535 0.02 c 0.316 0.168 0.406 0.152 0.797 -0.152 c 0.492 -0.387 0.57 -0.727 0.234 -1 c -0.199 -0.164 -0.191 -0.223 0.074 -0.5 c 0.227 -0.242 0.297 -0.508 0.297 -1.164 c 0 -0.762 -0.051 -0.902 -0.469 -1.328 c -0.637 -0.652 -1.012 -0.609 -1.055 0.121 c -0.02 0.355 -0.301 0.355 -0.324 0 c -0.039 -0.723 -0.379 -0.766 -1.035 -0.137 c -0.441 0.422 -0.484 0.539 -0.484 1.328 c 0 0.672 0.066 0.938 0.297 1.18 c 0.266 0.281 0.273 0.336 0.074 0.5 c -0.328 0.27 -0.277 0.551 0.18 0.945 c 0.453 0.395 0.633 0.434 0.879 0.188 m 7.06 -0.477 c 0.242 -0.289 0.082 -0.652 -0.293 -0.652 c -0.332 0 -0.516 0.313 -0.387 0.648 c 0.109 0.277 0.445 0.281 0.68 0.004 m -3.43 -0.273 c 0.137 -0.547 0.012 -1.281 -0.254 -1.441 c -0.41 -0.254 -0.707 0.129 -0.707 0.91 c 0 0.773 0.063 0.875 0.535 0.875 c 0.234 0 0.363 -0.105 0.426 -0.344 m 1.168 0 c 0.242 -0.941 -0.215 -1.824 -0.727 -1.402 c -0.234 0.191 -0.316 1.07 -0.141 1.516 c 0.141 0.371 0.766 0.289 0.867 -0.113 m 1.063 0.168 c 0.258 -0.254 0.219 -1.344 -0.059 -1.57 c -0.508 -0.422 -0.965 0.461 -0.727 1.402 c 0.094 0.371 0.492 0.457 0.785 0.168 m 2.355 -1.035 c 0.242 -0.293 0.035 -0.672 -0.367 -0.672 c -0.27 0 -0.352 0.078 -0.352 0.34 c 0 0.543 0.387 0.723 0.719 0.332 m -1.184 -0.348 c 0.039 -0.262 -0.023 -0.324 -0.328 -0.324 c -0.27 0 -0.379 0.078 -0.379 0.266 c 0 0.563 0.625 0.613 0.707 0.059 m -3.445 -1.063 c 0.082 -0.125 0.105 -0.406 0.047 -0.621 c -0.082 -0.324 -0.168 -0.387 -0.496 -0.352 c -0.313 0.039 -0.406 0.133 -0.445 0.453 c -0.082 0.719 0.539 1.082 0.895 0.52 m 1.172 0 c 0.246 -0.387 0.004 -1 -0.395 -1 c -0.348 0 -0.527 0.242 -0.527 0.707 c 0 0.563 0.625 0.758 0.922 0.293 m 1.172 0 c 0.246 -0.387 0.004 -1 -0.395 -1 c -0.348 0 -0.527 0.242 -0.527 0.707 c 0 0.563 0.625 0.758 0.922 0.293 m 1.172 0 c 0.246 -0.387 0.004 -1 -0.398 -1 c -0.348 0 -0.523 0.242 -0.523 0.707 c 0 0.563 0.625 0.758 0.922 0.293 m 1.121 0.098 c 0.094 -0.117 0.152 -0.395 0.125 -0.617 c -0.035 -0.301 -0.137 -0.418 -0.395 -0.453 c -0.191 -0.027 -0.406 0.035 -0.473 0.145 c -0.426 0.656 0.254 1.504 0.742 0.926" fill="#208c20"/></svg>