<svg xmlns="http://www.w3.org/2000/svg" viewBox="0 0 32 32"><path d="m 28.28 26.449 c 7.785 -11.973 1.504 -22.875 -7.309 -25.465 c -11.855 -3.477 -27.949 5.668 -17.344 24.516 c 4.215 7.488 19.11 9.473 24.652 0.945" fill="#7f7f7f"/><path d="m 22.82 23.676 c -0.043 -0.105 -0.227 -0.188 -0.434 -0.188 c -0.293 0 -0.613 -0.258 -1.758 -1.441 c -0.773 -0.793 -1.453 -1.406 -1.52 -1.367 c -0.066 0.043 -0.121 0.207 -0.121 0.371 c 0 0.191 -0.18 0.449 -0.52 0.742 c -0.664 0.566 -0.98 0.586 -0.98 0.063 c 0 -0.332 0.035 -0.371 0.262 -0.301 c 0.219 0.07 0.254 0.035 0.219 -0.211 c -0.031 -0.223 0.023 -0.301 0.238 -0.332 c 0.301 -0.043 0.371 -0.203 0.148 -0.34 c -0.078 -0.047 -0.199 -0.023 -0.277 0.055 c -0.074 0.074 -0.27 0.137 -0.426 0.137 c -0.203 0 -0.289 0.074 -0.289 0.25 c 0 0.332 -0.715 1 -1.07 1 c -0.16 0 -0.324 0.059 -0.367 0.125 c -0.039 0.07 -0.227 0.125 -0.41 0.121 c -0.305 -0.004 -0.316 -0.016 -0.105 -0.137 c 0.188 -0.109 0.203 -0.156 0.063 -0.246 c -0.305 -0.188 0.063 -0.539 0.719 -0.68 c 0.477 -0.105 0.609 -0.188 0.609 -0.375 c 0 -0.383 -0.445 -0.363 -1.34 0.063 c -0.891 0.418 -1.469 0.531 -1.027 0.195 c 0.137 -0.102 0.176 -0.184 0.086 -0.188 c -0.309 -0.008 -0.148 -0.402 0.219 -0.539 c 0.535 -0.203 0.465 -0.34 -0.172 -0.34 c -0.672 0 -0.93 -0.238 -0.727 -0.68 c 0.18 -0.395 -0.008 -0.461 -0.977 -0.363 l -0.738 0.078 l -1 -1.043 c -0.551 -0.574 -1.086 -1.219 -1.188 -1.43 c -0.098 -0.215 -0.438 -0.621 -0.75 -0.906 c -0.336 -0.305 -0.566 -0.625 -0.566 -0.785 c 0 -0.148 -0.117 -0.414 -0.254 -0.59 c -0.16 -0.203 -0.242 -0.473 -0.223 -0.746 c 0.016 -0.262 -0.043 -0.469 -0.156 -0.539 c -0.113 -0.07 -0.125 -0.117 -0.031 -0.117 c 0.227 -0.004 0.348 0.262 0.359 0.777 c 0.004 0.316 0.098 0.555 0.281 0.727 c 0.148 0.137 0.273 0.387 0.273 0.555 c 0 0.207 0.207 0.48 0.691 0.898 c 0.379 0.328 0.723 0.715 0.758 0.859 c 0.035 0.148 0.504 0.703 1.039 1.234 l 0.973 0.965 l 0.5 -0.133 c 0.277 -0.074 0.758 -0.102 1.066 -0.059 c 0.586 0.082 0.781 -0.027 0.598 -0.324 c -0.066 -0.109 -0.348 -0.18 -0.742 -0.191 c -0.352 -0.008 -0.703 -0.078 -0.785 -0.16 c -0.082 -0.082 -0.32 -0.152 -0.531 -0.152 c -0.246 0 -0.438 -0.086 -0.539 -0.25 c -0.086 -0.137 -0.238 -0.25 -0.344 -0.25 c -0.215 0 -0.246 -0.195 -0.051 -0.316 c 0.07 -0.043 0.23 0.008 0.352 0.117 c 0.344 0.313 0.859 0.25 1.203 -0.145 c 0.168 -0.188 0.305 -0.402 0.309 -0.477 c 0 -0.074 -0.199 -0.367 -0.441 -0.652 c -0.531 -0.621 -0.566 -1.234 -0.082 -1.477 c 0.156 -0.074 0.414 -0.262 0.57 -0.41 l 0.289 -0.27 l 0.227 0.254 c 0.293 0.324 0.391 0.316 0.629 -0.047 c 0.152 -0.234 0.172 -0.438 0.086 -0.973 c -0.059 -0.375 -0.082 -0.746 -0.055 -0.828 c 0.07 -0.211 0.469 -0.188 0.656 0.035 c 0.305 0.371 0.875 0.141 0.875 -0.348 c 0 -0.367 -1.73 -2.09 -2.094 -2.09 c -0.184 0 -0.504 -0.195 -0.813 -0.5 c -0.281 -0.273 -0.578 -0.5 -0.66 -0.5 c -0.086 0 -0.293 -0.109 -0.469 -0.25 c -0.176 -0.137 -0.43 -0.25 -0.566 -0.25 c -0.266 0 -0.609 -0.328 -0.48 -0.461 c 0.043 -0.043 0.082 -0.012 0.082 0.066 c 0 0.082 0.137 0.145 0.305 0.145 c 0.168 0 0.457 0.141 0.645 0.313 c 0.184 0.172 0.43 0.313 0.543 0.313 c 0.113 0 0.398 0.199 0.629 0.438 c 0.242 0.25 0.551 0.438 0.711 0.438 c 0.297 0 2.145 1.801 2.316 2.254 c 0.047 0.129 0.23 0.328 0.406 0.441 c 0.195 0.129 0.316 0.324 0.316 0.508 c 0 0.164 0.113 0.398 0.25 0.516 c 0.141 0.117 0.25 0.34 0.25 0.492 c 0 0.168 0.207 0.469 0.5 0.742 c 0.297 0.273 0.5 0.578 0.5 0.742 c 0 0.152 0.086 0.344 0.191 0.43 c 0.102 0.086 0.23 0.328 0.285 0.539 c 0.129 0.496 0.359 0.566 0.543 0.16 c 0.188 -0.406 0.309 -0.41 0.41 -0.008 c 0.043 0.184 0.227 0.383 0.418 0.465 c 0.188 0.078 0.359 0.156 0.383 0.172 c 0.023 0.016 -0.023 0.344 -0.102 0.73 c -0.113 0.547 -0.113 0.746 0.004 0.887 c 0.223 0.27 0.398 0.227 0.961 -0.258 c 0.281 -0.238 0.641 -0.438 0.797 -0.438 c 0.277 0 0.277 0.008 0.043 0.184 c -0.137 0.105 -0.176 0.188 -0.09 0.188 c 0.285 0.008 0.164 0.438 -0.223 0.805 c -0.27 0.254 -0.551 0.375 -0.969 0.422 c -0.324 0.035 -0.633 0.141 -0.688 0.234 c -0.055 0.094 -0.211 0.168 -0.344 0.168 c -0.16 0 -0.246 0.086 -0.246 0.25 c 0 0.168 0.086 0.25 0.25 0.25 c 0.164 0 0.25 0.086 0.25 0.238 c 0 0.129 0.113 0.262 0.25 0.301 c 0.141 0.035 0.25 0.148 0.25 0.25 c 0 0.102 0.113 0.211 0.25 0.25 c 0.141 0.035 0.25 0.152 0.25 0.262 c 0 0.109 0.09 0.199 0.199 0.199 c 0.113 0 0.23 0.109 0.262 0.238 c 0.035 0.133 0.176 0.27 0.309 0.305 c 0.156 0.039 0.234 0.148 0.207 0.293 c -0.023 0.156 0.051 0.242 0.254 0.27 c 0.301 0.043 0.898 0.484 0.898 0.668 c 0 0.184 -0.598 0.109 -0.672 -0.086 m -6.332 -3.219 c 0.172 0.008 0.52 0.055 0.77 0.102 c 0.262 0.047 0.566 0.02 0.719 -0.063 c 0.18 -0.094 0.336 -0.102 0.496 -0.016 c 0.336 0.18 0.945 -0.02 0.992 -0.32 c 0.027 -0.199 -0.07 -0.285 -0.461 -0.402 c -0.301 -0.09 -0.531 -0.246 -0.578 -0.395 c -0.09 -0.285 -0.379 -0.332 -0.477 -0.074 c -0.094 0.246 -2.164 0.152 -2.457 -0.113 c -0.285 -0.254 -0.539 -0.234 -0.723 0.063 c -0.086 0.137 -0.266 0.25 -0.398 0.25 c -0.301 0 -0.469 0.246 -0.258 0.375 c 0.086 0.055 0.371 0.07 0.633 0.035 c 0.43 -0.059 0.488 -0.031 0.676 0.332 c 0.172 0.328 0.254 0.379 0.48 0.301 c 0.152 -0.051 0.414 -0.086 0.586 -0.074 m 3.18 -1.281 c 0.082 -0.352 0.074 -0.359 -0.125 -0.164 c -0.129 0.125 -0.18 0.293 -0.129 0.422 c 0.102 0.266 0.141 0.223 0.254 -0.258 m 0.695 -0.07 c 0 -0.063 -0.055 -0.117 -0.125 -0.117 c -0.066 0 -0.125 0.09 -0.125 0.195 c 0 0.109 0.059 0.16 0.125 0.117 c 0.07 -0.043 0.125 -0.129 0.125 -0.195 m -1.273 -0.141 c 0.207 -0.207 0.188 -0.477 -0.027 -0.477 c -0.102 0 -0.215 -0.113 -0.262 -0.25 c -0.098 -0.309 -0.215 -0.313 -0.48 -0.02 c -0.227 0.254 -0.16 0.395 0.191 0.395 c 0.145 0 0.227 0.094 0.227 0.25 c 0 0.285 0.133 0.32 0.352 0.102 m 0.879 -1.016 c 0.031 -0.266 -0.031 -0.359 -0.289 -0.461 c -0.457 -0.172 -0.563 -0.156 -0.563 0.086 c 0 0.262 0.496 0.813 0.68 0.754 c 0.07 -0.027 0.148 -0.195 0.172 -0.379 m -2.461 -0.305 c -0.066 -0.121 -0.527 -0.613 -1.027 -1.094 c -1.227 -1.18 -1.316 -0.836 -0.102 0.391 c 0.875 0.879 1.398 1.207 1.129 0.703 m 1.234 -0.293 c 0 -0.07 -0.059 -0.094 -0.125 -0.051 c -0.07 0.043 -0.125 0.133 -0.125 0.203 c 0 0.07 0.055 0.09 0.125 0.047 c 0.066 -0.043 0.125 -0.133 0.125 -0.199 m -5.66 -2.191 c 0.172 -0.375 0.109 -0.566 -0.152 -0.465 c -0.105 0.039 -0.168 0.211 -0.152 0.43 c 0.031 0.449 0.105 0.457 0.305 0.035 m 1.926 -2.828 c -0.215 -0.215 -0.301 -0.027 -0.199 0.43 l 0.094 0.414 l 0.121 -0.355 c 0.082 -0.238 0.074 -0.395 -0.016 -0.488 m -6.926 -4.195 c 0.121 -0.129 0.242 -0.215 0.27 -0.191 c 0.074 0.059 -0.25 0.418 -0.375 0.418 c -0.063 0 -0.012 -0.102 0.109 -0.227" fill="#d4d4d4"/><path d="m 15.422 20.23 c -0.188 -0.363 -0.246 -0.391 -0.68 -0.332 c -0.258 0.035 -0.543 0.02 -0.629 -0.035 c -0.211 -0.129 -0.043 -0.375 0.258 -0.375 c 0.133 0 0.313 -0.113 0.398 -0.25 c 0.184 -0.297 0.438 -0.32 0.719 -0.063 c 0.297 0.266 2.367 0.359 2.461 0.113 c 0.098 -0.258 0.387 -0.211 0.477 0.074 c 0.047 0.148 0.273 0.305 0.578 0.395 c 0.391 0.117 0.488 0.203 0.461 0.402 c -0.047 0.301 -0.656 0.5 -0.996 0.32 c -0.156 -0.086 -0.316 -0.078 -0.492 0.016 c -0.152 0.082 -0.457 0.109 -0.719 0.063 c -0.695 -0.125 -1.055 -0.133 -1.355 -0.027 c -0.227 0.078 -0.313 0.027 -0.48 -0.301 m 2.805 -0.195 c 0.031 -0.027 -0.156 -0.047 -0.41 -0.047 c -0.281 0 -0.438 0.051 -0.391 0.125 c 0.066 0.109 0.652 0.051 0.801 -0.078 m 1.188 -0.602 c -0.051 -0.129 0 -0.297 0.129 -0.422 c 0.199 -0.195 0.207 -0.188 0.125 0.164 c -0.113 0.48 -0.156 0.523 -0.254 0.258 m -8.07 -1.41 c -0.527 -0.535 -0.992 -1.09 -1.035 -1.23 c -0.039 -0.141 -0.383 -0.523 -0.762 -0.852 c -0.379 -0.324 -0.688 -0.648 -0.688 -0.719 c 0 -0.07 0.152 0.055 0.34 0.277 c 0.188 0.219 0.582 0.508 0.875 0.641 c 0.352 0.152 0.535 0.316 0.535 0.465 c 0 0.348 0.285 0.508 0.766 0.43 c 0.313 -0.051 0.48 -0.016 0.602 0.129 c 0.23 0.281 0.609 0.25 0.957 -0.082 c 0.395 -0.371 0.379 -0.477 -0.137 -1.039 c -0.492 -0.539 -0.59 -1.16 -0.219 -1.438 c 0.188 -0.141 0.195 -0.141 0.063 0.008 c -0.289 0.324 -0.18 0.871 0.281 1.41 c 0.242 0.281 0.438 0.57 0.434 0.645 c 0 0.074 -0.141 0.289 -0.305 0.477 c -0.348 0.395 -0.863 0.453 -1.203 0.145 c -0.121 -0.109 -0.281 -0.164 -0.355 -0.117 c -0.195 0.121 -0.16 0.316 0.055 0.316 c 0.102 0 0.258 0.113 0.344 0.25 c 0.102 0.164 0.289 0.25 0.539 0.25 c 0.207 0 0.449 0.066 0.531 0.148 c 0.082 0.086 0.434 0.156 0.781 0.164 c 0.395 0.012 0.676 0.082 0.746 0.191 c 0.18 0.293 0.012 0.375 -0.73 0.34 c -0.391 -0.016 -0.879 0.012 -1.086 0.066 c -0.348 0.09 -0.441 0.031 -1.328 -0.875 m 7.141 -0.52 c 0 -0.07 0.059 -0.16 0.125 -0.203 c 0.07 -0.043 0.125 -0.02 0.125 0.047 c 0 0.07 -0.055 0.16 -0.125 0.203 c -0.066 0.043 -0.125 0.023 -0.125 -0.047 m -10.07 -3.148 c -0.047 -0.074 -0.055 -0.16 -0.023 -0.191 c 0.035 -0.031 0.094 0.027 0.133 0.133 c 0.086 0.219 0.016 0.258 -0.109 0.059 m 4.766 -0.18 c 0.172 -0.172 0.348 -0.313 0.391 -0.313 c 0.043 0 -0.051 0.141 -0.215 0.313 c -0.16 0.172 -0.336 0.313 -0.391 0.313 c -0.055 0 0.043 -0.141 0.215 -0.313 m 0.867 0.066 c -0.043 -0.07 0.004 -0.094 0.102 -0.055 c 0.277 0.105 0.387 -0.184 0.371 -1.01 l -0.012 -0.754 l 0.113 0.676 c 0.09 0.543 0.074 0.734 -0.078 0.969 c -0.203 0.313 -0.375 0.371 -0.496 0.172 m -5.805 -0.449 c 0.004 -0.148 0.035 -0.176 0.074 -0.078 c 0.035 0.09 0.031 0.199 -0.008 0.242 c -0.043 0.039 -0.074 -0.035 -0.066 -0.164 m -0.191 -0.746 c -0.133 -0.098 -0.184 -0.184 -0.109 -0.184 c 0.074 0 0.203 0.086 0.289 0.188 c 0.195 0.234 0.133 0.234 -0.18 -0.004 m 7.18 -0.746 c -0.188 -0.227 -0.578 -0.246 -0.668 -0.031 c -0.035 0.094 -0.066 0.07 -0.07 -0.063 c -0.012 -0.277 0.391 -0.285 0.805 -0.016 c 0.168 0.109 0.391 0.168 0.496 0.129 c 0.406 -0.156 0.188 -0.629 -0.727 -1.539 c -0.504 -0.504 -0.879 -0.918 -0.832 -0.918 c 0.191 0 1.871 1.871 1.871 2.09 c 0 0.488 -0.57 0.719 -0.875 0.348 m -3.355 -3.691 c -0.391 -0.32 -0.215 -0.316 0.199 0.004 c 0.172 0.141 0.266 0.25 0.207 0.246 c -0.063 0 -0.246 -0.113 -0.406 -0.25 m -3.734 -0.406 c 0.152 -0.16 0.301 -0.273 0.328 -0.254 c 0.074 0.055 -0.379 0.539 -0.504 0.539 c -0.055 0 0.023 -0.129 0.176 -0.285 m 2.84 -0.027 c -0.09 -0.105 -0.137 -0.215 -0.105 -0.246 c 0.027 -0.031 0.121 0.055 0.207 0.191 c 0.18 0.289 0.121 0.32 -0.102 0.055" fill="#a6a6a6"/><path d="m 17.426 20.11 c -0.047 -0.074 0.109 -0.125 0.391 -0.125 c 0.52 0 0.527 0.051 0.023 0.172 c -0.184 0.043 -0.371 0.023 -0.414 -0.047 m -5.445 -2.949 c -0.121 -0.145 -0.289 -0.18 -0.602 -0.129 c -0.422 0.066 -0.766 -0.074 -0.766 -0.32 c 0 -0.066 0.09 -0.027 0.203 0.082 c 0.129 0.133 0.289 0.172 0.469 0.109 c 0.27 -0.09 0.461 -0.094 0.863 -0.02 c 0.137 0.023 0.309 -0.094 0.434 -0.301 c 0.203 -0.328 0.199 -0.352 -0.066 -0.598 c -0.398 -0.371 -0.395 -1.305 0.004 -1.512 c 0.156 -0.078 0.465 -0.313 0.688 -0.523 c 0.391 -0.371 0.41 -0.375 0.648 -0.16 c 0.141 0.129 0.336 0.191 0.453 0.148 c 0.125 -0.047 0.184 -0.023 0.152 0.07 c -0.078 0.234 -0.301 0.254 -0.512 0.047 c -0.215 -0.219 -0.586 -0.262 -0.586 -0.07 c 0 0.066 -0.223 0.266 -0.5 0.438 c -0.672 0.426 -0.691 0.93 -0.063 1.617 c 0.516 0.563 0.531 0.668 0.137 1.039 c -0.348 0.332 -0.727 0.363 -0.957 0.082 m -1.992 -1.051 c -0.113 -0.07 -0.129 -0.121 -0.039 -0.121 c 0.082 -0.004 0.184 0.055 0.227 0.121 c 0.098 0.156 0.055 0.156 -0.188 0 m -0.695 -0.531 l -0.367 -0.406 l 0.406 0.367 c 0.379 0.344 0.465 0.445 0.367 0.445 c -0.02 0 -0.203 -0.184 -0.406 -0.406 m -0.414 -0.645 c -0.008 -0.133 -0.109 -0.359 -0.23 -0.5 c -0.203 -0.25 -0.203 -0.25 0.078 0.004 c 0.172 0.16 0.262 0.359 0.227 0.5 c -0.059 0.227 -0.059 0.227 -0.074 -0.004 m -0.492 -1.266 c -0.012 -0.281 -0.066 -0.563 -0.117 -0.629 c -0.051 -0.066 -0.02 -0.055 0.07 0.02 c 0.105 0.086 0.148 0.32 0.117 0.629 l -0.051 0.484 m 5.992 -1.438 c 0 -0.309 0.023 -0.434 0.055 -0.281 c 0.027 0.156 0.027 0.41 0 0.563 c -0.031 0.156 -0.055 0.027 -0.055 -0.281 m 0.719 -0.629 c -0.242 -0.133 -0.352 -0.246 -0.25 -0.246 c 0.105 0 0.316 0.09 0.473 0.199 c 0.238 0.168 0.316 0.172 0.488 0.031 c 0.172 -0.141 0.191 -0.137 0.141 0.02 c -0.09 0.273 -0.359 0.273 -0.852 -0.004 m -0.133 -1.34 l -0.809 -0.844 l 0.844 0.809 c 0.785 0.754 0.902 0.879 0.809 0.879 c -0.02 0 -0.398 -0.379 -0.844 -0.844 m -1.813 -1.313 l -0.496 -0.531 l 0.5 0.457 c 0.277 0.254 0.613 0.484 0.75 0.52 c 0.246 0.059 0.246 0.059 -0.004 0.074 c -0.152 0.008 -0.457 -0.203 -0.75 -0.52 m -0.832 -0.555 c 0.09 -0.035 0.199 -0.031 0.238 0.012 c 0.043 0.043 -0.031 0.07 -0.164 0.066 c -0.145 -0.008 -0.172 -0.035 -0.074 -0.078 m -1.277 -0.52 c -0.035 -0.059 0.074 -0.082 0.242 -0.047 c 0.172 0.031 0.309 0.078 0.309 0.105 c 0 0.098 -0.488 0.047 -0.551 -0.059" fill="#8e8e8e"/><path d="m 11.04 16.887 c 0.043 -0.07 0.27 -0.191 0.504 -0.27 c 0.488 -0.16 0.605 -0.461 0.496 -1.277 c -0.055 -0.387 -0.027 -0.59 0.094 -0.688 c 0.141 -0.117 0.16 -0.035 0.129 0.457 c -0.035 0.496 0.004 0.645 0.246 0.867 c 0.273 0.258 0.277 0.281 0.078 0.609 c -0.129 0.207 -0.297 0.324 -0.434 0.301 c -0.414 -0.074 -0.598 -0.07 -0.898 0.031 c -0.195 0.063 -0.27 0.055 -0.215 -0.031 m -2.277 -2.414 c -0.16 -0.195 -0.246 -0.355 -0.188 -0.355 c 0.117 0.004 0.59 0.617 0.52 0.676 c -0.023 0.023 -0.172 -0.121 -0.332 -0.32 m 3.727 -0.027 c 0 -0.023 0.285 -0.281 0.633 -0.574 c 0.586 -0.496 0.648 -0.52 0.855 -0.332 c 0.297 0.27 0.371 0.16 0.316 -0.465 c -0.039 -0.461 -0.031 -0.477 0.063 -0.148 c 0.25 0.895 0.008 1.328 -0.492 0.875 c -0.234 -0.211 -0.262 -0.203 -0.746 0.234 c -0.461 0.418 -0.629 0.523 -0.629 0.41 m -4.04 -1.266 c -0.043 -0.109 -0.203 -0.246 -0.359 -0.309 c -0.184 -0.074 -0.215 -0.117 -0.086 -0.125 c 0.219 -0.008 0.699 0.453 0.586 0.563 c -0.035 0.035 -0.098 -0.023 -0.141 -0.129 m 6.855 -1.148 c -0.219 -0.176 -0.223 -0.191 -0.02 -0.121 c 0.125 0.043 0.313 0.078 0.414 0.078 c 0.102 0 0.148 0.059 0.105 0.125 c -0.102 0.172 -0.203 0.152 -0.5 -0.082 m -2.23 -2.484 c -0.332 -0.305 -0.563 -0.559 -0.512 -0.559 c 0.051 0 0.363 0.254 0.695 0.563 c 0.328 0.313 0.559 0.563 0.512 0.559 c -0.047 -0.004 -0.359 -0.254 -0.695 -0.563 m -2.02 -1.055 c -0.043 -0.07 0.008 -0.094 0.121 -0.051 c 0.215 0.082 0.254 0.172 0.074 0.172 c -0.063 0 -0.152 -0.055 -0.195 -0.121" fill="#696969"/><path d="m 10.645 16.57 c -0.07 -0.16 -0.32 -0.379 -0.551 -0.488 c -0.535 -0.258 -1.152 -0.898 -1.066 -1.113 c 0.047 -0.117 0.07 -0.105 0.078 0.039 c 0.012 0.285 0.715 0.855 1.051 0.859 c 0.367 0 0.566 0.145 0.777 0.555 c 0.223 0.426 0.223 0.441 0.012 0.441 c -0.09 0 -0.227 -0.129 -0.301 -0.293 m -1.797 -2.176 c -0.156 -0.195 -0.152 -0.203 0.047 -0.047 c 0.121 0.094 0.219 0.195 0.219 0.219 c 0 0.105 -0.102 0.039 -0.266 -0.172 m -0.328 -0.656 c 0 -0.238 0.023 -0.336 0.055 -0.219 c 0.031 0.121 0.031 0.32 0 0.438 c -0.031 0.121 -0.055 0.023 -0.055 -0.219 m 4.719 -0.063 c 0.164 -0.172 0.324 -0.313 0.355 -0.313 c 0.035 0 -0.066 0.141 -0.23 0.313 c -0.16 0.172 -0.32 0.313 -0.355 0.313 c -0.035 0 0.07 -0.141 0.23 -0.313 m -4.891 -0.781 c -0.156 -0.195 -0.152 -0.203 0.047 -0.047 c 0.121 0.094 0.219 0.195 0.219 0.219 c 0 0.105 -0.102 0.039 -0.266 -0.172 m 5.902 -0.488 c -0.016 -0.371 0.313 -0.668 0.715 -0.656 c 0.328 0.012 0.324 0.016 -0.059 0.129 c -0.262 0.074 -0.438 0.23 -0.523 0.457 c -0.109 0.301 -0.125 0.309 -0.133 0.07 m 1.488 -0.578 c 0 -0.18 -1.465 -1.648 -1.75 -1.754 c -0.16 -0.055 -0.16 -0.066 -0.004 -0.074 c 0.188 -0.012 2 1.707 2 1.895 c 0 0.051 -0.055 0.094 -0.125 0.094 c -0.066 0 -0.125 -0.07 -0.125 -0.16 m -2.629 -2.184 l -0.434 -0.469 l 0.469 0.434 c 0.258 0.234 0.469 0.445 0.469 0.469 c 0 0.094 -0.105 0.004 -0.504 -0.434 m -1.207 -0.762 c -0.125 -0.129 -0.309 -0.266 -0.414 -0.305 c -0.121 -0.047 -0.09 -0.07 0.094 -0.078 c 0.156 -0.008 0.281 0.043 0.281 0.109 c 0 0.066 0.156 0.207 0.344 0.309 c 0.238 0.129 0.277 0.188 0.133 0.191 c -0.121 0.004 -0.316 -0.098 -0.438 -0.227 m -3.832 -0.414 c 0.148 -0.07 0.328 -0.25 0.398 -0.398 c 0.102 -0.207 0.129 -0.223 0.137 -0.059 c 0.012 0.27 -0.324 0.605 -0.594 0.594 c -0.164 -0.004 -0.148 -0.035 0.059 -0.137 m 2.789 -0.109 c -0.074 -0.145 -0.113 -0.324 -0.086 -0.406 c 0.023 -0.078 0.109 0.039 0.188 0.258 c 0.16 0.457 0.105 0.531 -0.102 0.148" fill="#5b5b5b"/><path d="m 11.02 16.582 c -0.227 -0.293 -0.289 -0.625 -0.145 -0.797 c 0.215 -0.258 0.465 -0.207 0.508 0.109 c 0.023 0.156 0.125 0.281 0.227 0.281 c 0.227 0 0.328 -0.535 0.137 -0.727 c -0.227 -0.227 -0.156 -0.434 0.324 -0.91 c 0.414 -0.414 0.438 -0.473 0.25 -0.613 c -0.281 -0.207 -0.262 -0.398 0.059 -0.57 c 0.219 -0.117 0.289 -0.105 0.383 0.059 c 0.152 0.273 0.438 0.254 0.594 -0.043 c 0.07 -0.133 0.238 -0.273 0.371 -0.316 c 0.133 -0.043 0.297 -0.23 0.367 -0.414 c 0.105 -0.293 0.125 -0.238 0.133 0.398 c 0.008 0.707 0 0.73 -0.219 0.531 c -0.313 -0.281 -0.359 -0.27 -0.957 0.262 c -0.285 0.258 -0.652 0.574 -0.809 0.699 c -0.25 0.199 -0.277 0.309 -0.211 0.793 c 0.109 0.805 -0.004 1.125 -0.449 1.281 c -0.469 0.164 -0.418 0.164 -0.563 -0.023 m -0.887 -0.715 c -0.555 -0.133 -1.023 -0.59 -1.023 -1 c 0 -0.184 -0.109 -0.438 -0.25 -0.563 c -0.137 -0.125 -0.25 -0.313 -0.25 -0.422 c 0 -0.133 0.07 -0.098 0.215 0.113 c 0.117 0.172 0.293 0.371 0.395 0.449 c 0.102 0.074 0.152 0.246 0.117 0.383 c -0.055 0.207 -0.016 0.238 0.23 0.191 c 0.211 -0.039 0.293 0 0.293 0.148 c 0 0.109 -0.055 0.199 -0.125 0.199 c -0.066 0 -0.125 0.063 -0.125 0.141 c 0 0.082 0.121 0.109 0.297 0.063 c 0.203 -0.051 0.363 0.004 0.52 0.176 c 0.121 0.137 0.199 0.242 0.172 0.234 c -0.027 -0.008 -0.234 -0.059 -0.465 -0.109 m 0.422 -0.617 c -0.039 -0.066 -0.02 -0.152 0.047 -0.191 c 0.063 -0.039 0.148 -0.02 0.191 0.047 c 0.039 0.063 0.02 0.148 -0.047 0.191 c -0.066 0.039 -0.152 0.02 -0.191 -0.047 m -0.551 -0.504 c 0.055 -0.16 0.227 -0.191 0.242 -0.043 c 0.004 0.051 -0.059 0.113 -0.141 0.141 c -0.082 0.027 -0.129 -0.016 -0.102 -0.098 m 1.051 0 c -0.039 -0.063 -0.016 -0.148 0.055 -0.195 c 0.07 -0.043 0.125 0.012 0.125 0.117 c 0 0.219 -0.074 0.254 -0.18 0.078 m -1.508 -0.512 c -0.121 -0.195 0.043 -0.316 0.203 -0.156 c 0.09 0.09 0.09 0.16 0.004 0.211 c -0.066 0.043 -0.164 0.02 -0.207 -0.055 m 1.01 0.016 c -0.039 -0.066 -0.02 -0.152 0.047 -0.191 c 0.063 -0.039 0.148 -0.02 0.191 0.043 c 0.039 0.066 0.02 0.152 -0.047 0.191 c -0.066 0.043 -0.152 0.023 -0.191 -0.043 m 1 0 c -0.039 -0.066 -0.02 -0.152 0.047 -0.191 c 0.063 -0.039 0.148 -0.02 0.191 0.043 c 0.039 0.066 0.02 0.152 -0.047 0.191 c -0.066 0.043 -0.152 0.023 -0.191 -0.043 m -2.57 -0.586 c 0 -0.219 0.27 -0.18 0.348 0.051 c 0.027 0.082 -0.039 0.148 -0.148 0.148 c -0.109 0 -0.199 -0.09 -0.199 -0.195 m 1.07 0.082 c -0.039 -0.066 -0.02 -0.152 0.047 -0.191 c 0.063 -0.039 0.148 -0.02 0.191 0.043 c 0.039 0.066 0.02 0.152 -0.047 0.191 c -0.066 0.043 -0.152 0.023 -0.191 -0.043 m 1 0 c -0.039 -0.066 -0.02 -0.152 0.047 -0.191 c 0.063 -0.039 0.148 -0.02 0.191 0.043 c 0.039 0.066 0.02 0.152 -0.047 0.191 c -0.066 0.043 -0.152 0.023 -0.191 -0.043 m -2.445 -0.418 c 0 -0.352 -0.215 -0.594 -0.523 -0.594 c -0.125 0 -0.227 -0.055 -0.227 -0.125 c 0 -0.23 0.453 -0.129 0.73 0.164 c 0.289 0.309 0.352 0.648 0.145 0.773 c -0.07 0.043 -0.125 -0.051 -0.125 -0.219 m 0.945 -0.082 c -0.039 -0.066 -0.02 -0.152 0.047 -0.191 c 0.063 -0.039 0.148 -0.02 0.191 0.043 c 0.039 0.066 0.02 0.152 -0.047 0.191 c -0.066 0.043 -0.152 0.023 -0.191 -0.043 m 1 0 c -0.039 -0.066 -0.02 -0.152 0.047 -0.191 c 0.063 -0.039 0.148 -0.02 0.191 0.043 c 0.039 0.066 0.02 0.152 -0.047 0.191 c -0.066 0.043 -0.152 0.023 -0.191 -0.043 m 0.988 -0.02 c -0.047 -0.074 -0.051 -0.164 -0.016 -0.199 c 0.09 -0.09 0.332 0.066 0.332 0.215 c 0 0.16 -0.215 0.148 -0.316 -0.016 m -2.5 -0.496 c -0.117 -0.195 0.047 -0.316 0.207 -0.156 c 0.09 0.09 0.09 0.16 0.004 0.211 c -0.07 0.043 -0.164 0.02 -0.211 -0.055 m 1.012 0.016 c -0.039 -0.066 -0.02 -0.152 0.047 -0.191 c 0.063 -0.039 0.148 -0.02 0.191 0.043 c 0.039 0.066 0.02 0.152 -0.047 0.191 c -0.066 0.043 -0.152 0.023 -0.191 -0.043 m 0.988 -0.02 c -0.047 -0.074 -0.051 -0.164 -0.016 -0.199 c 0.09 -0.09 0.332 0.066 0.332 0.215 c 0 0.16 -0.215 0.148 -0.316 -0.016 m 2 0.004 c -0.117 -0.195 0.043 -0.316 0.207 -0.156 c 0.09 0.09 0.09 0.16 0.004 0.211 c -0.07 0.043 -0.164 0.02 -0.211 -0.055 m -4.559 -0.57 c 0 -0.105 0.066 -0.172 0.148 -0.148 c 0.234 0.078 0.27 0.348 0.051 0.348 c -0.109 0 -0.199 -0.09 -0.199 -0.199 m 1.07 0.086 c -0.039 -0.066 -0.02 -0.152 0.047 -0.191 c 0.063 -0.039 0.148 -0.02 0.191 0.043 c 0.039 0.066 0.02 0.152 -0.047 0.191 c -0.066 0.043 -0.152 0.023 -0.191 -0.043 m 0.988 -0.02 c -0.047 -0.074 -0.051 -0.164 -0.016 -0.199 c 0.09 -0.09 0.332 0.066 0.332 0.215 c 0 0.16 -0.215 0.148 -0.316 -0.016 m 2 0 c -0.047 -0.074 -0.051 -0.164 -0.016 -0.199 c 0.09 -0.09 0.332 0.066 0.332 0.215 c 0 0.16 -0.215 0.148 -0.316 -0.016 m 1.59 -0.375 c -0.176 -0.281 -0.031 -0.398 0.242 -0.195 c 0.156 0.113 0.168 0.176 0.051 0.285 c -0.109 0.105 -0.184 0.082 -0.293 -0.09 m 1.039 -0.059 l -0.375 -0.172 l 0.363 -0.004 c 0.355 -0.008 0.359 -0.012 0.141 -0.254 c -0.156 -0.172 -0.316 -0.227 -0.52 -0.176 c -0.215 0.055 -0.297 0.023 -0.297 -0.117 c 0 -0.102 0.07 -0.211 0.152 -0.238 c 0.117 -0.039 0.117 -0.07 0 -0.145 c -0.082 -0.051 -0.152 -0.031 -0.152 0.039 c 0 0.074 -0.117 0.133 -0.262 0.133 c -0.211 0 -0.254 -0.059 -0.211 -0.293 c 0.047 -0.242 0.012 -0.285 -0.184 -0.234 c -0.16 0.043 -0.359 -0.074 -0.621 -0.359 c -0.211 -0.234 -0.531 -0.523 -0.711 -0.641 c -0.207 -0.141 -0.254 -0.219 -0.129 -0.219 c 0.105 -0.004 0.41 0.223 0.68 0.496 c 0.32 0.328 0.602 0.5 0.813 0.5 c 0.227 0 0.543 0.227 1.098 0.785 c 0.977 0.984 1.047 1.281 0.215 0.898 m -7.313 -0.121 c 0 -0.129 0.082 -0.188 0.219 -0.164 c 0.266 0.051 0.246 0.273 -0.023 0.332 c -0.113 0.023 -0.195 -0.047 -0.195 -0.168 m 1.195 0.074 c -0.039 -0.066 -0.02 -0.152 0.047 -0.191 c 0.063 -0.039 0.148 -0.02 0.191 0.047 c 0.039 0.063 0.02 0.148 -0.047 0.191 c -0.066 0.039 -0.152 0.02 -0.191 -0.047 m 0.988 -0.02 c -0.047 -0.074 -0.051 -0.164 -0.016 -0.199 c 0.09 -0.09 0.332 0.066 0.332 0.215 c 0 0.16 -0.215 0.148 -0.316 -0.016 m 2 0 c -0.047 -0.074 -0.051 -0.164 -0.016 -0.199 c 0.09 -0.09 0.332 0.066 0.332 0.215 c 0 0.16 -0.215 0.148 -0.316 -0.016 m 0.773 -0.219 c -0.27 -0.297 -0.262 -0.387 0.066 -0.734 l 0.273 -0.289 l 0.703 0.672 l -0.27 0.289 c -0.328 0.352 -0.5 0.363 -0.773 0.063 m -4.332 -0.336 c 0 -0.113 0.063 -0.188 0.137 -0.164 c 0.074 0.027 0.133 0.102 0.133 0.164 c 0 0.066 -0.059 0.141 -0.133 0.164 c -0.074 0.023 -0.137 -0.047 -0.137 -0.164 m 1.086 0.109 c -0.098 -0.102 0.016 -0.297 0.172 -0.297 c 0.066 0 0.117 0.086 0.117 0.188 c 0 0.195 -0.148 0.25 -0.289 0.109 m 1.973 -0.055 c -0.047 -0.074 -0.051 -0.164 -0.016 -0.199 c 0.09 -0.09 0.332 0.066 0.332 0.215 c 0 0.16 -0.215 0.148 -0.316 -0.016 m -3.684 -0.555 c 0 -0.129 0.082 -0.188 0.219 -0.164 c 0.266 0.051 0.246 0.273 -0.023 0.332 c -0.113 0.023 -0.195 -0.047 -0.195 -0.168 m 1.195 0.074 c -0.039 -0.066 -0.02 -0.152 0.047 -0.191 c 0.063 -0.039 0.148 -0.02 0.191 0.047 c 0.039 0.063 0.02 0.148 -0.047 0.191 c -0.066 0.039 -0.152 0.02 -0.191 -0.047 m 0.93 -0.063 c 0 -0.109 0.09 -0.199 0.199 -0.199 c 0.219 0 0.184 0.27 -0.051 0.348 c -0.082 0.027 -0.148 -0.039 -0.148 -0.148 m 1.059 0.043 c -0.047 -0.074 -0.051 -0.164 -0.016 -0.199 c 0.09 -0.09 0.332 0.066 0.332 0.215 c 0 0.16 -0.215 0.148 -0.316 -0.016 m 1.012 0.02 c -0.039 -0.066 -0.02 -0.152 0.047 -0.191 c 0.063 -0.039 0.148 -0.02 0.191 0.047 c 0.039 0.063 0.02 0.148 -0.047 0.191 c -0.066 0.039 -0.152 0.02 -0.191 -0.047 m -3.57 -0.574 c 0 -0.113 0.063 -0.188 0.137 -0.164 c 0.074 0.027 0.133 0.102 0.133 0.164 c 0 0.066 -0.059 0.141 -0.133 0.164 c -0.074 0.027 -0.137 -0.047 -0.137 -0.164 m 1.07 0.074 c -0.039 -0.066 -0.02 -0.152 0.047 -0.191 c 0.063 -0.039 0.148 -0.02 0.191 0.047 c 0.039 0.063 0.02 0.148 -0.047 0.191 c -0.066 0.039 -0.152 0.02 -0.191 -0.047 m 0.953 -0.02 c 0.027 -0.074 0.102 -0.133 0.164 -0.133 c 0.066 0 0.141 0.059 0.164 0.133 c 0.023 0.074 -0.047 0.133 -0.164 0.133 c -0.113 0 -0.188 -0.059 -0.164 -0.133 m 1.047 0.02 c -0.039 -0.066 -0.02 -0.152 0.047 -0.191 c 0.063 -0.039 0.148 -0.02 0.191 0.047 c 0.039 0.063 0.02 0.148 -0.047 0.191 c -0.066 0.039 -0.152 0.02 -0.191 -0.047 m 0.988 -0.016 c -0.117 -0.191 0.043 -0.316 0.207 -0.156 c 0.09 0.09 0.09 0.16 0.004 0.211 c -0.07 0.043 -0.164 0.02 -0.211 -0.055 m -4.684 -0.621 c 0 -0.27 0.094 -0.305 0.359 -0.137 c 0.203 0.129 0.082 0.387 -0.18 0.387 c -0.098 0 -0.18 -0.109 -0.18 -0.25 m 1.195 0.137 c -0.039 -0.066 -0.02 -0.152 0.047 -0.191 c 0.063 -0.039 0.148 -0.02 0.191 0.047 c 0.039 0.063 0.02 0.148 -0.047 0.191 c -0.066 0.039 -0.152 0.02 -0.191 -0.047 m 1 0 c -0.039 -0.066 -0.02 -0.152 0.047 -0.191 c 0.063 -0.039 0.148 -0.02 0.191 0.047 c 0.039 0.063 0.02 0.148 -0.047 0.191 c -0.066 0.039 -0.152 0.02 -0.191 -0.047 m 1 0.008 c -0.043 -0.07 -0.016 -0.164 0.059 -0.211 c 0.191 -0.117 0.316 0.047 0.156 0.207 c -0.09 0.09 -0.16 0.09 -0.215 0.004 m 1.01 0.023 c -0.141 -0.145 -0.09 -0.293 0.105 -0.293 c 0.105 0 0.188 0.086 0.188 0.188 c 0 0.195 -0.148 0.25 -0.293 0.105 m -3.582 -0.52 c 0 -0.164 0.742 -0.824 0.828 -0.738 c 0.043 0.043 -0.094 0.25 -0.305 0.461 c -0.387 0.387 -0.523 0.461 -0.523 0.277 m 1.07 -0.012 c -0.039 -0.066 -0.02 -0.152 0.043 -0.191 c 0.066 -0.039 0.152 -0.02 0.191 0.047 c 0.043 0.063 0.023 0.148 -0.043 0.191 c -0.066 0.039 -0.152 0.02 -0.191 -0.047 m 1.012 0.027 c -0.141 -0.141 -0.086 -0.289 0.105 -0.289 c 0.105 0 0.188 0.055 0.188 0.117 c 0 0.16 -0.195 0.273 -0.293 0.172 m 0.945 -0.195 c 0.043 -0.234 0 -0.285 -0.254 -0.281 c -0.172 0 -0.332 -0.059 -0.359 -0.133 c -0.074 -0.215 0.746 -0.051 0.984 0.195 c 0.152 0.164 0.172 0.258 0.066 0.359 c -0.246 0.25 -0.496 0.168 -0.438 -0.141 m -1.469 -0.352 c -0.047 -0.074 -0.055 -0.164 -0.016 -0.199 c 0.09 -0.09 0.332 0.066 0.332 0.215 c 0 0.16 -0.215 0.148 -0.316 -0.016 m -0.605 -0.563 c -0.113 -0.293 -0.105 -0.305 0.25 -0.305 c 0.246 0 0.305 0.051 0.25 0.199 c -0.043 0.109 -0.078 0.223 -0.078 0.25 c 0 0.148 -0.359 0.023 -0.422 -0.145" fill="#282828"/><path d="m 11.449 16.16 c -0.047 -0.047 -0.086 -0.188 -0.086 -0.313 c 0 -0.281 -0.285 -0.301 -0.504 -0.039 c -0.141 0.172 -0.188 0.164 -0.422 -0.059 c -0.176 -0.164 -0.363 -0.223 -0.547 -0.176 c -0.164 0.043 -0.277 0.016 -0.277 -0.066 c 0 -0.078 0.059 -0.141 0.125 -0.141 c 0.07 0 0.125 -0.09 0.125 -0.203 c 0 -0.145 -0.082 -0.184 -0.293 -0.145 c -0.246 0.047 -0.285 0.016 -0.23 -0.191 c 0.035 -0.141 -0.016 -0.309 -0.121 -0.387 c -0.324 -0.242 -0.629 -0.793 -0.484 -0.883 c 0.352 -0.219 -0.172 -1.066 -0.66 -1.066 c -0.32 0 -0.277 -0.578 0.055 -0.664 c 0.281 -0.074 0.215 -0.336 -0.086 -0.336 c -0.293 0 -0.223 -0.586 0.086 -0.664 c 0.281 -0.074 0.215 -0.336 -0.086 -0.336 c -0.285 0 -0.223 -0.586 0.07 -0.66 c 0.141 -0.039 0.25 -0.125 0.25 -0.195 c 0 -0.07 -0.109 -0.164 -0.25 -0.207 c -0.336 -0.105 -0.359 -0.813 -0.023 -0.813 c 0.289 0 0.523 -0.238 0.523 -0.523 c 0 -0.336 0.707 -0.312 0.813 0.023 c 0.102 0.32 0.398 0.32 0.5 0 c 0.055 -0.172 0.191 -0.25 0.426 -0.25 c 0.293 0 0.359 0.07 0.461 0.469 c 0.098 0.391 0.168 0.469 0.438 0.465 c 0.266 0 0.309 0.047 0.266 0.281 c -0.059 0.313 0.191 0.391 0.441 0.141 c 0.18 -0.18 0.672 0.117 1.238 0.742 c 0.273 0.301 0.469 0.418 0.637 0.375 c 0.199 -0.051 0.23 -0.012 0.184 0.23 c -0.043 0.234 0 0.297 0.199 0.297 c 0.141 0 0.277 -0.066 0.305 -0.148 c 0.039 -0.117 0.07 -0.117 0.141 0 c 0.051 0.082 0.035 0.148 -0.039 0.148 c -0.07 0 -0.133 0.09 -0.133 0.199 c 0 0.152 0.078 0.184 0.297 0.129 c 0.199 -0.051 0.363 0 0.504 0.156 c 0.199 0.223 0.184 0.234 -0.309 0.316 c -0.301 0.047 -0.586 0.027 -0.672 -0.047 c -0.211 -0.172 -0.352 -0.008 -0.176 0.207 c 0.207 0.25 -0.074 1.125 -0.398 1.227 c -0.133 0.043 -0.305 0.188 -0.375 0.32 c -0.156 0.293 -0.441 0.313 -0.594 0.039 c -0.094 -0.164 -0.164 -0.172 -0.383 -0.059 c -0.324 0.176 -0.344 0.367 -0.059 0.574 c 0.188 0.137 0.164 0.199 -0.25 0.613 c -0.48 0.477 -0.551 0.684 -0.324 0.91 c 0.074 0.074 0.117 0.266 0.094 0.422 c -0.043 0.293 -0.242 0.438 -0.395 0.285 m -0.652 -1.055 c -0.043 -0.063 -0.129 -0.082 -0.191 -0.043 c -0.066 0.039 -0.086 0.125 -0.047 0.191 c 0.039 0.066 0.125 0.086 0.191 0.043 c 0.066 -0.039 0.086 -0.125 0.047 -0.191 m -0.547 -0.398 c -0.016 -0.148 -0.188 -0.121 -0.242 0.043 c -0.027 0.082 0.02 0.125 0.102 0.098 c 0.082 -0.027 0.145 -0.09 0.141 -0.141 m 0.988 -0.035 c 0 -0.105 -0.055 -0.16 -0.125 -0.117 c -0.07 0.043 -0.094 0.133 -0.055 0.195 c 0.105 0.176 0.18 0.141 0.18 -0.078 m -1.484 -0.59 c -0.16 -0.16 -0.324 -0.039 -0.207 0.156 c 0.047 0.074 0.141 0.098 0.211 0.055 c 0.086 -0.051 0.086 -0.121 -0.004 -0.211 m 1.043 0.023 c -0.043 -0.063 -0.129 -0.082 -0.191 -0.043 c -0.066 0.039 -0.086 0.125 -0.047 0.191 c 0.039 0.066 0.125 0.086 0.191 0.043 c 0.066 -0.039 0.086 -0.125 0.047 -0.191 m 1 0 c -0.043 -0.063 -0.129 -0.082 -0.191 -0.043 c -0.066 0.039 -0.086 0.125 -0.047 0.191 c 0.039 0.066 0.125 0.086 0.191 0.043 c 0.066 -0.039 0.086 -0.125 0.047 -0.191 m -2.461 -0.387 c -0.078 -0.23 -0.348 -0.27 -0.348 -0.051 c 0 0.109 0.09 0.199 0.199 0.199 c 0.109 0 0.176 -0.066 0.148 -0.148 m 0.961 -0.113 c -0.043 -0.063 -0.129 -0.082 -0.191 -0.043 c -0.066 0.039 -0.086 0.125 -0.047 0.191 c 0.039 0.066 0.125 0.086 0.191 0.043 c 0.066 -0.039 0.086 -0.125 0.047 -0.191 m 1 0 c -0.043 -0.063 -0.129 -0.082 -0.191 -0.043 c -0.066 0.039 -0.086 0.125 -0.047 0.191 c 0.039 0.066 0.125 0.086 0.191 0.043 c 0.066 -0.039 0.086 -0.125 0.047 -0.191 m -1.5 -0.5 c -0.043 -0.063 -0.129 -0.082 -0.191 -0.043 c -0.066 0.039 -0.086 0.125 -0.047 0.191 c 0.039 0.066 0.125 0.086 0.191 0.043 c 0.066 -0.039 0.086 -0.125 0.047 -0.191 m 1 0 c -0.043 -0.063 -0.129 -0.082 -0.191 -0.043 c -0.066 0.039 -0.086 0.125 -0.047 0.191 c 0.039 0.066 0.125 0.086 0.191 0.043 c 0.066 -0.039 0.086 -0.125 0.047 -0.191 m 1.066 0.145 c 0 -0.148 -0.242 -0.305 -0.332 -0.215 c -0.09 0.09 0.07 0.332 0.215 0.332 c 0.066 0 0.117 -0.051 0.117 -0.117 m -2.609 -0.668 c -0.16 -0.16 -0.324 -0.039 -0.207 0.156 c 0.047 0.074 0.141 0.098 0.211 0.055 c 0.086 -0.051 0.086 -0.121 -0.004 -0.211 m 1.043 0.023 c -0.043 -0.063 -0.129 -0.082 -0.191 -0.043 c -0.066 0.039 -0.086 0.125 -0.047 0.191 c 0.039 0.066 0.125 0.086 0.191 0.043 c 0.066 -0.039 0.086 -0.125 0.047 -0.191 m 1.066 0.145 c 0 -0.148 -0.242 -0.305 -0.332 -0.215 c -0.09 0.09 0.07 0.332 0.215 0.332 c 0.066 0 0.117 -0.051 0.117 -0.117 m 1.891 -0.168 c -0.16 -0.16 -0.324 -0.039 -0.207 0.156 c 0.047 0.074 0.141 0.098 0.211 0.055 c 0.086 -0.051 0.086 -0.121 -0.004 -0.211 m -4.418 -0.363 c -0.078 -0.23 -0.348 -0.27 -0.348 -0.051 c 0 0.109 0.09 0.199 0.199 0.199 c 0.109 0 0.176 -0.066 0.148 -0.148 m 0.961 -0.113 c -0.043 -0.063 -0.129 -0.082 -0.191 -0.043 c -0.066 0.039 -0.086 0.125 -0.047 0.191 c 0.039 0.066 0.125 0.086 0.191 0.043 c 0.066 -0.039 0.086 -0.125 0.047 -0.191 m 1.066 0.145 c 0 -0.148 -0.242 -0.305 -0.332 -0.215 c -0.09 0.09 0.07 0.332 0.215 0.332 c 0.066 0 0.117 -0.051 0.117 -0.117 m 2 0 c 0 -0.148 -0.242 -0.305 -0.332 -0.215 c -0.09 0.09 0.07 0.332 0.215 0.332 c 0.066 0 0.117 -0.051 0.117 -0.117 m -3.566 -0.645 c -0.043 -0.063 -0.129 -0.082 -0.191 -0.043 c -0.066 0.039 -0.086 0.125 -0.047 0.191 c 0.039 0.066 0.125 0.086 0.191 0.043 c 0.066 -0.039 0.086 -0.125 0.047 -0.191 m 1.066 0.145 c 0 -0.148 -0.242 -0.305 -0.332 -0.215 c -0.09 0.09 0.07 0.332 0.215 0.332 c 0.066 0 0.117 -0.051 0.117 -0.117 m 2 0 c 0 -0.148 -0.242 -0.305 -0.332 -0.215 c -0.09 0.09 0.07 0.332 0.215 0.332 c 0.066 0 0.117 -0.051 0.117 -0.117 m 1.23 -0.297 l 0.27 -0.289 l -0.352 -0.336 l -0.352 -0.34 l -0.273 0.293 c -0.328 0.348 -0.336 0.434 -0.066 0.734 c 0.273 0.301 0.445 0.285 0.773 -0.063 m -4.836 -0.273 c 0 -0.066 -0.059 -0.137 -0.133 -0.164 c -0.074 -0.023 -0.137 0.051 -0.137 0.164 c 0 0.113 0.063 0.188 0.137 0.164 c 0.074 -0.023 0.133 -0.098 0.133 -0.164 m 1.105 0 c 0 -0.102 -0.051 -0.188 -0.117 -0.188 c -0.156 0 -0.27 0.195 -0.168 0.297 c 0.141 0.141 0.285 0.086 0.285 -0.109 m 2 0.07 c 0 -0.148 -0.242 -0.305 -0.332 -0.215 c -0.09 0.09 0.07 0.332 0.215 0.332 c 0.066 0 0.117 -0.051 0.117 -0.117 m -2.566 -0.645 c -0.043 -0.063 -0.129 -0.082 -0.191 -0.043 c -0.066 0.039 -0.086 0.125 -0.047 0.191 c 0.039 0.066 0.125 0.086 0.191 0.043 c 0.066 -0.039 0.086 -0.125 0.047 -0.191 m 1.039 0.035 c 0.027 -0.082 -0.039 -0.148 -0.148 -0.148 c -0.109 0 -0.199 0.09 -0.199 0.199 c 0 0.219 0.27 0.18 0.348 -0.051 m 1.027 0.109 c 0 -0.148 -0.242 -0.305 -0.332 -0.215 c -0.09 0.09 0.07 0.332 0.215 0.332 c 0.066 0 0.117 -0.051 0.117 -0.117 m 0.934 -0.145 c -0.043 -0.063 -0.129 -0.082 -0.191 -0.043 c -0.066 0.039 -0.086 0.125 -0.047 0.191 c 0.039 0.066 0.125 0.086 0.191 0.043 c 0.066 -0.039 0.086 -0.125 0.047 -0.191 m -3.539 -0.426 c 0 -0.066 -0.059 -0.137 -0.133 -0.164 c -0.074 -0.023 -0.137 0.051 -0.137 0.164 c 0 0.113 0.063 0.188 0.137 0.164 c 0.074 -0.023 0.133 -0.098 0.133 -0.164 m 1.039 -0.074 c -0.043 -0.063 -0.129 -0.082 -0.191 -0.043 c -0.066 0.039 -0.086 0.125 -0.047 0.191 c 0.039 0.066 0.125 0.086 0.191 0.043 c 0.066 -0.039 0.086 -0.125 0.047 -0.191 m 1.043 0.129 c -0.023 -0.074 -0.098 -0.137 -0.164 -0.137 c -0.063 0 -0.137 0.063 -0.164 0.137 c -0.023 0.074 0.051 0.133 0.164 0.133 c 0.117 0 0.188 -0.059 0.164 -0.133 m 0.957 -0.129 c -0.043 -0.063 -0.129 -0.082 -0.191 -0.043 c -0.066 0.039 -0.086 0.125 -0.047 0.191 c 0.039 0.066 0.125 0.086 0.191 0.043 c 0.066 -0.039 0.086 -0.125 0.047 -0.191 m 0.957 -0.023 c -0.16 -0.16 -0.324 -0.039 -0.207 0.156 c 0.047 0.074 0.141 0.098 0.211 0.055 c 0.086 -0.051 0.086 -0.121 -0.004 -0.211 m -3.457 -0.477 c -0.043 -0.063 -0.129 -0.082 -0.191 -0.043 c -0.066 0.039 -0.086 0.125 -0.047 0.191 c 0.039 0.066 0.125 0.086 0.191 0.043 c 0.066 -0.039 0.086 -0.125 0.047 -0.191 m 1 0 c -0.043 -0.063 -0.129 -0.082 -0.191 -0.043 c -0.066 0.039 -0.086 0.125 -0.047 0.191 c 0.039 0.066 0.125 0.086 0.191 0.043 c 0.066 -0.039 0.086 -0.125 0.047 -0.191 m 1.035 -0.063 c -0.117 -0.117 -0.355 0.074 -0.27 0.219 c 0.055 0.086 0.125 0.082 0.215 -0.004 c 0.074 -0.074 0.098 -0.172 0.055 -0.211 m 1.031 0.133 c 0 -0.102 -0.082 -0.188 -0.188 -0.188 c -0.195 0 -0.246 0.148 -0.102 0.293 c 0.141 0.145 0.289 0.09 0.289 -0.105 m -3.348 -0.691 c 0.207 -0.211 0.344 -0.418 0.301 -0.461 c -0.086 -0.086 -0.828 0.574 -0.828 0.738 c 0 0.184 0.137 0.109 0.527 -0.277 m 0.781 0.117 c -0.043 -0.063 -0.129 -0.082 -0.191 -0.043 c -0.066 0.039 -0.086 0.125 -0.047 0.191 c 0.039 0.066 0.125 0.086 0.191 0.043 c 0.066 -0.039 0.086 -0.125 0.047 -0.191 m 1.066 0.004 c 0 -0.063 -0.082 -0.117 -0.188 -0.117 c -0.191 0 -0.246 0.148 -0.105 0.289 c 0.098 0.098 0.293 -0.012 0.293 -0.172 m -0.5 -0.359 c 0 -0.148 -0.242 -0.305 -0.332 -0.215 c -0.09 0.09 0.066 0.332 0.215 0.332 c 0.066 0 0.117 -0.051 0.117 -0.117" fill="#161616"/></svg>