<svg xmlns="http://www.w3.org/2000/svg" viewBox="0 0 32 32"><path d="m 3.176 6.902 c -15.645 34.26 34.21 30.02 28.26 7.773 c -2.879 -12.852 -20.926 -20.652 -28.26 -7.773" fill="#707f8f"/><path d="m 15.645 11.297 c -0.063 0.695 -0.574 0.402 -1.129 0.781 c -0.152 -0.02 -0.32 -0.02 -0.555 -0.02 c -0.043 -0.465 0.129 -0.551 0.211 -0.633 c 0.344 -0.254 0.578 -0.129 0.578 -0.129 c 0.254 -0.043 0.488 0.02 0.895 0 m 1.281 -1.141 h -0.746 v -0.188 h -0.406 v 0.105 c -0.043 0.02 -0.086 0.063 -0.129 0.082 h -0.043 c -0.703 -0.547 -0.746 0.57 -1.215 0.316 c -0.043 -0.23 -0.023 -0.441 -0.023 -0.715 c 0.813 -0.023 0.512 -0.234 0.277 -0.508 c -0.082 -0.105 -0.125 -0.273 -0.148 -0.379 c -0.191 -0.699 -0.98 -1.121 -2.133 -0.676 c -0.746 0.273 -0.555 1.266 -0.492 1.941 c -0.039 0.063 -0.125 0.039 -0.191 0.039 c -0.809 0.043 -1.172 0.887 -1.344 1.563 c 0.043 0.613 -0.039 1.289 -0.148 1.879 c -0.105 0.59 -0.32 1.055 -0.34 1.625 c -0.043 0.508 0.148 1.098 0.105 1.562 c -0.449 1.305 -0.77 2.172 -1 3.563 c -0.168 0.316 -0.766 0.992 -1 1.141 c -0.066 0.105 0.043 0.34 -0.066 0.484 c -0.191 0.277 -0.488 0.422 -0.66 0.719 c 0.043 0.063 -0.258 0.125 -0.234 0.23 c 0.02 0.105 0.172 0.383 0.234 0.445 c 0.02 0.043 0.234 -0.066 0.234 0 c 0.086 0.254 0.277 0.781 0.492 0.906 c 0.937 0.105 0.937 0.105 1.32 0 c 0.215 -0.613 -0.723 -0.336 -0.641 -1.16 c 1.281 -0.254 1.688 -0.613 2.199 -1.941 c 0.234 -0.973 0.555 -1.922 1.043 -2.852 c 0.086 -0.063 0.066 -0.23 0.215 -0.293 c 0.574 0.945 1.621 1.625 2.133 2.617 c 0.129 1.285 0.387 1.98 0.832 2.215 c 0.105 0.039 0 0.441 0.086 0.527 c 0 0.125 0.043 0.273 -0.02 0.422 c -0.043 0.105 -0.023 0.23 -0.023 0.336 c 0 0.043 0 0.086 0 0.129 c 0.023 0.188 0.066 0.188 0.258 0.336 c 0.555 0.359 1.301 0.93 2.047 0.508 c 0.34 -0.551 -0.383 -1.246 -0.895 -1.605 c -0.172 -0.125 -0.469 -0.441 -0.43 -0.652 c 0.281 -0.277 0.473 -1.48 0.363 -2.406 c -0.043 -0.211 -0.082 -0.422 -0.168 -0.59 c -0.258 -0.488 -0.832 -1.164 -1.324 -1.648 c 0.066 -0.063 0.152 -0.148 0.258 -0.188 c 0 -0.465 -0.195 -0.613 -0.449 -0.949 c -0.215 -0.34 -0.703 -0.992 -1.066 -1.203 c 0 0 0 -0.023 -0.363 -0.023 c -0.02 -0.23 0.043 -0.422 0.105 -0.672 c 0 -0.191 0.152 -0.086 0.195 -0.508 c 0.105 -0.359 0.063 -0.148 0.148 -0.508 c 0.082 -0.168 0.129 -0.336 0.129 -0.609 c 0.316 0.105 0.957 0.082 1.234 0 c 0 0 0 0 0.066 0.039 c 0.086 0.023 0.105 -0.105 0.168 -0.125 c 0.492 -0.254 0.664 -0.695 1.066 -0.738 c 0 0 0.215 -0.105 0.535 0 c 0.129 0 0.234 0.02 0.234 -0.105 c 0.023 -0.191 0.023 -0.336 0.129 -0.465 c 0.086 0.508 0.32 1.078 0.746 1.625 l 0.426 -0.297 c -0.406 -0.484 -0.66 -1.031 -0.703 -1.664 c 0.02 0.039 0.043 0.082 0.086 0.125 c 0.148 0 0.234 -0.316 0.406 -0.297 c 0.02 -0.039 0.063 -0.23 0.105 -0.379 h 1.598 l 0.578 -0.125 c 0 -0.191 0 -0.066 0 -0.297 l -0.426 -0.043 v -0.336 h -0.109 v -0.379 h -0.254 v 0.355 l -0.66 -0.039 v -0.234 h -0.258 v 0.211 l -0.684 -0.063 v -0.316 h -0.254 v 0.297 l -1 -0.063" fill="#c8c8c8" fill-rule="evenodd"/></svg>