<svg xmlns="http://www.w3.org/2000/svg" viewBox="0 0 32 32"><path d="m 27.895 5.07 c 18.15 27.746 -31.418 38.484 -27.469 9.941 c 1.609 -11.645 20.527 -20.555 27.469 -9.941" fill="#dcdcdc"/><path d="m 19.08 19.281 c -0.066 -0.141 -0.199 -0.316 -0.293 -0.391 c -0.195 -0.164 -0.289 -0.363 -0.383 -0.848 c -0.113 -0.57 0.082 -0.859 0.582 -0.859 c 0.199 0 0.305 0.074 0.738 0.5 c 0.621 0.609 0.641 0.719 0.184 1.113 c -0.273 0.242 -0.316 0.305 -0.273 0.457 c 0.051 0.191 -0.039 0.281 -0.285 0.285 c -0.102 0 -0.18 -0.074 -0.27 -0.258" fill="#a9a9a9" fill-rule="evenodd"/><path d="m 6.867 24.668 c -0.664 -0.094 -0.98 -0.266 -1.152 -0.621 l -0.109 -0.234 l 0.012 -2.473 c 0.008 -1.359 0.035 -3.273 0.059 -4.254 c 0.113 -4.406 0.102 -4.172 0.184 -4.348 c 0.129 -0.273 0.316 -0.48 0.68 -0.738 c 0.445 -0.32 0.457 -0.332 0.273 -0.293 l -0.152 0.027 l 0.086 -0.098 c 0.094 -0.113 0.574 -0.379 0.68 -0.379 c 0.039 0 0.094 -0.035 0.121 -0.082 c 0.027 -0.043 0.184 -0.152 0.348 -0.242 c 0.383 -0.203 0.691 -0.211 1.133 -0.023 c 0.25 0.105 0.336 0.121 0.551 0.094 c 0.469 -0.055 0.496 -0.063 0.438 -0.164 c -0.066 -0.113 0.012 -0.18 0.215 -0.18 c 0.078 0 0.191 -0.031 0.258 -0.066 c 0.086 -0.047 0.156 -0.055 0.27 -0.02 c 0.113 0.031 0.254 0.023 0.527 -0.031 c 0.203 -0.043 0.402 -0.066 0.441 -0.051 c 0.039 0.016 0.113 0 0.164 -0.035 c 0.094 -0.063 0.691 -0.133 1.195 -0.145 c 0.145 0 0.301 -0.027 0.352 -0.055 c 0.121 -0.074 0.996 -0.168 1.168 -0.129 c 0.09 0.02 0.184 0.008 0.277 -0.043 c 0.074 -0.039 0.25 -0.082 0.387 -0.098 c 0.137 -0.016 0.27 -0.055 0.293 -0.086 c 0.023 -0.027 0.063 -0.164 0.09 -0.297 c 0.121 -0.598 0.719 -1.512 1.172 -1.789 c 0.32 -0.199 0.453 -0.211 2.426 -0.211 c 1.617 -0.004 1.922 0.008 2.129 0.074 c 0.543 0.168 0.867 0.484 1.168 1.145 c 0.172 0.375 0.23 0.563 0.379 1.238 c 0.047 0.219 0.125 0.246 0.301 0.109 c 0.242 -0.188 0.328 -0.184 1.082 0.07 c 0.383 0.129 0.988 0.313 1.336 0.402 c 0.555 0.145 0.66 0.188 0.781 0.316 c 0.117 0.121 0.145 0.188 0.145 0.344 c 0 0.211 0.125 0.504 0.313 0.73 c 0.066 0.082 0.137 0.227 0.156 0.32 c 0.02 0.098 0.035 2.527 0.035 5.402 v 5.223 l -0.117 0.266 c -0.156 0.348 -0.414 0.637 -0.727 0.801 l -0.254 0.137 l -2.773 0.027 c -2.023 0.02 -2.848 0.043 -3.059 0.086 c -0.434 0.094 -1.586 0.086 -2.309 -0.012 c -0.555 -0.074 -0.938 -0.082 -3.937 -0.07 l -3.32 0.016 l -0.234 0.172 c -0.129 0.094 -0.305 0.199 -0.395 0.23 c -0.195 0.066 -2.652 0.094 -3.082 0.035 m 17.05 -1.824 c 0 -0.121 -0.047 -0.152 -0.098 -0.066 c -0.035 0.059 0.004 0.18 0.059 0.18 c 0.023 0 0.039 -0.051 0.039 -0.113 m 0.637 -0.004 c -0.012 -0.078 -0.035 -0.102 -0.063 -0.074 c -0.051 0.055 -0.016 0.191 0.047 0.191 c 0.02 0 0.027 -0.051 0.016 -0.117 m 0.172 0.059 c -0.008 -0.055 -0.066 -0.043 -0.086 0.016 c -0.008 0.031 0.008 0.047 0.035 0.039 c 0.027 -0.012 0.051 -0.035 0.051 -0.055 m 0.918 0.012 c 0 -0.09 -0.055 -0.184 -0.113 -0.184 c -0.055 0 -0.164 0.156 -0.129 0.191 c 0.035 0.035 0.242 0.031 0.242 -0.008 m 0.266 0.016 c -0.004 -0.082 -0.078 -0.16 -0.105 -0.109 c -0.02 0.027 -0.02 0.07 -0.004 0.098 c 0.031 0.051 0.109 0.063 0.109 0.012 m -1.785 -0.055 c 0.012 -0.023 -0.004 -0.066 -0.043 -0.098 c -0.055 -0.047 -0.063 -0.039 -0.063 0.043 c 0 0.098 0.063 0.129 0.105 0.055 m 0.203 -0.027 c 0 -0.039 -0.023 -0.07 -0.047 -0.07 c -0.023 0 -0.043 0.031 -0.043 0.07 c 0 0.039 0.02 0.07 0.043 0.07 c 0.023 0 0.047 -0.031 0.047 -0.07 m 0.613 -0.004 c 0 -0.039 -0.02 -0.059 -0.043 -0.043 c -0.027 0.016 -0.035 0.051 -0.02 0.074 c 0.035 0.063 0.063 0.051 0.063 -0.031 m 0.309 -0.047 c 0 -0.035 -0.031 -0.066 -0.066 -0.066 c -0.074 0 -0.078 0.008 -0.039 0.113 c 0.031 0.086 0.105 0.051 0.105 -0.047 m -5.805 -3.512 c 0.145 -0.078 0.164 -0.148 0.059 -0.227 c -0.094 -0.074 -0.02 -0.234 0.125 -0.285 c 0.32 -0.102 0.516 -0.652 0.277 -0.766 c -0.063 -0.031 -0.113 -0.078 -0.113 -0.109 c 0 -0.09 -0.617 -0.668 -0.719 -0.672 c -0.051 0 -0.16 -0.004 -0.238 -0.008 c -0.137 -0.004 -0.316 0.113 -0.316 0.207 c 0 0.023 -0.031 0.074 -0.07 0.113 c -0.074 0.078 -0.07 0.25 0.02 0.672 c 0.066 0.305 0.16 0.477 0.313 0.574 c 0.074 0.047 0.16 0.16 0.203 0.27 c 0.121 0.324 0.207 0.367 0.461 0.23 m 5.957 -6.137 c 0.09 -0.082 0.117 -0.148 0.121 -0.301 c 0 -0.203 -0.051 -0.305 -0.191 -0.387 c -0.313 -0.172 -0.59 0.402 -0.324 0.68 c 0.133 0.141 0.246 0.141 0.395 0.008 m -0.301 -0.152 c -0.105 -0.289 0.125 -0.547 0.246 -0.277 c 0.035 0.09 0.035 0.145 0 0.234 c -0.059 0.129 -0.207 0.152 -0.246 0.043 m -15.18 0.047 c 0.285 -0.148 0.465 -0.465 0.207 -0.359 c -0.129 0.055 -0.563 0.477 -0.488 0.477 c 0.031 0 0.16 -0.051 0.281 -0.117 m 15.996 -0.094 c 0.059 -0.137 0.141 -0.125 0.16 0.02 c 0.016 0.102 0.02 0.102 0.098 0.027 c 0.105 -0.098 0.113 -0.266 0.02 -0.348 c -0.059 -0.047 -0.082 -0.047 -0.141 0.02 c -0.07 0.07 -0.082 0.066 -0.172 -0.023 c -0.137 -0.133 -0.191 -0.074 -0.191 0.195 c 0 0.199 0.012 0.227 0.086 0.227 c 0.055 0 0.113 -0.047 0.141 -0.117 m -13.07 -0.992 c 0 -0.047 -0.027 -0.094 -0.055 -0.105 c -0.09 -0.031 -0.168 0.016 -0.168 0.105 c 0 0.047 0.027 0.094 0.059 0.105 c 0.086 0.031 0.164 -0.016 0.164 -0.105 m 4.688 -2.148 c 0.129 -0.137 0.137 -0.27 0.02 -0.395 c -0.238 -0.25 -0.637 0.102 -0.43 0.379 c 0.117 0.156 0.27 0.164 0.41 0.016 m -0.246 -0.184 c 0 -0.078 0.027 -0.117 0.07 -0.117 c 0.047 0 0.066 0.031 0.055 0.098 c -0.02 0.148 -0.125 0.164 -0.125 0.02 m 2.336 0.25 c 0.063 0 0.094 -0.184 0.039 -0.254 c -0.074 -0.098 -0.172 -0.082 -0.211 0.031 c -0.031 0.086 -0.039 0.09 -0.063 0.023 c -0.031 -0.082 0.074 -0.215 0.168 -0.215 c 0.035 0 0.063 -0.02 0.063 -0.043 c 0 -0.152 -0.32 -0.094 -0.426 0.074 c -0.066 0.105 -0.066 0.133 -0.008 0.238 c 0.063 0.117 0.23 0.199 0.34 0.164 c 0.031 -0.008 0.074 -0.02 0.098 -0.02 m 0.48 0.004 c 0.059 -0.039 0.055 -0.055 -0.016 -0.109 c -0.063 -0.047 -0.07 -0.074 -0.031 -0.098 c 0.027 -0.02 0.039 -0.074 0.027 -0.117 c -0.016 -0.047 -0.008 -0.102 0.02 -0.117 c 0.078 -0.051 0.004 -0.117 -0.125 -0.117 c -0.168 0 -0.227 0.082 -0.227 0.309 c 0 0.254 0.168 0.371 0.352 0.25 m -1.871 -0.277 c -0.008 -0.141 -0.012 -0.262 -0.016 -0.27 c 0 -0.008 -0.047 0.008 -0.094 0.039 c -0.07 0.035 -0.109 0.035 -0.156 -0.008 c -0.102 -0.086 -0.172 0.012 -0.105 0.145 c 0.039 0.078 0.039 0.133 0.004 0.215 c -0.027 0.063 -0.047 0.117 -0.047 0.129 c 0 0.008 0.094 0.012 0.211 0.012 l 0.211 -0.004 m 0.59 -0.055 c 0 -0.039 0.031 -0.133 0.066 -0.211 c 0.039 -0.078 0.059 -0.176 0.043 -0.215 c -0.023 -0.066 -0.031 -0.066 -0.098 0 c -0.063 0.066 -0.078 0.066 -0.172 0.004 c -0.094 -0.063 -0.105 -0.063 -0.129 0 c -0.016 0.039 0.004 0.133 0.043 0.211 c 0.039 0.078 0.07 0.172 0.07 0.211 c 0 0.043 0.035 0.07 0.086 0.07 c 0.051 0 0.09 -0.027 0.09 -0.07 m 1.602 -0.004 c 0.023 -0.07 0.031 -0.07 0.105 0 c 0.102 0.098 0.211 0.098 0.246 0.004 c 0.043 -0.125 0.027 -0.324 -0.035 -0.414 c -0.059 -0.082 -0.063 -0.082 -0.121 0.012 l -0.059 0.102 l -0.098 -0.098 c -0.082 -0.082 -0.109 -0.09 -0.168 -0.039 c -0.066 0.059 -0.094 0.418 -0.035 0.48 c 0.051 0.055 0.137 0.031 0.164 -0.047 m 0.699 -1.16 c -0.109 -0.086 -4.01 -0.086 -4.121 0 c -0.059 0.047 0.344 0.059 2.063 0.059 c 1.719 0 2.121 -0.012 2.059 -0.059" fill="#6c6c6c"/><path d="m 6.926 24.617 c -0.691 -0.086 -1.023 -0.242 -1.184 -0.57 c -0.09 -0.184 -0.094 -0.23 -0.078 -2.266 c 0.008 -1.141 0.031 -2.117 0.047 -2.168 c 0.039 -0.105 0.09 1.477 0.094 2.719 c 0 0.457 0.02 0.918 0.039 1.02 c 0.051 0.215 0.199 0.367 0.434 0.441 c 0.215 0.066 1.117 0.113 1.434 0.07 l 0.246 -0.031 v -10.02 l -0.184 -0.027 c -0.105 -0.012 -0.438 -0.035 -0.738 -0.051 c -0.305 -0.016 -0.695 -0.039 -0.871 -0.051 l -0.316 -0.027 v -0.359 c 0 -0.504 0.133 -0.77 0.551 -1.098 c 0.609 -0.48 0.926 -0.586 2.09 -0.703 c 0.598 -0.059 0.879 -0.137 0.879 -0.242 c 0 -0.043 0.016 -0.09 0.035 -0.102 c 0.02 -0.016 0.281 -0.047 0.582 -0.074 c 2.867 -0.27 4.313 -0.43 4.477 -0.492 c 0.191 -0.074 0.246 -0.156 0.102 -0.156 c -0.105 0 -0.199 -0.117 -0.164 -0.207 c 0.02 -0.055 0.051 -0.063 0.141 -0.023 c 0.172 0.066 0.273 0.055 0.371 -0.047 c 0.059 -0.063 0.148 -0.094 0.258 -0.094 c 0.324 0 0.453 -0.051 0.5 -0.195 l 0.047 -0.137 l 0.34 0.016 l 0.344 0.016 l 0.047 -0.254 c 0.043 -0.227 0.074 -0.277 0.27 -0.441 c 0.117 -0.102 0.281 -0.207 0.359 -0.238 c 0.105 -0.039 0.68 -0.055 2.02 -0.059 c 2.105 0 2.035 -0.012 2.402 0.355 c 0.164 0.164 0.188 0.215 0.215 0.469 c 0.031 0.285 0.082 0.387 0.125 0.262 c 0.035 -0.09 0.113 -0.09 0.207 0 c 0.055 0.051 0.18 0.078 0.422 0.082 l 0.348 0.008 l 0.043 0.156 c 0.07 0.25 0.16 0.281 0.359 0.121 c 0.219 -0.18 0.492 -0.18 0.906 0 c 0.289 0.125 0.297 0.133 0.301 0.297 c 0 0.152 0.004 0.16 0.051 0.063 c 0.027 -0.063 0.086 -0.105 0.152 -0.105 c 0.078 0 0.109 0.035 0.129 0.145 l 0.027 0.141 l 0.082 -0.098 c 0.047 -0.051 0.102 -0.094 0.121 -0.094 c 0.063 0 0.137 0.113 0.137 0.207 c 0.004 0.09 0.008 0.09 0.082 -0.016 c 0.074 -0.102 0.102 -0.109 0.324 -0.078 c 0.332 0.043 0.68 0.145 0.813 0.234 c 0.129 0.09 0.234 0.328 0.234 0.531 c 0 0.16 0.055 0.273 0.246 0.523 c 0.078 0.094 0.16 0.262 0.191 0.367 c 0.035 0.145 0.047 1.586 0.035 5.469 l -0.012 5.27 l -0.129 0.25 c -0.172 0.32 -0.496 0.625 -0.797 0.742 c -0.234 0.094 -0.328 0.094 -2.855 0.094 c -2.281 0 -2.656 0.012 -2.977 0.082 c -0.512 0.105 -1.895 0.105 -2.395 -0.004 c -0.309 -0.066 -0.746 -0.078 -3.828 -0.078 h -3.477 l -0.188 0.145 c -0.406 0.316 -0.512 0.336 -1.879 0.348 c -0.676 0.008 -1.391 -0.008 -1.582 -0.031 m 12.141 -1.523 c 0 -0.102 -0.125 -0.086 -0.145 0.016 c -0.012 0.063 0.008 0.082 0.066 0.07 c 0.043 -0.012 0.078 -0.047 0.078 -0.086 m -0.504 -0.051 c 0 -0.023 -0.02 -0.043 -0.043 -0.043 c -0.027 0 -0.047 0.035 -0.047 0.074 c 0 0.039 0.02 0.059 0.047 0.043 c 0.023 -0.016 0.043 -0.047 0.043 -0.074 m 1.23 0.031 c 0 -0.039 -0.02 -0.082 -0.043 -0.098 c -0.023 -0.016 -0.043 0.016 -0.043 0.066 c 0 0.055 0.02 0.098 0.043 0.098 c 0.023 0 0.043 -0.031 0.043 -0.066 m -1.012 -0.027 c 0 -0.023 -0.02 -0.047 -0.043 -0.047 c -0.023 0 -0.043 0.023 -0.043 0.047 c 0 0.027 0.02 0.047 0.043 0.047 c 0.023 0 0.043 -0.02 0.043 -0.047 m -0.438 -0.047 c 0 -0.023 -0.012 -0.047 -0.02 -0.047 c -0.012 0 -0.031 0.023 -0.047 0.047 c -0.016 0.027 -0.008 0.047 0.02 0.047 c 0.023 0 0.047 -0.02 0.047 -0.047 m 5.75 -0.051 c 0.031 -0.035 0.07 -0.035 0.133 0 c 0.063 0.035 0.102 0.031 0.137 -0.004 c 0.039 -0.043 0.063 -0.043 0.102 0 c 0.066 0.07 0.285 0.074 0.324 0.008 c 0.02 -0.035 0.047 -0.035 0.082 0 c 0.07 0.059 0.113 0.016 0.113 -0.113 c 0 -0.141 -0.047 -0.176 -0.133 -0.09 c -0.066 0.063 -0.078 0.063 -0.129 0 c -0.066 -0.086 -0.184 -0.094 -0.254 -0.02 c -0.039 0.043 -0.066 0.039 -0.121 -0.004 c -0.047 -0.043 -0.082 -0.047 -0.121 -0.012 c -0.039 0.031 -0.082 0.035 -0.121 0.008 c -0.188 -0.125 -0.387 -0.008 -0.328 0.191 c 0.027 0.098 0.234 0.121 0.316 0.035 m 1.199 -0.188 c 0 -0.059 -0.031 -0.086 -0.109 -0.086 c -0.121 0 -0.133 0.031 -0.063 0.219 c 0.047 0.125 0.051 0.125 0.109 0.039 c 0.035 -0.047 0.063 -0.125 0.063 -0.172 m 0.387 0.141 c 0.008 -0.035 -0.016 -0.105 -0.051 -0.156 c -0.055 -0.074 -0.082 -0.082 -0.145 -0.039 c -0.047 0.027 -0.086 0.102 -0.094 0.168 c -0.012 0.105 0 0.113 0.133 0.105 c 0.082 -0.008 0.148 -0.043 0.156 -0.078 m 0.316 0.082 c 0 -0.031 -0.137 -0.309 -0.152 -0.309 c -0.012 0 -0.039 0.043 -0.066 0.098 c -0.059 0.113 0.008 0.227 0.137 0.227 c 0.047 0 0.082 -0.008 0.082 -0.016 m -8.137 -0.074 c 0 -0.027 -0.02 -0.047 -0.047 -0.047 c -0.023 0 -0.043 0.02 -0.043 0.047 c 0 0.023 0.02 0.043 0.043 0.043 c 0.027 0 0.047 -0.02 0.047 -0.043 m 2.715 -0.012 c -0.008 -0.027 -0.039 -0.063 -0.066 -0.07 c -0.035 -0.012 -0.043 0.008 -0.027 0.055 c 0.031 0.082 0.121 0.102 0.094 0.016 m 0.453 -0.172 c 0 -0.055 -0.086 -0.113 -0.117 -0.078 c -0.031 0.031 0.023 0.121 0.074 0.121 c 0.023 0 0.043 -0.02 0.043 -0.043 m -3.809 -0.094 c 0.016 -0.027 0.008 -0.047 -0.02 -0.047 c -0.023 0 -0.047 0.02 -0.047 0.047 c 0 0.023 0.012 0.043 0.02 0.043 c 0.012 0 0.031 -0.02 0.047 -0.043 m 2.895 -2.789 c 0.066 -0.051 0.063 -0.078 -0.027 -0.301 c -0.055 -0.133 -0.121 -0.266 -0.148 -0.293 c -0.035 -0.039 -0.012 -0.09 0.09 -0.199 c 0.105 -0.113 0.207 -0.164 0.414 -0.211 c 0.34 -0.074 0.352 -0.129 0.102 -0.52 c -0.098 -0.148 -0.195 -0.348 -0.219 -0.434 c -0.301 -1.148 -1.777 -1.281 -2.242 -0.203 c -0.281 0.648 0.063 1.465 0.703 1.688 c 0.113 0.043 0.234 0.105 0.266 0.145 c 0.129 0.16 0.195 0.156 0.434 -0.031 c 0.266 -0.211 0.32 -0.223 0.301 -0.078 c -0.008 0.07 -0.047 0.105 -0.113 0.109 c -0.125 0.008 -0.281 0.203 -0.223 0.281 c 0.078 0.102 0.555 0.137 0.664 0.047 m 0.375 -0.273 c -0.012 -0.031 -0.043 -0.063 -0.07 -0.074 c -0.031 -0.012 -0.043 0.012 -0.027 0.055 c 0.031 0.086 0.125 0.102 0.098 0.02 m 0.227 -0.324 c 0.063 -0.188 0.027 -0.219 -0.219 -0.18 c -0.23 0.031 -0.25 0.105 -0.063 0.234 c 0.18 0.125 0.223 0.117 0.281 -0.055 m -4.902 -6.04 c 0.605 -0.426 0.969 -0.621 1.629 -0.867 c 0.598 -0.223 0.582 -0.254 -0.043 -0.086 c -0.48 0.125 -1.191 0.465 -1.613 0.766 c -0.445 0.316 -1.359 1.289 -1.359 1.445 c 0 0.016 0.207 -0.188 0.457 -0.449 c 0.281 -0.293 0.633 -0.602 0.93 -0.809 m 0.262 1.25 c 0.012 -0.023 -0.016 -0.074 -0.063 -0.117 c -0.09 -0.086 -0.152 -0.039 -0.105 0.082 c 0.027 0.082 0.129 0.102 0.168 0.035 m 0.156 -0.164 c 0 -0.035 -0.027 -0.086 -0.063 -0.117 c -0.082 -0.074 -0.141 0.023 -0.066 0.113 c 0.066 0.086 0.129 0.09 0.129 0.004 m 0.309 -0.227 c 0 -0.066 -0.086 -0.172 -0.141 -0.172 c -0.043 0 -0.047 0.156 -0.008 0.203 c 0.051 0.051 0.148 0.031 0.148 -0.031 m 0.199 -0.129 c 0.043 -0.074 -0.098 -0.211 -0.156 -0.152 c -0.027 0.027 -0.035 0.082 -0.02 0.125 c 0.031 0.09 0.133 0.102 0.176 0.027 m 0.168 -0.215 c -0.063 -0.102 -0.121 -0.098 -0.141 0.008 c -0.02 0.102 0.082 0.18 0.145 0.117 c 0.027 -0.031 0.027 -0.074 -0.004 -0.125 m 0.512 -0.168 c 0 -0.035 -0.031 -0.09 -0.066 -0.121 c -0.055 -0.047 -0.066 -0.043 -0.066 0.031 c 0 0.051 0.016 0.105 0.031 0.121 c 0.047 0.055 0.102 0.035 0.102 -0.031 m 0.266 -0.094 c 0 -0.078 -0.109 -0.176 -0.148 -0.137 c -0.066 0.07 -0.027 0.203 0.059 0.203 c 0.047 0 0.09 -0.031 0.09 -0.066 m 2.902 -0.027 c 0 -0.063 -0.031 -0.094 -0.09 -0.094 c -0.082 0 -0.117 0.09 -0.059 0.156 c 0.063 0.063 0.148 0.027 0.148 -0.063 m -2.738 -0.055 c -0.008 -0.031 -0.039 -0.063 -0.07 -0.074 c -0.031 -0.012 -0.043 0.012 -0.023 0.055 c 0.031 0.086 0.121 0.102 0.094 0.02 m 2.473 -0.016 c 0 -0.039 -0.031 -0.086 -0.066 -0.098 c -0.082 -0.035 -0.176 0.047 -0.133 0.117 c 0.047 0.078 0.199 0.059 0.199 -0.02 m -0.305 -0.117 c 0 -0.098 -0.066 -0.121 -0.117 -0.035 c -0.02 0.035 -0.047 0.027 -0.09 -0.031 c -0.043 -0.063 -0.07 -0.07 -0.117 -0.031 c -0.043 0.039 -0.07 0.039 -0.109 -0.004 c -0.039 -0.039 -0.066 -0.039 -0.102 -0.004 c -0.066 0.074 0 0.168 0.098 0.141 c 0.047 -0.016 0.094 -0.008 0.105 0.012 c 0.012 0.023 0.059 0.027 0.105 0.016 c 0.047 -0.012 0.098 0 0.113 0.027 c 0.043 0.074 0.113 0.016 0.113 -0.09 m -10.449 0 c 0.445 -0.117 0.664 -0.27 0.777 -0.535 c 0.133 -0.324 0.039 -0.746 -0.207 -0.914 c -0.133 -0.094 -0.625 -0.211 -0.875 -0.211 c -0.387 -0.004 -1.285 0.793 -1.602 1.422 l -0.145 0.281 l 0.121 0.02 c 0.07 0.008 0.453 0.02 0.855 0.023 c 0.602 0.008 0.789 -0.008 1.074 -0.086 m -0.953 -0.102 c -0.324 -0.23 -0.383 -0.648 -0.145 -1.016 c 0.176 -0.266 0.426 -0.375 0.793 -0.352 c 0.422 0.027 0.691 0.277 0.684 0.641 c -0.008 0.57 -0.875 1.047 -1.332 0.727 m 0.441 -0.535 c 0.184 -0.102 0.332 -0.367 0.262 -0.457 c -0.16 -0.199 -0.785 0.105 -0.785 0.383 c 0 0.168 0.285 0.207 0.523 0.074 m 9.473 0.582 c -0.043 -0.043 -0.055 -0.031 -0.055 0.059 c 0 0.086 0.012 0.098 0.055 0.055 c 0.039 -0.043 0.039 -0.07 0 -0.113 m 0.32 0.012 c 0 -0.102 -0.172 -0.086 -0.191 0.016 c -0.012 0.063 0.008 0.078 0.09 0.066 c 0.055 -0.008 0.102 -0.047 0.102 -0.082 m 0.32 0.012 c 0.023 -0.078 -0.113 -0.133 -0.176 -0.07 c -0.023 0.027 -0.031 0.074 -0.012 0.102 c 0.039 0.066 0.16 0.043 0.188 -0.031 m 6.297 -0.09 c 0.203 -0.266 0.055 -0.711 -0.234 -0.711 c -0.336 0 -0.488 0.555 -0.211 0.777 c 0.125 0.102 0.348 0.07 0.445 -0.066 m -0.316 -0.094 c -0.059 -0.059 -0.031 -0.375 0.031 -0.398 c 0.086 -0.035 0.156 0.059 0.156 0.199 c 0 0.164 -0.109 0.281 -0.188 0.199 m 0.793 -0.047 l 0.074 -0.121 l 0.027 0.109 c 0.039 0.172 0.125 0.16 0.199 -0.023 c 0.063 -0.156 0.063 -0.184 0 -0.285 c -0.078 -0.121 -0.117 -0.133 -0.191 -0.055 c -0.039 0.043 -0.078 0.039 -0.16 -0.008 c -0.176 -0.098 -0.246 -0.035 -0.246 0.223 c 0 0.121 0.016 0.238 0.031 0.254 c 0.063 0.07 0.191 0.023 0.266 -0.094 m -13.01 -0.848 c 0.105 -0.109 0.109 -0.133 0.02 -0.266 c -0.082 -0.121 -0.262 -0.137 -0.379 -0.027 c -0.09 0.09 -0.105 0.25 -0.027 0.332 c 0.082 0.086 0.289 0.066 0.387 -0.039 m 12.629 -1.309 c 0 -0.02 -0.02 -0.023 -0.047 -0.008 c -0.023 0.016 -0.043 0.063 -0.043 0.105 c 0 0.07 0.008 0.07 0.043 0.012 c 0.023 -0.039 0.043 -0.086 0.047 -0.109 m -8.03 -0.945 c 0.094 -0.063 0.152 -0.238 0.125 -0.359 c -0.039 -0.168 -0.203 -0.266 -0.367 -0.23 c -0.371 0.086 -0.344 0.625 0.031 0.625 c 0.09 0 0.184 -0.016 0.211 -0.035 m -0.199 -0.27 c 0.004 -0.051 0.016 -0.063 0.027 -0.027 c 0.012 0.035 0.012 0.074 -0.004 0.09 c -0.012 0.016 -0.023 -0.012 -0.023 -0.063 m 0.992 0.25 c 0.016 -0.023 0 -0.07 -0.027 -0.105 c -0.031 -0.043 -0.039 -0.133 -0.023 -0.246 c 0.031 -0.191 -0.031 -0.273 -0.152 -0.191 c -0.035 0.02 -0.098 0.016 -0.145 -0.012 c -0.129 -0.07 -0.234 0.055 -0.164 0.195 c 0.043 0.078 0.043 0.133 0.004 0.215 c -0.027 0.063 -0.039 0.133 -0.027 0.152 c 0.031 0.051 0.508 0.043 0.535 -0.008 m 0.578 -0.152 c 0.102 -0.281 0.098 -0.418 -0.012 -0.402 c -0.148 0.027 -0.215 0.023 -0.297 -0.012 c -0.113 -0.051 -0.145 0.086 -0.063 0.289 c 0.035 0.094 0.078 0.211 0.094 0.254 c 0.043 0.152 0.203 0.078 0.277 -0.129 m 1.535 0.156 c 0.035 -0.031 0.082 -0.027 0.141 0.012 c 0.16 0.105 0.227 0.023 0.227 -0.277 c 0 -0.297 -0.07 -0.387 -0.195 -0.258 c -0.059 0.063 -0.074 0.063 -0.164 0 c -0.063 -0.039 -0.125 -0.055 -0.16 -0.031 c -0.035 0.023 -0.117 0.02 -0.188 -0.012 c -0.172 -0.066 -0.359 0.008 -0.395 0.156 c -0.027 0.113 -0.027 0.113 -0.047 -0.023 c -0.016 -0.129 -0.031 -0.137 -0.184 -0.133 c -0.293 0.008 -0.453 0.281 -0.293 0.492 c 0.086 0.121 0.098 0.121 0.648 0.117 c 0.309 0 0.582 -0.02 0.609 -0.047 m -12.844 1.508 c -0.055 -0.059 -0.035 -0.113 0.09 -0.234 c 0.223 -0.219 0.449 -0.309 0.781 -0.309 c 0.379 -0.004 0.695 0.152 0.719 0.348 l 0.012 0.121 l -0.387 -0.023 c -0.348 -0.02 -0.75 0.02 -1.07 0.102 c -0.063 0.016 -0.125 0.016 -0.145 -0.004 m 2.508 -0.559 c -0.074 -0.078 -0.016 -0.113 0.137 -0.086 c 0.129 0.023 0.191 0.008 0.281 -0.066 c 0.172 -0.141 0.352 -0.027 0.203 0.129 c -0.055 0.059 -0.57 0.078 -0.621 0.023 m 1.441 -0.152 c -0.051 -0.09 0.023 -0.133 0.191 -0.109 c 0.121 0.02 0.188 0.004 0.238 -0.047 c 0.039 -0.043 0.113 -0.078 0.164 -0.078 c 0.117 0 0.121 0.164 0.004 0.23 c -0.109 0.063 -0.559 0.063 -0.598 0.004 m 1.461 -0.125 c -0.016 -0.016 -0.031 -0.059 -0.031 -0.098 c 0 -0.051 0.039 -0.059 0.168 -0.035 c 0.133 0.023 0.191 0.008 0.281 -0.066 c 0.164 -0.133 0.301 -0.125 0.301 0.02 c 0 0.066 -0.035 0.137 -0.086 0.164 c -0.094 0.051 -0.586 0.066 -0.633 0.016" fill="#4e4e4e"/><path d="m 6.859 24.574 c -0.672 -0.094 -0.965 -0.242 -1.102 -0.566 c -0.074 -0.168 -0.086 -0.297 -0.082 -0.934 l 0.008 -0.738 l 0.055 0.629 c 0.066 0.73 0.117 0.965 0.238 1.078 c 0.121 0.113 0.387 0.207 0.605 0.207 c 0.172 0.004 0.188 -0.008 0.188 -0.113 c 0 -0.105 0.016 -0.113 0.23 -0.117 c 0.129 0 0.781 -0.02 1.449 -0.039 c 1.035 -0.027 1.234 -0.047 1.332 -0.113 l 0.113 -0.078 v -4.988 c 0 -4.418 -0.008 -4.992 -0.066 -5.04 c -0.051 -0.043 -0.434 -0.07 -1.402 -0.098 c -1.336 -0.035 -1.656 -0.063 -1.656 -0.141 c 0 -0.02 0.008 -0.043 0.012 -0.043 c 0.008 -0.004 0.566 -0.023 1.242 -0.043 c 1.527 -0.047 1.906 -0.129 2.23 -0.492 c 0.227 -0.254 0.266 -0.52 0.129 -0.93 l -0.078 -0.242 h 0.098 c 0.117 0 0.457 0.371 0.59 0.645 c 0.055 0.109 0.113 0.18 0.133 0.16 c 0.02 -0.023 0.18 -0.375 0.355 -0.781 c 0.172 -0.406 0.332 -0.754 0.355 -0.766 c 0.074 -0.051 2.324 -0.293 2.359 -0.254 c 0.012 0.012 -0.02 0.109 -0.07 0.219 c -0.051 0.109 -0.109 0.324 -0.133 0.477 c -0.059 0.387 -0.039 0.398 0.652 0.383 l 0.547 -0.012 l 0.309 -0.57 c 0.172 -0.313 0.367 -0.641 0.434 -0.727 l 0.125 -0.16 l 0.215 0.113 c 0.352 0.188 0.414 0.148 0.293 -0.168 c -0.059 -0.141 -0.059 -0.305 -0.004 -0.586 c 0.035 -0.164 0.152 -0.035 0.152 0.164 c 0 0.086 0.02 0.199 0.043 0.246 c 0.047 0.09 0.117 0.09 2.301 0.09 c 1.699 0 2.27 -0.012 2.309 -0.055 c 0.031 -0.031 0.055 -0.125 0.055 -0.211 c 0 -0.086 0.02 -0.199 0.047 -0.25 c 0.066 -0.129 0.113 -0.047 0.152 0.25 c 0.02 0.168 0.012 0.25 -0.043 0.336 c -0.039 0.063 -0.07 0.152 -0.07 0.199 c 0 0.121 -0.09 0.191 -0.277 0.227 c -0.141 0.023 -0.238 0.148 -0.176 0.215 c 0.027 0.027 0.719 -0.223 0.902 -0.32 c 0.066 -0.035 0.152 -0.066 0.188 -0.066 c 0.082 0 0.348 0.422 0.68 1.074 c 0.23 0.449 0.23 0.453 0.395 0.453 c 0.133 0 0.184 -0.027 0.262 -0.141 c 0.145 -0.203 0.355 -0.195 0.527 0.031 c 0.133 0.164 0.234 0.18 0.207 0.027 c -0.117 -0.602 -0.094 -0.559 -0.625 -1.129 l -0.504 -0.539 l 0.168 -0.117 c 0.188 -0.137 0.383 -0.156 0.605 -0.059 c 0.145 0.063 0.148 0.078 0.125 0.258 c -0.02 0.168 -0.012 0.188 0.07 0.188 c 0.051 0 0.113 -0.043 0.137 -0.094 c 0.07 -0.133 0.133 -0.113 0.133 0.043 c 0 0.168 0.109 0.219 0.211 0.098 c 0.098 -0.125 0.141 -0.117 0.141 0.023 c 0 0.16 0.129 0.207 0.211 0.078 c 0.086 -0.137 0.141 -0.129 0.141 0.016 c 0 0.16 0.125 0.203 0.223 0.074 c 0.105 -0.133 0.133 -0.125 0.133 0.035 c 0 0.074 0.027 0.145 0.063 0.16 c 0.066 0.023 0.199 -0.082 0.199 -0.16 c 0 -0.023 0.02 -0.043 0.043 -0.043 c 0.02 0 0.047 0.066 0.055 0.152 c 0.016 0.176 0.137 0.227 0.211 0.082 c 0.035 -0.07 0.035 -0.121 -0.004 -0.195 c -0.047 -0.09 -0.043 -0.094 0.063 -0.066 c 0.359 0.094 0.465 0.207 0.508 0.543 c 0.039 0.285 0.074 0.371 0.285 0.637 c 0.102 0.125 0.172 0.273 0.203 0.434 c 0.031 0.168 0.043 1.813 0.035 5.398 l -0.012 5.156 l -0.117 0.262 c -0.207 0.461 -0.594 0.77 -1.09 0.867 c -0.141 0.031 -1.25 0.051 -2.793 0.051 c -2.09 0 -2.625 0.012 -2.93 0.07 c -0.492 0.09 -1.574 0.09 -2.074 0 c -0.32 -0.059 -0.957 -0.07 -3.934 -0.074 h -3.555 l -0.156 0.113 c -0.09 0.063 -0.258 0.164 -0.379 0.223 c -0.215 0.102 -0.266 0.105 -1.539 0.113 c -0.727 0.004 -1.449 -0.012 -1.605 -0.035 m 12.262 -1.41 c 0.012 -0.039 -0.008 -0.109 -0.047 -0.148 c -0.063 -0.066 -0.09 -0.066 -0.16 -0.02 c -0.063 0.039 -0.09 0.039 -0.09 0.004 c 0 -0.031 -0.043 -0.043 -0.109 -0.031 c -0.063 0.016 -0.121 0.008 -0.129 -0.008 c -0.012 -0.02 -0.098 -0.031 -0.188 -0.031 c -0.121 0.004 -0.168 0.027 -0.18 0.086 c -0.012 0.055 0.012 0.082 0.066 0.082 c 0.047 0 0.105 0.023 0.133 0.051 c 0.027 0.031 0.074 0.035 0.105 0.012 c 0.098 -0.063 0.34 -0.055 0.367 0.016 c 0.031 0.086 0.195 0.078 0.23 -0.012 m 0.473 -0.012 c 0.027 -0.055 -0.09 -0.227 -0.129 -0.184 c -0.039 0.039 0.016 0.223 0.066 0.223 c 0.02 0 0.047 -0.02 0.063 -0.039 m 0.258 -0.027 c 0.016 -0.035 -0.004 -0.102 -0.035 -0.148 c -0.059 -0.082 -0.066 -0.082 -0.137 -0.008 c -0.063 0.063 -0.066 0.09 -0.02 0.148 c 0.07 0.09 0.16 0.094 0.191 0.008 m 0.207 -0.098 c 0 -0.07 -0.027 -0.113 -0.066 -0.113 c -0.066 0 -0.094 0.141 -0.035 0.199 c 0.059 0.063 0.102 0.027 0.102 -0.086 m 0.156 -0.148 c -0.047 -0.051 -0.078 0.027 -0.047 0.113 c 0.035 0.078 0.035 0.078 0.055 -0.004 c 0.012 -0.047 0.008 -0.094 -0.008 -0.109 m 4.04 0.109 c 0.098 -0.008 0.211 0.004 0.25 0.023 c 0.043 0.023 0.164 0.027 0.273 0.012 c 0.152 -0.023 0.211 -0.055 0.23 -0.129 c 0.031 -0.098 0.031 -0.098 0.066 0.008 c 0.047 0.133 0.164 0.133 0.215 0 c 0.039 -0.102 0.039 -0.102 0.043 -0.008 c 0 0.09 0.035 0.102 0.32 0.121 c 0.176 0.016 0.336 0.012 0.352 -0.008 c 0.051 -0.047 -0.094 -0.328 -0.168 -0.328 c -0.035 0 -0.078 0.035 -0.094 0.078 c -0.023 0.063 -0.039 0.059 -0.105 -0.035 c -0.07 -0.098 -0.09 -0.105 -0.172 -0.051 c -0.07 0.047 -0.109 0.047 -0.156 0.008 c -0.043 -0.039 -0.129 -0.043 -0.301 -0.012 c -0.156 0.027 -0.258 0.027 -0.285 0 c -0.023 -0.027 -0.094 -0.027 -0.168 -0.008 c -0.152 0.047 -0.355 0.047 -0.488 0 c -0.059 -0.02 -0.152 -0.02 -0.211 -0.004 c -0.086 0.023 -0.105 0.055 -0.105 0.184 c 0 0.176 0.055 0.219 0.219 0.184 c 0.063 -0.012 0.191 -0.027 0.289 -0.035 m -6.227 -0.043 c 0 -0.066 -0.215 -0.18 -0.27 -0.145 c -0.023 0.016 -0.039 0.066 -0.039 0.113 c 0 0.074 0.031 0.09 0.152 0.09 c 0.094 0 0.156 -0.02 0.156 -0.059 m 2.578 -0.004 c 0.012 -0.039 0.059 -0.055 0.105 -0.043 c 0.102 0.027 0.168 -0.105 0.09 -0.184 c -0.035 -0.043 -0.07 -0.039 -0.133 0 c -0.047 0.031 -0.113 0.047 -0.148 0.031 c -0.09 -0.035 -0.129 0.055 -0.074 0.164 c 0.055 0.109 0.125 0.121 0.16 0.031 m -3.07 -0.133 c 0.012 -0.063 -0.172 -0.176 -0.199 -0.121 c -0.008 0.008 -0.035 -0.016 -0.066 -0.059 c -0.031 -0.043 -0.113 -0.09 -0.18 -0.105 c -0.066 -0.016 -0.121 -0.059 -0.121 -0.098 c 0 -0.098 -0.121 -0.086 -0.172 0.02 c -0.035 0.07 -0.023 0.102 0.066 0.164 c 0.063 0.043 0.184 0.09 0.266 0.105 c 0.082 0.012 0.148 0.051 0.148 0.086 c 0 0.117 0.234 0.125 0.258 0.008 m 3.504 -0.109 c 0 -0.055 -0.035 -0.094 -0.098 -0.102 c -0.109 -0.016 -0.133 0.074 -0.047 0.168 c 0.074 0.074 0.145 0.043 0.145 -0.066 m 0.094 -0.145 c -0.047 -0.047 -0.082 0.023 -0.047 0.086 c 0.027 0.047 0.039 0.047 0.055 0 c 0.012 -0.031 0.008 -0.07 -0.008 -0.086 m 0.238 -0.012 c 0 -0.055 -0.031 -0.109 -0.07 -0.125 c -0.09 -0.035 -0.121 0.008 -0.086 0.121 c 0.035 0.125 0.156 0.125 0.156 0.004 m 0.195 -0.047 c 0.035 -0.055 -0.051 -0.23 -0.113 -0.23 c -0.07 0 -0.098 0.133 -0.039 0.207 c 0.063 0.082 0.117 0.09 0.152 0.023 m -1.359 -2.598 c 0.051 -0.055 0.055 -0.094 0.02 -0.199 c -0.059 -0.164 -0.012 -0.219 0.074 -0.082 c 0.098 0.152 0.207 0.129 0.34 -0.074 c 0.184 -0.281 0.242 -0.605 0.102 -0.605 c -0.027 0 -0.027 -0.023 0.004 -0.063 c 0.031 -0.039 0.039 -0.23 0.023 -0.563 c -0.027 -0.629 -0.121 -0.906 -0.418 -1.246 c -0.848 -0.977 -2.348 -0.637 -2.723 0.613 c -0.109 0.371 -0.109 0.66 0 1.031 c 0.207 0.699 0.73 1.098 1.559 1.195 c 0.242 0.027 0.449 0.063 0.465 0.074 c 0.047 0.055 0.492 -0.012 0.555 -0.082 m 5.05 -1.332 c 0.051 -0.082 -0.02 -0.148 -0.09 -0.09 c -0.035 0.031 -0.051 0.07 -0.039 0.094 c 0.035 0.055 0.098 0.055 0.129 -0.004 m -0.004 -1.027 c -0.012 -0.02 -0.051 -0.035 -0.086 -0.035 c -0.051 0 -0.055 0.016 -0.008 0.09 c 0.035 0.063 0.063 0.074 0.086 0.035 c 0.016 -0.027 0.02 -0.07 0.008 -0.09 m 0.371 -0.211 c -0.066 -0.145 -0.234 -0.242 -0.48 -0.277 c -0.25 -0.035 -0.215 0.063 0.047 0.129 c 0.227 0.055 0.324 0.137 0.375 0.32 c 0.031 0.098 0.039 0.102 0.074 0.031 c 0.027 -0.051 0.023 -0.117 -0.016 -0.203 m -11.453 -2.301 c 0.438 -0.707 1.07 -1.383 1.738 -1.848 c 1 -0.703 1.926 -1 3.367 -1.078 l 0.613 -0.035 l -0.238 -0.059 c -0.336 -0.082 -1.227 -0.07 -1.672 0.016 c -1.148 0.23 -2.098 0.742 -2.949 1.582 c -0.652 0.641 -1.156 1.441 -1.406 2.219 c -0.16 0.504 -0.094 0.469 0.188 -0.102 c 0.148 -0.305 0.313 -0.617 0.359 -0.695 m 8.125 -0.469 c 0.082 -0.074 0.109 -0.203 0.047 -0.199 c -0.074 0.004 -0.238 0.176 -0.211 0.223 c 0.039 0.07 0.07 0.066 0.164 -0.023 m -6.082 -0.156 c 0.109 -0.102 0.281 -0.23 0.387 -0.285 c 0.105 -0.055 0.188 -0.117 0.188 -0.137 c 0 -0.02 0.027 -0.039 0.063 -0.039 c 0.031 0 0.086 -0.031 0.113 -0.07 c 0.047 -0.055 0.043 -0.09 -0.016 -0.184 c -0.07 -0.109 -0.246 -0.164 -0.246 -0.074 c 0 0.023 -0.078 0.082 -0.168 0.133 c -0.094 0.055 -0.227 0.148 -0.293 0.215 c -0.07 0.066 -0.148 0.121 -0.18 0.121 c -0.031 0 -0.066 0.031 -0.078 0.066 c -0.016 0.039 -0.059 0.07 -0.094 0.07 c -0.098 0 -0.09 0.262 0.008 0.32 c 0.109 0.066 0.102 0.07 0.316 -0.137 m 5.84 -0.117 c 0.102 -0.164 0.016 -0.25 -0.113 -0.105 c -0.098 0.109 -0.109 0.145 -0.063 0.195 c 0.055 0.055 0.102 0.031 0.176 -0.09 m -6.145 -0.238 c 0.754 -0.605 1.699 -1.023 2.656 -1.168 c 0.266 -0.043 0.266 -0.043 -0.082 -0.023 c -0.941 0.055 -2.01 0.551 -2.75 1.273 c -0.273 0.27 -0.238 0.254 0.176 -0.082 m 5.855 0.031 c 0.055 -0.117 0.023 -0.238 -0.059 -0.203 c -0.078 0.031 -0.172 0.199 -0.141 0.254 c 0.043 0.074 0.145 0.051 0.199 -0.051 m -0.328 -0.254 c 0.016 -0.066 0.016 -0.129 0 -0.145 c -0.043 -0.047 -0.16 0.082 -0.16 0.176 c 0 0.129 0.125 0.105 0.16 -0.031 m -4.176 -0.063 c 0.043 -0.023 0.117 -0.059 0.168 -0.078 c 0.047 -0.02 0.176 -0.07 0.285 -0.109 c 0.227 -0.09 0.254 -0.16 0.133 -0.324 c -0.066 -0.094 -0.098 -0.105 -0.141 -0.059 c -0.031 0.031 -0.098 0.059 -0.152 0.059 c -0.055 0 -0.109 0.02 -0.125 0.043 c -0.016 0.023 -0.055 0.031 -0.086 0.02 c -0.035 -0.016 -0.086 0.016 -0.109 0.07 c -0.031 0.055 -0.078 0.082 -0.113 0.066 c -0.102 -0.039 -0.129 0.109 -0.047 0.238 c 0.078 0.129 0.082 0.133 0.191 0.074 m 3.371 -0.266 c 0.035 -0.102 -0.051 -0.203 -0.176 -0.203 c -0.055 0 -0.113 -0.02 -0.129 -0.043 c -0.016 -0.027 -0.086 -0.047 -0.156 -0.047 c -0.07 0 -0.129 -0.02 -0.129 -0.039 c 0 -0.023 -0.121 -0.063 -0.266 -0.086 c -0.246 -0.043 -0.273 -0.039 -0.371 0.059 l -0.105 0.102 l 0.098 0.051 c 0.051 0.027 0.23 0.082 0.402 0.117 c 0.168 0.039 0.375 0.086 0.461 0.113 c 0.234 0.066 0.34 0.059 0.371 -0.023 m -1.406 -0.207 c 0.027 -0.027 0.027 -0.07 -0.004 -0.121 c -0.035 -0.059 -0.113 -0.082 -0.305 -0.09 c -0.141 -0.004 -0.313 -0.02 -0.379 -0.031 c -0.082 -0.02 -0.125 -0.004 -0.145 0.047 c -0.02 0.059 -0.039 0.063 -0.094 0.016 c -0.105 -0.094 -0.18 0.012 -0.113 0.164 l 0.055 0.121 l 0.469 -0.027 c 0.262 -0.02 0.492 -0.051 0.516 -0.078 m 6.207 -0.109 c 0.059 -0.063 0.109 -0.133 0.109 -0.16 c 0 -0.027 0.02 -0.047 0.043 -0.047 c 0.023 0 0.043 0.031 0.043 0.07 c 0 0.109 0.121 0.133 0.242 0.047 c 0.063 -0.039 0.109 -0.055 0.109 -0.031 c 0 0.023 0.031 0.055 0.066 0.066 c 0.098 0.043 0.242 -0.148 0.242 -0.32 c 0 -0.188 -0.09 -0.266 -0.258 -0.227 c -0.074 0.016 -0.141 0.008 -0.156 -0.02 c -0.051 -0.086 -0.195 -0.055 -0.25 0.051 l -0.051 0.102 l -0.063 -0.125 c -0.121 -0.25 -0.352 -0.281 -0.547 -0.082 c -0.098 0.105 -0.125 0.18 -0.125 0.328 c 0 0.152 0.027 0.223 0.125 0.328 c 0.16 0.168 0.324 0.176 0.469 0.02 m -0.316 -0.227 c -0.039 -0.113 0.004 -0.281 0.074 -0.281 c 0.043 0 0.07 0.055 0.078 0.172 c 0.012 0.133 -0.004 0.172 -0.055 0.172 c -0.039 0 -0.082 -0.027 -0.098 -0.063 m -1.051 0.191 c 0.07 -0.105 0.09 -0.266 0.035 -0.266 c -0.055 0 -0.273 0.309 -0.242 0.34 c 0.051 0.059 0.141 0.027 0.207 -0.074 m -11.121 -0.68 c 0.387 -0.25 0.078 -0.926 -0.34 -0.742 c -0.133 0.059 -0.262 0.25 -0.262 0.391 c 0 0.141 0.109 0.32 0.238 0.379 c 0.18 0.078 0.199 0.078 0.363 -0.027 m 10.836 -0.094 c 0 -0.18 -0.055 -0.277 -0.109 -0.188 c -0.035 0.063 0.023 0.371 0.07 0.371 c 0.023 0 0.039 -0.082 0.039 -0.184 m 2.5 -1.238 c -0.016 -0.152 -0.148 -0.195 -0.188 -0.063 c -0.039 0.125 0.004 0.191 0.113 0.191 c 0.07 0 0.086 -0.027 0.074 -0.129 m -6.16 0.023 l 0.426 -0.059 l -0.242 -0.027 c -0.324 -0.043 -1.855 -0.043 -2.133 0 l -0.219 0.031 l 0.328 0.051 c 0.469 0.07 1.34 0.07 1.84 0.004 m 3.699 -0.77 c 0.016 -0.129 -0.074 -0.207 -0.156 -0.137 c -0.063 0.055 -0.078 0.188 -0.027 0.242 c 0.063 0.063 0.168 0 0.184 -0.105 m -0.371 -0.047 c 0.031 -0.059 -0.051 -0.113 -0.109 -0.074 c -0.047 0.031 -0.016 0.117 0.047 0.117 c 0.02 0 0.051 -0.02 0.063 -0.043 m -14.793 2.773 c -0.223 -0.148 -0.184 -0.211 0.141 -0.211 c 0.25 0 0.301 -0.016 0.449 -0.141 c 0.09 -0.078 0.203 -0.223 0.25 -0.32 l 0.09 -0.176 l -0.098 -0.086 c -0.227 -0.191 -0.621 -0.148 -0.879 0.098 c -0.082 0.078 -0.16 0.133 -0.172 0.121 c -0.035 -0.039 0.133 -0.297 0.25 -0.387 c 0.34 -0.266 0.785 -0.246 1.059 0.039 c 0.109 0.117 0.133 0.176 0.133 0.367 c 0 0.188 -0.023 0.254 -0.141 0.391 c -0.285 0.344 -0.805 0.488 -1.082 0.305 m -1.023 -1.82 c 0 -0.063 0.199 -0.238 0.398 -0.348 c 0.168 -0.098 0.723 -0.094 0.824 0.004 c 0.047 0.043 0.105 0.078 0.129 0.078 c 0.066 0 0.164 0.137 0.129 0.172 c -0.016 0.02 -0.133 -0.023 -0.262 -0.094 c -0.371 -0.195 -0.676 -0.164 -0.988 0.109 c -0.176 0.152 -0.23 0.168 -0.23 0.078 m 2.93 -0.59 c 0.055 -0.066 0.094 -0.078 0.125 -0.043 c 0.055 0.055 -0.035 0.137 -0.145 0.137 c -0.047 0 -0.043 -0.023 0.02 -0.094 m 1.484 -0.168 c 0.039 -0.043 0.086 -0.066 0.102 -0.051 c 0.043 0.047 -0.023 0.129 -0.105 0.129 c -0.066 0 -0.066 -0.008 0.004 -0.078 m 1.426 -0.16 c 0.098 -0.102 0.203 -0.082 0.16 0.031 c -0.012 0.039 -0.074 0.066 -0.141 0.066 h -0.113 m 1.535 -0.25 c 0.164 -0.141 0.199 -0.145 0.199 -0.031 c 0 0.094 -0.082 0.145 -0.234 0.145 c -0.086 0 -0.086 -0.012 0.035 -0.113" fill="#363636"/><path d="m 6.688 24.523 c -0.332 -0.051 -0.664 -0.191 -0.785 -0.332 c -0.09 -0.105 -0.188 -0.363 -0.184 -0.488 c 0 -0.039 0.027 0.012 0.063 0.113 c 0.082 0.238 0.23 0.371 0.539 0.473 c 0.223 0.07 0.438 0.082 1.77 0.078 c 1.055 0 1.574 -0.02 1.703 -0.059 c 0.406 -0.125 0.828 -0.563 0.934 -0.969 c 0.027 -0.094 0.039 -0.172 0.035 -0.18 c -0.008 -0.008 -0.086 0.09 -0.176 0.215 c -0.102 0.141 -0.199 0.23 -0.254 0.23 c -0.086 0 -0.086 -0.039 -0.074 -4.957 l 0.012 -4.961 l 0.262 -0.023 l 0.266 -0.023 l 0.023 -0.578 l 0.02 -0.578 l 0.078 0.148 c 0.043 0.082 0.094 0.277 0.113 0.43 c 0.02 0.152 0.051 0.293 0.07 0.313 c 0.035 0.035 1.195 0.023 1.418 -0.02 c 0.184 -0.031 0.438 0.059 0.52 0.184 c 0.098 0.148 0.086 0.301 -0.086 0.895 c -0.086 0.297 -0.203 0.789 -0.262 1.098 c -0.109 0.551 -0.23 1.633 -0.191 1.676 c 0.012 0.008 0.156 -0.293 0.32 -0.676 c 0.164 -0.383 0.316 -0.691 0.336 -0.691 c 0.023 0 0.039 0.398 0.043 0.887 c 0 0.836 0.031 1.137 0.098 1.023 c 0.016 -0.027 0.066 -0.242 0.117 -0.484 c 0.391 -1.848 1.246 -3.188 2.633 -4.133 c 1.367 -0.926 3 -1.172 4.801 -0.719 c 0.203 0.051 0.383 0.082 0.395 0.066 c 0.012 -0.012 -0.004 -0.066 -0.035 -0.117 c -0.047 -0.082 -0.043 -0.098 0.047 -0.121 c 0.055 -0.016 0.379 -0.129 0.719 -0.254 c 0.34 -0.121 0.645 -0.227 0.68 -0.234 c 0.039 -0.004 0.117 0.09 0.184 0.223 c 0.125 0.234 0.449 1.141 0.609 1.688 c 0.059 0.215 0.148 0.379 0.293 0.559 c 0.414 0.508 0.738 1.117 1 1.895 l 0.148 0.438 l -0.02 -0.371 c -0.102 -1.785 -0.461 -4.121 -0.73 -4.727 c -0.055 -0.121 -0.25 -0.355 -0.523 -0.617 c -0.238 -0.234 -0.434 -0.453 -0.434 -0.488 c 0 -0.082 0.063 -0.082 0.129 0.008 c 0.031 0.035 0.094 0.066 0.137 0.066 c 0.043 0 0.133 0.031 0.203 0.066 c 0.371 0.191 0.555 0.254 0.805 0.277 c 0.063 0.008 0.156 0.039 0.215 0.07 c 0.055 0.031 0.141 0.047 0.184 0.035 c 0.047 -0.012 0.105 0.008 0.133 0.043 c 0.031 0.035 0.109 0.066 0.184 0.066 c 0.07 0 0.16 0.031 0.199 0.07 c 0.039 0.043 0.113 0.066 0.172 0.055 c 0.055 -0.012 0.125 0.008 0.152 0.043 c 0.027 0.031 0.113 0.063 0.188 0.063 c 0.078 0 0.168 0.023 0.195 0.055 c 0.031 0.035 0.125 0.059 0.211 0.059 c 0.141 0 0.164 0.02 0.215 0.18 c 0.031 0.098 0.121 0.254 0.195 0.348 c 0.078 0.094 0.184 0.262 0.234 0.375 l 0.098 0.207 v 10.5 l -0.117 0.258 c -0.156 0.352 -0.391 0.613 -0.688 0.77 l -0.25 0.129 l -2.816 0.023 c -2.133 0.023 -2.871 0.043 -3.035 0.09 c -0.34 0.094 -1.801 0.086 -2.223 -0.016 c -0.293 -0.066 -0.703 -0.078 -3.84 -0.078 h -3.508 l -0.238 0.168 c -0.406 0.281 -0.5 0.297 -2 0.289 c -0.742 0 -1.477 -0.023 -1.629 -0.047 m 13.195 -1.082 c 1.313 -0.223 2.484 -0.973 3.309 -2.121 c 0.262 -0.363 0.617 -1.078 0.758 -1.516 c 0.336 -1.066 0.328 -2.391 -0.023 -3.441 c -0.613 -1.844 -2.035 -3.152 -3.879 -3.563 c -0.504 -0.113 -1.504 -0.109 -2.01 0.004 c -1.055 0.238 -1.945 0.766 -2.695 1.594 c -0.93 1.027 -1.406 2.277 -1.406 3.707 c -0.004 1.984 0.965 3.727 2.629 4.727 c 0.418 0.25 1.102 0.508 1.559 0.586 c 0.184 0.031 0.359 0.063 0.398 0.07 c 0.203 0.043 1 0.016 1.363 -0.047 m -1.574 -0.09 c -1.246 -0.238 -2.355 -0.941 -3.094 -1.961 c -0.301 -0.414 -0.695 -1.262 -0.727 -1.555 c -0.023 -0.266 0.047 -0.453 0.188 -0.473 c 0.07 -0.012 0.105 0.027 0.168 0.207 c 0.285 0.82 0.832 1.613 1.492 2.148 c 1.16 0.945 2.648 1.242 3.984 0.797 c 0.363 -0.117 0.953 -0.52 1.469 -1 c 0.582 -0.535 1.098 -1.422 1.313 -2.234 c 0.082 -0.309 0.098 -0.484 0.098 -1.125 c 0 -0.699 -0.012 -0.801 -0.121 -1.18 c -0.223 -0.773 -0.641 -1.504 -1.133 -1.988 c -0.145 -0.145 -0.129 -0.117 0.066 0.113 c 0.879 1.043 1.266 2.273 1.078 3.469 c -0.055 0.355 -0.148 0.602 -0.352 0.891 c -0.082 0.117 -0.25 0.395 -0.371 0.617 c -0.652 1.195 -1.82 1.957 -3.121 2.031 c -0.219 0.012 -0.555 0.047 -0.75 0.074 c -0.445 0.063 -0.844 -0.02 -1.305 -0.262 c -1.031 -0.543 -1.742 -1.445 -2.09 -2.645 c -0.105 -0.363 -0.117 -0.484 -0.121 -1.125 c -0.004 -0.609 0.012 -0.77 0.098 -1.105 c 0.414 -1.594 1.563 -2.766 3.09 -3.156 c 0.109 -0.027 0.465 -0.066 0.789 -0.086 l 0.598 -0.035 l -0.641 0.016 c -0.711 0.02 -1.043 0.09 -1.695 0.363 c -0.629 0.27 -0.547 0.129 0.133 -0.223 c 0.648 -0.336 1.02 -0.418 1.848 -0.414 c 0.625 0.004 0.758 0.016 1.145 0.129 c 0.621 0.18 1.496 0.676 1.75 0.996 c 0.105 0.129 0.18 0.121 0.313 -0.043 l 0.109 -0.137 l 0.273 0.309 c 1.164 1.305 1.574 3.27 1.043 5.01 c -0.492 1.621 -1.625 2.836 -3.156 3.383 c -0.723 0.258 -1.652 0.336 -2.367 0.199 m 0.805 -0.254 c 0 -0.152 -0.008 -0.16 -0.156 -0.168 c -0.082 0 -0.277 -0.016 -0.426 -0.035 c -0.242 -0.027 -0.277 -0.02 -0.32 0.063 c -0.063 0.125 -0.063 0.125 0.09 0.207 c 0.094 0.047 0.199 0.063 0.324 0.043 c 0.125 -0.02 0.199 -0.008 0.223 0.027 c 0.016 0.027 0.082 0.047 0.148 0.039 c 0.102 -0.012 0.117 -0.035 0.117 -0.176 m 0.477 0.152 c 0.016 -0.016 0.125 -0.035 0.238 -0.043 c 0.113 -0.008 0.227 -0.043 0.25 -0.074 c 0.027 -0.035 0.082 -0.055 0.125 -0.043 c 0.055 0.012 0.074 -0.016 0.074 -0.098 c 0 -0.148 -0.109 -0.25 -0.191 -0.18 c -0.031 0.031 -0.07 0.043 -0.082 0.027 c -0.016 -0.016 -0.055 -0.012 -0.086 0.012 c -0.059 0.039 -0.078 0.043 -0.332 0.055 c -0.168 0.008 -0.211 0.078 -0.145 0.254 c 0.043 0.121 0.09 0.152 0.148 0.09 m -1.52 -0.293 c 0.008 -0.094 -0.016 -0.125 -0.129 -0.172 c -0.105 -0.043 -0.156 -0.043 -0.203 -0.004 c -0.094 0.082 -0.047 0.238 0.078 0.277 c 0.172 0.051 0.238 0.023 0.254 -0.102 m 2.559 0.047 c 0 -0.023 0.051 -0.043 0.109 -0.043 c 0.059 0 0.121 -0.023 0.133 -0.047 c 0.016 -0.027 0.066 -0.047 0.109 -0.047 c 0.043 0 0.09 -0.031 0.105 -0.066 c 0.012 -0.039 0.094 -0.082 0.18 -0.098 c 0.086 -0.02 0.156 -0.051 0.156 -0.074 c 0 -0.02 0.039 -0.039 0.082 -0.039 c 0.105 0 0.152 -0.117 0.094 -0.234 c -0.059 -0.113 -0.156 -0.109 -0.328 0.004 c -0.133 0.09 -0.262 0.156 -0.465 0.242 c -0.059 0.023 -0.145 0.063 -0.184 0.086 c -0.043 0.023 -0.105 0.039 -0.145 0.039 c -0.066 0 -0.086 0.121 -0.039 0.25 c 0.027 0.082 0.191 0.105 0.191 0.027 m -3.086 -0.055 c 0.027 -0.031 0.051 -0.102 0.051 -0.16 c 0 -0.09 -0.055 -0.133 -0.285 -0.246 c -0.156 -0.074 -0.285 -0.16 -0.285 -0.184 c 0 -0.027 -0.035 -0.047 -0.074 -0.047 c -0.082 0 -0.234 0.129 -0.234 0.199 c 0 0.086 0.215 0.25 0.371 0.281 c 0.086 0.02 0.156 0.047 0.156 0.066 c 0 0.027 0.152 0.125 0.223 0.141 c 0.012 0.004 0.047 -0.02 0.078 -0.051 m 2.227 -1.492 c 0.387 -0.086 1.031 -0.418 1.344 -0.691 c 0.344 -0.297 0.641 -0.688 0.816 -1.07 c 0.195 -0.418 0.199 -0.551 0.004 -0.176 c -0.574 1.125 -1.457 1.723 -2.688 1.824 c -0.27 0.02 -0.535 0.055 -0.594 0.074 l -0.113 0.035 l 0.113 0.031 c 0.191 0.059 0.801 0.043 1.117 -0.027 m 0.027 -1.344 c 0.359 -0.094 0.527 -0.16 0.527 -0.215 c 0 -0.023 0.059 -0.063 0.129 -0.09 c 0.246 -0.09 0.531 -0.719 0.613 -1.371 c 0.105 -0.801 -0.328 -1.672 -1.023 -2.039 c -1.102 -0.59 -2.418 0.039 -2.742 1.313 c -0.164 0.652 0.039 1.41 0.52 1.914 c 0.516 0.543 1.156 0.699 1.977 0.488 m -3.758 -3.652 c 0.414 -0.707 0.914 -1.211 1.531 -1.535 c 0.23 -0.121 1.324 -0.465 1.516 -0.477 c 0.016 0 -0.004 -0.02 -0.039 -0.043 c -0.098 -0.059 -0.746 0.027 -1.07 0.141 c -0.566 0.199 -0.949 0.453 -1.418 0.945 c -0.379 0.391 -0.473 0.523 -0.625 0.855 c -0.102 0.215 -0.195 0.445 -0.207 0.508 l -0.027 0.117 l 0.09 -0.117 c 0.047 -0.063 0.16 -0.238 0.25 -0.395 m 5.691 -1.656 c 0 -0.008 -0.043 -0.055 -0.098 -0.105 l -0.102 -0.086 l 0.086 0.105 c 0.078 0.098 0.113 0.125 0.113 0.086 m -0.242 -0.215 c -0.016 -0.023 -0.07 -0.066 -0.125 -0.094 c -0.082 -0.043 -0.078 -0.039 0.016 0.043 c 0.121 0.105 0.148 0.117 0.109 0.051 m -0.57 -0.371 c -0.016 -0.023 -0.051 -0.047 -0.082 -0.043 c -0.031 0 -0.023 0.016 0.016 0.043 c 0.082 0.059 0.098 0.059 0.066 0 m -0.289 -0.137 c -0.035 -0.027 -0.086 -0.047 -0.109 -0.047 c -0.023 0 -0.012 0.02 0.023 0.047 c 0.035 0.023 0.086 0.043 0.109 0.043 c 0.023 0 0.016 -0.02 -0.023 -0.043 m -0.449 -0.168 c -0.016 -0.016 -0.055 -0.016 -0.086 -0.004 c -0.035 0.016 -0.023 0.027 0.027 0.027 c 0.047 0.004 0.074 -0.008 0.059 -0.023 m -0.176 -0.047 c -0.016 -0.016 -0.055 -0.016 -0.086 -0.004 c -0.035 0.016 -0.023 0.027 0.027 0.027 c 0.047 0.004 0.07 -0.008 0.059 -0.023 m -0.242 -0.047 c -0.031 -0.016 -0.078 -0.016 -0.109 0 c -0.031 0.012 -0.008 0.023 0.055 0.023 c 0.059 0 0.086 -0.012 0.055 -0.023 m -6.785 9.602 c 0.113 -0.063 0.109 -0.133 -0.027 -0.527 c -0.961 -2.773 -1.043 -5.813 -0.234 -8.578 c 0.074 -0.242 0.125 -0.496 0.121 -0.559 c -0.016 -0.113 -0.02 -0.117 -0.477 -0.129 c -0.254 -0.008 -0.527 -0.004 -0.605 0.012 l -0.145 0.027 l 0.012 4.863 l 0.012 4.867 l 0.133 0.027 c 0.219 0.051 1.121 0.047 1.211 -0.008 m 11.352 -0.379 c 0.359 0.027 0.629 0.012 0.684 -0.035 c 0.039 -0.035 0.063 -0.035 0.082 0 c 0.016 0.023 0.18 0.047 0.367 0.047 c 0.188 0 0.367 0.004 0.406 0.008 c 0.156 0.02 0.219 -0.012 0.219 -0.098 c 0 -0.051 -0.02 -0.094 -0.043 -0.094 c -0.027 0 -0.066 -0.051 -0.09 -0.117 c -0.039 -0.113 -0.219 -0.168 -0.219 -0.063 c 0 0.035 -0.02 0.035 -0.066 -0.004 c -0.059 -0.055 -0.801 -0.074 -1.34 -0.035 c -0.109 0.008 -0.246 0 -0.305 -0.023 c -0.211 -0.078 -0.352 0.07 -0.293 0.313 c 0.027 0.121 0.121 0.156 0.289 0.113 c 0.059 -0.016 0.199 -0.02 0.309 -0.012 m -0.328 -0.867 c 0.035 -0.031 0.105 -0.152 0.152 -0.27 c 0.125 -0.293 0.398 -1.125 0.379 -1.148 c -0.008 -0.008 -0.109 0.148 -0.219 0.352 c -0.113 0.203 -0.336 0.547 -0.492 0.766 c -0.156 0.215 -0.285 0.414 -0.285 0.438 c 0 0.055 0.371 -0.055 0.465 -0.137 m 1.277 -3.566 c 0.016 -0.031 0.035 -0.293 0.035 -0.586 c 0.004 -0.512 0 -0.527 -0.098 -0.57 c -0.246 -0.098 -0.289 -0.016 -0.141 0.273 c 0.102 0.199 0.113 0.426 0.027 0.602 c -0.031 0.07 -0.074 0.172 -0.09 0.23 c -0.027 0.094 -0.016 0.105 0.102 0.105 c 0.074 0 0.145 -0.027 0.164 -0.055 m 0.43 -0.836 c 0.102 -0.395 -0.027 -0.641 -0.387 -0.75 c -0.324 -0.098 -0.387 -0.094 -0.371 0.031 c 0.012 0.078 0.063 0.113 0.227 0.156 c 0.27 0.07 0.328 0.129 0.363 0.336 c 0.055 0.352 0.113 0.43 0.168 0.227 m -0.188 -4.621 c 0.031 -0.066 0.059 -0.078 0.102 -0.043 c 0.055 0.047 0.41 0.059 0.563 0.02 c 0.043 -0.012 0.098 -0.102 0.129 -0.199 c 0.043 -0.152 0.039 -0.199 -0.02 -0.293 c -0.059 -0.094 -0.102 -0.109 -0.355 -0.113 c -0.16 0 -0.301 0.016 -0.316 0.043 c -0.016 0.023 -0.074 -0.008 -0.129 -0.074 c -0.191 -0.215 -0.508 -0.141 -0.621 0.141 c -0.113 0.285 0.02 0.621 0.27 0.676 c 0.129 0.027 0.324 -0.055 0.379 -0.156 m -0.328 -0.164 c -0.059 -0.059 -0.031 -0.289 0.035 -0.289 c 0.047 0 0.066 0.043 0.066 0.133 c 0 0.137 -0.051 0.215 -0.102 0.156 m -10.543 0.879 c 0 -0.07 0.332 -1.082 0.508 -1.539 c 0.188 -0.488 0.316 -0.738 0.375 -0.738 c 0.023 0 0.227 0.082 0.449 0.184 c 0.227 0.102 0.555 0.23 0.727 0.289 c 0.172 0.055 0.316 0.113 0.316 0.125 c 0 0.016 -0.25 0.156 -0.551 0.316 c -0.586 0.313 -1.047 0.648 -1.527 1.117 c -0.164 0.156 -0.297 0.27 -0.297 0.246 m -5.543 -0.797 c 0.582 -0.188 0.809 -0.727 0.395 -0.949 c -0.188 -0.102 -0.563 -0.09 -0.738 0.023 c -0.195 0.125 -0.223 0.113 -0.094 -0.031 c 0.219 -0.25 0.578 -0.316 0.902 -0.16 c 0.211 0.102 0.344 0.344 0.297 0.547 c -0.066 0.309 -0.449 0.617 -0.746 0.609 l -0.129 -0.004 m 14.633 -0.195 c -0.027 -0.035 -0.07 -0.188 -0.098 -0.336 c -0.082 -0.488 0.121 -0.82 0.359 -0.59 c 0.109 0.102 0.191 0.367 0.156 0.508 c -0.035 0.148 -0.094 0.109 -0.129 -0.086 c -0.035 -0.203 -0.145 -0.359 -0.227 -0.324 c -0.086 0.031 -0.086 0.344 0 0.645 c 0.035 0.125 0.066 0.23 0.066 0.238 c 0 0.035 -0.086 0 -0.129 -0.055 m -6.582 -2.258 c -0.094 -0.027 -0.199 -0.055 -0.23 -0.063 c -0.027 -0.008 -0.055 -0.047 -0.055 -0.086 c 0 -0.063 0.266 -0.07 2.309 -0.07 c 1.293 0 2.316 0.016 2.332 0.039 c 0.035 0.059 -0.063 0.129 -0.238 0.168 c -0.238 0.055 -3.91 0.066 -4.117 0.012" fill="#262626"/><path d="m 6.602 24.461 c -0.176 -0.035 -0.336 -0.074 -0.352 -0.094 c -0.016 -0.02 0.02 -0.023 0.082 -0.008 c 0.402 0.098 0.992 0.133 2.141 0.117 c 1.266 -0.016 1.27 -0.016 1.52 -0.137 c 0.332 -0.164 0.605 -0.441 0.762 -0.766 l 0.133 -0.27 l 0.02 -4.645 c 0.023 -4.352 0.043 -5.074 0.137 -4.719 c 0.016 0.063 0.031 2.176 0.035 4.695 c 0.004 4.465 0 4.582 -0.086 4.777 c -0.148 0.352 -0.176 0.34 0.629 0.309 c 0.762 -0.031 0.922 -0.059 0.738 -0.117 c -0.102 -0.031 -0.098 -0.035 0.043 -0.043 c 0.418 -0.012 0.621 -0.063 0.688 -0.168 c 0.063 -0.098 0.055 -0.148 -0.105 -0.633 c -0.199 -0.594 -0.469 -1.688 -0.512 -2.07 c -0.02 -0.176 0.02 -0.066 0.125 0.348 c 0.16 0.645 0.336 1.191 0.543 1.711 c 0.184 0.461 0.199 0.559 0.121 0.715 c -0.035 0.074 -0.09 0.145 -0.121 0.156 c -0.031 0.012 0.18 0.023 0.473 0.027 h 0.527 l 0.25 -0.582 l 0.246 -0.582 l -0.078 -0.145 c -0.043 -0.078 -0.191 -0.32 -0.328 -0.535 c -0.5 -0.777 -0.863 -1.766 -0.859 -2.344 c 0.004 -0.277 0.035 -0.227 0.223 0.336 c 0.48 1.449 1.32 2.602 2.438 3.359 c 1.305 0.879 2.91 1.152 4.426 0.75 c 2.516 -0.664 4.266 -3.02 4.266 -5.754 c 0 -1.637 -0.574 -3.063 -1.742 -4.352 c -0.469 -0.512 -0.574 -0.684 -0.316 -0.512 c 0.73 0.484 1.484 1.488 1.863 2.48 c 0.148 0.387 0.293 0.902 0.348 1.238 c 0.031 0.188 0.039 0.191 0.301 0.238 c 0.254 0.047 0.32 0.145 0.352 0.531 c 0.016 0.199 0.059 0.387 0.102 0.457 c 0.047 0.07 0.078 0.219 0.082 0.348 c 0 0.195 -0.016 0.238 -0.141 0.355 c -0.098 0.094 -0.211 0.145 -0.363 0.164 c -0.121 0.016 -0.238 0.055 -0.258 0.082 c -0.02 0.031 -0.07 0.199 -0.113 0.375 c -0.184 0.781 -0.629 1.734 -1.09 2.336 c -0.113 0.152 -0.258 0.355 -0.32 0.457 c -0.059 0.105 -0.266 0.324 -0.453 0.492 c -0.289 0.262 -0.48 0.406 -1.051 0.793 c -0.063 0.043 0.352 0.059 1.91 0.059 c 2.164 0.004 2.133 0.008 2.465 -0.258 c 0.082 -0.066 0.199 -0.227 0.254 -0.359 l 0.105 -0.234 v -5.145 c 0.004 -5.613 0.012 -5.398 -0.246 -5.504 c -0.07 -0.031 -0.285 -0.074 -0.477 -0.102 c -0.195 -0.027 -0.641 -0.125 -0.992 -0.219 l -0.637 -0.176 l -0.117 -0.23 c -0.07 -0.137 -0.289 -0.402 -0.527 -0.641 c -0.441 -0.438 -0.434 -0.473 0.066 -0.242 c 0.184 0.086 0.285 0.176 0.391 0.328 c 0.074 0.113 0.168 0.215 0.207 0.227 c 0.738 0.23 1.555 0.449 1.828 0.484 c 0.336 0.043 0.355 0.051 0.516 0.246 c 0.352 0.418 0.32 -0.156 0.32 5.816 v 5.34 l -0.117 0.238 c -0.066 0.129 -0.219 0.328 -0.344 0.445 c -0.41 0.391 -0.27 0.371 -3.477 0.406 c -2.027 0.02 -2.902 0.047 -3.059 0.086 c -0.281 0.074 -1.508 0.078 -1.824 0.004 c -0.172 -0.039 -1.328 -0.066 -3.938 -0.09 l -3.699 -0.035 l -0.219 0.156 c -0.414 0.285 -0.461 0.293 -1.996 0.289 c -0.949 -0.004 -1.492 -0.023 -1.715 -0.066 m 18.637 -5.785 c 0.102 -0.027 0.102 -0.039 0.09 -0.633 l -0.012 -0.605 l -0.168 -0.043 c -0.094 -0.023 -0.18 -0.027 -0.195 -0.016 c -0.012 0.016 0 0.18 0.031 0.367 c 0.039 0.25 0.043 0.402 0.008 0.605 c -0.027 0.148 -0.039 0.289 -0.023 0.313 c 0.027 0.047 0.129 0.051 0.27 0.012 m -3.551 3.73 c 0 -0.051 -0.047 -0.125 -0.102 -0.172 l -0.105 -0.078 l 0.32 -0.27 c 0.176 -0.148 0.449 -0.422 0.613 -0.605 c 0.16 -0.184 0.32 -0.348 0.352 -0.367 c 0.086 -0.055 0.285 0.043 0.285 0.137 c 0 0.207 -0.77 1.055 -1.242 1.367 c -0.117 0.078 -0.121 0.078 -0.121 -0.012 m -3.391 -0.512 c -0.629 -0.16 -1.23 -0.516 -1.23 -0.719 c 0 -0.063 0.008 -0.113 0.016 -0.113 c 0.012 0 0.184 0.082 0.387 0.184 c 0.547 0.277 0.977 0.379 1.555 0.379 c 0.992 0 1.813 -0.383 2.496 -1.16 c 0.754 -0.863 1.027 -1.902 0.84 -3.203 c -0.02 -0.152 -0.016 -0.168 0.066 -0.145 c 0.203 0.055 0.348 0.871 0.27 1.527 c -0.105 0.918 -0.449 1.637 -1.082 2.285 c -0.516 0.531 -1.063 0.836 -1.742 0.984 c -0.453 0.098 -1.152 0.09 -1.574 -0.02 m 0.152 -0.734 c -1.012 -0.262 -1.801 -1.016 -2.18 -2.078 c -0.086 -0.238 -0.133 -0.305 -0.242 -0.355 c -0.172 -0.074 -0.207 -0.207 -0.207 -0.762 c 0.008 -1.488 1.01 -2.813 2.418 -3.191 c 0.457 -0.125 1.117 -0.125 1.574 0 c 0.645 0.172 1.215 0.539 1.215 0.781 c 0 0.082 0.047 0.176 0.133 0.262 c 0.238 0.238 0.535 0.68 0.691 1.031 c 0.387 0.875 0.363 1.883 -0.063 2.75 c -0.23 0.469 -0.801 1.059 -1.246 1.293 c -0.66 0.344 -1.422 0.445 -2.094 0.27 m 1.391 -0.699 c 0.727 -0.223 1.363 -0.93 1.535 -1.711 c 0.059 -0.266 0.059 -0.844 0 -1.109 c -0.121 -0.543 -0.535 -1.152 -0.992 -1.461 c -0.48 -0.324 -1.094 -0.445 -1.645 -0.324 c -0.836 0.184 -1.465 0.781 -1.742 1.648 c -0.109 0.344 -0.109 0.984 0.004 1.383 c 0.121 0.434 0.445 0.918 0.805 1.203 c 0.605 0.477 1.281 0.598 2.035 0.371 m -7.434 -0.164 c 0 -0.055 0.012 -0.066 0.027 -0.027 c 0.012 0.031 0.012 0.07 -0.004 0.086 c -0.016 0.016 -0.027 -0.012 -0.023 -0.059 m 2.844 -1.418 c -0.164 -0.129 -0.215 -1.02 -0.094 -1.641 c 0.172 -0.871 0.48 -1.469 1.098 -2.117 c 0.473 -0.496 0.793 -0.723 1.348 -0.949 c 1.184 -0.48 2.633 -0.301 3.613 0.449 c 0.152 0.117 0.207 0.191 0.207 0.277 c 0 0.063 -0.016 0.109 -0.031 0.098 c -0.02 -0.008 -0.203 -0.105 -0.41 -0.219 c -0.738 -0.398 -1.332 -0.543 -2.078 -0.5 c -1.199 0.074 -2.289 0.746 -2.949 1.82 c -0.406 0.656 -0.563 1.23 -0.598 2.18 c -0.027 0.621 -0.031 0.66 -0.105 0.602 m 8.117 -1.082 c -0.145 -1.184 -0.535 -2.039 -1.324 -2.902 c -0.445 -0.48 -0.328 -0.457 0.141 0.031 c 0.496 0.516 0.883 1.18 1.074 1.836 c 0.105 0.359 0.203 1.059 0.18 1.32 c -0.008 0.133 -0.027 0.059 -0.07 -0.285 m -10.875 -2.172 c 0.004 -0.055 0.016 -0.063 0.027 -0.027 c 0.016 0.035 0.012 0.074 -0.004 0.09 c -0.012 0.016 -0.023 -0.012 -0.023 -0.063 m 0.047 -0.23 c 0 -0.055 0.012 -0.066 0.027 -0.027 c 0.012 0.031 0.008 0.074 -0.004 0.09 c -0.016 0.012 -0.027 -0.012 -0.023 -0.063 m 0.043 -0.148 c -0.004 -0.078 0.191 -0.895 0.281 -1.16 c 0.117 -0.355 0.063 -0.523 -0.195 -0.574 c -0.094 -0.016 -0.09 -0.02 0.031 -0.027 c 0.152 -0.004 0.32 0.125 0.32 0.25 c 0 0.039 -0.09 0.367 -0.195 0.73 c -0.105 0.359 -0.203 0.699 -0.215 0.75 c -0.012 0.051 -0.023 0.063 -0.027 0.031 m -2.957 -3.121 c -0.145 -0.109 -0.484 -0.152 -0.711 -0.086 c -0.195 0.055 -0.207 0.035 -0.035 -0.063 c 0.254 -0.137 0.676 -0.066 0.84 0.137 c 0.086 0.113 0.035 0.117 -0.098 0.012" fill="#111"/></svg>