<svg xmlns="http://www.w3.org/2000/svg" xmlns:xlink="http://www.w3.org/1999/xlink" viewBox="0 0 32 32"><defs><g id="3" clip-path="url(#2)"><path d="m -206.88 171.04 c -2.214 -0.714 -8.413 -4.366 -23.404 -13.654 c -15.751 -9.844 -21.06 -13.495 -29.03 -19.767 c -5.693 -4.525 -14.738 -13.178 -18.15 -17.306 c -7.085 -8.732 -13.22 -20.799 -19.419 -38.03 c -0.633 -1.746 -1.265 -3.255 -1.328 -3.255 c -0.127 0 -0.316 0.318 -0.443 0.635 c -0.316 1.032 -3.479 4.049 -5.06 4.763 c -2.087 0.953 -5.946 1.191 -8.476 0.476 c -10.5 -3.02 -20.748 -16.12 -25.302 -32.23 c -3.1 -11.273 -3.795 -24.768 -1.645 -32.23 l 0.696 -2.461 l -0.822 -0.873 c -5.377 -5.795 -10.374 -11.749 -13.916 -16.433 c -1.961 -2.62 -2.404 -3.493 -1.645 -3.493 c 0.253 0 2.72 2.064 5.503 4.604 c 2.783 2.54 5.124 4.525 5.187 4.446 c 0.38 -0.318 -6.832 -10.241 -10.564 -14.607 c -2.72 -3.255 -3.732 -5.081 -3.985 -7.07 c -0.253 -2.223 0.949 -4.525 4.681 -8.653 c 1.645 -1.826 3.036 -3.493 3.036 -3.652 c 0 -0.794 -16.383 -29.05 -16.699 -28.737 c -0.063 0.079 1.075 3.572 2.467 7.859 c 2.53 7.78 2.783 9.129 1.328 7.78 c -0.886 -0.714 -3.226 -4.684 -5.377 -8.971 c -3.859 -7.78 -8.413 -18.576 -16.699 -39.772 c -3.036 -7.621 -6.073 -15.401 -6.832 -17.306 c -1.518 -3.652 -2.024 -6.113 -1.708 -8.494 c 0.506 -3.731 16 -37.15 24.353 -52.632 c 6.958 -12.781 12.904 -22.15 18.471 -29.13 c 2.846 -3.572 4.112 -4.207 2.657 -1.429 c -0.759 1.588 -2.593 6.51 -2.593 7.145 c 0 0.159 3.922 -3.572 8.666 -8.256 c 9.299 -9.209 13.473 -13.1 19.989 -18.735 c 8.856 -7.542 16.193 -13.178 24.733 -18.894 c 9.362 -6.192 10.247 -6.51 7.78 -2.62 c -0.316 0.556 -0.569 1.032 -0.506 1.111 c 0.063 0.079 1.392 -0.556 2.973 -1.508 c 2.72 -1.588 3.859 -1.905 3.859 -1.27 c 0 0.159 -1.265 2.223 -2.783 4.525 c -1.581 2.382 -3.985 6.271 -5.44 8.732 c -5.124 8.812 -14.232 25.483 -14.232 26.12 c 0 0.159 2.783 -2.62 6.199 -6.113 c 3.353 -3.493 6.389 -6.43 6.705 -6.589 c 1.265 -0.714 0.633 0.556 -2.973 6.03 c -9.109 13.734 -13.6 23.02 -15.751 32.548 c -0.886 4.049 -0.949 12.225 -0.127 16.04 c 2.404 10.717 9.552 22.863 19.989 33.659 c 13.347 13.813 26.377 14.607 38.4 2.302 c 4.997 -5.081 10.121 -13.178 16.383 -25.959 c 7.148 -14.607 11.259 -27.785 11.259 -35.803 c -0.063 -4.525 -2.214 -8.574 -7.527 -13.813 c -4.618 -4.684 -12.02 -10 -15.561 -11.273 c -1.139 -0.397 -1.392 -0.397 -2.404 0.159 c -1.645 0.873 -5.503 3.652 -9.299 6.827 c -4.365 3.652 -13.22 12.543 -16.257 16.195 c -1.328 1.746 -2.467 2.778 -2.783 2.778 c -0.506 0 -0.569 -0.159 -0.38 -1.905 c 0.443 -4.049 2.593 -9.844 5.756 -15.56 c 3.606 -6.351 9.172 -14.05 22.772 -31.28 c 0.506 -0.714 0.822 -0.794 1.139 -0.635 c 2.783 1.985 5.06 3.175 11.196 6.03 c 3.922 1.826 8.539 4.049 10.184 4.842 c 1.645 0.873 3.036 1.508 3.1 1.508 c 0.19 -0.238 -2.34 -5.081 -3.922 -7.462 c -0.759 -1.191 -1.455 -2.382 -1.455 -2.461 c 0 -0.635 1.139 0.159 3.922 2.699 c 5.377 5 14.169 12.622 33.589 29.29 c 21 17.941 24.986 21.513 25.871 22.863 c 0.696 1.191 2.151 5.557 2.91 8.891 c 1.392 5.795 2.34 14.21 3.163 27.864 c 0.506 7.462 1.012 13.892 1.265 14.05 c 0.316 0.397 9.615 -6.351 14.232 -10.32 c 9.931 -8.574 14.485 -16.04 17.648 -29.21 c 1.455 -5.954 2.087 -6.192 2.973 -1.191 c 0.38 2.302 0.38 3.334 0.127 5.636 c -0.19 1.588 -0.316 2.937 -0.253 3.02 c 0.316 0.238 2.593 -3.81 3.479 -6.192 c 2.214 -6.03 3.1 -11.749 3.1 -19.291 c 0.063 -8.256 -1.012 -13.734 -3.542 -19.13 c -3.859 -8.097 -9.678 -12.543 -18.218 -13.892 c -5.187 -0.794 -13.284 0.159 -20.495 2.54 c -2.277 0.714 -3.353 0.953 -3.606 0.714 c -0.443 -0.397 0.506 -1.032 8.919 -6.192 c 18.597 -11.352 25.11 -15.401 30.805 -19.13 c 4.365 -2.858 6.262 -3.969 6.579 -3.81 c 0.253 0.159 0.696 1.191 1.075 2.382 c 1.265 3.969 6.262 14.845 6.642 14.448 c 0.063 -0.079 -0.316 -1.905 -0.886 -4.128 c -1.518 -6.192 -4.491 -20.64 -4.238 -20.878 c 1.075 -1.111 3.859 4.446 13.22 26.435 c 11.892 27.944 18.218 42.55 21.507 49.933 c 9.615 21.275 16.13 34.06 22.08 43.19 c 1.328 2.064 1.581 2.62 1.455 3.414 c -0.063 0.556 -1.075 3.02 -2.151 5.398 c -1.075 2.461 -1.961 4.525 -1.834 4.604 c 0.063 0.079 1.139 -0.953 2.404 -2.302 c 2.846 -3.02 3.353 -3.02 2.657 -0.079 c -2.783 12.463 -12.145 31.437 -33.21 67.4 c -2.404 4.128 -4.365 7.7 -4.365 8.02 c 0 0.238 0.38 0.794 0.759 1.191 c 1.265 1.191 3.606 4.207 7.97 10.32 c 2.277 3.175 4.871 6.589 5.756 7.621 c 2.783 3.02 3.606 5.16 2.72 6.827 c -0.316 0.556 -1.708 2.62 -3.1 4.525 c -6.832 9.526 -9.931 13.972 -9.805 14.05 c 0.127 0.238 4.744 -3.414 8.476 -6.589 c 3.416 -2.937 4.618 -3.652 4.618 -2.858 c 0 0.556 -3.669 6.43 -6.073 9.923 c -4.934 6.907 -10.374 12.543 -17.648 18.417 c -2.214 1.746 -4.048 3.334 -4.112 3.493 c -0.063 0.079 0.443 1.35 1.075 2.699 c 5.946 12.305 2.783 31.04 -7.97 47.23 c -2.783 4.207 -4.997 6.43 -7.654 7.621 c -3.542 1.667 -9.05 1.746 -13.347 0.159 c -1.075 -0.397 -2.087 -0.635 -2.214 -0.556 c -0.127 0.159 -0.949 1.985 -1.898 4.128 c -4.554 10.399 -12.398 24.05 -21.886 38.26 c -7.338 10.955 -9.552 13.892 -18.977 25.24 c -8.223 9.844 -17.522 19.846 -20.874 22.387 c -1.645 1.27 -4.554 2.461 -5.693 2.461 c -0.38 0 -1.202 -0.159 -1.898 -0.397" transform="matrix(0.06175 0 0 0.04921 29.51 17.334)" fill="none" stroke="#fff" stroke-linejoin="round" stroke-linecap="round" stroke-width="13.09"/><path d="m -206.88 170.8 c -1.898 -0.556 -8.982 -4.684 -23.341 -13.734 c -15.877 -9.844 -21.254 -13.495 -28.971 -19.688 c -5.25 -4.207 -15.05 -13.495 -18.09 -17.227 c -6.579 -8.02 -12.841 -20.08 -18.534 -35.723 c -1.139 -3.02 -2.151 -5.557 -2.277 -5.636 c -0.19 0 -0.759 0.635 -1.265 1.508 c -3.542 5.398 -10.374 6.351 -17.269 2.461 c -8.856 -4.922 -16.889 -16.671 -20.684 -30.25 c -1.771 -6.351 -2.91 -14.607 -2.846 -21.275 c 0 -4.366 0.316 -7.224 1.202 -10.717 l 0.633 -2.62 l -1.265 -1.508 c -11.01 -12.463 -15.498 -18.02 -14.865 -18.576 c 0.19 -0.238 2.087 1.429 7.274 6.192 c 2.214 2.064 4.112 3.652 4.175 3.572 c 0.38 -0.397 -7.654 -11.59 -11.386 -15.956 c -4.428 -5.16 -5.06 -7.939 -2.783 -11.431 c 0.569 -0.953 2.34 -3.02 3.859 -4.684 l 2.72 -3.02 l -0.886 -1.826 c -2.467 -5 -16.699 -29.05 -16.826 -28.42 c -0.063 0.238 1.075 3.89 2.467 8.097 c 1.392 4.207 2.53 7.859 2.53 8.177 c 0 1.826 -2.151 -1.429 -5.63 -8.335 c -4.238 -8.494 -8.729 -19.211 -16.826 -40.01 c -2.657 -6.668 -5.566 -14.05 -6.515 -16.353 c -2.151 -5.239 -2.53 -7.303 -1.834 -9.844 c 1.455 -5.478 17.14 -38.899 24.986 -53.35 c 7.274 -13.257 15.751 -26.28 19.17 -29.373 c 1.012 -0.873 1.075 -1.032 -0.696 3.731 c -0.633 1.826 -1.265 3.652 -1.392 4.049 c -0.127 0.476 3.289 -2.699 9.05 -8.415 c 17.711 -17.544 30.552 -28.26 45.987 -38.422 c 5.187 -3.493 7.148 -4.604 7.464 -4.366 c 0.063 0.079 -0.253 0.873 -0.822 1.667 c -0.822 1.35 -1.139 2.143 -0.759 2.143 c 0.063 0 1.455 -0.714 3.036 -1.667 c 2.783 -1.508 3.732 -1.905 3.732 -1.429 c 0 0.079 -0.822 1.35 -1.771 2.778 c -2.53 3.652 -8.286 13.416 -12.841 21.593 c -4.428 8.02 -8.539 15.718 -8.539 16.04 c 0 0.159 3.1 -2.778 6.768 -6.589 c 3.732 -3.81 6.895 -6.748 6.958 -6.51 c 0.063 0.159 -1.328 2.54 -3.163 5.239 c -9.425 14.13 -13.853 23.577 -15.814 33.659 c -0.759 4.049 -0.696 11.03 0.127 15.08 c 2.34 10.955 9.868 23.498 20.748 34.29 c 6.01 6.113 10.69 8.891 16.51 10.08 c 9.425 1.905 19.1 -3.572 27.26 -15.56 c 5.44 -8.02 12.714 -22.307 16.763 -32.865 c 3.795 -10 5.756 -20.08 4.871 -24.53 c -0.886 -4.446 -4.744 -9.606 -11.07 -14.845 c -5.124 -4.287 -11.323 -8.097 -13.22 -8.097 c -1.139 0 -5.06 2.62 -10.06 6.827 c -4.491 3.731 -14.11 13.257 -16.952 16.83 c -1.075 1.35 -2.151 2.461 -2.34 2.461 c -1.392 0.079 0.886 -8.177 3.985 -14.21 c 3.289 -6.51 7.274 -12.384 14.928 -22.23 c 2.34 -3.02 5.44 -6.986 6.958 -8.971 c 1.455 -1.905 2.783 -3.493 2.973 -3.493 c 0.127 0 0.759 0.397 1.328 0.873 c 1.328 1.032 4.744 2.778 13.09 6.589 c 3.479 1.667 7.338 3.493 8.539 4.207 c 1.202 0.714 2.277 1.191 2.34 1.111 c 0.19 -0.159 -2.151 -4.763 -3.732 -7.303 c -0.759 -1.191 -1.265 -2.302 -1.202 -2.382 c 0.253 -0.159 0.696 0.159 8.223 6.986 c 2.91 2.62 14.738 12.86 26.19 22.625 c 11.449 9.844 22.392 19.291 24.23 20.958 c 3.036 2.778 3.416 3.175 4.238 5.239 c 2.846 6.827 4.301 16.592 5.44 36.2 c 0.38 6.03 0.886 11.908 1.075 12.702 c 0.127 0.238 0.253 0.476 0.38 0.476 c 0.127 0 2.214 -1.35 4.554 -3.02 c 13.6 -9.526 20.811 -17.544 24.606 -27.15 c 0.633 -1.746 1.834 -5.557 2.593 -8.494 c 0.886 -3.334 1.518 -5.398 1.771 -5.398 c 0.949 0 1.518 6.827 0.886 10.796 l -0.253 1.667 l 0.822 -0.714 c 1.834 -1.826 4.112 -7.383 5.44 -13.734 c 1.075 -5 1.392 -15.401 0.569 -20.402 c -1.834 -11.67 -7.085 -19.608 -15.308 -23.02 c -3.353 -1.429 -6.199 -1.905 -11.07 -1.826 c -5.124 0 -8.919 0.635 -14.738 2.382 c -6.136 1.826 -5.756 1.508 7.401 -6.51 c 16.636 -10.161 22.519 -13.813 28.28 -17.544 c 3.1 -2.064 5.819 -3.731 6.01 -3.652 c 0.127 0.079 0.759 1.429 1.328 3.096 c 1.645 4.843 6.768 15.48 7.148 15 c 0.063 0 -0.38 -2.143 -1.075 -4.684 c -1.645 -6.668 -4.681 -21.275 -4.365 -21.513 c 0.822 -0.794 4.365 6.589 13.79 28.896 c 17.522 41.12 23.09 53.664 30.489 68.67 c 4.681 9.526 8.223 15.956 11.512 21.04 c 1.645 2.62 2.214 3.731 2.087 4.128 c -0.127 0.397 -1.202 2.858 -2.404 5.557 c -1.202 2.699 -2.151 5 -2.087 5.081 c 0.19 0.238 2.214 -1.588 3.732 -3.334 c 2.277 -2.62 2.404 -2.064 0.886 3.334 c -1.771 6.351 -6.705 17.862 -12.335 28.579 c -4.934 9.526 -10.06 18.656 -19.04 33.977 c -2.91 4.922 -5.313 9.209 -5.377 9.526 c -0.127 0.397 0.38 1.191 1.581 2.461 c 1.012 1.111 3.922 5 6.579 8.653 c 2.657 3.652 5.566 7.542 6.515 8.574 c 2.657 3.02 3.416 5.239 2.404 6.748 c -1.771 2.62 -10.627 15.08 -11.829 16.75 c -0.822 1.032 -1.455 1.985 -1.455 2.143 c 0 0.635 5.946 -3.81 10.564 -7.939 c 2.34 -2.064 2.657 -2.302 2.657 -1.588 c 0 1.032 -4.934 8.574 -8.729 13.416 c -3.289 4.207 -9.741 10.479 -14.738 14.527 c -2.277 1.746 -4.112 3.414 -4.112 3.572 c 0 0.238 0.38 1.111 0.886 2.064 c 2.277 4.207 3.163 8.256 3.163 15.08 c 0 5.716 -0.506 8.891 -2.151 14.448 c -2.404 8.02 -7.654 17.862 -12.02 22.625 c -2.593 2.699 -6.579 4.446 -10.564 4.446 c -1.898 0 -5.63 -0.714 -7.654 -1.508 c -0.822 -0.318 -1.518 -0.556 -1.581 -0.556 c 0 0.079 -0.822 1.905 -1.771 4.049 c -5.566 12.781 -17.02 32.07 -28.971 48.743 c -5.946 8.256 -19.736 24.53 -26.883 31.754 c -5.187 5.16 -6.515 6.351 -8.03 7.07 c -1.961 0.953 -3.985 1.191 -5.44 0.714 m 3.542 -9.288 c 4.744 -4.128 12.08 -11.273 16.32 -15.798 c 22.392 -23.895 38.14 -49.775 47.5 -77.8 c 6.642 -19.846 9.615 -37.867 9.615 -58.824 c 0 -11.59 -0.822 -21.91 -2.72 -33.1 c -0.886 -5.319 -0.949 -5.398 -2.024 -6.51 c -0.569 -0.635 -1.518 -1.429 -2.087 -1.826 c -0.506 -0.318 -1.012 -0.794 -1.075 -1.032 c -0.127 -0.238 1.202 -2.699 2.91 -5.557 c 5.44 -9.05 9.615 -17.15 13.853 -26.912 c 2.34 -5.478 5.63 -14.13 5.44 -14.369 c -0.127 -0.079 -3.732 0.079 -8.03 0.397 c -41.18 2.62 -68.25 6.271 -92.92 12.622 c -4.112 1.032 -6.515 1.588 -6.705 1.35 c -0.19 -0.159 -0.063 -0.635 0.38 -1.191 c 0.38 -0.556 0.569 -1.032 0.506 -1.111 c -0.253 -0.238 -15.687 -4.446 -25.998 -6.986 c -19.356 -4.842 -36.37 -8.256 -53.13 -10.638 c -6.768 -0.953 -19.23 -2.302 -19.419 -2.143 c -0.443 0.397 13.03 25.721 19.799 37.31 c 0.759 1.35 1.455 2.62 1.455 2.858 c 0 0.238 -0.569 1.429 -1.265 2.62 c -4.428 7.78 -10.88 23.02 -13.284 31.2 l -0.696 2.461 l 0.759 2.62 c 3.353 11.908 6.768 27.15 11.01 48.743 c 4.048 20.323 6.262 28.817 10.247 38.899 c 11.07 28.1 29.35 49.854 57.56 68.51 c 8.223 5.398 27.579 16.671 28.718 16.671 c 0.316 0 1.771 -1.111 3.289 -2.461 m -23.09 -46.837 c 0.127 -0.476 4.618 -2.858 8.982 -4.684 c 6.642 -2.858 15.181 -5.239 23.09 -6.43 c 2.593 -0.397 3.732 -0.238 3.1 0.397 c -0.569 0.556 -6.705 2.62 -19.925 6.589 c -7.02 2.143 -13.157 4.049 -13.6 4.207 c -1.139 0.397 -1.771 0.397 -1.645 -0.079 m 18.597 -19.688 c -3.226 -3.175 -5.693 -6.589 -7.591 -10.638 c -1.075 -2.382 -1.771 -4.366 -1.392 -4.366 c 0.063 0 2.34 2.143 5.06 4.763 c 2.657 2.62 4.997 4.763 5.124 4.763 c 0.127 0 0.253 -1.27 0.253 -2.858 c 0 -1.667 0.316 -8.494 0.759 -15.242 c 0.38 -6.748 0.822 -15.401 0.949 -19.13 c 0.063 -3.731 0.253 -6.986 0.38 -7.145 c 0.316 -0.556 1.202 -0.079 2.973 1.429 l 1.265 1.111 l -0.316 7.07 c -0.38 7.859 -0.886 14.686 -1.961 26.991 c -0.443 4.525 -0.822 9.606 -0.949 11.273 c -0.253 4.366 -0.38 4.922 -1.012 4.922 c -0.316 0 -1.898 -1.27 -3.542 -2.937 m -46.11 -26.673 c -4.554 -0.397 -9.615 -1.905 -12.778 -3.81 c -2.53 -1.588 -5.693 -4.604 -7.338 -7.07 c -2.846 -4.287 -5.63 -11.273 -6.199 -15.639 c -0.443 -3.175 0.127 -6.271 1.708 -9.447 c 1.328 -2.699 4.681 -6.351 7.844 -8.494 c 2.846 -1.985 2.657 -1.746 2.467 -1.985 c -0.063 -0.079 -2.277 -0.318 -4.871 -0.556 c -6.832 -0.714 -10.06 -1.27 -10.817 -1.905 c -0.316 -0.318 -1.392 -0.794 -2.404 -0.953 c -2.72 -0.556 -4.681 -1.191 -4.681 -1.508 c 0 -0.159 0.759 -0.318 1.708 -0.318 c 1.645 0 7.148 -0.714 8.286 -1.032 c 0.759 -0.318 0.633 -0.556 -0.759 -1.429 c -1.708 -1.111 -4.934 -4.049 -4.681 -4.287 c 0.127 -0.079 1.202 0.079 2.404 0.397 c 4.807 1.35 11.639 2.064 27.706 2.778 c 14.296 0.635 18.913 0.714 20.05 0.318 c 3.416 -1.191 4.997 -6.907 3.036 -11.431 c -1.202 -2.937 -1.202 -3.02 -0.506 -3.02 c 0.886 0 3.606 2.54 4.428 4.207 c 1.075 2.064 1.392 3.652 1.771 8.574 l 0.316 4.446 l 1.075 0.556 c 0.569 0.318 1.012 0.714 1.012 0.873 c 0 0.873 -6.895 4.128 -8.729 4.128 c -0.886 0 -0.886 0.318 0.063 1.191 c 1.392 1.35 5.566 8.177 6.326 10.241 c 1.075 3.175 1.455 6.668 1.012 9.923 c -1.708 13.654 -13.347 25.721 -24.48 25.403 c -0.949 0 -2.34 -0.079 -2.973 -0.159 m 81.6 -2.858 c -6.705 -1.27 -13.09 -4.287 -16.573 -7.621 c -1.708 -1.667 -3.226 -4.049 -4.048 -6.271 c -0.822 -2.223 -1.075 -6.907 -0.506 -9.844 c 0.822 -4.604 3.416 -10.558 7.02 -15.798 l 1.898 -2.858 l -5.187 -0.079 c -6.136 -0.238 -6.452 -0.318 -4.871 -2.064 c 1.455 -1.667 2.214 -4.207 2.973 -10.32 c 0.633 -5.557 1.139 -7.78 1.581 -7.78 c 0.19 0 0.38 1.588 0.506 3.731 c 0.127 1.985 0.38 4.287 0.506 5.16 l 0.19 1.508 l 2.151 -0.079 c 2.087 -0.079 6.958 -0.794 13.03 -1.905 c 1.898 -0.318 4.871 -0.714 6.579 -0.794 c 2.846 -0.159 3.479 -0.079 6.705 0.794 c 5.44 1.429 6.326 1.27 12.02 -1.429 c 2.151 -1.032 2.973 -1.27 3.163 -1.032 c 0.127 0.318 0.443 0.318 1.012 0.079 c 1.139 -0.397 1.708 -0.397 1.708 0.079 c 0 0.476 -2.783 2.62 -6.262 4.842 c -1.202 0.794 -2.087 1.508 -2.024 1.667 c 0.127 0.079 2.024 0.318 4.301 0.397 c 4.618 0.238 5.187 0.397 5.187 0.953 c 0 0.635 -0.822 0.953 -4.238 1.746 c -1.645 0.397 -3.036 0.794 -3.1 0.873 c -0.063 0.079 0.696 1.032 1.708 2.064 c 4.365 4.604 6.199 10 5.819 17.227 c -0.633 12.384 -8.919 23.419 -19.862 26.435 c -2.404 0.635 -8.666 0.794 -11.386 0.318 m -129.04 9.923 c 1.075 -1.508 1.012 -3.493 -0.506 -8.653 c -2.34 -7.939 -4.997 -18.814 -6.832 -27.705 c -0.38 -1.826 -0.822 -3.652 -1.012 -3.969 c -0.633 -1.27 -7.148 -7.939 -10.06 -10.399 c -3.416 -2.858 -5.883 -4.128 -7.78 -4.128 c -1.645 0 -2.34 0.635 -3.226 2.62 c -0.38 0.873 -0.506 2.382 -0.633 6.748 c -0.316 12.94 1.961 22.15 7.464 30.17 c 4.491 6.51 17.395 16.512 20.937 16.195 c 0.696 0 1.202 -0.318 1.645 -0.873 m 172.12 -2.302 c 3.353 -1.191 6.326 -3.493 9.488 -7.383 c 5.819 -7.224 10.69 -18.259 11.829 -26.594 c 0.822 -6.351 -1.455 -15.48 -4.301 -16.909 c -1.581 -0.873 -2.404 -0.397 -5.63 3.255 c -5.946 6.748 -8.413 9.844 -8.603 10.955 c -0.822 4.684 -4.871 24.768 -6.136 30.09 c -0.822 3.572 -1.455 6.668 -1.328 6.827 c 0.316 0.556 2.783 0.397 4.681 -0.318" transform="matrix(0.06175 0 0 0.04921 29.51 17.334)" fill="none" stroke="#fff" stroke-linejoin="round" stroke-linecap="round" stroke-width="13.09"/><path d="m -206.44 170.56 c -1.898 -0.476 -8.413 -4.287 -23.657 -13.813 c -21.886 -13.654 -29.667 -19.449 -40.04 -29.611 c -6.262 -6.192 -9.172 -9.685 -12.841 -15.718 c -4.112 -6.668 -8.792 -16.75 -12.714 -27.705 c -1.075 -3.02 -2.087 -5.557 -2.214 -5.636 c -0.127 -0.159 -0.759 0.476 -1.455 1.508 c -1.455 2.143 -2.973 3.572 -4.807 4.366 c -1.961 0.953 -6.642 0.873 -9.172 0 c -10.374 -3.89 -19.862 -16.988 -24.04 -33.18 c -1.898 -7.7 -2.846 -17.15 -2.277 -23.498 c 0.253 -3.334 1.012 -7.145 1.708 -8.891 c 0.127 -0.318 -1.075 -1.826 -4.048 -5.239 c -6.389 -7.145 -11.576 -13.575 -10.943 -13.575 c 0.19 0 2.087 1.667 4.301 3.652 c 6.01 5.557 6.895 6.351 7.148 6.113 c 0.443 -0.397 -8.539 -13.178 -12.778 -18.18 c -5.44 -6.351 -5.25 -8.415 1.265 -15.48 c 1.455 -1.508 2.593 -3.02 2.593 -3.255 c 0 -0.953 -4.554 -9.129 -13.537 -24.13 c -4.428 -7.303 -5.63 -9.129 -5.63 -8.256 c 0 0.159 1.265 4.128 2.846 8.891 c 1.581 4.763 2.783 8.732 2.72 8.812 c -0.253 0.318 -2.151 -2.858 -4.618 -7.859 c -4.301 -8.574 -8.223 -17.862 -16.32 -38.502 c -2.91 -7.542 -6.073 -15.56 -7.02 -17.862 c -1.518 -3.652 -1.771 -4.525 -1.898 -6.668 c -0.063 -1.508 0.063 -2.858 0.253 -3.572 c 0.506 -1.588 7.717 -17.862 11.259 -25.483 c 6.579 -13.972 15.05 -30.17 20.621 -39.3 c 4.365 -7.145 10.88 -16.274 11.259 -15.956 c 0.063 0.159 -0.443 1.905 -1.139 3.969 c -0.696 2.064 -1.202 3.81 -1.075 3.969 c 0.127 0.079 2.783 -2.382 5.819 -5.557 c 17.395 -17.862 35.613 -33.18 52.06 -43.741 c 2.151 -1.429 3.985 -2.54 4.175 -2.54 c 0.127 0 -0.127 0.714 -0.506 1.508 c -1.328 2.62 -1.139 2.699 2.72 0.476 c 1.645 -0.953 2.973 -1.588 3.036 -1.508 c 0.127 0.079 -0.696 1.429 -1.771 3.02 c -3.985 6.03 -11.133 18.417 -17.585 30.563 c -3.163 5.954 -4.112 7.939 -3.795 7.939 c 0.127 0 3.036 -2.858 6.515 -6.43 c 3.479 -3.572 6.389 -6.43 6.452 -6.351 c 0.063 0.079 -1.075 2.064 -2.593 4.287 c -3.732 5.795 -5.819 9.209 -8.16 13.734 c -10.564 20.243 -9.931 35.644 2.087 53.823 c 6.895 10.241 14.169 17.941 20.811 21.831 c 7.02 4.128 14.232 4.525 21 1.191 c 6.199 -3.096 12.02 -9.209 17.648 -18.656 c 3.226 -5.398 9.868 -18.576 12.08 -23.974 c 4.681 -11.431 7.148 -21.434 6.705 -27.467 c -0.19 -2.778 -1.202 -5.16 -3.416 -8.335 c -3.732 -5.239 -12.714 -12.622 -18.913 -15.56 c -1.898 -0.873 -2.277 -1.032 -3.1 -0.714 c -4.491 1.588 -20.811 16.195 -26.947 24.05 c -1.581 2.064 -1.898 2.143 -1.645 0.318 c 0.569 -3.969 2.593 -9.288 5.566 -14.607 c 3.353 -6.113 7.211 -11.511 18.218 -25.562 l 4.871 -6.271 l 1.392 0.953 c 1.708 1.191 4.681 2.699 12.841 6.43 c 3.416 1.588 7.401 3.572 8.792 4.287 c 2.593 1.508 3.036 1.667 3.036 1.111 c 0 -0.397 -2.53 -5.398 -3.542 -6.986 c -0.38 -0.635 -0.633 -1.191 -0.569 -1.27 c 0.063 -0.079 2.657 2.064 5.63 4.763 c 3.036 2.699 13.537 11.749 23.341 20.16 c 31.375 26.832 30.805 26.356 32.13 29.452 c 2.593 6.192 4.112 16.353 5.25 34.93 c 0.569 9.685 1.012 13.813 1.455 14.289 c 0.316 0.318 1.075 -0.079 3.985 -2.064 c 10.374 -7.07 17.269 -13.495 21.76 -20.16 c 3.1 -4.684 5.06 -9.447 6.832 -16.512 c 0.506 -2.143 1.012 -4.128 1.075 -4.366 c 0.316 -0.873 0.759 0.238 1.075 2.858 c 0.253 2.143 0.253 3.255 -0.127 5.557 c -0.253 1.508 -0.316 2.937 -0.19 3.096 c 0.443 0.476 2.34 -1.826 3.479 -4.128 c 3.1 -6.113 4.934 -16.274 4.491 -25.09 c -0.316 -7.07 -1.581 -12.543 -4.112 -17.544 c -2.593 -5.16 -6.073 -8.812 -10.627 -11.03 c -6.515 -3.255 -15.245 -3.493 -25.492 -0.635 c -2.151 0.556 -3.922 0.953 -3.985 0.873 c -0.127 -0.159 1.139 -0.953 16.13 -10.08 c 13.03 -7.939 22.835 -14.13 25.682 -16.195 c 0.949 -0.635 1.834 -1.111 1.898 -0.953 c 0.127 0.079 0.506 1.191 0.886 2.302 c 1.645 5 6.389 14.845 8.097 16.671 l 0.696 0.714 l -0.127 -0.714 c -0.127 -0.397 -0.696 -2.858 -1.392 -5.398 c -1.012 -3.969 -3.669 -15.877 -4.428 -19.926 c -0.38 -2.064 0.443 -0.953 2.72 3.81 c 2.657 5.478 5.124 11.03 14.11 32.31 c 20.18 47.552 29.667 67.56 38.27 80.894 c 1.012 1.508 1.771 2.937 1.771 3.175 c 0 0.318 -1.075 2.937 -2.404 5.875 c -1.265 2.937 -2.404 5.478 -2.404 5.557 c 0 0.714 1.328 -0.159 3.542 -2.223 c 1.328 -1.35 2.467 -2.382 2.467 -2.143 c 0 0.556 -1.518 5.636 -2.593 8.574 c -4.491 12.622 -12.145 27.467 -28.338 55.33 l -7.211 12.305 l 1.645 1.905 c 2.34 2.778 3.226 3.969 7.844 10.32 c 2.214 3.096 4.871 6.589 5.883 7.7 c 1.075 1.27 1.961 2.62 2.277 3.572 c 0.443 1.35 0.443 1.508 -0.063 2.302 c -0.886 1.429 -7.464 10.796 -11.01 15.718 c -1.834 2.461 -3.163 4.525 -3.1 4.684 c 0.127 0.079 0.506 0 0.886 -0.159 c 1.012 -0.476 6.262 -4.525 9.488 -7.303 c 1.518 -1.35 2.846 -2.382 2.91 -2.302 c 0.443 0.476 -4.428 7.78 -8.286 12.622 c -3.606 4.446 -9.425 10.161 -14.422 14.13 c -2.024 1.588 -3.922 3.096 -4.175 3.334 c -0.316 0.318 -0.19 0.714 0.822 2.778 c 6.326 12.146 3.353 30.643 -7.591 47.31 c -2.34 3.572 -3.985 5.398 -5.756 6.51 c -3.922 2.461 -9.299 2.778 -14.549 0.953 c -1.202 -0.397 -2.404 -0.714 -2.53 -0.714 c -0.19 0 -0.822 1.27 -1.455 2.778 c -3.985 9.526 -13.473 26.435 -22.772 40.25 c -8.476 12.702 -22.392 30.09 -32.13 40.09 c -6.389 6.51 -7.97 7.859 -10.374 8.812 c -1.898 0.794 -2.214 0.873 -3.922 0.397 m 4.554 -9.526 c 22.2 -19.926 40.04 -42.868 52.31 -67.48 c 4.112 -8.256 5.883 -12.305 8.729 -20.01 c 4.491 -12.07 7.78 -25.09 9.741 -38.34 c 1.328 -9.367 1.645 -14.21 1.645 -25.959 c 0 -12.07 -0.38 -17.703 -1.771 -27.467 c -1.265 -8.574 -1.898 -11.67 -2.53 -12.146 c -0.253 -0.238 -1.265 -1.111 -2.087 -1.826 l -1.581 -1.429 l 3.1 -5.16 c 3.859 -6.43 7.527 -13.257 10.564 -19.767 c 4.428 -9.367 9.172 -21.434 8.603 -21.99 c -0.253 -0.318 -7.97 0.159 -22.962 1.27 c -32.829 2.461 -61.29 6.748 -81.03 12.225 c -1.771 0.556 -3.353 0.873 -3.416 0.794 c -0.063 -0.079 0.19 -0.556 0.569 -1.032 c 0.38 -0.556 0.569 -1.032 0.506 -1.111 c -0.253 -0.238 -14.865 -4.207 -25.429 -6.827 c -24.417 -6.192 -48.07 -10.638 -67.62 -12.622 c -2.467 -0.238 -4.997 -0.476 -5.63 -0.556 c -0.822 -0.159 -1.202 -0.079 -1.328 0.238 c -0.316 0.794 9.425 19.529 17.775 34.14 c 1.898 3.334 3.416 6.192 3.416 6.351 c 0 0.238 -0.822 1.905 -1.834 3.81 c -2.53 4.684 -6.073 12.305 -8.476 18.259 c -2.277 5.795 -4.681 13.02 -4.681 14.05 c 0 0.397 0.506 2.699 1.202 5.16 c 3.542 13.178 6.262 25.24 9.931 43.821 c 1.328 6.827 2.973 14.845 3.606 17.862 c 5.503 24.451 14.738 43.741 29.603 61.682 c 3.353 4.128 11.576 12.384 16.573 16.671 c 7.907 6.827 17.269 13.495 28.465 20.243 c 7.591 4.604 18.66 10.717 19.356 10.717 c 0.38 0 2.34 -1.508 4.681 -3.652 m -21.317 -47.47 c 0 -0.238 4.554 -2.461 8.097 -3.81 c 4.744 -1.905 9.994 -3.414 15.877 -4.604 c 5.25 -1.111 6.199 -1.191 5.883 -0.794 c -0.253 0.476 -6.895 2.54 -29.35 9.209 c -0.253 0.079 -0.506 0.079 -0.506 0 m 16.889 -17.624 c -2.404 -2.143 -4.428 -4.446 -6.01 -6.907 c -1.455 -2.223 -3.353 -6.113 -3.353 -6.827 c 0 -0.238 1.139 0.714 2.593 2.143 c 6.579 6.351 6.705 6.43 6.958 5.954 c 0.19 -0.238 0.316 -2.143 0.316 -4.207 c 0 -2.064 0.38 -9.209 0.759 -15.877 c 0.38 -6.668 0.822 -14.924 0.949 -18.259 c 0.127 -3.652 0.316 -6.03 0.506 -6.03 c 0.316 0 2.277 1.429 2.657 1.905 c 0.506 0.635 -0.316 16.274 -1.708 31.516 c -0.38 4.446 -0.886 10.241 -1.075 12.94 c -0.19 2.62 -0.443 4.842 -0.569 5 c -0.127 0.159 -1.012 -0.476 -2.024 -1.35 m 33.652 -31.913 c -2.53 -0.635 -5.756 -2.302 -8.476 -4.287 c -2.53 -1.905 -4.175 -3.493 -3.922 -3.81 c 0.127 -0.079 1.075 0.238 2.087 0.635 c 1.075 0.476 5.313 2.064 9.425 3.652 c 4.112 1.508 7.591 2.937 7.78 3.096 c 0.569 0.556 -0.316 0.953 -2.72 1.032 c -1.518 0.079 -3.036 0 -4.175 -0.318 m -80.4 -2.223 c 0.19 -0.159 2.151 -1.032 4.365 -1.905 c 2.214 -0.873 6.326 -2.699 9.109 -3.89 c 6.895 -3.096 7.148 -3.02 3.1 0.556 c -3.416 3.096 -5.946 4.287 -11.512 5.081 c -3.416 0.556 -5.44 0.556 -5.06 0.159 m 71.16 -9.764 c -1.961 -0.635 -3.859 -2.54 -4.618 -4.684 c -2.024 -5.319 -1.202 -14.686 1.898 -21.672 c 1.518 -3.334 1.518 -3.334 -0.506 -3.175 c -2.024 0.159 -8.666 0.079 -9.172 -0.159 c -0.253 -0.079 -0.063 -0.556 0.633 -1.588 c 1.139 -1.746 1.771 -4.049 2.404 -9.05 c 0.506 -4.128 0.696 -5.239 0.949 -5.081 c 0.063 0.159 1.012 6.51 1.012 7.145 c 0 0.397 7.148 -0.397 13.284 -1.429 c 8.919 -1.508 11.133 -1.588 15.94 -0.318 c 5.06 1.27 5.946 1.191 12.272 -1.111 c 1.961 -0.714 3.669 -1.27 3.732 -1.191 c 0.443 0.476 -5.63 4.446 -8.286 5.398 c -0.949 0.318 -1.834 0.794 -1.898 0.953 c -0.127 0.476 2.973 0.953 6.389 1.032 c 1.708 0 3.353 0.159 3.732 0.238 c 0.506 0.238 0.506 0.238 0 0.476 c -1.265 0.476 -8.666 1.985 -12.02 2.382 c -4.175 0.556 -11.133 1.111 -13.979 1.111 c -1.139 0 -2.087 0.079 -2.214 0.238 c -0.063 0.159 0.316 0.873 0.949 1.588 c 2.593 3.096 3.859 7.462 3.606 12.702 c -0.569 10.876 -7.085 18.417 -14.11 16.195 m -61.927 -2.699 c -4.175 -2.064 -6.958 -7.939 -7.02 -14.686 c 0 -4.922 1.139 -8.653 3.669 -11.828 c 0.696 -0.873 1.202 -1.588 1.075 -1.667 c -0.063 -0.159 -2.151 -0.079 -4.681 0.159 c -8.919 0.635 -19.799 0.159 -28.28 -1.111 c -1.645 -0.238 -2.973 -0.397 -3.1 -0.397 c -0.063 0 -0.127 -0.159 -0.127 -0.318 c 0 -0.079 0.696 -0.476 1.581 -0.714 c 2.087 -0.714 5.06 -2.302 4.934 -2.62 c -0.063 -0.238 -1.265 -0.794 -2.657 -1.429 c -2.91 -1.27 -5.377 -2.778 -4.871 -2.937 c 0.253 -0.079 2.151 0.079 4.238 0.318 c 6.389 0.794 16.383 1.429 32.893 1.985 c 9.172 0.318 9.931 0.318 11.639 -0.953 c 0.443 -0.318 1.139 -1.27 1.645 -2.143 c 0.633 -1.27 0.822 -1.985 0.949 -4.128 c 0.127 -2.382 -0.19 -3.731 -1.265 -6.351 c -0.38 -0.873 0.316 -0.635 1.581 0.556 c 2.277 2.064 3.226 5.16 3.479 10.955 c 0.253 4.446 0.316 4.684 1.392 5.239 c 0.696 0.318 0.822 0.556 0.569 0.873 c -0.633 0.714 -5.693 2.937 -7.654 3.255 c -1.075 0.159 -1.961 0.397 -1.961 0.556 c 0 0.079 0.38 0.476 0.886 0.873 c 1.202 0.873 3.416 4.287 4.175 6.43 c 0.822 2.382 1.265 6.43 1.075 8.732 c -0.569 5.716 -2.657 9.447 -6.199 11.193 c -1.581 0.794 -2.151 0.953 -4.112 0.953 c -1.898 0 -2.593 -0.159 -3.859 -0.794 m -58.13 27.467 c 0.949 -0.318 1.645 -1.746 1.834 -3.572 c 0.19 -1.111 -0.063 -2.382 -1.328 -6.668 c -1.898 -6.51 -4.428 -16.592 -6.199 -24.927 c -0.759 -3.493 -1.581 -6.748 -1.834 -7.145 c -0.316 -0.397 -2.404 -2.699 -4.744 -5 c -6.01 -6.192 -9.868 -8.971 -12.904 -9.288 c -3.922 -0.476 -5.187 3.175 -4.871 13.813 c 0.443 13.734 3.859 23.02 11.449 31.04 c 4.048 4.287 11.449 9.844 14.991 11.273 c 2.024 0.873 2.467 0.873 3.606 0.476 m 174.77 -3.969 c 7.338 -3.572 15.687 -16.512 18.85 -29.13 c 1.202 -4.604 1.392 -7.145 0.822 -11.11 c -0.822 -5.954 -2.467 -9.606 -4.744 -10.796 c -0.949 -0.476 -1.202 -0.476 -2.087 -0.079 c -1.139 0.476 -3.606 3.02 -8.729 9.129 l -3.606 4.287 l -2.657 13.257 c -1.455 7.303 -3.226 15.877 -3.985 19.13 c -0.759 3.175 -1.392 5.954 -1.392 6.03 c 0 0.556 1.455 0.873 3.163 0.714 c 1.328 -0.079 2.53 -0.476 4.365 -1.429" transform="matrix(0.06175 0 0 0.04921 29.51 17.334)" fill="none" stroke="#fff" stroke-linejoin="round" stroke-linecap="round" stroke-width="13.09"/></g><clipPath id="2"><path d="M 0,0 H32 V32 H0 z"/></clipPath><filter id="0" filterUnits="objectBoundingBox" x="0" y="0" width="32" height="32"><feColorMatrix type="matrix" in="SourceGraphic" values="0 0 0 0 1 0 0 0 0 1 0 0 0 0 1 0 0 0 1 0"/></filter><mask id="1"><g filter="url(#0)"><path fill-opacity="0.149" d="M 0,0 H32 V32 H0 z"/></g></mask></defs><path d="m 5.605 27.359 c -25.23 -33.3 44.2 -38.03 21.918 -4.04 c -5.078 7.75 -15.238 12.855 -21.918 4.04" fill="#bcb76a"/><use xlink:href="#3" mask="url(#1)"/><path d="m 16.734 25.75 c -0.137 -0.035 -0.52 -0.215 -1.445 -0.672 c -0.973 -0.484 -1.301 -0.664 -1.793 -0.973 c -0.352 -0.223 -0.91 -0.648 -1.121 -0.852 c -0.438 -0.43 -0.816 -1.023 -1.199 -1.871 c -0.039 -0.086 -0.078 -0.16 -0.082 -0.16 c -0.008 0 -0.02 0.016 -0.027 0.031 c -0.02 0.051 -0.215 0.199 -0.313 0.234 c -0.129 0.047 -0.367 0.059 -0.523 0.023 c -0.648 -0.148 -1.281 -0.793 -1.563 -1.586 c -0.191 -0.555 -0.234 -1.219 -0.102 -1.586 l 0.043 -0.121 l -0.051 -0.043 c -0.332 -0.285 -0.641 -0.578 -0.859 -0.809 c -0.121 -0.129 -0.148 -0.172 -0.102 -0.172 c 0.016 0 0.168 0.102 0.34 0.227 c 0.172 0.125 0.316 0.223 0.32 0.219 c 0.023 -0.016 -0.422 -0.504 -0.652 -0.719 c -0.168 -0.16 -0.23 -0.25 -0.246 -0.348 c -0.016 -0.109 0.059 -0.223 0.289 -0.426 c 0.102 -0.09 0.188 -0.172 0.188 -0.18 c 0 -0.039 -1.012 -1.43 -1.031 -1.414 c -0.004 0.004 0.066 0.176 0.152 0.387 c 0.156 0.383 0.172 0.449 0.082 0.383 c -0.055 -0.035 -0.199 -0.23 -0.332 -0.441 c -0.238 -0.383 -0.52 -0.914 -1.031 -1.957 c -0.188 -0.375 -0.375 -0.758 -0.422 -0.852 c -0.094 -0.18 -0.125 -0.301 -0.105 -0.418 c 0.031 -0.184 0.988 -1.828 1.504 -2.59 c 0.43 -0.629 0.797 -1.09 1.141 -1.434 c 0.176 -0.176 0.254 -0.207 0.164 -0.07 c -0.047 0.078 -0.16 0.32 -0.16 0.352 c 0 0.008 0.242 -0.176 0.535 -0.406 c 0.574 -0.453 0.832 -0.645 1.234 -0.922 c 0.547 -0.371 1 -0.648 1.527 -0.93 c 0.578 -0.305 0.633 -0.32 0.48 -0.129 c -0.02 0.027 -0.035 0.051 -0.031 0.055 c 0.004 0.004 0.086 -0.027 0.184 -0.074 c 0.168 -0.078 0.238 -0.094 0.238 -0.063 c 0 0.008 -0.078 0.109 -0.172 0.223 c -0.098 0.117 -0.246 0.309 -0.336 0.43 c -0.316 0.434 -0.879 1.254 -0.879 1.285 c 0 0.008 0.172 -0.129 0.383 -0.301 c 0.207 -0.172 0.395 -0.316 0.414 -0.324 c 0.078 -0.035 0.039 0.027 -0.184 0.297 c -0.563 0.676 -0.84 1.133 -0.973 1.602 c -0.055 0.199 -0.059 0.602 -0.008 0.789 c 0.148 0.527 0.59 1.125 1.234 1.656 c 0.824 0.68 1.629 0.719 2.371 0.113 c 0.309 -0.25 0.625 -0.648 1.012 -1.277 c 0.441 -0.719 0.695 -1.367 0.695 -1.762 c -0.004 -0.223 -0.137 -0.422 -0.465 -0.68 c -0.285 -0.23 -0.742 -0.492 -0.961 -0.555 c -0.07 -0.02 -0.086 -0.02 -0.148 0.008 c -0.102 0.043 -0.34 0.18 -0.574 0.336 c -0.27 0.18 -0.816 0.617 -1 0.797 c -0.082 0.086 -0.152 0.137 -0.172 0.137 c -0.031 0 -0.035 -0.008 -0.023 -0.094 c 0.027 -0.199 0.16 -0.484 0.355 -0.766 c 0.223 -0.313 0.566 -0.691 1.406 -1.539 c 0.031 -0.035 0.051 -0.039 0.07 -0.031 c 0.172 0.098 0.313 0.156 0.691 0.297 c 0.242 0.09 0.527 0.199 0.629 0.238 c 0.102 0.043 0.188 0.074 0.191 0.074 c 0.012 -0.012 -0.145 -0.25 -0.242 -0.367 c -0.047 -0.059 -0.09 -0.117 -0.09 -0.121 c 0 -0.031 0.07 0.008 0.242 0.133 c 0.332 0.246 0.875 0.621 2.074 1.441 c 1.297 0.883 1.543 1.059 1.598 1.125 c 0.043 0.059 0.133 0.273 0.18 0.438 c 0.086 0.285 0.145 0.699 0.195 1.371 c 0.031 0.367 0.063 0.684 0.078 0.691 c 0.02 0.02 0.594 -0.313 0.879 -0.508 c 0.613 -0.422 0.895 -0.789 1.09 -1.438 c 0.09 -0.293 0.129 -0.305 0.184 -0.059 c 0.023 0.113 0.023 0.164 0.008 0.277 c -0.012 0.078 -0.02 0.145 -0.016 0.148 c 0.02 0.012 0.16 -0.188 0.215 -0.305 c 0.137 -0.297 0.191 -0.578 0.191 -0.949 c 0.004 -0.406 -0.063 -0.676 -0.219 -0.941 c -0.238 -0.398 -0.598 -0.617 -1.125 -0.684 c -0.32 -0.039 -0.82 0.008 -1.266 0.125 c -0.141 0.035 -0.207 0.047 -0.223 0.035 c -0.027 -0.02 0.031 -0.051 0.551 -0.305 c 1.148 -0.559 1.551 -0.758 1.902 -0.941 c 0.27 -0.141 0.387 -0.195 0.406 -0.188 c 0.016 0.008 0.043 0.059 0.066 0.117 c 0.078 0.195 0.387 0.73 0.41 0.711 c 0.004 -0.004 -0.02 -0.094 -0.055 -0.203 c -0.094 -0.305 -0.277 -1.016 -0.262 -1.027 c 0.066 -0.055 0.238 0.219 0.816 1.301 c 0.734 1.375 1.125 2.094 1.328 2.457 c 0.594 1.047 0.996 1.676 1.363 2.125 c 0.082 0.102 0.098 0.129 0.09 0.168 c -0.004 0.027 -0.066 0.148 -0.133 0.266 c -0.066 0.121 -0.121 0.223 -0.113 0.227 c 0.004 0.004 0.07 -0.047 0.148 -0.113 c 0.176 -0.148 0.207 -0.148 0.164 -0.004 c -0.172 0.613 -0.75 1.547 -2.051 3.316 c -0.148 0.203 -0.27 0.379 -0.27 0.395 c 0 0.012 0.023 0.039 0.047 0.059 c 0.078 0.059 0.223 0.207 0.492 0.508 c 0.141 0.156 0.301 0.324 0.355 0.375 c 0.172 0.148 0.223 0.254 0.168 0.336 c -0.02 0.027 -0.105 0.129 -0.191 0.223 c -0.422 0.469 -0.613 0.688 -0.605 0.691 c 0.008 0.012 0.293 -0.168 0.523 -0.324 c 0.211 -0.145 0.285 -0.18 0.285 -0.141 c 0 0.027 -0.227 0.316 -0.375 0.488 c -0.305 0.34 -0.641 0.617 -1.09 0.906 c -0.137 0.086 -0.25 0.164 -0.254 0.172 c -0.004 0.004 0.027 0.066 0.066 0.133 c 0.367 0.605 0.172 1.527 -0.492 2.324 c -0.172 0.207 -0.309 0.316 -0.473 0.375 c -0.219 0.082 -0.559 0.086 -0.824 0.008 c -0.066 -0.02 -0.129 -0.031 -0.137 -0.027 c -0.008 0.008 -0.059 0.098 -0.117 0.203 c -0.281 0.512 -0.766 1.184 -1.352 1.883 c -0.453 0.539 -0.59 0.684 -1.172 1.242 c -0.508 0.484 -1.082 0.977 -1.289 1.102 c -0.102 0.063 -0.281 0.121 -0.352 0.121 c -0.023 0 -0.074 -0.008 -0.117 -0.02" fill="#e2c181"/><path d="m 16.734 25.738 c -0.117 -0.027 -0.555 -0.23 -1.441 -0.676 c -0.98 -0.484 -1.313 -0.664 -1.789 -0.969 c -0.324 -0.207 -0.93 -0.664 -1.117 -0.848 c -0.406 -0.395 -0.793 -0.988 -1.145 -1.758 c -0.07 -0.148 -0.133 -0.273 -0.141 -0.277 c -0.012 0 -0.047 0.031 -0.078 0.074 c -0.219 0.266 -0.641 0.313 -1.066 0.121 c -0.547 -0.242 -1.043 -0.82 -1.277 -1.488 c -0.109 -0.313 -0.18 -0.719 -0.176 -1.047 c 0 -0.215 0.02 -0.355 0.074 -0.527 l 0.039 -0.129 l -0.078 -0.074 c -0.68 -0.613 -0.957 -0.887 -0.918 -0.914 c 0.012 -0.012 0.129 0.07 0.449 0.305 c 0.137 0.102 0.254 0.18 0.258 0.176 c 0.023 -0.02 -0.473 -0.57 -0.703 -0.785 c -0.273 -0.254 -0.313 -0.391 -0.172 -0.563 c 0.035 -0.047 0.145 -0.148 0.238 -0.23 l 0.168 -0.148 l -0.055 -0.09 c -0.152 -0.246 -1.031 -1.43 -1.039 -1.398 c -0.004 0.012 0.066 0.191 0.152 0.398 c 0.086 0.207 0.156 0.387 0.156 0.402 c 0 0.09 -0.133 -0.07 -0.348 -0.41 c -0.262 -0.418 -0.539 -0.945 -1.039 -1.969 c -0.164 -0.328 -0.344 -0.691 -0.402 -0.805 c -0.133 -0.258 -0.156 -0.359 -0.113 -0.484 c 0.09 -0.27 1.059 -1.914 1.543 -2.625 c 0.449 -0.652 0.973 -1.293 1.184 -1.445 c 0.063 -0.043 0.066 -0.051 -0.043 0.184 c -0.039 0.09 -0.078 0.18 -0.086 0.199 c -0.008 0.023 0.203 -0.133 0.559 -0.414 c 1.094 -0.863 1.887 -1.391 2.84 -1.891 c 0.32 -0.172 0.441 -0.227 0.461 -0.215 c 0.004 0.004 -0.016 0.043 -0.051 0.082 c -0.051 0.066 -0.07 0.105 -0.047 0.105 c 0.004 0 0.09 -0.035 0.188 -0.082 c 0.172 -0.074 0.23 -0.094 0.23 -0.07 c 0 0.004 -0.051 0.066 -0.109 0.137 c -0.156 0.18 -0.512 0.66 -0.793 1.063 c -0.273 0.395 -0.527 0.773 -0.527 0.789 c 0 0.008 0.191 -0.137 0.418 -0.324 c 0.23 -0.188 0.426 -0.332 0.43 -0.32 c 0.004 0.008 -0.082 0.125 -0.195 0.258 c -0.582 0.695 -0.855 1.16 -0.977 1.656 c -0.047 0.199 -0.043 0.543 0.008 0.742 c 0.145 0.539 0.609 1.156 1.281 1.688 c 0.371 0.301 0.66 0.438 1.02 0.496 c 0.582 0.094 1.18 -0.176 1.684 -0.766 c 0.336 -0.395 0.785 -1.098 1.035 -1.617 c 0.234 -0.492 0.355 -0.988 0.301 -1.207 c -0.055 -0.219 -0.293 -0.473 -0.684 -0.73 c -0.316 -0.211 -0.699 -0.398 -0.816 -0.398 c -0.07 0 -0.313 0.129 -0.621 0.336 c -0.277 0.184 -0.871 0.652 -1.047 0.828 c -0.066 0.066 -0.133 0.121 -0.145 0.121 c -0.086 0.004 0.055 -0.402 0.246 -0.699 c 0.203 -0.32 0.449 -0.609 0.922 -1.094 c 0.145 -0.148 0.336 -0.344 0.43 -0.441 c 0.09 -0.094 0.172 -0.172 0.184 -0.172 c 0.008 0 0.047 0.02 0.082 0.043 c 0.082 0.051 0.293 0.137 0.809 0.324 c 0.215 0.082 0.453 0.172 0.527 0.207 c 0.074 0.035 0.141 0.059 0.145 0.055 c 0.012 -0.008 -0.133 -0.234 -0.23 -0.359 c -0.047 -0.059 -0.078 -0.113 -0.074 -0.117 c 0.016 -0.008 0.043 0.008 0.508 0.344 c 0.18 0.129 0.91 0.633 1.617 1.113 c 0.707 0.484 1.383 0.949 1.496 1.031 c 0.188 0.137 0.211 0.156 0.262 0.258 c 0.176 0.336 0.266 0.816 0.336 1.781 c 0.023 0.297 0.055 0.586 0.066 0.625 c 0.008 0.012 0.016 0.023 0.023 0.023 c 0.008 0 0.137 -0.066 0.281 -0.148 c 0.84 -0.469 1.285 -0.863 1.52 -1.336 c 0.039 -0.086 0.113 -0.273 0.16 -0.418 c 0.055 -0.164 0.094 -0.266 0.109 -0.266 c 0.059 0 0.094 0.336 0.055 0.531 l -0.016 0.082 l 0.051 -0.035 c 0.113 -0.09 0.254 -0.363 0.336 -0.676 c 0.066 -0.246 0.086 -0.758 0.035 -1 c -0.113 -0.574 -0.438 -0.965 -0.945 -1.133 c -0.207 -0.07 -0.383 -0.094 -0.684 -0.09 c -0.316 0 -0.551 0.031 -0.91 0.117 c -0.379 0.09 -0.355 0.074 0.457 -0.32 c 1.027 -0.5 1.391 -0.68 1.746 -0.863 c 0.191 -0.102 0.359 -0.184 0.371 -0.18 c 0.008 0.004 0.047 0.07 0.082 0.152 c 0.102 0.238 0.418 0.762 0.441 0.738 c 0.004 0 -0.023 -0.105 -0.066 -0.23 c -0.102 -0.328 -0.289 -1.047 -0.27 -1.059 c 0.051 -0.039 0.27 0.324 0.852 1.422 c 1.082 2.023 1.426 2.641 1.883 3.379 c 0.289 0.469 0.508 0.785 0.711 1.035 c 0.102 0.129 0.137 0.184 0.129 0.203 c -0.008 0.02 -0.074 0.141 -0.148 0.273 c -0.074 0.133 -0.133 0.246 -0.129 0.25 c 0.012 0.012 0.137 -0.078 0.23 -0.164 c 0.141 -0.129 0.148 -0.102 0.055 0.164 c -0.109 0.313 -0.414 0.879 -0.762 1.406 c -0.305 0.469 -0.621 0.918 -1.176 1.672 c -0.18 0.242 -0.328 0.453 -0.332 0.469 c -0.008 0.02 0.023 0.059 0.098 0.121 c 0.063 0.055 0.242 0.246 0.406 0.426 c 0.164 0.18 0.344 0.371 0.402 0.422 c 0.164 0.148 0.211 0.258 0.148 0.332 c -0.109 0.129 -0.656 0.742 -0.73 0.824 c -0.051 0.051 -0.09 0.098 -0.09 0.105 c 0 0.031 0.367 -0.188 0.652 -0.391 c 0.145 -0.102 0.164 -0.113 0.164 -0.078 c 0 0.051 -0.305 0.422 -0.539 0.66 c -0.203 0.207 -0.602 0.516 -0.91 0.715 c -0.141 0.086 -0.254 0.168 -0.254 0.176 c 0 0.012 0.023 0.055 0.055 0.102 c 0.141 0.207 0.195 0.406 0.195 0.742 c 0 0.281 -0.031 0.438 -0.133 0.711 c -0.148 0.395 -0.473 0.879 -0.742 1.113 c -0.16 0.133 -0.406 0.219 -0.652 0.219 c -0.117 0 -0.348 -0.035 -0.473 -0.074 c -0.051 -0.016 -0.094 -0.027 -0.098 -0.027 c 0 0.004 -0.051 0.094 -0.109 0.199 c -0.344 0.629 -1.051 1.578 -1.789 2.398 c -0.367 0.406 -1.219 1.207 -1.66 1.563 c -0.32 0.254 -0.402 0.313 -0.496 0.348 c -0.121 0.047 -0.246 0.059 -0.336 0.035 m 0.219 -0.457 c 0.293 -0.203 0.746 -0.555 1.01 -0.777 c 1.383 -1.176 2.355 -2.449 2.934 -3.828 c 0.41 -0.977 0.594 -1.863 0.594 -2.895 c 0 -0.57 -0.051 -1.078 -0.168 -1.629 c -0.055 -0.262 -0.059 -0.266 -0.125 -0.32 c -0.035 -0.031 -0.094 -0.07 -0.129 -0.09 c -0.031 -0.016 -0.063 -0.039 -0.066 -0.051 c -0.008 -0.012 0.074 -0.133 0.18 -0.273 c 0.336 -0.445 0.594 -0.844 0.855 -1.324 c 0.145 -0.27 0.348 -0.695 0.336 -0.707 c -0.008 -0.004 -0.23 0.004 -0.496 0.02 c -2.543 0.129 -4.215 0.309 -5.738 0.621 c -0.254 0.051 -0.402 0.078 -0.414 0.066 c -0.012 -0.008 -0.004 -0.031 0.023 -0.059 c 0.023 -0.027 0.035 -0.051 0.031 -0.055 c -0.016 -0.012 -0.969 -0.219 -1.605 -0.344 c -1.195 -0.238 -2.246 -0.406 -3.281 -0.523 c -0.418 -0.047 -1.188 -0.113 -1.199 -0.105 c -0.027 0.02 0.805 1.266 1.223 1.836 c 0.047 0.066 0.09 0.129 0.09 0.141 c 0 0.012 -0.035 0.07 -0.078 0.129 c -0.273 0.383 -0.672 1.133 -0.82 1.535 l -0.043 0.121 l 0.047 0.129 c 0.207 0.586 0.418 1.336 0.68 2.398 c 0.25 1 0.387 1.418 0.633 1.914 c 0.684 1.383 1.813 2.453 3.555 3.371 c 0.508 0.266 1.703 0.82 1.773 0.82 c 0.02 0 0.109 -0.055 0.203 -0.121 m -1.426 -2.305 c 0.008 -0.023 0.285 -0.141 0.555 -0.23 c 0.41 -0.141 0.938 -0.258 1.426 -0.316 c 0.16 -0.02 0.23 -0.012 0.191 0.02 c -0.035 0.027 -0.414 0.129 -1.23 0.324 c -0.434 0.105 -0.813 0.199 -0.84 0.207 c -0.07 0.02 -0.109 0.02 -0.102 -0.004 m 1.148 -0.969 c -0.199 -0.156 -0.352 -0.324 -0.469 -0.523 c -0.066 -0.117 -0.109 -0.215 -0.086 -0.215 c 0.004 0 0.145 0.105 0.313 0.234 c 0.164 0.129 0.309 0.234 0.316 0.234 c 0.008 0 0.016 -0.063 0.016 -0.141 c 0 -0.082 0.02 -0.418 0.047 -0.75 c 0.023 -0.332 0.051 -0.758 0.059 -0.941 c 0.004 -0.184 0.016 -0.344 0.023 -0.352 c 0.02 -0.027 0.074 -0.004 0.184 0.07 l 0.078 0.055 l -0.02 0.348 c -0.023 0.387 -0.055 0.723 -0.121 1.328 c -0.027 0.223 -0.051 0.473 -0.059 0.555 c -0.016 0.215 -0.023 0.242 -0.063 0.242 c -0.02 0 -0.117 -0.063 -0.219 -0.145 m -2.848 -1.313 c -0.281 -0.02 -0.594 -0.094 -0.789 -0.188 c -0.156 -0.078 -0.352 -0.227 -0.453 -0.348 c -0.176 -0.211 -0.348 -0.555 -0.383 -0.77 c -0.027 -0.156 0.008 -0.309 0.105 -0.465 c 0.082 -0.133 0.289 -0.313 0.484 -0.418 c 0.176 -0.098 0.164 -0.086 0.152 -0.098 c -0.004 -0.004 -0.141 -0.016 -0.301 -0.027 c -0.422 -0.035 -0.621 -0.063 -0.668 -0.094 c -0.02 -0.016 -0.086 -0.039 -0.148 -0.047 c -0.168 -0.027 -0.289 -0.059 -0.289 -0.074 c 0 -0.008 0.047 -0.016 0.105 -0.016 c 0.102 0 0.441 -0.035 0.512 -0.051 c 0.047 -0.016 0.039 -0.027 -0.047 -0.07 c -0.105 -0.055 -0.305 -0.199 -0.289 -0.211 c 0.008 -0.004 0.074 0.004 0.148 0.02 c 0.297 0.066 0.719 0.102 1.711 0.137 c 0.883 0.031 1.168 0.035 1.238 0.016 c 0.211 -0.059 0.309 -0.34 0.188 -0.563 c -0.074 -0.145 -0.074 -0.148 -0.031 -0.148 c 0.055 0 0.223 0.125 0.273 0.207 c 0.066 0.102 0.086 0.18 0.109 0.422 l 0.02 0.219 l 0.066 0.027 c 0.035 0.016 0.063 0.035 0.063 0.043 c 0 0.043 -0.426 0.203 -0.539 0.203 c -0.055 0 -0.055 0.016 0.004 0.059 c 0.086 0.066 0.344 0.402 0.391 0.504 c 0.066 0.156 0.09 0.328 0.063 0.488 c -0.105 0.672 -0.824 1.266 -1.512 1.25 c -0.059 0 -0.145 -0.004 -0.184 -0.008 m 5.04 -0.141 c -0.414 -0.063 -0.809 -0.211 -1.023 -0.375 c -0.105 -0.082 -0.199 -0.199 -0.25 -0.309 c -0.051 -0.109 -0.066 -0.34 -0.031 -0.484 c 0.051 -0.227 0.211 -0.52 0.434 -0.777 l 0.117 -0.141 l -0.32 -0.004 c -0.379 -0.012 -0.398 -0.016 -0.301 -0.102 c 0.09 -0.082 0.137 -0.207 0.184 -0.508 c 0.039 -0.273 0.07 -0.383 0.098 -0.383 c 0.012 0 0.023 0.078 0.031 0.184 c 0.008 0.098 0.023 0.211 0.031 0.254 l 0.012 0.074 l 0.133 -0.004 c 0.129 -0.004 0.43 -0.039 0.805 -0.094 c 0.117 -0.016 0.301 -0.035 0.406 -0.039 c 0.176 -0.008 0.215 -0.004 0.414 0.039 c 0.336 0.07 0.391 0.063 0.742 -0.07 c 0.133 -0.051 0.184 -0.063 0.195 -0.051 c 0.008 0.016 0.027 0.016 0.063 0.004 c 0.07 -0.02 0.105 -0.02 0.105 0.004 c 0 0.023 -0.172 0.129 -0.387 0.238 c -0.074 0.039 -0.129 0.074 -0.125 0.082 c 0.008 0.004 0.125 0.016 0.266 0.02 c 0.285 0.012 0.32 0.02 0.32 0.047 c 0 0.031 -0.051 0.047 -0.262 0.086 c -0.102 0.02 -0.188 0.039 -0.191 0.043 c -0.004 0.004 0.043 0.051 0.105 0.102 c 0.27 0.227 0.383 0.492 0.359 0.848 c -0.039 0.609 -0.551 1.152 -1.227 1.301 c -0.148 0.031 -0.535 0.039 -0.703 0.016 m -7.969 0.488 c 0.066 -0.074 0.063 -0.172 -0.031 -0.426 c -0.145 -0.391 -0.309 -0.926 -0.422 -1.363 c -0.023 -0.09 -0.051 -0.18 -0.063 -0.195 c -0.039 -0.063 -0.441 -0.391 -0.621 -0.512 c -0.211 -0.141 -0.363 -0.203 -0.48 -0.203 c -0.102 0 -0.145 0.031 -0.199 0.129 c -0.023 0.043 -0.031 0.117 -0.039 0.332 c -0.02 0.637 0.121 1.09 0.461 1.484 c 0.277 0.32 1.074 0.813 1.293 0.797 c 0.043 0 0.074 -0.016 0.102 -0.043 m 10.629 -0.113 c 0.207 -0.059 0.391 -0.172 0.586 -0.363 c 0.359 -0.355 0.66 -0.898 0.73 -1.309 c 0.051 -0.313 -0.09 -0.762 -0.266 -0.832 c -0.098 -0.043 -0.148 -0.02 -0.348 0.16 c -0.367 0.332 -0.52 0.484 -0.531 0.539 c -0.051 0.23 -0.301 1.219 -0.379 1.48 c -0.051 0.176 -0.09 0.328 -0.082 0.336 c 0.02 0.027 0.172 0.02 0.289 -0.016" fill="#a39063"/><path d="m 16.762 25.727 c -0.117 -0.023 -0.52 -0.211 -1.461 -0.68 c -1.352 -0.672 -1.832 -0.957 -2.473 -1.457 c -0.387 -0.305 -0.566 -0.477 -0.793 -0.773 c -0.254 -0.328 -0.543 -0.824 -0.785 -1.363 c -0.066 -0.148 -0.129 -0.273 -0.137 -0.277 c -0.008 -0.008 -0.047 0.023 -0.09 0.074 c -0.09 0.105 -0.184 0.176 -0.297 0.215 c -0.121 0.047 -0.41 0.043 -0.566 0 c -0.641 -0.191 -1.227 -0.836 -1.484 -1.633 c -0.117 -0.379 -0.176 -0.844 -0.141 -1.156 c 0.016 -0.164 0.063 -0.352 0.105 -0.438 c 0.008 -0.016 -0.066 -0.09 -0.25 -0.258 c -0.395 -0.352 -0.715 -0.668 -0.676 -0.668 c 0.012 0 0.129 0.082 0.266 0.18 c 0.371 0.273 0.426 0.313 0.441 0.301 c 0.027 -0.02 -0.527 -0.648 -0.789 -0.895 c -0.336 -0.313 -0.324 -0.414 0.078 -0.762 c 0.09 -0.074 0.16 -0.148 0.16 -0.16 c 0 -0.047 -0.281 -0.449 -0.836 -1.188 c -0.273 -0.359 -0.348 -0.449 -0.348 -0.406 c 0 0.008 0.078 0.203 0.176 0.438 c 0.098 0.234 0.172 0.43 0.168 0.434 c -0.016 0.016 -0.133 -0.141 -0.285 -0.387 c -0.266 -0.422 -0.508 -0.879 -1.01 -1.895 c -0.18 -0.371 -0.375 -0.766 -0.434 -0.879 c -0.094 -0.18 -0.109 -0.223 -0.117 -0.328 c -0.004 -0.074 0.004 -0.141 0.016 -0.176 c 0.031 -0.078 0.477 -0.879 0.695 -1.254 c 0.406 -0.688 0.93 -1.484 1.273 -1.934 c 0.27 -0.352 0.672 -0.801 0.695 -0.785 c 0.004 0.008 -0.027 0.094 -0.07 0.195 c -0.043 0.102 -0.074 0.188 -0.066 0.195 c 0.008 0.004 0.172 -0.117 0.359 -0.273 c 1.074 -0.879 2.199 -1.633 3.215 -2.152 c 0.133 -0.07 0.246 -0.125 0.258 -0.125 c 0.008 0 -0.008 0.035 -0.031 0.074 c -0.082 0.129 -0.07 0.133 0.168 0.023 c 0.102 -0.047 0.184 -0.078 0.188 -0.074 c 0.008 0.004 -0.043 0.07 -0.109 0.148 c -0.246 0.297 -0.688 0.906 -1.086 1.504 c -0.195 0.293 -0.254 0.391 -0.234 0.391 c 0.008 0 0.188 -0.141 0.402 -0.316 c 0.215 -0.176 0.395 -0.316 0.398 -0.313 c 0.004 0.004 -0.066 0.102 -0.16 0.211 c -0.23 0.285 -0.359 0.453 -0.504 0.676 c -0.652 0.996 -0.613 1.754 0.129 2.648 c 0.426 0.504 0.875 0.883 1.285 1.074 c 0.434 0.203 0.879 0.223 1.297 0.059 c 0.383 -0.152 0.742 -0.453 1.09 -0.918 c 0.199 -0.266 0.609 -0.914 0.746 -1.18 c 0.289 -0.563 0.441 -1.055 0.414 -1.352 c -0.012 -0.137 -0.074 -0.254 -0.211 -0.41 c -0.23 -0.258 -0.785 -0.621 -1.168 -0.766 c -0.117 -0.043 -0.141 -0.051 -0.191 -0.035 c -0.277 0.078 -1.285 0.797 -1.664 1.184 c -0.098 0.102 -0.117 0.105 -0.102 0.016 c 0.035 -0.195 0.16 -0.457 0.344 -0.719 c 0.207 -0.301 0.445 -0.566 1.125 -1.258 l 0.301 -0.309 l 0.086 0.047 c 0.105 0.059 0.289 0.133 0.793 0.316 c 0.211 0.078 0.457 0.176 0.543 0.211 c 0.16 0.074 0.188 0.082 0.188 0.055 c 0 -0.02 -0.156 -0.266 -0.219 -0.344 c -0.023 -0.031 -0.039 -0.059 -0.035 -0.063 c 0.004 -0.004 0.164 0.102 0.348 0.234 c 0.188 0.133 0.836 0.578 1.441 0.992 c 1.938 1.32 1.902 1.297 1.984 1.449 c 0.16 0.305 0.254 0.805 0.324 1.719 c 0.035 0.477 0.063 0.68 0.09 0.703 c 0.02 0.016 0.066 -0.004 0.246 -0.102 c 0.641 -0.348 1.066 -0.664 1.344 -0.992 c 0.191 -0.23 0.313 -0.465 0.422 -0.813 c 0.031 -0.105 0.063 -0.203 0.066 -0.215 c 0.02 -0.043 0.047 0.012 0.066 0.141 c 0.016 0.105 0.016 0.16 -0.008 0.273 c -0.016 0.074 -0.02 0.145 -0.012 0.152 c 0.027 0.023 0.145 -0.09 0.215 -0.203 c 0.191 -0.301 0.305 -0.801 0.277 -1.234 c -0.02 -0.348 -0.098 -0.617 -0.254 -0.863 c -0.16 -0.254 -0.375 -0.434 -0.656 -0.543 c -0.402 -0.16 -0.941 -0.172 -1.574 -0.031 c -0.133 0.027 -0.242 0.047 -0.246 0.043 c -0.008 -0.008 0.07 -0.047 0.996 -0.496 c 0.805 -0.391 1.41 -0.695 1.586 -0.797 c 0.059 -0.031 0.113 -0.055 0.117 -0.047 c 0.008 0.004 0.031 0.059 0.055 0.113 c 0.102 0.246 0.395 0.73 0.5 0.82 l 0.043 0.035 l -0.008 -0.035 c -0.008 -0.02 -0.043 -0.141 -0.086 -0.266 c -0.063 -0.195 -0.227 -0.781 -0.273 -0.98 c -0.023 -0.102 0.027 -0.047 0.168 0.188 c 0.164 0.27 0.316 0.543 0.871 1.59 c 1.246 2.34 1.832 3.324 2.363 3.98 c 0.063 0.074 0.109 0.145 0.109 0.156 c 0 0.016 -0.066 0.145 -0.148 0.289 c -0.078 0.145 -0.148 0.27 -0.148 0.273 c 0 0.035 0.082 -0.008 0.219 -0.109 c 0.082 -0.066 0.152 -0.117 0.152 -0.105 c 0 0.027 -0.094 0.277 -0.16 0.422 c -0.277 0.621 -0.75 1.352 -1.75 2.723 l -0.445 0.605 l 0.102 0.094 c 0.145 0.137 0.199 0.195 0.484 0.508 c 0.137 0.152 0.301 0.324 0.363 0.379 c 0.066 0.063 0.121 0.129 0.141 0.176 c 0.027 0.066 0.027 0.074 -0.004 0.113 c -0.055 0.07 -0.461 0.531 -0.68 0.773 c -0.113 0.121 -0.195 0.223 -0.191 0.23 c 0.008 0.004 0.031 0 0.055 -0.008 c 0.063 -0.023 0.387 -0.223 0.586 -0.359 c 0.094 -0.066 0.176 -0.117 0.18 -0.113 c 0.027 0.023 -0.273 0.383 -0.512 0.621 c -0.223 0.219 -0.582 0.5 -0.891 0.695 c -0.125 0.078 -0.242 0.152 -0.258 0.164 c -0.02 0.016 -0.012 0.035 0.051 0.137 c 0.391 0.598 0.207 1.508 -0.469 2.328 c -0.145 0.176 -0.246 0.266 -0.355 0.32 c -0.242 0.121 -0.574 0.137 -0.898 0.047 c -0.074 -0.02 -0.148 -0.035 -0.156 -0.035 c -0.012 0 -0.051 0.063 -0.09 0.137 c -0.246 0.469 -0.832 1.301 -1.406 1.98 c -0.523 0.625 -1.383 1.48 -1.984 1.973 c -0.395 0.32 -0.492 0.387 -0.641 0.434 c -0.117 0.039 -0.137 0.043 -0.242 0.02 m 0.281 -0.469 c 1.371 -0.98 2.473 -2.109 3.23 -3.32 c 0.254 -0.406 0.363 -0.605 0.539 -0.984 c 0.277 -0.594 0.48 -1.234 0.602 -1.887 c 0.082 -0.461 0.102 -0.699 0.102 -1.277 c 0 -0.594 -0.023 -0.871 -0.109 -1.352 c -0.078 -0.422 -0.117 -0.574 -0.156 -0.598 c -0.016 -0.012 -0.078 -0.055 -0.129 -0.09 l -0.098 -0.07 l 0.191 -0.254 c 0.238 -0.316 0.465 -0.652 0.652 -0.973 c 0.273 -0.461 0.566 -1.055 0.531 -1.082 c -0.016 -0.016 -0.492 0.008 -1.418 0.063 c -2.027 0.121 -3.785 0.332 -5 0.602 c -0.109 0.027 -0.207 0.043 -0.211 0.039 c -0.004 -0.004 0.012 -0.027 0.035 -0.051 c 0.023 -0.027 0.035 -0.051 0.031 -0.055 c -0.016 -0.012 -0.918 -0.207 -1.57 -0.336 c -1.508 -0.305 -2.969 -0.523 -4.176 -0.621 c -0.152 -0.012 -0.309 -0.023 -0.348 -0.027 c -0.051 -0.008 -0.074 -0.004 -0.082 0.012 c -0.02 0.039 0.582 0.961 1.098 1.68 c 0.117 0.164 0.211 0.305 0.211 0.313 c 0 0.012 -0.051 0.094 -0.113 0.188 c -0.156 0.23 -0.375 0.605 -0.523 0.898 c -0.141 0.285 -0.289 0.641 -0.289 0.691 c 0 0.02 0.031 0.133 0.074 0.254 c 0.219 0.648 0.387 1.242 0.613 2.156 c 0.082 0.336 0.184 0.73 0.223 0.879 c 0.34 1.203 0.91 2.152 1.828 3.035 c 0.207 0.203 0.715 0.609 1.023 0.82 c 0.488 0.336 1.066 0.664 1.758 0.996 c 0.469 0.227 1.152 0.527 1.195 0.527 c 0.023 0 0.145 -0.074 0.289 -0.18 m -1.316 -2.336 c 0 -0.012 0.281 -0.121 0.5 -0.188 c 0.293 -0.094 0.617 -0.168 0.98 -0.227 c 0.324 -0.055 0.383 -0.059 0.363 -0.039 c -0.016 0.023 -0.426 0.125 -1.813 0.453 c -0.016 0.004 -0.031 0.004 -0.031 0 m 1.043 -0.867 c -0.148 -0.105 -0.273 -0.219 -0.371 -0.34 c -0.09 -0.109 -0.207 -0.301 -0.207 -0.336 c 0 -0.012 0.07 0.035 0.16 0.105 c 0.406 0.313 0.414 0.316 0.43 0.293 c 0.012 -0.012 0.02 -0.105 0.02 -0.207 c 0 -0.102 0.023 -0.453 0.047 -0.781 c 0.023 -0.328 0.051 -0.734 0.059 -0.898 c 0.008 -0.18 0.02 -0.297 0.031 -0.297 c 0.02 0 0.141 0.07 0.164 0.094 c 0.031 0.031 -0.02 0.801 -0.105 1.551 c -0.023 0.219 -0.055 0.504 -0.066 0.637 c -0.012 0.129 -0.027 0.238 -0.035 0.246 c -0.008 0.008 -0.063 -0.023 -0.125 -0.066 m 2.078 -1.57 c -0.156 -0.031 -0.355 -0.113 -0.523 -0.211 c -0.156 -0.094 -0.258 -0.172 -0.242 -0.188 c 0.008 -0.004 0.066 0.012 0.129 0.031 c 0.066 0.023 0.328 0.102 0.582 0.18 c 0.254 0.074 0.469 0.145 0.48 0.152 c 0.035 0.027 -0.02 0.047 -0.168 0.051 c -0.094 0.004 -0.188 0 -0.258 -0.016 m -4.965 -0.109 c 0.012 -0.008 0.133 -0.051 0.27 -0.094 c 0.137 -0.043 0.391 -0.133 0.563 -0.191 c 0.426 -0.152 0.441 -0.148 0.191 0.027 c -0.211 0.152 -0.367 0.211 -0.711 0.25 c -0.211 0.027 -0.336 0.027 -0.313 0.008 m 4.395 -0.48 c -0.121 -0.031 -0.238 -0.125 -0.285 -0.23 c -0.125 -0.262 -0.074 -0.723 0.117 -1.066 c 0.094 -0.164 0.094 -0.164 -0.031 -0.156 c -0.125 0.008 -0.535 0.004 -0.566 -0.008 c -0.016 -0.004 -0.004 -0.027 0.039 -0.078 c 0.07 -0.086 0.109 -0.199 0.148 -0.445 c 0.031 -0.203 0.043 -0.258 0.059 -0.25 c 0.004 0.008 0.063 0.32 0.063 0.352 c 0 0.02 0.441 -0.02 0.82 -0.07 c 0.551 -0.074 0.688 -0.078 0.984 -0.016 c 0.313 0.063 0.367 0.059 0.758 -0.055 c 0.121 -0.035 0.227 -0.063 0.23 -0.059 c 0.027 0.023 -0.348 0.219 -0.512 0.266 c -0.059 0.016 -0.113 0.039 -0.117 0.047 c -0.008 0.023 0.184 0.047 0.395 0.051 c 0.105 0 0.207 0.008 0.23 0.012 c 0.031 0.012 0.031 0.012 0 0.023 c -0.078 0.023 -0.535 0.098 -0.742 0.117 c -0.258 0.027 -0.688 0.055 -0.863 0.055 c -0.07 0 -0.129 0.004 -0.137 0.012 c -0.004 0.008 0.02 0.043 0.059 0.078 c 0.16 0.152 0.238 0.367 0.223 0.625 c -0.035 0.535 -0.438 0.906 -0.871 0.797 m -3.824 -0.133 c -0.258 -0.102 -0.43 -0.391 -0.434 -0.723 c 0 -0.242 0.07 -0.426 0.227 -0.582 c 0.043 -0.043 0.074 -0.078 0.066 -0.082 c -0.004 -0.008 -0.133 -0.004 -0.289 0.008 c -0.551 0.031 -1.223 0.008 -1.746 -0.055 c -0.102 -0.012 -0.184 -0.02 -0.191 -0.02 c -0.004 0 -0.008 -0.008 -0.008 -0.016 c 0 -0.004 0.043 -0.023 0.098 -0.035 c 0.129 -0.035 0.313 -0.113 0.305 -0.129 c -0.004 -0.012 -0.078 -0.039 -0.164 -0.07 c -0.18 -0.063 -0.332 -0.137 -0.301 -0.145 c 0.016 -0.004 0.133 0.004 0.262 0.016 c 0.395 0.039 1.012 0.07 2.031 0.098 c 0.566 0.016 0.613 0.016 0.719 -0.047 c 0.027 -0.016 0.07 -0.063 0.102 -0.105 c 0.039 -0.063 0.051 -0.098 0.059 -0.203 c 0.008 -0.117 -0.012 -0.184 -0.078 -0.313 c -0.023 -0.043 0.02 -0.031 0.098 0.027 c 0.141 0.102 0.199 0.254 0.215 0.539 c 0.016 0.219 0.02 0.23 0.086 0.258 c 0.043 0.016 0.051 0.027 0.035 0.043 c -0.039 0.035 -0.352 0.145 -0.473 0.16 c -0.066 0.008 -0.121 0.02 -0.121 0.027 c 0 0.004 0.023 0.023 0.055 0.043 c 0.074 0.043 0.211 0.211 0.258 0.316 c 0.051 0.117 0.078 0.316 0.066 0.43 c -0.035 0.281 -0.164 0.465 -0.383 0.551 c -0.098 0.039 -0.133 0.047 -0.254 0.047 c -0.117 0 -0.16 -0.008 -0.238 -0.039 m -3.59 1.352 c 0.059 -0.016 0.102 -0.086 0.113 -0.176 c 0.012 -0.055 -0.004 -0.117 -0.082 -0.328 c -0.117 -0.32 -0.273 -0.816 -0.383 -1.227 c -0.047 -0.172 -0.098 -0.332 -0.113 -0.352 c -0.02 -0.02 -0.148 -0.133 -0.293 -0.246 c -0.371 -0.305 -0.609 -0.441 -0.797 -0.457 c -0.242 -0.023 -0.32 0.156 -0.301 0.68 c 0.027 0.676 0.238 1.133 0.707 1.527 c 0.25 0.211 0.707 0.484 0.926 0.555 c 0.125 0.043 0.152 0.043 0.223 0.023 m 10.793 -0.195 c 0.453 -0.176 0.969 -0.813 1.164 -1.434 c 0.074 -0.227 0.086 -0.352 0.051 -0.547 c -0.051 -0.293 -0.152 -0.473 -0.293 -0.531 c -0.059 -0.023 -0.074 -0.023 -0.129 -0.004 c -0.07 0.023 -0.223 0.148 -0.539 0.449 l -0.223 0.211 l -0.164 0.652 c -0.09 0.359 -0.199 0.781 -0.246 0.941 c -0.047 0.156 -0.086 0.293 -0.086 0.297 c 0 0.027 0.09 0.043 0.195 0.035 c 0.082 -0.004 0.156 -0.023 0.27 -0.07" fill="#030302"/></svg>