<svg xmlns="http://www.w3.org/2000/svg" viewBox="0 0 32 32"><path d="m 26.309 4.691 c 25.01 33.16 -43.824 37.867 -21.734 4.02 c 5.04 -7.715 15.11 -12.805 21.734 -4.02" fill="#649e44"/><path d="m 11.465 24.305 c -0.047 -0.074 -0.266 -0.098 -0.488 -0.055 c -0.445 0.086 -0.879 -0.258 -1.527 -1.215 c -0.281 -0.414 -0.344 -0.66 -0.309 -1.223 c 0.039 -0.637 0.078 -0.707 0.398 -0.742 c 0.414 -0.047 1.281 -0.453 1.281 -0.598 c 0 -0.051 -0.086 -0.145 -0.195 -0.207 c -0.105 -0.059 -0.453 -0.629 -0.77 -1.262 c -0.316 -0.637 -0.711 -1.273 -0.875 -1.414 c -0.211 -0.184 -0.293 -0.422 -0.293 -0.828 c 0 -0.344 -0.086 -0.641 -0.215 -0.742 c -0.168 -0.133 -0.215 -0.5 -0.215 -1.656 c 0 -1.465 0.008 -1.492 0.418 -1.883 c 0.695 -0.664 1.031 -0.563 2.398 0.742 c 0.957 0.91 1.18 1.199 1.105 1.422 c -0.066 0.199 0.031 0.398 0.344 0.711 c 0.238 0.238 0.434 0.504 0.434 0.594 c 0 0.211 0.688 0.816 0.801 0.707 c 0.051 -0.047 -0.012 -0.238 -0.141 -0.426 c -0.305 -0.441 -0.332 -3.402 -0.035 -3.773 c 0.105 -0.133 0.16 -0.383 0.125 -0.559 c -0.039 -0.191 0.109 -0.629 0.375 -1.105 c 0.242 -0.434 0.441 -0.922 0.441 -1.09 c 0 -0.164 0.098 -0.379 0.215 -0.473 c 0.125 -0.102 0.211 -0.398 0.211 -0.738 c 0 -0.422 0.086 -0.648 0.332 -0.867 c 0.414 -0.371 0.613 -0.367 1.391 0.02 c 0.75 0.379 1.238 1.137 1.258 1.945 c 0.004 0.32 0.102 0.633 0.223 0.727 c 0.117 0.094 0.215 0.371 0.215 0.613 c 0 0.242 0.098 0.516 0.215 0.609 c 0.172 0.137 0.211 0.566 0.211 2.242 c 0 1.672 -0.039 2.102 -0.211 2.238 c -0.117 0.094 -0.215 0.23 -0.215 0.309 c 0 0.352 0.645 -0.473 1.148 -1.465 c 0.305 -0.602 0.781 -1.301 1.059 -1.555 c 0.273 -0.258 0.5 -0.543 0.5 -0.637 c 0 -0.094 0.184 -0.375 0.41 -0.617 c 0.223 -0.246 0.434 -0.57 0.465 -0.719 c 0.078 -0.41 0.699 -0.422 1.094 -0.023 c 0.313 0.316 0.324 0.422 0.328 2.754 c 0.004 2.625 0.004 2.633 -0.875 4.09 c -0.078 0.133 -0.18 0.332 -0.227 0.441 c -0.047 0.113 -0.207 0.426 -0.355 0.699 c -0.223 0.41 -0.238 0.508 -0.07 0.566 c 0.109 0.043 0.316 -0.012 0.461 -0.117 c 0.145 -0.102 0.527 -0.191 0.852 -0.191 c 0.352 -0.004 0.66 -0.09 0.77 -0.215 c 0.102 -0.117 0.348 -0.195 0.551 -0.172 c 0.348 0.039 0.371 0.09 0.414 0.91 c 0.027 0.594 -0.031 1.02 -0.195 1.355 c -0.297 0.609 -1.465 1.781 -1.781 1.781 c -0.125 0 -0.352 0.129 -0.5 0.281 c -0.266 0.281 -1.113 0.711 -1.438 0.73 c -0.094 0.004 -0.215 0.055 -0.273 0.109 c -0.125 0.121 -2.961 0.137 -3.086 0.02 c -0.047 -0.047 -0.57 -0.082 -1.172 -0.082 c -0.598 0 -1.125 0.035 -1.172 0.082 c -0.145 0.137 -3.715 0.09 -3.809 -0.051 m 0.426 -3.535 c -0.051 -0.074 -0.152 -0.137 -0.23 -0.137 c -0.078 0 -0.105 0.063 -0.055 0.137 c 0.047 0.074 0.152 0.137 0.23 0.137 c 0.078 0 0.102 -0.063 0.055 -0.137" fill="#abc8ab"/><path d="m 11.535 24.297 c 0 -0.074 -0.215 -0.133 -0.473 -0.133 c -0.852 0 -1.809 -1.25 -1.809 -2.371 c 0 -0.586 0.023 -0.617 0.402 -0.617 c 0.219 0 0.523 -0.09 0.676 -0.199 c 0.355 -0.258 0.93 -0.262 1.281 -0.008 c 0.309 0.223 0.918 0.277 0.918 0.082 c 0 -0.172 -0.832 -0.555 -1.207 -0.555 c -0.426 0 -0.793 -0.426 -1.418 -1.648 c -0.293 -0.574 -0.652 -1.148 -0.805 -1.277 c -0.188 -0.164 -0.273 -0.418 -0.273 -0.809 c 0 -0.344 -0.086 -0.645 -0.215 -0.742 c -0.164 -0.133 -0.211 -0.5 -0.211 -1.652 c 0 -1.395 0.02 -1.504 0.348 -1.816 c 0.609 -0.582 0.996 -0.457 2.238 0.727 c 0.902 0.859 1.113 1.141 1.113 1.473 c 0 0.246 0.121 0.516 0.297 0.668 c 0.164 0.141 0.379 0.441 0.48 0.664 c 0.266 0.598 0.75 0.98 0.969 0.77 c 0.137 -0.133 0.121 -0.254 -0.074 -0.578 c -0.195 -0.328 -0.246 -0.738 -0.246 -1.957 c 0 -0.879 0.059 -1.578 0.141 -1.625 c 0.078 -0.047 0.145 -0.305 0.145 -0.574 c 0 -0.477 0.461 -1.586 0.723 -1.738 c 0.07 -0.043 0.129 -0.281 0.129 -0.527 c 0 -0.25 0.098 -0.527 0.215 -0.621 c 0.129 -0.102 0.203 -0.371 0.188 -0.691 c -0.023 -0.602 0.328 -1.074 0.797 -1.07 c 0.441 0.008 1.375 0.676 1.691 1.219 c 0.156 0.262 0.273 0.688 0.266 0.945 c -0.008 0.258 0.078 0.605 0.195 0.777 c 0.113 0.168 0.211 0.453 0.211 0.633 c 0 0.18 0.094 0.402 0.211 0.496 c 0.172 0.137 0.215 0.563 0.215 2.238 c 0 1.676 -0.043 2.105 -0.215 2.242 c -0.25 0.199 -0.281 0.543 -0.051 0.543 c 0.262 0 1.262 -1.332 1.262 -1.68 c 0 -0.105 0.098 -0.266 0.215 -0.359 c 0.117 -0.09 0.211 -0.27 0.211 -0.395 c 0 -0.125 0.258 -0.465 0.57 -0.758 c 0.313 -0.293 0.57 -0.605 0.57 -0.703 c 0 -0.094 0.18 -0.371 0.402 -0.617 c 0.223 -0.242 0.445 -0.551 0.496 -0.68 c 0.133 -0.352 0.605 -0.289 0.941 0.117 c 0.273 0.332 0.297 0.539 0.297 2.594 c 0 1.672 -0.051 2.324 -0.203 2.598 c -0.113 0.195 -0.238 0.449 -0.285 0.563 c -0.043 0.113 -0.137 0.293 -0.207 0.406 c -0.355 0.586 -0.762 1.328 -0.883 1.629 c -0.078 0.188 -0.344 0.43 -0.594 0.543 c -0.246 0.113 -0.473 0.281 -0.504 0.375 c -0.074 0.23 0.402 0.207 0.742 -0.039 c 0.152 -0.109 0.422 -0.199 0.598 -0.199 c 0.176 0 0.359 -0.063 0.41 -0.137 c 0.047 -0.074 0.363 -0.137 0.703 -0.137 c 0.371 0 0.684 -0.078 0.789 -0.203 c 0.211 -0.238 0.656 -0.266 0.797 -0.047 c 0.211 0.324 0.156 1.41 -0.094 1.859 c -0.316 0.57 -1.516 1.785 -1.758 1.785 c -0.098 0 -0.297 0.121 -0.434 0.27 c -0.141 0.148 -0.551 0.395 -0.914 0.551 c -0.359 0.156 -0.77 0.344 -0.902 0.414 c -0.336 0.168 -2.777 0.16 -2.887 -0.012 c -0.047 -0.074 -0.625 -0.137 -1.281 -0.137 c -0.656 0 -1.234 0.063 -1.281 0.137 c -0.051 0.078 -0.832 0.137 -1.859 0.137 c -1.086 0 -1.773 -0.055 -1.773 -0.137" fill="#8eb78e"/><path d="m 11.605 24.297 c -0.051 -0.074 -0.266 -0.133 -0.48 -0.133 c -0.648 0 -1.871 -1.449 -1.871 -2.219 c 0 -0.578 0.148 -0.77 0.59 -0.77 c 0.23 0 0.574 -0.098 0.766 -0.215 c 0.316 -0.199 0.383 -0.199 0.797 0 c 0.547 0.258 1.266 0.285 1.262 0.047 c -0.004 -0.199 -0.953 -0.645 -1.371 -0.645 c -0.391 0 -0.766 -0.445 -1.328 -1.563 c -0.262 -0.523 -0.625 -1.125 -0.809 -1.336 c -0.234 -0.27 -0.305 -0.48 -0.246 -0.711 c 0.055 -0.203 0 -0.461 -0.141 -0.664 c -0.176 -0.254 -0.23 -0.684 -0.23 -1.813 c 0 -1.645 0.137 -1.926 0.941 -1.926 c 0.566 0 2.477 1.793 2.477 2.324 c 0 0.496 1.598 2.508 1.867 2.352 c 0.195 -0.117 0.141 -0.777 -0.094 -1.07 c -0.293 -0.371 -0.285 -2.883 0.012 -3.258 c 0.113 -0.145 0.207 -0.523 0.207 -0.84 c 0 -0.316 0.063 -0.613 0.133 -0.656 c 0.211 -0.125 0.578 -0.898 0.578 -1.223 c 0 -0.16 0.098 -0.41 0.211 -0.555 c 0.113 -0.145 0.211 -0.512 0.215 -0.816 c 0 -0.402 0.094 -0.637 0.336 -0.855 l 0.336 -0.297 l 0.734 0.352 c 0.492 0.234 0.758 0.457 0.816 0.676 c 0.047 0.18 0.176 0.398 0.285 0.484 c 0.113 0.09 0.203 0.41 0.207 0.719 c 0 0.309 0.098 0.68 0.211 0.824 c 0.117 0.145 0.211 0.43 0.211 0.637 c 0 0.207 0.063 0.41 0.141 0.457 c 0.242 0.141 0.184 4.09 -0.066 4.453 c -0.133 0.195 -0.16 0.371 -0.074 0.5 c 0.207 0.324 0.914 -0.43 1.516 -1.617 c 0.285 -0.566 0.766 -1.285 1.066 -1.602 c 0.301 -0.316 0.551 -0.656 0.551 -0.762 c 0 -0.102 0.133 -0.301 0.301 -0.441 c 0.164 -0.145 0.355 -0.398 0.422 -0.566 c 0.148 -0.367 0.57 -0.395 0.891 -0.055 c 0.199 0.211 0.234 0.598 0.234 2.543 v 2.297 l -0.84 1.617 c -0.691 1.336 -0.914 1.645 -1.281 1.793 c -0.289 0.113 -0.441 0.27 -0.441 0.453 c 0 0.328 0.262 0.359 0.652 0.078 c 0.148 -0.109 0.441 -0.199 0.648 -0.203 c 0.207 -0.004 0.453 -0.098 0.551 -0.207 c 0.105 -0.121 0.422 -0.207 0.766 -0.207 c 0.324 -0.004 0.711 -0.094 0.859 -0.203 c 0.426 -0.305 0.652 -0.02 0.652 0.816 c 0 0.469 -0.07 0.77 -0.211 0.883 c -0.117 0.094 -0.215 0.27 -0.215 0.395 c 0 0.254 -1.129 1.371 -1.387 1.371 c -0.094 0 -0.387 0.184 -0.656 0.406 c -0.266 0.223 -0.582 0.406 -0.699 0.406 c -0.117 0 -0.293 0.094 -0.391 0.203 c -0.098 0.113 -0.297 0.203 -0.441 0.203 c -0.148 0 -0.27 0.063 -0.27 0.137 c 0 0.082 -0.547 0.137 -1.352 0.137 c -0.809 0 -1.352 -0.055 -1.352 -0.137 c 0 -0.082 -0.547 -0.137 -1.355 -0.137 c -0.805 0 -1.352 0.055 -1.352 0.137 c 0 0.082 -0.66 0.137 -1.699 0.137 c -0.98 0 -1.738 -0.059 -1.789 -0.137" fill="#5b9b5b"/><path d="m 11.625 24.23 c -0.047 -0.113 -0.258 -0.203 -0.48 -0.203 c -0.438 0 -1.32 -0.664 -1.32 -0.996 c 0 -0.105 -0.094 -0.27 -0.211 -0.363 c -0.133 -0.102 -0.215 -0.398 -0.215 -0.762 c 0 -0.563 0.023 -0.594 0.398 -0.594 c 0.223 0 0.523 -0.09 0.676 -0.199 c 0.363 -0.262 0.84 -0.262 1.066 0 c 0.258 0.297 1.188 0.215 1.25 -0.105 c 0.027 -0.141 -0.063 -0.273 -0.211 -0.32 c -0.145 -0.043 -0.391 -0.137 -0.551 -0.211 c -0.16 -0.07 -0.387 -0.145 -0.5 -0.164 c -0.645 -0.109 -0.813 -0.281 -1.371 -1.41 c -0.32 -0.652 -0.719 -1.305 -0.887 -1.445 c -0.211 -0.184 -0.297 -0.422 -0.297 -0.82 c 0 -0.313 -0.07 -0.629 -0.156 -0.711 c -0.09 -0.086 -0.152 -0.746 -0.152 -1.621 c 0 -1.348 0.027 -1.492 0.313 -1.711 c 0.172 -0.133 0.406 -0.242 0.523 -0.242 c 0.117 0 0.688 0.438 1.266 0.973 c 0.813 0.754 1.051 1.063 1.051 1.355 c 0 0.227 0.172 0.563 0.43 0.844 c 0.234 0.254 0.426 0.52 0.426 0.586 c 0 0.258 0.98 1.031 1.203 0.949 c 0.285 -0.105 0.293 -0.816 0.008 -1.039 c -0.301 -0.242 -0.297 -2.938 0.004 -3.32 c 0.117 -0.145 0.211 -0.492 0.211 -0.773 c 0 -0.297 0.148 -0.773 0.355 -1.121 c 0.195 -0.336 0.355 -0.758 0.355 -0.938 c 0 -0.184 0.094 -0.406 0.215 -0.5 c 0.125 -0.102 0.211 -0.398 0.211 -0.742 c 0 -0.809 0.582 -1.297 0.992 -0.828 c 0.09 0.109 0.305 0.215 0.469 0.238 c 0.395 0.055 0.961 1.086 0.961 1.742 c 0 0.285 0.094 0.582 0.211 0.676 c 0.121 0.094 0.215 0.367 0.215 0.609 c 0 0.242 0.098 0.52 0.215 0.613 c 0.172 0.133 0.211 0.547 0.211 2.102 c 0 1.555 -0.039 1.969 -0.211 2.105 c -0.25 0.195 -0.285 0.754 -0.059 0.891 c 0.25 0.145 1.07 -0.723 1.543 -1.637 c 0.238 -0.469 0.438 -0.906 0.438 -0.977 c 0 -0.066 0.254 -0.363 0.57 -0.652 c 0.313 -0.293 0.566 -0.609 0.566 -0.703 c 0 -0.094 0.195 -0.379 0.43 -0.637 c 0.234 -0.254 0.426 -0.527 0.426 -0.605 c 0 -0.277 0.305 -0.32 0.578 -0.086 c 0.254 0.219 0.277 0.438 0.277 2.582 c 0 2.453 -0.039 2.637 -0.863 3.996 c -0.07 0.113 -0.266 0.477 -0.434 0.813 c -0.195 0.391 -0.469 0.688 -0.75 0.816 c -0.496 0.227 -0.668 0.73 -0.301 0.863 c 0.129 0.047 0.371 -0.004 0.539 -0.117 c 0.168 -0.113 0.438 -0.203 0.602 -0.203 c 0.164 0 0.422 -0.09 0.574 -0.199 c 0.152 -0.109 0.527 -0.203 0.836 -0.203 c 0.305 -0.004 0.672 -0.102 0.809 -0.223 c 0.137 -0.117 0.32 -0.176 0.402 -0.129 c 0.258 0.152 0.172 1.309 -0.141 1.922 c -0.309 0.609 -1.285 1.547 -1.609 1.547 c -0.105 0 -0.305 0.121 -0.449 0.27 c -0.141 0.152 -0.594 0.426 -1.01 0.613 c -0.414 0.188 -0.793 0.398 -0.84 0.473 c -0.148 0.23 -2.43 0.172 -2.637 -0.066 c -0.129 -0.152 -0.48 -0.203 -1.352 -0.203 c -0.871 0 -1.219 0.051 -1.352 0.203 c -0.141 0.16 -0.531 0.203 -1.781 0.203 c -1.297 0 -1.621 -0.039 -1.688 -0.203" fill="#2f822f"/><path d="m 11.746 24.297 c -0.047 -0.074 -0.035 -0.137 0.027 -0.137 c 0.301 -0.004 -0.359 -0.266 -0.68 -0.266 c -0.617 -0.004 -1.555 -1.25 -1.555 -2.066 c 0 -0.328 0.059 -0.379 0.41 -0.379 c 0.227 0 0.488 -0.094 0.586 -0.207 c 0.23 -0.258 0.566 -0.258 0.969 0.012 c 0.188 0.125 0.531 0.191 0.848 0.168 c 0.465 -0.035 0.539 -0.09 0.578 -0.418 c 0.039 -0.324 -0.012 -0.387 -0.395 -0.457 c -0.242 -0.047 -0.473 -0.137 -0.516 -0.203 c -0.043 -0.066 -0.254 -0.117 -0.473 -0.117 c -0.492 0 -0.68 -0.211 -1.332 -1.504 c -0.285 -0.563 -0.652 -1.137 -0.813 -1.273 c -0.203 -0.176 -0.289 -0.422 -0.289 -0.816 c 0 -0.309 -0.07 -0.625 -0.152 -0.703 c -0.086 -0.086 -0.156 -0.773 -0.16 -1.613 c -0.008 -1.27 0.023 -1.492 0.25 -1.648 c 0.43 -0.301 0.621 -0.219 1.641 0.727 c 0.758 0.695 0.984 0.992 0.984 1.281 c 0 0.23 0.172 0.566 0.426 0.848 c 0.234 0.254 0.43 0.539 0.43 0.629 c 0 0.094 0.258 0.406 0.57 0.699 c 0.484 0.445 0.617 0.508 0.855 0.387 c 0.34 -0.176 0.383 -0.906 0.07 -1.297 c -0.293 -0.371 -0.293 -2.871 0 -3.242 c 0.117 -0.145 0.211 -0.492 0.211 -0.773 c 0 -0.277 0.063 -0.547 0.141 -0.59 c 0.078 -0.047 0.145 -0.195 0.145 -0.332 c 0 -0.137 0.094 -0.324 0.211 -0.418 c 0.121 -0.09 0.219 -0.328 0.219 -0.523 c 0.004 -0.195 0.102 -0.477 0.215 -0.621 c 0.113 -0.145 0.207 -0.52 0.207 -0.832 c 0 -0.797 0.23 -0.934 0.977 -0.578 c 0.672 0.313 1.16 1.082 1.16 1.809 c 0 0.234 0.094 0.543 0.211 0.688 c 0.113 0.145 0.211 0.426 0.211 0.621 c 0.004 0.195 0.102 0.434 0.219 0.523 c 0.32 0.254 0.313 3.961 -0.008 4.215 c -0.281 0.227 -0.219 0.996 0.09 1.051 c 0.352 0.063 1.199 -0.828 1.684 -1.773 c 0.242 -0.477 0.441 -0.926 0.441 -0.996 c 0 -0.074 0.258 -0.371 0.57 -0.664 c 0.313 -0.289 0.57 -0.609 0.57 -0.707 c 0 -0.098 0.191 -0.367 0.426 -0.602 c 0.234 -0.234 0.426 -0.508 0.426 -0.609 c 0 -0.227 0.176 -0.238 0.398 -0.023 c 0.121 0.117 0.172 0.863 0.176 2.48 l 0.004 2.313 l -0.801 1.492 c -0.57 1.066 -0.93 1.574 -1.25 1.766 c -0.559 0.344 -0.691 0.949 -0.234 1.086 c 0.18 0.055 0.438 0.004 0.645 -0.125 c 0.188 -0.117 0.496 -0.215 0.688 -0.215 c 0.188 0 0.422 -0.09 0.52 -0.203 c 0.105 -0.121 0.418 -0.203 0.781 -0.203 c 0.367 0 0.676 -0.082 0.785 -0.203 c 0.305 -0.355 0.426 -0.227 0.426 0.457 c 0 0.461 -0.113 0.855 -0.371 1.293 c -0.348 0.598 -1.125 1.305 -1.434 1.305 c -0.074 0 -0.289 0.152 -0.473 0.34 c -0.184 0.184 -0.441 0.336 -0.578 0.336 c -0.133 0 -0.32 0.094 -0.418 0.207 c -0.098 0.109 -0.305 0.203 -0.457 0.203 c -0.16 0 -0.313 0.113 -0.355 0.27 c -0.066 0.246 -0.195 0.273 -1.254 0.273 c -1.055 0 -1.184 -0.027 -1.25 -0.273 c -0.066 -0.246 -0.195 -0.27 -1.453 -0.27 c -1.258 0 -1.387 0.023 -1.453 0.27 c -0.07 0.25 -0.195 0.273 -1.617 0.273 c -0.871 0 -1.578 -0.059 -1.629 -0.137" fill="#007f00"/><path d="m 11.766 24.336 c -0.059 -0.051 0.043 -0.203 0.223 -0.34 c 0.293 -0.215 0.305 -0.262 0.105 -0.41 c -0.121 -0.094 -0.266 -0.277 -0.316 -0.406 c -0.051 -0.133 -0.238 -0.238 -0.418 -0.242 c -0.484 0 -0.711 -0.191 -0.656 -0.555 c 0.039 -0.27 0.129 -0.324 0.531 -0.324 c 0.582 0 0.75 -0.277 0.227 -0.371 c -0.586 -0.109 -1.637 0.047 -1.637 0.238 c 0 0.094 0.098 0.207 0.215 0.25 c 0.117 0.043 0.215 0.188 0.215 0.32 c 0.008 0.301 0.777 1.125 1.055 1.125 c 0.113 0 0.246 0.059 0.297 0.133 c 0.051 0.082 -0.109 0.137 -0.395 0.137 c -0.32 0 -0.586 -0.105 -0.797 -0.316 c -0.449 -0.457 -0.875 -1.309 -0.875 -1.746 c 0 -0.328 0.059 -0.379 0.41 -0.379 c 0.227 0 0.488 -0.094 0.586 -0.203 c 0.23 -0.262 0.566 -0.262 0.965 0.008 c 0.191 0.125 0.535 0.191 0.852 0.168 c 0.461 -0.035 0.539 -0.09 0.578 -0.41 c 0.039 -0.309 -0.023 -0.387 -0.355 -0.465 c -0.219 -0.051 -0.543 -0.18 -0.715 -0.285 c -0.172 -0.109 -0.383 -0.152 -0.469 -0.105 c -0.258 0.152 -0.531 -0.172 -1.121 -1.336 c -0.309 -0.613 -0.699 -1.227 -0.859 -1.367 c -0.223 -0.195 -0.297 -0.418 -0.297 -0.922 c 0 -0.367 0.07 -0.789 0.152 -0.941 c 0.141 -0.246 0.125 -0.258 -0.141 -0.121 c -0.289 0.148 -0.297 0.121 -0.297 -0.93 c 0 -0.594 -0.035 -1.172 -0.082 -1.281 c -0.098 -0.242 0.41 -0.77 0.738 -0.77 c 0.125 0 0.668 0.406 1.207 0.902 c 0.758 0.699 0.984 0.996 0.984 1.285 c 0 0.23 0.172 0.566 0.426 0.844 c 0.238 0.258 0.43 0.543 0.43 0.633 c 0 0.094 0.258 0.406 0.57 0.699 c 0.484 0.445 0.617 0.508 0.855 0.387 c 0.34 -0.176 0.383 -0.906 0.07 -1.297 c -0.246 -0.313 -0.316 -2.984 -0.074 -2.844 c 0.078 0.047 0.141 0.594 0.141 1.215 c 0 0.883 0.051 1.148 0.215 1.211 c 0.168 0.063 0.215 0.328 0.215 1.219 c 0 0.852 0.055 1.188 0.215 1.313 c 0.117 0.09 0.211 0.242 0.211 0.336 c 0 0.09 0.16 0.453 0.355 0.805 c 0.453 0.805 0.453 1.031 0.008 1.031 c -0.43 0 -0.617 0.246 -0.266 0.348 c 0.145 0.043 0.379 0.141 0.523 0.215 c 0.145 0.074 0.297 0.102 0.34 0.063 c 0.039 -0.043 0.063 -0.672 0.047 -1.402 c -0.027 -1.316 -0.031 -1.332 -0.516 -1.809 c -0.723 -0.711 -0.609 -1.328 0.207 -1.125 c 0.203 0.055 0.297 0.012 0.297 -0.125 c 0 -0.246 -0.258 -0.461 -0.625 -0.527 c -0.148 -0.027 -0.316 -0.141 -0.375 -0.254 c -0.375 -0.723 -0.449 -0.953 -0.375 -1.145 c 0.121 -0.297 0.484 -0.266 0.664 0.059 c 0.211 0.379 0.426 0.34 0.426 -0.078 c 0 -0.227 -0.188 -0.523 -0.531 -0.844 c -0.293 -0.273 -0.613 -0.641 -0.711 -0.82 c -0.219 -0.395 -0.25 -1.422 -0.039 -1.109 c 0.078 0.113 0.141 0.344 0.141 0.512 c 0.004 0.234 0.086 0.305 0.359 0.305 c 0.195 0 0.355 0.063 0.355 0.137 c 0 0.074 0.098 0.133 0.215 0.133 c 0.332 0 0.25 -0.461 -0.145 -0.813 c -0.195 -0.176 -0.355 -0.43 -0.355 -0.566 c 0 -0.137 -0.094 -0.25 -0.211 -0.25 c -0.121 0 -0.215 -0.082 -0.215 -0.184 c 0 -0.105 0.094 -0.266 0.215 -0.359 c 0.117 -0.09 0.215 -0.328 0.215 -0.523 c 0.004 -0.195 0.102 -0.477 0.215 -0.621 c 0.113 -0.145 0.211 -0.52 0.211 -0.832 c 0 -0.797 0.227 -0.934 0.973 -0.578 c 0.422 0.199 0.684 0.445 0.883 0.832 c 0.293 0.582 0.379 1.59 0.137 1.59 c -0.078 0 -0.145 -0.207 -0.145 -0.461 c 0 -0.285 -0.082 -0.492 -0.211 -0.539 c -0.117 -0.043 -0.215 -0.188 -0.219 -0.32 c -0.008 -0.391 -0.355 -0.719 -0.758 -0.719 c -0.328 0 -0.379 0.059 -0.379 0.422 c 0 0.336 0.051 0.406 0.234 0.34 c 0.418 -0.152 0.621 0.18 0.621 1.012 c 0 0.715 0.031 0.793 0.32 0.832 c 0.258 0.035 0.328 0.145 0.363 0.543 c 0.039 0.43 0 0.504 -0.281 0.543 c -0.18 0.023 -0.348 0.152 -0.375 0.281 c -0.043 0.207 0.004 0.219 0.336 0.098 c 0.273 -0.098 0.441 -0.094 0.578 0.02 c 0.309 0.242 0.238 0.434 -0.371 1 c -0.711 0.66 -0.738 0.891 -0.094 0.789 c 0.582 -0.09 0.785 0.23 0.453 0.719 c -0.121 0.172 -0.219 0.406 -0.219 0.516 c 0 0.109 -0.094 0.25 -0.207 0.313 c -0.328 0.176 -0.113 0.742 0.262 0.691 c 0.223 -0.031 0.301 -0.141 0.301 -0.402 c 0 -0.195 0.113 -0.477 0.25 -0.621 c 0.344 -0.363 0.375 -3.258 0.035 -3.383 c -0.246 -0.09 -0.305 -1.199 -0.07 -1.336 c 0.082 -0.051 0.145 0.082 0.145 0.313 c 0 0.219 0.094 0.477 0.211 0.566 c 0.32 0.254 0.313 3.961 -0.008 4.215 c -0.289 0.23 -0.219 0.996 0.102 1.055 c 0.129 0.023 0.391 -0.117 0.582 -0.313 c 0.438 -0.453 1.309 -0.59 1.516 -0.238 c 0.133 0.219 0.168 0.215 0.473 -0.078 l 0.328 -0.316 l -0.602 -0.512 c -0.547 -0.469 -0.582 -0.535 -0.395 -0.77 c 0.109 -0.145 0.203 -0.355 0.207 -0.473 c 0.008 -0.289 0.797 -0.992 0.988 -0.879 c 0.27 0.156 0.168 0.422 -0.273 0.73 c -0.516 0.367 -0.543 0.566 -0.078 0.566 c 0.191 0 0.418 0.105 0.5 0.238 c 0.141 0.223 0.16 0.223 0.355 -0.02 c 0.129 -0.156 0.316 -0.227 0.488 -0.184 c 0.266 0.066 0.285 -0.012 0.328 -1.148 c 0.023 -0.672 0.008 -1.242 -0.035 -1.27 c -0.043 -0.023 -0.258 0.133 -0.473 0.355 c -0.219 0.219 -0.457 0.398 -0.527 0.398 c -0.266 0 -0.117 -0.426 0.297 -0.836 c 0.234 -0.234 0.426 -0.508 0.426 -0.609 c 0 -0.227 0.176 -0.238 0.398 -0.02 c 0.121 0.113 0.172 0.863 0.172 2.5 v 2.336 l -0.594 1.09 c -0.328 0.602 -0.648 1.059 -0.711 1.02 c -0.203 -0.117 -0.129 -0.734 0.094 -0.816 c 0.117 -0.043 0.215 -0.227 0.215 -0.402 c 0 -0.18 0.063 -0.324 0.145 -0.324 c 0.078 0 0.141 -0.105 0.141 -0.23 c 0 -0.125 0.117 -0.355 0.262 -0.508 c 0.18 -0.191 0.234 -0.391 0.176 -0.613 l -0.09 -0.332 l -0.316 0.324 c -0.176 0.176 -0.316 0.426 -0.316 0.547 c 0 0.125 -0.352 0.535 -0.781 0.91 c -0.434 0.375 -0.785 0.75 -0.785 0.832 c 0 0.082 0.164 0.25 0.363 0.375 c 0.512 0.32 0.426 0.785 -0.16 0.836 c -0.27 0.027 -0.512 -0.039 -0.625 -0.172 c -0.172 -0.195 -0.211 -0.191 -0.453 0.016 c -0.309 0.266 -0.344 0.766 -0.07 0.984 c 0.145 0.113 0.25 0.086 0.449 -0.121 c 0.141 -0.148 0.375 -0.27 0.52 -0.27 c 0.281 0 0.352 0.199 0.121 0.34 c -0.078 0.043 -0.145 0.227 -0.145 0.406 c 0 0.422 0.473 0.566 0.93 0.281 c 0.188 -0.117 0.496 -0.215 0.688 -0.215 c 0.188 0 0.422 -0.09 0.52 -0.203 c 0.105 -0.121 0.418 -0.203 0.781 -0.203 c 0.367 0 0.68 -0.082 0.785 -0.203 c 0.309 -0.355 0.426 -0.227 0.426 0.457 c 0 0.461 -0.113 0.855 -0.371 1.293 c -0.348 0.598 -1.125 1.305 -1.434 1.305 c -0.074 0 -0.289 0.152 -0.473 0.34 c -0.184 0.184 -0.441 0.336 -0.578 0.336 c -0.133 0 -0.32 0.094 -0.418 0.207 c -0.098 0.109 -0.305 0.203 -0.457 0.203 c -0.16 0 -0.313 0.113 -0.355 0.27 c -0.066 0.246 -0.195 0.273 -1.254 0.273 c -1.055 0 -1.184 -0.027 -1.25 -0.273 c -0.066 -0.246 -0.195 -0.27 -1.453 -0.27 c -1.258 0 -1.387 0.023 -1.453 0.27 c -0.07 0.25 -0.195 0.273 -1.602 0.273 c -0.84 0 -1.57 -0.043 -1.625 -0.098 m 2.859 -0.598 c 0.195 -0.184 3.465 -0.164 3.664 0.023 c 0.18 0.172 1.602 0.168 1.715 -0.008 c 0.047 -0.074 0.215 -0.133 0.367 -0.133 c 0.156 0 0.32 -0.094 0.363 -0.203 c 0.047 -0.113 0.23 -0.207 0.414 -0.207 c 0.188 0 0.457 -0.152 0.629 -0.363 c 0.273 -0.332 0.281 -0.379 0.074 -0.574 c -0.207 -0.195 -0.238 -0.191 -0.367 0.023 c -0.102 0.172 -0.32 0.238 -0.781 0.238 c -0.688 0 -1.129 0.27 -1.219 0.746 c -0.066 0.352 -0.934 0.469 -1.063 0.145 c -0.063 -0.152 -0.281 -0.215 -0.758 -0.215 c -0.531 0 -0.742 -0.07 -1.01 -0.336 c -0.266 -0.27 -0.473 -0.34 -1.012 -0.34 c -0.594 0 -0.68 0.035 -0.723 0.305 c -0.031 0.219 -0.156 0.316 -0.434 0.348 c -0.34 0.035 -0.395 -0.004 -0.395 -0.305 c 0 -0.383 -0.34 -0.484 -0.477 -0.145 c -0.047 0.109 -0.215 0.203 -0.371 0.203 c -0.238 0 -0.289 0.086 -0.289 0.477 v 0.473 h 0.754 c 0.414 0 0.824 -0.066 0.914 -0.152 m 3.348 -1.738 c -0.027 -0.227 0.121 -0.488 0.473 -0.832 c 0.504 -0.488 0.504 -0.5 0.184 -0.578 c -0.383 -0.098 -0.973 0.355 -0.973 0.75 c 0 0.141 -0.094 0.285 -0.203 0.328 c -0.242 0.086 -0.402 0.434 -0.285 0.613 c 0.047 0.074 0.258 0.113 0.465 0.09 c 0.305 -0.031 0.371 -0.102 0.34 -0.371 m -4.449 -0.16 c 0.547 -0.27 0.75 -0.527 0.418 -0.527 c -0.086 0 -0.328 0.086 -0.535 0.191 c -0.207 0.109 -0.496 0.23 -0.637 0.273 c -0.141 0.043 -0.219 0.137 -0.168 0.211 c 0.125 0.199 0.273 0.176 0.922 -0.148 m 9.613 0.152 c 0.047 -0.074 0.023 -0.137 -0.055 -0.137 c -0.078 0 -0.184 0.063 -0.23 0.137 c -0.047 0.074 -0.023 0.133 0.055 0.133 c 0.078 0 0.18 -0.059 0.23 -0.133 m -7.789 -0.418 c -0.027 -0.082 -0.109 -0.148 -0.184 -0.148 c -0.074 0 -0.16 0.066 -0.188 0.148 c -0.027 0.078 0.055 0.145 0.188 0.145 c 0.129 0 0.215 -0.066 0.184 -0.145 m 5.859 -0.102 c 0.328 -0.191 0.387 -0.285 0.258 -0.406 c -0.234 -0.227 -0.672 -0.199 -0.77 0.043 c -0.047 0.109 -0.195 0.203 -0.332 0.203 c -0.141 0 -0.332 0.09 -0.434 0.203 c -0.148 0.176 -0.102 0.203 0.336 0.203 c 0.281 0 0.707 -0.109 0.941 -0.246 m 2.813 -0.758 c 0.41 -0.336 0.297 -0.488 -0.363 -0.488 c -0.492 0 -1.02 0.34 -1.02 0.656 c 0 0.219 1.07 0.086 1.383 -0.168 m -11.02 -0.754 c -0.039 -0.148 -0.16 -0.34 -0.27 -0.426 c -0.109 -0.086 -0.199 -0.27 -0.199 -0.402 c 0 -0.367 -0.254 -0.449 -0.641 -0.207 c -0.191 0.117 -0.477 0.215 -0.633 0.215 c -0.367 0 -0.371 0.195 -0.012 0.539 c 0.211 0.199 0.395 0.246 0.711 0.188 c 0.32 -0.059 0.453 -0.023 0.516 0.141 c 0.137 0.328 0.621 0.285 0.531 -0.047 m 1.402 -0.051 c -0.168 -0.172 -0.309 -0.414 -0.309 -0.543 c 0 -0.125 -0.059 -0.227 -0.129 -0.227 c -0.07 0 -0.195 -0.184 -0.277 -0.406 c -0.188 -0.52 -0.488 -0.551 -0.355 -0.035 c 0.055 0.203 0.184 0.453 0.289 0.551 c 0.105 0.102 0.188 0.25 0.188 0.332 c 0 0.227 0.445 0.645 0.688 0.645 c 0.168 0 0.148 -0.074 -0.094 -0.316 m 3.734 -0.289 c 0.125 -0.184 0.23 -0.414 0.23 -0.516 c 0 -0.098 0.129 -0.281 0.285 -0.41 c 0.234 -0.191 0.262 -0.289 0.137 -0.512 c -0.16 -0.281 -0.422 -0.246 -0.422 0.063 c 0 0.098 -0.16 0.461 -0.359 0.813 c -0.195 0.352 -0.355 0.695 -0.355 0.77 c 0 0.234 0.25 0.129 0.484 -0.207 m -7.172 -1.098 c 0 -0.188 0.094 -0.371 0.211 -0.406 c 0.723 -0.215 0.695 -0.188 0.469 -0.438 c -0.117 -0.133 -0.25 -0.344 -0.301 -0.473 c -0.191 -0.516 -1.203 -0.027 -1.117 0.543 c 0.023 0.168 0.105 0.305 0.176 0.305 c 0.074 0 0.133 0.141 0.133 0.316 c 0 0.172 0.043 0.355 0.094 0.406 c 0.195 0.188 0.332 0.082 0.332 -0.254 m 6.266 -0.469 c 0 -0.301 -0.227 -0.473 -0.355 -0.273 c -0.125 0.191 0.063 0.699 0.223 0.605 c 0.074 -0.043 0.133 -0.191 0.133 -0.332 m -4.133 -0.512 c 0 -0.117 -0.637 -0.711 -0.762 -0.711 c -0.168 0 -0.086 0.32 0.148 0.566 c 0.234 0.246 0.621 0.34 0.613 0.145 m 6.461 -0.102 c 0.094 -0.23 -0.023 -0.609 -0.191 -0.609 c -0.109 0 -0.57 0.602 -0.57 0.742 c 0 0.172 0.688 0.055 0.762 -0.133 m -9.742 -1.203 c -0.172 -0.188 -0.414 0.039 -0.414 0.387 c 0 0.449 0.336 0.516 0.438 0.086 c 0.043 -0.195 0.031 -0.406 -0.023 -0.473 m 2.289 0.004 c 0 -0.027 -0.145 -0.164 -0.32 -0.305 l -0.32 -0.258 l 0.273 0.305 c 0.254 0.285 0.367 0.367 0.367 0.258 m -1.422 -0.223 c 0 -0.078 -0.094 -0.137 -0.207 -0.137 c -0.113 0 -0.246 0.059 -0.293 0.137 c -0.047 0.074 0.043 0.133 0.207 0.133 c 0.16 0 0.293 -0.059 0.293 -0.133 m -1.219 -2.055 c -0.066 -0.207 -0.016 -0.293 0.215 -0.348 c 0.336 -0.086 0.324 -0.289 -0.027 -0.5 c -0.379 -0.227 -0.68 0.133 -0.68 0.816 c 0 0.563 0.02 0.59 0.293 0.453 c 0.207 -0.105 0.266 -0.23 0.199 -0.422 m 6.129 -3.559 c 0 -0.707 -0.277 -0.684 -0.328 0.027 c -0.035 0.441 0 0.574 0.141 0.531 c 0.109 -0.035 0.188 -0.266 0.188 -0.559 m 5.34 8.953 c 0 -0.027 0.094 -0.125 0.211 -0.219 c 0.176 -0.141 0.215 -0.129 0.215 0.051 c 0 0.121 -0.098 0.219 -0.215 0.219 c -0.117 0 -0.211 -0.02 -0.211 -0.051 m -1.262 -3.613 c 0 -0.188 0.035 -0.262 0.074 -0.168 c 0.039 0.094 0.039 0.246 0 0.34 c -0.039 0.094 -0.074 0.016 -0.074 -0.172" fill="#007800"/><path d="m 11.891 24.297 c 0.047 -0.074 0.637 -0.133 1.313 -0.133 c 0.941 0 1.289 -0.055 1.488 -0.227 c 0.313 -0.273 0.418 -0.207 0.309 0.195 c -0.078 0.289 -0.152 0.301 -1.641 0.301 c -1 0 -1.527 -0.047 -1.469 -0.137 m 6 -0.164 c -0.109 -0.402 -0.004 -0.469 0.309 -0.195 c 0.355 0.305 1.488 0.297 1.98 -0.012 c 0.367 -0.227 0.375 -0.227 0.281 0.012 c -0.055 0.137 -0.102 0.305 -0.102 0.371 c 0 0.07 -0.535 0.125 -1.191 0.125 c -1.113 0 -1.199 -0.02 -1.277 -0.301 m -7.566 -0.648 c -0.262 -0.277 -0.219 -0.512 0.063 -0.348 c 0.215 0.129 0.469 0.617 0.32 0.617 c -0.07 0 -0.242 -0.121 -0.383 -0.27 m 1.953 0.059 c -0.176 -0.117 -0.316 -0.328 -0.316 -0.473 c 0 -0.172 -0.129 -0.289 -0.391 -0.344 c -0.691 -0.141 -0.801 -0.195 -0.664 -0.324 c 0.07 -0.066 0.32 -0.141 0.559 -0.164 c 0.344 -0.035 0.434 -0.113 0.469 -0.418 c 0.027 -0.203 0.133 -0.371 0.242 -0.371 c 0.105 0 0.215 0.168 0.238 0.371 c 0.039 0.309 0.125 0.383 0.484 0.414 c 0.27 0.027 0.512 -0.039 0.625 -0.168 c 0.098 -0.117 0.27 -0.211 0.383 -0.211 c 0.109 0 0.258 -0.152 0.332 -0.34 c 0.074 -0.188 0.203 -0.34 0.281 -0.34 c 0.082 0 0.148 -0.063 0.148 -0.137 c 0 -0.215 -0.469 -0.156 -1.105 0.137 c -0.324 0.148 -0.609 0.273 -0.633 0.273 c -0.023 0 -0.043 -0.215 -0.043 -0.477 c 0 -0.469 0.113 -0.605 0.285 -0.34 c 0.105 0.164 0.641 0.184 0.641 0.023 c 0 -0.063 -0.16 -0.254 -0.355 -0.43 c -0.195 -0.176 -0.355 -0.422 -0.355 -0.551 c 0 -0.129 -0.098 -0.309 -0.215 -0.398 c -0.117 -0.094 -0.215 -0.285 -0.215 -0.426 c 0 -0.301 -0.555 -0.352 -0.992 -0.09 c -0.199 0.117 -0.324 0.125 -0.43 0.023 c -0.219 -0.207 -0.02 -0.594 0.305 -0.594 c 0.375 0 0.492 -0.367 0.211 -0.664 c -0.129 -0.133 -0.23 -0.344 -0.23 -0.469 c 0 -0.273 -0.84 -0.32 -1.113 -0.063 c -0.133 0.125 -0.207 0.125 -0.344 -0.004 c -0.242 -0.23 0.031 -0.621 0.473 -0.68 c 0.512 -0.07 0.598 -0.219 0.277 -0.492 c -0.266 -0.23 -0.309 -0.23 -0.637 -0.023 c -0.195 0.121 -0.453 0.219 -0.574 0.219 c -0.406 0 -0.223 -0.414 0.316 -0.715 l 0.531 -0.301 l -0.453 -0.043 c -0.254 -0.023 -0.617 0.059 -0.82 0.188 c -0.316 0.195 -0.363 0.199 -0.363 0.016 c 0 -0.113 0.227 -0.34 0.504 -0.504 c 0.379 -0.223 0.48 -0.359 0.418 -0.555 c -0.09 -0.266 0.133 -0.359 0.289 -0.121 c 0.105 0.16 0.781 0.184 0.781 0.027 c 0 -0.059 -0.254 -0.348 -0.566 -0.637 c -0.316 -0.293 -0.57 -0.594 -0.57 -0.668 c 0 -0.078 0.414 0.254 0.926 0.734 c 0.508 0.48 0.926 0.934 0.926 1 c 0 0.066 -0.129 0.016 -0.289 -0.121 c -0.309 -0.27 -0.313 -0.27 -0.543 0.156 c -0.137 0.246 -0.117 0.301 0.141 0.363 c 0.23 0.059 0.281 0.148 0.215 0.379 c -0.063 0.23 0.055 0.449 0.48 0.891 c 0.387 0.398 0.563 0.703 0.563 0.977 c 0 0.316 0.098 0.438 0.5 0.617 c 0.551 0.25 0.559 0.262 0.359 0.617 c -0.105 0.184 -0.086 0.27 0.07 0.328 c 0.117 0.039 0.211 0.164 0.211 0.273 c 0 0.219 0.406 0.992 0.664 1.262 c 0.094 0.098 0.262 0.18 0.375 0.18 c 0.113 0 0.285 0.09 0.383 0.203 c 0.098 0.109 0.277 0.203 0.398 0.203 c 0.121 0 0.336 0.098 0.48 0.223 c 0.207 0.18 0.297 0.191 0.473 0.051 c 0.168 -0.133 0.215 -0.48 0.215 -1.543 v -1.367 l -0.598 -0.582 c -0.457 -0.445 -0.559 -0.617 -0.43 -0.742 c 0.129 -0.121 0.254 -0.121 0.531 0 c 0.496 0.215 0.496 0.215 0.496 -0.238 c 0 -0.387 -0.531 -0.953 -0.906 -0.965 c -0.207 -0.004 -0.664 -0.926 -0.504 -1.02 c 0.066 -0.039 0.25 0.055 0.41 0.203 c 0.434 0.414 0.574 0.34 0.574 -0.293 c 0 -0.488 -0.086 -0.656 -0.598 -1.156 c -0.367 -0.355 -0.516 -0.582 -0.387 -0.582 c 0.121 0 0.289 0.07 0.379 0.156 c 0.262 0.25 0.605 0.027 0.605 -0.398 c 0 -0.238 -0.137 -0.512 -0.355 -0.707 c -0.445 -0.398 -0.445 -0.516 0 -0.68 c 0.32 -0.113 0.355 -0.203 0.355 -0.871 c 0 -0.746 0.207 -1.086 0.449 -0.738 c 0.07 0.102 0.113 0.551 0.09 1 l -0.039 0.816 l 0.391 -0.039 c 0.539 -0.055 0.543 0.43 0 0.676 c -0.422 0.191 -0.582 0.59 -0.336 0.828 c 0.113 0.109 0.203 0.105 0.328 -0.016 c 0.219 -0.207 0.684 -0.211 0.684 -0.008 c 0 0.086 -0.258 0.422 -0.57 0.746 c -0.398 0.41 -0.57 0.711 -0.57 0.988 c 0 0.504 0.223 0.652 0.426 0.289 c 0.148 -0.27 0.715 -0.395 0.715 -0.16 c 0 0.27 -0.465 0.969 -0.645 0.969 c -0.277 0 -0.414 0.27 -0.227 0.445 c 0.086 0.086 0.16 0.281 0.16 0.441 c 0 0.414 0.102 0.461 0.578 0.289 c 0.32 -0.113 0.492 -0.109 0.703 0.016 c 0.406 0.242 0.664 0.207 0.914 -0.129 c 0.117 -0.164 0.262 -0.258 0.316 -0.203 c 0.055 0.051 -0.043 0.234 -0.211 0.406 c -0.172 0.172 -0.309 0.41 -0.309 0.527 c 0 0.113 -0.098 0.285 -0.215 0.379 c -0.117 0.094 -0.215 0.246 -0.215 0.336 c 0 0.094 -0.16 0.453 -0.355 0.805 c -0.195 0.352 -0.355 0.828 -0.355 1.055 c 0 0.398 0.016 0.406 0.309 0.223 c 0.172 -0.109 0.422 -0.398 0.563 -0.645 c 0.137 -0.246 0.391 -0.59 0.559 -0.762 c 0.215 -0.219 0.277 -0.398 0.207 -0.605 c -0.082 -0.246 -0.055 -0.285 0.168 -0.219 c 0.375 0.117 0.703 -0.59 0.469 -1.01 c -0.227 -0.41 0.004 -0.594 0.48 -0.387 c 0.32 0.141 0.422 0.125 0.664 -0.082 c 0.402 -0.348 0.355 -0.605 -0.215 -1.18 c -0.496 -0.496 -0.625 -0.789 -0.355 -0.789 c 0.078 0 0.145 0.063 0.145 0.137 c 0 0.074 0.117 0.137 0.266 0.137 c 0.148 0 0.348 0.09 0.445 0.203 c 0.211 0.242 0.59 0.262 0.824 0.043 c 0.313 -0.301 0.348 0.004 0.043 0.41 c -0.164 0.223 -0.301 0.453 -0.301 0.516 c 0 0.063 -0.352 0.465 -0.781 0.891 c -0.828 0.82 -0.965 1.227 -0.496 1.465 c 0.367 0.188 0.379 0.68 0.016 0.68 c -0.148 0 -0.348 -0.094 -0.445 -0.203 c -0.234 -0.27 -0.473 -0.258 -0.746 0.031 c -0.32 0.344 -0.367 0.73 -0.148 1.156 c 0.227 0.445 0.34 0.461 0.684 0.102 c 0.355 -0.375 0.496 -0.34 0.496 0.129 c 0 0.219 0.066 0.438 0.148 0.484 c 0.18 0.105 -0.094 0.473 -0.352 0.473 c -0.094 0 -0.383 0.211 -0.645 0.469 c -0.414 0.406 -0.445 0.484 -0.238 0.563 c 0.141 0.051 0.352 -0.008 0.496 -0.133 c 0.148 -0.125 0.5 -0.219 0.832 -0.219 c 0.34 0 0.652 -0.086 0.754 -0.207 c 0.098 -0.109 0.266 -0.203 0.371 -0.203 c 0.234 0 0.109 -0.402 -0.203 -0.641 c -0.117 -0.094 -0.164 -0.215 -0.102 -0.273 c 0.063 -0.055 0.145 -0.027 0.18 0.066 c 0.035 0.094 0.219 0.172 0.41 0.172 c 0.246 0 0.391 0.105 0.492 0.359 c 0.109 0.273 0.184 0.324 0.309 0.203 c 0.254 -0.238 0.586 -0.188 0.875 0.129 c 0.25 0.281 0.246 0.297 -0.211 0.746 c -0.254 0.25 -0.496 0.426 -0.535 0.391 c -0.039 -0.039 0.102 -0.238 0.313 -0.445 c 0.207 -0.211 0.379 -0.422 0.379 -0.477 c 0 -0.234 -0.66 -0.059 -1.023 0.273 c -0.309 0.281 -0.438 0.328 -0.57 0.203 c -0.234 -0.223 -0.609 -0.203 -0.824 0.039 c -0.098 0.117 -0.41 0.207 -0.699 0.207 c -0.809 0 -1.309 0.27 -1.262 0.676 c 0.051 0.449 -0.469 0.473 -0.672 0.035 c -0.152 -0.328 -0.289 -0.383 -0.43 -0.168 c -0.176 0.273 -0.91 0.137 -1.32 -0.246 c -0.402 -0.371 -0.602 -0.402 -1.898 -0.305 c -0.051 0.004 -0.125 0.129 -0.168 0.277 c -0.094 0.348 -0.391 0.352 -0.484 0.012 c -0.094 -0.352 -0.414 -0.453 -0.668 -0.211 c -0.113 0.109 -0.363 0.199 -0.551 0.199 c -0.465 0 -0.539 0.105 -0.355 0.492 c 0.215 0.453 -0.016 0.656 -0.43 0.383 m 5.984 -1.191 c 0.059 -0.086 0.078 -0.285 0.039 -0.438 c -0.047 -0.199 0.082 -0.422 0.426 -0.742 c 0.273 -0.25 0.496 -0.492 0.496 -0.535 c 0 -0.043 -0.207 -0.152 -0.457 -0.242 c -0.406 -0.148 -0.492 -0.133 -0.797 0.137 c -0.188 0.168 -0.398 0.43 -0.469 0.578 c -0.07 0.148 -0.27 0.445 -0.449 0.656 l -0.32 0.383 l 0.348 0.27 c 0.363 0.281 0.965 0.25 1.184 -0.066 m -2.527 -0.832 c -0.508 -0.398 -0.836 -0.387 -0.898 0.031 c -0.043 0.277 0.008 0.305 0.641 0.305 h 0.684 m 0.977 -0.895 c 0.242 -0.316 0.242 -0.363 0.035 -0.586 c -0.289 -0.305 -0.301 -1.363 -0.02 -1.719 c 0.117 -0.145 0.211 -0.465 0.215 -0.715 c 0.004 -0.391 -0.039 -0.445 -0.316 -0.406 c -0.313 0.043 -0.32 0.09 -0.359 1.91 c -0.023 1.027 0.012 1.863 0.07 1.863 c 0.063 -0.004 0.23 -0.16 0.375 -0.348 m 3.793 2.66 c 0 -0.074 0.102 -0.137 0.223 -0.137 c 0.121 0 0.184 0.063 0.133 0.137 c -0.047 0.074 -0.148 0.133 -0.219 0.133 c -0.074 0 -0.137 -0.059 -0.137 -0.133 m 0.855 -0.367 c 0 -0.074 0.129 -0.246 0.285 -0.379 c 0.156 -0.137 0.285 -0.188 0.285 -0.113 c 0 0.074 -0.129 0.246 -0.285 0.383 c -0.156 0.137 -0.285 0.184 -0.285 0.109 m -12.01 -0.676 c -0.051 -0.051 -0.094 -0.152 -0.094 -0.23 c 0 -0.086 0.066 -0.078 0.168 0.02 c 0.094 0.09 0.137 0.195 0.094 0.23 c -0.039 0.039 -0.113 0.031 -0.168 -0.02 m 0.688 -1.266 c 0.051 -0.074 0.152 -0.137 0.23 -0.137 c 0.082 0 0.105 0.063 0.055 0.137 c -0.047 0.074 -0.152 0.137 -0.23 0.137 c -0.078 0 -0.102 -0.063 -0.055 -0.137 m 0.785 -0.008 c 0 -0.078 0.063 -0.105 0.141 -0.059 c 0.078 0.043 0.145 0.109 0.145 0.141 c 0 0.035 -0.066 0.063 -0.145 0.063 c -0.078 0 -0.141 -0.066 -0.141 -0.145 m 12.813 -0.266 c 0 -0.074 0.07 -0.133 0.152 -0.133 c 0.082 0 0.109 0.059 0.063 0.133 c -0.051 0.074 -0.117 0.137 -0.152 0.137 c -0.035 0 -0.063 -0.063 -0.063 -0.137 m -12.03 -0.813 c -0.047 -0.074 -0.023 -0.137 0.055 -0.137 c 0.078 0 0.184 0.063 0.23 0.137 c 0.051 0.074 0.023 0.137 -0.055 0.137 c -0.078 0 -0.18 -0.063 -0.23 -0.137 m 10.535 0 c 0.051 -0.074 0.117 -0.137 0.152 -0.137 c 0.035 0 0.063 0.063 0.063 0.137 c 0 0.074 -0.066 0.137 -0.148 0.137 c -0.086 0 -0.113 -0.063 -0.066 -0.137 m -11.68 -0.281 c -0.152 -0.234 0.023 -0.285 0.219 -0.063 c 0.113 0.129 0.121 0.207 0.027 0.207 c -0.082 0 -0.191 -0.066 -0.246 -0.145 m 3.664 -0.168 c -0.172 -0.176 -0.313 -0.363 -0.313 -0.426 c 0 -0.309 -0.965 -1.973 -1.406 -2.418 c -0.625 -0.633 -0.449 -0.668 0.27 -0.051 c 0.406 0.352 0.621 0.445 0.906 0.395 c 0.32 -0.059 0.375 -0.023 0.375 0.262 c 0 0.18 0.223 0.762 0.496 1.293 c 0.277 0.531 0.5 1.031 0.5 1.109 c 0 0.262 -0.512 0.16 -0.828 -0.164 m 9.543 0.152 c 0.09 -0.254 0.395 -0.293 0.395 -0.055 c 0 0.117 -0.102 0.215 -0.223 0.215 c -0.125 0 -0.203 -0.07 -0.172 -0.16 m -13.555 -0.719 c -0.109 -0.129 -0.121 -0.207 -0.027 -0.207 c 0.172 0 0.371 0.258 0.273 0.352 c -0.035 0.035 -0.145 -0.031 -0.246 -0.145 m -0.359 -0.75 c -0.047 -0.074 -0.02 -0.137 0.063 -0.137 c 0.086 0 0.152 0.063 0.152 0.137 c 0 0.074 -0.027 0.137 -0.063 0.137 c -0.035 0 -0.102 -0.063 -0.152 -0.137 m 11.535 -0.406 c 0.047 -0.074 0.152 -0.137 0.23 -0.137 c 0.078 0 0.102 0.063 0.055 0.137 c -0.051 0.074 -0.152 0.137 -0.23 0.137 c -0.078 0 -0.105 -0.063 -0.055 -0.137 m -12.246 -0.543 c -0.145 -0.152 -0.23 -0.305 -0.191 -0.34 c 0.094 -0.09 0.691 0.328 0.691 0.48 c 0 0.211 -0.227 0.148 -0.5 -0.141 m 12.633 -0.164 c 0.031 -0.086 0.133 -0.184 0.223 -0.215 c 0.105 -0.031 0.137 0.031 0.086 0.164 c -0.102 0.246 -0.395 0.297 -0.309 0.051 m 0.395 -0.789 c 0 -0.074 0.063 -0.133 0.141 -0.133 c 0.078 0 0.145 0.059 0.145 0.133 c 0 0.078 -0.066 0.137 -0.145 0.137 c -0.078 0 -0.141 -0.059 -0.141 -0.137 m -10.5 -0.813 c -0.176 -0.137 -0.32 -0.328 -0.32 -0.426 c 0 -0.102 0.164 -0.02 0.383 0.188 c 0.449 0.426 0.402 0.598 -0.063 0.238 m 2.051 0.18 c -0.051 -0.047 -0.094 -0.152 -0.094 -0.23 c 0 -0.086 0.066 -0.078 0.168 0.02 c 0.094 0.09 0.137 0.195 0.094 0.234 c -0.039 0.035 -0.113 0.027 -0.168 -0.023 m 3.777 -0.051 c 0.035 -0.102 0.145 -0.207 0.25 -0.238 c 0.105 -0.035 0.16 0.016 0.125 0.117 c -0.035 0.098 -0.148 0.207 -0.25 0.238 c -0.109 0.035 -0.16 -0.016 -0.125 -0.117 m 2.68 -1.871 c 0 -0.184 0.559 -0.621 0.664 -0.52 c 0.051 0.047 -0.023 0.211 -0.168 0.359 c -0.266 0.285 -0.496 0.355 -0.496 0.16 m -11.605 -1.109 c 0.047 -0.074 0.152 -0.137 0.23 -0.137 c 0.078 0 0.102 0.063 0.055 0.137 c -0.047 0.074 -0.152 0.137 -0.23 0.137 c -0.078 0 -0.102 -0.063 -0.055 -0.137 m 13.195 -0.805 c 0.266 -0.301 0.527 -0.484 0.594 -0.422 c 0.07 0.066 -0.086 0.301 -0.355 0.531 c -0.672 0.582 -0.797 0.523 -0.238 -0.109 m -4.203 -0.234 c -0.137 -0.129 -0.117 -0.316 0.031 -0.316 c 0.07 0 0.164 0.09 0.211 0.203 c 0.082 0.207 -0.07 0.277 -0.242 0.113 m -3.195 -1.156 c 0.074 -0.203 0.395 -0.316 0.395 -0.137 c 0 0.074 -0.102 0.168 -0.223 0.215 c -0.141 0.051 -0.203 0.02 -0.172 -0.078 m 0.469 -1.199 c 0.047 -0.074 0.113 -0.133 0.148 -0.133 c 0.035 0 0.063 0.059 0.063 0.133 c 0 0.078 -0.066 0.137 -0.148 0.137 c -0.086 0 -0.113 -0.059 -0.063 -0.137 m 2.02 -0.227 c -0.051 -0.047 -0.094 -0.152 -0.094 -0.23 c 0 -0.082 0.066 -0.074 0.168 0.023 c 0.094 0.086 0.133 0.191 0.094 0.23 c -0.039 0.039 -0.117 0.027 -0.168 -0.023 m -0.449 -0.859 c -0.051 -0.074 -0.023 -0.133 0.063 -0.133 c 0.082 0 0.148 0.059 0.148 0.133 c 0 0.078 -0.027 0.137 -0.063 0.137 c -0.035 0 -0.102 -0.059 -0.148 -0.137 m -1.129 -0.254 c -0.043 -0.066 0.008 -0.191 0.113 -0.273 c 0.145 -0.113 0.234 -0.105 0.352 0.031 c 0.09 0.102 0.121 0.223 0.066 0.273 c -0.133 0.129 -0.441 0.109 -0.535 -0.031" fill="#006800"/></svg>