<svg xmlns="http://www.w3.org/2000/svg" viewBox="0 0 32 32"><path d="m 2.598 25.309 c -10.41 -14.887 13.03 -33.523 25.281 -21.41 c 11.555 11.426 -3.383 32.742 -17.742 27.2 c -3 -1.16 -5.637 -3.07 -7.539 -5.789" fill="#f4f4f4"/><path d="m 5.922 22.547 c -0.273 -0.16 -0.488 -0.563 -0.488 -0.922 c 0 -0.273 -0.25 -0.469 -0.598 -0.469 c -0.129 0 -0.164 -0.063 -0.164 -0.313 c 0 -0.289 0.027 -0.32 0.344 -0.422 c 0.23 -0.074 0.418 -0.082 0.57 -0.023 c 0.203 0.074 0.23 0.133 0.23 0.477 c 0 0.277 0.043 0.422 0.148 0.492 c 0.383 0.262 0.676 -0.516 0.313 -0.828 l -0.184 -0.16 l 0.441 -1.395 c 0.633 -1.973 0.77 -2.535 0.664 -2.672 c -0.07 -0.09 -0.16 -0.055 -0.41 0.156 c -0.668 0.563 -1.355 0.145 -1.355 -0.82 c 0 -0.531 0.199 -0.762 0.352 -0.41 c 0.055 0.129 0.172 0.258 0.262 0.289 c 0.348 0.117 0.535 -0.375 0.281 -0.734 c -0.07 -0.094 -0.125 -0.203 -0.129 -0.242 c -0.004 -0.141 0.316 -0.055 0.59 0.16 c 0.16 0.121 0.34 0.223 0.402 0.223 c 0.063 0 0.191 0.145 0.289 0.316 c 0.195 0.352 0.398 0.402 0.609 0.152 c 0.188 -0.219 0.18 -0.43 -0.027 -0.648 c -0.094 -0.098 -0.172 -0.25 -0.172 -0.336 c 0 -0.09 0.156 -0.727 0.344 -1.422 c 0.188 -0.691 0.324 -1.344 0.301 -1.445 c -0.023 -0.105 -0.152 -0.238 -0.281 -0.305 c -0.129 -0.063 -0.328 -0.16 -0.445 -0.219 c -0.25 -0.129 -0.324 -0.516 -0.133 -0.684 c 0.09 -0.078 0.418 -0.109 1.074 -0.102 c 0.52 0.008 0.973 0.027 1 0.047 c 0.027 0.02 1.367 0.004 2.973 -0.031 c 1.609 -0.039 3.01 -0.035 3.105 0 c 0.305 0.113 0.301 0.355 -0.02 1.391 c -0.344 1.125 -0.48 1.395 -0.707 1.395 c -0.254 0 -0.41 -0.23 -0.512 -0.762 c -0.074 -0.379 -0.164 -0.555 -0.391 -0.766 c -0.297 -0.277 -0.297 -0.277 -1.34 -0.277 c -0.887 0 -1.063 0.023 -1.168 0.16 c -0.07 0.086 -0.234 0.543 -0.363 1.012 c -0.129 0.473 -0.332 1.18 -0.449 1.57 c -0.27 0.91 -0.234 0.953 0.781 0.887 l 0.711 -0.047 l 0.129 0.328 c 0.148 0.379 0.305 0.473 0.555 0.332 c 0.195 -0.113 0.234 -0.449 0.082 -0.711 c -0.141 -0.238 0.555 -1.309 0.875 -1.348 c 0.344 -0.043 0.418 0.195 0.32 1.027 c -0.047 0.387 -0.063 0.773 -0.039 0.859 c 0.074 0.238 0.363 0.301 0.555 0.117 c 0.207 -0.199 0.207 -0.32 -0.012 -0.613 c -0.164 -0.219 -0.164 -0.242 -0.031 -0.297 c 0.078 -0.031 0.207 -0.012 0.281 0.047 c 0.074 0.059 0.281 0.184 0.461 0.273 c 0.18 0.094 0.398 0.293 0.488 0.449 c 0.176 0.313 0.336 0.352 0.539 0.141 c 0.168 -0.18 0.168 -0.434 0.004 -0.582 c -0.156 -0.137 -0.164 -0.359 -0.012 -0.359 c 0.215 0 1.047 0.586 1.184 0.836 c 0.227 0.418 0.652 0.273 0.652 -0.223 c 0 -0.164 -0.07 -0.297 -0.207 -0.391 l -0.203 -0.141 l 0.203 -0.785 c 0.621 -2.359 0.598 -2.238 0.422 -2.445 c -0.086 -0.102 -0.305 -0.23 -0.484 -0.281 c -0.379 -0.109 -0.543 -0.359 -0.41 -0.625 c 0.051 -0.102 0.117 -0.184 0.152 -0.191 c 0.453 -0.066 6.59 -0.039 6.883 0.031 c 0.574 0.145 0.965 0.383 1.305 0.805 l 0.305 0.379 v 1.797 l -0.332 0.469 c -0.367 0.516 -1.051 1.043 -1.574 1.211 c -0.926 0.297 -1 0.402 -0.426 0.555 c 0.828 0.223 1.477 0.926 1.617 1.75 c 0.035 0.199 0.133 0.457 0.219 0.574 c 0.355 0.492 0.121 1.551 -0.41 1.848 c -0.133 0.07 -0.359 0.277 -0.508 0.453 c -0.199 0.242 -0.336 0.324 -0.527 0.324 c -0.313 0 -0.367 0.238 -0.07 0.32 c 0.102 0.031 0.266 0.184 0.359 0.34 c 0.223 0.375 0.516 0.426 0.648 0.109 c 0.086 -0.199 0.074 -0.27 -0.086 -0.504 c -0.16 -0.23 -0.172 -0.277 -0.059 -0.32 c 0.262 -0.109 0.563 0.055 0.688 0.371 c 0.289 0.738 0.051 1.641 -0.488 1.84 c -0.367 0.137 -0.367 0.137 -0.75 -0.23 l -0.344 -0.332 l -0.27 0.277 c -0.434 0.445 -0.66 0.457 -1.066 0.066 c -0.352 -0.336 -0.461 -0.344 -0.664 -0.039 c -0.059 0.082 -0.215 0.199 -0.352 0.262 c -0.207 0.09 -0.297 0.082 -0.516 -0.039 c -0.148 -0.082 -0.289 -0.203 -0.313 -0.27 c -0.094 -0.258 -0.313 -0.234 -0.594 0.055 c -0.547 0.563 -1.223 0.223 -1.348 -0.68 c -0.051 -0.359 -0.086 -0.41 -0.32 -0.465 c -0.141 -0.035 -1 -0.047 -1.914 -0.027 l -1.656 0.031 l -0.129 -0.25 c -0.121 -0.234 -0.117 -0.266 0.023 -0.375 c 0.086 -0.07 0.379 -0.152 0.656 -0.188 c 0.473 -0.059 0.504 -0.074 0.504 -0.301 c 0 -0.16 -0.113 -0.355 -0.348 -0.594 c -0.289 -0.301 -0.367 -0.34 -0.484 -0.246 c -0.469 0.359 -0.684 0.465 -0.93 0.465 c -0.227 0.004 -0.293 0.047 -0.363 0.25 c -0.047 0.137 -0.152 0.301 -0.23 0.363 c -0.113 0.094 -0.137 0.234 -0.117 0.73 c 0.02 0.402 -0.016 0.723 -0.102 0.941 c -0.156 0.398 -0.602 0.715 -0.902 0.645 c -0.258 -0.063 -0.574 -0.422 -0.633 -0.723 c -0.145 -0.746 -0.051 -0.672 -0.883 -0.672 c -0.801 0 -0.855 0.031 -0.855 0.48 c 0 0.301 -0.293 0.738 -0.578 0.863 c -0.477 0.211 -1 -0.254 -1.094 -0.969 c -0.055 -0.453 -0.137 -0.484 -1.039 -0.449 l -0.633 0.027 l -0.063 0.379 c -0.078 0.512 -0.199 0.727 -0.52 0.934 c -0.32 0.207 -0.367 0.211 -0.672 0.035 m 3.902 -1.23 c 0.059 -0.059 0.102 -0.215 0.102 -0.344 c 0 -0.426 -0.316 -0.582 -0.605 -0.301 c -0.195 0.188 -0.199 0.375 -0.016 0.59 c 0.16 0.188 0.375 0.211 0.52 0.055 m 3.305 0 c 0.059 -0.059 0.102 -0.215 0.102 -0.344 c 0 -0.465 -0.406 -0.609 -0.641 -0.223 c -0.129 0.207 -0.129 0.242 0 0.449 c 0.148 0.242 0.375 0.293 0.539 0.117 m 7.05 -0.066 c 0.125 -0.246 0.109 -0.504 -0.039 -0.637 c -0.066 -0.063 -0.125 -0.141 -0.125 -0.172 c 0 -0.031 0.332 -0.066 0.742 -0.074 l 0.742 -0.016 l 0.57 -0.645 c 0.488 -0.551 0.57 -0.691 0.574 -0.973 c 0 -0.457 0.082 -0.734 0.215 -0.734 c 0.059 0 0.133 0.082 0.164 0.18 c 0.094 0.309 0.352 0.395 0.551 0.184 c 0.094 -0.102 0.168 -0.246 0.168 -0.32 c 0 -0.203 -0.313 -0.496 -0.527 -0.496 c -0.156 0 -0.223 -0.086 -0.34 -0.438 c -0.281 -0.84 -0.652 -1.148 -1.492 -1.242 l -0.504 -0.055 l -0.207 0.348 c -0.117 0.195 -0.293 0.43 -0.391 0.523 c -0.102 0.094 -0.18 0.238 -0.18 0.316 c 0 0.082 -0.055 0.227 -0.117 0.324 c -0.066 0.098 -0.145 0.363 -0.176 0.586 c -0.035 0.223 -0.133 0.688 -0.223 1.035 c -0.168 0.656 -0.148 0.969 0.078 1.242 c 0.117 0.148 0.117 0.191 -0.023 0.473 c -0.148 0.289 -0.148 0.32 -0.016 0.535 c 0.168 0.27 0.434 0.297 0.559 0.055 m 1.691 0.047 c 0.254 -0.328 -0.082 -0.93 -0.398 -0.719 c -0.309 0.207 -0.195 0.848 0.148 0.848 c 0.082 0 0.195 -0.059 0.25 -0.129 m 1.742 -0.086 c 0.168 -0.27 0.043 -0.688 -0.203 -0.688 c -0.223 0 -0.434 0.238 -0.434 0.484 c 0 0.43 0.414 0.563 0.637 0.203 m -12.203 -0.984 c 1.219 -0.25 1.402 -0.406 1.023 -0.879 c -0.176 -0.227 -0.219 -0.375 -0.219 -0.758 c 0 -0.598 0.18 -0.824 0.355 -0.438 c 0.203 0.453 0.66 0.344 0.66 -0.16 c 0 -0.195 -0.063 -0.293 -0.254 -0.398 c -0.184 -0.102 -0.254 -0.203 -0.254 -0.379 c 0 -0.23 -0.316 -0.902 -0.574 -1.219 c -0.102 -0.125 -0.266 -0.16 -0.789 -0.16 c -0.941 0 -1.031 0.055 -1.203 0.711 c -0.191 0.73 -0.188 0.793 0.109 1.152 c 0.223 0.27 0.254 0.375 0.254 0.855 c 0 0.5 -0.023 0.57 -0.289 0.852 c -0.176 0.188 -0.371 0.305 -0.504 0.305 c -0.258 0 -0.34 0.121 -0.273 0.406 c 0.078 0.34 0.676 0.371 1.957 0.109 m 3.363 -1.797 c 0.219 -0.191 0.238 -0.406 0.051 -0.66 c -0.145 -0.195 -0.156 -0.254 -0.059 -0.316 c 0.066 -0.043 0.188 -0.059 0.27 -0.031 c 0.313 0.105 0.832 0.531 0.992 0.82 c 0.191 0.348 0.363 0.379 0.547 0.098 c 0.18 -0.27 0.168 -0.461 -0.039 -0.66 c -0.145 -0.137 -0.152 -0.176 -0.051 -0.238 c 0.066 -0.039 0.227 -0.031 0.352 0.02 c 0.273 0.109 0.465 -0.016 0.465 -0.301 c 0 -0.102 0.043 -0.32 0.102 -0.484 c 0.156 -0.457 -0.004 -0.543 -0.395 -0.211 c -0.422 0.355 -0.73 0.355 -1.078 0.004 c -0.145 -0.148 -0.281 -0.27 -0.305 -0.27 c -0.023 0 -0.172 0.121 -0.328 0.27 c -0.395 0.367 -0.738 0.359 -1.109 -0.02 c -0.254 -0.266 -0.289 -0.277 -0.414 -0.145 c -0.082 0.09 -0.152 0.363 -0.18 0.719 l -0.043 0.574 l 0.305 0.176 c 0.172 0.098 0.309 0.203 0.309 0.234 c 0 0.09 0.344 0.531 0.414 0.531 c 0.035 0 0.121 -0.051 0.195 -0.109 m -6.621 -0.215 c 0.063 -0.184 0.051 -0.289 -0.047 -0.453 c -0.074 -0.117 -0.16 -0.211 -0.195 -0.211 c -0.164 0 -0.441 0.301 -0.441 0.48 c 0 0.453 0.535 0.594 0.684 0.184 m 1.695 0.047 c 0.117 -0.23 0.043 -0.582 -0.137 -0.656 c -0.18 -0.074 -0.438 0.082 -0.504 0.301 c -0.133 0.449 0.434 0.762 0.641 0.355 m 15.504 0.004 c 0.18 -0.359 -0.109 -0.805 -0.414 -0.633 c -0.367 0.211 -0.281 0.816 0.117 0.816 c 0.121 0 0.242 -0.074 0.297 -0.184 m -5.305 -2.84 c 0.074 -0.078 0.133 -0.203 0.133 -0.277 c 0 -0.48 -0.516 -0.672 -0.691 -0.258 c -0.203 0.473 0.227 0.887 0.559 0.535 m 1.934 -0.684 c 0.219 -0.051 0.551 -0.211 0.73 -0.348 c 0.629 -0.484 1.113 -1.961 0.859 -2.609 c -0.145 -0.383 -0.461 -0.563 -1.063 -0.613 c -0.648 -0.055 -0.816 0.082 -1.016 0.852 c -0.074 0.289 -0.281 1.012 -0.461 1.605 c -0.234 0.789 -0.297 1.113 -0.234 1.199 c 0.094 0.121 0.391 0.102 1.184 -0.086" fill="#b05c9b"/><path d="m 5.84 22.367 c -0.297 -0.172 -0.406 -0.395 -0.406 -0.832 c 0 -0.234 0.055 -0.406 0.164 -0.508 c 0.156 -0.152 0.164 -0.148 0.191 0.043 c 0.016 0.109 0.094 0.246 0.176 0.301 c 0.395 0.262 0.672 -0.52 0.301 -0.852 c -0.172 -0.156 -0.176 -0.168 -0.027 -0.117 c 0.094 0.035 0.258 0.121 0.363 0.191 c 0.273 0.188 0.234 0.008 -0.066 -0.297 c -0.137 -0.141 -0.254 -0.324 -0.254 -0.402 c 0 -0.246 0.484 -1.57 0.586 -1.605 c 0.051 -0.02 0.094 0.008 0.094 0.063 c 0 0.125 0.277 0.012 0.367 -0.148 c 0.059 -0.105 0.094 -0.094 0.195 0.059 c 0.309 0.469 0.879 -0.016 0.586 -0.496 c -0.168 -0.27 -0.035 -0.359 0.27 -0.184 c 0.129 0.074 0.352 0.199 0.496 0.281 c 0.148 0.078 0.309 0.246 0.359 0.367 c 0.121 0.281 0.477 0.301 0.613 0.031 c 0.102 -0.207 0.043 -0.621 -0.094 -0.621 c -0.043 0 -0.082 -0.043 -0.082 -0.09 c 0 -0.203 0.418 -0.082 0.629 0.188 c 0.25 0.316 0.285 0.73 0.102 1.199 c -0.156 0.395 -0.438 0.594 -0.832 0.594 c -0.293 0 -0.313 0.016 -0.246 0.203 c 0.09 0.254 -0.016 0.57 -0.23 0.691 c -0.09 0.051 -0.242 0.238 -0.34 0.41 l -0.176 0.32 h -0.637 c -0.352 0 -0.656 -0.043 -0.688 -0.098 c -0.113 -0.195 -0.25 -0.016 -0.223 0.297 c 0.043 0.555 -0.371 1.156 -0.789 1.148 c -0.094 -0.004 -0.273 -0.063 -0.402 -0.137 m 3.324 -0.109 c -0.332 -0.316 -0.434 -0.844 -0.211 -1.102 c 0.145 -0.176 0.148 -0.172 0.313 0.047 c 0.184 0.25 0.422 0.289 0.574 0.094 c 0.152 -0.199 0.07 -0.621 -0.145 -0.734 c -0.227 -0.121 -0.164 -0.219 0.141 -0.219 c 0.262 0.004 0.383 0.078 0.453 0.293 c 0.078 0.227 0.223 0.195 0.316 -0.066 c 0.043 -0.125 0.09 -0.227 0.102 -0.227 c 0.285 0 1.516 -0.313 1.816 -0.457 l 0.406 -0.195 l -0.211 -0.168 c -0.453 -0.371 -0.504 -0.461 -0.504 -0.941 c 0 -0.59 0.184 -0.813 0.355 -0.43 c 0.125 0.281 0.355 0.367 0.539 0.203 c 0.172 -0.148 0.156 -0.598 -0.027 -0.707 c -0.137 -0.082 -0.137 -0.09 0.016 -0.152 c 0.199 -0.082 1.043 0.379 1.109 0.602 c 0.086 0.285 0.352 0.465 0.531 0.363 c 0.25 -0.141 0.281 -0.426 0.082 -0.695 c -0.145 -0.191 -0.152 -0.246 -0.055 -0.313 c 0.066 -0.043 0.188 -0.059 0.27 -0.031 c 0.313 0.105 0.832 0.535 0.992 0.82 c 0.191 0.348 0.363 0.379 0.547 0.098 c 0.18 -0.27 0.168 -0.457 -0.039 -0.656 c -0.145 -0.141 -0.152 -0.18 -0.051 -0.242 c 0.168 -0.098 0.563 0.07 0.563 0.242 c 0 0.074 0.055 0.137 0.125 0.137 c 0.098 0 0.129 -0.113 0.129 -0.496 c 0 -0.387 0.039 -0.539 0.18 -0.688 c 0.137 -0.148 0.164 -0.23 0.098 -0.34 c -0.141 -0.242 -0.352 -0.219 -0.664 0.074 c -0.359 0.336 -0.414 0.34 -0.918 0.051 c -0.488 -0.273 -0.539 -0.273 -0.789 -0.027 c -0.262 0.262 -0.625 0.246 -1.027 -0.047 c -0.492 -0.363 -0.754 -0.18 -0.641 0.457 c 0.039 0.223 0.02 0.34 -0.063 0.395 c -0.176 0.117 -0.445 0.098 -0.629 -0.047 c -0.129 -0.102 -0.141 -0.148 -0.055 -0.258 c 0.086 -0.113 0.063 -0.172 -0.141 -0.355 c -0.293 -0.262 -0.465 -0.578 -0.406 -0.746 c 0.023 -0.066 -0.008 -0.141 -0.07 -0.168 c -0.063 -0.027 -0.137 0.012 -0.164 0.082 c -0.035 0.098 -0.207 0.129 -0.68 0.129 c -0.906 0 -1.01 0.059 -1.176 0.703 c -0.133 0.512 -0.156 0.543 -0.559 0.727 c -0.484 0.223 -0.664 0.234 -1.121 0.09 c -0.254 -0.082 -0.438 -0.078 -0.805 0.008 c -0.379 0.09 -0.492 0.09 -0.543 0.004 c -0.09 -0.152 0.055 -0.648 0.211 -0.742 c 0.172 -0.102 0.164 -0.246 -0.02 -0.391 c -0.227 -0.184 -0.379 -0.152 -0.641 0.145 c -0.309 0.344 -0.566 0.344 -0.945 -0.012 c -0.262 -0.246 -0.301 -0.328 -0.301 -0.707 c 0 -0.543 0.199 -0.777 0.352 -0.418 c 0.055 0.125 0.172 0.254 0.262 0.285 c 0.348 0.117 0.535 -0.371 0.281 -0.73 c -0.07 -0.098 -0.125 -0.207 -0.129 -0.242 c -0.004 -0.145 0.316 -0.059 0.594 0.156 c 0.156 0.125 0.336 0.227 0.398 0.227 c 0.063 0 0.191 0.141 0.289 0.313 c 0.195 0.352 0.398 0.402 0.613 0.152 c 0.184 -0.219 0.176 -0.426 -0.031 -0.648 c -0.094 -0.098 -0.168 -0.199 -0.168 -0.219 c 0 -0.074 0.285 0.059 0.445 0.203 c 0.133 0.121 0.148 0.121 0.148 -0.012 c 0 -0.082 -0.031 -0.152 -0.07 -0.152 c -0.039 0 -0.156 -0.125 -0.262 -0.277 l -0.195 -0.281 l 0.313 -1.156 c 0.172 -0.637 0.289 -1.234 0.262 -1.328 c -0.027 -0.094 -0.156 -0.223 -0.285 -0.285 c -0.125 -0.063 -0.324 -0.16 -0.441 -0.219 c -0.25 -0.129 -0.324 -0.512 -0.133 -0.684 c 0.09 -0.078 0.422 -0.109 1.074 -0.102 c 0.523 0.008 0.973 0.027 1 0.047 c 0.027 0.02 1.367 0.004 2.977 -0.031 c 1.605 -0.035 3 -0.035 3.105 0.004 c 0.301 0.113 0.297 0.352 -0.02 1.387 c -0.348 1.125 -0.484 1.395 -0.711 1.395 c -0.254 0 -0.41 -0.23 -0.512 -0.762 c -0.074 -0.379 -0.164 -0.555 -0.391 -0.766 c -0.293 -0.273 -0.297 -0.273 -1.34 -0.273 c -0.887 0 -1.059 0.02 -1.168 0.156 c -0.07 0.086 -0.23 0.543 -0.363 1.016 c -0.129 0.469 -0.332 1.176 -0.449 1.566 c -0.199 0.676 -0.203 0.723 -0.063 0.832 c 0.102 0.078 0.313 0.098 0.672 0.063 l 0.527 -0.051 l 0.133 0.348 c 0.129 0.328 0.141 0.336 0.199 0.141 l 0.059 -0.211 l 0.191 0.25 c 0.172 0.23 0.211 0.242 0.41 0.148 c 0.246 -0.121 0.301 -0.438 0.121 -0.742 c -0.145 -0.25 -0.016 -0.332 0.199 -0.129 l 0.18 0.172 l -0.063 -0.387 c -0.051 -0.332 -0.031 -0.426 0.164 -0.699 c 0.422 -0.586 0.934 -0.297 0.734 0.414 c -0.055 0.184 -0.152 0.387 -0.223 0.445 c -0.164 0.145 -0.168 0.543 -0.004 0.543 c 0.066 0 0.145 0.078 0.172 0.176 c 0.078 0.254 0.363 0.32 0.559 0.133 c 0.207 -0.199 0.207 -0.316 -0.012 -0.613 c -0.16 -0.219 -0.164 -0.242 -0.031 -0.297 c 0.078 -0.031 0.207 -0.012 0.281 0.047 c 0.074 0.059 0.285 0.184 0.461 0.273 c 0.18 0.094 0.398 0.297 0.488 0.449 c 0.176 0.313 0.336 0.355 0.539 0.141 c 0.168 -0.18 0.172 -0.434 0.004 -0.578 c -0.156 -0.141 -0.164 -0.363 -0.012 -0.363 c 0.219 0 1.047 0.586 1.184 0.836 c 0.227 0.414 0.652 0.277 0.652 -0.215 c 0 -0.16 -0.078 -0.309 -0.234 -0.43 c -0.305 -0.242 -0.074 -0.25 0.297 -0.012 c 0.363 0.234 0.348 0.133 -0.039 -0.289 l -0.313 -0.34 l 0.199 -0.699 c 0.109 -0.383 0.258 -0.949 0.328 -1.258 c 0.125 -0.531 0.121 -0.57 -0.023 -0.746 c -0.086 -0.102 -0.305 -0.223 -0.48 -0.273 c -0.383 -0.109 -0.547 -0.363 -0.414 -0.629 c 0.051 -0.098 0.117 -0.184 0.152 -0.191 c 0.453 -0.066 6.59 -0.039 6.883 0.031 c 0.578 0.145 0.965 0.383 1.305 0.805 l 0.305 0.379 v 1.801 l -0.332 0.465 c -0.367 0.516 -1.051 1.043 -1.574 1.211 c -0.926 0.297 -1 0.402 -0.422 0.559 c 0.207 0.055 0.555 0.223 0.762 0.371 c 0.406 0.285 0.852 0.973 0.773 1.191 c -0.023 0.07 -0.195 0.172 -0.375 0.223 c -0.488 0.141 -1.027 0.727 -0.668 0.727 c 0.063 0 0.156 0.102 0.211 0.227 c 0.129 0.305 0.492 0.309 0.621 0.004 c 0.078 -0.18 0.066 -0.27 -0.043 -0.445 c -0.129 -0.215 -0.129 -0.227 0.047 -0.285 c 0.262 -0.09 0.66 0.395 0.66 0.793 c -0.004 0.5 -0.285 1.027 -0.66 1.23 c -0.184 0.102 -0.355 0.262 -0.379 0.363 c -0.023 0.102 -0.184 0.25 -0.352 0.336 c -0.266 0.137 -0.359 0.141 -0.711 0.043 c -0.445 -0.121 -0.672 -0.063 -1.012 0.246 c -0.207 0.191 -0.258 0.465 -0.086 0.465 c 0.063 0 0.148 0.09 0.191 0.203 c 0.203 0.492 0.824 0.098 0.645 -0.41 c -0.047 -0.125 -0.133 -0.246 -0.195 -0.273 c -0.066 -0.027 -0.039 -0.051 0.059 -0.055 c 0.309 -0.016 1.016 0.383 1.191 0.664 c 0.223 0.363 0.512 0.41 0.645 0.098 c 0.086 -0.199 0.074 -0.27 -0.086 -0.5 c -0.16 -0.234 -0.168 -0.281 -0.059 -0.324 c 0.262 -0.109 0.563 0.055 0.688 0.371 c 0.227 0.582 0.145 1.02 -0.285 1.508 c -0.285 0.324 -0.539 0.316 -0.996 -0.035 l -0.371 -0.281 l -0.301 0.281 c -0.367 0.344 -0.598 0.355 -1.012 0.059 c -0.172 -0.125 -0.363 -0.223 -0.43 -0.223 c -0.066 0 -0.215 0.098 -0.332 0.223 c -0.117 0.125 -0.305 0.227 -0.414 0.227 c -0.113 0 -0.348 -0.102 -0.52 -0.227 c -0.387 -0.281 -0.469 -0.281 -0.777 0 c -0.313 0.285 -0.633 0.289 -0.949 0 c -0.324 -0.289 -0.422 -0.777 -0.223 -1.105 l 0.145 -0.23 l 0.164 0.238 c 0.09 0.133 0.238 0.242 0.324 0.242 c 0.301 0 0.453 -0.598 0.207 -0.813 c -0.07 -0.059 -0.125 -0.145 -0.125 -0.191 c 0 -0.145 0.34 -0.078 0.477 0.09 c 0.082 0.102 0.203 0.152 0.301 0.125 c 0.117 -0.031 0.176 0.008 0.211 0.141 c 0.023 0.105 0.094 0.164 0.156 0.141 c 0.07 -0.027 0.125 0.031 0.141 0.152 c 0.066 0.48 0.594 0.445 0.648 -0.043 c 0.031 -0.293 -0.113 -0.504 -0.352 -0.504 c -0.137 0 -0.152 -0.023 -0.074 -0.105 c 0.078 -0.082 0.168 -0.074 0.398 0.043 c 0.344 0.176 0.359 0.145 0.121 -0.219 l -0.18 -0.266 l 0.285 -0.348 c 0.152 -0.191 0.348 -0.355 0.426 -0.359 c 0.188 -0.008 0.281 -0.18 0.16 -0.305 c -0.176 -0.188 -0.078 -0.965 0.125 -0.965 c 0.059 0 0.133 0.082 0.164 0.18 c 0.09 0.309 0.352 0.395 0.547 0.184 c 0.219 -0.23 0.219 -0.406 0.004 -0.633 c -0.168 -0.18 -0.168 -0.18 0.023 -0.18 c 0.109 0 0.25 0.051 0.313 0.113 c 0.086 0.078 0.082 0.047 -0.012 -0.113 c -0.102 -0.176 -0.223 -0.234 -0.531 -0.27 c -0.375 -0.043 -0.41 -0.07 -0.625 -0.496 c -0.289 -0.566 -0.656 -0.828 -1.27 -0.906 c -0.266 -0.035 -0.527 -0.102 -0.586 -0.148 c -0.07 -0.063 -0.148 0.016 -0.27 0.27 c -0.094 0.195 -0.285 0.457 -0.422 0.582 c -0.191 0.168 -0.23 0.25 -0.156 0.328 c 0.074 0.078 0.063 0.176 -0.043 0.395 c -0.082 0.16 -0.184 0.535 -0.234 0.832 c -0.047 0.297 -0.141 0.723 -0.203 0.945 c -0.066 0.23 -0.098 0.621 -0.074 0.902 c 0.035 0.461 0.02 0.516 -0.246 0.828 l -0.281 0.332 l -3.617 0.07 l -0.137 -0.223 c -0.129 -0.207 -0.129 -0.23 0.051 -0.383 c 0.105 -0.09 0.395 -0.191 0.645 -0.223 c 0.375 -0.051 0.465 -0.098 0.496 -0.254 c 0.02 -0.105 0.066 -0.262 0.098 -0.344 c 0.043 -0.109 0.004 -0.168 -0.137 -0.215 c -0.109 -0.039 -0.316 -0.164 -0.461 -0.281 c -0.328 -0.266 -0.434 -0.266 -0.676 0.016 c -0.156 0.176 -0.277 0.223 -0.59 0.223 c -0.289 0 -0.383 0.031 -0.352 0.117 c 0.023 0.066 -0.012 0.254 -0.078 0.418 c -0.113 0.293 -0.129 0.301 -0.477 0.238 c -1.02 -0.184 -0.879 -0.238 -1.563 0.609 c -0.258 0.32 -0.289 0.332 -0.816 0.332 c -0.379 0 -0.578 -0.043 -0.652 -0.137 c -0.148 -0.191 -0.254 -0.078 -0.199 0.219 c 0.027 0.152 -0.008 0.371 -0.098 0.555 c -0.32 0.656 -0.789 0.801 -1.23 0.375 m 10.887 -6.832 c 0.188 -0.199 0.168 -0.457 -0.047 -0.684 l -0.184 -0.191 l 0.246 0.063 c 0.137 0.035 0.359 0.191 0.5 0.348 c 0.199 0.223 0.258 0.25 0.281 0.137 c 0.016 -0.098 0.148 -0.168 0.379 -0.203 c 1.258 -0.199 1.688 -0.469 2.078 -1.305 c 0.141 -0.305 0.285 -0.773 0.316 -1.047 c 0.105 -0.906 -0.207 -1.293 -1.109 -1.371 c -0.648 -0.055 -0.813 0.082 -1.016 0.852 c -0.496 1.871 -0.691 2.418 -0.883 2.523 c -0.168 0.086 -0.238 0.074 -0.438 -0.086 c -0.262 -0.203 -0.465 -0.16 -0.832 0.176 c -0.195 0.18 -0.234 0.48 -0.063 0.48 c 0.063 0 0.156 0.102 0.211 0.223 c 0.109 0.258 0.363 0.297 0.559 0.086 m -7.469 6.902 c -0.367 -0.234 -0.496 -0.805 -0.266 -1.152 l 0.133 -0.207 l 0.141 0.23 c 0.238 0.379 0.648 0.246 0.648 -0.211 c 0 -0.125 -0.066 -0.297 -0.141 -0.391 c -0.133 -0.156 -0.129 -0.164 0.086 -0.164 c 0.133 0 0.32 0.098 0.438 0.223 c 0.5 0.531 0.063 1.852 -0.613 1.852 c -0.082 0 -0.277 -0.082 -0.426 -0.18 m -7.906 -1.48 c 0 -0.273 0.035 -0.32 0.301 -0.414 c 0.391 -0.137 0.547 -0.066 0.547 0.254 c 0 0.281 -0.254 0.469 -0.641 0.469 c -0.18 0 -0.207 -0.043 -0.207 -0.309" fill="#e65d62"/><path d="m 5.813 22.27 c -0.313 -0.359 -0.266 -0.754 0.066 -0.563 c 0.25 0.145 0.559 0.016 0.746 -0.309 c 0.242 -0.426 0.215 -0.789 -0.09 -1.102 c -0.137 -0.141 -0.254 -0.324 -0.254 -0.402 c 0 -0.246 0.484 -1.57 0.586 -1.605 c 0.051 -0.02 0.094 0.012 0.094 0.07 c 0 0.055 0.043 0.074 0.094 0.039 c 0.051 -0.035 0.18 0.051 0.281 0.191 c 0.137 0.18 0.266 0.25 0.461 0.25 c 0.332 0 0.531 -0.195 0.648 -0.641 c 0.07 -0.27 0.129 -0.336 0.297 -0.336 c 0.18 0 0.215 0.051 0.254 0.352 c 0.09 0.758 0.754 0.859 1.09 0.172 l 0.164 -0.34 l 0.102 0.238 c 0.254 0.59 -0.152 1.246 -0.773 1.246 c -0.301 0 -0.32 0.016 -0.254 0.203 c 0.09 0.254 -0.016 0.566 -0.23 0.691 c -0.09 0.051 -0.246 0.234 -0.34 0.41 c -0.176 0.32 -0.176 0.32 -0.797 0.32 c -0.344 0 -0.664 -0.047 -0.719 -0.102 c -0.168 -0.18 -0.277 0.008 -0.277 0.473 c 0 0.379 -0.039 0.496 -0.246 0.715 c -0.316 0.336 -0.625 0.344 -0.902 0.027 m 3.441 0 c -0.098 -0.133 -0.176 -0.332 -0.176 -0.449 c 0 -0.191 0.02 -0.203 0.23 -0.117 c 0.125 0.051 0.316 0.07 0.422 0.039 c 0.195 -0.051 0.449 -0.461 0.449 -0.723 c 0 -0.078 0.098 -0.18 0.215 -0.227 c 0.113 -0.047 0.211 -0.145 0.211 -0.219 c 0 -0.188 0.082 -0.223 0.836 -0.363 c 0.371 -0.07 0.852 -0.215 1.066 -0.316 l 0.395 -0.191 l -0.258 -0.313 c -0.145 -0.176 -0.262 -0.395 -0.262 -0.492 c 0 -0.16 0.039 -0.172 0.344 -0.121 c 0.375 0.063 0.629 -0.098 0.766 -0.484 c 0.043 -0.113 0.133 -0.203 0.199 -0.203 c 0.129 0 0.18 0.051 0.48 0.473 c 0.289 0.41 0.809 0.309 1.01 -0.199 c 0.148 -0.383 0.379 -0.352 0.637 0.086 c 0.199 0.336 0.316 0.406 0.637 0.367 c 0.199 -0.023 0.508 -0.445 0.508 -0.695 c 0 -0.152 0.055 -0.246 0.168 -0.277 c 0.145 -0.039 0.172 -0.121 0.172 -0.531 c 0 -0.363 0.039 -0.531 0.168 -0.664 c 0.199 -0.211 0.234 -0.723 0.047 -0.723 c -0.066 0 -0.297 0.164 -0.512 0.359 c -0.215 0.199 -0.426 0.363 -0.465 0.363 c -0.223 0 -0.523 -0.207 -0.594 -0.406 c -0.105 -0.293 -0.34 -0.289 -0.602 0.008 c -0.402 0.461 -0.91 0.457 -1.109 -0.008 c -0.23 -0.539 -0.813 -0.09 -0.699 0.543 c 0.043 0.238 0.023 0.355 -0.059 0.41 c -0.176 0.121 -0.445 0.098 -0.633 -0.047 c -0.129 -0.102 -0.141 -0.152 -0.059 -0.242 c 0.086 -0.09 0.074 -0.152 -0.059 -0.301 c -0.195 -0.223 -0.461 -0.859 -0.355 -0.859 c 0.039 0 0.195 0.047 0.34 0.102 c 0.57 0.211 0.887 -0.34 0.75 -1.297 c -0.066 -0.492 -0.059 -0.547 0.148 -0.836 c 0.422 -0.586 0.934 -0.297 0.734 0.41 c -0.055 0.188 -0.152 0.387 -0.223 0.449 c -0.148 0.133 -0.164 0.578 -0.035 0.969 c 0.176 0.543 0.914 0.434 1.109 -0.164 c 0.125 -0.379 0.367 -0.344 0.574 0.086 c 0.281 0.59 0.863 0.57 1.137 -0.043 c 0.074 -0.168 0.191 -0.305 0.262 -0.305 c 0.148 0 0.387 0.34 0.387 0.555 c 0 0.105 0.09 0.176 0.285 0.215 c 0.5 0.098 0.805 -0.203 0.863 -0.852 c 0.023 -0.273 -0.02 -0.379 -0.281 -0.664 l -0.309 -0.336 l 0.199 -0.699 c 0.109 -0.383 0.258 -0.953 0.328 -1.258 c 0.125 -0.531 0.121 -0.574 -0.023 -0.746 c -0.086 -0.102 -0.305 -0.227 -0.48 -0.277 c -0.383 -0.109 -0.547 -0.359 -0.414 -0.625 c 0.051 -0.102 0.117 -0.184 0.152 -0.191 c 0.453 -0.066 6.59 -0.039 6.883 0.031 c 0.578 0.145 0.965 0.383 1.305 0.805 l 0.305 0.379 v 1.797 l -0.332 0.469 c -0.367 0.516 -1.051 1.043 -1.574 1.211 c -0.926 0.297 -1 0.402 -0.422 0.555 c 0.207 0.059 0.555 0.227 0.762 0.375 c 0.406 0.281 0.852 0.973 0.773 1.191 c -0.023 0.07 -0.195 0.172 -0.375 0.223 c -0.445 0.129 -0.797 0.48 -0.746 0.746 c 0.02 0.113 0.059 0.313 0.086 0.445 c 0.07 0.348 0.453 0.473 0.793 0.254 c 0.141 -0.09 0.281 -0.25 0.313 -0.352 c 0.066 -0.223 0.176 -0.242 0.246 -0.043 c 0.156 0.43 -0.074 0.953 -0.531 1.203 c -0.18 0.098 -0.348 0.258 -0.371 0.359 c -0.023 0.098 -0.184 0.25 -0.352 0.336 c -0.266 0.133 -0.359 0.141 -0.711 0.043 c -0.449 -0.121 -0.672 -0.066 -1.023 0.258 c -0.168 0.152 -0.195 0.242 -0.156 0.551 c 0.055 0.426 0.266 0.711 0.527 0.711 c 0.23 0 0.605 -0.301 0.68 -0.543 c 0.086 -0.297 0.457 -0.234 0.563 0.094 c 0.176 0.539 0.613 0.594 1 0.121 c 0.215 -0.262 0.289 -0.305 0.352 -0.203 c 0.129 0.207 0.008 0.723 -0.238 0.996 c -0.324 0.363 -0.637 0.344 -0.926 -0.059 c -0.121 -0.176 -0.281 -0.316 -0.348 -0.316 c -0.066 0 -0.25 0.141 -0.402 0.316 c -0.371 0.418 -0.641 0.418 -0.957 0 c -0.129 -0.176 -0.289 -0.316 -0.355 -0.316 c -0.066 0 -0.242 0.141 -0.395 0.316 c -0.332 0.387 -0.637 0.414 -0.93 0.074 c -0.113 -0.129 -0.207 -0.27 -0.207 -0.313 c 0 -0.188 -0.324 -0.051 -0.582 0.238 c -0.188 0.211 -0.355 0.316 -0.512 0.316 c -0.273 0 -0.602 -0.332 -0.602 -0.609 c 0 -0.219 0.129 -0.344 0.211 -0.207 c 0.098 0.168 0.469 0.098 0.684 -0.129 c 0.141 -0.148 0.207 -0.32 0.207 -0.535 c 0 -0.23 0.043 -0.328 0.168 -0.367 c 0.25 -0.086 0.313 -0.008 0.363 0.465 c 0.07 0.648 0.48 0.855 0.941 0.473 c 0.188 -0.156 0.223 -0.258 0.223 -0.641 c 0 -0.313 -0.055 -0.531 -0.176 -0.715 l -0.18 -0.266 l 0.285 -0.348 c 0.156 -0.191 0.359 -0.363 0.449 -0.379 c 0.094 -0.02 0.184 -0.113 0.199 -0.215 c 0.047 -0.273 0.148 -0.344 0.344 -0.23 c 0.527 0.301 1.105 -0.754 0.727 -1.328 c -0.102 -0.152 -0.215 -0.199 -0.504 -0.199 c -0.359 0 -0.379 -0.012 -0.609 -0.469 c -0.301 -0.59 -0.66 -0.852 -1.281 -0.934 c -0.266 -0.035 -0.527 -0.102 -0.582 -0.148 c -0.074 -0.059 -0.152 0.02 -0.273 0.273 c -0.094 0.195 -0.285 0.457 -0.422 0.578 c -0.188 0.172 -0.227 0.254 -0.156 0.328 c 0.074 0.078 0.063 0.176 -0.043 0.395 c -0.078 0.16 -0.184 0.535 -0.234 0.832 c -0.047 0.301 -0.137 0.727 -0.203 0.949 c -0.063 0.23 -0.098 0.617 -0.074 0.898 c 0.035 0.465 0.02 0.52 -0.246 0.828 l -0.281 0.332 l -1.809 0.035 l -1.809 0.039 l -0.137 -0.223 c -0.129 -0.211 -0.125 -0.23 0.051 -0.383 c 0.105 -0.09 0.395 -0.191 0.645 -0.227 c 0.375 -0.047 0.465 -0.094 0.496 -0.254 c 0.023 -0.105 0.066 -0.258 0.098 -0.336 c 0.043 -0.105 -0.008 -0.176 -0.18 -0.25 c -0.133 -0.059 -0.301 -0.227 -0.383 -0.375 c -0.168 -0.313 -0.328 -0.285 -0.676 0.105 c -0.188 0.211 -0.301 0.258 -0.625 0.258 c -0.289 0 -0.383 0.031 -0.352 0.117 c 0.023 0.066 -0.012 0.254 -0.078 0.418 c -0.113 0.289 -0.129 0.297 -0.477 0.234 c -1.02 -0.184 -0.879 -0.238 -1.559 0.609 c -0.258 0.32 -0.293 0.332 -0.816 0.332 c -0.383 0 -0.582 -0.039 -0.652 -0.133 c -0.16 -0.203 -0.258 -0.078 -0.258 0.324 c 0 0.875 -0.754 1.406 -1.18 0.836 m 10.961 -6.621 c 0.121 -0.152 0.219 -0.34 0.219 -0.414 c 0 -0.102 0.063 -0.129 0.215 -0.098 c 0.137 0.027 0.211 0.004 0.211 -0.07 c 0 -0.066 0.152 -0.141 0.359 -0.172 c 1.262 -0.199 1.688 -0.469 2.082 -1.305 c 0.141 -0.305 0.285 -0.773 0.316 -1.047 c 0.105 -0.906 -0.207 -1.293 -1.109 -1.371 c -0.648 -0.055 -0.813 0.082 -1.02 0.852 c -0.496 1.871 -0.688 2.418 -0.879 2.52 c -0.168 0.09 -0.238 0.078 -0.438 -0.082 c -0.199 -0.156 -0.277 -0.172 -0.449 -0.086 c -0.574 0.277 -0.707 0.703 -0.391 1.258 c 0.227 0.398 0.578 0.402 0.883 0.016 m -7.621 6.637 c -0.117 -0.121 -0.211 -0.324 -0.211 -0.449 c 0 -0.23 0.117 -0.309 0.215 -0.141 c 0.078 0.133 0.402 0.109 0.613 -0.047 c 0.102 -0.078 0.23 -0.313 0.281 -0.52 c 0.086 -0.32 0.109 -0.352 0.168 -0.199 c 0.039 0.098 0.07 0.367 0.074 0.598 c 0.004 0.344 -0.039 0.469 -0.242 0.699 c -0.301 0.344 -0.613 0.363 -0.898 0.059 m -7.922 -1.438 c 0 -0.273 0.035 -0.32 0.301 -0.414 c 0.391 -0.141 0.547 -0.066 0.547 0.254 c 0 0.281 -0.254 0.469 -0.641 0.469 c -0.18 0 -0.207 -0.043 -0.207 -0.309 m 2.438 -3.492 c -0.059 -0.188 0.082 -0.625 0.242 -0.75 c 0.102 -0.078 0.125 -0.18 0.086 -0.348 c -0.082 -0.344 -0.375 -0.313 -0.719 0.074 c -0.32 0.359 -0.605 0.406 -0.859 0.137 c -0.164 -0.176 -0.313 -0.602 -0.234 -0.684 c 0.02 -0.02 0.156 0.004 0.301 0.059 c 0.34 0.125 0.586 -0.012 0.746 -0.422 c 0.066 -0.168 0.156 -0.309 0.199 -0.309 c 0.203 0 0.344 0.137 0.43 0.41 c 0.156 0.504 0.727 0.516 1.055 0.023 c 0.137 -0.207 0.184 -0.973 0.063 -0.973 c -0.039 0 -0.156 -0.125 -0.266 -0.281 l -0.191 -0.277 l 0.313 -1.16 c 0.172 -0.637 0.289 -1.234 0.262 -1.328 c -0.027 -0.094 -0.156 -0.219 -0.285 -0.281 c -0.125 -0.063 -0.324 -0.164 -0.441 -0.223 c -0.25 -0.125 -0.324 -0.512 -0.133 -0.68 c 0.09 -0.078 0.418 -0.109 1.074 -0.102 c 0.523 0.008 0.973 0.027 1 0.047 c 0.027 0.02 1.367 0.004 2.973 -0.031 c 1.609 -0.039 3.01 -0.035 3.109 0 c 0.301 0.113 0.297 0.355 -0.02 1.391 c -0.348 1.125 -0.484 1.395 -0.711 1.395 c -0.254 0 -0.41 -0.23 -0.512 -0.762 c -0.074 -0.379 -0.164 -0.555 -0.391 -0.766 c -0.297 -0.277 -0.297 -0.277 -1.34 -0.277 c -0.887 0 -1.063 0.023 -1.168 0.16 c -0.07 0.086 -0.23 0.543 -0.363 1.012 c -0.129 0.473 -0.332 1.18 -0.449 1.57 c -0.199 0.676 -0.203 0.719 -0.063 0.828 c 0.102 0.082 0.313 0.102 0.676 0.066 c 0.523 -0.055 0.531 -0.051 0.617 0.207 c 0.047 0.141 0.117 0.336 0.152 0.434 c 0.055 0.133 0.039 0.16 -0.066 0.117 c -0.078 -0.031 -0.156 0 -0.184 0.074 c -0.035 0.098 -0.207 0.129 -0.68 0.129 c -0.906 0 -1.01 0.059 -1.176 0.699 c -0.133 0.52 -0.152 0.547 -0.582 0.742 c -0.344 0.156 -0.516 0.188 -0.785 0.133 c -0.473 -0.09 -0.965 -0.094 -1.332 -0.008 c -0.23 0.055 -0.316 0.043 -0.348 -0.047" fill="#5f5de4"/><path d="m 5.813 22.27 c -0.313 -0.359 -0.266 -0.754 0.066 -0.563 c 0.25 0.145 0.559 0.016 0.746 -0.309 c 0.18 -0.313 0.223 -0.828 0.074 -0.922 c -0.25 -0.168 -0.246 -0.5 0.02 -1.242 c 0.145 -0.406 0.297 -0.777 0.34 -0.828 c 0.047 -0.055 0.148 0.008 0.273 0.176 c 0.141 0.188 0.27 0.258 0.465 0.258 c 0.332 0 0.531 -0.195 0.648 -0.641 c 0.07 -0.27 0.129 -0.336 0.297 -0.336 c 0.18 0 0.215 0.051 0.254 0.352 c 0.09 0.758 0.754 0.859 1.086 0.172 l 0.168 -0.34 l 0.102 0.238 c 0.262 0.613 -0.152 1.246 -0.816 1.246 c -0.309 0 -0.371 0.031 -0.371 0.172 c 0 0.418 -0.07 0.461 -0.668 0.41 c -0.699 -0.063 -0.977 0.066 -0.98 0.453 c -0.004 0.195 -0.051 0.277 -0.176 0.305 c -0.297 0.059 -0.379 0.203 -0.379 0.664 c 0 0.371 -0.043 0.488 -0.25 0.707 c -0.313 0.336 -0.621 0.344 -0.898 0.027 m 3.441 0 c -0.098 -0.133 -0.176 -0.332 -0.176 -0.449 c 0 -0.188 0.023 -0.203 0.219 -0.121 c 0.434 0.176 0.66 0.039 0.836 -0.496 c 0.113 -0.355 0.473 -0.633 0.473 -0.367 c 0 0.07 -0.039 0.152 -0.086 0.184 c -0.047 0.031 -0.086 0.219 -0.086 0.418 c 0 0.871 -0.754 1.406 -1.18 0.832 m 3.34 0.016 c -0.117 -0.121 -0.211 -0.324 -0.211 -0.449 c 0 -0.23 0.117 -0.309 0.215 -0.141 c 0.078 0.133 0.402 0.109 0.613 -0.047 c 0.102 -0.078 0.23 -0.313 0.281 -0.52 c 0.086 -0.32 0.109 -0.352 0.168 -0.199 c 0.039 0.098 0.07 0.367 0.074 0.598 c 0.004 0.344 -0.039 0.469 -0.242 0.699 c -0.301 0.344 -0.613 0.363 -0.898 0.059 m 7.01 0.012 c -0.188 -0.215 -0.242 -0.551 -0.105 -0.645 c 0.043 -0.027 0.105 -0.008 0.133 0.043 c 0.098 0.164 0.473 0.094 0.684 -0.133 c 0.141 -0.148 0.207 -0.32 0.207 -0.531 c 0 -0.234 0.043 -0.328 0.168 -0.371 c 0.25 -0.086 0.313 -0.004 0.363 0.465 c 0.07 0.648 0.48 0.859 0.941 0.473 c 0.191 -0.16 0.223 -0.254 0.223 -0.668 c 0 -0.27 -0.035 -0.508 -0.082 -0.539 c -0.113 -0.078 -0.016 -0.301 0.352 -0.801 c 0.18 -0.238 0.324 -0.508 0.324 -0.602 c 0 -0.227 0.129 -0.297 0.336 -0.18 c 0.273 0.156 0.652 -0.105 0.773 -0.531 c 0.168 -0.598 -0.059 -1.09 -0.5 -1.09 c -0.191 0 -0.27 -0.082 -0.477 -0.504 c -0.148 -0.305 -0.371 -0.59 -0.559 -0.723 c -0.316 -0.223 -1.254 -0.453 -1.477 -0.363 c -0.07 0.027 -0.199 0.207 -0.293 0.402 c -0.094 0.195 -0.293 0.465 -0.445 0.602 c -0.152 0.137 -0.316 0.332 -0.367 0.438 c -0.082 0.18 -0.156 0.191 -1.137 0.191 c -1.117 0.004 -1.207 -0.035 -1.059 -0.43 c 0.109 -0.289 0.047 -0.875 -0.094 -0.875 c -0.063 0 -0.293 0.164 -0.508 0.359 c -0.215 0.199 -0.426 0.363 -0.465 0.363 c -0.223 0 -0.523 -0.207 -0.594 -0.406 c -0.105 -0.293 -0.34 -0.289 -0.602 0.008 c -0.402 0.465 -0.91 0.457 -1.113 -0.012 c -0.16 -0.375 -0.488 -0.27 -0.715 0.23 c -0.102 0.223 -0.207 0.477 -0.23 0.563 c -0.059 0.188 -0.309 0.211 -0.309 0.027 c 0 -0.07 -0.094 -0.246 -0.211 -0.395 c -0.242 -0.309 -0.504 -0.918 -0.395 -0.918 c 0.039 0 0.191 0.043 0.332 0.098 c 0.477 0.176 0.809 -0.18 0.797 -0.855 c -0.008 -0.512 0.121 -0.984 0.328 -1.184 c 0.277 -0.266 0.387 -0.059 0.246 0.473 c -0.125 0.465 -0.121 0.805 0.012 1.254 c 0.164 0.555 0.914 0.449 1.109 -0.152 c 0.125 -0.379 0.367 -0.344 0.574 0.086 c 0.281 0.59 0.863 0.566 1.137 -0.043 c 0.074 -0.168 0.191 -0.309 0.262 -0.309 c 0.148 0 0.387 0.344 0.387 0.559 c 0 0.23 0.531 0.316 0.797 0.133 c 0.211 -0.148 0.391 -0.602 0.359 -0.914 c -0.008 -0.102 -0.086 -0.293 -0.172 -0.43 c -0.191 -0.301 -0.168 -0.512 0.188 -1.789 c 0.148 -0.527 0.27 -1.023 0.27 -1.102 c 0 -0.223 -0.375 -0.629 -0.691 -0.742 c -0.156 -0.055 -0.285 -0.152 -0.285 -0.219 c 0 -0.152 5.816 -0.219 6.625 -0.078 c 0.641 0.113 1.109 0.422 1.367 0.895 c 0.105 0.195 0.227 0.355 0.273 0.355 c 0.047 0 0.082 0.242 0.082 0.539 c 0 0.297 -0.031 0.543 -0.07 0.543 c -0.039 0 -0.176 0.195 -0.297 0.441 c -0.406 0.789 -0.977 1.199 -2.133 1.535 c -0.371 0.105 -0.77 0.258 -0.883 0.336 c -0.191 0.133 -0.195 0.152 -0.059 0.258 c 0.082 0.066 0.348 0.145 0.586 0.18 c 0.801 0.109 1.457 0.512 1.719 1.051 c 0.18 0.367 0.152 0.426 -0.262 0.613 c -0.391 0.18 -0.57 0.453 -0.508 0.781 c 0.016 0.09 0.055 0.273 0.078 0.406 c 0.07 0.348 0.453 0.473 0.793 0.254 c 0.141 -0.094 0.281 -0.25 0.313 -0.352 c 0.066 -0.223 0.176 -0.242 0.246 -0.047 c 0.18 0.492 -0.082 0.98 -0.672 1.27 c -0.254 0.125 -0.461 0.262 -0.461 0.301 c 0 0.125 -0.328 0.203 -0.938 0.223 c -0.438 0.016 -0.629 0.066 -0.84 0.227 c -0.262 0.195 -0.273 0.234 -0.238 0.648 c 0.047 0.488 0.25 0.797 0.535 0.797 c 0.227 0 0.602 -0.301 0.676 -0.543 c 0.086 -0.297 0.457 -0.234 0.563 0.094 c 0.176 0.539 0.613 0.59 1 0.121 c 0.215 -0.262 0.289 -0.305 0.352 -0.203 c 0.129 0.207 0.008 0.723 -0.238 0.996 c -0.324 0.359 -0.637 0.34 -0.926 -0.063 c -0.121 -0.172 -0.281 -0.313 -0.348 -0.313 c -0.066 0 -0.25 0.141 -0.402 0.313 c -0.371 0.418 -0.641 0.418 -0.953 0 c -0.133 -0.172 -0.293 -0.313 -0.359 -0.313 c -0.066 0 -0.242 0.141 -0.395 0.313 c -0.332 0.391 -0.637 0.418 -0.93 0.078 c -0.113 -0.129 -0.207 -0.273 -0.207 -0.316 c 0 -0.184 -0.324 -0.051 -0.582 0.238 c -0.336 0.379 -0.656 0.418 -0.93 0.109 m 0.613 -6.648 c 0.121 -0.152 0.219 -0.34 0.219 -0.414 c 0 -0.102 0.063 -0.129 0.23 -0.094 c 0.266 0.055 1.207 -0.074 1.629 -0.219 c 0.789 -0.273 1.531 -1.48 1.555 -2.535 c 0.023 -0.965 -0.371 -1.387 -1.387 -1.484 c -0.832 -0.082 -0.922 0.047 -1.48 2.051 c -0.172 0.617 -0.379 1.25 -0.457 1.406 c -0.141 0.281 -0.141 0.281 -0.336 0.113 c -0.422 -0.363 -1.023 -0.051 -1.023 0.535 c 0 0.828 0.609 1.199 1.051 0.641 m -15.16 5.227 c -0.09 -0.148 0.094 -0.285 0.293 -0.219 c 0.246 0.082 0.227 0.316 -0.031 0.316 c -0.113 0 -0.23 -0.043 -0.262 -0.098 m 5.672 -0.004 c -0.031 -0.059 0.008 -0.156 0.086 -0.219 c 0.145 -0.109 1.035 -0.309 1.391 -0.309 c 0.254 0 0.234 0.219 -0.039 0.445 c -0.176 0.145 -0.344 0.184 -0.801 0.184 c -0.34 0 -0.598 -0.039 -0.637 -0.102 m 4.855 0.047 c -0.125 -0.133 -0.047 -0.215 0.195 -0.215 c 0.141 0 0.254 0.043 0.254 0.09 c 0 0.051 -0.035 0.09 -0.078 0.09 c -0.043 0 -0.129 0.023 -0.195 0.051 c -0.063 0.023 -0.141 0.02 -0.176 -0.016 m 1.852 -0.121 c -0.027 -0.047 -0.004 -0.172 0.059 -0.273 c 0.094 -0.164 0.086 -0.207 -0.055 -0.32 c -0.094 -0.07 -0.293 -0.129 -0.445 -0.129 c -0.25 0 -0.32 -0.066 -0.297 -0.281 c 0.004 -0.031 -0.133 -0.125 -0.309 -0.207 c -0.172 -0.082 -0.379 -0.27 -0.457 -0.418 c -0.168 -0.313 -0.328 -0.285 -0.676 0.105 c -0.195 0.223 -0.293 0.258 -0.691 0.258 c -0.422 0 -0.465 0.02 -0.516 0.23 c -0.066 0.285 -0.383 0.418 -0.82 0.344 c -0.254 -0.043 -0.328 -0.09 -0.289 -0.191 c 0.027 -0.078 -0.078 -0.277 -0.25 -0.484 c -0.164 -0.191 -0.301 -0.43 -0.301 -0.531 c 0 -0.16 0.039 -0.172 0.344 -0.121 c 0.375 0.063 0.629 -0.098 0.766 -0.484 c 0.043 -0.113 0.133 -0.203 0.199 -0.203 c 0.129 0 0.18 0.051 0.48 0.473 c 0.289 0.41 0.813 0.309 1.01 -0.199 c 0.148 -0.383 0.379 -0.352 0.637 0.086 c 0.199 0.34 0.324 0.41 0.637 0.367 c 0.207 -0.031 0.438 -0.324 0.5 -0.648 c 0.043 -0.219 0.105 -0.305 0.223 -0.309 c 0.094 0 0.215 -0.035 0.273 -0.074 c 0.059 -0.035 0.246 -0.02 0.414 0.039 c 0.184 0.063 0.473 0.082 0.738 0.047 c 0.875 -0.121 0.855 -0.129 0.887 0.203 c 0.016 0.164 -0.035 0.484 -0.105 0.715 c -0.156 0.484 -0.172 1.094 -0.039 1.402 c 0.074 0.176 0.063 0.266 -0.055 0.457 c -0.141 0.227 -0.172 0.234 -0.977 0.234 c -0.457 0 -0.855 -0.039 -0.883 -0.086 m -10 -3.984 c 0.109 -0.844 -0.203 -1.051 -0.711 -0.48 c -0.32 0.359 -0.605 0.406 -0.859 0.137 c -0.164 -0.176 -0.313 -0.602 -0.238 -0.68 c 0.023 -0.023 0.16 0 0.301 0.055 c 0.344 0.125 0.59 -0.012 0.75 -0.418 c 0.066 -0.172 0.156 -0.309 0.199 -0.309 c 0.203 0 0.344 0.133 0.43 0.406 c 0.156 0.504 0.727 0.516 1.055 0.023 c 0.16 -0.246 0.176 -0.934 0.02 -0.996 c -0.145 -0.059 -0.176 -0.688 -0.051 -1.02 c 0.055 -0.145 0.188 -0.625 0.293 -1.066 c 0.176 -0.711 0.184 -0.84 0.082 -1.094 c -0.078 -0.203 -0.199 -0.324 -0.41 -0.395 c -0.164 -0.059 -0.34 -0.16 -0.391 -0.227 c -0.199 -0.254 0.094 -0.301 1.387 -0.223 c 0.695 0.039 1.289 0.055 1.32 0.035 c 0.121 -0.078 5.105 -0.055 5.184 0.027 c 0.051 0.051 -0.004 0.367 -0.148 0.84 c -0.465 1.559 -0.602 1.684 -0.836 0.766 c -0.156 -0.609 -0.414 -0.961 -0.836 -1.129 c -0.133 -0.055 -0.688 -0.098 -1.234 -0.098 c -1.215 0 -1.242 0.023 -1.582 1.219 c -0.125 0.445 -0.34 1.176 -0.473 1.621 c -0.137 0.445 -0.246 0.875 -0.246 0.953 c 0 0.273 0.199 0.355 0.852 0.355 c 0.531 0 0.676 0.031 0.828 0.184 c 0.102 0.102 0.188 0.211 0.188 0.246 c 0 0.035 -0.434 0.066 -0.965 0.066 c -0.664 0 -1 0.035 -1.094 0.117 c -0.074 0.063 -0.211 0.395 -0.309 0.738 c -0.098 0.34 -0.227 0.652 -0.285 0.691 c -0.055 0.043 -0.59 0.074 -1.188 0.074 h -1.086" fill="#0b0aec"/><path d="m 5.813 22.27 c -0.313 -0.359 -0.266 -0.754 0.066 -0.563 c 0.563 0.32 1.203 -0.77 0.766 -1.305 c -0.148 -0.18 -0.145 -0.18 0.047 -0.039 c 0.309 0.223 0.477 0.516 0.363 0.637 c -0.051 0.055 -0.094 0.297 -0.094 0.539 c 0 0.367 -0.043 0.484 -0.246 0.703 c -0.316 0.336 -0.625 0.344 -0.902 0.027 m 3.441 0 c -0.098 -0.133 -0.176 -0.332 -0.176 -0.449 c 0 -0.188 0.023 -0.203 0.219 -0.121 c 0.434 0.176 0.66 0.039 0.836 -0.496 c 0.113 -0.355 0.473 -0.633 0.473 -0.367 c 0 0.07 -0.039 0.152 -0.086 0.184 c -0.047 0.031 -0.086 0.219 -0.086 0.418 c 0 0.871 -0.754 1.406 -1.18 0.832 m 3.34 0.016 c -0.117 -0.121 -0.211 -0.324 -0.211 -0.449 c 0 -0.23 0.117 -0.309 0.215 -0.141 c 0.078 0.133 0.402 0.109 0.613 -0.047 c 0.102 -0.078 0.23 -0.313 0.281 -0.52 c 0.086 -0.32 0.109 -0.352 0.168 -0.199 c 0.039 0.098 0.07 0.367 0.074 0.598 c 0.004 0.344 -0.039 0.469 -0.242 0.699 c -0.301 0.344 -0.613 0.363 -0.898 0.059 m 7.01 0.012 c -0.188 -0.215 -0.242 -0.551 -0.105 -0.645 c 0.043 -0.027 0.105 -0.008 0.133 0.043 c 0.098 0.164 0.473 0.094 0.684 -0.133 c 0.141 -0.148 0.207 -0.32 0.207 -0.531 c 0 -0.234 0.043 -0.328 0.168 -0.371 c 0.25 -0.086 0.313 -0.004 0.363 0.465 c 0.07 0.648 0.48 0.859 0.941 0.473 c 0.191 -0.16 0.223 -0.254 0.223 -0.656 c 0 -0.262 -0.047 -0.527 -0.105 -0.594 c -0.059 -0.07 0.016 -0.035 0.16 0.07 c 0.148 0.109 0.305 0.195 0.352 0.195 c 0.043 0 0.102 0.184 0.125 0.41 c 0.047 0.465 0.254 0.762 0.531 0.762 c 0.227 0 0.605 -0.301 0.676 -0.543 c 0.09 -0.297 0.457 -0.234 0.563 0.094 c 0.176 0.539 0.613 0.59 1 0.121 c 0.215 -0.262 0.289 -0.305 0.352 -0.203 c 0.133 0.207 0.008 0.723 -0.238 0.996 c -0.324 0.363 -0.637 0.344 -0.922 -0.059 c -0.125 -0.176 -0.281 -0.316 -0.352 -0.316 c -0.066 0 -0.246 0.141 -0.402 0.316 c -0.371 0.418 -0.641 0.418 -0.953 0 c -0.133 -0.176 -0.293 -0.316 -0.359 -0.316 c -0.066 0 -0.242 0.141 -0.391 0.316 c -0.336 0.387 -0.641 0.414 -0.934 0.074 c -0.113 -0.129 -0.207 -0.273 -0.207 -0.313 c 0 -0.188 -0.324 -0.051 -0.582 0.238 c -0.332 0.375 -0.656 0.414 -0.93 0.105 m -14.25 -1.406 c 0 -0.047 0.035 -0.109 0.082 -0.141 c 0.047 -0.031 0.086 0.008 0.086 0.082 c 0 0.078 -0.039 0.141 -0.086 0.141 c -0.047 0 -0.082 -0.035 -0.082 -0.082 m 2.316 -1.27 c -0.227 -0.094 -0.59 -0.598 -0.664 -0.914 c -0.082 -0.352 0.109 -0.418 0.332 -0.117 c 0.137 0.18 0.266 0.25 0.461 0.25 c 0.332 0 0.531 -0.195 0.648 -0.641 c 0.07 -0.27 0.129 -0.336 0.297 -0.336 c 0.18 0 0.215 0.051 0.254 0.352 c 0.09 0.758 0.754 0.859 1.09 0.172 l 0.164 -0.344 l 0.102 0.242 c 0.148 0.34 0.039 0.84 -0.227 1.063 c -0.266 0.223 -0.887 0.254 -1.047 0.051 c -0.148 -0.191 -0.301 -0.172 -0.66 0.09 c -0.328 0.238 -0.457 0.262 -0.75 0.133 m 4.98 -0.227 c -0.145 -0.176 -0.266 -0.398 -0.266 -0.496 c 0 -0.16 0.039 -0.172 0.344 -0.121 c 0.375 0.063 0.629 -0.098 0.766 -0.484 c 0.043 -0.113 0.133 -0.203 0.199 -0.203 c 0.129 0 0.18 0.051 0.48 0.473 c 0.289 0.41 0.813 0.309 1.01 -0.199 c 0.148 -0.383 0.379 -0.352 0.637 0.086 c 0.199 0.34 0.324 0.41 0.637 0.367 c 0.207 -0.031 0.438 -0.324 0.5 -0.648 c 0.07 -0.379 0.316 -0.461 0.395 -0.129 c 0.105 0.441 -0.043 1.039 -0.34 1.387 l -0.281 0.324 l -0.328 -0.16 c -0.18 -0.086 -0.395 -0.273 -0.473 -0.422 c -0.168 -0.313 -0.328 -0.285 -0.676 0.105 c -0.191 0.215 -0.297 0.258 -0.648 0.258 c -0.266 0 -0.453 -0.047 -0.523 -0.133 c -0.145 -0.191 -0.262 -0.172 -0.594 0.09 c -0.383 0.301 -0.523 0.281 -0.836 -0.094 m 10.352 0.129 c -0.23 -0.16 -0.266 -0.227 -0.223 -0.43 c 0.074 -0.34 0.156 -0.402 0.359 -0.289 c 0.461 0.262 1.016 -0.559 0.797 -1.176 l -0.098 -0.266 l 0.277 0.184 c 0.152 0.098 0.297 0.164 0.316 0.141 c 0.02 -0.023 0.043 0.121 0.051 0.32 c 0.02 0.539 0.09 0.688 0.355 0.789 c 0.285 0.105 0.719 -0.125 0.809 -0.43 c 0.066 -0.223 0.176 -0.242 0.246 -0.043 c 0.168 0.457 -0.102 1 -0.609 1.246 l -0.348 0.164 l -0.262 -0.234 c -0.328 -0.293 -0.355 -0.293 -0.742 -0.012 c -0.379 0.273 -0.57 0.281 -0.93 0.035 m -10.258 -2.898 c -0.207 -0.238 -0.48 -0.879 -0.371 -0.879 c 0.039 0 0.191 0.043 0.332 0.098 c 0.492 0.184 0.813 -0.184 0.797 -0.918 l -0.012 -0.426 l 0.254 0.133 c 0.188 0.102 0.254 0.199 0.254 0.387 c 0 0.137 0.039 0.371 0.09 0.523 c 0.176 0.543 0.914 0.434 1.109 -0.164 c 0.125 -0.379 0.367 -0.344 0.574 0.086 c 0.281 0.59 0.863 0.57 1.137 -0.043 c 0.074 -0.168 0.191 -0.305 0.262 -0.305 c 0.148 0 0.387 0.34 0.387 0.555 c 0 0.199 0.5 0.313 0.75 0.172 c 0.363 -0.207 0.543 -0.996 0.289 -1.289 c -0.105 -0.129 -0.063 -0.117 0.219 0.043 c 0.289 0.168 0.352 0.25 0.352 0.473 c 0 0.434 0.289 0.855 0.586 0.855 c 0.262 0 0.688 -0.426 0.688 -0.688 c 0 -0.215 0.375 -0.113 0.406 0.105 c 0.047 0.355 -0.707 1.484 -0.992 1.484 c -0.035 0 -0.242 -0.125 -0.461 -0.277 l -0.395 -0.281 l -0.262 0.234 c -0.18 0.16 -0.359 0.234 -0.578 0.234 c -0.387 0 -0.516 -0.129 -0.516 -0.516 c 0 -0.398 -0.152 -0.383 -0.637 0.066 c -0.215 0.195 -0.426 0.359 -0.465 0.359 c -0.223 0 -0.523 -0.207 -0.594 -0.406 c -0.105 -0.293 -0.34 -0.289 -0.602 0.008 c -0.402 0.465 -0.91 0.461 -1.109 -0.012 c -0.148 -0.34 -0.492 -0.273 -0.68 0.133 c -0.238 0.508 -0.512 0.594 -0.813 0.254 m -5.168 0.055 c -0.059 -0.027 -0.105 -0.121 -0.105 -0.211 c 0 -0.539 -0.34 -0.598 -0.75 -0.137 c -0.32 0.359 -0.605 0.406 -0.859 0.137 c -0.164 -0.176 -0.313 -0.602 -0.234 -0.684 c 0.02 -0.02 0.156 0.004 0.301 0.059 c 0.34 0.125 0.586 -0.012 0.746 -0.422 c 0.066 -0.168 0.156 -0.305 0.199 -0.305 c 0.203 0 0.344 0.133 0.43 0.406 c 0.156 0.504 0.727 0.516 1.055 0.023 c 0.18 -0.277 0.172 -0.875 -0.016 -1.027 c -0.082 -0.066 -0.105 -0.121 -0.051 -0.121 c 0.164 -0.004 0.527 0.523 0.582 0.848 c 0.066 0.379 -0.074 0.867 -0.355 1.223 c -0.168 0.211 -0.281 0.27 -0.523 0.262 c -0.172 -0.004 -0.359 -0.027 -0.418 -0.051 m 4.5 -1.164 c -0.066 -0.188 0.047 -0.293 0.145 -0.129 c 0.105 0.176 0.102 0.27 -0.008 0.27 c -0.047 0 -0.109 -0.063 -0.137 -0.141 m 8.117 -1.039 c -0.109 -0.094 -0.164 -0.172 -0.121 -0.172 c 0.113 0 0.414 0.246 0.363 0.301 c -0.02 0.023 -0.129 -0.035 -0.242 -0.129" fill="#9f1218"/></svg>