<svg xmlns="http://www.w3.org/2000/svg" viewBox="0 0 32 32"><path d="m 26.398 27.363 c 25.23 -33.3 -44.2 -38.03 -21.918 -4.04 c 5.078 7.75 15.234 12.859 21.918 4.04" fill="#191919"/><g stroke="#ffb800"><g transform="matrix(0.35739 0 0 0.32767 0.395 2.043)"><path d="m 31.587 40.22 l 1.01 -1 h 45.993" fill="none" stroke-width="0.5"/><path d="m 80.86 39.22 c 0 0.548 -0.448 1 -0.995 1 c -0.557 0 -1.01 -0.453 -1.01 -1 c 0 -0.548 0.448 -1 1.01 -1 c 0.546 0 0.995 0.453 0.995 1" fill="#fc0" stroke-width="0.667"/></g><g transform="matrix(0.30949 0 0 0.28376 2.989 2.193)"><path d="m 54.21 66.69 h 11.536 l 6.929 -6.938" fill="none" stroke-width="0.577"/><g fill="#fc0" stroke-width="0.77"><path d="m 73.833 59.755 c 0 0.633 -0.517 1.156 -1.161 1.156 c -0.631 0 -1.149 -0.523 -1.149 -1.156 c 0 -0.633 0.517 -1.156 1.149 -1.156 c 0.644 0 1.161 0.523 1.161 1.156"/><path d="m 54.21 66.69 c 0 0.633 -0.517 1.156 -1.161 1.156 c -0.644 0 -1.161 -0.523 -1.161 -1.156 c 0 -0.647 0.517 -1.156 1.161 -1.156 c 0.644 0 1.161 0.509 1.161 1.156"/></g></g><g transform="matrix(0.35739 0 0 0.32767 -0.856 2.91)"><path d="m 42.88 17.38 h 10.995 l 2.995 -3 h 16" fill="none" stroke-width="0.5"/><path d="m 74.872 14.376 c 0 0.548 -0.448 1 -0.995 1 c -0.557 0 -1.01 -0.453 -1.01 -1 c 0 -0.548 0.448 -1 1.01 -1 c 0.546 0 0.995 0.453 0.995 1" fill="#fc0" stroke-width="0.667"/></g><g transform="matrix(0.30949 0 0 0.28376 2.989 2.193)"><path d="m 15.219 55.942 v 18.474 l 4.619 4.625" fill="none" stroke-width="0.577"/><path d="m 22.01 80.06 c 0 0.633 -0.517 1.156 -1.149 1.156 c -0.644 0 -1.161 -0.523 -1.161 -1.156 c 0 -0.633 0.517 -1.156 1.161 -1.156 c 0.631 0 1.149 0.523 1.149 1.156" fill="#fc0" stroke-width="0.77"/></g><g transform="matrix(0.35739 0 0 0.32767 3.508 -7.759)"><path d="m 35.871 78.37 h -8 l -2.995 2.992" fill="none" stroke-width="0.5"/><path d="m 24.952 82.29 c 0 0.548 -0.448 0.989 -0.995 0.989 c -0.557 0 -1.01 -0.441 -1.01 -0.989 c 0 -0.56 0.448 -1 1.01 -1 c 0.546 0 0.995 0.441 0.995 1" fill="#fc0" stroke-width="0.667"/></g><g transform="matrix(-0.24819 0.23577 -0.25716 -0.22755 36.752 29.14)"><path d="m 14.875 61.37 l 0.002 9.993 l 5.993 6" fill="none" stroke-width="0.5"/><path d="m 15.872 60.38 c 0.006 0.556 -0.441 1 -0.997 0.993 c -0.557 0.006 -1.01 -0.442 -1 -0.99 c 0.01 -0.556 0.457 -1 1.01 -1 c 0.549 0.002 0.998 0.45 0.996 0.998" fill="#fc0" stroke-width="0.667"/></g><g transform="matrix(0.35739 0 0 0.32767 -3.879 12.555)"><path d="m 53.872 13.375 l 2 -2 h 12" fill="none" stroke-width="0.5"/><path d="m 69.873 11.372 c 0 0.56 -0.448 1 -0.995 1 c -0.557 0 -1.01 -0.441 -1.01 -1 c 0 -0.548 0.448 -1 1.01 -1 c 0.546 0 0.995 0.453 0.995 1" fill="#fc0" stroke-width="0.667"/></g></g><g fill-rule="evenodd"><path d="m 11.922 15.969 c 0 1.43 -1.266 2.59 -2.824 2.59 c -1.559 0 -2.824 -1.16 -2.824 -2.59 c 0 -1.426 1.266 -2.586 2.824 -2.586 c 1.559 0 2.824 1.16 2.824 2.586" fill="#fff"/><path d="m 11.348 15.969 c 0 1.141 -1.01 2.063 -2.25 2.063 c -1.242 0 -2.25 -0.922 -2.25 -2.063 c 0 -1.137 1.01 -2.059 2.25 -2.059 c 1.242 0 2.25 0.922 2.25 2.059" fill="#191919"/></g></svg>