<svg xmlns="http://www.w3.org/2000/svg" xmlns:xlink="http://www.w3.org/1999/xlink" viewBox="0 0 32 32"><defs><g id="3" clip-path="url(#2)"><path d="m 118.19 33.472 c -0.969 -0.443 -2.644 -0.252 -4.25 0.575 c -2.17 1.1 -3.452 2.952 -2.879 4.111 l 0.176 0.328 c -6.31 0.166 -13.352 1.737 -20.398 4.511 c -10.845 -12.505 -23.493 -20.734 -36.681 -20.846 c -6.144 11.542 -2.317 26.05 6.986 40.846 c -2.518 2.706 -4.58 5.445 -6.265 8.127 l -0.774 -1.545 c -0.573 -1.159 -2.747 -1.175 -4.918 -0.075 c -2.17 1.1 -3.45 2.924 -2.876 4.082 l 4.01 8.11 c -0.953 4.395 -0.528 8.348 1.294 11.602 l 6.981 12.507 c 0.76 1.344 1.786 2.564 2.996 3.627 c 0.026 0.031 0.053 0.061 0.053 0.061 c 0.296 0.251 0.595 0.473 0.893 0.695 c 0.055 0.033 0.081 0.063 0.108 0.094 c 0.299 0.222 0.599 0.416 0.9 0.61 c 0.274 0.163 0.579 0.3 0.853 0.463 c 0.083 0.035 0.165 0.098 0.246 0.161 c 0.057 0.004 0.112 0.037 0.14 0.039 c 0.055 0.033 0.11 0.065 0.193 0.1 c 0.081 0.063 0.165 0.098 0.248 0.133 c 0.331 0.167 0.664 0.306 1.024 0.476 c 0.307 0.108 0.642 0.219 0.949 0.327 c 0.138 0.067 0.276 0.135 0.417 0.174 c 0 0 0.028 0.002 0.028 0.002 c 5.949 2.01 17.854 0.884 27.822 -1.933 l 2.068 4.188 c 0 0 -0.002 0.028 -0.002 0.028 l 0.45 0.892 c 0.077 0.12 0.183 0.242 0.288 0.365 c 0.8 0.803 2.457 0.839 4.03 0.039 c 0.118 -0.049 0.21 -0.128 0.299 -0.178 c 0.09 -0.051 0.234 -0.069 0.326 -0.148 c 2.17 -1.1 3.423 -2.954 2.85 -4.113 l -2.121 -4.249 c 1.892 1.513 3.82 2.943 5.718 4.371 c -1.276 2.168 -1.54 4.209 -0.76 5.669 l 3.351 6.2 c 0.024 0.059 0.051 0.09 0.077 0.12 c 0.051 0.09 0.103 0.151 0.154 0.24 c 0.051 0.09 0.13 0.181 0.237 0.275 c -0.002 0.028 0.026 0.031 0.024 0.059 c 0.134 0.124 0.239 0.247 0.376 0.342 c 0.217 0.159 0.435 0.318 0.682 0.451 c 0.221 0.102 0.414 0.202 0.667 0.278 c 0.502 0.18 1.01 0.275 1.58 0.317 c 0.569 0.042 1.171 0.029 1.776 -0.013 c 0.635 -0.068 1.274 -0.193 1.945 -0.372 c 0.322 -0.091 0.641 -0.153 0.965 -0.273 c 0.997 -0.327 2.029 -0.738 3.041 -1.265 c 0.328 -0.176 0.656 -0.353 0.983 -0.529 c 1.645 -0.967 3.251 -2.165 4.612 -3.554 c 0.962 -1.017 1.692 -1.994 2.28 -2.981 c 0.231 -0.412 0.431 -0.798 0.603 -1.187 c 0.45 -1.055 0.637 -2.043 0.586 -2.905 c -0.022 -0.088 -0.016 -0.173 -0.01 -0.258 c -0.018 -0.144 -0.038 -0.26 -0.058 -0.376 c -0.026 -0.031 -0.024 -0.059 -0.022 -0.088 c -0.064 -0.291 -0.188 -0.558 -0.34 -0.826 l -3.323 -6.198 c 0.077 0.12 0.124 0.267 0.17 0.413 l -0.198 -0.415 c -0.43 -0.776 -1.185 -1.404 -2.246 -1.768 c -1.508 -0.512 -3.43 -0.453 -5.445 0.086 c -3.792 -14.992 -10.128 -30.429 -18.19 -43.788 c 0.556 -0.16 1.083 -0.321 1.636 -0.452 c 1.547 -0.401 3.061 -0.748 4.536 -0.955 c 0.985 -0.157 1.967 -0.285 2.919 -0.386 c 0.978 -0.071 1.924 -0.087 2.84 -0.077 c 1.833 -0.008 3.567 0.148 5.204 0.469 c 0 0 0.028 0.002 0.028 0.002 c 0.197 0.043 0.392 0.115 0.618 0.16 c 0.169 0.041 0.368 0.056 0.537 0.097 l 0.371 0.8 c 0.028 0.002 0.026 0.031 0.026 0.031 l 0.423 0.861 c 0.049 0.118 0.128 0.21 0.207 0.301 c 0.235 0.304 0.591 0.53 1.014 0.618 c -1.235 5.119 -4.813 10.953 -10.489 16.518 c 2.131 5.28 3.77 9.07 5.34 14.19 c 0.701 2.141 1.124 3.403 1.977 5.813 c 3.989 -3.256 7.324 -6.56 10.03 -9.854 c 9.145 -10.691 11.846 -21.341 7.901 -28.416 l -6.654 -11.882 l -0.355 -0.627 c -1.747 -3.105 -4.717 -5.528 -9.02 -6.989 c -0.085 -0.006 -0.197 -0.043 -0.281 -0.078 l -2.817 -5.674 c -0.15 -0.297 -0.391 -0.515 -0.696 -0.652 m 14.597 20.653 c -0.002 0.028 -0.004 0.057 -0.006 0.085 c -1.121 -0.712 -2.393 -1.321 -3.761 -1.794 c -0.421 -0.117 -0.839 -0.262 -1.26 -0.379 c 0.421 0.117 0.844 0.205 1.234 0.348 c 1.425 0.477 2.67 1.055 3.794 1.739 m -59.697 24.721 c 4.22 4.89 8.874 9.727 13.798 14.382 c 0.022 0.088 0.018 0.144 0.014 0.201 c -0.106 -0.122 -0.213 -0.216 -0.319 -0.338 c -5.423 2.12 -13.336 2.683 -19.368 0.637 c -0.447 -0.147 -0.894 -0.295 -1.311 -0.469 c 0.552 -4.396 2.951 -9.372 7.186 -14.414 m -15.983 16.486 l 0.055 0.033 c -0.193 1.074 -0.271 2.127 -0.289 3.156 c 0.002 -0.028 -0.026 -0.031 -0.026 -0.031 c -0.018 -0.144 -0.008 -0.287 0.003 -0.429 c 0.008 -0.887 0.103 -1.796 0.258 -2.729" transform="matrix(0.13647 -0.01004 0.01004 0.13647 1.551 5.224)" fill="none" stroke="#000" stroke-linejoin="round" stroke-width="17.994"/></g><g id="6" clip-path="url(#5)"><path d="m 118.19 33.472 c -0.969 -0.443 -2.644 -0.252 -4.25 0.575 c -2.17 1.1 -3.452 2.952 -2.879 4.111 l 0.176 0.328 c -6.31 0.166 -13.352 1.737 -20.398 4.511 c -10.845 -12.505 -23.493 -20.734 -36.681 -20.846 c -6.144 11.542 -2.317 26.05 6.986 40.846 c -2.518 2.706 -4.58 5.445 -6.265 8.127 l -0.774 -1.545 c -0.573 -1.159 -2.747 -1.175 -4.918 -0.075 c -2.17 1.1 -3.45 2.924 -2.876 4.082 l 4.01 8.11 c -0.953 4.395 -0.528 8.348 1.294 11.602 l 6.981 12.507 c 0.76 1.344 1.786 2.564 2.996 3.627 c 0.026 0.031 0.053 0.061 0.053 0.061 c 0.296 0.251 0.595 0.473 0.893 0.695 c 0.055 0.033 0.081 0.063 0.108 0.094 c 0.299 0.222 0.599 0.416 0.9 0.61 c 0.274 0.163 0.579 0.3 0.853 0.463 c 0.083 0.035 0.165 0.098 0.246 0.161 c 0.057 0.004 0.112 0.037 0.14 0.039 c 0.055 0.033 0.11 0.065 0.193 0.1 c 0.081 0.063 0.165 0.098 0.248 0.133 c 0.331 0.167 0.664 0.306 1.024 0.476 c 0.307 0.108 0.642 0.219 0.949 0.327 c 0.138 0.067 0.276 0.135 0.417 0.174 c 0 0 0.028 0.002 0.028 0.002 c 5.949 2.01 17.854 0.884 27.822 -1.933 l 2.068 4.188 c 0 0 -0.002 0.028 -0.002 0.028 l 0.45 0.892 c 0.077 0.12 0.183 0.242 0.288 0.365 c 0.8 0.803 2.457 0.839 4.03 0.039 c 0.118 -0.049 0.21 -0.128 0.299 -0.178 c 0.09 -0.051 0.234 -0.069 0.326 -0.148 c 2.17 -1.1 3.423 -2.954 2.85 -4.113 l -2.121 -4.249 c 1.892 1.513 3.82 2.943 5.718 4.371 c -1.276 2.168 -1.54 4.209 -0.76 5.669 l 3.351 6.2 c 0.024 0.059 0.051 0.09 0.077 0.12 c 0.051 0.09 0.103 0.151 0.154 0.24 c 0.051 0.09 0.13 0.181 0.237 0.275 c -0.002 0.028 0.026 0.031 0.024 0.059 c 0.134 0.124 0.239 0.247 0.376 0.342 c 0.217 0.159 0.435 0.318 0.682 0.451 c 0.221 0.102 0.414 0.202 0.667 0.278 c 0.502 0.18 1.01 0.275 1.58 0.317 c 0.569 0.042 1.171 0.029 1.776 -0.013 c 0.635 -0.068 1.274 -0.193 1.945 -0.372 c 0.322 -0.091 0.641 -0.153 0.965 -0.273 c 0.997 -0.327 2.029 -0.738 3.041 -1.265 c 0.328 -0.176 0.656 -0.353 0.983 -0.529 c 1.645 -0.967 3.251 -2.165 4.612 -3.554 c 0.962 -1.017 1.692 -1.994 2.28 -2.981 c 0.231 -0.412 0.431 -0.798 0.603 -1.187 c 0.45 -1.055 0.637 -2.043 0.586 -2.905 c -0.022 -0.088 -0.016 -0.173 -0.01 -0.258 c -0.018 -0.144 -0.038 -0.26 -0.058 -0.376 c -0.026 -0.031 -0.024 -0.059 -0.022 -0.088 c -0.064 -0.291 -0.188 -0.558 -0.34 -0.826 l -3.323 -6.198 c 0.077 0.12 0.124 0.267 0.17 0.413 l -0.198 -0.415 c -0.43 -0.776 -1.185 -1.404 -2.246 -1.768 c -1.508 -0.512 -3.43 -0.453 -5.445 0.086 c -3.792 -14.992 -10.128 -30.429 -18.19 -43.788 c 0.556 -0.16 1.083 -0.321 1.636 -0.452 c 1.547 -0.401 3.061 -0.748 4.536 -0.955 c 0.985 -0.157 1.967 -0.285 2.919 -0.386 c 0.978 -0.071 1.924 -0.087 2.84 -0.077 c 1.833 -0.008 3.567 0.148 5.204 0.469 c 0 0 0.028 0.002 0.028 0.002 c 0.197 0.043 0.392 0.115 0.618 0.16 c 0.169 0.041 0.368 0.056 0.537 0.097 l 0.371 0.8 c 0.028 0.002 0.026 0.031 0.026 0.031 l 0.423 0.861 c 0.049 0.118 0.128 0.21 0.207 0.301 c 0.235 0.304 0.591 0.53 1.014 0.618 c -1.235 5.119 -4.813 10.953 -10.489 16.518 c 2.131 5.28 3.77 9.07 5.34 14.19 c 0.701 2.141 1.124 3.403 1.977 5.813 c 3.989 -3.256 7.324 -6.56 10.03 -9.854 c 9.145 -10.691 11.846 -21.341 7.901 -28.416 l -6.654 -11.882 l -0.355 -0.627 c -1.747 -3.105 -4.717 -5.528 -9.02 -6.989 c -0.085 -0.006 -0.197 -0.043 -0.281 -0.078 l -2.817 -5.674 c -0.15 -0.297 -0.391 -0.515 -0.696 -0.652 m 14.597 20.653 c -0.002 0.028 -0.004 0.057 -0.006 0.085 c -1.121 -0.712 -2.393 -1.321 -3.761 -1.794 c -0.421 -0.117 -0.839 -0.262 -1.26 -0.379 c 0.421 0.117 0.844 0.205 1.234 0.348 c 1.425 0.477 2.67 1.055 3.794 1.739 m -59.697 24.721 c 4.22 4.89 8.874 9.727 13.798 14.382 c 0.022 0.088 0.018 0.144 0.014 0.201 c -0.106 -0.122 -0.213 -0.216 -0.319 -0.338 c -5.423 2.12 -13.336 2.683 -19.368 0.637 c -0.447 -0.147 -0.894 -0.295 -1.311 -0.469 c 0.552 -4.396 2.951 -9.372 7.186 -14.414 m -15.983 16.486 l 0.055 0.033 c -0.193 1.074 -0.271 2.127 -0.289 3.156 c 0.002 -0.028 -0.026 -0.031 -0.026 -0.031 c -0.018 -0.144 -0.008 -0.287 0.003 -0.429 c 0.008 -0.887 0.103 -1.796 0.258 -2.729" transform="matrix(0.13647 -0.01004 0.01004 0.13647 1.551 5.224)" fill="none" stroke="#000" stroke-linejoin="round" stroke-width="8.997"/></g><g id="9" clip-path="url(#8)"><path d="m 118.19 33.472 c -0.969 -0.443 -2.644 -0.252 -4.25 0.575 c -2.17 1.1 -3.452 2.952 -2.879 4.111 l 0.176 0.328 c -6.31 0.166 -13.352 1.737 -20.398 4.511 c -10.845 -12.505 -23.493 -20.734 -36.681 -20.846 c -6.144 11.542 -2.317 26.05 6.986 40.846 c -2.518 2.706 -4.58 5.445 -6.265 8.127 l -0.774 -1.545 c -0.573 -1.159 -2.747 -1.175 -4.918 -0.075 c -2.17 1.1 -3.45 2.924 -2.876 4.082 l 4.01 8.11 c -0.953 4.395 -0.528 8.348 1.294 11.602 l 6.981 12.507 c 0.76 1.344 1.786 2.564 2.996 3.627 c 0.026 0.031 0.053 0.061 0.053 0.061 c 0.296 0.251 0.595 0.473 0.893 0.695 c 0.055 0.033 0.081 0.063 0.108 0.094 c 0.299 0.222 0.599 0.416 0.9 0.61 c 0.274 0.163 0.579 0.3 0.853 0.463 c 0.083 0.035 0.165 0.098 0.246 0.161 c 0.057 0.004 0.112 0.037 0.14 0.039 c 0.055 0.033 0.11 0.065 0.193 0.1 c 0.081 0.063 0.165 0.098 0.248 0.133 c 0.331 0.167 0.664 0.306 1.024 0.476 c 0.307 0.108 0.642 0.219 0.949 0.327 c 0.138 0.067 0.276 0.135 0.417 0.174 c 0 0 0.028 0.002 0.028 0.002 c 5.949 2.01 17.854 0.884 27.822 -1.933 l 2.068 4.188 c 0 0 -0.002 0.028 -0.002 0.028 l 0.45 0.892 c 0.077 0.12 0.183 0.242 0.288 0.365 c 0.8 0.803 2.457 0.839 4.03 0.039 c 0.118 -0.049 0.21 -0.128 0.299 -0.178 c 0.09 -0.051 0.234 -0.069 0.326 -0.148 c 2.17 -1.1 3.423 -2.954 2.85 -4.113 l -2.121 -4.249 c 1.892 1.513 3.82 2.943 5.718 4.371 c -1.276 2.168 -1.54 4.209 -0.76 5.669 l 3.351 6.2 c 0.024 0.059 0.051 0.09 0.077 0.12 c 0.051 0.09 0.103 0.151 0.154 0.24 c 0.051 0.09 0.13 0.181 0.237 0.275 c -0.002 0.028 0.026 0.031 0.024 0.059 c 0.134 0.124 0.239 0.247 0.376 0.342 c 0.217 0.159 0.435 0.318 0.682 0.451 c 0.221 0.102 0.414 0.202 0.667 0.278 c 0.502 0.18 1.01 0.275 1.58 0.317 c 0.569 0.042 1.171 0.029 1.776 -0.013 c 0.635 -0.068 1.274 -0.193 1.945 -0.372 c 0.322 -0.091 0.641 -0.153 0.965 -0.273 c 0.997 -0.327 2.029 -0.738 3.041 -1.265 c 0.328 -0.176 0.656 -0.353 0.983 -0.529 c 1.645 -0.967 3.251 -2.165 4.612 -3.554 c 0.962 -1.017 1.692 -1.994 2.28 -2.981 c 0.231 -0.412 0.431 -0.798 0.603 -1.187 c 0.45 -1.055 0.637 -2.043 0.586 -2.905 c -0.022 -0.088 -0.016 -0.173 -0.01 -0.258 c -0.018 -0.144 -0.038 -0.26 -0.058 -0.376 c -0.026 -0.031 -0.024 -0.059 -0.022 -0.088 c -0.064 -0.291 -0.188 -0.558 -0.34 -0.826 l -3.323 -6.198 c 0.077 0.12 0.124 0.267 0.17 0.413 l -0.198 -0.415 c -0.43 -0.776 -1.185 -1.404 -2.246 -1.768 c -1.508 -0.512 -3.43 -0.453 -5.445 0.086 c -3.792 -14.992 -10.128 -30.429 -18.19 -43.788 c 0.556 -0.16 1.083 -0.321 1.636 -0.452 c 1.547 -0.401 3.061 -0.748 4.536 -0.955 c 0.985 -0.157 1.967 -0.285 2.919 -0.386 c 0.978 -0.071 1.924 -0.087 2.84 -0.077 c 1.833 -0.008 3.567 0.148 5.204 0.469 c 0 0 0.028 0.002 0.028 0.002 c 0.197 0.043 0.392 0.115 0.618 0.16 c 0.169 0.041 0.368 0.056 0.537 0.097 l 0.371 0.8 c 0.028 0.002 0.026 0.031 0.026 0.031 l 0.423 0.861 c 0.049 0.118 0.128 0.21 0.207 0.301 c 0.235 0.304 0.591 0.53 1.014 0.618 c -1.235 5.119 -4.813 10.953 -10.489 16.518 c 2.131 5.28 3.77 9.07 5.34 14.19 c 0.701 2.141 1.124 3.403 1.977 5.813 c 3.989 -3.256 7.324 -6.56 10.03 -9.854 c 9.145 -10.691 11.846 -21.341 7.901 -28.416 l -6.654 -11.882 l -0.355 -0.627 c -1.747 -3.105 -4.717 -5.528 -9.02 -6.989 c -0.085 -0.006 -0.197 -0.043 -0.281 -0.078 l -2.817 -5.674 c -0.15 -0.297 -0.391 -0.515 -0.696 -0.652 m 14.597 20.653 c -0.002 0.028 -0.004 0.057 -0.006 0.085 c -1.121 -0.712 -2.393 -1.321 -3.761 -1.794 c -0.421 -0.117 -0.839 -0.262 -1.26 -0.379 c 0.421 0.117 0.844 0.205 1.234 0.348 c 1.425 0.477 2.67 1.055 3.794 1.739 m -59.697 24.721 c 4.22 4.89 8.874 9.727 13.798 14.382 c 0.022 0.088 0.018 0.144 0.014 0.201 c -0.106 -0.122 -0.213 -0.216 -0.319 -0.338 c -5.423 2.12 -13.336 2.683 -19.368 0.637 c -0.447 -0.147 -0.894 -0.295 -1.311 -0.469 c 0.552 -4.396 2.951 -9.372 7.186 -14.414 m -15.983 16.486 l 0.055 0.033 c -0.193 1.074 -0.271 2.127 -0.289 3.156 c 0.002 -0.028 -0.026 -0.031 -0.026 -0.031 c -0.018 -0.144 -0.008 -0.287 0.003 -0.429 c 0.008 -0.887 0.103 -1.796 0.258 -2.729" transform="matrix(0.13647 -0.01004 0.01004 0.13647 1.551 5.224)" fill="none" stroke="#000" stroke-linejoin="round" stroke-width="4.498"/></g><clipPath id="8"><path d="M 0,0 H32 V32 H0 z"/></clipPath><clipPath id="2"><path d="M 0,0 H32 V32 H0 z"/></clipPath><clipPath id="5"><path d="M 0,0 H32 V32 H0 z"/></clipPath><filter id="0" filterUnits="objectBoundingBox" x="0" y="0" width="32" height="32"><feColorMatrix type="matrix" in="SourceGraphic" values="0 0 0 0 1 0 0 0 0 1 0 0 0 0 1 0 0 0 1 0"/></filter><mask id="7"><g filter="url(#0)"><path fill-opacity="0.2" d="M 0,0 H32 V32 H0 z"/></g></mask><mask id="4"><g filter="url(#0)"><path fill-opacity="0.149" d="M 0,0 H32 V32 H0 z"/></g></mask><mask id="1"><g filter="url(#0)"><path fill-opacity="0.051" d="M 0,0 H32 V32 H0 z"/></g></mask><radialGradient id="F" gradientUnits="userSpaceOnUse" cx="168.99" cy="158.26" r="38.777" gradientTransform="matrix(0.05871 0.07928 -0.01713 0.00994 7.01 -1.261)" xlink:href="#A"/><radialGradient id="G" gradientUnits="userSpaceOnUse" cx="168.99" cy="158.26" r="38.777" gradientTransform="matrix(-0.06202 -0.07672 0.01669 -0.01065 18.611 24.43)" xlink:href="#A"/><radialGradient id="H" gradientUnits="userSpaceOnUse" cx="168.99" cy="158.26" r="38.777" gradientTransform="matrix(0.05871 0.07928 -0.01713 0.00994 10.472 -5.821)" xlink:href="#A"/><radialGradient id="E" gradientUnits="userSpaceOnUse" cx="168.99" cy="158.26" r="38.777" gradientTransform="matrix(0.05306 0.08316 -0.01778 0.00872 10.379 4.332)" xlink:href="#A"/><radialGradient id="B" gradientUnits="userSpaceOnUse" cx="168.99" cy="158.26" r="38.777" gradientTransform="matrix(0.05306 0.08316 -0.01778 0.00872 13.1 -3.559)" xlink:href="#A"/><radialGradient id="D" gradientUnits="userSpaceOnUse" cx="168.99" cy="158.26" r="38.777" gradientTransform="matrix(0.05306 0.08316 -0.01778 0.00872 4.568 1.878)" xlink:href="#A"/><radialGradient id="A" gradientUnits="userSpaceOnUse" cx="168.99" cy="158.26" r="38.777" gradientTransform="matrix(0.14075 0.17095 -0.03897 0.02429 1.568 -12.855)"><stop stop-color="#fff"/><stop offset="1" stop-color="#dc5f6f" stop-opacity="0"/></radialGradient><radialGradient id="C" gradientUnits="userSpaceOnUse" cx="168.99" cy="158.26" r="38.777" gradientTransform="matrix(0.05871 0.07928 -0.01713 0.00994 7.635 2.103)" xlink:href="#A"/><radialGradient id="I" gradientUnits="userSpaceOnUse" cx="168.99" cy="158.26" r="38.777" gradientTransform="matrix(0.05871 0.07928 -0.01713 0.00994 1.952 -0.495)" xlink:href="#A"/></defs><path d="m 25.328 28.738 c -23.621 15.777 -38.17 -34.535 -7.633 -27.875 c 12.617 2.84 20.277 20.641 7.633 27.875"/><use xlink:href="#3" mask="url(#1)"/><path d="m 118.19 33.472 c -0.969 -0.443 -2.644 -0.252 -4.25 0.575 c -2.17 1.1 -3.452 2.952 -2.879 4.111 l 0.176 0.328 c -6.31 0.166 -13.352 1.737 -20.398 4.511 c -10.845 -12.505 -23.493 -20.734 -36.681 -20.846 c -6.144 11.542 -2.317 26.05 6.986 40.846 c -2.518 2.706 -4.58 5.445 -6.265 8.127 l -0.774 -1.545 c -0.573 -1.159 -2.747 -1.175 -4.918 -0.075 c -2.17 1.1 -3.45 2.924 -2.876 4.082 l 4.01 8.11 c -0.953 4.395 -0.528 8.348 1.294 11.602 l 6.981 12.507 c 0.76 1.344 1.786 2.564 2.996 3.627 c 0.026 0.031 0.053 0.061 0.053 0.061 c 0.296 0.251 0.595 0.473 0.893 0.695 c 0.055 0.033 0.081 0.063 0.108 0.094 c 0.299 0.222 0.599 0.416 0.9 0.61 c 0.274 0.163 0.579 0.3 0.853 0.463 c 0.083 0.035 0.165 0.098 0.246 0.161 c 0.057 0.004 0.112 0.037 0.14 0.039 c 0.055 0.033 0.11 0.065 0.193 0.1 c 0.081 0.063 0.165 0.098 0.248 0.133 c 0.331 0.167 0.664 0.306 1.024 0.476 c 0.307 0.108 0.642 0.219 0.949 0.327 c 0.138 0.067 0.276 0.135 0.417 0.174 c 0 0 0.028 0.002 0.028 0.002 c 5.949 2.01 17.854 0.884 27.822 -1.933 l 2.068 4.188 c 0 0 -0.002 0.028 -0.002 0.028 l 0.45 0.892 c 0.077 0.12 0.183 0.242 0.288 0.365 c 0.8 0.803 2.457 0.839 4.03 0.039 c 0.118 -0.049 0.21 -0.128 0.299 -0.178 c 0.09 -0.051 0.234 -0.069 0.326 -0.148 c 2.17 -1.1 3.423 -2.954 2.85 -4.113 l -2.121 -4.249 c 1.892 1.513 3.82 2.943 5.718 4.371 c -1.276 2.168 -1.54 4.209 -0.76 5.669 l 3.351 6.2 c 0.024 0.059 0.051 0.09 0.077 0.12 c 0.051 0.09 0.103 0.151 0.154 0.24 c 0.051 0.09 0.13 0.181 0.237 0.275 c -0.002 0.028 0.026 0.031 0.024 0.059 c 0.134 0.124 0.239 0.247 0.376 0.342 c 0.217 0.159 0.435 0.318 0.682 0.451 c 0.221 0.102 0.414 0.202 0.667 0.278 c 0.502 0.18 1.01 0.275 1.58 0.317 c 0.569 0.042 1.171 0.029 1.776 -0.013 c 0.635 -0.068 1.274 -0.193 1.945 -0.372 c 0.322 -0.091 0.641 -0.153 0.965 -0.273 c 0.997 -0.327 2.029 -0.738 3.041 -1.265 c 0.328 -0.176 0.656 -0.353 0.983 -0.529 c 1.645 -0.967 3.251 -2.165 4.612 -3.554 c 0.962 -1.017 1.692 -1.994 2.28 -2.981 c 0.231 -0.412 0.431 -0.798 0.603 -1.187 c 0.45 -1.055 0.637 -2.043 0.586 -2.905 c -0.022 -0.088 -0.016 -0.173 -0.01 -0.258 c -0.018 -0.144 -0.038 -0.26 -0.058 -0.376 c -0.026 -0.031 -0.024 -0.059 -0.022 -0.088 c -0.064 -0.291 -0.188 -0.558 -0.34 -0.826 l -3.323 -6.198 c 0.077 0.12 0.124 0.267 0.17 0.413 l -0.198 -0.415 c -0.43 -0.776 -1.185 -1.404 -2.246 -1.768 c -1.508 -0.512 -3.43 -0.453 -5.445 0.086 c -3.792 -14.992 -10.128 -30.429 -18.19 -43.788 c 0.556 -0.16 1.083 -0.321 1.636 -0.452 c 1.547 -0.401 3.061 -0.748 4.536 -0.955 c 0.985 -0.157 1.967 -0.285 2.919 -0.386 c 0.978 -0.071 1.924 -0.087 2.84 -0.077 c 1.833 -0.008 3.567 0.148 5.204 0.469 c 0 0 0.028 0.002 0.028 0.002 c 0.197 0.043 0.392 0.115 0.618 0.16 c 0.169 0.041 0.368 0.056 0.537 0.097 l 0.371 0.8 c 0.028 0.002 0.026 0.031 0.026 0.031 l 0.423 0.861 c 0.049 0.118 0.128 0.21 0.207 0.301 c 0.235 0.304 0.591 0.53 1.014 0.618 c -1.235 5.119 -4.813 10.953 -10.489 16.518 c 2.131 5.28 3.77 9.07 5.34 14.19 c 0.701 2.141 1.124 3.403 1.977 5.813 c 3.989 -3.256 7.324 -6.56 10.03 -9.854 c 9.145 -10.691 11.846 -21.341 7.901 -28.416 l -6.654 -11.882 l -0.355 -0.627 c -1.747 -3.105 -4.717 -5.528 -9.02 -6.989 c -0.085 -0.006 -0.197 -0.043 -0.281 -0.078 l -2.817 -5.674 c -0.15 -0.297 -0.391 -0.515 -0.696 -0.652 m 14.597 20.653 c -0.002 0.028 -0.004 0.057 -0.006 0.085 c -1.121 -0.712 -2.393 -1.321 -3.761 -1.794 c -0.421 -0.117 -0.839 -0.262 -1.26 -0.379 c 0.421 0.117 0.844 0.205 1.234 0.348 c 1.425 0.477 2.67 1.055 3.794 1.739 m -59.697 24.721 c 4.22 4.89 8.874 9.727 13.798 14.382 c 0.022 0.088 0.018 0.144 0.014 0.201 c -0.106 -0.122 -0.213 -0.216 -0.319 -0.338 c -5.423 2.12 -13.336 2.683 -19.368 0.637 c -0.447 -0.147 -0.894 -0.295 -1.311 -0.469 c 0.552 -4.396 2.951 -9.372 7.186 -14.414 m -15.983 16.486 l 0.055 0.033 c -0.193 1.074 -0.271 2.127 -0.289 3.156 c 0.002 -0.028 -0.026 -0.031 -0.026 -0.031 c -0.018 -0.144 -0.008 -0.287 0.003 -0.429 c 0.008 -0.887 0.103 -1.796 0.258 -2.729" transform="matrix(0.13647 -0.01004 0.01004 0.13647 1.551 5.224)" fill="#d45400" stroke="#fff"/><use xlink:href="#6" mask="url(#4)"/><use xlink:href="#9" mask="url(#7)"/><path d="m 16.883 19.422 l 0.066 0.113 c 0.09 0.152 -0.031 0.391 -0.27 0.535 v 0.004 c -0.238 0.145 -0.504 0.137 -0.594 -0.016 l -0.066 -0.113 c -0.09 -0.152 0.031 -0.395 0.266 -0.539 h 0.004 c 0.238 -0.145 0.504 -0.137 0.594 0.016" fill="#007f00"/><g stroke="#fff"><path d="m 123.18 -45.06 l 24.661 0.017 c 1.268 -0.013 2.334 1.957 2.34 4.366 c -0.009 2.433 -1.054 4.384 -2.346 4.383 l -24.676 0.008 c -1.293 -0.001 -2.334 -1.958 -2.325 -4.391 c -0.006 -2.409 1.054 -4.384 2.346 -4.383" transform="matrix(0.06962 0.1178 -0.11693 0.07108 1.551 5.224)" stroke-opacity="0.475" stroke-linejoin="round" stroke-linecap="round" stroke-width="3"/><g transform="matrix(-0.136 -0.03494 -0.12757 0.10328 49.967 4.174)"><path d="m 125.56 101.85 c -11.1 6.417 -20.819 20.11 -24.358 36.01 l -17.302 9.994 c 3.512 -15.87 13.233 -29.601 24.31 -35.99"/><path d="m 121.09 177.72 c 4.386 0.009 8.88 -1.383 13.164 -3.867 l -17.329 10.02 c -4.257 2.456 -8.75 3.847 -13.159 3.831"/><path d="m 136.82 106.57 c 12.457 -0.021 19.446 13.993 15.62 31.27 l -17.302 9.994 c 3.799 -17.248 -3.19 -31.26 -15.62 -31.27"/><path d="m 152.44 137.84 c -2.753 12.458 -10.412 23.256 -19.12 28.29 l -17.351 10.01 c 8.713 -5.03 16.394 -15.823 19.17 -28.31"/></g><path d="m 143.81 130.56 c 4.214 4.511 7.328 7.749 10.99 12.322 c 5.229 -11.881 3.748 -25.917 -2.093 -30.95 l -11.573 -10 c 5.841 5.03 7.03 16.17 2.676 28.629 m -0.941 30.352 c -5.578 -2.127 -10.255 -4.066 -15.407 -6.441 c -3.869 3.855 -10.6 7.03 -16.81 7.02 c -3.449 -0.005 -6.345 -1.086 -8.578 -3.02 l 11.573 10 c 2.259 1.927 4.822 3.039 8.64 3.034 c 6.402 -0.009 13.747 -3.55 20.581 -10.592" transform="matrix(0.136 0.03494 -0.04996 0.12322 4.685 -6.421)"/><path d="m 126.5 109.58 c 3.359 -1.927 6.872 -3.01 10.323 -3.01 l -17.302 9.994 c -3.451 0.005 -6.964 1.086 -10.323 3.01" transform="matrix(-0.136 -0.03494 -0.12757 0.10328 49.967 4.174)"/><path d="m 135.49 90.34 c -15.831 -0.012 -34.9 17.823 -42.578 39.846 c -5.57 15.877 -3.674 29.637 3.783 36.02 l 11.61 10.02 c -7.442 -6.417 -9.327 -20.15 -3.767 -36.05 c 7.689 -21.994 26.758 -39.829 42.589 -39.817 c 4.417 -0.016 8.091 1.383 10.957 3.867 l -11.61 -10.02 c -2.881 -2.448 -6.555 -3.847 -10.983 -3.86" transform="matrix(0.136 0.03494 -0.04996 0.12322 4.685 -6.421)"/><path d="m 138.75 97.99 c 15.838 -0.012 24.729 17.823 19.84 39.846 c -3.49 15.877 -13.211 29.609 -24.337 36.02 l -17.329 10.02 c 11.1 -6.417 20.825 -20.15 24.342 -36.05 c 4.862 -21.994 -4.03 -39.829 -19.84 -39.846 c -4.435 0.012 -8.907 1.412 -13.191 3.896 l 17.329 -10.02 c 4.278 -2.448 8.777 -3.876 13.185 -3.86" transform="matrix(-0.136 -0.03494 -0.12757 0.10328 49.967 4.174)"/><path d="m 158.8 171.07 c -2.987 -0.918 -4.835 -1.541 -7.518 -2.411 c -2.804 5.677 -8.22 10.497 -14.438 10.483 c -12.43 0.008 -25.622 -14.02 -29.448 -31.3 c -3.848 -17.269 3.163 -31.29 15.599 -31.26 c 12.43 -0.008 26.01 16.579 29.834 33.856 c 2.615 1.838 4.139 2.912 7.159 5.03 c -2.771 -26.26 -23.06 -47.46 -38.898 -47.47 c -15.838 -0.012 -24.751 17.831 -19.862 39.854 c 4.862 21.994 21.684 39.866 37.522 39.878 c 7.93 0.002 17.513 -8.46 20.05 -16.656" transform="matrix(0.136 0.03494 -0.12757 0.10328 16.994 -4.299)"/><g fill="#333"><g transform="matrix(-0.136 -0.03494 -0.13188 0.10217 63.12 8.251)"><path d="m 165.64 154.82 c -2.92 1.678 -5.579 5.28 -6.77 9.499 l -8.66 4.991 c 1.162 -4.19 3.872 -7.813 6.77 -9.499"/><path d="m 158.87 164.32 c -1.602 5.799 0.322 10.509 4.294 10.53 l -8.66 4.991 c -4 0.008 -5.896 -4.731 -4.294 -10.53"/><path d="m 163.14 174.84 c 1.12 0.001 2.259 -0.374 3.349 -0.995 l -8.638 4.998 c -1.118 0.65 -2.251 0.989 -3.349 0.995"/><path d="m 167.77 158.19 c 2.332 -0.005 3.453 2.749 2.499 6.131 l -8.66 4.991 c 0.953 -3.382 -0.168 -6.136 -2.478 -6.124"/><path d="m 170.27 164.32 c -0.676 2.445 -2.252 4.544 -3.955 5.529 l -8.638 4.998 c 1.702 -0.985 3.257 -3.092 3.933 -5.537"/></g><path d="m 191.24 151.99 c 1.287 0.985 1.994 3.113 1.64 5.558 c -0.497 3.39 -2.778 6.144 -5.107 6.138 c -0.637 -0.01 -1.181 -0.215 -1.679 -0.601 l 6.532 4.998 c 0.499 0.386 1.082 0.612 1.704 0.593 c 2.33 0.005 4.627 -2.72 5.123 -6.11 c 0.354 -2.445 -0.353 -4.573 -1.64 -5.558" transform="matrix(0.136 0.03494 -0.07457 0.1169 4.96 -5.774)"/><path d="m 165.82 158.78 c 0.661 -0.386 1.313 -0.583 1.954 -0.593 l -8.638 4.998 c -0.663 0.003 -1.315 0.2 -1.976 0.586" transform="matrix(-0.136 -0.03494 -0.13188 0.10217 63.12 8.251)"/><path d="m 190.17 147.06 c -3.997 -0.008 -7.906 4.702 -8.722 10.494 c -0.628 4.198 0.57 7.85 2.783 9.527 l 6.557 4.991 c -2.213 -1.678 -3.395 -5.301 -2.783 -9.527 c 0.817 -5.791 4.725 -10.502 8.722 -10.494 c 1.095 0.007 2.101 0.374 2.93 0.995 l -6.557 -4.991 c -0.845 -0.65 -1.835 -0.989 -2.93 -0.995" transform="matrix(0.136 0.03494 -0.07457 0.1169 4.96 -5.774)"/><path d="m 196.71 152.03 c 3.972 0.016 6.514 4.703 5.713 10.523 c -0.842 5.799 -4.75 10.509 -8.731 10.53 c -3.997 -0.008 -6.554 -4.724 -5.728 -10.551 c 0.842 -5.799 4.766 -10.481 8.747 -10.501 m -0.632 4.4 c -2.305 -0.013 -4.586 2.741 -5.058 6.124 c -0.512 3.361 0.974 6.125 3.304 6.13 c 2.314 -0.023 4.611 -2.749 5.083 -6.131 c 0.497 -3.39 -0.999 -6.117 -3.329 -6.123" transform="matrix(0.136 0.03494 -0.07457 0.1169 4.96 -5.774)"/></g></g><path d="m 20.18 19.254 l 3.469 4.051 c 1.039 1.074 1.664 2.781 1.023 3.133 c -0.527 0.27 -2.695 -1.055 -3.375 -2.07 l -3.09 -3.863 c -0.34 -0.641 1.426 -2.051 1.973 -1.25" fill="url(#A)" fill-rule="evenodd"/><g stroke-opacity="0.475" stroke="#fff" stroke-linejoin="round" stroke-linecap="round"><g stroke-width="3.466" transform="matrix(0.06106 0.10332 -0.0999 0.06073 -99.94 -113.03)"><path d="m 1377.69 -339.67 l 28.12 0.019 c 1.474 0.001 2.661 2.291 2.667 5.11 c -0.01 2.848 -1.201 5.131 -2.675 5.13 l -28.13 0.009 c -1.446 0.016 -2.661 -2.291 -2.65 -5.139 c -0.006 -2.819 1.201 -5.131 2.675 -5.13"/><path d="m 1404.71 -338.05 l 1.094 0.004 c 1.474 0.001 2.674 1.947 2.672 4.331 c -0.002 2.384 -1.208 4.306 -2.681 4.305 l -1.094 -0.004 c -1.474 -0.001 -2.646 -1.93 -2.644 -4.314 c -0.026 -2.401 1.18 -4.323 2.653 -4.322"/></g><g stroke-width="2.31" transform="matrix(0.06106 0.10332 -0.0999 0.06073 -108.42 -107.54)"><path d="m 1377.68 -339.64 l 28.13 -0.009 c 1.474 0.001 2.661 2.291 2.65 5.139 c 0.006 2.819 -1.184 5.102 -2.658 5.101 l -28.13 0.009 c -1.474 -0.001 -2.661 -2.291 -2.65 -5.139 c -0.006 -2.819 1.184 -5.102 2.658 -5.101"/><path d="m 1404.7 -338.02 l 1.111 -0.025 c 1.474 0.001 2.646 1.93 2.644 4.314 l 0.028 0.017 c -0.002 2.384 -1.208 4.306 -2.681 4.305 l -1.111 0.025 c -1.474 -0.001 -2.646 -1.93 -2.672 -4.331 c 0.002 -2.384 1.208 -4.306 2.681 -4.305"/></g></g><g fill-rule="evenodd"><path d="m 19.703 11.652 l 1.316 1.977 c 0.398 0.531 0.594 1.32 0.305 1.441 c -0.238 0.094 -1.109 -0.609 -1.359 -1.094 l -1.16 -1.875 c -0.117 -0.301 0.699 -0.832 0.898 -0.449" fill="url(#B)"/><path d="m 15.281 16.82 l 1.449 1.879 c 0.434 0.504 0.684 1.277 0.402 1.418 c -0.23 0.109 -1.152 -0.531 -1.434 -0.996 l -1.285 -1.793 c -0.141 -0.289 0.641 -0.879 0.867 -0.508" fill="url(#C)"/><path d="m 11.172 17.09 l 1.316 1.977 c 0.398 0.531 0.594 1.32 0.305 1.441 c -0.238 0.094 -1.113 -0.609 -1.359 -1.094 l -1.16 -1.875 c -0.121 -0.301 0.699 -0.836 0.898 -0.449" fill="url(#D)"/><path d="m 16.984 19.543 l 1.316 1.977 c 0.398 0.531 0.594 1.32 0.301 1.441 c -0.234 0.094 -1.109 -0.609 -1.359 -1.094 l -1.16 -1.875 c -0.117 -0.301 0.703 -0.832 0.902 -0.449" fill="url(#E)"/></g><g fill-opacity="0.702"><path d="m 18.02 8.605 c -0.137 -0.051 -0.363 -0.008 -0.574 0.121 c -0.199 0.121 -0.328 0.281 -0.363 0.422 c 0.066 -0.082 0.152 -0.164 0.262 -0.23 c 0.215 -0.129 0.441 -0.168 0.574 -0.117 c 0.047 0.016 0.082 0.043 0.102 0.082 l 0.441 0.746 c 0.016 0.004 0.027 0.008 0.043 0.012 c 0.598 0.152 1.031 0.453 1.297 0.859 l 0.055 0.082 l 1.027 1.555 c 0.477 0.723 0.418 1.777 -0.164 2.941 c 0.676 -1.242 0.766 -2.375 0.266 -3.133 l -1.027 -1.555 l -0.059 -0.082 c -0.266 -0.406 -0.699 -0.707 -1.297 -0.863 c -0.012 -0.004 -0.027 -0.004 -0.039 -0.008 l -0.441 -0.746 c -0.023 -0.039 -0.059 -0.066 -0.102 -0.086 m -1.043 0.773 c -0.82 0.102 -1.711 0.379 -2.594 0.801 c -1.605 -1.598 -3.414 -2.594 -5.215 -2.477 c -0.027 0.063 -0.051 0.125 -0.074 0.191 c 1.789 -0.105 3.59 0.887 5.191 2.477 c 0.934 -0.449 1.879 -0.734 2.738 -0.82 l -0.027 -0.043 c -0.02 -0.035 -0.027 -0.082 -0.02 -0.129 m 3.141 2.094 c -0.16 -0.082 -0.336 -0.148 -0.531 -0.199 c -0.055 -0.012 -0.113 -0.023 -0.172 -0.035 c 0.059 0.012 0.117 0.027 0.172 0.043 c 0.195 0.047 0.375 0.117 0.535 0.203 c 0 -0.004 0 -0.008 -0.004 -0.012 m -1.547 2.023 c -0.211 0.391 -0.492 0.797 -0.848 1.195 c 0.008 0.016 0.016 0.031 0.023 0.047 c 0.352 -0.418 0.629 -0.836 0.824 -1.242 m -2.289 -1.035 c -0.063 0.023 -0.125 0.047 -0.188 0.07 c 1.238 1.742 2.258 3.785 2.926 5.789 c 0.27 -0.09 0.531 -0.121 0.738 -0.066 c 0.152 0.039 0.258 0.117 0.324 0.219 l 0.035 0.055 c -0.008 -0.02 -0.02 -0.039 -0.027 -0.055 l 0.516 0.813 c 0.023 0.035 0.039 0.07 0.055 0.113 c 0 0 0 0.004 0 0.008 c 0.008 0.016 0.008 0.035 0.012 0.051 c 0.004 0.012 0.004 0.023 0.004 0.035 c 0.02 0.121 0 0.254 -0.047 0.402 c -0.012 0.035 -0.027 0.07 -0.043 0.105 c 0.023 -0.043 0.047 -0.086 0.07 -0.129 c 0.027 -0.059 0.051 -0.113 0.07 -0.168 c 0.051 -0.148 0.066 -0.285 0.051 -0.402 c -0.004 -0.012 -0.004 -0.023 -0.004 -0.035 c -0.004 -0.02 -0.008 -0.035 -0.012 -0.051 c -0.004 -0.004 -0.004 -0.008 -0.004 -0.012 c -0.012 -0.039 -0.031 -0.074 -0.055 -0.109 l -0.516 -0.813 c 0.012 0.016 0.02 0.035 0.031 0.051 l -0.035 -0.051 c -0.066 -0.105 -0.176 -0.18 -0.324 -0.219 c -0.211 -0.055 -0.469 -0.027 -0.742 0.066 c -0.07 -0.215 -0.148 -0.434 -0.23 -0.648 c -0.02 0.02 -0.043 0.039 -0.063 0.063 c -0.141 -0.324 -0.211 -0.492 -0.332 -0.773 c 0.004 -0.004 0.004 -0.004 0.004 -0.004 c -0.27 -0.684 -0.527 -1.184 -0.871 -1.879 c 0.023 -0.031 0.047 -0.059 0.07 -0.086 c -0.426 -0.816 -0.898 -1.602 -1.414 -2.34 m -5.871 0.906 c -0.258 0.344 -0.477 0.68 -0.652 1.012 l -0.117 -0.203 c -0.09 -0.152 -0.391 -0.133 -0.676 0.039 c -0.199 0.121 -0.336 0.285 -0.367 0.426 c 0.066 -0.082 0.156 -0.164 0.27 -0.234 c 0.285 -0.172 0.582 -0.188 0.672 -0.035 l 0.121 0.199 c 0.203 -0.383 0.457 -0.773 0.773 -1.172 c -0.008 -0.008 -0.016 -0.02 -0.023 -0.031 m 3.695 3.785 c -0.707 0.277 -1.668 0.391 -2.438 0.191 c -0.063 -0.016 -0.121 -0.031 -0.18 -0.051 c 0.016 -0.367 0.129 -0.77 0.332 -1.195 c -0.266 0.492 -0.41 0.965 -0.434 1.387 c 0.059 0.02 0.121 0.035 0.184 0.051 c 0.844 0.219 1.918 0.063 2.637 -0.277 c 0.016 0.012 0.031 0.023 0.047 0.039 c 0 -0.008 0 -0.016 -0.004 -0.023 c -0.047 -0.043 -0.098 -0.082 -0.145 -0.121 m 2.578 1.918 l 0.332 0.559 c 0.031 0.047 0.031 0.105 0.016 0.164 c 0.102 -0.129 0.141 -0.266 0.086 -0.359 l -0.082 -0.133 c -0.117 -0.074 -0.234 -0.152 -0.352 -0.23 m -6.477 -1.215 c -0.012 0.129 -0.016 0.254 -0.008 0.375 c 0 0.02 0 0.039 0.004 0.059 c 0 0 0.004 0.004 0.004 0.004 c -0.008 -0.137 -0.008 -0.285 0.008 -0.43" fill="#fff"/><path d="m 17.18 8.957 c -0.059 0.078 -0.098 0.156 -0.105 0.23 c 0.047 -0.008 0.098 -0.016 0.148 -0.02 l -0.027 -0.047 c -0.027 -0.043 -0.031 -0.102 -0.016 -0.164 m 3.137 2.133 c -0.16 -0.082 -0.336 -0.148 -0.535 -0.199 c -0.055 -0.016 -0.113 -0.023 -0.172 -0.035 c 0.063 0.012 0.117 0.023 0.176 0.039 c 0.195 0.051 0.371 0.117 0.531 0.207 c 0 -0.004 0 -0.008 0 -0.012 m -1.535 0.715 c -0.023 -0.004 -0.051 -0.004 -0.074 -0.008 c -0.027 -0.004 -0.055 -0.012 -0.086 -0.016 c 0 0 0 0 -0.004 0 c -0.223 -0.027 -0.465 -0.031 -0.715 -0.012 c -0.125 0.008 -0.254 0.02 -0.387 0.039 c -0.129 0.02 -0.258 0.047 -0.391 0.078 c -0.203 0.047 -0.406 0.109 -0.613 0.176 c -0.074 0.027 -0.145 0.055 -0.219 0.082 c 0.027 0.043 0.059 0.082 0.086 0.125 c 0.012 -0.004 0.023 -0.008 0.035 -0.012 c 0.203 -0.07 0.41 -0.133 0.609 -0.176 c 0.133 -0.031 0.266 -0.059 0.395 -0.082 c 0.133 -0.02 0.258 -0.031 0.387 -0.039 c 0.25 -0.02 0.488 -0.016 0.715 0.012 c 0 0 0.004 0 0.004 0 c 0.027 0.004 0.055 0.012 0.082 0.016 c 0.027 0.004 0.051 0.004 0.078 0.008 l 0.059 0.105 c 0 0 0 0.004 0.004 0.004 l 0.066 0.113 c 0.008 0.016 0.016 0.027 0.027 0.039 c 0.039 0.039 0.09 0.066 0.148 0.074 c -0.051 0.305 -0.156 0.637 -0.32 0.973 c 0.219 -0.406 0.359 -0.801 0.418 -1.164 c -0.059 -0.012 -0.109 -0.035 -0.145 -0.074 c -0.012 -0.012 -0.023 -0.027 -0.031 -0.039 l -0.066 -0.113 c 0 -0.004 0 -0.004 0 -0.008 m -9.656 -4.203 c -0.004 0 -0.012 0 -0.02 0 c -0.719 1.629 -0.063 3.559 1.34 5.473 c 0.043 -0.051 0.078 -0.109 0.121 -0.16 c -1.363 -1.852 -2.031 -3.715 -1.441 -5.313 m 11.629 7.18 c -0.148 0.273 -0.32 0.547 -0.527 0.824 c -0.336 0.48 -0.758 0.965 -1.27 1.449 c -0.141 -0.324 -0.211 -0.492 -0.328 -0.773 c 0 0 0 0 0 -0.004 c -0.262 -0.664 -0.516 -1.16 -0.848 -1.832 c -0.016 0.02 -0.035 0.039 -0.051 0.063 c 0.457 0.871 0.859 1.773 1.191 2.68 c 0.484 -0.465 0.883 -0.934 1.207 -1.387 c 0.254 -0.344 0.461 -0.688 0.625 -1.02 m -8.398 0.18 c -0.207 0.285 -0.375 0.57 -0.504 0.844 c 0.113 -0.215 0.246 -0.434 0.402 -0.652 c 0.586 0.586 1.219 1.156 1.887 1.707 c 0.066 -0.027 0.133 -0.059 0.199 -0.09 c 0.016 0.016 0.031 0.027 0.047 0.043 c 0 -0.008 0 -0.02 -0.004 -0.027 c -0.719 -0.586 -1.402 -1.199 -2.027 -1.824 m 8.262 4.746 c -0.055 0.098 -0.125 0.199 -0.211 0.301 c -0.168 0.203 -0.375 0.383 -0.59 0.531 c -0.043 0.027 -0.086 0.055 -0.129 0.082 c -0.133 0.078 -0.27 0.148 -0.402 0.203 c -0.047 0.02 -0.086 0.031 -0.133 0.047 c -0.086 0.031 -0.172 0.055 -0.258 0.066 c -0.082 0.016 -0.164 0.023 -0.242 0.023 c -0.078 -0.004 -0.152 -0.008 -0.219 -0.027 c -0.035 -0.008 -0.063 -0.02 -0.094 -0.031 c -0.035 -0.016 -0.066 -0.035 -0.098 -0.055 c -0.02 -0.016 -0.035 -0.027 -0.055 -0.043 c 0 -0.004 -0.004 -0.004 -0.008 -0.008 c -0.012 -0.012 -0.023 -0.023 -0.031 -0.035 c -0.008 -0.012 -0.016 -0.023 -0.023 -0.031 c -0.004 -0.008 -0.008 -0.008 -0.012 -0.016 l -0.52 -0.813 c -0.121 -0.191 -0.105 -0.473 0.047 -0.781 c -0.277 -0.176 -0.551 -0.355 -0.824 -0.539 l 0.254 0.426 c 0.156 0.105 0.313 0.203 0.469 0.305 c -0.148 0.309 -0.168 0.59 -0.047 0.781 l 0.52 0.813 c 0.004 0.008 0.012 0.012 0.016 0.016 c 0.004 0.012 0.012 0.02 0.02 0.031 c 0.012 0.012 0.023 0.023 0.035 0.035 c 0.004 0.004 0.004 0.008 0.008 0.008 c 0.016 0.016 0.035 0.031 0.055 0.043 c 0.027 0.02 0.063 0.039 0.098 0.055 c 0.027 0.012 0.059 0.023 0.094 0.031 c 0.066 0.02 0.141 0.027 0.219 0.027 c 0.074 0 0.156 -0.008 0.242 -0.02 c 0.082 -0.016 0.168 -0.039 0.258 -0.07 c 0.043 -0.012 0.086 -0.027 0.133 -0.047 c 0.133 -0.055 0.266 -0.121 0.398 -0.203 c 0.047 -0.027 0.086 -0.051 0.129 -0.082 c 0.219 -0.148 0.422 -0.328 0.594 -0.531 c 0.125 -0.148 0.215 -0.289 0.281 -0.43 c 0.012 -0.02 0.02 -0.043 0.027 -0.063 m -11.984 -5.359 c -0.102 0.129 -0.137 0.262 -0.082 0.352 l 0.625 1.066 c -0.086 0.609 0.016 1.145 0.293 1.57 h 0.004 l 1.078 1.637 c 0.117 0.18 0.266 0.332 0.445 0.465 c 0.004 0.004 0.004 0.008 0.008 0.008 c 0.039 0.031 0.082 0.059 0.129 0.086 c 0.004 0.004 0.008 0.008 0.016 0.012 c 0.039 0.027 0.082 0.051 0.129 0.074 c 0.039 0.02 0.078 0.035 0.121 0.055 c 0.012 0.004 0.023 0.012 0.035 0.02 c 0.004 0 0.012 0.004 0.02 0.004 c 0.008 0.004 0.016 0.012 0.023 0.012 c 0.012 0.008 0.023 0.012 0.039 0.016 c 0.047 0.02 0.094 0.035 0.145 0.055 c 0.043 0.012 0.086 0.023 0.133 0.035 c 0.02 0.008 0.035 0.016 0.059 0.02 c 0.836 0.215 2.445 -0.059 3.777 -0.543 l 0.328 0.551 c 0 0 0 0.004 0 0.004 l 0.07 0.117 c 0.012 0.016 0.023 0.035 0.043 0.047 c 0.113 0.102 0.34 0.09 0.551 -0.035 c 0.012 -0.008 0.023 -0.02 0.035 -0.027 c 0.016 -0.008 0.031 -0.012 0.047 -0.023 c 0.195 -0.117 0.328 -0.281 0.359 -0.422 c -0.063 0.082 -0.152 0.164 -0.262 0.23 c -0.016 0.008 -0.031 0.016 -0.047 0.023 c -0.012 0.008 -0.023 0.016 -0.035 0.027 c -0.207 0.125 -0.438 0.137 -0.551 0.035 c -0.016 -0.016 -0.031 -0.031 -0.043 -0.051 l -0.07 -0.113 c 0 -0.004 0 -0.004 0 -0.004 l -0.324 -0.551 c -1.332 0.48 -2.945 0.758 -3.777 0.543 c 0 0 -0.004 0 -0.004 0 c -0.02 -0.008 -0.039 -0.016 -0.059 -0.02 c -0.047 -0.012 -0.09 -0.023 -0.133 -0.039 c -0.051 -0.016 -0.098 -0.031 -0.145 -0.051 c -0.012 -0.004 -0.027 -0.012 -0.039 -0.016 c -0.008 -0.004 -0.016 -0.008 -0.023 -0.012 c -0.004 -0.004 -0.012 -0.004 -0.02 -0.008 c -0.012 -0.004 -0.023 -0.012 -0.035 -0.016 c -0.039 -0.02 -0.082 -0.035 -0.121 -0.055 c -0.043 -0.023 -0.086 -0.051 -0.129 -0.074 c -0.004 -0.004 -0.012 -0.008 -0.016 -0.012 c -0.043 -0.027 -0.086 -0.055 -0.129 -0.086 c -0.004 -0.004 -0.004 -0.004 -0.008 -0.008 c -0.18 -0.133 -0.328 -0.289 -0.445 -0.465 l -1.078 -1.637 h -0.004 c -0.277 -0.426 -0.375 -0.965 -0.289 -1.574 l -0.629 -1.063 c -0.027 -0.043 -0.031 -0.102 -0.016 -0.16 m 1.707 3.02 c -0.012 0.129 -0.016 0.25 -0.008 0.375 c 0 0.02 0 0.039 0.004 0.059 c 0 0 0.004 0 0.004 0 c -0.008 -0.137 -0.008 -0.281 0.004 -0.43"/></g><path d="m 17.08 9.141 c -0.059 0.078 -0.098 0.156 -0.105 0.23 c 0.051 -0.008 0.098 -0.016 0.148 -0.02 l -0.027 -0.047 c -0.027 -0.047 -0.031 -0.105 -0.016 -0.164 m 3.137 2.129 c -0.16 -0.078 -0.336 -0.145 -0.535 -0.195 c -0.055 -0.016 -0.113 -0.023 -0.172 -0.035 c 0.063 0.012 0.117 0.023 0.176 0.039 c 0.195 0.051 0.371 0.117 0.531 0.203 c 0 -0.004 0 -0.008 0 -0.012 m -1.535 0.719 c -0.023 -0.004 -0.051 -0.004 -0.074 -0.008 c -0.027 -0.008 -0.055 -0.016 -0.086 -0.02 c 0 0 0 0.004 -0.004 0.004 c -0.223 -0.031 -0.465 -0.031 -0.715 -0.016 c -0.125 0.012 -0.254 0.023 -0.387 0.043 c -0.129 0.02 -0.258 0.047 -0.391 0.078 c -0.203 0.047 -0.406 0.105 -0.613 0.176 c -0.074 0.027 -0.145 0.055 -0.219 0.082 c 0.027 0.039 0.059 0.082 0.086 0.125 c 0.012 -0.004 0.023 -0.012 0.035 -0.016 c 0.203 -0.066 0.41 -0.129 0.609 -0.176 c 0.133 -0.031 0.266 -0.059 0.395 -0.078 c 0.133 -0.02 0.262 -0.031 0.387 -0.039 c 0.25 -0.02 0.488 -0.016 0.715 0.012 c 0 0 0.004 0 0.004 0 c 0.027 0.004 0.055 0.012 0.082 0.016 c 0.027 0.004 0.051 0.004 0.078 0.008 l 0.059 0.102 c 0 0.004 0 0.004 0.004 0.008 l 0.066 0.113 c 0.008 0.012 0.016 0.027 0.027 0.039 c 0.039 0.035 0.09 0.063 0.148 0.074 c -0.051 0.305 -0.156 0.633 -0.32 0.973 c 0.219 -0.406 0.359 -0.801 0.418 -1.164 c -0.059 -0.012 -0.109 -0.039 -0.145 -0.078 c -0.012 -0.008 -0.023 -0.023 -0.031 -0.035 l -0.066 -0.117 c 0 0 0 0 0 -0.004 m -9.652 -4.203 c -0.008 0 -0.016 -0.004 -0.023 -0.004 c -0.719 1.633 -0.063 3.559 1.34 5.477 c 0.043 -0.055 0.078 -0.109 0.121 -0.164 c -1.363 -1.852 -2.031 -3.711 -1.441 -5.309 m 11.629 7.18 c -0.148 0.27 -0.32 0.547 -0.527 0.824 c -0.336 0.477 -0.758 0.965 -1.27 1.449 c -0.141 -0.324 -0.211 -0.492 -0.328 -0.773 c 0 0 0 -0.004 0 -0.004 c -0.262 -0.664 -0.516 -1.16 -0.848 -1.832 c -0.016 0.02 -0.035 0.039 -0.051 0.059 c 0.457 0.875 0.859 1.777 1.191 2.68 c 0.484 -0.461 0.887 -0.93 1.207 -1.387 c 0.254 -0.344 0.461 -0.684 0.625 -1.016 m -8.398 0.18 c -0.207 0.285 -0.375 0.57 -0.504 0.844 c 0.113 -0.215 0.246 -0.434 0.402 -0.652 c 0.586 0.582 1.219 1.156 1.887 1.703 c 0.066 -0.027 0.137 -0.055 0.199 -0.086 c 0.016 0.012 0.031 0.027 0.047 0.039 c 0 -0.008 0 -0.016 -0.004 -0.023 c -0.719 -0.586 -1.402 -1.199 -2.027 -1.824 m 8.262 4.746 c -0.055 0.098 -0.125 0.199 -0.211 0.297 c -0.168 0.203 -0.375 0.387 -0.59 0.531 c -0.043 0.031 -0.086 0.059 -0.129 0.082 c -0.133 0.082 -0.27 0.152 -0.402 0.207 c -0.043 0.016 -0.086 0.031 -0.133 0.047 c -0.086 0.027 -0.172 0.051 -0.258 0.066 c -0.082 0.016 -0.164 0.02 -0.242 0.02 c -0.078 0 -0.152 -0.008 -0.219 -0.023 c -0.035 -0.008 -0.063 -0.02 -0.094 -0.035 c -0.035 -0.012 -0.066 -0.031 -0.098 -0.051 c -0.02 -0.016 -0.035 -0.027 -0.055 -0.043 c 0 -0.004 -0.004 -0.008 -0.008 -0.008 c -0.012 -0.012 -0.023 -0.023 -0.031 -0.039 c -0.008 -0.008 -0.016 -0.02 -0.023 -0.031 c -0.004 -0.004 -0.008 -0.008 -0.012 -0.012 l -0.52 -0.816 c -0.121 -0.188 -0.105 -0.469 0.047 -0.781 c -0.277 -0.172 -0.551 -0.352 -0.824 -0.535 l 0.254 0.426 c 0.156 0.102 0.313 0.203 0.469 0.305 c -0.148 0.309 -0.168 0.59 -0.047 0.781 l 0.52 0.813 c 0.004 0.008 0.012 0.008 0.016 0.016 c 0.004 0.008 0.012 0.02 0.02 0.031 c 0.012 0.012 0.023 0.023 0.035 0.035 c 0.004 0.004 0.004 0.004 0.008 0.008 c 0.016 0.016 0.035 0.027 0.055 0.043 c 0.027 0.02 0.063 0.039 0.098 0.055 c 0.027 0.012 0.059 0.023 0.094 0.031 c 0.066 0.02 0.141 0.023 0.219 0.027 c 0.074 0 0.156 -0.008 0.242 -0.023 c 0.082 -0.012 0.168 -0.039 0.258 -0.066 c 0.043 -0.016 0.086 -0.031 0.133 -0.047 c 0.133 -0.055 0.266 -0.125 0.398 -0.203 c 0.047 -0.027 0.086 -0.055 0.129 -0.082 c 0.219 -0.148 0.422 -0.328 0.594 -0.531 c 0.125 -0.148 0.215 -0.293 0.281 -0.43 c 0.012 -0.023 0.02 -0.043 0.027 -0.063 m -11.984 -5.359 c -0.102 0.129 -0.137 0.262 -0.082 0.352 l 0.629 1.063 c -0.09 0.609 0.012 1.148 0.289 1.574 h 0.004 l 1.078 1.637 c 0.117 0.176 0.266 0.332 0.445 0.465 c 0.004 0.004 0.004 0.004 0.008 0.008 c 0.039 0.031 0.082 0.059 0.129 0.086 c 0.004 0.004 0.008 0.008 0.016 0.012 c 0.039 0.023 0.082 0.051 0.129 0.074 c 0.039 0.02 0.078 0.035 0.121 0.055 c 0.012 0.004 0.023 0.012 0.035 0.016 c 0.004 0.004 0.012 0.004 0.02 0.008 c 0.008 0.004 0.016 0.008 0.023 0.012 c 0.012 0.004 0.023 0.012 0.039 0.016 c 0.047 0.02 0.094 0.035 0.145 0.051 c 0.043 0.016 0.086 0.027 0.133 0.039 c 0.02 0.004 0.039 0.012 0.059 0.02 c 0.836 0.215 2.445 -0.059 3.777 -0.543 l 0.328 0.551 c 0 0 0 0 0 0.004 l 0.07 0.113 c 0.012 0.02 0.023 0.035 0.043 0.051 c 0.113 0.102 0.34 0.09 0.551 -0.035 c 0.012 -0.008 0.023 -0.02 0.035 -0.027 c 0.016 -0.008 0.031 -0.016 0.047 -0.023 c 0.195 -0.121 0.328 -0.281 0.359 -0.422 c -0.063 0.082 -0.152 0.164 -0.262 0.23 c -0.016 0.008 -0.031 0.012 -0.047 0.02 c -0.012 0.012 -0.023 0.02 -0.035 0.027 c -0.207 0.129 -0.438 0.137 -0.551 0.039 c -0.016 -0.016 -0.031 -0.031 -0.043 -0.051 l -0.07 -0.117 c 0 0 0 0 0 -0.004 l -0.324 -0.551 c -1.332 0.484 -2.945 0.762 -3.777 0.547 c 0 0 -0.004 0 -0.004 0 c -0.02 -0.008 -0.039 -0.016 -0.059 -0.02 c -0.043 -0.012 -0.09 -0.023 -0.133 -0.039 c -0.051 -0.016 -0.098 -0.031 -0.145 -0.051 c -0.012 -0.004 -0.023 -0.012 -0.039 -0.016 c -0.008 -0.004 -0.016 -0.008 -0.023 -0.012 c -0.004 -0.004 -0.012 -0.004 -0.02 -0.008 c -0.012 -0.004 -0.023 -0.012 -0.035 -0.02 c -0.039 -0.016 -0.082 -0.031 -0.121 -0.051 c -0.043 -0.023 -0.086 -0.051 -0.129 -0.074 c -0.004 -0.004 -0.012 -0.012 -0.016 -0.016 c -0.043 -0.027 -0.086 -0.055 -0.129 -0.082 c -0.004 -0.004 -0.004 -0.008 -0.008 -0.008 c -0.18 -0.133 -0.328 -0.289 -0.445 -0.465 l -1.078 -1.637 l -0.004 -0.004 c -0.277 -0.422 -0.375 -0.961 -0.289 -1.57 l -0.629 -1.063 c -0.027 -0.047 -0.031 -0.102 -0.016 -0.16 m 1.707 3.02 c -0.012 0.129 -0.016 0.254 -0.008 0.375 c 0 0.02 0 0.039 0.004 0.059 c 0 0.004 0.004 0.004 0.004 0.004 c -0.008 -0.137 -0.008 -0.281 0.004 -0.43" fill-opacity="0.302"/><g fill-rule="evenodd"><path d="m 14.652 13.453 l 1.449 1.883 c 0.438 0.5 0.688 1.273 0.406 1.418 c -0.23 0.105 -1.152 -0.531 -1.434 -1 l -1.289 -1.789 c -0.137 -0.293 0.641 -0.883 0.867 -0.512" fill="url(#F)"/><path d="m 10.348 10.05 l -1.527 -1.82 c -0.457 -0.48 -0.738 -1.246 -0.465 -1.398 c 0.227 -0.117 1.172 0.48 1.473 0.938 l 1.363 1.73 c 0.152 0.289 -0.602 0.906 -0.844 0.551" fill="url(#G)"/><path d="m 18.12 8.895 l 1.449 1.883 c 0.434 0.5 0.684 1.273 0.402 1.418 c -0.23 0.105 -1.148 -0.531 -1.434 -1 l -1.285 -1.789 c -0.141 -0.293 0.641 -0.879 0.867 -0.512" fill="url(#H)"/><path d="m 9.598 14.219 l 1.449 1.883 c 0.434 0.5 0.684 1.273 0.402 1.418 c -0.23 0.109 -1.152 -0.531 -1.434 -1 l -1.285 -1.789 c -0.141 -0.293 0.641 -0.879 0.867 -0.512" fill="url(#I)"/></g></svg>