<svg xmlns="http://www.w3.org/2000/svg" viewBox="0 0 32 32"><path d="m 6.641 3.03 c -11.02 6.03 -6.738 24.906 2.328 28.1 c 10.801 3.805 31.31 -6.102 19.297 -22.879 c -4.195 -5.652 -10.613 -11.25 -21.625 -5.223" fill="#deb886"/><g fill="#fff" fill-rule="evenodd"><path d="m 10.281 21.813 v -2.539 l -0.316 -0.09 c -0.176 -0.047 -0.32 -0.176 -0.32 -0.285 c 0 -0.105 -0.078 -0.195 -0.176 -0.195 c -0.098 0 -0.211 -0.094 -0.25 -0.211 c -0.137 -0.395 -0.77 -0.25 -1.266 0.289 l -0.465 0.5 v -0.422 c 0 -0.23 0.055 -0.461 0.125 -0.508 c 0.07 -0.051 0.129 -0.324 0.129 -0.609 c -0.004 -0.516 -0.082 -0.633 -0.824 -1.238 c -0.242 -0.195 -0.234 -0.199 0.125 -0.113 c 0.211 0.055 0.418 0.156 0.461 0.227 c 0.043 0.074 0.211 0.113 0.379 0.086 c 0.285 -0.043 0.305 -0.113 0.34 -1.105 c 0.039 -1.086 0.281 -1.785 0.281 -0.816 c 0 0.285 0.051 0.551 0.117 0.598 c 0.063 0.043 0.156 0.27 0.199 0.5 c 0.047 0.234 0.152 0.43 0.234 0.438 c 0.777 0.082 1.227 -0.309 1.227 -1.066 v -0.5 h 1.32 c 1.055 0 1.336 -0.043 1.395 -0.215 c 0.047 -0.133 0.242 -0.211 0.551 -0.211 c 0.75 -0.004 0.852 -0.137 0.758 -1.01 c -0.043 -0.418 -0.141 -0.777 -0.211 -0.805 c -0.168 -0.063 -0.168 -0.73 0 -0.73 c 0.07 0 0.129 0.082 0.129 0.176 c 0.004 0.098 0.23 0.43 0.508 0.738 c 0.277 0.309 0.504 0.613 0.504 0.672 c 0 0.063 0.172 0.109 0.383 0.109 c 0.246 0 0.379 -0.07 0.379 -0.203 c 0 -0.109 0.172 -0.336 0.383 -0.504 l 0.379 -0.301 v 0.297 c 0 0.164 -0.09 0.449 -0.199 0.637 c -0.109 0.188 -0.18 0.547 -0.156 0.809 c 0.039 0.449 0.063 0.469 0.633 0.508 c 0.52 0.039 0.602 0.008 0.684 -0.277 l 0.094 -0.324 l 0.102 0.316 c 0.105 0.309 0.148 0.316 2.262 0.316 c 1.922 0 2.172 -0.027 2.289 -0.25 c 0.09 -0.172 0.129 1.305 0.133 4.805 l 0.004 5.05 h -12.32 m 4.316 -2.066 c 0 -0.332 -0.059 -0.477 -0.188 -0.477 c -0.141 0 -0.191 0.156 -0.191 0.559 c 0 0.441 0.039 0.543 0.191 0.48 c 0.117 -0.051 0.188 -0.266 0.188 -0.563 m 2.133 -2.16 c 0.031 -2.41 0.012 -2.715 -0.168 -2.672 c -0.109 0.023 -0.195 0.094 -0.191 0.152 c 0.004 0.059 0.008 1.285 0.008 2.73 c 0 2.035 0.035 2.613 0.156 2.566 c 0.117 -0.043 0.168 -0.758 0.195 -2.777 m 2.16 1.199 c 0.031 -1.391 0.016 -1.512 -0.191 -1.469 c -0.125 0.027 -0.223 0.129 -0.215 0.223 c 0.008 0.098 0.023 0.785 0.031 1.527 c 0.016 1.016 0.059 1.34 0.18 1.297 c 0.109 -0.039 0.168 -0.52 0.195 -1.578 m 2.156 -1.199 c 0.031 -2.41 0.012 -2.715 -0.164 -2.672 c -0.109 0.023 -0.199 0.094 -0.195 0.152 c 0.004 0.059 0.008 1.285 0.008 2.73 c 0 2.035 0.035 2.613 0.16 2.566 c 0.117 -0.043 0.168 -0.758 0.191 -2.777 m -8.734 -1.082 c 0 -1.828 -0.047 -2.887 -0.125 -2.887 c -0.082 0 -0.129 1.086 -0.129 2.977 c 0 1.945 0.043 2.945 0.129 2.887 c 0.078 -0.055 0.125 -1.203 0.125 -2.977 m 2.285 -0.781 c 0 -1.777 -0.027 -2.105 -0.188 -2.105 c -0.164 0 -0.191 0.336 -0.191 2.188 c 0 1.883 0.027 2.172 0.191 2.102 c 0.156 -0.066 0.188 -0.445 0.188 -2.184 m 4.32 -0.762 c 0 -1.102 -0.035 -1.344 -0.191 -1.344 c -0.156 0 -0.191 0.242 -0.191 1.344 c 0 1.098 0.035 1.34 0.191 1.34 c 0.156 0 0.191 -0.242 0.191 -1.34 m -8.789 0.605 c 0.223 -0.25 0.195 -1.336 -0.039 -1.434 c -0.355 -0.152 -0.57 0.063 -0.57 0.57 c 0 0.5 0.184 1.035 0.359 1.035 c 0.055 0 0.164 -0.078 0.25 -0.172 m 6.602 -1.832 c -0.082 -0.262 -0.355 -0.309 -0.355 -0.059 c 0 0.125 0.094 0.227 0.203 0.227 c 0.109 0 0.18 -0.078 0.152 -0.168 m 4.316 0 c -0.078 -0.262 -0.352 -0.309 -0.352 -0.059 c 0 0.125 0.09 0.227 0.199 0.227 c 0.113 0 0.18 -0.078 0.152 -0.168"/><path d="m 9.801 13.281 c -0.047 -0.121 -0.086 -0.406 -0.086 -0.629 c 0 -0.227 -0.051 -0.445 -0.117 -0.484 c -0.063 -0.043 -0.117 -0.176 -0.117 -0.301 c 0 -0.316 -0.293 -0.395 -1.133 -0.301 c -0.504 0.055 -0.73 0.039 -0.73 -0.055 c 0 -0.074 0.105 -0.137 0.234 -0.137 c 0.129 0 0.234 -0.063 0.234 -0.137 c 0 -0.078 0.16 -0.301 0.355 -0.496 c 0.215 -0.215 0.332 -0.434 0.293 -0.543 c -0.039 -0.098 -0.066 -0.398 -0.066 -0.664 c 0 -0.266 -0.047 -0.457 -0.105 -0.418 c -0.113 0.074 -0.242 -0.324 -0.242 -0.754 c 0 -0.148 -0.051 -0.273 -0.105 -0.273 c -0.059 0 -0.129 -0.109 -0.164 -0.242 c -0.035 -0.133 -0.043 -0.246 -0.027 -0.246 c 0.129 0 1.457 1.406 1.457 1.539 c 0 0.172 0.316 0.219 0.633 0.094 c 0.102 -0.043 0.156 -0.117 0.129 -0.168 c -0.066 -0.105 0.934 -1.219 1.094 -1.219 c 0.109 0 -0.102 0.867 -0.234 0.973 c -0.043 0.035 -0.113 0.344 -0.16 0.688 c -0.066 0.504 -0.043 0.656 0.113 0.789 c 0.105 0.09 0.293 0.262 0.414 0.379 c 0.125 0.117 0.305 0.215 0.398 0.215 c 0.098 0 0.176 0.055 0.176 0.121 c 0 0.07 0.289 0.316 0.641 0.551 c 0.352 0.238 0.641 0.449 0.641 0.473 c 0 0.102 -1.129 -0.102 -1.34 -0.242 c -0.129 -0.082 -0.52 -0.172 -0.871 -0.195 l -0.641 -0.039 l -0.102 0.699 c -0.063 0.445 -0.156 0.699 -0.254 0.699 c -0.086 0 -0.172 0.125 -0.191 0.273 c -0.035 0.246 -0.047 0.254 -0.125 0.051"/><path d="m 15.355 11.953 c -0.047 -0.148 -0.168 -0.391 -0.27 -0.531 c -0.105 -0.145 -0.266 -0.383 -0.363 -0.531 c -0.469 -0.723 -0.383 -0.691 -1.066 -0.395 c -0.836 0.363 -0.875 0.344 -0.395 -0.16 c 0.227 -0.234 0.414 -0.551 0.414 -0.699 c 0 -0.301 -0.527 -1.18 -0.703 -1.18 c -0.063 0 -0.113 -0.086 -0.113 -0.184 c 0 -0.277 0.18 -0.223 0.602 0.184 c 0.391 0.371 0.887 0.48 0.961 0.211 c 0.023 -0.082 0.102 -0.383 0.176 -0.668 c 0.137 -0.535 0.418 -0.75 0.293 -0.227 c -0.043 0.18 0.023 0.52 0.168 0.859 l 0.238 0.566 l 1.082 -0.023 c 1.285 -0.027 1.539 0.156 0.383 0.277 c -0.445 0.043 -0.832 0.141 -0.852 0.211 c -0.023 0.07 -0.195 0.129 -0.383 0.129 c -0.336 0 -0.34 0.004 -0.34 0.727 c 0 0.5 0.074 0.863 0.234 1.16 c 0.262 0.492 0.277 0.547 0.125 0.547 c -0.063 0 -0.148 -0.121 -0.191 -0.273"/><path d="m 17.867 13.703 c 0 -0.18 0.086 -0.305 0.23 -0.344 c 0.164 -0.047 0.234 -0.168 0.234 -0.41 c 0 -0.188 0.051 -0.375 0.117 -0.418 c 0.063 -0.043 0.117 -0.168 0.117 -0.281 c 0 -0.113 0.078 -0.363 0.176 -0.555 c 0.262 -0.523 0.227 -0.613 -0.469 -1.16 c -0.352 -0.277 -0.641 -0.555 -0.641 -0.613 c 0 -0.063 -0.09 -0.133 -0.203 -0.164 c -0.113 -0.027 0.211 -0.023 0.715 0.012 c 0.68 0.047 0.902 0.023 0.84 -0.078 c -0.055 -0.094 0.02 -0.141 0.215 -0.141 c 0.188 0 0.297 -0.07 0.297 -0.184 c 0 -0.102 0.105 -0.293 0.234 -0.426 c 0.125 -0.133 0.23 -0.324 0.23 -0.422 c 0 -0.102 0.105 -0.359 0.234 -0.578 l 0.23 -0.398 l 0.004 0.484 c 0 0.27 0.035 0.777 0.074 1.125 l 0.074 0.641 h 1.031 c 0.609 0 1.031 0.051 1.031 0.121 c 0 0.066 -0.047 0.121 -0.105 0.121 c -0.059 0 -0.32 0.188 -0.582 0.418 c -0.262 0.227 -0.531 0.434 -0.602 0.457 c -0.203 0.07 -0.156 1.16 0.055 1.387 c 0.102 0.105 0.188 0.297 0.188 0.426 c 0 0.129 0.039 0.234 0.086 0.234 c 0.121 0.004 0.391 0.637 0.309 0.723 c -0.035 0.035 -0.133 -0.027 -0.215 -0.145 c -0.082 -0.117 -0.234 -0.215 -0.34 -0.215 c -0.105 0 -0.191 -0.082 -0.191 -0.188 c 0 -0.105 -0.039 -0.164 -0.09 -0.129 c -0.051 0.031 -0.27 -0.129 -0.484 -0.359 c -0.262 -0.281 -0.496 -0.418 -0.723 -0.418 c -0.352 0 -0.797 0.32 -0.797 0.574 c 0 0.086 -0.066 0.156 -0.141 0.156 c -0.078 0 -0.367 0.23 -0.641 0.512 c -0.457 0.469 -0.5 0.488 -0.5 0.234"/></g></svg>