<svg xmlns="http://www.w3.org/2000/svg" viewBox="0 0 32 32"><path d="m 0.469 19.328 c 2.477 16.48 27.15 16.977 30.879 0.953 c 3.836 -12.973 -10.06 -23.578 -20.453 -19.328 c -6.961 2.01 -12.586 10.227 -10.426 18.371" fill="#ff8c00"/><g fill="#fff" fill-rule="evenodd"><path d="m 14.254 24.457 c 0 -0.07 -0.074 -0.125 -0.168 -0.125 c -0.137 0 -1.66 -1.543 -3.918 -3.961 c -0.457 -0.488 -0.559 -0.754 -0.34 -0.891 c 0.063 -0.039 0.152 -0.297 0.199 -0.574 c 0.051 -0.309 0.152 -0.504 0.262 -0.504 c 0.121 0 0.18 -0.145 0.18 -0.434 c 0 -0.246 0.078 -0.48 0.18 -0.539 c 0.098 -0.055 0.195 -0.297 0.219 -0.539 c 0.039 -0.422 0.066 -0.445 0.57 -0.48 c 0.289 -0.023 0.594 -0.121 0.676 -0.223 c 0.082 -0.098 0.254 -0.18 0.379 -0.18 c 0.371 0 0.625 -0.141 0.625 -0.348 c 0 -0.152 0.035 -0.16 0.18 -0.039 c 0.129 0.105 0.344 0.117 0.727 0.039 c 0.531 -0.105 0.543 -0.121 0.527 -0.59 c -0.008 -0.266 -0.086 -0.523 -0.168 -0.574 c -0.086 -0.055 -0.133 -0.23 -0.105 -0.398 c 0.047 -0.289 0.066 -0.281 0.574 0.238 c 0.289 0.293 0.566 0.535 0.617 0.535 c 0.141 0 1.434 -1.363 1.434 -1.512 c 0 -0.07 0.055 -0.129 0.125 -0.129 c 0.156 0 0.168 0.594 0.016 0.652 c -0.063 0.023 -0.152 0.273 -0.199 0.555 c -0.082 0.512 -0.082 0.516 0.414 0.664 c 0.273 0.082 0.531 0.234 0.57 0.336 c 0.043 0.105 0.16 0.191 0.266 0.191 c 0.109 0 0.195 0.082 0.195 0.184 c 0 0.102 0.156 0.348 0.348 0.551 c 0.188 0.199 0.434 0.473 0.547 0.602 c 0.109 0.133 0.336 0.363 0.504 0.516 c 0.168 0.148 0.375 0.348 0.461 0.441 c 0.086 0.09 0.27 0.273 0.406 0.406 c 0.141 0.133 0.324 0.402 0.414 0.598 c 0.172 0.395 0.246 0.422 0.609 0.23 c 0.34 -0.184 0.336 -0.949 -0.008 -1.129 c -0.402 -0.215 -0.902 -0.773 -0.84 -0.93 c 0.043 -0.102 0.063 -0.098 0.07 0.012 c 0.008 0.086 0.113 0.156 0.238 0.156 c 0.125 0 0.281 0.055 0.348 0.117 c 0.066 0.066 0.324 0.156 0.574 0.199 c 0.438 0.082 0.457 0.066 0.535 -0.328 c 0.047 -0.227 0.164 -0.5 0.262 -0.609 c 0.098 -0.109 0.203 -0.367 0.23 -0.574 c 0.031 -0.211 0.066 0.078 0.074 0.637 c 0.012 0.598 0.082 1.078 0.172 1.164 c 0.203 0.207 0.57 0.191 0.691 -0.02 c 0.059 -0.098 0.301 -0.215 0.543 -0.258 l 0.441 -0.086 l -0.313 0.254 c -0.176 0.141 -0.445 0.355 -0.602 0.48 c -0.211 0.168 -0.281 0.355 -0.281 0.758 c 0 0.297 0.055 0.539 0.125 0.539 c 0.07 0 0.125 0.238 0.125 0.535 v 0.535 l -0.504 -0.535 c -0.383 -0.406 -0.598 -0.535 -0.895 -0.535 c -0.285 0 -0.406 0.066 -0.457 0.25 c -0.035 0.141 -0.125 0.254 -0.195 0.254 c -0.336 0 -0.664 1.039 -0.363 1.156 c 0.059 0.023 0.141 0.367 0.18 0.766 l 0.074 0.727 h -0.504 c -0.277 0 -0.473 0.051 -0.434 0.113 c 0.102 0.164 -0.242 0.266 -0.891 0.266 c -0.359 0 -0.582 0.063 -0.625 0.172 c -0.043 0.113 -0.379 0.207 -0.941 0.262 c -0.477 0.047 -0.902 0.141 -0.945 0.203 c -0.039 0.066 -0.324 0.121 -0.633 0.121 c -0.406 0 -0.621 0.07 -0.777 0.25 c -0.168 0.195 -0.375 0.254 -0.883 0.254 c -0.367 0 -0.664 0.055 -0.664 0.125 c 0 0.07 -0.059 0.129 -0.129 0.129 c -0.066 0 -0.125 -0.059 -0.125 -0.129"/><path d="m 15.727 13.215 c 0.043 -0.234 0.16 -0.484 0.258 -0.555 c 0.125 -0.094 0.164 -0.371 0.137 -1.01 c -0.035 -0.832 -0.059 -0.883 -0.355 -0.926 c -0.172 -0.023 -0.352 -0.102 -0.395 -0.172 c -0.043 -0.07 -0.484 -0.16 -0.98 -0.195 c -1.41 -0.102 -1.184 -0.281 0.352 -0.281 h 1.383 l 0.082 -0.379 c 0.051 -0.223 0.141 -0.348 0.219 -0.297 c 0.09 0.055 0.113 -0.129 0.07 -0.57 c -0.035 -0.359 -0.02 -0.68 0.031 -0.711 c 0.102 -0.063 0.375 0.902 0.375 1.328 c 0 0.23 0.063 0.262 0.473 0.227 c 0.293 -0.023 0.461 -0.098 0.441 -0.195 c -0.016 -0.086 0.113 -0.191 0.285 -0.234 c 0.172 -0.043 0.313 -0.129 0.313 -0.191 c 0 -0.063 0.086 -0.113 0.191 -0.113 c 0.246 0 0.238 0.074 -0.031 0.363 c -0.762 0.82 -0.871 1.473 -0.348 2.066 c 0.164 0.191 0.363 0.348 0.438 0.348 c 0.07 0 0.129 0.055 0.129 0.125 c 0 0.07 -0.055 0.125 -0.125 0.125 c -0.125 0 -0.633 -0.25 -0.758 -0.379 c -0.035 -0.031 -0.188 -0.133 -0.34 -0.219 c -0.352 -0.191 -0.668 -0.082 -0.668 0.238 c 0 0.133 -0.086 0.273 -0.188 0.316 c -0.105 0.039 -0.191 0.195 -0.191 0.344 c 0 0.148 -0.113 0.34 -0.254 0.43 c -0.137 0.086 -0.25 0.262 -0.25 0.391 c 0 0.133 -0.086 0.309 -0.191 0.395 c -0.164 0.137 -0.176 0.102 -0.102 -0.27"/><path d="m 22.07 15.227 c 0 -0.184 -0.07 -0.359 -0.16 -0.387 c -0.086 -0.031 -0.215 -0.391 -0.289 -0.801 l -0.129 -0.746 l -0.746 0.047 c -0.41 0.023 -0.863 0.117 -1.01 0.207 c -0.281 0.176 -1.453 0.336 -1.453 0.195 c 0 -0.047 0.199 -0.18 0.441 -0.297 c 0.242 -0.117 0.441 -0.258 0.441 -0.32 c 0 -0.059 0.227 -0.215 0.5 -0.348 c 0.277 -0.133 0.504 -0.301 0.508 -0.379 c 0 -0.074 0.148 -0.215 0.324 -0.309 c 0.18 -0.098 0.379 -0.27 0.438 -0.383 c 0.16 -0.297 -0.004 -1.512 -0.211 -1.594 c -0.094 -0.035 -0.176 -0.184 -0.176 -0.336 c -0.004 -0.148 -0.086 -0.41 -0.184 -0.582 c -0.219 -0.379 -0.234 -0.508 -0.066 -0.508 c 0.07 0 0.129 0.055 0.129 0.117 c 0 0.066 0.313 0.441 0.691 0.836 c 0.383 0.391 0.664 0.762 0.625 0.824 c -0.086 0.141 0.516 0.293 0.77 0.195 c 0.109 -0.043 0.172 -0.121 0.137 -0.18 c -0.035 -0.055 0.223 -0.379 0.57 -0.723 c 0.348 -0.348 0.688 -0.727 0.754 -0.848 c 0.066 -0.121 0.168 -0.223 0.23 -0.223 c 0.117 0 0.031 0.488 -0.125 0.695 c -0.051 0.07 -0.133 0.367 -0.18 0.66 c -0.051 0.297 -0.152 0.52 -0.238 0.504 c -0.094 -0.02 -0.156 0.258 -0.184 0.824 c -0.031 0.699 0 0.852 0.16 0.852 c 0.105 0 0.195 0.055 0.195 0.125 c 0 0.164 0.465 0.629 0.629 0.629 c 0.07 0 0.125 0.086 0.125 0.191 c 0 0.156 -0.168 0.184 -0.91 0.156 c -0.82 -0.027 -0.914 -0.008 -0.957 0.223 c -0.027 0.137 -0.129 0.297 -0.227 0.352 c -0.109 0.063 -0.176 0.324 -0.176 0.695 c -0.004 0.324 -0.059 0.676 -0.125 0.781 c -0.098 0.148 -0.125 0.117 -0.125 -0.148"/><path d="m 12.207 22.535 c -1.16 -1.199 -2.176 -2.305 -2.258 -2.457 c -0.121 -0.223 -0.105 -0.414 0.07 -0.969 c 0.117 -0.383 0.254 -0.711 0.301 -0.73 c 0.047 -0.023 0.227 -0.449 0.395 -0.953 c 0.293 -0.859 0.34 -0.918 0.746 -0.996 c 0.238 -0.043 0.582 -0.156 0.762 -0.254 c 0.18 -0.094 0.43 -0.168 0.551 -0.168 c 0.574 -0.004 0.309 -0.676 -0.5 -1.273 c -0.227 -0.168 -0.445 -0.406 -0.484 -0.527 c -0.043 -0.121 -0.156 -0.219 -0.258 -0.219 c -0.098 0 -0.18 -0.059 -0.18 -0.129 c 0 -0.066 -0.188 -0.125 -0.422 -0.125 c -0.297 0 -0.523 0.109 -0.785 0.375 c -0.203 0.207 -0.434 0.375 -0.516 0.379 c -0.078 0 -0.176 0.09 -0.215 0.191 c -0.039 0.105 -0.16 0.191 -0.266 0.191 c -0.105 0 -0.195 0.07 -0.199 0.156 c -0.004 0.176 -0.625 0.676 -0.625 0.504 c 0 -0.059 0.086 -0.219 0.188 -0.355 c 0.102 -0.133 0.184 -0.344 0.188 -0.465 c 0.004 -0.121 0.063 -0.219 0.129 -0.219 c 0.07 0 0.129 -0.117 0.129 -0.254 c 0 -0.141 0.113 -0.352 0.25 -0.469 c 0.184 -0.156 0.254 -0.375 0.254 -0.766 c 0 -0.496 -0.063 -0.609 -0.598 -1.109 c -0.332 -0.309 -0.699 -0.59 -0.82 -0.629 c -0.535 -0.172 -0.137 -0.305 0.895 -0.305 h 1.117 l 0.082 -0.777 c 0.043 -0.426 0.082 -0.988 0.082 -1.254 c 0 -0.59 0.203 -0.754 0.313 -0.25 c 0.043 0.199 0.16 0.398 0.262 0.438 c 0.102 0.039 0.184 0.199 0.184 0.355 c 0.004 0.16 0.09 0.398 0.191 0.535 c 0.102 0.133 0.184 0.34 0.184 0.457 c 0 0.148 0.148 0.234 0.512 0.293 c 0.285 0.043 0.57 0.047 0.637 0.004 c 0.07 -0.043 0.207 -0.008 0.305 0.07 c 0.098 0.082 0.293 0.113 0.434 0.066 c 0.484 -0.152 0.277 0.25 -0.43 0.824 c -0.523 0.426 -0.688 0.645 -0.691 0.91 c -0.004 0.188 0.047 0.344 0.109 0.344 c 0.066 0 0.156 0.258 0.203 0.57 c 0.047 0.313 0.137 0.566 0.199 0.566 c 0.063 0 0.113 0.168 0.113 0.379 c 0 0.238 0.09 0.434 0.25 0.535 c 0.141 0.086 0.254 0.258 0.254 0.383 c 0 0.125 0.086 0.258 0.188 0.297 c 0.305 0.117 1.078 -0.074 1.16 -0.285 c 0.09 -0.238 -0.191 -1.168 -0.445 -1.469 c -0.414 -0.488 -0.016 -0.309 0.621 0.281 c 0.375 0.348 0.719 0.633 0.758 0.633 c 0.043 0 0.402 -0.336 0.797 -0.754 c 0.398 -0.418 0.777 -0.758 0.84 -0.758 c 0.148 0 0.156 0.598 0.008 0.652 c -0.059 0.023 -0.145 0.25 -0.191 0.5 c -0.082 0.445 -0.066 0.465 0.426 0.664 c 0.277 0.109 0.504 0.254 0.504 0.32 c 0 0.066 0.117 0.156 0.254 0.199 c 0.141 0.043 0.254 0.16 0.254 0.254 c 0 0.098 0.543 0.734 1.207 1.41 c 0.668 0.68 1.305 1.391 1.418 1.582 c 0.223 0.379 0.395 0.43 0.629 0.195 c 0.305 -0.305 0.164 -0.754 -0.426 -1.328 c -0.32 -0.309 -0.555 -0.586 -0.523 -0.613 c 0.031 -0.031 0.324 0.059 0.652 0.199 c 0.816 0.348 1.055 0.332 1.156 -0.094 c 0.047 -0.188 0.184 -0.488 0.305 -0.66 c 0.121 -0.172 0.246 -0.43 0.281 -0.566 c 0.035 -0.141 0.07 0.215 0.078 0.789 c 0.016 1.18 0.156 1.359 0.773 0.996 c 0.195 -0.117 0.516 -0.207 0.711 -0.207 l 0.359 0.004 l -0.316 0.246 c -0.887 0.691 -0.879 0.68 -0.879 1.23 c -0.004 0.293 0.055 0.535 0.125 0.535 c 0.066 0 0.125 0.238 0.125 0.531 v 0.531 l -0.539 -0.531 c -0.613 -0.602 -1.199 -0.727 -1.316 -0.277 c -0.035 0.137 -0.125 0.25 -0.195 0.25 c -0.336 0 -0.664 1.039 -0.363 1.156 c 0.059 0.023 0.137 0.371 0.18 0.77 l 0.07 0.723 h -0.5 c -0.277 0 -0.473 0.051 -0.434 0.113 c 0.102 0.164 -0.246 0.266 -0.891 0.266 c -0.359 0 -0.586 0.063 -0.625 0.176 c -0.043 0.109 -0.379 0.203 -0.941 0.258 c -0.48 0.047 -0.906 0.141 -0.945 0.207 c -0.039 0.063 -0.328 0.117 -0.637 0.117 c -0.402 0 -0.621 0.07 -0.777 0.254 c -0.164 0.191 -0.371 0.25 -0.879 0.25 c -0.367 0 -0.668 0.059 -0.668 0.129 c 0 0.355 -0.5 -0.066 -2.422 -2.051"/><path d="m 15.977 12.961 c 0.047 -0.234 0.164 -0.48 0.258 -0.555 c 0.125 -0.094 0.164 -0.371 0.137 -1.01 c -0.035 -0.828 -0.055 -0.883 -0.352 -0.922 c -0.176 -0.027 -0.352 -0.105 -0.398 -0.176 c -0.043 -0.07 -0.484 -0.156 -0.98 -0.191 c -1.406 -0.102 -1.184 -0.285 0.352 -0.285 h 1.383 l 0.086 -0.379 c 0.047 -0.219 0.137 -0.344 0.215 -0.297 c 0.09 0.055 0.113 -0.129 0.07 -0.57 c -0.031 -0.359 -0.02 -0.68 0.031 -0.711 c 0.105 -0.063 0.375 0.902 0.375 1.328 c 0 0.23 0.063 0.262 0.473 0.227 c 0.293 -0.023 0.461 -0.098 0.445 -0.191 c -0.02 -0.086 0.109 -0.191 0.281 -0.234 c 0.176 -0.047 0.316 -0.133 0.316 -0.191 c 0 -0.063 0.086 -0.113 0.188 -0.113 c 0.246 0 0.238 0.07 -0.031 0.363 c -0.762 0.816 -0.871 1.469 -0.348 2.063 c 0.168 0.191 0.363 0.348 0.438 0.348 c 0.07 0 0.133 0.059 0.133 0.125 c 0 0.07 -0.059 0.129 -0.129 0.129 c -0.125 0 -0.629 -0.254 -0.754 -0.379 c -0.035 -0.035 -0.191 -0.133 -0.344 -0.219 c -0.348 -0.195 -0.668 -0.082 -0.668 0.234 c 0 0.133 -0.082 0.277 -0.188 0.316 c -0.105 0.039 -0.191 0.195 -0.191 0.344 c 0 0.148 -0.113 0.344 -0.25 0.43 c -0.141 0.086 -0.254 0.262 -0.254 0.395 c 0 0.129 -0.086 0.305 -0.188 0.391 c -0.164 0.137 -0.18 0.102 -0.105 -0.266"/></g></svg>