<svg xmlns="http://www.w3.org/2000/svg" viewBox="0 0 32 32"><path d="m 30.965 11.602 c 5.977 16.676 -15.496 24.785 -23.563 17.996 c -8.07 -6.789 -10.824 -18.422 -1.688 -24.277 c 9.137 -5.855 19.273 -10.395 25.25 6.285" fill="#86ceeb"/><path d="m 10.973 8.816 h 10.04 c 0.309 0 0.559 0.371 0.559 0.828 v 10.746 c 0 0.457 -0.25 0.828 -0.559 0.828 h -10.04 c -0.309 0 -0.559 -0.371 -0.559 -0.828 v -10.746 c 0 -0.457 0.25 -0.828 0.559 -0.828" fill="#fff"/><path d="m 12.645 17.91 v -0.824 h 4.465 v 0.824 m -4.465 -1.652 v -0.828 h 6.695 v 0.828 m -6.695 -1.652 v -0.828 h 6.695 v 0.828 m -6.695 -1.656 v -0.824 h 6.695 v 0.824" fill="#696969" fill-opacity="0.502"/><g fill="#fff"><path d="m 9.297 15.43 h 13.391 c 0.414 0 0.746 0.371 0.746 0.828 v 6.613 c 0 0.457 -0.332 0.828 -0.746 0.828 h -13.391 c -0.41 0 -0.742 -0.371 -0.742 -0.828 v -6.613 c 0 -0.457 0.332 -0.828 0.742 -0.828"/><path d="m 9.297 15.43 c -0.41 0 -0.742 0.371 -0.742 0.828 v 0.414 c 0 -0.457 0.332 -0.828 0.742 -0.828 h 13.391 c 0.414 0 0.746 0.371 0.746 0.828 v -0.414 c 0 -0.457 -0.332 -0.828 -0.746 -0.828 h -13.391" fill-opacity="0.2"/><path d="m 8.555 22.461 v 0.41 c 0 0.461 0.332 0.828 0.742 0.828 h 13.391 c 0.414 0 0.746 -0.367 0.746 -0.828 v -0.41 c 0 0.457 -0.332 0.824 -0.746 0.824 h -13.391 c -0.41 0 -0.742 -0.367 -0.742 -0.824" fill-opacity="0.302"/></g><path d="m 13.391 18.324 h 5.207 c 0.207 0 0.371 0.188 0.371 0.414 v 0.828 c 0 0.227 -0.164 0.414 -0.371 0.414 h -5.207 c -0.207 0 -0.375 -0.188 -0.375 -0.414 v -0.828 c 0 -0.227 0.168 -0.414 0.375 -0.414" fill="#696969"/></svg>