<svg xmlns="http://www.w3.org/2000/svg" viewBox="0 0 32 32"><path d="m 0.625 19.809 c 6.203 29.633 48.895 -2.18 23.25 -17.242 c -9.965 -6.457 -26.441 2 -23.25 17.242" fill="#443677"/><path d="m 10.468 7.583 c 1.394 0.129 2.799 0.184 4.203 0.184 c 2.071 0 4.052 -0.074 5.941 -0.221 l 0.121 -1.139 l 0.121 -1.617 c 0.101 -0.854 0.222 -1.893 0.364 -3.124 c 0.081 -0.781 0.131 -1.268 0.162 -1.47 l 3.84 0.257 c -0.323 2.554 -0.586 4.814 -0.768 6.799 c 4.9 -0.533 9.821 -1.479 14.752 -2.83 l 0.404 3.565 c -4.769 1.204 -9.942 2.095 -15.52 2.683 c -0.222 2.04 -0.364 4.254 -0.445 6.652 c 2.314 -0.827 5.02 -1.378 8.124 -1.654 c 0.293 -0.9 0.616 -2.031 0.97 -3.381 l 3.799 0.882 c -0.111 0.542 -0.384 1.397 -0.808 2.573 c 3.577 0.441 6.426 1.488 8.528 3.124 c 2.991 2.407 4.486 5.531 4.486 9.372 c 0 4.245 -1.799 7.7 -5.375 10.364 c -2.779 2.086 -6.608 3.464 -11.478 4.153 l -2.223 -3.455 c 4.254 -0.441 7.649 -1.47 10.185 -3.087 c 3.233 -2 4.85 -4.677 4.85 -8.01 c 0 -3.4 -1.495 -6.01 -4.486 -7.828 c -1.516 -0.928 -3.355 -1.516 -5.537 -1.764 c -2.647 6.275 -6.143 11.457 -10.508 15.546 c 0.162 1.544 0.455 3.151 0.889 4.814 l -3.718 1.36 c -0.081 -0.459 -0.273 -1.59 -0.566 -3.381 c -2.89 2.04 -5.598 3.05 -8.124 3.05 c -3.072 0 -4.607 -1.801 -4.607 -5.403 c 0 -4.851 2.597 -9.243 7.8 -13.194 c 0.99 -0.707 2.344 -1.525 4.04 -2.462 c 0.051 -2.297 0.202 -4.961 0.445 -7.975 c -2.566 0.202 -5.01 0.294 -7.356 0.294 c -0.919 0 -1.647 -0.009 -2.182 -0.037 m 9.05 11.283 c -1.192 0.717 -2.415 1.727 -3.678 3.05 c -2.698 2.747 -4.143 5.421 -4.325 8.01 c 0 0.248 -0.03 0.432 -0.081 0.551 c 0.051 0.147 0.081 0.349 0.081 0.588 c 0 1.103 0.495 1.654 1.495 1.654 c 2.152 0 4.466 -1.121 6.952 -3.381 c -0.242 -2.692 -0.394 -6.183 -0.445 -10.474 m 10.791 -3.896 c -2.506 0.368 -4.89 1.01 -7.154 1.911 c 0 3.896 0.081 6.974 0.242 9.225 c 2.799 -3.106 5.103 -6.817 6.911 -11.136" transform="matrix(0.3866 0 0 0.42515 4.992 6.452)" fill="none" stroke="#fff" stroke-linejoin="round" stroke-width="3.836"/></svg>