<svg xmlns="http://www.w3.org/2000/svg" xmlns:xlink="http://www.w3.org/1999/xlink" viewBox="0 0 32 32"><defs><g id="3" clip-path="url(#2)"><path d="m 11.547 26.789 h -0.859 v -5.441 h -1.949 v -0.707 h 4.758 v 0.707 h -1.949 v 5.441" fill="#fff"/><path d="m 17.684 24.641 h -3.219 c 0 0.512 0.113 0.906 0.336 1.176 c 0.25 0.266 0.613 0.402 1.086 0.402 c 0.551 0 1.074 -0.113 1.574 -0.336 v 0.672 c -0.477 0.199 -1 0.301 -1.574 0.301 c -0.699 0 -1.262 -0.199 -1.684 -0.605 c -0.426 -0.402 -0.637 -0.984 -0.637 -1.746 c 0 -0.762 0.199 -1.355 0.598 -1.781 c 0.398 -0.426 0.914 -0.637 1.535 -0.637 c 0.602 0 1.074 0.191 1.426 0.57 c 0.371 0.359 0.559 0.863 0.559 1.512 v 0.469 m -3.219 -0.637 h 2.32 c 0 -0.426 -0.098 -0.738 -0.301 -0.941 c -0.172 -0.223 -0.449 -0.336 -0.82 -0.336 c -0.727 0 -1.125 0.426 -1.199 1.277" fill="#fff"/><path d="m 20.08 24.434 l -1.648 -2.25 h 0.973 l 1.16 1.715 l 1.164 -1.715 h 0.973 l -1.648 2.25 l 1.723 2.352 h -0.938 l -1.273 -1.848 l -1.27 1.848 h -0.977 l 1.762 -2.352" fill="#fff"/></g><clipPath id="2"><path d="M 0,0 H32 V32 H0 z"/></clipPath><filter id="0" filterUnits="objectBoundingBox" x="0" y="0" width="32" height="32"><feColorMatrix type="matrix" in="SourceGraphic" values="0 0 0 0 1 0 0 0 0 1 0 0 0 0 1 0 0 0 1 0"/></filter><mask id="1"><g filter="url(#0)"><path fill-opacity="0.702" d="M 0,0 H32 V32 H0 z"/></g></mask></defs><path d="m 15.551 31.828 c 3.301 -0.258 7.164 -1.84 9.855 -4.04 c 3.273 -2.676 5.668 -6.777 6.313 -10.82 c 0.141 -0.887 0.18 -2.93 0.074 -3.84 c -0.438 -3.773 -2.652 -7.523 -5.883 -9.969 c -1.754 -1.324 -4.074 -2.383 -6.25 -2.844 c -5.66 -1.203 -11.57 1.074 -15.617 6.02 c -2.43 2.969 -3.688 5.957 -3.992 9.492 c -0.367 4.238 1.301 8.785 4.348 11.844 c 2.395 2.406 5.605 3.934 8.652 4.121 c 0.445 0.027 0.984 0.063 1.207 0.078 c 0.223 0.016 0.805 -0.004 1.293 -0.043" fill="#2dbee0"/><path d="m 20.563 17.313 h -2.01 l -4.332 -5.637 l -1.391 0.906 v 4.73 h -1.777 v -11.855 h 1.777 v 5.957 l 5.566 -5.957 h 2.01 l -5.03 5.18 l 5.184 6.676" fill="#fff"/><use xlink:href="#3" mask="url(#1)"/></svg>