<svg xmlns="http://www.w3.org/2000/svg" viewBox="0 0 32 32"><path d="m 21.2 0.48 c -33.988 -3.48 -21.09 43.906 3.469 28.01 c 10.01 -6.484 9.535 -26.68 -3.469 -28.01" fill="#93a525"/><g fill="#a1f91b"><path d="m 17.258 5.504 c 0.137 0.031 0.555 0.121 0.926 0.195 c 2.977 0.602 5.871 3.102 7.04 6.07 c 2.152 5.484 -0.949 11.641 -6.66 13.234 c -5.188 1.445 -10.605 -1.617 -12.168 -6.883 c -0.289 -0.969 -0.34 -1.371 -0.34 -2.715 c 0 -1.344 0.051 -1.746 0.34 -2.715 c 1 -3.371 3.559 -5.93 6.891 -6.883 c 0.906 -0.258 3.355 -0.449 3.973 -0.305 m -4.04 1.5 c -2.375 0.801 -4.098 2.316 -5.172 4.551 c -0.715 1.484 -0.883 2.23 -0.879 3.914 c 0.004 2.477 0.789 4.336 2.582 6.141 c 0.914 0.918 1.27 1.18 2.277 1.668 c 1.547 0.746 2.914 1.031 4.473 0.926 c 4 -0.262 7.227 -3.035 8.09 -6.953 c 0.289 -1.309 0.203 -3.316 -0.195 -4.492 c -1.066 -3.172 -3.367 -5.258 -6.625 -6.01 c -1.211 -0.277 -3.305 -0.16 -4.547 0.258"/><path d="m 17.441 11.766 c 0.945 0.371 1.902 1.344 2.258 2.293 c 0.754 2.01 -0.121 4.188 -2.066 5.145 c -0.914 0.449 -2.371 0.441 -3.344 -0.02 c -2.563 -1.219 -3.164 -4.57 -1.164 -6.508 c 0.793 -0.773 1.574 -1.105 2.68 -1.145 c 0.73 -0.027 1.105 0.027 1.637 0.234 m -2.719 1.102 c -0.281 0.129 -0.711 0.469 -0.957 0.754 c -0.789 0.922 -0.945 2.035 -0.438 3.121 c 0.867 1.867 3.285 2.281 4.715 0.809 c 0.906 -0.93 1.051 -2.461 0.34 -3.609 c -0.719 -1.164 -2.383 -1.652 -3.66 -1.074"/><path d="m 16.594 8.828 c 0.191 1.578 0.348 2.969 0.348 3.086 c 0 0.117 -0.383 0.211 -0.848 0.211 c -0.707 0 -0.828 -0.086 -0.734 -0.535 c 0.059 -0.297 0.219 -1.504 0.352 -2.684 c 0.133 -1.18 0.309 -2.328 0.387 -2.551 c 0.082 -0.219 0.305 0.891 0.496 2.473"/><path d="m 16.805 19.293 c -0.016 0.488 -0.781 5.41 -0.805 5.18 c -0.023 -0.266 -0.617 -4.133 -0.754 -4.898 c -0.098 -0.574 -0.031 -0.629 0.73 -0.629 c 0.543 0 0.836 0.125 0.828 0.348"/><path d="m 12.898 15.496 c 0 1.234 -0.066 1.551 -0.336 1.555 c -0.73 0.012 -5.879 -1.43 -5.879 -1.43 c -0.082 -0.129 1.285 -0.559 3.035 -0.957 l 3.18 -0.719"/><path d="m 22.324 14.773 c 3.422 0.793 3.43 0.875 0.156 1.562 c -1.285 0.27 -2.488 0.555 -2.676 0.633 c -0.316 0.133 -0.34 0.043 -0.34 -1.348 c 0 -1.016 0.063 -1.484 0.188 -1.461 c 0.105 0.02 1.309 0.297 2.672 0.613"/><path d="m 137.32 128.62 c 0.044 2.913 -1.393 5.614 -3.744 7.087 c -2.365 1.457 -5.296 1.457 -7.647 0 c -2.365 -1.473 -3.802 -4.174 -3.758 -7.087 c -0.044 -2.913 1.393 -5.614 3.758 -7.087 c 2.351 -1.457 5.282 -1.457 7.647 0 c 2.351 1.473 3.787 4.174 3.744 7.087" transform="matrix(0.26921 0 0 0.23867 -19.01 -15.213)" stroke="#fff" stroke-width="0.499"/></g></svg>