<svg xmlns="http://www.w3.org/2000/svg" viewBox="0 0 32 32"><path d="m 25.402 3.598 c -24.06 -15.652 -38.875 34.27 -7.773 27.66 c 12.852 -2.816 20.652 -20.48 7.773 -27.66" fill="#6395ec"/><g fill="#fff"><path d="m 24.738 12.93 h -1.801 v 7.797 c 0 0.41 -0.301 0.742 -0.516 0.742 h -5.66 c -0.211 0 -0.512 -0.332 -0.512 -0.742 v -7.797 h -1.801 l 5.145 -6.309"/><path d="m 22.938 12.93 v 7.797 c 0 0.41 -0.301 0.742 -0.516 0.742 h -5.66 c -0.211 0 -0.512 -0.332 -0.512 -0.742 v -7.797" fill-opacity="0.051"/><path d="m 16.762 21.469 c -0.211 0 -0.512 -0.332 -0.512 -0.742 v -0.371 c 0 0.41 0.301 0.742 0.512 0.742 h 5.66 c 0.215 0 0.516 -0.332 0.516 -0.742 v 0.371 c 0 0.41 -0.301 0.742 -0.516 0.742 m -7.973 -8.539 l 0.301 -0.371 h 1.5 v 0.371 m 6.688 0 v -0.371 h 1.496 l 0.305 0.371" fill-opacity="0.2"/><path d="m 14.449 12.93 l 5.145 -6.309 l 5.145 6.309 h -0.305 l -4.84 -5.938 l -4.844 5.938" fill-opacity="0.302"/><path d="m 13.617 17.977 h -1.254 v 6.191 c 0 0.328 -0.207 0.59 -0.359 0.59 h -3.941 c -0.148 0 -0.359 -0.262 -0.359 -0.59 v -6.191 h -1.254 l 3.586 -5.01"/><path d="m 12.363 17.977 v 6.191 c 0 0.328 -0.207 0.59 -0.359 0.59 h -3.941 c -0.148 0 -0.359 -0.262 -0.359 -0.59 v -6.191" fill-opacity="0.051"/><path d="m 8.06 24.758 c -0.148 0 -0.359 -0.262 -0.359 -0.59 v -0.293 c 0 0.328 0.211 0.59 0.359 0.59 h 3.941 c 0.152 0 0.359 -0.262 0.359 -0.59 v 0.293 c 0 0.328 -0.207 0.59 -0.359 0.59 m -5.555 -6.781 l 0.211 -0.293 h 1.043 v 0.293 m 4.66 0 v -0.293 h 1.043 l 0.211 0.293" fill-opacity="0.2"/><path d="m 6.449 17.977 l 3.586 -5.01 l 3.582 5.01 h -0.211 l -3.371 -4.719 l -3.375 4.719" fill-opacity="0.302"/></g></svg>