<svg xmlns="http://www.w3.org/2000/svg" viewBox="0 0 32 32"><path d="m 28.566 24.395 c 11.398 -16.14 -9.652 -32.488 -23.08 -19.34 c -12.652 12.387 -0.922 31.637 14.82 25.621 c 3.285 -1.258 6.168 -3.32 8.262 -6.281" fill="#bcb76a"/><path d="m 10.199 8.777 h 12.352 c 0.043 0 0.074 0.145 0.074 0.32 v 14.547 c 0 0.176 -0.031 0.316 -0.074 0.316 h -12.352 c -0.043 0 -0.078 -0.141 -0.078 -0.316 v -14.547 c 0 -0.176 0.035 -0.32 0.078 -0.32" fill="#fff"/><path d="m 7.332 16 v -8.375 h 16.746 v 16.746 h -16.746 m 1.543 -0.551 c 0.383 -0.379 -0.098 -1.121 -0.617 -0.957 c -0.289 0.09 -0.48 0.59 -0.355 0.918 c 0.09 0.234 0.75 0.262 0.973 0.039 m 2.488 -2.484 c 0.34 -0.34 -0.012 -0.891 -0.57 -0.891 c -0.336 0 -0.555 0.461 -0.406 0.852 c 0.094 0.234 0.754 0.262 0.977 0.039 m 9.813 -0.211 c 0.055 -0.391 -0.191 -0.68 -0.578 -0.68 c -0.359 0 -0.625 0.418 -0.508 0.797 c 0.07 0.215 0.18 0.258 0.566 0.227 c 0.387 -0.035 0.484 -0.102 0.52 -0.344 m -4.949 -2.18 c 0.25 -0.305 0.055 -0.836 -0.348 -0.938 c -0.539 -0.133 -0.934 0.578 -0.539 0.973 c 0.215 0.219 0.691 0.195 0.887 -0.035 m 2.414 -0.012 c 0.262 -0.262 0.258 -0.434 -0.012 -0.734 c -0.414 -0.457 -0.961 -0.211 -0.961 0.43 c 0 0.512 0.582 0.691 0.973 0.305 m -4.973 -2.359 c 0.344 -0.133 0.262 -0.816 -0.117 -0.992 c -0.367 -0.164 -0.652 -0.008 -0.793 0.434 c -0.152 0.473 0.34 0.773 0.91 0.559 m 7.512 -0.375 c 0.027 -0.254 -0.035 -0.441 -0.191 -0.555 c -0.34 -0.25 -0.543 -0.211 -0.777 0.148 c -0.309 0.473 -0.055 0.887 0.508 0.832 c 0.352 -0.031 0.422 -0.098 0.461 -0.426 m -5.074 -4.523 c 0.379 -0.203 0.328 -0.75 -0.082 -0.938 c -0.41 -0.188 -0.754 -0.016 -0.82 0.406 c -0.078 0.551 0.371 0.816 0.902 0.531 m 4.938 -0.02 c 0.086 -0.086 0.156 -0.281 0.156 -0.434 c 0 -0.633 -0.828 -0.832 -1.047 -0.254 c -0.164 0.426 -0.168 0.395 0.078 0.637 c 0.242 0.246 0.594 0.266 0.813 0.051" fill="#d7cf9d"/><path d="m 7.332 16 v -8.375 h 16.746 v 16.746 h -16.746 m 1.703 -0.395 c 0.352 -0.352 0.328 -0.727 -0.074 -1.129 c -0.555 -0.555 -1.367 -0.188 -1.367 0.621 c 0 0.727 0.902 1.047 1.441 0.508 m 2.457 -2.379 c 0.223 -0.223 0.195 -0.965 -0.047 -1.207 c -0.113 -0.113 -0.375 -0.207 -0.582 -0.207 c -0.203 0 -0.465 0.094 -0.578 0.207 c -0.242 0.242 -0.273 0.984 -0.047 1.207 c 0.203 0.203 1.051 0.203 1.254 0 m 9.812 0 c 0.227 -0.227 0.191 -0.895 -0.059 -1.176 c -0.262 -0.289 -0.871 -0.309 -1.141 -0.039 c -0.586 0.582 -0.27 1.371 0.547 1.371 c 0.273 0 0.566 -0.07 0.652 -0.156 m -4.848 -2.551 c 0.391 -0.527 -0.027 -1.348 -0.688 -1.348 c -0.754 0 -1.152 1.078 -0.555 1.504 c 0.352 0.25 1 0.168 1.242 -0.156 m 2.422 0.133 c 0.184 -0.105 0.098 -1 -0.121 -1.242 c -0.516 -0.57 -1.406 -0.105 -1.328 0.695 c 0.059 0.633 0.797 0.91 1.449 0.547 m -5.04 -2.469 c 0.371 -0.258 0.387 -0.879 0.031 -1.234 c -0.352 -0.352 -0.73 -0.332 -1.121 0.059 c -0.387 0.391 -0.406 0.77 -0.059 1.117 c 0.316 0.313 0.754 0.336 1.148 0.059 m 7.41 -0.004 c 0.457 -0.453 0.063 -1.492 -0.563 -1.492 c -0.348 0 -0.773 0.395 -0.871 0.805 c -0.164 0.691 0.914 1.211 1.434 0.688 m 0.043 -4.922 c 0.234 -0.191 0.203 -0.891 -0.051 -1.172 c -0.223 -0.242 -0.773 -0.316 -1.051 -0.137 c -0.484 0.305 -0.449 1.375 0.047 1.508 c 0.301 0.082 0.84 -0.02 1.055 -0.199 m -4.813 -0.094 c 0.207 -0.391 0.164 -0.77 -0.125 -1.055 c -0.727 -0.727 -1.793 0.141 -1.305 1.055 c 0.195 0.359 1.238 0.359 1.43 0" fill="#c2b152"/><path d="m 15.313 24.281 c -0.109 -0.043 -0.289 -0.156 -0.398 -0.254 c -0.152 -0.133 -0.855 -0.184 -2.813 -0.211 l -2.609 -0.035 v -0.609 l 2.52 0.016 l 2.523 0.016 l 0.457 -0.484 l 0.457 -0.488 l -0.426 -0.445 c -0.41 -0.422 -0.473 -0.441 -1.281 -0.418 c -1.781 0.047 -1.852 0.035 -1.809 -0.355 c 0.043 -0.348 0.051 -0.352 1.023 -0.32 c 0.539 0.016 1.078 0.055 1.195 0.09 c 0.129 0.039 0.453 -0.168 0.836 -0.527 c 0.344 -0.328 0.684 -0.594 0.75 -0.594 c 0.191 0 0.801 0.516 0.961 0.813 c 0.133 0.246 0.254 0.266 1.457 0.242 c 1.133 -0.02 1.32 0.008 1.395 0.203 c 0.145 0.375 -0.086 0.453 -1.41 0.465 c -1.199 0.016 -1.293 0.035 -1.656 0.375 c -0.215 0.199 -0.387 0.391 -0.387 0.422 c 0 0.035 0.195 0.277 0.434 0.539 l 0.434 0.473 h 2.82 c 3.168 0 3.27 -0.027 3.02 -0.824 c -0.074 -0.254 -0.086 -0.805 -0.027 -1.379 c 0.059 -0.523 0.059 -1.082 0 -1.238 c -0.059 -0.156 -0.059 -0.727 0 -1.266 c 0.121 -1.09 0.031 -1.336 -0.668 -1.855 c -0.215 -0.156 -0.391 -0.332 -0.391 -0.387 c 0 -0.227 0.613 -1.02 0.887 -1.148 c 0.219 -0.105 0.273 -0.199 0.191 -0.344 c -0.063 -0.109 -0.066 -0.617 -0.012 -1.129 c 0.055 -0.516 0.051 -1.027 -0.012 -1.145 c -0.059 -0.113 -0.047 -0.844 0.027 -1.617 c 0.102 -1.059 0.098 -1.453 -0.016 -1.566 c -0.105 -0.105 -1.098 -0.156 -3.305 -0.168 c -3.418 -0.016 -3.602 0.02 -3.438 0.668 c 0.07 0.273 0.035 0.316 -0.262 0.316 c -0.301 0 -0.34 -0.051 -0.34 -0.441 c 0 -0.41 -0.035 -0.445 -0.492 -0.504 c -0.727 -0.094 -5.973 -0.035 -6.141 0.07 c -0.102 0.063 -0.129 0.922 -0.094 2.871 c 0.055 2.859 -0.012 3.535 -0.363 3.605 c -0.156 0.027 -0.227 -0.125 -0.289 -0.656 c -0.117 -0.984 0.02 -5.914 0.168 -5.965 c 0.066 -0.023 0.273 -0.18 0.461 -0.355 l 0.34 -0.313 l 3.125 0.027 c 2.77 0.023 3.156 0.051 3.379 0.254 c 0.316 0.289 0.422 0.289 0.633 0 c 0.148 -0.203 0.473 -0.23 3.086 -0.25 c 1.609 -0.012 3.07 0.008 3.25 0.043 c 0.18 0.035 0.465 0.238 0.633 0.449 c 0.301 0.375 0.309 0.465 0.336 3.164 c 0.023 2.449 0.055 2.82 0.266 3.141 c 0.344 0.52 0.309 1.238 -0.09 1.828 c -0.273 0.398 -0.316 0.566 -0.23 0.934 c 0.055 0.246 0.086 1.434 0.07 2.641 c -0.027 1.855 -0.066 2.215 -0.246 2.348 c -0.117 0.086 -0.215 0.246 -0.215 0.355 c 0 0.453 -0.313 0.5 -3.27 0.488 c -2.5 -0.012 -2.934 0.012 -3.137 0.195 c -0.254 0.23 -1 0.371 -1.313 0.246 m -7.238 -1.973 c -0.035 -0.059 -0.059 -1.348 -0.043 -2.863 l 0.02 -2.754 l 0.418 -0.414 c 0.262 -0.266 0.543 -0.414 0.773 -0.414 c 0.25 0 0.5 -0.152 0.813 -0.492 c 0.422 -0.457 0.453 -0.543 0.43 -1.277 c -0.016 -0.434 0.035 -0.961 0.117 -1.172 c 0.133 -0.352 0.109 -0.414 -0.32 -0.809 c -0.535 -0.488 -0.625 -1.125 -0.227 -1.617 c 0.367 -0.453 1.285 -0.414 1.672 0.066 c 0.281 0.355 0.309 0.363 1.609 0.34 c 1.316 -0.027 1.324 -0.023 1.324 0.289 c 0 0.297 -0.059 0.32 -0.926 0.395 c -0.508 0.039 -1.078 0.02 -1.262 -0.051 c -0.301 -0.117 -0.398 -0.066 -0.895 0.453 c -0.547 0.57 -0.555 0.594 -0.434 1.148 c 0.07 0.313 0.113 0.852 0.094 1.199 c -0.027 0.508 0.02 0.68 0.238 0.852 c 0.148 0.117 0.375 0.406 0.508 0.633 l 0.238 0.422 l -0.625 0.664 c -0.453 0.484 -0.598 0.73 -0.527 0.891 c 0.051 0.125 0.113 0.648 0.141 1.172 l 0.043 0.949 h -0.82 l 0.074 -1.297 l 0.07 -1.293 l -0.477 -0.457 c -0.402 -0.383 -0.551 -0.449 -0.902 -0.395 c -0.496 0.078 -0.453 -0.227 -0.477 3.441 c -0.016 2.371 -0.02 2.418 -0.297 2.457 c -0.156 0.023 -0.313 -0.008 -0.352 -0.066 m 12.242 -3.789 c 0.047 -1.387 0.051 -1.414 0.367 -1.453 l 0.32 -0.035 v 2.82 l -0.734 0.086 m -7.719 -0.688 c -0.398 -0.398 -0.289 -1.219 0.242 -1.785 c 0.223 -0.234 0.441 -0.426 0.488 -0.426 c 0.129 0 0.746 0.648 1.102 1.152 c 0.297 0.422 0.297 0.441 0.063 0.719 c -0.426 0.512 -0.613 0.617 -1.121 0.617 c -0.332 0 -0.59 -0.094 -0.773 -0.277 m 4.266 -0.379 c -0.105 -0.172 0.047 -0.652 0.203 -0.652 c 0.16 0 0.16 0.613 0.004 0.711 c -0.07 0.043 -0.16 0.016 -0.207 -0.059 m 0.738 -1.918 c -0.391 -0.422 -0.434 -0.539 -0.367 -1.012 c 0.039 -0.297 0.168 -0.594 0.285 -0.668 c 0.602 -0.363 0.625 -0.402 0.496 -0.797 c -0.121 -0.359 -0.172 -0.383 -0.941 -0.418 c -0.586 -0.031 -0.836 -0.098 -0.891 -0.242 c -0.113 -0.293 0.191 -0.434 0.934 -0.438 c 0.527 0 0.715 0.063 1.016 0.352 c 0.23 0.219 0.367 0.484 0.367 0.719 c 0 0.25 0.164 0.535 0.523 0.906 c 0.285 0.297 0.52 0.633 0.52 0.75 c -0.004 0.293 -1 1.328 -1.277 1.328 c -0.125 0 -0.426 -0.215 -0.664 -0.48 m 2.871 -1.992 c -0.148 -0.098 -0.168 -0.363 -0.098 -1.336 c 0.051 -0.688 0.152 -1.254 0.238 -1.309 c 0.352 -0.219 0.438 0.043 0.438 1.355 c 0 1.086 -0.039 1.344 -0.199 1.371 c -0.105 0.02 -0.277 -0.02 -0.379 -0.082 m -7.699 -0.414 c -0.332 -0.313 -0.422 -0.504 -0.422 -0.891 c 0 -0.668 0.23 -0.938 0.883 -1.023 c 0.492 -0.066 0.59 -0.031 0.938 0.344 c 0.316 0.336 0.477 0.41 0.824 0.375 c 0.414 -0.039 0.43 -0.059 0.418 -0.602 c -0.012 -0.555 -0.008 -0.563 0.391 -0.523 c 0.48 0.047 0.484 0.25 0.016 1.152 c -0.281 0.543 -0.344 0.586 -0.809 0.586 c -0.41 0 -0.59 0.09 -0.973 0.492 c -0.262 0.27 -0.555 0.488 -0.656 0.488 c -0.102 0 -0.375 -0.18 -0.609 -0.398 m 4.48 -2.988 c -0.359 -0.074 -0.402 -0.145 -0.344 -0.539 c 0.012 -0.086 0.508 -0.125 1.359 -0.102 c 1.258 0.035 1.34 0.055 1.297 0.301 c -0.027 0.145 -0.055 0.27 -0.066 0.277 c -0.105 0.074 -1.941 0.129 -2.242 0.063" fill="#b8a84c"/><path d="m 15.05 23.977 c -0.336 -0.336 -0.332 -0.66 0.016 -1.102 c 0.223 -0.281 0.367 -0.344 0.746 -0.309 c 0.367 0.031 0.52 0.129 0.711 0.457 c 0.203 0.348 0.219 0.469 0.086 0.719 c -0.086 0.164 -0.223 0.344 -0.301 0.398 c -0.289 0.191 -0.996 0.098 -1.258 -0.164 m 0.285 -2.227 c -0.508 -0.309 -0.652 -0.797 -0.363 -1.238 c 0.422 -0.645 1.367 -0.555 1.613 0.152 c 0.172 0.492 0.004 0.898 -0.461 1.141 c -0.344 0.18 -0.414 0.172 -0.785 -0.055 m -2.645 -2.613 c -0.352 -0.352 -0.328 -0.859 0.063 -1.246 c 0.391 -0.391 0.711 -0.41 1.09 -0.059 c 0.477 0.445 0.516 0.91 0.105 1.262 c -0.438 0.375 -0.91 0.391 -1.258 0.043 m -2.402 -2.363 c -0.66 -0.52 -0.285 -1.559 0.566 -1.559 c 0.461 0 0.922 0.438 0.922 0.879 c 0 0.371 -0.543 0.953 -0.891 0.953 c -0.141 0 -0.406 -0.125 -0.598 -0.273 m 7.363 0.027 c -0.391 -0.316 -0.422 -1.137 -0.055 -1.406 c 0.949 -0.695 2.086 0.652 1.16 1.379 c -0.426 0.336 -0.715 0.344 -1.105 0.027 m 4.813 -0.121 c -0.426 -0.441 -0.441 -0.668 -0.082 -1.121 c 0.602 -0.766 1.703 -0.238 1.512 0.723 c -0.16 0.797 -0.859 0.992 -1.43 0.398 m -9.746 -2.387 c -0.32 -0.297 -0.379 -0.871 -0.125 -1.211 c 0.09 -0.121 0.352 -0.258 0.582 -0.301 c 0.336 -0.066 0.48 -0.02 0.75 0.254 c 0.422 0.422 0.426 0.793 0.016 1.203 c -0.391 0.391 -0.84 0.41 -1.223 0.055 m -2.438 -2.426 c -0.328 -0.324 -0.387 -0.805 -0.152 -1.168 c 0.168 -0.254 0.324 -0.324 0.727 -0.324 c 0.566 0 0.922 0.336 0.922 0.879 c 0 0.672 -1.02 1.09 -1.496 0.613" fill="#877639"/><path d="m 15.11 23.801 c -0.488 -0.75 0.559 -1.555 1.16 -0.891 c 0.254 0.277 0.281 0.816 0.059 1.043 c -0.281 0.277 -0.992 0.188 -1.219 -0.152 m 0.09 -2.352 c -0.352 -0.375 -0.355 -0.488 -0.012 -0.922 c 0.324 -0.41 0.68 -0.438 1.035 -0.082 c 0.328 0.328 0.336 0.809 0.023 1.094 c -0.332 0.301 -0.711 0.27 -1.047 -0.09 m -2.348 -2.383 c -0.496 -0.348 -0.313 -1.109 0.313 -1.293 c 0.324 -0.094 0.77 0.238 0.895 0.672 c 0.059 0.195 0 0.371 -0.184 0.555 c -0.32 0.32 -0.629 0.34 -1.023 0.066 m -2.434 -2.426 c -0.605 -0.477 -0.305 -1.297 0.477 -1.297 c 0.363 0 0.75 0.414 0.75 0.805 c 0 0.207 -0.57 0.766 -0.785 0.766 c -0.051 0 -0.25 -0.121 -0.441 -0.273 m 7.297 -0.055 c -0.5 -0.5 -0.211 -1.242 0.484 -1.242 c 0.773 0 1.016 1.094 0.309 1.418 c -0.438 0.199 -0.414 0.203 -0.793 -0.176 m 4.84 0 c -0.242 -0.242 -0.305 -0.41 -0.242 -0.621 c 0.18 -0.613 0.883 -0.824 1.281 -0.383 c 0.309 0.344 0.273 0.883 -0.074 1.129 c -0.398 0.281 -0.582 0.254 -0.965 -0.125 m -9.73 -2.418 c -0.363 -0.363 -0.336 -0.863 0.059 -1.121 c 0.387 -0.254 0.785 -0.152 1.063 0.27 c 0.234 0.352 0.098 0.746 -0.332 0.977 c -0.355 0.191 -0.496 0.168 -0.789 -0.125 m -2.488 -2.488 c -0.297 -0.297 -0.309 -0.375 -0.133 -0.84 c 0.102 -0.27 0.215 -0.336 0.566 -0.336 c 0.457 0 0.875 0.32 0.875 0.668 c 0 0.348 -0.398 0.77 -0.727 0.77 c -0.176 0 -0.438 -0.117 -0.582 -0.262" fill="#69552d"/><path d="m 15.184 23.719 c -0.207 -0.383 -0.047 -0.773 0.355 -0.871 c 0.484 -0.125 0.754 0.098 0.754 0.621 c 0 0.414 -0.027 0.445 -0.48 0.484 c -0.379 0.031 -0.516 -0.02 -0.629 -0.234 m 0.09 -2.328 c -0.121 -0.137 -0.223 -0.336 -0.223 -0.445 c 0 -0.305 0.465 -0.656 0.805 -0.609 c 0.371 0.055 0.629 0.664 0.418 1 c -0.195 0.316 -0.734 0.344 -1 0.055 m -2.422 -2.41 c -0.246 -0.25 -0.188 -0.863 0.098 -1.016 c 0.141 -0.074 0.316 -0.137 0.391 -0.137 c 0.207 0 0.664 0.492 0.664 0.711 c 0 0.48 -0.805 0.789 -1.152 0.441 m -2.352 -2.402 c -0.16 -0.113 -0.289 -0.34 -0.289 -0.508 c 0 -0.699 1 -0.828 1.238 -0.156 c 0.109 0.32 0.086 0.406 -0.176 0.621 c -0.371 0.301 -0.406 0.301 -0.773 0.043 m 7.281 -0.043 c -0.262 -0.215 -0.285 -0.301 -0.176 -0.621 c 0.113 -0.316 0.207 -0.375 0.586 -0.375 c 0.371 0 0.473 0.063 0.574 0.355 c 0.102 0.281 0.078 0.41 -0.113 0.621 c -0.301 0.332 -0.48 0.336 -0.871 0.02 m 4.855 -0.016 c -0.313 -0.313 -0.332 -0.566 -0.055 -0.84 c 0.242 -0.246 0.727 -0.27 0.945 -0.051 c 0.25 0.25 0.191 0.863 -0.094 1.02 c -0.363 0.191 -0.5 0.168 -0.797 -0.129 m -9.711 -2.363 c -0.281 -0.164 -0.305 -0.813 -0.039 -1.031 c 0.289 -0.242 0.762 -0.109 0.977 0.281 c 0.18 0.32 0.176 0.371 -0.047 0.621 c -0.27 0.293 -0.539 0.332 -0.891 0.129 m -2.59 -2.617 c -0.348 -0.652 0.273 -1.234 0.887 -0.832 c 0.32 0.211 0.395 0.695 0.141 0.949 c -0.262 0.258 -0.863 0.188 -1.027 -0.117" fill="#493520"/><path d="m 15.305 23.641 c -0.23 -0.277 -0.004 -0.645 0.398 -0.645 c 0.352 0 0.602 0.332 0.484 0.637 c -0.105 0.273 -0.66 0.277 -0.883 0.008 m 0.09 -2.316 c -0.281 -0.207 -0.242 -0.594 0.082 -0.801 c 0.336 -0.211 0.688 0.059 0.688 0.523 c 0 0.438 -0.367 0.57 -0.77 0.277 m -2.48 -2.406 c -0.141 -0.141 -0.098 -0.633 0.07 -0.801 c 0.242 -0.242 0.469 -0.188 0.707 0.172 c 0.172 0.262 0.18 0.363 0.051 0.523 c -0.164 0.199 -0.672 0.266 -0.828 0.105 m -2.363 -2.438 c -0.336 -0.242 -0.23 -0.797 0.156 -0.852 c 0.605 -0.086 0.941 0.613 0.43 0.887 c -0.316 0.168 -0.305 0.172 -0.586 -0.035 m 7.324 0 c -0.332 -0.242 -0.23 -0.797 0.16 -0.852 c 0.602 -0.086 0.938 0.613 0.426 0.887 c -0.316 0.168 -0.305 0.172 -0.586 -0.035 m 4.875 -0.082 c -0.25 -0.207 -0.281 -0.297 -0.164 -0.492 c 0.078 -0.129 0.297 -0.254 0.484 -0.277 c 0.277 -0.031 0.359 0.027 0.426 0.297 c 0.082 0.32 -0.109 0.727 -0.336 0.727 c -0.055 0 -0.238 -0.113 -0.41 -0.254 m -9.785 -2.422 c -0.09 -0.102 -0.141 -0.324 -0.117 -0.488 c 0.059 -0.41 0.633 -0.484 0.863 -0.109 c 0.336 0.539 -0.348 1.082 -0.746 0.598 m -2.469 -2.453 c -0.367 -0.367 -0.008 -0.984 0.484 -0.828 c 0.145 0.047 0.301 0.199 0.348 0.344 c 0.156 0.492 -0.461 0.855 -0.832 0.484" fill="#281612"/></svg>