<svg xmlns="http://www.w3.org/2000/svg" viewBox="0 0 32 32"><path d="m 6.863 28.738 c 23.621 15.777 38.17 -34.535 7.633 -27.875 c -12.617 2.84 -20.277 20.641 -7.633 27.875" fill="#dcdcdc"/><path d="m 8.516 24.43 c -0.336 -0.078 -0.324 0.098 -0.324 -5.227 c 0 -5.621 -0.043 -5.195 0.508 -5.199 c 0.145 0 0.277 -0.027 0.297 -0.055 c 0.031 -0.047 0.453 -2.125 0.969 -4.754 c 0.133 -0.676 0.266 -1.176 0.332 -1.246 c 0.098 -0.098 0.25 -0.113 1.129 -0.113 h 1.016 l 0.191 0.281 c 0.105 0.152 0.324 0.594 0.488 0.977 c 0.164 0.383 0.352 0.816 0.422 0.961 l 0.121 0.266 l 0.16 -0.332 c 0.086 -0.18 0.238 -0.496 0.34 -0.695 c 0.102 -0.199 0.25 -0.535 0.332 -0.738 c 0.082 -0.207 0.215 -0.453 0.293 -0.547 c 0.145 -0.172 0.152 -0.172 1.156 -0.172 c 0.883 0 1.027 0.016 1.125 0.117 c 0.16 0.164 0.281 0.672 0.551 2.27 c 0.563 3.359 0.668 3.879 0.801 3.902 c 0.07 0.012 0.18 0.004 0.242 -0.02 c 0.098 -0.035 0.078 -0.074 -0.109 -0.211 c -0.16 -0.117 -0.23 -0.223 -0.23 -0.352 c 0 -0.27 0.844 -1.559 1.039 -1.582 c 0.086 -0.012 0.316 0.086 0.547 0.238 c 0.496 0.324 0.957 0.445 1.293 0.34 c 0.133 -0.039 0.242 -0.113 0.242 -0.164 c 0 -0.125 -0.18 -0.207 -0.891 -0.398 c -1 -0.27 -1.484 -0.574 -1.789 -1.125 c -0.266 -0.473 -0.266 -1.234 -0.004 -1.758 c 0.332 -0.676 0.84 -1.082 1.621 -1.297 c 0.418 -0.117 1.457 -0.102 2.082 0.031 c 0.41 0.086 1.113 0.375 1.191 0.492 c 0.113 0.168 0.039 0.43 -0.293 1.01 c -0.426 0.742 -0.527 0.793 -1.125 0.543 c -0.395 -0.168 -1.01 -0.242 -1.01 -0.129 c 0 0.078 0.41 0.266 0.922 0.422 c 0.918 0.277 1.43 0.629 1.746 1.199 c 0.176 0.32 0.211 1.016 0.07 1.461 c -0.129 0.422 -0.551 0.98 -0.922 1.227 l -0.254 0.172 l 0.57 0.332 c 0.605 0.355 1.27 0.996 1.449 1.398 c 0.191 0.422 0.117 0.809 -0.223 1.191 c -0.23 0.258 -0.648 0.504 -0.855 0.504 c -0.289 0 -0.832 -0.207 -1.484 -0.57 c -0.609 -0.336 -1.16 -0.59 -1.16 -0.531 c 0 0.012 0.078 0.191 0.176 0.398 c 0.098 0.207 0.18 0.418 0.18 0.469 c 0 0.09 0.852 0.504 2.051 1 c 1.266 0.527 1.879 1.461 1.863 2.844 c -0.008 0.945 -0.344 1.691 -0.996 2.207 c -0.523 0.414 -0.926 0.574 -1.996 0.813 c -1.422 0.313 -2.094 0.254 -3.234 -0.277 c -0.113 -0.051 -0.203 -0.043 -0.367 0.035 c -0.402 0.195 -1.441 0.438 -1.875 0.438 c -0.527 0 -1.121 -0.137 -1.879 -0.438 l -0.582 -0.234 l -0.305 0.23 c -0.605 0.457 -0.508 0.445 -3.117 0.434 c -1.297 -0.004 -2.422 -0.02 -2.496 -0.039 m 4.109 -2.852 c -0.41 -0.926 -0.563 -1.723 -0.504 -2.602 c 0.023 -0.383 0.063 -0.809 0.086 -0.945 l 0.043 -0.25 h -1.148 v 3.91 h 0.785 c 0.723 0 0.785 -0.008 0.738 -0.113 m 4.836 -1.238 c 0.246 -0.363 0.336 -0.441 0.586 -0.512 c 0.199 -0.055 0.316 -0.133 0.359 -0.242 c 0.105 -0.254 0.078 -0.324 -0.152 -0.414 c -0.117 -0.047 -0.391 -0.25 -0.602 -0.453 c -0.438 -0.418 -0.668 -0.898 -0.668 -1.375 c 0 -0.273 -0.016 -0.301 -0.16 -0.281 c -0.156 0.023 -0.16 0.039 -0.137 0.684 c 0.027 0.746 -0.066 1.523 -0.285 2.344 c -0.172 0.648 -0.156 0.672 0.41 0.676 h 0.359 m 4.773 -0.129 c 0.082 -0.051 0.063 -0.078 -0.102 -0.137 c -0.199 -0.07 -0.32 -0.016 -0.32 0.148 c -0.004 0.07 0.297 0.059 0.422 -0.012 m -6.238 -6.699 c 0 -0.176 -0.176 -1.195 -0.273 -1.594 l -0.055 -0.23 l -0.223 0.406 c -0.242 0.441 -0.727 1.508 -0.723 1.594 c 0 0.031 0.098 0.117 0.219 0.195 l 0.215 0.141 l 0.422 -0.172 c 0.352 -0.148 0.418 -0.203 0.418 -0.34 m -2.906 -0.07 c 0 -0.035 -0.117 -0.297 -0.258 -0.578 c -0.141 -0.281 -0.332 -0.676 -0.426 -0.871 c -0.094 -0.195 -0.188 -0.344 -0.203 -0.328 c -0.023 0.023 -0.316 1.633 -0.316 1.738 c 0 0.051 0.293 0.09 0.762 0.098 c 0.254 0.004 0.441 -0.02 0.441 -0.059" fill="#aaa"/><path d="m 9.145 24.367 c -0.348 -0.012 -0.707 -0.059 -0.797 -0.098 l -0.16 -0.078 v -4.992 c 0 -3.922 0.02 -5 0.09 -5.04 c 0.051 -0.031 0.25 -0.07 0.441 -0.086 l 0.355 -0.035 l 0.367 -1.824 c 0.203 -1 0.469 -2.328 0.59 -2.945 c 0.121 -0.617 0.254 -1.176 0.293 -1.242 c 0.059 -0.109 0.168 -0.121 1.039 -0.121 c 0.535 0 1.01 0.023 1.051 0.051 c 0.109 0.066 0.363 0.543 0.57 1.07 c 0.297 0.75 0.617 1.402 0.68 1.383 c 0.066 -0.02 0.656 -1.203 0.953 -1.906 c 0.102 -0.238 0.215 -0.469 0.254 -0.516 c 0.051 -0.059 0.359 -0.082 1.094 -0.082 h 1.023 l 0.09 0.215 c 0.086 0.195 0.484 2.332 0.785 4.195 c 0.273 1.688 0.324 1.887 0.508 1.93 c 0.18 0.043 0.594 -0.082 0.594 -0.18 c 0 -0.031 -0.098 -0.105 -0.215 -0.16 c -0.348 -0.168 -0.398 -0.359 -0.195 -0.738 c 0.266 -0.488 0.691 -1.09 0.805 -1.129 c 0.055 -0.02 0.293 0.086 0.531 0.234 c 0.238 0.148 0.566 0.305 0.723 0.344 c 0.465 0.117 0.902 -0.012 0.902 -0.27 c 0 -0.176 -0.145 -0.254 -0.75 -0.402 c -1.152 -0.281 -1.797 -0.695 -2.02 -1.293 c -0.152 -0.406 -0.109 -1.16 0.086 -1.535 c 0.465 -0.902 1.496 -1.457 2.586 -1.395 c 0.953 0.055 2.168 0.465 2.211 0.75 c 0.027 0.184 -0.598 1.27 -0.801 1.395 c -0.152 0.094 -0.195 0.086 -0.539 -0.074 c -0.402 -0.191 -0.988 -0.254 -1.133 -0.117 c -0.145 0.137 0.039 0.262 0.668 0.457 c 1.277 0.395 1.688 0.656 2.01 1.285 c 0.156 0.309 0.156 1.059 -0.004 1.5 c -0.137 0.391 -0.711 1.027 -1.031 1.152 c -0.277 0.105 -0.273 0.176 0.012 0.289 c 0.809 0.32 1.699 1.094 1.941 1.684 c 0.164 0.402 0.047 0.746 -0.395 1.16 c -0.313 0.293 -0.363 0.316 -0.684 0.316 c -0.367 -0.004 -0.645 -0.117 -1.82 -0.738 c -0.645 -0.344 -0.875 -0.41 -0.855 -0.258 c 0.008 0.055 0.105 0.309 0.215 0.559 c 0.227 0.523 0.402 0.66 1.348 1.035 c 1.145 0.449 1.309 0.531 1.711 0.82 c 0.477 0.344 0.742 0.785 0.902 1.5 c 0.195 0.852 0.086 1.586 -0.34 2.336 c -0.223 0.395 -0.699 0.813 -1.188 1.043 c -0.48 0.227 -1.707 0.48 -2.492 0.516 c -0.797 0.035 -0.977 0.004 -1.711 -0.297 l -0.41 -0.168 l -0.691 0.223 c -1.227 0.395 -2.23 0.344 -3.402 -0.18 l -0.516 -0.23 l -0.289 0.23 c -0.582 0.465 -0.609 0.473 -2.578 0.477 c -0.973 0.004 -2.059 -0.004 -2.41 -0.016 m 3.555 -2.766 c -0.02 -0.078 -0.117 -0.352 -0.219 -0.613 c -0.32 -0.848 -0.398 -1.813 -0.219 -2.742 c 0.055 -0.273 0.074 -0.523 0.043 -0.551 c -0.027 -0.027 -0.32 -0.043 -0.648 -0.031 l -0.598 0.02 l -0.016 2.035 l -0.02 2.035 l 0.762 0.02 c 0.906 0.023 0.965 0.012 0.914 -0.172 m 4.348 -0.746 c 0.156 -0.031 0.25 -0.098 0.297 -0.215 c 0.129 -0.316 0.43 -0.617 0.75 -0.75 c 0.234 -0.098 0.344 -0.191 0.422 -0.371 c 0.121 -0.266 0.148 -0.23 -0.402 -0.543 c -0.652 -0.371 -1.063 -1.055 -1.063 -1.773 c 0 -0.23 -0.023 -0.285 -0.129 -0.285 c -0.07 0 -0.188 0.043 -0.258 0.09 c -0.109 0.074 -0.125 0.156 -0.094 0.547 c 0.051 0.672 -0.055 1.621 -0.266 2.441 c -0.102 0.395 -0.16 0.742 -0.129 0.773 c 0.051 0.043 0.164 0.07 0.563 0.117 c 0.047 0.008 0.184 -0.008 0.309 -0.031 m 4.984 -0.168 c 0.188 -0.09 0.148 -0.156 -0.156 -0.27 c -0.211 -0.078 -0.301 -0.086 -0.348 -0.027 c -0.063 0.07 -0.109 0.27 -0.09 0.395 c 0.008 0.063 0.398 0 0.594 -0.098 m -6.703 -6.336 c 0.242 -0.102 0.453 -0.215 0.469 -0.25 c 0.039 -0.102 -0.309 -2.113 -0.379 -2.18 c -0.035 -0.035 -0.188 0.188 -0.355 0.527 c -0.336 0.668 -0.777 1.625 -0.777 1.688 c 0 0.043 0.504 0.395 0.566 0.395 c 0.02 0.004 0.234 -0.078 0.477 -0.18 m -2.461 -0.453 c 0 -0.18 -0.941 -2.09 -1 -2.035 c -0.074 0.07 -0.422 2 -0.375 2.078 c 0.023 0.035 0.344 0.059 0.711 0.059 c 0.563 0 0.668 -0.016 0.668 -0.102 m 8.98 -0.191 c 0.477 -0.137 1.012 -0.477 1.184 -0.758 c 0.199 -0.324 0.238 -1.094 0.066 -1.402 c -0.164 -0.297 -0.711 -0.602 -1.344 -0.754 c -1.035 -0.246 -1.371 -0.492 -1.371 -0.996 c 0 -0.684 0.703 -0.984 1.699 -0.734 c 0.215 0.055 0.414 0.098 0.441 0.098 c 0.055 0 0.289 -0.469 0.25 -0.504 c -0.012 -0.008 -0.289 -0.082 -0.621 -0.164 c -1.133 -0.273 -1.902 -0.145 -2.434 0.406 c -0.359 0.375 -0.438 0.645 -0.387 1.324 c 0.047 0.625 0.273 0.793 1.477 1.098 c 0.617 0.16 0.938 0.313 1.16 0.563 c 0.34 0.375 0.164 0.926 -0.383 1.203 c -0.379 0.195 -1.066 0.145 -1.617 -0.125 c -0.469 -0.223 -0.469 -0.223 -0.68 0.168 c -0.148 0.266 -0.094 0.348 0.34 0.5 c 0.711 0.258 1.492 0.281 2.219 0.078 m -11.11 -0.074 c 0.066 -0.07 0.5 -2.371 0.5 -2.668 c 0 -0.844 0.648 -0.871 0.965 -0.039 c 0.082 0.215 0.277 0.645 0.438 0.953 c 0.156 0.313 0.387 0.813 0.512 1.113 c 0.121 0.301 0.273 0.59 0.332 0.648 c 0.195 0.18 0.156 0.242 1.309 -2.219 c 0.555 -1.188 0.641 -1.277 0.973 -1.016 c 0.156 0.121 0.324 0.98 0.5 2.531 c 0.047 0.402 0.117 0.715 0.168 0.746 c 0.074 0.047 0.797 0.008 0.906 -0.051 c 0.023 -0.012 -0.031 -0.418 -0.121 -0.906 c -0.25 -1.367 -0.43 -2.398 -0.559 -3.266 c -0.066 -0.438 -0.141 -0.816 -0.168 -0.844 c -0.023 -0.027 -0.301 -0.066 -0.613 -0.09 l -0.566 -0.047 l -0.301 0.602 c -0.164 0.332 -0.371 0.789 -0.465 1.02 c -0.094 0.23 -0.301 0.664 -0.465 0.965 c -0.242 0.453 -0.32 0.547 -0.461 0.547 c -0.094 0 -0.203 -0.039 -0.246 -0.09 c -0.066 -0.074 -0.547 -1.148 -1.176 -2.629 l -0.152 -0.363 l -0.594 -0.02 c -0.324 -0.012 -0.617 0.004 -0.645 0.035 c -0.031 0.027 -0.09 0.289 -0.133 0.582 c -0.043 0.289 -0.234 1.289 -0.426 2.219 c -0.383 1.871 -0.449 2.281 -0.375 2.352 c 0.07 0.066 0.785 0.008 0.863 -0.066" fill="#dede00"/><path d="m 9.145 24.367 c -0.348 -0.012 -0.707 -0.059 -0.797 -0.098 l -0.16 -0.078 v -4.992 c 0 -3.922 0.02 -5 0.09 -5.04 c 0.051 -0.031 0.25 -0.07 0.441 -0.086 l 0.355 -0.035 l 0.367 -1.824 c 0.203 -1 0.469 -2.328 0.59 -2.945 c 0.121 -0.617 0.254 -1.176 0.293 -1.242 c 0.059 -0.109 0.168 -0.121 1.039 -0.121 c 0.535 0 1.01 0.023 1.051 0.051 c 0.109 0.066 0.363 0.543 0.57 1.07 c 0.297 0.75 0.617 1.402 0.68 1.383 c 0.066 -0.02 0.656 -1.203 0.953 -1.906 c 0.102 -0.238 0.215 -0.469 0.254 -0.516 c 0.051 -0.059 0.359 -0.082 1.094 -0.082 h 1.023 l 0.09 0.215 c 0.086 0.195 0.484 2.332 0.785 4.195 c 0.273 1.688 0.324 1.887 0.508 1.93 c 0.18 0.043 0.594 -0.082 0.594 -0.18 c 0 -0.031 -0.098 -0.105 -0.215 -0.16 c -0.348 -0.168 -0.398 -0.359 -0.195 -0.738 c 0.266 -0.488 0.691 -1.09 0.805 -1.129 c 0.055 -0.02 0.293 0.086 0.531 0.234 c 0.238 0.148 0.566 0.305 0.723 0.344 c 0.465 0.117 0.902 -0.012 0.902 -0.27 c 0 -0.176 -0.145 -0.254 -0.75 -0.402 c -1.152 -0.281 -1.797 -0.695 -2.02 -1.293 c -0.152 -0.406 -0.109 -1.16 0.086 -1.535 c 0.465 -0.902 1.496 -1.457 2.586 -1.395 c 0.953 0.055 2.168 0.465 2.211 0.75 c 0.027 0.184 -0.598 1.27 -0.801 1.395 c -0.152 0.094 -0.195 0.086 -0.539 -0.074 c -0.402 -0.191 -0.988 -0.254 -1.133 -0.117 c -0.145 0.137 0.039 0.262 0.668 0.457 c 1.277 0.395 1.688 0.656 2.01 1.285 c 0.156 0.309 0.156 1.059 -0.004 1.5 c -0.137 0.391 -0.711 1.027 -1.031 1.152 c -0.277 0.105 -0.273 0.176 0.012 0.289 c 0.809 0.32 1.699 1.094 1.941 1.684 c 0.164 0.402 0.047 0.746 -0.395 1.16 c -0.313 0.293 -0.363 0.316 -0.684 0.316 c -0.367 -0.004 -0.645 -0.117 -1.82 -0.738 c -0.645 -0.344 -0.875 -0.41 -0.855 -0.258 c 0.008 0.055 0.105 0.309 0.215 0.559 c 0.227 0.523 0.402 0.66 1.348 1.035 c 1.145 0.449 1.309 0.531 1.711 0.82 c 0.477 0.344 0.742 0.785 0.902 1.5 c 0.195 0.852 0.086 1.586 -0.34 2.336 c -0.223 0.395 -0.699 0.813 -1.188 1.043 c -0.48 0.227 -1.707 0.48 -2.492 0.516 c -0.797 0.035 -0.977 0.004 -1.711 -0.297 l -0.41 -0.168 l -0.691 0.223 c -1.227 0.395 -2.23 0.344 -3.402 -0.18 l -0.516 -0.23 l -0.289 0.23 c -0.582 0.465 -0.609 0.473 -2.578 0.477 c -0.973 0.004 -2.059 -0.004 -2.41 -0.016 m 12.727 -0.691 c 0.215 -0.035 0.691 -0.16 1.063 -0.277 c 0.559 -0.176 0.727 -0.262 0.984 -0.512 c 0.465 -0.441 0.668 -0.906 0.703 -1.602 c 0.023 -0.457 0 -0.672 -0.121 -1.043 c -0.223 -0.688 -0.566 -0.98 -1.742 -1.473 c -1.18 -0.496 -1.203 -0.496 -1.148 -0.043 c 0.027 0.191 0.047 0.488 0.047 0.664 c 0 0.207 0.031 0.313 0.09 0.313 c 0.199 0.004 0.813 0.324 0.926 0.488 c 0.352 0.504 0.137 0.883 -0.621 1.074 c -0.906 0.227 -1.883 0.051 -2.813 -0.512 c -0.496 -0.301 -0.934 -0.391 -1.148 -0.242 c -0.258 0.184 -0.348 1.094 -0.145 1.469 c 0.27 0.492 1.129 1.219 1.828 1.535 c 0.633 0.289 1.102 0.324 2.098 0.16 m -9.172 -2.074 c -0.02 -0.078 -0.117 -0.352 -0.219 -0.613 c -0.32 -0.848 -0.398 -1.813 -0.219 -2.742 c 0.055 -0.273 0.074 -0.523 0.043 -0.551 c -0.027 -0.027 -0.32 -0.043 -0.648 -0.031 l -0.598 0.02 l -0.02 2.035 l -0.016 2.035 l 0.762 0.02 c 0.906 0.023 0.965 0.012 0.914 -0.172 m 4.348 -0.746 c 0.156 -0.031 0.25 -0.098 0.297 -0.215 c 0.129 -0.316 0.43 -0.617 0.75 -0.75 c 0.234 -0.098 0.344 -0.191 0.422 -0.371 c 0.121 -0.266 0.148 -0.23 -0.402 -0.543 c -0.652 -0.371 -1.063 -1.055 -1.063 -1.773 c 0 -0.23 -0.027 -0.285 -0.129 -0.285 c -0.07 0 -0.188 0.043 -0.258 0.09 c -0.109 0.074 -0.125 0.156 -0.094 0.547 c 0.047 0.672 -0.055 1.621 -0.266 2.441 c -0.105 0.395 -0.16 0.742 -0.129 0.773 c 0.051 0.043 0.164 0.07 0.563 0.117 c 0.047 0.008 0.184 -0.008 0.309 -0.031 m 4.984 -0.168 c 0.188 -0.09 0.148 -0.156 -0.16 -0.27 c -0.207 -0.078 -0.297 -0.086 -0.348 -0.027 c -0.063 0.07 -0.105 0.27 -0.086 0.395 c 0.008 0.063 0.398 0 0.594 -0.098 m -2.73 -2.449 c 0.332 -0.598 0.371 -0.949 0.137 -1.273 c -0.504 -0.695 -0.145 -1.238 0.816 -1.238 c 0.621 0 1.41 0.266 2.465 0.832 c 0.672 0.363 0.996 0.426 1.199 0.234 c 0.078 -0.074 0.168 -0.215 0.195 -0.316 c 0.066 -0.25 -0.262 -0.816 -0.645 -1.109 c -0.734 -0.563 -1.41 -0.723 -3.086 -0.73 c -1.359 -0.004 -1.535 0.047 -2.051 0.605 c -0.469 0.512 -0.602 0.91 -0.59 1.801 c 0.008 0.566 0.039 0.793 0.121 0.914 c 0.152 0.219 0.957 0.762 1.086 0.738 c 0.059 -0.012 0.219 -0.215 0.352 -0.457 m -3.973 -3.887 c 0.242 -0.102 0.453 -0.215 0.469 -0.25 c 0.039 -0.102 -0.309 -2.113 -0.379 -2.18 c -0.035 -0.035 -0.188 0.188 -0.359 0.527 c -0.332 0.668 -0.773 1.625 -0.773 1.688 c 0 0.043 0.504 0.395 0.566 0.395 c 0.02 0.004 0.234 -0.078 0.477 -0.18 m -2.461 -0.453 c 0 -0.18 -0.941 -2.09 -1 -2.035 c -0.074 0.07 -0.422 2 -0.375 2.078 c 0.023 0.035 0.34 0.059 0.711 0.059 c 0.563 0 0.668 -0.016 0.668 -0.105 m 8.977 -0.188 c 0.48 -0.137 1.012 -0.477 1.188 -0.758 c 0.199 -0.324 0.234 -1.094 0.066 -1.402 c -0.164 -0.297 -0.711 -0.602 -1.348 -0.754 c -1.031 -0.246 -1.367 -0.492 -1.367 -0.996 c 0 -0.684 0.699 -0.984 1.699 -0.734 c 0.215 0.055 0.414 0.098 0.441 0.098 c 0.055 0 0.285 -0.469 0.25 -0.504 c -0.012 -0.008 -0.289 -0.082 -0.621 -0.164 c -1.133 -0.273 -1.906 -0.145 -2.434 0.406 c -0.359 0.375 -0.438 0.645 -0.387 1.324 c 0.047 0.625 0.273 0.789 1.473 1.098 c 0.617 0.156 0.938 0.313 1.164 0.563 c 0.34 0.375 0.164 0.926 -0.383 1.203 c -0.379 0.195 -1.066 0.141 -1.617 -0.125 c -0.469 -0.223 -0.469 -0.223 -0.684 0.168 c -0.145 0.266 -0.09 0.348 0.344 0.5 c 0.711 0.258 1.492 0.281 2.215 0.078 m -11.11 -0.074 c 0.066 -0.07 0.5 -2.371 0.5 -2.668 c 0 -0.844 0.648 -0.871 0.965 -0.039 c 0.082 0.215 0.277 0.645 0.434 0.953 c 0.16 0.313 0.391 0.813 0.512 1.113 c 0.125 0.301 0.273 0.59 0.336 0.648 c 0.191 0.18 0.156 0.242 1.305 -2.219 c 0.559 -1.188 0.645 -1.277 0.977 -1.016 c 0.152 0.121 0.324 0.98 0.5 2.531 c 0.047 0.402 0.113 0.715 0.164 0.746 c 0.078 0.047 0.801 0.008 0.91 -0.051 c 0.023 -0.012 -0.031 -0.422 -0.121 -0.906 c -0.254 -1.367 -0.43 -2.398 -0.559 -3.266 c -0.066 -0.438 -0.141 -0.82 -0.168 -0.844 c -0.023 -0.027 -0.301 -0.066 -0.613 -0.09 l -0.566 -0.047 l -0.301 0.602 c -0.164 0.332 -0.375 0.789 -0.465 1.02 c -0.094 0.23 -0.301 0.664 -0.465 0.965 c -0.242 0.453 -0.32 0.547 -0.461 0.547 c -0.094 0 -0.203 -0.039 -0.246 -0.09 c -0.07 -0.074 -0.547 -1.148 -1.176 -2.629 l -0.152 -0.363 l -0.594 -0.02 c -0.324 -0.012 -0.617 0.004 -0.645 0.031 c -0.031 0.031 -0.09 0.293 -0.133 0.586 c -0.043 0.289 -0.234 1.289 -0.426 2.219 c -0.383 1.871 -0.449 2.281 -0.375 2.352 c 0.07 0.066 0.785 0.008 0.863 -0.066" fill="#9000ab"/><path d="m 9.145 24.367 c -0.348 -0.012 -0.707 -0.059 -0.797 -0.098 l -0.16 -0.078 v -4.992 c 0 -3.922 0.02 -5 0.09 -5.04 c 0.051 -0.031 0.25 -0.07 0.441 -0.086 l 0.355 -0.035 l 0.367 -1.824 c 0.203 -1 0.469 -2.328 0.59 -2.945 c 0.121 -0.617 0.254 -1.176 0.293 -1.242 c 0.059 -0.109 0.168 -0.121 1.039 -0.121 c 0.535 0 1.01 0.023 1.051 0.051 c 0.109 0.066 0.363 0.543 0.57 1.07 c 0.297 0.75 0.617 1.402 0.68 1.383 c 0.066 -0.02 0.656 -1.203 0.953 -1.906 c 0.102 -0.238 0.215 -0.469 0.254 -0.516 c 0.051 -0.059 0.359 -0.082 1.094 -0.082 h 1.023 l 0.09 0.215 c 0.086 0.195 0.484 2.332 0.785 4.195 c 0.273 1.688 0.324 1.887 0.508 1.93 c 0.18 0.043 0.594 -0.082 0.594 -0.18 c 0 -0.031 -0.098 -0.105 -0.215 -0.16 c -0.348 -0.168 -0.398 -0.359 -0.195 -0.738 c 0.266 -0.488 0.691 -1.09 0.805 -1.129 c 0.055 -0.02 0.293 0.086 0.531 0.234 c 0.238 0.148 0.566 0.305 0.723 0.344 c 0.465 0.117 0.902 -0.012 0.902 -0.27 c 0 -0.176 -0.145 -0.254 -0.75 -0.402 c -1.152 -0.281 -1.797 -0.695 -2.02 -1.293 c -0.152 -0.406 -0.109 -1.16 0.086 -1.535 c 0.465 -0.902 1.496 -1.457 2.586 -1.395 c 0.953 0.055 2.168 0.465 2.211 0.75 c 0.027 0.184 -0.598 1.27 -0.801 1.395 c -0.152 0.094 -0.195 0.086 -0.539 -0.074 c -0.402 -0.191 -0.988 -0.254 -1.133 -0.117 c -0.145 0.137 0.039 0.262 0.668 0.457 c 1.277 0.395 1.688 0.656 2.01 1.285 c 0.156 0.309 0.156 1.059 -0.004 1.5 c -0.137 0.391 -0.711 1.027 -1.031 1.152 c -0.277 0.105 -0.273 0.176 0.012 0.289 c 0.809 0.32 1.699 1.094 1.941 1.684 c 0.164 0.402 0.047 0.746 -0.395 1.16 c -0.313 0.293 -0.363 0.316 -0.684 0.316 c -0.367 -0.004 -0.645 -0.117 -1.82 -0.738 c -0.645 -0.344 -0.875 -0.41 -0.855 -0.258 c 0.008 0.055 0.105 0.309 0.215 0.559 c 0.227 0.523 0.402 0.66 1.348 1.035 c 1.145 0.449 1.309 0.531 1.711 0.82 c 0.477 0.344 0.742 0.785 0.902 1.5 c 0.195 0.852 0.086 1.586 -0.34 2.336 c -0.223 0.395 -0.699 0.813 -1.188 1.043 c -0.48 0.227 -1.707 0.48 -2.492 0.516 c -0.797 0.035 -0.977 0.004 -1.711 -0.297 l -0.41 -0.168 l -0.691 0.223 c -1.227 0.395 -2.23 0.344 -3.402 -0.18 l -0.516 -0.23 l -0.289 0.23 c -0.582 0.465 -0.609 0.473 -2.578 0.477 c -0.973 0.004 -2.059 -0.004 -2.41 -0.016 m 12.727 -0.691 c 0.215 -0.035 0.691 -0.16 1.063 -0.277 c 0.559 -0.176 0.727 -0.262 0.984 -0.512 c 0.465 -0.441 0.668 -0.906 0.703 -1.602 c 0.023 -0.457 0 -0.672 -0.121 -1.043 c -0.223 -0.688 -0.566 -0.98 -1.742 -1.473 c -1.18 -0.496 -1.203 -0.496 -1.148 -0.043 c 0.027 0.191 0.047 0.488 0.047 0.664 c 0 0.207 0.031 0.313 0.09 0.313 c 0.199 0.004 0.813 0.324 0.926 0.488 c 0.352 0.504 0.137 0.883 -0.621 1.074 c -0.906 0.227 -1.883 0.051 -2.813 -0.512 c -0.496 -0.301 -0.934 -0.391 -1.148 -0.242 c -0.258 0.184 -0.348 1.094 -0.145 1.469 c 0.27 0.492 1.129 1.219 1.828 1.535 c 0.633 0.289 1.102 0.324 2.098 0.16 m -5.211 -0.527 c 0.672 -0.09 1.027 -0.184 1.027 -0.273 c 0 -0.043 -0.082 -0.176 -0.18 -0.297 c -0.203 -0.246 -0.387 -0.688 -0.387 -0.926 c 0 -0.145 -0.031 -0.156 -0.336 -0.16 c -0.188 0 -0.453 -0.016 -0.598 -0.039 l -0.262 -0.039 l -0.32 0.621 c -0.176 0.34 -0.391 0.719 -0.473 0.836 c -0.164 0.234 -0.148 0.254 0.25 0.301 c 0.406 0.051 0.785 0.043 1.277 -0.023 m -3.961 -1.547 c -0.02 -0.078 -0.117 -0.352 -0.219 -0.613 c -0.32 -0.848 -0.398 -1.813 -0.219 -2.742 c 0.055 -0.273 0.074 -0.523 0.043 -0.551 c -0.027 -0.027 -0.32 -0.043 -0.648 -0.031 l -0.598 0.02 l -0.02 2.035 l -0.016 2.035 l 0.762 0.02 c 0.906 0.023 0.965 0.012 0.914 -0.172 m 0.875 -0.805 c 0.156 -0.297 0.176 -0.441 0.215 -1.426 c 0.035 -0.965 0.059 -1.125 0.199 -1.379 c 0.773 -1.371 1.762 -2.133 2.762 -2.133 h 0.414 l 0.301 -0.539 c 0.168 -0.297 0.289 -0.551 0.27 -0.57 c -0.02 -0.016 -0.27 -0.047 -0.555 -0.066 c -0.625 -0.043 -1.5 0.137 -2.01 0.418 c -0.758 0.414 -1.68 1.492 -1.977 2.313 c -0.211 0.582 -0.344 1.492 -0.301 2.09 c 0.039 0.527 0.219 1.477 0.305 1.609 c 0.078 0.113 0.207 0.004 0.379 -0.32 m 3.473 0.063 c 0.156 -0.031 0.25 -0.098 0.297 -0.215 c 0.129 -0.316 0.43 -0.617 0.75 -0.75 c 0.234 -0.098 0.344 -0.191 0.422 -0.371 c 0.121 -0.266 0.148 -0.23 -0.402 -0.543 c -0.652 -0.371 -1.063 -1.055 -1.063 -1.773 c 0 -0.23 -0.027 -0.285 -0.129 -0.285 c -0.07 0 -0.188 0.043 -0.258 0.09 c -0.109 0.074 -0.125 0.156 -0.094 0.547 c 0.047 0.672 -0.055 1.621 -0.266 2.441 c -0.105 0.395 -0.16 0.742 -0.129 0.773 c 0.051 0.043 0.164 0.07 0.563 0.117 c 0.047 0.008 0.184 -0.008 0.309 -0.031 m 4.984 -0.168 c 0.188 -0.09 0.148 -0.156 -0.16 -0.27 c -0.207 -0.078 -0.297 -0.086 -0.344 -0.027 c -0.066 0.07 -0.109 0.27 -0.09 0.395 c 0.008 0.063 0.398 0 0.594 -0.098 m -1.352 -0.434 c 0.375 -0.797 0.246 -2.391 -0.273 -3.355 c -0.211 -0.391 -0.273 -0.371 -0.156 0.043 c 0.164 0.574 -0.063 1.25 -0.789 2.363 c -0.395 0.605 -0.387 0.586 -0.203 0.73 c 0.215 0.172 0.98 0.523 1.145 0.527 c 0.086 0.004 0.176 -0.098 0.277 -0.309 m -1.379 -2.02 c 0.332 -0.598 0.371 -0.953 0.137 -1.273 c -0.504 -0.695 -0.145 -1.238 0.816 -1.238 c 0.621 0 1.41 0.266 2.469 0.832 c 0.672 0.363 0.992 0.426 1.195 0.234 c 0.082 -0.074 0.168 -0.219 0.195 -0.316 c 0.066 -0.25 -0.262 -0.816 -0.645 -1.109 c -0.734 -0.563 -1.41 -0.723 -3.086 -0.73 c -1.359 -0.008 -1.535 0.047 -2.051 0.605 c -0.469 0.512 -0.598 0.91 -0.59 1.801 c 0.008 0.566 0.039 0.793 0.125 0.914 c 0.152 0.219 0.953 0.762 1.086 0.738 c 0.059 -0.012 0.215 -0.215 0.348 -0.457 m -3.973 -3.887 c 0.242 -0.102 0.453 -0.215 0.469 -0.25 c 0.039 -0.102 -0.309 -2.113 -0.379 -2.184 c -0.035 -0.031 -0.188 0.191 -0.355 0.531 c -0.336 0.668 -0.777 1.625 -0.777 1.688 c 0 0.043 0.504 0.395 0.566 0.395 c 0.02 0 0.234 -0.082 0.477 -0.18 m -2.461 -0.457 c 0 -0.176 -0.941 -2.086 -1 -2.031 c -0.074 0.07 -0.422 2 -0.375 2.078 c 0.023 0.035 0.34 0.059 0.711 0.059 c 0.563 0 0.668 -0.016 0.668 -0.105 m 8.977 -0.188 c 0.48 -0.137 1.016 -0.477 1.188 -0.758 c 0.199 -0.324 0.238 -1.094 0.066 -1.402 c -0.164 -0.297 -0.711 -0.605 -1.348 -0.754 c -1.031 -0.246 -1.367 -0.496 -1.367 -1 c 0 -0.68 0.703 -0.98 1.699 -0.73 c 0.215 0.055 0.414 0.098 0.441 0.098 c 0.055 0 0.285 -0.469 0.25 -0.504 c -0.012 -0.008 -0.289 -0.082 -0.621 -0.164 c -1.133 -0.273 -1.902 -0.145 -2.434 0.406 c -0.359 0.375 -0.438 0.645 -0.387 1.324 c 0.047 0.625 0.273 0.789 1.477 1.098 c 0.617 0.156 0.934 0.313 1.16 0.563 c 0.34 0.375 0.164 0.926 -0.383 1.203 c -0.379 0.195 -1.066 0.141 -1.617 -0.125 c -0.469 -0.223 -0.469 -0.223 -0.68 0.168 c -0.148 0.266 -0.094 0.348 0.34 0.5 c 0.711 0.254 1.492 0.281 2.215 0.078 m -11.11 -0.074 c 0.066 -0.07 0.5 -2.371 0.5 -2.668 c 0 -0.848 0.648 -0.871 0.965 -0.039 c 0.082 0.215 0.277 0.645 0.434 0.953 c 0.16 0.313 0.391 0.809 0.512 1.113 c 0.125 0.301 0.277 0.59 0.336 0.648 c 0.191 0.18 0.156 0.242 1.305 -2.219 c 0.559 -1.188 0.645 -1.277 0.977 -1.02 c 0.152 0.125 0.324 0.984 0.5 2.535 c 0.047 0.402 0.117 0.715 0.168 0.746 c 0.074 0.047 0.797 0.004 0.906 -0.051 c 0.023 -0.016 -0.031 -0.422 -0.121 -0.906 c -0.254 -1.367 -0.43 -2.398 -0.559 -3.27 c -0.066 -0.438 -0.141 -0.816 -0.168 -0.84 c -0.023 -0.027 -0.301 -0.066 -0.613 -0.094 l -0.566 -0.043 l -0.301 0.602 c -0.164 0.328 -0.375 0.789 -0.465 1.02 c -0.094 0.23 -0.301 0.664 -0.465 0.965 c -0.242 0.453 -0.32 0.547 -0.461 0.547 c -0.094 0 -0.203 -0.039 -0.246 -0.09 c -0.066 -0.074 -0.547 -1.148 -1.176 -2.629 l -0.152 -0.363 l -0.594 -0.02 c -0.324 -0.012 -0.617 0.004 -0.645 0.031 c -0.031 0.031 -0.09 0.293 -0.133 0.586 c -0.043 0.289 -0.234 1.289 -0.426 2.219 c -0.383 1.867 -0.449 2.281 -0.375 2.352 c 0.07 0.066 0.785 0.008 0.863 -0.07" fill="#606060"/><path d="m 10.602 24.281 c -1.23 -0.02 -2.273 -0.059 -2.324 -0.09 c -0.07 -0.039 -0.086 -1.117 -0.086 -5.02 v -4.961 l 0.219 -0.039 c 0.121 -0.023 0.328 -0.043 0.461 -0.043 c 0.211 0 0.242 -0.023 0.305 -0.246 c 0.074 -0.27 0.555 -2.629 0.926 -4.559 c 0.129 -0.656 0.262 -1.234 0.301 -1.277 c 0.102 -0.117 1.926 -0.117 2.02 0 c 0.066 0.082 0.207 0.387 0.816 1.773 c 0.344 0.781 0.484 0.891 0.625 0.484 c 0.051 -0.141 0.227 -0.52 0.391 -0.848 c 0.164 -0.328 0.332 -0.703 0.379 -0.832 c 0.043 -0.125 0.141 -0.328 0.219 -0.445 l 0.141 -0.215 h 0.949 c 0.676 0 0.969 0.023 1.02 0.082 c 0.066 0.078 0.316 1.398 0.898 4.75 c 0.152 0.887 0.277 1.438 0.336 1.473 c 0.219 0.129 0.91 -0.027 0.91 -0.207 c 0 -0.035 -0.125 -0.137 -0.277 -0.227 c -0.336 -0.199 -0.367 -0.273 -0.246 -0.559 c 0.145 -0.332 0.742 -1.203 0.824 -1.203 c 0.039 0 0.223 0.105 0.41 0.23 c 0.594 0.41 1.156 0.527 1.566 0.328 c 0.18 -0.086 0.207 -0.137 0.191 -0.313 c -0.027 -0.234 -0.137 -0.289 -1.281 -0.617 c -0.703 -0.199 -1.18 -0.5 -1.375 -0.875 c -0.082 -0.156 -0.137 -0.445 -0.152 -0.789 c -0.023 -0.469 -0.004 -0.59 0.145 -0.898 c 0.098 -0.195 0.273 -0.461 0.395 -0.59 c 0.238 -0.254 0.902 -0.613 1.27 -0.684 c 0.129 -0.027 0.25 -0.074 0.27 -0.109 c 0.055 -0.078 0.711 -0.078 0.867 0.004 c 0.07 0.035 0.332 0.113 0.586 0.168 c 0.559 0.129 1.191 0.391 1.242 0.52 c 0.023 0.051 -0.125 0.383 -0.324 0.73 c -0.406 0.711 -0.488 0.758 -0.938 0.508 c -0.488 -0.27 -1.258 -0.23 -1.258 0.063 c 0 0.176 0.199 0.285 0.914 0.5 c 0.328 0.098 0.75 0.246 0.934 0.336 c 0.387 0.184 0.805 0.609 0.922 0.941 c 0.125 0.352 0.051 1.195 -0.137 1.555 c -0.199 0.387 -0.734 0.895 -1 0.949 c -0.293 0.059 -0.281 0.262 0.02 0.359 c 0.512 0.168 1.195 0.625 1.578 1.055 c 0.543 0.609 0.605 1.105 0.207 1.555 c -0.566 0.633 -0.898 0.602 -2.398 -0.215 c -0.734 -0.402 -1.125 -0.535 -1.203 -0.414 c -0.023 0.035 0.047 0.254 0.156 0.488 c 0.113 0.23 0.238 0.504 0.285 0.605 c 0.063 0.145 0.25 0.258 0.914 0.551 c 0.457 0.203 1.055 0.469 1.328 0.59 c 0.891 0.395 1.281 0.832 1.508 1.691 c 0.313 1.195 0.004 2.375 -0.789 3 c -0.5 0.398 -0.805 0.531 -1.711 0.742 c -1.43 0.332 -2.254 0.293 -3.176 -0.145 l -0.348 -0.164 l -0.332 0.129 c -0.805 0.316 -1.094 0.375 -1.852 0.375 c -0.633 0 -0.828 -0.031 -1.312 -0.191 c -0.309 -0.102 -0.648 -0.242 -0.754 -0.313 c -0.27 -0.18 -0.371 -0.156 -0.797 0.168 c -0.266 0.203 -0.496 0.316 -0.75 0.367 c -0.199 0.039 -0.367 0.066 -0.379 0.059 c -0.008 -0.012 -1.016 -0.031 -2.246 -0.051 m 11.742 -0.637 c 0.984 -0.238 1.367 -0.418 1.75 -0.828 c 0.48 -0.516 0.648 -1.02 0.598 -1.813 c -0.078 -1.25 -0.449 -1.688 -1.949 -2.305 c -0.516 -0.215 -1 -0.387 -1.078 -0.387 c -0.133 0 -0.137 0.035 -0.102 0.645 c 0.023 0.355 0.051 0.68 0.063 0.715 c 0.012 0.035 0.184 0.121 0.383 0.188 c 0.406 0.137 0.789 0.492 0.789 0.734 c 0 0.461 -0.68 0.738 -1.695 0.688 c -0.723 -0.039 -1.258 -0.203 -1.855 -0.574 c -0.641 -0.402 -1.082 -0.438 -1.313 -0.109 c -0.152 0.219 -0.211 1.012 -0.098 1.332 c 0.215 0.609 1.727 1.719 2.566 1.887 c 0.426 0.082 1.172 0.016 1.941 -0.172 m -5.68 -0.496 c 0.672 -0.09 1.027 -0.184 1.027 -0.273 c 0 -0.043 -0.078 -0.176 -0.18 -0.297 c -0.203 -0.246 -0.387 -0.688 -0.387 -0.926 c 0 -0.145 -0.027 -0.156 -0.336 -0.16 c -0.184 0 -0.453 -0.016 -0.598 -0.039 l -0.258 -0.039 l -0.324 0.621 c -0.176 0.34 -0.387 0.715 -0.473 0.836 c -0.164 0.234 -0.148 0.254 0.254 0.301 c 0.406 0.051 0.781 0.043 1.273 -0.023 m -3.875 -1.344 c 0.059 -0.063 0.035 -0.188 -0.094 -0.48 c -0.332 -0.754 -0.41 -1.27 -0.363 -2.34 c 0.023 -0.535 0.051 -1.063 0.063 -1.172 l 0.016 -0.195 l -0.672 -0.02 c -0.57 -0.02 -0.684 -0.004 -0.762 0.094 c -0.066 0.086 -0.09 0.594 -0.09 2.055 c 0 1.672 0.016 1.953 0.113 2.043 c 0.148 0.137 1.672 0.152 1.789 0.016 m 0.789 -1.01 c 0.156 -0.297 0.18 -0.438 0.215 -1.422 c 0.035 -0.969 0.059 -1.129 0.203 -1.383 c 0.773 -1.371 1.758 -2.133 2.758 -2.133 h 0.418 l 0.301 -0.539 c 0.164 -0.297 0.285 -0.551 0.266 -0.566 c -0.016 -0.02 -0.266 -0.051 -0.555 -0.07 c -0.625 -0.043 -1.5 0.137 -2.01 0.418 c -0.758 0.414 -1.684 1.496 -1.98 2.313 c -0.211 0.582 -0.34 1.492 -0.297 2.09 c 0.035 0.527 0.219 1.477 0.305 1.609 c 0.074 0.113 0.203 0.004 0.375 -0.32 m 3.711 0.016 c 0.086 -0.09 0.246 -0.297 0.355 -0.465 c 0.156 -0.238 0.262 -0.324 0.484 -0.387 c 0.313 -0.086 0.461 -0.242 0.527 -0.563 c 0.039 -0.188 0.02 -0.215 -0.336 -0.402 c -0.48 -0.25 -0.949 -0.723 -1.047 -1.055 c -0.043 -0.141 -0.074 -0.422 -0.074 -0.625 c -0.004 -0.199 -0.039 -0.398 -0.082 -0.438 c -0.082 -0.078 -0.457 -0.012 -0.574 0.102 c -0.035 0.031 -0.074 0.547 -0.086 1.145 c -0.02 0.918 -0.051 1.195 -0.211 1.781 c -0.105 0.383 -0.18 0.754 -0.168 0.824 c 0.023 0.156 0.234 0.223 0.715 0.23 c 0.273 0.008 0.371 -0.023 0.496 -0.148 m 4.836 -0.07 c 0.098 -0.059 0.176 -0.137 0.176 -0.176 c 0 -0.07 -0.582 -0.328 -0.746 -0.328 c -0.113 0 -0.277 0.43 -0.215 0.574 c 0.051 0.133 0.523 0.09 0.785 -0.07 m -1.441 -0.484 c 0.379 -0.797 0.25 -2.391 -0.273 -3.355 c -0.211 -0.391 -0.273 -0.371 -0.152 0.043 c 0.164 0.574 -0.063 1.25 -0.793 2.367 c -0.395 0.602 -0.387 0.582 -0.203 0.727 c 0.219 0.172 0.98 0.523 1.148 0.527 c 0.086 0.004 0.176 -0.098 0.273 -0.309 m -1.313 -1.992 c 0.344 -0.672 0.383 -1.01 0.145 -1.27 c -0.23 -0.258 -0.301 -0.559 -0.188 -0.809 c 0.293 -0.668 1.754 -0.48 3.355 0.43 c 0.516 0.293 0.848 0.398 1.078 0.344 c 0.203 -0.047 0.453 -0.395 0.453 -0.637 c 0 -0.238 -0.344 -0.715 -0.715 -1 c -0.742 -0.566 -1.5 -0.746 -3.148 -0.75 c -1.035 -0.004 -1.16 0.008 -1.422 0.141 c -0.496 0.246 -0.957 0.785 -1.129 1.316 c -0.145 0.445 -0.145 1.691 0 1.949 c 0.125 0.234 1.07 0.871 1.211 0.82 c 0.059 -0.02 0.219 -0.262 0.359 -0.535 m -3.988 -3.863 c 0.262 -0.109 0.488 -0.238 0.504 -0.281 c 0.059 -0.152 -0.352 -2.391 -0.445 -2.418 c -0.09 -0.027 -0.332 0.418 -0.98 1.805 c -0.172 0.363 -0.313 0.672 -0.313 0.68 c 0 0.027 0.668 0.414 0.715 0.414 c 0.027 0 0.258 -0.09 0.52 -0.199 m -2.402 -0.402 c 0.027 -0.039 -0.109 -0.406 -0.309 -0.813 c -0.195 -0.406 -0.438 -0.91 -0.535 -1.121 c -0.168 -0.355 -0.273 -0.453 -0.355 -0.328 c -0.074 0.113 -0.414 2.133 -0.375 2.23 c 0.035 0.086 0.18 0.105 0.785 0.105 c 0.461 0 0.762 -0.031 0.789 -0.074 m 9.332 -0.309 c 0.82 -0.379 1.09 -0.82 1.039 -1.688 c -0.02 -0.316 -0.07 -0.5 -0.172 -0.633 c -0.215 -0.27 -0.816 -0.586 -1.359 -0.715 c -0.688 -0.16 -1 -0.297 -1.156 -0.504 c -0.199 -0.258 -0.176 -0.547 0.066 -0.801 c 0.176 -0.184 0.258 -0.215 0.637 -0.238 c 0.293 -0.02 0.555 0.008 0.805 0.082 l 0.371 0.113 l 0.164 -0.188 c 0.227 -0.262 0.281 -0.488 0.137 -0.586 c -0.063 -0.043 -0.438 -0.133 -0.832 -0.195 c -1.043 -0.172 -1.715 -0.07 -2.195 0.34 c -0.488 0.414 -0.59 0.629 -0.594 1.289 c -0.004 0.488 0.02 0.609 0.141 0.766 c 0.203 0.258 0.563 0.473 0.91 0.551 c 1.262 0.289 1.773 0.578 1.773 1.012 c 0 0.754 -1.055 1.063 -2.023 0.594 c -0.238 -0.117 -0.473 -0.211 -0.52 -0.211 c -0.086 0 -0.395 0.539 -0.395 0.695 c 0 0.133 0.273 0.289 0.762 0.438 c 0.32 0.098 0.578 0.121 1.191 0.109 c 0.719 -0.016 0.816 -0.031 1.25 -0.234 m -11.434 0.031 c 0.043 -0.051 0.195 -0.758 0.336 -1.578 c 0.141 -0.816 0.277 -1.527 0.309 -1.582 c 0.105 -0.199 0.316 -0.109 0.477 0.199 c 0.203 0.391 0.824 1.73 1.012 2.176 c 0.297 0.707 0.418 0.883 0.613 0.859 c 0.184 -0.02 0.195 -0.039 1.34 -2.375 c 0.223 -0.453 0.438 -0.863 0.477 -0.91 c 0.102 -0.117 0.25 -0.102 0.328 0.035 c 0.07 0.129 0.328 1.699 0.398 2.461 c 0.074 0.793 0.082 0.805 0.691 0.801 c 0.281 0 0.555 -0.023 0.605 -0.055 c 0.074 -0.043 0.031 -0.41 -0.223 -1.84 c -0.176 -0.98 -0.371 -2.129 -0.438 -2.551 c -0.063 -0.422 -0.137 -0.797 -0.164 -0.836 c -0.059 -0.082 -1.129 -0.164 -1.305 -0.098 c -0.121 0.043 -0.402 0.539 -0.703 1.238 c -0.078 0.18 -0.305 0.664 -0.5 1.074 c -0.496 1.031 -0.598 1.016 -1.074 -0.148 c -0.637 -1.563 -0.922 -2.145 -1.066 -2.184 c -0.277 -0.066 -1.074 -0.039 -1.191 0.047 c -0.078 0.055 -0.172 0.398 -0.297 1.078 c -0.102 0.547 -0.309 1.59 -0.461 2.32 c -0.25 1.199 -0.316 1.629 -0.297 1.871 c 0.012 0.121 1.027 0.117 1.133 -0.004" fill="#db1820"/><path d="m 10.602 24.281 c -1.23 -0.02 -2.273 -0.059 -2.324 -0.09 c -0.07 -0.039 -0.086 -1.117 -0.086 -5.02 v -4.961 l 0.219 -0.039 c 0.121 -0.023 0.328 -0.043 0.461 -0.043 c 0.211 0 0.242 -0.023 0.305 -0.246 c 0.074 -0.27 0.555 -2.629 0.926 -4.559 c 0.129 -0.656 0.262 -1.234 0.301 -1.277 c 0.102 -0.117 1.926 -0.117 2.02 0 c 0.066 0.082 0.207 0.387 0.816 1.773 c 0.344 0.781 0.484 0.891 0.625 0.484 c 0.051 -0.141 0.227 -0.52 0.391 -0.848 c 0.164 -0.328 0.332 -0.703 0.379 -0.832 c 0.043 -0.125 0.141 -0.328 0.219 -0.445 l 0.141 -0.215 h 0.949 c 0.676 0 0.969 0.023 1.02 0.082 c 0.066 0.078 0.316 1.398 0.898 4.75 c 0.152 0.887 0.277 1.438 0.336 1.473 c 0.219 0.129 0.91 -0.027 0.91 -0.207 c 0 -0.035 -0.125 -0.137 -0.277 -0.227 c -0.336 -0.199 -0.367 -0.273 -0.246 -0.559 c 0.145 -0.332 0.742 -1.203 0.824 -1.203 c 0.039 0 0.223 0.105 0.41 0.23 c 0.594 0.41 1.156 0.527 1.566 0.328 c 0.18 -0.086 0.207 -0.137 0.191 -0.313 c -0.027 -0.234 -0.137 -0.289 -1.281 -0.617 c -0.703 -0.199 -1.18 -0.5 -1.375 -0.875 c -0.082 -0.156 -0.137 -0.445 -0.152 -0.789 c -0.023 -0.469 -0.004 -0.59 0.145 -0.898 c 0.098 -0.195 0.273 -0.461 0.395 -0.59 c 0.238 -0.254 0.902 -0.613 1.27 -0.684 c 0.129 -0.027 0.25 -0.074 0.27 -0.109 c 0.055 -0.078 0.711 -0.078 0.867 0.004 c 0.07 0.035 0.332 0.113 0.586 0.168 c 0.559 0.129 1.191 0.391 1.242 0.52 c 0.023 0.051 -0.125 0.383 -0.324 0.73 c -0.406 0.711 -0.488 0.758 -0.938 0.508 c -0.488 -0.27 -1.258 -0.23 -1.258 0.063 c 0 0.176 0.199 0.285 0.914 0.5 c 0.328 0.098 0.75 0.246 0.934 0.336 c 0.387 0.184 0.805 0.609 0.922 0.941 c 0.125 0.352 0.051 1.195 -0.137 1.555 c -0.199 0.387 -0.734 0.895 -1 0.949 c -0.293 0.059 -0.281 0.262 0.02 0.359 c 0.512 0.168 1.195 0.625 1.578 1.055 c 0.543 0.609 0.605 1.105 0.207 1.555 c -0.566 0.633 -0.898 0.602 -2.398 -0.215 c -0.734 -0.402 -1.125 -0.535 -1.203 -0.414 c -0.023 0.035 0.047 0.254 0.156 0.488 c 0.113 0.23 0.238 0.504 0.285 0.605 c 0.063 0.145 0.25 0.258 0.914 0.551 c 0.457 0.203 1.055 0.469 1.328 0.59 c 0.891 0.395 1.281 0.832 1.508 1.691 c 0.313 1.195 0.004 2.375 -0.789 3 c -0.5 0.398 -0.805 0.531 -1.711 0.742 c -1.43 0.332 -2.254 0.293 -3.176 -0.145 l -0.348 -0.164 l -0.332 0.129 c -0.805 0.316 -1.094 0.375 -1.852 0.375 c -0.633 0 -0.828 -0.031 -1.312 -0.191 c -0.309 -0.102 -0.648 -0.242 -0.754 -0.313 c -0.27 -0.18 -0.371 -0.156 -0.797 0.168 c -0.266 0.203 -0.496 0.316 -0.75 0.367 c -0.199 0.039 -0.367 0.066 -0.379 0.059 c -0.008 -0.012 -1.016 -0.031 -2.246 -0.051 m 2.773 -0.57 c 0.098 -0.047 0.371 -0.277 0.602 -0.508 c 0.758 -0.758 1.477 -2.219 1.883 -3.813 c 0.145 -0.586 0.219 -1.879 0.109 -1.98 c -0.094 -0.09 -0.504 0.164 -0.941 0.578 l -0.418 0.395 l -0.008 0.789 c -0.004 0.621 -0.043 0.887 -0.164 1.246 c -0.23 0.672 -0.695 1.395 -1.059 1.656 l -0.309 0.219 l -1.25 -0.02 l -1.246 -0.016 l -0.09 -0.168 c -0.07 -0.121 -0.09 -0.742 -0.094 -2.445 c 0 -2.703 -0.055 -2.527 0.781 -2.527 c 0.301 0 0.742 -0.02 0.984 -0.043 l 0.438 -0.043 l 0.258 -0.438 c 0.352 -0.59 0.539 -0.828 1.039 -1.313 l 0.426 -0.414 l -0.406 -0.172 l -0.402 -0.176 l -2.25 0.023 c -1.238 0.012 -2.289 0.047 -2.34 0.074 c -0.066 0.043 -0.086 1.043 -0.086 4.625 v 4.566 l 0.512 0.027 c 1.059 0.051 3.84 -0.035 4.03 -0.125 m 8.969 -0.066 c 0.984 -0.238 1.367 -0.418 1.75 -0.828 c 0.48 -0.516 0.648 -1.02 0.598 -1.813 c -0.078 -1.25 -0.449 -1.688 -1.949 -2.305 c -0.516 -0.215 -1 -0.387 -1.078 -0.387 c -0.133 0 -0.137 0.035 -0.102 0.645 c 0.023 0.355 0.051 0.68 0.063 0.715 c 0.012 0.035 0.184 0.121 0.383 0.188 c 0.406 0.137 0.789 0.492 0.789 0.734 c 0 0.461 -0.68 0.738 -1.695 0.688 c -0.723 -0.039 -1.258 -0.203 -1.855 -0.574 c -0.641 -0.402 -1.082 -0.438 -1.313 -0.109 c -0.152 0.219 -0.211 1.012 -0.098 1.332 c 0.215 0.609 1.727 1.719 2.566 1.887 c 0.426 0.082 1.172 0.016 1.941 -0.172 m -5.68 -0.496 c 0.672 -0.09 1.027 -0.184 1.027 -0.273 c 0 -0.043 -0.078 -0.176 -0.18 -0.297 c -0.203 -0.246 -0.387 -0.688 -0.387 -0.926 c 0 -0.145 -0.027 -0.156 -0.336 -0.16 c -0.184 0 -0.453 -0.016 -0.598 -0.039 l -0.258 -0.039 l -0.324 0.621 c -0.176 0.34 -0.387 0.715 -0.473 0.836 c -0.164 0.234 -0.148 0.254 0.254 0.301 c 0.406 0.051 0.781 0.043 1.273 -0.023 m -3.875 -1.344 c 0.059 -0.063 0.035 -0.188 -0.094 -0.48 c -0.332 -0.754 -0.41 -1.27 -0.363 -2.34 c 0.023 -0.535 0.051 -1.063 0.063 -1.172 l 0.016 -0.195 l -0.672 -0.02 c -0.57 -0.02 -0.684 -0.004 -0.762 0.094 c -0.066 0.086 -0.09 0.594 -0.09 2.055 c 0 1.672 0.016 1.953 0.113 2.043 c 0.148 0.137 1.672 0.152 1.789 0.016 m 0.789 -1.01 c 0.156 -0.297 0.18 -0.438 0.215 -1.422 c 0.035 -0.969 0.059 -1.129 0.203 -1.383 c 0.773 -1.371 1.758 -2.133 2.758 -2.133 h 0.418 l 0.301 -0.539 c 0.164 -0.297 0.285 -0.551 0.266 -0.566 c -0.016 -0.02 -0.266 -0.051 -0.555 -0.07 c -0.625 -0.043 -1.5 0.137 -2.01 0.418 c -0.758 0.414 -1.684 1.496 -1.98 2.313 c -0.211 0.582 -0.34 1.492 -0.297 2.09 c 0.035 0.527 0.219 1.477 0.305 1.609 c 0.074 0.113 0.203 0.004 0.375 -0.32 m 3.711 0.016 c 0.086 -0.09 0.246 -0.297 0.355 -0.465 c 0.156 -0.238 0.262 -0.324 0.484 -0.387 c 0.313 -0.086 0.461 -0.242 0.527 -0.563 c 0.039 -0.188 0.02 -0.215 -0.336 -0.402 c -0.48 -0.25 -0.949 -0.723 -1.047 -1.055 c -0.043 -0.141 -0.074 -0.422 -0.074 -0.625 c -0.004 -0.199 -0.039 -0.398 -0.082 -0.438 c -0.082 -0.078 -0.457 -0.012 -0.574 0.102 c -0.035 0.031 -0.074 0.547 -0.086 1.145 c -0.02 0.918 -0.051 1.195 -0.211 1.781 c -0.105 0.383 -0.18 0.754 -0.168 0.824 c 0.023 0.156 0.234 0.223 0.715 0.23 c 0.273 0.008 0.371 -0.023 0.496 -0.148 m 4.836 -0.07 c 0.098 -0.059 0.176 -0.137 0.176 -0.176 c 0 -0.07 -0.582 -0.328 -0.746 -0.328 c -0.113 0 -0.277 0.43 -0.215 0.574 c 0.051 0.133 0.523 0.09 0.785 -0.07 m -1.441 -0.484 c 0.379 -0.797 0.25 -2.391 -0.273 -3.355 c -0.211 -0.391 -0.273 -0.371 -0.152 0.043 c 0.164 0.574 -0.063 1.25 -0.793 2.367 c -0.395 0.602 -0.387 0.582 -0.203 0.727 c 0.219 0.172 0.98 0.523 1.148 0.527 c 0.086 0.004 0.176 -0.098 0.273 -0.309 m -1.313 -1.992 c 0.344 -0.672 0.383 -1.01 0.145 -1.27 c -0.23 -0.258 -0.301 -0.559 -0.188 -0.809 c 0.293 -0.668 1.754 -0.48 3.355 0.43 c 0.516 0.293 0.848 0.398 1.078 0.344 c 0.203 -0.047 0.453 -0.395 0.453 -0.637 c 0 -0.238 -0.344 -0.715 -0.715 -1 c -0.742 -0.566 -1.5 -0.746 -3.148 -0.75 c -1.035 -0.004 -1.16 0.008 -1.422 0.141 c -0.496 0.246 -0.957 0.785 -1.129 1.316 c -0.145 0.445 -0.145 1.691 0 1.949 c 0.125 0.234 1.07 0.871 1.211 0.82 c 0.059 -0.02 0.219 -0.262 0.359 -0.535 m -3.988 -3.863 c 0.262 -0.109 0.488 -0.238 0.504 -0.281 c 0.059 -0.152 -0.352 -2.391 -0.445 -2.418 c -0.09 -0.027 -0.332 0.418 -0.98 1.805 c -0.172 0.363 -0.313 0.672 -0.313 0.68 c 0 0.027 0.668 0.414 0.715 0.414 c 0.027 0 0.258 -0.09 0.52 -0.199 m -2.402 -0.402 c 0.027 -0.039 -0.109 -0.406 -0.309 -0.813 c -0.195 -0.406 -0.438 -0.91 -0.535 -1.121 c -0.168 -0.355 -0.273 -0.453 -0.355 -0.328 c -0.074 0.113 -0.414 2.133 -0.375 2.23 c 0.035 0.086 0.18 0.105 0.785 0.105 c 0.461 0 0.762 -0.031 0.789 -0.074 m 9.332 -0.309 c 0.82 -0.379 1.09 -0.82 1.039 -1.688 c -0.02 -0.316 -0.07 -0.5 -0.172 -0.633 c -0.215 -0.27 -0.816 -0.586 -1.359 -0.715 c -0.688 -0.16 -1 -0.297 -1.156 -0.504 c -0.199 -0.258 -0.176 -0.547 0.066 -0.801 c 0.176 -0.184 0.258 -0.215 0.637 -0.238 c 0.293 -0.02 0.555 0.008 0.805 0.082 l 0.371 0.113 l 0.164 -0.188 c 0.227 -0.262 0.281 -0.488 0.137 -0.586 c -0.063 -0.043 -0.438 -0.133 -0.832 -0.195 c -1.043 -0.172 -1.715 -0.07 -2.195 0.34 c -0.488 0.414 -0.59 0.629 -0.594 1.289 c -0.004 0.488 0.02 0.609 0.141 0.766 c 0.203 0.258 0.563 0.473 0.91 0.551 c 1.262 0.289 1.773 0.578 1.773 1.012 c 0 0.754 -1.055 1.063 -2.023 0.594 c -0.238 -0.117 -0.473 -0.211 -0.52 -0.211 c -0.086 0 -0.395 0.539 -0.395 0.695 c 0 0.133 0.273 0.289 0.762 0.438 c 0.32 0.098 0.578 0.121 1.191 0.109 c 0.719 -0.016 0.816 -0.031 1.25 -0.234 m -11.434 0.031 c 0.043 -0.051 0.195 -0.758 0.336 -1.578 c 0.141 -0.816 0.277 -1.527 0.309 -1.582 c 0.105 -0.199 0.316 -0.109 0.477 0.199 c 0.203 0.391 0.824 1.73 1.012 2.176 c 0.297 0.707 0.418 0.883 0.613 0.859 c 0.184 -0.02 0.195 -0.039 1.34 -2.375 c 0.223 -0.453 0.438 -0.863 0.477 -0.91 c 0.102 -0.117 0.25 -0.102 0.328 0.035 c 0.07 0.129 0.328 1.699 0.398 2.461 c 0.074 0.793 0.082 0.805 0.691 0.801 c 0.281 0 0.555 -0.023 0.605 -0.055 c 0.074 -0.043 0.031 -0.41 -0.223 -1.84 c -0.176 -0.98 -0.371 -2.129 -0.438 -2.551 c -0.063 -0.422 -0.137 -0.797 -0.164 -0.836 c -0.059 -0.082 -1.129 -0.164 -1.305 -0.098 c -0.121 0.043 -0.402 0.539 -0.703 1.238 c -0.078 0.18 -0.305 0.664 -0.5 1.074 c -0.496 1.031 -0.598 1.016 -1.074 -0.148 c -0.637 -1.563 -0.922 -2.145 -1.066 -2.184 c -0.277 -0.066 -1.074 -0.039 -1.191 0.047 c -0.078 0.055 -0.172 0.398 -0.297 1.078 c -0.102 0.547 -0.309 1.59 -0.461 2.32 c -0.25 1.199 -0.316 1.629 -0.297 1.871 c 0.012 0.121 1.027 0.117 1.133 -0.004" fill="#710086"/><path d="m 10.602 24.281 c -1.23 -0.02 -2.273 -0.059 -2.324 -0.09 c -0.07 -0.039 -0.086 -1.117 -0.086 -5.02 v -4.961 l 0.219 -0.039 c 0.121 -0.023 0.328 -0.043 0.461 -0.043 c 0.211 0 0.242 -0.023 0.305 -0.246 c 0.074 -0.27 0.555 -2.629 0.926 -4.559 c 0.129 -0.656 0.262 -1.234 0.301 -1.277 c 0.102 -0.117 1.926 -0.117 2.02 0 c 0.066 0.082 0.207 0.387 0.816 1.773 c 0.344 0.781 0.484 0.891 0.625 0.484 c 0.051 -0.141 0.227 -0.52 0.391 -0.848 c 0.164 -0.328 0.332 -0.703 0.379 -0.832 c 0.043 -0.125 0.141 -0.328 0.219 -0.445 l 0.141 -0.215 h 0.949 c 0.676 0 0.969 0.023 1.02 0.082 c 0.066 0.078 0.316 1.398 0.898 4.75 c 0.152 0.887 0.277 1.438 0.336 1.473 c 0.219 0.129 0.91 -0.027 0.91 -0.207 c 0 -0.035 -0.125 -0.137 -0.277 -0.227 c -0.336 -0.199 -0.367 -0.273 -0.246 -0.559 c 0.145 -0.332 0.742 -1.203 0.824 -1.203 c 0.039 0 0.223 0.105 0.41 0.23 c 0.594 0.41 1.156 0.527 1.566 0.328 c 0.18 -0.086 0.207 -0.137 0.191 -0.313 c -0.027 -0.234 -0.137 -0.289 -1.281 -0.617 c -0.703 -0.199 -1.18 -0.5 -1.375 -0.875 c -0.082 -0.156 -0.137 -0.445 -0.152 -0.789 c -0.023 -0.469 -0.004 -0.59 0.145 -0.898 c 0.098 -0.195 0.273 -0.461 0.395 -0.59 c 0.238 -0.254 0.902 -0.613 1.27 -0.684 c 0.129 -0.027 0.25 -0.074 0.27 -0.109 c 0.055 -0.078 0.711 -0.078 0.867 0.004 c 0.07 0.035 0.332 0.113 0.586 0.168 c 0.559 0.129 1.191 0.391 1.242 0.52 c 0.023 0.051 -0.125 0.383 -0.324 0.73 c -0.406 0.711 -0.488 0.758 -0.938 0.508 c -0.488 -0.27 -1.258 -0.23 -1.258 0.063 c 0 0.176 0.199 0.285 0.914 0.5 c 0.328 0.098 0.75 0.246 0.934 0.336 c 0.387 0.184 0.805 0.609 0.922 0.941 c 0.125 0.352 0.051 1.195 -0.137 1.555 c -0.199 0.387 -0.734 0.895 -1 0.949 c -0.293 0.059 -0.281 0.262 0.02 0.359 c 0.512 0.168 1.195 0.625 1.578 1.055 c 0.543 0.609 0.605 1.105 0.207 1.555 c -0.566 0.633 -0.898 0.602 -2.398 -0.215 c -0.734 -0.402 -1.125 -0.535 -1.203 -0.414 c -0.023 0.035 0.047 0.254 0.156 0.488 c 0.113 0.23 0.238 0.504 0.285 0.605 c 0.063 0.145 0.25 0.258 0.914 0.551 c 0.457 0.203 1.055 0.469 1.328 0.59 c 0.891 0.395 1.281 0.832 1.508 1.691 c 0.313 1.195 0.004 2.375 -0.789 3 c -0.5 0.398 -0.805 0.531 -1.711 0.742 c -1.43 0.332 -2.254 0.293 -3.176 -0.145 l -0.348 -0.164 l -0.332 0.129 c -0.805 0.316 -1.094 0.375 -1.852 0.375 c -0.633 0 -0.828 -0.031 -1.312 -0.191 c -0.309 -0.102 -0.648 -0.242 -0.754 -0.313 c -0.27 -0.18 -0.371 -0.156 -0.797 0.168 c -0.266 0.203 -0.496 0.316 -0.75 0.367 c -0.199 0.039 -0.367 0.066 -0.379 0.059 c -0.008 -0.012 -1.016 -0.031 -2.246 -0.051 m 2.773 -0.57 c 0.098 -0.047 0.371 -0.277 0.602 -0.508 c 0.758 -0.758 1.477 -2.219 1.883 -3.813 c 0.145 -0.586 0.219 -1.879 0.109 -1.98 c -0.094 -0.09 -0.504 0.164 -0.941 0.578 l -0.418 0.395 l -0.008 0.789 c -0.004 0.621 -0.043 0.887 -0.164 1.246 c -0.23 0.672 -0.695 1.395 -1.059 1.656 l -0.309 0.219 l -1.25 -0.02 l -1.246 -0.016 l -0.09 -0.168 c -0.07 -0.121 -0.09 -0.742 -0.094 -2.445 c 0 -2.703 -0.055 -2.527 0.781 -2.527 c 0.301 0 0.742 -0.02 0.984 -0.043 l 0.438 -0.043 l 0.258 -0.438 c 0.352 -0.59 0.539 -0.828 1.039 -1.313 l 0.426 -0.414 l -0.406 -0.172 l -0.402 -0.176 l -2.25 0.023 c -1.238 0.012 -2.289 0.047 -2.34 0.074 c -0.066 0.043 -0.086 1.043 -0.086 4.625 v 4.566 l 0.512 0.027 c 1.059 0.051 3.84 -0.035 4.03 -0.125 m 8.969 -0.066 c 0.984 -0.238 1.367 -0.418 1.75 -0.828 c 0.48 -0.516 0.648 -1.02 0.598 -1.813 c -0.078 -1.25 -0.449 -1.688 -1.949 -2.305 c -0.516 -0.215 -1 -0.387 -1.078 -0.387 c -0.133 0 -0.137 0.035 -0.102 0.645 c 0.023 0.355 0.051 0.68 0.063 0.715 c 0.012 0.035 0.184 0.121 0.383 0.188 c 0.406 0.137 0.789 0.492 0.789 0.734 c 0 0.461 -0.68 0.738 -1.695 0.688 c -0.723 -0.039 -1.258 -0.203 -1.855 -0.574 c -0.641 -0.402 -1.082 -0.438 -1.313 -0.109 c -0.152 0.219 -0.211 1.012 -0.098 1.332 c 0.215 0.609 1.727 1.719 2.566 1.887 c 0.426 0.082 1.172 0.016 1.941 -0.172 m -4.348 -0.027 c 0.223 -0.078 0.406 -0.16 0.406 -0.184 c 0 -0.023 -0.125 -0.164 -0.273 -0.313 c -0.414 -0.398 -0.781 -0.941 -0.828 -1.215 c -0.09 -0.516 -0.105 -0.527 -0.754 -0.559 c -0.324 -0.016 -0.629 -0.004 -0.676 0.031 c -0.043 0.031 -0.215 0.316 -0.383 0.633 c -0.164 0.316 -0.375 0.68 -0.465 0.809 c -0.09 0.125 -0.168 0.266 -0.168 0.309 c 0 0.113 0.613 0.43 1.102 0.566 c 0.566 0.16 1.473 0.125 2.035 -0.078 m -5.203 -1.813 c 0.059 -0.063 0.035 -0.188 -0.094 -0.48 c -0.332 -0.754 -0.41 -1.27 -0.363 -2.34 c 0.023 -0.535 0.051 -1.059 0.063 -1.168 l 0.016 -0.199 l -0.672 -0.02 c -0.57 -0.02 -0.684 -0.004 -0.762 0.094 c -0.066 0.086 -0.09 0.594 -0.09 2.055 c 0 1.672 0.016 1.953 0.113 2.043 c 0.148 0.137 1.672 0.152 1.789 0.016 m 0.863 -0.941 c 0.238 -0.441 0.25 -0.5 0.289 -1.355 c 0.035 -0.816 0.059 -0.93 0.238 -1.262 c 0.418 -0.758 0.84 -1.102 1.988 -1.617 c 0.391 -0.176 0.785 -0.355 0.875 -0.395 c 0.105 -0.051 0.238 -0.234 0.359 -0.512 c 0.105 -0.238 0.277 -0.547 0.379 -0.688 c 0.105 -0.145 0.172 -0.281 0.156 -0.309 c -0.07 -0.105 -0.852 -0.207 -1.27 -0.168 c -0.836 0.082 -1.602 0.402 -2.273 0.949 c -0.297 0.242 -0.785 0.863 -1.043 1.32 c -0.578 1.035 -0.746 2.523 -0.418 3.77 c 0.246 0.926 0.344 0.965 0.719 0.266 m 3.637 -0.059 c 0.086 -0.086 0.246 -0.293 0.355 -0.461 c 0.156 -0.238 0.262 -0.324 0.484 -0.387 c 0.313 -0.086 0.461 -0.246 0.527 -0.563 c 0.039 -0.188 0.02 -0.215 -0.336 -0.402 c -0.48 -0.254 -0.949 -0.723 -1.047 -1.055 c -0.043 -0.141 -0.074 -0.422 -0.078 -0.625 c 0 -0.199 -0.035 -0.398 -0.078 -0.441 c -0.082 -0.074 -0.457 -0.008 -0.574 0.105 c -0.035 0.031 -0.074 0.547 -0.086 1.145 c -0.02 0.918 -0.051 1.195 -0.211 1.781 c -0.105 0.383 -0.18 0.754 -0.168 0.824 c 0.023 0.152 0.234 0.223 0.715 0.23 c 0.27 0.004 0.371 -0.023 0.496 -0.152 m 4.836 -0.066 c 0.098 -0.063 0.176 -0.141 0.176 -0.176 c 0 -0.07 -0.582 -0.328 -0.746 -0.328 c -0.113 0 -0.277 0.43 -0.215 0.574 c 0.051 0.133 0.523 0.09 0.785 -0.07 m -1.344 -0.047 c 0.098 -0.148 0.242 -1.098 0.242 -1.617 c 0 -0.555 -0.133 -1.336 -0.309 -1.797 c -0.184 -0.488 -0.543 -1.02 -0.691 -1.02 c -0.172 0 -0.168 0.105 0.008 0.43 c 0.348 0.641 0.031 1.645 -0.938 2.973 c -0.074 0.102 -0.121 0.227 -0.102 0.273 c 0.055 0.133 0.598 0.461 1.078 0.656 c 0.469 0.188 0.637 0.211 0.711 0.102 m -1.41 -2.43 c 0.344 -0.672 0.383 -1.01 0.145 -1.273 c -0.23 -0.254 -0.301 -0.555 -0.188 -0.805 c 0.293 -0.668 1.754 -0.48 3.355 0.43 c 0.516 0.289 0.848 0.398 1.078 0.344 c 0.203 -0.047 0.453 -0.398 0.453 -0.637 c 0 -0.238 -0.344 -0.715 -0.715 -1 c -0.742 -0.566 -1.5 -0.746 -3.148 -0.754 c -1.035 0 -1.16 0.012 -1.422 0.145 c -0.496 0.246 -0.957 0.781 -1.129 1.316 c -0.145 0.445 -0.145 1.691 -0.004 1.949 c 0.129 0.234 1.074 0.871 1.215 0.82 c 0.059 -0.02 0.219 -0.262 0.359 -0.535 m -3.988 -3.863 c 0.262 -0.113 0.488 -0.238 0.504 -0.281 c 0.059 -0.152 -0.352 -2.391 -0.445 -2.422 c -0.09 -0.027 -0.332 0.422 -0.984 1.809 c -0.168 0.363 -0.309 0.668 -0.309 0.68 c 0 0.027 0.668 0.41 0.715 0.414 c 0.027 0 0.258 -0.09 0.52 -0.199 m -2.402 -0.402 c 0.027 -0.039 -0.109 -0.406 -0.309 -0.813 c -0.195 -0.406 -0.438 -0.91 -0.535 -1.121 c -0.168 -0.355 -0.273 -0.453 -0.355 -0.328 c -0.074 0.113 -0.414 2.133 -0.375 2.23 c 0.035 0.086 0.18 0.102 0.785 0.102 c 0.461 0 0.762 -0.027 0.789 -0.07 m 9.332 -0.313 c 0.82 -0.375 1.09 -0.816 1.039 -1.684 c -0.02 -0.316 -0.07 -0.5 -0.172 -0.633 c -0.215 -0.27 -0.816 -0.586 -1.359 -0.715 c -0.688 -0.16 -1 -0.297 -1.156 -0.504 c -0.199 -0.262 -0.176 -0.547 0.066 -0.801 c 0.176 -0.184 0.258 -0.215 0.637 -0.238 c 0.293 -0.02 0.555 0.008 0.805 0.082 l 0.371 0.113 l 0.164 -0.188 c 0.227 -0.262 0.281 -0.488 0.137 -0.586 c -0.063 -0.043 -0.438 -0.133 -0.832 -0.195 c -1.043 -0.172 -1.715 -0.07 -2.195 0.34 c -0.492 0.414 -0.59 0.629 -0.594 1.289 c -0.004 0.488 0.016 0.609 0.141 0.766 c 0.203 0.258 0.563 0.473 0.91 0.551 c 1.262 0.289 1.773 0.578 1.773 1.012 c 0 0.75 -1.055 1.059 -2.023 0.594 c -0.238 -0.117 -0.473 -0.211 -0.52 -0.211 c -0.09 0 -0.395 0.539 -0.395 0.695 c 0 0.133 0.273 0.289 0.762 0.438 c 0.32 0.098 0.578 0.121 1.191 0.109 c 0.719 -0.016 0.816 -0.031 1.25 -0.234 m -11.434 0.027 c 0.043 -0.047 0.195 -0.754 0.336 -1.574 c 0.141 -0.816 0.277 -1.527 0.309 -1.582 c 0.105 -0.199 0.316 -0.109 0.477 0.199 c 0.203 0.391 0.824 1.73 1.01 2.172 c 0.301 0.711 0.422 0.887 0.617 0.863 c 0.184 -0.02 0.195 -0.039 1.34 -2.375 c 0.223 -0.453 0.438 -0.863 0.477 -0.91 c 0.102 -0.117 0.25 -0.102 0.328 0.031 c 0.07 0.129 0.328 1.703 0.398 2.465 c 0.074 0.793 0.082 0.801 0.691 0.801 c 0.281 0 0.555 -0.023 0.605 -0.055 c 0.074 -0.043 0.031 -0.41 -0.227 -1.84 c -0.172 -0.98 -0.367 -2.129 -0.434 -2.551 c -0.063 -0.422 -0.137 -0.797 -0.164 -0.836 c -0.059 -0.082 -1.129 -0.164 -1.305 -0.098 c -0.121 0.043 -0.402 0.539 -0.703 1.238 c -0.078 0.18 -0.305 0.664 -0.504 1.074 c -0.492 1.027 -0.594 1.016 -1.07 -0.148 c -0.637 -1.563 -0.922 -2.145 -1.07 -2.184 c -0.273 -0.066 -1.07 -0.039 -1.188 0.047 c -0.078 0.055 -0.172 0.395 -0.297 1.078 c -0.102 0.547 -0.309 1.59 -0.461 2.32 c -0.25 1.199 -0.316 1.629 -0.297 1.871 c 0.012 0.121 1.027 0.113 1.133 -0.008" fill="#0c090a"/></svg>