<svg xmlns="http://www.w3.org/2000/svg" xmlns:xlink="http://www.w3.org/1999/xlink" viewBox="0 0 32 32"><defs><g id="4" clip-path="url(#3)"><path d="m 13.789 8.402 c -1.543 -0.035 -3.109 0.328 -3.5 1.707 c -0.09 0.332 -0.223 1.023 -0.23 1.344 c 0 1.195 0 2.559 0 3.75 c 0.527 0 0.934 0 1.453 0 c 0.012 -1.258 -0.016 -2.488 0 -3.75 c 0.051 -0.797 1.227 -1.691 2.18 -1.684 c 0.012 1.277 -0.02 2.574 0 3.848 c 0.082 1.035 0.723 1.676 2.078 1.676 c 0.723 -0.016 1.453 0 2.172 0 c 1.094 -0.184 1.563 -1.051 1.563 -2.07 c 0 -1.141 0 -2.313 0 -3.453 c 0.996 -0.066 2.137 0.832 2.18 1.664 c 0.016 1.258 -0.004 2.469 0 3.719 c 0.523 0 0.93 0.051 1.453 0.051 c 0 -1.266 0 -2.508 0 -3.773 c -0.051 -0.406 -0.199 -0.93 -0.445 -1.328 c -0.641 -1.168 -2.141 -1.797 -3.555 -1.699 c -0.41 -0.047 -0.977 0.199 -1.09 0.555 c 0.008 1.504 0.016 3.043 0 4.543 c -0.047 0.629 -0.52 1.102 -1.449 1.102 c -0.895 0 -0.902 -0.102 -1.234 -0.473 c -0.219 -0.422 -0.195 -1.066 -0.219 -1.602 c 0 -1.219 -0.012 -2.363 0 -3.578 c -0.438 -0.461 -0.82 -0.523 -1.359 -0.555" fill-rule="evenodd"/><path d="m 22.859 23.676 c -0.047 0 -0.211 -0.031 -0.246 -0.008 c 0 0 -0.41 0.461 -0.633 0.609 c -0.195 0.133 -0.379 0.508 -0.656 0.645 c -0.109 0.051 -0.164 0.047 -0.363 0.047 h -2.484 l 0.02 0.691 h 2.156 c 0.047 0 0.199 0.012 0.297 -0.008 c 0.262 -0.055 0.441 -0.145 0.742 -0.305 c 0.32 -0.184 1.324 -1.262 1.324 -1.262 c 0.105 -0.063 0.133 -0.188 0.066 -0.281 l -0.031 -0.039 c -0.043 -0.059 -0.117 -0.09 -0.188 -0.09" fill-rule="evenodd"/><path d="m 22.305 14.973 v 9.523 c 2.098 -0.203 3.746 -2.258 3.746 -4.762 c 0 -2.504 -1.652 -4.555 -3.746 -4.762" fill-rule="evenodd"/><path d="m 10.898 15.02 v 9.527 c -2.102 -0.207 -3.746 -2.258 -3.746 -4.762 c 0 -2.504 1.652 -4.559 3.746 -4.762" fill-rule="evenodd"/><path d="m 18.781 25.313 c 0 0.57 -0.813 1.035 -1.816 1.035 c -1 0 -1.816 -0.465 -1.816 -1.035 c 0 -0.574 0.813 -1.039 1.816 -1.039 c 1 0 1.816 0.465 1.816 1.039" fill-rule="evenodd"/><path d="m 21.953 14.82 h 0.563 c 0.145 0 0.262 0.086 0.262 0.195 v 9.273 c 0 0.109 -0.117 0.195 -0.262 0.195 h -0.563 c -0.145 0 -0.266 -0.086 -0.266 -0.195 v -9.273 c 0 -0.109 0.121 -0.195 0.266 -0.195" fill-rule="evenodd"/><path d="m 10.66 14.805 h 0.617 c 0.129 0 0.234 0.09 0.234 0.199 v 9.34 c 0 0.105 -0.105 0.195 -0.234 0.195 h -0.617 c -0.133 0 -0.234 -0.09 -0.234 -0.195 v -9.34 c 0 -0.109 0.105 -0.199 0.234 -0.199" fill-rule="evenodd"/></g><clipPath id="8"><path d="m 22 14 h 5 v 11 h -5"/></clipPath><clipPath id="C"><path d="m 10 14 h 2 v 11 h -2"/></clipPath><clipPath id="9"><path d="m 7 15 h 4 v 10 h -4"/></clipPath><clipPath id="B"><path d="m 21 14 h 2 v 11 h -2"/></clipPath><clipPath id="A"><path d="m 15 24 h 4 v 3 h -4"/></clipPath><clipPath id="7"><path d="m 18 23 h 6 v 3 h -6"/></clipPath><clipPath id="0"><path d="m 32.59 16.68 c 0 8.773 -7.488 15.883 -16.715 15.883 c -9.227 0 -16.715 -7.109 -16.715 -15.883 c 0 -8.773 7.488 -15.883 16.715 -15.883 c 9.227 0 16.715 7.109 16.715 15.883"/></clipPath><clipPath id="6"><path d="m 33.32 17.371 c 0 8.773 -7.488 15.879 -16.715 15.879 c -9.227 0 -16.715 -7.105 -16.715 -15.879 c 0 -8.773 7.488 -15.883 16.715 -15.883 c 9.227 0 16.715 7.109 16.715 15.883"/></clipPath><clipPath id="5"><path d="m 10 8 h 14 v 8 h -14"/></clipPath><clipPath id="3"><path d="M 0,0 H32 V32 H0 z"/></clipPath><filter id="1" filterUnits="objectBoundingBox" x="0" y="0" width="32" height="32"><feColorMatrix type="matrix" in="SourceGraphic" values="0 0 0 0 1 0 0 0 0 1 0 0 0 0 1 0 0 0 1 0"/></filter><mask id="2"><g filter="url(#1)"><path fill-opacity="0.102" d="M 0,0 H32 V32 H0 z"/></g></mask></defs><g fill="#287fb9"><path d="m 13.344 31.965 c -3.23 -0.402 -5.375 -1.195 -7.473 -2.766 c -1.563 -1.168 -2.711 -2.629 -3.828 -4.875 c -3.734 -7.52 -2.367 -13.754 4.219 -19.234 c 5.367 -4.465 10.828 -5.992 15.414 -4.305 c 2.887 1.063 5.438 3.301 7.262 6.379 c 1.277 2.164 2.258 4.852 2.68 7.355 c 0.223 1.328 0.277 1.977 0.281 3.406 c 0.012 4.03 -1.031 6.805 -3.414 9.09 c -2.738 2.637 -6.688 4.367 -11.164 4.895 c -0.691 0.082 -3.445 0.117 -3.98 0.051"/><path d="m 32 17.367 c 0 -8.08 -6.895 -14.629 -15.398 -14.629 c -8.504 0 -15.398 6.551 -15.398 14.629 c 0 8.08 6.895 14.633 15.398 14.633 c 8.504 0 15.398 -6.551 15.398 -14.633" fill-rule="evenodd"/></g><g clip-path="url(#0)"><use xlink:href="#4" mask="url(#2)"/></g><g clip-path="url(#5)"><g clip-path="url(#6)"><path d="m 13.789 8.402 c -1.543 -0.035 -3.109 0.328 -3.5 1.707 c -0.09 0.332 -0.223 1.023 -0.23 1.344 c 0 1.195 0 2.559 0 3.75 c 0.527 0 0.934 0 1.453 0 c 0.012 -1.258 -0.016 -2.488 0 -3.75 c 0.051 -0.797 1.227 -1.691 2.18 -1.684 c 0.012 1.277 -0.02 2.574 0 3.848 c 0.082 1.035 0.723 1.676 2.078 1.676 c 0.723 -0.016 1.453 0 2.172 0 c 1.094 -0.184 1.563 -1.051 1.563 -2.07 c 0 -1.141 0 -2.313 0 -3.453 c 0.996 -0.066 2.137 0.832 2.18 1.664 c 0.016 1.258 -0.004 2.469 0 3.719 c 0.523 0 0.93 0.051 1.453 0.051 c 0 -1.266 0 -2.508 0 -3.773 c -0.051 -0.406 -0.199 -0.93 -0.445 -1.328 c -0.641 -1.168 -2.141 -1.797 -3.555 -1.699 c -0.41 -0.047 -0.977 0.199 -1.09 0.555 c 0.008 1.504 0.016 3.043 0 4.543 c -0.047 0.629 -0.52 1.102 -1.449 1.102 c -0.895 0 -0.902 -0.102 -1.234 -0.473 c -0.219 -0.422 -0.195 -1.066 -0.219 -1.602 c 0 -1.219 -0.012 -2.363 0 -3.578 c -0.438 -0.461 -0.82 -0.523 -1.359 -0.555" fill="#fff" fill-rule="evenodd"/></g></g><g clip-path="url(#7)"><g clip-path="url(#6)"><path d="m 22.859 23.676 c -0.047 0 -0.211 -0.031 -0.246 -0.008 c 0 0 -0.41 0.461 -0.633 0.609 c -0.195 0.133 -0.379 0.508 -0.656 0.645 c -0.109 0.051 -0.164 0.047 -0.363 0.047 h -2.484 l 0.02 0.691 h 2.156 c 0.047 0 0.199 0.012 0.297 -0.008 c 0.262 -0.055 0.441 -0.145 0.742 -0.305 c 0.32 -0.184 1.324 -1.262 1.324 -1.262 c 0.105 -0.063 0.133 -0.188 0.066 -0.281 l -0.031 -0.039 c -0.043 -0.059 -0.117 -0.09 -0.188 -0.09" fill="#fff" fill-rule="evenodd"/></g></g><g clip-path="url(#8)"><g clip-path="url(#6)"><path d="m 22.305 14.973 v 9.523 c 2.098 -0.203 3.746 -2.258 3.746 -4.762 c 0 -2.504 -1.652 -4.555 -3.746 -4.762" fill="#fff" fill-rule="evenodd"/></g></g><g clip-path="url(#9)"><g clip-path="url(#6)"><path d="m 10.898 15.02 v 9.527 c -2.102 -0.207 -3.746 -2.258 -3.746 -4.762 c 0 -2.504 1.652 -4.559 3.746 -4.762" fill="#fff" fill-rule="evenodd"/></g></g><g clip-path="url(#A)"><g clip-path="url(#6)"><path d="m 18.781 25.313 c 0 0.57 -0.813 1.035 -1.816 1.035 c -1 0 -1.816 -0.465 -1.816 -1.035 c 0 -0.574 0.813 -1.039 1.816 -1.039 c 1 0 1.816 0.465 1.816 1.039" fill="#fff" fill-rule="evenodd"/></g></g><g clip-path="url(#B)"><g clip-path="url(#6)"><path d="m 21.953 14.82 h 0.563 c 0.145 0 0.262 0.086 0.262 0.195 v 9.273 c 0 0.109 -0.117 0.195 -0.262 0.195 h -0.563 c -0.145 0 -0.266 -0.086 -0.266 -0.195 v -9.273 c 0 -0.109 0.121 -0.195 0.266 -0.195" fill="#fff" fill-rule="evenodd"/></g></g><g clip-path="url(#C)"><g clip-path="url(#6)"><path d="m 10.66 14.805 h 0.617 c 0.129 0 0.234 0.09 0.234 0.199 v 9.34 c 0 0.105 -0.105 0.195 -0.234 0.195 h -0.617 c -0.133 0 -0.234 -0.09 -0.234 -0.195 v -9.34 c 0 -0.109 0.105 -0.199 0.234 -0.199" fill="#fff" fill-rule="evenodd"/></g></g></svg>