<svg xmlns="http://www.w3.org/2000/svg" viewBox="0 0 32 32"><path d="m 5.605 27.359 c -25.23 -33.3 44.2 -38.03 21.918 -4.04 c -5.078 7.75 -15.238 12.855 -21.918 4.04" fill="#4581b3"/><path d="m 11.539 7.395 c -1.742 0 -3.859 0.063 -3.859 0.063 v 14.258 h 2.828 v -4.582 c 0 0 0.496 -0.004 1.031 -0.027 c 1.938 -0.086 3.074 -0.707 4.051 -1.754 c 0.75 -0.809 1.16 -1.961 1.16 -3.371 c 0 -1.41 -0.543 -2.652 -1.348 -3.379 c -0.844 -0.766 -2.102 -1.203 -3.863 -1.203 m -1.031 2.273 c 0 0 0.602 -0.023 1.184 0 c 1.457 0.055 2.23 1.141 2.23 2.465 c 0 1.473 -0.938 2.449 -2.457 2.469 c -0.457 0.004 -0.648 0.023 -0.957 -0.012 m 11.199 -4.02 c -2.555 0 -4.199 1.504 -4.199 3.508 c -0.023 1.242 0.801 2.129 2.934 2.871 c 1.203 0.414 1.52 0.984 1.52 1.531 c 0 0.543 -0.398 0.895 -1.371 0.895 c -0.949 0 -2.344 -0.555 -2.938 -0.926 v 2.375 c 0.781 0.438 1.914 0.848 2.938 0.883 c 2.977 0.094 4.477 -1.48 4.477 -3.465 c -0.023 -1.57 -0.848 -2.594 -2.809 -3.289 c -1.266 -0.457 -1.668 -0.719 -1.668 -1.223 c 0 -0.543 0.441 -0.871 1.223 -0.871 c 0.887 0 2.227 0.586 2.691 0.848 v -2.406 c -0.633 -0.328 -1.594 -0.727 -2.797 -0.727" fill="#f4fffa"/></svg>