<svg xmlns="http://www.w3.org/2000/svg" xmlns:xlink="http://www.w3.org/1999/xlink" viewBox="0 0 32 32"><defs><g id="5" clip-path="url(#4)"><path d="m 23.688 12.715 l 0.004 7.336 l -6.84 3.664 l -6.84 -3.664 v -7.332 l 6.836 -3.668"/><path d="m 16.336 11.492 v 9.781 h 1.023 v -9.781"/><path d="m 18.559 19.13 c 0 0.504 -0.766 0.918 -1.711 0.918 c -0.945 0 -1.711 -0.414 -1.711 -0.918 c 0 -0.508 0.766 -0.918 1.711 -0.918 c 0.945 0 1.711 0.41 1.711 0.918"/><path d="m 13.598 20.66 v -8.559 h -1.023 v 8.559"/><path d="m 14.797 14.855 c 0 0.504 -0.766 0.914 -1.711 0.914 c -0.945 0 -1.711 -0.41 -1.711 -0.914 c 0 -0.508 0.766 -0.918 1.711 -0.918 c 0.945 0 1.711 0.41 1.711 0.918"/><path d="m 21.13 20.66 v -8.559 h -1.027 v 8.559"/><path d="m 22.32 14.855 c 0 0.504 -0.766 0.914 -1.711 0.914 c -0.945 0 -1.711 -0.41 -1.711 -0.914 c 0 -0.508 0.766 -0.918 1.711 -0.918 c 0.945 0 1.711 0.41 1.711 0.918"/></g><clipPath id="8"><path d="m 14 17 h 4 v 3 h -4"/></clipPath><clipPath id="C"><path d="m 18 13 h 4 v 3 h -4"/></clipPath><clipPath id="9"><path d="m 11 11 h 2 v 10 h -2"/></clipPath><clipPath id="B"><path d="m 19 11 h 2 v 10 h -2"/></clipPath><clipPath id="A"><path d="m 10 13 h 5 v 3 h -5"/></clipPath><clipPath id="7"><path d="m 15 10 h 2 v 11 h -2"/></clipPath><clipPath id="0"><path d="m 0 1 h 32 v 29 h -32"/></clipPath><clipPath id="6"><path d="m 9 8 h 15 v 16 h -15"/></clipPath><clipPath id="1"><path d="m 31.898 15.77 c 0 7.77 -7.05 14.06 -15.734 14.06 c -8.684 0 -15.734 -6.289 -15.734 -14.06 c 0 -7.766 7.05 -14.06 15.734 -14.06 c 8.684 0 15.734 6.293 15.734 14.06"/></clipPath><clipPath id="4"><path d="M 0,0 H32 V32 H0 z"/></clipPath><filter id="2" filterUnits="objectBoundingBox" x="0" y="0" width="32" height="32"><feColorMatrix type="matrix" in="SourceGraphic" values="0 0 0 0 1 0 0 0 0 1 0 0 0 0 1 0 0 0 1 0"/></filter><mask id="3"><g filter="url(#2)"><path fill-opacity="0.102" d="M 0,0 H32 V32 H0 z"/></g></mask></defs><path d="m 6.598 28.879 c 24.05 15.992 38.875 -35.01 7.773 -28.26 c -12.852 2.875 -20.652 20.922 -7.773 28.26" fill="#ffd6b9"/><g clip-path="url(#0)"><g clip-path="url(#1)"><use xlink:href="#5" mask="url(#3)"/></g></g><g clip-path="url(#6)"><g clip-path="url(#1)"><path d="m 23 12.1 l 0.004 7.336 l -6.84 3.668 l -6.84 -3.664 l -0.004 -7.336 l 6.84 -3.668" fill="#7f0000"/></g></g><g clip-path="url(#7)"><g clip-path="url(#1)"><path d="m 15.652 10.879 v 9.781 h 1.023 v -9.781" fill="#ffd6b9"/></g></g><g clip-path="url(#8)"><g clip-path="url(#1)"><path d="m 17.875 18.52 c 0 0.508 -0.766 0.918 -1.711 0.918 c -0.945 0 -1.711 -0.41 -1.711 -0.918 c 0 -0.504 0.766 -0.914 1.711 -0.914 c 0.945 0 1.711 0.41 1.711 0.914" fill="#ffd6b9"/></g></g><g clip-path="url(#9)"><g clip-path="url(#1)"><path d="m 12.914 20.05 v -8.559 h -1.027 v 8.559" fill="#ffd6b9"/></g></g><g clip-path="url(#A)"><g clip-path="url(#1)"><path d="m 14.11 14.242 c 0 0.508 -0.766 0.918 -1.711 0.918 c -0.945 0 -1.711 -0.41 -1.711 -0.918 c 0 -0.504 0.766 -0.918 1.711 -0.918 c 0.945 0 1.711 0.414 1.711 0.918" fill="#ffd6b9"/></g></g><g clip-path="url(#B)"><g clip-path="url(#1)"><path d="m 20.438 20.05 v -8.559 h -1.023 v 8.559" fill="#ffd6b9"/></g></g><g clip-path="url(#C)"><g clip-path="url(#1)"><path d="m 21.637 14.242 c 0 0.508 -0.766 0.918 -1.711 0.918 c -0.945 0 -1.711 -0.41 -1.711 -0.918 c 0 -0.504 0.766 -0.918 1.711 -0.918 c 0.945 0 1.711 0.414 1.711 0.918" fill="#ffd6b9"/></g></g></svg>