<svg xmlns="http://www.w3.org/2000/svg" viewBox="0 0 32 32"><path d="m 5.828 4.824 c -25.01 33.16 43.824 37.867 21.734 4.02 c -5.04 -7.719 -15.11 -12.805 -21.734 -4.02" fill="#ff8c00"/><path d="m 181.25 169.02 c 0 12.509 -16.342 22.804 -37.18 23.408 c -20.811 0.604 -38.745 -8.713 -40.756 -21.14 c -2.01 -12.452 12.626 -23.667 33.24 -25.45 c 20.616 -1.812 39.974 6.413 43.969 18.692" transform="matrix(0.13984 0 0 0.13584 -2.826 -2.874)" fill="#fff" fill-rule="evenodd" stroke="#fff"/><path d="m 15.32 24.965 c -0.117 -0.141 -0.293 -0.176 -0.613 -0.113 c -0.375 0.066 -0.512 0.023 -0.816 -0.262 c -0.219 -0.211 -0.445 -0.316 -0.57 -0.266 c -0.133 0.047 -0.262 -0.023 -0.355 -0.191 c -0.188 -0.348 -0.363 -0.344 -0.66 0.016 c -0.203 0.25 -0.262 0.266 -0.453 0.109 c -0.152 -0.125 -0.191 -0.285 -0.137 -0.547 c 0.121 -0.535 -0.254 -0.488 -0.625 0.082 c -0.164 0.25 -0.367 0.48 -0.457 0.516 c -0.16 0.063 -1.09 -0.773 -1.09 -0.984 c 0 -0.066 0.133 -0.18 0.297 -0.254 c 0.285 -0.129 0.297 -0.188 0.297 -2.01 c 0 -1.035 -0.051 -1.879 -0.113 -1.879 c -0.059 0 -0.215 0.129 -0.344 0.285 c -0.203 0.25 -0.266 0.266 -0.449 0.117 c -0.313 -0.258 -0.262 -0.832 0.109 -1.176 c 0.52 -0.488 0.375 -1.492 -0.195 -1.344 c -0.25 0.063 -0.652 -0.156 -0.652 -0.355 c 0 -0.055 0.496 -0.578 1.105 -1.164 l 1.102 -1.07 l -0.066 -0.738 c -0.059 -0.66 -0.031 -0.766 0.266 -1.039 c 0.301 -0.277 0.324 -0.375 0.258 -1.02 l -0.074 -0.715 l 1.035 -1.027 c 0.73 -0.73 1.098 -1.01 1.262 -0.961 c 0.141 0.047 0.289 -0.027 0.395 -0.195 c 0.152 -0.238 0.301 -0.266 1.484 -0.266 c 1.191 0 1.332 0.027 1.488 0.27 c 0.105 0.172 0.25 0.242 0.379 0.191 c 0.129 -0.047 0.352 0.055 0.574 0.266 c 0.207 0.199 0.426 0.301 0.52 0.246 c 0.219 -0.133 2.773 2.402 2.688 2.672 c -0.043 0.137 0.574 0.832 1.84 2.074 c 1.047 1.031 1.902 1.914 1.902 1.965 c 0 0.215 -0.391 0.387 -0.711 0.309 c -0.422 -0.105 -0.48 0.25 -0.078 0.465 c 0.223 0.117 0.266 0.27 0.266 0.969 c 0 0.883 -0.238 1.328 -0.625 1.184 c -0.441 -0.168 -0.508 0.129 -0.473 2.227 c 0.035 1.949 0.023 2.066 -0.25 2.352 c -0.156 0.168 -0.285 0.453 -0.289 0.641 c -0.004 0.188 -0.105 0.398 -0.227 0.477 c -0.305 0.191 -0.672 -0.129 -0.598 -0.523 c 0.07 -0.367 -0.195 -0.609 -0.547 -0.5 c -0.23 0.074 -0.254 0.16 -0.188 0.727 l 0.078 0.645 h -0.484 c -0.441 0 -0.477 -0.027 -0.445 -0.34 c 0.023 -0.211 -0.047 -0.395 -0.188 -0.484 c -0.18 -0.117 -0.297 -0.074 -0.613 0.227 c -0.328 0.309 -0.461 0.355 -0.84 0.285 c -0.324 -0.059 -0.496 -0.027 -0.617 0.113 c -0.234 0.281 -2.262 0.281 -2.5 0 m 1 -0.859 c 0.133 -0.215 -0.207 -0.371 -0.832 -0.371 c -0.691 -0.004 -0.727 0.188 -0.066 0.359 c 0.676 0.18 0.793 0.18 0.898 0.012 m -1.746 -0.555 c 0.047 -0.199 -0.383 -0.387 -0.645 -0.285 c -0.238 0.09 -0.238 0.098 0.012 0.281 c 0.273 0.199 0.59 0.199 0.633 0.004 m 5.191 -0.52 c 0.34 -0.234 0.637 -0.523 0.656 -0.645 c 0.039 -0.188 -0.094 -0.219 -0.918 -0.227 c -0.531 -0.004 -1.258 -0.059 -1.617 -0.125 c -0.363 -0.066 -1.16 -0.184 -1.773 -0.262 c -0.617 -0.074 -1.355 -0.246 -1.645 -0.375 c -0.289 -0.125 -0.809 -0.27 -1.156 -0.313 l -0.633 -0.082 l 0.281 0.387 c 0.219 0.305 0.379 0.391 0.734 0.391 c 0.367 0 0.477 0.063 0.582 0.34 c 0.105 0.273 0.188 0.32 0.426 0.246 c 0.613 -0.191 0.816 -0.145 0.863 0.191 c 0.055 0.395 0.227 0.516 0.719 0.52 c 0.203 0 0.48 0.063 0.613 0.133 c 0.34 0.18 1.582 0.375 1.945 0.309 c 0.168 -0.031 0.582 -0.25 0.922 -0.488 m -6.41 -0.137 c 0 -0.031 -0.059 -0.094 -0.133 -0.141 c -0.07 -0.043 -0.133 -0.016 -0.133 0.059 c 0 0.074 0.063 0.137 0.133 0.137 c 0.074 0 0.133 -0.023 0.133 -0.055 m 8.438 -1.953 c 0.359 -0.445 0.469 -0.902 0.246 -1.039 c -0.066 -0.039 -0.191 0.016 -0.281 0.121 c -0.117 0.145 -0.441 0.195 -1.219 0.195 c -0.898 0 -1.105 -0.043 -1.355 -0.273 l -0.293 -0.273 l -0.234 0.273 c -0.133 0.148 -0.328 0.273 -0.438 0.273 c -0.113 0 -0.371 0.09 -0.578 0.195 c -0.496 0.258 -1 0.242 -2.176 -0.07 c -1.426 -0.375 -1.895 -0.547 -2.078 -0.762 c -0.215 -0.254 -0.348 -0.102 -0.246 0.289 c 0.059 0.242 0.199 0.34 0.574 0.406 c 0.27 0.051 0.754 0.203 1.07 0.344 c 0.449 0.195 1.113 0.281 2.957 0.387 c 1.949 0.109 3.039 0.219 3.625 0.363 c 0.035 0.012 0.227 -0.184 0.426 -0.43" fill="#9c9a95"/><path d="m 15.09 24.754 c -0.145 -0.227 -0.266 -0.262 -0.68 -0.207 c -0.414 0.055 -0.555 0.012 -0.801 -0.246 c -0.168 -0.176 -0.402 -0.301 -0.527 -0.281 c -0.121 0.02 -0.371 -0.098 -0.551 -0.266 l -0.324 -0.301 l -0.203 0.285 c -0.289 0.41 -0.633 0.25 -0.531 -0.246 c 0.129 -0.637 -0.199 -0.656 -0.734 -0.043 c -0.258 0.297 -0.531 0.543 -0.609 0.543 c -0.18 0 -0.707 -0.563 -0.707 -0.754 c 0 -0.082 0.117 -0.211 0.262 -0.289 c 0.246 -0.129 0.262 -0.27 0.262 -2.078 c 0 -2.059 -0.094 -2.379 -0.547 -1.832 c -0.27 0.336 -0.633 0.277 -0.633 -0.094 c 0 -0.133 0.145 -0.379 0.328 -0.547 c 0.25 -0.234 0.328 -0.438 0.328 -0.855 c 0 -0.613 -0.207 -0.859 -0.629 -0.75 c -0.195 0.047 -0.316 0.004 -0.367 -0.137 c -0.059 -0.145 0.238 -0.504 0.992 -1.207 l 1.074 -1 l -0.043 -0.75 c -0.035 -0.641 0 -0.793 0.27 -1.074 c 0.27 -0.285 0.305 -0.426 0.25 -1.043 l -0.059 -0.715 l 0.961 -0.949 c 0.617 -0.602 1.07 -0.945 1.262 -0.949 c 0.176 0 0.344 -0.117 0.422 -0.297 c 0.121 -0.273 0.215 -0.293 1.336 -0.293 c 1.172 0 1.203 0.008 1.281 0.328 c 0.066 0.25 0.168 0.324 0.457 0.324 c 0.203 0 0.477 0.117 0.605 0.262 c 0.133 0.141 0.363 0.258 0.516 0.258 c 0.375 0 2.652 2.262 2.602 2.582 c -0.023 0.152 0.59 0.844 1.816 2.027 c 1.859 1.801 2.137 2.234 1.328 2.074 c -0.527 -0.105 -0.645 0.152 -0.266 0.578 c 0.297 0.332 0.348 0.699 0.258 1.813 c -0.008 0.09 -0.184 0.16 -0.391 0.16 c -0.641 0 -0.691 0.188 -0.664 2.402 c 0.023 1.676 -0.008 2.066 -0.176 2.25 c -0.113 0.125 -0.227 0.402 -0.25 0.617 c -0.031 0.289 -0.113 0.391 -0.305 0.391 c -0.203 0 -0.273 -0.102 -0.305 -0.43 c -0.047 -0.48 -0.258 -0.613 -0.758 -0.492 c -0.324 0.082 -0.332 0.109 -0.246 0.797 c 0.09 0.703 0.086 0.711 -0.258 0.711 c -0.297 0 -0.34 -0.051 -0.316 -0.363 c 0.016 -0.199 -0.016 -0.434 -0.07 -0.52 c -0.164 -0.258 -0.676 -0.18 -0.988 0.148 c -0.25 0.262 -0.383 0.301 -0.883 0.242 c -0.523 -0.059 -0.602 -0.031 -0.668 0.215 c -0.066 0.25 -0.164 0.277 -1.012 0.277 c -0.813 0 -0.961 -0.039 -1.109 -0.277 m 1.965 -0.641 c 0.129 -0.191 0.395 -0.297 0.934 -0.367 c 0.414 -0.055 0.863 -0.199 0.996 -0.316 c 0.133 -0.121 0.301 -0.219 0.371 -0.219 c 0.07 0 0.355 -0.234 0.637 -0.516 c 0.492 -0.5 0.5 -0.527 0.277 -0.773 c -0.227 -0.246 -0.219 -0.254 0.375 -0.344 c 0.754 -0.109 1.215 -0.641 1.34 -1.535 c 0.078 -0.574 0.066 -0.605 -0.23 -0.602 c -0.172 0.004 -0.43 0.09 -0.57 0.195 c -0.164 0.125 -0.566 0.191 -1.145 0.191 c -0.805 0 -0.914 -0.031 -1.105 -0.324 c -0.277 -0.414 -0.383 -0.41 -0.918 0.055 c -0.496 0.434 -1.301 0.605 -2.273 0.492 c -0.781 -0.094 -2.223 -0.578 -2.617 -0.883 c -0.5 -0.383 -1.039 0.051 -0.875 0.699 c 0.051 0.195 0.004 0.367 -0.129 0.477 c -0.301 0.246 -0.254 0.504 0.199 1.012 c 0.266 0.301 0.371 0.523 0.309 0.664 c -0.047 0.121 -0.117 0.336 -0.148 0.484 c -0.145 0.656 2.238 1.852 3.723 1.871 c 0.539 0.004 0.707 -0.047 0.852 -0.262 m -2.707 -1.031 c -0.219 -0.145 -0.555 -0.262 -0.75 -0.262 c -0.219 0 -0.41 -0.098 -0.496 -0.25 c -0.363 -0.676 0.109 -0.914 0.605 -0.305 c 0.262 0.328 0.32 0.348 0.688 0.211 c 0.434 -0.164 0.543 -0.117 0.543 0.223 c 0 0.137 0.191 0.301 0.492 0.426 l 0.492 0.203 l -0.59 0.004 c -0.379 0.004 -0.734 -0.086 -0.984 -0.25 m 0.559 -1.781 c -0.129 -0.035 -0.23 -0.113 -0.23 -0.18 c 0 -0.145 0.508 -0.156 1.246 -0.031 c 0.48 0.082 0.496 0.098 0.199 0.18 c -0.375 0.105 -0.875 0.117 -1.215 0.031 m -1.773 -0.523 c -0.43 -0.082 -0.363 -0.297 0.086 -0.297 c 0.488 0 0.82 0.121 0.727 0.273 c -0.074 0.117 -0.285 0.125 -0.813 0.023 m 2.23 -2.379 c 0.301 -0.285 0.656 -0.555 0.789 -0.598 c 0.438 -0.137 0.168 -0.383 -0.371 -0.336 c -0.891 0.074 -1.73 0.844 -1.438 1.316 c 0.16 0.254 0.473 0.137 1.02 -0.383 m 4.762 0.031 c 0.07 -0.16 0.176 -0.293 0.238 -0.293 c 0.191 0 1.141 -0.82 1.141 -0.988 c 0 -0.496 -1.133 -0.277 -1.512 0.293 c -0.113 0.176 -0.348 0.379 -0.52 0.457 c -0.32 0.145 -0.465 0.438 -0.363 0.734 c 0.098 0.285 0.867 0.133 1.016 -0.203 m -1.84 -1.332 c 0.047 -0.074 0.02 -0.133 -0.055 -0.133 c -0.078 0 -0.141 0.059 -0.141 0.133 c 0 0.07 0.027 0.129 0.059 0.129 c 0.031 0 0.094 -0.059 0.137 -0.129" fill="#605b54"/><path d="m 15.328 24.711 c 0 -0.285 -0.5 -0.496 -0.973 -0.406 c -0.344 0.063 -0.477 0.016 -0.715 -0.254 c -0.188 -0.215 -0.375 -0.309 -0.523 -0.262 c -0.152 0.047 -0.344 -0.051 -0.543 -0.277 l -0.305 -0.348 l -0.23 0.281 c -0.324 0.398 -0.57 0.371 -0.461 -0.051 c 0.09 -0.355 -0.102 -0.703 -0.387 -0.703 c -0.09 0 -0.324 0.23 -0.523 0.52 c -0.203 0.285 -0.438 0.52 -0.523 0.52 c -0.191 0 -0.594 -0.418 -0.594 -0.621 c 0 -0.156 0.426 -0.324 0.875 -0.348 c 0.555 -0.027 1.09 -0.809 0.711 -1.039 c -0.066 -0.043 -0.16 -0.309 -0.207 -0.594 c -0.051 -0.285 -0.133 -0.52 -0.188 -0.52 c -0.152 0 -0.402 0.617 -0.414 1.012 c -0.004 0.195 -0.059 0.469 -0.121 0.613 c -0.07 0.164 -0.117 -0.43 -0.121 -1.578 c -0.008 -1.523 -0.047 -1.867 -0.223 -2.01 c -0.18 -0.148 -0.246 -0.133 -0.449 0.113 c -0.129 0.16 -0.301 0.289 -0.379 0.289 c -0.258 0 -0.148 -0.469 0.188 -0.781 c 0.238 -0.223 0.328 -0.438 0.328 -0.813 c 0 -0.762 -0.199 -1.043 -0.668 -0.941 c -0.621 0.137 -0.469 -0.137 0.68 -1.207 l 1.059 -0.988 l -0.043 -0.75 c -0.039 -0.648 -0.004 -0.785 0.27 -1.035 c 0.277 -0.258 0.305 -0.371 0.242 -1.035 l -0.066 -0.742 l 0.945 -0.934 c 0.688 -0.672 1.01 -0.906 1.172 -0.844 c 0.277 0.105 0.613 -0.156 0.613 -0.48 c 0 -0.223 0.109 -0.246 1.117 -0.246 c 1.02 0 1.113 0.023 1.113 0.258 c 0 0.285 0.414 0.559 0.688 0.453 c 0.098 -0.035 0.313 0.082 0.473 0.27 c 0.188 0.211 0.379 0.309 0.523 0.262 c 0.305 -0.094 2.699 2.262 2.586 2.547 c -0.051 0.133 0.527 0.777 1.77 1.98 c 1.016 0.984 1.844 1.848 1.844 1.926 c 0 0.082 -0.133 0.105 -0.34 0.055 c -0.328 -0.082 -0.711 0.094 -0.711 0.328 c 0 0.059 0.133 0.23 0.293 0.375 c 0.512 0.473 0.371 2.215 -0.152 1.895 c -0.18 -0.109 -0.664 0.156 -0.664 0.359 c 0 0.109 -0.168 0.145 -0.516 0.113 c -0.387 -0.035 -0.578 0.016 -0.785 0.223 c -0.422 0.418 -1.5 0.387 -1.906 -0.051 c -0.168 -0.18 -0.398 -0.324 -0.508 -0.324 c -0.336 0 -0.621 0.145 -0.621 0.316 c 0 0.09 -0.133 0.215 -0.297 0.281 c -0.406 0.164 -3.148 0.027 -3.211 -0.16 c -0.074 -0.219 0.52 -0.32 1.324 -0.227 c 0.395 0.043 0.977 0.043 1.301 -0.004 c 0.695 -0.105 0.898 -0.422 0.789 -1.23 l -0.07 -0.539 h 1.082 v 0.668 c 0 0.852 0.203 1.016 1.27 1.02 c 0.598 0.004 0.824 -0.047 0.883 -0.191 c 0.039 -0.105 0.219 -0.195 0.398 -0.195 c 0.449 0 0.539 -0.203 0.488 -1.105 c -0.063 -1.16 -0.164 -1.285 -0.961 -1.18 c -0.359 0.047 -0.754 0.137 -0.871 0.195 c -0.883 0.438 -0.934 0.449 -1.18 0.227 c -0.383 -0.344 -1.051 -0.285 -1.23 0.109 c -0.172 0.367 -0.52 0.422 -0.77 0.121 c -0.215 -0.254 -1.426 -0.133 -2.074 0.211 c -0.641 0.336 -1.102 1.01 -1 1.453 c 0.07 0.316 0.039 0.359 -0.246 0.359 c -0.176 0 -0.395 -0.086 -0.484 -0.195 c -0.215 -0.254 -0.512 -0.246 -0.813 0.02 c -0.227 0.207 -0.238 0.195 -0.238 -0.242 c 0 -0.711 -0.336 -1.383 -0.746 -1.484 c -0.484 -0.121 -0.75 0.09 -0.848 0.68 c -0.066 0.395 -0.016 0.637 0.23 1.09 c 0.172 0.324 0.313 0.773 0.313 1 c 0 0.57 0.207 0.648 0.457 0.176 c 0.113 -0.219 0.254 -0.395 0.313 -0.395 c 0.23 0 0.258 0.172 0.066 0.461 c -0.227 0.344 -0.195 1.027 0.051 1.051 c 0.09 0.008 0.219 0.023 0.285 0.031 c 0.191 0.027 0.309 0.531 0.164 0.707 c -0.074 0.086 -0.102 0.313 -0.063 0.504 c 0.113 0.594 1.703 1.668 2.473 1.668 c 0.219 0 0.531 0.094 0.695 0.207 c 0.207 0.141 0.508 0.191 0.949 0.164 c 0.551 -0.039 0.652 -0.012 0.652 0.184 c 0 0.191 -0.129 0.227 -0.855 0.227 c -0.66 0 -0.852 -0.043 -0.852 -0.191 m 4.594 -0.238 c 0 -0.777 -0.66 -1.01 -1.211 -0.422 c -0.258 0.277 -0.379 0.313 -0.813 0.242 l -0.516 -0.082 l 0.301 -0.242 c 0.164 -0.129 0.453 -0.238 0.645 -0.242 c 0.578 -0.004 2.219 -1.211 2.293 -1.688 c 0.051 -0.332 0.305 -0.516 0.715 -0.52 c 0.16 0 0.293 -0.078 0.293 -0.168 c 0 -0.094 0.074 -0.242 0.164 -0.332 c 0.09 -0.09 0.23 -0.438 0.313 -0.773 l 0.148 -0.613 l 0.016 0.77 c 0.012 0.422 -0.023 0.73 -0.07 0.684 c -0.105 -0.102 -0.43 0.301 -0.434 0.547 c -0.004 0.109 0.09 0.152 0.242 0.113 c 0.215 -0.055 0.258 0.027 0.316 0.602 c 0.055 0.535 0.02 0.719 -0.184 0.938 c -0.137 0.145 -0.25 0.426 -0.25 0.617 c 0 0.563 -0.367 0.438 -0.418 -0.141 c -0.031 -0.398 -0.098 -0.496 -0.348 -0.531 c -0.172 -0.023 -0.457 -0.004 -0.637 0.039 c -0.316 0.078 -0.324 0.105 -0.238 0.855 c 0.078 0.66 0.063 0.777 -0.117 0.777 c -0.152 0 -0.211 -0.125 -0.211 -0.43 m -6.676 -2.074 c -0.207 -0.203 -0.195 -0.359 0.027 -0.359 c 0.211 0 0.387 0.348 0.227 0.445 c -0.055 0.035 -0.172 -0.004 -0.254 -0.086" fill="#008f00"/><path d="m 111.56 203.04 c 0 -2.192 -3.807 -3.814 -7.435 -3.123 c -2.617 0.48 -3.598 0.12 -5.412 -1.952 c -1.457 -1.652 -2.885 -2.372 -4.01 -2.01 c -1.16 0.36 -2.587 -0.39 -4.104 -2.132 l -2.349 -2.673 l -1.755 2.162 c -2.468 3.063 -4.312 2.853 -3.509 -0.39 c 0.684 -2.733 -0.773 -5.405 -2.914 -5.405 c -0.684 0 -2.498 1.772 -4.01 3.994 c -1.517 2.192 -3.301 3.994 -3.985 3.994 c -1.457 0 -4.52 -3.213 -4.52 -4.775 c 0 -1.201 3.242 -2.492 6.691 -2.673 c 4.223 -0.21 8.267 -6.216 5.412 -7.988 c -0.506 -0.33 -1.219 -2.372 -1.606 -4.565 c -0.357 -2.192 -1.011 -3.994 -1.427 -3.994 c -1.13 0 -3.063 4.745 -3.123 7.778 c -0.059 1.501 -0.476 3.604 -0.952 4.715 c -0.535 1.261 -0.862 -3.303 -0.922 -12.132 c -0.059 -11.712 -0.327 -14.354 -1.665 -15.465 c -1.398 -1.141 -1.874 -1.021 -3.42 0.871 c -0.981 1.231 -2.29 2.222 -2.885 2.222 c -1.993 0 -1.13 -3.604 1.398 -6.01 c 2.558 -2.402 3.242 -6.697 1.844 -11.832 c -0.535 -2.042 -1.041 -2.252 -3.985 -1.712 c -4.312 0.811 -4.58 -1.441 -0.506 -4.354 l 2.855 -2.01 l -0.416 2.252 c -0.625 3.273 3.182 4.685 15.702 5.826 c 11.212 1.051 40.445 0.18 43.15 -1.231 c 1.427 -0.751 24.832 -3.964 41.1 -5.616 c 4.104 -0.42 5.769 -1.021 5.769 -2.042 c 0 -0.781 -3.569 -4.895 -7.911 -9.099 c -4.342 -4.234 -8.684 -9.04 -9.695 -10.661 c -0.981 -1.652 3.807 2.402 10.647 8.979 c 6.84 6.607 12.609 12.613 12.788 13.363 c 0.268 1.021 -0.416 1.171 -2.855 0.631 c -2.26 -0.48 -3.479 -0.3 -4.104 0.661 c -1.249 2.01 -1.1 2.583 1.338 4.835 c 3.896 3.634 2.825 17.03 -1.16 14.564 c -1.338 -0.841 -5.056 1.201 -5.056 2.763 c 0 0.841 -1.249 1.111 -3.896 0.871 c -2.974 -0.27 -4.431 0.12 -6.01 1.712 c -3.182 3.213 -11.39 2.973 -14.513 -0.39 c -1.279 -1.381 -3 -2.492 -3.866 -2.492 c -2.528 0 -4.728 1.111 -4.728 2.432 c 0 0.691 -1.011 1.652 -2.23 2.162 c -3.093 1.261 -23.999 0.21 -24.475 -1.231 c -0.565 -1.682 3.955 -2.462 10.111 -1.742 c 2.974 0.33 7.435 0.33 9.873 -0.03 c 5.294 -0.811 6.87 -3.243 6.04 -9.459 l -0.565 -4.144 h 8.267 v 5.135 c 0 6.547 1.517 7.808 9.635 7.838 c 4.55 0.03 6.305 -0.36 6.721 -1.471 c 0.327 -0.811 1.695 -1.501 3.063 -1.501 c 3.39 0 4.074 -1.562 3.717 -8.498 c -0.506 -8.919 -1.279 -9.88 -7.316 -9.07 c -2.766 0.36 -5.74 1.051 -6.662 1.501 c -6.691 3.363 -7.078 3.453 -8.981 1.742 c -2.914 -2.643 -8 -2.192 -9.368 0.841 c -1.279 2.823 -3.926 3.243 -5.859 0.931 c -1.636 -1.952 -10.825 -1.021 -15.791 1.622 c -4.847 2.583 -8.357 7.748 -7.613 11.171 c 0.535 2.432 0.327 2.763 -1.844 2.763 c -1.368 0 -3.033 -0.661 -3.717 -1.501 c -1.606 -1.952 -3.896 -1.892 -6.156 0.15 c -1.755 1.592 -1.844 1.501 -1.844 -1.862 c 0 -5.465 -2.558 -10.631 -5.65 -11.411 c -3.717 -0.931 -5.74 0.691 -6.483 5.225 c -0.476 3.033 -0.089 4.895 1.755 8.378 c 1.309 2.492 2.379 5.946 2.379 7.718 c 0 4.384 1.606 4.985 3.479 1.351 c 0.862 -1.682 1.933 -3.033 2.379 -3.033 c 1.784 0 1.963 1.321 0.535 3.544 c -1.755 2.643 -1.517 7.898 0.357 8.08 c 0.684 0.06 1.665 0.18 2.201 0.24 c 1.457 0.21 2.349 4.084 1.219 5.435 c -0.535 0.661 -0.743 2.402 -0.476 3.874 c 0.892 4.565 12.966 12.823 18.825 12.823 c 1.665 0 4.074 0.721 5.323 1.592 c 1.546 1.081 3.836 1.471 7.227 1.261 c 4.163 -0.3 4.937 -0.09 4.937 1.411 c 0 1.471 -0.981 1.742 -6.483 1.742 c -5.056 0 -6.513 -0.33 -6.513 -1.471 m 35 -1.832 c 0 -5.976 -5.03 -7.748 -9.219 -3.243 c -1.963 2.132 -2.885 2.402 -6.215 1.862 l -3.896 -0.631 l 2.26 -1.862 c 1.249 -0.991 3.479 -1.832 4.907 -1.862 c 4.431 -0.03 16.921 -9.309 17.487 -12.973 c 0.387 -2.553 2.29 -3.964 5.412 -3.994 c 1.249 0 2.26 -0.601 2.26 -1.291 c 0 -0.721 0.565 -1.862 1.249 -2.553 c 0.684 -0.691 1.755 -3.363 2.379 -5.946 l 1.13 -4.715 l 0.119 5.916 c 0.059 3.243 -0.178 5.616 -0.535 5.255 c -0.803 -0.781 -3.271 2.312 -3.331 4.204 c 0 0.841 0.684 1.171 1.874 0.871 c 1.606 -0.42 1.963 0.21 2.379 4.625 c 0.416 4.114 0.149 5.525 -1.368 7.207 c -1.041 1.111 -1.903 3.273 -1.903 4.745 c 0 4.324 -2.825 3.363 -3.182 -1.081 c -0.268 -3.063 -0.743 -3.814 -2.677 -4.084 c -1.279 -0.18 -3.479 -0.03 -4.847 0.3 c -2.409 0.601 -2.468 0.811 -1.784 6.577 c 0.595 5.075 0.446 5.976 -0.922 5.976 c -1.13 0 -1.576 -0.961 -1.576 -3.303 m -50.854 -15.946 c -1.546 -1.562 -1.457 -2.763 0.238 -2.763 c 1.576 0 2.944 2.673 1.725 3.423 c -0.446 0.27 -1.309 -0.03 -1.963 -0.661 m -26.2 -56.1 c 1.874 -2.01 3.598 -3.664 3.807 -3.664 c 0.892 0 -2.825 4.354 -4.907 5.736 c -1.546 1.051 -1.19 0.33 1.1 -2.072 m 5.829 -11.261 c -0.268 -3.994 0 -6.366 0.892 -7.357 c 1.1 -1.231 1.309 -0.511 1.309 4.504 c -0.03 8.288 -1.665 10.42 -2.201 2.853 m 70.69 -14.08 c -0.981 -1.562 -5.145 -6.126 -9.219 -10.15 c -4.074 -4.02 -7.137 -7.598 -6.81 -7.958 c 0.357 -0.33 4.996 3.754 10.319 9.07 c 6.899 6.907 9.368 10 8.595 10.751 c -0.743 0.781 -1.576 0.27 -2.885 -1.712 m -66.972 -5.315 c -0.595 -1.892 0.476 -3.453 6.78 -9.76 c 6.126 -6.126 7.792 -7.297 9.219 -6.486 c 1.576 0.871 1.517 1.021 -0.625 1.592 c -3.093 0.781 -12.877 10.24 -12.877 12.432 c -0.03 0.961 -0.416 2.342 -0.892 3.093 c -0.684 1.081 -1.041 0.901 -1.606 -0.871 m 43.508 -16.07 c 0 -0.571 0.446 -0.781 0.981 -0.42 c 0.565 0.33 1.011 0.811 1.011 1.051 c 0 0.24 -0.446 0.42 -1.011 0.42 c -0.535 0 -0.981 -0.45 -0.981 -1.051 m -23.02 -3.483 c 0 -2.402 0.149 -2.462 8.505 -2.462 c 7.435 0 8.505 0.24 8.505 1.772 c 0 1.471 -0.803 1.682 -5.502 1.381 c -3.033 -0.18 -6.87 0.15 -8.505 0.721 c -2.795 0.961 -3 0.871 -3 -1.411" transform="matrix(0.13135 0 0 0.13008 0.937 -1.701)" fill="#19190c" stroke="#19190c"/></svg>