<svg xmlns="http://www.w3.org/2000/svg" viewBox="0 0 32 32"><defs><linearGradient id="0" gradientUnits="userSpaceOnUse" y1="47" x2="0" y2="1" gradientTransform="matrix(0.44294 0 0 0.43681 5.376 5.629)"><stop stop-color="#549c30"/><stop offset="1" stop-color="#5cab36"/></linearGradient></defs><path d="m 0.469 19.328 c 2.477 16.48 27.15 16.977 30.879 0.953 c 3.836 -12.973 -10.06 -23.578 -20.453 -19.328 c -6.961 2.01 -12.586 10.227 -10.426 18.371" fill="#5faf36"/><path d="m 21.461 7.813 c 2.594 1.773 4.289 4.73 4.289 8.08 c 0 5.426 -4.461 9.828 -9.965 9.828 c -3.398 0 -6.395 -1.672 -8.195 -4.23 c 0.461 0.793 1.023 1.527 1.676 2.168 c 1.809 1.621 4.215 2.609 6.852 2.609 c 5.625 0 10.188 -4.5 10.188 -10.05 c 0 -2.602 -1 -4.973 -2.645 -6.758 c -0.652 -0.645 -1.395 -1.199 -2.199 -1.652 m 2.199 1.652 c 1.707 1.797 2.754 4.211 2.754 6.867 c 0 5.547 -4.559 10.05 -10.188 10.05 c -2.691 0 -5.141 -1.035 -6.961 -2.719 c 1.844 1.813 4.375 2.938 7.184 2.938 c 5.625 0 10.188 -4.5 10.188 -10.05 c 0 -2.77 -1.141 -5.27 -2.977 -7.086" fill-opacity="0.051"/><path d="m 23.66 9.465 c 1.645 1.785 2.645 4.156 2.645 6.758 c 0 5.547 -4.563 10.05 -10.188 10.05 c -2.637 0 -5.04 -0.988 -6.852 -2.609 c 1.82 1.684 4.27 2.719 6.961 2.719 c 5.629 0 10.188 -4.5 10.188 -10.05 c 0 -2.656 -1.047 -5.07 -2.754 -6.867" fill-opacity="0.102"/><path d="m 19.219 6.668 c 3.816 1.375 6.531 4.984 6.531 9.227 c 0 5.43 -4.457 9.828 -9.965 9.828 c -4.301 0 -7.961 -2.68 -9.355 -6.441 c 1.547 4.691 6.316 7.582 11.262 6.824 c 4.941 -0.762 8.594 -4.949 8.617 -9.883 c -0.008 -4.363 -2.871 -8.227 -7.09 -9.555" fill-opacity="0.2"/><path d="m 16.01 6.066 c 5.625 0 10.188 4.496 10.188 10.05 c 0 5.547 -4.563 10.05 -10.188 10.05 c -5.629 0 -10.188 -4.5 -10.188 -10.05 c 0 -5.551 4.559 -10.05 10.188 -10.05" fill="url(#0)"/><path d="m 23.11 8.918 c 1.645 1.785 2.645 4.156 2.645 6.758 c 0 5.547 -4.559 10.05 -10.188 10.05 c -2.637 0 -5.04 -0.984 -6.852 -2.609 c 1.852 1.875 4.434 3.047 7.297 3.047 c 5.625 0 10.188 -4.5 10.188 -10.05 c 0 -2.824 -1.188 -5.371 -3.09 -7.195" fill-opacity="0.102"/><g fill="#ede7aa" fill-rule="evenodd" stroke="#fffacd" stroke-width="1.239" transform="matrix(0.125 0 0 0.125 0.136 0.135)"><path d="m 134.29 152.67 c -1.437 -4.719 -2.281 -9.969 -2.125 -13.75 c 0.125 -3.813 -0.344 -6.781 -1.25 -7.875 c -0.781 -0.938 -1.187 -2.656 -0.906 -3.781 c 1.031 -3.906 -0.875 -5 -8.562 -5.03 c -6.937 -0.031 -7.406 -0.219 -9.281 -3.281 c -3.437 -5.656 -2.281 -13.06 2.812 -18.19 l 2.75 -2.75 l 20.12 0.031 c 17.812 0.063 20.09 0.25 20.12 1.813 c 0.062 2.844 2.906 5.938 4.844 5.188 c 1.031 -0.406 1.969 0.031 2.375 1.125 c 0.781 2 -5.094 7.938 -7.812 7.938 c -0.875 0 -2.781 -2.313 -4.219 -5.156 c -3.531 -6.875 -5.719 -9.656 -6.75 -8.625 c -0.937 0.938 2.969 9 7.06 14.625 c 1.906 2.656 3.125 3.375 4.719 2.875 c 1.812 -0.563 2 -0.313 1.344 1.75 c -0.406 1.344 -2.469 4.656 -4.531 7.375 c -3.375 4.438 -3.687 5.406 -3.062 9.625 c 0.562 3.781 0.281 5.219 -1.531 7.531 c -1.25 1.563 -2.25 3.5 -2.25 4.281 c 0 0.781 -1.312 3.625 -2.906 6.281 c -2.031 3.344 -3.781 4.938 -5.75 5.25 c -2.656 0.375 -3 -0.094 -5.219 -7.25"/><path d="m 204.57 121.64 c 0 -3.813 -0.219 -4.344 -1.531 -3.25 c -1.25 1.031 -1.906 0.75 -3.375 -1.5 c -1 -1.5 -2.25 -2.5 -2.781 -2.156 c -0.531 0.313 -0.969 -0.438 -0.969 -1.719 c 0 -1.25 -0.469 -2 -1.062 -1.656 c -0.562 0.375 -1.781 -0.844 -2.719 -2.656 c -1.437 -2.75 -2.062 -3.125 -3.781 -2.219 c -3.094 1.656 -6.562 7.06 -6.562 10.25 c 0 4.406 -1.75 3.281 -3.25 -2.094 c -1.969 -7.094 -5.937 -11 -11.906 -11.719 c -3.094 -0.375 -5.531 -1.438 -6.687 -2.844 c -1.156 -1.406 -3.687 -2.5 -6.812 -2.938 c -3.719 -0.5 -4.906 -1.125 -4.687 -2.406 c 0.156 -0.969 -0.625 -1.844 -1.906 -2.063 c -4.875 -0.844 -5.344 -1.344 -2.937 -3.03 c 1.375 -0.969 3.375 -1.344 4.969 -0.969 c 2.937 0.75 5.03 -1.313 2.375 -2.344 c -0.906 -0.375 -1.687 -1.344 -1.687 -2.156 c 0 -0.844 -0.5 -1.531 -1.094 -1.531 c -0.594 0 -1.062 0.594 -1.062 1.313 c 0 1 -0.312 1 -1.312 0 c -1.719 -1.719 -3.03 -1.656 -3.03 0.156 c 0 0.813 -1.219 2.813 -2.719 4.406 c -1.594 1.75 -2.719 2.313 -2.719 1.438 c 0 -0.813 -1.25 -2.656 -2.75 -4.094 c -2.156 -2 -2.969 -2.281 -3.656 -1.188 c -0.5 0.781 -1.187 1.375 -1.562 1.344 c -3.219 -0.438 -4.844 0.344 -6.5 3.156 c -2.344 4 -6.469 4.563 -5.937 0.813 c 0.219 -1.594 1.219 -2.563 2.875 -2.813 c 2.094 -0.281 2.437 -0.813 1.875 -2.969 c -0.469 -1.875 -0.187 -2.625 0.937 -2.625 c 0.875 0 2.25 -0.938 3.03 -2.063 c 0.906 -1.313 3.094 -2.219 5.75 -2.469 c 2.844 -0.25 5.406 -1.406 7.469 -3.344 c 3 -2.844 3.03 -2.969 0.719 -2.969 c -1.906 0 -2.25 -0.469 -1.687 -2.188 c 0.375 -1.188 0.219 -2.156 -0.312 -2.156 c -1.437 0 -4.719 3.844 -3.937 4.625 c 0.375 0.344 0.312 1.188 -0.094 1.844 c -0.531 0.906 -1.125 0.906 -2.219 0 c -0.812 -0.688 -2 -0.938 -2.625 -0.531 c -3 1.844 -0.594 -1.875 3.406 -5.313 c 4.625 -3.969 6 -4.375 10.469 -3.188 c 1.875 0.5 2.156 0.938 1.094 1.563 c -1.125 0.719 -1.156 1.188 -0.125 2.219 c 1.031 1.031 1.969 1.031 4.344 -0.094 c 5.781 -2.688 14.906 -4.344 25.875 -4.719 c 4 -0.125 16.843 14.719 22.468 25.875 c 3.25 6.5 6.094 16.219 5.844 20.03 c -0.156 2.156 0.281 2.656 2.094 2.469 c 2.031 -0.219 2.375 0.5 3 5.75 c 0.531 4.625 0.344 6.375 -0.937 7.625 c -1.469 1.469 -1.656 1.156 -1.656 -2.906 m -43.41 -30.03 c -0.031 -0.469 -0.719 -2.031 -1.531 -3.469 c -0.812 -1.469 -1.219 -3.313 -0.906 -4.094 c 0.625 -1.625 -0.656 -1.781 -2.906 -0.375 c -1.344 0.844 -1.25 1.563 0.531 4.875 c 1.812 3.375 4.906 5.344 4.812 3.063"/><path d="m 75.41 170.86 c -2.375 -0.375 -3 -1.281 -4.094 -5.906 c -0.687 -3 -1.25 -8.438 -1.25 -12.09 c 0 -5.469 -0.437 -7.125 -2.562 -9.406 c -1.406 -1.5 -3.437 -5.281 -4.5 -8.344 c -1.812 -5.125 -1.812 -5.875 -0.25 -9.219 c 0.906 -2 1.875 -4.625 2.094 -5.813 c 0.344 -1.813 1.187 -2.125 5.125 -1.938 c 3.03 0.125 5.594 1 7.094 2.438 c 1.312 1.219 2.969 2.219 3.687 2.219 c 0.719 0 1.812 1.125 2.437 2.531 c 1.281 2.781 6.25 6.125 8.125 5.438 c 0.625 -0.25 2.031 0.563 3.125 1.75 c 1.812 2 1.844 2.344 0.187 4.844 c -0.969 1.5 -1.781 4.188 -1.781 6 c 0 2.188 -0.937 4.125 -2.687 5.656 c -1.469 1.281 -3.219 3.969 -3.875 5.969 c -0.656 2 -2.094 4.094 -3.187 4.688 c -1.281 0.688 -1.781 1.813 -1.406 3.25 c 0.406 1.531 0.031 2.188 -1.187 2.188 c -1.75 0 -2.156 1.063 -1.812 4.594 c 0.094 1.063 0.031 1.844 -0.156 1.75 c -0.187 -0.094 -1.594 -0.375 -3.125 -0.594"/><path d="m 108.44 202.95 c -3.062 -0.5 -8.937 -2.219 -13.03 -3.781 c -4.094 -1.563 -8.531 -2.969 -9.875 -3.094 c -2.937 -0.281 -4.656 -1.688 -2.094 -1.688 c 1 0 1.687 -0.469 1.531 -1.031 c -0.125 -0.531 0.719 -1.719 1.875 -2.594 c 2 -1.5 2.312 -1.344 4.375 2.344 l 2.219 3.938 l 10.812 0.125 c 8.094 0.094 11.469 -0.281 13.375 -1.531 c 1.687 -1.094 6.812 -1.906 15.187 -2.438 c 6.937 -0.438 14.781 -1.344 17.437 -2.031 c 3.312 -0.844 5.125 -0.875 5.906 -0.094 c 0.625 0.625 2.031 1.125 3.125 1.125 c 1.125 0 1.719 0.5 1.344 1.094 c -0.344 0.594 -0.031 1.094 0.75 1.125 c 3.187 0.094 -13.781 6.5 -21.312 8.03 c -8.656 1.813 -22.562 2 -31.656 0.5"/><path d="m 62.26 101.23 c -0.656 -2.375 -1.156 -2.563 -6.156 -2.063 l -5.437 0.531 l 1.625 -3.906 c 2.187 -5.219 9.594 -16.5 12.812 -19.563 l 2.625 -2.469 l 1.875 2.875 l 1.875 2.844 l 2.562 -2.375 c 1.406 -1.344 2.562 -3.25 2.562 -4.281 c 0 -1.031 0.75 -2.156 1.687 -2.531 c 2.375 -0.906 2.312 -0.906 2.937 1.531 c 0.312 1.188 1.375 2.156 2.312 2.156 c 0.937 0 1.719 0.719 1.719 1.625 c 0 0.906 0.437 1.625 0.969 1.625 c 0.531 0 1.187 1.219 1.469 2.719 c 0.344 1.813 0.031 2.719 -0.937 2.719 c -0.812 0 -1.5 -0.688 -1.5 -1.531 c 0 -2.063 -2.219 -2.781 -4.656 -1.531 c -1.312 0.688 -1.719 1.719 -1.281 3.125 c 0.5 1.563 -0.031 2.344 -2.125 3.156 c -4.03 1.531 -13.469 11.813 -13.844 15.13 l -0.344 2.781 m 3.281 -17.16 c 1.406 1.906 1.5 1.906 2.219 0.063 c 0.812 -2.125 -2.125 -6.219 -4.5 -6.219 c -1.812 0 -3.344 2.469 -1.812 2.969 c 0.625 0.219 0.906 1.469 0.656 2.781 c -0.469 2.188 -0.406 2.219 0.75 0.406 c 1.219 -1.906 1.281 -1.906 2.687 0"/><path d="m 94.57 68.953 c -0.375 -1 0.094 -2.656 1.062 -3.719 c 2.219 -2.438 1.156 -6.25 -2.062 -7.438 c -1.937 -0.719 -1.344 -1.094 3.406 -2.125 c 3.156 -0.656 9.09 -1.219 13.187 -1.219 h 7.437 l -5.219 5.438 c -2.875 2.969 -5.969 5.406 -6.875 5.406 c -0.906 0 -3.094 1.219 -4.875 2.719 c -3.75 3.156 -5.125 3.375 -6.06 0.938"/></g></svg>