<svg xmlns="http://www.w3.org/2000/svg" viewBox="0 0 32 32"><path d="m 0.801 19.656 c 6.148 29.441 48.45 -2.168 23.04 -17.13 c -9.875 -6.414 -26.2 1.988 -23.04 17.13" fill="#d1b38c"/><path d="m 9.05 20.336 c 0 -1.621 -0.055 -2.945 -0.121 -2.945 c -0.063 0 -0.25 0.117 -0.41 0.262 c -1.02 0.91 -2.242 0.715 -2.242 -0.363 c 0 -0.254 0.09 -0.465 0.219 -0.512 c 0.121 -0.043 0.219 -0.176 0.219 -0.297 c 0 -0.117 0.113 -0.215 0.254 -0.215 c 0.141 0 0.68 -0.316 1.195 -0.699 l 0.938 -0.699 l 3.367 -0.02 c 1.855 -0.012 5.336 0.426 5.141 0.387 c -0.203 -0.035 -1.578 0.145 -1.816 -0.172 c -0.285 -0.383 -1.082 -1 -1.203 -1.418 c -0.215 -0.73 -0.117 -1.129 0.422 -1.723 c 0.41 -0.449 0.449 -0.461 1.305 -0.387 l 1.297 0.844 c 1.211 -1.813 1.094 -0.902 -0.238 -0.977 l -0.086 -0.371 c -0.078 -0.316 0.082 -0.887 0.078 -1.262 l -0.012 -0.676 l 0.66 0.039 c 0.363 0.023 0.707 -0.004 0.762 -0.059 c 0.055 -0.055 0.355 -0.098 0.66 -0.098 c 0.543 0 0.563 0.016 0.563 0.492 c 0 0.27 0.059 0.488 0.137 0.488 c 0.277 0 0.594 0.453 0.594 0.852 c 0 0.332 -0.063 0.41 -0.328 0.414 c -0.457 0.004 -0.633 0.145 -0.75 0.594 c -0.082 0.328 -0.172 0.387 -0.594 0.387 c -0.371 0 -0.523 -0.074 -0.594 -0.281 c -0.055 -0.176 -0.219 -0.281 -0.434 -0.281 c -0.336 0 -0.516 0.422 -0.313 1.066 c 0.301 0.957 0.438 1.047 0.02 1.516 c -0.203 0.223 -2.945 0.273 -3.145 -0.363 c -0.031 -0.098 0.086 1.168 3.109 1.316 c 0.395 0.02 -1.273 0.066 -1.09 0.078 c 0.91 0.051 2.023 -0.391 2.703 -0.391 h 1.945 l 0.938 0.703 c 0.516 0.383 1.055 0.699 1.195 0.699 c 0.137 0 0.254 0.098 0.254 0.215 c 0 0.121 0.098 0.254 0.219 0.297 c 0.313 0.113 0.281 0.938 -0.047 1.223 c -0.496 0.43 -1.289 0.27 -2.063 -0.422 l -0.371 -0.332 l -0.039 3.02 l -0.043 3.02 h -12.254 m 2.273 -8.672 c -0.047 -0.074 -0.332 -0.176 -0.633 -0.227 c -0.91 -0.152 -1.109 -0.375 -0.992 -1.117 c 0.055 -0.352 0.152 -0.641 0.219 -0.641 c 0.066 0 0.164 -0.227 0.219 -0.508 l 0.102 -0.508 l 0.953 0.07 c 0.523 0.043 1.023 0.145 1.113 0.23 c 0.09 0.086 0.289 0.156 0.441 0.156 c 0.258 0 0.273 0.066 0.18 0.73 c -0.055 0.406 -0.148 0.77 -0.207 0.809 c -0.063 0.039 -0.176 0.293 -0.254 0.563 c -0.117 0.41 -0.215 0.5 -0.598 0.535 c -0.25 0.023 -0.492 -0.02 -0.543 -0.094 m 1.035 -2.777 c -0.055 -0.051 -0.098 -0.242 -0.098 -0.422 c 0 -0.18 -0.055 -0.328 -0.117 -0.328 c -0.066 0 -0.238 -0.57 -0.387 -1.266 c -0.262 -1.238 -0.262 -1.27 0.008 -1.461 c 0.152 -0.109 0.688 -0.27 1.191 -0.363 c 0.504 -0.09 0.949 -0.223 0.992 -0.289 c 0.047 -0.07 0.371 -0.125 0.73 -0.125 c 0.477 0 0.648 0.055 0.648 0.211 c 0 0.113 0.051 0.211 0.117 0.211 c 0.063 0 0.199 0.395 0.305 0.875 c 0.102 0.48 0.242 0.941 0.305 1.016 c 0.066 0.078 0.168 0.441 0.223 0.809 l 0.105 0.664 h -0.602 c -0.328 0 -0.602 0.051 -0.602 0.113 c 0 0.258 -2.586 0.582 -2.82 0.355" fill="#fdfdfd"/><g fill="#d1b38c"><path d="m 14.05 14.656 c 0.266 0.133 0.543 0.219 0.824 0.293 c 0.188 0.043 0.375 0.09 0.563 0.125 c 0.172 0.043 0.332 0.012 0.492 -0.008 c 0.141 -0.035 0.289 -0.051 0.434 -0.074 c 0.008 0.004 0.055 -0.016 0.059 0.008 c 0.723 0.176 0.824 -0.805 0.102 -0.984 c -0.156 -0.031 -0.309 -0.051 -0.461 -0.023 c -0.145 0.023 -0.293 0.031 -0.43 0.07 c -0.148 0.023 -0.039 0.027 -0.172 0.012 c -0.152 -0.012 -0.324 -0.086 -0.477 -0.109 c -0.176 -0.039 -0.348 -0.102 -0.52 -0.168 c -0.668 -0.383 -1.078 0.477 -0.414 0.859"/><path d="m 17.543 10.656 c 0.121 0.117 0.227 0.254 0.316 0.398 c 0.063 0.086 0.109 0.188 0.176 0.27 c 0.059 0.082 0.109 0.164 0.18 0.238 c 0.074 0.063 0.148 0.129 0.223 0.191 c 0.102 0.082 0.191 0.18 0.293 0.262 c 0.082 0.074 0.176 0.133 0.273 0.191 c 0.098 0.074 0.086 0.059 0.18 0.086 c 0.164 0.047 0.313 0.129 0.453 0.223 c 0.512 0.367 -0.008 1.086 -0.516 0.723 c -0.035 -0.047 -0.152 -0.082 -0.207 -0.102 c -0.125 -0.039 -0.262 -0.074 -0.359 -0.168 c -0.141 -0.082 -0.273 -0.168 -0.395 -0.273 c -0.105 -0.09 -0.203 -0.184 -0.309 -0.273 c -0.098 -0.086 -0.195 -0.168 -0.293 -0.262 c -0.086 -0.094 -0.16 -0.195 -0.234 -0.305 c -0.078 -0.113 -0.152 -0.23 -0.227 -0.344 c -0.043 -0.086 -0.117 -0.16 -0.18 -0.23 c -0.445 -0.441 0.184 -1.07 0.629 -0.629"/><path d="m 11.934 11.05 c 0.184 -0.066 0.379 -0.102 0.57 -0.121 c 0.285 -0.039 0.473 0.051 0.664 0.254 c 0.098 0.129 0.148 0.281 0.203 0.43 c 0.039 0.109 0.09 0.211 0.141 0.316 c 0.023 0.031 0.039 0.066 0.063 0.102 c 0.332 0.531 -0.422 1 -0.754 0.469 c -0.039 -0.066 -0.078 -0.133 -0.113 -0.199 c -0.059 -0.129 -0.125 -0.258 -0.172 -0.391 c -0.016 -0.039 -0.031 -0.078 -0.043 -0.117 c -0.012 -0.031 0 -0.008 -0.012 -0.035 c -0.004 -0.012 -0.031 -0.031 -0.02 -0.035 c 0.016 -0.004 0.02 0.02 0.027 0.031 c 0.039 0.031 0.039 0.031 0.117 0.055 c 0.035 0.008 0.113 -0.008 -0.004 0.004 c -0.113 0.012 -0.227 0.027 -0.336 0.059 c -0.582 0.234 -0.914 -0.59 -0.332 -0.82"/><path d="m 14.613 11.539 c 0.133 -0.051 0.262 -0.109 0.395 -0.152 c 0.129 -0.031 0.055 -0.02 0.215 -0.035 c 0.004 0 0.059 -0.004 0.055 -0.004 c -0.078 0.016 -0.074 0.016 -0.051 0.004 c 0.02 -0.008 0.039 -0.016 0.055 -0.02 c 0.059 -0.016 0.215 -0.066 0.145 -0.055 c 0.027 -0.012 0.113 -0.066 0.191 -0.113 c -0.004 0 -0.016 0.008 -0.012 0.004 c 0.082 -0.066 0.184 -0.109 0.277 -0.152 c 0.105 -0.031 0.191 -0.074 0.215 -0.09 c 0.102 -0.051 0.047 -0.027 0.16 -0.066 c 0.59 -0.211 0.887 0.625 0.297 0.836 c -0.004 0 -0.004 -0.004 -0.004 -0.004 c 0 0 -0.004 0.004 -0.008 0.004 c -0.09 0.051 -0.18 0.102 -0.281 0.121 c -0.117 0.055 -0.078 0.023 -0.188 0.109 c -0.086 0.047 -0.164 0.102 -0.254 0.148 c -0.09 0.039 -0.176 0.078 -0.27 0.105 c -0.086 0.031 -0.191 0.07 -0.289 0.059 c -0.008 0 0.023 0 0.031 -0.008 c 0.004 -0.008 -0.02 0.004 -0.027 0.004 c -0.09 0.023 -0.168 0.074 -0.254 0.102 c -0.563 0.277 -0.957 -0.516 -0.398 -0.797"/><path d="m 11.977 8.41 c 0.023 0.109 0.051 0.219 0.082 0.324 c 0.035 0.113 0.066 0.227 0.105 0.34 c 0.051 0.125 0.07 0.262 0.105 0.391 c 0.039 0.113 0.078 0.223 0.113 0.332 c 0.047 0.098 0.074 0.199 0.109 0.301 c 0.027 0.117 0.066 0.227 0.098 0.344 c 0.004 -0.02 0.008 0.023 0.016 0.035 c 0.004 0.008 -0.016 -0.031 -0.008 -0.023 c 0.035 0.031 0.07 0.152 0.086 0.191 c 0.055 0.09 0.094 0.191 0.125 0.293 c 0.059 0.113 0.082 0.238 0.098 0.363 c 0.082 0.625 -0.797 0.738 -0.879 0.117 c -0.008 -0.082 -0.035 -0.152 -0.066 -0.223 c -0.02 -0.094 -0.086 -0.164 -0.113 -0.254 c -0.008 -0.066 -0.125 -0.211 -0.121 -0.293 c -0.02 -0.094 -0.063 -0.18 -0.078 -0.273 c -0.035 -0.105 -0.066 -0.211 -0.113 -0.313 c -0.039 -0.129 -0.09 -0.25 -0.125 -0.379 c -0.027 -0.105 -0.047 -0.215 -0.082 -0.316 c -0.043 -0.129 -0.082 -0.254 -0.117 -0.383 c -0.039 -0.133 -0.078 -0.266 -0.105 -0.402 c -0.125 -0.613 0.746 -0.789 0.871 -0.172"/><path d="m 12.211 8.176 c 0.039 0.145 0.086 0.285 0.133 0.426 c 0.039 0.125 0.078 0.254 0.137 0.371 c 0.063 0.141 0.121 0.285 0.16 0.434 c 0.035 0.148 0.043 0.305 0.047 0.457 c 0.016 0.07 0.035 0.145 0.063 0.211 c 0.039 0.121 0.09 0.23 0.125 0.348 c 0.035 0.078 0.055 0.16 0.082 0.23 c 0.035 0.113 0.07 0.199 0.102 0.32 c 0.027 0.051 0.055 0.152 0.078 0.211 c 0.023 0.098 0.051 0.156 0.09 0.246 c 0.039 0.109 0.07 0.133 0.125 0.238 c 0.043 0.102 0.023 0.059 0.051 0.125 c 0.242 0.578 -0.578 0.918 -0.816 0.34 c -0.008 -0.02 -0.016 -0.039 -0.027 -0.059 c 0.004 0 0.004 0 0.004 0 c -0.004 -0.02 0 0 -0.02 -0.039 c -0.047 -0.074 -0.094 -0.152 -0.125 -0.238 c -0.043 -0.094 -0.09 -0.191 -0.109 -0.293 c -0.043 -0.105 -0.07 -0.211 -0.109 -0.316 c -0.016 -0.074 -0.055 -0.141 -0.07 -0.215 c -0.039 -0.102 -0.066 -0.207 -0.109 -0.305 c -0.02 -0.102 -0.078 -0.191 -0.105 -0.293 c -0.055 -0.16 -0.105 -0.324 -0.117 -0.496 c 0 -0.082 0 -0.168 -0.016 -0.25 c -0.023 -0.098 -0.07 -0.191 -0.105 -0.285 c -0.07 -0.148 -0.129 -0.305 -0.176 -0.461 c -0.059 -0.176 -0.117 -0.355 -0.16 -0.535 c -0.121 -0.613 0.746 -0.789 0.871 -0.172"/><path d="m 11.777 7.844 c 0.047 -0.012 0.254 -0.035 0.289 -0.07 c 0.102 -0.035 0.199 -0.07 0.297 -0.105 c 0.082 -0.023 0.184 -0.063 0.254 -0.082 c 0.094 -0.043 0.207 -0.059 0.297 -0.09 c 0.063 -0.016 0.145 -0.055 0.227 -0.082 c 0.105 -0.039 0.191 -0.07 0.293 -0.102 c 0.102 -0.035 0.211 -0.074 0.332 -0.098 c 0.059 -0.023 0.145 -0.043 0.199 -0.063 c 0.086 -0.035 0.199 -0.082 0.324 -0.109 c 0.086 -0.027 0.102 -0.043 0.195 -0.078 c 0.082 -0.023 0.18 -0.063 0.258 -0.09 c 0.098 -0.043 0.207 -0.059 0.301 -0.086 c 0.078 -0.031 0.191 -0.074 0.313 -0.102 c 0.027 -0.008 0.078 -0.043 0.105 -0.059 c 0.551 -0.305 0.98 0.469 0.434 0.773 c -0.117 0.066 -0.23 0.125 -0.359 0.152 c -0.078 0.012 -0.145 0.063 -0.223 0.078 c -0.082 0.027 -0.168 0.039 -0.25 0.07 c -0.09 0.031 -0.18 0.059 -0.266 0.094 c -0.109 0.035 -0.211 0.09 -0.324 0.113 c -0.074 0.008 -0.133 0.059 -0.203 0.074 c -0.113 0.043 -0.23 0.07 -0.344 0.105 c -0.074 0.008 -0.141 0.047 -0.215 0.063 c -0.082 0.023 -0.156 0.055 -0.234 0.082 c -0.098 0.035 -0.195 0.07 -0.293 0.109 c -0.082 0.023 -0.172 0.039 -0.254 0.07 c -0.09 0.031 -0.188 0.063 -0.277 0.094 c -0.094 0.027 -0.18 0.066 -0.27 0.098 c -0.141 0.047 -0.285 0.086 -0.434 0.105 c -0.613 0.125 -0.789 -0.746 -0.172 -0.867"/><path d="m 17.496 8.789 c 0.156 0.059 0.289 0.16 0.418 0.266 c 0.039 0.035 0.07 0.043 0.121 0.063 c 0.578 0.242 0.234 1.063 -0.344 0.82 c -0.129 -0.059 -0.254 -0.117 -0.359 -0.211 c -0.063 -0.066 -0.148 -0.109 -0.234 -0.145 c -0.559 -0.281 -0.164 -1.074 0.398 -0.793"/><path d="m 17.98 8.688 c 0.078 0.008 0.148 0.035 0.219 0.055 c 0.008 0 0.055 0.004 -0.004 -0.008 c -0.023 0.012 0.105 -0.055 0.07 -0.043 c 0.172 -0.109 0.066 -0.047 0.211 -0.164 c 0.031 -0.031 -0.031 0.031 -0.016 0.012 c 0.047 -0.07 0.121 -0.133 0.184 -0.188 c 0.047 -0.023 0.086 -0.059 0.133 -0.074 c 0.363 -0.102 0.574 0.078 0.707 0.387 c 0.008 0.035 0.02 0.066 0.027 0.102 c 0.02 0.082 0.039 0.32 0.031 0.234 c -0.063 -0.145 -0.055 -0.164 -0.23 -0.258 c -0.063 -0.145 -0.129 -0.004 -0.191 -0.023 c -0.012 -0.004 0.02 -0.008 0.027 -0.012 c 0.094 -0.043 0.211 -0.094 0.336 -0.125 c 0.613 -0.137 0.809 0.727 0.195 0.867 c -0.074 0.008 -0.133 0.066 -0.203 0.082 c -0.262 0.102 -0.477 0.109 -0.691 -0.113 c -0.043 -0.043 -0.059 -0.105 -0.09 -0.16 c -0.023 -0.094 -0.047 -0.191 -0.043 -0.285 c 0.121 0.176 0.363 0.207 0.535 0.078 c 0.008 -0.008 0.016 -0.016 0.023 -0.023 c 0.016 -0.023 -0.039 0.043 -0.055 0.063 c -0.043 0.055 -0.094 0.105 -0.148 0.148 c 0.004 -0.004 0.012 -0.016 0.008 -0.012 c -0.074 0.059 -0.137 0.129 -0.219 0.176 c -0.156 0.105 -0.32 0.191 -0.508 0.215 c -0.047 0 -0.094 0.008 -0.137 0.004 c -0.121 0 -0.23 -0.043 -0.344 -0.066 c -0.613 -0.121 -0.441 -0.992 0.176 -0.867"/><path d="m 17.676 10.117 c 0.004 -0.004 0.016 -0.008 0.012 -0.004 c -0.109 0.078 -0.059 0.051 -0.016 -0.016 c 0.047 -0.082 0.02 -0.16 0.004 -0.242 c 0.035 0.027 0.02 0.02 0.051 0.035 c 0.535 0.328 0.074 1.082 -0.461 0.758 c -0.113 -0.07 -0.063 -0.035 -0.16 -0.109 c -0.234 -0.211 -0.355 -0.441 -0.258 -0.762 c 0.02 -0.043 0.039 -0.09 0.063 -0.133 c 0.09 -0.145 0.23 -0.238 0.371 -0.32 c 0.559 -0.281 0.957 0.512 0.395 0.793"/><path d="m 20.488 9.04 c -0.035 0.117 -0.094 0.227 -0.156 0.332 c -0.047 0.07 -0.07 0.141 -0.102 0.219 c -0.008 0.012 -0.012 0.023 -0.016 0.035 c -0.25 0.574 -1.063 0.227 -0.816 -0.352 c 0.008 -0.016 0.016 -0.031 0.02 -0.047 c 0.043 -0.105 0.094 -0.203 0.148 -0.301 c 0.051 -0.09 0.094 -0.184 0.129 -0.281 c 0.281 -0.563 1.074 -0.164 0.793 0.395"/></g><path d="m 20.898 10.977 c -0.105 0 -0.211 -0.008 -0.313 0.012 c 0 0.008 -0.145 0.012 -0.109 0.02 c -0.602 0.176 -0.852 -0.676 -0.25 -0.852 c 0.07 -0.02 0.141 -0.035 0.215 -0.047 c 0.152 -0.023 0.305 -0.023 0.457 -0.02 c 0.629 0 0.629 0.887 0 0.887" fill="#ff8c00"/><g fill="#d1b38c"><path d="m 20.84 11.566 c -0.109 0 -0.223 0 -0.336 0 c -0.625 0 -0.625 -0.887 0 -0.887 c 0.113 0 0.227 0 0.336 0 c 0.629 0 0.629 0.887 0 0.887"/><path d="m 20.918 10.988 c -0.023 0 -0.047 0 -0.07 0 c -0.09 0 -0.18 -0.008 -0.27 0 c -0.004 0 -0.023 0.004 -0.016 0.004 c 0.012 0.004 0.027 0 0.043 0 c 0.066 -0.039 0.129 -0.078 0.191 -0.121 c -0.559 0.668 -1.375 -0.242 -0.816 -0.91 c 0.094 -0.074 0.184 -0.145 0.277 -0.219 c 0.059 -0.016 0.117 -0.039 0.176 -0.051 c 0.16 -0.035 0.324 -0.008 0.484 -0.016 c 0.805 0 0.805 1.313 0 1.313"/><path d="m 19.461 12.535 c 0 0.004 0.004 0.016 0.004 0.012 c -0.07 -0.094 -0.113 -0.207 -0.164 -0.313 c -0.035 -0.09 -0.023 -0.051 -0.043 -0.105 c -0.242 -0.582 0.574 -0.922 0.816 -0.344 c 0.023 0.051 0.016 0.031 0.027 0.066 c 0.047 0.102 0.086 0.199 0.152 0.289 c 0.281 0.559 -0.512 0.957 -0.793 0.395"/><path d="m 18.734 12.672 c -0.059 -0.117 -0.059 -0.254 -0.105 -0.371 c -0.234 -0.586 0.59 -0.914 0.82 -0.332 c 0.047 0.125 0.07 0.25 0.109 0.375 c 0.234 0.582 -0.59 0.91 -0.824 0.328"/><path d="m 17.848 11.652 c 0 -0.016 0.004 -0.031 0.008 -0.047 c 0.105 -0.617 0.98 -0.465 0.871 0.152 c -0.004 0.023 -0.008 0.047 -0.012 0.066 c -0.121 0.617 -0.992 0.441 -0.867 -0.172"/><path d="m 17.395 10.773 c 0.074 -0.035 0.051 -0.016 0.082 -0.039 c 0.551 -0.301 0.977 0.477 0.426 0.777 c -0.098 0.051 -0.059 0.035 -0.109 0.055 c -0.563 0.281 -0.961 -0.516 -0.398 -0.793"/><path d="m 15.738 11.57 c 0.152 -0.031 0.309 -0.043 0.465 -0.055 c 0.16 -0.012 0.316 -0.008 0.473 0.016 c 0.129 0.016 0.25 0.043 0.371 0.074 c 0.059 0.012 0.121 0.016 0.18 0.02 c 0.625 0.031 0.578 0.918 -0.047 0.887 c -0.121 -0.008 -0.238 -0.02 -0.355 -0.047 c -0.098 -0.027 -0.188 -0.047 -0.285 -0.059 c -0.094 -0.016 -0.188 -0.008 -0.281 -0.004 c -0.117 0.008 -0.23 0.016 -0.344 0.035 c -0.617 0.125 -0.789 -0.746 -0.176 -0.867"/><path d="m 16.359 13.934 c 0.133 0 0.27 0 0.402 0 c 0.148 -0.004 0.289 0.027 0.43 0.047 c 0.105 0.008 0.207 0.012 0.309 0.012 c 0.117 0 0.234 0 0.352 0 c 0.137 -0.004 0.27 0.031 0.406 0.047 c 0.066 0.008 0.133 0.008 0.199 0.012 c 0.625 0.02 0.598 0.906 -0.027 0.887 c -0.094 -0.004 -0.188 -0.008 -0.277 -0.02 c -0.102 -0.012 -0.203 -0.035 -0.301 -0.039 c -0.121 0 -0.242 0 -0.359 0 c -0.137 0 -0.27 -0.004 -0.406 -0.02 c -0.105 -0.012 -0.215 -0.039 -0.324 -0.039 c -0.133 0 -0.27 0 -0.402 0 c -0.629 0 -0.629 -0.887 0 -0.887"/></g></svg>