<svg xmlns="http://www.w3.org/2000/svg" viewBox="0 0 32 32"><path d="m 3.832 5 c 13.211 -15.11 37.836 7.48 24.16 22.07 c -11.551 14.621 -37.789 -6.473 -24.16 -22.07" fill="#f2ad3e"/><path d="m 156.5 968.2 v 8.906 c 0 7.469 -6 13.469 -13.469 13.469 h -16.813 c -7.469 0 -13.5 -6 -13.5 -13.469 v -8.906" transform="matrix(0.125 0 0 0.125 0 -99.55)" fill="none" stroke="#fffced" stroke-linecap="round" stroke-width="7.919"/><g fill="#fffced"><path d="m 18.465 8.625 c -0.535 0 -0.961 0.43 -0.961 0.961 v 8.797 c 0 0.535 0.426 0.961 0.961 0.961 h 6.539 c 0.531 0 0.961 -0.426 0.961 -0.961 v -5.813 c -0.016 -0.016 -0.02 -0.035 -0.035 -0.051 l -3.895 -3.895"/><path d="m 7.73 8.625 c -0.531 0 -0.961 0.43 -0.961 0.961 v 8.797 c 0 0.535 0.43 0.961 0.961 0.961 h 6.539 c 0.531 0 0.961 -0.426 0.961 -0.961 v -5.813 c -0.016 -0.016 -0.02 -0.035 -0.035 -0.051 l -3.895 -3.895"/></g><g fill="#f9d6a1"><path d="m 25.965 12.57 c -0.031 -0.07 -0.078 -0.137 -0.137 -0.195 l -3.793 -3.75 v 3.301 c 0 0.355 0.289 0.645 0.652 0.645"/><path d="m 15.23 12.57 c -0.031 -0.07 -0.078 -0.137 -0.137 -0.195 l -3.793 -3.75 v 3.301 c 0 0.355 0.293 0.645 0.652 0.645"/></g><path d="m 190.63 181.9 l -16.913 29.29 l -16.913 -29.29 l -16.823 -29.16 h 67.47" transform="matrix(0.04319 0 0 -0.03041 12.06 27.08)" fill="#fffced" stroke="#fffced" stroke-linejoin="round" stroke-linecap="round" stroke-width="16"/></svg>