<svg xmlns="http://www.w3.org/2000/svg" viewBox="0 0 32 32"><path d="m 0.121 9.418 c -3.207 45.47 58.699 11.387 17.938 -7.93 c -6.281 -2.664 -15.648 -0.719 -17.938 7.93" fill="#6a8e22"/><g fill="#fffced" fill-rule="evenodd"><path d="m 21.785 22.469 c -0.75 -0.156 -1.164 -0.383 -1.469 -0.797 c -0.25 -0.336 -0.27 -0.547 -0.309 -3.504 l -0.047 -3.148 h -1.234 v -0.883 h 1.262 v -2.523 h 2.523 v 2.523 h 2.398 v 0.883 h -2.414 l 0.039 3.23 c 0.047 3.656 0.027 3.59 1.066 3.59 c 0.426 0 0.586 -0.066 0.797 -0.336 c 0.145 -0.18 0.262 -0.465 0.262 -0.629 c 0 -0.258 0.059 -0.301 0.457 -0.301 c 0.449 0 0.457 0.012 0.379 0.41 c -0.109 0.559 -0.449 1 -0.973 1.262 c -0.523 0.262 -1.992 0.383 -2.738 0.223"/><path d="m 14.359 24.633 c -1.316 -0.172 -2.113 -0.684 -2.84 -1.836 c -0.277 -0.445 -0.547 -0.809 -0.594 -0.809 c -0.465 -0.016 -1.898 -0.293 -2.57 -0.5 c -1.488 -0.461 -2.801 -1.738 -3.309 -3.223 c -0.559 -1.625 -0.332 -4.406 0.457 -5.648 c 1.121 -1.773 2.93 -2.645 5.477 -2.648 c 3.066 0 5.125 1.355 5.988 3.941 c 0.238 0.703 0.27 1.027 0.223 2.27 c -0.07 1.973 -0.426 2.875 -1.605 4.051 c -0.836 0.836 -1.398 1.129 -2.879 1.504 c -0.297 0.078 -0.539 0.184 -0.539 0.238 c 0 0.059 0.293 0.262 0.652 0.457 c 0.469 0.254 0.891 0.371 1.516 0.414 l 0.863 0.063 v 0.93 c 0 0.512 -0.012 0.922 -0.031 0.914 c -0.016 -0.008 -0.383 -0.063 -0.809 -0.117 m -1.977 -3.73 c 0.48 -0.355 0.996 -1.117 1.266 -1.879 c 0.188 -0.527 0.227 -1.043 0.223 -3.094 c -0.008 -2.285 -0.027 -2.516 -0.305 -3.215 c -0.402 -1.016 -1.285 -1.898 -2.02 -2.023 c -1.238 -0.211 -2.418 0.34 -3 1.402 c -0.559 1.01 -0.695 1.922 -0.641 4.266 c 0.047 1.836 0.094 2.262 0.328 2.852 c 0.328 0.844 0.941 1.609 1.465 1.848 c 0.605 0.273 2.234 0.18 2.688 -0.156"/></g></svg>