<svg xmlns="http://www.w3.org/2000/svg" viewBox="0 0 32 32"><g fill="#fff8c1"><path d="m 6.598 28.879 c 24.05 15.992 38.875 -35.01 7.773 -28.26 c -12.852 2.879 -20.652 20.926 -7.773 28.26"/><path d="m 25.73 14.336 c 0 5.574 -4.367 10.09 -9.754 10.09 c -5.387 0 -9.754 -4.52 -9.754 -10.09 c 0 -5.578 4.367 -10.1 9.754 -10.1 c 5.387 0 9.754 4.52 9.754 10.1"/></g><path d="m -52.07 322.14 c 0 22.438 -18.201 40.627 -40.639 40.627 c -22.438 0 -40.621 -18.19 -40.621 -40.627 c 0 -22.438 18.18 -40.61 40.621 -40.61 c 22.438 0 40.639 18.19 40.639 40.61" transform="matrix(0.21849 0 0 0.22614 36.23 -58.52)" fill="none" stroke="#dd4713" stroke-width="6.252"/><path d="m 8.434 18.676 c 1.02 -0.012 2.184 0.617 2.445 1.234 c 0.852 -0.25 1.484 -0.34 2.137 0.059 c 1.031 -0.414 1.809 -0.262 2.41 0.152 c 1.504 -0.547 2.273 -0.113 2.273 -0.113 l 0.008 -0.879 l 2.188 -0.305 l -0.02 1.125 l 0.871 0.027 c 0.883 -0.512 1.801 -0.348 2.453 0.098 c 1.379 -0.496 2.223 -0.348 3.188 0.184 l -0.434 2.273 c -0.297 -0.121 -0.363 -0.297 -0.875 -0.297 l -0.02 2.73 h -1.988 c -0.023 -0.141 -0.016 -0.211 -0.043 -0.352 c -0.754 0.453 -1.613 0.398 -2.238 0.172 c -0.84 0.281 -1.621 0.34 -2.406 0.039 c -0.844 0.234 -1.805 0.273 -2.809 0.027 c -1.547 0.324 -2.234 0.207 -3.387 -0.398 c -0.004 0.313 -0.008 0.141 -0.02 0.398 c -0.328 0 -0.82 -0.055 -1.203 -0.055 l -0.254 1.305 c 0 0 -3.02 -0.066 -2.988 -1.266 c -1.734 -0.199 -2.242 -2.117 -2.141 -3.332 c 0.137 -1.598 1.059 -2.594 2.852 -2.828" fill="#fff8c1"/><g fill="#dd4713"><path d="m 5.703 21.469 c 0.094 -1.781 1.672 -2.621 2.797 -2.637 c 1.01 -0.012 2.055 0.676 2.313 1.254 c 0.84 -0.238 1.586 -0.32 2.23 0.051 c 1.02 -0.383 1.785 -0.242 2.379 0.141 c 1.484 -0.508 2.363 -0.102 2.363 -0.102 l 0.043 -0.855 l 1.969 -0.301 l -0.016 1.098 l 0.98 0.008 c 0.871 -0.473 1.758 -0.289 2.402 0.125 c 1.359 -0.461 2.129 -0.336 3.078 0.16 l -0.395 1.918 c -0.289 -0.113 -0.375 -0.309 -0.898 -0.211 l -0.016 2.684 l -1.777 -0.02 c -0.023 -0.133 -0.016 -0.195 -0.043 -0.328 c -1.105 0.559 -1.695 0.371 -2.309 0.16 c -0.984 0.363 -1.586 0.301 -2.414 0.051 c -0.914 0.223 -1.832 0.258 -2.824 0.027 c -1.488 0.402 -2.359 0.242 -3.465 -0.473 c 0 0.293 -0.004 0.215 -0.016 0.457 c -0.324 0 -0.824 -0.016 -1.203 -0.02 l -0.27 1.336 c 0 0 -2.828 -0.164 -2.797 -1.281 c -1.711 -0.188 -2.188 -1.906 -2.113 -3.242"/><path d="m 12.05 17.13 l -0.25 -1.535 l 3.047 -0.531 l 0.25 1.531 l 0.25 1.535 l -3.047 0.531 m 2.367 -1.992 l -0.176 -1.086 l -2.148 0.375 l 0.18 1.086 l 0.176 1.09 l 2.148 -0.375 m -1.941 -0.781 l -0.105 -0.645 l 0.668 -0.117 l 0.664 -0.113 l 0.105 0.645 l 0.105 0.641 l -0.664 0.117 l -0.668 0.117 m 2.691 -0.012 l -0.07 -0.445 l 0.215 -0.039 l 0.215 -0.035 l -0.035 -0.203 l -0.031 -0.199 l -0.215 0.039 l -0.215 0.035 l -0.035 -0.219 l -0.039 -0.223 l 0.43 -0.078 l -0.035 -0.219 l -0.035 -0.223 l 0.43 -0.078 l -0.039 -0.219 l -0.035 -0.223 l -0.859 0.148 l -0.07 -0.445 l -0.074 -0.441 l 0.43 -0.078 l 0.035 0.223 l 0.039 0.223 l 0.215 -0.035 l 0.215 -0.039 l -0.148 -0.891 l -0.641 0.113 l -0.645 0.113 l 0.07 0.445 l -0.43 0.074 l -0.426 0.074 l -0.039 -0.223 l -0.035 -0.219 l -0.238 0.039 l -0.234 0.043 l 0.035 0.223 l 0.039 0.219 l -0.43 0.078 l -0.43 0.074 l -0.035 -0.223 l -0.039 -0.223 l -0.43 0.074 l -0.43 0.078 l -0.07 -0.445 l 0.234 -0.043 l 0.238 -0.039 l -0.039 -0.223 l -0.035 -0.223 l 0.195 -0.035 l 0.191 -0.031 l -0.07 -0.445 l -0.859 0.148 l -0.039 -0.223 l -0.035 -0.219 l 0.43 -0.078 l 0.43 -0.074 l 0.035 0.223 l 0.039 0.223 l 0.211 -0.039 l 0.215 -0.035 l -0.07 -0.445 l 0.215 -0.039 l 0.215 -0.035 l 0.035 0.223 l 0.035 0.219 l -0.43 0.078 l 0.039 0.223 l 0.035 0.219 l -0.43 0.078 l 0.074 0.441 l 0.07 0.445 l 0.215 -0.035 l 0.215 -0.039 l -0.07 -0.445 l 0.898 -0.156 l -0.07 -0.445 l -0.074 -0.445 l 0.215 -0.035 l 0.215 -0.039 l -0.07 -0.445 l 0.426 -0.074 l 0.43 -0.074 l -0.148 -0.91 l -0.148 -0.914 l 0.215 -0.035 l 0.215 -0.039 l -0.035 -0.223 l -0.039 -0.223 l -0.211 0.039 l -0.215 0.039 l -0.07 -0.422 l -0.07 -0.426 l 0.215 -0.035 l 0.215 -0.039 l -0.039 -0.242 l -0.039 -0.246 l 0.215 -0.035 l 0.215 -0.039 l 0.145 0.887 l 0.145 0.891 l -0.215 0.035 l -0.215 0.039 l 0.113 0.688 l 0.113 0.691 l 0.215 -0.039 l 0.215 -0.035 l -0.039 -0.223 l -0.035 -0.223 l 0.215 -0.039 l 0.215 -0.035 l -0.035 -0.223 l -0.039 -0.223 l 0.215 -0.039 l 0.215 -0.035 l -0.078 -0.492 l -0.43 0.078 l -0.035 -0.223 l -0.039 -0.223 l 0.215 -0.039 l 0.215 -0.035 l -0.07 -0.445 l -0.215 0.035 l -0.215 0.039 l -0.074 -0.445 l -0.07 -0.441 l 0.426 -0.078 l 0.43 -0.074 l 0.043 0.246 l 0.039 0.242 l -0.43 0.078 l 0.031 0.199 l 0.035 0.199 l 0.215 -0.039 l 0.211 -0.035 l 0.039 0.223 l 0.035 0.219 l -0.43 0.078 l 0.035 0.223 l 0.039 0.219 l 0.215 -0.035 l 0.215 -0.039 l 0.148 0.91 l 0.148 0.914 l -0.859 0.148 l 0.035 0.223 l 0.039 0.223 l -0.215 0.035 l -0.215 0.039 l 0.07 0.445 l 0.215 -0.039 l 0.215 -0.035 l 0.039 0.219 l 0.035 0.223 l 0.215 -0.035 l 0.215 -0.039 l -0.039 -0.223 l -0.035 -0.223 l 0.859 -0.148 l -0.074 -0.445 l -0.07 -0.445 l 0.645 -0.109 l 0.645 -0.113 l 0.035 0.223 l 0.035 0.219 l 0.215 -0.035 l 0.215 -0.039 l -0.035 -0.223 l -0.039 -0.223 l 0.41 -0.07 l 0.406 -0.07 l 0.039 0.223 l 0.035 0.223 l 0.43 -0.078 l 0.145 0.891 l 0.145 0.887 l -0.43 0.078 l 0.074 0.441 l 0.07 0.445 l 0.215 -0.035 l 0.215 -0.039 l 0.141 0.867 l 0.145 0.867 l -0.215 0.035 l -0.215 0.039 l -0.035 -0.199 l -0.031 -0.203 l -0.43 0.078 l 0.035 0.199 l 0.031 0.199 l -0.41 0.07 l -0.406 0.074 l 0.074 0.441 l 0.07 0.445 l -0.43 0.074 l -0.43 0.078 l -0.07 -0.445 l -0.859 0.148 l 0.035 0.223 l 0.039 0.223 l -0.859 0.148 l -0.035 -0.219 l -0.039 -0.223 l 0.43 -0.078 l 0.43 -0.074 l -0.035 -0.223 l -0.039 -0.223 l -0.211 0.039 l -0.215 0.039 l -0.035 -0.199 l -0.031 -0.203 l -0.43 0.078 l 0.031 0.199 l 0.035 0.199 l -0.215 0.039 l -0.215 0.035 l 0.07 0.445 l -0.215 0.039 l -0.215 0.035 l 0.039 0.223 l 0.035 0.223 l -0.215 0.039 l -0.215 0.035 l -0.07 -0.445 m 2.863 -1.391 l -0.07 -0.422 l -0.215 0.039 l -0.215 0.035 l -0.035 -0.223 l -0.039 -0.223 l 0.859 -0.148 l -0.07 -0.445 l -0.215 0.039 l -0.215 0.035 l -0.039 -0.219 l -0.035 -0.223 l 0.43 -0.078 l 0.43 -0.074 l 0.145 0.891 l 0.145 0.887 l 0.41 -0.07 l 0.406 -0.07 l -0.035 -0.223 l -0.039 -0.223 l 0.215 -0.039 l 0.215 -0.035 l -0.07 -0.445 l -0.074 -0.445 l -0.406 0.07 l -0.41 0.074 l -0.07 -0.445 l 0.191 -0.035 l 0.195 -0.031 l -0.039 -0.223 l -0.035 -0.223 l 0.215 -0.039 l 0.215 -0.035 l -0.145 -0.891 l -0.145 -0.887 l -0.41 0.07 l -0.406 0.07 l 0.07 0.445 l -0.211 0.039 l -0.215 0.035 l -0.039 -0.223 l -0.035 -0.223 l -0.43 0.078 l 0.035 0.223 l 0.039 0.219 l -0.43 0.078 l -0.43 0.074 l 0.07 0.445 l -0.426 0.074 l -0.43 0.074 l 0.07 0.445 l -0.215 0.039 l -0.215 0.035 l -0.07 -0.445 l -0.43 0.078 l -0.035 -0.223 l -0.039 -0.223 l -0.215 0.035 l -0.215 0.039 l -0.07 -0.445 l -0.074 -0.441 l -0.215 0.035 l -0.215 0.039 l 0.039 0.223 l 0.035 0.223 l -0.859 0.148 l 0.035 0.223 l 0.039 0.223 l 0.43 -0.074 l 0.426 -0.078 l 0.039 0.223 l 0.035 0.223 l 0.859 -0.148 l 0.035 0.223 l 0.035 0.219 l 0.215 -0.035 l 0.215 -0.039 l 0.039 0.223 l 0.035 0.223 l 0.215 -0.039 l 0.215 -0.035 l 0.035 0.223 l 0.035 0.219 l -0.426 0.078 l -0.43 0.074 l 0.07 0.445 l 1.289 -0.227 l -0.035 -0.223 l -0.039 -0.223 l 0.215 -0.035 l 0.215 -0.039 l 0.074 0.445 l 0.07 0.445 l -0.426 0.074 l -0.43 0.074 l 0.07 0.445 l 0.074 0.441 l 0.215 -0.035 l 0.215 -0.039 l 0.031 0.199 l 0.031 0.203 l 0.43 -0.078 l 0.43 -0.074 m -1.75 -2.617 l -0.039 -0.223 l 0.215 -0.039 l 0.215 -0.035 l 0.035 0.223 l 0.039 0.219 l -0.43 0.078 m 0.82 -0.375 l -0.035 -0.223 l 0.215 -0.035 l 0.215 -0.039 l -0.035 -0.223 l -0.039 -0.223 l 0.645 -0.109 l 0.645 -0.113 l 0.035 0.223 l 0.039 0.219 l -0.43 0.078 l 0.035 0.223 l 0.035 0.219 l -0.43 0.078 l -0.07 -0.445 l -0.215 0.039 l -0.215 0.035 l 0.035 0.223 l 0.039 0.223 l -0.215 0.039 l -0.215 0.035 m -1.391 2.301 l -0.039 -0.223 l -0.215 0.039 l -0.215 0.035 l 0.039 0.223 l 0.035 0.223 l 0.215 -0.035 l 0.215 -0.039 m -1.762 -2.664 l -0.035 -0.223 l -0.43 0.074 l -0.43 0.078 l 0.039 0.223 l 0.035 0.219 l 0.859 -0.148 m 1.746 -2.82 l -0.035 -0.223 l -0.43 0.078 l 0.035 0.219 l 0.035 0.223 l 0.215 -0.035 l 0.215 -0.039 m 3.938 5.438 l -0.039 -0.223 l 0.215 -0.039 l 0.215 -0.035 l 0.039 0.223 l 0.035 0.219 l -0.43 0.078 m -9.426 -6.328 l -0.258 -1.578 l 1.527 -0.266 l 1.523 -0.266 l 0.258 1.574 l 0.258 1.578 l -1.523 0.27 l -1.527 0.266 m 2.367 -2.02 l -0.184 -1.109 l -1.07 0.188 l -1.074 0.188 l 0.18 1.109 l 0.184 1.113 l 1.07 -0.188 l 1.074 -0.188 m -1.945 -0.828 l -0.113 -0.688 l 0.668 -0.117 l 0.664 -0.113 l 0.227 1.375 l -0.668 0.117 l -0.664 0.117 m 5.082 -1.598 l -0.258 -1.578 l 1.48 -0.258 l 1.484 -0.262 l 0.516 3.156 l -1.484 0.258 l -1.48 0.262 m 2.281 -2 l -0.184 -1.109 l -2.102 0.367 l 0.18 1.109 l 0.18 1.113 l 1.055 -0.188 l 1.051 -0.184 m -1.859 -0.84 l -0.113 -0.688 l 0.625 -0.109 l 0.621 -0.109 l 0.113 0.691 l 0.113 0.688 l -0.625 0.109 l -0.621 0.109"/></g></svg>