<svg xmlns="http://www.w3.org/2000/svg" viewBox="0 0 32 32"><path d="m 7.52 3.297 c 16.367 -11.504 32.953 9.742 19.617 23.301 c -12.566 12.77 -32.09 0.93 -25.984 -14.961 c 1.273 -3.316 3.363 -6.227 6.367 -8.34" fill="#dcdcdc"/><path d="m 11.48 24.828 c -0.137 -0.164 -1.402 -2.77 -2.816 -5.793 c -1.734 -3.719 -2.551 -5.637 -2.516 -5.934 c 0.039 -0.371 0.281 -0.563 1.555 -1.23 c 4.09 -2.137 9.121 -4.828 10.309 -5.516 c 1.121 -0.648 1.391 -0.738 1.699 -0.59 c 0.398 0.195 1.109 1.379 1.438 2.395 c 0.113 0.348 0.801 1.695 1.531 2.992 c 1.262 2.242 1.363 2.379 2.168 2.789 c 0.465 0.238 0.898 0.543 0.965 0.68 c 0.066 0.133 0.086 0.762 0.047 1.395 c -0.059 0.883 -0.145 1.188 -0.367 1.313 c -0.219 0.129 -0.266 0.297 -0.203 0.727 c 0.063 0.414 -0.07 0.969 -0.504 2.078 c -0.324 0.832 -0.762 2.043 -0.969 2.688 c -0.484 1.5 -0.773 1.965 -1.219 1.957 c -0.57 -0.008 -2.547 -1.219 -2.809 -1.719 c -0.254 -0.492 -0.172 -0.758 0.652 -2.141 c 0.184 -0.305 0.293 -0.598 0.25 -0.648 c -0.152 -0.16 -1.047 0.438 -1.34 0.891 c -0.648 1.01 -0.969 1.266 -1.434 1.141 c -0.723 -0.199 -0.871 -0.141 -3.5 1.371 c -1.391 0.797 -2.563 1.453 -2.609 1.453 c -0.043 0 -0.191 -0.137 -0.328 -0.297 m 0.723 -8.926 c 0.102 -0.273 -0.176 -0.613 -0.496 -0.613 c -0.137 0 -0.184 0.102 -0.125 0.27 c 0.051 0.145 0.098 0.336 0.098 0.422 c 0 0.246 0.43 0.184 0.523 -0.078 m 0.656 -0.688 c -0.059 -0.246 -0.137 -0.418 -0.176 -0.379 c -0.039 0.043 -0.02 0.277 0.039 0.527 c 0.059 0.246 0.137 0.418 0.172 0.379 c 0.039 -0.043 0.023 -0.277 -0.035 -0.527 m -1.383 -0.875 c -0.113 -0.121 -0.594 0.121 -0.594 0.297 c 0 0.086 0.148 0.07 0.332 -0.035 c 0.184 -0.102 0.301 -0.223 0.262 -0.262 m 0.863 -2.723 c 0.082 -0.109 0.508 -0.289 0.941 -0.402 c 0.438 -0.113 0.766 -0.234 0.73 -0.277 c -0.098 -0.102 -2.176 0.469 -2.172 0.598 c 0 0.059 0.051 0.297 0.113 0.531 c 0.098 0.379 0.117 0.387 0.172 0.086 c 0.035 -0.188 0.133 -0.43 0.215 -0.535" fill="#c8ced4"/><path d="m 21.449 24.13 c -0.836 -0.406 -1.668 -1.168 -1.668 -1.527 c 0 -0.16 0.25 -0.703 0.559 -1.211 c 0.484 -0.805 0.711 -1.523 0.477 -1.523 c -0.039 0 -0.363 0.121 -0.715 0.273 c -0.453 0.191 -0.785 0.516 -1.148 1.109 l -0.508 0.844 l -0.801 -0.117 c -0.531 -0.078 -0.984 -0.281 -1.352 -0.605 c -0.305 -0.27 -0.641 -0.488 -0.742 -0.488 c -0.102 0 -0.629 0.27 -1.172 0.594 c -0.539 0.328 -1.109 0.594 -1.262 0.594 c -0.207 0 -0.633 -0.762 -1.574 -2.813 c -1.094 -2.375 -1.293 -2.941 -1.293 -3.652 c 0 -0.551 0.059 -0.809 0.168 -0.734 c 0.09 0.059 0.129 0.313 0.078 0.559 c -0.059 0.309 0.016 0.586 0.242 0.875 l 0.328 0.426 l -0.09 -0.453 c -0.074 -0.355 0.012 -0.566 0.395 -0.977 c 0.27 -0.285 0.672 -0.57 0.895 -0.629 c 0.391 -0.105 0.402 -0.145 0.285 -0.977 c -0.066 -0.477 -0.129 -1.129 -0.137 -1.453 l -0.02 -0.586 l 1.27 -0.371 c 4.695 -1.371 5.414 -1.551 5.586 -1.398 c 0.102 0.086 0.309 0.707 0.457 1.383 c 0.309 1.375 0.473 1.672 0.625 1.152 c 0.148 -0.492 0.992 -0.473 1.691 0.039 c 0.461 0.336 0.535 0.484 0.52 1.027 c -0.012 0.465 -0.152 0.781 -0.516 1.184 c -0.273 0.301 -0.496 0.664 -0.496 0.809 c 0 0.57 1.137 1.156 1.539 0.797 c 0.113 -0.102 0.207 -0.445 0.207 -0.766 c 0 -0.766 0.406 -1.582 0.785 -1.582 c 0.168 0 0.629 0.152 1.031 0.336 c 0.566 0.258 0.727 0.418 0.719 0.719 c -0.012 0.746 -0.418 2.051 -0.707 2.277 c -0.258 0.199 -0.27 0.277 -0.082 0.652 c 0.195 0.383 0.156 0.566 -0.391 1.91 c -0.332 0.816 -0.773 2.01 -0.98 2.656 c -0.656 2.055 -0.934 2.266 -2.203 1.648 m -10.23 -7.191 c -0.156 -0.164 -0.172 -0.145 -0.086 0.098 c 0.059 0.164 0.148 0.262 0.195 0.207 c 0.051 -0.051 0 -0.188 -0.109 -0.305 m 0.984 -1.035 c 0.098 -0.273 -0.176 -0.613 -0.496 -0.613 c -0.137 0 -0.188 0.102 -0.125 0.27 c 0.051 0.145 0.094 0.336 0.094 0.422 c 0 0.246 0.434 0.184 0.527 -0.078 m 0.656 -0.688 c -0.059 -0.246 -0.137 -0.418 -0.176 -0.379 c -0.039 0.039 -0.02 0.277 0.039 0.527 c 0.059 0.246 0.137 0.418 0.172 0.379 c 0.039 -0.043 0.023 -0.277 -0.035 -0.527 m -4.5 2.406 c -1.531 -2.98 -2.133 -4.336 -2.039 -4.598 c 0.125 -0.336 3.07 -1.926 3.242 -1.742 c 0.066 0.07 -0.191 1.059 -0.574 2.195 c -0.918 2.73 -0.926 2.855 -0.352 4.23 c 0.266 0.629 0.453 1.145 0.418 1.145 c -0.035 0 -0.348 -0.555 -0.695 -1.23 m 10.309 -9.613 c -0.918 -0.254 -1.648 -0.516 -1.629 -0.574 c 0.023 -0.063 0.039 -0.176 0.039 -0.25 c 0 -0.227 2.145 -1.262 2.477 -1.195 c 0.336 0.07 1.34 1.727 1.34 2.215 c 0 0.387 -0.184 0.371 -2.227 -0.195" fill="#aacfea"/><path d="m 21.449 24.13 c -0.836 -0.406 -1.668 -1.168 -1.668 -1.527 c 0 -0.16 0.25 -0.703 0.559 -1.211 c 0.484 -0.805 0.711 -1.523 0.477 -1.523 c -0.039 0 -0.363 0.121 -0.715 0.273 c -0.453 0.191 -0.785 0.516 -1.148 1.109 l -0.508 0.844 l -0.801 -0.117 c -0.531 -0.078 -0.984 -0.281 -1.352 -0.605 c -0.305 -0.27 -0.641 -0.488 -0.742 -0.488 c -0.102 0 -0.629 0.27 -1.172 0.594 c -0.539 0.328 -1.109 0.594 -1.262 0.594 c -0.207 0 -0.633 -0.762 -1.574 -2.813 c -1.094 -2.375 -1.293 -2.941 -1.293 -3.652 c 0 -0.551 0.059 -0.809 0.168 -0.734 c 0.09 0.059 0.129 0.313 0.078 0.559 c -0.059 0.309 0.016 0.586 0.242 0.875 l 0.328 0.426 l -0.094 -0.469 c -0.168 -0.828 0.066 -0.496 0.719 1.02 c 1.027 2.371 1.621 3.602 1.84 3.793 c 0.152 0.133 0.434 -0.008 1.109 -0.555 c 0.816 -0.664 1.098 -1.035 2.082 -2.746 c 0.152 -0.266 0.477 -0.754 0.715 -1.082 c 0.242 -0.332 0.438 -0.727 0.438 -0.879 c 0 -0.152 0.184 -0.563 0.406 -0.914 l 0.402 -0.633 l -0.434 -1.035 l -0.434 -1.031 l -0.625 0.09 c -0.344 0.051 -1.352 0.477 -2.238 0.953 c -0.883 0.473 -1.723 0.859 -1.863 0.859 c -0.191 0 -0.313 -0.281 -0.449 -1.039 c -0.105 -0.57 -0.133 -1.102 -0.063 -1.176 c 0.074 -0.074 1.27 -0.449 2.66 -0.836 c 1.391 -0.383 2.816 -0.809 3.176 -0.938 c 0.355 -0.133 0.691 -0.184 0.75 -0.117 c 0.055 0.066 0.227 0.715 0.383 1.441 c 0.156 0.727 0.344 1.359 0.418 1.406 c 0.074 0.051 0.215 -0.105 0.316 -0.344 c 0.242 -0.566 0.996 -0.582 1.742 -0.039 c 0.461 0.336 0.535 0.484 0.52 1.027 c -0.016 0.465 -0.152 0.781 -0.516 1.184 c -0.273 0.301 -0.5 0.664 -0.5 0.809 c 0 0.57 1.137 1.156 1.543 0.797 c 0.113 -0.102 0.207 -0.445 0.207 -0.766 c 0 -0.766 0.406 -1.582 0.785 -1.582 c 0.164 0 0.629 0.152 1.027 0.336 c 0.57 0.258 0.727 0.418 0.723 0.719 c -0.012 0.746 -0.418 2.051 -0.711 2.277 c -0.258 0.199 -0.266 0.277 -0.078 0.652 c 0.195 0.383 0.156 0.566 -0.391 1.91 c -0.332 0.816 -0.773 2.01 -0.98 2.656 c -0.656 2.055 -0.934 2.266 -2.203 1.648 m -10.23 -7.191 c -0.156 -0.164 -0.172 -0.145 -0.086 0.098 c 0.059 0.164 0.148 0.262 0.195 0.207 c 0.051 -0.051 0 -0.188 -0.109 -0.305 m -2.859 0.684 c -1.531 -2.98 -2.129 -4.336 -2.035 -4.594 c 0.121 -0.34 3.066 -1.93 3.238 -1.746 c 0.066 0.07 -0.191 1.059 -0.574 2.195 c -0.918 2.73 -0.926 2.855 -0.348 4.23 c 0.266 0.629 0.453 1.145 0.414 1.145 c -0.035 0 -0.348 -0.555 -0.695 -1.23 m 10.309 -9.613 c -0.918 -0.254 -1.648 -0.516 -1.629 -0.574 c 0.023 -0.063 0.043 -0.176 0.043 -0.25 c 0 -0.227 2.145 -1.262 2.473 -1.195 c 0.336 0.07 1.34 1.727 1.34 2.215 c 0 0.387 -0.184 0.371 -2.227 -0.195" fill="#9b9fa8"/><path d="m 21.14 23.719 c -1.465 -0.848 -1.473 -0.922 -0.328 -2.918 c 0.215 -0.375 0.391 -0.742 0.391 -0.816 c 0.004 -0.191 -1.301 -0.793 -1.477 -0.68 c -0.078 0.055 -0.246 0.363 -0.371 0.688 c -0.129 0.328 -0.414 0.898 -0.633 1.27 c -0.363 0.617 -0.445 0.668 -0.906 0.57 c -0.277 -0.059 -0.93 -0.387 -1.449 -0.73 l -0.945 -0.621 l -1.082 0.617 c -1.01 0.578 -1.078 0.594 -1.078 0.27 c 0 -0.246 0.074 -0.32 0.246 -0.25 c 0.336 0.137 1.941 -1.145 2.273 -1.813 c 0.145 -0.289 0.457 -0.719 0.699 -0.953 c 0.238 -0.234 0.438 -0.57 0.438 -0.75 c 0 -0.176 0.25 -0.574 0.555 -0.883 c 0.363 -0.363 0.52 -0.652 0.457 -0.828 c -0.055 -0.156 0.086 -0.563 0.324 -0.953 l 0.422 -0.68 l -0.43 -1.027 l -0.434 -1.031 l -0.629 0.09 c -0.344 0.051 -1.348 0.48 -2.234 0.953 c -0.883 0.477 -1.723 0.863 -1.867 0.863 c -0.188 -0.004 -0.309 -0.281 -0.449 -1.043 c -0.105 -0.57 -0.129 -1.098 -0.059 -1.172 c 0.07 -0.078 1.27 -0.453 2.66 -0.836 c 1.387 -0.387 2.813 -0.809 3.164 -0.938 c 0.355 -0.129 0.691 -0.203 0.754 -0.16 c 0.063 0.039 0.16 0.359 0.219 0.711 c 0.18 1.055 0.578 2.418 0.707 2.418 c 0.066 0 0.219 -0.191 0.336 -0.426 c 0.23 -0.465 0.609 -0.535 1.152 -0.211 c 1.109 0.66 1.16 1.039 0.277 2.01 c -0.352 0.387 -0.637 0.789 -0.637 0.895 c 0 0.426 0.52 0.949 1.125 1.145 c 0.797 0.254 1.074 0.02 1.168 -0.996 c 0.078 -0.828 0.336 -1.402 0.633 -1.402 c 0.328 0 1.43 0.523 1.563 0.742 c 0.176 0.293 0.16 0.348 -0.438 1.27 c -0.586 0.91 -0.672 1.352 -0.371 1.871 c 0.152 0.262 0.07 0.598 -0.461 1.906 c -0.355 0.875 -0.695 1.777 -0.758 2.01 c -0.059 0.234 -0.293 0.863 -0.512 1.398 c -0.484 1.168 -0.664 1.207 -2.02 0.422 m 3.723 -7.898 c 0 -0.121 -0.68 -0.535 -0.883 -0.535 c -0.211 0 -0.023 0.313 0.285 0.473 c 0.449 0.227 0.598 0.246 0.598 0.063 m -3.633 -2.074 c -0.395 -0.34 -0.816 -0.434 -0.816 -0.18 c 0 0.184 0.992 0.715 1.109 0.59 c 0.043 -0.047 -0.086 -0.234 -0.293 -0.414 m -14.08 0.953 c -0.324 -0.617 -0.555 -1.211 -0.52 -1.324 c 0.035 -0.113 0.324 0.367 0.637 1.063 c 0.313 0.699 0.547 1.293 0.52 1.324 c -0.027 0.031 -0.316 -0.449 -0.637 -1.063 m 0.883 -1.125 c -0.207 -0.508 -0.195 -0.547 0.359 -1.141 c 0.52 -0.551 0.578 -0.578 0.578 -0.25 c 0 0.328 -0.559 1.918 -0.672 1.918 c -0.023 0 -0.145 -0.238 -0.266 -0.527 m 11.715 -5.863 c 0.113 -0.047 0.25 -0.043 0.305 0.016 c 0.051 0.055 -0.043 0.094 -0.211 0.09 c -0.184 -0.012 -0.223 -0.051 -0.094 -0.105 m -0.637 -0.168 c 0.113 -0.051 0.25 -0.043 0.305 0.012 c 0.051 0.059 -0.043 0.098 -0.211 0.09 c -0.184 -0.008 -0.223 -0.047 -0.094 -0.102 m 0.137 -0.676 c -0.059 -0.059 -0.023 -0.215 0.074 -0.34 c 0.133 -0.172 0.23 -0.184 0.395 -0.035 c 0.121 0.105 0.219 0.258 0.219 0.34 c 0 0.172 -0.535 0.199 -0.688 0.035" fill="#6492c9"/><path d="m 21.14 23.719 c -1.465 -0.848 -1.473 -0.922 -0.328 -2.918 c 0.215 -0.375 0.391 -0.742 0.391 -0.816 c 0.004 -0.176 -1.297 -0.797 -1.449 -0.695 c -0.066 0.043 -0.348 0.57 -0.625 1.172 c -0.609 1.324 -0.793 1.504 -1.387 1.363 c -0.617 -0.145 -2.254 -1.25 -2.254 -1.52 c 0 -0.117 0.516 -1.027 1.152 -2.02 c 0.633 -0.996 1.266 -2.031 1.402 -2.305 c 0.547 -1.082 0.793 -1.367 1.164 -1.367 c 0.445 0 0.664 -0.25 0.816 -0.934 c 0.289 -1.281 0.789 -1.68 1.543 -1.23 c 1.109 0.664 1.16 1.043 0.277 2.01 c -0.352 0.387 -0.637 0.789 -0.637 0.898 c 0 0.422 0.52 0.949 1.125 1.141 c 0.797 0.258 1.074 0.02 1.172 -0.992 c 0.074 -0.832 0.332 -1.402 0.629 -1.402 c 0.328 0 1.43 0.52 1.563 0.738 c 0.176 0.297 0.16 0.348 -0.438 1.27 c -0.586 0.91 -0.672 1.355 -0.371 1.871 c 0.152 0.262 0.07 0.598 -0.461 1.906 c -0.352 0.875 -0.695 1.781 -0.754 2.01 c -0.063 0.234 -0.297 0.863 -0.516 1.402 c -0.48 1.164 -0.664 1.203 -2.02 0.418 m 3.723 -7.898 c 0 -0.121 -0.68 -0.535 -0.883 -0.535 c -0.211 0 -0.023 0.313 0.285 0.473 c 0.449 0.227 0.598 0.246 0.598 0.063 m -3.633 -2.074 c -0.395 -0.34 -0.816 -0.434 -0.816 -0.18 c 0 0.184 0.992 0.715 1.109 0.59 c 0.043 -0.047 -0.086 -0.234 -0.293 -0.414 m -14.08 0.953 c -0.324 -0.617 -0.555 -1.211 -0.52 -1.324 c 0.035 -0.113 0.324 0.367 0.637 1.063 c 0.313 0.699 0.547 1.293 0.52 1.324 c -0.027 0.031 -0.316 -0.449 -0.637 -1.063 m 0.883 -1.125 c -0.207 -0.508 -0.195 -0.547 0.359 -1.141 c 0.52 -0.551 0.578 -0.578 0.578 -0.25 c 0 0.328 -0.559 1.918 -0.672 1.918 c -0.023 0 -0.145 -0.238 -0.266 -0.527 m 5.02 0.23 c -0.043 -0.07 -0.129 -0.496 -0.191 -0.949 l -0.113 -0.824 l 0.492 0.113 c 0.34 0.082 0.605 0.031 0.852 -0.148 c 0.195 -0.148 0.41 -0.27 0.48 -0.27 c 0.246 0 0.117 1.137 -0.156 1.395 c -0.422 0.395 -1.285 0.828 -1.367 0.684 m 6.703 -6.094 c 0.113 -0.047 0.25 -0.043 0.305 0.016 c 0.051 0.055 -0.043 0.094 -0.211 0.09 c -0.184 -0.012 -0.223 -0.051 -0.094 -0.105 m -0.637 -0.168 c 0.113 -0.051 0.25 -0.043 0.305 0.012 c 0.051 0.059 -0.043 0.098 -0.211 0.09 c -0.184 -0.008 -0.223 -0.047 -0.094 -0.102 m 0.137 -0.676 c -0.059 -0.059 -0.023 -0.215 0.074 -0.34 c 0.133 -0.172 0.23 -0.184 0.395 -0.035 c 0.121 0.105 0.219 0.258 0.219 0.34 c 0 0.172 -0.535 0.199 -0.688 0.035" fill="#5478ad"/><path d="m 21.14 23.719 c -1.465 -0.848 -1.473 -0.922 -0.328 -2.918 c 0.215 -0.375 0.391 -0.738 0.391 -0.809 c 0.004 -0.07 -0.316 -0.297 -0.711 -0.5 c -0.703 -0.367 -0.715 -0.367 -0.949 -0.039 c -0.129 0.18 -0.234 0.445 -0.242 0.582 c -0.004 0.141 -0.223 0.625 -0.492 1.078 c -0.441 0.758 -0.523 0.816 -0.961 0.723 c -0.645 -0.137 -2.203 -1.145 -2.203 -1.422 c 0 -0.359 0.461 -1.227 1.277 -2.414 c 0.414 -0.605 1.016 -1.574 1.332 -2.148 c 0.492 -0.906 0.645 -1.059 1.086 -1.102 c 0.379 -0.039 0.57 -0.18 0.723 -0.52 c 0.273 -0.609 0.223 -0.613 1.598 0.156 c 0.031 0.02 -0.059 0.207 -0.199 0.422 c -0.348 0.527 -0.32 0.863 0.109 1.297 c 0.73 0.727 1.859 0.637 1.859 -0.148 c 0 -0.453 0.227 -0.527 0.738 -0.246 c 0.523 0.293 0.691 0.316 0.691 0.105 c 0 -0.133 -0.363 -0.32 -1.156 -0.594 c -0.262 -0.09 -0.266 -0.133 -0.035 -0.609 c 0.137 -0.281 0.332 -0.512 0.438 -0.512 c 0.395 0 1.535 0.559 1.617 0.793 c 0.094 0.262 -0.313 1.242 -0.512 1.242 c -0.203 0 -0.629 0.914 -0.555 1.188 c 0.039 0.137 0.145 0.422 0.238 0.625 c 0.137 0.301 0.051 0.656 -0.473 1.949 c -0.352 0.867 -0.691 1.77 -0.754 2 c -0.063 0.23 -0.293 0.859 -0.512 1.398 c -0.484 1.168 -0.664 1.203 -2.02 0.418 m 0.176 -9.875 c -0.242 -0.23 -0.582 -0.418 -0.754 -0.418 c -0.387 0 -0.395 -0.359 -0.02 -0.852 c 0.27 -0.355 0.324 -0.367 0.879 -0.152 c 0.902 0.348 1.145 0.707 0.898 1.336 c -0.238 0.621 -0.418 0.633 -1 0.086" fill="#56595b"/><path d="m 21.953 23.992 c -0.211 -0.227 -0.098 -0.836 0.285 -1.496 c 0.219 -0.375 0.395 -0.855 0.398 -1.074 c 0.004 -0.215 0.203 -0.605 0.441 -0.859 c 0.242 -0.258 0.609 -0.914 0.82 -1.457 c 0.348 -0.898 0.363 -1.031 0.152 -1.43 c -0.188 -0.359 -0.363 -0.445 -0.977 -0.488 l -0.746 -0.051 l -0.434 0.938 l -0.43 0.941 l 0.508 0.563 c 0.633 0.695 0.637 0.973 0.031 1.617 c -0.262 0.281 -0.477 0.574 -0.48 0.652 c 0 0.074 -0.207 0.398 -0.453 0.719 c -0.305 0.391 -0.535 0.543 -0.711 0.469 c -0.398 -0.164 -0.316 -0.633 0.297 -1.645 c 0.801 -1.324 0.824 -1.5 0.293 -1.957 c -0.699 -0.605 -1.188 -0.68 -1.523 -0.238 c -0.156 0.207 -0.328 0.574 -0.383 0.82 c -0.121 0.551 -0.711 1.715 -0.867 1.715 c -0.711 0 -0.82 -0.84 -0.227 -1.711 c 0.676 -0.988 0.801 -1.32 0.578 -1.555 c -0.207 -0.219 -0.629 0.199 -1.652 1.629 c -0.813 1.133 -1.375 0.617 -0.688 -0.633 c 0.227 -0.41 0.867 -1.398 1.43 -2.191 c 0.563 -0.793 1.07 -1.602 1.125 -1.797 c 0.059 -0.195 0.297 -0.402 0.531 -0.461 c 0.512 -0.129 0.984 -0.535 0.984 -0.852 c 0 -0.285 0.004 -0.285 0.609 0.039 c 0.516 0.273 0.621 0.48 0.344 0.668 c -0.32 0.211 -0.164 1.035 0.289 1.496 c 0.746 0.766 2.094 0.605 2.094 -0.246 c 0 -0.371 0.148 -0.395 0.707 -0.121 c 0.414 0.199 0.531 0.547 0.246 0.734 c -0.238 0.16 -0.188 0.953 0.082 1.273 c 0.215 0.254 0.184 0.414 -0.316 1.57 c -0.309 0.707 -0.559 1.375 -0.559 1.48 c 0 0.18 -0.371 1.223 -0.887 2.5 c -0.207 0.516 -0.645 0.727 -0.914 0.438 m -0.902 -5.145 c 0 -0.09 -0.07 -0.168 -0.156 -0.168 c -0.09 0 -0.16 0.078 -0.16 0.168 c 0 0.094 0.07 0.172 0.16 0.172 c 0.086 0 0.156 -0.078 0.156 -0.172 m -0.699 -0.805 c 0.133 -0.348 0.316 -0.801 0.414 -1.01 c 0.129 -0.277 0.121 -0.504 -0.027 -0.883 c -0.281 -0.73 -0.555 -0.918 -1.156 -0.797 c -0.41 0.082 -0.605 0.266 -0.902 0.848 c -0.332 0.645 -0.355 0.809 -0.195 1.227 c 0.164 0.414 1.086 1.172 1.504 1.23 c 0.07 0.012 0.234 -0.266 0.363 -0.617 m 4.523 -2.488 c -0.105 -0.137 -0.398 -0.293 -0.656 -0.352 c -0.48 -0.113 -0.531 -0.207 -0.367 -0.664 c 0.125 -0.355 0.422 -0.336 1.18 0.074 c 0.695 0.379 0.699 0.387 0.465 0.855 c -0.195 0.391 -0.367 0.414 -0.621 0.086 m -3.172 -1.688 c -0.113 -0.145 -0.449 -0.359 -0.746 -0.473 c -0.605 -0.234 -0.629 -0.285 -0.324 -0.73 c 0.211 -0.309 0.238 -0.305 0.953 0.051 c 0.77 0.387 0.875 0.609 0.531 1.117 c -0.188 0.27 -0.227 0.273 -0.414 0.035" fill="#232828"/></svg>