<svg xmlns="http://www.w3.org/2000/svg" viewBox="0 0 32 32"><path d="m 28.28 5.84 c 7.785 11.969 1.504 22.875 -7.309 25.461 c -11.855 3.48 -27.949 -5.664 -17.344 -24.512 c 4.215 -7.492 19.11 -9.473 24.652 -0.949" fill="#6f6f0c"/><path d="m 12.258 25.754 c -1.859 -0.152 -2.605 -0.328 -2.438 -0.57 c 0.055 -0.082 0.324 -0.152 0.594 -0.152 c 0.719 0 0.605 -0.227 -0.402 -0.809 c -1.035 -0.598 -1.992 -1.398 -1.914 -1.602 c 0.027 -0.078 0.633 -0.715 1.348 -1.418 c 0.711 -0.699 1.293 -1.352 1.293 -1.445 c 0 -0.098 -0.184 -0.391 -0.406 -0.652 c -0.676 -0.805 -1.395 -2.336 -1.617 -3.453 c -0.531 -2.695 0.852 -5.754 3.363 -7.422 c 0.992 -0.66 2.543 -1.293 3.168 -1.293 c 0.172 0 0.363 -0.066 0.418 -0.148 c 0.137 -0.199 3.039 -0.199 3.176 0 c 0.055 0.082 0.25 0.148 0.43 0.148 c 0.547 0 2.355 0.82 3.285 1.488 c 1.328 0.953 1.195 1.488 -0.781 3.164 l -0.891 0.758 l 0.383 0.574 c 0.934 1.395 1.164 1.836 1.406 2.68 c 0.895 3.102 -0.426 6.371 -3.363 8.313 l -1.117 0.742 l 1.41 0.113 c 1.918 0.16 2.746 0.309 2.699 0.488 c -0.148 0.539 -5.969 0.828 -10.04 0.492" fill="#dddda5"/><path d="m 12.742 25.344 c -0.641 -0.113 -3.277 -1.488 -3.742 -1.953 c -0.285 -0.281 -0.25 -0.34 0.988 -1.625 c 0.703 -0.73 1.316 -1.41 1.363 -1.508 c 0.043 -0.098 -0.246 -0.539 -0.645 -0.98 c -1.488 -1.656 -2.16 -3.836 -1.813 -5.891 c 0.523 -3.109 3.152 -5.668 6.477 -6.309 c 0.531 -0.102 1.035 -0.242 1.121 -0.313 c 0.215 -0.172 1.199 -0.16 1.555 0.016 c 0.16 0.082 0.742 0.258 1.293 0.391 c 1.25 0.309 2.742 1.012 3.348 1.586 l 0.461 0.434 l -0.816 0.836 c -0.453 0.461 -1.145 1.184 -1.543 1.609 l -0.719 0.766 l 0.504 0.277 c 0.617 0.34 1.414 1.551 1.859 2.832 c 1.094 3.164 -0.559 6.891 -3.855 8.699 c -1.543 0.848 -1.57 0.973 -0.219 0.988 c 0.941 0.012 1.047 0.039 0.594 0.137 c -0.68 0.145 -5.398 0.152 -6.211 0.008" fill="#b7b793"/><path d="m 12.13 24.883 c -1.027 -0.305 -3.074 -1.43 -3.184 -1.75 c -0.031 -0.094 0.523 -0.797 1.234 -1.566 c 1.453 -1.574 1.434 -1.273 0.207 -2.898 c -1.031 -1.363 -1.367 -2.387 -1.363 -4.113 c 0.004 -1.152 0.086 -1.719 0.359 -2.402 c 0.961 -2.41 3.32 -4.363 5.684 -4.703 c 0.535 -0.074 0.703 -0.059 0.617 0.07 c -0.152 0.223 0.266 0.223 1.996 0.004 c 1.613 -0.203 2.723 0.02 4.01 0.809 c 1.313 0.805 1.313 0.793 -0.219 2.508 l -1.355 1.523 l 0.461 0.418 c 0.695 0.629 1.379 1.773 1.719 2.883 c 1.074 3.496 -0.832 7.148 -4.605 8.828 c -1.211 0.539 -1.461 0.594 -2.926 0.641 c -1.27 0.043 -1.813 -0.012 -2.633 -0.254 m 1.531 -15.68 c 0 -0.324 -0.484 -0.277 -0.555 0.051 c -0.043 0.203 0.027 0.266 0.25 0.227 c 0.168 -0.031 0.305 -0.156 0.305 -0.277" fill="#dede1c"/><path d="m 12.07 24.848 c -1.082 -0.34 -2.625 -1.141 -3.01 -1.559 c -0.289 -0.313 0.102 -0.789 1.465 -1.773 c 0.621 -0.449 1.695 -1.273 2.383 -1.836 c 0.688 -0.559 1.941 -1.52 2.781 -2.133 c 1.016 -0.738 1.922 -1.578 2.703 -2.504 c 0.648 -0.766 1.398 -1.633 1.668 -1.918 l 0.488 -0.527 l 0.691 0.969 c 0.852 1.184 1.199 2.148 1.309 3.629 c 0.23 3.035 -1.664 5.871 -4.867 7.297 c -1.203 0.535 -1.461 0.594 -2.922 0.645 c -1.348 0.047 -1.773 0.004 -2.691 -0.289 m -1.359 -5.734 c -0.672 -0.816 -0.906 -1.203 -1.309 -2.148 c -0.527 -1.246 -0.539 -3.512 -0.02 -4.813 c 0.961 -2.414 3.32 -4.363 5.684 -4.703 c 0.535 -0.078 0.703 -0.059 0.613 0.066 c -0.148 0.223 0.27 0.223 2 0.008 c 1.141 -0.145 1.492 -0.133 2.277 0.07 c 0.953 0.254 2.406 1.043 2.695 1.469 c 0.258 0.383 -0.398 1.035 -3.063 3.051 c -2.934 2.215 -4.621 3.727 -6.559 5.871 c -0.805 0.891 -1.566 1.617 -1.691 1.617 c -0.125 0 -0.41 -0.219 -0.629 -0.488 m 2.949 -9.914 c 0 -0.324 -0.484 -0.277 -0.555 0.051 c -0.043 0.203 0.027 0.266 0.25 0.227 c 0.168 -0.031 0.305 -0.156 0.305 -0.277" fill="#9d9d55"/><path d="m 12.148 24.727 c -1.012 -0.289 -3.082 -1.383 -3.082 -1.625 c 0 -0.348 3.82 -3.535 6.875 -5.742 c 0.793 -0.57 1.73 -1.461 2.469 -2.34 c 0.656 -0.777 1.316 -1.461 1.465 -1.512 c 0.57 -0.199 1.645 1.105 2.152 2.613 c 0.461 1.375 0.129 3.715 -0.754 5.27 c -0.805 1.422 -2.613 2.711 -4.695 3.344 c -1.266 0.387 -3.066 0.383 -4.43 -0.008 m -1.039 -5.391 c -0.59 -0.531 -1.172 -1.457 -1.551 -2.473 c -0.535 -1.418 -0.402 -3.375 0.313 -4.691 c 0.555 -1.016 1.367 -1.863 1.367 -1.426 c 0 0.207 0.191 0.234 1.246 0.191 c 1.242 -0.051 1.242 -0.051 2.164 0.598 c 1.684 1.176 3.141 1.012 4.184 -0.477 c 0.719 -1.027 1.863 -1.527 2.566 -1.125 c 0.324 0.184 -0.598 1.203 -2.309 2.547 c -3.156 2.488 -3.891 3.133 -5.074 4.457 c -0.68 0.762 -1.531 1.688 -1.891 2.055 l -0.66 0.664" fill="#909027"/><path d="m 13.242 24.883 c -1.34 -0.215 -3.59 -1.172 -3.926 -1.664 c -0.215 -0.313 0.539 -0.891 5.934 -4.555 c 0.871 -0.59 1.969 -1.453 2.441 -1.914 c 0.469 -0.461 1.164 -1.145 1.547 -1.52 l 0.691 -0.676 l 0.32 0.34 c 0.176 0.188 0.48 0.781 0.68 1.32 c 0.195 0.535 0.426 1.012 0.512 1.059 c 0.23 0.129 0.184 2.129 -0.074 3.105 c -0.41 1.578 -1.246 2.551 -3.03 3.52 c -1.582 0.855 -3.547 1.238 -5.098 0.984 m -2.484 -6.121 c -0.68 -0.781 -1.063 -2.01 -0.965 -3.102 c 0.148 -1.684 0.609 -2.699 0.891 -1.973 c 0.211 0.535 0.773 0.941 1.305 0.941 c 0.285 0 0.594 0.063 0.68 0.141 c 0.086 0.074 0.383 0.16 0.66 0.188 c 0.617 0.063 0.727 0.484 0.348 1.34 c -0.27 0.609 -1.215 1.918 -1.82 2.516 c -0.441 0.441 -0.684 0.43 -1.098 -0.051" fill="#6f6f0c"/><path d="m 12.242 24.449 c -0.934 -0.27 -2.215 -0.922 -2.43 -1.234 c -0.063 -0.094 0.164 -0.43 0.523 -0.758 l 0.637 -0.59 h 1.355 c 0.762 0 1.754 -0.109 2.262 -0.242 c 1.148 -0.309 3.07 -1.156 3.832 -1.695 c 0.793 -0.555 1.457 -0.93 1.656 -0.93 c 0.332 0 0.379 1.016 0.09 1.949 c -0.543 1.738 -1.648 2.797 -3.633 3.457 c -1.199 0.402 -2.988 0.422 -4.293 0.043" fill="#5c5c00"/></svg>