<svg xmlns="http://www.w3.org/2000/svg" xmlns:xlink="http://www.w3.org/1999/xlink" viewBox="0 0 32 32"><defs><g id="4" clip-path="url(#3)"><path d="m 16.332 12.355 l 3.387 -3.516 l 3.234 0.375 l 1.348 2.668 v 4.445 l 1.551 1.781 l -2.469 1.777 v 2.227 l -0.918 0.273 h -0.914 l -5.816 -1.074 l -2.871 -1.676 l 1.77 -5.078"/><path d="m 6.793 28.21 c -0.148 -0.129 -0.258 -0.344 -0.293 -0.566 c -0.047 -0.301 -0.023 -0.395 0.168 -0.563 c 0.512 -0.469 1.164 -0.293 1.066 0.285 c -0.184 1.078 -0.422 1.285 -0.938 0.844 m 5.676 -3.184 c -0.25 -0.277 -0.52 -0.5 -0.621 -0.5 c -0.098 0 -0.305 -0.16 -0.469 -0.352 c -0.211 -0.25 -0.379 -0.367 -0.578 -0.387 c -0.281 -0.027 -0.344 -0.086 -0.535 -0.598 c -0.078 -0.215 -0.223 -0.355 -0.508 -0.48 c -0.246 -0.113 -0.43 -0.273 -0.488 -0.422 c -0.172 -0.43 -0.207 -0.988 -0.094 -1.242 c 0.105 -0.223 0.094 -0.262 -0.223 -0.539 c -0.434 -0.395 -0.496 -0.586 -0.258 -0.875 c 0.258 -0.324 0.242 -0.434 -0.188 -0.953 c -0.277 -0.348 -0.488 -0.496 -0.855 -0.621 c -0.324 -0.113 -0.531 -0.25 -0.625 -0.418 c -0.086 -0.141 -0.27 -0.285 -0.426 -0.32 c -0.273 -0.07 -0.281 -0.09 -0.254 -0.551 c 0.047 -0.801 0.418 -1.27 1 -1.27 c 0.684 0 1.051 0.293 1.492 1.18 c 0.184 0.371 0.281 0.441 0.836 0.672 c 0.617 0.254 0.625 0.254 0.93 0.098 c 0.164 -0.09 0.445 -0.191 0.613 -0.223 c 0.258 -0.051 0.316 -0.105 0.344 -0.328 c 0.059 -0.492 0.184 -0.527 0.586 -0.18 c 0.414 0.363 0.375 0.348 0.668 0.219 c 0.227 -0.102 0.531 -0.516 0.531 -0.73 c 0 -0.066 -0.148 -0.332 -0.324 -0.594 c -0.18 -0.258 -0.324 -0.543 -0.324 -0.633 c 0 -0.094 0.133 -0.289 0.293 -0.434 c 0.16 -0.145 0.375 -0.449 0.477 -0.672 c 0.102 -0.223 0.242 -0.473 0.313 -0.543 c 0.094 -0.109 0.098 -0.219 0.035 -0.441 c -0.09 -0.305 -0.047 -0.375 0.5 -0.797 c 0.094 -0.078 0.129 -0.203 0.09 -0.367 c -0.031 -0.172 0 -0.289 0.094 -0.371 c 0.18 -0.141 0.195 -0.535 0.039 -0.867 c -0.102 -0.219 -0.082 -0.254 0.188 -0.461 c 0.348 -0.266 0.363 -0.375 0.102 -0.699 c -0.246 -0.301 -0.195 -0.367 0.156 -0.195 c 0.242 0.125 0.289 0.121 0.547 -0.039 c 0.152 -0.098 0.441 -0.262 0.633 -0.363 c 0.195 -0.102 0.395 -0.285 0.438 -0.402 c 0.051 -0.117 0.168 -0.238 0.27 -0.27 c 0.23 -0.07 0.316 -0.285 0.195 -0.504 c -0.047 -0.094 -0.09 -0.316 -0.09 -0.496 c 0 -0.266 0.031 -0.324 0.164 -0.297 c 0.129 0.027 0.16 0.109 0.133 0.371 l -0.027 0.34 l 0.449 -0.012 c 0.66 -0.016 1.043 0.09 1.203 0.332 c 0.168 0.246 0.285 0.273 0.492 0.086 c 0.168 -0.145 0.832 -0.199 1.262 -0.102 c 0.238 0.051 0.32 0.016 0.551 -0.215 c 0.152 -0.152 0.324 -0.281 0.379 -0.281 c 0.262 0 0.82 0.859 0.902 1.398 c 0.016 0.098 0.137 0.234 0.273 0.309 c 0.234 0.125 0.27 0.117 0.613 -0.113 c 0.203 -0.133 0.418 -0.348 0.473 -0.469 c 0.059 -0.125 0.168 -0.227 0.25 -0.227 c 0.223 0 0.277 0.277 0.105 0.566 c -0.234 0.398 -0.195 0.535 0.332 1.09 c 0.551 0.57 0.863 0.664 0.961 0.285 c 0.043 -0.164 0.125 -0.23 0.277 -0.23 c 0.289 0 0.34 0.102 0.375 0.734 c 0.023 0.449 0.078 0.59 0.352 0.918 c 0.438 0.52 0.809 1.23 0.809 1.539 c 0 0.141 0.086 0.359 0.188 0.492 c 0.18 0.219 0.188 0.309 0.129 1.773 c -0.031 0.848 -0.063 1.602 -0.063 1.676 c 0 0.074 -0.117 0.402 -0.258 0.723 c -0.164 0.375 -0.281 0.844 -0.324 1.297 c -0.059 0.641 -0.305 1.301 -0.5 1.336 c -0.035 0.012 -0.184 0.023 -0.336 0.051 c -0.148 0.012 -0.453 0.148 -0.672 0.297 c -0.215 0.141 -0.574 0.32 -0.789 0.367 c -0.223 0.059 -0.453 0.145 -0.516 0.203 c -0.191 0.148 -0.133 0.496 0.113 0.688 c 0.25 0.191 0.297 0.371 0.133 0.527 c -0.078 0.074 -0.195 0.043 -0.434 -0.117 c -0.41 -0.27 -0.438 -0.27 -0.98 0.012 c -0.395 0.207 -0.465 0.215 -0.633 0.102 c -0.164 -0.109 -0.352 -0.133 -0.219 -0.184 c 0.082 -0.031 0.434 -0.059 0.555 -0.059 c 0.141 0 0.285 -0.09 0.391 -0.246 c 0.137 -0.203 0.16 -0.41 0.133 -1.309 c -0.039 -1.324 0.059 -1.52 0.914 -1.914 c 0.719 -0.332 0.992 -0.809 0.777 -1.359 c -0.066 -0.172 -0.691 -0.5 -0.953 -0.5 c -0.098 0 -0.289 -0.125 -0.422 -0.277 c -0.195 -0.223 -0.242 -0.371 -0.242 -0.773 c 0 -0.273 0.043 -0.574 0.098 -0.672 c 0.16 -0.293 0.227 -1.863 0.09 -2.113 c -0.09 -0.168 -0.109 -0.48 -0.063 -1.207 c 0.055 -0.895 0.043 -1 -0.129 -1.191 c -0.102 -0.113 -0.18 -0.285 -0.18 -0.379 c 0 -0.094 -0.117 -0.285 -0.258 -0.422 c -0.23 -0.219 -0.367 -0.258 -1.336 -0.367 c -1.754 -0.195 -2.195 -0.055 -2.828 0.902 c -0.23 0.344 -0.414 0.664 -0.414 0.703 c 0 0.109 -1.031 1.363 -1.348 1.641 c -0.273 0.238 -0.883 1.375 -0.883 1.641 c 0 0.09 -0.203 0.359 -0.453 0.602 c -0.445 0.434 -0.633 0.809 -0.898 1.773 c -0.066 0.25 -0.188 0.605 -0.277 0.801 c -0.258 0.594 -0.203 0.902 0.211 1.223 c 0.281 0.215 0.508 0.305 1 0.367 c 0.344 0.047 0.906 0.129 1.238 0.18 c 0.332 0.055 1.082 0.137 1.66 0.176 c 1.309 0.098 1.461 0.203 1.531 0.984 c 0.02 0.281 0.105 0.73 0.176 1.01 c 0.125 0.469 0.152 0.496 0.496 0.57 c 0.203 0.043 0.586 0.098 0.855 0.121 c 0.266 0.027 0.617 0.074 0.617 0.105 c 0 0.031 -0.266 0.133 -0.426 0.219 c -0.215 0.121 -0.277 0.207 -0.238 0.34 c 0.059 0.234 -0.066 0.301 -0.313 0.16 c -0.168 -0.102 -0.211 -0.094 -0.328 0.063 c -0.07 0.09 -0.133 0.242 -0.133 0.34 c 0 0.094 -0.074 0.188 -0.168 0.215 c -0.09 0.02 -0.273 0.098 -0.406 0.172 c -0.5 0.262 -0.887 0.094 -1.5 -0.656 c -0.086 -0.109 -0.242 -0.207 -0.336 -0.207 c -0.098 0 -0.324 -0.059 -0.512 -0.133 c -0.215 -0.094 -0.527 -0.133 -0.871 -0.105 c -0.457 0.031 -0.578 0.004 -0.84 -0.188 c -0.543 -0.398 -0.871 -0.156 -0.898 0.652 c -0.008 0.258 -0.023 0.273 -0.426 0.273 c -0.535 0.004 -1.145 0.418 -1.086 0.742 c 0.031 0.172 0.004 0.191 -0.16 0.152 c -0.266 -0.063 -0.707 0.102 -0.707 0.27 c 0 0.172 0.301 0.262 0.93 0.27 c 0.422 0.008 0.516 0.039 0.543 0.176 c 0.051 0.25 -0.059 0.305 -0.773 0.371 l -0.656 0.059 m 8.246 -1.438 c 0 -0.059 0.035 -0.07 0.094 -0.039 c 0.047 0.023 0.09 0.074 0.09 0.094 c 0 0.02 -0.039 0.039 -0.09 0.039 c -0.055 0 -0.094 -0.043 -0.094 -0.094 m -2.512 -7.469 c -0.223 -0.074 -0.465 -0.316 -0.465 -0.445 c 0 -0.059 0.148 -0.43 0.34 -0.824 c 0.25 -0.516 0.434 -0.77 0.703 -0.961 c 0.359 -0.25 0.371 -0.254 0.531 -0.086 c 0.094 0.094 0.262 0.426 0.379 0.742 c 0.141 0.371 0.309 0.637 0.48 0.762 c 0.316 0.23 0.344 0.543 0.055 0.738 c -0.148 0.102 -0.426 0.137 -1.047 0.137 c -0.461 -0.004 -0.902 -0.031 -0.98 -0.063"/><path d="m 6.809 28.17 c -0.074 -0.086 -0.168 -0.277 -0.199 -0.43 c -0.051 -0.23 -0.012 -0.301 0.277 -0.531 c 0.43 -0.332 0.594 -0.34 0.773 -0.039 c 0.113 0.188 0.121 0.281 0.035 0.449 c -0.055 0.117 -0.129 0.324 -0.16 0.457 c -0.043 0.199 -0.105 0.25 -0.316 0.25 c -0.145 0 -0.328 -0.07 -0.406 -0.16 m 5.789 -3.098 c -0.223 -0.254 -0.547 -0.52 -0.715 -0.59 c -0.172 -0.07 -0.379 -0.238 -0.469 -0.375 c -0.086 -0.137 -0.172 -0.266 -0.184 -0.285 c -0.02 -0.02 -0.184 -0.059 -0.375 -0.094 c -0.297 -0.047 -0.363 -0.098 -0.445 -0.371 c -0.137 -0.449 -0.207 -0.527 -0.605 -0.688 c -0.402 -0.156 -0.465 -0.25 -0.563 -0.891 c -0.051 -0.344 -0.035 -0.492 0.07 -0.602 c 0.191 -0.207 0.082 -0.469 -0.301 -0.719 c -0.43 -0.285 -0.457 -0.41 -0.18 -0.73 c 0.281 -0.328 0.246 -0.488 -0.223 -1.055 c -0.223 -0.262 -0.527 -0.484 -0.91 -0.656 c -0.34 -0.148 -0.598 -0.328 -0.629 -0.434 c -0.031 -0.098 -0.207 -0.23 -0.391 -0.293 c -0.289 -0.105 -0.32 -0.145 -0.281 -0.363 c 0.109 -0.52 0.332 -0.883 0.699 -1.117 c 0.645 -0.414 1.133 -0.156 1.73 0.934 c 0.234 0.43 0.34 0.535 0.648 0.629 c 0.203 0.063 0.434 0.176 0.523 0.25 c 0.203 0.184 0.543 0.164 0.871 -0.051 c 0.156 -0.098 0.355 -0.18 0.434 -0.18 c 0.246 0 0.469 -0.273 0.426 -0.512 c -0.063 -0.328 0.09 -0.344 0.453 -0.035 c 0.418 0.359 0.605 0.348 0.953 -0.039 c 0.379 -0.414 0.363 -0.688 -0.039 -1.219 c -0.172 -0.234 -0.316 -0.477 -0.316 -0.535 c 0 -0.059 0.152 -0.234 0.34 -0.395 c 0.184 -0.156 0.398 -0.43 0.473 -0.605 c 0.078 -0.176 0.199 -0.387 0.277 -0.473 c 0.109 -0.113 0.125 -0.258 0.078 -0.559 c -0.035 -0.227 -0.027 -0.414 0.012 -0.414 c 0.043 0 0.195 -0.102 0.34 -0.234 c 0.188 -0.168 0.254 -0.301 0.23 -0.488 c -0.012 -0.148 0.043 -0.328 0.145 -0.434 c 0.152 -0.168 0.156 -0.219 0.031 -0.684 c -0.094 -0.367 -0.102 -0.504 -0.023 -0.504 c 0.059 0 0.203 -0.086 0.313 -0.191 c 0.23 -0.207 0.203 -0.445 -0.066 -0.75 c -0.145 -0.164 -0.141 -0.164 0.152 -0.02 c 0.328 0.168 0.453 0.133 0.984 -0.25 c 0.73 -0.527 1.176 -0.992 1.176 -1.219 c 0 -0.223 0.023 -0.238 0.492 -0.227 c 0.957 0.016 0.996 0.023 1.086 0.254 c 0.129 0.324 0.41 0.371 0.801 0.137 c 0.27 -0.16 0.406 -0.184 0.723 -0.133 c 0.781 0.129 0.84 0.109 1.145 -0.375 c 0.102 -0.16 0.109 -0.16 0.305 0.012 c 0.266 0.227 0.656 0.992 0.656 1.273 c 0 0.242 0.242 0.402 0.609 0.402 c 0.246 0 0.605 -0.289 0.898 -0.727 c 0.117 -0.176 0.18 -0.199 0.27 -0.113 c 0.086 0.078 0.066 0.172 -0.094 0.43 c -0.184 0.289 -0.199 0.359 -0.09 0.602 c 0.063 0.148 0.215 0.336 0.332 0.41 c 0.117 0.074 0.238 0.211 0.27 0.309 c 0.07 0.211 0.563 0.477 0.754 0.406 c 0.07 -0.023 0.168 -0.156 0.223 -0.277 c 0.047 -0.125 0.148 -0.227 0.219 -0.227 c 0.156 0 0.242 0.273 0.242 0.777 c 0 0.301 0.078 0.469 0.383 0.84 c 0.434 0.539 0.824 1.305 0.828 1.621 c 0 0.125 0.078 0.301 0.168 0.395 c 0.176 0.191 0.18 0.289 0.094 2.324 c -0.051 1.172 -0.086 1.367 -0.313 1.844 c -0.188 0.398 -0.262 0.715 -0.289 1.219 c -0.035 0.832 -0.328 1.359 -0.75 1.359 c -0.145 0 -0.469 0.141 -0.734 0.313 c -0.258 0.168 -0.629 0.34 -0.82 0.375 c -0.387 0.07 -0.699 0.316 -0.699 0.543 c 0 0.082 0.129 0.262 0.281 0.398 c 0.152 0.137 0.277 0.293 0.277 0.344 c 0 0.199 -0.215 0.207 -0.465 0.023 c -0.344 -0.246 -0.66 -0.242 -1.113 0.016 c -0.289 0.164 -0.387 0.176 -0.48 0.09 c -0.09 -0.09 -0.059 -0.113 0.172 -0.113 c 0.172 0 0.352 -0.082 0.496 -0.234 c 0.215 -0.223 0.223 -0.277 0.207 -1.328 c -0.031 -1.328 0.039 -1.484 0.863 -1.914 c 0.426 -0.219 0.621 -0.395 0.82 -0.727 c 0.242 -0.398 0.254 -0.465 0.141 -0.668 c -0.082 -0.137 -0.402 -0.355 -0.84 -0.566 l -0.715 -0.332 l -0.117 -0.504 c -0.086 -0.379 -0.094 -0.586 -0.02 -0.797 c 0.102 -0.277 0.156 -0.641 0.266 -1.711 c 0.039 -0.383 0.016 -0.527 -0.07 -0.563 c -0.094 -0.035 -0.121 -0.293 -0.098 -1.09 c 0.02 -0.93 0.008 -1.07 -0.164 -1.277 c -0.102 -0.129 -0.195 -0.297 -0.199 -0.379 c -0.004 -0.074 -0.098 -0.285 -0.219 -0.457 c -0.207 -0.313 -0.223 -0.316 -0.996 -0.352 c -0.422 -0.02 -1.16 -0.035 -1.633 -0.035 c -0.813 0 -0.871 0.012 -1.172 0.258 c -0.176 0.145 -0.414 0.43 -0.523 0.625 c -0.504 0.902 -0.629 1.07 -0.82 1.141 c -0.141 0.051 -0.207 0.152 -0.207 0.297 c 0 0.141 -0.156 0.367 -0.43 0.629 c -0.246 0.23 -0.465 0.418 -0.504 0.418 c -0.039 0 -0.121 0.145 -0.176 0.316 c -0.059 0.176 -0.211 0.43 -0.336 0.555 c -0.156 0.16 -0.227 0.34 -0.227 0.582 c 0 0.301 -0.059 0.41 -0.457 0.773 c -0.32 0.301 -0.551 0.629 -0.746 1.078 c -0.156 0.355 -0.289 0.695 -0.289 0.77 c 0 0.066 -0.082 0.332 -0.184 0.594 c -0.293 0.754 -0.254 1.031 0.195 1.41 c 0.309 0.254 0.492 0.324 0.906 0.367 c 0.293 0.031 0.695 0.094 0.898 0.137 c 0.496 0.109 1.168 0.184 1.906 0.23 c 1.57 0.094 1.758 0.203 1.785 1.059 c 0.023 0.887 0.035 1 0.098 1.148 c 0.031 0.074 0.074 0.195 0.098 0.273 c 0.039 0.133 0.145 0.16 1.184 0.219 c 0.766 0.047 0.746 0.035 0.441 0.195 c -0.172 0.09 -0.254 0.203 -0.254 0.359 c 0 0.203 -0.023 0.211 -0.195 0.125 c -0.281 -0.148 -0.434 -0.055 -0.547 0.359 c -0.07 0.262 -0.152 0.363 -0.277 0.363 c -0.098 0 -0.301 0.07 -0.461 0.156 c -0.266 0.148 -0.301 0.148 -0.539 0.012 c -0.141 -0.082 -0.359 -0.289 -0.48 -0.473 c -0.285 -0.406 -1.105 -0.691 -2.02 -0.691 c -0.523 0 -0.66 -0.035 -0.891 -0.227 c -0.344 -0.281 -0.402 -0.281 -0.695 0.004 c -0.203 0.203 -0.23 0.285 -0.18 0.586 l 0.063 0.359 h -0.465 c -0.383 0 -0.516 0.047 -0.793 0.281 c -0.18 0.152 -0.332 0.359 -0.332 0.449 c 0 0.137 -0.066 0.176 -0.285 0.176 c -0.344 0 -0.645 0.141 -0.645 0.305 c 0 0.23 0.277 0.344 0.898 0.355 c 0.828 0.02 0.957 0.32 0.168 0.379 c -0.168 0.02 -0.43 0.055 -0.574 0.086 c -0.234 0.051 -0.313 0.004 -0.668 -0.41 m 5.949 -8.664 c -0.195 -0.207 -0.254 -0.566 -0.102 -0.656 c 0.047 -0.031 0.156 -0.25 0.238 -0.5 c 0.148 -0.434 0.578 -0.902 0.832 -0.902 c 0.191 0 0.383 0.281 0.574 0.855 c 0.129 0.383 0.25 0.574 0.434 0.676 c 0.285 0.16 0.328 0.375 0.109 0.586 c -0.113 0.109 -0.352 0.141 -1.02 0.141 c -0.781 0 -0.895 -0.027 -1.063 -0.199 m -1.516 -9.145 c -0.031 -0.152 -0.02 -0.313 0.027 -0.355 c 0.145 -0.141 0.195 0.004 0.109 0.324 l -0.078 0.301" fill-opacity="0.502"/><path d="m 6.801 28.17 c -0.227 -0.246 -0.199 -0.328 0.273 -0.801 c 0.41 -0.414 0.43 -0.426 0.555 -0.258 c 0.156 0.203 0.164 0.352 0.043 0.57 c -0.047 0.086 -0.109 0.27 -0.141 0.406 c -0.047 0.199 -0.105 0.25 -0.32 0.25 c -0.141 0 -0.332 -0.074 -0.41 -0.172 m 5.801 -3.09 c -0.223 -0.254 -0.547 -0.523 -0.715 -0.594 c -0.172 -0.066 -0.379 -0.238 -0.469 -0.375 c -0.086 -0.137 -0.172 -0.262 -0.184 -0.281 c -0.016 -0.02 -0.188 -0.063 -0.379 -0.094 c -0.285 -0.043 -0.355 -0.098 -0.379 -0.281 c -0.047 -0.383 -0.219 -0.621 -0.547 -0.727 c -0.402 -0.125 -0.586 -0.309 -0.586 -0.586 c 0 -0.246 0.07 -0.266 0.414 -0.113 c 0.203 0.086 0.262 0.078 0.367 -0.066 c 0.105 -0.145 0.148 -0.148 0.273 -0.047 c 0.133 0.105 0.152 0.094 0.152 -0.07 c 0 -0.199 -0.141 -0.242 -0.672 -0.199 c -0.195 0.02 -0.258 -0.02 -0.258 -0.152 c 0 -0.09 0.047 -0.211 0.102 -0.266 c 0.059 -0.051 0.09 -0.188 0.07 -0.305 c -0.02 -0.156 -0.109 -0.227 -0.32 -0.27 c -0.344 -0.066 -0.773 -0.359 -0.777 -0.516 c -0.004 -0.137 0.441 -0.32 0.613 -0.25 c 0.086 0.031 0.125 -0.031 0.125 -0.176 c 0 -0.293 0.129 -0.348 0.328 -0.133 c 0.156 0.168 0.16 0.191 0.012 0.344 c -0.176 0.191 -0.199 0.43 -0.055 0.516 c 0.059 0.035 0.148 0.02 0.203 -0.035 c 0.07 -0.074 0.133 -0.074 0.223 0 c 0.094 0.07 0.16 0.07 0.258 -0.012 c 0.121 -0.098 0.117 -0.137 -0.008 -0.324 c -0.133 -0.199 -0.133 -0.223 0 -0.273 c 0.086 -0.031 0.129 -0.09 0.102 -0.133 c -0.074 -0.121 -0.883 -0.453 -0.977 -0.398 c -0.039 0.023 -0.102 0.004 -0.133 -0.047 c -0.031 -0.047 -0.141 -0.09 -0.234 -0.09 c -0.094 0 -0.332 -0.188 -0.527 -0.422 c -0.238 -0.281 -0.535 -0.496 -0.93 -0.672 c -0.34 -0.152 -0.594 -0.328 -0.629 -0.434 c -0.031 -0.102 -0.203 -0.234 -0.379 -0.293 c -0.176 -0.059 -0.32 -0.141 -0.32 -0.18 c 0 -0.035 0.125 -0.148 0.273 -0.254 c 0.152 -0.102 0.285 -0.277 0.301 -0.391 c 0.023 -0.156 0.102 -0.207 0.328 -0.23 c 0.219 -0.02 0.281 -0.063 0.246 -0.168 c -0.063 -0.164 0.238 -0.391 0.43 -0.324 c 0.289 0.098 0.586 0.438 0.898 1.031 c 0.316 0.609 0.305 0.773 -0.055 0.66 c -0.215 -0.063 -0.59 0.105 -0.512 0.23 c 0.031 0.047 0.156 0.086 0.277 0.086 c 0.129 0 0.25 0.039 0.281 0.09 c 0.09 0.145 0.352 0.109 0.293 -0.039 c -0.055 -0.148 0.188 -0.383 0.289 -0.281 c 0.039 0.035 0.066 0.152 0.066 0.262 c 0 0.211 0.172 0.254 0.957 0.246 c 0.406 -0.008 0.422 0.008 0.527 0.457 c 0.043 0.203 0.004 0.273 -0.27 0.43 c -0.391 0.219 -0.402 0.309 -0.094 0.445 c 0.199 0.09 0.246 0.082 0.297 -0.051 c 0.086 -0.23 0.684 -0.871 0.883 -0.945 c 0.184 -0.074 0.223 -0.211 0.082 -0.297 c -0.051 -0.027 -0.066 -0.184 -0.035 -0.344 c 0.031 -0.16 0.059 -0.453 0.066 -0.66 c 0.008 -0.367 0.012 -0.371 0.215 -0.227 c 0.137 0.094 0.203 0.227 0.188 0.367 c -0.012 0.195 0.023 0.234 0.277 0.254 c 0.16 0.02 0.313 0.086 0.344 0.152 c 0.035 0.094 -0.059 0.117 -0.391 0.109 c -0.387 -0.016 -0.441 0.008 -0.465 0.188 c -0.035 0.242 0.176 0.277 0.359 0.059 c 0.074 -0.082 0.203 -0.117 0.324 -0.09 c 0.109 0.023 0.293 -0.016 0.414 -0.098 c 0.176 -0.121 0.223 -0.125 0.297 -0.02 c 0.07 0.102 0.109 0.094 0.223 -0.051 c 0.125 -0.156 0.125 -0.184 -0.004 -0.254 c -0.078 -0.039 -0.188 -0.043 -0.242 -0.012 c -0.121 0.07 -0.27 -0.117 -0.27 -0.348 c 0 -0.18 0.281 -0.211 0.555 -0.066 c 0.273 0.141 0.313 -0.055 0.059 -0.25 c -0.215 -0.16 -0.223 -0.195 -0.113 -0.5 c 0.152 -0.438 0.211 -0.477 0.336 -0.246 c 0.082 0.145 0.082 0.227 0.008 0.301 c -0.164 0.16 -0.117 0.246 0.145 0.246 c 0.191 0 0.227 0.031 0.168 0.152 c -0.035 0.09 -0.09 0.273 -0.109 0.414 c -0.027 0.141 -0.105 0.277 -0.176 0.305 c -0.082 0.031 -0.129 0.191 -0.129 0.449 c 0 0.332 -0.031 0.414 -0.188 0.453 c -0.113 0.027 -0.184 0.121 -0.184 0.238 c 0 0.164 -0.055 0.195 -0.301 0.184 c -0.387 -0.016 -0.535 0.043 -0.535 0.203 c 0 0.07 -0.063 0.121 -0.141 0.121 c -0.07 0 -0.133 0.047 -0.133 0.102 c 0 0.066 0.102 0.078 0.301 0.039 c 0.168 -0.031 0.41 -0.055 0.543 -0.051 c 0.137 0.004 0.301 -0.059 0.363 -0.133 c 0.105 -0.125 0.129 -0.121 0.238 0.016 c 0.102 0.137 0.145 0.141 0.355 0.031 c 0.211 -0.105 0.262 -0.105 0.414 0.027 c 0.094 0.082 0.246 0.148 0.332 0.148 c 0.105 0 0.152 0.059 0.133 0.16 c -0.023 0.105 -0.102 0.145 -0.242 0.133 c -0.254 -0.035 -0.277 0.215 -0.059 0.625 c 0.105 0.203 0.199 0.262 0.324 0.23 c 0.242 -0.059 0.242 0.215 0.008 0.422 c -0.16 0.141 -0.172 0.141 -0.316 -0.016 c -0.094 -0.094 -0.156 -0.25 -0.156 -0.355 c 0 -0.105 -0.047 -0.219 -0.094 -0.246 c -0.051 -0.031 -0.066 -0.098 -0.039 -0.141 c 0.055 -0.09 -0.211 -0.23 -0.293 -0.148 c -0.051 0.063 0.148 0.438 0.281 0.539 c 0.129 0.094 -0.02 0.352 -0.168 0.289 c -0.078 -0.023 -0.195 -0.195 -0.27 -0.371 c -0.098 -0.238 -0.219 -0.352 -0.469 -0.434 c -0.371 -0.121 -0.438 -0.098 -0.438 0.164 c 0 0.141 0.047 0.168 0.223 0.125 c 0.18 -0.047 0.238 -0.016 0.281 0.141 c 0.027 0.109 0.012 0.242 -0.027 0.293 c -0.047 0.047 -0.094 0.133 -0.098 0.184 c -0.012 0.086 -0.18 0.082 -0.453 -0.008 c -0.086 -0.027 -0.113 -0.152 -0.094 -0.402 c 0.031 -0.32 0.016 -0.355 -0.168 -0.355 c -0.137 0 -0.211 0.059 -0.234 0.199 c -0.02 0.133 -0.105 0.211 -0.242 0.234 c -0.191 0.023 -0.215 0.059 -0.199 0.266 c 0 0.035 0.102 0.055 0.23 0.035 c 0.125 -0.012 0.23 0.02 0.23 0.07 c 0 0.055 -0.059 0.09 -0.129 0.09 c -0.082 0 -0.145 0.133 -0.172 0.32 c -0.023 0.199 0 0.32 0.07 0.32 c 0.059 0 0.18 0.078 0.273 0.18 c 0.094 0.098 0.238 0.18 0.32 0.18 c 0.363 0 0.496 0.406 0.207 0.656 c -0.25 0.219 -0.316 0.184 -0.25 -0.121 c 0.051 -0.207 0.027 -0.273 -0.082 -0.273 c -0.082 0 -0.148 0.063 -0.148 0.125 c 0 0.07 -0.063 0.152 -0.141 0.18 c -0.086 0.031 -0.137 0 -0.137 -0.09 c 0 -0.082 -0.059 -0.129 -0.164 -0.105 c -0.098 0.02 -0.211 -0.059 -0.281 -0.191 c -0.098 -0.184 -0.09 -0.246 0.039 -0.383 c 0.133 -0.133 0.133 -0.172 0.023 -0.176 c -0.07 -0.004 -0.211 -0.016 -0.313 -0.02 c -0.277 -0.02 -0.285 -0.313 -0.012 -0.516 c 0.184 -0.141 0.219 -0.223 0.156 -0.383 c -0.09 -0.246 -0.031 -0.434 0.168 -0.582 c 0.125 -0.098 0.133 -0.129 0.02 -0.195 c -0.074 -0.047 -0.105 -0.16 -0.078 -0.27 c 0.027 -0.105 0.012 -0.191 -0.043 -0.191 c -0.055 0 -0.031 -0.098 0.059 -0.219 c 0.184 -0.281 0.188 -0.473 0.012 -0.535 c -0.148 -0.055 -0.277 0.086 -0.277 0.305 c 0 0.082 -0.105 0.148 -0.266 0.16 c -0.391 0.047 -0.977 0.656 -0.621 0.656 c 0.047 0 0.09 -0.043 0.09 -0.094 c 0 -0.227 0.172 -0.059 0.227 0.23 c 0.035 0.172 0.098 0.313 0.141 0.313 c 0.047 0 0.133 0.148 0.195 0.324 c 0.137 0.418 0.004 0.598 -0.301 0.406 c -0.148 -0.09 -0.215 -0.094 -0.242 -0.02 c -0.02 0.059 -0.168 0.102 -0.336 0.102 c -0.168 0 -0.332 0.02 -0.363 0.055 c -0.055 0.063 0.352 0.484 0.469 0.484 c 0.031 0 0.105 0.07 0.172 0.16 c 0.113 0.148 0.129 0.145 0.258 -0.02 c 0.129 -0.172 0.133 -0.172 0.238 0.02 c 0.137 0.246 0.133 0.293 -0.035 0.293 c -0.195 0 -0.172 0.145 0.051 0.359 c 0.105 0.105 0.238 0.16 0.301 0.121 c 0.066 -0.039 0.059 0.012 -0.023 0.109 c -0.078 0.094 -0.141 0.184 -0.148 0.199 c -0.004 0.016 -0.164 -0.039 -0.348 -0.113 c -0.441 -0.18 -0.438 -0.18 -0.438 0.141 c 0 0.262 0.02 0.273 0.27 0.223 c 0.152 -0.031 0.297 -0.023 0.332 0.035 c 0.07 0.109 0.586 0.02 0.836 -0.141 c 0.438 -0.293 0.438 -0.059 0.004 0.395 c -0.27 0.277 -0.301 0.348 -0.184 0.41 c 0.242 0.133 0.75 0.043 0.707 -0.113 c -0.098 -0.383 -0.086 -0.711 0.039 -0.754 c 0.078 -0.027 0.137 -0.012 0.137 0.035 c 0 0.051 0.148 0.09 0.324 0.09 c 0.18 0 0.324 -0.035 0.324 -0.078 c 0 -0.039 0.117 -0.078 0.254 -0.082 c 0.145 -0.004 0.383 -0.031 0.539 -0.063 c 0.254 -0.059 0.277 -0.09 0.246 -0.367 c -0.023 -0.176 -0.078 -0.309 -0.125 -0.309 c -0.047 0 -0.082 -0.141 -0.082 -0.32 c 0 -0.363 -0.203 -0.43 -0.383 -0.117 c -0.09 0.172 -0.078 0.219 0.094 0.355 c 0.223 0.176 0.254 0.313 0.07 0.383 c -0.191 0.066 -0.426 -0.27 -0.426 -0.609 c 0 -0.172 -0.059 -0.32 -0.117 -0.352 c -0.215 -0.07 -0.441 0.043 -0.441 0.215 c 0 0.094 -0.043 0.172 -0.094 0.172 c -0.051 0 -0.094 -0.074 -0.094 -0.164 c 0 -0.094 -0.047 -0.207 -0.102 -0.266 c -0.18 -0.168 0.008 -0.313 0.332 -0.258 c 0.223 0.047 0.359 0.012 0.539 -0.125 c 0.227 -0.176 0.246 -0.176 0.547 -0.031 c 0.387 0.207 0.535 0.379 0.539 0.637 c 0.004 0.113 0.047 0.203 0.094 0.203 c 0.125 0 0.121 -0.328 0 -0.402 c -0.059 -0.039 -0.055 -0.117 0.004 -0.23 c 0.129 -0.23 0.281 -0.227 0.281 0.004 c 0 0.234 0.188 0.238 0.25 0.008 c 0.055 -0.211 0.5 -0.324 0.758 -0.191 c 0.242 0.125 0.227 0.129 0.477 -0.094 c 0.176 -0.137 0.191 -0.203 0.102 -0.289 c -0.094 -0.09 -0.152 -0.063 -0.293 0.117 l -0.18 0.227 l -0.004 -0.25 c 0 -0.152 0.047 -0.25 0.133 -0.25 c 0.129 0 0.281 -0.258 0.203 -0.336 c -0.02 -0.02 -0.141 -0.008 -0.258 0.027 c -0.121 0.039 -0.277 0.074 -0.352 0.078 c -0.09 0.004 -0.156 0.109 -0.172 0.254 c -0.035 0.293 -0.168 0.324 -0.254 0.059 c -0.031 -0.113 0 -0.246 0.094 -0.344 c 0.191 -0.207 0.188 -0.371 -0.02 -0.371 c -0.133 -0.004 -0.117 -0.035 0.07 -0.18 c 0.293 -0.223 1.125 -0.25 1.305 -0.047 c 0.129 0.152 0.602 0.195 0.512 0.047 c -0.031 -0.051 0.004 -0.086 0.086 -0.086 c 0.082 0 0.195 0.074 0.258 0.168 c 0.082 0.133 0.148 0.152 0.281 0.086 c 0.09 -0.047 0.145 -0.129 0.117 -0.172 c -0.066 -0.102 0.141 -0.113 0.305 -0.012 c 0.152 0.094 -0.082 0.422 -0.434 0.594 c -0.219 0.113 -0.289 0.113 -0.504 0.012 c -0.137 -0.066 -0.246 -0.094 -0.246 -0.039 c 0 0.051 0.039 0.09 0.094 0.09 c 0.047 0 0.09 0.074 0.09 0.176 c 0 0.211 -0.117 0.234 -0.277 0.043 c -0.102 -0.117 -0.133 -0.113 -0.242 0.02 c -0.164 0.207 -0.164 0.297 0.008 0.297 c 0.078 0 0.141 0.043 0.141 0.09 c 0 0.055 0.086 0.094 0.184 0.094 c 0.105 0 0.188 0.059 0.188 0.133 c 0 0.074 0.039 0.133 0.09 0.133 c 0.055 0 0.094 -0.039 0.094 -0.09 c 0 -0.051 -0.039 -0.105 -0.094 -0.141 c -0.219 -0.133 -0.074 -0.246 0.242 -0.199 c 0.453 0.07 0.598 -0.004 0.598 -0.305 c 0 -0.172 0.043 -0.246 0.117 -0.215 c 0.129 0.051 0.348 0.457 0.348 0.641 c 0 0.223 0.215 0.238 0.383 0.02 c 0.16 -0.203 0.176 -0.207 0.324 -0.059 c 0.145 0.133 0.141 0.156 -0.043 0.313 c -0.105 0.09 -0.199 0.199 -0.199 0.238 c 0 0.043 0.148 0.262 0.328 0.492 c 0.395 0.5 0.422 0.746 0.086 0.746 c -0.191 0 -0.742 0.344 -0.594 0.367 c 0.625 0.117 0.762 0.059 1.012 -0.418 c 0.199 -0.387 0.234 -0.41 0.504 -0.363 c 0.16 0.027 0.453 0.012 0.656 -0.031 c 0.457 -0.102 0.625 -0.02 0.301 0.148 c -0.168 0.078 -0.246 0.195 -0.246 0.352 c 0 0.203 -0.02 0.211 -0.191 0.125 c -0.285 -0.148 -0.438 -0.051 -0.551 0.359 c -0.074 0.262 -0.152 0.363 -0.277 0.363 c -0.098 0 -0.301 0.074 -0.457 0.156 c -0.27 0.148 -0.305 0.148 -0.543 0.012 c -0.141 -0.082 -0.359 -0.293 -0.48 -0.469 c -0.285 -0.41 -1.105 -0.691 -2.02 -0.691 c -0.52 0 -0.656 -0.035 -0.887 -0.23 c -0.344 -0.285 -0.402 -0.285 -0.695 0.008 c -0.203 0.199 -0.23 0.285 -0.176 0.586 l 0.059 0.355 h -0.465 c -0.383 0 -0.52 0.047 -0.793 0.281 c -0.18 0.152 -0.328 0.359 -0.328 0.453 c 0 0.129 -0.066 0.172 -0.289 0.172 c -0.582 0 -0.805 0.277 -0.461 0.582 c 0.141 0.125 0.305 0.148 0.758 0.129 c 0.797 -0.043 0.91 0.273 0.121 0.332 c -0.168 0.016 -0.426 0.051 -0.574 0.082 c -0.23 0.051 -0.313 0.004 -0.668 -0.406 m 0.715 -1.695 c 0 -0.051 -0.063 -0.09 -0.141 -0.09 c -0.07 0 -0.133 0.039 -0.133 0.09 c 0 0.051 0.063 0.09 0.133 0.09 c 0.078 0 0.141 -0.039 0.141 -0.09 m 5.816 -0.895 c -0.066 -0.113 -0.328 -0.133 -0.328 -0.023 c 0 0.039 0.055 0.117 0.113 0.176 c 0.129 0.125 0.313 0 0.215 -0.152 m -8.605 -0.191 c 0 -0.051 -0.043 -0.09 -0.094 -0.09 c -0.059 0 -0.074 0.043 -0.043 0.09 c 0.031 0.055 0.074 0.094 0.098 0.094 c 0.02 0 0.039 -0.043 0.039 -0.094 m 7.82 -0.035 c -0.129 -0.156 -0.535 -0.262 -0.676 -0.176 c -0.16 0.094 0.195 0.305 0.512 0.305 c 0.223 0 0.25 -0.027 0.164 -0.129 m 1.199 0.066 c 0 -0.219 -0.246 -0.668 -0.395 -0.715 c -0.215 -0.066 -0.215 -0.066 -0.281 0.34 c -0.043 0.289 -0.027 0.32 0.133 0.277 c 0.094 -0.023 0.176 0 0.176 0.059 c 0 0.051 0.09 0.102 0.188 0.102 c 0.105 0 0.184 -0.027 0.184 -0.063 m -7.07 -0.359 c 0 -0.18 -0.223 -0.102 -0.258 0.09 c -0.023 0.105 0.012 0.133 0.113 0.098 c 0.082 -0.031 0.145 -0.117 0.145 -0.188 m 4.516 0.145 c 0.035 -0.055 0.043 -0.113 0.02 -0.137 c -0.066 -0.063 -0.348 0.063 -0.348 0.152 c 0 0.113 0.25 0.102 0.328 -0.016 m -0.461 -0.309 c 0.027 -0.074 0.109 -0.133 0.18 -0.133 c 0.07 0 0.168 -0.082 0.227 -0.18 c 0.129 -0.227 -0.047 -0.246 -0.344 -0.047 c -0.176 0.121 -0.215 0.121 -0.336 0.004 c -0.152 -0.148 -0.25 -0.094 -0.25 0.125 c 0 0.313 0.414 0.5 0.523 0.23 m -0.758 -0.047 c 0.031 -0.047 -0.008 -0.086 -0.082 -0.086 c -0.078 0 -0.168 0.039 -0.199 0.086 c -0.031 0.055 0.008 0.09 0.082 0.09 c 0.074 0 0.168 -0.039 0.199 -0.09 m 1.609 -0.066 c -0.039 -0.188 -0.199 -0.176 -0.242 0.023 c -0.02 0.082 0.035 0.137 0.125 0.137 c 0.094 0 0.145 -0.059 0.121 -0.156 m 1.211 -0.133 c 0.035 -0.293 -0.094 -0.32 -0.406 -0.086 c -0.168 0.133 -0.195 0.199 -0.105 0.277 c 0.191 0.191 0.477 0.082 0.508 -0.188 m -5.094 -0.887 c 0 -0.051 -0.039 -0.09 -0.09 -0.09 c -0.059 0 -0.098 0.039 -0.098 0.09 c 0 0.059 0.043 0.094 0.098 0.094 c 0.051 0 0.09 -0.039 0.09 -0.094 m -2.461 -0.273 c 0.027 -0.051 -0.031 -0.09 -0.137 -0.09 c -0.109 0 -0.172 0.043 -0.141 0.09 c 0.031 0.051 0.094 0.094 0.141 0.094 c 0.043 0 0.105 -0.047 0.137 -0.094 m 1.359 -0.582 c 0 -0.051 -0.047 -0.098 -0.102 -0.121 c -0.055 -0.02 -0.098 0.035 -0.098 0.121 c 0 0.086 0.043 0.129 0.098 0.121 c 0.059 -0.02 0.102 -0.07 0.102 -0.121 m -2.527 -1.109 c 0.07 -0.082 0.07 -0.168 0.004 -0.289 c -0.09 -0.16 -0.121 -0.168 -0.395 -0.059 c -0.391 0.16 -0.426 0.285 -0.156 0.559 c 0.203 0.211 0.223 0.215 0.332 0.063 c 0.066 -0.09 0.168 -0.215 0.215 -0.273 m 0.629 -0.043 c 0.152 -0.148 0.145 -0.434 -0.008 -0.434 c -0.18 0 -0.465 0.332 -0.395 0.445 c 0.086 0.129 0.27 0.121 0.402 -0.012 m 2.719 -0.059 c 0 -0.109 -0.191 -0.246 -0.438 -0.324 c -0.238 -0.07 -0.293 0.105 -0.098 0.293 c 0.129 0.125 0.535 0.145 0.535 0.031 m -5.441 -1.277 c -0.027 -0.055 -0.117 -0.094 -0.191 -0.094 c -0.07 0 -0.129 0.043 -0.129 0.094 c 0 0.051 0.082 0.086 0.188 0.086 c 0.105 0 0.168 -0.039 0.133 -0.086 m 0.695 0 c 0 -0.055 -0.039 -0.094 -0.09 -0.094 c -0.059 0 -0.074 0.043 -0.047 0.094 c 0.035 0.051 0.078 0.086 0.102 0.086 c 0.02 0 0.035 -0.039 0.035 -0.086 m -1.063 -0.371 c 0.035 -0.055 0.125 -0.074 0.199 -0.047 c 0.164 0.063 0.277 -0.195 0.141 -0.332 c -0.082 -0.074 -0.168 -0.035 -0.34 0.148 c -0.129 0.137 -0.238 0.266 -0.238 0.289 c 0 0.078 0.18 0.035 0.238 -0.055 m 14.855 5.441 c -0.035 -0.047 0.168 -0.023 0.328 -0.023 c 0.203 0 0.359 -0.094 0.602 -0.367 c 0.281 -0.305 0.324 -0.41 0.281 -0.66 c -0.031 -0.184 -0.008 -0.328 0.059 -0.367 c 0.082 -0.047 0.066 -0.094 -0.043 -0.176 c -0.129 -0.094 -0.141 -0.145 -0.055 -0.309 c 0.137 -0.246 0.387 -0.25 0.449 -0.008 c 0.031 0.113 0.098 0.168 0.188 0.137 c 0.07 -0.031 0.148 -0.055 0.172 -0.055 c 0.117 0 0.012 -0.285 -0.129 -0.332 c -0.086 -0.031 -0.234 -0.113 -0.313 -0.184 c -0.105 -0.086 -0.172 -0.094 -0.215 -0.031 c -0.195 0.309 -0.328 -0.117 -0.141 -0.449 c 0.109 -0.199 0.277 -0.234 0.277 -0.059 c 0 0.148 0.465 0.488 0.781 0.563 c 0.133 0.035 0.27 0.105 0.301 0.148 c 0.07 0.105 0.5 -0.27 0.5 -0.438 c 0 -0.066 0.063 -0.117 0.141 -0.117 c 0.203 0 0.277 -0.246 0.133 -0.414 c -0.074 -0.082 -0.086 -0.168 -0.031 -0.219 c 0.051 -0.051 0.156 0.02 0.27 0.184 c 0.207 0.305 0.32 0.305 0.43 0.012 c 0.066 -0.172 0.051 -0.195 -0.094 -0.152 c -0.195 0.063 -0.453 -0.168 -0.293 -0.266 c 0.055 -0.031 0.18 -0.031 0.281 -0.004 c 0.238 0.074 0.34 -0.156 0.199 -0.457 c -0.086 -0.18 -0.078 -0.238 0.035 -0.277 c 0.203 -0.07 0.168 -0.18 -0.055 -0.242 c -0.109 -0.031 -0.18 -0.098 -0.156 -0.164 c 0.039 -0.129 -0.242 -0.441 -0.391 -0.441 c -0.051 0 -0.098 -0.031 -0.105 -0.066 c -0.094 -0.613 -0.086 -0.625 0.203 -0.582 c 0.191 0.02 0.273 0.086 0.273 0.203 c 0 0.094 0.063 0.195 0.129 0.223 c 0.398 0.148 0.746 -0.52 0.473 -0.895 l -0.141 -0.199 l -0.059 0.215 c -0.055 0.199 -0.09 0.207 -0.531 0.156 c -0.262 -0.035 -0.516 -0.102 -0.574 -0.145 c -0.152 -0.125 -0.707 0.102 -0.672 0.27 c 0.043 0.211 0.324 0.215 0.379 0.016 c 0.063 -0.246 0.254 -0.246 0.254 -0.012 c 0 0.098 -0.043 0.18 -0.098 0.18 c -0.051 0 -0.086 0.066 -0.074 0.156 c 0.02 0.094 -0.004 0.207 -0.043 0.277 c -0.117 0.18 -0.328 0.133 -0.363 -0.094 c -0.012 -0.117 -0.105 -0.219 -0.211 -0.234 c -0.164 -0.035 -0.168 -0.023 -0.047 0.125 c 0.125 0.148 0.121 0.156 -0.051 0.094 c -0.102 -0.035 -0.301 -0.109 -0.438 -0.156 c -0.234 -0.086 -0.602 -0.586 -0.5 -0.688 c 0.066 -0.066 0.246 0.074 0.195 0.152 c -0.027 0.047 0.027 0.168 0.117 0.273 c 0.176 0.207 0.488 0.172 0.488 -0.055 c 0 -0.07 0.039 -0.125 0.094 -0.125 c 0.047 0 0.094 -0.059 0.094 -0.137 c 0 -0.109 -0.039 -0.117 -0.188 -0.035 c -0.16 0.078 -0.223 0.063 -0.371 -0.109 c -0.23 -0.27 -0.23 -0.363 0 -0.508 c 0.102 -0.059 0.188 -0.207 0.188 -0.32 c 0 -0.133 0.082 -0.242 0.234 -0.313 c 0.246 -0.109 0.457 -0.508 0.379 -0.707 c -0.078 -0.191 -0.262 -0.141 -0.195 0.059 c 0.059 0.168 -0.117 0.543 -0.25 0.543 c -0.121 0 -0.273 -0.371 -0.313 -0.781 c -0.039 -0.363 -0.023 -0.398 0.137 -0.348 c 0.117 0.035 0.211 0.004 0.27 -0.094 c 0.121 -0.207 0.465 -0.09 0.5 0.172 c 0.02 0.129 0.098 0.199 0.215 0.199 c 0.105 0 0.188 0.063 0.188 0.137 c 0 0.074 -0.055 0.121 -0.117 0.109 c -0.156 -0.035 -0.148 0.176 0.016 0.391 c 0.137 0.168 0.141 0.168 0.141 -0.027 c 0.004 -0.211 0.133 -0.273 0.238 -0.109 c 0.035 0.051 0.133 0.086 0.215 0.082 c 0.293 -0.031 0.391 0.004 0.391 0.141 c 0 0.074 0.063 0.133 0.137 0.133 c 0.074 0 0.137 -0.039 0.137 -0.094 c 0 -0.047 0.102 -0.113 0.234 -0.141 c 0.172 -0.043 0.234 -0.117 0.234 -0.301 c 0 -0.254 -0.148 -0.461 -0.336 -0.461 c -0.066 0 -0.094 0.074 -0.066 0.172 c 0.023 0.09 0 0.195 -0.059 0.227 c -0.059 0.035 -0.145 -0.098 -0.215 -0.352 c -0.074 -0.281 -0.16 -0.41 -0.266 -0.41 c -0.168 0 -0.418 -0.242 -0.34 -0.324 c 0.031 -0.027 0.227 -0.074 0.434 -0.098 c 0.207 -0.031 0.379 -0.102 0.379 -0.164 c 0 -0.121 -0.91 -0.324 -0.98 -0.219 c -0.063 0.102 -0.578 0.199 -0.688 0.137 c -0.164 -0.098 0.008 -0.32 0.246 -0.32 c 0.227 0 0.234 -0.02 0.172 -0.371 c -0.051 -0.316 -0.039 -0.367 0.09 -0.316 c 0.082 0.031 0.168 0.051 0.188 0.051 c 0.098 0 0.023 0.535 -0.078 0.574 c -0.07 0.031 -0.055 0.051 0.043 0.055 c 0.086 0.004 0.184 -0.031 0.215 -0.082 c 0.031 -0.055 0.156 -0.094 0.281 -0.094 c 0.305 0 0.285 -0.078 -0.133 -0.523 c -0.309 -0.316 -0.383 -0.355 -0.477 -0.238 c -0.137 0.16 -0.371 0.172 -0.371 0.016 c 0 -0.188 -0.52 -0.355 -0.742 -0.246 c -0.102 0.059 -0.191 0.152 -0.191 0.211 c 0 0.059 -0.082 0.258 -0.184 0.445 c -0.102 0.188 -0.188 0.359 -0.188 0.387 c 0 0.023 0.09 0.047 0.188 0.047 c 0.102 0 0.184 0.059 0.184 0.133 c 0 0.18 -0.125 0.172 -0.313 -0.027 c -0.184 -0.203 -0.223 -1.152 -0.039 -1.043 c 0.07 0.047 0.086 0.012 0.035 -0.109 c -0.168 -0.391 -0.156 -0.492 0.09 -0.801 c 0.207 -0.266 0.23 -0.348 0.137 -0.457 c -0.18 -0.207 -0.332 -0.164 -0.328 0.109 c 0.004 0.352 -0.254 0.371 -0.387 0.031 c -0.117 -0.297 -0.082 -0.367 0.172 -0.367 c 0.207 0 0.215 -0.074 0.027 -0.273 c -0.129 -0.141 -0.113 -0.207 0.242 -0.719 c 0.262 -0.383 0.414 -0.535 0.48 -0.469 c 0.063 0.066 0.023 0.203 -0.121 0.43 c -0.203 0.316 -0.203 0.34 -0.055 0.641 c 0.082 0.172 0.215 0.332 0.281 0.355 c 0.168 0.066 0.535 0.66 0.465 0.766 c -0.031 0.047 0.066 0.207 0.215 0.359 c 0.285 0.289 0.41 0.344 0.336 0.152 c -0.023 -0.066 0.02 -0.176 0.094 -0.238 c 0.078 -0.063 0.184 -0.273 0.238 -0.465 c 0.168 -0.598 0.367 -0.359 0.371 0.43 c 0 0.293 0.07 0.461 0.324 0.77 c 0.406 0.488 0.887 1.398 0.887 1.691 c 0 0.121 0.07 0.297 0.16 0.395 c 0.184 0.191 0.184 0.289 0.094 2.324 c -0.047 1.168 -0.082 1.363 -0.313 1.844 c -0.188 0.398 -0.262 0.711 -0.281 1.215 c -0.043 0.836 -0.332 1.363 -0.758 1.363 c -0.141 0 -0.469 0.141 -0.727 0.309 c -0.266 0.176 -0.637 0.34 -0.828 0.375 c -0.383 0.07 -0.695 0.32 -0.695 0.547 c 0 0.078 0.125 0.258 0.277 0.395 c 0.156 0.137 0.281 0.293 0.281 0.352 c 0 0.195 -0.215 0.203 -0.469 0.02 c -0.332 -0.238 -0.703 -0.242 -1.063 -0.008 c -0.309 0.199 -0.582 0.16 -0.676 0.023 m 4.484 -5.05 c 0.07 -0.176 -0.215 -0.289 -0.32 -0.125 c -0.039 0.066 -0.055 0.156 -0.031 0.195 c 0.082 0.121 0.293 0.078 0.352 -0.07 m -2.031 -1.586 c 0.086 -0.25 -0.078 -0.402 -0.234 -0.219 c -0.125 0.145 -0.07 0.414 0.078 0.414 c 0.051 0 0.117 -0.09 0.152 -0.191 m 1.406 -0.059 c 0.129 -0.148 0.137 -0.148 0.227 0 c 0.168 0.262 0.344 0.184 0.398 -0.172 c 0.066 -0.398 0.012 -0.512 -0.219 -0.434 c -0.117 0.031 -0.188 -0.008 -0.227 -0.137 c -0.035 -0.105 -0.145 -0.184 -0.246 -0.184 c -0.277 0 -0.191 0.383 0.102 0.449 c 0.152 0.031 0.195 0.078 0.129 0.121 c -0.059 0.035 -0.246 -0.02 -0.422 -0.117 c -0.359 -0.215 -0.457 -0.23 -0.391 -0.055 c 0.031 0.086 -0.016 0.109 -0.176 0.078 c -0.152 -0.027 -0.246 0.008 -0.285 0.105 c -0.066 0.176 0.336 0.359 0.609 0.273 c 0.102 -0.035 0.195 -0.004 0.23 0.09 c 0.07 0.18 0.125 0.176 0.277 -0.02 m -1.352 -0.594 c -0.117 -0.113 -0.242 -0.023 -0.148 0.113 c 0.035 0.063 0.105 0.074 0.156 0.043 c 0.063 -0.039 0.063 -0.09 -0.008 -0.156 m -0.195 -4.348 c 0 -0.129 -0.055 -0.23 -0.125 -0.23 c -0.191 0 -0.246 0.102 -0.148 0.289 c 0.133 0.238 0.277 0.203 0.277 -0.063 m -4.98 9.887 c -0.086 -0.137 0.031 -0.23 0.152 -0.113 c 0.066 0.063 0.07 0.117 0.008 0.152 c -0.059 0.035 -0.125 0.02 -0.16 -0.039 m -0.109 -0.41 c -0.078 -0.203 0.102 -0.344 0.242 -0.18 c 0.125 0.141 0.063 0.32 -0.09 0.32 c -0.055 0 -0.121 -0.063 -0.152 -0.141 m -0.613 -0.004 c -0.035 -0.035 -0.063 -0.16 -0.063 -0.281 c 0 -0.172 0.035 -0.211 0.207 -0.191 c 0.156 0.023 0.211 0.094 0.211 0.254 c 0 0.219 -0.215 0.352 -0.355 0.215 m 5.05 -0.844 c 0 -0.047 0.043 -0.086 0.098 -0.086 c 0.047 0 0.094 0.043 0.094 0.086 c 0 0.055 -0.043 0.094 -0.094 0.094 c -0.055 0 -0.098 -0.043 -0.098 -0.094 m 0.535 -0.063 c -0.367 -0.051 -0.332 -0.32 0.078 -0.531 c 0.188 -0.094 0.371 -0.266 0.418 -0.379 c 0.07 -0.172 0.109 -0.188 0.262 -0.094 c 0.145 0.09 0.23 0.078 0.43 -0.051 c 0.141 -0.086 0.309 -0.133 0.387 -0.105 c 0.117 0.043 0.098 0.094 -0.078 0.32 c -0.242 0.293 -0.406 0.34 -0.48 0.141 c -0.094 -0.234 -0.266 -0.152 -0.238 0.109 c 0.012 0.137 -0.035 0.336 -0.105 0.449 c -0.133 0.203 -0.176 0.211 -0.672 0.137 m -13.535 -1.48 c 0.051 -0.141 0.258 -0.168 0.266 -0.031 c 0.004 0.051 -0.063 0.105 -0.152 0.125 c -0.094 0.016 -0.137 -0.016 -0.113 -0.094 m 7.844 -1.422 c -0.066 -0.105 0.281 -0.223 0.414 -0.145 c 0.047 0.031 0.09 0.094 0.09 0.141 c 0 0.105 -0.434 0.109 -0.504 0 m 0.859 -0.023 c 0.203 -0.191 0.137 -0.367 -0.105 -0.309 c -0.137 0.031 -0.27 0.008 -0.336 -0.07 c -0.082 -0.102 -0.043 -0.148 0.199 -0.27 l 0.301 -0.148 l 0.395 0.387 c 0.219 0.211 0.398 0.418 0.402 0.457 c 0 0.039 -0.215 0.066 -0.484 0.066 c -0.375 0 -0.457 -0.023 -0.371 -0.109 m -5.324 -0.426 c 0.031 -0.102 0.008 -0.203 -0.043 -0.234 c -0.137 -0.082 -0.117 -0.227 0.031 -0.227 c 0.238 0 0.359 0.238 0.227 0.445 c -0.148 0.234 -0.293 0.246 -0.215 0.016 m 4.234 0.078 c 0 -0.047 0.039 -0.086 0.094 -0.086 c 0.051 0 0.09 0.043 0.09 0.086 c 0 0.055 -0.039 0.094 -0.09 0.094 c -0.055 0 -0.094 -0.043 -0.094 -0.094 m -5.387 -0.406 c -0.156 -0.176 -0.289 -0.379 -0.289 -0.449 c 0 -0.184 0.367 -0.355 0.488 -0.238 c 0.051 0.051 0.223 0.07 0.367 0.039 c 0.262 -0.051 0.27 -0.039 0.234 0.246 c -0.031 0.301 -0.254 0.5 -0.254 0.23 c 0 -0.082 -0.035 -0.145 -0.078 -0.145 c -0.039 0 -0.059 0.121 -0.039 0.262 c 0.059 0.387 -0.109 0.41 -0.43 0.051 m 5.578 -0.273 c 0.004 -0.105 0.023 -0.125 0.059 -0.051 c 0.031 0.063 0.02 0.141 -0.004 0.172 c -0.031 0.027 -0.059 -0.027 -0.059 -0.121 m 0.836 -0.027 c 0 -0.098 0.344 -0.277 0.41 -0.215 c 0.109 0.109 0.051 0.188 -0.176 0.227 c -0.133 0.023 -0.234 0.02 -0.234 -0.012 m -5.305 -0.234 c 0 -0.102 0.066 -0.137 0.211 -0.121 c 0.117 0.02 0.211 0.066 0.211 0.121 c 0 0.051 -0.094 0.098 -0.211 0.117 c -0.145 0.02 -0.211 -0.02 -0.211 -0.117 m 9.531 -0.047 c 0.031 -0.055 0.074 -0.09 0.098 -0.09 c 0.02 0 0.043 0.039 0.043 0.09 c 0 0.055 -0.047 0.09 -0.102 0.09 c -0.051 0 -0.07 -0.039 -0.039 -0.09 m -4.527 -0.27 c -0.102 -0.109 -0.129 -0.199 -0.066 -0.234 c 0.16 -0.094 0.367 0.035 0.367 0.227 c 0 0.23 -0.102 0.234 -0.301 0.008 m -3.906 -0.059 c -0.016 -0.082 -0.176 -0.191 -0.355 -0.25 c -0.406 -0.125 -0.504 -0.52 -0.176 -0.691 c 0.102 -0.059 0.199 -0.094 0.215 -0.074 c 0.016 0.02 0.094 0.145 0.184 0.285 c 0.09 0.137 0.266 0.285 0.391 0.332 c 0.266 0.098 0.289 0.203 0.082 0.398 c -0.184 0.18 -0.297 0.172 -0.336 -0.004 m 8.301 -0.324 c 0 -0.336 0.016 -0.363 0.125 -0.223 c 0.129 0.164 0.09 0.605 -0.051 0.605 c -0.043 0 -0.078 -0.172 -0.074 -0.387 m 2.738 0.027 c 0.031 -0.055 0.07 -0.094 0.098 -0.094 c 0.02 0 0.039 0.043 0.039 0.094 c 0 0.051 -0.043 0.09 -0.098 0.09 c -0.055 0 -0.07 -0.043 -0.039 -0.09 m -12.445 -0.063 c -0.035 -0.031 -0.063 -0.148 -0.063 -0.27 c 0 -0.211 0.129 -0.262 0.41 -0.156 c 0.129 0.047 0.129 0.074 -0.004 0.273 c -0.148 0.219 -0.238 0.258 -0.344 0.152 m 1.707 -0.254 c 0 -0.074 0.039 -0.133 0.094 -0.133 c 0.051 0 0.09 0.059 0.09 0.133 c 0 0.07 -0.039 0.137 -0.09 0.137 c -0.059 0 -0.094 -0.066 -0.094 -0.137 m 10.11 -0.012 c -0.121 -0.121 -0.063 -0.211 0.133 -0.211 c 0.102 0 0.172 0.047 0.156 0.109 c -0.047 0.129 -0.203 0.184 -0.289 0.105 m -10.293 -0.441 c 0.066 -0.074 0.152 -0.133 0.199 -0.133 c 0.043 0 0.082 0.059 0.082 0.133 c 0 0.074 -0.086 0.133 -0.199 0.133 c -0.164 0 -0.18 -0.023 -0.082 -0.133 m -1.043 -0.066 c -0.293 -0.219 -0.234 -0.555 0.195 -1.094 c 0.422 -0.527 0.766 -0.668 0.887 -0.359 c 0.129 0.316 -0.215 0.727 -0.516 0.621 c -0.07 -0.023 -0.199 0.012 -0.293 0.082 c -0.164 0.121 -0.164 0.133 0.027 0.313 c 0.164 0.164 0.172 0.215 0.074 0.371 c -0.133 0.207 -0.172 0.215 -0.371 0.066 m 0.668 -1.242 c 0 -0.051 -0.039 -0.09 -0.094 -0.09 c -0.051 0 -0.094 0.039 -0.094 0.09 c 0 0.051 0.043 0.09 0.094 0.09 c 0.051 0 0.094 -0.043 0.094 -0.09 m 10.199 1.203 c -0.035 -0.031 -0.063 -0.121 -0.063 -0.195 c 0 -0.105 0.023 -0.105 0.141 -0.016 c 0.074 0.059 0.137 0.148 0.137 0.188 c 0 0.098 -0.129 0.109 -0.219 0.023 m -9.23 -0.223 c -0.063 -0.109 0.141 -0.277 0.254 -0.207 c 0.094 0.051 -0.008 0.305 -0.109 0.305 c -0.047 0 -0.109 -0.043 -0.145 -0.098 m 7.965 -0.031 c 0 -0.152 0.277 -0.313 0.426 -0.254 c 0.059 0.02 0.082 0.113 0.059 0.211 c -0.055 0.211 -0.488 0.25 -0.488 0.047 m -8.652 -0.051 c 0 -0.051 0.043 -0.09 0.094 -0.09 c 0.051 0 0.098 0.043 0.098 0.09 c 0 0.051 -0.043 0.09 -0.098 0.09 c -0.051 0 -0.094 -0.043 -0.094 -0.09 m 0.676 -0.473 l -0.203 -0.211 l 0.281 -0.117 c 0.152 -0.059 0.277 -0.184 0.277 -0.266 c 0 -0.102 0.082 -0.152 0.234 -0.152 c 0.164 0 0.234 0.051 0.234 0.164 c 0 0.219 -0.172 0.508 -0.297 0.508 c -0.055 0 -0.152 0.066 -0.207 0.145 c -0.094 0.125 -0.129 0.113 -0.309 -0.074 m -0.586 -0.066 c 0 -0.047 0.066 -0.086 0.145 -0.086 c 0.082 0 0.121 0.043 0.09 0.086 c -0.035 0.055 -0.098 0.098 -0.145 0.098 c -0.047 0 -0.09 -0.047 -0.09 -0.098 m 8.902 -0.055 c -0.074 -0.074 0.008 -0.215 0.125 -0.215 c 0.051 0 0.09 0.059 0.09 0.133 c 0 0.141 -0.109 0.18 -0.211 0.078 m 0.359 -0.512 c -0.109 -0.078 -0.137 -0.145 -0.074 -0.184 c 0.141 -0.086 0.387 0.027 0.387 0.176 c 0 0.16 -0.094 0.16 -0.313 0.004 m -7.547 -0.184 c -0.09 -0.215 0.109 -0.398 0.262 -0.25 c 0.09 0.09 0.078 0.137 -0.047 0.258 c -0.141 0.141 -0.164 0.141 -0.215 -0.008 m -1.988 -0.301 c 0 -0.098 0.379 -0.477 0.727 -0.738 c 0.16 -0.117 0.297 -0.281 0.297 -0.371 c 0 -0.168 0.277 -0.449 0.453 -0.449 c 0.063 0 0.219 -0.066 0.344 -0.141 c 0.285 -0.184 0.352 -0.137 0.23 0.172 c -0.051 0.141 -0.16 0.238 -0.266 0.238 c -0.191 0 -0.465 0.414 -0.352 0.516 c 0.043 0.039 0.133 -0.02 0.215 -0.133 c 0.168 -0.246 0.305 -0.258 0.305 -0.039 c 0 0.223 -0.352 0.418 -0.512 0.285 c -0.094 -0.074 -0.176 -0.074 -0.32 -0.004 c -0.203 0.109 -0.242 0.23 -0.094 0.32 c 0.227 0.133 0.074 0.246 -0.273 0.199 c -0.262 -0.035 -0.379 -0.012 -0.414 0.082 c -0.055 0.133 -0.336 0.18 -0.336 0.059 m 9.215 -0.012 c 0.043 -0.117 0.168 -0.137 0.18 -0.031 c 0.004 0.035 -0.043 0.086 -0.102 0.102 c -0.063 0.02 -0.094 -0.012 -0.078 -0.07 m -7.426 -0.156 c -0.266 -0.098 -0.113 -0.277 0.23 -0.254 c 0.465 0.023 0.469 0.027 0.262 0.18 c -0.184 0.137 -0.293 0.152 -0.492 0.074 m -1.848 -0.426 c -0.027 -0.074 -0.023 -0.18 0.008 -0.238 c 0.035 -0.059 0.016 -0.152 -0.043 -0.223 c -0.086 -0.098 -0.055 -0.16 0.129 -0.281 c 0.133 -0.086 0.309 -0.129 0.387 -0.094 c 0.215 0.078 0.117 0.367 -0.133 0.395 c -0.176 0.027 -0.207 0.07 -0.156 0.25 c 0.059 0.234 -0.105 0.398 -0.188 0.184 m -0.414 -0.449 c 0 -0.078 0.043 -0.141 0.098 -0.141 c 0.047 0 0.094 0.039 0.094 0.082 c 0 0.055 -0.047 0.109 -0.094 0.145 c -0.055 0.031 -0.098 -0.008 -0.098 -0.086 m 2.711 0.043 c 0.023 -0.063 0.066 -0.105 0.105 -0.102 c 0.109 0.012 0.09 0.133 -0.031 0.172 c -0.063 0.016 -0.094 -0.012 -0.078 -0.074 m 0.363 -0.09 c 0 -0.051 0.125 -0.105 0.281 -0.137 c 0.313 -0.066 0.375 -0.309 0.098 -0.379 c -0.098 -0.023 -0.227 -0.172 -0.293 -0.32 c -0.098 -0.227 -0.094 -0.285 0.023 -0.371 c 0.078 -0.055 0.195 -0.191 0.254 -0.305 c 0.148 -0.277 0.242 -0.254 0.477 0.113 c 0.113 0.172 0.246 0.289 0.297 0.258 c 0.055 -0.031 0.078 0.02 0.059 0.113 c -0.023 0.094 -0.133 0.207 -0.242 0.254 c -0.16 0.074 -0.203 0.145 -0.164 0.324 c 0.023 0.125 -0.004 0.281 -0.066 0.355 c -0.121 0.145 -0.719 0.223 -0.719 0.094 m -2.27 -0.699 c -0.105 -0.102 -0.07 -0.203 0.078 -0.203 c 0.078 0 0.141 0.059 0.141 0.129 c 0 0.145 -0.113 0.18 -0.219 0.078 m 0.59 -0.391 c 0 -0.273 0.219 -0.383 0.305 -0.16 c 0.035 0.094 0.063 0.094 0.168 0 c 0.141 -0.125 0.551 -0.152 0.551 -0.043 c 0 0.047 0.074 0.074 0.164 0.07 c 0.086 -0.004 0.164 0.031 0.164 0.086 c 0 0.051 -0.094 0.082 -0.211 0.063 c -0.117 -0.016 -0.234 0.027 -0.258 0.094 c -0.027 0.07 -0.219 0.129 -0.461 0.133 c -0.402 0.02 -0.418 0.016 -0.418 -0.246 m 5.301 -0.094 c 0 -0.113 0.188 -0.113 0.371 0 c 0.105 0.066 0.078 0.094 -0.121 0.098 c -0.141 0 -0.25 -0.039 -0.25 -0.098 m -2.371 -0.086 c -0.035 -0.055 -0.031 -0.18 0 -0.285 c 0.055 -0.152 0.031 -0.184 -0.086 -0.137 c -0.102 0.039 -0.152 0.008 -0.152 -0.105 c 0 -0.219 -0.102 -0.297 -0.238 -0.184 c -0.133 0.105 -0.316 0.039 -0.316 -0.105 c 0 -0.047 0.059 -0.086 0.129 -0.086 c 0.086 0 0.125 -0.098 0.117 -0.285 c -0.023 -0.426 0.18 -0.41 0.391 0.031 c 0.309 0.641 0.355 0.688 0.516 0.48 c 0.109 -0.145 0.16 -0.16 0.25 -0.07 c 0.094 0.082 0.082 0.117 -0.039 0.164 c -0.199 0.074 -0.207 0.492 -0.016 0.492 c 0.074 0 0.137 -0.063 0.137 -0.137 c 0 -0.094 0.086 -0.129 0.297 -0.109 c 0.223 0.016 0.309 -0.02 0.336 -0.133 c 0.027 -0.121 -0.027 -0.16 -0.199 -0.16 c -0.227 0 -0.23 -0.004 -0.094 -0.27 c 0.168 -0.332 0.406 -0.359 0.406 -0.047 c 0 0.27 0.074 0.281 0.242 0.063 c 0.109 -0.133 0.121 -0.125 0.125 0.141 c 0.004 0.238 0.039 0.297 0.168 0.273 c 0.109 -0.02 0.16 -0.121 0.168 -0.313 c 0.004 -0.148 0.098 -0.395 0.211 -0.543 c 0.113 -0.16 0.203 -0.324 0.203 -0.383 c 0 -0.137 0.078 -0.125 0.27 0.059 c 0.438 0.418 0.805 1.598 0.527 1.703 c -0.074 0.031 -0.262 -0.035 -0.41 -0.141 c -0.152 -0.102 -0.34 -0.184 -0.422 -0.184 c -0.09 0 -0.152 -0.066 -0.152 -0.145 c 0 -0.191 -0.176 -0.066 -0.281 0.203 c -0.086 0.211 -0.129 0.227 -0.641 0.195 c -0.305 -0.016 -0.582 0 -0.617 0.039 c -0.105 0.098 -0.762 0.082 -0.836 -0.023 m -1.566 -0.465 c -0.066 -0.242 -0.07 -0.242 0.238 -0.188 c 0.281 0.051 0.352 0.246 0.109 0.332 c -0.238 0.094 -0.293 0.066 -0.348 -0.145 m -0.434 -1.672 c 0 -0.16 0.035 -0.293 0.094 -0.293 c 0.109 0 0.109 0.156 0 0.406 c -0.066 0.148 -0.09 0.133 -0.094 -0.113" fill-opacity="0.502"/></g><clipPath id="5"><path d="m 11 7 h 14 v 15 h -14"/></clipPath><clipPath id="6"><path d="m 5 5 h 22 v 23 h -22"/></clipPath><clipPath id="3"><path d="M 0,0 H32 V32 H0 z"/></clipPath><clipPath id="0"><path d="m 36.52 16.691 c 0 11.473 -9.148 20.766 -20.418 20.766 c -11.27 0 -20.414 -9.293 -20.414 -20.766 c 0 -11.473 9.145 -20.766 20.414 -20.766 c 11.27 0 20.418 9.293 20.418 20.766"/></clipPath><filter id="1" filterUnits="objectBoundingBox" x="0" y="0" width="32" height="32"><feColorMatrix type="matrix" in="SourceGraphic" values="0 0 0 0 1 0 0 0 0 1 0 0 0 0 1 0 0 0 1 0"/></filter><mask id="2"><g filter="url(#1)"><path fill-opacity="0.102" d="M 0,0 H32 V32 H0 z"/></g></mask></defs><path d="m 28.19 7.094 c -1.059 -1.539 -2.484 -3.09 -3.781 -4.117 c -4.527 -3.578 -9.727 -3.73 -14.336 -0.41 c -2.477 1.781 -4.848 4.57 -6.977 8.195 c -2.543 4.328 -3.402 9.508 -2.211 13.332 c 0.25 0.809 0.965 2.215 1.477 2.902 c 1.711 2.297 4.273 3.652 8 4.219 c 3.566 0.547 6.914 0.602 9.754 0.164 c 5.844 -0.895 9.758 -4.01 11.137 -8.863 c 0.965 -3.41 0.66 -7.23 -0.906 -11.336 c -0.234 -0.613 -1.77 -3.523 -2.156 -4.086" fill="#2f4e4e"/><g clip-path="url(#0)"><use xlink:href="#4" mask="url(#2)"/></g><g clip-path="url(#5)"><g clip-path="url(#0)"><path d="m 15.445 11.453 l 3.387 -3.516 l 3.234 0.375 l 1.348 2.668 v 4.441 l 1.551 1.785 l -2.473 1.777 v 2.227 l -0.914 0.273 h -0.914 l -5.816 -1.074 l -2.875 -1.676 l 1.773 -5.078" fill="#f9f9f9"/></g></g><g clip-path="url(#6)"><g clip-path="url(#0)"><path d="m 5.906 27.305 c -0.148 -0.129 -0.258 -0.344 -0.293 -0.566 c -0.047 -0.305 -0.023 -0.395 0.168 -0.563 c 0.512 -0.473 1.16 -0.293 1.063 0.285 c -0.184 1.078 -0.418 1.285 -0.934 0.844 m 5.676 -3.184 c -0.25 -0.277 -0.52 -0.5 -0.621 -0.5 c -0.098 0 -0.305 -0.16 -0.473 -0.352 c -0.207 -0.25 -0.375 -0.367 -0.574 -0.387 c -0.281 -0.027 -0.344 -0.09 -0.535 -0.598 c -0.078 -0.215 -0.223 -0.355 -0.508 -0.48 c -0.246 -0.113 -0.43 -0.273 -0.488 -0.422 c -0.172 -0.43 -0.211 -0.988 -0.094 -1.242 c 0.102 -0.223 0.094 -0.262 -0.223 -0.543 c -0.434 -0.391 -0.496 -0.582 -0.262 -0.871 c 0.262 -0.324 0.242 -0.434 -0.188 -0.953 c -0.277 -0.348 -0.484 -0.496 -0.852 -0.621 c -0.324 -0.113 -0.531 -0.25 -0.629 -0.418 c -0.082 -0.141 -0.266 -0.285 -0.422 -0.32 c -0.273 -0.07 -0.281 -0.094 -0.254 -0.551 c 0.047 -0.801 0.418 -1.27 1 -1.27 c 0.684 0 1.051 0.293 1.492 1.18 c 0.184 0.371 0.277 0.441 0.832 0.672 c 0.617 0.25 0.629 0.254 0.93 0.098 c 0.168 -0.09 0.449 -0.191 0.617 -0.223 c 0.258 -0.051 0.316 -0.105 0.344 -0.328 c 0.055 -0.492 0.184 -0.531 0.586 -0.18 c 0.414 0.363 0.375 0.348 0.668 0.219 c 0.227 -0.102 0.527 -0.516 0.527 -0.73 c 0 -0.066 -0.145 -0.332 -0.32 -0.594 c -0.18 -0.258 -0.324 -0.543 -0.324 -0.633 c 0 -0.098 0.133 -0.289 0.293 -0.434 c 0.16 -0.145 0.375 -0.449 0.477 -0.672 c 0.098 -0.227 0.242 -0.473 0.313 -0.547 c 0.09 -0.105 0.098 -0.219 0.031 -0.438 c -0.09 -0.305 -0.043 -0.375 0.5 -0.797 c 0.098 -0.078 0.129 -0.203 0.094 -0.367 c -0.035 -0.172 -0.004 -0.289 0.094 -0.371 c 0.176 -0.141 0.195 -0.535 0.039 -0.867 c -0.102 -0.219 -0.082 -0.254 0.188 -0.461 c 0.348 -0.266 0.363 -0.375 0.098 -0.699 c -0.242 -0.301 -0.191 -0.367 0.156 -0.195 c 0.246 0.125 0.293 0.121 0.551 -0.039 c 0.152 -0.098 0.438 -0.262 0.633 -0.363 c 0.195 -0.102 0.391 -0.285 0.438 -0.402 c 0.047 -0.117 0.168 -0.238 0.266 -0.27 c 0.234 -0.07 0.32 -0.285 0.199 -0.504 c -0.047 -0.094 -0.09 -0.316 -0.09 -0.496 c 0 -0.27 0.031 -0.324 0.164 -0.301 c 0.129 0.031 0.16 0.109 0.133 0.375 l -0.027 0.34 l 0.449 -0.012 c 0.656 -0.016 1.043 0.09 1.203 0.332 c 0.164 0.246 0.281 0.27 0.492 0.086 c 0.164 -0.145 0.832 -0.199 1.262 -0.105 c 0.234 0.055 0.316 0.02 0.551 -0.215 c 0.152 -0.148 0.32 -0.277 0.379 -0.277 c 0.258 0 0.816 0.859 0.902 1.398 c 0.016 0.098 0.137 0.234 0.273 0.309 c 0.23 0.125 0.27 0.117 0.613 -0.113 c 0.199 -0.133 0.414 -0.348 0.473 -0.469 c 0.059 -0.125 0.168 -0.227 0.246 -0.227 c 0.227 0 0.281 0.277 0.109 0.566 c -0.238 0.398 -0.195 0.535 0.332 1.09 c 0.547 0.57 0.859 0.664 0.961 0.285 c 0.043 -0.164 0.125 -0.23 0.277 -0.23 c 0.289 0 0.34 0.102 0.375 0.734 c 0.023 0.449 0.078 0.59 0.352 0.918 c 0.438 0.52 0.809 1.23 0.809 1.539 c 0 0.141 0.086 0.359 0.188 0.492 c 0.18 0.219 0.184 0.309 0.129 1.773 c -0.031 0.848 -0.063 1.602 -0.063 1.676 c 0 0.074 -0.117 0.402 -0.258 0.723 c -0.164 0.375 -0.281 0.844 -0.324 1.297 c -0.063 0.641 -0.305 1.301 -0.5 1.336 c -0.035 0.012 -0.184 0.023 -0.34 0.047 c -0.148 0.016 -0.449 0.152 -0.668 0.301 c -0.215 0.141 -0.574 0.316 -0.789 0.367 c -0.223 0.059 -0.457 0.145 -0.52 0.199 c -0.188 0.152 -0.129 0.5 0.117 0.691 c 0.25 0.188 0.297 0.367 0.129 0.527 c -0.074 0.074 -0.191 0.043 -0.434 -0.117 c -0.406 -0.27 -0.434 -0.27 -0.98 0.012 c -0.391 0.203 -0.465 0.215 -0.629 0.102 c -0.164 -0.109 -0.352 -0.133 -0.219 -0.184 c 0.082 -0.031 0.434 -0.059 0.555 -0.059 c 0.137 0 0.285 -0.094 0.387 -0.246 c 0.141 -0.207 0.164 -0.41 0.137 -1.309 c -0.039 -1.324 0.059 -1.52 0.91 -1.914 c 0.723 -0.332 0.996 -0.809 0.781 -1.359 c -0.07 -0.172 -0.691 -0.5 -0.953 -0.5 c -0.102 0 -0.293 -0.125 -0.422 -0.281 c -0.195 -0.219 -0.242 -0.367 -0.242 -0.77 c 0 -0.273 0.043 -0.574 0.094 -0.672 c 0.164 -0.293 0.23 -1.863 0.094 -2.117 c -0.094 -0.164 -0.109 -0.477 -0.063 -1.203 c 0.055 -0.898 0.043 -1.01 -0.129 -1.191 c -0.102 -0.113 -0.18 -0.285 -0.18 -0.379 c 0 -0.094 -0.121 -0.285 -0.258 -0.422 c -0.23 -0.219 -0.367 -0.258 -1.336 -0.367 c -1.754 -0.195 -2.195 -0.055 -2.828 0.902 c -0.23 0.344 -0.414 0.66 -0.414 0.703 c 0 0.105 -1.035 1.363 -1.348 1.637 c -0.277 0.242 -0.887 1.375 -0.887 1.645 c 0 0.09 -0.199 0.355 -0.449 0.602 c -0.449 0.43 -0.637 0.809 -0.898 1.773 c -0.066 0.25 -0.188 0.605 -0.277 0.801 c -0.258 0.594 -0.203 0.902 0.211 1.223 c 0.281 0.215 0.508 0.305 1 0.367 c 0.348 0.047 0.91 0.125 1.238 0.18 c 0.336 0.055 1.082 0.137 1.664 0.176 c 1.305 0.098 1.461 0.199 1.531 0.984 c 0.02 0.281 0.105 0.73 0.172 1.01 c 0.129 0.469 0.152 0.496 0.5 0.57 c 0.203 0.043 0.586 0.098 0.855 0.121 c 0.266 0.027 0.617 0.074 0.617 0.105 c 0 0.031 -0.266 0.133 -0.426 0.219 c -0.215 0.121 -0.277 0.207 -0.238 0.34 c 0.059 0.234 -0.066 0.301 -0.313 0.156 c -0.168 -0.098 -0.211 -0.09 -0.332 0.066 c -0.066 0.09 -0.129 0.242 -0.129 0.34 c 0 0.094 -0.074 0.188 -0.168 0.215 c -0.09 0.02 -0.273 0.094 -0.41 0.172 c -0.5 0.262 -0.883 0.094 -1.496 -0.656 c -0.086 -0.109 -0.242 -0.211 -0.336 -0.211 c -0.098 0 -0.328 -0.055 -0.516 -0.129 c -0.215 -0.094 -0.527 -0.133 -0.867 -0.105 c -0.461 0.031 -0.582 0.004 -0.84 -0.188 c -0.543 -0.398 -0.875 -0.156 -0.898 0.652 c -0.008 0.258 -0.023 0.273 -0.426 0.273 c -0.535 0.004 -1.145 0.418 -1.086 0.742 c 0.031 0.172 0.004 0.191 -0.16 0.152 c -0.266 -0.063 -0.707 0.102 -0.707 0.27 c 0 0.172 0.301 0.262 0.93 0.27 c 0.418 0.008 0.516 0.039 0.543 0.176 c 0.051 0.25 -0.059 0.305 -0.777 0.371 l -0.652 0.059 m 8.242 -1.438 c 0 -0.059 0.039 -0.07 0.094 -0.039 c 0.051 0.023 0.094 0.074 0.094 0.094 c 0 0.02 -0.043 0.035 -0.094 0.035 c -0.051 0 -0.094 -0.039 -0.094 -0.09 m -2.508 -7.469 c -0.223 -0.074 -0.465 -0.316 -0.465 -0.445 c 0 -0.059 0.148 -0.43 0.34 -0.824 c 0.25 -0.516 0.434 -0.77 0.703 -0.961 c 0.359 -0.25 0.371 -0.254 0.531 -0.086 c 0.09 0.094 0.262 0.426 0.379 0.742 c 0.137 0.371 0.309 0.637 0.477 0.762 c 0.32 0.23 0.348 0.543 0.059 0.734 c -0.148 0.105 -0.426 0.141 -1.047 0.141 c -0.465 -0.004 -0.902 -0.031 -0.98 -0.063" fill="#cc2d2d"/><g fill-opacity="0.502"><path d="m 5.922 27.27 c -0.078 -0.086 -0.168 -0.277 -0.203 -0.43 c -0.047 -0.23 -0.008 -0.301 0.281 -0.531 c 0.43 -0.332 0.594 -0.34 0.77 -0.039 c 0.117 0.188 0.121 0.281 0.039 0.449 c -0.055 0.113 -0.129 0.324 -0.16 0.457 c -0.043 0.199 -0.105 0.25 -0.316 0.25 c -0.145 0 -0.328 -0.07 -0.406 -0.16 m 5.785 -3.098 c -0.223 -0.254 -0.543 -0.52 -0.715 -0.59 c -0.168 -0.07 -0.375 -0.238 -0.465 -0.375 c -0.09 -0.137 -0.176 -0.266 -0.184 -0.285 c -0.02 -0.02 -0.184 -0.059 -0.375 -0.094 c -0.301 -0.047 -0.363 -0.098 -0.445 -0.371 c -0.137 -0.449 -0.207 -0.527 -0.605 -0.688 c -0.402 -0.156 -0.465 -0.25 -0.563 -0.891 c -0.055 -0.344 -0.035 -0.492 0.07 -0.602 c 0.188 -0.207 0.082 -0.469 -0.301 -0.719 c -0.43 -0.285 -0.457 -0.41 -0.18 -0.73 c 0.281 -0.328 0.246 -0.492 -0.227 -1.055 c -0.219 -0.262 -0.527 -0.484 -0.906 -0.656 c -0.34 -0.148 -0.598 -0.328 -0.633 -0.434 c -0.031 -0.098 -0.203 -0.23 -0.387 -0.293 c -0.289 -0.105 -0.32 -0.145 -0.281 -0.363 c 0.105 -0.52 0.332 -0.883 0.695 -1.117 c 0.648 -0.418 1.137 -0.156 1.734 0.934 c 0.234 0.43 0.34 0.535 0.645 0.629 c 0.207 0.063 0.438 0.176 0.523 0.25 c 0.207 0.184 0.547 0.164 0.875 -0.051 c 0.156 -0.098 0.352 -0.18 0.434 -0.18 c 0.246 0 0.469 -0.273 0.422 -0.516 c -0.063 -0.324 0.094 -0.34 0.457 -0.035 c 0.418 0.359 0.605 0.352 0.953 -0.035 c 0.375 -0.414 0.363 -0.688 -0.039 -1.219 c -0.172 -0.238 -0.32 -0.477 -0.32 -0.535 c 0 -0.059 0.152 -0.234 0.34 -0.395 c 0.184 -0.156 0.398 -0.434 0.477 -0.605 c 0.074 -0.176 0.199 -0.387 0.277 -0.473 c 0.109 -0.113 0.125 -0.258 0.078 -0.559 c -0.035 -0.227 -0.027 -0.414 0.012 -0.414 c 0.043 0 0.195 -0.102 0.336 -0.234 c 0.188 -0.168 0.258 -0.301 0.234 -0.488 c -0.016 -0.148 0.043 -0.328 0.141 -0.434 c 0.152 -0.168 0.156 -0.219 0.035 -0.684 c -0.098 -0.367 -0.102 -0.508 -0.023 -0.508 c 0.059 0 0.203 -0.082 0.313 -0.188 c 0.23 -0.207 0.203 -0.445 -0.066 -0.75 c -0.145 -0.164 -0.141 -0.164 0.152 -0.02 c 0.328 0.168 0.453 0.133 0.98 -0.25 c 0.734 -0.527 1.18 -0.992 1.18 -1.223 c 0 -0.219 0.02 -0.234 0.488 -0.223 c 0.957 0.012 1 0.023 1.09 0.254 c 0.129 0.324 0.41 0.371 0.801 0.137 c 0.27 -0.16 0.406 -0.184 0.723 -0.133 c 0.781 0.129 0.84 0.109 1.145 -0.375 c 0.098 -0.16 0.105 -0.16 0.305 0.012 c 0.262 0.223 0.656 0.992 0.656 1.273 c 0 0.242 0.242 0.398 0.609 0.398 c 0.246 0 0.605 -0.285 0.898 -0.723 c 0.117 -0.176 0.18 -0.199 0.266 -0.117 c 0.09 0.082 0.07 0.176 -0.09 0.434 c -0.184 0.289 -0.199 0.359 -0.094 0.602 c 0.066 0.148 0.215 0.336 0.336 0.41 c 0.117 0.074 0.238 0.211 0.27 0.309 c 0.07 0.207 0.563 0.477 0.754 0.406 c 0.066 -0.023 0.168 -0.156 0.219 -0.277 c 0.051 -0.125 0.152 -0.227 0.219 -0.227 c 0.16 0 0.242 0.27 0.246 0.777 c 0 0.301 0.078 0.469 0.383 0.84 c 0.434 0.539 0.824 1.305 0.828 1.621 c 0 0.121 0.078 0.297 0.168 0.395 c 0.176 0.191 0.18 0.289 0.094 2.324 c -0.055 1.172 -0.09 1.363 -0.313 1.844 c -0.188 0.395 -0.266 0.715 -0.289 1.219 c -0.039 0.832 -0.328 1.359 -0.754 1.359 c -0.141 0 -0.465 0.141 -0.73 0.313 c -0.258 0.168 -0.629 0.336 -0.82 0.371 c -0.387 0.074 -0.703 0.32 -0.703 0.547 c 0 0.078 0.129 0.258 0.281 0.398 c 0.152 0.137 0.281 0.289 0.281 0.344 c 0 0.199 -0.215 0.207 -0.469 0.023 c -0.344 -0.246 -0.656 -0.242 -1.113 0.016 c -0.285 0.164 -0.383 0.176 -0.477 0.09 c -0.09 -0.09 -0.059 -0.113 0.168 -0.113 c 0.176 0 0.355 -0.082 0.5 -0.234 c 0.215 -0.223 0.223 -0.277 0.203 -1.328 c -0.027 -1.328 0.039 -1.488 0.867 -1.918 c 0.426 -0.215 0.617 -0.391 0.82 -0.727 c 0.242 -0.398 0.254 -0.461 0.137 -0.664 c -0.078 -0.137 -0.398 -0.359 -0.836 -0.566 l -0.715 -0.332 l -0.117 -0.508 c -0.09 -0.375 -0.094 -0.582 -0.02 -0.793 c 0.102 -0.277 0.156 -0.641 0.266 -1.711 c 0.035 -0.383 0.016 -0.527 -0.07 -0.563 c -0.094 -0.035 -0.121 -0.293 -0.098 -1.09 c 0.02 -0.934 0.008 -1.07 -0.164 -1.277 c -0.102 -0.129 -0.195 -0.297 -0.199 -0.379 c -0.004 -0.078 -0.098 -0.285 -0.219 -0.457 c -0.207 -0.316 -0.223 -0.316 -0.996 -0.352 c -0.422 -0.02 -1.16 -0.039 -1.633 -0.039 c -0.813 0 -0.871 0.016 -1.172 0.262 c -0.176 0.145 -0.418 0.43 -0.523 0.625 c -0.508 0.902 -0.629 1.07 -0.824 1.141 c -0.137 0.047 -0.203 0.152 -0.203 0.297 c 0 0.141 -0.156 0.363 -0.434 0.629 c -0.242 0.23 -0.465 0.418 -0.5 0.418 c -0.039 0 -0.121 0.145 -0.18 0.316 c -0.059 0.176 -0.211 0.43 -0.332 0.555 c -0.16 0.16 -0.227 0.336 -0.227 0.582 c 0 0.301 -0.059 0.406 -0.461 0.773 c -0.316 0.301 -0.547 0.629 -0.746 1.078 c -0.156 0.355 -0.285 0.695 -0.285 0.77 c 0 0.066 -0.086 0.328 -0.184 0.594 c -0.297 0.75 -0.254 1.031 0.195 1.406 c 0.309 0.254 0.492 0.328 0.906 0.371 c 0.293 0.027 0.691 0.094 0.898 0.133 c 0.496 0.109 1.168 0.188 1.906 0.234 c 1.566 0.094 1.754 0.203 1.785 1.059 c 0.023 0.883 0.035 1 0.098 1.148 c 0.031 0.074 0.074 0.195 0.094 0.273 c 0.043 0.133 0.148 0.156 1.188 0.219 c 0.766 0.043 0.746 0.035 0.441 0.191 c -0.176 0.094 -0.254 0.207 -0.254 0.359 c 0 0.207 -0.023 0.211 -0.195 0.129 c -0.285 -0.148 -0.438 -0.055 -0.547 0.359 c -0.074 0.262 -0.152 0.363 -0.277 0.363 c -0.098 0 -0.301 0.07 -0.461 0.156 c -0.266 0.148 -0.305 0.148 -0.543 0.008 c -0.137 -0.078 -0.355 -0.289 -0.477 -0.469 c -0.285 -0.406 -1.105 -0.691 -2.02 -0.691 c -0.52 0 -0.656 -0.035 -0.887 -0.23 c -0.344 -0.277 -0.402 -0.277 -0.695 0.008 c -0.207 0.203 -0.23 0.285 -0.18 0.586 l 0.059 0.355 h -0.461 c -0.383 0 -0.52 0.051 -0.793 0.285 c -0.18 0.152 -0.332 0.359 -0.332 0.449 c 0 0.133 -0.066 0.172 -0.285 0.172 c -0.348 0 -0.645 0.141 -0.645 0.309 c 0 0.23 0.277 0.344 0.898 0.352 c 0.828 0.023 0.957 0.32 0.168 0.383 c -0.172 0.02 -0.43 0.055 -0.574 0.086 c -0.234 0.051 -0.313 0.004 -0.668 -0.41 m 5.949 -8.668 c -0.195 -0.203 -0.254 -0.563 -0.105 -0.656 c 0.051 -0.027 0.156 -0.25 0.242 -0.496 c 0.148 -0.434 0.578 -0.902 0.832 -0.902 c 0.191 0 0.383 0.281 0.57 0.852 c 0.129 0.387 0.254 0.578 0.434 0.68 c 0.289 0.156 0.332 0.371 0.113 0.586 c -0.117 0.105 -0.352 0.141 -1.02 0.141 c -0.781 0 -0.898 -0.027 -1.066 -0.199 m -1.512 -9.145 c -0.031 -0.152 -0.02 -0.313 0.027 -0.359 c 0.145 -0.141 0.195 0.008 0.109 0.324 l -0.078 0.305" fill="#c01919"/><path d="m 5.914 27.27 c -0.227 -0.246 -0.199 -0.328 0.273 -0.801 c 0.406 -0.414 0.426 -0.426 0.555 -0.258 c 0.156 0.203 0.164 0.352 0.043 0.57 c -0.047 0.086 -0.109 0.27 -0.141 0.406 c -0.047 0.199 -0.105 0.25 -0.32 0.25 c -0.141 0 -0.332 -0.074 -0.41 -0.172 m 5.801 -3.094 c -0.223 -0.254 -0.547 -0.52 -0.715 -0.59 c -0.172 -0.066 -0.379 -0.238 -0.469 -0.375 c -0.086 -0.137 -0.172 -0.266 -0.184 -0.281 c -0.02 -0.023 -0.188 -0.063 -0.379 -0.098 c -0.289 -0.039 -0.355 -0.094 -0.379 -0.277 c -0.047 -0.383 -0.223 -0.621 -0.547 -0.727 c -0.402 -0.129 -0.586 -0.313 -0.586 -0.586 c 0 -0.246 0.07 -0.266 0.414 -0.117 c 0.203 0.09 0.258 0.082 0.367 -0.063 c 0.105 -0.145 0.148 -0.152 0.273 -0.047 c 0.133 0.105 0.152 0.094 0.152 -0.074 c 0 -0.195 -0.141 -0.238 -0.672 -0.195 c -0.195 0.016 -0.258 -0.02 -0.258 -0.152 c 0 -0.094 0.047 -0.211 0.102 -0.266 c 0.059 -0.051 0.09 -0.188 0.07 -0.305 c -0.023 -0.156 -0.109 -0.227 -0.32 -0.27 c -0.344 -0.066 -0.773 -0.359 -0.777 -0.516 c -0.004 -0.137 0.441 -0.32 0.613 -0.254 c 0.086 0.031 0.125 -0.027 0.125 -0.172 c 0 -0.297 0.129 -0.348 0.328 -0.133 c 0.156 0.168 0.156 0.191 0.012 0.344 c -0.176 0.188 -0.199 0.43 -0.055 0.516 c 0.059 0.031 0.148 0.02 0.199 -0.039 c 0.074 -0.07 0.137 -0.07 0.227 0 c 0.09 0.074 0.16 0.07 0.258 -0.008 c 0.121 -0.098 0.117 -0.141 -0.008 -0.324 c -0.133 -0.199 -0.133 -0.223 0 -0.273 c 0.082 -0.031 0.129 -0.094 0.102 -0.133 c -0.074 -0.121 -0.887 -0.453 -0.977 -0.398 c -0.039 0.023 -0.102 0.004 -0.133 -0.047 c -0.031 -0.051 -0.141 -0.09 -0.234 -0.09 c -0.098 0 -0.332 -0.188 -0.527 -0.422 c -0.238 -0.281 -0.535 -0.496 -0.93 -0.672 c -0.34 -0.152 -0.594 -0.328 -0.629 -0.434 c -0.031 -0.102 -0.203 -0.234 -0.379 -0.293 c -0.176 -0.059 -0.324 -0.141 -0.324 -0.18 c 0 -0.035 0.125 -0.148 0.277 -0.254 c 0.152 -0.102 0.285 -0.281 0.301 -0.391 c 0.023 -0.156 0.102 -0.211 0.328 -0.23 c 0.219 -0.02 0.281 -0.063 0.246 -0.168 c -0.066 -0.164 0.238 -0.391 0.43 -0.328 c 0.289 0.102 0.586 0.441 0.898 1.035 c 0.316 0.605 0.305 0.773 -0.055 0.66 c -0.215 -0.063 -0.594 0.105 -0.512 0.227 c 0.031 0.051 0.156 0.09 0.277 0.09 c 0.129 0 0.25 0.039 0.281 0.09 c 0.09 0.145 0.352 0.109 0.293 -0.039 c -0.055 -0.148 0.184 -0.387 0.289 -0.281 c 0.039 0.035 0.066 0.152 0.066 0.262 c 0 0.211 0.172 0.254 0.957 0.246 c 0.406 -0.008 0.422 0.004 0.527 0.457 c 0.039 0.203 0.004 0.273 -0.273 0.426 c -0.387 0.223 -0.402 0.313 -0.09 0.449 c 0.199 0.09 0.246 0.082 0.297 -0.055 c 0.086 -0.227 0.684 -0.867 0.883 -0.945 c 0.184 -0.07 0.223 -0.207 0.078 -0.293 c -0.047 -0.031 -0.063 -0.184 -0.031 -0.344 c 0.027 -0.16 0.059 -0.457 0.063 -0.66 c 0.012 -0.371 0.016 -0.371 0.219 -0.227 c 0.137 0.094 0.203 0.227 0.188 0.367 c -0.012 0.195 0.02 0.234 0.273 0.254 c 0.16 0.02 0.316 0.086 0.344 0.152 c 0.039 0.094 -0.055 0.117 -0.387 0.109 c -0.387 -0.016 -0.441 0.008 -0.465 0.188 c -0.035 0.238 0.176 0.273 0.359 0.059 c 0.074 -0.082 0.203 -0.121 0.324 -0.09 c 0.109 0.023 0.293 -0.016 0.41 -0.098 c 0.18 -0.121 0.227 -0.125 0.301 -0.02 c 0.066 0.102 0.109 0.094 0.223 -0.051 c 0.125 -0.156 0.125 -0.188 -0.004 -0.254 c -0.078 -0.043 -0.188 -0.043 -0.242 -0.012 c -0.125 0.07 -0.27 -0.117 -0.27 -0.348 c -0.004 -0.18 0.277 -0.211 0.555 -0.066 c 0.273 0.141 0.313 -0.055 0.059 -0.25 c -0.215 -0.164 -0.223 -0.195 -0.113 -0.5 c 0.152 -0.438 0.207 -0.477 0.336 -0.246 c 0.082 0.145 0.082 0.227 0.008 0.301 c -0.168 0.16 -0.117 0.242 0.141 0.242 c 0.195 0 0.23 0.035 0.172 0.156 c -0.035 0.09 -0.09 0.273 -0.113 0.414 c -0.027 0.141 -0.102 0.277 -0.172 0.301 c -0.082 0.035 -0.129 0.195 -0.129 0.453 c 0 0.332 -0.035 0.414 -0.188 0.453 c -0.113 0.027 -0.184 0.121 -0.184 0.238 c 0 0.164 -0.055 0.195 -0.301 0.184 c -0.391 -0.016 -0.539 0.043 -0.539 0.203 c 0 0.07 -0.059 0.121 -0.137 0.121 c -0.074 0 -0.137 0.047 -0.137 0.102 c 0 0.066 0.105 0.078 0.305 0.039 c 0.168 -0.031 0.406 -0.055 0.543 -0.051 c 0.137 0.004 0.297 -0.059 0.363 -0.137 c 0.105 -0.121 0.129 -0.117 0.238 0.02 c 0.102 0.137 0.145 0.141 0.355 0.031 c 0.211 -0.105 0.262 -0.105 0.414 0.027 c 0.09 0.082 0.246 0.148 0.332 0.148 c 0.102 0 0.152 0.059 0.129 0.16 c -0.02 0.105 -0.098 0.145 -0.242 0.129 c -0.25 -0.035 -0.277 0.219 -0.059 0.629 c 0.109 0.203 0.203 0.262 0.328 0.23 c 0.242 -0.059 0.242 0.215 0.008 0.422 c -0.16 0.141 -0.176 0.141 -0.316 -0.016 c -0.094 -0.094 -0.156 -0.25 -0.156 -0.355 c 0 -0.105 -0.047 -0.219 -0.094 -0.246 c -0.051 -0.031 -0.07 -0.098 -0.043 -0.141 c 0.059 -0.094 -0.211 -0.23 -0.289 -0.148 c -0.051 0.059 0.148 0.438 0.281 0.539 c 0.129 0.094 -0.02 0.352 -0.172 0.285 c -0.074 -0.02 -0.191 -0.191 -0.266 -0.367 c -0.098 -0.238 -0.219 -0.352 -0.473 -0.434 c -0.371 -0.121 -0.438 -0.098 -0.438 0.164 c 0 0.141 0.051 0.164 0.227 0.125 c 0.176 -0.047 0.238 -0.016 0.277 0.141 c 0.027 0.109 0.016 0.242 -0.027 0.293 c -0.043 0.047 -0.09 0.133 -0.098 0.18 c -0.008 0.09 -0.18 0.086 -0.449 -0.004 c -0.086 -0.031 -0.113 -0.152 -0.094 -0.402 c 0.031 -0.32 0.016 -0.359 -0.168 -0.359 c -0.141 0 -0.211 0.063 -0.238 0.203 c -0.016 0.133 -0.102 0.211 -0.238 0.234 c -0.191 0.023 -0.215 0.059 -0.203 0.262 c 0 0.039 0.105 0.059 0.234 0.039 c 0.125 -0.012 0.23 0.02 0.23 0.066 c 0 0.059 -0.059 0.094 -0.129 0.094 c -0.082 0 -0.148 0.133 -0.172 0.32 c -0.023 0.199 0 0.316 0.07 0.316 c 0.059 0 0.18 0.082 0.273 0.18 c 0.09 0.102 0.238 0.18 0.32 0.18 c 0.363 0 0.496 0.41 0.207 0.656 c -0.25 0.219 -0.32 0.188 -0.25 -0.117 c 0.051 -0.207 0.027 -0.273 -0.082 -0.273 c -0.086 0 -0.148 0.059 -0.148 0.125 c 0 0.07 -0.063 0.152 -0.141 0.18 c -0.086 0.031 -0.137 0 -0.137 -0.09 c 0 -0.082 -0.059 -0.129 -0.164 -0.105 c -0.098 0.02 -0.211 -0.059 -0.281 -0.191 c -0.098 -0.188 -0.09 -0.246 0.039 -0.383 c 0.129 -0.133 0.129 -0.172 0.023 -0.176 c -0.07 -0.004 -0.211 -0.016 -0.313 -0.023 c -0.277 -0.016 -0.285 -0.309 -0.016 -0.512 c 0.188 -0.141 0.223 -0.223 0.16 -0.383 c -0.09 -0.246 -0.035 -0.434 0.168 -0.586 c 0.125 -0.094 0.133 -0.125 0.02 -0.191 c -0.074 -0.047 -0.105 -0.16 -0.078 -0.27 c 0.027 -0.105 0.008 -0.191 -0.043 -0.191 c -0.055 0 -0.031 -0.098 0.055 -0.223 c 0.184 -0.277 0.191 -0.469 0.016 -0.531 c -0.148 -0.055 -0.277 0.086 -0.277 0.305 c 0 0.082 -0.109 0.148 -0.27 0.16 c -0.387 0.047 -0.973 0.652 -0.617 0.652 c 0.047 0 0.09 -0.039 0.09 -0.09 c 0 -0.227 0.172 -0.059 0.223 0.23 c 0.035 0.172 0.102 0.313 0.145 0.313 c 0.043 0 0.129 0.148 0.195 0.324 c 0.137 0.418 0.004 0.598 -0.305 0.406 c -0.145 -0.09 -0.215 -0.094 -0.238 -0.023 c -0.02 0.063 -0.168 0.105 -0.336 0.105 c -0.172 0 -0.332 0.02 -0.363 0.055 c -0.059 0.059 0.352 0.484 0.465 0.484 c 0.031 0 0.109 0.07 0.176 0.156 c 0.113 0.148 0.129 0.145 0.254 -0.016 c 0.133 -0.172 0.137 -0.172 0.242 0.016 c 0.137 0.25 0.129 0.293 -0.035 0.293 c -0.199 0 -0.172 0.148 0.047 0.363 c 0.109 0.102 0.242 0.16 0.305 0.121 c 0.066 -0.039 0.059 0.012 -0.023 0.109 c -0.078 0.094 -0.141 0.184 -0.152 0.199 c -0.004 0.016 -0.16 -0.039 -0.344 -0.113 c -0.441 -0.18 -0.438 -0.18 -0.438 0.141 c 0 0.262 0.02 0.273 0.27 0.223 c 0.152 -0.031 0.293 -0.023 0.328 0.035 c 0.074 0.109 0.59 0.02 0.84 -0.141 c 0.438 -0.293 0.438 -0.059 0.004 0.395 c -0.27 0.277 -0.301 0.348 -0.184 0.41 c 0.238 0.133 0.75 0.043 0.707 -0.113 c -0.102 -0.383 -0.086 -0.711 0.039 -0.758 c 0.074 -0.023 0.133 -0.008 0.133 0.039 c 0 0.051 0.152 0.09 0.328 0.09 c 0.18 0 0.32 -0.035 0.32 -0.078 c 0 -0.039 0.117 -0.078 0.258 -0.086 c 0.141 -0.004 0.383 -0.027 0.535 -0.059 c 0.258 -0.059 0.281 -0.09 0.246 -0.371 c -0.02 -0.172 -0.074 -0.305 -0.125 -0.305 c -0.043 0 -0.078 -0.141 -0.078 -0.32 c 0 -0.363 -0.203 -0.434 -0.383 -0.117 c -0.094 0.168 -0.078 0.219 0.09 0.355 c 0.227 0.172 0.258 0.313 0.074 0.383 c -0.191 0.066 -0.426 -0.27 -0.426 -0.609 c 0 -0.176 -0.059 -0.324 -0.117 -0.352 c -0.215 -0.07 -0.441 0.043 -0.441 0.215 c 0 0.094 -0.047 0.172 -0.094 0.172 c -0.051 0 -0.094 -0.074 -0.094 -0.164 c 0 -0.094 -0.047 -0.207 -0.102 -0.266 c -0.18 -0.168 0.004 -0.313 0.332 -0.258 c 0.223 0.047 0.359 0.012 0.535 -0.125 c 0.23 -0.18 0.25 -0.18 0.551 -0.031 c 0.387 0.207 0.535 0.379 0.539 0.637 c 0.004 0.113 0.047 0.199 0.094 0.199 c 0.125 0 0.121 -0.328 0 -0.398 c -0.059 -0.039 -0.059 -0.117 0.004 -0.23 c 0.129 -0.23 0.281 -0.227 0.281 0.004 c 0 0.23 0.184 0.238 0.246 0.008 c 0.059 -0.215 0.5 -0.324 0.762 -0.191 c 0.242 0.121 0.223 0.125 0.477 -0.094 c 0.172 -0.137 0.191 -0.203 0.102 -0.289 c -0.094 -0.09 -0.152 -0.063 -0.297 0.117 l -0.176 0.227 l -0.004 -0.25 c 0 -0.152 0.047 -0.25 0.133 -0.25 c 0.129 0 0.281 -0.258 0.199 -0.336 c -0.016 -0.02 -0.137 -0.008 -0.254 0.027 c -0.121 0.039 -0.277 0.074 -0.355 0.078 c -0.086 0.004 -0.156 0.109 -0.168 0.254 c -0.035 0.293 -0.168 0.324 -0.254 0.059 c -0.035 -0.117 -0.004 -0.246 0.09 -0.344 c 0.195 -0.207 0.188 -0.371 -0.016 -0.371 c -0.133 -0.004 -0.117 -0.035 0.07 -0.18 c 0.293 -0.223 1.125 -0.25 1.301 -0.047 c 0.129 0.152 0.605 0.195 0.516 0.047 c -0.031 -0.051 0.004 -0.09 0.086 -0.09 c 0.078 0 0.195 0.078 0.258 0.172 c 0.082 0.133 0.148 0.152 0.277 0.086 c 0.094 -0.047 0.148 -0.129 0.121 -0.172 c -0.066 -0.102 0.141 -0.113 0.305 -0.012 c 0.152 0.094 -0.086 0.422 -0.434 0.594 c -0.219 0.113 -0.293 0.113 -0.508 0.012 c -0.133 -0.066 -0.246 -0.094 -0.246 -0.039 c 0 0.051 0.043 0.086 0.094 0.086 c 0.051 0 0.094 0.078 0.094 0.18 c 0 0.211 -0.117 0.234 -0.281 0.043 c -0.098 -0.117 -0.129 -0.117 -0.238 0.02 c -0.168 0.207 -0.164 0.297 0.008 0.297 c 0.074 0 0.137 0.043 0.137 0.09 c 0 0.055 0.09 0.094 0.188 0.094 c 0.105 0 0.184 0.059 0.184 0.133 c 0 0.074 0.043 0.133 0.094 0.133 c 0.055 0 0.094 -0.039 0.094 -0.09 c 0 -0.051 -0.043 -0.105 -0.094 -0.141 c -0.219 -0.133 -0.074 -0.246 0.242 -0.199 c 0.453 0.07 0.598 -0.004 0.598 -0.305 c 0 -0.172 0.043 -0.246 0.113 -0.215 c 0.129 0.047 0.352 0.457 0.352 0.641 c 0 0.223 0.215 0.238 0.383 0.02 c 0.16 -0.203 0.176 -0.207 0.32 -0.063 c 0.148 0.137 0.145 0.16 -0.039 0.316 c -0.105 0.086 -0.199 0.195 -0.199 0.238 c 0 0.043 0.148 0.262 0.324 0.492 c 0.398 0.5 0.426 0.746 0.09 0.746 c -0.191 0 -0.742 0.344 -0.594 0.367 c 0.625 0.117 0.762 0.059 1.012 -0.418 c 0.199 -0.387 0.234 -0.41 0.504 -0.363 c 0.16 0.027 0.453 0.012 0.656 -0.031 c 0.457 -0.105 0.625 -0.02 0.301 0.145 c -0.168 0.082 -0.246 0.199 -0.246 0.355 c 0 0.199 -0.02 0.211 -0.191 0.125 c -0.289 -0.148 -0.441 -0.051 -0.551 0.355 c -0.074 0.266 -0.152 0.367 -0.277 0.367 c -0.098 0 -0.305 0.07 -0.461 0.156 c -0.266 0.148 -0.305 0.148 -0.539 0.012 c -0.141 -0.082 -0.359 -0.293 -0.48 -0.469 c -0.285 -0.41 -1.105 -0.691 -2.02 -0.691 c -0.52 0 -0.656 -0.035 -0.887 -0.23 c -0.344 -0.285 -0.402 -0.285 -0.695 0.008 c -0.207 0.195 -0.23 0.285 -0.18 0.586 l 0.059 0.355 h -0.465 c -0.379 0 -0.516 0.047 -0.789 0.281 c -0.18 0.152 -0.328 0.355 -0.328 0.453 c 0 0.129 -0.066 0.172 -0.289 0.172 c -0.582 0 -0.809 0.277 -0.461 0.582 c 0.137 0.125 0.305 0.148 0.758 0.129 c 0.797 -0.043 0.91 0.273 0.121 0.332 c -0.172 0.016 -0.426 0.051 -0.574 0.082 c -0.23 0.051 -0.316 0.004 -0.668 -0.41 m 0.715 -1.691 c 0 -0.055 -0.063 -0.094 -0.141 -0.094 c -0.07 0 -0.133 0.043 -0.133 0.094 c 0 0.051 0.063 0.09 0.133 0.09 c 0.078 0 0.141 -0.039 0.141 -0.09 m 5.816 -0.895 c -0.066 -0.113 -0.328 -0.133 -0.328 -0.023 c 0 0.035 0.051 0.117 0.109 0.176 c 0.129 0.125 0.316 0 0.219 -0.152 m -8.605 -0.191 c 0 -0.051 -0.043 -0.09 -0.098 -0.09 c -0.055 0 -0.07 0.043 -0.039 0.09 c 0.031 0.055 0.074 0.094 0.094 0.094 c 0.023 0 0.043 -0.043 0.043 -0.094 m 7.82 -0.035 c -0.133 -0.156 -0.539 -0.262 -0.676 -0.176 c -0.16 0.094 0.195 0.305 0.512 0.305 c 0.223 0 0.25 -0.027 0.164 -0.129 m 1.199 0.066 c 0 -0.219 -0.25 -0.668 -0.395 -0.715 c -0.215 -0.066 -0.215 -0.066 -0.281 0.336 c -0.043 0.289 -0.027 0.324 0.133 0.281 c 0.094 -0.023 0.176 0 0.176 0.055 c 0 0.055 0.086 0.105 0.188 0.105 c 0.105 0 0.184 -0.031 0.184 -0.063 m -7.07 -0.363 c 0 -0.18 -0.223 -0.098 -0.262 0.094 c -0.023 0.105 0.016 0.133 0.117 0.098 c 0.082 -0.031 0.145 -0.117 0.145 -0.191 m 4.516 0.148 c 0.035 -0.055 0.039 -0.117 0.016 -0.137 c -0.066 -0.063 -0.348 0.059 -0.348 0.152 c 0 0.113 0.254 0.102 0.332 -0.016 m -0.461 -0.309 c 0.027 -0.074 0.109 -0.133 0.18 -0.133 c 0.066 0 0.168 -0.082 0.223 -0.18 c 0.129 -0.227 -0.043 -0.25 -0.344 -0.047 c -0.172 0.121 -0.215 0.121 -0.336 0.004 c -0.148 -0.148 -0.25 -0.098 -0.25 0.125 c 0 0.313 0.418 0.5 0.527 0.23 m -0.758 -0.047 c 0.031 -0.047 -0.008 -0.086 -0.082 -0.086 c -0.078 0 -0.168 0.039 -0.199 0.086 c -0.031 0.055 0.008 0.09 0.078 0.09 c 0.078 0 0.172 -0.039 0.203 -0.09 m 1.609 -0.066 c -0.039 -0.188 -0.203 -0.176 -0.242 0.02 c -0.02 0.086 0.035 0.141 0.125 0.141 c 0.094 0 0.141 -0.059 0.121 -0.156 m 1.211 -0.133 c 0.035 -0.293 -0.094 -0.32 -0.406 -0.086 c -0.168 0.133 -0.195 0.199 -0.109 0.277 c 0.191 0.191 0.48 0.082 0.512 -0.188 m -5.094 -0.887 c 0 -0.055 -0.043 -0.094 -0.09 -0.094 c -0.059 0 -0.098 0.043 -0.098 0.094 c 0 0.059 0.043 0.094 0.098 0.094 c 0.047 0 0.09 -0.043 0.09 -0.094 m -2.461 -0.273 c 0.027 -0.051 -0.031 -0.09 -0.141 -0.09 c -0.105 0 -0.168 0.043 -0.137 0.09 c 0.031 0.051 0.094 0.094 0.137 0.094 c 0.047 0 0.109 -0.047 0.141 -0.094 m 1.359 -0.586 c 0 -0.047 -0.047 -0.094 -0.102 -0.117 c -0.055 -0.02 -0.102 0.035 -0.102 0.117 c 0 0.09 0.047 0.133 0.102 0.125 c 0.055 -0.02 0.102 -0.07 0.102 -0.125 m -2.527 -1.105 c 0.066 -0.082 0.066 -0.172 0 -0.289 c -0.086 -0.16 -0.121 -0.168 -0.395 -0.059 c -0.387 0.16 -0.422 0.285 -0.156 0.559 c 0.207 0.211 0.227 0.215 0.336 0.063 c 0.063 -0.09 0.164 -0.215 0.215 -0.273 m 0.629 -0.043 c 0.152 -0.148 0.145 -0.434 -0.012 -0.434 c -0.176 0 -0.461 0.332 -0.391 0.445 c 0.086 0.129 0.27 0.121 0.402 -0.012 m 2.715 -0.063 c 0 -0.105 -0.191 -0.246 -0.438 -0.32 c -0.234 -0.074 -0.289 0.105 -0.094 0.289 c 0.129 0.129 0.535 0.148 0.535 0.031 m -5.441 -1.273 c -0.027 -0.055 -0.117 -0.094 -0.191 -0.094 c -0.074 0 -0.133 0.043 -0.133 0.094 c 0 0.047 0.086 0.086 0.191 0.086 c 0.105 0 0.168 -0.043 0.133 -0.086 m 0.695 0 c 0 -0.055 -0.043 -0.094 -0.094 -0.094 c -0.055 0 -0.07 0.043 -0.043 0.094 c 0.035 0.047 0.078 0.086 0.098 0.086 c 0.023 0 0.039 -0.043 0.039 -0.086 m -1.063 -0.371 c 0.035 -0.055 0.125 -0.074 0.195 -0.047 c 0.168 0.063 0.277 -0.199 0.145 -0.332 c -0.082 -0.074 -0.172 -0.035 -0.34 0.148 c -0.129 0.133 -0.238 0.266 -0.238 0.289 c 0 0.078 0.176 0.035 0.238 -0.055 m 14.852 5.441 c -0.035 -0.047 0.172 -0.023 0.332 -0.023 c 0.203 0 0.359 -0.094 0.602 -0.367 c 0.281 -0.305 0.324 -0.41 0.281 -0.66 c -0.031 -0.184 -0.008 -0.328 0.059 -0.367 c 0.078 -0.047 0.066 -0.098 -0.047 -0.176 c -0.129 -0.094 -0.137 -0.145 -0.051 -0.309 c 0.133 -0.246 0.387 -0.25 0.445 -0.008 c 0.031 0.113 0.102 0.168 0.188 0.133 c 0.074 -0.027 0.152 -0.051 0.176 -0.051 c 0.117 0 0.008 -0.285 -0.129 -0.332 c -0.086 -0.031 -0.234 -0.113 -0.313 -0.184 c -0.105 -0.086 -0.176 -0.094 -0.215 -0.031 c -0.195 0.309 -0.332 -0.117 -0.145 -0.453 c 0.113 -0.195 0.281 -0.23 0.281 -0.055 c 0 0.148 0.461 0.484 0.781 0.563 c 0.133 0.031 0.27 0.102 0.301 0.148 c 0.066 0.105 0.5 -0.27 0.5 -0.438 c 0 -0.066 0.059 -0.117 0.141 -0.117 c 0.199 0 0.277 -0.246 0.133 -0.414 c -0.074 -0.082 -0.086 -0.168 -0.031 -0.219 c 0.051 -0.055 0.156 0.02 0.27 0.184 c 0.207 0.305 0.316 0.305 0.43 0.012 c 0.066 -0.172 0.051 -0.195 -0.094 -0.152 c -0.199 0.063 -0.453 -0.172 -0.293 -0.266 c 0.055 -0.031 0.18 -0.031 0.277 -0.004 c 0.242 0.074 0.34 -0.156 0.203 -0.457 c -0.086 -0.18 -0.082 -0.238 0.035 -0.277 c 0.199 -0.074 0.168 -0.184 -0.059 -0.242 c -0.105 -0.031 -0.18 -0.098 -0.156 -0.168 c 0.043 -0.125 -0.242 -0.438 -0.391 -0.438 c -0.047 0 -0.098 -0.031 -0.102 -0.066 c -0.094 -0.613 -0.09 -0.625 0.199 -0.586 c 0.195 0.023 0.273 0.09 0.273 0.207 c 0 0.094 0.063 0.195 0.133 0.223 c 0.398 0.148 0.746 -0.52 0.473 -0.898 l -0.145 -0.195 l -0.059 0.215 c -0.051 0.195 -0.086 0.207 -0.527 0.156 c -0.262 -0.035 -0.52 -0.105 -0.578 -0.145 c -0.148 -0.125 -0.703 0.102 -0.668 0.27 c 0.043 0.211 0.32 0.215 0.379 0.016 c 0.063 -0.246 0.254 -0.246 0.254 -0.012 c 0 0.098 -0.043 0.18 -0.098 0.18 c -0.055 0 -0.09 0.066 -0.074 0.156 c 0.02 0.09 -0.004 0.207 -0.043 0.277 c -0.121 0.176 -0.328 0.133 -0.363 -0.094 c -0.012 -0.117 -0.105 -0.219 -0.211 -0.238 c -0.168 -0.035 -0.168 -0.02 -0.047 0.129 c 0.125 0.148 0.121 0.156 -0.051 0.094 c -0.102 -0.039 -0.301 -0.113 -0.441 -0.156 c -0.23 -0.086 -0.598 -0.586 -0.496 -0.688 c 0.066 -0.066 0.242 0.07 0.191 0.152 c -0.023 0.047 0.027 0.168 0.121 0.273 c 0.176 0.207 0.488 0.172 0.488 -0.055 c 0 -0.07 0.035 -0.125 0.094 -0.125 c 0.047 0 0.09 -0.063 0.09 -0.141 c 0 -0.105 -0.035 -0.113 -0.184 -0.035 c -0.16 0.082 -0.223 0.066 -0.371 -0.105 c -0.23 -0.27 -0.23 -0.363 0 -0.508 c 0.102 -0.059 0.184 -0.207 0.184 -0.32 c 0 -0.133 0.086 -0.242 0.238 -0.313 c 0.246 -0.109 0.457 -0.508 0.379 -0.711 c -0.078 -0.188 -0.262 -0.137 -0.195 0.063 c 0.055 0.168 -0.117 0.543 -0.25 0.543 c -0.121 0 -0.273 -0.371 -0.316 -0.785 c -0.035 -0.363 -0.023 -0.395 0.141 -0.344 c 0.117 0.035 0.211 0.004 0.266 -0.094 c 0.121 -0.207 0.469 -0.09 0.504 0.172 c 0.02 0.129 0.098 0.199 0.215 0.199 c 0.102 0 0.188 0.063 0.188 0.133 c 0 0.074 -0.055 0.125 -0.117 0.109 c -0.156 -0.031 -0.152 0.18 0.016 0.395 c 0.137 0.168 0.141 0.168 0.141 -0.027 c 0.004 -0.211 0.133 -0.273 0.238 -0.109 c 0.035 0.051 0.133 0.086 0.215 0.078 c 0.289 -0.027 0.387 0.008 0.387 0.141 c 0 0.074 0.063 0.137 0.141 0.137 c 0.074 0 0.133 -0.039 0.133 -0.094 c 0 -0.047 0.105 -0.113 0.238 -0.141 c 0.172 -0.043 0.23 -0.117 0.23 -0.305 c 0 -0.254 -0.148 -0.457 -0.336 -0.457 c -0.063 0 -0.094 0.074 -0.063 0.168 c 0.023 0.094 0 0.199 -0.059 0.23 c -0.059 0.035 -0.145 -0.098 -0.215 -0.352 c -0.074 -0.281 -0.164 -0.41 -0.266 -0.41 c -0.172 0 -0.422 -0.242 -0.34 -0.324 c 0.031 -0.027 0.223 -0.074 0.434 -0.098 c 0.207 -0.031 0.375 -0.102 0.375 -0.164 c 0 -0.121 -0.906 -0.328 -0.98 -0.219 c -0.063 0.102 -0.574 0.199 -0.684 0.137 c -0.164 -0.102 0.008 -0.32 0.246 -0.32 c 0.223 0 0.234 -0.02 0.172 -0.371 c -0.051 -0.32 -0.039 -0.367 0.09 -0.32 c 0.082 0.031 0.168 0.055 0.188 0.055 c 0.098 0 0.023 0.531 -0.078 0.574 c -0.07 0.027 -0.059 0.051 0.039 0.055 c 0.09 0.004 0.184 -0.031 0.215 -0.082 c 0.031 -0.055 0.16 -0.094 0.285 -0.094 c 0.305 0 0.285 -0.078 -0.137 -0.523 c -0.309 -0.316 -0.379 -0.355 -0.473 -0.238 c -0.141 0.16 -0.371 0.172 -0.371 0.016 c 0 -0.188 -0.52 -0.359 -0.742 -0.246 c -0.105 0.059 -0.191 0.152 -0.191 0.207 c 0 0.063 -0.082 0.262 -0.184 0.449 c -0.105 0.188 -0.188 0.359 -0.188 0.387 c 0 0.023 0.086 0.047 0.188 0.047 c 0.102 0 0.184 0.059 0.184 0.133 c 0 0.18 -0.125 0.172 -0.313 -0.027 c -0.184 -0.203 -0.227 -1.152 -0.043 -1.043 c 0.074 0.047 0.09 0.012 0.035 -0.109 c -0.164 -0.391 -0.152 -0.492 0.09 -0.805 c 0.211 -0.262 0.234 -0.344 0.141 -0.453 c -0.18 -0.207 -0.332 -0.164 -0.328 0.109 c 0.004 0.352 -0.254 0.371 -0.387 0.031 c -0.117 -0.297 -0.082 -0.367 0.168 -0.367 c 0.211 0 0.215 -0.074 0.027 -0.273 c -0.129 -0.141 -0.109 -0.207 0.242 -0.719 c 0.266 -0.383 0.418 -0.535 0.484 -0.473 c 0.063 0.07 0.023 0.207 -0.121 0.434 c -0.203 0.316 -0.203 0.34 -0.059 0.641 c 0.086 0.172 0.215 0.332 0.285 0.355 c 0.168 0.066 0.535 0.656 0.461 0.766 c -0.031 0.047 0.07 0.207 0.215 0.359 c 0.289 0.289 0.414 0.344 0.336 0.148 c -0.02 -0.066 0.023 -0.172 0.094 -0.234 c 0.082 -0.063 0.188 -0.273 0.242 -0.465 c 0.168 -0.598 0.367 -0.359 0.371 0.43 c 0 0.293 0.066 0.461 0.324 0.77 c 0.406 0.484 0.883 1.398 0.883 1.691 c 0 0.121 0.074 0.297 0.164 0.395 c 0.18 0.191 0.184 0.289 0.094 2.32 c -0.047 1.172 -0.082 1.367 -0.313 1.848 c -0.188 0.398 -0.262 0.711 -0.285 1.215 c -0.039 0.836 -0.328 1.363 -0.754 1.363 c -0.145 0 -0.469 0.141 -0.73 0.309 c -0.262 0.172 -0.633 0.34 -0.824 0.375 c -0.387 0.07 -0.695 0.32 -0.695 0.547 c 0 0.078 0.125 0.258 0.277 0.395 c 0.156 0.137 0.281 0.293 0.281 0.352 c 0 0.195 -0.215 0.203 -0.469 0.02 c -0.332 -0.242 -0.703 -0.246 -1.066 -0.008 c -0.309 0.199 -0.582 0.16 -0.672 0.023 m 4.484 -5.05 c 0.066 -0.176 -0.215 -0.289 -0.32 -0.125 c -0.043 0.066 -0.055 0.152 -0.031 0.191 c 0.082 0.125 0.293 0.082 0.352 -0.066 m -2.031 -1.586 c 0.086 -0.25 -0.078 -0.402 -0.234 -0.219 c -0.125 0.145 -0.07 0.414 0.078 0.414 c 0.051 0 0.117 -0.09 0.152 -0.191 m 1.406 -0.059 c 0.125 -0.148 0.137 -0.148 0.227 0 c 0.168 0.258 0.344 0.184 0.398 -0.176 c 0.066 -0.395 0.012 -0.508 -0.219 -0.43 c -0.117 0.031 -0.188 -0.008 -0.23 -0.137 c -0.031 -0.105 -0.141 -0.188 -0.242 -0.188 c -0.281 0 -0.191 0.387 0.102 0.453 c 0.148 0.031 0.195 0.078 0.129 0.121 c -0.059 0.035 -0.246 -0.02 -0.422 -0.117 c -0.363 -0.215 -0.461 -0.23 -0.391 -0.059 c 0.031 0.09 -0.016 0.109 -0.176 0.082 c -0.152 -0.027 -0.246 0.008 -0.285 0.105 c -0.07 0.176 0.332 0.359 0.609 0.273 c 0.102 -0.035 0.191 -0.004 0.227 0.086 c 0.074 0.18 0.125 0.18 0.277 -0.016 m -1.348 -0.594 c -0.117 -0.113 -0.242 -0.023 -0.148 0.113 c 0.035 0.059 0.102 0.074 0.156 0.043 c 0.063 -0.039 0.063 -0.094 -0.008 -0.156 m -0.195 -4.348 c 0 -0.129 -0.055 -0.23 -0.125 -0.23 c -0.195 0 -0.25 0.102 -0.148 0.285 c 0.133 0.242 0.277 0.207 0.277 -0.059 m -4.98 9.887 c -0.09 -0.137 0.031 -0.23 0.152 -0.113 c 0.066 0.063 0.066 0.117 0.008 0.152 c -0.059 0.035 -0.129 0.016 -0.16 -0.039 m -0.109 -0.41 c -0.078 -0.203 0.102 -0.344 0.242 -0.18 c 0.121 0.141 0.063 0.32 -0.094 0.32 c -0.051 0 -0.117 -0.063 -0.148 -0.141 m -0.613 -0.004 c -0.035 -0.035 -0.066 -0.16 -0.066 -0.281 c 0 -0.172 0.039 -0.211 0.207 -0.191 c 0.156 0.023 0.215 0.094 0.215 0.254 c 0 0.219 -0.215 0.352 -0.355 0.215 m 5.05 -0.844 c 0 -0.051 0.039 -0.086 0.098 -0.086 c 0.047 0 0.09 0.039 0.09 0.086 c 0 0.055 -0.039 0.094 -0.09 0.094 c -0.055 0 -0.098 -0.043 -0.098 -0.094 m 0.535 -0.063 c -0.367 -0.055 -0.332 -0.32 0.078 -0.531 c 0.188 -0.098 0.371 -0.266 0.418 -0.379 c 0.07 -0.172 0.109 -0.188 0.262 -0.094 c 0.145 0.086 0.227 0.078 0.43 -0.051 c 0.137 -0.09 0.309 -0.133 0.383 -0.105 c 0.121 0.043 0.102 0.094 -0.074 0.316 c -0.242 0.297 -0.406 0.344 -0.48 0.141 c -0.094 -0.23 -0.266 -0.148 -0.238 0.109 c 0.012 0.141 -0.035 0.34 -0.105 0.453 c -0.133 0.203 -0.18 0.211 -0.672 0.137 m -13.535 -1.48 c 0.047 -0.141 0.254 -0.168 0.266 -0.031 c 0.004 0.051 -0.066 0.105 -0.152 0.121 c -0.098 0.02 -0.137 -0.012 -0.113 -0.09 m 7.844 -1.422 c -0.066 -0.105 0.281 -0.223 0.41 -0.145 c 0.051 0.031 0.094 0.094 0.094 0.141 c 0 0.105 -0.438 0.109 -0.504 0 m 0.859 -0.023 c 0.199 -0.191 0.133 -0.367 -0.109 -0.309 c -0.133 0.031 -0.266 0.008 -0.332 -0.07 c -0.082 -0.102 -0.043 -0.152 0.199 -0.27 l 0.301 -0.148 l 0.395 0.387 c 0.219 0.211 0.395 0.418 0.398 0.457 c 0.004 0.039 -0.211 0.066 -0.48 0.066 c -0.375 0 -0.457 -0.027 -0.371 -0.109 m -5.328 -0.43 c 0.031 -0.098 0.012 -0.199 -0.039 -0.23 c -0.141 -0.082 -0.117 -0.227 0.031 -0.227 c 0.238 0 0.359 0.238 0.223 0.445 c -0.148 0.234 -0.289 0.246 -0.215 0.016 m 4.234 0.078 c 0 -0.047 0.043 -0.086 0.094 -0.086 c 0.055 0 0.094 0.039 0.094 0.086 c 0 0.055 -0.043 0.094 -0.094 0.094 c -0.051 0 -0.094 -0.043 -0.094 -0.094 m -5.383 -0.406 c -0.156 -0.18 -0.293 -0.379 -0.293 -0.449 c 0 -0.184 0.371 -0.355 0.492 -0.242 c 0.051 0.055 0.219 0.07 0.367 0.043 c 0.258 -0.051 0.27 -0.043 0.234 0.246 c -0.035 0.301 -0.258 0.5 -0.258 0.23 c 0 -0.082 -0.031 -0.145 -0.074 -0.145 c -0.043 0 -0.059 0.121 -0.039 0.262 c 0.059 0.387 -0.109 0.41 -0.434 0.051 m 5.578 -0.273 c 0.004 -0.105 0.027 -0.129 0.059 -0.055 c 0.031 0.066 0.023 0.141 0 0.176 c -0.031 0.027 -0.059 -0.027 -0.059 -0.121 m 0.836 -0.027 c 0 -0.098 0.344 -0.277 0.41 -0.215 c 0.109 0.109 0.051 0.184 -0.176 0.227 c -0.133 0.023 -0.234 0.02 -0.234 -0.012 m -5.305 -0.234 c 0 -0.102 0.066 -0.137 0.211 -0.121 c 0.113 0.02 0.211 0.066 0.211 0.121 c 0 0.051 -0.098 0.098 -0.211 0.117 c -0.145 0.016 -0.211 -0.02 -0.211 -0.117 m 9.531 -0.047 c 0.031 -0.055 0.074 -0.09 0.098 -0.09 c 0.016 0 0.039 0.039 0.039 0.09 c 0 0.055 -0.043 0.09 -0.098 0.09 c -0.055 0 -0.07 -0.039 -0.039 -0.09 m -4.527 -0.27 c -0.102 -0.109 -0.129 -0.199 -0.066 -0.234 c 0.16 -0.094 0.367 0.035 0.367 0.227 c 0 0.227 -0.102 0.23 -0.301 0.008 m -3.906 -0.059 c -0.016 -0.082 -0.176 -0.195 -0.355 -0.25 c -0.406 -0.129 -0.508 -0.523 -0.176 -0.691 c 0.102 -0.059 0.199 -0.094 0.215 -0.074 c 0.016 0.02 0.09 0.145 0.184 0.281 c 0.09 0.141 0.266 0.289 0.391 0.336 c 0.262 0.094 0.285 0.203 0.082 0.398 c -0.188 0.18 -0.297 0.172 -0.336 -0.004 m 8.297 -0.324 c 0.004 -0.34 0.02 -0.363 0.125 -0.227 c 0.129 0.168 0.094 0.609 -0.047 0.609 c -0.043 0 -0.082 -0.172 -0.078 -0.387 m 2.742 0.023 c 0.031 -0.051 0.07 -0.09 0.094 -0.09 c 0.023 0 0.043 0.043 0.043 0.09 c 0 0.055 -0.047 0.094 -0.102 0.094 c -0.051 0 -0.066 -0.043 -0.035 -0.094 m -12.445 -0.059 c -0.035 -0.031 -0.063 -0.152 -0.063 -0.27 c 0 -0.211 0.129 -0.262 0.41 -0.156 c 0.129 0.047 0.129 0.074 -0.004 0.27 c -0.152 0.223 -0.238 0.262 -0.344 0.156 m 1.703 -0.254 c 0 -0.074 0.043 -0.133 0.094 -0.133 c 0.055 0 0.094 0.059 0.094 0.133 c 0 0.07 -0.039 0.133 -0.094 0.133 c -0.055 0 -0.094 -0.063 -0.094 -0.133 m 10.11 -0.012 c -0.121 -0.121 -0.063 -0.215 0.133 -0.215 c 0.102 0 0.172 0.051 0.156 0.109 c -0.047 0.133 -0.203 0.188 -0.289 0.105 m -10.293 -0.438 c 0.063 -0.074 0.152 -0.137 0.199 -0.137 c 0.043 0 0.082 0.063 0.082 0.137 c 0 0.074 -0.086 0.133 -0.199 0.133 c -0.164 0 -0.18 -0.023 -0.082 -0.133 m -1.047 -0.066 c -0.289 -0.219 -0.23 -0.555 0.199 -1.094 c 0.418 -0.527 0.766 -0.668 0.887 -0.359 c 0.129 0.316 -0.215 0.727 -0.516 0.621 c -0.07 -0.027 -0.203 0.008 -0.297 0.082 c -0.16 0.121 -0.16 0.133 0.031 0.313 c 0.16 0.164 0.172 0.215 0.074 0.371 c -0.133 0.207 -0.172 0.215 -0.371 0.066 m 0.668 -1.242 c 0 -0.055 -0.039 -0.094 -0.094 -0.094 c -0.051 0 -0.094 0.043 -0.094 0.094 c 0 0.051 0.039 0.09 0.094 0.09 c 0.051 0 0.094 -0.043 0.094 -0.09 m 10.199 1.203 c -0.035 -0.031 -0.063 -0.121 -0.063 -0.195 c 0 -0.105 0.023 -0.105 0.141 -0.016 c 0.074 0.059 0.137 0.145 0.137 0.188 c 0 0.098 -0.133 0.105 -0.219 0.023 m -9.23 -0.223 c -0.066 -0.109 0.141 -0.277 0.254 -0.207 c 0.094 0.051 -0.008 0.305 -0.109 0.305 c -0.047 0 -0.109 -0.043 -0.145 -0.098 m 7.965 -0.031 c 0 -0.152 0.273 -0.313 0.426 -0.254 c 0.059 0.02 0.082 0.113 0.059 0.211 c -0.059 0.211 -0.492 0.25 -0.492 0.047 m -8.648 -0.051 c 0 -0.051 0.039 -0.09 0.094 -0.09 c 0.051 0 0.094 0.039 0.094 0.09 c 0 0.051 -0.039 0.09 -0.094 0.09 c -0.051 0 -0.094 -0.043 -0.094 -0.09 m 0.676 -0.473 l -0.203 -0.211 l 0.277 -0.117 c 0.156 -0.059 0.281 -0.184 0.281 -0.266 c 0 -0.102 0.082 -0.152 0.234 -0.152 c 0.164 0 0.23 0.051 0.23 0.16 c 0 0.223 -0.168 0.512 -0.293 0.512 c -0.055 0 -0.152 0.063 -0.207 0.141 c -0.094 0.129 -0.129 0.117 -0.309 -0.07 m -0.586 -0.066 c 0 -0.047 0.063 -0.086 0.145 -0.086 c 0.078 0 0.121 0.039 0.09 0.086 c -0.035 0.055 -0.102 0.098 -0.145 0.098 c -0.051 0 -0.09 -0.047 -0.09 -0.098 m 8.902 -0.055 c -0.078 -0.074 0.008 -0.215 0.125 -0.215 c 0.047 0 0.09 0.059 0.09 0.133 c 0 0.141 -0.109 0.18 -0.211 0.078 m 0.355 -0.512 c -0.105 -0.078 -0.133 -0.145 -0.07 -0.184 c 0.141 -0.086 0.387 0.027 0.387 0.176 c 0 0.16 -0.098 0.16 -0.313 0.004 m -7.547 -0.184 c -0.09 -0.215 0.109 -0.398 0.262 -0.25 c 0.09 0.09 0.078 0.137 -0.047 0.258 c -0.141 0.141 -0.164 0.141 -0.215 -0.008 m -1.988 -0.305 c 0 -0.094 0.375 -0.473 0.727 -0.734 c 0.16 -0.117 0.293 -0.285 0.293 -0.371 c 0 -0.168 0.277 -0.453 0.457 -0.453 c 0.063 0 0.219 -0.063 0.344 -0.141 c 0.281 -0.184 0.348 -0.133 0.23 0.176 c -0.051 0.141 -0.164 0.238 -0.266 0.238 c -0.191 0 -0.465 0.414 -0.352 0.516 c 0.043 0.039 0.133 -0.02 0.215 -0.133 c 0.168 -0.246 0.305 -0.262 0.305 -0.043 c 0 0.227 -0.352 0.422 -0.512 0.285 c -0.094 -0.07 -0.176 -0.07 -0.32 0 c -0.203 0.105 -0.242 0.23 -0.098 0.32 c 0.23 0.133 0.078 0.246 -0.273 0.199 c -0.258 -0.035 -0.379 -0.012 -0.41 0.082 c -0.055 0.133 -0.34 0.18 -0.34 0.059 m 9.219 -0.016 c 0.043 -0.113 0.168 -0.133 0.18 -0.027 c 0.004 0.035 -0.047 0.086 -0.105 0.102 c -0.059 0.02 -0.09 -0.012 -0.074 -0.074 m -7.426 -0.152 c -0.266 -0.098 -0.113 -0.277 0.23 -0.254 c 0.465 0.023 0.469 0.027 0.262 0.18 c -0.184 0.137 -0.293 0.152 -0.492 0.074 m -1.852 -0.43 c -0.027 -0.074 -0.023 -0.18 0.012 -0.234 c 0.035 -0.059 0.016 -0.152 -0.043 -0.223 c -0.086 -0.098 -0.059 -0.16 0.129 -0.281 c 0.133 -0.086 0.305 -0.129 0.387 -0.094 c 0.215 0.078 0.117 0.367 -0.133 0.395 c -0.176 0.027 -0.207 0.07 -0.16 0.246 c 0.063 0.238 -0.102 0.402 -0.188 0.188 m -0.41 -0.449 c 0 -0.078 0.039 -0.141 0.094 -0.141 c 0.051 0 0.094 0.039 0.094 0.082 c 0 0.055 -0.043 0.109 -0.094 0.141 c -0.051 0.031 -0.094 -0.004 -0.094 -0.082 m 2.711 0.043 c 0.023 -0.063 0.066 -0.109 0.105 -0.105 c 0.109 0.016 0.09 0.137 -0.031 0.176 c -0.063 0.016 -0.094 -0.012 -0.078 -0.074 m 0.363 -0.09 c 0 -0.051 0.125 -0.105 0.277 -0.137 c 0.316 -0.066 0.379 -0.309 0.102 -0.379 c -0.098 -0.023 -0.23 -0.172 -0.293 -0.32 c -0.098 -0.23 -0.094 -0.285 0.023 -0.375 c 0.078 -0.051 0.191 -0.188 0.25 -0.301 c 0.152 -0.281 0.242 -0.254 0.48 0.113 c 0.109 0.172 0.246 0.289 0.293 0.258 c 0.059 -0.035 0.082 0.02 0.059 0.109 c -0.02 0.098 -0.129 0.211 -0.242 0.258 c -0.16 0.07 -0.199 0.145 -0.16 0.32 c 0.023 0.129 -0.004 0.285 -0.066 0.359 c -0.121 0.145 -0.719 0.223 -0.719 0.094 m -2.273 -0.699 c -0.102 -0.102 -0.066 -0.203 0.082 -0.203 c 0.074 0 0.137 0.055 0.137 0.129 c 0 0.141 -0.109 0.18 -0.219 0.078 m 0.59 -0.391 c 0 -0.273 0.223 -0.387 0.305 -0.16 c 0.035 0.094 0.066 0.094 0.172 0 c 0.137 -0.125 0.551 -0.156 0.551 -0.043 c 0 0.047 0.074 0.07 0.164 0.066 c 0.086 0 0.164 0.035 0.164 0.09 c 0 0.051 -0.094 0.082 -0.215 0.059 c -0.113 -0.012 -0.23 0.031 -0.254 0.098 c -0.027 0.07 -0.219 0.129 -0.461 0.133 c -0.402 0.02 -0.418 0.016 -0.418 -0.246 m 5.297 -0.094 c 0 -0.113 0.188 -0.113 0.371 0 c 0.109 0.066 0.082 0.094 -0.117 0.094 c -0.141 0 -0.254 -0.035 -0.254 -0.094 m -2.371 -0.086 c -0.035 -0.055 -0.031 -0.18 0.004 -0.289 c 0.055 -0.148 0.031 -0.18 -0.086 -0.133 c -0.105 0.039 -0.152 0.008 -0.152 -0.105 c 0 -0.223 -0.102 -0.301 -0.242 -0.184 c -0.129 0.102 -0.313 0.039 -0.313 -0.105 c 0 -0.047 0.059 -0.086 0.129 -0.086 c 0.086 0 0.125 -0.098 0.117 -0.285 c -0.023 -0.426 0.18 -0.41 0.391 0.031 c 0.309 0.641 0.355 0.688 0.516 0.477 c 0.105 -0.141 0.16 -0.156 0.25 -0.07 c 0.09 0.086 0.082 0.121 -0.039 0.168 c -0.199 0.074 -0.207 0.488 -0.02 0.488 c 0.078 0 0.141 -0.059 0.141 -0.133 c 0 -0.094 0.086 -0.129 0.297 -0.109 c 0.223 0.016 0.309 -0.02 0.332 -0.133 c 0.027 -0.121 -0.023 -0.16 -0.195 -0.16 c -0.227 0 -0.23 -0.008 -0.094 -0.27 c 0.168 -0.332 0.406 -0.359 0.406 -0.047 c 0 0.27 0.07 0.281 0.242 0.063 c 0.109 -0.133 0.121 -0.125 0.125 0.141 c 0.004 0.238 0.035 0.297 0.164 0.273 c 0.113 -0.023 0.164 -0.121 0.172 -0.313 c 0.004 -0.152 0.098 -0.395 0.211 -0.547 c 0.113 -0.156 0.203 -0.324 0.203 -0.379 c 0 -0.137 0.078 -0.125 0.27 0.059 c 0.434 0.418 0.801 1.598 0.527 1.699 c -0.074 0.031 -0.262 -0.035 -0.41 -0.137 c -0.152 -0.102 -0.34 -0.188 -0.426 -0.188 c -0.086 0 -0.152 -0.063 -0.152 -0.141 c 0 -0.191 -0.172 -0.066 -0.277 0.203 c -0.086 0.211 -0.129 0.227 -0.641 0.195 c -0.305 -0.016 -0.582 0 -0.621 0.039 c -0.102 0.098 -0.758 0.082 -0.832 -0.023 m -1.566 -0.465 c -0.066 -0.242 -0.07 -0.242 0.238 -0.188 c 0.281 0.051 0.352 0.246 0.109 0.332 c -0.242 0.094 -0.293 0.066 -0.348 -0.145 m -0.434 -1.672 c 0 -0.16 0.035 -0.293 0.094 -0.293 c 0.109 0 0.109 0.156 0 0.406 c -0.066 0.148 -0.09 0.133 -0.094 -0.113" fill="#b91717"/></g></g></g></svg>