<svg xmlns="http://www.w3.org/2000/svg" viewBox="0 0 32 32"><path d="m 29.01 25.633 c 9.383 -11.641 -5.117 -28.313 -18.535 -25.27 c -14.445 3.387 -13.254 24.332 -0.676 29.504 c 6.262 3.602 15.844 2.93 19.211 -4.238" fill="#ffa400"/><path d="m 9.52 21.805 c 1.02 -5.703 3.063 -7.04 5.266 -6.539 c 0.969 0.902 2.035 2.918 2.785 4.68 c -0.098 -1.344 -0.91 -2.98 -1.32 -4.121 c 1.234 1.07 2.418 1.797 4.164 2.219 c -1.773 -1.07 -4.469 -3.266 -4.559 -3.906 c -0.164 -2.324 1.559 -4.074 7.926 -3.629 c -5.777 -1.355 -9.16 -0.477 -9.637 1.797 l -1.383 -0.352 l 0.324 1.402 c -2.125 0.352 -3.566 3.246 -3.566 8.445" fill-opacity="0.102"/><path d="m 9.03 22.328 c 1.02 -5.699 3.063 -7.04 5.266 -6.539 c 0.973 0.902 2.039 2.922 2.785 4.68 c -0.098 -1.34 -0.91 -2.977 -1.32 -4.117 c 1.234 1.066 2.418 1.797 4.164 2.215 c -1.773 -1.07 -4.469 -3.262 -4.559 -3.902 c -0.164 -2.324 1.559 -4.078 7.926 -3.633 c -5.773 -1.355 -9.16 -0.473 -9.637 1.801 l -1.383 -0.352 l 0.324 1.402 c -2.125 0.352 -3.566 3.242 -3.566 8.445" fill="#fff"/></svg>