<svg xmlns="http://www.w3.org/2000/svg" viewBox="0 0 32 32"><path d="m 14.699 31.887 c 19.41 1.824 24.633 -28.934 4.703 -31.32 c -18.328 -2.961 -27.766 24.922 -9.555 30.496 c 1.539 0.613 3.223 0.602 4.852 0.828" fill="#66cdaa"/><g fill="#fff" fill-rule="evenodd"><path d="m 22.11 24.559 c 0 -0.043 -0.02 -0.051 -0.09 -0.051 c -0.063 0 -0.09 -0.012 -0.09 -0.039 c 0 -0.027 -0.027 -0.039 -0.094 -0.039 c -0.063 0 -0.09 -0.012 -0.09 -0.039 c 0 -0.027 -0.027 -0.039 -0.09 -0.039 c -0.063 0 -0.09 -0.012 -0.09 -0.039 c 0 -0.02 -0.023 -0.035 -0.051 -0.035 c -0.035 0 -0.051 -0.02 -0.051 -0.055 c 0 -0.039 -0.02 -0.051 -0.09 -0.051 c -0.063 0 -0.09 -0.012 -0.09 -0.039 c 0 -0.02 -0.02 -0.039 -0.039 -0.039 c -0.023 0 -0.039 -0.016 -0.039 -0.039 c 0 -0.023 -0.027 -0.035 -0.09 -0.035 c -0.063 0 -0.09 -0.012 -0.09 -0.039 c 0 -0.023 -0.02 -0.039 -0.039 -0.039 c -0.023 0 -0.039 -0.023 -0.039 -0.051 c 0 -0.035 -0.02 -0.055 -0.051 -0.055 c -0.031 0 -0.055 -0.016 -0.055 -0.035 c 0 -0.027 -0.027 -0.039 -0.09 -0.039 c -0.063 0 -0.09 -0.012 -0.09 -0.039 c 0 -0.023 -0.016 -0.039 -0.039 -0.039 c -0.02 0 -0.039 -0.023 -0.039 -0.051 c 0 -0.035 -0.016 -0.051 -0.051 -0.051 c -0.027 0 -0.051 -0.02 -0.051 -0.039 c 0 -0.027 -0.027 -0.039 -0.09 -0.039 c -0.063 0 -0.09 -0.012 -0.09 -0.039 c 0 -0.023 -0.02 -0.039 -0.039 -0.039 c -0.02 0 -0.039 -0.016 -0.039 -0.039 c 0 -0.02 -0.016 -0.039 -0.039 -0.039 c -0.02 0 -0.039 -0.023 -0.039 -0.051 c 0 -0.035 -0.016 -0.051 -0.051 -0.051 c -0.027 0 -0.051 -0.02 -0.051 -0.039 c 0 -0.023 -0.023 -0.039 -0.051 -0.039 c -0.031 0 -0.051 -0.016 -0.051 -0.039 c 0 -0.023 -0.027 -0.039 -0.078 -0.039 c -0.051 0 -0.078 -0.012 -0.078 -0.039 c 0 -0.02 -0.023 -0.035 -0.051 -0.035 c -0.035 0 -0.051 -0.02 -0.051 -0.055 c 0 -0.027 -0.02 -0.051 -0.039 -0.051 c -0.023 0 -0.039 -0.016 -0.039 -0.039 c 0 -0.02 -0.023 -0.039 -0.051 -0.039 c -0.031 0 -0.055 -0.016 -0.055 -0.039 c 0 -0.023 -0.023 -0.035 -0.09 -0.035 c -0.07 0 -0.09 -0.012 -0.09 -0.055 c 0 -0.027 -0.016 -0.051 -0.039 -0.051 c -0.02 0 -0.035 -0.016 -0.035 -0.039 c 0 -0.02 -0.02 -0.039 -0.039 -0.039 c -0.023 0 -0.039 -0.016 -0.039 -0.035 c 0 -0.023 -0.023 -0.039 -0.051 -0.039 c -0.031 0 -0.055 -0.02 -0.055 -0.039 c 0 -0.023 -0.016 -0.039 -0.039 -0.039 c -0.02 0 -0.035 -0.023 -0.035 -0.051 c 0 -0.035 -0.02 -0.051 -0.055 -0.051 c -0.027 0 -0.051 -0.02 -0.051 -0.039 c 0 -0.023 -0.023 -0.039 -0.051 -0.039 c -0.027 0 -0.051 -0.02 -0.051 -0.039 c 0 -0.023 -0.02 -0.039 -0.039 -0.039 c -0.02 0 -0.039 -0.016 -0.039 -0.039 c 0 -0.027 -0.027 -0.039 -0.09 -0.039 c -0.074 0 -0.09 -0.008 -0.09 -0.051 c 0 -0.027 -0.02 -0.051 -0.039 -0.051 c -0.02 0 -0.039 -0.02 -0.039 -0.039 c 0 -0.023 -0.023 -0.039 -0.051 -0.039 c -0.027 0 -0.051 -0.016 -0.051 -0.039 c 0 -0.02 -0.02 -0.039 -0.039 -0.039 c -0.023 0 -0.039 -0.023 -0.039 -0.051 c 0 -0.027 -0.016 -0.051 -0.039 -0.051 c -0.02 0 -0.039 -0.02 -0.039 -0.039 c 0 -0.02 -0.023 -0.039 -0.051 -0.039 c -0.027 0 -0.051 -0.016 -0.051 -0.039 c 0 -0.02 -0.02 -0.039 -0.039 -0.039 c -0.023 0 -0.039 -0.016 -0.039 -0.039 c 0 -0.02 -0.023 -0.035 -0.051 -0.035 c -0.027 0 -0.051 -0.02 -0.051 -0.039 c 0 -0.023 -0.039 -0.043 -0.09 -0.055 c -0.055 -0.008 -0.094 -0.031 -0.094 -0.051 c 0 -0.02 -0.016 -0.039 -0.035 -0.039 c -0.023 0 -0.039 -0.016 -0.039 -0.035 c 0 -0.023 -0.023 -0.039 -0.055 -0.039 c -0.027 0 -0.051 -0.02 -0.051 -0.039 c 0 -0.023 -0.016 -0.039 -0.039 -0.039 c -0.02 0 -0.035 -0.023 -0.035 -0.051 c 0 -0.035 -0.02 -0.055 -0.055 -0.055 c -0.027 0 -0.051 -0.016 -0.051 -0.035 c 0 -0.023 -0.016 -0.039 -0.039 -0.039 c -0.02 0 -0.039 -0.02 -0.039 -0.039 c 0 -0.023 -0.02 -0.039 -0.051 -0.039 c -0.035 0 -0.051 -0.016 -0.051 -0.051 c 0 -0.031 -0.016 -0.051 -0.039 -0.051 c -0.02 0 -0.039 -0.02 -0.039 -0.039 c 0 -0.023 -0.016 -0.039 -0.039 -0.039 c -0.02 0 -0.039 -0.02 -0.039 -0.039 c 0 -0.023 -0.02 -0.039 -0.051 -0.039 c -0.027 0 -0.051 -0.016 -0.051 -0.039 c 0 -0.02 -0.016 -0.039 -0.035 -0.039 c -0.02 0 -0.043 -0.023 -0.051 -0.051 c -0.004 -0.027 -0.031 -0.051 -0.055 -0.051 c -0.02 0 -0.039 -0.02 -0.039 -0.039 c 0 -0.027 -0.027 -0.039 -0.09 -0.039 c -0.063 0 -0.09 -0.012 -0.09 -0.039 c 0 -0.027 -0.027 -0.039 -0.09 -0.039 c -0.066 0 -0.09 0.012 -0.09 0.039 c 0 0.023 -0.02 0.039 -0.043 0.039 c -0.023 0 -0.047 0.023 -0.055 0.051 c -0.008 0.031 -0.031 0.051 -0.051 0.051 c -0.02 0 -0.035 0.031 -0.035 0.078 c 0 0.051 -0.012 0.078 -0.039 0.078 c -0.02 0 -0.035 0.02 -0.035 0.039 c 0 0.02 -0.023 0.039 -0.055 0.039 c -0.027 0 -0.051 0.016 -0.051 0.039 c 0 0.02 -0.016 0.039 -0.039 0.039 c -0.027 0 -0.039 0.027 -0.039 0.09 c 0 0.07 -0.008 0.09 -0.051 0.09 c -0.027 0 -0.051 0.016 -0.051 0.039 c 0 0.02 -0.016 0.039 -0.039 0.039 c -0.02 0 -0.039 0.02 -0.039 0.051 c 0 0.035 -0.016 0.051 -0.051 0.051 c -0.027 0 -0.051 0.016 -0.051 0.039 c 0 0.02 -0.02 0.039 -0.039 0.039 c -0.027 0 -0.039 0.023 -0.039 0.078 c 0 0.059 -0.012 0.074 -0.051 0.074 c -0.035 0 -0.051 0.02 -0.051 0.055 c 0 0.027 -0.02 0.051 -0.039 0.051 c -0.027 0 -0.039 0.023 -0.039 0.078 c 0 0.059 -0.012 0.074 -0.051 0.074 c -0.031 0 -0.051 0.02 -0.051 0.039 c 0 0.023 -0.02 0.039 -0.039 0.039 c -0.023 0 -0.039 0.023 -0.039 0.051 c 0 0.031 -0.016 0.055 -0.039 0.055 c -0.02 0 -0.043 0.031 -0.051 0.074 c -0.012 0.043 -0.035 0.078 -0.055 0.078 c -0.02 0 -0.035 0.023 -0.035 0.051 c 0 0.031 -0.02 0.051 -0.039 0.051 c -0.027 0 -0.039 0.027 -0.039 0.078 c 0 0.063 -0.012 0.078 -0.051 0.078 c -0.031 0 -0.055 0.016 -0.055 0.039 c 0 0.02 -0.016 0.039 -0.035 0.039 c -0.027 0 -0.039 0.027 -0.039 0.09 c 0 0.074 -0.012 0.09 -0.051 0.09 c -0.031 0 -0.055 0.016 -0.055 0.039 c 0 0.02 -0.016 0.039 -0.039 0.039 c -0.02 0 -0.035 0.016 -0.035 0.035 c 0 0.02 -0.023 0.043 -0.055 0.051 c -0.035 0.008 -0.051 0.035 -0.051 0.09 c 0 0.055 -0.012 0.082 -0.039 0.082 c -0.02 0 -0.039 0.016 -0.039 0.039 c 0 0.02 -0.02 0.039 -0.051 0.039 c -0.039 0 -0.051 0.016 -0.051 0.09 c 0 0.063 -0.012 0.09 -0.039 0.09 c -0.02 0 -0.039 0.016 -0.039 0.039 c 0 0.02 -0.023 0.039 -0.051 0.039 c -0.027 0 -0.051 0.016 -0.051 0.035 c 0 0.02 -0.02 0.043 -0.039 0.051 c -0.023 0.008 -0.039 0.047 -0.039 0.094 c 0 0.051 -0.012 0.078 -0.039 0.078 c -0.02 0 -0.039 0.016 -0.039 0.035 c 0 0.023 -0.02 0.039 -0.051 0.039 c -0.027 0 -0.051 0.02 -0.051 0.039 c 0 0.023 -0.016 0.039 -0.039 0.039 c -0.027 0 -0.039 0.027 -0.039 0.09 c 0 0.074 -0.008 0.09 -0.051 0.09 c -0.027 0 -0.051 0.02 -0.051 0.039 c 0 0.023 -0.02 0.039 -0.039 0.039 c -0.023 0 -0.039 0.023 -0.039 0.051 c 0 0.035 -0.016 0.055 -0.051 0.055 c -0.027 0 -0.051 0.016 -0.051 0.035 c 0 0.023 -0.02 0.039 -0.039 0.039 c -0.023 0 -0.039 0.02 -0.039 0.039 c 0 0.023 -0.023 0.039 -0.051 0.039 c -0.031 0 -0.051 0.016 -0.051 0.039 c 0 0.02 -0.02 0.039 -0.039 0.039 c -0.023 0 -0.039 0.023 -0.039 0.051 c 0 0.043 -0.02 0.051 -0.09 0.051 c -0.063 0 -0.09 0.012 -0.09 0.039 c 0 0.031 -0.039 0.039 -0.168 0.039 c -0.133 0 -0.168 -0.008 -0.168 -0.039 c 0 -0.031 -0.039 -0.039 -0.18 -0.039 c -0.164 0 -0.184 -0.004 -0.184 -0.051 c 0 -0.043 -0.016 -0.051 -0.09 -0.051 c -0.063 0 -0.09 -0.012 -0.09 -0.039 c 0 -0.027 -0.027 -0.039 -0.09 -0.039 c -0.063 0 -0.09 -0.012 -0.09 -0.039 c 0 -0.02 -0.016 -0.039 -0.039 -0.039 c -0.02 0 -0.039 -0.016 -0.039 -0.039 c 0 -0.02 -0.023 -0.035 -0.051 -0.035 c -0.027 0 -0.051 -0.02 -0.051 -0.039 c 0 -0.023 -0.035 -0.043 -0.09 -0.055 c -0.051 -0.008 -0.09 -0.031 -0.09 -0.055 c 0 -0.02 -0.02 -0.035 -0.039 -0.035 c -0.023 0 -0.039 -0.016 -0.039 -0.039 c 0 -0.02 -0.023 -0.035 -0.051 -0.035 c -0.043 0 -0.051 -0.02 -0.051 -0.094 c 0 -0.063 -0.012 -0.09 -0.039 -0.09 c -0.023 0 -0.039 -0.016 -0.039 -0.039 c 0 -0.02 -0.023 -0.035 -0.051 -0.035 c -0.043 0 -0.055 -0.02 -0.055 -0.094 c 0 -0.063 -0.012 -0.09 -0.035 -0.09 c -0.027 0 -0.039 -0.023 -0.039 -0.074 c 0 -0.063 -0.012 -0.078 -0.055 -0.078 c -0.047 0 -0.051 -0.02 -0.051 -0.207 c 0 -0.188 0.004 -0.207 0.051 -0.207 c 0.043 0 0.055 -0.016 0.055 -0.09 c 0 -0.063 0.012 -0.09 0.039 -0.09 c 0.023 0 0.035 -0.027 0.035 -0.078 c 0 -0.059 0.012 -0.078 0.055 -0.078 c 0.039 0 0.051 -0.016 0.051 -0.09 c 0 -0.063 0.012 -0.09 0.039 -0.09 c 0.02 0 0.039 -0.016 0.039 -0.039 c 0 -0.02 0.02 -0.039 0.051 -0.039 c 0.039 0 0.051 -0.016 0.051 -0.074 c 0 -0.055 0.012 -0.078 0.039 -0.078 c 0.02 0 0.039 -0.023 0.039 -0.051 c 0 -0.035 0.016 -0.055 0.051 -0.055 c 0.039 0 0.051 -0.016 0.051 -0.074 c 0 -0.055 0.012 -0.078 0.039 -0.078 c 0.02 0 0.039 -0.023 0.039 -0.051 c 0 -0.035 0.016 -0.055 0.051 -0.055 c 0.027 0 0.051 -0.016 0.051 -0.035 c 0 -0.023 0.02 -0.039 0.039 -0.039 c 0.027 0 0.039 -0.027 0.039 -0.078 c 0 -0.051 0.012 -0.078 0.039 -0.078 c 0.02 0 0.039 -0.023 0.039 -0.051 c 0 -0.035 0.016 -0.051 0.051 -0.051 c 0.027 0 0.051 -0.02 0.051 -0.039 c 0 -0.023 0.02 -0.039 0.039 -0.039 c 0.02 0 0.039 -0.016 0.039 -0.035 c 0 -0.02 0.023 -0.043 0.051 -0.051 c 0.039 -0.008 0.051 -0.035 0.051 -0.094 c 0 -0.051 0.016 -0.078 0.039 -0.078 c 0.023 0 0.039 -0.02 0.039 -0.039 c 0 -0.02 0.023 -0.039 0.051 -0.039 c 0.031 0 0.051 -0.016 0.051 -0.039 c 0 -0.02 0.02 -0.039 0.039 -0.039 c 0.023 0 0.039 -0.02 0.039 -0.051 c 0 -0.035 0.02 -0.051 0.051 -0.051 c 0.031 0 0.055 -0.016 0.055 -0.039 c 0 -0.02 0.016 -0.039 0.035 -0.039 c 0.027 0 0.039 -0.023 0.039 -0.078 c 0 -0.059 0.012 -0.074 0.055 -0.074 c 0.031 0 0.051 -0.02 0.051 -0.055 c 0 -0.027 0.016 -0.051 0.039 -0.051 c 0.02 0 0.035 -0.016 0.035 -0.039 c 0 -0.02 0.02 -0.039 0.039 -0.039 c 0.023 0 0.039 -0.016 0.039 -0.035 c 0 -0.023 0.023 -0.039 0.051 -0.039 c 0.031 0 0.055 -0.02 0.055 -0.039 c 0 -0.023 0.016 -0.039 0.039 -0.039 c 0.023 0 0.035 -0.027 0.035 -0.09 c 0 -0.074 0.012 -0.09 0.055 -0.09 c 0.027 0 0.051 -0.02 0.051 -0.039 c 0 -0.023 0.016 -0.039 0.039 -0.039 c 0.02 0 0.039 -0.023 0.039 -0.051 c 0 -0.035 0.016 -0.051 0.051 -0.051 c 0.027 0 0.051 -0.02 0.051 -0.039 c 0 -0.023 0.016 -0.039 0.039 -0.039 c 0.02 0 0.039 -0.02 0.039 -0.039 c 0 -0.023 0.023 -0.039 0.051 -0.039 c 0.027 0 0.051 -0.016 0.051 -0.039 c 0 -0.02 0.02 -0.039 0.039 -0.039 c 0.02 0 0.039 -0.023 0.039 -0.051 c 0 -0.035 0.016 -0.051 0.051 -0.051 c 0.027 0 0.051 -0.02 0.051 -0.039 c 0 -0.02 0.02 -0.039 0.039 -0.039 c 0.027 0 0.039 -0.027 0.039 -0.078 c 0 -0.059 0.012 -0.078 0.051 -0.078 c 0.035 0 0.051 -0.016 0.051 -0.051 c 0 -0.027 0.02 -0.051 0.039 -0.051 c 0.023 0 0.039 -0.016 0.039 -0.039 c 0 -0.02 0.02 -0.039 0.039 -0.039 c 0.02 0 0.039 -0.016 0.039 -0.039 c 0 -0.02 0.023 -0.035 0.051 -0.035 c 0.035 0 0.051 -0.02 0.051 -0.055 c 0 -0.027 0.02 -0.051 0.039 -0.051 c 0.023 0 0.039 -0.016 0.039 -0.039 c 0 -0.02 0.023 -0.039 0.051 -0.039 c 0.031 0 0.051 -0.016 0.051 -0.035 c 0 -0.023 0.02 -0.039 0.039 -0.039 c 0.023 0 0.039 -0.02 0.039 -0.039 c 0 -0.023 0.023 -0.039 0.051 -0.039 c 0.035 0 0.055 -0.02 0.055 -0.051 c 0 -0.031 0.016 -0.055 0.035 -0.055 c 0.023 0 0.039 -0.016 0.039 -0.035 c 0 -0.023 0.023 -0.039 0.055 -0.039 c 0.027 0 0.051 -0.02 0.051 -0.039 c 0 -0.023 0.016 -0.039 0.039 -0.039 c 0.023 0 0.035 -0.027 0.035 -0.09 c 0 -0.074 0.012 -0.09 0.055 -0.09 c 0.027 0 0.051 -0.02 0.051 -0.039 c 0 -0.023 0.016 -0.039 0.039 -0.039 c 0.02 0 0.039 -0.02 0.039 -0.039 c 0 -0.02 0.016 -0.039 0.039 -0.039 c 0.02 0 0.035 -0.023 0.035 -0.051 c 0 -0.035 0.02 -0.051 0.055 -0.051 c 0.027 0 0.051 -0.02 0.051 -0.039 c 0 -0.023 0.016 -0.039 0.039 -0.039 c 0.02 0 0.039 -0.016 0.039 -0.039 c 0 -0.02 0.02 -0.039 0.051 -0.039 c 0.027 0 0.051 -0.016 0.051 -0.039 c 0 -0.02 0.016 -0.039 0.039 -0.039 c 0.02 0 0.039 -0.02 0.039 -0.051 c 0 -0.035 0.016 -0.051 0.051 -0.051 c 0.027 0 0.051 -0.016 0.051 -0.039 c 0 -0.02 0.016 -0.039 0.039 -0.039 c 0.02 0 0.039 -0.016 0.039 -0.039 c 0 -0.02 0.023 -0.035 0.051 -0.035 c 0.027 0 0.051 -0.02 0.051 -0.039 c 0 -0.023 0.02 -0.039 0.039 -0.039 c 0.023 0 0.039 -0.023 0.039 -0.051 c 0 -0.035 0.016 -0.055 0.051 -0.055 c 0.027 0 0.051 -0.016 0.051 -0.035 c 0 -0.023 0.02 -0.039 0.039 -0.039 c 0.023 0 0.039 -0.02 0.039 -0.039 c 0 -0.023 0.02 -0.039 0.039 -0.039 c 0.023 0 0.039 -0.023 0.039 -0.051 c 0 -0.035 0.016 -0.055 0.051 -0.055 c 0.027 0 0.051 -0.016 0.051 -0.035 c 0 -0.023 0.02 -0.039 0.039 -0.039 c 0.023 0 0.039 -0.02 0.039 -0.039 c 0 -0.023 0.023 -0.039 0.051 -0.039 c 0.031 0 0.051 -0.016 0.051 -0.039 c 0 -0.02 0.02 -0.039 0.039 -0.039 c 0.023 0 0.039 -0.023 0.039 -0.051 c 0 -0.035 0.02 -0.051 0.051 -0.051 c 0.031 0 0.055 -0.02 0.055 -0.039 c 0 -0.023 0.016 -0.039 0.035 -0.039 c 0.023 0 0.039 -0.016 0.039 -0.039 c 0 -0.02 0.023 -0.039 0.055 -0.039 c 0.027 0 0.051 -0.016 0.051 -0.039 c 0 -0.02 0.016 -0.039 0.039 -0.039 c 0.02 0 0.035 -0.02 0.035 -0.051 c 0 -0.035 0.02 -0.051 0.055 -0.051 c 0.027 0 0.051 -0.016 0.051 -0.039 c 0 -0.02 0.016 -0.039 0.039 -0.039 c 0.02 0 0.039 -0.016 0.039 -0.039 c 0 -0.02 0.016 -0.035 0.035 -0.035 c 0.023 0 0.039 -0.02 0.039 -0.039 c 0 -0.023 0.023 -0.039 0.055 -0.039 c 0.031 0 0.051 -0.02 0.051 -0.051 c 0 -0.031 0.016 -0.055 0.039 -0.055 c 0.02 0 0.039 -0.016 0.039 -0.035 c 0 -0.023 0.02 -0.039 0.051 -0.039 c 0.027 0 0.051 -0.02 0.051 -0.039 c 0 -0.023 0.016 -0.039 0.039 -0.039 c 0.02 0 0.039 -0.023 0.039 -0.051 c 0 -0.043 -0.02 -0.055 -0.09 -0.055 c -0.066 0 -0.094 0.012 -0.094 0.039 c 0 0.031 -0.035 0.039 -0.168 0.039 c -0.125 0 -0.172 0.012 -0.184 0.039 c -0.008 0.031 -0.055 0.039 -0.18 0.039 c -0.145 0 -0.168 0.008 -0.18 0.051 c -0.012 0.047 -0.035 0.051 -0.191 0.051 c -0.141 0 -0.18 0.008 -0.18 0.039 c 0 0.031 -0.039 0.039 -0.219 0.039 c -0.176 0 -0.219 0.008 -0.219 0.039 c 0 0.035 -0.07 0.039 -0.477 0.039 c -0.406 0 -0.477 -0.008 -0.477 -0.039 c 0 -0.02 -0.023 -0.039 -0.051 -0.039 c -0.027 0 -0.051 -0.016 -0.051 -0.039 c 0 -0.02 -0.02 -0.039 -0.039 -0.039 c -0.023 0 -0.039 -0.02 -0.039 -0.051 c 0 -0.035 -0.016 -0.051 -0.051 -0.051 c -0.031 0 -0.051 -0.016 -0.051 -0.039 c 0 -0.02 -0.02 -0.039 -0.039 -0.039 c -0.027 0 -0.039 -0.023 -0.039 -0.078 c 0 -0.059 -0.012 -0.074 -0.051 -0.074 c -0.047 0 -0.055 -0.02 -0.055 -0.129 c 0 -0.098 -0.008 -0.129 -0.035 -0.129 c -0.031 0 -0.039 -0.031 -0.039 -0.129 c 0 -0.113 -0.008 -0.129 -0.051 -0.129 c -0.051 0 -0.055 -0.02 -0.055 -0.246 c 0 -0.227 0.004 -0.246 0.055 -0.246 c 0.039 0 0.051 -0.016 0.051 -0.09 c 0 -0.063 0.012 -0.09 0.039 -0.09 c 0.023 0 0.035 -0.023 0.035 -0.074 c 0 -0.066 0.016 -0.078 0.094 -0.09 c 0.047 -0.012 0.09 -0.027 0.09 -0.039 c 0 -0.012 0.039 -0.031 0.09 -0.039 c 0.055 -0.012 0.09 -0.031 0.09 -0.055 c 0 -0.027 0.027 -0.039 0.09 -0.039 c 0.063 0 0.09 -0.012 0.09 -0.039 c 0 -0.027 0.031 -0.035 0.129 -0.035 c 0.098 0 0.129 -0.012 0.129 -0.039 c 0 -0.031 0.039 -0.039 0.18 -0.039 c 0.164 0 0.18 -0.004 0.18 -0.051 c 0 -0.047 0.02 -0.055 0.184 -0.055 c 0.141 0 0.18 -0.008 0.18 -0.035 c 0 -0.035 0.039 -0.039 0.219 -0.039 c 0.176 0 0.219 -0.008 0.219 -0.039 c 0 -0.031 0.043 -0.039 0.23 -0.039 c 0.191 0 0.234 -0.008 0.234 -0.039 c 0 -0.031 0.039 -0.039 0.199 -0.039 c 0.234 0 0.316 -0.02 0.316 -0.066 c 0 -0.027 0.051 -0.035 0.23 -0.035 c 0.188 0 0.23 -0.008 0.23 -0.039 c 0 -0.035 0.059 -0.039 0.352 -0.039 c 0.289 0 0.348 -0.008 0.348 -0.039 c 0 -0.031 0.051 -0.039 0.309 -0.039 c 0.25 0 0.313 -0.008 0.324 -0.039 c 0.012 -0.031 0.074 -0.039 0.34 -0.039 c 0.359 0 0.441 -0.012 0.441 -0.066 c 0 -0.027 0.086 -0.035 0.453 -0.035 c 0.383 0 0.449 -0.008 0.449 -0.039 c 0 -0.031 0.086 -0.039 0.621 -0.039 c 0.527 0 0.621 -0.004 0.633 -0.039 c 0.012 -0.031 0.094 -0.039 0.5 -0.039 c 0.367 0 0.488 0.008 0.496 0.035 c 0.008 0.023 0.109 0.035 0.352 0.039 c 0.27 0.008 0.34 0.016 0.34 0.047 c 0 0.027 0.039 0.035 0.18 0.035 c 0.137 0 0.18 0.008 0.18 0.035 c 0 0.043 0.078 0.066 0.223 0.066 c 0.07 0 0.109 0.016 0.121 0.039 c 0.012 0.027 0.055 0.039 0.145 0.039 c 0.098 0 0.129 0.012 0.129 0.039 c 0 0.031 0.031 0.039 0.129 0.039 c 0.098 0 0.129 0.008 0.129 0.039 c 0 0.027 0.027 0.039 0.09 0.039 c 0.074 0 0.09 0.008 0.09 0.051 c 0 0.043 0.02 0.051 0.09 0.051 c 0.066 0 0.094 0.012 0.094 0.039 c 0 0.027 0.027 0.039 0.09 0.039 c 0.063 0 0.09 0.012 0.09 0.039 c 0 0.027 0.027 0.039 0.09 0.039 c 0.063 0 0.09 0.012 0.09 0.039 c 0 0.02 0.016 0.035 0.039 0.035 c 0.02 0 0.039 0.023 0.039 0.055 c 0 0.039 0.016 0.051 0.09 0.051 c 0.063 0 0.09 0.012 0.09 0.039 c 0 0.02 0.023 0.039 0.051 0.039 c 0.031 0 0.051 0.016 0.051 0.035 c 0 0.023 0.02 0.039 0.039 0.039 c 0.023 0 0.039 0.023 0.039 0.055 c 0 0.031 0.02 0.051 0.051 0.051 c 0.031 0 0.055 0.016 0.055 0.039 c 0 0.02 0.016 0.039 0.035 0.039 c 0.023 0 0.039 0.016 0.039 0.035 c 0 0.023 0.02 0.039 0.039 0.039 c 0.023 0 0.039 0.02 0.039 0.039 c 0 0.023 0.023 0.039 0.051 0.039 c 0.035 0 0.051 0.016 0.051 0.051 c 0 0.031 0.02 0.051 0.039 0.051 c 0.023 0 0.039 0.02 0.039 0.039 c 0 0.023 0.023 0.039 0.051 0.039 c 0.043 0 0.055 0.02 0.055 0.078 c 0 0.051 0.012 0.078 0.035 0.078 c 0.027 0 0.039 0.023 0.039 0.078 c 0 0.059 0.016 0.086 0.055 0.094 c 0.035 0.012 0.051 0.035 0.051 0.102 c 0 0.059 0.012 0.086 0.039 0.086 c 0.023 0 0.035 0.027 0.035 0.078 c 0 0.059 0.012 0.078 0.055 0.078 c 0.047 0 0.051 0.016 0.051 0.246 c 0 0.199 0.008 0.242 0.039 0.242 c 0.031 0 0.039 0.043 0.039 0.219 c 0 0.18 -0.008 0.219 -0.039 0.219 c -0.031 0 -0.039 0.043 -0.039 0.207 c 0 0.188 -0.004 0.207 -0.051 0.207 c -0.047 0 -0.055 0.016 -0.055 0.129 c 0 0.098 -0.008 0.129 -0.035 0.129 c -0.027 0 -0.039 0.023 -0.039 0.078 c 0 0.059 -0.012 0.074 -0.051 0.074 c -0.043 0 -0.055 0.02 -0.055 0.094 c 0 0.063 -0.012 0.09 -0.039 0.09 c -0.023 0 -0.035 0.023 -0.035 0.074 c 0 0.063 -0.012 0.078 -0.055 0.078 c -0.031 0 -0.051 0.02 -0.051 0.051 c 0 0.031 -0.016 0.055 -0.039 0.055 c -0.023 0 -0.039 0.023 -0.039 0.074 c 0 0.063 -0.012 0.078 -0.051 0.078 c -0.027 0 -0.051 0.02 -0.051 0.039 c 0 0.023 -0.016 0.039 -0.039 0.039 c -0.02 0 -0.039 0.023 -0.039 0.051 c 0 0.031 -0.016 0.051 -0.039 0.051 c -0.02 0 -0.035 0.02 -0.035 0.039 c 0 0.023 -0.02 0.039 -0.039 0.039 c -0.023 0 -0.043 0.035 -0.055 0.09 c -0.008 0.055 -0.031 0.09 -0.055 0.09 c -0.02 0 -0.035 0.02 -0.035 0.039 c 0 0.027 -0.027 0.039 -0.09 0.039 c -0.07 0 -0.09 0.012 -0.09 0.051 c 0 0.031 -0.016 0.055 -0.039 0.055 c -0.02 0 -0.039 0.012 -0.039 0.023 c 0 0.016 -0.023 0.027 -0.051 0.027 c -0.035 0 -0.051 0.016 -0.051 0.051 c 0 0.035 -0.016 0.051 -0.051 0.051 c -0.031 0 -0.051 0.016 -0.051 0.039 c 0 0.02 -0.02 0.039 -0.039 0.039 c -0.023 0 -0.039 0.016 -0.039 0.039 c 0 0.02 -0.023 0.039 -0.051 0.039 c -0.031 0 -0.055 0.016 -0.055 0.039 c 0 0.023 -0.023 0.035 -0.074 0.035 c -0.063 0 -0.078 0.012 -0.078 0.055 c 0 0.031 -0.02 0.051 -0.051 0.051 c -0.031 0 -0.055 0.016 -0.055 0.039 c 0 0.027 -0.023 0.039 -0.09 0.039 c -0.063 0 -0.09 0.012 -0.09 0.035 c 0 0.023 -0.016 0.039 -0.039 0.039 c -0.02 0 -0.039 0.023 -0.039 0.055 c 0 0.039 -0.016 0.051 -0.09 0.051 c -0.063 0 -0.09 0.012 -0.09 0.039 c 0 0.027 -0.027 0.035 -0.09 0.035 c -0.063 0 -0.09 0.012 -0.09 0.039 c 0 0.027 -0.027 0.039 -0.09 0.039 c -0.063 0 -0.09 0.012 -0.09 0.039 c 0 0.027 -0.027 0.039 -0.09 0.039 c -0.074 0 -0.09 0.012 -0.09 0.051 c 0 0.043 -0.02 0.051 -0.09 0.051 c -0.066 0 -0.094 0.012 -0.094 0.039 c 0 0.027 -0.027 0.039 -0.09 0.039 c -0.063 0 -0.09 0.012 -0.09 0.039 c 0 0.031 -0.031 0.039 -0.129 0.039 c -0.098 0 -0.129 0.008 -0.129 0.039 c 0 0.027 -0.027 0.039 -0.09 0.039 c -0.074 0 -0.09 0.008 -0.09 0.051 c 0 0.043 -0.016 0.051 -0.129 0.051 c -0.098 0 -0.129 0.012 -0.129 0.039 c 0 0.031 -0.031 0.039 -0.141 0.039 c -0.109 0 -0.145 0.008 -0.145 0.039 c 0 0.031 -0.035 0.039 -0.168 0.039 c -0.125 0 -0.172 0.008 -0.18 0.039 c -0.012 0.023 -0.055 0.035 -0.145 0.035 c -0.105 0 -0.125 0.008 -0.125 0.055 c 0 0.047 -0.016 0.051 -0.219 0.051 c -0.176 0 -0.219 0.008 -0.219 0.039 c 0 0.031 -0.039 0.039 -0.18 0.039 c -0.145 0 -0.18 0.008 -0.18 0.035 c 0 0.035 -0.047 0.039 -0.273 0.039 c -0.25 0 -0.27 0.004 -0.27 0.055 c 0 0.047 -0.016 0.051 -0.309 0.051 c -0.258 0 -0.309 0.004 -0.309 0.039 c 0 0.027 -0.039 0.035 -0.18 0.035 c -0.148 0 -0.184 0.008 -0.184 0.043 c 0 0.023 0.023 0.047 0.055 0.055 c 0.027 0.008 0.051 0.031 0.051 0.051 c 0 0.02 0.023 0.035 0.051 0.035 c 0.027 0 0.051 0.016 0.051 0.039 c 0 0.023 0.027 0.035 0.078 0.035 c 0.051 0 0.078 0.016 0.078 0.039 c 0 0.023 0.016 0.039 0.039 0.039 c 0.02 0 0.039 0.023 0.039 0.051 c 0 0.035 0.016 0.055 0.051 0.055 c 0.027 0 0.051 0.016 0.051 0.035 c 0 0.023 0.016 0.039 0.039 0.039 c 0.02 0 0.039 0.02 0.039 0.039 c 0 0.027 0.027 0.039 0.09 0.039 c 0.07 0 0.09 0.012 0.09 0.051 c 0 0.035 0.016 0.055 0.051 0.055 c 0.027 0 0.051 0.016 0.051 0.035 c 0 0.023 0.02 0.039 0.039 0.039 c 0.023 0 0.039 0.02 0.039 0.039 c 0 0.023 0.023 0.039 0.051 0.039 c 0.031 0 0.051 0.016 0.051 0.039 c 0 0.02 0.016 0.039 0.039 0.039 c 0.02 0 0.039 0.023 0.047 0.051 c 0.012 0.039 0.035 0.051 0.094 0.051 c 0.055 0 0.078 0.012 0.078 0.039 c 0 0.023 0.02 0.039 0.039 0.039 c 0.023 0 0.039 0.016 0.039 0.039 c 0 0.02 0.023 0.039 0.051 0.039 c 0.031 0 0.055 0.016 0.055 0.039 c 0 0.02 0.016 0.039 0.035 0.039 c 0.023 0 0.039 0.02 0.039 0.051 c 0 0.035 0.02 0.051 0.051 0.051 c 0.031 0 0.055 0.016 0.055 0.039 c 0 0.02 0.016 0.039 0.039 0.039 c 0.02 0 0.035 0.016 0.035 0.039 c 0 0.023 0.027 0.035 0.094 0.035 c 0.07 0 0.09 0.012 0.09 0.055 c 0 0.031 0.016 0.051 0.051 0.051 c 0.027 0 0.051 0.016 0.051 0.039 c 0 0.02 0.016 0.039 0.039 0.039 c 0.02 0 0.039 0.016 0.039 0.035 c 0 0.023 0.023 0.039 0.051 0.039 c 0.027 0 0.051 0.02 0.051 0.039 c 0 0.023 0.02 0.039 0.039 0.039 c 0.023 0 0.039 0.023 0.039 0.051 c 0 0.031 0.016 0.055 0.039 0.055 c 0.02 0 0.039 0.016 0.039 0.035 c 0 0.023 0.023 0.039 0.051 0.039 c 0.027 0 0.051 0.02 0.051 0.039 c 0 0.023 0.02 0.039 0.039 0.039 c 0.02 0 0.039 0.02 0.039 0.039 c 0 0.02 0.023 0.039 0.051 0.039 c 0.035 0 0.051 0.016 0.051 0.051 c 0 0.027 0.02 0.051 0.039 0.051 c 0.023 0 0.039 0.02 0.039 0.039 c 0 0.023 0.023 0.039 0.051 0.039 c 0.031 0 0.051 0.016 0.051 0.039 c 0 0.02 0.02 0.039 0.039 0.039 c 0.023 0 0.039 0.016 0.039 0.039 c 0 0.02 0.023 0.039 0.051 0.039 c 0.035 0 0.055 0.016 0.055 0.051 c 0 0.027 0.016 0.051 0.035 0.051 c 0.027 0 0.039 0.023 0.039 0.078 c 0 0.059 0.012 0.078 0.051 0.078 c 0.051 0 0.055 0.016 0.055 0.371 c 0 0.355 -0.004 0.375 -0.055 0.375 c -0.039 0 -0.051 0.016 -0.051 0.09 c 0 0.063 -0.012 0.09 -0.039 0.09 c -0.023 0 -0.035 0.027 -0.035 0.078 c 0 0.059 -0.012 0.078 -0.055 0.078 c -0.031 0 -0.051 0.016 -0.051 0.051 c 0 0.027 -0.016 0.051 -0.039 0.051 c -0.02 0 -0.039 0.02 -0.039 0.039 c 0 0.02 -0.02 0.039 -0.051 0.039 c -0.027 0 -0.051 0.016 -0.051 0.039 c 0 0.027 -0.027 0.039 -0.09 0.039 c -0.063 0 -0.09 0.012 -0.09 0.039 c 0 0.023 -0.027 0.035 -0.09 0.035 c -0.074 0 -0.09 0.012 -0.09 0.055 c 0 0.043 -0.02 0.051 -0.117 0.051 c -0.098 0 -0.117 -0.008 -0.117 -0.051 m -1.336 -6.652 c 0 -0.047 0.016 -0.051 0.309 -0.051 c 0.258 0 0.309 -0.008 0.309 -0.039 c 0 -0.031 0.043 -0.039 0.219 -0.039 c 0.18 0 0.219 -0.008 0.219 -0.039 c 0 -0.031 0.039 -0.039 0.18 -0.039 c 0.145 0 0.184 -0.008 0.184 -0.039 c 0 -0.027 0.031 -0.039 0.129 -0.039 c 0.109 0 0.129 -0.004 0.129 -0.051 c 0 -0.043 0.016 -0.051 0.141 -0.051 c 0.109 0 0.141 -0.008 0.141 -0.039 c 0 -0.027 0.031 -0.039 0.129 -0.039 c 0.094 0 0.129 -0.008 0.129 -0.035 c 0 -0.023 0.043 -0.039 0.121 -0.047 c 0.066 -0.008 0.129 -0.027 0.133 -0.043 c 0.004 -0.016 0.047 -0.027 0.098 -0.027 c 0.07 0 0.086 -0.012 0.086 -0.051 c 0 -0.043 0.02 -0.055 0.09 -0.055 c 0.063 0 0.09 -0.012 0.09 -0.039 c 0 -0.023 0.027 -0.035 0.094 -0.035 c 0.063 0 0.09 -0.012 0.09 -0.039 c 0 -0.023 0.023 -0.039 0.051 -0.039 c 0.035 0 0.051 -0.02 0.051 -0.051 c 0 -0.043 0.016 -0.055 0.09 -0.055 c 0.063 0 0.09 -0.012 0.09 -0.035 c 0 -0.023 0.02 -0.039 0.039 -0.039 c 0.023 0 0.039 -0.016 0.039 -0.035 c 0 -0.023 0.039 -0.043 0.09 -0.055 c 0.051 -0.008 0.09 -0.027 0.09 -0.043 c 0 -0.012 0.02 -0.023 0.039 -0.023 c 0.023 0 0.039 -0.023 0.039 -0.051 c 0 -0.035 0.016 -0.051 0.051 -0.051 c 0.031 0 0.051 -0.02 0.051 -0.039 c 0 -0.023 0.02 -0.039 0.039 -0.039 c 0.023 0 0.039 -0.023 0.039 -0.051 c 0 -0.031 0.02 -0.051 0.039 -0.051 c 0.023 0 0.047 -0.035 0.055 -0.078 c 0.008 -0.043 0.031 -0.078 0.051 -0.078 c 0.023 0 0.035 -0.027 0.035 -0.078 c 0 -0.059 0.012 -0.078 0.051 -0.078 c 0.051 0 0.055 -0.016 0.055 -0.219 c 0 -0.199 -0.004 -0.219 -0.055 -0.219 c -0.039 0 -0.051 -0.016 -0.051 -0.09 c 0 -0.063 -0.012 -0.09 -0.039 -0.09 c -0.02 0 -0.035 -0.016 -0.035 -0.039 c 0 -0.02 -0.023 -0.039 -0.055 -0.039 c -0.027 0 -0.051 -0.016 -0.051 -0.039 c 0 -0.02 -0.016 -0.039 -0.039 -0.039 c -0.02 0 -0.039 -0.016 -0.039 -0.035 c 0 -0.027 -0.027 -0.039 -0.09 -0.039 c -0.07 0 -0.09 -0.012 -0.09 -0.051 c 0 -0.043 -0.016 -0.055 -0.09 -0.055 c -0.063 0 -0.09 -0.012 -0.09 -0.039 c 0 -0.027 -0.031 -0.035 -0.129 -0.035 c -0.098 0 -0.129 -0.012 -0.129 -0.039 c 0 -0.031 -0.035 -0.039 -0.176 -0.039 c -0.156 0 -0.18 -0.008 -0.191 -0.051 c -0.016 -0.051 -0.035 -0.055 -0.363 -0.055 c -0.297 0 -0.352 -0.004 -0.352 -0.035 c 0 -0.035 -0.094 -0.039 -0.672 -0.039 c -0.578 0 -0.668 0.004 -0.668 0.039 c 0 0.02 -0.023 0.035 -0.051 0.035 c -0.035 0 -0.055 0.02 -0.055 0.055 c 0 0.027 -0.016 0.051 -0.035 0.051 c -0.023 0 -0.039 0.016 -0.039 0.039 c 0 0.02 -0.02 0.039 -0.039 0.039 c -0.023 0 -0.039 0.016 -0.039 0.035 c 0 0.023 -0.023 0.039 -0.051 0.039 c -0.035 0 -0.055 0.02 -0.055 0.055 c 0 0.027 -0.016 0.051 -0.035 0.051 c -0.023 0 -0.039 0.016 -0.039 0.039 c 0 0.02 -0.023 0.035 -0.051 0.035 c -0.031 0 -0.055 0.02 -0.055 0.039 c 0 0.023 -0.016 0.039 -0.039 0.039 c -0.02 0 -0.035 0.02 -0.035 0.039 c 0 0.023 -0.023 0.039 -0.055 0.039 c -0.031 0 -0.051 0.016 -0.051 0.051 c 0 0.031 -0.016 0.051 -0.039 0.051 c -0.02 0 -0.039 0.02 -0.039 0.039 c 0 0.023 -0.02 0.039 -0.051 0.039 c -0.027 0 -0.051 0.02 -0.051 0.039 c 0 0.02 -0.016 0.039 -0.039 0.039 c -0.02 0 -0.039 0.016 -0.039 0.039 c 0 0.02 -0.023 0.039 -0.051 0.039 c -0.035 0 -0.051 0.016 -0.051 0.051 c 0 0.027 -0.016 0.051 -0.039 0.051 c -0.02 0 -0.039 0.023 -0.039 0.051 c 0 0.031 -0.016 0.051 -0.039 0.051 c -0.023 0 -0.039 0.027 -0.039 0.078 c 0 0.063 -0.012 0.078 -0.051 0.078 c -0.027 0 -0.051 0.016 -0.051 0.039 c 0 0.02 -0.016 0.039 -0.039 0.039 c -0.02 0 -0.039 0.016 -0.039 0.039 c 0 0.02 -0.023 0.039 -0.051 0.039 c -0.027 0 -0.051 0.016 -0.051 0.039 c 0 0.02 -0.02 0.035 -0.039 0.035 c -0.023 0 -0.039 0.023 -0.039 0.055 c 0 0.031 -0.016 0.051 -0.051 0.051 c -0.027 0 -0.051 0.016 -0.051 0.039 c 0 0.02 -0.02 0.039 -0.039 0.039 c -0.023 0 -0.039 0.016 -0.039 0.035 c 0 0.023 -0.023 0.039 -0.051 0.039 c -0.035 0 -0.051 0.02 -0.051 0.055 c 0 0.027 -0.02 0.051 -0.039 0.051 c -0.027 0 -0.039 0.023 -0.039 0.074 c 0 0.063 -0.012 0.078 -0.051 0.078 c -0.031 0 -0.055 0.02 -0.055 0.039 c 0 0.023 -0.016 0.039 -0.035 0.039 c -0.023 0 -0.039 0.023 -0.039 0.051 c 0 0.035 -0.02 0.051 -0.055 0.051 c -0.027 0 -0.051 0.02 -0.051 0.039 c 0 0.023 -0.016 0.039 -0.039 0.039 c -0.02 0 -0.039 0.02 -0.039 0.039 c 0 0.023 -0.016 0.039 -0.035 0.039 c -0.027 0 -0.039 0.027 -0.039 0.09 c 0 0.074 -0.012 0.09 -0.051 0.09 c -0.031 0 -0.055 0.02 -0.055 0.039 c 0 0.023 -0.016 0.039 -0.039 0.039 c -0.02 0 -0.035 0.016 -0.035 0.039 c 0 0.02 -0.023 0.039 -0.055 0.039 c -0.027 0 -0.051 0.016 -0.051 0.039 c 0 0.02 -0.016 0.039 -0.039 0.039 c -0.027 0 -0.039 0.031 -0.039 0.141 v 0.141 h 1.031 c 1.016 0 1.031 0 1.031 -0.051"/><path d="m 8.375 19.676 c 0 -0.031 -0.031 -0.039 -0.129 -0.039 c -0.109 0 -0.129 -0.008 -0.129 -0.051 c 0 -0.043 -0.016 -0.051 -0.09 -0.051 c -0.062 0 -0.09 -0.012 -0.09 -0.039 c 0 -0.027 -0.027 -0.039 -0.09 -0.039 c -0.063 0 -0.09 -0.012 -0.09 -0.039 c 0 -0.027 -0.027 -0.039 -0.09 -0.039 c -0.063 0 -0.09 -0.012 -0.09 -0.039 c 0 -0.02 -0.02 -0.039 -0.039 -0.039 c -0.023 0 -0.039 -0.023 -0.039 -0.051 c 0 -0.035 -0.016 -0.051 -0.051 -0.051 c -0.031 0 -0.051 -0.02 -0.051 -0.039 c 0 -0.02 -0.02 -0.039 -0.039 -0.039 c -0.023 0 -0.039 -0.016 -0.039 -0.039 c 0 -0.02 -0.023 -0.039 -0.051 -0.039 c -0.031 0 -0.055 -0.016 -0.055 -0.039 c 0 -0.02 -0.016 -0.035 -0.035 -0.035 c -0.023 0 -0.039 -0.023 -0.039 -0.055 c 0 -0.031 -0.02 -0.051 -0.055 -0.051 c -0.039 0 -0.051 -0.016 -0.051 -0.078 c 0 -0.051 -0.012 -0.074 -0.039 -0.074 c -0.027 0 -0.035 -0.035 -0.035 -0.129 c 0 -0.098 -0.012 -0.129 -0.039 -0.129 c -0.055 0 -0.055 -0.148 0 -0.199 c 0.02 -0.02 0.039 -0.078 0.039 -0.125 c 0 -0.063 0.012 -0.09 0.035 -0.09 c 0.027 0 0.039 -0.027 0.039 -0.09 c 0 -0.074 0.012 -0.09 0.051 -0.09 c 0.043 0 0.055 -0.02 0.055 -0.078 c 0 -0.051 0.012 -0.078 0.039 -0.078 c 0.023 0 0.035 -0.027 0.035 -0.09 c 0 -0.074 0.012 -0.09 0.055 -0.09 c 0.027 0 0.051 -0.016 0.051 -0.039 c 0 -0.02 0.016 -0.039 0.039 -0.039 c 0.023 0 0.039 -0.023 0.039 -0.078 c 0 -0.059 0.012 -0.074 0.051 -0.074 c 0.035 0 0.051 -0.02 0.051 -0.055 c 0 -0.027 0.016 -0.051 0.039 -0.051 c 0.023 0 0.039 -0.023 0.039 -0.078 c 0 -0.059 0.012 -0.074 0.051 -0.074 c 0.035 0 0.051 -0.02 0.051 -0.055 c 0 -0.027 0.016 -0.051 0.039 -0.051 c 0.027 0 0.039 -0.023 0.039 -0.078 c 0 -0.059 0.012 -0.074 0.051 -0.074 c 0.027 0 0.051 -0.02 0.051 -0.039 c 0 -0.023 0.02 -0.039 0.039 -0.039 c 0.023 0 0.039 -0.023 0.039 -0.051 c 0 -0.031 0.016 -0.055 0.039 -0.055 c 0.023 0 0.039 -0.023 0.039 -0.074 c 0 -0.063 0.012 -0.078 0.051 -0.078 c 0.027 0 0.051 -0.02 0.051 -0.039 c 0 -0.02 0.02 -0.039 0.039 -0.039 c 0.023 0 0.039 -0.023 0.039 -0.051 c 0 -0.035 0.016 -0.051 0.051 -0.051 c 0.027 0 0.051 -0.02 0.051 -0.039 c 0 -0.023 0.02 -0.039 0.039 -0.039 c 0.027 0 0.039 -0.027 0.039 -0.078 c 0 -0.059 0.012 -0.078 0.051 -0.078 c 0.035 0 0.051 -0.016 0.051 -0.051 c 0 -0.027 0.02 -0.051 0.039 -0.051 c 0.023 0 0.039 -0.02 0.039 -0.039 c 0 -0.02 0.023 -0.039 0.051 -0.039 c 0.031 0 0.055 -0.016 0.055 -0.039 c 0 -0.02 0.016 -0.039 0.035 -0.039 c 0.023 0 0.039 -0.02 0.039 -0.051 c 0 -0.027 0.02 -0.051 0.039 -0.051 c 0.02 0 0.043 -0.035 0.051 -0.078 c 0.012 -0.043 0.035 -0.078 0.055 -0.078 c 0.02 0 0.039 -0.016 0.039 -0.035 c 0 -0.023 0.016 -0.039 0.035 -0.039 c 0.023 0 0.039 -0.023 0.039 -0.055 c 0 -0.031 0.02 -0.051 0.055 -0.051 c 0.027 0 0.051 -0.016 0.051 -0.039 c 0 -0.02 0.016 -0.039 0.039 -0.039 c 0.02 0 0.035 -0.016 0.035 -0.035 c 0 -0.02 0.023 -0.039 0.055 -0.047 c 0.035 -0.012 0.051 -0.035 0.051 -0.094 c 0 -0.055 0.012 -0.082 0.039 -0.082 c 0.02 0 0.039 -0.016 0.039 -0.035 c 0 -0.023 0.02 -0.039 0.051 -0.039 c 0.027 0 0.051 -0.02 0.051 -0.039 c 0 -0.023 0.016 -0.039 0.039 -0.039 c 0.02 0 0.039 -0.023 0.039 -0.051 c 0 -0.035 0.016 -0.051 0.051 -0.051 c 0.027 0 0.051 -0.02 0.051 -0.039 c 0 -0.023 0.02 -0.039 0.039 -0.039 c 0.02 0 0.039 -0.02 0.039 -0.039 c 0 -0.023 0.023 -0.039 0.051 -0.039 c 0.027 0 0.051 -0.016 0.051 -0.039 c 0 -0.02 0.02 -0.039 0.039 -0.039 c 0.023 0 0.039 -0.023 0.039 -0.051 c 0 -0.035 0.016 -0.051 0.051 -0.051 c 0.031 0 0.051 -0.02 0.051 -0.039 c 0 -0.02 0.02 -0.039 0.039 -0.039 c 0.023 0 0.039 -0.023 0.039 -0.051 c 0 -0.027 0.02 -0.051 0.039 -0.051 c 0.027 0 0.039 -0.027 0.039 -0.078 c 0 -0.059 0.012 -0.078 0.051 -0.078 c 0.027 0 0.051 -0.016 0.051 -0.039 c 0 -0.02 0.02 -0.039 0.039 -0.039 c 0.023 0 0.039 -0.016 0.039 -0.039 c 0 -0.02 0.023 -0.035 0.051 -0.035 c 0.035 0 0.051 -0.02 0.051 -0.055 c 0 -0.027 0.02 -0.051 0.039 -0.051 c 0.023 0 0.039 -0.016 0.039 -0.039 c 0 -0.02 0.023 -0.039 0.051 -0.039 c 0.031 0 0.055 -0.016 0.055 -0.035 c 0 -0.023 0.016 -0.039 0.039 -0.039 c 0.02 0 0.035 -0.02 0.035 -0.039 c 0 -0.023 0.023 -0.039 0.055 -0.039 c 0.031 0 0.051 -0.02 0.051 -0.051 c 0 -0.031 0.016 -0.055 0.039 -0.055 c 0.02 0 0.039 -0.016 0.039 -0.035 c 0 -0.023 0.02 -0.039 0.051 -0.039 c 0.027 0 0.051 -0.02 0.051 -0.039 c 0 -0.023 0.016 -0.039 0.039 -0.039 c 0.02 0 0.039 -0.02 0.039 -0.039 c 0 -0.02 0.016 -0.039 0.039 -0.039 c 0.02 0 0.035 -0.023 0.035 -0.051 c 0 -0.035 0.02 -0.051 0.055 -0.051 c 0.027 0 0.051 -0.02 0.051 -0.039 c 0 -0.023 0.016 -0.039 0.039 -0.039 c 0.02 0 0.039 -0.016 0.039 -0.039 c 0 -0.02 0.02 -0.039 0.051 -0.039 c 0.035 0 0.051 -0.016 0.051 -0.051 c 0 -0.027 0.016 -0.051 0.039 -0.051 c 0.02 0 0.039 -0.02 0.039 -0.039 c 0 -0.023 0.023 -0.039 0.051 -0.039 c 0.027 0 0.051 -0.016 0.051 -0.039 c 0 -0.02 0.02 -0.039 0.039 -0.039 c 0.02 0 0.039 -0.016 0.039 -0.039 c 0 -0.02 0.023 -0.035 0.051 -0.035 c 0.035 0 0.051 -0.02 0.051 -0.055 c 0 -0.027 0.02 -0.051 0.039 -0.051 c 0.023 0 0.039 -0.016 0.039 -0.039 c 0 -0.02 0.023 -0.039 0.051 -0.039 c 0.031 0 0.051 -0.016 0.051 -0.035 c 0 -0.023 0.02 -0.039 0.039 -0.039 c 0.023 0 0.039 -0.02 0.039 -0.039 c 0 -0.023 0.02 -0.039 0.039 -0.039 c 0.023 0 0.039 -0.023 0.039 -0.051 c 0 -0.035 0.016 -0.055 0.051 -0.055 c 0.027 0 0.051 -0.016 0.051 -0.035 c 0 -0.023 0.02 -0.039 0.039 -0.039 c 0.023 0 0.039 -0.02 0.039 -0.039 c 0 -0.023 0.023 -0.039 0.051 -0.039 c 0.035 0 0.051 -0.016 0.051 -0.051 c 0 -0.031 0.02 -0.051 0.039 -0.051 c 0.023 0 0.039 -0.02 0.039 -0.039 c 0 -0.023 0.023 -0.039 0.051 -0.039 c 0.031 0 0.055 -0.02 0.055 -0.039 c 0 -0.023 0.016 -0.039 0.039 -0.039 c 0.02 0 0.035 -0.023 0.035 -0.055 c 0 -0.051 -0.008 -0.051 -0.336 -0.043 c -0.246 0.004 -0.344 0.016 -0.352 0.039 c -0.008 0.023 -0.098 0.031 -0.332 0.031 c -0.301 0 -0.32 0.004 -0.32 0.055 c 0 0.047 -0.016 0.051 -0.309 0.051 c -0.258 0 -0.309 0.004 -0.309 0.039 c 0 0.031 -0.051 0.039 -0.309 0.039 c -0.258 0 -0.309 0.004 -0.309 0.035 c 0 0.035 -0.086 0.039 -0.621 0.039 c -0.531 0 -0.617 -0.004 -0.617 -0.039 c 0 -0.023 -0.027 -0.035 -0.09 -0.035 c -0.063 0 -0.09 -0.012 -0.09 -0.039 c 0 -0.023 -0.023 -0.039 -0.051 -0.039 c -0.031 0 -0.055 -0.02 -0.055 -0.039 c 0 -0.023 -0.016 -0.039 -0.039 -0.039 c -0.02 0 -0.035 -0.023 -0.035 -0.051 c 0 -0.035 -0.02 -0.051 -0.055 -0.051 c -0.039 0 -0.051 -0.02 -0.051 -0.078 c 0 -0.051 -0.012 -0.078 -0.039 -0.078 c -0.027 0 -0.039 -0.031 -0.039 -0.109 c 0 -0.148 -0.023 -0.227 -0.066 -0.227 c -0.027 0 -0.035 -0.059 -0.035 -0.297 c 0 -0.234 0.008 -0.293 0.035 -0.293 c 0.043 0 0.066 -0.082 0.066 -0.227 c 0 -0.082 0.012 -0.109 0.039 -0.109 c 0.027 0 0.039 -0.027 0.039 -0.09 c 0 -0.074 0.012 -0.09 0.051 -0.09 c 0.031 0 0.055 -0.02 0.055 -0.039 c 0 -0.023 0.016 -0.039 0.035 -0.039 c 0.027 0 0.039 -0.027 0.039 -0.078 c 0 -0.074 0.004 -0.078 0.133 -0.078 c 0.109 0 0.133 -0.008 0.145 -0.051 c 0.012 -0.043 0.035 -0.051 0.18 -0.051 c 0.129 0 0.164 -0.008 0.164 -0.039 c 0 -0.031 0.047 -0.039 0.27 -0.039 c 0.223 0 0.27 -0.008 0.27 -0.039 c 0 -0.031 0.051 -0.039 0.309 -0.039 c 0.258 0 0.313 -0.004 0.313 -0.039 c 0 -0.031 0.051 -0.039 0.305 -0.039 c 0.328 0 0.391 -0.008 0.391 -0.066 c 0 -0.027 0.07 -0.035 0.371 -0.035 c 0.316 0 0.375 -0.004 0.375 -0.039 c 0 -0.031 0.07 -0.039 0.477 -0.039 c 0.406 0 0.477 -0.004 0.477 -0.039 c 0 -0.031 0.074 -0.035 0.504 -0.035 c 0.43 0 0.5 -0.008 0.5 -0.039 c 0 -0.035 0.074 -0.039 0.512 -0.039 c 0.535 0 0.625 -0.012 0.625 -0.07 c 0 -0.027 0.125 -0.035 0.719 -0.035 c 0.625 0 0.723 -0.004 0.723 -0.039 c 0 -0.031 0.141 -0.035 1.109 -0.035 c 0.969 0 1.109 -0.008 1.109 -0.039 c 0 -0.035 0.074 -0.039 0.527 -0.039 c 0.453 0 0.527 0.004 0.527 0.039 c 0 0.031 0.07 0.039 0.488 0.039 c 0.422 0 0.492 0.004 0.492 0.035 c 0 0.027 0.027 0.039 0.09 0.039 c 0.074 0 0.09 0.012 0.09 0.055 c 0 0.031 0.016 0.051 0.051 0.051 c 0.043 0 0.051 0.016 0.051 0.113 c 0 0.086 0.012 0.117 0.039 0.117 c 0.035 0 0.039 0.074 0.039 0.504 c 0 0.43 -0.004 0.5 -0.039 0.5 c -0.027 0 -0.039 0.031 -0.039 0.129 c 0 0.113 -0.004 0.129 -0.051 0.129 c -0.043 0 -0.051 0.02 -0.051 0.129 c 0 0.098 -0.008 0.129 -0.039 0.129 c -0.023 0 -0.039 0.027 -0.039 0.078 c 0 0.063 -0.012 0.078 -0.051 0.078 c -0.043 0 -0.051 0.016 -0.051 0.09 c 0 0.063 -0.012 0.09 -0.039 0.09 c -0.02 0 -0.039 0.02 -0.039 0.039 c 0 0.023 -0.023 0.039 -0.051 0.039 c -0.027 0 -0.051 0.016 -0.051 0.039 c 0 0.02 -0.02 0.039 -0.039 0.039 c -0.023 0 -0.039 0.023 -0.039 0.051 c 0 0.043 -0.016 0.051 -0.129 0.051 c -0.098 0 -0.129 0.012 -0.129 0.039 c 0 0.031 -0.039 0.039 -0.18 0.039 c -0.145 0 -0.18 0.008 -0.18 0.039 c 0 0.031 -0.211 0.039 -1.742 0.039 c -1.527 0 -1.738 0.004 -1.738 0.039 c 0 0.031 -0.059 0.035 -0.359 0.035 c -0.344 0 -0.363 0.004 -0.363 0.055 c 0 0.027 -0.016 0.051 -0.039 0.051 c -0.02 0 -0.039 0.016 -0.039 0.039 c 0 0.02 -0.02 0.039 -0.051 0.039 c -0.027 0 -0.051 0.016 -0.051 0.035 c 0 0.023 -0.016 0.039 -0.039 0.039 c -0.02 0 -0.039 0.023 -0.039 0.055 c 0 0.031 -0.016 0.051 -0.051 0.051 c -0.027 0 -0.051 0.016 -0.051 0.039 c 0 0.02 -0.02 0.039 -0.039 0.039 c -0.02 0 -0.039 0.016 -0.039 0.035 c 0 0.023 -0.016 0.039 -0.039 0.039 c -0.02 0 -0.039 0.023 -0.039 0.051 c 0 0.031 -0.016 0.055 -0.035 0.055 c -0.02 0 -0.043 0.035 -0.055 0.074 c -0.008 0.043 -0.031 0.078 -0.051 0.078 c -0.023 0 -0.039 0.02 -0.039 0.039 c 0 0.023 -0.023 0.039 -0.051 0.039 c -0.027 0 -0.051 0.016 -0.051 0.039 c 0 0.02 -0.02 0.039 -0.039 0.039 c -0.023 0 -0.039 0.023 -0.039 0.051 c 0 0.035 -0.016 0.051 -0.051 0.051 c -0.027 0 -0.051 0.02 -0.051 0.039 c 0 0.023 -0.02 0.039 -0.039 0.039 c -0.027 0 -0.039 0.027 -0.039 0.078 c 0 0.059 -0.012 0.078 -0.051 0.078 c -0.035 0 -0.051 0.016 -0.051 0.051 c 0 0.027 -0.02 0.051 -0.039 0.051 c -0.023 0 -0.039 0.016 -0.039 0.039 c 0 0.02 -0.023 0.039 -0.051 0.039 c -0.031 0 -0.055 0.016 -0.055 0.039 c 0 0.02 -0.016 0.039 -0.039 0.039 c -0.02 0 -0.035 0.02 -0.035 0.051 c 0 0.027 -0.02 0.051 -0.039 0.051 c -0.027 0 -0.039 0.023 -0.039 0.078 c 0 0.059 -0.012 0.074 -0.051 0.074 c -0.031 0 -0.055 0.02 -0.055 0.039 c 0 0.023 -0.016 0.039 -0.035 0.039 c -0.023 0 -0.039 0.023 -0.039 0.051 c 0 0.035 -0.02 0.055 -0.055 0.055 c -0.027 0 -0.051 0.016 -0.051 0.039 c 0 0.02 -0.016 0.035 -0.039 0.035 c -0.023 0 -0.035 0.027 -0.035 0.078 c 0 0.063 -0.012 0.078 -0.055 0.078 c -0.031 0 -0.051 0.016 -0.051 0.051 c 0 0.031 -0.016 0.051 -0.039 0.051 c -0.02 0 -0.039 0.02 -0.039 0.039 c 0 0.023 -0.02 0.039 -0.051 0.039 c -0.027 0 -0.051 0.02 -0.051 0.039 c 0 0.023 -0.016 0.039 -0.039 0.039 c -0.027 0 -0.039 0.027 -0.039 0.09 c 0 0.074 -0.008 0.09 -0.051 0.09 c -0.027 0 -0.051 0.02 -0.051 0.039 c 0 0.02 -0.02 0.039 -0.039 0.039 c -0.02 0 -0.039 0.016 -0.039 0.039 c 0 0.02 -0.016 0.039 -0.039 0.039 c -0.02 0 -0.039 0.023 -0.039 0.051 c 0 0.035 -0.016 0.051 -0.051 0.051 c -0.039 0 -0.051 0.016 -0.051 0.078 c 0 0.051 -0.012 0.078 -0.039 0.078 c -0.02 0 -0.039 0.016 -0.039 0.039 c 0 0.02 -0.023 0.035 -0.051 0.035 c -0.035 0 -0.051 0.02 -0.051 0.055 c 0 0.027 -0.02 0.051 -0.039 0.051 c -0.023 0 -0.039 0.023 -0.039 0.051 c 0 0.027 -0.016 0.051 -0.039 0.051 c -0.023 0 -0.047 0.031 -0.055 0.078 c -0.008 0.043 -0.031 0.078 -0.051 0.078 c -0.02 0 -0.035 0.016 -0.035 0.039 c 0 0.02 -0.023 0.039 -0.051 0.039 c -0.031 0 -0.051 0.016 -0.051 0.035 c 0 0.023 -0.02 0.039 -0.039 0.039 c -0.027 0 -0.039 0.027 -0.039 0.09 c 0 0.074 -0.012 0.094 -0.051 0.094 c -0.031 0 -0.055 0.016 -0.055 0.035 c 0 0.023 -0.016 0.039 -0.039 0.039 c -0.02 0 -0.035 0.02 -0.035 0.039 c 0 0.023 -0.02 0.039 -0.039 0.039 c -0.027 0 -0.039 0.027 -0.039 0.09 c 0 0.074 -0.012 0.09 -0.051 0.09 c -0.031 0 -0.055 0.02 -0.055 0.039 c 0 0.023 -0.016 0.039 -0.035 0.039 c -0.023 0 -0.039 0.02 -0.039 0.039 c 0 0.023 -0.023 0.039 -0.051 0.039 c -0.043 0 -0.055 0.016 -0.055 0.09 c 0 0.063 -0.012 0.09 -0.039 0.09 c -0.02 0 -0.035 0.02 -0.035 0.039 c 0 0.02 -0.023 0.039 -0.055 0.039 c -0.027 0 -0.051 0.016 -0.051 0.039 c 0 0.02 -0.016 0.039 -0.039 0.039 c -0.027 0 -0.039 0.027 -0.039 0.09 c 0 0.07 -0.008 0.09 -0.051 0.09 c -0.027 0 -0.051 0.016 -0.051 0.039 c 0 0.02 -0.016 0.039 -0.039 0.039 c -0.02 0 -0.039 0.016 -0.039 0.035 c 0 0.02 -0.023 0.039 -0.051 0.047 c -0.039 0.012 -0.051 0.035 -0.051 0.094 c 0 0.055 -0.012 0.082 -0.039 0.082 c -0.02 0 -0.039 0.016 -0.039 0.039 c 0 0.02 -0.023 0.035 -0.051 0.035 c -0.035 0 -0.051 0.02 -0.051 0.055 c 0 0.027 -0.012 0.051 -0.023 0.051 c -0.016 0 -0.031 0.035 -0.043 0.078 c -0.008 0.039 -0.031 0.074 -0.051 0.074 c -0.023 0 -0.039 0.02 -0.039 0.039 c 0 0.023 -0.023 0.039 -0.051 0.039 c -0.043 0 -0.051 0.02 -0.051 0.09 c 0 0.063 -0.012 0.09 -0.039 0.09 c -0.023 0 -0.039 0.02 -0.039 0.039 c 0 0.023 -0.023 0.039 -0.051 0.039 c -0.031 0 -0.051 0.02 -0.051 0.039 c 0 0.02 -0.02 0.039 -0.039 0.039 c -0.027 0 -0.039 0.027 -0.039 0.09 c 0 0.074 -0.012 0.09 -0.051 0.09 c -0.031 0 -0.055 0.02 -0.055 0.039 c 0 0.02 -0.016 0.039 -0.035 0.039 c -0.023 0 -0.039 0.023 -0.039 0.051 c 0 0.035 -0.02 0.051 -0.051 0.051 c -0.043 0 -0.055 0.02 -0.055 0.078 c 0 0.051 -0.012 0.078 -0.039 0.078 c -0.02 0 -0.035 0.016 -0.035 0.039 c 0 0.02 -0.023 0.039 -0.055 0.039 c -0.039 0 -0.051 0.016 -0.051 0.09 c 0 0.063 -0.012 0.09 -0.039 0.09 c -0.02 0 -0.039 0.016 -0.039 0.039 c 0 0.02 -0.016 0.039 -0.035 0.039 c -0.023 0 -0.039 0.016 -0.039 0.039 c 0 0.02 -0.023 0.035 -0.055 0.035 c -0.039 0 -0.051 0.02 -0.051 0.094 c 0 0.063 -0.012 0.09 -0.039 0.09 c -0.02 0 -0.039 0.016 -0.039 0.039 c 0 0.02 -0.02 0.035 -0.051 0.035 c -0.031 0 -0.051 0.02 -0.051 0.055 c 0 0.027 -0.016 0.051 -0.039 0.051 c -0.023 0 -0.039 0.023 -0.039 0.078 c 0 0.059 -0.012 0.074 -0.051 0.074 c -0.027 0 -0.051 0.02 -0.051 0.039 c 0 0.023 -0.016 0.039 -0.039 0.039 c -0.02 0 -0.039 0.023 -0.039 0.051 c 0 0.035 -0.016 0.055 -0.051 0.055 c -0.027 0 -0.051 0.016 -0.051 0.035 c 0 0.023 -0.02 0.039 -0.039 0.039 c -0.027 0 -0.039 0.027 -0.039 0.078 c 0 0.063 -0.012 0.078 -0.051 0.078 c -0.035 0 -0.051 0.016 -0.051 0.051 c 0 0.027 -0.02 0.051 -0.039 0.051 c -0.023 0 -0.039 0.02 -0.039 0.039 c 0 0.031 -0.051 0.039 -0.309 0.039 c -0.258 0 -0.309 -0.008 -0.309 -0.039"/></g></svg>