<svg xmlns="http://www.w3.org/2000/svg" viewBox="0 0 32 32"><path d="m 26.441 4.848 c 25.02 33.16 -43.824 37.867 -21.734 4.02 c 5.04 -7.715 15.11 -12.805 21.734 -4.02" fill="#778799"/><path d="m 14.367 7.262 c -0.203 0.023 -0.383 0.191 -0.422 0.395 l -0.406 2.074 c -0.73 0.285 -1.414 0.68 -2.02 1.164 l -2 -0.68 c -0.207 -0.074 -0.461 0.02 -0.57 0.211 l -1.93 3.359 c -0.109 0.191 -0.063 0.461 0.105 0.605 l 1.594 1.406 c -0.055 0.379 -0.09 0.758 -0.09 1.152 c 0 0.391 0.035 0.77 0.09 1.148 l -1.594 1.406 c -0.168 0.145 -0.215 0.414 -0.105 0.605 l 1.93 3.359 c 0.109 0.191 0.363 0.285 0.57 0.211 l 2 -0.68 c 0.602 0.484 1.285 0.879 2.02 1.164 l 0.406 2.074 c 0.043 0.219 0.246 0.391 0.469 0.395 h 3.852 c 0.219 -0.004 0.426 -0.176 0.465 -0.395 l 0.406 -2.07 c 0.73 -0.289 1.418 -0.684 2.02 -1.168 l 2 0.684 c 0.211 0.07 0.461 -0.023 0.574 -0.215 l 1.93 -3.359 c 0.109 -0.191 0.063 -0.457 -0.105 -0.605 l -1.598 -1.406 c 0.059 -0.375 0.09 -0.758 0.09 -1.148 c 0 -0.395 -0.031 -0.773 -0.09 -1.152 l 1.598 -1.406 c 0.168 -0.145 0.215 -0.41 0.105 -0.605 l -1.93 -3.359 c -0.109 -0.191 -0.363 -0.285 -0.57 -0.211 l -2 0.68 c -0.602 -0.484 -1.289 -0.879 -2.02 -1.164 l -0.406 -2.074 c -0.043 -0.219 -0.25 -0.391 -0.469 -0.395 h -3.852 c -0.016 0 -0.031 0 -0.047 0" fill="#5f7c89"/><g fill-opacity="0.2"><path d="m 14.316 7.262 c -0.207 0.023 -0.395 0.188 -0.43 0.391 l -0.418 2.051 c -0.75 0.285 -1.453 0.672 -2.07 1.152 l -2.051 -0.672 c -0.215 -0.074 -0.473 0.02 -0.59 0.207 l -1.977 3.324 c 0.027 0.047 0.066 0.082 0.109 0.121 l 0.078 0.059 l 1.789 -3.02 c 0.117 -0.188 0.375 -0.281 0.59 -0.211 l 2.051 0.676 c 0.617 -0.48 1.32 -0.871 2.07 -1.152 l 0.418 -2.051 c 0.039 -0.203 0.223 -0.367 0.43 -0.391 c 0.016 0 0.031 0 0.047 0 h 3.953 c 0.227 0.004 0.438 0.172 0.48 0.391 l 0.414 2.051 c 0.75 0.281 1.453 0.672 2.07 1.152 l 2.055 -0.676 c 0.211 -0.07 0.473 0.023 0.586 0.211 l 1.789 3.02 l 0.078 -0.059 c 0.043 -0.039 0.082 -0.074 0.109 -0.121 l -1.977 -3.324 c -0.113 -0.188 -0.375 -0.281 -0.586 -0.207 l -2.055 0.672 c -0.617 -0.48 -1.32 -0.867 -2.07 -1.152 l -0.414 -2.051 c -0.043 -0.215 -0.254 -0.387 -0.48 -0.391 h -3.953 c -0.016 0 -0.027 0 -0.043 0 m -7.582 6.766 c 0.008 0.059 0.016 0.117 0.043 0.168 c -0.023 -0.051 -0.035 -0.113 -0.043 -0.168 m 19.2 0 c -0.008 0.055 -0.016 0.117 -0.043 0.168 c 0.027 -0.051 0.035 -0.109 0.043 -0.168 m -17.461 2.113 c -0.016 0.152 -0.023 0.309 -0.031 0.465 c 0.004 0.078 0.012 0.156 0.016 0.238 c 0.012 -0.223 0.027 -0.441 0.063 -0.66 m 15.672 -0.043 l -0.047 0.043 c 0.031 0.219 0.047 0.438 0.063 0.66 c 0.004 -0.082 0.012 -0.16 0.016 -0.238 c -0.012 -0.156 -0.016 -0.313 -0.031 -0.465 m -15.719 1.887 l -1.59 1.348 c -0.043 0.035 -0.082 0.07 -0.109 0.117 l 0.188 0.301 l 1.559 -1.332 c -0.023 -0.145 -0.031 -0.289 -0.047 -0.434 m 15.719 0 c -0.016 0.145 -0.027 0.289 -0.047 0.434 l 1.559 1.332 l 0.184 -0.301 c -0.023 -0.047 -0.063 -0.082 -0.105 -0.117 l -1.594 -1.348 m -17.473 1.75 c 0 0.027 0.008 0.051 0.012 0.074 c -0.004 -0.023 -0.012 -0.047 -0.012 -0.074 m 19.234 0 c 0 0.027 -0.008 0.051 -0.016 0.074 c 0.008 -0.023 0.016 -0.047 0.016 -0.074" fill="#fff"/><path d="m 12.492 14.04 v 2.906 h 2.406 v 4.84 h 2.883 v -4.84 h 2.406 v -2.906"/></g><path d="m 12.492 13.559 v 2.906 h 2.406 v 4.84 h 2.883 v -4.84 h 2.406 v -2.906" fill="#fff"/><path d="m 7.02 13.777 l -0.004 0.008 c -0.109 0.191 -0.063 0.461 0.105 0.605 l 1.547 1.363 c 0.012 -0.148 0.027 -0.293 0.051 -0.441 l -1.598 -1.406 c -0.039 -0.035 -0.074 -0.078 -0.102 -0.129 m 18.633 0 c -0.027 0.047 -0.063 0.094 -0.102 0.129 l -1.598 1.406 c 0.023 0.145 0.039 0.293 0.051 0.441 l 1.547 -1.363 c 0.168 -0.145 0.215 -0.414 0.105 -0.605 m -17.02 2.922 c -0.004 0.082 -0.012 0.16 -0.012 0.242 c 0 0.242 0.02 0.477 0.043 0.711 l 0.051 -0.047 c -0.047 -0.297 -0.07 -0.598 -0.082 -0.906 m 15.398 0 c -0.012 0.309 -0.035 0.609 -0.078 0.906 l 0.051 0.047 c 0.023 -0.234 0.039 -0.469 0.039 -0.711 c 0 -0.082 -0.008 -0.16 -0.012 -0.242 m -17.02 2.93 c -0.078 0.145 -0.082 0.332 -0.004 0.477 l 1.93 3.359 c 0.113 0.191 0.363 0.285 0.574 0.211 l 2 -0.68 c 0.602 0.484 1.289 0.879 2.02 1.164 l 0.406 2.074 c 0.039 0.219 0.246 0.391 0.465 0.395 h 3.859 c 0.219 -0.004 0.426 -0.176 0.465 -0.395 l 0.406 -2.074 c 0.73 -0.285 1.418 -0.68 2.02 -1.164 l 2 0.68 c 0.211 0.074 0.461 -0.02 0.574 -0.211 l 1.926 -3.359 c 0.082 -0.145 0.078 -0.332 -0.004 -0.477 l -1.922 3.352 c -0.113 0.191 -0.363 0.285 -0.574 0.211 l -2 -0.68 c -0.602 0.484 -1.289 0.879 -2.02 1.164 l -0.406 2.074 c -0.039 0.219 -0.246 0.391 -0.465 0.395 h -3.859 c -0.219 -0.004 -0.426 -0.176 -0.465 -0.395 l -0.406 -2.074 c -0.73 -0.285 -1.414 -0.68 -2.02 -1.164 l -2 0.68 c -0.207 0.074 -0.461 -0.02 -0.574 -0.211 l -1.922 -3.352" fill-opacity="0.302"/></svg>