<svg xmlns="http://www.w3.org/2000/svg" viewBox="0 0 32 32" xmlns:xlink="http://www.w3.org/1999/xlink"><defs><path id="0" d="m 12.891 21.03 c -1.109 -0.059 -1.605 -0.254 -2.184 -0.859 c -0.582 -0.613 -0.738 -1.023 -0.738 -1.977 c 0 -0.766 0.023 -0.883 0.266 -1.316 c 0.297 -0.535 0.773 -0.98 1.367 -1.273 c 0.363 -0.18 0.527 -0.199 1.645 -0.191 c 0.684 0.004 1.332 0.047 1.449 0.094 c 0.207 0.086 0.203 0.09 -0.23 0.566 c -0.855 0.938 -1.176 1.676 -1.176 2.695 c 0 0.715 0.18 1.414 0.5 1.973 c 0.121 0.207 0.188 0.367 0.148 0.359 c -0.039 -0.008 -0.508 -0.039 -1.047 -0.07" fill="#9931cc"/></defs><g fill="#9931cc"><path d="m 28.488 24.512 c 11.41 -16.23 -9.664 -32.672 -23.11 -19.449 c -12.664 12.457 -0.922 31.816 14.836 25.766 c 3.289 -1.266 6.176 -3.336 8.27 -6.316"/><path d="m 12.03 21.02 c -0.793 -0.184 -1.504 -0.762 -1.902 -1.539 c -0.324 -0.637 -0.375 -1.59 -0.113 -2.277 c 0.266 -0.699 0.836 -1.309 1.527 -1.625 c 0.516 -0.234 0.637 -0.254 1.621 -0.254 c 0.922 0 1.813 0.133 1.813 0.266 c 0 0.023 -0.23 0.27 -0.516 0.551 c -0.781 0.762 -1.164 1.641 -1.164 2.688 c 0 0.594 0.266 1.516 0.57 1.965 l 0.219 0.324 l -0.859 -0.008 c -0.473 -0.008 -1.012 -0.047 -1.195 -0.09"/><path d="m 12.398 14.449 c -0.215 -0.113 -0.512 -0.375 -0.656 -0.586 c -0.234 -0.332 -0.266 -0.445 -0.266 -1.016 c 0 -0.539 0.035 -0.695 0.223 -0.969 c 0.457 -0.676 1.348 -1.01 2.074 -0.766 c 0.441 0.145 0.926 0.582 1.125 1.016 c 0.684 1.512 -1.027 3.098 -2.5 2.32"/></g><use xlink:href="#0"/><use xlink:href="#0"/><use xlink:href="#0"/><g fill="#9931cc"><path d="m 10.855 22.941 c -0.047 -0.238 -0.129 -0.469 -0.203 -0.703 c -0.094 -0.281 -0.191 -0.563 -0.293 -0.84 c -0.09 -0.277 -0.191 -0.547 -0.281 -0.82 c -0.059 -0.188 -0.133 -0.363 -0.199 -0.547 c -0.055 -0.164 -0.105 -0.324 -0.137 -0.496 c -0.027 -0.203 -0.023 -0.41 -0.023 -0.613 c -0.012 -0.227 -0.074 -0.445 -0.129 -0.66 c -0.063 -0.23 -0.141 -0.453 -0.207 -0.676 c -0.063 -0.199 -0.09 -0.406 -0.105 -0.617 c 0 -0.027 -0.004 -0.059 -0.004 -0.09 c 0 0 1.156 -0.594 1.156 -0.594 c 0 0.027 0 0.059 0.004 0.09 c 0.008 0.199 0.023 0.398 0.082 0.59 c 0.066 0.227 0.145 0.453 0.207 0.68 c 0.063 0.227 0.125 0.453 0.145 0.688 c 0.004 0.199 0.004 0.398 0.027 0.594 c 0.023 0.164 0.07 0.32 0.121 0.477 c 0.066 0.184 0.137 0.367 0.195 0.559 c 0.078 0.273 0.18 0.543 0.27 0.816 c 0.102 0.281 0.203 0.563 0.297 0.844 c 0.074 0.234 0.152 0.465 0.234 0.695 c 0 0 -1.156 0.625 -1.156 0.625"/><path d="m 13.16 22.574 c 0.012 -0.18 0.012 -0.355 -0.012 -0.531 c -0.035 -0.211 -0.168 -0.363 -0.309 -0.508 c -0.297 -0.262 -0.633 -0.477 -0.973 -0.68 c -0.309 -0.188 -0.625 -0.363 -0.918 -0.582 c -0.199 -0.16 -0.395 -0.336 -0.566 -0.527 c -0.098 -0.121 -0.051 -0.059 -0.141 -0.184 c 0 0 1.117 -0.656 1.117 -0.656 c 0.078 0.113 0.035 0.059 0.129 0.172 c 0.164 0.188 0.355 0.352 0.547 0.512 c 0.281 0.215 0.586 0.398 0.887 0.586 c 0.348 0.211 0.703 0.422 1.016 0.684 c 0.168 0.164 0.305 0.344 0.359 0.574 c 0.027 0.184 0.035 0.359 0.035 0.543 c 0 0 -1.172 0.598 -1.172 0.598"/><path d="m 11.742 22.06 c -0.031 -0.27 -0.176 -0.5 -0.313 -0.727 c -0.172 -0.266 -0.367 -0.52 -0.559 -0.773 c -0.137 -0.184 -0.27 -0.367 -0.371 -0.574 c -0.141 -0.285 -0.324 -0.547 -0.508 -0.805 c -0.125 -0.176 -0.066 -0.09 -0.176 -0.262 c 0 0 1.109 -0.645 1.109 -0.645 c 0.098 0.172 0.047 0.086 0.16 0.262 c 0.188 0.262 0.383 0.527 0.539 0.809 c 0.102 0.199 0.223 0.379 0.352 0.559 c 0.191 0.258 0.375 0.523 0.551 0.793 c 0.148 0.23 0.305 0.465 0.371 0.738 c 0 0 -1.156 0.625 -1.156 0.625"/><path d="m 10.148 20.359 c 0.016 -0.211 0.012 -0.426 0.012 -0.641 c 0 -0.254 0.004 -0.504 0.004 -0.758 c 0.004 -0.336 0.004 -0.676 0.004 -1.012 c 0 -0.32 0 -0.641 -0.004 -0.961 c 0 -0.262 -0.004 -0.523 -0.004 -0.785 c 0 -0.215 0 -0.434 -0.004 -0.648 c 0 0 1.156 -0.59 1.156 -0.59 c 0 0.219 0 0.438 -0.004 0.652 c 0.004 0.262 0 0.523 0 0.785 c -0.004 0.324 -0.004 0.645 -0.004 0.969 c 0 0.336 0 0.672 0.004 1.01 c 0 0.25 0.004 0.504 0.004 0.754 c 0 0.211 -0.004 0.422 0.008 0.629 c 0 0 -1.172 0.598 -1.172 0.598"/><path d="m 11.129 16.539 c 0.055 -0.207 0.105 -0.418 0.168 -0.629 c 0.094 -0.289 0.203 -0.578 0.313 -0.863 c 0.172 -0.422 0.289 -0.859 0.438 -1.289 c 0.109 -0.355 0.223 -0.711 0.324 -1.07 c 0 0 1.16 -0.547 1.16 -0.547 c -0.109 0.363 -0.242 0.719 -0.348 1.086 c -0.152 0.426 -0.266 0.859 -0.426 1.281 c -0.102 0.281 -0.191 0.57 -0.297 0.848 c -0.051 0.203 -0.121 0.406 -0.148 0.617 c 0 0 -1.184 0.566 -1.184 0.566"/><path d="m 10.949 16.465 c 0.023 -0.402 0.027 -0.805 0.035 -1.207 c 0.004 -0.652 0.008 -1.305 0 -1.957 c -0.004 -0.449 -0.023 -0.902 0.004 -1.348 c 0.012 -0.16 0.023 -0.32 0.043 -0.477 c 0 0 1.168 -0.566 1.168 -0.566 c -0.043 0.156 -0.043 0.316 -0.07 0.473 c -0.051 0.449 -0.039 0.902 -0.047 1.355 c -0.008 0.652 -0.004 1.305 0 1.957 c 0.008 0.391 0.012 0.781 0.035 1.172 c 0 0 -1.168 0.598 -1.168 0.598"/><path d="m 11.574 16.969 c 0.156 -0.242 0.27 -0.5 0.363 -0.77 c 0.129 -0.367 0.254 -0.73 0.363 -1.102 c 0.102 -0.32 0.141 -0.648 0.156 -0.98 c 0.016 -0.281 0.086 -0.555 0.133 -0.828 c 0.051 -0.363 0.055 -0.73 0.063 -1.094 c 0.004 -0.348 0.004 -0.691 -0.004 -1.039 c 0 0 1.133 -0.574 1.133 -0.574 c -0.004 0.344 -0.004 0.691 -0.004 1.039 c 0 0.367 0 0.734 -0.035 1.102 c -0.035 0.277 -0.113 0.543 -0.141 0.82 c -0.02 0.34 -0.055 0.68 -0.148 1.012 c -0.121 0.367 -0.234 0.738 -0.367 1.105 c -0.078 0.266 -0.172 0.527 -0.313 0.766 c 0 0 -1.199 0.543 -1.199 0.543"/><path d="m 11.746 13.797 c 0.02 -0.313 0.02 -0.621 0.02 -0.934 c 0 -0.375 0 -0.746 -0.004 -1.121 c -0.008 -0.25 -0.008 -0.5 -0.008 -0.75 c 0.012 -0.16 0.004 -0.082 0.023 -0.242 c 0 0 1.156 -0.57 1.156 -0.57 c -0.02 0.152 -0.012 0.078 -0.027 0.227 c 0 0.25 0 0.504 -0.008 0.754 c -0.004 0.379 -0.004 0.75 -0.004 1.129 c 0.004 0.305 0 0.609 0.02 0.914 c 0 0 -1.168 0.594 -1.168 0.594"/><path d="m 12.285 16.613 c 0.215 -0.281 0.367 -0.598 0.492 -0.93 c 0.137 -0.363 0.242 -0.734 0.344 -1.105 c 0.07 -0.25 0.129 -0.5 0.188 -0.75 c 0.055 -0.211 0.105 -0.422 0.152 -0.637 c 0.039 -0.188 0.055 -0.375 0.059 -0.566 c 0.004 -0.18 0.004 -0.355 0.004 -0.531 c 0 -0.09 0 -0.18 0 -0.266 c 0 0 1.156 -0.59 1.156 -0.59 c 0 0.086 0.004 0.176 0.004 0.266 c 0 0.176 0 0.355 -0.004 0.535 c -0.004 0.195 -0.016 0.395 -0.055 0.59 c -0.043 0.215 -0.094 0.43 -0.152 0.645 c -0.07 0.25 -0.113 0.508 -0.195 0.754 c -0.121 0.375 -0.219 0.758 -0.363 1.129 c -0.109 0.316 -0.227 0.648 -0.434 0.918 c 0 0 -1.195 0.539 -1.195 0.539"/><path d="m 13.07 12.04 c -0.004 -0.18 -0.063 -0.355 -0.117 -0.523 c -0.082 -0.293 -0.184 -0.578 -0.273 -0.867 c -0.086 -0.25 -0.172 -0.5 -0.27 -0.746 c 0 0 1.129 -0.629 1.129 -0.629 c 0.086 0.254 0.16 0.512 0.254 0.762 c 0.094 0.289 0.203 0.566 0.297 0.855 c 0.063 0.18 0.109 0.367 0.152 0.551 c 0 0 -1.168 0.598 -1.168 0.598"/><path d="m 13.176 15.984 c 0.121 -0.176 0.215 -0.371 0.313 -0.563 c 0.098 -0.203 0.176 -0.414 0.246 -0.629 c 0.074 -0.156 0.098 -0.328 0.148 -0.492 c 0.051 -0.172 0.066 -0.348 0.074 -0.523 c 0.012 -0.199 0.012 -0.398 0.008 -0.598 c 0 -0.184 0 -0.367 0 -0.555 c 0 -0.176 0 -0.355 0 -0.531 c 0.004 -0.195 -0.031 -0.391 -0.082 -0.582 c -0.039 -0.121 -0.02 -0.063 -0.063 -0.184 c 0 0 1.133 -0.629 1.133 -0.629 c 0.047 0.129 0.023 0.063 0.07 0.195 c 0.051 0.199 0.098 0.402 0.102 0.609 c 0 0.176 0 0.355 0 0.531 c 0 0.188 -0.004 0.371 -0.004 0.555 c 0 0.203 0.004 0.402 0 0.602 c -0.008 0.184 -0.02 0.371 -0.063 0.547 c -0.043 0.172 -0.082 0.348 -0.148 0.512 c -0.086 0.207 -0.141 0.434 -0.246 0.633 c -0.082 0.203 -0.211 0.379 -0.281 0.582 c 0 0 -1.207 0.52 -1.207 0.52"/><path d="m 14.04 14.34 c -0.027 -0.336 -0.133 -0.66 -0.234 -0.98 c -0.078 -0.262 -0.16 -0.52 -0.254 -0.773 c 0 0 1.113 -0.617 1.113 -0.617 c 0.086 0.262 0.16 0.523 0.242 0.785 c 0.109 0.316 0.219 0.637 0.289 0.969 c 0 0 -1.156 0.617 -1.156 0.617"/><path d="m 13.871 15.668 c 0.008 -0.18 0.008 -0.363 0.004 -0.543 c 0 -0.145 0.004 -0.293 -0.004 -0.441 c 0 0 1.164 -0.59 1.164 -0.59 c -0.004 0.148 0 0.297 -0.004 0.441 c 0 0.18 0 0.359 0.008 0.535 c 0 0 -1.168 0.598 -1.168 0.598"/><path d="m 14.14 14.34 c -0.016 -0.18 -0.047 -0.355 -0.063 -0.535 c -0.016 -0.188 -0.02 -0.371 -0.02 -0.559 c 0 0 1.156 -0.59 1.156 -0.59 c 0 0.184 0 0.367 0.012 0.547 c 0.016 0.184 0.035 0.363 0.086 0.539 c 0 0 -1.172 0.598 -1.172 0.598"/><path d="m 14.05 15.578 c 0.008 -0.18 0.008 -0.359 0.008 -0.539 c 0 0 1.156 -0.59 1.156 -0.59 c 0 0.18 -0.004 0.355 0.008 0.535 c 0 0 -1.172 0.594 -1.172 0.594"/><path d="m 14.922 15.16 c -2.16 1.18 -1.035 0.73 -0.766 0.34 c 0.047 -0.063 0.086 -0.129 0.109 -0.203 c 0 0 1.207 -0.527 1.207 -0.527 c -0.07 0.051 -0.066 0.148 -0.117 0.215 c -0.055 0.066 -0.086 0.145 -0.145 0.207 c -0.355 0.371 -1.293 0.051 -1.316 0.789 c 0 0 1.027 -0.82 1.027 -0.82"/><path d="m 12.898 16.184 c 0.047 -0.152 0.137 -0.293 0.219 -0.43 c 0.09 -0.125 0.152 -0.262 0.219 -0.398 c 0.047 -0.129 0.156 -0.207 0.254 -0.297 c 0.461 -0.305 0.93 -0.832 1.484 -0.793 c 0.168 0.07 0.223 0.258 0.285 0.418 c 0.07 0.188 0.098 0.387 0.113 0.586 c -0.004 0.113 0 0.059 -0.012 0.168 c 0 0 -1.172 0.57 -1.172 0.57 c 0.02 -0.094 0.012 -0.047 0.027 -0.141 c -0.008 -0.188 -0.023 -0.375 -0.09 -0.551 c -0.035 -0.09 -0.082 -0.285 -0.203 -0.273 c -0.039 0.016 -0.148 0.066 -0.117 0.047 c 1.883 -1.105 1.297 -0.742 0.898 -0.52 c -0.102 0.07 -0.195 0.156 -0.281 0.242 c -0.063 0.141 -0.117 0.293 -0.219 0.41 c -0.07 0.137 -0.16 0.258 -0.219 0.395 c 0 0 -1.188 0.566 -1.188 0.566"/></g><g fill="#f4f4f4"><path d="m 13.914 27.12 c -1.223 -0.195 -2.469 -0.922 -3.445 -2.01 c -1.16 -1.293 -1.461 -2.188 -1.469 -4.367 c -0.004 -1.48 0.039 -1.781 0.371 -2.559 c 0.523 -1.227 1.719 -2.758 2.434 -3.113 c 0.324 -0.164 0.59 -0.348 0.59 -0.414 c 0 -0.652 4.883 -0.902 6.391 -0.328 c 4.285 1.629 5.535 7.379 2.375 10.926 c -1.539 1.73 -4.063 2.379 -7.25 1.871"/><path d="m 15.05 12.984 c -2.172 -0.594 -3.336 -2.934 -2.402 -4.824 c 0.645 -1.313 1.652 -1.988 3.109 -2.086 c 1.227 -0.086 2.027 0.176 2.836 0.926 c 0.785 0.723 1.051 1.273 1.129 2.324 c 0.055 0.719 0.004 1.031 -0.254 1.602 c -0.734 1.633 -2.676 2.535 -4.418 2.059"/></g></svg>