<svg xmlns="http://www.w3.org/2000/svg" viewBox="0 0 32 32"><path d="m 6.77 28.777 c 23.621 15.773 38.17 -34.535 7.633 -27.875 c -12.617 2.84 -20.277 20.641 -7.633 27.875" fill="#dcdcdc"/><path d="m 8.238 16.17 v -8 h 16 v 16 h -16 m 3.25 -0.75 c 0 -0.07 -0.055 -0.125 -0.125 -0.125 c -0.066 0 -0.125 0.055 -0.125 0.125 c 0 0.066 0.059 0.125 0.125 0.125 c 0.07 0 0.125 -0.059 0.125 -0.125 m 1.875 0.07 c 0 -0.031 -0.055 -0.09 -0.125 -0.133 c -0.066 -0.043 -0.125 -0.02 -0.125 0.055 c 0 0.074 0.059 0.133 0.125 0.133 c 0.07 0 0.125 -0.027 0.125 -0.055 m 2.125 -0.141 c 0 -0.105 -0.055 -0.16 -0.125 -0.117 c -0.066 0.043 -0.125 0.129 -0.125 0.195 c 0 0.063 0.059 0.117 0.125 0.117 c 0.07 0 0.125 -0.09 0.125 -0.195 m 1.875 0.141 c 0 -0.031 -0.055 -0.09 -0.125 -0.133 c -0.066 -0.043 -0.125 -0.02 -0.125 0.055 c 0 0.074 0.059 0.133 0.125 0.133 c 0.07 0 0.125 -0.027 0.125 -0.055 m 2.125 -0.07 c 0 -0.07 -0.055 -0.125 -0.125 -0.125 c -0.066 0 -0.125 0.055 -0.125 0.125 c 0 0.066 0.059 0.125 0.125 0.125 c 0.07 0 0.125 -0.059 0.125 -0.125 m -4.898 -0.219 c -0.023 -0.121 -0.152 -0.219 -0.289 -0.219 c -0.133 0 -0.266 0.098 -0.289 0.219 c -0.031 0.164 0.043 0.219 0.289 0.219 c 0.25 0 0.32 -0.055 0.289 -0.219 m 3.773 -0.648 c 0 -0.066 -0.055 -0.152 -0.125 -0.195 c -0.066 -0.043 -0.125 0.008 -0.125 0.117 c 0 0.105 0.059 0.195 0.125 0.195 c 0.07 0 0.125 -0.055 0.125 -0.117 m -8 -0.57 c 0 -0.105 -0.055 -0.188 -0.125 -0.188 c -0.066 0 -0.125 0.082 -0.125 0.188 c 0 0.102 0.059 0.188 0.125 0.188 c 0.07 0 0.125 -0.086 0.125 -0.188 m 9.125 0 c 0 -0.105 -0.051 -0.188 -0.117 -0.188 c -0.156 0 -0.27 0.195 -0.172 0.293 c 0.145 0.141 0.289 0.086 0.289 -0.105 m -5.25 -0.82 c 0 -0.066 -0.082 -0.117 -0.188 -0.117 c -0.191 0 -0.246 0.148 -0.105 0.289 c 0.098 0.098 0.293 -0.016 0.293 -0.172 m -5.063 0.008 c 0.043 -0.07 0.02 -0.125 -0.055 -0.125 c -0.07 0 -0.133 0.055 -0.133 0.125 c 0 0.066 0.027 0.125 0.055 0.125 c 0.031 0 0.09 -0.059 0.133 -0.125 m 2.313 0 c 0 -0.07 -0.055 -0.125 -0.125 -0.125 c -0.066 0 -0.125 0.055 -0.125 0.125 c 0 0.066 0.059 0.125 0.125 0.125 c 0.07 0 0.125 -0.059 0.125 -0.125 m 1.813 0 c 0.043 -0.07 0.02 -0.125 -0.055 -0.125 c -0.07 0 -0.133 0.055 -0.133 0.125 c 0 0.066 0.027 0.125 0.055 0.125 c 0.031 0 0.09 -0.059 0.133 -0.125 m 2.188 0 c 0 -0.07 -0.055 -0.125 -0.125 -0.125 c -0.066 0 -0.125 0.055 -0.125 0.125 c 0 0.066 0.059 0.125 0.125 0.125 c 0.07 0 0.125 -0.059 0.125 -0.125 m 1.813 0 c 0.043 -0.07 0.02 -0.125 -0.055 -0.125 c -0.07 0 -0.133 0.055 -0.133 0.125 c 0 0.066 0.027 0.125 0.055 0.125 c 0.031 0 0.09 -0.059 0.133 -0.125 m 0.938 0 c 0 -0.07 -0.055 -0.125 -0.125 -0.125 c -0.066 0 -0.125 0.055 -0.125 0.125 c 0 0.066 0.059 0.125 0.125 0.125 c 0.07 0 0.125 -0.059 0.125 -0.125 m 1.25 0 c 0 -0.07 -0.059 -0.125 -0.133 -0.125 c -0.07 0 -0.098 0.055 -0.055 0.125 c 0.043 0.066 0.102 0.125 0.133 0.125 c 0.031 0 0.055 -0.059 0.055 -0.125 m -7.977 -2.918 c 0 -1.195 -0.043 -1.336 -0.387 -1.246 c -0.207 0.055 -0.223 0.113 -0.109 0.438 c 0.074 0.207 0.102 0.73 0.066 1.168 c -0.043 0.531 -0.016 0.813 0.078 0.848 c 0.277 0.105 0.352 -0.152 0.352 -1.207 m 6.04 -0.02 c 0 -0.816 -0.047 -1.203 -0.152 -1.242 c -0.25 -0.098 -0.305 0.137 -0.305 1.242 c 0 1.102 0.055 1.34 0.305 1.242 c 0.105 -0.039 0.152 -0.426 0.152 -1.242 m -7.5 0.781 c -0.047 -0.223 -0.191 -0.484 -0.324 -0.578 c -0.262 -0.191 -0.316 -0.758 -0.109 -1.148 c 0.113 -0.215 0.09 -0.242 -0.219 -0.242 h -0.348 v 2.375 h 1.082 m 3.23 -0.055 c 0 -0.031 -0.055 -0.09 -0.125 -0.133 c -0.066 -0.043 -0.125 -0.02 -0.125 0.055 c 0 0.074 0.059 0.133 0.125 0.133 c 0.07 0 0.125 -0.027 0.125 -0.055 m 0.875 -0.07 c 0 -0.07 -0.055 -0.125 -0.125 -0.125 c -0.066 0 -0.125 0.055 -0.125 0.125 c 0 0.066 0.059 0.125 0.125 0.125 c 0.07 0 0.125 -0.059 0.125 -0.125 m 1.25 0 c 0 -0.07 -0.055 -0.125 -0.125 -0.125 c -0.066 0 -0.125 0.055 -0.125 0.125 c 0 0.066 0.059 0.125 0.125 0.125 c 0.07 0 0.125 -0.059 0.125 -0.125 m 4 0 c 0 -0.07 -0.023 -0.125 -0.055 -0.125 c -0.031 0 -0.09 0.055 -0.133 0.125 c -0.043 0.066 -0.016 0.125 0.055 0.125 c 0.074 0 0.133 -0.059 0.133 -0.125 m 1.875 0.07 c 0 -0.031 -0.055 -0.09 -0.125 -0.133 c -0.066 -0.043 -0.125 -0.02 -0.125 0.055 c 0 0.074 0.059 0.133 0.125 0.133 c 0.07 0 0.125 -0.027 0.125 -0.055 m 0.875 -0.07 c 0 -0.07 -0.055 -0.125 -0.125 -0.125 c -0.066 0 -0.125 0.055 -0.125 0.125 c 0 0.066 0.059 0.125 0.125 0.125 c 0.07 0 0.125 -0.059 0.125 -0.125 m 1.375 0 c 0 -0.07 -0.023 -0.125 -0.055 -0.125 c -0.031 0 -0.09 0.055 -0.133 0.125 c -0.043 0.066 -0.016 0.125 0.055 0.125 c 0.074 0 0.133 -0.059 0.133 -0.125 m -1.25 -1.383 c 0 -0.066 -0.055 -0.117 -0.125 -0.117 c -0.066 0 -0.125 0.086 -0.125 0.195 c 0 0.105 0.059 0.16 0.125 0.117 c 0.07 -0.043 0.125 -0.133 0.125 -0.195 m -9.06 -0.742 c 0.043 -0.07 0.02 -0.125 -0.055 -0.125 c -0.074 0 -0.133 0.055 -0.133 0.125 c 0 0.066 0.027 0.125 0.055 0.125 c 0.031 0 0.09 -0.059 0.133 -0.125 m 0.938 0 c 0 -0.07 -0.055 -0.125 -0.125 -0.125 c -0.066 0 -0.125 0.055 -0.125 0.125 c 0 0.066 0.059 0.125 0.125 0.125 c 0.07 0 0.125 -0.059 0.125 -0.125 m 1.25 0 c 0 -0.07 -0.055 -0.125 -0.125 -0.125 c -0.066 0 -0.125 0.055 -0.125 0.125 c 0 0.066 0.059 0.125 0.125 0.125 c 0.07 0 0.125 -0.059 0.125 -0.125 m 4 0 c 0 -0.07 -0.059 -0.125 -0.133 -0.125 c -0.07 0 -0.098 0.055 -0.055 0.125 c 0.043 0.066 0.102 0.125 0.133 0.125 c 0.031 0 0.055 -0.059 0.055 -0.125 m 1.813 0 c 0.043 -0.07 0.02 -0.125 -0.055 -0.125 c -0.074 0 -0.133 0.055 -0.133 0.125 c 0 0.066 0.027 0.125 0.055 0.125 c 0.031 0 0.09 -0.059 0.133 -0.125 m 2.313 0 c 0 -0.07 -0.055 -0.125 -0.125 -0.125 c -0.066 0 -0.125 0.055 -0.125 0.125 c 0 0.066 0.059 0.125 0.125 0.125 c 0.07 0 0.125 -0.059 0.125 -0.125 m -12.1 -2.918 c 0 -1.16 -0.055 -1.359 -0.344 -1.25 c -0.152 0.059 -0.172 0.25 -0.113 1.047 c 0.047 0.621 0.023 1 -0.059 1.055 c -0.199 0.121 -0.16 0.293 0.086 0.348 c 0.367 0.082 0.43 -0.09 0.43 -1.199 m 2.078 0.781 c -0.129 -0.375 -0.09 -1.398 0.07 -1.754 c 0.066 -0.145 0.02 -0.223 -0.164 -0.27 c -0.363 -0.094 -0.406 0.035 -0.406 1.223 c 0 1.176 0.047 1.316 0.387 1.227 c 0.207 -0.055 0.223 -0.113 0.113 -0.426 m 1.922 -0.781 c 0 -0.59 -0.035 -1.125 -0.078 -1.195 c -0.145 -0.234 -0.445 0.008 -0.43 0.344 c 0.012 0.184 0.004 0.387 -0.02 0.457 c -0.02 0.066 0.008 0.277 0.059 0.465 c 0.055 0.191 0.039 0.508 -0.031 0.711 c -0.109 0.313 -0.094 0.379 0.078 0.418 c 0.359 0.082 0.422 -0.094 0.422 -1.199 m 2.523 0.652 c -0.051 -0.309 -0.02 -0.551 0.078 -0.672 c 0.133 -0.16 0.109 -0.188 -0.156 -0.188 c -0.359 0 -0.469 -0.188 -0.383 -0.648 c 0.066 -0.328 -0.25 -0.594 -0.406 -0.34 c -0.094 0.152 -0.102 2.18 -0.012 2.332 c 0.039 0.059 0.27 0.082 0.512 0.055 c 0.441 -0.051 0.445 -0.055 0.367 -0.539 m 1.488 0.137 c -0.078 -0.301 -0.137 -0.305 -0.43 -0.039 c -0.289 0.258 -0.289 0.387 -0.012 0.449 c 0.313 0.07 0.52 -0.125 0.441 -0.41 m -9.988 -0.551 c -0.039 -0.559 -0.008 -1.035 0.074 -1.188 c 0.125 -0.23 0.102 -0.258 -0.211 -0.258 h -0.348 v 1.188 c 0 1.133 0.012 1.188 0.273 1.188 c 0.258 0 0.27 -0.043 0.211 -0.93 m 11.828 0.805 c 0 -0.07 -0.055 -0.125 -0.125 -0.125 c -0.066 0 -0.125 0.055 -0.125 0.125 c 0 0.066 0.059 0.125 0.125 0.125 c 0.07 0 0.125 -0.059 0.125 -0.125 m 2.25 0 c 0 -0.07 -0.055 -0.125 -0.125 -0.125 c -0.066 0 -0.125 0.055 -0.125 0.125 c 0 0.066 0.059 0.125 0.125 0.125 c 0.07 0 0.125 -0.059 0.125 -0.125 m -2.176 -1.266 c 0.047 -0.078 0.129 -0.324 0.18 -0.551 c 0.074 -0.34 0.051 -0.426 -0.133 -0.473 c -0.332 -0.086 -0.445 0.102 -0.391 0.66 c 0.047 0.496 0.176 0.633 0.344 0.363 m 2.051 -0.094 c 0 -0.063 0.035 -0.285 0.078 -0.5 c 0.074 -0.371 0.059 -0.391 -0.316 -0.391 c -0.352 0 -0.379 0.027 -0.266 0.242 c 0.07 0.133 0.129 0.355 0.129 0.5 c 0 0.145 0.082 0.258 0.188 0.258 c 0.105 0 0.188 -0.051 0.188 -0.109 m -4 -0.766 c 0 -0.07 -0.055 -0.125 -0.125 -0.125 c -0.066 0 -0.125 0.055 -0.125 0.125 c 0 0.066 0.059 0.125 0.125 0.125 c 0.07 0 0.125 -0.059 0.125 -0.125 m -7.977 -3.059 c -0.031 -1 -0.07 -1.199 -0.23 -1.168 c -0.156 0.031 -0.195 0.273 -0.211 1.258 c -0.012 0.715 0.035 1.238 0.105 1.262 c 0.297 0.109 0.375 -0.199 0.336 -1.352 m 2.227 1.176 c 0 -0.059 -0.055 -0.137 -0.125 -0.18 c -0.07 -0.047 -0.109 -0.52 -0.094 -1.098 c 0.027 -0.875 0.004 -1.027 -0.176 -1.063 c -0.184 -0.039 -0.215 0.113 -0.25 1.16 c -0.023 0.66 0.004 1.246 0.063 1.305 c 0.125 0.121 0.582 0.023 0.582 -0.125 m 1.773 -1.176 c -0.035 -1.027 -0.07 -1.203 -0.238 -1.168 c -0.164 0.031 -0.203 0.254 -0.227 1.227 c -0.02 0.754 0.023 1.219 0.109 1.273 c 0.305 0.191 0.395 -0.152 0.355 -1.332 m 2.078 0.918 c -0.07 -0.199 -0.082 -0.52 -0.031 -0.707 c 0.055 -0.188 0.078 -0.398 0.059 -0.465 c -0.023 -0.07 -0.047 -0.293 -0.051 -0.5 c -0.012 -0.242 -0.086 -0.387 -0.223 -0.414 c -0.184 -0.035 -0.215 0.117 -0.25 1.164 c -0.043 1.25 0.016 1.449 0.395 1.348 c 0.195 -0.051 0.211 -0.113 0.102 -0.426 m 1.922 -0.918 c -0.035 -1.051 -0.066 -1.203 -0.25 -1.168 c -0.176 0.035 -0.203 0.176 -0.168 0.914 c 0.023 0.48 -0.016 1.023 -0.086 1.211 c -0.109 0.277 -0.094 0.344 0.082 0.383 c 0.398 0.09 0.465 -0.113 0.422 -1.34 m 2.727 1.176 c 0 -0.133 -0.324 -0.305 -0.766 -0.41 c -0.258 -0.063 -0.344 -0.027 -0.391 0.156 c -0.035 0.133 -0.016 0.289 0.043 0.348 c 0.137 0.133 1.113 0.051 1.113 -0.094 m -12.168 -0.148 c -0.043 -0.156 -0.078 -0.691 -0.078 -1.188 l -0.004 -0.906 h -0.875 v 0.906 c 0 0.496 -0.035 1.031 -0.078 1.188 c -0.07 0.262 -0.035 0.281 0.516 0.281 c 0.555 0 0.59 -0.02 0.52 -0.281 m 13.543 0.031 c 0 -0.281 -0.355 -0.344 -0.598 -0.102 c -0.242 0.242 -0.176 0.352 0.223 0.352 c 0.293 0 0.375 -0.055 0.375 -0.25 m -0.125 -1.5 c 0 -0.207 0.016 -0.418 0.031 -0.469 c 0.02 -0.051 -0.098 -0.113 -0.254 -0.137 c -0.254 -0.035 -0.277 0 -0.207 0.313 c 0.125 0.578 0.168 0.668 0.301 0.668 c 0.074 0 0.129 -0.168 0.129 -0.375 m -2.023 -0.152 c 0.242 -0.238 0.184 -0.598 -0.102 -0.598 c -0.191 0 -0.25 0.082 -0.25 0.375 c 0 0.398 0.109 0.469 0.352 0.223" fill="#b2afad"/><path d="m 8.238 16.17 v -8 h 16 v 16 h -16 m 3.348 -1.848 l 0.035 -1.41 l -2.82 0.07 l -0.035 1.207 c -0.047 1.602 -0.02 1.625 1.582 1.578 l 1.203 -0.035 m -1.031 -0.445 c -0.336 -0.133 -0.383 -0.672 -0.082 -1.01 c 0.184 -0.199 0.184 -0.246 0.012 -0.492 c -0.254 -0.363 -0.137 -0.617 0.289 -0.617 c 0.512 0 0.645 0.246 0.602 1.129 c -0.043 0.883 -0.297 1.191 -0.82 0.988 m -1.277 -0.234 c -0.203 -0.379 -0.16 -1.461 0.07 -1.688 c 0.105 -0.105 0.215 -0.195 0.238 -0.195 c 0.027 0 0.133 0.09 0.242 0.195 c 0.125 0.129 0.195 0.422 0.195 0.82 c 0 0.691 -0.164 1.109 -0.438 1.109 c -0.098 0 -0.234 -0.109 -0.309 -0.242 m 6.352 0.254 l 0.039 -0.43 l -0.332 0.219 c -0.324 0.211 -0.344 0.211 -0.613 -0.039 c -0.348 -0.328 -0.426 -0.328 -0.777 0.004 c -0.484 0.453 -0.672 0.242 -0.672 -0.766 c 0 -0.957 0.129 -1.141 0.621 -0.879 c 0.215 0.113 0.324 0.094 0.59 -0.117 c 0.289 -0.227 0.359 -0.238 0.59 -0.086 c 0.145 0.094 0.281 0.293 0.305 0.438 c 0.066 0.465 0.27 0.293 0.27 -0.23 v -0.5 h -2.625 v 1.352 c 0 0.746 0.031 1.387 0.07 1.426 c 0.039 0.039 0.617 0.063 1.281 0.051 l 1.211 -0.016 m 4.04 -1.406 l 0.035 -1.406 h -2.633 v 1.355 c 0 0.742 0.039 1.391 0.09 1.441 c 0.047 0.047 0.625 0.07 1.281 0.051 l 1.191 -0.035 m -1.18 -0.492 c -0.133 -0.16 -0.125 -0.25 0.051 -0.52 c 0.203 -0.313 0.203 -0.336 -0.047 -0.566 c -0.313 -0.293 -0.316 -0.348 -0.066 -0.707 c 0.219 -0.313 0.777 -0.375 0.883 -0.102 c 0.035 0.098 0 0.301 -0.078 0.449 c -0.121 0.23 -0.102 0.32 0.137 0.574 l 0.285 0.305 l -0.254 0.34 c -0.297 0.402 -0.688 0.496 -0.91 0.227 m -0.988 -0.055 c -0.242 -0.156 -0.238 -1.602 0.008 -1.848 c 0.168 -0.164 0.211 -0.164 0.395 0.02 c 0.34 0.344 0.223 1.941 -0.145 1.934 c -0.047 0 -0.164 -0.047 -0.258 -0.105 m -5.77 -4.957 v -1.316 l -2.805 0.07 l -0.008 1.188 c -0.004 0.652 0.012 1.23 0.035 1.281 c 0.023 0.051 0.66 0.094 1.41 0.094 h 1.367 m -1.371 -0.492 c -0.07 -0.133 -0.129 -0.309 -0.129 -0.387 c 0 -0.078 -0.109 -0.289 -0.25 -0.461 c -0.301 -0.383 -0.313 -0.578 -0.051 -0.84 c 0.211 -0.211 0.641 -0.254 0.898 -0.09 c 0.219 0.137 0.336 1.43 0.16 1.758 c -0.176 0.328 -0.457 0.336 -0.629 0.02 m 5.371 -0.82 v -1.313 h -2.625 v 2.625 h 2.625 m -2.254 -0.445 c -0.219 -0.262 -0.191 -1.535 0.035 -1.762 c 0.164 -0.164 0.207 -0.164 0.387 0.016 c 0.191 0.191 0.27 1.098 0.133 1.586 c -0.082 0.289 -0.379 0.375 -0.555 0.16 m 1.031 0.047 c -0.086 -0.086 -0.152 -0.488 -0.152 -0.914 c 0 -0.809 0.137 -1.063 0.563 -1.063 c 0.43 0 0.563 0.254 0.563 1.063 c 0 0.809 -0.133 1.063 -0.563 1.063 c -0.145 0 -0.328 -0.066 -0.41 -0.148 m 5.223 -0.914 v -1.313 h -2.625 v 2.625 h 2.625 m -1.871 -0.492 c -0.27 -0.508 -0.094 -1.883 0.242 -1.883 c 0.305 0 0.508 0.426 0.508 1.063 c 0 0.895 -0.445 1.383 -0.746 0.82 m 1.074 0.055 c -0.141 -0.141 -0.207 -0.422 -0.207 -0.875 c 0 -0.453 0.066 -0.734 0.207 -0.875 c 0.336 -0.34 0.574 0.023 0.574 0.875 c 0 0.852 -0.238 1.211 -0.574 0.875 m 4.98 -0.875 v -1.25 l -2.813 -0.07 v 2.641 l 2.813 -0.07 m -1.387 -0.379 c -0.367 -0.367 -0.371 -0.48 -0.035 -0.793 c 0.242 -0.227 0.246 -0.27 0.07 -0.52 c -0.254 -0.363 -0.137 -0.621 0.285 -0.621 c 0.344 0 0.754 0.328 0.754 0.602 c 0 0.082 -0.117 0.266 -0.258 0.41 c -0.246 0.246 -0.25 0.27 -0.047 0.492 c 0.473 0.527 -0.262 0.938 -0.77 0.43 m -1.051 0.004 c -0.164 -0.199 -0.215 -1.438 -0.07 -1.676 c 0.129 -0.203 0.535 -0.164 0.621 0.063 c 0.152 0.398 0.078 1.406 -0.121 1.605 c -0.238 0.238 -0.234 0.238 -0.43 0.008 m -9.75 -4.879 v -1.316 l -1.402 0.035 l -1.398 0.035 l -0.012 1.188 c -0.004 0.652 0.012 1.23 0.035 1.281 c 0.023 0.051 0.66 0.094 1.41 0.094 h 1.367 m -1.828 -0.441 c -0.043 -0.105 0.027 -0.305 0.148 -0.441 c 0.219 -0.242 0.219 -0.258 -0.047 -0.441 c -0.527 -0.367 -0.207 -1.051 0.492 -1.051 c 0.457 0 0.594 0.297 0.289 0.633 c -0.215 0.242 -0.215 0.254 0.051 0.441 c 0.32 0.223 0.352 0.578 0.074 0.855 c -0.254 0.254 -0.914 0.254 -1.01 0.004 m 5.828 -0.871 v -1.313 h -2.625 v 2.625 h 2.625 m -1.723 -0.359 c -0.09 -0.055 -0.195 -0.438 -0.23 -0.852 c -0.078 -0.867 0.105 -1.164 0.719 -1.164 c 0.438 0 0.598 0.293 0.324 0.598 c -0.176 0.195 -0.172 0.242 0.047 0.508 c 0.293 0.359 0.301 0.563 0.043 0.824 c -0.211 0.211 -0.641 0.254 -0.902 0.086 m 5.723 -0.953 v -1.313 h -2.625 v 2.625 h 2.625 m -1.348 -0.402 c -0.219 -0.219 -0.184 -0.52 0.098 -0.844 c 0.262 -0.305 0.219 -0.566 -0.074 -0.453 c -0.273 0.105 -0.551 -0.055 -0.551 -0.316 c 0 -0.297 0.449 -0.484 0.945 -0.395 c 0.551 0.102 0.68 0.262 0.68 0.848 c 0 0.418 -0.078 0.621 -0.359 0.926 c -0.398 0.426 -0.516 0.461 -0.738 0.238 m 5.535 -0.914 v -1.25 l -2.813 -0.07 v 2.641 l 2.813 -0.07 m -2.48 -0.453 c -0.207 -0.297 -0.152 -0.566 0.191 -0.895 c 0.125 -0.125 0.227 -0.363 0.227 -0.531 c 0 -0.219 0.086 -0.324 0.305 -0.379 c 0.477 -0.121 0.82 0.043 0.82 0.391 c 0 0.172 0.141 0.426 0.313 0.578 c 0.672 0.582 0.242 1.102 -0.906 1.102 c -0.637 0 -0.797 -0.043 -0.949 -0.266 m 1.262 -0.578 c 0.035 -0.098 -0.066 -0.156 -0.27 -0.156 c -0.316 0 -0.41 0.121 -0.234 0.297 c 0.129 0.129 0.445 0.039 0.504 -0.141 m -10.996 -4.313 l -0.035 -1.406 h -1.227 c -0.676 0 -1.289 0.035 -1.359 0.078 c -0.121 0.074 -0.227 2.566 -0.113 2.68 c 0.031 0.031 0.668 0.055 1.414 0.055 h 1.355 m -1.379 -0.492 c -0.07 -0.133 -0.129 -0.547 -0.129 -0.922 c 0 -0.766 0.238 -1.109 0.605 -0.879 c 0.254 0.156 0.355 1.402 0.148 1.789 c -0.172 0.32 -0.457 0.324 -0.625 0.012 m 5.344 -0.914 l -0.035 -1.406 h -2.5 l -0.07 2.813 h 2.641 m -1.809 -0.445 c -0.277 -0.277 -0.246 -0.633 0.074 -0.855 c 0.266 -0.188 0.266 -0.199 0.047 -0.441 c -0.406 -0.449 0.039 -0.918 0.625 -0.652 c 0.445 0.203 0.543 0.754 0.184 1.043 c -0.273 0.223 -0.277 0.242 -0.066 0.473 c 0.121 0.137 0.188 0.332 0.145 0.438 c -0.098 0.25 -0.754 0.25 -1.01 -0.004 m 5.773 -0.961 l -0.035 -1.406 h -2.5 l -0.07 2.813 h 2.641 m -1.809 -0.445 c -0.262 -0.262 -0.25 -0.465 0.043 -0.824 c 0.223 -0.273 0.223 -0.309 0.035 -0.52 c -0.453 -0.504 0.367 -0.945 0.852 -0.457 c 0.238 0.234 0.262 0.367 0.203 1.027 c -0.035 0.418 -0.141 0.805 -0.23 0.859 c -0.262 0.168 -0.691 0.125 -0.902 -0.086 m 5.992 -0.848 c 0 -0.676 -0.043 -1.293 -0.09 -1.375 c -0.059 -0.094 -0.535 -0.145 -1.379 -0.145 h -1.285 l -0.07 2.82 l 2.82 -0.07 v -1.23 m -1.633 0.785 c -0.203 -0.133 -0.461 -0.242 -0.578 -0.242 c -0.215 0 -0.426 -0.426 -0.367 -0.734 c 0.02 -0.094 0.227 -0.367 0.457 -0.609 c 0.344 -0.352 0.488 -0.422 0.746 -0.355 c 0.18 0.043 0.355 0.18 0.391 0.297 c 0.102 0.328 0.277 0.691 0.449 0.926 c 0.121 0.172 0.105 0.262 -0.094 0.48 c -0.41 0.453 -0.605 0.5 -1 0.238" fill="#8c8d8e"/><path d="m 9.465 24.07 c 0.43 -0.023 1.105 -0.023 1.5 0 c 0.391 0.027 0.039 0.047 -0.789 0.047 c -0.824 0 -1.145 -0.023 -0.711 -0.047 m 4.184 0 c 0.398 -0.023 1.02 -0.023 1.375 0 c 0.359 0.027 0.035 0.047 -0.723 0.047 c -0.754 0 -1.047 -0.02 -0.652 -0.047 m 4 0 c 0.398 -0.023 1.02 -0.023 1.375 0 c 0.359 0.027 0.035 0.047 -0.723 0.047 c -0.754 0 -1.047 -0.02 -0.652 -0.047 m -5.937 -1.688 l -0.035 -1.531 l -3.125 -0.125 v -1 l 3.125 -0.125 v -2.75 l -3.125 -0.125 v -1 l 3.125 -0.125 v -2.75 l -3.125 -0.125 v -1 l 3.125 -0.125 l 0.125 -3.125 h 1 l 0.125 3.125 h 2.75 l 0.125 -3.125 h 1 l 0.125 3.125 h 2.75 l 0.125 -3.125 h 1 l 0.125 3.125 l 3.063 0.07 v 1.109 l -3.063 0.07 v 2.75 l 3.063 0.07 v 1.109 l -3.063 0.07 v 2.75 l 3.07 0.07 l -0.07 4.18 l -2.09 0.035 l -2.09 0.031 l -0.035 -1.531 l -0.035 -1.535 h -2.75 l -0.07 3.063 h -1.117 v -0.5 c 0 -0.555 -0.063 -0.594 -0.48 -0.301 c -0.27 0.188 -0.305 0.184 -0.566 -0.063 c -0.352 -0.328 -0.43 -0.328 -0.781 0.004 c -0.484 0.453 -0.672 0.238 -0.672 -0.766 c 0 -0.957 0.129 -1.141 0.621 -0.879 c 0.215 0.113 0.32 0.094 0.59 -0.117 c 0.289 -0.227 0.359 -0.238 0.59 -0.086 c 0.141 0.094 0.289 0.301 0.324 0.461 c 0.039 0.16 0.141 0.313 0.23 0.344 c 0.117 0.039 0.148 -0.105 0.121 -0.555 l -0.039 -0.605 h -2.75 l -0.07 3.063 h -1.109 m 3.93 -5.688 v -1.375 h -2.75 l -0.035 1.242 c -0.02 0.68 -0.008 1.316 0.027 1.41 c 0.051 0.129 0.371 0.16 1.414 0.133 l 1.344 -0.035 m -2.32 -0.508 c -0.207 -0.25 -0.191 -1.535 0.023 -1.75 c 0.305 -0.305 0.543 -0.004 0.566 0.719 c 0.012 0.367 -0.004 0.758 -0.035 0.871 c -0.078 0.289 -0.375 0.375 -0.555 0.16 m 1.035 0.043 c -0.086 -0.082 -0.152 -0.484 -0.152 -0.91 c 0 -0.809 0.133 -1.063 0.563 -1.063 c 0.43 0 0.563 0.254 0.563 1.063 c 0 0.809 -0.133 1.063 -0.563 1.063 c -0.145 0 -0.328 -0.066 -0.41 -0.152 m 5.285 -0.91 v -1.375 h -2.75 l -0.035 1.242 c -0.02 0.68 -0.008 1.316 0.027 1.41 c 0.051 0.129 0.371 0.16 1.414 0.133 l 1.344 -0.035 m -1.934 -0.555 c -0.27 -0.508 -0.094 -1.883 0.242 -1.883 c 0.301 0 0.504 0.426 0.504 1.063 c 0 0.895 -0.441 1.383 -0.746 0.82 m 1.078 0.055 c -0.141 -0.141 -0.207 -0.422 -0.207 -0.875 c 0 -0.457 0.066 -0.734 0.207 -0.875 c 0.336 -0.34 0.574 0.023 0.574 0.875 c 0 0.852 -0.238 1.211 -0.574 0.875 m -3.145 -4.875 v -1.375 h -2.75 l -0.035 1.242 c -0.02 0.68 -0.008 1.316 0.027 1.41 c 0.051 0.129 0.371 0.16 1.414 0.133 l 1.344 -0.035 m -1.785 -0.422 c -0.09 -0.055 -0.195 -0.438 -0.23 -0.852 c -0.078 -0.867 0.105 -1.164 0.719 -1.164 c 0.438 0 0.598 0.293 0.324 0.598 c -0.176 0.195 -0.172 0.242 0.047 0.508 c 0.289 0.359 0.301 0.563 0.043 0.824 c -0.211 0.211 -0.645 0.254 -0.902 0.086 m 5.785 -0.953 v -1.375 h -2.75 l -0.035 1.242 c -0.02 0.68 -0.008 1.316 0.027 1.41 c 0.051 0.129 0.371 0.16 1.414 0.133 l 1.344 -0.035 m -1.41 -0.465 c -0.219 -0.219 -0.188 -0.52 0.094 -0.844 c 0.266 -0.305 0.223 -0.566 -0.07 -0.453 c -0.273 0.105 -0.551 -0.055 -0.551 -0.316 c 0 -0.297 0.449 -0.484 0.945 -0.395 c 0.551 0.102 0.68 0.262 0.68 0.848 c 0 0.418 -0.078 0.621 -0.363 0.922 c -0.398 0.426 -0.512 0.465 -0.734 0.238 m -9.941 8.566 c -0.141 -0.137 -0.098 -2.789 0.039 -2.789 c 0.078 0 0.125 0.563 0.125 1.438 c 0 0.789 -0.02 1.438 -0.039 1.438 c -0.023 0 -0.082 -0.039 -0.125 -0.086 m 2.195 -0.422 c -0.34 -0.133 -0.383 -0.676 -0.082 -1.01 c 0.18 -0.199 0.184 -0.246 0.012 -0.492 c -0.254 -0.363 -0.137 -0.617 0.289 -0.617 c 0.512 0 0.645 0.246 0.602 1.129 c -0.043 0.883 -0.301 1.188 -0.82 0.988 m 7.852 -0.051 c -0.133 -0.156 -0.125 -0.25 0.051 -0.516 c 0.203 -0.313 0.203 -0.336 -0.047 -0.57 c -0.313 -0.289 -0.316 -0.344 -0.066 -0.703 c 0.219 -0.313 0.777 -0.375 0.883 -0.102 c 0.035 0.098 0 0.301 -0.078 0.449 c -0.121 0.23 -0.102 0.32 0.137 0.574 l 0.285 0.305 l -0.254 0.34 c -0.297 0.402 -0.688 0.496 -0.91 0.223 m -9.129 -0.184 c -0.203 -0.379 -0.16 -1.461 0.066 -1.688 c 0.109 -0.109 0.219 -0.195 0.242 -0.195 c 0.023 0 0.133 0.086 0.242 0.195 c 0.125 0.125 0.195 0.422 0.195 0.82 c 0 0.691 -0.164 1.109 -0.438 1.109 c -0.098 0 -0.234 -0.109 -0.309 -0.242 m 8.141 0.129 c -0.242 -0.152 -0.234 -1.598 0.008 -1.844 c 0.168 -0.164 0.211 -0.164 0.395 0.02 c 0.34 0.34 0.223 1.941 -0.145 1.934 c -0.047 0 -0.164 -0.051 -0.258 -0.109 m -9.145 -4.949 c 0 -0.793 0.051 -1.313 0.125 -1.313 c 0.078 0 0.125 0.52 0.125 1.313 c 0 0.789 -0.047 1.313 -0.125 1.313 c -0.074 0 -0.125 -0.523 -0.125 -1.313 m 15.922 0 c 0 -0.758 0.023 -1.051 0.047 -0.652 c 0.023 0.398 0.023 1.016 0 1.375 c -0.027 0.359 -0.047 0.031 -0.047 -0.723 m -1.746 0.871 c -0.367 -0.367 -0.371 -0.48 -0.035 -0.797 c 0.242 -0.223 0.246 -0.266 0.07 -0.52 c -0.254 -0.363 -0.137 -0.617 0.285 -0.617 c 0.344 0 0.754 0.328 0.754 0.602 c 0 0.082 -0.117 0.266 -0.258 0.406 c -0.246 0.246 -0.25 0.273 -0.047 0.496 c 0.473 0.527 -0.262 0.938 -0.77 0.43 m -12.168 -0.051 c -0.074 -0.133 -0.133 -0.309 -0.133 -0.387 c 0 -0.078 -0.109 -0.289 -0.25 -0.465 c -0.301 -0.383 -0.313 -0.574 -0.051 -0.836 c 0.211 -0.211 0.641 -0.254 0.898 -0.09 c 0.219 0.137 0.336 1.426 0.16 1.758 c -0.176 0.328 -0.457 0.336 -0.625 0.02 m 11.12 0.055 c -0.164 -0.199 -0.215 -1.438 -0.07 -1.676 c 0.129 -0.207 0.535 -0.168 0.621 0.059 c 0.152 0.402 0.078 1.41 -0.121 1.605 c -0.238 0.242 -0.238 0.242 -0.43 0.012 m -13.12 -4.875 c 0 -0.793 0.051 -1.313 0.125 -1.313 c 0.078 0 0.125 0.52 0.125 1.313 c 0 0.789 -0.047 1.313 -0.125 1.313 c -0.074 0 -0.125 -0.523 -0.125 -1.313 m 15.922 0 c 0 -0.758 0.02 -1.051 0.047 -0.652 c 0.023 0.398 0.023 1.016 0 1.375 c -0.027 0.359 -0.047 0.031 -0.047 -0.723 m -14.379 0.871 c -0.039 -0.105 0.027 -0.305 0.152 -0.441 c 0.219 -0.242 0.215 -0.258 -0.047 -0.441 c -0.527 -0.367 -0.207 -1.051 0.488 -1.051 c 0.461 0 0.598 0.297 0.293 0.633 c -0.219 0.242 -0.215 0.254 0.047 0.441 c 0.32 0.223 0.352 0.578 0.078 0.852 c -0.254 0.258 -0.914 0.258 -1.012 0.008 m 11.535 -0.074 c -0.207 -0.297 -0.148 -0.566 0.191 -0.895 c 0.125 -0.125 0.23 -0.363 0.23 -0.531 c 0 -0.219 0.086 -0.328 0.305 -0.383 c 0.477 -0.117 0.82 0.047 0.82 0.395 c 0 0.172 0.137 0.426 0.313 0.578 c 0.668 0.582 0.238 1.102 -0.91 1.102 c -0.637 0 -0.793 -0.047 -0.949 -0.266 m 1.266 -0.578 c 0.031 -0.098 -0.07 -0.156 -0.27 -0.156 c -0.316 0 -0.414 0.121 -0.238 0.297 c 0.129 0.125 0.445 0.039 0.508 -0.141 m -14.344 -4.273 c 0 -0.777 0.055 -1.402 0.125 -1.445 c 0.082 -0.051 0.125 0.434 0.125 1.367 c 0 0.879 -0.051 1.445 -0.125 1.445 c -0.078 0 -0.125 -0.539 -0.125 -1.367 m 15.922 -0.07 c 0 -0.824 0.02 -1.148 0.047 -0.715 c 0.023 0.434 0.023 1.109 -0.004 1.5 c -0.023 0.395 -0.043 0.039 -0.043 -0.785 m -13.918 0.945 c -0.07 -0.133 -0.129 -0.547 -0.129 -0.922 c 0 -0.77 0.234 -1.109 0.602 -0.879 c 0.254 0.156 0.355 1.402 0.148 1.789 c -0.172 0.32 -0.453 0.324 -0.621 0.012 m 3.566 0.047 c -0.277 -0.277 -0.246 -0.633 0.074 -0.855 c 0.266 -0.188 0.266 -0.199 0.051 -0.441 c -0.41 -0.449 0.039 -0.918 0.621 -0.652 c 0.445 0.203 0.543 0.75 0.184 1.043 c -0.273 0.223 -0.277 0.242 -0.066 0.473 c 0.121 0.133 0.188 0.332 0.148 0.438 c -0.098 0.25 -0.758 0.25 -1.012 -0.004 m 4 0 c -0.258 -0.262 -0.246 -0.465 0.043 -0.824 c 0.223 -0.273 0.227 -0.309 0.035 -0.52 c -0.453 -0.504 0.367 -0.945 0.855 -0.457 c 0.234 0.234 0.262 0.367 0.199 1.027 c -0.035 0.418 -0.141 0.805 -0.23 0.859 c -0.258 0.168 -0.691 0.125 -0.902 -0.086 m 4.355 -0.063 c -0.199 -0.133 -0.461 -0.242 -0.574 -0.242 c -0.215 0 -0.43 -0.426 -0.367 -0.734 c 0.016 -0.094 0.223 -0.367 0.457 -0.609 c 0.344 -0.352 0.484 -0.422 0.746 -0.355 c 0.176 0.043 0.352 0.18 0.391 0.297 c 0.102 0.324 0.277 0.691 0.445 0.926 c 0.125 0.172 0.109 0.262 -0.09 0.48 c -0.414 0.453 -0.609 0.5 -1.01 0.238 m -13.363 -2.742 c 0.043 -0.07 0.668 -0.125 1.445 -0.125 c 0.828 0 1.367 0.047 1.367 0.125 c 0 0.074 -0.566 0.125 -1.445 0.125 c -0.934 0 -1.418 -0.047 -1.367 -0.125 m 4.188 0 c 0 -0.074 0.52 -0.125 1.313 -0.125 c 0.789 0 1.313 0.051 1.313 0.125 c 0 0.074 -0.523 0.125 -1.313 0.125 c -0.793 0 -1.313 -0.051 -1.313 -0.125 m 4 0 c 0 -0.074 0.52 -0.125 1.313 -0.125 c 0.789 0 1.313 0.051 1.313 0.125 c 0 0.074 -0.523 0.125 -1.313 0.125 c -0.793 0 -1.313 -0.051 -1.313 -0.125 m 4 0 c 0 -0.168 2.707 -0.168 2.813 0 c 0.047 0.078 -0.438 0.125 -1.367 0.125 c -0.883 0 -1.445 -0.051 -1.445 -0.125" fill="#a88477"/><path d="m 9.465 24.07 c 0.43 -0.023 1.105 -0.023 1.5 0 c 0.391 0.027 0.039 0.047 -0.789 0.047 c -0.824 0 -1.145 -0.023 -0.711 -0.047 m 4.184 0 c 0.398 -0.023 1.02 -0.023 1.375 0 c 0.359 0.027 0.035 0.047 -0.723 0.047 c -0.754 0 -1.047 -0.02 -0.652 -0.047 m 4 0 c 0.398 -0.023 1.02 -0.023 1.375 0 c 0.359 0.027 0.035 0.047 -0.723 0.047 c -0.754 0 -1.047 -0.02 -0.652 -0.047 m -5.937 -1.688 l -0.035 -1.531 l -3.125 -0.125 v -1 l 3.125 -0.125 v -2.75 l -3.125 -0.125 v -1 l 3.125 -0.125 v -2.75 l -3.125 -0.125 v -1 l 3.125 -0.125 l 0.125 -3.125 h 1 l 0.125 3.125 h 2.75 l 0.125 -3.125 h 1 l 0.125 3.125 h 2.75 l 0.125 -3.125 h 1 l 0.125 3.125 l 3.063 0.07 v 1.109 l -3.063 0.07 v 2.75 l 3.063 0.07 v 1.109 l -3.063 0.07 v 2.75 l 3.07 0.07 l -0.07 4.18 l -2.09 0.035 l -2.09 0.031 l -0.035 -1.531 l -0.035 -1.535 h -2.75 l -0.07 3.063 h -1.117 v -0.492 c 0 -0.59 -0.176 -0.738 -0.508 -0.438 c -0.234 0.211 -0.258 0.207 -0.531 -0.051 c -0.355 -0.332 -0.469 -0.336 -0.832 -0.023 c -0.156 0.137 -0.336 0.219 -0.395 0.18 c -0.059 -0.035 -0.109 -0.43 -0.109 -0.871 c 0 -0.938 0.141 -1.02 0.73 -0.43 c 0.207 0.207 0.438 0.375 0.512 0.375 c 0.207 0 0.156 -0.27 -0.086 -0.445 c -0.285 -0.211 -0.059 -0.469 0.359 -0.41 c 0.219 0.031 0.313 0.141 0.359 0.418 c 0.039 0.219 0.145 0.375 0.254 0.375 c 0.141 0 0.184 -0.156 0.184 -0.625 v -0.625 h -2.75 l -0.07 3.063 h -1.109 m 3.93 -5.688 v -1.375 h -2.75 l -0.035 1.242 c -0.02 0.68 -0.008 1.316 0.027 1.41 c 0.051 0.129 0.371 0.16 1.414 0.133 l 1.344 -0.035 m -1.258 -0.602 c -0.035 -0.098 -0.051 -0.508 -0.031 -0.914 c 0.039 -0.727 0.043 -0.734 0.414 -0.734 h 0.375 v 0.875 c 0 0.863 -0.004 0.875 -0.344 0.914 c -0.211 0.023 -0.371 -0.027 -0.414 -0.141 m -1.055 -0.773 c 0 -0.641 0.039 -0.813 0.188 -0.813 c 0.207 0 0.207 0 0.207 0.813 c 0 0.813 0 0.813 -0.207 0.813 c -0.148 0 -0.188 -0.176 -0.188 -0.813 m 6.313 0 v -1.375 h -2.75 l -0.035 1.242 c -0.02 0.68 -0.008 1.316 0.027 1.41 c 0.051 0.129 0.371 0.16 1.414 0.133 l 1.344 -0.035 m -1.855 -0.645 c -0.043 -0.047 -0.082 -0.387 -0.082 -0.754 c 0 -0.492 0.055 -0.691 0.195 -0.746 c 0.105 -0.043 0.223 -0.043 0.262 -0.004 c 0.059 0.059 0.09 0.844 0.055 1.43 c -0.012 0.164 -0.289 0.211 -0.43 0.074 m 1.035 -0.043 c -0.004 -0.07 -0.008 -0.379 -0.008 -0.688 c 0 -0.813 0 -0.813 0.203 -0.813 c 0.148 0 0.188 0.172 0.188 0.813 c 0 0.637 -0.039 0.813 -0.188 0.813 c -0.102 0 -0.191 -0.059 -0.195 -0.125 m -3.18 -4.688 v -1.375 h -2.75 l -0.035 1.242 c -0.02 0.68 -0.008 1.316 0.027 1.41 c 0.051 0.129 0.371 0.16 1.414 0.133 l 1.344 -0.035 m -1.723 -0.523 c -0.035 -0.059 -0.102 -0.398 -0.148 -0.762 c -0.102 -0.738 0.039 -1.027 0.492 -1.027 c 0.398 0 0.457 0.113 0.23 0.457 c -0.188 0.285 -0.18 0.32 0.098 0.613 c 0.23 0.25 0.266 0.359 0.16 0.527 c -0.141 0.227 -0.73 0.359 -0.832 0.191 m 5.723 -0.852 v -1.375 h -2.75 l -0.035 1.242 c -0.02 0.68 -0.008 1.316 0.027 1.41 c 0.051 0.129 0.371 0.16 1.414 0.133 l 1.344 -0.035 m -1.293 -0.594 c -0.207 -0.207 -0.18 -0.352 0.125 -0.676 c 0.215 -0.23 0.238 -0.32 0.117 -0.469 c -0.086 -0.102 -0.219 -0.16 -0.301 -0.133 c -0.082 0.031 -0.23 0.004 -0.336 -0.063 c -0.316 -0.203 0.039 -0.398 0.641 -0.355 c 0.539 0.039 0.547 0.047 0.586 0.531 c 0.063 0.766 -0.477 1.52 -0.832 1.164 m -10.06 8.699 c -0.137 -0.141 -0.098 -2.793 0.043 -2.793 c 0.078 0 0.125 0.563 0.125 1.438 c 0 0.789 -0.02 1.438 -0.043 1.438 c -0.02 0 -0.078 -0.039 -0.125 -0.082 m 2.258 -0.559 c -0.27 -0.152 -0.277 -0.582 -0.016 -0.871 c 0.152 -0.168 0.164 -0.277 0.063 -0.469 c -0.219 -0.406 -0.164 -0.539 0.207 -0.496 c 0.332 0.035 0.344 0.066 0.383 0.875 c 0.027 0.703 0 0.855 -0.191 0.957 c -0.148 0.078 -0.305 0.078 -0.445 0.004 m 7.934 -0.023 c -0.172 -0.203 0.359 -0.926 0.582 -0.785 c 0.23 0.141 0.168 0.676 -0.098 0.82 c -0.305 0.164 -0.324 0.16 -0.484 -0.035 m -9.137 -0.133 c -0.086 -0.109 -0.133 -0.457 -0.113 -0.852 c 0.035 -0.57 0.074 -0.664 0.289 -0.664 c 0.227 0 0.246 0.07 0.215 0.746 c -0.039 0.816 -0.156 1.051 -0.391 0.77 m 8.07 0.09 c -0.047 -0.047 -0.086 -0.441 -0.086 -0.875 c 0 -0.594 0.043 -0.793 0.176 -0.793 c 0.258 0 0.406 1.348 0.172 1.582 c -0.094 0.094 -0.215 0.137 -0.262 0.086 m 0.93 -1.141 c -0.168 -0.313 0.055 -0.652 0.43 -0.652 c 0.352 0 0.391 0.199 0.109 0.598 c -0.234 0.336 -0.379 0.352 -0.539 0.055 m -10.141 -3.715 c 0 -0.793 0.051 -1.313 0.125 -1.313 c 0.078 0 0.125 0.52 0.125 1.313 c 0 0.793 -0.047 1.313 -0.125 1.313 c -0.074 0 -0.125 -0.52 -0.125 -1.313 m 15.922 0 c 0 -0.758 0.02 -1.051 0.047 -0.652 c 0.023 0.398 0.023 1.016 0 1.375 c -0.027 0.359 -0.047 0.031 -0.047 -0.723 m -13.77 0.789 c -0.086 -0.086 -0.152 -0.27 -0.152 -0.41 c 0 -0.145 -0.113 -0.359 -0.25 -0.477 c -0.137 -0.117 -0.25 -0.293 -0.25 -0.387 c 0 -0.262 0.324 -0.477 0.648 -0.434 c 0.25 0.035 0.305 0.145 0.398 0.773 c 0.086 0.574 0.07 0.766 -0.066 0.906 c -0.141 0.137 -0.211 0.145 -0.328 0.027 m 11.98 -0.086 c -0.09 -0.168 -0.07 -0.297 0.059 -0.469 c 0.18 -0.227 0.195 -0.223 0.488 0.133 c 0.168 0.203 0.277 0.414 0.242 0.469 c -0.117 0.191 -0.664 0.102 -0.789 -0.133 m -1.01 -0.703 c 0 -0.625 0.043 -0.813 0.18 -0.813 c 0.289 0 0.344 0.207 0.254 0.938 c -0.059 0.461 -0.145 0.688 -0.262 0.688 c -0.129 0 -0.172 -0.203 -0.172 -0.813 m 1.324 -0.336 c -0.281 -0.398 -0.246 -0.602 0.098 -0.602 c 0.395 0 0.672 0.328 0.5 0.598 c -0.199 0.313 -0.379 0.313 -0.598 0.004 m -14.449 -3.664 c 0 -0.793 0.051 -1.313 0.125 -1.313 c 0.078 0 0.125 0.52 0.125 1.313 c 0 0.793 -0.047 1.313 -0.125 1.313 c -0.074 0 -0.125 -0.52 -0.125 -1.313 m 15.922 0 c 0 -0.758 0.023 -1.051 0.047 -0.652 c 0.023 0.398 0.023 1.016 0 1.375 c -0.027 0.359 -0.047 0.031 -0.047 -0.723 m -14.223 0.828 c -0.043 -0.066 0.063 -0.281 0.23 -0.477 c 0.293 -0.336 0.316 -0.344 0.531 -0.133 c 0.172 0.172 0.191 0.273 0.09 0.438 c -0.152 0.246 -0.734 0.359 -0.852 0.172 m 11.512 0.027 c -0.047 -0.047 -0.086 -0.219 -0.086 -0.379 c 0 -0.406 0.348 -0.516 0.578 -0.18 c 0.234 0.332 0.5 0.34 0.703 0.016 c 0.203 -0.324 0.555 -0.32 0.66 0.004 c 0.141 0.441 -0.148 0.621 -0.996 0.621 c -0.426 0 -0.816 -0.039 -0.859 -0.082 m -11.594 -1.117 c -0.211 -0.254 -0.012 -0.598 0.379 -0.656 c 0.441 -0.066 0.543 0.148 0.25 0.52 c -0.305 0.387 -0.402 0.41 -0.629 0.137 m 11.977 -0.035 c -0.09 -0.344 0.129 -0.641 0.469 -0.641 c 0.344 0 0.563 0.297 0.473 0.641 c -0.047 0.168 -0.18 0.234 -0.473 0.234 c -0.293 0 -0.422 -0.066 -0.469 -0.234 m -13.594 -3.758 c 0 -0.777 0.055 -1.402 0.125 -1.445 c 0.082 -0.051 0.125 0.438 0.125 1.367 c 0 0.879 -0.047 1.445 -0.125 1.445 c -0.074 0 -0.125 -0.539 -0.125 -1.367 m 15.926 -0.07 c 0 -0.824 0.02 -1.145 0.043 -0.715 c 0.023 0.434 0.023 1.109 0 1.5 c -0.023 0.395 -0.047 0.039 -0.043 -0.785 m -13.777 0.91 c -0.156 -0.156 -0.203 -1.184 -0.07 -1.523 c 0.098 -0.258 0.375 -0.258 0.473 0 c 0.039 0.105 0.074 0.465 0.074 0.797 c 0 0.648 -0.219 0.984 -0.477 0.727 m 3.5 0.004 c -0.203 -0.207 -0.188 -0.414 0.055 -0.613 c 0.172 -0.145 0.242 -0.121 0.5 0.18 c 0.164 0.191 0.27 0.402 0.227 0.465 c -0.102 0.168 -0.602 0.145 -0.781 -0.031 m 4.01 0.004 c -0.219 -0.219 -0.195 -0.359 0.109 -0.688 c 0.258 -0.273 0.262 -0.297 0.051 -0.617 c -0.18 -0.273 -0.188 -0.352 -0.047 -0.441 c 0.258 -0.164 0.422 -0.133 0.664 0.137 c 0.188 0.207 0.203 0.352 0.113 0.969 c -0.098 0.645 -0.145 0.727 -0.422 0.758 c -0.172 0.023 -0.383 -0.031 -0.469 -0.117 m 4.063 -0.191 c -0.461 -0.234 -0.594 -0.367 -0.594 -0.602 c 0 -0.383 0.246 -0.535 0.438 -0.27 c 0.086 0.113 0.215 0.207 0.293 0.207 c 0.211 0 0.176 -0.336 -0.043 -0.422 c -0.27 -0.102 -0.23 -0.422 0.063 -0.516 c 0.324 -0.102 0.488 0.008 0.703 0.484 c 0.098 0.215 0.242 0.484 0.324 0.598 c 0.113 0.164 0.109 0.254 -0.023 0.414 c -0.328 0.395 -0.547 0.414 -1.16 0.105 m -7.832 -0.988 c -0.328 -0.418 -0.328 -0.512 0.004 -0.617 c 0.371 -0.117 0.848 0.355 0.66 0.656 c -0.211 0.332 -0.379 0.32 -0.664 -0.039 m -5.324 -1.551 c 0.043 -0.07 0.668 -0.125 1.445 -0.125 c 0.828 0 1.367 0.051 1.367 0.125 c 0 0.074 -0.566 0.125 -1.445 0.125 c -0.93 0 -1.418 -0.043 -1.367 -0.125 m 4.188 0 c 0 -0.074 0.52 -0.125 1.313 -0.125 c 0.793 0 1.313 0.051 1.313 0.125 c 0 0.074 -0.52 0.125 -1.313 0.125 c -0.793 0 -1.313 -0.051 -1.313 -0.125 m 4 0 c 0 -0.074 0.52 -0.125 1.313 -0.125 c 0.793 0 1.313 0.051 1.313 0.125 c 0 0.074 -0.52 0.125 -1.313 0.125 c -0.793 0 -1.313 -0.051 -1.313 -0.125 m 4 0 c 0 -0.168 2.711 -0.168 2.813 0 c 0.051 0.082 -0.438 0.125 -1.367 0.125 c -0.879 0 -1.445 -0.051 -1.445 -0.125" fill="#996959"/><path d="m 9.465 24.07 c 0.43 -0.023 1.105 -0.023 1.5 0 c 0.391 0.027 0.039 0.047 -0.789 0.047 c -0.824 0 -1.145 -0.023 -0.711 -0.047 m 4.184 0 c 0.398 -0.023 1.02 -0.023 1.375 0 c 0.359 0.027 0.035 0.047 -0.723 0.047 c -0.754 0 -1.047 -0.02 -0.652 -0.047 m 4 0 c 0.398 -0.023 1.02 -0.023 1.375 0 c 0.359 0.027 0.035 0.047 -0.723 0.047 c -0.754 0 -1.047 -0.02 -0.652 -0.047 m -5.937 -1.688 l -0.035 -1.531 l -3.125 -0.125 v -1 l 3.125 -0.125 v -2.75 l -3.125 -0.125 v -1 l 3.125 -0.125 v -2.75 l -3.125 -0.125 v -1 l 3.125 -0.125 l 0.125 -3.125 h 1 l 0.125 3.125 h 2.75 l 0.125 -3.125 h 1 l 0.125 3.125 h 2.75 l 0.125 -3.125 h 1 l 0.125 3.125 l 3.063 0.07 v 1.109 l -3.063 0.07 v 2.75 l 3.063 0.07 v 1.109 l -3.063 0.07 v 2.75 l 3.07 0.07 l -0.07 4.18 l -2.09 0.035 l -2.09 0.031 l -0.035 -1.531 l -0.035 -1.535 h -2.75 l -0.07 3.063 h -1.117 v -0.469 c -0.004 -0.258 -0.055 -0.551 -0.117 -0.652 c -0.102 -0.156 -0.148 -0.156 -0.344 0.023 c -0.211 0.188 -0.246 0.184 -0.52 -0.039 c -0.375 -0.305 -0.531 -0.301 -0.941 0.02 l -0.328 0.262 v -0.762 c 0 -0.418 0.047 -0.758 0.102 -0.758 c 0.055 0 0.266 0.168 0.461 0.375 c 0.199 0.207 0.461 0.375 0.586 0.375 c 0.281 0 0.305 -0.406 0.035 -0.629 c -0.234 -0.195 -0.063 -0.414 0.234 -0.301 c 0.113 0.043 0.207 0.207 0.207 0.363 c 0 0.156 0.09 0.359 0.199 0.449 c 0.285 0.234 0.438 -0.059 0.395 -0.758 l -0.031 -0.563 h -2.75 l -0.07 3.063 h -1.109 m 3.93 -5.688 v -1.375 h -2.75 l -0.035 1.242 c -0.02 0.68 -0.008 1.316 0.027 1.41 c 0.051 0.129 0.371 0.16 1.414 0.133 l 1.344 -0.035 m -1.031 -0.531 c -0.102 -0.035 -0.156 -0.324 -0.156 -0.844 c 0 -0.52 0.055 -0.813 0.156 -0.848 c 0.363 -0.125 0.469 0.066 0.469 0.848 c 0 0.777 -0.105 0.973 -0.469 0.844 m -1.164 -0.211 c -0.055 -0.418 -0.004 -1.203 0.078 -1.227 c 0.129 -0.039 0.16 1.156 0.027 1.234 c -0.055 0.035 -0.102 0.031 -0.105 -0.008 m 6.195 -0.633 v -1.375 h -2.75 l -0.035 1.242 c -0.02 0.68 -0.008 1.316 0.027 1.41 c 0.051 0.129 0.371 0.16 1.414 0.133 l 1.344 -0.035 m -1.813 -1.375 c 0 -0.477 0.051 -0.688 0.16 -0.688 c 0.113 0 0.16 0.211 0.16 0.688 c 0 0.477 -0.047 0.688 -0.16 0.688 c -0.109 0 -0.16 -0.211 -0.16 -0.688 m 1.102 0.602 c -0.094 -0.203 -0.031 -1.227 0.074 -1.195 c 0.063 0.016 0.109 0.285 0.109 0.598 c 0 0.539 -0.082 0.813 -0.184 0.598 m -3.289 -4.602 v -1.375 h -2.75 l -0.035 1.242 c -0.02 0.68 -0.008 1.316 0.027 1.41 c 0.051 0.129 0.371 0.16 1.414 0.133 l 1.344 -0.035 m -1.598 -0.578 c -0.332 -0.188 -0.305 -1.426 0.039 -1.613 c 0.375 -0.199 0.527 -0.031 0.289 0.328 c -0.191 0.293 -0.188 0.324 0.066 0.594 c 0.145 0.156 0.266 0.352 0.266 0.43 c 0 0.23 -0.414 0.395 -0.66 0.262 m 5.598 -0.797 v -1.375 h -2.75 l -0.035 1.242 c -0.02 0.68 -0.008 1.316 0.027 1.41 c 0.051 0.129 0.371 0.16 1.414 0.133 l 1.344 -0.035 m -1.27 -0.758 c -0.043 -0.109 0.047 -0.324 0.207 -0.492 c 0.34 -0.359 0.254 -0.688 -0.176 -0.688 c -0.324 0 -0.547 -0.195 -0.313 -0.277 c 0.078 -0.023 0.332 -0.023 0.566 0.004 c 0.402 0.047 0.422 0.074 0.422 0.543 c 0 0.273 -0.055 0.598 -0.121 0.723 c -0.168 0.316 -0.496 0.422 -0.586 0.188 m -10.09 8.863 c -0.137 -0.141 -0.098 -2.793 0.043 -2.793 c 0.078 0 0.125 0.563 0.125 1.438 c 0 0.789 -0.02 1.438 -0.043 1.438 c -0.02 0 -0.078 -0.039 -0.125 -0.082 m 2.18 -0.773 c -0.102 -0.191 -0.074 -0.313 0.117 -0.559 c 0.211 -0.27 0.227 -0.367 0.102 -0.641 c -0.168 -0.371 -0.105 -0.488 0.195 -0.371 c 0.305 0.117 0.242 1.715 -0.074 1.773 c -0.113 0.023 -0.27 -0.066 -0.34 -0.203 m 8.06 0.117 c -0.039 -0.063 0.039 -0.242 0.172 -0.406 c 0.18 -0.223 0.277 -0.258 0.387 -0.152 c 0.109 0.109 0.109 0.211 0.004 0.406 c -0.145 0.273 -0.441 0.352 -0.563 0.152 m -9.117 -0.098 c -0.043 -0.047 -0.078 -0.383 -0.078 -0.746 c 0 -0.504 0.047 -0.668 0.184 -0.668 c 0.141 0 0.18 0.16 0.164 0.691 c -0.016 0.672 -0.098 0.891 -0.27 0.723 m 8.04 -0.102 c -0.008 -0.035 -0.016 -0.316 -0.02 -0.625 c -0.012 -0.77 0.191 -0.719 0.238 0.059 c 0.02 0.355 -0.02 0.629 -0.086 0.629 c -0.07 0 -0.129 -0.027 -0.133 -0.063 m 0.922 -1.02 c -0.074 -0.191 0.238 -0.543 0.484 -0.543 c 0.156 0 0.121 0.43 -0.047 0.598 c -0.207 0.207 -0.344 0.191 -0.438 -0.055 m -10.164 -3.605 c 0 -0.793 0.051 -1.313 0.125 -1.313 c 0.074 0 0.125 0.52 0.125 1.313 c 0 0.793 -0.051 1.313 -0.125 1.313 c -0.074 0 -0.125 -0.52 -0.125 -1.313 m 15.922 0 c 0 -0.758 0.02 -1.051 0.043 -0.652 c 0.027 0.398 0.027 1.016 0 1.375 c -0.023 0.359 -0.043 0.031 -0.043 -0.723 m -1.578 0.801 c -0.25 -0.145 -0.289 -0.43 -0.074 -0.563 c 0.168 -0.105 0.641 0.414 0.535 0.586 c -0.09 0.141 -0.188 0.137 -0.461 -0.023 m -12.141 -0.074 c -0.043 -0.047 -0.078 -0.203 -0.078 -0.355 c 0 -0.148 -0.113 -0.371 -0.25 -0.496 c -0.309 -0.277 -0.32 -0.512 -0.035 -0.672 c 0.422 -0.234 0.66 0.051 0.66 0.793 c 0 0.637 -0.113 0.91 -0.297 0.73 m 11.04 -0.082 c -0.063 -0.563 0 -1.27 0.113 -1.305 c 0.156 -0.051 0.137 1.145 -0.02 1.301 c -0.047 0.051 -0.09 0.051 -0.094 0.004 m 1.281 -0.984 c -0.168 -0.168 -0.203 -0.598 -0.047 -0.598 c 0.246 0 0.559 0.352 0.484 0.543 c -0.094 0.246 -0.23 0.262 -0.438 0.055 m -14.523 -3.66 c 0 -0.793 0.051 -1.313 0.125 -1.313 c 0.074 0 0.125 0.52 0.125 1.313 c 0 0.793 -0.051 1.313 -0.125 1.313 c -0.074 0 -0.125 -0.52 -0.125 -1.313 m 15.922 0 c 0 -0.758 0.02 -1.051 0.043 -0.652 c 0.027 0.398 0.027 1.016 0 1.375 c -0.023 0.359 -0.043 0.031 -0.043 -0.723 m -14.1 0.824 c -0.105 -0.172 0.367 -0.691 0.531 -0.586 c 0.223 0.137 0.176 0.426 -0.094 0.57 c -0.297 0.156 -0.352 0.16 -0.438 0.016 m 11.375 -0.219 c -0.141 -0.367 0.148 -0.496 0.434 -0.191 c 0.141 0.148 0.336 0.273 0.434 0.273 c 0.098 0 0.293 -0.125 0.434 -0.273 c 0.188 -0.203 0.289 -0.238 0.395 -0.137 c 0.078 0.078 0.109 0.23 0.066 0.34 c -0.113 0.293 -1.648 0.281 -1.762 -0.012 m -11.488 -0.875 c -0.16 -0.164 -0.082 -0.41 0.18 -0.551 c 0.363 -0.195 0.531 0.012 0.289 0.355 c -0.199 0.285 -0.324 0.336 -0.469 0.195 m 11.957 -0.117 c -0.117 -0.305 0.293 -0.582 0.609 -0.414 c 0.344 0.184 0.23 0.543 -0.184 0.59 c -0.234 0.027 -0.367 -0.027 -0.426 -0.176 m -13.664 -3.668 c 0 -0.777 0.055 -1.402 0.125 -1.445 c 0.078 -0.051 0.125 0.438 0.125 1.367 c 0 0.879 -0.051 1.445 -0.125 1.445 c -0.078 0 -0.125 -0.539 -0.125 -1.367 m 15.922 -0.07 c 0 -0.824 0.02 -1.148 0.043 -0.715 c 0.027 0.434 0.027 1.109 0 1.5 c -0.023 0.395 -0.043 0.039 -0.043 -0.785 m -10.08 0.926 c -0.25 -0.145 -0.289 -0.43 -0.074 -0.563 c 0.168 -0.105 0.641 0.414 0.535 0.586 c -0.09 0.141 -0.188 0.137 -0.461 -0.023 m 3.996 -0.004 c -0.285 -0.16 -0.273 -0.348 0.051 -0.691 c 0.254 -0.27 0.258 -0.301 0.059 -0.602 c -0.188 -0.285 -0.188 -0.328 -0.016 -0.395 c 0.355 -0.137 0.566 0.195 0.566 0.902 c 0 0.734 -0.242 1.02 -0.66 0.785 m -7.656 -0.137 c -0.117 -0.301 -0.012 -1.414 0.129 -1.379 c 0.168 0.039 0.234 1.285 0.074 1.445 c -0.09 0.086 -0.152 0.066 -0.203 -0.066 m 11.934 -0.043 c -0.082 -0.098 -0.281 -0.18 -0.441 -0.18 c -0.168 0 -0.352 -0.109 -0.434 -0.266 c -0.18 -0.332 0.023 -0.578 0.254 -0.301 c 0.215 0.258 0.629 0.246 0.629 -0.02 c 0 -0.113 -0.094 -0.309 -0.203 -0.434 c -0.191 -0.207 -0.191 -0.23 0 -0.305 c 0.277 -0.105 0.578 0.164 0.578 0.512 c 0 0.156 0.082 0.352 0.184 0.434 c 0.133 0.109 0.152 0.219 0.066 0.375 c -0.164 0.313 -0.453 0.395 -0.633 0.184 m -8.168 -1.074 c -0.133 -0.191 -0.156 -0.324 -0.07 -0.41 c 0.176 -0.176 0.559 0.078 0.559 0.371 c 0 0.336 -0.262 0.359 -0.488 0.039 m -5.387 -1.48 c 0.043 -0.07 0.668 -0.125 1.445 -0.125 c 0.828 0 1.367 0.047 1.367 0.125 c 0 0.074 -0.566 0.125 -1.445 0.125 c -0.93 0 -1.418 -0.043 -1.367 -0.125 m 4.188 0 c 0 -0.074 0.52 -0.125 1.313 -0.125 c 0.793 0 1.313 0.051 1.313 0.125 c 0 0.074 -0.52 0.125 -1.313 0.125 c -0.793 0 -1.313 -0.051 -1.313 -0.125 m 4 0 c 0 -0.074 0.52 -0.125 1.313 -0.125 c 0.793 0 1.313 0.051 1.313 0.125 c 0 0.074 -0.52 0.125 -1.313 0.125 c -0.793 0 -1.313 -0.051 -1.313 -0.125 m 4 0 c 0 -0.168 2.711 -0.168 2.813 0 c 0.051 0.082 -0.438 0.125 -1.367 0.125 c -0.879 0 -1.445 -0.051 -1.445 -0.125" fill="#676868"/><path d="m 12.01 23.629 c -0.074 -0.09 -0.148 -0.781 -0.172 -1.531 l -0.035 -1.367 l -1.422 -0.063 c -1.148 -0.051 -1.449 -0.105 -1.555 -0.273 c -0.098 -0.148 -0.086 -0.262 0.027 -0.402 c 0.125 -0.148 0.48 -0.199 1.555 -0.227 l 1.395 -0.035 v -3 l -1.422 -0.063 c -1.148 -0.051 -1.449 -0.105 -1.555 -0.273 c -0.098 -0.148 -0.086 -0.262 0.027 -0.402 c 0.125 -0.148 0.48 -0.199 1.555 -0.227 l 1.395 -0.035 v -3 l -1.422 -0.063 c -1.148 -0.051 -1.449 -0.105 -1.555 -0.273 c -0.098 -0.148 -0.086 -0.262 0.027 -0.402 c 0.125 -0.148 0.48 -0.199 1.555 -0.227 l 1.395 -0.035 l 0.035 -1.395 c 0.027 -1.078 0.082 -1.43 0.23 -1.555 c 0.141 -0.117 0.254 -0.125 0.402 -0.031 c 0.168 0.105 0.219 0.406 0.27 1.555 l 0.063 1.426 h 3 l 0.035 -1.395 c 0.027 -1.078 0.082 -1.43 0.23 -1.555 c 0.141 -0.117 0.254 -0.125 0.402 -0.031 c 0.168 0.105 0.219 0.406 0.27 1.555 l 0.063 1.426 h 3 l 0.035 -1.395 c 0.027 -1.078 0.082 -1.43 0.23 -1.555 c 0.141 -0.117 0.254 -0.125 0.402 -0.031 c 0.168 0.105 0.219 0.406 0.27 1.555 l 0.063 1.426 l 1.395 0.035 c 1.078 0.027 1.434 0.078 1.555 0.227 c 0.117 0.141 0.125 0.254 0.031 0.402 c -0.105 0.168 -0.406 0.223 -1.555 0.273 l -1.426 0.063 v 3 l 1.426 0.063 c 1.148 0.051 1.449 0.102 1.555 0.27 c 0.094 0.152 0.086 0.262 -0.031 0.402 c -0.121 0.148 -0.477 0.203 -1.555 0.23 l -1.395 0.035 l -0.035 1.355 c -0.023 0.895 0.016 1.418 0.109 1.531 c 0.105 0.129 0.484 0.176 1.445 0.176 c 1.078 0 1.316 0.035 1.379 0.199 c 0.137 0.352 -0.238 0.438 -1.773 0.398 l -1.5 -0.035 l 0.039 1.5 c 0.035 1.531 -0.047 1.906 -0.402 1.77 c -0.164 -0.063 -0.199 -0.297 -0.199 -1.375 c 0 -0.961 -0.043 -1.34 -0.172 -1.445 c -0.117 -0.098 -0.641 -0.133 -1.531 -0.109 l -1.359 0.035 l -0.063 1.426 c -0.051 1.145 -0.102 1.449 -0.27 1.555 c -0.289 0.18 -0.605 -0.102 -0.605 -0.547 c 0 -0.41 -0.324 -0.582 -0.609 -0.32 c -0.176 0.156 -0.238 0.148 -0.496 -0.063 c -0.375 -0.305 -0.531 -0.301 -0.938 0.02 l -0.332 0.262 v -0.762 c 0 -0.418 0.047 -0.758 0.102 -0.758 c 0.059 0 0.266 0.168 0.461 0.375 c 0.199 0.207 0.461 0.375 0.586 0.375 c 0.281 0 0.305 -0.406 0.035 -0.629 c -0.234 -0.195 -0.063 -0.414 0.234 -0.301 c 0.113 0.043 0.207 0.207 0.207 0.363 c 0 0.352 0.277 0.598 0.555 0.488 c 0.168 -0.063 0.199 -0.219 0.172 -0.781 l -0.039 -0.703 h -3 l -0.035 1.367 c -0.035 1.324 -0.137 1.695 -0.465 1.695 c -0.086 0 -0.219 -0.074 -0.293 -0.164 m 3.793 -5.398 v -1.5 h -3 l -0.035 1.367 c -0.02 0.75 -0.008 1.441 0.031 1.535 c 0.047 0.129 0.391 0.16 1.535 0.133 l 1.469 -0.035 m -1.156 -0.656 c -0.102 -0.035 -0.156 -0.324 -0.156 -0.844 c 0 -0.523 0.055 -0.813 0.156 -0.848 c 0.363 -0.125 0.469 0.066 0.469 0.848 c 0 0.777 -0.105 0.973 -0.469 0.844 m -1.164 -0.211 c -0.055 -0.418 -0.004 -1.203 0.078 -1.227 c 0.133 -0.039 0.16 1.156 0.027 1.234 c -0.051 0.035 -0.102 0.031 -0.105 -0.008 m 6.32 -0.633 v -1.5 h -3 l -0.035 1.367 c -0.02 0.75 -0.008 1.441 0.031 1.535 c 0.047 0.129 0.391 0.16 1.535 0.133 l 1.469 -0.035 m -1.938 -1.5 c 0 -0.477 0.051 -0.688 0.16 -0.688 c 0.113 0 0.164 0.211 0.164 0.688 c 0 0.477 -0.051 0.688 -0.164 0.688 c -0.109 0 -0.16 -0.211 -0.16 -0.688 m 1.105 0.602 c -0.098 -0.203 -0.031 -1.227 0.074 -1.195 c 0.059 0.016 0.105 0.285 0.105 0.598 c 0 0.539 -0.082 0.813 -0.18 0.598 m -3.168 -4.602 v -1.5 h -3 l -0.035 1.367 c -0.02 0.75 -0.008 1.441 0.031 1.535 c 0.047 0.129 0.391 0.16 1.535 0.133 l 1.469 -0.035 m -1.719 -0.703 c -0.336 -0.188 -0.309 -1.43 0.035 -1.613 c 0.379 -0.199 0.527 -0.031 0.293 0.328 c -0.195 0.293 -0.191 0.324 0.063 0.594 c 0.148 0.156 0.266 0.348 0.266 0.43 c 0 0.23 -0.414 0.395 -0.66 0.258 m 5.723 -0.793 v -1.5 h -3 l -0.035 1.367 c -0.02 0.75 -0.008 1.441 0.031 1.535 c 0.047 0.129 0.391 0.16 1.535 0.133 l 1.469 -0.035 m -1.395 -0.883 c -0.043 -0.109 0.047 -0.324 0.207 -0.492 c 0.34 -0.359 0.258 -0.688 -0.176 -0.688 c -0.324 0 -0.547 -0.195 -0.309 -0.277 c 0.074 -0.023 0.328 -0.023 0.563 0.004 c 0.402 0.047 0.422 0.074 0.422 0.543 c 0 0.273 -0.055 0.598 -0.121 0.723 c -0.168 0.316 -0.496 0.422 -0.586 0.188 m -7.906 8.09 c -0.102 -0.191 -0.074 -0.313 0.117 -0.559 c 0.211 -0.27 0.227 -0.367 0.102 -0.641 c -0.168 -0.371 -0.105 -0.488 0.195 -0.371 c 0.305 0.117 0.242 1.715 -0.074 1.773 c -0.113 0.023 -0.266 -0.066 -0.34 -0.203 m 8.06 0.117 c -0.039 -0.063 0.039 -0.242 0.172 -0.406 c 0.18 -0.223 0.277 -0.258 0.387 -0.152 c 0.109 0.109 0.109 0.211 0.004 0.406 c -0.145 0.273 -0.438 0.352 -0.563 0.152 m -9.113 -0.098 c -0.047 -0.047 -0.082 -0.383 -0.082 -0.75 c 0 -0.5 0.047 -0.664 0.184 -0.664 c 0.141 0 0.18 0.156 0.164 0.691 c -0.016 0.672 -0.098 0.891 -0.266 0.723 m 8.04 -0.102 c -0.004 -0.035 -0.016 -0.316 -0.02 -0.625 c -0.012 -0.77 0.191 -0.719 0.238 0.059 c 0.02 0.355 -0.016 0.629 -0.086 0.629 c -0.07 0 -0.129 -0.027 -0.133 -0.063 m 0.922 -1.02 c -0.074 -0.191 0.238 -0.543 0.484 -0.543 c 0.156 0 0.121 0.43 -0.047 0.598 c -0.207 0.207 -0.344 0.191 -0.438 -0.055 m 4.18 -2.805 c -0.25 -0.145 -0.285 -0.434 -0.074 -0.563 c 0.168 -0.105 0.641 0.414 0.535 0.586 c -0.086 0.141 -0.188 0.137 -0.461 -0.023 m -12.137 -0.074 c -0.047 -0.047 -0.082 -0.203 -0.082 -0.355 c 0 -0.148 -0.113 -0.371 -0.25 -0.496 c -0.305 -0.277 -0.32 -0.512 -0.035 -0.672 c 0.422 -0.234 0.66 0.051 0.66 0.793 c 0 0.637 -0.113 0.91 -0.293 0.73 m 11.04 -0.082 c -0.063 -0.563 0 -1.27 0.113 -1.305 c 0.156 -0.051 0.137 1.145 -0.02 1.301 c -0.047 0.051 -0.09 0.051 -0.094 0.004 m 1.285 -0.984 c -0.172 -0.168 -0.207 -0.598 -0.051 -0.598 c 0.246 0 0.559 0.352 0.484 0.543 c -0.094 0.246 -0.23 0.262 -0.434 0.055 m -12.707 -2.836 c -0.105 -0.172 0.367 -0.691 0.535 -0.586 c 0.223 0.137 0.172 0.426 -0.098 0.57 c -0.297 0.156 -0.348 0.16 -0.438 0.016 m 11.375 -0.223 c -0.141 -0.363 0.152 -0.492 0.434 -0.188 c 0.141 0.148 0.336 0.273 0.434 0.273 c 0.098 0 0.293 -0.125 0.434 -0.273 c 0.191 -0.203 0.293 -0.238 0.395 -0.137 c 0.078 0.078 0.109 0.23 0.066 0.34 c -0.109 0.293 -1.648 0.281 -1.762 -0.016 m -11.488 -0.871 c -0.16 -0.164 -0.078 -0.41 0.18 -0.551 c 0.363 -0.195 0.531 0.012 0.293 0.355 c -0.199 0.285 -0.328 0.336 -0.473 0.195 m 11.961 -0.117 c -0.117 -0.305 0.289 -0.582 0.605 -0.414 c 0.344 0.184 0.23 0.543 -0.18 0.59 c -0.234 0.027 -0.371 -0.027 -0.426 -0.176 m -7.824 -2.813 c -0.25 -0.145 -0.285 -0.43 -0.074 -0.563 c 0.168 -0.105 0.641 0.414 0.535 0.586 c -0.086 0.141 -0.188 0.137 -0.461 -0.023 m 3.996 -0.004 c -0.285 -0.16 -0.27 -0.348 0.055 -0.691 c 0.254 -0.27 0.258 -0.301 0.055 -0.605 c -0.184 -0.281 -0.188 -0.324 -0.016 -0.391 c 0.359 -0.137 0.566 0.195 0.566 0.902 c 0 0.73 -0.238 1.02 -0.66 0.785 m -7.656 -0.137 c -0.113 -0.301 -0.012 -1.414 0.129 -1.379 c 0.172 0.039 0.234 1.285 0.074 1.445 c -0.086 0.086 -0.152 0.066 -0.203 -0.066 m 11.938 -0.043 c -0.082 -0.098 -0.281 -0.18 -0.445 -0.18 c -0.168 0 -0.352 -0.109 -0.434 -0.266 c -0.18 -0.332 0.027 -0.578 0.254 -0.301 c 0.215 0.258 0.629 0.246 0.629 -0.02 c 0 -0.113 -0.09 -0.309 -0.203 -0.434 c -0.188 -0.211 -0.188 -0.23 0 -0.305 c 0.277 -0.105 0.578 0.16 0.578 0.512 c 0 0.156 0.086 0.352 0.188 0.434 c 0.129 0.109 0.148 0.219 0.066 0.375 c -0.168 0.313 -0.457 0.395 -0.633 0.184 m -8.172 -1.074 c -0.133 -0.191 -0.156 -0.324 -0.07 -0.41 c 0.176 -0.176 0.559 0.078 0.559 0.371 c 0 0.336 -0.262 0.359 -0.488 0.039" fill="#894a35"/><path d="m 12.01 23.629 c -0.074 -0.09 -0.148 -0.781 -0.172 -1.531 l -0.035 -1.367 l -1.422 -0.063 c -1.148 -0.051 -1.449 -0.105 -1.555 -0.273 c -0.098 -0.148 -0.086 -0.262 0.027 -0.402 c 0.125 -0.148 0.48 -0.199 1.555 -0.227 l 1.395 -0.035 v -3 l -1.422 -0.063 c -1.148 -0.051 -1.449 -0.105 -1.555 -0.273 c -0.098 -0.148 -0.086 -0.262 0.027 -0.402 c 0.125 -0.148 0.48 -0.199 1.555 -0.227 l 1.395 -0.035 v -3 l -1.422 -0.063 c -1.148 -0.051 -1.449 -0.105 -1.555 -0.273 c -0.098 -0.148 -0.086 -0.262 0.027 -0.402 c 0.125 -0.148 0.48 -0.199 1.555 -0.227 l 1.395 -0.035 l 0.035 -1.395 c 0.027 -1.078 0.082 -1.43 0.23 -1.555 c 0.141 -0.117 0.254 -0.125 0.402 -0.031 c 0.168 0.105 0.219 0.406 0.27 1.555 l 0.063 1.426 h 3 l 0.035 -1.395 c 0.027 -1.078 0.082 -1.43 0.23 -1.555 c 0.141 -0.117 0.254 -0.125 0.402 -0.031 c 0.168 0.105 0.219 0.406 0.27 1.555 l 0.063 1.426 h 3 l 0.035 -1.395 c 0.027 -1.078 0.082 -1.43 0.23 -1.555 c 0.141 -0.117 0.254 -0.125 0.402 -0.031 c 0.168 0.105 0.219 0.406 0.27 1.555 l 0.063 1.426 l 1.395 0.035 c 1.078 0.027 1.434 0.078 1.555 0.227 c 0.117 0.141 0.125 0.254 0.031 0.402 c -0.105 0.168 -0.406 0.223 -1.555 0.273 l -1.426 0.063 v 3 l 1.426 0.063 c 1.148 0.051 1.449 0.102 1.555 0.27 c 0.094 0.152 0.086 0.262 -0.031 0.402 c -0.121 0.148 -0.477 0.203 -1.555 0.23 l -1.395 0.035 l -0.035 1.355 c -0.023 0.895 0.016 1.418 0.109 1.531 c 0.105 0.129 0.484 0.176 1.445 0.176 c 1.078 0 1.316 0.035 1.379 0.199 c 0.137 0.352 -0.238 0.438 -1.773 0.398 l -1.5 -0.035 l 0.039 1.5 c 0.035 1.531 -0.047 1.906 -0.402 1.77 c -0.164 -0.063 -0.199 -0.297 -0.199 -1.375 c 0 -0.961 -0.043 -1.34 -0.172 -1.445 c -0.117 -0.098 -0.641 -0.133 -1.531 -0.109 l -1.359 0.035 l -0.063 1.426 c -0.051 1.168 -0.102 1.445 -0.277 1.559 c -0.168 0.105 -0.266 0.09 -0.422 -0.066 c -0.16 -0.164 -0.207 -0.492 -0.219 -1.563 l -0.02 -1.355 h -3 l -0.035 1.367 c -0.035 1.324 -0.137 1.695 -0.465 1.695 c -0.086 0 -0.219 -0.074 -0.293 -0.164 m 3.793 -5.398 v -1.5 h -3 l -0.035 1.367 c -0.02 0.75 -0.008 1.441 0.031 1.535 c 0.047 0.129 0.391 0.16 1.535 0.133 l 1.469 -0.035 m 4 -1.5 v -1.5 h -3 l -0.035 1.367 c -0.02 0.75 -0.008 1.441 0.031 1.535 c 0.047 0.129 0.391 0.16 1.535 0.133 l 1.469 -0.035 m -4 -5.5 v -1.5 h -3 l -0.035 1.367 c -0.02 0.75 -0.008 1.441 0.031 1.535 c 0.047 0.129 0.391 0.16 1.535 0.133 l 1.469 -0.035 m 4 -1.5 v -1.5 h -3 l -0.035 1.367 c -0.02 0.75 -0.008 1.441 0.031 1.535 c 0.047 0.129 0.391 0.16 1.535 0.133 l 1.469 -0.035" fill="#131414"/></svg>