<svg xmlns="http://www.w3.org/2000/svg" viewBox="0 0 32 32"><path d="m 16.805 0.453 c 43.38 19.281 -20.266 53.938 -16.656 10.977 c 0.844 -6.465 7.527 -13.258 16.656 -10.977" fill="#9931cc"/><g fill="#fff" fill-rule="evenodd"><path d="m 8.887 25.406 c 0 -0.043 -0.035 -0.078 -0.078 -0.078 c -0.043 0 -0.078 -0.035 -0.078 -0.074 c 0 -0.043 -0.035 -0.078 -0.078 -0.078 c -0.043 0 -0.078 -0.035 -0.078 -0.078 c 0 -0.043 -0.023 -0.078 -0.051 -0.078 c -0.031 0 -0.07 0.035 -0.086 0.078 c -0.02 0.051 -0.098 0.078 -0.23 0.078 c -0.145 0 -0.203 -0.023 -0.203 -0.078 c 0 -0.043 -0.035 -0.078 -0.078 -0.078 c -0.043 0 -0.074 -0.027 -0.074 -0.055 c 0 -0.074 -0.133 -0.207 -0.207 -0.207 c -0.027 0 -0.055 -0.031 -0.055 -0.074 c 0 -0.043 -0.035 -0.078 -0.078 -0.078 c -0.043 0 -0.078 -0.035 -0.078 -0.078 c 0 -0.043 -0.035 -0.078 -0.078 -0.078 c -0.039 0 -0.074 -0.035 -0.074 -0.078 c 0 -0.043 -0.035 -0.078 -0.078 -0.078 c -0.043 0 -0.078 -0.023 -0.078 -0.055 c 0 -0.074 -0.133 -0.203 -0.203 -0.203 c -0.031 0 -0.059 -0.035 -0.059 -0.078 c 0 -0.043 0.035 -0.078 0.078 -0.078 c 0.043 0 0.078 -0.035 0.078 -0.078 c 0 -0.043 -0.035 -0.078 -0.078 -0.078 c -0.043 0 -0.078 -0.035 -0.078 -0.078 c 0 -0.043 -0.035 -0.078 -0.074 -0.078 c -0.043 0 -0.078 -0.035 -0.078 -0.078 c 0 -0.043 -0.035 -0.078 -0.078 -0.078 c -0.063 0 -0.078 -0.074 -0.078 -0.359 c 0 -0.289 0.016 -0.363 0.078 -0.363 c 0.043 0 0.078 -0.023 0.078 -0.055 c 0 -0.027 -0.035 -0.051 -0.078 -0.051 c -0.043 0 -0.078 -0.035 -0.078 -0.082 c 0 -0.094 -0.121 -0.227 -0.203 -0.227 c -0.035 0 -0.059 -0.141 -0.059 -0.359 c 0 -0.336 0.008 -0.359 0.133 -0.391 c 0.125 -0.031 0.129 -0.047 0.129 -0.445 c 0 -0.402 0.004 -0.414 0.121 -0.414 c 0.137 0 0.188 -0.109 0.188 -0.395 c 0 -0.133 0.027 -0.172 0.133 -0.195 c 0.094 -0.023 0.129 -0.066 0.129 -0.164 c 0 -0.078 0.027 -0.125 0.078 -0.125 c 0.043 0 0.078 -0.035 0.078 -0.078 c 0 -0.043 -0.035 -0.078 -0.078 -0.078 c -0.043 0 -0.078 -0.035 -0.078 -0.078 c 0 -0.051 0.051 -0.078 0.156 -0.078 c 0.129 0 0.152 -0.02 0.152 -0.129 c 0 -0.082 0.031 -0.129 0.078 -0.129 c 0.043 0 0.078 -0.047 0.078 -0.105 c 0 -0.059 -0.035 -0.105 -0.078 -0.105 c -0.043 0 -0.078 -0.023 -0.078 -0.051 c 0 -0.027 0.059 -0.051 0.125 -0.051 c 0.09 0 0.133 -0.035 0.156 -0.129 c 0.02 -0.074 0.055 -0.129 0.086 -0.129 c 0.027 0 0.051 -0.105 0.051 -0.234 c 0 -0.172 0.02 -0.234 0.074 -0.234 c 0.043 0 0.078 -0.035 0.078 -0.078 c 0 -0.043 0.035 -0.078 0.078 -0.078 c 0.043 0 0.078 -0.035 0.078 -0.078 c 0 -0.043 0.035 -0.074 0.078 -0.074 c 0.043 0 0.078 -0.023 0.078 -0.055 c 0 -0.027 0.035 -0.051 0.078 -0.051 c 0.043 0 0.078 -0.035 0.078 -0.078 c 0 -0.043 0.023 -0.078 0.051 -0.078 c 0.027 0 0.051 -0.035 0.051 -0.078 c 0 -0.043 0.035 -0.078 0.078 -0.078 c 0.059 0 0.078 -0.059 0.078 -0.23 c 0 -0.176 0.02 -0.234 0.078 -0.234 c 0.043 0 0.078 -0.023 0.078 -0.051 c 0 -0.031 0.035 -0.055 0.078 -0.055 c 0.043 0 0.078 -0.035 0.078 -0.078 c 0 -0.043 0.023 -0.074 0.051 -0.074 c 0.027 0 0.051 -0.035 0.051 -0.078 c 0 -0.043 0.035 -0.078 0.078 -0.078 c 0.043 0 0.078 -0.035 0.078 -0.078 c 0 -0.043 0.035 -0.078 0.078 -0.078 c 0.043 0 0.078 -0.035 0.078 -0.078 c 0 -0.043 0.035 -0.078 0.078 -0.078 c 0.043 0 0.078 -0.035 0.078 -0.078 c 0 -0.043 0.023 -0.078 0.055 -0.078 c 0.117 0 0.203 -0.156 0.203 -0.359 c 0 -0.152 0.023 -0.211 0.078 -0.211 c 0.043 0 0.078 -0.035 0.078 -0.078 c 0 -0.039 0.035 -0.074 0.078 -0.074 c 0.055 0 0.078 -0.059 0.078 -0.188 c 0 -0.129 0.039 -0.219 0.129 -0.301 c 0.07 -0.066 0.129 -0.148 0.129 -0.18 c 0 -0.031 0.035 -0.059 0.078 -0.059 c 0.043 0 0.078 -0.035 0.078 -0.078 c 0 -0.059 0.059 -0.078 0.234 -0.078 h 0.23 v -0.211 c 0 -0.23 0.09 -0.359 0.258 -0.359 c 0.059 0 0.105 -0.035 0.105 -0.078 c 0 -0.043 -0.023 -0.078 -0.051 -0.078 c -0.027 0 -0.051 -0.047 -0.051 -0.102 c 0 -0.109 0.168 -0.313 0.258 -0.313 c 0.027 0 0.051 -0.035 0.051 -0.082 c 0 -0.121 0.133 -0.23 0.281 -0.23 c 0.121 0 0.133 0.02 0.133 0.211 c 0 0.148 -0.02 0.207 -0.074 0.207 c -0.043 0 -0.078 0.035 -0.078 0.078 c 0 0.039 -0.035 0.074 -0.078 0.074 c -0.063 0 -0.078 0.078 -0.078 0.391 c 0 0.219 -0.023 0.387 -0.051 0.387 c -0.027 0 -0.066 0.059 -0.086 0.133 c -0.016 0.07 -0.063 0.129 -0.102 0.129 c -0.051 0 -0.074 0.063 -0.074 0.207 c 0 0.113 -0.023 0.207 -0.051 0.207 c -0.027 0 -0.051 0.035 -0.051 0.078 c 0 0.043 -0.035 0.078 -0.078 0.078 c -0.066 0 -0.078 0.109 -0.078 0.672 c 0 0.566 0.012 0.676 0.078 0.676 c 0.043 0 0.078 0.035 0.078 0.078 c 0 0.043 0.023 0.078 0.051 0.078 c 0.027 0 0.051 0.094 0.051 0.207 c 0 0.148 0.023 0.207 0.078 0.207 c 0.043 0 0.078 0.035 0.078 0.078 c 0 0.043 0.035 0.078 0.078 0.078 c 0.059 0 0.078 0.059 0.078 0.23 c 0 0.176 0.02 0.234 0.078 0.234 c 0.043 0 0.078 0.023 0.078 0.051 c 0 0.031 0.035 0.055 0.078 0.055 c 0.055 0 0.074 0.059 0.074 0.23 c 0 0.129 0.023 0.234 0.055 0.234 c 0.027 0 0.051 0.035 0.051 0.078 c 0 0.043 0.035 0.078 0.078 0.078 c 0.055 0 0.078 0.059 0.078 0.207 c 0 0.148 0.02 0.207 0.078 0.207 c 0.047 0 0.078 0.051 0.078 0.129 c 0 0.082 0.027 0.129 0.074 0.129 c 0.066 0 0.078 0.094 0.078 0.52 c 0 0.426 0.016 0.52 0.078 0.52 c 0.043 0 0.078 0.035 0.078 0.078 c 0 0.043 0.023 0.078 0.051 0.078 c 0.031 0 0.055 0.207 0.055 0.516 c 0 0.426 0.012 0.52 0.078 0.52 c 0.043 0 0.078 0.035 0.078 0.078 c 0 0.043 0.035 0.078 0.074 0.078 c 0.066 0 0.078 0.105 0.078 0.648 c 0 0.539 -0.012 0.648 -0.078 0.648 c -0.051 0 -0.074 0.051 -0.074 0.152 c 0 0.105 -0.027 0.156 -0.078 0.156 c -0.059 0 -0.078 0.059 -0.078 0.207 c 0 0.113 -0.023 0.207 -0.055 0.207 c -0.027 0 -0.051 0.035 -0.051 0.078 c 0 0.043 -0.035 0.078 -0.078 0.078 c -0.043 0 -0.078 0.035 -0.078 0.078 c 0 0.043 -0.035 0.078 -0.078 0.078 c -0.039 0 -0.074 0.035 -0.074 0.078 c 0 0.043 -0.035 0.078 -0.078 0.078 c -0.043 0 -0.078 0.023 -0.078 0.051 c 0 0.027 -0.035 0.051 -0.078 0.051 c -0.043 0 -0.078 0.035 -0.078 0.078 c 0 0.043 -0.023 0.078 -0.051 0.078 c -0.031 0 -0.055 0.035 -0.055 0.078 c 0 0.043 -0.035 0.078 -0.074 0.078 c -0.043 0 -0.078 0.035 -0.078 0.078 c 0 0.043 -0.035 0.078 -0.078 0.078 c -0.043 0 -0.078 0.035 -0.078 0.078 c 0 0.043 -0.035 0.078 -0.074 0.078 c -0.039 0 -0.086 0.027 -0.105 0.063 c -0.023 0.051 -0.035 0.051 -0.059 0 c -0.035 -0.074 -0.176 -0.086 -0.176 -0.016 c 0 0.027 -0.066 0.055 -0.145 0.066 c -0.109 0.012 -0.145 0.047 -0.16 0.156 c -0.016 0.141 -0.023 0.145 -0.328 0.145 c -0.238 0 -0.332 -0.023 -0.387 -0.09 c -0.066 -0.086 -0.074 -0.086 -0.152 0.012 c -0.059 0.07 -0.094 0.082 -0.109 0.039 c -0.031 -0.078 -0.172 -0.09 -0.172 -0.016 c 0 0.031 0.035 0.055 0.078 0.055 c 0.043 0 0.078 0.035 0.078 0.078 c 0 0.043 -0.035 0.078 -0.078 0.078 c -0.043 0 -0.078 0.035 -0.078 0.074 c 0 0.066 -0.09 0.078 -0.492 0.078 c -0.402 0 -0.492 -0.012 -0.492 -0.078 m -0.777 -0.594 c 0 -0.031 -0.023 -0.055 -0.051 -0.055 c -0.031 0 -0.055 0.023 -0.055 0.055 c 0 0.027 0.023 0.051 0.055 0.051 c 0.027 0 0.051 -0.023 0.051 -0.051 m -0.258 -0.285 c 0 -0.043 -0.023 -0.078 -0.055 -0.078 c -0.027 0 -0.051 0.035 -0.051 0.078 c 0 0.043 0.023 0.078 0.051 0.078 c 0.031 0 0.055 -0.035 0.055 -0.078 m -0.313 -0.285 c 0 -0.031 -0.023 -0.055 -0.051 -0.055 c -0.031 0 -0.055 0.023 -0.055 0.055 c 0 0.027 0.023 0.051 0.055 0.051 c 0.027 0 0.051 -0.023 0.051 -0.051 m 2.332 -0.207 c 0 -0.141 0.016 -0.156 0.156 -0.156 c 0.102 0 0.156 -0.027 0.156 -0.078 c 0 -0.043 0.035 -0.078 0.078 -0.078 c 0.047 0 0.074 -0.051 0.074 -0.133 c 0 -0.07 -0.031 -0.145 -0.074 -0.16 c -0.043 -0.016 -0.078 -0.063 -0.078 -0.105 c 0 -0.059 -0.039 -0.066 -0.156 -0.043 c -0.148 0.031 -0.156 0.027 -0.156 -0.125 c 0 -0.152 -0.012 -0.16 -0.207 -0.16 c -0.148 0 -0.207 0.023 -0.207 0.078 c 0 0.043 -0.035 0.078 -0.078 0.078 c -0.043 0 -0.078 0.023 -0.078 0.051 c 0 0.031 -0.035 0.055 -0.078 0.055 c -0.043 0 -0.078 0.035 -0.078 0.078 c 0 0.043 -0.035 0.078 -0.078 0.078 c -0.051 0 -0.078 0.051 -0.078 0.152 c 0 0.105 0.027 0.156 0.078 0.156 c 0.043 0 0.078 0.035 0.078 0.078 c 0 0.043 0.035 0.078 0.078 0.078 c 0.043 0 0.078 0.035 0.078 0.078 c 0 0.043 0.035 0.078 0.078 0.078 c 0.043 0 0.078 0.035 0.078 0.078 c 0 0.055 0.059 0.078 0.207 0.078 c 0.195 0 0.207 -0.012 0.207 -0.156 m -2.59 -0.078 c 0 -0.043 -0.035 -0.078 -0.078 -0.078 c -0.043 0 -0.078 0.035 -0.078 0.078 c 0 0.043 0.035 0.078 0.078 0.078 c 0.043 0 0.078 -0.035 0.078 -0.078 m 1.449 -1.688 c 0 -0.137 -0.016 -0.152 -0.156 -0.152 c -0.172 0 -0.203 0.098 -0.074 0.227 c 0.133 0.133 0.23 0.102 0.23 -0.074 m -0.258 -0.672 c 0 -0.086 -0.035 -0.105 -0.184 -0.105 c -0.145 0 -0.18 0.02 -0.18 0.105 c 0 0.082 0.035 0.102 0.18 0.102 c 0.148 0 0.184 -0.02 0.184 -0.102 m 0 -0.57 c 0 -0.082 -0.035 -0.105 -0.184 -0.105 c -0.145 0 -0.18 0.023 -0.18 0.105 c 0 0.082 0.035 0.105 0.18 0.105 c 0.148 0 0.184 -0.023 0.184 -0.105 m 0 -0.598 c 0 -0.043 -0.027 -0.078 -0.059 -0.078 c -0.035 0 -0.09 -0.035 -0.125 -0.082 c -0.078 -0.113 -0.18 -0.051 -0.18 0.113 c 0 0.109 0.023 0.125 0.18 0.125 c 0.129 0 0.184 -0.023 0.184 -0.078 m 0.258 -0.645 c 0 -0.141 -0.016 -0.156 -0.156 -0.156 c -0.137 0 -0.156 0.016 -0.156 0.156 c 0 0.137 0.02 0.152 0.156 0.152 c 0.141 0 0.156 -0.016 0.156 -0.152 m 0.313 -0.57 c 0 -0.133 0.02 -0.156 0.129 -0.156 c 0.109 0 0.129 -0.023 0.129 -0.156 c 0 -0.137 -0.016 -0.156 -0.156 -0.156 c -0.129 0 -0.156 0.02 -0.156 0.129 c 0 0.105 -0.023 0.133 -0.129 0.133 c -0.113 0 -0.129 0.02 -0.129 0.18 c 0 0.168 0.012 0.18 0.156 0.18 c 0.137 0 0.156 -0.016 0.156 -0.152 m -1.191 -0.262 c 0 -0.027 -0.023 -0.051 -0.055 -0.051 c -0.027 0 -0.051 0.023 -0.051 0.051 c 0 0.031 0.023 0.055 0.051 0.055 c 0.031 0 0.055 -0.023 0.055 -0.055 m 0.258 -0.57 c 0 -0.027 -0.023 -0.051 -0.051 -0.051 c -0.031 0 -0.055 0.023 -0.055 0.051 c 0 0.031 0.023 0.055 0.055 0.055 c 0.027 0 0.051 -0.023 0.051 -0.055 m 0.309 -0.285 c 0 -0.043 -0.023 -0.078 -0.051 -0.078 c -0.027 0 -0.051 0.035 -0.051 0.078 c 0 0.043 0.023 0.078 0.051 0.078 c 0.027 0 0.051 -0.035 0.051 -0.078"/><path d="m 20.14 24.527 c 0 -0.043 -0.035 -0.078 -0.078 -0.078 c -0.043 0 -0.078 -0.035 -0.078 -0.078 c 0 -0.043 -0.035 -0.078 -0.078 -0.078 c -0.043 0 -0.078 -0.035 -0.078 -0.078 c 0 -0.043 -0.023 -0.074 -0.051 -0.074 c -0.031 0 -0.055 -0.094 -0.055 -0.211 v -0.207 h -0.23 c -0.227 0 -0.234 -0.004 -0.234 -0.152 c 0 -0.133 -0.02 -0.156 -0.129 -0.156 c -0.082 0 -0.129 -0.031 -0.129 -0.078 c 0 -0.043 -0.035 -0.078 -0.078 -0.078 c -0.043 0 -0.078 -0.023 -0.078 -0.051 c 0 -0.031 -0.035 -0.055 -0.078 -0.055 c -0.051 0 -0.078 -0.051 -0.078 -0.152 c 0 -0.105 -0.027 -0.156 -0.078 -0.156 c -0.051 0 -0.078 -0.055 -0.078 -0.156 c 0 -0.086 -0.023 -0.156 -0.051 -0.156 c -0.027 0 -0.051 -0.035 -0.051 -0.078 c 0 -0.043 -0.035 -0.078 -0.078 -0.078 c -0.043 0 -0.078 -0.023 -0.078 -0.051 c 0 -0.027 -0.035 -0.051 -0.078 -0.051 c -0.051 0 -0.078 -0.055 -0.078 -0.156 c 0 -0.133 -0.02 -0.156 -0.129 -0.156 h -0.129 v -2.488 h 0.129 c 0.102 0 0.129 -0.023 0.129 -0.129 c 0 -0.086 0.027 -0.129 0.086 -0.129 c 0.063 0 0.074 -0.035 0.051 -0.156 c -0.023 -0.113 -0.012 -0.156 0.039 -0.156 c 0.039 0 0.086 -0.059 0.105 -0.129 c 0.016 -0.07 0.055 -0.129 0.082 -0.129 c 0.027 0 0.051 -0.082 0.051 -0.184 c 0 -0.098 -0.023 -0.18 -0.051 -0.18 c -0.027 0 -0.051 -0.059 -0.051 -0.129 c 0 -0.109 -0.027 -0.129 -0.156 -0.129 c -0.105 0 -0.156 -0.027 -0.156 -0.078 c 0 -0.055 -0.051 -0.078 -0.156 -0.078 c -0.102 0 -0.156 0.023 -0.156 0.078 c 0 0.043 -0.035 0.078 -0.078 0.078 c -0.039 0 -0.074 0.035 -0.074 0.078 c 0 0.039 -0.035 0.074 -0.078 0.074 c -0.043 0 -0.078 0.023 -0.078 0.051 c 0 0.031 -0.059 0.066 -0.129 0.086 c -0.094 0.023 -0.133 0.066 -0.133 0.156 c 0 0.074 -0.027 0.125 -0.078 0.125 c -0.051 0 -0.074 0.051 -0.074 0.152 c 0 0.105 0.023 0.156 0.074 0.156 c 0.063 0 0.078 0.066 0.078 0.285 c 0 0.219 -0.016 0.285 -0.078 0.285 c -0.039 0 -0.074 0.035 -0.074 0.078 c 0 0.043 -0.035 0.078 -0.078 0.078 c -0.043 0 -0.078 0.023 -0.078 0.055 c 0 0.074 -0.133 0.203 -0.203 0.203 c -0.031 0 -0.059 0.035 -0.059 0.078 c 0 0.043 -0.035 0.078 -0.074 0.078 c -0.043 0 -0.078 0.035 -0.078 0.078 c 0 0.043 -0.035 0.078 -0.078 0.078 c -0.043 0 -0.078 0.035 -0.078 0.078 c 0 0.043 -0.035 0.078 -0.078 0.078 c -0.043 0 -0.078 0.035 -0.078 0.078 c 0 0.043 -0.023 0.078 -0.051 0.078 c -0.031 0 -0.055 0.035 -0.055 0.074 c 0 0.063 -0.063 0.078 -0.281 0.078 c -0.262 0 -0.289 0.012 -0.316 0.133 c -0.035 0.129 -0.039 0.129 -0.625 0.129 c -0.566 0 -0.602 -0.008 -0.715 -0.129 c -0.066 -0.074 -0.145 -0.133 -0.18 -0.133 c -0.031 0 -0.059 -0.035 -0.059 -0.078 c 0 -0.039 -0.023 -0.074 -0.051 -0.074 c -0.027 0 -0.051 -0.035 -0.051 -0.078 c 0 -0.043 -0.035 -0.078 -0.078 -0.078 c -0.043 0 -0.078 -0.035 -0.078 -0.078 c 0 -0.043 0.023 -0.078 0.051 -0.078 c 0.031 0 0.051 -0.156 0.051 -0.363 c 0 -0.207 -0.02 -0.363 -0.051 -0.363 c -0.027 0 -0.051 -0.059 -0.051 -0.129 c 0 -0.082 0.027 -0.129 0.078 -0.129 c 0.043 0 0.078 -0.035 0.078 -0.078 c 0 -0.043 0.023 -0.078 0.051 -0.078 c 0.027 0 0.051 -0.035 0.051 -0.078 c 0 -0.043 0.035 -0.078 0.078 -0.078 c 0.063 0 0.078 -0.074 0.078 -0.363 c 0 -0.285 0.016 -0.363 0.078 -0.363 c 0.043 0 0.078 -0.035 0.078 -0.074 c 0 -0.043 0.035 -0.078 0.078 -0.078 c 0.063 0 0.078 -0.078 0.078 -0.363 c 0 -0.207 0.02 -0.363 0.051 -0.363 c 0.027 0 0.051 -0.035 0.051 -0.078 c 0 -0.059 0.066 -0.078 0.281 -0.078 c 0.254 0 0.281 -0.012 0.313 -0.129 c 0.016 -0.07 0.055 -0.129 0.082 -0.129 c 0.027 0 0.051 -0.035 0.051 -0.078 c 0 -0.043 0.035 -0.078 0.078 -0.078 c 0.043 0 0.078 -0.035 0.078 -0.078 c 0 -0.043 0.035 -0.078 0.078 -0.078 c 0.043 0 0.078 -0.035 0.078 -0.078 c 0 -0.043 0.035 -0.078 0.078 -0.078 c 0.039 0 0.074 -0.035 0.074 -0.078 c 0 -0.063 0.078 -0.078 0.363 -0.078 h 0.363 v -0.285 c 0 -0.219 -0.016 -0.285 -0.078 -0.285 c -0.043 0 -0.078 -0.035 -0.078 -0.074 c 0 -0.066 -0.09 -0.078 -0.516 -0.078 c -0.52 0 -0.52 0 -0.52 0.129 c 0 0.125 -0.012 0.129 -0.359 0.129 c -0.238 0 -0.363 -0.02 -0.379 -0.066 c -0.016 -0.035 -0.043 -0.043 -0.07 -0.016 c -0.027 0.023 -0.02 0.055 0.02 0.066 c 0.098 0.035 0.086 0.48 -0.016 0.48 c -0.043 0 -0.078 0.035 -0.078 0.078 c 0 0.066 -0.129 0.078 -0.852 0.078 c -0.727 0 -0.855 -0.012 -0.855 -0.078 c 0 -0.043 -0.035 -0.078 -0.078 -0.078 c -0.043 0 -0.078 -0.035 -0.078 -0.078 c 0 -0.039 0.035 -0.074 0.078 -0.074 c 0.043 0 0.078 -0.023 0.078 -0.055 c 0 -0.027 -0.035 -0.051 -0.078 -0.051 c -0.043 0 -0.078 0.023 -0.078 0.051 c 0 0.031 -0.023 0.055 -0.055 0.055 c -0.027 0 -0.051 -0.035 -0.051 -0.078 c 0 -0.043 -0.035 -0.078 -0.078 -0.078 c -0.055 0 -0.078 -0.059 -0.078 -0.207 c 0 -0.152 0.023 -0.207 0.078 -0.207 c 0.043 0 0.078 -0.027 0.078 -0.059 c 0 -0.07 0.133 -0.203 0.203 -0.203 c 0.031 0 0.059 -0.035 0.059 -0.078 c 0 -0.043 0.031 -0.078 0.074 -0.078 c 0.043 0 0.078 -0.031 0.078 -0.074 c 0 -0.043 0.035 -0.078 0.078 -0.078 c 0.043 0 0.078 -0.035 0.078 -0.078 c 0 -0.043 0.035 -0.078 0.078 -0.078 c 0.043 0 0.078 -0.035 0.078 -0.078 c 0 -0.047 0.047 -0.078 0.129 -0.078 c 0.105 0 0.129 -0.027 0.129 -0.129 c 0 -0.082 0.031 -0.129 0.078 -0.129 c 0.055 0 0.078 -0.055 0.078 -0.184 c 0 -0.125 -0.023 -0.18 -0.078 -0.18 c -0.047 0 -0.078 -0.051 -0.078 -0.129 c 0 -0.082 0.031 -0.133 0.078 -0.133 c 0.051 0 0.078 -0.047 0.078 -0.129 c 0 -0.121 0.016 -0.129 0.285 -0.129 c 0.281 0 0.285 0 0.285 -0.156 c 0 -0.152 0.004 -0.156 0.285 -0.156 c 0.219 0 0.285 -0.016 0.285 -0.074 c 0 -0.043 0.035 -0.078 0.078 -0.078 c 0.043 0 0.078 -0.035 0.078 -0.078 c 0 -0.063 0.074 -0.078 0.363 -0.078 c 0.207 0 0.363 -0.023 0.363 -0.051 c 0 -0.031 0.035 -0.055 0.078 -0.055 c 0.043 0 0.078 -0.035 0.078 -0.078 c 0 -0.055 0.055 -0.078 0.207 -0.078 c 0.172 0 0.207 -0.016 0.207 -0.102 c 0 -0.098 -0.035 -0.105 -0.52 -0.105 c -0.426 0 -0.52 0.016 -0.52 0.078 c 0 0.043 -0.035 0.078 -0.078 0.078 c -0.043 0 -0.078 0.035 -0.078 0.078 c 0 0.063 -0.086 0.078 -0.492 0.078 c -0.402 0 -0.492 0.016 -0.492 0.078 c 0 0.043 -0.035 0.078 -0.078 0.078 c -0.039 0 -0.074 0.035 -0.074 0.078 c 0 0.063 -0.113 0.078 -0.703 0.078 c -0.586 0 -0.699 -0.016 -0.699 -0.078 c 0 -0.043 -0.035 -0.078 -0.078 -0.078 c -0.043 0 -0.078 -0.035 -0.078 -0.078 c 0 -0.063 -0.074 -0.078 -0.387 -0.078 c -0.313 0 -0.391 0.016 -0.391 0.078 c 0 0.043 -0.023 0.078 -0.051 0.078 c -0.027 0 -0.051 0.035 -0.051 0.078 c 0 0.063 -0.105 0.078 -0.648 0.078 c -0.543 0 -0.648 -0.016 -0.648 -0.078 c 0 -0.043 -0.035 -0.078 -0.078 -0.078 c -0.043 0 -0.078 -0.035 -0.078 -0.078 c 0 -0.063 -0.086 -0.078 -0.484 -0.078 c -0.387 0 -0.496 -0.016 -0.52 -0.078 c -0.016 -0.043 -0.086 -0.078 -0.16 -0.078 c -0.082 0 -0.129 -0.027 -0.129 -0.078 c 0 -0.063 -0.09 -0.078 -0.492 -0.078 c -0.297 0 -0.496 -0.02 -0.496 -0.051 c 0 -0.027 -0.035 -0.051 -0.074 -0.051 c -0.043 0 -0.078 -0.035 -0.078 -0.078 c 0 -0.055 -0.059 -0.078 -0.207 -0.078 c -0.152 0 -0.211 -0.02 -0.211 -0.078 c 0 -0.043 -0.031 -0.078 -0.074 -0.078 c -0.043 0 -0.078 -0.035 -0.078 -0.078 c 0 -0.043 -0.035 -0.078 -0.078 -0.078 c -0.043 0 -0.078 -0.035 -0.078 -0.074 c 0 -0.043 -0.035 -0.078 -0.078 -0.078 c -0.063 0 -0.078 -0.078 -0.078 -0.363 c 0 -0.289 0.016 -0.363 0.078 -0.363 c 0.043 0 0.078 -0.023 0.078 -0.051 c 0 -0.031 0.094 -0.055 0.207 -0.055 c 0.148 0 0.207 0.023 0.207 0.078 c 0 0.043 0.035 0.078 0.078 0.078 c 0.043 0 0.078 0.023 0.078 0.051 c 0 0.031 0.129 0.055 0.285 0.055 c 0.281 0 0.285 0 0.285 0.152 c 0 0.156 0.004 0.156 0.285 0.156 c 0.219 0 0.285 0.02 0.285 0.078 c 0 0.043 0.035 0.078 0.078 0.078 c 0.043 0 0.078 0.035 0.078 0.078 c 0 0.063 0.086 0.078 0.492 0.078 c 0.402 0 0.492 0.012 0.492 0.078 c 0 0.043 0.035 0.078 0.078 0.078 c 0.043 0 0.078 0.023 0.078 0.051 c 0 0.031 0.207 0.051 0.516 0.051 c 0.426 0 0.52 0.016 0.52 0.078 c 0 0.043 0.023 0.078 0.051 0.078 c 0.031 0 0.051 0.035 0.051 0.078 c 0 0.066 0.152 0.078 1.039 0.078 c 0.887 0 1.035 -0.012 1.035 -0.078 c 0 -0.043 0.035 -0.078 0.078 -0.078 c 0.043 0 0.078 -0.035 0.078 -0.078 c 0 -0.066 0.172 -0.078 1.219 -0.078 c 0.777 0 1.219 -0.02 1.219 -0.051 c 0 -0.027 0.035 -0.051 0.078 -0.051 c 0.043 0 0.078 -0.035 0.078 -0.078 c 0 -0.063 0.074 -0.078 0.359 -0.078 c 0.289 0 0.363 -0.016 0.363 -0.078 c 0 -0.047 0.051 -0.078 0.133 -0.078 c 0.125 0 0.129 -0.004 0.129 -0.438 v -0.438 l 0.141 -0.016 c 0.133 -0.016 0.145 -0.035 0.16 -0.285 c 0.012 -0.234 0.031 -0.27 0.141 -0.297 c 0.094 -0.023 0.129 -0.066 0.129 -0.16 c 0 -0.082 0.027 -0.129 0.078 -0.129 c 0.043 0 0.074 -0.035 0.074 -0.078 c 0 -0.043 0.035 -0.078 0.078 -0.078 c 0.043 0 0.078 -0.035 0.078 -0.078 c 0 -0.051 0.055 -0.078 0.156 -0.078 c 0.133 0 0.156 -0.02 0.156 -0.129 c 0 -0.07 0.023 -0.129 0.051 -0.129 c 0.074 0 0.066 -0.191 -0.012 -0.23 c -0.051 -0.023 -0.051 -0.035 0 -0.059 c 0.035 -0.016 0.063 -0.063 0.063 -0.105 c 0 -0.039 0.035 -0.07 0.078 -0.07 c 0.043 0 0.078 -0.035 0.078 -0.078 c 0 -0.059 0.059 -0.078 0.207 -0.078 c 0.207 0 0.207 0 0.207 -0.207 c 0 -0.152 0.023 -0.207 0.078 -0.207 c 0.043 0 0.078 -0.035 0.078 -0.078 c 0 -0.063 0.066 -0.078 0.285 -0.078 c 0.281 0 0.285 -0.004 0.285 -0.156 c 0 -0.133 0.02 -0.156 0.129 -0.156 c 0.109 0 0.133 0.023 0.133 0.152 c 0 0.082 -0.031 0.16 -0.066 0.172 c -0.039 0.016 -0.047 0.043 -0.02 0.07 c 0.027 0.027 0.055 0.02 0.07 -0.02 c 0.035 -0.098 0.48 -0.086 0.48 0.016 c 0 0.043 0.035 0.078 0.078 0.078 c 0.043 0 0.078 0.031 0.078 0.074 c 0 0.043 0.023 0.078 0.051 0.078 c 0.027 0 0.051 0.035 0.051 0.078 c 0 0.043 0.035 0.078 0.078 0.078 c 0.059 0 0.078 0.059 0.078 0.207 c 0 0.152 0.023 0.207 0.078 0.207 c 0.043 0 0.078 0.035 0.078 0.078 c 0 0.043 0.035 0.078 0.078 0.078 c 0.063 0 0.078 0.098 0.078 0.57 c 0 0.473 -0.016 0.57 -0.078 0.57 c -0.043 0 -0.078 0.035 -0.078 0.078 c 0 0.043 -0.035 0.078 -0.078 0.078 c -0.063 0 -0.078 0.09 -0.078 0.52 v 0.516 h 0.391 c 0.309 0 0.387 -0.016 0.387 -0.078 c 0 -0.043 0.023 -0.078 0.055 -0.078 c 0.027 0 0.051 -0.035 0.051 -0.074 c 0 -0.043 0.035 -0.078 0.078 -0.078 c 0.043 0 0.078 -0.023 0.078 -0.055 c 0 -0.027 0.035 -0.051 0.074 -0.051 c 0.043 0 0.078 -0.035 0.078 -0.078 c 0 -0.043 0.035 -0.078 0.078 -0.078 c 0.043 0 0.078 -0.035 0.078 -0.078 c 0 -0.043 0.023 -0.078 0.051 -0.078 c 0.031 0 0.055 -0.031 0.055 -0.074 c 0 -0.043 0.035 -0.078 0.078 -0.078 c 0.043 0 0.078 -0.035 0.078 -0.078 c 0 -0.047 0.047 -0.078 0.121 -0.078 c 0.09 0 0.133 0.035 0.156 0.129 c 0.02 0.078 0.082 0.141 0.164 0.16 c 0.07 0.02 0.129 0.066 0.129 0.105 c 0 0.051 0.063 0.07 0.207 0.07 c 0.148 0 0.207 0.023 0.207 0.078 c 0 0.043 0.035 0.078 0.078 0.078 c 0.043 0 0.078 0.023 0.078 0.051 c 0 0.031 0.09 0.055 0.207 0.055 c 0.148 0 0.207 0.02 0.207 0.078 c 0 0.039 0.031 0.074 0.07 0.074 c 0.039 0 0.086 0.059 0.105 0.129 c 0.02 0.082 0.082 0.145 0.16 0.164 c 0.07 0.016 0.129 0.063 0.129 0.102 c 0 0.043 0.035 0.074 0.078 0.074 c 0.043 0 0.078 0.023 0.078 0.055 c 0 0.07 0.133 0.203 0.203 0.203 c 0.039 0 0.055 0.371 0.055 1.168 c 0 1 -0.012 1.164 -0.078 1.164 c -0.043 0 -0.078 0.035 -0.078 0.078 c 0 0.043 -0.023 0.078 -0.051 0.078 c -0.027 0 -0.051 0.035 -0.051 0.078 c 0 0.043 -0.035 0.078 -0.078 0.078 c -0.043 0 -0.078 -0.035 -0.078 -0.078 c 0 -0.043 -0.035 -0.078 -0.078 -0.078 c -0.043 0 -0.078 0.035 -0.078 0.078 c 0 0.043 0.035 0.078 0.078 0.078 c 0.059 0 0.078 0.059 0.078 0.207 c 0 0.148 -0.02 0.207 -0.078 0.207 c -0.043 0 -0.078 0.035 -0.078 0.078 c 0 0.059 -0.066 0.078 -0.285 0.078 c -0.281 0 -0.285 0 -0.285 0.156 c 0 0.145 -0.012 0.156 -0.207 0.156 c -0.148 0 -0.207 -0.023 -0.207 -0.078 c 0 -0.043 -0.035 -0.078 -0.078 -0.078 c -0.059 0 -0.078 -0.063 -0.078 -0.234 c 0 -0.133 -0.023 -0.234 -0.055 -0.234 c -0.07 0 -0.203 -0.129 -0.203 -0.203 c 0 -0.031 -0.035 -0.055 -0.078 -0.055 c -0.043 0 -0.078 -0.035 -0.078 -0.078 c 0 -0.043 0.035 -0.078 0.078 -0.078 c 0.043 0 0.078 -0.035 0.078 -0.078 c 0 -0.043 -0.035 -0.078 -0.078 -0.078 c -0.043 0 -0.078 -0.035 -0.078 -0.078 c 0 -0.039 -0.035 -0.074 -0.078 -0.074 c -0.043 0 -0.078 0.035 -0.078 0.074 c 0 0.066 -0.082 0.078 -0.438 0.078 c -0.359 0 -0.441 -0.012 -0.441 -0.078 c 0 -0.039 -0.035 -0.074 -0.078 -0.074 c -0.043 0 -0.078 0.035 -0.078 0.074 c 0 0.055 -0.051 0.078 -0.156 0.078 c -0.137 0 -0.156 0.02 -0.156 0.156 c 0 0.086 -0.023 0.156 -0.051 0.156 c -0.027 0 -0.051 0.07 -0.051 0.156 c 0 0.086 0.023 0.156 0.051 0.156 c 0.027 0 0.051 0.07 0.051 0.152 c 0 0.141 0.02 0.156 0.156 0.156 c 0.086 0 0.156 0.023 0.156 0.051 c 0 0.031 0.156 0.055 0.363 0.055 c 0.289 0 0.363 0.016 0.363 0.078 c 0 0.043 0.035 0.078 0.078 0.078 c 0.043 0 0.078 0.035 0.078 0.074 c 0 0.043 0.035 0.078 0.074 0.078 c 0.043 0 0.078 0.035 0.078 0.074 c 0 0.043 0.031 0.086 0.066 0.105 c 0.051 0.023 0.051 0.035 0 0.059 c -0.078 0.035 -0.086 0.18 -0.012 0.18 c 0.027 0 0.051 0.066 0.051 0.152 c 0 0.141 0.016 0.156 0.156 0.156 c 0.152 0 0.152 0.004 0.152 0.285 c 0 0.27 0.008 0.285 0.133 0.285 c 0.078 0 0.129 0.031 0.129 0.078 c 0 0.043 0.035 0.078 0.078 0.078 c 0.043 0 0.078 0.035 0.078 0.078 c 0 0.043 0.035 0.078 0.078 0.078 c 0.063 0 0.074 0.082 0.074 0.441 v 0.438 h 0.313 v 2.898 l -0.141 0.016 c -0.133 0.016 -0.145 0.035 -0.16 0.289 c -0.012 0.195 -0.035 0.27 -0.09 0.27 c -0.043 0 -0.074 0.035 -0.074 0.078 c 0 0.043 -0.035 0.078 -0.078 0.078 c -0.063 0 -0.078 0.074 -0.078 0.363 c 0 0.352 -0.004 0.363 -0.129 0.363 c -0.109 0 -0.133 0.023 -0.133 0.156 c 0 0.102 -0.023 0.156 -0.074 0.156 c -0.043 0 -0.078 0.035 -0.078 0.078 c 0 0.039 -0.035 0.074 -0.078 0.074 c -0.043 0 -0.078 0.035 -0.078 0.078 c 0 0.051 -0.051 0.078 -0.129 0.078 c -0.102 0 -0.129 0.027 -0.129 0.125 c 0 0.09 -0.039 0.133 -0.129 0.156 c -0.082 0.02 -0.145 0.082 -0.164 0.16 c -0.016 0.07 -0.063 0.129 -0.102 0.129 c -0.043 0 -0.074 0.035 -0.074 0.078 c 0 0.043 -0.023 0.078 -0.051 0.078 c -0.027 0 -0.051 0.035 -0.051 0.078 c 0 0.043 -0.035 0.078 -0.078 0.078 c -0.043 0 -0.078 0.023 -0.078 0.051 c 0 0.027 -0.035 0.051 -0.078 0.051 c -0.043 0 -0.078 0.035 -0.078 0.074 c 0 0.043 -0.063 0.082 -0.145 0.094 c -0.109 0.012 -0.145 0.047 -0.156 0.156 c -0.016 0.141 -0.027 0.145 -0.352 0.145 c -0.262 0 -0.332 -0.016 -0.332 -0.078 m 0.258 -0.285 c 0 -0.027 -0.023 -0.051 -0.051 -0.051 c -0.031 0 -0.055 0.023 -0.055 0.051 c 0 0.027 0.023 0.051 0.055 0.051 c 0.027 0 0.051 -0.023 0.051 -0.051 m 2.746 -3.367 c 0 -0.031 -0.023 -0.055 -0.051 -0.055 c -0.027 0 -0.051 0.023 -0.051 0.055 c 0 0.027 0.023 0.051 0.051 0.051 c 0.027 0 0.051 -0.023 0.051 -0.051 m -1.969 -0.441 c 0 -0.043 0.023 -0.078 0.051 -0.078 c 0.031 0 0.051 -0.07 0.051 -0.156 c 0 -0.137 -0.016 -0.156 -0.152 -0.156 c -0.152 0 -0.156 0.008 -0.156 0.234 c 0 0.199 0.016 0.234 0.102 0.234 c 0.059 0 0.105 -0.035 0.105 -0.078 m 0 -0.883 c 0 -0.043 -0.047 -0.078 -0.105 -0.078 c -0.055 0 -0.102 0.035 -0.102 0.078 c 0 0.043 0.047 0.078 0.102 0.078 c 0.059 0 0.105 -0.035 0.105 -0.078 m -0.156 -0.727 c 0 -0.043 -0.035 -0.078 -0.078 -0.078 c -0.059 0 -0.078 -0.066 -0.078 -0.285 c 0 -0.219 0.02 -0.285 0.078 -0.285 c 0.043 0 0.078 -0.035 0.078 -0.074 c 0 -0.043 -0.035 -0.078 -0.078 -0.078 c -0.043 0 -0.078 -0.035 -0.078 -0.078 c 0 -0.043 -0.035 -0.078 -0.078 -0.078 c -0.063 0 -0.074 0.09 -0.074 0.52 v 0.516 h 0.152 c 0.105 0 0.156 -0.023 0.156 -0.078 m -4.922 -0.492 c 0 -0.102 -0.027 -0.156 -0.078 -0.156 c -0.055 0 -0.078 0.055 -0.078 0.156 c 0 0.105 0.023 0.156 0.078 0.156 c 0.051 0 0.078 -0.051 0.078 -0.156 m 7.05 0.055 c 0 -0.031 -0.023 -0.055 -0.051 -0.055 c -0.027 0 -0.051 0.023 -0.051 0.055 c 0 0.027 0.023 0.051 0.051 0.051 c 0.027 0 0.051 -0.023 0.051 -0.051 m -6.738 -0.285 c 0 -0.043 0.023 -0.078 0.055 -0.078 c 0.027 0 0.051 -0.035 0.051 -0.078 c 0 -0.043 0.035 -0.078 0.078 -0.078 c 0.043 0 0.078 -0.023 0.078 -0.051 c 0 -0.031 0.035 -0.055 0.078 -0.055 c 0.043 0 0.078 -0.047 0.078 -0.102 c 0 -0.082 -0.035 -0.105 -0.156 -0.105 c -0.141 0 -0.156 0.02 -0.156 0.156 c 0 0.137 -0.016 0.156 -0.156 0.156 c -0.137 0 -0.156 0.016 -0.156 0.156 c 0 0.121 0.023 0.152 0.105 0.152 c 0.059 0 0.102 -0.031 0.102 -0.074 m 6.43 -0.598 c 0 -0.027 -0.023 -0.051 -0.051 -0.051 c -0.031 0 -0.055 0.023 -0.055 0.051 c 0 0.027 0.023 0.051 0.055 0.051 c 0.027 0 0.051 -0.023 0.051 -0.051 m -5.703 -0.359 c 0 -0.313 -0.078 -0.469 -0.238 -0.469 c -0.055 0 -0.07 0.086 -0.07 0.387 v 0.391 h 0.152 c 0.156 0 0.156 0 0.156 -0.309 m 3.422 0.23 c 0 -0.043 -0.035 -0.078 -0.078 -0.078 c -0.043 0 -0.078 0.035 -0.078 0.078 c 0 0.043 0.035 0.078 0.078 0.078 c 0.043 0 0.078 -0.035 0.078 -0.078 m 2.02 -0.156 c 0 -0.043 -0.023 -0.078 -0.051 -0.078 c -0.027 0 -0.051 0.035 -0.051 0.078 c 0 0.043 0.023 0.078 0.051 0.078 c 0.027 0 0.051 -0.035 0.051 -0.078 m -2.281 -0.414 c 0 -0.043 0.035 -0.078 0.078 -0.078 c 0.043 0 0.078 -0.047 0.078 -0.105 c 0 -0.055 -0.035 -0.102 -0.078 -0.102 c -0.043 0 -0.078 -0.023 -0.078 -0.051 c 0 -0.031 -0.031 -0.055 -0.074 -0.055 c -0.059 0 -0.078 0.063 -0.078 0.234 c 0 0.172 0.02 0.234 0.078 0.234 c 0.043 0 0.074 -0.035 0.074 -0.078 m -2.902 -0.621 v -0.391 h -0.309 v 0.777 h 0.309 m 2.594 -0.543 c 0 -0.172 -0.02 -0.234 -0.078 -0.234 c -0.059 0 -0.078 0.063 -0.078 0.234 c 0 0.172 0.02 0.23 0.078 0.23 c 0.059 0 0.078 -0.059 0.078 -0.23 m -5.805 0.023 c 0 -0.027 -0.023 -0.051 -0.051 -0.051 c -0.031 0 -0.055 0.023 -0.055 0.051 c 0 0.031 0.023 0.055 0.055 0.055 c 0.027 0 0.051 -0.023 0.051 -0.055 m 5.547 -0.594 c 0 -0.172 -0.02 -0.234 -0.078 -0.234 c -0.043 0 -0.078 -0.035 -0.078 -0.078 c 0 -0.051 -0.051 -0.078 -0.156 -0.078 c -0.137 0 -0.156 0.02 -0.156 0.156 c 0 0.105 0.027 0.156 0.078 0.156 c 0.043 0 0.078 0.035 0.078 0.078 c 0 0.043 0.023 0.078 0.051 0.078 c 0.031 0 0.055 0.035 0.055 0.078 c 0 0.043 0.043 0.078 0.102 0.078 c 0.09 0 0.105 -0.035 0.105 -0.234 m -3.215 0 c 0 -0.043 -0.023 -0.078 -0.051 -0.078 c -0.031 0 -0.055 0.035 -0.055 0.078 c 0 0.043 0.023 0.078 0.055 0.078 c 0.027 0 0.051 -0.035 0.051 -0.078 m 0.883 -0.805 v -0.621 h -0.313 v 1.242 h 0.313 m 5.754 -0.102 c 0 -0.027 -0.059 -0.051 -0.133 -0.051 c -0.07 0 -0.129 0.023 -0.129 0.051 c 0 0.027 0.059 0.051 0.129 0.051 c 0.074 0 0.133 -0.023 0.133 -0.051 m -7.934 -0.52 c 0 -0.145 -0.012 -0.156 -0.207 -0.156 c -0.195 0 -0.207 0.012 -0.207 0.156 c 0 0.148 0.012 0.156 0.207 0.156 c 0.195 0 0.207 -0.008 0.207 -0.156 m 3.914 0.012 c -0.02 -0.078 -0.043 -0.152 -0.055 -0.164 c -0.035 -0.031 -0.063 0.012 -0.102 0.164 c -0.031 0.125 -0.02 0.145 0.078 0.145 c 0.102 0 0.109 -0.02 0.078 -0.145 m -3.602 -0.324 c 0 -0.102 -0.027 -0.152 -0.078 -0.152 c -0.051 0 -0.078 0.051 -0.078 0.152 c 0 0.105 0.027 0.156 0.078 0.156 c 0.051 0 0.078 -0.051 0.078 -0.156 m 3.316 0.078 c 0 -0.043 -0.035 -0.078 -0.078 -0.078 c -0.043 0 -0.078 -0.031 -0.078 -0.074 c 0 -0.043 -0.035 -0.078 -0.078 -0.078 c -0.043 0 -0.078 -0.027 -0.078 -0.059 c 0 -0.07 -0.129 -0.203 -0.203 -0.203 c -0.031 0 -0.055 -0.035 -0.055 -0.078 c 0 -0.043 -0.035 -0.074 -0.078 -0.074 c -0.043 0 -0.078 -0.035 -0.078 -0.078 c 0 -0.043 -0.035 -0.078 -0.078 -0.078 c -0.043 0 -0.078 0.035 -0.078 0.078 c 0 0.043 0.035 0.078 0.078 0.078 c 0.043 0 0.078 0.031 0.078 0.074 c 0 0.043 0.023 0.078 0.055 0.078 c 0.027 0 0.051 0.035 0.051 0.078 c 0 0.043 0.035 0.078 0.078 0.078 c 0.043 0 0.078 0.035 0.078 0.078 c 0 0.043 0.035 0.078 0.078 0.078 c 0.039 0 0.074 0.035 0.074 0.078 c 0 0.043 0.035 0.078 0.078 0.078 c 0.043 0 0.078 0.023 0.078 0.051 c 0 0.027 0.035 0.051 0.078 0.051 c 0.043 0 0.078 -0.035 0.078 -0.078 m -2.746 -0.336 c 0 -0.148 -0.008 -0.156 -0.234 -0.156 c -0.223 0 -0.234 0.008 -0.234 0.156 c 0 0.148 0.012 0.156 0.234 0.156 c 0.227 0 0.234 -0.008 0.234 -0.156 m 1.035 -0.465 c 0 -0.105 -0.023 -0.156 -0.078 -0.156 c -0.043 0 -0.078 -0.035 -0.078 -0.078 c 0 -0.043 -0.035 -0.078 -0.078 -0.078 c -0.055 0 -0.074 0.063 -0.074 0.234 c 0 0.223 0.004 0.234 0.152 0.234 c 0.141 0 0.156 -0.02 0.156 -0.156 m 0.727 -0.156 c 0 -0.145 -0.016 -0.156 -0.18 -0.156 c -0.168 0 -0.184 0.012 -0.184 0.156 c 0 0.145 0.016 0.156 0.184 0.156 c 0.164 0 0.18 -0.012 0.18 -0.156 m -1.453 -0.051 c 0 -0.07 -0.031 -0.105 -0.102 -0.105 c -0.07 0 -0.105 0.035 -0.105 0.105 c 0 0.066 0.035 0.102 0.105 0.102 c 0.07 0 0.102 -0.035 0.102 -0.102 m 2.281 -0.133 c 0 -0.055 0.059 -0.074 0.207 -0.074 c 0.152 0 0.207 0.02 0.207 0.074 c 0 0.043 0.035 0.078 0.078 0.078 c 0.043 0 0.078 -0.035 0.078 -0.078 c 0 -0.039 0.035 -0.074 0.078 -0.074 c 0.043 0 0.078 -0.035 0.078 -0.078 c 0 -0.066 -0.094 -0.078 -0.52 -0.078 h -0.516 v 0.156 c 0 0.137 0.016 0.152 0.152 0.152 c 0.105 0 0.156 -0.023 0.156 -0.078 m -1.863 -0.152 c 0 -0.051 0.047 -0.078 0.129 -0.078 c 0.078 0 0.129 0.027 0.129 0.078 c 0 0.043 0.035 0.078 0.078 0.078 c 0.043 0 0.078 -0.035 0.078 -0.078 c 0 -0.043 -0.023 -0.078 -0.055 -0.078 c -0.027 0 -0.051 -0.035 -0.051 -0.078 c 0 -0.043 -0.035 -0.078 -0.078 -0.078 c -0.043 0 -0.078 -0.035 -0.078 -0.078 c 0 -0.043 -0.035 -0.078 -0.078 -0.078 c -0.051 0 -0.074 0.051 -0.074 0.156 c 0 0.137 -0.02 0.156 -0.156 0.156 c -0.105 0 -0.156 0.023 -0.156 0.078 c 0 0.051 0.051 0.078 0.156 0.078 c 0.102 0 0.156 -0.027 0.156 -0.078 m 3.316 -0.156 c 0 -0.043 0.035 -0.078 0.078 -0.078 c 0.043 0 0.078 -0.035 0.078 -0.078 c 0 -0.059 -0.063 -0.078 -0.234 -0.078 c -0.172 0 -0.234 0.02 -0.234 0.078 c 0 0.043 0.035 0.078 0.078 0.078 c 0.043 0 0.078 0.035 0.078 0.078 c 0 0.043 0.035 0.078 0.078 0.078 c 0.043 0 0.078 -0.035 0.078 -0.078 m -2.023 -0.363 c 0 -0.168 -0.012 -0.18 -0.152 -0.18 c -0.145 0 -0.156 0.012 -0.156 0.18 c 0 0.168 0.012 0.18 0.156 0.18 c 0.141 0 0.152 -0.012 0.152 -0.18 m 3.629 0 c 0 -0.168 -0.012 -0.18 -0.152 -0.18 c -0.145 0 -0.156 0.012 -0.156 0.18 c 0 0.168 0.012 0.18 0.156 0.18 c 0.141 0 0.152 -0.012 0.152 -0.18 m -0.879 -0.078 c 0 -0.059 -0.035 -0.102 -0.078 -0.102 c -0.043 0 -0.078 0.043 -0.078 0.102 c 0 0.059 0.035 0.105 0.078 0.105 c 0.043 0 0.078 -0.047 0.078 -0.105 m -4.199 -0.285 c 0 -0.043 0.035 -0.078 0.078 -0.078 c 0.043 0 0.078 -0.035 0.078 -0.078 c 0 -0.043 -0.035 -0.078 -0.078 -0.078 c -0.043 0 -0.078 -0.035 -0.078 -0.078 c 0 -0.043 -0.035 -0.074 -0.078 -0.074 c -0.043 0 -0.078 0.031 -0.078 0.074 c 0 0.043 -0.035 0.078 -0.078 0.078 c -0.043 0 -0.078 0.035 -0.078 0.078 c 0 0.043 -0.035 0.078 -0.078 0.078 c -0.043 0 -0.078 0.035 -0.078 0.078 c 0 0.059 0.063 0.078 0.234 0.078 c 0.172 0 0.234 -0.02 0.234 -0.078 m 1.867 0 c 0 -0.043 -0.035 -0.078 -0.078 -0.078 c -0.043 0 -0.078 0.035 -0.078 0.078 c 0 0.043 0.035 0.078 0.078 0.078 c 0.043 0 0.078 -0.035 0.078 -0.078 m 3.629 0 c 0 -0.051 -0.055 -0.078 -0.156 -0.078 c -0.105 0 -0.156 0.027 -0.156 0.078 c 0 0.051 0.051 0.078 0.156 0.078 c 0.102 0 0.156 -0.027 0.156 -0.078 m -3.32 -0.465 c 0 -0.176 -0.02 -0.234 -0.078 -0.234 c -0.043 0 -0.078 0.035 -0.078 0.078 c 0 0.043 -0.031 0.078 -0.074 0.078 c -0.043 0 -0.078 0.047 -0.078 0.102 c 0 0.059 0.035 0.105 0.078 0.105 c 0.043 0 0.074 0.023 0.074 0.051 c 0 0.027 0.035 0.051 0.078 0.051 c 0.059 0 0.078 -0.059 0.078 -0.23 m 0.313 -0.418 c 0 -0.043 -0.047 -0.074 -0.105 -0.074 c -0.055 0 -0.102 0.031 -0.102 0.074 c 0 0.047 0.047 0.078 0.102 0.078 c 0.059 0 0.105 -0.031 0.105 -0.078"/><path d="m 11.633 11.414 c 0 -0.074 0.023 -0.133 0.055 -0.133 c 0.027 0 0.051 -0.035 0.051 -0.074 c 0 -0.043 -0.023 -0.078 -0.051 -0.078 c -0.031 0 -0.055 0.035 -0.055 0.078 c 0 0.051 -0.051 0.074 -0.156 0.074 c -0.152 0 -0.152 0 -0.152 -0.289 c 0 -0.297 0.07 -0.434 0.227 -0.434 c 0.066 0 0.082 -0.07 0.082 -0.363 c 0 -0.289 -0.016 -0.363 -0.078 -0.363 c -0.043 0 -0.078 -0.035 -0.078 -0.078 c 0 -0.043 -0.035 -0.078 -0.074 -0.078 c -0.063 0 -0.078 -0.066 -0.078 -0.285 c 0 -0.219 0.016 -0.285 0.078 -0.285 c 0.039 0 0.074 -0.035 0.074 -0.078 c 0 -0.094 0.141 -0.105 0.172 -0.012 c 0.012 0.039 0.043 0.043 0.07 0.02 c 0.023 -0.027 0.016 -0.059 -0.02 -0.07 c -0.094 -0.031 -0.082 -0.172 0.012 -0.172 c 0.043 0 0.078 -0.035 0.078 -0.074 c 0 -0.063 0.07 -0.078 0.336 -0.078 c 0.191 0 0.34 -0.023 0.34 -0.055 c 0 -0.027 0.031 -0.051 0.074 -0.051 c 0.043 0 0.078 -0.035 0.078 -0.078 c 0 -0.063 0.078 -0.078 0.363 -0.078 h 0.363 v 0.207 c 0 0.152 -0.02 0.207 -0.078 0.207 c -0.043 0 -0.078 0.035 -0.078 0.078 c 0 0.051 -0.047 0.078 -0.129 0.078 c -0.082 0 -0.129 -0.027 -0.129 -0.078 c 0 -0.043 -0.035 -0.078 -0.078 -0.078 c -0.051 0 -0.078 0.055 -0.078 0.156 c 0 0.133 0.02 0.156 0.129 0.156 c 0.125 0 0.133 0.016 0.133 0.285 c 0 0.27 -0.008 0.285 -0.133 0.285 c -0.078 0 -0.129 0.031 -0.129 0.078 c 0 0.043 -0.035 0.078 -0.078 0.078 c -0.043 0 -0.078 0.023 -0.078 0.051 c 0 0.027 -0.035 0.051 -0.078 0.051 c -0.043 0 -0.074 0.035 -0.074 0.078 c 0 0.094 -0.137 0.105 -0.176 0.016 c -0.02 -0.051 -0.039 -0.047 -0.082 0.012 c -0.094 0.137 -0.063 0.207 0.102 0.207 c 0.086 0 0.156 -0.023 0.156 -0.051 c 0 -0.031 0.09 -0.051 0.207 -0.051 c 0.184 0 0.207 0.012 0.207 0.129 c 0 0.078 0.027 0.129 0.078 0.129 c 0.043 0 0.078 0.035 0.078 0.078 c 0 0.051 0.051 0.078 0.152 0.078 c 0.156 0 0.156 0 0.156 0.285 c 0 0.219 -0.02 0.285 -0.078 0.285 c -0.043 0 -0.078 0.035 -0.078 0.078 c 0 0.043 -0.035 0.074 -0.078 0.074 c -0.043 0 -0.074 -0.031 -0.074 -0.074 c 0 -0.043 -0.023 -0.078 -0.055 -0.078 c -0.027 0 -0.051 0.035 -0.051 0.078 c 0 0.043 0.023 0.074 0.051 0.074 c 0.031 0 0.055 0.035 0.055 0.078 c 0 0.043 -0.035 0.078 -0.078 0.078 c -0.043 0 -0.078 0.023 -0.078 0.055 c 0 0.031 -0.242 0.051 -0.625 0.051 h -0.621 m 1.141 -0.648 v -0.234 h -1.035 v 0.184 c 0 0.125 0.023 0.18 0.078 0.18 c 0.043 0 0.078 0.023 0.078 0.051 c 0 0.031 0.18 0.055 0.438 0.055 h 0.441 m -0.309 -1.766 v -0.152 h -0.727 v 0.309 h 0.727 m 0.152 -0.801 c 0 -0.043 -0.035 -0.078 -0.078 -0.078 c -0.039 0 -0.074 0.035 -0.074 0.078 c 0 0.039 0.035 0.074 0.074 0.074 c 0.043 0 0.078 -0.035 0.078 -0.074"/><path d="m 10.184 10.453 c 0 -0.113 0.023 -0.207 0.055 -0.207 c 0.148 0 0.203 -0.156 0.203 -0.594 c 0 -0.262 -0.02 -0.441 -0.051 -0.441 c -0.031 0 -0.055 -0.035 -0.055 -0.078 c 0 -0.043 -0.031 -0.078 -0.074 -0.078 c -0.059 0 -0.078 -0.059 -0.078 -0.207 v -0.207 h 0.285 c 0.219 0 0.285 0.016 0.285 0.078 c 0 0.043 0.023 0.078 0.051 0.078 c 0.031 0 0.051 0.258 0.051 0.672 c 0 0.566 0.012 0.676 0.078 0.676 c 0.043 0 0.078 0.023 0.078 0.051 c 0 0.027 0.035 0.051 0.078 0.051 c 0.055 0 0.078 0.059 0.078 0.207 v 0.207 h -0.984"/><path d="m 10.441 8.121 v -0.363 h 0.414 v 0.727 h -0.414"/><path d="m 7.59 10.402 c 0 -0.188 0.016 -0.207 0.129 -0.207 h 0.133 v -2.074 h -0.133 c -0.113 0 -0.129 -0.02 -0.129 -0.207 v -0.207 h 2.281 v 0.516 c 0 0.426 -0.012 0.52 -0.078 0.52 c -0.043 0 -0.078 0.035 -0.078 0.078 c 0 0.043 -0.023 0.078 -0.051 0.078 c -0.027 0 -0.051 -0.035 -0.051 -0.078 c 0 -0.043 -0.035 -0.078 -0.078 -0.078 c -0.043 0 -0.078 -0.035 -0.078 -0.078 c 0 -0.043 -0.035 -0.078 -0.078 -0.078 c -0.043 0 -0.078 -0.023 -0.078 -0.051 c 0 -0.027 0.035 -0.051 0.078 -0.051 c 0.043 0 0.078 -0.047 0.078 -0.105 c 0 -0.059 -0.035 -0.102 -0.078 -0.102 c -0.043 0 -0.078 -0.035 -0.078 -0.078 c 0 -0.055 -0.051 -0.078 -0.156 -0.078 c -0.102 0 -0.156 0.023 -0.156 0.078 c 0 0.047 -0.047 0.078 -0.129 0.078 c -0.078 0 -0.129 -0.031 -0.129 -0.078 c 0 -0.055 -0.051 -0.078 -0.156 -0.078 h -0.156 v 0.777 h 0.234 c 0.227 0 0.234 -0.008 0.234 -0.156 c 0 -0.133 0.02 -0.156 0.129 -0.156 c 0.082 0 0.129 0.031 0.129 0.078 c 0 0.043 0.035 0.078 0.078 0.078 c 0.066 0 0.078 0.094 0.078 0.52 v 0.516 h -0.207 c -0.195 0 -0.207 -0.008 -0.207 -0.152 c 0 -0.105 -0.027 -0.156 -0.078 -0.156 c -0.043 0 -0.078 -0.035 -0.078 -0.078 c 0 -0.043 -0.035 -0.078 -0.078 -0.078 c -0.043 0 -0.078 0.035 -0.078 0.078 c 0 0.043 -0.035 0.078 -0.078 0.078 c -0.059 0 -0.078 0.074 -0.078 0.363 c 0 0.352 0.004 0.363 0.133 0.363 c 0.117 0 0.129 0.02 0.129 0.207 v 0.207 h -1.09"/></g></svg>