<svg xmlns="http://www.w3.org/2000/svg" viewBox="0 0 32 32"><path d="m 3.297 25.305 c -15.773 -23.617 34.535 -38.17 27.875 -7.633 c -2.84 12.621 -20.641 20.277 -27.875 7.633" fill="#ffdeac"/><path d="m 15.48 25.477 c -0.047 -0.078 -0.223 -0.141 -0.391 -0.141 c -0.168 0 -0.414 -0.129 -0.547 -0.289 c -0.133 -0.156 -0.375 -0.285 -0.535 -0.285 c -0.16 0 -0.402 -0.133 -0.535 -0.289 c -0.133 -0.16 -0.375 -0.289 -0.535 -0.289 c -0.164 0 -0.402 -0.129 -0.535 -0.285 c -0.133 -0.16 -0.375 -0.289 -0.535 -0.289 c -0.164 0 -0.402 -0.129 -0.535 -0.285 c -0.137 -0.16 -0.375 -0.289 -0.539 -0.289 c -0.16 0 -0.398 -0.129 -0.535 -0.289 c -0.133 -0.156 -0.371 -0.285 -0.535 -0.285 c -0.16 0 -0.402 -0.129 -0.535 -0.289 c -0.133 -0.156 -0.367 -0.289 -0.523 -0.289 c -0.152 -0.004 -0.477 -0.195 -0.715 -0.43 l -0.434 -0.426 v -9.06 l 0.434 -0.426 c 0.238 -0.23 0.562 -0.426 0.715 -0.426 c 0.156 -0.004 0.391 -0.137 0.523 -0.293 c 0.133 -0.16 0.375 -0.289 0.535 -0.289 c 0.164 0 0.402 -0.129 0.535 -0.285 c 0.133 -0.16 0.375 -0.289 0.535 -0.289 c 0.164 0 0.402 -0.129 0.539 -0.285 c 0.133 -0.16 0.371 -0.289 0.535 -0.289 c 0.16 0 0.398 -0.129 0.535 -0.289 c 0.133 -0.156 0.371 -0.285 0.535 -0.285 c 0.16 0 0.402 -0.129 0.535 -0.289 c 0.133 -0.156 0.375 -0.285 0.535 -0.285 c 0.16 0 0.402 -0.129 0.535 -0.289 c 0.133 -0.156 0.387 -0.289 0.559 -0.289 c 0.176 0 0.355 -0.094 0.398 -0.215 c 0.105 -0.297 1.195 -0.297 1.301 0 c 0.043 0.121 0.219 0.215 0.395 0.215 c 0.176 0 0.426 0.133 0.559 0.289 c 0.137 0.16 0.375 0.289 0.539 0.289 c 0.16 0 0.398 0.129 0.535 0.285 c 0.133 0.16 0.371 0.289 0.535 0.289 c 0.16 0 0.402 0.129 0.535 0.285 c 0.133 0.16 0.375 0.289 0.535 0.289 c 0.16 0 0.402 0.129 0.535 0.289 c 0.133 0.156 0.375 0.285 0.535 0.285 c 0.16 0 0.402 0.129 0.535 0.289 c 0.133 0.156 0.375 0.285 0.535 0.285 c 0.16 0 0.402 0.129 0.535 0.289 c 0.133 0.156 0.367 0.285 0.516 0.285 c 0.152 0 0.441 0.176 0.648 0.387 l 0.375 0.387 v 9.234 l -0.375 0.387 c -0.207 0.215 -0.496 0.387 -0.648 0.387 c -0.148 0 -0.383 0.129 -0.516 0.289 c -0.133 0.156 -0.375 0.285 -0.535 0.285 c -0.16 0 -0.402 0.129 -0.535 0.289 c -0.133 0.156 -0.375 0.285 -0.535 0.285 c -0.16 0 -0.402 0.129 -0.535 0.289 c -0.133 0.156 -0.375 0.285 -0.535 0.285 c -0.16 0 -0.402 0.133 -0.535 0.289 c -0.133 0.16 -0.375 0.289 -0.535 0.289 c -0.164 0 -0.402 0.129 -0.535 0.285 c -0.133 0.16 -0.375 0.289 -0.535 0.289 c -0.164 0 -0.402 0.129 -0.539 0.285 c -0.133 0.16 -0.379 0.289 -0.547 0.289 c -0.168 0 -0.344 0.066 -0.387 0.145 c -0.047 0.078 -0.348 0.145 -0.672 0.145 c -0.32 0 -0.621 -0.066 -0.668 -0.145" fill="#8b8bf9"/><path d="m 15.5 25.406 c -0.043 -0.117 -0.223 -0.215 -0.395 -0.215 c -0.176 0 -0.43 -0.129 -0.563 -0.289 c -0.133 -0.156 -0.375 -0.285 -0.535 -0.285 c -0.16 0 -0.402 -0.129 -0.535 -0.289 c -0.133 -0.156 -0.375 -0.285 -0.535 -0.285 c -0.16 0 -0.402 -0.133 -0.535 -0.289 c -0.133 -0.156 -0.375 -0.289 -0.535 -0.289 c -0.164 0 -0.402 -0.129 -0.535 -0.285 c -0.137 -0.16 -0.375 -0.289 -0.539 -0.289 c -0.16 0 -0.398 -0.129 -0.535 -0.285 c -0.133 -0.16 -0.371 -0.289 -0.535 -0.289 c -0.16 0 -0.398 -0.129 -0.535 -0.285 c -0.133 -0.16 -0.375 -0.289 -0.535 -0.289 c -0.16 0 -0.402 -0.129 -0.535 -0.289 c -0.133 -0.156 -0.324 -0.285 -0.422 -0.285 c -0.148 0 -0.18 -0.855 -0.18 -4.672 c 0 -3.816 0.031 -4.672 0.18 -4.672 c 0.098 0 0.289 -0.129 0.422 -0.285 c 0.133 -0.16 0.375 -0.289 0.535 -0.289 c 0.16 0 0.402 -0.129 0.535 -0.285 c 0.133 -0.16 0.375 -0.289 0.535 -0.289 c 0.164 0 0.402 -0.129 0.535 -0.289 c 0.137 -0.156 0.375 -0.285 0.535 -0.285 c 0.164 0 0.402 -0.129 0.539 -0.289 c 0.133 -0.156 0.371 -0.285 0.535 -0.285 c 0.16 0 0.398 -0.129 0.535 -0.289 c 0.133 -0.156 0.375 -0.285 0.535 -0.285 c 0.16 0 0.402 -0.133 0.535 -0.289 c 0.133 -0.156 0.375 -0.289 0.535 -0.289 c 0.16 0 0.402 -0.129 0.535 -0.285 c 0.133 -0.16 0.391 -0.289 0.57 -0.289 c 0.211 0 0.348 -0.098 0.395 -0.285 c 0.059 -0.23 0.184 -0.289 0.641 -0.289 c 0.461 0 0.586 0.059 0.645 0.289 c 0.043 0.188 0.18 0.285 0.395 0.285 c 0.18 0 0.434 0.129 0.57 0.289 c 0.133 0.156 0.371 0.285 0.535 0.285 c 0.16 0 0.402 0.133 0.535 0.289 c 0.133 0.156 0.375 0.289 0.535 0.289 c 0.16 0 0.402 0.129 0.535 0.285 c 0.133 0.16 0.375 0.289 0.535 0.289 c 0.16 0 0.402 0.129 0.535 0.285 c 0.133 0.16 0.375 0.289 0.535 0.289 c 0.16 0 0.402 0.129 0.535 0.285 c 0.133 0.16 0.375 0.289 0.535 0.289 c 0.164 0 0.402 0.129 0.535 0.289 c 0.137 0.156 0.371 0.289 0.523 0.289 c 0.156 0.004 0.445 0.164 0.648 0.355 l 0.371 0.348 v 9.08 l -0.371 0.348 c -0.203 0.191 -0.492 0.348 -0.648 0.352 c -0.152 0 -0.387 0.133 -0.523 0.293 c -0.133 0.156 -0.371 0.285 -0.535 0.285 c -0.16 0 -0.398 0.129 -0.535 0.289 c -0.133 0.156 -0.375 0.285 -0.535 0.285 c -0.16 0 -0.402 0.129 -0.535 0.289 c -0.133 0.156 -0.375 0.285 -0.535 0.285 c -0.16 0 -0.402 0.133 -0.535 0.289 c -0.133 0.156 -0.375 0.289 -0.535 0.289 c -0.16 0 -0.402 0.129 -0.535 0.285 c -0.133 0.16 -0.375 0.289 -0.535 0.289 c -0.164 0 -0.402 0.129 -0.535 0.285 c -0.133 0.16 -0.387 0.289 -0.563 0.289 c -0.176 0 -0.352 0.098 -0.395 0.215 c -0.051 0.145 -0.266 0.215 -0.652 0.215 c -0.387 0 -0.598 -0.07 -0.648 -0.215 m -0.117 -2.555 c 0.035 -1.207 0.008 -1.414 -0.188 -1.496 c -0.145 -0.059 -0.309 0.02 -0.461 0.219 c -0.18 0.238 -0.379 0.313 -0.848 0.313 c -0.469 0 -0.652 0.066 -0.781 0.285 c -0.102 0.176 -0.313 0.289 -0.535 0.289 c -0.203 0 -0.371 0.043 -0.371 0.098 c 0 0.25 0.48 0.621 0.805 0.621 c 0.199 0 0.469 0.129 0.602 0.285 c 0.133 0.16 0.383 0.289 0.555 0.289 c 0.172 0 0.391 0.133 0.48 0.293 c 0.098 0.168 0.281 0.273 0.438 0.25 c 0.242 -0.035 0.273 -0.164 0.305 -1.445 m -3.582 -1.18 c 0.09 -0.121 0.309 -0.219 0.48 -0.219 c 0.176 0 0.395 -0.129 0.484 -0.285 c 0.129 -0.219 0.313 -0.289 0.781 -0.289 c 0.469 0 0.684 -0.078 0.906 -0.332 l 0.289 -0.332 l -0.469 -0.484 c -0.258 -0.27 -0.465 -0.625 -0.465 -0.789 c 0 -0.168 -0.242 -0.555 -0.539 -0.863 c -0.316 -0.332 -0.535 -0.695 -0.535 -0.891 c 0 -0.184 -0.117 -0.41 -0.266 -0.508 c -0.164 -0.109 -0.27 -0.336 -0.27 -0.582 c 0 -0.535 -0.367 -0.684 -0.676 -0.273 c -0.133 0.176 -0.391 0.313 -0.582 0.313 c -0.199 0 -0.414 0.121 -0.512 0.289 c -0.098 0.164 -0.313 0.285 -0.516 0.285 c -0.188 0 -0.477 0.152 -0.641 0.34 c -0.262 0.297 -0.273 0.355 -0.09 0.52 c 0.113 0.102 0.207 0.336 0.207 0.523 c 0 0.188 0.117 0.422 0.266 0.52 c 0.156 0.102 0.27 0.336 0.27 0.547 c 0 0.238 0.188 0.563 0.535 0.93 c 0.293 0.309 0.535 0.68 0.535 0.824 c 0 0.289 0.375 0.973 0.535 0.973 c 0.055 0 0.176 -0.098 0.27 -0.219 m -1.785 -0.441 c 0.051 -0.145 -0.117 -0.438 -0.473 -0.832 c -0.305 -0.332 -0.555 -0.738 -0.555 -0.898 c 0 -0.164 -0.117 -0.41 -0.262 -0.551 c -0.141 -0.137 -0.285 -0.391 -0.316 -0.559 c -0.035 -0.172 -0.051 0.305 -0.043 1.055 l 0.02 1.367 l 0.371 0.047 c 0.207 0.023 0.445 0.168 0.535 0.32 c 0.195 0.336 0.609 0.367 0.723 0.051 m 5.34 -4.324 c -0.035 -0.105 -0.211 -0.191 -0.387 -0.191 c -0.176 0 -0.426 -0.129 -0.559 -0.285 c -0.133 -0.16 -0.348 -0.289 -0.473 -0.289 c -0.129 0 -0.305 -0.098 -0.398 -0.215 c -0.09 -0.121 -0.219 -0.215 -0.285 -0.215 c -0.211 0 -0.121 0.379 0.152 0.645 c 0.148 0.145 0.266 0.398 0.266 0.57 c 0 0.168 0.242 0.559 0.535 0.867 c 0.297 0.309 0.539 0.691 0.539 0.848 c 0 0.156 0.133 0.441 0.301 0.629 l 0.301 0.344 l 0.039 -1.258 c 0.02 -0.691 0.008 -1.344 -0.031 -1.449 m -6.336 -0.91 c 0.098 -0.172 0.313 -0.285 0.527 -0.285 c 0.207 0 0.441 -0.121 0.543 -0.277 c 0.098 -0.148 0.355 -0.297 0.574 -0.324 c 0.535 -0.063 0.57 -0.602 0.043 -0.664 c -0.195 -0.027 -0.457 -0.172 -0.59 -0.324 c -0.129 -0.156 -0.355 -0.281 -0.508 -0.281 c -0.148 0 -0.406 -0.137 -0.574 -0.305 c -0.559 -0.563 -0.719 -0.293 -0.719 1.211 c 0 0.742 0.043 1.391 0.09 1.441 c 0.172 0.184 0.445 0.094 0.613 -0.191" fill="#e0e201"/><path d="m 15.5 25.406 c -0.043 -0.117 -0.223 -0.215 -0.395 -0.215 c -0.176 0 -0.43 -0.129 -0.563 -0.289 c -0.133 -0.156 -0.375 -0.285 -0.535 -0.285 c -0.16 0 -0.402 -0.129 -0.535 -0.289 c -0.133 -0.156 -0.375 -0.285 -0.535 -0.285 c -0.16 0 -0.402 -0.133 -0.535 -0.289 c -0.133 -0.156 -0.375 -0.289 -0.535 -0.289 c -0.164 0 -0.402 -0.129 -0.535 -0.285 c -0.137 -0.16 -0.375 -0.289 -0.539 -0.289 c -0.16 0 -0.398 -0.129 -0.535 -0.285 c -0.133 -0.16 -0.371 -0.289 -0.535 -0.289 c -0.16 0 -0.398 -0.129 -0.535 -0.285 c -0.133 -0.16 -0.375 -0.289 -0.535 -0.289 c -0.16 0 -0.402 -0.129 -0.535 -0.289 c -0.133 -0.156 -0.324 -0.285 -0.422 -0.285 c -0.148 0 -0.18 -0.855 -0.18 -4.672 c 0 -3.816 0.031 -4.672 0.18 -4.672 c 0.098 0 0.289 -0.129 0.422 -0.285 c 0.133 -0.16 0.375 -0.289 0.535 -0.289 c 0.16 0 0.402 -0.129 0.535 -0.285 c 0.133 -0.16 0.375 -0.289 0.535 -0.289 c 0.164 0 0.402 -0.129 0.535 -0.289 c 0.137 -0.156 0.375 -0.285 0.535 -0.285 c 0.164 0 0.402 -0.129 0.539 -0.289 c 0.133 -0.156 0.371 -0.285 0.535 -0.285 c 0.16 0 0.398 -0.129 0.535 -0.289 c 0.133 -0.156 0.375 -0.285 0.535 -0.285 c 0.16 0 0.402 -0.133 0.535 -0.289 c 0.133 -0.156 0.375 -0.289 0.535 -0.289 c 0.16 0 0.402 -0.129 0.535 -0.285 c 0.133 -0.16 0.391 -0.289 0.57 -0.289 c 0.211 0 0.348 -0.098 0.395 -0.285 c 0.059 -0.23 0.184 -0.289 0.641 -0.289 c 0.461 0 0.586 0.059 0.645 0.289 c 0.043 0.188 0.18 0.285 0.395 0.285 c 0.18 0 0.434 0.129 0.57 0.289 c 0.133 0.156 0.371 0.285 0.535 0.285 c 0.16 0 0.402 0.133 0.535 0.289 c 0.133 0.156 0.375 0.289 0.535 0.289 c 0.16 0 0.402 0.129 0.535 0.285 c 0.133 0.16 0.375 0.289 0.535 0.289 c 0.16 0 0.402 0.129 0.535 0.285 c 0.133 0.16 0.375 0.289 0.535 0.289 c 0.16 0 0.402 0.129 0.535 0.285 c 0.133 0.16 0.375 0.289 0.535 0.289 c 0.164 0 0.402 0.129 0.535 0.289 c 0.137 0.156 0.371 0.289 0.523 0.289 c 0.156 0.004 0.445 0.164 0.648 0.355 l 0.371 0.348 v 9.08 l -0.371 0.348 c -0.203 0.191 -0.492 0.348 -0.648 0.352 c -0.152 0 -0.387 0.133 -0.523 0.293 c -0.133 0.156 -0.371 0.285 -0.535 0.285 c -0.16 0 -0.398 0.129 -0.535 0.289 c -0.133 0.156 -0.375 0.285 -0.535 0.285 c -0.16 0 -0.402 0.129 -0.535 0.289 c -0.133 0.156 -0.375 0.285 -0.535 0.285 c -0.16 0 -0.402 0.133 -0.535 0.289 c -0.133 0.156 -0.375 0.289 -0.535 0.289 c -0.16 0 -0.402 0.129 -0.535 0.285 c -0.133 0.16 -0.375 0.289 -0.535 0.289 c -0.164 0 -0.402 0.129 -0.535 0.285 c -0.133 0.16 -0.387 0.289 -0.563 0.289 c -0.176 0 -0.352 0.098 -0.395 0.215 c -0.051 0.145 -0.266 0.215 -0.652 0.215 c -0.387 0 -0.598 -0.07 -0.648 -0.215 m -0.117 -2.555 c 0.035 -1.207 0.008 -1.414 -0.188 -1.496 c -0.145 -0.059 -0.309 0.02 -0.461 0.219 c -0.18 0.238 -0.379 0.313 -0.848 0.313 c -0.469 0 -0.652 0.066 -0.781 0.285 c -0.102 0.176 -0.313 0.289 -0.535 0.289 c -0.203 0 -0.371 0.043 -0.371 0.098 c 0 0.25 0.48 0.621 0.805 0.621 c 0.199 0 0.469 0.129 0.602 0.285 c 0.133 0.16 0.383 0.289 0.555 0.289 c 0.172 0 0.391 0.133 0.48 0.293 c 0.098 0.168 0.281 0.273 0.438 0.25 c 0.242 -0.035 0.273 -0.164 0.305 -1.445 m -3.582 -1.18 c 0.09 -0.121 0.309 -0.219 0.48 -0.219 c 0.176 0 0.395 -0.129 0.484 -0.285 c 0.129 -0.219 0.313 -0.289 0.781 -0.289 c 0.469 0 0.684 -0.078 0.906 -0.332 l 0.289 -0.332 l -0.469 -0.484 c -0.258 -0.27 -0.465 -0.625 -0.465 -0.789 c 0 -0.168 -0.242 -0.555 -0.539 -0.863 c -0.316 -0.332 -0.535 -0.695 -0.535 -0.891 c 0 -0.184 -0.117 -0.41 -0.266 -0.508 c -0.164 -0.109 -0.27 -0.336 -0.27 -0.582 c 0 -0.535 -0.367 -0.684 -0.676 -0.273 c -0.133 0.176 -0.391 0.313 -0.582 0.313 c -0.199 0 -0.414 0.121 -0.512 0.289 c -0.098 0.164 -0.313 0.285 -0.516 0.285 c -0.188 0 -0.477 0.152 -0.641 0.34 c -0.262 0.297 -0.273 0.355 -0.09 0.52 c 0.113 0.102 0.207 0.336 0.207 0.523 c 0 0.188 0.117 0.422 0.266 0.52 c 0.156 0.102 0.27 0.336 0.27 0.547 c 0 0.238 0.188 0.563 0.535 0.93 c 0.293 0.309 0.535 0.68 0.535 0.824 c 0 0.289 0.375 0.973 0.535 0.973 c 0.055 0 0.176 -0.098 0.27 -0.219 m -1.785 -0.441 c 0.051 -0.145 -0.117 -0.438 -0.473 -0.832 c -0.305 -0.332 -0.555 -0.738 -0.555 -0.898 c 0 -0.164 -0.117 -0.41 -0.262 -0.551 c -0.141 -0.137 -0.285 -0.391 -0.316 -0.559 c -0.035 -0.172 -0.051 0.305 -0.043 1.055 l 0.02 1.367 l 0.371 0.047 c 0.207 0.023 0.445 0.168 0.535 0.32 c 0.195 0.336 0.609 0.367 0.723 0.051 m 5.34 -4.324 c -0.035 -0.105 -0.211 -0.191 -0.387 -0.191 c -0.176 0 -0.426 -0.129 -0.559 -0.285 c -0.133 -0.16 -0.348 -0.289 -0.473 -0.289 c -0.129 0 -0.305 -0.098 -0.398 -0.215 c -0.09 -0.121 -0.219 -0.215 -0.285 -0.215 c -0.211 0 -0.121 0.379 0.152 0.645 c 0.148 0.145 0.266 0.398 0.266 0.57 c 0 0.168 0.242 0.559 0.535 0.867 c 0.297 0.309 0.539 0.691 0.539 0.848 c 0 0.156 0.133 0.441 0.301 0.629 l 0.301 0.344 l 0.039 -1.258 c 0.02 -0.691 0.008 -1.344 -0.031 -1.449 m -6.336 -0.91 c 0.098 -0.172 0.313 -0.285 0.527 -0.285 c 0.207 0 0.441 -0.121 0.543 -0.277 c 0.098 -0.148 0.355 -0.297 0.574 -0.324 c 0.535 -0.063 0.57 -0.602 0.043 -0.664 c -0.195 -0.027 -0.457 -0.172 -0.59 -0.324 c -0.129 -0.156 -0.355 -0.281 -0.508 -0.281 c -0.148 0 -0.406 -0.137 -0.574 -0.305 c -0.559 -0.563 -0.719 -0.293 -0.719 1.211 c 0 0.742 0.043 1.391 0.09 1.441 c 0.172 0.184 0.445 0.094 0.613 -0.191 m 8.172 -0.43 c 0.188 -0.16 0.426 -0.289 0.535 -0.289 c 0.105 0 0.348 -0.129 0.535 -0.285 c 0.188 -0.16 0.465 -0.289 0.621 -0.289 c 0.16 0 0.277 -0.094 0.277 -0.215 c 0 -0.188 -0.422 -0.215 -3.01 -0.215 c -2.586 0 -3.01 0.027 -3.01 0.215 c 0 0.121 0.121 0.215 0.281 0.215 c 0.152 0 0.434 0.129 0.621 0.289 c 0.188 0.156 0.426 0.285 0.535 0.285 c 0.105 0 0.348 0.129 0.535 0.289 c 0.242 0.203 0.543 0.285 1.039 0.285 c 0.5 0 0.801 -0.082 1.043 -0.285 m -4.938 -2.238 c 0.105 -0.297 0.105 -2.559 0 -2.852 c -0.113 -0.316 -0.633 -0.285 -0.922 0.059 c -0.137 0.16 -0.375 0.289 -0.539 0.289 c -0.16 0 -0.398 0.129 -0.535 0.285 c -0.133 0.16 -0.363 0.289 -0.512 0.289 c -0.313 0 -0.891 0.531 -0.891 0.816 c 0 0.102 0.125 0.188 0.277 0.188 c 0.156 0 0.434 0.133 0.621 0.289 c 0.188 0.156 0.43 0.289 0.535 0.289 c 0.109 0 0.348 0.129 0.535 0.285 c 0.422 0.355 1.309 0.395 1.43 0.063 m 6.883 0.055 c 0.168 -0.184 0.23 -2.484 0.078 -2.906 c -0.07 -0.199 -0.469 -0.227 -3.066 -0.227 c -2.594 0 -2.992 0.027 -3.062 0.227 c -0.152 0.422 -0.09 2.723 0.078 2.906 c 0.227 0.242 5.742 0.242 5.973 0 m 2.336 -0.117 c 0.188 -0.156 0.43 -0.285 0.539 -0.285 c 0.105 0 0.348 -0.133 0.535 -0.289 c 0.188 -0.156 0.465 -0.289 0.617 -0.289 c 0.156 0 0.281 -0.074 0.281 -0.168 c 0 -0.293 -0.566 -0.836 -0.871 -0.836 c -0.16 0 -0.402 -0.129 -0.535 -0.289 c -0.133 -0.156 -0.371 -0.285 -0.535 -0.285 c -0.16 0 -0.402 -0.129 -0.535 -0.289 c -0.289 -0.344 -0.809 -0.375 -0.922 -0.059 c -0.047 0.125 -0.082 0.766 -0.082 1.426 c 0 0.656 0.035 1.301 0.082 1.426 c 0.117 0.332 1.01 0.293 1.426 -0.063 m -2.848 -3.953 c 0 -0.129 -0.121 -0.215 -0.313 -0.215 c -0.172 0 -0.422 -0.129 -0.555 -0.285 c -0.133 -0.16 -0.375 -0.289 -0.535 -0.289 c -0.164 0 -0.402 -0.129 -0.539 -0.285 c -0.309 -0.367 -0.758 -0.367 -1.07 0 c -0.133 0.156 -0.371 0.285 -0.535 0.285 c -0.16 0 -0.402 0.129 -0.535 0.289 c -0.133 0.156 -0.383 0.285 -0.555 0.285 c -0.191 0 -0.316 0.086 -0.316 0.215 c 0 0.188 0.367 0.219 2.477 0.219 c 2.113 0 2.477 -0.031 2.477 -0.219" fill="#e06060"/><path d="m 15.5 25.406 c -0.043 -0.117 -0.223 -0.215 -0.395 -0.215 c -0.176 0 -0.43 -0.129 -0.563 -0.289 c -0.133 -0.156 -0.375 -0.285 -0.535 -0.285 c -0.16 0 -0.402 -0.129 -0.535 -0.289 c -0.133 -0.156 -0.375 -0.285 -0.535 -0.285 c -0.16 0 -0.402 -0.133 -0.535 -0.289 c -0.133 -0.156 -0.375 -0.289 -0.535 -0.289 c -0.164 0 -0.402 -0.129 -0.535 -0.285 c -0.137 -0.16 -0.375 -0.289 -0.539 -0.289 c -0.16 0 -0.398 -0.129 -0.535 -0.285 c -0.133 -0.16 -0.371 -0.289 -0.535 -0.289 c -0.16 0 -0.398 -0.129 -0.535 -0.285 c -0.133 -0.16 -0.375 -0.289 -0.535 -0.289 c -0.16 0 -0.402 -0.129 -0.535 -0.289 c -0.133 -0.156 -0.324 -0.285 -0.422 -0.285 c -0.148 0 -0.18 -0.855 -0.18 -4.672 c 0 -3.816 0.031 -4.672 0.18 -4.672 c 0.098 0 0.289 -0.129 0.422 -0.285 c 0.133 -0.16 0.375 -0.289 0.535 -0.289 c 0.16 0 0.402 -0.129 0.535 -0.285 c 0.133 -0.16 0.375 -0.289 0.535 -0.289 c 0.164 0 0.402 -0.129 0.535 -0.289 c 0.137 -0.156 0.375 -0.285 0.535 -0.285 c 0.164 0 0.402 -0.129 0.539 -0.289 c 0.133 -0.156 0.371 -0.285 0.535 -0.285 c 0.16 0 0.398 -0.129 0.535 -0.289 c 0.133 -0.156 0.375 -0.285 0.535 -0.285 c 0.16 0 0.402 -0.133 0.535 -0.289 c 0.133 -0.156 0.375 -0.289 0.535 -0.289 c 0.16 0 0.402 -0.129 0.535 -0.285 c 0.133 -0.16 0.391 -0.289 0.57 -0.289 c 0.211 0 0.348 -0.098 0.395 -0.285 c 0.059 -0.23 0.184 -0.289 0.641 -0.289 c 0.461 0 0.586 0.059 0.645 0.289 c 0.043 0.188 0.18 0.285 0.395 0.285 c 0.18 0 0.434 0.129 0.57 0.289 c 0.133 0.156 0.371 0.285 0.535 0.285 c 0.16 0 0.402 0.133 0.535 0.289 c 0.133 0.156 0.375 0.289 0.535 0.289 c 0.16 0 0.402 0.129 0.535 0.285 c 0.133 0.16 0.375 0.289 0.535 0.289 c 0.16 0 0.402 0.129 0.535 0.285 c 0.133 0.16 0.375 0.289 0.535 0.289 c 0.16 0 0.402 0.129 0.535 0.285 c 0.133 0.16 0.375 0.289 0.535 0.289 c 0.164 0 0.402 0.129 0.535 0.289 c 0.137 0.156 0.371 0.289 0.523 0.289 c 0.156 0.004 0.445 0.164 0.648 0.355 l 0.371 0.348 v 9.08 l -0.371 0.348 c -0.203 0.191 -0.492 0.348 -0.648 0.352 c -0.152 0 -0.387 0.133 -0.523 0.293 c -0.133 0.156 -0.371 0.285 -0.535 0.285 c -0.16 0 -0.398 0.129 -0.535 0.289 c -0.133 0.156 -0.375 0.285 -0.535 0.285 c -0.16 0 -0.402 0.129 -0.535 0.289 c -0.133 0.156 -0.375 0.285 -0.535 0.285 c -0.16 0 -0.402 0.133 -0.535 0.289 c -0.133 0.156 -0.375 0.289 -0.535 0.289 c -0.16 0 -0.402 0.129 -0.535 0.285 c -0.133 0.16 -0.375 0.289 -0.535 0.289 c -0.164 0 -0.402 0.129 -0.535 0.285 c -0.133 0.16 -0.387 0.289 -0.563 0.289 c -0.176 0 -0.352 0.098 -0.395 0.215 c -0.051 0.145 -0.266 0.215 -0.652 0.215 c -0.387 0 -0.598 -0.07 -0.648 -0.215 m 2.258 -1.223 c 0.133 -0.156 0.371 -0.285 0.535 -0.285 c 0.16 0 0.398 -0.129 0.535 -0.289 c 0.133 -0.156 0.363 -0.285 0.512 -0.285 c 0.313 0 0.895 -0.531 0.895 -0.816 c 0 -0.113 -0.152 -0.191 -0.375 -0.191 c -0.203 0 -0.473 -0.129 -0.598 -0.285 c -0.168 -0.207 -0.379 -0.281 -0.77 -0.266 c -0.406 0.02 -0.609 -0.059 -0.82 -0.297 c -0.16 -0.184 -0.398 -0.301 -0.563 -0.273 c -0.273 0.039 -0.293 0.133 -0.328 1.469 c -0.023 0.785 -0.008 1.516 0.027 1.617 c 0.102 0.289 0.672 0.23 0.949 -0.098 m -2.375 -1.332 c 0.035 -1.207 0.008 -1.414 -0.188 -1.496 c -0.145 -0.059 -0.309 0.02 -0.461 0.219 c -0.18 0.238 -0.379 0.313 -0.848 0.313 c -0.469 0 -0.652 0.066 -0.781 0.285 c -0.102 0.176 -0.313 0.289 -0.535 0.289 c -0.203 0 -0.371 0.043 -0.371 0.098 c 0 0.25 0.48 0.621 0.805 0.621 c 0.199 0 0.469 0.129 0.602 0.285 c 0.133 0.16 0.383 0.289 0.555 0.289 c 0.172 0 0.391 0.133 0.48 0.293 c 0.098 0.168 0.281 0.273 0.438 0.25 c 0.242 -0.035 0.273 -0.164 0.305 -1.445 m 5.707 -1.121 c 0.191 -0.242 0.348 -0.57 0.348 -0.723 c 0 -0.156 0.242 -0.551 0.535 -0.883 c 0.293 -0.328 0.535 -0.73 0.535 -0.895 c 0 -0.164 0.121 -0.41 0.27 -0.547 c 0.145 -0.133 0.266 -0.398 0.266 -0.582 c 0 -0.215 0.113 -0.395 0.301 -0.484 l 0.297 -0.141 l -0.422 -0.453 c -0.234 -0.254 -0.563 -0.453 -0.738 -0.453 c -0.172 0 -0.418 -0.133 -0.543 -0.289 c -0.125 -0.16 -0.379 -0.289 -0.563 -0.289 c -0.191 0 -0.391 -0.117 -0.473 -0.285 c -0.289 -0.578 -0.938 -0.293 -0.938 0.41 c 0 0.133 -0.121 0.355 -0.27 0.488 c -0.145 0.137 -0.266 0.379 -0.266 0.543 c 0 0.16 -0.242 0.563 -0.535 0.891 c -0.297 0.328 -0.535 0.73 -0.535 0.895 c 0 0.164 -0.211 0.484 -0.469 0.715 c -0.258 0.23 -0.469 0.5 -0.469 0.598 c 0 0.355 0.68 0.773 1.223 0.754 c 0.383 -0.02 0.598 0.059 0.793 0.285 c 0.148 0.172 0.414 0.313 0.59 0.313 c 0.203 0 0.352 0.105 0.406 0.289 c 0.117 0.395 0.254 0.359 0.656 -0.156 m -9.289 -0.059 c 0.09 -0.121 0.309 -0.219 0.48 -0.219 c 0.176 0 0.395 -0.129 0.484 -0.285 c 0.129 -0.219 0.313 -0.289 0.781 -0.289 c 0.469 0 0.684 -0.078 0.906 -0.332 l 0.289 -0.332 l -0.469 -0.484 c -0.258 -0.27 -0.465 -0.625 -0.465 -0.789 c 0 -0.168 -0.242 -0.555 -0.539 -0.863 c -0.316 -0.332 -0.535 -0.695 -0.535 -0.891 c 0 -0.184 -0.117 -0.41 -0.266 -0.508 c -0.164 -0.109 -0.27 -0.336 -0.27 -0.582 c 0 -0.535 -0.367 -0.684 -0.676 -0.273 c -0.133 0.176 -0.387 0.313 -0.582 0.313 c -0.199 0 -0.414 0.121 -0.512 0.289 c -0.098 0.164 -0.313 0.285 -0.516 0.285 c -0.188 0 -0.477 0.152 -0.641 0.34 c -0.262 0.297 -0.27 0.355 -0.09 0.52 c 0.113 0.102 0.207 0.336 0.207 0.523 c 0 0.188 0.121 0.422 0.266 0.52 c 0.156 0.102 0.27 0.336 0.27 0.547 c 0 0.238 0.188 0.563 0.535 0.93 c 0.293 0.309 0.535 0.68 0.535 0.824 c 0 0.293 0.375 0.973 0.535 0.973 c 0.055 0 0.176 -0.098 0.27 -0.219 m 11.305 -0.348 c 0.129 -0.156 0.395 -0.301 0.59 -0.324 l 0.352 -0.043 l 0.039 -1.547 c 0.031 -1.309 0.008 -1.543 -0.168 -1.543 c -0.117 0 -0.203 0.125 -0.203 0.301 c 0 0.164 -0.121 0.465 -0.27 0.664 c -0.148 0.203 -0.266 0.516 -0.266 0.699 c 0 0.184 -0.086 0.383 -0.188 0.445 c -0.422 0.266 -0.902 1.047 -0.82 1.336 c 0.113 0.375 0.621 0.379 0.934 0.012 m -13.09 -0.094 c 0.051 -0.145 -0.117 -0.438 -0.473 -0.832 c -0.305 -0.332 -0.555 -0.738 -0.555 -0.898 c 0 -0.164 -0.117 -0.41 -0.262 -0.551 c -0.141 -0.137 -0.285 -0.391 -0.316 -0.559 c -0.035 -0.172 -0.051 0.305 -0.043 1.055 l 0.02 1.367 l 0.371 0.047 c 0.207 0.023 0.445 0.168 0.535 0.32 c 0.195 0.336 0.609 0.367 0.723 0.051 m 7.367 -1.879 c 0.168 -0.211 0.309 -0.504 0.309 -0.652 c 0 -0.148 0.238 -0.539 0.535 -0.867 c 0.301 -0.34 0.535 -0.742 0.535 -0.926 c 0 -0.18 0.121 -0.395 0.266 -0.477 c 0.156 -0.09 0.27 -0.301 0.27 -0.508 c 0 -0.402 -0.281 -0.473 -0.535 -0.141 c -0.094 0.117 -0.273 0.215 -0.402 0.215 c -0.129 0 -0.387 0.129 -0.574 0.289 c -0.184 0.156 -0.422 0.285 -0.523 0.285 c -0.41 0 -0.508 0.348 -0.508 1.754 c 0 1.543 0.094 1.695 0.629 1.027 m -2.027 -2.445 c -0.039 -0.105 -0.211 -0.191 -0.387 -0.191 c -0.176 0 -0.426 -0.129 -0.559 -0.285 c -0.133 -0.16 -0.348 -0.289 -0.473 -0.289 c -0.129 0 -0.309 -0.098 -0.398 -0.215 c -0.09 -0.121 -0.219 -0.215 -0.285 -0.215 c -0.211 0 -0.121 0.379 0.152 0.645 c 0.145 0.145 0.266 0.398 0.266 0.57 c 0 0.168 0.242 0.559 0.535 0.867 c 0.297 0.309 0.535 0.691 0.535 0.848 c 0 0.156 0.137 0.441 0.305 0.629 l 0.301 0.344 l 0.039 -1.258 c 0.02 -0.691 0.008 -1.344 -0.031 -1.449 m 8.691 -2.129 c 0 -1.43 -0.023 -1.582 -0.25 -1.629 c -0.137 -0.031 -0.422 0.082 -0.629 0.246 c -0.211 0.168 -0.465 0.305 -0.57 0.305 c -0.102 0 -0.332 0.117 -0.508 0.266 c -0.176 0.145 -0.484 0.309 -0.688 0.359 c -0.27 0.074 -0.367 0.184 -0.367 0.438 c 0 0.34 0.223 0.516 0.652 0.516 c 0.125 0 0.328 0.129 0.453 0.289 c 0.129 0.156 0.367 0.285 0.539 0.285 c 0.168 0 0.41 0.137 0.543 0.297 c 0.137 0.176 0.355 0.277 0.531 0.254 c 0.281 -0.043 0.293 -0.105 0.293 -1.625 m -15.03 1.219 c 0.098 -0.172 0.313 -0.285 0.527 -0.285 c 0.203 0 0.441 -0.121 0.543 -0.277 c 0.098 -0.148 0.355 -0.297 0.574 -0.324 c 0.535 -0.063 0.57 -0.602 0.043 -0.664 c -0.195 -0.027 -0.461 -0.172 -0.59 -0.324 c -0.129 -0.156 -0.355 -0.281 -0.508 -0.281 c -0.148 0 -0.406 -0.137 -0.574 -0.305 c -0.559 -0.563 -0.719 -0.293 -0.719 1.211 c 0 0.742 0.043 1.391 0.09 1.441 c 0.168 0.184 0.445 0.094 0.613 -0.191 m 8.172 -0.43 c 0.184 -0.16 0.426 -0.289 0.535 -0.289 c 0.105 0 0.348 -0.129 0.535 -0.285 c 0.188 -0.16 0.465 -0.289 0.621 -0.289 c 0.156 0 0.277 -0.094 0.277 -0.215 c 0 -0.188 -0.422 -0.215 -3.01 -0.215 c -2.586 0 -3.01 0.027 -3.01 0.215 c 0 0.121 0.121 0.215 0.281 0.215 c 0.152 0 0.434 0.129 0.621 0.289 c 0.188 0.156 0.426 0.285 0.535 0.285 c 0.105 0 0.348 0.129 0.535 0.289 c 0.242 0.203 0.543 0.285 1.039 0.285 c 0.496 0 0.801 -0.082 1.043 -0.285 m -4.938 -2.238 c 0.105 -0.297 0.105 -2.559 0 -2.852 c -0.113 -0.316 -0.633 -0.285 -0.926 0.059 c -0.133 0.16 -0.371 0.289 -0.535 0.289 c -0.16 0 -0.398 0.129 -0.535 0.285 c -0.133 0.16 -0.363 0.289 -0.512 0.289 c -0.313 0 -0.895 0.531 -0.895 0.816 c 0 0.102 0.129 0.188 0.281 0.188 c 0.156 0 0.434 0.133 0.621 0.289 c 0.188 0.156 0.43 0.289 0.535 0.289 c 0.109 0 0.348 0.129 0.535 0.285 c 0.422 0.355 1.309 0.395 1.43 0.063 m 6.879 0.055 c 0.168 -0.184 0.234 -2.484 0.082 -2.906 c -0.07 -0.199 -0.469 -0.227 -3.066 -0.227 c -2.598 0 -2.992 0.027 -3.062 0.227 c -0.152 0.422 -0.09 2.723 0.078 2.906 c 0.227 0.242 5.742 0.242 5.969 0 m 2.34 -0.117 c 0.188 -0.156 0.43 -0.285 0.535 -0.285 c 0.109 0 0.352 -0.133 0.535 -0.289 c 0.188 -0.156 0.469 -0.289 0.621 -0.289 c 0.156 0 0.281 -0.074 0.281 -0.168 c 0 -0.293 -0.566 -0.836 -0.871 -0.836 c -0.16 0 -0.402 -0.129 -0.535 -0.289 c -0.133 -0.156 -0.375 -0.285 -0.535 -0.285 c -0.16 0 -0.402 -0.129 -0.535 -0.289 c -0.289 -0.344 -0.809 -0.375 -0.922 -0.059 c -0.047 0.125 -0.082 0.766 -0.082 1.426 c 0 0.656 0.035 1.301 0.082 1.426 c 0.117 0.332 1.01 0.293 1.426 -0.063 m -2.848 -3.953 c 0 -0.129 -0.125 -0.215 -0.313 -0.215 c -0.172 0 -0.422 -0.129 -0.559 -0.285 c -0.133 -0.16 -0.371 -0.289 -0.535 -0.289 c -0.16 0 -0.398 -0.129 -0.535 -0.285 c -0.309 -0.367 -0.762 -0.367 -1.07 0 c -0.133 0.156 -0.375 0.285 -0.535 0.285 c -0.16 0 -0.402 0.129 -0.535 0.289 c -0.133 0.156 -0.383 0.285 -0.555 0.285 c -0.191 0 -0.316 0.086 -0.316 0.215 c 0 0.188 0.367 0.219 2.477 0.219 c 2.113 0 2.477 -0.031 2.477 -0.219" fill="#6262b3"/><path d="m 15.586 25.344 c -0.09 -0.152 -0.324 -0.297 -0.523 -0.324 c -0.508 -0.063 -0.582 -0.402 -0.09 -0.402 c 0.215 0 0.461 -0.078 0.547 -0.172 c 0.223 -0.238 0.223 -3.02 0 -3.25 c -0.25 -0.27 -0.594 -0.203 -0.988 0.188 c -0.266 0.262 -0.512 0.359 -0.914 0.359 c -0.387 0 -0.621 0.086 -0.781 0.289 c -0.25 0.313 -0.461 0.352 -0.762 0.152 c -0.262 -0.18 0.047 -0.586 0.449 -0.586 c 0.156 0 0.391 -0.129 0.516 -0.285 c 0.164 -0.207 0.398 -0.289 0.801 -0.289 c 0.508 -0.004 0.641 -0.082 1.207 -0.711 l 0.633 -0.707 v -1.363 c 0 -1.41 -0.137 -1.816 -0.621 -1.816 c -0.113 0 -0.359 -0.133 -0.547 -0.289 c -0.188 -0.16 -0.445 -0.289 -0.57 -0.289 c -0.129 0 -0.309 -0.094 -0.402 -0.215 c -0.215 -0.281 -0.484 -0.273 -0.586 0.012 c -0.129 0.359 -0.102 0.453 0.25 0.863 c 0.188 0.215 0.336 0.504 0.336 0.645 c 0 0.141 0.242 0.523 0.535 0.852 c 0.309 0.344 0.535 0.738 0.535 0.93 c 0 0.18 0.09 0.41 0.203 0.508 c 0.227 0.203 0.262 0.43 0.066 0.43 c -0.219 0 -0.938 -0.887 -0.938 -1.156 c 0 -0.141 -0.242 -0.527 -0.535 -0.855 c -0.297 -0.328 -0.535 -0.738 -0.535 -0.914 c 0 -0.172 -0.121 -0.426 -0.27 -0.563 c -0.145 -0.133 -0.266 -0.398 -0.266 -0.59 c 0 -0.352 -0.223 -0.52 -0.68 -0.52 c -0.184 0 -0.258 -0.102 -0.258 -0.348 c 0 -0.395 -0.32 -0.801 -0.625 -0.801 c -0.113 0 -0.355 -0.129 -0.543 -0.289 c -0.188 -0.156 -0.43 -0.285 -0.535 -0.285 c -0.109 0 -0.352 -0.133 -0.535 -0.289 c -0.391 -0.328 -0.715 -0.367 -0.949 -0.113 c -0.219 0.234 -0.219 3.01 0 3.246 c 0.254 0.27 0.598 0.203 0.992 -0.188 c 0.199 -0.195 0.488 -0.359 0.645 -0.359 c 0.156 0 0.391 -0.129 0.516 -0.285 c 0.301 -0.379 0.902 -0.391 0.902 -0.016 c 0 0.277 -0.246 0.445 -0.652 0.445 c -0.125 0 -0.328 0.129 -0.457 0.289 c -0.125 0.156 -0.363 0.285 -0.531 0.289 c -0.188 0 -0.547 0.27 -0.938 0.707 l -0.637 0.707 v 1.52 c 0 1.422 -0.016 1.52 -0.266 1.52 c -0.266 0 -0.27 -0.098 -0.27 -4.527 c 0 -3.695 0.035 -4.527 0.18 -4.527 c 0.098 0 0.289 -0.129 0.422 -0.289 c 0.133 -0.156 0.375 -0.285 0.535 -0.285 c 0.164 0 0.402 -0.129 0.535 -0.289 c 0.137 -0.156 0.375 -0.285 0.539 -0.285 c 0.16 0 0.398 -0.129 0.535 -0.289 c 0.133 -0.156 0.371 -0.285 0.535 -0.285 c 0.16 0 0.398 -0.133 0.535 -0.289 c 0.133 -0.16 0.375 -0.289 0.535 -0.289 c 0.16 0 0.402 -0.129 0.535 -0.285 c 0.133 -0.16 0.375 -0.289 0.535 -0.289 c 0.16 0 0.402 -0.129 0.535 -0.285 c 0.133 -0.16 0.375 -0.289 0.535 -0.289 c 0.16 0 0.402 -0.129 0.535 -0.289 c 0.133 -0.156 0.348 -0.285 0.48 -0.285 c 0.414 0 0.66 -0.168 0.66 -0.445 c 0 -0.215 0.098 -0.273 0.465 -0.273 c 0.371 0 0.469 0.059 0.469 0.273 c 0 0.277 0.246 0.445 0.66 0.445 c 0.133 0 0.348 0.129 0.48 0.285 c 0.133 0.16 0.375 0.289 0.535 0.289 c 0.16 0 0.402 0.129 0.535 0.289 c 0.133 0.156 0.375 0.285 0.535 0.285 c 0.16 0 0.402 0.129 0.535 0.289 c 0.133 0.156 0.375 0.285 0.535 0.285 c 0.16 0 0.402 0.129 0.535 0.289 c 0.133 0.156 0.375 0.289 0.535 0.289 c 0.164 0 0.402 0.129 0.535 0.285 c 0.133 0.16 0.375 0.289 0.535 0.289 c 0.164 0 0.402 0.129 0.539 0.285 c 0.133 0.16 0.367 0.289 0.52 0.293 c 0.156 0.004 0.449 0.16 0.648 0.352 l 0.371 0.348 v 4.465 c 0 3.82 -0.031 4.461 -0.199 4.461 c -0.105 0 -0.258 0.129 -0.336 0.289 c -0.094 0.184 -0.281 0.285 -0.539 0.285 c -0.254 0 -0.441 0.102 -0.535 0.289 c -0.078 0.16 -0.277 0.285 -0.449 0.285 c -0.172 0 -0.418 0.129 -0.555 0.289 c -0.133 0.156 -0.371 0.285 -0.535 0.285 c -0.16 0 -0.402 0.133 -0.535 0.289 c -0.133 0.16 -0.383 0.289 -0.559 0.289 c -0.172 0 -0.418 0.129 -0.543 0.285 c -0.125 0.16 -0.395 0.289 -0.598 0.289 c -0.227 0 -0.418 0.105 -0.508 0.285 c -0.094 0.188 -0.281 0.289 -0.535 0.289 c -0.258 0 -0.445 0.102 -0.535 0.289 c -0.086 0.164 -0.281 0.285 -0.473 0.285 c -0.184 0 -0.402 0.129 -0.496 0.289 c -0.223 0.379 -0.918 0.387 -1.137 0.008 m 2.172 -1.16 c 0.133 -0.156 0.371 -0.285 0.535 -0.285 c 0.16 0 0.402 -0.129 0.535 -0.289 c 0.133 -0.156 0.363 -0.285 0.512 -0.285 c 0.313 0 0.895 -0.531 0.895 -0.816 c 0 -0.113 -0.152 -0.191 -0.375 -0.191 c -0.203 0 -0.473 -0.129 -0.598 -0.285 c -0.168 -0.207 -0.379 -0.281 -0.77 -0.266 c -0.406 0.02 -0.609 -0.059 -0.816 -0.297 c -0.164 -0.184 -0.402 -0.301 -0.566 -0.273 c -0.273 0.039 -0.293 0.133 -0.328 1.469 c -0.023 0.785 -0.008 1.516 0.027 1.617 c 0.105 0.289 0.672 0.23 0.949 -0.098 m 3.332 -2.453 c 0.191 -0.242 0.348 -0.57 0.348 -0.723 c 0 -0.156 0.242 -0.555 0.535 -0.883 c 0.297 -0.328 0.535 -0.73 0.535 -0.895 c 0 -0.164 0.121 -0.41 0.27 -0.547 c 0.145 -0.133 0.266 -0.398 0.266 -0.582 c 0 -0.215 0.113 -0.395 0.301 -0.484 l 0.297 -0.141 l -0.422 -0.457 c -0.234 -0.25 -0.563 -0.453 -0.738 -0.453 c -0.172 0 -0.418 -0.129 -0.543 -0.285 c -0.125 -0.16 -0.379 -0.289 -0.563 -0.289 c -0.191 0 -0.387 -0.117 -0.473 -0.285 c -0.289 -0.578 -0.938 -0.297 -0.938 0.41 c 0 0.133 -0.121 0.355 -0.266 0.488 c -0.148 0.137 -0.27 0.379 -0.27 0.543 c 0 0.16 -0.242 0.563 -0.535 0.891 c -0.293 0.328 -0.535 0.73 -0.535 0.895 c 0 0.16 -0.211 0.484 -0.469 0.715 c -0.258 0.23 -0.469 0.5 -0.469 0.598 c 0 0.355 0.68 0.773 1.223 0.75 c 0.383 -0.016 0.598 0.063 0.793 0.289 c 0.148 0.172 0.414 0.313 0.59 0.313 c 0.203 0 0.352 0.105 0.406 0.289 c 0.117 0.391 0.254 0.359 0.656 -0.156 m 2.02 -0.41 c 0.129 -0.156 0.395 -0.301 0.59 -0.324 l 0.352 -0.047 l 0.039 -1.543 c 0.031 -1.309 0.008 -1.547 -0.168 -1.547 c -0.117 0 -0.203 0.129 -0.203 0.301 c 0 0.168 -0.121 0.465 -0.27 0.668 c -0.148 0.199 -0.266 0.516 -0.266 0.699 c 0 0.184 -0.086 0.383 -0.188 0.445 c -0.422 0.266 -0.902 1.047 -0.82 1.336 c 0.113 0.375 0.621 0.379 0.934 0.012 m -5.723 -1.973 c 0.168 -0.211 0.309 -0.504 0.309 -0.652 c 0 -0.148 0.238 -0.539 0.535 -0.871 c 0.301 -0.336 0.535 -0.738 0.535 -0.922 c 0 -0.18 0.121 -0.395 0.266 -0.48 c 0.156 -0.09 0.27 -0.301 0.27 -0.508 c 0 -0.398 -0.281 -0.469 -0.535 -0.137 c -0.094 0.117 -0.273 0.215 -0.402 0.215 c -0.129 0 -0.387 0.129 -0.574 0.289 c -0.184 0.156 -0.422 0.285 -0.523 0.285 c -0.41 0 -0.508 0.348 -0.508 1.754 c 0 1.539 0.094 1.695 0.629 1.027 m 6.664 -4.574 c 0 -1.43 -0.023 -1.582 -0.25 -1.629 c -0.137 -0.031 -0.422 0.082 -0.629 0.246 c -0.211 0.168 -0.465 0.305 -0.57 0.305 c -0.102 0 -0.328 0.117 -0.504 0.266 c -0.176 0.145 -0.488 0.309 -0.688 0.359 c -0.273 0.074 -0.371 0.184 -0.371 0.438 c 0 0.34 0.223 0.516 0.652 0.516 c 0.125 0 0.328 0.129 0.457 0.289 c 0.125 0.156 0.367 0.285 0.535 0.285 c 0.168 0 0.41 0.137 0.543 0.297 c 0.137 0.176 0.359 0.277 0.531 0.254 c 0.285 -0.043 0.293 -0.105 0.293 -1.625 m -6.855 0.789 c 0.188 -0.16 0.426 -0.289 0.535 -0.289 c 0.105 0 0.348 -0.129 0.535 -0.285 c 0.188 -0.16 0.465 -0.289 0.621 -0.289 c 0.16 0 0.277 -0.094 0.277 -0.215 c 0 -0.188 -0.422 -0.215 -3.01 -0.215 c -2.586 0 -3.01 0.027 -3.01 0.215 c 0 0.121 0.121 0.215 0.281 0.215 c 0.152 0 0.434 0.129 0.621 0.289 c 0.188 0.156 0.426 0.285 0.535 0.285 c 0.105 0 0.348 0.129 0.535 0.289 c 0.242 0.203 0.543 0.285 1.039 0.285 c 0.5 0 0.801 -0.082 1.043 -0.285 m -4.938 -2.238 c 0.105 -0.297 0.105 -2.559 0 -2.852 c -0.113 -0.32 -0.633 -0.285 -0.922 0.059 c -0.133 0.16 -0.375 0.289 -0.535 0.289 c -0.164 0 -0.402 0.129 -0.539 0.285 c -0.133 0.16 -0.363 0.289 -0.512 0.289 c -0.313 0 -0.891 0.531 -0.891 0.816 c 0 0.102 0.125 0.188 0.277 0.188 c 0.156 0 0.434 0.133 0.621 0.289 c 0.188 0.156 0.43 0.289 0.535 0.289 c 0.109 0 0.348 0.129 0.535 0.285 c 0.422 0.355 1.309 0.395 1.43 0.063 m 6.883 0.055 c 0.168 -0.184 0.23 -2.484 0.078 -2.906 c -0.07 -0.199 -0.469 -0.23 -3.066 -0.23 c -2.594 0 -2.992 0.031 -3.062 0.23 c -0.152 0.422 -0.09 2.723 0.078 2.906 c 0.227 0.242 5.742 0.242 5.973 0 m 2.336 -0.117 c 0.188 -0.156 0.43 -0.285 0.539 -0.285 c 0.105 0 0.348 -0.133 0.535 -0.289 c 0.188 -0.156 0.465 -0.289 0.617 -0.289 c 0.156 0 0.281 -0.074 0.281 -0.168 c 0 -0.293 -0.566 -0.836 -0.871 -0.836 c -0.16 0 -0.402 -0.129 -0.535 -0.289 c -0.133 -0.156 -0.371 -0.285 -0.535 -0.285 c -0.16 0 -0.402 -0.129 -0.535 -0.289 c -0.289 -0.344 -0.809 -0.379 -0.922 -0.059 c -0.043 0.125 -0.082 0.766 -0.082 1.426 c 0 0.656 0.039 1.301 0.082 1.426 c 0.117 0.332 1.01 0.293 1.426 -0.063 m -2.848 -3.953 c 0 -0.129 -0.121 -0.215 -0.313 -0.215 c -0.172 0 -0.422 -0.129 -0.555 -0.285 c -0.133 -0.16 -0.375 -0.289 -0.535 -0.289 c -0.164 0 -0.402 -0.129 -0.535 -0.289 c -0.313 -0.367 -0.762 -0.367 -1.074 0 c -0.133 0.16 -0.371 0.289 -0.535 0.289 c -0.16 0 -0.402 0.129 -0.535 0.289 c -0.133 0.156 -0.383 0.285 -0.555 0.285 c -0.191 0 -0.316 0.086 -0.316 0.215 c 0 0.184 0.367 0.219 2.477 0.219 c 2.113 0 2.477 -0.035 2.477 -0.219 m -4.996 15.07 c -0.203 -0.219 -0.063 -0.352 0.336 -0.309 c 0.555 0.059 0.676 0.406 0.145 0.406 c -0.215 0 -0.43 -0.043 -0.48 -0.098 m -1.07 -0.574 c -0.203 -0.219 -0.063 -0.352 0.336 -0.309 c 0.555 0.059 0.676 0.402 0.145 0.402 c -0.215 0 -0.43 -0.043 -0.48 -0.094 m -1.227 -0.766 c -0.133 -0.16 -0.375 -0.289 -0.535 -0.289 c -0.164 0 -0.398 -0.125 -0.531 -0.277 c -0.129 -0.156 -0.387 -0.301 -0.578 -0.324 c -0.52 -0.066 -0.523 -0.375 -0.004 -0.43 c 0.387 -0.039 0.449 -0.102 0.484 -0.492 c 0.031 -0.359 -0.066 -0.57 -0.504 -1.055 c -0.313 -0.348 -0.543 -0.746 -0.543 -0.938 c 0 -0.18 -0.09 -0.41 -0.199 -0.508 c -0.207 -0.184 -0.285 -1 -0.094 -1 c 0.199 0 0.43 0.34 0.43 0.641 c 0 0.164 0.117 0.41 0.266 0.547 c 0.148 0.133 0.27 0.371 0.27 0.523 c 0 0.152 0.238 0.547 0.535 0.875 c 0.293 0.328 0.535 0.738 0.535 0.91 c 0 0.188 0.289 0.617 0.734 1.086 c 0.406 0.43 0.738 0.832 0.738 0.898 c 0 0.242 -0.766 0.117 -1 -0.164 m -3.063 -1.664 c -0.066 -0.18 0.004 -0.215 0.34 -0.18 c 0.559 0.063 0.676 0.406 0.137 0.406 c -0.238 0 -0.43 -0.09 -0.477 -0.227" fill="#626206"/><path d="m 15.586 25.344 c -0.09 -0.152 -0.324 -0.297 -0.523 -0.324 c -0.508 -0.063 -0.582 -0.402 -0.09 -0.402 c 0.215 0 0.461 -0.078 0.547 -0.172 c 0.223 -0.238 0.223 -3.02 0 -3.25 c -0.25 -0.27 -0.594 -0.203 -0.988 0.188 c -0.266 0.262 -0.512 0.359 -0.914 0.359 c -0.387 0 -0.621 0.086 -0.781 0.289 c -0.25 0.313 -0.461 0.352 -0.762 0.152 c -0.262 -0.18 0.047 -0.586 0.449 -0.586 c 0.156 0 0.391 -0.129 0.516 -0.285 c 0.164 -0.207 0.398 -0.289 0.801 -0.289 c 0.508 -0.004 0.641 -0.082 1.207 -0.711 l 0.633 -0.707 v -1.363 c 0 -1.41 -0.137 -1.816 -0.621 -1.816 c -0.113 0 -0.359 -0.133 -0.547 -0.289 c -0.188 -0.16 -0.445 -0.289 -0.57 -0.289 c -0.129 0 -0.309 -0.094 -0.402 -0.215 c -0.215 -0.281 -0.484 -0.273 -0.586 0.012 c -0.129 0.359 -0.102 0.453 0.25 0.863 c 0.188 0.215 0.336 0.504 0.336 0.645 c 0 0.141 0.242 0.523 0.535 0.852 c 0.309 0.344 0.535 0.738 0.535 0.93 c 0 0.18 0.09 0.41 0.203 0.508 c 0.227 0.203 0.262 0.43 0.066 0.43 c -0.219 0 -0.938 -0.887 -0.938 -1.156 c 0 -0.141 -0.242 -0.527 -0.535 -0.855 c -0.297 -0.328 -0.535 -0.738 -0.535 -0.914 c 0 -0.172 -0.121 -0.426 -0.27 -0.563 c -0.145 -0.133 -0.266 -0.398 -0.266 -0.59 c 0 -0.352 -0.223 -0.52 -0.68 -0.52 c -0.184 0 -0.258 -0.102 -0.258 -0.348 c 0 -0.395 -0.32 -0.801 -0.625 -0.801 c -0.113 0 -0.355 -0.129 -0.543 -0.289 c -0.188 -0.156 -0.43 -0.285 -0.535 -0.285 c -0.109 0 -0.352 -0.133 -0.535 -0.289 c -0.391 -0.328 -0.715 -0.367 -0.949 -0.113 c -0.219 0.234 -0.219 3.01 0 3.246 c 0.254 0.27 0.598 0.203 0.992 -0.188 c 0.199 -0.195 0.488 -0.359 0.645 -0.359 c 0.156 0 0.391 -0.129 0.516 -0.285 c 0.301 -0.379 0.902 -0.391 0.902 -0.016 c 0 0.277 -0.246 0.445 -0.652 0.445 c -0.125 0 -0.328 0.129 -0.457 0.289 c -0.125 0.156 -0.363 0.285 -0.531 0.289 c -0.188 0 -0.547 0.27 -0.938 0.707 l -0.637 0.707 v 1.52 c 0 1.422 -0.016 1.52 -0.266 1.52 c -0.266 0 -0.27 -0.098 -0.27 -4.527 c 0 -3.695 0.035 -4.527 0.18 -4.527 c 0.098 0 0.289 -0.129 0.422 -0.289 c 0.133 -0.156 0.395 -0.285 0.578 -0.285 c 0.316 0 0.32 0.016 0.113 0.262 c -0.438 0.523 -0.219 1.031 0.441 1.031 c 0.133 0 0.313 0.09 0.398 0.203 c 0.082 0.109 0.313 0.242 0.508 0.293 c 0.191 0.055 0.5 0.223 0.68 0.375 c 0.371 0.313 1.223 0.375 1.473 0.105 c 0.219 -0.238 0.219 -3.297 0 -3.535 c -0.09 -0.094 -0.332 -0.172 -0.543 -0.172 c -0.223 0 -0.348 -0.063 -0.301 -0.145 c 0.047 -0.078 0.219 -0.145 0.391 -0.145 c 0.168 0 0.414 -0.129 0.547 -0.285 c 0.32 -0.379 0.707 -0.363 1 0.035 c 0.234 0.316 0.297 0.324 2.754 0.309 c 2.406 -0.012 2.523 -0.023 2.746 -0.32 c 0.293 -0.391 0.68 -0.398 0.996 -0.023 c 0.133 0.156 0.379 0.285 0.547 0.285 c 0.172 0 0.344 0.066 0.391 0.145 c 0.047 0.082 -0.078 0.145 -0.301 0.145 c -0.211 0 -0.453 0.078 -0.543 0.172 c -0.223 0.238 -0.223 3.297 0 3.535 c 0.25 0.27 1.102 0.207 1.473 -0.105 c 0.18 -0.152 0.488 -0.32 0.68 -0.375 c 0.195 -0.051 0.422 -0.184 0.508 -0.293 c 0.086 -0.113 0.266 -0.203 0.398 -0.203 c 0.66 0 0.879 -0.512 0.441 -1.031 c -0.207 -0.246 -0.203 -0.262 0.102 -0.258 c 0.176 0.004 0.488 0.16 0.688 0.352 l 0.371 0.348 v 4.465 c 0 3.82 -0.031 4.461 -0.199 4.461 c -0.105 0 -0.258 0.129 -0.336 0.289 c -0.094 0.184 -0.281 0.285 -0.539 0.285 c -0.254 0 -0.441 0.102 -0.535 0.289 c -0.078 0.16 -0.277 0.285 -0.449 0.285 c -0.172 0 -0.418 0.129 -0.555 0.289 c -0.133 0.156 -0.371 0.285 -0.535 0.285 c -0.16 0 -0.402 0.133 -0.535 0.289 c -0.133 0.16 -0.383 0.289 -0.559 0.289 c -0.172 0 -0.418 0.129 -0.543 0.285 c -0.125 0.16 -0.395 0.289 -0.598 0.289 c -0.227 0 -0.418 0.105 -0.508 0.285 c -0.094 0.188 -0.281 0.289 -0.535 0.289 c -0.258 0 -0.445 0.102 -0.535 0.289 c -0.086 0.164 -0.281 0.285 -0.473 0.285 c -0.184 0 -0.402 0.129 -0.496 0.289 c -0.223 0.379 -0.918 0.387 -1.137 0.008 m 2.172 -1.16 c 0.133 -0.156 0.371 -0.285 0.535 -0.285 c 0.16 0 0.402 -0.129 0.535 -0.289 c 0.133 -0.156 0.363 -0.285 0.512 -0.285 c 0.313 0 0.895 -0.531 0.895 -0.816 c 0 -0.113 -0.152 -0.191 -0.375 -0.191 c -0.203 0 -0.473 -0.129 -0.598 -0.285 c -0.168 -0.207 -0.379 -0.281 -0.77 -0.266 c -0.406 0.02 -0.609 -0.059 -0.816 -0.297 c -0.164 -0.184 -0.402 -0.301 -0.566 -0.273 c -0.273 0.039 -0.293 0.133 -0.328 1.469 c -0.023 0.785 -0.008 1.516 0.027 1.617 c 0.105 0.289 0.672 0.23 0.949 -0.098 m 3.332 -2.453 c 0.191 -0.242 0.348 -0.57 0.348 -0.723 c 0 -0.156 0.242 -0.555 0.535 -0.883 c 0.297 -0.328 0.535 -0.73 0.535 -0.895 c 0 -0.164 0.121 -0.41 0.27 -0.547 c 0.145 -0.133 0.266 -0.398 0.266 -0.582 c 0 -0.215 0.113 -0.395 0.301 -0.484 l 0.297 -0.141 l -0.422 -0.457 c -0.234 -0.25 -0.563 -0.453 -0.738 -0.453 c -0.172 0 -0.418 -0.129 -0.543 -0.285 c -0.125 -0.16 -0.379 -0.289 -0.563 -0.289 c -0.191 0 -0.387 -0.117 -0.473 -0.285 c -0.289 -0.578 -0.938 -0.297 -0.938 0.41 c 0 0.133 -0.121 0.355 -0.266 0.488 c -0.148 0.137 -0.27 0.379 -0.27 0.543 c 0 0.16 -0.242 0.563 -0.535 0.891 c -0.293 0.328 -0.535 0.73 -0.535 0.895 c 0 0.16 -0.211 0.484 -0.469 0.715 c -0.258 0.23 -0.469 0.5 -0.469 0.598 c 0 0.355 0.68 0.773 1.223 0.75 c 0.383 -0.016 0.598 0.063 0.793 0.289 c 0.148 0.172 0.414 0.313 0.59 0.313 c 0.203 0 0.352 0.105 0.406 0.289 c 0.117 0.391 0.254 0.359 0.656 -0.156 m 2.02 -0.41 c 0.129 -0.156 0.395 -0.301 0.59 -0.324 l 0.352 -0.047 l 0.039 -1.543 c 0.031 -1.309 0.008 -1.547 -0.168 -1.547 c -0.117 0 -0.203 0.129 -0.203 0.301 c 0 0.168 -0.121 0.465 -0.27 0.668 c -0.148 0.199 -0.266 0.516 -0.266 0.699 c 0 0.184 -0.086 0.383 -0.188 0.445 c -0.422 0.266 -0.902 1.047 -0.82 1.336 c 0.113 0.375 0.621 0.379 0.934 0.012 m -5.723 -1.973 c 0.168 -0.211 0.309 -0.504 0.309 -0.652 c 0 -0.148 0.238 -0.539 0.535 -0.871 c 0.301 -0.336 0.535 -0.738 0.535 -0.922 c 0 -0.18 0.121 -0.395 0.266 -0.48 c 0.156 -0.09 0.27 -0.301 0.27 -0.508 c 0 -0.398 -0.281 -0.469 -0.535 -0.137 c -0.094 0.117 -0.273 0.215 -0.402 0.215 c -0.129 0 -0.387 0.129 -0.574 0.289 c -0.184 0.156 -0.422 0.285 -0.523 0.285 c -0.41 0 -0.508 0.348 -0.508 1.754 c 0 1.539 0.094 1.695 0.629 1.027 m 6.664 -4.574 c 0 -1.43 -0.023 -1.582 -0.25 -1.629 c -0.137 -0.031 -0.422 0.082 -0.629 0.246 c -0.211 0.168 -0.465 0.305 -0.57 0.305 c -0.102 0 -0.328 0.117 -0.504 0.266 c -0.176 0.145 -0.488 0.309 -0.688 0.359 c -0.273 0.074 -0.371 0.184 -0.371 0.438 c 0 0.34 0.223 0.516 0.652 0.516 c 0.125 0 0.328 0.129 0.457 0.289 c 0.125 0.156 0.367 0.285 0.535 0.285 c 0.168 0 0.41 0.137 0.543 0.297 c 0.137 0.176 0.359 0.277 0.531 0.254 c 0.285 -0.043 0.293 -0.105 0.293 -1.625 m -6.867 1.086 c 0.18 -0.156 0.488 -0.324 0.684 -0.375 c 0.191 -0.051 0.422 -0.184 0.508 -0.297 c 0.086 -0.109 0.262 -0.199 0.395 -0.199 c 0.445 0 0.664 -0.172 0.664 -0.52 c 0 -0.188 -0.059 -0.348 -0.133 -0.355 c -0.074 -0.004 -1.492 -0.008 -3.148 -0.008 c -1.656 0 -3.07 0.004 -3.145 0.008 c -0.074 0.008 -0.133 0.168 -0.133 0.355 c 0 0.348 0.219 0.52 0.664 0.52 c 0.129 0 0.309 0.09 0.395 0.199 c 0.086 0.113 0.313 0.246 0.508 0.297 c 0.195 0.051 0.5 0.219 0.684 0.375 c 0.453 0.383 1.605 0.383 2.059 0 m 2.223 -3.879 c 0.02 -0.902 -0.02 -1.699 -0.09 -1.773 c -0.141 -0.152 -6.074 -0.188 -6.301 -0.039 c -0.156 0.102 -0.203 3.266 -0.051 3.434 c 0.051 0.051 1.512 0.078 3.246 0.059 l 3.156 -0.039 l 0.035 -1.641 m -5.77 12.395 c -0.207 -0.219 -0.063 -0.348 0.336 -0.309 c 0.551 0.059 0.676 0.406 0.145 0.406 c -0.215 0 -0.434 -0.043 -0.48 -0.098 m -1.07 -0.574 c -0.207 -0.219 -0.063 -0.352 0.336 -0.309 c 0.551 0.059 0.676 0.406 0.141 0.406 c -0.215 0 -0.43 -0.043 -0.477 -0.098 m -1.23 -0.766 c -0.133 -0.16 -0.371 -0.289 -0.535 -0.289 c -0.16 0 -0.398 -0.125 -0.527 -0.277 c -0.129 -0.152 -0.391 -0.301 -0.578 -0.324 c -0.52 -0.066 -0.523 -0.375 -0.004 -0.43 c 0.387 -0.039 0.445 -0.102 0.48 -0.492 c 0.035 -0.359 -0.066 -0.566 -0.5 -1.055 c -0.313 -0.348 -0.543 -0.746 -0.543 -0.938 c 0 -0.18 -0.09 -0.41 -0.199 -0.508 c -0.207 -0.184 -0.285 -1 -0.094 -1 c 0.199 0 0.426 0.344 0.426 0.641 c 0 0.164 0.121 0.41 0.27 0.547 c 0.148 0.133 0.266 0.371 0.266 0.523 c 0 0.152 0.242 0.547 0.535 0.875 c 0.297 0.328 0.539 0.738 0.539 0.91 c 0 0.191 0.289 0.617 0.734 1.09 c 0.406 0.426 0.738 0.828 0.738 0.895 c 0 0.242 -0.77 0.117 -1.01 -0.164 m -3.063 -1.66 c -0.063 -0.18 0.004 -0.219 0.344 -0.18 c 0.559 0.059 0.676 0.402 0.137 0.402 c -0.238 0 -0.434 -0.09 -0.48 -0.223 m 1.055 -10.414 c 0.047 -0.078 0.234 -0.141 0.418 -0.141 c 0.191 0 0.301 0.063 0.254 0.141 c -0.047 0.082 -0.234 0.145 -0.418 0.145 c -0.188 0 -0.301 -0.063 -0.254 -0.145 m 12.988 0 c -0.047 -0.078 0.063 -0.141 0.25 -0.141 c 0.184 0 0.371 0.063 0.418 0.141 c 0.047 0.082 -0.063 0.145 -0.25 0.145 c -0.188 0 -0.375 -0.063 -0.418 -0.145 m -11.914 -0.574 c 0.043 -0.078 0.23 -0.145 0.414 -0.145 c 0.191 0 0.301 0.063 0.254 0.145 c -0.047 0.078 -0.234 0.145 -0.418 0.145 c -0.188 0 -0.297 -0.063 -0.25 -0.145 m 10.84 0 c -0.043 -0.082 0.066 -0.145 0.254 -0.145 c 0.184 0 0.371 0.066 0.418 0.145 c 0.047 0.082 -0.063 0.145 -0.254 0.145 c -0.184 0 -0.371 -0.066 -0.418 -0.145 m -7.563 -1.723 c 0 -0.078 0.156 -0.145 0.344 -0.145 c 0.195 0 0.305 0.063 0.258 0.145 c -0.043 0.078 -0.199 0.145 -0.34 0.145 c -0.145 0 -0.262 -0.066 -0.262 -0.145 m 4.352 0 c -0.047 -0.082 0.066 -0.145 0.262 -0.145 c 0.188 0 0.34 0.066 0.34 0.145 c 0 0.078 -0.117 0.145 -0.258 0.145 c -0.145 0 -0.297 -0.066 -0.344 -0.145 m -3.348 -0.574 c 0.047 -0.082 0.234 -0.145 0.418 -0.145 c 0.188 0 0.301 0.062 0.254 0.145 c -0.047 0.078 -0.234 0.141 -0.418 0.141 c -0.191 0 -0.301 -0.063 -0.254 -0.141 m 2.277 0 c -0.047 -0.082 0.063 -0.145 0.25 -0.145 c 0.184 0 0.375 0.062 0.418 0.145 c 0.047 0.078 -0.063 0.141 -0.25 0.141 c -0.184 0 -0.375 -0.063 -0.418 -0.141 m -1.273 -0.648 c 0 -0.148 0.141 -0.215 0.469 -0.215 c 0.328 0 0.469 0.066 0.469 0.215 c 0 0.152 -0.141 0.215 -0.469 0.215 c -0.328 0 -0.469 -0.063 -0.469 -0.215" fill="#602728"/><path d="m 15.746 25.305 c -0.074 -0.176 -0.281 -0.363 -0.465 -0.418 c -0.188 -0.055 -0.238 -0.105 -0.117 -0.113 c 0.441 -0.027 0.547 -0.406 0.547 -1.941 c 0 -0.82 -0.039 -1.566 -0.09 -1.652 c -0.047 -0.086 -0.266 -0.156 -0.484 -0.156 c -0.516 0 -0.496 -0.141 0.113 -0.809 l 0.504 -0.559 l -0.031 -1.363 c -0.016 -0.75 -0.031 -1.445 -0.035 -1.543 c -0.004 -0.098 -0.172 -0.219 -0.375 -0.273 c -0.203 -0.055 -0.512 -0.215 -0.688 -0.363 c -0.176 -0.145 -0.406 -0.266 -0.512 -0.266 c -0.109 0 -0.348 -0.125 -0.527 -0.277 c -0.422 -0.355 -0.715 -0.238 -0.715 0.293 c 0 0.594 -0.375 0.555 -0.426 -0.047 c -0.035 -0.383 -0.117 -0.484 -0.488 -0.598 c -0.336 -0.102 -0.461 -0.234 -0.516 -0.543 c -0.055 -0.293 -0.18 -0.438 -0.43 -0.504 c -0.191 -0.051 -0.496 -0.211 -0.672 -0.355 c -0.176 -0.148 -0.406 -0.266 -0.512 -0.266 c -0.109 0 -0.348 -0.129 -0.535 -0.289 c -0.367 -0.309 -1.039 -0.383 -1.184 -0.129 c -0.117 0.203 -0.117 3.074 0 3.277 c 0.051 0.086 0.27 0.156 0.484 0.156 c 0.215 0 0.395 0.059 0.395 0.125 c 0 0.07 -0.246 0.379 -0.543 0.684 l -0.543 0.559 l 0.086 0.902 c 0.105 1.109 -0.023 2.043 -0.285 2.043 c -0.156 0 -0.188 -0.703 -0.188 -4.383 c 0 -4.164 0.012 -4.383 0.246 -4.383 c 0.137 0 0.355 -0.129 0.488 -0.289 c 0.133 -0.156 0.336 -0.285 0.449 -0.285 c 0.16 0 0.172 0.039 0.047 0.172 c -0.398 0.426 -0.113 0.977 0.504 0.977 c 0.133 0 0.309 0.09 0.395 0.203 c 0.086 0.109 0.316 0.242 0.508 0.293 c 0.195 0.055 0.504 0.223 0.684 0.375 c 0.371 0.313 1.223 0.375 1.473 0.105 c 0.25 -0.266 0.219 -3.332 -0.035 -3.559 c -0.168 -0.148 -0.141 -0.227 0.184 -0.52 c 0.457 -0.414 0.699 -0.438 0.984 -0.098 c 0.188 0.227 0.492 0.25 2.699 0.242 c 2.113 -0.012 2.52 -0.051 2.73 -0.254 c 0.332 -0.32 0.516 -0.301 0.969 0.109 c 0.328 0.293 0.355 0.371 0.188 0.52 c -0.254 0.227 -0.285 3.293 -0.035 3.559 c 0.25 0.27 1.102 0.207 1.473 -0.105 c 0.18 -0.152 0.488 -0.32 0.68 -0.371 c 0.195 -0.055 0.422 -0.188 0.508 -0.297 c 0.086 -0.113 0.266 -0.203 0.398 -0.203 c 0.617 0 0.898 -0.551 0.5 -0.977 c -0.125 -0.133 -0.113 -0.172 0.047 -0.172 c 0.113 0 0.316 0.129 0.449 0.285 c 0.133 0.16 0.324 0.289 0.422 0.289 c 0.148 0 0.18 0.809 0.18 4.383 c 0 2.828 -0.047 4.383 -0.133 4.383 c -0.078 0 -0.133 -0.598 -0.133 -1.504 v -1.504 l -0.531 -0.527 c -0.543 -0.539 -0.605 -0.805 -0.156 -0.68 c 0.523 0.148 0.688 -0.301 0.688 -1.895 c 0 -1.984 -0.332 -2.375 -1.34 -1.578 c -0.25 0.195 -0.555 0.359 -0.68 0.359 c -0.121 0 -0.301 0.098 -0.391 0.215 c -0.094 0.121 -0.355 0.27 -0.586 0.332 c -0.313 0.086 -0.449 0.227 -0.547 0.574 c -0.094 0.332 -0.207 0.457 -0.418 0.457 c -0.348 0 -0.551 0.238 -0.613 0.719 c -0.051 0.414 -0.305 0.43 -0.328 0.023 c -0.031 -0.641 -0.301 -0.742 -0.816 -0.309 c -0.188 0.156 -0.43 0.285 -0.535 0.285 c -0.109 0 -0.352 0.133 -0.535 0.289 c -0.188 0.156 -0.453 0.289 -0.586 0.289 c -0.395 0 -0.523 0.469 -0.523 1.922 v 1.371 l 0.531 0.527 c 0.543 0.539 0.605 0.805 0.156 0.68 c -0.527 -0.148 -0.688 0.301 -0.688 1.906 c 0 1.309 0.031 1.531 0.262 1.738 c 0.262 0.238 0.262 0.242 0 0.438 c -0.145 0.109 -0.262 0.293 -0.262 0.406 c 0 0.336 -0.59 0.25 -0.738 -0.113 m 1.434 -9.441 c 0.18 -0.156 0.488 -0.324 0.684 -0.375 c 0.191 -0.051 0.422 -0.184 0.508 -0.297 c 0.086 -0.109 0.262 -0.199 0.395 -0.199 c 0.445 0 0.664 -0.172 0.664 -0.52 c 0 -0.188 -0.059 -0.348 -0.133 -0.355 c -0.074 -0.004 -1.492 -0.008 -3.148 -0.008 c -1.656 0 -3.07 0.004 -3.145 0.008 c -0.074 0.008 -0.133 0.168 -0.133 0.355 c 0 0.348 0.219 0.52 0.664 0.52 c 0.133 0 0.309 0.09 0.395 0.199 c 0.086 0.113 0.316 0.246 0.508 0.297 c 0.195 0.051 0.5 0.219 0.684 0.375 c 0.453 0.383 1.605 0.383 2.059 0 m 2.223 -3.879 c 0.02 -0.902 -0.02 -1.699 -0.09 -1.773 c -0.141 -0.152 -6.074 -0.188 -6.301 -0.039 c -0.156 0.102 -0.203 3.266 -0.051 3.434 c 0.051 0.055 1.512 0.078 3.246 0.059 l 3.156 -0.039 m -5.449 10.609 c 0.098 -0.043 0.215 -0.039 0.258 0.012 c 0.047 0.047 -0.035 0.082 -0.176 0.074 c -0.156 -0.008 -0.188 -0.039 -0.082 -0.086 m -1.07 -0.574 c 0.098 -0.043 0.215 -0.039 0.258 0.012 c 0.043 0.047 -0.035 0.078 -0.176 0.074 c -0.156 -0.008 -0.188 -0.043 -0.082 -0.086 m -1.379 -0.766 c -0.133 -0.156 -0.375 -0.289 -0.535 -0.289 c -0.164 0 -0.402 -0.129 -0.535 -0.285 c -0.133 -0.16 -0.371 -0.289 -0.523 -0.289 c -0.258 -0.004 -0.254 -0.02 0.055 -0.184 c 0.234 -0.125 0.348 -0.32 0.375 -0.645 c 0.051 -0.566 0.426 -0.648 0.426 -0.094 c 0 0.242 0.227 0.621 0.672 1.125 c 0.367 0.418 0.668 0.805 0.668 0.855 c 0 0.199 -0.371 0.078 -0.602 -0.195 m 8.77 0.176 c 0 -0.063 0.297 -0.43 0.66 -0.816 c 0.363 -0.383 0.68 -0.852 0.703 -1.039 c 0.055 -0.449 0.297 -0.438 0.352 0.012 c 0.02 0.195 0.125 0.43 0.227 0.52 c 0.16 0.141 0.125 0.227 -0.195 0.516 c -0.207 0.191 -0.5 0.344 -0.641 0.344 c -0.145 0 -0.371 0.133 -0.504 0.289 c -0.242 0.285 -0.602 0.391 -0.602 0.176 m -8.07 -0.984 c -0.141 -0.152 0.035 -0.34 0.316 -0.34 c 0.141 0 0.258 0.098 0.258 0.215 c 0 0.211 -0.41 0.301 -0.574 0.125 m 7.496 0 c -0.184 -0.199 -0.09 -0.359 0.18 -0.316 c 0.152 0.027 0.273 0.113 0.273 0.191 c 0.004 0.176 -0.32 0.266 -0.453 0.125 m -6.52 -0.699 c 0 -0.16 0.156 -0.215 0.602 -0.215 c 0.449 0 0.605 0.055 0.605 0.215 c 0 0.16 -0.156 0.215 -0.605 0.215 c -0.445 0 -0.602 -0.055 -0.602 -0.215 m 4.891 0.078 c -0.047 -0.086 0 -0.191 0.109 -0.234 c 0.293 -0.121 0.957 -0.012 0.957 0.156 c 0 0.195 -0.957 0.266 -1.066 0.078 m -9.469 -0.105 c 0.098 -0.043 0.215 -0.035 0.258 0.012 c 0.047 0.047 -0.035 0.082 -0.176 0.074 c -0.156 -0.008 -0.188 -0.039 -0.082 -0.086 m 1.293 -1.063 c -0.047 -0.082 -0.055 -0.188 -0.016 -0.23 c 0.094 -0.102 0.355 0.082 0.355 0.25 c 0 0.184 -0.23 0.172 -0.34 -0.02 m -0.598 -0.922 c 0 -0.227 0.078 -0.359 0.203 -0.359 c 0.125 0 0.199 0.133 0.199 0.359 c 0 0.223 -0.074 0.359 -0.199 0.359 c -0.125 0 -0.203 -0.137 -0.203 -0.359 m 13.41 0.063 c 0.023 -0.18 0.125 -0.355 0.223 -0.391 c 0.121 -0.043 0.164 0.039 0.137 0.262 c -0.027 0.184 -0.125 0.359 -0.227 0.395 c -0.121 0.043 -0.164 -0.043 -0.133 -0.266 m -8.59 -0.637 c 0 -0.227 0.074 -0.359 0.199 -0.359 c 0.125 0 0.203 0.133 0.203 0.359 c 0 0.223 -0.078 0.355 -0.203 0.355 c -0.125 0 -0.199 -0.133 -0.199 -0.355 m 3.77 0.063 c 0.027 -0.184 0.125 -0.359 0.227 -0.391 c 0.121 -0.043 0.164 0.039 0.133 0.262 c -0.023 0.184 -0.125 0.359 -0.223 0.391 c -0.121 0.043 -0.164 -0.039 -0.137 -0.262 m -9.07 -0.488 c -0.09 -0.258 0.059 -0.543 0.227 -0.434 c 0.172 0.113 0.16 0.641 -0.012 0.641 c -0.078 0 -0.172 -0.094 -0.215 -0.207 m 14.461 0.008 c -0.047 -0.137 -0.023 -0.32 0.059 -0.406 c 0.109 -0.117 0.172 -0.094 0.238 0.09 c 0.047 0.137 0.02 0.32 -0.059 0.406 c -0.109 0.117 -0.172 0.09 -0.238 -0.09 m -9.629 -0.383 c -0.051 -0.086 -0.059 -0.188 -0.02 -0.23 c 0.098 -0.105 0.359 0.078 0.359 0.246 c 0 0.184 -0.23 0.172 -0.34 -0.016 m -0.598 -0.926 c 0 -0.223 0.074 -0.359 0.199 -0.359 c 0.125 0 0.203 0.137 0.203 0.359 c 0 0.223 -0.078 0.359 -0.203 0.359 c -0.125 0 -0.199 -0.137 -0.199 -0.359 m 5.914 0.063 c 0.023 -0.18 0.125 -0.355 0.223 -0.391 c 0.121 -0.043 0.164 0.043 0.133 0.266 c -0.023 0.18 -0.125 0.355 -0.223 0.391 c -0.121 0.043 -0.164 -0.043 -0.133 -0.266 m -9.527 -0.926 c 0 -0.133 0.125 -0.215 0.332 -0.215 c 0.211 0 0.336 0.082 0.336 0.215 c 0 0.137 -0.125 0.215 -0.336 0.215 c -0.207 0 -0.332 -0.078 -0.332 -0.215 m 12.941 0.121 c -0.184 -0.195 -0.082 -0.355 0.199 -0.309 c 0.367 0.059 0.492 0.402 0.145 0.402 c -0.141 0 -0.297 -0.043 -0.344 -0.094 m -11.871 -0.695 c 0 -0.133 0.125 -0.215 0.332 -0.215 c 0.211 0 0.336 0.082 0.336 0.215 c 0 0.133 -0.125 0.215 -0.336 0.215 c -0.207 0 -0.332 -0.082 -0.332 -0.215 m 10.777 0.07 c -0.102 -0.176 0.266 -0.348 0.461 -0.219 c 0.078 0.051 0.141 0.156 0.141 0.23 c 0 0.18 -0.496 0.172 -0.602 -0.012 m -5.328 -8.137 c -0.188 -0.203 -0.086 -0.34 0.25 -0.34 c 0.219 0 0.328 0.066 0.293 0.18 c -0.066 0.207 -0.406 0.309 -0.543 0.16" fill="#17120b"/></svg>