<svg xmlns="http://www.w3.org/2000/svg" viewBox="0 0 48 48"><path d="m 42.715 8.973 c 16.395 20.785 -8.398 52.23 -32.629 33.08 c -22.945 -18.14 -3.172 -50.16 23.707 -40.16 c 3.691 1.375 6.527 4.04 8.922 7.078" fill="#f60"/><path d="m 14.484 12.695 h 10.285 l 1.363 1.992 h 9.473 c 1.273 0 2.293 1.023 2.293 2.293 v 10.06 c 0 1.27 -1.02 2.293 -2.293 2.293 h -21.12 c -1.27 0 -2.293 -1.023 -2.293 -2.293 v -12.05 c 0 -1.27 1.023 -2.293 2.293 -2.293" fill="#edb4ab"/><path d="m 14.484 16.17 h 21.12 c 1.266 0 2.293 1.027 2.293 2.293 v 11.301 c 0 1.27 -1.027 2.297 -2.293 2.297 h -21.12 c -1.266 0 -2.293 -1.027 -2.293 -2.297 v -11.301 c 0 -1.266 1.027 -2.293 2.293 -2.293" fill="#fff"/><g fill="#f60" stroke="#f60" transform="matrix(0.1875 0 0 0.1875 0 -149.32)"><path d="m 100.25 945.71 l -8.396 -14.12 l 2.646 -4.521 c 2.563 -4.396 2.604 -4.563 0.979 -5.729 c -1.458 -1.063 -0.521 -1.167 7.375 -0.958 l 9.04 0.25 l 1.583 3.02 c 0.854 1.646 2.417 4.646 3.458 6.667 l 1.875 3.646 h -2.146 c -1.542 0 -2.688 0.875 -4 3.063 c -1 1.688 -1.833 3.25 -1.833 3.458 c 0 0.208 4.146 0.375 9.208 0.375 h 9.208 l -0.25 9.25 l -0.25 9.271 l -10.06 0.229 l -10.06 0.25" stroke-width="1.334"/><path d="m 111.15 914.57 c -4.604 -2.542 -8.375 -4.896 -8.375 -5.229 c 0.021 -0.563 4.646 -8.354 9.125 -15.438 l 1.896 -2.958 l 18.229 0.021 h 18.229 l 2.896 4.542 c 1.583 2.479 3.417 4.521 4.063 4.542 c 1.75 0.021 1.604 0.438 -2.75 7.375 l -3.938 6.333 h -8.521 c -4.708 0 -8.542 -0.208 -8.542 -0.479 c 0 -0.25 0.521 -1.25 1.146 -2.208 c 0.938 -1.417 0.813 -2.354 -0.688 -5.02 c -1.021 -1.792 -2.292 -3.25 -2.833 -3.229 c -0.542 0 -2.792 2.979 -5 6.604 c -6.646 10.875 -5.292 10.417 -14.938 5.125" stroke-width="1.439"/><path d="m 142.38 954.01 c -1.896 -2.875 -3.438 -5.583 -3.438 -5.979 c 0 -0.417 1.833 -3.583 4.063 -7.06 c 4.02 -6.313 4.04 -6.333 5.333 -4.146 c 1.063 1.833 1.938 2.188 5.583 2.188 c 5.563 0 5.542 -0.979 -0.063 -8.646 c -2.396 -3.292 -4.563 -6.479 -4.833 -7.083 c -0.271 -0.646 1.75 -2.229 5.083 -3.938 c 3.063 -1.563 7 -3.646 8.75 -4.604 c 1.75 -0.979 3.292 -1.646 3.458 -1.458 c 0.146 0.167 2.875 4.208 6.06 8.979 l 5.813 8.646 l -18.375 27.792 l -7 0.292 l -7 0.271" stroke-width="1.402"/></g></svg>