<svg xmlns="http://www.w3.org/2000/svg" viewBox="0 0 48 48"><path d="m 11.281 4.945 c 24.551 -17.258 49.43 14.617 29.422 34.949 c -18.848 19.16 -48.13 1.398 -38.973 -22.441 c 1.906 -4.973 5.04 -9.34 9.551 -12.508" fill="#007f7f"/><g fill="#fff" stroke="#fff" stroke-width="1.037" transform="matrix(0.12579 0 0 0.27947 0 -149.32)"><path d="m 131.17 625.63 v 34.27 h -9.316 v -33.937 c 0 -5.367 -1.056 -9.365 -3.105 -12.02 c -2.081 -2.684 -5.217 -4.03 -9.44 -4.03 c -4.969 0 -8.912 1.607 -11.8 4.808 c -2.919 3.215 -4.348 7.576 -4.348 13.08 v 32.09 h -9.316 v -78.83 h 9.316 v 30.918 c 2.236 -3.424 4.844 -5.982 7.826 -7.66 c 2.981 -1.677 6.459 -2.516 10.434 -2.516 c 6.459 0 11.335 2.01 14.657 6.04 c 3.385 4.03 5.093 9.952 5.093 17.779 m 28.725 -38.577 v 16.1 h 19.13 v 7.268 h -19.13 v 30.806 c 0 4.627 0.621 7.59 1.863 8.89 c 1.304 1.314 3.913 1.957 7.826 1.957 h 9.44 v 7.827 h -9.44 c -7.204 0 -12.173 -1.342 -14.906 -4.04 c -2.733 -2.684 -4.099 -7.562 -4.099 -14.648 v -30.806 h -6.832 v -7.268 h 6.832 v -16.09 m 85.43 26.99 c 2.298 -4.207 5.093 -7.296 8.322 -9.281 c 3.23 -1.971 7.02 -2.963 11.428 -2.963 c 5.869 0 10.372 2.069 13.539 6.206 c 3.23 4.137 4.844 10.01 4.844 17.611 v 34.27 h -9.316 v -33.937 c 0 -5.437 -0.994 -9.463 -2.981 -12.08 c -1.925 -2.642 -4.813 -3.97 -8.695 -3.97 c -4.813 0 -8.633 1.607 -11.428 4.808 c -2.826 3.215 -4.223 7.576 -4.223 13.08 v 32.08 h -9.316 v -33.923 c 0 -5.479 -0.963 -9.519 -2.857 -12.132 c -1.925 -2.6 -4.906 -3.914 -8.943 -3.914 c -4.72 0 -8.509 1.621 -11.304 4.864 c -2.733 3.215 -4.099 7.548 -4.099 13.03 v 32.09 h -9.316 v -56.748 h 9.316 v 8.834 c 2.05 -3.494 4.596 -6.066 7.577 -7.715 c 2.981 -1.635 6.49 -2.46 10.558 -2.46 c 4.13 0 7.608 1.048 10.434 3.131 c 2.888 2.097 5.03 5.13 6.459 9.113 m 58.26 -32.987 h 9.316 v 78.83 h -9.316"/><path d="m 126.33 625.63 v 34.27 h -9.316 v -33.937 c 0 -5.367 -1.056 -9.365 -3.105 -12.02 c -2.081 -2.684 -5.217 -4.03 -9.44 -4.03 c -4.969 0 -8.912 1.607 -11.8 4.808 c -2.919 3.215 -4.348 7.576 -4.348 13.08 v 32.09 h -9.316 v -78.83 h 9.316 v 30.918 c 2.236 -3.424 4.844 -5.982 7.826 -7.66 c 2.981 -1.677 6.459 -2.516 10.434 -2.516 c 6.459 0 11.335 2.01 14.657 6.04 c 3.385 4.03 5.093 9.952 5.093 17.779 m 28.725 -38.577 v 16.1 h 19.13 v 7.268 h -19.13 v 30.806 c 0 4.627 0.621 7.59 1.863 8.89 c 1.304 1.314 3.913 1.957 7.826 1.957 h 9.44 v 7.827 h -9.44 c -7.204 0 -12.173 -1.342 -14.906 -4.04 c -2.733 -2.684 -4.099 -7.562 -4.099 -14.648 v -30.806 h -6.832 v -7.268 h 6.832 v -16.09 m 85.43 26.99 c 2.298 -4.207 5.093 -7.296 8.322 -9.281 c 3.23 -1.971 7.02 -2.963 11.428 -2.963 c 5.869 0 10.372 2.069 13.539 6.206 c 3.23 4.137 4.844 10.01 4.844 17.611 v 34.27 h -9.316 v -33.937 c 0 -5.437 -0.994 -9.463 -2.981 -12.08 c -1.925 -2.642 -4.813 -3.97 -8.695 -3.97 c -4.813 0 -8.633 1.607 -11.428 4.808 c -2.826 3.215 -4.223 7.576 -4.223 13.08 v 32.08 h -9.316 v -33.923 c 0 -5.479 -0.963 -9.519 -2.857 -12.132 c -1.925 -2.6 -4.906 -3.914 -8.943 -3.914 c -4.72 0 -8.509 1.621 -11.304 4.864 c -2.733 3.215 -4.099 7.548 -4.099 13.03 v 32.09 h -9.316 v -56.748 h 9.316 v 8.834 c 2.05 -3.494 4.596 -6.066 7.577 -7.715 c 2.981 -1.635 6.49 -2.46 10.558 -2.46 c 4.13 0 7.608 1.048 10.434 3.131 c 2.888 2.097 5.03 5.13 6.459 9.113 m 58.26 -32.987 h 9.316 v 78.83 h -9.316"/></g></svg>