<svg xmlns="http://www.w3.org/2000/svg" viewBox="0 0 16 16"><path d="m 1.848 13.223 c -3.891 -5.984 -0.75 -11.438 3.656 -12.73 c 5.926 -1.738 13.973 2.832 8.672 12.258 c -2.109 3.746 -9.555 4.734 -12.324 0.473" fill="#bcb76a"/><path d="m 8.555 12.215 v -0.18 l -1.512 -0.02 c -1.496 -0.02 -1.512 -0.02 -1.531 -0.176 c -0.016 -0.102 -0.078 -0.168 -0.172 -0.184 c -0.09 -0.012 -0.156 -0.082 -0.168 -0.18 c -0.016 -0.113 -0.078 -0.168 -0.203 -0.184 c -0.145 -0.016 -0.188 -0.066 -0.207 -0.215 c -0.012 -0.137 -0.063 -0.203 -0.168 -0.219 c -0.117 -0.02 -0.152 -0.078 -0.172 -0.297 c -0.012 -0.148 -0.047 -0.27 -0.078 -0.27 c -0.031 0 -0.109 -0.051 -0.168 -0.113 c -0.137 -0.148 -0.156 -1.652 -0.02 -1.77 c 0.047 -0.039 0.246 -0.219 0.445 -0.402 c 0.199 -0.184 0.426 -0.328 0.516 -0.328 c 0.246 0 0.379 -0.219 0.379 -0.625 c 0 -0.199 0.039 -0.402 0.082 -0.449 c 0.047 -0.047 0.234 -0.086 0.418 -0.086 c 0.273 0 0.375 -0.039 0.566 -0.219 c 0.191 -0.18 0.289 -0.219 0.57 -0.219 c 0.316 0 0.336 -0.012 0.336 -0.188 c 0 -0.117 0.074 -0.258 0.203 -0.379 c 0.113 -0.105 0.203 -0.262 0.203 -0.344 c 0 -0.086 0.078 -0.277 0.172 -0.426 c 0.117 -0.184 0.168 -0.363 0.168 -0.586 c 0 -0.301 0.125 -0.543 0.277 -0.543 c 0.035 0 0.063 -0.051 0.063 -0.109 c 0 -0.063 0.031 -0.109 0.07 -0.109 c 0.078 0 0.086 0.082 0.027 0.246 c -0.023 0.066 -0.102 0.117 -0.172 0.117 c -0.109 0 -0.129 0.055 -0.129 0.418 c 0 0.348 -0.027 0.445 -0.172 0.586 c -0.113 0.117 -0.168 0.25 -0.168 0.418 c 0 0.195 -0.039 0.266 -0.203 0.355 c -0.164 0.09 -0.203 0.16 -0.203 0.355 c 0 0.285 -0.078 0.332 -0.539 0.332 c -0.25 0 -0.355 0.039 -0.473 0.176 c -0.113 0.125 -0.258 0.184 -0.555 0.219 l -0.406 0.051 v 0.359 c 0 0.484 -0.203 0.793 -0.516 0.793 c -0.172 0 -0.27 0.063 -0.453 0.289 c -0.129 0.16 -0.277 0.293 -0.336 0.293 c -0.125 0 -0.203 0.711 -0.145 1.324 c 0.031 0.313 0.07 0.414 0.168 0.441 c 0.094 0.023 0.129 0.102 0.129 0.297 c 0 0.211 0.031 0.273 0.164 0.328 c 0.094 0.039 0.172 0.137 0.188 0.234 c 0.012 0.109 0.074 0.176 0.176 0.191 c 0.094 0.012 0.184 0.098 0.219 0.199 c 0.035 0.098 0.113 0.176 0.168 0.176 c 0.059 0 0.137 0.082 0.172 0.18 l 0.063 0.18 l 2.953 0.039 l 0.047 0.199 c 0.031 0.113 0.023 0.199 -0.012 0.199 c -0.031 0 -0.063 -0.078 -0.063 -0.18 m 1.371 0.016 c -0.008 -0.141 -0.059 -0.219 -0.18 -0.27 c -0.094 -0.039 -0.172 -0.121 -0.172 -0.18 c 0 -0.063 0.078 -0.145 0.172 -0.184 c 0.094 -0.039 0.168 -0.121 0.168 -0.18 c 0 -0.063 0.074 -0.145 0.168 -0.18 c 0.094 -0.039 0.172 -0.137 0.184 -0.234 c 0.016 -0.098 0.078 -0.176 0.16 -0.191 c 0.074 -0.016 0.281 -0.176 0.457 -0.359 c 0.324 -0.336 0.324 -0.34 0.324 -0.82 c 0 -0.328 -0.031 -0.512 -0.094 -0.57 c -0.055 -0.043 -0.113 -0.16 -0.137 -0.25 c -0.063 -0.273 -0.551 -0.801 -0.691 -0.742 c -0.215 0.086 -0.371 -0.152 -0.371 -0.574 c 0 -0.207 -0.016 -0.48 -0.039 -0.605 c -0.043 -0.215 -0.059 -0.227 -0.367 -0.227 c -0.223 0 -0.375 -0.047 -0.5 -0.152 c -0.219 -0.184 -0.223 -0.297 -0.027 -0.582 c 0.098 -0.141 0.164 -0.363 0.188 -0.629 c 0.031 -0.363 0.055 -0.414 0.203 -0.449 c 0.148 -0.039 0.176 -0.09 0.191 -0.371 c 0.027 -0.418 -0.078 -0.719 -0.25 -0.719 c -0.117 0 -0.211 -0.129 -0.211 -0.297 c 0 -0.125 0.121 -0.066 0.156 0.078 c 0.02 0.086 0.09 0.145 0.168 0.145 c 0.176 0 0.219 0.133 0.219 0.645 c 0 0.434 -0.078 0.59 -0.285 0.59 c -0.102 0 -0.121 0.063 -0.121 0.367 c 0 0.363 -0.148 0.793 -0.277 0.793 c -0.109 0 -0.074 0.188 0.059 0.316 c 0.078 0.074 0.242 0.121 0.438 0.121 c 0.449 0 0.527 0.113 0.527 0.766 c 0 0.438 0.02 0.547 0.117 0.602 c 0.066 0.035 0.164 0.047 0.215 0.027 c 0.133 -0.051 0.754 0.68 0.754 0.887 c 0 0.094 0.047 0.188 0.102 0.211 c 0.078 0.031 0.102 0.172 0.102 0.594 v 0.551 l -0.32 0.359 c -0.195 0.211 -0.383 0.355 -0.473 0.355 c -0.109 0 -0.152 0.051 -0.168 0.199 c -0.016 0.145 -0.066 0.207 -0.172 0.223 c -0.094 0.016 -0.156 0.082 -0.168 0.184 c -0.016 0.098 -0.078 0.168 -0.176 0.18 c -0.191 0.031 -0.203 0.23 -0.016 0.23 c 0.16 0 0.227 0.137 0.184 0.379 c -0.027 0.148 -0.031 0.145 -0.039 -0.035 m -1.359 -7.758 c -0.105 -0.301 0.07 -0.613 0.289 -0.523 c 0.141 0.059 0.141 0.273 0 0.504 c -0.137 0.223 -0.219 0.227 -0.289 0.02" fill="#afab97"/><path d="m 8.648 12.285 c -0.023 -0.063 -0.027 -0.129 -0.008 -0.148 c 0.02 -0.02 0.051 0.031 0.07 0.113 c 0.043 0.172 -0.004 0.199 -0.063 0.035 m 1.207 -0.047 c -0.004 -0.105 -0.047 -0.211 -0.094 -0.23 c -0.066 -0.027 -0.066 -0.035 0.004 -0.043 c 0.105 -0.004 0.172 0.16 0.129 0.336 c -0.02 0.09 -0.035 0.07 -0.039 -0.063 m -1.723 -0.328 c 0.086 -0.02 0.207 -0.016 0.273 0 c 0.063 0.02 -0.008 0.035 -0.156 0.031 c -0.148 0 -0.203 -0.016 -0.117 -0.031 m -2.875 -0.391 c -0.07 -0.121 -0.008 -0.137 0.09 -0.023 c 0.051 0.055 0.059 0.102 0.023 0.102 c -0.039 0 -0.09 -0.035 -0.113 -0.078 m -0.406 -0.363 c -0.027 -0.039 -0.027 -0.094 -0.004 -0.121 c 0.02 -0.023 0.039 -0.008 0.039 0.039 c 0 0.043 0.055 0.094 0.117 0.109 c 0.109 0.031 0.109 0.035 0.008 0.043 c -0.066 0.004 -0.137 -0.027 -0.16 -0.07 m 0.789 -0.895 c -0.371 -0.293 -0.813 -0.895 -1.172 -1.598 c -0.117 -0.227 -0.145 -0.207 -0.215 0.141 c -0.016 0.078 -0.035 0.023 -0.039 -0.129 c -0.004 -0.207 0.02 -0.27 0.105 -0.27 c 0.063 0 0.215 -0.133 0.344 -0.289 c 0.184 -0.23 0.281 -0.293 0.457 -0.293 c 0.168 0 0.254 -0.047 0.34 -0.188 c 0.063 -0.102 0.133 -0.168 0.152 -0.148 c 0.02 0.023 -0.012 0.094 -0.074 0.156 c -0.059 0.066 -0.105 0.156 -0.105 0.203 c 0.012 0.16 0.246 0.52 0.387 0.598 c 0.18 0.094 0.699 0.66 0.699 0.758 c 0 0.039 0.113 0.133 0.254 0.211 c 0.141 0.074 0.328 0.223 0.418 0.328 c 0.09 0.102 0.199 0.188 0.242 0.188 c 0.043 0 0.148 0.078 0.23 0.172 c 0.133 0.148 0.137 0.18 0.047 0.262 c -0.082 0.07 -0.172 0.074 -0.414 0.008 c -0.211 -0.055 -0.348 -0.059 -0.438 -0.008 c -0.07 0.039 -0.324 0.074 -0.563 0.074 c -0.352 0 -0.473 -0.031 -0.656 -0.176 m -0.465 -2.09 c 0.16 -0.195 0.148 -0.273 -0.039 -0.273 c -0.16 0 -0.547 0.383 -0.473 0.461 c 0.07 0.078 0.391 -0.039 0.512 -0.188 m 5.879 2.047 c 0.125 -0.148 0.113 -1.047 -0.016 -1.16 c -0.059 -0.051 -0.102 -0.145 -0.098 -0.207 c 0 -0.086 0.02 -0.074 0.063 0.035 c 0.031 0.086 0.09 0.18 0.129 0.207 c 0.043 0.023 0.074 0.27 0.074 0.539 c 0 0.387 -0.027 0.52 -0.117 0.594 c -0.102 0.082 -0.109 0.078 -0.035 -0.008 m -6.73 -0.051 c -0.078 -0.02 -0.113 -0.098 -0.109 -0.227 c 0.008 -0.148 0.016 -0.16 0.043 -0.051 c 0.02 0.078 0.082 0.184 0.145 0.234 c 0.117 0.094 0.113 0.098 -0.078 0.043 m -0.168 -0.855 c 0 -0.16 0.016 -0.215 0.031 -0.125 c 0.016 0.09 0.016 0.219 0 0.289 c -0.02 0.07 -0.031 -0.004 -0.031 -0.164 m 5.789 0.086 c -0.059 -0.16 0.016 -0.566 0.133 -0.742 c 0.082 -0.117 0.121 -0.125 0.273 -0.051 c 0.234 0.117 0.219 0.211 -0.094 0.594 c -0.223 0.27 -0.273 0.305 -0.313 0.199 m 0.688 -0.945 c -0.152 -0.152 -0.297 -0.234 -0.371 -0.215 c -0.078 0.02 -0.164 -0.039 -0.242 -0.172 c -0.125 -0.203 -0.125 -0.203 0.012 -0.074 c 0.082 0.074 0.184 0.109 0.254 0.078 c 0.086 -0.035 0.195 0.039 0.387 0.262 c 0.328 0.383 0.305 0.453 -0.039 0.121 m -0.762 -1.063 c 0 -0.262 0.012 -0.367 0.027 -0.238 c 0.012 0.133 0.012 0.344 0 0.473 c -0.016 0.129 -0.027 0.023 -0.027 -0.234 m -2.375 0.246 c 0.023 -0.063 0.039 -0.129 0.039 -0.145 c 0 -0.016 0.078 -0.031 0.172 -0.031 c 0.191 0 0.234 0.176 0.063 0.246 c -0.199 0.082 -0.316 0.051 -0.273 -0.07 m 0.156 -0.801 c -0.027 -0.027 -0.047 -0.16 -0.047 -0.293 c 0 -0.18 -0.031 -0.242 -0.121 -0.242 c -0.113 -0.004 -0.113 -0.008 0 -0.102 c 0.07 -0.055 0.121 -0.191 0.121 -0.32 c 0 -0.18 0.043 -0.25 0.203 -0.34 c 0.164 -0.09 0.203 -0.156 0.203 -0.355 c 0 -0.168 0.055 -0.301 0.168 -0.418 c 0.145 -0.141 0.172 -0.238 0.172 -0.586 c 0 -0.34 0.023 -0.418 0.113 -0.418 c 0.063 0 0.152 -0.059 0.199 -0.125 c 0.086 -0.121 0.094 -0.121 0.094 0 c 0.004 0.148 0.34 0.184 0.344 0.035 c 0 -0.066 0.016 -0.066 0.051 -0.008 c 0.027 0.043 0.109 0.094 0.18 0.109 c 0.074 0.012 0.145 0.074 0.16 0.133 c 0.023 0.09 0.016 0.094 -0.039 0.008 c -0.082 -0.125 -0.273 -0.055 -0.328 0.117 c -0.02 0.07 -0.191 0.473 -0.379 0.891 c -0.305 0.684 -0.531 1.207 -0.762 1.742 c -0.078 0.184 -0.242 0.266 -0.332 0.172 m 0.223 -1.02 c 0 -0.055 -0.043 -0.094 -0.102 -0.094 c -0.07 0 -0.102 0.07 -0.098 0.234 c 0 0.223 0.008 0.227 0.102 0.094 c 0.055 -0.078 0.098 -0.184 0.098 -0.234 m 0.98 -1.363 c 0.141 -0.23 0.141 -0.445 0 -0.504 c -0.219 -0.09 -0.395 0.227 -0.289 0.523 c 0.07 0.207 0.152 0.203 0.289 -0.02 m 0.855 2.285 c -0.086 -0.063 -0.082 -0.07 0.02 -0.074 c 0.063 0 0.117 0.031 0.117 0.074 c 0 0.086 -0.008 0.086 -0.137 0 m -3.652 -0.125 c 0.066 -0.016 0.172 -0.016 0.238 0 c 0.066 0.02 0.012 0.035 -0.117 0.035 c -0.133 0 -0.188 -0.016 -0.121 -0.035 m 2.844 -0.125 c -0.086 -0.098 -0.141 -0.219 -0.121 -0.273 c 0.023 -0.066 0.039 -0.055 0.043 0.027 c 0 0.066 0.086 0.188 0.184 0.273 c 0.098 0.082 0.148 0.148 0.113 0.148 c -0.035 0 -0.137 -0.078 -0.219 -0.176 m -2.289 -0.098 c 0.098 -0.125 0.195 -0.16 0.406 -0.148 c 0.266 0.008 0.27 0.012 0.047 0.039 c -0.125 0.016 -0.309 0.086 -0.406 0.148 l -0.176 0.121 m 2.344 -0.496 c 0 -0.012 0.055 -0.07 0.121 -0.125 c 0.105 -0.09 0.109 -0.09 0.023 0.027 c -0.09 0.121 -0.145 0.16 -0.145 0.098 m 0.281 -0.551 c 0 -0.102 0.016 -0.141 0.035 -0.09 c 0.02 0.047 0.02 0.129 0 0.18 c -0.02 0.051 -0.035 0.008 -0.035 -0.09 m 0.277 -0.699 c 0.063 -0.02 0.129 -0.09 0.148 -0.16 c 0.023 -0.086 0.027 -0.082 0.02 0.023 c -0.008 0.086 -0.07 0.148 -0.148 0.16 c -0.098 0.008 -0.105 0.004 -0.02 -0.023" fill="#928f62"/><path d="m 6.262 11.906 c 0.328 -0.012 0.863 -0.012 1.191 0 c 0.324 0.016 0.059 0.023 -0.598 0.023 c -0.652 0 -0.922 -0.008 -0.594 -0.023 m 3.93 -0.93 c 0.004 -0.086 0.02 -0.102 0.043 -0.047 c 0.02 0.055 0.016 0.117 -0.008 0.141 c -0.02 0.023 -0.035 -0.02 -0.035 -0.094 m -5.703 -0.465 c 0 -0.102 0.016 -0.141 0.035 -0.094 c 0.02 0.051 0.02 0.133 0 0.184 c -0.02 0.051 -0.035 0.008 -0.035 -0.09 m 0.813 -0.477 c -0.227 -0.262 -0.465 -0.563 -0.527 -0.672 c -0.063 -0.109 -0.207 -0.301 -0.316 -0.426 c -0.141 -0.164 -0.188 -0.27 -0.152 -0.363 c 0.043 -0.117 0.063 -0.105 0.164 0.09 c 0.359 0.703 0.797 1.305 1.172 1.598 c 0.184 0.141 0.305 0.176 0.656 0.176 c 0.238 0 0.492 -0.035 0.563 -0.074 c 0.09 -0.051 0.227 -0.051 0.438 0.008 c 0.242 0.066 0.332 0.063 0.414 -0.008 c 0.09 -0.082 0.086 -0.113 -0.047 -0.266 c -0.082 -0.094 -0.188 -0.168 -0.23 -0.168 c -0.043 0 -0.152 -0.086 -0.242 -0.188 c -0.09 -0.105 -0.277 -0.254 -0.418 -0.328 c -0.141 -0.078 -0.258 -0.172 -0.258 -0.211 c 0 -0.098 -0.52 -0.664 -0.695 -0.758 c -0.285 -0.152 -0.492 -0.84 -0.25 -0.84 c 0.031 0 0.043 0.047 0.023 0.105 c -0.059 0.16 0.145 0.504 0.426 0.734 c 0.145 0.117 0.387 0.344 0.539 0.504 c 0.668 0.707 0.84 0.852 0.949 0.805 c 0.086 -0.035 0.102 -0.102 0.07 -0.277 c -0.051 -0.273 -0.051 -0.777 0 -0.867 c 0.02 -0.031 0.109 -0.059 0.199 -0.059 c 0.121 0 0.176 0.051 0.207 0.184 c 0.059 0.238 -0.016 0.715 -0.148 0.992 c -0.078 0.156 -0.086 0.242 -0.035 0.297 c 0.117 0.125 0.09 0.398 -0.043 0.438 c -0.066 0.02 -0.551 0.039 -1.078 0.043 l -0.961 0.008 m -1.352 -0.422 c -0.043 -0.027 -0.094 -0.164 -0.117 -0.305 c -0.023 -0.141 -0.023 -0.207 0.004 -0.145 c 0.023 0.059 0.086 0.141 0.141 0.184 c 0.113 0.09 0.09 0.348 -0.027 0.266 m 5.512 -1.047 c 0.023 -0.246 0.082 -0.516 0.125 -0.598 c 0.043 -0.082 0.07 -0.168 0.066 -0.188 c -0.004 -0.023 0.074 -0.035 0.172 -0.027 c 0.18 0.012 0.695 0.445 0.691 0.578 c 0 0.039 -0.031 0.02 -0.07 -0.039 c -0.059 -0.094 -0.082 -0.09 -0.188 0.035 c -0.066 0.078 -0.211 0.227 -0.32 0.324 l -0.203 0.184 l 0.188 -0.223 c 0.102 -0.121 0.188 -0.258 0.188 -0.305 c 0 -0.09 -0.211 -0.234 -0.34 -0.234 c -0.113 0 -0.289 0.504 -0.254 0.738 c 0.016 0.113 -0.004 0.203 -0.039 0.203 c -0.039 0 -0.047 -0.176 -0.016 -0.449 m -5.215 -0.684 c -0.074 -0.078 0.313 -0.461 0.473 -0.461 c 0.188 0 0.199 0.078 0.039 0.273 c -0.121 0.148 -0.441 0.266 -0.512 0.188 m 2.93 -0.184 c -0.059 -0.094 -0.176 -0.16 -0.297 -0.164 c -0.273 -0.016 -0.297 -0.219 -0.059 -0.484 c 0.203 -0.227 0.465 -0.273 0.668 -0.117 c 0.102 0.082 0.113 0.16 0.07 0.508 c -0.039 0.328 -0.074 0.414 -0.168 0.414 c -0.066 0 -0.164 -0.07 -0.215 -0.156 m 0.176 -0.469 c 0.172 -0.07 0.129 -0.246 -0.063 -0.246 c -0.094 0 -0.168 0.016 -0.168 0.031 c 0 0.016 -0.02 0.082 -0.043 0.145 c -0.043 0.121 0.074 0.152 0.273 0.07 m -2.117 -0.77 c 0.012 -0.164 0.051 -0.238 0.137 -0.246 c 0.074 -0.008 0.082 0 0.02 0.02 c -0.055 0.02 -0.117 0.129 -0.137 0.246 c -0.035 0.207 -0.035 0.203 -0.02 -0.02 m 1.93 -0.031 c -0.023 -0.027 -0.043 -0.109 -0.043 -0.184 c 0 -0.188 -0.301 -0.289 -0.676 -0.234 c -0.289 0.043 -0.301 0.035 -0.176 -0.063 c 0.078 -0.059 0.258 -0.117 0.41 -0.125 c 0.484 -0.035 0.508 -0.023 0.508 0.25 c 0 0.164 0.043 0.277 0.117 0.324 c 0.102 0.063 0.105 0.074 0.012 0.078 c -0.059 0 -0.125 -0.02 -0.152 -0.047 m 2.199 -0.012 c 0 -0.043 -0.102 -0.113 -0.223 -0.148 c -0.148 -0.047 -0.176 -0.07 -0.082 -0.074 c 0.168 -0.008 0.426 0.176 0.355 0.254 c -0.031 0.027 -0.051 0.016 -0.051 -0.031 m -1.813 -0.199 c 0.434 -0.945 0.527 -1.129 0.488 -0.938 c -0.027 0.117 -0.086 0.266 -0.137 0.324 c -0.047 0.063 -0.121 0.23 -0.168 0.375 c -0.043 0.148 -0.125 0.309 -0.18 0.359 c -0.09 0.078 -0.09 0.063 -0.004 -0.121 m -0.293 -0.738 c -0.004 -0.164 0.027 -0.238 0.098 -0.238 c 0.133 0 0.133 0.152 0.004 0.332 c -0.094 0.133 -0.102 0.129 -0.102 -0.094 m 0.887 -0.637 c 0 -0.039 0.043 -0.152 0.098 -0.254 c 0.051 -0.098 0.094 -0.148 0.094 -0.109 c 0 0.043 -0.043 0.156 -0.094 0.254 c -0.055 0.102 -0.098 0.152 -0.098 0.109 m 0.539 -1.234 c 0 -0.113 0.148 -0.254 0.266 -0.25 c 0.078 0 0.07 0.023 -0.027 0.086 c -0.078 0.043 -0.16 0.117 -0.188 0.16 c -0.035 0.051 -0.051 0.055 -0.051 0.004 m -0.359 -0.453 c -0.02 -0.066 -0.055 -0.184 -0.082 -0.254 c -0.035 -0.086 -0.02 -0.125 0.055 -0.125 c 0.063 0 0.113 0.078 0.125 0.195 c 0.027 0.246 0.172 0.301 0.211 0.082 c 0.027 -0.148 0.031 -0.148 0.039 0.031 c 0.008 0.164 -0.02 0.199 -0.152 0.199 c -0.094 0 -0.176 -0.051 -0.195 -0.129" fill="#86784f"/><path d="m 5.629 10.781 c -0.094 -0.09 -0.227 -0.258 -0.297 -0.375 c -0.207 -0.355 -0.926 -1.273 -0.992 -1.273 c -0.125 0 -0.066 0.355 0.07 0.434 c 0.168 0.098 0.227 0.336 0.145 0.617 l -0.063 0.219 l -0.008 -0.277 c -0.004 -0.168 -0.043 -0.289 -0.105 -0.313 c -0.129 -0.055 -0.199 -0.461 -0.141 -0.797 c 0.043 -0.258 0.047 -0.262 0.188 -0.129 c 0.074 0.074 0.211 0.254 0.297 0.402 c 0.09 0.148 0.348 0.48 0.578 0.746 l 0.418 0.477 l 0.961 -0.008 c 0.527 -0.004 1.012 -0.023 1.078 -0.043 c 0.133 -0.039 0.16 -0.313 0.047 -0.438 c -0.055 -0.055 -0.047 -0.141 0.031 -0.297 c 0.133 -0.277 0.207 -0.754 0.148 -0.992 c -0.031 -0.133 -0.086 -0.184 -0.207 -0.184 c -0.09 0 -0.18 0.027 -0.199 0.059 c -0.051 0.09 -0.051 0.594 0 0.867 c 0.031 0.176 0.016 0.246 -0.07 0.277 c -0.109 0.047 -0.277 -0.098 -0.949 -0.805 c -0.152 -0.16 -0.395 -0.387 -0.539 -0.504 c -0.297 -0.238 -0.484 -0.578 -0.418 -0.754 c 0.023 -0.066 0.059 -0.301 0.078 -0.52 c 0.016 -0.219 0.043 -0.406 0.055 -0.418 c 0.008 -0.012 0.137 -0.039 0.281 -0.055 c 0.145 -0.016 0.211 -0.012 0.145 0.008 c -0.18 0.059 -0.141 0.242 0.07 0.328 c 0.207 0.082 0.918 0.137 1.113 0.082 c 0.137 -0.039 0.164 -0.273 0.059 -0.453 c -0.066 -0.109 -0.582 -0.129 -0.91 -0.035 c -0.105 0.031 -0.117 0.023 -0.043 -0.023 c 0.172 -0.113 0.715 -0.168 0.906 -0.09 c 0.117 0.047 0.184 0.125 0.184 0.223 c 0 0.387 0.477 0.176 0.613 -0.27 c 0.043 -0.152 0.121 -0.324 0.172 -0.387 c 0.047 -0.059 0.109 -0.207 0.137 -0.324 c 0.063 -0.281 0.711 -1.727 0.805 -1.797 c 0.09 -0.066 0.191 -0.035 0.227 0.07 c 0.016 0.051 -0.031 0.066 -0.113 0.043 c -0.102 -0.027 -0.156 0.008 -0.203 0.133 c -0.031 0.094 -0.184 0.449 -0.332 0.789 c -0.152 0.34 -0.297 0.715 -0.324 0.832 c -0.027 0.121 -0.086 0.27 -0.133 0.328 c -0.047 0.059 -0.109 0.191 -0.133 0.289 c -0.082 0.297 -0.234 0.512 -0.422 0.586 l -0.176 0.07 l 0.23 0.164 l 0.227 0.168 l -0.004 0.977 c -0.004 0.535 -0.035 1.254 -0.07 1.59 l -0.059 0.617 l -0.883 0.059 c -0.578 0.039 -0.938 0.094 -1.035 0.164 c -0.195 0.137 -0.223 0.133 -0.434 -0.063 m 2.348 -2.859 c 0.043 -0.348 0.031 -0.426 -0.07 -0.508 c -0.203 -0.156 -0.465 -0.109 -0.668 0.117 c -0.238 0.266 -0.215 0.469 0.059 0.484 c 0.121 0.004 0.238 0.07 0.297 0.164 c 0.051 0.086 0.148 0.156 0.215 0.156 c 0.094 0 0.129 -0.086 0.168 -0.414 m -1.801 0.18 c 0 -0.215 -0.102 -0.375 -0.195 -0.313 c -0.039 0.027 -0.074 0.145 -0.074 0.262 c 0 0.164 0.031 0.215 0.137 0.215 c 0.094 0 0.133 -0.051 0.133 -0.164 m -1.426 2.703 c -0.063 -0.043 -0.07 -0.07 -0.02 -0.07 c 0.043 -0.004 0.098 0.031 0.121 0.07 c 0.055 0.09 0.031 0.09 -0.102 0 m 5.488 -0.012 c 0.047 -0.047 0.102 -0.07 0.121 -0.047 c 0.02 0.023 -0.016 0.063 -0.086 0.09 c -0.094 0.039 -0.102 0.031 -0.035 -0.043 m 0.695 -0.523 c 0 -0.016 0.055 -0.074 0.121 -0.129 c 0.105 -0.09 0.109 -0.086 0.023 0.027 c -0.086 0.121 -0.145 0.16 -0.145 0.102 m -1.195 -0.727 c -0.02 -0.055 0.004 -0.375 0.047 -0.707 c 0.047 -0.336 0.082 -0.703 0.074 -0.82 c -0.008 -0.203 -0.004 -0.207 0.086 -0.07 c 0.133 0.199 0.148 0.332 0.059 0.504 c -0.043 0.082 -0.102 0.352 -0.125 0.598 c -0.043 0.395 -0.035 0.449 0.066 0.449 c 0.063 0 0.273 -0.18 0.465 -0.398 c 0.371 -0.426 0.422 -0.457 0.48 -0.293 c 0.023 0.066 0.004 0.09 -0.051 0.07 c -0.047 -0.02 -0.258 0.145 -0.465 0.363 c -0.375 0.402 -0.566 0.496 -0.637 0.305 m 1.258 -0.461 c -0.086 -0.117 -0.082 -0.121 0.023 -0.027 c 0.066 0.055 0.121 0.109 0.121 0.125 c 0 0.059 -0.059 0.023 -0.145 -0.098 m -1.215 -2.039 c 0 -0.098 -0.434 -0.301 -0.645 -0.301 c -0.16 0 -0.445 -0.277 -0.445 -0.43 c 0 -0.051 0.082 0.008 0.176 0.133 c 0.098 0.121 0.227 0.223 0.289 0.223 c 0.371 0 0.797 0.273 0.66 0.422 c -0.02 0.02 -0.035 0 -0.035 -0.047 m -0.68 -1.969 c 0 -0.117 0.023 -0.227 0.051 -0.246 c 0.031 -0.02 0.043 0.074 0.027 0.211 c -0.031 0.305 -0.078 0.328 -0.078 0.035 m 0.418 -0.73 c 0 -0.098 0.016 -0.141 0.035 -0.09 c 0.016 0.051 0.016 0.133 0 0.184 c -0.02 0.047 -0.035 0.008 -0.035 -0.094 m -0.645 -0.699 c -0.027 -0.027 -0.047 -0.125 -0.047 -0.219 c 0 -0.133 0.039 -0.168 0.172 -0.168 c 0.09 0 0.168 0.031 0.168 0.07 c 0 0.043 -0.031 0.074 -0.066 0.074 c -0.039 0 -0.07 0.066 -0.07 0.145 c 0 0.145 -0.07 0.188 -0.156 0.098" fill="#72704a"/><path d="m 8.777 12.305 c -0.039 -0.051 -0.082 -0.156 -0.094 -0.234 c -0.023 -0.121 -0.098 -0.152 -0.469 -0.191 l -0.441 -0.043 l 0.438 0.008 c 0.313 0.008 0.445 0.039 0.48 0.117 c 0.027 0.059 0.082 0.184 0.125 0.273 c 0.09 0.176 0.066 0.215 -0.039 0.07 m 1 -0.035 c 0 -0.07 -0.07 -0.16 -0.156 -0.199 c -0.211 -0.102 -0.211 -0.48 -0.004 -0.578 c 0.082 -0.039 0.164 -0.129 0.184 -0.207 c 0.02 -0.074 0.094 -0.152 0.172 -0.172 c 0.074 -0.02 0.148 -0.094 0.164 -0.156 c 0.027 -0.105 0.031 -0.102 0.039 0.008 c 0.004 0.074 -0.063 0.156 -0.164 0.199 c -0.098 0.039 -0.168 0.125 -0.168 0.211 c 0 0.09 -0.055 0.148 -0.152 0.164 c -0.238 0.035 -0.254 0.398 -0.023 0.492 c 0.109 0.043 0.176 0.129 0.176 0.219 c 0 0.078 -0.016 0.145 -0.035 0.145 c -0.016 0 -0.031 -0.055 -0.031 -0.125 m -4.145 -0.508 c 0 -0.082 0.016 -0.098 0.051 -0.043 c 0.027 0.047 0.156 0.098 0.285 0.117 c 0.227 0.027 0.227 0.031 -0.051 0.039 c -0.234 0.012 -0.289 -0.012 -0.285 -0.113 m 0.965 0.074 c 0.105 -0.016 0.258 -0.016 0.34 0 c 0.086 0.02 0 0.031 -0.188 0.031 c -0.188 0 -0.254 -0.016 -0.152 -0.031 m -1.125 -0.289 c -0.066 -0.02 -0.148 -0.109 -0.184 -0.203 c -0.035 -0.098 -0.129 -0.18 -0.215 -0.195 c -0.09 -0.012 -0.16 -0.078 -0.168 -0.152 c -0.008 -0.078 0 -0.086 0.02 -0.02 c 0.02 0.059 0.102 0.113 0.18 0.129 c 0.082 0.012 0.18 0.094 0.219 0.184 c 0.035 0.09 0.102 0.164 0.148 0.164 c 0.043 0 0.102 0.031 0.125 0.074 c 0.02 0.039 0.031 0.066 0.02 0.063 c -0.012 -0.004 -0.078 -0.023 -0.145 -0.043 m 0.121 -0.289 c -0.039 -0.031 -0.145 -0.172 -0.234 -0.313 c -0.453 -0.703 -0.688 -0.918 -0.773 -0.707 c -0.023 0.051 -0.023 -0.031 0 -0.18 c 0.031 -0.227 0.012 -0.297 -0.137 -0.441 c -0.172 -0.168 -0.246 -0.488 -0.117 -0.488 c 0.07 0 0.824 0.973 1.016 1.309 c 0.066 0.117 0.207 0.281 0.309 0.367 c 0.18 0.152 0.195 0.152 0.402 0.039 c 0.148 -0.082 0.492 -0.137 1.066 -0.172 l 0.852 -0.055 l 0.059 -0.617 c 0.035 -0.336 0.066 -1.055 0.07 -1.59 l 0.004 -0.977 l -0.227 -0.168 l -0.23 -0.164 l 0.176 -0.07 c 0.184 -0.074 0.34 -0.289 0.418 -0.586 c 0.027 -0.098 0.09 -0.23 0.137 -0.289 c 0.047 -0.059 0.105 -0.207 0.133 -0.328 c 0.027 -0.117 0.172 -0.492 0.32 -0.832 c 0.152 -0.34 0.301 -0.691 0.336 -0.781 c 0.063 -0.176 0.227 -0.219 0.305 -0.078 c 0.027 0.047 0.02 0.063 -0.023 0.035 c -0.086 -0.059 -0.289 0.137 -0.289 0.277 c 0 0.055 -0.016 0.145 -0.039 0.203 c -0.027 0.082 0.004 0.098 0.133 0.07 c 0.094 -0.02 0.184 -0.078 0.203 -0.137 c 0.016 -0.063 0.023 -0.055 0.02 0.023 c -0.008 0.074 -0.102 0.148 -0.25 0.188 c -0.273 0.078 -0.336 0.156 -0.336 0.434 c -0.004 0.203 0.098 0.273 0.152 0.109 c 0.02 -0.051 0.02 0.004 0.008 0.117 c -0.016 0.113 -0.07 0.293 -0.125 0.398 c -0.281 0.543 -0.273 0.508 -0.105 0.699 c 0.09 0.102 0.227 0.184 0.309 0.184 c 0.234 0 0.629 0.199 0.668 0.34 c 0.07 0.254 0.063 1.156 -0.02 1.754 c -0.047 0.332 -0.066 0.652 -0.047 0.707 c 0.059 0.164 0.293 0.113 0.449 -0.102 c 0.082 -0.109 0.254 -0.293 0.387 -0.406 l 0.238 -0.211 l 0.16 0.211 c 0.207 0.27 0.238 0.969 0.047 1.121 c -0.102 0.082 -0.105 0.082 -0.035 -0.004 c 0.125 -0.152 0.109 -0.867 -0.02 -1.023 c -0.102 -0.121 -0.125 -0.113 -0.41 0.09 c -0.164 0.117 -0.301 0.246 -0.301 0.285 c 0 0.086 -0.406 0.355 -0.535 0.355 c -0.078 0 -0.086 -0.164 -0.051 -0.926 c 0.023 -0.508 0.063 -1.117 0.086 -1.352 c 0.055 -0.512 -0.016 -0.598 -0.547 -0.672 c -0.27 -0.035 -0.391 -0.098 -0.563 -0.293 l -0.219 -0.246 l -0.141 0.277 c -0.074 0.148 -0.176 0.328 -0.223 0.398 c -0.07 0.105 -0.055 0.145 0.082 0.25 l 0.16 0.121 l -0.043 1.43 c -0.055 1.656 -0.043 1.695 0.43 1.492 c 0.152 -0.063 0.352 -0.117 0.445 -0.117 c 0.199 0 0.211 0.105 0.063 0.641 l -0.105 0.375 l -0.387 -0.016 c -0.215 -0.012 -0.984 0.008 -1.715 0.039 c -0.727 0.031 -1.355 0.031 -1.395 0 m 3.297 -5.574 c 0 -0.141 -0.027 -0.184 -0.113 -0.168 c -0.125 0.027 -0.258 0.445 -0.195 0.621 c 0.059 0.16 0.309 -0.207 0.309 -0.453 m 1.871 4.754 c 0.066 -0.082 0.137 -0.145 0.156 -0.145 c 0.02 0 -0.02 0.063 -0.09 0.145 c -0.066 0.078 -0.137 0.145 -0.156 0.145 c -0.02 0 0.023 -0.066 0.09 -0.145 m -4.859 -2.391 c 0 -0.242 0.121 -0.363 0.211 -0.215 c 0.113 0.191 0.07 0.43 -0.074 0.43 c -0.105 0 -0.137 -0.051 -0.137 -0.215 m 0.43 -0.984 c -0.391 -0.117 -0.375 -0.289 0.035 -0.395 c 0.508 -0.133 0.957 -0.133 1.031 -0.004 c 0.094 0.156 0.082 0.434 -0.02 0.445 c -0.359 0.039 -0.828 0.02 -1.047 -0.047 m 0.859 -0.184 c 0.18 -0.125 -0.051 -0.207 -0.469 -0.164 c -0.465 0.051 -0.488 0.066 -0.199 0.156 c 0.305 0.094 0.547 0.098 0.668 0.008" fill="#59562d"/><path d="m 8.836 12.449 c 0.016 -0.09 -0.043 -0.293 -0.137 -0.488 c -0.039 -0.074 -0.184 -0.117 -0.445 -0.133 c -0.371 -0.02 -0.387 -0.027 -0.352 -0.191 c 0.047 -0.199 -0.047 -0.258 -0.434 -0.258 c -0.363 0 -0.477 0.063 -0.477 0.262 c 0 0.246 -0.328 0.242 -0.531 -0.008 c -0.078 -0.098 -0.191 -0.18 -0.242 -0.18 c -0.199 0 -0.297 0.082 -0.262 0.223 c 0.051 0.215 -0.215 0.18 -0.309 -0.043 c -0.043 -0.098 -0.117 -0.18 -0.168 -0.18 c -0.047 0 -0.117 -0.074 -0.152 -0.164 c -0.039 -0.09 -0.133 -0.172 -0.215 -0.184 c -0.09 -0.016 -0.164 -0.094 -0.188 -0.199 c -0.023 -0.098 -0.09 -0.18 -0.145 -0.18 c -0.059 0 -0.086 -0.031 -0.066 -0.07 c 0.023 -0.039 0.012 -0.129 -0.027 -0.199 c -0.059 -0.113 -0.07 -0.105 -0.074 0.051 c -0.004 0.102 -0.023 0.141 -0.043 0.09 c -0.055 -0.145 0.035 -0.449 0.129 -0.449 c 0.086 0 0.371 0.344 0.664 0.797 c 0.09 0.141 0.195 0.281 0.234 0.313 c 0.039 0.031 0.668 0.031 1.395 0 c 0.73 -0.031 1.5 -0.051 1.715 -0.039 l 0.387 0.016 l 0.105 -0.375 c 0.148 -0.535 0.137 -0.641 -0.063 -0.641 c -0.094 0 -0.293 0.055 -0.445 0.117 c -0.473 0.203 -0.484 0.164 -0.43 -1.492 l 0.043 -1.43 l -0.16 -0.121 c -0.137 -0.105 -0.152 -0.145 -0.082 -0.25 c 0.047 -0.07 0.148 -0.25 0.223 -0.398 l 0.141 -0.277 l 0.219 0.246 c 0.172 0.195 0.293 0.258 0.563 0.293 c 0.531 0.074 0.602 0.156 0.547 0.672 c -0.023 0.234 -0.063 0.844 -0.086 1.352 c -0.035 0.762 -0.023 0.926 0.051 0.926 c 0.129 0 0.535 -0.27 0.535 -0.355 c 0 -0.039 0.137 -0.168 0.301 -0.285 c 0.285 -0.203 0.309 -0.211 0.41 -0.09 c 0.176 0.207 0.141 0.848 -0.063 1.137 c -0.27 0.375 -0.375 0.465 -0.547 0.465 c -0.117 0 -0.176 0.051 -0.207 0.176 c -0.023 0.094 -0.102 0.191 -0.176 0.211 c -0.074 0.02 -0.148 0.098 -0.168 0.172 c -0.02 0.074 -0.102 0.168 -0.184 0.207 c -0.207 0.098 -0.207 0.477 0.008 0.578 c 0.082 0.039 0.152 0.129 0.152 0.199 c 0 0.07 0.031 0.125 0.066 0.125 c 0.039 0 0.066 0.035 0.066 0.074 c 0 0.043 -0.227 0.074 -0.543 0.074 c -0.402 0 -0.543 -0.027 -0.535 -0.094 m 0.266 -0.707 c 0 -0.039 -0.031 -0.07 -0.07 -0.07 c -0.035 0 -0.066 0.031 -0.066 0.07 c 0 0.039 0.031 0.074 0.066 0.074 c 0.039 0 0.07 -0.035 0.07 -0.074 m -0.559 -0.277 c 0.012 -0.047 -0.039 -0.086 -0.117 -0.086 c -0.141 0 -0.184 0.078 -0.094 0.172 c 0.063 0.066 0.176 0.023 0.211 -0.086 m 1.035 -0.27 c 0.141 -0.18 0.676 -0.539 0.805 -0.539 c 0.066 0 0.199 -0.09 0.297 -0.199 c 0.164 -0.188 0.172 -0.23 0.117 -0.582 c -0.031 -0.211 -0.074 -0.414 -0.098 -0.453 c -0.074 -0.125 -0.234 -0.082 -0.387 0.105 c -0.078 0.098 -0.266 0.27 -0.414 0.379 c -0.383 0.281 -0.746 1.098 -0.586 1.305 c 0.098 0.125 0.16 0.121 0.266 -0.016 m -0.895 -1.078 c 0.098 -0.055 0.313 -0.145 0.473 -0.195 c 0.16 -0.051 0.32 -0.145 0.352 -0.215 c 0.07 -0.133 0.105 -2.488 0.043 -2.594 c -0.023 -0.039 -0.211 -0.082 -0.422 -0.102 c -0.313 -0.027 -0.406 -0.07 -0.531 -0.238 l -0.152 -0.203 l -0.148 0.27 c -0.145 0.262 -0.145 0.27 -0.02 0.461 c 0.113 0.18 0.121 0.297 0.074 1.43 c -0.043 1.109 -0.016 1.488 0.113 1.488 c 0.02 0 0.117 -0.047 0.219 -0.102 m -2.453 1.723 c 0.047 -0.02 0.121 -0.02 0.168 0 c 0.047 0.02 0.008 0.035 -0.086 0.035 c -0.094 0 -0.129 -0.016 -0.082 -0.035 m 1.02 -0.004 c 0.121 -0.016 0.305 -0.016 0.406 0 c 0.102 0.016 0.004 0.031 -0.223 0.031 c -0.223 0 -0.305 -0.016 -0.184 -0.031 m -0.723 -4.965 c -0.289 -0.09 -0.266 -0.105 0.199 -0.156 c 0.418 -0.043 0.652 0.039 0.473 0.164 c -0.125 0.09 -0.367 0.086 -0.672 -0.008 m 2.07 -0.695 c -0.023 -0.023 -0.039 -0.113 -0.035 -0.195 c 0.004 -0.137 0.008 -0.141 0.055 -0.016 c 0.043 0.121 0.055 0.121 0.137 0.02 c 0.051 -0.066 0.07 -0.172 0.043 -0.242 c -0.039 -0.109 -0.055 -0.113 -0.113 -0.02 c -0.055 0.086 -0.063 0.078 -0.047 -0.039 c 0.012 -0.078 0.078 -0.152 0.141 -0.168 c 0.09 -0.016 0.117 0.023 0.117 0.172 c 0 0.199 -0.219 0.57 -0.297 0.488 m 0.301 -0.945 c 0 -0.223 0.102 -0.438 0.172 -0.363 c 0.066 0.07 -0.031 0.563 -0.109 0.563 c -0.035 0 -0.063 -0.09 -0.063 -0.199 m 0.23 -0.578 c 0.023 -0.059 0.039 -0.148 0.039 -0.203 c 0 -0.055 0.051 -0.152 0.113 -0.215 c 0.148 -0.164 0.254 -0.039 0.195 0.238 c -0.031 0.156 -0.094 0.227 -0.215 0.25 c -0.129 0.027 -0.16 0.012 -0.133 -0.07 m 0.309 -0.328 c 0 -0.129 -0.012 -0.141 -0.063 -0.059 c -0.035 0.059 -0.047 0.133 -0.027 0.164 c 0.059 0.102 0.094 0.063 0.09 -0.105" fill="#453819"/><path d="m 5.953 11.672 c -0.066 -0.277 0.387 -0.281 0.547 0 c 0.082 0.137 0.07 0.145 -0.211 0.145 c -0.242 0 -0.305 -0.027 -0.336 -0.145 m 1.039 -0.031 c 0 -0.203 0.113 -0.262 0.5 -0.258 c 0.355 0 0.457 0.07 0.406 0.273 c -0.035 0.145 -0.082 0.16 -0.473 0.16 c -0.41 0 -0.434 -0.008 -0.434 -0.176 m 1.973 0.102 c 0 -0.039 0.031 -0.07 0.066 -0.07 c 0.039 0 0.07 0.031 0.07 0.07 c 0 0.043 -0.031 0.074 -0.07 0.074 c -0.035 0 -0.066 -0.031 -0.066 -0.074 m -0.633 -0.191 c -0.09 -0.094 -0.047 -0.172 0.094 -0.172 c 0.078 0 0.129 0.039 0.113 0.09 c -0.031 0.105 -0.145 0.148 -0.207 0.082 m 0.98 -0.34 c -0.16 -0.207 0.203 -1.023 0.586 -1.305 c 0.148 -0.109 0.332 -0.277 0.414 -0.379 c 0.152 -0.188 0.313 -0.23 0.383 -0.105 c 0.023 0.039 0.07 0.242 0.102 0.453 c 0.055 0.352 0.043 0.395 -0.117 0.582 c -0.098 0.109 -0.23 0.199 -0.297 0.199 c -0.129 0 -0.664 0.359 -0.805 0.543 c -0.105 0.133 -0.168 0.137 -0.266 0.012 m -4.695 -0.719 c 0 -0.133 0.012 -0.145 0.066 -0.055 c 0.082 0.141 0.082 0.219 0 0.219 c -0.039 0 -0.07 -0.074 -0.066 -0.164 m 3.746 -0.398 c -0.035 -0.074 -0.039 -0.648 -0.012 -1.363 c 0.047 -1.133 0.039 -1.246 -0.078 -1.43 c -0.121 -0.191 -0.121 -0.199 0.023 -0.461 l 0.148 -0.27 l 0.152 0.203 c 0.125 0.168 0.215 0.211 0.531 0.238 c 0.211 0.02 0.398 0.063 0.422 0.102 c 0.063 0.105 0.023 2.461 -0.043 2.594 c -0.031 0.07 -0.191 0.164 -0.352 0.215 c -0.16 0.055 -0.375 0.141 -0.473 0.195 c -0.23 0.129 -0.246 0.129 -0.32 -0.023 m 0.262 -4.121 c 0 -0.078 0.031 -0.191 0.066 -0.25 c 0.051 -0.09 0.07 -0.086 0.109 0.023 c 0.027 0.082 0.004 0.176 -0.066 0.25 c -0.102 0.109 -0.109 0.109 -0.109 -0.023 m 0.723 -1.543 c -0.02 -0.031 -0.008 -0.105 0.027 -0.164 c 0.051 -0.082 0.063 -0.07 0.063 0.059 c 0.004 0.168 -0.031 0.207 -0.09 0.105" fill="#2f2e09"/></svg>