<svg xmlns="http://www.w3.org/2000/svg" viewBox="0 0 16 16"><path d="m 2.023 13.594 c -9.152 -14.09 15.844 -19.539 13.852 -5.05 c -0.813 5.91 -10.352 10.434 -13.852 5.05" fill="#ccf4cc"/><path d="m 4.281 12.574 c -0.023 -0.074 -0.055 -0.664 -0.066 -1.316 l -0.027 -1.184 l -0.297 -0.082 c -0.422 -0.121 -1.43 -0.891 -1.762 -1.348 c -0.27 -0.375 -0.273 -0.395 -0.156 -0.879 c 0.273 -1.113 1.113 -2.191 1.934 -2.48 l 0.281 -0.102 l 0.047 -1.23 l 0.051 -1.234 h 7.262 l 0.047 1.23 l 0.047 1.234 l 0.289 0.113 c 0.508 0.199 0.93 0.551 1.305 1.094 c 0.324 0.465 0.719 1.457 0.719 1.809 c 0 0.391 -1.215 1.484 -1.961 1.766 l -0.352 0.129 l -0.094 2.555 l -3.609 0.027 c -2.84 0.023 -3.621 0 -3.656 -0.102 m 2.906 -0.434 c 0.332 -0.367 0.734 -4.906 0.422 -4.793 c -0.082 0.031 -0.129 0.363 -0.145 1.066 c -0.035 1.188 -0.09 1.297 -0.813 1.555 c -0.684 0.246 -1.156 0.523 -1.227 0.719 c -0.031 0.094 -0.059 0.391 -0.059 0.66 c 0 0.727 0.23 0.902 1.195 0.926 c 0.313 0.008 0.539 -0.039 0.625 -0.133 m -1.398 -0.313 c -0.129 -0.141 -0.23 -0.328 -0.23 -0.422 c 0 -0.309 0.273 -0.746 0.535 -0.852 c 0.906 -0.367 1.18 -0.453 1.23 -0.395 c 0.094 0.098 -0.125 1.59 -0.258 1.766 c -0.074 0.098 -0.285 0.156 -0.582 0.156 c -0.367 0 -0.512 -0.055 -0.695 -0.254 m 4.488 0.199 c 0.141 -0.141 0.184 -0.32 0.184 -0.742 c 0 -0.707 -0.195 -0.93 -1.113 -1.25 c -0.363 -0.129 -0.715 -0.313 -0.785 -0.402 c -0.082 -0.105 -0.145 -0.555 -0.176 -1.215 c -0.066 -1.492 -0.238 -1.258 -0.219 0.301 c 0.016 1.367 0.309 3.328 0.516 3.484 c 0.215 0.16 1.383 0.035 1.594 -0.176 m -1.492 -0.074 c -0.113 -0.16 -0.305 -1.113 -0.305 -1.539 c 0 -0.203 0.043 -0.301 0.117 -0.277 c 1.254 0.406 1.328 0.441 1.5 0.75 c 0.242 0.434 0.219 0.727 -0.074 0.98 c -0.281 0.242 -1.078 0.297 -1.238 0.086 m -3.254 -2.371 c 0.402 -0.211 1.25 -1.141 1.25 -1.375 c 0 -0.234 -1.035 -1.383 -1.441 -1.602 c -0.434 -0.227 -0.82 -0.281 -0.82 -0.109 c 0 0.055 0.129 0.102 0.285 0.102 c 0.512 0 1.594 1.297 1.461 1.754 c -0.105 0.367 -0.957 1.109 -1.418 1.234 c -0.254 0.07 -0.406 0.164 -0.371 0.227 c 0.078 0.137 0.535 0.035 1.055 -0.23 m 5.824 0.227 c 0.031 -0.055 -0.137 -0.156 -0.375 -0.223 c -0.461 -0.125 -1.309 -0.867 -1.418 -1.234 c -0.129 -0.457 0.965 -1.754 1.477 -1.754 c 0.148 0 0.273 -0.047 0.273 -0.102 c 0 -0.172 -0.387 -0.117 -0.82 0.109 c -0.402 0.215 -1.445 1.363 -1.445 1.594 c 0 0.195 0.66 0.98 1.043 1.246 c 0.527 0.367 1.16 0.547 1.266 0.363 m -7.117 -0.57 c 0 -0.086 -0.141 -0.219 -0.309 -0.297 c -0.508 -0.23 -0.918 -0.672 -0.918 -0.98 c 0 -0.414 0.512 -1.309 0.891 -1.566 c 0.352 -0.238 0.434 -0.418 0.191 -0.418 c -0.402 0 -1.367 1.43 -1.367 2.035 c 0 0.316 0.484 0.898 0.969 1.16 c 0.477 0.258 0.543 0.266 0.543 0.066 m 8.512 -0.57 c 0.203 -0.23 0.352 -0.512 0.352 -0.648 c 0 -0.609 -0.957 -2.043 -1.367 -2.043 c -0.238 0 -0.156 0.18 0.195 0.418 c 0.379 0.258 0.887 1.152 0.891 1.566 c 0 0.309 -0.414 0.75 -0.918 0.984 c -0.301 0.137 -0.371 0.242 -0.25 0.375 c 0.117 0.125 0.75 -0.25 1.098 -0.648 m -7.684 -0.008 c 0.375 -0.25 0.469 -0.48 0.277 -0.687 c -0.129 -0.145 -0.184 -0.117 -0.535 0.27 c -0.539 0.59 -0.379 0.848 0.258 0.418 m 6.289 0.109 c 0.031 -0.055 -0.121 -0.293 -0.336 -0.527 c -0.348 -0.387 -0.406 -0.414 -0.535 -0.27 c -0.191 0.207 -0.098 0.437 0.281 0.687 c 0.34 0.23 0.504 0.262 0.59 0.109 m -7.121 -1.168 l -0.004 -0.645 l -0.188 0.246 c -0.352 0.465 -0.32 1.047 0.063 1.047 c 0.098 0 0.129 -0.164 0.129 -0.648 m 7.734 0.496 c 0.148 -0.195 0.047 -0.703 -0.191 -0.941 c -0.18 -0.176 -0.184 -0.168 -0.184 0.457 c 0 0.66 0.121 0.816 0.375 0.484 m -4.715 -1.355 v -0.473 l -0.621 -0.309 c -0.699 -0.348 -1.848 -0.664 -2.074 -0.566 c -0.246 0.102 -0.051 0.27 0.32 0.27 c 0.496 0.004 1.016 0.293 1.719 0.961 c 0.336 0.32 0.621 0.582 0.633 0.586 c 0.012 0 0.023 -0.207 0.023 -0.469 m 1.891 -0.043 c 0.609 -0.613 1.176 -0.941 1.754 -1.012 c 0.227 -0.027 0.438 -0.094 0.469 -0.141 c 0.191 -0.348 -1.164 -0.086 -2.172 0.414 l -0.621 0.309 v 0.473 c 0 0.262 0.012 0.473 0.027 0.473 c 0.016 0 0.262 -0.234 0.543 -0.516 m -1.512 -0.625 c 0 -0.563 -0.77 -2.48 -1.141 -2.852 c -0.168 -0.164 -0.188 -0.16 -0.363 0.074 c -0.105 0.133 -0.191 0.285 -0.191 0.336 c -0.004 0.051 0.246 0.383 0.551 0.742 c 0.488 0.57 0.715 1.012 0.914 1.781 c 0.055 0.207 0.23 0.145 0.23 -0.082 m 0.793 0.082 c 0.195 -0.742 0.422 -1.184 0.91 -1.766 c 0.309 -0.371 0.559 -0.711 0.559 -0.762 c -0.004 -0.047 -0.082 -0.203 -0.184 -0.344 c -0.176 -0.25 -0.18 -0.254 -0.379 -0.055 c -0.262 0.258 -0.82 1.512 -0.996 2.227 c -0.164 0.68 -0.172 0.828 -0.043 0.828 c 0.055 0 0.113 -0.059 0.133 -0.129" fill="#cde5ab"/><path d="m 4.395 12.531 c -0.035 -0.039 -0.063 -0.621 -0.063 -1.293 v -1.219 l -0.371 -0.109 c -0.844 -0.25 -2.141 -1.473 -2.027 -1.914 c 0.277 -1.078 1.277 -2.391 1.992 -2.621 l 0.398 -0.129 l 0.027 -1.211 l 0.027 -1.215 h 7.07 l 0.023 1.215 l 0.027 1.211 l 0.371 0.109 c 0.535 0.16 1.32 0.992 1.676 1.777 c 0.445 0.992 0.449 1.051 0.113 1.469 c -0.383 0.48 -1.332 1.172 -1.793 1.309 l -0.367 0.105 l -0.027 1.266 l -0.023 1.266 l -3.5 0.027 c -1.922 0.012 -3.523 -0.008 -3.559 -0.043 m 2.914 -0.27 c 0.152 -0.164 0.445 -2.563 0.453 -3.699 c 0.012 -1.266 0.008 -1.293 -0.199 -1.324 c -0.18 -0.031 -0.215 -0.098 -0.215 -0.441 c 0 -0.336 0.031 -0.406 0.191 -0.406 c 0.227 0 0.234 -0.16 0.047 -0.93 c -0.184 -0.762 -0.734 -1.961 -1.043 -2.281 l -0.246 -0.254 l -0.23 0.309 c -0.125 0.172 -0.227 0.352 -0.227 0.398 c 0 0.047 0.254 0.391 0.563 0.762 c 0.516 0.617 0.957 1.5 0.824 1.648 c -0.031 0.031 -0.367 -0.078 -0.746 -0.25 c -0.695 -0.316 -1.496 -0.539 -1.918 -0.539 c -0.164 0 -0.23 0.055 -0.23 0.195 c 0 0.227 0.176 0.32 0.609 0.32 c 0.43 0 1.16 0.457 1.836 1.16 l 0.574 0.586 v 0.895 c 0 0.488 -0.043 0.977 -0.094 1.082 c -0.055 0.105 -0.316 0.27 -0.59 0.367 c -0.711 0.258 -1.184 0.535 -1.297 0.766 c -0.051 0.109 -0.098 0.426 -0.098 0.707 c 0 0.531 0.211 0.871 0.613 0.988 c 0.211 0.063 1.355 0.016 1.422 -0.059 m -1.449 -0.445 c -0.23 -0.18 -0.262 -0.426 -0.102 -0.813 c 0.102 -0.242 0.23 -0.324 0.883 -0.559 c 0.156 -0.059 0.363 -0.141 0.465 -0.184 c 0.168 -0.074 0.176 -0.039 0.121 0.543 c -0.035 0.344 -0.102 0.746 -0.156 0.898 c -0.082 0.242 -0.145 0.273 -0.547 0.273 c -0.258 0 -0.543 -0.07 -0.664 -0.16 m 4.469 0.258 c 0.18 -0.188 0.227 -0.34 0.227 -0.742 c 0 -0.277 -0.043 -0.598 -0.098 -0.707 c -0.109 -0.227 -0.609 -0.531 -1.195 -0.723 c -0.695 -0.227 -0.781 -0.383 -0.781 -1.453 v -0.934 l 0.531 -0.535 c 0.73 -0.734 1.266 -1.105 1.699 -1.168 c 0.703 -0.105 0.789 -0.145 0.789 -0.355 c 0 -0.152 -0.063 -0.203 -0.262 -0.203 c -0.41 0.004 -1.367 0.277 -1.957 0.566 c -0.684 0.328 -0.742 0.328 -0.664 -0.023 c 0.094 -0.406 0.543 -1.148 0.992 -1.625 c 0.207 -0.227 0.379 -0.457 0.379 -0.516 c 0 -0.063 -0.102 -0.25 -0.227 -0.422 l -0.227 -0.309 l -0.234 0.242 c -0.32 0.328 -0.758 1.262 -1 2.121 c -0.25 0.898 -0.25 1.102 -0.008 1.102 c 0.156 0 0.188 0.07 0.188 0.406 c 0 0.344 -0.031 0.414 -0.211 0.441 c -0.207 0.031 -0.211 0.059 -0.203 1.324 c 0.004 0.711 0.055 1.563 0.117 1.891 c 0.059 0.324 0.156 0.852 0.211 1.168 c 0.125 0.695 0.262 0.785 1.105 0.73 c 0.461 -0.031 0.652 -0.098 0.828 -0.277 m -1.563 -0.348 c -0.047 -0.137 -0.113 -0.539 -0.152 -0.895 c -0.063 -0.609 -0.055 -0.645 0.113 -0.57 c 0.098 0.047 0.305 0.125 0.461 0.184 c 0.652 0.234 0.785 0.316 0.887 0.559 c 0.258 0.621 -0.02 0.973 -0.766 0.973 c -0.395 0 -0.465 -0.035 -0.543 -0.25 m -3.242 -2.039 c 0.43 -0.223 1.355 -1.227 1.355 -1.477 c 0 -0.254 -1.105 -1.477 -1.547 -1.711 c -0.512 -0.273 -1.027 -0.289 -0.984 -0.031 c 0.023 0.121 0.137 0.191 0.359 0.215 c 0.184 0.02 0.473 0.152 0.645 0.293 c 0.367 0.309 0.867 1.031 0.867 1.258 c 0 0.301 -0.883 1.113 -1.348 1.242 c -0.449 0.125 -0.594 0.25 -0.492 0.434 c 0.082 0.141 0.648 0.031 1.145 -0.223 m 5.957 0.102 c 0.02 -0.125 -0.094 -0.203 -0.465 -0.301 c -0.383 -0.098 -0.598 -0.242 -0.949 -0.625 c -0.25 -0.273 -0.453 -0.563 -0.453 -0.641 c 0 -0.215 0.508 -0.945 0.867 -1.246 c 0.172 -0.141 0.461 -0.273 0.641 -0.293 c 0.223 -0.023 0.34 -0.094 0.359 -0.215 c 0.047 -0.258 -0.469 -0.242 -0.988 0.035 c -0.422 0.223 -1.539 1.469 -1.539 1.715 c 0 0.199 0.73 1.047 1.156 1.344 c 0.355 0.246 0.938 0.445 1.199 0.414 c 0.078 -0.012 0.156 -0.094 0.172 -0.188 m -7.168 -0.578 c 0.023 -0.164 -0.047 -0.242 -0.285 -0.328 c -0.418 -0.152 -0.922 -0.668 -0.922 -0.937 c 0 -0.484 0.805 -1.66 1.133 -1.66 c 0.051 0 0.094 -0.09 0.094 -0.207 c 0 -0.594 -1.035 0.234 -1.461 1.168 c -0.34 0.75 -0.313 0.988 0.164 1.496 c 0.387 0.418 0.961 0.773 1.152 0.715 c 0.055 -0.02 0.109 -0.129 0.125 -0.246 m 7.73 0.121 c 0.5 -0.227 1.156 -0.957 1.152 -1.281 c -0.004 -0.324 -0.27 -0.969 -0.598 -1.445 c -0.449 -0.648 -1.098 -0.961 -1.098 -0.527 c 0 0.117 0.039 0.207 0.09 0.207 c 0.176 0 0.77 0.656 0.953 1.047 c 0.27 0.582 0.234 0.852 -0.148 1.172 c -0.18 0.152 -0.457 0.324 -0.613 0.387 c -0.266 0.098 -0.375 0.367 -0.219 0.535 c 0.082 0.09 0.078 0.09 0.48 -0.094 m -6.871 -0.648 c 0.383 -0.305 0.449 -0.492 0.25 -0.734 c -0.188 -0.227 -0.43 -0.285 -0.43 -0.105 c 0 0.059 -0.105 0.223 -0.234 0.363 c -0.363 0.398 -0.426 0.324 -0.426 -0.523 c 0 -0.91 -0.129 -1.01 -0.465 -0.355 c -0.266 0.52 -0.207 0.852 0.18 1.027 c 0.16 0.07 0.285 0.207 0.285 0.305 c 0 0.098 0.027 0.211 0.066 0.254 c 0.098 0.105 0.504 -0.02 0.773 -0.23 m 6.309 0.023 c 0.016 -0.125 0.164 -0.285 0.355 -0.383 c 0.383 -0.203 0.41 -0.414 0.133 -1.01 c -0.313 -0.668 -0.469 -0.543 -0.469 0.367 c 0 0.469 -0.039 0.777 -0.098 0.777 c -0.125 0 -0.52 -0.426 -0.586 -0.629 c -0.055 -0.172 -0.324 -0.043 -0.484 0.238 c -0.121 0.207 0.133 0.555 0.555 0.762 c 0.371 0.18 0.559 0.141 0.594 -0.125" fill="#b8db88"/><path d="m 4.434 12.453 c -0.074 -0.094 -0.102 -0.527 -0.082 -1.266 l 0.027 -1.121 l 0.398 -0.074 c 0.613 -0.113 1.063 -0.387 1.605 -0.98 c 0.656 -0.719 0.648 -0.875 -0.094 -1.719 c -0.641 -0.723 -1.023 -0.988 -1.484 -1.027 c -0.328 -0.027 -0.527 -0.215 -0.422 -0.398 c 0.098 -0.176 0.793 -0.066 1.297 0.203 c 0.234 0.125 0.703 0.508 1.047 0.852 l 0.621 0.625 v 0.859 c 0 1.023 -0.094 1.191 -0.82 1.445 c -0.992 0.348 -1.383 0.82 -1.316 1.586 c 0.051 0.539 0.266 0.824 0.699 0.914 c 0.523 0.105 0.164 0.242 -0.648 0.246 c -0.5 0 -0.754 -0.043 -0.828 -0.145 m 2.348 0.039 c -0.211 -0.074 -0.203 -0.082 0.109 -0.09 c 0.188 -0.008 0.383 -0.07 0.438 -0.141 c 0.051 -0.07 0.188 -0.758 0.305 -1.527 c 0.113 -0.766 0.238 -1.43 0.273 -1.477 c 0.039 -0.043 0.164 0.559 0.281 1.34 c 0.117 0.781 0.254 1.504 0.305 1.605 c 0.059 0.125 0.207 0.191 0.441 0.199 c 0.766 0.02 -0.121 0.176 -1.02 0.176 c -0.492 0 -1 -0.039 -1.133 -0.086 m 2.941 0.012 c -0.09 -0.059 -0.031 -0.105 0.199 -0.152 c 0.43 -0.09 0.648 -0.375 0.695 -0.914 c 0.07 -0.766 -0.324 -1.238 -1.316 -1.586 c -0.723 -0.254 -0.82 -0.422 -0.82 -1.445 v -0.859 l 0.621 -0.625 c 0.344 -0.344 0.816 -0.727 1.047 -0.852 c 0.508 -0.27 1.203 -0.379 1.301 -0.203 c 0.102 0.184 -0.098 0.371 -0.426 0.398 c -0.164 0.016 -0.43 0.102 -0.594 0.195 c -0.414 0.23 -1.367 1.324 -1.441 1.645 c -0.117 0.52 0.938 1.582 1.809 1.813 c 0.258 0.066 0.52 0.137 0.586 0.156 c 0.082 0.023 0.117 0.336 0.117 1.113 c 0 0.598 -0.027 1.156 -0.059 1.246 c -0.047 0.129 -0.211 0.164 -0.824 0.16 c -0.422 0 -0.824 -0.039 -0.895 -0.09 m -3.555 -0.602 c -0.41 -0.113 -0.547 -0.512 -0.328 -0.957 c 0.09 -0.184 1.281 -0.699 1.379 -0.594 c 0.023 0.027 -0.004 0.359 -0.063 0.734 c -0.137 0.844 -0.32 0.996 -0.988 0.816 m 2.773 -0.047 c -0.148 -0.133 -0.43 -1.398 -0.332 -1.5 c 0.066 -0.074 1.121 0.297 1.301 0.457 c 0.227 0.207 0.27 0.621 0.09 0.855 c -0.195 0.258 -0.852 0.371 -1.059 0.188 m -5.422 -2.195 c -0.266 -0.137 -0.746 -0.52 -1.07 -0.852 l -0.59 -0.609 l 0.246 -0.605 c 0.477 -1.184 1.23 -2.047 1.922 -2.195 c 0.258 -0.059 0.305 -0.039 0.305 0.133 c 0 0.133 -0.109 0.238 -0.328 0.328 c -0.437 0.172 -1.039 0.941 -1.273 1.633 c -0.176 0.512 -0.18 0.59 -0.055 0.859 c 0.191 0.402 0.766 0.902 1.227 1.074 c 0.211 0.074 0.395 0.215 0.41 0.309 c 0.043 0.242 -0.219 0.219 -0.793 -0.074 m 8.02 0.137 c -0.086 -0.152 0.027 -0.254 0.469 -0.406 c 0.359 -0.129 1.281 -1.012 1.281 -1.23 c 0 -0.059 -0.086 -0.359 -0.191 -0.668 c -0.238 -0.691 -0.84 -1.461 -1.277 -1.633 c -0.563 -0.227 -0.375 -0.605 0.199 -0.398 c 0.5 0.184 1.207 1.023 1.613 1.926 l 0.355 0.789 l -0.602 0.621 c -0.535 0.555 -1.371 1.109 -1.672 1.109 c -0.063 0 -0.145 -0.047 -0.176 -0.109 m -7.176 -0.453 c -0.074 -0.211 0.035 -0.367 0.258 -0.367 c 0.246 0 0.652 -0.234 0.879 -0.508 c 0.18 -0.219 0.18 -0.223 -0.012 -0.504 c -0.262 -0.387 -0.422 -0.387 -0.645 0.004 c -0.32 0.566 -0.465 0.445 -0.496 -0.414 c -0.016 -0.414 -0.066 -0.75 -0.113 -0.75 c -0.117 0 -0.426 0.449 -0.574 0.84 c -0.113 0.305 -0.105 0.344 0.117 0.547 c 0.133 0.117 0.32 0.27 0.418 0.336 c 0.137 0.09 0.152 0.148 0.07 0.242 c -0.137 0.156 -0.66 -0.094 -0.98 -0.469 c -0.211 -0.246 -0.211 -0.254 -0.047 -0.719 c 0.27 -0.777 1.09 -1.555 1.09 -1.035 c 0 0.094 0.086 0.156 0.227 0.156 c 0.129 0 0.332 0.039 0.453 0.09 c 0.27 0.113 0.887 0.789 1.074 1.176 c 0.129 0.273 0.121 0.301 -0.246 0.738 c -0.57 0.68 -1.344 1.012 -1.473 0.637 m 6.328 -0.008 c -0.441 -0.258 -0.988 -0.891 -0.988 -1.148 c 0 -0.141 0.199 -0.469 0.496 -0.813 c 0.391 -0.461 0.57 -0.594 0.871 -0.645 c 0.207 -0.035 0.426 -0.137 0.488 -0.227 c 0.098 -0.148 0.137 -0.145 0.379 0.051 c 0.316 0.258 0.793 1.152 0.762 1.438 c -0.031 0.242 -0.793 0.902 -0.996 0.859 c -0.238 -0.047 -0.238 -0.281 -0.004 -0.379 c 0.121 -0.051 0.301 -0.188 0.398 -0.309 c 0.156 -0.187 0.164 -0.254 0.059 -0.531 c -0.145 -0.379 -0.453 -0.828 -0.57 -0.828 c -0.043 0 -0.094 0.34 -0.109 0.75 c -0.031 0.859 -0.176 0.98 -0.496 0.418 c -0.234 -0.406 -0.355 -0.418 -0.609 -0.07 c -0.148 0.207 -0.168 0.316 -0.098 0.465 c 0.129 0.262 0.5 0.52 0.871 0.602 c 0.219 0.051 0.305 0.125 0.305 0.273 c 0 0.266 -0.375 0.313 -0.754 0.094 m -2.836 -2.031 c -0.051 -0.098 -0.176 -0.168 -0.281 -0.156 c -0.152 0.016 -0.188 -0.043 -0.188 -0.344 c 0 -0.289 0.035 -0.355 0.164 -0.332 c 0.492 0.09 -0.121 -2.141 -0.879 -3.195 c -0.148 -0.207 -0.242 -0.406 -0.211 -0.441 c 0.078 -0.082 2.809 -0.09 2.883 -0.004 c 0.031 0.031 -0.105 0.313 -0.305 0.621 c -0.457 0.715 -0.852 1.793 -0.922 2.508 c -0.047 0.5 -0.035 0.547 0.129 0.516 c 0.148 -0.027 0.18 0.031 0.18 0.328 c 0 0.313 -0.027 0.359 -0.207 0.332 c -0.133 -0.02 -0.215 0.031 -0.238 0.156 c -0.031 0.168 -0.039 0.172 -0.125 0.012 m -0.988 -1.383 c -0.406 -0.254 -1.691 -0.668 -2.07 -0.668 c -0.242 0 -0.379 -0.055 -0.418 -0.164 c -0.105 -0.309 -0.063 -2.066 0.055 -2.195 c 0.145 -0.16 1.645 -0.168 1.73 -0.012 c 0.035 0.059 -0.02 0.211 -0.121 0.336 c -0.34 0.414 -0.328 0.461 0.246 1.141 c 0.617 0.723 0.891 1.215 0.844 1.512 c -0.027 0.176 -0.051 0.18 -0.266 0.047 m 1.793 -0.063 c 0 -0.328 0.27 -0.801 0.859 -1.492 c 0.305 -0.359 0.555 -0.672 0.555 -0.691 c 0 -0.02 -0.102 -0.191 -0.23 -0.379 c -0.129 -0.191 -0.211 -0.387 -0.184 -0.434 c 0.027 -0.051 0.43 -0.09 0.891 -0.09 c 1 0 0.965 -0.055 0.922 1.449 l -0.027 0.984 l -0.59 0.07 c -0.324 0.039 -0.949 0.23 -1.391 0.426 c -0.742 0.324 -0.805 0.336 -0.805 0.156" fill="#a8d16f"/><path d="m 4.426 11.313 v -1.18 l 0.488 -0.117 c 0.27 -0.063 0.621 -0.203 0.785 -0.316 c 0.379 -0.258 1.273 -1.285 1.273 -1.469 c 0 -0.074 -0.172 -0.363 -0.379 -0.637 c -0.66 -0.883 -1.391 -1.41 -1.938 -1.41 c -0.184 0 -0.234 -0.047 -0.211 -0.18 c 0.027 -0.145 0.109 -0.176 0.406 -0.148 c 0.594 0.055 1.094 0.352 1.773 1.051 l 0.629 0.645 v 0.906 c 0 1.016 -0.055 1.121 -0.707 1.348 c -1.043 0.363 -1.367 0.711 -1.367 1.477 c 0 0.598 0.105 0.848 0.449 1.051 c 0.246 0.148 0.227 0.152 -0.473 0.156 l -0.73 0.004 m 2.906 -0.129 c 0.055 -0.07 0.191 -0.688 0.301 -1.371 c 0.113 -0.68 0.227 -1.309 0.254 -1.395 c 0.031 -0.086 0.156 0.469 0.277 1.23 c 0.125 0.766 0.273 1.449 0.332 1.527 c 0.086 0.113 -0.02 0.137 -0.582 0.137 c -0.539 0 -0.66 -0.027 -0.582 -0.129 m 2.867 -0.031 c 0.348 -0.203 0.453 -0.453 0.453 -1.051 c 0 -0.766 -0.324 -1.113 -1.367 -1.477 c -0.652 -0.227 -0.711 -0.332 -0.711 -1.348 v -0.906 l 0.602 -0.617 c 0.672 -0.688 1.242 -1.027 1.805 -1.078 c 0.297 -0.027 0.379 0.004 0.406 0.148 c 0.023 0.137 -0.031 0.18 -0.227 0.18 c -0.145 0 -0.441 0.098 -0.66 0.211 c -0.441 0.234 -1.641 1.563 -1.641 1.816 c 0 0.25 0.945 1.281 1.414 1.539 c 0.234 0.129 0.582 0.266 0.777 0.305 l 0.355 0.07 v 2.371 l -0.73 -0.008 c -0.699 -0.004 -0.723 -0.008 -0.477 -0.156 m -4.289 -0.57 c -0.09 -0.059 -0.164 -0.215 -0.164 -0.348 c 0 -0.375 0.277 -0.648 0.871 -0.863 l 0.543 -0.195 v 0.234 c 0 0.133 -0.043 0.473 -0.102 0.762 l -0.102 0.523 l -0.441 -0.004 c -0.242 -0.004 -0.512 -0.051 -0.605 -0.109 m 2.953 -0.086 c -0.051 -0.105 -0.121 -0.453 -0.156 -0.77 l -0.063 -0.578 l 0.555 0.207 c 0.609 0.23 0.887 0.504 0.887 0.879 c 0 0.305 -0.25 0.461 -0.746 0.461 c -0.277 0 -0.406 -0.055 -0.473 -0.199 m -5.527 -2.172 c -0.258 -0.164 -0.691 -0.527 -0.965 -0.801 l -0.496 -0.504 l 0.273 -0.617 c 0.52 -1.188 1.34 -2.121 1.863 -2.121 c 0.336 0 0.266 0.156 -0.199 0.457 c -0.598 0.383 -1.277 1.539 -1.277 2.176 c 0 0.309 0.891 1.227 1.348 1.395 c 0.191 0.07 0.352 0.168 0.352 0.223 c 0 0.188 -0.434 0.086 -0.898 -0.207 m 8.254 0.211 c 0 -0.047 0.191 -0.168 0.422 -0.266 c 0.234 -0.098 0.617 -0.395 0.859 -0.66 c 0.398 -0.441 0.43 -0.52 0.387 -0.879 c -0.094 -0.773 -0.695 -1.637 -1.539 -2.207 c -0.121 -0.082 -0.145 -0.152 -0.078 -0.23 c 0.152 -0.176 0.836 0.246 1.262 0.773 c 0.199 0.25 0.523 0.789 0.719 1.199 l 0.359 0.746 l -0.512 0.508 c -0.281 0.277 -0.723 0.641 -0.98 0.805 c -0.461 0.289 -0.898 0.395 -0.898 0.211 m -7.105 -0.289 c -0.152 -0.168 -0.031 -0.309 0.41 -0.48 c 0.602 -0.234 0.84 -0.586 0.652 -0.965 c -0.07 -0.145 -0.203 -0.305 -0.297 -0.359 c -0.141 -0.082 -0.203 -0.035 -0.367 0.266 c -0.316 0.59 -0.461 0.484 -0.461 -0.348 c 0 -0.762 0.047 -0.84 0.465 -0.75 c 0.27 0.055 1.094 0.934 1.188 1.266 c 0.117 0.402 -0.598 1.145 -1.328 1.379 c -0.109 0.035 -0.223 0.031 -0.258 -0.008 m 6.395 -0.059 c -0.379 -0.148 -0.918 -0.621 -1.078 -0.949 c -0.117 -0.238 -0.105 -0.301 0.141 -0.691 c 0.426 -0.672 0.867 -0.98 1.34 -0.934 c 0.082 0.008 0.117 0.23 0.117 0.734 c 0 0.574 -0.027 0.727 -0.141 0.727 c -0.078 0 -0.141 -0.035 -0.145 -0.078 c 0 -0.043 -0.098 -0.215 -0.219 -0.379 l -0.219 -0.297 l -0.25 0.297 c -0.141 0.164 -0.254 0.359 -0.254 0.434 c 0 0.219 0.473 0.633 0.867 0.766 c 0.242 0.078 0.359 0.172 0.34 0.273 c -0.035 0.207 -0.16 0.23 -0.5 0.098 m -7.352 -0.918 c -0.184 -0.176 -0.336 -0.41 -0.336 -0.523 c 0 -0.434 0.637 -1.434 0.914 -1.434 c 0.168 0 0.156 0.277 -0.012 0.348 c -0.172 0.07 -0.523 0.813 -0.523 1.102 c 0 0.137 0.121 0.293 0.328 0.43 c 0.184 0.117 0.332 0.254 0.332 0.305 c 0 0.203 -0.391 0.078 -0.703 -0.227 m 8.06 0.227 c 0 -0.051 0.148 -0.188 0.332 -0.305 c 0.207 -0.137 0.328 -0.293 0.328 -0.43 c 0 -0.289 -0.352 -1.031 -0.52 -1.102 c -0.172 -0.07 -0.184 -0.348 -0.016 -0.348 c 0.277 0 0.914 1 0.914 1.434 c 0 0.25 -0.602 0.844 -0.852 0.844 c -0.102 0 -0.184 -0.043 -0.184 -0.094 m -4.152 -1.875 c 0 -0.242 0.039 -0.309 0.164 -0.285 c 0.52 0.094 -0.105 -2.086 -0.977 -3.41 l -0.152 -0.23 h 2.875 l -0.152 0.23 c -0.422 0.641 -0.746 1.348 -0.965 2.109 c -0.27 0.938 -0.273 1.348 -0.016 1.301 c 0.129 -0.023 0.164 0.043 0.164 0.285 c 0 0.172 -0.031 0.313 -0.07 0.313 c -0.145 -0.004 -0.285 -0.16 -0.328 -0.359 c -0.035 -0.184 -0.055 -0.176 -0.148 0.078 c -0.148 0.391 -0.395 0.375 -0.395 -0.031 m -1.039 -1.141 c -0.336 -0.16 -0.918 -0.348 -1.297 -0.418 l -0.684 -0.121 v -2.25 h 0.852 c 0.465 0 0.848 0.035 0.844 0.078 c 0 0.043 -0.082 0.195 -0.184 0.336 c -0.102 0.145 -0.188 0.301 -0.188 0.352 c 0 0.047 0.23 0.367 0.52 0.703 c 0.621 0.742 1.09 1.664 0.82 1.625 c -0.039 -0.004 -0.344 -0.141 -0.684 -0.305 m 2.309 0.098 c 0.094 -0.352 0.645 -1.223 1.039 -1.641 c 0.383 -0.406 0.395 -0.477 0.145 -0.832 c -0.102 -0.141 -0.188 -0.293 -0.188 -0.336 c 0 -0.039 0.379 -0.074 0.848 -0.074 h 0.848 v 2.242 l -0.668 0.121 c -0.563 0.105 -0.91 0.23 -1.961 0.711 c -0.098 0.043 -0.113 -0.004 -0.063 -0.191" fill="#94c84d"/><path d="m 4.488 12.426 c -0.035 -0.039 -0.063 -0.551 -0.063 -1.141 c 0 -0.77 0.031 -1.082 0.117 -1.109 c 1.133 -0.34 1.25 -0.402 1.836 -1.047 c 0.402 -0.441 0.594 -0.73 0.594 -0.902 c 0 -0.297 -0.875 -1.398 -1.391 -1.746 c -0.191 -0.129 -0.512 -0.262 -0.707 -0.293 c -0.406 -0.063 -0.52 -0.242 -0.188 -0.297 c 0.484 -0.074 1.16 0.305 1.871 1.043 l 0.695 0.727 v 0.793 c 0 0.914 -0.074 1.066 -0.613 1.25 c -0.797 0.273 -1.281 0.613 -1.43 1.01 c -0.199 0.52 -0.113 1.109 0.215 1.484 l 0.262 0.301 h -0.57 c -0.313 0 -0.594 -0.031 -0.629 -0.07 m 2.984 -0.164 c 0.027 -0.129 0.129 -0.734 0.219 -1.344 c 0.094 -0.613 0.195 -1.113 0.223 -1.113 c 0.031 0 0.129 0.477 0.223 1.059 c 0.09 0.586 0.188 1.191 0.219 1.348 c 0.051 0.281 0.047 0.281 -0.441 0.281 c -0.461 0 -0.488 -0.012 -0.441 -0.23 m 2.922 -0.055 c 0.313 -0.359 0.414 -0.898 0.262 -1.406 c -0.137 -0.453 -0.43 -0.691 -1.23 -1 c -0.34 -0.129 -0.668 -0.309 -0.734 -0.395 c -0.07 -0.098 -0.117 -0.473 -0.117 -0.953 v -0.793 l 0.695 -0.727 c 0.703 -0.734 1.395 -1.121 1.855 -1.043 c 0.32 0.055 0.219 0.238 -0.168 0.297 c -0.199 0.031 -0.52 0.16 -0.711 0.293 c -0.512 0.348 -1.387 1.449 -1.387 1.746 c 0 0.172 0.191 0.461 0.594 0.902 c 0.586 0.645 0.684 0.699 1.836 1.047 c 0.094 0.027 0.117 0.313 0.098 1.152 l -0.027 1.113 l -1.227 0.063 l 0.262 -0.301 m -4.27 -0.422 c -0.254 -0.078 -0.336 -0.301 -0.246 -0.684 c 0.043 -0.184 0.191 -0.289 0.637 -0.457 c 0.32 -0.117 0.598 -0.199 0.613 -0.18 c 0.07 0.074 -0.184 1.262 -0.285 1.332 c -0.129 0.09 -0.398 0.086 -0.719 -0.012 m 2.867 0.02 c -0.098 -0.078 -0.355 -1.27 -0.293 -1.34 c 0.02 -0.02 0.293 0.063 0.609 0.18 c 0.465 0.172 0.59 0.266 0.668 0.508 c 0.066 0.207 0.063 0.34 -0.016 0.453 c -0.125 0.184 -0.813 0.32 -0.969 0.199 m -5.48 -2.258 c -0.941 -0.516 -1.75 -1.457 -1.457 -1.703 c 0.031 -0.031 0.188 -0.324 0.344 -0.656 c 0.395 -0.848 1.285 -1.723 1.75 -1.723 c 0.191 0 0.07 0.188 -0.199 0.309 c -0.422 0.191 -1.09 1.066 -1.313 1.715 c -0.105 0.313 -0.191 0.605 -0.191 0.652 c 0 0.23 0.816 1.063 1.277 1.301 c 0.281 0.148 0.516 0.293 0.516 0.316 c 0 0.113 -0.277 0.035 -0.727 -0.211 m 8.176 0.191 c 0 -0.047 0.191 -0.172 0.426 -0.277 c 0.387 -0.172 1.273 -1.09 1.273 -1.316 c 0 -0.047 -0.09 -0.344 -0.195 -0.656 c -0.219 -0.648 -0.891 -1.523 -1.313 -1.715 c -0.359 -0.16 -0.379 -0.359 -0.027 -0.262 c 0.555 0.152 1.199 0.84 1.602 1.711 c 0.145 0.313 0.289 0.59 0.324 0.621 c 0.191 0.16 0.078 0.418 -0.363 0.852 c -0.688 0.668 -1.727 1.297 -1.727 1.043 m -7.211 -0.441 c -0.066 -0.113 0 -0.16 0.348 -0.25 c 0.262 -0.07 0.922 -0.637 0.922 -0.793 c 0 -0.152 -0.484 -0.723 -0.613 -0.723 c -0.066 0 -0.215 0.172 -0.328 0.379 c -0.266 0.5 -0.398 0.34 -0.363 -0.441 l 0.031 -0.609 l 0.316 0.016 c 0.344 0.02 0.867 0.492 1.176 1.066 l 0.164 0.309 l -0.336 0.406 c -0.469 0.57 -1.168 0.91 -1.316 0.641 m 6.223 -0.07 c -0.441 -0.258 -0.898 -0.781 -0.898 -1.027 c 0 -0.289 0.668 -1.117 1.035 -1.285 c 0.461 -0.211 0.57 -0.094 0.57 0.609 c 0 0.34 -0.043 0.645 -0.098 0.68 c -0.051 0.035 -0.18 -0.102 -0.289 -0.305 c -0.109 -0.199 -0.254 -0.367 -0.324 -0.367 c -0.121 0 -0.609 0.57 -0.609 0.715 c 0 0.156 0.555 0.652 0.863 0.77 c 0.176 0.066 0.34 0.168 0.363 0.223 c 0.074 0.172 -0.313 0.164 -0.617 -0.012 m -6.918 -0.633 c -0.172 -0.09 -0.379 -0.273 -0.457 -0.406 c -0.133 -0.223 -0.125 -0.285 0.105 -0.801 c 0.242 -0.539 0.656 -0.977 0.754 -0.801 c 0.027 0.051 -0.047 0.191 -0.172 0.316 c -0.121 0.125 -0.297 0.418 -0.391 0.648 l -0.176 0.418 l 0.359 0.359 c 0.195 0.199 0.34 0.375 0.324 0.395 c -0.02 0.023 -0.176 -0.035 -0.348 -0.129 m 7.91 0.125 c 0 -0.023 0.156 -0.199 0.344 -0.391 c 0.328 -0.332 0.34 -0.359 0.234 -0.707 c -0.063 -0.203 -0.234 -0.496 -0.387 -0.656 c -0.316 -0.332 -0.293 -0.543 0.035 -0.309 c 0.234 0.168 0.719 1.059 0.719 1.324 c 0 0.09 -0.141 0.273 -0.309 0.41 c -0.305 0.246 -0.637 0.418 -0.637 0.328 m -4.246 -1.918 c 0 -0.254 0.223 -0.219 0.27 0.043 c 0.016 0.102 -0.031 0.172 -0.121 0.172 c -0.086 0 -0.148 -0.09 -0.148 -0.215 m 0.711 0.109 c -0.07 -0.121 0.02 -0.309 0.145 -0.309 c 0.051 0 0.09 0.094 0.09 0.207 c 0 0.219 -0.137 0.277 -0.234 0.102 m -0.406 -1.316 c -0.125 -0.664 -0.574 -1.77 -0.922 -2.27 c -0.129 -0.184 -0.23 -0.355 -0.23 -0.387 c 0 -0.035 0.594 -0.059 1.32 -0.059 c 0.727 0 1.32 0.023 1.32 0.051 c 0 0.027 -0.125 0.242 -0.273 0.469 c -0.34 0.516 -0.828 1.777 -0.914 2.359 c -0.035 0.234 -0.09 0.43 -0.125 0.43 c -0.035 0 -0.113 -0.27 -0.176 -0.594 m -1.387 0 c -0.313 -0.145 -0.863 -0.316 -1.227 -0.383 l -0.66 -0.125 v -2.156 l 0.777 -0.031 c 0.637 -0.023 0.777 0 0.777 0.125 c 0 0.082 -0.043 0.18 -0.094 0.215 c -0.051 0.035 -0.137 0.156 -0.191 0.266 c -0.086 0.172 -0.027 0.289 0.363 0.746 c 0.535 0.621 0.961 1.281 0.961 1.484 c 0 0.18 -0.023 0.176 -0.707 -0.141 m 2.406 0.152 c 0 -0.227 0.426 -0.887 0.961 -1.488 l 0.477 -0.535 l -0.199 -0.359 c -0.113 -0.195 -0.203 -0.387 -0.203 -0.426 c 0 -0.039 0.352 -0.055 0.777 -0.039 l 0.781 0.031 v 2.156 l -0.66 0.125 c -0.57 0.109 -0.992 0.254 -1.77 0.613 c -0.113 0.051 -0.164 0.027 -0.164 -0.078" fill="#86c137"/><path d="m 4.582 12.426 c -0.035 -0.039 -0.063 -0.574 -0.063 -1.191 v -1.121 h 0.285 c 0.621 0 2.031 -1.125 2.215 -1.766 c 0.148 -0.508 -1.355 -2.074 -2.129 -2.215 c -0.203 -0.039 -0.371 -0.117 -0.371 -0.176 c 0 -0.141 0.594 -0.02 1.105 0.23 c 0.223 0.105 0.676 0.488 1.016 0.848 l 0.613 0.656 v 0.734 c 0 0.887 -0.117 1.078 -0.82 1.324 c -0.602 0.211 -1.07 0.547 -1.234 0.887 c -0.164 0.34 -0.098 1.281 0.105 1.527 c 0.086 0.105 0.156 0.223 0.156 0.262 c 0 0.09 -0.797 0.09 -0.879 0 m 2.941 0.02 c -0.023 -0.027 0.031 -0.461 0.121 -0.957 c 0.094 -0.5 0.172 -1.012 0.172 -1.141 c 0.004 -0.129 0.039 -0.234 0.078 -0.234 c 0.086 0 0.48 2.254 0.41 2.332 c -0.059 0.063 -0.723 0.063 -0.781 0 m 2.844 -0.02 c 0 -0.039 0.07 -0.156 0.156 -0.262 c 0.203 -0.246 0.27 -1.191 0.105 -1.523 c -0.172 -0.355 -0.52 -0.609 -1.211 -0.883 c -0.727 -0.285 -0.84 -0.473 -0.84 -1.398 l -0.004 -0.668 l 0.613 -0.656 c 0.34 -0.363 0.797 -0.742 1.016 -0.852 c 0.508 -0.242 1.105 -0.367 1.105 -0.23 c 0 0.059 -0.156 0.137 -0.352 0.172 c -0.648 0.129 -1.691 1.078 -2.09 1.902 c -0.098 0.195 -0.09 0.285 0.035 0.496 c 0.473 0.793 1.539 1.59 2.121 1.59 h 0.285 v 2.379 h -0.469 c -0.262 0 -0.473 -0.031 -0.473 -0.066 m -4.41 -0.723 c -0.172 -0.078 -0.145 -0.5 0.047 -0.734 c 0.168 -0.207 0.941 -0.504 1.039 -0.398 c 0.027 0.031 0.012 0.301 -0.035 0.602 l -0.082 0.547 l -0.426 0.02 c -0.234 0.012 -0.477 -0.004 -0.543 -0.035 m 2.961 -0.016 c -0.09 -0.156 -0.18 -1.16 -0.105 -1.16 c 0.199 0 0.867 0.262 1.012 0.398 c 0.207 0.191 0.219 0.695 0.016 0.781 c -0.215 0.09 -0.867 0.078 -0.922 -0.02 m -5.398 -2.195 c -0.305 -0.168 -0.781 -0.543 -1.051 -0.832 c -0.484 -0.512 -0.57 -0.664 -0.426 -0.734 c 0.039 -0.02 0.199 -0.313 0.352 -0.656 c 0.328 -0.723 1.01 -1.516 1.441 -1.684 c 0.43 -0.164 0.375 -0.02 -0.117 0.305 c -0.484 0.324 -1.027 1.164 -1.191 1.855 c -0.109 0.457 -0.105 0.492 0.16 0.871 c 0.301 0.434 1.016 0.98 1.285 0.98 c 0.094 0 0.168 0.047 0.168 0.102 c 0 0.145 0.008 0.145 -0.621 -0.203 m 8.168 0.266 c 0 -0.02 0.234 -0.16 0.52 -0.316 c 0.559 -0.297 1.18 -1.023 1.18 -1.375 c 0 -0.613 -0.742 -1.855 -1.32 -2.219 c -0.457 -0.285 -0.496 -0.426 -0.07 -0.266 c 0.43 0.164 1.203 1.074 1.484 1.742 c 0.129 0.309 0.289 0.625 0.355 0.699 c 0.121 0.141 0.066 0.371 -0.063 0.281 c -0.043 -0.027 -0.242 0.141 -0.441 0.371 c -0.203 0.23 -0.539 0.527 -0.75 0.66 c -0.383 0.25 -0.895 0.488 -0.895 0.422 m -7.168 -0.523 c 0 -0.09 0.082 -0.16 0.195 -0.16 c 0.398 0 1.031 -0.52 1.031 -0.852 c 0 -0.266 -0.516 -0.816 -0.691 -0.742 c -0.078 0.031 -0.191 0.195 -0.254 0.363 c -0.184 0.48 -0.281 0.352 -0.281 -0.371 c 0 -0.738 0.027 -0.766 0.535 -0.504 c 0.316 0.168 0.973 0.988 0.973 1.219 c 0 0.152 -0.465 0.707 -0.758 0.914 c -0.367 0.25 -0.75 0.32 -0.75 0.133 m 6.375 0.043 c -0.297 -0.098 -1.094 -0.891 -1.094 -1.086 c 0 -0.234 0.656 -1.055 0.977 -1.223 c 0.508 -0.262 0.535 -0.238 0.531 0.531 c -0.004 0.676 -0.008 0.691 -0.168 0.477 c -0.086 -0.121 -0.203 -0.305 -0.258 -0.402 c -0.125 -0.23 -0.406 -0.09 -0.652 0.32 c -0.133 0.219 -0.145 0.328 -0.063 0.523 c 0.121 0.293 0.637 0.656 0.93 0.656 c 0.125 0 0.211 0.066 0.211 0.156 c 0 0.172 -0.023 0.176 -0.414 0.047 m -7.297 -0.883 c -0.168 -0.145 -0.305 -0.355 -0.305 -0.469 c 0 -0.398 0.551 -1.332 0.789 -1.332 c 0.051 0 0.004 0.105 -0.102 0.23 c -0.25 0.305 -0.5 0.844 -0.5 1.09 c 0 0.199 0.316 0.574 0.566 0.676 c 0.125 0.051 0.125 0.059 0 0.063 c -0.078 0.004 -0.277 -0.113 -0.449 -0.258 m 8.184 0.195 c 0.254 -0.102 0.566 -0.477 0.566 -0.676 c 0 -0.246 -0.246 -0.785 -0.5 -1.09 c -0.105 -0.125 -0.145 -0.23 -0.09 -0.23 c 0.184 0 0.68 0.758 0.746 1.129 c 0.051 0.309 0.023 0.391 -0.238 0.648 c -0.164 0.16 -0.371 0.289 -0.461 0.281 c -0.129 -0.004 -0.137 -0.02 -0.023 -0.063 m -4.297 -1.695 c -0.035 -0.063 -0.016 -0.164 0.043 -0.227 c 0.078 -0.086 0.105 -0.055 0.105 0.113 c 0 0.246 -0.051 0.285 -0.148 0.113 m 0.715 -0.094 c 0 -0.195 0.023 -0.223 0.113 -0.125 c 0.086 0.098 0.086 0.152 0 0.25 c -0.09 0.094 -0.113 0.066 -0.113 -0.125 m -0.379 -1.031 c 0 -0.344 -0.438 -1.539 -0.793 -2.176 c -0.188 -0.328 -0.34 -0.629 -0.34 -0.664 c 0 -0.035 0.551 -0.063 1.227 -0.063 c 0.762 0 1.227 0.039 1.227 0.105 c 0 0.059 -0.121 0.289 -0.273 0.52 c -0.305 0.461 -0.715 1.516 -0.813 2.098 c -0.07 0.402 -0.234 0.527 -0.234 0.18 m -1.211 -0.121 c -0.465 -0.219 -1.207 -0.453 -1.738 -0.551 l -0.359 -0.066 l 0.055 -2.109 l 0.602 -0.031 c 0.836 -0.043 0.922 0.004 0.68 0.383 c -0.109 0.164 -0.195 0.34 -0.195 0.387 c 0 0.051 0.234 0.367 0.523 0.703 c 0.461 0.539 0.961 1.367 0.871 1.453 c -0.016 0.016 -0.215 -0.063 -0.438 -0.168 m 2.355 -0.301 c 0.117 -0.23 0.438 -0.68 0.715 -0.996 c 0.273 -0.32 0.5 -0.625 0.5 -0.68 c 0 -0.055 -0.086 -0.227 -0.188 -0.387 c -0.102 -0.156 -0.16 -0.313 -0.125 -0.352 c 0.031 -0.035 0.371 -0.066 0.75 -0.066 h 0.691 v 2.164 l -0.352 0.063 c -0.195 0.031 -0.742 0.195 -1.219 0.363 c -0.477 0.172 -0.891 0.309 -0.926 0.309 c -0.035 0 0.035 -0.188 0.152 -0.418" fill="#80be30"/><path d="m 4.52 11.316 v -1.074 l 0.348 -0.074 c 0.191 -0.039 0.547 -0.18 0.789 -0.313 c 0.535 -0.301 1.41 -1.32 1.41 -1.648 c 0 -0.273 -0.973 -1.484 -1.457 -1.813 c -0.18 -0.121 -0.504 -0.258 -0.73 -0.309 c -0.398 -0.086 -0.402 -0.086 -0.074 -0.094 c 0.5 -0.016 1.078 0.328 1.75 1.035 l 0.605 0.637 v 1.738 l -0.305 0.133 c -0.168 0.074 -0.512 0.215 -0.762 0.316 c -0.25 0.102 -0.563 0.281 -0.688 0.406 c -0.434 0.41 -0.5 1.469 -0.117 1.918 l 0.184 0.215 h -0.953 m 3.051 -0.234 c 0.027 -0.125 0.102 -0.594 0.168 -1.031 c 0.066 -0.441 0.145 -0.805 0.176 -0.805 c 0.031 0 0.109 0.316 0.168 0.699 c 0.063 0.383 0.137 0.852 0.172 1.035 l 0.063 0.336 h -0.398 c -0.367 0 -0.395 -0.02 -0.348 -0.234 m 2.977 0.016 c 0.406 -0.477 0.305 -1.578 -0.18 -1.973 c -0.133 -0.105 -0.555 -0.32 -0.945 -0.48 l -0.703 -0.285 l -0.027 -0.879 l -0.027 -0.883 l 0.609 -0.645 c 0.676 -0.707 1.254 -1.051 1.754 -1.035 c 0.328 0.008 0.324 0.008 -0.074 0.094 c -0.227 0.051 -0.555 0.188 -0.73 0.309 c -0.484 0.328 -1.457 1.539 -1.457 1.813 c 0 0.324 0.82 1.285 1.383 1.617 c 0.25 0.152 0.613 0.305 0.809 0.344 l 0.355 0.074 v 2.148 h -0.953 m -4.371 -0.758 c -0.141 -0.113 -0.156 -0.195 -0.086 -0.434 c 0.074 -0.23 0.195 -0.328 0.605 -0.477 c 0.281 -0.105 0.527 -0.191 0.543 -0.191 c 0.016 0 0.008 0.137 -0.023 0.309 c -0.031 0.168 -0.078 0.449 -0.109 0.621 c -0.051 0.277 -0.09 0.309 -0.406 0.309 c -0.195 0 -0.43 -0.063 -0.523 -0.137 m 2.883 -0.449 c -0.059 -0.32 -0.094 -0.598 -0.082 -0.613 c 0.016 -0.016 0.258 0.055 0.539 0.156 c 0.41 0.145 0.527 0.242 0.602 0.473 c 0.109 0.371 -0.102 0.57 -0.605 0.57 c -0.344 0 -0.344 0 -0.453 -0.586 m -4.16 -1.992 c 0.477 -0.16 0.848 -0.434 0.988 -0.73 c 0.137 -0.293 0.133 -0.316 -0.152 -0.668 c -0.359 -0.453 -0.59 -0.469 -0.746 -0.055 c -0.195 0.52 -0.281 0.457 -0.281 -0.203 c 0 -0.598 0.012 -0.629 0.238 -0.629 c 0.266 0 0.855 0.543 1.109 1.02 c 0.164 0.313 0.164 0.316 -0.117 0.672 c -0.305 0.379 -0.816 0.695 -1.102 0.68 c -0.125 -0.004 -0.109 -0.031 0.063 -0.086 m 5.965 -0.074 c -0.172 -0.094 -0.438 -0.328 -0.594 -0.523 c -0.281 -0.352 -0.281 -0.355 -0.117 -0.668 c 0.254 -0.477 0.844 -1.02 1.109 -1.02 c 0.227 0 0.238 0.027 0.238 0.629 c 0 0.66 -0.086 0.723 -0.281 0.203 c -0.148 -0.387 -0.336 -0.395 -0.68 -0.035 c -0.406 0.426 -0.352 0.824 0.168 1.176 c 0.18 0.121 0.438 0.258 0.582 0.305 c 0.191 0.063 0.207 0.086 0.07 0.094 c -0.105 0.004 -0.328 -0.07 -0.496 -0.16 m -8.262 -0.535 c -0.328 -0.375 -0.316 -0.629 0.047 -1.383 c 0.289 -0.59 1.113 -1.535 1.34 -1.531 c 0.059 0 -0.027 0.098 -0.195 0.215 c -0.293 0.207 -0.824 1 -1.047 1.574 c -0.168 0.426 -0.137 0.836 0.082 1.145 c 0.262 0.363 0.098 0.348 -0.223 -0.02 m 10.688 0.273 c 0 -0.043 0.086 -0.234 0.191 -0.43 l 0.191 -0.355 l -0.195 -0.543 c -0.25 -0.691 -0.707 -1.391 -1.078 -1.652 c -0.16 -0.113 -0.242 -0.207 -0.184 -0.207 c 0.258 -0.004 1.063 0.957 1.367 1.629 c 0.176 0.383 0.352 0.715 0.391 0.73 c 0.039 0.02 0.07 0.086 0.07 0.148 c 0 0.063 -0.027 0.086 -0.055 0.051 c -0.031 -0.031 -0.199 0.113 -0.375 0.32 c -0.176 0.207 -0.32 0.348 -0.324 0.309 m -9.813 -0.867 c 0 -0.172 0.352 -0.977 0.43 -0.977 c 0.027 0 -0.016 0.137 -0.098 0.305 c -0.078 0.168 -0.141 0.426 -0.141 0.57 c 0 0.145 -0.043 0.262 -0.098 0.262 c -0.051 0 -0.094 -0.07 -0.094 -0.16 m 9.08 -0.02 c 0.004 -0.102 -0.02 -0.297 -0.059 -0.441 l -0.066 -0.258 l 0.141 0.258 c 0.164 0.293 0.195 0.621 0.063 0.621 c -0.051 0 -0.086 -0.082 -0.078 -0.18 m -5.965 -2.465 c -0.285 -0.133 -0.824 -0.297 -1.203 -0.367 l -0.684 -0.133 v -2.027 h 0.707 c 0.707 0 0.832 0.07 0.566 0.313 c -0.25 0.227 -0.156 0.559 0.293 1.035 c 0.395 0.426 0.957 1.309 0.875 1.383 c -0.02 0.02 -0.27 -0.074 -0.555 -0.203 m 1.387 -0.02 c -0.102 -0.551 -0.441 -1.426 -0.766 -1.965 l -0.328 -0.543 h 2.437 l -0.297 0.477 c -0.309 0.504 -0.82 1.828 -0.828 2.137 c -0.004 0.285 -0.16 0.211 -0.219 -0.105 m 1.066 0.203 c 0 -0.168 0.555 -1.01 0.938 -1.414 c 0.418 -0.445 0.465 -0.652 0.23 -1.043 l -0.152 -0.254 h 1.438 v 2.07 l -0.262 0.004 c -0.324 0.008 -1.367 0.32 -1.84 0.551 c -0.191 0.094 -0.352 0.133 -0.352 0.086" fill="#75b71c"/></svg>