<svg xmlns="http://www.w3.org/2000/svg" viewBox="0 0 16 16"><g fill="#ff4500"><path d="m 5.5 5.578 c 0 0.762 0.617 1.383 1.371 1.383 c 0.758 0 1.371 -0.621 1.371 -1.383 c 0 -0.766 -0.613 -1.383 -1.371 -1.383 c -0.754 0 -1.371 0.617 -1.371 1.383"/><path d="m 5.34 10.434 c 0 0.766 0.613 1.383 1.371 1.383 c 0.758 0 1.371 -0.621 1.371 -1.383 c 0 -0.766 -0.613 -1.383 -1.371 -1.383 c -0.758 0 -1.371 0.621 -1.371 1.383"/><path d="m 10.598 7.777 c 0 0.762 0.613 1.383 1.371 1.383 c 0.758 0 1.371 -0.621 1.371 -1.383 c 0 -0.766 -0.613 -1.383 -1.371 -1.383 c -0.758 0 -1.371 0.617 -1.371 1.383"/></g><path d="m 14.391 3.32 c 7.895 11.883 -17.281 19.2 -13.949 3.84 c 1.422 -6.348 10.328 -10.199 13.949 -3.84" fill="#4b0081"/><g fill="#fff" fill-rule="evenodd"><path d="m 4.98 11.91 c -0.238 0.211 -0.598 0.359 -0.762 0.309 c -0.238 -0.074 -0.641 -0.398 -0.59 -0.477 c 0.023 -0.039 0.008 -0.07 -0.035 -0.07 c -0.043 0 -0.078 -0.098 -0.078 -0.219 c 0 -0.121 0.031 -0.219 0.074 -0.219 c 0.039 0 0.07 -0.055 0.07 -0.125 c 0 -0.109 1.133 -1.344 1.238 -1.344 c 0.074 0 0.91 -0.875 0.875 -0.914 c -0.02 -0.02 0.012 -0.039 0.074 -0.039 c 0.117 0 0.637 -0.535 0.637 -0.656 c 0 -0.066 -0.652 -0.555 -0.727 -0.539 c -0.02 0.004 -0.098 -0.023 -0.18 -0.059 c -0.105 -0.051 -0.074 -0.059 0.125 -0.035 c 0.148 0.02 0.465 0.129 0.699 0.242 l 0.43 0.211 l 0.387 -0.371 c 0.211 -0.203 0.375 -0.395 0.367 -0.426 c -0.012 -0.031 0.063 -0.086 0.164 -0.125 c 0.098 -0.039 0.18 -0.105 0.18 -0.145 c 0 -0.043 0.098 -0.137 0.219 -0.211 c 0.117 -0.074 0.203 -0.148 0.184 -0.164 c -0.016 -0.02 0.004 -0.191 0.047 -0.391 c 0.043 -0.211 0.098 -0.32 0.129 -0.266 c 0.082 0.133 0.152 -0.168 0.191 -0.852 c 0.035 -0.582 0.031 -0.609 -0.191 -0.918 l -0.227 -0.316 l 0.906 -0.074 l 0.215 0.465 c 0.039 0.082 0.398 -0.445 0.48 -0.445 c 0.762 -0.012 0.855 0.043 0.93 0.117 c 0.141 0.145 0.074 0.223 -0.328 0.375 c -0.703 0.25 -0.414 0.508 -0.723 0.77 c 0.004 -0.23 0.098 0.738 0.582 0.633 l 0.59 -0.125 l 0.383 -0.039 c 0.426 -0.043 0.414 -0.102 0.098 0.578 c -0.148 0.324 -0.574 0.715 -0.777 0.715 c -0.047 0 -0.176 0.051 -0.289 0.109 c -0.117 0.059 -0.277 0.109 -0.363 0.109 c -0.086 0 -0.34 0.086 -0.566 0.188 c -0.43 0.191 -1.199 0.922 -1.637 1.551 c -0.117 0.172 -0.273 0.352 -0.34 0.402 c -0.07 0.055 -0.242 0.246 -0.379 0.426 c -0.137 0.184 -0.355 0.43 -0.484 0.551 c -0.129 0.121 -0.309 0.324 -0.398 0.457 c -0.094 0.129 -0.324 0.418 -0.52 0.641 c -0.176 0.281 -0.43 0.5 -0.68 0.715 m -0.234 -0.199 c 0.336 -0.363 0.051 -0.746 -0.473 -0.641 c -0.18 0.035 -0.27 -0.055 -0.359 0.207 c -0.105 0.316 -0.043 0.383 0.148 0.527 c 0.273 0.207 0.477 0.129 0.684 -0.094 m 3.055 -3.438 c 0.043 -0.078 0.043 -0.117 0.004 -0.094 c -0.086 0.055 -0.27 -0.492 -0.203 -0.605 c 0.129 -0.211 -0.113 -0.039 -0.469 0.332 c -0.262 0.273 -0.344 0.398 -0.242 0.367 c 0.109 -0.035 0.207 0.008 0.359 0.156 c 0.191 0.188 0.223 0.195 0.344 0.094 c 0.074 -0.059 0.168 -0.172 0.207 -0.25"/><path d="m 6.25 12.242 c 0.172 -0.152 0.305 -0.305 0.293 -0.34 c -0.012 -0.031 0.012 -0.055 0.051 -0.055 c 0.039 0 0.094 -0.086 0.117 -0.191 c 0.027 -0.105 0.102 -0.188 0.16 -0.188 c 0.07 -0.336 0.504 -1.164 0.48 -1.305 c -0.035 -0.141 0.043 -0.262 0.355 -0.578 c 0.219 -0.219 0.426 -0.398 0.461 -0.398 c 0.035 0 0.09 0.121 0.117 0.27 c 0.066 0.332 0.352 0.539 0.586 0.418 c 0.086 -0.043 0.141 -0.129 0.117 -0.188 c -0.023 -0.055 0.031 -0.172 0.125 -0.254 c 0.09 -0.082 0.18 -0.23 0.199 -0.328 c 0.02 -0.102 0.145 -0.473 0.277 -0.824 c 0.133 -0.352 0.227 -0.699 0.207 -0.77 c -0.043 -0.156 0.27 -0.34 0.453 -0.27 c 0.07 0.027 0.266 -0.02 0.438 -0.105 c 0.168 -0.082 0.387 -0.148 0.484 -0.148 c 0.098 0 0.297 -0.07 0.438 -0.152 c 0.141 -0.086 0.289 -0.152 0.332 -0.152 c 0.117 0 0.094 0.566 -0.047 1.09 c -0.168 0.637 -0.816 1.926 -1.141 2.262 c -0.145 0.148 -0.398 0.434 -0.563 0.625 c -0.164 0.191 -0.344 0.352 -0.398 0.352 c -0.055 0 -0.188 0.09 -0.293 0.199 c -0.258 0.266 -0.688 0.543 -1.5 0.965 c -0.664 0.348 -0.699 0.355 -1.375 0.352 h -0.691"/></g></svg>