<svg xmlns="http://www.w3.org/2000/svg" viewBox="0 0 16 16"><path d="m 8.05 15.941 c -10.637 1.203 -10.488 -16.06 0.191 -15.852 c 9.93 -0.57 10.824 16.789 -0.191 15.852" fill="#2f4e4e"/><path d="m 4.723 13.02 c 0 -0.016 0.02 -0.051 0.047 -0.074 c 0.102 -0.098 -0.02 -0.121 -0.668 -0.121 c -0.801 0 -0.785 0.008 -0.785 -0.434 c 0 -0.262 -0.016 -0.324 -0.145 -0.57 c -0.125 -0.246 -0.137 -0.297 -0.125 -0.512 c 0.012 -0.164 0.051 -0.305 0.133 -0.461 l 0.117 -0.223 l 0.008 -3.359 l 0.012 -3.363 l 0.098 -0.086 l 0.102 -0.082 c 1.719 0 3.434 0 5.152 0 l 0.152 -0.102 c 0.168 -0.113 0.484 -0.176 0.855 -0.168 c 0.422 0.008 0.559 0.039 0.68 0.156 l 0.113 0.109 c 0.738 0.008 1.473 0.012 2.211 0.02 l 0.074 0.09 c 0.066 0.078 0.074 0.152 0.074 0.641 c 0 0.465 0.012 0.594 0.082 0.777 c 0.086 0.238 0.078 0.395 -0.027 0.746 c -0.047 0.152 -0.055 0.723 -0.055 3.426 c 0 3.191 0 3.246 -0.078 3.32 c -2.723 0.074 -3.828 0.074 -7.504 0.074 c -0.105 0.117 -0.242 0.223 -0.371 0.223 c -0.082 0 -0.152 -0.012 -0.152 -0.027 m 6.355 -2.867 c -0.023 -0.023 -0.078 -0.031 -0.117 -0.016 c -0.066 0.023 -0.066 0.027 0.004 0.078 c 0.09 0.063 0.188 0.008 0.113 -0.063 m 0.262 -0.051 c 0 -0.031 -0.027 -0.059 -0.059 -0.059 c -0.059 0 -0.078 0.047 -0.031 0.09 c 0.043 0.043 0.09 0.027 0.09 -0.031" fill="#ddac95"/><path d="m 4.762 13.03 c 0 -0.012 0.031 -0.043 0.07 -0.07 c 0.055 -0.039 0.059 -0.059 0.02 -0.098 c -0.039 -0.039 -0.234 -0.055 -0.727 -0.063 c -0.367 -0.008 -0.691 -0.027 -0.715 -0.047 c -0.027 -0.02 -0.055 -0.195 -0.063 -0.402 c -0.02 -0.324 -0.035 -0.391 -0.145 -0.574 c -0.066 -0.117 -0.133 -0.285 -0.145 -0.375 c -0.023 -0.145 -0.004 -0.203 0.125 -0.43 l 0.148 -0.266 l 0.012 -3.398 c 0.012 -2.309 0.027 -3.414 0.059 -3.445 c 0.031 -0.039 0.563 -0.047 2.512 -0.047 c 1.547 -0.004 2.535 -0.016 2.648 -0.043 c 0.094 -0.02 0.238 -0.078 0.316 -0.129 c 0.082 -0.055 0.246 -0.113 0.391 -0.137 c 0.281 -0.043 0.258 -0.043 0.523 -0.016 c 0.109 0.012 0.238 0.02 0.285 0.02 c 0.047 0.004 0.156 0.063 0.246 0.141 l 0.156 0.133 l 1.086 0.02 c 0.898 0.016 1.098 0.031 1.152 0.078 c 0.063 0.051 0.07 0.129 0.07 0.605 c 0 0.441 0.016 0.594 0.078 0.785 c 0.082 0.254 0.078 0.391 -0.023 0.738 c -0.043 0.152 -0.055 0.766 -0.055 3.422 c 0 3.086 -0.004 3.238 -0.07 3.297 c -0.066 0.059 -0.383 0.063 -3.738 0.063 c -2.398 0 -3.699 0.016 -3.77 0.039 c -0.059 0.023 -0.137 0.082 -0.18 0.133 c -0.07 0.082 -0.266 0.133 -0.266 0.066 m 1.559 -0.984 c 0.078 -0.059 0.309 -0.211 0.508 -0.34 c 0.375 -0.238 0.418 -0.289 0.539 -0.66 c 0.023 -0.074 0.137 -0.184 0.332 -0.324 c 0.352 -0.254 0.547 -0.484 0.543 -0.648 c 0 -0.066 -0.047 -0.219 -0.102 -0.34 c -0.055 -0.125 -0.117 -0.285 -0.137 -0.359 c -0.023 -0.07 -0.055 -0.145 -0.074 -0.164 c -0.016 -0.016 -0.105 0.117 -0.191 0.297 c -0.191 0.379 -0.441 0.77 -0.461 0.711 c -0.008 -0.02 0.02 -0.137 0.063 -0.254 c 0.184 -0.508 -0.242 -0.18 -0.594 0.457 c -0.105 0.191 -0.191 0.297 -0.305 0.363 c -0.086 0.051 -0.156 0.098 -0.156 0.102 c 0 0.008 -0.016 0.172 -0.035 0.367 c -0.027 0.305 -0.09 0.535 -0.219 0.836 c -0.043 0.105 0.125 0.082 0.289 -0.043 m -2.773 -0.789 c 0 -0.043 -0.09 -0.117 -0.145 -0.117 c -0.027 0 -0.051 0.039 -0.051 0.09 c 0 0.074 0.016 0.086 0.098 0.07 c 0.055 -0.012 0.098 -0.031 0.098 -0.043 m 8.02 -0.363 c 0 -0.051 -0.125 -0.449 -0.152 -0.477 c -0.012 -0.012 -0.129 0.004 -0.258 0.039 l -0.23 0.066 l 0.293 0.195 c 0.277 0.188 0.348 0.223 0.348 0.176 m -0.398 -0.598 c 0.18 -0.043 0.246 -0.145 0.195 -0.297 c -0.078 -0.223 -0.188 -0.27 -0.188 -0.078 c 0 0.137 -0.094 0.152 -0.285 0.043 c -0.133 -0.074 -0.18 -0.133 -0.238 -0.285 c -0.039 -0.105 -0.09 -0.203 -0.109 -0.215 c -0.02 -0.012 -0.113 -0.133 -0.207 -0.273 c -0.184 -0.27 -0.434 -0.523 -0.477 -0.48 c -0.016 0.016 0.008 0.133 0.055 0.262 c 0.047 0.137 0.066 0.25 0.047 0.27 c -0.051 0.051 -0.191 -0.086 -0.273 -0.262 c -0.039 -0.082 -0.121 -0.207 -0.188 -0.281 c -0.117 -0.129 -0.117 -0.129 -0.199 -0.059 c -0.098 0.082 -0.277 0.449 -0.277 0.559 c 0 0.16 0.199 0.359 0.582 0.582 c 0.477 0.281 0.695 0.383 0.828 0.383 c 0.055 0 0.141 0.039 0.184 0.086 c 0.09 0.09 0.297 0.109 0.551 0.047 m -4.547 -0.469 c 0.727 -0.328 1.262 -0.855 1.379 -1.352 c 0.027 -0.121 0.023 -0.16 -0.02 -0.184 c -0.07 -0.039 -0.129 -0.238 -0.172 -0.594 c -0.02 -0.16 -0.07 -0.344 -0.133 -0.457 c -0.125 -0.234 -0.336 -0.863 -0.336 -0.996 c 0 -0.113 -0.105 -0.227 -0.184 -0.199 c -0.031 0.012 -0.082 0.023 -0.109 0.023 c -0.031 0 -0.141 0.066 -0.25 0.148 c -0.141 0.109 -0.25 0.242 -0.387 0.473 c -0.102 0.18 -0.211 0.336 -0.246 0.348 c -0.031 0.012 -0.16 0.105 -0.285 0.211 c -0.215 0.18 -0.227 0.199 -0.207 0.32 c 0.063 0.348 0.07 0.523 0.027 0.594 c -0.039 0.074 -0.051 0.074 -0.152 0.027 c -0.227 -0.117 -0.32 -0.039 -0.32 0.262 c 0 0.191 0.047 0.301 0.285 0.641 c 0.445 0.641 0.633 0.828 0.828 0.844 c 0.023 0 0.148 -0.047 0.281 -0.109 m -0.816 -0.527 c -0.129 -0.109 -0.129 -0.109 -0.063 -0.223 c 0.066 -0.113 0.066 -0.117 -0.051 -0.227 c -0.176 -0.168 -0.152 -0.211 0.113 -0.203 c 0.125 0 0.27 0.023 0.316 0.047 c 0.082 0.043 0.086 0.051 0.027 0.113 c -0.059 0.063 -0.055 0.07 0.082 0.09 c 0.082 0.016 0.25 0.027 0.375 0.027 c 0.125 0 0.227 0.016 0.227 0.035 c 0 0.023 -0.102 0.133 -0.227 0.246 c -0.219 0.199 -0.227 0.207 -0.449 0.207 c -0.195 0 -0.242 -0.016 -0.352 -0.113 m 0.297 -1.398 c 0.016 -0.129 0.035 -0.281 0.039 -0.34 c 0.008 -0.059 0.02 -0.109 0.027 -0.117 c 0.141 -0.113 0.531 -0.328 0.613 -0.344 c 0.141 -0.023 0.527 0.063 0.547 0.121 c 0.012 0.031 -0.043 0.055 -0.145 0.07 c -0.207 0.035 -0.223 0.066 -0.059 0.141 c 0.18 0.082 0.184 0.215 0.016 0.363 c -0.164 0.152 -0.352 0.203 -0.629 0.172 c -0.219 -0.023 -0.23 -0.02 -0.273 0.07 c -0.027 0.055 -0.074 0.098 -0.105 0.098 c -0.047 0 -0.051 -0.043 -0.031 -0.234 m 5.328 0.676 c 0.063 -0.027 0.23 -0.227 0.43 -0.523 c 0.527 -0.766 0.563 -0.852 0.395 -1.023 c -0.113 -0.117 -0.332 -0.141 -0.332 -0.031 c -0.004 0.105 -0.145 0.301 -0.27 0.363 c -0.09 0.043 -0.109 0.074 -0.094 0.152 c 0.016 0.082 0.004 0.094 -0.094 0.094 h -0.113 l 0.145 0.082 c 0.113 0.063 0.227 0.199 0.227 0.273 c 0 0.004 -0.07 0.055 -0.16 0.113 c -0.156 0.098 -0.164 0.102 -0.41 0.055 c -0.227 -0.043 -0.262 -0.066 -0.426 -0.246 c -0.098 -0.109 -0.176 -0.203 -0.176 -0.215 c 0 -0.023 0.543 -0.078 0.684 -0.07 c 0.102 0.004 0.105 0 0.039 -0.027 c -0.043 -0.02 -0.109 -0.043 -0.148 -0.055 c -0.059 -0.02 -0.07 -0.047 -0.047 -0.121 c 0.016 -0.074 0 -0.121 -0.059 -0.184 c -0.086 -0.09 -0.094 -0.246 -0.016 -0.27 c 0.023 -0.008 0.055 0.023 0.066 0.066 c 0.02 0.074 0.043 0.078 0.184 0.063 c 0.086 -0.012 0.219 -0.004 0.297 0.02 c 0.184 0.055 0.215 0.012 0.164 -0.223 c -0.039 -0.172 -0.031 -0.219 0.043 -0.414 c 0.141 -0.348 0.141 -0.336 0.027 -0.363 c -0.055 -0.016 -0.137 -0.008 -0.184 0.016 c -0.063 0.031 -0.094 0.027 -0.152 -0.02 c -0.102 -0.09 -0.121 -0.023 -0.066 0.223 c 0.039 0.191 0.039 0.227 -0.031 0.352 c -0.055 0.094 -0.109 0.141 -0.176 0.148 c -0.086 0.012 -0.102 -0.004 -0.098 -0.094 c 0 -0.105 -0.004 -0.105 -0.293 -0.125 c -0.309 -0.023 -0.516 -0.102 -0.598 -0.227 c -0.063 -0.094 -0.129 -0.094 -0.203 0.012 c -0.098 0.133 -0.074 0.27 0.098 0.598 c 0.121 0.227 0.156 0.336 0.141 0.414 c -0.035 0.16 -0.141 0.293 -0.238 0.293 c -0.086 0 -0.293 -0.18 -0.371 -0.328 c -0.023 -0.047 -0.063 -0.086 -0.082 -0.086 c -0.086 0 -0.082 0.129 0.004 0.309 c 0.109 0.227 0.672 0.727 0.98 0.879 c 0.305 0.148 0.727 0.203 0.914 0.121 m -3.043 -0.227 c 0.055 -0.063 0.246 -0.578 0.273 -0.734 c 0.023 -0.148 -0.043 -0.234 -0.18 -0.227 c -0.098 0.004 -0.098 0.004 -0.012 0.02 c 0.086 0.016 0.09 0.027 0.063 0.23 c -0.027 0.223 -0.168 0.508 -0.301 0.613 c -0.043 0.031 -0.066 0.078 -0.051 0.102 c 0.035 0.059 0.16 0.055 0.207 -0.004 m -3.828 -1.078 c -0.023 -0.043 -0.047 -0.078 -0.059 -0.078 c -0.012 0 -0.02 0.035 -0.02 0.078 c 0 0.039 0.027 0.074 0.063 0.074 c 0.047 0 0.051 -0.016 0.016 -0.074 m 1.113 -0.738 c 0.012 -0.031 0.023 -0.086 0.023 -0.117 c 0 -0.047 -0.012 -0.047 -0.059 -0.012 c -0.063 0.051 -0.082 0.188 -0.023 0.188 c 0.02 0 0.047 -0.023 0.059 -0.059 m -1.207 -0.605 c 0.051 -0.035 0.105 -0.16 0.066 -0.16 c -0.039 0 -0.168 0.121 -0.168 0.156 c 0 0.039 0.047 0.039 0.102 0.004" fill="#c18b75"/><path d="m 4.762 13.03 c 0 -0.012 0.031 -0.043 0.066 -0.066 c 0.039 -0.027 0.055 -0.074 0.039 -0.109 c -0.02 -0.055 -0.105 -0.063 -0.691 -0.063 c -0.832 0 -0.82 0.008 -0.82 -0.477 c 0 -0.27 -0.016 -0.352 -0.082 -0.441 c -0.246 -0.352 -0.266 -0.625 -0.059 -0.973 l 0.141 -0.242 v -3.34 c 0 -2.961 0.004 -3.348 0.059 -3.422 l 0.063 -0.082 h 2.543 c 2.695 0 2.699 0 2.898 -0.176 c 0.109 -0.094 0.566 -0.168 0.895 -0.141 c 0.336 0.027 0.41 0.055 0.559 0.207 l 0.105 0.109 h 1.09 c 0.797 0 1.102 0.012 1.137 0.043 c 0.031 0.031 0.047 0.207 0.047 0.555 c 0 0.395 0.02 0.578 0.086 0.824 c 0.086 0.332 0.086 0.328 -0.047 0.926 c -0.02 0.082 -0.035 1.582 -0.039 3.332 v 3.18 l -0.086 0.059 c -0.078 0.051 -0.504 0.059 -3.797 0.059 h -3.711 l -0.059 0.09 c -0.078 0.113 -0.332 0.227 -0.332 0.148 m 1.609 -0.98 c 0.137 -0.098 0.367 -0.254 0.512 -0.344 c 0.266 -0.164 0.461 -0.344 0.461 -0.43 c 0 -0.023 0.02 -0.102 0.039 -0.176 c 0.031 -0.109 0.078 -0.156 0.234 -0.238 c 0.211 -0.109 0.551 -0.449 0.668 -0.664 l 0.07 -0.137 l -0.148 -0.352 c -0.082 -0.195 -0.164 -0.426 -0.18 -0.516 c -0.027 -0.18 -0.07 -0.195 -0.203 -0.078 c -0.125 0.117 -0.113 0.023 0.023 -0.191 c 0.063 -0.094 0.141 -0.246 0.18 -0.344 c 0.063 -0.168 0.07 -0.172 0.227 -0.168 l 0.164 0.004 l 0.145 -0.375 c 0.082 -0.207 0.148 -0.418 0.148 -0.469 c 0.004 -0.195 -0.262 -0.305 -0.406 -0.168 c -0.086 0.086 -0.074 0.102 0.059 0.082 c 0.152 -0.02 0.188 0.031 0.082 0.125 c -0.059 0.051 -0.086 0.121 -0.086 0.215 c 0 0.074 -0.035 0.195 -0.082 0.27 c -0.074 0.113 -0.086 0.121 -0.129 0.066 c -0.035 -0.047 -0.059 -0.055 -0.094 -0.02 c -0.066 0.063 -0.082 0.031 -0.125 -0.293 c -0.027 -0.215 -0.078 -0.375 -0.176 -0.563 c -0.172 -0.332 -0.371 -0.895 -0.371 -1.055 c 0 -0.258 -0.254 -0.316 -0.551 -0.133 c -0.234 0.145 -0.406 0.332 -0.473 0.504 c -0.031 0.09 -0.184 0.273 -0.395 0.484 c -0.375 0.371 -0.398 0.426 -0.281 0.688 c 0.031 0.078 0.051 0.184 0.039 0.23 c -0.02 0.078 -0.051 0.086 -0.27 0.098 l -0.242 0.012 l -0.012 0.285 l -0.012 0.281 l 0.203 0.297 c 0.281 0.418 0.648 0.875 0.738 0.918 c 0.102 0.055 0.324 0.051 0.461 -0.008 c 0.059 -0.023 0.223 -0.109 0.363 -0.191 c 0.141 -0.078 0.266 -0.152 0.281 -0.16 c 0.09 -0.051 0 0.074 -0.223 0.316 c -0.148 0.16 -0.27 0.328 -0.293 0.41 c -0.023 0.078 -0.082 0.211 -0.129 0.293 c -0.074 0.121 -0.113 0.148 -0.203 0.152 c -0.145 0 -0.172 0.07 -0.176 0.449 c -0.004 0.324 -0.078 0.633 -0.203 0.844 c -0.078 0.121 -0.078 0.129 -0.012 0.176 c 0.102 0.07 0.102 0.07 0.375 -0.129 m -0.484 -2.754 c -0.082 -0.039 -0.148 -0.094 -0.148 -0.121 c 0 -0.121 0.121 -0.184 0.43 -0.219 c 0.172 -0.02 0.59 0.012 0.59 0.043 c 0 0.051 -0.223 0.152 -0.367 0.172 c -0.07 0.008 -0.176 0.031 -0.242 0.051 l -0.117 0.035 h 0.145 c 0.156 0.004 0.227 0.059 0.125 0.094 c -0.109 0.043 -0.266 0.02 -0.414 -0.055 m -0.137 -0.473 c -0.027 -0.012 -0.051 -0.039 -0.051 -0.066 c 0 -0.063 0.27 -0.098 0.371 -0.047 c 0.07 0.035 0.07 0.035 0 0.086 c -0.07 0.051 -0.227 0.066 -0.32 0.027 m 0.891 -0.969 c -0.105 -0.109 -0.16 -0.121 -0.16 -0.039 c 0 0.066 -0.137 0.074 -0.18 0.008 c -0.02 -0.023 -0.055 -0.105 -0.082 -0.176 c -0.059 -0.16 -0.02 -0.207 0.305 -0.398 c 0.238 -0.137 0.324 -0.152 0.559 -0.09 c 0.176 0.047 0.16 0.094 -0.047 0.125 c -0.176 0.027 -0.242 0.09 -0.133 0.121 c 0.211 0.063 0.324 0.133 0.324 0.199 c 0 0.078 -0.246 0.305 -0.332 0.305 c -0.031 0 -0.078 0.008 -0.109 0.02 c -0.027 0.012 -0.094 -0.023 -0.145 -0.074 m 0.352 -0.172 c 0 -0.02 -0.008 -0.035 -0.02 -0.035 c -0.008 0 -0.027 0.016 -0.039 0.035 c -0.016 0.023 -0.008 0.039 0.016 0.039 c 0.023 0 0.043 -0.016 0.043 -0.039 m -3.445 3.574 c 0 -0.043 -0.09 -0.117 -0.145 -0.117 c -0.027 0 -0.051 0.039 -0.051 0.09 c 0 0.074 0.016 0.086 0.098 0.07 c 0.055 -0.012 0.098 -0.031 0.098 -0.043 m 8.141 -0.254 c 0 -0.012 -0.043 -0.16 -0.098 -0.332 c -0.078 -0.246 -0.117 -0.316 -0.184 -0.332 c -0.07 -0.02 -0.078 -0.031 -0.039 -0.07 c 0.078 -0.074 0.055 -0.309 -0.043 -0.445 c -0.094 -0.137 -0.242 -0.203 -0.199 -0.094 c 0.016 0.031 0.016 0.098 0 0.148 c -0.051 0.191 -0.336 -0.031 -0.418 -0.328 c -0.023 -0.086 -0.109 -0.227 -0.188 -0.313 c -0.078 -0.086 -0.254 -0.289 -0.391 -0.453 c -0.137 -0.164 -0.316 -0.34 -0.398 -0.387 c -0.082 -0.051 -0.172 -0.125 -0.195 -0.172 c -0.023 -0.043 -0.094 -0.105 -0.156 -0.141 l -0.109 -0.063 l -0.059 0.16 c -0.184 0.512 -0.301 0.887 -0.301 0.973 c 0 0.207 0.223 0.406 0.82 0.734 c 0.375 0.207 0.605 0.313 0.688 0.313 c 0.078 0 0.152 0.031 0.215 0.094 c 0.051 0.051 0.129 0.094 0.18 0.094 c 0.063 0 0.082 0.016 0.07 0.066 c -0.016 0.043 0.039 0.102 0.184 0.195 c 0.113 0.074 0.277 0.188 0.363 0.254 c 0.148 0.113 0.258 0.152 0.258 0.098 m -0.605 -0.613 c 0.012 -0.023 0.055 -0.039 0.09 -0.039 c 0.059 0 0.059 0.008 0.008 0.039 c -0.078 0.047 -0.129 0.047 -0.098 0 m 0.363 -1.766 c 0.078 -0.047 0.273 -0.289 0.543 -0.68 c 0.398 -0.57 0.422 -0.613 0.438 -0.824 c 0.02 -0.277 -0.023 -0.344 -0.199 -0.301 c -0.07 0.016 -0.199 0.039 -0.289 0.051 c -0.16 0.016 -0.164 0.016 -0.188 -0.113 c -0.02 -0.105 0 -0.195 0.102 -0.41 c 0.066 -0.152 0.113 -0.289 0.102 -0.301 c -0.016 -0.012 -0.117 -0.023 -0.234 -0.023 c -0.113 -0.004 -0.227 -0.02 -0.254 -0.039 c -0.098 -0.07 -0.207 0.078 -0.207 0.277 c 0 0.199 0 0.203 -0.355 0.242 c -0.254 0.027 -0.453 -0.039 -0.586 -0.199 c -0.105 -0.133 -0.094 -0.195 0.043 -0.25 l 0.121 -0.047 l -0.098 -0.063 c -0.094 -0.059 -0.102 -0.059 -0.219 0.078 c -0.066 0.078 -0.156 0.176 -0.199 0.219 c -0.055 0.051 -0.094 0.172 -0.125 0.398 c -0.051 0.316 -0.055 0.328 -0.234 0.48 c -0.219 0.184 -0.227 0.246 -0.086 0.516 c 0.09 0.176 0.488 0.562 0.82 0.793 c 0.352 0.246 0.863 0.336 1.105 0.195 m -0.328 -0.566 c -0.145 -0.043 -0.48 -0.316 -0.434 -0.359 c 0.016 -0.016 0.164 -0.031 0.332 -0.031 c 0.234 0 0.336 0.016 0.457 0.078 c 0.215 0.105 0.23 0.223 0.043 0.297 c -0.152 0.063 -0.219 0.063 -0.398 0.016 m 0.109 -0.797 c -0.098 -0.055 -0.117 -0.086 -0.078 -0.105 c 0.082 -0.043 0.191 -0.047 0.375 -0.016 c 0.277 0.047 0.27 0.145 -0.012 0.18 c -0.117 0.016 -0.188 0.004 -0.285 -0.059 m -3.02 0.637 c 0 -0.039 -0.016 -0.059 -0.039 -0.047 c -0.02 0.016 -0.039 0.07 -0.035 0.125 c 0 0.082 0.008 0.09 0.035 0.047 c 0.023 -0.031 0.039 -0.086 0.039 -0.125 m -3.01 -0.309 c 0 -0.031 -0.027 -0.055 -0.059 -0.055 c -0.063 0 -0.078 0.043 -0.035 0.086 c 0.047 0.043 0.094 0.027 0.094 -0.031 m -0.629 -0.32 c -0.023 -0.039 -0.047 -0.074 -0.059 -0.074 c -0.012 0 -0.02 0.035 -0.02 0.074 c 0 0.043 0.027 0.078 0.063 0.078 c 0.047 0 0.051 -0.016 0.016 -0.078 m 1.113 -0.734 c 0.012 -0.031 0.023 -0.086 0.023 -0.117 c 0 -0.047 -0.012 -0.051 -0.059 -0.012 c -0.063 0.051 -0.082 0.188 -0.023 0.188 c 0.02 0 0.047 -0.027 0.059 -0.059 m -1.207 -0.609 c 0.051 -0.031 0.105 -0.156 0.066 -0.156 c -0.039 0 -0.168 0.121 -0.168 0.156 c 0 0.039 0.047 0.039 0.102 0" fill="#b4589c"/><path d="m 4.184 12.789 c -0.867 -0.023 -0.828 0 -0.828 -0.512 c 0 -0.195 0.012 -0.352 0.031 -0.352 c 0.016 0 0.074 0.043 0.125 0.094 c 0.109 0.113 0.719 0.402 1.02 0.484 c 0.203 0.055 0.414 0.207 0.383 0.273 c -0.008 0.016 -0.336 0.023 -0.73 0.012 m 0.914 -0.082 c -0.008 -0.047 -0.027 -0.195 -0.039 -0.332 c -0.07 -0.664 -0.25 -1.125 -0.555 -1.402 c -0.172 -0.16 -0.313 -0.238 -0.352 -0.203 c -0.043 0.043 0.078 0.234 0.254 0.418 c 0.109 0.105 0.207 0.242 0.223 0.297 c 0.035 0.141 0.004 0.129 -0.129 -0.047 c -0.066 -0.082 -0.191 -0.203 -0.281 -0.266 c -0.191 -0.133 -0.316 -0.313 -0.316 -0.457 c -0.008 -0.109 -0.09 -0.145 -0.137 -0.219 c -0.035 -0.105 -0.105 -0.09 -0.227 0.043 c -0.059 0.063 -0.121 0.105 -0.145 0.09 c -0.047 -0.027 -0.059 -0.996 -0.012 -0.996 c 0.016 0 0.063 0.098 0.098 0.219 c 0.109 0.348 0.262 0.539 0.535 0.68 c 0.258 0.133 1.051 0.754 1.129 0.883 c 0.023 0.043 0.059 0.148 0.07 0.23 c 0.039 0.227 0.086 0.285 0.117 0.156 c 0.047 -0.176 -0.016 -0.477 -0.109 -0.551 c -0.094 -0.074 -0.113 -0.035 0.203 -0.438 c 0.098 -0.121 0.258 -0.309 0.363 -0.422 c 0.102 -0.109 0.188 -0.211 0.188 -0.223 c 0 -0.09 -0.395 -0.484 -0.625 -0.629 c -0.148 -0.09 -0.289 -0.199 -0.313 -0.238 c -0.023 -0.043 -0.031 -0.164 -0.016 -0.297 c 0.016 -0.133 0.008 -0.234 -0.016 -0.246 c -0.023 -0.016 -0.02 -0.094 0.016 -0.223 c 0.063 -0.227 0.047 -0.363 -0.066 -0.57 c -0.051 -0.09 -0.074 -0.176 -0.059 -0.234 c 0.031 -0.117 -0.039 -0.238 -0.137 -0.238 c -0.043 0 -0.078 -0.012 -0.078 -0.027 c 0 -0.051 0.348 -0.23 0.5 -0.258 c 0.082 -0.012 0.199 -0.051 0.262 -0.078 c 0.109 -0.055 0.113 -0.055 0.09 0.023 c -0.039 0.141 0.059 0.082 0.398 -0.242 c 0.184 -0.176 0.34 -0.313 0.348 -0.305 c 0.055 0.055 -0.086 0.258 -0.348 0.516 c -0.336 0.332 -0.359 0.395 -0.246 0.656 c 0.031 0.074 0.051 0.18 0.039 0.227 c -0.023 0.078 -0.051 0.086 -0.27 0.098 l -0.242 0.012 l -0.012 0.285 l -0.012 0.281 l 0.203 0.297 c 0.281 0.418 0.648 0.875 0.738 0.922 c 0.102 0.051 0.324 0.047 0.461 -0.008 c 0.059 -0.027 0.223 -0.113 0.363 -0.195 c 0.141 -0.078 0.266 -0.152 0.281 -0.16 c 0.09 -0.051 0 0.074 -0.223 0.316 c -0.148 0.16 -0.27 0.328 -0.293 0.414 c -0.023 0.074 -0.082 0.207 -0.129 0.289 c -0.074 0.121 -0.113 0.152 -0.203 0.152 c -0.145 0 -0.172 0.07 -0.176 0.453 c -0.004 0.32 -0.078 0.629 -0.207 0.84 c -0.074 0.121 -0.074 0.133 -0.008 0.176 c 0.098 0.07 0.102 0.07 0.375 -0.129 c 0.137 -0.098 0.367 -0.254 0.512 -0.344 c 0.266 -0.164 0.461 -0.344 0.461 -0.43 c 0 -0.18 0.086 -0.309 0.258 -0.398 c 0.199 -0.098 0.57 -0.473 0.684 -0.68 l 0.07 -0.137 l -0.148 -0.352 c -0.082 -0.195 -0.164 -0.426 -0.18 -0.516 c -0.027 -0.18 -0.07 -0.195 -0.203 -0.078 c -0.125 0.117 -0.113 0.023 0.023 -0.191 c 0.063 -0.094 0.145 -0.25 0.184 -0.352 c 0.047 -0.125 0.086 -0.172 0.125 -0.16 c 0.086 0.027 0.258 0 0.207 0.094 c -0.063 0.109 -0.047 0.449 0.027 0.66 c 0.066 0.18 0.422 0.648 0.492 0.656 c 0.055 0.004 -0.004 -0.219 -0.086 -0.332 c -0.043 -0.055 -0.113 -0.207 -0.16 -0.336 c -0.109 -0.313 -0.109 -1.012 0.004 -1.312 c 0.039 -0.109 0.074 -0.238 0.074 -0.285 c 0 -0.18 -0.273 -0.281 -0.41 -0.152 c -0.156 0.203 0.352 0.008 0.141 0.207 c -0.059 0.051 -0.086 0.121 -0.086 0.215 c 0 0.074 -0.035 0.195 -0.082 0.27 c -0.074 0.113 -0.086 0.121 -0.129 0.066 c -0.035 -0.047 -0.059 -0.055 -0.094 -0.02 c -0.066 0.063 -0.082 0.031 -0.125 -0.293 c -0.027 -0.215 -0.078 -0.375 -0.176 -0.563 c -0.172 -0.332 -0.371 -0.895 -0.371 -1.055 c 0 -0.152 -0.09 -0.242 -0.242 -0.242 c -0.156 0 -0.32 0.09 -0.551 0.297 l -0.195 0.176 l 0.063 -0.152 c 0.063 -0.141 0.121 -0.207 0.391 -0.422 c 0.059 -0.047 0.105 -0.113 0.105 -0.152 c 0 -0.109 -0.113 -0.227 -0.246 -0.254 c -0.18 -0.035 -0.211 -0.063 -0.125 -0.094 c 0.141 -0.055 0.477 -0.035 0.719 0.035 c 0.25 0.074 0.289 0.063 0.16 -0.051 c -0.098 -0.086 -0.102 -0.133 -0.012 -0.137 c 0.176 -0.008 -0.297 -0.152 -0.551 -0.168 c -0.391 -0.027 -0.477 -0.047 -0.426 -0.098 c 0.066 -0.063 0.645 -0.043 0.902 0.027 c 0.121 0.035 0.277 0.094 0.348 0.133 c 0.086 0.051 0.133 0.063 0.152 0.031 c 0.012 -0.023 0.063 -0.031 0.105 -0.02 c 0.063 0.016 0.051 -0.008 -0.055 -0.113 l -0.133 -0.133 l 0.156 0.063 c 0.199 0.082 0.371 0.113 0.371 0.066 c 0 -0.055 -0.195 -0.234 -0.328 -0.301 c -0.18 -0.09 -0.52 -0.117 -0.898 -0.078 c -0.332 0.039 -0.539 0.023 -1.063 -0.066 l -0.117 -0.02 l 0.258 0.219 l -0.289 0.023 c -0.16 0.012 -0.34 0.039 -0.402 0.063 c -0.203 0.074 -0.977 0.629 -1.102 0.793 c -0.07 0.09 -0.18 0.23 -0.242 0.309 c -0.305 0.375 -0.387 0.965 -0.188 1.328 c 0.059 0.109 0.141 0.227 0.18 0.262 c 0.082 0.168 0.047 0.367 0.043 0.551 c 0 0.051 -0.035 0.203 -0.078 0.34 c -0.07 0.219 -0.105 0.266 -0.297 0.406 c -0.145 0.109 -0.246 0.223 -0.301 0.336 c -0.047 0.098 -0.098 0.168 -0.113 0.16 c -0.02 -0.012 -0.031 -1.223 -0.031 -2.695 c 0 -2.359 0.004 -2.684 0.059 -2.758 l 0.063 -0.082 h 2.543 c 2.695 0 2.699 -0.004 2.898 -0.176 c 0.109 -0.094 0.566 -0.168 0.895 -0.141 c 0.301 0.023 0.426 0.07 0.578 0.227 l 0.086 0.09 h 1.09 c 0.797 0 1.102 0.012 1.137 0.043 c 0.031 0.031 0.047 0.207 0.047 0.555 c 0 0.395 0.02 0.574 0.086 0.824 c 0.086 0.332 0.086 0.328 -0.047 0.926 c -0.02 0.082 -0.035 1.582 -0.039 3.328 v 3.184 l -0.086 0.059 c -0.078 0.051 -0.504 0.059 -3.816 0.059 h -3.73 l -0.02 -0.086 m 6.594 -1.703 c 0 -0.012 -0.043 -0.16 -0.098 -0.332 c -0.078 -0.246 -0.117 -0.316 -0.184 -0.332 c -0.07 -0.02 -0.078 -0.031 -0.039 -0.07 c 0.078 -0.074 0.055 -0.309 -0.043 -0.445 c -0.094 -0.137 -0.242 -0.203 -0.199 -0.094 c 0.012 0.031 0.012 0.098 0 0.148 c -0.051 0.191 -0.336 -0.031 -0.418 -0.328 c -0.023 -0.086 -0.109 -0.227 -0.188 -0.313 c -0.078 -0.086 -0.254 -0.289 -0.391 -0.453 c -0.137 -0.164 -0.316 -0.34 -0.398 -0.387 c -0.148 -0.074 -0.223 -0.238 -0.352 -0.313 l -0.109 -0.063 l -0.059 0.16 c -0.184 0.512 -0.301 0.887 -0.301 0.973 c 0 0.207 0.223 0.406 0.82 0.734 c 0.375 0.207 0.605 0.313 0.688 0.313 c 0.078 0 0.152 0.031 0.215 0.094 c 0.086 0.082 0.219 0.082 0.25 0.16 c -0.016 0.043 0.039 0.102 0.184 0.195 c 0.113 0.074 0.277 0.188 0.363 0.254 c 0.148 0.113 0.258 0.152 0.258 0.098 m -0.605 -0.613 c 0.012 -0.023 0.055 -0.039 0.09 -0.039 c 0.023 0.023 -0.063 0.055 -0.09 0.039 m 0.363 -1.766 c 0.078 -0.047 0.273 -0.289 0.543 -0.68 c 0.398 -0.57 0.422 -0.613 0.438 -0.824 c 0.02 -0.277 -0.023 -0.344 -0.199 -0.301 c -0.07 0.016 -0.199 0.039 -0.289 0.051 c -0.16 0.016 -0.164 0.016 -0.188 -0.113 c -0.02 -0.105 0 -0.195 0.102 -0.41 c 0.066 -0.152 0.113 -0.289 0.102 -0.301 c -0.016 -0.012 -0.117 -0.023 -0.234 -0.023 c -0.113 -0.004 -0.227 -0.02 -0.254 -0.039 c -0.098 -0.07 -0.207 0.078 -0.207 0.277 c 0 0.199 0 0.203 -0.355 0.242 c -0.254 0.027 -0.453 -0.039 -0.586 -0.199 c -0.105 -0.133 -0.094 -0.195 0.043 -0.25 l 0.121 -0.047 l -0.098 -0.063 c -0.094 -0.059 -0.102 -0.059 -0.219 0.078 c -0.066 0.078 -0.156 0.176 -0.199 0.219 c -0.055 0.051 -0.094 0.172 -0.125 0.398 c -0.051 0.316 -0.055 0.328 -0.234 0.48 c -0.219 0.184 -0.227 0.246 -0.09 0.516 c 0.094 0.176 0.492 0.562 0.824 0.793 c 0.352 0.246 0.863 0.336 1.105 0.195 m -0.328 -0.566 c -0.145 -0.043 -0.48 -0.316 -0.434 -0.359 c 0.016 -0.016 0.164 -0.031 0.332 -0.031 c 0.23 0 0.336 0.016 0.457 0.078 c 0.215 0.105 0.23 0.223 0.043 0.297 c -0.152 0.063 -0.223 0.063 -0.398 0.016 m 0.109 -0.797 c -0.098 -0.055 -0.117 -0.086 -0.078 -0.105 c 0.082 -0.043 0.191 -0.047 0.375 -0.016 c 0.277 0.047 0.27 0.145 -0.012 0.18 c -0.117 0.016 -0.188 0.004 -0.285 -0.059 m -3.02 0.637 c 0 -0.039 -0.016 -0.059 -0.039 -0.047 c -0.02 0.016 -0.039 0.07 -0.035 0.125 c 0.012 0.152 0.063 -0.016 0.074 -0.078 m -3.01 -0.309 c 0 -0.031 -0.027 -0.055 -0.059 -0.055 c -0.063 0 -0.078 0.043 -0.035 0.086 c 0.047 0.043 0.094 0.027 0.094 -0.031 m 0.695 1.707 c -0.082 -0.039 -0.148 -0.098 -0.148 -0.121 c 0 -0.121 0.121 -0.184 0.43 -0.219 c 0.172 -0.02 0.59 0.008 0.59 0.043 c 0 0.051 -0.223 0.152 -0.367 0.172 c -0.07 0.008 -0.176 0.031 -0.242 0.051 l -0.117 0.031 l 0.145 0.004 c 0.156 0.004 0.227 0.059 0.125 0.094 c -0.109 0.043 -0.266 0.02 -0.414 -0.055 m -1.637 -0.184 c 0.043 -0.082 0.129 -0.129 0.059 -0.023 c -0.078 0.113 -0.117 0.129 -0.059 0.023 m 1.5 -0.289 c -0.027 -0.012 -0.051 -0.043 -0.051 -0.066 c 0 -0.066 0.27 -0.098 0.371 -0.051 c 0.07 0.039 0.07 0.039 0 0.09 c -0.07 0.051 -0.227 0.063 -0.32 0.027 m -0.992 -0.625 c -0.148 -0.191 -0.199 -0.289 -0.16 -0.289 c 0.055 0 0.254 0.281 0.234 0.332 c -0.008 0.02 -0.043 0 -0.074 -0.043 m 1.883 -0.344 c -0.105 -0.109 -0.16 -0.121 -0.16 -0.039 c 0 0.066 -0.137 0.074 -0.184 0.008 c -0.016 -0.023 -0.051 -0.105 -0.078 -0.176 c -0.059 -0.16 -0.02 -0.207 0.305 -0.398 c 0.238 -0.137 0.324 -0.152 0.555 -0.09 c 0.18 0.047 0.164 0.094 -0.047 0.125 c -0.172 0.027 -0.238 0.09 -0.133 0.121 c 0.215 0.063 0.328 0.133 0.328 0.199 c 0 0.078 -0.246 0.305 -0.332 0.305 c -0.031 0 -0.078 0.008 -0.109 0.02 c -0.027 0.012 -0.094 -0.023 -0.145 -0.074 m 0.352 -0.172 c 0 -0.02 -0.008 -0.035 -0.02 -0.035 c -0.008 0 -0.027 0.016 -0.039 0.035 c -0.016 0.023 -0.008 0.039 0.016 0.039 c 0.023 0 0.043 -0.016 0.043 -0.039 m -2.723 -0.313 c -0.055 -0.121 0.012 -0.547 0.121 -0.777 c 0.148 -0.313 0.516 -0.637 0.945 -0.836 c 0.18 -0.082 0.336 -0.141 0.348 -0.133 c 0.008 0.012 -0.051 0.066 -0.129 0.125 c -0.082 0.059 -0.227 0.176 -0.316 0.258 c -0.094 0.086 -0.27 0.207 -0.391 0.27 c -0.191 0.094 -0.242 0.141 -0.336 0.328 c -0.07 0.129 -0.133 0.336 -0.164 0.523 c -0.031 0.215 -0.059 0.289 -0.078 0.242 m 1.156 -1.055 c 0.047 -0.246 0.66 -0.625 0.348 -0.371 c -0.066 0.055 -0.176 0.168 -0.238 0.25 c -0.059 0.082 -0.109 0.137 -0.109 0.121" fill="#96535b"/><path d="m 3.512 12.75 c -0.141 -0.059 -0.156 -0.098 -0.156 -0.422 c 0 -0.32 0.02 -0.34 0.211 -0.203 c 0.203 0.148 0.422 0.25 0.75 0.355 c 0.348 0.113 0.523 0.207 0.473 0.258 c -0.047 0.047 -1.16 0.059 -1.277 0.012 m 1.637 -0.051 c -0.055 -0.117 0.012 -0.293 0.145 -0.375 c 0.047 -0.031 0.098 -0.094 0.109 -0.145 c 0.012 -0.047 0.047 -0.152 0.082 -0.234 c 0.07 -0.18 0.078 -0.469 0.02 -0.598 c -0.023 -0.047 -0.086 -0.109 -0.137 -0.129 c -0.102 -0.047 -0.121 -0.098 -0.055 -0.137 c 0.023 -0.016 0.125 -0.148 0.23 -0.297 c 0.105 -0.152 0.234 -0.301 0.285 -0.332 c 0.07 -0.043 0.254 -0.27 0.328 -0.398 c 0.016 -0.023 0.492 -0.125 0.512 -0.109 c 0.012 0.012 0.004 0.094 -0.012 0.184 c -0.031 0.152 -0.051 0.172 -0.258 0.27 c -0.199 0.098 -0.227 0.121 -0.23 0.227 c 0 0.066 -0.008 0.293 -0.012 0.512 c -0.008 0.316 -0.027 0.449 -0.113 0.68 c -0.137 0.371 -0.137 0.41 0.016 0.41 c 0.078 0 0.176 -0.043 0.285 -0.125 c 0.09 -0.07 0.32 -0.223 0.516 -0.336 c 0.441 -0.262 0.516 -0.34 0.566 -0.59 c 0.02 -0.109 0.039 -0.203 0.039 -0.211 c 0 -0.008 0.113 -0.074 0.25 -0.145 c 0.266 -0.145 0.559 -0.414 0.668 -0.621 c 0.066 -0.121 0.066 -0.129 -0.055 -0.375 c -0.113 -0.242 -0.152 -0.414 -0.09 -0.414 c 0.016 0 0.098 0.039 0.188 0.086 c 0.109 0.059 0.18 0.137 0.246 0.262 c 0.098 0.199 0.172 0.246 0.262 0.176 c 0.094 -0.074 0.066 -0.234 -0.078 -0.465 c -0.266 -0.418 -0.316 -0.738 -0.191 -1.168 c 0.035 -0.125 0.07 -0.371 0.078 -0.551 c 0.012 -0.285 0.004 -0.328 -0.066 -0.391 c -0.094 -0.082 -0.316 -0.09 -0.41 -0.016 c -0.094 0.074 -0.176 0.27 -0.176 0.422 c 0 0.066 -0.016 0.148 -0.039 0.18 c -0.027 0.039 -0.035 0.02 -0.039 -0.082 c 0 -0.074 -0.035 -0.25 -0.078 -0.387 c -0.129 -0.398 -0.066 -0.617 0.117 -0.426 l 0.086 0.086 l 0.113 -0.125 c 0.129 -0.133 0.191 -0.129 0.191 0.016 c 0 0.113 0.07 0.121 0.09 0.004 c 0.012 -0.082 0.035 -0.09 0.156 -0.043 c 0.094 0.035 0.09 -0.082 -0.008 -0.387 c -0.039 -0.129 -0.059 -0.234 -0.043 -0.234 c 0.063 0 0.121 0.098 0.121 0.211 c 0 0.125 0.082 0.238 0.176 0.238 c 0.074 0 0.074 -0.105 -0.004 -0.281 c -0.094 -0.215 -0.047 -0.297 0.059 -0.094 l 0.086 0.168 l -0.016 -0.223 c -0.023 -0.266 -0.129 -0.547 -0.211 -0.547 c -0.039 0 -0.051 0.023 -0.031 0.074 c 0.031 0.102 -0.07 0.137 -0.207 0.078 c -0.109 -0.059 -0.16 0.043 -0.262 0.027 c -0.156 -0.02 -0.152 0.141 -0.281 0.176 c -0.156 0.059 -0.23 0.191 -0.34 0.121 c -0.133 -0.082 -0.141 -0.078 -0.18 0.02 c -0.035 0.086 -0.035 0.086 -0.078 -0.02 c -0.023 -0.059 -0.043 -0.145 -0.043 -0.195 c 0 -0.055 -0.047 -0.125 -0.129 -0.184 c -0.113 -0.086 -0.117 -0.098 -0.039 -0.098 c 0.203 0 0.266 -0.102 0.141 -0.23 c -0.078 -0.086 -0.004 -0.094 0.145 -0.012 c 0.254 0.109 0.191 -0.141 0.301 -0.23 c 0.07 0.039 0.125 0.051 0.168 0.02 c 0.09 -0.02 0.148 0.117 0.215 0.031 c 0.027 -0.035 0.082 -0.066 0.125 -0.066 c 0.105 -0.004 0.211 -0.09 0.211 -0.184 c 0 -0.129 -0.254 -0.359 -0.52 -0.477 c -0.262 -0.113 -0.277 -0.117 -1.281 -0.09 c -0.301 0.008 -0.48 -0.004 -0.66 -0.055 c -0.277 -0.07 -0.328 -0.059 -0.223 0.055 c 0.086 0.09 0.07 0.109 -0.121 0.137 c -0.215 0.031 -0.457 0.152 -0.816 0.414 c -0.176 0.125 -0.418 0.281 -0.543 0.348 c -0.176 0.098 -0.215 0.133 -0.18 0.172 c 0.031 0.039 0.02 0.082 -0.055 0.176 c -0.281 0.359 -0.445 0.859 -0.383 1.176 c 0.016 0.082 0.086 0.254 0.156 0.375 c 0.102 0.188 0.129 0.285 0.148 0.555 c 0.031 0.441 -0.023 0.566 -0.402 0.941 c -0.16 0.156 -0.305 0.289 -0.313 0.289 c -0.008 0 -0.016 -1.172 -0.016 -2.605 c 0 -2.43 0.004 -2.613 0.066 -2.688 c 0.07 -0.078 0.082 -0.078 2.699 -0.09 l 2.629 -0.008 l 0.129 -0.09 c 0.133 -0.094 0.488 -0.203 0.66 -0.199 c 0.102 0 0.434 0.039 0.57 0.063 c 0.043 0.012 0.113 0.051 0.156 0.09 c 0.172 0.148 0.219 0.156 1.32 0.156 c 0.781 0 1.082 0.012 1.117 0.043 c 0.031 0.031 0.047 0.234 0.047 0.66 c 0 0.457 0.016 0.668 0.066 0.84 c 0.059 0.211 0.059 0.242 0 0.496 c -0.063 0.242 -0.066 0.605 -0.066 3.543 c 0 3 -0.004 3.277 -0.066 3.324 c -0.051 0.043 -0.699 0.055 -3.777 0.063 l -3.715 0.012 m 6.641 -1.988 c -0.18 -0.59 -0.203 -0.648 -0.266 -0.637 c -0.027 0.008 -0.055 -0.031 -0.063 -0.082 c -0.039 -0.289 -0.18 -0.488 -0.34 -0.488 c -0.035 0 -0.117 -0.039 -0.184 -0.082 c -0.113 -0.078 -0.117 -0.09 -0.098 -0.281 c 0.031 -0.309 0.094 -0.391 0.34 -0.473 c 0.273 -0.086 0.371 -0.18 0.742 -0.707 c 0.359 -0.508 0.418 -0.613 0.469 -0.828 c 0.051 -0.215 0.012 -0.523 -0.066 -0.523 c -0.031 0 -0.082 -0.027 -0.113 -0.066 c -0.109 -0.07 -0.148 0.063 -0.223 0.047 c -0.023 -0.063 -0.141 -0.078 -0.141 -0.016 c 0 0.02 -0.02 0.035 -0.039 0.035 c -0.055 0 -0.051 -0.125 0.008 -0.18 c 0.07 -0.07 0.262 -0.055 0.371 0.031 c 0.117 0.09 0.191 0.094 0.223 0.016 c 0.063 -0.16 -0.121 -0.316 -0.371 -0.316 c -0.145 0 -0.145 -0.047 -0.008 -0.145 l 0.105 -0.074 l -0.098 -0.074 c -0.063 -0.051 -0.113 -0.066 -0.152 -0.047 c -0.117 0.016 -0.188 -0.082 -0.277 -0.035 c -0.074 0.039 -0.098 0.035 -0.137 -0.016 c -0.063 -0.086 -0.102 -0.078 -0.195 0.039 c -0.094 0.109 -0.047 0.113 -0.77 -0.063 l -0.258 -0.063 l -0.141 0.129 c -0.078 0.07 -0.141 0.141 -0.141 0.16 c 0 0.02 -0.035 0.035 -0.078 0.035 c -0.086 0 -0.102 0.043 -0.141 0.355 c -0.035 0.293 -0.066 0.367 -0.277 0.637 c -0.145 0.184 -0.172 0.246 -0.156 0.336 c 0.02 0.09 0.012 0.102 -0.047 0.086 c -0.039 -0.012 -0.105 0 -0.145 0.031 c -0.066 0.047 -0.078 0.102 -0.078 0.457 c 0 0.363 -0.016 0.445 -0.129 0.742 c -0.172 0.457 -0.168 0.516 0.059 0.738 c 0.215 0.211 1.266 0.789 1.434 0.789 c 0.063 0 0.125 0.031 0.152 0.078 c 0.027 0.043 0.184 0.168 0.348 0.277 c 0.168 0.113 0.457 0.324 0.648 0.469 c 0.188 0.148 0.352 0.25 0.359 0.227 c 0.008 -0.023 -0.051 -0.258 -0.129 -0.52 m -1.059 -4.438 c 0.012 -0.023 0.031 -0.039 0.043 -0.039 c 0.008 0 0.016 0.016 0.016 0.039 c 0 0.02 -0.02 0.035 -0.043 0.035 c -0.02 0 -0.027 -0.016 -0.016 -0.035 m -0.371 -0.102 c -0.109 -0.133 -0.059 -0.172 0.234 -0.176 c 0.219 -0.004 0.25 0.004 0.336 0.102 c 0.051 0.055 0.094 0.125 0.094 0.148 c 0 0.027 -0.012 0.027 -0.035 -0.008 c -0.023 -0.035 -0.078 -0.047 -0.176 -0.031 c -0.078 0.012 -0.148 0.008 -0.164 -0.012 c -0.035 -0.059 -0.133 -0.043 -0.133 0.02 c 0 0.086 -0.063 0.07 -0.156 -0.043 m 1.957 -0.199 c 0 -0.023 -0.02 -0.039 -0.039 -0.039 c -0.023 0 -0.039 0.016 -0.039 0.039 c 0 0.02 0.016 0.035 0.039 0.035 c 0.02 0 0.039 -0.016 0.039 -0.035 m -9 4.148 c 0 -0.414 0.039 -0.43 0.191 -0.09 c 0.086 0.188 0.086 0.191 0.012 0.309 c -0.039 0.066 -0.102 0.125 -0.137 0.133 c -0.059 0.012 -0.066 -0.031 -0.066 -0.352 m 1.996 -2.258 c -0.066 -0.047 -0.098 -0.051 -0.109 -0.02 c -0.039 0.113 -0.203 0.02 -0.203 -0.121 c 0 -0.047 0.262 -0.137 0.406 -0.137 c 0.199 0 0.313 0.27 0.133 0.316 c -0.121 0.031 -0.117 0.031 -0.227 -0.039 m 1.27 -0.207 c -0.016 -0.023 -0.074 -0.031 -0.141 -0.02 c -0.188 0.039 -0.016 -0.16 -0.145 -0.164 c -0.117 0 -0.105 -0.051 0.043 -0.156 c 0.199 -0.148 0.367 -0.219 0.508 -0.215 c 0.129 0 0.125 0.004 -0.066 0.086 c -0.109 0.047 -0.223 0.117 -0.254 0.156 c -0.059 0.063 -0.051 0.066 0.082 0.047 c 0.156 -0.023 0.41 0.02 0.473 0.078 c 0.023 0.02 0.027 0.07 0.016 0.105 c -0.027 0.066 -0.031 0.066 -0.066 0.004 c -0.055 -0.094 -0.148 -0.082 -0.191 0.027 c -0.039 0.098 -0.207 0.133 -0.258 0.051 m -1.309 -0.258 c -0.074 -0.043 -0.02 -0.098 0.129 -0.133 c 0.063 -0.016 0.105 -0.008 0.105 0.012 c 0 0.023 0.012 0.066 0.023 0.102 c 0.02 0.043 0 0.059 -0.086 0.059 c -0.063 0 -0.141 -0.02 -0.172 -0.039 m -0.328 -0.09 c 0.02 -0.051 0.133 -0.098 0.238 -0.098 c 0.07 0 0.063 0.102 -0.012 0.129 c -0.117 0.043 -0.25 0.023 -0.227 -0.031" fill="#2d9462"/><path d="m 4.703 12.711 c -0.016 -0.02 -0.016 -0.047 -0.004 -0.059 c 0.027 -0.027 0.105 0.02 0.105 0.066 c 0 0.047 -0.07 0.043 -0.102 -0.008 m 0.453 -0.215 c 0 -0.027 0.051 -0.094 0.109 -0.148 c 0.129 -0.109 0.164 -0.266 0.219 -0.402 c 0.07 -0.18 0.078 -0.469 0.02 -0.598 c -0.023 -0.047 -0.086 -0.109 -0.137 -0.129 c -0.102 -0.047 -0.121 -0.098 -0.055 -0.137 c 0.023 -0.016 0.125 -0.148 0.23 -0.297 c 0.105 -0.152 0.234 -0.301 0.285 -0.332 c 0.07 -0.043 0.254 -0.27 0.328 -0.398 c 0.016 -0.023 0.492 -0.125 0.512 -0.109 c 0.012 0.012 0.004 0.094 -0.012 0.184 c -0.031 0.133 -0.063 0.176 -0.191 0.246 c -0.117 0.078 -0.266 0.055 -0.375 0.109 c -0.023 0.027 -0.074 0.051 -0.113 0.051 c -0.219 0.121 -0.34 0.32 -0.523 0.5 c -0.082 0.074 -0.102 0.117 -0.07 0.137 c 0.094 0.055 0.281 -0.004 0.371 -0.117 c 0.242 -0.305 0.238 -0.301 0.313 -0.25 c 0.09 0.063 0.125 0.273 0.09 0.531 c -0.02 0.16 -0.043 0.211 -0.102 0.227 c -0.043 0.008 -0.105 0.078 -0.145 0.152 c -0.078 0.129 -0.199 0.164 -0.27 0.277 c -0.121 0.199 -0.484 0.574 -0.484 0.504 m -1.344 -0.18 c -0.145 -0.074 -0.137 -0.105 0.012 -0.035 c 0.063 0.035 0.117 0.066 0.117 0.078 c 0 0.023 -0.004 0.023 -0.129 -0.043 m 5.063 -0.117 c 0 -0.023 0.086 -0.07 0.191 -0.105 c 0.105 -0.031 0.266 -0.109 0.352 -0.168 c 0.172 -0.121 0.355 -0.391 0.355 -0.523 c 0 -0.078 -0.012 -0.082 -0.184 -0.066 c -0.324 0.039 -0.746 0.23 -0.887 0.527 c -0.055 0.145 -0.602 0.008 -0.977 -0.246 c -0.117 -0.105 -0.164 -0.051 -0.293 0.016 c -0.184 0.094 -0.551 0.199 -0.582 0.168 c -0.008 -0.008 0.051 -0.055 0.129 -0.105 c 0.273 -0.16 0.402 -0.293 0.43 -0.438 c 0.039 -0.23 0.059 -0.27 0.121 -0.27 c 0.102 0 0.277 0.145 0.555 0.461 c 0.148 0.168 0.316 0.332 0.375 0.363 c 0.102 0.051 0.113 0.051 0.191 -0.043 c 0.047 -0.055 0.191 -0.223 0.324 -0.375 c 0.266 -0.305 0.367 -0.477 0.367 -0.602 c 0 -0.066 -0.02 -0.051 -0.109 0.082 c -0.063 0.094 -0.203 0.246 -0.313 0.348 c -0.211 0.184 -0.203 0.184 -0.547 0.117 c -0.105 -0.02 -0.324 -0.324 -0.324 -0.453 c 0 -0.043 0.082 -0.195 0.18 -0.336 c 0.113 -0.125 0.148 -0.27 0.188 -0.414 c 0.02 -0.055 -0.012 -0.156 -0.09 -0.32 c -0.113 -0.227 -0.152 -0.406 -0.09 -0.406 c 0.016 0 0.102 0.039 0.188 0.086 c 0.109 0.059 0.184 0.137 0.246 0.262 c 0.098 0.199 0.172 0.246 0.262 0.176 c 0.094 -0.074 0.066 -0.234 -0.078 -0.465 c -0.262 -0.418 -0.316 -0.738 -0.191 -1.168 c 0.035 -0.125 0.07 -0.371 0.078 -0.551 c 0.012 -0.285 0.004 -0.328 -0.066 -0.391 c -0.094 -0.082 -0.316 -0.09 -0.41 -0.016 c -0.094 0.074 -0.176 0.27 -0.176 0.422 c 0 0.066 -0.016 0.148 -0.039 0.18 c -0.027 0.039 -0.035 0.02 -0.039 -0.082 c 0 -0.074 -0.035 -0.25 -0.078 -0.387 c -0.129 -0.398 -0.066 -0.617 0.117 -0.426 l 0.086 0.086 l 0.113 -0.125 c 0.246 -0.266 0.23 0.297 0.281 0.02 c 0.012 -0.082 0.035 -0.09 0.156 -0.043 c 0.094 0.035 0.09 -0.082 -0.004 -0.387 c -0.043 -0.129 -0.063 -0.234 -0.047 -0.234 c 0.063 0 0.121 0.098 0.121 0.211 c 0 0.125 0.082 0.238 0.18 0.238 c 0.07 0 0.07 -0.105 -0.008 -0.281 c -0.094 -0.215 -0.047 -0.297 0.059 -0.094 l 0.086 0.168 l -0.016 -0.223 c -0.023 -0.266 -0.129 -0.547 -0.211 -0.547 c -0.039 0 -0.051 0.023 -0.031 0.074 c 0.031 0.102 -0.07 0.137 -0.207 0.078 c -0.117 -0.012 -0.359 -0.008 -0.402 0.094 c -0.016 0.047 -0.078 0.094 -0.141 0.109 c -0.277 0.238 -0.469 0.016 -0.52 0.145 c -0.035 0.082 -0.035 0.082 -0.078 -0.023 c -0.023 -0.059 -0.043 -0.145 -0.043 -0.195 c 0 -0.055 -0.047 -0.125 -0.129 -0.184 c -0.113 -0.086 -0.117 -0.098 -0.039 -0.098 c 0.207 0 0.266 -0.098 0.141 -0.23 c -0.078 -0.086 -0.004 -0.094 0.145 -0.012 c 0.305 -0.012 0.125 -0.086 0.469 -0.211 c 0 -0.031 0.031 -0.02 0.082 0.023 c 0.121 0.094 0.141 -0.023 0.258 -0.059 c 0.105 -0.004 0.211 -0.09 0.211 -0.184 c 0 -0.129 -0.254 -0.359 -0.52 -0.477 c -0.262 -0.113 -0.277 -0.117 -1.281 -0.09 c -0.301 0.008 -0.48 -0.004 -0.66 -0.055 c -0.277 -0.07 -0.328 -0.059 -0.223 0.055 c 0.086 0.09 0.07 0.109 -0.121 0.137 c -0.305 0.098 -1.441 0.691 -1.543 0.934 c 0.031 0.035 0.016 0.09 -0.07 0.211 c -0.063 0.09 -0.152 0.223 -0.199 0.297 l -0.082 0.129 v -1 c 0 -0.996 0 -1 0.086 -1.063 c 0.078 -0.051 0.355 -0.059 2.254 -0.059 h 2.168 l 0.055 -0.133 c 0.035 -0.078 0.113 -0.164 0.18 -0.199 c 0.066 -0.035 0.184 -0.105 0.262 -0.152 c 0.152 -0.098 0.508 -0.203 0.672 -0.199 c 0.223 0.004 0.613 0.07 0.691 0.121 c 0.047 0.027 0.105 0.086 0.125 0.133 c 0.031 0.066 0.266 0.266 0.48 0.285 c 0.168 0.016 0.219 -0.105 0.473 -0.008 c 0.289 0.113 0.449 0.152 0.605 0.152 c 0.156 0 0.23 0.02 0.289 0.074 c 0.043 0.043 0.078 0.094 0.078 0.113 c 0 0.02 0.098 0.141 0.215 0.262 c 0.141 0.152 0.215 0.258 0.215 0.32 c 0 0.055 0.035 0.203 0.082 0.332 c 0.086 0.246 0.086 0.297 -0.023 0.777 c -0.059 0.258 -0.172 0.449 -0.262 0.449 c -0.02 0 -0.051 -0.043 -0.07 -0.094 c -0.043 -0.105 -0.18 -0.168 -0.355 -0.168 c -0.145 0 -0.145 -0.047 -0.008 -0.145 l 0.105 -0.074 l -0.098 -0.074 c -0.063 -0.051 -0.117 -0.066 -0.152 -0.047 c -0.121 0.016 -0.188 -0.082 -0.281 -0.035 c -0.07 0.039 -0.094 0.035 -0.133 -0.016 c -0.063 -0.082 -0.102 -0.078 -0.195 0.039 c -0.094 0.109 -0.047 0.113 -0.77 -0.063 l -0.258 -0.063 l -0.141 0.129 c -0.078 0.07 -0.145 0.141 -0.145 0.16 c 0 0.02 -0.031 0.035 -0.074 0.035 c -0.086 0 -0.102 0.043 -0.141 0.355 c -0.035 0.293 -0.066 0.367 -0.277 0.637 c -0.145 0.184 -0.176 0.246 -0.156 0.336 c 0.02 0.09 0.012 0.102 -0.047 0.086 c -0.039 -0.012 -0.105 0 -0.145 0.031 c -0.066 0.047 -0.078 0.102 -0.078 0.461 c -0.004 0.359 -0.016 0.441 -0.129 0.738 c -0.172 0.457 -0.168 0.516 0.059 0.738 c 0.215 0.211 1.266 0.789 1.434 0.789 c 0.063 0 0.125 0.031 0.152 0.078 c 0.027 0.043 0.184 0.168 0.348 0.277 c 0.164 0.113 0.457 0.324 0.648 0.469 c 0.188 0.148 0.352 0.25 0.359 0.227 c 0.012 -0.039 -0.23 -0.891 -0.309 -1.078 c -0.02 -0.047 -0.059 -0.082 -0.086 -0.078 c -0.027 0.008 -0.055 -0.031 -0.063 -0.082 c -0.039 -0.289 -0.18 -0.488 -0.34 -0.488 c -0.035 0 -0.117 -0.039 -0.184 -0.082 c -0.113 -0.078 -0.117 -0.09 -0.098 -0.281 c 0.031 -0.309 0.094 -0.391 0.34 -0.473 c 0.27 -0.086 0.387 -0.195 0.727 -0.684 c 0.148 -0.219 0.285 -0.395 0.301 -0.395 c 0.016 -0.004 0.031 0.984 0.031 2.191 c 0 1.945 -0.008 2.203 -0.063 2.254 c -0.055 0.051 -0.234 0.059 -1.379 0.059 c -0.727 0 -1.465 0.012 -1.645 0.027 c -0.215 0.016 -0.32 0.008 -0.32 -0.02 m 3.484 -6.129 c 0 -0.023 -0.02 -0.039 -0.039 -0.039 c -0.023 0 -0.039 0.016 -0.039 0.039 c 0 0.02 0.016 0.035 0.039 0.035 c 0.02 0 0.039 -0.016 0.039 -0.035 m 0.023 -0.984 c -0.012 -0.078 -0.086 -0.141 -0.172 -0.145 c -0.07 0 -0.059 0.051 0.035 0.164 c 0.086 0.109 0.156 0.102 0.137 -0.02 m -8.527 2.891 c -0.012 -0.398 -0.016 -0.727 -0.012 -0.734 c 0.004 -0.004 0.055 0.082 0.113 0.195 c 0.156 0.297 0.187 0.789 0.062 1.066 c -0.047 0.105 -0.102 0.195 -0.117 0.195 c -0.016 0 -0.039 -0.324 -0.047 -0.723 m 1.496 -0.016 c -0.066 -0.047 -0.098 -0.051 -0.109 -0.02 c -0.039 0.117 -0.203 0.02 -0.203 -0.117 c 0 -0.051 0.258 -0.141 0.406 -0.141 c 0.199 0 0.313 0.27 0.129 0.316 c -0.117 0.031 -0.117 0.031 -0.223 -0.039 m 1.277 -0.207 c -0.039 -0.02 -0.113 -0.027 -0.168 -0.016 c -0.086 0.02 -0.094 0.016 -0.07 -0.07 c 0.023 -0.078 0.012 -0.098 -0.059 -0.098 c -0.117 0 -0.102 -0.051 0.047 -0.156 c 0.199 -0.148 0.367 -0.219 0.508 -0.215 c 0.125 0 0.125 0.004 -0.066 0.086 c -0.109 0.047 -0.223 0.117 -0.258 0.156 c -0.055 0.063 -0.047 0.066 0.086 0.047 c 0.156 -0.023 0.41 0.02 0.473 0.078 c 0.023 0.02 0.027 0.07 0.012 0.105 c -0.023 0.066 -0.027 0.066 -0.063 0.004 c -0.059 -0.094 -0.148 -0.082 -0.191 0.027 c -0.043 0.102 -0.129 0.117 -0.25 0.051 m -1.316 -0.258 c -0.074 -0.043 -0.023 -0.098 0.125 -0.133 c 0.066 -0.016 0.109 -0.008 0.109 0.016 c 0 0.02 0.012 0.063 0.023 0.098 c -0.031 0.105 -0.156 0.055 -0.258 0.02 m -0.328 -0.09 c 0.02 -0.051 0.133 -0.094 0.238 -0.098 c 0.07 0 0.063 0.102 -0.012 0.129 c -0.117 0.043 -0.25 0.023 -0.227 -0.031 m 7.05 -0.719 c -0.027 -0.063 -0.145 -0.074 -0.145 -0.016 c 0 0.02 -0.016 0.035 -0.039 0.035 c -0.055 0 -0.047 -0.125 0.008 -0.18 c 0.074 -0.07 0.266 -0.055 0.375 0.031 c 0.055 0.039 0.125 0.074 0.152 0.074 c 0.031 0 0.055 0.016 0.055 0.039 c 0 0.059 -0.125 0.043 -0.184 -0.031 c -0.109 -0.07 -0.148 0.063 -0.223 0.047 m -4.457 -0.055 c -0.047 -0.141 -0.039 -0.211 0.012 -0.164 c 0.023 0.023 0.035 0.09 0.027 0.148 l -0.012 0.109 m 3.172 -0.355 c 0.012 -0.023 0.031 -0.039 0.039 -0.039 c 0.012 0 0.02 0.016 0.02 0.039 c 0 0.02 -0.02 0.035 -0.043 0.035 c -0.023 0 -0.031 -0.016 -0.016 -0.035 m -0.371 -0.102 c -0.109 -0.133 -0.063 -0.172 0.234 -0.176 c 0.219 -0.004 0.25 0.004 0.336 0.102 c 0.051 0.055 0.094 0.125 0.094 0.148 c 0 0.031 -0.012 0.027 -0.035 -0.008 c -0.113 -0.066 -0.219 -0.012 -0.34 -0.043 c -0.035 -0.055 -0.133 -0.039 -0.133 0.02 c 0 0.086 -0.066 0.07 -0.156 -0.043" fill="#122f53"/><path d="m 5.488 11.973 c 0.016 -0.027 0.039 -0.164 0.059 -0.301 l 0.027 -0.254 l 0.008 0.23 c 0.004 0.156 -0.016 0.25 -0.059 0.297 c -0.031 0.043 -0.051 0.055 -0.035 0.027 m 6.617 -0.027 c -0.156 -0.102 -1.164 -0.438 -1.289 -0.426 c -0.105 0.012 -0.121 0 -0.125 -0.086 c -0.004 -0.141 -0.156 -0.359 -0.32 -0.465 c -0.582 -0.113 -0.867 -0.453 -1.242 -0.676 c -0.293 -0.172 -0.348 -0.258 -0.219 -0.344 c 0.121 -0.082 0.102 -0.23 -0.055 -0.48 c -0.16 -0.254 -0.262 -0.523 -0.23 -0.598 c 0.02 -0.051 0.246 -0.109 0.285 -0.078 c 0.008 0.008 -0.004 0.082 -0.031 0.16 c -0.078 0.258 -0.059 0.336 0.141 0.531 c 0.215 0.211 1.266 0.789 1.434 0.789 c 0.063 0 0.125 0.031 0.152 0.078 c 0.027 0.043 0.184 0.168 0.348 0.277 c 0.168 0.113 0.457 0.324 0.648 0.469 c 0.188 0.148 0.352 0.25 0.359 0.227 c 0.016 -0.039 -0.23 -0.891 -0.309 -1.078 c -0.02 -0.047 -0.059 -0.082 -0.086 -0.078 c -0.027 0.008 -0.055 -0.031 -0.059 -0.082 c -0.043 -0.289 -0.184 -0.488 -0.344 -0.488 c -0.035 0 -0.117 -0.035 -0.18 -0.078 c -0.125 -0.086 -0.141 -0.191 -0.07 -0.469 c 0.047 -0.18 0.082 -0.219 0.23 -0.262 l 0.094 -0.027 l -0.105 0.121 c -0.059 0.066 -0.094 0.137 -0.082 0.156 c 0.012 0.016 0.109 0.074 0.215 0.125 c 0.105 0.051 0.25 0.145 0.32 0.207 c 0.074 0.059 0.246 0.168 0.383 0.238 l 0.254 0.125 l 0.031 0.785 c 0.031 0.754 0.008 1.484 -0.047 1.48 c -0.012 -0.004 -0.059 -0.027 -0.102 -0.055 m -4.836 -0.445 c 0 -0.008 0.031 -0.039 0.07 -0.066 c 0.059 -0.047 0.063 -0.047 0.012 0.012 c -0.051 0.063 -0.082 0.086 -0.082 0.055 m -1.125 -0.324 c 0 -0.074 0.008 -0.102 0.016 -0.066 c 0.012 0.035 0.012 0.094 0 0.133 c -0.008 0.035 -0.016 0.004 -0.016 -0.066 m -0.637 -0.34 c 0.023 -0.039 0.051 -0.074 0.063 -0.074 c 0.008 0 0 0.035 -0.023 0.074 c -0.023 0.043 -0.051 0.074 -0.063 0.074 c -0.008 0 0 -0.031 0.023 -0.074 m 0.742 -0.41 c 0 -0.016 0.063 -0.066 0.137 -0.109 c 0.188 -0.227 -0.098 0.105 -0.043 -0.16 c 0.027 -0.133 0.066 -0.172 0.215 -0.207 c 0.121 -0.031 0.133 -0.008 0.098 0.18 c -0.031 0.137 -0.063 0.176 -0.191 0.246 c -0.168 0.094 -0.215 0.102 -0.215 0.051 m 2.254 -0.609 c -0.055 -0.117 -0.137 -0.133 -0.141 -0.023 c -0.098 0.047 -0.168 -0.293 -0.137 -0.383 c 0.008 0 0.086 0.035 0.176 0.082 c 0.172 0.086 0.234 0.207 0.172 0.332 c -0.031 0.074 -0.035 0.074 -0.07 -0.008 m 0.566 -1.789 c 0 -0.078 -0.027 -0.176 -0.059 -0.219 c -0.059 -0.07 -0.059 -0.07 -0.117 0 c -0.031 0.039 -0.063 0.09 -0.074 0.113 c -0.047 0.102 -0.098 -0.086 -0.078 -0.277 c 0.02 -0.18 0.012 -0.219 -0.063 -0.281 c -0.098 -0.086 -0.316 -0.098 -0.414 -0.02 c -0.094 0.074 -0.176 0.27 -0.176 0.422 c 0 0.066 -0.016 0.148 -0.039 0.18 c -0.027 0.039 -0.035 0.02 -0.035 -0.082 c -0.004 -0.074 -0.039 -0.25 -0.082 -0.387 c -0.129 -0.398 -0.066 -0.617 0.117 -0.426 l 0.086 0.086 l 0.113 -0.125 c 0.129 -0.133 0.195 -0.129 0.195 0.016 c 0.078 0.156 0.09 -0.098 0.242 -0.039 c 0.094 0.035 0.09 -0.082 -0.004 -0.387 c -0.043 -0.129 -0.063 -0.234 -0.047 -0.234 c 0.063 0 0.121 0.098 0.121 0.211 c 0 0.125 0.082 0.238 0.18 0.238 c 0.07 0 0.07 -0.105 -0.008 -0.281 c -0.094 -0.215 -0.043 -0.297 0.059 -0.094 l 0.086 0.168 l -0.016 -0.223 c -0.023 -0.266 -0.129 -0.547 -0.211 -0.547 c -0.039 0 -0.051 0.023 -0.031 0.074 c 0.031 0.102 -0.07 0.137 -0.203 0.078 c -0.082 -0.031 -0.109 -0.031 -0.133 0 c -0.098 0.055 -0.23 -0.008 -0.27 0.094 c -0.074 0.125 -0.234 0.109 -0.32 0.215 c -0.137 0.148 -0.277 -0.133 -0.344 0.035 c -0.035 0.086 -0.035 0.086 -0.078 -0.02 c -0.023 -0.059 -0.043 -0.145 -0.043 -0.195 c 0 -0.055 -0.047 -0.125 -0.129 -0.184 c -0.113 -0.086 -0.117 -0.098 -0.039 -0.098 c 0.207 0 0.266 -0.102 0.141 -0.23 c -0.078 -0.086 0 -0.094 0.145 -0.012 c 0.156 0.082 0.195 0.066 0.223 -0.098 c 0.016 -0.109 0.039 -0.145 0.078 -0.133 c 0.027 0.012 0.078 0.031 0.109 0.043 c 0.035 0.016 0.059 0.004 0.059 -0.023 c 0.094 -0.02 0.148 0.117 0.215 0.031 c 0.027 -0.035 0.082 -0.066 0.125 -0.066 c 0.188 -0.004 0.262 -0.172 0.148 -0.332 c -0.039 -0.055 -0.055 -0.121 -0.039 -0.18 c 0.023 -0.09 -0.047 -0.344 -0.137 -0.512 c -0.027 -0.047 -0.016 -0.074 0.043 -0.102 c 0.039 -0.023 0.086 -0.082 0.098 -0.133 c 0.031 -0.109 0.105 -0.176 0.395 -0.344 c 0.18 -0.102 0.484 -0.203 0.629 -0.203 c 0.012 0 0.008 -0.016 -0.008 -0.035 c 0.031 -0.07 0.098 -0.023 0.121 -0.004 c -0.023 0.035 0.16 0.078 0.355 0.078 c 0.07 0 0.133 0.012 0.133 0.031 c 0 0.016 -0.063 0.023 -0.141 0.012 c -0.109 -0.02 -0.137 0.051 -0.215 0.07 c -0.082 0 -0.098 0.059 -0.039 0.148 c 0.086 0.066 0.141 -0.008 0.234 -0.02 c 0.02 0.012 0.059 -0.008 0.086 -0.047 c 0.039 -0.055 0.086 -0.066 0.18 -0.055 c 0.25 0.035 0.094 0.199 -0.191 0.199 c -0.063 0 -0.215 0.051 -0.34 0.117 c -0.121 0.066 -0.27 0.145 -0.324 0.172 c -0.059 0.027 -0.195 0.16 -0.305 0.297 c -0.172 0.215 -0.199 0.273 -0.199 0.414 c 0 0.195 0.055 0.203 0.176 0.02 c 0.043 -0.063 0.109 -0.117 0.148 -0.117 c 0.102 -0.051 0.129 -0.156 0.215 -0.176 c 0.086 0.027 0.359 -0.199 0.359 -0.293 c 0 -0.066 0.102 -0.082 0.137 -0.023 c 0.016 0.023 0.129 -0.016 0.277 -0.094 c 0.16 -0.082 0.309 -0.129 0.402 -0.129 c 0.078 -0.004 0.168 -0.02 0.199 -0.035 c 0.039 -0.023 0.125 -0.008 0.254 0.043 c 0.109 0.043 0.289 0.082 0.395 0.09 c 0.508 0.031 0.777 0.07 0.797 0.121 c 0.012 0.043 0 0.047 -0.055 0.023 c -0.102 -0.043 -0.395 -0.07 -0.359 -0.035 c 0.016 0.016 0.117 0.059 0.223 0.094 c 0.32 0.109 0.672 0.414 0.402 0.348 c -0.059 -0.012 -0.176 -0.055 -0.262 -0.09 c -0.086 -0.039 -0.203 -0.07 -0.254 -0.074 c -0.055 0 -0.168 -0.023 -0.258 -0.055 c -0.137 -0.047 -0.16 -0.047 -0.199 0 c -0.18 0.129 -0.27 -0.066 -0.398 -0.063 c -0.035 0.02 -0.148 0.043 -0.25 0.059 c -0.137 0.008 -0.289 0.109 -0.391 0.07 c -0.121 -0.117 -0.305 -0.031 -0.543 0.262 c -0.25 0.301 -0.191 0.586 0.063 0.316 c 0.148 -0.156 0.23 -0.172 0.293 -0.059 c 0.078 0.086 0.156 0.043 0.156 0.148 c 0 0.137 0.055 0.145 0.141 0.016 c 0.043 -0.063 0.086 -0.086 0.137 -0.07 c 0.055 0.016 0.094 -0.023 0.18 -0.18 l 0.105 -0.199 l 0.039 0.141 c 0.031 0.121 0.051 0.137 0.129 0.117 c 0.051 -0.012 0.09 -0.004 0.09 0.02 c 0 0.02 0.039 0.043 0.09 0.051 c 0.066 0.008 0.094 0.043 0.109 0.141 l 0.023 0.133 l 0.066 -0.141 c 0.035 -0.078 0.082 -0.141 0.102 -0.141 c 0.07 0 0.156 0.168 0.16 0.301 c 0 0.105 0.008 0.117 0.039 0.066 c 0.156 -0.156 0.125 0.156 0.234 -0.078 c 0.078 -0.168 0.199 -0.164 0.25 0.012 c 0.047 0.168 0.051 0.168 0.117 0.117 c 0.09 -0.035 0.145 0.066 0.18 0.082 c 0 -0.023 0.035 -0.055 0.074 -0.066 c 0.047 -0.016 0.082 -0.066 0.09 -0.125 l 0.016 -0.102 l 0.047 0.109 c 0.074 0.16 -0.051 0.715 -0.195 0.879 c -0.121 0.141 -0.133 0.145 -0.16 0.043 c -0.023 -0.082 -0.172 -0.148 -0.344 -0.148 c -0.145 0 -0.145 -0.047 -0.008 -0.145 l 0.105 -0.074 l -0.094 -0.074 c -0.066 -0.051 -0.117 -0.066 -0.156 -0.047 c -0.117 0.016 -0.188 -0.082 -0.277 -0.035 c -0.074 0.039 -0.098 0.035 -0.137 -0.016 c -0.063 -0.082 -0.102 -0.078 -0.195 0.039 c -0.09 0.109 -0.047 0.113 -0.77 -0.063 l -0.258 -0.063 l -0.141 0.129 c -0.078 0.07 -0.141 0.141 -0.141 0.16 c 0 0.02 -0.035 0.035 -0.082 0.035 c -0.043 0 -0.078 0.023 -0.078 0.047 c 0 0.027 -0.027 0.016 -0.059 -0.023 c -0.051 -0.066 -0.059 -0.039 -0.063 0.281 c -0.004 0.195 -0.012 0.305 -0.02 0.242 c -0.035 -0.266 -0.148 -0.742 -0.195 -0.801 c -0.086 -0.113 -0.105 -0.02 -0.098 0.453 c 0.012 0.504 -0.039 0.773 -0.156 0.875 c -0.098 0.086 -0.098 0.164 0.004 0.141 c 0.055 -0.016 0.078 0 0.078 0.039 c 0 0.031 0.012 0.086 0.027 0.121 c 0.02 0.055 0.012 0.063 -0.047 0.039 c -0.039 -0.012 -0.109 0 -0.16 0.031 c -0.09 0.055 -0.09 0.074 -0.066 0.34 c 0.012 0.156 0.012 0.281 -0.004 0.281 c -0.012 0 -0.023 -0.063 -0.023 -0.141 m 3.289 -1.961 c 0 -0.02 -0.02 -0.039 -0.039 -0.039 c -0.023 0 -0.039 0.02 -0.039 0.039 c 0 0.02 0.016 0.035 0.039 0.035 c 0.02 0 0.039 -0.016 0.039 -0.035 m -3.258 -2.07 c 0.09 -0.078 0.191 -0.078 0.258 -0.164 c 0.109 -0.137 0.086 -0.203 -0.039 -0.113 c -0.047 0.031 -0.125 0.043 -0.215 0.031 c -0.117 -0.016 -0.148 -0.008 -0.203 0.074 c -0.086 0.125 -0.086 0.148 0.02 0.199 c 0.125 0.059 0.125 0.059 0.18 -0.027 m -3.699 3.949 c -0.023 -0.09 -0.121 -0.102 -0.156 -0.02 c -0.047 0.121 -0.207 0.043 -0.207 -0.105 c 0 -0.051 0.262 -0.141 0.406 -0.141 c 0.199 0 0.313 0.27 0.133 0.316 c -0.137 0.035 -0.156 0.027 -0.176 -0.051 m 1.359 -0.195 c 0 -0.086 -0.078 -0.102 -0.227 -0.043 c -0.168 0.066 -0.172 0.063 -0.145 -0.043 c 0.023 -0.078 0.012 -0.094 -0.055 -0.094 c -0.117 0 -0.105 -0.055 0.043 -0.16 c 0.199 -0.148 0.367 -0.219 0.508 -0.215 c 0.125 0 0.125 0.004 -0.066 0.086 c -0.109 0.047 -0.223 0.117 -0.254 0.156 c -0.059 0.063 -0.051 0.066 0.082 0.047 c 0.156 -0.023 0.41 0.02 0.473 0.078 c 0.023 0.02 0.027 0.07 0.016 0.105 c -0.027 0.066 -0.031 0.066 -0.066 0.004 c -0.055 -0.094 -0.137 -0.082 -0.227 0.039 c -0.059 0.074 -0.082 0.086 -0.082 0.039 m -2.836 -0.164 c -0.012 -0.035 -0.023 -0.09 -0.023 -0.125 c 0.004 -0.055 0.012 -0.051 0.059 0.012 c 0.066 0.082 0.078 0.172 0.023 0.172 c -0.02 0 -0.043 -0.027 -0.059 -0.059 m 1.387 -0.09 c -0.074 -0.047 -0.02 -0.102 0.125 -0.137 c 0.066 -0.016 0.109 -0.008 0.109 0.016 c 0 0.02 0.012 0.063 0.023 0.098 c 0.02 0.043 0 0.059 -0.086 0.059 c -0.063 0 -0.141 -0.016 -0.172 -0.035 m -0.328 -0.094 c 0.02 -0.051 0.133 -0.094 0.238 -0.098 c 0.07 0 0.063 0.102 -0.012 0.129 c -0.117 0.043 -0.25 0.027 -0.227 -0.031 m 7.05 -0.719 c -0.023 -0.059 -0.141 -0.074 -0.141 -0.016 c 0 0.02 -0.02 0.035 -0.039 0.035 c -0.055 0 -0.051 -0.125 0.008 -0.18 c 0.07 -0.066 0.262 -0.055 0.371 0.031 c 0.055 0.039 0.125 0.074 0.152 0.074 c 0.031 0 0.055 0.016 0.055 0.039 c 0 0.063 -0.125 0.043 -0.184 -0.027 c -0.047 -0.063 -0.055 -0.063 -0.125 0.016 c -0.063 0.07 -0.078 0.074 -0.098 0.027 m -4.457 -0.055 c -0.043 -0.141 -0.039 -0.211 0.012 -0.16 c 0.023 0.02 0.035 0.086 0.027 0.148 l -0.012 0.105 m 3.172 -0.355 c 0.012 -0.02 0.031 -0.039 0.043 -0.039 c 0.008 0 0.016 0.02 0.016 0.039 c 0 0.02 -0.02 0.035 -0.043 0.035 c -0.023 0 -0.031 -0.016 -0.016 -0.035 m -0.371 -0.102 c -0.109 -0.133 -0.059 -0.172 0.234 -0.176 c 0.219 -0.004 0.25 0.004 0.336 0.102 c 0.051 0.059 0.094 0.125 0.094 0.148 c 0 0.031 -0.012 0.027 -0.035 -0.008 c -0.023 -0.035 -0.078 -0.047 -0.176 -0.031 c -0.078 0.012 -0.148 0.008 -0.164 -0.012 c -0.035 -0.055 -0.133 -0.039 -0.133 0.02 c 0 0.086 -0.063 0.07 -0.156 -0.043 m -6.305 -0.5 c 0 -0.02 0.02 -0.039 0.039 -0.039 c 0.023 0 0.039 0.02 0.039 0.039 c 0 0.02 -0.016 0.039 -0.039 0.039 c -0.02 0 -0.039 -0.02 -0.039 -0.039 m -0.137 -1.465 c 0.016 -0.02 0.055 -0.039 0.09 -0.039 c 0.059 0.004 0.059 0.008 0.008 0.039 c -0.074 0.047 -0.129 0.047 -0.098 0" fill="#20202a"/></svg>