<svg xmlns="http://www.w3.org/2000/svg" viewBox="0 0 16 16"><path d="m 13.199 2.379 c 12.613 16.578 -22.1 18.934 -10.961 2.01 c 2.539 -3.855 7.617 -6.402 10.961 -2.01" fill="#1f374c"/><path d="m 3.469 3.332 h 9.84 c 0.008 0 0.02 0.008 0.02 0.02 v 10.184 c 0 0.012 -0.012 0.02 -0.02 0.02 h -9.84 c -0.012 0 -0.02 -0.008 -0.02 -0.02 v -10.184 c 0 -0.012 0.008 -0.02 0.02 -0.02" fill="#fff" fill-opacity="0.988"/><path d="m 3.23 8.469 v -5.227 h 8.828 l 0.094 0.414 c 0.051 0.227 0.094 0.449 0.094 0.488 c 0 0.121 -0.207 0.09 -0.32 -0.051 c -0.137 -0.168 -0.5 -0.121 -0.535 0.074 c -0.039 0.199 0.262 0.516 0.59 0.629 c 0.277 0.094 0.336 0.242 0.16 0.395 c -0.059 0.051 -0.172 0.238 -0.25 0.418 c -0.117 0.266 -0.125 0.348 -0.043 0.449 c 0.176 0.219 0.441 0.145 0.75 -0.207 c 0.16 -0.184 0.328 -0.32 0.379 -0.305 c 0.051 0.02 0.141 0.25 0.207 0.52 c 0.094 0.379 0.125 1.242 0.145 4.059 l 0.027 3.574 h -10.125 m 6.914 -2.949 c 0.457 -0.277 0.566 -1.086 0.199 -1.465 c -0.137 -0.145 -0.402 -0.141 -0.59 0.008 c -0.043 0.031 -0.207 0.059 -0.359 0.051 c -0.176 -0.004 -0.516 0.105 -0.891 0.289 c -0.473 0.234 -0.613 0.344 -0.656 0.512 c -0.027 0.121 -0.02 0.25 0.02 0.285 c 0.098 0.102 1.445 0.473 1.746 0.484 c 0.137 0.004 0.379 -0.07 0.531 -0.164 m -0.777 -2.336 c 0.254 -0.285 0.227 -0.566 -0.047 -0.535 c -0.254 0.031 -0.363 0.16 -0.422 0.488 c -0.043 0.23 -0.027 0.266 0.109 0.266 c 0.09 0 0.25 -0.098 0.359 -0.219 m 3.668 -3.305 c -0.277 -0.113 -0.551 -0.398 -0.551 -0.578 c 0 -0.215 0.324 -0.324 0.625 -0.207 c 0.227 0.09 0.242 0.125 0.242 0.488 c 0 0.414 -0.008 0.422 -0.316 0.297 m -0.078 -1.316 c 0.004 -0.348 0.094 -0.551 0.246 -0.551 c 0.18 0 0.203 0.367 0.039 0.59 c -0.145 0.199 -0.285 0.18 -0.285 -0.039" fill="#dd993d"/><path d="m 3.23 8.469 v -5.227 h 8.836 l 0.047 0.422 c 0.027 0.234 0.035 0.441 0.016 0.461 c -0.02 0.02 -0.125 -0.023 -0.234 -0.098 c -0.246 -0.164 -0.391 -0.168 -0.52 -0.008 c -0.145 0.18 0.035 0.5 0.414 0.719 c 0.34 0.203 0.359 0.277 0.141 0.645 c -0.453 0.77 0.125 1.191 0.699 0.516 c 0.137 -0.16 0.277 -0.289 0.316 -0.289 c 0.098 0 0.172 0.207 0.172 0.48 c 0 0.125 0.051 0.297 0.113 0.383 c 0.098 0.133 0.117 0.715 0.121 3.691 v 3.535 h -10.121 m 6.805 -2.617 c 0.422 -0.23 0.68 -1.168 0.457 -1.668 c -0.152 -0.348 -0.273 -0.352 -1.449 -0.031 c -0.488 0.133 -1.051 0.457 -1.195 0.688 c -0.117 0.18 -0.117 0.223 -0.02 0.324 c 0.086 0.09 1.184 0.504 2.031 0.766 c 0.012 0.004 0.094 -0.031 0.176 -0.078 m -2.324 -1.57 c 0.035 -0.055 0.055 -0.164 0.043 -0.238 c -0.012 -0.074 0.016 -0.16 0.059 -0.188 c 0.047 -0.031 0.086 0.02 0.086 0.113 c 0 0.219 0.188 0.219 0.398 0 c 0.203 -0.207 0.16 -0.363 -0.098 -0.359 c -0.152 0 -0.191 -0.031 -0.164 -0.145 c 0.02 -0.078 -0.02 -0.234 -0.094 -0.348 c -0.105 -0.172 -0.156 -0.191 -0.285 -0.121 c -0.086 0.047 -0.156 0.172 -0.156 0.281 c 0 0.285 -0.137 0.613 -0.273 0.66 c -0.066 0.02 -0.18 0.055 -0.246 0.078 c -0.102 0.035 -0.109 0.066 -0.035 0.16 c 0.152 0.191 0.672 0.262 0.766 0.105 m -1.086 -0.73 c -0.063 -0.117 -0.113 -0.141 -0.172 -0.078 c -0.059 0.063 -0.055 0.125 0.016 0.211 c 0.141 0.176 0.262 0.074 0.156 -0.133 m 2.559 -0.113 c 0.371 -0.09 0.637 -0.852 0.297 -0.852 c -0.32 0 -0.555 0.18 -0.555 0.422 c 0 0.148 -0.043 0.23 -0.117 0.23 c -0.063 0 -0.133 0.039 -0.16 0.082 c -0.078 0.129 0.039 0.258 0.184 0.211 c 0.074 -0.02 0.23 -0.063 0.352 -0.094 m 1.48 -0.293 c 0.277 -0.297 0.316 -0.688 0.098 -0.965 l -0.141 -0.18 l -0.148 0.168 c -0.141 0.164 -0.141 0.168 0.063 0.266 c 0.242 0.113 0.246 0.129 0.082 0.473 c -0.102 0.211 -0.172 0.258 -0.336 0.238 c -0.117 -0.012 -0.262 0.012 -0.328 0.055 c -0.094 0.059 -0.082 0.086 0.078 0.133 c 0.336 0.094 0.387 0.078 0.633 -0.188 m -3.445 -0.191 c 0.082 -0.066 0.133 -0.141 0.109 -0.164 c -0.074 -0.074 -0.473 0.117 -0.418 0.207 c 0.063 0.105 0.125 0.098 0.309 -0.043 m 3.03 -0.105 c 0.02 -0.055 -0.023 -0.098 -0.094 -0.098 c -0.066 0 -0.125 0.059 -0.125 0.129 c 0 0.145 0.172 0.117 0.219 -0.031 m 2.418 -0.133 c 0.023 -0.063 -0.012 -0.137 -0.078 -0.164 c -0.219 -0.086 -0.273 -0.051 -0.188 0.117 c 0.102 0.191 0.203 0.211 0.266 0.047 m -0.594 -0.813 c -0.02 -0.09 -0.063 -0.105 -0.137 -0.059 c -0.066 0.043 -0.09 0.129 -0.059 0.215 c 0.066 0.18 0.238 0.039 0.195 -0.156 m -0.461 -1.602 c 0.094 -0.066 0.102 -0.105 0.023 -0.227 c -0.055 -0.078 -0.16 -0.27 -0.234 -0.426 c -0.199 -0.406 -0.801 -1.035 -0.898 -0.934 c -0.137 0.141 0.73 1.668 0.945 1.664 c 0.023 0 0.098 -0.035 0.164 -0.078 m 1.582 -0.496 c 0 -0.051 0.035 -0.066 0.078 -0.039 c 0.043 0.027 0.078 0.066 0.078 0.09 c 0 0.02 -0.035 0.035 -0.078 0.035 c -0.043 0 -0.078 -0.039 -0.078 -0.086 m -0.469 -0.273 c -0.133 -0.148 -0.152 -0.211 -0.078 -0.262 c 0.059 -0.035 0.113 -0.02 0.133 0.039 c 0.02 0.055 0.109 0.172 0.199 0.258 c 0.125 0.121 0.137 0.16 0.043 0.16 c -0.063 0 -0.199 -0.09 -0.297 -0.195 m 0.273 -0.859 c -0.027 -0.047 -0.027 -0.215 0 -0.375 c 0.039 -0.207 0.094 -0.285 0.203 -0.285 c 0.109 0 0.148 0.059 0.148 0.23 c 0 0.254 -0.266 0.574 -0.352 0.43" fill="#dc6919"/><path d="m 3.336 8.469 v -5.227 h 8.742 l 0.047 0.422 c 0.027 0.234 0.035 0.441 0.016 0.461 c -0.02 0.02 -0.125 -0.023 -0.23 -0.098 c -0.246 -0.164 -0.387 -0.168 -0.516 -0.008 c -0.145 0.18 0.035 0.5 0.41 0.719 c 0.34 0.203 0.355 0.277 0.141 0.645 c -0.449 0.77 0.121 1.191 0.691 0.516 c 0.133 -0.16 0.273 -0.289 0.313 -0.289 c 0.098 0 0.168 0.207 0.168 0.48 c 0 0.125 0.051 0.297 0.117 0.383 c 0.094 0.133 0.113 0.715 0.117 3.691 v 3.535 h -10.02 m 8.473 -2.352 c 0.074 -0.07 0.137 -0.176 0.137 -0.238 c 0 -0.074 -0.113 -0.02 -0.313 0.148 c -0.172 0.145 -0.313 0.293 -0.313 0.332 c 0 0.082 0.289 -0.063 0.488 -0.242 m -1.738 -0.266 c 0.418 -0.23 0.672 -1.168 0.453 -1.668 c -0.152 -0.348 -0.27 -0.352 -1.434 -0.031 c -0.484 0.133 -1.043 0.457 -1.187 0.688 c -0.113 0.18 -0.113 0.223 -0.016 0.324 c 0.086 0.09 1.172 0.504 2.01 0.766 c 0.016 0.004 0.094 -0.031 0.176 -0.078 m -2.047 -1.645 c 0.156 -0.094 0.371 -0.273 0.477 -0.398 c 0.281 -0.324 0.848 -0.469 1.508 -0.383 l 0.531 0.07 l 0.215 -0.266 c 0.359 -0.445 0.359 -0.793 -0.004 -1.195 c -0.137 -0.152 -0.246 -0.184 -0.656 -0.184 c -0.547 0 -0.637 0.102 -0.242 0.27 c 0.34 0.148 0.488 0.332 0.352 0.441 c -0.148 0.125 -0.445 0.18 -0.492 0.098 c -0.063 -0.102 -0.301 -0.094 -0.539 0.02 c -0.141 0.066 -0.199 0.16 -0.199 0.309 c 0 0.32 -0.277 0.414 -0.652 0.219 c -0.262 -0.133 -0.293 -0.184 -0.273 -0.406 c 0.02 -0.215 0.09 -0.293 0.441 -0.488 c 0.227 -0.129 0.398 -0.25 0.375 -0.273 c -0.078 -0.082 -0.945 0.52 -1.078 0.754 c -0.176 0.301 -0.188 0.332 -0.273 0.727 c -0.066 0.309 -0.141 0.391 -0.449 0.492 c -0.113 0.039 -0.125 0.07 -0.051 0.164 c 0.09 0.113 0.27 0.172 0.582 0.195 c 0.078 0.008 0.273 -0.066 0.43 -0.164 m 1.574 -1.109 c 0 -0.035 0.035 -0.117 0.074 -0.184 c 0.09 -0.148 0.195 -0.055 0.133 0.117 c -0.047 0.129 -0.207 0.18 -0.207 0.066 m -3.133 1.02 c 0 -0.055 -0.141 -0.184 -0.313 -0.289 c -0.457 -0.273 -0.734 -0.754 -0.734 -1.273 c 0 -0.262 0.055 -0.516 0.145 -0.676 c 0.145 -0.254 0.145 -0.262 -0.012 -0.469 c -0.184 -0.242 -0.215 -0.219 -0.484 0.336 c -0.313 0.648 -0.164 1.238 0.477 1.871 c 0.559 0.551 0.926 0.75 0.922 0.5 m 0.23 -0.566 c -0.063 -0.117 -0.109 -0.141 -0.168 -0.078 c -0.063 0.063 -0.055 0.125 0.016 0.211 c 0.137 0.176 0.258 0.074 0.152 -0.133 m 0.77 -0.703 c 0.223 -0.297 0.047 -0.352 -0.301 -0.094 c -0.125 0.094 -0.207 0.207 -0.184 0.25 c 0.063 0.105 0.359 0.008 0.484 -0.156 m 5.309 -0.16 c 0.156 -0.211 0.137 -0.785 -0.027 -0.938 c -0.242 -0.219 -0.527 -0.242 -0.754 -0.055 c -0.113 0.09 -0.203 0.207 -0.203 0.254 c 0 0.047 0.141 0.23 0.313 0.41 c 0.172 0.18 0.313 0.359 0.313 0.398 c 0 0.129 0.254 0.078 0.359 -0.07 m -0.539 -0.563 c -0.063 -0.066 0.008 -0.191 0.105 -0.191 c 0.039 0 0.074 0.055 0.074 0.121 c 0 0.125 -0.094 0.164 -0.18 0.07 m -4.641 -1.18 c 0.426 -0.41 0.551 -0.648 0.328 -0.648 c -0.203 0 -0.207 -0.262 -0.008 -0.617 c 0.109 -0.195 0.234 -0.375 0.273 -0.402 c 0.117 -0.074 0.098 -0.203 -0.027 -0.203 c -0.309 0 -1.055 1.25 -1.188 1.984 c -0.078 0.426 0.086 0.398 0.621 -0.113 m 4.09 -0.691 c 0.023 -0.07 -0.004 -0.188 -0.066 -0.266 c -0.063 -0.078 -0.16 -0.25 -0.223 -0.383 c -0.184 -0.387 -0.77 -0.988 -0.863 -0.887 c -0.059 0.059 0.004 0.258 0.207 0.648 c 0.449 0.867 0.82 1.219 0.945 0.887 m 1.512 -0.449 c 0 -0.051 0.035 -0.066 0.078 -0.039 c 0.043 0.027 0.078 0.066 0.078 0.086 c 0 0.023 -0.035 0.039 -0.078 0.039 c -0.043 0 -0.078 -0.039 -0.078 -0.086 m -0.461 -0.273 c -0.098 -0.109 -0.148 -0.211 -0.113 -0.23 c 0.039 -0.016 0.16 0.07 0.277 0.195 c 0.113 0.129 0.164 0.23 0.109 0.23 c -0.055 0 -0.176 -0.09 -0.273 -0.195 m 0.27 -0.859 c -0.027 -0.047 -0.027 -0.215 0 -0.375 c 0.039 -0.207 0.094 -0.285 0.199 -0.285 c 0.113 0 0.148 0.059 0.148 0.23 c 0 0.254 -0.262 0.574 -0.348 0.43" fill="#a35a1c"/><path d="m 3.172 8.5 v -5.301 h 8.906 v 0.375 c 0 0.301 -0.023 0.363 -0.121 0.316 c -0.066 -0.027 -0.219 -0.07 -0.344 -0.094 c -0.191 -0.031 -0.234 0 -0.316 0.219 c -0.102 0.285 -0.199 0.332 -0.27 0.133 c -0.055 -0.141 -0.434 -0.371 -0.621 -0.371 c -0.078 0 -0.105 0.051 -0.074 0.145 c 0.086 0.277 0.531 1.141 0.723 1.41 c 0.176 0.246 0.184 0.297 0.094 0.559 c -0.141 0.395 -0.02 0.469 0.242 0.145 c 0.25 -0.309 0.328 -0.332 0.328 -0.109 c 0 0.207 0.207 0.422 0.406 0.422 c 0.086 0 0.316 -0.152 0.512 -0.34 l 0.352 -0.34 l 0.051 0.238 c 0.102 0.477 0.211 0.773 0.285 0.773 c 0.043 0 0.07 1.406 0.066 3.563 l -0.004 3.563 h -10.219 v -5.305 m 2.746 4.359 c 0.047 -0.133 -0.148 -0.453 -0.227 -0.371 c -0.063 0.066 0.039 0.484 0.117 0.484 c 0.035 0 0.082 -0.051 0.109 -0.113 m 2.105 -0.148 c -0.027 -0.066 -0.047 -0.047 -0.051 0.051 c -0.004 0.086 0.016 0.133 0.043 0.105 c 0.027 -0.027 0.027 -0.098 0.008 -0.156 m 3.254 -0.68 c 0.398 -0.246 0.844 -0.762 0.844 -0.98 c 0 -0.184 -0.184 -0.191 -0.324 -0.02 c -0.055 0.074 -0.207 0.188 -0.332 0.254 c -0.129 0.07 -0.367 0.254 -0.535 0.41 c -0.168 0.156 -0.438 0.34 -0.602 0.414 c -0.238 0.102 -0.277 0.148 -0.207 0.242 c 0.078 0.098 0.148 0.098 0.445 0.004 c 0.195 -0.063 0.516 -0.207 0.711 -0.324 m -1.066 -0.887 c 0.398 -0.41 0.547 -1.348 0.285 -1.766 c -0.109 -0.176 -0.195 -0.215 -0.473 -0.215 c -0.414 0 -0.93 0.16 -1.504 0.457 c -0.938 0.484 -1.063 0.91 -0.313 1.078 c 0.305 0.066 1.328 0.477 1.414 0.563 c 0.105 0.113 0.43 0.051 0.59 -0.117 m -2.043 -1.73 c 0.758 -0.625 0.75 -0.621 1.352 -0.621 c 0.313 -0.004 0.699 0.027 0.863 0.063 c 0.242 0.055 0.301 0.043 0.301 -0.059 c 0 -0.066 0.09 -0.223 0.195 -0.344 c 0.109 -0.121 0.219 -0.289 0.246 -0.379 c 0.074 -0.234 -0.094 -0.676 -0.352 -0.934 l -0.23 -0.227 l -0.852 0.082 c -0.656 0.066 -0.945 0.133 -1.246 0.297 c -0.219 0.117 -0.473 0.215 -0.566 0.215 c -0.188 0 -0.953 0.426 -1.105 0.617 c -0.148 0.184 -0.023 0.301 0.301 0.273 c 0.285 -0.02 0.293 -0.016 0.281 0.25 c -0.023 0.574 -0.406 0.695 -0.641 0.203 c -0.184 -0.391 -0.387 -0.414 -0.383 -0.039 c 0 0.188 -0.039 0.27 -0.125 0.27 c -0.137 0 -0.566 -0.438 -0.707 -0.719 c -0.148 -0.305 -0.105 -0.926 0.086 -1.281 c 0.172 -0.316 0.172 -0.324 0.02 -0.441 c -0.152 -0.117 -0.152 -0.125 0.031 -0.461 c 0.102 -0.191 0.164 -0.367 0.141 -0.395 c -0.102 -0.105 -0.629 0.551 -0.902 1.117 c -0.336 0.707 -0.324 0.918 0.098 1.574 c 0.484 0.758 1.477 1.387 1.477 0.934 c 0 -0.234 0.273 -0.211 0.383 0.035 c 0.047 0.113 0.172 0.219 0.273 0.238 c 0.496 0.098 0.664 0.055 1.062 -0.27 m 0.48 -0.992 c -0.027 -0.047 -0.16 -0.086 -0.289 -0.086 c -0.562 0 -0.277 -0.523 0.453 -0.832 c 0.465 -0.195 0.836 -0.18 1.117 0.043 c 0.133 0.105 0.137 0.133 0.035 0.203 c -0.066 0.043 -0.191 0.063 -0.281 0.039 c -0.086 -0.023 -0.293 0.016 -0.453 0.086 c -0.219 0.094 -0.301 0.184 -0.32 0.348 c -0.027 0.234 -0.172 0.348 -0.262 0.199 m 4.188 -0.371 c 0.109 -0.121 0.199 -0.344 0.223 -0.559 c 0.051 -0.48 -0.223 -0.813 -0.668 -0.813 c -0.555 0 -0.887 0.578 -0.484 0.848 c 0.102 0.07 0.27 0.262 0.379 0.426 c 0.23 0.352 0.309 0.367 0.551 0.098 m -5.617 -1.469 c 0.398 -0.313 0.91 -0.848 0.91 -0.953 c 0 -0.059 -0.074 -0.145 -0.16 -0.195 c -0.223 -0.121 -0.203 -0.25 0.117 -0.742 c 0.328 -0.504 0.34 -0.582 0.105 -0.582 c -0.215 0 -0.797 0.617 -1.031 1.094 c -0.215 0.434 -0.473 1.203 -0.473 1.406 c 0 0.207 0.246 0.195 0.531 -0.027 m 4.34 -1.695 c -0.105 -0.293 -0.063 -0.316 0.191 -0.109 c 0.254 0.207 0.27 0.328 0.051 0.328 c -0.102 0 -0.191 -0.082 -0.242 -0.219 m 1.484 -1.02 c -0.027 -0.047 -0.027 -0.219 0.004 -0.379 c 0.035 -0.211 0.094 -0.289 0.203 -0.289 c 0.113 0 0.148 0.059 0.148 0.234 c 0 0.254 -0.266 0.582 -0.355 0.434" fill="#254055"/><path d="m 3.129 9.66 v -4.04 l 0.281 -0.098 c 0.164 -0.055 0.379 -0.07 0.5 -0.035 c 0.285 0.082 0.562 0.051 0.848 -0.094 c 0.273 -0.137 0.313 -0.141 0.25 -0.039 c -0.063 0.102 0.273 0.063 0.492 -0.063 c 0.348 -0.191 0.359 -0.063 0.027 0.324 c -0.508 0.586 -0.199 0.43 0.461 -0.234 c 0.199 -0.203 0.488 -0.242 0.637 -0.086 c 0.078 0.074 0.098 0.059 0.098 -0.074 c 0 -0.199 1.051 -1.332 1.234 -1.332 c 0.078 0 -0.016 0.141 -0.242 0.363 c -0.203 0.199 -0.348 0.398 -0.32 0.441 c 0.027 0.047 0.008 0.109 -0.043 0.141 c -0.063 0.039 -0.074 0.023 -0.035 -0.055 c 0.031 -0.063 0 -0.043 -0.066 0.039 c -0.066 0.086 -0.102 0.195 -0.074 0.238 c 0.031 0.051 0.012 0.059 -0.055 0.016 c -0.078 -0.047 -0.094 -0.027 -0.055 0.074 c 0.035 0.094 0.023 0.121 -0.039 0.082 c -0.063 -0.039 -0.074 -0.016 -0.039 0.082 c 0.035 0.094 0.023 0.121 -0.039 0.082 c -0.063 -0.043 -0.078 -0.016 -0.043 0.078 c 0.035 0.094 0.023 0.121 -0.039 0.086 c -0.063 -0.043 -0.074 -0.004 -0.043 0.117 c 0.027 0.113 0.012 0.156 -0.043 0.121 c -0.055 -0.035 -0.066 0.012 -0.039 0.125 c 0.023 0.094 0.016 0.156 -0.02 0.133 c -0.102 -0.063 -0.184 0.27 -0.125 0.496 c 0.09 0.367 0.406 0.234 1.145 -0.484 c 0.379 -0.367 0.414 -0.496 0.18 -0.625 c -0.223 -0.121 -0.203 -0.246 0.117 -0.734 c 0.309 -0.465 0.332 -0.539 0.18 -0.594 c -0.055 -0.016 0.039 -0.059 0.207 -0.09 c 0.293 -0.059 0.891 0.098 1.148 0.297 c 0.055 0.043 0.156 0.035 0.258 -0.016 c 0.129 -0.074 0.152 -0.141 0.109 -0.344 c -0.078 -0.402 0.117 -0.258 0.457 0.344 c 0.168 0.289 0.414 0.707 0.551 0.926 c 0.23 0.367 0.242 0.422 0.152 0.672 c -0.137 0.383 -0.012 0.449 0.246 0.133 c 0.25 -0.305 0.328 -0.328 0.328 -0.109 c 0 0.203 0.207 0.414 0.406 0.414 c 0.086 0 0.316 -0.148 0.512 -0.332 l 0.352 -0.336 l 0.051 0.234 c 0.102 0.473 0.211 0.762 0.285 0.762 c 0.043 0 0.07 1.387 0.066 3.516 l -0.004 3.512 h -10.215 m 2.742 -0.93 c 0.047 -0.129 -0.145 -0.445 -0.223 -0.367 c -0.066 0.066 0.035 0.48 0.117 0.48 c 0.031 0 0.082 -0.051 0.105 -0.113 m 2.105 -0.148 c -0.027 -0.063 -0.047 -0.043 -0.051 0.051 c -0.004 0.086 0.016 0.133 0.043 0.105 c 0.027 -0.027 0.031 -0.098 0.008 -0.156 m 3.254 -0.672 c 0.398 -0.238 0.844 -0.746 0.844 -0.965 c 0 -0.18 -0.184 -0.188 -0.324 -0.016 c -0.055 0.07 -0.207 0.184 -0.332 0.25 c -0.129 0.066 -0.367 0.246 -0.535 0.402 c -0.168 0.152 -0.438 0.336 -0.602 0.406 c -0.238 0.102 -0.277 0.148 -0.207 0.242 c 0.078 0.094 0.148 0.094 0.445 0.004 c 0.195 -0.063 0.516 -0.207 0.711 -0.324 m -1.203 -0.75 c 0.066 -0.027 0.238 -0.227 0.375 -0.449 c 0.227 -0.363 0.25 -0.453 0.219 -0.891 c -0.023 -0.328 -0.086 -0.539 -0.188 -0.66 c -0.16 -0.18 -0.25 -0.184 -1.074 -0.035 c -0.438 0.082 -1.504 0.617 -1.637 0.828 c -0.277 0.43 -0.109 0.582 0.98 0.883 c 0.449 0.129 0.836 0.262 0.863 0.301 c 0.047 0.082 0.281 0.094 0.461 0.023 m 3 -1.16 c 0 -0.172 -0.016 -0.195 -0.078 -0.098 c -0.102 0.16 -0.102 0.434 0 0.367 c 0.043 -0.027 0.078 -0.148 0.078 -0.27 m -4.91 -0.668 c 0.758 -0.617 0.75 -0.613 1.352 -0.613 c 0.313 0 0.699 0.027 0.863 0.063 c 0.242 0.055 0.301 0.043 0.301 -0.055 c 0 -0.07 0.09 -0.223 0.195 -0.34 c 0.109 -0.121 0.219 -0.289 0.246 -0.375 c 0.074 -0.23 -0.094 -0.668 -0.355 -0.922 l -0.227 -0.223 l -0.852 0.082 c -0.656 0.063 -0.945 0.129 -1.246 0.293 c -0.219 0.113 -0.473 0.207 -0.566 0.207 c -0.188 0 -0.953 0.422 -1.105 0.613 c -0.148 0.18 -0.023 0.297 0.301 0.27 c 0.285 -0.023 0.293 -0.016 0.281 0.246 c -0.023 0.566 -0.406 0.688 -0.641 0.199 c -0.184 -0.387 -0.387 -0.406 -0.383 -0.039 c 0 0.188 -0.039 0.266 -0.125 0.266 c -0.137 0 -0.566 -0.43 -0.707 -0.711 c -0.148 -0.297 -0.105 -0.91 0.086 -1.262 c 0.172 -0.313 0.172 -0.316 0.02 -0.434 c -0.152 -0.117 -0.152 -0.125 0.031 -0.457 c 0.219 -0.395 0.176 -0.512 -0.094 -0.254 c -0.102 0.098 -0.203 0.156 -0.23 0.129 c -0.07 -0.07 -0.227 0.258 -0.156 0.336 c 0.031 0.035 0.012 0.035 -0.043 0.004 c -0.09 -0.051 -0.137 0.039 -0.109 0.219 c 0.004 0.031 -0.031 0.059 -0.078 0.059 c -0.047 0 -0.063 0.039 -0.035 0.082 c 0.027 0.047 0.012 0.082 -0.039 0.082 c -0.047 0 -0.066 0.035 -0.039 0.082 c 0.027 0.047 0.02 0.082 -0.02 0.082 c -0.078 0 -0.121 0.234 -0.129 0.664 c -0.008 0.406 0.457 1.109 1.012 1.539 c 0.473 0.363 0.773 0.43 0.773 0.164 c 0 -0.223 0.211 -0.203 0.363 0.039 c 0.07 0.109 0.207 0.215 0.301 0.234 c 0.484 0.094 0.66 0.051 1.055 -0.27 m -0.094 -1.195 c -0.121 -0.32 0.926 -0.914 1.438 -0.816 c 0.145 0.027 0.336 0.105 0.418 0.172 c 0.129 0.098 0.137 0.133 0.043 0.195 c -0.063 0.043 -0.234 0.055 -0.379 0.031 c -0.371 -0.063 -0.746 0.113 -0.746 0.344 c 0 0.164 -0.043 0.188 -0.363 0.191 c -0.258 0.008 -0.379 -0.027 -0.41 -0.117 m 4.762 -0.148 c 0.109 -0.121 0.199 -0.34 0.223 -0.555 c 0.051 -0.473 -0.223 -0.801 -0.668 -0.801 c -0.555 0 -0.887 0.574 -0.484 0.84 c 0.098 0.066 0.27 0.258 0.379 0.418 c 0.23 0.348 0.309 0.363 0.551 0.098 m -1.277 -3.121 c -0.109 -0.289 -0.063 -0.313 0.191 -0.109 c 0.254 0.207 0.27 0.324 0.051 0.324 c -0.102 0 -0.191 -0.082 -0.242 -0.215 m -0.82 -1.023 l -0.383 -0.406 l 0.344 0.051 c 0.281 0.043 0.375 0.023 0.52 -0.117 c 0.117 -0.113 0.281 -0.168 0.5 -0.168 c 0.305 0 0.324 0.012 0.324 0.238 c 0 0.129 0.023 0.301 0.051 0.383 c 0.047 0.117 0.027 0.129 -0.098 0.074 c -0.086 -0.035 -0.254 -0.082 -0.379 -0.105 c -0.191 -0.031 -0.234 -0.004 -0.316 0.215 c -0.051 0.141 -0.113 0.254 -0.137 0.25 c -0.023 -0.004 -0.215 -0.191 -0.426 -0.414 m 2.422 -0.43 c 0 -0.137 0.043 -0.211 0.125 -0.211 c 0.082 0 0.117 0.059 0.098 0.176 c -0.035 0.262 -0.223 0.289 -0.223 0.035" fill="#1f374c"/><path d="m 3.129 12.371 v -1.328 l 0.281 -0.195 c 0.324 -0.227 0.68 -0.242 0.969 -0.047 c 0.188 0.125 0.211 0.125 0.355 -0.008 c 0.121 -0.113 0.191 -0.125 0.332 -0.059 c 0.223 0.109 0.801 0.27 0.945 0.266 c 0.063 -0.004 0 -0.055 -0.141 -0.117 c -0.176 -0.078 -0.266 -0.184 -0.305 -0.359 c -0.07 -0.324 0.004 -0.434 0.266 -0.402 c 0.164 0.02 0.219 -0.016 0.234 -0.152 c 0.02 -0.133 -0.066 -0.242 -0.324 -0.426 c -0.602 -0.422 -1.18 -1.238 -1.168 -1.645 c 0 -0.066 0.035 -0.039 0.074 0.066 c 0.156 0.391 0.582 0.926 0.988 1.242 c 0.469 0.359 0.766 0.426 0.766 0.16 c 0 -0.223 0.148 -0.203 0.355 0.043 c 0.125 0.152 0.277 0.219 0.566 0.25 c 0.371 0.043 0.422 0.023 0.797 -0.285 c 0.746 -0.617 0.746 -0.617 1.352 -0.617 c 0.313 0 0.699 0.027 0.863 0.063 c 0.242 0.051 0.301 0.043 0.301 -0.059 c 0 -0.066 0.09 -0.219 0.195 -0.336 c 0.109 -0.121 0.219 -0.289 0.246 -0.375 c 0.074 -0.23 -0.094 -0.668 -0.355 -0.922 l -0.227 -0.223 l -0.852 0.082 c -0.656 0.063 -0.945 0.129 -1.246 0.289 c -0.219 0.117 -0.473 0.211 -0.566 0.211 c -0.188 0 -0.953 0.422 -1.105 0.609 c -0.148 0.184 -0.023 0.297 0.301 0.273 c 0.285 -0.023 0.293 -0.016 0.281 0.242 c -0.023 0.566 -0.406 0.688 -0.641 0.203 c -0.184 -0.387 -0.387 -0.406 -0.383 -0.039 c 0 0.188 -0.039 0.266 -0.125 0.266 c -0.137 0 -0.566 -0.43 -0.707 -0.711 c -0.148 -0.297 -0.105 -0.91 0.086 -1.262 c 0.172 -0.313 0.172 -0.32 0.02 -0.434 c -0.152 -0.117 -0.152 -0.125 0.031 -0.457 c 0.223 -0.406 0.172 -0.508 -0.125 -0.234 c -0.133 0.121 -0.172 0.137 -0.098 0.039 c 0.184 -0.246 0.723 -0.621 0.898 -0.621 c 0.164 0 0.164 -0.031 0.008 0.727 c -0.055 0.281 0.094 0.613 0.25 0.551 c 0.059 -0.023 0.121 0 0.137 0.051 c 0.059 0.172 0.434 -0.016 0.926 -0.473 c 0.527 -0.488 0.59 -0.633 0.336 -0.773 c -0.223 -0.121 -0.203 -0.246 0.117 -0.734 c 0.309 -0.465 0.328 -0.535 0.18 -0.602 c -0.25 -0.113 0.586 0.066 0.941 0.203 c 0.512 0.195 0.57 0.195 0.879 -0.047 l 0.258 -0.203 l 0.262 0.508 c 0.145 0.281 0.348 0.629 0.453 0.773 c 0.176 0.246 0.184 0.293 0.094 0.551 c -0.137 0.391 -0.02 0.461 0.242 0.145 c 0.25 -0.305 0.328 -0.332 0.328 -0.109 c 0 0.203 0.207 0.414 0.406 0.414 c 0.086 0 0.316 -0.148 0.512 -0.332 l 0.352 -0.336 l 0.051 0.234 c 0.102 0.473 0.211 0.762 0.285 0.762 c 0.043 0 0.07 1.387 0.066 3.512 l -0.004 3.516 h -10.215 m 2.742 -0.934 c 0.047 -0.129 -0.145 -0.441 -0.223 -0.363 c -0.066 0.066 0.035 0.48 0.117 0.48 c 0.031 0 0.082 -0.051 0.105 -0.117 m 2.105 -0.145 c -0.027 -0.066 -0.047 -0.047 -0.051 0.051 c -0.004 0.086 0.016 0.133 0.043 0.105 c 0.027 -0.027 0.031 -0.098 0.008 -0.156 m 3.254 -0.672 c 0.398 -0.238 0.844 -0.746 0.844 -0.965 c 0 -0.18 -0.184 -0.188 -0.324 -0.016 c -0.055 0.07 -0.207 0.18 -0.332 0.25 c -0.129 0.066 -0.367 0.246 -0.535 0.402 c -0.168 0.152 -0.438 0.336 -0.602 0.406 c -0.238 0.102 -0.277 0.148 -0.207 0.242 c 0.078 0.094 0.148 0.094 0.445 0.004 c 0.195 -0.063 0.516 -0.207 0.711 -0.324 m -1.094 -0.852 c 0.551 -0.586 0.68 -1.059 0.457 -1.637 c -0.16 -0.402 -0.402 -0.539 -0.727 -0.414 c -0.117 0.047 -0.359 0.098 -0.531 0.113 c -0.414 0.043 -1.488 0.598 -1.68 0.871 c -0.121 0.172 -0.133 0.25 -0.063 0.387 c 0.086 0.164 0.367 0.27 1.547 0.586 c 0.211 0.059 0.402 0.133 0.426 0.172 c 0.074 0.125 0.426 0.078 0.57 -0.078 m -3.02 -0.434 c 0 -0.168 -0.078 -0.324 -0.258 -0.504 l -0.262 -0.262 l -0.023 0.27 c -0.02 0.199 0.031 0.34 0.199 0.539 c 0.262 0.313 0.344 0.305 0.344 -0.043 m 5.863 -0.293 c 0.129 -0.668 0.137 -0.824 0.051 -0.879 c -0.051 -0.031 -0.105 -0.043 -0.125 -0.027 c -0.055 0.055 -0.184 1 -0.145 1.066 c 0.078 0.129 0.176 0.055 0.219 -0.16 m -0.195 -2.344 c 0.109 -0.121 0.199 -0.34 0.223 -0.555 c 0.051 -0.473 -0.223 -0.801 -0.668 -0.801 c -0.555 0 -0.887 0.57 -0.484 0.84 c 0.098 0.066 0.27 0.254 0.379 0.418 c 0.23 0.348 0.305 0.359 0.551 0.098 m -4.762 0.152 c -0.023 -0.066 0.02 -0.203 0.102 -0.297 c 0.172 -0.199 0.918 -0.559 1.152 -0.559 c 0.219 0 0.715 0.219 0.715 0.316 c 0 0.129 -0.242 0.18 -0.414 0.086 c -0.223 -0.125 -0.863 0.121 -0.863 0.332 c 0 0.238 -0.605 0.348 -0.691 0.121 m 3.484 -3.273 c -0.109 -0.289 -0.063 -0.313 0.191 -0.109 c 0.254 0.203 0.27 0.324 0.051 0.324 c -0.102 0 -0.191 -0.082 -0.242 -0.215 m -0.617 -0.816 c -0.227 -0.266 -0.227 -0.297 0.047 -0.422 c 0.121 -0.055 0.301 -0.176 0.395 -0.266 c 0.094 -0.09 0.281 -0.16 0.414 -0.16 c 0.215 0 0.246 0.027 0.246 0.238 c 0 0.129 0.023 0.301 0.051 0.379 c 0.047 0.117 0.027 0.133 -0.098 0.078 c -0.086 -0.035 -0.254 -0.082 -0.379 -0.105 c -0.191 -0.035 -0.234 -0.004 -0.316 0.215 c -0.051 0.141 -0.113 0.254 -0.137 0.254 c -0.023 0 -0.121 -0.094 -0.223 -0.211 m 2.297 -0.688 c 0 -0.09 0.035 -0.16 0.082 -0.16 c 0.043 0 0.078 0.07 0.078 0.16 c 0 0.09 -0.035 0.164 -0.078 0.164 c -0.047 0 -0.082 -0.074 -0.082 -0.164" fill="#671717"/><path d="m 3.129 12.371 v -1.328 l 0.281 -0.195 c 0.324 -0.227 0.68 -0.242 0.969 -0.047 c 0.188 0.125 0.211 0.125 0.355 -0.008 c 0.121 -0.113 0.191 -0.125 0.332 -0.059 c 0.223 0.109 0.801 0.27 0.945 0.266 c 0.063 -0.004 0 -0.055 -0.141 -0.117 c -0.176 -0.078 -0.266 -0.184 -0.305 -0.359 c -0.07 -0.324 0.004 -0.434 0.266 -0.402 c 0.164 0.02 0.219 -0.016 0.234 -0.152 c 0.02 -0.133 -0.063 -0.242 -0.316 -0.422 c -0.391 -0.277 -0.695 -0.598 -0.91 -0.953 c -0.09 -0.152 -0.004 -0.086 0.227 0.176 c 0.371 0.414 1.063 0.926 1.246 0.926 c 0.051 0 0.133 -0.098 0.176 -0.219 l 0.082 -0.223 l 0.176 0.219 c 0.133 0.164 0.277 0.23 0.578 0.27 c 0.387 0.051 0.418 0.039 0.828 -0.305 c 0.234 -0.195 0.5 -0.41 0.59 -0.477 c 0.188 -0.137 0.98 -0.164 1.645 -0.051 c 0.414 0.07 0.426 0.066 0.375 -0.098 c -0.039 -0.121 -0.004 -0.215 0.109 -0.316 c 0.09 -0.078 0.203 -0.262 0.25 -0.406 c 0.086 -0.277 -0.004 -0.586 -0.301 -1 l -0.141 -0.195 l 0.316 0.055 c 0.176 0.027 0.383 0.051 0.461 0.055 c 0.082 0 0.137 0.063 0.137 0.148 c 0 0.082 0.137 0.297 0.301 0.473 c 0.168 0.176 0.355 0.406 0.426 0.512 c 0.172 0.277 0.422 0.168 0.633 -0.281 c 0.098 -0.199 0.223 -0.363 0.285 -0.363 c 0.094 0 0.113 0.211 0.113 1.105 c 0 1.117 -0.051 1.285 -0.285 0.957 c -0.137 -0.191 -0.172 -0.133 -0.262 0.434 c -0.066 0.402 -0.059 0.504 0.043 0.582 c 0.234 0.188 0.094 0.395 -0.285 0.422 c -0.379 0.027 -0.375 0.047 -0.203 -0.559 c 0.047 -0.168 -0.008 -0.137 -0.332 0.191 c -0.215 0.219 -0.496 0.453 -0.625 0.52 c -0.129 0.07 -0.406 0.266 -0.617 0.438 c -0.215 0.172 -0.512 0.352 -0.668 0.406 c -0.301 0.102 -0.371 0.309 -0.16 0.488 c 0.184 0.156 0.457 0.125 0.961 -0.113 c 0.547 -0.254 0.543 -0.254 0.477 -0.051 c -0.047 0.156 -0.012 0.164 0.59 0.164 c 0.352 0 0.66 -0.035 0.688 -0.082 c 0.09 -0.148 0.199 -0.086 0.441 0.258 c 0.18 0.254 0.238 0.43 0.238 0.695 v 0.355 h -10.223 m 2.625 -0.477 c 0.258 -0.371 0.289 -0.629 0.094 -0.828 c -0.219 -0.227 -0.324 -0.148 -0.309 0.227 c 0.004 0.168 -0.031 0.387 -0.082 0.48 c -0.211 0.402 0.035 0.5 0.297 0.121 m 2.105 0.07 c 0.125 -0.148 0.219 -0.16 1.277 -0.129 l 1.141 0.031 l -0.293 -0.156 c -0.164 -0.086 -0.316 -0.191 -0.344 -0.238 c -0.031 -0.047 -0.156 -0.082 -0.285 -0.082 c -0.168 0 -0.273 -0.063 -0.371 -0.227 c -0.195 -0.309 -0.258 -0.344 -0.625 -0.344 c -0.367 -0.004 -0.43 0.07 -0.668 0.766 c -0.188 0.547 -0.113 0.715 0.168 0.379 m 0.355 -0.629 c -0.082 -0.082 -0.066 -0.355 0.02 -0.355 c 0.121 0 0.332 0.254 0.281 0.336 c -0.051 0.086 -0.227 0.098 -0.301 0.02 m 1.965 -1.527 c 0.254 -0.242 0.426 -0.582 0.5 -0.977 c 0.074 -0.398 -0.148 -1.02 -0.398 -1.117 c -0.457 -0.176 -2.289 0.512 -2.625 0.988 c -0.258 0.367 -0.102 0.508 0.922 0.84 c 0.496 0.16 0.953 0.328 1.02 0.375 c 0.191 0.129 0.363 0.098 0.582 -0.109 m -3.059 -0.473 c 0 -0.168 -0.078 -0.324 -0.258 -0.504 l -0.262 -0.262 l -0.023 0.27 c -0.02 0.199 0.031 0.34 0.199 0.539 c 0.262 0.313 0.344 0.305 0.344 -0.043 m -0.336 -1.805 c -0.246 -0.395 -0.234 -0.449 0.109 -0.449 c 0.363 0 0.457 0.125 0.32 0.434 c -0.113 0.246 -0.277 0.254 -0.43 0.016 m 1.297 -0.75 c 0 -0.305 0.938 -0.754 1.391 -0.668 c 0.359 0.07 0.449 0.211 0.133 0.211 c -0.383 0 -0.887 0.238 -0.887 0.418 c 0 0.125 -0.059 0.156 -0.32 0.156 c -0.223 0 -0.316 -0.035 -0.316 -0.117 m -1.836 -1.559 c -0.066 -0.078 -0.082 -0.242 -0.051 -0.469 c 0.031 -0.191 0.059 -0.434 0.07 -0.531 c 0.012 -0.102 0.043 -0.184 0.078 -0.184 c 0.09 0 0.074 0.234 -0.035 0.547 c -0.074 0.203 -0.078 0.332 -0.008 0.516 c 0.098 0.273 0.086 0.297 -0.055 0.121 m 6.945 -3.145 c 0 -0.09 0.039 -0.164 0.082 -0.164 c 0.043 0 0.078 0.074 0.078 0.164 c 0 0.09 -0.035 0.16 -0.078 0.16 c -0.043 0 -0.082 -0.07 -0.082 -0.16" fill="#1e191a"/><path d="m 3.445 2.984 c 0.09 -0.016 0.184 -0.023 0.273 -0.031 c 0.082 -0.004 0.16 -0.004 0.238 -0.004 c 0.07 0 0.141 0 0.211 0 c 0.07 0 0.141 0 0.211 0 c 0.066 0 0.137 0 0.207 0 c 0.07 0 0.141 0 0.211 0 c 0.07 0 0.141 0 0.207 0 c 0.078 0 0.156 0 0.23 0 c 0.105 0 0.207 0 0.309 0 c 0.141 0.008 0.281 0.039 0.418 0.059 c 0.098 0.008 0.195 0.012 0.289 0.012 c 0.074 0.004 0.148 0 0.223 0 c 0.07 0 0.141 0 0.207 0 c 0.07 0 0.141 0 0.211 0 c 0.07 0 0.141 0 0.211 0 c 0.078 0 0.156 0 0.238 0 c 0.082 0 0.164 0 0.246 0 c 0.07 0 0.141 0 0.215 0 c 0.066 0 0.137 0 0.207 0 c 0.07 0 0.141 0 0.211 0 c 0.078 0 0.156 0 0.234 0 c 0.07 0 0.145 0 0.219 0 c 0.07 0 0.141 0 0.211 0 c 0.066 0 0.137 0 0.207 0 c 0.059 0 0.113 0.004 0.168 -0.004 c 0.078 -0.016 0.16 -0.023 0.238 -0.027 c 0.059 -0.016 0.133 -0.023 0.195 -0.031 c 0.082 -0.008 0.168 -0.008 0.25 -0.008 c 0.09 0 0.18 0 0.273 0 c 0.078 0 0.156 0 0.238 0 c 0.066 0 0.137 0 0.207 0 c 0.07 0 0.141 0 0.211 0 c 0.012 0 0.023 0 0.035 0 c 0.035 0 0.07 0 0.105 0 c 0.035 0 0.043 0.004 0.031 0 c 0.02 0 0.125 -0.035 0.07 -0.02 c 0.324 -0.18 0.578 0.285 0.254 0.469 c -0.082 0.039 -0.164 0.066 -0.254 0.078 c -0.082 0.008 -0.16 0.008 -0.242 0.004 c -0.07 0 -0.141 0 -0.211 0 c -0.07 0 -0.141 0 -0.211 0 c -0.078 0 -0.156 0 -0.238 0 c -0.086 0 -0.176 0 -0.266 0 c -0.07 0 -0.137 0 -0.207 0.008 c -0.07 0.004 -0.145 0.02 -0.215 0.031 c -0.063 0.004 -0.121 0.008 -0.18 0.02 c -0.086 0.016 -0.168 0.016 -0.254 0.016 c -0.07 0 -0.141 0 -0.207 0 c -0.07 0 -0.141 0 -0.211 0 c -0.074 0 -0.145 0 -0.219 0 c -0.078 0 -0.156 0 -0.234 0 c -0.07 0 -0.141 0 -0.211 0 c -0.07 0 -0.141 0 -0.207 0 c -0.074 0 -0.145 0 -0.215 0 c -0.082 0 -0.164 0 -0.246 0 c -0.078 0 -0.16 0 -0.238 0 c -0.07 0 -0.141 0 -0.211 0 c -0.07 0 -0.141 0 -0.207 0 c -0.07 0 -0.141 0 -0.211 0 c -0.074 0 -0.152 0 -0.227 0 c -0.117 -0.004 -0.23 -0.008 -0.344 -0.02 c -0.121 -0.016 -0.238 -0.039 -0.359 -0.055 c -0.102 0 -0.203 0 -0.309 0 c -0.074 0 -0.152 0 -0.23 0 c -0.066 0 -0.137 0 -0.207 0 c -0.07 0 -0.141 0 -0.211 0 c -0.07 0 -0.141 0 -0.207 0 c -0.07 0 -0.141 0 -0.211 0 c -0.07 0 -0.141 0 -0.211 0 c -0.066 0 -0.137 0.004 -0.207 0.004 c -0.066 0.004 -0.137 0.012 -0.203 0.023 c -0.363 0.074 -0.465 -0.449 -0.102 -0.523" fill="#1f374c" fill-opacity="0.988"/></svg>