<svg xmlns="http://www.w3.org/2000/svg" viewBox="0 0 16 16"><path d="m 9.742 0.051 c 0.945 0.082 1.973 0.32 2.73 0.633 c 2.656 1.082 3.891 3.281 3.41 6.06 c -0.262 1.492 -1 3.184 -2.18 4.973 c -1.41 2.133 -3.586 3.75 -5.602 4.16 c -0.426 0.086 -1.23 0.117 -1.656 0.063 c -1.438 -0.18 -2.633 -0.957 -3.727 -2.422 c -1.051 -1.398 -1.828 -2.824 -2.266 -4.152 c -0.902 -2.727 -0.355 -5.156 1.551 -6.918 c 1.344 -1.238 3.16 -2.027 5.387 -2.344 c 0.336 -0.047 2.01 -0.086 2.352 -0.055" fill="#86cefa"/><path d="m 3.352 9.914 v -2.164 h 2.043 c 1.766 0 2.059 0.016 2.152 0.113 c 0.098 0.094 0.109 0.391 0.109 2.16 v 2.055 h -4.305 m 4.625 -0.113 c -0.023 -0.063 -0.039 -1.012 -0.039 -2.113 c 0 -1.461 0.02 -2.023 0.082 -2.086 c 0.059 -0.063 0.609 -0.086 2.043 -0.086 c 1.078 0 2.01 0.02 2.066 0.043 c 0.098 0.039 0.113 0.297 0.113 2.199 v 2.156 h -2.113 c -1.859 0 -2.113 -0.016 -2.152 -0.113 m -4.535 -4.543 c -0.07 -0.027 -0.09 -0.543 -0.09 -2.23 v -2.191 h 2.145 c 1.895 0 2.152 0.012 2.188 0.113 c 0.023 0.059 0.043 1.027 0.043 2.148 c 0 1.488 -0.023 2.059 -0.082 2.121 c -0.063 0.063 -0.617 0.082 -2.102 0.078 c -1.109 -0.004 -2.055 -0.02 -2.102 -0.039 m 4.578 -0.039 c -0.063 -0.063 -0.086 -0.633 -0.086 -2.121 c 0 -1.121 0.02 -2.09 0.043 -2.148 c 0.039 -0.102 0.293 -0.113 2.152 -0.113 h 2.113 v 2.191 c 0 1.93 -0.016 2.195 -0.113 2.234 c -0.059 0.023 -0.988 0.043 -2.066 0.043 c -1.434 0 -1.984 -0.023 -2.043 -0.086" fill="#edddb1"/><path d="m 3.352 9.914 v -2.164 h 2.043 c 1.766 0 2.059 0.016 2.152 0.113 c 0.098 0.094 0.109 0.391 0.109 2.16 v 2.055 h -4.305 m 4.707 -2.109 c 0.012 -1.156 0.031 -2.113 0.039 -2.125 c 0.008 -0.008 0.945 -0.023 2.078 -0.035 l 2.066 -0.023 v 4.293 h -4.203 m -4.688 -6.898 v -2.18 h 4.273 l -0.023 2.109 c -0.012 1.16 -0.043 2.133 -0.07 2.16 c -0.027 0.027 -0.977 0.059 -2.113 0.07 l -2.066 0.02 m 4.852 -0.012 c -0.176 -0.047 -0.199 -0.324 -0.199 -2.406 v -1.941 h 4.238 v 4.395 l -1.965 -0.008 c -1.078 -0.004 -2.01 -0.02 -2.074 -0.039" fill="#fdc32e"/><path d="m 3.352 9.914 v -2.164 h 2.043 c 1.766 0 2.059 0.016 2.152 0.113 c 0.098 0.094 0.109 0.391 0.109 2.16 v 2.055 h -4.305 m 4.879 -2.039 l 0.016 -2.039 l 3.992 -0.039 v 4.117 h -4.03 m -4.859 -6.898 v -2.18 h 4.27 l -0.02 2.074 c -0.016 1.504 -0.043 2.098 -0.105 2.16 c -0.059 0.063 -0.641 0.09 -2.113 0.105 l -2.031 0.02 m 4.852 -0.012 c -0.176 -0.047 -0.199 -0.324 -0.199 -2.406 v -1.941 h 4.234 v 4.395 l -1.961 -0.008 c -1.078 -0.004 -2.01 -0.02 -2.074 -0.039" fill="#fdb800"/><path d="m 3.352 9.914 v -2.164 h 2.043 c 1.766 0 2.059 0.016 2.152 0.113 c 0.098 0.094 0.109 0.391 0.109 2.16 v 2.055 h -4.305 m 0 -6.898 v -2.18 h 4.27 l -0.02 2.074 c -0.012 1.504 -0.043 2.098 -0.102 2.16 c -0.063 0.063 -0.645 0.09 -2.117 0.105 l -2.031 0.02 m 4.852 -0.012 c -0.176 -0.047 -0.199 -0.324 -0.199 -2.406 v -1.941 h 4.238 v 4.395 l -1.965 -0.008 c -1.078 -0.004 -2.01 -0.02 -2.074 -0.039" fill="#06a4ed"/><path d="m 3.352 5.18 v -2.18 h 4.27 l -0.02 2.074 c -0.016 1.504 -0.043 2.098 -0.105 2.16 c -0.059 0.063 -0.641 0.09 -2.113 0.105 l -2.031 0.02 m 4.852 -0.012 c -0.176 -0.047 -0.199 -0.324 -0.199 -2.406 v -1.941 h 4.234 v 4.395 l -1.961 -0.008 c -1.078 -0.004 -2.01 -0.02 -2.074 -0.039" fill="#94c52e"/><path d="m 3.352 5.18 v -2.18 h 4.27 l -0.02 2.074 c -0.016 1.504 -0.043 2.098 -0.105 2.16 c -0.059 0.063 -0.641 0.09 -2.113 0.105 l -2.031 0.02 m 4.906 -0.223 c -0.023 -0.027 -0.047 -0.969 -0.047 -2.094 v -2.043 h 4.03 v 4.184 h -1.965 c -1.082 0 -1.988 -0.02 -2.02 -0.047" fill="#f15123"/><path d="m 8.258 7.137 c -0.023 -0.027 -0.047 -0.969 -0.047 -2.094 v -2.043 h 4.03 v 4.184 h -1.965 c -1.082 0 -1.988 -0.023 -2.02 -0.047" fill="#7eb900"/></svg>