<svg xmlns="http://www.w3.org/2000/svg" viewBox="0 0 16 16"><path d="m 1.297 12.656 c -5.203 -7.445 6.52 -16.766 12.645 -10.707 c 5.773 5.711 -1.691 16.371 -8.875 13.598 c -1.5 -0.578 -2.816 -1.531 -3.77 -2.891" fill="#f4f4f4"/><path d="m 2.961 11.273 c -0.137 -0.082 -0.242 -0.281 -0.242 -0.461 c 0 -0.137 -0.125 -0.234 -0.301 -0.234 c -0.066 0 -0.082 -0.031 -0.082 -0.156 c 0 -0.145 0.016 -0.16 0.172 -0.211 c 0.117 -0.039 0.207 -0.043 0.285 -0.012 c 0.102 0.035 0.113 0.066 0.113 0.238 c 0 0.137 0.023 0.211 0.074 0.246 c 0.191 0.129 0.34 -0.258 0.16 -0.414 l -0.094 -0.082 l 0.223 -0.695 c 0.313 -0.984 0.383 -1.266 0.328 -1.336 c -0.031 -0.043 -0.078 -0.027 -0.203 0.078 c -0.332 0.281 -0.676 0.074 -0.676 -0.41 c 0 -0.266 0.098 -0.383 0.172 -0.203 c 0.027 0.063 0.086 0.129 0.133 0.141 c 0.172 0.059 0.27 -0.184 0.141 -0.363 c -0.035 -0.051 -0.063 -0.105 -0.063 -0.121 c -0.004 -0.074 0.156 -0.031 0.293 0.078 c 0.078 0.063 0.172 0.113 0.203 0.113 c 0.031 0 0.094 0.07 0.141 0.156 c 0.098 0.176 0.199 0.199 0.309 0.074 c 0.094 -0.109 0.086 -0.211 -0.016 -0.32 c -0.047 -0.051 -0.086 -0.129 -0.086 -0.172 c 0 -0.043 0.078 -0.363 0.172 -0.707 c 0.094 -0.348 0.16 -0.676 0.148 -0.727 c -0.012 -0.051 -0.074 -0.117 -0.137 -0.148 c -0.066 -0.031 -0.168 -0.082 -0.227 -0.113 c -0.125 -0.063 -0.16 -0.254 -0.066 -0.34 c 0.047 -0.039 0.211 -0.055 0.539 -0.051 c 0.262 0.004 0.484 0.016 0.5 0.023 c 0.016 0.008 0.684 0 1.488 -0.016 c 0.801 -0.02 1.5 -0.02 1.551 0 c 0.152 0.059 0.148 0.176 -0.008 0.695 c -0.172 0.563 -0.242 0.695 -0.355 0.695 c -0.129 0 -0.203 -0.113 -0.258 -0.379 c -0.035 -0.188 -0.082 -0.277 -0.195 -0.383 c -0.145 -0.137 -0.148 -0.137 -0.668 -0.137 c -0.445 0 -0.531 0.012 -0.586 0.078 c -0.031 0.043 -0.113 0.27 -0.18 0.508 c -0.066 0.234 -0.168 0.586 -0.223 0.785 c -0.137 0.453 -0.117 0.477 0.391 0.441 l 0.355 -0.023 l 0.063 0.164 c 0.074 0.191 0.152 0.238 0.277 0.164 c 0.098 -0.055 0.117 -0.223 0.039 -0.352 c -0.07 -0.121 0.277 -0.656 0.438 -0.676 c 0.176 -0.023 0.211 0.098 0.16 0.516 c -0.02 0.191 -0.031 0.387 -0.016 0.43 c 0.035 0.117 0.18 0.148 0.273 0.055 c 0.105 -0.098 0.105 -0.156 -0.004 -0.305 c -0.082 -0.109 -0.082 -0.121 -0.016 -0.148 c 0.039 -0.016 0.102 -0.008 0.141 0.023 c 0.039 0.027 0.141 0.09 0.23 0.137 c 0.09 0.047 0.199 0.148 0.242 0.223 c 0.09 0.156 0.172 0.18 0.27 0.07 c 0.086 -0.09 0.086 -0.215 0.004 -0.289 c -0.078 -0.07 -0.082 -0.18 -0.008 -0.18 c 0.109 0 0.527 0.293 0.594 0.418 c 0.113 0.207 0.324 0.137 0.324 -0.109 c 0 -0.082 -0.035 -0.148 -0.102 -0.199 l -0.102 -0.07 l 0.102 -0.391 c 0.309 -1.18 0.301 -1.117 0.211 -1.223 c -0.043 -0.051 -0.152 -0.113 -0.242 -0.141 c -0.191 -0.055 -0.273 -0.18 -0.203 -0.313 c 0.023 -0.051 0.059 -0.094 0.074 -0.094 c 0.227 -0.035 3.297 -0.023 3.441 0.016 c 0.289 0.07 0.484 0.191 0.652 0.398 l 0.152 0.191 v 0.898 l -0.168 0.234 c -0.18 0.258 -0.523 0.52 -0.785 0.605 c -0.465 0.148 -0.504 0.199 -0.211 0.277 c 0.414 0.113 0.738 0.461 0.805 0.875 c 0.02 0.098 0.066 0.227 0.109 0.289 c 0.18 0.242 0.063 0.773 -0.203 0.922 c -0.066 0.035 -0.18 0.137 -0.254 0.227 c -0.098 0.121 -0.168 0.164 -0.266 0.164 c -0.156 0 -0.18 0.117 -0.035 0.16 c 0.055 0.012 0.137 0.09 0.184 0.168 c 0.109 0.188 0.254 0.211 0.324 0.055 c 0.039 -0.102 0.035 -0.137 -0.047 -0.25 c -0.078 -0.117 -0.082 -0.141 -0.027 -0.164 c 0.133 -0.051 0.281 0.027 0.344 0.188 c 0.145 0.367 0.023 0.82 -0.242 0.918 c -0.184 0.07 -0.184 0.07 -0.375 -0.113 l -0.172 -0.164 l -0.137 0.137 c -0.215 0.223 -0.332 0.227 -0.535 0.035 c -0.172 -0.168 -0.227 -0.172 -0.332 -0.023 c -0.027 0.043 -0.105 0.102 -0.176 0.133 c -0.102 0.043 -0.145 0.043 -0.258 -0.02 c -0.074 -0.039 -0.141 -0.102 -0.156 -0.137 c -0.043 -0.125 -0.156 -0.117 -0.297 0.027 c -0.27 0.281 -0.609 0.113 -0.672 -0.336 c -0.027 -0.184 -0.043 -0.207 -0.16 -0.234 c -0.07 -0.016 -0.504 -0.023 -0.957 -0.016 l -0.828 0.02 l -0.066 -0.129 c -0.059 -0.117 -0.059 -0.129 0.012 -0.188 c 0.043 -0.031 0.191 -0.074 0.332 -0.09 c 0.234 -0.031 0.25 -0.039 0.25 -0.152 c 0 -0.078 -0.059 -0.176 -0.172 -0.297 c -0.148 -0.148 -0.184 -0.168 -0.246 -0.125 c -0.23 0.18 -0.34 0.234 -0.461 0.234 c -0.113 0 -0.148 0.023 -0.184 0.125 c -0.023 0.066 -0.074 0.148 -0.113 0.18 c -0.059 0.047 -0.07 0.121 -0.059 0.367 c 0.008 0.199 -0.012 0.363 -0.051 0.469 c -0.078 0.199 -0.301 0.359 -0.453 0.324 c -0.129 -0.031 -0.289 -0.211 -0.316 -0.363 c -0.074 -0.371 -0.023 -0.336 -0.441 -0.336 c -0.398 0 -0.43 0.02 -0.43 0.242 c 0 0.152 -0.145 0.371 -0.285 0.434 c -0.242 0.105 -0.504 -0.129 -0.547 -0.488 c -0.031 -0.223 -0.07 -0.242 -0.523 -0.223 l -0.316 0.016 l -0.027 0.188 c -0.043 0.258 -0.102 0.363 -0.262 0.469 c -0.16 0.102 -0.184 0.102 -0.336 0.016 m 1.953 -0.613 c 0.027 -0.031 0.051 -0.109 0.051 -0.172 c 0 -0.215 -0.16 -0.293 -0.305 -0.152 c -0.098 0.094 -0.098 0.188 -0.008 0.293 c 0.082 0.098 0.188 0.109 0.262 0.031 m 1.652 0 c 0.027 -0.031 0.051 -0.109 0.051 -0.172 c 0 -0.234 -0.203 -0.305 -0.324 -0.113 c -0.063 0.105 -0.063 0.121 0 0.227 c 0.074 0.121 0.191 0.145 0.273 0.059 m 3.523 -0.035 c 0.063 -0.125 0.055 -0.254 -0.02 -0.32 c -0.035 -0.027 -0.066 -0.066 -0.066 -0.082 c 0 -0.02 0.168 -0.035 0.371 -0.039 l 0.371 -0.008 l 0.285 -0.32 c 0.246 -0.277 0.289 -0.348 0.289 -0.488 c 0 -0.227 0.039 -0.367 0.105 -0.367 c 0.031 0 0.07 0.039 0.086 0.09 c 0.043 0.152 0.172 0.195 0.273 0.09 c 0.047 -0.051 0.086 -0.121 0.086 -0.156 c 0 -0.102 -0.156 -0.25 -0.266 -0.25 c -0.078 0 -0.113 -0.043 -0.168 -0.219 c -0.141 -0.418 -0.328 -0.574 -0.75 -0.621 l -0.25 -0.027 l -0.105 0.176 c -0.055 0.094 -0.145 0.211 -0.195 0.258 c -0.047 0.051 -0.09 0.121 -0.09 0.16 c 0 0.039 -0.023 0.113 -0.059 0.164 c -0.031 0.047 -0.07 0.18 -0.086 0.289 c -0.016 0.113 -0.066 0.348 -0.109 0.52 c -0.086 0.328 -0.074 0.484 0.035 0.621 c 0.063 0.074 0.059 0.098 -0.012 0.234 c -0.07 0.145 -0.074 0.164 -0.008 0.27 c 0.086 0.137 0.219 0.148 0.281 0.027 m 0.848 0.023 c 0.125 -0.164 -0.043 -0.465 -0.199 -0.359 c -0.156 0.102 -0.102 0.422 0.074 0.422 c 0.039 0 0.094 -0.027 0.125 -0.063 m 0.867 -0.043 c 0.086 -0.137 0.023 -0.344 -0.102 -0.344 c -0.109 0 -0.215 0.117 -0.215 0.242 c 0 0.215 0.207 0.281 0.32 0.102 m -6.105 -0.492 c 0.613 -0.125 0.703 -0.203 0.516 -0.441 c -0.09 -0.109 -0.113 -0.184 -0.113 -0.379 c 0 -0.297 0.094 -0.41 0.18 -0.219 c 0.102 0.23 0.332 0.172 0.332 -0.078 c 0 -0.098 -0.031 -0.145 -0.129 -0.199 c -0.094 -0.051 -0.125 -0.102 -0.125 -0.188 c 0 -0.117 -0.16 -0.453 -0.289 -0.613 c -0.051 -0.063 -0.133 -0.078 -0.395 -0.078 c -0.469 0 -0.516 0.027 -0.602 0.355 c -0.098 0.367 -0.094 0.398 0.055 0.574 c 0.113 0.137 0.129 0.188 0.129 0.43 c 0 0.25 -0.016 0.285 -0.145 0.426 c -0.09 0.094 -0.188 0.152 -0.254 0.152 c -0.129 0 -0.172 0.063 -0.137 0.203 c 0.039 0.168 0.34 0.188 0.977 0.055 m 1.684 -0.898 c 0.109 -0.098 0.117 -0.203 0.027 -0.328 c -0.074 -0.102 -0.082 -0.129 -0.031 -0.16 c 0.031 -0.023 0.094 -0.027 0.133 -0.016 c 0.16 0.051 0.418 0.266 0.496 0.41 c 0.098 0.176 0.184 0.188 0.277 0.051 c 0.086 -0.137 0.082 -0.23 -0.023 -0.332 c -0.07 -0.07 -0.074 -0.09 -0.023 -0.117 c 0.035 -0.023 0.113 -0.02 0.176 0.008 c 0.137 0.055 0.23 -0.008 0.23 -0.148 c 0 -0.051 0.023 -0.16 0.051 -0.242 c 0.078 -0.23 0 -0.273 -0.195 -0.105 c -0.211 0.176 -0.367 0.176 -0.539 0 c -0.074 -0.074 -0.141 -0.137 -0.152 -0.137 c -0.012 0 -0.086 0.063 -0.164 0.137 c -0.199 0.184 -0.371 0.18 -0.555 -0.008 c -0.129 -0.133 -0.145 -0.141 -0.207 -0.074 c -0.043 0.043 -0.078 0.184 -0.09 0.359 l -0.023 0.289 l 0.156 0.086 c 0.082 0.051 0.152 0.102 0.152 0.117 c 0 0.047 0.172 0.266 0.207 0.266 c 0.016 0 0.059 -0.023 0.098 -0.055 m -3.313 -0.109 c 0.035 -0.09 0.027 -0.145 -0.023 -0.223 c -0.035 -0.059 -0.078 -0.109 -0.098 -0.109 c -0.082 0 -0.219 0.152 -0.219 0.242 c 0 0.227 0.266 0.297 0.34 0.09 m 0.848 0.027 c 0.059 -0.117 0.023 -0.293 -0.066 -0.332 c -0.09 -0.035 -0.219 0.043 -0.25 0.152 c -0.07 0.223 0.215 0.383 0.316 0.18 m 7.754 0 c 0.09 -0.18 -0.055 -0.402 -0.207 -0.316 c -0.184 0.105 -0.141 0.41 0.059 0.41 c 0.059 0 0.121 -0.039 0.148 -0.094 m -2.652 -1.422 c 0.035 -0.039 0.066 -0.102 0.066 -0.137 c 0 -0.238 -0.258 -0.336 -0.348 -0.129 c -0.102 0.238 0.117 0.441 0.281 0.266 m 0.965 -0.34 c 0.113 -0.027 0.277 -0.105 0.367 -0.176 c 0.313 -0.238 0.559 -0.98 0.43 -1.305 c -0.074 -0.188 -0.23 -0.277 -0.531 -0.305 c -0.324 -0.027 -0.406 0.043 -0.508 0.426 c -0.039 0.145 -0.141 0.504 -0.23 0.801 c -0.117 0.395 -0.148 0.559 -0.117 0.602 c 0.047 0.063 0.195 0.051 0.594 -0.043" fill="#b05c9b"/><path d="m 2.918 11.184 c -0.148 -0.086 -0.199 -0.195 -0.199 -0.414 c 0 -0.117 0.027 -0.203 0.082 -0.258 c 0.074 -0.074 0.078 -0.074 0.094 0.023 c 0.008 0.055 0.047 0.121 0.086 0.148 c 0.199 0.133 0.336 -0.258 0.152 -0.422 c -0.086 -0.078 -0.086 -0.086 -0.012 -0.059 c 0.047 0.016 0.125 0.059 0.18 0.094 c 0.137 0.094 0.117 0.004 -0.031 -0.148 c -0.07 -0.07 -0.129 -0.16 -0.129 -0.203 c 0 -0.121 0.242 -0.781 0.293 -0.801 c 0.023 -0.008 0.047 0.004 0.047 0.031 c 0 0.063 0.137 0.008 0.184 -0.074 c 0.031 -0.051 0.047 -0.047 0.098 0.031 c 0.156 0.234 0.441 -0.008 0.293 -0.25 c -0.082 -0.133 -0.02 -0.18 0.137 -0.094 c 0.063 0.039 0.176 0.102 0.246 0.141 c 0.074 0.043 0.152 0.125 0.18 0.184 c 0.063 0.141 0.238 0.152 0.305 0.02 c 0.055 -0.105 0.023 -0.313 -0.043 -0.313 c -0.023 0 -0.043 -0.02 -0.043 -0.047 c 0 -0.102 0.211 -0.039 0.313 0.094 c 0.129 0.16 0.145 0.367 0.051 0.602 c -0.074 0.195 -0.215 0.297 -0.414 0.297 c -0.148 0 -0.156 0.008 -0.121 0.102 c 0.043 0.129 -0.008 0.285 -0.117 0.344 c -0.047 0.027 -0.121 0.121 -0.172 0.207 l -0.086 0.16 h -0.316 c -0.176 0 -0.328 -0.023 -0.344 -0.047 c -0.059 -0.102 -0.125 -0.012 -0.113 0.148 c 0.023 0.273 -0.184 0.578 -0.395 0.57 c -0.047 0 -0.137 -0.031 -0.199 -0.066 m 1.66 -0.055 c -0.164 -0.156 -0.215 -0.422 -0.105 -0.551 c 0.074 -0.086 0.074 -0.086 0.156 0.023 c 0.094 0.125 0.211 0.145 0.285 0.047 c 0.078 -0.102 0.039 -0.309 -0.07 -0.367 c -0.113 -0.059 -0.082 -0.109 0.07 -0.109 c 0.129 0 0.191 0.039 0.227 0.145 c 0.039 0.113 0.109 0.098 0.156 -0.031 c 0.023 -0.063 0.047 -0.113 0.055 -0.113 c 0.141 0 0.754 -0.156 0.906 -0.227 l 0.203 -0.102 l -0.105 -0.082 c -0.227 -0.184 -0.25 -0.23 -0.25 -0.473 c 0 -0.293 0.09 -0.402 0.176 -0.215 c 0.063 0.145 0.176 0.188 0.27 0.105 c 0.086 -0.078 0.078 -0.301 -0.012 -0.355 c -0.07 -0.039 -0.07 -0.047 0.008 -0.078 c 0.098 -0.039 0.52 0.191 0.555 0.305 c 0.043 0.141 0.172 0.23 0.266 0.18 c 0.121 -0.07 0.141 -0.211 0.039 -0.348 c -0.07 -0.098 -0.078 -0.125 -0.027 -0.156 c 0.031 -0.023 0.094 -0.027 0.133 -0.016 c 0.16 0.055 0.418 0.266 0.496 0.41 c 0.098 0.176 0.184 0.191 0.277 0.051 c 0.086 -0.137 0.082 -0.23 -0.023 -0.332 c -0.07 -0.066 -0.074 -0.086 -0.023 -0.117 c 0.082 -0.051 0.281 0.035 0.281 0.117 c 0 0.039 0.027 0.07 0.063 0.07 c 0.051 0 0.063 -0.059 0.063 -0.246 c 0 -0.195 0.02 -0.27 0.094 -0.348 c 0.066 -0.07 0.078 -0.113 0.047 -0.168 c -0.07 -0.121 -0.176 -0.109 -0.332 0.039 c -0.18 0.164 -0.207 0.168 -0.461 0.023 c -0.242 -0.137 -0.27 -0.137 -0.391 -0.016 c -0.133 0.133 -0.316 0.125 -0.516 -0.023 c -0.246 -0.18 -0.375 -0.086 -0.32 0.23 c 0.02 0.109 0.012 0.168 -0.031 0.195 c -0.086 0.059 -0.223 0.051 -0.313 -0.02 c -0.066 -0.051 -0.07 -0.074 -0.027 -0.133 c 0.043 -0.055 0.031 -0.086 -0.074 -0.176 c -0.145 -0.133 -0.23 -0.289 -0.203 -0.375 c 0.016 -0.031 -0.004 -0.07 -0.035 -0.082 c -0.031 -0.012 -0.066 0.008 -0.078 0.043 c -0.02 0.047 -0.105 0.063 -0.34 0.063 c -0.457 0 -0.504 0.031 -0.59 0.352 c -0.066 0.258 -0.078 0.273 -0.281 0.363 c -0.238 0.109 -0.328 0.117 -0.559 0.043 c -0.129 -0.039 -0.219 -0.039 -0.402 0.008 c -0.191 0.043 -0.246 0.043 -0.273 0 c -0.043 -0.074 0.027 -0.324 0.109 -0.371 c 0.082 -0.051 0.078 -0.121 -0.012 -0.195 c -0.113 -0.094 -0.191 -0.074 -0.32 0.07 c -0.152 0.176 -0.285 0.172 -0.473 -0.004 c -0.133 -0.121 -0.148 -0.164 -0.148 -0.355 c 0 -0.27 0.098 -0.387 0.176 -0.207 c 0.027 0.063 0.086 0.129 0.129 0.145 c 0.172 0.059 0.27 -0.188 0.141 -0.367 c -0.035 -0.047 -0.063 -0.102 -0.063 -0.121 c -0.004 -0.074 0.156 -0.031 0.293 0.078 c 0.082 0.063 0.172 0.113 0.203 0.113 c 0.031 0 0.094 0.07 0.145 0.156 c 0.094 0.176 0.199 0.199 0.305 0.074 c 0.094 -0.109 0.086 -0.211 -0.016 -0.32 c -0.047 -0.051 -0.086 -0.102 -0.086 -0.113 c 0 -0.035 0.145 0.031 0.223 0.105 c 0.066 0.059 0.074 0.059 0.074 -0.008 c 0 -0.043 -0.016 -0.074 -0.035 -0.074 c -0.016 0 -0.078 -0.063 -0.129 -0.141 l -0.098 -0.141 l 0.156 -0.578 c 0.086 -0.32 0.145 -0.617 0.129 -0.664 c -0.012 -0.047 -0.074 -0.113 -0.141 -0.141 c -0.063 -0.031 -0.164 -0.082 -0.223 -0.113 c -0.121 -0.063 -0.16 -0.254 -0.066 -0.34 c 0.047 -0.039 0.211 -0.055 0.539 -0.051 c 0.262 0.004 0.484 0.016 0.5 0.023 c 0.016 0.008 0.684 0.004 1.488 -0.016 c 0.805 -0.02 1.5 -0.02 1.551 0 c 0.152 0.059 0.152 0.18 -0.008 0.695 c -0.172 0.563 -0.242 0.699 -0.355 0.699 c -0.129 0 -0.203 -0.117 -0.258 -0.383 c -0.035 -0.188 -0.082 -0.277 -0.195 -0.383 c -0.145 -0.137 -0.145 -0.137 -0.668 -0.137 c -0.445 0 -0.531 0.012 -0.582 0.078 c -0.035 0.043 -0.117 0.273 -0.184 0.508 c -0.066 0.234 -0.164 0.586 -0.223 0.785 c -0.102 0.336 -0.102 0.359 -0.035 0.414 c 0.055 0.039 0.156 0.051 0.34 0.031 l 0.262 -0.027 l 0.066 0.176 c 0.063 0.164 0.07 0.168 0.098 0.07 l 0.031 -0.105 l 0.098 0.125 c 0.082 0.113 0.105 0.121 0.203 0.074 c 0.125 -0.059 0.148 -0.219 0.063 -0.371 c -0.074 -0.125 -0.012 -0.168 0.098 -0.066 l 0.09 0.09 l -0.031 -0.195 c -0.027 -0.168 -0.016 -0.215 0.082 -0.348 c 0.211 -0.293 0.465 -0.148 0.367 0.203 c -0.027 0.094 -0.078 0.195 -0.109 0.227 c -0.082 0.07 -0.086 0.27 -0.004 0.27 c 0.031 0 0.07 0.039 0.086 0.086 c 0.039 0.129 0.18 0.164 0.281 0.07 c 0.102 -0.102 0.102 -0.16 -0.008 -0.309 c -0.082 -0.109 -0.082 -0.121 -0.016 -0.148 c 0.039 -0.016 0.102 -0.004 0.141 0.023 c 0.039 0.031 0.141 0.09 0.23 0.137 c 0.09 0.047 0.199 0.148 0.242 0.227 c 0.09 0.152 0.172 0.176 0.27 0.066 c 0.086 -0.086 0.086 -0.215 0.004 -0.289 c -0.078 -0.07 -0.082 -0.18 -0.004 -0.18 c 0.105 0 0.523 0.293 0.59 0.418 c 0.113 0.207 0.324 0.137 0.324 -0.105 c 0 -0.082 -0.039 -0.156 -0.113 -0.215 c -0.156 -0.121 -0.039 -0.129 0.148 -0.008 c 0.18 0.117 0.172 0.066 -0.02 -0.145 l -0.16 -0.172 l 0.102 -0.348 c 0.055 -0.191 0.129 -0.477 0.164 -0.629 c 0.063 -0.266 0.063 -0.285 -0.012 -0.371 c -0.043 -0.051 -0.152 -0.113 -0.242 -0.141 c -0.191 -0.055 -0.273 -0.18 -0.203 -0.313 c 0.023 -0.051 0.059 -0.094 0.074 -0.094 c 0.227 -0.035 3.297 -0.023 3.441 0.016 c 0.289 0.07 0.484 0.191 0.652 0.398 l 0.152 0.191 v 0.898 l -0.168 0.234 c -0.18 0.258 -0.523 0.52 -0.785 0.605 c -0.461 0.148 -0.5 0.199 -0.211 0.277 c 0.105 0.027 0.277 0.113 0.383 0.188 c 0.199 0.141 0.426 0.488 0.387 0.594 c -0.016 0.039 -0.098 0.086 -0.191 0.113 c -0.242 0.07 -0.512 0.363 -0.332 0.363 c 0.031 0 0.078 0.051 0.105 0.113 c 0.066 0.152 0.246 0.152 0.313 0 c 0.035 -0.086 0.031 -0.133 -0.023 -0.223 c -0.066 -0.105 -0.063 -0.113 0.023 -0.141 c 0.129 -0.043 0.332 0.199 0.328 0.398 c 0 0.25 -0.141 0.512 -0.328 0.613 c -0.094 0.051 -0.176 0.133 -0.188 0.18 c -0.016 0.051 -0.094 0.129 -0.176 0.172 c -0.133 0.066 -0.18 0.07 -0.359 0.02 c -0.219 -0.059 -0.336 -0.031 -0.504 0.125 c -0.105 0.094 -0.129 0.23 -0.043 0.23 c 0.031 0 0.074 0.043 0.098 0.102 c 0.102 0.246 0.41 0.051 0.32 -0.203 c -0.023 -0.063 -0.066 -0.125 -0.098 -0.141 c -0.031 -0.012 -0.02 -0.023 0.031 -0.027 c 0.152 -0.004 0.508 0.191 0.594 0.336 c 0.113 0.18 0.258 0.203 0.324 0.047 c 0.043 -0.098 0.035 -0.137 -0.047 -0.25 c -0.078 -0.117 -0.082 -0.141 -0.027 -0.164 c 0.133 -0.051 0.281 0.027 0.344 0.188 c 0.113 0.289 0.074 0.508 -0.145 0.754 c -0.141 0.16 -0.27 0.156 -0.496 -0.016 l -0.184 -0.145 l -0.152 0.145 c -0.184 0.168 -0.301 0.176 -0.504 0.027 c -0.086 -0.063 -0.184 -0.113 -0.219 -0.113 c -0.031 0 -0.105 0.051 -0.164 0.113 c -0.059 0.063 -0.152 0.113 -0.207 0.113 c -0.059 0 -0.172 -0.051 -0.258 -0.113 c -0.195 -0.141 -0.238 -0.141 -0.391 0 c -0.156 0.145 -0.316 0.145 -0.477 0 c -0.16 -0.145 -0.211 -0.391 -0.109 -0.551 l 0.07 -0.117 l 0.086 0.121 c 0.043 0.066 0.117 0.121 0.16 0.121 c 0.148 0 0.227 -0.301 0.105 -0.406 c -0.035 -0.031 -0.066 -0.074 -0.066 -0.098 c 0 -0.07 0.172 -0.039 0.238 0.047 c 0.043 0.051 0.102 0.074 0.152 0.059 c 0.059 -0.016 0.09 0.008 0.105 0.07 c 0.012 0.055 0.047 0.086 0.078 0.07 c 0.035 -0.012 0.063 0.02 0.07 0.078 c 0.031 0.242 0.297 0.223 0.324 -0.02 c 0.016 -0.148 -0.055 -0.254 -0.176 -0.254 c -0.066 0 -0.078 -0.012 -0.039 -0.055 c 0.039 -0.039 0.086 -0.035 0.199 0.023 c 0.172 0.086 0.184 0.07 0.063 -0.109 l -0.09 -0.133 l 0.141 -0.176 c 0.078 -0.094 0.176 -0.176 0.215 -0.176 c 0.094 -0.008 0.141 -0.09 0.082 -0.152 c -0.09 -0.094 -0.039 -0.484 0.059 -0.484 c 0.031 0 0.07 0.039 0.082 0.09 c 0.047 0.152 0.176 0.195 0.277 0.09 c 0.105 -0.113 0.105 -0.199 0 -0.316 c -0.086 -0.09 -0.086 -0.09 0.012 -0.09 c 0.055 0 0.125 0.027 0.156 0.059 c 0.043 0.039 0.043 0.023 -0.008 -0.059 c -0.051 -0.086 -0.109 -0.117 -0.262 -0.133 c -0.188 -0.023 -0.207 -0.035 -0.313 -0.246 c -0.145 -0.285 -0.328 -0.418 -0.637 -0.457 c -0.133 -0.016 -0.266 -0.051 -0.293 -0.074 c -0.035 -0.027 -0.074 0.012 -0.137 0.137 c -0.047 0.098 -0.141 0.23 -0.211 0.289 c -0.094 0.086 -0.113 0.125 -0.074 0.164 c 0.035 0.039 0.027 0.09 -0.023 0.199 c -0.039 0.078 -0.094 0.266 -0.117 0.414 c -0.023 0.148 -0.07 0.363 -0.102 0.477 c -0.031 0.113 -0.047 0.309 -0.039 0.449 c 0.02 0.23 0.012 0.258 -0.121 0.414 l -0.141 0.164 l -0.906 0.02 l -0.902 0.02 l -0.07 -0.113 c -0.063 -0.105 -0.063 -0.113 0.027 -0.191 c 0.051 -0.043 0.195 -0.094 0.324 -0.113 c 0.184 -0.023 0.23 -0.047 0.246 -0.125 c 0.012 -0.055 0.031 -0.129 0.051 -0.172 c 0.02 -0.055 0 -0.086 -0.07 -0.109 c -0.055 -0.016 -0.156 -0.078 -0.23 -0.137 c -0.164 -0.137 -0.215 -0.133 -0.336 0.004 c -0.078 0.09 -0.141 0.113 -0.297 0.113 c -0.145 0 -0.191 0.016 -0.176 0.059 c 0.012 0.031 -0.008 0.129 -0.039 0.211 c -0.059 0.145 -0.066 0.148 -0.238 0.117 c -0.508 -0.094 -0.438 -0.121 -0.781 0.305 c -0.129 0.16 -0.145 0.164 -0.406 0.164 c -0.191 0 -0.289 -0.02 -0.328 -0.066 c -0.074 -0.098 -0.129 -0.039 -0.102 0.109 c 0.016 0.078 -0.004 0.184 -0.047 0.277 c -0.16 0.328 -0.395 0.398 -0.613 0.188 m 5.441 -3.418 c 0.094 -0.098 0.082 -0.227 -0.023 -0.34 l -0.09 -0.098 l 0.121 0.031 c 0.066 0.02 0.18 0.098 0.25 0.176 c 0.098 0.109 0.129 0.125 0.141 0.066 c 0.008 -0.047 0.074 -0.082 0.191 -0.102 c 0.625 -0.098 0.84 -0.234 1.039 -0.652 c 0.07 -0.148 0.141 -0.387 0.156 -0.52 c 0.055 -0.453 -0.102 -0.648 -0.555 -0.688 c -0.324 -0.027 -0.406 0.043 -0.508 0.426 c -0.25 0.934 -0.344 1.211 -0.441 1.262 c -0.082 0.043 -0.117 0.035 -0.219 -0.043 c -0.129 -0.102 -0.23 -0.082 -0.414 0.086 c -0.102 0.09 -0.121 0.242 -0.031 0.242 c 0.031 0 0.078 0.051 0.105 0.113 c 0.055 0.129 0.18 0.145 0.277 0.039 m -3.734 3.453 c -0.184 -0.117 -0.25 -0.402 -0.133 -0.578 l 0.066 -0.102 l 0.07 0.113 c 0.117 0.191 0.324 0.125 0.324 -0.105 c 0 -0.059 -0.031 -0.148 -0.07 -0.191 c -0.066 -0.078 -0.066 -0.082 0.043 -0.082 c 0.066 0 0.16 0.047 0.219 0.109 c 0.25 0.266 0.031 0.926 -0.305 0.926 c -0.043 0 -0.141 -0.039 -0.215 -0.09 m -3.953 -0.742 c 0 -0.137 0.02 -0.16 0.152 -0.207 c 0.195 -0.066 0.273 -0.031 0.273 0.129 c 0 0.141 -0.129 0.234 -0.32 0.234 c -0.09 0 -0.105 -0.02 -0.105 -0.156" fill="#e65d62"/><path d="m 2.906 11.133 c -0.156 -0.18 -0.133 -0.375 0.031 -0.281 c 0.129 0.074 0.281 0.012 0.375 -0.152 c 0.121 -0.215 0.109 -0.395 -0.043 -0.551 c -0.07 -0.07 -0.129 -0.16 -0.129 -0.203 c 0 -0.121 0.242 -0.781 0.293 -0.801 c 0.023 -0.008 0.047 0.008 0.047 0.035 c 0 0.027 0.02 0.035 0.047 0.02 c 0.027 -0.016 0.09 0.027 0.141 0.094 c 0.07 0.094 0.133 0.129 0.23 0.129 c 0.168 0 0.266 -0.098 0.324 -0.32 c 0.035 -0.137 0.063 -0.168 0.148 -0.168 c 0.09 0 0.109 0.023 0.125 0.176 c 0.047 0.375 0.379 0.43 0.547 0.086 l 0.082 -0.172 l 0.051 0.121 c 0.129 0.293 -0.078 0.621 -0.387 0.621 c -0.152 0 -0.16 0.008 -0.125 0.102 c 0.043 0.129 -0.008 0.285 -0.117 0.344 c -0.047 0.027 -0.121 0.121 -0.172 0.207 c -0.086 0.16 -0.086 0.16 -0.398 0.16 c -0.172 0 -0.332 -0.023 -0.355 -0.051 c -0.086 -0.09 -0.141 0.004 -0.141 0.238 c 0 0.188 -0.02 0.246 -0.125 0.355 c -0.156 0.168 -0.313 0.172 -0.449 0.012 m 1.723 0 c -0.051 -0.063 -0.09 -0.164 -0.09 -0.223 c 0 -0.098 0.012 -0.102 0.117 -0.059 c 0.063 0.023 0.156 0.035 0.211 0.02 c 0.094 -0.023 0.223 -0.23 0.223 -0.359 c 0 -0.039 0.047 -0.09 0.105 -0.113 c 0.059 -0.023 0.105 -0.074 0.105 -0.109 c 0 -0.094 0.043 -0.113 0.422 -0.184 c 0.184 -0.035 0.426 -0.105 0.531 -0.16 l 0.199 -0.094 l -0.133 -0.156 c -0.07 -0.086 -0.129 -0.199 -0.129 -0.246 c 0 -0.078 0.02 -0.086 0.172 -0.063 c 0.188 0.035 0.313 -0.047 0.383 -0.242 c 0.02 -0.055 0.066 -0.102 0.102 -0.102 c 0.063 0 0.09 0.027 0.238 0.238 c 0.145 0.207 0.406 0.152 0.504 -0.098 c 0.074 -0.191 0.188 -0.176 0.32 0.043 c 0.098 0.168 0.156 0.199 0.316 0.184 c 0.102 -0.016 0.254 -0.223 0.254 -0.348 c 0 -0.078 0.027 -0.125 0.086 -0.141 c 0.07 -0.02 0.082 -0.063 0.082 -0.266 c 0 -0.184 0.023 -0.266 0.086 -0.332 c 0.102 -0.105 0.117 -0.359 0.023 -0.359 c -0.031 0 -0.148 0.078 -0.258 0.18 c -0.105 0.098 -0.211 0.18 -0.23 0.18 c -0.109 0 -0.262 -0.102 -0.297 -0.203 c -0.055 -0.145 -0.172 -0.145 -0.301 0.004 c -0.203 0.23 -0.457 0.23 -0.555 -0.004 c -0.117 -0.27 -0.406 -0.047 -0.352 0.273 c 0.023 0.117 0.016 0.176 -0.027 0.203 c -0.09 0.059 -0.223 0.051 -0.316 -0.023 c -0.066 -0.051 -0.07 -0.074 -0.027 -0.121 c 0.039 -0.047 0.035 -0.074 -0.031 -0.148 c -0.098 -0.113 -0.23 -0.43 -0.18 -0.43 c 0.023 0 0.098 0.02 0.172 0.047 c 0.285 0.105 0.445 -0.168 0.375 -0.648 c -0.035 -0.242 -0.027 -0.273 0.074 -0.418 c 0.211 -0.289 0.465 -0.145 0.367 0.207 c -0.027 0.094 -0.078 0.195 -0.113 0.227 c -0.07 0.063 -0.082 0.285 -0.016 0.48 c 0.086 0.273 0.457 0.219 0.555 -0.078 c 0.063 -0.191 0.184 -0.172 0.285 0.043 c 0.145 0.293 0.434 0.281 0.57 -0.023 c 0.039 -0.086 0.098 -0.152 0.129 -0.152 c 0.074 0 0.195 0.168 0.195 0.277 c 0 0.055 0.047 0.086 0.145 0.105 c 0.246 0.051 0.402 -0.102 0.43 -0.426 c 0.012 -0.133 -0.012 -0.188 -0.141 -0.328 l -0.156 -0.172 l 0.102 -0.348 c 0.055 -0.191 0.129 -0.477 0.164 -0.629 c 0.063 -0.266 0.063 -0.285 -0.012 -0.371 c -0.043 -0.051 -0.152 -0.113 -0.242 -0.141 c -0.191 -0.055 -0.273 -0.18 -0.203 -0.313 c 0.023 -0.051 0.059 -0.094 0.074 -0.094 c 0.227 -0.035 3.297 -0.023 3.441 0.016 c 0.289 0.07 0.484 0.191 0.652 0.398 l 0.152 0.191 v 0.898 l -0.168 0.234 c -0.18 0.258 -0.523 0.52 -0.785 0.605 c -0.461 0.148 -0.5 0.199 -0.211 0.277 c 0.105 0.027 0.277 0.113 0.383 0.188 c 0.199 0.141 0.426 0.488 0.387 0.594 c -0.016 0.035 -0.098 0.086 -0.191 0.113 c -0.223 0.063 -0.398 0.238 -0.371 0.375 c 0.012 0.055 0.031 0.156 0.043 0.219 c 0.035 0.176 0.227 0.238 0.398 0.129 c 0.07 -0.047 0.141 -0.125 0.156 -0.176 c 0.031 -0.109 0.086 -0.121 0.121 -0.023 c 0.078 0.219 -0.039 0.48 -0.266 0.602 c -0.09 0.051 -0.172 0.133 -0.188 0.18 c -0.012 0.051 -0.09 0.129 -0.172 0.168 c -0.133 0.07 -0.18 0.07 -0.359 0.023 c -0.223 -0.063 -0.336 -0.031 -0.508 0.129 c -0.086 0.078 -0.098 0.121 -0.078 0.273 c 0.027 0.215 0.129 0.359 0.262 0.359 c 0.117 0 0.305 -0.152 0.34 -0.273 c 0.043 -0.148 0.227 -0.117 0.281 0.047 c 0.09 0.27 0.309 0.297 0.5 0.059 c 0.109 -0.129 0.145 -0.148 0.176 -0.102 c 0.066 0.105 0.008 0.363 -0.117 0.5 c -0.164 0.18 -0.316 0.172 -0.461 -0.031 c -0.063 -0.086 -0.141 -0.156 -0.176 -0.156 c -0.035 0 -0.125 0.07 -0.199 0.156 c -0.188 0.211 -0.324 0.211 -0.48 0 c -0.063 -0.086 -0.145 -0.156 -0.18 -0.156 c -0.031 0 -0.121 0.07 -0.195 0.156 c -0.168 0.195 -0.316 0.207 -0.465 0.039 c -0.059 -0.066 -0.105 -0.137 -0.105 -0.156 c 0 -0.094 -0.16 -0.027 -0.289 0.117 c -0.094 0.105 -0.18 0.16 -0.258 0.16 c -0.137 0 -0.301 -0.168 -0.301 -0.305 c 0 -0.109 0.066 -0.172 0.105 -0.102 c 0.051 0.082 0.238 0.047 0.344 -0.066 c 0.07 -0.074 0.102 -0.16 0.102 -0.266 c 0 -0.117 0.023 -0.164 0.086 -0.188 c 0.125 -0.043 0.156 0 0.18 0.234 c 0.035 0.324 0.242 0.43 0.473 0.238 c 0.094 -0.082 0.109 -0.129 0.109 -0.32 c 0 -0.16 -0.023 -0.27 -0.086 -0.359 l -0.09 -0.133 l 0.141 -0.176 c 0.078 -0.094 0.18 -0.18 0.227 -0.188 c 0.047 -0.008 0.09 -0.059 0.102 -0.105 c 0.023 -0.141 0.07 -0.172 0.172 -0.117 c 0.262 0.148 0.551 -0.375 0.359 -0.664 c -0.051 -0.078 -0.105 -0.098 -0.25 -0.098 c -0.18 0 -0.188 -0.008 -0.305 -0.238 c -0.148 -0.293 -0.328 -0.426 -0.641 -0.465 c -0.133 -0.016 -0.266 -0.051 -0.293 -0.074 c -0.035 -0.031 -0.074 0.008 -0.133 0.137 c -0.051 0.098 -0.145 0.227 -0.215 0.289 c -0.094 0.086 -0.113 0.125 -0.074 0.164 c 0.035 0.039 0.031 0.09 -0.023 0.199 c -0.039 0.078 -0.09 0.266 -0.117 0.414 c -0.023 0.148 -0.07 0.363 -0.102 0.473 c -0.031 0.117 -0.047 0.313 -0.039 0.453 c 0.02 0.23 0.012 0.258 -0.121 0.414 l -0.141 0.164 l -0.906 0.02 l -0.902 0.016 l -0.07 -0.109 c -0.063 -0.105 -0.063 -0.117 0.027 -0.191 c 0.051 -0.047 0.199 -0.098 0.324 -0.113 c 0.184 -0.023 0.23 -0.047 0.246 -0.125 c 0.012 -0.055 0.031 -0.129 0.047 -0.172 c 0.023 -0.051 -0.004 -0.086 -0.09 -0.125 c -0.063 -0.027 -0.148 -0.109 -0.187 -0.184 c -0.086 -0.156 -0.164 -0.145 -0.34 0.051 c -0.094 0.105 -0.148 0.129 -0.313 0.129 c -0.145 0 -0.191 0.016 -0.176 0.059 c 0.012 0.031 -0.004 0.125 -0.039 0.207 c -0.059 0.148 -0.063 0.152 -0.238 0.121 c -0.508 -0.094 -0.438 -0.121 -0.781 0.305 c -0.129 0.16 -0.145 0.164 -0.406 0.164 c -0.191 0 -0.289 -0.02 -0.328 -0.066 c -0.078 -0.102 -0.125 -0.039 -0.125 0.164 c 0 0.434 -0.379 0.703 -0.59 0.414 m 5.48 -3.309 c 0.059 -0.074 0.109 -0.168 0.109 -0.207 c 0 -0.051 0.027 -0.063 0.105 -0.047 c 0.066 0.012 0.105 0 0.105 -0.039 c 0 -0.031 0.078 -0.066 0.18 -0.086 c 0.629 -0.098 0.844 -0.234 1.043 -0.652 c 0.07 -0.148 0.141 -0.387 0.156 -0.52 c 0.055 -0.453 -0.105 -0.648 -0.555 -0.688 c -0.324 -0.027 -0.406 0.043 -0.508 0.426 c -0.25 0.934 -0.344 1.211 -0.441 1.262 c -0.082 0.043 -0.121 0.035 -0.219 -0.043 c -0.102 -0.078 -0.137 -0.086 -0.223 -0.043 c -0.289 0.141 -0.355 0.352 -0.195 0.629 c 0.113 0.199 0.285 0.203 0.441 0.008 m -3.813 3.32 c -0.059 -0.063 -0.105 -0.164 -0.105 -0.227 c 0 -0.117 0.059 -0.152 0.105 -0.07 c 0.039 0.066 0.203 0.055 0.309 -0.023 c 0.051 -0.039 0.113 -0.156 0.141 -0.262 c 0.043 -0.16 0.055 -0.176 0.082 -0.098 c 0.02 0.051 0.039 0.184 0.039 0.301 c 0.004 0.168 -0.02 0.234 -0.121 0.348 c -0.148 0.172 -0.305 0.184 -0.449 0.031 m -3.961 -0.723 c 0 -0.137 0.016 -0.16 0.148 -0.207 c 0.199 -0.066 0.277 -0.031 0.277 0.129 c 0 0.141 -0.129 0.234 -0.32 0.234 c -0.09 0 -0.105 -0.02 -0.105 -0.156 m 1.219 -1.746 c -0.031 -0.09 0.043 -0.309 0.121 -0.371 c 0.051 -0.043 0.063 -0.09 0.043 -0.176 c -0.039 -0.172 -0.188 -0.156 -0.359 0.039 c -0.16 0.18 -0.305 0.199 -0.43 0.066 c -0.082 -0.086 -0.156 -0.301 -0.117 -0.34 c 0.012 -0.012 0.078 0 0.148 0.027 c 0.172 0.063 0.293 -0.004 0.375 -0.211 c 0.035 -0.082 0.078 -0.152 0.098 -0.152 c 0.105 0 0.176 0.066 0.215 0.203 c 0.078 0.254 0.367 0.258 0.527 0.012 c 0.07 -0.105 0.094 -0.484 0.031 -0.484 c -0.016 0 -0.078 -0.066 -0.129 -0.141 l -0.098 -0.141 l 0.156 -0.578 c 0.086 -0.32 0.145 -0.617 0.129 -0.664 c -0.012 -0.047 -0.074 -0.113 -0.141 -0.145 c -0.063 -0.031 -0.164 -0.078 -0.223 -0.109 c -0.125 -0.063 -0.16 -0.254 -0.066 -0.34 c 0.047 -0.039 0.211 -0.055 0.539 -0.051 c 0.262 0.004 0.484 0.012 0.5 0.023 c 0.016 0.008 0.684 0 1.488 -0.016 c 0.801 -0.02 1.5 -0.02 1.551 0 c 0.152 0.059 0.148 0.176 -0.008 0.695 c -0.172 0.563 -0.242 0.695 -0.355 0.695 c -0.129 0 -0.203 -0.113 -0.258 -0.379 c -0.035 -0.188 -0.082 -0.277 -0.195 -0.383 c -0.145 -0.137 -0.145 -0.137 -0.668 -0.137 c -0.445 0 -0.531 0.012 -0.582 0.078 c -0.035 0.043 -0.117 0.27 -0.184 0.508 c -0.066 0.234 -0.164 0.586 -0.223 0.785 c -0.102 0.336 -0.105 0.359 -0.035 0.414 c 0.055 0.039 0.156 0.047 0.34 0.031 c 0.262 -0.027 0.266 -0.027 0.309 0.102 c 0.023 0.074 0.059 0.172 0.078 0.219 c 0.023 0.066 0.016 0.078 -0.035 0.059 c -0.039 -0.016 -0.078 0 -0.09 0.035 c -0.02 0.051 -0.105 0.066 -0.34 0.066 c -0.457 0 -0.504 0.031 -0.59 0.352 c -0.066 0.258 -0.078 0.27 -0.289 0.367 c -0.176 0.078 -0.262 0.094 -0.395 0.07 c -0.238 -0.047 -0.48 -0.051 -0.664 -0.008 c -0.117 0.027 -0.16 0.023 -0.176 -0.023" fill="#5f5de4"/><path d="m 2.906 11.133 c -0.156 -0.18 -0.133 -0.375 0.031 -0.281 c 0.129 0.074 0.281 0.012 0.375 -0.152 c 0.09 -0.156 0.109 -0.414 0.039 -0.461 c -0.129 -0.082 -0.125 -0.25 0.008 -0.621 c 0.07 -0.203 0.148 -0.391 0.168 -0.414 c 0.027 -0.027 0.074 0.004 0.137 0.086 c 0.074 0.098 0.137 0.133 0.234 0.133 c 0.168 0 0.266 -0.098 0.324 -0.32 c 0.035 -0.137 0.063 -0.168 0.148 -0.168 c 0.09 0 0.109 0.023 0.125 0.176 c 0.047 0.375 0.379 0.43 0.547 0.086 l 0.082 -0.172 l 0.051 0.121 c 0.133 0.305 -0.078 0.621 -0.41 0.621 c -0.152 0 -0.184 0.016 -0.184 0.086 c 0 0.211 -0.035 0.23 -0.332 0.203 c -0.352 -0.027 -0.492 0.035 -0.492 0.23 c 0 0.098 -0.023 0.137 -0.086 0.148 c -0.148 0.031 -0.191 0.105 -0.191 0.332 c 0 0.188 -0.02 0.246 -0.125 0.355 c -0.156 0.168 -0.313 0.172 -0.449 0.012 m 1.723 0 c -0.051 -0.063 -0.09 -0.164 -0.09 -0.223 c 0 -0.094 0.012 -0.102 0.109 -0.063 c 0.219 0.09 0.332 0.023 0.418 -0.246 c 0.059 -0.176 0.234 -0.316 0.234 -0.184 c 0 0.035 -0.02 0.078 -0.039 0.09 c -0.023 0.016 -0.043 0.109 -0.043 0.211 c 0 0.434 -0.379 0.703 -0.59 0.414 m 1.668 0.012 c -0.059 -0.063 -0.105 -0.164 -0.105 -0.227 c 0 -0.117 0.059 -0.152 0.105 -0.07 c 0.039 0.066 0.203 0.055 0.309 -0.023 c 0.051 -0.039 0.113 -0.156 0.141 -0.262 c 0.043 -0.16 0.055 -0.176 0.082 -0.098 c 0.02 0.051 0.039 0.184 0.039 0.301 c 0.004 0.168 -0.02 0.234 -0.121 0.348 c -0.148 0.172 -0.305 0.184 -0.449 0.031 m 3.504 0.004 c -0.094 -0.105 -0.121 -0.277 -0.051 -0.32 c 0.02 -0.016 0.051 -0.008 0.066 0.02 c 0.047 0.082 0.234 0.047 0.34 -0.066 c 0.07 -0.074 0.105 -0.16 0.105 -0.266 c 0 -0.117 0.02 -0.164 0.082 -0.188 c 0.125 -0.039 0.156 0 0.184 0.234 c 0.031 0.324 0.238 0.43 0.469 0.238 c 0.094 -0.082 0.113 -0.129 0.113 -0.336 c 0 -0.133 -0.02 -0.254 -0.043 -0.27 c -0.059 -0.039 -0.008 -0.148 0.176 -0.398 c 0.09 -0.121 0.16 -0.258 0.16 -0.301 c 0 -0.113 0.066 -0.148 0.172 -0.09 c 0.137 0.078 0.324 -0.055 0.383 -0.266 c 0.086 -0.301 -0.027 -0.547 -0.25 -0.547 c -0.094 0 -0.133 -0.043 -0.234 -0.254 c -0.078 -0.152 -0.188 -0.293 -0.281 -0.359 c -0.156 -0.113 -0.629 -0.227 -0.738 -0.184 c -0.035 0.016 -0.102 0.105 -0.148 0.203 c -0.047 0.098 -0.145 0.234 -0.223 0.301 c -0.074 0.066 -0.156 0.168 -0.184 0.219 c -0.039 0.09 -0.074 0.098 -0.566 0.098 c -0.559 0 -0.605 -0.02 -0.527 -0.219 c 0.055 -0.145 0.023 -0.434 -0.051 -0.434 c -0.031 0 -0.145 0.078 -0.254 0.18 c -0.105 0.098 -0.211 0.18 -0.23 0.18 c -0.109 0 -0.262 -0.102 -0.297 -0.203 c -0.055 -0.145 -0.168 -0.145 -0.301 0.004 c -0.203 0.23 -0.457 0.23 -0.555 -0.004 c -0.082 -0.191 -0.246 -0.137 -0.359 0.113 c -0.051 0.109 -0.102 0.238 -0.117 0.281 c -0.027 0.094 -0.152 0.105 -0.152 0.016 c 0 -0.035 -0.047 -0.125 -0.105 -0.199 c -0.121 -0.152 -0.254 -0.457 -0.199 -0.457 c 0.023 0 0.098 0.02 0.168 0.047 c 0.238 0.086 0.402 -0.09 0.398 -0.426 c -0.004 -0.258 0.063 -0.496 0.164 -0.594 c 0.137 -0.133 0.191 -0.027 0.121 0.234 c -0.059 0.234 -0.059 0.406 0.008 0.629 c 0.082 0.277 0.457 0.227 0.555 -0.078 c 0.063 -0.188 0.184 -0.168 0.285 0.043 c 0.145 0.297 0.434 0.285 0.57 -0.02 c 0.039 -0.086 0.098 -0.152 0.129 -0.152 c 0.074 0 0.195 0.168 0.195 0.277 c 0 0.113 0.266 0.16 0.398 0.066 c 0.105 -0.074 0.195 -0.301 0.18 -0.457 c -0.004 -0.051 -0.043 -0.145 -0.086 -0.215 c -0.094 -0.148 -0.086 -0.254 0.094 -0.895 c 0.074 -0.262 0.133 -0.512 0.133 -0.551 c 0 -0.113 -0.188 -0.313 -0.344 -0.371 c -0.078 -0.027 -0.141 -0.078 -0.141 -0.109 c 0 -0.078 2.906 -0.109 3.313 -0.039 c 0.316 0.059 0.555 0.211 0.68 0.449 c 0.055 0.094 0.117 0.176 0.137 0.176 c 0.023 0 0.043 0.121 0.043 0.27 c 0 0.148 -0.016 0.27 -0.035 0.27 c -0.02 0 -0.086 0.102 -0.148 0.223 c -0.203 0.395 -0.488 0.598 -1.066 0.766 c -0.188 0.055 -0.387 0.133 -0.441 0.172 c -0.098 0.066 -0.098 0.074 -0.027 0.129 c 0.039 0.031 0.172 0.07 0.293 0.086 c 0.398 0.059 0.727 0.258 0.859 0.527 c 0.086 0.184 0.074 0.211 -0.133 0.309 c -0.195 0.086 -0.285 0.227 -0.254 0.387 c 0.008 0.047 0.027 0.137 0.039 0.203 c 0.035 0.176 0.227 0.238 0.398 0.129 c 0.07 -0.047 0.141 -0.125 0.156 -0.176 c 0.031 -0.113 0.086 -0.121 0.121 -0.023 c 0.09 0.246 -0.039 0.492 -0.336 0.637 c -0.129 0.059 -0.23 0.129 -0.23 0.148 c 0 0.063 -0.164 0.102 -0.469 0.113 c -0.219 0.004 -0.313 0.031 -0.422 0.113 c -0.129 0.098 -0.137 0.117 -0.117 0.32 c 0.023 0.246 0.125 0.398 0.266 0.398 c 0.117 0 0.305 -0.148 0.34 -0.27 c 0.043 -0.148 0.227 -0.117 0.281 0.047 c 0.09 0.27 0.309 0.297 0.5 0.059 c 0.109 -0.129 0.145 -0.148 0.176 -0.102 c 0.066 0.105 0.008 0.363 -0.117 0.5 c -0.164 0.18 -0.316 0.172 -0.461 -0.031 c -0.063 -0.086 -0.141 -0.156 -0.176 -0.156 c -0.035 0 -0.125 0.07 -0.199 0.156 c -0.188 0.211 -0.324 0.211 -0.48 0 c -0.063 -0.086 -0.145 -0.156 -0.18 -0.156 c -0.031 0 -0.121 0.07 -0.195 0.156 c -0.168 0.195 -0.316 0.207 -0.465 0.039 c -0.059 -0.066 -0.105 -0.137 -0.105 -0.156 c 0 -0.094 -0.16 -0.027 -0.289 0.117 c -0.168 0.191 -0.328 0.207 -0.465 0.055 m 0.309 -3.324 c 0.059 -0.074 0.109 -0.168 0.109 -0.207 c 0 -0.051 0.027 -0.063 0.113 -0.047 c 0.133 0.027 0.605 -0.035 0.816 -0.109 c 0.395 -0.137 0.762 -0.742 0.777 -1.266 c 0.012 -0.484 -0.188 -0.695 -0.695 -0.746 c -0.414 -0.039 -0.461 0.027 -0.738 1.027 c -0.09 0.309 -0.191 0.625 -0.23 0.703 c -0.07 0.141 -0.07 0.141 -0.168 0.055 c -0.211 -0.18 -0.512 -0.023 -0.512 0.27 c 0 0.414 0.305 0.602 0.527 0.32 m -7.586 2.613 c -0.043 -0.074 0.047 -0.145 0.148 -0.109 c 0.125 0.043 0.113 0.16 -0.016 0.16 c -0.055 0 -0.117 -0.023 -0.133 -0.051 m 2.84 -0.004 c -0.02 -0.027 0 -0.074 0.043 -0.105 c 0.07 -0.059 0.516 -0.156 0.695 -0.156 c 0.125 0 0.113 0.109 -0.02 0.223 c -0.09 0.074 -0.172 0.094 -0.402 0.094 c -0.172 0 -0.301 -0.023 -0.316 -0.055 m 2.426 0.023 c -0.063 -0.066 -0.023 -0.105 0.098 -0.105 c 0.07 0 0.129 0.02 0.129 0.047 c 0 0.023 -0.02 0.043 -0.039 0.043 c -0.023 0 -0.066 0.012 -0.098 0.023 c -0.035 0.016 -0.074 0.012 -0.09 -0.008 m 0.926 -0.059 c -0.016 -0.023 0 -0.086 0.027 -0.137 c 0.047 -0.082 0.043 -0.105 -0.027 -0.16 c -0.043 -0.035 -0.145 -0.066 -0.223 -0.066 c -0.125 0 -0.156 -0.031 -0.145 -0.141 c 0 -0.016 -0.07 -0.059 -0.156 -0.102 c -0.086 -0.043 -0.188 -0.137 -0.227 -0.207 c -0.086 -0.156 -0.164 -0.145 -0.34 0.051 c -0.098 0.113 -0.145 0.129 -0.344 0.129 c -0.215 0 -0.234 0.012 -0.258 0.113 c -0.035 0.145 -0.191 0.211 -0.414 0.176 c -0.125 -0.023 -0.16 -0.047 -0.145 -0.098 c 0.016 -0.039 -0.035 -0.141 -0.125 -0.242 c -0.082 -0.094 -0.148 -0.215 -0.148 -0.266 c 0 -0.078 0.02 -0.086 0.172 -0.063 c 0.188 0.035 0.313 -0.047 0.383 -0.242 c 0.02 -0.055 0.066 -0.098 0.102 -0.098 c 0.063 0 0.09 0.023 0.238 0.234 c 0.145 0.207 0.406 0.152 0.504 -0.098 c 0.074 -0.191 0.188 -0.176 0.32 0.043 c 0.098 0.168 0.16 0.203 0.316 0.18 c 0.105 -0.012 0.219 -0.16 0.25 -0.32 c 0.02 -0.109 0.051 -0.152 0.113 -0.156 c 0.043 0 0.105 -0.016 0.137 -0.035 c 0.027 -0.02 0.121 -0.012 0.203 0.016 c 0.094 0.035 0.238 0.043 0.371 0.023 c 0.438 -0.059 0.43 -0.063 0.441 0.102 c 0.008 0.086 -0.016 0.246 -0.051 0.359 c -0.078 0.242 -0.086 0.547 -0.02 0.703 c 0.035 0.086 0.031 0.133 -0.027 0.227 c -0.07 0.113 -0.086 0.117 -0.488 0.117 c -0.23 0 -0.43 -0.02 -0.441 -0.043 m -5 -1.992 c 0.055 -0.422 -0.102 -0.527 -0.355 -0.238 c -0.16 0.18 -0.305 0.199 -0.43 0.066 c -0.082 -0.086 -0.156 -0.301 -0.117 -0.34 c 0.008 -0.012 0.078 0 0.148 0.027 c 0.172 0.063 0.293 -0.004 0.375 -0.211 c 0.035 -0.082 0.078 -0.152 0.098 -0.152 c 0.105 0 0.176 0.066 0.215 0.203 c 0.078 0.254 0.367 0.258 0.527 0.012 c 0.082 -0.121 0.09 -0.469 0.012 -0.5 c -0.07 -0.027 -0.086 -0.344 -0.027 -0.508 c 0.027 -0.074 0.094 -0.313 0.148 -0.535 c 0.086 -0.355 0.094 -0.418 0.043 -0.547 c -0.039 -0.102 -0.102 -0.16 -0.207 -0.195 c -0.082 -0.031 -0.168 -0.078 -0.195 -0.113 c -0.098 -0.125 0.047 -0.152 0.691 -0.113 c 0.348 0.023 0.648 0.031 0.664 0.02 c 0.059 -0.039 2.551 -0.027 2.59 0.012 c 0.023 0.027 -0.004 0.188 -0.074 0.422 c -0.23 0.781 -0.301 0.844 -0.418 0.383 c -0.078 -0.305 -0.207 -0.48 -0.418 -0.566 c -0.066 -0.023 -0.344 -0.047 -0.617 -0.047 c -0.605 0 -0.621 0.012 -0.789 0.609 c -0.066 0.223 -0.172 0.586 -0.238 0.813 c -0.066 0.223 -0.121 0.434 -0.121 0.473 c 0 0.137 0.098 0.18 0.422 0.18 c 0.266 0 0.34 0.016 0.418 0.09 c 0.051 0.051 0.09 0.109 0.09 0.125 c 0 0.02 -0.215 0.031 -0.48 0.031 c -0.332 0 -0.5 0.02 -0.547 0.059 c -0.035 0.035 -0.105 0.199 -0.156 0.371 c -0.047 0.172 -0.109 0.328 -0.141 0.348 c -0.027 0.02 -0.297 0.035 -0.594 0.035 h -0.543" fill="#0b0aec"/><path d="m 2.906 11.133 c -0.156 -0.18 -0.133 -0.375 0.031 -0.281 c 0.285 0.164 0.602 -0.383 0.383 -0.652 c -0.07 -0.086 -0.07 -0.086 0.027 -0.016 c 0.152 0.109 0.238 0.258 0.18 0.316 c -0.027 0.027 -0.047 0.148 -0.047 0.27 c 0 0.184 -0.02 0.242 -0.125 0.352 c -0.156 0.168 -0.313 0.172 -0.449 0.012 m 1.723 0 c -0.051 -0.063 -0.09 -0.164 -0.09 -0.223 c 0 -0.094 0.012 -0.102 0.109 -0.063 c 0.219 0.09 0.332 0.023 0.418 -0.246 c 0.059 -0.176 0.234 -0.316 0.234 -0.184 c 0 0.035 -0.02 0.078 -0.039 0.09 c -0.023 0.016 -0.043 0.109 -0.043 0.211 c 0 0.434 -0.379 0.703 -0.59 0.414 m 1.668 0.012 c -0.059 -0.063 -0.105 -0.164 -0.105 -0.227 c 0 -0.117 0.059 -0.152 0.105 -0.07 c 0.039 0.066 0.203 0.055 0.309 -0.023 c 0.051 -0.039 0.113 -0.156 0.141 -0.262 c 0.043 -0.16 0.055 -0.176 0.082 -0.098 c 0.02 0.051 0.039 0.184 0.039 0.301 c 0.004 0.168 -0.02 0.234 -0.121 0.348 c -0.148 0.172 -0.305 0.184 -0.449 0.031 m 3.504 0.004 c -0.094 -0.105 -0.121 -0.277 -0.051 -0.32 c 0.02 -0.016 0.051 -0.008 0.066 0.02 c 0.047 0.082 0.234 0.047 0.34 -0.066 c 0.07 -0.074 0.105 -0.16 0.105 -0.266 c 0 -0.117 0.02 -0.164 0.082 -0.188 c 0.125 -0.039 0.156 0 0.184 0.234 c 0.031 0.324 0.238 0.43 0.469 0.238 c 0.094 -0.082 0.113 -0.129 0.113 -0.332 c 0 -0.129 -0.027 -0.262 -0.055 -0.297 c -0.027 -0.031 0.008 -0.016 0.082 0.039 c 0.07 0.051 0.152 0.098 0.172 0.098 c 0.023 0 0.051 0.09 0.063 0.203 c 0.027 0.23 0.129 0.383 0.266 0.383 c 0.117 0 0.305 -0.152 0.34 -0.273 c 0.043 -0.148 0.227 -0.117 0.281 0.047 c 0.09 0.27 0.309 0.297 0.504 0.059 c 0.105 -0.129 0.141 -0.148 0.172 -0.102 c 0.066 0.105 0.008 0.363 -0.117 0.5 c -0.164 0.18 -0.316 0.172 -0.461 -0.031 c -0.063 -0.086 -0.141 -0.156 -0.176 -0.156 c -0.035 0 -0.125 0.07 -0.199 0.156 c -0.188 0.211 -0.324 0.211 -0.48 0 c -0.063 -0.086 -0.145 -0.156 -0.176 -0.156 c -0.035 0 -0.125 0.07 -0.199 0.156 c -0.168 0.195 -0.316 0.207 -0.465 0.039 c -0.059 -0.066 -0.102 -0.137 -0.102 -0.156 c 0 -0.094 -0.164 -0.027 -0.293 0.117 c -0.168 0.191 -0.328 0.207 -0.465 0.055 m -7.125 -0.703 c 0 -0.023 0.02 -0.055 0.043 -0.07 c 0.023 -0.016 0.043 0.004 0.043 0.043 c 0 0.039 -0.02 0.07 -0.043 0.07 c -0.023 0 -0.043 -0.02 -0.043 -0.043 m 1.16 -0.633 c -0.113 -0.051 -0.297 -0.301 -0.336 -0.457 c -0.039 -0.18 0.055 -0.211 0.168 -0.063 c 0.07 0.094 0.133 0.129 0.23 0.129 c 0.168 0 0.266 -0.098 0.324 -0.32 c 0.035 -0.137 0.063 -0.168 0.148 -0.168 c 0.09 0 0.109 0.023 0.125 0.176 c 0.047 0.375 0.379 0.43 0.547 0.082 l 0.082 -0.168 l 0.051 0.121 c 0.074 0.168 0.02 0.418 -0.113 0.531 c -0.133 0.109 -0.445 0.125 -0.523 0.023 c -0.074 -0.098 -0.148 -0.086 -0.328 0.043 c -0.168 0.121 -0.23 0.133 -0.375 0.07 m 2.488 -0.117 c -0.074 -0.086 -0.133 -0.199 -0.133 -0.246 c 0 -0.078 0.02 -0.086 0.172 -0.063 c 0.188 0.035 0.313 -0.047 0.383 -0.242 c 0.02 -0.055 0.066 -0.098 0.102 -0.098 c 0.063 0 0.09 0.023 0.238 0.234 c 0.145 0.207 0.406 0.152 0.504 -0.098 c 0.074 -0.191 0.188 -0.176 0.32 0.043 c 0.098 0.168 0.16 0.203 0.316 0.18 c 0.105 -0.012 0.219 -0.16 0.25 -0.32 c 0.035 -0.191 0.16 -0.23 0.199 -0.066 c 0.051 0.219 -0.023 0.52 -0.172 0.691 l -0.141 0.164 l -0.164 -0.078 c -0.09 -0.043 -0.195 -0.141 -0.234 -0.211 c -0.086 -0.156 -0.164 -0.145 -0.34 0.051 c -0.094 0.109 -0.148 0.129 -0.324 0.129 c -0.133 0 -0.227 -0.023 -0.262 -0.066 c -0.074 -0.094 -0.129 -0.086 -0.297 0.043 c -0.191 0.152 -0.262 0.145 -0.418 -0.047 m 5.176 0.066 c -0.117 -0.078 -0.133 -0.113 -0.113 -0.215 c 0.039 -0.168 0.082 -0.203 0.184 -0.145 c 0.23 0.133 0.504 -0.277 0.395 -0.59 l -0.047 -0.133 l 0.141 0.094 c 0.074 0.051 0.145 0.082 0.156 0.07 c 0.012 -0.012 0.023 0.063 0.027 0.16 c 0.008 0.27 0.043 0.344 0.176 0.395 c 0.145 0.051 0.359 -0.063 0.406 -0.215 c 0.031 -0.109 0.086 -0.121 0.121 -0.023 c 0.082 0.23 -0.051 0.504 -0.305 0.625 l -0.172 0.082 l -0.133 -0.117 c -0.164 -0.145 -0.18 -0.145 -0.371 -0.008 c -0.191 0.137 -0.285 0.141 -0.465 0.02 m -5.129 -1.449 c -0.105 -0.117 -0.238 -0.438 -0.188 -0.438 c 0.023 0 0.098 0.02 0.168 0.047 c 0.246 0.09 0.406 -0.094 0.398 -0.457 l -0.004 -0.215 l 0.125 0.066 c 0.094 0.051 0.125 0.098 0.125 0.191 c 0 0.07 0.02 0.188 0.047 0.262 c 0.09 0.273 0.457 0.219 0.555 -0.078 c 0.063 -0.191 0.184 -0.172 0.285 0.043 c 0.145 0.293 0.434 0.281 0.57 -0.023 c 0.039 -0.086 0.098 -0.152 0.129 -0.152 c 0.078 0 0.195 0.168 0.195 0.277 c 0 0.098 0.25 0.156 0.375 0.086 c 0.184 -0.105 0.27 -0.496 0.145 -0.645 c -0.055 -0.063 -0.031 -0.059 0.109 0.02 c 0.145 0.086 0.176 0.125 0.176 0.238 c 0 0.219 0.145 0.43 0.293 0.43 c 0.129 0 0.344 -0.215 0.344 -0.348 c 0 -0.105 0.188 -0.055 0.203 0.055 c 0.023 0.18 -0.355 0.742 -0.496 0.742 c -0.02 0 -0.121 -0.063 -0.23 -0.141 l -0.199 -0.137 l -0.129 0.117 c -0.09 0.078 -0.18 0.113 -0.289 0.113 c -0.195 0 -0.258 -0.063 -0.258 -0.254 c 0 -0.199 -0.074 -0.191 -0.32 0.031 c -0.105 0.098 -0.211 0.18 -0.23 0.18 c -0.109 0 -0.262 -0.102 -0.297 -0.203 c -0.055 -0.145 -0.168 -0.145 -0.301 0.004 c -0.203 0.23 -0.453 0.23 -0.555 -0.004 c -0.074 -0.172 -0.246 -0.137 -0.34 0.063 c -0.121 0.254 -0.258 0.297 -0.406 0.129 m -2.582 0.027 c -0.031 -0.012 -0.055 -0.063 -0.055 -0.105 c 0 -0.27 -0.172 -0.301 -0.375 -0.066 c -0.16 0.18 -0.301 0.199 -0.43 0.066 c -0.082 -0.086 -0.156 -0.301 -0.117 -0.34 c 0.012 -0.012 0.078 0 0.148 0.027 c 0.172 0.063 0.297 -0.004 0.375 -0.211 c 0.035 -0.082 0.078 -0.152 0.098 -0.152 c 0.105 0 0.176 0.066 0.215 0.203 c 0.082 0.254 0.367 0.258 0.527 0.012 c 0.094 -0.137 0.086 -0.438 -0.008 -0.512 c -0.039 -0.035 -0.051 -0.063 -0.023 -0.063 c 0.082 -0.004 0.262 0.262 0.293 0.426 c 0.031 0.188 -0.039 0.434 -0.18 0.609 c -0.086 0.105 -0.141 0.133 -0.262 0.133 c -0.086 -0.004 -0.18 -0.016 -0.207 -0.027 m 2.25 -0.582 c -0.035 -0.094 0.023 -0.145 0.07 -0.063 c 0.051 0.086 0.051 0.133 -0.004 0.133 c -0.023 0 -0.055 -0.031 -0.066 -0.07 m 4.059 -0.52 c -0.055 -0.047 -0.082 -0.086 -0.063 -0.086 c 0.059 0 0.207 0.125 0.184 0.148 c -0.012 0.016 -0.066 -0.016 -0.121 -0.063" fill="#9f1218"/></svg>