<svg xmlns="http://www.w3.org/2000/svg" viewBox="0 0 16 16"><path d="m 13.949 2.531 c 9.07 13.848 -15.711 19.21 -13.738 4.961 c 0.805 -5.813 10.266 -10.258 13.738 -4.961" fill="#2f4e4e"/><path d="m 3.754 12.336 l -0.141 -0.156 l 0.164 0.133 c 0.09 0.074 0.164 0.145 0.164 0.156 c 0 0.059 -0.059 0.016 -0.188 -0.133 m 5.164 0.086 c 0 -0.043 0.031 -0.055 0.074 -0.031 c 0.039 0.023 0.07 0.055 0.07 0.074 c 0 0.016 -0.031 0.031 -0.07 0.031 c -0.043 0 -0.074 -0.035 -0.074 -0.074 m 3.074 -0.102 c 0.094 -0.098 0.188 -0.176 0.207 -0.176 c 0.02 0 -0.039 0.078 -0.137 0.176 c -0.094 0.094 -0.188 0.176 -0.207 0.176 c -0.02 0 0.043 -0.082 0.137 -0.176 m -3.074 -0.813 c 0 -0.078 0.031 -0.125 0.07 -0.102 c 0.039 0.023 0.051 0.086 0.027 0.145 c -0.059 0.145 -0.098 0.129 -0.098 -0.043 m 0.035 -2.238 c 0.027 -0.039 0.063 -0.07 0.078 -0.07 c 0.02 0 0.031 0.031 0.031 0.07 c 0 0.039 -0.031 0.07 -0.074 0.07 c -0.043 0 -0.059 -0.031 -0.035 -0.07 m -3.109 -0.07 c 0 -0.039 0.035 -0.07 0.074 -0.07 c 0.039 0 0.074 0.031 0.074 0.07 c 0 0.039 -0.035 0.07 -0.074 0.07 c -0.039 0 -0.074 -0.031 -0.074 -0.07 m 0.082 -0.531 c 0 -0.082 0.02 -0.098 0.043 -0.043 c 0.02 0.051 0.02 0.109 -0.008 0.133 c -0.023 0.023 -0.039 -0.016 -0.035 -0.09 m 2.992 -1.219 c 0 -0.117 0.031 -0.215 0.074 -0.215 c 0.039 0 0.07 0.078 0.07 0.172 c 0 0.094 -0.031 0.191 -0.07 0.215 c -0.043 0.023 -0.074 -0.047 -0.074 -0.172 m 0 -0.625 c 0 -0.078 0.031 -0.16 0.074 -0.184 c 0.039 -0.023 0.07 0.02 0.07 0.094 c 0 0.078 -0.031 0.16 -0.07 0.184 c -0.043 0.027 -0.074 -0.02 -0.074 -0.094 m -2.336 -1.313 c 0.004 -0.082 0.02 -0.098 0.043 -0.043 c 0.023 0.051 0.02 0.113 -0.004 0.137 c -0.023 0.02 -0.043 -0.02 -0.039 -0.094 m 2.336 -0.129 c 0 -0.102 0.031 -0.18 0.074 -0.18 c 0.039 0 0.07 0.059 0.07 0.137 c 0 0.074 -0.031 0.152 -0.07 0.176 c -0.043 0.027 -0.074 -0.031 -0.074 -0.133 m 0.051 -0.508 c -0.027 -0.027 -0.051 -0.078 -0.051 -0.121 c 0 -0.043 0.035 -0.039 0.086 0.012 c 0.047 0.047 0.07 0.102 0.051 0.121 c -0.023 0.02 -0.063 0.012 -0.086 -0.012 m -5.246 -0.48 c 0.094 -0.094 0.188 -0.176 0.207 -0.176 c 0.023 0 -0.039 0.082 -0.133 0.176 c -0.094 0.098 -0.188 0.176 -0.211 0.176 c -0.02 0 0.043 -0.078 0.137 -0.176 m 8.297 0.02 l -0.137 -0.16 l 0.164 0.137 c 0.152 0.125 0.199 0.18 0.141 0.18 c -0.016 0 -0.09 -0.07 -0.168 -0.156 m -3.102 -0.086 c 0 -0.094 0.035 -0.188 0.074 -0.215 c 0.043 -0.023 0.074 0.047 0.074 0.172 c 0 0.117 -0.035 0.215 -0.074 0.215 c -0.039 0 -0.074 -0.078 -0.074 -0.172 m -2.598 -0.387 c -0.023 -0.039 -0.008 -0.07 0.031 -0.07 c 0.043 0 0.078 0.031 0.078 0.07 c 0 0.035 -0.012 0.07 -0.031 0.07 c -0.02 0 -0.051 -0.035 -0.078 -0.07 m 0.258 0 c 0 -0.039 0.031 -0.07 0.07 -0.07 c 0.043 0 0.074 0.031 0.074 0.07 c 0 0.035 -0.031 0.07 -0.074 0.07 c -0.039 0 -0.07 -0.035 -0.07 -0.07 m 0.363 0 c 0 -0.039 0.035 -0.07 0.074 -0.07 c 0.039 0 0.074 0.031 0.074 0.07 c 0 0.035 -0.035 0.07 -0.074 0.07 c -0.039 0 -0.074 -0.035 -0.074 -0.07 m 0.293 0 c 0 -0.039 0.035 -0.07 0.074 -0.07 c 0.039 0 0.074 0.031 0.074 0.07 c 0 0.035 -0.035 0.07 -0.074 0.07 c -0.039 0 -0.074 -0.035 -0.074 -0.07 m 1.027 0 c 0 -0.039 0.031 -0.07 0.07 -0.07 c 0.043 0 0.074 0.031 0.074 0.07 c 0 0.035 -0.031 0.07 -0.074 0.07 c -0.039 0 -0.07 -0.035 -0.07 -0.07 m 0.289 -0.004 c 0 -0.043 0.035 -0.059 0.074 -0.031 c 0.043 0.023 0.074 0.055 0.074 0.074 c 0 0.016 -0.031 0.031 -0.074 0.031 c -0.039 0 -0.074 -0.035 -0.074 -0.074 m 0.367 0.004 c 0 -0.039 0.035 -0.07 0.074 -0.07 c 0.039 0 0.074 0.031 0.074 0.07 c 0 0.035 -0.035 0.07 -0.074 0.07 c -0.039 0 -0.074 -0.035 -0.074 -0.07 m 0.695 0 c 0.023 -0.039 0.059 -0.07 0.078 -0.07 c 0.016 0 0.031 0.031 0.031 0.07 c 0 0.035 -0.035 0.07 -0.078 0.07 c -0.043 0 -0.055 -0.035 -0.031 -0.07" fill="#149a59"/><path d="m 5.965 12.648 c -0.027 -0.035 -0.043 -1.449 -0.039 -3.145 c 0.004 -2 -0.023 -3.141 -0.074 -3.266 c -0.051 -0.129 -0.051 -0.254 -0.004 -0.375 c 0.094 -0.234 0.09 -0.941 -0.004 -0.941 c -0.039 0 -0.07 -0.047 -0.07 -0.105 c 0 -0.059 0.031 -0.105 0.07 -0.105 c 0.043 0 0.074 -0.195 0.078 -0.438 c 0 -0.367 0.016 -0.414 0.086 -0.297 c 0.047 0.078 0.074 0.266 0.066 0.418 c -0.023 0.328 0.105 0.27 0.156 -0.066 c 0.016 -0.117 0.031 0.168 0.027 0.629 c 0 0.465 -0.012 0.668 -0.027 0.457 c -0.027 -0.461 -0.078 -0.629 -0.152 -0.512 c -0.027 0.043 -0.039 0.719 -0.02 1.504 c 0.031 1.59 0.031 2.629 0 3.441 c -0.016 0.359 0.004 0.57 0.063 0.629 c 0.07 0.066 0.094 0.031 0.102 -0.16 c 0.004 -0.172 0.016 -0.195 0.039 -0.078 c 0.02 0.09 -0.016 0.266 -0.078 0.391 c -0.082 0.164 -0.113 0.465 -0.113 1.125 c -0.004 0.883 -0.02 1.027 -0.105 0.895 m 3.984 -0.055 c 0.004 -0.082 0.02 -0.098 0.043 -0.043 c 0.02 0.051 0.02 0.113 -0.004 0.137 c -0.027 0.023 -0.043 -0.02 -0.039 -0.094 m 0.277 -0.602 c -0.004 -0.398 -0.004 -0.75 0.004 -0.785 c 0.008 -0.043 0 -3.238 -0.008 -4.113 c -0.016 -1.164 0.039 -3.078 0.086 -3.152 c 0.031 -0.055 0.059 1.883 0.055 4.301 c -0.004 2.418 -0.031 4.414 -0.066 4.434 c -0.035 0.02 -0.066 -0.289 -0.07 -0.684 m -3.648 0.57 c 0 -0.043 0.031 -0.055 0.07 -0.031 c 0.043 0.023 0.074 0.055 0.074 0.074 c 0 0.016 -0.031 0.031 -0.074 0.031 c -0.039 0 -0.07 -0.035 -0.07 -0.074 m 2.078 -0.102 c -0.023 -0.094 -0.012 -0.258 0.027 -0.367 c 0.059 -0.152 0.078 -0.164 0.082 -0.055 c 0.008 0.117 0.02 0.125 0.086 0.035 c 0.063 -0.082 0.07 -0.066 0.035 0.07 c -0.02 0.098 -0.039 0.246 -0.043 0.332 c 0 0.211 -0.133 0.203 -0.188 -0.016 m -2.426 -0.211 c 0 -0.191 0.016 -0.266 0.031 -0.156 c 0.02 0.105 0.02 0.262 0 0.348 c -0.016 0.09 -0.031 0 -0.031 -0.191 m 3.641 0.07 c 0 -0.039 0.031 -0.117 0.07 -0.176 c 0.039 -0.059 0.07 -0.074 0.07 -0.035 c 0 0.039 -0.031 0.117 -0.07 0.176 c -0.039 0.059 -0.07 0.074 -0.07 0.035 m -3.367 -0.195 c 0 -0.086 0.027 -0.258 0.066 -0.379 c 0.043 -0.141 0.039 -0.246 -0.008 -0.289 c -0.043 -0.039 -0.051 -0.113 -0.016 -0.164 c 0.031 -0.051 0.059 -0.641 0.063 -1.313 c 0.004 -0.984 0.023 -1.23 0.105 -1.258 c 0.082 -0.027 0.094 0.047 0.059 0.379 c -0.023 0.227 -0.016 0.539 0.02 0.695 c 0.047 0.227 0.063 0.148 0.066 -0.418 c 0.012 -0.992 0.145 -0.77 0.172 0.289 c 0.016 0.617 -0.004 0.883 -0.07 0.945 c -0.074 0.07 -0.094 0.039 -0.094 -0.156 c 0 -0.172 -0.02 -0.211 -0.066 -0.141 c -0.035 0.055 -0.055 0.457 -0.043 0.895 c 0.012 0.438 -0.008 0.793 -0.043 0.793 c -0.035 0 -0.066 0.063 -0.066 0.141 c 0 0.078 -0.031 0.141 -0.07 0.141 c -0.043 0 -0.074 -0.07 -0.074 -0.16 m 0.367 -0.297 c 0 -0.105 0.031 -0.164 0.07 -0.141 c 0.043 0.023 0.074 0.09 0.074 0.141 c 0 0.055 -0.031 0.117 -0.074 0.141 c -0.039 0.023 -0.07 -0.035 -0.07 -0.141 m 2.711 -0.145 c 0.004 -0.082 0.02 -0.098 0.043 -0.043 c 0.023 0.051 0.02 0.109 -0.004 0.133 c -0.023 0.023 -0.043 -0.016 -0.039 -0.09 m 0.367 -0.141 c 0.004 -0.082 0.02 -0.098 0.043 -0.043 c 0.02 0.051 0.02 0.109 -0.004 0.133 c -0.027 0.023 -0.043 -0.016 -0.039 -0.09 m -3.734 -0.07 c 0.004 -0.082 0.023 -0.098 0.047 -0.043 c 0.02 0.051 0.02 0.113 -0.008 0.133 c -0.023 0.023 -0.039 -0.016 -0.039 -0.09 m 2.477 -0.113 c -0.039 -1.063 0 -2.32 0.07 -2.391 c 0.082 -0.078 0.09 -0.027 0.113 1.117 c 0.004 0.207 -0.02 0.328 -0.055 0.281 c -0.031 -0.043 -0.043 0.195 -0.023 0.531 c 0.023 0.352 0.012 0.629 -0.027 0.652 c -0.039 0.023 -0.074 -0.063 -0.078 -0.191 m -1.82 -0.195 c 0 -0.176 0.027 -0.273 0.07 -0.246 c 0.043 0.023 0.074 0.133 0.074 0.246 c 0 0.109 -0.031 0.219 -0.074 0.242 c -0.043 0.027 -0.07 -0.07 -0.07 -0.242 m 3.082 -0.281 c 0 -0.098 0.016 -0.137 0.039 -0.09 c 0.02 0.051 0.02 0.129 0 0.176 c -0.023 0.051 -0.039 0.008 -0.039 -0.086 m -4.328 -0.031 c 0 -0.063 0.031 -0.109 0.074 -0.109 c 0.039 0 0.07 0.031 0.07 0.066 c 0 0.035 -0.031 0.086 -0.07 0.109 c -0.043 0.023 -0.074 -0.008 -0.074 -0.066 m 0.047 -0.367 c -0.074 -0.074 -0.055 -0.375 0.027 -0.375 c 0.039 0 0.07 0.098 0.07 0.211 c 0 0.219 -0.012 0.242 -0.098 0.164 m 2.01 -0.555 c 0.004 -0.082 0.02 -0.098 0.043 -0.043 c 0.023 0.051 0.02 0.113 -0.004 0.137 c -0.027 0.02 -0.043 -0.02 -0.039 -0.094 m 0.508 -0.059 c 0 -0.059 0.031 -0.121 0.07 -0.145 c 0.043 -0.023 0.074 0.02 0.074 0.098 c 0 0.082 -0.031 0.145 -0.074 0.145 c -0.039 0 -0.07 -0.043 -0.07 -0.098 m 1.395 -0.012 c 0.004 -0.082 0.02 -0.098 0.043 -0.043 c 0.023 0.051 0.02 0.113 -0.004 0.137 c -0.023 0.023 -0.043 -0.02 -0.039 -0.094 m 0.379 -0.133 c 0 -0.156 0.016 -0.211 0.031 -0.125 c 0.02 0.09 0.02 0.215 0 0.281 c -0.02 0.066 -0.031 -0.004 -0.031 -0.156 m -3.746 -0.848 c 0.004 -0.082 0.023 -0.098 0.047 -0.043 c 0.02 0.051 0.016 0.109 -0.008 0.133 c -0.023 0.023 -0.043 -0.016 -0.039 -0.09 m 2.527 -0.164 c -0.035 -0.051 -0.074 -0.637 -0.082 -1.297 c -0.016 -1.023 -0.004 -1.168 0.078 -0.988 c 0.078 0.18 0.098 0.191 0.125 0.07 c 0.016 -0.078 0.012 0 -0.012 0.176 c -0.02 0.172 -0.031 0.5 -0.023 0.727 c 0.008 0.223 -0.02 0.469 -0.063 0.543 c -0.039 0.074 -0.051 0.172 -0.02 0.219 c 0.035 0.059 0.07 0.027 0.105 -0.086 c 0.043 -0.152 0.051 -0.141 0.051 0.07 c -0.004 0.391 -0.086 0.684 -0.16 0.566 m -2.164 -0.316 c 0 -0.133 0.031 -0.262 0.07 -0.285 c 0.043 -0.027 0.074 0.047 0.074 0.172 c 0 0.117 0.031 0.211 0.074 0.211 c 0.039 0 0.07 -0.078 0.07 -0.176 c 0 -0.105 0.035 -0.164 0.074 -0.137 c 0.145 0.086 0.074 0.316 -0.113 0.387 c -0.258 0.094 -0.25 0.098 -0.25 -0.172 m 0.059 -0.633 c -0.059 -0.125 -0.059 -0.301 -0.012 -0.598 c 0.051 -0.301 0.051 -0.422 -0.008 -0.422 c -0.09 0 -0.039 -1.098 0.059 -1.25 c 0.035 -0.051 0.02 -0.137 -0.027 -0.191 c -0.055 -0.063 -0.074 -0.191 -0.043 -0.332 c 0.027 -0.141 0.02 -0.191 -0.02 -0.129 c -0.098 0.145 -0.156 -0.063 -0.066 -0.23 c 0.043 -0.074 0.059 -0.277 0.039 -0.457 c -0.02 -0.176 -0.023 -0.281 -0.004 -0.234 c 0.02 0.047 0.074 0.09 0.121 0.09 c 0.059 0 0.078 0.094 0.059 0.285 c -0.016 0.156 0.008 0.32 0.055 0.363 c 0.059 0.059 0.078 -0.02 0.078 -0.285 c 0 -0.199 0.027 -0.363 0.059 -0.363 c 0.086 0 0.129 3.738 0.047 3.867 c -0.078 0.117 -0.254 0.055 -0.336 -0.113 m 0.242 -0.867 c -0.016 -0.047 -0.043 -0.074 -0.059 -0.059 c -0.055 0.051 -0.086 0.777 -0.035 0.852 c 0.051 0.078 0.141 -0.648 0.094 -0.793 m -0.012 -0.785 c 0 -0.191 -0.031 -0.352 -0.07 -0.352 c -0.082 0 -0.102 0.414 -0.031 0.59 c 0.078 0.191 0.102 0.125 0.102 -0.238 m 3.102 1.121 c 0 -0.328 0.012 -0.461 0.027 -0.297 c 0.016 0.164 0.016 0.434 0 0.598 c -0.016 0.164 -0.027 0.027 -0.027 -0.301 m -3.73 -0.348 c 0 -0.406 0.012 -0.57 0.027 -0.371 c 0.012 0.203 0.012 0.535 0 0.738 c -0.016 0.203 -0.027 0.035 -0.027 -0.367 m 3.715 -0.422 c 0 -0.098 0.016 -0.137 0.039 -0.09 c 0.02 0.051 0.02 0.129 0 0.176 c -0.023 0.051 -0.039 0.012 -0.039 -0.086 m -0.371 -0.113 c 0.004 -0.078 0.02 -0.098 0.043 -0.039 c 0.023 0.051 0.02 0.109 -0.004 0.133 c -0.023 0.023 -0.043 -0.02 -0.039 -0.094 m -0.91 -0.563 c -0.066 -0.219 -0.047 -1.148 0.023 -1.148 c 0.117 0 0.164 0.145 0.082 0.242 c -0.047 0.051 -0.059 0.152 -0.027 0.223 c 0.047 0.117 0.059 0.113 0.102 -0.043 c 0.031 -0.098 0.035 0.031 0.012 0.281 c -0.039 0.473 -0.121 0.668 -0.191 0.445 m 1.242 -0.121 c -0.031 -0.148 -0.039 -0.285 -0.016 -0.305 c 0.055 -0.055 0.133 0.297 0.102 0.445 c -0.016 0.078 -0.051 0.023 -0.086 -0.141 m -0.336 -0.359 c 0 -0.059 0.031 -0.105 0.07 -0.105 c 0.039 0 0.051 0.047 0.027 0.105 c -0.023 0.059 -0.055 0.105 -0.07 0.105 c -0.016 0 -0.027 -0.047 -0.027 -0.105 m 0.328 -0.172 c -0.027 -0.078 -0.094 -0.145 -0.152 -0.145 c -0.059 0 -0.105 -0.051 -0.105 -0.109 c 0 -0.063 0.035 -0.09 0.082 -0.063 c 0.047 0.027 0.105 0.012 0.137 -0.035 c 0.035 -0.055 0.074 0.012 0.105 0.172 c 0.059 0.285 0.012 0.41 -0.066 0.18 m -1.23 -0.824 c -0.078 -0.07 -0.059 -0.301 0.023 -0.301 c 0.039 0 0.07 0.027 0.07 0.063 c 0 0.035 0.023 0.113 0.047 0.176 c 0.043 0.109 -0.051 0.152 -0.141 0.063" fill="#035a8f"/><path d="m 6.02 12.719 c 0.027 -0.043 0.051 -0.484 0.051 -0.988 c 0 -0.504 0.023 -0.93 0.055 -0.945 c 0.027 -0.016 0.051 0.414 0.051 0.957 c 0 0.777 -0.023 0.992 -0.102 1.02 c -0.063 0.02 -0.082 0 -0.055 -0.043 m 3.973 -0.148 c -0.02 -0.098 -0.008 -0.449 0.023 -0.785 c 0.035 -0.363 0.031 -0.73 -0.012 -0.91 c -0.039 -0.168 -0.051 -0.383 -0.023 -0.477 c 0.023 -0.094 0.039 -0.566 0.035 -1.055 c -0.035 -3.797 -0.031 -4.691 0.023 -4.855 c 0.035 -0.113 0.031 -0.242 -0.016 -0.32 c -0.078 -0.141 0.012 -0.297 0.172 -0.297 c 0.07 0 0.082 0.969 0.039 2.875 c -0.008 0.25 -0.008 1.227 -0.004 2.172 c 0.004 0.945 0.004 2.172 0.004 2.727 c 0 0.551 0.02 1.031 0.039 1.063 c 0.02 0.035 -0.027 0.055 -0.105 0.051 c -0.09 -0.008 -0.152 -0.078 -0.176 -0.188 m -1.215 -0.535 c 0.004 -0.082 0.02 -0.102 0.043 -0.043 c 0.023 0.051 0.02 0.109 -0.004 0.133 c -0.023 0.023 -0.043 -0.02 -0.039 -0.09 m -2 -0.148 c -0.078 -0.07 -0.059 -0.305 0.023 -0.305 c 0.039 0 0.074 0.082 0.074 0.176 c 0 0.184 -0.02 0.207 -0.098 0.129 m -0.012 -0.895 c -0.031 -0.328 -0.023 -0.57 0.027 -0.648 c 0.059 -0.098 0.078 0.035 0.078 0.52 c 0 0.359 -0.012 0.648 -0.027 0.648 c -0.016 0 -0.051 -0.234 -0.078 -0.52 m 2.027 -0.074 c 0.004 -0.156 0.016 -0.211 0.035 -0.121 c 0.016 0.086 0.016 0.211 -0.004 0.277 c -0.016 0.07 -0.031 -0.004 -0.031 -0.156 m -0.004 -0.457 c 0 -0.098 0.016 -0.137 0.035 -0.086 c 0.02 0.047 0.02 0.125 0 0.176 c -0.02 0.047 -0.035 0.008 -0.035 -0.09 m -2.68 0 c -0.094 -0.137 -0.07 -1.121 0.027 -1.215 c 0.102 -0.098 0.105 0.227 0.004 0.484 c -0.051 0.129 -0.051 0.215 0.004 0.281 c 0.043 0.047 0.07 0.195 0.059 0.324 c -0.02 0.176 -0.043 0.207 -0.094 0.125 m 0.668 -0.789 c -0.023 -0.203 -0.016 -0.508 0.02 -0.684 c 0.051 -0.27 0.059 -0.215 0.066 0.367 c 0.008 0.379 -0.004 0.684 -0.02 0.684 c -0.016 0 -0.047 -0.164 -0.066 -0.367 m -0.664 -0.84 c 0.066 -0.41 0.102 -0.418 0.102 -0.031 c 0 0.18 -0.035 0.328 -0.074 0.328 c -0.047 0 -0.055 -0.113 -0.027 -0.297 m 0.613 -0.508 c 0 -0.098 0.035 -0.176 0.074 -0.176 c 0.039 0 0.074 0.078 0.074 0.176 c 0 0.094 -0.035 0.176 -0.074 0.176 c -0.039 0 -0.074 -0.082 -0.074 -0.176 m 2.01 -0.176 c -0.023 -0.039 -0.012 -0.125 0.031 -0.191 c 0.063 -0.105 0.074 -0.098 0.078 0.066 c 0 0.203 -0.031 0.242 -0.109 0.125 m -2.672 -0.563 c -0.031 -1.547 -0.035 -2.574 -0.012 -2.645 c 0.016 -0.051 0.055 -0.074 0.086 -0.055 c 0.086 0.051 0.086 2.785 0 2.91 c -0.051 0.078 -0.07 0.02 -0.074 -0.211 m 0.723 0.105 c -0.051 -0.074 -0.02 -0.801 0.035 -0.852 c 0.066 -0.063 0.086 0.164 0.051 0.535 c -0.02 0.215 -0.059 0.355 -0.086 0.316 m 2 -0.457 c 0 -0.094 0.016 -0.133 0.035 -0.086 c 0.02 0.047 0.02 0.129 0 0.176 c -0.02 0.047 -0.035 0.008 -0.035 -0.09 m -0.035 -0.797 c -0.031 -0.109 -0.039 -0.219 -0.02 -0.238 c 0.078 -0.074 0.125 0.043 0.102 0.242 l -0.023 0.199 m -2.043 -0.285 c -0.07 -0.18 -0.051 -0.594 0.031 -0.594 c 0.039 0 0.074 0.16 0.074 0.352 c 0 0.367 -0.027 0.43 -0.105 0.242 m 1.977 -1.27 c -0.027 -0.066 -0.016 -0.148 0.027 -0.191 c 0.051 -0.047 0.074 -0.012 0.074 0.117 c 0 0.219 -0.035 0.242 -0.102 0.074 m -1.965 -0.414 c -0.031 -0.031 -0.051 -0.168 -0.051 -0.305 c 0.008 -0.277 0.098 -0.559 0.148 -0.457 c 0.055 0.105 -0.039 0.82 -0.098 0.762 m -0.703 -0.289 c 0.012 -0.164 -0.004 -0.32 -0.031 -0.348 c -0.098 -0.094 -0.051 -0.164 0.113 -0.16 c 0.09 0.004 0.129 0.02 0.09 0.035 c -0.043 0.02 -0.063 0.16 -0.047 0.316 c 0.016 0.164 -0.008 0.32 -0.059 0.367 c -0.066 0.066 -0.082 0.016 -0.066 -0.211 m 2.703 -0.207 c -0.004 -0.047 -0.023 -0.141 -0.047 -0.211 c -0.039 -0.125 -0.039 -0.125 0.043 -0.004 c 0.043 0.07 0.066 0.164 0.047 0.211 c -0.027 0.059 -0.039 0.063 -0.043 0.004" fill="#03309d"/><path d="m 5.895 12.73 c -0.023 -0.023 -0.109 -0.047 -0.191 -0.051 c -0.141 -0.008 -0.148 -0.074 -0.188 -1.242 c -0.031 -0.996 -0.016 -1.293 0.074 -1.535 c 0.086 -0.242 0.09 -0.324 0.02 -0.406 c -0.133 -0.156 -0.129 -1.434 0.008 -1.477 c 0.063 -0.02 0.082 0 0.051 0.047 c -0.027 0.047 -0.016 0.082 0.027 0.082 c 0.109 0 0.098 -0.613 -0.016 -0.648 c -0.125 -0.043 -0.203 -1.906 -0.09 -2.176 c 0.047 -0.105 0.105 -0.172 0.133 -0.148 c 0.027 0.027 0.047 -0.02 0.047 -0.102 c 0 -0.086 0.035 -0.152 0.074 -0.152 c 0.09 0 0.09 0.75 0 0.945 c -0.055 0.125 -0.063 0.117 -0.066 -0.055 c -0.004 -0.109 -0.035 -0.18 -0.07 -0.16 c -0.082 0.051 -0.078 0.883 0.004 0.883 c 0.031 0 0.063 -0.102 0.066 -0.227 c 0.004 -0.191 0.016 -0.207 0.066 -0.09 c 0.035 0.078 0.063 1.535 0.066 3.234 c 0.004 1.703 0.027 3.148 0.051 3.211 c 0.047 0.113 0.016 0.145 -0.066 0.066 m -0.148 -0.535 c -0.02 -0.047 -0.035 -0.008 -0.035 0.09 c 0 0.094 0.016 0.137 0.035 0.086 c 0.02 -0.047 0.02 -0.125 0 -0.176 m 0.023 -1.387 c 0 -0.039 -0.031 -0.066 -0.07 -0.066 c -0.043 0 -0.074 0.047 -0.074 0.109 c 0 0.059 0.031 0.09 0.074 0.066 c 0.039 -0.023 0.07 -0.074 0.07 -0.109 m 0 -0.488 c 0 -0.113 -0.031 -0.211 -0.07 -0.211 c -0.082 0 -0.102 0.301 -0.027 0.375 c 0.086 0.078 0.098 0.055 0.098 -0.164 m 0 -3.098 c 0 -0.113 -0.02 -0.133 -0.078 -0.078 c -0.047 0.043 -0.063 0.113 -0.035 0.156 c 0.078 0.117 0.113 0.09 0.113 -0.078 m 2.457 5.43 c -0.074 -0.18 -0.035 -2.684 0.039 -2.684 c 0.082 0 0.09 -0.258 0.004 -0.309 c -0.035 -0.02 -0.066 -1.301 -0.07 -2.844 l -0.012 -2.805 h 0.219 c 0.168 0 0.219 0.031 0.219 0.133 c 0 0.078 0.031 0.156 0.07 0.18 c 0.043 0.023 0.039 0.113 -0.004 0.23 c -0.039 0.105 -0.055 0.445 -0.035 0.754 c 0.02 0.309 0.031 0.641 0.027 0.734 c -0.016 0.313 -0.008 2.27 0.012 2.629 c 0.008 0.195 0.008 1.141 0 2.105 c -0.008 0.965 -0.004 1.797 0.012 1.848 c 0.043 0.141 -0.426 0.164 -0.48 0.027 m 0.668 0.07 c -0.02 -0.027 -0.035 -2.031 -0.031 -4.445 c 0 -3.578 0.02 -4.379 0.094 -4.313 c 0.059 0.047 0.07 0.105 0.027 0.148 c -0.09 0.09 -0.086 0.387 0.008 0.387 c 0.039 0 0.07 0.066 0.07 0.145 c 0 0.082 -0.031 0.125 -0.07 0.102 c -0.043 -0.023 -0.074 -0.012 -0.074 0.027 c 0 0.039 0.031 0.09 0.074 0.113 c 0.039 0.023 0.07 0.105 0.07 0.18 c 0 0.074 -0.031 0.137 -0.07 0.137 c -0.043 0 -0.074 0.078 -0.074 0.18 c 0 0.102 0.031 0.16 0.074 0.137 c 0.047 -0.031 0.07 0.16 0.07 0.516 c 0 0.309 -0.031 0.582 -0.07 0.605 c -0.043 0.023 -0.074 0.105 -0.074 0.184 c 0 0.074 0.031 0.121 0.074 0.098 c 0.039 -0.027 0.07 0.031 0.07 0.133 c 0 0.102 -0.031 0.18 -0.07 0.18 c -0.043 0 -0.074 0.098 -0.074 0.215 c 0 0.125 0.031 0.199 0.074 0.172 c 0.109 -0.066 0.094 1.527 -0.016 1.633 c -0.07 0.066 -0.07 0.086 0 0.086 c 0.063 0 0.086 0.281 0.086 1.055 c 0 0.688 -0.023 1.043 -0.07 1.012 c -0.043 -0.023 -0.074 0.031 -0.074 0.121 c 0 0.129 0.016 0.141 0.074 0.055 c 0.047 -0.074 0.07 0.039 0.07 0.375 c 0 0.301 -0.027 0.461 -0.07 0.434 c -0.043 -0.023 -0.074 -0.012 -0.074 0.031 c 0 0.039 0.031 0.074 0.074 0.074 c 0.039 0 0.07 0.043 0.07 0.098 c 0 0.117 -0.117 0.211 -0.168 0.129 m 0.75 -0.02 c -0.137 -0.082 -0.203 -0.871 -0.129 -1.609 c 0.031 -0.332 0.027 -0.676 -0.008 -0.773 c -0.035 -0.098 -0.09 -0.238 -0.117 -0.316 c -0.098 -0.262 -0.102 -0.453 0 -0.453 c 0.148 0 0.344 -0.637 0.234 -0.766 c -0.051 -0.059 -0.086 -0.336 -0.086 -0.68 c 0 -0.465 -0.027 -0.617 -0.133 -0.734 c -0.117 -0.133 -0.121 -0.156 -0.02 -0.23 c 0.152 -0.105 0.297 -0.824 0.18 -0.891 c -0.055 -0.035 -0.059 -0.09 -0.008 -0.176 c 0.051 -0.09 0.047 -0.203 -0.02 -0.387 c -0.074 -0.199 -0.082 -0.391 -0.027 -0.809 c 0.039 -0.301 0.055 -0.621 0.031 -0.707 c -0.035 -0.133 -0.012 -0.16 0.125 -0.16 c 0.094 0 0.211 -0.039 0.258 -0.086 c 0.063 -0.059 0.09 -0.059 0.09 -0.004 c 0 0.043 -0.039 0.09 -0.09 0.105 c -0.059 0.02 -0.082 0.164 -0.07 0.434 c 0.012 0.34 -0.004 0.398 -0.094 0.367 c -0.07 -0.027 -0.113 -0.004 -0.113 0.059 c 0 0.059 0.047 0.105 0.105 0.105 c 0.059 0 0.121 0.055 0.137 0.121 c 0.031 0.105 0.078 3.348 0.059 3.77 c -0.004 0.078 -0.004 0.629 -0.004 1.227 c 0.004 0.598 0.004 1.309 -0.004 1.578 c -0.004 0.27 -0.008 0.605 -0.004 0.746 c 0.008 0.266 -0.113 0.375 -0.293 0.27 m -0.02 -1.063 c -0.023 -0.055 -0.039 -0.039 -0.043 0.043 c -0.004 0.074 0.016 0.113 0.039 0.09 c 0.023 -0.023 0.027 -0.082 0.004 -0.133 m -0.043 -1.93 c -0.07 -0.117 -0.074 -0.113 -0.078 0.02 c 0 0.164 0.09 0.289 0.129 0.176 c 0.016 -0.039 -0.008 -0.129 -0.051 -0.195 m 0.094 -4.402 c 0.023 -0.059 0.012 -0.105 -0.027 -0.105 c -0.039 0 -0.074 0.047 -0.074 0.105 c 0 0.059 0.016 0.105 0.031 0.105 c 0.016 0 0.047 -0.047 0.07 -0.105 m -3.398 6.992 c -0.008 -0.219 -0.004 -0.828 0.004 -1.348 c 0.02 -1.035 0.02 -1.012 -0.027 -1.945 c -0.027 -0.531 -0.012 -0.648 0.07 -0.648 c 0.129 0 0.129 -0.07 0.008 -0.227 c -0.07 -0.086 -0.09 -0.375 -0.07 -1.074 c 0.012 -0.527 0.043 -0.988 0.063 -1.023 c 0.023 -0.035 0.02 -0.094 -0.004 -0.129 c -0.023 -0.039 -0.051 -0.48 -0.059 -0.984 c -0.016 -0.902 -0.012 -0.91 0.148 -0.91 c 0.145 0 0.164 0.035 0.164 0.262 c 0 0.145 -0.031 0.309 -0.066 0.363 c -0.035 0.051 -0.047 0.141 -0.023 0.195 c 0.031 0.082 0.051 0.086 0.102 0.008 c 0.035 -0.055 0.043 0.016 0.016 0.16 c -0.023 0.152 -0.008 0.273 0.039 0.301 c 0.047 0.027 0.082 0.082 0.082 0.121 c 0 0.039 -0.027 0.051 -0.066 0.031 c -0.035 -0.02 -0.066 0.234 -0.074 0.566 c -0.004 0.332 -0.027 0.633 -0.051 0.664 c -0.02 0.035 0.008 0.063 0.063 0.063 c 0.082 0 0.086 0.082 0.031 0.449 c -0.063 0.383 -0.051 0.48 0.051 0.629 c 0.145 0.211 0.156 0.328 0.027 0.305 c -0.059 -0.012 -0.098 0.086 -0.113 0.254 c -0.02 0.238 -0.008 0.27 0.105 0.227 c 0.117 -0.043 0.117 -0.035 0.016 0.078 c -0.094 0.105 -0.113 0.336 -0.105 1.316 c 0.008 0.656 -0.02 1.234 -0.059 1.285 c -0.043 0.055 -0.039 0.117 0.012 0.164 c 0.051 0.047 0.055 0.148 0.012 0.293 c -0.09 0.293 -0.086 0.539 0.004 0.539 c 0.043 0 0.074 -0.063 0.074 -0.141 c 0 -0.078 0.035 -0.141 0.074 -0.141 c 0.039 0 0.074 0.129 0.074 0.289 c 0 0.227 -0.023 0.277 -0.109 0.246 c -0.063 -0.023 -0.113 -0.012 -0.113 0.023 c 0 0.031 0.043 0.078 0.094 0.098 c 0.051 0.02 -0.016 0.035 -0.148 0.039 l -0.234 0.004 m 0.918 -0.055 c -0.023 -0.02 -0.043 -0.109 -0.043 -0.199 c 0 -0.117 -0.039 -0.164 -0.145 -0.164 c -0.168 0 -0.191 -0.145 -0.059 -0.352 c 0.066 -0.102 0.07 -0.156 0.008 -0.215 c -0.055 -0.051 -0.063 -0.148 -0.023 -0.266 c 0.105 -0.32 0.156 -0.688 0.078 -0.574 c -0.059 0.09 -0.078 0.086 -0.117 -0.016 c -0.027 -0.07 -0.004 -0.176 0.051 -0.238 c 0.117 -0.137 0.102 -1.75 -0.02 -1.891 c -0.051 -0.059 -0.047 -0.129 0.016 -0.219 c 0.066 -0.102 0.066 -0.195 0.012 -0.352 c -0.047 -0.121 -0.051 -0.238 -0.016 -0.273 c 0.063 -0.059 0.086 -1.047 0.063 -2.758 c -0.016 -1.219 -0.047 -1.121 0.336 -1.121 h 0.328 l 0.012 1.031 c 0.035 3.09 0.035 4.641 0.004 4.887 c -0.031 0.246 -0.047 0.262 -0.133 0.145 c -0.086 -0.109 -0.102 -0.113 -0.141 -0.012 c -0.059 0.148 0.02 0.262 0.145 0.215 c 0.156 -0.055 0.18 0.133 0.164 1.305 l -0.012 1.086 l -0.234 0.008 c -0.129 0.008 -0.254 -0.004 -0.273 -0.023 m 0.324 -0.672 c 0 -0.066 -0.031 -0.105 -0.074 -0.082 c -0.039 0.023 -0.07 0.129 -0.07 0.23 c 0 0.148 0.016 0.168 0.07 0.086 c 0.039 -0.059 0.074 -0.164 0.074 -0.234 m -0.074 -0.586 c 0 -0.129 -0.324 0.004 -0.352 0.141 c -0.02 0.094 0.004 0.098 0.164 0.027 c 0.102 -0.047 0.188 -0.121 0.188 -0.168 m 0.051 -6.422 c -0.016 -0.086 -0.031 -0.016 -0.031 0.16 c 0 0.172 0.016 0.242 0.031 0.156 c 0.02 -0.086 0.02 -0.227 0 -0.316 m 2.852 3.414 c 0.008 -2.375 0.031 -4.336 0.055 -4.359 c 0.023 -0.023 0.043 1.922 0.043 4.32 c 0 2.395 -0.023 4.359 -0.055 4.359 c -0.031 0 -0.047 -1.945 -0.043 -4.32 m -4.793 -3.395 c 0 -0.059 0.027 -0.168 0.063 -0.246 c 0.039 -0.086 0.063 -0.102 0.063 -0.035 c 0 0.059 -0.027 0.168 -0.063 0.246 c -0.039 0.09 -0.063 0.102 -0.063 0.035 m 0.207 -0.383 c 0 -0.059 -0.043 -0.086 -0.102 -0.066 c -0.117 0.043 -0.176 -0.129 -0.129 -0.383 l 0.035 -0.168 l 0.094 0.168 l 0.098 0.164 l 0.004 -0.156 c 0 -0.086 0.035 -0.156 0.074 -0.156 c 0.039 0 0.074 0.156 0.074 0.348 c 0 0.195 -0.035 0.352 -0.074 0.352 c -0.039 0 -0.074 -0.047 -0.074 -0.102" fill="#0c6161"/><path d="m 5.699 12.699 c 0 -0.039 0.031 -0.055 0.074 -0.027 c 0.039 0.023 0.07 0.055 0.07 0.074 c 0 0.016 -0.031 0.027 -0.07 0.027 c -0.043 0 -0.074 -0.031 -0.074 -0.074 m 0.484 -0.027 c 0.023 -0.059 0.055 -0.105 0.07 -0.105 c 0.016 0 0.031 0.047 0.031 0.105 c 0 0.055 -0.031 0.102 -0.07 0.102 c -0.039 0 -0.055 -0.047 -0.031 -0.102 m 0.555 -0.023 c 0.031 -0.16 0.203 -0.188 0.203 -0.031 c 0 0.074 -0.051 0.133 -0.113 0.133 c -0.059 0 -0.102 -0.047 -0.09 -0.102 m 1 0.094 c -0.004 0 -0.016 -2 -0.027 -4.441 c -0.023 -4.02 -0.016 -4.43 0.09 -4.348 c 0.09 0.074 0.121 0.074 0.145 0.004 c 0.023 -0.063 0.055 -0.059 0.137 0.02 c 0.094 0.09 0.113 0.703 0.125 4.434 l 0.012 4.328 h -0.238 c -0.129 0 -0.238 0 -0.242 0 m 1.031 -0.039 c 0 -0.039 0.031 -0.055 0.07 -0.027 c 0.043 0.023 0.074 0.055 0.074 0.074 c 0 0.016 -0.031 0.027 -0.074 0.027 c -0.039 0 -0.07 -0.031 -0.07 -0.074 m -3.316 -0.363 c 0.059 -0.504 0.109 -0.52 0.086 -0.031 c -0.008 0.219 -0.043 0.402 -0.074 0.402 c -0.031 0 -0.035 -0.168 -0.012 -0.371 m 0.254 -0.051 c 0 -0.098 0.016 -0.137 0.035 -0.09 c 0.02 0.051 0.02 0.129 0 0.176 c -0.02 0.051 -0.035 0.012 -0.035 -0.086 m 1.102 -0.141 c 0 -0.137 0.016 -0.191 0.035 -0.121 c 0.016 0.066 0.016 0.176 0 0.242 c -0.02 0.07 -0.035 0.012 -0.035 -0.121 m 3.141 -0.281 c 0 -0.098 0.016 -0.137 0.039 -0.086 c 0.02 0.047 0.02 0.125 0 0.176 c -0.023 0.047 -0.039 0.008 -0.039 -0.09 m -1.254 -0.105 c 0 -0.094 0.031 -0.176 0.07 -0.176 c 0.043 0 0.074 0.082 0.074 0.176 c 0 0.098 -0.031 0.176 -0.074 0.176 c -0.039 0 -0.07 -0.078 -0.07 -0.176 m -2.562 0 c 0 -0.059 0.035 -0.105 0.074 -0.105 c 0.039 0 0.074 0.047 0.074 0.105 c 0 0.059 -0.035 0.105 -0.074 0.105 c -0.039 0 -0.074 -0.047 -0.074 -0.105 m -0.73 -0.535 c 0 -0.199 0.02 -0.348 0.039 -0.324 c 0.074 0.07 0.102 0.684 0.027 0.684 c -0.035 0 -0.066 -0.16 -0.066 -0.359 m 1.426 0.289 c 0.023 -0.039 0.059 -0.07 0.078 -0.07 c 0.016 0 0.031 0.031 0.031 0.07 c 0 0.039 -0.035 0.07 -0.078 0.07 c -0.043 0 -0.055 -0.031 -0.031 -0.07 m 3.164 -0.25 c -0.031 -0.027 -0.055 -0.102 -0.055 -0.16 c 0 -0.078 0.023 -0.086 0.082 -0.027 c 0.043 0.043 0.07 0.113 0.055 0.156 c -0.016 0.047 -0.055 0.059 -0.082 0.031 m -3.836 -0.34 c 0.008 -0.168 0.039 -0.27 0.066 -0.227 c 0.078 0.117 0.07 0.539 -0.012 0.539 c -0.035 0 -0.063 -0.141 -0.055 -0.313 m 3.355 -0.355 c 0.004 -0.117 0.02 -0.152 0.039 -0.086 c 0.02 0.066 0.016 0.164 -0.004 0.211 c -0.02 0.047 -0.035 -0.008 -0.035 -0.125 m 0.371 -0.035 c 0 -0.098 0.023 -0.27 0.055 -0.387 l 0.059 -0.207 v 0.207 c 0 0.117 -0.023 0.289 -0.059 0.387 l -0.059 0.176 m -3.738 -0.691 c -0.059 -0.07 -0.063 -0.152 -0.012 -0.281 c 0.102 -0.258 0.141 -0.23 0.137 0.098 c -0.004 0.313 -0.008 0.316 -0.125 0.184 m 2.945 -0.148 c -0.051 -0.125 0.016 -0.316 0.105 -0.316 c 0.035 0 0.063 0.094 0.063 0.211 c 0 0.219 -0.098 0.281 -0.168 0.105 m 0.426 -0.105 c 0 -0.098 0.016 -0.137 0.035 -0.09 c 0.02 0.051 0.02 0.129 0 0.176 c -0.02 0.047 -0.035 0.008 -0.035 -0.086 m 0.352 -0.453 c 0 -0.094 0.031 -0.188 0.07 -0.211 c 0.082 -0.051 0.18 0.211 0.113 0.313 c -0.082 0.129 -0.184 0.074 -0.184 -0.102 m -0.359 -0.027 c -0.004 -0.09 0.027 -0.219 0.07 -0.293 c 0.047 -0.086 0.047 -0.145 0 -0.176 c -0.043 -0.023 -0.07 -0.109 -0.066 -0.195 c 0.008 -0.145 0.012 -0.145 0.043 -0.016 c 0.02 0.078 0.066 0.176 0.098 0.215 c 0.035 0.043 0.02 0.195 -0.039 0.352 c -0.078 0.203 -0.105 0.234 -0.105 0.113 m -4.102 -0.375 c 0 -0.238 0.012 -0.418 0.027 -0.402 c 0.063 0.07 0.102 0.836 0.039 0.836 c -0.035 0 -0.066 -0.195 -0.066 -0.434 m 1.352 -0.266 c 0.027 -0.039 0.063 -0.07 0.078 -0.07 c 0.02 0 0.031 0.031 0.031 0.07 c 0 0.035 -0.031 0.066 -0.074 0.066 c -0.043 0 -0.059 -0.031 -0.035 -0.066 m 3.148 -0.094 c -0.031 -0.066 -0.035 -0.145 -0.008 -0.168 c 0.074 -0.07 0.133 0.027 0.098 0.168 c -0.031 0.121 -0.035 0.121 -0.09 0 m -3.77 -0.281 c 0 -0.141 0.035 -0.258 0.078 -0.258 c 0.047 0 0.063 0.09 0.043 0.215 c -0.055 0.316 -0.121 0.34 -0.121 0.043 m 0.66 -0.227 c 0 -0.062 0.031 -0.09 0.07 -0.066 c 0.043 0.023 0.074 0.074 0.074 0.109 c 0 0.035 -0.031 0.066 -0.074 0.066 c -0.039 0 -0.07 -0.051 -0.07 -0.109 m -1.277 -0.062 c 0.012 -0.043 0.039 -0.16 0.063 -0.266 c 0.066 -0.285 0.188 -0.238 0.188 0.07 c 0 0.215 -0.023 0.266 -0.137 0.266 c -0.074 0 -0.129 -0.031 -0.117 -0.07 m 4 -0.215 c 0.004 -0.152 0.02 -0.207 0.035 -0.121 c 0.016 0.086 0.016 0.215 0 0.281 c -0.02 0.066 -0.035 -0.004 -0.035 -0.16 m -3.375 0.066 c 0 -0.082 0.02 -0.102 0.043 -0.043 c 0.02 0.051 0.02 0.109 -0.008 0.133 c -0.023 0.023 -0.039 -0.02 -0.035 -0.09 m -0.488 -0.527 c -0.027 -0.043 -0.012 -0.113 0.035 -0.156 c 0.059 -0.055 0.078 -0.035 0.078 0.078 c 0 0.168 -0.035 0.195 -0.113 0.078 m 3.516 -0.066 c -0.023 -0.035 -0.008 -0.066 0.035 -0.066 c 0.043 0 0.078 0.031 0.078 0.066 c 0 0.039 -0.016 0.07 -0.035 0.07 c -0.016 0 -0.051 -0.031 -0.078 -0.07 m 0.309 -0.621 c -0.031 -0.168 -0.039 -0.324 -0.016 -0.344 c 0.082 -0.082 0.121 0.051 0.098 0.348 l -0.023 0.305 m -4.051 -0.316 c 0 -0.098 0.02 -0.137 0.039 -0.09 c 0.02 0.051 0.02 0.129 0 0.176 c -0.02 0.051 -0.039 0.012 -0.039 -0.086 m 0.156 -0.492 c -0.004 -0.23 0.023 -0.438 0.063 -0.461 c 0.035 -0.02 0.063 0.168 0.063 0.422 c 0 0.254 -0.027 0.461 -0.059 0.461 c -0.035 0 -0.063 -0.191 -0.066 -0.422 m 4.223 0.008 c 0 -0.074 0.035 -0.16 0.074 -0.184 c 0.039 -0.023 0.074 0.02 0.074 0.098 c 0 0.078 -0.035 0.16 -0.074 0.184 c -0.039 0.023 -0.074 -0.02 -0.074 -0.098 m -1.168 -0.023 c 0 -0.051 0.031 -0.137 0.07 -0.195 c 0.059 -0.082 0.074 -0.063 0.074 0.09 c 0 0.105 -0.031 0.191 -0.074 0.191 c -0.039 0 -0.07 -0.039 -0.07 -0.086 m -2.562 -0.125 c 0 -0.074 0.035 -0.141 0.074 -0.141 c 0.039 0 0.074 0.066 0.074 0.141 c 0 0.078 -0.035 0.141 -0.074 0.141 c -0.039 0 -0.074 -0.063 -0.074 -0.141 m 3.367 -0.051 c 0 -0.125 0.012 -0.227 0.027 -0.227 c 0.066 0 0.094 0.273 0.035 0.359 c -0.043 0.063 -0.063 0.023 -0.063 -0.133 m -4.047 -0.047 c -0.031 -0.07 -0.039 -0.148 -0.016 -0.168 c 0.066 -0.063 0.125 0.039 0.098 0.176 c -0.027 0.121 -0.031 0.121 -0.082 -0.008 m 0.211 -0.73 c -0.047 -0.078 -0.004 -0.563 0.059 -0.621 c 0.023 -0.023 0.043 0.117 0.043 0.316 c 0 0.352 -0.023 0.426 -0.102 0.305 m 4.199 -0.738 c 0 -0.172 -0.02 -0.371 -0.043 -0.441 c -0.023 -0.07 0.027 -0.031 0.113 0.094 c 0.109 0.152 0.145 0.273 0.109 0.402 c -0.082 0.309 -0.18 0.277 -0.18 -0.055 m -1.137 0.16 c -0.027 -0.043 -0.012 -0.113 0.031 -0.156 c 0.063 -0.055 0.082 -0.035 0.082 0.078 c 0 0.168 -0.039 0.195 -0.113 0.078 m 0.793 -0.172 c 0 -0.152 0.016 -0.207 0.031 -0.121 c 0.02 0.09 0.016 0.215 0 0.281 c -0.02 0.066 -0.035 -0.004 -0.031 -0.16 m -3.855 -0.215 c -0.074 -0.187 -0.047 -0.309 0.066 -0.309 c 0.063 0 0.109 0.031 0.109 0.074 c 0 0.039 -0.027 0.059 -0.063 0.035 c -0.035 -0.02 -0.047 0.043 -0.027 0.137 c 0.039 0.195 -0.016 0.234 -0.086 0.063 m 1.422 -0.238 c 0 -0.039 0.031 -0.07 0.07 -0.07 c 0.043 0 0.074 0.031 0.074 0.07 c 0 0.039 -0.031 0.07 -0.074 0.07 c -0.039 0 -0.07 -0.031 -0.07 -0.07" fill="#182e5b"/><path d="m 7 12.781 c 0.082 -0.047 0.07 -0.09 -0.055 -0.211 c -0.172 -0.164 -0.148 -0.285 0.063 -0.285 c 0.094 0 0.145 0.063 0.164 0.207 c 0.031 0.207 -0.047 0.355 -0.195 0.352 c -0.039 0 -0.031 -0.027 0.023 -0.063 m 0.852 -0.008 c -0.023 -0.035 -0.008 -0.07 0.035 -0.07 c 0.039 0 0.074 0.035 0.074 0.07 c 0 0.039 -0.012 0.07 -0.031 0.07 c -0.016 0 -0.051 -0.031 -0.078 -0.07 m 1.43 -0.063 c -0.039 -0.074 -0.082 -0.637 -0.09 -1.246 l -0.016 -1.109 l -0.086 2.453 l -0.031 -2.883 l 0.164 0.008 c 0.109 0.008 0.176 0.078 0.215 0.215 c 0.086 0.301 0.066 2.559 -0.02 2.559 c -0.043 0 -0.055 0.031 -0.027 0.07 c 0.023 0.035 0.027 0.07 0.004 0.07 c -0.02 0 -0.07 -0.063 -0.113 -0.137 m -4.793 -0.008 c -0.027 -0.035 -0.012 -0.066 0.031 -0.066 c 0.043 0 0.078 0.031 0.078 0.066 c 0 0.039 -0.016 0.07 -0.031 0.07 c -0.02 0 -0.055 -0.031 -0.078 -0.07 m 6.695 0 c 0 -0.035 0.035 -0.066 0.074 -0.066 c 0.043 0 0.059 0.031 0.035 0.066 c -0.027 0.039 -0.063 0.07 -0.078 0.07 c -0.02 0 -0.031 -0.031 -0.031 -0.07 m -0.699 -4.344 c 0 -2.414 0.008 -3.398 0.02 -2.191 c 0.012 1.203 0.012 3.176 0 4.379 c -0.012 1.207 -0.02 0.223 -0.02 -2.188 m -6.695 3.871 l -0.254 -0.262 l 0.273 0.242 c 0.258 0.223 0.309 0.285 0.254 0.285 c -0.012 0 -0.137 -0.121 -0.273 -0.266 m 1.625 -0.176 c 0.008 -0.262 0.047 -0.473 0.078 -0.473 c 0.059 0 -0.004 0.84 -0.066 0.91 c -0.016 0.016 -0.023 -0.18 -0.012 -0.438 m 6.5 0.195 c 0.137 -0.137 0.266 -0.246 0.285 -0.246 c 0.02 0 -0.074 0.109 -0.211 0.246 c -0.137 0.133 -0.266 0.246 -0.285 0.246 c -0.02 0 0.074 -0.113 0.211 -0.246 m -4.535 -0.121 c 0 -0.102 0.031 -0.207 0.07 -0.23 c 0.094 -0.055 0.094 0.176 0 0.316 c -0.055 0.082 -0.07 0.063 -0.07 -0.086 m -0.281 -0.594 c 0.027 -0.137 0.352 -0.27 0.352 -0.141 c 0 0.047 -0.086 0.121 -0.188 0.168 c -0.16 0.07 -0.184 0.066 -0.164 -0.027 m 5.254 0.047 c 0 -0.039 0.035 -0.07 0.078 -0.07 c 0.043 0 0.059 0.031 0.031 0.07 c -0.023 0.039 -0.059 0.07 -0.078 0.07 c -0.016 0 -0.031 -0.031 -0.031 -0.07 m -6.918 -1.488 c 0 -0.414 0.02 -0.754 0.043 -0.754 c 0.02 0 0.078 0.063 0.129 0.141 c 0.078 0.117 0.074 0.184 -0.016 0.371 c -0.063 0.121 -0.121 0.398 -0.137 0.609 c -0.016 0.211 -0.023 0.047 -0.02 -0.367 m 1.969 0.117 c -0.07 -0.172 0.074 -0.258 0.176 -0.105 c 0.066 0.105 0.063 0.141 -0.023 0.172 c -0.063 0.023 -0.129 -0.008 -0.152 -0.066 m -1.148 -0.297 c -0.023 -0.031 -0.008 -0.102 0.027 -0.156 c 0.055 -0.082 0.07 -0.066 0.07 0.055 c 0 0.164 -0.035 0.199 -0.102 0.102 m 2.816 -3.199 c 0.004 -1.582 0.023 -2.84 0.043 -2.793 c 0.02 0.047 0.113 0.09 0.211 0.09 h 0.176 l -0.016 1.555 l -0.02 1.559 l -0.18 0.047 c -0.176 0.043 -0.176 0.047 -0.039 0.102 c 0.23 0.09 0.254 0.168 0.254 0.852 c 0.004 0.355 0.035 0.664 0.078 0.688 c 0.047 0.031 0.047 0.09 0 0.176 c -0.043 0.074 -0.074 0.227 -0.074 0.34 c 0 0.176 -0.035 0.211 -0.219 0.238 l -0.223 0.027 m 0.125 -0.938 c -0.02 -0.066 -0.035 -0.027 -0.035 0.086 c -0.004 0.117 0.012 0.172 0.031 0.125 c 0.023 -0.047 0.023 -0.141 0.004 -0.211 m 0 -1.016 c -0.016 -0.09 -0.031 -0.035 -0.031 0.121 c 0 0.152 0.012 0.227 0.031 0.16 c 0.02 -0.07 0.02 -0.195 0 -0.281 m 0 -0.77 c -0.023 -0.055 -0.043 -0.039 -0.043 0.043 c -0.004 0.074 0.012 0.117 0.035 0.094 c 0.027 -0.023 0.027 -0.086 0.008 -0.137 m 0.004 -1.16 c -0.02 -0.105 -0.031 -0.035 -0.035 0.156 c 0 0.195 0.016 0.281 0.031 0.195 c 0.02 -0.086 0.02 -0.246 0.004 -0.352 m -0.004 -1.191 c -0.02 -0.07 -0.035 -0.012 -0.035 0.121 c 0 0.137 0.016 0.191 0.035 0.125 c 0.02 -0.07 0.02 -0.18 0 -0.246 m -3.754 2.98 c -0.008 -0.637 0.012 -0.941 0.055 -0.836 c 0.035 0.086 0.063 0.262 0.063 0.383 c 0 0.125 0.004 0.32 0.008 0.434 c 0 0.117 -0.008 0.391 -0.02 0.613 c -0.039 0.742 -0.098 0.414 -0.105 -0.594 m 0.816 0.793 c -0.051 -0.078 0.066 -0.16 0.133 -0.098 c 0.07 0.066 0.059 0.164 -0.023 0.164 c -0.035 0 -0.086 -0.031 -0.109 -0.066 m -0.789 -1.969 c -0.027 -0.098 -0.055 -0.254 -0.051 -0.352 c 0 -0.152 0.008 -0.16 0.074 -0.051 c 0.043 0.07 0.066 0.227 0.055 0.352 c -0.023 0.215 -0.027 0.219 -0.078 0.051 m -0.016 -1.48 c 0 -0.453 0.027 -0.852 0.059 -0.879 c 0.027 -0.031 0.051 0.07 0.051 0.223 c -0.004 0.152 0.008 0.465 0.023 0.691 c 0.016 0.227 -0.008 0.5 -0.055 0.605 c -0.066 0.156 -0.082 0.047 -0.078 -0.641 m 2.027 0.289 c 0 -0.176 0.016 -0.246 0.031 -0.16 c 0.02 0.09 0.02 0.23 0 0.316 c -0.016 0.086 -0.031 0.016 -0.031 -0.156 m 4.883 -0.004 c 0 -0.043 0.035 -0.055 0.074 -0.031 c 0.039 0.023 0.074 0.055 0.074 0.074 c 0 0.016 -0.035 0.031 -0.074 0.031 c -0.039 0 -0.074 -0.035 -0.074 -0.074 m -8.559 -0.664 c 0.137 -0.133 0.266 -0.246 0.285 -0.246 c 0.02 0 -0.078 0.113 -0.211 0.246 c -0.137 0.137 -0.266 0.246 -0.285 0.246 c -0.023 0 0.074 -0.109 0.211 -0.246 m 8.117 -0.016 l -0.25 -0.266 l 0.273 0.242 c 0.148 0.133 0.273 0.254 0.273 0.266 c 0 0.051 -0.063 0 -0.297 -0.242 m -4.094 -0.508 c 0 -0.039 0.031 -0.07 0.074 -0.07 c 0.039 0 0.07 0.031 0.07 0.07 c 0 0.039 -0.031 0.07 -0.07 0.07 c -0.043 0 -0.074 -0.031 -0.074 -0.07" fill="#124d28"/><path d="m 4.766 12.797 c -0.09 -0.016 -0.164 -0.059 -0.164 -0.09 c 0 -0.031 -0.082 -0.078 -0.184 -0.102 c -0.27 -0.063 -0.77 -0.523 -0.926 -0.848 c -0.07 -0.152 -0.137 -0.246 -0.141 -0.211 c -0.008 0.039 -0.035 -0.023 -0.066 -0.141 c -0.074 -0.273 -0.074 -5.824 0 -6.098 c 0.031 -0.117 0.059 -0.18 0.066 -0.141 c 0.004 0.039 0.07 -0.059 0.141 -0.211 c 0.156 -0.324 0.656 -0.781 0.922 -0.848 c 0.102 -0.023 0.172 -0.066 0.152 -0.098 c -0.039 -0.055 0.375 -0.141 0.695 -0.141 h 0.188 l -0.02 4.395 c -0.012 3.094 0.004 4.422 0.063 4.488 c 0.063 0.074 0.016 0.09 -0.242 0.082 c -0.176 -0.004 -0.395 -0.023 -0.484 -0.039 m 0.918 0 c 0.055 -0.02 0.117 -0.016 0.141 0.008 c 0.023 0.023 -0.02 0.039 -0.094 0.035 c -0.086 -0.004 -0.105 -0.02 -0.047 -0.043 m 0.328 0 c 0.07 -0.02 0.168 -0.016 0.219 0.004 c 0.051 0.02 -0.008 0.031 -0.129 0.031 c -0.121 0 -0.16 -0.016 -0.09 -0.035 m 0.406 0 c 0.051 -0.02 0.113 -0.016 0.141 0.008 c 0.023 0.023 -0.02 0.039 -0.098 0.035 c -0.086 -0.004 -0.102 -0.02 -0.043 -0.043 m 0.285 0.004 c 0.051 -0.02 0.133 -0.02 0.184 0 c 0.051 0.02 0.012 0.035 -0.09 0.035 c -0.102 0 -0.141 -0.016 -0.094 -0.035 m 0.445 -0.004 c 0.051 -0.02 0.117 -0.016 0.141 0.008 c 0.023 0.023 -0.02 0.039 -0.098 0.035 c -0.086 -0.004 -0.102 -0.02 -0.043 -0.043 m 0.234 -0.027 c 0 -0.039 0.031 -0.055 0.07 -0.027 c 0.043 0.023 0.074 0.055 0.074 0.074 c 0 0.016 -0.031 0.027 -0.074 0.027 c -0.039 0 -0.07 -0.031 -0.07 -0.074 m 0.273 0.031 c 0.051 -0.02 0.133 -0.02 0.184 0 c 0.051 0.02 0.008 0.035 -0.094 0.035 c -0.098 0 -0.141 -0.016 -0.09 -0.035 m 0.328 0.004 c 0.07 -0.066 0.5 -0.078 0.539 -0.016 c 0.02 0.031 -0.102 0.055 -0.273 0.055 c -0.168 0 -0.289 -0.016 -0.266 -0.039 m 0.879 -0.012 l 0.273 -0.027 l 0.016 -1.203 l 0.016 -1.207 l 0.039 1.156 c 0.023 0.637 0.066 1.199 0.098 1.246 c 0.047 0.066 -0.031 0.086 -0.328 0.074 c -0.316 -0.008 -0.336 -0.016 -0.113 -0.039 m 0.566 -0.016 c 0 -0.035 0.051 -0.051 0.109 -0.027 c 0.063 0.023 0.109 0.055 0.109 0.066 c 0 0.016 -0.047 0.027 -0.109 0.027 c -0.059 0 -0.109 -0.027 -0.109 -0.066 m 0.566 0.023 c 0.051 -0.02 0.133 -0.02 0.184 0 c 0.051 0.02 0.008 0.035 -0.09 0.035 c -0.102 0 -0.145 -0.016 -0.094 -0.035 m 0.516 -4.438 c 0.016 -3.508 0.039 -4.492 0.109 -4.492 c 0.242 0 0.633 0.094 0.602 0.141 c -0.02 0.031 0.047 0.074 0.152 0.098 c 0.254 0.063 0.797 0.555 0.914 0.832 c 0.055 0.125 0.129 0.25 0.172 0.277 c 0.109 0.07 0.109 6.211 0 6.281 c -0.043 0.027 -0.117 0.152 -0.172 0.273 c -0.109 0.266 -0.637 0.754 -0.891 0.828 c -0.098 0.031 -0.195 0.078 -0.215 0.113 c -0.023 0.031 -0.188 0.078 -0.367 0.102 l -0.324 0.043 l 0.02 -4.492 m -1.359 0.375 c 0 -0.113 0.016 -0.152 0.035 -0.086 c 0.02 0.07 0.02 0.164 -0.004 0.211 c -0.02 0.047 -0.035 -0.008 -0.031 -0.125 m 0.004 -0.98 c 0 -0.152 0.016 -0.207 0.031 -0.121 c 0.02 0.086 0.02 0.215 0 0.281 c -0.02 0.066 -0.031 -0.004 -0.031 -0.16 m -0.012 -0.848 c 0.004 -0.082 0.02 -0.098 0.043 -0.043 c 0.02 0.051 0.02 0.113 -0.008 0.137 c -0.023 0.023 -0.039 -0.02 -0.035 -0.094 m 0.012 -1.047 c 0.004 -0.191 0.016 -0.262 0.035 -0.156 c 0.016 0.109 0.016 0.266 -0.004 0.352 c -0.016 0.086 -0.031 0 -0.031 -0.195 m -0.004 -1.227 c 0 -0.133 0.016 -0.188 0.035 -0.121 c 0.02 0.066 0.02 0.176 0 0.246 c -0.02 0.066 -0.035 0.012 -0.035 -0.125" fill="#010303"/></svg>