<svg xmlns="http://www.w3.org/2000/svg" viewBox="0 0 16 16"><path d="m 0.184 9.781 c 0.992 6.504 9.805 8.246 13.695 3.602 c 3.426 -3.445 2.574 -10.05 -1.629 -12.313 c -4.824 -3.03 -11.855 0.719 -12.238 6.742 c -0.039 0.664 0.016 1.328 0.172 1.969" fill="#dd9fdd"/><path d="m 4.438 13.04 c -0.383 -0.094 -0.59 -0.223 -0.875 -0.547 c -0.426 -0.48 -0.461 -0.848 -0.43 -4.59 l 0.027 -3.359 l 0.211 -0.367 c 0.129 -0.227 0.359 -0.453 0.598 -0.594 l 0.383 -0.223 l 3.387 -0.027 c 3.77 -0.027 4.141 0.004 4.621 0.426 c 0.609 0.531 0.59 0.375 0.59 4.457 v 3.676 l -0.215 0.367 c -0.129 0.227 -0.359 0.453 -0.594 0.594 l -0.387 0.223 l -3.531 0.016 c -1.941 0.008 -3.645 -0.016 -3.785 -0.051" fill="#c39fc3"/><path d="m 4.406 12.871 c -0.23 -0.148 0.488 -0.18 3.848 -0.18 c 3.258 0 3.43 -0.008 3.695 -0.168 c 0.152 -0.094 0.352 -0.293 0.445 -0.445 c 0.16 -0.262 0.168 -0.438 0.176 -3.781 c 0.004 -3.281 0.055 -4.184 0.199 -3.633 c 0.031 0.117 0.047 1.832 0.031 3.809 l -0.023 3.598 l -0.23 0.297 c -0.445 0.582 -0.406 0.578 -4.422 0.574 c -1.98 0 -3.656 -0.031 -3.719 -0.07 m -0.27 -0.496 c -0.602 -0.301 -0.602 -0.313 -0.574 -4.262 c 0.02 -3.41 0.027 -3.527 0.199 -3.758 c 0.391 -0.531 0.41 -0.535 4.207 -0.535 c 3.797 0 3.813 0.004 4.207 0.535 c 0.172 0.23 0.176 0.348 0.199 3.758 c 0.02 3.23 0.012 3.547 -0.129 3.816 c -0.301 0.59 -0.32 0.594 -4.277 0.594 c -3.191 0 -3.563 -0.016 -3.832 -0.148 m 5.109 -1.715 c 0 -0.047 -0.039 -0.082 -0.086 -0.082 c -0.047 0 -0.086 0.059 -0.086 0.133 c 0 0.07 0.039 0.109 0.086 0.078 c 0.047 -0.027 0.086 -0.086 0.086 -0.129" fill="#b499b4"/><path d="m 4.223 12.289 c -0.164 -0.082 -0.367 -0.277 -0.453 -0.441 c -0.145 -0.277 -0.152 -0.535 -0.121 -3.676 c 0.035 -3.777 0.043 -3.824 0.621 -4.063 c 0.426 -0.176 6.973 -0.176 7.398 0 c 0.574 0.238 0.582 0.285 0.617 4.063 c 0.031 3.141 0.023 3.398 -0.121 3.676 c -0.305 0.586 -0.336 0.59 -4.195 0.59 c -3.113 0 -3.477 -0.016 -3.746 -0.148 m 6.645 -1.035 c 0.098 -0.055 0.164 -0.18 0.164 -0.305 c 0 -0.172 -0.066 -0.242 -0.34 -0.348 c -0.438 -0.172 -0.469 -0.402 -0.043 -0.336 c 0.301 0.051 0.414 -0.047 0.164 -0.141 c -0.391 -0.152 -0.785 0.086 -0.629 0.375 c 0.047 0.09 0.18 0.184 0.293 0.215 c 0.305 0.074 0.418 0.238 0.258 0.375 c -0.109 0.086 -0.172 0.086 -0.344 -0.004 c -0.258 -0.137 -0.352 -0.07 -0.164 0.117 c 0.156 0.156 0.402 0.176 0.641 0.051 m -1.621 -0.258 c 0.031 -0.129 0.121 -0.215 0.238 -0.234 c 0.227 -0.031 0.16 -0.184 -0.082 -0.184 c -0.27 0 -0.16 -0.289 0.121 -0.32 c 0.379 -0.043 0.266 -0.199 -0.129 -0.168 l -0.363 0.023 l -0.023 0.582 c -0.02 0.438 0 0.566 0.082 0.539 c 0.059 -0.02 0.129 -0.125 0.156 -0.238 m -3.703 -0.754 c -0.18 -0.258 -0.293 -0.34 -0.477 -0.34 c -0.305 0 -0.344 0.07 -0.207 0.395 c 0.094 0.215 0.152 0.254 0.328 0.223 c 0.117 -0.023 0.281 -0.004 0.367 0.047 c 0.246 0.137 0.246 0.043 -0.012 -0.324 m 0.723 -0.297 c 0.117 -0.141 0.156 -0.207 0.09 -0.148 c -0.07 0.059 -0.191 0.105 -0.277 0.105 c -0.082 0 -0.152 0.016 -0.152 0.035 c 0 0.059 0.105 0.313 0.117 0.285 c 0.004 -0.012 0.105 -0.137 0.223 -0.277" fill="#cc1"/><path d="m 4.223 12.289 c -0.164 -0.082 -0.367 -0.277 -0.453 -0.441 c -0.145 -0.277 -0.152 -0.535 -0.121 -3.676 c 0.035 -3.777 0.043 -3.824 0.621 -4.063 c 0.426 -0.176 6.973 -0.176 7.398 0 c 0.574 0.238 0.582 0.285 0.617 4.063 c 0.031 3.141 0.023 3.398 -0.121 3.676 c -0.305 0.586 -0.336 0.59 -4.195 0.59 c -3.113 0 -3.477 -0.016 -3.746 -0.148 m 6.645 -1.035 c 0.098 -0.055 0.164 -0.18 0.164 -0.305 c 0 -0.172 -0.066 -0.242 -0.34 -0.348 c -0.438 -0.172 -0.469 -0.402 -0.043 -0.336 c 0.301 0.051 0.414 -0.047 0.164 -0.141 c -0.391 -0.152 -0.785 0.086 -0.629 0.375 c 0.047 0.09 0.18 0.184 0.293 0.215 c 0.305 0.074 0.418 0.238 0.258 0.375 c -0.109 0.086 -0.172 0.086 -0.344 -0.004 c -0.258 -0.137 -0.352 -0.07 -0.164 0.117 c 0.156 0.156 0.402 0.176 0.641 0.051 m -1.621 -0.258 c 0.031 -0.129 0.121 -0.215 0.238 -0.234 c 0.227 -0.031 0.16 -0.184 -0.082 -0.184 c -0.27 0 -0.16 -0.289 0.121 -0.32 c 0.379 -0.043 0.266 -0.199 -0.129 -0.168 l -0.363 0.023 l -0.023 0.582 c -0.02 0.438 0 0.566 0.082 0.539 c 0.059 -0.02 0.129 -0.125 0.156 -0.238 m -3.703 -0.754 c -0.18 -0.258 -0.293 -0.34 -0.477 -0.34 c -0.305 0 -0.344 0.07 -0.207 0.395 c 0.094 0.215 0.152 0.254 0.328 0.223 c 0.117 -0.023 0.281 -0.004 0.367 0.047 c 0.246 0.137 0.246 0.043 -0.012 -0.324 m 0.723 -0.297 c 0.117 -0.141 0.156 -0.207 0.09 -0.148 c -0.07 0.059 -0.191 0.105 -0.277 0.105 c -0.082 0 -0.152 0.016 -0.152 0.035 c 0 0.059 0.105 0.313 0.117 0.285 c 0.004 -0.012 0.105 -0.137 0.223 -0.277 m 0.914 -0.148 c 0.395 -0.422 1.727 -2.766 1.727 -3.03 c 0 -0.234 -0.277 -0.195 -0.531 0.074 c -0.543 0.578 -1.898 2.82 -1.824 3.02 c 0.074 0.191 0.426 0.156 0.629 -0.063 m 1.191 0 c 0.395 -0.422 1.727 -2.766 1.727 -3.03 c 0 -0.234 -0.273 -0.195 -0.531 0.074 c -0.543 0.574 -1.898 2.824 -1.82 3.02 c 0.07 0.188 0.426 0.148 0.625 -0.066" fill="#9c559c"/><path d="m 4.055 12.03 c -0.184 -0.184 -0.254 -0.355 -0.301 -0.727 c -0.066 -0.5 0.012 -4.492 0.098 -5.05 l 0.047 -0.316 h 4.801 l 0.277 -0.457 c 0.156 -0.254 0.34 -0.48 0.41 -0.508 c 0.207 -0.082 0.609 -0.059 0.668 0.039 c 0.047 0.074 -1.195 2.277 -1.285 2.277 c -0.02 0 0.004 -0.098 0.051 -0.219 c 0.195 -0.504 -0.059 -0.633 -0.445 -0.227 c -0.543 0.578 -1.902 2.82 -1.824 3.02 c 0.055 0.145 0.441 0.176 0.523 0.043 c 0.031 -0.047 0.098 -0.063 0.148 -0.031 c 0.051 0.035 0.066 0.02 0.035 -0.031 c -0.031 -0.047 0.008 -0.113 0.086 -0.141 c 0.074 -0.031 0.117 -0.074 0.09 -0.102 c -0.027 -0.023 0.016 -0.121 0.094 -0.211 c 0.078 -0.09 0.133 -0.184 0.121 -0.203 c -0.012 -0.023 0.059 -0.117 0.152 -0.211 c 0.094 -0.098 0.148 -0.215 0.113 -0.27 c -0.035 -0.055 -0.02 -0.07 0.039 -0.031 c 0.055 0.031 0.102 0.02 0.102 -0.031 c 0 -0.047 0 -0.109 0 -0.133 c 0 -0.02 0.078 -0.117 0.172 -0.211 c 0.094 -0.098 0.152 -0.207 0.129 -0.246 c -0.027 -0.039 0.016 -0.098 0.09 -0.125 c 0.074 -0.027 0.117 -0.105 0.09 -0.168 c -0.023 -0.066 0.012 -0.188 0.082 -0.273 c 0.117 -0.148 0.121 -0.145 0.035 0.031 c -0.188 0.383 -0.016 0.176 0.32 -0.379 c 0.188 -0.313 0.453 -0.684 0.586 -0.824 c 0.137 -0.141 0.375 -0.461 0.535 -0.719 c 0.156 -0.254 0.344 -0.512 0.414 -0.57 c 0.16 -0.129 0.664 -0.141 0.738 -0.016 c 0.047 0.074 -1.195 2.277 -1.285 2.277 c -0.016 0 0.008 -0.098 0.051 -0.219 c 0.195 -0.504 -0.059 -0.633 -0.445 -0.227 c -0.543 0.574 -1.898 2.824 -1.824 3.02 c 0.055 0.141 0.441 0.168 0.523 0.039 c 0.031 -0.047 0.098 -0.063 0.148 -0.031 c 0.051 0.035 0.066 0.02 0.035 -0.031 c -0.031 -0.047 0.008 -0.113 0.086 -0.141 c 0.074 -0.031 0.117 -0.074 0.09 -0.102 c -0.027 -0.027 0.023 -0.129 0.109 -0.223 c 0.09 -0.094 0.145 -0.203 0.125 -0.234 c -0.023 -0.035 0.023 -0.09 0.102 -0.117 c 0.074 -0.031 0.113 -0.078 0.086 -0.105 c -0.031 -0.031 0 -0.094 0.066 -0.148 c 0.066 -0.051 0.133 -0.145 0.148 -0.211 c 0.016 -0.066 0.094 -0.191 0.176 -0.277 c 0.086 -0.086 0.133 -0.195 0.102 -0.238 c -0.027 -0.047 -0.012 -0.082 0.035 -0.082 c 0.047 0 0.262 -0.297 0.48 -0.656 c 0.223 -0.359 0.531 -0.816 0.695 -1.012 c 0.285 -0.348 0.309 -0.359 0.789 -0.359 h 0.5 l 0.047 0.316 c 0.082 0.563 0.16 4.555 0.098 5.05 c -0.047 0.371 -0.117 0.543 -0.301 0.727 l -0.242 0.238 h -7.344 m 5.03 -1.234 c 0 -0.156 0.047 -0.203 0.199 -0.203 c 0.109 0 0.227 -0.023 0.254 -0.055 c 0.09 -0.086 -0.113 -0.281 -0.293 -0.281 c -0.086 0 -0.16 -0.039 -0.16 -0.086 c 0 -0.047 0.117 -0.086 0.258 -0.086 c 0.199 0 0.254 -0.035 0.254 -0.168 c 0 -0.141 -0.055 -0.168 -0.367 -0.168 c -0.199 0 -0.41 0.047 -0.465 0.102 c -0.133 0.129 -0.137 1.102 -0.004 1.23 c 0.141 0.137 0.324 -0.027 0.324 -0.285 m 1.633 0.25 c 0.188 -0.168 0.203 -0.477 0.031 -0.617 c -0.094 -0.082 -0.102 -0.137 -0.023 -0.258 c 0.25 -0.398 -0.574 -0.613 -0.836 -0.215 c -0.172 0.262 -0.059 0.5 0.301 0.625 c 0.141 0.047 0.258 0.129 0.258 0.176 c 0 0.133 -0.219 0.109 -0.336 -0.031 c -0.117 -0.141 -0.344 -0.086 -0.344 0.082 c 0 0.16 0.336 0.379 0.586 0.379 c 0.113 0 0.277 -0.066 0.363 -0.141 m -0.441 -0.875 c 0 -0.047 0.039 -0.086 0.082 -0.086 c 0.043 0 0.105 0.039 0.133 0.086 c 0.027 0.047 -0.008 0.086 -0.082 0.086 c -0.07 0 -0.133 -0.039 -0.133 -0.086 m -5.262 0.086 c 0.094 0 0.238 0.035 0.328 0.082 c 0.293 0.156 0.25 -0.051 -0.137 -0.625 c -0.371 -0.547 -0.398 -0.566 -0.656 -0.512 c -0.148 0.035 -0.285 0.07 -0.305 0.086 c -0.016 0.016 0.094 0.289 0.246 0.605 c 0.152 0.316 0.293 0.527 0.313 0.469 c 0.023 -0.059 0.117 -0.105 0.211 -0.105 m 1.754 0.016 c 0.051 -0.152 -0.125 -0.121 -0.184 0.031 c -0.031 0.082 -0.012 0.121 0.051 0.102 c 0.055 -0.02 0.113 -0.078 0.133 -0.133 m -0.727 -0.582 c 0.227 -0.297 0.23 -0.309 0.074 -0.418 c -0.141 -0.098 -0.691 -0.082 -0.691 0.02 c 0 0.102 0.285 0.711 0.332 0.707 c 0.027 0 0.156 -0.141 0.285 -0.309 m 3.469 -2.391 c 0.051 -0.094 0.113 -0.172 0.137 -0.172 c 0.023 0 0 0.078 -0.051 0.172 c -0.051 0.09 -0.109 0.168 -0.133 0.168 c -0.023 0 0 -0.078 0.047 -0.168" fill="#c74c31"/><path d="m 4.055 12.03 c -0.187 -0.188 -0.254 -0.355 -0.305 -0.738 c -0.066 -0.535 0.059 -5.23 0.141 -5.312 c 0.027 -0.027 1.109 -0.039 2.406 -0.027 l 2.355 0.023 l -0.98 1.645 c -0.539 0.906 -0.98 1.695 -0.98 1.754 c 0 0.059 -0.031 0.105 -0.07 0.105 c -0.043 0 -0.07 0.105 -0.066 0.23 c 0.012 0.25 0.199 0.34 0.461 0.227 c 0.078 -0.031 0.176 -0.055 0.215 -0.047 c 0.039 0.012 0.047 -0.02 0.02 -0.063 c -0.027 -0.043 -0.012 -0.094 0.039 -0.109 c 0.047 -0.016 0.465 -0.637 0.926 -1.379 c 0.879 -1.41 1.391 -2.164 1.441 -2.113 c 0.016 0.016 -0.379 0.707 -0.871 1.535 c -0.496 0.828 -0.902 1.551 -0.902 1.613 c 0 0.059 -0.031 0.105 -0.07 0.105 c -0.043 0 -0.07 0.105 -0.066 0.23 c 0.012 0.25 0.199 0.344 0.461 0.23 c 0.078 -0.035 0.176 -0.059 0.215 -0.047 c 0.039 0.008 0.047 -0.027 0.016 -0.074 c -0.027 -0.047 -0.02 -0.086 0.027 -0.086 c 0.043 0 0.457 -0.613 0.918 -1.363 c 0.461 -0.75 1.016 -1.594 1.227 -1.879 l 0.383 -0.516 l 0.523 -0.027 l 0.523 -0.023 l 0.047 0.32 c 0.082 0.566 0.16 4.559 0.098 5.059 c -0.047 0.371 -0.117 0.543 -0.301 0.727 l -0.242 0.238 h -7.344 m 5.03 -1.234 c 0 -0.156 0.047 -0.203 0.199 -0.203 c 0.109 0 0.227 -0.023 0.254 -0.055 c 0.09 -0.086 -0.113 -0.281 -0.293 -0.281 c -0.086 0 -0.16 -0.039 -0.16 -0.086 c 0 -0.047 0.117 -0.086 0.258 -0.086 c 0.199 0 0.254 -0.035 0.254 -0.168 c 0 -0.141 -0.055 -0.168 -0.367 -0.168 c -0.199 0 -0.41 0.047 -0.465 0.102 c -0.133 0.129 -0.137 1.102 -0.004 1.23 c 0.141 0.137 0.324 -0.027 0.324 -0.285 m 1.633 0.25 c 0.188 -0.168 0.203 -0.477 0.031 -0.617 c -0.094 -0.082 -0.102 -0.137 -0.023 -0.258 c 0.25 -0.398 -0.574 -0.613 -0.836 -0.215 c -0.172 0.262 -0.059 0.5 0.301 0.625 c 0.141 0.047 0.258 0.129 0.258 0.176 c 0 0.133 -0.219 0.109 -0.336 -0.031 c -0.117 -0.141 -0.344 -0.086 -0.344 0.082 c 0 0.16 0.336 0.379 0.586 0.379 c 0.113 0 0.277 -0.066 0.363 -0.141 m -0.441 -0.875 c 0 -0.047 0.039 -0.086 0.082 -0.086 c 0.043 0 0.105 0.039 0.133 0.086 c 0.027 0.047 -0.008 0.086 -0.082 0.086 c -0.07 0 -0.133 -0.039 -0.133 -0.086 m -5.262 0.086 c 0.094 0 0.238 0.035 0.328 0.082 c 0.293 0.156 0.25 -0.051 -0.137 -0.625 c -0.371 -0.547 -0.398 -0.566 -0.656 -0.512 c -0.148 0.035 -0.285 0.07 -0.305 0.086 c -0.016 0.016 0.094 0.289 0.246 0.605 c 0.152 0.316 0.293 0.527 0.313 0.469 c 0.023 -0.059 0.117 -0.105 0.211 -0.105 m 1.754 0.016 c 0.051 -0.152 -0.125 -0.121 -0.184 0.031 c -0.031 0.082 -0.012 0.121 0.051 0.102 c 0.055 -0.02 0.113 -0.078 0.133 -0.133 m -0.727 -0.582 c 0.227 -0.297 0.23 -0.309 0.074 -0.418 c -0.141 -0.098 -0.691 -0.082 -0.691 0.02 c 0 0.102 0.285 0.711 0.332 0.707 c 0.027 0 0.156 -0.141 0.285 -0.309" fill="#45d921"/><path d="m 4.055 12.03 c -0.187 -0.188 -0.254 -0.355 -0.305 -0.738 c -0.066 -0.535 0.059 -5.23 0.141 -5.312 c 0.027 -0.027 1.109 -0.039 2.406 -0.027 l 2.355 0.023 l -0.973 1.645 c -1.215 2.051 -1.188 2.01 -1.348 1.879 c -0.113 -0.094 -0.66 -0.063 -0.66 0.039 c 0 0.02 0.082 0.227 0.18 0.461 c 0.301 0.688 0.082 0.68 -0.383 -0.016 c -0.391 -0.578 -0.414 -0.598 -0.676 -0.543 c -0.148 0.035 -0.285 0.07 -0.297 0.082 c -0.055 0.047 0.25 0.688 0.594 1.246 c 0.363 0.605 0.559 0.723 0.984 0.613 c 0.297 -0.074 0.512 -0.074 0.809 0 c 0.516 0.133 0.57 0.07 1.992 -2.207 c 0.742 -1.188 1.523 -2.395 1.734 -2.684 l 0.383 -0.516 l 0.523 -0.027 l 0.523 -0.023 l 0.047 0.32 c 0.082 0.566 0.16 4.559 0.098 5.059 c -0.047 0.371 -0.117 0.543 -0.301 0.727 l -0.242 0.238 h -7.344 m 5.03 -1.234 c 0 -0.156 0.047 -0.203 0.199 -0.203 c 0.109 0 0.227 -0.023 0.254 -0.055 c 0.09 -0.086 -0.113 -0.281 -0.293 -0.281 c -0.086 0 -0.16 -0.039 -0.16 -0.086 c 0 -0.047 0.117 -0.086 0.258 -0.086 c 0.199 0 0.254 -0.035 0.254 -0.168 c 0 -0.141 -0.055 -0.168 -0.367 -0.168 c -0.199 0 -0.41 0.047 -0.465 0.102 c -0.133 0.129 -0.137 1.102 -0.004 1.23 c 0.141 0.137 0.324 -0.027 0.324 -0.285 m 1.633 0.25 c 0.188 -0.168 0.203 -0.477 0.031 -0.617 c -0.094 -0.082 -0.102 -0.137 -0.023 -0.258 c 0.25 -0.398 -0.574 -0.613 -0.836 -0.215 c -0.172 0.262 -0.059 0.5 0.301 0.625 c 0.141 0.047 0.258 0.129 0.258 0.176 c 0 0.133 -0.219 0.109 -0.336 -0.031 c -0.117 -0.141 -0.344 -0.086 -0.344 0.082 c 0 0.16 0.336 0.379 0.586 0.379 c 0.113 0 0.277 -0.066 0.363 -0.141 m -0.441 -0.875 c 0 -0.047 0.039 -0.086 0.082 -0.086 c 0.043 0 0.105 0.039 0.133 0.086 c 0.027 0.047 -0.008 0.086 -0.082 0.086 c -0.07 0 -0.133 -0.039 -0.133 -0.086 m -3.516 0.051 c -0.063 -0.16 2.551 -4.336 2.652 -4.234 c 0.016 0.016 -0.332 0.633 -0.773 1.367 c -0.438 0.738 -1 1.688 -1.246 2.117 c -0.477 0.832 -0.563 0.934 -0.633 0.75" fill="#581f56"/></svg>