<svg xmlns="http://www.w3.org/2000/svg" viewBox="0 0 16 16"><path d="m 13.199 2.438 c 12.613 16.508 -22.1 18.852 -10.961 2 c 2.539 -3.84 7.617 -6.375 10.961 -2" fill="#f4f4f4"/><path d="m 7.602 13.801 c -0.125 -0.156 -0.656 -0.531 -1.484 -1.043 c -0.34 -0.211 -0.891 -0.566 -1.223 -0.793 c -0.336 -0.23 -0.691 -0.438 -0.797 -0.465 c -0.105 -0.027 -0.312 -0.203 -0.457 -0.391 l -0.266 -0.34 l -0.016 -2.594 c -0.016 -2.285 0 -2.598 0.113 -2.633 c 0.07 -0.023 0.184 -0.074 0.25 -0.117 c 0.07 -0.043 0.98 -0.516 2.023 -1.051 c 1.617 -0.828 1.961 -0.977 2.312 -0.984 c 0.227 -0.004 0.598 -0.016 0.824 -0.02 c 0.313 -0.008 0.539 0.051 0.91 0.242 c 0.762 0.395 3.371 1.906 3.488 2.02 c 0.102 0.102 0.094 0.223 -0.227 2.773 c -0.043 0.352 -0.133 0.938 -0.191 1.305 c -0.094 0.555 -0.094 0.672 -0.004 0.699 c 0.063 0.02 0.164 0.051 0.227 0.074 c 0.098 0.027 0.098 0.082 -0.016 0.34 c -0.125 0.285 -0.301 0.395 -2.16 1.367 c -2.305 1.207 -2.684 1.418 -2.887 1.605 c -0.18 0.168 -0.289 0.168 -0.422 0.004" fill="#ea4a47"/><path d="m 7.602 13.801 c -0.125 -0.156 -0.656 -0.531 -1.484 -1.043 c -0.34 -0.211 -0.891 -0.566 -1.223 -0.793 c -0.336 -0.23 -0.691 -0.438 -0.797 -0.465 c -0.105 -0.027 -0.312 -0.203 -0.457 -0.391 l -0.266 -0.34 l -0.016 -2.594 c -0.016 -2.285 0 -2.598 0.113 -2.633 c 0.07 -0.023 0.184 -0.074 0.25 -0.117 c 0.07 -0.043 0.98 -0.516 2.023 -1.051 c 1.617 -0.828 1.961 -0.977 2.312 -0.984 c 0.227 -0.004 0.598 -0.016 0.824 -0.02 c 0.313 -0.008 0.539 0.051 0.91 0.242 c 0.762 0.395 3.371 1.906 3.488 2.02 c 0.102 0.102 0.094 0.223 -0.227 2.773 c -0.043 0.352 -0.133 0.938 -0.191 1.305 c -0.094 0.555 -0.094 0.672 -0.004 0.699 c 0.063 0.02 0.164 0.051 0.227 0.074 c 0.098 0.027 0.098 0.082 -0.016 0.34 c -0.125 0.285 -0.301 0.395 -2.16 1.367 c -2.305 1.207 -2.684 1.418 -2.887 1.605 c -0.18 0.168 -0.289 0.168 -0.422 0.004 m -0.086 -1.465 c 0.055 -0.359 0.121 -1.313 0.148 -2.117 l 0.047 -1.461 l -0.301 -0.129 c -0.168 -0.07 -0.676 -0.43 -1.129 -0.793 c -0.453 -0.363 -1.148 -0.918 -1.547 -1.234 l -0.723 -0.57 l -0.027 0.57 c -0.012 0.316 0.016 1.047 0.07 1.625 c 0.051 0.59 0.066 1.387 0.035 1.805 l -0.059 0.75 l 0.266 0.152 c 0.148 0.082 0.867 0.578 1.602 1.102 c 0.734 0.527 1.375 0.957 1.426 0.957 c 0.055 0.004 0.137 -0.277 0.191 -0.656 m -0.848 -0.422 c -0.023 -0.043 -0.473 -0.336 -0.996 -0.656 c -0.523 -0.316 -0.988 -0.621 -1.031 -0.672 c -0.043 -0.055 -0.086 -0.727 -0.102 -1.5 l -0.027 -1.398 l 0.215 -0.078 c 0.172 -0.063 0.246 -0.043 0.395 0.109 c 0.098 0.102 0.484 0.34 0.855 0.523 c 0.375 0.184 0.801 0.441 0.953 0.574 c 0.266 0.227 0.277 0.258 0.281 0.867 c 0.004 0.352 -0.027 1 -0.07 1.441 c -0.066 0.734 -0.09 0.813 -0.25 0.836 c -0.098 0.012 -0.199 -0.008 -0.223 -0.047 m 0.129 -1.234 c 0.02 -0.434 0.016 -0.977 -0.012 -1.211 l -0.047 -0.426 l -0.867 -0.477 c -0.477 -0.262 -0.895 -0.457 -0.93 -0.441 c -0.094 0.055 -0.074 1.969 0.023 2.152 c 0.105 0.207 1.52 1.168 1.742 1.184 c 0.027 0.004 0.066 -0.348 0.086 -0.781 m -0.797 -0.066 c -0.262 -0.195 -0.391 -0.234 -0.602 -0.195 c -0.207 0.035 -0.266 0.02 -0.266 -0.086 c 0 -0.156 0.242 -0.313 0.488 -0.313 c 0.191 0 0.727 0.324 0.902 0.539 c 0.117 0.145 0.063 0.316 -0.098 0.305 c -0.055 -0.004 -0.246 -0.117 -0.426 -0.25 m 0.254 -0.656 c -0.035 -0.035 -0.254 -0.102 -0.488 -0.148 c -0.305 -0.063 -0.434 -0.133 -0.453 -0.242 c -0.027 -0.137 0.02 -0.148 0.453 -0.113 c 0.262 0.02 0.547 0.066 0.629 0.102 c 0.168 0.07 0.324 0.332 0.246 0.414 c -0.07 0.074 -0.313 0.066 -0.387 -0.012 m -0.133 -0.656 c -0.113 -0.063 -0.383 -0.191 -0.598 -0.289 c -0.215 -0.098 -0.391 -0.219 -0.391 -0.266 c 0 -0.168 0.273 -0.199 0.516 -0.059 c 0.133 0.078 0.305 0.145 0.387 0.145 c 0.234 0 0.535 0.289 0.477 0.453 c -0.063 0.164 -0.109 0.164 -0.391 0.016 m 1.441 -1.137 c -0.109 -0.098 -0.75 -0.48 -0.695 -0.414 c 0.105 0.125 0.703 0.547 0.734 0.516 c 0.02 -0.016 0.004 -0.063 -0.039 -0.102" fill="#3769cf"/><path d="m 7.316 13.496 c -0.227 -0.184 -0.766 -0.551 -1.199 -0.813 c -0.43 -0.262 -0.918 -0.586 -1.082 -0.719 c -0.168 -0.133 -0.492 -0.332 -0.723 -0.445 c -0.238 -0.109 -0.535 -0.344 -0.676 -0.523 l -0.25 -0.328 l 0.02 -2.473 l 0.02 -2.469 l 0.336 -0.223 c 0.406 -0.27 1.949 -1.09 3.02 -1.602 c 0.648 -0.313 0.879 -0.379 1.324 -0.391 c 0.293 -0.008 0.652 -0.043 0.793 -0.074 c 0.316 -0.078 0.867 0.184 2.922 1.379 l 1.445 0.844 l -0.023 0.5 c -0.023 0.504 -0.16 1.598 -0.402 3.246 c -0.137 0.914 -0.117 1.125 0.09 1.125 c 0.156 0 0.16 0.031 0.008 0.328 c -0.125 0.25 -0.16 0.273 -2.523 1.523 c -1.984 1.051 -2.242 1.195 -2.395 1.34 c -0.184 0.172 -0.23 0.156 -0.699 -0.227 m 0.199 -1.16 c 0.055 -0.359 0.121 -1.313 0.148 -2.117 l 0.047 -1.461 l -0.301 -0.129 c -0.168 -0.07 -0.676 -0.43 -1.129 -0.793 c -0.453 -0.363 -1.148 -0.918 -1.547 -1.234 l -0.723 -0.57 l -0.027 0.57 c -0.016 0.316 0.016 1.047 0.066 1.629 c 0.055 0.586 0.07 1.383 0.039 1.801 l -0.059 0.75 l 0.266 0.152 c 0.148 0.082 0.867 0.578 1.602 1.105 c 0.734 0.523 1.375 0.953 1.426 0.953 c 0.055 0.004 0.137 -0.277 0.191 -0.656 m -0.848 -0.422 c -0.023 -0.043 -0.473 -0.336 -0.996 -0.652 c -0.523 -0.32 -0.988 -0.625 -1.031 -0.676 c -0.043 -0.055 -0.086 -0.727 -0.102 -1.496 l -0.027 -1.402 l 0.215 -0.078 c 0.172 -0.063 0.246 -0.039 0.395 0.109 c 0.098 0.102 0.484 0.34 0.855 0.523 c 0.375 0.184 0.801 0.441 0.953 0.574 c 0.266 0.227 0.277 0.258 0.281 0.871 c 0 0.348 -0.027 0.996 -0.07 1.438 c -0.066 0.734 -0.09 0.813 -0.25 0.836 c -0.098 0.016 -0.199 -0.008 -0.223 -0.047 m 0.125 -1.234 c 0.023 -0.43 0.02 -0.977 -0.008 -1.211 l -0.047 -0.426 l -0.867 -0.473 c -0.477 -0.262 -0.895 -0.461 -0.93 -0.441 c -0.094 0.051 -0.074 1.965 0.02 2.148 c 0.109 0.211 1.523 1.168 1.742 1.188 c 0.031 0 0.07 -0.352 0.09 -0.785 m -0.801 -0.066 c -0.258 -0.195 -0.387 -0.234 -0.598 -0.195 c -0.207 0.035 -0.266 0.02 -0.266 -0.086 c 0 -0.156 0.242 -0.309 0.488 -0.309 c 0.188 0 0.727 0.32 0.902 0.535 c 0.117 0.145 0.063 0.316 -0.098 0.305 c -0.055 -0.004 -0.246 -0.117 -0.43 -0.25 m 0.258 -0.656 c -0.035 -0.035 -0.254 -0.102 -0.488 -0.148 c -0.305 -0.063 -0.434 -0.133 -0.457 -0.242 c -0.023 -0.137 0.023 -0.148 0.457 -0.113 c 0.262 0.02 0.547 0.066 0.625 0.102 c 0.172 0.07 0.328 0.332 0.25 0.414 c -0.07 0.074 -0.313 0.066 -0.387 -0.012 m -0.133 -0.656 c -0.113 -0.063 -0.383 -0.191 -0.598 -0.289 c -0.215 -0.098 -0.391 -0.219 -0.391 -0.266 c 0 -0.168 0.273 -0.199 0.516 -0.055 c 0.133 0.078 0.305 0.141 0.387 0.141 c 0.234 0 0.535 0.289 0.473 0.453 c -0.059 0.164 -0.105 0.164 -0.387 0.016 m 1.441 -1.137 c -0.109 -0.098 -0.75 -0.48 -0.695 -0.414 c 0.105 0.125 0.703 0.547 0.734 0.516 c 0.02 -0.016 0.004 -0.063 -0.039 -0.102 m 0.867 -0.383 c 0.195 -0.188 1.523 -0.82 1.719 -0.82 c 0.047 0 0.637 -0.23 1.313 -0.508 c 0.672 -0.281 1.273 -0.512 1.336 -0.512 c 0.301 0 -0.07 -0.27 -1.156 -0.848 c -0.656 -0.352 -1.504 -0.82 -1.883 -1.043 c -0.375 -0.223 -0.75 -0.402 -0.832 -0.402 c -0.078 0 -0.363 0.109 -0.629 0.246 c -0.266 0.133 -0.668 0.305 -0.895 0.375 c -0.484 0.152 -2.121 0.832 -2.742 1.137 c -0.234 0.117 -0.41 0.254 -0.391 0.309 c 0.023 0.055 0.176 0.18 0.348 0.277 c 0.168 0.098 0.715 0.418 1.215 0.715 c 0.992 0.586 2.25 1.273 2.332 1.273 c 0.031 0 0.148 -0.09 0.266 -0.199 m -0.816 -1.043 c -0.637 -0.246 -0.684 -0.281 -0.961 -0.77 c -0.184 -0.328 -0.203 -0.418 -0.125 -0.598 c 0.125 -0.277 0.258 -0.215 0.395 0.188 c 0.148 0.449 0.324 0.629 0.816 0.855 c 0.348 0.16 0.512 0.184 0.93 0.145 c 0.438 -0.039 0.508 -0.027 0.508 0.098 c 0 0.164 -0.066 0.191 -0.617 0.246 c -0.313 0.035 -0.547 -0.008 -0.945 -0.164 m 0.508 -0.887 c 0.016 -0.051 0.063 -0.094 0.105 -0.094 c 0.043 0 0.094 0.043 0.109 0.094 c 0.016 0.051 -0.031 0.09 -0.109 0.09 c -0.074 0 -0.125 -0.039 -0.105 -0.09 m 1.277 0.035 c -0.105 -0.105 -0.059 -0.207 0.129 -0.277 c 0.242 -0.094 0.438 0.047 0.301 0.215 c -0.098 0.125 -0.34 0.156 -0.43 0.063 m -1.441 -0.852 c -0.164 -0.07 -0.117 -0.352 0.074 -0.414 c 0.211 -0.07 0.449 0.145 0.375 0.336 c -0.047 0.133 -0.238 0.164 -0.445 0.078" fill="#37df37"/><path d="m 7.316 13.496 c -0.227 -0.184 -0.766 -0.551 -1.199 -0.813 c -0.43 -0.262 -0.918 -0.586 -1.082 -0.719 c -0.168 -0.133 -0.492 -0.332 -0.723 -0.445 c -0.238 -0.109 -0.535 -0.344 -0.676 -0.523 l -0.25 -0.328 l 0.02 -2.473 l 0.02 -2.469 l 0.336 -0.223 c 0.406 -0.27 1.949 -1.09 3.02 -1.602 c 0.648 -0.313 0.879 -0.379 1.324 -0.391 c 0.293 -0.008 0.652 -0.043 0.793 -0.074 c 0.316 -0.078 0.867 0.184 2.922 1.379 l 1.445 0.844 l -0.023 0.5 c -0.023 0.504 -0.16 1.598 -0.402 3.246 c -0.137 0.914 -0.117 1.125 0.09 1.125 c 0.156 0 0.16 0.031 0.008 0.328 c -0.125 0.25 -0.16 0.273 -2.523 1.523 c -1.984 1.051 -2.242 1.195 -2.395 1.34 c -0.184 0.172 -0.23 0.156 -0.699 -0.227 m 0.199 -1.16 c 0.055 -0.359 0.121 -1.313 0.148 -2.117 l 0.047 -1.461 l -0.301 -0.129 c -0.168 -0.07 -0.676 -0.43 -1.129 -0.793 c -0.453 -0.363 -1.148 -0.918 -1.547 -1.234 l -0.723 -0.57 l -0.027 0.57 c -0.016 0.316 0.016 1.047 0.066 1.629 c 0.055 0.586 0.07 1.383 0.039 1.801 l -0.059 0.75 l 0.266 0.152 c 0.148 0.082 0.867 0.578 1.602 1.105 c 0.734 0.523 1.375 0.953 1.426 0.953 c 0.055 0.004 0.137 -0.277 0.191 -0.656 m -0.848 -0.422 c -0.023 -0.043 -0.473 -0.336 -0.996 -0.652 c -0.523 -0.32 -0.988 -0.625 -1.031 -0.676 c -0.043 -0.055 -0.086 -0.727 -0.102 -1.496 l -0.027 -1.402 l 0.215 -0.078 c 0.172 -0.063 0.246 -0.039 0.395 0.109 c 0.098 0.102 0.484 0.34 0.855 0.523 c 0.375 0.184 0.801 0.441 0.953 0.574 c 0.266 0.227 0.277 0.258 0.281 0.871 c 0 0.348 -0.027 0.996 -0.07 1.438 c -0.066 0.734 -0.09 0.813 -0.25 0.836 c -0.098 0.016 -0.199 -0.008 -0.223 -0.047 m 0.125 -1.234 c 0.023 -0.43 0.02 -0.977 -0.008 -1.211 l -0.047 -0.426 l -0.867 -0.473 c -0.477 -0.262 -0.895 -0.461 -0.93 -0.441 c -0.094 0.051 -0.074 1.965 0.02 2.148 c 0.109 0.211 1.523 1.168 1.742 1.188 c 0.031 0 0.07 -0.352 0.09 -0.785 m -0.801 -0.066 c -0.258 -0.195 -0.387 -0.234 -0.598 -0.195 c -0.207 0.035 -0.266 0.02 -0.266 -0.086 c 0 -0.156 0.242 -0.309 0.488 -0.309 c 0.188 0 0.727 0.32 0.902 0.535 c 0.117 0.145 0.063 0.316 -0.098 0.305 c -0.055 -0.004 -0.246 -0.117 -0.43 -0.25 m 0.258 -0.656 c -0.035 -0.035 -0.254 -0.102 -0.488 -0.148 c -0.305 -0.063 -0.434 -0.133 -0.457 -0.242 c -0.023 -0.137 0.023 -0.148 0.457 -0.113 c 0.262 0.02 0.547 0.066 0.625 0.102 c 0.172 0.07 0.328 0.332 0.25 0.414 c -0.07 0.074 -0.313 0.066 -0.387 -0.012 m -0.133 -0.656 c -0.113 -0.063 -0.383 -0.191 -0.598 -0.289 c -0.215 -0.098 -0.391 -0.219 -0.391 -0.266 c 0 -0.168 0.273 -0.199 0.516 -0.055 c 0.133 0.078 0.305 0.141 0.387 0.141 c 0.234 0 0.535 0.289 0.473 0.453 c -0.059 0.164 -0.105 0.164 -0.387 0.016 m 2.949 3.277 c 0.227 -0.145 0.438 -0.262 0.465 -0.262 c 0.105 0 2.336 -1.305 2.512 -1.469 c 0.141 -0.133 0.184 -0.27 0.188 -0.566 c 0 -0.211 0.113 -0.98 0.25 -1.703 c 0.363 -1.883 0.43 -2.305 0.371 -2.363 c -0.047 -0.047 -0.867 0.34 -3.156 1.48 c -0.594 0.297 -1.137 0.539 -1.199 0.539 c -0.094 0 -0.109 0.156 -0.086 0.789 c 0.016 0.43 -0.023 1.473 -0.09 2.316 c -0.066 0.84 -0.102 1.555 -0.086 1.59 c 0.051 0.082 0.344 -0.039 0.832 -0.352 m 0.23 -1.145 c -0.477 -0.223 -0.66 -0.52 -0.66 -1.063 c 0 -1.117 1.01 -2.188 2.156 -2.285 c 0.551 -0.051 0.945 0.141 1.133 0.539 c 0.074 0.164 0.137 0.375 0.137 0.469 c 0 0.293 -0.219 0.727 -0.52 1.02 c -0.242 0.238 -0.273 0.309 -0.195 0.441 c 0.082 0.133 0.055 0.191 -0.152 0.367 c -0.594 0.496 -1.445 0.727 -1.898 0.516 m 1.039 -0.566 c 0.301 -0.086 0.641 -0.383 0.547 -0.477 c -0.027 -0.031 -0.227 0.066 -0.441 0.211 c -0.457 0.313 -0.594 0.328 -0.887 0.09 c -0.547 -0.441 -0.016 -1.48 0.973 -1.898 c 0.438 -0.188 0.309 -0.281 -0.141 -0.105 c -0.785 0.309 -1.359 1.305 -1.078 1.863 c 0.184 0.371 0.504 0.465 1.027 0.316 m 0.031 -0.867 c 0.141 -0.207 0.172 -0.578 0.051 -0.578 c -0.121 0 -0.418 0.434 -0.418 0.609 c 0 0.215 0.207 0.199 0.367 -0.031 m 1.035 -0.746 c 0 -0.176 -0.047 -0.359 -0.102 -0.406 c -0.082 -0.07 -0.109 0.027 -0.129 0.426 c -0.023 0.457 -0.012 0.504 0.102 0.406 c 0.074 -0.063 0.129 -0.242 0.129 -0.426 m -3.844 -1.094 c -0.109 -0.098 -0.75 -0.48 -0.695 -0.414 c 0.105 0.125 0.703 0.547 0.734 0.516 c 0.02 -0.016 0.004 -0.063 -0.039 -0.102 m 0.867 -0.383 c 0.195 -0.188 1.523 -0.82 1.719 -0.82 c 0.047 0 0.637 -0.23 1.313 -0.508 c 0.672 -0.281 1.273 -0.512 1.336 -0.512 c 0.301 0 -0.07 -0.27 -1.156 -0.848 c -0.656 -0.352 -1.504 -0.82 -1.883 -1.043 c -0.375 -0.223 -0.75 -0.402 -0.832 -0.402 c -0.078 0 -0.363 0.109 -0.629 0.246 c -0.266 0.133 -0.668 0.305 -0.895 0.375 c -0.484 0.152 -2.121 0.832 -2.742 1.137 c -0.234 0.117 -0.41 0.254 -0.391 0.309 c 0.023 0.055 0.176 0.18 0.348 0.277 c 0.168 0.098 0.715 0.418 1.215 0.715 c 0.992 0.586 2.25 1.273 2.332 1.273 c 0.031 0 0.148 -0.09 0.266 -0.199 m -0.816 -1.043 c -0.637 -0.246 -0.684 -0.281 -0.961 -0.77 c -0.184 -0.328 -0.203 -0.418 -0.125 -0.598 c 0.125 -0.277 0.258 -0.215 0.395 0.188 c 0.148 0.449 0.324 0.629 0.816 0.855 c 0.348 0.16 0.512 0.184 0.93 0.145 c 0.438 -0.039 0.508 -0.027 0.508 0.098 c 0 0.164 -0.066 0.191 -0.617 0.246 c -0.313 0.035 -0.547 -0.008 -0.945 -0.164 m 0.508 -0.887 c 0.016 -0.051 0.063 -0.094 0.105 -0.094 c 0.043 0 0.094 0.043 0.109 0.094 c 0.016 0.051 -0.031 0.09 -0.109 0.09 c -0.074 0 -0.125 -0.039 -0.105 -0.09 m 1.277 0.035 c -0.105 -0.105 -0.059 -0.207 0.129 -0.277 c 0.242 -0.094 0.438 0.047 0.301 0.215 c -0.098 0.125 -0.34 0.156 -0.43 0.063 m -1.441 -0.852 c -0.164 -0.07 -0.117 -0.352 0.074 -0.414 c 0.211 -0.07 0.449 0.145 0.375 0.336 c -0.047 0.133 -0.238 0.164 -0.445 0.078" fill="#9d3030"/><path d="m 7.645 13.758 c -0.09 -0.145 -0.879 -0.715 -1.527 -1.098 c -0.34 -0.203 -0.816 -0.52 -1.059 -0.703 c -0.242 -0.184 -0.598 -0.41 -0.793 -0.496 c -0.219 -0.102 -0.445 -0.297 -0.594 -0.516 l -0.238 -0.355 v -4.816 l 0.207 -0.156 c 0.305 -0.23 1.965 -1.121 3.055 -1.641 c 0.777 -0.367 1.039 -0.453 1.445 -0.465 c 0.273 -0.008 0.605 -0.043 0.742 -0.074 c 0.199 -0.043 0.406 0.027 1.031 0.355 c 0.855 0.449 3.23 1.793 3.32 1.879 c 0.059 0.059 -0.039 1.152 -0.18 2.01 c -0.105 0.648 -0.348 2.41 -0.363 2.633 c -0.008 0.117 0.051 0.18 0.176 0.199 c 0.238 0.035 0.234 0.094 -0.043 0.414 c -0.207 0.246 -0.781 0.57 -3.734 2.117 c -0.523 0.273 -1 0.566 -1.059 0.648 c -0.117 0.168 -0.309 0.199 -0.387 0.063 m -0.047 -1.336 c 0.059 -0.363 0.125 -1.465 0.148 -2.449 l 0.043 -1.789 l -0.551 -0.355 c -0.305 -0.195 -0.652 -0.379 -0.773 -0.402 c -0.219 -0.051 -0.219 -0.047 0.066 0.215 c 0.156 0.145 0.445 0.367 0.641 0.492 c 0.191 0.129 0.348 0.281 0.348 0.344 c 0 0.168 -0.563 -0.184 -1.391 -0.871 c -1.234 -1.023 -2.07 -1.664 -2.172 -1.664 c -0.07 0 -0.082 0.434 -0.043 1.723 c 0.031 0.945 0.055 2.055 0.055 2.461 v 0.742 l 0.352 0.184 c 0.195 0.102 0.922 0.602 1.621 1.109 c 0.699 0.508 1.332 0.922 1.41 0.922 c 0.109 0 0.164 -0.141 0.246 -0.66 m -0.945 -0.66 c -0.09 -0.07 -0.535 -0.355 -0.988 -0.633 c -0.453 -0.277 -0.871 -0.543 -0.93 -0.594 c -0.074 -0.07 -0.102 -0.461 -0.102 -1.398 c 0 -1.07 0.02 -1.324 0.125 -1.414 c 0.105 -0.09 0.156 -0.074 0.293 0.078 c 0.094 0.102 0.477 0.336 0.859 0.52 c 0.594 0.289 0.918 0.512 0.746 0.512 c -0.094 0 -1.41 -0.703 -1.543 -0.824 c -0.266 -0.242 -0.316 -0.055 -0.316 1.152 c 0 1.113 0.008 1.18 0.191 1.355 c 0.105 0.102 0.223 0.188 0.262 0.188 c 0.035 0 0.184 0.086 0.324 0.195 c 0.387 0.293 1.012 0.652 1.145 0.652 c 0.09 0 0.129 -0.207 0.172 -0.918 c 0.027 -0.508 0.031 -1.109 0 -1.34 c -0.047 -0.379 -0.039 -0.406 0.082 -0.293 c 0.09 0.09 0.129 0.285 0.133 0.641 c 0.004 0.887 -0.117 2.195 -0.207 2.223 c -0.047 0.016 -0.156 -0.027 -0.246 -0.102 m -0.504 -1.18 c -0.098 -0.055 -0.238 -0.152 -0.313 -0.211 c -0.07 -0.063 -0.223 -0.098 -0.336 -0.074 c -0.27 0.055 -0.27 -0.07 -0.004 -0.141 c 0.145 -0.035 0.305 0.012 0.531 0.156 c 0.469 0.305 0.566 0.527 0.121 0.27 m 0.012 -0.82 c -0.184 -0.121 -0.211 -0.164 -0.098 -0.164 c 0.191 0 0.469 0.152 0.469 0.258 c 0 0.113 -0.09 0.094 -0.371 -0.094 m -0.66 -0.164 c -0.031 -0.047 0.004 -0.086 0.07 -0.086 c 0.07 0 0.148 0.039 0.176 0.086 c 0.027 0.047 -0.004 0.082 -0.074 0.082 c -0.066 0 -0.145 -0.035 -0.172 -0.082 m 0.578 -0.477 c -0.164 -0.129 -0.164 -0.133 0.031 -0.105 c 0.113 0.016 0.219 0.074 0.234 0.133 c 0.047 0.145 -0.066 0.133 -0.266 -0.027 m -0.602 -0.223 c -0.102 -0.051 -0.184 -0.125 -0.184 -0.164 c 0 -0.121 0.133 -0.082 0.34 0.094 c 0.215 0.184 0.141 0.215 -0.156 0.07 m 3.59 3.68 c 0.227 -0.145 0.438 -0.262 0.465 -0.262 c 0.105 0 2.336 -1.305 2.512 -1.469 c 0.141 -0.133 0.184 -0.273 0.188 -0.566 c 0 -0.211 0.113 -0.98 0.25 -1.707 c 0.363 -1.879 0.426 -2.301 0.371 -2.359 c -0.047 -0.047 -0.867 0.336 -3.156 1.48 c -0.594 0.297 -1.137 0.539 -1.199 0.539 c -0.094 0 -0.109 0.156 -0.086 0.789 c 0.016 0.43 -0.023 1.473 -0.09 2.316 c -0.066 0.84 -0.102 1.555 -0.086 1.59 c 0.047 0.082 0.344 -0.043 0.832 -0.352 m 0.23 -1.145 c -0.477 -0.223 -0.66 -0.523 -0.66 -1.063 c 0 -1.117 1.01 -2.188 2.156 -2.285 c 0.551 -0.051 0.945 0.141 1.133 0.539 c 0.074 0.164 0.137 0.375 0.137 0.469 c 0 0.293 -0.219 0.727 -0.52 1.02 c -0.242 0.238 -0.273 0.305 -0.195 0.441 c 0.082 0.133 0.055 0.191 -0.152 0.367 c -0.594 0.496 -1.445 0.727 -1.898 0.512 m 1.039 -0.563 c 0.301 -0.086 0.641 -0.383 0.547 -0.477 c -0.027 -0.031 -0.227 0.066 -0.441 0.211 c -0.457 0.313 -0.594 0.328 -0.887 0.09 c -0.547 -0.441 -0.016 -1.48 0.973 -1.898 c 0.438 -0.188 0.309 -0.281 -0.141 -0.105 c -0.785 0.309 -1.359 1.305 -1.078 1.863 c 0.184 0.371 0.504 0.465 1.027 0.316 m 0.027 -0.867 c 0.141 -0.207 0.176 -0.578 0.055 -0.578 c -0.121 0 -0.418 0.434 -0.418 0.605 c 0 0.219 0.207 0.203 0.363 -0.027 m 1.039 -0.746 c 0 -0.176 -0.047 -0.359 -0.105 -0.406 c -0.078 -0.07 -0.105 0.027 -0.125 0.426 c -0.023 0.457 -0.012 0.504 0.102 0.406 c 0.074 -0.063 0.129 -0.242 0.129 -0.426 m -2.977 -1.477 c 0.195 -0.188 1.523 -0.82 1.719 -0.82 c 0.047 0 0.637 -0.23 1.313 -0.508 c 0.672 -0.281 1.273 -0.512 1.336 -0.512 c 0.301 0 -0.07 -0.273 -1.156 -0.852 c -0.656 -0.348 -1.504 -0.816 -1.883 -1.039 c -0.375 -0.223 -0.75 -0.406 -0.832 -0.406 c -0.078 0 -0.363 0.113 -0.629 0.246 c -0.266 0.137 -0.668 0.305 -0.895 0.379 c -0.484 0.152 -2.121 0.832 -2.742 1.137 c -0.234 0.117 -0.41 0.254 -0.391 0.309 c 0.023 0.055 0.176 0.18 0.348 0.277 c 0.168 0.098 0.715 0.418 1.215 0.715 c 0.992 0.586 2.25 1.273 2.336 1.273 c 0.027 0 0.145 -0.09 0.262 -0.199 m -0.816 -1.043 c -0.637 -0.246 -0.68 -0.281 -0.961 -0.77 c -0.184 -0.328 -0.203 -0.418 -0.125 -0.598 c 0.125 -0.277 0.258 -0.215 0.395 0.188 c 0.148 0.445 0.324 0.629 0.816 0.855 c 0.348 0.16 0.516 0.184 0.93 0.145 c 0.438 -0.039 0.508 -0.027 0.508 0.098 c 0 0.164 -0.066 0.191 -0.617 0.246 c -0.313 0.031 -0.547 -0.008 -0.945 -0.164 m 0.508 -0.887 c 0.016 -0.051 0.063 -0.094 0.105 -0.094 c 0.043 0 0.094 0.043 0.109 0.094 c 0.016 0.047 -0.031 0.09 -0.109 0.09 c -0.074 0 -0.125 -0.043 -0.105 -0.09 m 1.277 0.031 c -0.105 -0.102 -0.059 -0.203 0.129 -0.273 c 0.242 -0.094 0.438 0.047 0.301 0.215 c -0.098 0.125 -0.336 0.156 -0.43 0.063 m -1.438 -0.852 c -0.168 -0.07 -0.121 -0.352 0.07 -0.414 c 0.211 -0.07 0.449 0.141 0.375 0.336 c -0.047 0.133 -0.238 0.164 -0.445 0.078" fill="#28a129"/><path d="m 7.645 13.758 c -0.09 -0.145 -0.879 -0.715 -1.527 -1.098 c -0.34 -0.203 -0.816 -0.52 -1.059 -0.703 c -0.242 -0.184 -0.598 -0.41 -0.793 -0.496 c -0.211 -0.098 -0.441 -0.297 -0.578 -0.492 l -0.223 -0.332 l -0.008 -4.867 l 0.195 -0.156 c 0.273 -0.219 1.906 -1.098 3.043 -1.637 c 0.777 -0.367 1.039 -0.453 1.445 -0.465 c 0.273 -0.008 0.605 -0.043 0.742 -0.074 c 0.199 -0.043 0.406 0.027 1.031 0.355 c 0.855 0.449 3.23 1.793 3.32 1.879 c 0.059 0.059 -0.039 1.152 -0.18 2.01 c -0.105 0.648 -0.348 2.41 -0.363 2.633 c -0.008 0.117 0.051 0.18 0.176 0.199 c 0.238 0.035 0.234 0.094 -0.043 0.414 c -0.207 0.246 -0.781 0.57 -3.734 2.117 c -0.523 0.273 -1 0.566 -1.059 0.648 c -0.117 0.168 -0.309 0.199 -0.387 0.063 m 3.613 -2.238 c 0.977 -0.539 1.133 -0.723 1.137 -1.344 c 0 -0.203 0.09 -0.863 0.203 -1.473 c 0.516 -2.797 0.5 -2.656 0.336 -2.84 c -0.078 -0.094 -0.66 -0.438 -1.285 -0.766 c -0.629 -0.332 -1.465 -0.793 -1.855 -1.027 c -0.395 -0.234 -0.785 -0.426 -0.867 -0.426 c -0.082 0 -0.367 0.113 -0.633 0.246 c -0.266 0.137 -0.668 0.305 -0.895 0.379 c -0.484 0.148 -2.121 0.832 -2.742 1.137 c -0.234 0.113 -0.41 0.254 -0.391 0.309 c 0.02 0.055 0.176 0.18 0.348 0.277 c 0.168 0.098 0.805 0.469 1.418 0.828 c 0.609 0.363 1.344 0.773 1.633 0.922 l 0.523 0.266 l 0.223 -0.215 c 0.207 -0.195 1.531 -0.832 1.734 -0.832 c 0.047 0 0.637 -0.227 1.305 -0.508 c 0.672 -0.277 1.234 -0.492 1.25 -0.477 c 0.047 0.043 -0.988 0.613 -1.57 0.867 c -0.281 0.121 -0.949 0.445 -1.48 0.723 c -0.531 0.273 -1.078 0.5 -1.211 0.5 c -0.293 0 -0.348 0.125 -0.207 0.469 c 0.117 0.293 0.094 1.266 -0.078 3.188 c -0.066 0.695 -0.082 1.293 -0.043 1.371 c 0.059 0.121 0.215 0.059 1.164 -0.473 c 0.602 -0.34 1.496 -0.836 1.984 -1.102 m -1.973 -0.215 c -0.574 -0.258 -0.699 -1.094 -0.277 -1.852 c 0.469 -0.84 1.555 -1.434 2.238 -1.223 c 0.473 0.145 0.676 0.461 0.629 0.977 c -0.031 0.359 -0.09 0.469 -0.375 0.746 c -0.238 0.227 -0.414 0.324 -0.586 0.324 c -0.137 0 -0.383 0.094 -0.551 0.211 c -0.563 0.395 -0.918 0.227 -0.836 -0.398 c 0.063 -0.477 0.273 -0.746 0.813 -1.039 c 0.629 -0.344 0.77 -0.277 0.695 0.324 c -0.066 0.539 0.043 0.676 0.313 0.398 c 0.129 -0.133 0.18 -0.285 0.18 -0.57 c 0 -0.539 -0.246 -0.742 -0.828 -0.695 c -0.789 0.07 -1.488 0.766 -1.582 1.574 c -0.043 0.383 -0.023 0.449 0.195 0.703 c 0.215 0.246 0.297 0.281 0.625 0.277 c 0.258 -0.004 0.516 -0.086 0.793 -0.246 c 0.41 -0.234 0.699 -0.219 0.383 0.027 c -0.547 0.418 -1.422 0.641 -1.824 0.461 m 1.164 -1.234 c 0.227 -0.305 0.258 -0.727 0.063 -0.793 c -0.18 -0.059 -0.602 0.449 -0.602 0.723 c 0 0.461 0.227 0.488 0.539 0.07 m -2.844 -3.332 c -0.641 -0.246 -0.684 -0.281 -0.961 -0.77 c -0.184 -0.328 -0.203 -0.418 -0.125 -0.598 c 0.121 -0.277 0.258 -0.215 0.395 0.188 c 0.148 0.445 0.32 0.629 0.816 0.855 c 0.348 0.16 0.512 0.184 0.93 0.145 c 0.438 -0.039 0.508 -0.027 0.508 0.094 c 0 0.168 -0.066 0.195 -0.617 0.25 c -0.313 0.031 -0.547 -0.008 -0.945 -0.164 m 0.504 -0.887 c 0.02 -0.051 0.066 -0.094 0.109 -0.094 c 0.043 0 0.09 0.043 0.109 0.094 c 0.016 0.047 -0.035 0.09 -0.109 0.09 c -0.074 0 -0.125 -0.043 -0.109 -0.09 m 1.277 0.031 c -0.102 -0.105 -0.055 -0.203 0.133 -0.273 c 0.238 -0.094 0.438 0.047 0.301 0.215 c -0.098 0.125 -0.34 0.156 -0.434 0.059 m -1.438 -0.848 c -0.164 -0.07 -0.117 -0.352 0.074 -0.414 c 0.211 -0.07 0.445 0.141 0.375 0.336 c -0.051 0.129 -0.242 0.164 -0.449 0.078 m -0.355 7.387 c 0.059 -0.363 0.125 -1.465 0.148 -2.449 l 0.043 -1.789 l -0.551 -0.355 c -0.305 -0.195 -0.652 -0.379 -0.773 -0.402 c -0.223 -0.051 -0.219 -0.047 0.066 0.215 c 0.156 0.145 0.445 0.367 0.637 0.492 c 0.195 0.129 0.352 0.281 0.352 0.344 c 0 0.168 -0.563 -0.188 -1.391 -0.871 c -1.234 -1.023 -2.07 -1.664 -2.172 -1.664 c -0.07 0 -0.082 0.434 -0.043 1.723 c 0.031 0.945 0.055 2.055 0.055 2.461 v 0.742 l 0.352 0.184 c 0.195 0.102 0.922 0.602 1.621 1.109 c 0.699 0.508 1.332 0.922 1.41 0.922 c 0.109 0 0.164 -0.141 0.246 -0.66 m -0.945 -0.66 c -0.09 -0.07 -0.535 -0.355 -0.988 -0.633 c -0.453 -0.277 -0.871 -0.543 -0.93 -0.598 c -0.074 -0.066 -0.102 -0.461 -0.102 -1.395 c 0 -1.07 0.02 -1.324 0.125 -1.414 c 0.105 -0.09 0.156 -0.078 0.293 0.078 c 0.094 0.102 0.477 0.336 0.859 0.52 c 0.59 0.289 0.918 0.512 0.746 0.512 c -0.094 0 -1.41 -0.703 -1.547 -0.828 c -0.262 -0.238 -0.313 -0.051 -0.313 1.156 c 0 1.113 0.008 1.18 0.191 1.355 c 0.105 0.102 0.223 0.184 0.258 0.184 c 0.039 0 0.188 0.09 0.328 0.199 c 0.383 0.293 1.012 0.652 1.145 0.652 c 0.09 0 0.129 -0.207 0.172 -0.918 c 0.027 -0.508 0.031 -1.109 0 -1.34 c -0.047 -0.383 -0.039 -0.406 0.082 -0.293 c 0.09 0.09 0.129 0.285 0.133 0.637 c 0.004 0.891 -0.117 2.195 -0.207 2.227 c -0.047 0.016 -0.156 -0.027 -0.246 -0.102 m -0.504 -1.18 c -0.098 -0.055 -0.238 -0.152 -0.313 -0.215 c -0.07 -0.059 -0.223 -0.094 -0.336 -0.07 c -0.27 0.055 -0.27 -0.07 -0.004 -0.141 c 0.145 -0.035 0.305 0.012 0.531 0.156 c 0.469 0.305 0.566 0.527 0.121 0.27 m 0.012 -0.82 c -0.184 -0.121 -0.211 -0.164 -0.098 -0.164 c 0.191 0 0.469 0.148 0.469 0.258 c 0 0.113 -0.09 0.094 -0.371 -0.094 m -0.664 -0.164 c -0.027 -0.047 0.008 -0.086 0.074 -0.086 c 0.07 0 0.148 0.039 0.176 0.086 c 0.027 0.047 -0.004 0.082 -0.074 0.082 c -0.066 0 -0.145 -0.035 -0.176 -0.082 m 0.578 -0.477 c -0.16 -0.129 -0.16 -0.133 0.035 -0.105 c 0.113 0.016 0.215 0.074 0.234 0.133 c 0.047 0.145 -0.066 0.133 -0.27 -0.027 m -0.598 -0.223 c -0.102 -0.051 -0.184 -0.125 -0.184 -0.164 c 0 -0.121 0.133 -0.082 0.34 0.094 c 0.215 0.184 0.137 0.215 -0.156 0.07" fill="#661f20"/><path d="m 7.559 13.605 c -0.141 -0.125 -0.363 -0.316 -0.496 -0.422 c -0.164 -0.133 -0.188 -0.176 -0.078 -0.137 c 0.09 0.035 0.258 0.063 0.371 0.07 c 0.188 0.008 0.215 -0.039 0.309 -0.547 c 0.117 -0.609 0.258 -3.691 0.188 -4.164 c -0.035 -0.238 -0.121 -0.352 -0.453 -0.582 c -0.602 -0.414 -1.379 -0.785 -1.543 -0.73 c -0.141 0.047 -1.523 -0.957 -1.66 -1.203 c -0.098 -0.176 -0.289 -0.145 -0.398 0.066 c -0.066 0.129 -0.078 0.484 -0.039 1.168 c 0.031 0.578 0.02 1.102 -0.031 1.27 c -0.047 0.172 -0.051 0.344 -0.008 0.43 c 0.043 0.082 0.043 0.195 0 0.273 c -0.043 0.082 -0.031 0.383 0.035 0.766 c 0.113 0.68 0.102 0.84 -0.07 0.84 c -0.176 0 -0.195 -0.277 -0.203 -2.645 l -0.008 -2.262 l 0.309 -0.219 c 0.43 -0.305 2.832 -1.543 3.496 -1.805 c 0.301 -0.117 0.617 -0.207 0.703 -0.195 c 0.09 0.012 0.371 -0.012 0.633 -0.051 c 0.559 -0.082 0.809 0 1.879 0.621 c 0.387 0.227 1.121 0.648 1.633 0.945 c 0.516 0.293 0.957 0.574 0.988 0.621 c 0.109 0.188 0.008 1.172 -0.383 3.75 c -0.137 0.895 -0.137 0.934 0.008 1.086 c 0.293 0.297 0.023 0.5 -2.227 1.68 c -1.16 0.609 -2.145 1.109 -2.184 1.109 c -0.266 0 0.203 -0.313 1.879 -1.234 c 2.078 -1.148 2.184 -1.242 2.184 -1.93 c 0 -0.219 0.039 -0.582 0.082 -0.809 c 0.402 -2.063 0.59 -3.211 0.547 -3.371 c -0.035 -0.148 -0.344 -0.352 -1.297 -0.855 c -0.688 -0.367 -1.566 -0.852 -1.949 -1.078 c -0.383 -0.227 -0.766 -0.414 -0.848 -0.414 c -0.082 0 -0.367 0.109 -0.633 0.246 c -0.266 0.133 -0.668 0.305 -0.895 0.375 c -0.484 0.152 -2.121 0.832 -2.742 1.137 c -0.234 0.117 -0.41 0.254 -0.391 0.309 c 0.02 0.055 0.176 0.18 0.348 0.277 c 0.168 0.098 0.805 0.473 1.418 0.832 c 0.609 0.359 1.344 0.773 1.633 0.918 l 0.523 0.266 l 0.223 -0.211 c 0.207 -0.195 1.531 -0.836 1.734 -0.836 c 0.047 0 0.629 -0.223 1.289 -0.5 c 2.01 -0.832 1.492 -0.492 -1.383 0.922 c -0.77 0.379 -1.5 0.684 -1.625 0.684 c -0.281 0 -0.332 0.129 -0.195 0.469 c 0.117 0.293 0.094 1.266 -0.078 3.188 c -0.066 0.715 -0.082 1.293 -0.043 1.375 c 0.043 0.086 0.039 0.164 -0.012 0.199 c -0.043 0.027 -0.082 0.121 -0.082 0.207 c 0 0.301 -0.188 0.344 -0.461 0.102 m -1.566 -1.098 c -0.363 -0.223 -0.813 -0.523 -0.992 -0.676 c -0.184 -0.148 -0.488 -0.332 -0.68 -0.414 c -0.191 -0.078 -0.387 -0.215 -0.434 -0.301 c -0.102 -0.195 -0.094 -0.195 0.305 -0.023 c 0.473 0.203 2.688 1.816 2.492 1.816 c -0.012 0 -0.324 -0.18 -0.691 -0.402 m 0.789 -0.785 c 0 -0.047 0.039 -0.086 0.09 -0.086 c 0.047 0 0.063 0.039 0.035 0.086 c -0.027 0.047 -0.066 0.082 -0.086 0.082 c -0.02 0 -0.039 -0.035 -0.039 -0.082 m 2.512 -0.418 c -0.578 -0.258 -0.703 -1.094 -0.281 -1.852 c 0.469 -0.84 1.555 -1.434 2.238 -1.223 c 0.473 0.145 0.676 0.461 0.629 0.977 c -0.031 0.359 -0.09 0.469 -0.375 0.746 c -0.238 0.227 -0.414 0.324 -0.586 0.324 c -0.137 0 -0.383 0.094 -0.551 0.211 c -0.563 0.395 -0.918 0.227 -0.836 -0.398 c 0.063 -0.477 0.273 -0.746 0.813 -1.039 c 0.633 -0.344 0.77 -0.277 0.695 0.324 c -0.066 0.539 0.043 0.676 0.313 0.398 c 0.133 -0.133 0.18 -0.285 0.18 -0.57 c 0 -0.539 -0.246 -0.742 -0.824 -0.695 c -0.789 0.07 -1.492 0.766 -1.582 1.574 c -0.047 0.383 -0.027 0.449 0.195 0.707 c 0.211 0.242 0.293 0.277 0.625 0.273 c 0.254 -0.004 0.512 -0.082 0.793 -0.246 c 0.41 -0.234 0.695 -0.219 0.379 0.027 c -0.547 0.418 -1.422 0.641 -1.824 0.461 m 1.164 -1.234 c 0.227 -0.305 0.258 -0.727 0.063 -0.793 c -0.176 -0.059 -0.602 0.449 -0.602 0.723 c 0 0.461 0.23 0.488 0.539 0.07 m -2.844 -3.332 c -0.637 -0.246 -0.684 -0.281 -0.961 -0.77 c -0.184 -0.328 -0.203 -0.418 -0.125 -0.598 c 0.125 -0.277 0.258 -0.215 0.395 0.188 c 0.148 0.445 0.324 0.629 0.816 0.855 c 0.348 0.16 0.512 0.184 0.93 0.145 c 0.438 -0.039 0.508 -0.027 0.508 0.098 c 0 0.164 -0.066 0.191 -0.617 0.246 c -0.313 0.031 -0.547 -0.008 -0.945 -0.164 m 0.508 -0.887 c 0.016 -0.051 0.063 -0.094 0.105 -0.094 c 0.043 0 0.094 0.043 0.109 0.094 c 0.016 0.047 -0.031 0.09 -0.109 0.09 c -0.074 0 -0.125 -0.043 -0.105 -0.09 m 1.277 0.031 c -0.105 -0.102 -0.059 -0.203 0.129 -0.273 c 0.242 -0.094 0.438 0.047 0.301 0.215 c -0.098 0.125 -0.34 0.156 -0.43 0.059 m -1.441 -0.848 c -0.164 -0.07 -0.117 -0.352 0.074 -0.414 c 0.211 -0.07 0.449 0.141 0.375 0.336 c -0.047 0.133 -0.238 0.164 -0.445 0.078" fill="#141b19"/></svg>