<svg xmlns="http://www.w3.org/2000/svg" viewBox="0 0 16 16"><path d="m 2.848 13.656 c -12.508 -16.578 21.91 -18.934 10.863 -2.01 c -2.516 3.859 -7.551 6.402 -10.863 2.01" fill="#4581b3"/><path d="m 4.063 10.867 c -0.086 -0.039 -0.168 -0.141 -0.188 -0.223 c -0.02 -0.086 0.188 -1.711 0.457 -3.609 c 0.395 -2.77 0.516 -3.48 0.617 -3.566 c 0.102 -0.082 0.73 -0.105 2.754 -0.105 c 2.453 0 2.633 0.008 2.742 0.152 c 0.117 0.148 0.242 0.809 0.988 5.234 c 0.164 0.969 0.273 1.828 0.25 1.906 c -0.027 0.074 -0.129 0.172 -0.223 0.215 c -0.223 0.098 -7.188 0.094 -7.398 -0.004" fill="#fff"/></svg>