<svg xmlns="http://www.w3.org/2000/svg" viewBox="0 0 16 16"><path d="m 3.32 1.516 c -5.508 3.01 -3.371 12.453 1.164 14.05 c 5.398 1.906 15.656 -3.051 9.648 -11.438 c -2.098 -2.828 -5.309 -5.625 -10.813 -2.609" fill="#deb886"/><g fill="#fff" fill-rule="evenodd"><path d="m 5.141 10.906 v -1.27 l -0.16 -0.043 c -0.086 -0.027 -0.156 -0.09 -0.156 -0.145 c 0 -0.055 -0.039 -0.098 -0.09 -0.098 c -0.047 0 -0.105 -0.047 -0.125 -0.105 c -0.066 -0.195 -0.387 -0.125 -0.633 0.145 l -0.234 0.25 v -0.211 c 0 -0.117 0.031 -0.23 0.066 -0.254 c 0.035 -0.023 0.063 -0.16 0.063 -0.305 c 0 -0.258 -0.039 -0.316 -0.414 -0.617 c -0.117 -0.098 -0.113 -0.102 0.066 -0.059 c 0.102 0.027 0.207 0.078 0.227 0.113 c 0.023 0.035 0.109 0.055 0.191 0.043 c 0.141 -0.023 0.152 -0.055 0.172 -0.555 c 0.02 -0.539 0.137 -0.891 0.137 -0.406 c 0 0.141 0.027 0.277 0.059 0.297 c 0.035 0.023 0.078 0.137 0.102 0.254 c 0.023 0.113 0.074 0.215 0.117 0.219 c 0.391 0.039 0.613 -0.156 0.613 -0.535 v -0.25 h 0.66 c 0.527 0 0.668 -0.023 0.695 -0.105 c 0.023 -0.07 0.125 -0.109 0.277 -0.109 c 0.375 0 0.426 -0.066 0.379 -0.504 c -0.023 -0.207 -0.07 -0.387 -0.105 -0.398 c -0.082 -0.031 -0.086 -0.367 0 -0.367 c 0.035 0 0.063 0.039 0.066 0.09 c 0 0.047 0.113 0.215 0.254 0.367 c 0.137 0.156 0.25 0.305 0.25 0.336 c 0 0.031 0.086 0.055 0.191 0.055 c 0.121 0 0.191 -0.035 0.191 -0.102 c 0 -0.055 0.086 -0.168 0.188 -0.25 l 0.191 -0.152 v 0.148 c 0 0.082 -0.043 0.227 -0.098 0.316 c -0.059 0.094 -0.094 0.273 -0.082 0.406 c 0.02 0.223 0.035 0.234 0.316 0.254 c 0.262 0.02 0.305 0.004 0.344 -0.141 l 0.047 -0.16 l 0.051 0.156 c 0.051 0.156 0.074 0.16 1.133 0.16 c 0.957 0 1.086 -0.016 1.141 -0.125 c 0.047 -0.086 0.066 0.652 0.066 2.402 l 0.004 2.523 h -6.16 m 2.16 -1.031 c 0 -0.164 -0.031 -0.238 -0.098 -0.238 c -0.066 0 -0.094 0.078 -0.094 0.281 c 0 0.219 0.02 0.27 0.094 0.238 c 0.059 -0.023 0.098 -0.133 0.098 -0.281 m 1.063 -1.082 c 0.016 -1.203 0.008 -1.355 -0.082 -1.336 c -0.055 0.016 -0.098 0.047 -0.098 0.078 c 0.004 0.027 0.004 0.645 0.004 1.363 c 0 1.02 0.02 1.309 0.082 1.285 c 0.059 -0.023 0.082 -0.379 0.094 -1.391 m 1.082 0.602 c 0.016 -0.695 0.008 -0.758 -0.094 -0.734 c -0.063 0.012 -0.113 0.063 -0.109 0.113 c 0.004 0.047 0.012 0.391 0.016 0.762 c 0.008 0.508 0.031 0.672 0.09 0.648 c 0.055 -0.02 0.086 -0.258 0.098 -0.789 m 1.078 -0.602 c 0.016 -1.203 0.008 -1.355 -0.082 -1.336 c -0.055 0.016 -0.098 0.047 -0.098 0.078 c 0.004 0.027 0.004 0.645 0.004 1.363 c 0 1.02 0.02 1.309 0.078 1.285 c 0.059 -0.023 0.086 -0.379 0.098 -1.391 m -4.367 -0.539 c 0 -0.914 -0.023 -1.441 -0.063 -1.441 c -0.039 0 -0.063 0.543 -0.063 1.484 c 0 0.977 0.02 1.473 0.063 1.445 c 0.039 -0.027 0.063 -0.602 0.063 -1.488 m 1.145 -0.391 c 0 -0.887 -0.016 -1.051 -0.098 -1.051 c -0.078 0 -0.094 0.168 -0.094 1.09 c 0 0.941 0.012 1.09 0.094 1.055 c 0.078 -0.035 0.098 -0.223 0.098 -1.094 m 2.156 -0.383 c 0 -0.547 -0.016 -0.668 -0.094 -0.668 c -0.078 0 -0.094 0.121 -0.094 0.668 c 0 0.551 0.016 0.672 0.094 0.672 c 0.078 0 0.094 -0.121 0.094 -0.672 m -4.395 0.305 c 0.113 -0.125 0.102 -0.668 -0.016 -0.719 c -0.18 -0.074 -0.289 0.031 -0.289 0.285 c 0 0.25 0.094 0.52 0.18 0.52 c 0.027 0 0.086 -0.039 0.125 -0.086 m 3.301 -0.918 c -0.039 -0.129 -0.176 -0.152 -0.176 -0.027 c 0 0.063 0.047 0.113 0.102 0.113 c 0.055 0 0.09 -0.039 0.074 -0.086 m 2.16 0 c -0.039 -0.129 -0.176 -0.152 -0.176 -0.027 c 0 0.063 0.047 0.113 0.102 0.113 c 0.055 0 0.09 -0.039 0.074 -0.086"/><path d="m 4.902 6.641 c -0.027 -0.063 -0.043 -0.203 -0.043 -0.316 c 0 -0.109 -0.027 -0.219 -0.059 -0.242 c -0.035 -0.02 -0.059 -0.086 -0.059 -0.148 c 0 -0.156 -0.148 -0.199 -0.566 -0.152 c -0.254 0.031 -0.367 0.023 -0.367 -0.023 c 0 -0.039 0.055 -0.07 0.117 -0.07 c 0.063 0 0.117 -0.031 0.117 -0.07 c 0 -0.035 0.078 -0.148 0.18 -0.246 c 0.105 -0.109 0.164 -0.215 0.145 -0.27 c -0.02 -0.051 -0.035 -0.203 -0.035 -0.336 c 0 -0.133 -0.023 -0.227 -0.051 -0.207 c -0.055 0.035 -0.121 -0.16 -0.121 -0.375 c 0 -0.078 -0.023 -0.137 -0.055 -0.137 c -0.027 0 -0.063 -0.055 -0.078 -0.125 c -0.02 -0.066 -0.023 -0.121 -0.016 -0.121 c 0.063 0 0.73 0.703 0.73 0.77 c 0 0.086 0.156 0.109 0.313 0.047 c 0.051 -0.02 0.082 -0.059 0.066 -0.086 c -0.031 -0.051 0.469 -0.609 0.547 -0.609 c 0.055 0 -0.051 0.438 -0.117 0.488 c -0.02 0.016 -0.059 0.172 -0.078 0.344 c -0.035 0.25 -0.023 0.328 0.055 0.395 c 0.051 0.047 0.145 0.133 0.207 0.191 c 0.063 0.059 0.152 0.105 0.199 0.105 c 0.051 0 0.09 0.027 0.09 0.063 c 0 0.031 0.141 0.156 0.32 0.273 c 0.176 0.117 0.32 0.223 0.32 0.234 c 0 0.051 -0.566 -0.051 -0.672 -0.117 c -0.063 -0.043 -0.262 -0.086 -0.438 -0.098 l -0.32 -0.023 l -0.047 0.352 c -0.035 0.223 -0.082 0.352 -0.129 0.352 c -0.043 0 -0.086 0.059 -0.098 0.137 c -0.016 0.121 -0.023 0.125 -0.059 0.023"/><path d="m 7.676 5.977 c -0.02 -0.074 -0.082 -0.195 -0.133 -0.266 c -0.051 -0.07 -0.133 -0.191 -0.18 -0.266 c -0.234 -0.359 -0.195 -0.344 -0.535 -0.195 c -0.418 0.18 -0.438 0.172 -0.195 -0.082 c 0.113 -0.117 0.203 -0.277 0.203 -0.352 c 0 -0.148 -0.262 -0.59 -0.352 -0.59 c -0.031 0 -0.055 -0.039 -0.055 -0.09 c 0 -0.137 0.09 -0.109 0.301 0.09 c 0.195 0.188 0.445 0.242 0.48 0.109 c 0.012 -0.043 0.051 -0.195 0.086 -0.336 c 0.07 -0.266 0.211 -0.375 0.148 -0.113 c -0.023 0.09 0.012 0.262 0.082 0.43 l 0.121 0.285 l 0.539 -0.012 c 0.645 -0.016 0.77 0.078 0.195 0.137 c -0.227 0.023 -0.418 0.07 -0.43 0.105 c -0.012 0.035 -0.098 0.066 -0.188 0.066 c -0.172 0 -0.172 0 -0.172 0.363 c 0 0.25 0.035 0.43 0.117 0.578 c 0.133 0.246 0.137 0.273 0.063 0.273 c -0.031 0 -0.074 -0.063 -0.098 -0.137"/><path d="m 8.934 6.852 c 0 -0.09 0.043 -0.152 0.117 -0.172 c 0.082 -0.023 0.113 -0.082 0.113 -0.203 c 0 -0.098 0.027 -0.191 0.059 -0.211 c 0.035 -0.02 0.059 -0.082 0.059 -0.141 c 0 -0.055 0.043 -0.18 0.09 -0.277 c 0.129 -0.262 0.113 -0.309 -0.234 -0.582 c -0.176 -0.137 -0.32 -0.277 -0.32 -0.305 c 0 -0.031 -0.047 -0.066 -0.102 -0.082 c -0.055 -0.012 0.105 -0.012 0.359 0.004 c 0.34 0.023 0.449 0.016 0.418 -0.039 c -0.027 -0.043 0.008 -0.07 0.105 -0.07 c 0.094 0 0.152 -0.031 0.152 -0.09 c 0 -0.051 0.051 -0.145 0.113 -0.211 c 0.066 -0.07 0.117 -0.164 0.117 -0.215 c 0 -0.047 0.055 -0.18 0.117 -0.289 l 0.117 -0.199 v 0.246 c 0 0.133 0.016 0.387 0.035 0.563 l 0.039 0.316 h 0.516 c 0.305 0 0.516 0.027 0.516 0.063 c 0 0.035 -0.023 0.063 -0.055 0.063 c -0.027 0 -0.156 0.094 -0.289 0.207 c -0.129 0.113 -0.266 0.219 -0.301 0.23 c -0.102 0.035 -0.078 0.578 0.027 0.691 c 0.051 0.051 0.094 0.148 0.094 0.211 c 0 0.066 0.02 0.121 0.043 0.121 c 0.059 0 0.195 0.316 0.156 0.359 c -0.02 0.02 -0.066 -0.016 -0.109 -0.074 c -0.039 -0.059 -0.117 -0.105 -0.168 -0.105 c -0.055 0 -0.098 -0.043 -0.098 -0.094 c 0 -0.051 -0.02 -0.082 -0.047 -0.066 c -0.023 0.016 -0.133 -0.063 -0.238 -0.18 c -0.133 -0.141 -0.25 -0.207 -0.363 -0.207 c -0.176 0 -0.398 0.16 -0.398 0.289 c 0 0.043 -0.031 0.078 -0.07 0.078 c -0.039 0 -0.184 0.113 -0.32 0.254 c -0.23 0.234 -0.25 0.246 -0.25 0.117"/></g></svg>