<svg xmlns="http://www.w3.org/2000/svg" viewBox="0 0 16 16" xmlns:xlink="http://www.w3.org/1999/xlink"><defs><linearGradient id="8" gradientUnits="userSpaceOnUse" x1="203.72" y1="488.96" x2="172.88" y2="485.09" gradientTransform="matrix(0.20116 0 0 0.20243 -29.671 -90.57)"><stop stop-color="#fff" stop-opacity="0.671"/><stop offset="1" stop-color="#fff" stop-opacity="0"/></linearGradient><linearGradient id="7" gradientUnits="userSpaceOnUse" x1="180.01" x2="208.82"><stop stop-color="#f4debb"/><stop offset="1" stop-color="#f4debb" stop-opacity="0"/></linearGradient><linearGradient id="9" gradientUnits="userSpaceOnUse" x1="-197.03" x2="-193.02" gradientTransform="matrix(-0.20116 0 0 0.20243 -29.671 -90.57)"><stop stop-color="#ca7f03"/><stop offset="1" stop-color="#ca7f03" stop-opacity="0"/></linearGradient><linearGradient id="B" gradientUnits="userSpaceOnUse" y1="3" x2="0" y2="45"><stop stop-color="#ededec"/><stop offset="1" stop-color="#b9bcb5"/></linearGradient><linearGradient id="A" gradientUnits="userSpaceOnUse" x1="-27.669" y1="13.13" x2="-24.331" y2="25.588" gradientTransform="matrix(0.20033 0 0 0.18463 15.15 6.773)"><stop stop-color="#000" stop-opacity="0.095"/><stop offset="1" stop-color="#000" stop-opacity="0.094"/></linearGradient><linearGradient id="6" gradientUnits="userSpaceOnUse" x1="197.72" y1="491.69" x2="199.08" y2="484.58" gradientTransform="matrix(0.95865 0 0 1 6.807 -0.394)"><stop stop-color="#fff"/><stop offset="1" stop-color="#fff" stop-opacity="0"/></linearGradient><linearGradient id="C" gradientUnits="userSpaceOnUse" y1="0" x2="0" y2="48" xlink:href="#6"/><linearGradient id="1" gradientUnits="userSpaceOnUse" x1="192.79" x2="194" gradientTransform="matrix(-0.13372 0 0 -0.20243 36.84 -90.57)"><stop stop-color="#3464a3"/><stop offset="1" stop-color="#ededec"/></linearGradient><linearGradient id="2" gradientUnits="userSpaceOnUse" x1="165.25" y1="501.55" x2="166.46" y2="485.46"><stop stop-color="#5b3901"/><stop offset="1" stop-color="#8e5902"/></linearGradient><linearGradient id="4" gradientUnits="userSpaceOnUse" x1="200.55" x2="204.91"><stop stop-color="#ecc384"/><stop offset="1" stop-color="#b97c1b"/></linearGradient><linearGradient id="5" gradientUnits="userSpaceOnUse" x1="199.03" y1="487.27" x2="196.78" y2="481.71"><stop stop-color="#8e5902"/><stop offset="1" stop-color="#d18202"/></linearGradient><linearGradient id="3" gradientUnits="userSpaceOnUse" x1="196.87" x2="205.93"><stop stop-color="#d48e20"/><stop offset="1" stop-color="#8e5902"/></linearGradient><radialGradient id="0" gradientUnits="userSpaceOnUse" cx="178.58" cy="476.69" r="19.576" gradientTransform="matrix(0.29129 0 0 0.27664 -45.799 -125.99)"><stop stop-color="#f4d1be"/><stop offset="1" stop-color="#e2a23f"/></radialGradient></defs><path d="m 2.914 2.414 c -12.508 16.578 21.91 18.934 10.867 2.01 c -2.52 -3.855 -7.555 -6.402 -10.867 -2.01" fill="#deb886"/><path d="m 4.25 4.367 l 6.715 0.078 l 0.602 6.477 c 0 0 -7.352 1.188 -7.852 0.871 c -0.152 -0.492 0.535 -7.426 0.535 -7.426" fill="url(#0)"/><path d="m 4.316 4.441 h 0.207 l -0.395 6.766 l -0.078 0.754 l -0.43 -0.523 c 0 0 0.695 -6.996 0.695 -6.996" fill="#f4debb"/><path d="m 4.473 11.04 c -0.379 0.059 -0.449 0.254 -0.449 0.496 c 0 0.238 0.07 0.434 0.449 0.488 l 7.207 0.023 v -0.004 c -0.484 0 -0.668 -0.227 -0.668 -0.508 c 0 -0.285 0.184 -0.516 0.668 -0.516 h -6.988" fill="#fff"/><path d="m 170.6 507.27 c -1.476 0 -2.661 -1.129 -2.661 -2.511 c 0 -1.402 1.185 -2.531 2.661 -2.531" transform="matrix(0.18788 0 0 0.20065 -20.487 -89.75)" fill="none" stroke="#3464a3" stroke-linecap="round" stroke-width="1.039"/><path d="m 11.06 11.73 h -1.27 c -0.055 0 -0.102 -0.043 -0.102 -0.102 c 0 -0.055 0.047 -0.102 0.102 -0.102 h 1.27 c 0.059 0 0.102 0.047 0.102 0.102 c 0 0.059 -0.043 0.102 -0.102 0.102" fill="url(#1)"/><g fill="none" stroke-linecap="round"><path d="m 168.43 468.87 l -2.952 34.619" transform="matrix(0.20116 0 0 0.20243 -29.671 -90.57)" stroke="url(#2)"/><g transform="matrix(0.20116 0 0 0.20243 -29.671 -90.57)"><path d="m 168.43 468.87 h 34" stroke="#8e5902"/><path d="m 169.72 501.86 l 35.711 0.039" stroke="url(#3)"/></g></g><path d="m 4.324 10.922 l -0.402 0.203" fill="#f2d6aa"/><g fill="none" stroke-linecap="round"><path d="m 170.61 507.27 c -1.476 0 -2.682 -1.129 -2.682 -2.511 c 0 -1.402 1.206 -2.531 2.682 -2.531" transform="matrix(0.18788 0 0 0.20065 -27.527 -89.75)" stroke="#d48e20" stroke-width="1.039"/><g stroke="#5b3901"><path d="m 170.61 507.27 c -1.47 0 -2.672 -1.126 -2.672 -2.516 c 0 -0.083 0 -0.167 0.015 -0.25" transform="matrix(0.26312 0 0 0.28101 -40.565 -130.51)" stroke-width="0.742"/><path d="m 168.96 506.88 h 36" transform="matrix(0.20116 0 0 0.20243 -29.671 -90.57)"/></g><path d="m 202.47 468.85 l 2.971 33.08" transform="matrix(0.20116 0 0 0.20243 -29.671 -90.57)" stroke="#8e5902"/></g><path d="m 202.65 479.9 c 0.893 -0.019 1.981 0.791 2.058 1.775 c 0 0 0.816 7.179 0.816 7.179 c 0 1.389 -1.981 1.428 -1.981 -0.193 c 0 0 -0.019 -0.289 -0.019 -0.289 c -0.019 -0.714 -0.971 -1.486 -2 -1.486 h -7.865 c -1.767 0 -3.185 -1.409 -3.185 -3.165 c 0 -2.181 1.243 -3.821 2.952 -3.821" transform="matrix(0.20116 0 0 0.20243 -29.671 -90.57)" fill="url(#4)" stroke="url(#5)"/><path d="m 191.54 484.34 c 0 0 0.544 1.563 1.748 1.505 l 8.117 0.019 c 0 0 3.107 0 3.107 2.972" transform="matrix(0.20116 0 0 0.20243 -29.671 -90.57)" fill="none" stroke="url(#6)" stroke-linecap="round"/><g fill="#ededec"><path d="m 8.648 11.527 h -2.574 c -0.059 0 -0.102 -0.043 -0.102 -0.102 c 0 -0.055 0.043 -0.102 0.102 -0.102 h 2.574 c 0.059 0 0.102 0.047 0.102 0.102 c 0 0.059 -0.043 0.102 -0.102 0.102"/><path d="m 5.293 11.73 h -1.031 c -0.055 0 -0.102 -0.043 -0.102 -0.102 c 0 -0.055 0.047 -0.102 0.102 -0.102 h 1.031 c 0.055 0 0.102 0.047 0.102 0.102 c 0 0.059 -0.047 0.102 -0.102 0.102"/></g><g stroke-linecap="round"><path d="m 169.72 500.86 l 34.721 0.039" transform="matrix(0.20116 0 0 0.20243 -29.671 -90.57)" fill="#f4debb" stroke="url(#7)"/><path d="m 168.03 504.15 c 0.297 -1.126 1.366 -1.918 2.583 -1.918" transform="matrix(0.26312 0 0 0.28101 -40.36 -130.31)" fill="none" stroke="#f4debb" stroke-width="0.742"/></g><path d="m 4.25 4.367 l 2.891 0.078 l -2.01 6.477 c 0 0 -0.914 1.188 -1.414 0.871 c -0.152 -0.492 0.535 -7.426 0.535 -7.426" fill="url(#8)"/><path d="m 9.66 6.879 h -0.199 c -0.168 0 -0.305 0.137 -0.305 0.305 c 0 0.164 0.137 0.301 0.305 0.301 h 0.199 c 0.168 0 0.305 -0.137 0.305 -0.301 c 0 -0.168 -0.137 -0.305 -0.305 -0.305" fill="url(#9)"/><path d="m 9.461 6.68 h 0.199 c 0.168 0 0.305 0.133 0.305 0.301 c 0 0.168 -0.137 0.301 -0.305 0.301 h -0.199 c -0.168 0 -0.305 -0.133 -0.305 -0.301 c 0 -0.168 0.137 -0.301 0.305 -0.301" fill="#faeddc"/><g fill-rule="evenodd"><path d="m 7.727 8.852 c -0.18 0 -0.344 0.148 -0.344 0.316 v 4.07 c 0 0.168 0.164 0.32 0.344 0.32 h 1.418 c 0.18 0 0.344 -0.152 0.344 -0.32 v -4.07 c 0 -0.168 -0.164 -0.316 -0.344 -0.316 m 1.59 0 c -0.184 0 -0.344 0.148 -0.344 0.316 v 4.07 c 0 0.168 0.16 0.32 0.344 0.32 h 1.414 c 0.18 0 0.344 -0.152 0.344 -0.32 v -4.07 c 0 -0.168 -0.164 -0.316 -0.344 -0.316" fill="url(#A)"/><g fill="url(#B)" stroke="#878985" stroke-linejoin="round" stroke-linecap="round"><path d="m -46.02 3.513 h 14.03 c 0.269 0 0.505 0.183 0.505 0.475 v 40.05 c 0 0.256 -0.236 0.475 -0.505 0.475 h -14.03 c -0.269 0 -0.471 -0.219 -0.471 -0.475 v -40.05 c 0 -0.292 0.202 -0.475 0.471 -0.475" transform="matrix(0.1161 0 0 0.107 12.957 8.636)"/><path d="m -20.01 3.513 h 14.03 c 0.269 0 0.471 0.183 0.471 0.475 v 40.05 c 0 0.256 -0.202 0.475 -0.471 0.475 h -14.03 c -0.269 0 -0.471 -0.219 -0.471 -0.475 v -40.05 c 0 -0.292 0.202 -0.475 0.471 -0.475" transform="matrix(0.1161 0 0 0.107 12.957 8.636)"/></g></g><g fill="none" stroke="url(#C)" stroke-linecap="round"><path d="m -45.48 4.498 h 12.987 v 38.988 h -12.987" transform="matrix(0.1161 0 0 0.107 12.957 8.636)"/><path d="m -19.51 4.498 h 13.02 v 38.988 h -13.02" transform="matrix(0.1161 0 0 0.107 12.957 8.636)"/></g></svg>