<svg xmlns="http://www.w3.org/2000/svg" viewBox="0 0 16 16"><path d="m 1.391 12.664 c 3.02 5.445 12.5 3.332 14.1 -1.148 c 1.91 -5.344 -3.063 -15.484 -11.48 -9.543 c -2.836 2.074 -5.645 5.246 -2.621 10.691" fill="#dcdcdc"/><path d="m 8.281 14.262 c -0.035 -0.023 -0.188 -0.16 -0.34 -0.297 c -0.773 -0.727 -1.578 -1.121 -2.766 -1.355 c -0.199 -0.039 -0.402 -0.063 -0.445 -0.051 c -0.043 0.012 -0.133 -0.008 -0.199 -0.039 c -0.125 -0.063 -0.121 -0.047 -0.195 -0.613 c -0.09 -0.656 -0.305 -1.289 -0.652 -1.926 c -0.211 -0.383 -0.617 -0.969 -0.77 -1.113 c -0.113 -0.102 -0.125 -0.188 -0.043 -0.258 c 0.031 -0.023 0.18 -0.254 0.332 -0.512 c 0.652 -1.121 0.887 -1.684 1.102 -2.625 c 0.109 -0.496 0.141 -0.559 0.266 -0.559 c 0.035 0 0.316 -0.086 0.629 -0.191 c 1.336 -0.449 2.133 -0.824 2.797 -1.316 c 0.254 -0.188 0.422 -0.211 0.555 -0.074 c 0.047 0.047 0.07 0.098 0.055 0.113 c -0.012 0.016 0 0.016 0.035 0.004 c 0.031 -0.012 0.082 0.008 0.109 0.043 c 0.047 0.055 0.047 0.059 0.004 0.031 c -0.039 -0.02 -0.047 -0.016 -0.027 0.016 c 0.016 0.023 0.043 0.031 0.059 0.023 c 0.016 -0.012 0.184 0.074 0.367 0.188 c 0.449 0.273 1.199 0.637 1.668 0.809 c 0.484 0.176 1.195 0.391 1.297 0.391 c 0.09 0 0.207 0.105 0.207 0.184 c 0 0.027 -0.031 0.07 -0.066 0.094 c -0.063 0.043 -0.059 0.074 0.063 0.449 c 0.254 0.809 0.57 1.535 1.098 2.508 c 0.266 0.488 0.391 0.574 0.145 0.098 c -0.098 -0.184 -0.164 -0.336 -0.156 -0.336 c 0.012 0 0.098 0.148 0.191 0.332 c 0.094 0.18 0.188 0.34 0.207 0.352 c 0.051 0.031 0.051 0.23 0.004 0.262 c -0.078 0.047 -0.438 0.594 -0.672 1.031 c -0.133 0.246 -0.242 0.434 -0.242 0.418 c 0 -0.059 0.391 -0.77 0.57 -1.039 c 0.242 -0.363 0.32 -0.527 0.285 -0.605 c -0.027 -0.063 -0.031 -0.063 -0.047 0 c -0.008 0.035 -0.125 0.223 -0.258 0.418 c -0.52 0.754 -0.898 1.602 -1.141 2.547 l -0.145 0.555 l 0.086 0.066 c 0.121 0.094 0.094 0.266 -0.043 0.281 c -0.059 0.008 -0.137 -0.004 -0.176 -0.023 c -0.051 -0.027 -0.168 -0.02 -0.41 0.027 c -0.699 0.141 -1.492 0.453 -2.172 0.859 c -0.344 0.203 -1.078 0.734 -1.078 0.777 c 0 0.051 0.063 0.039 0.113 -0.023 c 0.027 -0.031 0.063 -0.055 0.082 -0.055 c 0.02 0 0.141 -0.082 0.273 -0.18 c 0.441 -0.332 1.449 -0.934 1.566 -0.93 c 0.02 0 -0.105 0.074 -0.285 0.168 c -0.574 0.301 -1.387 0.84 -1.574 1.047 c -0.082 0.086 -0.16 0.098 -0.262 0.031 m 1.074 -0.91 c 0.438 -0.262 1.012 -0.531 1.441 -0.668 c 0.398 -0.133 0.953 -0.258 1.129 -0.258 c 0.117 -0.004 0.117 -0.004 0.168 -0.285 c 0.078 -0.465 0.207 -0.91 0.477 -1.66 c 0.023 -0.059 0.02 -0.063 -0.016 -0.02 c -0.094 0.125 -0.363 1.012 -0.516 1.695 c -0.012 0.043 -0.043 0.082 -0.066 0.082 c -0.027 0 -0.219 -0.164 -0.422 -0.363 l -0.375 -0.367 l 0.027 -0.16 c 0.051 -0.297 0.309 -1.012 0.512 -1.402 c 0.109 -0.215 0.32 -0.57 0.469 -0.789 l 0.27 -0.395 h 0.508 c 0.297 0 0.504 0.012 0.504 0.035 c 0 0.02 -0.094 0.18 -0.211 0.352 c -0.215 0.316 -0.664 1.148 -0.664 1.219 c 0 0.023 0.113 -0.172 0.246 -0.434 c 0.137 -0.262 0.359 -0.641 0.496 -0.84 l 0.25 -0.367 l -0.32 -0.602 c -0.543 -1.012 -1.016 -2.164 -1.168 -2.852 c -0.047 -0.207 -0.055 -0.215 -0.203 -0.254 c -1.27 -0.324 -2.59 -0.91 -3.379 -1.504 c -0.16 -0.117 -0.246 -0.16 -0.277 -0.137 c -0.82 0.563 -1.191 0.766 -1.957 1.066 c -0.609 0.238 -1.613 0.578 -1.711 0.578 c -0.055 0 -0.074 0.039 -0.098 0.176 c -0.09 0.598 -0.398 1.527 -0.703 2.117 c -0.223 0.43 -0.762 1.344 -0.813 1.379 c -0.031 0.016 -0.023 0.039 0.02 0.074 c 0.09 0.066 0.449 0.559 0.633 0.859 c 0.211 0.348 0.254 0.402 0.16 0.211 c -0.094 -0.188 -0.301 -0.504 -0.5 -0.773 c -0.23 -0.301 -0.227 -0.305 0.34 -0.305 h 0.488 l 0.191 0.25 c 0.535 0.688 0.844 1.344 1.023 2.184 l 0.066 0.309 l -0.375 0.367 c -0.207 0.203 -0.398 0.367 -0.422 0.367 c -0.023 0 -0.063 -0.125 -0.09 -0.305 c -0.047 -0.336 -0.191 -0.926 -0.215 -0.902 c -0.012 0.008 0.012 0.121 0.047 0.25 c 0.031 0.129 0.09 0.438 0.125 0.68 l 0.066 0.445 l 0.262 0.027 c 0.359 0.039 1.082 0.199 1.406 0.313 c 0.637 0.219 1.273 0.613 1.816 1.113 l 0.273 0.254 l 0.383 -0.281 c 0.211 -0.156 0.527 -0.371 0.703 -0.477 m -1.063 0.047 v -0.574 l 0.141 -0.133 c 0.172 -0.156 0.754 -0.539 1 -0.664 c 0.434 -0.215 1.07 -0.41 1.535 -0.473 c 0.145 -0.02 0.152 -0.016 0.539 0.355 c 0.219 0.207 0.395 0.395 0.395 0.414 c 0 0.023 -0.148 0.07 -0.328 0.105 c -0.961 0.195 -1.898 0.621 -2.828 1.285 c -0.199 0.141 -0.383 0.258 -0.41 0.258 c -0.035 0 -0.047 -0.133 -0.047 -0.574 m 0.742 -0.008 c 0.727 -0.48 1.664 -0.883 2.422 -1.039 l 0.297 -0.063 l -0.34 -0.328 l -0.336 -0.328 l -0.32 0.063 c -0.645 0.129 -1.215 0.359 -1.777 0.723 c -0.352 0.23 -0.438 0.309 -0.418 0.371 c 0.008 0.02 0.148 -0.063 0.313 -0.18 c 0.297 -0.215 0.773 -0.496 0.918 -0.543 c 0.043 -0.012 -0.051 0.047 -0.207 0.133 c -0.355 0.191 -0.855 0.539 -0.973 0.672 c -0.047 0.059 -0.113 0.102 -0.148 0.102 c -0.051 0 -0.059 0.066 -0.059 0.434 v 0.43 l 0.125 -0.098 c 0.066 -0.055 0.293 -0.207 0.504 -0.348 m 0.969 -1.414 c 0.031 -0.02 0.074 -0.039 0.094 -0.039 c 0.023 0 0.012 0.02 -0.02 0.039 c -0.031 0.02 -0.074 0.035 -0.094 0.035 c -0.02 0 -0.012 -0.016 0.02 -0.035 m -1.523 0.863 c 0 -0.031 -0.016 -0.043 -0.035 -0.031 c -0.023 0.012 -0.039 0.047 -0.039 0.078 c 0 0.031 0.016 0.043 0.039 0.031 c 0.02 -0.012 0.035 -0.047 0.035 -0.078 m -0.496 0.965 c -0.223 -0.23 -0.836 -0.656 -1.199 -0.84 c -0.191 -0.094 -0.504 -0.227 -0.699 -0.289 c -0.344 -0.113 -1.156 -0.293 -1.32 -0.293 c -0.176 0 -0.129 -0.09 0.238 -0.449 c 0.434 -0.422 0.391 -0.41 1.027 -0.289 c 0.492 0.094 0.926 0.242 1.238 0.426 c 0.227 0.137 0.676 0.469 0.879 0.656 l 0.105 0.098 v 0.555 c 0 0.512 -0.004 0.559 -0.07 0.559 c -0.035 0 -0.125 -0.063 -0.199 -0.133 m 0.148 -0.488 l 0.004 -0.473 l -0.242 -0.195 c -0.602 -0.484 -0.98 -0.676 -1.637 -0.84 c -0.656 -0.16 -0.594 -0.168 -0.969 0.176 l -0.324 0.305 l 0.277 -0.281 c 0.191 -0.191 0.266 -0.293 0.234 -0.309 c -0.031 -0.02 -0.156 0.078 -0.355 0.27 c -0.203 0.199 -0.289 0.305 -0.25 0.316 c 0.031 0.008 0.246 0.051 0.48 0.094 c 0.234 0.043 0.594 0.129 0.797 0.191 c 0.398 0.121 1.07 0.426 1.23 0.555 c 0.051 0.043 0.07 0.066 0.043 0.051 c -0.035 -0.02 -0.047 -0.016 -0.027 0.016 c 0.016 0.023 0.043 0.031 0.066 0.02 c 0.035 -0.02 0.574 0.355 0.629 0.438 c 0.035 0.059 -0.055 0 -0.273 -0.176 c -0.105 -0.082 -0.215 -0.168 -0.25 -0.188 c -0.031 -0.02 0.004 0.016 0.078 0.078 c 0.074 0.059 0.211 0.18 0.305 0.266 c 0.094 0.086 0.176 0.156 0.176 0.156 c 0.004 0.004 0.008 -0.211 0.012 -0.469 m -0.187 -0.809 c -0.695 -0.563 -1.223 -0.801 -2.105 -0.941 c -0.219 -0.039 -0.289 -0.063 -0.289 -0.109 c 0 -0.031 0.168 -0.223 0.375 -0.422 l 0.379 -0.367 l 0.281 0.023 c 0.59 0.051 1.156 0.301 1.508 0.672 l 0.156 0.168 v 0.574 c 0 0.434 -0.012 0.574 -0.047 0.574 c -0.027 0 -0.145 -0.078 -0.258 -0.172 m 0.187 -0.488 l 0.008 -0.477 l -0.184 -0.164 c -0.102 -0.094 -0.262 -0.211 -0.359 -0.266 c -0.203 -0.117 -0.648 -0.27 -0.887 -0.305 l -0.168 -0.023 l -0.355 0.324 c -0.332 0.309 -0.34 0.313 -0.078 0.051 c 0.281 -0.281 0.316 -0.332 0.227 -0.332 c -0.078 0 -0.656 0.586 -0.594 0.605 c 0.031 0.012 0.176 0.039 0.32 0.063 c 0.578 0.098 1.301 0.363 1.559 0.57 c 0.043 0.035 0.055 0.051 0.023 0.035 c -0.035 -0.02 -0.043 -0.012 -0.023 0.016 c 0.012 0.023 0.043 0.035 0.063 0.023 c 0.039 -0.023 0.426 0.242 0.398 0.27 c -0.012 0.012 -0.102 -0.047 -0.199 -0.121 l -0.184 -0.141 l 0.191 0.172 c 0.102 0.094 0.199 0.172 0.211 0.172 c 0.016 0 0.027 -0.211 0.031 -0.473 m 0.156 0.09 v -0.574 l 0.176 -0.145 c 0.402 -0.336 0.957 -0.586 1.492 -0.672 l 0.281 -0.047 l 0.375 0.363 c 0.363 0.352 0.43 0.449 0.328 0.473 c -0.027 0.008 -0.207 0.051 -0.398 0.094 c -0.664 0.145 -1.305 0.445 -1.898 0.879 c -0.148 0.109 -0.289 0.199 -0.313 0.199 c -0.031 0 -0.043 -0.176 -0.043 -0.57 m 0.445 0.176 c 0.527 -0.367 1.383 -0.738 1.887 -0.809 c 0.098 -0.016 0.188 -0.039 0.195 -0.055 c 0.008 -0.016 -0.125 -0.164 -0.301 -0.332 l -0.316 -0.309 l -0.188 0.027 c -0.457 0.063 -1.023 0.301 -1.344 0.57 c -0.215 0.176 -0.102 0.172 0.16 -0.008 c 0.133 -0.09 0.301 -0.191 0.371 -0.223 c 0.145 -0.066 0.113 -0.043 -0.223 0.168 c -0.121 0.078 -0.289 0.199 -0.367 0.27 c -0.082 0.07 -0.16 0.129 -0.176 0.129 c -0.02 0 -0.031 0.176 -0.031 0.391 c 0 0.215 0.008 0.387 0.016 0.387 c 0.012 0 0.152 -0.094 0.313 -0.207 m 0.738 -1.273 c 0.031 -0.02 0.074 -0.035 0.094 -0.035 c 0.02 0 0.012 0.016 -0.02 0.035 c -0.031 0.02 -0.074 0.039 -0.094 0.039 c -0.023 0 -0.012 -0.02 0.02 -0.039 m -0.992 0.555 c 0 -0.02 -0.016 -0.035 -0.035 -0.035 c -0.023 0 -0.039 0.027 -0.039 0.059 c 0 0.031 0.016 0.047 0.039 0.035 c 0.02 -0.016 0.035 -0.039 0.035 -0.059 m -3.102 -0.285 c -0.203 -0.871 -0.492 -1.531 -0.934 -2.133 c -0.121 -0.164 -0.223 -0.32 -0.223 -0.348 c 0 -0.035 0.141 -0.043 0.59 -0.043 h 0.59 l 0.211 0.313 c 0.258 0.383 0.484 0.848 0.563 1.152 c 0.105 0.395 0.105 0.398 -0.309 0.801 c -0.207 0.199 -0.395 0.359 -0.418 0.359 c -0.027 0 -0.059 -0.047 -0.07 -0.102 m 0.707 -0.988 c -0.086 -0.328 -0.316 -0.797 -0.586 -1.195 l -0.184 -0.266 h -0.469 c -0.262 0 -0.473 0.008 -0.473 0.02 c 0 0.008 0.09 0.148 0.203 0.305 c 0.363 0.504 0.684 1.219 0.863 1.93 l 0.043 0.16 l 0.34 -0.328 l 0.34 -0.332 m -0.852 -0.258 c -0.039 -0.094 -0.027 -0.117 0.016 -0.043 c 0.023 0.039 0.035 0.074 0.023 0.086 c -0.008 0.008 -0.027 -0.012 -0.039 -0.043 m -0.094 -0.223 c -0.066 -0.137 -0.055 -0.164 0.016 -0.043 c 0.031 0.059 0.051 0.113 0.043 0.121 c -0.008 0.008 -0.035 -0.027 -0.059 -0.078 m -0.137 -0.301 c -0.023 -0.055 -0.02 -0.059 0.02 -0.023 c 0.027 0.027 0.039 0.055 0.027 0.066 c -0.012 0.012 -0.035 -0.008 -0.047 -0.043 m -0.16 -0.262 c -0.055 -0.098 -0.156 -0.25 -0.223 -0.344 c -0.145 -0.195 -0.184 -0.258 -0.16 -0.258 c 0.023 0 0.387 0.516 0.457 0.656 c 0.098 0.184 0.047 0.145 -0.074 -0.055 m 3.363 1.629 l -0.008 -0.215 l -0.012 0.195 c -0.02 0.246 -0.07 0.25 -0.324 0.027 c -0.332 -0.289 -0.965 -0.535 -1.391 -0.535 c -0.07 0 -0.121 -0.02 -0.121 -0.047 c 0 -0.023 0.098 -0.145 0.219 -0.262 c 0.117 -0.121 0.184 -0.203 0.141 -0.18 c -0.043 0.02 -0.152 0.113 -0.246 0.207 c -0.094 0.094 -0.188 0.168 -0.211 0.168 c -0.023 0 -0.066 -0.094 -0.094 -0.211 c -0.07 -0.313 -0.242 -0.699 -0.496 -1.109 c -0.125 -0.199 -0.227 -0.383 -0.227 -0.41 c 0 -0.031 0.098 -0.043 0.359 -0.043 c 0.199 0 0.367 -0.02 0.383 -0.039 c 0.016 -0.023 -0.113 -0.035 -0.359 -0.035 c -0.438 0 -0.441 -0.004 -0.285 -0.277 c 0.055 -0.094 0.094 -0.18 0.086 -0.188 c -0.008 -0.008 -0.074 0.094 -0.145 0.227 l -0.129 0.238 h -0.621 c -0.379 0 -0.621 -0.016 -0.621 -0.039 c 0 -0.02 0.09 -0.164 0.195 -0.32 c 0.391 -0.563 0.809 -1.477 0.984 -2.148 c 0.023 -0.086 0.063 -0.156 0.086 -0.156 c 0.023 0 0.141 0.086 0.254 0.191 l 0.211 0.195 l -0.184 -0.191 c -0.109 -0.109 -0.18 -0.215 -0.172 -0.254 c 0.008 -0.043 0.164 -0.113 0.527 -0.238 c 0.824 -0.281 1.461 -0.57 1.891 -0.855 c 0.273 -0.184 0.277 -0.18 0.277 0.426 v 0.535 l -0.152 0.117 c -0.086 0.066 -0.289 0.191 -0.449 0.281 c -0.16 0.09 -0.277 0.16 -0.262 0.16 c 0.051 0 0.258 -0.109 0.531 -0.281 c 0.141 -0.09 0.277 -0.16 0.297 -0.16 c 0.027 0 0.035 0.188 0.027 0.531 c -0.008 0.293 0 0.527 0.016 0.516 c 0.016 -0.008 0.031 -0.242 0.031 -0.516 c 0 -0.578 -0.004 -0.574 0.336 -0.352 c 0.223 0.148 0.438 0.262 0.488 0.262 c 0.012 0 -0.074 -0.059 -0.199 -0.133 c -0.125 -0.07 -0.316 -0.195 -0.426 -0.277 l -0.199 -0.145 v -0.535 c 0 -0.383 0.012 -0.535 0.043 -0.535 c 0.023 0 0.18 0.082 0.348 0.188 c 0.672 0.41 1.34 0.711 1.984 0.883 c 0.168 0.047 0.324 0.098 0.344 0.117 c 0.023 0.02 -0.055 0.121 -0.199 0.266 c -0.133 0.125 -0.238 0.246 -0.238 0.266 c 0 0.02 0.109 -0.07 0.242 -0.199 c 0.137 -0.129 0.266 -0.23 0.289 -0.219 c 0.023 0.008 0.121 0.234 0.215 0.508 c 0.199 0.582 0.488 1.176 0.809 1.672 c 0.129 0.199 0.234 0.379 0.234 0.398 c 0 0.027 -0.199 0.043 -0.621 0.043 h -0.621 l -0.207 -0.355 c -0.113 -0.191 -0.23 -0.379 -0.254 -0.414 c -0.078 -0.098 0.098 0.242 0.242 0.477 c 0.07 0.113 0.129 0.227 0.129 0.25 c 0 0.027 -0.148 0.043 -0.473 0.043 c -0.277 0 -0.484 0.016 -0.496 0.035 c -0.016 0.023 0.148 0.039 0.473 0.039 c 0.352 0 0.496 0.012 0.496 0.043 c 0 0.023 -0.078 0.168 -0.168 0.32 c -0.219 0.367 -0.379 0.711 -0.5 1.098 c -0.059 0.172 -0.121 0.313 -0.145 0.313 c -0.074 0 -0.785 -0.719 -0.785 -0.789 c 0 -0.059 -0.012 -0.063 -0.059 -0.023 c -0.066 0.055 -0.074 0.148 -0.008 0.148 c 0.063 0 0.75 0.668 0.75 0.73 c 0 0.023 -0.047 0.055 -0.102 0.066 c -0.617 0.125 -0.918 0.246 -1.371 0.555 c -0.32 0.219 -0.352 0.215 -0.359 -0.047 m 0.273 -0.031 c 0 -0.012 -0.016 -0.012 -0.039 0.004 c -0.02 0.012 -0.039 -0.004 -0.039 -0.035 c 0 -0.098 -0.059 -0.066 -0.066 0.035 c -0.008 0.082 0 0.09 0.07 0.055 c 0.039 -0.023 0.074 -0.051 0.074 -0.059 m -0.434 -0.105 c 0 -0.07 -0.016 -0.117 -0.039 -0.105 c -0.02 0.012 -0.023 -0.004 -0.012 -0.039 c 0.016 -0.035 0.008 -0.063 -0.012 -0.063 c -0.051 0 -0.047 0.086 0.012 0.145 c 0.039 0.039 0.035 0.047 -0.012 0.031 c -0.039 -0.012 -0.055 -0.063 -0.047 -0.191 l 0.008 -0.172 l -0.09 0.066 c -0.109 0.074 -0.129 0.277 -0.023 0.242 c 0.031 -0.012 0.047 -0.008 0.031 0.008 c -0.027 0.031 0.109 0.203 0.16 0.203 c 0.012 0 0.023 -0.055 0.023 -0.125 m -0.141 -0.012 c -0.051 -0.063 -0.047 -0.063 0.023 -0.012 c 0.039 0.031 0.082 0.059 0.09 0.066 c 0.008 0.004 0 0.008 -0.023 0.008 c -0.02 0 -0.063 -0.027 -0.09 -0.063 m 1.703 -0.402 l 0.285 -0.063 l -0.531 -0.516 l -0.23 0.133 c -0.145 0.086 -0.234 0.168 -0.25 0.227 c -0.012 0.047 -0.102 0.148 -0.195 0.223 c -0.125 0.102 -0.168 0.164 -0.168 0.238 c 0 0.188 0.055 0.184 0.441 -0.004 c 0.199 -0.098 0.492 -0.203 0.648 -0.238 m -1.176 0.297 c -0.012 -0.008 -0.031 0.012 -0.047 0.047 c -0.02 0.055 -0.016 0.059 0.023 0.02 c 0.023 -0.023 0.035 -0.055 0.023 -0.066 m -0.043 -0.266 c -0.016 -0.012 -0.055 0.004 -0.09 0.039 c -0.035 0.035 -0.047 0.063 -0.023 0.063 c 0.023 0 0.035 0.035 0.023 0.082 c -0.012 0.059 0.004 0.043 0.047 -0.035 c 0.039 -0.066 0.055 -0.133 0.043 -0.148 m -0.754 0.027 c 0.086 -0.109 0.082 -0.184 -0.008 -0.184 c -0.086 0 -0.223 -0.172 -0.207 -0.262 c 0.008 -0.063 -0.016 -0.102 -0.09 -0.145 c -0.098 -0.055 -0.109 -0.051 -0.219 0.055 c -0.133 0.121 -0.133 0.172 0 0.203 c 0.063 0.016 0.094 0.051 0.102 0.113 c 0.008 0.09 0.008 0.09 -0.027 0.008 c -0.02 -0.047 -0.047 -0.086 -0.059 -0.086 c -0.039 0 -0.129 0.102 -0.109 0.121 c 0.012 0.012 0.004 0.031 -0.02 0.043 c -0.023 0.016 -0.051 -0.016 -0.063 -0.07 c -0.031 -0.113 -0.043 -0.113 -0.168 -0.008 l -0.098 0.082 l 0.094 -0.102 c 0.145 -0.16 0.047 -0.207 -0.109 -0.047 l -0.129 0.125 l 0.094 0.02 c 0.137 0.027 0.387 0.07 0.453 0.082 c 0.031 0.004 0.141 0.039 0.246 0.082 c 0.238 0.094 0.211 0.094 0.316 -0.031 m -0.602 -0.094 c 0 -0.023 0.023 -0.07 0.055 -0.113 c 0.031 -0.039 0.059 -0.051 0.059 -0.031 c 0 0.023 -0.023 0.07 -0.055 0.113 c -0.031 0.039 -0.059 0.051 -0.059 0.031 m 0.844 -0.023 c 0.012 -0.027 0.043 -0.023 0.094 0.008 c 0.051 0.031 0.07 0.074 0.059 0.133 c -0.008 0.051 0 0.09 0.023 0.09 c 0.023 0 0.031 -0.027 0.02 -0.063 c -0.012 -0.031 -0.004 -0.07 0.023 -0.086 c 0.035 -0.023 0.023 -0.047 -0.051 -0.094 c -0.055 -0.035 -0.09 -0.082 -0.074 -0.102 c 0.012 -0.02 -0.02 -0.008 -0.07 0.023 c -0.051 0.031 -0.105 0.047 -0.121 0.035 c -0.012 -0.016 -0.023 0.008 -0.023 0.051 c 0 0.043 -0.027 0.098 -0.059 0.121 c -0.031 0.023 -0.047 0.063 -0.035 0.078 c 0.02 0.031 0.191 -0.121 0.215 -0.195 m 0.93 -0.113 c 0.016 -0.023 0.008 -0.027 -0.023 -0.012 c -0.035 0.023 -0.039 0.008 -0.023 -0.043 c 0.023 -0.078 -0.07 -0.191 -0.121 -0.145 c -0.016 0.016 0 0.043 0.027 0.059 c 0.047 0.027 0.047 0.047 0.004 0.129 c -0.027 0.051 -0.066 0.086 -0.082 0.074 c -0.027 -0.02 -0.148 0.121 -0.148 0.176 c 0 0.035 0.332 -0.18 0.367 -0.238 m -0.289 -0.035 c 0 -0.039 -0.027 -0.078 -0.059 -0.09 c -0.031 -0.012 -0.059 -0.047 -0.059 -0.074 c 0 -0.027 -0.023 -0.051 -0.059 -0.051 c -0.031 0 -0.066 -0.023 -0.078 -0.055 c -0.012 -0.031 -0.047 -0.055 -0.074 -0.055 c -0.031 0 -0.043 -0.023 -0.031 -0.059 c 0.023 -0.059 0.129 -0.078 0.129 -0.02 c 0 0.016 0.035 0.023 0.078 0.012 c 0.039 -0.008 0.074 -0.031 0.074 -0.051 c 0 -0.02 0.156 -0.031 0.344 -0.031 c 0.188 0 0.34 -0.016 0.34 -0.035 c 0 -0.098 -0.129 -0.16 -0.281 -0.133 c -0.488 0.074 -0.492 0.074 -0.664 -0.074 c -0.09 -0.078 -0.188 -0.191 -0.219 -0.25 c -0.031 -0.059 -0.094 -0.141 -0.137 -0.184 l -0.078 -0.078 l 0.086 0.023 c 0.059 0.016 0.074 0.008 0.051 -0.016 c -0.02 -0.02 -0.086 -0.039 -0.148 -0.043 c -0.133 -0.012 -0.152 -0.113 -0.02 -0.133 c 0.055 -0.008 0.078 0.004 0.063 0.027 c -0.012 0.02 0.016 0.059 0.063 0.082 c 0.051 0.027 0.105 0.07 0.129 0.102 c 0.035 0.047 0.047 0.047 0.066 -0.008 c 0.012 -0.031 0.051 -0.059 0.086 -0.059 c 0.035 0 0.055 0.02 0.043 0.047 c -0.074 0.195 -0.07 0.211 0.066 0.348 c 0.113 0.105 0.156 0.129 0.246 0.109 c 0.059 -0.012 0.242 -0.031 0.406 -0.043 c 0.391 -0.031 0.418 -0.039 0.344 -0.113 c -0.039 -0.035 -0.094 -0.047 -0.152 -0.031 c -0.051 0.012 -0.102 0.004 -0.117 -0.02 c -0.039 -0.063 0.063 -0.156 0.262 -0.242 c 0.195 -0.082 0.211 -0.109 0.184 -0.254 c -0.016 -0.086 -0.035 -0.102 -0.109 -0.082 c -0.133 0.031 -0.23 -0.031 -0.324 -0.211 c -0.043 -0.086 -0.137 -0.234 -0.207 -0.332 c -0.094 -0.129 -0.129 -0.215 -0.129 -0.324 c 0 -0.152 0.063 -0.332 0.121 -0.332 c 0.016 0 0.031 -0.027 0.031 -0.055 c 0 -0.066 -0.02 -0.07 -0.117 -0.02 c -0.043 0.023 -0.066 0.055 -0.055 0.074 c 0.012 0.02 0.004 0.066 -0.02 0.109 c -0.047 0.086 -0.227 0.105 -0.227 0.023 c 0 -0.027 -0.043 -0.078 -0.094 -0.109 c -0.086 -0.055 -0.09 -0.055 -0.07 0.012 c 0.023 0.09 -0.047 0.125 -0.141 0.066 c -0.098 -0.059 -0.102 -0.129 -0.004 -0.145 c 0.063 -0.012 0.066 -0.023 0.023 -0.082 c -0.047 -0.059 -0.063 -0.063 -0.16 -0.012 c -0.074 0.035 -0.172 0.047 -0.309 0.035 c -0.109 -0.012 -0.246 0 -0.305 0.02 c -0.055 0.023 -0.176 0.059 -0.266 0.082 c -0.301 0.074 -0.523 0.344 -0.617 0.75 c -0.02 0.098 -0.074 0.238 -0.113 0.313 c -0.043 0.074 -0.078 0.156 -0.078 0.184 c 0 0.023 -0.035 0.07 -0.082 0.102 c -0.125 0.082 -0.066 0.07 0.148 -0.031 c 0.098 -0.047 0.246 -0.098 0.32 -0.113 c 0.078 -0.012 0.195 -0.07 0.262 -0.133 c 0.066 -0.059 0.137 -0.109 0.156 -0.109 c 0.047 0 0.168 -0.273 0.199 -0.449 c 0.023 -0.125 0.02 -0.137 -0.051 -0.117 c -0.055 0.016 -0.078 0 -0.078 -0.039 c 0 -0.035 0.02 -0.062 0.039 -0.062 c 0.02 0 0.039 -0.023 0.039 -0.055 c 0 -0.109 0.203 -0.27 0.371 -0.293 c 0.137 -0.02 0.16 -0.012 0.16 0.043 c 0 0.086 -0.188 0.344 -0.25 0.344 c -0.105 0 -0.172 0.48 -0.09 0.633 c 0.023 0.043 0.023 0.07 0.004 0.07 c -0.023 0 -0.047 -0.02 -0.059 -0.047 c -0.012 -0.027 -0.016 -0.004 -0.004 0.047 l 0.02 0.094 l -0.059 -0.082 l -0.063 -0.082 l -0.125 0.137 c -0.117 0.125 -0.125 0.152 -0.102 0.285 c 0.031 0.148 0.207 0.461 0.266 0.461 c 0.016 0 0.07 0.035 0.117 0.074 c 0.066 0.055 0.078 0.094 0.063 0.176 c -0.023 0.09 -0.012 0.113 0.07 0.152 c 0.066 0.027 0.098 0.07 0.098 0.129 c 0 0.078 0.012 0.086 0.137 0.074 c 0.129 -0.016 0.137 -0.008 0.117 0.07 c -0.012 0.047 -0.008 0.109 0.012 0.141 c 0.031 0.043 0.039 0.039 0.039 -0.031 c 0 -0.059 0.023 -0.082 0.074 -0.082 c 0.066 0 0.074 0.016 0.055 0.094 c -0.02 0.07 0.004 0.121 0.086 0.211 l 0.109 0.125 l 0.141 -0.094 c 0.082 -0.051 0.145 -0.121 0.145 -0.156 m 0.051 -1.199 c -0.039 -0.047 -0.109 -0.086 -0.16 -0.086 c -0.051 -0.004 -0.098 -0.035 -0.117 -0.086 c -0.031 -0.074 -0.035 -0.078 -0.063 -0.02 c -0.035 0.09 -0.121 0.082 -0.172 -0.012 c -0.09 -0.168 0.094 -0.367 0.336 -0.367 c 0.145 0 0.617 0.277 0.617 0.359 c 0 0.082 -0.113 0.055 -0.316 -0.078 c -0.109 -0.07 -0.246 -0.137 -0.313 -0.148 c -0.098 -0.02 -0.102 -0.02 -0.027 0.012 c 0.047 0.023 0.086 0.055 0.086 0.07 c 0 0.02 0.043 0.055 0.098 0.082 c 0.102 0.055 0.207 0.211 0.207 0.305 c 0 0.082 -0.098 0.063 -0.176 -0.031 m -0.445 -0.355 c -0.012 -0.027 -0.02 -0.008 -0.02 0.043 c 0 0.051 0.008 0.074 0.02 0.047 c 0.012 -0.023 0.012 -0.066 0 -0.09 m -0.063 -0.438 c 0 -0.02 -0.086 -0.035 -0.188 -0.035 c -0.129 0 -0.199 -0.02 -0.246 -0.07 c -0.078 -0.082 -0.082 -0.203 -0.008 -0.273 c 0.031 -0.031 0.047 -0.066 0.031 -0.078 c -0.023 -0.027 0.227 -0.133 0.312 -0.133 c 0.074 0 0.172 0.211 0.172 0.363 c 0 0.063 0.023 0.117 0.047 0.125 c 0.039 0.012 0.039 0.031 -0.004 0.078 c -0.059 0.07 -0.117 0.082 -0.117 0.023 m 0.051 -0.121 c -0.023 -0.141 -0.051 -0.18 -0.051 -0.07 c 0 0.047 -0.023 0.082 -0.047 0.082 c -0.031 0 0.066 0.102 0.109 0.109 c 0.004 0 -0.004 -0.055 -0.012 -0.121 m -0.262 -0.324 c -0.105 -0.023 -0.109 -0.027 -0.02 -0.035 c 0.066 -0.004 0.074 -0.012 0.031 -0.023 c -0.035 -0.012 -0.098 0 -0.133 0.02 c -0.043 0.023 -0.051 0.039 -0.02 0.039 c 0.027 0 0.043 0.016 0.031 0.031 c -0.012 0.02 0.035 0.023 0.102 0.012 l 0.121 -0.02 m 0.289 0.039 c -0.027 -0.051 -0.039 -0.121 -0.023 -0.156 c 0.02 -0.055 0.031 -0.059 0.074 -0.012 c 0.066 0.066 0.121 0.238 0.066 0.203 c -0.02 -0.012 -0.043 -0.004 -0.051 0.02 c -0.008 0.023 -0.039 -0.004 -0.066 -0.055 m -0.457 2.395 c 0 -0.027 -0.074 -0.047 -0.094 -0.02 c -0.012 0.016 0.008 0.031 0.035 0.031 c 0.031 0 0.059 -0.004 0.059 -0.012 m -0.125 -0.059 c 0.07 -0.066 0.059 -0.172 -0.02 -0.16 c -0.043 0.008 -0.066 0.043 -0.066 0.109 c -0.004 0.105 0.02 0.121 0.086 0.051 m -1.164 -0.195 l 0.105 -0.117 l -0.074 -0.191 c -0.043 -0.109 -0.086 -0.316 -0.102 -0.469 c -0.023 -0.27 -0.023 -0.273 -0.102 -0.219 c -0.043 0.027 -0.145 0.055 -0.223 0.055 c -0.164 0 -0.164 0 -0.086 0.148 c 0.105 0.199 0.031 0.113 -0.133 -0.152 c -0.086 -0.145 -0.152 -0.27 -0.145 -0.277 c 0.008 -0.008 0.055 0.051 0.102 0.133 c 0.098 0.168 0.113 0.18 0.09 0.063 c -0.012 -0.055 0.016 -0.113 0.082 -0.172 c 0.055 -0.051 0.098 -0.102 0.098 -0.121 c 0 -0.043 -0.484 -0.039 -0.512 0.004 c -0.012 0.02 0.027 0.105 0.09 0.195 c 0.176 0.258 0.41 0.73 0.504 1.031 c 0.098 0.313 0.109 0.316 0.309 0.09 m -0.309 -0.371 c -0.063 -0.137 -0.051 -0.164 0.02 -0.043 c 0.031 0.059 0.051 0.113 0.039 0.121 c -0.008 0.008 -0.035 -0.027 -0.059 -0.078 m -0.098 -0.227 c -0.02 -0.055 -0.016 -0.059 0.02 -0.023 c 0.027 0.027 0.039 0.055 0.027 0.066 c -0.012 0.012 -0.035 -0.008 -0.047 -0.043 m 4.01 0.793 c 0 -0.008 -0.125 -0.129 -0.277 -0.27 l -0.277 -0.258 l 0.266 0.27 c 0.246 0.246 0.289 0.285 0.289 0.258 m -2.613 -0.086 c -0.012 -0.031 -0.031 -0.047 -0.039 -0.039 c -0.012 0.012 -0.008 0.035 0.004 0.059 c 0.039 0.059 0.063 0.047 0.035 -0.02 m 0.277 -0.023 c -0.012 -0.027 -0.02 -0.02 -0.02 0.023 c -0.004 0.039 0.004 0.059 0.02 0.047 c 0.012 -0.012 0.012 -0.043 0 -0.07 m 2.746 -0.898 c 0.086 -0.164 0.191 -0.352 0.238 -0.418 l 0.078 -0.121 h -0.289 c -0.273 0 -0.297 0.008 -0.426 0.121 c -0.074 0.066 -0.195 0.215 -0.27 0.332 c -0.074 0.117 -0.141 0.215 -0.148 0.215 c -0.031 0 0.141 -0.293 0.23 -0.398 c 0.102 -0.113 0.125 -0.195 0.063 -0.195 c -0.105 0 -0.566 0.699 -0.512 0.781 c 0.035 0.059 0.086 0.035 0.148 -0.066 c 0.035 -0.059 0.051 -0.07 0.035 -0.027 c -0.07 0.199 -0.066 0.207 0.195 0.465 l 0.258 0.254 l 0.121 -0.324 c 0.066 -0.176 0.191 -0.457 0.277 -0.617 m -2.01 0.891 c 0 -0.012 -0.02 -0.027 -0.039 -0.039 c -0.023 -0.016 -0.039 -0.008 -0.039 0.016 c 0 0.02 0.016 0.039 0.039 0.039 c 0.02 0 0.039 -0.008 0.039 -0.016 m 0.598 -0.113 c 0.199 -0.113 0.246 -0.168 0.148 -0.168 c -0.031 0 -0.066 0.023 -0.078 0.055 c -0.012 0.031 -0.051 0.055 -0.09 0.055 c -0.082 0 -0.238 0.102 -0.238 0.156 c 0 0.043 0.004 0.043 0.258 -0.098 m -2.039 -0.008 c 0.117 -0.109 0.137 -0.16 0.059 -0.16 c -0.051 0 -0.254 0.188 -0.254 0.234 c 0 0.055 0.098 0.02 0.195 -0.074 m 1.777 -0.074 c 0.012 -0.004 -0.043 -0.012 -0.121 -0.012 c -0.074 0 -0.145 0.016 -0.156 0.035 c -0.023 0.031 0.238 0.012 0.277 -0.023 m -1.918 -0.086 c 0.063 -0.063 0.141 -0.109 0.18 -0.109 c 0.043 0 0.07 -0.027 0.07 -0.074 c 0 -0.047 -0.027 -0.074 -0.066 -0.074 c -0.043 0 -0.125 -0.098 -0.227 -0.27 c -0.09 -0.148 -0.188 -0.301 -0.223 -0.344 c -0.066 -0.078 -0.004 0.035 0.227 0.41 c 0.074 0.121 0.137 0.238 0.137 0.258 c 0 0.02 -0.063 0.098 -0.141 0.176 c -0.078 0.074 -0.125 0.137 -0.102 0.137 c 0.02 0 0.086 -0.047 0.145 -0.109 m 0.359 -0.082 c -0.031 -0.059 -0.051 -0.07 -0.063 -0.035 c -0.012 0.027 0.004 0.066 0.031 0.086 c 0.078 0.047 0.082 0.039 0.031 -0.051 m -0.457 -0.043 l 0.086 -0.086 l -0.164 -0.262 c -0.09 -0.145 -0.172 -0.254 -0.18 -0.246 c -0.063 0.059 0.07 0.684 0.145 0.684 c 0.016 0 0.066 -0.039 0.113 -0.09 m 0.48 -0.207 c -0.012 -0.02 -0.039 -0.039 -0.063 -0.039 c -0.02 0 -0.016 0.023 0.012 0.055 c 0.055 0.055 0.09 0.047 0.051 -0.016 m 1.871 0.051 c -0.012 -0.012 -0.043 -0.012 -0.07 -0.004 c -0.031 0.012 -0.023 0.023 0.02 0.023 c 0.043 0 0.063 -0.008 0.051 -0.02 m -2.664 -0.172 c -0.012 -0.023 -0.02 -0.004 -0.02 0.047 c 0 0.051 0.008 0.07 0.02 0.047 c 0.012 -0.027 0.012 -0.066 0 -0.094 m 0.566 -0.094 c -0.039 -0.039 -0.063 0.016 -0.031 0.09 c 0.023 0.066 0.027 0.066 0.039 0 c 0.008 -0.035 0.004 -0.078 -0.008 -0.09 m 2.648 -0.434 c 0.066 -0.082 0.137 -0.168 0.156 -0.195 c 0.023 -0.031 0.016 -0.047 -0.027 -0.047 c -0.031 0 -0.059 0.02 -0.059 0.043 c 0 0.023 -0.059 0.117 -0.129 0.215 c -0.129 0.172 -0.293 0.457 -0.289 0.512 c 0 0.016 0.051 -0.063 0.113 -0.176 c 0.063 -0.113 0.168 -0.27 0.234 -0.352 m -2.859 0.094 c 0 -0.016 0.008 -0.063 0.023 -0.102 c 0.016 -0.047 0.012 -0.055 -0.016 -0.016 c -0.02 0.027 -0.047 0.047 -0.063 0.047 c -0.012 -0.004 -0.023 0.004 -0.023 0.016 c 0 0.008 0 0.031 0 0.055 c 0 0.02 0.02 0.035 0.039 0.035 c 0.02 0 0.039 -0.016 0.039 -0.035 m 2.613 -0.082 c -0.016 -0.031 -0.023 -0.02 -0.023 0.023 c -0.004 0.039 0.008 0.059 0.02 0.047 c 0.012 -0.012 0.012 -0.043 0.004 -0.07 m 0.125 -0.172 c -0.105 -0.016 -0.133 0.008 -0.098 0.09 c 0.02 0.059 0.027 0.055 0.102 -0.008 l 0.082 -0.07 m -0.316 -0.129 c -0.137 -0.043 -0.227 -0.043 -0.227 0 c 0 0.02 0.074 0.035 0.16 0.035 c 0.141 -0.004 0.148 -0.012 0.066 -0.035 m -0.34 -0.094 c 0 -0.027 -0.016 -0.055 -0.039 -0.055 c -0.02 0 -0.027 0.027 -0.012 0.055 c 0.012 0.031 0.027 0.059 0.035 0.059 c 0.008 0 0.016 -0.027 0.016 -0.059 m 0.762 0 c 0 -0.012 -0.105 -0.203 -0.234 -0.426 c -0.223 -0.391 -0.305 -0.477 -0.516 -0.555 l -0.098 -0.039 l 0.063 0.098 c 0.035 0.051 0.063 0.156 0.063 0.23 c 0 0.375 0.016 0.434 0.129 0.535 c 0.063 0.055 0.176 0.113 0.25 0.125 c 0.07 0.012 0.148 0.027 0.172 0.031 c 0.063 0.023 0.172 0.02 0.172 0 m -5.27 -0.246 c 0.082 -0.125 0.258 -0.43 0.387 -0.676 c 0.133 -0.246 0.238 -0.434 0.238 -0.418 c 0.004 0.051 -0.375 0.762 -0.551 1.039 l -0.172 0.266 l 0.387 0.012 c 0.211 0.004 0.402 -0.008 0.426 -0.027 c 0.027 -0.02 0.098 -0.125 0.156 -0.238 l 0.113 -0.203 l -0.109 -0.195 c -0.211 -0.379 -0.137 -0.965 0.172 -1.301 l 0.148 -0.164 l -0.168 -0.16 c -0.117 -0.113 -0.176 -0.145 -0.184 -0.105 c -0.297 0.953 -0.594 1.594 -1.082 2.316 c -0.051 0.078 -0.051 0.082 0.016 0.082 c 0.043 0 0.125 -0.082 0.223 -0.227 m 0.629 -1.16 c 0 -0.02 0.016 -0.059 0.035 -0.09 c 0.02 -0.031 0.039 -0.039 0.039 -0.02 c 0 0.02 -0.02 0.063 -0.039 0.094 c -0.02 0.027 -0.035 0.039 -0.035 0.016 m 0.113 -0.293 c 0 -0.023 0.016 -0.063 0.039 -0.094 c 0.02 -0.031 0.035 -0.039 0.035 -0.02 c 0 0.02 -0.016 0.063 -0.035 0.094 c -0.023 0.031 -0.039 0.039 -0.039 0.02 m 0.477 1.566 c 0.051 -0.094 0.055 -0.121 0.012 -0.145 c -0.027 -0.02 -0.051 -0.027 -0.055 -0.023 c 0 0.004 -0.043 0.07 -0.09 0.145 c -0.082 0.137 -0.082 0.141 -0.008 0.141 c 0.051 0 0.102 -0.043 0.141 -0.117 m 0.484 0.09 c 0.023 -0.02 -0.313 -0.152 -0.395 -0.156 c -0.012 -0.004 -0.043 0.039 -0.066 0.09 l -0.043 0.094 h 0.242 c 0.129 0 0.25 -0.012 0.262 -0.027 m 3.797 -0.109 c -0.047 -0.074 -0.078 -0.141 -0.07 -0.148 c 0.008 -0.004 0.055 0.055 0.102 0.137 l 0.082 0.148 h 0.676 l -0.176 -0.289 c -0.094 -0.156 -0.176 -0.289 -0.18 -0.297 c -0.004 -0.004 -0.098 0.047 -0.203 0.117 c -0.105 0.07 -0.246 0.141 -0.309 0.152 l -0.117 0.023 l 0.105 0.145 c 0.133 0.184 0.195 0.191 0.09 0.012 m 1.113 0.035 c -0.125 -0.188 -0.434 -0.73 -0.434 -0.77 c 0 -0.02 0.07 0.086 0.156 0.242 c 0.086 0.152 0.207 0.355 0.27 0.453 l 0.117 0.176 h 0.434 c 0.238 0 0.434 -0.008 0.434 -0.02 c 0 -0.008 -0.098 -0.172 -0.219 -0.359 c -0.277 -0.445 -0.582 -1.066 -0.738 -1.512 c -0.066 -0.191 -0.129 -0.355 -0.137 -0.367 c -0.008 -0.008 -0.098 0.066 -0.199 0.164 l -0.184 0.176 l 0.016 0.359 c 0.008 0.195 0.023 0.422 0.031 0.5 c 0.008 0.082 0.004 0.125 -0.016 0.098 c -0.023 -0.035 -0.035 -0.031 -0.055 0.016 c -0.039 0.102 0.457 0.941 0.555 0.941 c 0.02 0 0.008 -0.043 -0.031 -0.102 m -5.04 -0.219 c 0.004 -0.086 0 -0.094 -0.031 -0.039 c -0.023 0.035 -0.031 0.082 -0.02 0.102 c 0.035 0.055 0.043 0.047 0.051 -0.063 m 0.16 0.027 c 0.031 -0.059 0.027 -0.07 -0.02 -0.051 c -0.039 0.012 -0.055 0 -0.055 -0.043 c 0 -0.039 -0.012 -0.059 -0.023 -0.047 c -0.02 0.02 0.02 0.215 0.043 0.215 c 0.008 0 0.031 -0.035 0.055 -0.074 m 1.016 -0.043 c -0.012 -0.031 -0.023 -0.023 -0.023 0.02 c 0 0.039 0.008 0.063 0.02 0.051 c 0.012 -0.012 0.016 -0.047 0.004 -0.07 m -1.309 -0.02 c -0.016 -0.039 -0.008 -0.051 0.016 -0.039 c 0.023 0.016 0.031 -0.008 0.02 -0.063 l -0.016 -0.086 l -0.086 0.078 c -0.078 0.074 -0.094 0.16 -0.02 0.117 c 0.016 -0.012 0.043 -0.004 0.055 0.016 c 0.039 0.059 0.059 0.043 0.031 -0.023 m 3.984 -0.125 c 0 -0.02 -0.035 -0.035 -0.082 -0.035 c -0.043 0 -0.066 0.016 -0.055 0.035 c 0.016 0.023 0.051 0.039 0.082 0.039 c 0.027 0 0.055 -0.016 0.055 -0.039 m 0.164 -0.031 c -0.016 -0.055 0 -0.066 0.082 -0.059 c 0.055 0.008 0.09 0.004 0.078 -0.008 c -0.035 -0.035 0.059 -0.125 0.102 -0.098 c 0.02 0.012 0.016 -0.02 -0.016 -0.066 l -0.051 -0.09 l -0.012 0.086 c -0.008 0.047 -0.027 0.074 -0.047 0.063 c -0.02 -0.012 -0.039 0.008 -0.039 0.047 c -0.004 0.039 -0.012 0.047 -0.023 0.02 c -0.051 -0.125 -0.148 -0.008 -0.105 0.129 c 0.023 0.074 0.051 0.055 0.031 -0.023 m -4.266 -0.035 c -0.004 -0.027 0.008 -0.039 0.027 -0.027 c 0.02 0.012 0.055 -0.012 0.078 -0.051 c 0.043 -0.078 -0.012 -0.113 -0.055 -0.039 c -0.035 0.055 -0.25 0.047 -0.238 -0.008 c 0.004 -0.023 -0.031 -0.063 -0.078 -0.082 c -0.047 -0.023 -0.078 -0.059 -0.066 -0.086 c 0.027 -0.074 -0.012 -0.051 -0.059 0.031 c -0.031 0.059 -0.031 0.074 0 0.055 c 0.023 -0.016 0.051 0 0.063 0.031 c 0.012 0.031 0.039 0.051 0.059 0.039 c 0.02 -0.012 0.031 0.016 0.031 0.059 c 0 0.047 -0.016 0.066 -0.043 0.051 c -0.027 -0.016 -0.031 -0.012 -0.016 0.016 c 0.016 0.023 0.043 0.035 0.059 0.023 c 0.02 -0.012 0.047 0 0.059 0.02 c 0.035 0.055 0.191 0.027 0.18 -0.031 m 3.09 -0.078 c 0.012 -0.016 -0.023 -0.02 -0.074 -0.012 c -0.055 0.012 -0.102 0.031 -0.113 0.047 c -0.008 0.016 0.027 0.02 0.078 0.008 c 0.051 -0.008 0.102 -0.027 0.109 -0.043 m -2.719 -0.039 c 0 -0.02 -0.023 -0.023 -0.055 -0.012 c -0.043 0.016 -0.051 0.004 -0.035 -0.047 c 0.023 -0.059 0.016 -0.063 -0.023 -0.027 c -0.039 0.039 -0.039 0.059 0 0.102 c 0.047 0.059 0.113 0.047 0.113 -0.016 m 3.613 0 c 0 -0.02 -0.004 -0.035 -0.016 -0.035 c -0.008 0 -0.027 0.016 -0.039 0.035 c -0.012 0.02 -0.008 0.039 0.016 0.039 c 0.023 0 0.039 -0.02 0.039 -0.039 m -3.117 -0.266 c 0 -0.016 -0.027 -0.031 -0.059 -0.031 c -0.039 0 -0.051 0.02 -0.031 0.047 c 0.023 0.035 0.016 0.039 -0.027 0.004 c -0.047 -0.039 -0.059 -0.031 -0.063 0.035 c -0.004 0.043 -0.023 0.086 -0.047 0.094 c -0.023 0.008 -0.039 0.039 -0.039 0.07 c 0 0.043 0.039 0.023 0.133 -0.063 c 0.074 -0.07 0.133 -0.141 0.133 -0.156 m 2.309 0.184 c -0.012 -0.027 -0.023 -0.02 -0.023 0.023 c 0 0.039 0.008 0.063 0.02 0.051 c 0.012 -0.016 0.016 -0.047 0.004 -0.074 m 0.676 0.047 c 0.016 -0.023 0.008 -0.039 -0.016 -0.039 c -0.023 0 -0.039 0.016 -0.039 0.039 c 0 0.02 0.008 0.035 0.016 0.035 c 0.008 0 0.027 -0.016 0.039 -0.035 m -3.754 -0.098 c 0.02 -0.012 -0.082 -0.164 -0.109 -0.164 c -0.012 0 -0.023 0.059 -0.02 0.129 c 0.004 0.105 0.012 0.117 0.063 0.082 c 0.031 -0.023 0.063 -0.043 0.066 -0.047 m 2.961 -0.02 c -0.063 -0.086 -0.063 -0.086 -0.063 -0.008 c 0 0.043 0.023 0.086 0.047 0.098 c 0.078 0.023 0.082 0 0.016 -0.09 m 1.23 -0.094 c 0 -0.031 0.027 -0.051 0.066 -0.043 c 0.047 0.008 0.086 -0.023 0.117 -0.094 c 0.059 -0.137 0.059 -0.172 -0.012 -0.172 c -0.031 0 -0.055 0.016 -0.055 0.035 c 0 0.023 -0.027 0.039 -0.059 0.039 c -0.031 0 -0.059 0.02 -0.059 0.039 c 0 0.074 -0.207 0.258 -0.293 0.258 c -0.109 0 -0.109 0.051 0 0.098 c 0.066 0.031 0.109 0.023 0.191 -0.031 c 0.055 -0.039 0.102 -0.098 0.102 -0.129 m -0.543 0.09 c -0.012 -0.027 -0.02 -0.02 -0.023 0.023 c 0 0.039 0.008 0.063 0.02 0.051 c 0.012 -0.016 0.016 -0.047 0.004 -0.074 m 0.863 -0.07 c -0.023 -0.039 -0.09 -0.008 -0.09 0.043 c 0 0.02 0.023 0.023 0.055 0.012 c 0.031 -0.012 0.047 -0.035 0.035 -0.055 m -0.926 -0.016 c 0 -0.031 -0.02 -0.047 -0.039 -0.035 c -0.023 0.012 -0.031 0.039 -0.02 0.059 c 0.035 0.051 0.059 0.043 0.059 -0.023 m -4.04 -0.137 c -0.012 -0.027 0.012 -0.066 0.043 -0.09 c 0.055 -0.043 0.051 -0.047 -0.023 -0.047 c -0.078 -0.004 -0.086 0.016 -0.086 0.156 c 0 0.125 0.008 0.145 0.043 0.09 c 0.02 -0.035 0.031 -0.086 0.023 -0.109 m -0.117 0 c -0.012 -0.027 -0.02 -0.004 -0.02 0.047 c 0 0.051 0.008 0.07 0.02 0.047 c 0.008 -0.027 0.008 -0.07 0 -0.094 m 0.992 0.066 c 0.059 -0.027 0.141 -0.09 0.188 -0.137 l 0.082 -0.086 l -0.129 -0.141 c -0.074 -0.074 -0.133 -0.125 -0.133 -0.109 c -0.004 0.016 -0.02 -0.012 -0.039 -0.055 c -0.02 -0.047 -0.047 -0.086 -0.066 -0.086 c -0.016 0 -0.07 0.121 -0.117 0.266 c -0.066 0.195 -0.078 0.273 -0.043 0.305 c 0.031 0.031 0.051 0.027 0.082 -0.016 c 0.027 -0.043 0.031 -0.035 0.012 0.027 c -0.027 0.098 0.02 0.109 0.164 0.031 m 0.441 -0.027 c -0.02 -0.027 -0.004 -0.035 0.039 -0.02 c 0.105 0.043 0.25 -0.012 0.25 -0.09 c 0 -0.086 -0.027 -0.086 -0.121 -0.004 c -0.043 0.035 -0.102 0.063 -0.133 0.063 c -0.035 0.004 -0.066 0.031 -0.07 0.066 c -0.004 0.035 0.004 0.055 0.023 0.043 c 0.02 -0.012 0.023 -0.039 0.012 -0.059 m 2.496 0.008 c -0.023 -0.043 -0.055 -0.074 -0.074 -0.074 c -0.02 0 -0.047 -0.031 -0.059 -0.074 c -0.012 -0.039 -0.059 -0.082 -0.102 -0.094 c -0.043 -0.016 -0.066 -0.047 -0.055 -0.074 c 0.012 -0.027 -0.012 -0.059 -0.055 -0.074 c -0.043 -0.012 -0.074 -0.047 -0.074 -0.078 c 0 -0.031 -0.016 -0.047 -0.035 -0.035 c -0.02 0.012 -0.078 0.008 -0.133 -0.016 c -0.063 -0.023 -0.098 -0.023 -0.098 0 c 0 0.023 -0.027 0.039 -0.059 0.039 c -0.031 0 -0.055 -0.016 -0.055 -0.035 c 0 -0.023 -0.047 -0.02 -0.117 0.004 c -0.086 0.027 -0.129 0.027 -0.172 -0.008 c -0.047 -0.039 -0.055 -0.031 -0.055 0.023 c 0 0.055 0.027 0.07 0.129 0.074 c 0.191 0.004 0.363 0.086 0.391 0.184 c 0.023 0.094 0.066 0.113 0.109 0.051 c 0.039 -0.063 0.133 -0.039 0.133 0.039 c 0 0.059 0.023 0.074 0.109 0.074 c 0.059 0 0.148 0.031 0.199 0.07 c 0.113 0.094 0.121 0.094 0.07 0.004 m 1.227 -0.055 c 0.016 -0.078 0.008 -0.086 -0.035 -0.055 c -0.055 0.047 -0.07 0.145 -0.016 0.145 c 0.02 0 0.039 -0.039 0.051 -0.09 m -2.25 0 c 0.02 0.012 0.063 0.004 0.102 -0.016 c 0.059 -0.035 0.059 -0.039 -0.016 -0.039 c -0.047 0 -0.098 -0.02 -0.109 -0.043 c -0.016 -0.023 -0.043 -0.023 -0.078 0.008 c -0.043 0.035 -0.047 0.055 -0.008 0.098 c 0.031 0.035 0.051 0.039 0.059 0.012 c 0.008 -0.02 0.031 -0.031 0.051 -0.02 m 1.555 -0.113 c 0.219 -0.234 0.152 -0.293 -0.078 -0.07 c -0.164 0.156 -0.203 0.238 -0.113 0.238 c 0.016 0 0.102 -0.074 0.191 -0.168 m 0.008 0.102 c 0.117 -0.129 0.117 -0.172 0 -0.066 c -0.066 0.059 -0.121 0.113 -0.121 0.121 c 0 0.035 0.074 0.004 0.121 -0.055 m -4.172 -0.008 c -0.012 -0.02 -0.043 -0.039 -0.066 -0.035 c -0.027 0 -0.023 0.012 0.012 0.035 c 0.07 0.047 0.086 0.047 0.055 0 m 4.316 0 c 0 -0.02 -0.008 -0.039 -0.016 -0.039 c -0.008 0 -0.027 0.02 -0.039 0.039 c -0.016 0.02 -0.008 0.035 0.016 0.035 c 0.023 0 0.039 -0.016 0.039 -0.035 m -2.52 -0.125 c 0.031 -0.02 0.066 -0.02 0.098 0.004 c 0.129 0.098 0.371 0.063 0.371 -0.055 c 0 -0.027 0.023 -0.047 0.055 -0.047 c 0.031 0 0.059 0.016 0.059 0.039 c 0 0.02 0.031 0.016 0.074 -0.012 c 0.043 -0.023 0.078 -0.055 0.078 -0.07 c 0 -0.016 -0.035 -0.02 -0.078 -0.012 c -0.039 0.008 -0.074 -0.004 -0.074 -0.023 c 0 -0.02 -0.043 -0.023 -0.098 -0.012 c -0.055 0.016 -0.117 0.004 -0.152 -0.02 c -0.027 -0.027 -0.078 -0.035 -0.113 -0.023 c -0.031 0.012 -0.055 0 -0.055 -0.023 c 0 -0.023 -0.027 -0.012 -0.059 0.027 c -0.031 0.043 -0.055 0.055 -0.055 0.027 c 0 -0.027 -0.02 -0.047 -0.043 -0.047 c -0.023 0 -0.027 0.02 -0.012 0.047 c 0.02 0.035 0.016 0.035 -0.027 0 c -0.066 -0.059 -0.109 -0.059 -0.109 0.004 c 0 0.027 -0.043 0.066 -0.098 0.09 c -0.094 0.043 -0.129 0.117 -0.055 0.117 c 0.02 0 0.039 0.027 0.039 0.055 c 0 0.047 0.016 0.051 0.102 0.012 c 0.059 -0.023 0.129 -0.059 0.152 -0.078 m 2.461 -0.391 c -0.023 -0.023 -0.473 0.41 -0.473 0.457 c 0 0.02 0.113 -0.07 0.246 -0.199 c 0.137 -0.133 0.238 -0.246 0.227 -0.258 m -1.402 0.402 c -0.016 -0.02 -0.043 -0.035 -0.063 -0.035 c -0.023 0 -0.027 0.016 -0.016 0.035 c 0.012 0.023 0.043 0.039 0.063 0.039 c 0.02 0 0.027 -0.016 0.016 -0.039 m 1.512 -0.035 c -0.012 -0.039 -0.027 -0.074 -0.035 -0.074 c -0.008 0 -0.012 0.035 -0.012 0.074 c 0 0.039 0.016 0.074 0.031 0.074 c 0.02 0 0.027 -0.035 0.016 -0.074 m 0.586 -0.23 c -0.008 -0.066 -0.016 -0.02 -0.016 0.102 c 0 0.121 0.008 0.176 0.016 0.121 c 0.012 -0.055 0.012 -0.156 0 -0.223 m -4.84 0.234 c 0.012 -0.02 -0.012 -0.039 -0.051 -0.051 c -0.051 -0.012 -0.066 -0.004 -0.055 0.031 c 0.023 0.059 0.074 0.07 0.105 0.02 m 3.48 -0.063 c -0.027 -0.031 -0.059 -0.043 -0.07 -0.031 c -0.012 0.016 0 0.035 0.023 0.043 c 0.027 0.008 0.039 0.035 0.023 0.055 c -0.016 0.023 -0.008 0.031 0.023 0.012 c 0.035 -0.02 0.035 -0.039 0 -0.078 m -3.695 -0.055 c -0.02 -0.016 0.008 -0.035 0.063 -0.051 c 0.055 -0.012 0.094 -0.035 0.094 -0.051 c -0.02 -0.109 0.008 -0.16 0.07 -0.137 c 0.164 0.063 0.176 0.063 0.078 -0.012 c -0.055 -0.043 -0.117 -0.082 -0.137 -0.082 c -0.02 0 -0.047 -0.023 -0.059 -0.055 c -0.035 -0.086 0.141 -0.07 0.227 0.023 c 0.039 0.047 0.047 0.07 0.02 0.051 c -0.039 -0.02 -0.047 -0.016 -0.027 0.012 c 0.035 0.055 0.086 0.027 0.141 -0.074 c 0.031 -0.059 0.031 -0.07 -0.008 -0.047 c -0.035 0.02 -0.039 0.012 -0.023 -0.035 c 0.016 -0.035 0.027 -0.09 0.027 -0.121 c 0 -0.027 0.02 -0.043 0.043 -0.027 c 0.023 0.016 0.035 0 0.027 -0.043 c -0.008 -0.039 -0.035 -0.074 -0.063 -0.074 c -0.102 -0.012 -0.102 -0.02 0.004 -0.074 c 0.055 -0.031 0.121 -0.047 0.137 -0.035 c 0.02 0.012 0.031 -0.008 0.023 -0.043 c -0.004 -0.035 -0.027 -0.066 -0.055 -0.07 c -0.027 -0.004 -0.027 0 -0.004 0.012 c 0.023 0.008 -0.012 0.047 -0.082 0.082 c -0.07 0.039 -0.125 0.094 -0.125 0.145 c -0.004 0.043 0.008 0.066 0.023 0.059 c 0.02 -0.012 0.031 -0.004 0.031 0.02 c 0 0.02 -0.043 0.039 -0.094 0.039 c -0.09 0 -0.094 -0.008 -0.059 -0.082 c 0.023 -0.047 -0.035 -0.004 -0.125 0.09 c -0.164 0.172 -0.293 0.434 -0.293 0.605 c 0 0.074 0.008 0.078 0.094 0.039 c 0.051 -0.023 0.074 -0.051 0.051 -0.063 m 0 -0.098 c 0.027 -0.012 0.063 -0.008 0.074 0.004 c 0.012 0.012 -0.012 0.02 -0.051 0.02 c -0.043 -0.004 -0.055 -0.012 -0.023 -0.023 m 0.039 -0.074 c 0.027 -0.012 0.059 -0.008 0.074 0.004 c 0.012 0.012 -0.012 0.02 -0.051 0.02 c -0.043 -0.004 -0.055 -0.012 -0.023 -0.023 m 0 -0.074 c 0.027 -0.008 0.059 -0.008 0.074 0.004 c 0.012 0.012 -0.012 0.02 -0.051 0.02 c -0.043 0 -0.055 -0.012 -0.023 -0.023 m 0.273 -0.273 c 0 -0.02 0.016 -0.027 0.039 -0.016 c 0.02 0.012 0.035 0.031 0.035 0.039 c 0 0.012 -0.016 0.016 -0.035 0.016 c -0.023 0 -0.039 -0.016 -0.039 -0.039 m -0.508 0.477 c -0.012 -0.027 -0.02 -0.004 -0.02 0.047 c 0 0.051 0.008 0.07 0.02 0.043 c 0.012 -0.023 0.012 -0.066 0 -0.09 m 4.266 -0.117 l 0.242 -0.234 l -0.281 -0.098 c -0.152 -0.055 -0.336 -0.098 -0.406 -0.098 c -0.094 0 -0.156 -0.031 -0.246 -0.121 c -0.109 -0.109 -0.566 -0.434 -0.613 -0.434 c -0.012 0 -0.02 0.172 -0.02 0.379 v 0.379 l 0.176 -0.012 c 0.242 -0.02 0.473 0.078 0.688 0.289 c 0.102 0.102 0.191 0.184 0.203 0.184 c 0.012 0 0.129 -0.105 0.258 -0.234 m 0.777 0.211 c -0.027 -0.008 -0.07 -0.008 -0.094 0 c -0.027 0.012 -0.004 0.02 0.047 0.02 c 0.051 0 0.074 -0.008 0.047 -0.02 m -3.859 -0.223 c -0.117 -0.117 -0.219 -0.246 -0.227 -0.281 c -0.012 -0.063 -0.023 -0.055 -0.109 0.035 c -0.051 0.055 -0.063 0.082 -0.023 0.051 c 0.063 -0.047 0.09 -0.027 0.305 0.18 c 0.129 0.125 0.242 0.227 0.25 0.227 c 0.012 0 -0.078 -0.094 -0.195 -0.211 m -0.418 -0.102 c 0 -0.023 -0.023 0.012 -0.051 0.07 c -0.027 0.063 -0.051 0.137 -0.051 0.168 c 0 0.031 0.023 -0.004 0.051 -0.074 c 0.031 -0.07 0.055 -0.145 0.051 -0.164 m -0.23 0.215 c -0.012 -0.012 -0.047 -0.012 -0.074 0 c -0.031 0.012 -0.02 0.02 0.023 0.02 c 0.039 0.004 0.063 -0.004 0.051 -0.02 m 0.805 -0.191 l -0.129 -0.137 l 0.141 0.129 l 0.145 0.125 l 0.105 -0.094 c 0.055 -0.055 0.164 -0.125 0.238 -0.164 c 0.172 -0.086 0.543 -0.09 0.711 -0.004 l 0.125 0.066 v -0.703 l -0.199 0.113 c -0.109 0.066 -0.238 0.152 -0.285 0.191 c -0.047 0.039 -0.164 0.094 -0.266 0.121 c -0.102 0.023 -0.215 0.059 -0.258 0.07 c -0.063 0.02 -0.066 0.02 -0.02 -0.012 c 0.047 -0.035 0.043 -0.043 -0.023 -0.043 c -0.094 0 -0.438 0.105 -0.488 0.152 c -0.023 0.02 0.027 0.098 0.129 0.199 c 0.199 0.195 0.262 0.188 0.074 -0.012 m 3.789 0.141 c 0.012 -0.02 -0.016 -0.035 -0.063 -0.035 c -0.074 0 -0.078 0.008 -0.031 0.035 c 0.07 0.047 0.066 0.047 0.094 0 m -2.504 -0.129 c 0 -0.027 -0.016 -0.043 -0.031 -0.031 c -0.02 0.008 -0.023 0.035 -0.012 0.051 c 0.031 0.051 0.043 0.043 0.043 -0.02 m -0.578 -0.02 c -0.012 -0.02 0.023 -0.039 0.086 -0.039 c 0.066 -0.004 0.082 -0.012 0.035 -0.023 c -0.039 -0.008 -0.113 -0.004 -0.172 0.008 c -0.094 0.023 -0.094 0.031 -0.023 0.059 c 0.102 0.039 0.102 0.039 0.074 -0.004 m 0.914 -0.027 c -0.012 -0.012 -0.043 0 -0.066 0.023 c -0.039 0.035 -0.035 0.043 0.02 0.02 c 0.039 -0.012 0.059 -0.031 0.047 -0.043 m 1.988 -0.051 c -0.008 -0.027 -0.027 -0.012 -0.039 0.039 c -0.016 0.063 -0.012 0.074 0.016 0.047 c 0.023 -0.02 0.031 -0.059 0.023 -0.086 m -4.48 -0.031 c -0.031 -0.02 -0.074 -0.035 -0.094 -0.035 c -0.023 0 -0.012 0.016 0.02 0.035 c 0.031 0.02 0.074 0.035 0.094 0.035 c 0.02 0 0.012 -0.016 -0.02 -0.035 m 1.625 -0.023 c -0.012 -0.012 -0.043 -0.012 -0.07 -0.004 c -0.031 0.012 -0.023 0.023 0.02 0.023 c 0.043 0 0.063 -0.008 0.051 -0.02 m 0.305 0 c -0.012 -0.012 -0.047 -0.012 -0.074 -0.004 c -0.027 0.012 -0.02 0.023 0.023 0.023 c 0.043 0 0.063 -0.008 0.051 -0.02 m 2.332 -0.145 c 0 -0.055 -0.02 -0.082 -0.059 -0.078 c -0.031 0.004 -0.059 0.023 -0.063 0.043 c 0 0.02 -0.02 0.059 -0.043 0.09 c -0.035 0.039 -0.035 0.047 0 0.027 c 0.023 -0.016 0.055 -0.008 0.066 0.012 c 0.039 0.059 0.098 0.004 0.098 -0.094 m -0.184 -0.129 c -0.008 -0.082 -0.035 -0.148 -0.059 -0.148 c -0.098 0.004 -0.418 0.105 -0.336 0.109 c 0.047 0 0.121 0.02 0.16 0.039 c 0.051 0.027 0.074 0.027 0.074 0 c 0 -0.074 0.078 -0.035 0.113 0.055 c 0.051 0.129 0.063 0.117 0.047 -0.055 m 0.41 0.074 c 0 -0.082 -0.027 -0.09 -0.109 -0.039 c -0.063 0.035 -0.023 0.113 0.055 0.113 c 0.031 0 0.055 -0.035 0.055 -0.074 m -4.641 -0.055 c 0.051 -0.051 0.082 -0.094 0.07 -0.094 c -0.012 0 -0.059 0.043 -0.109 0.094 c -0.047 0.051 -0.078 0.09 -0.07 0.09 c 0.012 0 0.063 -0.039 0.109 -0.09 m 0.641 -0.039 c -0.012 -0.012 -0.035 0.008 -0.047 0.047 c -0.023 0.051 -0.016 0.055 0.02 0.02 c 0.027 -0.023 0.039 -0.055 0.027 -0.066 m 4.684 -0.34 c 0 -0.082 -0.055 -0.051 -0.262 0.152 c -0.125 0.121 -0.191 0.219 -0.176 0.246 c 0.035 0.047 0.438 -0.32 0.438 -0.398 m -1.598 0.383 c -0.047 -0.039 -0.227 -0.059 -0.227 -0.023 c 0 0.02 0.055 0.035 0.121 0.035 c 0.066 0 0.113 -0.004 0.105 -0.012 m -2.375 -0.059 c 0.012 -0.023 0.004 -0.039 -0.016 -0.039 c -0.02 0 -0.047 0.016 -0.063 0.039 c -0.012 0.02 -0.004 0.035 0.016 0.035 c 0.02 0 0.051 -0.016 0.063 -0.035 m 0.277 -0.055 c -0.008 -0.004 -0.039 -0.027 -0.074 -0.051 c -0.055 -0.043 -0.063 -0.039 -0.043 0.023 c 0.012 0.047 0.039 0.066 0.074 0.055 c 0.027 -0.012 0.047 -0.023 0.043 -0.027 m 0.137 -0.023 c -0.012 -0.02 -0.035 -0.027 -0.055 -0.016 c -0.023 0.012 -0.027 0.039 -0.016 0.059 c 0.012 0.02 0.039 0.023 0.059 0.012 c 0.02 -0.012 0.027 -0.035 0.012 -0.055 m 1.598 0.047 c 0.012 -0.02 -0.004 -0.031 -0.035 -0.031 c -0.027 0 -0.043 0.012 -0.035 0.031 c 0.012 0.016 0.027 0.031 0.035 0.031 c 0.008 0 0.023 -0.016 0.035 -0.031 m -2.48 -0.082 c 0.039 0 0.07 -0.02 0.07 -0.039 c 0 -0.023 -0.027 -0.031 -0.059 -0.023 c -0.035 0.016 -0.047 0.004 -0.031 -0.031 c 0.016 -0.039 -0.004 -0.051 -0.07 -0.047 c -0.047 0.004 -0.133 -0.004 -0.184 -0.016 c -0.086 -0.023 -0.082 -0.02 0.008 0.016 c 0.078 0.031 0.105 0.07 0.105 0.137 c 0 0.074 0.012 0.082 0.047 0.051 c 0.023 -0.027 0.074 -0.047 0.113 -0.047 m 0.156 -0.016 c -0.016 -0.063 -0.012 -0.066 0.023 -0.02 c 0.035 0.047 0.039 0.047 0.039 -0.012 c 0 -0.035 -0.023 -0.063 -0.055 -0.063 c -0.031 0 -0.059 0.031 -0.059 0.07 c 0 0.039 -0.027 0.078 -0.066 0.09 c -0.035 0.008 -0.02 0.016 0.035 0.012 c 0.078 -0.004 0.094 -0.02 0.082 -0.078 m 3.41 0.07 c 0 -0.004 -0.023 -0.027 -0.055 -0.055 c -0.047 -0.035 -0.059 -0.035 -0.059 0.008 c 0 0.031 0.027 0.055 0.059 0.055 c 0.031 0 0.055 -0.004 0.055 -0.008 m -3.852 -0.098 c -0.012 -0.031 -0.023 -0.02 -0.023 0.023 c 0 0.039 0.008 0.059 0.02 0.047 c 0.012 -0.012 0.016 -0.043 0.004 -0.07 m 1.617 -0.129 c 0.078 -0.047 0.145 -0.113 0.145 -0.141 c 0 -0.07 -0.453 0.199 -0.453 0.27 c -0.004 0.051 0.051 0.027 0.309 -0.129 m -0.824 0.063 c 0.012 -0.02 0.004 -0.039 -0.02 -0.039 c -0.02 0 -0.039 0.02 -0.039 0.039 c 0 0.02 0.008 0.035 0.016 0.035 c 0.012 0 0.027 -0.016 0.043 -0.035 m 3.641 -0.336 c -0.016 -0.016 -0.207 -0.082 -0.426 -0.148 c -0.453 -0.141 -1.242 -0.504 -1.629 -0.746 c -0.141 -0.09 -0.277 -0.176 -0.305 -0.191 c -0.035 -0.02 -0.047 0.066 -0.047 0.402 c 0 0.395 0.004 0.426 0.074 0.426 c 0.063 0 0.137 0.09 0.121 0.156 c 0 0.016 0.02 0.016 0.051 0.008 c 0.027 -0.012 0.063 0 0.078 0.023 c 0.02 0.031 0.016 0.035 -0.023 0.016 c -0.031 -0.016 -0.039 -0.016 -0.023 0.004 c 0.02 0.02 0.063 0.031 0.098 0.035 c 0.035 0 0.059 0.016 0.055 0.039 c -0.004 0.023 0.016 0.039 0.039 0.039 c 0.023 0.004 0.148 0.063 0.273 0.137 l 0.23 0.133 l 0.199 -0.07 c 0.266 -0.102 0.52 -0.098 0.73 0.012 l 0.172 0.082 l 0.18 -0.164 c 0.098 -0.094 0.168 -0.18 0.152 -0.191 m -4.883 0.16 l -0.129 -0.141 l 0.152 0.137 c 0.148 0.129 0.156 0.133 0.285 0.086 c 0.195 -0.07 0.773 -0.07 0.918 0.004 c 0.109 0.055 0.121 0.051 0.328 -0.063 c 0.121 -0.066 0.316 -0.184 0.438 -0.266 l 0.219 -0.141 v -0.367 c 0 -0.203 -0.008 -0.371 -0.02 -0.371 c -0.012 0 -0.086 0.039 -0.164 0.09 c -0.176 0.105 -0.68 0.355 -0.719 0.355 c -0.016 0 0.141 -0.09 0.352 -0.199 c 0.488 -0.25 0.551 -0.289 0.551 -0.352 c 0 -0.031 -0.066 -0.008 -0.199 0.07 c -0.371 0.215 -1.109 0.547 -1.645 0.738 c -0.527 0.191 -0.727 0.289 -0.496 0.242 c 0.105 -0.02 0.109 -0.02 0.023 0.02 l -0.094 0.039 l 0.148 0.145 c 0.184 0.184 0.23 0.16 0.055 -0.027 m 0.383 -0.344 c 0.031 -0.02 0.074 -0.035 0.094 -0.035 c 0.02 0 0.012 0.016 -0.02 0.035 c -0.031 0.02 -0.074 0.035 -0.094 0.035 c -0.023 0 -0.016 -0.016 0.02 -0.035 m 0.301 -0.109 c 0.031 -0.02 0.074 -0.035 0.098 -0.035 c 0.02 0 0.012 0.016 -0.02 0.035 c -0.031 0.02 -0.074 0.035 -0.094 0.035 c -0.023 0 -0.016 -0.016 0.016 -0.035 m 0.191 -0.074 c 0.031 -0.02 0.074 -0.035 0.094 -0.035 c 0.023 0 0.016 0.016 -0.016 0.035 c -0.031 0.02 -0.074 0.035 -0.098 0.035 c -0.02 0 -0.012 -0.016 0.02 -0.035 m 0.23 -0.094 c 0.051 -0.027 0.109 -0.051 0.133 -0.051 c 0.02 0 -0.008 0.023 -0.059 0.051 c -0.051 0.031 -0.113 0.055 -0.133 0.055 c -0.02 0 0.004 -0.023 0.059 -0.055 m -0.219 0.695 c -0.07 -0.008 -0.18 -0.008 -0.25 0 c -0.066 0.008 -0.012 0.016 0.125 0.016 c 0.137 0 0.191 -0.008 0.125 -0.016 m 3.852 4.762 l -0.379 -0.367 l 0.07 -0.27 c 0.129 -0.496 0.383 -1.039 0.676 -1.461 l 0.109 -0.16 h 0.609 c 0.348 0 0.605 0.016 0.605 0.035 c 0 0.02 -0.102 0.184 -0.227 0.363 c -0.406 0.59 -0.777 1.402 -0.953 2.074 c -0.023 0.086 -0.063 0.156 -0.086 0.156 c -0.027 0 -0.219 -0.168 -0.426 -0.371 m 0.438 0.129 c 0 -0.027 0.051 -0.215 0.117 -0.414 c 0.141 -0.43 0.484 -1.145 0.746 -1.527 c 0.102 -0.152 0.199 -0.297 0.215 -0.324 c 0.02 -0.035 -0.063 -0.047 -0.363 -0.043 h -0.395 l -0.121 0.156 c -0.066 0.09 -0.207 0.316 -0.313 0.508 c -0.105 0.195 -0.191 0.34 -0.191 0.324 c 0 -0.043 0.254 -0.531 0.363 -0.699 c 0.102 -0.16 0.113 -0.219 0.043 -0.219 c -0.109 0 -0.574 0.902 -0.727 1.402 c -0.063 0.207 -0.055 0.266 0.035 0.266 c 0.031 0 0.055 0.02 0.055 0.047 c 0 0.023 0.113 0.152 0.246 0.285 c 0.137 0.129 0.25 0.254 0.25 0.273 c 0 0.023 -0.125 -0.078 -0.277 -0.219 l -0.273 -0.258 l 0.262 0.266 c 0.25 0.254 0.328 0.293 0.328 0.176 m -0.383 -1.145 c 0 -0.02 0.02 -0.063 0.039 -0.094 c 0.02 -0.031 0.035 -0.039 0.035 -0.02 c 0 0.023 -0.016 0.063 -0.035 0.094 c -0.02 0.031 -0.039 0.039 -0.039 0.02 m -7.645 -1.367 c 0 -0.027 0.121 -0.258 0.27 -0.508 c 0.578 -0.977 0.832 -1.555 1.027 -2.355 c 0.148 -0.613 0.145 -0.598 0.199 -0.598 c 0.082 0 0.785 0.715 0.785 0.801 c 0 0.125 -0.211 0.777 -0.379 1.176 c -0.184 0.434 -0.344 0.719 -0.656 1.195 l -0.227 0.34 h -0.512 c -0.41 0 -0.508 -0.008 -0.508 -0.051 m 0.523 -0.492 c 0.148 -0.262 0.289 -0.496 0.313 -0.527 c 0.078 -0.113 -0.148 0.324 -0.34 0.641 c -0.105 0.18 -0.191 0.332 -0.191 0.344 c 0 0.008 0.141 0.016 0.313 0.016 l 0.313 -0.004 l 0.207 -0.297 c 0.418 -0.609 0.832 -1.496 0.98 -2.105 l 0.066 -0.262 l -0.32 -0.313 c -0.176 -0.172 -0.328 -0.305 -0.336 -0.297 c -0.008 0.008 -0.082 0.262 -0.16 0.563 c -0.207 0.789 -0.441 1.328 -0.996 2.27 c -0.125 0.215 -0.238 0.402 -0.246 0.418 c -0.008 0.012 0.016 0.027 0.055 0.027 c 0.055 0 0.145 -0.129 0.344 -0.473 m 0.43 -0.75 c 0.055 -0.113 0.074 -0.133 0.074 -0.086 c 0 0.02 -0.027 0.066 -0.059 0.105 c -0.059 0.07 -0.059 0.066 -0.016 -0.02 m 0.113 -0.242 c 0 -0.02 0.023 -0.078 0.055 -0.129 c 0.031 -0.051 0.055 -0.074 0.055 -0.055 c 0 0.02 -0.023 0.078 -0.055 0.129 c -0.031 0.051 -0.055 0.078 -0.055 0.055 m 0.113 -0.258 c 0 -0.02 0.016 -0.063 0.035 -0.094 c 0.023 -0.027 0.039 -0.039 0.039 -0.016 c 0 0.02 -0.016 0.063 -0.039 0.09 c -0.02 0.031 -0.035 0.039 -0.035 0.02 m 0.074 -0.184 c 0 -0.02 0.02 -0.063 0.039 -0.094 c 0.02 -0.031 0.035 -0.039 0.035 -0.02 c 0 0.023 -0.016 0.063 -0.035 0.094 c -0.02 0.031 -0.039 0.039 -0.039 0.02 m 7.891 1.617 c -0.477 -0.746 -0.785 -1.406 -0.973 -2.074 l -0.082 -0.309 l 0.375 -0.367 c 0.207 -0.203 0.402 -0.363 0.434 -0.359 c 0.031 0.008 0.07 0.07 0.09 0.141 c 0.191 0.723 0.645 1.82 1.113 2.695 c 0.156 0.289 0.281 0.551 0.281 0.582 c 0 0.043 -0.09 0.051 -0.504 0.051 h -0.504 m 0.133 -0.094 c 0 -0.012 -0.098 -0.184 -0.223 -0.379 c -0.223 -0.359 -0.539 -0.941 -0.535 -0.996 c 0 -0.016 0.109 0.172 0.238 0.418 c 0.133 0.242 0.32 0.562 0.418 0.711 l 0.18 0.27 h 0.68 l -0.375 -0.746 c -0.395 -0.773 -0.68 -1.441 -0.859 -2.01 c -0.059 -0.184 -0.109 -0.34 -0.117 -0.352 c -0.02 -0.02 -0.547 0.488 -0.547 0.531 c 0 0.02 -0.027 0.055 -0.063 0.078 c -0.059 0.043 -0.051 0.082 0.086 0.469 c 0.078 0.23 0.258 0.637 0.395 0.902 c 0.344 0.664 0.723 1.246 0.723 1.105 m -0.813 -1.477 c -0.035 -0.094 -0.027 -0.117 0.02 -0.043 c 0.023 0.035 0.031 0.074 0.023 0.086 c -0.012 0.008 -0.031 -0.012 -0.043 -0.043 m -0.074 -0.188 c -0.039 -0.094 -0.027 -0.117 0.016 -0.043 c 0.023 0.039 0.035 0.078 0.023 0.086 c -0.008 0.012 -0.027 -0.008 -0.039 -0.043 m -0.328 -0.945 c 0 -0.016 -0.02 -0.031 -0.039 -0.031 c -0.02 0 -0.039 0.023 -0.039 0.055 c 0 0.031 0.02 0.047 0.039 0.035 c 0.02 -0.012 0.039 -0.039 0.039 -0.059 m 0.348 -0.281 c 0.23 -0.223 0.313 -0.344 0.23 -0.344 c -0.047 0 -0.543 0.496 -0.543 0.543 c 0 0.086 0.051 0.055 0.316 -0.199 m -0.98 0.121 c -0.785 -0.227 -1.465 -0.531 -2.078 -0.93 l -0.375 -0.242 v -0.57 c 0 -0.313 0.016 -0.578 0.035 -0.59 c 0.016 -0.012 0.223 0.105 0.453 0.254 c 0.801 0.52 2 1.039 2.965 1.281 c 0.086 0.02 0.16 0.059 0.16 0.082 c 0 0.055 -0.766 0.805 -0.816 0.805 c -0.023 -0.004 -0.176 -0.043 -0.344 -0.09 m 0.609 -0.793 c -0.961 -0.281 -2.078 -0.797 -2.727 -1.25 c -0.098 -0.066 -0.188 -0.125 -0.199 -0.125 c -0.012 0 -0.023 0.199 -0.023 0.445 c 0 0.348 0.012 0.445 0.051 0.445 c 0.055 0 0.203 0.141 0.188 0.18 c -0.004 0.012 0.012 0.023 0.039 0.023 c 0.023 0 0.148 0.063 0.273 0.145 c 0.555 0.348 1.199 0.637 1.809 0.813 l 0.324 0.09 l 0.34 -0.32 l 0.344 -0.32 m -6.762 0.355 c -0.203 -0.207 -0.371 -0.391 -0.371 -0.41 c 0 -0.035 0.008 -0.039 0.629 -0.25 c 1.145 -0.383 1.941 -0.742 2.57 -1.16 c 0.18 -0.121 0.348 -0.219 0.371 -0.219 c 0.035 0 0.043 0.156 0.035 0.602 l -0.012 0.598 l -0.34 0.215 c -0.406 0.246 -1.063 0.547 -1.75 0.789 c -0.762 0.27 -0.695 0.277 -1.133 -0.164 m 0.199 -0.023 c -0.156 -0.152 -0.266 -0.277 -0.246 -0.277 c 0.023 0 0.164 0.125 0.32 0.273 l 0.281 0.277 l 0.375 -0.129 c 0.824 -0.277 1.336 -0.508 1.887 -0.84 l 0.313 -0.191 v -0.398 c 0 -0.219 -0.008 -0.398 -0.012 -0.398 c -0.008 0 -0.16 0.086 -0.336 0.188 c -0.336 0.199 -0.887 0.48 -0.938 0.477 c -0.016 0 0.164 -0.098 0.398 -0.219 c 0.523 -0.27 0.887 -0.504 0.887 -0.574 c 0 -0.031 -0.113 0.023 -0.309 0.148 c -0.582 0.379 -1.422 0.754 -2.488 1.113 c -0.23 0.074 -0.426 0.145 -0.438 0.152 c -0.008 0.008 0.008 0.031 0.039 0.051 c 0.078 0.047 0.012 0.043 -0.078 -0.004 c -0.043 -0.023 -0.074 -0.031 -0.074 -0.023 c 0 0.035 0.66 0.688 0.68 0.672 c 0.012 -0.012 -0.105 -0.145 -0.262 -0.297 m 0.305 -0.535 c 0.031 -0.02 0.074 -0.035 0.094 -0.035 c 0.023 0 0.016 0.016 -0.016 0.035 c -0.035 0.02 -0.074 0.035 -0.098 0.035 c -0.02 0 -0.012 -0.016 0.02 -0.035 m 0.418 -0.148 c 0.031 -0.02 0.074 -0.035 0.094 -0.035 c 0.023 0 0.016 0.016 -0.016 0.035 c -0.031 0.02 -0.074 0.035 -0.098 0.035 c -0.02 0 -0.012 -0.016 0.02 -0.035 m 0.305 -0.113 c 0.031 -0.02 0.074 -0.035 0.094 -0.035 c 0.023 0 0.016 0.016 -0.016 0.035 c -0.035 0.023 -0.074 0.039 -0.098 0.039 c -0.02 0 -0.012 -0.016 0.02 -0.039 m 0.191 -0.07 c 0.031 -0.023 0.074 -0.039 0.094 -0.039 c 0.02 0 0.012 0.016 -0.02 0.039 c -0.031 0.02 -0.074 0.035 -0.094 0.035 c -0.02 0 -0.012 -0.016 0.02 -0.035 m 0.227 -0.094 c 0.055 -0.031 0.113 -0.055 0.133 -0.055 c 0.023 0 -0.004 0.023 -0.055 0.055 c -0.055 0.027 -0.113 0.051 -0.133 0.051 c -0.023 0 0.004 -0.023 0.055 -0.051 m 5.594 7.898 c 0 -0.113 -0.066 -0.117 -0.086 -0.004 c -0.012 0.078 0 0.102 0.035 0.09 c 0.027 -0.012 0.051 -0.051 0.051 -0.086 m -7.25 -0.691 l 0.262 -0.266 l -0.047 -0.234 c -0.164 -0.805 -0.605 -1.707 -1.117 -2.273 l -0.109 -0.125 h -0.766 l 0.066 0.086 c 0.66 0.871 1.098 1.836 1.262 2.77 c 0.078 0.457 0.047 0.453 0.449 0.043 m -0.641 -1.105 c -0.035 -0.09 -0.023 -0.113 0.02 -0.039 c 0.023 0.035 0.031 0.074 0.023 0.082 c -0.012 0.012 -0.027 -0.008 -0.043 -0.043 m -0.074 -0.184 c -0.039 -0.094 -0.027 -0.117 0.02 -0.043 c 0.02 0.039 0.031 0.078 0.02 0.086 c -0.008 0.012 -0.027 -0.008 -0.039 -0.043 m -0.125 -0.285 c -0.105 -0.227 -0.453 -0.793 -0.625 -1.016 c -0.086 -0.109 -0.137 -0.195 -0.121 -0.195 c 0.078 0 0.887 1.305 0.836 1.352 c -0.008 0.012 -0.047 -0.055 -0.09 -0.141 m 7.785 1.922 c 0 -0.004 -0.117 -0.117 -0.258 -0.25 l -0.258 -0.238 l 0.246 0.25 c 0.23 0.23 0.27 0.266 0.27 0.238 m 0.379 -1.34 c 0.148 -0.418 0.586 -1.285 0.816 -1.625 c 0.094 -0.137 0.172 -0.258 0.172 -0.266 c 0 -0.008 -0.121 -0.016 -0.266 -0.016 c -0.227 0 -0.281 0.016 -0.359 0.086 c -0.125 0.121 -0.441 0.59 -0.664 0.992 c -0.105 0.191 -0.191 0.332 -0.191 0.309 c -0.004 -0.055 0.438 -0.813 0.609 -1.051 c 0.164 -0.23 0.176 -0.262 0.094 -0.262 c -0.121 0 -0.742 1.031 -0.953 1.57 c -0.055 0.141 -0.141 0.395 -0.191 0.566 l -0.094 0.313 l 0.332 0.328 l 0.328 0.332 l 0.121 -0.473 c 0.07 -0.258 0.18 -0.621 0.246 -0.805 m -0.605 -0.258 c 0 -0.02 0.023 -0.078 0.055 -0.129 c 0.031 -0.051 0.055 -0.078 0.055 -0.055 c 0 0.02 -0.023 0.078 -0.055 0.129 c -0.031 0.051 -0.055 0.074 -0.055 0.055 m -7.535 0.242 c -0.047 -0.125 -0.09 -0.219 -0.098 -0.215 c -0.008 0.008 0.023 0.117 0.07 0.242 c 0.047 0.125 0.09 0.219 0.098 0.211 c 0.012 -0.008 -0.023 -0.117 -0.07 -0.238 m -0.184 -0.434 c -0.043 -0.078 -0.078 -0.129 -0.082 -0.117 c 0 0.043 0.125 0.289 0.145 0.273 c 0.008 -0.008 -0.02 -0.078 -0.063 -0.156 m -0.113 -0.242 c -0.039 -0.039 -0.043 -0.035 -0.023 0.02 c 0.016 0.035 0.035 0.055 0.047 0.043 c 0.012 -0.008 0 -0.039 -0.027 -0.066 m 8.367 -4.906 c 0 -0.07 -0.066 -0.141 -0.098 -0.105 c -0.027 0.023 0.027 0.176 0.063 0.176 c 0.02 0 0.035 -0.031 0.035 -0.07 m -1.75 7.84 c 0.031 -0.02 0.074 -0.035 0.094 -0.035 c 0.02 0 0.012 0.016 -0.02 0.035 c -0.031 0.02 -0.074 0.035 -0.094 0.035 c -0.023 0 -0.012 -0.016 0.02 -0.035 m 0.188 -0.074 c 0.031 -0.02 0.074 -0.035 0.098 -0.035 c 0.02 0 0.012 0.016 -0.02 0.035 c -0.031 0.02 -0.074 0.035 -0.094 0.035 c -0.023 0 -0.016 -0.016 0.016 -0.035 m 1.98 -2.02 c 0 -0.02 0.016 -0.063 0.035 -0.094 c 0.023 -0.031 0.039 -0.039 0.039 -0.016 c 0 0.02 -0.016 0.059 -0.039 0.09 c -0.02 0.031 -0.035 0.039 -0.035 0.02 m 0.117 -0.297 c 0 -0.02 0.023 -0.078 0.055 -0.129 c 0.027 -0.051 0.051 -0.074 0.051 -0.055 c 0 0.02 -0.023 0.078 -0.051 0.129 c -0.031 0.051 -0.055 0.074 -0.055 0.055 m 0.328 -3.184 c -0.141 -0.277 -0.129 -0.309 0.016 -0.039 c 0.063 0.117 0.105 0.223 0.098 0.23 c -0.008 0.008 -0.059 -0.078 -0.113 -0.191 m -0.211 -0.445 c -0.066 -0.133 -0.051 -0.164 0.016 -0.039 c 0.031 0.059 0.051 0.113 0.043 0.121 c -0.008 0.008 -0.035 -0.027 -0.059 -0.082 m -0.098 -0.219 c -0.035 -0.094 -0.027 -0.117 0.02 -0.043 c 0.023 0.035 0.031 0.074 0.023 0.086 c -0.012 0.008 -0.031 -0.012 -0.043 -0.043 m -0.074 -0.188 c -0.039 -0.094 -0.027 -0.117 0.016 -0.039 c 0.023 0.035 0.035 0.074 0.023 0.082 c -0.008 0.012 -0.027 -0.008 -0.039 -0.043 m -0.152 -0.406 c -0.039 -0.094 -0.027 -0.117 0.016 -0.043 c 0.023 0.039 0.035 0.078 0.023 0.086 c -0.008 0.012 -0.027 -0.008 -0.039 -0.043"/></svg>