<svg xmlns="http://www.w3.org/2000/svg" viewBox="0 0 16 16"><path d="m 6.262 15.891 c -0.5 -0.051 -1.762 -0.32 -2.281 -0.488 c -1.723 -0.551 -2.918 -1.566 -3.555 -3.01 c -0.324 -0.738 -0.379 -1.082 -0.336 -2.195 c 0.055 -1.398 0.316 -2.242 1.254 -4.055 c 0.793 -1.535 1.508 -2.5 2.656 -3.574 c 1.32 -1.238 2.281 -1.813 3.598 -2.156 c 0.414 -0.105 0.656 -0.129 1.488 -0.125 c 1.094 0 1.219 0.027 2.211 0.52 c 1.305 0.645 3.188 3.137 4.168 5.52 c 0.418 1.012 0.473 1.344 0.473 2.859 l -0.043 1.258 l -0.145 0.508 c -0.711 2.496 -3.215 4.164 -6.57 4.773 c -0.938 0.172 -2.199 0.246 -2.918 0.172" fill="#5f9d9f"/><g fill-rule="evenodd"><path d="m 8.492 5.094 l -4.473 1.879 v 3.758 l 4.473 1.883 l 4.477 -1.883 v -3.758 m -5.164 -0.785 v 2.352 h -1.379 v -1.863 l 1.379 -0.488 m 1.375 0 l 1.379 0.488 v 1.863 h -1.379 v -2.352 m -3.441 0.734 v 1.617 h -1.031 v -1.254 m 6.539 -0.363 l 1.031 0.363 v 1.254 h -1.031 m -6.539 0.625 h 1.031 v 1.621 l -1.031 -0.367 v -1.254 m 1.719 0 h 1.379 v 2.352 l -1.379 -0.488 v -1.863 m 2.754 0 h 1.379 v 1.863 l -1.379 0.488 v -2.352 m 2.066 0 h 1.031 v 1.254 l -1.031 0.367 v -1.621" fill-opacity="0.102"/><path d="m 8.148 4.777 l -4.473 1.883 v 3.758 l 4.473 1.883 m -0.688 -6.426 v 5.328 l -3.098 -1.098 v -3.133" fill="#0d0d71"/></g><g fill="#0d0d71"><path d="m 4.02 8.227 h 3.785 v 0.625 h -3.785"/><path d="m 5.395 6.03 h 0.688 v 5.02 h -0.688"/></g><g fill="#7878b2"><path d="m 8.148 4.777 l 4.473 1.883 v 3.758 l -4.473 1.883 m 0.688 -6.426 v 5.328 l 3.098 -1.098 v -3.133" fill-rule="evenodd"/><path d="m 12.277 8.227 h -3.785 v 0.625 h 3.785"/><path d="m 10.902 6.03 h -0.688 v 5.02 h 0.688"/></g></svg>