<svg xmlns="http://www.w3.org/2000/svg" viewBox="0 0 16 16"><path d="m 3.391 14.5 c 17.13 7.824 15.01 -17.11 3.887 -14.13 c -6.426 1.441 -10.328 10.465 -3.887 14.13" fill="#ffd600"/><path d="m 7.492 3.215 l -0.848 1.504 l 0.848 1.508 h 1.695 l 0.848 -1.508 l -0.848 -1.504 m -4.746 1.504 l -0.848 1.508 l 0.848 1.504 h 1.695 l 0.848 -1.504 l -0.848 -1.508 m 4.406 0 l -0.848 1.508 l 0.848 1.504 h 1.695 l 0.848 -1.504 l -0.848 -1.508 m -7.797 3.613 l -0.848 1.508 l 0.848 1.504 h 1.695 l 0.848 -1.504 l -0.848 -1.508 m 4.406 0 l -0.848 1.508 l 0.848 1.504 h 1.695 l 0.848 -1.504 l -0.848 -1.508 m -4.746 1.508 l -0.848 1.504 l 0.848 1.508 h 1.695 l 0.848 -1.508 l -0.848 -1.504" fill="#e5ab37"/><path d="m 7.492 6.527 l -0.848 1.504 l 0.848 1.508 h 1.695 l 0.848 -1.508 l -0.848 -1.504" fill="#737373"/><path d="m 7.66 7.434 c 0.125 -0.035 0.188 -0.051 0.23 -0.051 c 0.047 0 0.09 0.02 0.105 0.047 c 0.02 0.039 0.02 0.039 0.023 0.207 v 0.918 c 0 0.258 -0.051 0.301 -0.359 0.313 v 0.066 h 1.02 v -0.066 c -0.313 -0.016 -0.355 -0.051 -0.355 -0.313 v -1.426 h -0.066 c -0.137 0.063 -0.285 0.117 -0.598 0.227" fill="#fff"/><path d="m 7.492 3.215 l -0.848 1.504 l 0.848 1.508 h 1.695 l 0.848 -1.508 l -0.848 -1.504 m -1.488 0.301 h 1.277 l 0.68 1.203 l -0.68 1.207 h -1.277 l -0.676 -1.207 m -2.582 0 l -0.848 1.508 l 0.848 1.504 h 1.695 l 0.848 -1.504 l -0.848 -1.508 m 4.406 0 l -0.848 1.508 l 0.848 1.504 h 1.695 l 0.848 -1.504 l -0.848 -1.508 m -7.586 0.305 h 1.273 l 0.68 1.203 l -0.68 1.203 h -1.273 l -0.68 -1.203 m 6.777 -1.203 h 1.277 l 0.68 1.203 l -0.68 1.203 h -1.277 l -0.676 -1.203 m -5.633 2.105 l -0.848 1.508 l 0.848 1.504 h 1.695 l 0.848 -1.504 l -0.848 -1.508 m 4.406 0 l -0.848 1.508 l 0.848 1.504 h 1.695 l 0.848 -1.504 l -0.848 -1.508 m -7.586 0.301 h 1.273 l 0.68 1.207 l -0.68 1.203 h -1.273 l -0.68 -1.203 m 6.777 -1.207 h 1.277 l 0.68 1.207 l -0.68 1.203 h -1.277 l -0.676 -1.203 m -2.582 0 l -0.848 1.504 l 0.848 1.508 h 1.695 l 0.848 -1.508 l -0.848 -1.504 m -1.488 0.301 h 1.277 l 0.68 1.203 l -0.68 1.207 h -1.277 l -0.676 -1.207" fill-opacity="0.149"/></svg>