<svg xmlns="http://www.w3.org/2000/svg" viewBox="0 0 16 16"><path d="m 12.12 1.988 c 14.172 13.172 -15.07 21.469 -11.848 3.984 c 1.59 -4.613 7.301 -8.215 11.848 -3.984" fill="#acd7e5"/><path d="m 5.938 12.12 c -0.094 -0.012 -0.02 0.18 0 0 c 0.027 -0.215 0.012 -0.813 0 -0.973 c -0.004 -0.109 0.602 -0.035 0.664 0 c 0.074 0.043 -0.387 0.055 -0.332 0 c 0.078 -0.074 0.031 -0.191 0.059 -0.191 c 0.027 0 -0.059 0.371 -0.059 0.191 v -0.973 h -0.66 c -0.391 0 -0.996 0.031 -0.996 0 c -0.102 0 -0.746 -0.012 -0.996 0 c 0.035 -0.148 -0.016 -0.793 0 -0.973 c -0.047 -0.043 -0.023 -0.766 0 -1.617 c 0.051 -2.035 -0.09 -2.563 0 -2.594 c 0.043 -0.012 2.074 0 3.98 0 h 3.32 c 0.012 0.113 0.066 0.066 0.008 0.133 c -0.031 0 0 0.602 -0.008 1.488 c 0 0.07 1.328 -0.078 1.328 0 c -0.004 0.406 0.039 1.066 0 1.621 v 2.914 l -2.613 0.004 h -1.223 l 0.184 0.32 v 0.648 h -0.996 c -0.129 -0.066 -0.461 -0.008 -0.664 0 c -0.438 0.016 -0.926 0 -0.992 0" fill="#fdfdfd"/></svg>