<svg xmlns="http://www.w3.org/2000/svg" xmlns:xlink="http://www.w3.org/1999/xlink" viewBox="0 0 16 16"><defs><g id="3" clip-path="url(#2)"><path d="m 5.773 13.395 h -0.43 v -2.723 h -0.973 v -0.352 h 2.375 v 0.352 h -0.973 v 2.723" fill="#fff"/><path d="m 8.844 12.32 h -1.613 c 0 0.258 0.059 0.453 0.172 0.586 c 0.125 0.137 0.305 0.203 0.543 0.203 c 0.273 0 0.535 -0.055 0.785 -0.168 v 0.336 c -0.238 0.102 -0.5 0.152 -0.785 0.152 c -0.352 0 -0.633 -0.102 -0.844 -0.305 c -0.211 -0.199 -0.32 -0.492 -0.32 -0.871 c 0 -0.383 0.102 -0.68 0.301 -0.891 c 0.199 -0.215 0.457 -0.32 0.77 -0.32 c 0.297 0 0.535 0.094 0.711 0.285 c 0.188 0.18 0.281 0.43 0.281 0.754 v 0.238 m -1.613 -0.32 h 1.164 c 0 -0.211 -0.051 -0.371 -0.152 -0.469 c -0.086 -0.113 -0.223 -0.168 -0.41 -0.168 c -0.363 0 -0.563 0.211 -0.602 0.637" fill="#fff"/><path d="m 10.04 12.219 l -0.82 -1.125 h 0.484 l 0.582 0.855 l 0.578 -0.855 h 0.488 l -0.824 1.125 l 0.863 1.176 h -0.469 l -0.637 -0.926 l -0.637 0.926 h -0.488 l 0.879 -1.176" fill="#fff"/></g><clipPath id="2"><path d="M 0,0 H16 V16 H0 z"/></clipPath><filter id="0" filterUnits="objectBoundingBox" x="0" y="0" width="16" height="16"><feColorMatrix type="matrix" in="SourceGraphic" values="0 0 0 0 1 0 0 0 0 1 0 0 0 0 1 0 0 0 1 0"/></filter><mask id="1"><g filter="url(#0)"><path fill-opacity="0.702" d="M 0,0 H16 V16 H0 z"/></g></mask></defs><path d="m 7.777 15.914 c 1.648 -0.129 3.578 -0.918 4.926 -2.02 c 1.637 -1.336 2.836 -3.387 3.156 -5.41 c 0.07 -0.441 0.09 -1.465 0.039 -1.918 c -0.219 -1.887 -1.328 -3.762 -2.945 -4.984 c -0.875 -0.664 -2.035 -1.191 -3.121 -1.426 c -2.832 -0.598 -5.785 0.539 -7.813 3.01 c -1.211 1.484 -1.84 2.977 -1.996 4.746 c -0.184 2.121 0.652 4.391 2.176 5.922 c 1.199 1.203 2.805 1.965 4.328 2.059 c 0.219 0.016 0.492 0.031 0.602 0.039 c 0.109 0.008 0.402 0 0.648 -0.02" fill="#2dbee0"/><path d="m 10.281 8.656 h -1.01 l -2.164 -2.82 l -0.695 0.453 v 2.367 h -0.891 v -5.93 h 0.891 v 2.98 l 2.785 -2.98 h 1 l -2.512 2.594 l 2.59 3.336" fill="#fff"/><use xlink:href="#3" mask="url(#1)"/></svg>