
<svg xmlns="http://www.w3.org/2000/svg" xmlns:xlink="http://www.w3.org/1999/xlink" width="16px" height="16px" viewBox="0 0 16 16" version="1.1">
<g id="surface1">
<path style=" stroke:none;fill-rule:nonzero;fill:rgb(3.529412%,0%,0%);fill-opacity:1;" d="M 12.445312 1.667969 C 0.582031 -6.222656 -6.515625 18.183594 8.953125 15.808594 C 15.632812 15.339844 18.792969 5.285156 12.445312 1.667969 Z M 12.445312 1.667969 "/>
<path style="fill-rule:evenodd;fill:rgb(86.27451%,70.588235%,50.196078%);fill-opacity:1;stroke-width:1;stroke-linecap:butt;stroke-linejoin:miter;stroke:rgb(0%,0%,0%);stroke-opacity:1;stroke-miterlimit:4;" d="M 253.457289 140.108164 C 253.642237 169.254186 238.476524 196.173775 213.63188 210.814253 C 188.848885 225.387264 158.209213 225.387264 133.364569 210.814253 C 108.581574 196.173775 93.354212 169.254186 93.53916 140.108164 C 93.354212 111.02961 108.581574 84.110021 133.364569 69.469542 C 158.209213 54.896532 188.848885 54.896532 213.63188 69.469542 C 238.476524 84.110021 253.642237 111.02961 253.457289 140.108164 Z M 253.457289 140.108164 " transform="matrix(0.0633625,0,0,0.0578981,-3.005,-0.408875)"/>
<path style=" stroke:none;fill-rule:nonzero;fill:rgb(15.686275%,58.431373%,89.411765%);fill-opacity:1;" d="M 3.09375 8.269531 L 3.09375 3 L 12.789062 3 L 12.789062 13.539062 L 3.09375 13.539062 Z M 8.183594 11.5 C 8.355469 11.425781 8.527344 11.371094 8.558594 11.371094 C 8.640625 11.371094 8.761719 11.222656 8.71875 11.175781 C 8.699219 11.15625 8.617188 11.183594 8.535156 11.230469 C 8.453125 11.277344 8.351562 11.316406 8.304688 11.316406 C 8.257812 11.316406 8.148438 11.355469 8.0625 11.398438 C 7.878906 11.496094 7.746094 11.472656 7.484375 11.289062 C 7.375 11.21875 7.214844 11.144531 7.128906 11.128906 C 6.976562 11.105469 6.976562 11.109375 7.171875 11.203125 C 7.285156 11.257812 7.421875 11.355469 7.480469 11.417969 C 7.574219 11.527344 7.726562 11.617188 7.828125 11.625 C 7.847656 11.625 8.007812 11.570312 8.183594 11.5 Z M 6.828125 11.171875 C 6.875 11.140625 6.828125 11.089844 6.664062 11.003906 C 6.503906 10.917969 6.410156 10.824219 6.359375 10.699219 L 6.285156 10.515625 L 6.277344 10.683594 C 6.277344 10.800781 6.320312 10.902344 6.433594 11.03125 C 6.59375 11.214844 6.699219 11.25 6.828125 11.171875 Z M 10.097656 11.015625 C 10.457031 10.945312 10.664062 10.84375 10.777344 10.679688 C 10.886719 10.523438 10.886719 10.519531 10.792969 10.484375 C 10.738281 10.460938 10.675781 10.410156 10.648438 10.363281 C 10.609375 10.289062 10.566406 10.304688 10.339844 10.488281 C 10.191406 10.605469 10.027344 10.699219 9.96875 10.699219 C 9.816406 10.699219 9.578125 10.832031 9.535156 10.9375 C 9.492188 11.050781 9.601562 11.121094 9.761719 11.082031 C 9.832031 11.066406 9.984375 11.035156 10.097656 11.015625 Z M 5.511719 10.734375 C 5.480469 10.703125 5.453125 10.636719 5.453125 10.585938 C 5.453125 10.535156 5.417969 10.492188 5.375 10.492188 C 5.273438 10.492188 5.277344 10.523438 5.410156 10.738281 C 5.476562 10.84375 5.535156 10.894531 5.546875 10.859375 C 5.558594 10.820312 5.542969 10.765625 5.511719 10.734375 Z M 6.21875 10.402344 C 6.207031 10.261719 6.109375 10.15625 5.910156 10.058594 C 5.695312 9.953125 5.679688 9.933594 5.605469 9.617188 C 5.519531 9.257812 5.402344 9.132812 5.402344 9.402344 C 5.402344 9.539062 5.382812 9.5625 5.273438 9.5625 C 5.203125 9.5625 5.144531 9.570312 5.144531 9.582031 C 5.144531 9.597656 5.238281 9.746094 5.351562 9.917969 C 5.464844 10.089844 5.554688 10.265625 5.554688 10.308594 C 5.554688 10.398438 5.625 10.410156 5.75 10.339844 C 5.808594 10.3125 5.894531 10.320312 5.992188 10.363281 C 6.175781 10.445312 6.222656 10.453125 6.21875 10.402344 Z M 11.054688 9.84375 C 11.230469 9.648438 11.324219 9.621094 11.375 9.746094 C 11.445312 9.933594 11.496094 9.734375 11.496094 9.265625 C 11.5 8.667969 11.484375 8.597656 11.351562 8.566406 C 11.296875 8.550781 11.25 8.5 11.25 8.457031 C 11.25 8.339844 11.167969 8.355469 11.074219 8.488281 C 10.953125 8.660156 10.976562 8.816406 11.148438 8.960938 C 11.234375 9.03125 11.300781 9.136719 11.300781 9.191406 C 11.300781 9.316406 11.164062 9.4375 11.039062 9.417969 C 10.972656 9.40625 10.9375 9.441406 10.917969 9.546875 C 10.898438 9.625 10.878906 9.726562 10.871094 9.769531 C 10.859375 9.8125 10.835938 9.886719 10.816406 9.9375 C 10.753906 10.085938 10.878906 10.039062 11.054688 9.84375 Z M 4.757812 9.589844 C 4.902344 9.378906 4.9375 9.28125 4.910156 9.179688 C 4.890625 9.105469 4.867188 9.046875 4.855469 9.046875 C 4.792969 9.046875 4.542969 9.203125 4.460938 9.296875 C 4.367188 9.398438 4.367188 9.410156 4.453125 9.636719 C 4.503906 9.765625 4.550781 9.871094 4.558594 9.871094 C 4.566406 9.871094 4.660156 9.746094 4.761719 9.589844 Z M 5.199219 8.734375 C 5.257812 8.734375 5.402344 8.460938 5.402344 8.351562 C 5.402344 8.292969 5.351562 8.269531 5.242188 8.269531 C 5.082031 8.269531 5.082031 8.273438 5.109375 8.472656 C 5.125 8.617188 5.113281 8.683594 5.0625 8.703125 C 4.980469 8.734375 4.964844 8.921875 5.042969 8.96875 C 5.070312 8.984375 5.097656 9.050781 5.101562 9.113281 C 5.109375 9.175781 5.121094 9.117188 5.132812 8.980469 C 5.140625 8.84375 5.171875 8.734375 5.199219 8.734375 Z M 4.941406 8.296875 C 4.941406 8.253906 4.90625 8.21875 4.863281 8.21875 C 4.820312 8.21875 4.800781 8.25 4.820312 8.296875 C 4.835938 8.339844 4.867188 8.375 4.894531 8.375 C 4.917969 8.375 4.941406 8.339844 4.941406 8.296875 Z M 11.660156 8.164062 C 11.660156 8.136719 11.628906 8.113281 11.585938 8.113281 C 11.503906 8.113281 11.484375 8.175781 11.539062 8.234375 C 11.582031 8.277344 11.660156 8.230469 11.660156 8.164062 Z M 4.441406 7.960938 C 4.40625 7.917969 4.328125 8.082031 4.363281 8.136719 C 4.378906 8.164062 4.410156 8.140625 4.429688 8.085938 C 4.449219 8.03125 4.457031 7.976562 4.441406 7.960938 Z M 12.25 7.828125 C 12.265625 7.753906 12.25 7.640625 12.207031 7.558594 L 12.132812 7.417969 L 12.046875 7.597656 C 11.980469 7.742188 11.972656 7.808594 12.019531 7.925781 C 12.0625 8.046875 12.089844 8.0625 12.144531 8.015625 C 12.183594 7.984375 12.230469 7.898438 12.25 7.828125 Z M 11.84375 7.503906 C 11.765625 6.945312 11.761719 6.925781 11.628906 6.925781 C 11.527344 6.925781 11.507812 6.953125 11.507812 7.085938 C 11.507812 7.1875 11.554688 7.285156 11.636719 7.363281 C 11.722656 7.441406 11.765625 7.535156 11.765625 7.644531 C 11.765625 7.753906 11.785156 7.796875 11.820312 7.777344 C 11.855469 7.753906 11.863281 7.65625 11.84375 7.503906 Z M 4.382812 7.507812 C 4.445312 7.375 4.507812 7.242188 4.519531 7.214844 C 4.566406 7.117188 4.277344 7.242188 4.125 7.386719 C 3.945312 7.554688 3.941406 7.574219 4.03125 7.675781 C 4.152344 7.816406 4.265625 7.761719 4.382812 7.507812 Z M 5.042969 7.082031 C 5.042969 7.054688 5.007812 7.03125 4.964844 7.03125 C 4.921875 7.03125 4.890625 7.054688 4.890625 7.082031 C 4.890625 7.109375 4.921875 7.132812 4.964844 7.132812 C 5.007812 7.132812 5.042969 7.109375 5.042969 7.082031 Z M 11.476562 6.464844 C 11.449219 6.300781 11.410156 6.234375 11.296875 6.175781 C 11.21875 6.132812 11.121094 6.101562 11.078125 6.101562 C 10.941406 6.101562 10.933594 6.203125 11.0625 6.25 C 11.132812 6.277344 11.253906 6.394531 11.335938 6.503906 C 11.417969 6.617188 11.488281 6.703125 11.496094 6.695312 C 11.503906 6.6875 11.496094 6.585938 11.476562 6.464844 Z M 4.878906 6.246094 C 4.746094 6.164062 4.675781 6.195312 4.738281 6.308594 C 4.785156 6.398438 4.808594 6.40625 4.871094 6.355469 C 4.929688 6.300781 4.933594 6.28125 4.878906 6.246094 Z M 10.574219 6.175781 C 10.628906 6.191406 10.710938 6.191406 10.753906 6.175781 C 10.863281 6.132812 10.773438 5.925781 10.609375 5.851562 C 10.484375 5.792969 10.429688 5.851562 10.429688 6.046875 C 10.429688 6.097656 10.394531 6.15625 10.355469 6.171875 C 10.3125 6.1875 10.277344 6.242188 10.277344 6.292969 C 10.28125 6.371094 10.292969 6.367188 10.378906 6.265625 C 10.445312 6.183594 10.511719 6.15625 10.574219 6.175781 Z M 4.199219 6.179688 C 4.265625 6.105469 4.339844 6.046875 4.367188 6.046875 C 4.394531 6.046875 4.449219 5.996094 4.496094 5.925781 C 4.570312 5.808594 4.570312 5.808594 4.445312 5.832031 C 4.375 5.84375 4.300781 5.894531 4.285156 5.9375 C 4.265625 5.984375 4.183594 6.085938 4.097656 6.164062 C 4.011719 6.242188 3.972656 6.308594 4.011719 6.308594 C 4.050781 6.308594 4.136719 6.25 4.199219 6.179688 Z M 5.953125 6.078125 C 5.945312 5.917969 5.9375 5.90625 5.847656 5.960938 C 5.792969 5.996094 5.699219 6.050781 5.640625 6.085938 C 5.535156 6.148438 5.535156 6.148438 5.660156 6.199219 C 5.898438 6.292969 5.957031 6.269531 5.953125 6.078125 Z M 6.027344 5.324219 C 6 5.0625 5.75 4.90625 5.695312 5.117188 C 5.679688 5.183594 5.695312 5.222656 5.734375 5.222656 C 5.773438 5.222656 5.828125 5.292969 5.859375 5.382812 C 5.933594 5.59375 6.050781 5.550781 6.027344 5.324219 Z M 9.582031 5.296875 C 9.609375 5.242188 9.6875 5.128906 9.753906 5.046875 C 9.839844 4.9375 9.855469 4.882812 9.816406 4.839844 C 9.773438 4.796875 9.742188 4.808594 9.707031 4.875 C 9.632812 5.003906 9.535156 4.984375 9.382812 4.804688 C 9.253906 4.648438 9.199219 4.34375 9.300781 4.34375 C 9.332031 4.34375 9.351562 4.320312 9.351562 4.292969 C 9.351562 4.265625 9.304688 4.242188 9.246094 4.242188 C 9.1875 4.242188 9.082031 4.195312 9.011719 4.140625 C 8.890625 4.046875 8.871094 4.042969 8.734375 4.113281 C 8.628906 4.167969 8.582031 4.230469 8.582031 4.320312 C 8.582031 4.433594 8.59375 4.441406 8.6875 4.382812 C 8.757812 4.339844 8.8125 4.335938 8.871094 4.371094 C 8.984375 4.441406 9.25 4.964844 9.25 5.113281 C 9.25 5.25 9.390625 5.441406 9.472656 5.414062 C 9.503906 5.40625 9.550781 5.351562 9.582031 5.296875 Z M 10.722656 5.359375 C 10.710938 5.328125 10.667969 5.304688 10.621094 5.3125 C 10.566406 5.324219 10.53125 5.265625 10.507812 5.105469 C 10.464844 4.84375 10.355469 4.707031 10.195312 4.707031 C 10.023438 4.707031 10.003906 4.785156 10.152344 4.882812 C 10.222656 4.929688 10.328125 5.066406 10.386719 5.1875 C 10.464844 5.347656 10.523438 5.40625 10.617188 5.410156 C 10.691406 5.414062 10.734375 5.394531 10.722656 5.359375 Z M 8.316406 5.109375 C 8.398438 5.023438 8.394531 4.964844 8.304688 4.964844 C 8.261719 4.964844 8.148438 4.894531 8.054688 4.808594 C 7.957031 4.722656 7.867188 4.652344 7.851562 4.652344 C 7.835938 4.652344 7.855469 4.753906 7.890625 4.871094 C 7.933594 5.03125 7.988281 5.101562 8.074219 5.125 C 8.253906 5.175781 8.25 5.175781 8.316406 5.109375 Z M 6.867188 5.0625 C 6.925781 4.96875 6.851562 4.953125 6.65625 5.015625 C 6.488281 5.070312 6.453125 5.066406 6.324219 4.96875 C 6.1875 4.871094 6.019531 4.824219 6.019531 4.886719 C 6.019531 4.902344 6.046875 4.960938 6.082031 5.015625 C 6.136719 5.101562 6.203125 5.117188 6.488281 5.117188 C 6.679688 5.117188 6.847656 5.09375 6.867188 5.0625 Z M 7.191406 4.316406 C 7.234375 4.273438 7.132812 4.1875 7.042969 4.1875 C 6.929688 4.1875 6.914062 4.136719 7 4.046875 C 7.042969 4.003906 7.023438 3.980469 6.921875 3.953125 C 6.761719 3.914062 6.691406 3.957031 6.777344 4.046875 C 6.8125 4.078125 6.839844 4.15625 6.839844 4.214844 C 6.839844 4.277344 6.855469 4.34375 6.875 4.363281 C 6.910156 4.398438 7.144531 4.363281 7.191406 4.316406 Z M 7.632812 4.34375 C 7.617188 4.316406 7.582031 4.292969 7.554688 4.292969 C 7.527344 4.292969 7.507812 4.316406 7.507812 4.34375 C 7.507812 4.371094 7.542969 4.394531 7.585938 4.394531 C 7.628906 4.394531 7.652344 4.371094 7.632812 4.34375 Z M 7.632812 4.34375 "/>
<path style=" stroke:none;fill-rule:nonzero;fill:rgb(31.764706%,38.039216%,87.058824%);fill-opacity:1;" d="M 3.09375 8.269531 L 3.09375 3 L 12.789062 3 L 12.789062 13.539062 L 3.09375 13.539062 Z M 8.183594 11.5 C 8.355469 11.425781 8.527344 11.371094 8.558594 11.371094 C 8.640625 11.371094 8.761719 11.222656 8.71875 11.175781 C 8.699219 11.15625 8.617188 11.183594 8.535156 11.230469 C 8.453125 11.277344 8.351562 11.316406 8.304688 11.316406 C 8.257812 11.316406 8.148438 11.355469 8.0625 11.398438 C 7.878906 11.496094 7.746094 11.472656 7.484375 11.289062 C 7.375 11.21875 7.214844 11.144531 7.128906 11.128906 C 6.976562 11.105469 6.976562 11.109375 7.171875 11.203125 C 7.285156 11.257812 7.421875 11.355469 7.480469 11.417969 C 7.574219 11.527344 7.726562 11.617188 7.828125 11.625 C 7.847656 11.625 8.007812 11.570312 8.183594 11.5 Z M 6.828125 11.171875 C 6.875 11.140625 6.828125 11.089844 6.664062 11.003906 C 6.503906 10.917969 6.410156 10.824219 6.359375 10.699219 L 6.285156 10.515625 L 6.277344 10.683594 C 6.277344 10.800781 6.320312 10.902344 6.433594 11.03125 C 6.59375 11.214844 6.699219 11.25 6.828125 11.171875 Z M 10.097656 11.015625 C 10.457031 10.945312 10.664062 10.84375 10.777344 10.679688 C 10.886719 10.523438 10.886719 10.519531 10.792969 10.484375 C 10.738281 10.460938 10.675781 10.410156 10.648438 10.363281 C 10.609375 10.289062 10.566406 10.304688 10.339844 10.488281 C 10.191406 10.605469 10.027344 10.699219 9.96875 10.699219 C 9.816406 10.699219 9.578125 10.832031 9.535156 10.9375 C 9.492188 11.050781 9.601562 11.121094 9.761719 11.082031 C 9.832031 11.066406 9.984375 11.035156 10.097656 11.015625 Z M 5.511719 10.734375 C 5.480469 10.703125 5.453125 10.636719 5.453125 10.585938 C 5.453125 10.535156 5.417969 10.492188 5.375 10.492188 C 5.273438 10.492188 5.277344 10.523438 5.410156 10.738281 C 5.476562 10.84375 5.535156 10.894531 5.546875 10.859375 C 5.558594 10.820312 5.542969 10.765625 5.511719 10.734375 Z M 7.710938 10.832031 C 7.710938 10.730469 7.863281 10.617188 7.976562 10.636719 C 8.027344 10.644531 8.070312 10.628906 8.070312 10.597656 C 8.070312 10.570312 8.140625 10.507812 8.226562 10.464844 C 8.417969 10.363281 8.378906 10.285156 8.140625 10.285156 C 7.90625 10.285156 7.78125 10.214844 7.683594 10.023438 C 7.589844 9.84375 7.492188 9.820312 7.515625 9.988281 C 7.53125 10.09375 7.511719 10.101562 7.332031 10.089844 C 7.039062 10.074219 6.988281 10.007812 7.007812 9.671875 C 7.027344 9.367188 6.941406 9.148438 6.808594 9.148438 C 6.707031 9.148438 6.71875 9.199219 6.847656 9.339844 C 6.933594 9.433594 6.945312 9.472656 6.898438 9.519531 C 6.828125 9.59375 6.820312 9.84375 6.882812 9.964844 C 6.910156 10.011719 6.941406 10.167969 6.949219 10.3125 C 6.96875 10.558594 6.976562 10.566406 7.113281 10.554688 C 7.191406 10.542969 7.292969 10.566406 7.335938 10.601562 C 7.398438 10.65625 7.425781 10.652344 7.476562 10.582031 C 7.5625 10.464844 7.609375 10.519531 7.609375 10.730469 C 7.609375 10.828125 7.632812 10.90625 7.660156 10.90625 C 7.6875 10.90625 7.710938 10.871094 7.710938 10.832031 Z M 7.324219 10.316406 C 7.269531 10.273438 7.242188 10.222656 7.261719 10.203125 C 7.285156 10.179688 7.355469 10.210938 7.414062 10.273438 C 7.542969 10.402344 7.476562 10.429688 7.324219 10.316406 Z M 9.097656 10.410156 C 9.164062 10.234375 9.160156 10.199219 9.085938 10.273438 C 9.050781 10.308594 8.949219 10.335938 8.855469 10.335938 C 8.75 10.335938 8.6875 10.363281 8.6875 10.40625 C 8.6875 10.507812 8.738281 10.542969 8.902344 10.542969 C 9.011719 10.542969 9.058594 10.511719 9.097656 10.410156 Z M 6.21875 10.402344 C 6.207031 10.261719 6.109375 10.15625 5.910156 10.058594 C 5.695312 9.953125 5.679688 9.933594 5.605469 9.617188 C 5.519531 9.257812 5.402344 9.132812 5.402344 9.402344 C 5.402344 9.539062 5.382812 9.5625 5.273438 9.5625 C 5.203125 9.5625 5.144531 9.570312 5.144531 9.582031 C 5.144531 9.597656 5.238281 9.746094 5.351562 9.917969 C 5.464844 10.089844 5.554688 10.265625 5.554688 10.308594 C 5.554688 10.398438 5.625 10.410156 5.75 10.339844 C 5.808594 10.3125 5.894531 10.320312 5.992188 10.363281 C 6.175781 10.445312 6.222656 10.453125 6.21875 10.402344 Z M 8.527344 10.101562 C 8.402344 9.964844 8.300781 9.941406 8.246094 10.03125 C 8.214844 10.085938 8.367188 10.226562 8.53125 10.292969 C 8.65625 10.34375 8.65625 10.238281 8.527344 10.101562 Z M 9.136719 10.035156 C 9.121094 9.941406 9.144531 9.9375 9.390625 10 C 9.484375 10.019531 9.558594 10.058594 9.558594 10.085938 C 9.558594 10.160156 9.746094 10.132812 9.820312 10.046875 C 9.855469 10 9.941406 9.945312 10.003906 9.917969 C 10.148438 9.863281 10.15625 9.761719 10.019531 9.675781 C 9.925781 9.617188 9.898438 9.628906 9.796875 9.746094 C 9.699219 9.863281 9.660156 9.875 9.488281 9.84375 C 9.335938 9.816406 9.265625 9.761719 9.167969 9.605469 C 9.035156 9.390625 8.890625 9.339844 8.890625 9.511719 C 8.890625 9.566406 8.855469 9.613281 8.8125 9.613281 C 8.726562 9.613281 8.707031 9.429688 8.789062 9.378906 C 8.882812 9.324219 8.839844 9.257812 8.699219 9.242188 C 8.59375 9.230469 8.550781 9.195312 8.539062 9.097656 C 8.527344 9.027344 8.453125 8.902344 8.371094 8.816406 C 8.230469 8.671875 8.222656 8.667969 8.222656 8.777344 C 8.222656 8.839844 8.246094 8.890625 8.273438 8.890625 C 8.304688 8.890625 8.324219 8.921875 8.324219 8.960938 C 8.324219 9 8.382812 9.136719 8.453125 9.257812 C 8.523438 9.382812 8.582031 9.519531 8.582031 9.5625 C 8.582031 9.714844 8.6875 9.769531 8.8125 9.6875 C 8.914062 9.621094 8.933594 9.621094 8.992188 9.6875 C 9.027344 9.734375 9.039062 9.824219 9.019531 9.917969 C 9 10.003906 9 10.101562 9.019531 10.128906 C 9.066406 10.207031 9.152344 10.136719 9.136719 10.035156 Z M 11.050781 9.847656 C 11.230469 9.648438 11.324219 9.621094 11.375 9.746094 C 11.445312 9.933594 11.496094 9.738281 11.496094 9.265625 C 11.496094 8.667969 11.484375 8.597656 11.351562 8.566406 C 11.296875 8.550781 11.25 8.5 11.25 8.457031 C 11.25 8.339844 11.167969 8.355469 11.074219 8.488281 C 10.953125 8.660156 10.976562 8.816406 11.148438 8.960938 C 11.234375 9.03125 11.300781 9.136719 11.300781 9.191406 C 11.300781 9.316406 11.160156 9.4375 11.039062 9.417969 C 10.972656 9.40625 10.9375 9.441406 10.914062 9.546875 C 10.898438 9.625 10.878906 9.726562 10.867188 9.769531 C 10.859375 9.8125 10.835938 9.886719 10.816406 9.9375 C 10.753906 10.085938 10.878906 10.039062 11.050781 9.84375 Z M 6.480469 9.933594 C 6.480469 9.878906 6.367188 9.769531 6.3125 9.769531 C 6.289062 9.769531 6.292969 9.816406 6.324219 9.871094 C 6.378906 9.972656 6.480469 10.015625 6.480469 9.933594 Z M 4.757812 9.59375 C 4.898438 9.378906 4.9375 9.28125 4.910156 9.179688 C 4.890625 9.105469 4.867188 9.046875 4.855469 9.046875 C 4.792969 9.046875 4.542969 9.203125 4.460938 9.296875 C 4.367188 9.398438 4.367188 9.410156 4.453125 9.636719 C 4.503906 9.765625 4.550781 9.871094 4.558594 9.871094 C 4.566406 9.871094 4.65625 9.746094 4.757812 9.589844 Z M 8.25 9.714844 C 8.425781 9.714844 8.441406 9.652344 8.324219 9.375 C 8.265625 9.242188 8.230469 9.101562 8.246094 9.0625 C 8.257812 9.023438 8.214844 8.9375 8.144531 8.867188 L 8.019531 8.742188 L 7.996094 8.855469 C 7.933594 9.171875 7.921875 9.414062 7.960938 9.519531 C 7.988281 9.585938 8.027344 9.683594 8.046875 9.742188 C 8.066406 9.808594 8.089844 9.820312 8.105469 9.78125 C 8.117188 9.746094 8.183594 9.714844 8.25 9.714844 Z M 8.070312 9.277344 C 8.070312 9.234375 8.09375 9.199219 8.121094 9.199219 C 8.148438 9.199219 8.15625 9.234375 8.140625 9.277344 C 8.125 9.320312 8.101562 9.355469 8.089844 9.355469 C 8.078125 9.355469 8.070312 9.320312 8.070312 9.277344 Z M 7.839844 9.558594 C 7.859375 9.5 7.851562 9.425781 7.820312 9.390625 C 7.792969 9.355469 7.78125 9.179688 7.792969 9 L 7.8125 8.671875 L 7.679688 8.707031 C 7.605469 8.722656 7.519531 8.714844 7.484375 8.6875 C 7.40625 8.621094 7.199219 8.675781 7.199219 8.765625 C 7.199219 8.859375 7.296875 8.910156 7.363281 8.847656 C 7.398438 8.8125 7.453125 8.8125 7.527344 8.847656 L 7.640625 8.898438 L 7.515625 9.152344 C 7.375 9.433594 7.390625 9.570312 7.550781 9.527344 C 7.621094 9.507812 7.667969 9.527344 7.691406 9.582031 C 7.734375 9.695312 7.800781 9.6875 7.839844 9.558594 Z M 6.472656 9.488281 C 6.765625 9.480469 6.734375 9.253906 6.441406 9.253906 C 6.367188 9.253906 6.324219 9.21875 6.324219 9.167969 C 6.324219 9.085938 6.320312 9.085938 6.230469 9.167969 C 6.179688 9.214844 6.109375 9.25 6.078125 9.25 C 6.042969 9.25 6.015625 9.324219 6.015625 9.414062 C 6.015625 9.5625 6.027344 9.570312 6.15625 9.53125 C 6.234375 9.511719 6.378906 9.492188 6.472656 9.488281 Z M 10.238281 9.289062 C 10.5 9.261719 10.6875 9.136719 10.6875 8.992188 C 10.6875 8.941406 10.652344 8.886719 10.609375 8.871094 C 10.558594 8.851562 10.53125 8.875 10.53125 8.9375 C 10.53125 9.09375 10.398438 9.171875 10.246094 9.105469 C 10.097656 9.035156 9.949219 9.089844 9.867188 9.25 C 9.78125 9.410156 9.800781 9.484375 9.902344 9.394531 C 9.953125 9.351562 10.105469 9.304688 10.238281 9.289062 Z M 9.507812 9.363281 C 9.507812 9.289062 9.449219 9.257812 9.375 9.285156 C 9.265625 9.328125 9.285156 9.40625 9.402344 9.40625 C 9.460938 9.40625 9.507812 9.386719 9.507812 9.363281 Z M 7.300781 9.167969 C 7.300781 9.078125 7.191406 9.09375 7.15625 9.191406 C 7.148438 9.222656 7.175781 9.25 7.21875 9.25 C 7.261719 9.25 7.300781 9.214844 7.300781 9.171875 Z M 9.25 9.175781 C 9.25 9.078125 9.300781 9.078125 9.488281 9.171875 C 9.644531 9.257812 9.730469 9.214844 9.703125 9.066406 C 9.683594 8.960938 9.355469 8.867188 9.277344 8.945312 C 9.191406 9.03125 9.035156 8.996094 9.007812 8.886719 C 8.992188 8.828125 8.949219 8.792969 8.914062 8.804688 C 8.878906 8.820312 8.800781 8.796875 8.738281 8.75 C 8.511719 8.589844 8.574219 8.746094 8.835938 8.996094 C 9.109375 9.253906 9.25 9.316406 9.25 9.175781 Z M 5.199219 8.734375 C 5.253906 8.734375 5.402344 8.460938 5.402344 8.351562 C 5.402344 8.296875 5.351562 8.269531 5.242188 8.269531 C 5.082031 8.269531 5.082031 8.273438 5.105469 8.472656 C 5.125 8.617188 5.113281 8.683594 5.0625 8.703125 C 4.980469 8.734375 4.964844 8.921875 5.042969 8.96875 C 5.070312 8.984375 5.097656 9.050781 5.101562 9.113281 C 5.109375 9.175781 5.121094 9.117188 5.132812 8.980469 C 5.140625 8.84375 5.171875 8.734375 5.199219 8.734375 Z M 10.085938 8.742188 C 10.148438 8.589844 10.148438 8.589844 10.269531 8.6875 C 10.425781 8.816406 10.5 8.8125 10.429688 8.683594 C 10.355469 8.539062 10.441406 8.398438 10.648438 8.324219 C 10.738281 8.292969 10.890625 8.183594 10.980469 8.078125 C 11.253906 7.773438 11.175781 7.445312 10.851562 7.519531 C 10.773438 7.535156 10.65625 7.53125 10.597656 7.511719 C 10.492188 7.46875 10.488281 7.460938 10.570312 7.296875 C 10.613281 7.203125 10.71875 7.09375 10.800781 7.050781 C 10.933594 6.980469 10.949219 6.949219 10.933594 6.757812 C 10.917969 6.546875 10.910156 6.539062 10.734375 6.523438 C 10.492188 6.503906 10.339844 6.65625 10.433594 6.828125 C 10.472656 6.902344 10.480469 7.046875 10.460938 7.242188 C 10.429688 7.507812 10.4375 7.546875 10.527344 7.59375 C 10.582031 7.625 10.699219 7.648438 10.789062 7.648438 C 10.984375 7.648438 11.027344 7.746094 10.921875 7.949219 C 10.820312 8.152344 10.339844 8.359375 10.175781 8.269531 C 10.03125 8.195312 9.558594 8.339844 9.558594 8.460938 C 9.558594 8.527344 9.515625 8.535156 9.328125 8.511719 C 9.097656 8.480469 8.996094 8.550781 9.1875 8.609375 C 9.234375 8.625 9.316406 8.660156 9.363281 8.6875 C 9.53125 8.777344 9.703125 8.746094 9.722656 8.617188 C 9.742188 8.46875 9.96875 8.421875 9.96875 8.566406 C 9.96875 8.617188 9.941406 8.6875 9.910156 8.71875 C 9.851562 8.78125 9.890625 8.890625 9.972656 8.890625 C 10.003906 8.890625 10.054688 8.824219 10.085938 8.738281 Z M 6.257812 8.582031 C 6.292969 8.511719 6.371094 8.4375 6.429688 8.414062 C 6.609375 8.347656 6.535156 8.191406 6.324219 8.191406 C 6.164062 8.1875 6.144531 8.171875 6.128906 8.035156 C 6.117188 7.953125 6.089844 7.855469 6.0625 7.824219 C 6.035156 7.789062 6.042969 7.742188 6.09375 7.703125 C 6.136719 7.667969 6.171875 7.585938 6.171875 7.523438 C 6.171875 7.457031 6.21875 7.347656 6.273438 7.273438 C 6.359375 7.167969 6.417969 7.144531 6.609375 7.148438 C 6.738281 7.148438 6.855469 7.167969 6.871094 7.195312 C 6.914062 7.265625 7.09375 7.242188 7.09375 7.167969 C 7.09375 7.082031 6.917969 6.914062 6.875 6.960938 C 6.859375 6.976562 6.800781 6.976562 6.75 6.957031 C 6.664062 6.921875 6.664062 6.914062 6.757812 6.847656 C 6.8125 6.804688 6.933594 6.773438 7.027344 6.773438 C 7.164062 6.773438 7.21875 6.738281 7.304688 6.605469 C 7.414062 6.429688 7.410156 6.210938 7.296875 5.910156 L 7.242188 5.765625 L 7.152344 5.886719 C 7.035156 6.042969 6.785156 6.023438 6.710938 5.855469 C 6.632812 5.675781 6.492188 5.660156 6.347656 5.816406 L 6.222656 5.949219 L 6.324219 6.0625 C 6.382812 6.121094 6.429688 6.191406 6.429688 6.214844 C 6.429688 6.289062 6.53125 6.257812 6.6875 6.140625 C 6.832031 6.035156 6.84375 6.035156 6.929688 6.117188 C 7.050781 6.238281 6.953125 6.386719 6.757812 6.386719 C 6.625 6.386719 6.609375 6.402344 6.628906 6.515625 C 6.683594 6.871094 6.671875 6.894531 6.453125 6.933594 C 6.339844 6.953125 6.242188 6.945312 6.230469 6.921875 C 6.222656 6.894531 6.160156 6.875 6.089844 6.875 C 6.023438 6.875 5.964844 6.859375 5.964844 6.835938 C 5.964844 6.730469 5.695312 6.515625 5.558594 6.515625 C 5.363281 6.515625 5.296875 6.609375 5.335938 6.84375 C 5.367188 7.058594 5.488281 7.148438 5.566406 7.011719 C 5.632812 6.886719 5.78125 6.902344 5.746094 7.03125 C 5.730469 7.085938 5.742188 7.148438 5.765625 7.164062 C 5.792969 7.179688 5.800781 7.335938 5.78125 7.519531 C 5.75 7.8125 5.757812 7.851562 5.851562 7.902344 C 5.933594 7.949219 5.949219 7.996094 5.929688 8.203125 C 5.886719 8.660156 6.097656 8.902344 6.257812 8.582031 Z M 6.070312 7.246094 C 6.070312 7.191406 6.105469 7.117188 6.148438 7.078125 C 6.222656 7.019531 6.230469 7.027344 6.214844 7.160156 C 6.195312 7.328125 6.070312 7.402344 6.070312 7.246094 Z M 5.503906 6.726562 C 5.503906 6.660156 5.539062 6.617188 5.585938 6.617188 C 5.632812 6.617188 5.660156 6.652344 5.648438 6.703125 C 5.625 6.832031 5.503906 6.851562 5.503906 6.726562 Z M 7.183594 8.476562 C 7.191406 8.433594 7.175781 8.363281 7.148438 8.324219 C 7.105469 8.257812 7.082031 8.265625 6.988281 8.367188 C 6.894531 8.464844 6.890625 8.496094 6.945312 8.535156 C 7.046875 8.597656 7.167969 8.566406 7.183594 8.476562 Z M 8.890625 8.480469 C 8.890625 8.453125 8.867188 8.417969 8.839844 8.398438 C 8.8125 8.382812 8.789062 8.402344 8.789062 8.449219 C 8.789062 8.492188 8.8125 8.527344 8.839844 8.527344 C 8.867188 8.527344 8.890625 8.507812 8.890625 8.480469 Z M 4.941406 8.296875 C 4.941406 8.253906 4.90625 8.21875 4.863281 8.21875 C 4.820312 8.21875 4.800781 8.25 4.820312 8.296875 C 4.835938 8.339844 4.867188 8.375 4.894531 8.375 C 4.917969 8.375 4.941406 8.339844 4.941406 8.296875 Z M 11.660156 8.164062 C 11.660156 8.136719 11.628906 8.113281 11.585938 8.113281 C 11.503906 8.113281 11.484375 8.175781 11.539062 8.234375 C 11.582031 8.277344 11.660156 8.230469 11.660156 8.164062 Z M 9.710938 8.054688 C 9.867188 7.996094 10.050781 7.949219 10.117188 7.945312 C 10.1875 7.9375 10.25 7.90625 10.261719 7.871094 C 10.292969 7.785156 9.523438 7.832031 9.214844 7.933594 C 9.09375 7.976562 8.957031 8.011719 8.914062 8.011719 C 8.875 8.011719 8.839844 8.046875 8.839844 8.09375 C 8.839844 8.136719 8.859375 8.160156 8.878906 8.148438 C 8.902344 8.132812 8.953125 8.144531 8.996094 8.167969 C 9.085938 8.226562 9.339844 8.1875 9.710938 8.054688 Z M 4.441406 7.960938 C 4.40625 7.917969 4.328125 8.082031 4.363281 8.136719 C 4.378906 8.164062 4.410156 8.140625 4.429688 8.085938 C 4.449219 8.03125 4.457031 7.976562 4.441406 7.960938 Z M 8.328125 8.113281 C 8.328125 8.085938 8.304688 8.0625 8.273438 8.0625 C 8.246094 8.0625 8.222656 8.085938 8.222656 8.113281 C 8.222656 8.144531 8.246094 8.167969 8.273438 8.167969 C 8.304688 8.167969 8.328125 8.144531 8.328125 8.113281 Z M 7.617188 7.953125 C 7.652344 7.851562 7.738281 7.773438 7.894531 7.707031 C 8.019531 7.648438 8.121094 7.578125 8.121094 7.550781 C 8.121094 7.480469 8.035156 7.480469 7.992188 7.546875 C 7.972656 7.578125 7.933594 7.597656 7.898438 7.589844 C 7.789062 7.570312 7.609375 7.65625 7.609375 7.730469 C 7.609375 7.808594 7.355469 7.960938 7.226562 7.960938 C 7.183594 7.960938 7.144531 7.992188 7.144531 8.03125 C 7.144531 8.078125 7.214844 8.101562 7.355469 8.101562 C 7.542969 8.101562 7.574219 8.082031 7.617188 7.953125 Z M 7.84375 7.972656 C 7.792969 7.921875 7.75 8 7.792969 8.070312 C 7.824219 8.125 7.835938 8.125 7.855469 8.070312 C 7.867188 8.035156 7.863281 7.992188 7.84375 7.972656 Z M 6.46875 7.8125 C 6.484375 7.589844 6.417969 7.527344 6.332031 7.691406 C 6.269531 7.804688 6.320312 8.074219 6.394531 8.046875 C 6.425781 8.039062 6.460938 7.933594 6.46875 7.8125 Z M 12.25 7.828125 C 12.265625 7.753906 12.25 7.640625 12.207031 7.558594 L 12.132812 7.417969 L 12.046875 7.597656 C 11.980469 7.742188 11.972656 7.808594 12.019531 7.925781 C 12.0625 8.046875 12.089844 8.0625 12.144531 8.015625 C 12.183594 7.984375 12.230469 7.898438 12.25 7.828125 Z M 7.46875 7.773438 C 7.488281 7.753906 7.445312 7.707031 7.371094 7.667969 C 7.210938 7.585938 7.199219 7.582031 7.199219 7.648438 C 7.199219 7.679688 7.230469 7.703125 7.273438 7.703125 C 7.316406 7.703125 7.351562 7.726562 7.351562 7.753906 C 7.351562 7.8125 7.421875 7.824219 7.46875 7.773438 Z M 11.84375 7.503906 C 11.765625 6.945312 11.761719 6.925781 11.628906 6.925781 C 11.527344 6.925781 11.507812 6.953125 11.507812 7.085938 C 11.507812 7.1875 11.554688 7.285156 11.636719 7.363281 C 11.722656 7.441406 11.765625 7.535156 11.765625 7.644531 C 11.765625 7.753906 11.785156 7.800781 11.820312 7.777344 C 11.855469 7.753906 11.863281 7.65625 11.84375 7.503906 Z M 4.382812 7.507812 C 4.445312 7.375 4.507812 7.242188 4.519531 7.214844 C 4.566406 7.117188 4.277344 7.242188 4.125 7.386719 C 3.945312 7.554688 3.9375 7.574219 4.03125 7.675781 C 4.152344 7.816406 4.265625 7.761719 4.382812 7.507812 Z M 8.628906 7.621094 C 8.644531 7.539062 8.636719 7.535156 8.5625 7.59375 C 8.464844 7.675781 8.453125 7.769531 8.542969 7.742188 C 8.578125 7.730469 8.617188 7.675781 8.628906 7.621094 Z M 9.046875 7.710938 C 9.046875 7.644531 8.984375 7.597656 8.933594 7.628906 C 8.882812 7.664062 8.925781 7.753906 8.996094 7.753906 C 9.023438 7.753906 9.046875 7.734375 9.046875 7.710938 Z M 7.117188 7.488281 C 7.082031 7.433594 6.992188 7.476562 6.992188 7.546875 C 6.992188 7.574219 7.027344 7.582031 7.070312 7.566406 C 7.113281 7.550781 7.132812 7.515625 7.117188 7.488281 Z M 8.273438 7.496094 C 8.273438 7.46875 8.25 7.445312 8.222656 7.445312 C 8.191406 7.445312 8.179688 7.46875 8.199219 7.496094 C 8.214844 7.523438 8.242188 7.546875 8.253906 7.546875 C 8.265625 7.546875 8.273438 7.523438 8.273438 7.496094 Z M 9.402344 7.480469 C 9.402344 7.378906 9.28125 7.132812 9.230469 7.132812 C 9.207031 7.132812 9.203125 7.171875 9.21875 7.214844 C 9.234375 7.261719 9.25 7.351562 9.25 7.421875 C 9.25 7.5 9.28125 7.546875 9.328125 7.546875 C 9.371094 7.546875 9.402344 7.515625 9.402344 7.480469 Z M 10.203125 7.433594 C 10.222656 7.410156 10.207031 7.351562 10.171875 7.3125 C 10.09375 7.21875 9.96875 7.300781 9.96875 7.445312 C 9.96875 7.511719 9.996094 7.53125 10.074219 7.511719 C 10.128906 7.496094 10.1875 7.460938 10.203125 7.433594 Z M 7.609375 7.394531 C 7.609375 7.367188 7.585938 7.332031 7.558594 7.316406 C 7.527344 7.296875 7.503906 7.320312 7.503906 7.363281 C 7.503906 7.40625 7.527344 7.445312 7.558594 7.445312 C 7.585938 7.445312 7.609375 7.421875 7.609375 7.394531 Z M 8.839844 7.203125 C 8.839844 7.097656 8.703125 7.121094 8.671875 7.234375 C 8.65625 7.289062 8.660156 7.347656 8.671875 7.363281 C 8.714844 7.40625 8.839844 7.285156 8.839844 7.203125 Z M 5.042969 7.082031 C 5.042969 7.054688 5.007812 7.03125 4.964844 7.03125 C 4.921875 7.03125 4.890625 7.054688 4.890625 7.082031 C 4.890625 7.109375 4.921875 7.132812 4.964844 7.132812 C 5.007812 7.132812 5.042969 7.109375 5.042969 7.082031 Z M 9.761719 6.960938 C 9.933594 6.914062 10.105469 6.683594 10.023438 6.601562 C 9.980469 6.558594 9.941406 6.558594 9.867188 6.605469 C 9.734375 6.6875 9.710938 6.683594 9.710938 6.59375 C 9.710938 6.550781 9.761719 6.492188 9.820312 6.460938 C 9.902344 6.414062 9.921875 6.367188 9.902344 6.265625 C 9.886719 6.179688 9.90625 6.09375 9.953125 6.039062 C 10.046875 5.933594 9.960938 5.738281 9.820312 5.738281 C 9.765625 5.738281 9.695312 5.703125 9.660156 5.660156 C 9.625 5.621094 9.574219 5.601562 9.542969 5.617188 C 9.511719 5.640625 9.519531 5.671875 9.566406 5.707031 C 9.679688 5.789062 9.773438 5.992188 9.734375 6.058594 C 9.714844 6.089844 9.6875 6.207031 9.679688 6.324219 C 9.667969 6.441406 9.617188 6.578125 9.558594 6.640625 C 9.410156 6.800781 9.425781 7.15625 9.578125 7.035156 C 9.609375 7.011719 9.691406 6.976562 9.761719 6.960938 Z M 8.222656 6.875 C 8.222656 6.855469 8.1875 6.808594 8.148438 6.773438 C 8.105469 6.738281 8.070312 6.675781 8.070312 6.632812 C 8.070312 6.59375 8.105469 6.546875 8.148438 6.53125 C 8.1875 6.515625 8.222656 6.445312 8.222656 6.378906 C 8.222656 6.238281 7.996094 5.84375 7.914062 5.84375 C 7.855469 5.84375 7.855469 5.863281 7.914062 6.121094 C 7.945312 6.25 7.941406 6.363281 7.902344 6.441406 C 7.859375 6.539062 7.867188 6.585938 7.933594 6.660156 C 7.980469 6.710938 8.019531 6.789062 8.019531 6.832031 C 8.019531 6.875 8.03125 6.921875 8.050781 6.941406 C 8.089844 6.980469 8.222656 6.929688 8.222656 6.875 Z M 9.136719 6.835938 C 9.152344 6.746094 9.128906 6.71875 9.046875 6.71875 C 8.984375 6.71875 8.949219 6.742188 8.964844 6.765625 C 8.980469 6.792969 8.957031 6.828125 8.914062 6.84375 C 8.800781 6.886719 8.878906 6.988281 9.011719 6.96875 C 9.082031 6.957031 9.128906 6.910156 9.136719 6.835938 Z M 11.476562 6.464844 C 11.449219 6.300781 11.410156 6.234375 11.296875 6.175781 C 11.21875 6.132812 11.121094 6.101562 11.078125 6.101562 C 10.941406 6.101562 10.933594 6.203125 11.0625 6.253906 C 11.132812 6.277344 11.253906 6.394531 11.335938 6.507812 C 11.417969 6.621094 11.488281 6.707031 11.496094 6.695312 C 11.503906 6.6875 11.496094 6.585938 11.476562 6.464844 Z M 9.300781 6.542969 C 9.300781 6.421875 9.21875 6.320312 9.167969 6.375 C 9.128906 6.414062 9.203125 6.667969 9.253906 6.667969 C 9.28125 6.667969 9.300781 6.613281 9.300781 6.542969 Z M 4.878906 6.246094 C 4.746094 6.164062 4.675781 6.195312 4.738281 6.3125 C 4.78125 6.398438 4.808594 6.40625 4.871094 6.355469 C 4.929688 6.304688 4.933594 6.28125 4.878906 6.246094 Z M 9.125 6.214844 C 9.199219 6.136719 9.289062 6.007812 9.324219 5.925781 C 9.386719 5.78125 9.378906 5.761719 9.207031 5.578125 C 9.101562 5.46875 8.96875 5.324219 8.90625 5.25 C 8.765625 5.085938 8.558594 5.066406 8.609375 5.222656 C 8.628906 5.28125 8.617188 5.324219 8.589844 5.324219 C 8.53125 5.324219 8.378906 5.589844 8.378906 5.691406 C 8.378906 5.730469 8.429688 5.742188 8.527344 5.722656 C 8.707031 5.6875 8.761719 5.746094 8.804688 6.015625 C 8.832031 6.183594 8.914062 6.359375 8.972656 6.359375 C 8.980469 6.359375 9.050781 6.296875 9.125 6.21875 Z M 8.890625 5.789062 C 8.890625 5.761719 8.914062 5.738281 8.941406 5.738281 C 8.972656 5.738281 8.992188 5.761719 8.992188 5.789062 C 8.992188 5.820312 8.972656 5.84375 8.941406 5.84375 C 8.914062 5.84375 8.890625 5.820312 8.890625 5.789062 Z M 10.574219 6.175781 C 10.628906 6.191406 10.710938 6.191406 10.753906 6.175781 C 10.863281 6.132812 10.769531 5.925781 10.609375 5.851562 C 10.480469 5.792969 10.429688 5.851562 10.429688 6.046875 C 10.429688 6.097656 10.394531 6.15625 10.351562 6.171875 C 10.3125 6.1875 10.277344 6.242188 10.277344 6.292969 C 10.28125 6.371094 10.292969 6.367188 10.378906 6.265625 C 10.445312 6.183594 10.511719 6.15625 10.574219 6.175781 Z M 4.199219 6.179688 C 4.265625 6.105469 4.339844 6.050781 4.367188 6.050781 C 4.394531 6.050781 4.449219 5.996094 4.496094 5.925781 C 4.570312 5.8125 4.570312 5.808594 4.445312 5.832031 C 4.375 5.84375 4.300781 5.894531 4.285156 5.9375 C 4.265625 5.984375 4.183594 6.085938 4.097656 6.164062 C 4.011719 6.242188 3.972656 6.308594 4.011719 6.308594 C 4.050781 6.308594 4.136719 6.25 4.199219 6.179688 Z M 5.953125 6.078125 C 5.945312 5.917969 5.9375 5.90625 5.847656 5.960938 C 5.792969 5.996094 5.699219 6.050781 5.640625 6.085938 C 5.535156 6.148438 5.535156 6.148438 5.660156 6.199219 C 5.898438 6.292969 5.957031 6.269531 5.953125 6.078125 Z M 8.402344 6.101562 C 8.460938 6.011719 8.378906 5.933594 8.296875 6 C 8.257812 6.035156 8.222656 6.082031 8.222656 6.105469 C 8.222656 6.167969 8.363281 6.164062 8.402344 6.101562 Z M 7.789062 5.519531 C 7.734375 5.335938 7.566406 5.21875 7.410156 5.253906 C 7.175781 5.304688 7.148438 5.320312 7.148438 5.398438 C 7.148438 5.511719 7.230469 5.542969 7.34375 5.472656 C 7.425781 5.421875 7.46875 5.429688 7.589844 5.523438 C 7.78125 5.664062 7.828125 5.664062 7.789062 5.519531 Z M 6.027344 5.324219 C 6 5.0625 5.75 4.90625 5.695312 5.117188 C 5.679688 5.183594 5.695312 5.222656 5.734375 5.222656 C 5.773438 5.222656 5.828125 5.292969 5.859375 5.382812 C 5.929688 5.59375 6.050781 5.550781 6.027344 5.324219 Z M 10.011719 5.445312 C 9.984375 5.316406 9.867188 5.300781 9.867188 5.425781 C 9.867188 5.488281 9.898438 5.53125 9.945312 5.53125 C 9.996094 5.53125 10.019531 5.496094 10.011719 5.445312 Z M 9.582031 5.296875 C 9.609375 5.242188 9.6875 5.128906 9.753906 5.046875 C 9.839844 4.9375 9.855469 4.882812 9.816406 4.839844 C 9.773438 4.796875 9.742188 4.808594 9.707031 4.875 C 9.632812 5.003906 9.535156 4.984375 9.382812 4.804688 C 9.253906 4.648438 9.199219 4.34375 9.300781 4.34375 C 9.328125 4.34375 9.351562 4.320312 9.351562 4.292969 C 9.351562 4.265625 9.304688 4.242188 9.246094 4.242188 C 9.1875 4.242188 9.082031 4.195312 9.007812 4.140625 C 8.890625 4.046875 8.867188 4.042969 8.730469 4.113281 C 8.628906 4.167969 8.582031 4.230469 8.582031 4.320312 C 8.582031 4.433594 8.59375 4.441406 8.6875 4.382812 C 8.757812 4.339844 8.8125 4.335938 8.871094 4.371094 C 8.984375 4.445312 9.25 4.964844 9.25 5.113281 C 9.25 5.25 9.390625 5.441406 9.472656 5.414062 C 9.503906 5.40625 9.550781 5.351562 9.582031 5.296875 Z M 10.722656 5.359375 C 10.710938 5.328125 10.667969 5.304688 10.621094 5.3125 C 10.566406 5.324219 10.53125 5.265625 10.507812 5.105469 C 10.464844 4.84375 10.355469 4.707031 10.195312 4.707031 C 10.023438 4.707031 10.003906 4.785156 10.152344 4.882812 C 10.222656 4.929688 10.328125 5.066406 10.386719 5.1875 C 10.464844 5.347656 10.523438 5.40625 10.617188 5.410156 C 10.691406 5.414062 10.734375 5.394531 10.722656 5.359375 Z M 8.316406 5.109375 C 8.398438 5.023438 8.394531 4.964844 8.304688 4.964844 C 8.261719 4.964844 8.148438 4.894531 8.050781 4.808594 C 7.957031 4.722656 7.867188 4.652344 7.851562 4.652344 C 7.835938 4.652344 7.851562 4.753906 7.890625 4.871094 C 7.933594 5.03125 7.988281 5.101562 8.074219 5.125 C 8.253906 5.175781 8.25 5.175781 8.316406 5.109375 Z M 6.867188 5.0625 C 6.925781 4.96875 6.851562 4.953125 6.65625 5.015625 C 6.488281 5.070312 6.453125 5.066406 6.324219 4.96875 C 6.1875 4.871094 6.019531 4.824219 6.019531 4.886719 C 6.019531 4.902344 6.046875 4.960938 6.082031 5.015625 C 6.132812 5.101562 6.203125 5.117188 6.488281 5.117188 C 6.679688 5.117188 6.847656 5.09375 6.867188 5.0625 Z M 7.191406 4.316406 C 7.230469 4.273438 7.132812 4.1875 7.042969 4.1875 C 6.929688 4.1875 6.914062 4.136719 7 4.046875 C 7.042969 4.003906 7.023438 3.980469 6.921875 3.953125 C 6.761719 3.914062 6.691406 3.957031 6.777344 4.046875 C 6.8125 4.078125 6.839844 4.15625 6.839844 4.21875 C 6.839844 4.277344 6.855469 4.34375 6.875 4.363281 C 6.910156 4.398438 7.144531 4.363281 7.191406 4.316406 Z M 7.632812 4.34375 C 7.617188 4.316406 7.582031 4.292969 7.554688 4.292969 C 7.527344 4.292969 7.507812 4.316406 7.507812 4.34375 C 7.507812 4.371094 7.542969 4.394531 7.585938 4.394531 C 7.628906 4.394531 7.652344 4.371094 7.632812 4.34375 Z M 7.632812 4.34375 "/>
<path style=" stroke:none;fill-rule:nonzero;fill:rgb(56.470588%,43.529412%,33.72549%);fill-opacity:1;" d="M 3.09375 8.269531 L 3.09375 3 L 12.789062 3 L 12.789062 8.269531 L 12.792969 13.539062 L 3.09375 13.539062 Z M 8.183594 11.5 C 8.355469 11.425781 8.527344 11.371094 8.558594 11.371094 C 8.640625 11.371094 8.761719 11.222656 8.71875 11.175781 C 8.699219 11.15625 8.617188 11.183594 8.535156 11.230469 C 8.453125 11.277344 8.351562 11.316406 8.304688 11.316406 C 8.257812 11.316406 8.148438 11.355469 8.0625 11.398438 C 7.878906 11.496094 7.746094 11.472656 7.484375 11.289062 C 7.375 11.21875 7.214844 11.144531 7.128906 11.128906 C 6.976562 11.105469 6.976562 11.109375 7.171875 11.203125 C 7.285156 11.257812 7.421875 11.355469 7.480469 11.417969 C 7.574219 11.527344 7.726562 11.617188 7.828125 11.625 C 7.847656 11.625 8.007812 11.570312 8.183594 11.5 Z M 6.828125 11.171875 C 6.875 11.140625 6.828125 11.089844 6.664062 11.003906 C 6.503906 10.917969 6.410156 10.824219 6.359375 10.699219 L 6.285156 10.515625 L 6.277344 10.683594 C 6.277344 10.800781 6.320312 10.902344 6.433594 11.03125 C 6.59375 11.214844 6.699219 11.25 6.828125 11.171875 Z M 8.027344 11.058594 C 7.878906 10.9375 7.921875 10.851562 8.128906 10.851562 C 8.269531 10.851562 8.285156 10.839844 8.253906 10.722656 C 8.226562 10.617188 8.246094 10.582031 8.355469 10.53125 C 8.472656 10.476562 8.5 10.484375 8.5625 10.570312 C 8.628906 10.660156 8.621094 10.675781 8.5 10.738281 C 8.40625 10.789062 8.382812 10.828125 8.421875 10.867188 C 8.460938 10.90625 8.5 10.902344 8.558594 10.851562 C 8.609375 10.808594 8.75 10.789062 8.933594 10.792969 C 9.214844 10.804688 9.457031 10.722656 9.3125 10.664062 C 9.222656 10.628906 9.234375 10.410156 9.332031 10.3125 C 9.382812 10.261719 9.503906 10.234375 9.65625 10.234375 C 9.824219 10.234375 9.925781 10.203125 9.980469 10.140625 C 10.121094 9.980469 10.242188 9.695312 10.234375 9.550781 C 10.226562 9.429688 10.25 9.402344 10.421875 9.355469 C 10.535156 9.328125 10.652344 9.269531 10.6875 9.226562 C 10.761719 9.136719 10.820312 8.726562 10.757812 8.738281 C 10.636719 8.761719 10.539062 8.726562 10.511719 8.652344 C 10.472656 8.546875 10.566406 8.425781 10.683594 8.425781 C 10.777344 8.425781 11.101562 8.105469 11.195312 7.917969 C 11.246094 7.824219 11.238281 7.742188 11.171875 7.503906 C 11.125 7.34375 11.0625 7.183594 11.035156 7.144531 C 11.003906 7.109375 10.996094 6.992188 11.015625 6.875 C 11.039062 6.730469 11.023438 6.617188 10.96875 6.511719 C 10.902344 6.378906 10.867188 6.363281 10.75 6.390625 C 10.671875 6.40625 10.554688 6.457031 10.488281 6.5 C 10.367188 6.574219 10.363281 6.609375 10.457031 6.953125 C 10.46875 7.011719 10.441406 7.109375 10.386719 7.175781 C 10.304688 7.289062 10.28125 7.292969 10.179688 7.230469 C 10.078125 7.167969 10.054688 7.171875 9.964844 7.28125 C 9.796875 7.484375 9.867188 7.800781 10.042969 7.652344 C 10.09375 7.609375 10.171875 7.605469 10.3125 7.644531 C 10.417969 7.671875 10.570312 7.710938 10.652344 7.726562 C 10.730469 7.742188 10.808594 7.792969 10.824219 7.835938 C 10.863281 7.941406 10.695312 8.113281 10.550781 8.113281 C 10.484375 8.113281 10.429688 8.140625 10.429688 8.171875 C 10.429688 8.214844 10.351562 8.222656 10.179688 8.199219 C 9.988281 8.171875 9.875 8.1875 9.6875 8.269531 C 9.472656 8.363281 9.453125 8.382812 9.515625 8.460938 C 9.578125 8.539062 9.5625 8.542969 9.339844 8.511719 C 9.1875 8.492188 9.097656 8.5 9.097656 8.53125 C 9.097656 8.558594 9.136719 8.59375 9.1875 8.609375 C 9.234375 8.625 9.316406 8.660156 9.363281 8.6875 C 9.5 8.761719 9.710938 8.746094 9.710938 8.664062 C 9.710938 8.570312 9.867188 8.507812 9.933594 8.574219 C 9.96875 8.609375 9.960938 8.65625 9.917969 8.710938 C 9.863281 8.773438 9.863281 8.804688 9.914062 8.851562 C 9.960938 8.902344 9.992188 8.894531 10.046875 8.820312 C 10.113281 8.730469 10.121094 8.730469 10.277344 8.84375 C 10.363281 8.910156 10.410156 8.972656 10.378906 8.984375 C 10.347656 8.996094 10.296875 8.976562 10.257812 8.949219 C 10.210938 8.910156 10.144531 8.921875 10.019531 9 C 9.859375 9.101562 9.84375 9.101562 9.78125 9.019531 C 9.75 8.972656 9.632812 8.910156 9.523438 8.886719 C 9.25 8.824219 9.199219 8.828125 9.199219 8.914062 C 9.199219 8.957031 9.164062 8.992188 9.125 8.992188 C 9.019531 8.992188 8.972656 8.894531 9.0625 8.859375 C 9.15625 8.824219 9.117188 8.683594 9.011719 8.683594 C 8.972656 8.683594 8.925781 8.71875 8.910156 8.761719 C 8.882812 8.832031 8.863281 8.832031 8.753906 8.757812 C 8.515625 8.601562 8.5625 8.738281 8.835938 8.996094 C 9.09375 9.238281 9.25 9.316406 9.25 9.199219 C 9.25 9.171875 9.292969 9.148438 9.34375 9.148438 C 9.472656 9.148438 9.828125 9.527344 9.804688 9.644531 C 9.78125 9.769531 9.519531 9.808594 9.476562 9.695312 C 9.457031 9.648438 9.40625 9.613281 9.355469 9.613281 C 9.308594 9.613281 9.199219 9.539062 9.113281 9.445312 C 8.8125 9.121094 8.550781 8.890625 8.484375 8.890625 C 8.449219 8.890625 8.375 8.835938 8.324219 8.773438 C 8.242188 8.675781 8.226562 8.671875 8.226562 8.746094 C 8.222656 8.851562 8.167969 8.863281 8.082031 8.777344 C 8.039062 8.734375 8.019531 8.75 8 8.84375 C 7.933594 9.167969 7.921875 9.410156 7.964844 9.519531 C 7.988281 9.585938 8.023438 9.683594 8.042969 9.742188 C 8.070312 9.824219 8.085938 9.828125 8.121094 9.769531 C 8.15625 9.710938 8.179688 9.710938 8.242188 9.761719 C 8.304688 9.816406 8.308594 9.84375 8.25 9.957031 C 8.210938 10.03125 8.191406 10.121094 8.207031 10.160156 C 8.242188 10.253906 7.96875 10.257812 7.855469 10.167969 C 7.742188 10.074219 7.710938 9.890625 7.792969 9.785156 C 7.882812 9.664062 7.890625 9.0625 7.800781 9.027344 C 7.75 9.007812 7.75 8.992188 7.796875 8.957031 C 7.886719 8.894531 7.820312 8.683594 7.714844 8.683594 C 7.667969 8.683594 7.601562 8.65625 7.566406 8.621094 C 7.535156 8.585938 7.503906 8.582031 7.503906 8.609375 C 7.503906 8.636719 7.445312 8.660156 7.375 8.664062 C 7.28125 8.671875 7.25 8.652344 7.269531 8.601562 C 7.285156 8.5625 7.277344 8.527344 7.253906 8.527344 C 7.171875 8.527344 7.148438 8.300781 7.226562 8.253906 C 7.265625 8.230469 7.300781 8.179688 7.300781 8.136719 C 7.300781 8.082031 7.335938 8.070312 7.429688 8.09375 C 7.539062 8.121094 7.566406 8.105469 7.613281 7.96875 C 7.648438 7.863281 7.691406 7.820312 7.742188 7.839844 C 7.78125 7.855469 7.8125 7.839844 7.8125 7.808594 C 7.8125 7.773438 7.917969 7.703125 8.042969 7.644531 C 8.292969 7.535156 8.328125 7.453125 8.183594 7.308594 C 8.101562 7.222656 8.09375 7.222656 8.078125 7.34375 C 8.058594 7.492188 7.976562 7.601562 7.894531 7.589844 C 7.769531 7.570312 7.566406 7.660156 7.589844 7.730469 C 7.617188 7.796875 7.371094 7.960938 7.238281 7.960938 C 7.203125 7.960938 7.140625 8.007812 7.105469 8.0625 C 7.070312 8.121094 6.996094 8.167969 6.941406 8.167969 C 6.8125 8.167969 6.808594 8.246094 6.929688 8.316406 C 7.007812 8.363281 7.007812 8.378906 6.941406 8.425781 C 6.871094 8.472656 6.871094 8.480469 6.941406 8.527344 C 6.984375 8.554688 7.042969 8.578125 7.078125 8.578125 C 7.109375 8.578125 7.160156 8.648438 7.191406 8.734375 C 7.21875 8.820312 7.269531 8.890625 7.304688 8.890625 C 7.335938 8.890625 7.277344 8.96875 7.171875 9.070312 L 6.976562 9.25 L 6.765625 9.058594 C 6.429688 8.757812 6.398438 8.683594 6.507812 8.453125 C 6.582031 8.296875 6.585938 8.238281 6.539062 8.160156 C 6.449219 8.019531 6.464844 7.886719 6.582031 7.75 L 6.6875 7.628906 L 6.554688 7.558594 C 6.484375 7.519531 6.378906 7.503906 6.320312 7.523438 C 6.222656 7.554688 6.222656 7.550781 6.316406 7.382812 C 6.429688 7.175781 6.648438 7.132812 6.921875 7.261719 C 7.023438 7.308594 7.132812 7.335938 7.171875 7.320312 C 7.210938 7.304688 7.289062 7.351562 7.34375 7.421875 C 7.457031 7.566406 7.53125 7.582031 7.578125 7.464844 C 7.617188 7.359375 7.574219 7.285156 7.488281 7.316406 C 7.453125 7.332031 7.324219 7.238281 7.203125 7.113281 C 6.992188 6.894531 6.984375 6.882812 7.085938 6.828125 C 7.144531 6.796875 7.226562 6.773438 7.269531 6.773438 C 7.320312 6.773438 7.351562 6.726562 7.351562 6.652344 C 7.351562 6.589844 7.375 6.511719 7.398438 6.484375 C 7.457031 6.429688 7.355469 5.738281 7.289062 5.738281 C 7.265625 5.738281 7.25 5.703125 7.25 5.65625 C 7.25 5.585938 7.285156 5.578125 7.441406 5.609375 C 7.675781 5.652344 7.71875 5.695312 7.835938 6.011719 C 7.910156 6.21875 7.914062 6.285156 7.863281 6.414062 C 7.808594 6.542969 7.8125 6.582031 7.875 6.65625 C 7.917969 6.707031 7.976562 6.816406 8.003906 6.902344 C 8.03125 6.988281 8.09375 7.0625 8.144531 7.074219 C 8.226562 7.089844 8.234375 7.0625 8.210938 6.855469 C 8.191406 6.671875 8.203125 6.617188 8.257812 6.617188 C 8.308594 6.617188 8.320312 6.570312 8.296875 6.414062 C 8.269531 6.242188 8.277344 6.210938 8.371094 6.179688 C 8.492188 6.140625 8.511719 6.050781 8.417969 5.957031 C 8.316406 5.851562 8.449219 5.757812 8.597656 5.828125 C 8.738281 5.890625 8.804688 6.203125 8.753906 6.53125 C 8.730469 6.679688 8.742188 6.71875 8.804688 6.71875 C 8.847656 6.71875 8.898438 6.667969 8.917969 6.605469 C 8.9375 6.539062 9.027344 6.394531 9.121094 6.28125 C 9.210938 6.167969 9.328125 6 9.378906 5.90625 C 9.542969 5.625 9.652344 5.730469 9.632812 6.152344 C 9.617188 6.464844 9.445312 6.847656 9.226562 7.070312 C 9.105469 7.1875 9.101562 7.210938 9.171875 7.289062 C 9.214844 7.335938 9.25 7.414062 9.25 7.460938 C 9.25 7.507812 9.289062 7.546875 9.332031 7.546875 C 9.398438 7.546875 9.410156 7.511719 9.386719 7.398438 C 9.363281 7.277344 9.386719 7.230469 9.507812 7.140625 C 9.589844 7.082031 9.699219 7.03125 9.753906 7.03125 C 9.804688 7.03125 9.902344 6.972656 9.96875 6.902344 C 10.035156 6.832031 10.132812 6.773438 10.183594 6.773438 C 10.3125 6.773438 10.300781 6.734375 10.121094 6.566406 C 9.972656 6.425781 9.914062 6.191406 10.015625 6.128906 C 10.039062 6.113281 10.070312 6.027344 10.085938 5.933594 C 10.101562 5.839844 10.140625 5.652344 10.175781 5.515625 C 10.226562 5.300781 10.222656 5.253906 10.148438 5.167969 C 10.066406 5.078125 10.050781 5.078125 9.933594 5.15625 C 9.867188 5.199219 9.777344 5.300781 9.738281 5.378906 C 9.699219 5.453125 9.59375 5.546875 9.507812 5.582031 C 9.324219 5.660156 9.269531 5.625 9.039062 5.289062 C 8.902344 5.089844 8.863281 5.066406 8.683594 5.066406 C 8.515625 5.066406 8.480469 5.085938 8.480469 5.167969 C 8.480469 5.222656 8.460938 5.28125 8.4375 5.296875 C 8.410156 5.3125 8.375 5.441406 8.355469 5.585938 C 8.316406 5.878906 8.234375 5.945312 8.050781 5.824219 C 7.96875 5.769531 7.902344 5.652344 7.859375 5.480469 C 7.816406 5.3125 7.753906 5.195312 7.6875 5.160156 C 7.628906 5.128906 7.542969 5.070312 7.492188 5.027344 C 7.410156 4.953125 7.410156 4.945312 7.492188 4.882812 C 7.578125 4.820312 7.578125 4.8125 7.484375 4.742188 C 7.382812 4.667969 7.167969 4.683594 7.113281 4.769531 C 7.09375 4.800781 7.125 4.855469 7.175781 4.898438 C 7.265625 4.964844 7.265625 4.976562 7.191406 5.03125 C 7.058594 5.132812 7.03125 5.304688 7.117188 5.476562 C 7.222656 5.675781 7.222656 5.671875 7.039062 5.765625 C 6.898438 5.839844 6.871094 5.839844 6.796875 5.773438 C 6.75 5.730469 6.644531 5.667969 6.558594 5.636719 C 6.425781 5.585938 6.398438 5.59375 6.292969 5.722656 C 6.136719 5.914062 6.140625 5.988281 6.332031 6.21875 C 6.53125 6.464844 6.507812 6.640625 6.269531 6.6875 C 6.148438 6.710938 6.074219 6.691406 5.949219 6.597656 C 5.695312 6.40625 5.46875 6.375 5.324219 6.515625 C 5.253906 6.578125 5.148438 6.636719 5.082031 6.644531 C 4.898438 6.664062 4.890625 6.664062 4.890625 6.707031 C 4.890625 6.730469 4.980469 6.789062 5.09375 6.835938 C 5.226562 6.894531 5.300781 6.960938 5.300781 7.019531 C 5.300781 7.078125 5.375 7.148438 5.503906 7.203125 C 5.734375 7.304688 5.757812 7.382812 5.605469 7.519531 C 5.46875 7.648438 5.476562 7.679688 5.691406 7.882812 C 5.855469 8.042969 5.871094 8.082031 5.847656 8.253906 C 5.75 8.933594 5.75 8.96875 5.832031 9.039062 C 5.90625 9.101562 5.914062 9.089844 5.914062 8.945312 C 5.914062 8.800781 5.929688 8.785156 6.019531 8.8125 C 6.078125 8.832031 6.15625 8.820312 6.195312 8.789062 C 6.304688 8.695312 6.324219 8.796875 6.230469 8.992188 C 6.164062 9.132812 6.117188 9.171875 6.03125 9.15625 C 5.9375 9.144531 5.914062 9.167969 5.914062 9.265625 C 5.914062 9.332031 5.890625 9.410156 5.859375 9.441406 C 5.789062 9.515625 6.015625 9.882812 6.109375 9.847656 C 6.214844 9.808594 6.785156 10.292969 6.785156 10.425781 C 6.789062 10.582031 6.941406 10.710938 7.234375 10.796875 C 7.367188 10.835938 7.554688 10.933594 7.648438 11.015625 C 7.761719 11.113281 7.871094 11.164062 7.980469 11.160156 L 8.148438 11.160156 Z M 8.707031 10.246094 C 8.691406 10.195312 8.632812 10.070312 8.578125 9.96875 C 8.523438 9.863281 8.480469 9.742188 8.480469 9.695312 C 8.480469 9.648438 8.445312 9.539062 8.398438 9.453125 C 8.355469 9.367188 8.328125 9.246094 8.335938 9.183594 C 8.351562 9.089844 8.371094 9.105469 8.46875 9.289062 C 8.53125 9.40625 8.582031 9.539062 8.582031 9.578125 C 8.582031 9.6875 8.707031 9.777344 8.769531 9.714844 C 8.800781 9.683594 8.863281 9.675781 8.910156 9.695312 C 8.980469 9.722656 8.992188 9.769531 8.964844 9.949219 C 8.9375 10.125 8.949219 10.171875 9.019531 10.199219 C 9.144531 10.25 9.058594 10.335938 8.886719 10.335938 C 8.785156 10.335938 8.722656 10.304688 8.707031 10.246094 Z M 7.175781 9.808594 C 7.050781 9.632812 7.078125 9.464844 7.25 9.320312 C 7.332031 9.25 7.402344 9.160156 7.402344 9.125 C 7.402344 9.0625 7.5625 8.890625 7.617188 8.890625 C 7.632812 8.890625 7.585938 9.003906 7.515625 9.148438 C 7.375 9.433594 7.390625 9.570312 7.554688 9.527344 C 7.714844 9.484375 7.683594 9.617188 7.5 9.78125 C 7.308594 9.953125 7.277344 9.957031 7.175781 9.808594 Z M 8.738281 9.535156 C 8.738281 9.492188 8.761719 9.457031 8.789062 9.457031 C 8.816406 9.457031 8.839844 9.492188 8.839844 9.535156 C 8.839844 9.578125 8.816406 9.613281 8.789062 9.613281 C 8.761719 9.613281 8.738281 9.578125 8.738281 9.535156 Z M 8.070312 9.277344 C 8.070312 9.234375 8.09375 9.199219 8.121094 9.199219 C 8.148438 9.199219 8.15625 9.234375 8.140625 9.277344 C 8.125 9.320312 8.101562 9.355469 8.089844 9.355469 C 8.078125 9.355469 8.070312 9.320312 8.070312 9.277344 Z M 8.570312 9.21875 C 8.546875 9.199219 8.53125 9.148438 8.53125 9.101562 C 8.53125 9.046875 8.546875 9.039062 8.589844 9.082031 C 8.621094 9.113281 8.636719 9.164062 8.625 9.199219 C 8.617188 9.230469 8.589844 9.242188 8.570312 9.21875 Z M 8.257812 8.96875 C 8.242188 8.925781 8.25 8.890625 8.277344 8.890625 C 8.304688 8.890625 8.328125 8.925781 8.328125 8.96875 C 8.328125 9.011719 8.316406 9.042969 8.304688 9.042969 C 8.296875 9.042969 8.273438 9.011719 8.257812 8.96875 Z M 6.128906 7.949219 C 6.152344 7.714844 6.273438 7.695312 6.273438 7.929688 C 6.273438 8.0625 6.25 8.113281 6.195312 8.113281 C 6.132812 8.113281 6.117188 8.070312 6.128906 7.949219 Z M 5.566406 7.078125 C 5.578125 7.042969 5.617188 7 5.65625 6.988281 C 5.695312 6.976562 5.710938 6.996094 5.699219 7.035156 C 5.6875 7.070312 5.648438 7.109375 5.609375 7.125 C 5.570312 7.136719 5.550781 7.117188 5.566406 7.078125 Z M 6.710938 6.253906 C 6.691406 6.226562 6.714844 6.1875 6.761719 6.171875 C 6.859375 6.132812 6.914062 6.175781 6.867188 6.25 C 6.824219 6.320312 6.75 6.324219 6.710938 6.253906 Z M 10.097656 11.015625 C 10.457031 10.945312 10.660156 10.84375 10.777344 10.679688 C 10.886719 10.523438 10.886719 10.519531 10.792969 10.484375 C 10.738281 10.460938 10.675781 10.40625 10.648438 10.363281 C 10.609375 10.289062 10.566406 10.304688 10.335938 10.488281 C 10.191406 10.601562 10.027344 10.699219 9.96875 10.699219 C 9.816406 10.699219 9.578125 10.832031 9.535156 10.9375 C 9.492188 11.050781 9.601562 11.121094 9.761719 11.082031 C 9.832031 11.066406 9.984375 11.035156 10.097656 11.015625 Z M 5.511719 10.734375 C 5.476562 10.703125 5.453125 10.636719 5.453125 10.585938 C 5.453125 10.53125 5.417969 10.492188 5.375 10.492188 C 5.273438 10.492188 5.277344 10.523438 5.410156 10.738281 C 5.476562 10.84375 5.53125 10.894531 5.546875 10.855469 C 5.558594 10.820312 5.542969 10.765625 5.511719 10.734375 Z M 6.21875 10.402344 C 6.207031 10.261719 6.109375 10.15625 5.910156 10.058594 C 5.695312 9.953125 5.679688 9.933594 5.605469 9.617188 C 5.519531 9.257812 5.402344 9.132812 5.402344 9.402344 C 5.402344 9.539062 5.382812 9.5625 5.273438 9.5625 C 5.203125 9.5625 5.144531 9.570312 5.144531 9.582031 C 5.144531 9.59375 5.238281 9.746094 5.351562 9.917969 C 5.464844 10.085938 5.554688 10.265625 5.554688 10.308594 C 5.554688 10.398438 5.625 10.410156 5.75 10.339844 C 5.808594 10.3125 5.890625 10.320312 5.992188 10.363281 C 6.175781 10.445312 6.222656 10.453125 6.21875 10.402344 Z M 11.054688 9.84375 C 11.230469 9.648438 11.324219 9.621094 11.375 9.746094 C 11.445312 9.933594 11.496094 9.734375 11.496094 9.265625 C 11.496094 8.664062 11.484375 8.597656 11.351562 8.5625 C 11.296875 8.550781 11.25 8.5 11.25 8.457031 C 11.25 8.339844 11.167969 8.355469 11.074219 8.488281 C 10.953125 8.660156 10.976562 8.816406 11.148438 8.960938 C 11.234375 9.03125 11.300781 9.132812 11.300781 9.191406 C 11.300781 9.316406 11.160156 9.4375 11.039062 9.417969 C 10.972656 9.40625 10.9375 9.441406 10.917969 9.546875 C 10.898438 9.625 10.878906 9.726562 10.867188 9.769531 C 10.859375 9.808594 10.835938 9.886719 10.816406 9.9375 C 10.753906 10.085938 10.878906 10.039062 11.054688 9.84375 Z M 4.757812 9.589844 C 4.898438 9.378906 4.9375 9.28125 4.910156 9.179688 C 4.890625 9.105469 4.867188 9.042969 4.855469 9.042969 C 4.792969 9.042969 4.542969 9.203125 4.460938 9.292969 C 4.367188 9.394531 4.367188 9.410156 4.453125 9.636719 C 4.503906 9.765625 4.550781 9.871094 4.558594 9.871094 C 4.566406 9.871094 4.65625 9.746094 4.757812 9.589844 Z M 9.507812 9.363281 C 9.507812 9.289062 9.449219 9.257812 9.371094 9.285156 C 9.265625 9.328125 9.285156 9.40625 9.402344 9.40625 C 9.460938 9.40625 9.507812 9.386719 9.507812 9.363281 Z M 5.199219 8.734375 C 5.253906 8.734375 5.402344 8.460938 5.402344 8.351562 C 5.402344 8.292969 5.351562 8.269531 5.242188 8.269531 C 5.082031 8.269531 5.082031 8.273438 5.105469 8.472656 C 5.125 8.617188 5.113281 8.683594 5.0625 8.703125 C 4.980469 8.734375 4.964844 8.917969 5.042969 8.96875 C 5.070312 8.984375 5.097656 9.050781 5.101562 9.113281 C 5.109375 9.175781 5.121094 9.113281 5.132812 8.980469 C 5.140625 8.84375 5.171875 8.734375 5.199219 8.734375 Z M 6.890625 8.707031 C 6.890625 8.664062 6.855469 8.613281 6.8125 8.597656 C 6.769531 8.582031 6.734375 8.535156 6.734375 8.496094 C 6.734375 8.398438 6.636719 8.40625 6.597656 8.507812 C 6.578125 8.5625 6.609375 8.628906 6.6875 8.6875 C 6.839844 8.804688 6.890625 8.808594 6.890625 8.707031 Z M 8.890625 8.480469 C 8.890625 8.453125 8.867188 8.417969 8.839844 8.398438 C 8.8125 8.382812 8.789062 8.402344 8.789062 8.449219 C 8.789062 8.492188 8.8125 8.527344 8.839844 8.527344 C 8.867188 8.527344 8.890625 8.507812 8.890625 8.480469 Z M 9.378906 8.371094 C 9.394531 8.34375 9.375 8.304688 9.328125 8.289062 C 9.230469 8.25 9.175781 8.292969 9.222656 8.371094 C 9.265625 8.4375 9.335938 8.441406 9.378906 8.371094 Z M 4.941406 8.296875 C 4.941406 8.253906 4.90625 8.21875 4.863281 8.21875 C 4.820312 8.21875 4.800781 8.25 4.820312 8.296875 C 4.835938 8.339844 4.867188 8.375 4.894531 8.375 C 4.917969 8.375 4.941406 8.339844 4.941406 8.296875 Z M 8.992188 8.320312 C 8.992188 8.292969 8.96875 8.269531 8.941406 8.269531 C 8.914062 8.269531 8.890625 8.292969 8.890625 8.320312 C 8.890625 8.351562 8.914062 8.375 8.941406 8.375 C 8.96875 8.375 8.992188 8.351562 8.992188 8.320312 Z M 8.632812 8.269531 C 8.632812 8.242188 8.609375 8.21875 8.582031 8.21875 C 8.554688 8.21875 8.53125 8.242188 8.53125 8.269531 C 8.53125 8.296875 8.554688 8.320312 8.582031 8.320312 C 8.609375 8.320312 8.632812 8.296875 8.632812 8.269531 Z M 11.660156 8.164062 C 11.660156 8.136719 11.628906 8.113281 11.585938 8.113281 C 11.503906 8.113281 11.484375 8.175781 11.539062 8.234375 C 11.582031 8.273438 11.660156 8.230469 11.660156 8.164062 Z M 9.710938 8.054688 C 9.867188 7.996094 10.050781 7.949219 10.117188 7.941406 C 10.1875 7.9375 10.25 7.90625 10.261719 7.871094 C 10.292969 7.78125 9.519531 7.828125 9.214844 7.933594 C 9.089844 7.976562 8.957031 8.011719 8.914062 8.011719 C 8.875 8.011719 8.839844 8.046875 8.839844 8.09375 C 8.839844 8.136719 8.859375 8.160156 8.878906 8.148438 C 8.902344 8.132812 8.953125 8.144531 8.996094 8.167969 C 9.085938 8.226562 9.339844 8.1875 9.710938 8.054688 Z M 4.441406 7.960938 C 4.40625 7.917969 4.328125 8.082031 4.363281 8.132812 C 4.378906 8.164062 4.410156 8.140625 4.429688 8.085938 C 4.449219 8.03125 4.457031 7.976562 4.441406 7.960938 Z M 8.328125 8.113281 C 8.328125 8.085938 8.304688 8.0625 8.273438 8.0625 C 8.246094 8.0625 8.222656 8.085938 8.222656 8.113281 C 8.222656 8.144531 8.246094 8.167969 8.273438 8.167969 C 8.304688 8.167969 8.328125 8.144531 8.328125 8.113281 Z M 5.238281 7.894531 C 5.285156 7.78125 5.285156 7.753906 5.226562 7.753906 C 5.160156 7.753906 5.097656 7.902344 5.09375 8.058594 C 5.09375 8.15625 5.160156 8.082031 5.238281 7.894531 Z M 6.789062 8.035156 C 6.824219 7.992188 6.839844 7.945312 6.820312 7.925781 C 6.769531 7.875 6.632812 7.953125 6.632812 8.035156 C 6.632812 8.136719 6.703125 8.136719 6.789062 8.035156 Z M 7.84375 7.972656 C 7.792969 7.921875 7.75 8 7.792969 8.070312 C 7.824219 8.121094 7.835938 8.121094 7.855469 8.070312 C 7.867188 8.035156 7.859375 7.992188 7.84375 7.972656 Z M 12.246094 7.828125 C 12.265625 7.753906 12.246094 7.640625 12.207031 7.558594 L 12.132812 7.417969 L 12.046875 7.597656 C 11.980469 7.742188 11.972656 7.808594 12.019531 7.925781 C 12.0625 8.042969 12.089844 8.0625 12.144531 8.015625 C 12.183594 7.980469 12.230469 7.898438 12.246094 7.828125 Z M 7.371094 7.667969 C 7.207031 7.582031 7.214844 7.582031 7.179688 7.679688 C 7.152344 7.742188 7.171875 7.753906 7.25 7.726562 C 7.324219 7.703125 7.351562 7.71875 7.351562 7.78125 C 7.351562 7.855469 7.363281 7.859375 7.429688 7.804688 C 7.496094 7.746094 7.488281 7.730469 7.371094 7.667969 Z M 8.632812 7.664062 C 8.632812 7.535156 8.628906 7.53125 8.550781 7.609375 C 8.503906 7.652344 8.484375 7.71875 8.503906 7.75 C 8.566406 7.851562 8.632812 7.808594 8.632812 7.664062 Z M 11.84375 7.5 C 11.765625 6.941406 11.761719 6.925781 11.628906 6.925781 C 11.527344 6.925781 11.507812 6.953125 11.507812 7.085938 C 11.507812 7.1875 11.554688 7.285156 11.636719 7.359375 C 11.722656 7.441406 11.765625 7.535156 11.765625 7.644531 C 11.765625 7.753906 11.785156 7.796875 11.820312 7.777344 C 11.855469 7.753906 11.863281 7.652344 11.84375 7.5 Z M 4.382812 7.507812 C 4.445312 7.371094 4.507812 7.242188 4.519531 7.214844 C 4.566406 7.117188 4.277344 7.242188 4.125 7.386719 C 3.945312 7.554688 3.941406 7.574219 4.03125 7.675781 C 4.152344 7.816406 4.265625 7.761719 4.382812 7.507812 Z M 9.046875 7.710938 C 9.046875 7.644531 8.984375 7.597656 8.933594 7.628906 C 8.882812 7.660156 8.925781 7.753906 8.996094 7.753906 C 9.023438 7.753906 9.046875 7.734375 9.046875 7.710938 Z M 7.117188 7.488281 C 7.085938 7.433594 6.992188 7.476562 6.992188 7.546875 C 6.992188 7.574219 7.027344 7.582031 7.070312 7.566406 C 7.113281 7.550781 7.132812 7.515625 7.117188 7.488281 Z M 8.992188 7.441406 C 8.992188 7.414062 8.972656 7.390625 8.945312 7.390625 C 8.917969 7.390625 8.882812 7.414062 8.867188 7.441406 C 8.847656 7.472656 8.871094 7.496094 8.914062 7.496094 C 8.957031 7.496094 8.992188 7.472656 8.992188 7.441406 Z M 8.839844 7.203125 C 8.839844 7.097656 8.703125 7.121094 8.671875 7.234375 C 8.65625 7.289062 8.660156 7.347656 8.675781 7.363281 C 8.714844 7.40625 8.839844 7.285156 8.839844 7.203125 Z M 5.042969 7.082031 C 5.042969 7.054688 5.007812 7.03125 4.964844 7.03125 C 4.921875 7.03125 4.890625 7.054688 4.890625 7.082031 C 4.890625 7.109375 4.921875 7.132812 4.964844 7.132812 C 5.007812 7.132812 5.042969 7.109375 5.042969 7.082031 Z M 7.609375 6.878906 C 7.609375 6.773438 7.476562 6.695312 7.425781 6.777344 C 7.390625 6.832031 7.492188 6.976562 7.5625 6.976562 C 7.589844 6.976562 7.609375 6.933594 7.609375 6.878906 Z M 9.140625 6.835938 C 9.152344 6.746094 9.128906 6.71875 9.046875 6.71875 C 8.984375 6.71875 8.949219 6.742188 8.964844 6.765625 C 8.980469 6.792969 8.957031 6.828125 8.914062 6.84375 C 8.800781 6.886719 8.878906 6.988281 9.011719 6.96875 C 9.082031 6.957031 9.128906 6.910156 9.140625 6.835938 Z M 11.476562 6.464844 C 11.449219 6.300781 11.410156 6.234375 11.296875 6.175781 C 11.21875 6.132812 11.121094 6.101562 11.078125 6.101562 C 10.941406 6.101562 10.933594 6.203125 11.0625 6.25 C 11.132812 6.277344 11.253906 6.390625 11.335938 6.503906 C 11.417969 6.617188 11.488281 6.703125 11.496094 6.695312 C 11.503906 6.6875 11.496094 6.585938 11.476562 6.464844 Z M 9.300781 6.542969 C 9.300781 6.421875 9.21875 6.320312 9.167969 6.371094 C 9.128906 6.414062 9.207031 6.667969 9.257812 6.667969 C 9.28125 6.667969 9.300781 6.613281 9.300781 6.542969 Z M 4.878906 6.246094 C 4.746094 6.164062 4.675781 6.195312 4.738281 6.308594 C 4.785156 6.398438 4.808594 6.40625 4.871094 6.351562 C 4.929688 6.300781 4.933594 6.28125 4.878906 6.246094 Z M 10.574219 6.175781 C 10.628906 6.191406 10.710938 6.191406 10.753906 6.175781 C 10.863281 6.132812 10.773438 5.925781 10.609375 5.851562 C 10.484375 5.792969 10.429688 5.851562 10.429688 6.046875 C 10.429688 6.097656 10.394531 6.152344 10.355469 6.171875 C 10.3125 6.1875 10.277344 6.242188 10.277344 6.292969 C 10.28125 6.371094 10.292969 6.367188 10.378906 6.265625 C 10.445312 6.183594 10.511719 6.152344 10.574219 6.175781 Z M 4.199219 6.175781 C 4.265625 6.105469 4.339844 6.046875 4.367188 6.046875 C 4.394531 6.046875 4.449219 5.992188 4.496094 5.925781 C 4.570312 5.808594 4.570312 5.808594 4.445312 5.832031 C 4.375 5.84375 4.300781 5.894531 4.285156 5.9375 C 4.265625 5.984375 4.183594 6.085938 4.097656 6.164062 C 4.011719 6.242188 3.972656 6.308594 4.011719 6.308594 C 4.050781 6.308594 4.136719 6.25 4.199219 6.175781 Z M 5.953125 6.078125 C 5.945312 5.917969 5.9375 5.90625 5.847656 5.960938 C 5.792969 5.996094 5.699219 6.050781 5.640625 6.085938 C 5.535156 6.144531 5.535156 6.148438 5.660156 6.199219 C 5.898438 6.292969 5.957031 6.269531 5.953125 6.078125 Z M 6.027344 5.324219 C 6 5.058594 5.75 4.90625 5.695312 5.117188 C 5.679688 5.183594 5.695312 5.222656 5.734375 5.222656 C 5.773438 5.222656 5.828125 5.292969 5.859375 5.382812 C 5.933594 5.59375 6.050781 5.550781 6.027344 5.324219 Z M 9.582031 5.296875 C 9.609375 5.242188 9.6875 5.128906 9.753906 5.046875 C 9.839844 4.9375 9.855469 4.882812 9.816406 4.839844 C 9.773438 4.796875 9.742188 4.808594 9.707031 4.875 C 9.632812 5.003906 9.535156 4.984375 9.382812 4.804688 C 9.253906 4.648438 9.199219 4.34375 9.300781 4.34375 C 9.332031 4.34375 9.351562 4.320312 9.351562 4.292969 C 9.351562 4.261719 9.304688 4.242188 9.246094 4.242188 C 9.1875 4.242188 9.082031 4.195312 9.011719 4.136719 C 8.890625 4.042969 8.871094 4.042969 8.734375 4.113281 C 8.628906 4.167969 8.582031 4.230469 8.582031 4.320312 C 8.582031 4.433594 8.59375 4.441406 8.6875 4.382812 C 8.757812 4.339844 8.8125 4.335938 8.871094 4.371094 C 8.984375 4.441406 9.25 4.964844 9.25 5.113281 C 9.25 5.25 9.390625 5.441406 9.472656 5.414062 C 9.503906 5.40625 9.550781 5.351562 9.582031 5.296875 Z M 10.722656 5.359375 C 10.710938 5.324219 10.667969 5.304688 10.621094 5.3125 C 10.566406 5.324219 10.53125 5.265625 10.507812 5.105469 C 10.464844 4.84375 10.355469 4.707031 10.195312 4.707031 C 10.023438 4.707031 10.003906 4.785156 10.152344 4.882812 C 10.222656 4.929688 10.328125 5.066406 10.386719 5.183594 C 10.464844 5.347656 10.523438 5.40625 10.617188 5.410156 C 10.691406 5.414062 10.734375 5.394531 10.722656 5.359375 Z M 8.316406 5.109375 C 8.398438 5.023438 8.394531 4.964844 8.304688 4.964844 C 8.261719 4.964844 8.148438 4.894531 8.054688 4.808594 C 7.957031 4.722656 7.867188 4.652344 7.851562 4.652344 C 7.835938 4.652344 7.855469 4.753906 7.890625 4.871094 C 7.933594 5.03125 7.988281 5.101562 8.074219 5.125 C 8.253906 5.175781 8.25 5.175781 8.316406 5.109375 Z M 6.867188 5.0625 C 6.925781 4.96875 6.851562 4.953125 6.65625 5.015625 C 6.488281 5.070312 6.453125 5.066406 6.324219 4.96875 C 6.1875 4.871094 6.019531 4.824219 6.019531 4.886719 C 6.019531 4.902344 6.046875 4.960938 6.082031 5.015625 C 6.136719 5.101562 6.203125 5.117188 6.488281 5.117188 C 6.679688 5.117188 6.847656 5.09375 6.867188 5.0625 Z M 7.191406 4.316406 C 7.234375 4.273438 7.132812 4.1875 7.042969 4.1875 C 6.929688 4.1875 6.914062 4.132812 7 4.046875 C 7.042969 4.003906 7.023438 3.980469 6.921875 3.953125 C 6.761719 3.914062 6.691406 3.957031 6.777344 4.046875 C 6.8125 4.078125 6.839844 4.15625 6.839844 4.214844 C 6.839844 4.277344 6.855469 4.34375 6.875 4.363281 C 6.910156 4.398438 7.144531 4.363281 7.191406 4.316406 Z M 7.632812 4.34375 C 7.617188 4.316406 7.582031 4.292969 7.554688 4.292969 C 7.527344 4.292969 7.507812 4.316406 7.507812 4.34375 C 7.507812 4.371094 7.542969 4.394531 7.585938 4.394531 C 7.628906 4.394531 7.652344 4.371094 7.632812 4.34375 Z M 7.632812 4.34375 "/>
<path style=" stroke:none;fill-rule:nonzero;fill:rgb(3.529412%,0%,0%);fill-opacity:1;" d="M 2.785156 8.21875 L 2.785156 2.589844 L 13.128906 2.589844 L 13.132812 8.21875 L 13.132812 13.847656 L 2.789062 13.847656 Z M 6.34375 12.082031 C 6.34375 12.050781 6.320312 12.027344 6.289062 12.027344 C 6.257812 12.027344 6.234375 12.050781 6.234375 12.082031 C 6.234375 12.113281 6.257812 12.136719 6.289062 12.136719 C 6.320312 12.136719 6.34375 12.113281 6.34375 12.082031 Z M 8.179688 11.78125 C 8.453125 11.59375 8.679688 11.558594 8.972656 11.664062 C 9.316406 11.785156 9.339844 11.777344 9.730469 11.519531 C 10.058594 11.304688 10.542969 11.132812 10.820312 11.132812 C 10.90625 11.132812 10.941406 11.097656 10.941406 11.023438 C 10.941406 10.964844 11.058594 10.789062 11.203125 10.636719 C 11.425781 10.394531 11.441406 10.359375 11.324219 10.394531 C 10.980469 10.496094 10.941406 10.496094 10.941406 10.390625 C 10.941406 10.335938 11.054688 10.183594 11.195312 10.058594 C 11.421875 9.851562 11.464844 9.835938 11.582031 9.886719 C 11.671875 9.929688 11.730469 9.929688 11.769531 9.890625 C 11.832031 9.828125 11.847656 8.894531 11.789062 8.585938 C 11.765625 8.457031 11.777344 8.382812 11.824219 8.351562 C 11.863281 8.328125 11.902344 8.335938 11.914062 8.375 C 11.949219 8.46875 12.074219 8.453125 12.117188 8.347656 C 12.136719 8.296875 12.125 8.230469 12.09375 8.199219 C 12.007812 8.113281 12.027344 7.886719 12.121094 7.851562 C 12.238281 7.808594 12.261719 7.839844 12.296875 8.101562 C 12.332031 8.363281 12.402344 8.394531 12.457031 8.175781 C 12.476562 8.09375 12.527344 7.96875 12.574219 7.898438 C 12.667969 7.75 12.632812 7.359375 12.511719 7.238281 C 12.441406 7.167969 12.425781 7.171875 12.371094 7.273438 C 12.335938 7.339844 12.285156 7.390625 12.257812 7.390625 C 12.203125 7.390625 12.078125 6.851562 12.121094 6.78125 C 12.136719 6.757812 12.109375 6.628906 12.054688 6.5 C 11.984375 6.324219 11.957031 6.292969 11.929688 6.363281 C 11.902344 6.445312 11.886719 6.441406 11.820312 6.316406 C 11.753906 6.191406 11.753906 6.160156 11.816406 6.125 C 11.855469 6.097656 11.875 6.039062 11.855469 5.992188 C 11.835938 5.933594 11.710938 5.894531 11.441406 5.871094 C 11.136719 5.839844 11.046875 5.808594 11.023438 5.730469 C 11.007812 5.675781 10.941406 5.613281 10.882812 5.59375 C 10.714844 5.542969 10.757812 5.257812 10.929688 5.285156 C 10.996094 5.292969 11.050781 5.273438 11.050781 5.238281 C 11.050781 5.121094 10.941406 4.960938 10.859375 4.960938 C 10.8125 4.960938 10.777344 4.910156 10.777344 4.847656 C 10.777344 4.691406 10.636719 4.429688 10.53125 4.390625 C 10.375 4.328125 10.191406 4.351562 10.121094 4.4375 C 10.058594 4.515625 10.039062 4.515625 9.925781 4.4375 C 9.757812 4.328125 9.738281 4.332031 9.738281 4.46875 C 9.738281 4.617188 9.640625 4.585938 9.5 4.394531 C 9.402344 4.265625 9.398438 4.230469 9.460938 4.113281 C 9.5625 3.925781 9.5 3.78125 9.335938 3.824219 C 9.246094 3.847656 9.175781 3.824219 9.109375 3.746094 C 8.871094 3.484375 8.582031 3.691406 8.546875 4.160156 C 8.519531 4.480469 8.398438 4.660156 8.242188 4.601562 C 8.195312 4.582031 8.066406 4.433594 7.964844 4.273438 C 7.808594 4.042969 7.699219 3.945312 7.414062 3.804688 C 7.214844 3.703125 7.039062 3.601562 7.023438 3.574219 C 6.984375 3.511719 6.632812 3.515625 6.589844 3.582031 C 6.574219 3.609375 6.59375 3.691406 6.636719 3.761719 C 6.75 3.941406 6.808594 4.503906 6.726562 4.605469 C 6.640625 4.710938 6.394531 4.707031 6.257812 4.605469 C 6.117188 4.5 5.988281 4.5 5.664062 4.617188 C 5.320312 4.742188 5.230469 4.875 5.398438 5.015625 C 5.46875 5.070312 5.523438 5.144531 5.523438 5.175781 C 5.523438 5.207031 5.566406 5.257812 5.617188 5.292969 C 5.707031 5.34375 5.699219 5.363281 5.535156 5.507812 C 5.242188 5.761719 4.804688 5.960938 4.617188 5.925781 C 4.480469 5.902344 4.4375 5.921875 4.332031 6.078125 C 4.230469 6.226562 4.222656 6.261719 4.289062 6.277344 C 4.492188 6.320312 4.289062 7.003906 4.070312 7.003906 C 4.03125 7.003906 3.964844 7.050781 3.921875 7.109375 C 3.882812 7.167969 3.78125 7.246094 3.699219 7.285156 C 3.523438 7.367188 3.519531 7.390625 3.664062 7.574219 C 3.742188 7.675781 3.765625 7.757812 3.738281 7.867188 C 3.707031 7.992188 3.714844 8.011719 3.796875 7.980469 C 3.949219 7.917969 3.972656 7.972656 3.933594 8.300781 C 3.914062 8.503906 3.921875 8.625 3.964844 8.660156 C 4.054688 8.734375 4.097656 8.667969 4.097656 8.464844 C 4.097656 8.367188 4.132812 8.261719 4.171875 8.226562 C 4.296875 8.125 4.535156 8.234375 4.65625 8.449219 C 4.820312 8.734375 4.765625 8.882812 4.402344 9.109375 C 4.117188 9.285156 4.101562 9.304688 4.101562 9.523438 C 4.101562 9.652344 4.085938 9.789062 4.070312 9.828125 C 4.054688 9.871094 4.074219 9.949219 4.117188 10.007812 C 4.210938 10.136719 4.378906 10.058594 4.519531 9.816406 C 4.625 9.636719 4.726562 9.605469 4.777344 9.738281 C 4.792969 9.785156 4.851562 9.816406 4.902344 9.808594 C 4.964844 9.796875 5.039062 9.867188 5.121094 10.011719 C 5.265625 10.265625 5.289062 10.480469 5.167969 10.480469 C 5.039062 10.480469 5.066406 10.707031 5.222656 10.9375 C 5.457031 11.285156 5.597656 11.183594 5.4375 10.785156 C 5.394531 10.675781 5.398438 10.675781 5.511719 10.777344 C 5.65625 10.90625 5.765625 10.851562 5.683594 10.691406 C 5.636719 10.609375 5.636719 10.5625 5.683594 10.515625 C 5.792969 10.40625 6.035156 10.59375 6.09375 10.832031 C 6.125 10.949219 6.234375 11.144531 6.34375 11.265625 C 6.535156 11.488281 6.542969 11.488281 6.742188 11.421875 C 6.910156 11.367188 6.972656 11.371094 7.136719 11.449219 C 7.242188 11.5 7.328125 11.5625 7.328125 11.585938 C 7.328125 11.652344 7.777344 11.914062 7.886719 11.914062 C 7.9375 11.914062 8.070312 11.855469 8.179688 11.777344 Z M 9.039062 11.519531 C 8.90625 11.453125 8.882812 11.390625 8.972656 11.335938 C 9.082031 11.269531 9.023438 11.207031 8.847656 11.210938 C 8.75 11.210938 8.628906 11.25 8.578125 11.292969 C 8.53125 11.335938 8.441406 11.367188 8.386719 11.355469 C 8.332031 11.347656 8.21875 11.386719 8.136719 11.441406 C 7.945312 11.570312 7.714844 11.53125 7.453125 11.332031 C 7.320312 11.230469 7.183594 11.179688 6.984375 11.167969 C 6.824219 11.15625 6.644531 11.105469 6.566406 11.042969 C 6.390625 10.914062 6.175781 10.492188 6.207031 10.335938 C 6.238281 10.195312 6.066406 10.023438 5.941406 10.070312 C 5.757812 10.144531 5.601562 9.960938 5.535156 9.59375 C 5.5 9.402344 5.449219 9.222656 5.417969 9.195312 C 5.332031 9.109375 5.195312 9.199219 5.195312 9.34375 C 5.195312 9.535156 5.09375 9.578125 5.050781 9.40625 C 5 9.199219 5.070312 8.839844 5.195312 8.671875 C 5.253906 8.589844 5.308594 8.433594 5.316406 8.328125 L 5.332031 8.136719 L 5.023438 8.128906 C 4.851562 8.121094 4.664062 8.089844 4.601562 8.058594 C 4.539062 8.023438 4.453125 8.011719 4.40625 8.03125 C 4.339844 8.058594 4.320312 8.027344 4.320312 7.898438 C 4.320312 7.753906 4.300781 7.738281 4.199219 7.765625 C 4.101562 7.789062 4.085938 7.777344 4.125 7.691406 C 4.148438 7.632812 4.179688 7.535156 4.195312 7.472656 C 4.210938 7.414062 4.253906 7.328125 4.292969 7.28125 C 4.328125 7.234375 4.375 7.125 4.390625 7.03125 C 4.492188 6.453125 4.6875 6.140625 5.046875 5.976562 C 5.246094 5.886719 5.265625 5.886719 5.3125 5.96875 C 5.394531 6.121094 5.738281 6.191406 5.894531 6.089844 C 6.0625 5.976562 6.046875 5.679688 5.863281 5.597656 C 5.695312 5.523438 5.710938 5.476562 5.933594 5.339844 C 6.117188 5.230469 6.183594 5.128906 6.070312 5.128906 C 6.039062 5.128906 6.015625 5.089844 6.015625 5.046875 C 6.015625 4.984375 6.085938 4.960938 6.277344 4.953125 C 6.519531 4.945312 6.667969 4.933594 6.816406 4.914062 C 6.914062 4.902344 6.949219 4.757812 6.894531 4.605469 C 6.847656 4.492188 6.875 4.441406 7.066406 4.25 C 7.3125 4 7.339844 3.988281 7.4375 4.109375 C 7.476562 4.152344 7.539062 4.191406 7.582031 4.191406 C 7.652344 4.191406 7.878906 4.632812 7.878906 4.777344 C 7.878906 4.820312 7.933594 4.875 8 4.902344 C 8.34375 5.03125 8.351562 5.03125 8.472656 4.824219 C 8.535156 4.714844 8.589844 4.550781 8.589844 4.464844 C 8.589844 4.355469 8.617188 4.300781 8.671875 4.300781 C 8.714844 4.300781 8.753906 4.261719 8.753906 4.21875 C 8.753906 4.171875 8.800781 4.136719 8.863281 4.136719 C 8.941406 4.136719 8.972656 4.171875 8.972656 4.265625 C 8.972656 4.335938 9.023438 4.4375 9.082031 4.496094 C 9.144531 4.550781 9.207031 4.6875 9.226562 4.804688 C 9.285156 5.175781 9.628906 5.367188 9.765625 5.101562 C 9.886719 4.863281 10.09375 4.632812 10.183594 4.632812 C 10.527344 4.632812 10.742188 5.605469 10.457031 5.867188 C 10.335938 5.976562 10.304688 6.34375 10.417969 6.34375 C 10.460938 6.34375 10.546875 6.28125 10.605469 6.203125 C 10.6875 6.101562 10.761719 6.066406 10.921875 6.066406 C 11.320312 6.066406 11.605469 6.34375 11.675781 6.800781 C 11.695312 6.914062 11.722656 7.09375 11.738281 7.199219 C 11.765625 7.367188 11.789062 7.390625 11.882812 7.359375 C 11.984375 7.328125 11.988281 7.34375 11.953125 7.59375 C 11.910156 7.894531 11.835938 8.015625 11.726562 7.972656 C 11.671875 7.953125 11.660156 7.992188 11.6875 8.164062 C 11.726562 8.402344 11.710938 8.417969 11.546875 8.316406 C 11.46875 8.269531 11.410156 8.265625 11.304688 8.316406 C 11.179688 8.375 11.164062 8.414062 11.164062 8.652344 C 11.164062 8.84375 11.1875 8.933594 11.246094 8.957031 C 11.367188 9.003906 11.34375 9.175781 11.195312 9.316406 C 11.121094 9.386719 11.054688 9.527344 11.039062 9.652344 C 11.007812 9.890625 10.65625 10.394531 10.367188 10.617188 C 10.265625 10.695312 10.113281 10.757812 10.019531 10.757812 C 9.835938 10.757812 9.464844 11.085938 9.464844 11.25 C 9.464844 11.371094 9.3125 11.585938 9.230469 11.582031 C 9.191406 11.578125 9.109375 11.550781 9.039062 11.515625 Z M 8.050781 11.199219 C 7.894531 11.066406 7.9375 10.976562 8.160156 10.976562 C 8.308594 10.976562 8.324219 10.964844 8.292969 10.839844 C 8.261719 10.726562 8.285156 10.6875 8.402344 10.632812 C 8.523438 10.578125 8.554688 10.582031 8.621094 10.675781 C 8.691406 10.769531 8.683594 10.789062 8.554688 10.855469 C 8.453125 10.910156 8.429688 10.949219 8.46875 10.992188 C 8.511719 11.035156 8.554688 11.027344 8.617188 10.976562 C 8.671875 10.933594 8.824219 10.90625 9.015625 10.914062 C 9.316406 10.925781 9.574219 10.835938 9.421875 10.777344 C 9.328125 10.738281 9.335938 10.507812 9.441406 10.402344 C 9.496094 10.347656 9.625 10.316406 9.789062 10.316406 C 9.96875 10.316406 10.074219 10.285156 10.132812 10.21875 C 10.28125 10.046875 10.414062 9.738281 10.402344 9.585938 C 10.394531 9.457031 10.421875 9.429688 10.605469 9.378906 C 10.722656 9.347656 10.847656 9.285156 10.886719 9.242188 C 10.964844 9.144531 11.03125 8.707031 10.964844 8.71875 C 10.832031 8.742188 10.730469 8.707031 10.699219 8.625 C 10.660156 8.515625 10.757812 8.382812 10.882812 8.382812 C 10.984375 8.382812 11.328125 8.042969 11.429688 7.84375 C 11.484375 7.742188 11.476562 7.652344 11.40625 7.402344 C 11.355469 7.230469 11.289062 7.054688 11.257812 7.019531 C 11.226562 6.980469 11.214844 6.855469 11.238281 6.726562 C 11.261719 6.574219 11.246094 6.453125 11.1875 6.339844 C 11.117188 6.199219 11.078125 6.179688 10.953125 6.210938 C 10.871094 6.230469 10.746094 6.28125 10.675781 6.328125 C 10.546875 6.410156 10.542969 6.445312 10.640625 6.8125 C 10.65625 6.875 10.625 6.976562 10.566406 7.050781 C 10.476562 7.167969 10.453125 7.175781 10.34375 7.105469 C 10.234375 7.039062 10.210938 7.046875 10.117188 7.164062 C 9.9375 7.382812 10.011719 7.71875 10.203125 7.558594 C 10.253906 7.511719 10.335938 7.511719 10.484375 7.550781 C 10.601562 7.582031 10.765625 7.621094 10.847656 7.636719 C 10.933594 7.65625 11.015625 7.707031 11.03125 7.753906 C 11.078125 7.867188 10.898438 8.054688 10.742188 8.054688 C 10.671875 8.054688 10.613281 8.082031 10.613281 8.117188 C 10.613281 8.15625 10.527344 8.167969 10.347656 8.140625 C 10.140625 8.113281 10.019531 8.132812 9.820312 8.21875 C 9.589844 8.316406 9.570312 8.339844 9.636719 8.421875 C 9.703125 8.503906 9.6875 8.507812 9.449219 8.476562 C 9.289062 8.453125 9.191406 8.460938 9.191406 8.496094 C 9.191406 8.527344 9.234375 8.566406 9.285156 8.582031 C 9.339844 8.601562 9.425781 8.636719 9.476562 8.664062 C 9.621094 8.742188 9.847656 8.726562 9.847656 8.636719 C 9.847656 8.539062 10.011719 8.472656 10.082031 8.546875 C 10.121094 8.582031 10.113281 8.628906 10.066406 8.6875 C 10.007812 8.757812 10.007812 8.789062 10.0625 8.84375 C 10.113281 8.894531 10.144531 8.886719 10.203125 8.808594 C 10.273438 8.710938 10.285156 8.710938 10.449219 8.832031 C 10.542969 8.902344 10.59375 8.96875 10.558594 8.980469 C 10.527344 8.992188 10.46875 8.976562 10.429688 8.945312 C 10.378906 8.902344 10.308594 8.917969 10.175781 9 C 10.003906 9.105469 9.984375 9.105469 9.921875 9.019531 C 9.886719 8.96875 9.761719 8.90625 9.644531 8.878906 C 9.351562 8.808594 9.300781 8.8125 9.300781 8.910156 C 9.300781 8.953125 9.265625 8.992188 9.21875 8.992188 C 9.105469 8.992188 9.058594 8.886719 9.15625 8.847656 C 9.253906 8.808594 9.210938 8.660156 9.101562 8.660156 C 9.058594 8.660156 9.007812 8.699219 8.992188 8.746094 C 8.960938 8.820312 8.945312 8.820312 8.824219 8.742188 C 8.570312 8.574219 8.621094 8.71875 8.914062 8.992188 C 9.1875 9.253906 9.355469 9.335938 9.355469 9.210938 C 9.355469 9.183594 9.398438 9.15625 9.453125 9.15625 C 9.59375 9.15625 9.972656 9.5625 9.949219 9.6875 C 9.921875 9.824219 9.640625 9.863281 9.59375 9.738281 C 9.578125 9.691406 9.519531 9.652344 9.46875 9.652344 C 9.417969 9.652344 9.300781 9.574219 9.207031 9.472656 C 8.886719 9.128906 8.605469 8.882812 8.539062 8.882812 C 8.5 8.882812 8.421875 8.824219 8.367188 8.757812 C 8.277344 8.652344 8.261719 8.648438 8.261719 8.730469 C 8.257812 8.839844 8.199219 8.855469 8.109375 8.761719 C 8.0625 8.714844 8.039062 8.730469 8.019531 8.832031 C 7.949219 9.175781 7.933594 9.4375 7.980469 9.554688 C 8.007812 9.625 8.046875 9.730469 8.066406 9.789062 C 8.09375 9.878906 8.109375 9.882812 8.148438 9.820312 C 8.1875 9.757812 8.210938 9.757812 8.277344 9.8125 C 8.347656 9.871094 8.347656 9.902344 8.285156 10.023438 C 8.246094 10.101562 8.226562 10.199219 8.242188 10.238281 C 8.28125 10.339844 7.988281 10.34375 7.867188 10.246094 C 7.742188 10.148438 7.710938 9.953125 7.796875 9.835938 C 7.894531 9.707031 7.902344 9.066406 7.808594 9.027344 C 7.753906 9.007812 7.753906 8.988281 7.804688 8.953125 C 7.898438 8.886719 7.828125 8.660156 7.714844 8.660156 C 7.664062 8.660156 7.59375 8.628906 7.558594 8.59375 C 7.523438 8.558594 7.492188 8.550781 7.492188 8.582031 C 7.492188 8.609375 7.429688 8.636719 7.351562 8.640625 C 7.25 8.648438 7.21875 8.625 7.242188 8.570312 C 7.257812 8.53125 7.25 8.496094 7.222656 8.496094 C 7.136719 8.496094 7.109375 8.25 7.191406 8.203125 C 7.238281 8.179688 7.273438 8.121094 7.273438 8.078125 C 7.273438 8.019531 7.3125 8.003906 7.410156 8.03125 C 7.527344 8.0625 7.558594 8.042969 7.605469 7.898438 C 7.644531 7.785156 7.691406 7.738281 7.742188 7.757812 C 7.785156 7.777344 7.820312 7.761719 7.820312 7.726562 C 7.820312 7.691406 7.933594 7.613281 8.066406 7.550781 C 8.332031 7.433594 8.367188 7.34375 8.21875 7.191406 C 8.125 7.097656 8.121094 7.101562 8.101562 7.230469 C 8.082031 7.390625 7.996094 7.507812 7.910156 7.492188 C 7.773438 7.472656 7.554688 7.570312 7.582031 7.640625 C 7.609375 7.714844 7.347656 7.886719 7.207031 7.886719 C 7.167969 7.886719 7.105469 7.9375 7.066406 8 C 7.027344 8.058594 6.949219 8.109375 6.890625 8.109375 C 6.753906 8.109375 6.746094 8.195312 6.875 8.269531 C 6.960938 8.320312 6.960938 8.335938 6.890625 8.382812 C 6.816406 8.433594 6.816406 8.445312 6.890625 8.492188 C 6.933594 8.523438 7 8.546875 7.035156 8.550781 C 7.070312 8.550781 7.125 8.625 7.15625 8.714844 C 7.1875 8.804688 7.242188 8.882812 7.277344 8.882812 C 7.3125 8.882812 7.25 8.96875 7.132812 9.074219 L 6.925781 9.265625 L 6.703125 9.0625 C 6.34375 8.742188 6.308594 8.664062 6.425781 8.414062 C 6.503906 8.25 6.511719 8.183594 6.460938 8.101562 C 6.367188 7.953125 6.382812 7.8125 6.507812 7.664062 L 6.621094 7.535156 L 6.480469 7.460938 C 6.402344 7.417969 6.289062 7.402344 6.230469 7.421875 C 6.121094 7.453125 6.121094 7.453125 6.222656 7.269531 C 6.34375 7.050781 6.578125 7.003906 6.871094 7.144531 C 6.976562 7.195312 7.097656 7.222656 7.136719 7.207031 C 7.179688 7.1875 7.261719 7.238281 7.320312 7.3125 C 7.441406 7.46875 7.519531 7.484375 7.570312 7.359375 C 7.609375 7.246094 7.5625 7.167969 7.476562 7.203125 C 7.4375 7.214844 7.300781 7.117188 7.167969 6.984375 C 6.941406 6.75 6.9375 6.738281 7.042969 6.679688 C 7.105469 6.644531 7.195312 6.617188 7.242188 6.617188 C 7.296875 6.617188 7.328125 6.570312 7.328125 6.492188 C 7.328125 6.421875 7.351562 6.339844 7.378906 6.3125 C 7.441406 6.25 7.332031 5.515625 7.261719 5.515625 C 7.238281 5.515625 7.21875 5.476562 7.21875 5.425781 C 7.21875 5.351562 7.253906 5.34375 7.421875 5.375 C 7.675781 5.421875 7.722656 5.46875 7.84375 5.808594 C 7.925781 6.03125 7.929688 6.097656 7.875 6.238281 C 7.816406 6.375 7.820312 6.417969 7.886719 6.496094 C 7.933594 6.546875 7.992188 6.664062 8.023438 6.757812 C 8.050781 6.847656 8.121094 6.929688 8.175781 6.941406 C 8.261719 6.957031 8.269531 6.929688 8.246094 6.707031 C 8.222656 6.511719 8.234375 6.453125 8.292969 6.453125 C 8.351562 6.453125 8.359375 6.402344 8.335938 6.238281 C 8.304688 6.050781 8.316406 6.019531 8.417969 5.984375 C 8.546875 5.945312 8.566406 5.847656 8.464844 5.746094 C 8.355469 5.636719 8.496094 5.535156 8.660156 5.609375 C 8.808594 5.679688 8.878906 6.011719 8.824219 6.363281 C 8.796875 6.523438 8.808594 6.5625 8.878906 6.5625 C 8.925781 6.5625 8.980469 6.507812 9 6.441406 C 9.019531 6.371094 9.117188 6.214844 9.214844 6.09375 C 9.308594 5.972656 9.4375 5.792969 9.492188 5.695312 C 9.667969 5.390625 9.785156 5.507812 9.761719 5.957031 C 9.742188 6.289062 9.5625 6.699219 9.328125 6.9375 C 9.199219 7.0625 9.195312 7.085938 9.269531 7.167969 C 9.316406 7.21875 9.351562 7.304688 9.351562 7.355469 C 9.351562 7.40625 9.394531 7.445312 9.441406 7.445312 C 9.511719 7.445312 9.523438 7.410156 9.5 7.289062 C 9.472656 7.160156 9.496094 7.109375 9.628906 7.011719 C 9.714844 6.949219 9.832031 6.894531 9.890625 6.894531 C 9.945312 6.894531 10.050781 6.832031 10.121094 6.757812 C 10.191406 6.679688 10.292969 6.617188 10.347656 6.617188 C 10.488281 6.617188 10.472656 6.578125 10.285156 6.398438 C 10.125 6.246094 10.0625 6 10.167969 5.933594 C 10.195312 5.914062 10.230469 5.820312 10.246094 5.722656 C 10.261719 5.625 10.304688 5.421875 10.339844 5.277344 C 10.394531 5.042969 10.390625 4.996094 10.3125 4.90625 C 10.222656 4.808594 10.207031 4.808594 10.082031 4.890625 C 10.011719 4.9375 9.914062 5.046875 9.875 5.128906 C 9.832031 5.210938 9.722656 5.308594 9.628906 5.347656 C 9.429688 5.429688 9.371094 5.394531 9.128906 5.035156 C 8.980469 4.824219 8.941406 4.796875 8.75 4.796875 C 8.570312 4.796875 8.53125 4.816406 8.53125 4.90625 C 8.53125 4.964844 8.511719 5.023438 8.484375 5.042969 C 8.457031 5.058594 8.421875 5.195312 8.398438 5.351562 C 8.359375 5.667969 8.269531 5.734375 8.070312 5.605469 C 7.988281 5.550781 7.917969 5.421875 7.871094 5.238281 C 7.824219 5.058594 7.757812 4.933594 7.6875 4.894531 C 7.625 4.863281 7.53125 4.800781 7.480469 4.753906 C 7.386719 4.675781 7.386719 4.667969 7.480469 4.597656 C 7.570312 4.53125 7.566406 4.523438 7.46875 4.449219 C 7.359375 4.367188 7.128906 4.386719 7.070312 4.480469 C 7.054688 4.511719 7.082031 4.574219 7.140625 4.617188 C 7.234375 4.6875 7.238281 4.699219 7.15625 4.757812 C 7.015625 4.867188 6.984375 5.050781 7.078125 5.234375 C 7.1875 5.449219 7.191406 5.441406 6.992188 5.542969 C 6.84375 5.625 6.816406 5.625 6.734375 5.550781 C 6.683594 5.503906 6.570312 5.441406 6.484375 5.40625 C 6.339844 5.351562 6.3125 5.359375 6.199219 5.5 C 6.03125 5.703125 6.039062 5.78125 6.238281 6.027344 C 6.453125 6.289062 6.425781 6.476562 6.175781 6.527344 C 6.046875 6.554688 5.964844 6.53125 5.832031 6.429688 C 5.5625 6.226562 5.320312 6.195312 5.164062 6.34375 C 5.089844 6.414062 4.976562 6.472656 4.90625 6.480469 C 4.710938 6.5 4.699219 6.503906 4.699219 6.550781 C 4.699219 6.574219 4.796875 6.636719 4.917969 6.6875 C 5.058594 6.75 5.136719 6.820312 5.136719 6.882812 C 5.136719 6.945312 5.21875 7.019531 5.355469 7.082031 C 5.601562 7.191406 5.628906 7.269531 5.464844 7.417969 C 5.316406 7.554688 5.324219 7.589844 5.554688 7.808594 C 5.730469 7.976562 5.75 8.015625 5.722656 8.203125 C 5.617188 8.929688 5.617188 8.96875 5.707031 9.042969 C 5.785156 9.105469 5.792969 9.09375 5.792969 8.9375 C 5.792969 8.789062 5.808594 8.769531 5.90625 8.800781 C 5.96875 8.820312 6.050781 8.808594 6.09375 8.773438 C 6.210938 8.671875 6.230469 8.78125 6.128906 8.992188 C 6.058594 9.140625 6.007812 9.179688 5.917969 9.167969 C 5.820312 9.152344 5.792969 9.175781 5.792969 9.28125 C 5.792969 9.351562 5.765625 9.4375 5.734375 9.46875 C 5.660156 9.546875 5.898438 9.941406 6 9.902344 C 6.113281 9.859375 6.722656 10.378906 6.722656 10.519531 C 6.726562 10.691406 6.890625 10.828125 7.199219 10.917969 C 7.34375 10.960938 7.542969 11.066406 7.644531 11.152344 C 7.761719 11.257812 7.882812 11.308594 8 11.308594 L 8.175781 11.304688 L 8.046875 11.199219 Z M 8.773438 10.328125 C 8.757812 10.277344 8.695312 10.144531 8.636719 10.03125 C 8.582031 9.921875 8.53125 9.789062 8.53125 9.738281 C 8.53125 9.691406 8.496094 9.574219 8.449219 9.480469 C 8.402344 9.390625 8.371094 9.261719 8.382812 9.195312 C 8.398438 9.09375 8.417969 9.109375 8.519531 9.308594 C 8.589844 9.433594 8.640625 9.574219 8.640625 9.617188 C 8.640625 9.734375 8.777344 9.828125 8.84375 9.761719 C 8.875 9.730469 8.941406 9.722656 8.992188 9.742188 C 9.066406 9.769531 9.078125 9.820312 9.050781 10.011719 C 9.023438 10.199219 9.035156 10.25 9.105469 10.28125 C 9.242188 10.332031 9.152344 10.425781 8.964844 10.425781 C 8.859375 10.425781 8.792969 10.394531 8.773438 10.328125 Z M 7.140625 9.863281 C 7.007812 9.671875 7.035156 9.496094 7.21875 9.34375 C 7.308594 9.265625 7.382812 9.171875 7.382812 9.132812 C 7.382812 9.066406 7.550781 8.882812 7.613281 8.882812 C 7.628906 8.882812 7.578125 9.003906 7.503906 9.15625 C 7.355469 9.460938 7.371094 9.605469 7.542969 9.558594 C 7.714844 9.515625 7.683594 9.660156 7.488281 9.835938 C 7.28125 10.015625 7.25 10.019531 7.140625 9.863281 Z M 8.808594 9.570312 C 8.808594 9.527344 8.832031 9.488281 8.863281 9.488281 C 8.890625 9.488281 8.917969 9.527344 8.917969 9.570312 C 8.917969 9.617188 8.890625 9.652344 8.863281 9.652344 C 8.832031 9.652344 8.808594 9.617188 8.808594 9.570312 Z M 8.09375 9.296875 C 8.09375 9.25 8.117188 9.210938 8.148438 9.210938 C 8.175781 9.210938 8.1875 9.25 8.167969 9.296875 C 8.152344 9.339844 8.128906 9.378906 8.117188 9.378906 C 8.105469 9.378906 8.09375 9.339844 8.09375 9.296875 Z M 8.628906 9.234375 C 8.605469 9.210938 8.585938 9.15625 8.585938 9.109375 C 8.585938 9.046875 8.605469 9.039062 8.648438 9.085938 C 8.683594 9.121094 8.699219 9.175781 8.6875 9.210938 C 8.675781 9.246094 8.648438 9.257812 8.628906 9.234375 Z M 8.292969 8.964844 C 8.277344 8.917969 8.285156 8.882812 8.316406 8.882812 C 8.34375 8.882812 8.367188 8.917969 8.367188 8.964844 C 8.367188 9.007812 8.359375 9.046875 8.347656 9.046875 C 8.335938 9.046875 8.3125 9.007812 8.292969 8.964844 Z M 6.023438 7.878906 C 6.050781 7.625 6.179688 7.605469 6.179688 7.855469 C 6.179688 7.996094 6.15625 8.054688 6.09375 8.054688 C 6.03125 8.054688 6.011719 8.007812 6.023438 7.878906 Z M 5.421875 6.945312 C 5.4375 6.90625 5.480469 6.863281 5.519531 6.847656 C 5.558594 6.835938 5.578125 6.855469 5.566406 6.898438 C 5.554688 6.9375 5.511719 6.980469 5.46875 6.996094 C 5.429688 7.007812 5.410156 6.988281 5.421875 6.945312 Z M 6.644531 6.066406 C 6.625 6.035156 6.648438 5.996094 6.699219 5.976562 C 6.800781 5.9375 6.859375 5.980469 6.8125 6.0625 C 6.765625 6.136719 6.6875 6.140625 6.644531 6.066406 Z M 10.75 9.820312 C 10.769531 9.789062 10.746094 9.765625 10.703125 9.765625 C 10.65625 9.765625 10.605469 9.789062 10.585938 9.820312 C 10.566406 9.851562 10.589844 9.875 10.632812 9.875 C 10.679688 9.875 10.730469 9.851562 10.75 9.820312 Z M 9.628906 9.386719 C 9.628906 9.308594 9.566406 9.273438 9.484375 9.304688 C 9.371094 9.347656 9.394531 9.433594 9.519531 9.433594 C 9.578125 9.433594 9.628906 9.414062 9.628906 9.386719 Z M 6.835938 8.6875 C 6.835938 8.640625 6.800781 8.585938 6.753906 8.570312 C 6.707031 8.550781 6.671875 8.503906 6.671875 8.460938 C 6.671875 8.355469 6.566406 8.363281 6.523438 8.472656 C 6.503906 8.53125 6.539062 8.601562 6.621094 8.667969 C 6.785156 8.792969 6.835938 8.796875 6.835938 8.6875 Z M 8.972656 8.441406 C 8.972656 8.414062 8.945312 8.375 8.917969 8.355469 C 8.886719 8.339844 8.863281 8.363281 8.863281 8.410156 C 8.863281 8.457031 8.886719 8.496094 8.917969 8.496094 C 8.945312 8.496094 8.972656 8.472656 8.972656 8.441406 Z M 9.492188 8.328125 C 9.511719 8.296875 9.484375 8.257812 9.4375 8.238281 C 9.332031 8.199219 9.273438 8.242188 9.324219 8.324219 C 9.371094 8.398438 9.445312 8.402344 9.492188 8.328125 Z M 9.082031 8.273438 C 9.082031 8.242188 9.054688 8.21875 9.027344 8.21875 C 8.996094 8.21875 8.972656 8.242188 8.972656 8.273438 C 8.972656 8.304688 8.996094 8.328125 9.027344 8.328125 C 9.054688 8.328125 9.082031 8.304688 9.082031 8.273438 Z M 8.695312 8.21875 C 8.695312 8.1875 8.671875 8.164062 8.640625 8.164062 C 8.613281 8.164062 8.585938 8.1875 8.585938 8.21875 C 8.585938 8.25 8.613281 8.273438 8.640625 8.273438 C 8.671875 8.273438 8.695312 8.25 8.695312 8.21875 Z M 9.847656 7.988281 C 10.011719 7.929688 10.207031 7.875 10.28125 7.871094 C 10.351562 7.863281 10.421875 7.828125 10.433594 7.792969 C 10.464844 7.699219 9.644531 7.75 9.316406 7.859375 C 9.183594 7.90625 9.039062 7.941406 8.996094 7.941406 C 8.953125 7.941406 8.917969 7.980469 8.917969 8.027344 C 8.917969 8.078125 8.9375 8.101562 8.960938 8.089844 C 8.984375 8.074219 9.039062 8.082031 9.082031 8.113281 C 9.179688 8.171875 9.449219 8.128906 9.847656 7.988281 Z M 8.367188 8.054688 C 8.367188 8.023438 8.34375 8 8.3125 8 C 8.285156 8 8.257812 8.023438 8.257812 8.054688 C 8.257812 8.082031 8.285156 8.109375 8.3125 8.109375 C 8.34375 8.109375 8.367188 8.082031 8.367188 8.054688 Z M 5.070312 7.820312 C 5.125 7.695312 5.121094 7.667969 5.0625 7.667969 C 4.992188 7.667969 4.921875 7.824219 4.921875 7.996094 C 4.917969 8.097656 4.988281 8.015625 5.070312 7.820312 Z M 6.726562 7.96875 C 6.765625 7.921875 6.78125 7.871094 6.761719 7.851562 C 6.707031 7.796875 6.5625 7.878906 6.5625 7.96875 C 6.5625 8.078125 6.636719 8.078125 6.726562 7.96875 Z M 7.855469 7.902344 C 7.796875 7.847656 7.753906 7.929688 7.796875 8.003906 C 7.832031 8.0625 7.84375 8.0625 7.863281 8.003906 C 7.875 7.96875 7.871094 7.921875 7.855469 7.902344 Z M 7.351562 7.578125 C 7.171875 7.484375 7.183594 7.484375 7.144531 7.589844 C 7.117188 7.65625 7.136719 7.667969 7.21875 7.640625 C 7.296875 7.613281 7.328125 7.628906 7.328125 7.699219 C 7.328125 7.773438 7.34375 7.777344 7.410156 7.722656 C 7.484375 7.660156 7.476562 7.640625 7.351562 7.578125 Z M 8.695312 7.574219 C 8.695312 7.433594 8.691406 7.429688 8.609375 7.511719 C 8.558594 7.5625 8.535156 7.628906 8.554688 7.660156 C 8.625 7.773438 8.695312 7.726562 8.695312 7.574219 Z M 9.132812 7.621094 C 9.132812 7.550781 9.070312 7.5 9.015625 7.535156 C 8.960938 7.570312 9.007812 7.667969 9.082031 7.667969 C 9.113281 7.667969 9.132812 7.648438 9.132812 7.621094 Z M 5.027344 7.265625 C 5.027344 6.878906 4.773438 6.644531 4.589844 6.867188 C 4.5 6.976562 4.5625 7.117188 4.699219 7.117188 C 4.785156 7.117188 4.808594 7.152344 4.808594 7.273438 C 4.808594 7.445312 4.847656 7.5 4.957031 7.5 C 5.003906 7.5 5.027344 7.425781 5.027344 7.265625 Z M 7.078125 7.382812 C 7.042969 7.328125 6.945312 7.375 6.945312 7.449219 C 6.945312 7.476562 6.980469 7.484375 7.027344 7.464844 C 7.070312 7.449219 7.09375 7.414062 7.078125 7.382812 Z M 9.078125 7.335938 C 9.078125 7.304688 9.054688 7.28125 9.027344 7.28125 C 9 7.28125 8.960938 7.304688 8.941406 7.335938 C 8.925781 7.367188 8.945312 7.390625 8.992188 7.390625 C 9.039062 7.390625 9.078125 7.367188 9.078125 7.335938 Z M 8.914062 7.082031 C 8.914062 6.964844 8.765625 6.992188 8.734375 7.113281 C 8.71875 7.171875 8.722656 7.234375 8.738281 7.25 C 8.78125 7.292969 8.914062 7.167969 8.914062 7.082031 Z M 11.542969 7.050781 C 11.542969 6.960938 11.527344 6.945312 11.480469 6.988281 C 11.449219 7.023438 11.4375 7.078125 11.457031 7.109375 C 11.515625 7.203125 11.542969 7.183594 11.542969 7.050781 Z M 7.601562 6.734375 C 7.601562 6.617188 7.460938 6.539062 7.40625 6.625 C 7.371094 6.683594 7.476562 6.839844 7.554688 6.839844 C 7.578125 6.839844 7.601562 6.792969 7.601562 6.734375 Z M 9.234375 6.6875 C 9.246094 6.597656 9.222656 6.5625 9.152344 6.5625 C 9.042969 6.5625 8.898438 6.75 8.957031 6.808594 C 9.035156 6.886719 9.214844 6.808594 9.234375 6.6875 Z M 9.40625 6.375 C 9.40625 6.246094 9.320312 6.136719 9.265625 6.191406 C 9.222656 6.234375 9.304688 6.507812 9.359375 6.507812 C 9.386719 6.507812 9.40625 6.449219 9.40625 6.375 Z M 4.792969 9.671875 C 4.738281 9.617188 4.746094 9.324219 4.800781 9.324219 C 4.867188 9.324219 4.921875 9.613281 4.871094 9.667969 C 4.847656 9.691406 4.8125 9.695312 4.792969 9.671875 Z M 5.523438 5.707031 C 5.558594 5.660156 5.601562 5.632812 5.617188 5.648438 C 5.652344 5.6875 5.578125 5.789062 5.511719 5.789062 C 5.472656 5.789062 5.480469 5.757812 5.523438 5.707031 Z M 5.027344 11.652344 C 5.027344 11.632812 4.980469 11.554688 4.925781 11.480469 C 4.804688 11.324219 4.714844 11.414062 4.820312 11.582031 C 4.886719 11.691406 5.03125 11.738281 5.027344 11.652344 Z M 4.679688 10.945312 C 4.714844 10.859375 4.5625 10.65625 4.507812 10.710938 C 4.460938 10.757812 4.539062 11.035156 4.597656 11.035156 C 4.625 11.035156 4.664062 10.992188 4.679688 10.945312 Z M 4.152344 9.023438 C 4.152344 8.875 4.070312 8.789062 4.015625 8.882812 C 3.972656 8.953125 4.035156 9.15625 4.101562 9.15625 C 4.128906 9.15625 4.152344 9.097656 4.152344 9.023438 Z M 3.992188 6.113281 C 4.28125 5.875 4.507812 5.574219 4.441406 5.507812 C 4.300781 5.367188 3.660156 5.910156 3.660156 6.171875 C 3.660156 6.332031 3.738281 6.316406 3.992188 6.113281 Z M 3.992188 6.113281 "/>
</g>
</svg>
