<svg xmlns="http://www.w3.org/2000/svg" viewBox="0 0 16 16"><path d="m 13.949 2.531 c 9.07 13.848 -15.711 19.21 -13.738 4.961 c 0.805 -5.813 10.266 -10.258 13.738 -4.961" fill="#09020a"/><path d="m 1.586 5.215 h 12.941 v 5.965 h -12.941" fill="#ffd600"/><path d="m 1.469 8.547 v -3.676 h 13.242 v 7.352 h -13.242 m 4.391 -0.391 c 0 -0.133 -0.016 -0.148 -0.145 -0.148 c -0.078 0 -0.176 -0.031 -0.219 -0.07 c -0.063 -0.063 -0.078 -0.059 -0.102 0.008 c -0.059 0.168 0 0.27 0.148 0.254 c 0.098 -0.008 0.152 0.016 0.172 0.07 c 0.043 0.129 0.145 0.051 0.145 -0.113 m -1.098 0.023 c 0.105 -0.098 0.074 -0.215 -0.047 -0.18 c -0.074 0.023 -0.121 0.008 -0.137 -0.047 c -0.016 -0.039 -0.047 -0.074 -0.074 -0.074 c -0.063 0 -0.152 0.199 -0.125 0.273 c 0.027 0.078 0.305 0.098 0.383 0.027 m 2.063 -0.07 c 0 -0.086 -0.031 -0.102 -0.184 -0.105 c -0.102 -0.004 -0.211 0.016 -0.242 0.043 c -0.039 0.031 -0.066 0.023 -0.086 -0.035 c -0.043 -0.125 -0.109 -0.098 -0.109 0.043 c 0 0.141 0.086 0.176 0.414 0.164 c 0.172 -0.004 0.207 -0.023 0.207 -0.109 m 0.668 0.078 c 0.086 0.008 0.387 0.02 0.664 0.02 c 0.477 0.004 0.508 0 0.508 -0.098 c 0 -0.086 -0.031 -0.102 -0.184 -0.105 c -0.102 -0.004 -0.211 0.016 -0.246 0.047 c -0.039 0.031 -0.074 0.031 -0.113 -0.012 c -0.027 -0.031 -0.117 -0.059 -0.195 -0.059 c -0.078 0 -0.164 -0.027 -0.195 -0.059 c -0.035 -0.043 -0.07 -0.043 -0.113 -0.004 c -0.09 0.082 -0.242 0.094 -0.32 0.023 c -0.098 -0.09 -0.219 -0.023 -0.219 0.117 c 0 0.129 0.074 0.188 0.184 0.141 c 0.035 -0.016 0.141 -0.023 0.23 -0.012 m 1.719 0.004 c 0.047 -0.082 -0.074 -0.371 -0.148 -0.355 c -0.074 0.016 -0.16 0.281 -0.121 0.359 c 0.035 0.059 0.238 0.055 0.27 -0.004 m 1.074 -0.016 c 0.102 -0.113 0.063 -0.188 -0.094 -0.18 c -0.082 0.008 -0.176 0.031 -0.211 0.055 c -0.039 0.031 -0.066 0.012 -0.082 -0.055 c -0.016 -0.07 -0.066 -0.094 -0.203 -0.094 c -0.168 0 -0.184 0.012 -0.184 0.141 c 0 0.152 0.043 0.18 0.129 0.086 c 0.039 -0.043 0.07 -0.047 0.113 -0.008 c 0.125 0.113 0.449 0.148 0.531 0.055 m 0.379 -0.066 c 0 -0.137 -0.117 -0.227 -0.188 -0.148 c -0.066 0.078 0.004 0.277 0.102 0.277 c 0.059 0 0.086 -0.039 0.086 -0.129 m 0.41 0.09 c 0 -0.105 -0.059 -0.27 -0.094 -0.27 c -0.047 0 -0.055 0.223 -0.012 0.273 c 0.043 0.047 0.109 0.043 0.105 -0.004 m 0.324 -0.035 c 0.063 -0.086 0.027 -0.184 -0.07 -0.184 c -0.082 0 -0.129 0.09 -0.098 0.184 c 0.035 0.094 0.094 0.094 0.168 0 m 0.406 -0.059 c 0.008 -0.09 -0.012 -0.105 -0.129 -0.105 c -0.098 0 -0.141 0.023 -0.141 0.082 c 0 0.121 0.051 0.164 0.16 0.145 c 0.055 -0.008 0.102 -0.059 0.109 -0.121 m 0.461 0.016 c -0.012 -0.09 -0.047 -0.117 -0.156 -0.121 c -0.176 -0.004 -0.207 0.016 -0.172 0.117 c 0.016 0.047 0.059 0.066 0.109 0.051 c 0.047 -0.012 0.098 -0.004 0.113 0.023 c 0.051 0.09 0.117 0.047 0.105 -0.07 m -7.133 -0.043 c 0.008 -0.039 -0.008 -0.105 -0.031 -0.148 c -0.066 -0.109 -0.16 0.008 -0.117 0.152 c 0.031 0.117 0.129 0.117 0.148 -0.004 m 1.531 -0.895 c 0 -0.129 -0.031 -0.148 -0.215 -0.129 c -0.055 0.004 -0.113 -0.016 -0.129 -0.047 c -0.066 -0.117 -0.172 -0.059 -0.156 0.086 c 0.016 0.125 0.031 0.141 0.16 0.125 c 0.082 -0.008 0.16 0.012 0.176 0.039 c 0.059 0.105 0.164 0.059 0.164 -0.074 m 1.273 0.008 c 0.031 -0.02 0.059 -0.07 0.059 -0.105 c 0 -0.086 -0.27 -0.152 -0.34 -0.086 c -0.07 0.063 -0.402 0.051 -0.48 -0.016 c -0.047 -0.039 -0.078 -0.027 -0.129 0.043 c -0.035 0.055 -0.063 0.117 -0.063 0.137 c 0 0.078 0.852 0.102 0.953 0.027 m 0.75 0.047 c 0 -0.012 0.012 -0.055 0.027 -0.102 c 0.02 -0.063 -0.004 -0.082 -0.117 -0.082 c -0.152 0 -0.156 0.004 -0.113 0.125 c 0.023 0.07 0.203 0.121 0.203 0.059 m 0.586 -0.039 c 0.105 -0.117 0.066 -0.23 -0.082 -0.23 c -0.098 0 -0.137 0.027 -0.137 0.086 c 0 0.082 0.082 0.207 0.137 0.207 c 0.016 0 0.051 -0.027 0.082 -0.063 m 1.113 -0.035 c 0 -0.098 -0.133 -0.227 -0.199 -0.195 c -0.102 0.043 -0.098 0.227 0.004 0.254 c 0.094 0.023 0.195 -0.008 0.195 -0.059 m -2.07 -0.063 c 0 -0.07 -0.023 -0.098 -0.078 -0.086 c -0.121 0.023 -0.133 0.195 -0.016 0.195 c 0.066 0 0.094 -0.035 0.094 -0.109 m 1.289 0 c 0 -0.07 -0.023 -0.098 -0.082 -0.086 c -0.117 0.023 -0.133 0.195 -0.012 0.195 c 0.063 0 0.094 -0.035 0.094 -0.109 m 0.461 0.031 c 0 -0.043 -0.043 -0.078 -0.09 -0.078 c -0.051 0 -0.102 -0.023 -0.117 -0.051 c -0.055 -0.094 -0.117 -0.051 -0.117 0.078 c 0 0.113 0.02 0.129 0.16 0.129 c 0.113 0 0.164 -0.023 0.164 -0.078 m 4.254 -1.547 c -0.016 -0.098 -0.051 -0.164 -0.074 -0.148 c -0.051 0.035 -0.059 0.281 -0.012 0.41 c 0.051 0.152 0.121 -0.059 0.086 -0.262 m -5.05 -0.133 c -0.016 -0.043 -0.027 -0.031 -0.027 0.031 c -0.004 0.055 0.008 0.082 0.023 0.066 c 0.016 -0.016 0.016 -0.063 0.004 -0.098 m 0.949 -0.004 c 0.016 -0.063 0.031 -0.43 0.031 -0.813 c 0 -0.383 0.02 -0.719 0.043 -0.746 c 0.063 -0.07 -0.012 -0.406 -0.09 -0.422 c -0.18 -0.031 -0.195 0.051 -0.191 0.945 c 0 0.816 0.043 1.152 0.141 1.152 c 0.023 0 0.055 -0.055 0.066 -0.117 m 1.465 -0.188 c 0.031 -0.207 -0.02 -0.91 -0.07 -0.965 c -0.078 -0.086 -0.109 0.094 -0.094 0.559 c 0.008 0.293 0.016 0.559 0.016 0.598 c 0.004 0.156 0.117 0.008 0.148 -0.191 m -9.715 -1.07 c 0.004 -0.668 -0.031 -0.875 -0.105 -0.652 c -0.039 0.113 -0.035 1.516 0.004 1.723 c 0.035 0.172 0.035 0.172 0.066 -0.082 c 0.016 -0.141 0.031 -0.586 0.035 -0.988 m 1.246 1.086 c 0 -0.043 -0.023 -0.063 -0.047 -0.047 c -0.027 0.02 -0.035 0.055 -0.02 0.082 c 0.039 0.07 0.066 0.059 0.066 -0.035 m 5.379 -0.285 c 0 -0.305 -0.199 -0.449 -0.527 -0.383 c -0.254 0.055 -0.355 -0.035 -0.336 -0.293 l 0.012 -0.219 l 0.492 -0.031 c 0.27 -0.016 0.57 -0.016 0.668 0.004 l 0.176 0.031 l 0.023 0.488 c 0.016 0.301 0.051 0.543 0.098 0.641 l 0.074 0.152 l 0.047 -0.203 c 0.027 -0.113 0.055 -0.457 0.063 -0.762 c 0.016 -0.52 0.008 -0.566 -0.09 -0.688 c -0.094 -0.121 -0.125 -0.129 -0.32 -0.094 c -0.121 0.02 -0.434 0.035 -0.699 0.027 c -0.777 -0.016 -0.883 0.086 -0.789 0.727 c 0.066 0.441 0.152 0.574 0.348 0.543 c 0.074 -0.012 0.215 0 0.316 0.031 c 0.145 0.039 0.195 0.086 0.25 0.234 c 0.063 0.172 0.07 0.176 0.133 0.086 c 0.035 -0.055 0.063 -0.188 0.063 -0.293 m 4.48 -0.465 c 0.004 -0.586 0.012 -0.684 0.078 -0.699 c 0.055 -0.012 0.082 0.039 0.105 0.215 c 0.031 0.227 0.094 0.332 0.152 0.266 c 0.059 -0.063 0.012 -0.988 -0.055 -1.172 c -0.039 -0.105 -0.059 -0.223 -0.047 -0.262 c 0.035 -0.102 -0.059 -0.16 -0.137 -0.09 c -0.031 0.031 -0.094 0.043 -0.133 0.023 c -0.055 -0.02 -0.09 0.012 -0.121 0.105 c -0.066 0.191 -0.063 2.164 0.004 2.301 c 0.102 0.211 0.148 0.004 0.152 -0.688 m -8.504 0.504 c 0.02 -0.145 0.004 -0.336 -0.047 -0.551 c -0.043 -0.18 -0.09 -0.469 -0.105 -0.637 l -0.031 -0.309 l -0.406 0.008 l -0.086 0.332 c -0.086 0.344 -0.113 0.918 -0.043 0.918 c 0.047 0 0.16 -0.645 0.129 -0.707 c -0.035 -0.066 0.059 -0.27 0.125 -0.27 c 0.121 0 0.188 0.172 0.223 0.563 c 0.055 0.676 0.09 0.879 0.152 0.879 c 0.035 0 0.074 -0.094 0.09 -0.227 m 6 0.047 c 0 -0.082 -0.082 -0.156 -0.121 -0.113 c -0.039 0.043 0.02 0.188 0.074 0.188 c 0.027 0 0.047 -0.031 0.047 -0.074 m -5.117 -0.086 c 0.082 -0.078 0.074 -0.375 -0.008 -0.457 c -0.039 -0.035 -0.07 -0.098 -0.07 -0.137 c 0 -0.039 -0.023 -0.121 -0.051 -0.176 c -0.039 -0.082 -0.063 -0.09 -0.113 -0.043 c -0.066 0.063 -0.094 0.621 -0.043 0.777 c 0.031 0.09 0.203 0.109 0.285 0.035 m 1.227 -0.492 c 0.016 -0.305 0.031 -0.637 0.039 -0.734 c 0.012 -0.152 -0.004 -0.184 -0.086 -0.195 c -0.125 -0.02 -0.141 0.051 -0.133 0.555 c 0.012 0.836 0.023 0.926 0.09 0.926 c 0.051 0 0.07 -0.125 0.09 -0.551 m 4.332 0.371 c 0.082 -0.137 0.102 -0.484 0.059 -1.07 c -0.035 -0.465 -0.082 -0.512 -0.402 -0.418 c -0.137 0.039 -0.258 0.082 -0.27 0.098 c -0.012 0.012 0 0.086 0.023 0.168 c 0.031 0.113 0.078 0.148 0.215 0.176 c 0.215 0.039 0.254 0.105 0.254 0.43 c 0 0.305 -0.027 0.367 -0.195 0.414 c -0.125 0.035 -0.148 0.098 -0.098 0.25 c 0.047 0.137 0.324 0.105 0.414 -0.047 m -4.902 -0.102 c 0 -0.125 -0.02 -0.18 -0.066 -0.18 c -0.098 0 -0.121 0.078 -0.07 0.227 c 0.063 0.188 0.137 0.164 0.137 -0.047 m -2.852 -0.504 c 0 -0.27 -0.023 -0.469 -0.066 -0.551 c -0.063 -0.121 -0.066 -0.102 -0.066 0.262 c -0.004 0.215 0.012 0.465 0.027 0.555 c 0.051 0.297 0.109 0.16 0.105 -0.266 m 2.07 -0.496 c 0 -0.027 -0.02 -0.063 -0.043 -0.082 c -0.027 -0.016 -0.047 0.004 -0.047 0.051 c 0 0.043 0.02 0.078 0.047 0.078 c 0.023 0 0.043 -0.02 0.043 -0.047 m 6.734 -0.207 c 0.082 -0.035 0.117 -0.09 0.117 -0.18 c 0 -0.074 -0.02 -0.133 -0.047 -0.133 c -0.023 0 -0.043 -0.066 -0.043 -0.148 c 0 -0.188 -0.043 -0.223 -0.188 -0.141 c -0.148 0.082 -0.223 0.273 -0.195 0.512 c 0.027 0.211 0.051 0.219 0.355 0.09 m 0.441 -0.262 c 0 -0.266 -0.063 -0.461 -0.141 -0.461 c -0.043 0 -0.02 0.484 0.027 0.656 c 0.043 0.16 0.113 0.039 0.113 -0.195 m 1.832 -0.027 c 0.023 -0.133 -0.09 -1.105 -0.141 -1.219 c -0.086 -0.188 -0.164 -0.004 -0.164 0.379 c 0 0.203 -0.02 0.387 -0.051 0.418 c -0.082 0.094 -0.063 0.172 0.094 0.371 c 0.156 0.195 0.234 0.211 0.262 0.051" fill="#dd1a00"/><path d="m 1.402 8.418 v -3.676 h 13.242 v 7.352 h -13.242 m 4.391 -0.387 c 0 -0.137 -0.016 -0.152 -0.141 -0.152 c -0.078 0 -0.176 -0.031 -0.219 -0.07 c -0.063 -0.059 -0.078 -0.059 -0.102 0.012 c -0.059 0.168 0 0.266 0.148 0.254 c 0.098 -0.008 0.152 0.012 0.172 0.066 c 0.043 0.129 0.141 0.055 0.141 -0.109 m -1.094 0.02 c 0.105 -0.098 0.074 -0.211 -0.051 -0.176 c -0.074 0.02 -0.117 0.004 -0.137 -0.047 c -0.012 -0.043 -0.047 -0.078 -0.07 -0.078 c -0.063 0 -0.152 0.199 -0.129 0.273 c 0.027 0.082 0.309 0.102 0.387 0.027 m 2.063 -0.066 c 0 -0.086 -0.035 -0.105 -0.184 -0.109 c -0.102 0 -0.211 0.02 -0.242 0.047 c -0.039 0.031 -0.066 0.02 -0.086 -0.035 c -0.043 -0.125 -0.109 -0.102 -0.109 0.039 c 0 0.145 0.082 0.18 0.414 0.168 c 0.172 -0.008 0.207 -0.023 0.207 -0.109 m 0.664 0.074 c 0.09 0.012 0.391 0.02 0.668 0.023 c 0.477 0.004 0.504 -0.004 0.504 -0.098 c 0 -0.086 -0.031 -0.105 -0.184 -0.109 c -0.102 0 -0.211 0.02 -0.242 0.047 c -0.039 0.035 -0.078 0.031 -0.113 -0.008 c -0.027 -0.035 -0.117 -0.059 -0.195 -0.059 c -0.078 0 -0.168 -0.027 -0.195 -0.063 c -0.039 -0.039 -0.07 -0.043 -0.113 -0.004 c -0.094 0.086 -0.246 0.098 -0.32 0.027 c -0.098 -0.094 -0.223 -0.027 -0.223 0.117 c 0 0.129 0.078 0.188 0.184 0.141 c 0.039 -0.02 0.145 -0.023 0.23 -0.016 m 1.723 0.008 c 0.047 -0.086 -0.074 -0.371 -0.148 -0.355 c -0.074 0.016 -0.164 0.281 -0.121 0.355 c 0.031 0.059 0.238 0.059 0.27 0 m 1.074 -0.016 c 0.102 -0.117 0.063 -0.191 -0.094 -0.18 c -0.082 0.008 -0.176 0.031 -0.211 0.055 c -0.039 0.027 -0.066 0.012 -0.082 -0.055 c -0.02 -0.074 -0.066 -0.098 -0.203 -0.098 c -0.168 0 -0.184 0.012 -0.184 0.145 c 0 0.152 0.043 0.18 0.129 0.082 c 0.035 -0.043 0.07 -0.043 0.113 -0.004 c 0.125 0.113 0.449 0.145 0.531 0.055 m 0.375 -0.07 c 0 -0.137 -0.113 -0.227 -0.184 -0.145 c -0.066 0.074 0.004 0.273 0.098 0.273 c 0.063 0 0.09 -0.035 0.09 -0.129 m 0.41 0.094 c 0 -0.105 -0.059 -0.273 -0.098 -0.273 c -0.047 0 -0.055 0.227 -0.008 0.277 c 0.043 0.043 0.105 0.043 0.105 -0.004 m 0.32 -0.039 c 0.066 -0.086 0.027 -0.18 -0.066 -0.18 c -0.082 0 -0.129 0.086 -0.098 0.18 c 0.035 0.098 0.094 0.098 0.164 0 m 0.406 -0.059 c 0.012 -0.086 -0.008 -0.105 -0.125 -0.105 c -0.102 0 -0.141 0.023 -0.141 0.086 c 0 0.117 0.047 0.16 0.16 0.145 c 0.055 -0.012 0.098 -0.063 0.105 -0.125 m 0.461 0.02 c -0.012 -0.09 -0.047 -0.117 -0.152 -0.121 c -0.176 -0.008 -0.207 0.016 -0.176 0.113 c 0.016 0.047 0.063 0.07 0.113 0.055 c 0.047 -0.016 0.098 -0.004 0.113 0.023 c 0.047 0.09 0.117 0.043 0.102 -0.07 m -7.129 -0.043 c 0.008 -0.039 -0.008 -0.109 -0.031 -0.148 c -0.066 -0.113 -0.16 0.008 -0.117 0.148 c 0.031 0.121 0.129 0.121 0.148 0 m -3.16 -0.277 c 0 -0.066 -0.02 -0.137 -0.043 -0.152 c -0.051 -0.035 -0.113 0.156 -0.074 0.227 c 0.055 0.094 0.117 0.055 0.117 -0.074 m 0.598 -0.297 c 0.02 -0.434 0.012 -0.629 -0.023 -0.629 c -0.055 0 -0.113 0.418 -0.082 0.578 c 0.023 0.121 0.102 0.16 0.105 0.051 m -0.605 -2.07 c -0.004 -1.77 -0.023 -2.184 -0.102 -1.891 c -0.035 0.121 -0.031 3.656 0 3.805 c 0.078 0.348 0.102 -0.133 0.102 -1.914 m 4.695 1.75 c 0 -0.129 -0.027 -0.148 -0.211 -0.133 c -0.055 0.004 -0.113 -0.016 -0.129 -0.047 c -0.066 -0.113 -0.172 -0.055 -0.156 0.09 c 0.012 0.125 0.031 0.137 0.16 0.125 c 0.078 -0.008 0.16 0.008 0.176 0.039 c 0.059 0.102 0.16 0.055 0.16 -0.074 m 1.277 0.008 c 0.031 -0.023 0.059 -0.07 0.059 -0.109 c 0 -0.082 -0.27 -0.148 -0.34 -0.086 c -0.07 0.066 -0.402 0.055 -0.48 -0.012 c -0.047 -0.043 -0.082 -0.031 -0.129 0.043 c -0.035 0.055 -0.063 0.113 -0.063 0.137 c 0 0.074 0.852 0.102 0.953 0.027 m 0.746 0.047 c 0 -0.012 0.016 -0.059 0.027 -0.102 c 0.023 -0.066 0 -0.082 -0.113 -0.082 c -0.152 0 -0.156 0 -0.113 0.125 c 0.023 0.066 0.199 0.121 0.199 0.059 m 0.59 -0.039 c 0.105 -0.117 0.066 -0.23 -0.082 -0.23 c -0.098 0 -0.137 0.023 -0.137 0.082 c 0 0.082 0.082 0.207 0.137 0.207 c 0.016 0 0.051 -0.027 0.082 -0.059 m 1.113 -0.039 c 0 -0.098 -0.133 -0.223 -0.199 -0.195 c -0.102 0.043 -0.098 0.23 0.004 0.254 c 0.094 0.023 0.195 -0.008 0.195 -0.059 m -2.07 -0.059 c 0 -0.074 -0.023 -0.102 -0.078 -0.09 c -0.121 0.027 -0.133 0.195 -0.016 0.195 c 0.066 0 0.094 -0.031 0.094 -0.105 m 1.289 0 c 0 -0.074 -0.027 -0.102 -0.082 -0.09 c -0.117 0.027 -0.133 0.195 -0.016 0.195 c 0.066 0 0.098 -0.031 0.098 -0.105 m 0.457 0.027 c 0 -0.039 -0.039 -0.074 -0.086 -0.074 c -0.051 0 -0.102 -0.023 -0.117 -0.051 c -0.055 -0.098 -0.117 -0.055 -0.117 0.074 c 0 0.113 0.02 0.129 0.16 0.129 c 0.113 0 0.16 -0.023 0.16 -0.078 m -6.84 -0.137 c -0.043 -0.047 -0.055 -0.035 -0.055 0.063 c 0 0.094 0.012 0.109 0.055 0.063 c 0.043 -0.051 0.043 -0.078 0 -0.125 m 9.844 -2.07 c 0.008 -0.953 0.02 -1.082 0.086 -1.098 c 0.055 -0.012 0.082 0.043 0.105 0.219 c 0.027 0.223 0.09 0.332 0.152 0.266 c 0.055 -0.066 0.012 -0.992 -0.055 -1.176 c -0.039 -0.102 -0.059 -0.219 -0.047 -0.262 c 0.035 -0.098 -0.059 -0.16 -0.137 -0.09 c -0.035 0.031 -0.094 0.043 -0.137 0.027 c -0.16 -0.07 -0.18 0.184 -0.137 1.906 c 0.02 0.902 0.039 1.793 0.043 1.977 c 0.004 0.188 0.012 0.359 0.02 0.387 c 0.031 0.125 0.094 -1.172 0.105 -2.156 m -9.375 1.738 c 0.035 -0.309 -0.043 -0.43 -0.086 -0.137 c -0.016 0.109 -0.039 0.246 -0.051 0.305 c -0.02 0.117 0.023 0.199 0.074 0.137 c 0.02 -0.023 0.047 -0.16 0.063 -0.305 m 10.641 -0.414 c 0.008 -0.711 -0.02 -1 -0.086 -0.883 c -0.039 0.07 -0.047 1.473 -0.012 1.551 c 0.063 0.121 0.09 -0.082 0.098 -0.668 m -0.598 0.258 c 0.012 -0.324 0 -0.379 -0.102 -0.512 c -0.105 -0.137 -0.117 -0.141 -0.148 -0.051 c -0.031 0.094 0.047 0.816 0.102 0.914 c 0.074 0.133 0.137 -0.016 0.148 -0.352 m -10.48 -0.402 c 0 -0.605 -0.027 -0.914 -0.086 -0.875 c -0.047 0.035 -0.063 1.043 -0.02 1.348 c 0.051 0.387 0.105 0.145 0.105 -0.469 m 9.06 0.586 c 0 -0.145 -0.207 -0.473 -0.367 -0.59 c -0.098 -0.07 -0.199 -0.168 -0.227 -0.223 c -0.027 -0.055 -0.043 -0.359 -0.039 -0.684 c 0.004 -0.633 -0.035 -0.934 -0.117 -0.902 c -0.074 0.027 -0.094 1 -0.035 1.598 c 0.039 0.379 0.066 0.488 0.156 0.586 c 0.168 0.188 0.629 0.348 0.629 0.215 m -7.539 -0.301 c 0 -0.051 -0.043 -0.359 -0.094 -0.68 c -0.051 -0.32 -0.09 -0.668 -0.09 -0.766 c 0 -0.102 -0.035 -0.32 -0.074 -0.488 c -0.043 -0.172 -0.09 -0.445 -0.105 -0.617 l -0.027 -0.309 l -0.207 0.008 l -0.203 0.004 l -0.078 0.313 c -0.082 0.324 -0.219 1.988 -0.168 2.047 c 0.016 0.016 0.172 0 0.352 -0.035 c 0.395 -0.078 0.438 -0.047 0.512 0.344 c 0.031 0.18 0.074 0.277 0.117 0.277 c 0.035 0 0.066 -0.043 0.066 -0.098 m -0.832 -1.246 c -0.039 -0.078 -0.043 -0.227 -0.02 -0.477 c 0.02 -0.199 0.043 -0.453 0.051 -0.559 c 0.016 -0.227 0.047 -0.293 0.129 -0.293 c 0.121 0 0.188 0.176 0.227 0.609 c 0.074 0.844 0.082 0.801 -0.141 0.82 c -0.16 0.012 -0.199 -0.004 -0.246 -0.102 m 6.914 0.59 c -0.176 -0.586 -0.172 -0.684 0.035 -0.738 c 0.164 -0.043 0.23 -0.395 0.195 -1.031 c -0.035 -0.641 -0.066 -0.688 -0.426 -0.582 c -0.141 0.039 -0.316 0.074 -0.391 0.074 c -0.27 0 -0.27 -0.008 -0.262 1.184 c 0.004 1.164 0.027 1.438 0.121 1.438 c 0.066 0 0.113 -0.68 0.113 -1.582 c 0 -0.645 0.02 -0.68 0.34 -0.68 c 0.227 0 0.305 0.105 0.305 0.426 c 0 0.316 -0.027 0.375 -0.191 0.422 c -0.172 0.047 -0.285 0.199 -0.254 0.344 c 0.039 0.195 0.391 1.172 0.449 1.25 c 0.129 0.176 0.117 -0.016 -0.035 -0.523 m -5.05 0.453 c 0.262 -0.082 0.273 -0.094 0.289 -0.258 l 0.016 -0.176 l -0.305 0.035 c -0.418 0.047 -0.484 0 -0.484 -0.352 c 0 -0.348 0.063 -0.406 0.453 -0.441 l 0.305 -0.023 l 0.016 -0.18 l 0.012 -0.184 l -0.305 -0.008 c -0.316 -0.008 -0.434 -0.07 -0.434 -0.219 c 0 -0.047 -0.027 -0.125 -0.063 -0.176 c -0.051 -0.082 -0.066 -0.086 -0.117 -0.016 c -0.078 0.109 -0.051 1.805 0.031 1.977 c 0.07 0.137 0.195 0.141 0.586 0.02 m 1.852 -0.262 c 0.723 -0.027 0.758 -0.035 0.84 -0.148 c 0.117 -0.164 0.129 -0.934 0.016 -1.059 c -0.098 -0.109 -0.266 -0.152 -0.457 -0.109 c -0.25 0.051 -0.352 -0.039 -0.336 -0.297 l 0.016 -0.215 l 0.488 -0.031 c 0.273 -0.016 0.57 -0.016 0.668 0 l 0.176 0.031 l 0.047 0.926 c 0.039 0.766 0.059 0.926 0.113 0.926 c 0.059 0 0.078 -0.121 0.102 -0.645 c 0.078 -1.551 0.082 -1.43 -0.043 -1.574 c -0.098 -0.121 -0.129 -0.129 -0.324 -0.098 c -0.117 0.023 -0.434 0.035 -0.699 0.031 c -0.773 -0.016 -0.879 0.082 -0.785 0.727 c 0.07 0.484 0.121 0.539 0.496 0.566 c 0.34 0.023 0.43 0.102 0.43 0.375 c 0 0.25 -0.066 0.281 -0.551 0.281 c -0.496 0.004 -0.645 0.035 -0.645 0.137 c 0 0.094 -0.039 0.09 -0.27 -0.047 c -0.121 -0.07 -0.207 -0.164 -0.227 -0.242 c -0.035 -0.125 -0.035 -1.34 -0.004 -1.695 c 0.012 -0.145 -0.004 -0.184 -0.07 -0.199 c -0.047 -0.012 -0.102 0.012 -0.121 0.047 c -0.051 0.09 -0.004 1.941 0.051 2.141 c 0.055 0.188 0.168 0.285 0.27 0.234 c 0.039 -0.02 0.41 -0.047 0.82 -0.063 m -4.406 -1.66 c 0 -0.27 -0.027 -0.473 -0.066 -0.555 c -0.063 -0.117 -0.066 -0.102 -0.07 0.266 c 0 0.215 0.012 0.465 0.027 0.551 c 0.055 0.301 0.109 0.164 0.109 -0.262 m 11.08 -0.578 c -0.004 -0.695 -0.082 -1.535 -0.152 -1.668 c -0.051 -0.086 -0.152 0.02 -0.184 0.191 c -0.059 0.305 -0.168 2.023 -0.137 2.082 c 0.047 0.078 0.098 -0.125 0.105 -0.41 c 0.004 -0.262 0.039 -0.375 0.117 -0.375 c 0.09 0 0.117 0.121 0.117 0.559 c 0 0.219 0.012 0.414 0.031 0.434 c 0.074 0.086 0.105 -0.145 0.102 -0.813 m -1.84 -0.051 c 0 -0.523 -0.012 -0.656 -0.078 -0.746 c -0.078 -0.105 -0.086 -0.105 -0.309 -0.023 c -0.332 0.125 -0.414 0.227 -0.402 0.52 c 0.008 0.129 0.02 0.246 0.027 0.258 c 0.012 0.012 0.113 -0.008 0.234 -0.043 c 0.25 -0.078 0.363 -0.027 0.383 0.168 c 0.078 0.773 0.148 0.711 0.145 -0.133 m -7.168 0.129 c 0 -0.027 -0.02 -0.063 -0.047 -0.078 c -0.023 -0.02 -0.047 0.004 -0.047 0.047 c 0 0.043 0.023 0.082 0.047 0.082 c 0.027 0 0.047 -0.023 0.047 -0.051" fill="#9d1201"/><path d="m 1.191 8.418 l 0.211 -3.676 l 6.621 -0.105 l 6.813 0.066 l 0.129 3.715 l -0.277 3.848 l -6.641 -0.023 l -6.645 0.172 m 4.391 -0.707 c 0 -0.137 -0.016 -0.152 -0.141 -0.152 c -0.078 0 -0.176 -0.031 -0.219 -0.07 c -0.063 -0.059 -0.078 -0.059 -0.102 0.012 c -0.059 0.168 0 0.266 0.148 0.254 c 0.098 -0.008 0.152 0.012 0.172 0.066 c 0.043 0.129 0.141 0.055 0.141 -0.109 m -1.094 0.02 c 0.105 -0.098 0.074 -0.211 -0.051 -0.176 c -0.074 0.02 -0.117 0.004 -0.137 -0.047 c -0.012 -0.043 -0.047 -0.078 -0.07 -0.078 c -0.063 0 -0.152 0.199 -0.129 0.273 c 0.027 0.082 0.309 0.102 0.387 0.027 m 2.063 -0.066 c 0 -0.086 -0.031 -0.105 -0.184 -0.109 c -0.102 0 -0.211 0.02 -0.242 0.047 c -0.039 0.031 -0.066 0.02 -0.086 -0.035 c -0.043 -0.125 -0.109 -0.102 -0.109 0.039 c 0 0.145 0.082 0.18 0.414 0.168 c 0.172 -0.008 0.207 -0.023 0.207 -0.109 m 0.664 0.074 c 0.09 0.012 0.391 0.02 0.668 0.023 c 0.477 0.004 0.508 -0.004 0.508 -0.098 c 0 -0.086 -0.035 -0.105 -0.188 -0.109 c -0.098 0 -0.211 0.02 -0.242 0.047 c -0.039 0.035 -0.078 0.031 -0.113 -0.008 c -0.027 -0.035 -0.117 -0.059 -0.195 -0.059 c -0.078 0 -0.164 -0.027 -0.195 -0.063 c -0.039 -0.039 -0.07 -0.043 -0.113 -0.004 c -0.09 0.086 -0.246 0.098 -0.32 0.027 c -0.098 -0.094 -0.223 -0.027 -0.223 0.117 c 0 0.129 0.078 0.188 0.188 0.141 c 0.035 -0.02 0.141 -0.023 0.227 -0.016 m 1.723 0.008 c 0.047 -0.086 -0.074 -0.371 -0.148 -0.355 c -0.074 0.016 -0.164 0.281 -0.121 0.355 c 0.031 0.059 0.238 0.059 0.27 0 m 1.074 -0.016 c 0.102 -0.117 0.063 -0.191 -0.094 -0.18 c -0.082 0.008 -0.176 0.031 -0.211 0.055 c -0.039 0.027 -0.066 0.012 -0.082 -0.055 c -0.02 -0.074 -0.066 -0.098 -0.203 -0.098 c -0.168 0 -0.184 0.012 -0.184 0.145 c 0 0.152 0.043 0.18 0.129 0.082 c 0.035 -0.043 0.07 -0.043 0.113 -0.004 c 0.125 0.113 0.449 0.145 0.531 0.055 m 0.379 -0.07 c 0 -0.137 -0.117 -0.227 -0.188 -0.145 c -0.066 0.074 0.004 0.273 0.098 0.273 c 0.063 0 0.09 -0.035 0.09 -0.129 m 0.41 0.094 c 0 -0.105 -0.059 -0.273 -0.094 -0.273 c -0.051 0 -0.059 0.227 -0.012 0.277 c 0.043 0.043 0.109 0.043 0.105 -0.004 m 0.32 -0.039 c 0.066 -0.086 0.027 -0.18 -0.066 -0.18 c -0.082 0 -0.129 0.086 -0.098 0.18 c 0.035 0.098 0.094 0.098 0.164 0 m 0.406 -0.059 c 0.012 -0.086 -0.008 -0.105 -0.125 -0.105 c -0.102 0 -0.141 0.023 -0.141 0.086 c 0 0.117 0.051 0.16 0.16 0.145 c 0.055 -0.012 0.098 -0.063 0.105 -0.125 m 0.461 0.02 c -0.012 -0.09 -0.047 -0.117 -0.152 -0.121 c -0.176 -0.008 -0.207 0.016 -0.176 0.113 c 0.016 0.047 0.063 0.07 0.113 0.055 c 0.047 -0.016 0.098 -0.004 0.113 0.023 c 0.051 0.09 0.117 0.043 0.102 -0.07 m -7.129 -0.043 c 0.008 -0.039 -0.008 -0.109 -0.031 -0.148 c -0.066 -0.113 -0.16 0.008 -0.117 0.148 c 0.031 0.121 0.129 0.121 0.148 0 m -3.03 -2.762 c 0 -1.668 -0.121 -1.934 -0.16 -1.949 c -0.027 -0.012 -0.066 0.023 -0.09 0.074 c -0.039 0.098 -0.082 4.414 -0.043 4.527 c 0.016 0.039 0.063 0.063 0.105 0.051 c 0.074 -0.016 0.188 -0.547 0.188 -2.703 m 0.508 2.266 c 0.031 -0.078 0.059 -0.531 0.07 -1.016 c 0.008 -0.48 0.555 -2.945 0.543 -2.895 c -0.008 0.039 -0.277 0.25 -0.43 0.746 c -0.16 0.523 -0.203 1.34 -0.254 1.484 c -0.027 0.07 -0.586 -2.719 -0.578 -2.355 c 0.066 2.391 0.066 -0.488 0.117 1.758 c 0.016 0.75 0.348 2.313 0.371 2.355 c 0.055 0.098 0.105 0.074 0.16 -0.078 m 11.199 -0.723 c 0.016 -0.332 0.047 -0.789 0.074 -1.016 c 0.027 -0.223 0.055 -0.652 0.066 -0.949 c 0.016 -0.531 0.051 -0.926 0.102 -1.184 l 0.027 -0.129 l 0.035 0.129 c 0.02 0.07 0.035 0.508 0.039 0.723 c 0.008 0.43 0.188 1.039 0.285 0.934 c 0.078 -0.09 -0.027 -2.141 -0.09 -2.777 c -0.047 -0.453 -0.156 -0.809 -0.234 -0.758 c -0.129 0.09 -0.191 0.434 -0.254 1.402 c -0.035 0.559 -0.063 1.098 -0.066 1.199 c -0.008 0.703 -0.051 1.305 -0.086 1.348 c -0.027 0.027 -0.07 0.035 -0.094 0.02 c -0.059 -0.043 -0.145 -0.488 -0.145 -0.754 c 0 -0.246 -0.113 -0.395 -0.137 -0.156 c -0.027 0.242 0.125 1.859 0.18 2 c 0.027 0.063 0.047 0.211 0.047 0.324 c 0 0.113 0.023 0.254 0.051 0.316 c 0.102 0.203 0.168 -0.027 0.199 -0.672 m -7.145 0.324 c 0 -0.129 -0.031 -0.148 -0.215 -0.133 c -0.055 0.004 -0.113 -0.016 -0.129 -0.047 c -0.066 -0.113 -0.172 -0.055 -0.156 0.09 c 0.016 0.125 0.031 0.137 0.16 0.125 c 0.082 -0.008 0.16 0.008 0.176 0.039 c 0.059 0.102 0.164 0.055 0.164 -0.074 m -3.406 0.004 c 0.059 -0.082 0.051 -3.711 -0.012 -3.82 c -0.023 -0.039 -0.078 -0.016 -0.18 0.09 c -0.145 0.148 -0.145 0.148 -0.059 0.258 c 0.086 0.102 0.09 0.195 0.078 1.777 c -0.008 0.918 0 1.691 0.016 1.719 c 0.035 0.07 0.094 0.059 0.156 -0.023 m 4.68 0.004 c 0.031 -0.023 0.059 -0.07 0.059 -0.109 c 0 -0.082 -0.27 -0.148 -0.34 -0.086 c -0.07 0.066 -0.402 0.055 -0.48 -0.012 c -0.047 -0.043 -0.082 -0.031 -0.129 0.043 c -0.035 0.055 -0.063 0.113 -0.063 0.137 c 0 0.074 0.852 0.102 0.953 0.027 m 0.746 0.047 c 0 -0.012 0.016 -0.059 0.031 -0.102 c 0.02 -0.066 -0.004 -0.082 -0.117 -0.082 c -0.152 0 -0.156 0 -0.113 0.125 c 0.023 0.066 0.199 0.121 0.199 0.059 m 0.59 -0.039 c 0.105 -0.117 0.066 -0.23 -0.082 -0.23 c -0.098 0 -0.137 0.023 -0.137 0.082 c 0 0.082 0.082 0.207 0.137 0.207 c 0.016 0 0.051 -0.027 0.082 -0.059 m 0.906 0.008 c 0.148 0.063 0.23 -0.008 0.164 -0.148 c -0.063 -0.129 -0.168 -0.141 -0.223 -0.023 c -0.027 0.055 -0.055 0.063 -0.074 0.027 c -0.016 -0.031 -0.059 -0.043 -0.094 -0.027 c -0.035 0.012 -0.078 0 -0.094 -0.031 c -0.055 -0.094 -0.117 -0.059 -0.117 0.07 c 0 0.098 0.027 0.129 0.129 0.145 c 0.066 0.012 0.145 0 0.164 -0.02 c 0.023 -0.02 0.086 -0.016 0.145 0.008 m 4.281 -1.211 c 0 -0.707 -0.148 -0.738 -0.199 -0.863 c -0.109 -0.297 -0.129 -0.633 -0.129 0.438 c 0 1.023 0.059 1.773 0.18 1.641 c 0.035 -0.039 0.148 -0.555 0.148 -1.215 m -6.145 1.105 c 0 -0.074 -0.023 -0.102 -0.078 -0.09 c -0.121 0.027 -0.133 0.195 -0.016 0.195 c 0.066 0 0.094 -0.031 0.094 -0.105 m 1.289 0 c 0 -0.074 -0.023 -0.102 -0.082 -0.09 c -0.117 0.027 -0.133 0.195 -0.016 0.195 c 0.066 0 0.098 -0.031 0.098 -0.105 m 3.578 -1.547 c 0.016 -1.07 -0.043 -1.711 -0.016 -1.703 c 0.027 0.008 0.063 0.133 0.078 0.285 c 0.043 0.355 0.16 0.848 0.227 0.801 c 0.07 -0.051 -0.02 -1.574 -0.098 -1.738 c -0.031 -0.066 -0.059 -0.191 -0.063 -0.277 c -0.008 -0.145 -0.023 -0.156 -0.184 -0.164 c -0.148 -0.004 -0.184 0.016 -0.219 0.125 c -0.066 0.199 -0.059 4.16 0.012 4.254 c 0.137 0.188 0.238 0.082 0.262 -1.582 m -9.457 1.32 c 0.016 -0.086 0.031 -0.297 0.035 -0.469 c 0 -0.184 0.027 -0.34 0.063 -0.367 c 0.031 -0.031 0.168 -0.078 0.305 -0.113 c 0.297 -0.07 0.352 -0.031 0.395 0.27 c 0.047 0.34 0.07 0.395 0.16 0.395 c 0.184 0 0.184 -0.098 0.023 -1.156 c -0.086 -0.566 -0.188 -1.141 -0.227 -1.277 c -0.039 -0.137 -0.07 -0.324 -0.07 -0.41 c -0.004 -0.242 -0.059 -0.316 -0.184 -0.242 c -0.074 0.047 -0.117 0.047 -0.152 0.008 c -0.082 -0.094 -0.125 -0.066 -0.125 0.086 c 0 0.082 -0.02 0.168 -0.043 0.195 c -0.066 0.078 -0.18 0.766 -0.23 1.434 c -0.027 0.34 -0.07 0.77 -0.094 0.953 c -0.113 0.887 -0.113 0.883 0.008 0.867 c 0.074 -0.016 0.113 -0.063 0.137 -0.172 m 0.277 -1.758 c -0.063 -0.137 -0.016 -1.156 0.059 -1.242 c 0.145 -0.164 0.234 0.211 0.27 1.121 c 0.008 0.168 -0.004 0.184 -0.137 0.195 c -0.105 0.012 -0.16 -0.008 -0.191 -0.074 m 8.434 1.621 c 0.078 -0.094 0.172 -1 0.16 -1.555 c -0.008 -0.344 -0.109 0.133 -0.125 0.051 c -0.043 -0.246 -0.105 -0.047 -0.109 0.336 c 0 0.473 -0.09 0.574 -0.402 0.453 c -0.188 -0.074 -0.25 -0.262 -0.234 -0.695 c 0.008 -0.195 -0.004 -0.602 -0.023 -0.906 c -0.039 -0.547 -0.039 -0.547 0.078 -0.68 c 0.086 -0.098 0.168 -0.133 0.301 -0.133 c 0.199 0 0.234 0.051 0.234 0.34 c 0 0.223 0.07 1.441 0.121 1.441 c 0.07 0 0.195 -0.73 0.195 -1.398 c 0 -0.988 -0.133 -1.332 -0.566 -1.148 c -0.316 0.129 -0.391 0.246 -0.391 0.605 c 0 0.199 -0.031 0.328 -0.105 0.461 c -0.094 0.172 -0.105 0.266 -0.117 1.012 c -0.02 0.887 0.031 1.359 0.168 1.566 c 0.082 0.125 0.504 0.355 0.656 0.359 c 0.039 0 0.113 -0.047 0.16 -0.105 m -6.555 -0.508 c 0.25 -0.082 0.25 -0.086 0.266 -0.309 l 0.016 -0.223 l -0.348 0.023 c -0.207 0.016 -0.363 0.004 -0.395 -0.027 c -0.066 -0.074 -0.059 -0.531 0.012 -0.582 c 0.031 -0.02 0.199 -0.051 0.379 -0.066 l 0.32 -0.027 v -0.465 l -0.207 -0.012 c -0.453 -0.027 -0.5 -0.262 -0.586 -0.496 c -0.086 -0.234 0.891 0.094 0.883 -0.367 c 0 -0.078 -0.012 0.223 -0.031 -0.012 c -0.016 -0.141 -1 -0.07 -1.01 0.078 c -0.004 0.078 -0.016 0.211 -0.027 0.297 c -0.012 0.086 -0.023 0.59 -0.027 1.121 l -0.008 0.969 l 0.129 0.125 c 0.141 0.133 0.152 0.133 0.633 -0.027 m 5.195 0.074 c 0 -0.039 -0.074 -0.301 -0.164 -0.578 c -0.086 -0.273 -0.16 -0.527 -0.16 -0.563 c 0 -0.031 0.063 -0.082 0.137 -0.109 c 0.215 -0.086 0.25 -0.223 0.242 -0.926 c -0.012 -0.738 -0.047 -0.855 -0.254 -0.816 c -0.082 0.016 -0.301 0.051 -0.488 0.082 c -0.188 0.031 -0.359 0.086 -0.379 0.121 c -0.02 0.035 -0.039 0.613 -0.039 1.281 c 0 1.039 0.012 1.23 0.074 1.297 c 0.086 0.098 0.152 0.105 0.18 0.02 c 0.012 -0.039 0.031 -0.535 0.035 -1.109 c 0.016 -1.152 0.012 -1.141 0.313 -1.141 c 0.219 0 0.273 0.074 0.273 0.383 c 0 0.289 -0.055 0.387 -0.219 0.387 c -0.07 0 -0.137 0.055 -0.191 0.16 c -0.086 0.156 -0.086 0.16 0.02 0.449 c 0.059 0.16 0.16 0.453 0.23 0.652 c 0.066 0.195 0.145 0.387 0.168 0.422 c 0.066 0.09 0.223 0.082 0.223 -0.012 m -3.313 -0.316 c 0.609 -0.031 0.672 -0.043 0.77 -0.152 c 0.094 -0.105 0.105 -0.168 0.105 -0.578 c 0 -0.438 -0.008 -0.469 -0.121 -0.57 c -0.094 -0.082 -0.188 -0.105 -0.406 -0.105 c -0.305 0 -0.395 -0.055 -0.395 -0.238 c 0 -0.238 0.102 -0.277 0.711 -0.277 c 0.414 0 0.582 0.02 0.617 0.07 c 0.031 0.043 0.055 0.41 0.063 0.965 c 0.012 0.875 0.016 0.895 0.113 0.91 c 0.063 0.008 0.117 -0.02 0.148 -0.082 c 0.07 -0.145 0.043 -2.137 -0.031 -2.234 c -0.051 -0.07 -0.18 -0.078 -0.898 -0.055 c -0.992 0.031 -0.996 0.031 -0.996 0.547 c 0 0.398 0.07 0.688 0.184 0.754 c 0.047 0.027 0.207 0.051 0.355 0.051 c 0.305 0 0.379 0.055 0.379 0.285 c 0 0.266 -0.043 0.281 -0.832 0.281 c -0.641 0 -0.723 -0.012 -0.754 -0.09 c -0.02 -0.051 -0.039 -0.496 -0.043 -0.988 l -0.008 -0.902 h -0.223 l -0.016 1 c -0.012 1.105 -0.008 1.156 0.133 1.359 c 0.09 0.125 0.125 0.137 0.289 0.113 c 0.105 -0.016 0.488 -0.047 0.855 -0.066 m -4.813 -2.102 c 0.02 0.598 0.211 3.148 -0.063 1.477 c 0.16 0.633 0.152 -1.668 0.063 -1.477" fill="#09020a"/><path d="m 3.07 7.309 c -0.004 0.031 -0.012 0.063 -0.016 0.098 c -0.004 0.027 -0.008 0.059 -0.016 0.086 c -0.004 0.023 -0.012 0.047 -0.023 0.07 c -0.051 0.117 -0.219 0.039 -0.164 -0.078 c 0.004 -0.004 0.004 -0.012 0.008 -0.023 c 0.008 -0.027 0.012 -0.051 0.012 -0.082 c 0.008 -0.035 0.016 -0.066 0.02 -0.102 c 0.023 -0.129 0.199 -0.098 0.18 0.031" fill="#9d1201"/><path d="m 3.01 7.512 c -0.008 0.027 -0.008 0.055 -0.012 0.082 c 0 0.027 0 0.051 0 0.074 c 0 0.027 0 0.051 0 0.074 c 0 0.023 0 0.047 0 0.074 c 0.004 0.031 -0.004 0.063 -0.012 0.098 c -0.008 0.012 -0.008 0.027 -0.012 0.043 c 0 0.027 -0.012 0.055 -0.02 0.078 c -0.008 0.02 -0.016 0.039 -0.02 0.059 c -0.008 0.016 -0.012 0.031 -0.016 0.051 c -0.039 0.121 -0.215 0.066 -0.172 -0.059 c 0.004 -0.016 0.008 -0.039 0.016 -0.059 c 0.004 -0.016 0.012 -0.035 0.02 -0.055 c 0.008 -0.02 0.008 -0.016 0.012 -0.031 c 0.004 -0.027 0.008 -0.055 0.016 -0.082 c 0.004 -0.012 0.008 -0.031 0.008 -0.043 c 0 -0.027 0 -0.051 0 -0.074 c 0 -0.023 0 -0.051 0 -0.074 c 0 -0.027 0 -0.055 0 -0.082 c 0 -0.035 0.004 -0.07 0.012 -0.102 c 0.02 -0.129 0.199 -0.098 0.18 0.027" fill="#ffd600"/><path d="m 2.32 9.332 c 0.008 0.035 0.02 0.063 0.035 0.09 c 0.016 0.043 0.035 0.09 0.047 0.137 c 0.012 0.031 0.02 0.063 0.031 0.098 c 0.008 0.02 0.016 0.039 0.02 0.059 c 0.008 0.02 0.004 0.012 0.008 0.02 c 0.004 0.023 0.012 0.039 0.02 0.063 c 0.008 0.027 0.008 0.059 0.012 0.094 c 0 0.031 0 0.066 0 0.102 c 0 0.035 0 0.074 0 0.109 c 0 0.02 0.004 0.035 0.008 0.051 c 0.008 0.023 0.016 0.047 0.023 0.07 c 0.004 0.023 0.016 0.047 0.023 0.07 c 0.043 0.121 -0.129 0.184 -0.172 0.063 c -0.008 -0.027 -0.02 -0.051 -0.023 -0.074 c -0.012 -0.027 -0.02 -0.051 -0.027 -0.078 c -0.008 -0.031 -0.016 -0.066 -0.016 -0.102 c 0 -0.035 0 -0.074 0 -0.109 c 0 -0.031 0 -0.066 0 -0.098 c 0 -0.016 0 -0.031 -0.004 -0.043 c -0.004 -0.02 -0.012 -0.039 -0.016 -0.059 c -0.012 -0.027 -0.016 -0.055 -0.027 -0.082 c -0.012 -0.031 -0.023 -0.066 -0.035 -0.102 c -0.008 -0.039 -0.023 -0.074 -0.039 -0.109 c -0.02 -0.043 -0.035 -0.086 -0.043 -0.129 c -0.027 -0.129 0.152 -0.164 0.176 -0.039" fill="#9d1201"/><g fill="#ffd600"><path d="m 2.371 9.594 c 0 0.027 0 0.055 0 0.082 c -0.004 0.023 0 0.043 0.004 0.063 c 0.004 0.02 0.012 0.039 0.02 0.055 c 0.008 0.023 0.02 0.051 0.027 0.074 c 0.008 0.023 0.016 0.047 0.02 0.066 c 0.012 0.023 0.016 0.051 0.023 0.074 c 0.008 0.031 0.012 0.063 0.012 0.094 c 0.004 0.023 0.004 0.051 0.004 0.078 c 0 0.023 0 0.047 0 0.07 c 0 0.027 0 0.051 0 0.078 c 0 0.027 0 0.055 0 0.078 c 0 0.02 0.008 0.035 0.012 0.051 c 0.008 0.02 0.016 0.039 0.023 0.059 c 0.008 0.031 0.012 0.063 0.012 0.098 c 0 0.023 0 0.051 0 0.074 c 0 0.023 0 0.047 0 0.074 c 0 0.129 -0.18 0.129 -0.18 0 c 0 -0.027 0 -0.051 0 -0.074 c 0 -0.023 0 -0.047 -0.004 -0.07 c 0 -0.016 0 -0.031 -0.004 -0.043 c -0.004 -0.023 -0.016 -0.047 -0.023 -0.07 c -0.008 -0.031 -0.02 -0.063 -0.02 -0.098 c 0 -0.023 0 -0.051 0 -0.078 c 0 -0.027 0 -0.051 0 -0.078 c 0 -0.023 0 -0.047 0 -0.07 c 0 -0.023 0 -0.047 0 -0.07 c 0 -0.016 -0.004 -0.035 -0.008 -0.051 c -0.008 -0.023 -0.012 -0.051 -0.02 -0.074 c -0.008 -0.023 -0.016 -0.043 -0.023 -0.066 c -0.004 -0.02 -0.016 -0.039 -0.02 -0.059 c -0.012 -0.027 -0.023 -0.059 -0.031 -0.09 c -0.004 -0.031 -0.008 -0.063 -0.008 -0.094 c 0 -0.027 0 -0.055 0 -0.082 c 0 -0.129 0.184 -0.129 0.184 0"/><path d="m 2.613 9.668 c -0.008 0.02 -0.016 0.039 -0.02 0.059 c -0.012 0.016 -0.016 0.035 -0.02 0.059 c -0.008 0.016 -0.012 0.035 -0.02 0.055 c 0 0.016 -0.004 0.035 -0.008 0.055 c -0.004 0.016 -0.004 0.031 -0.008 0.047 c 0 0.023 0 0.043 0 0.066 c 0 0.023 0 0.051 0 0.074 c 0 0.023 0 0.047 0 0.07 c 0 0.02 0 0.012 0 0.027 c 0 0.129 -0.18 0.129 -0.18 0 c 0 -0.016 0 -0.008 0 -0.027 c 0 -0.023 0 -0.047 0 -0.07 c 0 -0.023 0 -0.051 0 -0.074 c 0 -0.023 0 -0.051 0 -0.074 c 0 -0.027 0.004 -0.055 0.012 -0.082 c 0.004 -0.02 0.004 -0.047 0.012 -0.07 c 0.008 -0.02 0.012 -0.031 0.016 -0.055 c 0.008 -0.02 0.012 -0.043 0.023 -0.059 c 0.008 -0.027 0.016 -0.055 0.027 -0.078 c 0.059 -0.117 0.219 -0.035 0.164 0.078"/><path d="m 2.469 9.641 c 0 0.031 0 0.059 0 0.086 c 0 0.016 0 0.035 0 0.051 c 0 0.129 -0.184 0.129 -0.184 0 c 0 -0.016 0 -0.035 0 -0.051 c 0 -0.027 0 -0.055 0 -0.086 c 0 -0.125 0.184 -0.125 0.184 0"/><path d="m 2.227 8.84 c 0.008 0.027 0.012 0.059 0.02 0.086 c 0.008 0.027 0.02 0.055 0.027 0.078 c 0.012 0.02 0.016 0.051 0.02 0.074 c 0.004 0.027 0.004 0.055 0.004 0.082 c 0 0.023 0 0.047 0 0.074 c 0 0.023 0 0.047 0 0.07 c 0 0.02 0 0.039 0.004 0.059 c 0 0.008 0.008 0.051 0.012 0.055 c 0.008 0.02 0.016 0.043 0.023 0.063 c 0.008 0.023 0.016 0.051 0.023 0.074 c 0.008 0.023 0.016 0.047 0.023 0.07 c 0.012 0.023 0.016 0.051 0.027 0.074 c 0.012 0.031 0.02 0.063 0.031 0.094 c 0.012 0.027 0.02 0.059 0.027 0.086 c 0.035 0.125 -0.137 0.176 -0.176 0.051 c -0.004 -0.027 -0.016 -0.051 -0.023 -0.078 c -0.012 -0.031 -0.02 -0.063 -0.031 -0.09 c -0.008 -0.027 -0.016 -0.051 -0.023 -0.078 c -0.012 -0.023 -0.02 -0.047 -0.027 -0.07 c -0.008 -0.02 -0.016 -0.043 -0.023 -0.066 c -0.008 -0.023 -0.016 -0.047 -0.023 -0.066 c -0.008 -0.027 -0.016 -0.059 -0.02 -0.086 c -0.004 -0.031 -0.008 -0.059 -0.004 -0.09 c 0 -0.023 0 -0.047 0 -0.07 c 0 -0.027 0 -0.051 0 -0.074 c 0 -0.02 0 -0.039 -0.004 -0.059 c 0 -0.016 -0.008 -0.027 -0.016 -0.043 c -0.008 -0.023 -0.016 -0.051 -0.023 -0.078 c -0.012 -0.035 -0.02 -0.074 -0.027 -0.109 c -0.023 -0.129 0.156 -0.156 0.18 -0.031"/><path d="m 3.852 8.863 c 0.027 0.004 0.055 0.008 0.078 0.012 c 0.023 0.004 0.047 0.012 0.07 0.012 c 0 0 0.004 0 0.008 0 c 0 0 -0.004 0 -0.004 0 c -0.004 0 0.004 0 0.008 0 c 0.016 -0.004 0.012 -0.004 0.027 -0.004 c 0.031 -0.004 0.066 -0.004 0.098 -0.004 c 0.039 -0.004 0.078 0 0.117 0 c 0.035 0 0.07 0 0.105 0 c 0.004 0 0.008 0 0.012 0 c 0.016 0 0.027 0 0.039 0 c 0.016 0 0.016 0 0.012 -0.004 c 0 0 0.004 0 0.004 0 c 0.129 -0.023 0.164 0.152 0.035 0.18 c -0.004 0 -0.008 0 -0.016 0.004 c -0.027 0 -0.059 0 -0.086 0 c -0.035 0 -0.07 0 -0.105 0 c -0.039 0 -0.078 0 -0.113 0 c -0.027 0 -0.051 0 -0.078 0.004 c -0.027 0.004 -0.055 0.012 -0.082 0.008 c -0.023 -0.004 -0.043 -0.008 -0.066 -0.016 c -0.02 0 -0.047 0 -0.066 -0.008 c 0 0 0 0 0.004 0 c -0.129 0 -0.129 -0.184 0 -0.184"/><path d="m 3.875 8.563 c 0 0.027 0 0.059 0 0.086 c 0 0.027 0 0.059 0 0.086 c 0 0.023 0 0.051 0 0.074 c -0.004 0.02 0 0.039 0.004 0.059 c 0 0.004 0.012 0.016 -0.004 -0.004 c 0.023 0.016 -0.004 0 0.008 0 c 0.125 0.02 0.098 0.199 -0.027 0.18 c -0.035 -0.004 -0.07 -0.016 -0.098 -0.043 c -0.035 -0.031 -0.051 -0.059 -0.059 -0.105 c -0.004 -0.027 -0.008 -0.059 -0.008 -0.086 c 0 -0.023 0 -0.051 0 -0.074 c 0 -0.027 0 -0.059 0 -0.086 c 0 -0.027 0 -0.059 0 -0.086 c 0 -0.129 0.184 -0.129 0.184 0"/><path d="m 3.898 8.25 c 0 0.027 0 0.055 0 0.082 c 0 0.023 0 0.051 0 0.078 c 0 0.023 0 0.047 0 0.07 c 0 0.129 -0.184 0.129 -0.184 0 c 0 -0.023 0 -0.047 0 -0.07 c 0 -0.027 0 -0.055 0 -0.078 c 0 -0.027 0 -0.055 0 -0.082 c 0 -0.129 0.184 -0.129 0.184 0"/><path d="m 3.801 9.08 c 0.023 0.004 0.043 0 0.063 -0.004 c 0.027 -0.004 0.055 -0.004 0.086 -0.008 c 0.027 0 0.055 0 0.082 0 c 0.023 0 0.051 0 0.078 0 c 0.023 0 0.047 0 0.07 0 c 0.023 0 0.051 0 0.074 0 c 0.031 0 0.066 0.004 0.098 0.012 c 0.027 0.012 0.055 0.031 0.082 0.047 c 0.008 0.004 0.004 0 0.016 0.008 c 0.109 0.063 0.02 0.223 -0.09 0.16 c -0.016 -0.012 -0.008 -0.004 -0.027 -0.016 c -0.012 -0.012 -0.027 -0.02 -0.043 -0.027 c 0.008 0 -0.031 -0.004 -0.035 0 c -0.023 0 -0.051 0 -0.074 0 c -0.023 0 -0.047 0 -0.07 0 c -0.027 0 -0.055 0 -0.078 0 c -0.027 0 -0.051 0 -0.078 0 c -0.02 0 -0.039 0 -0.059 0.004 c -0.031 0.008 -0.063 0.008 -0.094 0.008 c -0.129 0 -0.129 -0.184 0 -0.184"/><path d="m 5.516 8.285 c 0.023 -0.004 0.043 -0.008 0.066 -0.012 c 0.016 0 0.008 0.004 0.02 0 c 0.027 -0.008 0.055 -0.012 0.086 -0.012 c 0.016 0 0.031 -0.004 0.047 -0.004 c 0.129 0 0.133 0.18 0.004 0.184 c -0.012 0 -0.027 0 -0.043 0 c -0.02 0 -0.043 0.004 -0.063 0.012 c -0.027 0.004 -0.055 0.004 -0.078 0.008 c -0.129 0.027 -0.164 -0.152 -0.039 -0.176"/><path d="m 5.316 7.23 c 0.027 0 0.055 0 0.086 0 c 0.023 0 0.051 0 0.074 0 c 0.027 0 0.051 0 0.074 0 c 0.023 0 0.047 0 0.074 0 c 0.012 0 0.031 -0.008 0.051 -0.008 c 0.027 -0.004 0.055 -0.004 0.078 -0.008 c 0.027 0 0.051 0 0.074 0 c 0.016 0 0.035 -0.004 0.051 -0.008 c 0.02 0 0.012 0 0.031 0 c 0.129 -0.012 0.141 0.172 0.012 0.18 c -0.012 0 -0.004 0 -0.016 0.004 c -0.027 0 -0.051 0.008 -0.078 0.008 c -0.023 0 -0.047 0 -0.07 0 c -0.02 0 -0.039 0 -0.059 0.004 c -0.023 0.004 -0.051 0.012 -0.074 0.008 c -0.027 0 -0.051 0 -0.074 0 c -0.023 0 -0.047 0 -0.074 0 c -0.023 0 -0.051 0 -0.074 0 c -0.031 0 -0.059 0 -0.086 0 c -0.129 0 -0.129 -0.18 0 -0.18"/><path d="m 5.316 7.398 c 0 0.027 0 0.055 0 0.082 c 0 0.012 0 0.02 0 0.027 c 0 0.129 -0.184 0.129 -0.184 0 c 0 -0.008 0 -0.016 0 -0.027 c 0 -0.027 0 -0.055 0 -0.082 c 0 -0.129 0.184 -0.129 0.184 0"/><path d="m 5.336 9.531 c 0.031 -0.004 0.063 -0.008 0.094 -0.008 c 0.027 -0.004 0.055 0 0.082 -0.008 c 0.02 0 0.039 -0.008 0.059 -0.012 c 0.016 -0.008 0.031 -0.012 0.043 -0.016 c 0.02 -0.008 0.047 -0.012 0.066 -0.016 c 0.023 -0.004 0.039 -0.008 0.059 -0.016 c 0.023 -0.004 0.039 -0.008 0.063 -0.016 c -0.016 0 0.051 -0.008 0.035 -0.012 c 0.121 -0.043 0.184 0.125 0.063 0.172 c -0.02 0.008 -0.039 0.012 -0.055 0.02 c -0.02 0.004 -0.039 0.012 -0.055 0.012 c -0.02 0.004 -0.039 0.012 -0.059 0.016 c -0.02 0.004 -0.035 0.008 -0.051 0.008 c -0.023 0.012 -0.047 0.016 -0.066 0.023 c -0.027 0.008 -0.051 0.016 -0.074 0.02 c -0.035 0.004 -0.066 0.004 -0.098 0.004 c -0.023 0 -0.047 0.004 -0.07 0.008 c -0.125 0.023 -0.16 -0.152 -0.035 -0.18"/><path d="m 1.98 9.66 c 0.008 0.031 0.012 0.063 0.012 0.098 c 0.004 0.027 0.004 0.055 0.004 0.082 c 0 0.023 0 0.047 0 0.07 c 0 0.027 0 0.051 0 0.074 c 0 0.023 0 0.047 0 0.074 c 0 0.023 0 0.051 0 0.074 c 0 0.031 0 0.063 0 0.098 c 0 0.027 0 0.055 0 0.082 c 0 0.023 0 0.047 0 0.07 c 0 0.027 0 0.051 0 0.074 c 0 0.023 0 0.047 0 0.074 c 0 0.023 0 0.047 0 0.07 c 0 0.023 0 0.051 0 0.074 c 0 0.023 0 0.047 0 0.074 c 0 0.023 0 0.047 0 0.07 c 0 0.023 0 0.051 0 0.074 c 0 0.023 0 0.047 0 0.07 c 0 0.02 0 0.035 0 0.051 c 0 0.129 -0.184 0.129 -0.184 0 c 0 -0.016 0 -0.031 0 -0.051 c 0 -0.023 0 -0.047 0 -0.07 c 0 -0.023 0 -0.051 0 -0.074 c 0 -0.023 0 -0.047 0 -0.07 c 0 -0.027 0 -0.051 0 -0.074 c 0 -0.023 0 -0.051 0 -0.074 c 0 -0.023 0 -0.047 0 -0.07 c 0 -0.027 0 -0.051 0 -0.074 c 0 -0.023 0 -0.047 0 -0.074 c 0 -0.023 0 -0.047 0 -0.07 c 0 -0.027 0 -0.055 0 -0.082 c 0 -0.031 0 -0.066 0 -0.098 c 0 -0.023 0 -0.051 0 -0.074 c 0 -0.027 0 -0.051 0 -0.074 c 0 -0.023 0 -0.047 0 -0.074 c 0 -0.023 0 -0.047 0 -0.07 c 0 -0.023 0 -0.051 0 -0.074 c -0.004 -0.023 -0.004 -0.047 -0.008 -0.07 c -0.027 -0.125 0.152 -0.16 0.176 -0.035"/><path d="m 2.01 7.648 c 0.012 0.027 0.02 0.055 0.031 0.082 c 0.008 0.023 0.016 0.051 0.023 0.074 c 0.008 0.031 0.012 0.063 0.012 0.094 c 0 0.023 0 0.047 0 0.074 c 0 0.023 0 0.047 0 0.07 c 0 0.027 0 0.051 0 0.074 c 0.004 0.027 0 0.059 -0.008 0.086 c -0.004 0.023 -0.012 0.047 -0.02 0.07 c -0.004 0.016 -0.008 0.031 -0.016 0.047 c -0.047 0.117 -0.215 0.051 -0.168 -0.066 c 0.004 -0.016 0.008 -0.031 0.016 -0.047 c 0 0.008 0 0.004 0.004 -0.012 c 0.004 -0.02 0.004 -0.012 0.008 -0.027 c 0 -0.008 0 -0.012 0.004 -0.016 c 0 -0.012 0 -0.023 0 -0.035 c 0 -0.023 0 -0.047 0 -0.074 c 0 -0.023 0 -0.047 0 -0.07 c 0 -0.023 0 -0.047 0 -0.07 c 0 -0.016 0 -0.027 -0.004 -0.043 c -0.008 -0.023 -0.016 -0.043 -0.023 -0.066 c -0.008 -0.02 -0.016 -0.043 -0.023 -0.063 c -0.055 -0.117 0.105 -0.199 0.164 -0.082"/><path d="m 6.957 9.266 c 0.027 0.004 0.059 0.012 0.086 0.016 c 0.043 0.008 0.086 0.008 0.125 0.008 c 0.043 0 0.082 0 0.125 0 c 0.027 0 0.059 0 0.086 0 c 0.027 0 0.051 0 0.074 0 c 0.023 0 0.051 0 0.074 0 c 0.023 0 0.047 0 0.07 0 c 0.027 0 0.051 0 0.074 0 c 0.027 0 0.055 0 0.078 0 c 0.027 0 0.055 0 0.082 -0.004 c 0.027 0 0.051 -0.008 0.078 -0.012 c 0.027 -0.008 0.059 -0.008 0.086 -0.008 c 0.02 0 0.043 0 0.055 -0.004 c -0.008 0.008 0.051 -0.012 0.035 -0.008 c 0.023 -0.008 0.039 -0.016 0.063 -0.023 c 0.016 -0.004 0.035 -0.012 0.051 -0.02 c 0.012 -0.004 0.023 -0.008 0.039 -0.012 c 0.125 -0.031 0.168 0.148 0.043 0.18 c -0.008 0 -0.012 0 -0.016 0.004 c -0.02 0.008 -0.039 0.012 -0.059 0.02 c -0.016 0.004 -0.031 0.012 -0.043 0.016 c -0.027 0.012 -0.051 0.02 -0.078 0.023 c -0.027 0.004 -0.055 0.008 -0.086 0.004 c -0.02 0.004 -0.039 0.004 -0.059 0.008 c -0.027 0.004 -0.059 0.012 -0.086 0.016 c -0.035 0.004 -0.07 0.004 -0.105 0.004 c -0.023 0 -0.051 0 -0.078 0 c -0.023 0 -0.047 0 -0.074 0 c -0.023 0 -0.047 0 -0.07 0 c -0.023 0 -0.051 0 -0.074 0 c -0.023 0 -0.047 0 -0.074 0 c -0.027 0 -0.059 0 -0.086 0 c -0.043 0 -0.086 0 -0.129 0 c -0.047 -0.004 -0.098 -0.004 -0.148 -0.012 c -0.047 -0.008 -0.098 -0.016 -0.141 -0.031 c -0.113 -0.059 -0.035 -0.223 0.082 -0.164"/><path d="m 12.457 9.461 c 0 0.027 0 0.055 0 0.082 c 0 0.027 0 0.051 0 0.078 c 0 0.027 -0.008 0.051 -0.012 0.078 c 0 0.02 -0.004 0.043 -0.008 0.066 c -0.004 0.02 -0.008 0.043 -0.012 0.063 c -0.008 0.023 -0.012 0.047 -0.02 0.07 c -0.008 0.016 -0.012 0.031 -0.02 0.051 c -0.004 0.02 -0.012 0.039 -0.02 0.059 c -0.004 0.016 -0.012 0.031 -0.016 0.051 c -0.008 0.02 -0.012 0.039 -0.02 0.059 c -0.004 0.016 -0.012 0.031 -0.016 0.051 c -0.012 0.016 -0.016 0.031 -0.023 0.047 c -0.047 0.121 -0.215 0.051 -0.168 -0.07 c 0.004 -0.008 0.012 -0.027 0.016 -0.035 c 0.008 -0.02 0.016 -0.035 0.02 -0.059 c 0.008 -0.016 0.016 -0.035 0.02 -0.051 c 0.004 -0.02 0.012 -0.035 0.02 -0.059 c 0.004 -0.016 0.012 -0.035 0.016 -0.051 c 0.008 -0.02 0.012 -0.035 0.02 -0.059 c 0 0.008 0 0.004 0.004 -0.012 c 0.004 -0.016 0.008 -0.016 0.008 -0.031 c 0.008 -0.02 0.008 -0.035 0.012 -0.059 c 0.004 -0.023 0.008 -0.035 0.008 -0.059 c 0.004 -0.02 0.008 -0.035 0.008 -0.051 c 0 -0.027 0 -0.051 0 -0.078 c 0 -0.027 0 -0.055 0 -0.082 c 0 -0.129 0.184 -0.129 0.184 0"/><path d="m 11.844 10.03 c 0.016 0.004 0.035 0.012 0.055 0.016 c 0.027 0.008 0.051 0.02 0.078 0.023 c 0.016 0.008 0.035 0.008 0.051 0.008 c -0.012 -0.004 0.043 -0.008 0.035 -0.008 c 0.016 -0.004 0.031 -0.012 0.047 -0.016 c 0.02 -0.012 0.043 -0.016 0.066 -0.023 c 0.012 -0.004 0.023 -0.008 0.035 -0.012 c 0.121 -0.043 0.184 0.129 0.063 0.172 c -0.016 0.004 -0.027 0.008 -0.039 0.012 c -0.02 0.008 -0.035 0.012 -0.055 0.016 c -0.023 0.012 -0.047 0.02 -0.07 0.027 c -0.027 0.004 -0.059 0.012 -0.09 0.012 c -0.031 0 -0.063 -0.004 -0.094 -0.012 c -0.023 -0.008 -0.047 -0.016 -0.074 -0.023 c -0.031 -0.008 -0.063 -0.02 -0.09 -0.031 c -0.117 -0.059 -0.035 -0.219 0.082 -0.16"/><path d="m 12 9.965 c 0.035 -0.016 0.07 -0.027 0.105 -0.035 c 0.023 -0.012 0.047 -0.02 0.074 -0.027 c 0.02 -0.008 0.004 0 0.02 -0.012 c 0.004 0 0 0.004 -0.004 0.004 c -0.008 0.004 -0.008 0.008 -0.016 0.016 c 0.008 -0.012 0.008 -0.023 0.016 -0.039 c 0.008 -0.016 0.02 -0.031 0.027 -0.051 c 0.051 -0.117 0.219 -0.043 0.164 0.074 c -0.004 0.012 -0.02 0.043 -0.023 0.047 c -0.004 0.004 0 0 0 -0.004 c -0.008 0.023 -0.016 0.047 -0.027 0.066 c -0.008 0.008 -0.012 0.016 -0.02 0.023 c -0.02 0.02 -0.043 0.035 -0.07 0.043 c -0.031 0.012 -0.059 0.02 -0.086 0.031 c -0.027 0.008 -0.051 0.02 -0.078 0.023 c -0.117 0.059 -0.195 -0.105 -0.082 -0.16"/></g></svg>