<svg xmlns="http://www.w3.org/2000/svg" viewBox="0 0 16 16"><path d="m 3.434 14.371 c 11.809 7.887 19.08 -17.27 3.816 -13.938 c -6.313 1.418 -10.141 10.316 -3.816 13.938" fill="#dcdcdc"/><path d="m 4.258 12.215 c -0.168 -0.039 -0.164 0.047 -0.164 -2.613 c 0 -2.812 -0.02 -2.598 0.258 -2.602 c 0.07 0 0.137 -0.012 0.145 -0.023 c 0.016 -0.023 0.23 -1.066 0.488 -2.379 c 0.066 -0.34 0.133 -0.586 0.164 -0.621 c 0.047 -0.051 0.125 -0.059 0.563 -0.059 h 0.508 l 0.098 0.141 c 0.051 0.078 0.164 0.297 0.242 0.488 c 0.082 0.191 0.18 0.406 0.211 0.48 l 0.063 0.133 l 0.078 -0.164 c 0.043 -0.094 0.121 -0.25 0.172 -0.348 c 0.051 -0.102 0.125 -0.27 0.168 -0.371 c 0.039 -0.105 0.105 -0.227 0.145 -0.273 c 0.07 -0.086 0.078 -0.086 0.578 -0.086 c 0.441 0 0.512 0.008 0.563 0.059 c 0.078 0.082 0.141 0.336 0.273 1.133 c 0.281 1.68 0.336 1.941 0.402 1.953 c 0.035 0.004 0.09 0 0.121 -0.012 c 0.051 -0.016 0.039 -0.035 -0.055 -0.105 c -0.078 -0.055 -0.113 -0.109 -0.113 -0.172 c 0 -0.137 0.422 -0.781 0.516 -0.793 c 0.047 -0.008 0.16 0.043 0.277 0.121 c 0.246 0.16 0.477 0.223 0.645 0.168 c 0.066 -0.02 0.121 -0.059 0.121 -0.082 c 0 -0.063 -0.09 -0.102 -0.445 -0.199 c -0.5 -0.137 -0.742 -0.289 -0.895 -0.563 c -0.133 -0.238 -0.133 -0.617 -0.004 -0.879 c 0.168 -0.34 0.422 -0.539 0.813 -0.648 c 0.207 -0.059 0.727 -0.051 1.043 0.016 c 0.203 0.043 0.555 0.188 0.594 0.246 c 0.059 0.082 0.02 0.215 -0.145 0.504 c -0.215 0.371 -0.266 0.395 -0.566 0.27 c -0.195 -0.082 -0.5 -0.121 -0.5 -0.063 c 0 0.039 0.203 0.133 0.457 0.211 c 0.461 0.137 0.719 0.316 0.875 0.598 c 0.086 0.16 0.105 0.508 0.035 0.73 c -0.066 0.211 -0.273 0.492 -0.461 0.617 l -0.125 0.082 l 0.281 0.168 c 0.305 0.18 0.637 0.496 0.727 0.699 c 0.094 0.211 0.059 0.402 -0.113 0.594 c -0.113 0.129 -0.324 0.254 -0.426 0.254 c -0.145 0 -0.414 -0.105 -0.742 -0.285 c -0.305 -0.168 -0.578 -0.297 -0.578 -0.266 c 0 0.008 0.039 0.098 0.086 0.199 c 0.051 0.102 0.09 0.211 0.09 0.234 c 0 0.043 0.426 0.254 1.027 0.504 c 0.629 0.262 0.938 0.73 0.93 1.422 c -0.004 0.473 -0.172 0.844 -0.5 1.102 c -0.262 0.207 -0.461 0.289 -0.996 0.406 c -0.711 0.156 -1.047 0.129 -1.617 -0.137 c -0.055 -0.027 -0.102 -0.023 -0.184 0.016 c -0.203 0.098 -0.723 0.219 -0.938 0.219 c -0.262 0 -0.562 -0.07 -0.937 -0.219 l -0.293 -0.117 l -0.152 0.113 c -0.301 0.23 -0.254 0.223 -1.559 0.219 c -0.648 0 -1.211 -0.012 -1.246 -0.02 m 2.051 -1.426 c -0.203 -0.461 -0.281 -0.859 -0.25 -1.301 c 0.012 -0.191 0.031 -0.406 0.043 -0.473 l 0.02 -0.125 h -0.574 v 1.957 h 0.395 c 0.363 0 0.391 -0.004 0.367 -0.059 m 2.422 -0.621 c 0.121 -0.18 0.168 -0.219 0.293 -0.254 c 0.098 -0.027 0.156 -0.066 0.18 -0.121 c 0.051 -0.125 0.039 -0.164 -0.078 -0.207 c -0.059 -0.023 -0.195 -0.125 -0.301 -0.227 c -0.219 -0.211 -0.336 -0.449 -0.336 -0.688 c 0 -0.137 -0.004 -0.148 -0.078 -0.141 c -0.078 0.012 -0.078 0.02 -0.066 0.344 c 0.012 0.371 -0.035 0.758 -0.145 1.172 c -0.086 0.32 -0.078 0.336 0.203 0.336 h 0.18 m 2.387 -0.066 c 0.043 -0.023 0.031 -0.035 -0.051 -0.066 c -0.098 -0.035 -0.156 -0.008 -0.16 0.074 c 0 0.035 0.148 0.031 0.211 -0.008 m -3.117 -3.348 c 0 -0.09 -0.086 -0.598 -0.137 -0.797 l -0.027 -0.117 l -0.113 0.203 c -0.117 0.223 -0.359 0.758 -0.359 0.801 c 0 0.012 0.051 0.059 0.109 0.098 l 0.109 0.07 l 0.207 -0.09 c 0.176 -0.07 0.211 -0.098 0.211 -0.168 m -1.453 -0.035 c 0 -0.016 -0.059 -0.148 -0.129 -0.289 c -0.07 -0.141 -0.168 -0.336 -0.215 -0.434 c -0.047 -0.102 -0.09 -0.172 -0.098 -0.168 c -0.016 0.012 -0.16 0.816 -0.16 0.871 c 0 0.027 0.148 0.043 0.379 0.047 c 0.129 0.004 0.223 -0.008 0.223 -0.027" fill="#aaa"/><path d="m 4.574 12.184 c -0.176 -0.008 -0.355 -0.027 -0.398 -0.051 l -0.082 -0.039 v -2.492 c 0 -1.961 0.012 -2.504 0.047 -2.523 c 0.023 -0.016 0.121 -0.035 0.219 -0.043 l 0.18 -0.02 l 0.184 -0.91 c 0.102 -0.5 0.234 -1.164 0.293 -1.473 c 0.063 -0.309 0.125 -0.59 0.145 -0.621 c 0.031 -0.055 0.086 -0.063 0.523 -0.063 c 0.266 0.004 0.504 0.012 0.523 0.027 c 0.055 0.031 0.18 0.27 0.285 0.535 c 0.148 0.375 0.309 0.699 0.34 0.691 c 0.031 -0.012 0.328 -0.602 0.477 -0.953 c 0.051 -0.121 0.109 -0.234 0.129 -0.258 c 0.023 -0.031 0.18 -0.043 0.543 -0.043 h 0.512 l 0.047 0.109 c 0.043 0.098 0.242 1.164 0.391 2.098 c 0.137 0.844 0.164 0.941 0.258 0.965 c 0.09 0.02 0.293 -0.043 0.293 -0.09 c 0 -0.016 -0.047 -0.051 -0.105 -0.082 c -0.176 -0.082 -0.199 -0.176 -0.098 -0.367 c 0.133 -0.242 0.344 -0.543 0.402 -0.563 c 0.027 -0.012 0.148 0.043 0.266 0.117 c 0.121 0.074 0.281 0.148 0.363 0.172 c 0.23 0.059 0.449 -0.008 0.449 -0.137 c 0 -0.09 -0.07 -0.129 -0.375 -0.203 c -0.574 -0.137 -0.898 -0.344 -1.012 -0.645 c -0.074 -0.203 -0.055 -0.582 0.043 -0.77 c 0.234 -0.449 0.75 -0.727 1.293 -0.695 c 0.477 0.027 1.086 0.234 1.105 0.375 c 0.016 0.09 -0.297 0.637 -0.398 0.699 c -0.078 0.043 -0.098 0.043 -0.27 -0.039 c -0.203 -0.098 -0.496 -0.125 -0.566 -0.059 c -0.074 0.066 0.02 0.133 0.332 0.227 c 0.641 0.199 0.848 0.328 1 0.645 c 0.078 0.152 0.078 0.527 0 0.75 c -0.07 0.195 -0.355 0.512 -0.516 0.578 c -0.141 0.051 -0.137 0.086 0.008 0.145 c 0.402 0.156 0.848 0.543 0.969 0.84 c 0.082 0.199 0.023 0.371 -0.199 0.582 c -0.152 0.145 -0.18 0.156 -0.34 0.156 c -0.184 0 -0.324 -0.059 -0.91 -0.371 c -0.324 -0.168 -0.438 -0.203 -0.426 -0.125 c 0.004 0.027 0.051 0.152 0.105 0.277 c 0.113 0.262 0.199 0.328 0.672 0.516 c 0.574 0.227 0.656 0.266 0.859 0.414 c 0.234 0.168 0.367 0.391 0.449 0.746 c 0.098 0.43 0.043 0.797 -0.168 1.168 c -0.113 0.199 -0.352 0.406 -0.598 0.523 c -0.238 0.113 -0.852 0.242 -1.242 0.258 c -0.398 0.02 -0.488 0.004 -0.859 -0.148 l -0.203 -0.086 l -0.344 0.113 c -0.617 0.199 -1.117 0.172 -1.703 -0.09 l -0.258 -0.117 l -0.145 0.117 c -0.289 0.234 -0.305 0.234 -1.289 0.238 c -0.488 0 -1.027 -0.004 -1.203 -0.008 m 1.777 -1.383 c -0.012 -0.039 -0.063 -0.176 -0.109 -0.309 c -0.164 -0.422 -0.199 -0.906 -0.109 -1.371 c 0.023 -0.137 0.035 -0.258 0.02 -0.273 c -0.016 -0.016 -0.16 -0.023 -0.324 -0.016 l -0.297 0.008 l -0.012 1.02 l -0.008 1.02 l 0.383 0.008 c 0.453 0.012 0.48 0.008 0.457 -0.086 m 2.172 -0.375 c 0.078 -0.012 0.125 -0.047 0.148 -0.105 c 0.063 -0.156 0.215 -0.309 0.375 -0.375 c 0.117 -0.051 0.172 -0.098 0.211 -0.184 c 0.059 -0.137 0.074 -0.117 -0.199 -0.273 c -0.328 -0.184 -0.535 -0.527 -0.535 -0.887 c 0 -0.113 -0.012 -0.141 -0.063 -0.141 c -0.035 0 -0.094 0.02 -0.129 0.043 c -0.055 0.039 -0.063 0.078 -0.047 0.273 c 0.023 0.336 -0.027 0.809 -0.133 1.219 c -0.051 0.199 -0.082 0.375 -0.063 0.387 c 0.023 0.023 0.082 0.035 0.281 0.063 c 0.02 0 0.09 -0.004 0.152 -0.016 m 2.492 -0.086 c 0.094 -0.047 0.074 -0.078 -0.078 -0.137 c -0.105 -0.035 -0.148 -0.039 -0.176 -0.012 c -0.031 0.035 -0.051 0.137 -0.043 0.199 c 0.004 0.031 0.199 -0.004 0.297 -0.051 m -3.352 -3.168 c 0.121 -0.051 0.227 -0.105 0.234 -0.125 c 0.02 -0.051 -0.152 -1.059 -0.188 -1.09 c -0.02 -0.02 -0.094 0.094 -0.18 0.266 c -0.168 0.332 -0.387 0.813 -0.387 0.844 c 0 0.02 0.25 0.195 0.281 0.195 c 0.012 0 0.117 -0.039 0.238 -0.09 m -1.23 -0.227 c 0 -0.09 -0.473 -1.047 -0.5 -1.016 c -0.039 0.035 -0.215 1 -0.188 1.039 c 0.008 0.016 0.168 0.027 0.352 0.027 c 0.285 0 0.336 -0.008 0.336 -0.051 m 4.488 -0.098 c 0.238 -0.066 0.508 -0.238 0.594 -0.375 c 0.102 -0.164 0.117 -0.547 0.035 -0.703 c -0.086 -0.148 -0.359 -0.301 -0.676 -0.379 c -0.516 -0.121 -0.684 -0.246 -0.684 -0.496 c 0 -0.34 0.352 -0.492 0.852 -0.367 c 0.105 0.027 0.207 0.047 0.219 0.051 c 0.027 0 0.145 -0.234 0.125 -0.254 c -0.004 -0.004 -0.145 -0.043 -0.309 -0.082 c -0.566 -0.137 -0.953 -0.07 -1.219 0.203 c -0.18 0.188 -0.219 0.324 -0.191 0.664 c 0.023 0.309 0.133 0.395 0.734 0.547 c 0.309 0.078 0.469 0.156 0.582 0.281 c 0.168 0.188 0.082 0.461 -0.191 0.602 c -0.191 0.098 -0.531 0.07 -0.809 -0.063 c -0.234 -0.113 -0.234 -0.113 -0.34 0.082 c -0.074 0.137 -0.047 0.176 0.168 0.254 c 0.359 0.125 0.75 0.141 1.109 0.035 m -5.555 -0.035 c 0.035 -0.035 0.254 -1.188 0.254 -1.336 c 0 -0.422 0.32 -0.434 0.48 -0.02 c 0.039 0.109 0.141 0.324 0.219 0.48 c 0.078 0.152 0.191 0.402 0.254 0.555 c 0.063 0.148 0.137 0.297 0.168 0.324 c 0.098 0.09 0.078 0.121 0.652 -1.109 c 0.277 -0.594 0.324 -0.641 0.488 -0.508 c 0.078 0.059 0.164 0.492 0.25 1.266 c 0.023 0.199 0.059 0.359 0.082 0.375 c 0.039 0.023 0.402 0 0.457 -0.027 c 0.012 -0.008 -0.016 -0.211 -0.063 -0.453 c -0.125 -0.684 -0.215 -1.199 -0.281 -1.633 c -0.031 -0.219 -0.07 -0.41 -0.082 -0.422 c -0.012 -0.012 -0.148 -0.035 -0.305 -0.047 l -0.285 -0.02 l -0.148 0.297 c -0.082 0.168 -0.188 0.395 -0.234 0.512 c -0.047 0.113 -0.152 0.332 -0.23 0.484 c -0.125 0.227 -0.164 0.273 -0.23 0.273 c -0.047 0 -0.105 -0.023 -0.125 -0.047 c -0.035 -0.039 -0.273 -0.574 -0.586 -1.313 l -0.078 -0.184 l -0.297 -0.008 c -0.164 -0.008 -0.309 0 -0.324 0.016 c -0.012 0.012 -0.043 0.145 -0.066 0.289 c -0.02 0.148 -0.113 0.648 -0.211 1.113 c -0.191 0.934 -0.223 1.141 -0.188 1.176 c 0.035 0.031 0.395 0.004 0.43 -0.035" fill="#dede00"/><path d="m 4.574 12.184 c -0.176 -0.008 -0.355 -0.027 -0.398 -0.051 l -0.082 -0.039 v -2.492 c 0 -1.961 0.012 -2.504 0.047 -2.523 c 0.023 -0.016 0.121 -0.035 0.219 -0.043 l 0.18 -0.02 l 0.184 -0.91 c 0.102 -0.5 0.234 -1.164 0.293 -1.473 c 0.063 -0.309 0.125 -0.59 0.145 -0.621 c 0.031 -0.055 0.086 -0.063 0.523 -0.063 c 0.266 0.004 0.504 0.012 0.523 0.027 c 0.055 0.031 0.18 0.27 0.285 0.535 c 0.148 0.375 0.309 0.699 0.34 0.691 c 0.031 -0.012 0.328 -0.602 0.477 -0.953 c 0.051 -0.121 0.109 -0.234 0.129 -0.258 c 0.023 -0.031 0.18 -0.043 0.543 -0.043 h 0.512 l 0.047 0.109 c 0.043 0.098 0.242 1.164 0.391 2.098 c 0.137 0.844 0.164 0.941 0.258 0.965 c 0.09 0.02 0.293 -0.043 0.293 -0.09 c 0 -0.016 -0.047 -0.051 -0.105 -0.082 c -0.176 -0.082 -0.199 -0.176 -0.098 -0.367 c 0.133 -0.242 0.344 -0.543 0.402 -0.563 c 0.027 -0.012 0.148 0.043 0.266 0.117 c 0.121 0.074 0.281 0.148 0.363 0.172 c 0.23 0.059 0.449 -0.008 0.449 -0.137 c 0 -0.09 -0.07 -0.129 -0.375 -0.203 c -0.574 -0.137 -0.898 -0.344 -1.012 -0.645 c -0.074 -0.203 -0.055 -0.582 0.043 -0.77 c 0.234 -0.449 0.75 -0.727 1.293 -0.695 c 0.477 0.027 1.086 0.234 1.105 0.375 c 0.016 0.09 -0.297 0.637 -0.398 0.699 c -0.078 0.043 -0.098 0.043 -0.27 -0.039 c -0.203 -0.098 -0.496 -0.125 -0.566 -0.059 c -0.074 0.066 0.02 0.133 0.332 0.227 c 0.641 0.199 0.848 0.328 1 0.645 c 0.078 0.152 0.078 0.527 0 0.75 c -0.07 0.195 -0.355 0.512 -0.516 0.578 c -0.141 0.051 -0.137 0.086 0.008 0.145 c 0.402 0.156 0.848 0.543 0.969 0.84 c 0.082 0.199 0.023 0.371 -0.199 0.582 c -0.152 0.145 -0.18 0.156 -0.34 0.156 c -0.184 0 -0.324 -0.059 -0.91 -0.371 c -0.324 -0.168 -0.438 -0.203 -0.426 -0.125 c 0.004 0.027 0.051 0.152 0.105 0.277 c 0.113 0.262 0.199 0.328 0.672 0.516 c 0.574 0.227 0.656 0.266 0.859 0.414 c 0.234 0.168 0.367 0.391 0.449 0.746 c 0.098 0.43 0.043 0.797 -0.168 1.168 c -0.113 0.199 -0.352 0.406 -0.598 0.523 c -0.238 0.113 -0.852 0.242 -1.242 0.258 c -0.398 0.02 -0.488 0.004 -0.859 -0.148 l -0.203 -0.086 l -0.344 0.113 c -0.617 0.199 -1.117 0.172 -1.703 -0.09 l -0.258 -0.117 l -0.145 0.117 c -0.289 0.234 -0.305 0.234 -1.289 0.238 c -0.488 0 -1.027 -0.004 -1.203 -0.008 m 6.359 -0.348 c 0.109 -0.016 0.348 -0.078 0.531 -0.137 c 0.281 -0.09 0.363 -0.129 0.496 -0.254 c 0.23 -0.223 0.332 -0.453 0.352 -0.805 c 0.012 -0.227 -0.004 -0.336 -0.063 -0.52 c -0.113 -0.344 -0.285 -0.488 -0.871 -0.738 c -0.59 -0.246 -0.602 -0.246 -0.574 -0.02 c 0.012 0.094 0.023 0.246 0.023 0.332 c 0 0.102 0.016 0.156 0.043 0.156 c 0.102 0 0.406 0.164 0.465 0.246 c 0.176 0.25 0.066 0.438 -0.309 0.535 c -0.457 0.113 -0.945 0.027 -1.41 -0.258 c -0.246 -0.148 -0.465 -0.195 -0.57 -0.117 c -0.129 0.09 -0.176 0.547 -0.074 0.73 c 0.137 0.25 0.566 0.609 0.914 0.77 c 0.316 0.145 0.551 0.164 1.047 0.078 m -4.582 -1.035 c -0.012 -0.039 -0.063 -0.176 -0.109 -0.309 c -0.164 -0.422 -0.199 -0.906 -0.109 -1.371 c 0.023 -0.137 0.035 -0.258 0.02 -0.273 c -0.016 -0.016 -0.16 -0.023 -0.324 -0.016 l -0.297 0.008 l -0.012 1.02 l -0.008 1.02 l 0.379 0.008 c 0.457 0.012 0.484 0.008 0.461 -0.086 m 2.172 -0.375 c 0.078 -0.012 0.125 -0.047 0.148 -0.105 c 0.063 -0.156 0.215 -0.309 0.375 -0.375 c 0.117 -0.051 0.172 -0.098 0.211 -0.184 c 0.059 -0.137 0.074 -0.117 -0.203 -0.273 c -0.324 -0.184 -0.531 -0.527 -0.531 -0.887 c 0 -0.113 -0.012 -0.141 -0.063 -0.141 c -0.035 0 -0.094 0.02 -0.129 0.043 c -0.055 0.039 -0.063 0.078 -0.047 0.273 c 0.023 0.336 -0.027 0.809 -0.133 1.219 c -0.051 0.199 -0.082 0.375 -0.066 0.387 c 0.027 0.023 0.082 0.035 0.285 0.063 c 0.02 0 0.09 -0.004 0.152 -0.016 m 2.492 -0.086 c 0.094 -0.047 0.074 -0.078 -0.078 -0.137 c -0.105 -0.035 -0.148 -0.039 -0.176 -0.012 c -0.031 0.035 -0.055 0.137 -0.043 0.199 c 0.004 0.031 0.199 -0.004 0.297 -0.051 m -1.363 -1.227 c 0.164 -0.297 0.184 -0.473 0.066 -0.637 c -0.254 -0.348 -0.074 -0.617 0.41 -0.617 c 0.309 0 0.703 0.133 1.23 0.418 c 0.336 0.18 0.496 0.211 0.598 0.117 c 0.043 -0.039 0.086 -0.109 0.098 -0.16 c 0.035 -0.125 -0.129 -0.406 -0.32 -0.555 c -0.367 -0.281 -0.707 -0.363 -1.543 -0.363 c -0.68 -0.004 -0.77 0.023 -1.023 0.301 c -0.238 0.258 -0.301 0.453 -0.297 0.898 c 0.004 0.285 0.02 0.398 0.063 0.457 c 0.074 0.109 0.477 0.383 0.543 0.371 c 0.027 -0.004 0.105 -0.109 0.176 -0.23 m -1.988 -1.941 c 0.121 -0.051 0.227 -0.105 0.234 -0.125 c 0.02 -0.051 -0.152 -1.059 -0.188 -1.09 c -0.02 -0.02 -0.094 0.094 -0.18 0.266 c -0.168 0.332 -0.387 0.813 -0.387 0.844 c 0 0.02 0.25 0.195 0.281 0.195 c 0.012 0 0.117 -0.039 0.238 -0.09 m -1.23 -0.227 c 0 -0.09 -0.473 -1.047 -0.5 -1.016 c -0.039 0.035 -0.215 1 -0.188 1.039 c 0.008 0.016 0.168 0.027 0.352 0.027 c 0.281 0 0.336 -0.008 0.336 -0.051 m 4.488 -0.098 c 0.238 -0.066 0.508 -0.238 0.594 -0.375 c 0.102 -0.164 0.117 -0.547 0.031 -0.703 c -0.082 -0.148 -0.355 -0.301 -0.672 -0.379 c -0.516 -0.121 -0.684 -0.246 -0.684 -0.496 c 0 -0.34 0.352 -0.492 0.852 -0.367 c 0.105 0.027 0.203 0.047 0.219 0.051 c 0.027 0 0.145 -0.234 0.125 -0.254 c -0.004 -0.004 -0.145 -0.043 -0.309 -0.082 c -0.566 -0.137 -0.953 -0.07 -1.219 0.203 c -0.18 0.188 -0.219 0.324 -0.195 0.664 c 0.027 0.309 0.137 0.395 0.738 0.547 c 0.309 0.078 0.469 0.156 0.582 0.281 c 0.168 0.188 0.082 0.461 -0.191 0.602 c -0.191 0.098 -0.531 0.07 -0.809 -0.063 c -0.234 -0.113 -0.234 -0.113 -0.34 0.082 c -0.074 0.137 -0.047 0.176 0.168 0.254 c 0.359 0.125 0.746 0.141 1.109 0.035 m -5.555 -0.035 c 0.035 -0.035 0.25 -1.188 0.25 -1.336 c 0 -0.422 0.324 -0.434 0.484 -0.02 c 0.039 0.109 0.137 0.324 0.219 0.48 c 0.078 0.152 0.191 0.402 0.254 0.555 c 0.063 0.148 0.137 0.297 0.168 0.324 c 0.098 0.09 0.078 0.121 0.652 -1.109 c 0.277 -0.594 0.32 -0.641 0.488 -0.508 c 0.078 0.059 0.16 0.492 0.25 1.266 c 0.023 0.199 0.059 0.359 0.082 0.375 c 0.039 0.023 0.402 0 0.457 -0.027 c 0.008 -0.008 -0.02 -0.211 -0.063 -0.453 c -0.125 -0.684 -0.215 -1.199 -0.281 -1.633 c -0.031 -0.219 -0.07 -0.41 -0.082 -0.422 c -0.012 -0.012 -0.148 -0.035 -0.305 -0.047 l -0.285 -0.02 l -0.148 0.297 c -0.082 0.168 -0.188 0.395 -0.234 0.512 c -0.047 0.113 -0.152 0.332 -0.23 0.484 c -0.125 0.227 -0.164 0.273 -0.234 0.273 c -0.043 0 -0.102 -0.023 -0.121 -0.047 c -0.035 -0.039 -0.273 -0.574 -0.586 -1.313 l -0.078 -0.184 l -0.297 -0.008 c -0.164 -0.008 -0.309 0 -0.324 0.016 c -0.016 0.012 -0.043 0.145 -0.066 0.289 c -0.02 0.148 -0.117 0.648 -0.211 1.113 c -0.191 0.934 -0.223 1.141 -0.188 1.176 c 0.035 0.031 0.391 0.004 0.43 -0.035" fill="#9000ab"/><path d="m 4.574 12.184 c -0.176 -0.008 -0.355 -0.027 -0.398 -0.051 l -0.082 -0.039 v -2.492 c 0 -1.961 0.012 -2.504 0.047 -2.523 c 0.023 -0.016 0.121 -0.035 0.219 -0.043 l 0.18 -0.02 l 0.184 -0.91 c 0.102 -0.5 0.234 -1.164 0.293 -1.473 c 0.063 -0.309 0.125 -0.59 0.145 -0.621 c 0.031 -0.055 0.086 -0.063 0.523 -0.063 c 0.266 0.004 0.504 0.012 0.523 0.027 c 0.055 0.031 0.18 0.27 0.285 0.535 c 0.148 0.375 0.309 0.699 0.34 0.691 c 0.031 -0.012 0.328 -0.602 0.477 -0.953 c 0.051 -0.121 0.109 -0.234 0.129 -0.258 c 0.023 -0.031 0.18 -0.043 0.543 -0.043 h 0.512 l 0.047 0.109 c 0.043 0.098 0.242 1.164 0.391 2.098 c 0.137 0.844 0.164 0.941 0.258 0.965 c 0.09 0.02 0.293 -0.043 0.293 -0.09 c 0 -0.016 -0.047 -0.051 -0.105 -0.082 c -0.176 -0.082 -0.199 -0.176 -0.098 -0.367 c 0.133 -0.242 0.344 -0.543 0.402 -0.563 c 0.027 -0.012 0.148 0.043 0.266 0.117 c 0.121 0.074 0.281 0.148 0.363 0.172 c 0.23 0.059 0.449 -0.008 0.449 -0.137 c 0 -0.09 -0.07 -0.129 -0.375 -0.203 c -0.574 -0.137 -0.898 -0.344 -1.012 -0.645 c -0.074 -0.203 -0.055 -0.582 0.043 -0.77 c 0.234 -0.449 0.75 -0.727 1.293 -0.695 c 0.477 0.027 1.086 0.234 1.105 0.375 c 0.016 0.09 -0.297 0.637 -0.398 0.699 c -0.078 0.043 -0.098 0.043 -0.27 -0.039 c -0.203 -0.098 -0.496 -0.125 -0.566 -0.059 c -0.074 0.066 0.02 0.133 0.332 0.227 c 0.641 0.199 0.848 0.328 1 0.645 c 0.078 0.152 0.078 0.527 0 0.75 c -0.07 0.195 -0.355 0.512 -0.516 0.578 c -0.141 0.051 -0.137 0.086 0.008 0.145 c 0.402 0.156 0.848 0.543 0.969 0.84 c 0.082 0.199 0.023 0.371 -0.199 0.582 c -0.152 0.145 -0.18 0.156 -0.34 0.156 c -0.184 0 -0.324 -0.059 -0.91 -0.371 c -0.324 -0.168 -0.438 -0.203 -0.426 -0.125 c 0.004 0.027 0.051 0.152 0.105 0.277 c 0.113 0.262 0.199 0.328 0.672 0.516 c 0.574 0.227 0.656 0.266 0.859 0.414 c 0.234 0.168 0.367 0.391 0.449 0.746 c 0.098 0.43 0.043 0.797 -0.168 1.168 c -0.113 0.199 -0.352 0.406 -0.598 0.523 c -0.238 0.113 -0.852 0.242 -1.242 0.258 c -0.398 0.02 -0.488 0.004 -0.859 -0.148 l -0.203 -0.086 l -0.344 0.113 c -0.617 0.199 -1.117 0.172 -1.703 -0.09 l -0.258 -0.117 l -0.145 0.117 c -0.289 0.234 -0.305 0.234 -1.289 0.238 c -0.488 0 -1.027 -0.004 -1.203 -0.008 m 6.359 -0.348 c 0.109 -0.016 0.348 -0.078 0.531 -0.137 c 0.281 -0.09 0.363 -0.129 0.496 -0.254 c 0.23 -0.223 0.332 -0.453 0.352 -0.805 c 0.012 -0.227 -0.004 -0.336 -0.063 -0.52 c -0.113 -0.344 -0.285 -0.488 -0.871 -0.738 c -0.59 -0.246 -0.602 -0.246 -0.574 -0.02 c 0.012 0.094 0.023 0.246 0.023 0.332 c 0 0.102 0.016 0.156 0.043 0.156 c 0.102 0 0.406 0.164 0.465 0.246 c 0.176 0.25 0.066 0.438 -0.309 0.535 c -0.457 0.113 -0.945 0.027 -1.41 -0.258 c -0.246 -0.148 -0.465 -0.195 -0.57 -0.117 c -0.129 0.09 -0.176 0.547 -0.074 0.73 c 0.137 0.25 0.566 0.609 0.914 0.77 c 0.316 0.145 0.551 0.164 1.047 0.078 m -2.605 -0.262 c 0.336 -0.047 0.516 -0.094 0.516 -0.137 c 0 -0.02 -0.039 -0.086 -0.09 -0.148 c -0.102 -0.125 -0.195 -0.344 -0.195 -0.465 c 0 -0.07 -0.012 -0.078 -0.168 -0.078 c -0.09 0 -0.227 -0.008 -0.297 -0.02 l -0.129 -0.02 l -0.16 0.309 c -0.09 0.172 -0.195 0.359 -0.238 0.418 c -0.082 0.117 -0.074 0.129 0.125 0.152 c 0.203 0.023 0.391 0.023 0.637 -0.012 m -1.977 -0.773 c -0.012 -0.039 -0.063 -0.176 -0.109 -0.309 c -0.164 -0.422 -0.199 -0.906 -0.109 -1.371 c 0.023 -0.137 0.035 -0.258 0.02 -0.273 c -0.016 -0.016 -0.16 -0.023 -0.324 -0.016 l -0.297 0.008 l -0.012 1.02 l -0.008 1.02 l 0.383 0.008 c 0.453 0.012 0.48 0.008 0.457 -0.086 m 0.434 -0.402 c 0.078 -0.148 0.09 -0.219 0.109 -0.711 c 0.016 -0.484 0.027 -0.566 0.102 -0.691 c 0.387 -0.684 0.879 -1.066 1.379 -1.066 h 0.207 l 0.152 -0.27 c 0.082 -0.148 0.141 -0.277 0.133 -0.285 c -0.008 -0.008 -0.133 -0.023 -0.277 -0.031 c -0.313 -0.023 -0.75 0.066 -1 0.207 c -0.379 0.207 -0.844 0.746 -0.992 1.156 c -0.105 0.293 -0.168 0.746 -0.148 1.047 c 0.02 0.262 0.109 0.734 0.152 0.801 c 0.039 0.059 0.102 0.004 0.188 -0.156 m 1.738 0.027 c 0.078 -0.012 0.125 -0.047 0.148 -0.105 c 0.063 -0.156 0.215 -0.309 0.375 -0.375 c 0.117 -0.051 0.172 -0.098 0.211 -0.184 c 0.059 -0.137 0.074 -0.117 -0.203 -0.273 c -0.324 -0.184 -0.531 -0.527 -0.531 -0.887 c 0 -0.113 -0.012 -0.141 -0.063 -0.141 c -0.035 0 -0.094 0.02 -0.129 0.043 c -0.055 0.039 -0.063 0.078 -0.047 0.273 c 0.023 0.336 -0.027 0.809 -0.133 1.219 c -0.051 0.199 -0.082 0.375 -0.066 0.387 c 0.027 0.023 0.082 0.035 0.285 0.063 c 0.02 0 0.09 -0.004 0.152 -0.016 m 2.492 -0.086 c 0.094 -0.047 0.074 -0.078 -0.078 -0.137 c -0.105 -0.035 -0.148 -0.039 -0.176 -0.012 c -0.031 0.035 -0.051 0.137 -0.043 0.199 c 0.004 0.031 0.199 -0.004 0.297 -0.051 m -0.676 -0.215 c 0.188 -0.402 0.125 -1.199 -0.137 -1.68 c -0.105 -0.195 -0.137 -0.188 -0.078 0.02 c 0.082 0.289 -0.031 0.629 -0.395 1.184 c -0.199 0.305 -0.195 0.293 -0.102 0.367 c 0.109 0.082 0.488 0.258 0.574 0.262 c 0.043 0 0.086 -0.051 0.137 -0.152 m -0.688 -1.012 c 0.164 -0.297 0.184 -0.473 0.066 -0.637 c -0.25 -0.348 -0.07 -0.617 0.41 -0.617 c 0.309 0 0.703 0.133 1.23 0.418 c 0.336 0.18 0.5 0.211 0.598 0.117 c 0.043 -0.039 0.086 -0.109 0.098 -0.16 c 0.035 -0.125 -0.129 -0.406 -0.32 -0.555 c -0.367 -0.281 -0.707 -0.363 -1.543 -0.367 c -0.68 0 -0.77 0.023 -1.023 0.305 c -0.238 0.258 -0.301 0.453 -0.297 0.898 c 0.004 0.285 0.02 0.398 0.063 0.457 c 0.074 0.109 0.477 0.383 0.543 0.371 c 0.027 -0.004 0.105 -0.109 0.176 -0.23 m -1.988 -1.941 c 0.121 -0.051 0.227 -0.105 0.234 -0.125 c 0.02 -0.051 -0.152 -1.059 -0.188 -1.09 c -0.02 -0.02 -0.094 0.094 -0.18 0.266 c -0.168 0.332 -0.387 0.813 -0.387 0.844 c 0 0.02 0.25 0.195 0.281 0.195 c 0.012 0 0.117 -0.039 0.238 -0.09 m -1.23 -0.227 c 0 -0.09 -0.473 -1.047 -0.5 -1.02 c -0.039 0.039 -0.215 1 -0.188 1.043 c 0.008 0.016 0.168 0.027 0.352 0.027 c 0.285 0 0.336 -0.008 0.336 -0.051 m 4.488 -0.098 c 0.238 -0.066 0.508 -0.238 0.594 -0.375 c 0.102 -0.164 0.117 -0.551 0.031 -0.703 c -0.082 -0.148 -0.355 -0.301 -0.672 -0.379 c -0.516 -0.121 -0.684 -0.246 -0.684 -0.496 c 0 -0.344 0.352 -0.492 0.852 -0.367 c 0.105 0.027 0.207 0.047 0.219 0.047 c 0.027 0.004 0.145 -0.23 0.125 -0.25 c -0.004 -0.004 -0.145 -0.043 -0.309 -0.082 c -0.566 -0.137 -0.953 -0.074 -1.219 0.203 c -0.18 0.188 -0.219 0.324 -0.191 0.664 c 0.023 0.309 0.133 0.395 0.734 0.547 c 0.309 0.078 0.469 0.156 0.582 0.281 c 0.168 0.188 0.082 0.461 -0.191 0.602 c -0.191 0.098 -0.531 0.07 -0.809 -0.063 c -0.234 -0.113 -0.234 -0.113 -0.34 0.082 c -0.074 0.137 -0.047 0.176 0.168 0.254 c 0.359 0.125 0.746 0.141 1.109 0.035 m -5.555 -0.035 c 0.035 -0.035 0.25 -1.188 0.25 -1.336 c 0 -0.422 0.324 -0.434 0.484 -0.02 c 0.039 0.109 0.141 0.324 0.219 0.48 c 0.078 0.152 0.191 0.402 0.254 0.555 c 0.063 0.148 0.137 0.297 0.168 0.324 c 0.098 0.09 0.078 0.121 0.652 -1.109 c 0.277 -0.594 0.32 -0.641 0.488 -0.508 c 0.078 0.059 0.164 0.492 0.25 1.266 c 0.023 0.199 0.059 0.355 0.082 0.371 c 0.039 0.027 0.402 0.004 0.457 -0.023 c 0.012 -0.008 -0.016 -0.211 -0.063 -0.453 c -0.125 -0.684 -0.215 -1.199 -0.281 -1.633 c -0.031 -0.219 -0.07 -0.41 -0.082 -0.422 c -0.012 -0.012 -0.148 -0.035 -0.305 -0.047 l -0.285 -0.02 l -0.148 0.297 c -0.082 0.168 -0.188 0.395 -0.234 0.512 c -0.047 0.113 -0.152 0.332 -0.23 0.484 c -0.125 0.227 -0.164 0.273 -0.23 0.273 c -0.047 0 -0.105 -0.023 -0.125 -0.047 c -0.035 -0.039 -0.273 -0.574 -0.586 -1.313 l -0.078 -0.184 l -0.297 -0.012 c -0.164 -0.004 -0.309 0.004 -0.324 0.02 c -0.012 0.012 -0.043 0.145 -0.066 0.289 c -0.02 0.148 -0.113 0.648 -0.211 1.113 c -0.191 0.934 -0.223 1.141 -0.188 1.176 c 0.035 0.031 0.395 0.004 0.43 -0.035" fill="#606060"/><path d="m 5.301 12.141 c -0.613 -0.008 -1.137 -0.031 -1.16 -0.043 c -0.035 -0.023 -0.047 -0.563 -0.047 -2.508 v -2.48 l 0.113 -0.023 c 0.059 -0.008 0.164 -0.02 0.227 -0.02 c 0.109 0 0.121 -0.012 0.152 -0.125 c 0.039 -0.133 0.281 -1.313 0.465 -2.277 c 0.063 -0.328 0.133 -0.617 0.152 -0.641 c 0.051 -0.059 0.961 -0.059 1.01 0 c 0.031 0.043 0.105 0.195 0.406 0.887 c 0.176 0.395 0.242 0.445 0.316 0.242 c 0.023 -0.066 0.109 -0.258 0.191 -0.422 c 0.082 -0.164 0.168 -0.352 0.191 -0.414 c 0.02 -0.066 0.07 -0.164 0.109 -0.227 l 0.07 -0.105 h 0.477 c 0.336 0 0.484 0.012 0.508 0.039 c 0.035 0.039 0.16 0.699 0.449 2.375 c 0.074 0.445 0.141 0.723 0.168 0.738 c 0.109 0.066 0.457 -0.016 0.457 -0.105 c 0 -0.016 -0.063 -0.066 -0.141 -0.113 c -0.168 -0.098 -0.184 -0.137 -0.121 -0.277 c 0.07 -0.164 0.367 -0.602 0.41 -0.602 c 0.02 0 0.113 0.051 0.203 0.117 c 0.301 0.203 0.578 0.262 0.785 0.164 c 0.09 -0.043 0.105 -0.07 0.094 -0.156 c -0.012 -0.121 -0.066 -0.148 -0.637 -0.309 c -0.355 -0.102 -0.59 -0.254 -0.688 -0.441 c -0.043 -0.074 -0.07 -0.223 -0.078 -0.391 c -0.012 -0.234 -0.004 -0.297 0.074 -0.449 c 0.047 -0.098 0.137 -0.23 0.195 -0.297 c 0.121 -0.129 0.453 -0.305 0.637 -0.344 c 0.063 -0.012 0.121 -0.035 0.133 -0.051 c 0.027 -0.043 0.355 -0.039 0.434 0 c 0.035 0.02 0.164 0.055 0.293 0.086 c 0.281 0.063 0.598 0.195 0.621 0.258 c 0.012 0.027 -0.063 0.191 -0.164 0.367 c -0.199 0.355 -0.242 0.375 -0.469 0.254 c -0.242 -0.137 -0.629 -0.117 -0.629 0.031 c 0 0.086 0.102 0.141 0.461 0.246 c 0.164 0.051 0.371 0.125 0.465 0.168 c 0.191 0.094 0.402 0.309 0.461 0.473 c 0.063 0.176 0.023 0.598 -0.066 0.777 c -0.102 0.195 -0.371 0.445 -0.504 0.473 c -0.145 0.031 -0.141 0.133 0.008 0.184 c 0.258 0.082 0.602 0.309 0.793 0.527 c 0.27 0.305 0.301 0.551 0.102 0.777 c -0.285 0.313 -0.449 0.301 -1.199 -0.109 c -0.367 -0.203 -0.563 -0.27 -0.602 -0.207 c -0.012 0.02 0.023 0.129 0.078 0.242 c 0.055 0.117 0.121 0.254 0.141 0.305 c 0.035 0.074 0.125 0.129 0.457 0.277 c 0.23 0.102 0.531 0.23 0.668 0.293 c 0.445 0.195 0.641 0.418 0.75 0.844 c 0.156 0.602 0.004 1.188 -0.391 1.504 c -0.254 0.199 -0.402 0.266 -0.855 0.371 c -0.715 0.164 -1.129 0.148 -1.59 -0.07 l -0.176 -0.086 l -0.164 0.066 c -0.402 0.16 -0.547 0.188 -0.926 0.188 c -0.316 0 -0.414 -0.016 -0.656 -0.094 c -0.156 -0.055 -0.324 -0.125 -0.375 -0.156 c -0.137 -0.09 -0.188 -0.082 -0.402 0.082 c -0.133 0.102 -0.246 0.156 -0.371 0.184 c -0.102 0.02 -0.188 0.031 -0.191 0.027 c -0.004 -0.004 -0.508 -0.016 -1.121 -0.023 m 5.871 -0.316 c 0.488 -0.121 0.68 -0.211 0.871 -0.418 c 0.242 -0.254 0.324 -0.508 0.301 -0.902 c -0.039 -0.625 -0.223 -0.844 -0.973 -1.152 c -0.262 -0.109 -0.504 -0.195 -0.543 -0.195 c -0.063 0 -0.066 0.016 -0.047 0.324 c 0.008 0.176 0.023 0.336 0.027 0.355 c 0.008 0.02 0.094 0.063 0.191 0.094 c 0.203 0.07 0.395 0.246 0.395 0.367 c 0 0.23 -0.34 0.367 -0.844 0.344 c -0.363 -0.02 -0.633 -0.102 -0.93 -0.289 c -0.32 -0.199 -0.539 -0.219 -0.656 -0.051 c -0.074 0.105 -0.105 0.504 -0.051 0.664 c 0.109 0.305 0.863 0.859 1.285 0.941 c 0.211 0.043 0.586 0.012 0.973 -0.082 m -2.84 -0.25 c 0.336 -0.047 0.512 -0.094 0.512 -0.137 c 0 -0.02 -0.039 -0.086 -0.09 -0.148 c -0.102 -0.125 -0.191 -0.344 -0.191 -0.465 c 0 -0.07 -0.016 -0.078 -0.168 -0.078 c -0.094 0 -0.23 -0.008 -0.301 -0.02 l -0.129 -0.02 l -0.16 0.309 c -0.09 0.172 -0.195 0.359 -0.238 0.418 c -0.082 0.117 -0.074 0.129 0.125 0.152 c 0.203 0.023 0.391 0.023 0.641 -0.012 m -1.938 -0.672 c 0.027 -0.031 0.016 -0.094 -0.051 -0.238 c -0.164 -0.379 -0.203 -0.637 -0.18 -1.172 c 0.012 -0.266 0.027 -0.531 0.031 -0.586 l 0.008 -0.098 l -0.336 -0.012 c -0.285 -0.008 -0.344 0 -0.379 0.051 c -0.035 0.043 -0.047 0.297 -0.047 1.023 c 0 0.84 0.008 0.977 0.055 1.023 c 0.074 0.07 0.836 0.074 0.898 0.008 m 0.395 -0.504 c 0.078 -0.148 0.086 -0.219 0.105 -0.711 c 0.02 -0.484 0.031 -0.566 0.102 -0.691 c 0.387 -0.684 0.879 -1.066 1.379 -1.066 h 0.207 l 0.152 -0.27 c 0.082 -0.148 0.145 -0.277 0.133 -0.285 c -0.008 -0.008 -0.133 -0.023 -0.277 -0.031 c -0.313 -0.023 -0.75 0.066 -1 0.207 c -0.379 0.207 -0.84 0.746 -0.988 1.156 c -0.105 0.293 -0.172 0.746 -0.152 1.047 c 0.02 0.262 0.109 0.738 0.152 0.801 c 0.039 0.059 0.105 0.004 0.191 -0.156 m 1.852 0.004 c 0.043 -0.043 0.125 -0.145 0.18 -0.23 c 0.078 -0.117 0.133 -0.16 0.242 -0.191 c 0.156 -0.043 0.23 -0.125 0.262 -0.281 c 0.023 -0.098 0.012 -0.109 -0.168 -0.203 c -0.238 -0.125 -0.473 -0.363 -0.52 -0.527 c -0.023 -0.07 -0.039 -0.211 -0.039 -0.313 c 0 -0.102 -0.02 -0.199 -0.039 -0.219 c -0.043 -0.039 -0.23 -0.004 -0.289 0.051 c -0.02 0.016 -0.035 0.273 -0.043 0.57 c -0.008 0.461 -0.023 0.598 -0.105 0.891 c -0.051 0.191 -0.09 0.379 -0.086 0.414 c 0.012 0.078 0.117 0.109 0.359 0.117 c 0.137 0 0.184 -0.016 0.246 -0.078 m 2.422 -0.035 c 0.047 -0.027 0.086 -0.066 0.086 -0.086 c 0 -0.035 -0.293 -0.164 -0.371 -0.164 c -0.059 0 -0.141 0.215 -0.109 0.289 c 0.027 0.063 0.262 0.043 0.395 -0.039 m -0.723 -0.238 c 0.188 -0.402 0.125 -1.199 -0.137 -1.68 c -0.105 -0.195 -0.137 -0.188 -0.078 0.02 c 0.082 0.289 -0.031 0.629 -0.395 1.184 c -0.195 0.305 -0.195 0.293 -0.102 0.367 c 0.109 0.082 0.492 0.258 0.574 0.262 c 0.043 0 0.086 -0.051 0.137 -0.152 m -0.656 -0.996 c 0.172 -0.336 0.191 -0.504 0.07 -0.637 c -0.113 -0.129 -0.148 -0.277 -0.094 -0.406 c 0.148 -0.332 0.879 -0.238 1.68 0.215 c 0.258 0.148 0.422 0.199 0.539 0.176 c 0.102 -0.027 0.227 -0.199 0.227 -0.32 c 0 -0.117 -0.172 -0.355 -0.355 -0.5 c -0.375 -0.281 -0.754 -0.375 -1.578 -0.375 c -0.516 -0.004 -0.578 0.004 -0.711 0.07 c -0.246 0.125 -0.477 0.391 -0.563 0.66 c -0.07 0.223 -0.074 0.844 0 0.973 c 0.063 0.117 0.535 0.434 0.605 0.41 c 0.027 -0.012 0.109 -0.129 0.18 -0.27 m -1.996 -1.93 c 0.133 -0.055 0.246 -0.117 0.254 -0.141 c 0.031 -0.078 -0.176 -1.195 -0.223 -1.211 c -0.043 -0.012 -0.164 0.211 -0.492 0.906 c -0.086 0.18 -0.156 0.332 -0.156 0.336 c 0 0.016 0.336 0.207 0.359 0.207 c 0.012 0.004 0.129 -0.043 0.258 -0.098 m -1.199 -0.199 c 0.016 -0.023 -0.055 -0.203 -0.152 -0.406 c -0.102 -0.207 -0.219 -0.457 -0.27 -0.563 c -0.082 -0.18 -0.137 -0.227 -0.176 -0.164 c -0.039 0.059 -0.207 1.066 -0.188 1.113 c 0.016 0.043 0.086 0.055 0.391 0.055 c 0.23 0 0.379 -0.016 0.395 -0.035 m 4.668 -0.156 c 0.406 -0.188 0.543 -0.41 0.516 -0.844 c -0.008 -0.16 -0.031 -0.25 -0.086 -0.316 c -0.105 -0.133 -0.406 -0.293 -0.68 -0.355 c -0.34 -0.082 -0.496 -0.148 -0.574 -0.254 c -0.102 -0.129 -0.09 -0.273 0.031 -0.398 c 0.09 -0.094 0.129 -0.109 0.32 -0.121 c 0.145 -0.012 0.277 0.004 0.402 0.043 l 0.184 0.055 l 0.082 -0.094 c 0.113 -0.133 0.141 -0.242 0.07 -0.293 c -0.035 -0.023 -0.223 -0.066 -0.418 -0.098 c -0.523 -0.086 -0.855 -0.035 -1.098 0.168 c -0.246 0.207 -0.297 0.316 -0.297 0.645 c -0.004 0.246 0.008 0.305 0.07 0.387 c 0.102 0.125 0.281 0.234 0.453 0.273 c 0.633 0.145 0.887 0.289 0.887 0.508 c 0 0.375 -0.523 0.527 -1.01 0.293 c -0.121 -0.055 -0.238 -0.105 -0.262 -0.105 c -0.043 0 -0.195 0.27 -0.195 0.352 c 0 0.063 0.133 0.141 0.379 0.219 c 0.16 0.047 0.289 0.059 0.594 0.055 c 0.363 -0.008 0.41 -0.02 0.629 -0.117 m -5.719 0.012 c 0.023 -0.023 0.098 -0.379 0.168 -0.785 c 0.07 -0.41 0.141 -0.766 0.152 -0.793 c 0.055 -0.098 0.16 -0.055 0.238 0.098 c 0.102 0.199 0.414 0.867 0.508 1.09 c 0.148 0.355 0.211 0.441 0.305 0.43 c 0.094 -0.012 0.102 -0.02 0.672 -1.188 c 0.113 -0.227 0.219 -0.434 0.238 -0.453 c 0.051 -0.063 0.125 -0.055 0.164 0.016 c 0.035 0.063 0.164 0.852 0.199 1.23 c 0.039 0.398 0.043 0.402 0.344 0.402 c 0.145 0 0.281 -0.016 0.305 -0.027 c 0.039 -0.023 0.016 -0.207 -0.113 -0.922 c -0.086 -0.488 -0.184 -1.066 -0.215 -1.273 c -0.035 -0.215 -0.07 -0.402 -0.082 -0.418 c -0.031 -0.043 -0.566 -0.082 -0.656 -0.051 c -0.059 0.023 -0.199 0.27 -0.352 0.617 c -0.039 0.094 -0.152 0.336 -0.25 0.539 c -0.246 0.516 -0.297 0.508 -0.535 -0.074 c -0.316 -0.781 -0.461 -1.074 -0.535 -1.09 c -0.137 -0.035 -0.535 -0.02 -0.594 0.02 c -0.039 0.031 -0.086 0.199 -0.148 0.539 c -0.051 0.273 -0.156 0.797 -0.23 1.16 c -0.125 0.602 -0.16 0.816 -0.148 0.938 c 0.004 0.063 0.512 0.059 0.566 -0.004" fill="#db1820"/><path d="m 5.301 12.141 c -0.613 -0.008 -1.137 -0.031 -1.16 -0.043 c -0.035 -0.023 -0.047 -0.563 -0.047 -2.508 v -2.48 l 0.113 -0.023 c 0.059 -0.008 0.164 -0.02 0.227 -0.02 c 0.109 0 0.121 -0.012 0.152 -0.125 c 0.039 -0.133 0.281 -1.313 0.465 -2.277 c 0.063 -0.328 0.133 -0.617 0.152 -0.641 c 0.051 -0.059 0.961 -0.059 1.01 0 c 0.031 0.043 0.105 0.195 0.406 0.887 c 0.176 0.395 0.242 0.445 0.316 0.242 c 0.023 -0.066 0.109 -0.258 0.191 -0.422 c 0.082 -0.164 0.168 -0.352 0.191 -0.414 c 0.02 -0.066 0.07 -0.164 0.109 -0.227 l 0.07 -0.105 h 0.477 c 0.336 0 0.484 0.012 0.508 0.039 c 0.035 0.039 0.16 0.699 0.449 2.375 c 0.074 0.445 0.141 0.723 0.168 0.738 c 0.109 0.066 0.457 -0.016 0.457 -0.105 c 0 -0.016 -0.063 -0.066 -0.141 -0.113 c -0.168 -0.098 -0.184 -0.137 -0.121 -0.277 c 0.07 -0.164 0.367 -0.602 0.41 -0.602 c 0.02 0 0.113 0.051 0.203 0.117 c 0.301 0.203 0.578 0.262 0.785 0.164 c 0.09 -0.043 0.105 -0.07 0.094 -0.156 c -0.012 -0.121 -0.066 -0.148 -0.637 -0.309 c -0.355 -0.102 -0.59 -0.254 -0.688 -0.441 c -0.043 -0.074 -0.07 -0.223 -0.078 -0.391 c -0.012 -0.234 -0.004 -0.297 0.074 -0.449 c 0.047 -0.098 0.137 -0.23 0.195 -0.297 c 0.121 -0.129 0.453 -0.305 0.637 -0.344 c 0.063 -0.012 0.121 -0.035 0.133 -0.051 c 0.027 -0.043 0.355 -0.039 0.434 0 c 0.035 0.02 0.164 0.055 0.293 0.086 c 0.281 0.063 0.598 0.195 0.621 0.258 c 0.012 0.027 -0.063 0.191 -0.164 0.367 c -0.199 0.355 -0.242 0.375 -0.469 0.254 c -0.242 -0.137 -0.629 -0.117 -0.629 0.031 c 0 0.086 0.102 0.141 0.461 0.246 c 0.164 0.051 0.371 0.125 0.465 0.168 c 0.191 0.094 0.402 0.309 0.461 0.473 c 0.063 0.176 0.023 0.598 -0.066 0.777 c -0.102 0.195 -0.371 0.445 -0.504 0.473 c -0.145 0.031 -0.141 0.133 0.008 0.184 c 0.258 0.082 0.602 0.309 0.793 0.527 c 0.27 0.305 0.301 0.551 0.102 0.777 c -0.285 0.313 -0.449 0.301 -1.199 -0.109 c -0.367 -0.203 -0.563 -0.27 -0.602 -0.207 c -0.012 0.02 0.023 0.129 0.078 0.242 c 0.055 0.117 0.121 0.254 0.141 0.305 c 0.035 0.074 0.125 0.129 0.457 0.277 c 0.23 0.102 0.531 0.23 0.668 0.293 c 0.445 0.195 0.641 0.418 0.75 0.844 c 0.156 0.602 0.004 1.188 -0.391 1.504 c -0.254 0.199 -0.402 0.266 -0.855 0.371 c -0.715 0.164 -1.129 0.148 -1.59 -0.07 l -0.176 -0.086 l -0.164 0.066 c -0.402 0.16 -0.547 0.188 -0.926 0.188 c -0.316 0 -0.414 -0.016 -0.656 -0.094 c -0.156 -0.055 -0.324 -0.125 -0.375 -0.156 c -0.137 -0.09 -0.188 -0.082 -0.402 0.082 c -0.133 0.102 -0.246 0.156 -0.371 0.184 c -0.102 0.02 -0.188 0.031 -0.191 0.027 c -0.004 -0.004 -0.508 -0.016 -1.121 -0.023 m 1.383 -0.285 c 0.051 -0.023 0.188 -0.137 0.301 -0.254 c 0.379 -0.379 0.738 -1.109 0.941 -1.906 c 0.074 -0.293 0.113 -0.941 0.059 -0.992 c -0.047 -0.043 -0.254 0.082 -0.473 0.289 l -0.211 0.199 v 0.395 c -0.004 0.309 -0.023 0.445 -0.086 0.625 c -0.113 0.332 -0.344 0.695 -0.527 0.824 l -0.156 0.113 l -0.621 -0.012 l -0.625 -0.008 l -0.047 -0.082 c -0.031 -0.063 -0.043 -0.371 -0.043 -1.227 c 0 -1.348 -0.027 -1.262 0.387 -1.262 c 0.152 0 0.375 -0.008 0.492 -0.02 l 0.219 -0.023 l 0.133 -0.219 c 0.172 -0.297 0.266 -0.414 0.52 -0.656 l 0.211 -0.207 l -0.406 -0.172 l -1.125 0.012 c -0.617 0.004 -1.145 0.02 -1.168 0.035 c -0.035 0.023 -0.043 0.52 -0.043 2.312 v 2.285 l 0.258 0.012 c 0.527 0.023 1.918 -0.02 2.01 -0.063 m 4.488 -0.031 c 0.488 -0.121 0.68 -0.211 0.871 -0.418 c 0.242 -0.254 0.324 -0.508 0.301 -0.902 c -0.039 -0.625 -0.223 -0.844 -0.973 -1.152 c -0.262 -0.109 -0.504 -0.195 -0.543 -0.195 c -0.063 0 -0.066 0.016 -0.047 0.324 c 0.008 0.176 0.023 0.336 0.027 0.355 c 0.008 0.02 0.094 0.063 0.191 0.094 c 0.203 0.07 0.395 0.246 0.395 0.367 c 0 0.23 -0.34 0.367 -0.844 0.344 c -0.363 -0.02 -0.633 -0.102 -0.93 -0.289 c -0.32 -0.199 -0.539 -0.219 -0.656 -0.051 c -0.074 0.105 -0.105 0.504 -0.051 0.664 c 0.109 0.305 0.863 0.859 1.285 0.941 c 0.211 0.043 0.586 0.012 0.973 -0.082 m -2.84 -0.25 c 0.336 -0.047 0.512 -0.094 0.512 -0.137 c 0 -0.02 -0.039 -0.086 -0.09 -0.148 c -0.102 -0.125 -0.191 -0.344 -0.191 -0.465 c 0 -0.07 -0.016 -0.078 -0.168 -0.078 c -0.094 0 -0.23 -0.008 -0.301 -0.02 l -0.129 -0.02 l -0.16 0.309 c -0.09 0.172 -0.195 0.359 -0.238 0.418 c -0.082 0.117 -0.074 0.129 0.125 0.152 c 0.203 0.023 0.391 0.023 0.641 -0.012 m -1.938 -0.672 c 0.027 -0.031 0.016 -0.094 -0.051 -0.238 c -0.164 -0.379 -0.203 -0.637 -0.18 -1.172 c 0.012 -0.266 0.027 -0.531 0.031 -0.586 l 0.008 -0.098 l -0.336 -0.012 c -0.285 -0.008 -0.344 0 -0.379 0.051 c -0.035 0.043 -0.047 0.297 -0.047 1.023 c 0 0.84 0.008 0.977 0.055 1.023 c 0.074 0.07 0.836 0.074 0.898 0.008 m 0.395 -0.504 c 0.078 -0.148 0.086 -0.219 0.105 -0.711 c 0.02 -0.484 0.031 -0.566 0.102 -0.691 c 0.387 -0.684 0.879 -1.066 1.379 -1.066 h 0.207 l 0.152 -0.27 c 0.082 -0.148 0.145 -0.277 0.133 -0.285 c -0.008 -0.008 -0.133 -0.023 -0.277 -0.031 c -0.313 -0.023 -0.75 0.066 -1 0.207 c -0.379 0.207 -0.84 0.746 -0.988 1.156 c -0.105 0.293 -0.172 0.746 -0.152 1.047 c 0.02 0.262 0.109 0.738 0.152 0.801 c 0.039 0.059 0.105 0.004 0.191 -0.156 m 1.852 0.004 c 0.043 -0.043 0.125 -0.145 0.18 -0.23 c 0.078 -0.117 0.133 -0.16 0.242 -0.191 c 0.156 -0.043 0.23 -0.125 0.262 -0.281 c 0.023 -0.098 0.012 -0.109 -0.168 -0.203 c -0.238 -0.125 -0.473 -0.363 -0.52 -0.527 c -0.023 -0.07 -0.039 -0.211 -0.039 -0.313 c 0 -0.102 -0.02 -0.199 -0.039 -0.219 c -0.043 -0.039 -0.23 -0.004 -0.289 0.051 c -0.02 0.016 -0.035 0.273 -0.043 0.57 c -0.008 0.461 -0.023 0.598 -0.105 0.891 c -0.051 0.191 -0.09 0.379 -0.086 0.414 c 0.012 0.078 0.117 0.109 0.359 0.117 c 0.137 0 0.184 -0.016 0.246 -0.078 m 2.422 -0.035 c 0.047 -0.027 0.086 -0.066 0.086 -0.086 c 0 -0.035 -0.293 -0.164 -0.371 -0.164 c -0.059 0 -0.141 0.215 -0.109 0.289 c 0.027 0.063 0.262 0.043 0.395 -0.039 m -0.723 -0.238 c 0.188 -0.402 0.125 -1.199 -0.137 -1.68 c -0.105 -0.195 -0.137 -0.188 -0.078 0.02 c 0.082 0.289 -0.031 0.629 -0.395 1.184 c -0.195 0.305 -0.195 0.293 -0.102 0.367 c 0.109 0.082 0.492 0.258 0.574 0.262 c 0.043 0 0.086 -0.051 0.137 -0.152 m -0.656 -0.996 c 0.172 -0.336 0.191 -0.504 0.07 -0.637 c -0.113 -0.129 -0.148 -0.277 -0.094 -0.406 c 0.148 -0.332 0.879 -0.238 1.68 0.215 c 0.258 0.148 0.422 0.199 0.539 0.176 c 0.102 -0.027 0.227 -0.199 0.227 -0.32 c 0 -0.117 -0.172 -0.355 -0.355 -0.5 c -0.375 -0.281 -0.754 -0.375 -1.578 -0.375 c -0.516 -0.004 -0.578 0.004 -0.711 0.07 c -0.246 0.125 -0.477 0.391 -0.563 0.66 c -0.07 0.223 -0.074 0.844 0 0.973 c 0.063 0.117 0.535 0.434 0.605 0.41 c 0.027 -0.012 0.109 -0.129 0.18 -0.27 m -1.996 -1.93 c 0.133 -0.055 0.246 -0.117 0.254 -0.141 c 0.031 -0.078 -0.176 -1.195 -0.223 -1.211 c -0.043 -0.012 -0.164 0.211 -0.492 0.906 c -0.086 0.18 -0.156 0.332 -0.156 0.336 c 0 0.016 0.336 0.207 0.359 0.207 c 0.012 0.004 0.129 -0.043 0.258 -0.098 m -1.199 -0.199 c 0.016 -0.023 -0.055 -0.203 -0.152 -0.406 c -0.102 -0.207 -0.219 -0.457 -0.27 -0.563 c -0.082 -0.18 -0.137 -0.227 -0.176 -0.164 c -0.039 0.059 -0.207 1.066 -0.188 1.113 c 0.016 0.043 0.086 0.055 0.391 0.055 c 0.23 0 0.379 -0.016 0.395 -0.035 m 4.668 -0.156 c 0.406 -0.188 0.543 -0.41 0.516 -0.844 c -0.008 -0.16 -0.031 -0.25 -0.086 -0.316 c -0.105 -0.133 -0.406 -0.293 -0.68 -0.355 c -0.34 -0.082 -0.496 -0.148 -0.574 -0.254 c -0.102 -0.129 -0.09 -0.273 0.031 -0.398 c 0.09 -0.094 0.129 -0.109 0.32 -0.121 c 0.145 -0.012 0.277 0.004 0.402 0.043 l 0.184 0.055 l 0.082 -0.094 c 0.113 -0.133 0.141 -0.242 0.07 -0.293 c -0.035 -0.023 -0.223 -0.066 -0.418 -0.098 c -0.523 -0.086 -0.855 -0.035 -1.098 0.168 c -0.246 0.207 -0.297 0.316 -0.297 0.645 c -0.004 0.246 0.008 0.305 0.07 0.387 c 0.102 0.125 0.281 0.234 0.453 0.273 c 0.633 0.145 0.887 0.289 0.887 0.508 c 0 0.375 -0.523 0.527 -1.01 0.293 c -0.121 -0.055 -0.238 -0.105 -0.262 -0.105 c -0.043 0 -0.195 0.27 -0.195 0.352 c 0 0.063 0.133 0.141 0.379 0.219 c 0.16 0.047 0.289 0.059 0.594 0.055 c 0.363 -0.008 0.41 -0.02 0.629 -0.117 m -5.719 0.012 c 0.023 -0.023 0.098 -0.379 0.168 -0.785 c 0.07 -0.41 0.141 -0.766 0.152 -0.793 c 0.055 -0.098 0.16 -0.055 0.238 0.098 c 0.102 0.199 0.414 0.867 0.508 1.09 c 0.148 0.355 0.211 0.441 0.305 0.43 c 0.094 -0.012 0.102 -0.02 0.672 -1.188 c 0.113 -0.227 0.219 -0.434 0.238 -0.453 c 0.051 -0.063 0.125 -0.055 0.164 0.016 c 0.035 0.063 0.164 0.852 0.199 1.23 c 0.039 0.398 0.043 0.402 0.344 0.402 c 0.145 0 0.281 -0.016 0.305 -0.027 c 0.039 -0.023 0.016 -0.207 -0.113 -0.922 c -0.086 -0.488 -0.184 -1.066 -0.215 -1.273 c -0.035 -0.215 -0.07 -0.402 -0.082 -0.418 c -0.031 -0.043 -0.566 -0.082 -0.656 -0.051 c -0.059 0.023 -0.199 0.27 -0.352 0.617 c -0.039 0.094 -0.152 0.336 -0.25 0.539 c -0.246 0.516 -0.297 0.508 -0.535 -0.074 c -0.316 -0.781 -0.461 -1.074 -0.535 -1.09 c -0.137 -0.035 -0.535 -0.02 -0.594 0.02 c -0.039 0.031 -0.086 0.199 -0.148 0.539 c -0.051 0.273 -0.156 0.797 -0.23 1.16 c -0.125 0.602 -0.16 0.816 -0.148 0.938 c 0.004 0.063 0.512 0.059 0.566 -0.004" fill="#710086"/><path d="m 5.301 12.141 c -0.613 -0.008 -1.137 -0.031 -1.16 -0.043 c -0.035 -0.023 -0.047 -0.563 -0.047 -2.508 v -2.48 l 0.113 -0.023 c 0.059 -0.008 0.164 -0.02 0.227 -0.02 c 0.109 0 0.121 -0.012 0.152 -0.125 c 0.039 -0.133 0.281 -1.313 0.465 -2.277 c 0.063 -0.328 0.133 -0.617 0.152 -0.641 c 0.051 -0.059 0.961 -0.059 1.01 0 c 0.031 0.043 0.105 0.195 0.406 0.887 c 0.176 0.395 0.242 0.445 0.316 0.242 c 0.023 -0.066 0.109 -0.258 0.191 -0.422 c 0.082 -0.164 0.168 -0.352 0.191 -0.414 c 0.02 -0.066 0.07 -0.164 0.109 -0.227 l 0.07 -0.105 h 0.477 c 0.336 0 0.484 0.012 0.508 0.039 c 0.035 0.039 0.16 0.699 0.449 2.375 c 0.074 0.445 0.141 0.723 0.168 0.738 c 0.109 0.066 0.457 -0.016 0.457 -0.105 c 0 -0.016 -0.063 -0.066 -0.141 -0.113 c -0.168 -0.098 -0.184 -0.137 -0.121 -0.277 c 0.07 -0.164 0.367 -0.602 0.41 -0.602 c 0.02 0 0.113 0.051 0.203 0.117 c 0.301 0.203 0.578 0.262 0.785 0.164 c 0.09 -0.043 0.105 -0.07 0.094 -0.156 c -0.012 -0.121 -0.066 -0.148 -0.637 -0.309 c -0.355 -0.102 -0.59 -0.254 -0.688 -0.441 c -0.043 -0.074 -0.07 -0.223 -0.078 -0.391 c -0.012 -0.234 -0.004 -0.297 0.074 -0.449 c 0.047 -0.098 0.137 -0.23 0.195 -0.297 c 0.121 -0.129 0.453 -0.305 0.637 -0.344 c 0.063 -0.012 0.121 -0.035 0.133 -0.051 c 0.027 -0.043 0.355 -0.039 0.434 0 c 0.035 0.02 0.164 0.055 0.293 0.086 c 0.281 0.063 0.598 0.195 0.621 0.258 c 0.012 0.027 -0.063 0.191 -0.164 0.367 c -0.199 0.355 -0.242 0.375 -0.469 0.254 c -0.242 -0.137 -0.629 -0.117 -0.629 0.031 c 0 0.086 0.102 0.141 0.461 0.246 c 0.164 0.051 0.371 0.125 0.465 0.168 c 0.191 0.094 0.402 0.309 0.461 0.473 c 0.063 0.176 0.023 0.598 -0.066 0.777 c -0.102 0.195 -0.371 0.445 -0.504 0.473 c -0.145 0.031 -0.141 0.133 0.008 0.184 c 0.258 0.082 0.602 0.309 0.793 0.527 c 0.27 0.305 0.301 0.551 0.102 0.777 c -0.285 0.313 -0.449 0.301 -1.199 -0.109 c -0.367 -0.203 -0.563 -0.27 -0.602 -0.207 c -0.012 0.02 0.023 0.129 0.078 0.242 c 0.055 0.117 0.121 0.254 0.141 0.305 c 0.035 0.074 0.125 0.129 0.457 0.277 c 0.23 0.102 0.531 0.23 0.668 0.293 c 0.445 0.195 0.641 0.418 0.75 0.844 c 0.156 0.602 0.004 1.188 -0.391 1.504 c -0.254 0.199 -0.402 0.266 -0.855 0.371 c -0.715 0.164 -1.129 0.148 -1.59 -0.07 l -0.176 -0.086 l -0.164 0.066 c -0.402 0.16 -0.547 0.188 -0.926 0.188 c -0.316 0 -0.414 -0.016 -0.656 -0.094 c -0.156 -0.055 -0.324 -0.125 -0.375 -0.156 c -0.137 -0.09 -0.188 -0.082 -0.402 0.082 c -0.133 0.102 -0.246 0.156 -0.371 0.184 c -0.102 0.02 -0.188 0.031 -0.191 0.027 c -0.004 -0.004 -0.508 -0.016 -1.121 -0.023 m 1.383 -0.285 c 0.051 -0.023 0.188 -0.137 0.301 -0.254 c 0.379 -0.379 0.738 -1.109 0.941 -1.906 c 0.074 -0.293 0.113 -0.941 0.059 -0.992 c -0.047 -0.043 -0.254 0.082 -0.473 0.289 l -0.211 0.199 v 0.395 c -0.004 0.309 -0.023 0.445 -0.086 0.625 c -0.113 0.332 -0.344 0.695 -0.527 0.824 l -0.156 0.113 l -0.621 -0.012 l -0.625 -0.008 l -0.047 -0.082 c -0.031 -0.063 -0.043 -0.371 -0.043 -1.227 c 0 -1.348 -0.027 -1.262 0.387 -1.262 c 0.152 0 0.375 -0.008 0.492 -0.02 l 0.219 -0.023 l 0.133 -0.219 c 0.172 -0.297 0.266 -0.414 0.52 -0.656 l 0.211 -0.207 l -0.406 -0.172 l -1.125 0.012 c -0.617 0.004 -1.145 0.02 -1.168 0.035 c -0.035 0.023 -0.043 0.52 -0.043 2.312 v 2.285 l 0.258 0.012 c 0.527 0.023 1.918 -0.02 2.01 -0.063 m 4.488 -0.031 c 0.488 -0.121 0.68 -0.211 0.871 -0.418 c 0.242 -0.254 0.324 -0.508 0.301 -0.902 c -0.039 -0.625 -0.223 -0.844 -0.973 -1.152 c -0.262 -0.109 -0.504 -0.195 -0.543 -0.195 c -0.063 0 -0.066 0.016 -0.047 0.324 c 0.008 0.176 0.023 0.336 0.027 0.355 c 0.008 0.02 0.094 0.063 0.191 0.094 c 0.203 0.07 0.395 0.246 0.395 0.367 c 0 0.23 -0.34 0.367 -0.844 0.344 c -0.363 -0.02 -0.633 -0.102 -0.93 -0.289 c -0.32 -0.199 -0.539 -0.219 -0.656 -0.051 c -0.074 0.105 -0.105 0.504 -0.051 0.664 c 0.109 0.305 0.863 0.859 1.285 0.941 c 0.211 0.043 0.586 0.012 0.973 -0.082 m -2.176 -0.016 c 0.109 -0.039 0.203 -0.082 0.203 -0.094 c 0 -0.012 -0.063 -0.082 -0.137 -0.152 c -0.207 -0.203 -0.391 -0.473 -0.414 -0.609 c -0.043 -0.258 -0.051 -0.262 -0.379 -0.281 c -0.16 -0.008 -0.313 0 -0.336 0.016 c -0.023 0.016 -0.109 0.16 -0.191 0.32 c -0.082 0.156 -0.188 0.34 -0.23 0.402 c -0.047 0.063 -0.086 0.133 -0.086 0.152 c 0 0.059 0.309 0.219 0.551 0.285 c 0.281 0.078 0.734 0.063 1.02 -0.039 m -2.602 -0.906 c 0.027 -0.031 0.016 -0.094 -0.051 -0.238 c -0.164 -0.379 -0.203 -0.637 -0.18 -1.172 c 0.012 -0.266 0.027 -0.531 0.031 -0.586 l 0.008 -0.098 l -0.336 -0.012 c -0.285 -0.008 -0.344 0 -0.379 0.051 c -0.035 0.043 -0.047 0.297 -0.047 1.023 c 0 0.84 0.008 0.977 0.055 1.023 c 0.074 0.07 0.836 0.078 0.898 0.008 m 0.43 -0.469 c 0.117 -0.223 0.125 -0.25 0.145 -0.68 c 0.016 -0.406 0.027 -0.465 0.121 -0.633 c 0.207 -0.379 0.418 -0.547 0.992 -0.809 c 0.195 -0.086 0.391 -0.176 0.438 -0.195 c 0.051 -0.023 0.117 -0.117 0.18 -0.254 c 0.055 -0.121 0.141 -0.277 0.191 -0.348 c 0.051 -0.07 0.086 -0.141 0.074 -0.152 c -0.031 -0.055 -0.426 -0.105 -0.633 -0.082 c -0.418 0.039 -0.801 0.199 -1.137 0.473 c -0.148 0.121 -0.395 0.43 -0.523 0.66 c -0.289 0.516 -0.371 1.262 -0.207 1.883 c 0.121 0.465 0.172 0.484 0.359 0.137 m 1.816 -0.031 c 0.043 -0.043 0.125 -0.145 0.18 -0.23 c 0.078 -0.117 0.133 -0.16 0.242 -0.191 c 0.156 -0.043 0.23 -0.125 0.262 -0.281 c 0.023 -0.098 0.012 -0.109 -0.168 -0.203 c -0.238 -0.125 -0.473 -0.363 -0.523 -0.527 c -0.02 -0.07 -0.035 -0.211 -0.035 -0.313 c 0 -0.102 -0.02 -0.199 -0.039 -0.219 c -0.043 -0.039 -0.23 -0.008 -0.289 0.051 c -0.02 0.016 -0.035 0.273 -0.043 0.57 c -0.008 0.461 -0.023 0.598 -0.105 0.891 c -0.051 0.191 -0.09 0.379 -0.086 0.414 c 0.012 0.078 0.117 0.109 0.359 0.117 c 0.137 0 0.184 -0.016 0.246 -0.078 m 2.422 -0.035 c 0.047 -0.027 0.086 -0.066 0.086 -0.086 c 0 -0.035 -0.293 -0.164 -0.371 -0.164 c -0.059 0 -0.141 0.215 -0.109 0.289 c 0.027 0.063 0.262 0.043 0.395 -0.039 m -0.672 -0.023 c 0.047 -0.074 0.117 -0.547 0.117 -0.805 c 0.004 -0.281 -0.063 -0.672 -0.152 -0.898 c -0.094 -0.246 -0.273 -0.512 -0.344 -0.512 c -0.086 0 -0.086 0.051 0.004 0.215 c 0.172 0.32 0.016 0.82 -0.469 1.484 c -0.039 0.055 -0.063 0.113 -0.051 0.141 c 0.027 0.066 0.297 0.23 0.535 0.324 c 0.234 0.098 0.32 0.109 0.359 0.051 m -0.707 -1.215 c 0.172 -0.332 0.191 -0.504 0.07 -0.633 c -0.113 -0.129 -0.148 -0.277 -0.094 -0.406 c 0.148 -0.332 0.879 -0.238 1.68 0.215 c 0.258 0.148 0.422 0.199 0.539 0.172 c 0.102 -0.023 0.227 -0.195 0.227 -0.316 c 0 -0.117 -0.172 -0.359 -0.355 -0.5 c -0.375 -0.281 -0.754 -0.375 -1.578 -0.375 c -0.516 -0.004 -0.578 0.004 -0.711 0.07 c -0.246 0.125 -0.477 0.391 -0.563 0.66 c -0.07 0.223 -0.074 0.844 0 0.973 c 0.063 0.117 0.535 0.434 0.605 0.41 c 0.027 -0.012 0.109 -0.129 0.18 -0.27 m -1.996 -1.93 c 0.133 -0.055 0.246 -0.117 0.254 -0.141 c 0.031 -0.078 -0.176 -1.195 -0.223 -1.211 c -0.043 -0.012 -0.164 0.211 -0.492 0.902 c -0.086 0.184 -0.156 0.336 -0.156 0.34 c 0 0.016 0.336 0.207 0.359 0.207 c 0.012 0.004 0.129 -0.043 0.258 -0.098 m -1.199 -0.203 c 0.016 -0.02 -0.055 -0.199 -0.152 -0.406 c -0.102 -0.203 -0.219 -0.453 -0.27 -0.559 c -0.082 -0.18 -0.137 -0.227 -0.176 -0.164 c -0.039 0.059 -0.207 1.066 -0.188 1.113 c 0.016 0.043 0.086 0.055 0.391 0.055 c 0.23 0 0.379 -0.016 0.395 -0.039 m 4.668 -0.152 c 0.406 -0.188 0.543 -0.41 0.516 -0.844 c -0.008 -0.16 -0.031 -0.25 -0.086 -0.316 c -0.105 -0.133 -0.406 -0.293 -0.68 -0.355 c -0.344 -0.082 -0.496 -0.148 -0.574 -0.254 c -0.102 -0.129 -0.09 -0.273 0.031 -0.398 c 0.09 -0.094 0.129 -0.109 0.32 -0.121 c 0.145 -0.012 0.277 0.004 0.402 0.043 l 0.184 0.055 l 0.082 -0.094 c 0.113 -0.133 0.141 -0.246 0.07 -0.293 c -0.035 -0.023 -0.223 -0.066 -0.418 -0.098 c -0.523 -0.086 -0.855 -0.035 -1.098 0.168 c -0.246 0.207 -0.297 0.316 -0.297 0.645 c -0.004 0.246 0.008 0.305 0.07 0.387 c 0.102 0.125 0.281 0.234 0.453 0.273 c 0.633 0.145 0.887 0.289 0.887 0.508 c 0 0.375 -0.523 0.527 -1.01 0.293 c -0.121 -0.055 -0.238 -0.105 -0.262 -0.105 c -0.043 0 -0.195 0.27 -0.195 0.352 c 0 0.063 0.133 0.141 0.379 0.219 c 0.16 0.047 0.289 0.059 0.594 0.055 c 0.363 -0.008 0.41 -0.02 0.629 -0.117 m -5.719 0.012 c 0.023 -0.023 0.098 -0.379 0.168 -0.785 c 0.07 -0.41 0.141 -0.766 0.152 -0.793 c 0.055 -0.098 0.16 -0.055 0.238 0.098 c 0.102 0.199 0.414 0.867 0.508 1.09 c 0.148 0.355 0.211 0.441 0.305 0.43 c 0.094 -0.012 0.098 -0.02 0.672 -1.188 c 0.113 -0.227 0.219 -0.434 0.238 -0.457 c 0.051 -0.059 0.125 -0.051 0.164 0.02 c 0.035 0.063 0.164 0.852 0.199 1.23 c 0.039 0.395 0.043 0.402 0.344 0.402 c 0.145 0 0.281 -0.016 0.305 -0.031 c 0.039 -0.02 0.016 -0.203 -0.113 -0.918 c -0.086 -0.492 -0.184 -1.066 -0.215 -1.277 c -0.035 -0.211 -0.07 -0.398 -0.082 -0.418 c -0.031 -0.039 -0.566 -0.078 -0.656 -0.047 c -0.059 0.023 -0.199 0.27 -0.352 0.617 c -0.039 0.094 -0.152 0.336 -0.25 0.539 c -0.246 0.516 -0.297 0.508 -0.535 -0.074 c -0.32 -0.781 -0.461 -1.074 -0.535 -1.09 c -0.137 -0.035 -0.535 -0.02 -0.594 0.02 c -0.039 0.031 -0.086 0.199 -0.148 0.539 c -0.051 0.273 -0.156 0.797 -0.23 1.16 c -0.125 0.602 -0.16 0.816 -0.148 0.938 c 0.004 0.063 0.512 0.059 0.566 -0.004" fill="#0c090a"/></svg>