<svg xmlns="http://www.w3.org/2000/svg" viewBox="0 0 16 16"><g fill="#f45123"><path d="m 5.836 15.902 c -1.855 -0.273 -3.258 -0.871 -4.262 -1.824 c -0.973 -0.922 -1.477 -2.063 -1.52 -3.449 c -0.039 -1.105 0.16 -2.063 0.715 -3.457 c 0.387 -0.977 1.297 -2.574 1.969 -3.457 c 1.344 -1.766 3.254 -3.113 4.992 -3.52 c 0.555 -0.133 1.43 -0.164 1.973 -0.078 c 1.508 0.238 2.684 1.105 3.938 2.902 c 2.188 3.141 2.836 5.996 1.891 8.324 c -0.281 0.695 -0.68 1.301 -1.219 1.867 c -1.316 1.375 -3.055 2.227 -5.367 2.625 c -0.457 0.078 -0.559 0.086 -1.656 0.098 c -0.852 0.008 -1.246 -0.004 -1.453 -0.031"/><path d="m 15.363 8.699 c 0 3.738 -3.203 6.77 -7.156 6.77 c -3.957 0 -7.16 -3.03 -7.16 -6.77 c 0 -3.738 3.203 -6.77 7.16 -6.77 c 3.953 0 7.156 3.03 7.156 6.77" fill-rule="evenodd"/></g><path d="m 7.06 10.168 c -0.398 -0.027 -0.727 -0.133 -0.992 -0.328 c -0.113 -0.086 -0.242 -0.223 -0.32 -0.344 c -0.016 -0.031 -0.039 -0.059 -0.043 -0.063 v 0.676 h -1.129 v -0.777 c -0.004 -0.809 -0.004 -0.848 -0.031 -0.945 c -0.047 -0.176 -0.211 -0.242 -0.387 -0.246 c -0.203 -0.004 -0.359 0.074 -0.449 0.254 c -0.035 0.098 -0.035 0.043 -0.035 0.914 l -0.004 0.801 h -1.133 c -0.016 -0.734 0.02 -1.469 -0.012 -2.203 c -0.016 -0.117 -0.039 -0.215 -0.094 -0.355 l -0.027 -0.078 l 1.102 0.004 l 0.027 0.055 c 0.016 0.031 0.031 0.074 0.039 0.102 c 0.004 0.027 0.012 0.051 0.012 0.051 c 0.004 0 0.043 -0.023 0.086 -0.051 c 0.172 -0.109 0.34 -0.172 0.563 -0.203 c 0.117 -0.016 0.41 -0.012 0.527 0.004 c 0.277 0.043 0.496 0.129 0.664 0.27 c 0.121 0.102 0.211 0.262 0.25 0.445 l 0.016 0.066 l 0.027 -0.051 c 0.059 -0.102 0.125 -0.187 0.215 -0.277 c 0.27 -0.266 0.645 -0.422 1.125 -0.469 c 0.113 -0.012 0.406 -0.012 0.523 0 c 0.246 0.027 0.445 0.082 0.629 0.172 c 0.145 0.07 0.25 0.148 0.363 0.258 c 0.105 0.102 0.199 0.23 0.262 0.352 l 0.02 0.043 v -0.125 c 0 -0.258 -0.012 -0.398 -0.055 -0.551 l -0.027 -0.098 l 1.113 0.012 l 0.016 0.043 c 0.023 0.07 0.039 0.156 0.043 0.23 l 0.004 0.07 l 0.043 -0.055 c 0.133 -0.168 0.293 -0.273 0.496 -0.324 c 0.102 -0.023 0.191 -0.031 0.324 -0.027 c 0.113 0.004 0.188 0.016 0.32 0.043 l 0.031 0.008 c 0 0.105 0 0.207 0 0.313 c 0.004 0 0.031 -0.016 0.059 -0.031 c 0.422 -0.289 1.027 -0.406 1.602 -0.313 c 0.316 0.051 0.613 0.168 0.84 0.328 c 0.391 0.277 0.586 0.699 0.535 1.168 c -0.031 0.324 -0.191 0.609 -0.453 0.82 c -0.348 0.281 -0.844 0.434 -1.387 0.418 c -0.355 -0.008 -0.652 -0.078 -0.93 -0.215 c -0.227 -0.113 -0.418 -0.273 -0.563 -0.473 c -0.254 -0.359 -0.285 -0.844 -0.086 -1.246 c 0.016 -0.035 0.027 -0.063 0.027 -0.063 c -0.113 -0.035 -0.234 -0.035 -0.348 -0.012 c -0.07 0.02 -0.117 0.043 -0.176 0.086 c -0.148 0.105 -0.234 0.258 -0.273 0.484 c -0.016 0.117 -0.02 0.23 -0.02 0.801 v 0.574 h -1.133 v -0.641 l -0.031 0.051 c -0.051 0.082 -0.109 0.152 -0.184 0.223 c -0.27 0.254 -0.652 0.395 -1.16 0.426 c -0.105 0.008 -0.313 0.008 -0.422 0 m 0.832 -0.883 l 0.969 0.016 v -0.301 h -2.191 l 0.004 0.039 c 0.004 0.023 0.012 0.066 0.02 0.094 c 0.055 0.199 0.215 0.324 0.473 0.363 c 0.289 0.027 0.527 0.012 0.727 -0.211 m 4.836 0.152 c 0.188 -0.109 0.301 -0.316 0.324 -0.586 c 0.016 -0.191 -0.039 -0.398 -0.141 -0.539 c -0.031 -0.047 -0.102 -0.117 -0.145 -0.145 c -0.152 -0.098 -0.336 -0.109 -0.512 -0.074 c -0.27 0.078 -0.434 0.316 -0.449 0.652 c -0.008 0.246 0.063 0.453 0.207 0.594 c 0.09 0.086 0.168 0.129 0.293 0.156 c 0.145 0.02 0.293 0.004 0.422 -0.059 m -4.926 -1.02 c 0.012 -0.008 -0.027 -0.125 -0.055 -0.176 c -0.027 -0.051 -0.102 -0.113 -0.172 -0.148 c -0.207 -0.094 -0.52 -0.074 -0.691 0.043 c -0.086 0.059 -0.156 0.152 -0.191 0.266 l -0.008 0.023 h 0.555 c 0.309 0 0.563 -0.004 0.563 -0.008" fill="#fff"/></svg>