<svg xmlns="http://www.w3.org/2000/svg" xmlns:xlink="http://www.w3.org/1999/xlink" viewBox="0 0 16 16"><defs><g id="7" clip-path="url(#6)"><path d="m 26.07 41.23 c 0 1.011 0.826 1.836 1.832 1.836 c 1.01 0 1.832 -0.824 1.832 -1.836 c 0 -1.011 -0.826 -1.82 -1.832 -1.82 c -1.01 0 -1.832 0.809 -1.832 1.82" transform="matrix(0.26019 0 0 0.25111 1.765 2.535)" stroke-opacity="0.522" fill="#fff" stroke="#fff" stroke-linejoin="round" stroke-linecap="round"/></g><g id="C" clip-path="url(#B)"><path d="m 10.767 13.863 c 0 1.011 -0.826 1.82 -1.832 1.82 c -1.01 0 -1.832 -0.809 -1.832 -1.82 c 0 -1.011 0.826 -1.836 1.832 -1.836 c 1.01 0 1.832 0.824 1.832 1.836" transform="matrix(0.26019 0 0 0.25111 1.765 2.535)" stroke-opacity="0.522" fill="#fff" stroke="#fff" stroke-linejoin="round" stroke-linecap="round"/></g><g id="G" clip-path="url(#F)"><path d="m 8.77 34.63 c 1.01 0 1.817 -0.824 1.817 -1.836 c 0 -1.011 -0.811 -1.82 -1.817 -1.82 c -1.021 0 -1.832 0.809 -1.832 1.82 c 0 1.011 0.811 1.836 1.832 1.836" transform="matrix(0.26019 0 0 0.25111 1.765 2.535)" stroke-opacity="0.522" fill="#fff" stroke="#fff" stroke-linejoin="round" stroke-linecap="round"/></g><g id="L" clip-path="url(#K)"><path d="m 42.926 19.805 c 0 -1.011 -0.811 -1.836 -1.832 -1.836 c -1.01 0 -1.817 0.824 -1.817 1.836 c 0 1.011 0.811 1.82 1.817 1.82 c 1.021 0 1.832 -0.809 1.832 -1.82" transform="matrix(0.26019 0 0 0.25111 1.765 2.535)" stroke-opacity="0.522" fill="#fff" stroke="#fff" stroke-linejoin="round" stroke-linecap="round"/></g><clipPath id="B"><path d="M 0,0 H16 V16 H0 z"/></clipPath><clipPath id="K"><path d="M 0,0 H16 V16 H0 z"/></clipPath><clipPath id="F"><path d="M 0,0 H16 V16 H0 z"/></clipPath><clipPath id="6"><path d="M 0,0 H16 V16 H0 z"/></clipPath><filter id="4" filterUnits="objectBoundingBox" x="0" y="0" width="16" height="16"><feColorMatrix type="matrix" in="SourceGraphic" values="0 0 0 0 1 0 0 0 0 1 0 0 0 0 1 0 0 0 1 0"/></filter><linearGradient id="D" gradientUnits="userSpaceOnUse" x1="36.646" y1="7.628" x2="8.305" y2="37.797" xlink:href="#3"/><linearGradient id="I" gradientUnits="userSpaceOnUse" x1="4.808" x2="44.13" xlink:href="#2"/><linearGradient id="9" gradientUnits="userSpaceOnUse" x1="36.815" y1="37.714" x2="7.561" y2="13.03" xlink:href="#3"/><linearGradient id="8" gradientUnits="userSpaceOnUse" x1="17.617" y1="16.687" x2="10.915" y2="9.386" xlink:href="#2"/><linearGradient id="M" gradientUnits="userSpaceOnUse" x1="34.987" y1="24" x2="45.583" y2="23.842" xlink:href="#2"/><linearGradient id="2" gradientUnits="userSpaceOnUse" x1="23.1" y1="33.14" x2="23.02" y2="44.81"><stop stop-color="#fff" stop-opacity="0.133"/><stop offset="1" stop-color="#fff" stop-opacity="0"/></linearGradient><linearGradient id="1" gradientUnits="userSpaceOnUse" y1="3.791" x2="0" y2="44.42"><stop stop-color="#fff" stop-opacity="0.502"/><stop offset="0.424" stop-color="#fff" stop-opacity="0.118"/><stop offset="0.821" stop-color="#fff" stop-opacity="0.079"/><stop offset="1" stop-color="#fff" stop-opacity="0.197"/></linearGradient><linearGradient id="3" gradientUnits="userSpaceOnUse" y1="3.888" x2="0" y2="44.11"><stop stop-color="#fff" stop-opacity="0.107"/><stop offset="1" stop-color="#fff" stop-opacity="0"/></linearGradient><linearGradient id="H" gradientUnits="userSpaceOnUse" x1="16.533" y1="30.483" x2="8.476" y2="38.02" xlink:href="#2"/><mask id="J"><g filter="url(#4)"><path fill-opacity="0.8" d="M 0,0 H16 V16 H0 z"/></g></mask><mask id="A"><g filter="url(#4)"><path fill-opacity="0.8" d="M 0,0 H16 V16 H0 z"/></g></mask><mask id="E"><g filter="url(#4)"><path fill-opacity="0.8" d="M 0,0 H16 V16 H0 z"/></g></mask><mask id="5"><g filter="url(#4)"><path fill-opacity="0.8" d="M 0,0 H16 V16 H0 z"/></g></mask><radialGradient id="0" gradientUnits="userSpaceOnUse" cx="3.972" cy="8.45" r="20" gradientTransform="matrix(0 0.62747 -0.68779 0 13.822 -0.543)"><stop stop-color="#8fdbec"/><stop offset="0.262" stop-color="#42b9ea"/><stop offset="0.705" stop-color="#3688e5"/><stop offset="1" stop-color="#2a629f"/></radialGradient></defs><path d="m 2.027 3.625 c 0.523 -0.773 1.223 -1.551 1.863 -2.066 c 2.238 -1.797 4.809 -1.875 7.086 -0.207 c 1.223 0.895 2.395 2.293 3.445 4.113 c 1.254 2.172 1.68 4.773 1.094 6.691 c -0.125 0.406 -0.48 1.113 -0.73 1.457 c -0.844 1.156 -2.113 1.836 -3.953 2.121 c -1.762 0.273 -3.414 0.301 -4.816 0.082 c -2.891 -0.449 -4.82 -2.02 -5.504 -4.449 c -0.477 -1.711 -0.324 -3.633 0.449 -5.691 c 0.117 -0.309 0.875 -1.77 1.066 -2.051" fill="#3895e6"/><path d="m 8.01 3.395 c -2.941 0 -5.332 2.309 -5.332 5.148 c 0 2.84 2.391 5.145 5.332 5.145 c 2.945 0 5.336 -2.305 5.336 -5.145 c 0 -2.84 -2.391 -5.148 -5.336 -5.148" fill="url(#0)"/><g fill="none" stroke-linejoin="round" stroke-linecap="round"><path d="m 43.496 24.01 c 0 10.765 -8.723 19.492 -19.502 19.492 c -10.765 0 -19.487 -8.727 -19.487 -19.492 c 0 -10.78 8.723 -19.507 19.487 -19.507 c 10.78 0 19.502 8.727 19.502 19.507" transform="matrix(0.26019 0 0 0.25111 1.765 2.535)" stroke="url(#1)"/><path d="m 23.979 4.342 c -4.429 0.047 -8.152 7.669 -8.603 17.672 c -0.435 10 2.522 19.17 6.876 21.22" transform="matrix(0.26019 0 0 0.25111 1.765 2.535)" stroke="url(#2)"/><path d="m 27.702 41.802 c 3.678 -3.905 5.675 -13.08 4.789 -22.09 c -0.886 -8.991 -4.429 -15.385 -8.498 -15.369" transform="matrix(0.26019 0 0 0.25111 1.765 2.535)" stroke="url(#3)"/></g><use xlink:href="#7" mask="url(#5)"/><g fill="none" stroke-linejoin="round" stroke-linecap="round"><path d="m 12.569 8.9 c 5.04 -0.871 13.617 4.076 19.983 11.543 c 6.351 7.467 8.483 15.11 4.984 17.796" transform="matrix(0.26019 0 0 0.25111 1.765 2.535)" stroke="url(#8)"/><path d="m 37.911 37.897 c -2.958 2.956 -10.284 0.716 -17.415 -5.336 c -7.116 -6.05 -12.03 -14.187 -11.65 -19.352" transform="matrix(0.26019 0 0 0.25111 1.765 2.535)" stroke="url(#9)"/></g><use xlink:href="#C" mask="url(#A)"/><path d="m 38.09 10.58 c -2.342 -3.08 -8.543 -1.882 -15.239 2.971 c -6.711 4.838 -12.326 12.165 -13.827 18.01" transform="matrix(0.26019 0 0 0.25111 1.765 2.535)" fill="none" stroke="url(#D)" stroke-linejoin="round" stroke-linecap="round"/><use xlink:href="#G" mask="url(#E)"/><g fill="none" stroke-linejoin="round" stroke-linecap="round"><path d="m 9.986 38.02 c 3.288 3.22 11.74 0.14 19.262 -7.05 c 7.537 -7.187 11.53 -15.961 9.1 -20.02" transform="matrix(0.26019 0 0 0.25111 1.765 2.535)" stroke="url(#H)"/><path d="m 40.764 19.447 c -4.699 -3.376 -13.977 -4.916 -22.535 -3.749 c -8.573 1.167 -14.263 4.745 -13.842 8.711" transform="matrix(0.26019 0 0 0.25111 1.765 2.535)" stroke="url(#I)"/></g><use xlink:href="#L" mask="url(#J)"/><path d="m 4.476 24.954 c 1.126 4.48 9.834 7.84 20.06 7.731 c 10.209 -0.124 18.511 -3.671 19.11 -8.183" transform="matrix(0.26019 0 0 0.25111 1.765 2.535)" fill="none" stroke="url(#M)" stroke-linejoin="round" stroke-linecap="round"/></svg>