<svg xmlns="http://www.w3.org/2000/svg" viewBox="0 0 16 16"><path d="m 1.73 3.758 c -5.258 5.875 3.035 14.918 9.973 11.262 c 7.02 -3.695 5.145 -15.93 -3.469 -14.891 c -2.566 0.313 -4.793 1.711 -6.508 3.629" fill="#dcdcdc" fill-opacity="0.882"/><path d="m 9.289 12.184 c -0.352 -0.473 -0.988 -1.414 -0.988 -1.461 c 0 -0.027 -0.121 -0.25 -0.27 -0.488 c -0.313 -0.512 -0.496 -0.602 -0.785 -0.395 c -0.109 0.082 -0.555 0.32 -0.988 0.531 c -0.43 0.215 -0.824 0.418 -0.871 0.453 c -0.133 0.098 -0.758 0.316 -0.91 0.316 c -0.324 0 -0.023 -0.535 0.969 -1.723 c 0.273 -0.328 0.5 -0.648 0.5 -0.715 c 0 -0.066 -0.07 -0.152 -0.152 -0.199 c -0.215 -0.113 -0.215 -0.676 0 -0.867 c 0.242 -0.219 0.18 -0.379 -0.324 -0.805 c -1.156 -0.977 -1.578 -1.492 -1.223 -1.492 c 0.066 0 0.359 0.07 0.652 0.156 c 0.289 0.086 0.574 0.137 0.629 0.117 c 0.059 -0.023 0.113 -0.168 0.125 -0.328 l 0.023 -0.285 l 0.438 -0.023 c 0.664 -0.035 1.453 0.156 1.879 0.453 c 0.18 0.129 0.383 0.074 0.383 -0.105 c 0 -0.09 0.668 -1.242 0.898 -1.551 c 0.227 -0.301 0.449 -0.32 0.52 -0.043 c 0.027 0.113 0.031 0.852 0.004 1.648 c -0.035 1.051 -0.023 1.465 0.043 1.531 c 0.047 0.047 0.215 0.086 0.367 0.086 c 0.215 0 0.367 0.07 0.645 0.301 c 0.199 0.164 0.469 0.32 0.598 0.348 c 0.336 0.07 0.957 0.395 1 0.523 c 0.09 0.227 -0.113 0.313 -0.844 0.363 c -0.395 0.027 -0.773 0.07 -0.84 0.098 c -0.152 0.059 -0.098 0.348 0.117 0.645 c 0.082 0.113 0.148 0.254 0.148 0.316 c 0 0.188 -0.297 0.406 -0.625 0.461 c -0.512 0.086 -0.59 0.227 -0.59 1.074 c -0.004 1.313 -0.137 1.586 -0.531 1.059 m 0 -7.484 c 0 -0.063 -0.016 -0.113 -0.031 -0.113 c -0.016 0 -0.051 0.051 -0.074 0.113 c -0.023 0.063 -0.012 0.113 0.031 0.113 c 0.039 0 0.074 -0.051 0.074 -0.113" fill="#ffd600"/><path d="m 9.355 12.184 c -0.352 -0.473 -0.988 -1.414 -0.988 -1.461 c 0 -0.027 -0.121 -0.25 -0.27 -0.488 c -0.313 -0.512 -0.496 -0.602 -0.785 -0.395 c -0.109 0.082 -0.555 0.32 -0.984 0.531 c -0.434 0.215 -0.828 0.418 -0.875 0.453 c -0.133 0.098 -0.758 0.316 -0.906 0.316 c -0.324 0 -0.023 -0.535 0.965 -1.723 c 0.277 -0.328 0.5 -0.645 0.5 -0.707 c 0 -0.059 -0.07 -0.168 -0.152 -0.242 c -0.199 -0.18 -0.199 -0.566 0 -0.793 c 0.238 -0.273 0.184 -0.414 -0.32 -0.844 c -1.16 -0.977 -1.582 -1.492 -1.227 -1.492 c 0.066 0 0.363 0.07 0.652 0.156 c 0.293 0.086 0.574 0.137 0.633 0.117 c 0.055 -0.023 0.125 -0.16 0.152 -0.309 c 0.043 -0.227 0.082 -0.266 0.25 -0.266 c 0.184 0.004 0.191 0.012 0.07 0.102 c -0.184 0.141 -0.184 0.773 0 0.973 c 0.191 0.211 0.348 1.625 0.199 1.793 c -0.152 0.172 -0.133 0.234 0.063 0.207 c 0.16 -0.023 0.172 -0.063 0.195 -0.813 c 0.031 -0.902 0.117 -1.16 0.406 -1.191 c 0.234 -0.027 1.02 0.23 1.203 0.395 c 0.141 0.129 0.23 0.086 0.23 -0.109 c 0 -0.203 -0.434 -0.797 -0.664 -0.902 c -0.133 -0.063 -0.172 -0.109 -0.105 -0.133 c 0.055 -0.02 0.215 0.023 0.352 0.098 c 0.215 0.113 0.277 0.121 0.375 0.039 c 0.066 -0.055 0.121 -0.133 0.121 -0.168 c 0 -0.094 0.664 -1.246 0.898 -1.555 c 0.227 -0.301 0.445 -0.32 0.516 -0.043 c 0.031 0.113 0.031 0.855 0.004 1.648 c -0.043 1.332 -0.035 1.457 0.09 1.57 c 0.074 0.066 0.254 0.125 0.395 0.125 c 0.145 0 0.32 0.059 0.41 0.141 c 0.191 0.176 0.727 0.461 0.863 0.461 c 0.168 0 0.855 0.375 0.902 0.492 c 0.086 0.227 -0.117 0.313 -0.848 0.363 c -0.395 0.027 -0.773 0.074 -0.84 0.098 c -0.152 0.059 -0.098 0.348 0.121 0.645 c 0.082 0.113 0.148 0.254 0.148 0.316 c 0 0.188 -0.301 0.406 -0.625 0.461 c -0.516 0.086 -0.59 0.227 -0.594 1.074 c 0 1.313 -0.137 1.586 -0.527 1.059 m -0.598 -2.895 c 0.258 -0.273 0.363 -0.336 0.516 -0.309 c 0.258 0.051 0.594 -0.199 0.625 -0.457 c 0.016 -0.145 0.094 -0.238 0.25 -0.313 c 0.313 -0.141 0.57 -0.387 0.57 -0.539 c 0 -0.195 -0.266 -0.387 -0.504 -0.359 c -0.145 0.016 -0.281 0.121 -0.441 0.34 c -0.129 0.172 -0.27 0.316 -0.313 0.32 c -0.043 0 -0.152 -0.164 -0.238 -0.375 c -0.121 -0.277 -0.203 -0.375 -0.32 -0.375 c -0.133 0 -0.16 0.047 -0.16 0.266 c 0 0.145 -0.039 0.328 -0.09 0.41 c -0.078 0.125 -0.066 0.176 0.074 0.324 c 0.094 0.098 0.168 0.199 0.168 0.223 c 0 0.023 -0.156 0.137 -0.344 0.246 c -0.445 0.258 -0.555 0.477 -0.375 0.746 c 0.07 0.109 0.156 0.195 0.191 0.195 c 0.035 0 0.211 -0.152 0.391 -0.344" fill="#8d68a8"/><path d="m 9.383 12.176 c -0.09 -0.133 -0.332 -0.48 -0.539 -0.77 c -0.203 -0.289 -0.449 -0.691 -0.547 -0.891 c -0.234 -0.484 -0.516 -0.805 -0.703 -0.805 c -0.086 0 -0.238 0.066 -0.348 0.148 c -0.105 0.086 -0.254 0.152 -0.328 0.152 c -0.074 0 -0.16 0.031 -0.184 0.074 c -0.023 0.039 -0.508 0.297 -1.074 0.57 c -0.934 0.449 -1.246 0.539 -1.246 0.352 c 0 -0.117 0.434 -0.719 1.059 -1.469 c 0.34 -0.402 0.613 -0.77 0.613 -0.816 c 0 -0.047 -0.082 -0.152 -0.188 -0.23 c -0.238 -0.188 -0.258 -0.57 -0.039 -0.816 c 0.082 -0.098 0.152 -0.242 0.152 -0.324 c 0 -0.156 -0.559 -0.738 -1.164 -1.215 c -0.375 -0.297 -0.637 -0.621 -0.563 -0.695 c 0.023 -0.023 0.258 0.012 0.52 0.074 c 0.508 0.129 0.754 0.273 0.461 0.273 c -0.211 0 -0.293 0.188 -0.156 0.352 c 0.117 0.145 0.676 0.504 0.715 0.461 c 0.016 -0.012 -0.059 -0.203 -0.16 -0.422 c -0.172 -0.352 -0.18 -0.406 -0.078 -0.508 c 0.063 -0.063 0.137 -0.23 0.164 -0.375 c 0.043 -0.219 0.082 -0.262 0.25 -0.258 c 0.184 0.004 0.191 0.012 0.066 0.102 c -0.18 0.141 -0.18 0.77 0 0.973 c 0.195 0.211 0.352 1.625 0.203 1.793 c -0.152 0.172 -0.133 0.234 0.063 0.207 c 0.16 -0.023 0.172 -0.066 0.195 -0.816 c 0.027 -0.898 0.117 -1.156 0.406 -1.191 c 0.234 -0.027 1.02 0.234 1.203 0.398 c 0.141 0.129 0.23 0.082 0.23 -0.109 c 0 -0.203 -0.434 -0.797 -0.664 -0.906 c -0.164 -0.078 -0.184 -0.105 -0.078 -0.129 c 0.074 -0.02 0.207 0.02 0.301 0.086 c 0.266 0.184 0.492 0.148 0.59 -0.09 c 0.172 -0.414 0.387 -0.77 0.461 -0.77 c 0.109 0 0.094 0.09 -0.059 0.301 c -0.137 0.195 -0.32 0.633 -0.348 0.828 c -0.012 0.121 0.082 0.129 0.426 0.039 c 0.203 -0.055 0.207 -0.047 0.207 0.25 c 0 0.168 0.039 0.398 0.086 0.516 l 0.086 0.211 l 0.059 -0.223 c 0.066 -0.246 0.191 -1.961 0.156 -2.148 c -0.031 -0.195 -0.145 -0.258 -0.27 -0.152 c -0.211 0.172 -0.211 0.023 0.004 -0.297 c 0.125 -0.188 0.258 -0.305 0.328 -0.289 c 0.105 0.02 0.121 0.223 0.121 1.656 c 0 0.895 0.023 1.652 0.055 1.684 c 0.027 0.027 0.215 0.07 0.418 0.094 c 0.277 0.027 0.449 0.109 0.715 0.328 c 0.195 0.16 0.41 0.293 0.477 0.293 c 0.176 0 1.027 0.395 1.063 0.492 c 0.09 0.23 -0.102 0.297 -0.895 0.324 c -0.902 0.027 -1.016 0.086 -0.863 0.434 c 0.055 0.121 0.16 0.313 0.238 0.426 c 0.129 0.191 0.133 0.223 0.023 0.387 c -0.078 0.117 -0.25 0.211 -0.496 0.27 c -0.629 0.148 -0.629 0.148 -0.652 1.211 c -0.027 1.254 -0.133 1.465 -0.473 0.957 m -0.621 -2.887 c 0.258 -0.273 0.363 -0.336 0.516 -0.309 c 0.258 0.051 0.594 -0.199 0.625 -0.457 c 0.016 -0.145 0.094 -0.238 0.25 -0.313 c 0.313 -0.141 0.57 -0.387 0.57 -0.539 c 0 -0.195 -0.266 -0.387 -0.504 -0.359 c -0.145 0.016 -0.281 0.121 -0.441 0.34 c -0.129 0.172 -0.27 0.316 -0.313 0.32 c -0.043 0 -0.152 -0.164 -0.238 -0.375 c -0.121 -0.277 -0.203 -0.375 -0.32 -0.375 c -0.133 0 -0.16 0.047 -0.16 0.266 c 0 0.145 -0.039 0.328 -0.09 0.41 c -0.078 0.125 -0.066 0.176 0.074 0.324 c 0.094 0.098 0.168 0.199 0.168 0.223 c 0 0.023 -0.156 0.137 -0.344 0.246 c -0.445 0.258 -0.555 0.477 -0.375 0.746 c 0.07 0.109 0.156 0.195 0.191 0.195 c 0.035 0 0.211 -0.152 0.391 -0.344 m -1.609 -1.84 c 0 -0.043 -0.035 -0.074 -0.078 -0.074 c -0.043 0 -0.074 0.031 -0.074 0.074 c 0 0.039 0.031 0.074 0.074 0.074 c 0.043 0 0.078 -0.035 0.078 -0.074 m 0.563 -0.426 c 0.156 -0.059 0.016 -0.254 -0.184 -0.254 c -0.074 0 -0.176 -0.051 -0.227 -0.113 c -0.121 -0.141 -0.305 -0.145 -0.305 -0.008 c 0 0.082 0.336 0.32 0.582 0.418 c 0.008 0.004 0.066 -0.016 0.133 -0.043" fill="#5b569c"/><path d="m 9.379 12.05 l -0.156 -0.211 h 0.258 c 0.234 0 0.258 0.02 0.238 0.184 c -0.031 0.266 -0.156 0.273 -0.34 0.027 m -0.742 -1.121 c -0.117 -0.23 -0.434 -0.645 -0.699 -0.91 c -0.266 -0.27 -0.484 -0.531 -0.484 -0.582 c 0 -0.125 0.375 -0.816 0.484 -0.895 c 0.051 -0.035 0.008 -0.043 -0.102 -0.016 c -0.105 0.027 -0.469 0.074 -0.809 0.109 c -0.336 0.031 -0.656 0.082 -0.703 0.113 c -0.055 0.031 -0.207 -0.027 -0.355 -0.141 c -0.313 -0.238 -0.355 -0.59 -0.109 -0.871 c 0.176 -0.203 0.188 -0.344 0.043 -0.602 c -0.074 -0.133 -0.086 -0.227 -0.031 -0.324 c 0.055 -0.105 0.043 -0.176 -0.047 -0.277 c -0.23 -0.25 -0.273 -0.586 -0.133 -1.027 c 0.109 -0.348 0.156 -0.406 0.32 -0.402 c 0.172 0 0.176 0.008 0.055 0.102 c -0.184 0.137 -0.184 0.77 0 0.969 c 0.195 0.211 0.352 1.625 0.203 1.797 c -0.152 0.168 -0.133 0.234 0.063 0.203 c 0.16 -0.02 0.168 -0.063 0.195 -0.813 c 0.027 -0.902 0.117 -1.16 0.406 -1.191 c 0.234 -0.027 1.02 0.23 1.203 0.398 c 0.141 0.125 0.23 0.082 0.23 -0.113 c 0 -0.199 -0.434 -0.793 -0.664 -0.906 c -0.168 -0.078 -0.184 -0.105 -0.078 -0.129 c 0.07 -0.016 0.207 0.023 0.301 0.09 c 0.094 0.063 0.242 0.117 0.324 0.121 c 0.16 0 0.574 0.555 0.574 0.766 c 0 0.059 0.117 0.211 0.266 0.34 c 0.145 0.129 0.266 0.305 0.266 0.391 c 0 0.184 0.207 0.211 0.332 0.047 c 0.066 -0.086 0.188 -0.102 0.508 -0.066 c 0.344 0.035 0.484 0.098 0.758 0.332 c 0.289 0.242 0.328 0.309 0.258 0.426 c -0.047 0.074 -0.133 0.219 -0.191 0.32 c -0.059 0.102 -0.176 0.242 -0.258 0.313 c -0.141 0.117 -0.141 0.148 -0.043 0.418 c 0.055 0.16 0.172 0.383 0.254 0.492 c 0.145 0.191 0.145 0.219 0.031 0.391 c -0.082 0.121 -0.246 0.211 -0.508 0.273 c -0.215 0.051 -0.488 0.176 -0.605 0.273 c -0.117 0.098 -0.23 0.18 -0.25 0.18 c -0.02 0 -0.133 -0.137 -0.246 -0.301 c -0.117 -0.168 -0.254 -0.301 -0.301 -0.301 c -0.16 0 -0.5 0.414 -0.5 0.609 c 0 0.105 0.086 0.305 0.191 0.445 c 0.195 0.262 0.234 0.375 0.129 0.375 c -0.031 0 -0.156 -0.191 -0.277 -0.426 m 0.125 -1.574 c 0.258 -0.277 0.363 -0.34 0.516 -0.309 c 0.258 0.047 0.594 -0.199 0.625 -0.461 c 0.016 -0.141 0.094 -0.238 0.25 -0.309 c 0.313 -0.145 0.57 -0.387 0.57 -0.539 c 0 -0.199 -0.266 -0.391 -0.504 -0.363 c -0.148 0.016 -0.285 0.121 -0.441 0.34 c -0.129 0.176 -0.27 0.316 -0.313 0.32 c -0.043 0.004 -0.152 -0.164 -0.242 -0.371 c -0.117 -0.281 -0.199 -0.379 -0.316 -0.379 c -0.133 0 -0.16 0.047 -0.16 0.266 c 0 0.145 -0.039 0.332 -0.09 0.41 c -0.078 0.125 -0.066 0.176 0.074 0.324 c 0.094 0.098 0.168 0.199 0.168 0.223 c 0 0.027 -0.156 0.137 -0.348 0.246 c -0.441 0.258 -0.551 0.477 -0.375 0.746 c 0.074 0.109 0.16 0.199 0.195 0.199 c 0.035 0 0.211 -0.156 0.391 -0.344 m -1.336 -1.77 c 0.195 -0.066 0.484 -0.43 0.484 -0.602 c 0 -0.098 -0.77 -0.465 -0.879 -0.422 c -0.086 0.035 -0.137 0.906 -0.055 1.043 c 0.043 0.078 0.188 0.074 0.449 -0.02 m -2.859 3.406 c 0 -0.074 0.07 -0.203 0.152 -0.277 c 0.148 -0.133 0.156 -0.133 0.262 0.008 c 0.059 0.078 0.102 0.148 0.094 0.152 c -0.008 0.008 -0.125 0.066 -0.262 0.137 c -0.234 0.117 -0.246 0.117 -0.246 -0.02 m 7.34 -2.566 c -0.063 -0.102 0.242 -0.332 0.371 -0.285 c 0.176 0.066 0.141 0.254 -0.055 0.305 c -0.227 0.063 -0.27 0.059 -0.316 -0.02 m -7.379 -2.57 c -0.238 -0.246 -0.219 -0.348 0.055 -0.273 c 0.297 0.078 0.383 0.168 0.328 0.34 c -0.066 0.211 -0.121 0.203 -0.383 -0.066 m 5 -1.766 c -0.125 -0.066 -0.145 -0.117 -0.09 -0.219 c 0.121 -0.211 0.293 -0.152 0.293 0.098 c 0 0.125 -0.008 0.227 -0.02 0.219 c -0.008 -0.004 -0.09 -0.047 -0.184 -0.098" fill="#ff8c00"/><path d="m 9.379 11.988 l -0.156 -0.215 h 0.258 c 0.234 0 0.258 0.023 0.238 0.188 c -0.031 0.266 -0.156 0.273 -0.34 0.027 m -0.742 -1.121 c -0.117 -0.234 -0.434 -0.645 -0.699 -0.914 c -0.266 -0.27 -0.484 -0.527 -0.484 -0.582 c 0 -0.121 0.375 -0.813 0.484 -0.891 c 0.051 -0.039 0.008 -0.043 -0.102 -0.016 c -0.105 0.023 -0.469 0.074 -0.809 0.105 c -0.336 0.035 -0.652 0.086 -0.699 0.113 c -0.051 0.031 -0.164 0.004 -0.258 -0.063 c -0.094 -0.063 -0.137 -0.117 -0.102 -0.117 c 0.039 0 0.031 -0.039 -0.02 -0.09 c -0.141 -0.141 -0.109 -0.188 0.117 -0.156 c 0.531 0.066 1.441 -0.188 0.941 -0.266 c -0.262 -0.043 -0.301 -0.176 -0.258 -0.906 c 0.051 -0.824 0.078 -0.848 0.676 -0.66 c 0.461 0.141 0.598 0.301 0.676 0.777 c 0.055 0.344 0.188 0.441 0.188 0.137 c 0 -0.242 0.125 -0.313 0.227 -0.125 c 0.113 0.211 0.098 0.414 -0.051 0.676 c -0.125 0.211 -0.125 0.234 -0.004 0.367 c 0.125 0.137 0.117 0.152 -0.191 0.367 c -0.176 0.125 -0.371 0.32 -0.434 0.438 c -0.105 0.203 -0.102 0.219 0.152 0.426 c 0.145 0.121 0.316 0.219 0.379 0.219 c 0.063 0 0.262 -0.137 0.441 -0.309 c 0.289 -0.281 0.34 -0.305 0.512 -0.23 c 0.16 0.074 0.203 0.063 0.281 -0.063 c 0.063 -0.102 0.176 -0.148 0.344 -0.148 c 0.223 0 0.242 -0.016 0.172 -0.148 c -0.129 -0.238 -0.09 -0.379 0.129 -0.473 c 0.117 -0.051 0.32 -0.172 0.457 -0.273 c 0.199 -0.145 0.246 -0.23 0.246 -0.453 v -0.27 l 0.172 0.168 c 0.133 0.133 0.152 0.195 0.086 0.301 c -0.043 0.07 -0.129 0.215 -0.188 0.316 c -0.059 0.105 -0.168 0.234 -0.242 0.289 c -0.184 0.137 -0.133 0.621 0.09 0.922 c 0.199 0.27 0.117 0.496 -0.203 0.57 c -0.574 0.125 -0.789 0.195 -0.746 0.234 c 0.047 0.051 -0.172 0.324 -0.262 0.324 c -0.027 0 -0.148 -0.137 -0.262 -0.305 c -0.117 -0.164 -0.254 -0.301 -0.301 -0.301 c -0.16 0 -0.5 0.418 -0.5 0.613 c 0 0.102 0.086 0.301 0.191 0.441 c 0.195 0.266 0.234 0.379 0.129 0.379 c -0.031 0 -0.156 -0.191 -0.277 -0.426 m -1.211 -3.344 c 0.195 -0.066 0.484 -0.43 0.484 -0.605 c 0 -0.094 -0.77 -0.461 -0.879 -0.418 c -0.086 0.031 -0.137 0.906 -0.055 1.043 c 0.043 0.078 0.188 0.07 0.449 -0.02 m -2.859 3.406 c 0 -0.078 0.07 -0.203 0.152 -0.277 c 0.148 -0.133 0.156 -0.133 0.262 0.008 c 0.059 0.078 0.102 0.148 0.094 0.152 c -0.008 0.004 -0.125 0.066 -0.262 0.133 c -0.234 0.121 -0.246 0.117 -0.246 -0.016 m 7.34 -2.566 c -0.063 -0.102 0.242 -0.336 0.371 -0.285 c 0.176 0.066 0.141 0.25 -0.055 0.305 c -0.227 0.059 -0.27 0.059 -0.316 -0.02 m -5.953 -0.551 c 0.035 -0.113 0.211 -0.176 0.211 -0.074 c 0 0.039 -0.055 0.094 -0.121 0.117 c -0.074 0.027 -0.109 0.012 -0.09 -0.043 m 3.367 -0.531 c -0.063 -0.094 -0.117 -0.211 -0.117 -0.262 c 0 -0.055 -0.121 -0.145 -0.266 -0.207 c -0.266 -0.109 -0.434 -0.367 -0.363 -0.551 c 0.02 -0.051 -0.039 -0.211 -0.133 -0.359 c -0.094 -0.148 -0.148 -0.293 -0.121 -0.316 c 0.027 -0.027 0.055 -0.031 0.07 -0.016 c 0.305 0.441 0.434 0.664 0.434 0.758 c 0 0.063 0.117 0.219 0.266 0.348 c 0.145 0.129 0.266 0.305 0.266 0.391 c 0 0.184 0.262 0.219 0.332 0.043 c 0.043 -0.117 0.277 -0.16 0.277 -0.051 c 0 0.09 -0.34 0.391 -0.438 0.391 c -0.051 0 -0.141 -0.074 -0.207 -0.168 m -3.441 -0.234 c -0.055 -0.113 -0.055 -0.219 -0.004 -0.305 c 0.055 -0.098 0.039 -0.172 -0.051 -0.27 c -0.184 -0.199 -0.293 -0.652 -0.199 -0.813 c 0.063 -0.105 0.078 -0.059 0.078 0.211 c 0.004 0.273 0.043 0.379 0.195 0.508 c 0.141 0.125 0.188 0.238 0.188 0.461 c 0 0.352 -0.098 0.449 -0.207 0.207 m -1.348 -1.254 c -0.238 -0.246 -0.219 -0.348 0.051 -0.277 c 0.297 0.082 0.383 0.168 0.328 0.34 c -0.066 0.215 -0.121 0.203 -0.379 -0.063 m 5 -1.766 c -0.125 -0.07 -0.148 -0.121 -0.094 -0.219 c 0.121 -0.211 0.293 -0.156 0.293 0.098 c 0 0.125 -0.008 0.223 -0.02 0.219 c -0.008 -0.004 -0.09 -0.047 -0.18 -0.098" fill="#5f434f"/><path d="m 9.473 9.906 c -0.145 -0.148 -0.301 -0.273 -0.348 -0.273 c -0.051 0 -0.191 0.086 -0.316 0.191 c -0.305 0.254 -0.492 0.234 -0.793 -0.082 c -0.332 -0.348 -0.328 -0.48 0.004 -0.23 c 0.145 0.109 0.305 0.199 0.363 0.199 c 0.055 0 0.246 -0.141 0.426 -0.313 c 0.293 -0.281 0.344 -0.305 0.512 -0.23 c 0.16 0.074 0.203 0.063 0.281 -0.063 c 0.063 -0.102 0.176 -0.148 0.344 -0.148 c 0.227 0 0.242 -0.016 0.172 -0.148 c -0.129 -0.238 -0.09 -0.379 0.133 -0.473 c 0.113 -0.047 0.266 -0.137 0.34 -0.199 c 0.188 -0.152 0.168 0.012 -0.02 0.18 c -0.082 0.074 -0.152 0.184 -0.152 0.238 c 0 0.059 0.07 0.207 0.152 0.328 c 0.086 0.125 0.223 0.324 0.309 0.449 c 0.188 0.277 0.102 0.504 -0.215 0.574 c -0.34 0.074 -0.656 0.16 -0.797 0.219 c -0.098 0.039 -0.207 -0.02 -0.395 -0.219 m -1.031 -1.52 c 0 -0.066 0.035 -0.098 0.078 -0.07 c 0.043 0.027 0.059 0.078 0.035 0.117 c -0.066 0.105 -0.113 0.086 -0.113 -0.047 m -2.531 -0.008 c -0.113 -0.113 -0.02 -0.141 0.574 -0.156 c 0.613 -0.02 0.914 -0.121 0.621 -0.211 c -0.297 -0.094 -0.371 -0.168 -0.391 -0.383 c -0.016 -0.199 -0.012 -0.203 0.055 -0.047 c 0.059 0.141 0.133 0.168 0.422 0.168 c 0.438 0 0.598 -0.082 0.719 -0.371 c 0.102 -0.242 0.23 -0.242 0.23 0 c 0 0.078 0.031 0.145 0.074 0.145 c 0.043 0 0.078 -0.082 0.078 -0.184 c 0 -0.242 0.121 -0.309 0.223 -0.125 c 0.203 0.379 -0.039 0.883 -0.449 0.934 c -0.148 0.02 -0.406 0.09 -0.574 0.156 c -0.305 0.117 -1.48 0.172 -1.582 0.074 m 0.043 -0.566 c 0.035 -0.113 0.211 -0.176 0.211 -0.074 c 0 0.039 -0.055 0.094 -0.121 0.117 c -0.074 0.027 -0.109 0.012 -0.09 -0.043 m 2.676 -1.199 c -0.027 -0.043 -0.031 -0.094 -0.012 -0.113 c 0.02 -0.02 0.055 0.016 0.082 0.078 c 0.051 0.133 0.008 0.156 -0.07 0.035" fill="#ff121a"/></svg>