<svg xmlns="http://www.w3.org/2000/svg" viewBox="0 0 16 16"><defs><clipPath id="0"><path d="m 6 3 h 4 v 7 h -4"/></clipPath><clipPath id="1"><path d="m 19.05 7.824 c 0 5.824 -4.895 10.543 -10.922 10.543 c -6.03 0 -10.922 -4.719 -10.922 -10.543 c 0 -5.82 4.891 -10.539 10.922 -10.539 c 6.03 0 10.922 4.719 10.922 10.539"/></clipPath><clipPath id="2"><path d="m 4 7 h 8 v 6 h -8"/></clipPath></defs><path d="m 13.1 14.266 c -9.594 7.383 -19.559 -11 -7.676 -13.691 c 7.48 -2.758 14.789 8.219 7.676 13.691" fill="#d45400"/><g clip-path="url(#0)"><g clip-path="url(#1)"><path d="m 8.05 3.406 c 1.051 0 1.902 0.82 1.902 1.836 v 2.746 c 0 1.012 -0.852 1.832 -1.902 1.832 c -1.047 0 -1.898 -0.82 -1.898 -1.832 v -2.746 c 0 -1.016 0.852 -1.836 1.898 -1.836" fill="#f9f9f9"/></g></g><g clip-path="url(#2)"><g clip-path="url(#1)"><path d="m 4.727 7.531 c 0 0 0 3.359 2.852 3.352 v 0.773 h -0.949 v 0.766 h 2.848 v -0.766 h -0.949 v -0.773 c 2.848 0.027 2.848 -3.352 2.848 -3.352 h -0.672 c 0 0 0 2.746 -2.656 2.746 c -2.656 0 -2.656 -2.746 -2.656 -2.746" fill="#f9f9f9"/></g></g></svg>