<svg xmlns="http://www.w3.org/2000/svg" viewBox="0 0 16 16"><path d="m 12.18 3.551 h -8.02 c -0.422 0 -0.762 0.156 -0.762 0.355 v 8.641 c 0 0.195 0.34 0.355 0.762 0.355 h 8.02 c 0.422 0 0.762 -0.16 0.762 -0.355 v -8.641 c 0 -0.199 -0.34 -0.355 -0.762 -0.355" fill="#fff"/><path d="m 216.73 149.83 c 0 41.3 -33.36 74.77 -74.47 74.77 c -41.12 0 -74.42 -33.474 -74.42 -74.77 c 0 -41.25 33.31 -74.72 74.42 -74.72 c 41.12 0 74.47 33.474 74.47 74.72" transform="matrix(0.07705 0 0 0.07935 -2.856 -3.644)" fill="#121a1a" stroke="#a42929" stroke-width="2.056"/><g fill="#36545b"><path d="m 7.871 15.781 c -3.707 -0.652 -7.06 -3.848 -7.609 -7.234 c -0.125 -0.789 -0.051 -2.168 0.156 -2.863 c 0.625 -2.098 2.074 -3.887 3.926 -4.844 c 1.84 -0.949 3.707 -1.035 5.688 -0.254 c 2.363 0.93 4.543 3.207 5.453 5.699 c 0.371 1.012 0.523 1.824 0.523 2.809 c 0 0.949 -0.07 1.434 -0.316 2.176 c -0.77 2.324 -2.832 4.094 -5.254 4.52 c -0.656 0.113 -1.891 0.109 -2.566 -0.008 m -0.285 -6.523 c 0 -2.105 -0.012 -2.527 -0.09 -2.629 c -0.07 -0.09 -0.094 -0.309 -0.098 -0.828 v -0.703 l -0.301 -0.191 c -0.766 -0.492 -1.539 -0.727 -2.414 -0.734 l -0.602 -0.004 l -0.016 0.727 c -0.012 0.398 -0.047 0.754 -0.078 0.785 c -0.039 0.039 -0.063 1.063 -0.063 2.629 v 2.566 l 0.711 0.039 c 0.84 0.043 1.238 0.152 1.879 0.5 c 0.914 0.5 0.898 0.492 0.988 0.418 c 0.066 -0.055 0.082 -0.57 0.082 -2.574 m 0.617 0.004 l 0.016 -2.543 l -0.141 0.02 l -0.145 0.02 l -0.016 2.398 c -0.012 1.32 -0.004 2.465 0.02 2.547 c 0.02 0.094 0.07 0.137 0.141 0.125 c 0.102 -0.02 0.109 -0.219 0.125 -2.566 m 4.04 2.059 l -0.02 -0.27 l -1.781 -0.016 l -1.785 -0.016 v 0.57 h 3.605 m -0.004 -1.074 v -0.254 h -3.602 v 0.504 h 3.602 m -1.578 -1.07 v -0.254 h -2.023 v 0.504 h 2.023 m 0 -1.01 v -0.254 h -2.023 v 0.504 h 2.023 m 0 -1.07 v -0.254 h -2.023 v 0.504 h 2.023 m 1.578 -1.01 v -0.254 h -3.602 v 0.504 h 3.602"/><path d="m 7.242 5.504 c -0.082 -0.133 -1.031 -0.555 -1.539 -0.684 c -0.32 -0.082 -0.734 -0.133 -1.031 -0.133 c -0.48 0 -0.496 -0.008 -0.477 -0.145 c 0.02 -0.133 0.047 -0.141 0.555 -0.137 c 0.613 0.004 1.176 0.137 1.77 0.41 c 0.559 0.262 0.883 0.496 0.883 0.637 c 0 0.125 -0.094 0.156 -0.16 0.051"/><path d="m 7.02 6.094 c -0.617 -0.371 -1.645 -0.648 -2.406 -0.648 h -0.441 l 0.02 -0.176 l 0.02 -0.172 l 0.535 0.004 c 0.656 0.004 1.199 0.141 1.863 0.465 c 0.629 0.309 0.809 0.449 0.781 0.613 c -0.023 0.117 -0.043 0.113 -0.371 -0.086"/></g></svg>