<svg xmlns="http://www.w3.org/2000/svg" viewBox="0 0 16 16"><defs><linearGradient id="3" gradientUnits="userSpaceOnUse" x1="13.04" x2="34.949"><stop stop-color="#4f535c"/><stop offset="1" stop-color="#9ca1a8" stop-opacity="0.612"/></linearGradient><linearGradient id="2" gradientUnits="userSpaceOnUse" x1="13.04" x2="34.949"><stop stop-color="#ccc"/><stop offset="1" stop-color="#e8e8e8"/></linearGradient><linearGradient id="0" gradientUnits="userSpaceOnUse" y1="-44.41" x2="0" y2="-4.363" gradientTransform="matrix(0.20785 0 0 -0.20648 3.01 3.823)"><stop stop-color="#000" stop-opacity="0.451"/><stop offset="1" stop-color="#000" stop-opacity="0.265"/></linearGradient><linearGradient id="1" gradientUnits="userSpaceOnUse" x1="5" x2="90" gradientTransform="matrix(0.10207 0 0 0.09989 3.232 4.049)"><stop stop-color="#8c8c8c"/><stop offset="1" stop-color="#f4f4f4"/></linearGradient></defs><g fill="#fff"><path d="m 4.266 7.48 c -0.09 -0.094 -0.813 -1.855 -0.82 -2 c -0.008 -0.176 0.652 -0.648 1.461 -1.047 c 1.828 -0.902 4.289 -0.914 6.18 -0.023 c 0.547 0.258 1.508 0.863 1.59 1 c 0.023 0.043 -0.145 0.535 -0.375 1.098 c -0.23 0.563 -0.426 1.031 -0.434 1.039 c -0.012 0.012 -0.551 -0.164 -1.199 -0.391 l -1.184 -0.41 l -0.008 -0.77 l -0.008 -0.773 l -0.402 -0.074 c -0.453 -0.09 -1.703 -0.086 -2.125 0.004 l -0.277 0.059 v 0.77 l 0.004 0.77 l -1.18 0.398 c -0.648 0.219 -1.199 0.375 -1.223 0.352"/><g fill-rule="evenodd"><path d="m 10.234 7.758 h -0.766 c -0.199 0 -0.363 0.207 -0.363 0.461 v 0.242 c 0 0.254 0.164 0.461 0.363 0.461 h 0.766 c 0.203 0 0.367 -0.207 0.367 -0.461 v -0.242 c 0 -0.254 -0.164 -0.461 -0.367 -0.461"/><path d="m 8.504 7.746 h -0.766 c -0.199 0 -0.363 0.207 -0.363 0.461 v 0.246 c 0 0.254 0.164 0.461 0.363 0.461 h 0.766 c 0.203 0 0.363 -0.207 0.363 -0.461 v -0.246 c 0 -0.254 -0.16 -0.461 -0.363 -0.461"/><path d="m 6.785 7.727 h -0.77 c -0.199 0 -0.363 0.207 -0.363 0.465 v 0.242 c 0 0.254 0.164 0.461 0.363 0.461 h 0.77 c 0.199 0 0.363 -0.207 0.363 -0.461 v -0.242 c 0 -0.258 -0.164 -0.465 -0.363 -0.465"/><path d="m 10.227 9.238 h -0.766 c -0.199 0 -0.363 0.207 -0.363 0.461 v 0.246 c 0 0.254 0.164 0.461 0.363 0.461 h 0.766 c 0.199 0 0.363 -0.207 0.363 -0.461 v -0.246 c 0 -0.254 -0.164 -0.461 -0.363 -0.461"/><path d="m 8.496 9.23 h -0.766 c -0.203 0 -0.363 0.207 -0.363 0.461 v 0.242 c 0 0.258 0.16 0.465 0.363 0.465 h 0.766 c 0.199 0 0.363 -0.207 0.363 -0.465 v -0.242 c 0 -0.254 -0.164 -0.461 -0.363 -0.461"/><path d="m 6.773 9.211 h -0.766 c -0.199 0 -0.363 0.207 -0.363 0.461 v 0.242 c 0 0.258 0.164 0.465 0.363 0.465 h 0.766 c 0.203 0 0.363 -0.207 0.363 -0.465 v -0.242 c 0 -0.254 -0.16 -0.461 -0.363 -0.461"/><path d="m 10.234 10.723 h -0.766 c -0.203 0 -0.363 0.207 -0.363 0.461 v 0.242 c 0 0.254 0.16 0.461 0.363 0.461 h 0.766 c 0.199 0 0.363 -0.207 0.363 -0.461 v -0.242 c 0 -0.254 -0.164 -0.461 -0.363 -0.461"/><path d="m 8.504 10.715 h -0.77 c -0.199 0 -0.363 0.203 -0.363 0.461 v 0.242 c 0 0.254 0.164 0.461 0.363 0.461 h 0.77 c 0.199 0 0.363 -0.207 0.363 -0.461 v -0.242 c 0 -0.258 -0.164 -0.461 -0.363 -0.461"/><path d="m 6.785 10.691 h -0.77 c -0.199 0 -0.363 0.207 -0.363 0.465 v 0.242 c 0 0.254 0.164 0.461 0.363 0.461 h 0.77 c 0.199 0 0.363 -0.207 0.363 -0.461 v -0.242 c 0 -0.258 -0.164 -0.465 -0.363 -0.465"/></g></g><path d="m 15.871 8.277 c 1.398 6.996 -8.184 9.652 -13.387 6.621 c -4.145 -2.414 -2.961 -10.688 2.637 -13.773 c 5.594 -3.086 9.629 1.539 10.75 7.152" fill="#dcdcdc"/><path d="m 4.438 13.01 h 7.125 c 0.328 0 0.594 -0.266 0.594 -0.59 v -7.082 c 0 -0.324 -0.266 -0.59 -0.594 -0.59 h -7.125 c -0.328 0 -0.594 0.266 -0.594 0.59 v 7.082 c 0 0.324 0.266 0.59 0.594 0.59" fill="url(#0)"/><path d="m 4.457 4.648 h 7.348 c 0.34 0 0.613 0.27 0.613 0.602 v 7.191 c 0 0.328 -0.273 0.598 -0.613 0.598 h -7.348 c -0.34 0 -0.613 -0.27 -0.613 -0.598 v -7.191 c 0 -0.332 0.273 -0.602 0.613 -0.602" fill="url(#1)"/><path d="m 23.995 13.04 c -6.05 0 -10.956 4.919 -10.956 10.954 c 0 6.05 4.905 10.954 10.956 10.954 c 6.05 0 10.956 -4.9 10.956 -10.954 c 0 -6.03 -4.905 -10.954 -10.956 -10.954" transform="matrix(0.20785 0 0 0.20648 3.01 3.823)" fill="url(#2)" stroke="url(#3)"/><path d="m 8 10.598 c -0.656 0.008 -1.27 -0.34 -1.602 -0.902 c -0.332 -0.566 -0.332 -1.266 0 -1.832 c 0.332 -0.566 0.945 -0.91 1.602 -0.902 c 1 0.008 1.813 0.82 1.813 1.816 c 0 1 -0.809 1.809 -1.813 1.82" fill="#161616"/><path d="m 8 10.328 c -0.566 0.012 -1.094 -0.281 -1.379 -0.766 c -0.285 -0.484 -0.285 -1.086 0 -1.57 c 0.285 -0.484 0.813 -0.773 1.379 -0.762 c 0.848 0.02 1.523 0.707 1.523 1.547 c 0 0.844 -0.676 1.531 -1.523 1.551" fill="#333"/><path d="m 8 10.03 c -0.695 0 -1.258 -0.559 -1.258 -1.25 c 0 -0.688 0.563 -1.25 1.258 -1.25 c 0.695 0 1.258 0.562 1.258 1.25 c 0 0.691 -0.563 1.25 -1.258 1.25" fill="#4c4c4c"/><path d="m 8 9.738 c -0.531 0 -0.965 -0.43 -0.965 -0.961 c 0 -0.527 0.434 -0.957 0.965 -0.957 c 0.535 0 0.965 0.43 0.965 0.957 c 0 0.531 -0.43 0.961 -0.965 0.961" fill="#191919"/><path d="m 8 9.582 c -0.293 0.004 -0.563 -0.148 -0.711 -0.398 c -0.148 -0.25 -0.148 -0.559 0 -0.813 c 0.148 -0.25 0.418 -0.402 0.711 -0.395 c 0.441 0.004 0.797 0.363 0.797 0.801 c 0 0.441 -0.355 0.797 -0.797 0.805"/><path d="m 8.371 8.754 c -0.188 0 -0.34 -0.148 -0.34 -0.336 c 0 -0.188 0.152 -0.336 0.34 -0.336 c 0.188 0 0.34 0.148 0.34 0.336 c 0 0.188 -0.152 0.336 -0.34 0.336" fill="#f9f9f9"/></svg>