<svg xmlns="http://www.w3.org/2000/svg" xmlns:xlink="http://www.w3.org/1999/xlink" viewBox="0 0 16 16"><defs><g id="5" clip-path="url(#4)"><path d="m 11.844 6.355 l 0.004 3.668 l -3.422 1.836 l -3.418 -1.832 l -0.004 -3.668 l 3.422 -1.836"/><path d="m 8.168 5.746 v 4.891 h 0.512 v -4.891"/><path d="m 9.277 9.566 c 0 0.254 -0.379 0.457 -0.852 0.457 c -0.477 0 -0.855 -0.203 -0.855 -0.457 c 0 -0.254 0.379 -0.457 0.855 -0.457 c 0.473 0 0.852 0.203 0.852 0.457"/><path d="m 6.801 10.332 v -4.281 h -0.516 v 4.281"/><path d="m 7.398 7.426 c 0 0.254 -0.383 0.461 -0.855 0.461 c -0.473 0 -0.855 -0.207 -0.855 -0.461 c 0 -0.254 0.383 -0.457 0.855 -0.457 c 0.473 0 0.855 0.203 0.855 0.457"/><path d="m 10.563 10.332 v -4.281 h -0.516 v 4.281"/><path d="m 11.16 7.426 c 0 0.254 -0.383 0.461 -0.855 0.461 c -0.473 0 -0.855 -0.207 -0.855 -0.461 c 0 -0.254 0.383 -0.457 0.855 -0.457 c 0.473 0 0.855 0.203 0.855 0.457"/></g><clipPath id="8"><path d="m 7 8 h 2 v 2 h -2"/></clipPath><clipPath id="C"><path d="m 9 6 h 2 v 2 h -2"/></clipPath><clipPath id="9"><path d="m 5 5 h 2 v 6 h -2"/></clipPath><clipPath id="B"><path d="m 9 5 h 2 v 6 h -2"/></clipPath><clipPath id="A"><path d="m 5 6 h 3 v 2 h -3"/></clipPath><clipPath id="7"><path d="m 7 5 h 2 v 6 h -2"/></clipPath><clipPath id="0"><path d="m 0 0 h 16 v 15 h -16"/></clipPath><clipPath id="6"><path d="m 4 4 h 8 v 8 h -8"/></clipPath><clipPath id="1"><path d="m 15.949 7.887 c 0 3.883 -3.523 7.03 -7.867 7.03 c -4.344 0 -7.867 -3.145 -7.867 -7.03 c 0 -3.887 3.523 -7.03 7.867 -7.03 c 4.344 0 7.867 3.145 7.867 7.03"/></clipPath><clipPath id="4"><path d="M 0,0 H16 V16 H0 z"/></clipPath><filter id="2" filterUnits="objectBoundingBox" x="0" y="0" width="16" height="16"><feColorMatrix type="matrix" in="SourceGraphic" values="0 0 0 0 1 0 0 0 0 1 0 0 0 0 1 0 0 0 1 0"/></filter><mask id="3"><g filter="url(#2)"><path fill-opacity="0.102" d="M 0,0 H16 V16 H0 z"/></g></mask></defs><path d="m 3.297 14.438 c 12.03 8 19.438 -17.504 3.891 -14.13 c -6.43 1.441 -10.328 10.465 -3.891 14.13" fill="#ffd6b9"/><g clip-path="url(#0)"><g clip-path="url(#1)"><use xlink:href="#5" mask="url(#3)"/></g></g><g clip-path="url(#6)"><g clip-path="url(#1)"><path d="m 11.504 6.05 v 3.668 l -3.418 1.832 l -3.422 -1.832 v -3.664 l 3.418 -1.836" fill="#7f0000"/></g></g><g clip-path="url(#7)"><g clip-path="url(#1)"><path d="m 7.824 5.441 v 4.891 h 0.516 v -4.891" fill="#ffd6b9"/></g></g><g clip-path="url(#8)"><g clip-path="url(#1)"><path d="m 8.938 9.262 c 0 0.25 -0.383 0.457 -0.855 0.457 c -0.473 0 -0.855 -0.207 -0.855 -0.457 c 0 -0.254 0.383 -0.461 0.855 -0.461 c 0.473 0 0.855 0.207 0.855 0.461" fill="#ffd6b9"/></g></g><g clip-path="url(#9)"><g clip-path="url(#1)"><path d="m 6.457 10.02 v -4.277 h -0.512 v 4.277" fill="#ffd6b9"/></g></g><g clip-path="url(#A)"><g clip-path="url(#1)"><path d="m 7.05 7.121 c 0 0.254 -0.383 0.457 -0.855 0.457 c -0.473 0 -0.855 -0.203 -0.855 -0.457 c 0 -0.254 0.383 -0.457 0.855 -0.457 c 0.473 0 0.855 0.203 0.855 0.457" fill="#ffd6b9"/></g></g><g clip-path="url(#B)"><g clip-path="url(#1)"><path d="m 10.219 10.02 v -4.277 h -0.512 v 4.277" fill="#ffd6b9"/></g></g><g clip-path="url(#C)"><g clip-path="url(#1)"><path d="m 10.816 7.121 c 0 0.254 -0.379 0.457 -0.852 0.457 c -0.477 0 -0.855 -0.203 -0.855 -0.457 c 0 -0.254 0.379 -0.457 0.855 -0.457 c 0.473 0 0.852 0.203 0.852 0.457" fill="#ffd6b9"/></g></g></svg>