<svg xmlns="http://www.w3.org/2000/svg" viewBox="0 0 16 16"><path d="m 14.504 12.816 c 4.691 -5.82 -2.559 -14.156 -9.27 -12.633 c -7.223 1.691 -6.625 12.164 -0.336 14.75 c 3.129 1.801 7.922 1.465 9.605 -2.117" fill="#3c3642"/><path d="m 7.652 10.309 c -0.18 -0.023 -0.285 -0.094 -0.43 -0.285 c -0.102 -0.145 -0.293 -0.336 -0.422 -0.434 c -0.129 -0.098 -0.266 -0.254 -0.305 -0.348 c -0.043 -0.098 -0.164 -0.23 -0.277 -0.297 l -0.203 -0.117 l 0.039 -0.957 c 0.047 -1.234 0.137 -1.438 0.617 -1.438 c 0.16 0 0.254 -0.039 0.281 -0.117 c 0.07 -0.191 0.164 -0.219 0.777 -0.219 c 0.555 0 0.598 0.012 0.703 0.176 c 0.059 0.094 0.172 0.172 0.246 0.172 c 0.078 0 0.156 0.047 0.176 0.102 c 0.023 0.059 0.145 0.164 0.273 0.242 c 0.125 0.078 0.23 0.191 0.23 0.25 c 0 0.059 0.023 0.105 0.055 0.105 c 0.094 0 0.695 0.621 0.695 0.719 c 0 0.051 -0.09 0.184 -0.203 0.293 c -0.113 0.113 -0.203 0.23 -0.203 0.262 c 0 0.137 -0.367 0.543 -0.488 0.543 c -0.145 0 -0.672 0.512 -0.672 0.648 c 0 0.051 -0.094 0.164 -0.211 0.25 c -0.113 0.086 -0.234 0.234 -0.27 0.328 c -0.035 0.094 -0.09 0.164 -0.117 0.16 c -0.027 -0.008 -0.16 -0.027 -0.293 -0.039 m 0.578 -0.781 c -0.023 -0.023 -0.07 0.012 -0.109 0.082 c -0.047 0.09 -0.152 0.121 -0.402 0.121 c -0.25 0 -0.34 0.027 -0.34 0.098 c 0 0.066 0.09 0.109 0.258 0.125 c 0.211 0.02 0.289 -0.012 0.445 -0.18 c 0.102 -0.113 0.168 -0.223 0.148 -0.246 m -0.988 0.102 c 0 -0.016 -0.027 -0.051 -0.066 -0.074 c -0.039 -0.023 -0.07 -0.012 -0.07 0.031 c 0 0.039 0.031 0.074 0.07 0.074 c 0.039 0 0.066 -0.016 0.066 -0.031 m 1.195 -0.367 c 0.324 -0.047 0.445 -0.133 0.445 -0.305 c 0 -0.07 0.055 -0.16 0.117 -0.195 c 0.105 -0.063 0.121 -0.188 0.121 -0.984 c 0 -0.5 -0.02 -0.91 -0.047 -0.91 c -0.027 0 -0.129 -0.078 -0.227 -0.168 c -0.109 -0.105 -0.227 -0.156 -0.309 -0.133 c -0.094 0.023 -0.148 -0.012 -0.195 -0.133 c -0.059 -0.16 -0.09 -0.168 -0.625 -0.16 c -0.5 0.008 -0.574 0.027 -0.68 0.172 c -0.098 0.133 -0.156 0.152 -0.355 0.113 c -0.16 -0.031 -0.266 -0.016 -0.313 0.043 c -0.039 0.051 -0.078 0.543 -0.09 1.16 c -0.016 0.961 -0.008 1.082 0.102 1.141 c 0.063 0.039 0.145 0.145 0.18 0.234 c 0.055 0.152 0.09 0.16 0.422 0.129 c 0.199 -0.02 0.438 -0.004 0.531 0.039 c 0.094 0.039 0.281 0.055 0.41 0.035 c 0.133 -0.02 0.363 -0.055 0.512 -0.078 m 1.09 -0.902 c 0.156 -0.063 0.363 -0.531 0.25 -0.57 c -0.047 -0.016 -0.113 -0.105 -0.148 -0.199 c -0.031 -0.09 -0.109 -0.164 -0.164 -0.164 c -0.086 0 -0.105 0.098 -0.105 0.488 c 0 0.27 0.012 0.488 0.027 0.488 c 0.016 0 0.078 -0.02 0.137 -0.043 m -3.746 0.113 c -0.023 -0.039 -0.012 -0.07 0.027 -0.07 c 0.043 0 0.074 0.031 0.074 0.07 c 0 0.039 -0.016 0.07 -0.031 0.07 c -0.016 0 -0.047 -0.031 -0.07 -0.07 m -0.512 -0.594 c 0 -0.066 0.031 -0.105 0.07 -0.094 c 0.043 0.016 0.074 0.059 0.074 0.094 c 0 0.035 -0.031 0.078 -0.074 0.09 c -0.039 0.016 -0.07 -0.027 -0.07 -0.09 m 0.34 -0.523 c 0 -0.039 0.047 -0.07 0.105 -0.07 c 0.059 0 0.09 0.031 0.066 0.07 c -0.023 0.039 -0.074 0.07 -0.109 0.07 c -0.035 0 -0.063 -0.031 -0.063 -0.07" fill="#867892"/><path d="m 7.887 10.492 c -0.027 -0.051 -0.152 -0.063 -0.34 -0.031 c -0.246 0.035 -0.297 0.023 -0.332 -0.082 c -0.02 -0.07 -0.191 -0.293 -0.379 -0.496 c -0.188 -0.203 -0.391 -0.465 -0.449 -0.574 c -0.055 -0.113 -0.137 -0.207 -0.176 -0.207 c -0.121 0 -1.152 -1.063 -1.152 -1.187 c 0 -0.063 0.078 -0.191 0.172 -0.281 c 0.094 -0.09 0.172 -0.215 0.172 -0.281 c 0 -0.145 0.109 -0.242 0.344 -0.301 c 0.109 -0.023 0.23 -0.148 0.328 -0.324 c 0.086 -0.156 0.254 -0.336 0.379 -0.402 c 0.121 -0.066 0.387 -0.313 0.586 -0.543 c 0.199 -0.23 0.406 -0.441 0.457 -0.473 c 0.125 -0.078 0.484 0.008 0.551 0.125 c 0.027 0.051 0.258 0.316 0.512 0.586 c 0.254 0.27 0.461 0.527 0.461 0.566 c 0 0.039 0.047 0.07 0.105 0.07 c 0.059 0 0.324 0.219 0.594 0.484 c 0.465 0.457 0.488 0.496 0.48 0.773 c -0.012 0.25 -0.066 0.348 -0.359 0.664 c -0.188 0.207 -0.344 0.406 -0.344 0.449 c 0 0.039 -0.086 0.074 -0.188 0.074 c -0.133 0 -0.242 0.07 -0.375 0.238 c -0.105 0.133 -0.188 0.285 -0.188 0.34 c 0 0.051 -0.082 0.172 -0.18 0.266 c -0.098 0.09 -0.223 0.27 -0.273 0.395 c -0.098 0.23 -0.309 0.309 -0.406 0.152 m 0.176 -0.305 c 0.035 -0.094 0.156 -0.242 0.27 -0.328 c 0.113 -0.086 0.207 -0.199 0.207 -0.246 c 0 -0.141 0.531 -0.652 0.676 -0.652 c 0.121 0 0.488 -0.406 0.488 -0.539 c 0 -0.035 0.09 -0.152 0.203 -0.266 c 0.113 -0.109 0.203 -0.242 0.203 -0.293 c 0 -0.098 -0.602 -0.719 -0.695 -0.719 c -0.031 0 -0.055 -0.047 -0.055 -0.105 c 0 -0.059 -0.105 -0.172 -0.23 -0.25 c -0.129 -0.078 -0.25 -0.184 -0.273 -0.242 c -0.02 -0.055 -0.098 -0.102 -0.176 -0.102 c -0.074 0 -0.188 -0.078 -0.246 -0.172 c -0.105 -0.164 -0.148 -0.176 -0.703 -0.176 c -0.613 0 -0.707 0.027 -0.777 0.219 c -0.027 0.078 -0.121 0.117 -0.281 0.117 c -0.48 0 -0.57 0.203 -0.617 1.438 l -0.039 0.957 l 0.203 0.121 c 0.113 0.063 0.234 0.195 0.273 0.293 c 0.043 0.094 0.18 0.25 0.309 0.348 c 0.129 0.098 0.316 0.289 0.422 0.434 c 0.145 0.191 0.25 0.262 0.43 0.285 c 0.133 0.016 0.262 0.031 0.293 0.039 c 0.027 0.004 0.082 -0.066 0.117 -0.16 m -0.426 -0.234 c -0.168 -0.016 -0.258 -0.059 -0.258 -0.125 c 0 -0.07 0.09 -0.098 0.34 -0.098 c 0.25 0 0.355 -0.031 0.402 -0.121 c 0.039 -0.07 0.086 -0.105 0.109 -0.082 c 0.02 0.023 -0.047 0.133 -0.148 0.246 c -0.156 0.168 -0.234 0.199 -0.445 0.18 m -0.531 -0.367 c 0 -0.043 0.031 -0.055 0.07 -0.031 c 0.039 0.023 0.066 0.059 0.066 0.074 c 0 0.016 -0.027 0.031 -0.066 0.031 c -0.039 0 -0.07 -0.035 -0.07 -0.074 m 2.254 -1.672 c 0 -0.391 0.02 -0.488 0.105 -0.488 c 0.055 0 0.133 0.074 0.164 0.164 c 0.035 0.094 0.102 0.184 0.148 0.199 c 0.176 0.059 -0.176 0.613 -0.391 0.613 c -0.016 0 -0.027 -0.219 -0.027 -0.488 m -3.48 0.559 c 0 -0.039 -0.031 -0.07 -0.074 -0.07 c -0.039 0 -0.051 0.031 -0.027 0.07 c 0.023 0.039 0.055 0.07 0.07 0.07 c 0.016 0 0.031 -0.031 0.031 -0.07 m -0.469 -0.594 c 0 -0.035 -0.031 -0.078 -0.074 -0.094 c -0.039 -0.012 -0.07 0.027 -0.07 0.094 c 0 0.063 0.031 0.105 0.07 0.09 c 0.043 -0.012 0.074 -0.055 0.074 -0.09 m 0.367 -0.523 c 0.023 -0.039 -0.008 -0.07 -0.066 -0.07 c -0.059 0 -0.105 0.031 -0.105 0.07 c 0 0.039 0.027 0.07 0.063 0.07 c 0.035 0 0.086 -0.031 0.109 -0.07 m 4.145 3.16 c -0.133 -0.047 -0.098 -0.156 0.051 -0.156 c 0.078 0 0.137 0.027 0.137 0.063 c 0 0.09 -0.082 0.133 -0.188 0.094 m 0.324 -0.402 c 0 -0.059 0.031 -0.105 0.07 -0.105 c 0.035 0 0.066 0.047 0.066 0.105 c 0 0.059 -0.031 0.105 -0.066 0.105 c -0.039 0 -0.07 -0.047 -0.07 -0.105" fill="#786f88"/><path d="m 8.863 10.848 c -0.09 -0.109 -0.199 -0.141 -0.504 -0.141 c -0.266 0 -0.426 -0.035 -0.512 -0.117 c -0.098 -0.086 -0.164 -0.098 -0.281 -0.047 c -0.086 0.039 -0.633 0.063 -1.246 0.051 c -1.086 -0.02 -1.09 -0.023 -1.25 -0.207 c -0.086 -0.102 -0.141 -0.23 -0.117 -0.289 c 0.02 -0.055 0.039 -0.191 0.039 -0.305 c 0 -0.152 0.031 -0.203 0.129 -0.203 c 0.184 0 0.242 -0.305 0.102 -0.523 c -0.164 -0.258 -0.23 -0.215 -0.23 0.141 c 0 0.219 -0.031 0.313 -0.094 0.313 c -0.156 0 -0.258 -0.188 -0.238 -0.434 c 0.02 -0.18 0.059 -0.234 0.184 -0.254 c 0.148 -0.02 0.156 -0.051 0.145 -0.418 c -0.023 -0.695 -0.004 -0.848 0.141 -0.973 c 0.074 -0.063 0.137 -0.168 0.137 -0.227 c 0 -0.156 0.137 -0.281 0.313 -0.281 c 0.09 0 0.227 -0.094 0.328 -0.227 c 0.098 -0.125 0.199 -0.246 0.23 -0.273 c 0.457 -0.426 0.969 -0.965 0.969 -1.023 c 0 -0.129 0.25 -0.223 0.613 -0.223 c 0.266 0 0.371 0.035 0.465 0.148 c 0.258 0.313 0.734 0.762 0.813 0.762 c 0.043 0 0.141 -0.086 0.219 -0.191 c 0.121 -0.168 0.152 -0.184 0.277 -0.105 c 0.074 0.047 0.246 0.086 0.379 0.086 c 0.191 0 0.238 -0.027 0.238 -0.133 c 0 -0.086 -0.055 -0.145 -0.152 -0.156 c -0.211 -0.031 -0.246 -0.309 -0.047 -0.375 c 0.105 -0.035 0.172 -0.008 0.246 0.102 c 0.055 0.078 0.137 0.145 0.184 0.145 c 0.09 0 0.098 1.637 0.008 2.258 c -0.035 0.254 -0.02 0.363 0.059 0.453 c 0.078 0.09 0.105 0.336 0.121 1.066 l 0.02 0.949 l -0.242 0.258 c -0.223 0.234 -0.273 0.254 -0.625 0.254 c -0.313 0 -0.395 0.027 -0.457 0.141 c -0.039 0.078 -0.109 0.141 -0.156 0.141 c -0.047 0 -0.137 -0.063 -0.203 -0.141 m -0.57 -0.508 c 0.051 -0.125 0.176 -0.301 0.273 -0.395 c 0.098 -0.094 0.18 -0.215 0.18 -0.266 c 0 -0.055 0.082 -0.207 0.188 -0.34 c 0.133 -0.168 0.242 -0.238 0.375 -0.238 c 0.102 0 0.188 -0.035 0.188 -0.074 c 0 -0.043 0.156 -0.242 0.344 -0.445 c 0.293 -0.316 0.348 -0.418 0.355 -0.668 c 0.012 -0.277 -0.012 -0.316 -0.477 -0.773 c -0.27 -0.266 -0.535 -0.484 -0.594 -0.484 c -0.059 0 -0.105 -0.031 -0.105 -0.07 c 0 -0.039 -0.207 -0.293 -0.461 -0.566 c -0.254 -0.27 -0.484 -0.535 -0.512 -0.586 c -0.066 -0.117 -0.426 -0.203 -0.551 -0.125 c -0.051 0.031 -0.258 0.246 -0.457 0.477 c -0.199 0.23 -0.465 0.473 -0.586 0.539 c -0.125 0.066 -0.293 0.25 -0.379 0.402 c -0.098 0.18 -0.219 0.301 -0.328 0.324 c -0.234 0.059 -0.348 0.156 -0.348 0.301 c 0 0.066 -0.074 0.191 -0.168 0.281 c -0.094 0.094 -0.172 0.219 -0.172 0.281 c 0 0.125 1.031 1.187 1.152 1.187 c 0.039 0 0.121 0.094 0.176 0.207 c 0.059 0.113 0.258 0.371 0.449 0.574 c 0.188 0.203 0.359 0.426 0.379 0.496 c 0.035 0.105 0.086 0.117 0.332 0.082 c 0.188 -0.031 0.313 -0.02 0.34 0.031 c 0.098 0.156 0.309 0.078 0.406 -0.152 m 1.816 0.086 c 0 -0.039 -0.059 -0.066 -0.137 -0.066 c -0.148 0 -0.184 0.109 -0.051 0.16 c 0.105 0.035 0.188 -0.008 0.188 -0.094 m -4.598 -0.316 c 0.043 -0.105 -0.148 -0.379 -0.258 -0.379 c -0.078 0 -0.074 0.09 0.008 0.309 c 0.074 0.203 0.191 0.234 0.25 0.07 m 4.871 0.004 c 0 -0.059 -0.031 -0.105 -0.066 -0.105 c -0.039 0 -0.07 0.047 -0.07 0.105 c 0 0.059 0.031 0.105 0.07 0.105 c 0.035 0 0.066 -0.047 0.066 -0.105 m -4.191 -0.855 c -0.078 -0.082 -0.121 0.047 -0.066 0.203 l 0.055 0.164 l 0.027 -0.164 c 0.012 -0.09 0.004 -0.18 -0.016 -0.203 m 3.121 -2.895 c 0.047 -0.18 0.008 -0.266 -0.129 -0.266 c -0.055 0 -0.098 0.066 -0.098 0.164 c 0 0.277 0.164 0.355 0.227 0.102 m -4.594 -0.195 c 0 -0.078 0.027 -0.141 0.066 -0.141 c 0.039 0 0.07 0.063 0.07 0.141 c 0 0.078 -0.031 0.141 -0.07 0.141 c -0.039 0 -0.066 -0.063 -0.066 -0.141 m 0.285 -0.809 c 0.031 -0.152 0.152 -0.16 0.18 -0.012 c 0.012 0.074 -0.02 0.121 -0.09 0.121 c -0.066 0 -0.105 -0.043 -0.09 -0.109 m 3.504 -0.305 c -0.02 -0.035 -0.008 -0.086 0.031 -0.109 c 0.082 -0.051 0.207 0.016 0.207 0.109 c 0 0.086 -0.184 0.086 -0.238 0 m 0.852 -0.004 c 0 -0.039 0.047 -0.07 0.102 -0.07 c 0.059 0 0.105 0.031 0.105 0.07 c 0 0.039 -0.047 0.07 -0.105 0.07 c -0.055 0 -0.102 -0.031 -0.102 -0.07" fill="#6f6278"/><path d="m 7.879 11.539 c 0.055 -0.652 -0.102 -1 -0.336 -0.762 c -0.074 0.078 -1.313 0.117 -1.961 0.063 c -0.348 -0.027 -0.43 -0.063 -0.598 -0.258 c -0.152 -0.176 -0.199 -0.293 -0.199 -0.527 c 0 -0.215 -0.039 -0.34 -0.137 -0.43 c -0.188 -0.172 -0.188 -0.703 -0.004 -0.902 c 0.113 -0.125 0.141 -0.277 0.168 -0.984 c 0.027 -0.75 0.016 -0.852 -0.098 -0.977 c -0.07 -0.078 -0.148 -0.273 -0.172 -0.43 c -0.039 -0.258 -0.023 -0.309 0.133 -0.449 c 0.133 -0.117 0.18 -0.227 0.18 -0.41 c 0 -0.316 0.098 -0.422 0.387 -0.422 c 0.156 0 0.273 -0.055 0.371 -0.172 c 0.137 -0.156 0.176 -0.164 0.633 -0.129 c 0.266 0.023 0.578 0.09 0.691 0.145 c 0.117 0.063 0.418 0.113 0.715 0.121 c 0.449 0.012 0.535 -0.008 0.684 -0.148 c 0.148 -0.137 0.254 -0.16 0.773 -0.172 c 0.539 -0.012 0.609 0 0.699 0.133 c 0.055 0.082 0.145 0.129 0.195 0.109 c 0.063 -0.023 0.141 0.043 0.207 0.176 c 0.059 0.121 0.137 0.215 0.168 0.215 c 0.199 0 0.246 0.215 0.266 1.199 c 0.02 0.945 0.012 1.016 -0.121 1.137 c -0.172 0.164 -0.176 0.285 -0.012 0.402 c 0.066 0.051 0.164 0.219 0.215 0.371 l 0.09 0.277 l 0.121 -0.289 c 0.129 -0.313 0.227 -0.355 0.691 -0.313 l 0.258 0.023 v 0.379 c 0 0.324 -0.02 0.375 -0.133 0.375 c -0.164 0 -0.246 0.125 -0.219 0.34 c 0.016 0.129 -0.098 0.285 -0.496 0.684 c -0.285 0.281 -0.547 0.516 -0.582 0.516 c -0.039 0 -0.105 0.07 -0.148 0.156 c -0.043 0.086 -0.297 0.387 -0.563 0.664 c -0.379 0.395 -0.527 0.504 -0.68 0.504 c -0.141 0 -0.207 0.043 -0.234 0.141 c -0.031 0.125 -0.09 0.141 -0.516 0.141 h -0.477 l 0.039 -0.492 m 1.344 -0.695 c 0.059 -0.113 0.145 -0.141 0.457 -0.141 c 0.352 0 0.402 -0.02 0.625 -0.254 l 0.242 -0.258 l -0.02 -0.949 c -0.016 -0.73 -0.043 -0.977 -0.121 -1.066 c -0.078 -0.09 -0.094 -0.199 -0.059 -0.453 c 0.09 -0.621 0.082 -2.258 -0.012 -2.258 c -0.043 0 -0.125 -0.066 -0.18 -0.148 c -0.074 -0.105 -0.141 -0.133 -0.25 -0.098 c -0.199 0.066 -0.16 0.344 0.051 0.371 c 0.098 0.016 0.152 0.074 0.152 0.16 c 0 0.105 -0.047 0.133 -0.238 0.133 c -0.133 0 -0.305 -0.039 -0.379 -0.086 c -0.125 -0.078 -0.156 -0.066 -0.277 0.105 c -0.078 0.105 -0.176 0.191 -0.219 0.191 c -0.078 0 -0.555 -0.449 -0.813 -0.762 c -0.195 -0.238 -1.078 -0.18 -1.078 0.074 c 0 0.059 -0.512 0.598 -0.969 1.023 c -0.031 0.027 -0.133 0.148 -0.23 0.273 c -0.102 0.133 -0.238 0.227 -0.328 0.227 c -0.176 0 -0.313 0.125 -0.313 0.281 c 0 0.059 -0.063 0.164 -0.137 0.227 c -0.145 0.125 -0.164 0.277 -0.141 0.973 c 0.012 0.367 0.004 0.398 -0.145 0.418 c -0.289 0.043 -0.238 0.688 0.055 0.688 c 0.063 0 0.094 -0.094 0.094 -0.313 c 0 -0.355 0.066 -0.398 0.23 -0.141 c 0.141 0.219 0.082 0.523 -0.102 0.523 c -0.098 0 -0.129 0.051 -0.129 0.203 c 0 0.113 -0.02 0.25 -0.039 0.305 c -0.023 0.059 0.031 0.188 0.117 0.289 c 0.16 0.184 0.164 0.188 1.25 0.207 c 0.613 0.012 1.16 -0.012 1.246 -0.051 c 0.117 -0.051 0.184 -0.039 0.281 0.047 c 0.082 0.082 0.246 0.117 0.512 0.117 c 0.305 0 0.414 0.031 0.504 0.141 c 0.066 0.074 0.156 0.141 0.203 0.141 c 0.047 0 0.117 -0.066 0.156 -0.141 m -3.961 -0.809 c -0.082 -0.219 -0.082 -0.309 -0.008 -0.309 c 0.113 0 0.301 0.273 0.258 0.379 c -0.059 0.164 -0.176 0.129 -0.25 -0.07 m 0.863 -0.578 c -0.031 -0.09 -0.035 -0.18 -0.016 -0.203 c 0.074 -0.07 0.121 0.035 0.098 0.203 l -0.027 0.164 m 2.953 -3.156 c -0.086 -0.086 -0.047 -0.371 0.051 -0.371 c 0.137 0 0.176 0.086 0.133 0.266 c -0.043 0.156 -0.102 0.191 -0.184 0.105 m 1.727 2.668 l -0.047 -0.418 l -0.008 0.484 c -0.008 0.266 0.016 0.453 0.047 0.418 c 0.031 -0.035 0.035 -0.254 0.008 -0.484 m -6 -2.969 c 0 -0.078 -0.031 -0.141 -0.07 -0.141 c -0.035 0 -0.066 0.063 -0.066 0.141 c 0 0.078 0.031 0.141 0.066 0.141 c 0.039 0 0.07 -0.063 0.07 -0.141 m 0.328 -0.82 c -0.027 -0.148 -0.148 -0.141 -0.18 0.012 c -0.016 0.066 0.023 0.109 0.09 0.109 c 0.07 0 0.102 -0.047 0.09 -0.121 m 3.562 -0.293 c 0 -0.094 -0.125 -0.16 -0.207 -0.109 c -0.039 0.023 -0.051 0.074 -0.031 0.109 c 0.055 0.086 0.238 0.086 0.238 0 m 0.82 -0.004 c 0 -0.039 -0.047 -0.07 -0.105 -0.07 c -0.055 0 -0.102 0.031 -0.102 0.07 c 0 0.039 0.047 0.07 0.102 0.07 c 0.059 0 0.105 -0.031 0.105 -0.07 m 2.184 1.988 c 0 -0.055 0.031 -0.102 0.066 -0.102 c 0.039 0 0.07 0.047 0.07 0.102 c 0 0.059 -0.031 0.105 -0.07 0.105 c -0.035 0 -0.066 -0.047 -0.066 -0.105" fill="#675b6b"/><path d="m 6.355 11.965 c 0 -0.039 -0.07 -0.07 -0.152 -0.07 c -0.109 0 -0.363 -0.223 -0.84 -0.734 c -0.371 -0.402 -0.945 -1.016 -1.273 -1.363 c -0.578 -0.609 -0.594 -0.641 -0.613 -0.992 c -0.02 -0.32 -0.043 -0.371 -0.176 -0.391 c -0.141 -0.02 -0.152 -0.055 -0.152 -0.523 c 0 -0.465 0.012 -0.508 0.145 -0.516 c 0.203 -0.016 0.223 -0.051 0.23 -0.438 c 0.004 -0.219 0.051 -0.395 0.121 -0.477 c 0.066 -0.07 0.117 -0.16 0.117 -0.199 c 0 -0.035 0.094 -0.199 0.211 -0.359 c 0.164 -0.23 0.254 -0.293 0.414 -0.293 c 0.168 0 0.219 -0.043 0.316 -0.281 c 0.082 -0.195 0.203 -0.332 0.391 -0.441 c 0.148 -0.086 0.316 -0.246 0.367 -0.355 c 0.051 -0.109 0.145 -0.211 0.211 -0.23 c 0.066 -0.016 0.23 -0.168 0.371 -0.34 c 0.172 -0.039 0.332 -0.164 0.508 -0.141 c 0.637 -0.277 2.113 0.027 2.555 0.043 c 0.16 0 1.07 0.863 1.23 1.168 c 0.066 0.125 0.152 0.227 0.191 0.227 c 0.039 0 0.301 0.227 0.578 0.504 c 0.34 0.34 0.508 0.559 0.508 0.664 c 0 0.09 0.066 0.23 0.148 0.313 c 0.098 0.102 0.121 0.164 0.07 0.184 c -0.102 0.031 -0.109 0.223 -0.016 0.223 c 0.039 0 0.07 0.211 0.07 0.496 v 0.492 l -0.258 -0.012 c -0.535 -0.023 -0.563 -0.012 -0.691 0.301 l -0.121 0.293 l -0.09 -0.277 c -0.051 -0.152 -0.148 -0.32 -0.215 -0.371 c -0.164 -0.117 -0.16 -0.238 0.012 -0.402 c 0.133 -0.121 0.141 -0.191 0.121 -1.137 c -0.02 -0.984 -0.066 -1.199 -0.266 -1.199 c -0.031 0 -0.109 -0.094 -0.168 -0.215 c -0.066 -0.133 -0.145 -0.199 -0.207 -0.176 c -0.051 0.02 -0.141 -0.027 -0.195 -0.109 c -0.09 -0.133 -0.16 -0.145 -0.699 -0.133 c -0.52 0.012 -0.625 0.035 -0.773 0.172 c -0.148 0.141 -0.234 0.16 -0.684 0.148 c -0.297 -0.008 -0.598 -0.059 -0.715 -0.121 c -0.113 -0.055 -0.426 -0.121 -0.691 -0.145 c -0.457 -0.035 -0.496 -0.027 -0.633 0.129 c -0.098 0.117 -0.215 0.172 -0.371 0.172 c -0.289 0 -0.387 0.105 -0.387 0.422 c 0 0.184 -0.047 0.293 -0.18 0.41 c -0.156 0.141 -0.172 0.191 -0.133 0.449 c 0.023 0.156 0.102 0.352 0.172 0.43 c 0.113 0.125 0.125 0.227 0.098 0.977 c -0.027 0.707 -0.055 0.859 -0.168 0.984 c -0.184 0.199 -0.184 0.73 0.004 0.902 c 0.098 0.09 0.137 0.215 0.137 0.43 c 0 0.234 0.047 0.352 0.199 0.527 c 0.168 0.195 0.25 0.23 0.598 0.258 c 0.648 0.055 1.887 0.016 1.961 -0.063 c 0.234 -0.238 0.391 0.109 0.336 0.762 l -0.039 0.496 h -0.742 c -0.449 0 -0.742 -0.027 -0.742 -0.07 m 2.473 -0.051 c 0.012 -0.078 0.098 -0.133 0.227 -0.145 c 0.223 -0.027 1.055 -0.797 1.234 -1.148 c 0.055 -0.105 0.129 -0.191 0.168 -0.191 c 0.035 0 0.297 -0.234 0.582 -0.516 c 0.398 -0.398 0.512 -0.555 0.496 -0.684 c -0.027 -0.215 0.055 -0.34 0.219 -0.34 c 0.156 0 0.172 0.109 0.031 0.254 c -0.059 0.059 -0.105 0.16 -0.105 0.227 c 0 0.156 -0.875 1.102 -1.074 1.16 c -0.086 0.027 -0.191 0.121 -0.238 0.211 c -0.047 0.094 -0.285 0.418 -0.527 0.727 c -0.43 0.539 -0.457 0.559 -0.742 0.563 c -0.242 0.004 -0.289 -0.016 -0.27 -0.117 m 1.977 -2.711 l 0.008 -0.484 l 0.047 0.418 c 0.027 0.23 0.023 0.449 -0.008 0.484 c -0.031 0.035 -0.055 -0.152 -0.047 -0.418" fill="#4e4551"/><path d="m 120.69 148.75 c -2 -0.563 -3 -0.625 -8.125 -0.625 c -3.25 0.063 -6 0 -6.188 -0.125 c -0.188 -0.125 -0.75 -1 -1.188 -1.938 c -0.5 -0.938 -1.625 -2.438 -2.5 -3.313 c -1.375 -1.313 -1.688 -1.813 -1.875 -3 c -0.563 -3.688 0.25 -29.625 1 -33.19 c 0.313 -1.5 1.813 -1.938 5.063 -1.438 c 3.25 0.438 4.313 0.063 5.875 -1.875 c 0.563 -0.688 1.375 -1.5 1.875 -1.688 c 2 -1.063 15.813 -1.438 17.375 -0.438 c 0.375 0.188 1 1.125 1.438 2.063 c 0.875 1.75 1.688 2.25 3.063 2 c 0.438 -0.063 1.313 0 1.938 0.25 c 1.125 0.375 6.188 4.25 6.75 5.188 c 0.188 0.313 0.313 5.375 0.313 13.563 c 0 14.06 -0.063 14.875 -1.563 15.875 c -1.063 0.688 -2 2.25 -2 3.313 c 0 2.063 -1.625 3.5 -4.75 4.25 c -2.813 0.625 -11.313 1.813 -12.75 1.813 c -0.75 0 -2.438 -0.313 -3.75 -0.688" transform="scale(0.0625)" fill="#ada3b4" fill-rule="evenodd" stroke="#867892" stroke-width="0.352"/></svg>