<svg xmlns="http://www.w3.org/2000/svg" viewBox="0 0 16 16"><path d="m 14.352 12.238 c 5.754 -8.18 -4.871 -16.473 -11.648 -9.805 c -6.387 6.281 -0.465 16.04 7.48 12.992 c 1.656 -0.637 3.113 -1.684 4.168 -3.188" fill="#ffdeac"/><path d="m 9.668 11.516 c -0.023 -0.039 -0.68 -0.063 -1.758 -0.063 c -1.629 0 -1.73 -0.008 -1.883 -0.125 c -0.141 -0.113 -0.254 -0.125 -1.148 -0.125 h -0.992 v -3.688 h 0.176 c 0.102 0 0.23 -0.059 0.293 -0.125 c 0.063 -0.07 0.176 -0.125 0.25 -0.125 c 0.074 0 0.188 -0.059 0.25 -0.125 c 0.063 -0.07 0.176 -0.125 0.25 -0.125 c 0.074 0 0.188 -0.059 0.25 -0.125 c 0.063 -0.07 0.176 -0.125 0.25 -0.125 c 0.074 0 0.188 -0.059 0.25 -0.125 c 0.063 -0.07 0.176 -0.125 0.25 -0.125 c 0.074 0 0.188 -0.059 0.25 -0.125 c 0.063 -0.07 0.176 -0.125 0.25 -0.125 c 0.074 0 0.188 -0.059 0.25 -0.125 c 0.063 -0.07 0.176 -0.125 0.25 -0.125 c 0.074 0 0.188 -0.059 0.25 -0.125 c 0.063 -0.07 0.176 -0.125 0.25 -0.125 c 0.074 0 0.188 -0.059 0.25 -0.125 c 0.063 -0.07 0.176 -0.125 0.25 -0.125 c 0.074 0 0.188 -0.059 0.25 -0.125 c 0.063 -0.07 0.176 -0.125 0.25 -0.125 c 0.074 0 0.188 -0.059 0.25 -0.125 c 0.063 -0.07 0.172 -0.125 0.246 -0.125 c 0.074 0 0.242 -0.113 0.379 -0.25 c 0.238 -0.246 0.254 -0.25 0.684 -0.25 h 0.438 l 0.457 0.449 c 0.277 0.277 0.453 0.504 0.453 0.586 c 0 0.07 0.055 0.184 0.125 0.246 c 0.094 0.082 0.125 0.191 0.125 0.414 c 0 0.168 0.027 0.305 0.063 0.305 c 0.039 0 0.063 0.809 0.063 2.309 v 2.313 l -0.223 0.219 l -0.219 0.223 h -0.871 c -0.512 0 -0.883 -0.027 -0.906 -0.063" fill="#edd8aa"/><path d="m 9.949 11.508 c 0 -0.039 -0.039 -0.055 -0.086 -0.035 c -0.047 0.016 -0.113 0.004 -0.145 -0.027 c -0.035 -0.035 -0.742 -0.063 -1.691 -0.063 c -1.246 -0.004 -1.656 -0.023 -1.742 -0.086 c -0.09 -0.066 -0.098 -0.098 -0.035 -0.176 c 0.113 -0.137 3.676 -0.078 3.84 0.063 c 0.07 0.066 0.262 0.098 0.613 0.105 c 0.504 0.012 0.508 0.008 0.691 -0.199 c 0.168 -0.191 0.188 -0.254 0.184 -0.629 c -0.004 -0.23 0.008 -0.777 0.023 -1.223 c 0.02 -0.477 0.004 -0.852 -0.031 -0.922 c -0.09 -0.172 -0.559 -0.16 -0.719 0.016 c -0.102 0.109 -0.125 0.266 -0.156 0.984 c -0.02 0.469 -0.016 0.93 0.012 1.023 c 0.09 0.336 -0.02 0.367 -1.18 0.332 c -0.84 -0.031 -1.063 -0.055 -1.152 -0.137 c -0.09 -0.082 -0.27 -0.105 -0.941 -0.109 c -0.652 -0.008 -0.871 -0.031 -1.031 -0.117 c -0.16 -0.09 -0.375 -0.109 -1.102 -0.113 c -0.496 -0.004 -0.934 0.008 -0.965 0.031 c -0.035 0.02 -0.082 0.125 -0.105 0.227 c -0.07 0.313 0.043 0.383 0.59 0.375 c 0.969 -0.016 1.133 -0.004 1.172 0.094 c 0.02 0.055 0.02 0.113 -0.004 0.137 c -0.051 0.051 -1.762 0.102 -1.945 0.055 l -0.156 -0.039 v -3.5 h 0.195 c 0.105 0 0.262 -0.055 0.352 -0.125 c 0.086 -0.066 0.199 -0.125 0.25 -0.125 c 0.051 0 0.16 -0.055 0.25 -0.125 c 0.086 -0.066 0.199 -0.125 0.25 -0.125 c 0.051 0 0.16 -0.055 0.25 -0.125 c 0.086 -0.066 0.199 -0.125 0.25 -0.125 c 0.051 0 0.16 -0.055 0.25 -0.125 c 0.086 -0.066 0.211 -0.125 0.273 -0.125 c 0.066 0 0.176 -0.055 0.242 -0.125 c 0.07 -0.066 0.172 -0.125 0.227 -0.125 c 0.055 0 0.168 -0.055 0.258 -0.125 c 0.086 -0.066 0.199 -0.125 0.25 -0.125 c 0.051 0 0.16 -0.055 0.25 -0.125 c 0.086 -0.066 0.199 -0.125 0.25 -0.125 c 0.051 0 0.16 -0.055 0.25 -0.125 c 0.086 -0.066 0.211 -0.125 0.273 -0.125 c 0.066 0 0.176 -0.055 0.242 -0.125 c 0.07 -0.066 0.172 -0.125 0.227 -0.125 c 0.055 0 0.168 -0.055 0.258 -0.125 c 0.086 -0.066 0.203 -0.125 0.262 -0.125 c 0.059 0 0.215 -0.109 0.348 -0.25 c 0.234 -0.238 0.262 -0.25 0.629 -0.25 h 0.387 l 0.445 0.477 c 0.246 0.258 0.445 0.523 0.445 0.582 c 0 0.063 0.059 0.164 0.125 0.223 c 0.094 0.086 0.125 0.195 0.125 0.41 c 0 0.207 0.027 0.309 0.094 0.332 c 0.082 0.031 0.094 0.34 0.094 2.234 v 2.199 l -0.289 0.273 l -0.285 0.27 h -0.684 c -0.453 0 -0.68 -0.02 -0.68 -0.066 m 1.531 -3.781 c 0.145 -0.148 0.105 -0.902 -0.059 -1.086 c -0.074 -0.078 -0.113 -0.211 -0.109 -0.348 c 0.004 -0.148 -0.031 -0.254 -0.113 -0.328 c -0.07 -0.055 -0.125 -0.176 -0.129 -0.262 c 0 -0.098 -0.105 -0.273 -0.277 -0.457 c -0.238 -0.258 -0.316 -0.305 -0.582 -0.336 c -0.402 -0.047 -0.48 0.063 -0.211 0.285 c 0.293 0.242 0.512 0.57 0.512 0.766 c 0 0.094 0.031 0.191 0.07 0.215 c 0.137 0.082 0.352 0.691 0.391 1.113 c 0.027 0.238 0.059 0.457 0.078 0.484 c 0.055 0.09 0.32 0.059 0.43 -0.047" fill="#c38e1c"/><path d="m 10.01 11.527 c 0 -0.109 -0.605 -0.203 -1.34 -0.203 c -0.715 0 -0.992 -0.055 -0.75 -0.148 c 0.055 -0.02 0.527 -0.039 1.051 -0.039 c 0.801 0 0.973 0.02 1.102 0.109 c 0.105 0.074 0.328 0.121 0.684 0.141 c 0.34 0.023 0.535 0.063 0.551 0.109 c 0.02 0.063 -0.133 0.078 -0.637 0.078 c -0.363 0 -0.66 -0.02 -0.66 -0.047 m -3.645 -0.242 c -0.117 -0.113 0.008 -0.148 0.578 -0.148 c 0.637 0 0.84 0.035 0.781 0.133 c -0.039 0.066 -1.297 0.078 -1.359 0.016 m 5.02 0.008 c 0 -0.02 0.055 -0.109 0.125 -0.203 c 0.117 -0.156 0.129 -0.281 0.141 -1.5 c 0.02 -1.488 0.031 -1.449 -0.434 -1.449 c -0.211 0 -0.285 0.031 -0.422 0.191 c -0.148 0.176 -0.16 0.238 -0.16 0.797 c 0 0.332 -0.027 0.699 -0.059 0.813 c -0.047 0.16 -0.039 0.242 0.031 0.352 c 0.051 0.078 0.074 0.188 0.055 0.246 c -0.039 0.094 -0.148 0.102 -1.074 0.07 c -0.832 -0.023 -1.063 -0.051 -1.195 -0.137 c -0.133 -0.086 -0.301 -0.105 -0.883 -0.102 c -0.582 0.008 -0.77 -0.016 -0.992 -0.113 c -0.23 -0.102 -0.43 -0.121 -1.188 -0.125 c -0.504 -0.004 -0.961 0.016 -1.02 0.039 c -0.133 0.051 -0.219 0.445 -0.129 0.586 c 0.047 0.074 0.184 0.105 0.555 0.117 c 0.582 0.016 0.793 0.059 0.742 0.141 c -0.023 0.035 -0.379 0.063 -0.816 0.063 h -0.777 v -3.516 l 0.156 0.027 c 0.102 0.02 0.227 -0.02 0.355 -0.117 c 0.109 -0.082 0.25 -0.148 0.313 -0.148 c 0.063 0 0.172 -0.055 0.238 -0.125 c 0.07 -0.066 0.172 -0.125 0.227 -0.125 c 0.055 0 0.168 -0.055 0.258 -0.125 c 0.086 -0.066 0.211 -0.125 0.273 -0.125 c 0.066 0 0.172 -0.051 0.234 -0.117 c 0.078 -0.078 0.176 -0.105 0.281 -0.086 c 0.094 0.02 0.164 0.004 0.164 -0.035 c 0 -0.105 0.188 -0.262 0.316 -0.262 c 0.066 0 0.18 -0.055 0.246 -0.125 c 0.07 -0.066 0.184 -0.125 0.25 -0.125 c 0.07 0 0.184 -0.055 0.25 -0.125 c 0.07 -0.066 0.184 -0.125 0.25 -0.125 c 0.07 0 0.184 -0.055 0.25 -0.125 c 0.07 -0.066 0.184 -0.125 0.258 -0.125 c 0.07 0 0.199 -0.055 0.289 -0.125 c 0.086 -0.066 0.207 -0.125 0.266 -0.125 c 0.063 0 0.145 -0.039 0.188 -0.094 c 0.043 -0.051 0.129 -0.094 0.191 -0.094 c 0.059 0 0.234 -0.121 0.391 -0.27 c 0.27 -0.262 0.289 -0.27 0.648 -0.262 c 0.402 0.012 0.324 -0.047 1.113 0.805 c 0.086 0.094 0.156 0.215 0.156 0.262 c 0 0.051 0.059 0.148 0.125 0.215 c 0.09 0.09 0.121 0.199 0.113 0.383 c -0.004 0.184 0.023 0.277 0.098 0.316 c 0.086 0.051 0.102 0.168 0.102 0.711 c 0 0.469 -0.02 0.652 -0.074 0.652 c -0.059 0 -0.059 0.02 0 0.078 c 0.055 0.055 0.074 0.48 0.074 1.531 v 1.461 l -0.172 0.152 c -0.156 0.137 -0.328 0.199 -0.328 0.121 m -4.937 -2.844 c 0 -0.031 -0.027 -0.063 -0.063 -0.063 c -0.035 0 -0.063 0.031 -0.063 0.063 c 0 0.035 0.027 0.063 0.063 0.063 c 0.035 0 0.063 -0.027 0.063 -0.063 m 1.141 -0.078 c -0.008 -0.023 -0.031 -0.047 -0.047 -0.047 c -0.016 0 -0.156 0 -0.313 0 c -0.156 0 -0.281 0.031 -0.281 0.063 c 0 0.035 0.145 0.055 0.328 0.047 c 0.18 -0.008 0.32 -0.035 0.313 -0.063 m -2.238 -0.207 c 0.156 -0.063 0.047 -0.152 -0.188 -0.152 c -0.238 0 -0.293 0.102 -0.074 0.145 c 0.078 0.016 0.145 0.031 0.152 0.035 c 0.004 0.004 0.055 -0.008 0.109 -0.027 m -0.715 -0.09 c 0 -0.031 -0.07 -0.063 -0.156 -0.063 c -0.086 0 -0.156 0.031 -0.156 0.063 c 0 0.035 0.07 0.063 0.156 0.063 c 0.086 0 0.156 -0.027 0.156 -0.063 m 1.203 0.023 c -0.043 -0.02 -0.113 -0.02 -0.156 0 c -0.043 0.016 -0.008 0.031 0.078 0.031 c 0.086 0 0.121 -0.016 0.078 -0.031 m 4.746 -0.57 c -0.016 -0.383 -0.047 -0.504 -0.141 -0.586 c -0.066 -0.059 -0.121 -0.176 -0.121 -0.266 c 0 -0.09 -0.055 -0.211 -0.125 -0.27 c -0.07 -0.059 -0.125 -0.176 -0.125 -0.262 c 0 -0.102 -0.094 -0.242 -0.281 -0.418 c -0.227 -0.207 -0.324 -0.258 -0.484 -0.246 c -0.141 0.012 -0.223 0.059 -0.266 0.152 c -0.051 0.117 -0.098 0.137 -0.262 0.109 c -0.16 -0.027 -0.219 -0.004 -0.301 0.121 c -0.055 0.086 -0.148 0.152 -0.207 0.145 c -0.195 -0.02 -0.246 0.004 -0.281 0.133 c -0.023 0.098 -0.078 0.121 -0.227 0.109 c -0.141 -0.008 -0.219 0.027 -0.293 0.129 c -0.066 0.098 -0.141 0.133 -0.223 0.113 c -0.078 -0.02 -0.168 0.02 -0.254 0.121 c -0.078 0.086 -0.199 0.148 -0.293 0.148 c -0.289 0 -1.098 0.504 -1.047 0.652 c 0.012 0.039 0.145 0.086 0.297 0.109 c 0.43 0.066 0.648 0.129 0.691 0.195 c 0.035 0.051 0.84 0.082 2.559 0.098 c 0.188 0 0.43 0.047 0.531 0.102 c 0.102 0.051 0.34 0.094 0.527 0.094 h 0.348 m 0.984 -0.449 c 0.051 -0.387 -0.023 -0.863 -0.156 -0.996 c -0.07 -0.074 -0.113 -0.207 -0.113 -0.359 c 0 -0.137 -0.039 -0.273 -0.094 -0.32 c -0.051 -0.043 -0.094 -0.152 -0.094 -0.242 c 0 -0.117 -0.09 -0.258 -0.301 -0.465 c -0.254 -0.25 -0.348 -0.301 -0.613 -0.332 c -0.23 -0.027 -0.328 -0.012 -0.383 0.055 c -0.063 0.074 -0.016 0.152 0.266 0.438 c 0.289 0.289 0.344 0.383 0.344 0.57 c 0 0.148 0.051 0.277 0.156 0.391 c 0.086 0.094 0.156 0.219 0.156 0.277 c 0 0.059 0.043 0.207 0.094 0.332 c 0.051 0.125 0.094 0.359 0.094 0.527 c 0 0.168 0.02 0.324 0.043 0.348 c 0.023 0.023 0.16 0.039 0.305 0.039 c 0.258 0 0.262 0 0.297 -0.262 m -5.984 3.457 c -0.043 -0.074 0.188 -0.156 0.277 -0.102 c 0.035 0.023 0.047 0.066 0.027 0.102 c -0.047 0.074 -0.258 0.074 -0.305 0" fill="#a16906"/><path d="m 10.01 11.527 c 0 -0.109 -0.605 -0.203 -1.34 -0.203 c -0.715 0 -0.992 -0.055 -0.75 -0.148 c 0.055 -0.02 0.527 -0.039 1.051 -0.039 c 0.801 0 0.973 0.02 1.102 0.109 c 0.105 0.074 0.328 0.121 0.684 0.141 c 0.34 0.023 0.535 0.063 0.551 0.109 c 0.02 0.063 -0.133 0.078 -0.637 0.078 c -0.363 0 -0.66 -0.02 -0.66 -0.047 m -3.645 -0.242 c -0.117 -0.113 0.008 -0.148 0.578 -0.148 c 0.637 0 0.84 0.035 0.781 0.133 c -0.039 0.066 -1.297 0.078 -1.359 0.016 m 5.02 0.008 c 0 -0.02 0.055 -0.109 0.125 -0.203 c 0.117 -0.156 0.129 -0.281 0.141 -1.5 c 0.02 -1.496 0.031 -1.449 -0.453 -1.449 c -0.25 0 -0.297 0.023 -0.43 0.215 c -0.129 0.191 -0.148 0.297 -0.16 0.922 c -0.012 0.387 -0.039 0.754 -0.066 0.816 c -0.027 0.07 -0.008 0.152 0.059 0.227 c 0.055 0.063 0.082 0.156 0.063 0.219 c -0.039 0.094 -0.148 0.102 -1.074 0.07 c -0.832 -0.023 -1.063 -0.051 -1.195 -0.137 c -0.133 -0.086 -0.301 -0.105 -0.883 -0.102 c -0.57 0.008 -0.773 -0.016 -0.977 -0.105 c -0.188 -0.082 -0.441 -0.117 -0.906 -0.129 c -1.387 -0.027 -1.492 0 -1.492 0.398 c 0 0.305 0.09 0.352 0.664 0.352 c 0.539 0 0.734 0.039 0.676 0.133 c -0.02 0.031 -0.383 0.055 -0.813 0.055 h -0.777 v -3.512 l 0.156 0.027 c 0.102 0.02 0.227 -0.02 0.355 -0.117 c 0.109 -0.082 0.25 -0.148 0.313 -0.148 c 0.063 0 0.172 -0.055 0.238 -0.125 c 0.07 -0.066 0.172 -0.125 0.227 -0.125 c 0.055 0 0.168 -0.055 0.258 -0.125 c 0.086 -0.066 0.211 -0.125 0.273 -0.125 c 0.066 0 0.172 -0.055 0.238 -0.121 c 0.117 -0.113 0.379 -0.117 0.379 0 c 0 0.027 -0.195 0.191 -0.438 0.367 c -0.238 0.176 -0.438 0.348 -0.438 0.379 c 0 0.09 0.246 0.203 0.352 0.164 c 0.148 -0.059 0.41 0.074 0.387 0.195 c -0.02 0.102 -0.117 0.109 -0.957 0.109 h -0.938 l -0.039 0.344 h 0.781 c 0.855 0 1.07 0.051 1.133 0.254 c 0.039 0.121 0.078 0.133 0.309 0.102 c 0.145 -0.02 0.559 -0.055 0.922 -0.078 l 0.656 -0.043 l 0.156 0.168 l 0.156 0.172 l 0.996 -0.055 l 0.992 -0.051 v -0.219 c 0 -0.297 0.066 -0.375 0.316 -0.375 c 0.246 0 0.297 -0.137 0.09 -0.25 c -0.105 -0.055 -0.125 -0.129 -0.125 -0.523 c 0 -0.375 -0.02 -0.477 -0.125 -0.57 c -0.066 -0.063 -0.125 -0.16 -0.125 -0.219 c 0 -0.059 -0.051 -0.172 -0.113 -0.254 c -0.066 -0.082 -0.137 -0.223 -0.156 -0.313 c -0.023 -0.09 -0.168 -0.281 -0.32 -0.422 c -0.219 -0.203 -0.332 -0.262 -0.504 -0.262 c -0.176 0 -0.234 0.035 -0.293 0.156 c -0.055 0.121 -0.117 0.156 -0.277 0.156 c -0.141 0 -0.227 0.039 -0.273 0.125 c -0.043 0.082 -0.129 0.125 -0.25 0.125 c -0.117 0 -0.207 0.047 -0.25 0.125 c -0.043 0.082 -0.129 0.125 -0.25 0.125 c -0.117 0 -0.207 0.047 -0.25 0.125 c -0.043 0.082 -0.129 0.125 -0.25 0.125 c -0.117 0 -0.207 0.047 -0.25 0.125 c -0.051 0.094 -0.129 0.125 -0.316 0.125 c -0.133 0 -0.246 -0.023 -0.246 -0.055 c 0 -0.102 0.191 -0.258 0.316 -0.258 c 0.066 0 0.176 -0.055 0.246 -0.125 c 0.07 -0.066 0.18 -0.125 0.25 -0.125 c 0.07 0 0.18 -0.055 0.25 -0.125 c 0.07 -0.066 0.18 -0.125 0.25 -0.125 c 0.07 0 0.18 -0.055 0.25 -0.125 c 0.07 -0.066 0.184 -0.125 0.258 -0.125 c 0.07 0 0.199 -0.055 0.289 -0.125 c 0.086 -0.066 0.207 -0.125 0.266 -0.125 c 0.063 0 0.145 -0.039 0.188 -0.094 c 0.043 -0.051 0.129 -0.094 0.191 -0.094 c 0.059 0 0.234 -0.121 0.391 -0.27 c 0.27 -0.262 0.289 -0.27 0.648 -0.262 c 0.402 0.012 0.32 -0.047 1.113 0.805 c 0.086 0.094 0.156 0.211 0.156 0.262 c 0 0.051 0.055 0.148 0.125 0.215 c 0.09 0.09 0.121 0.199 0.113 0.383 c -0.008 0.184 0.02 0.273 0.094 0.316 c 0.09 0.047 0.105 0.168 0.105 0.707 c 0 0.457 -0.023 0.656 -0.078 0.684 c -0.063 0.031 -0.063 0.043 0 0.074 c 0.059 0.027 0.078 0.391 0.078 1.504 v 1.465 l -0.172 0.152 c -0.156 0.137 -0.328 0.199 -0.328 0.121 m 0.207 -3.73 c 0.051 -0.387 -0.023 -0.863 -0.156 -0.996 c -0.07 -0.074 -0.113 -0.207 -0.113 -0.359 c 0 -0.137 -0.039 -0.273 -0.094 -0.32 c -0.051 -0.039 -0.094 -0.148 -0.094 -0.238 c 0 -0.223 -0.492 -0.73 -0.758 -0.785 c -0.301 -0.059 -0.469 -0.043 -0.547 0.047 c -0.055 0.066 0.008 0.16 0.273 0.43 c 0.289 0.289 0.344 0.383 0.344 0.57 c 0 0.148 0.051 0.277 0.156 0.391 c 0.086 0.094 0.156 0.219 0.156 0.277 c 0 0.059 0.043 0.207 0.094 0.332 c 0.051 0.125 0.094 0.359 0.094 0.527 c 0 0.168 0.02 0.324 0.043 0.348 c 0.023 0.023 0.16 0.039 0.305 0.039 c 0.258 0 0.262 0 0.297 -0.262 m -5.984 3.457 c -0.043 -0.074 0.188 -0.156 0.277 -0.098 c 0.035 0.02 0.047 0.063 0.027 0.098 c -0.047 0.074 -0.258 0.074 -0.305 0 m 1.418 -2.855 c -0.141 -0.066 -0.086 -0.27 0.082 -0.312 c 0.25 -0.063 1.461 0.008 1.543 0.09 c 0.156 0.156 -0.066 0.223 -0.812 0.238 c -0.402 0.012 -0.77 0.004 -0.813 -0.016" fill="#8e014d"/><path d="m 10.01 11.527 c 0 -0.109 -0.605 -0.203 -1.34 -0.203 c -0.715 0 -0.992 -0.055 -0.75 -0.148 c 0.055 -0.02 0.527 -0.039 1.051 -0.039 c 0.801 0 0.973 0.02 1.102 0.109 c 0.105 0.074 0.328 0.121 0.684 0.141 c 0.34 0.023 0.535 0.063 0.551 0.109 c 0.02 0.063 -0.133 0.078 -0.637 0.078 c -0.363 0 -0.66 -0.02 -0.66 -0.047 m -3.645 -0.242 c -0.117 -0.113 0.008 -0.148 0.578 -0.148 c 0.637 0 0.84 0.035 0.781 0.133 c -0.039 0.066 -1.297 0.078 -1.359 0.016 m 5.02 0.008 c 0 -0.02 0.055 -0.109 0.125 -0.203 c 0.117 -0.156 0.129 -0.281 0.141 -1.5 c 0.02 -1.496 0.031 -1.449 -0.453 -1.449 c -0.25 0 -0.297 0.023 -0.43 0.215 c -0.129 0.191 -0.148 0.297 -0.16 0.922 c -0.012 0.387 -0.039 0.754 -0.066 0.816 c -0.027 0.07 -0.008 0.152 0.059 0.227 c 0.055 0.063 0.082 0.156 0.063 0.219 c -0.039 0.094 -0.148 0.102 -1.074 0.07 c -0.832 -0.023 -1.063 -0.051 -1.195 -0.137 c -0.133 -0.086 -0.301 -0.105 -0.883 -0.102 c -0.57 0.008 -0.773 -0.016 -0.977 -0.105 c -0.188 -0.082 -0.441 -0.117 -0.906 -0.129 c -1.387 -0.027 -1.492 0 -1.492 0.398 c 0 0.305 0.09 0.352 0.664 0.352 c 0.539 0 0.734 0.039 0.676 0.133 c -0.02 0.031 -0.383 0.055 -0.813 0.055 h -0.777 v -0.879 c 0 -0.875 0 -0.879 0.141 -0.859 c 0.109 0.016 0.145 0.07 0.16 0.223 c 0.02 0.199 0.027 0.203 0.344 0.211 c 1.23 0.023 1.891 0.063 2.121 0.125 c 0.145 0.039 0.633 0.094 1.078 0.125 c 0.445 0.027 1.094 0.094 1.437 0.145 c 0.703 0.105 1.195 0.125 1.242 0.051 c 0.02 -0.031 0.016 -0.266 -0.004 -0.523 l -0.035 -0.473 l -0.82 -0.039 c -0.738 -0.035 -0.828 -0.051 -0.918 -0.172 c -0.094 -0.125 -0.137 -0.133 -0.516 -0.094 c -0.227 0.027 -0.637 0.027 -0.918 0 c -0.41 -0.035 -0.516 -0.066 -0.57 -0.164 c -0.035 -0.066 -0.055 -0.133 -0.043 -0.145 c 0.012 -0.008 0.344 -0.039 0.746 -0.063 l 0.723 -0.047 l 0.156 0.168 l 0.156 0.172 l 0.992 -0.055 l 0.996 -0.051 v -0.219 c 0 -0.297 0.063 -0.375 0.316 -0.375 c 0.246 0 0.297 -0.137 0.09 -0.25 c -0.109 -0.055 -0.125 -0.129 -0.125 -0.523 c 0 -0.375 -0.023 -0.477 -0.125 -0.57 c -0.07 -0.063 -0.125 -0.16 -0.125 -0.219 c 0 -0.059 -0.051 -0.172 -0.117 -0.254 c -0.063 -0.082 -0.133 -0.223 -0.152 -0.313 c -0.023 -0.09 -0.168 -0.281 -0.32 -0.422 c -0.219 -0.203 -0.332 -0.262 -0.504 -0.262 c -0.176 0 -0.234 0.035 -0.293 0.156 c -0.055 0.121 -0.117 0.156 -0.277 0.156 c -0.145 0 -0.227 0.039 -0.273 0.125 c -0.043 0.082 -0.133 0.125 -0.25 0.125 c -0.121 0 -0.207 0.047 -0.25 0.125 c -0.043 0.082 -0.133 0.125 -0.25 0.125 c -0.121 0 -0.207 0.047 -0.25 0.125 c -0.043 0.082 -0.133 0.125 -0.25 0.125 c -0.121 0 -0.207 0.047 -0.25 0.125 c -0.051 0.094 -0.133 0.125 -0.316 0.125 c -0.137 0 -0.246 -0.023 -0.246 -0.055 c 0 -0.102 0.191 -0.258 0.316 -0.258 c 0.066 0 0.176 -0.055 0.246 -0.125 c 0.066 -0.066 0.18 -0.125 0.25 -0.125 c 0.066 0 0.18 -0.055 0.25 -0.125 c 0.066 -0.066 0.18 -0.125 0.25 -0.125 c 0.066 0 0.18 -0.055 0.25 -0.125 c 0.066 -0.066 0.184 -0.125 0.254 -0.125 c 0.074 0 0.203 -0.055 0.293 -0.125 c 0.086 -0.066 0.207 -0.125 0.266 -0.125 c 0.059 0 0.145 -0.039 0.188 -0.094 c 0.043 -0.051 0.129 -0.094 0.188 -0.094 c 0.063 0 0.238 -0.121 0.391 -0.27 c 0.27 -0.262 0.293 -0.27 0.652 -0.262 c 0.402 0.012 0.32 -0.047 1.109 0.805 c 0.09 0.094 0.16 0.211 0.16 0.262 c 0 0.051 0.055 0.148 0.125 0.215 c 0.09 0.09 0.121 0.199 0.113 0.383 c -0.008 0.184 0.02 0.273 0.094 0.316 c 0.086 0.047 0.105 0.168 0.105 0.707 c 0 0.457 -0.023 0.656 -0.078 0.684 c -0.063 0.031 -0.063 0.043 0 0.074 c 0.059 0.027 0.078 0.391 0.078 1.504 v 1.465 l -0.172 0.152 c -0.16 0.137 -0.328 0.199 -0.328 0.121 m 0.207 -3.73 c 0.051 -0.387 -0.023 -0.863 -0.156 -0.996 c -0.07 -0.074 -0.113 -0.207 -0.113 -0.359 c 0 -0.137 -0.039 -0.273 -0.094 -0.32 c -0.051 -0.039 -0.094 -0.148 -0.094 -0.238 c 0 -0.223 -0.492 -0.73 -0.758 -0.785 c -0.301 -0.059 -0.469 -0.043 -0.547 0.047 c -0.055 0.066 0.008 0.16 0.273 0.43 c 0.289 0.289 0.344 0.383 0.344 0.57 c 0 0.148 0.051 0.277 0.156 0.391 c 0.086 0.094 0.156 0.219 0.156 0.277 c 0 0.059 0.043 0.207 0.094 0.332 c 0.051 0.125 0.094 0.359 0.094 0.527 c 0 0.168 0.02 0.324 0.043 0.348 c 0.023 0.023 0.16 0.039 0.305 0.039 c 0.258 0 0.262 0 0.297 -0.262 m -5.984 3.457 c -0.043 -0.074 0.188 -0.156 0.277 -0.098 c 0.035 0.02 0.047 0.063 0.027 0.098 c -0.047 0.074 -0.258 0.074 -0.305 0 m -1.723 -2.664 v -0.793 l 0.156 0.027 c 0.102 0.02 0.227 -0.02 0.355 -0.117 c 0.109 -0.082 0.25 -0.148 0.313 -0.148 c 0.063 0 0.172 -0.055 0.238 -0.125 c 0.07 -0.066 0.172 -0.125 0.227 -0.125 c 0.055 0 0.168 -0.055 0.258 -0.125 c 0.086 -0.066 0.211 -0.125 0.273 -0.125 c 0.066 0 0.172 -0.051 0.238 -0.117 c 0.117 -0.117 0.379 -0.117 0.379 -0.004 c 0 0.027 -0.195 0.195 -0.438 0.367 c -0.238 0.176 -0.438 0.348 -0.438 0.379 c 0 0.09 0.246 0.203 0.352 0.164 c 0.148 -0.059 0.41 0.074 0.387 0.199 c -0.02 0.098 -0.117 0.109 -0.957 0.109 h -0.938 l -0.039 0.344 h 0.781 c 0.43 0 0.852 0.023 0.934 0.055 c 0.152 0.059 0.266 0.242 0.195 0.313 c -0.02 0.02 -0.402 0.031 -0.848 0.027 c -0.645 -0.008 -0.836 -0.031 -0.922 -0.109 c -0.191 -0.172 -0.426 -0.105 -0.254 0.066 c 0.039 0.039 0.059 0.164 0.047 0.281 c -0.016 0.16 -0.051 0.215 -0.16 0.23 c -0.141 0.02 -0.141 0.012 -0.141 -0.773 m 3.141 -0.191 c -0.141 -0.066 -0.086 -0.27 0.082 -0.312 c 0.25 -0.063 1.461 0.008 1.543 0.09 c 0.156 0.156 -0.066 0.223 -0.812 0.238 c -0.402 0.012 -0.77 0.004 -0.813 -0.016" fill="#6a4f1e"/><path d="m 10.168 11.516 c 0.02 -0.035 0.23 -0.063 0.469 -0.063 c 0.238 0 0.449 0.027 0.469 0.063 c 0.023 0.039 -0.145 0.063 -0.469 0.063 c -0.324 0 -0.492 -0.023 -0.469 -0.063 m -6.281 -0.941 c 0 -0.344 0.023 -0.469 0.102 -0.527 c 0.09 -0.066 0.09 -0.082 0 -0.172 c -0.055 -0.059 -0.102 -0.203 -0.102 -0.328 c 0 -0.203 0.016 -0.227 0.141 -0.211 c 0.109 0.016 0.145 0.07 0.16 0.227 c 0.02 0.199 0.023 0.203 0.344 0.207 c 1.238 0.023 1.949 0.063 1.996 0.113 c 0.035 0.035 0.016 0.07 -0.055 0.09 c -0.102 0.031 -0.938 0.059 -1.398 0.043 c -0.086 0 -0.34 0.02 -0.563 0.043 l -0.406 0.051 l -0.031 0.43 c -0.02 0.27 -0.063 0.445 -0.109 0.461 c -0.059 0.016 -0.078 -0.094 -0.078 -0.426 m 7.875 -0.121 c 0 -0.305 0.027 -0.574 0.063 -0.594 c 0.039 -0.027 0.063 0.176 0.063 0.559 c 0 0.355 -0.023 0.598 -0.063 0.598 c -0.035 0 -0.063 -0.23 -0.063 -0.563 m -2.844 0.078 c -0.172 -0.012 -0.355 -0.063 -0.406 -0.105 c -0.051 -0.047 -0.234 -0.105 -0.406 -0.129 c -0.316 -0.047 -0.406 -0.047 -0.957 -0.02 c -0.371 0.02 -0.582 -0.105 -0.406 -0.234 c 0.078 -0.055 0.293 -0.07 0.734 -0.051 c 0.953 0.039 1.16 0.074 1.121 0.18 c -0.02 0.051 -0.008 0.094 0.027 0.094 c 0.035 0 0.074 -0.035 0.09 -0.074 c 0.02 -0.059 0.168 -0.059 0.648 0.004 c 0.348 0.043 0.723 0.07 0.844 0.063 c 0.262 -0.023 0.367 0.035 0.367 0.203 c 0 0.117 -0.027 0.125 -0.328 0.09 c -0.406 -0.047 -0.52 -0.047 -0.797 -0.016 c -0.121 0.012 -0.359 0.012 -0.531 -0.004 m 1.469 -0.977 v -0.352 l -0.422 -0.004 c -0.777 0 -1.266 -0.07 -1.328 -0.188 c -0.051 -0.098 -0.027 -0.109 0.172 -0.113 c 0.129 -0.004 0.543 -0.027 0.922 -0.055 l 0.688 -0.047 l 0.02 -0.27 c 0.012 -0.168 0.055 -0.285 0.113 -0.305 c 0.129 -0.051 0.18 0.02 0.094 0.125 c -0.039 0.051 -0.098 0.402 -0.125 0.785 c -0.055 0.746 -0.133 1 -0.133 0.422 m 1.418 0.043 c -0.07 -0.07 -0.051 -1.395 0.02 -1.395 c 0.039 0 0.063 0.281 0.063 0.719 c 0 0.395 -0.008 0.719 -0.02 0.719 c -0.012 0 -0.039 -0.02 -0.063 -0.043 m -7.918 -1.172 v -0.723 h 0.211 c 0.129 0 0.25 -0.051 0.32 -0.125 c 0.063 -0.07 0.18 -0.125 0.262 -0.125 c 0.078 0 0.195 -0.059 0.254 -0.125 c 0.059 -0.07 0.164 -0.125 0.238 -0.125 c 0.074 0 0.184 -0.059 0.246 -0.125 c 0.066 -0.078 0.191 -0.125 0.305 -0.125 h 0.195 l -0.219 0.188 c -0.121 0.102 -0.281 0.203 -0.359 0.223 c -0.078 0.023 -0.141 0.063 -0.141 0.094 c 0 0.086 0.43 0.246 0.668 0.246 c 0.148 0 0.207 0.023 0.188 0.078 c -0.016 0.043 -0.063 0.066 -0.109 0.059 c -0.043 -0.012 -0.152 -0.016 -0.242 -0.012 c -0.086 0 -0.43 0.012 -0.754 0.02 c -0.328 0.008 -0.629 0.039 -0.672 0.063 c -0.043 0.027 -0.078 0.141 -0.078 0.25 v 0.203 l 0.871 -0.012 c 0.793 -0.012 0.879 -0.004 0.98 0.109 c 0.176 0.191 0.035 0.227 -0.805 0.203 c -0.563 -0.016 -0.781 -0.047 -0.859 -0.117 c -0.184 -0.168 -0.418 -0.102 -0.246 0.07 c 0.039 0.039 0.059 0.164 0.047 0.281 c -0.016 0.16 -0.051 0.215 -0.16 0.23 c -0.141 0.02 -0.141 0.012 -0.141 -0.703 m 3.094 0.469 c -0.211 -0.023 -0.316 -0.066 -0.328 -0.133 c -0.016 -0.074 0.039 -0.102 0.215 -0.109 c 0.133 -0.008 0.453 -0.027 0.715 -0.047 c 0.449 -0.035 0.484 -0.031 0.578 0.105 c 0.094 0.133 0.094 0.148 -0.008 0.188 c -0.129 0.051 -0.727 0.051 -1.172 -0.004 m 0.059 -0.824 c -0.066 -0.105 0.07 -0.195 0.297 -0.203 c 0.766 -0.02 1.195 0.07 0.988 0.207 c -0.129 0.086 -1.23 0.082 -1.285 -0.004 m 3.637 -0.336 c -0.039 -0.109 0.012 -0.281 0.086 -0.281 c 0.055 0 0.125 0.156 0.125 0.285 c 0 0.117 -0.164 0.113 -0.211 -0.004 m 1.035 -0.484 c 0.012 -0.332 0.047 -0.578 0.082 -0.578 c 0.035 0 0.07 0.246 0.082 0.578 c 0.016 0.492 0 0.578 -0.082 0.578 c -0.082 0 -0.098 -0.086 -0.082 -0.578 m -1.012 -0.141 c 0 -0.055 0.027 -0.094 0.063 -0.094 c 0.035 0 0.063 0.039 0.063 0.094 c 0 0.051 -0.027 0.094 -0.063 0.094 c -0.035 0 -0.063 -0.043 -0.063 -0.094 m -4.711 -0.313 c 0.02 -0.055 0.074 -0.094 0.125 -0.094 c 0.121 0 0.105 0.043 -0.039 0.121 c -0.098 0.055 -0.117 0.051 -0.086 -0.027 m 4.457 -0.164 c -0.086 -0.16 -0.031 -0.316 0.09 -0.27 c 0.113 0.043 0.172 0.184 0.125 0.309 c -0.051 0.129 -0.133 0.113 -0.215 -0.039 m -3.891 -0.035 c -0.09 -0.09 -0.035 -0.145 0.152 -0.145 c 0.168 0 0.184 0.012 0.117 0.094 c -0.082 0.098 -0.199 0.121 -0.27 0.051 m 4.895 -0.363 c 0 -0.156 0.027 -0.281 0.063 -0.281 c 0.035 0 0.063 0.125 0.063 0.281 c 0 0.152 -0.027 0.281 -0.063 0.281 c -0.035 0 -0.063 -0.129 -0.063 -0.281 m -4.395 0.113 c -0.09 -0.09 -0.035 -0.145 0.152 -0.145 c 0.168 0 0.184 0.012 0.117 0.094 c -0.082 0.098 -0.199 0.121 -0.27 0.051 m 3.105 -0.316 c -0.105 -0.262 -0.566 -0.766 -0.691 -0.766 c -0.105 0 -0.102 -0.074 0.012 -0.223 c 0.086 -0.117 0.109 -0.105 0.5 0.293 c 0.367 0.375 0.406 0.438 0.406 0.672 c 0 0.32 -0.102 0.328 -0.227 0.023 m -2.57 0.066 c -0.148 -0.059 -0.078 -0.145 0.117 -0.145 c 0.168 0 0.184 0.012 0.117 0.094 c -0.082 0.098 -0.105 0.102 -0.234 0.051 m 0.484 -0.273 c -0.129 -0.078 -0.043 -0.137 0.168 -0.113 c 0.168 0.023 0.172 0.027 0.047 0.098 c -0.078 0.043 -0.164 0.051 -0.215 0.016 m 3.16 -0.078 c -0.027 -0.063 -0.031 -0.129 -0.012 -0.152 c 0.063 -0.063 0.113 0.027 0.086 0.148 c -0.027 0.109 -0.031 0.109 -0.074 0.004 m -2.598 -0.23 c 0 -0.035 0.055 -0.063 0.125 -0.063 c 0.07 0 0.125 0.027 0.125 0.063 c 0 0.031 -0.055 0.063 -0.125 0.063 c -0.07 0 -0.125 -0.031 -0.125 -0.063" fill="#5a2217"/><path d="m 10.281 11.539 c 0.02 -0.023 0.195 -0.039 0.387 -0.039 c 0.191 0 0.367 0.016 0.387 0.039 c 0.023 0.02 -0.152 0.039 -0.387 0.039 c -0.234 0 -0.41 -0.02 -0.387 -0.039 m 1.566 -1.117 c 0 -0.277 0.008 -0.383 0.023 -0.234 c 0.012 0.148 0.012 0.371 0 0.5 c -0.016 0.129 -0.023 0.008 -0.023 -0.266 m -7.961 0.094 c 0 -0.172 0.027 -0.313 0.063 -0.313 c 0.035 0 0.063 0.141 0.063 0.313 c 0 0.172 -0.027 0.313 -0.063 0.313 c -0.035 0 -0.063 -0.141 -0.063 -0.313 m 5.324 -0.004 c -0.207 -0.086 -0.109 -0.184 0.18 -0.184 c 0.254 0 0.348 0.133 0.148 0.211 c -0.121 0.047 -0.145 0.043 -0.328 -0.027 m 0.816 0.023 c -0.043 -0.016 -0.078 -0.074 -0.078 -0.125 c 0 -0.07 0.07 -0.086 0.297 -0.07 c 0.215 0.012 0.297 0.043 0.297 0.113 c 0 0.094 -0.352 0.152 -0.516 0.082 m -3.094 -0.277 c -0.168 -0.098 -0.07 -0.18 0.203 -0.18 c 0.281 0 0.371 0.086 0.195 0.184 c -0.152 0.082 -0.258 0.078 -0.398 -0.004 m 1.027 0.004 c -0.195 -0.078 -0.113 -0.184 0.141 -0.184 c 0.203 0 0.387 0.125 0.305 0.207 c -0.055 0.059 -0.27 0.043 -0.445 -0.023 m -3.793 -0.246 c -0.074 -0.125 0.043 -0.188 0.344 -0.188 c 0.313 0 0.461 0.094 0.305 0.191 c -0.117 0.074 -0.602 0.07 -0.648 -0.004 m 1.102 0.004 c -0.047 -0.031 -0.066 -0.086 -0.043 -0.125 c 0.051 -0.082 0.344 -0.09 0.465 -0.012 c 0.07 0.043 0.063 0.07 -0.043 0.125 c -0.152 0.082 -0.262 0.086 -0.379 0.012 m -1.383 -0.41 c 0 -0.055 0.027 -0.094 0.063 -0.094 c 0.035 0 0.063 0.039 0.063 0.094 c 0 0.051 -0.027 0.094 -0.063 0.094 c -0.035 0 -0.063 -0.043 -0.063 -0.094 m 7.926 -0.672 c -0.012 -0.355 0 -0.668 0.027 -0.703 c 0.027 -0.031 0.047 0.258 0.047 0.641 c 0 0.387 -0.012 0.703 -0.027 0.703 c -0.016 0 -0.035 -0.289 -0.047 -0.641 m -2.613 0.141 c -0.184 -0.117 0.035 -0.188 0.609 -0.199 c 0.605 -0.016 0.68 0.008 0.621 0.164 c -0.031 0.074 -0.148 0.094 -0.586 0.094 c -0.305 0 -0.594 -0.027 -0.645 -0.059 m -5.313 -0.219 c 0 -0.055 0.027 -0.094 0.063 -0.094 c 0.035 0 0.063 0.039 0.063 0.094 c 0 0.051 -0.027 0.094 -0.063 0.094 c -0.035 0 -0.063 -0.043 -0.063 -0.094 m 3.281 -0.035 c -0.086 -0.137 0.078 -0.191 0.508 -0.172 c 0.332 0.012 0.43 0.039 0.43 0.113 c 0 0.07 -0.098 0.098 -0.449 0.109 c -0.281 0.012 -0.461 -0.008 -0.488 -0.051 m -2.203 -0.227 c -0.117 -0.047 -0.094 -0.195 0.039 -0.238 c 0.133 -0.043 0.445 0.059 0.445 0.145 c 0 0.113 -0.297 0.168 -0.484 0.094 m 0.703 -0.047 c -0.113 -0.082 -0.113 -0.094 -0.02 -0.133 c 0.156 -0.059 0.332 -0.008 0.332 0.098 c 0 0.125 -0.164 0.145 -0.313 0.035 m -1.219 -0.066 c 0 -0.074 0.043 -0.098 0.141 -0.086 c 0.078 0.012 0.141 0.051 0.141 0.086 c 0 0.031 -0.063 0.07 -0.141 0.082 c -0.098 0.012 -0.141 -0.012 -0.141 -0.082 m -0.563 -0.438 v -0.344 h 0.219 c 0.145 0 0.258 -0.047 0.328 -0.125 c 0.059 -0.07 0.18 -0.125 0.27 -0.125 c 0.09 0 0.215 -0.059 0.277 -0.125 c 0.063 -0.07 0.18 -0.125 0.258 -0.125 c 0.082 0 0.184 -0.059 0.227 -0.125 c 0.043 -0.074 0.145 -0.125 0.234 -0.125 l 0.156 0.004 l -0.188 0.152 c -0.102 0.086 -0.277 0.188 -0.391 0.23 c -0.246 0.09 -0.254 0.141 -0.039 0.25 c 0.285 0.141 0.172 0.203 -0.395 0.223 c -0.578 0.02 -0.707 0.074 -0.707 0.289 c 0 0.137 -0.105 0.289 -0.199 0.289 c -0.027 0 -0.051 -0.156 -0.051 -0.344 m 3.285 0.035 c -0.07 -0.117 0.027 -0.191 0.246 -0.191 c 0.191 0 0.34 0.086 0.266 0.16 c -0.074 0.074 -0.473 0.098 -0.512 0.031 m 0.746 -0.008 c -0.023 -0.039 -0.016 -0.102 0.02 -0.137 c 0.086 -0.082 0.281 -0.012 0.246 0.094 c -0.035 0.102 -0.211 0.133 -0.266 0.043 m 3.82 -0.301 c -0.039 -0.063 -0.039 -0.816 0.004 -0.961 c 0.074 -0.277 0.145 -0.063 0.145 0.453 c 0 0.496 -0.051 0.668 -0.148 0.508 m -1.039 -0.102 c 0 -0.055 0.027 -0.094 0.063 -0.094 c 0.035 0 0.063 0.039 0.063 0.094 c 0 0.051 -0.027 0.094 -0.063 0.094 c -0.035 0 -0.063 -0.043 -0.063 -0.094 m -0.227 -1.063 c -0.043 -0.109 0.027 -0.234 0.105 -0.188 c 0.078 0.051 0.074 0.277 -0.004 0.277 c -0.035 0 -0.082 -0.039 -0.102 -0.09 m -3.898 -0.094 c 0 -0.035 0.043 -0.063 0.094 -0.063 c 0.051 0 0.094 0.027 0.094 0.063 c 0 0.031 -0.043 0.063 -0.094 0.063 c -0.051 0 -0.094 -0.031 -0.094 -0.063 m 4.887 -0.258 c 0.023 -0.273 0.113 -0.297 0.113 -0.027 c 0 0.121 -0.027 0.223 -0.063 0.223 c -0.035 0 -0.059 -0.09 -0.051 -0.195 m -4.387 0.008 c 0 -0.035 0.043 -0.063 0.094 -0.063 c 0.051 0 0.094 0.027 0.094 0.063 c 0 0.031 -0.043 0.063 -0.094 0.063 c -0.051 0 -0.094 -0.031 -0.094 -0.063 m 3.07 -0.363 c -0.066 -0.129 -0.254 -0.359 -0.414 -0.508 c -0.199 -0.184 -0.273 -0.289 -0.23 -0.332 c 0.047 -0.043 0.156 0.012 0.355 0.172 c 0.344 0.281 0.531 0.531 0.531 0.707 c 0 0.227 -0.117 0.207 -0.242 -0.039 m -2.57 0.113 c 0 -0.035 0.043 -0.063 0.094 -0.063 c 0.051 0 0.094 0.027 0.094 0.063 c 0 0.031 -0.043 0.063 -0.094 0.063 c -0.051 0 -0.094 -0.031 -0.094 -0.063 m 0.5 -0.25 c 0 -0.035 0.043 -0.063 0.094 -0.063 c 0.051 0 0.094 0.027 0.094 0.063 c 0 0.031 -0.043 0.063 -0.094 0.063 c -0.051 0 -0.094 -0.031 -0.094 -0.063" fill="#26170c"/></svg>