<svg xmlns="http://www.w3.org/2000/svg" viewBox="0 0 16 16"><g fill="#ff4500"><path d="m 10.566 5.578 c 0 0.762 -0.613 1.383 -1.371 1.383 c -0.758 0 -1.371 -0.621 -1.371 -1.383 c 0 -0.766 0.613 -1.383 1.371 -1.383 c 0.758 0 1.371 0.617 1.371 1.383"/><path d="m 10.73 10.434 c 0 0.766 -0.617 1.383 -1.371 1.383 c -0.758 0 -1.371 -0.621 -1.371 -1.383 c 0 -0.766 0.613 -1.383 1.371 -1.383 c 0.758 0 1.371 0.621 1.371 1.383"/><path d="m 5.473 7.777 c 0 0.762 -0.617 1.383 -1.371 1.383 c -0.758 0 -1.371 -0.621 -1.371 -1.383 c 0 -0.766 0.613 -1.383 1.371 -1.383 c 0.754 0 1.371 0.617 1.371 1.383"/></g><path d="m 1.676 3.32 c -7.895 11.883 17.285 19.2 13.949 3.84 c -1.418 -6.348 -10.328 -10.199 -13.949 -3.84" fill="#dbcaa3"/><path d="m 7.445 12.449 c -0.133 -0.105 -0.582 -0.477 -0.996 -0.82 c -0.465 -0.383 -0.797 -0.605 -0.863 -0.582 c -0.059 0.02 -0.172 0.16 -0.25 0.309 c -0.316 0.59 -0.816 0.789 -0.754 0.301 c 0.074 -0.59 0.07 -0.602 -0.23 -0.574 c -0.398 0.031 -0.453 -0.035 -0.25 -0.293 c 0.34 -0.438 0.414 -0.656 0.414 -1.23 c 0 -0.301 0.023 -0.582 0.055 -0.621 c 0.031 -0.039 0.195 -0.133 0.367 -0.207 c 0.391 -0.164 0.453 -0.234 0.477 -0.539 c 0.02 -0.234 0.016 -0.242 -0.227 -0.219 c -0.266 0.023 -0.266 0.02 -0.148 -0.41 c 0.02 -0.066 -0.039 -0.113 -0.156 -0.129 c -0.277 -0.039 -0.32 -0.121 -0.176 -0.332 c 0.125 -0.188 0.125 -0.195 -0.004 -0.289 c -0.074 -0.051 -0.172 -0.105 -0.219 -0.121 c -0.047 -0.016 -0.008 -0.105 0.098 -0.215 l 0.18 -0.188 l -0.18 -0.188 c -0.105 -0.109 -0.145 -0.195 -0.098 -0.211 c 0.047 -0.016 0.145 -0.074 0.219 -0.125 c 0.121 -0.086 0.129 -0.117 0.039 -0.273 c -0.121 -0.219 -0.055 -0.332 0.188 -0.332 c 0.176 0 0.184 -0.016 0.137 -0.285 l -0.051 -0.285 l 0.246 0.02 c 0.227 0.02 0.246 0.004 0.246 -0.188 c 0 -0.23 0.109 -0.297 0.32 -0.188 c 0.109 0.055 0.164 0.051 0.227 -0.023 c 0.047 -0.055 0.082 -0.125 0.074 -0.156 c -0.043 -0.234 0.188 -0.348 0.273 -0.133 c 0.023 0.059 0.105 0.105 0.184 0.105 c 0.133 0 0.152 -0.031 0.168 -0.281 c 0.008 -0.137 0.301 -0.141 0.301 0 c 0 0.055 0.082 0.141 0.184 0.188 c 0.156 0.078 0.164 0.094 0.055 0.137 c -0.07 0.023 -0.18 0.004 -0.242 -0.043 c -0.094 -0.078 -0.133 -0.066 -0.23 0.066 c -0.086 0.125 -0.16 0.152 -0.32 0.121 c -0.16 -0.031 -0.211 -0.008 -0.238 0.102 c -0.023 0.082 -0.125 0.152 -0.254 0.18 c -0.117 0.023 -0.242 0.105 -0.281 0.191 c -0.039 0.086 -0.145 0.164 -0.23 0.176 c -0.113 0.016 -0.168 0.078 -0.184 0.211 c -0.016 0.113 -0.09 0.219 -0.18 0.258 c -0.117 0.047 -0.156 0.125 -0.148 0.281 c 0.008 0.176 -0.023 0.223 -0.156 0.238 c -0.188 0.027 -0.223 0.191 -0.055 0.25 c 0.16 0.059 0.133 0.313 -0.039 0.363 c -0.184 0.059 -0.191 0.25 -0.008 0.25 c 0.078 0 0.18 0.047 0.23 0.105 c 0.078 0.086 0.07 0.129 -0.027 0.234 c -0.164 0.176 -0.152 0.223 0.066 0.223 c 0.199 0 0.301 0.145 0.227 0.32 c -0.063 0.164 -0.035 0.211 0.117 0.188 c 0.211 -0.035 0.371 0.125 0.32 0.316 c -0.039 0.152 -0.031 0.156 0.141 0.082 c 0.199 -0.086 0.406 0.012 0.406 0.199 c 0 0.117 0.035 0.121 0.227 0.008 c 0.133 -0.078 0.172 -0.066 0.301 0.086 c 0.086 0.102 0.168 0.141 0.199 0.098 c 0.086 -0.125 0.289 -0.16 0.422 -0.066 c 0.105 0.078 0.148 0.07 0.266 -0.039 c 0.152 -0.148 0.32 -0.168 0.395 -0.055 c 0.031 0.047 0.086 0.012 0.137 -0.086 c 0.047 -0.098 0.164 -0.176 0.27 -0.188 c 0.105 -0.012 0.215 -0.086 0.258 -0.176 c 0.039 -0.086 0.145 -0.168 0.234 -0.18 c 0.105 -0.016 0.168 -0.07 0.168 -0.152 c 0 -0.211 0.082 -0.355 0.199 -0.355 c 0.082 0 0.098 -0.047 0.066 -0.176 c -0.035 -0.125 -0.004 -0.215 0.109 -0.324 c 0.113 -0.109 0.133 -0.172 0.074 -0.227 c -0.117 -0.109 -0.102 -0.301 0.031 -0.402 c 0.098 -0.082 0.094 -0.102 -0.039 -0.191 c -0.156 -0.105 -0.199 -0.336 -0.074 -0.41 c 0.125 -0.07 0.082 -0.176 -0.07 -0.176 c -0.164 0 -0.277 -0.262 -0.156 -0.375 c 0.133 -0.129 0.09 -0.195 -0.098 -0.148 c -0.105 0.023 -0.199 0.004 -0.238 -0.055 c -0.09 -0.129 -0.078 -0.559 0.012 -0.527 c 0.039 0.012 0.063 0.105 0.051 0.207 c -0.027 0.199 0.156 0.305 0.383 0.219 c 0.109 -0.039 0.121 -0.004 0.102 0.23 c -0.02 0.238 0 0.277 0.148 0.297 c 0.211 0.027 0.285 0.188 0.152 0.34 c -0.082 0.098 -0.066 0.133 0.117 0.273 c 0.207 0.16 0.211 0.168 0.082 0.352 c -0.148 0.219 -0.113 0.289 0.086 0.188 c 0.105 -0.055 0.184 -0.047 0.305 0.035 c 0.199 0.133 0.379 0.078 0.379 -0.109 c 0 -0.234 0.152 -0.25 0.332 -0.035 l 0.168 0.203 l 0.191 -0.168 c 0.195 -0.176 0.223 -0.16 0.281 0.168 c 0.02 0.109 0.082 0.141 0.281 0.141 c 0.25 0 0.254 0.008 0.234 0.266 c -0.012 0.148 0.004 0.266 0.039 0.266 c 0.035 0 0.125 0.043 0.203 0.098 c 0.133 0.094 0.133 0.105 0.012 0.281 c -0.105 0.152 -0.109 0.207 -0.031 0.328 c 0.078 0.121 0.07 0.18 -0.035 0.359 c -0.156 0.262 -0.164 0.406 -0.027 0.555 c 0.113 0.125 0.227 1.266 0.137 1.387 c -0.031 0.043 -0.289 0.223 -0.57 0.402 c -0.285 0.18 -0.617 0.465 -0.738 0.633 c -0.258 0.348 -0.887 0.691 -1.262 0.691 c -0.309 0 -0.781 0.152 -1.566 0.5 c -0.34 0.152 -0.625 0.273 -0.641 0.273 c -0.012 0 -0.133 -0.086 -0.266 -0.195 m 1.477 -0.621 c 0.512 -0.246 1.48 -0.746 2.148 -1.109 c 0.926 -0.504 1.219 -0.695 1.238 -0.813 c 0.031 -0.215 -0.086 -0.203 -0.93 0.121 c -0.82 0.313 -1.527 0.523 -1.641 0.484 c -0.043 -0.012 0.203 -0.176 0.551 -0.363 c 0.348 -0.188 0.633 -0.352 0.633 -0.371 c 0 -0.016 -0.652 0.285 -1.453 0.668 c -0.801 0.387 -1.527 0.719 -1.613 0.746 c -0.125 0.039 -0.441 -0.148 -1.512 -0.883 c -0.742 -0.508 -1.391 -0.961 -1.441 -1 c -0.051 -0.039 -0.094 -0.055 -0.094 -0.035 c 0 0.016 0.266 0.242 0.59 0.504 c 0.324 0.262 0.59 0.508 0.59 0.555 c 0 0.043 -0.074 0.152 -0.16 0.242 c -0.137 0.141 -0.148 0.188 -0.07 0.324 c 0.051 0.086 0.215 0.246 0.363 0.348 c 0.148 0.105 0.566 0.402 0.926 0.656 c 0.469 0.332 0.699 0.453 0.801 0.422 c 0.074 -0.023 0.559 -0.246 1.074 -0.496 m -0.875 -0.855 c 0.168 -0.109 0.168 -0.121 0.035 -0.172 c -0.18 -0.066 -0.695 -0.078 -0.695 -0.016 c 0 0.098 0.25 0.309 0.363 0.309 c 0.066 0 0.199 -0.055 0.297 -0.121 m -2.797 -0.715 c 0 -0.109 -0.281 -0.313 -0.363 -0.262 c -0.043 0.023 -0.078 0.105 -0.078 0.184 c 0 0.105 0.051 0.137 0.223 0.137 c 0.121 0 0.219 -0.027 0.219 -0.059 m 4.715 -1.035 c 0 -0.016 -0.074 -0.066 -0.164 -0.109 c -0.16 -0.074 -0.16 -0.074 -0.023 0.031 c 0.148 0.117 0.188 0.133 0.188 0.078 m -0.367 -0.211 c 0 -0.02 -0.074 -0.066 -0.168 -0.109 c -0.156 -0.074 -0.16 -0.074 -0.023 0.031 c 0.152 0.117 0.191 0.133 0.191 0.078 m 0.832 -1.34 c -0.039 -0.344 -0.023 -0.398 0.148 -0.563 c 0.223 -0.215 0.59 -0.246 0.844 -0.074 c 0.09 0.063 0.199 0.09 0.246 0.063 c 0.098 -0.059 -0.27 -0.406 -0.445 -0.426 c -0.063 -0.004 -0.172 -0.031 -0.238 -0.059 c -0.066 -0.027 -0.145 -0.016 -0.168 0.023 c -0.027 0.043 -0.133 0.078 -0.23 0.078 c -0.098 0 -0.18 0.035 -0.18 0.082 c 0 0.047 -0.063 0.148 -0.141 0.23 c -0.172 0.18 -0.203 0.496 -0.074 0.797 c 0.16 0.375 0.285 0.293 0.238 -0.152 m 0.715 0.031 c 0 -0.039 -0.051 -0.07 -0.113 -0.07 c -0.059 0 -0.109 0.031 -0.109 0.07 c 0 0.039 0.051 0.07 0.109 0.07 c 0.063 0 0.113 -0.031 0.113 -0.07 m -4.539 0.391 c -0.332 -0.137 -0.344 -0.199 -0.113 -0.508 c 0.297 -0.387 0.363 -0.426 0.883 -0.473 c 0.441 -0.043 0.484 -0.035 0.793 0.176 c 0.375 0.262 0.406 0.418 0.121 0.609 c -0.449 0.301 -1.219 0.391 -1.684 0.195 m 0.762 -0.387 c 0.254 -0.117 0.461 -0.242 0.461 -0.285 c 0 -0.043 -0.18 -0.074 -0.426 -0.074 c -0.379 0 -0.453 0.027 -0.637 0.207 c -0.211 0.211 -0.203 0.359 0.02 0.359 c 0.066 0 0.332 -0.094 0.582 -0.207 m -1.75 -0.445 c -0.078 -0.129 -0.145 -0.262 -0.141 -0.301 c 0 -0.039 0.051 0.02 0.113 0.129 c 0.145 0.258 0.383 0.23 0.563 -0.066 c 0.117 -0.195 0.121 -0.266 0.043 -0.602 c -0.094 -0.414 -0.305 -0.699 -0.516 -0.699 c -0.078 0 -0.145 0.066 -0.168 0.16 c -0.086 0.391 -0.105 0.418 -0.074 0.09 c 0.02 -0.191 0.066 -0.379 0.102 -0.41 c 0.039 -0.039 0.203 0.023 0.406 0.156 c 0.285 0.191 0.336 0.262 0.336 0.457 c 0 0.129 0.039 0.336 0.082 0.457 c 0.074 0.207 0.063 0.25 -0.188 0.539 c -0.148 0.176 -0.305 0.32 -0.34 0.32 c -0.039 0 -0.137 -0.105 -0.219 -0.23 m 2.766 -0.344 c -0.285 -0.25 -0.332 -0.328 -0.297 -0.488 c 0.023 -0.102 0.008 -0.277 -0.035 -0.387 c -0.07 -0.172 -0.051 -0.234 0.117 -0.469 c 0.387 -0.535 0.523 -0.531 0.816 0.016 c 0.289 0.539 0.199 1.543 -0.141 1.605 c -0.07 0.012 -0.277 -0.113 -0.461 -0.277 m 0.449 0.023 c 0.242 -0.152 0.164 -1.01 -0.113 -1.246 c -0.113 -0.098 -0.141 -0.098 -0.285 0 c -0.137 0.09 -0.164 0.176 -0.164 0.508 c 0 0.336 0.031 0.426 0.199 0.594 c 0.215 0.215 0.238 0.223 0.363 0.145 m -3.43 -0.27 c 0.004 -0.082 0.023 -0.098 0.047 -0.043 c 0.02 0.051 0.02 0.113 -0.008 0.137 c -0.023 0.023 -0.039 -0.02 -0.039 -0.094 m 1.469 -0.027 c -0.195 -0.191 -0.184 -0.438 0.031 -0.629 c 0.227 -0.207 0.531 -0.176 0.723 0.07 c 0.352 0.453 -0.336 0.957 -0.754 0.559 m 0.555 -0.277 c 0 -0.289 -0.184 -0.438 -0.363 -0.293 c -0.242 0.191 -0.086 0.594 0.215 0.555 c 0.113 -0.016 0.145 -0.074 0.145 -0.262 m 0.098 -1.047 c 0.082 -0.07 0.172 -0.195 0.199 -0.285 c 0.035 -0.125 0.008 -0.172 -0.148 -0.23 c -0.277 -0.098 -0.734 -0.086 -1.031 0.035 c -0.289 0.113 -0.316 0.207 -0.129 0.414 c 0.109 0.113 0.082 0.109 -0.145 -0.031 c -0.152 -0.094 -0.277 -0.211 -0.277 -0.262 c 0 -0.164 0.734 -0.438 1.188 -0.438 c 0.484 0 0.875 0.113 0.875 0.258 c 0 0.148 -0.445 0.66 -0.574 0.66 c -0.074 0 -0.063 -0.035 0.043 -0.121 m 0.832 -0.969 c -0.063 -0.066 -0.063 -0.113 -0.012 -0.145 c 0.043 -0.023 0.078 -0.012 0.078 0.031 c 0 0.039 0.07 0.074 0.152 0.074 c 0.082 0 0.129 0.031 0.105 0.07 c -0.066 0.102 -0.227 0.086 -0.324 -0.031 m -0.555 -0.246 c -0.023 -0.035 0.023 -0.047 0.105 -0.027 c 0.172 0.043 0.195 0.094 0.043 0.094 c -0.059 0 -0.125 -0.031 -0.148 -0.066 m 0.438 -0.148 c -0.023 -0.039 -0.012 -0.07 0.031 -0.07 c 0.043 0 0.078 0.031 0.078 0.07 c 0 0.039 -0.016 0.074 -0.031 0.074 c -0.02 0 -0.055 -0.035 -0.078 -0.074 m -0.734 -0.207 c -0.055 -0.082 0.086 -0.168 0.184 -0.109 c 0.082 0.051 0.027 0.176 -0.074 0.176 c -0.035 0 -0.086 -0.027 -0.109 -0.066" fill="#6ca3c7"/><path d="m 7.445 12.449 c -0.133 -0.105 -0.582 -0.477 -0.996 -0.82 c -0.465 -0.383 -0.797 -0.605 -0.863 -0.582 c -0.059 0.02 -0.172 0.16 -0.25 0.309 c -0.316 0.59 -0.816 0.789 -0.754 0.301 c 0.074 -0.59 0.07 -0.602 -0.23 -0.574 c -0.398 0.031 -0.453 -0.035 -0.25 -0.293 c 0.34 -0.438 0.414 -0.656 0.414 -1.23 c 0 -0.301 0.023 -0.582 0.055 -0.621 c 0.031 -0.039 0.195 -0.133 0.367 -0.207 c 0.391 -0.164 0.453 -0.234 0.477 -0.539 c 0.02 -0.234 0.016 -0.242 -0.227 -0.219 c -0.266 0.023 -0.266 0.02 -0.148 -0.41 c 0.02 -0.066 -0.039 -0.113 -0.156 -0.129 c -0.277 -0.039 -0.32 -0.121 -0.176 -0.332 c 0.125 -0.188 0.125 -0.195 -0.004 -0.289 c -0.074 -0.051 -0.172 -0.105 -0.219 -0.121 c -0.047 -0.016 -0.008 -0.105 0.098 -0.215 l 0.18 -0.188 l -0.18 -0.188 c -0.105 -0.109 -0.145 -0.195 -0.098 -0.211 c 0.047 -0.016 0.145 -0.074 0.219 -0.125 c 0.121 -0.086 0.129 -0.117 0.039 -0.273 c -0.121 -0.219 -0.055 -0.332 0.188 -0.332 c 0.176 0 0.184 -0.016 0.137 -0.285 l -0.051 -0.285 l 0.246 0.02 c 0.227 0.02 0.246 0.004 0.246 -0.188 c 0 -0.23 0.109 -0.297 0.32 -0.188 c 0.109 0.055 0.164 0.051 0.227 -0.023 c 0.047 -0.055 0.082 -0.125 0.074 -0.156 c -0.043 -0.234 0.188 -0.348 0.273 -0.133 c 0.023 0.059 0.105 0.105 0.184 0.105 c 0.133 0 0.152 -0.031 0.168 -0.281 c 0.008 -0.137 0.301 -0.141 0.301 0 c 0 0.055 0.082 0.141 0.184 0.188 c 0.156 0.078 0.164 0.094 0.055 0.137 c -0.07 0.023 -0.18 0.004 -0.242 -0.043 c -0.094 -0.078 -0.133 -0.066 -0.23 0.066 c -0.086 0.125 -0.16 0.152 -0.32 0.121 c -0.16 -0.031 -0.211 -0.008 -0.238 0.102 c -0.023 0.082 -0.125 0.152 -0.254 0.18 c -0.117 0.023 -0.242 0.105 -0.281 0.191 c -0.039 0.086 -0.145 0.164 -0.23 0.176 c -0.113 0.016 -0.168 0.078 -0.184 0.211 c -0.016 0.113 -0.09 0.219 -0.18 0.258 c -0.117 0.047 -0.156 0.125 -0.148 0.281 c 0.008 0.176 -0.023 0.223 -0.156 0.238 c -0.188 0.027 -0.223 0.191 -0.055 0.25 c 0.16 0.059 0.133 0.313 -0.039 0.363 c -0.184 0.059 -0.191 0.25 -0.008 0.25 c 0.078 0 0.18 0.047 0.23 0.105 c 0.078 0.086 0.07 0.129 -0.027 0.234 c -0.164 0.176 -0.152 0.223 0.066 0.223 c 0.199 0 0.301 0.145 0.227 0.32 c -0.063 0.164 -0.035 0.211 0.117 0.188 c 0.211 -0.035 0.371 0.125 0.32 0.316 c -0.039 0.152 -0.031 0.156 0.141 0.082 c 0.199 -0.086 0.406 0.012 0.406 0.199 c 0 0.117 0.035 0.121 0.227 0.008 c 0.133 -0.078 0.172 -0.066 0.301 0.086 c 0.086 0.102 0.168 0.141 0.199 0.098 c 0.086 -0.125 0.289 -0.16 0.422 -0.066 c 0.105 0.078 0.148 0.07 0.266 -0.039 c 0.152 -0.148 0.32 -0.168 0.395 -0.055 c 0.031 0.047 0.086 0.012 0.137 -0.086 c 0.047 -0.098 0.164 -0.176 0.27 -0.188 c 0.105 -0.012 0.215 -0.086 0.258 -0.176 c 0.039 -0.086 0.145 -0.168 0.234 -0.18 c 0.105 -0.016 0.168 -0.07 0.168 -0.152 c 0 -0.211 0.082 -0.355 0.199 -0.355 c 0.082 0 0.098 -0.047 0.066 -0.176 c -0.035 -0.125 -0.004 -0.215 0.109 -0.324 c 0.113 -0.109 0.133 -0.172 0.074 -0.227 c -0.117 -0.109 -0.102 -0.301 0.031 -0.402 c 0.098 -0.082 0.094 -0.102 -0.039 -0.191 c -0.156 -0.105 -0.199 -0.336 -0.074 -0.41 c 0.125 -0.07 0.082 -0.176 -0.07 -0.176 c -0.164 0 -0.277 -0.262 -0.156 -0.375 c 0.133 -0.129 0.09 -0.195 -0.098 -0.148 c -0.105 0.023 -0.199 0.004 -0.238 -0.055 c -0.09 -0.129 -0.078 -0.559 0.012 -0.527 c 0.039 0.012 0.063 0.105 0.051 0.207 c -0.027 0.199 0.156 0.305 0.383 0.219 c 0.109 -0.039 0.121 -0.004 0.102 0.23 c -0.02 0.238 0 0.277 0.148 0.297 c 0.211 0.027 0.285 0.188 0.152 0.34 c -0.082 0.098 -0.066 0.133 0.117 0.273 c 0.207 0.16 0.211 0.168 0.082 0.352 c -0.148 0.219 -0.113 0.289 0.086 0.188 c 0.105 -0.055 0.184 -0.047 0.305 0.035 c 0.199 0.133 0.379 0.078 0.379 -0.109 c 0 -0.234 0.152 -0.25 0.332 -0.035 l 0.168 0.203 l 0.191 -0.168 c 0.195 -0.176 0.223 -0.16 0.281 0.168 c 0.02 0.109 0.082 0.141 0.281 0.141 c 0.25 0 0.254 0.008 0.234 0.266 c -0.012 0.148 0.004 0.266 0.039 0.266 c 0.035 0 0.125 0.043 0.203 0.098 c 0.133 0.094 0.133 0.105 0.012 0.281 c -0.105 0.152 -0.109 0.207 -0.031 0.328 c 0.078 0.121 0.07 0.18 -0.035 0.359 c -0.156 0.262 -0.164 0.406 -0.027 0.555 c 0.113 0.125 0.227 1.266 0.137 1.387 c -0.031 0.043 -0.289 0.223 -0.57 0.402 c -0.285 0.18 -0.617 0.465 -0.738 0.633 c -0.258 0.348 -0.887 0.691 -1.262 0.691 c -0.309 0 -0.781 0.152 -1.566 0.5 c -0.34 0.152 -0.625 0.273 -0.641 0.273 c -0.012 0 -0.133 -0.086 -0.266 -0.195 m 2.559 -1.152 c 1.172 -0.625 2.176 -1.168 2.227 -1.207 c 0.125 -0.102 0.113 -0.34 -0.02 -0.34 c -0.059 0 -0.434 0.125 -0.832 0.277 c -0.816 0.313 -1.527 0.523 -1.641 0.488 c -0.043 -0.016 0.184 -0.164 0.5 -0.336 c 0.523 -0.281 0.895 -0.586 0.902 -0.734 c 0 -0.035 -0.164 -0.039 -0.363 -0.012 c -0.344 0.043 -0.398 0.027 -0.902 -0.273 c -0.773 -0.457 -0.824 -0.461 -1.535 -0.121 c -0.711 0.34 -1.109 0.371 -1.832 0.137 c -0.383 -0.125 -0.48 -0.188 -0.547 -0.355 c -0.09 -0.227 -0.074 -0.227 -0.84 -0.02 c -0.602 0.164 -0.543 0.324 0.406 1.086 c 0.254 0.207 0.461 0.41 0.461 0.461 c 0 0.047 -0.07 0.145 -0.152 0.219 c -0.082 0.07 -0.141 0.188 -0.129 0.258 c 0.027 0.148 1.883 1.605 2.051 1.609 c 0.063 0 1.074 -0.512 2.246 -1.137 m -4.754 -1.039 c 0 -0.109 -0.281 -0.309 -0.363 -0.262 c -0.043 0.023 -0.078 0.105 -0.078 0.184 c 0 0.105 0.051 0.137 0.223 0.137 c 0.121 0 0.219 -0.027 0.219 -0.059 m 5.18 -2.586 c -0.039 -0.344 -0.023 -0.398 0.148 -0.563 c 0.223 -0.215 0.59 -0.246 0.844 -0.074 c 0.09 0.063 0.199 0.09 0.246 0.063 c 0.098 -0.059 -0.27 -0.406 -0.445 -0.426 c -0.063 -0.004 -0.172 -0.031 -0.238 -0.059 c -0.066 -0.027 -0.145 -0.016 -0.168 0.023 c -0.027 0.043 -0.133 0.078 -0.23 0.078 c -0.098 0 -0.18 0.035 -0.18 0.082 c 0 0.047 -0.063 0.148 -0.141 0.23 c -0.172 0.18 -0.203 0.496 -0.074 0.801 c 0.16 0.371 0.285 0.289 0.238 -0.156 m 0.715 0.031 c 0 -0.039 -0.051 -0.07 -0.113 -0.07 c -0.059 0 -0.109 0.031 -0.109 0.07 c 0 0.039 0.051 0.07 0.109 0.07 c 0.063 0 0.113 -0.031 0.113 -0.07 m -4.539 0.391 c -0.332 -0.137 -0.344 -0.199 -0.113 -0.508 c 0.297 -0.387 0.363 -0.426 0.883 -0.473 c 0.441 -0.043 0.484 -0.035 0.793 0.176 c 0.375 0.262 0.406 0.418 0.121 0.609 c -0.449 0.301 -1.219 0.391 -1.684 0.195 m 0.762 -0.387 c 0.254 -0.117 0.461 -0.242 0.461 -0.285 c 0 -0.043 -0.18 -0.074 -0.426 -0.074 c -0.379 0 -0.453 0.027 -0.637 0.207 c -0.211 0.211 -0.203 0.359 0.02 0.359 c 0.066 0 0.332 -0.094 0.582 -0.207 m -1.75 -0.445 c -0.078 -0.129 -0.145 -0.262 -0.141 -0.301 c 0 -0.039 0.051 0.02 0.113 0.129 c 0.145 0.258 0.383 0.23 0.563 -0.066 c 0.117 -0.195 0.121 -0.266 0.043 -0.602 c -0.094 -0.41 -0.305 -0.695 -0.512 -0.695 c -0.082 0 -0.148 0.063 -0.172 0.156 c -0.086 0.391 -0.105 0.418 -0.074 0.094 c 0.02 -0.195 0.066 -0.379 0.102 -0.414 c 0.039 -0.039 0.203 0.027 0.406 0.156 c 0.285 0.191 0.336 0.262 0.336 0.457 c 0 0.129 0.039 0.336 0.082 0.457 c 0.074 0.207 0.063 0.25 -0.188 0.543 c -0.148 0.172 -0.305 0.316 -0.34 0.316 c -0.039 0 -0.137 -0.105 -0.219 -0.23 m 2.766 -0.344 c -0.285 -0.25 -0.332 -0.328 -0.297 -0.488 c 0.023 -0.102 0.008 -0.277 -0.035 -0.387 c -0.07 -0.172 -0.051 -0.234 0.117 -0.469 c 0.387 -0.535 0.523 -0.531 0.816 0.016 c 0.289 0.539 0.199 1.543 -0.141 1.605 c -0.07 0.012 -0.277 -0.113 -0.461 -0.277 m 0.449 0.023 c 0.242 -0.152 0.164 -1.01 -0.113 -1.246 c -0.113 -0.098 -0.141 -0.098 -0.285 0 c -0.137 0.09 -0.164 0.176 -0.164 0.508 c 0 0.336 0.031 0.426 0.199 0.594 c 0.215 0.215 0.238 0.223 0.363 0.145 m -3.43 -0.27 c 0.004 -0.082 0.023 -0.098 0.047 -0.043 c 0.02 0.051 0.02 0.113 -0.008 0.137 c -0.023 0.023 -0.039 -0.02 -0.039 -0.094 m 1.469 -0.027 c -0.195 -0.191 -0.184 -0.438 0.031 -0.629 c 0.227 -0.207 0.531 -0.176 0.727 0.07 c 0.348 0.453 -0.34 0.957 -0.758 0.559 m 0.555 -0.277 c 0 -0.289 -0.184 -0.438 -0.363 -0.293 c -0.242 0.191 -0.086 0.594 0.215 0.555 c 0.113 -0.016 0.145 -0.074 0.145 -0.262 m 0.098 -1.047 c 0.082 -0.07 0.172 -0.195 0.199 -0.285 c 0.035 -0.125 0.008 -0.172 -0.148 -0.23 c -0.277 -0.098 -0.734 -0.086 -1.031 0.035 c -0.289 0.113 -0.316 0.207 -0.129 0.414 c 0.109 0.113 0.082 0.109 -0.145 -0.031 c -0.152 -0.094 -0.277 -0.211 -0.277 -0.262 c 0 -0.164 0.734 -0.434 1.188 -0.438 c 0.484 0 0.875 0.113 0.875 0.258 c 0 0.148 -0.445 0.66 -0.574 0.66 c -0.074 0 -0.063 -0.035 0.043 -0.121 m 0.832 -0.965 c -0.059 -0.07 -0.063 -0.117 -0.012 -0.148 c 0.043 -0.023 0.078 -0.012 0.078 0.031 c 0 0.039 0.07 0.074 0.152 0.074 c 0.082 0 0.129 0.031 0.105 0.07 c -0.066 0.102 -0.227 0.086 -0.324 -0.027 m -0.555 -0.25 c -0.023 -0.035 0.023 -0.047 0.105 -0.027 c 0.172 0.043 0.195 0.094 0.043 0.094 c -0.059 0 -0.125 -0.031 -0.148 -0.066 m 0.438 -0.148 c -0.023 -0.035 -0.012 -0.07 0.031 -0.07 c 0.043 0 0.078 0.035 0.078 0.07 c 0 0.039 -0.016 0.074 -0.031 0.074 c -0.02 0 -0.055 -0.035 -0.078 -0.074 m -0.734 -0.207 c -0.055 -0.082 0.086 -0.168 0.184 -0.109 c 0.082 0.051 0.027 0.176 -0.074 0.176 c -0.035 0 -0.086 -0.027 -0.109 -0.066" fill="#ab9770"/><path d="m 7.449 12.453 c -0.133 -0.109 -0.582 -0.477 -0.992 -0.816 c -0.41 -0.34 -0.801 -0.613 -0.863 -0.613 c -0.066 0 -0.188 0.129 -0.273 0.289 c -0.172 0.324 -0.477 0.629 -0.633 0.629 c -0.082 0 -0.094 -0.094 -0.055 -0.473 l 0.051 -0.469 l -0.305 0.039 c -0.363 0.047 -0.449 -0.039 -0.25 -0.254 c 0.211 -0.223 0.371 -0.543 0.422 -0.832 c 0.082 -0.496 0.504 -0.398 1.141 0.254 c 0.152 0.156 0.168 0.207 0.09 0.324 c -0.047 0.074 -0.09 0.195 -0.09 0.266 c 0 0.141 1.898 1.637 2.078 1.637 c 0.137 0 4.324 -2.23 4.527 -2.41 c 0.16 -0.145 0.281 -0.09 0.207 0.09 c -0.02 0.055 -0.332 0.281 -0.688 0.504 c -0.359 0.227 -0.688 0.488 -0.73 0.582 c -0.129 0.27 -0.602 0.523 -1.172 0.625 c -0.289 0.055 -0.867 0.246 -1.285 0.43 c -0.418 0.184 -0.801 0.348 -0.848 0.367 c -0.047 0.02 -0.195 -0.055 -0.332 -0.168 m -2.094 -1.824 c 0.172 -0.164 0.145 -0.258 -0.145 -0.527 l -0.266 -0.246 l -0.141 0.168 c -0.199 0.234 -0.176 0.375 0.098 0.559 c 0.281 0.188 0.305 0.191 0.453 0.047 m 5.668 -1.01 c 0.191 -0.203 0.145 -0.242 -0.246 -0.188 c -0.348 0.043 -0.395 0.031 -0.867 -0.27 c -0.727 -0.461 -0.852 -0.473 -1.57 -0.125 c -0.711 0.34 -1.109 0.371 -1.832 0.137 c -0.383 -0.125 -0.48 -0.188 -0.547 -0.355 c -0.09 -0.227 -0.07 -0.227 -0.844 -0.016 c -0.332 0.09 -0.387 0.129 -0.375 0.262 c 0.008 0.086 -0.02 0.23 -0.059 0.328 c -0.07 0.168 -0.074 0.168 -0.121 -0.078 c -0.07 -0.352 -0.02 -0.43 0.352 -0.578 c 0.176 -0.07 0.379 -0.188 0.453 -0.262 c 0.07 -0.078 0.184 -0.141 0.25 -0.141 c 0.066 0 0.16 -0.035 0.207 -0.082 c 0.133 -0.125 0.32 0.059 0.266 0.27 c -0.035 0.133 -0.016 0.168 0.102 0.168 c 0.082 0 0.168 -0.047 0.191 -0.105 c 0.066 -0.168 0.262 -0.125 0.313 0.07 c 0.055 0.219 0.195 0.227 0.352 0.016 l 0.117 -0.156 l 0.172 0.195 c 0.18 0.207 0.262 0.184 0.371 -0.109 c 0.055 -0.152 0.148 -0.156 0.27 -0.016 c 0.145 0.164 0.281 0.125 0.309 -0.09 c 0.023 -0.191 0.121 -0.227 0.43 -0.152 c 0.082 0.023 0.109 -0.031 0.109 -0.219 c 0 -0.234 0.012 -0.246 0.238 -0.23 c 0.25 0.02 0.32 -0.09 0.156 -0.246 c -0.121 -0.113 0.051 -0.301 0.277 -0.301 c 0.207 0 0.219 -0.047 0.055 -0.219 c -0.148 -0.16 -0.09 -0.328 0.129 -0.359 c 0.219 -0.027 0.27 -0.195 0.074 -0.246 c -0.18 -0.043 -0.215 -0.305 -0.047 -0.305 c 0.063 0 0.109 0.047 0.109 0.105 c 0 0.059 0.066 0.105 0.141 0.105 c 0.148 0 0.23 0.133 0.23 0.359 c 0 0.094 -0.051 0.137 -0.172 0.137 c -0.258 0 -0.289 0.074 -0.113 0.258 c 0.133 0.133 0.141 0.18 0.066 0.27 c -0.055 0.059 -0.145 0.109 -0.203 0.109 c -0.152 0 -0.074 0.172 0.094 0.199 c 0.238 0.039 0.281 0.133 0.156 0.316 c -0.137 0.203 -0.09 0.285 0.113 0.18 c 0.18 -0.09 0.379 0.051 0.328 0.234 c -0.047 0.168 0.059 0.223 0.172 0.094 c 0.133 -0.152 0.375 -0.133 0.422 0.035 c 0.051 0.191 0.141 0.176 0.195 -0.035 c 0.055 -0.195 0.313 -0.246 0.477 -0.09 c 0.07 0.07 0.086 0.035 0.07 -0.16 c -0.023 -0.23 -0.008 -0.246 0.215 -0.27 c 0.262 -0.023 0.309 -0.109 0.121 -0.207 c -0.141 -0.078 -0.105 -0.324 0.051 -0.352 c 0.168 -0.031 0.297 0.484 0.172 0.699 c -0.129 0.223 -0.125 0.414 0.012 0.559 c 0.086 0.09 0.109 0.238 0.09 0.57 l -0.023 0.449 l -0.063 -0.301 c -0.035 -0.164 -0.07 -0.301 -0.082 -0.301 c -0.008 0 -0.301 0.129 -0.645 0.285 c -0.707 0.316 -0.793 0.336 -0.617 0.152 m -4.148 -1.563 c -0.137 -0.082 -0.145 -0.074 0.457 -0.34 c 0.578 -0.258 0.664 -0.418 0.203 -0.375 c -0.082 0.004 -0.078 -0.012 0.02 -0.07 c 0.07 -0.039 0.191 -0.055 0.27 -0.031 c 0.211 0.063 0.52 0.316 0.52 0.426 c 0 0.191 -1.254 0.527 -1.469 0.391 m 4.27 -0.285 c 0 -0.098 -0.051 -0.141 -0.156 -0.141 c -0.109 0 -0.141 0.031 -0.113 0.105 c 0.055 0.137 -0.125 0.137 -0.242 0.004 c -0.25 -0.285 0.121 -0.75 0.523 -0.652 c 0.352 0.086 0.441 0.598 0.129 0.754 c -0.117 0.063 -0.141 0.051 -0.141 -0.07 m 0.887 -0.594 c -0.055 -0.066 -0.078 -0.137 -0.051 -0.164 c 0.07 -0.066 0.215 0.09 0.18 0.191 c -0.02 0.059 -0.059 0.051 -0.129 -0.027 m -4.551 -0.98 c -0.082 -0.207 -0.078 -0.215 0.02 -0.09 c 0.094 0.117 0.148 0.32 0.086 0.32 c -0.012 0 -0.059 -0.102 -0.105 -0.23 m 0.645 -0.328 c 0 -0.129 0.391 -0.637 0.488 -0.641 c 0.086 0 0.32 0.414 0.32 0.57 c 0 0.055 -0.066 0.027 -0.172 -0.063 c -0.215 -0.195 -0.238 -0.195 -0.457 0.031 c -0.102 0.102 -0.18 0.148 -0.18 0.102 m 1.43 -0.082 c -0.027 -0.043 -0.016 -0.109 0.023 -0.145 c 0.047 -0.047 0.086 -0.02 0.113 0.074 c 0.039 0.152 -0.051 0.203 -0.137 0.07 m -3.422 -0.762 c 0 -0.039 0.035 -0.09 0.074 -0.117 c 0.043 -0.023 0.074 -0.012 0.074 0.027 c 0 0.039 -0.031 0.09 -0.074 0.117 c -0.039 0.023 -0.074 0.012 -0.074 -0.027 m 1.621 -0.094 c 0 -0.137 -0.207 -0.195 -0.734 -0.203 c -0.352 -0.004 -0.383 -0.016 -0.223 -0.078 c 0.219 -0.086 1.016 -0.031 1.129 0.078 c 0.059 0.055 0.047 0.109 -0.047 0.195 c -0.109 0.109 -0.125 0.109 -0.125 0.008 m -0.992 -1.262 c 0.055 -0.082 0.258 -0.09 0.258 -0.012 c 0 0.031 -0.066 0.063 -0.148 0.066 c -0.082 0.008 -0.133 -0.02 -0.109 -0.055 m 0.773 -0.023 c 0.047 -0.047 0.098 -0.047 0.145 0 c 0.047 0.043 0.023 0.066 -0.07 0.066 c -0.098 0 -0.121 -0.023 -0.074 -0.066" fill="#56778d"/><path d="m 7.645 12.574 c -0.023 -0.039 0.023 -0.07 0.109 -0.07 c 0.086 0 0.137 0.031 0.113 0.07 c -0.027 0.039 -0.074 0.074 -0.113 0.074 c -0.035 0 -0.082 -0.035 -0.109 -0.074 m -3.01 -1.105 l 0.051 -0.469 l -0.305 0.039 c -0.363 0.047 -0.449 -0.039 -0.254 -0.25 c 0.246 -0.27 0.371 -0.504 0.422 -0.805 c 0.094 -0.523 0.492 -0.449 1.137 0.215 l 0.176 0.18 l -0.164 0.305 c -0.434 0.816 -0.781 1.25 -1.016 1.254 c -0.074 0.004 -0.082 -0.105 -0.047 -0.469 m 0.723 -0.84 c 0.172 -0.164 0.145 -0.258 -0.145 -0.527 l -0.266 -0.246 l -0.141 0.168 c -0.199 0.234 -0.176 0.375 0.098 0.559 c 0.281 0.188 0.305 0.191 0.453 0.047 m 4.352 0.953 c 0.555 -0.316 1.656 -0.859 1.656 -0.816 c 0 0.055 -0.813 0.539 -1.297 0.77 c -0.746 0.359 -0.953 0.387 -0.359 0.047 m 2.672 -2.043 c -0.094 -0.223 -0.113 -0.426 -0.051 -0.465 c 0.094 -0.055 0.156 0.133 0.125 0.371 c -0.02 0.129 -0.043 0.164 -0.074 0.094 m -7.777 -0.176 c 0.004 -0.117 0.02 -0.156 0.039 -0.09 c 0.02 0.07 0.016 0.164 -0.004 0.215 c -0.02 0.047 -0.035 -0.008 -0.035 -0.125 m 5.289 -0.223 c -0.539 -0.32 -1.258 -0.66 -1.398 -0.66 c -0.039 0 -0.074 0.059 -0.074 0.133 c 0 0.07 -0.051 0.172 -0.113 0.223 c -0.09 0.074 -0.141 0.063 -0.281 -0.066 c -0.18 -0.16 -0.262 -0.129 -0.363 0.152 c -0.066 0.176 -0.188 0.152 -0.289 -0.059 c -0.059 -0.125 -0.129 -0.172 -0.219 -0.148 c -0.148 0.039 -0.18 -0.059 -0.047 -0.137 c 0.051 -0.031 0.152 0.031 0.246 0.141 c 0.164 0.199 0.246 0.172 0.355 -0.117 c 0.055 -0.148 0.148 -0.156 0.27 -0.016 c 0.145 0.164 0.281 0.125 0.309 -0.09 c 0.023 -0.191 0.121 -0.227 0.43 -0.152 c 0.082 0.023 0.109 -0.031 0.109 -0.219 c 0 -0.234 0.012 -0.246 0.238 -0.227 c 0.25 0.016 0.32 -0.094 0.156 -0.25 c -0.121 -0.113 0.051 -0.301 0.277 -0.301 c 0.207 0 0.219 -0.047 0.055 -0.219 c -0.148 -0.16 -0.09 -0.328 0.129 -0.355 c 0.219 -0.031 0.27 -0.199 0.074 -0.25 c -0.09 -0.023 -0.156 -0.094 -0.156 -0.172 c 0 -0.18 0.121 -0.168 0.172 0.02 c 0.027 0.105 0.082 0.141 0.188 0.113 c 0.152 -0.039 0.23 0.063 0.23 0.305 c 0 0.098 -0.051 0.137 -0.172 0.137 c -0.258 0 -0.289 0.078 -0.113 0.258 c 0.133 0.133 0.141 0.18 0.066 0.27 c -0.051 0.059 -0.145 0.109 -0.203 0.109 c -0.152 0 -0.074 0.172 0.098 0.199 c 0.234 0.043 0.281 0.133 0.152 0.316 c -0.137 0.203 -0.09 0.285 0.113 0.184 c 0.18 -0.094 0.379 0.047 0.328 0.23 c -0.047 0.168 0.059 0.227 0.172 0.094 c 0.133 -0.152 0.375 -0.133 0.422 0.035 c 0.051 0.191 0.141 0.176 0.199 -0.035 c 0.051 -0.195 0.309 -0.246 0.473 -0.09 c 0.07 0.07 0.086 0.035 0.07 -0.16 c -0.02 -0.23 -0.008 -0.246 0.215 -0.266 c 0.262 -0.027 0.313 -0.113 0.125 -0.211 c -0.156 -0.082 -0.105 -0.324 0.07 -0.355 c 0.105 -0.02 0.125 0.004 0.086 0.117 c -0.023 0.078 -0.012 0.16 0.031 0.188 c 0.121 0.07 0.09 0.281 -0.07 0.461 c -0.172 0.188 -0.172 0.18 -0.07 0.355 c 0.059 0.105 0.051 0.137 -0.027 0.137 c -0.059 0 -0.191 0.066 -0.297 0.145 c -0.145 0.109 -1.27 0.563 -1.398 0.563 c -0.008 0 -0.266 -0.148 -0.566 -0.328 m -3.129 -0.168 c -0.066 -0.105 -0.004 -0.156 0.152 -0.129 c 0.117 0.023 0.117 0.031 0.012 0.117 c -0.082 0.063 -0.129 0.066 -0.164 0.012 m -0.664 -0.211 c -0.023 -0.039 -0.008 -0.07 0.035 -0.07 c 0.043 0 0.078 0.031 0.078 0.07 c 0 0.039 -0.016 0.07 -0.035 0.07 c -0.016 0 -0.051 -0.031 -0.078 -0.07 m 0.406 -0.211 c -0.094 -0.059 -0.094 -0.07 0.02 -0.07 c 0.07 0 0.129 0.031 0.129 0.07 c 0 0.086 -0.008 0.086 -0.148 0 m -1.105 -0.066 c 0 -0.043 0.059 -0.098 0.129 -0.117 c 0.07 -0.023 0.191 -0.07 0.27 -0.109 c 0.102 -0.055 0.164 -0.047 0.25 0.035 c 0.148 0.145 0.125 0.164 -0.297 0.223 c -0.246 0.035 -0.352 0.027 -0.352 -0.031 m 1.492 -0.406 c -0.145 -0.055 -0.031 -0.164 0.168 -0.164 c 0.203 0 0.242 0.105 0.066 0.168 c -0.066 0.023 -0.125 0.043 -0.129 0.039 c -0.008 -0.004 -0.055 -0.023 -0.105 -0.043 m 4.309 -0.332 c 0.02 -0.105 -0.012 -0.18 -0.086 -0.207 c -0.184 -0.07 -0.355 0.023 -0.313 0.172 c 0.043 0.156 -0.047 0.172 -0.168 0.031 c -0.25 -0.285 0.121 -0.75 0.523 -0.652 c 0.344 0.082 0.441 0.598 0.141 0.75 c -0.113 0.059 -0.125 0.043 -0.098 -0.094 m -3.105 0.02 c 0.035 -0.055 -0.043 -0.07 -0.258 -0.051 c -0.266 0.023 -0.293 0.016 -0.18 -0.063 c 0.07 -0.051 0.152 -0.09 0.184 -0.09 c 0.027 0 0.063 -0.066 0.078 -0.148 l 0.023 -0.148 l 0.203 0.152 c 0.227 0.172 0.258 0.32 0.086 0.383 c -0.168 0.063 -0.195 0.055 -0.137 -0.035 m 3.949 -0.574 c -0.105 -0.098 -0.117 -0.195 -0.023 -0.195 c 0.066 0 0.18 0.215 0.133 0.258 c -0.012 0.012 -0.063 -0.016 -0.109 -0.063 m -3.918 -1.371 c 0 -0.086 0.41 -0.586 0.484 -0.59 c 0.066 0 0.16 0.133 0.316 0.457 c 0.016 0.039 -0.055 -0.004 -0.16 -0.094 l -0.191 -0.168 l -0.227 0.215 c -0.121 0.117 -0.223 0.199 -0.223 0.18 m 1.434 -0.031 c -0.027 -0.039 -0.035 -0.09 -0.016 -0.105 c 0.02 -0.02 0.055 0.012 0.078 0.074 c 0.051 0.125 0.008 0.145 -0.063 0.031 m -1.785 -0.984 c -0.074 -0.113 -0.074 -0.141 0.016 -0.141 c 0.137 0 0.223 0.137 0.141 0.219 c -0.039 0.035 -0.105 0.004 -0.156 -0.078 m -0.973 -1.141 c 0 -0.031 0.047 -0.059 0.109 -0.059 c 0.059 0 0.109 0.027 0.109 0.059 c 0 0.031 -0.051 0.059 -0.109 0.059 c -0.063 0 -0.109 -0.027 -0.109 -0.059 m 0.734 -0.016 c 0.047 -0.047 0.098 -0.047 0.145 0 c 0.051 0.043 0.023 0.07 -0.07 0.07 c -0.098 0 -0.121 -0.027 -0.074 -0.07" fill="#9b493d"/><path d="m 7.645 12.574 c -0.023 -0.039 0.023 -0.07 0.109 -0.07 c 0.086 0 0.137 0.031 0.113 0.07 c -0.027 0.039 -0.074 0.074 -0.113 0.074 c -0.035 0 -0.082 -0.035 -0.109 -0.074 m 2.063 -0.992 c 0.555 -0.316 1.656 -0.859 1.656 -0.816 c 0 0.055 -0.813 0.539 -1.297 0.77 c -0.746 0.359 -0.953 0.387 -0.359 0.047 m -5.66 -0.535 c -0.023 -0.027 -0.047 -0.082 -0.047 -0.121 c 0 -0.043 0.035 -0.039 0.086 0.012 c 0.047 0.043 0.07 0.098 0.051 0.117 c -0.023 0.02 -0.063 0.016 -0.09 -0.008 m 1.426 -0.125 c 0 -0.055 0.059 -0.199 0.129 -0.324 l 0.129 -0.219 l -0.293 -0.242 c -0.371 -0.305 -0.555 -0.367 -0.66 -0.223 c -0.043 0.059 -0.121 0.164 -0.172 0.238 c -0.082 0.109 -0.09 0.09 -0.051 -0.156 c 0.055 -0.332 0.027 -0.293 0.258 -0.352 c 0.152 -0.035 0.262 0.023 0.621 0.336 l 0.434 0.379 l -0.168 0.332 c -0.172 0.344 -0.227 0.398 -0.227 0.23 m 6.906 -1.383 c -0.094 -0.223 -0.113 -0.426 -0.051 -0.465 c 0.098 -0.055 0.156 0.133 0.125 0.371 c -0.02 0.129 -0.043 0.164 -0.074 0.094 m -7.777 -0.176 c 0.004 -0.117 0.02 -0.156 0.039 -0.09 c 0.02 0.07 0.016 0.164 -0.004 0.215 c -0.02 0.047 -0.035 -0.012 -0.035 -0.125 m 6.207 -0.117 c 0.219 -0.164 0.156 -0.27 -0.156 -0.273 c -0.086 0 -0.375 -0.176 -0.633 -0.387 c -0.348 -0.285 -0.535 -0.391 -0.699 -0.391 c -0.273 0 -0.375 0.242 -0.184 0.445 c 0.113 0.117 0.094 0.117 -0.23 -0.016 c -0.434 -0.18 -0.488 -0.18 -0.488 -0.012 c 0 0.07 -0.051 0.172 -0.113 0.219 c -0.094 0.078 -0.141 0.066 -0.281 -0.063 c -0.18 -0.16 -0.262 -0.129 -0.363 0.152 c -0.066 0.176 -0.188 0.152 -0.289 -0.059 c -0.059 -0.125 -0.129 -0.172 -0.219 -0.148 c -0.148 0.039 -0.18 -0.059 -0.047 -0.137 c 0.051 -0.031 0.152 0.027 0.246 0.141 c 0.164 0.199 0.246 0.172 0.355 -0.117 c 0.055 -0.152 0.148 -0.156 0.27 -0.016 c 0.145 0.164 0.281 0.125 0.309 -0.09 c 0.023 -0.203 0.164 -0.238 0.457 -0.121 c 0.125 0.051 0.137 0.035 0.098 -0.156 c -0.055 -0.266 0.059 -0.398 0.258 -0.297 c 0.195 0.102 0.25 0.023 0.156 -0.215 c -0.094 -0.242 -0.012 -0.359 0.246 -0.359 c 0.203 0 0.215 -0.047 0.051 -0.219 c -0.148 -0.16 -0.09 -0.328 0.129 -0.355 c 0.219 -0.031 0.27 -0.199 0.074 -0.25 c -0.09 -0.023 -0.156 -0.094 -0.156 -0.172 c 0 -0.18 0.121 -0.168 0.172 0.02 c 0.027 0.105 0.082 0.141 0.188 0.113 c 0.152 -0.039 0.23 0.063 0.23 0.305 c 0 0.094 -0.051 0.137 -0.172 0.137 c -0.258 0 -0.289 0.078 -0.113 0.258 c 0.133 0.133 0.141 0.18 0.066 0.27 c -0.055 0.059 -0.145 0.109 -0.203 0.109 c -0.168 0 -0.066 0.172 0.121 0.199 c 0.172 0.023 0.18 0.137 0.043 0.457 c -0.051 0.117 -0.031 0.125 0.211 0.082 c 0.273 -0.051 0.301 -0.023 0.273 0.262 c -0.02 0.18 0.125 0.219 0.23 0.063 c 0.125 -0.195 0.266 -0.184 0.367 0.031 c 0.094 0.203 0.23 0.199 0.27 -0.008 c 0.043 -0.223 0.141 -0.273 0.34 -0.172 c 0.223 0.117 0.301 0.066 0.195 -0.121 c -0.102 -0.18 0.023 -0.301 0.313 -0.301 h 0.219 l -0.168 -0.172 c -0.184 -0.184 -0.164 -0.391 0.035 -0.391 c 0.082 0 0.105 0.039 0.074 0.133 c -0.027 0.074 -0.012 0.156 0.031 0.18 c 0.121 0.074 0.09 0.285 -0.07 0.461 c -0.172 0.191 -0.172 0.184 -0.074 0.359 c 0.059 0.105 0.055 0.137 -0.023 0.137 c -0.059 0 -0.191 0.063 -0.293 0.145 c -0.16 0.121 -1.07 0.492 -1.207 0.492 c -0.023 0 0.047 -0.07 0.156 -0.152 m -4.047 -0.273 c -0.07 -0.105 -0.004 -0.16 0.152 -0.129 c 0.117 0.02 0.117 0.031 0.012 0.117 c -0.082 0.063 -0.129 0.066 -0.164 0.012 m -0.664 -0.211 c -0.023 -0.039 -0.008 -0.07 0.035 -0.07 c 0.043 0 0.078 0.031 0.078 0.07 c 0 0.039 -0.016 0.07 -0.035 0.07 c -0.016 0 -0.051 -0.031 -0.078 -0.07 m 0.406 -0.211 c -0.094 -0.059 -0.094 -0.07 0.02 -0.07 c 0.07 0 0.129 0.031 0.129 0.07 c 0 0.086 -0.008 0.086 -0.148 0 m -1.105 -0.066 c 0 -0.043 0.059 -0.098 0.129 -0.117 c 0.07 -0.023 0.191 -0.07 0.266 -0.113 c 0.105 -0.051 0.168 -0.043 0.254 0.039 c 0.148 0.145 0.125 0.164 -0.297 0.223 c -0.246 0.035 -0.352 0.027 -0.352 -0.031 m 1.492 -0.406 c -0.145 -0.055 -0.031 -0.164 0.168 -0.164 c 0.203 0 0.242 0.102 0.066 0.168 c -0.066 0.023 -0.125 0.043 -0.129 0.039 c -0.008 -0.004 -0.055 -0.023 -0.105 -0.043 m 4.309 -0.336 c 0.02 -0.102 -0.012 -0.176 -0.086 -0.203 c -0.184 -0.07 -0.355 0.023 -0.313 0.172 c 0.039 0.152 -0.027 0.172 -0.156 0.047 c -0.156 -0.148 -0.105 -0.465 0.09 -0.59 c 0.238 -0.148 0.473 -0.109 0.645 0.113 c 0.109 0.145 0.125 0.219 0.07 0.363 c -0.098 0.238 -0.293 0.316 -0.25 0.098 m -3.105 0.023 c 0.035 -0.055 -0.043 -0.07 -0.258 -0.051 c -0.266 0.023 -0.293 0.016 -0.18 -0.063 c 0.07 -0.051 0.152 -0.09 0.184 -0.09 c 0.027 0 0.063 -0.07 0.078 -0.148 l 0.023 -0.148 l 0.199 0.152 c 0.23 0.172 0.262 0.316 0.09 0.383 c -0.168 0.063 -0.195 0.055 -0.137 -0.035 m 3.949 -0.574 c -0.105 -0.098 -0.117 -0.195 -0.023 -0.195 c 0.066 0 0.18 0.215 0.133 0.254 c -0.012 0.016 -0.063 -0.012 -0.109 -0.059 m -3.918 -1.371 c 0 -0.09 0.41 -0.586 0.484 -0.59 c 0.066 0 0.16 0.133 0.316 0.457 c 0.016 0.039 -0.055 -0.004 -0.16 -0.098 l -0.191 -0.164 l -0.227 0.215 c -0.121 0.117 -0.223 0.199 -0.223 0.18 m 1.434 -0.031 c -0.027 -0.039 -0.035 -0.09 -0.016 -0.109 c 0.02 -0.016 0.055 0.016 0.078 0.078 c 0.051 0.125 0.008 0.145 -0.063 0.031 m -1.785 -0.984 c -0.074 -0.113 -0.074 -0.141 0.016 -0.141 c 0.137 0 0.223 0.137 0.141 0.219 c -0.039 0.035 -0.105 0.004 -0.156 -0.078 m -0.973 -1.141 c 0 -0.031 0.047 -0.059 0.109 -0.059 c 0.059 0 0.109 0.027 0.109 0.059 c 0 0.031 -0.051 0.059 -0.109 0.059 c -0.063 0 -0.109 -0.027 -0.109 -0.059 m 0.734 -0.016 c 0.047 -0.047 0.098 -0.047 0.145 0 c 0.051 0.043 0.023 0.066 -0.07 0.066 c -0.098 0 -0.121 -0.023 -0.074 -0.066" fill="#61534f"/><path d="m 108 135.06 c -1.75 -1.875 -3.187 -2 -6.625 -0.687 c -0.812 0.312 -1.5 -0.125 -2.187 -1.562 c -0.75 -1.687 -1.5 -2.125 -4.187 -2.437 c -2.75 -0.312 -3.25 -0.625 -3.687 -2.375 c -0.875 -3.125 -2.062 -4.125 -4.75 -4.125 c -2.437 0 -2.437 -0.063 -2 -2.75 c 0.375 -2.437 0.187 -2.812 -1.75 -3.937 c -1.187 -0.75 -2.687 -1.312 -3.375 -1.312 c -1.062 0 -1.062 -0.187 -0.063 -2.125 c 0.625 -1.187 1.125 -2.75 1.125 -3.562 c 0 -1.562 -3.187 -4.437 -5 -4.437 c -0.75 -0.062 -0.437 -0.437 0.812 -1.125 c 3.25 -1.75 3.875 -3.75 2.062 -6.187 l -1.562 -2.125 l 2.312 -2.812 c 1.687 -2.187 2.187 -3.312 1.812 -4.687 c -0.312 -1.375 0 -2.125 1.375 -3.187 c 1 -0.812 2.312 -2.625 2.937 -4.062 c 0.625 -1.562 1.937 -3 3.062 -3.5 c 1.062 -0.5 2.562 -1.687 3.375 -2.625 c 0.75 -0.937 2.75 -2.312 4.437 -3 c 1.687 -0.75 3.625 -2.125 4.312 -3.125 c 0.937 -1.562 1.562 -1.75 3.937 -1.437 c 2.375 0.312 3.062 0.125 4.437 -1.5 c 1.875 -2.187 3 -2.375 4.25 -0.812 c 1.437 1.687 3.937 1.25 6.187 -1.125 l 2.125 -2.187 l 1.25 2.5 c 1.687 3.25 3.625 3.875 6.687 2 l 2.5 -1.437 l 0.437 2.437 c 0.562 3.187 2.75 4.75 5.5 3.937 c 2.437 -0.687 2.875 -0.375 2.875 2.25 c 0 2.5 1.687 4.312 4 4.312 c 1.875 0 2 0.312 1.812 4.125 c -0.125 2 0.25 2.625 2.5 3.937 c 1.875 1.062 2.375 1.75 1.875 2.312 c -1.437 1.437 -0.875 4.812 1.062 6.625 l 1.875 1.687 l -1.562 2.187 c -1.437 1.937 -1.5 2.375 -0.687 4.625 c 0.812 2.312 0.75 2.75 -0.625 4.562 c -1 1.187 -1.562 3 -1.562 4.687 c 0 2.125 -0.375 2.812 -1.812 3.5 c -1.375 0.562 -1.937 1.562 -2.312 3.812 c -0.375 2.437 -0.875 3.125 -2.687 3.937 c -1.25 0.5 -3.062 1.812 -4.062 2.875 c -1 1.062 -3 2.437 -4.5 3 c -1.437 0.625 -3.187 1.937 -3.875 2.937 c -0.875 1.312 -1.375 1.625 -2 1 c -1.25 -1.25 -3.75 -0.937 -5.875 0.75 c -1.75 1.375 -2.25 1.437 -4.875 0.687 c -2.375 -0.687 -3.25 -0.687 -5.062 0.25 c -1.25 0.625 -2.312 1.125 -2.437 1.125 c -0.062 0 -0.875 -0.812 -1.875 -1.875 m 18.312 -5.375 c 4.687 -1.375 10 -5.125 10 -7.06 c 0 -1.562 -4.25 -5.687 -8 -7.687 c -3.437 -1.875 -4.125 -2 -8.875 -1.562 c -8.25 0.812 -10.125 1.5 -13.687 5.375 c -5.812 6.187 -6.125 8.312 -1.437 10.562 c 5.375 2.625 13.687 2.75 22 0.375 m -30 -11.312 c 1.375 -1 3.5 -3.375 4.625 -5.25 c 2.062 -3.187 2.125 -3.562 1.687 -9.125 c -0.312 -3.187 -1 -6.812 -1.562 -8.125 c -1.25 -2.687 -10.5 -9.25 -12.12 -8.625 c -1.937 0.75 -3.687 7.687 -3.625 14.562 c 0.062 7.75 2.062 13.75 5.5 16.625 c 1.187 1.062 2.375 1.875 2.625 1.875 c 0.187 0 1.5 -0.875 2.875 -1.937 m 48.12 -5.312 c 2.125 -2.875 3 -9.437 2.062 -15.375 c -1.187 -7.75 -5.687 -15.75 -8.812 -15.75 c -1.687 0 -9.06 8.25 -9.562 10.687 c -0.437 2.187 0.687 11.687 1.687 14.375 c 0.375 0.937 2.687 3.187 5.187 5 c 5.062 3.687 7.25 3.937 9.437 1.062 m -24.75 -4.687 c 4 -2.062 5.437 -6.5 3.562 -10.75 c -1.812 -3.937 -8.875 -5.625 -12.5 -2.937 c -8.125 6 -0.125 18.375 8.937 13.687 m -0.375 -20.687 c 2.125 -0.437 3.812 -1.562 6.312 -4.312 c 3.75 -4 4.875 -6.687 3.5 -8.312 c -2.687 -3.25 -15.06 -4.5 -22.687 -2.25 c -4.75 1.375 -10.687 5.062 -10.687 6.687 c 0 1.5 5 6.25 8.562 8.187 c 2.25 1.25 3.5 1.437 7.375 1.062 c 2.625 -0.25 6.06 -0.687 7.625 -1.062" transform="scale(0.0625 0.0625)" fill="#ab9770" fill-rule="evenodd" stroke="#a3a39c" stroke-width="0.827"/></svg>