<svg xmlns="http://www.w3.org/2000/svg" viewBox="0 0 16 16"><path d="m 69.44 186.06 v -14.188 h 6.06 v 23.313 h 11.188 v 5.063 h -17.25" transform="scale(0.0625)" fill="#fff" fill-rule="evenodd" stroke="#fff" stroke-width="2.778"/><path d="m 7.859 0.301 c -6.934 -1.383 -9.57 8.08 -6.563 13.215 c 2.395 4.094 10.598 2.922 13.656 -2.602 c 3.059 -5.523 -1.527 -9.508 -7.094 -10.613" fill="#e03d3d"/><g fill="#fff" fill-rule="evenodd" stroke="#fff"><path d="m 24.379 157.54 v -14.37 h 6.177 v 23.613 h 11.22 v 5.128 h -17.397" transform="matrix(0.06197 0 0 0.06171 2.384 1.908)" stroke-width="2.808"/><g stroke-width="2.778" transform="scale(0.0625)"><path d="m 54.688 111.44 v -28.875 h 10.563 c 16.25 0 20.813 1 25.19 5.375 c 3.063 3.063 4.5 6.625 4.75 12.13 c 0.313 5.938 -0.938 10.563 -3.75 13.875 c -4 4.688 -8.25 6.125 -17.813 6.125 h -6.25 v 20.313 h -12.688 m 24.563 -31.625 c 2.375 -1.563 3.125 -3.25 3.125 -7.25 c 0 -6.313 -2.5 -8.313 -10.25 -8.313 h -4.75 v 16.875 l 5.25 -0.188 c 3.875 -0.188 5.625 -0.438 6.625 -1.125"/><path d="m 104.94 111.44 v -28.875 h 34 v 11.125 h -21.813 v 11.188 h 20.813 v 10.625 h -20.813 v 24.875 h -12.188"/><path d="m 160.63 140.56 c -1.875 -0.375 -4.813 -1.25 -6.563 -1.875 l -3.188 -1.125 l -0.125 -6 c -0.063 -3.313 0 -5.938 0.25 -5.813 c 0.188 0.125 1.563 0.813 3 1.563 c 4.688 2.438 9.188 3.625 13.875 3.625 c 6.563 0 9.125 -1.938 9.125 -6.813 c 0 -1.688 -0.313 -2.438 -1.625 -3.75 c -1.375 -1.313 -2.813 -1.938 -7.75 -3.313 c -7.813 -2.188 -9.875 -3.063 -12.625 -5.625 c -3.313 -3.063 -4.563 -6.313 -4.563 -11.938 c -0.063 -5.688 1.063 -9.188 3.938 -12.313 c 5.25 -5.688 13.938 -6.875 27.19 -3.75 l 3.813 0.875 l 0.188 6 l 0.125 5.938 l -2.125 -1.063 c -5.125 -2.625 -14.75 -3.813 -18.375 -2.313 c -3.125 1.313 -4.625 4.5 -3.438 7.563 c 0.75 2 3.063 3.125 9.375 4.688 c 13.625 3.313 17.688 7.375 17.625 17.75 c 0 9.875 -3.875 15.625 -12 17.75 c -3.75 0.938 -11.5 0.938 -16.12 -0.063"/><path d="m 152.69 185.5 v -14.25 l 6.938 0.188 c 7.938 0.25 10 0.938 12.813 4.313 c 4.813 5.875 3.688 17.25 -2.188 21.5 c -2.5 1.875 -5.75 2.5 -12.313 2.5 h -5.25 m 12.375 -6.06 c 3.063 -1.5 4.063 -3.5 4.063 -8.125 c 0 -6.188 -2.563 -9.125 -7.938 -9.125 h -2.438 v 18.25 h 2.125 c 1.188 0 3.063 -0.438 4.188 -1"/><path d="m 120.19 195.81 c 0.813 -2.438 2.875 -8.813 4.563 -14.188 l 3.063 -9.75 h 7.375 l 4.25 13.563 c 2.313 7.438 4.375 13.875 4.5 14.188 c 0.125 0.5 -0.625 0.625 -2.813 0.625 h -3 l -0.625 -2.563 l -0.688 -2.5 l -5.313 0.125 l -5.375 0.125 l -0.688 2.438 l -0.688 2.375 h -6 m 16.13 -10.688 c 0 -1.313 -3.188 -11.625 -3.5 -11.25 c -0.188 0.188 -1 2.563 -1.75 5.188 c -0.75 2.688 -1.5 5.25 -1.625 5.75 c -0.25 0.75 0.125 0.875 3.313 0.875 c 2.188 0 3.563 -0.188 3.563 -0.563"/><path d="m 95.06 199.5 c -1.125 -0.375 -3 -1.688 -4.188 -2.938 c -2.813 -3 -3.875 -6.625 -3.563 -12.313 c 0.313 -5.688 2.125 -9.375 5.688 -11.625 c 2.25 -1.375 2.875 -1.563 6.625 -1.563 c 3.75 0 4.375 0.188 6.625 1.563 c 3.563 2.25 5.438 5.938 5.688 11.625 c 0.313 5.938 -0.75 9.438 -3.875 12.563 c -3.375 3.375 -8.25 4.375 -13 2.688 m 8.375 -5.75 c 1.688 -1.688 2.5 -4.375 2.5 -8.188 c 0 -3.75 -0.75 -6.313 -2.438 -8.25 c -1.25 -1.313 -1.75 -1.563 -3.875 -1.563 c -2.063 0 -2.625 0.25 -3.875 1.563 c -3.375 3.813 -3.375 13 0.063 16.438 c 1.188 1.188 1.875 1.438 3.813 1.438 c 1.938 0 2.625 -0.25 3.813 -1.438"/></g></g></svg>