
<svg xmlns="http://www.w3.org/2000/svg" xmlns:xlink="http://www.w3.org/1999/xlink" width="16px" height="16px" viewBox="0 0 16 16" version="1.1">
<g id="surface1">
<path style=" stroke:none;fill-rule:nonzero;fill:rgb(82.745098%,82.745098%,82.745098%);fill-opacity:1;" d="M 7.859375 15.863281 C 0.863281 17.25 -1.792969 7.742188 1.238281 2.582031 C 3.652344 -1.53125 11.925781 -0.355469 15.011719 5.195312 C 18.09375 10.75 13.472656 14.75 7.859375 15.863281 Z M 7.859375 15.863281 "/>
<path style="fill-rule:nonzero;fill:rgb(82.745098%,82.745098%,82.745098%);fill-opacity:1;stroke-width:1.033;stroke-linecap:butt;stroke-linejoin:miter;stroke:rgb(41.176471%,41.176471%,41.176471%);stroke-opacity:1;stroke-miterlimit:4;" d="M 3.081923 44.744206 L 44.075924 44.744206 L 44.075924 3.323012 L 3.081923 3.323012 Z M 3.081923 44.744206 " transform="matrix(0.211921,0,0,0.201248,2.565625,3.284375)"/>
<path style="fill-rule:nonzero;fill:rgb(41.176471%,41.176471%,41.176471%);fill-opacity:1;stroke-width:1;stroke-linecap:butt;stroke-linejoin:miter;stroke:rgb(41.176471%,41.176471%,41.176471%);stroke-opacity:1;stroke-miterlimit:4;" d="M 18.06759 4.080007 L 18.06759 18.171753 L 3.985118 18.171753 L 3.985118 18.521135 L 18.06759 18.521135 L 18.06759 29.584903 L 3.985118 29.584903 L 3.985118 29.934285 L 18.06759 29.934285 L 18.06759 44.006621 L 18.417809 44.006621 L 18.417809 29.934285 L 29.458909 29.934285 L 29.458909 44.006621 L 29.82756 44.006621 L 29.82756 29.934285 L 43.910031 29.934285 L 43.910031 29.584903 L 29.82756 29.584903 L 29.82756 18.521135 L 43.910031 18.521135 L 43.910031 18.171753 L 29.82756 18.171753 L 29.82756 4.080007 L 29.458909 4.080007 L 29.458909 18.171753 L 18.417809 18.171753 L 18.417809 4.080007 Z M 18.417809 18.521135 L 29.458909 18.521135 L 29.458909 29.565493 L 18.417809 29.565493 Z M 18.417809 18.521135 " transform="matrix(0.211921,0,0,0.201248,2.565625,3.284375)"/>
<path style="fill-rule:evenodd;fill:rgb(50.196078%,50.196078%,50.196078%);fill-opacity:1;stroke-width:1;stroke-linecap:butt;stroke-linejoin:miter;stroke:rgb(41.176471%,41.176471%,41.176471%);stroke-opacity:1;stroke-miterlimit:4;" d="M 92.198193 180.590042 C 92.198193 188.715472 85.652154 195.249909 77.578706 195.249909 C 69.450707 195.249909 62.904668 188.715472 62.904668 180.590042 C 62.904668 172.521433 69.450707 165.986996 77.578706 165.986996 C 85.652154 165.986996 92.198193 172.521433 92.198193 180.590042 Z M 92.198193 180.590042 " transform="matrix(0.0716082,0,0,0.0687464,2.069729,-4.313345)"/>
<path style="fill-rule:evenodd;fill:rgb(50.196078%,50.196078%,50.196078%);fill-opacity:1;stroke-width:1;stroke-linecap:butt;stroke-linejoin:miter;stroke:rgb(41.176471%,41.176471%,41.176471%);stroke-opacity:1;stroke-miterlimit:4;" d="M 92.217651 180.609529 C 92.217651 188.684705 85.632854 195.249042 77.535992 195.249042 C 69.487906 195.249042 62.903109 188.684705 62.903109 180.609529 C 62.903109 172.534353 69.487906 165.970016 77.535992 165.970016 C 85.632854 165.970016 92.217651 172.534353 92.217651 180.609529 Z M 92.217651 180.609529 " transform="matrix(0.080085,0,0,0.074979,4.224121,-2.686456)"/>
<path style="fill-rule:evenodd;fill:rgb(50.196078%,50.196078%,50.196078%);fill-opacity:1;stroke-width:1;stroke-linecap:butt;stroke-linejoin:miter;stroke:rgb(41.176471%,41.176471%,41.176471%);stroke-opacity:1;stroke-miterlimit:4;" d="M 92.181971 180.611113 C 92.181971 188.713432 85.663386 195.245927 77.540225 195.245927 C 69.467207 195.245927 62.898479 188.713432 62.898479 180.611113 C 62.898479 172.508794 69.467207 165.976299 77.540225 165.976299 C 85.663386 165.976299 92.181971 172.508794 92.181971 180.611113 Z M 92.181971 180.611113 " transform="matrix(0.0779023,0,0,0.0771384,-1.134308,-8.424241)"/>
<path style="fill-rule:evenodd;fill:rgb(50.196078%,50.196078%,50.196078%);fill-opacity:1;stroke-width:1;stroke-linecap:butt;stroke-linejoin:miter;stroke:rgb(41.176471%,41.176471%,41.176471%);stroke-opacity:1;stroke-miterlimit:4;" d="M 92.180314 180.603102 C 92.180314 188.701619 85.631696 195.231047 77.536161 195.231047 C 69.440625 195.231047 62.892007 188.701619 62.892007 180.603102 C 62.892007 172.504586 69.492189 165.975157 77.536161 165.975157 C 85.631696 165.975157 92.180314 172.504586 92.180314 180.603102 Z M 92.180314 180.603102 " transform="matrix(0.0757555,0,0,0.0771746,4.559804,-8.492665)"/>
</g>
</svg>
