<svg xmlns="http://www.w3.org/2000/svg" xmlns:xlink="http://www.w3.org/1999/xlink" viewBox="0 0 16 16"><defs><g id="14" clip-path="url(#13)"><path d="m 182 285.6 c 0.023 2.658 -2.754 5.096 -5.882 5.084 c -3.403 -0.06 -6.06 -2.378 -6.08 -5.04 c 0.029 -2.914 2.754 -5.096 5.935 -5.34 c 3.403 0.06 6.06 2.378 6.03 5.292" transform="matrix(0.01373 -0.00255 0.00282 0.01472 2.9 5.773)" fill="none" stroke="url(#12)" stroke-linejoin="round" stroke-linecap="round"/></g><g id="19" clip-path="url(#18)"><path d="m 6.211 9.508 c 0.008 0.047 -0.023 0.09 -0.074 0.098 c -0.047 0.012 -0.094 -0.02 -0.105 -0.063 c -0.008 -0.047 0.027 -0.09 0.074 -0.098 c 0.051 -0.008 0.098 0.02 0.105 0.063" fill="url(#17)"/></g><clipPath id="s"><path d="m 5.59 9.492 c 0.039 -0.066 0.109 -0.137 0.191 -0.211 c 0.008 -0.008 0.047 -0.02 0.047 -0.02 c 0 0 0 -0.023 0.012 -0.031 c 0.145 -0.125 0.313 -0.242 0.43 -0.32 c 0.059 -0.039 0.27 -0.078 0.309 -0.066 c 0.07 0.027 0.168 0.07 0.301 0.145 c 0.074 0.07 0.199 0.203 0.262 0.266 c 0.023 0.023 -0.012 0.066 -0.012 0.066 c 0 0 0.027 -0.016 0.063 -0.012 c 0.023 0 0.152 0.074 0.152 0.074 c 0.047 0.074 0.109 0.125 0.125 0.168 c 0.004 0.02 -0.258 0.195 -0.375 0.305 c -0.035 0.035 -0.07 0.063 -0.059 0.113 c 0.023 0.09 0.211 0.258 0.254 0.441 c 0.035 0.152 -0.023 0.301 -0.023 0.301"/></clipPath><clipPath id="18"><path d="M 0,0 H16 V16 H0 z"/></clipPath><clipPath id="13"><path d="M 0,0 H16 V16 H0 z"/></clipPath><clipPath id="r"><path d="m 5 9 h 3 v 1 h -3"/></clipPath><clipPath id="1A"><path d="m 3 8 h 7 v 5 h -7"/></clipPath><clipPath id="1B"><path d="m 2.477 7.461 l 0.133 0.688 c 2.047 1.371 5.457 3.883 7.121 5.121 l 2.199 -0.41 l -1.324 -6.91"/></clipPath><filter id="10" filterUnits="objectBoundingBox" x="0" y="0" width="16" height="16"><feColorMatrix type="matrix" in="SourceGraphic" values="0 0 0 0 1 0 0 0 0 1 0 0 0 0 1 0 0 0 1 0"/></filter><linearGradient id="f" gradientUnits="userSpaceOnUse" x1="178.75" y1="123.7" x2="181.4" y2="126.37" gradientTransform="matrix(0.02103 -0.00391 0.00432 0.02255 1.184 3.775)" xlink:href="#Y"/><linearGradient id="d" gradientUnits="userSpaceOnUse" x1="192.66" y1="151.42" x2="205.24" y2="138.85" gradientTransform="matrix(0.02103 -0.00391 0.00432 0.02255 1.184 3.775)"><stop stop-color="#000" stop-opacity="0.4"/><stop offset="0.359" stop-color="#000" stop-opacity="0"/><stop offset="0.719" stop-color="#000" stop-opacity="0"/><stop offset="1" stop-color="#000" stop-opacity="0.325"/></linearGradient><linearGradient id="g" gradientUnits="userSpaceOnUse" x1="167.66" y1="112.53" x2="165.69" y2="110.49" gradientTransform="matrix(0.02103 -0.00391 0.00432 0.02255 1.184 3.775)"><stop stop-color="#000" stop-opacity="0.4"/><stop offset="1" stop-color="#000" stop-opacity="0"/></linearGradient><linearGradient id="i" gradientUnits="userSpaceOnUse" x1="160.45" y1="130.75" x2="173.33" y2="118.17" spreadMethod="reflect" gradientTransform="matrix(0.02103 -0.00391 0.00432 0.02255 1.184 3.775)"><stop stop-color="#787d7f"/><stop offset="0.5" stop-color="#3f4344"/><stop offset="1" stop-color="#37393b"/></linearGradient><linearGradient id="a" gradientUnits="userSpaceOnUse" x1="133.28" y1="149.85" x2="163.64" y2="205.57" gradientTransform="matrix(0.02103 -0.00391 0.00432 0.02255 2.829 4.403)"><stop stop-color="#fb6162"/><stop offset="1" stop-color="#a81212"/></linearGradient><linearGradient id="Y" gradientUnits="userSpaceOnUse" x1="282.63" y1="229.37" x2="311.99" y2="231.77" gradientTransform="matrix(0.02103 -0.00391 0.00432 0.02255 1.184 3.775)"><stop stop-color="#000" stop-opacity="0.6"/><stop offset="1" stop-color="#000" stop-opacity="0"/></linearGradient><linearGradient id="c" gradientUnits="userSpaceOnUse" x1="147.87" y1="93.44" x2="339.92" y2="287.33" gradientTransform="matrix(0.02103 -0.00391 0.00432 0.02255 1.184 3.775)"><stop stop-color="#7a7e84"/><stop offset="0.073" stop-color="#404346"/><stop offset="0.16" stop-color="#252628"/><stop offset="0.194" stop-color="#3d3e42"/><stop offset="1" stop-color="#272829"/></linearGradient><linearGradient id="Z" gradientUnits="userSpaceOnUse" x1="96.73" y1="220.66" x2="165.64" y2="268.21" gradientTransform="matrix(0.02103 -0.00391 0.00432 0.02255 2.657 3.501)"><stop stop-color="#90a309"/><stop offset="1" stop-color="#758506"/></linearGradient><linearGradient id="1D" gradientUnits="userSpaceOnUse" x1="139.68" y1="281.31" x2="177.07" y2="318.61" spreadMethod="reflect" gradientTransform="matrix(0.02103 -0.00391 0.00432 0.02255 1.184 3.775)"><stop stop-color="#5b7285"/><stop offset="0.221" stop-color="#20292f"/><stop offset="1" stop-color="#000"/></linearGradient><linearGradient id="k" gradientUnits="userSpaceOnUse" x1="266.29" y1="213.64" x2="264.08" y2="207.99" gradientTransform="matrix(0.02103 -0.00391 0.00432 0.02255 1.184 3.775)"><stop stop-color="#000" stop-opacity="0.8"/><stop offset="1" stop-color="#000" stop-opacity="0"/></linearGradient><linearGradient id="1C" gradientUnits="userSpaceOnUse" x1="64.12" x2="323.04" gradientTransform="matrix(0.02103 -0.00391 0.00432 0.02255 1.184 3.775)"><stop stop-color="#d40000"/><stop offset="1" stop-color="#ec2828"/></linearGradient><linearGradient id="x" gradientUnits="userSpaceOnUse" x1="245.25" y1="279.1" x2="260.88" y2="320.53" gradientTransform="matrix(0.02103 -0.00391 0.00432 0.02255 -0.288 4.049)"><stop stop-color="#cdecf4"/><stop offset="1" stop-color="#62848c"/></linearGradient><linearGradient id="l" gradientUnits="userSpaceOnUse" x1="287.39" y1="235.36" x2="290.34" y2="241" gradientTransform="matrix(0.02103 -0.00391 0.00432 0.02255 1.184 3.775)" xlink:href="#Y"/><linearGradient id="z" gradientUnits="userSpaceOnUse" x1="174.01" y1="280.84" x2="179.25" y2="300.47" xlink:href="#x"/><linearGradient id="15" gradientUnits="userSpaceOnUse" x1="178.48" y1="280.23" x2="178.78" y2="291.09"><stop stop-color="#fff" stop-opacity="0.62"/><stop offset="1" stop-color="#fff" stop-opacity="0"/></linearGradient><linearGradient id="12" gradientUnits="userSpaceOnUse" x1="178.48" y1="280.23" x2="178.78" y2="291.09"><stop stop-color="#000" stop-opacity="0.62"/><stop offset="1" stop-color="#000" stop-opacity="0"/></linearGradient><linearGradient id="v" gradientUnits="userSpaceOnUse" x1="283.96" y1="302.1" x2="249.81" y2="242.26"><stop stop-color="#000"/><stop offset="1" stop-color="#000" stop-opacity="0"/></linearGradient><linearGradient id="o" gradientUnits="userSpaceOnUse" x1="280.12" y1="256.29" x2="298.36" y2="235.58" gradientTransform="matrix(0.02103 -0.00391 0.00432 0.02255 1.271 4.226)"><stop stop-color="#92b7bb"/><stop offset="1" stop-color="#cfdfe2"/></linearGradient><linearGradient id="u" gradientUnits="userSpaceOnUse" x1="268.77" y1="274.15" x2="285.61" y2="299.02"><stop stop-color="#959595"/><stop offset="0.074" stop-color="#c9c9c9" stop-opacity="0.91"/><stop offset="0.11" stop-color="#191919"/><stop offset="1" stop-color="#474747"/></linearGradient><linearGradient id="p" gradientUnits="userSpaceOnUse" x1="252.41" y1="267.45" x2="287.82" y2="332.83" gradientTransform="matrix(0.02103 -0.00391 0.00432 0.02255 -0.288 4.049)"><stop stop-color="#fffffc"/><stop offset="0.203" stop-color="#d2f4f5"/><stop offset="0.5" stop-color="#8facb3"/><stop offset="1" stop-color="#95aab0"/></linearGradient><linearGradient id="t" gradientUnits="userSpaceOnUse" x1="345.03" x2="375.21" spreadMethod="reflect"><stop stop-color="#fff" stop-opacity="0.8"/><stop offset="1" stop-color="#fff" stop-opacity="0"/></linearGradient><linearGradient id="W" gradientUnits="userSpaceOnUse" x1="357.34" y1="184.32" x2="357.01" y2="208.35" gradientTransform="matrix(0.02103 -0.00391 0.00432 0.02255 1.184 3.775)"><stop stop-color="#582000" stop-opacity="0.702"/><stop offset="1" stop-color="#7e4709" stop-opacity="0.702"/></linearGradient><linearGradient id="b" gradientUnits="userSpaceOnUse" x1="213.2" y1="114.65" x2="263.33" y2="164.78" gradientTransform="matrix(0.02103 -0.00391 0.00432 0.02255 1.4 4.903)" xlink:href="#Y"/><linearGradient id="H" gradientUnits="userSpaceOnUse" x1="308.98" y1="200.51" x2="378.11" y2="256.79" gradientTransform="matrix(0.02103 -0.00391 0.00432 0.02255 1.184 3.775)"><stop stop-color="#2f0b02"/><stop offset="0.365" stop-color="#955f20"/><stop offset="0.679" stop-color="#bf9067"/><stop offset="1" stop-color="#ecc295"/></linearGradient><linearGradient id="K" gradientUnits="userSpaceOnUse" x1="389.39" y1="277.96" x2="380.94" y2="262.43" gradientTransform="matrix(0.02103 -0.00391 0.00432 0.02255 1.184 3.775)"><stop stop-color="#fff"/><stop offset="1" stop-color="#fff" stop-opacity="0"/></linearGradient><linearGradient id="7" gradientUnits="userSpaceOnUse" x1="302.18" y1="156.64" x2="177.76" y2="32.01" xlink:href="#2"/><linearGradient id="B" gradientUnits="userSpaceOnUse" x1="296.47" x2="443.8" gradientTransform="matrix(0.02103 -0.00391 0.00432 0.02255 1.184 3.775)"><stop stop-color="#fbfd5c"/><stop offset="0.613" stop-color="#fc991c"/><stop offset="1" stop-color="#fbb273"/></linearGradient><linearGradient id="6" gradientUnits="userSpaceOnUse" x1="279.42" y1="183.6" x2="182.57" y2="85.93" xlink:href="#2"/><linearGradient id="8" gradientUnits="userSpaceOnUse" x1="328.55" y1="128.48" x2="265.85" y2="66.16" xlink:href="#2"/><linearGradient id="C" gradientUnits="userSpaceOnUse" x1="289.13" y1="13.09" x2="338.76" y2="63.895" gradientTransform="matrix(0.02103 -0.00391 0.00432 0.02255 1.184 3.775)"><stop stop-color="#42a1f4"/><stop offset="1" stop-color="#0a518c"/></linearGradient><linearGradient id="G" gradientUnits="userSpaceOnUse" y1="262.7" x2="0" y2="273.52" gradientTransform="matrix(0.02103 -0.00391 0.00432 0.02255 1.184 3.775)"><stop stop-color="#cff8f5"/><stop offset="1" stop-color="#fff"/></linearGradient><linearGradient id="A" gradientUnits="userSpaceOnUse" x1="315.4" x2="415.27" gradientTransform="matrix(0.02103 -0.00391 0.00432 0.02255 1.184 3.775)"><stop stop-color="#fcfd62"/><stop offset="1" stop-color="#fccc66"/></linearGradient><linearGradient id="9" gradientUnits="userSpaceOnUse" x1="315.92" y1="101.35" x2="443.3" y2="137" gradientTransform="matrix(0.02103 -0.00391 0.00432 0.02255 1.184 3.775)"><stop stop-color="#96edfb"/><stop offset="0.468" stop-color="#2d9af9"/><stop offset="1" stop-color="#76a3d4"/></linearGradient><linearGradient id="E" gradientUnits="userSpaceOnUse" x1="283.27" x2="458.53" gradientTransform="matrix(0.02103 -0.00391 0.00432 0.02255 1.184 3.775)"><stop stop-color="#90e8fd"/><stop offset="0.103" stop-color="#54abe5"/><stop offset="0.528" stop-color="#036bc1"/><stop offset="1" stop-color="#618db9"/></linearGradient><linearGradient id="5" gradientUnits="userSpaceOnUse" x1="233.88" y1="193.79" x2="120.84" y2="79.937" xlink:href="#2"/><linearGradient id="R" gradientUnits="userSpaceOnUse" x1="594.16" x2="623.25" gradientTransform="matrix(0.02103 -0.00391 0.00432 0.02255 -2.602 4.479)"><stop stop-color="#1f1f1f"/><stop offset="1" stop-color="#474747"/></linearGradient><linearGradient id="Q" gradientUnits="userSpaceOnUse" x1="387.65" y1="352.02" x2="411.84" y2="344" gradientTransform="matrix(0.02103 -0.00391 0.00432 0.02255 0.752 1.52)" xlink:href="#K"/><linearGradient id="1" gradientUnits="userSpaceOnUse" x1="420" y1="476" x2="417.1" y2="127.42" gradientTransform="matrix(0.01599 -0.00289 0.00423 0.02175 -5.064 5.078)"><stop stop-color="#63b8e5" stop-opacity="0.2"/><stop offset="1" stop-color="#63b8e5" stop-opacity="0"/></linearGradient><linearGradient id="0" gradientUnits="userSpaceOnUse" x1="-60.855" y1="765.39" x2="91.75" y2="599.68" gradientTransform="matrix(0.01782 -0.0033 0.00388 0.02017 1.21 -0.696)"><stop stop-color="#a4e0ff"/><stop offset="1" stop-color="#fafdff"/></linearGradient><linearGradient id="T" gradientUnits="userSpaceOnUse" x1="340.42" y1="190.22" x2="366.8" y2="214.25" gradientTransform="matrix(0.02103 -0.00391 0.00432 0.02255 1.184 3.775)"><stop stop-color="#e7b87f"/><stop offset="0.908" stop-color="#b58656"/><stop offset="1" stop-color="#b48554"/></linearGradient><linearGradient id="S" gradientUnits="userSpaceOnUse" x1="386.99" y1="168.58" x2="388.5" y2="208.04" gradientTransform="matrix(0.02103 -0.00391 0.00432 0.02255 1.184 3.775)"><stop stop-color="#232323"/><stop offset="1" stop-color="#000"/></linearGradient><linearGradient id="L" gradientUnits="userSpaceOnUse" x1="394.1" y1="269.42" x2="401.77" y2="273.82" gradientTransform="matrix(0.02103 -0.00391 0.00432 0.02255 1.184 3.775)"><stop stop-color="#9d864f"/><stop offset="1" stop-color="#bcaa7d"/></linearGradient><linearGradient id="2" gradientUnits="userSpaceOnUse" x1="172.76" y1="272.88" x2="75.906" y2="175.21"><stop stop-color="#fff" stop-opacity="0.102"/><stop offset="1" stop-color="#fff" stop-opacity="0"/></linearGradient><linearGradient id="3" gradientUnits="userSpaceOnUse" x1="169.72" y1="220.52" x2="72.867" y2="122.85" xlink:href="#2"/><linearGradient id="4" gradientUnits="userSpaceOnUse" x1="193.2" y1="195.58" x2="71.784" y2="69.15" xlink:href="#2"/><mask id="11"><g filter="url(#10)"><path fill-opacity="0.502" d="M 0,0 H16 V16 H0 z"/></g></mask><mask id="16"><g filter="url(#10)"><path fill-opacity="0.4" d="M 0,0 H16 V16 H0 z"/></g></mask><radialGradient id="17" gradientUnits="userSpaceOnUse" cx="176.2" cy="286.57" r="5.969" gradientTransform="matrix(0.01752 -0.00326 0.00339 0.0177 2.071 5.05)"><stop stop-color="#000" stop-opacity="0"/><stop offset="1" stop-color="#000"/></radialGradient><radialGradient id="w" gradientUnits="userSpaceOnUse" cx="267.28" cy="334.3" r="16.873" gradientTransform="matrix(0.02186 0.01226 -0.00636 0.01397 3.052 2.453)"><stop stop-color="#457c8e" stop-opacity="0.6"/><stop offset="0.5" stop-color="#457c8e" stop-opacity="0.249"/><stop offset="1" stop-color="#457c8e" stop-opacity="0"/></radialGradient><radialGradient id="y" gradientUnits="userSpaceOnUse" cx="241.11" cy="288.98" r="8.246" gradientTransform="matrix(0.02018 0.02728 -0.06828 0.05834 20.893 -13.982)"><stop stop-color="#fff"/><stop offset="1" stop-color="#b5effc" stop-opacity="0"/></radialGradient><radialGradient id="q" gradientUnits="userSpaceOnUse" cx="295.79" cy="278.09" r="10.504" gradientTransform="matrix(0.03077 0.01724 -0.06787 0.08259 16.872 -18.916)"><stop stop-color="#457c8e" stop-opacity="0.659"/><stop offset="0.5" stop-color="#457c8e" stop-opacity="0.274"/><stop offset="1" stop-color="#457c8e" stop-opacity="0"/></radialGradient><radialGradient id="M" gradientUnits="userSpaceOnUse" cx="408.05" cy="356.11" r="19.379" gradientTransform="matrix(0.01802 -0.01893 0.02033 0.02197 -3.726 7.825)"><stop stop-color="#fff"/><stop offset="1" stop-color="#e7f5f5"/></radialGradient><radialGradient id="N" gradientUnits="userSpaceOnUse" cx="402.75" cy="233.03" r="1.963" gradientTransform="matrix(0.03272 -0.00609 0.00756 0.03947 -4.277 0.709)"><stop stop-color="#fff"/><stop offset="0.5" stop-color="#fff" stop-opacity="0.702"/><stop offset="1" stop-color="#fff" stop-opacity="0"/></radialGradient><radialGradient id="D" gradientUnits="userSpaceOnUse" cx="626.61" cy="98.27" r="31.829" gradientTransform="matrix(0.02103 -0.00391 0.00562 0.02935 -4.126 4.582)"><stop stop-color="#fc8e31" stop-opacity="0.4"/><stop offset="1" stop-color="#fc8e31" stop-opacity="0"/></radialGradient><radialGradient id="O" gradientUnits="userSpaceOnUse" cx="411.07" cy="355.8" r="13.11" gradientTransform="matrix(0.01618 -0.03307 0.02113 0.01224 -3.237 17.15)"><stop stop-color="#548ee7"/><stop offset="0.5" stop-color="#5b8bd6"/><stop offset="1" stop-color="#3460a3"/></radialGradient><radialGradient id="X" gradientUnits="userSpaceOnUse" cx="392.6" cy="219.34" r="5.262" gradientTransform="matrix(0.02234 0.01258 -0.01917 0.03649 4.996 -5.645)"><stop stop-color="#cfa56f"/><stop offset="1" stop-color="#cfa56f" stop-opacity="0"/></radialGradient><radialGradient id="V" gradientUnits="userSpaceOnUse" cx="358.28" cy="202.06" r="7.697" gradientTransform="matrix(0.02688 -0.00298 0.00126 0.05744 -0.337 -3.641)" xlink:href="#U"/><radialGradient id="P" gradientUnits="userSpaceOnUse" cx="402.75" cy="233.03" r="1.963" gradientTransform="matrix(0.08239 -0.01533 0.01685 0.08796 -26.18 -6.849)"><stop stop-color="#fff"/><stop offset="0.5" stop-color="#fff"/><stop offset="1" stop-color="#fff" stop-opacity="0"/></radialGradient><radialGradient id="e" gradientUnits="userSpaceOnUse" cx="199.87" cy="28.71" r="24.08" gradientTransform="matrix(0.02525 0.02079 -0.00607 0.00902 0.462 1.321)"><stop stop-color="#4c4f4e"/><stop offset="1" stop-color="#4c4f4e" stop-opacity="0"/></radialGradient><radialGradient id="U" gradientUnits="userSpaceOnUse" cx="358.28" cy="202.06" r="7.697" gradientTransform="matrix(0.03598 -0.00519 -0.00477 0.04362 -2.385 -0.169)"><stop stop-color="#9f6945"/><stop offset="1" stop-color="#9f6945" stop-opacity="0"/></radialGradient><radialGradient id="F" gradientUnits="userSpaceOnUse" cx="399.16" cy="167.45" r="42.41" gradientTransform="matrix(0.0263 -0.00714 0.00325 0.01224 -1.04 6.852)"><stop stop-color="#014e8f" stop-opacity="0.702"/><stop offset="1" stop-color="#014e8f" stop-opacity="0"/></radialGradient><radialGradient id="h" gradientUnits="userSpaceOnUse" cx="161.3" cy="53.08" r="6.383" gradientTransform="matrix(0.02071 0.01347 -0.00464 0.00962 1.823 2.777)"><stop stop-color="#fff" stop-opacity="0.6"/><stop offset="0.5" stop-color="#fff" stop-opacity="0.421"/><stop offset="1" stop-color="#fff" stop-opacity="0"/></radialGradient><radialGradient id="n" gradientUnits="userSpaceOnUse" cx="379.11" cy="263.07" r="7.791" gradientTransform="matrix(0.02091 0.00592 -0.00257 0.01159 1.946 3.158)"><stop stop-color="#78a9b9" stop-opacity="0.502"/><stop offset="1" stop-color="#78a9b9" stop-opacity="0"/></radialGradient><radialGradient id="m" gradientUnits="userSpaceOnUse" cx="290.62" cy="278.65" r="28.316" gradientTransform="matrix(0.01623 0.01528 -0.01696 0.02062 8.51 -1.264)"><stop stop-color="#86abb4"/><stop offset="1" stop-color="#bacfd5"/></radialGradient><radialGradient id="J" gradientUnits="userSpaceOnUse" cx="365.55" cy="381.85" r="24.2" gradientTransform="matrix(-0.00679 -0.00963 0.02321 -0.01824 3.71 19.2)"><stop stop-color="#e6cdac"/><stop offset="1" stop-color="#d9b381" stop-opacity="0"/></radialGradient><radialGradient id="I" gradientUnits="userSpaceOnUse" cx="322.71" cy="377.33" r="41.36" gradientTransform="matrix(0.01772 -0.01606 0.01981 0.02459 -3.995 4.807)"><stop stop-color="#684a2c"/><stop offset="1" stop-color="#95693e" stop-opacity="0"/></radialGradient><radialGradient id="j" gradientUnits="userSpaceOnUse" cx="166.67" cy="110.46" r="14.451" gradientTransform="matrix(0.02103 -0.00391 0.00432 0.02255 1.184 3.775)"><stop stop-color="#fff"/><stop offset="0.25" stop-color="#fff"/><stop offset="0.5" stop-color="#fff" stop-opacity="0.741"/><stop offset="1" stop-color="#fff" stop-opacity="0"/></radialGradient></defs><path d="m 7.859 0.137 c -6.996 -1.395 -9.652 8.184 -6.621 13.387 c 2.414 4.148 10.688 2.961 13.773 -2.633 c 3.082 -5.598 -1.539 -9.633 -7.152 -10.754" fill="#acd7e5"/><path d="m 2.895 8.07 l 1.168 6.082 l 5.531 -1.023 c -1.582 -1.242 -5.09 -3.973 -6.699 -5.059" fill="url(#0)"/><path d="m 2.602 8.746 l 1.063 5.473 l 1.473 -0.266 c 0 0 -0.539 -2.777 -2.535 -5.207" fill="url(#1)"/><path d="m 2.996 8.801 c 1.656 2.559 2.203 5.344 2.203 5.344 l 0.039 -0.008 c 0 0 -0.586 -2.777 -2.242 -5.336" fill="#fff" fill-opacity="0.502"/><g fill="none" stroke-width="14"><path d="m 172.53 272.87 l -96.37 -99.51" transform="matrix(0.02103 -0.00391 0.00432 0.02255 1.184 3.775)" stroke="url(#2)"/><path d="m 169.53 220.56 l -96.55 -99.54" transform="matrix(0.02103 -0.00391 0.00432 0.02255 1.184 3.775)" stroke="url(#3)"/><path d="m 193.06 195.54 l -125.96 -129.93" transform="matrix(0.02103 -0.00391 0.00432 0.02255 1.184 3.775)" stroke="url(#4)"/><path d="m 233.72 193.77 l -115.73 -119.15" transform="matrix(0.02103 -0.00391 0.00432 0.02255 1.184 3.775)" stroke="url(#5)"/><path d="m 279.25 183.65 l -96.55 -99.54" transform="matrix(0.02103 -0.00391 0.00432 0.02255 1.184 3.775)" stroke="url(#6)"/><path d="m 302.08 156.61 l -123.52 -124.66" transform="matrix(0.02103 -0.00391 0.00432 0.02255 1.184 3.775)" stroke="url(#7)"/><path d="m 328.3 128.43 l -96.4 -99.34" transform="matrix(0.02103 -0.00391 0.00432 0.02255 1.184 3.775)" stroke="url(#8)"/></g><path d="m 7.277 2.828 c -0.027 0.008 -0.059 0.023 -0.07 0.063 c -0.012 0.035 0.004 0.074 0.027 0.109 c 0 0 0.004 0 0.004 0 c 0.441 0.531 0.738 0.789 0.926 0.918 c 0.094 0.063 0.16 0.094 0.207 0.109 c 0.012 0.004 0.02 0.004 0.027 0.008 l 0.023 0.402 l -0.164 0.551 l -0.168 0.543 c 0 0 -0.004 0.004 -0.004 0.008 l -0.047 0.328 l -0.066 0.031 c -0.004 0.004 -0.008 0.008 -0.012 0.008 l -0.098 0.105 c -0.008 0.008 -0.012 0.016 -0.012 0.023 l -0.043 0.156 c -0.004 0.008 -0.004 0.016 -0.004 0.02 l 0.035 0.273 c 0 0.012 0.004 0.02 0.008 0.023 l 0.168 0.262 c 0.012 0.02 0.031 0.027 0.051 0.023 l 3.453 -0.953 c 0.023 -0.004 0.035 -0.027 0.035 -0.051 l -0.023 -0.332 c 0 -0.004 0 -0.012 -0.004 -0.016 l -0.086 -0.211 c -0.004 -0.008 -0.008 -0.016 -0.012 -0.02 l -0.156 -0.156 c -0.012 -0.008 -0.02 -0.012 -0.031 -0.016 l -0.16 -0.004 l -0.219 -0.266 c 0 -0.004 -0.004 -0.004 -0.004 -0.008 l -0.496 -0.414 c 0 -0.004 -0.004 -0.008 -0.008 -0.008 l -0.828 -0.406 c 0 0 -0.004 -0.004 -0.008 -0.004 l -0.645 -0.172 l -0.055 -0.18 c -0.004 -0.004 -0.004 -0.012 -0.008 -0.016 c 0 0 -0.094 -0.137 -0.309 -0.293 c -0.215 -0.156 -0.551 -0.336 -1.047 -0.438 c -0.059 -0.012 -0.121 -0.02 -0.18 -0.004" fill-opacity="0.6"/><path d="m 8.07 5.957 l 0.063 -0.41 l 0.168 -0.543 l 0.168 -0.559 l -0.023 -0.449 l 0.387 -0.199 l 0.68 0.184 l 0.824 0.402 l 0.496 0.418 l 0.27 0.328" fill="url(#9)"/><path d="m 8.469 4.445 c 0 0 0.559 -0.227 1.043 -0.465 l 0.824 0.402 c -0.914 0.313 -2.035 0.621 -2.035 0.621" fill="url(#A)"/><path d="m 8.133 5.547 l 2.699 -0.746 l 0.27 0.328 l -3.03 0.828" fill="url(#B)"/><path d="m 8.449 3.996 c 0 0 -0.293 0.031 -1.176 -1.027 c -0.078 -0.109 0.07 -0.109 0.176 -0.086 c 0.977 0.195 1.324 0.711 1.324 0.711 l 0.066 0.207" fill="url(#C)"/><path d="m 9.426 4.082 c -0.293 0.055 -0.492 0.363 -0.512 0.746 c 0.34 -0.098 0.777 -0.23 1.195 -0.367 c -0.168 -0.273 -0.426 -0.43 -0.684 -0.379 m 0.859 0.867 l -1.305 0.363 c 0.047 0.133 0.109 0.25 0.188 0.348 l 1.113 -0.305 c 0.023 -0.125 0.023 -0.262 0.004 -0.406" fill="url(#D)"/><path d="m 8.09 5.898 l -0.09 0.047 l -0.102 0.105 l -0.043 0.156 l 0.031 0.273 l 0.172 0.262 l 3.453 -0.949 l -0.023 -0.332 l -0.086 -0.215 l -0.16 -0.156 l -0.188 -0.008" fill="url(#E)"/><path d="m 10.04 5.492 c -0.055 0.012 -0.113 0.023 -0.168 0.039 c -0.617 0.168 -1.055 0.535 -0.98 0.824 c 0.016 0.051 0.043 0.094 0.086 0.133 l 2.141 -0.586 c 0.016 -0.055 0.02 -0.105 0.004 -0.152 c -0.066 -0.262 -0.535 -0.363 -1.082 -0.258" fill="url(#F)"/><path d="m 11.164 6.395 l -3.125 0.742 c 0 0 -0.004 0 -0.004 0 c 0 0 -0.004 0 -0.004 0 c 0 0 0 0.004 0 0.004 c -0.004 0 -0.004 0 -0.004 0 s 0 0 -0.004 0 c 0 0 0 0.004 0 0.004 c 0 0 -0.004 0 -0.004 0 c 0 0.004 0 0.004 -0.004 0.004 c 0 0 0 0.004 0 0.004 c 0 0 -0.004 0 -0.004 0 c 0 0.004 0 0.004 0 0.004 s 0 0 0 0.004 c -0.004 0 -0.004 0 -0.004 0 v 0.004 c 0 0 0 0.004 0 0.004 c 0 0 -0.004 0 -0.004 0.004 c 0 0 0 0.004 0 0.004 c 0 0.004 0 0.004 0 0.004 v 0.004 c 0 0 0 0 0 0.004 c 0 0 0 0.004 0 0.004 c 0 0 0 0 0 0.004 c 0 0 0.004 0.004 0.004 0.004 c 0 0 0 0 0 0.004 l 0.273 0.703 c 0 0 0 0.004 0 0.004 c 0 0 0.004 0.004 0.004 0.004 c 0 0.004 0 0.004 0 0.004 h 0.004 l 0.684 0.863 c 0 0.004 0 0.004 0 0.004 s 0 0 0.004 0 c 0 0 0.082 0.113 0.199 0.219 c 0.055 0.055 0.121 0.105 0.188 0.145 c 0.07 0.035 0.141 0.059 0.211 0.043 c 0.133 -0.027 0.227 -0.152 0.301 -0.203 c 0.109 -0.078 0.301 -0.211 0.301 -0.211 c 0 0 0.004 0 0.004 0 c 0 -0.004 0 -0.004 0 -0.004 c 0.004 0 0.004 -0.004 0.004 -0.004 c 0 0 0.004 -0.004 0.004 -0.004 c 0 0 0 -0.004 0 -0.004 c 0 0 0.004 0 0.004 0 c 0 -0.004 0 -0.004 0 -0.004 v -0.004 c 0 0 0 -0.004 0 -0.004 c 0.004 0 0.004 0 0.004 0 c 0 -0.004 0 -0.004 0 -0.004 s 0 0 0 -0.004 c 0 0 0 -0.004 0 -0.004 c 0 -0.004 0 -0.004 0 -0.004 v -0.004 c 0 -0.004 0 -0.004 0 -0.004 c -0.004 0 -0.004 -0.004 -0.004 -0.004 c 0 0 0 -0.004 0 -0.004 c 0 -0.004 -0.004 -0.004 -0.004 -0.004 c 0 0 0 -0.004 0 -0.004 c 0 0 -0.004 -0.004 -0.004 -0.004 h 0.004 c 0 0 -0.105 -0.148 -0.152 -0.281 l 0.129 0.164 c 0 0 0.004 0 0.004 0 c 0 0.004 0 0.004 0.004 0.004 c 0 0 0 0.004 0 0.004 c 0 0 0.004 0 0.004 0 c 0 0.004 0.004 0.004 0.004 0.004 c 0 0 0 0 0.004 0 c 0 0 0.004 0 0.004 0 c 0 0 0 0.004 0 0.004 c 0 0 0.004 0 0.004 0 c 0 0 0 0 0.004 0 c 0 0 0 0 0.004 0 c 0 0 0.004 0 0.004 0 c 0.004 0 0.004 0 0.004 0 h 0.004 c 0 0 0.004 0 0.004 0 c 0 0 0 -0.004 0 -0.004 c 0 0 0.004 0 0.004 0 c 0.004 0 0.004 0 0.004 0 v -0.004 c 0 0 0.004 0 0.004 0 c 0.004 -0.004 0.004 -0.004 0.004 -0.004 l 0.098 -0.102 c 0 0 0.004 0.004 0.004 0.004 c 0 0 0.004 0 0.004 0.004 c 0 0 0.004 0.004 0.004 0.004 c 0 0 0.004 0 0.004 0 c 0 0.004 0.004 0.004 0.004 0.004 c 0 0 0.004 0 0.004 0 c 0 0 0.004 0 0.004 0 c 0 0 0.004 0 0.004 0.004 c 0 0 0.004 0 0.004 0 c 0 0 0.004 0 0.004 0 c 0 0 0.004 0 0.004 0 c 0.004 0 0.004 -0.004 0.004 -0.004 c 0 0 0.004 0 0.004 0 c 0.004 0 0.004 0 0.004 0 v -0.004 c 0 0 0.004 0 0.004 0 l 0.215 -0.125 l 0.324 0.102 c 0 0 0.004 0 0.004 0 c 0 0 0.004 0 0.004 0 c 0 0 0.004 0 0.004 0 c 0.004 0 0.004 0 0.004 0 h 0.004 c 0 0 0.004 0 0.004 0 c 0 0 0.004 0 0.004 0 c 0 0 0.004 0 0.004 0 c 0 0 0 -0.004 0 -0.004 c 0 0 0.004 0 0.004 0 c 0 0 0.004 0 0.004 -0.004 c 0 0 0.004 0 0.004 0 c 0 0 0 0 0 -0.004 c 0 0 0.004 0 0.004 0 c 0 0 0 -0.004 0 -0.004 c 0 0 0 0 0.004 0 c 0 0 0 -0.004 0 -0.004 c 0 0 0 -0.004 0 -0.004 c 0.004 0 0.004 0 0.004 0 v -0.004 c 0 0 0 -0.004 0 -0.004 c 0.039 -0.121 0.059 -0.32 0.078 -0.5 c 0.008 -0.086 0.016 -0.172 0.027 -0.234 c 0.004 -0.031 0.008 -0.059 0.012 -0.078 c 0 -0.008 0.004 -0.016 0.004 -0.02 c 0 -0.004 0 -0.004 0.004 -0.004 l 0.234 -0.191 c 0 0 0 0.004 0 0.004 c 0 0 0.004 0 0.004 0 c 0.004 0 0.004 0 0.004 0 c 0.004 0 0.004 0 0.004 0 s 0 0 0.004 0 c 0 0 0.004 -0.004 0.004 -0.004 c 0 0 0.004 0 0.004 0 c 0 0 0.004 0 0.004 0 c 0 0 0 -0.004 0 -0.004 c 0 0 0.004 0 0.004 0 c 0 0 0 0 0.004 0 c 0 0 0 -0.004 0 -0.004 c 0.004 0 0.004 0 0.004 0 v -0.004 c 0 0 0.004 0 0.004 0 c 0 0 0 -0.004 0 -0.004 c 0 0 0.004 0 0.004 -0.004 c 0 0 0 -0.004 0 -0.004 c 0 0 0.004 -0.004 0.004 -0.004 l 0.121 -0.316 c 0 0 0 -0.004 0 -0.004 c 0 0 0.004 0 0.004 0 c 0 -0.004 0 -0.004 0 -0.004 v -0.004 c 0 0 0 -0.004 0 -0.004 c 0 -0.004 0 -0.004 0 -0.004 v -0.004 c 0 0 0 -0.004 0 -0.004 c 0 0 0 0 0 -0.004 c 0 0 -0.004 -0.004 -0.004 -0.004 c 0 0 0 -0.004 0 -0.004 c 0 0 -0.004 -0.004 -0.004 -0.004 c 0 0 0 -0.004 0 -0.004 c -0.008 -0.016 -0.023 -0.027 -0.035 -0.035 c 0.016 -0.082 0.027 -0.172 0.031 -0.262 c 0 0 0 0 0 -0.004 c 0 0 0 -0.004 0 -0.004 c 0 0 0 0 0 -0.004 c 0 0 0 -0.004 0 -0.004 c 0 0 0 0 0 -0.004 c -0.004 0 -0.004 -0.004 -0.004 -0.004 c 0 0 0 -0.004 0 -0.004 c 0 0 -0.004 0 -0.004 0 c 0 -0.004 0 -0.004 0 -0.004 s 0 -0.004 -0.004 -0.004 c 0 0 0 -0.004 0 -0.004 l -0.285 -0.289 c 0 0 -0.004 0 -0.004 0 c 0 0 0 -0.004 0 -0.004 c 0 0 -0.004 0 -0.004 0 c 0 0 0 -0.004 0 -0.004 c -0.004 0 -0.004 0 -0.004 0 h -0.004 c 0 0 0 -0.004 0 -0.004 c -0.004 0 -0.004 0 -0.004 0 h -0.004 c 0 0 0 0 -0.004 0 c 0 0 -0.004 0 -0.004 0 c 0 0 -0.004 0 -0.004 0 c -0.004 0 -0.004 0 -0.004 0 h -0.004" fill-opacity="0.6"/><path d="m 10.332 8.414 l -0.133 0.145 l -0.176 -0.223 l 0.156 -0.156" fill="url(#G)"/><path d="m 10.332 8.422 l -0.184 -0.227 l 0.043 -0.055"/><path d="m 11.457 6.73 c -0.012 0.309 -0.133 0.641 -0.133 0.641 l -0.258 0.211 c -0.039 0.059 -0.059 0.625 -0.129 0.852 l -0.344 -0.105 l -0.23 0.133 l -0.18 -0.27 l -0.203 0.223 c 0.047 0.152 0.168 0.324 0.168 0.324 c 0 0 -0.191 0.133 -0.301 0.211 c -0.082 0.059 -0.172 0.168 -0.285 0.195 c -0.219 0.047 -0.551 -0.391 -0.551 -0.391 l -0.688 -0.867 l -0.273 -0.703 l 3.125 -0.742" fill="url(#H)"/><path d="m 9.539 6.828 l -1.488 0.355 l 0.27 0.703 l 0.691 0.867 c 0 0 0.332 0.438 0.551 0.391 c 0.113 -0.027 0.199 -0.141 0.285 -0.199 c 0.109 -0.074 0.301 -0.207 0.301 -0.207 c 0 0 -0.121 -0.172 -0.168 -0.324 l 0.008 -0.012" fill="url(#I)"/><path d="m 9.98 8.418 c -0.285 0.254 -0.707 0.418 -0.855 0.469 c 0.117 0.125 0.301 0.285 0.438 0.258 c 0.113 -0.027 0.199 -0.137 0.285 -0.199 c 0.109 -0.074 0.301 -0.207 0.301 -0.207 c 0 0 -0.117 -0.168 -0.168 -0.32" fill="url(#J)"/><path d="m 11.168 6.441 l 0.266 0.27 c -0.012 0.309 -0.133 0.641 -0.133 0.641 l -0.262 0.211 c -0.039 0.059 -0.059 0.625 -0.125 0.852 l -0.344 -0.105 l -0.223 0.129 l 0.016 0.023 l 0.23 -0.133 l 0.344 0.105 c 0.07 -0.227 0.09 -0.793 0.129 -0.852 l 0.258 -0.211 c 0 0 0.121 -0.332 0.133 -0.641 l -0.281 -0.289 m -1.016 1.73 l -0.207 0.223 l 0.172 0.324 c 0 0 -0.191 0.133 -0.301 0.211 c -0.086 0.059 -0.172 0.172 -0.285 0.195 c -0.07 0.016 -0.148 -0.016 -0.227 -0.07 c 0.086 0.063 0.176 0.105 0.25 0.09 c 0.113 -0.027 0.203 -0.137 0.285 -0.199 c 0.109 -0.074 0.301 -0.207 0.301 -0.207 c 0 0 -0.117 -0.184 -0.168 -0.324 l 0.195 -0.215" fill="url(#K)"/><path d="m 10.902 8.398 l -0.234 -0.129 l -0.055 0.039" fill="url(#L)"/><g fill="#fff"><path d="m 10.902 8.398 l -0.234 -0.129 l 0.027 -0.02" fill-opacity="0.502"/><path d="m 9.984 8.418 l 0.129 0.34 l 0.035 -0.023 c 0 0 -0.102 -0.137 -0.164 -0.316" fill-opacity="0.8"/></g><path d="m 10.383 8.08 c 0 0 -0.164 -0.352 0.066 -0.629 c 0.133 -0.168 0.352 -0.223 0.594 -0.125 c 0 0 0.09 0.395 -0.113 0.59 c -0.285 0.273 -0.547 0.164 -0.547 0.164" fill="url(#M)"/><path d="m 10.703 7.289 c -0.102 0.02 -0.188 0.078 -0.254 0.16 c -0.23 0.277 -0.066 0.629 -0.066 0.629 c 0 0 -0.125 -0.313 0.102 -0.59 c 0.137 -0.164 0.328 -0.242 0.559 -0.164 c -0.121 -0.047 -0.234 -0.059 -0.34 -0.035" fill="#eee2d9"/><path d="m 10.727 7.441 c 0.008 0.043 -0.012 0.086 -0.051 0.09 c -0.035 0.008 -0.07 -0.023 -0.078 -0.066 c -0.008 -0.039 0.016 -0.082 0.051 -0.086 c 0.035 -0.008 0.07 0.02 0.078 0.063" fill="url(#N)"/><path d="m 10.945 7.504 c -0.07 0.016 -0.16 0.055 -0.234 0.156 c -0.172 0.23 -0.125 0.434 -0.125 0.434 l 0.043 -0.008 c 0.09 -0.02 0.191 -0.07 0.301 -0.176 c 0.113 -0.105 0.137 -0.277 0.133 -0.406 c -0.016 -0.004 -0.059 -0.008 -0.117 0" fill="url(#O)"/><path d="m 11.02 7.742 c -0.031 0.012 -0.078 0.055 -0.117 0.113 c -0.035 0.047 -0.055 0.098 -0.063 0.133 c 0.031 -0.023 0.059 -0.047 0.09 -0.078 c 0.051 -0.047 0.082 -0.105 0.102 -0.168 c -0.004 -0.004 -0.008 0 -0.012 0"/><path d="m 10.945 7.504 c -0.07 0.016 -0.16 0.055 -0.234 0.156 c -0.172 0.23 -0.125 0.434 -0.125 0.434 l 0.023 -0.004 c -0.008 -0.059 -0.012 -0.223 0.125 -0.414 c 0.074 -0.102 0.164 -0.141 0.238 -0.152 c 0.035 -0.008 0.066 -0.008 0.09 -0.004 c 0 -0.008 0 -0.012 0 -0.016 c -0.016 -0.004 -0.059 -0.008 -0.117 0" fill="#29559b"/><path d="m 11.09 7.445 c 0.02 0.094 -0.039 0.188 -0.125 0.203 c -0.09 0.016 -0.18 -0.047 -0.195 -0.145 c -0.02 -0.094 0.039 -0.184 0.129 -0.203 c 0.086 -0.016 0.176 0.051 0.191 0.145" fill="url(#P)"/><path d="m 10.434 7.566 c -0.004 0.004 -0.012 0.004 -0.02 0.008 c -0.031 0.047 -0.059 0.148 -0.051 0.203 c 0.004 0.113 -0.008 0.203 0.02 0.297 c 0 0 -0.004 0.004 -0.004 0.004 c 0 0 0.004 0 0.004 0 c 0 0 0.215 0.09 0.469 -0.098 c 0.004 -0.02 0.004 -0.039 0.004 -0.059 c 0.012 -0.078 0 -0.16 -0.027 -0.234 c -0.008 -0.059 -0.066 -0.102 -0.121 -0.094 c -0.059 0 -0.109 0.047 -0.168 0.047 c -0.047 -0.004 -0.063 -0.078 -0.105 -0.074" fill="url(#Q)"/><path d="m 10.809 7.211 c 0.043 -0.066 0.078 -0.25 0.078 -0.25 c 0.27 0.078 0.508 -0.016 0.582 0.098 l -0.121 0.316 c -0.082 -0.152 -0.379 -0.074 -0.539 -0.164" fill="#333"/><path d="m 10.93 6.996 c 0 0 -0.023 0.164 -0.063 0.238 c 0.164 0.051 0.406 0.004 0.48 0.141 l 0.121 -0.316 c 0 -0.004 -0.004 -0.004 -0.004 -0.008 c -0.141 -0.082 -0.297 0.012 -0.535 -0.055" fill="url(#R)"/><path d="m 10.887 6.961 l 0.055 0.063 l 0.008 -0.023" fill="#212121"/><path d="m 10.93 6.996 c 0.238 0.074 0.395 -0.02 0.535 0.07 l 0.004 -0.008 c 0 -0.004 -0.004 -0.004 -0.004 -0.008 c -0.141 -0.082 -0.297 0.012 -0.535 -0.055" fill="#fff" fill-opacity="0.102"/><path d="m 10.887 6.961 l 0.063 0.039 c 0.227 0.059 0.379 -0.031 0.516 0.051 c -0.078 -0.102 -0.316 -0.016 -0.578 -0.09"/><path d="m 9.727 7.383 l 0.234 0.066 l 0.16 -0.453 c 0.305 -0.004 0.48 -0.184 0.48 -0.184 c 0.133 0.113 0.504 -0.027 0.504 -0.027 l 0.395 -0.047 c 0 0 0.938 -0.543 0.484 -1.742 c -0.168 0.48 -0.316 0.645 -0.316 0.645 c 0 0 -0.086 -0.148 -0.152 -0.23 c -0.051 0.207 -0.129 0.332 -0.129 0.332 c 0 0 -0.082 -0.426 -0.281 -0.512 c 0.012 0.203 -0.145 0.598 -0.145 0.598 c 0 0 -0.129 -0.316 -0.277 -0.426 c 0.004 0.27 -0.16 0.629 -0.16 0.629 c 0 0 -0.063 -0.191 -0.113 -0.293 c -0.035 0.129 -0.152 0.289 -0.152 0.289 c 0 0 -0.098 -0.258 -0.172 -0.336 c -0.063 0.23 -0.215 0.477 -0.215 0.477 l -0.027 -0.059 l -0.145 0.121 c 0 0 -0.039 -0.191 -0.121 -0.293 c -0.066 0.191 -0.207 0.395 -0.207 0.395 l -0.211 0.035 v 0.035 l -0.313 -0.148 l 0.051 0.211 c 0 0 -0.344 0.059 -0.738 -0.191 c 0 0.152 0.07 0.344 0.07 0.344 l -0.215 -0.117 c 0 0.457 0.434 0.742 0.676 0.746 c 0.32 0.012 0.559 -0.117 0.559 -0.117 l 0.699 -0.188" fill="url(#S)"/><path d="m 9.98 6.883 c 0 0 0.02 -0.348 -0.242 -0.453 c -0.336 -0.133 -0.559 0.105 -0.586 0.336 c -0.043 0.336 0.215 0.434 0.238 0.508 c 0.023 0.074 -0.063 0.176 0.039 0.234 c 0.121 0.07 0.309 -0.156 0.309 -0.156" fill="url(#T)"/><path d="m 9.82 6.746 c -0.012 0.117 -0.078 0.238 -0.172 0.313 c -0.094 0.074 -0.199 0.09 -0.277 0.039 c -0.082 -0.047 -0.121 -0.152 -0.105 -0.273 c 0.012 -0.121 0.078 -0.242 0.168 -0.313 c 0.094 -0.074 0.199 -0.09 0.281 -0.043 c 0.078 0.051 0.117 0.156 0.105 0.277" fill="url(#U)"/><path d="m 9.754 6.875 c 0.004 0.16 -0.031 0.313 -0.094 0.398 c -0.063 0.086 -0.141 0.098 -0.207 0.023 c -0.066 -0.074 -0.109 -0.215 -0.113 -0.375 c -0.004 -0.16 0.031 -0.313 0.098 -0.398 c 0.063 -0.09 0.141 -0.098 0.207 -0.023 c 0.066 0.074 0.109 0.215 0.109 0.375" fill="url(#V)"/><path d="m 9.59 6.918 c 0 0 0.195 -0.023 0.164 -0.18 c -0.016 -0.094 -0.109 -0.176 -0.238 -0.145 c -0.168 0.035 -0.199 0.184 -0.168 0.293 c 0.078 0.254 0.355 0.137 0.355 0.137 c -0.105 0.078 -0.199 0.039 -0.215 0.125 c -0.012 0.051 0.141 0.16 0.141 0.16 c 0 0 -0.152 -0.023 -0.176 -0.102 c -0.023 -0.07 -0.152 -0.137 -0.184 -0.273 c -0.027 -0.113 0.008 -0.258 0.09 -0.336 c 0.09 -0.078 0.25 -0.113 0.352 -0.043 c 0.09 0.059 0.16 0.215 0.105 0.313 c -0.035 0.07 -0.227 0.051 -0.227 0.051" fill="url(#W)"/><path d="m 9.68 7.363 c -0.055 0.105 -0.152 0.164 -0.219 0.125 c -0.063 -0.035 -0.07 -0.152 -0.016 -0.258 c 0.055 -0.105 0.152 -0.16 0.219 -0.125 c 0.066 0.035 0.07 0.152 0.016 0.258" fill="url(#X)"/><path d="m 9.484 6.398 c -0.191 0.031 -0.313 0.203 -0.332 0.367 c -0.043 0.336 0.219 0.434 0.238 0.508 c 0.023 0.074 -0.063 0.176 0.039 0.234 c 0.027 0.016 0.055 0.016 0.082 0.008 c -0.02 0.004 -0.043 0 -0.059 -0.012 c -0.105 -0.059 -0.016 -0.16 -0.039 -0.234 c -0.023 -0.074 -0.281 -0.172 -0.242 -0.508 c 0.02 -0.16 0.137 -0.328 0.32 -0.363 c -0.004 0 -0.008 0 -0.008 0" fill="#fff" fill-opacity="0.2"/><path d="m 7.605 6.648 c -0.055 0.008 -0.113 0.027 -0.168 0.055 c -0.012 0 -0.051 -0.004 -0.105 0.004 c -0.035 0.004 -0.066 0.012 -0.098 0.027 c -0.023 0.012 -0.043 0.031 -0.059 0.055 l -0.063 0.023 c -0.02 0.008 -0.031 0.023 -0.031 0.047 c -0.004 0.02 0.004 0.039 0.02 0.051 l 0.539 0.41 c 0.004 0.012 0.008 0.027 0.02 0.059 c 0.008 0.023 0.02 0.047 0.039 0.066 c 0.004 0.008 0.012 0.012 0.023 0.02 c -0.023 0.02 -0.059 0.051 -0.105 0.102 l -0.816 -0.582 c -0.012 -0.008 -0.023 -0.012 -0.035 -0.008 c 0 0 -0.09 0.008 -0.195 0.043 c -0.09 0.031 -0.191 0.078 -0.266 0.16 c -0.035 -0.027 -0.086 -0.055 -0.164 -0.043 c -0.113 0.016 -0.18 0.125 -0.188 0.25 c -0.039 0.004 -0.078 0.012 -0.102 0.039 c -0.027 0.031 -0.039 0.066 -0.047 0.102 c -0.074 0.012 -0.133 0.07 -0.176 0.137 c -0.051 0.078 -0.09 0.172 -0.109 0.25 c -0.055 0.195 0 0.41 0.078 0.59 c 0.059 0.141 0.156 0.254 0.281 0.332 c 0.121 0.074 0.277 0.133 0.414 0.105 l 0.762 0.367 l 0.121 0.09 c 0.008 0.008 0.023 0.012 0.035 0.008 l 0.098 -0.012 c 0.008 0 0.016 -0.004 0.02 -0.008 c 0 0 0.063 -0.035 0.109 -0.113 c 0.051 -0.082 0.094 -0.207 0.07 -0.383 c -0.016 -0.133 -0.094 -0.227 -0.164 -0.289 c -0.02 -0.02 -0.039 -0.031 -0.055 -0.047 c 0.004 -0.004 0.012 -0.004 0.02 -0.008 c 0.02 -0.008 0.035 -0.02 0.047 -0.027 c 0.094 0.086 0.324 0.273 0.695 0.383 c 0.008 0 0.012 0.004 0.02 0 l 0.156 -0.008 c 0.012 0 0.02 -0.004 0.027 -0.012 l 0.258 -0.191 c 0.012 -0.008 0.016 -0.023 0.02 -0.039 l 0.027 -0.32 c 0.004 -0.016 -0.004 -0.031 -0.012 -0.043 c 0 0 -0.09 -0.098 -0.242 -0.102 c -0.039 -0.031 -0.086 -0.059 -0.121 -0.078 c 0.016 -0.02 0.039 -0.043 0.051 -0.059 c 0.027 -0.035 0.051 -0.059 0.086 -0.078 c 0.016 -0.008 0.035 -0.012 0.059 -0.016 c 0.027 -0.008 0.059 -0.012 0.09 -0.031 c 0.051 -0.031 0.102 -0.078 0.145 -0.133 c 0.043 -0.055 0.078 -0.117 0.082 -0.191 c 0.004 -0.078 -0.016 -0.176 -0.031 -0.254 c -0.016 -0.078 -0.035 -0.141 -0.035 -0.141 c 0 -0.008 -0.008 -0.016 -0.016 -0.023 l -0.496 -0.48 c -0.008 -0.008 -0.012 -0.012 -0.02 -0.012 c 0 0 -0.234 -0.094 -0.492 -0.043" fill="url(#Y)"/><path d="m 5.844 7.578 c -0.133 -0.012 -0.234 0.207 -0.277 0.352 c -0.047 0.18 0.004 0.379 0.078 0.551 c 0.055 0.133 0.145 0.234 0.262 0.309 c 0.117 0.07 0.277 0.129 0.395 0.098 l 0.777 0.375 l 0.125 0.09 l 0.098 -0.012 c 0 0 0.199 -0.117 0.156 -0.441 c -0.027 -0.234 -0.266 -0.313 -0.289 -0.402" fill="url(#Z)"/><path d="m 5.848 7.566 c 0.008 -0.074 0.047 -0.148 0.152 -0.129 c -0.008 -0.125 0.051 -0.234 0.148 -0.246 c 0.102 -0.016 0.168 0.059 0.168 0.059 c 0.117 -0.18 0.457 -0.219 0.457 -0.219 l 0.914 0.645 l -0.324 0.754 c 0 0 -0.078 0.125 -0.195 0.063 c 0 0 -0.078 -0.055 -0.121 -0.066 c -0.055 -0.012 -0.117 0.008 -0.172 -0.012 c -0.105 -0.039 -0.164 -0.156 -0.27 -0.207 c -0.09 -0.043 -0.188 -0.063 -0.289 -0.059 c -0.094 0.004 -0.25 0.059 -0.313 -0.023 c -0.055 -0.078 -0.086 -0.184 -0.113 -0.289 c -0.027 -0.094 -0.055 -0.188 -0.043 -0.27" fill="url(#a)"/><path d="m 4.676 5.262 c -0.012 0.004 -0.02 0.012 -0.023 0.023 c -0.004 0.012 -0.004 0.023 0.004 0.031 l 0.258 0.434 c 0.004 0.004 0.008 0.008 0.012 0.012 l 0.113 0.082 c -0.039 0.066 -0.074 0.133 -0.074 0.133 c -0.008 0.016 0 0.035 0.012 0.047 l 0.273 0.203 c 0.008 0.004 0.016 0.008 0.027 0.004 c 0.008 0 0.016 -0.004 0.023 -0.016 c 0 0 0.039 -0.063 0.074 -0.117 l 4.02 2.973 c 0.008 0.008 0.02 0.012 0.027 0.008 c 0 0 0.066 -0.016 0.125 -0.066 c 0.059 -0.051 0.117 -0.141 0.098 -0.277 c 0 -0.008 -0.008 -0.02 -0.016 -0.023 l -3.992 -3.02 c 0.035 -0.051 0.066 -0.102 0.102 -0.156 c 0.012 -0.016 0.008 -0.039 -0.008 -0.051 l -0.258 -0.203 c -0.016 -0.012 -0.035 -0.008 -0.047 0.004 c -0.043 0.047 -0.082 0.098 -0.121 0.152 l -0.117 -0.086 c -0.004 -0.004 -0.012 -0.008 -0.016 -0.008 l -0.48 -0.078 c -0.004 0 -0.008 0 -0.012 0" fill="url(#b)"/><path d="m 9.605 8.738 l -4.441 -3.363 l -0.48 -0.074 l 0.262 0.43 l 4.465 3.312 c 0 0 0.23 -0.059 0.195 -0.305" fill="url(#c)"/><path d="m 9.605 8.738 l -4.441 -3.363 l -0.48 -0.074 l 0.262 0.43 l 4.465 3.312 c 0 0 0.23 -0.059 0.195 -0.305" fill="url(#d)"/><path d="m 5.941 6.234 c -0.078 0.121 -0.418 -0.004 -0.754 -0.281 c -0.336 -0.277 -0.543 -0.598 -0.461 -0.719 c 0.082 -0.121 0.418 0.008 0.754 0.285 c 0.336 0.273 0.543 0.598 0.461 0.715" fill="url(#e)"/><path d="m 5.363 6.04 l 0.078 0.055 l 0.219 -0.344 l -0.074 -0.059" fill="url(#f)"/><path d="m 5.082 5.836 l -0.063 -0.051 l 0.227 -0.344 l 0.059 0.043" fill="url(#g)"/><path d="m 5.05 5.547 c -0.012 0.023 -0.047 0.027 -0.094 0.012 c -0.047 -0.016 -0.098 -0.051 -0.133 -0.09 c -0.035 -0.035 -0.051 -0.074 -0.039 -0.094 c 0.008 -0.023 0.043 -0.027 0.09 -0.012 c 0.047 0.016 0.098 0.047 0.133 0.086 c 0.039 0.039 0.051 0.074 0.043 0.098" fill="url(#h)"/><path d="m 4.996 5.992 c 0 0 0.223 -0.43 0.453 -0.684 l 0.258 0.203 c -0.223 0.344 -0.438 0.684 -0.438 0.684" fill="url(#i)"/><path d="m 5.383 5.383 c -0.145 0.18 -0.277 0.41 -0.344 0.527 c 0.059 0.031 0.125 0.043 0.191 0.031 c 0.168 -0.031 0.273 -0.203 0.242 -0.383 c -0.016 -0.07 -0.047 -0.129 -0.09 -0.176" fill="url(#j)"/><path d="m 7.781 7.355 l -0.371 0.203 l 0.277 0.207 l 0.281 -0.266" fill="url(#k)"/><path d="m 8.355 7.793 l -0.285 0.258 l 0.164 0.117 l 0.309 -0.234" fill="url(#l)"/><path d="m 7.617 6.699 c -0.059 0.012 -0.113 0.031 -0.168 0.059 c 0 0 -0.215 -0.016 -0.242 0.078 l -0.074 0.031 l 0.551 0.418 c 0 0 0.031 0.152 0.094 0.145 l 0.008 0.051 c 0 0 -0.309 0.242 -0.426 0.613 c 0 0 -0.102 0.262 -0.023 0.336 c 0 0 0.254 0.281 0.727 0.422 l 0.16 -0.012 l 0.258 -0.195 l 0.027 -0.32 c 0 0 -0.074 -0.09 -0.219 -0.086 c -0.074 -0.059 -0.191 -0.113 -0.191 -0.113 c 0.086 -0.078 0.113 -0.152 0.199 -0.199 c 0.047 -0.027 0.098 -0.02 0.145 -0.047 c 0.09 -0.055 0.195 -0.172 0.199 -0.281 c 0.008 -0.137 -0.059 -0.375 -0.059 -0.375 l -0.5 -0.48 c 0 0 -0.227 -0.086 -0.465 -0.043" fill="#de5151"/><path d="m 8.512 8.27 c -0.004 0 -0.004 0 -0.004 0 s -0.039 0.023 -0.055 0.074 c -0.027 0.09 -0.137 0.285 -0.254 0.434 c -0.008 0.012 -0.031 0.027 -0.043 0.051 c -0.008 0.016 -0.016 0.035 -0.012 0.059 c 0.008 0.02 0.023 0.035 0.039 0.047 c 0.043 0.035 0.094 0.051 0.117 0.059 c 0.012 0.051 0.043 0.09 0.086 0.129 c 0 0 0.047 0.066 0.109 0.141 c 0.059 0.074 0.133 0.152 0.211 0.188 c 0 0 0.004 0.004 0.008 0.004 c 0.008 0.008 0.039 0.027 0.086 0.035 c 0.027 0.008 0.059 0.004 0.09 -0.012 c 0.023 -0.012 0.047 -0.035 0.063 -0.063 c 0.016 0 0.035 0 0.055 -0.004 c 0.039 -0.008 0.082 -0.031 0.109 -0.086 c 0.027 0 0.059 0.004 0.086 -0.012 c 0.031 -0.016 0.055 -0.051 0.07 -0.102 c 0.02 0 0.043 0 0.07 -0.008 c 0.055 -0.016 0.117 -0.066 0.141 -0.16 c 0.004 -0.02 -0.008 -0.043 -0.027 -0.047 c 0 0 -0.012 -0.004 -0.027 -0.012 c -0.012 -0.008 -0.023 -0.02 -0.02 -0.02 c -0.004 -0.004 -0.004 -0.004 -0.004 -0.008 c 0 -0.004 -0.008 -0.023 -0.012 -0.051 c -0.004 -0.027 -0.012 -0.063 -0.027 -0.102 c -0.02 -0.055 -0.051 -0.117 -0.105 -0.184 c 0.012 0.004 0.016 0.008 0.023 0.008 c 0.043 0 0.086 -0.008 0.125 -0.039 c 0.039 -0.027 0.07 -0.074 0.082 -0.145 c 0.004 -0.004 0.004 -0.012 0 -0.016 c -0.008 -0.031 -0.031 -0.047 -0.051 -0.055 c -0.023 -0.012 -0.051 -0.023 -0.082 -0.031 c -0.063 -0.023 -0.141 -0.047 -0.219 -0.078 c -0.043 -0.02 -0.09 -0.016 -0.125 -0.012 c -0.031 0.008 -0.043 0.012 -0.051 0.016 c -0.023 -0.012 -0.047 -0.02 -0.074 -0.02 c -0.027 0.004 -0.059 0.012 -0.086 0.023 c -0.055 0.02 -0.105 0.047 -0.145 0.063 c -0.012 -0.008 -0.02 -0.02 -0.039 -0.031 c -0.016 -0.012 -0.035 -0.023 -0.051 -0.031 c -0.016 -0.008 -0.035 -0.016 -0.059 -0.004" fill-opacity="0.6"/><path d="m 8.645 8.383 c 0.098 -0.027 0.238 -0.141 0.316 -0.074 c 0 0 0.105 -0.039 0.168 -0.008 c 0.16 0.066 0.32 0.09 0.332 0.137 c -0.051 0.246 -0.313 0.121 -0.313 0.121 c 0.219 0.188 0.203 0.363 0.227 0.414 c 0.012 0.039 0.074 0.059 0.074 0.059 c -0.039 0.172 -0.199 0.141 -0.199 0.141 c -0.023 0.125 -0.086 0.117 -0.152 0.117 c -0.043 0.113 -0.16 0.086 -0.16 0.086 c -0.07 0.148 -0.211 0.043 -0.211 0.043 c -0.129 -0.051 -0.313 -0.32 -0.313 -0.32 c -0.051 -0.043 -0.086 -0.082 -0.086 -0.141" fill="url(#m)"/><path d="m 9.355 8.496 c -0.008 0.051 -0.09 0.07 -0.18 0.043 c -0.09 -0.023 -0.156 -0.086 -0.145 -0.137 c 0.012 -0.047 0.094 -0.066 0.184 -0.043 c 0.09 0.027 0.152 0.086 0.141 0.137" fill="url(#n)"/><path d="m 8.227 8.801 c 0.117 -0.148 0.23 -0.344 0.262 -0.445 c 0.012 -0.039 0.035 -0.051 0.035 -0.051 c 0.035 -0.016 0.133 0.078 0.133 0.078 c 0 0 -0.023 0.18 -0.328 0.582 c 0 0 -0.078 -0.027 -0.125 -0.063 c -0.055 -0.035 -0.004 -0.066 0.023 -0.102" fill="url(#o)"/><g fill-opacity="0.6"><path d="m 6.426 8.828 c -0.066 0.012 -0.133 0.031 -0.168 0.055 c -0.004 0 -0.004 0 -0.004 0 c -0.117 0.082 -0.285 0.199 -0.434 0.324 c -0.012 0.008 -0.016 0.02 -0.016 0.031 c -0.004 0 -0.004 0 -0.008 0 c -0.012 0.004 -0.02 0.008 -0.035 0.02 c -0.082 0.074 -0.152 0.148 -0.195 0.219 c -0.004 0.004 -0.004 0.012 -0.004 0.02 c 0 0.008 0.008 0.016 0.012 0.02 l 1.676 1.219 c 0.008 0.008 0.016 0.008 0.023 0.004 c 0.008 0 0.012 -0.008 0.016 -0.016 c 0 0 0.066 -0.152 0.027 -0.32 c -0.023 -0.102 -0.082 -0.191 -0.141 -0.266 c -0.027 -0.039 -0.055 -0.074 -0.074 -0.105 c -0.02 -0.027 -0.035 -0.055 -0.039 -0.07 c -0.004 -0.016 0 -0.023 0.008 -0.039 c 0.008 -0.012 0.023 -0.027 0.039 -0.043 c 0.059 -0.051 0.156 -0.125 0.234 -0.184 c 0.039 -0.031 0.074 -0.059 0.102 -0.082 c 0.012 -0.012 0.023 -0.02 0.031 -0.027 c 0.004 -0.004 0.008 -0.008 0.012 -0.016 c 0.004 -0.004 0.012 -0.012 0.004 -0.031 c -0.008 -0.031 -0.031 -0.055 -0.055 -0.082 c -0.023 -0.027 -0.047 -0.055 -0.066 -0.09 c -0.004 -0.004 -0.008 -0.008 -0.012 -0.012 c 0 0 -0.035 -0.02 -0.07 -0.035 c -0.02 -0.012 -0.039 -0.02 -0.055 -0.027 c -0.016 -0.008 -0.027 -0.012 -0.043 -0.016 c -0.008 0 -0.012 0.004 -0.016 0.004 c 0 -0.004 0 -0.004 0 -0.008 c 0 -0.012 -0.004 -0.031 -0.02 -0.043 c -0.059 -0.059 -0.184 -0.191 -0.258 -0.262 c 0 -0.004 -0.004 -0.004 -0.004 -0.004 c -0.137 -0.078 -0.234 -0.121 -0.309 -0.148 c -0.02 -0.008 -0.039 -0.004 -0.066 -0.004 c -0.027 0.004 -0.059 0.008 -0.094 0.016"/><path d="m 5.348 9.473 c 0 0 -0.004 0 -0.004 0 c 0 0 0 0 0 0.004 c -0.004 0 -0.008 0 -0.004 0 l -0.004 0.004 c 0 0 0 0 -0.004 0 c 0 0 0 0.004 0 0.004 l -0.059 0.094 v 0.004 c 0 0 -0.004 0 -0.004 0 c 0 0 0 0.004 0 0.004 c 0 0 0 0 0 0.004 c 0 0 -0.004 0.004 -0.004 0.004 c 0 0 0 0.004 0 0.004 c 0 0 0 0.004 0 0.004 c 0 0 0 0.004 0 0.004 c 0 0.004 0.004 0.004 0.004 0.004 c 0 0 0 0.004 0 0.004 c 0 0 0 0.004 0 0.004 c 0 0 0.004 0 0.004 0 c 0 0 0 0.004 0 0.004 c 0 0 0 0.004 0 0.004 c 0 0 0.004 0 0.004 0 c 0 0 0 0.004 0 0.004 c 0 0 0.004 0 0.004 0 v 0.004 l 2.02 1.48 c 0.004 0 0.004 0 0.004 0 h 0.004 c 0 0.004 0 0.004 0 0.004 h 0.004 c 0 0 0.004 0 0.004 0 c 0 0 0.004 0 0.004 0 c 0.004 0 0.004 0 0.004 0 h 0.004 c 0 0 0 0 0.004 0 c 0 0 0.004 0 0.004 0 c 0 0 0 -0.004 0 -0.004 c 0 0 0.004 0 0.004 0 c 0 0 0.004 -0.004 0.004 -0.004 c 0 0 0.004 -0.004 0.004 -0.004 c 0 0 0 -0.004 0 -0.004 c 0 0 0.004 0 0.004 0 l 0.039 -0.066 c 0 0 0 -0.004 0 -0.004 c 0 0 0.004 -0.004 0.004 -0.004 c 0 0 0 -0.004 0 -0.004 c 0 0 0 -0.004 0 -0.004 c 0 0 0 -0.004 0 -0.004 c 0 0 0 -0.004 0 -0.004 c 0 0 0 -0.004 0 -0.004 c 0 0 0 -0.004 0 -0.004 c 0 0 -0.004 0 -0.004 0 c 0 0 0 -0.004 0 -0.004 c 0 0 0 -0.004 0 -0.004 c 0 0 0 0 -0.004 0 c 0 0 0 -0.004 0 -0.004 c 0 0 -0.004 0 -0.004 0 c 0 0 0 -0.004 0 -0.004 c 0 0 0 0 -0.004 0 l -0.07 -0.059 l 0.012 -0.023 c 0 0 0 -0.004 0 -0.004 c 0 0 0 -0.004 0 -0.004 c 0 0 0.004 -0.004 0.004 -0.004 c 0 0 0 -0.004 0 -0.004 c 0 -0.004 0 -0.004 0 -0.004 v -0.004 c 0 0 -0.004 -0.004 -0.004 -0.004 c 0 0 0 -0.004 0 -0.004 c 0 0 0 -0.004 0 -0.004 c 0 0 -0.004 0 -0.004 -0.004 c 0 0 0 0 0 -0.004 c 0 0 0 0 -0.004 0 c 0 -0.004 0 -0.004 0 -0.004 h -0.004 l -0.066 -0.051 l 0.051 -0.078 c 0 0 0 -0.004 0 -0.004 c 0.004 0 0.004 0 0.004 0 v -0.004 c 0 0 0 -0.004 0 -0.004 c 0 0 0 -0.004 0 -0.004 c 0 0 0 -0.004 0 -0.004 c 0 -0.004 0 -0.004 0 -0.004 v -0.004 c 0 -0.004 0 -0.004 0 -0.004 h -0.004 c 0 0 0 -0.004 0 -0.004 c 0 0 0 -0.004 0 -0.004 c 0 0 -0.004 0 -0.004 0 c 0 0 0 -0.004 0 -0.004 c -0.004 0 -0.004 -0.004 -0.004 -0.004 c -0.398 -0.383 -0.875 -0.648 -0.887 -0.652 h -0.004 l -0.797 -0.59 c -0.004 0 -0.004 0 -0.004 0 v -0.004 c 0 0 -0.004 0 -0.004 0 c 0 0 -0.004 0 -0.004 0 c 0 0 -0.004 0 -0.004 0 c 0 -0.004 0 -0.004 0 -0.004 h -0.004 c 0 0 -0.004 0 -0.004 0 c 0 0 -0.004 0 -0.004 0 c 0 0.004 0 0.004 0 0.004 h -0.004 c 0 0 -0.004 0 -0.004 0 c 0 0 0 0 -0.004 0 c 0 0 0 0.004 0 0.004 c 0 0 -0.004 0 -0.004 0 c 0 0 0 0.004 0 0.004 c 0 0 0 0 -0.004 0 c 0 0.004 0 0.004 0 0.004 h -0.004 l -0.063 0.105 l -0.105 -0.078 c 0 0 -0.004 0 -0.004 0 c 0 0 0 -0.004 0 -0.004 c 0 0 -0.004 0 -0.004 0 c -0.004 0 -0.004 0 -0.004 0 v -0.004 c 0 0 -0.004 0 -0.004 0 c 0 0 -0.004 0 -0.004 0 c 0 0 -0.004 0 -0.004 0 c 0 0 0 0 -0.004 0 c 0 0.004 -0.004 0.004 -0.004 0.004"/></g><path d="m 5.59 9.492 c 0.039 -0.066 0.109 -0.137 0.191 -0.211 c 0.008 -0.008 0.047 -0.02 0.047 -0.02 c 0 0 0 -0.023 0.012 -0.031 c 0.145 -0.125 0.313 -0.242 0.43 -0.32 c 0.059 -0.039 0.27 -0.078 0.309 -0.066 c 0.07 0.027 0.168 0.07 0.301 0.145 c 0.074 0.07 0.199 0.203 0.262 0.266 c 0.023 0.023 -0.012 0.066 -0.012 0.066 c 0 0 0.027 -0.016 0.063 -0.012 c 0.023 0 0.152 0.074 0.152 0.074 c 0.047 0.074 0.109 0.125 0.125 0.168 c 0.004 0.02 -0.258 0.195 -0.375 0.305 c -0.035 0.035 -0.07 0.063 -0.059 0.113 c 0.023 0.09 0.211 0.258 0.254 0.441 c 0.035 0.152 -0.023 0.301 -0.023 0.301" fill="url(#p)"/><path d="m 6.797 8.945 c -0.008 0.008 -0.016 0.016 -0.02 0.023 c -0.395 0.48 -0.57 0.949 -0.391 1.051 c 0.168 0.094 0.594 -0.18 0.973 -0.613 c -0.004 -0.008 -0.008 -0.016 -0.016 -0.023 c 0 0 -0.129 -0.074 -0.152 -0.074 c -0.035 -0.004 -0.063 0.012 -0.063 0.012 c 0 0 0.016 -0.023 0.02 -0.043 c -0.008 0.004 -0.016 0.004 -0.016 0.004 c 0 0 0.008 -0.004 0.012 -0.016 c 0 -0.004 0 -0.008 -0.004 -0.012 c -0.063 -0.059 -0.18 -0.188 -0.254 -0.258 c -0.004 -0.004 -0.008 -0.008 -0.012 -0.008 c -0.027 -0.016 -0.055 -0.031 -0.078 -0.043" fill="url(#q)"/><path d="m 6.457 8.852 c 0.047 -0.004 0.086 -0.008 0.102 -0.004 c 0.07 0.027 0.168 0.07 0.301 0.148 c 0.07 0.066 0.195 0.199 0.258 0.262 c 0.023 0.023 -0.008 0.066 -0.008 0.066 c 0 0 0.008 -0.004 0.023 -0.008 c 0.008 -0.012 0.027 -0.047 0.008 -0.063 c -0.063 -0.063 -0.188 -0.195 -0.262 -0.262 c -0.133 -0.078 -0.23 -0.121 -0.301 -0.148 c -0.016 -0.004 -0.066 0 -0.121 0.008 m 0.711 0.457 c -0.008 0 -0.012 0.004 -0.016 0.004 c 0.008 0 0.012 0 0.016 0 c 0.027 0 0.156 0.074 0.156 0.074 c 0.043 0.074 0.109 0.125 0.121 0.168 c 0.008 0.02 -0.254 0.195 -0.375 0.309 c -0.035 0.031 -0.066 0.059 -0.055 0.109 c 0.02 0.09 0.211 0.258 0.254 0.441 c 0.027 0.129 -0.008 0.25 -0.02 0.285 l 0.016 0.012 c 0 0 0.059 -0.148 0.023 -0.301 c -0.043 -0.184 -0.23 -0.352 -0.254 -0.441 c -0.012 -0.047 0.023 -0.078 0.059 -0.109 c 0.117 -0.113 0.379 -0.289 0.375 -0.309 c -0.016 -0.043 -0.078 -0.094 -0.125 -0.168 c 0 0 -0.129 -0.074 -0.152 -0.074 c -0.012 0 -0.02 0 -0.023 0" fill="#fff" fill-opacity="0.6"/><g clip-path="url(#r)"><g clip-path="url(#s)" fill="none"><path d="m 314.9 272.06 c 13.524 11.01 17.617 24.534 30.402 24.674 c 15.185 0.21 29.684 -12.516 29.684 -12.516" transform="matrix(0.02103 -0.00391 0.00432 0.02255 -1.971 4.362)" stroke-opacity="0.8" stroke="#000" stroke-width="1.5"/><path d="m 314.62 273.4 c 13.524 11.01 17.617 24.534 30.402 24.674 c 15.185 0.21 29.684 -12.516 29.684 -12.516" transform="matrix(0.02103 -0.00391 0.00432 0.02255 -1.971 4.362)" stroke="url(#t)"/></g></g><path d="m 265.37 276.49 l 7.078 -5.527 c 0 0 11.917 19.734 17.445 25.37 l -9.505 6.491 c -1.11 -8.16 -15.02 -26.335 -15.02 -26.335" transform="matrix(0.02103 -0.00391 0.00432 0.02255 -0.288 4.049)" fill="url(#u)" stroke="url(#v)"/><path d="m 6.551 10.09 c -0.035 0.008 -0.066 0.02 -0.09 0.035 l 0.672 0.492 c 0 -0.004 0.004 -0.008 0.004 -0.008 c 0.059 -0.133 -0.059 -0.328 -0.262 -0.445 c -0.113 -0.063 -0.23 -0.086 -0.324 -0.074" fill="url(#w)"/><path d="m 5.809 9.672 c 0 0 0.32 -0.473 0.492 -0.355 c 0.188 0.125 -0.07 0.359 -0.031 0.488 c 0.063 0.188 0.301 0.152 0.504 0.305 c 0.063 0.051 -0.102 0.148 -0.102 0.148" fill="url(#x)"/><path d="m 6.211 9.301 c -0.172 0.035 -0.402 0.371 -0.402 0.371 l 0.211 0.141 c 0.059 -0.039 0.117 -0.082 0.176 -0.133 c 0.055 -0.051 0.109 -0.098 0.156 -0.148 c 0.027 -0.082 0.031 -0.16 -0.051 -0.215 c -0.027 -0.02 -0.059 -0.023 -0.09 -0.016" fill="url(#y)"/><path d="m 181.99 285.59 c -0.012 2.769 -2.534 5.103 -5.865 5.04 c -3.331 -0.058 -6.04 -2.26 -6.02 -5.03 c 0.046 -2.936 2.747 -5.239 5.899 -5.212 c 3.331 0.058 6.04 2.26 5.99 5.196" transform="matrix(0.02103 -0.00391 0.00432 0.02255 1.184 3.775)" stroke-opacity="0.196" fill="url(#z)" stroke="#000" stroke-linejoin="round" stroke-linecap="round"/><use xlink:href="#14" mask="url(#11)"/><path d="m 182.13 285.62 c -0.107 2.719 -2.83 4.984 -6.01 5.064 c -3.395 0.043 -6.072 -2.317 -5.965 -5.04 c -0.069 -2.96 2.654 -5.225 6.05 -5.268 c 3.136 0.123 5.854 2.279 5.923 5.239" transform="matrix(0.0173 -0.00322 0.00355 0.01855 2.06 4.796)" fill="none" stroke="url(#15)" stroke-linejoin="round" stroke-linecap="round" stroke-width="1.216"/><use xlink:href="#19" mask="url(#16)"/><g clip-path="url(#1A)"><g clip-path="url(#1B)"><path d="m 3.824 8.52 l 5.113 3.75 c 0.363 0.219 0.75 -0.082 0.75 -0.082 l 0.234 0.457 c 0 0 -0.531 0.484 -1.07 0.113 l -5.277 -3.793" fill="url(#1C)"/><path d="m 3.867 8.707 l -0.125 0.223 l 5.176 3.719 c 0.23 0.16 0.449 0.133 0.625 0.066 c 0.094 -0.035 0.164 -0.078 0.215 -0.113 l -0.117 -0.23 c -0.16 0.086 -0.457 0.195 -0.762 0.012 c 0 -0.004 -0.004 -0.004 -0.008 -0.008" fill="#a00"/><path d="m 3.824 8.52 l -0.25 0.445 l 0.012 0.012 l 0.242 -0.434 l 5.117 3.746 c 0.363 0.223 0.746 -0.078 0.746 -0.078 l 0.223 0.438 c 0 0 0.008 -0.004 0.008 -0.004 l -0.238 -0.457 c 0 0 -0.383 0.301 -0.746 0.082" fill="#fff" fill-opacity="0.4"/></g></g><path d="m 5.301 9.602 l 0.059 -0.094 l 0.133 0.098 l 0.086 -0.133 l 0.805 0.59 c 0 0 0.484 0.262 0.883 0.648 l -0.07 0.109 l 0.094 0.066 l -0.027 0.051 l 0.098 0.078 l -0.039 0.066" fill="url(#1D)"/><path d="m 5.578 9.473 l -0.02 0.023 l 0.805 0.594 c 0 0 0.484 0.262 0.883 0.648 l 0.02 -0.027 c -0.398 -0.383 -0.883 -0.648 -0.883 -0.648"/></svg>