<svg xmlns="http://www.w3.org/2000/svg" viewBox="0 0 16 16"><defs><linearGradient id="0" gradientUnits="userSpaceOnUse" x1="62.17" y1="45.12" x2="103.02" y2="85.1" gradientTransform="matrix(0.09095 0 0 0.08877 2.168 2.388)"><stop stop-color="#d45400"/><stop offset="0.865" stop-color="#d45400" stop-opacity="0.412"/><stop offset="1" stop-color="#d45400"/></linearGradient><linearGradient id="1" gradientUnits="userSpaceOnUse" x1="-26.574" y1="8.156" x2="110.04" y2="58.61" gradientTransform="matrix(0.09095 0 0 0.08877 2.168 2.388)"><stop stop-color="#fff" stop-opacity="0.671"/><stop offset="1" stop-color="#fff" stop-opacity="0"/></linearGradient></defs><path d="m 13.949 2.531 c 9.07 13.848 -15.711 19.21 -13.738 4.961 c 0.805 -5.813 10.266 -10.258 13.738 -4.961" fill="#694025"/><path d="m 8.449 3.617 c -1.27 -0.004 -2.48 0.867 -3.344 1.859 c -0.344 0.457 -0.594 0.961 -0.742 1.512 h -1.328 l -0.305 0.754 h 1.5 c -0.023 0.203 -0.023 0.406 -0.027 0.609 h -1.27 l -0.309 0.758 h 1.633 c 0.164 1.082 0.664 2 1.461 2.656 c 0.422 0.348 1.039 0.641 1.555 0.738 c 0.559 0.035 1.121 0.023 1.668 -0.102 c 0.961 -0.305 1.922 -1.16 2.387 -2.121 c 0.156 -0.324 0.242 -0.594 0.367 -1.172 h -1.672 l 0.309 -0.758 h 1.484 c 0.016 -0.195 0.027 -0.406 0.027 -0.609 h -1.262 l 0.313 -0.754 h 0.91 c -0.199 -1.211 -0.887 -2.168 -1.848 -2.922 c -0.5 -0.312 -1.01 -0.449 -1.508 -0.449 m 3.355 3.371 c 0.027 0.219 0.043 0.484 0.039 0.754 h 1.449 l 0.309 -0.754 m -1.785 1.363 c -0.016 0.258 -0.066 0.508 -0.121 0.758 h 1.047 l 0.305 -0.758 m -2.82 -3.594 c 0.004 0 0.008 0 0.012 0 c 0.055 0 0.102 0.051 0.145 0.148 c 0.055 0.133 0.055 0.238 -0.004 0.68 c -0.07 0.555 -0.398 2.102 -0.777 3.645 c -0.453 1.867 -0.625 2.402 -0.852 2.652 c -0.234 0.262 -0.57 0.242 -0.828 -0.047 c -0.219 -0.25 -0.613 -0.797 -1.25 -1.734 c -0.438 -0.645 -0.945 -1.359 -1.301 -1.836 c -0.121 -0.16 -0.223 -0.293 -0.301 -0.387 c -0.438 -0.539 -0.523 -0.738 -0.359 -0.828 c 0.063 -0.031 0.203 0.016 0.535 0.172 c 0.051 0.023 0.102 0.047 0.152 0.066 c 0.094 0.043 0.18 0.074 0.258 0.102 c 0.008 0.004 0.016 0.008 0.02 0.008 c 0.023 0.008 0.051 0.016 0.07 0.02 c 0.012 0.004 0.023 0.008 0.035 0.012 c 0.145 0.035 0.266 0.039 0.363 0.008 c 0.023 -0.008 0.047 -0.016 0.066 -0.027 c 0.09 -0.051 0.156 -0.133 0.215 -0.254 c 0.012 -0.02 0.02 -0.043 0.027 -0.066 c 0.012 -0.023 0.02 -0.051 0.031 -0.078 c 0 -0.008 0.004 -0.012 0.008 -0.02 c 0.004 -0.016 0.012 -0.031 0.016 -0.051 c 0.012 -0.039 0.023 -0.082 0.035 -0.129 c 0.063 -0.238 0.199 -0.391 0.348 -0.391 c 0.063 0 0.254 0.141 0.484 0.355 c 0.289 0.273 0.465 0.406 0.621 0.465 c 0.016 0.004 0.031 0.008 0.047 0.012 c 0.016 0.004 0.031 0.008 0.047 0.012 c 0.063 0.012 0.125 0.012 0.195 0.004 c 0.051 -0.008 0.098 -0.016 0.148 -0.031 c 0.023 -0.008 0.047 -0.016 0.07 -0.027 c 0.137 -0.059 0.266 -0.176 0.414 -0.371 c 0.074 -0.098 0.148 -0.219 0.234 -0.359 c 0.113 -0.188 0.238 -0.422 0.383 -0.703 c 0.355 -0.699 0.559 -1 0.691 -1.02 m -0.57 1.715 c 0 0 -0.004 0 -0.008 0.004 c -0.004 0 -0.004 0.004 -0.012 0.012 c 0 0.004 -0.004 0.004 -0.004 0.008 c -0.004 0.004 -0.008 0.012 -0.016 0.023 c -0.02 0.035 -0.047 0.082 -0.078 0.141 c -0.063 0.113 -0.145 0.273 -0.23 0.453 c -0.488 1.01 -0.676 1.219 -1.078 1.219 c -0.254 0 -0.422 -0.102 -0.66 -0.402 c -0.027 -0.039 -0.059 -0.074 -0.082 -0.105 c -0.055 -0.063 -0.105 -0.113 -0.137 -0.141 c -0.004 -0.004 -0.008 -0.008 -0.012 -0.012 c 0 0 -0.004 -0.004 -0.004 -0.004 c -0.008 -0.004 -0.012 -0.004 -0.012 -0.004 c 0 0 -0.004 0 -0.004 0 c -0.02 0 -0.063 0.117 -0.094 0.262 c -0.063 0.297 -0.25 0.551 -0.41 0.551 c -0.121 -0.004 -0.477 -0.172 -0.859 -0.406 c -0.035 -0.023 -0.07 -0.043 -0.102 -0.063 c -0.023 -0.012 -0.043 -0.023 -0.063 -0.035 c -0.012 -0.004 -0.02 -0.008 -0.027 -0.012 c -0.016 -0.008 -0.023 -0.012 -0.035 -0.016 c -0.004 -0.004 -0.008 -0.004 -0.012 -0.008 c -0.012 0 -0.02 -0.004 -0.023 -0.008 c -0.016 0 -0.027 -0.004 -0.027 0.004 c 0 0 0 0.004 0 0.004 c 0 0.016 0.023 0.059 0.059 0.105 c 0.016 0.02 0.031 0.039 0.047 0.063 c 0.074 0.082 0.34 0.434 0.594 0.773 c 0.254 0.344 0.59 0.785 0.746 0.98 c 0.156 0.199 0.438 0.563 0.621 0.813 c 0.016 0.023 0.016 0.023 0.031 0.043 c 0.117 0.148 0.195 0.25 0.242 0.309 c 0.008 0.012 0.012 0.016 0.02 0.023 c 0.074 0.09 0.137 0.16 0.172 0.188 c 0.039 0.031 0.078 0.059 0.117 0.074 c 0.074 0.035 0.145 0.039 0.207 0.012 c 0.031 -0.016 0.063 -0.039 0.09 -0.066 c 0.004 -0.008 0.012 -0.016 0.02 -0.031 c 0.035 -0.066 0.086 -0.234 0.156 -0.496 c 0.137 -0.527 0.344 -1.434 0.609 -2.684 c 0.141 -0.66 0.227 -1.109 0.258 -1.352 c 0.016 -0.137 0.016 -0.207 0 -0.219 m -1.996 2 c 0.082 0 0.141 0.113 0.336 0.668 c 0.223 0.621 0.387 1.402 0.34 1.59 c -0.027 0.105 -0.063 0.129 -0.18 0.129 c -0.254 0 -0.375 -0.359 -0.559 -1.695 c -0.063 -0.457 -0.039 -0.695 0.063 -0.695" fill="url(#0)"/><g fill="#fff"><path d="m 10.59 7.734 c 0.004 -0.008 0.074 -0.18 0.156 -0.379 l 0.152 -0.367 l 0.906 0.008 l 0.02 0.195 c 0.008 0.109 0.016 0.277 0.016 0.375 l 0.004 0.18 h -0.629 c -0.391 0 -0.629 -0.004 -0.625 -0.012"/><path d="m 10.04 9.1 c 0 -0.012 0.066 -0.184 0.148 -0.383 l 0.145 -0.359 h 1.48 v 0.043 c 0 0.07 -0.039 0.32 -0.082 0.527 l -0.035 0.188 h -0.828 c -0.66 0 -0.828 0 -0.828 -0.016"/><path d="m 8.27 12.05 c -0.09 -0.02 -0.191 -0.074 -0.27 -0.145 c -0.141 -0.125 -0.563 -0.691 -1.078 -1.449 c -0.719 -1.047 -1.391 -1.992 -1.77 -2.473 c -0.402 -0.516 -0.492 -0.656 -0.508 -0.785 c -0.008 -0.063 -0.004 -0.074 0.035 -0.113 c 0.023 -0.023 0.059 -0.043 0.074 -0.043 c 0.055 0 0.234 0.066 0.449 0.164 c 0.574 0.258 0.824 0.309 1.02 0.195 c 0.129 -0.074 0.227 -0.242 0.313 -0.543 c 0.07 -0.246 0.168 -0.383 0.297 -0.422 c 0.051 -0.016 0.066 -0.016 0.121 0.012 c 0.078 0.039 0.227 0.156 0.445 0.352 c 0.281 0.258 0.395 0.344 0.539 0.414 c 0.094 0.047 0.148 0.059 0.277 0.055 c 0.242 0 0.434 -0.102 0.621 -0.328 c 0.188 -0.227 0.297 -0.406 0.672 -1.109 c 0.332 -0.625 0.465 -0.848 0.582 -0.969 c 0.105 -0.109 0.156 -0.125 0.219 -0.063 c 0.164 0.156 0.141 0.516 -0.105 1.742 c -0.27 1.336 -0.824 3.66 -1.055 4.43 c -0.184 0.602 -0.32 0.879 -0.504 1 c -0.117 0.078 -0.254 0.109 -0.375 0.078 m 0.297 -0.758 c 0.043 -0.031 0.059 -0.055 0.09 -0.137 c 0.098 -0.258 0.277 -0.98 0.57 -2.324 c 0.355 -1.617 0.48 -2.277 0.438 -2.348 c -0.02 -0.035 -0.039 0 -0.355 0.621 c -0.293 0.578 -0.414 0.789 -0.527 0.934 c -0.168 0.207 -0.285 0.273 -0.508 0.285 c -0.266 0.012 -0.43 -0.074 -0.656 -0.348 c -0.145 -0.172 -0.277 -0.313 -0.293 -0.313 c -0.023 0 -0.047 0.059 -0.094 0.238 c -0.098 0.352 -0.254 0.562 -0.414 0.562 c -0.109 0 -0.43 -0.145 -0.773 -0.348 c -0.262 -0.16 -0.379 -0.211 -0.379 -0.18 c 0 0.023 0.047 0.09 0.223 0.316 c 0.102 0.137 0.348 0.457 0.539 0.711 c 0.195 0.258 0.504 0.664 0.691 0.902 c 0.184 0.242 0.457 0.594 0.605 0.789 c 0.289 0.379 0.441 0.555 0.516 0.609 c 0.117 0.082 0.23 0.09 0.328 0.027"/><path d="m 8.07 10.84 c -0.148 -0.063 -0.25 -0.352 -0.363 -1.016 c -0.09 -0.523 -0.125 -0.793 -0.125 -1.027 c 0 -0.254 0.012 -0.305 0.082 -0.313 c 0.07 -0.008 0.121 0.082 0.281 0.508 c 0.277 0.75 0.457 1.598 0.375 1.789 c -0.035 0.074 -0.148 0.102 -0.246 0.059"/></g><path d="m 8.453 3.617 c -1.273 -0.004 -2.484 0.867 -3.344 1.859 c -0.348 0.457 -0.594 0.961 -0.742 1.512 h -1.328 l -0.309 0.754 h 1.5 c -0.023 0.203 -0.023 0.406 -0.027 0.609 h -1.27 l -0.305 0.758 h 1.633 c 0.043 0.305 0.117 0.594 0.215 0.867 c 0.5 -0.336 0.992 -0.641 1.473 -0.914 c -0.211 -0.297 -0.41 -0.574 -0.578 -0.797 c -0.117 -0.16 -0.223 -0.293 -0.297 -0.387 c -0.441 -0.539 -0.527 -0.738 -0.359 -0.828 c 0.059 -0.031 0.199 0.016 0.531 0.172 c 0.055 0.023 0.105 0.047 0.152 0.066 c 0.094 0.043 0.18 0.074 0.262 0.102 c 0.004 0.004 0.012 0.008 0.02 0.008 c 0.023 0.008 0.047 0.016 0.07 0.02 c 0.008 0.004 0.02 0.008 0.031 0.012 c 0.148 0.035 0.266 0.039 0.363 0.008 c 0.023 -0.008 0.047 -0.016 0.07 -0.027 c 0.086 -0.051 0.156 -0.133 0.215 -0.254 c 0.008 -0.02 0.016 -0.043 0.023 -0.066 c 0.012 -0.023 0.023 -0.051 0.031 -0.078 c 0.004 -0.008 0.008 -0.012 0.008 -0.02 c 0.008 -0.016 0.012 -0.031 0.016 -0.051 c 0.016 -0.039 0.027 -0.082 0.035 -0.129 c 0.063 -0.238 0.199 -0.391 0.348 -0.391 c 0.066 0 0.254 0.141 0.484 0.355 c 0.293 0.273 0.465 0.406 0.621 0.465 c 0 0 0 0 0.004 0 c 0.016 0.004 0.027 0.008 0.043 0.012 c 0.016 0.004 0.031 0.008 0.047 0.012 c 0.063 0.012 0.125 0.012 0.195 0.004 c 0.051 -0.008 0.102 -0.016 0.148 -0.031 c 0.023 -0.008 0.047 -0.016 0.07 -0.027 c 0.137 -0.059 0.27 -0.176 0.414 -0.371 c 0.074 -0.098 0.148 -0.219 0.234 -0.359 c 0.113 -0.188 0.238 -0.422 0.383 -0.703 c 0.359 -0.699 0.559 -1 0.691 -1.02 c 0.004 0 0.008 0 0.012 0 c 0.059 0 0.102 0.051 0.145 0.148 c 0.059 0.133 0.055 0.238 -0.004 0.68 c -0.039 0.313 -0.164 0.945 -0.328 1.703 c 0.285 -0.09 0.559 -0.164 0.816 -0.23 l 0.031 -0.07 h 0.273 c 0.215 -0.051 0.418 -0.094 0.609 -0.129 c -0.223 -1.148 -0.898 -2.066 -1.824 -2.793 c -0.5 -0.312 -1.01 -0.445 -1.504 -0.449 m 1.203 2.855 c 0 0 -0.004 0 -0.008 0.004 c 0 0.004 -0.004 0.004 -0.008 0.012 c -0.004 0.004 -0.004 0.004 -0.008 0.008 c -0.004 0.008 -0.008 0.016 -0.016 0.027 c -0.02 0.031 -0.047 0.078 -0.078 0.137 c -0.063 0.117 -0.145 0.277 -0.23 0.453 c -0.098 0.203 -0.184 0.367 -0.262 0.512 c 0.16 -0.059 0.316 -0.117 0.473 -0.168 c 0.07 -0.344 0.117 -0.605 0.137 -0.766 c 0.02 -0.137 0.02 -0.207 0 -0.219 m -2.336 1.191 c -0.02 0 -0.063 0.117 -0.094 0.262 c -0.063 0.301 -0.25 0.551 -0.406 0.551 c -0.125 0 -0.48 -0.168 -0.863 -0.406 c -0.035 -0.023 -0.07 -0.043 -0.102 -0.063 c -0.023 -0.012 -0.043 -0.023 -0.063 -0.035 c -0.012 -0.004 -0.02 -0.008 -0.027 -0.012 c -0.016 -0.008 -0.023 -0.012 -0.031 -0.016 c -0.008 -0.004 -0.012 -0.004 -0.016 -0.004 c -0.008 -0.004 -0.02 -0.008 -0.023 -0.008 c -0.016 -0.004 -0.023 -0.004 -0.027 0 c 0 0 0 0.004 0 0.004 c 0.004 0.02 0.023 0.059 0.059 0.105 c 0.016 0.02 0.031 0.039 0.051 0.063 c 0.066 0.082 0.32 0.414 0.566 0.742 c 0.488 -0.262 0.965 -0.496 1.422 -0.699 c -0.063 -0.059 -0.121 -0.129 -0.195 -0.219 c -0.027 -0.035 -0.055 -0.07 -0.082 -0.105 c -0.055 -0.063 -0.102 -0.113 -0.133 -0.137 c -0.008 -0.008 -0.012 -0.012 -0.016 -0.016 c 0 0 -0.004 0 -0.004 -0.004 c -0.004 0 -0.008 -0.004 -0.012 -0.004 c 0 0 0 0 -0.004 0" fill="url(#1)" fill-rule="evenodd"/></svg>