<svg xmlns="http://www.w3.org/2000/svg" viewBox="0 0 16 16"><path d="m 0.141 7.984 c -1.203 -10.609 16 -10.465 15.801 0.188 c 0.566 9.906 -16.738 10.801 -15.801 -0.188" fill="#707f8f"/><path d="m 7.398 13.605 c -0.125 -0.137 -0.133 -0.164 -0.133 -0.555 v -0.41 l -0.293 -0.27 c -0.164 -0.148 -0.309 -0.281 -0.32 -0.297 c -0.012 -0.016 -0.09 -0.086 -0.172 -0.156 c -0.152 -0.125 -0.156 -0.129 -0.852 -0.129 h -0.695 l -0.07 0.156 c -0.172 0.367 -0.676 0.516 -0.98 0.285 c -0.527 -0.395 -0.531 -0.816 -0.008 -1.254 l 0.145 -0.125 v -1.273 l -0.375 -0.371 c -0.59 -0.586 -0.555 -0.563 -0.676 -0.473 c -0.152 0.109 -0.355 0.09 -0.559 -0.051 c -0.324 -0.219 -0.34 -0.254 -0.34 -0.648 c 0 -0.352 0 -0.355 0.168 -0.512 c 0.172 -0.16 0.289 -0.188 0.648 -0.168 c 0.145 0.012 0.207 -0.031 0.613 -0.418 c 0.25 -0.238 0.465 -0.477 0.48 -0.527 c 0.012 -0.055 0.031 -0.328 0.035 -0.617 c 0.012 -0.469 0 -0.527 -0.078 -0.598 c -0.445 -0.383 -0.461 -0.414 -0.461 -0.73 c 0 -0.285 0.008 -0.305 0.168 -0.465 c 0.352 -0.344 0.762 -0.336 1.121 0.023 l 0.184 0.188 l 0.684 -0.012 l 0.68 -0.016 l 0.25 -0.211 c 0.137 -0.121 0.281 -0.25 0.32 -0.289 c 0.039 -0.039 0.133 -0.125 0.207 -0.188 c 0.195 -0.172 0.211 -0.211 0.133 -0.398 c -0.09 -0.223 -0.09 -0.316 0.016 -0.523 c 0.16 -0.32 0.277 -0.383 0.688 -0.383 c 0.402 0 0.434 0.016 0.648 0.348 c 0.148 0.227 0.152 0.352 0.023 0.59 l -0.102 0.184 l 0.227 0.219 c 0.125 0.121 0.344 0.32 0.488 0.441 l 0.266 0.223 h 1.344 l 0.113 -0.156 c 0.074 -0.098 0.215 -0.199 0.371 -0.266 c 0.25 -0.102 0.258 -0.102 0.445 -0.02 c 0.266 0.117 0.426 0.281 0.516 0.52 c 0.074 0.195 0.07 0.207 -0.035 0.422 c -0.066 0.129 -0.184 0.27 -0.281 0.336 l -0.168 0.109 l 0.004 0.609 c 0.004 0.336 0.02 0.645 0.035 0.684 c 0.016 0.039 0.234 0.266 0.484 0.5 l 0.453 0.426 l 0.32 0.004 c 0.301 0 0.328 0.008 0.465 0.152 c 0.141 0.148 0.145 0.172 0.145 0.527 c 0 0.406 -0.023 0.453 -0.293 0.641 c -0.207 0.145 -0.387 0.156 -0.57 0.047 l -0.129 -0.078 l -0.422 0.414 c -0.234 0.227 -0.438 0.445 -0.453 0.484 c -0.016 0.039 -0.031 0.348 -0.035 0.68 l -0.004 0.609 l 0.18 0.176 c 0.098 0.098 0.211 0.258 0.254 0.355 c 0.074 0.172 0.074 0.191 0 0.383 c -0.094 0.25 -0.18 0.348 -0.395 0.461 c -0.328 0.172 -0.672 0.07 -0.922 -0.266 l -0.117 -0.16 h -1.313 l -0.449 0.41 c -0.465 0.418 -0.516 0.512 -0.391 0.684 c 0.078 0.105 0.086 0.363 0.016 0.508 c -0.027 0.055 -0.102 0.156 -0.168 0.23 c -0.109 0.121 -0.137 0.125 -0.531 0.125 c -0.402 0 -0.414 -0.004 -0.547 -0.141 m 0.695 -1.445 c 0.168 -0.305 0.129 -0.379 -0.203 -0.359 c -0.227 0.012 -0.262 0.027 -0.273 0.113 c -0.008 0.055 0.016 0.129 0.055 0.168 c 0.039 0.043 0.09 0.129 0.117 0.199 c 0.063 0.172 0.164 0.133 0.305 -0.121 m -0.805 -0.082 c 0 -0.125 -0.098 -0.23 -0.238 -0.266 c -0.164 -0.043 -0.156 0.008 0.02 0.195 c 0.164 0.176 0.219 0.191 0.219 0.07 m 1.437 -0.063 c 0.184 -0.184 0.191 -0.246 0.027 -0.203 c -0.176 0.043 -0.238 0.109 -0.238 0.238 c 0 0.148 0.031 0.141 0.211 -0.035 m -2.801 -0.594 c 0 -0.09 -0.172 -0.191 -0.328 -0.191 c -0.176 0 -0.441 0.121 -0.441 0.199 c 0 0.023 0.172 0.031 0.387 0.027 c 0.211 -0.008 0.383 -0.023 0.383 -0.035 m 2.484 -0.094 c 0.055 -0.039 0.113 -0.141 0.129 -0.223 c 0.016 -0.082 0.059 -0.176 0.094 -0.203 c 0.148 -0.129 0.012 -0.418 -0.203 -0.418 c -0.063 0 -0.148 -0.035 -0.195 -0.074 c -0.121 -0.113 -0.543 -0.141 -0.613 -0.035 c -0.031 0.043 -0.133 0.09 -0.223 0.105 c -0.109 0.02 -0.199 0.074 -0.262 0.156 l -0.09 0.129 l 0.09 0.105 c 0.055 0.055 0.109 0.168 0.125 0.242 c 0.02 0.078 0.074 0.184 0.125 0.238 c 0.082 0.094 0.121 0.098 0.508 0.074 c 0.277 -0.016 0.449 -0.047 0.516 -0.098 m -1.496 -0.063 c -0.074 -0.238 -0.078 -0.242 -0.121 -0.313 c -0.023 -0.039 -0.055 -0.109 -0.07 -0.16 c -0.023 -0.082 -0.031 -0.082 -0.109 -0.012 c -0.043 0.043 -0.129 0.078 -0.188 0.078 c -0.117 0 -0.273 0.121 -0.273 0.215 c 0 0.035 0.059 0.094 0.133 0.129 c 0.07 0.039 0.141 0.102 0.156 0.145 c 0.02 0.051 0.094 0.07 0.273 0.07 h 0.25 m 2.492 -0.145 c 0.105 -0.078 0.191 -0.172 0.191 -0.207 c 0 -0.086 -0.176 -0.207 -0.301 -0.207 c -0.051 0 -0.121 -0.031 -0.152 -0.07 c -0.078 -0.098 -0.137 -0.09 -0.137 0.016 c 0 0.047 -0.039 0.141 -0.09 0.207 c -0.051 0.063 -0.09 0.184 -0.09 0.262 c 0 0.137 0.008 0.145 0.195 0.145 c 0.145 0 0.242 -0.035 0.383 -0.145 m 1.063 0.051 c -0.176 -0.152 -0.598 -0.109 -0.598 0.055 c 0 0.023 0.156 0.039 0.352 0.035 h 0.352 m -5.496 -0.414 c 0.047 -0.051 0.125 -0.098 0.18 -0.105 c 0.086 -0.012 0.074 -0.035 -0.117 -0.234 c -0.117 -0.121 -0.23 -0.223 -0.258 -0.223 c -0.129 0 -0.301 0.523 -0.203 0.621 c 0.066 0.066 0.324 0.031 0.398 -0.059 m 5.914 -0.035 c 0.082 -0.109 0.07 -0.199 -0.051 -0.402 l -0.109 -0.18 l -0.207 0.207 c -0.211 0.207 -0.262 0.316 -0.148 0.316 c 0.035 0 0.098 0.043 0.145 0.094 c 0.098 0.109 0.277 0.09 0.371 -0.035 m -5.02 -0.336 c 0.063 -0.051 0.188 -0.102 0.281 -0.109 c 0.219 -0.023 0.27 -0.078 0.215 -0.23 c -0.027 -0.066 -0.066 -0.133 -0.094 -0.152 c -0.027 -0.016 -0.047 -0.086 -0.047 -0.156 c 0 -0.18 -0.211 -0.426 -0.363 -0.426 c -0.063 0 -0.152 -0.043 -0.199 -0.098 c -0.063 -0.078 -0.121 -0.094 -0.316 -0.082 c -0.223 0.016 -0.234 0.023 -0.25 0.152 c -0.008 0.074 -0.055 0.188 -0.102 0.25 c -0.133 0.176 -0.109 0.27 0.145 0.508 c 0.129 0.125 0.27 0.258 0.313 0.301 c 0.16 0.152 0.27 0.164 0.418 0.043 m 4.246 -0.113 c 0.355 -0.316 0.469 -0.465 0.441 -0.59 c -0.016 -0.063 -0.059 -0.148 -0.094 -0.191 c -0.035 -0.039 -0.063 -0.113 -0.066 -0.16 c 0 -0.172 -0.07 -0.223 -0.293 -0.215 c -0.133 0.004 -0.258 0.043 -0.328 0.102 c -0.063 0.051 -0.152 0.094 -0.195 0.094 c -0.117 0 -0.316 0.262 -0.316 0.414 c 0 0.074 -0.031 0.16 -0.07 0.191 c -0.043 0.039 -0.066 0.117 -0.055 0.203 c 0.012 0.133 0.027 0.145 0.18 0.148 c 0.094 0.004 0.219 0.051 0.289 0.105 c 0.152 0.125 0.281 0.098 0.508 -0.102 m -5.707 -0.273 c 0 -0.125 -0.082 -0.27 -0.152 -0.27 c -0.063 0 -0.098 0.438 -0.043 0.527 c 0.039 0.063 0.195 -0.145 0.195 -0.258 m 6.871 0.168 c 0.043 -0.113 0.031 -0.43 -0.016 -0.457 c -0.066 -0.043 -0.184 0.109 -0.184 0.234 c 0 0.227 0.141 0.383 0.199 0.223 m -4.395 -0.18 c 0.016 -0.035 0.09 -0.078 0.164 -0.098 c 0.117 -0.027 0.129 -0.039 0.074 -0.098 c -0.039 -0.035 -0.148 -0.078 -0.246 -0.094 c -0.098 -0.016 -0.199 -0.063 -0.227 -0.102 c -0.039 -0.051 -0.059 -0.055 -0.086 -0.008 c -0.02 0.031 0.004 0.113 0.063 0.191 c 0.051 0.07 0.094 0.164 0.094 0.203 c 0 0.09 0.133 0.094 0.164 0.004 m 1.844 -0.027 c -0.008 -0.031 0.043 -0.117 0.109 -0.191 c 0.098 -0.102 0.113 -0.145 0.074 -0.188 c -0.039 -0.039 -0.059 -0.035 -0.082 0.023 c -0.02 0.051 -0.082 0.078 -0.172 0.078 c -0.16 0 -0.363 0.121 -0.324 0.191 c 0.016 0.023 0.078 0.043 0.141 0.043 c 0.063 0 0.125 0.031 0.137 0.07 c 0.035 0.086 0.137 0.063 0.117 -0.027 m -0.891 -0.398 c 0.059 -0.043 0.152 -0.063 0.203 -0.051 c 0.059 0.016 0.129 -0.008 0.184 -0.063 c 0.051 -0.055 0.148 -0.09 0.242 -0.09 c 0.098 0 0.191 -0.035 0.238 -0.09 c 0.047 -0.051 0.141 -0.098 0.215 -0.105 c 0.07 -0.008 0.152 -0.059 0.18 -0.109 c 0.027 -0.051 0.086 -0.141 0.129 -0.203 c 0.047 -0.063 0.082 -0.145 0.082 -0.18 c 0 -0.039 0.039 -0.121 0.09 -0.188 c 0.051 -0.066 0.09 -0.16 0.09 -0.211 c 0 -0.047 0.043 -0.145 0.09 -0.207 c 0.125 -0.164 0.117 -0.426 -0.02 -0.695 c -0.063 -0.117 -0.113 -0.242 -0.113 -0.273 c 0 -0.031 -0.031 -0.082 -0.063 -0.113 c -0.035 -0.027 -0.074 -0.109 -0.09 -0.184 c -0.016 -0.074 -0.07 -0.207 -0.125 -0.301 c -0.078 -0.137 -0.125 -0.172 -0.23 -0.172 c -0.078 0 -0.191 -0.043 -0.254 -0.094 c -0.063 -0.051 -0.172 -0.094 -0.238 -0.094 c -0.066 0 -0.172 -0.039 -0.23 -0.086 c -0.215 -0.172 -0.801 -0.164 -0.973 0.012 c -0.039 0.043 -0.129 0.074 -0.195 0.078 c -0.066 0 -0.184 0.039 -0.258 0.09 c -0.074 0.051 -0.188 0.094 -0.25 0.094 c -0.148 0 -0.363 0.273 -0.363 0.457 c 0 0.074 -0.039 0.172 -0.09 0.219 c -0.051 0.047 -0.094 0.141 -0.094 0.211 c 0 0.066 -0.039 0.164 -0.09 0.207 c -0.07 0.066 -0.09 0.145 -0.09 0.355 c 0 0.223 0.016 0.281 0.09 0.32 c 0.059 0.035 0.09 0.098 0.09 0.191 c 0 0.074 0.039 0.176 0.086 0.223 c 0.047 0.047 0.094 0.148 0.109 0.227 c 0.035 0.176 0.254 0.434 0.371 0.434 c 0.047 0 0.121 0.031 0.164 0.07 c 0.043 0.039 0.156 0.086 0.254 0.102 c 0.098 0.016 0.223 0.066 0.285 0.113 c 0.059 0.047 0.164 0.086 0.234 0.086 c 0.07 0 0.141 0.023 0.156 0.047 c 0.035 0.063 0.051 0.063 0.184 -0.027 m -3.156 -0.254 c 0.191 -0.277 0.125 -0.496 -0.172 -0.559 c -0.094 -0.016 -0.207 -0.047 -0.25 -0.066 c -0.07 -0.031 -0.078 -0.008 -0.078 0.18 c 0 0.18 0.023 0.242 0.164 0.402 c 0.18 0.207 0.223 0.211 0.336 0.043 m 6.441 -0.039 c 0.109 -0.145 0.137 -0.227 0.137 -0.395 c 0 -0.203 -0.047 -0.277 -0.113 -0.168 c -0.016 0.023 -0.094 0.043 -0.176 0.043 c -0.09 0 -0.18 0.039 -0.23 0.094 c -0.074 0.086 -0.078 0.117 -0.027 0.293 c 0.055 0.172 0.152 0.309 0.238 0.313 c 0.016 0 0.094 -0.078 0.172 -0.18 m -5.363 -0.578 c -0.039 -0.082 -0.086 -0.207 -0.102 -0.277 c -0.016 -0.07 -0.059 -0.129 -0.094 -0.129 c -0.07 0 -0.109 0.113 -0.125 0.352 c -0.012 0.121 0.004 0.141 0.125 0.152 c 0.074 0.008 0.156 0.035 0.18 0.059 c 0.078 0.082 0.09 -0.008 0.016 -0.156 m 3.98 0.152 c 0.016 -0.023 0.086 -0.047 0.16 -0.047 c 0.172 0 0.184 -0.027 0.125 -0.293 c -0.059 -0.258 -0.172 -0.285 -0.219 -0.051 c -0.016 0.082 -0.063 0.195 -0.105 0.258 c -0.039 0.059 -0.074 0.125 -0.074 0.145 c 0 0.051 0.082 0.043 0.113 -0.012 m -5.879 -0.137 c 0 -0.145 -0.098 -0.277 -0.227 -0.305 c -0.207 -0.047 -0.215 0 -0.039 0.184 c 0.148 0.156 0.266 0.211 0.266 0.121 m 7.961 -0.078 c 0.215 -0.184 0.238 -0.25 0.09 -0.25 c -0.176 0 -0.234 0.051 -0.27 0.223 c -0.035 0.184 -0.004 0.188 0.18 0.027 m -1.207 -0.133 c 0.02 -0.043 0.117 -0.078 0.211 -0.086 c 0.098 -0.008 0.199 -0.047 0.227 -0.086 c 0.027 -0.035 0.086 -0.082 0.129 -0.098 c 0.066 -0.023 0.082 -0.094 0.086 -0.383 c 0.004 -0.191 0.012 -0.387 0.012 -0.43 c 0.004 -0.043 -0.039 -0.105 -0.098 -0.133 c -0.055 -0.027 -0.137 -0.086 -0.184 -0.129 c -0.047 -0.043 -0.121 -0.078 -0.168 -0.078 c -0.047 0 -0.152 -0.027 -0.238 -0.059 c -0.168 -0.063 -0.234 -0.012 -0.238 0.18 c 0 0.055 -0.039 0.137 -0.09 0.184 c -0.129 0.117 -0.129 0.566 -0.004 0.73 c 0.047 0.063 0.102 0.176 0.121 0.25 c 0.047 0.199 0.164 0.266 0.234 0.137 m -5.527 -0.066 c 0.023 -0.051 0.047 -0.133 0.047 -0.18 c 0 -0.051 0.039 -0.129 0.09 -0.172 c 0.066 -0.066 0.09 -0.145 0.09 -0.316 c 0 -0.16 -0.027 -0.266 -0.09 -0.348 c -0.051 -0.066 -0.09 -0.168 -0.09 -0.223 c 0 -0.152 -0.121 -0.242 -0.23 -0.172 c -0.047 0.031 -0.125 0.055 -0.176 0.055 c -0.047 0 -0.191 0.055 -0.316 0.125 l -0.23 0.121 v 0.426 c 0 0.426 0 0.43 0.141 0.535 c 0.078 0.059 0.219 0.117 0.316 0.133 c 0.098 0.012 0.191 0.043 0.203 0.066 c 0.043 0.07 0.195 0.039 0.246 -0.051 m -1.27 -0.387 c 0.004 -0.008 0.016 -0.133 0.027 -0.281 c 0.02 -0.223 0.008 -0.273 -0.055 -0.301 c -0.086 -0.031 -0.469 0.16 -0.508 0.258 c -0.031 0.086 0.16 0.277 0.301 0.301 c 0.188 0.031 0.234 0.035 0.234 0.023 m 8.227 -0.109 c 0.094 -0.063 0.168 -0.148 0.168 -0.184 c 0 -0.098 -0.336 -0.313 -0.461 -0.297 c -0.094 0.016 -0.105 0.043 -0.109 0.273 c -0.004 0.141 0.004 0.273 0.012 0.293 c 0.039 0.07 0.227 0.031 0.391 -0.086 m -6.367 -0.941 c 0 -0.059 0.031 -0.121 0.07 -0.133 c 0.035 -0.016 0.066 -0.066 0.066 -0.117 c 0 -0.074 -0.023 -0.082 -0.125 -0.059 c -0.305 0.074 -0.32 0.117 -0.188 0.469 c 0.047 0.129 0.051 0.129 0.113 0.043 c 0.035 -0.051 0.063 -0.141 0.063 -0.203 m 4.348 0.023 c 0.059 -0.23 0.023 -0.285 -0.207 -0.332 c -0.121 -0.023 -0.145 -0.012 -0.145 0.059 c 0 0.047 0.027 0.113 0.063 0.141 c 0.031 0.031 0.074 0.117 0.09 0.191 c 0.039 0.199 0.137 0.172 0.195 -0.059 m -6.195 -0.004 c 0.043 -0.07 0.047 -0.266 0.004 -0.266 c -0.047 0 -0.332 0.293 -0.332 0.34 c 0 0.059 0.289 -0.012 0.328 -0.074 m 8.16 0.078 c 0 -0.047 -0.281 -0.344 -0.324 -0.344 c -0.051 0 -0.047 0.109 0.008 0.254 c 0.031 0.094 0.074 0.121 0.18 0.121 c 0.078 0 0.137 -0.016 0.137 -0.031 m -7.625 -0.273 c 0.031 -0.035 0.113 -0.07 0.184 -0.07 c 0.273 0 0.324 -0.25 0.125 -0.594 l -0.09 -0.152 l -0.125 0.105 c -0.188 0.152 -0.273 0.328 -0.273 0.535 c 0 0.25 0.066 0.316 0.18 0.176 m 6.898 -0.109 c 0 -0.078 0.012 -0.168 0.027 -0.207 c 0.016 -0.047 -0.047 -0.156 -0.168 -0.289 l -0.195 -0.219 l -0.098 0.117 c -0.098 0.117 -0.18 0.465 -0.129 0.547 c 0.012 0.023 0.105 0.047 0.203 0.047 c 0.098 0 0.203 0.027 0.234 0.066 c 0.09 0.105 0.125 0.086 0.125 -0.063 m -5.73 -0.363 c 0.082 -0.016 0.172 -0.055 0.199 -0.09 c 0.027 -0.035 0.102 -0.066 0.16 -0.066 c 0.063 0 0.121 -0.035 0.141 -0.082 c 0.016 -0.043 0.055 -0.098 0.086 -0.117 c 0.031 -0.02 0.07 -0.109 0.09 -0.199 c 0.016 -0.094 0.059 -0.18 0.09 -0.191 c 0.035 -0.012 0.063 -0.086 0.063 -0.156 c 0 -0.148 -0.102 -0.23 -0.293 -0.23 c -0.063 0 -0.148 -0.043 -0.191 -0.094 c -0.156 -0.184 -0.301 -0.117 -0.738 0.332 c -0.25 0.262 -0.281 0.379 -0.137 0.566 c 0.051 0.066 0.09 0.129 0.09 0.145 c 0 0.012 0.02 0.078 0.047 0.148 c 0.035 0.098 0.066 0.117 0.148 0.094 c 0.055 -0.016 0.164 -0.043 0.246 -0.059 m 4.824 -0.059 c 0.023 -0.051 0.047 -0.129 0.047 -0.176 c 0 -0.047 0.039 -0.121 0.09 -0.168 c 0.051 -0.043 0.09 -0.117 0.09 -0.164 c 0 -0.121 -0.652 -0.754 -0.777 -0.754 c -0.055 0 -0.137 0.035 -0.184 0.078 c -0.047 0.043 -0.16 0.09 -0.254 0.105 c -0.117 0.02 -0.188 0.063 -0.234 0.152 c -0.066 0.117 -0.063 0.133 0.031 0.234 c 0.055 0.063 0.102 0.16 0.102 0.219 c 0 0.129 0.234 0.375 0.355 0.375 c 0.051 0 0.105 0.023 0.121 0.051 c 0.094 0.152 0.539 0.184 0.609 0.047 m -3.656 -0.398 c 0.016 -0.043 0.086 -0.07 0.176 -0.07 c 0.086 0 0.191 -0.031 0.242 -0.07 c 0.074 -0.059 0.078 -0.074 0.02 -0.113 c -0.039 -0.027 -0.113 -0.047 -0.164 -0.051 c -0.055 0 -0.109 -0.031 -0.125 -0.07 c -0.035 -0.098 -0.121 -0.086 -0.121 0.02 c 0 0.047 -0.039 0.141 -0.09 0.203 c -0.051 0.066 -0.09 0.141 -0.09 0.172 c 0 0.074 0.121 0.059 0.152 -0.02 m 2.254 0.023 c 0 -0.027 -0.043 -0.086 -0.094 -0.129 c -0.047 -0.043 -0.09 -0.137 -0.09 -0.207 c 0 -0.145 -0.051 -0.168 -0.137 -0.063 c -0.031 0.039 -0.09 0.07 -0.129 0.07 c -0.039 0.004 -0.102 0.02 -0.141 0.043 c -0.113 0.074 0.031 0.191 0.234 0.191 c 0.113 0 0.184 0.023 0.203 0.07 c 0.027 0.078 0.152 0.094 0.152 0.023 m -4.594 -0.148 c 0.086 -0.09 0.063 -0.277 -0.063 -0.48 l -0.109 -0.188 v 0.258 c 0 0.273 0.035 0.465 0.086 0.465 c 0.016 0 0.055 -0.027 0.086 -0.055 m 6.906 -0.246 c 0 -0.211 -0.012 -0.25 -0.066 -0.23 c -0.145 0.059 -0.141 0.484 0 0.484 c 0.051 0 0.066 -0.063 0.066 -0.254 m -3.176 -0.191 c 0.039 -0.035 0.156 -0.078 0.262 -0.094 c 0.156 -0.027 0.191 -0.051 0.191 -0.133 c 0 -0.055 -0.027 -0.141 -0.063 -0.191 c -0.035 -0.051 -0.074 -0.16 -0.094 -0.246 c -0.047 -0.219 -0.203 -0.285 -0.664 -0.281 c -0.438 0.004 -0.633 0.078 -0.633 0.238 c 0 0.059 -0.039 0.168 -0.09 0.242 c -0.09 0.141 -0.082 0.293 0.02 0.363 c 0.027 0.016 0.121 0.031 0.207 0.035 c 0.098 0 0.188 0.031 0.23 0.082 c 0.055 0.063 0.121 0.078 0.316 0.063 c 0.137 -0.008 0.277 -0.043 0.316 -0.078 m -3.082 -0.215 c 0.246 -0.215 0.273 -0.273 0.117 -0.273 c -0.059 0 -0.145 -0.043 -0.191 -0.094 c -0.059 -0.066 -0.129 -0.09 -0.223 -0.082 c -0.125 0.012 -0.141 0.031 -0.152 0.191 c -0.012 0.125 0.012 0.211 0.09 0.309 c 0.059 0.078 0.113 0.141 0.121 0.141 c 0.008 0 0.113 -0.086 0.238 -0.191 m 5.828 0.02 c 0.129 -0.152 0.141 -0.234 0.043 -0.375 c -0.09 -0.129 -0.273 -0.137 -0.34 -0.012 c -0.027 0.055 -0.094 0.094 -0.16 0.094 c -0.059 0 -0.109 0.02 -0.109 0.039 c 0 0.047 0.367 0.383 0.418 0.383 c 0.023 0 0.09 -0.059 0.148 -0.129 m -4.273 -0.227 c -0.02 -0.047 0.016 -0.113 0.098 -0.176 c 0.094 -0.078 0.117 -0.129 0.094 -0.203 c -0.063 -0.211 -0.578 -0.137 -0.734 0.105 c -0.086 0.129 -0.016 0.211 0.203 0.242 c 0.102 0.012 0.211 0.055 0.238 0.09 c 0.063 0.078 0.137 0.039 0.102 -0.059 m 2.656 -0.02 c 0.137 0 0.277 -0.082 0.277 -0.16 c 0 -0.035 -0.074 -0.129 -0.164 -0.211 c -0.141 -0.125 -0.191 -0.145 -0.371 -0.133 c -0.191 0.016 -0.215 0.027 -0.227 0.133 c -0.008 0.074 0.023 0.152 0.078 0.207 c 0.051 0.047 0.094 0.121 0.094 0.164 c 0 0.121 0.055 0.148 0.137 0.07 c 0.043 -0.039 0.121 -0.07 0.176 -0.07 m -3.648 -0.371 c 0.016 -0.027 -0.023 -0.047 -0.09 -0.047 c -0.066 0 -0.105 0.02 -0.09 0.047 c 0.016 0.023 0.055 0.047 0.09 0.047 c 0.035 0 0.074 -0.023 0.09 -0.047 m 4.641 -0.047 c 0.082 0 0.148 -0.02 0.148 -0.047 c 0 -0.027 -0.109 -0.039 -0.25 -0.035 c -0.176 0.008 -0.25 0.031 -0.25 0.074 c 0 0.043 0.035 0.055 0.102 0.035 c 0.059 -0.012 0.172 -0.027 0.25 -0.027 m -3.266 -0.539 c 0.121 -0.063 0.234 -0.273 0.176 -0.332 c -0.023 -0.023 -0.344 0.316 -0.348 0.371 c 0 0.047 0.012 0.043 0.172 -0.039 m 1.09 -0.074 c 0.008 -0.039 -0.02 -0.109 -0.059 -0.152 c -0.043 -0.039 -0.09 -0.133 -0.109 -0.203 c -0.051 -0.199 -0.184 -0.164 -0.316 0.09 c -0.156 0.305 -0.117 0.375 0.211 0.355 c 0.195 -0.008 0.262 -0.031 0.273 -0.09 m 0.645 0.066 c 0 -0.043 -0.281 -0.34 -0.324 -0.34 c -0.047 0 0.055 0.297 0.117 0.34 c 0.063 0.043 0.207 0.043 0.207 0" fill="#cfcfcf"/><path d="m 7.664 13.605 c -0.273 -0.199 -0.332 -0.422 -0.195 -0.715 c 0.078 -0.172 0.133 -0.223 0.266 -0.262 c 0.371 -0.105 0.52 -0.055 0.684 0.234 c 0.164 0.277 0.102 0.52 -0.191 0.758 c -0.203 0.16 -0.324 0.156 -0.562 -0.016 m -3.586 -1.477 c -0.148 -0.027 -0.359 -0.262 -0.391 -0.434 c -0.066 -0.336 0.34 -0.742 0.656 -0.648 c 0.203 0.059 0.387 0.234 0.445 0.43 c 0.047 0.152 0.043 0.199 -0.027 0.324 c -0.145 0.254 -0.414 0.383 -0.684 0.328 m 7.18 -0.078 c -0.215 -0.094 -0.348 -0.348 -0.313 -0.582 c 0.027 -0.16 0.066 -0.211 0.238 -0.332 c 0.23 -0.156 0.359 -0.172 0.551 -0.07 c 0.438 0.234 0.426 0.828 -0.02 1 c -0.16 0.063 -0.289 0.055 -0.457 -0.02 m -8.922 -3.664 c -0.094 -0.102 -0.195 -0.184 -0.219 -0.184 c -0.117 0 -0.035 -0.238 0.148 -0.441 c 0.219 -0.25 0.438 -0.313 0.73 -0.211 c 0.195 0.063 0.297 0.254 0.297 0.547 c 0 0.277 -0.25 0.477 -0.594 0.477 c -0.164 0 -0.215 -0.027 -0.363 -0.188 m 10.469 0.133 c -0.227 -0.125 -0.297 -0.234 -0.297 -0.453 c 0 -0.324 0.129 -0.504 0.379 -0.543 c 0.289 -0.043 0.465 0.012 0.598 0.18 c 0.063 0.082 0.137 0.176 0.16 0.207 c 0.094 0.117 0.043 0.27 -0.16 0.465 c -0.172 0.172 -0.227 0.199 -0.395 0.199 c -0.109 0 -0.238 -0.027 -0.285 -0.055 m -8.855 -3.551 c -0.203 -0.094 -0.355 -0.363 -0.324 -0.574 c 0.063 -0.375 0.473 -0.586 0.801 -0.41 c 0.336 0.176 0.434 0.594 0.195 0.82 c -0.246 0.238 -0.414 0.277 -0.672 0.164 m 7.445 0.031 c -0.047 -0.012 -0.164 -0.098 -0.258 -0.191 c -0.141 -0.137 -0.172 -0.199 -0.172 -0.348 c 0 -0.152 0.031 -0.215 0.176 -0.363 c 0.148 -0.152 0.207 -0.184 0.367 -0.184 c 0.332 0 0.594 0.227 0.594 0.516 c 0 0.184 -0.137 0.402 -0.316 0.504 c -0.176 0.102 -0.219 0.109 -0.391 0.066 m -3.586 -1.621 c -0.023 -0.008 -0.098 -0.027 -0.164 -0.043 c -0.09 -0.02 -0.141 -0.082 -0.219 -0.262 c -0.125 -0.309 -0.078 -0.492 0.184 -0.668 c 0.098 -0.07 0.18 -0.145 0.18 -0.168 c 0 -0.027 0.047 -0.047 0.109 -0.047 c 0.066 0 0.191 0.082 0.34 0.227 c 0.195 0.195 0.23 0.258 0.23 0.398 c 0 0.242 -0.168 0.523 -0.336 0.559 c -0.137 0.027 -0.246 0.031 -0.324 0.004" fill="#b2251a"/><path d="m 7.621 13.496 c -0.051 -0.039 -0.117 -0.137 -0.145 -0.211 c -0.066 -0.207 0.102 -0.52 0.313 -0.574 c 0.379 -0.102 0.668 0.125 0.621 0.488 c -0.012 0.102 -0.055 0.219 -0.094 0.262 c -0.102 0.102 -0.57 0.125 -0.695 0.035 m -3.652 -1.492 c -0.172 -0.102 -0.246 -0.316 -0.184 -0.535 c 0.043 -0.141 0.09 -0.195 0.238 -0.262 c 0.168 -0.078 0.203 -0.082 0.375 -0.02 c 0.488 0.176 0.414 0.801 -0.105 0.859 c -0.133 0.016 -0.246 0 -0.324 -0.043 m 7.238 -0.063 c -0.434 -0.348 0.004 -1.023 0.504 -0.777 c 0.328 0.16 0.387 0.426 0.156 0.695 c -0.121 0.145 -0.164 0.164 -0.352 0.164 c -0.129 -0.004 -0.25 -0.035 -0.309 -0.082 m -8.82 -3.59 c -0.082 -0.102 -0.098 -0.172 -0.078 -0.352 c 0.023 -0.277 0.102 -0.363 0.355 -0.391 c 0.293 -0.031 0.434 0.039 0.496 0.262 c 0.113 0.379 -0.051 0.609 -0.43 0.609 c -0.215 0 -0.258 -0.016 -0.344 -0.129 m 10.352 0.039 c -0.129 -0.129 -0.16 -0.305 -0.098 -0.52 c 0.066 -0.223 0.203 -0.293 0.496 -0.262 c 0.254 0.027 0.332 0.113 0.359 0.391 c 0.016 0.18 0 0.25 -0.078 0.352 c -0.086 0.113 -0.129 0.129 -0.344 0.129 c -0.188 0 -0.27 -0.023 -0.336 -0.09 m -8.867 -3.57 c -0.148 -0.152 -0.184 -0.266 -0.148 -0.461 c 0.047 -0.27 0.336 -0.438 0.594 -0.352 c 0.199 0.066 0.297 0.191 0.324 0.406 c 0.023 0.16 0.004 0.207 -0.121 0.355 c -0.125 0.145 -0.172 0.172 -0.34 0.172 c -0.148 0 -0.219 -0.031 -0.309 -0.121 m 7.414 0.008 c -0.195 -0.152 -0.227 -0.203 -0.227 -0.379 c -0.004 -0.172 0.098 -0.328 0.27 -0.418 c 0.199 -0.105 0.344 -0.086 0.52 0.074 c 0.137 0.121 0.16 0.176 0.16 0.34 c 0 0.156 -0.027 0.223 -0.129 0.324 c -0.188 0.184 -0.398 0.207 -0.594 0.059 m -3.531 -1.551 c -0.246 -0.055 -0.418 -0.477 -0.27 -0.672 c 0.152 -0.203 0.57 -0.25 0.773 -0.086 c 0.164 0.133 0.172 0.488 0.012 0.645 c -0.105 0.105 -0.332 0.152 -0.516 0.113" fill="#cd0302"/></svg>