<svg xmlns="http://www.w3.org/2000/svg" xmlns:xlink="http://www.w3.org/1999/xlink" viewBox="0 0 16 16"><defs><g id="3" clip-path="url(#2)"><path d="m 41.984 5.981 h 12.03 v 84 h -12.03" transform="matrix(0.0945 0 0 0.09365 3.353 4.02)" fill="#f8f8ff" stroke="#fff"/></g><g id="6" clip-path="url(#5)"><path d="m 48.02 5.981 h 0.992 v 79.998 h -0.992" transform="matrix(0.0945 0 0 0.09365 3.353 4.02)" fill="#f8f8ff" stroke="#fff"/></g><g id="9" clip-path="url(#8)"><path d="m 54.01 5.981 h 1.984 v 84 h -1.984" transform="matrix(0.0945 0 0 0.09365 3.353 4.02)" fill="#f8f8ff" stroke="#fff"/></g><g id="C" clip-path="url(#B)"><path d="m -41.984 5.981 h 1.984 v 84 h -1.984" transform="matrix(-0.0945 0 0 0.09365 3.353 4.02)" fill="#f8f8ff" stroke="#fff"/></g><g id="F" clip-path="url(#E)"><path d="m 41.984 5.981 v 84 h 1.033 v -84" transform="matrix(0.0945 0 0 0.09365 3.353 4.02)" fill="#f8f8ff" stroke="#fff"/></g><g id="I" clip-path="url(#H)"><path d="m 41.984 5.981 h 12.03 v 84 h -12.03" transform="matrix(0.0945 0 0 0.09365 3.353 4.02)" fill="#f8f8ff" stroke="#fff"/></g><g id="L" clip-path="url(#K)"><path d="m 12.01 85.979 c -3.348 0 -5.994 -2.669 -5.994 -5.964 v -68.03 c 0 -3.295 2.646 -6.01 5.994 -6.01 h 71.969 c 3.348 0 6.04 2.711 6.04 6.01 v 68.03 c 0 3.295 -2.687 5.964 -6.04 5.964 m -71.969 -0.959 h 71.969 c 2.811 0 5.04 -2.211 5.04 -5.01 v -68.03 c 0 -2.795 -2.232 -5.01 -5.04 -5.01 h -71.969 c -2.811 0 -5.04 2.211 -5.04 5.01 v 68.03 c 0 2.795 2.232 5.01 5.04 5.01" transform="matrix(0.0945 0 0 0.09365 3.353 4.02)" fill="#f8f8ff" stroke="#fff"/></g><g id="O" clip-path="url(#N)"><path d="m 6.02 78.01 v 2 c 0 3.295 2.646 5.964 5.994 5.964 h 71.969 c 3.348 0 6.04 -2.669 6.04 -5.964 v -2 c 0 3.295 -2.687 6.01 -6.04 6.01 h -71.969 c -3.348 0 -5.994 -2.711 -5.994 -6.01" transform="matrix(0.0945 0 0 0.09365 3.353 4.02)" fill="#f8f8ff" stroke="#fff"/></g><g id="R" clip-path="url(#Q)"><path d="m 6.02 82.02 v 2 c 0 3.295 2.646 5.964 5.994 5.964 h 71.969 c 3.348 0 6.04 -2.669 6.04 -5.964 v -2 c 0 3.295 -2.687 5.964 -6.04 5.964 h -71.969 c -3.348 0 -5.994 -2.669 -5.994 -5.964" transform="matrix(0.0945 0 0 0.09365 3.353 4.02)" fill="#f8f8ff" stroke="#fff"/></g><g id="U" clip-path="url(#T)"><path d="m 6.02 83.02 v 1 c 0 3.295 2.646 5.964 5.994 5.964 h 71.969 c 3.348 0 6.04 -2.669 6.04 -5.964 v -1 c 0 3.295 -2.687 5.964 -6.04 5.964 h -71.969 c -3.348 0 -5.994 -2.669 -5.994 -5.964" transform="matrix(0.0945 0 0 0.09365 3.353 4.02)" fill="#f8f8ff" stroke="#fff"/></g><g id="X" clip-path="url(#W)"><path d="m 59.47 55.07 c -1.116 0 -1.984 0.918 -1.984 2 v 22.02 c 0 1.084 0.868 2 1.984 2 h 21.992 c 1.116 0 2.026 -0.918 2.026 -2 v -22.02 c 0 -1.084 -0.909 -2 -2.026 -2 m -21 2 h 20.01 c 0.579 0 0.992 0.459 0.992 1 v 20.02 c 0 0.542 -0.413 1 -0.992 1 h -20.01 c -0.537 0 -0.992 -0.459 -0.992 -1 v -20.02 c 0 -0.542 0.455 -1 0.992 -1 m 8.805 2 c -0.372 0 -0.703 0.292 -0.703 0.667 v 1.293 c -0.62 0.167 -1.199 0.417 -1.778 0.709 l -0.868 -0.918 c -0.248 -0.25 -0.703 -0.25 -0.951 0 l -1.736 1.752 c -0.248 0.25 -0.248 0.667 0 0.918 l 0.951 0.876 c -0.331 0.584 -0.579 1.168 -0.785 1.793 h -1.24 c -0.372 0 -0.661 0.334 -0.661 0.709 v 2.419 c 0 0.375 0.289 0.709 0.661 0.709 h 1.24 c 0.207 0.626 0.455 1.21 0.785 1.752 l -0.951 0.876 c -0.248 0.25 -0.248 0.709 0 0.959 l 1.736 1.752 c 0.248 0.25 0.703 0.25 0.951 0 l 0.868 -0.959 c 0.579 0.334 1.157 0.584 1.778 0.751 v 1.293 c 0 0.375 0.331 0.667 0.703 0.667 h 2.439 c 0.331 0 0.661 -0.292 0.661 -0.667 v -1.293 c 0.661 -0.167 1.24 -0.417 1.819 -0.751 l 0.868 0.959 c 0.124 0.125 0.289 0.125 0.455 0.125 c 0.165 0 0.331 0 0.455 -0.125 l 1.778 -1.752 c 0.248 -0.25 0.248 -0.709 0 -0.959 l -0.951 -0.876 c 0.331 -0.542 0.579 -1.126 0.744 -1.752 h 1.281 c 0.372 0 0.661 -0.334 0.661 -0.709 v -2.419 c 0 -0.375 -0.289 -0.709 -0.661 -0.709 h -1.281 c -0.165 -0.626 -0.413 -1.21 -0.744 -1.793 l 0.951 -0.876 c 0.248 -0.25 0.248 -0.667 0 -0.918 l -1.778 -1.752 c -0.248 -0.25 -0.661 -0.25 -0.909 0 l -0.868 0.918 c -0.579 -0.292 -1.157 -0.542 -1.819 -0.709 v -1.293 c 0 -0.375 -0.331 -0.667 -0.661 -0.667 m -1.24 5.631 c 1.86 0 3.39 1.502 3.39 3.378 c 0 1.835 -1.529 3.378 -3.39 3.378 c -1.86 0 -3.348 -1.543 -3.348 -3.378 c 0 -1.877 1.488 -3.378 3.348 -3.378" transform="matrix(0.0945 0 0 0.09365 3.353 4.02)" fill="#f8f8ff" stroke="#fff"/></g><clipPath id="8"><path d="M 0,0 H16 V16 H0 z"/></clipPath><clipPath id="E"><path d="M 0,0 H16 V16 H0 z"/></clipPath><clipPath id="K"><path d="M 0,0 H16 V16 H0 z"/></clipPath><clipPath id="H"><path d="M 0,0 H16 V16 H0 z"/></clipPath><clipPath id="B"><path d="M 0,0 H16 V16 H0 z"/></clipPath><clipPath id="N"><path d="M 0,0 H16 V16 H0 z"/></clipPath><clipPath id="W"><path d="M 0,0 H16 V16 H0 z"/></clipPath><clipPath id="5"><path d="M 0,0 H16 V16 H0 z"/></clipPath><clipPath id="T"><path d="M 0,0 H16 V16 H0 z"/></clipPath><clipPath id="Q"><path d="M 0,0 H16 V16 H0 z"/></clipPath><clipPath id="2"><path d="M 0,0 H16 V16 H0 z"/></clipPath><filter id="0" filterUnits="objectBoundingBox" x="0" y="0" width="16" height="16"><feColorMatrix type="matrix" in="SourceGraphic" values="0 0 0 0 1 0 0 0 0 1 0 0 0 0 1 0 0 0 1 0"/></filter><mask id="4"><g filter="url(#0)"><path fill-opacity="0.2" d="M 0,0 H16 V16 H0 z"/></g></mask><mask id="G"><g filter="url(#0)"><path fill-opacity="0.2" d="M 0,0 H16 V16 H0 z"/></g></mask><mask id="S"><g filter="url(#0)"><path fill-opacity="0.149" d="M 0,0 H16 V16 H0 z"/></g></mask><mask id="V"><g filter="url(#0)"><path fill-opacity="0.573" d="M 0,0 H16 V16 H0 z"/></g></mask><mask id="1"><g filter="url(#0)"><path fill-opacity="0.702" d="M 0,0 H16 V16 H0 z"/></g></mask><mask id="P"><g filter="url(#0)"><path fill-opacity="0.102" d="M 0,0 H16 V16 H0 z"/></g></mask><mask id="D"><g filter="url(#0)"><path fill-opacity="0.502" d="M 0,0 H16 V16 H0 z"/></g></mask><mask id="7"><g filter="url(#0)"><path fill-opacity="0.102" d="M 0,0 H16 V16 H0 z"/></g></mask><mask id="J"><g filter="url(#0)"><path fill-opacity="0.302" d="M 0,0 H16 V16 H0 z"/></g></mask><mask id="M"><g filter="url(#0)"><path fill-opacity="0.102" d="M 0,0 H16 V16 H0 z"/></g></mask><mask id="A"><g filter="url(#0)"><path fill-opacity="0.051" d="M 0,0 H16 V16 H0 z"/></g></mask></defs><path d="m 15.793 8.176 c 1.391 6.902 -8.148 9.52 -13.328 6.531 c -4.129 -2.383 -2.949 -10.547 2.625 -13.59 c 5.57 -3.043 9.586 1.52 10.703 7.06" fill="#730097"/><use xlink:href="#3" mask="url(#1)"/><use xlink:href="#6" mask="url(#4)"/><use xlink:href="#9" mask="url(#7)"/><use xlink:href="#C" mask="url(#A)"/><use xlink:href="#F" mask="url(#D)"/><use xlink:href="#I" mask="url(#G)"/><use xlink:href="#L" mask="url(#J)"/><use xlink:href="#O" mask="url(#M)"/><path d="m 6.02 80.01 v 4 c 0 3.295 2.646 5.964 5.994 5.964 h 71.969 c 3.348 0 6.04 -2.669 6.04 -5.964 v -4 c 0 3.295 -2.687 5.964 -6.04 5.964 h -71.969 c -3.348 0 -5.994 -2.669 -5.994 -5.964" transform="matrix(0.0945 0 0 0.09365 3.353 4.02)" fill="#f8f8ff" stroke="#fff"/><use xlink:href="#R" mask="url(#P)"/><use xlink:href="#U" mask="url(#S)"/><use xlink:href="#X" mask="url(#V)"/><g fill-rule="evenodd"><g fill="#f8f8ff" stroke="#fff" fill-opacity="0.992" transform="scale(0.0625 0.0625)"><path d="m 141.81 185.87 c -0.5 -0.25 -1.125 -0.875 -1.313 -1.25 c -0.625 -1.125 -0.813 -12.687 -0.563 -25.25 l 0.313 -10.937 l 1 -1 l 0.938 -1 h 36.06 l 0.938 0.937 c 0.563 0.562 1 1.5 1.125 2.375 c 0.125 0.812 0.188 8.937 0.125 18 l -0.125 16.562 l -1 0.937 l -0.938 1 l -17.813 0.063 c -15.188 0.062 -17.875 0 -18.688 -0.437 m 34.31 -19.437 c 0.063 -12.187 -0.063 -15.562 -0.375 -15.812 c -0.75 -0.5 -30.875 -0.375 -31.375 0.125 c -0.313 0.312 -0.375 4.25 -0.375 15.375 c 0 8.187 0.063 15.187 0.188 15.5 c 0.188 0.5 1.875 0.562 16 0.5 l 15.813 -0.125 l 0.063 -15.562"/><path d="m 157.31 179.87 c -0.25 -0.312 -0.5 -1 -0.5 -1.5 c 0 -0.75 -0.25 -1.062 -1.063 -1.375 c -0.875 -0.312 -1.125 -0.312 -1.625 0.25 c -1 1.062 -2.125 0.812 -3.875 -0.75 c -1.875 -1.687 -2.125 -2.5 -1.188 -3.687 c 1 -1.25 0.625 -3 -0.625 -3 c -1.938 0 -2.25 -0.5 -2.25 -3.312 c 0 -2.875 0.188 -3.312 1.875 -3.5 c 1.5 -0.125 1.938 -1.625 0.938 -3.062 c -0.625 -0.812 -0.688 -1.187 -0.438 -1.687 c 0.438 -0.812 3.5 -3.687 3.938 -3.687 c 0.125 0 0.688 0.375 1.25 0.75 c 1.25 1 2.813 0.562 3 -0.937 c 0.188 -1.687 0.563 -1.937 3.625 -1.937 c 3 0 2.875 -0.062 3.188 2.312 c 0.063 0.375 0.563 0.812 1.063 1 c 0.813 0.25 1.188 0.125 1.938 -0.437 c 0.5 -0.375 1.063 -0.75 1.25 -0.75 c 0.563 0 4.188 3.625 4.188 4.187 c 0 0.312 -0.313 0.937 -0.75 1.375 c -0.688 0.687 -0.688 0.937 -0.313 1.875 c 0.375 0.875 0.625 1.062 1.625 1.062 c 1.563 0 2 0.937 1.875 3.812 c -0.188 2.437 -0.5 2.937 -2.188 2.937 c -1.438 0 -1.938 1.5 -0.938 2.75 c 1 1.25 0.875 1.687 -0.938 3.625 c -1.813 1.937 -2.875 2.187 -4 1 c -0.625 -0.687 -0.75 -0.687 -1.75 -0.125 c -0.875 0.437 -1.125 0.75 -1.125 1.562 c 0 1.375 -0.813 1.812 -3.5 1.812 c -1.438 0 -2.25 -0.188 -2.688 -0.562 m 6.125 -10.562 c 0.938 -1.062 1.125 -1.562 1.125 -2.875 c 0 -2.687 -1.75 -4.437 -4.438 -4.437 c -3.438 0 -5.5 3.687 -3.688 6.687 c 1.563 2.5 4.938 2.812 7 0.625"/></g><g fill="#fff" stroke="#695acd"><g transform="matrix(0.0625 0 0 0.0625 0 -49.773)"><path d="m 187.63 929.42 l -0.063 -52.31 l -0.75 -1.563 c -0.5 -1 -1.375 -2 -2.25 -2.563 l -1.5 -1 l -22.06 -0.063 l -22 -0.125 v -2.563 l 22 0.063 c 20.5 0 22.13 0 23.5 0.625 c 2.188 1 3.688 2.438 4.688 4.5 l 0.938 1.875 v 50.688 c 0 50.38 0 50.625 -0.688 50.625 c -0.563 0 -0.75 0.25 -0.75 1 c 0 0.563 -0.25 1.5 -0.563 2.063 c -0.375 0.938 -0.5 -6.563 -0.5 -51.19"/><path d="m 64.19 980.55 c -0.25 -0.688 -0.5 -1.625 -0.5 -2.125 c 0 -0.563 -0.188 -0.813 -0.688 -0.813 c -0.75 0 -0.75 -0.25 -0.75 -50.31 c 0 -56.06 -0.188 -52.25 2.563 -55.06 c 2.875 -2.938 1.125 -2.75 26.19 -2.875 l 22.375 -0.125 v 2.563 l -22 0.063 l -22.06 0.125 l -1.25 0.875 c -0.75 0.5 -1.688 1.438 -2.188 2.188 l -0.875 1.25 l -0.188 52.75 c -0.125 42.75 -0.25 52.5 -0.625 51.5"/><path d="m 113.38 870.55 c 0 -1.25 0.063 -1.25 1.5 -1.25 c 1.438 0 1.438 0 1.438 1.25 c 0 1.25 0 1.25 -1.438 1.25 c -1.438 0 -1.5 0 -1.5 -1.25"/><path d="m 136.06 870.55 c 0 -1.25 0.063 -1.25 1.438 -1.25 c 1.438 0 1.5 0 1.5 1.25 c 0 1.25 -0.063 1.25 -1.5 1.25 c -1.375 0 -1.438 0 -1.438 -1.25"/><path d="m 190.25 979.05 c 0 -0.875 0.063 -1.25 0.125 -0.813 c 0.125 0.438 0.125 1.188 0 1.625 c -0.063 0.438 -0.125 0.063 -0.125 -0.813"/><path d="m 188.81 979.49 c 0.25 -2.25 1.313 -2.625 1.313 -0.438 c 0 1.188 -0.125 1.438 -0.75 1.438 c -0.563 0 -0.688 -0.188 -0.563 -1"/><path d="m 62.25 979.05 c 0 -1.625 0.563 -1.938 1.125 -0.5 c 0.5 1.375 0.438 1.938 -0.375 1.938 c -0.625 0 -0.75 -0.25 -0.75 -1.438"/><path d="m 119.63 929.05 v -56.875 h 5.813 v 113.75 h -5.813"/><path d="m 128.63 985.74 c -0.125 -0.125 -0.25 -25.75 -0.25 -56.938 v -56.625 h 6.25 v 113.81 h -2.875 c -1.563 0 -3 -0.125 -3.125 -0.25"/><path d="m 128.38 986.74 c 0 -0.688 -0.188 -0.75 -1.438 -0.75 h -1.5 v -114.19 h 2.938 l 0.063 57.75 c 0.063 31.75 0.063 57.75 0.063 57.875 c -0.063 0.063 -0.125 -0.25 -0.125 -0.688"/><path d="m 119.63 987.99 c 0 -0.438 0.563 -0.563 2.938 -0.563 c 2.313 0 2.875 0.125 2.875 0.563 c 0 0.438 -0.563 0.5 -2.875 0.5 c -2.375 0 -2.938 -0.063 -2.938 -0.5"/><path d="m 128.38 987.99 c 0 -0.5 0.688 -0.563 3.813 -0.563 c 3.188 0 3.875 0.063 3.875 0.563 c 0 0.438 -0.688 0.5 -3.875 0.5 c -3.125 0 -3.813 -0.063 -3.813 -0.5"/><path d="m 117.31 987.17 c -0.563 -0.188 -0.625 -3.25 -0.625 -57.75 v -57.62 h 2.563 v 57.813 c 0 54.813 -0.063 57.813 -0.625 57.75 c -0.375 0 -0.938 -0.125 -1.313 -0.188"/><path d="m 119.63 870.55 v -1.25 h 5.813 v 2.5 h -5.813"/><path d="m 125.44 870.55 c 0 -1.25 0.063 -1.25 1.5 -1.25 c 1.438 0 1.438 0 1.438 1.25 c 0 1.25 0 1.25 -1.438 1.25 c -1.438 0 -1.5 0 -1.5 -1.25"/><path d="m 128.38 870.55 v -1.25 h 6.188 v 2.5 h -6.188"/><path d="m 119.5 986.74 v -0.688 l 6 0.125 v 1.188 h -6"/><path d="m 128.63 986.61 v -0.75 l 2 0.125 c 1.063 0.125 2.438 0.188 3 0.188 c 0.938 0 1 0.063 1 0.563 v 0.625 h -6"/><path d="m 125.5 986.74 c 0 -0.563 0.063 -0.563 1.375 -0.5 c 1.125 0.063 1.375 0.125 1.5 0.625 c 0.25 0.5 0.188 0.5 -1.313 0.5 c -1.5 0 -1.563 0 -1.563 -0.625"/><path d="m 125.5 988.05 v -0.813 l 1.438 0.125 c 1.438 0.063 1.438 0.063 1.438 0.75 c 0 0.688 0 0.688 -1.438 0.688 h -1.438"/></g><g transform="scale(0.0625)"><path d="m 67.69 187.88 c -1.875 -1.125 -2 -4.938 -2 -54.56 c 0 -50.19 0.125 -53.44 2.125 -55.25 c 1.813 -1.625 5.188 -1.875 23.625 -1.875 h 21.5 v 112.94 l -21.625 -0.063 c -12.5 0 -22.438 -0.5 -23.625 -1.188"/><path d="m 139.13 132.5 v -56.875 l 21.688 0.063 l 21.625 0.063 l 1.438 0.813 c 1.5 0.813 2.813 2.5 3.25 4.188 c 0.188 0.625 0.25 19.13 0.25 53.19 l -0.125 52.19 l -1.063 1.063 c -0.625 0.5 -1.75 1.25 -2.625 1.563 c -1.5 0.563 -1.688 0.563 -23 0.563 h -21.438 m 39.563 -3.125 c 0.625 -0.25 1.125 -0.813 1.5 -1.563 c 0.5 -1.063 0.5 -1.563 0.5 -18.313 c 0 -19.25 0.063 -18.5 -1.813 -19.688 l -1 -0.625 h -17.688 c -16.688 0 -17.75 0.063 -18.5 0.5 c -0.438 0.25 -1.063 0.813 -1.313 1.188 c -0.563 0.75 -0.563 1.188 -0.625 18.313 c -0.063 19.625 -0.188 18.75 1.813 20.06 l 0.875 0.563 h 17.688 c 15.625 0 17.813 -0.063 18.563 -0.438"/><path d="m 144.88 181.88 c -0.313 -0.188 -0.375 -3.5 -0.313 -15.625 l 0.063 -15.438 h 31.13 l 0.063 15.438 c 0.063 12.13 0 15.438 -0.25 15.625 c -0.188 0.063 -7.125 0.188 -15.375 0.188 c -8.25 0 -15.12 -0.125 -15.313 -0.188 m 18.375 -1.625 c 0.375 -0.25 0.688 -0.875 0.75 -1.563 c 0.125 -0.875 0.313 -1.188 0.813 -1.438 c 0.563 -0.25 0.75 -0.188 1.438 0.375 c 1.375 1.125 2.188 0.938 4.25 -1 c 1.5 -1.5 1.75 -1.875 1.75 -2.688 c 0 -0.625 -0.25 -1.188 -0.625 -1.625 c -0.5 -0.563 -0.563 -0.813 -0.375 -1.438 c 0.188 -0.625 0.438 -0.75 1.313 -0.813 c 1.625 -0.125 2.063 -0.75 2.188 -3.125 c 0.188 -3.25 -0.563 -4.438 -2.75 -4.438 c -0.375 0 -0.625 -0.25 -0.875 -0.813 c -0.25 -0.688 -0.188 -0.875 0.188 -1.125 c 0.563 -0.438 1.063 -1.375 1.063 -1.938 c 0 -0.25 -0.75 -1.313 -1.75 -2.313 c -1.563 -1.625 -1.938 -1.875 -2.75 -1.875 c -0.75 0 -1.188 0.188 -1.625 0.688 c -0.5 0.5 -0.688 0.563 -1.375 0.375 c -0.563 -0.25 -0.75 -0.5 -0.875 -1.375 c -0.25 -1.813 -0.688 -2.063 -3.625 -2.063 c -3.125 0 -3.688 0.25 -3.938 2 c -0.125 0.938 -0.313 1.188 -0.938 1.438 c -0.625 0.188 -0.813 0.125 -1.375 -0.375 c -0.375 -0.438 -0.875 -0.688 -1.5 -0.688 c -0.75 0 -1.188 0.313 -2.625 1.688 c -2.125 2.063 -2.313 2.75 -1.25 4 c 0.688 0.75 0.75 0.938 0.5 1.563 c -0.188 0.625 -0.5 0.813 -1.313 0.875 c -1.875 0.25 -2.188 0.875 -2.188 3.813 c 0 3 0.313 3.625 2 3.625 c 0.938 0 1.125 0.125 1.438 0.875 c 0.313 0.75 0.313 0.938 -0.125 1.188 c -0.25 0.188 -0.625 0.688 -0.75 1.125 c -0.438 1.063 0 1.875 1.938 3.75 c 1.688 1.625 2.625 1.75 3.875 0.688 c 0.688 -0.563 0.875 -0.625 1.5 -0.375 c 0.5 0.25 0.688 0.625 0.813 1.5 c 0.25 1.688 0.813 2 3.813 2 c 1.938 0 2.563 -0.125 3 -0.5"/><path d="m 158.75 170.25 c -2.375 -1 -3.375 -3.688 -2.125 -5.875 c 1.125 -2 3.688 -2.688 5.688 -1.563 c 2.625 1.563 2.688 5.063 0.125 7 c -0.813 0.625 -2.75 0.875 -3.688 0.438"/></g></g><path d="m 9.844 11.16 c -0.043 -0.117 -0.094 -0.145 -0.211 -0.113 c -0.121 0.035 -0.207 0 -0.273 -0.098 c -0.035 -0.055 -0.039 -0.082 -0.016 -0.125 c 0.059 -0.109 0.039 -0.188 -0.066 -0.238 c -0.094 -0.043 -0.098 -0.051 -0.098 -0.195 c 0 -0.133 0.008 -0.148 0.07 -0.164 c 0.102 -0.027 0.141 -0.129 0.098 -0.238 c -0.031 -0.078 -0.031 -0.094 0.031 -0.156 c 0.098 -0.105 0.152 -0.129 0.219 -0.094 c 0.086 0.047 0.184 0.012 0.227 -0.082 c 0.035 -0.082 0.043 -0.086 0.211 -0.086 c 0.109 0 0.168 0.012 0.156 0.031 c -0.059 0.094 0.117 0.199 0.234 0.137 c 0.074 -0.039 0.176 0.008 0.238 0.113 c 0.039 0.074 0.043 0.09 0.008 0.145 c -0.055 0.09 -0.008 0.207 0.094 0.23 c 0.094 0.02 0.121 0.102 0.094 0.246 c -0.012 0.066 -0.031 0.098 -0.063 0.098 c -0.027 0 -0.074 0.02 -0.102 0.043 c -0.051 0.035 -0.051 0.066 -0.004 0.223 c 0.012 0.039 -0.012 0.082 -0.078 0.156 c -0.09 0.098 -0.098 0.102 -0.172 0.059 c -0.113 -0.055 -0.203 -0.023 -0.25 0.09 c -0.039 0.09 -0.047 0.098 -0.18 0.098 c -0.125 0 -0.141 -0.008 -0.168 -0.078 m 0.371 -0.559 c 0.211 -0.199 0.078 -0.504 -0.219 -0.504 c -0.082 0 -0.121 0.023 -0.199 0.105 c -0.086 0.09 -0.094 0.113 -0.082 0.223 c 0.031 0.273 0.305 0.367 0.504 0.176" fill="#9370db"/></g></svg>