<svg xmlns="http://www.w3.org/2000/svg" viewBox="0 0 16 16"><path d="m 14.352 12.238 c 5.754 -8.18 -4.871 -16.473 -11.648 -9.805 c -6.387 6.281 -0.465 16.04 7.48 12.992 c 1.656 -0.637 3.113 -1.684 4.168 -3.188" fill="#924564"/><path d="m 4.508 4.777 v 4.059 c 0 0.492 0.059 0.938 0.164 1.344 c 0.109 0.398 0.285 0.75 0.531 1.043 c 0.246 0.297 0.563 0.523 0.965 0.688 c 0.402 0.156 0.902 0.234 1.492 0.234 c 0.68 0 1.281 -0.027 1.793 -0.109 c 0.523 -0.082 0.93 -0.176 1.246 -0.25 v -7.01 h -1.238 v 6.078 c -0.047 0.02 -0.27 0.055 -0.387 0.074 c -0.109 0.012 -0.227 0.027 -0.367 0.047 c -0.137 0.008 -0.273 0.023 -0.43 0.031 c -0.156 0.008 -0.316 0.016 -0.465 0.016 c -0.699 0 -1.199 -0.195 -1.496 -0.578 c -0.293 -0.379 -0.57 -0.984 -0.57 -1.859 v -3.809" fill="#fff"/></svg>