<svg xmlns="http://www.w3.org/2000/svg" viewBox="0 0 16 16"><defs><clipPath><path d="M 0,0 H16 V16 H0 z"/></clipPath><filter id="0" filterUnits="objectBoundingBox" x="0" y="0" width="16" height="16"><feColorMatrix type="matrix" in="SourceGraphic" values="0 0 0 0 1 0 0 0 0 1 0 0 0 0 1 0 0 0 1 0"/></filter><mask><g filter="url(#0)"><path fill-opacity="0.302" d="M 0,0 H16 V16 H0 z"/></g></mask></defs><path d="m 12.703 14.438 c -12.03 8 -19.438 -17.504 -3.891 -14.13 c 6.43 1.441 10.328 10.465 3.891 14.13" fill="#09c"/><g fill-rule="evenodd"><path d="m 7.371 3.781 c -2.059 0 -3.727 1.711 -3.727 3.82 c 0 2.109 1.668 3.824 3.727 3.824 c 0.23 0 0.457 -0.023 0.676 -0.063 c -0.047 -0.203 -0.078 -0.414 -0.078 -0.633 c 0 -1.336 0.988 -2.418 2.215 -2.418 c 0.289 0 0.563 0.059 0.816 0.168 c 0.063 -0.281 0.094 -0.578 0.094 -0.879 c 0 -2.109 -1.664 -3.82 -3.723 -3.82 m -1.215 0.566 c 0.48 0 0.832 0.133 1.176 0.438 l 0.277 -0.398 h 0.336 v 1.836 h -0.336 c -0.152 -0.5 -0.254 -0.723 -0.469 -0.961 c -0.27 -0.297 -0.566 -0.438 -0.93 -0.438 c -0.531 0 -0.895 0.316 -0.895 0.754 c 0 0.238 0.121 0.473 0.336 0.582 c 0.172 0.105 0.172 0.105 0.703 0.234 l 0.477 0.121 c 0.586 0.141 0.777 0.23 1.01 0.461 c 0.27 0.25 0.406 0.621 0.406 1.102 c 0 1.016 -0.625 1.676 -1.566 1.676 c -0.48 0 -0.922 -0.172 -1.316 -0.531 l -0.34 0.445 h -0.336 v -2.062 h 0.383 c 0.23 1.09 0.813 1.68 1.617 1.68 c 0.57 0 0.961 -0.359 0.961 -0.871 c 0 -0.437 -0.27 -0.656 -1.027 -0.863 l -0.512 -0.129 c -0.578 -0.152 -0.797 -0.262 -1.02 -0.492 c -0.211 -0.219 -0.336 -0.582 -0.336 -1 c 0 -0.949 0.555 -1.578 1.402 -1.578" fill-opacity="0.302"/><path d="m 7.324 3.781 c -2.035 0 -3.68 1.637 -3.68 3.656 c 0 2.02 1.645 3.656 3.68 3.656 c 0.227 0 0.453 -0.02 0.672 -0.059 c -0.051 -0.195 -0.074 -0.395 -0.074 -0.602 c 0 -1.277 0.973 -2.316 2.184 -2.316 c 0.281 0 0.555 0.055 0.801 0.16 c 0.066 -0.27 0.102 -0.551 0.102 -0.84 c 0 -2.02 -1.652 -3.656 -3.684 -3.656 m -1.18 0.516 c 0.5 0 0.863 0.133 1.223 0.441 l 0.285 -0.395 h 0.352 v 1.867 h -0.352 c -0.16 -0.512 -0.27 -0.734 -0.488 -0.98 c -0.281 -0.301 -0.586 -0.445 -0.965 -0.445 c -0.547 0 -0.926 0.324 -0.926 0.77 c 0 0.242 0.125 0.477 0.344 0.59 c 0.18 0.109 0.184 0.113 0.73 0.246 l 0.496 0.121 c 0.609 0.145 0.809 0.23 1.051 0.465 c 0.277 0.254 0.418 0.637 0.418 1.125 c 0 1.035 -0.652 1.715 -1.629 1.715 c -0.5 0 -0.953 -0.176 -1.363 -0.543 l -0.352 0.457 h -0.348 v -2.105 h 0.402 c 0.238 1.113 0.832 1.711 1.672 1.711 c 0.586 0 1 -0.363 1 -0.887 c 0 -0.445 -0.281 -0.672 -1.07 -0.883 l -0.527 -0.133 c -0.598 -0.156 -0.832 -0.262 -1.059 -0.496 c -0.223 -0.223 -0.348 -0.594 -0.348 -1.027 c 0 -0.969 0.578 -1.613 1.453 -1.613" fill="#f2f2f2"/></g></svg>