<svg xmlns="http://www.w3.org/2000/svg" viewBox="0 0 16 16"><path d="m 12.266 14.332 c -5.953 5.277 -15.11 -3.047 -11.41 -10.02 c 3.746 -7.05 16.14 -5.168 15.08 3.484 c -0.313 2.574 -1.73 4.809 -3.672 6.531" fill="#c02828"/><path d="m 3.223 8.211 v -1.488 h -1.191 v -1.027 h 3.684 v 1.027 h -1.188 v 2.973 h -1.305 v -1.484 m 2.691 -0.516 v -2 h 3.578 v 1.023 h -0.934 c -0.512 0 -1.023 0 -1.137 0.004 h -0.199 v 0.492 h 2.27 v 0.953 h -2.27 v 0.504 h 2.27 v 1.023 h -3.578 v -2 m 3.797 0 v -2 l 1.148 0.004 c 0.84 0 1.164 0 1.195 0.004 c 0.152 0.016 0.258 0.031 0.367 0.055 c 0.441 0.102 0.781 0.332 1.016 0.684 c 0.125 0.188 0.219 0.418 0.273 0.668 c 0.059 0.262 0.074 0.578 0.047 0.863 c -0.039 0.422 -0.172 0.773 -0.391 1.043 c -0.313 0.387 -0.797 0.609 -1.438 0.668 c -0.16 0.012 -0.254 0.012 -1.246 0.012 h -0.973 v -2 m 2.01 0.965 c 0.207 -0.031 0.355 -0.098 0.484 -0.223 c 0.168 -0.164 0.262 -0.426 0.262 -0.75 c 0 -0.152 -0.02 -0.262 -0.063 -0.391 c -0.02 -0.059 -0.066 -0.148 -0.098 -0.195 c -0.156 -0.223 -0.391 -0.344 -0.73 -0.375 c -0.023 0 -0.16 -0.004 -0.297 -0.004 h -0.258 v 1.949 h 0.324 c 0.309 -0.004 0.328 -0.004 0.375 -0.012" fill="#fff"/></svg>