<svg xmlns="http://www.w3.org/2000/svg" viewBox="0 0 16 16"><path d="m 7.598 0.227 c -21.688 9.641 10.133 26.969 8.328 5.488 c -0.422 -3.234 -3.766 -6.629 -8.328 -5.488" fill="#e5c100"/><g fill="#fff" fill-rule="evenodd"><path d="m 7.211 10.594 c -0.121 -0.059 -0.23 -0.16 -0.25 -0.223 c -0.016 -0.066 -0.055 -0.117 -0.086 -0.117 c -0.031 0 -0.055 -0.086 -0.055 -0.191 c 0 -0.109 0.023 -0.195 0.055 -0.195 c 0.031 0 0.074 -0.07 0.098 -0.156 c 0.027 -0.105 0.102 -0.168 0.23 -0.199 c 0.109 -0.023 0.195 -0.066 0.195 -0.102 c 0 -0.086 -0.18 -0.07 -0.207 0.02 c -0.031 0.094 -0.691 0.098 -0.75 0.004 c -0.023 -0.035 -0.137 -0.086 -0.25 -0.109 c -0.117 -0.027 -0.211 -0.07 -0.211 -0.102 c 0 -0.031 -0.063 -0.074 -0.145 -0.102 c -0.078 -0.023 -0.207 -0.105 -0.285 -0.18 c -0.246 -0.242 -0.336 -0.301 -0.535 -0.34 c -0.105 -0.02 -0.195 -0.063 -0.195 -0.094 c 0 -0.031 -0.027 -0.059 -0.059 -0.059 c -0.031 0 -0.137 -0.027 -0.227 -0.063 c -0.148 -0.055 -0.16 -0.082 -0.098 -0.199 c 0.066 -0.125 0.117 -0.137 0.492 -0.109 c 0.23 0.012 0.438 0.055 0.461 0.09 c 0.023 0.035 0.145 0.105 0.27 0.152 c 0.125 0.051 0.246 0.129 0.277 0.176 c 0.027 0.047 0.094 0.082 0.145 0.082 c 0.051 0 0.094 0.035 0.094 0.078 c 0 0.039 0.016 0.059 0.031 0.039 c 0.055 -0.055 -0.039 -0.246 -0.121 -0.246 c -0.039 0 -0.156 -0.07 -0.258 -0.16 c -0.105 -0.09 -0.23 -0.16 -0.281 -0.16 c -0.051 0 -0.133 -0.043 -0.188 -0.098 c -0.051 -0.051 -0.195 -0.098 -0.316 -0.098 c -0.121 0 -0.219 -0.027 -0.219 -0.063 c 0 -0.035 0.023 -0.066 0.055 -0.066 c 0.031 0 0.078 -0.098 0.098 -0.215 c 0.023 -0.121 0.098 -0.285 0.168 -0.363 c 0.07 -0.082 0.129 -0.184 0.129 -0.223 c 0 -0.141 0.914 -1 1.063 -1 c 0.051 0 0.125 -0.039 0.172 -0.086 c 0.137 -0.137 0.652 -0.238 1.215 -0.238 c 0.523 0 1.094 0.102 1.094 0.195 c 0 0.027 0.086 0.082 0.191 0.117 c 0.109 0.039 0.195 0.098 0.195 0.137 c 0 0.035 0.031 0.066 0.074 0.066 c 0.07 0 0.504 0.426 0.504 0.496 c 0 0.121 -0.156 0.535 -0.203 0.535 c -0.027 0 -0.055 0.043 -0.055 0.098 c 0 0.051 0.031 0.098 0.066 0.098 c 0.035 0 0.063 -0.047 0.063 -0.098 c 0 -0.055 0.023 -0.098 0.055 -0.098 c 0.027 0 0.102 -0.117 0.164 -0.258 c 0.086 -0.195 0.152 -0.258 0.262 -0.258 c 0.246 0 0.27 0.316 0.023 0.32 c -0.023 0 -0.094 0.207 -0.156 0.453 c -0.066 0.25 -0.141 0.449 -0.168 0.449 c -0.027 0 -0.051 0.074 -0.051 0.164 c 0 0.27 0.121 0.176 0.164 -0.129 c 0.023 -0.16 0.063 -0.289 0.09 -0.289 c 0.023 0 0.078 -0.133 0.121 -0.293 c 0.074 -0.281 0.086 -0.289 0.328 -0.289 c 0.164 0 0.262 -0.031 0.289 -0.098 c 0.02 -0.051 0.074 -0.094 0.117 -0.094 c 0.086 -0.004 0.246 -0.285 0.246 -0.434 c 0 -0.047 0.023 -0.082 0.055 -0.082 c 0.031 0 0.074 -0.121 0.098 -0.266 c 0.027 -0.168 0.113 -0.332 0.234 -0.457 l 0.195 -0.195 l -0.043 0.266 c -0.027 0.16 -0.016 0.266 0.023 0.266 c 0.035 0 0.082 -0.121 0.105 -0.266 c 0.023 -0.148 0.07 -0.32 0.105 -0.387 c 0.113 -0.207 0.484 -0.121 0.598 0.137 c 0.023 0.051 0.027 0.012 0.008 -0.09 c -0.031 -0.176 -0.023 -0.18 0.145 -0.137 c 0.102 0.023 0.195 0.055 0.211 0.07 c 0.074 0.078 0.074 0.824 0 0.965 c -0.098 0.184 -0.297 0.207 -0.34 0.043 c -0.023 -0.09 -0.031 -0.09 -0.035 -0.008 c -0.004 0.055 -0.082 0.137 -0.172 0.176 c -0.223 0.102 -0.41 -0.004 -0.461 -0.25 c -0.043 -0.23 -0.148 -0.254 -0.148 -0.031 c 0 0.238 0.297 0.504 0.508 0.453 c 0.094 -0.023 0.176 -0.07 0.191 -0.102 c 0.023 -0.07 0.395 -0.082 0.395 -0.012 c 0 0.027 0.07 0.129 0.156 0.23 c 0.086 0.102 0.145 0.223 0.125 0.273 c -0.047 0.117 -0.426 0.219 -0.816 0.219 c -0.258 0.004 -0.32 -0.02 -0.348 -0.125 c -0.039 -0.156 -0.063 -0.16 -0.184 -0.039 c -0.145 0.145 -0.109 0.215 0.133 0.258 c 0.125 0.023 0.227 0.07 0.227 0.105 c 0 0.031 0.063 0.063 0.141 0.063 c 0.105 0 0.121 0.016 0.07 0.07 c -0.039 0.039 -0.238 0.066 -0.441 0.066 c -0.344 -0.004 -0.387 0.012 -0.582 0.219 c -0.117 0.121 -0.238 0.223 -0.273 0.223 c -0.035 0 -0.109 0.043 -0.164 0.102 c -0.059 0.055 -0.277 0.133 -0.488 0.172 c -0.215 0.039 -0.387 0.094 -0.387 0.125 c 0 0.027 -0.031 0.051 -0.066 0.051 c -0.035 0 -0.063 -0.055 -0.063 -0.129 c 0 -0.07 -0.031 -0.129 -0.066 -0.129 c -0.035 0 -0.066 0.039 -0.066 0.082 c 0 0.043 -0.02 0.148 -0.039 0.234 c -0.039 0.137 -0.027 0.145 0.113 0.102 c 0.086 -0.027 0.164 -0.07 0.176 -0.102 c 0.012 -0.031 0.078 -0.059 0.148 -0.059 c 0.125 0 0.125 0.004 0 0.137 c -0.078 0.082 -0.215 0.137 -0.355 0.141 c -0.18 0.004 -0.234 0.039 -0.262 0.152 c -0.07 0.281 -0.316 0.473 -0.625 0.48 c -0.152 0.004 -0.23 0.02 -0.168 0.039 c 0.137 0.035 0.152 0.211 0.016 0.211 c -0.055 0 -0.098 0.043 -0.098 0.098 c 0 0.051 -0.027 0.098 -0.063 0.098 c -0.035 0 -0.066 -0.031 -0.066 -0.066 c 0 -0.137 -0.117 -0.055 -0.195 0.133 c -0.055 0.133 -0.098 0.172 -0.129 0.121 c -0.039 -0.063 -0.074 -0.055 -0.156 0.027 c -0.059 0.059 -0.129 0.105 -0.156 0.105 c -0.027 0 -0.078 0.094 -0.113 0.211 c -0.07 0.25 -0.219 0.285 -0.531 0.129 m 1.348 -1.176 c 0 -0.035 -0.059 -0.066 -0.129 -0.066 c -0.07 0 -0.129 0.031 -0.129 0.066 c 0 0.035 0.059 0.063 0.129 0.063 c 0.07 0 0.129 -0.027 0.129 -0.063 m -0.324 -0.066 c 0 -0.035 -0.172 -0.063 -0.391 -0.063 c -0.242 0 -0.375 0.023 -0.348 0.063 c 0.02 0.035 0.195 0.066 0.391 0.066 c 0.191 0 0.348 -0.031 0.348 -0.066 m -1.285 -0.449 c 0 -0.035 -0.031 -0.066 -0.066 -0.066 c -0.035 0 -0.063 0.031 -0.063 0.066 c 0 0.035 0.027 0.063 0.063 0.063 c 0.035 0 0.066 -0.027 0.066 -0.063 m -0.484 -0.168 c -0.055 -0.059 -0.121 -0.09 -0.141 -0.07 c -0.055 0.059 0.043 0.172 0.148 0.172 c 0.086 0 0.082 -0.012 -0.008 -0.102 m 1.336 -0.004 c 0.203 -0.023 0.371 -0.07 0.371 -0.102 c 0 -0.086 -0.77 -0.027 -0.828 0.059 c -0.023 0.039 -0.102 0.086 -0.172 0.109 c -0.07 0.02 -0.039 0.023 0.066 0.004 c 0.105 -0.016 0.359 -0.047 0.563 -0.07 m 1.336 0.043 c 0.129 -0.07 0.289 -0.469 0.234 -0.598 c -0.016 -0.047 -0.031 -0.031 -0.035 0.035 c -0.004 0.059 -0.031 0.109 -0.066 0.109 c -0.031 0 -0.094 0.102 -0.141 0.223 c -0.066 0.188 -0.113 0.227 -0.309 0.246 l -0.23 0.027 l 0.215 0.012 c 0.117 0.004 0.266 -0.02 0.332 -0.055 m -0.578 -0.066 c 0 -0.035 -0.074 -0.063 -0.16 -0.063 c -0.09 0 -0.164 0.027 -0.164 0.063 c 0 0.035 0.074 0.066 0.164 0.066 c 0.086 0 0.16 -0.031 0.16 -0.066 m 0.945 -0.773 c -0.016 -0.07 -0.008 -0.129 0.027 -0.129 c 0.031 0 0.059 -0.07 0.059 -0.16 c 0 -0.086 -0.031 -0.16 -0.066 -0.16 c -0.035 0 -0.063 0.039 -0.063 0.09 c 0 0.047 -0.02 0.18 -0.043 0.289 c -0.027 0.137 -0.016 0.199 0.039 0.199 c 0.051 0 0.066 -0.051 0.047 -0.129 m 2.855 -2.027 c 0 -0.246 -0.02 -0.289 -0.129 -0.289 c -0.102 0 -0.129 0.043 -0.129 0.195 c 0 0.188 0.102 0.375 0.207 0.383 c 0.027 0 0.051 -0.129 0.051 -0.289 m 0.422 0.137 c 0.059 -0.234 0.008 -0.457 -0.102 -0.457 c -0.109 0 -0.16 0.223 -0.102 0.457 c 0.051 0.195 0.152 0.195 0.203 0"/><path d="m 4.32 10.277 c -0.09 -0.039 -0.336 -0.512 -0.336 -0.648 c 0 -0.047 0.023 -0.082 0.055 -0.082 c 0.031 0 0.078 -0.117 0.098 -0.262 c 0.023 -0.141 0.086 -0.277 0.137 -0.297 c 0.055 -0.02 0.098 -0.074 0.098 -0.121 c 0 -0.047 0.059 -0.105 0.129 -0.125 c 0.07 -0.023 0.129 -0.07 0.129 -0.102 c 0 -0.035 0.043 -0.063 0.098 -0.063 c 0.051 0 0.094 0.023 0.094 0.051 c 0 0.027 0.133 0.09 0.289 0.137 c 0.246 0.074 0.297 0.117 0.352 0.305 c 0.059 0.211 -0.043 0.801 -0.105 0.621 c -0.016 -0.043 -0.066 -0.082 -0.113 -0.082 c -0.051 0 -0.105 0.039 -0.125 0.082 c -0.031 0.063 -0.047 0.063 -0.074 0 c -0.023 -0.043 -0.07 -0.082 -0.105 -0.082 c -0.117 0 -0.379 0.328 -0.418 0.523 c -0.035 0.188 -0.055 0.203 -0.199 0.145"/><path d="m 7.211 10.594 c -0.121 -0.059 -0.23 -0.16 -0.25 -0.223 c -0.016 -0.066 -0.055 -0.117 -0.086 -0.117 c -0.031 0 -0.055 -0.086 -0.055 -0.191 c 0 -0.109 0.023 -0.195 0.055 -0.195 c 0.031 0 0.074 -0.07 0.098 -0.156 c 0.027 -0.105 0.102 -0.168 0.23 -0.199 c 0.109 -0.023 0.195 -0.066 0.195 -0.102 c 0 -0.086 -0.18 -0.07 -0.207 0.02 c -0.039 0.109 -0.625 0.086 -0.855 -0.039 c -0.105 -0.055 -0.23 -0.102 -0.273 -0.102 c -0.047 0 -0.082 -0.027 -0.082 -0.063 c 0 -0.031 -0.063 -0.078 -0.145 -0.105 c -0.078 -0.023 -0.207 -0.105 -0.285 -0.18 c -0.246 -0.242 -0.336 -0.301 -0.535 -0.34 c -0.105 -0.02 -0.195 -0.063 -0.195 -0.094 c 0 -0.031 -0.027 -0.059 -0.059 -0.059 c -0.031 0 -0.137 -0.027 -0.227 -0.063 c -0.145 -0.055 -0.16 -0.082 -0.102 -0.191 c 0.109 -0.203 0.633 -0.18 1.09 0.047 c 0.199 0.098 0.383 0.211 0.414 0.258 c 0.027 0.043 0.09 0.078 0.137 0.078 c 0.051 0 0.105 0.039 0.121 0.082 c 0.023 0.059 0.035 0.059 0.039 0.004 c 0.004 -0.043 -0.09 -0.141 -0.203 -0.223 c -0.117 -0.082 -0.25 -0.184 -0.297 -0.23 c -0.047 -0.047 -0.137 -0.082 -0.203 -0.082 c -0.066 0 -0.129 -0.031 -0.141 -0.07 c -0.012 -0.035 -0.145 -0.082 -0.297 -0.105 c -0.148 -0.02 -0.273 -0.059 -0.273 -0.09 c 0 -0.031 0.027 -0.059 0.059 -0.059 c 0.031 0 0.078 -0.098 0.098 -0.219 c 0.023 -0.117 0.098 -0.289 0.168 -0.379 c 0.07 -0.09 0.129 -0.188 0.129 -0.223 c 0 -0.137 0.922 -0.98 1.066 -0.98 c 0.047 0 0.121 -0.039 0.168 -0.086 c 0.137 -0.137 0.652 -0.238 1.215 -0.238 c 0.523 0 1.094 0.102 1.094 0.195 c 0 0.027 0.086 0.082 0.191 0.117 c 0.105 0.039 0.195 0.098 0.195 0.137 c 0 0.035 0.031 0.066 0.07 0.066 c 0.074 0 0.508 0.426 0.508 0.496 c 0 0.121 -0.156 0.535 -0.203 0.535 c -0.031 0 -0.055 0.043 -0.055 0.098 c 0 0.051 0.031 0.098 0.066 0.098 c 0.035 0 0.063 -0.047 0.063 -0.098 c 0 -0.055 0.023 -0.098 0.055 -0.098 c 0.027 0 0.102 -0.117 0.164 -0.258 c 0.086 -0.195 0.148 -0.258 0.262 -0.258 c 0.246 0 0.266 0.316 0.023 0.32 c -0.023 0 -0.094 0.207 -0.156 0.453 c -0.066 0.25 -0.141 0.449 -0.168 0.449 c -0.027 0 -0.051 0.074 -0.051 0.164 c 0 0.258 0.109 0.184 0.156 -0.109 c 0.023 -0.148 0.066 -0.301 0.098 -0.34 c 0.027 -0.035 0.086 -0.176 0.129 -0.309 c 0.07 -0.215 0.102 -0.242 0.289 -0.242 c 0.246 0 0.68 -0.375 0.68 -0.582 c 0 -0.07 0.027 -0.125 0.059 -0.125 c 0.031 0 0.074 -0.121 0.098 -0.27 c 0.027 -0.172 0.113 -0.34 0.238 -0.465 l 0.195 -0.199 l -0.047 0.273 c -0.027 0.168 -0.02 0.273 0.023 0.273 c 0.035 0 0.082 -0.121 0.105 -0.266 c 0.023 -0.148 0.07 -0.32 0.105 -0.387 c 0.086 -0.16 0.324 -0.152 0.508 0.016 l 0.148 0.141 l -0.047 -0.148 c -0.043 -0.137 -0.031 -0.145 0.137 -0.102 c 0.102 0.027 0.199 0.059 0.215 0.074 c 0.074 0.078 0.074 0.824 0 0.965 c -0.098 0.184 -0.297 0.207 -0.34 0.043 c -0.023 -0.09 -0.031 -0.09 -0.035 -0.008 c -0.004 0.055 -0.082 0.137 -0.172 0.176 c -0.223 0.102 -0.41 -0.004 -0.461 -0.25 c -0.043 -0.23 -0.148 -0.254 -0.148 -0.031 c 0 0.238 0.297 0.504 0.508 0.453 c 0.09 -0.023 0.176 -0.07 0.188 -0.102 c 0.027 -0.07 0.398 -0.082 0.398 -0.012 c 0 0.027 0.07 0.129 0.156 0.23 c 0.086 0.102 0.145 0.223 0.125 0.273 c -0.047 0.117 -0.426 0.219 -0.816 0.219 c -0.258 0.004 -0.32 -0.02 -0.348 -0.125 c -0.039 -0.156 -0.063 -0.16 -0.188 -0.035 c -0.125 0.125 -0.07 0.207 0.172 0.258 c 0.105 0.023 0.191 0.07 0.191 0.102 c 0 0.035 0.063 0.063 0.141 0.063 c 0.105 0 0.121 0.016 0.07 0.07 c -0.039 0.039 -0.238 0.066 -0.441 0.066 c -0.34 -0.004 -0.387 0.012 -0.574 0.211 c -0.113 0.117 -0.266 0.234 -0.344 0.258 c -0.078 0.023 -0.141 0.07 -0.141 0.102 c 0 0.031 -0.176 0.094 -0.387 0.133 c -0.215 0.043 -0.406 0.102 -0.422 0.133 c -0.063 0.102 -0.156 0.059 -0.156 -0.074 c 0 -0.203 -0.109 -0.148 -0.156 0.074 c -0.051 0.262 -0.016 0.293 0.184 0.16 c 0.086 -0.059 0.207 -0.105 0.262 -0.105 c 0.195 0 -0.125 0.258 -0.352 0.281 c -0.16 0.016 -0.238 0.07 -0.313 0.211 c -0.152 0.297 -0.309 0.41 -0.574 0.414 c -0.133 0.004 -0.207 0.023 -0.164 0.039 c 0.113 0.047 0.102 0.215 -0.016 0.215 c -0.051 0 -0.098 0.043 -0.098 0.098 c 0 0.117 -0.105 0.129 -0.145 0.016 c -0.016 -0.047 -0.082 0.012 -0.16 0.133 c -0.078 0.133 -0.141 0.184 -0.16 0.129 c -0.02 -0.063 -0.055 -0.059 -0.141 0.027 c -0.059 0.063 -0.133 0.113 -0.16 0.113 c -0.027 0 -0.078 0.094 -0.109 0.211 c -0.074 0.25 -0.223 0.285 -0.535 0.129 m 1.348 -1.176 c 0 -0.035 -0.059 -0.066 -0.129 -0.066 c -0.07 0 -0.129 0.031 -0.129 0.066 c 0 0.035 0.059 0.063 0.129 0.063 c 0.07 0 0.129 -0.027 0.129 -0.063 m -0.355 -0.066 c 0.023 -0.039 -0.094 -0.063 -0.316 -0.063 c -0.199 0 -0.359 0.027 -0.359 0.063 c 0 0.035 0.145 0.066 0.316 0.066 c 0.176 0 0.336 -0.031 0.359 -0.066 m -1.258 -0.449 c 0 -0.035 -0.027 -0.066 -0.063 -0.066 c -0.035 0 -0.066 0.031 -0.066 0.066 c 0 0.035 0.031 0.063 0.066 0.063 c 0.035 0 0.063 -0.027 0.063 -0.063 m -0.48 -0.168 c -0.055 -0.059 -0.121 -0.09 -0.141 -0.07 c -0.055 0.059 0.043 0.172 0.148 0.172 c 0.082 0 0.082 -0.012 -0.008 -0.102 m 1.305 -0.004 c 0.188 -0.023 0.359 -0.07 0.383 -0.105 c 0.051 -0.086 -0.758 -0.016 -0.812 0.066 c -0.02 0.035 -0.082 0.082 -0.137 0.105 c -0.051 0.023 -0.023 0.027 0.066 0.008 c 0.09 -0.02 0.313 -0.055 0.5 -0.074 m 1.363 0.043 c 0.121 -0.063 0.262 -0.379 0.262 -0.574 c 0 -0.109 -0.125 0.07 -0.27 0.395 c -0.059 0.133 -0.133 0.18 -0.309 0.195 l -0.227 0.027 l 0.215 0.012 c 0.117 0.004 0.266 -0.02 0.328 -0.055 m -0.574 -0.066 c 0 -0.035 -0.074 -0.063 -0.164 -0.063 c -0.086 0 -0.16 0.027 -0.16 0.063 c 0 0.035 0.074 0.066 0.16 0.066 c 0.09 0 0.164 -0.031 0.164 -0.066 m 0.965 -0.738 c 0 -0.055 -0.027 -0.098 -0.063 -0.098 c -0.039 0 -0.066 0.043 -0.066 0.098 c 0 0.051 0.027 0.094 0.066 0.094 c 0.035 0 0.063 -0.043 0.063 -0.094 m 0.066 -0.324 c 0 -0.086 -0.031 -0.16 -0.066 -0.16 c -0.035 0 -0.063 0.074 -0.063 0.16 c 0 0.09 0.027 0.16 0.063 0.16 c 0.035 0 0.066 -0.07 0.066 -0.16 m 2.766 -1.777 c 0 -0.211 -0.02 -0.258 -0.109 -0.238 c -0.141 0.027 -0.188 0.336 -0.07 0.461 c 0.125 0.137 0.18 0.066 0.18 -0.223 m 0.414 0.227 c 0.02 -0.055 0.039 -0.188 0.039 -0.289 c 0 -0.145 -0.031 -0.188 -0.129 -0.188 c -0.102 0 -0.129 0.043 -0.129 0.188 c 0 0.34 0.133 0.516 0.219 0.289"/><path d="m 7.367 10.664 c -0.031 -0.027 -0.086 -0.047 -0.125 -0.047 c -0.035 0 -0.074 -0.02 -0.082 -0.043 c -0.012 -0.027 -0.051 -0.047 -0.094 -0.047 c -0.047 0 -0.078 -0.016 -0.078 -0.043 c 0 -0.027 -0.02 -0.047 -0.043 -0.047 c -0.031 0 -0.047 -0.031 -0.047 -0.09 c 0 -0.051 -0.012 -0.09 -0.027 -0.09 c -0.02 0 -0.031 -0.09 -0.031 -0.211 c 0 -0.121 0.012 -0.211 0.031 -0.211 c 0.016 0 0.027 -0.039 0.027 -0.09 c 0 -0.063 0.016 -0.09 0.047 -0.09 c 0.023 0 0.043 -0.02 0.043 -0.043 c 0 -0.023 0.043 -0.051 0.094 -0.059 c 0.047 -0.012 0.09 -0.035 0.09 -0.059 c 0 -0.027 -0.027 -0.035 -0.09 -0.027 c -0.051 0.008 -0.094 0.023 -0.094 0.039 c 0 0.063 -0.438 -0.012 -0.621 -0.109 c -0.047 -0.023 -0.098 -0.043 -0.117 -0.043 c -0.055 0 -0.238 -0.098 -0.262 -0.141 c -0.012 -0.023 -0.051 -0.043 -0.082 -0.043 c -0.035 0 -0.059 -0.012 -0.059 -0.027 c 0 -0.016 -0.035 -0.039 -0.078 -0.051 c -0.043 -0.008 -0.152 -0.09 -0.246 -0.18 c -0.094 -0.09 -0.195 -0.16 -0.227 -0.16 c -0.027 0 -0.051 -0.023 -0.051 -0.047 c 0 -0.027 -0.031 -0.047 -0.074 -0.047 c -0.039 0 -0.078 -0.012 -0.082 -0.031 c -0.008 -0.016 -0.07 -0.039 -0.141 -0.047 c -0.078 -0.012 -0.125 -0.035 -0.125 -0.059 c 0 -0.027 -0.039 -0.043 -0.121 -0.043 c -0.086 0 -0.121 -0.012 -0.121 -0.043 c 0 -0.027 -0.027 -0.047 -0.074 -0.047 c -0.047 0 -0.074 -0.016 -0.074 -0.043 c 0 -0.027 -0.023 -0.047 -0.047 -0.047 c -0.023 0 -0.047 -0.02 -0.047 -0.047 c 0 -0.023 0.023 -0.043 0.047 -0.043 c 0.023 0 0.047 -0.02 0.047 -0.047 c 0 -0.023 0.012 -0.043 0.027 -0.043 c 0.016 0 0.031 -0.02 0.031 -0.047 c 0 -0.035 0.063 -0.043 0.375 -0.043 c 0.316 0 0.379 0.008 0.379 0.043 c 0 0.027 0.027 0.047 0.07 0.047 c 0.039 0 0.078 0.02 0.09 0.043 c 0.008 0.027 0.051 0.047 0.094 0.047 c 0.047 0 0.074 0.016 0.074 0.043 c 0 0.031 0.031 0.047 0.074 0.047 c 0.039 0 0.078 0.02 0.09 0.047 c 0.008 0.023 0.051 0.043 0.094 0.043 c 0.047 0 0.074 0.016 0.074 0.047 c 0 0.023 0.02 0.043 0.047 0.043 c 0.023 0 0.043 0.02 0.043 0.047 c 0 0.023 0.027 0.043 0.066 0.043 c 0.035 0 0.082 0.023 0.102 0.055 c 0.02 0.027 0.051 0.043 0.063 0.027 c 0.027 -0.027 -0.129 -0.172 -0.188 -0.172 c -0.023 0 -0.043 -0.02 -0.043 -0.043 c 0 -0.027 -0.02 -0.047 -0.039 -0.047 c -0.023 0 -0.051 -0.02 -0.063 -0.043 c -0.008 -0.027 -0.043 -0.047 -0.078 -0.047 c -0.031 0 -0.059 -0.016 -0.063 -0.039 c 0 -0.043 -0.184 -0.141 -0.266 -0.141 c -0.031 0 -0.063 -0.02 -0.074 -0.047 c -0.008 -0.023 -0.051 -0.043 -0.09 -0.043 c -0.043 0 -0.078 -0.016 -0.086 -0.035 c -0.008 -0.023 -0.094 -0.043 -0.215 -0.051 c -0.188 -0.012 -0.199 -0.016 -0.199 -0.086 c 0 -0.043 0.016 -0.07 0.043 -0.07 c 0.031 0 0.047 -0.031 0.047 -0.094 c 0 -0.051 0.02 -0.109 0.043 -0.137 c 0.027 -0.023 0.047 -0.086 0.047 -0.133 c 0 -0.051 0.016 -0.09 0.039 -0.09 c 0.043 0 0.113 -0.133 0.113 -0.215 c 0 -0.031 0.02 -0.055 0.043 -0.055 c 0.031 0 0.047 -0.031 0.047 -0.09 c 0 -0.059 0.012 -0.09 0.043 -0.09 c 0.027 0 0.047 -0.02 0.047 -0.047 c 0 -0.023 0.02 -0.043 0.043 -0.043 c 0.027 0 0.047 -0.02 0.047 -0.047 c 0 -0.023 0.02 -0.043 0.043 -0.043 c 0.027 0 0.047 -0.02 0.047 -0.047 c 0 -0.023 0.012 -0.043 0.031 -0.043 c 0.016 0 0.027 -0.023 0.027 -0.047 c 0 -0.023 0.023 -0.047 0.047 -0.047 c 0.023 0 0.043 -0.02 0.043 -0.043 c 0 -0.023 0.023 -0.047 0.047 -0.047 c 0.023 0 0.047 -0.02 0.047 -0.043 c 0 -0.027 0.023 -0.047 0.059 -0.047 c 0.035 0 0.07 -0.02 0.078 -0.043 c 0.012 -0.027 0.039 -0.047 0.059 -0.047 c 0.023 0 0.043 -0.02 0.043 -0.043 c 0 -0.027 0.02 -0.047 0.047 -0.047 c 0.023 0 0.043 -0.02 0.043 -0.043 c 0 -0.031 0.031 -0.047 0.078 -0.047 c 0.047 0 0.074 -0.016 0.074 -0.047 c 0 -0.027 0.031 -0.043 0.09 -0.043 c 0.059 0 0.09 -0.016 0.09 -0.047 c 0 -0.027 0.027 -0.043 0.074 -0.043 c 0.047 0 0.078 -0.02 0.078 -0.047 c 0 -0.031 0.035 -0.043 0.133 -0.043 c 0.102 0 0.137 -0.012 0.137 -0.047 c 0 -0.031 0.035 -0.043 0.121 -0.043 c 0.086 0 0.121 -0.016 0.121 -0.047 c 0 -0.039 0.055 -0.047 0.328 -0.047 c 0.277 0 0.332 -0.008 0.332 -0.043 c 0 -0.023 0.016 -0.047 0.031 -0.047 c 0.016 0 0.031 0.023 0.031 0.047 c 0 0.035 0.051 0.043 0.301 0.043 c 0.246 0 0.301 0.012 0.301 0.047 c 0 0.031 0.031 0.047 0.117 0.047 c 0.09 0 0.121 0.012 0.121 0.043 c 0 0.027 0.027 0.047 0.074 0.047 c 0.039 0 0.078 0.02 0.09 0.043 c 0.008 0.027 0.051 0.047 0.094 0.047 c 0.047 0 0.074 0.016 0.074 0.043 c 0 0.031 0.031 0.047 0.09 0.047 c 0.063 0 0.09 0.016 0.09 0.043 c 0 0.027 0.016 0.047 0.031 0.047 c 0.016 0 0.031 0.02 0.031 0.047 c 0 0.027 0.027 0.043 0.09 0.043 c 0.059 0 0.09 0.016 0.09 0.047 c 0 0.023 0.02 0.043 0.043 0.043 c 0.027 0 0.047 0.02 0.047 0.047 c 0 0.023 0.012 0.043 0.031 0.043 c 0.016 0 0.027 0.02 0.027 0.047 c 0 0.023 0.023 0.043 0.047 0.043 c 0.023 0 0.047 0.023 0.047 0.047 c 0 0.023 0.02 0.043 0.043 0.043 c 0.023 0 0.047 0.023 0.047 0.047 c 0 0.023 0.02 0.047 0.043 0.047 c 0.035 0 0.047 0.031 0.047 0.117 c 0 0.09 -0.012 0.121 -0.047 0.121 c -0.027 0 -0.043 0.031 -0.043 0.078 c 0 0.043 -0.023 0.098 -0.047 0.121 c -0.023 0.027 -0.043 0.07 -0.043 0.102 c 0 0.031 -0.023 0.063 -0.047 0.07 c -0.051 0.02 -0.063 0.156 -0.016 0.188 c 0.031 0.02 0.152 -0.211 0.152 -0.293 c 0 -0.031 0.02 -0.055 0.043 -0.055 c 0.031 0 0.047 -0.031 0.047 -0.09 c 0 -0.059 0.016 -0.09 0.043 -0.09 c 0.027 0 0.047 -0.02 0.047 -0.047 c 0 -0.023 0.02 -0.043 0.043 -0.043 c 0.027 0 0.047 -0.02 0.047 -0.047 c 0 -0.031 0.035 -0.043 0.152 -0.043 c 0.113 0 0.148 0.012 0.148 0.043 c 0 0.027 0.02 0.047 0.047 0.047 c 0.023 0 0.043 0.027 0.043 0.066 c 0 0.051 -0.031 0.086 -0.121 0.125 c -0.098 0.047 -0.117 0.074 -0.117 0.145 c 0 0.055 -0.016 0.086 -0.047 0.086 c -0.027 0 -0.047 0.027 -0.047 0.07 c 0 0.039 -0.02 0.109 -0.043 0.156 c -0.023 0.051 -0.047 0.117 -0.047 0.152 c 0 0.039 -0.012 0.074 -0.027 0.086 c -0.016 0.008 -0.035 0.07 -0.047 0.137 c -0.012 0.066 -0.031 0.121 -0.047 0.121 c -0.016 0 -0.027 0.059 -0.027 0.137 c 0 0.164 0.07 0.172 0.082 0.008 c 0.004 -0.055 0.02 -0.129 0.035 -0.16 c 0.07 -0.16 0.121 -0.344 0.121 -0.418 c 0 -0.051 0.02 -0.078 0.047 -0.078 c 0.027 0 0.047 -0.031 0.047 -0.078 c 0 -0.043 0.02 -0.098 0.043 -0.125 c 0.023 -0.023 0.047 -0.07 0.047 -0.102 c 0 -0.051 0.02 -0.059 0.191 -0.059 c 0.191 0 0.379 -0.066 0.379 -0.137 c 0 -0.016 0.039 -0.047 0.09 -0.066 c 0.063 -0.02 0.09 -0.055 0.09 -0.094 c 0 -0.035 0.02 -0.063 0.039 -0.063 c 0.047 0 0.113 -0.168 0.113 -0.281 c 0 -0.051 0.016 -0.082 0.043 -0.082 c 0.035 0 0.047 -0.035 0.047 -0.133 c 0 -0.09 0.016 -0.137 0.047 -0.148 c 0.027 -0.012 0.043 -0.059 0.043 -0.137 c 0 -0.09 0.012 -0.121 0.047 -0.121 c 0.023 0 0.043 -0.023 0.043 -0.047 c 0 -0.023 0.016 -0.047 0.031 -0.047 c 0.016 0 0.031 -0.02 0.031 -0.043 c 0 -0.023 0.02 -0.047 0.043 -0.047 c 0.023 0 0.047 -0.02 0.047 -0.043 c 0 -0.027 0.02 -0.047 0.043 -0.047 c 0.027 0 0.047 -0.012 0.047 -0.031 c 0 -0.016 0.012 -0.027 0.031 -0.027 c 0.016 0 0.027 0.031 0.027 0.074 c 0 0.047 0.02 0.074 0.047 0.074 c 0.027 0 0.043 -0.027 0.043 -0.086 c 0 -0.051 0.02 -0.094 0.047 -0.105 c 0.023 -0.008 0.043 -0.043 0.043 -0.078 c 0 -0.035 0.02 -0.059 0.047 -0.059 c 0.023 0 0.047 -0.023 0.047 -0.047 c 0 -0.035 0.035 -0.047 0.164 -0.047 c 0.094 0 0.164 0.016 0.164 0.035 c 0 0.016 0.051 0.078 0.109 0.141 l 0.109 0.113 l -0.023 -0.145 l -0.02 -0.145 h 0.105 c 0.066 0 0.109 0.02 0.121 0.047 c 0.012 0.023 0.051 0.047 0.094 0.047 c 0.066 0 0.078 0.012 0.078 0.09 c 0 0.059 0.016 0.09 0.043 0.09 c 0.039 0 0.047 0.063 0.047 0.391 c 0 0.328 -0.008 0.391 -0.047 0.391 c -0.023 0 -0.043 0.016 -0.043 0.031 c 0 0.066 -0.125 0.148 -0.223 0.148 c -0.086 0 -0.105 -0.012 -0.125 -0.082 c -0.02 -0.078 -0.023 -0.082 -0.047 -0.016 c -0.035 0.098 -0.141 0.188 -0.207 0.188 c -0.035 0 -0.063 0.023 -0.063 0.047 c 0 0.027 -0.027 0.047 -0.074 0.047 c -0.047 0 -0.074 -0.02 -0.074 -0.047 c 0 -0.023 -0.016 -0.047 -0.031 -0.047 c -0.039 0 -0.152 -0.109 -0.152 -0.148 c 0 -0.016 -0.02 -0.031 -0.043 -0.031 c -0.035 0 -0.047 -0.035 -0.047 -0.137 c 0 -0.18 -0.07 -0.168 -0.082 0.012 c -0.008 0.098 0 0.125 0.035 0.125 c 0.031 0 0.047 0.027 0.047 0.07 c 0.004 0.074 0.121 0.203 0.195 0.203 c 0.023 0 0.047 0.012 0.047 0.027 c 0 0.02 0.039 0.031 0.09 0.031 c 0.051 0 0.09 -0.012 0.09 -0.031 c 0 -0.016 0.043 -0.027 0.09 -0.027 c 0.063 0 0.09 -0.016 0.09 -0.047 c 0 -0.074 0.344 -0.063 0.422 0.016 c 0.035 0.031 0.063 0.074 0.063 0.09 c 0 0.016 0.02 0.031 0.043 0.031 c 0.027 0 0.047 0.02 0.047 0.043 c 0 0.027 0.012 0.047 0.031 0.047 c 0.016 0 0.027 0.031 0.027 0.074 c 0 0.039 0.023 0.086 0.051 0.102 c 0.043 0.023 0.039 0.035 -0.031 0.113 c -0.043 0.047 -0.078 0.098 -0.078 0.109 c 0 0.012 -0.047 0.023 -0.105 0.023 c -0.055 0 -0.121 0.02 -0.148 0.043 c -0.031 0.035 -0.121 0.047 -0.375 0.047 c -0.293 0 -0.344 -0.008 -0.395 -0.063 c -0.035 -0.031 -0.063 -0.094 -0.063 -0.133 c 0 -0.047 -0.016 -0.074 -0.043 -0.074 c -0.023 0 -0.047 0.02 -0.047 0.043 c 0 0.023 -0.016 0.047 -0.035 0.047 c -0.023 0 -0.059 0.027 -0.078 0.063 c -0.031 0.051 -0.031 0.07 -0.004 0.098 c 0.027 0.023 0.039 0.023 0.051 -0.004 c 0.02 -0.051 0.066 -0.047 0.066 0.008 c 0 0.023 0.016 0.047 0.035 0.047 c 0.016 0 0.051 0.02 0.074 0.043 c 0.027 0.023 0.086 0.047 0.137 0.047 c 0.059 0 0.086 0.016 0.086 0.043 c 0 0.035 0.035 0.047 0.121 0.047 c 0.066 0 0.121 0.012 0.121 0.027 c 0 0.02 -0.016 0.031 -0.031 0.031 c -0.016 0 -0.031 0.02 -0.031 0.047 c 0 0.035 -0.039 0.043 -0.164 0.043 c -0.121 0 -0.172 0.012 -0.184 0.047 c -0.023 0.059 -0.074 0.059 -0.074 0 c 0 -0.051 -0.086 -0.059 -0.277 -0.027 c -0.117 0.02 -0.383 0.234 -0.383 0.309 c 0 0.02 -0.02 0.035 -0.047 0.035 c -0.023 0 -0.043 0.02 -0.043 0.043 c 0 0.031 -0.027 0.047 -0.078 0.047 c -0.039 0 -0.082 0.02 -0.094 0.043 c -0.008 0.027 -0.043 0.047 -0.074 0.047 c -0.031 0 -0.066 0.02 -0.074 0.043 c -0.012 0.027 -0.051 0.047 -0.09 0.047 c -0.039 0 -0.082 0.02 -0.09 0.047 c -0.012 0.031 -0.063 0.043 -0.168 0.043 c -0.102 0 -0.152 0.016 -0.164 0.047 c -0.012 0.027 -0.059 0.043 -0.145 0.043 c -0.078 0 -0.145 0.02 -0.168 0.047 c -0.02 0.023 -0.07 0.043 -0.109 0.043 c -0.063 0 -0.07 -0.012 -0.07 -0.121 c 0 -0.156 -0.07 -0.148 -0.086 0.012 c -0.004 0.063 -0.02 0.109 -0.035 0.109 c -0.016 0 -0.031 0.043 -0.031 0.09 c 0 0.051 0.016 0.094 0.031 0.094 c 0.016 0 0.031 -0.023 0.031 -0.047 c 0 -0.031 0.031 -0.043 0.121 -0.043 c 0.078 0 0.125 -0.016 0.137 -0.047 c 0.012 -0.027 0.059 -0.047 0.121 -0.047 c 0.07 0 0.102 0.016 0.102 0.047 c 0 0.023 -0.012 0.047 -0.031 0.047 c -0.016 0 -0.027 0.02 -0.027 0.043 c 0 0.023 -0.023 0.047 -0.047 0.047 c -0.023 0 -0.047 0.02 -0.047 0.043 c 0 0.035 -0.031 0.047 -0.117 0.047 c -0.09 0 -0.121 0.012 -0.121 0.043 c 0 0.055 -0.141 0.063 -0.16 0.008 c -0.02 -0.059 -0.172 0.125 -0.172 0.207 c 0 0.043 -0.016 0.07 -0.043 0.07 c -0.027 0 -0.047 0.016 -0.047 0.031 c 0 0.016 -0.047 0.078 -0.105 0.133 c -0.086 0.086 -0.137 0.109 -0.262 0.125 c -0.266 0.027 -0.309 0.043 -0.27 0.082 c 0.063 0.063 0.043 0.168 -0.039 0.191 c -0.055 0.012 -0.078 0.039 -0.078 0.086 c 0 0.086 -0.09 0.125 -0.137 0.063 c -0.02 -0.027 -0.043 -0.047 -0.059 -0.047 c -0.039 0 -0.133 0.129 -0.133 0.184 c 0 0.031 -0.023 0.059 -0.047 0.059 c -0.023 0 -0.043 0.02 -0.043 0.043 c 0 0.023 -0.016 0.047 -0.031 0.047 c -0.016 0 -0.031 -0.023 -0.031 -0.047 c 0 -0.023 -0.02 -0.043 -0.043 -0.043 c -0.027 0 -0.047 0.02 -0.047 0.043 c 0 0.023 -0.02 0.047 -0.047 0.047 c -0.082 0 -0.223 0.125 -0.223 0.199 c 0 0.039 -0.016 0.07 -0.031 0.07 c -0.016 0 -0.031 0.039 -0.031 0.09 c 0 0.063 -0.016 0.09 -0.043 0.09 c -0.027 0 -0.047 0.02 -0.047 0.047 c 0 0.059 -0.203 0.059 -0.285 0 m 0.016 -1.234 c 0.027 -0.035 0.027 -0.047 -0.012 -0.063 c -0.066 -0.027 -0.141 0.004 -0.141 0.063 c 0 0.059 0.102 0.059 0.152 0 m 1.16 0.012 c 0.023 -0.043 -0.039 -0.086 -0.129 -0.086 c -0.074 0 -0.113 0.043 -0.086 0.09 c 0.027 0.039 0.188 0.039 0.215 -0.004 m -0.355 -0.094 c -0.016 -0.043 -0.465 -0.07 -0.59 -0.039 c -0.152 0.039 -0.012 0.074 0.285 0.074 c 0.238 0 0.312 -0.008 0.305 -0.035 m -1.266 -0.453 c -0.008 -0.02 -0.031 -0.035 -0.051 -0.035 c -0.023 0 -0.047 0.016 -0.055 0.035 c -0.008 0.023 0.016 0.039 0.055 0.039 c 0.039 0 0.059 -0.016 0.051 -0.039 m -0.383 -0.086 c 0 -0.016 -0.027 -0.039 -0.059 -0.047 c -0.031 -0.008 -0.066 -0.035 -0.074 -0.059 c -0.02 -0.047 -0.078 -0.055 -0.078 -0.012 c 0 0.016 0.023 0.059 0.051 0.09 c 0.055 0.066 0.16 0.082 0.16 0.027 m 2.523 -0.031 c 0.004 -0.012 0.027 -0.023 0.051 -0.023 c 0.023 0 0.043 -0.023 0.043 -0.047 c 0 -0.023 0.02 -0.047 0.047 -0.047 c 0.023 0 0.043 -0.02 0.043 -0.043 c 0 -0.023 0.016 -0.047 0.027 -0.047 c 0.027 0 0.125 -0.281 0.125 -0.355 c 0 -0.078 -0.063 -0.023 -0.125 0.109 c -0.039 0.078 -0.078 0.148 -0.09 0.156 c -0.008 0.008 -0.043 0.07 -0.074 0.141 c -0.059 0.129 -0.125 0.16 -0.348 0.16 c -0.047 0 -0.09 0.016 -0.102 0.035 c -0.016 0.023 0.039 0.027 0.184 0.012 c 0.113 -0.016 0.211 -0.035 0.219 -0.051 m -1.742 0.004 c 0 -0.016 0.063 -0.027 0.137 -0.027 c 0.102 0 0.137 -0.012 0.137 -0.047 c 0 -0.035 0.047 -0.047 0.266 -0.047 c 0.148 0 0.277 -0.012 0.289 -0.027 c 0.031 -0.051 -0.195 -0.07 -0.387 -0.035 c -0.102 0.02 -0.23 0.043 -0.289 0.055 c -0.059 0.008 -0.121 0.031 -0.137 0.051 c -0.016 0.02 -0.063 0.051 -0.105 0.07 l -0.074 0.035 h 0.082 c 0.047 0.004 0.082 -0.008 0.082 -0.027 m 1.227 -0.066 c -0.008 -0.02 -0.074 -0.043 -0.152 -0.047 c -0.109 -0.008 -0.141 0 -0.141 0.039 c 0 0.035 0.035 0.047 0.152 0.047 c 0.109 0 0.152 -0.012 0.141 -0.039 m 0.941 -0.777 c 0 -0.117 -0.07 -0.105 -0.086 0.012 c -0.004 0.059 0.004 0.082 0.039 0.082 c 0.031 0 0.047 -0.031 0.047 -0.094 m 0.074 -0.301 c 0 -0.074 -0.016 -0.133 -0.035 -0.141 c -0.027 -0.008 -0.039 0.031 -0.039 0.141 c 0 0.113 0.012 0.152 0.039 0.145 c 0.02 -0.008 0.035 -0.066 0.035 -0.145 m 2.754 -1.742 c 0 -0.242 -0.004 -0.273 -0.055 -0.273 c -0.094 0 -0.125 0.066 -0.125 0.262 c 0 0.148 0.012 0.191 0.047 0.191 c 0.023 0 0.043 0.02 0.043 0.043 c 0 0.027 0.02 0.047 0.047 0.047 c 0.035 0 0.043 -0.051 0.043 -0.27 m 0.422 0.223 c 0 -0.023 0.016 -0.043 0.031 -0.043 c 0.02 0 0.027 -0.082 0.023 -0.219 c -0.008 -0.215 -0.012 -0.219 -0.098 -0.227 c -0.109 -0.016 -0.137 0.031 -0.137 0.242 c 0 0.129 0.012 0.18 0.043 0.191 c 0.027 0.008 0.047 0.035 0.047 0.059 c 0 0.023 0.02 0.043 0.047 0.043 c 0.023 0 0.043 -0.02 0.043 -0.047 m -0.992 -0.27 c 0 -0.133 -0.039 -0.18 -0.074 -0.086 c -0.035 0.09 -0.02 0.223 0.027 0.223 c 0.035 0 0.047 -0.035 0.047 -0.137"/><path d="m 9.488 10.211 c 0 -0.027 -0.027 -0.043 -0.074 -0.043 c -0.047 0 -0.078 -0.02 -0.078 -0.047 c 0 -0.023 -0.02 -0.043 -0.043 -0.043 c -0.035 0 -0.047 -0.043 -0.047 -0.211 c 0 -0.168 0.012 -0.211 0.047 -0.211 c 0.031 0 0.043 -0.031 0.043 -0.09 c 0 -0.09 0.004 -0.09 0.168 -0.09 c 0.125 0 0.164 -0.012 0.164 -0.047 c 0 -0.027 0.027 -0.043 0.074 -0.043 c 0.047 0 0.078 -0.02 0.078 -0.047 c 0 -0.023 0.02 -0.047 0.043 -0.047 c 0.027 0 0.047 -0.02 0.047 -0.043 c 0 -0.023 0.02 -0.047 0.043 -0.047 c 0.027 0 0.047 -0.02 0.047 -0.043 c 0 -0.027 0.012 -0.047 0.031 -0.047 c 0.016 0 0.027 -0.039 0.027 -0.09 c 0 -0.059 0.016 -0.09 0.047 -0.09 c 0.023 0 0.043 -0.02 0.043 -0.047 c 0 -0.023 0.016 -0.043 0.031 -0.043 c 0.016 0 0.031 0.02 0.031 0.043 c 0 0.027 0.02 0.047 0.043 0.047 c 0.027 0 0.047 0.02 0.047 0.047 c 0 0.023 0.02 0.043 0.047 0.043 c 0.027 0 0.043 0.031 0.043 0.09 c 0 0.063 0.016 0.09 0.047 0.09 c 0.027 0 0.043 0.031 0.043 0.078 c 0 0.047 -0.016 0.074 -0.043 0.074 c -0.027 0 -0.047 0.02 -0.047 0.043 c 0 0.027 -0.02 0.047 -0.043 0.047 c -0.027 0 -0.047 0.02 -0.047 0.047 c 0 0.023 -0.02 0.043 -0.047 0.043 c -0.023 0 -0.043 0.02 -0.043 0.047 c 0 0.023 -0.016 0.043 -0.031 0.043 c -0.016 0 -0.031 -0.02 -0.031 -0.043 c 0 -0.031 -0.027 -0.047 -0.09 -0.047 c -0.059 0 -0.09 0.016 -0.09 0.047 c 0 0.023 -0.02 0.043 -0.043 0.043 c -0.027 0 -0.047 0.02 -0.047 0.047 c 0 0.023 -0.012 0.043 -0.031 0.043 c -0.016 0 -0.027 0.043 -0.027 0.09 c 0 0.063 -0.016 0.094 -0.047 0.094 c -0.035 0 -0.043 0.039 -0.043 0.18 v 0.18 h -0.121 c -0.086 0 -0.121 -0.012 -0.121 -0.047"/><path d="m 7.367 10.664 c -0.031 -0.027 -0.082 -0.047 -0.113 -0.047 c -0.031 0 -0.078 -0.02 -0.102 -0.043 c -0.027 -0.027 -0.07 -0.047 -0.105 -0.047 c -0.031 0 -0.059 -0.02 -0.059 -0.043 c 0 -0.027 -0.02 -0.047 -0.043 -0.047 c -0.031 0 -0.047 -0.031 -0.047 -0.09 c 0 -0.051 -0.012 -0.09 -0.027 -0.09 c -0.02 0 -0.031 -0.09 -0.031 -0.211 c 0 -0.121 0.012 -0.211 0.031 -0.211 c 0.016 0 0.027 -0.039 0.027 -0.09 c 0 -0.063 0.016 -0.09 0.047 -0.09 c 0.023 0 0.043 -0.02 0.043 -0.043 c 0 -0.023 0.043 -0.051 0.094 -0.059 c 0.047 -0.012 0.09 -0.031 0.09 -0.051 c 0 -0.039 -0.141 -0.039 -0.168 0 c -0.074 0.121 -0.938 -0.16 -1.18 -0.383 c -0.023 -0.02 -0.063 -0.039 -0.082 -0.039 c -0.023 0 -0.113 -0.066 -0.203 -0.148 c -0.086 -0.086 -0.191 -0.16 -0.227 -0.172 c -0.039 -0.008 -0.066 -0.035 -0.066 -0.059 c 0 -0.023 -0.027 -0.043 -0.059 -0.043 c -0.031 0 -0.094 -0.02 -0.145 -0.043 c -0.047 -0.023 -0.113 -0.047 -0.152 -0.047 c -0.039 0 -0.066 -0.016 -0.066 -0.043 c 0 -0.035 -0.035 -0.047 -0.121 -0.047 c -0.086 0 -0.121 -0.012 -0.121 -0.043 c 0 -0.027 -0.027 -0.047 -0.059 -0.047 c -0.063 0 -0.184 -0.098 -0.184 -0.148 c 0 -0.02 0.023 -0.031 0.047 -0.031 c 0.023 0 0.047 -0.02 0.047 -0.047 c 0 -0.023 0.012 -0.043 0.027 -0.043 c 0.016 0 0.031 -0.02 0.031 -0.047 c 0 -0.035 0.063 -0.043 0.375 -0.043 c 0.316 0 0.379 0.008 0.379 0.043 c 0 0.027 0.027 0.047 0.07 0.047 c 0.039 0 0.078 0.02 0.09 0.043 c 0.008 0.027 0.051 0.047 0.09 0.047 c 0.039 0 0.082 0.02 0.09 0.043 c 0.012 0.027 0.043 0.047 0.074 0.047 c 0.035 0 0.066 0.02 0.078 0.047 c 0.008 0.023 0.051 0.043 0.094 0.043 c 0.047 0 0.074 0.016 0.074 0.047 c 0 0.023 0.02 0.043 0.047 0.043 c 0.023 0 0.043 0.02 0.043 0.047 c 0 0.023 0.027 0.043 0.066 0.043 c 0.035 0 0.082 0.023 0.102 0.055 c 0.02 0.027 0.047 0.043 0.059 0.031 c 0.023 -0.023 -0.137 -0.176 -0.188 -0.176 c -0.02 0 -0.039 -0.02 -0.039 -0.043 c 0 -0.027 -0.02 -0.047 -0.043 -0.047 c -0.02 0 -0.047 -0.02 -0.059 -0.043 c -0.008 -0.027 -0.043 -0.047 -0.078 -0.047 c -0.031 0 -0.059 -0.012 -0.059 -0.027 c 0 -0.043 -0.195 -0.152 -0.266 -0.152 c -0.031 0 -0.07 -0.02 -0.078 -0.047 c -0.008 -0.023 -0.047 -0.043 -0.086 -0.047 c -0.039 0 -0.094 -0.02 -0.125 -0.043 c -0.035 -0.027 -0.125 -0.043 -0.219 -0.043 c -0.152 0 -0.16 -0.008 -0.16 -0.078 c 0 -0.047 0.016 -0.074 0.043 -0.074 c 0.031 0 0.047 -0.031 0.047 -0.102 c 0 -0.055 0.02 -0.117 0.043 -0.141 c 0.027 -0.02 0.047 -0.066 0.047 -0.105 c 0 -0.039 0.035 -0.105 0.074 -0.152 c 0.043 -0.043 0.074 -0.113 0.074 -0.152 c 0 -0.043 0.02 -0.07 0.047 -0.07 c 0.031 0 0.047 -0.031 0.047 -0.09 c 0 -0.059 0.012 -0.09 0.043 -0.09 c 0.023 0 0.047 -0.02 0.047 -0.047 c 0 -0.023 0.02 -0.043 0.043 -0.043 c 0.027 0 0.047 -0.02 0.047 -0.047 c 0 -0.023 0.02 -0.043 0.043 -0.043 c 0.027 0 0.047 -0.023 0.047 -0.047 c 0 -0.023 0.012 -0.043 0.031 -0.043 c 0.016 0 0.027 -0.023 0.027 -0.047 c 0 -0.023 0.023 -0.047 0.047 -0.047 c 0.023 0 0.043 -0.02 0.043 -0.043 c 0 -0.023 0.023 -0.047 0.047 -0.047 c 0.023 0 0.047 -0.02 0.047 -0.043 c 0 -0.027 0.023 -0.047 0.059 -0.047 c 0.035 0 0.07 -0.02 0.078 -0.043 c 0.012 -0.027 0.039 -0.047 0.059 -0.047 c 0.023 0 0.043 -0.02 0.043 -0.043 c 0 -0.027 0.02 -0.047 0.047 -0.047 c 0.023 0 0.043 -0.02 0.043 -0.047 c 0 -0.027 0.031 -0.043 0.078 -0.043 c 0.047 0 0.074 -0.016 0.074 -0.047 c 0 -0.027 0.027 -0.043 0.09 -0.043 c 0.059 0 0.09 -0.016 0.09 -0.047 c 0 -0.027 0.027 -0.043 0.074 -0.043 c 0.047 0 0.078 -0.02 0.078 -0.047 c 0 -0.031 0.031 -0.043 0.121 -0.043 c 0.078 0 0.125 -0.016 0.137 -0.047 c 0.012 -0.031 0.059 -0.047 0.137 -0.047 c 0.082 0 0.117 -0.012 0.117 -0.043 c 0 -0.039 0.055 -0.047 0.316 -0.047 c 0.254 0 0.32 -0.008 0.332 -0.043 c 0.023 -0.059 0.07 -0.059 0.07 0 c 0 0.035 0.055 0.043 0.305 0.043 c 0.246 0 0.301 0.008 0.301 0.047 c 0 0.031 0.031 0.043 0.117 0.043 c 0.09 0 0.121 0.016 0.121 0.047 c 0 0.027 0.027 0.047 0.074 0.047 c 0.039 0 0.078 0.02 0.09 0.043 c 0.008 0.023 0.051 0.047 0.09 0.047 c 0.051 0 0.078 0.016 0.078 0.043 c 0 0.031 0.031 0.047 0.09 0.047 c 0.059 0 0.09 0.016 0.09 0.043 c 0 0.027 0.016 0.047 0.031 0.047 c 0.016 0 0.031 0.02 0.031 0.043 c 0 0.031 0.027 0.047 0.09 0.047 c 0.059 0 0.09 0.016 0.09 0.047 c 0 0.023 0.02 0.043 0.043 0.043 c 0.027 0 0.047 0.02 0.047 0.047 c 0 0.023 0.012 0.043 0.031 0.043 c 0.016 0 0.027 0.02 0.027 0.047 c 0 0.023 0.023 0.043 0.047 0.043 c 0.023 0 0.047 0.023 0.047 0.047 c 0 0.023 0.02 0.043 0.043 0.043 c 0.023 0 0.047 0.023 0.047 0.047 c 0 0.023 0.02 0.047 0.043 0.047 c 0.031 0 0.047 0.031 0.047 0.117 c 0 0.074 -0.016 0.121 -0.047 0.133 c -0.023 0.008 -0.043 0.047 -0.043 0.082 c 0 0.035 -0.023 0.082 -0.047 0.105 c -0.023 0.027 -0.043 0.07 -0.043 0.102 c 0 0.031 -0.023 0.063 -0.047 0.07 c -0.055 0.023 -0.063 0.172 -0.008 0.172 c 0.043 0 0.145 -0.199 0.145 -0.281 c 0 -0.027 0.02 -0.051 0.043 -0.051 c 0.031 0 0.047 -0.031 0.047 -0.09 c 0 -0.059 0.016 -0.09 0.043 -0.09 c 0.027 0 0.047 -0.016 0.047 -0.031 c 0 -0.016 0.027 -0.055 0.059 -0.09 c 0.078 -0.074 0.332 -0.086 0.332 -0.016 c 0 0.027 0.02 0.047 0.047 0.047 c 0.023 0 0.043 0.027 0.043 0.066 c 0 0.051 -0.035 0.082 -0.121 0.125 c -0.098 0.047 -0.121 0.074 -0.121 0.141 c 0 0.043 -0.02 0.09 -0.043 0.098 c -0.023 0.012 -0.047 0.047 -0.047 0.078 c 0 0.035 -0.02 0.105 -0.043 0.16 c -0.023 0.055 -0.066 0.184 -0.098 0.285 c -0.027 0.105 -0.063 0.188 -0.074 0.188 c -0.016 0 -0.023 0.063 -0.023 0.137 c 0 0.074 0.012 0.137 0.027 0.137 c 0.031 0 0.063 -0.074 0.063 -0.156 c 0 -0.035 0.035 -0.156 0.074 -0.273 c 0.043 -0.113 0.074 -0.238 0.074 -0.281 c 0 -0.043 0.02 -0.074 0.047 -0.074 c 0.031 0 0.043 -0.027 0.043 -0.086 c 0 -0.047 0.023 -0.102 0.047 -0.121 c 0.023 -0.023 0.047 -0.066 0.047 -0.098 c 0 -0.047 0.023 -0.055 0.18 -0.055 c 0.18 0 0.332 -0.051 0.383 -0.129 c 0.012 -0.02 0.051 -0.051 0.082 -0.07 c 0.035 -0.016 0.074 -0.063 0.09 -0.098 c 0.016 -0.035 0.039 -0.063 0.055 -0.063 c 0.039 0 0.113 -0.176 0.113 -0.27 c 0 -0.063 0.016 -0.094 0.043 -0.094 c 0.035 0 0.047 -0.035 0.047 -0.121 c 0 -0.07 0.02 -0.145 0.043 -0.168 c 0.027 -0.027 0.047 -0.094 0.047 -0.148 c 0 -0.074 0.012 -0.105 0.043 -0.105 c 0.027 0 0.047 -0.02 0.047 -0.043 c 0 -0.023 0.016 -0.047 0.031 -0.047 c 0.016 0 0.027 -0.02 0.027 -0.043 c 0 -0.027 0.023 -0.047 0.047 -0.047 c 0.023 0 0.047 -0.02 0.047 -0.043 c 0 -0.027 0.02 -0.047 0.043 -0.047 c 0.023 0 0.047 -0.012 0.047 -0.031 c 0 -0.016 0.012 -0.027 0.027 -0.027 c 0.02 0 0.031 0.031 0.031 0.074 c 0 0.047 0.016 0.074 0.047 0.074 c 0.027 0 0.043 -0.027 0.043 -0.086 c 0 -0.047 0.02 -0.102 0.047 -0.125 c 0.023 -0.02 0.043 -0.055 0.043 -0.078 c 0 -0.023 0.02 -0.043 0.047 -0.043 c 0.023 0 0.043 -0.02 0.043 -0.043 c 0 -0.035 0.039 -0.047 0.168 -0.047 c 0.094 0 0.164 0.016 0.164 0.031 c 0 0.02 0.051 0.082 0.109 0.145 l 0.109 0.113 l -0.023 -0.145 l -0.02 -0.145 h 0.105 c 0.055 0 0.121 0.023 0.141 0.047 c 0.02 0.023 0.063 0.043 0.094 0.043 c 0.039 0 0.059 0.023 0.059 0.078 c 0 0.043 0.02 0.082 0.043 0.094 c 0.039 0.016 0.047 0.086 0.047 0.406 c 0 0.324 -0.008 0.387 -0.047 0.387 c -0.023 0 -0.043 0.012 -0.043 0.031 c 0 0.066 -0.125 0.148 -0.227 0.148 c -0.082 0 -0.105 -0.012 -0.133 -0.082 c -0.016 -0.047 -0.031 -0.063 -0.031 -0.035 c -0.004 0.066 -0.137 0.207 -0.199 0.207 c -0.023 0 -0.055 0.023 -0.063 0.047 c -0.023 0.059 -0.16 0.059 -0.16 0 c 0 -0.023 -0.016 -0.047 -0.031 -0.047 c -0.039 0 -0.152 -0.109 -0.152 -0.148 c 0 -0.016 -0.02 -0.031 -0.043 -0.031 c -0.035 0 -0.047 -0.031 -0.047 -0.117 c 0 -0.137 -0.043 -0.188 -0.07 -0.086 c -0.031 0.121 -0.023 0.203 0.027 0.203 c 0.023 0 0.043 0.027 0.043 0.066 c 0 0.078 0.121 0.203 0.191 0.203 c 0.027 0 0.051 0.016 0.051 0.031 c 0 0.016 0.039 0.031 0.09 0.031 c 0.051 0 0.09 -0.016 0.09 -0.031 c 0 -0.016 0.035 -0.031 0.078 -0.031 c 0.039 0 0.082 -0.02 0.09 -0.043 c 0.031 -0.074 0.355 -0.063 0.434 0.016 c 0.035 0.031 0.063 0.074 0.063 0.09 c 0 0.016 0.02 0.031 0.043 0.031 c 0.023 0 0.047 0.02 0.047 0.043 c 0 0.027 0.012 0.047 0.027 0.047 c 0.02 0 0.031 0.023 0.031 0.059 c 0 0.031 0.02 0.078 0.047 0.102 c 0.043 0.043 0.039 0.055 -0.031 0.133 c -0.039 0.043 -0.074 0.09 -0.074 0.102 c 0 0.008 -0.059 0.027 -0.129 0.035 c -0.07 0.008 -0.133 0.031 -0.137 0.051 c -0.008 0.02 -0.141 0.031 -0.355 0.031 c -0.305 0 -0.352 -0.008 -0.402 -0.063 c -0.035 -0.031 -0.063 -0.086 -0.063 -0.117 c 0 -0.074 -0.055 -0.109 -0.078 -0.051 c -0.008 0.027 -0.035 0.051 -0.059 0.051 c -0.047 0 -0.094 0.141 -0.059 0.172 c 0.016 0.012 0.031 0.004 0.039 -0.016 c 0.016 -0.051 0.066 -0.047 0.066 0.008 c 0 0.023 0.016 0.043 0.031 0.043 c 0.02 0 0.055 0.023 0.078 0.047 c 0.027 0.023 0.086 0.047 0.133 0.047 c 0.059 0 0.09 0.012 0.09 0.043 c 0 0.031 0.031 0.047 0.121 0.047 c 0.066 0 0.121 0.012 0.121 0.027 c 0 0.02 -0.016 0.031 -0.031 0.031 c -0.016 0 -0.031 0.02 -0.031 0.047 c 0 0.031 -0.035 0.043 -0.148 0.043 c -0.094 0 -0.164 0.02 -0.195 0.047 c -0.043 0.043 -0.051 0.043 -0.094 0 c -0.047 -0.047 -0.102 -0.047 -0.332 0 c -0.07 0.016 -0.313 0.23 -0.313 0.281 c 0 0.02 -0.02 0.035 -0.047 0.035 c -0.023 0 -0.043 0.02 -0.043 0.043 c 0 0.027 -0.031 0.047 -0.078 0.047 c -0.043 0 -0.082 0.02 -0.094 0.043 c -0.008 0.027 -0.043 0.047 -0.074 0.047 c -0.031 0 -0.066 0.02 -0.074 0.043 c -0.012 0.027 -0.051 0.047 -0.09 0.047 c -0.043 0 -0.082 0.02 -0.094 0.043 c -0.012 0.035 -0.059 0.047 -0.164 0.047 c -0.105 0 -0.152 0.016 -0.164 0.047 c -0.012 0.027 -0.059 0.043 -0.148 0.043 c -0.074 0 -0.141 0.02 -0.164 0.047 c -0.02 0.023 -0.07 0.043 -0.109 0.043 c -0.063 0 -0.07 -0.012 -0.07 -0.121 c 0 -0.156 -0.074 -0.148 -0.086 0.012 c -0.004 0.063 -0.023 0.109 -0.039 0.109 c -0.016 0 -0.027 0.043 -0.027 0.09 c 0 0.051 0.016 0.094 0.031 0.094 c 0.016 0 0.031 -0.023 0.031 -0.047 c 0 -0.031 0.031 -0.047 0.102 -0.047 c 0.059 0 0.125 -0.02 0.148 -0.043 c 0.059 -0.063 0.23 -0.063 0.23 0 c 0 0.023 -0.016 0.043 -0.031 0.043 c -0.016 0 -0.031 0.023 -0.031 0.047 c 0 0.023 -0.02 0.047 -0.043 0.047 c -0.023 0 -0.047 0.02 -0.047 0.043 c 0 0.031 -0.031 0.047 -0.121 0.047 c -0.09 0 -0.117 0.012 -0.117 0.047 c 0 0.039 -0.023 0.047 -0.117 0.031 c -0.102 -0.016 -0.125 -0.008 -0.168 0.055 c -0.027 0.039 -0.047 0.102 -0.047 0.137 c 0 0.031 -0.02 0.059 -0.047 0.059 c -0.023 0 -0.043 0.016 -0.043 0.031 c 0 0.016 -0.047 0.074 -0.105 0.133 c -0.086 0.086 -0.137 0.109 -0.313 0.137 c -0.117 0.016 -0.223 0.031 -0.234 0.031 c -0.012 0 -0.008 0.016 0.012 0.035 c 0.063 0.063 0.043 0.164 -0.039 0.199 c -0.039 0.02 -0.074 0.063 -0.074 0.094 c 0 0.078 -0.086 0.105 -0.152 0.047 c -0.055 -0.047 -0.059 -0.047 -0.117 0.02 c -0.031 0.039 -0.059 0.09 -0.059 0.109 c -0.004 0.02 -0.031 0.066 -0.066 0.102 c -0.059 0.059 -0.066 0.059 -0.094 0.016 c -0.031 -0.063 -0.082 -0.063 -0.082 -0.004 c 0 0.023 -0.023 0.047 -0.047 0.047 c -0.082 0 -0.227 0.125 -0.227 0.199 c 0 0.039 -0.012 0.07 -0.027 0.07 c -0.02 0 -0.031 0.039 -0.031 0.09 c 0 0.063 -0.016 0.09 -0.047 0.09 c -0.023 0 -0.043 0.02 -0.043 0.047 c 0 0.059 -0.203 0.059 -0.285 0 m 0.016 -1.234 c 0.027 -0.035 0.027 -0.047 -0.012 -0.063 c -0.066 -0.027 -0.141 0.004 -0.141 0.063 c 0 0.059 0.102 0.059 0.152 0 m 1.141 0.016 c 0.043 -0.027 0.043 -0.035 0 -0.059 c -0.086 -0.059 -0.238 -0.016 -0.195 0.055 c 0.023 0.043 0.137 0.043 0.195 0.004 m -0.348 -0.086 c 0.027 -0.043 -0.094 -0.063 -0.332 -0.066 c -0.242 0 -0.344 0.023 -0.277 0.066 c 0.055 0.031 0.59 0.031 0.609 0 m -1.277 -0.473 c 0 -0.023 -0.012 -0.043 -0.027 -0.043 c -0.02 0 -0.031 0.02 -0.031 0.043 c 0 0.027 0.012 0.047 0.031 0.047 c 0.016 0 0.027 -0.02 0.027 -0.047 m -0.359 -0.074 c 0 -0.02 -0.023 -0.039 -0.055 -0.051 c -0.027 -0.012 -0.063 -0.039 -0.074 -0.059 c -0.016 -0.023 -0.039 -0.043 -0.055 -0.043 c -0.051 0 -0.031 0.066 0.039 0.125 c 0.07 0.063 0.145 0.074 0.145 0.027 m 2.535 -0.039 c 0.047 -0.02 0.082 -0.055 0.082 -0.074 c 0 -0.02 0.02 -0.039 0.039 -0.039 c 0.043 0 0.164 -0.242 0.191 -0.387 c 0.027 -0.137 -0.023 -0.113 -0.109 0.051 c -0.043 0.078 -0.082 0.148 -0.094 0.156 c -0.008 0.008 -0.043 0.074 -0.074 0.141 c -0.055 0.125 -0.063 0.129 -0.23 0.148 c -0.098 0.012 -0.184 0.035 -0.191 0.051 c -0.023 0.035 0.273 0 0.387 -0.047 m -1.77 0.008 c 0.012 -0.016 0.082 -0.027 0.152 -0.027 c 0.102 0 0.137 -0.012 0.137 -0.047 c 0 -0.035 0.047 -0.047 0.27 -0.047 c 0.258 0 0.355 -0.035 0.203 -0.074 c -0.117 -0.027 -0.723 0.082 -0.738 0.133 c -0.008 0.02 -0.031 0.035 -0.051 0.035 c -0.023 0 -0.051 0.012 -0.063 0.027 c -0.008 0.02 0.004 0.031 0.027 0.031 c 0.023 0 0.055 -0.012 0.063 -0.031 m 1.234 -0.055 c 0.023 -0.039 -0.055 -0.066 -0.184 -0.066 c -0.07 0 -0.102 0.016 -0.102 0.047 c 0 0.035 0.035 0.047 0.133 0.047 c 0.074 0 0.141 -0.016 0.152 -0.027 m 0.949 -0.773 c 0 -0.094 -0.07 -0.086 -0.086 0.012 c -0.004 0.043 0.008 0.066 0.039 0.066 c 0.031 0 0.047 -0.027 0.047 -0.078 m 0.074 -0.227 c 0.027 -0.074 -0.012 -0.246 -0.047 -0.223 c -0.035 0.023 -0.035 0.285 0 0.285 c 0.016 0 0.039 -0.027 0.047 -0.063 m 2.75 -1.844 c 0.008 -0.242 0.004 -0.262 -0.055 -0.262 c -0.082 0 -0.121 0.09 -0.121 0.27 c 0 0.109 0.012 0.16 0.047 0.172 c 0.023 0.008 0.043 0.039 0.043 0.063 c 0 0.023 0.02 0.039 0.039 0.031 c 0.023 -0.008 0.039 -0.098 0.047 -0.273 m 0.449 0.199 c 0.039 -0.086 0.051 -0.332 0.02 -0.414 c -0.023 -0.055 -0.137 -0.063 -0.188 -0.012 c -0.055 0.055 -0.047 0.387 0.012 0.406 c 0.023 0.008 0.043 0.035 0.043 0.059 c 0 0.07 0.074 0.047 0.113 -0.039 m -1.016 -0.219 c 0 -0.133 -0.043 -0.184 -0.07 -0.082 c -0.035 0.117 -0.023 0.203 0.023 0.203 c 0.035 0 0.047 -0.035 0.047 -0.121"/><path d="m 7.832 10.617 c 0 -0.141 0.012 -0.18 0.047 -0.18 c 0.027 0 0.043 -0.031 0.043 -0.09 c 0 -0.074 0.012 -0.09 0.074 -0.09 c 0.047 0 0.078 -0.016 0.078 -0.047 c 0 -0.023 0.012 -0.043 0.027 -0.043 c 0.02 0 0.031 0.02 0.031 0.043 c 0 0.027 0.02 0.047 0.047 0.047 c 0.023 0 0.043 0.02 0.043 0.043 c 0 0.027 0.02 0.047 0.047 0.047 c 0.031 0 0.043 0.031 0.043 0.09 c 0 0.063 0.016 0.09 0.047 0.09 c 0.031 0 0.043 0.035 0.043 0.137 v 0.137 h -0.57"/><path d="m 8.824 10.574 c 0 -0.027 -0.02 -0.047 -0.043 -0.047 c -0.035 0 -0.047 -0.035 -0.047 -0.137 c 0 -0.098 -0.012 -0.133 -0.043 -0.133 c -0.035 0 -0.047 -0.039 -0.047 -0.168 v -0.164 h 0.121 c 0.121 0 0.121 0 0.121 0.121 c 0 0.086 0.012 0.121 0.043 0.121 c 0.035 0 0.047 0.039 0.047 0.18 c 0 0.141 -0.012 0.18 -0.047 0.18 c -0.023 0 -0.043 0.02 -0.043 0.047 c 0 0.023 -0.016 0.043 -0.031 0.043 c -0.016 0 -0.031 -0.02 -0.031 -0.043"/><path d="m 9.82 10.09 c 0 -0.129 0.008 -0.168 0.043 -0.168 c 0.031 0 0.047 -0.031 0.047 -0.09 c 0 -0.059 0.016 -0.09 0.043 -0.09 c 0.027 0 0.047 -0.02 0.047 -0.047 c 0 -0.023 0.012 -0.043 0.031 -0.043 c 0.016 0 0.027 0.02 0.027 0.043 c 0 0.027 0.023 0.047 0.047 0.047 c 0.031 0 0.043 0.031 0.043 0.09 c 0 0.063 0.016 0.09 0.051 0.09 c 0.031 0 0.043 0.016 0.031 0.047 c -0.012 0.027 -0.02 0.102 -0.02 0.168 v 0.117 h -0.391"/><path d="m 10.332 10.08 c 0 -0.047 -0.023 -0.109 -0.047 -0.133 c -0.063 -0.063 -0.063 -0.289 0 -0.289 c 0.023 0 0.047 -0.02 0.047 -0.047 c 0 -0.023 0.012 -0.043 0.027 -0.043 c 0.02 0 0.031 0.02 0.031 0.043 c 0 0.027 0.02 0.047 0.047 0.047 c 0.027 0 0.043 0.027 0.043 0.09 c 0 0.059 0.016 0.09 0.047 0.09 c 0.031 0 0.043 -0.031 0.043 -0.105 c 0 -0.074 -0.012 -0.105 -0.043 -0.105 c -0.035 0 -0.047 -0.035 -0.047 -0.121 c 0 -0.066 0.016 -0.121 0.031 -0.121 c 0.016 0 0.031 0.023 0.031 0.047 c 0 0.023 0.02 0.047 0.043 0.047 c 0.031 0 0.047 0.027 0.047 0.09 c 0 0.059 0.016 0.09 0.043 0.09 c 0.035 0 0.047 0.039 0.047 0.164 c 0 0.09 -0.016 0.168 -0.031 0.168 c -0.016 0 -0.031 -0.023 -0.031 -0.047 c 0 -0.023 -0.023 -0.047 -0.059 -0.047 c -0.051 0 -0.059 0.023 -0.059 0.137 c 0 0.137 -0.004 0.137 -0.105 0.137 c -0.098 0 -0.105 -0.008 -0.105 -0.09"/><path d="m 5.426 10.09 c 0 -0.254 0 -0.258 0.074 -0.258 c 0.063 0 0.074 0.016 0.074 0.09 c 0 0.063 0.016 0.09 0.047 0.09 c 0.035 0 0.043 0.039 0.043 0.168 v 0.164 h -0.238"/><path d="m 5.129 10.469 c 0 -0.027 -0.023 -0.043 -0.047 -0.043 c -0.031 0 -0.047 -0.117 -0.047 -0.289 c 0 -0.172 0.016 -0.285 0.047 -0.285 c 0.023 0 0.047 -0.02 0.047 -0.043 c 0 -0.023 0.031 -0.043 0.07 -0.043 c 0.039 0 0.07 0.02 0.07 0.043 c 0 0.023 0.023 0.043 0.047 0.043 c 0.027 0 0.047 0.113 0.047 0.285 c 0 0.172 -0.02 0.289 -0.047 0.289 c -0.023 0 -0.047 0.016 -0.047 0.043 c 0 0.023 -0.031 0.043 -0.07 0.043 c -0.039 0 -0.07 -0.02 -0.07 -0.043"/><path d="m 4.762 10.484 c 0 -0.027 -0.027 -0.047 -0.059 -0.047 c -0.035 0 -0.063 -0.02 -0.063 -0.043 c 0 -0.027 -0.012 -0.047 -0.027 -0.047 c -0.02 0 -0.031 -0.055 -0.031 -0.121 c 0 -0.086 0.012 -0.121 0.047 -0.121 c 0.027 0 0.043 -0.027 0.043 -0.09 c 0 -0.059 0.016 -0.09 0.047 -0.09 c 0.023 0 0.043 -0.02 0.043 -0.043 c 0 -0.027 0.016 -0.047 0.031 -0.047 c 0.016 0 0.031 -0.02 0.031 -0.047 c 0 -0.027 0.027 -0.043 0.074 -0.043 h 0.074 v 0.781 h -0.105 c -0.074 0 -0.105 -0.012 -0.105 -0.043"/><path d="m 4.07 8.137 c 0 -0.027 -0.012 -0.047 -0.031 -0.047 c -0.016 0 -0.027 -0.02 -0.027 -0.043 c 0 -0.027 -0.023 -0.047 -0.047 -0.047 c -0.023 0 -0.043 -0.02 -0.043 -0.043 c 0 -0.031 -0.031 -0.047 -0.094 -0.047 c -0.059 0 -0.09 -0.016 -0.09 -0.047 c 0 -0.023 -0.012 -0.043 -0.027 -0.043 c -0.02 0 -0.031 -0.02 -0.031 -0.047 c 0 -0.023 -0.02 -0.043 -0.047 -0.043 c -0.023 0 -0.043 -0.02 -0.043 -0.047 c 0 -0.031 -0.031 -0.043 -0.09 -0.043 c -0.063 0 -0.09 -0.016 -0.09 -0.047 c 0 -0.023 -0.023 -0.043 -0.047 -0.043 c -0.023 0 -0.047 -0.023 -0.047 -0.047 c 0 -0.023 -0.012 -0.047 -0.027 -0.047 c -0.02 0 -0.031 -0.051 -0.031 -0.117 c 0 -0.066 0.012 -0.121 0.031 -0.121 c 0.016 0 0.027 0.02 0.027 0.043 c 0 0.031 0.031 0.047 0.078 0.047 c 0.047 0 0.074 0.016 0.074 0.043 c 0 0.035 0.039 0.047 0.18 0.047 c 0.141 0 0.18 0.012 0.18 0.047 c 0 0.027 0.031 0.043 0.078 0.043 c 0.047 0 0.074 0.016 0.074 0.047 c 0 0.031 0.035 0.043 0.121 0.043 c 0.086 0 0.121 0.012 0.121 0.047 c 0 0.031 0.035 0.043 0.133 0.043 c 0.102 0 0.137 0.012 0.137 0.047 c 0 0.027 0.027 0.043 0.074 0.043 c 0.063 0 0.074 0.016 0.074 0.078 c 0 0.066 -0.012 0.074 -0.117 0.074 c -0.09 0 -0.121 0.012 -0.121 0.047 c 0 0.027 -0.031 0.043 -0.09 0.043 c -0.082 0 -0.09 0.012 -0.09 0.09 c 0 0.078 -0.012 0.09 -0.078 0.09 c -0.047 0 -0.074 -0.016 -0.074 -0.043"/><path d="m 8.496 10.559 c 0 -0.063 -0.016 -0.09 -0.047 -0.09 c -0.031 0 -0.043 -0.031 -0.043 -0.09 c 0 -0.063 -0.016 -0.09 -0.047 -0.09 c -0.031 0 -0.043 -0.035 -0.043 -0.121 c 0 -0.09 0.012 -0.121 0.043 -0.121 c 0.023 0 0.047 -0.02 0.047 -0.047 c 0 -0.027 0.027 -0.043 0.074 -0.043 c 0.066 0 0.074 0.012 0.074 0.121 c 0 0.086 0.012 0.117 0.047 0.117 c 0.035 0 0.043 -0.035 0.043 -0.164 v -0.164 h 0.121 c 0.121 0 0.121 0 0.121 0.117 c 0 0.09 0.012 0.121 0.043 0.121 c 0.074 0 0.066 0.336 -0.008 0.402 c -0.102 0.09 -0.16 0.035 -0.191 -0.172 c -0.02 -0.109 -0.086 -0.09 -0.086 0.023 c 0 0.078 0.016 0.109 0.047 0.109 c 0.027 0 0.043 0.027 0.043 0.09 c 0 0.086 -0.004 0.09 -0.117 0.09 c -0.117 0 -0.121 -0.004 -0.121 -0.09"/></g></svg>