<svg xmlns="http://www.w3.org/2000/svg" viewBox="0 0 16 16"><path d="m 0.473 8.461 c 9.414 21.516 26.328 -10.05 5.359 -8.258 c -3.156 0.418 -6.473 3.734 -5.359 8.258" fill="#8b008b"/><g fill="#fff" fill-rule="evenodd"><path d="m 7.531 8.934 c 0 -0.039 -0.012 -0.039 -0.363 -0.039 c -0.352 0 -0.367 0 -0.367 -0.039 c 0 -0.039 -0.012 -0.039 -0.293 -0.039 c -0.281 0 -0.297 0 -0.297 -0.039 c 0 -0.035 -0.012 -0.039 -0.23 -0.039 c -0.223 0 -0.234 0 -0.234 -0.039 c 0 -0.035 -0.016 -0.039 -0.121 -0.039 c -0.109 0 -0.121 -0.004 -0.121 -0.039 c 0 -0.035 -0.016 -0.039 -0.125 -0.039 c -0.105 0 -0.121 -0.004 -0.121 -0.039 c 0 -0.035 -0.012 -0.039 -0.133 -0.039 c -0.117 0 -0.129 -0.004 -0.129 -0.039 c 0 -0.031 -0.016 -0.035 -0.082 -0.035 c -0.07 0 -0.082 -0.008 -0.082 -0.039 c 0 -0.035 -0.016 -0.039 -0.082 -0.039 c -0.066 0 -0.082 -0.008 -0.082 -0.039 c 0 -0.027 -0.012 -0.039 -0.039 -0.039 c -0.027 0 -0.039 -0.016 -0.039 -0.039 c 0 -0.035 -0.016 -0.039 -0.082 -0.039 c -0.07 0 -0.082 -0.008 -0.082 -0.039 c 0 -0.027 -0.016 -0.039 -0.039 -0.039 c -0.027 0 -0.043 -0.012 -0.043 -0.039 c 0 -0.027 -0.012 -0.039 -0.039 -0.039 c -0.035 0 -0.043 -0.012 -0.043 -0.078 c 0 -0.066 -0.004 -0.078 -0.039 -0.078 c -0.035 0 -0.039 -0.012 -0.039 -0.086 c 0 -0.074 -0.008 -0.09 -0.043 -0.09 c -0.039 0 -0.039 -0.012 -0.039 -0.262 c 0 -0.25 0 -0.262 0.039 -0.262 c 0.039 0 0.043 -0.012 0.043 -0.195 c 0 -0.18 0 -0.191 0.039 -0.191 c 0.031 0 0.039 -0.016 0.039 -0.051 c 0 -0.035 0.012 -0.047 0.043 -0.047 c 0.035 0 0.039 -0.016 0.039 -0.109 c 0 -0.094 0.004 -0.105 0.043 -0.105 c 0.027 0 0.039 -0.012 0.039 -0.047 c 0 -0.039 0.012 -0.051 0.039 -0.051 c 0.035 0 0.043 -0.012 0.043 -0.078 c 0 -0.063 0.004 -0.078 0.039 -0.078 c 0.035 0 0.043 -0.012 0.043 -0.078 c 0 -0.063 0.004 -0.078 0.039 -0.078 c 0.035 0 0.039 -0.012 0.039 -0.074 c 0 -0.066 0.008 -0.078 0.043 -0.078 c 0.027 0 0.039 -0.016 0.039 -0.039 c 0 -0.027 0.016 -0.039 0.043 -0.039 c 0.023 0 0.039 -0.016 0.039 -0.039 c 0 -0.027 0.012 -0.039 0.039 -0.039 c 0.035 0 0.043 -0.012 0.043 -0.078 c 0 -0.066 0.004 -0.078 0.039 -0.078 c 0.035 0 0.043 -0.012 0.043 -0.078 c 0 -0.063 0.004 -0.078 0.039 -0.078 c 0.027 0 0.039 -0.012 0.039 -0.039 c 0 -0.023 0.016 -0.039 0.043 -0.039 c 0.027 0 0.039 -0.012 0.039 -0.039 c 0 -0.027 0.016 -0.039 0.051 -0.039 c 0.039 0 0.051 -0.008 0.051 -0.039 c 0 -0.02 0.016 -0.035 0.031 -0.035 c 0.016 0 0.031 -0.02 0.031 -0.039 c 0 -0.027 0.012 -0.039 0.039 -0.039 c 0.027 0 0.039 -0.02 0.051 -0.078 c 0.012 -0.059 0.023 -0.078 0.055 -0.078 c 0.023 0 0.039 -0.016 0.039 -0.039 c 0 -0.027 0.012 -0.039 0.039 -0.039 c 0.027 0 0.039 -0.012 0.039 -0.039 c 0 -0.027 0.016 -0.039 0.043 -0.039 c 0.023 0 0.039 -0.012 0.039 -0.035 c 0 -0.023 0.02 -0.043 0.043 -0.047 c 0.02 -0.008 0.039 -0.023 0.039 -0.039 c 0 -0.016 0.02 -0.035 0.039 -0.039 c 0.023 -0.008 0.043 -0.023 0.043 -0.039 c 0 -0.016 0.016 -0.035 0.039 -0.039 c 0.023 -0.008 0.043 -0.023 0.043 -0.039 c 0 -0.016 0.016 -0.035 0.039 -0.039 c 0.023 -0.004 0.039 -0.023 0.039 -0.039 c 0 -0.016 0.02 -0.035 0.043 -0.039 c 0.023 -0.004 0.039 -0.027 0.039 -0.051 c 0 -0.027 0.012 -0.039 0.043 -0.039 c 0.023 0 0.039 -0.016 0.039 -0.039 c 0 -0.023 0.012 -0.039 0.031 -0.039 c 0.016 0 0.027 -0.016 0.027 -0.031 c 0 -0.02 0.02 -0.035 0.043 -0.043 c 0.023 -0.004 0.039 -0.023 0.039 -0.039 c 0 -0.016 0.02 -0.031 0.043 -0.039 c 0.02 -0.004 0.039 -0.023 0.039 -0.039 c 0 -0.016 0.02 -0.031 0.039 -0.039 c 0.023 -0.004 0.043 -0.02 0.043 -0.039 c 0 -0.016 0.016 -0.031 0.039 -0.035 c 0.02 -0.008 0.043 -0.027 0.047 -0.047 c 0.008 -0.023 0.027 -0.039 0.043 -0.039 c 0.02 0 0.035 -0.023 0.043 -0.066 c 0.012 -0.059 0.023 -0.066 0.094 -0.078 c 0.047 -0.008 0.078 -0.023 0.078 -0.039 c 0 -0.016 0.02 -0.031 0.043 -0.031 c 0.027 0 0.039 -0.012 0.039 -0.035 c 0 -0.027 0.016 -0.039 0.039 -0.039 c 0.031 0 0.043 -0.016 0.043 -0.051 c 0 -0.043 0.008 -0.047 0.082 -0.047 c 0.086 -0.004 -0.035 0.063 -0.035 0.012 c 0 -0.063 0.203 -0.246 0.238 -0.246 c 0.047 0.102 -0.004 0 0.012 0.023 c 0.059 0.074 0.086 0 0.27 0.172 c 0 0.023 -0.012 0.039 -0.039 0.039 c -0.031 0 -0.039 0.012 -0.039 0.047 c 0 0.035 -0.012 0.051 -0.043 0.051 c -0.027 0 -0.039 0.012 -0.039 0.039 c 0 0.023 -0.016 0.035 -0.043 0.035 c -0.02 0 -0.039 0.016 -0.039 0.031 c 0 0.016 -0.02 0.027 -0.039 0.027 c -0.031 0 -0.043 0.016 -0.043 0.051 c 0 0.035 -0.012 0.047 -0.039 0.047 c -0.027 0 -0.043 0.016 -0.043 0.039 c 0 0.027 -0.012 0.039 -0.039 0.039 c -0.027 0 -0.039 0.012 -0.039 0.039 c 0 0.027 -0.016 0.039 -0.043 0.039 c -0.027 0 -0.039 0.012 -0.039 0.039 c 0 0.027 -0.016 0.039 -0.043 0.039 c -0.023 0 -0.039 0.012 -0.039 0.039 c 0 0.027 -0.012 0.039 -0.039 0.039 c -0.027 0 -0.043 0.012 -0.043 0.039 c 0 0.023 -0.012 0.039 -0.039 0.039 c -0.023 0 -0.043 0.012 -0.043 0.031 c 0 0.016 -0.016 0.035 -0.039 0.039 c -0.023 0.008 -0.043 0.035 -0.051 0.074 c -0.012 0.055 -0.023 0.066 -0.082 0.078 c -0.059 0.008 -0.07 0.02 -0.082 0.078 c -0.012 0.055 -0.023 0.066 -0.082 0.078 c -0.055 0.008 -0.07 0.02 -0.078 0.074 c -0.012 0.059 -0.023 0.07 -0.082 0.078 c -0.059 0.012 -0.07 0.023 -0.082 0.082 c -0.012 0.047 -0.023 0.066 -0.051 0.066 c -0.027 0 -0.039 0.016 -0.039 0.047 c 0 0.039 -0.012 0.051 -0.043 0.051 c -0.023 0 -0.039 0.012 -0.039 0.039 c 0 0.023 -0.012 0.039 -0.039 0.039 c -0.027 0 -0.043 0.012 -0.043 0.039 c 0 0.023 -0.012 0.039 -0.039 0.039 c -0.027 0 -0.043 0.012 -0.043 0.039 c 0 0.02 -0.012 0.039 -0.027 0.039 c -0.016 0 -0.035 0.027 -0.043 0.074 c -0.008 0.063 -0.023 0.078 -0.051 0.078 c -0.027 0 -0.039 0.016 -0.039 0.039 c 0 0.027 -0.016 0.039 -0.043 0.039 c -0.023 0 -0.039 0.016 -0.039 0.039 c 0 0.027 -0.012 0.039 -0.039 0.039 c -0.027 0 -0.043 0.012 -0.043 0.039 c 0 0.023 -0.012 0.039 -0.027 0.039 c -0.02 0 -0.035 0.031 -0.043 0.078 c -0.012 0.059 -0.023 0.078 -0.051 0.078 c -0.027 0 -0.039 0.012 -0.039 0.039 c 0 0.023 -0.016 0.039 -0.043 0.039 c -0.027 0 -0.039 0.012 -0.039 0.039 c 0 0.023 -0.016 0.039 -0.043 0.039 c -0.031 0 -0.039 0.012 -0.039 0.078 c 0 0.063 -0.008 0.074 -0.039 0.074 c -0.035 0 -0.043 0.016 -0.043 0.078 c 0 0.066 -0.004 0.078 -0.039 0.078 c -0.027 0 -0.043 0.016 -0.043 0.039 c 0 0.027 -0.012 0.039 -0.039 0.039 c -0.035 0 -0.039 0.016 -0.039 0.078 c 0 0.066 -0.008 0.078 -0.043 0.078 c -0.027 0 -0.039 0.012 -0.039 0.047 c 0 0.039 -0.012 0.051 -0.043 0.051 c -0.035 0 -0.039 0.012 -0.039 0.105 c 0 0.094 -0.004 0.109 -0.039 0.109 c -0.035 0 -0.043 0.012 -0.043 0.074 c 0 0.066 -0.004 0.078 -0.039 0.078 c -0.039 0 -0.043 0.016 -0.043 0.32 c 0 0.309 0.004 0.324 0.043 0.324 c 0.027 0 0.039 0.012 0.039 0.039 c 0 0.023 0.016 0.035 0.043 0.035 c 0.027 0 0.039 0.016 0.039 0.039 c 0 0.027 0.016 0.039 0.039 0.039 c 0.027 0 0.043 0.016 0.043 0.039 c 0 0.027 0.012 0.039 0.039 0.039 c 0.027 0 0.043 0.016 0.043 0.039 c 0 0.027 0.012 0.039 0.039 0.039 c 0.027 0 0.039 0.016 0.039 0.039 c 0 0.031 0.016 0.039 0.082 0.039 c 0.07 0 0.082 0.008 0.082 0.039 c 0 0.031 0.016 0.039 0.082 0.039 c 0.066 0 0.082 0.008 0.082 0.039 c 0 0.031 0.012 0.039 0.078 0.039 c 0.07 0 0.082 0.008 0.082 0.039 c 0 0.035 0.016 0.039 0.164 0.039 c 0.148 0 0.16 0.004 0.16 0.039 c 0 0.035 0.016 0.039 0.133 0.039 c 0.121 0 0.133 0.004 0.133 0.039 c 0 0.035 0.016 0.039 0.273 0.039 c 0.262 0 0.273 0 0.273 0.039 c 0 0.035 0.016 0.039 0.297 0.039 c 0.281 0 0.293 0 0.293 0.035 c 0 0.039 0.016 0.039 0.324 0.039 h 0.324 v 0.078 c 0 0.066 -0.004 0.078 -0.039 0.078 c -0.035 0 -0.039 0.016 -0.039 0.078 c 0 0.066 -0.008 0.078 -0.043 0.078 c -0.027 0 -0.039 0.012 -0.039 0.039 c 0 0.027 -0.016 0.039 -0.043 0.039 c -0.023 0 -0.039 0.012 -0.039 0.039 c 0 0.027 -0.012 0.039 -0.039 0.039 c -0.027 0 -0.043 -0.012 -0.043 -0.039"/><path d="m 9.277 12.559 c 0 -0.055 0.008 -0.07 0.043 -0.07 c 0.035 0 0.039 -0.012 0.039 -0.086 c 0 -0.063 0.008 -0.086 0.027 -0.086 c 0.035 0 0.055 -0.059 0.055 -0.152 c 0 -0.051 0.008 -0.063 0.039 -0.063 c 0.035 0 0.043 -0.012 0.043 -0.09 c 0 -0.059 0.008 -0.086 0.027 -0.086 c 0.031 0 0.051 -0.059 0.051 -0.16 c 0.004 -0.059 0.008 -0.074 0.043 -0.074 c 0.035 0 0.039 -0.012 0.039 -0.078 c 0 -0.063 0.008 -0.074 0.043 -0.074 c 0.031 0 0.039 -0.016 0.039 -0.078 c 0 -0.055 0.008 -0.078 0.027 -0.078 c 0.031 0 0.055 -0.082 0.055 -0.18 c 0 -0.035 0.012 -0.055 0.027 -0.055 c 0.02 0 0.035 -0.031 0.043 -0.078 c 0.008 -0.043 0.027 -0.078 0.039 -0.078 c 0.027 0 0.055 -0.082 0.055 -0.176 c 0 -0.043 0.008 -0.059 0.039 -0.059 c 0.035 0 0.039 -0.012 0.039 -0.074 c 0 -0.066 0.008 -0.078 0.043 -0.078 c 0.035 0 0.039 -0.016 0.039 -0.117 c 0 -0.105 0.004 -0.117 0.043 -0.117 c 0.031 0 0.039 -0.012 0.039 -0.086 c 0 -0.074 0.004 -0.09 0.039 -0.09 c 0.035 0 0.043 -0.012 0.043 -0.105 c 0 -0.094 0.004 -0.109 0.039 -0.109 c 0.035 0 0.043 -0.012 0.043 -0.074 c 0 -0.066 0.004 -0.078 0.039 -0.078 c 0.035 0 0.039 -0.016 0.039 -0.117 c 0 -0.105 0.004 -0.117 0.043 -0.117 c 0.031 0 0.039 -0.012 0.039 -0.078 c 0 -0.066 0.008 -0.078 0.043 -0.078 c 0.035 0 0.039 -0.012 0.039 -0.117 c 0 -0.102 0.004 -0.117 0.039 -0.117 c 0.035 0 0.043 -0.012 0.043 -0.074 c 0 -0.066 0.004 -0.078 0.039 -0.078 c 0.035 0 0.043 -0.016 0.043 -0.129 c 0 -0.113 0.004 -0.125 0.039 -0.125 c 0.035 0 0.039 -0.012 0.039 -0.078 c 0 -0.063 0.008 -0.078 0.043 -0.078 c 0.035 0 0.039 -0.012 0.039 -0.117 c 0 -0.102 0.004 -0.117 0.043 -0.117 c 0.031 0 0.039 -0.012 0.039 -0.074 c 0 -0.066 0.008 -0.078 0.039 -0.078 c 0.039 0 0.043 -0.016 0.043 -0.117 c 0 -0.105 0.004 -0.117 0.039 -0.117 c 0.035 0 0.043 -0.012 0.043 -0.078 c 0 -0.066 0.004 -0.078 0.039 -0.078 c 0.035 0 0.039 -0.012 0.039 -0.117 c 0 -0.102 0.004 -0.117 0.043 -0.117 c 0.031 0 0.039 -0.012 0.039 -0.074 c 0 -0.066 0.008 -0.078 0.043 -0.078 c 0.035 0 0.039 -0.016 0.039 -0.117 c 0 -0.105 0.004 -0.117 0.039 -0.117 c 0.035 0 0.043 -0.012 0.043 -0.086 c 0 -0.078 0.004 -0.09 0.039 -0.09 c 0.035 0 0.043 -0.012 0.043 -0.066 c 0 -0.055 -0.008 -0.07 -0.043 -0.07 c -0.027 0 -0.039 -0.012 -0.039 -0.039 c 0 -0.035 -0.016 -0.039 -0.16 -0.039 c -0.086 0 -0.324 -0.004 -0.527 -0.012 c -0.363 -0.012 -0.371 -0.012 -0.371 0.027 c 0 0.027 -0.016 0.043 -0.063 0.051 c -0.094 0.02 -0.098 0.016 -0.098 -0.035 v -0.051 h -0.539 c -0.445 0 -0.539 -0.004 -0.539 -0.023 c 0 -0.035 -0.059 -0.051 -0.168 -0.051 c -0.051 0 -0.074 -0.012 -0.074 -0.027 c 0 -0.043 -0.066 -0.051 -0.332 -0.051 c -0.191 0 -0.238 -0.008 -0.238 -0.027 c 0 -0.02 -0.031 -0.035 -0.078 -0.043 c -0.063 -0.008 -0.082 -0.02 -0.082 -0.051 c 0 -0.031 -0.016 -0.035 -0.164 -0.035 c -0.148 0 -0.16 -0.004 -0.16 -0.039 c 0 -0.027 -0.016 -0.039 -0.043 -0.039 c -0.027 0 -0.039 -0.012 -0.039 -0.039 c 0 -0.031 -0.016 -0.039 -0.082 -0.039 c -0.066 0 -0.082 -0.008 -0.082 -0.039 c 0 -0.027 -0.012 -0.039 -0.039 -0.039 c -0.027 0 -0.043 -0.012 -0.043 -0.039 c 0 -0.023 -0.012 -0.039 -0.039 -0.039 c -0.039 0 -0.039 -0.012 -0.039 -0.191 c 0 -0.184 0 -0.195 0.039 -0.195 c 0.035 0 0.039 -0.016 0.039 -0.078 c 0 -0.066 0.008 -0.078 0.043 -0.078 c 0.031 0 0.039 -0.012 0.039 -0.078 c 0 -0.066 0.008 -0.078 0.043 -0.078 c 0.027 0 0.039 -0.012 0.039 -0.039 c 0 -0.023 0.012 -0.039 0.039 -0.039 c 0.035 0 0.043 -0.012 0.043 -0.078 c 0 -0.063 0.008 -0.078 0.039 -0.078 c 0.035 0 0.043 -0.012 0.043 -0.074 c 0 -0.066 0.004 -0.078 0.039 -0.078 c 0.027 0 0.039 -0.016 0.039 -0.039 c 0 -0.027 0.016 -0.039 0.043 -0.039 c 0.027 0 0.039 -0.016 0.039 -0.039 c 0 -0.027 0.016 -0.039 0.043 -0.039 c 0.031 0 0.039 -0.016 0.039 -0.078 c 0 -0.066 0.008 -0.078 0.039 -0.078 c 0.027 0 0.043 -0.012 0.043 -0.039 c 0 -0.027 0.012 -0.039 0.039 -0.039 c 0.027 0 0.043 -0.012 0.043 -0.039 c 0 -0.023 0.012 -0.039 0.039 -0.039 c 0.027 0 0.039 -0.012 0.039 -0.039 c 0 -0.023 0.016 -0.039 0.043 -0.039 c 0.027 0 0.039 -0.012 0.039 -0.039 c 0 -0.023 0.016 -0.039 0.043 -0.039 c 0.023 0 0.039 -0.012 0.039 -0.035 c 0 -0.027 0.02 -0.039 0.082 -0.047 c 0.051 -0.008 0.082 -0.023 0.082 -0.043 c 0 -0.023 0.043 -0.027 0.281 -0.027 c 0.23 0 0.285 0.004 0.285 0.023 c 0 0.016 -0.031 0.035 -0.07 0.043 c -0.047 0.008 -0.07 0.023 -0.07 0.043 c 0 0.016 -0.02 0.035 -0.043 0.039 c -0.02 0.004 -0.039 0.02 -0.039 0.035 c 0 0.016 -0.02 0.027 -0.047 0.031 c -0.027 0.004 -0.047 0.023 -0.051 0.051 c -0.004 0.027 -0.02 0.043 -0.047 0.043 c -0.023 0 -0.039 0.016 -0.039 0.039 c 0 0.023 -0.012 0.039 -0.027 0.039 c -0.02 0 -0.035 0.031 -0.043 0.078 c -0.012 0.059 -0.023 0.078 -0.051 0.078 c -0.027 0 -0.039 0.012 -0.039 0.039 c 0 0.023 -0.016 0.039 -0.043 0.039 c -0.027 0 -0.039 0.012 -0.039 0.039 c 0 0.023 -0.016 0.039 -0.043 0.039 c -0.027 0 -0.039 0.012 -0.039 0.039 c 0 0.023 -0.012 0.039 -0.039 0.039 c -0.035 0 -0.043 0.012 -0.043 0.078 c 0 0.063 -0.008 0.074 -0.039 0.074 c -0.035 0 -0.043 0.016 -0.043 0.078 c 0 0.066 -0.004 0.078 -0.039 0.078 c -0.035 0 -0.039 0.016 -0.039 0.078 c 0 0.066 -0.008 0.078 -0.043 0.078 c -0.035 0 -0.039 0.012 -0.039 0.195 v 0.195 h 0.082 c 0.066 0 0.078 0.004 0.078 0.035 c 0 0.027 0.02 0.039 0.082 0.051 c 0.063 0.012 0.082 0.023 0.082 0.051 c 0 0.031 0.016 0.035 0.16 0.035 c 0.145 0 0.16 0.004 0.172 0.039 c 0.008 0.031 0.027 0.039 0.094 0.039 c 0.055 0 0.082 0.008 0.082 0.027 c 0 0.016 0.02 0.031 0.047 0.039 c 0.023 0.008 0.754 0.012 1.625 0.012 c 1.563 0 1.582 0 1.59 -0.039 c 0.008 -0.027 0.027 -0.039 0.082 -0.039 h 0.066 v 0.105 c 0 0.09 -0.004 0.105 -0.039 0.113 c -0.031 0.008 -0.043 0.027 -0.043 0.082 c 0 0.055 -0.004 0.07 -0.039 0.07 c -0.035 0 -0.039 0.012 -0.039 0.117 c 0 0.102 -0.008 0.117 -0.043 0.117 c -0.031 0 -0.039 0.012 -0.039 0.074 c 0 0.066 -0.008 0.078 -0.043 0.078 c -0.035 0 -0.039 0.016 -0.039 0.117 c 0 0.105 -0.004 0.117 -0.039 0.117 c -0.035 0 -0.043 0.012 -0.043 0.078 c 0 0.066 -0.004 0.078 -0.039 0.078 c -0.035 0 -0.043 0.012 -0.043 0.086 c 0 0.063 -0.008 0.09 -0.027 0.09 c -0.016 0 -0.035 0.027 -0.043 0.078 c -0.008 0.043 -0.023 0.074 -0.039 0.074 c -0.027 0 -0.051 0.086 -0.051 0.18 c 0 0.035 -0.012 0.055 -0.027 0.055 c -0.02 0 -0.035 0.031 -0.043 0.078 c -0.008 0.043 -0.027 0.078 -0.043 0.078 c -0.027 0 -0.051 0.082 -0.051 0.176 c 0 0.043 -0.008 0.059 -0.039 0.059 c -0.035 0 -0.043 0.012 -0.043 0.078 c 0 0.063 -0.004 0.074 -0.039 0.074 c -0.035 0 -0.039 0.016 -0.039 0.117 c 0 0.105 -0.004 0.117 -0.043 0.117 c -0.035 0 -0.039 0.012 -0.039 0.09 c 0 0.074 -0.008 0.086 -0.043 0.086 c -0.035 0 -0.039 0.012 -0.039 0.105 c 0 0.094 -0.004 0.109 -0.039 0.109 c -0.035 0 -0.043 0.012 -0.043 0.078 c 0 0.063 -0.004 0.074 -0.039 0.074 c -0.035 0 -0.043 0.016 -0.043 0.117 c 0 0.105 -0.004 0.117 -0.039 0.117 c -0.035 0 -0.039 0.012 -0.039 0.078 c 0 0.066 -0.008 0.078 -0.043 0.078 c -0.035 0 -0.039 0.012 -0.039 0.117 c 0 0.102 -0.004 0.117 -0.043 0.117 c -0.031 0 -0.039 0.012 -0.039 0.078 c 0 0.063 -0.008 0.078 -0.039 0.078 c -0.035 0 -0.043 0.012 -0.043 0.086 c 0 0.074 -0.004 0.086 -0.039 0.086 c -0.035 0 -0.043 0.016 -0.043 0.117 c 0 0.105 -0.004 0.117 -0.039 0.117 c -0.035 0 -0.039 0.012 -0.039 0.117 c 0 0.102 -0.004 0.117 -0.043 0.117 c -0.031 0 -0.039 0.012 -0.039 0.078 c 0 0.063 -0.008 0.078 -0.043 0.078 c -0.031 0 -0.039 0.012 -0.039 0.074 c 0 0.066 -0.008 0.078 -0.039 0.078 c -0.039 0 -0.043 0.016 -0.043 0.117 c 0 0.105 -0.004 0.117 -0.039 0.117 c -0.035 0 -0.043 0.012 -0.043 0.117 c 0 0.102 -0.004 0.117 -0.039 0.117 c -0.035 0 -0.039 0.012 -0.039 0.078 c 0 0.063 -0.008 0.078 -0.043 0.078 c -0.035 0 -0.039 0.012 -0.039 0.086 c 0 0.074 -0.008 0.086 -0.043 0.086 c -0.031 0 -0.039 0.016 -0.039 0.078 c 0 0.066 -0.008 0.078 -0.039 0.078 c -0.031 0 -0.043 0.02 -0.055 0.066 c -0.008 0.043 -0.023 0.07 -0.051 0.078 c -0.02 0.004 -0.039 0.023 -0.039 0.039 c 0 0.02 -0.016 0.031 -0.039 0.031 c -0.027 0 -0.043 0.012 -0.043 0.035 c 0 0.027 -0.02 0.043 -0.07 0.051 c -0.043 0.008 -0.07 0.023 -0.07 0.039 c 0 0.02 -0.02 0.031 -0.051 0.031 c -0.035 0 -0.051 0.008 -0.051 0.039 c 0 0.023 -0.012 0.039 -0.039 0.039 c -0.027 0 -0.043 0.012 -0.043 0.039 c 0 0.023 -0.012 0.035 -0.039 0.035 c -0.027 0 -0.039 0.016 -0.039 0.039 c 0 0.035 -0.016 0.039 -0.074 0.039 c -0.055 0 -0.074 0.012 -0.086 0.039 c -0.016 0.07 -0.066 0.047 -0.066 -0.027"/><path d="m 8.613 11.949 c -0.008 -0.031 0.004 -0.082 0.016 -0.09 c 0.035 -0.016 0.047 -0.02 0.047 -0.031 c 0.004 -0.008 0.008 -0.039 0.012 -0.07 c 0.008 -0.051 0.012 -0.059 0.027 -0.066 c 0.023 -0.012 0.039 -0.047 0.051 -0.129 c 0.008 -0.059 0.008 -0.059 0.035 -0.066 l 0.027 -0.012 l 0.016 -0.074 c 0.008 -0.063 0.012 -0.074 0.023 -0.078 c 0.023 -0.004 0.043 -0.047 0.051 -0.125 c 0.012 -0.074 0.02 -0.094 0.051 -0.094 c 0.016 0 0.02 -0.008 0.031 -0.074 c 0.008 -0.055 0.012 -0.055 0.055 -0.074 c 0.008 -0.004 0.016 -0.027 0.02 -0.066 c 0.008 -0.047 0.012 -0.059 0.031 -0.074 c 0.023 -0.02 0.035 -0.055 0.047 -0.137 c 0.008 -0.055 0.012 -0.066 0.031 -0.074 c 0.012 -0.008 0.023 -0.031 0.039 -0.07 c 0.008 -0.031 0.027 -0.063 0.035 -0.074 c 0.027 -0.02 0.039 -0.059 0.051 -0.141 l 0.012 -0.066 l 0.027 -0.008 c 0.027 -0.008 0.027 -0.012 0.039 -0.066 c 0.008 -0.063 0.02 -0.082 0.043 -0.082 c 0.02 0.004 0.031 -0.023 0.035 -0.102 c 0.008 -0.09 0.008 -0.098 0.043 -0.109 c 0.027 -0.012 0.027 -0.016 0.043 -0.129 c 0.004 -0.012 0.012 -0.027 0.02 -0.031 c 0.008 -0.004 0.02 -0.008 0.027 -0.012 c 0.012 -0.008 0.016 -0.023 0.023 -0.086 c 0.012 -0.09 0.016 -0.102 0.035 -0.102 c 0.023 0 0.039 -0.023 0.047 -0.082 c 0.008 -0.055 0.008 -0.055 0.031 -0.063 c 0.012 -0.004 0.027 -0.012 0.031 -0.016 c 0 -0.004 0.008 -0.043 0.012 -0.082 c 0.004 -0.098 0.012 -0.113 0.039 -0.117 c 0.027 0 0.039 -0.027 0.043 -0.082 c 0 -0.047 0.008 -0.055 0.039 -0.066 c 0.023 -0.008 0.023 -0.008 0.031 -0.09 c 0.016 -0.113 0.02 -0.125 0.043 -0.125 c 0.023 0.004 0.035 -0.02 0.039 -0.07 c 0.004 -0.047 0.016 -0.07 0.035 -0.07 c 0.027 0 0.035 -0.023 0.043 -0.113 c 0.016 -0.117 0.016 -0.125 0.039 -0.125 c 0.027 0.004 0.035 -0.012 0.039 -0.063 c 0.004 -0.055 0.016 -0.078 0.035 -0.078 c 0.027 0 0.039 -0.023 0.047 -0.117 c 0.008 -0.074 0.012 -0.09 0.023 -0.094 c 0.008 -0.004 0.023 -0.012 0.031 -0.016 c 0.008 -0.004 0.016 -0.02 0.02 -0.063 c 0.012 -0.063 0.016 -0.07 0.043 -0.074 c 0.023 0 0.031 -0.023 0.039 -0.117 c 0.004 -0.039 0.008 -0.074 0.012 -0.082 c 0.004 -0.004 0.02 -0.012 0.031 -0.016 c 0.02 -0.004 0.023 -0.008 0.031 -0.066 c 0.012 -0.074 0.016 -0.078 0.039 -0.078 c 0.027 0.004 0.035 -0.023 0.043 -0.105 c 0.004 -0.09 0.008 -0.102 0.039 -0.109 c 0.027 -0.008 0.035 -0.027 0.043 -0.09 c 0.004 -0.039 0.016 -0.055 0.035 -0.055 c 0.023 0 0.031 -0.027 0.035 -0.102 c 0.008 -0.074 0.016 -0.109 0.035 -0.109 c 0.027 0 0.039 -0.023 0.047 -0.09 c 0.012 -0.066 0.012 -0.066 0.035 -0.074 c 0.012 -0.004 0.027 -0.012 0.031 -0.016 c 0.004 -0.012 0.059 -0.008 0.234 0 l 0.227 0.012 l -0.004 0.078 l -0.008 0.078 l -0.023 0.008 c -0.031 0.008 -0.039 0.016 -0.039 0.063 c -0.008 0.059 -0.012 0.078 -0.039 0.082 c -0.027 0.004 -0.039 0.027 -0.043 0.094 c -0.004 0.051 -0.008 0.063 -0.031 0.07 c -0.008 0.004 -0.02 0.027 -0.031 0.063 c -0.012 0.035 -0.031 0.066 -0.043 0.078 c -0.027 0.027 -0.035 0.059 -0.047 0.137 c -0.008 0.059 -0.012 0.066 -0.031 0.082 c -0.016 0.008 -0.027 0.031 -0.039 0.07 c -0.012 0.031 -0.023 0.059 -0.031 0.066 c -0.027 0.016 -0.043 0.063 -0.055 0.133 c -0.008 0.07 -0.02 0.09 -0.047 0.09 c -0.02 0 -0.023 0.008 -0.035 0.074 c -0.004 0.039 -0.012 0.055 -0.023 0.063 c -0.008 0.004 -0.02 0.008 -0.027 0.012 c -0.012 0.004 -0.016 0.023 -0.023 0.098 c -0.008 0.078 -0.012 0.094 -0.023 0.102 c -0.012 0.008 -0.023 0.012 -0.027 0.012 c -0.016 0 -0.023 0.02 -0.031 0.086 c -0.008 0.047 -0.012 0.063 -0.023 0.066 c -0.008 0.004 -0.02 0.012 -0.027 0.016 c -0.012 0.004 -0.016 0.02 -0.023 0.086 c -0.008 0.086 -0.016 0.102 -0.031 0.102 c -0.027 -0.004 -0.047 0.031 -0.051 0.074 c 0 0.055 -0.008 0.063 -0.039 0.07 l -0.023 0.008 l -0.012 0.102 l -0.016 0.102 l -0.023 0.004 c -0.031 0.008 -0.035 0.02 -0.039 0.066 c -0.004 0.059 -0.012 0.074 -0.039 0.082 c -0.031 0.008 -0.035 0.023 -0.043 0.121 c -0.008 0.078 -0.012 0.094 -0.035 0.094 c -0.023 -0.004 -0.035 0.012 -0.039 0.063 c -0.004 0.055 -0.016 0.078 -0.035 0.078 c -0.023 0 -0.035 0.023 -0.043 0.09 c -0.012 0.063 -0.012 0.066 -0.035 0.07 c -0.012 0.004 -0.027 0.012 -0.027 0.016 c -0.004 0.008 -0.012 0.043 -0.012 0.078 c -0.008 0.098 -0.016 0.117 -0.039 0.125 c -0.031 0.004 -0.043 0.035 -0.047 0.113 c -0.004 0.078 -0.016 0.105 -0.039 0.105 c -0.02 -0.004 -0.027 0.012 -0.039 0.078 c -0.012 0.055 -0.012 0.059 -0.031 0.063 c -0.027 0 -0.039 0.02 -0.043 0.066 c -0.004 0.055 -0.008 0.066 -0.039 0.078 c -0.031 0.012 -0.039 0.035 -0.043 0.133 c -0.008 0.07 -0.012 0.086 -0.035 0.086 c -0.027 -0.004 -0.035 0.012 -0.039 0.094 c -0.008 0.082 -0.02 0.117 -0.043 0.121 c -0.027 0.004 -0.031 0.016 -0.039 0.074 c -0.008 0.039 -0.012 0.059 -0.02 0.063 c -0.047 0.02 -0.047 0.02 -0.055 0.082 c -0.008 0.074 -0.016 0.086 -0.039 0.086 c -0.023 -0.004 -0.035 0.023 -0.039 0.082 c -0.004 0.047 -0.008 0.055 -0.039 0.063 c -0.02 0.008 -0.027 0.016 -0.043 0.059 c -0.016 0.035 -0.027 0.055 -0.047 0.066 c -0.012 0.008 -0.031 0.027 -0.035 0.039 c -0.008 0.02 -0.02 0.027 -0.035 0.031 c -0.02 0 -0.027 0.008 -0.047 0.047 c -0.004 0.008 -0.027 0.02 -0.055 0.027 c -0.031 0.012 -0.047 0.023 -0.055 0.035 c -0.004 0.012 -0.016 0.02 -0.027 0.023 c -0.008 0 -0.027 0.004 -0.035 0.004 c -0.016 0.004 -0.02 0.012 -0.027 0.035 c -0.004 0.023 -0.012 0.027 -0.035 0.031 c -0.02 0.004 -0.027 0.012 -0.031 0.027 c -0.008 0.031 -0.02 0.039 -0.043 0.043 c -0.02 0.004 -0.027 0.012 -0.031 0.031 c -0.008 0.031 -0.027 0.043 -0.07 0.039 c -0.039 0 -0.047 0.004 -0.066 0.039 c -0.016 0.031 -0.035 0.035 -0.039 0.004"/><path d="m 7.848 11.824 c -0.004 -0.035 0.004 -0.086 0.02 -0.094 c 0.035 -0.016 0.043 -0.02 0.047 -0.031 c 0 -0.008 0.004 -0.039 0.008 -0.07 c 0.008 -0.051 0.012 -0.059 0.031 -0.066 c 0.023 -0.012 0.035 -0.047 0.047 -0.129 c 0.008 -0.059 0.008 -0.059 0.039 -0.066 l 0.027 -0.008 l 0.012 -0.078 c 0.008 -0.059 0.016 -0.074 0.027 -0.078 c 0.023 0 0.039 -0.047 0.051 -0.125 c 0.008 -0.074 0.02 -0.094 0.047 -0.094 c 0.02 0 0.023 -0.008 0.031 -0.074 c 0.012 -0.055 0.012 -0.055 0.055 -0.074 c 0.008 -0.004 0.016 -0.023 0.02 -0.063 c 0.008 -0.047 0.016 -0.063 0.031 -0.078 c 0.023 -0.02 0.039 -0.055 0.051 -0.137 c 0.008 -0.051 0.012 -0.063 0.027 -0.074 c 0.012 -0.008 0.027 -0.031 0.039 -0.07 c 0.012 -0.031 0.027 -0.063 0.039 -0.074 c 0.023 -0.02 0.039 -0.059 0.051 -0.141 l 0.008 -0.066 l 0.027 -0.008 c 0.027 -0.008 0.031 -0.012 0.039 -0.066 c 0.012 -0.063 0.02 -0.082 0.043 -0.078 c 0.023 0 0.031 -0.027 0.035 -0.105 c 0.008 -0.09 0.012 -0.098 0.043 -0.109 c 0.027 -0.012 0.031 -0.016 0.047 -0.129 c 0 -0.012 0.008 -0.027 0.016 -0.031 c 0.008 -0.004 0.02 -0.008 0.027 -0.012 c 0.012 -0.004 0.016 -0.023 0.023 -0.086 c 0.012 -0.086 0.016 -0.102 0.039 -0.102 c 0.023 0 0.035 -0.023 0.043 -0.082 c 0.008 -0.051 0.008 -0.055 0.031 -0.063 c 0.016 -0.004 0.027 -0.012 0.031 -0.016 c 0.004 -0.004 0.008 -0.043 0.012 -0.082 c 0.008 -0.098 0.012 -0.113 0.039 -0.117 c 0.027 0 0.039 -0.023 0.043 -0.082 c 0.004 -0.047 0.008 -0.055 0.039 -0.066 c 0.023 -0.008 0.023 -0.008 0.035 -0.09 c 0.012 -0.109 0.016 -0.125 0.039 -0.125 c 0.027 0.004 0.039 -0.02 0.043 -0.07 c 0 -0.047 0.016 -0.07 0.035 -0.07 c 0.023 0 0.031 -0.02 0.043 -0.109 c 0.012 -0.117 0.016 -0.129 0.035 -0.125 c 0.027 0 0.039 -0.016 0.043 -0.066 c 0 -0.051 0.012 -0.078 0.035 -0.078 c 0.023 0.004 0.035 -0.023 0.047 -0.113 c 0.008 -0.074 0.012 -0.094 0.023 -0.098 c 0.008 -0.004 0.02 -0.012 0.027 -0.012 c 0.012 -0.008 0.016 -0.023 0.023 -0.066 c 0.008 -0.063 0.012 -0.07 0.039 -0.07 c 0.027 -0.004 0.031 -0.023 0.039 -0.117 c 0.004 -0.043 0.012 -0.078 0.016 -0.086 c 0.004 -0.004 0.016 -0.012 0.027 -0.016 c 0.023 -0.004 0.023 -0.008 0.035 -0.063 c 0.012 -0.078 0.012 -0.082 0.035 -0.082 c 0.027 0.004 0.039 -0.023 0.043 -0.105 c 0.008 -0.09 0.012 -0.102 0.039 -0.109 c 0.027 -0.008 0.035 -0.023 0.043 -0.09 c 0.004 -0.039 0.016 -0.055 0.035 -0.055 c 0.023 0 0.031 -0.027 0.039 -0.102 c 0.004 -0.07 0.016 -0.109 0.031 -0.109 c 0.027 0 0.043 -0.02 0.051 -0.09 c 0.008 -0.063 0.008 -0.066 0.031 -0.074 c 0.012 -0.004 0.027 -0.012 0.031 -0.016 c 0.004 -0.008 0.059 -0.008 0.234 0 l 0.23 0.012 l -0.016 0.156 l -0.023 0.008 c -0.031 0.012 -0.035 0.02 -0.039 0.063 c -0.004 0.063 -0.012 0.078 -0.039 0.082 c -0.027 0.004 -0.039 0.027 -0.043 0.094 c -0.004 0.051 -0.008 0.063 -0.027 0.07 c -0.008 0.004 -0.023 0.027 -0.035 0.063 c -0.012 0.035 -0.027 0.07 -0.039 0.078 c -0.027 0.027 -0.039 0.059 -0.051 0.137 c -0.008 0.059 -0.012 0.066 -0.031 0.082 c -0.012 0.008 -0.023 0.031 -0.039 0.07 c -0.008 0.031 -0.023 0.059 -0.031 0.066 c -0.023 0.016 -0.043 0.063 -0.051 0.133 c -0.012 0.07 -0.023 0.09 -0.051 0.09 c -0.02 0 -0.023 0.008 -0.031 0.074 c -0.008 0.039 -0.016 0.059 -0.023 0.063 c -0.008 0.004 -0.02 0.008 -0.027 0.012 c -0.012 0.008 -0.016 0.023 -0.023 0.098 c -0.012 0.078 -0.016 0.094 -0.027 0.105 c -0.008 0.004 -0.02 0.012 -0.027 0.008 c -0.016 0 -0.02 0.02 -0.031 0.086 c -0.004 0.047 -0.008 0.063 -0.02 0.07 c -0.008 0.004 -0.02 0.008 -0.027 0.012 c -0.012 0.004 -0.02 0.023 -0.023 0.086 c -0.012 0.086 -0.016 0.102 -0.035 0.102 c -0.023 0 -0.043 0.031 -0.047 0.078 c -0.004 0.051 -0.008 0.059 -0.039 0.07 l -0.023 0.004 l -0.031 0.203 l -0.023 0.008 c -0.027 0.004 -0.035 0.016 -0.039 0.063 c -0.004 0.059 -0.012 0.074 -0.039 0.082 c -0.027 0.008 -0.035 0.023 -0.043 0.121 c -0.004 0.082 -0.012 0.094 -0.031 0.094 c -0.027 -0.004 -0.039 0.016 -0.043 0.063 c 0 0.055 -0.012 0.078 -0.035 0.078 c -0.023 0 -0.035 0.023 -0.043 0.09 c -0.008 0.063 -0.008 0.066 -0.031 0.074 c -0.016 0.004 -0.027 0.008 -0.031 0.016 c -0.004 0.004 -0.008 0.039 -0.012 0.078 c -0.008 0.094 -0.016 0.117 -0.039 0.121 c -0.027 0.004 -0.039 0.035 -0.047 0.117 c -0.004 0.074 -0.012 0.102 -0.035 0.102 c -0.023 0 -0.027 0.012 -0.043 0.078 c -0.008 0.055 -0.012 0.063 -0.031 0.063 c -0.027 0.004 -0.039 0.023 -0.043 0.07 c -0.004 0.051 -0.008 0.063 -0.039 0.078 c -0.027 0.012 -0.035 0.035 -0.043 0.133 c -0.004 0.066 -0.012 0.082 -0.031 0.082 c -0.031 -0.004 -0.039 0.012 -0.043 0.094 c -0.004 0.086 -0.016 0.117 -0.043 0.121 c -0.023 0.004 -0.031 0.016 -0.039 0.074 c -0.004 0.039 -0.012 0.059 -0.02 0.063 c -0.043 0.02 -0.043 0.02 -0.051 0.086 c -0.012 0.07 -0.016 0.082 -0.043 0.082 c -0.023 0 -0.035 0.023 -0.039 0.082 c -0.004 0.047 -0.008 0.055 -0.039 0.063 c -0.02 0.008 -0.027 0.016 -0.043 0.059 c -0.016 0.039 -0.027 0.055 -0.043 0.066 c -0.016 0.008 -0.031 0.027 -0.039 0.043 c -0.008 0.016 -0.02 0.023 -0.035 0.027 c -0.02 0.004 -0.027 0.008 -0.047 0.047 c -0.004 0.008 -0.027 0.02 -0.051 0.027 c -0.035 0.012 -0.051 0.023 -0.059 0.035 c -0.004 0.012 -0.016 0.02 -0.027 0.023 c -0.008 0 -0.023 0.004 -0.035 0.004 c -0.012 0.004 -0.02 0.012 -0.023 0.035 c -0.008 0.023 -0.012 0.027 -0.035 0.031 c -0.023 0.004 -0.031 0.012 -0.035 0.027 c -0.008 0.031 -0.016 0.039 -0.043 0.047 c -0.016 0 -0.023 0.008 -0.031 0.027 c -0.008 0.031 -0.023 0.043 -0.07 0.039 c -0.039 0 -0.047 0.004 -0.066 0.039 c -0.016 0.031 -0.035 0.035 -0.039 0.004"/><path d="m 7.109 11.566 c -0.004 -0.035 0.008 -0.086 0.02 -0.09 c 0.035 -0.016 0.043 -0.023 0.047 -0.035 c 0 -0.004 0.004 -0.039 0.012 -0.07 c 0.008 -0.051 0.008 -0.059 0.027 -0.066 c 0.023 -0.008 0.035 -0.047 0.047 -0.125 c 0.012 -0.063 0.012 -0.063 0.039 -0.07 l 0.027 -0.008 l 0.012 -0.074 c 0.012 -0.063 0.016 -0.078 0.027 -0.078 c 0.023 -0.004 0.043 -0.051 0.051 -0.125 c 0.008 -0.078 0.02 -0.098 0.047 -0.098 c 0.02 0.004 0.023 -0.004 0.035 -0.074 c 0.008 -0.055 0.008 -0.055 0.051 -0.074 c 0.008 -0.004 0.016 -0.023 0.023 -0.063 c 0.004 -0.047 0.012 -0.063 0.027 -0.074 c 0.023 -0.023 0.039 -0.059 0.051 -0.141 c 0.008 -0.051 0.012 -0.063 0.027 -0.074 c 0.012 -0.008 0.027 -0.031 0.039 -0.07 c 0.012 -0.031 0.027 -0.063 0.039 -0.07 c 0.023 -0.023 0.039 -0.063 0.051 -0.145 l 0.008 -0.066 l 0.031 -0.008 c 0.027 -0.008 0.027 -0.008 0.035 -0.066 c 0.012 -0.063 0.02 -0.078 0.043 -0.078 c 0.023 0 0.031 -0.027 0.039 -0.105 c 0.004 -0.086 0.008 -0.098 0.039 -0.109 c 0.031 -0.012 0.031 -0.012 0.047 -0.125 c 0 -0.016 0.008 -0.027 0.016 -0.031 c 0.008 -0.004 0.023 -0.012 0.031 -0.016 c 0.008 -0.004 0.016 -0.02 0.02 -0.086 c 0.012 -0.086 0.016 -0.102 0.039 -0.102 c 0.023 0.004 0.035 -0.023 0.043 -0.082 c 0.008 -0.051 0.012 -0.055 0.031 -0.063 c 0.016 -0.004 0.027 -0.008 0.031 -0.016 c 0.004 -0.004 0.008 -0.039 0.012 -0.082 c 0.008 -0.094 0.016 -0.113 0.043 -0.117 c 0.023 0 0.035 -0.023 0.039 -0.082 c 0.004 -0.047 0.008 -0.055 0.039 -0.063 c 0.023 -0.008 0.023 -0.008 0.035 -0.09 c 0.012 -0.113 0.02 -0.129 0.043 -0.125 c 0.023 0 0.035 -0.023 0.039 -0.07 c 0.004 -0.051 0.016 -0.074 0.035 -0.074 c 0.023 0.004 0.035 -0.02 0.043 -0.109 c 0.012 -0.117 0.016 -0.125 0.035 -0.125 c 0.027 0 0.039 -0.016 0.043 -0.066 c 0.004 -0.051 0.016 -0.078 0.035 -0.078 c 0.027 0.004 0.035 -0.02 0.047 -0.113 c 0.008 -0.074 0.012 -0.09 0.023 -0.098 c 0.008 -0.004 0.02 -0.008 0.027 -0.012 c 0.012 -0.004 0.016 -0.023 0.023 -0.063 c 0.008 -0.063 0.012 -0.07 0.043 -0.074 c 0.023 -0.004 0.031 -0.023 0.035 -0.117 c 0.004 -0.039 0.012 -0.078 0.016 -0.082 c 0.004 -0.008 0.016 -0.016 0.027 -0.02 c 0.023 -0.004 0.023 -0.008 0.035 -0.063 c 0.012 -0.078 0.012 -0.082 0.035 -0.078 c 0.027 0 0.039 -0.027 0.043 -0.109 c 0.008 -0.086 0.012 -0.102 0.043 -0.109 c 0.027 -0.004 0.035 -0.023 0.039 -0.09 c 0.004 -0.039 0.016 -0.055 0.039 -0.055 c 0.02 0.004 0.031 -0.023 0.035 -0.098 c 0.004 -0.074 0.016 -0.113 0.031 -0.113 c 0.031 0.004 0.043 -0.02 0.051 -0.086 c 0.008 -0.066 0.008 -0.07 0.031 -0.074 c 0.016 -0.004 0.027 -0.016 0.031 -0.02 c 0.008 -0.008 0.059 -0.008 0.234 0 l 0.23 0.012 l -0.008 0.078 l -0.008 0.082 l -0.023 0.004 c -0.031 0.012 -0.035 0.02 -0.039 0.063 c -0.004 0.063 -0.012 0.078 -0.039 0.082 c -0.027 0.004 -0.039 0.027 -0.043 0.094 c -0.004 0.051 -0.008 0.063 -0.027 0.07 c -0.008 0.004 -0.023 0.027 -0.035 0.066 c -0.012 0.035 -0.027 0.066 -0.039 0.078 c -0.027 0.023 -0.039 0.055 -0.051 0.133 c -0.008 0.059 -0.012 0.07 -0.027 0.082 c -0.016 0.012 -0.027 0.031 -0.039 0.07 c -0.012 0.031 -0.027 0.063 -0.035 0.066 c -0.023 0.02 -0.043 0.063 -0.051 0.133 c -0.012 0.07 -0.023 0.094 -0.047 0.09 c -0.02 0 -0.027 0.012 -0.035 0.074 c -0.008 0.043 -0.012 0.059 -0.023 0.063 c -0.008 0.004 -0.02 0.008 -0.027 0.012 c -0.012 0.008 -0.016 0.023 -0.023 0.102 c -0.008 0.074 -0.012 0.09 -0.027 0.102 c -0.008 0.008 -0.02 0.012 -0.023 0.012 c -0.016 -0.004 -0.023 0.016 -0.031 0.082 c -0.008 0.047 -0.012 0.066 -0.023 0.07 c -0.008 0.004 -0.02 0.008 -0.027 0.012 c -0.012 0.008 -0.016 0.023 -0.023 0.09 c -0.012 0.082 -0.016 0.098 -0.035 0.098 c -0.023 0 -0.043 0.031 -0.047 0.078 c -0.004 0.051 -0.008 0.059 -0.039 0.07 l -0.023 0.008 l -0.016 0.102 l -0.012 0.098 l -0.023 0.008 c -0.031 0.008 -0.039 0.02 -0.043 0.066 c -0.004 0.059 -0.008 0.07 -0.039 0.078 c -0.027 0.008 -0.035 0.023 -0.043 0.125 c -0.004 0.078 -0.008 0.09 -0.031 0.09 c -0.027 0 -0.039 0.016 -0.039 0.063 c -0.004 0.055 -0.016 0.082 -0.035 0.078 c -0.027 0 -0.039 0.023 -0.047 0.09 c -0.008 0.063 -0.008 0.066 -0.031 0.074 c -0.016 0.004 -0.027 0.012 -0.031 0.016 c -0.004 0.004 -0.008 0.039 -0.012 0.078 c -0.008 0.094 -0.016 0.117 -0.039 0.121 c -0.027 0.008 -0.039 0.035 -0.043 0.117 c -0.008 0.078 -0.016 0.102 -0.039 0.102 c -0.02 0 -0.027 0.012 -0.039 0.078 c -0.012 0.055 -0.016 0.063 -0.031 0.063 c -0.031 0.004 -0.043 0.023 -0.043 0.07 c -0.004 0.055 -0.012 0.066 -0.043 0.078 c -0.027 0.012 -0.035 0.035 -0.043 0.133 c -0.004 0.07 -0.008 0.082 -0.031 0.082 c -0.031 0 -0.035 0.016 -0.043 0.098 c -0.004 0.082 -0.016 0.117 -0.043 0.121 c -0.023 0.004 -0.031 0.012 -0.039 0.07 c -0.004 0.039 -0.012 0.059 -0.02 0.063 c -0.043 0.02 -0.043 0.02 -0.051 0.086 c -0.012 0.074 -0.016 0.082 -0.043 0.082 c -0.023 0 -0.035 0.023 -0.039 0.082 c -0.004 0.047 -0.008 0.055 -0.039 0.066 c -0.02 0.004 -0.027 0.016 -0.043 0.055 c -0.012 0.039 -0.023 0.055 -0.043 0.066 c -0.016 0.012 -0.031 0.027 -0.039 0.043 c -0.008 0.016 -0.02 0.023 -0.035 0.027 c -0.02 0.004 -0.027 0.012 -0.047 0.051 c -0.004 0.004 -0.027 0.02 -0.051 0.027 c -0.031 0.008 -0.051 0.02 -0.059 0.031 c -0.004 0.012 -0.016 0.023 -0.023 0.023 c -0.012 0 -0.027 0.004 -0.039 0.008 c -0.012 0 -0.02 0.008 -0.023 0.031 c -0.008 0.023 -0.012 0.031 -0.035 0.035 c -0.02 0 -0.027 0.008 -0.035 0.023 c -0.008 0.031 -0.016 0.043 -0.043 0.047 c -0.016 0.004 -0.023 0.008 -0.027 0.027 c -0.012 0.035 -0.027 0.043 -0.07 0.043 c -0.043 -0.004 -0.047 0 -0.066 0.035 c -0.02 0.031 -0.039 0.035 -0.043 0.008"/><path d="m 7.25 9.07 c 0 -0.039 -0.012 -0.039 -0.363 -0.039 c -0.352 0 -0.367 0 -0.367 -0.039 c 0 -0.035 -0.012 -0.039 -0.293 -0.039 c -0.281 0 -0.297 0 -0.297 -0.039 c 0 -0.035 -0.012 -0.039 -0.23 -0.039 c -0.223 0 -0.234 0 -0.234 -0.039 c 0 -0.035 -0.016 -0.039 -0.121 -0.039 c -0.109 0 -0.121 -0.004 -0.121 -0.039 c 0 -0.031 -0.016 -0.039 -0.125 -0.039 c -0.105 0 -0.121 -0.004 -0.121 -0.035 c 0 -0.035 -0.012 -0.039 -0.133 -0.039 c -0.117 0 -0.129 -0.004 -0.129 -0.039 c 0 -0.035 -0.016 -0.039 -0.082 -0.039 c -0.07 0 -0.082 -0.008 -0.082 -0.039 c 0 -0.035 -0.016 -0.039 -0.082 -0.039 c -0.066 0 -0.082 -0.008 -0.082 -0.039 c 0 -0.027 -0.012 -0.039 -0.039 -0.039 c -0.027 0 -0.039 -0.012 -0.039 -0.039 c 0 -0.031 -0.016 -0.039 -0.082 -0.039 c -0.07 0 -0.082 -0.008 -0.082 -0.039 c 0 -0.027 -0.016 -0.039 -0.039 -0.039 c -0.027 0 -0.043 -0.012 -0.043 -0.039 c 0 -0.027 -0.012 -0.039 -0.039 -0.039 c -0.035 0 -0.043 -0.012 -0.043 -0.078 c 0 -0.063 -0.004 -0.078 -0.039 -0.078 c -0.035 0 -0.039 -0.012 -0.039 -0.086 c 0 -0.074 -0.008 -0.086 -0.043 -0.086 c -0.039 0 -0.039 -0.016 -0.039 -0.266 c 0 -0.246 0 -0.262 0.039 -0.262 c 0.039 0 0.043 -0.012 0.043 -0.195 c 0 -0.18 0 -0.191 0.039 -0.191 c 0.031 0 0.039 -0.016 0.039 -0.051 c 0 -0.035 0.012 -0.047 0.043 -0.047 c 0.035 0 0.039 -0.012 0.039 -0.109 c 0 -0.094 0.004 -0.105 0.043 -0.105 c 0.027 0 0.039 -0.012 0.039 -0.047 c 0 -0.035 0.012 -0.051 0.039 -0.051 c 0.035 0 0.043 -0.012 0.043 -0.078 c 0 -0.063 0.004 -0.078 0.039 -0.078 c 0.035 0 0.043 -0.012 0.043 -0.074 c 0 -0.066 0.004 -0.078 0.039 -0.078 c 0.035 0 0.039 -0.016 0.039 -0.078 c 0 -0.066 0.008 -0.078 0.043 -0.078 c 0.027 0 0.039 -0.012 0.039 -0.039 c 0 -0.027 0.016 -0.039 0.043 -0.039 c 0.023 0 0.039 -0.012 0.039 -0.039 c 0 -0.027 0.012 -0.039 0.039 -0.039 c 0.035 0 0.043 -0.012 0.043 -0.078 c 0 -0.063 0.004 -0.078 0.039 -0.078 c 0.035 0 0.043 -0.012 0.043 -0.078 c 0 -0.063 0.004 -0.078 0.039 -0.078 c 0.027 0 0.039 -0.012 0.039 -0.039 c 0 -0.023 0.016 -0.035 0.043 -0.035 c 0.027 0 0.039 -0.016 0.039 -0.039 c 0 -0.031 0.016 -0.039 0.051 -0.039 c 0.039 0 0.051 -0.012 0.051 -0.039 c 0 -0.023 0.016 -0.039 0.031 -0.039 c 0.016 0 0.031 -0.02 0.031 -0.039 c 0 -0.027 0.012 -0.039 0.039 -0.039 c 0.027 0 0.039 -0.02 0.051 -0.078 c 0.012 -0.059 0.023 -0.078 0.055 -0.078 c 0.023 0 0.039 -0.012 0.039 -0.039 c 0 -0.027 0.012 -0.039 0.039 -0.039 c 0.027 0 0.039 -0.012 0.039 -0.039 c 0 -0.027 0.016 -0.039 0.043 -0.039 c 0.023 0 0.039 -0.012 0.039 -0.035 c 0 -0.02 0.02 -0.043 0.043 -0.047 c 0.02 -0.008 0.039 -0.023 0.039 -0.039 c 0 -0.016 0.02 -0.035 0.039 -0.039 c 0.023 -0.004 0.043 -0.023 0.043 -0.039 c 0 -0.016 0.016 -0.035 0.039 -0.039 c 0.023 -0.004 0.043 -0.023 0.043 -0.039 c 0 -0.016 0.016 -0.031 0.039 -0.039 c 0.023 -0.004 0.039 -0.023 0.039 -0.039 c 0 -0.016 0.02 -0.031 0.043 -0.039 c 0.023 -0.004 0.039 -0.027 0.039 -0.051 c 0 -0.027 0.012 -0.039 0.043 -0.039 c 0.023 0 0.039 -0.016 0.039 -0.039 c 0 -0.023 0.012 -0.039 0.031 -0.039 c 0.016 0 0.027 -0.016 0.027 -0.031 c 0 -0.016 0.02 -0.035 0.043 -0.043 c 0.023 -0.004 0.039 -0.02 0.039 -0.039 c 0 -0.016 0.02 -0.031 0.043 -0.035 c 0.02 -0.008 0.039 -0.023 0.039 -0.039 c 0 -0.016 0.02 -0.035 0.039 -0.039 c 0.023 -0.008 0.043 -0.023 0.043 -0.039 c 0 -0.016 0.016 -0.035 0.039 -0.039 c 0.02 -0.008 0.043 -0.027 0.047 -0.047 c 0.008 -0.02 0.027 -0.039 0.043 -0.039 c 0.02 0 0.035 -0.023 0.043 -0.066 c 0.012 -0.059 0.023 -0.066 0.094 -0.078 c 0.047 -0.008 0.078 -0.023 0.078 -0.039 c 0 -0.016 0.02 -0.027 0.043 -0.027 c 0.027 0 0.039 -0.016 0.039 -0.039 c 0 -0.027 0.016 -0.039 0.039 -0.039 c 0.031 0 0.043 -0.016 0.043 -0.051 c 0 -0.043 0.008 -0.047 0.082 -0.047 c 0.086 -0.004 -0.035 0.063 -0.035 0.012 c 0 -0.063 0.379 -0.398 0.41 -0.398 c 0.051 0.102 0.039 -0.039 0.055 -0.016 c 0.059 0.074 -0.129 0.191 0.055 0.363 c 0 0.027 -0.012 0.039 -0.039 0.039 c -0.031 0 -0.039 0.012 -0.039 0.047 c 0 0.035 -0.012 0.051 -0.043 0.051 c -0.027 0 -0.039 0.012 -0.039 0.039 c 0 0.023 -0.016 0.039 -0.043 0.039 c -0.02 0 -0.039 0.012 -0.039 0.027 c 0 0.016 -0.02 0.031 -0.039 0.031 c -0.031 0 -0.043 0.012 -0.043 0.047 c 0 0.035 -0.012 0.047 -0.039 0.047 c -0.027 0 -0.043 0.016 -0.043 0.039 c 0 0.027 -0.012 0.039 -0.039 0.039 c -0.027 0 -0.039 0.016 -0.039 0.039 c 0 0.027 -0.016 0.039 -0.043 0.039 c -0.027 0 -0.039 0.016 -0.039 0.039 c 0 0.027 -0.016 0.039 -0.043 0.039 c -0.023 0 -0.039 0.012 -0.039 0.039 c 0 0.027 -0.012 0.039 -0.039 0.039 c -0.027 0 -0.043 0.012 -0.043 0.039 c 0 0.027 -0.012 0.039 -0.039 0.039 c -0.023 0 -0.043 0.012 -0.043 0.031 c 0 0.016 -0.016 0.035 -0.039 0.039 c -0.023 0.008 -0.043 0.035 -0.051 0.074 c -0.012 0.055 -0.023 0.066 -0.082 0.078 c -0.059 0.012 -0.07 0.023 -0.082 0.078 c -0.012 0.055 -0.023 0.066 -0.082 0.078 c -0.055 0.008 -0.07 0.02 -0.078 0.078 c -0.012 0.055 -0.023 0.066 -0.082 0.078 c -0.059 0.008 -0.07 0.02 -0.082 0.078 c -0.012 0.047 -0.023 0.066 -0.051 0.066 c -0.027 0 -0.039 0.016 -0.039 0.051 c 0 0.035 -0.012 0.047 -0.043 0.047 c -0.023 0 -0.039 0.012 -0.039 0.039 c 0 0.027 -0.012 0.039 -0.039 0.039 c -0.027 0 -0.043 0.012 -0.043 0.039 c 0 0.023 -0.012 0.039 -0.039 0.039 c -0.027 0 -0.043 0.012 -0.043 0.039 c 0 0.02 -0.012 0.039 -0.027 0.039 c -0.016 0 -0.035 0.027 -0.043 0.078 c -0.008 0.059 -0.023 0.074 -0.051 0.074 c -0.027 0 -0.039 0.016 -0.039 0.039 c 0 0.027 -0.016 0.039 -0.043 0.039 c -0.023 0 -0.039 0.016 -0.039 0.039 c 0 0.027 -0.012 0.039 -0.039 0.039 c -0.027 0 -0.043 0.016 -0.043 0.039 c 0 0.023 -0.012 0.039 -0.027 0.039 c -0.02 0 -0.035 0.031 -0.043 0.078 c -0.012 0.059 -0.023 0.078 -0.051 0.078 c -0.027 0 -0.039 0.012 -0.039 0.039 c 0 0.027 -0.016 0.039 -0.043 0.039 c -0.027 0 -0.039 0.012 -0.039 0.039 c 0 0.027 -0.016 0.039 -0.039 0.039 c -0.035 0 -0.043 0.012 -0.043 0.078 c 0 0.063 -0.008 0.078 -0.039 0.078 c -0.035 0 -0.043 0.012 -0.043 0.078 c 0 0.063 -0.004 0.074 -0.039 0.074 c -0.027 0 -0.039 0.016 -0.039 0.039 c 0 0.027 -0.016 0.039 -0.043 0.039 c -0.035 0 -0.039 0.016 -0.039 0.078 c 0 0.066 -0.008 0.078 -0.043 0.078 c -0.027 0 -0.039 0.012 -0.039 0.051 c 0 0.035 -0.012 0.047 -0.039 0.047 c -0.039 0 -0.043 0.012 -0.043 0.105 c 0 0.094 -0.004 0.109 -0.039 0.109 c -0.035 0 -0.043 0.012 -0.043 0.078 c 0 0.063 -0.004 0.078 -0.039 0.078 c -0.039 0 -0.039 0.012 -0.039 0.32 c 0 0.305 0 0.32 0.039 0.32 c 0.027 0 0.039 0.012 0.039 0.039 c 0 0.023 0.016 0.039 0.043 0.039 c 0.027 0 0.039 0.012 0.039 0.039 c 0 0.023 0.016 0.039 0.043 0.039 c 0.023 0 0.039 0.012 0.039 0.035 c 0 0.027 0.012 0.039 0.039 0.039 c 0.027 0 0.043 0.016 0.043 0.039 c 0 0.027 0.012 0.039 0.039 0.039 c 0.027 0 0.043 0.016 0.043 0.039 c 0 0.035 0.012 0.039 0.078 0.039 c 0.07 0 0.082 0.008 0.082 0.039 c 0 0.031 0.016 0.039 0.082 0.039 c 0.066 0 0.082 0.008 0.082 0.039 c 0 0.031 0.012 0.039 0.082 0.039 c 0.066 0 0.078 0.008 0.078 0.039 c 0 0.035 0.016 0.039 0.164 0.039 c 0.148 0 0.16 0.004 0.16 0.039 c 0 0.035 0.016 0.039 0.133 0.039 c 0.121 0 0.133 0.004 0.133 0.039 c 0 0.035 0.016 0.039 0.273 0.039 c 0.262 0 0.273 0 0.273 0.039 c 0 0.035 0.016 0.039 0.297 0.039 c 0.281 0 0.293 0 0.293 0.039 c 0 0.035 0.016 0.039 0.324 0.039 h 0.328 v 0.074 c 0 0.066 -0.008 0.078 -0.043 0.078 c -0.035 0 -0.039 0.016 -0.039 0.078 c 0 0.066 -0.008 0.078 -0.043 0.078 c -0.027 0 -0.039 0.016 -0.039 0.039 c 0 0.027 -0.016 0.039 -0.039 0.039 c -0.027 0 -0.043 0.012 -0.043 0.039 c 0 0.027 -0.012 0.039 -0.039 0.039 c -0.027 0 -0.043 -0.012 -0.043 -0.039"/></g></svg>