<svg xmlns="http://www.w3.org/2000/svg" viewBox="0 0 16 16"><path d="m 14.352 12.238 c 5.754 -8.18 -4.871 -16.473 -11.648 -9.805 c -6.387 6.281 -0.465 16.04 7.48 12.992 c 1.656 -0.637 3.113 -1.684 4.168 -3.188" fill="#778799"/><path d="m 10.168 2.832 c -0.559 0 -1.01 0.457 -1.01 1.02 c 0 0.563 0.449 1.023 1.01 1.02 c 0.555 0 1 -0.457 1 -1.02 c 0 -0.563 -0.449 -1.02 -1 -1.02 m -2.129 0.797 c -0.621 0 -1.246 0.16 -1.812 0.441 c -0.02 0.012 -0.035 0.031 -0.043 0.051 c -0.004 0.023 0 0.047 0.012 0.066 l 0.813 1.313 c 0.023 0.031 0.063 0.047 0.098 0.031 c 0.305 -0.129 0.617 -0.195 0.934 -0.195 c 1.168 0 2.184 0.875 2.367 2.039 c 0.004 0.039 0.039 0.066 0.078 0.066 l 1.535 0.004 c 0.023 0 0.043 -0.012 0.059 -0.027 c 0.016 -0.016 0.023 -0.039 0.02 -0.063 c -0.082 -0.863 -0.445 -1.695 -1.02 -2.344 c -0.023 -0.027 -0.066 -0.035 -0.102 -0.012 c -0.23 0.152 -0.492 0.23 -0.762 0.23 c -0.773 0 -1.406 -0.637 -1.406 -1.418 c 0 0 0.004 -0.031 0.004 -0.031 c 0 -0.039 -0.027 -0.07 -0.066 -0.078 c -0.242 -0.043 -0.48 -0.074 -0.707 -0.074 m -2.449 0.855 c -0.016 0 -0.031 0.004 -0.043 0.016 c -0.668 0.52 -1.168 1.254 -1.41 2.063 c -0.008 0.031 0 0.066 0.027 0.086 c 0.332 0.27 0.535 0.684 0.535 1.105 c 0 0.426 -0.203 0.84 -0.535 1.109 c -0.027 0.02 -0.039 0.055 -0.027 0.086 c 0.242 0.801 0.734 1.531 1.395 2.047 c 0.016 0.016 0.039 0.023 0.059 0.02 c 0.023 -0.004 0.043 -0.02 0.055 -0.039 l 0.824 -1.309 c 0.02 -0.031 0.012 -0.078 -0.016 -0.102 c -0.516 -0.461 -0.813 -1.121 -0.813 -1.813 c 0 -0.695 0.301 -1.355 0.82 -1.816 c 0.031 -0.027 0.035 -0.07 0.016 -0.105 l -0.816 -1.313 c -0.012 -0.02 -0.031 -0.031 -0.051 -0.035 c -0.008 0 -0.012 0 -0.02 0 m -2.281 2.246 c -0.57 0 -1.031 0.465 -1.031 1.043 c 0 0.578 0.461 1.047 1.031 1.047 c 0.566 0 1.031 -0.469 1.031 -1.047 c 0 -0.578 -0.465 -1.043 -1.031 -1.043 m 8.707 1.348 l -1.535 0.004 c -0.039 0 -0.07 0.031 -0.078 0.07 c -0.184 1.152 -1.199 2.023 -2.363 2.023 c -0.32 0 -0.637 -0.066 -0.941 -0.199 c -0.039 -0.016 -0.078 -0.004 -0.102 0.031 l -0.82 1.305 c -0.012 0.02 -0.016 0.043 -0.008 0.066 c 0.004 0.023 0.02 0.039 0.039 0.051 c 0.57 0.289 1.203 0.441 1.832 0.441 c 0.234 0 0.477 -0.02 0.723 -0.066 c 0.035 -0.004 0.059 -0.035 0.063 -0.07 c 0.082 -0.715 0.68 -1.258 1.391 -1.258 c 0.223 0 0.445 0.059 0.648 0.168 c 0.031 0.016 0.07 0.008 0.094 -0.016 c 0.645 -0.668 1.047 -1.539 1.141 -2.461 c 0 -0.023 -0.008 -0.047 -0.02 -0.063 c -0.016 -0.02 -0.039 -0.027 -0.063 -0.027 m -1.809 2.762 c -0.57 0 -1.031 0.465 -1.031 1.039 c 0 0.574 0.461 1.043 1.031 1.043 c 0.566 0 1.027 -0.469 1.027 -1.043 c 0 -0.574 -0.461 -1.039 -1.027 -1.039" fill="#fff"/></svg>