<svg xmlns="http://www.w3.org/2000/svg" xmlns:xlink="http://www.w3.org/1999/xlink" viewBox="0 0 16 16"><defs><g id="3" clip-path="url(#2)"><path d="m 137.68 979.37 c -5.75 -0.816 -9.06 -2.825 -8.625 -5.335 c 0.313 -1.695 -1.063 -1.883 -7.75 -1.13 c -4.5 0.502 -9.625 0.628 -11.375 0.251 c -2.75 -0.565 -3.063 -0.251 -2.125 2.322 c 2.063 6.03 -12.438 11.298 -20.563 7.532 c -8.06 -3.766 -2.188 -11.172 9.25 -11.675 l 6.563 -0.251 l -5.125 -2.887 c -2.813 -1.569 -7.75 -6.214 -11 -10.294 c -5.188 -6.591 -6.06 -8.85 -7.813 -19.21 l -2 -11.737 l -4.188 4.394 c -2.25 2.448 -4.938 4.519 -5.938 4.645 c -2.813 0.314 1 -6.904 8.125 -15.378 c 3.438 -4.08 9 -10.67 12.313 -14.625 l 6 -7.218 l -3.813 -5.712 c -10.375 -15.692 2.25 -37.597 21.375 -36.907 c 8.375 0.251 18.625 7.218 22 14.813 c 2.625 5.963 2.063 16.257 -1.125 20.964 c -1.5 2.197 -1.063 2.95 3.313 6.214 c 9 6.716 21.938 16.821 25.375 19.96 c 6.06 5.523 4 8.097 -2.563 3.264 c -5.313 -3.892 -6.688 -3.264 -4.938 2.322 c 1.938 6.03 0.75 19.583 -2.25 26.362 c -1.25 2.887 -4.313 7.595 -6.813 10.608 l -4.438 5.398 l 4.75 0.314 c 5.25 0.314 10.375 2.95 10.688 5.523 c 0.438 3.829 -10.25 8.411 -17.313 7.469 m -16.375 -92.71 c 4.875 -3.954 2.813 -5.084 -7.625 -4.205 c -20.438 1.632 -20.938 1.82 -16.375 5.272 c 6 4.645 17.625 4.08 24 -1.067 m -16.12 -10.796 c 5.313 -4.08 1.875 -14.813 -4.563 -14.12 c -7.688 0.816 -10.188 10.168 -3.875 14.499 c 3.813 2.699 4.563 2.636 8.438 -0.377 m 17.75 -2.511 c 4.875 -5.272 0.375 -14.12 -6.75 -13.369 c -6.75 0.753 -7.938 11.926 -1.625 14.876 c 4.5 2.071 5.25 1.946 8.375 -1.506" transform="matrix(0.0625 0 0 0.06223 0.251 -49.48)" fill="#fff" fill-rule="evenodd" stroke="#fff" stroke-width="1.561"/></g><clipPath id="2"><path d="M 0,0 H16 V16 H0 z"/></clipPath><filter id="0" filterUnits="objectBoundingBox" x="0" y="0" width="16" height="16"><feColorMatrix type="matrix" in="SourceGraphic" values="0 0 0 0 1 0 0 0 0 1 0 0 0 0 1 0 0 0 1 0"/></filter><mask id="1"><g filter="url(#0)"><path fill-opacity="0.62" d="M 0,0 H16 V16 H0 z"/></g></mask></defs><path d="m 0.047 9.941 c 0.082 0.941 0.238 2.109 0.629 2.73 c 1.766 2.805 2.836 3.164 5.676 3.043 c 1.508 -0.063 3.531 -0.637 5.312 -1.816 c 2.125 -1.406 3.734 -3.582 4.145 -5.598 c 0.086 -0.426 0.117 -1.23 0.063 -1.66 c -0.18 -1.434 -0.953 -2.629 -2.414 -3.727 c -1.395 -1.047 -2.813 -1.824 -4.133 -2.262 c -2.715 -0.902 -5.137 -0.355 -6.891 1.551 c -1.23 1.344 -2.02 3.16 -2.332 5.387 c -0.047 0.336 -0.086 2.01 -0.055 2.352" fill="#191919"/><use xlink:href="#3" mask="url(#1)"/></svg>