<svg xmlns="http://www.w3.org/2000/svg" viewBox="0 0 16 16"><path d="m 7.383 15.879 c 9.668 0.922 12.27 -14.582 2.344 -15.785 c -9.129 -1.492 -13.828 12.559 -4.758 15.371 c 0.766 0.305 1.605 0.301 2.414 0.414" fill="#007f00"/><g fill-rule="evenodd"><path d="m 7.727 9.406 c -0.008 -0.023 -0.02 -0.027 -0.129 -0.027 c -0.102 0 -0.121 -0.004 -0.121 -0.02 c 0 -0.016 -0.02 -0.02 -0.066 -0.02 c -0.051 0 -0.07 -0.004 -0.07 -0.02 c 0 -0.012 -0.012 -0.02 -0.039 -0.02 c -0.031 0 -0.039 -0.004 -0.039 -0.027 c 0 -0.016 -0.008 -0.027 -0.027 -0.027 c -0.016 0 -0.027 -0.008 -0.027 -0.02 c 0 -0.012 -0.012 -0.02 -0.039 -0.02 c -0.031 0 -0.039 -0.004 -0.039 -0.027 c 0 -0.012 -0.012 -0.023 -0.02 -0.023 c -0.012 0 -0.023 -0.012 -0.023 -0.02 c 0 -0.012 -0.008 -0.02 -0.02 -0.02 c -0.008 0 -0.02 -0.012 -0.02 -0.023 c 0 -0.008 -0.008 -0.02 -0.02 -0.02 c -0.012 0 -0.02 -0.012 -0.02 -0.023 c 0 -0.016 -0.008 -0.027 -0.02 -0.027 c -0.012 0 -0.02 -0.008 -0.02 -0.02 c 0 -0.012 -0.012 -0.02 -0.027 -0.02 c -0.02 0 -0.027 -0.012 -0.027 -0.027 c 0 -0.016 -0.008 -0.027 -0.02 -0.027 c -0.016 0 -0.02 -0.012 -0.02 -0.039 c 0 -0.027 -0.008 -0.039 -0.02 -0.039 c -0.016 0 -0.023 -0.016 -0.023 -0.047 c 0 -0.031 -0.004 -0.047 -0.02 -0.047 c -0.016 0 -0.02 -0.016 -0.02 -0.066 c 0 -0.051 -0.004 -0.066 -0.02 -0.066 c -0.016 0 -0.02 -0.02 -0.02 -0.094 c 0 -0.082 -0.004 -0.09 -0.027 -0.09 c -0.023 0 -0.027 -0.012 -0.027 -0.133 c 0 -0.125 0.004 -0.133 0.027 -0.133 c 0.023 0 0.027 -0.008 0.027 -0.086 c 0 -0.063 0.004 -0.086 0.02 -0.094 c 0.016 -0.004 0.02 -0.027 0.02 -0.074 c 0 -0.047 0.004 -0.066 0.02 -0.066 c 0.016 0 0.02 -0.012 0.02 -0.039 c 0 -0.027 0.008 -0.039 0.023 -0.039 c 0.012 0 0.02 -0.016 0.02 -0.047 c 0 -0.031 0.004 -0.047 0.02 -0.047 c 0.012 0 0.02 -0.012 0.02 -0.023 c 0 -0.02 0.008 -0.027 0.027 -0.027 c 0.016 0 0.027 -0.012 0.027 -0.02 c 0 -0.012 0.008 -0.02 0.02 -0.02 c 0.012 0 0.02 -0.012 0.02 -0.023 c 0 -0.008 0.008 -0.02 0.02 -0.02 c 0.012 0 0.02 -0.012 0.02 -0.023 c 0 -0.016 0.008 -0.027 0.02 -0.027 c 0.012 0 0.02 -0.008 0.02 -0.02 c 0 -0.012 0.012 -0.02 0.023 -0.02 c 0.008 0 0.02 -0.012 0.02 -0.027 c 0 -0.02 0.008 -0.027 0.039 -0.027 c 0.027 0 0.039 -0.008 0.039 -0.02 c 0 -0.012 0.012 -0.02 0.027 -0.02 c 0.016 0 0.027 -0.008 0.027 -0.02 c 0 -0.016 0.012 -0.02 0.039 -0.02 c 0.031 0 0.039 -0.008 0.039 -0.027 c 0 -0.023 0.012 -0.027 0.07 -0.027 c 0.047 0 0.066 -0.004 0.066 -0.02 c 0 -0.016 0.02 -0.02 0.121 -0.02 c 0.109 0 0.121 -0.004 0.129 -0.027 c 0.004 -0.02 0.016 -0.027 0.043 -0.027 c 0.031 0 0.039 0.008 0.039 0.027 c 0 0.023 0.008 0.027 0.129 0.027 c 0.102 0 0.125 0.004 0.125 0.02 c 0 0.016 0.016 0.02 0.059 0.02 c 0.055 0 0.063 0.004 0.063 0.027 c 0 0.02 0.008 0.027 0.047 0.027 c 0.031 0 0.047 0.004 0.047 0.02 c 0 0.012 0.008 0.02 0.02 0.02 c 0.012 0 0.02 0.008 0.02 0.02 c 0 0.012 0.012 0.02 0.039 0.02 c 0.031 0 0.043 0.008 0.043 0.027 c 0 0.016 0.008 0.027 0.023 0.027 c 0.016 0 0.027 0.008 0.027 0.02 c 0 0.012 0.012 0.02 0.02 0.02 c 0.012 0 0.023 0.012 0.023 0.027 c 0 0.012 0.008 0.023 0.02 0.023 c 0.008 0 0.02 0.012 0.02 0.02 c 0 0.012 0.008 0.023 0.02 0.023 c 0.008 0 0.023 0.016 0.027 0.039 c 0.004 0.02 0.012 0.039 0.02 0.039 c 0.008 0 0.012 0.012 0.012 0.027 c 0 0.016 0.012 0.023 0.027 0.023 c 0.023 0 0.027 0.012 0.027 0.047 c 0 0.035 0.008 0.047 0.02 0.047 c 0.016 0 0.02 0.016 0.02 0.047 c 0 0.031 0.008 0.047 0.02 0.047 c 0.016 0 0.023 0.016 0.023 0.066 c 0 0.051 0.004 0.066 0.02 0.066 c 0.016 0 0.02 0.039 0.02 0.266 c 0 0.227 -0.004 0.262 -0.02 0.262 c -0.016 0 -0.02 0.02 -0.02 0.066 c 0 0.051 -0.008 0.066 -0.023 0.066 c -0.012 0 -0.02 0.016 -0.02 0.047 c 0 0.035 -0.004 0.047 -0.02 0.047 c -0.012 0 -0.02 0.016 -0.02 0.047 c 0 0.039 -0.004 0.047 -0.027 0.047 c -0.016 0 -0.027 0.008 -0.027 0.027 c 0 0.012 -0.004 0.023 -0.012 0.023 c -0.008 0 -0.016 0.02 -0.02 0.043 c -0.004 0.02 -0.02 0.039 -0.027 0.039 c -0.012 0 -0.02 0.012 -0.02 0.027 c 0 0.012 -0.008 0.023 -0.02 0.023 c -0.012 0 -0.02 0.012 -0.02 0.02 c 0 0.012 -0.012 0.023 -0.023 0.023 c -0.008 0 -0.02 0.008 -0.02 0.02 c 0 0.008 -0.012 0.02 -0.027 0.02 c -0.016 0 -0.023 0.008 -0.023 0.027 c 0 0.02 -0.012 0.023 -0.043 0.023 c -0.027 0 -0.039 0.008 -0.039 0.02 c 0 0.012 -0.008 0.02 -0.02 0.02 c -0.012 0 -0.02 0.012 -0.02 0.027 c 0 0.023 -0.008 0.027 -0.047 0.027 c -0.035 0 -0.047 0.008 -0.047 0.02 c 0 0.016 -0.016 0.02 -0.063 0.02 c -0.043 0 -0.059 0.008 -0.059 0.02 c 0 0.016 -0.023 0.02 -0.125 0.02 c -0.121 0 -0.129 0.004 -0.129 0.027 c 0 0.02 -0.008 0.027 -0.039 0.027 c -0.027 0 -0.039 -0.008 -0.043 -0.027" fill="#00ff45"/><path d="m 3.762 11.797 c 0 -0.016 -0.02 -0.02 -0.078 -0.02 c -0.074 0 -0.082 -0.004 -0.082 -0.027 c 0 -0.02 -0.008 -0.023 -0.047 -0.023 c -0.031 0 -0.047 -0.008 -0.047 -0.023 c 0 -0.012 -0.012 -0.02 -0.039 -0.02 c -0.031 0 -0.039 -0.004 -0.039 -0.023 c 0 -0.016 -0.012 -0.027 -0.023 -0.027 c -0.008 0 -0.02 -0.012 -0.02 -0.02 c 0 -0.016 -0.012 -0.02 -0.047 -0.02 c -0.031 0 -0.047 -0.008 -0.047 -0.023 c 0 -0.008 -0.008 -0.02 -0.02 -0.02 c -0.012 0 -0.02 -0.012 -0.02 -0.023 c 0 -0.016 -0.008 -0.027 -0.02 -0.027 c -0.012 0 -0.02 -0.008 -0.02 -0.02 c 0 -0.012 -0.008 -0.02 -0.02 -0.02 c -0.012 0 -0.02 -0.012 -0.02 -0.027 c 0 -0.016 -0.012 -0.027 -0.023 -0.027 c -0.008 0 -0.02 -0.008 -0.02 -0.02 c 0 -0.012 -0.012 -0.02 -0.027 -0.02 c -0.02 0 -0.023 -0.008 -0.023 -0.047 c 0 -0.031 -0.008 -0.047 -0.023 -0.047 c -0.012 0 -0.02 -0.012 -0.02 -0.047 c 0 -0.031 -0.004 -0.047 -0.02 -0.047 c -0.012 0 -0.02 -0.012 -0.02 -0.039 c 0 -0.027 -0.008 -0.039 -0.02 -0.039 c -0.016 0 -0.02 -0.02 -0.02 -0.094 c 0 -0.07 -0.004 -0.09 -0.02 -0.09 c -0.02 0 -0.02 -0.324 -0.02 -2.816 c 0 -2.137 0 -2.812 0.016 -2.816 c 0.008 -0.004 0.016 -0.043 0.02 -0.09 c 0.004 -0.055 0.012 -0.082 0.023 -0.082 c 0.012 0 0.02 -0.016 0.02 -0.043 c 0 -0.035 0.008 -0.047 0.02 -0.047 c 0.016 0 0.02 -0.016 0.02 -0.047 c 0 -0.035 0.008 -0.047 0.02 -0.047 c 0.016 0 0.023 -0.012 0.023 -0.039 c 0 -0.031 0.004 -0.039 0.023 -0.039 c 0.02 0 0.027 -0.012 0.027 -0.027 c 0 -0.016 0.012 -0.027 0.02 -0.027 c 0.012 0 0.023 -0.008 0.023 -0.02 c 0 -0.012 0.008 -0.02 0.02 -0.02 c 0.012 0 0.02 -0.012 0.02 -0.027 c 0 -0.016 0.008 -0.027 0.02 -0.027 c 0.012 0 0.02 -0.008 0.02 -0.02 c 0 -0.012 0.008 -0.02 0.02 -0.02 c 0.012 0 0.02 -0.008 0.02 -0.02 c 0 -0.008 0.02 -0.02 0.043 -0.023 c 0.023 -0.004 0.039 -0.016 0.039 -0.027 c 0 -0.012 0.012 -0.023 0.027 -0.023 c 0.012 0 0.027 -0.008 0.027 -0.02 c 0 -0.012 0.012 -0.02 0.039 -0.02 c 0.031 0 0.039 -0.004 0.039 -0.027 c 0 -0.02 0.008 -0.023 0.047 -0.023 c 0.031 0 0.047 -0.008 0.047 -0.02 c 0 -0.016 0.016 -0.023 0.059 -0.023 c 0.047 0 0.063 -0.004 0.063 -0.02 c 0 -0.016 0.027 -0.02 0.168 -0.02 c 0.156 0 0.168 0 0.176 -0.027 c 0.004 -0.023 0.016 -0.023 3.828 -0.023 c 3.813 0 3.824 0 3.832 0.023 c 0.008 0.027 0.02 0.027 0.176 0.027 c 0.141 0 0.168 0.004 0.168 0.02 c 0 0.016 0.016 0.02 0.059 0.02 c 0.047 0 0.063 0.008 0.063 0.023 c 0 0.012 0.012 0.02 0.039 0.02 c 0.031 0 0.039 0.004 0.039 0.023 c 0 0.023 0.008 0.027 0.047 0.027 c 0.031 0 0.047 0.008 0.047 0.02 c 0 0.012 0.012 0.02 0.027 0.02 c 0.016 0 0.027 0.012 0.027 0.02 c 0 0.012 0.016 0.023 0.031 0.031 c 0.02 0.004 0.035 0.016 0.035 0.023 c 0 0.012 0.012 0.02 0.027 0.02 c 0.012 0 0.023 0.008 0.023 0.02 c 0 0.012 0.012 0.02 0.023 0.02 c 0.008 0 0.02 0.012 0.02 0.027 c 0 0.016 0.008 0.027 0.02 0.027 c 0.012 0 0.02 0.008 0.02 0.02 c 0 0.012 0.008 0.02 0.02 0.02 c 0.012 0 0.02 0.012 0.02 0.027 c 0 0.016 0.012 0.027 0.02 0.027 c 0.016 0 0.023 0.012 0.023 0.039 c 0 0.031 0.004 0.039 0.023 0.039 c 0.023 0 0.027 0.008 0.027 0.047 c 0 0.031 0.008 0.047 0.02 0.047 c 0.016 0 0.023 0.012 0.023 0.047 c 0 0.031 0.004 0.043 0.02 0.043 c 0.016 0 0.02 0.02 0.02 0.094 c 0 0.074 0.004 0.094 0.02 0.094 c 0.016 0 0.02 0.32 0.02 2.809 c 0 2.484 -0.004 2.809 -0.02 2.809 c -0.016 0 -0.02 0.016 -0.02 0.09 c 0 0.074 -0.004 0.094 -0.02 0.094 c -0.016 0 -0.02 0.012 -0.02 0.039 c 0 0.027 -0.008 0.039 -0.023 0.039 c -0.012 0 -0.02 0.016 -0.02 0.047 c 0 0.039 -0.004 0.047 -0.027 0.047 c -0.02 0 -0.023 0.008 -0.023 0.047 c 0 0.031 -0.008 0.047 -0.023 0.047 c -0.008 0 -0.02 0.008 -0.02 0.02 c 0 0.012 -0.008 0.02 -0.02 0.02 c -0.012 0 -0.02 0.012 -0.02 0.027 c 0 0.016 -0.008 0.027 -0.02 0.027 c -0.012 0 -0.02 0.008 -0.02 0.02 c 0 0.008 -0.012 0.02 -0.02 0.02 c -0.012 0 -0.023 0.012 -0.023 0.027 c 0 0.016 -0.008 0.023 -0.023 0.023 c -0.016 0 -0.027 0.012 -0.027 0.02 c 0 0.016 -0.016 0.02 -0.039 0.02 c -0.027 0 -0.043 0.008 -0.043 0.023 c 0 0.008 -0.008 0.02 -0.02 0.02 c -0.012 0 -0.02 0.012 -0.02 0.023 c 0 0.023 -0.008 0.027 -0.047 0.027 c -0.031 0 -0.047 0.008 -0.047 0.02 c 0 0.016 -0.012 0.02 -0.039 0.02 c -0.031 0 -0.039 0.008 -0.039 0.027 c 0 0.023 -0.012 0.027 -0.082 0.027 c -0.063 0 -0.078 0.004 -0.078 0.02 c 0 0.02 -0.469 0.02 -4.137 0.02 c -3.664 0 -4.133 0 -4.133 -0.02 m 2.605 -0.223 c 0 -0.012 0.008 -0.023 0.02 -0.023 c 0.016 0 0.02 -0.012 0.02 -0.043 c 0 -0.035 -0.004 -0.047 -0.02 -0.047 c -0.012 0 -0.02 -0.012 -0.02 -0.027 c 0 -0.02 -0.008 -0.027 -0.039 -0.027 c -0.027 0 -0.043 -0.008 -0.043 -0.02 c 0 -0.016 -0.016 -0.02 -0.07 -0.02 c -0.059 0 -0.074 -0.004 -0.074 -0.02 c 0 -0.016 -0.016 -0.02 -0.063 -0.02 c -0.039 0 -0.059 -0.008 -0.059 -0.02 c 0 -0.02 -0.039 -0.035 -0.09 -0.035 c -0.02 0 -0.031 -0.008 -0.031 -0.02 c 0 -0.016 -0.016 -0.02 -0.066 -0.02 c -0.059 0 -0.066 -0.004 -0.066 -0.027 c 0 -0.02 -0.008 -0.027 -0.039 -0.027 c -0.027 0 -0.043 -0.004 -0.043 -0.02 c 0 -0.012 -0.012 -0.02 -0.039 -0.02 c -0.027 0 -0.039 -0.004 -0.039 -0.02 c 0 -0.012 -0.016 -0.02 -0.047 -0.02 c -0.039 0 -0.047 -0.004 -0.047 -0.027 c 0 -0.02 -0.008 -0.023 -0.039 -0.023 c -0.027 0 -0.043 -0.008 -0.043 -0.023 c 0 -0.012 -0.012 -0.02 -0.043 -0.02 c -0.039 0 -0.047 -0.004 -0.047 -0.023 c 0 -0.016 -0.012 -0.027 -0.023 -0.027 c -0.008 0 -0.02 -0.012 -0.02 -0.02 c 0 -0.016 -0.012 -0.02 -0.039 -0.02 c -0.027 0 -0.039 -0.008 -0.039 -0.02 c 0 -0.012 -0.012 -0.023 -0.02 -0.023 c -0.012 0 -0.023 -0.012 -0.023 -0.023 c 0 -0.023 -0.008 -0.027 -0.043 -0.027 c -0.035 0 -0.047 -0.008 -0.047 -0.02 c 0 -0.012 -0.012 -0.02 -0.023 -0.02 c -0.008 0 -0.02 -0.012 -0.02 -0.027 c 0 -0.016 -0.008 -0.027 -0.02 -0.027 c -0.012 0 -0.02 -0.008 -0.02 -0.02 c 0 -0.012 -0.008 -0.02 -0.02 -0.02 c -0.012 0 -0.02 -0.008 -0.02 -0.02 c 0 -0.012 -0.008 -0.02 -0.02 -0.02 c -0.012 0 -0.023 -0.012 -0.027 -0.027 c -0.004 -0.02 -0.016 -0.027 -0.047 -0.027 c -0.027 0 -0.039 -0.004 -0.039 -0.02 c 0 -0.012 -0.012 -0.02 -0.023 -0.02 c -0.008 0 -0.02 -0.012 -0.02 -0.027 c 0 -0.016 -0.008 -0.027 -0.02 -0.027 c -0.012 0 -0.02 -0.008 -0.02 -0.02 c 0 -0.008 -0.008 -0.02 -0.02 -0.02 c -0.016 0 -0.02 -0.012 -0.02 -0.039 c 0 -0.031 -0.008 -0.043 -0.027 -0.047 c -0.016 -0.004 -0.027 -0.016 -0.027 -0.027 c 0 -0.012 -0.008 -0.02 -0.02 -0.02 c -0.012 0 -0.02 -0.012 -0.02 -0.023 c 0 -0.016 -0.008 -0.027 -0.02 -0.027 c -0.012 0 -0.02 -0.008 -0.02 -0.02 c 0 -0.012 -0.012 -0.02 -0.02 -0.02 c -0.012 0 -0.023 -0.02 -0.027 -0.043 c -0.008 -0.02 -0.016 -0.039 -0.023 -0.039 c -0.008 0 -0.012 -0.012 -0.012 -0.027 c 0 -0.016 -0.008 -0.023 -0.027 -0.023 c -0.02 0 -0.027 -0.012 -0.027 -0.047 c 0 -0.031 -0.004 -0.047 -0.02 -0.047 c -0.012 0 -0.02 -0.008 -0.02 -0.02 c 0 -0.012 -0.008 -0.02 -0.02 -0.02 c -0.016 0 -0.02 -0.016 -0.02 -0.047 c 0 -0.031 -0.008 -0.047 -0.02 -0.047 c -0.016 0 -0.02 -0.016 -0.02 -0.047 c 0 -0.031 -0.008 -0.047 -0.023 -0.047 c -0.012 0 -0.02 -0.012 -0.02 -0.039 c 0 -0.023 -0.008 -0.043 -0.02 -0.047 c -0.012 -0.004 -0.02 -0.027 -0.02 -0.055 c 0 -0.035 -0.004 -0.043 -0.027 -0.043 c -0.02 0 -0.027 -0.008 -0.027 -0.039 c 0 -0.027 -0.004 -0.043 -0.02 -0.043 c -0.016 0 -0.02 -0.016 -0.02 -0.07 c 0 -0.055 -0.004 -0.074 -0.02 -0.074 c -0.012 0 -0.02 -0.02 -0.023 -0.055 c -0.004 -0.031 -0.016 -0.059 -0.023 -0.063 c -0.008 0 -0.012 -0.035 -0.012 -0.074 c 0 -0.055 -0.008 -0.074 -0.023 -0.074 c -0.016 0 -0.02 -0.02 -0.02 -0.09 c 0 -0.086 0 -0.094 -0.027 -0.094 c -0.023 0 -0.023 -0.008 -0.023 -0.113 c 0 -0.09 -0.004 -0.113 -0.023 -0.113 c -0.016 0 -0.02 -0.027 -0.02 -0.176 c 0 -0.152 -0.004 -0.18 -0.02 -0.18 c -0.016 0 -0.02 -0.059 -0.02 -0.445 c 0 -0.387 0.004 -0.441 0.02 -0.441 c 0.02 0 0.02 -0.035 0.02 -0.227 c 0 -0.191 0.004 -0.227 0.02 -0.227 c 0.02 0 0.023 -0.023 0.023 -0.137 c 0 -0.133 0 -0.141 0.023 -0.141 c 0.027 0 0.027 -0.008 0.027 -0.133 c 0 -0.109 0.004 -0.133 0.02 -0.133 c 0.016 0 0.023 -0.02 0.023 -0.09 c 0 -0.063 0.004 -0.094 0.016 -0.098 c 0.008 -0.004 0.016 -0.043 0.02 -0.113 c 0.004 -0.082 0.012 -0.109 0.023 -0.109 c 0.016 0 0.02 -0.02 0.02 -0.086 c 0 -0.066 0.004 -0.086 0.02 -0.086 c 0.016 0 0.02 -0.02 0.02 -0.094 v -0.09 h -0.039 c -0.031 0 -0.039 -0.008 -0.039 -0.027 c 0 -0.02 -0.008 -0.027 -0.027 -0.027 c -0.02 0 -0.027 0.008 -0.027 0.027 c 0 0.016 -0.008 0.027 -0.02 0.027 c -0.012 0 -0.02 0.012 -0.02 0.039 c 0 0.027 -0.008 0.039 -0.02 0.039 c -0.016 0 -0.02 0.02 -0.02 0.094 c 0 0.074 -0.004 0.09 -0.023 0.09 c -0.016 0 -0.02 0.02 -0.02 0.094 c 0 0.074 -0.004 0.094 -0.02 0.094 c -0.016 0 -0.02 0.02 -0.02 0.113 c 0 0.102 -0.004 0.113 -0.027 0.113 c -0.023 0 -0.027 0.008 -0.027 0.109 c 0 0.094 -0.004 0.113 -0.02 0.113 c -0.016 0 -0.02 0.023 -0.02 0.133 c 0 0.109 -0.004 0.133 -0.02 0.133 c -0.016 0 -0.02 0.031 -0.02 0.207 c 0 0.172 -0.004 0.203 -0.02 0.203 c -0.02 0 -0.02 0.078 -0.02 0.609 c 0 0.531 0 0.609 0.02 0.609 c 0.016 0 0.02 0.027 0.02 0.16 c 0 0.133 0.004 0.156 0.02 0.156 c 0.016 0 0.02 0.023 0.02 0.113 c 0 0.094 0.004 0.113 0.02 0.113 c 0.016 0 0.02 0.02 0.02 0.086 c 0 0.078 0.004 0.086 0.027 0.086 c 0.023 0 0.027 0.008 0.027 0.066 c 0 0.051 0.004 0.066 0.02 0.066 c 0.016 0 0.02 0.016 0.02 0.074 c 0 0.055 0.004 0.07 0.02 0.07 c 0.016 0 0.023 0.016 0.023 0.066 c 0 0.051 0.004 0.066 0.02 0.066 c 0.012 0 0.02 0.016 0.02 0.047 c 0 0.031 0.004 0.047 0.02 0.047 c 0.012 0 0.02 0.012 0.02 0.039 c 0 0.027 0.008 0.039 0.02 0.039 c 0.016 0 0.02 0.016 0.02 0.047 c 0 0.039 0.008 0.047 0.027 0.047 c 0.023 0 0.027 0.008 0.027 0.047 c 0 0.031 0.008 0.047 0.02 0.047 c 0.016 0 0.02 0.012 0.02 0.047 c 0 0.031 0.008 0.047 0.02 0.047 c 0.012 0 0.023 0.016 0.027 0.039 c 0.008 0.02 0.016 0.039 0.023 0.039 c 0.004 0 0.012 0.012 0.012 0.027 c 0 0.012 0.008 0.023 0.02 0.023 c 0.008 0 0.023 0.02 0.027 0.043 c 0.004 0.02 0.016 0.039 0.027 0.039 c 0.012 0 0.02 0.012 0.02 0.027 c 0 0.012 0.008 0.023 0.02 0.023 c 0.012 0 0.02 0.012 0.02 0.027 c 0 0.016 0.008 0.027 0.02 0.027 c 0.012 0 0.02 0.008 0.02 0.02 c 0 0.012 0.012 0.02 0.02 0.02 c 0.012 0 0.023 0.02 0.027 0.039 c 0.008 0.023 0.016 0.043 0.023 0.043 c 0.004 0 0.012 0.012 0.012 0.023 c 0 0.02 0.008 0.027 0.027 0.027 c 0.016 0 0.027 0.008 0.027 0.027 c 0 0.016 0.008 0.027 0.02 0.027 c 0.008 0 0.02 0.008 0.02 0.02 c 0 0.012 0.008 0.02 0.02 0.02 c 0.012 0 0.02 0.008 0.02 0.02 c 0 0.012 0.008 0.02 0.02 0.02 c 0.012 0 0.02 0.012 0.02 0.027 c 0 0.016 0.012 0.027 0.02 0.027 c 0.012 0 0.023 0.008 0.023 0.02 c 0 0.008 0.008 0.02 0.016 0.02 c 0.012 0 0.023 0.012 0.027 0.027 c 0.004 0.012 0.016 0.023 0.027 0.023 c 0.012 0 0.023 0.012 0.023 0.02 c 0 0.016 0.012 0.02 0.039 0.02 c 0.027 0 0.039 0.008 0.039 0.023 c 0 0.008 0.008 0.02 0.02 0.02 c 0.012 0 0.02 0.012 0.02 0.023 c 0 0.016 0.012 0.027 0.02 0.027 c 0.012 0 0.023 0.012 0.023 0.02 c 0 0.016 0.012 0.02 0.047 0.02 c 0.035 0 0.047 0.008 0.047 0.027 c 0 0.016 0.008 0.027 0.02 0.027 c 0.008 0 0.02 0.008 0.02 0.02 c 0 0.012 0.012 0.02 0.039 0.02 c 0.027 0 0.039 0.008 0.039 0.02 c 0 0.012 0.012 0.02 0.027 0.02 c 0.016 0 0.027 0.008 0.027 0.02 c 0 0.012 0.02 0.023 0.039 0.027 c 0.023 0.004 0.039 0.02 0.039 0.027 c 0 0.012 0.016 0.02 0.043 0.02 c 0.031 0 0.039 0.008 0.039 0.027 c 0 0.02 0.008 0.027 0.047 0.027 c 0.031 0 0.047 0.004 0.047 0.02 c 0 0.012 0.012 0.02 0.039 0.02 c 0.027 0 0.039 0.008 0.039 0.02 c 0 0.012 0.016 0.02 0.047 0.02 c 0.031 0 0.047 0.008 0.047 0.02 c 0 0.02 0.039 0.031 0.09 0.035 c 0.02 0 0.031 0.008 0.031 0.02 c 0 0.012 0.016 0.02 0.066 0.02 c 0.059 0 0.066 0.004 0.066 0.027 c 0 0.02 0.012 0.023 0.063 0.023 c 0.043 0 0.059 0.008 0.059 0.02 c 0 0.016 0.016 0.02 0.066 0.02 c 0.051 0 0.066 0.008 0.066 0.023 c 0 0.016 0.02 0.02 0.09 0.02 c 0.066 0 0.086 -0.004 0.086 -0.02 m 2.844 -0.043 c 0 -0.016 0.031 -0.02 0.195 -0.02 c 0.184 0 0.191 0 0.191 -0.027 c 0 -0.023 0.012 -0.023 0.109 -0.023 c 0.086 0 0.105 -0.004 0.105 -0.02 c 0 -0.016 0.016 -0.02 0.059 -0.02 c 0.074 0 0.102 -0.012 0.102 -0.035 c 0 -0.016 0.02 -0.02 0.066 -0.02 c 0.051 0 0.066 -0.004 0.066 -0.02 c 0 -0.016 0.016 -0.02 0.047 -0.02 c 0.035 0 0.047 -0.008 0.047 -0.02 c 0 -0.016 0.016 -0.02 0.043 -0.02 c 0.027 0 0.039 -0.008 0.039 -0.027 c 0 -0.023 0.008 -0.027 0.047 -0.027 c 0.031 0 0.047 -0.008 0.047 -0.02 c 0 -0.012 0.012 -0.02 0.039 -0.02 c 0.031 0 0.039 -0.008 0.039 -0.027 c 0 -0.016 0.008 -0.027 0.02 -0.027 c 0.012 0 0.02 -0.008 0.02 -0.02 c 0 -0.012 0.016 -0.02 0.043 -0.02 c 0.027 0 0.039 -0.008 0.039 -0.02 c 0 -0.012 0.012 -0.02 0.027 -0.02 c 0.016 0 0.027 -0.008 0.027 -0.027 c 0 -0.016 0.008 -0.027 0.02 -0.027 c 0.012 0 0.02 -0.008 0.02 -0.02 c 0 -0.012 0.008 -0.02 0.02 -0.02 c 0.012 0 0.02 -0.012 0.02 -0.027 c 0 -0.012 0.008 -0.023 0.02 -0.023 c 0.016 0 0.02 -0.016 0.02 -0.043 c 0 -0.023 0.008 -0.039 0.023 -0.039 c 0.008 0 0.02 -0.012 0.02 -0.027 c 0 -0.016 0.008 -0.023 0.027 -0.023 c 0.016 0 0.023 -0.012 0.023 -0.027 c 0 -0.016 0.008 -0.027 0.016 -0.027 c 0.004 0 0.016 -0.016 0.02 -0.039 c 0.004 -0.023 0.016 -0.039 0.027 -0.039 c 0.012 0 0.02 -0.016 0.02 -0.047 c 0 -0.031 0.004 -0.047 0.02 -0.047 c 0.016 0 0.02 -0.016 0.02 -0.066 c 0 -0.051 0.004 -0.066 0.02 -0.066 c 0.016 0 0.02 -0.016 0.02 -0.066 c 0 -0.059 0.004 -0.066 0.027 -0.066 c 0.027 0 0.027 -0.008 0.027 -0.094 c 0 -0.07 0.004 -0.09 0.02 -0.09 c 0.02 0 0.02 -0.031 0.02 -0.18 c 0 -0.129 0.008 -0.18 0.02 -0.184 c 0.012 -0.004 0.016 -0.066 0.02 -0.246 c 0.004 -0.207 0 -0.242 -0.016 -0.246 c -0.02 -0.008 -0.023 -0.043 -0.023 -0.254 c 0 -0.207 0 -0.242 -0.02 -0.242 c -0.016 0 -0.02 -0.023 -0.02 -0.133 c 0 -0.141 -0.004 -0.172 -0.035 -0.172 c -0.012 0 -0.02 -0.027 -0.02 -0.121 c 0 -0.094 0 -0.117 -0.02 -0.117 c -0.016 0 -0.02 -0.02 -0.02 -0.113 c 0 -0.09 -0.004 -0.113 -0.02 -0.113 c -0.016 0 -0.02 -0.016 -0.02 -0.086 c 0 -0.063 -0.004 -0.086 -0.02 -0.094 c -0.016 -0.004 -0.02 -0.027 -0.02 -0.07 c 0 -0.051 -0.008 -0.066 -0.02 -0.066 c -0.016 0 -0.023 -0.016 -0.023 -0.066 c 0 -0.059 -0.004 -0.066 -0.023 -0.066 c -0.023 0 -0.027 -0.008 -0.027 -0.066 c 0 -0.051 -0.008 -0.066 -0.02 -0.066 c -0.016 0 -0.023 -0.016 -0.023 -0.066 c 0 -0.051 -0.004 -0.066 -0.02 -0.066 c -0.012 0 -0.02 -0.012 -0.02 -0.047 c 0 -0.031 -0.004 -0.047 -0.02 -0.047 c -0.016 0 -0.02 -0.016 -0.02 -0.066 c 0 -0.047 -0.004 -0.063 -0.02 -0.063 c -0.016 0 -0.02 -0.016 -0.02 -0.047 c 0 -0.039 -0.008 -0.047 -0.027 -0.047 c -0.023 0 -0.027 -0.008 -0.027 -0.047 c 0 -0.031 -0.008 -0.047 -0.02 -0.047 c -0.016 0 -0.02 -0.016 -0.02 -0.047 c 0 -0.031 -0.008 -0.047 -0.02 -0.047 c -0.016 0 -0.023 -0.012 -0.023 -0.039 c 0 -0.027 -0.004 -0.039 -0.02 -0.039 c -0.012 0 -0.02 -0.012 -0.02 -0.027 c 0 -0.016 -0.008 -0.027 -0.02 -0.027 c -0.016 0 -0.02 -0.012 -0.02 -0.043 c 0 -0.035 -0.008 -0.047 -0.02 -0.047 c -0.012 0 -0.02 -0.012 -0.02 -0.02 c 0 -0.012 -0.012 -0.023 -0.027 -0.023 c -0.023 0 -0.027 -0.008 -0.027 -0.043 c 0 -0.035 -0.008 -0.047 -0.02 -0.047 c -0.012 0 -0.02 -0.012 -0.02 -0.02 c 0 -0.012 -0.012 -0.02 -0.02 -0.02 c -0.016 0 -0.023 -0.016 -0.023 -0.047 c 0 -0.035 -0.004 -0.047 -0.02 -0.047 c -0.012 0 -0.02 -0.012 -0.02 -0.027 c 0 -0.016 -0.008 -0.027 -0.02 -0.027 c -0.012 0 -0.02 -0.008 -0.02 -0.02 c 0 -0.012 -0.012 -0.02 -0.027 -0.02 c -0.016 0 -0.027 -0.008 -0.027 -0.02 c 0 -0.012 -0.008 -0.02 -0.02 -0.02 c -0.016 0 -0.02 -0.016 -0.02 -0.047 c 0 -0.031 -0.008 -0.047 -0.02 -0.047 c -0.012 0 -0.02 -0.012 -0.02 -0.027 c 0 -0.012 -0.012 -0.023 -0.02 -0.023 c -0.012 0 -0.023 -0.012 -0.023 -0.023 c 0 -0.008 -0.008 -0.02 -0.02 -0.02 c -0.012 0 -0.02 -0.008 -0.02 -0.02 c 0 -0.012 -0.012 -0.02 -0.027 -0.02 c -0.016 0 -0.027 -0.008 -0.027 -0.027 c 0 -0.012 -0.008 -0.023 -0.02 -0.023 c -0.012 0 -0.02 -0.012 -0.02 -0.02 c 0 -0.012 -0.008 -0.023 -0.02 -0.023 c -0.012 0 -0.02 -0.012 -0.02 -0.023 c 0 -0.016 -0.008 -0.027 -0.02 -0.027 c -0.012 0 -0.023 -0.008 -0.027 -0.02 c -0.004 -0.012 -0.02 -0.02 -0.039 -0.02 c -0.023 0 -0.035 -0.008 -0.035 -0.02 c 0 -0.012 -0.012 -0.02 -0.027 -0.02 c -0.016 0 -0.027 -0.012 -0.027 -0.027 c 0 -0.016 -0.008 -0.027 -0.02 -0.027 c -0.012 0 -0.02 -0.008 -0.02 -0.02 c 0 -0.012 -0.008 -0.02 -0.02 -0.02 c -0.008 0 -0.02 -0.012 -0.023 -0.027 c -0.004 -0.02 -0.02 -0.027 -0.043 -0.027 c -0.02 0 -0.035 -0.008 -0.035 -0.02 c 0 -0.012 -0.012 -0.02 -0.023 -0.02 c -0.016 0 -0.027 -0.008 -0.027 -0.02 c 0 -0.012 -0.016 -0.02 -0.043 -0.02 c -0.031 0 -0.039 -0.008 -0.039 -0.027 c 0 -0.016 -0.008 -0.027 -0.02 -0.027 c -0.012 0 -0.02 -0.008 -0.02 -0.02 c 0 -0.012 -0.016 -0.02 -0.047 -0.02 c -0.039 0 -0.047 -0.004 -0.047 -0.027 c 0 -0.02 -0.008 -0.023 -0.039 -0.023 c -0.027 0 -0.039 -0.008 -0.039 -0.023 c 0 -0.012 -0.016 -0.02 -0.043 -0.02 c -0.027 0 -0.039 -0.004 -0.039 -0.02 c 0 -0.012 -0.016 -0.02 -0.047 -0.02 c -0.039 0 -0.047 -0.004 -0.047 -0.027 c 0 -0.02 -0.008 -0.023 -0.039 -0.023 c -0.027 0 -0.039 -0.008 -0.039 -0.02 c 0 -0.016 -0.02 -0.023 -0.07 -0.023 c -0.055 0 -0.066 0 -0.066 -0.023 c 0 -0.023 -0.008 -0.027 -0.039 -0.027 c -0.027 0 -0.039 -0.008 -0.039 -0.02 c 0 -0.016 -0.02 -0.02 -0.086 -0.02 c -0.07 0 -0.09 -0.004 -0.09 -0.02 c 0 -0.016 -0.016 -0.02 -0.059 -0.02 c -0.051 0 -0.059 -0.004 -0.059 -0.027 c 0 -0.023 -0.012 -0.027 -0.109 -0.027 c -0.086 0 -0.105 -0.004 -0.105 -0.02 c 0 -0.016 -0.023 -0.02 -0.133 -0.02 c -0.105 0 -0.137 -0.004 -0.137 -0.02 c 0 -0.027 -0.043 -0.035 -0.254 -0.035 c -0.168 0 -0.199 -0.004 -0.199 -0.02 c 0 -0.02 -0.07 -0.02 -0.637 -0.016 c -0.492 0.004 -0.637 0.008 -0.641 0.02 c -0.004 0.012 -0.043 0.016 -0.141 0.016 c -0.121 0 -0.129 0.004 -0.129 0.027 c 0 0.023 -0.012 0.027 -0.109 0.027 c -0.086 0 -0.105 0.004 -0.105 0.02 c 0 0.016 -0.016 0.02 -0.063 0.02 c -0.051 0 -0.059 0.004 -0.059 0.027 c 0 0.023 -0.008 0.027 -0.066 0.027 c -0.051 0 -0.066 0.004 -0.066 0.02 c 0 0.012 -0.016 0.02 -0.039 0.02 c -0.027 0 -0.043 0.004 -0.043 0.02 c 0 0.012 -0.012 0.02 -0.039 0.02 c -0.031 0 -0.039 0.004 -0.039 0.027 c 0 0.02 -0.008 0.023 -0.047 0.023 c -0.031 0 -0.047 0.008 -0.047 0.02 c 0 0.012 -0.02 0.023 -0.039 0.027 c -0.023 0.008 -0.043 0.02 -0.043 0.027 c 0 0.012 -0.008 0.02 -0.02 0.02 c -0.012 0 -0.02 0.012 -0.02 0.02 c 0 0.012 -0.012 0.02 -0.027 0.02 c -0.012 0 -0.027 0.012 -0.027 0.02 c 0 0.012 -0.008 0.023 -0.02 0.023 c -0.012 0 -0.02 0.012 -0.02 0.023 c 0 0.016 -0.008 0.027 -0.02 0.027 c -0.012 0 -0.02 0.008 -0.02 0.02 c 0 0.012 -0.008 0.02 -0.02 0.02 c -0.012 0 -0.02 0.012 -0.02 0.027 c 0 0.016 -0.012 0.027 -0.02 0.027 c -0.012 0 -0.023 0.012 -0.023 0.027 c 0 0.012 -0.008 0.023 -0.02 0.023 c -0.012 0 -0.023 0.02 -0.027 0.043 c -0.004 0.02 -0.016 0.039 -0.027 0.039 c -0.012 0 -0.02 0.016 -0.02 0.047 c 0 0.031 -0.004 0.047 -0.02 0.047 c -0.012 0 -0.02 0.012 -0.02 0.039 c 0 0.027 -0.008 0.039 -0.02 0.039 c -0.016 0 -0.02 0.016 -0.02 0.074 c 0 0.055 -0.004 0.07 -0.02 0.07 c -0.016 0 -0.02 0.02 -0.02 0.086 c 0 0.07 -0.004 0.086 -0.023 0.086 c -0.016 0 -0.02 0.027 -0.02 0.168 c 0 0.133 -0.004 0.164 -0.016 0.164 c -0.031 0 -0.035 0.031 -0.035 0.285 c 0 0.234 0 0.246 0.027 0.246 c 0.023 0 0.023 0.008 0.023 0.25 c 0 0.215 0.004 0.254 0.02 0.254 c 0.02 0 0.023 0.023 0.023 0.156 c 0 0.133 0 0.16 0.02 0.16 c 0.016 0 0.02 0.027 0.02 0.152 c 0 0.121 0.004 0.152 0.02 0.152 c 0.012 0 0.02 0.027 0.023 0.125 c 0 0.074 0.008 0.133 0.02 0.137 c 0.008 0.004 0.016 0.055 0.02 0.113 c 0.004 0.066 0.012 0.109 0.02 0.113 c 0.012 0 0.02 0.031 0.02 0.074 c 0 0.066 0.004 0.074 0.023 0.074 c 0.027 0 0.027 0.008 0.027 0.09 c 0 0.074 0.004 0.094 0.02 0.094 c 0.016 0 0.023 0.016 0.023 0.066 c 0 0.051 0.004 0.066 0.02 0.066 c 0.016 0 0.02 0.016 0.02 0.066 c 0 0.051 0.004 0.066 0.02 0.066 c 0.016 0 0.02 0.016 0.02 0.047 c 0 0.031 0.008 0.047 0.02 0.047 c 0.016 0 0.02 0.016 0.02 0.066 c 0 0.055 0.004 0.066 0.027 0.066 c 0.023 0 0.027 0.008 0.027 0.047 c 0 0.031 0.008 0.043 0.02 0.043 c 0.016 0 0.02 0.016 0.02 0.043 c 0 0.023 0.008 0.039 0.02 0.039 c 0.016 0 0.023 0.012 0.023 0.047 c 0 0.031 0.004 0.047 0.02 0.047 c 0.012 0 0.02 0.012 0.02 0.043 c 0 0.035 0.004 0.047 0.02 0.047 c 0.016 0 0.02 0.016 0.02 0.047 c 0 0.039 0.004 0.047 0.027 0.047 c 0.016 0 0.027 0.008 0.027 0.02 c 0 0.012 0.008 0.02 0.02 0.02 c 0.016 0 0.02 0.016 0.02 0.047 c 0 0.031 0.008 0.047 0.02 0.047 c 0.016 0 0.02 0.016 0.02 0.047 c 0 0.031 0.008 0.047 0.023 0.047 c 0.008 0 0.02 0.008 0.02 0.02 c 0 0.012 0.008 0.02 0.02 0.02 c 0.012 0 0.02 0.012 0.02 0.027 c 0 0.012 0.008 0.023 0.02 0.023 c 0.012 0 0.02 0.016 0.02 0.043 c 0 0.031 0.008 0.039 0.027 0.039 c 0.02 0 0.027 0.008 0.027 0.027 c 0 0.012 0.008 0.023 0.02 0.023 c 0.012 0 0.02 0.012 0.02 0.02 c 0 0.012 0.008 0.023 0.02 0.023 c 0.012 0 0.02 0.012 0.02 0.023 c 0 0.016 0.012 0.027 0.02 0.027 c 0.012 0 0.023 0.02 0.027 0.039 c 0.008 0.023 0.016 0.039 0.023 0.039 c 0.004 0 0.012 0.012 0.012 0.027 c 0 0.02 0.008 0.027 0.027 0.027 c 0.016 0 0.027 0.008 0.027 0.02 c 0 0.012 0.008 0.02 0.02 0.02 c 0.012 0 0.02 0.012 0.02 0.027 c 0 0.016 0.008 0.027 0.02 0.027 c 0.012 0 0.02 0.008 0.02 0.02 c 0 0.012 0.008 0.02 0.02 0.02 c 0.012 0 0.02 0.008 0.02 0.02 c 0 0.012 0.012 0.02 0.02 0.02 c 0.012 0 0.023 0.012 0.027 0.027 c 0.004 0.02 0.016 0.027 0.047 0.027 c 0.027 0 0.043 0.004 0.043 0.02 c 0 0.012 0.008 0.02 0.02 0.02 c 0.012 0 0.02 0.012 0.02 0.027 c 0 0.012 0.008 0.023 0.02 0.023 c 0.012 0 0.02 0.012 0.02 0.023 c 0 0.008 0.008 0.02 0.02 0.02 c 0.012 0 0.02 0.008 0.02 0.02 c 0 0.012 0.016 0.02 0.047 0.02 c 0.039 0 0.047 0.004 0.047 0.027 c 0 0.012 0.012 0.023 0.02 0.023 c 0.012 0 0.023 0.012 0.023 0.02 c 0 0.016 0.012 0.023 0.039 0.023 c 0.031 0 0.039 0.004 0.039 0.023 c 0 0.016 0.008 0.027 0.02 0.027 c 0.012 0 0.02 0.008 0.02 0.02 c 0 0.016 0.016 0.02 0.047 0.02 c 0.035 0 0.047 0.008 0.047 0.02 c 0 0.016 0.016 0.02 0.043 0.02 c 0.031 0 0.039 0.008 0.039 0.027 c 0 0.023 0.008 0.027 0.047 0.027 c 0.031 0 0.047 0.008 0.047 0.02 c 0 0.012 0.012 0.02 0.039 0.02 c 0.031 0 0.039 0.008 0.039 0.027 c 0 0.02 0.012 0.027 0.043 0.027 c 0.023 0 0.039 0.004 0.039 0.02 c 0 0.016 0.016 0.02 0.066 0.02 c 0.051 0 0.066 0.004 0.066 0.02 c 0 0.016 0.016 0.02 0.059 0.02 c 0.055 0 0.063 0.004 0.063 0.027 c 0 0.023 0.008 0.027 0.086 0.027 c 0.066 0 0.086 0.004 0.086 0.02 c 0 0.016 0.02 0.02 0.086 0.02 c 0.066 0 0.09 0.004 0.09 0.02 c 0 0.027 0.043 0.031 0.223 0.031 c 0.137 0 0.164 0.004 0.164 0.02 c 0 0.02 0.09 0.023 0.723 0.023 c 0.629 0 0.719 -0.004 0.719 -0.023 m 2.688 -1.172 c 0 -0.016 0.008 -0.027 0.02 -0.027 c 0.016 0 0.02 -0.027 0.02 -0.176 c 0 -0.172 0 -0.18 0.027 -0.18 c 0.023 0 0.023 -0.008 0.023 -0.883 c 0 -0.871 0 -0.879 -0.023 -0.879 c -0.027 0 -0.027 -0.008 -0.027 -0.18 c 0 -0.148 -0.004 -0.18 -0.02 -0.18 c -0.02 0 -0.02 -0.023 -0.02 -0.129 c 0 -0.109 -0.004 -0.133 -0.023 -0.133 c -0.016 0 -0.02 -0.02 -0.02 -0.094 c 0 -0.074 -0.004 -0.094 -0.02 -0.094 c -0.016 0 -0.02 -0.016 -0.02 -0.086 c 0 -0.063 -0.004 -0.09 -0.02 -0.094 c -0.016 -0.004 -0.02 -0.027 -0.02 -0.074 c 0 -0.047 -0.008 -0.063 -0.02 -0.063 c -0.016 0 -0.023 -0.016 -0.023 -0.066 c 0 -0.059 0 -0.066 -0.023 -0.066 c -0.023 0 -0.027 -0.008 -0.027 -0.047 c 0 -0.031 -0.008 -0.047 -0.02 -0.047 c -0.016 0 -0.023 -0.016 -0.023 -0.066 c 0 -0.051 -0.004 -0.066 -0.02 -0.066 c -0.012 0 -0.02 -0.012 -0.02 -0.047 c 0 -0.031 -0.004 -0.043 -0.02 -0.043 c -0.016 0 -0.02 -0.016 -0.02 -0.047 c 0 -0.035 -0.008 -0.047 -0.02 -0.047 c -0.016 0 -0.02 -0.016 -0.02 -0.047 c 0 -0.039 -0.008 -0.047 -0.027 -0.047 c -0.02 0 -0.027 -0.008 -0.027 -0.039 c 0 -0.027 -0.008 -0.039 -0.02 -0.039 c -0.012 0 -0.02 -0.012 -0.02 -0.027 c 0 -0.016 -0.012 -0.027 -0.02 -0.027 c -0.016 0 -0.023 -0.012 -0.023 -0.047 c 0 -0.031 -0.004 -0.047 -0.016 -0.047 c -0.012 0 -0.023 -0.016 -0.031 -0.039 c -0.004 -0.02 -0.012 -0.039 -0.02 -0.039 c -0.008 0 -0.012 -0.012 -0.012 -0.027 c 0 -0.016 -0.008 -0.027 -0.027 -0.027 c -0.016 0 -0.027 -0.008 -0.027 -0.02 c 0 -0.008 -0.008 -0.02 -0.02 -0.02 c -0.012 0 -0.02 -0.012 -0.02 -0.039 c 0 -0.027 -0.008 -0.039 -0.02 -0.039 c -0.012 0 -0.02 -0.012 -0.02 -0.027 c 0 -0.016 -0.012 -0.027 -0.02 -0.027 c -0.012 0 -0.023 -0.012 -0.023 -0.023 c 0 -0.016 -0.008 -0.027 -0.02 -0.027 c -0.012 0 -0.02 -0.012 -0.02 -0.02 c 0 -0.012 -0.008 -0.02 -0.02 -0.02 c -0.012 0 -0.02 -0.012 -0.02 -0.027 c 0 -0.02 -0.008 -0.027 -0.027 -0.027 c -0.016 0 -0.027 -0.008 -0.027 -0.02 c 0 -0.012 -0.008 -0.02 -0.02 -0.02 c -0.012 0 -0.02 -0.008 -0.02 -0.02 c 0 -0.012 -0.008 -0.02 -0.02 -0.02 c -0.012 0 -0.02 -0.012 -0.02 -0.027 c 0 -0.016 -0.012 -0.027 -0.02 -0.027 c -0.012 0 -0.023 -0.008 -0.023 -0.02 c 0 -0.012 -0.008 -0.02 -0.02 -0.02 c -0.012 0 -0.02 -0.012 -0.02 -0.027 c 0 -0.016 -0.008 -0.027 -0.027 -0.027 c -0.012 0 -0.027 -0.008 -0.027 -0.02 c 0 -0.012 -0.008 -0.02 -0.02 -0.02 c -0.008 0 -0.02 -0.008 -0.02 -0.02 c 0 -0.012 -0.008 -0.02 -0.02 -0.02 c -0.012 0 -0.02 -0.012 -0.02 -0.027 c 0 -0.02 -0.008 -0.027 -0.039 -0.027 c -0.027 0 -0.043 -0.004 -0.043 -0.02 c 0 -0.008 -0.012 -0.02 -0.023 -0.02 c -0.02 0 -0.027 -0.008 -0.027 -0.027 c 0 -0.012 -0.012 -0.023 -0.02 -0.023 c -0.012 0 -0.023 -0.012 -0.023 -0.02 c 0 -0.016 -0.012 -0.02 -0.039 -0.02 c -0.027 0 -0.039 -0.008 -0.039 -0.023 c 0 -0.008 -0.008 -0.02 -0.02 -0.02 c -0.012 0 -0.02 -0.012 -0.02 -0.023 c 0 -0.023 -0.012 -0.027 -0.047 -0.027 c -0.035 0 -0.047 -0.008 -0.047 -0.02 c 0 -0.012 -0.012 -0.02 -0.02 -0.02 c -0.012 0 -0.02 -0.012 -0.02 -0.027 c 0 -0.02 -0.012 -0.027 -0.043 -0.027 c -0.027 0 -0.039 -0.008 -0.039 -0.02 c 0 -0.012 -0.008 -0.02 -0.02 -0.02 c -0.012 0 -0.02 -0.008 -0.02 -0.02 c 0 -0.016 -0.016 -0.02 -0.047 -0.02 c -0.039 0 -0.047 -0.008 -0.047 -0.027 c 0 -0.02 -0.008 -0.027 -0.039 -0.027 c -0.027 0 -0.043 -0.008 -0.043 -0.02 c 0 -0.016 -0.012 -0.02 -0.047 -0.02 c -0.035 0 -0.047 -0.004 -0.047 -0.027 c 0 -0.02 -0.008 -0.027 -0.039 -0.027 c -0.027 0 -0.039 -0.004 -0.039 -0.02 c 0 -0.012 -0.016 -0.02 -0.039 -0.02 c -0.027 0 -0.043 -0.004 -0.043 -0.02 c 0 -0.012 -0.012 -0.02 -0.047 -0.02 c -0.035 0 -0.047 -0.004 -0.047 -0.027 c 0 -0.02 -0.008 -0.027 -0.039 -0.027 c -0.027 0 -0.039 -0.004 -0.039 -0.02 c 0 -0.012 -0.016 -0.02 -0.039 -0.02 c -0.027 0 -0.039 -0.008 -0.047 -0.023 c -0.004 -0.023 -0.016 -0.027 -0.066 -0.027 c -0.047 0 -0.063 -0.008 -0.063 -0.02 c 0 -0.016 -0.012 -0.02 -0.039 -0.02 c -0.027 0 -0.039 -0.008 -0.039 -0.023 c 0 -0.012 -0.02 -0.02 -0.066 -0.02 c -0.051 0 -0.07 0.008 -0.07 0.02 c 0 0.012 -0.012 0.023 -0.027 0.023 c -0.023 0 -0.027 0.004 -0.023 0.066 c 0.004 0.07 0.008 0.07 0.051 0.074 c 0.023 0.004 0.043 0.012 0.043 0.023 c 0 0.016 0.016 0.02 0.059 0.02 c 0.051 0 0.059 0.004 0.059 0.027 c 0 0.02 0.012 0.027 0.047 0.027 c 0.035 0 0.047 0.004 0.047 0.02 c 0 0.012 0.016 0.02 0.043 0.02 c 0.023 0 0.039 0.004 0.039 0.02 c 0 0.012 0.012 0.02 0.039 0.02 c 0.027 0 0.039 0.008 0.043 0.027 c 0.008 0.02 0.02 0.027 0.051 0.027 c 0.027 0 0.039 0.004 0.039 0.02 c 0 0.012 0.016 0.02 0.039 0.02 c 0.027 0 0.043 0.008 0.047 0.023 c 0.004 0.02 0.02 0.027 0.047 0.027 c 0.027 0 0.043 0.008 0.043 0.02 c 0 0.016 0.012 0.02 0.039 0.02 c 0.027 0 0.039 0.008 0.039 0.023 c 0 0.012 0.016 0.02 0.043 0.02 c 0.031 0 0.039 0.004 0.039 0.023 c 0 0.023 0.008 0.027 0.047 0.027 c 0.031 0 0.047 0.008 0.047 0.02 c 0 0.012 0.008 0.02 0.02 0.02 c 0.012 0 0.02 0.012 0.02 0.027 c 0 0.02 0.008 0.027 0.039 0.027 c 0.027 0 0.043 0.008 0.043 0.02 c 0 0.012 0.012 0.02 0.023 0.02 c 0.016 0 0.027 0.008 0.027 0.02 c 0 0.016 0.016 0.02 0.039 0.02 c 0.031 0 0.043 0.008 0.043 0.027 c 0 0.02 0.008 0.027 0.027 0.027 c 0.012 0 0.023 0.008 0.023 0.02 c 0 0.012 0.016 0.02 0.035 0.02 c 0.023 0 0.031 0.008 0.031 0.027 c 0 0.016 0.012 0.027 0.027 0.027 c 0.016 0 0.027 0.008 0.027 0.02 c 0 0.008 0.008 0.02 0.02 0.02 c 0.012 0 0.02 0.008 0.02 0.02 c 0 0.012 0.016 0.02 0.043 0.02 c 0.031 0 0.039 0.004 0.039 0.027 c 0 0.012 0.008 0.023 0.02 0.023 c 0.012 0 0.02 0.012 0.02 0.023 c 0 0.008 0.012 0.02 0.027 0.02 c 0.02 0 0.027 0.008 0.027 0.023 c 0 0.016 0.008 0.027 0.02 0.027 c 0.012 0 0.02 0.012 0.02 0.02 c 0 0.012 0.008 0.02 0.02 0.02 c 0.012 0 0.02 0.012 0.02 0.023 c 0 0.008 0.012 0.02 0.023 0.02 c 0.008 0 0.02 0.012 0.02 0.023 c 0 0.016 0.008 0.027 0.02 0.027 c 0.012 0 0.02 0.008 0.02 0.02 c 0 0.012 0.008 0.02 0.02 0.02 c 0.012 0 0.02 0.012 0.02 0.027 c 0 0.02 0.008 0.027 0.027 0.027 c 0.016 0 0.027 0.008 0.027 0.02 c 0 0.012 0.008 0.02 0.02 0.02 c 0.012 0 0.02 0.008 0.02 0.02 c 0 0.012 0.008 0.02 0.02 0.02 c 0.016 0 0.02 0.016 0.02 0.047 c 0 0.031 0.008 0.047 0.023 0.047 c 0.008 0 0.02 0.012 0.02 0.027 c 0 0.016 0.008 0.027 0.02 0.027 c 0.012 0 0.02 0.008 0.02 0.02 c 0 0.008 0.012 0.02 0.027 0.02 c 0.02 0 0.027 0.008 0.027 0.047 c 0 0.031 0.004 0.043 0.02 0.043 c 0.012 0 0.02 0.012 0.02 0.023 c 0 0.008 0.008 0.02 0.02 0.02 c 0.016 0 0.02 0.012 0.02 0.047 c 0 0.031 0.008 0.043 0.02 0.043 c 0.016 0 0.02 0.016 0.02 0.043 c 0 0.023 0.012 0.043 0.023 0.047 c 0.008 0.004 0.02 0.016 0.02 0.027 c 0 0.008 0.012 0.016 0.027 0.016 c 0.02 0 0.023 0.012 0.023 0.047 c 0 0.031 0.008 0.047 0.023 0.047 c 0.012 0 0.02 0.016 0.02 0.066 c 0 0.051 0.004 0.066 0.02 0.066 c 0.012 0 0.02 0.016 0.02 0.047 c 0 0.031 0.008 0.047 0.02 0.047 c 0.012 0 0.02 0.02 0.023 0.063 c 0.004 0.035 0.016 0.063 0.023 0.066 c 0.008 0.004 0.012 0.023 0.012 0.051 c 0 0.031 0.008 0.043 0.023 0.043 c 0.016 0 0.02 0.02 0.02 0.09 c 0 0.074 0.004 0.086 0.027 0.094 c 0.02 0.004 0.023 0.016 0.023 0.07 c 0 0.051 0.008 0.066 0.023 0.066 c 0.016 0 0.02 0.02 0.02 0.113 c 0 0.09 0.004 0.109 0.02 0.109 c 0.016 0 0.02 0.023 0.02 0.133 c 0 0.109 0.004 0.133 0.02 0.133 c 0.016 0 0.02 0.031 0.02 0.18 c 0 0.148 0.004 0.18 0.02 0.18 c 0.02 0 0.02 0.09 0.02 0.738 c 0 0.582 0 0.742 -0.016 0.746 c -0.012 0.004 -0.016 0.074 -0.02 0.273 c -0.004 0.234 -0.004 0.27 0.016 0.27 c 0.012 0 0.02 0.008 0.02 0.023 c 0 0.023 0.012 0.027 0.047 0.027 c 0.039 0 0.047 -0.004 0.047 -0.027" fill="#19ff56"/><g fill="#00ff45"><path d="m 7.383 11.254 c 0 -0.016 -0.023 -0.02 -0.109 -0.02 c -0.098 0 -0.105 -0.004 -0.105 -0.027 c 0 -0.023 -0.008 -0.027 -0.082 -0.027 c -0.063 0 -0.078 -0.004 -0.078 -0.02 c 0 -0.012 -0.016 -0.02 -0.066 -0.02 c -0.051 0 -0.066 -0.004 -0.066 -0.02 c 0 -0.016 -0.016 -0.02 -0.063 -0.02 c -0.051 0 -0.059 -0.004 -0.059 -0.027 c 0 -0.02 -0.008 -0.023 -0.047 -0.023 c -0.031 0 -0.047 -0.008 -0.047 -0.023 c 0 -0.012 -0.012 -0.02 -0.039 -0.02 c -0.031 0 -0.043 -0.004 -0.043 -0.023 c 0 -0.023 -0.008 -0.027 -0.047 -0.027 c -0.031 0 -0.047 -0.008 -0.047 -0.02 c 0 -0.016 -0.012 -0.02 -0.039 -0.02 c -0.027 0 -0.039 -0.008 -0.039 -0.02 c 0 -0.016 -0.012 -0.023 -0.039 -0.023 c -0.031 0 -0.043 -0.004 -0.043 -0.023 c 0 -0.016 -0.008 -0.027 -0.02 -0.027 c -0.008 0 -0.02 -0.008 -0.02 -0.02 c 0 -0.016 -0.012 -0.02 -0.047 -0.02 c -0.035 0 -0.047 -0.008 -0.047 -0.027 c 0 -0.016 -0.008 -0.027 -0.02 -0.027 c -0.012 0 -0.02 -0.008 -0.02 -0.02 c 0 -0.012 -0.012 -0.02 -0.039 -0.02 c -0.027 0 -0.043 -0.008 -0.043 -0.02 c 0 -0.012 -0.012 -0.02 -0.023 -0.02 c -0.02 0 -0.027 -0.008 -0.027 -0.027 c 0 -0.016 -0.008 -0.027 -0.02 -0.027 c -0.012 0 -0.02 -0.008 -0.02 -0.02 c 0 -0.012 -0.012 -0.02 -0.023 -0.02 c -0.008 0 -0.02 -0.012 -0.02 -0.027 c 0 -0.016 -0.008 -0.027 -0.02 -0.027 c -0.012 0 -0.02 -0.008 -0.02 -0.02 c 0 -0.008 -0.008 -0.02 -0.02 -0.02 c -0.012 0 -0.02 -0.008 -0.02 -0.02 c 0 -0.012 -0.012 -0.02 -0.027 -0.02 c -0.02 0 -0.027 -0.008 -0.027 -0.027 c 0 -0.012 -0.008 -0.023 -0.02 -0.023 c -0.012 0 -0.02 -0.012 -0.02 -0.023 c 0 -0.008 -0.012 -0.02 -0.02 -0.02 c -0.012 0 -0.02 -0.012 -0.02 -0.023 c 0 -0.016 -0.012 -0.027 -0.023 -0.027 c -0.008 0 -0.02 -0.008 -0.02 -0.02 c 0 -0.012 -0.008 -0.02 -0.02 -0.02 c -0.012 0 -0.02 -0.012 -0.02 -0.02 c 0 -0.012 -0.008 -0.023 -0.02 -0.023 c -0.012 0 -0.02 -0.012 -0.02 -0.023 c 0 -0.02 -0.012 -0.027 -0.027 -0.027 c -0.016 0 -0.027 -0.008 -0.027 -0.02 c 0 -0.012 -0.008 -0.02 -0.02 -0.02 c -0.016 0 -0.02 -0.016 -0.02 -0.047 c 0 -0.031 -0.008 -0.047 -0.02 -0.047 c -0.012 0 -0.023 -0.008 -0.023 -0.02 c 0 -0.012 -0.008 -0.02 -0.02 -0.02 c -0.012 0 -0.02 -0.016 -0.02 -0.047 c 0 -0.031 -0.004 -0.047 -0.02 -0.047 c -0.012 0 -0.02 -0.012 -0.02 -0.027 c 0 -0.016 -0.008 -0.027 -0.027 -0.027 c -0.02 0 -0.027 -0.008 -0.027 -0.039 c 0 -0.023 -0.004 -0.039 -0.02 -0.039 c -0.012 0 -0.02 -0.012 -0.02 -0.047 c 0 -0.031 -0.008 -0.047 -0.02 -0.047 c -0.016 0 -0.02 -0.012 -0.02 -0.043 c 0 -0.035 -0.008 -0.047 -0.02 -0.047 c -0.016 0 -0.023 -0.016 -0.023 -0.047 c 0 -0.035 -0.004 -0.047 -0.02 -0.047 c -0.012 0 -0.02 -0.016 -0.02 -0.047 c 0 -0.039 -0.004 -0.047 -0.027 -0.047 c -0.023 0 -0.023 -0.008 -0.023 -0.066 c 0 -0.051 -0.008 -0.066 -0.023 -0.066 c -0.012 0 -0.02 -0.016 -0.02 -0.066 c 0 -0.051 -0.004 -0.066 -0.02 -0.066 c -0.016 0 -0.02 -0.016 -0.02 -0.066 c 0 -0.047 -0.004 -0.066 -0.02 -0.066 c -0.016 0 -0.02 -0.02 -0.02 -0.109 c 0 -0.094 -0.004 -0.113 -0.02 -0.113 c -0.023 0 -0.027 -0.102 -0.023 -0.949 c 0.004 -0.359 0.008 -0.438 0.023 -0.445 c 0.016 -0.008 0.02 -0.047 0.02 -0.164 c 0 -0.125 0.004 -0.152 0.02 -0.152 c 0.016 0 0.02 -0.016 0.02 -0.086 c 0 -0.066 0.004 -0.086 0.02 -0.086 c 0.016 0 0.02 -0.02 0.02 -0.09 c 0 -0.074 0.004 -0.094 0.02 -0.094 c 0.016 0 0.023 -0.016 0.023 -0.066 c 0 -0.059 0 -0.066 0.023 -0.066 c 0.023 0 0.027 -0.008 0.027 -0.066 c 0 -0.051 0.004 -0.066 0.02 -0.066 c 0.016 0 0.02 -0.016 0.02 -0.047 c 0 -0.031 0.008 -0.047 0.023 -0.047 c 0.012 0 0.02 -0.012 0.02 -0.047 c 0 -0.031 0.004 -0.043 0.02 -0.043 c 0.012 0 0.02 -0.016 0.02 -0.047 c 0 -0.035 0.008 -0.047 0.02 -0.047 c 0.012 0 0.02 -0.008 0.02 -0.02 c 0 -0.012 0.012 -0.02 0.027 -0.02 c 0.023 0 0.027 -0.012 0.027 -0.047 c 0 -0.035 0.004 -0.047 0.02 -0.047 c 0.012 0 0.02 -0.008 0.02 -0.02 c 0 -0.012 0.012 -0.02 0.02 -0.02 c 0.012 0 0.02 -0.012 0.02 -0.027 c 0 -0.016 0.012 -0.027 0.023 -0.027 c 0.008 0 0.02 -0.012 0.02 -0.027 c 0 -0.012 0.008 -0.023 0.02 -0.023 c 0.012 0 0.02 -0.016 0.02 -0.043 c 0 -0.031 0.008 -0.039 0.027 -0.039 c 0.016 0 0.027 -0.008 0.027 -0.02 c 0 -0.012 0.008 -0.02 0.02 -0.02 c 0.012 0 0.02 -0.012 0.02 -0.027 c 0 -0.02 0.008 -0.027 0.039 -0.027 c 0.027 0 0.039 -0.004 0.039 -0.02 c 0 -0.008 0.012 -0.02 0.023 -0.02 c 0.008 0 0.02 -0.012 0.02 -0.023 c 0 -0.016 0.008 -0.027 0.02 -0.027 c 0.012 0 0.02 -0.012 0.02 -0.02 c 0 -0.012 0.012 -0.02 0.027 -0.02 c 0.012 0 0.035 -0.012 0.043 -0.023 c 0.012 -0.008 0.031 -0.02 0.043 -0.02 c 0.012 0 0.02 -0.012 0.02 -0.023 c 0 -0.023 0.008 -0.027 0.039 -0.027 c 0.027 0 0.043 -0.008 0.043 -0.02 c 0 -0.016 0.012 -0.02 0.047 -0.02 c 0.035 0 0.047 -0.008 0.047 -0.027 c 0 -0.02 0.008 -0.027 0.039 -0.027 c 0.027 0 0.039 -0.008 0.039 -0.02 c 0 -0.016 0.016 -0.02 0.063 -0.02 c 0.039 0 0.063 -0.008 0.066 -0.02 c 0.004 -0.016 0.027 -0.02 0.066 -0.02 c 0.051 0 0.059 -0.004 0.059 -0.027 c 0 -0.023 0.008 -0.027 0.086 -0.027 c 0.07 0 0.09 -0.004 0.09 -0.02 c 0 -0.016 0.02 -0.02 0.105 -0.02 c 0.098 0 0.105 -0.004 0.105 -0.027 c 0 -0.023 0.012 -0.027 0.234 -0.027 c 0.199 0 0.234 0 0.234 -0.02 c 0 -0.016 0.023 -0.02 0.148 -0.02 c 0.121 0 0.145 0.004 0.145 0.02 c 0 0.02 0.047 0.02 0.32 0.02 c 0.266 0 0.32 0.004 0.32 0.02 c 0 0.023 0.043 0.035 0.16 0.035 c 0.074 0 0.094 0.004 0.094 0.02 c 0 0.016 0.016 0.02 0.059 0.02 c 0.047 0 0.063 0.004 0.066 0.027 c 0.008 0.02 0.02 0.027 0.066 0.027 c 0.035 0 0.063 0.004 0.066 0.012 c 0.004 0.008 0.031 0.02 0.063 0.023 c 0.035 0.004 0.055 0.016 0.055 0.023 c 0 0.012 0.016 0.02 0.047 0.02 c 0.039 0 0.047 0.004 0.047 0.027 c 0 0.023 0.008 0.027 0.059 0.027 c 0.047 0 0.063 0.004 0.063 0.02 c 0 0.012 0.012 0.02 0.027 0.02 c 0.012 0 0.023 0.008 0.023 0.02 c 0 0.008 0.02 0.02 0.043 0.027 c 0.02 0.004 0.039 0.016 0.039 0.027 c 0 0.012 0.016 0.02 0.039 0.02 c 0.027 0 0.039 0.004 0.039 0.02 c 0 0.008 0.016 0.02 0.027 0.02 c 0.016 0 0.027 0.008 0.027 0.02 c 0 0.008 0.02 0.02 0.039 0.027 c 0.023 0.004 0.043 0.016 0.043 0.027 c 0 0.008 0.008 0.016 0.02 0.016 c 0.012 0 0.02 0.012 0.02 0.027 c 0 0.023 0.008 0.027 0.039 0.027 c 0.027 0 0.039 0.008 0.039 0.02 c 0 0.012 0.012 0.02 0.027 0.02 c 0.016 0 0.027 0.008 0.027 0.02 c 0 0.012 0.008 0.02 0.02 0.02 c 0.012 0 0.02 0.012 0.02 0.027 c 0 0.016 0.012 0.027 0.023 0.027 c 0.008 0 0.02 0.008 0.02 0.02 c 0 0.012 0.008 0.02 0.02 0.02 c 0.012 0 0.02 0.012 0.02 0.027 c 0 0.016 0.008 0.027 0.02 0.027 c 0.012 0 0.02 0.008 0.02 0.02 c 0 0.012 0.012 0.02 0.027 0.02 c 0.016 0 0.027 0.008 0.027 0.02 c 0 0.012 0.008 0.02 0.02 0.02 c 0.012 0 0.02 0.012 0.02 0.027 c 0 0.016 0.008 0.027 0.02 0.027 c 0.012 0 0.02 0.008 0.02 0.02 c 0 0.012 0.012 0.02 0.023 0.02 c 0.008 0 0.02 0.012 0.02 0.027 c 0 0.012 0.008 0.023 0.02 0.023 c 0.012 0 0.02 0.012 0.02 0.02 c 0 0.012 0.012 0.023 0.027 0.023 c 0.02 0 0.027 0.008 0.027 0.039 c 0 0.023 0.004 0.039 0.02 0.039 c 0.012 0 0.02 0.012 0.02 0.027 c 0 0.012 0.008 0.023 0.02 0.023 c 0.012 0 0.02 0.012 0.02 0.027 c 0 0.016 0.008 0.027 0.02 0.027 c 0.016 0 0.02 0.012 0.02 0.039 c 0 0.027 0.008 0.039 0.023 0.039 c 0.008 0 0.02 0.012 0.02 0.027 c 0 0.016 0.008 0.027 0.02 0.027 c 0.012 0 0.02 0.016 0.02 0.047 c 0 0.035 0.004 0.047 0.027 0.047 c 0.02 0 0.027 0.008 0.027 0.039 c 0 0.027 0.004 0.039 0.02 0.039 c 0.012 0 0.02 0.012 0.02 0.027 c 0 0.016 0.008 0.027 0.02 0.027 c 0.016 0 0.02 0.012 0.02 0.043 c 0 0.035 0.008 0.047 0.02 0.047 c 0.016 0 0.02 0.016 0.02 0.043 c 0 0.023 0.008 0.039 0.023 0.039 c 0.012 0 0.02 0.012 0.02 0.035 c 0 0.059 0.012 0.098 0.035 0.098 c 0.012 0 0.016 0.016 0.016 0.043 c 0 0.035 0.008 0.047 0.023 0.047 c 0.012 0 0.02 0.016 0.02 0.066 c 0 0.051 0.004 0.066 0.02 0.066 c 0.016 0 0.02 0.02 0.02 0.074 c 0 0.055 0.004 0.074 0.02 0.074 c 0.016 0 0.02 0.016 0.02 0.066 c 0 0.047 0.004 0.066 0.02 0.066 c 0.016 0 0.02 0.016 0.02 0.09 c 0 0.086 0.004 0.094 0.027 0.094 c 0.027 0 0.027 0.008 0.027 0.133 c 0 0.109 0.004 0.133 0.02 0.133 c 0.02 0 0.02 0.031 0.02 0.203 c 0 0.176 0.004 0.207 0.023 0.207 c 0.016 0 0.02 0.066 0.02 0.535 c 0 0.469 -0.004 0.539 -0.02 0.539 c -0.02 0 -0.023 0.023 -0.023 0.129 c 0 0.109 -0.004 0.133 -0.02 0.133 c -0.016 0 -0.02 0.016 -0.02 0.066 c 0 0.055 -0.004 0.066 -0.027 0.07 c -0.02 0.008 -0.027 0.02 -0.027 0.07 c 0 0.043 -0.004 0.059 -0.02 0.059 c -0.012 0 -0.02 0.016 -0.02 0.055 c 0 0.039 -0.004 0.051 -0.02 0.051 c -0.012 0 -0.02 0.016 -0.02 0.039 c 0 0.027 -0.008 0.043 -0.02 0.043 c -0.016 0 -0.02 0.012 -0.02 0.047 c 0 0.031 -0.008 0.043 -0.02 0.043 c -0.016 0 -0.023 0.016 -0.023 0.047 c 0 0.039 -0.004 0.047 -0.023 0.047 c -0.016 0 -0.027 0.008 -0.027 0.02 c 0 0.012 -0.012 0.02 -0.02 0.02 c -0.012 0 -0.023 0.012 -0.023 0.02 c 0 0.012 -0.008 0.02 -0.02 0.02 c -0.012 0 -0.02 0.012 -0.02 0.027 c 0 0.016 -0.008 0.027 -0.02 0.027 c -0.012 0 -0.02 0.008 -0.02 0.02 c 0 0.012 -0.008 0.02 -0.02 0.02 c -0.012 0 -0.02 0.012 -0.02 0.027 c 0 0.02 -0.012 0.027 -0.027 0.027 c -0.016 0 -0.027 0.008 -0.027 0.02 c 0 0.012 -0.008 0.02 -0.02 0.02 c -0.012 0 -0.02 0.008 -0.02 0.02 c 0 0.012 -0.016 0.02 -0.043 0.02 c -0.031 0 -0.039 0.008 -0.039 0.027 c 0 0.016 -0.008 0.027 -0.02 0.027 c -0.012 0 -0.02 0.008 -0.02 0.02 c 0 0.012 -0.016 0.02 -0.043 0.02 c -0.027 0 -0.043 0.008 -0.047 0.027 c -0.004 0.016 -0.02 0.023 -0.047 0.023 c -0.023 0 -0.039 0.008 -0.039 0.023 c 0 0.012 -0.012 0.02 -0.039 0.02 c -0.027 0 -0.039 0.004 -0.039 0.02 c 0 0.012 -0.016 0.02 -0.047 0.02 c -0.039 0 -0.047 0.004 -0.047 0.027 c 0 0.02 -0.008 0.023 -0.039 0.023 c -0.027 0 -0.039 0.008 -0.039 0.02 c 0 0.016 -0.016 0.023 -0.063 0.023 c -0.07 0 -0.102 0.008 -0.102 0.031 c 0 0.016 -0.016 0.02 -0.066 0.02 c -0.051 0 -0.066 0.004 -0.066 0.02 c 0 0.016 -0.02 0.02 -0.105 0.02 c -0.086 0 -0.105 0.004 -0.105 0.02 c 0 0.016 -0.023 0.02 -0.109 0.02 c -0.098 0 -0.105 0.004 -0.105 0.027 c 0 0.027 -0.008 0.027 -0.195 0.027 c -0.164 0 -0.191 0.004 -0.191 0.02 c 0 0.02 -0.074 0.02 -0.574 0.02 c -0.504 0 -0.574 0 -0.574 -0.02 m 1.75 -0.582 c 0 -0.016 0.02 -0.02 0.125 -0.02 c 0.105 0 0.129 -0.004 0.129 -0.02 c 0 -0.016 0.016 -0.02 0.066 -0.02 c 0.055 0 0.066 -0.004 0.066 -0.027 c 0 -0.023 0.008 -0.027 0.059 -0.027 c 0.047 0 0.063 -0.004 0.063 -0.02 c 0 -0.016 0.012 -0.02 0.043 -0.02 c 0.039 0 0.047 -0.004 0.047 -0.027 c 0 -0.02 0.012 -0.027 0.043 -0.027 c 0.027 0 0.039 -0.004 0.039 -0.02 c 0 -0.012 0.008 -0.02 0.02 -0.02 c 0.012 0 0.02 -0.008 0.02 -0.02 c 0 -0.008 0.02 -0.02 0.039 -0.027 c 0.023 -0.004 0.043 -0.016 0.043 -0.027 c 0 -0.008 0.012 -0.02 0.027 -0.02 c 0.016 0 0.023 -0.008 0.023 -0.023 c 0 -0.016 0.012 -0.027 0.023 -0.027 c 0.012 0 0.02 -0.016 0.02 -0.039 c 0 -0.027 0.004 -0.039 0.02 -0.039 c 0.012 0 0.02 -0.012 0.02 -0.023 c 0 -0.008 0.008 -0.02 0.02 -0.02 c 0.016 0 0.02 -0.012 0.02 -0.043 c 0 -0.035 0.008 -0.047 0.027 -0.051 c 0.023 -0.008 0.027 -0.02 0.027 -0.066 c 0 -0.043 0.008 -0.063 0.02 -0.07 c 0.016 -0.004 0.02 -0.031 0.02 -0.141 c 0 -0.105 0.004 -0.133 0.02 -0.133 c 0.02 0 0.02 -0.039 0.02 -0.289 c 0 -0.25 0 -0.293 -0.02 -0.293 c -0.016 0 -0.02 -0.035 -0.02 -0.25 c 0 -0.215 -0.004 -0.254 -0.02 -0.254 c -0.016 0 -0.02 -0.031 -0.02 -0.219 c 0 -0.207 0 -0.219 -0.027 -0.227 c -0.023 -0.008 -0.027 -0.02 -0.027 -0.117 c 0 -0.09 -0.004 -0.113 -0.02 -0.113 c -0.016 0 -0.02 -0.016 -0.02 -0.086 c 0 -0.066 -0.004 -0.086 -0.02 -0.086 c -0.016 0 -0.02 -0.016 -0.02 -0.086 c 0 -0.066 -0.004 -0.086 -0.02 -0.086 c -0.016 0 -0.023 -0.012 -0.023 -0.051 c 0 -0.039 -0.004 -0.055 -0.02 -0.055 c -0.016 0 -0.02 -0.016 -0.02 -0.059 c 0 -0.051 -0.004 -0.063 -0.027 -0.07 c -0.02 -0.004 -0.027 -0.016 -0.027 -0.051 c 0 -0.031 -0.004 -0.047 -0.02 -0.047 c -0.012 0 -0.02 -0.012 -0.02 -0.039 c 0 -0.023 -0.008 -0.039 -0.02 -0.039 c -0.012 0 -0.02 -0.012 -0.02 -0.027 c 0 -0.012 -0.008 -0.023 -0.02 -0.023 c -0.016 0 -0.02 -0.016 -0.02 -0.047 c 0 -0.035 -0.008 -0.047 -0.02 -0.047 c -0.012 0 -0.023 -0.008 -0.023 -0.02 c 0 -0.012 -0.008 -0.02 -0.02 -0.02 c -0.012 0 -0.02 -0.016 -0.02 -0.047 c 0 -0.039 -0.004 -0.047 -0.027 -0.047 c -0.016 0 -0.027 -0.008 -0.027 -0.02 c 0 -0.012 -0.008 -0.02 -0.02 -0.02 c -0.012 0 -0.02 -0.012 -0.02 -0.027 c 0 -0.016 -0.008 -0.027 -0.02 -0.027 c -0.012 0 -0.02 -0.012 -0.02 -0.039 c 0 -0.023 -0.008 -0.043 -0.02 -0.047 c -0.012 -0.004 -0.02 -0.016 -0.02 -0.027 c 0 -0.012 -0.012 -0.02 -0.023 -0.02 c -0.008 0 -0.02 -0.008 -0.02 -0.02 c 0 -0.012 -0.012 -0.02 -0.023 -0.02 c -0.02 0 -0.027 -0.008 -0.027 -0.027 c 0 -0.012 -0.012 -0.023 -0.02 -0.023 c -0.012 0 -0.023 -0.012 -0.023 -0.023 c 0 -0.008 -0.008 -0.02 -0.02 -0.02 c -0.012 0 -0.02 -0.012 -0.02 -0.023 c 0 -0.016 -0.008 -0.027 -0.02 -0.027 c -0.012 0 -0.031 -0.008 -0.043 -0.02 c -0.012 -0.012 -0.031 -0.02 -0.043 -0.02 c -0.016 0 -0.027 -0.012 -0.027 -0.02 c 0 -0.012 -0.008 -0.023 -0.02 -0.023 c -0.012 0 -0.02 -0.012 -0.02 -0.023 c 0 -0.016 -0.012 -0.027 -0.02 -0.027 c -0.012 0 -0.023 -0.008 -0.023 -0.02 c 0 -0.016 -0.012 -0.02 -0.039 -0.02 c -0.031 0 -0.039 -0.008 -0.039 -0.027 c 0 -0.016 -0.008 -0.027 -0.02 -0.027 c -0.008 0 -0.023 -0.008 -0.027 -0.02 c -0.004 -0.012 -0.023 -0.02 -0.047 -0.02 c -0.027 0 -0.039 -0.008 -0.039 -0.02 c 0 -0.016 -0.016 -0.02 -0.043 -0.02 c -0.031 0 -0.039 -0.008 -0.039 -0.027 c 0 -0.02 -0.008 -0.027 -0.047 -0.027 c -0.031 0 -0.047 -0.004 -0.047 -0.02 c 0 -0.012 -0.012 -0.02 -0.039 -0.02 c -0.031 0 -0.039 -0.004 -0.039 -0.027 c 0 -0.02 -0.012 -0.027 -0.043 -0.027 c -0.023 0 -0.039 -0.004 -0.039 -0.02 c 0 -0.012 -0.016 -0.02 -0.066 -0.02 c -0.051 0 -0.066 -0.004 -0.066 -0.02 c 0 -0.016 -0.016 -0.02 -0.059 -0.02 c -0.051 0 -0.063 -0.004 -0.063 -0.027 c 0 -0.023 -0.008 -0.023 -0.074 -0.023 c -0.055 0 -0.07 -0.008 -0.07 -0.023 c 0 -0.016 -0.023 -0.02 -0.102 -0.02 c -0.09 0 -0.102 0 -0.102 -0.023 c 0 -0.027 -0.008 -0.027 -0.148 -0.027 c -0.113 0 -0.152 -0.004 -0.168 -0.02 c -0.027 -0.031 -0.75 -0.031 -0.75 0 c 0 0.016 -0.023 0.02 -0.129 0.02 c -0.117 0 -0.125 0 -0.125 0.027 c 0 0.02 -0.008 0.023 -0.066 0.023 c -0.051 0 -0.066 0.008 -0.066 0.02 c 0 0.016 -0.016 0.023 -0.063 0.023 c -0.051 0 -0.059 0.004 -0.059 0.023 c 0 0.023 -0.008 0.027 -0.047 0.027 c -0.031 0 -0.047 0.008 -0.047 0.02 c 0 0.016 -0.012 0.02 -0.039 0.02 c -0.027 0 -0.043 0.008 -0.043 0.02 c 0 0.012 -0.008 0.02 -0.02 0.02 c -0.012 0 -0.02 0.012 -0.02 0.027 c 0 0.023 -0.008 0.027 -0.047 0.027 c -0.031 0 -0.047 0.008 -0.047 0.02 c 0 0.012 -0.008 0.02 -0.02 0.02 c -0.012 0 -0.02 0.012 -0.02 0.027 c 0 0.016 -0.008 0.027 -0.02 0.027 c -0.012 0 -0.02 0.008 -0.02 0.02 c 0 0.012 -0.012 0.02 -0.02 0.02 c -0.012 0 -0.023 0.008 -0.023 0.02 c 0 0.012 -0.008 0.02 -0.02 0.02 c -0.012 0 -0.02 0.012 -0.02 0.027 c 0 0.016 -0.008 0.027 -0.027 0.027 c -0.012 0 -0.027 0.008 -0.027 0.016 c 0 0.012 -0.008 0.023 -0.02 0.027 c -0.012 0.004 -0.02 0.023 -0.02 0.047 c 0 0.027 -0.004 0.043 -0.02 0.043 c -0.012 0 -0.02 0.012 -0.02 0.023 c 0 0.016 -0.008 0.027 -0.02 0.027 c -0.016 0 -0.02 0.016 -0.02 0.039 c 0 0.027 -0.008 0.043 -0.02 0.043 c -0.016 0 -0.023 0.012 -0.023 0.051 c 0 0.035 -0.004 0.055 -0.016 0.055 c -0.023 0 -0.035 0.027 -0.035 0.078 c 0 0.027 -0.008 0.039 -0.02 0.039 c -0.016 0 -0.023 0.016 -0.023 0.066 c 0 0.043 -0.004 0.066 -0.02 0.07 c -0.016 0.008 -0.02 0.031 -0.02 0.113 c 0 0.086 -0.004 0.109 -0.02 0.109 c -0.016 0 -0.02 0.023 -0.02 0.156 c 0 0.133 -0.004 0.16 -0.02 0.16 c -0.02 0 -0.02 0.074 -0.02 0.59 c 0 0.516 0 0.59 0.02 0.59 c 0.016 0 0.02 0.02 0.02 0.113 c 0 0.09 0.004 0.109 0.02 0.109 c 0.016 0 0.02 0.02 0.02 0.09 c 0 0.063 0.004 0.086 0.02 0.094 c 0.012 0.004 0.02 0.023 0.02 0.051 c 0 0.031 0.008 0.047 0.023 0.047 c 0.012 0 0.02 0.016 0.02 0.066 c 0 0.055 0.004 0.066 0.027 0.066 c 0.02 0 0.023 0.008 0.023 0.039 c 0 0.027 0.008 0.039 0.023 0.039 c 0.012 0 0.02 0.016 0.02 0.047 c 0 0.031 0.004 0.047 0.02 0.047 c 0.012 0 0.02 0.012 0.02 0.023 c 0 0.016 0.008 0.027 0.02 0.027 c 0.012 0 0.02 0.016 0.02 0.039 c 0 0.027 0.008 0.043 0.02 0.043 c 0.012 0 0.02 0.012 0.02 0.023 c 0 0.02 0.012 0.027 0.027 0.027 c 0.023 0 0.027 0.008 0.027 0.047 c 0 0.031 0.008 0.047 0.02 0.047 c 0.012 0 0.02 0.008 0.02 0.02 c 0 0.012 0.012 0.02 0.023 0.02 c 0.008 0 0.02 0.008 0.02 0.02 c 0 0.012 0.008 0.02 0.02 0.02 c 0.012 0 0.02 0.012 0.02 0.027 c 0 0.016 0.008 0.027 0.02 0.027 c 0.012 0 0.02 0.008 0.02 0.02 c 0 0.012 0.008 0.02 0.02 0.02 c 0.012 0 0.023 0.02 0.027 0.047 c 0.008 0.039 0.012 0.047 0.047 0.047 c 0.027 0 0.039 0.004 0.039 0.02 c 0 0.012 0.012 0.02 0.023 0.02 c 0.008 0 0.02 0.012 0.02 0.027 c 0 0.012 0.008 0.027 0.02 0.027 c 0.012 0 0.02 0.008 0.02 0.02 c 0 0.008 0.008 0.02 0.02 0.02 c 0.012 0 0.02 0.012 0.02 0.023 c 0 0.02 0.008 0.027 0.027 0.027 c 0.016 0 0.027 0.012 0.027 0.02 c 0 0.016 0.012 0.02 0.039 0.02 c 0.027 0 0.039 0.008 0.039 0.023 c 0 0.008 0.012 0.02 0.023 0.02 c 0.008 0 0.02 0.012 0.02 0.023 c 0 0.023 0.008 0.027 0.047 0.027 c 0.031 0 0.047 0.008 0.047 0.02 c 0 0.012 0.008 0.02 0.02 0.02 c 0.012 0 0.02 0.012 0.02 0.02 c 0 0.012 0.02 0.023 0.039 0.027 c 0.023 0.004 0.039 0.02 0.039 0.027 c 0 0.016 0.016 0.02 0.047 0.02 c 0.035 0 0.047 0.008 0.047 0.02 c 0 0.016 0.016 0.02 0.063 0.02 c 0.051 0 0.059 0.004 0.059 0.027 c 0 0.02 0.008 0.027 0.039 0.027 c 0.027 0 0.043 0.008 0.043 0.02 c 0 0.016 0.016 0.02 0.066 0.02 c 0.059 0 0.066 0.004 0.066 0.027 c 0 0.023 0.008 0.027 0.086 0.027 c 0.07 0 0.086 0.004 0.086 0.02 c 0 0.016 0.023 0.02 0.109 0.02 c 0.086 0 0.105 0.004 0.105 0.02 c 0 0.016 0.098 0.02 0.789 0.02 c 0.691 0 0.785 -0.004 0.785 -0.02"/><path d="m 7.594 10.484 c 0 -0.016 -0.023 -0.02 -0.125 -0.02 c -0.105 0 -0.129 -0.004 -0.129 -0.02 c 0 -0.016 -0.016 -0.02 -0.086 -0.02 c -0.078 0 -0.086 0 -0.086 -0.027 c 0 -0.02 -0.008 -0.023 -0.039 -0.023 c -0.027 0 -0.043 -0.008 -0.043 -0.02 c 0 -0.016 -0.016 -0.023 -0.059 -0.023 c -0.051 0 -0.059 -0.004 -0.059 -0.023 c 0 -0.023 -0.012 -0.027 -0.047 -0.027 c -0.035 0 -0.047 -0.008 -0.047 -0.02 c 0 -0.016 -0.016 -0.02 -0.043 -0.02 c -0.023 0 -0.039 -0.008 -0.039 -0.02 c 0 -0.016 -0.012 -0.02 -0.047 -0.02 c -0.035 0 -0.047 -0.008 -0.047 -0.027 c 0 -0.016 -0.008 -0.027 -0.02 -0.027 c -0.012 0 -0.02 -0.008 -0.02 -0.02 c 0 -0.012 -0.012 -0.02 -0.039 -0.02 c -0.031 0 -0.043 -0.008 -0.043 -0.027 c 0 -0.016 -0.008 -0.027 -0.02 -0.027 c -0.012 0 -0.02 -0.008 -0.02 -0.02 c 0 -0.012 -0.012 -0.02 -0.027 -0.02 c -0.012 0 -0.023 -0.008 -0.023 -0.02 c 0 -0.012 -0.012 -0.02 -0.023 -0.02 c -0.008 0 -0.02 -0.008 -0.02 -0.02 c 0 -0.012 -0.016 -0.023 -0.039 -0.027 c -0.023 -0.004 -0.039 -0.016 -0.039 -0.027 c 0 -0.012 -0.012 -0.02 -0.02 -0.02 c -0.012 0 -0.023 -0.012 -0.023 -0.027 c 0 -0.012 -0.008 -0.023 -0.02 -0.023 c -0.008 0 -0.02 -0.012 -0.02 -0.023 c 0 -0.008 -0.012 -0.02 -0.027 -0.02 c -0.012 0 -0.023 -0.008 -0.023 -0.02 c 0 -0.008 -0.012 -0.02 -0.023 -0.02 c -0.012 0 -0.02 -0.012 -0.02 -0.047 c 0 -0.031 -0.004 -0.047 -0.02 -0.047 c -0.012 0 -0.02 -0.012 -0.02 -0.023 c 0 -0.016 -0.008 -0.027 -0.02 -0.027 c -0.012 0 -0.02 -0.008 -0.02 -0.02 c 0 -0.012 -0.008 -0.02 -0.02 -0.02 c -0.012 0 -0.023 -0.02 -0.027 -0.039 c -0.004 -0.023 -0.02 -0.043 -0.027 -0.043 c -0.012 0 -0.02 -0.012 -0.02 -0.023 c 0 -0.016 -0.012 -0.027 -0.02 -0.027 c -0.016 0 -0.023 -0.016 -0.023 -0.047 c 0 -0.031 -0.004 -0.047 -0.02 -0.047 c -0.012 0 -0.02 -0.016 -0.02 -0.047 c 0 -0.031 -0.004 -0.047 -0.02 -0.047 c -0.012 0 -0.02 -0.012 -0.02 -0.047 c 0 -0.031 -0.008 -0.043 -0.02 -0.043 c -0.016 0 -0.02 -0.016 -0.02 -0.043 c 0 -0.027 -0.008 -0.039 -0.027 -0.039 c -0.023 0 -0.027 -0.008 -0.027 -0.07 c 0 -0.059 -0.004 -0.074 -0.02 -0.074 c -0.016 0 -0.02 -0.016 -0.02 -0.066 c 0 -0.051 -0.008 -0.066 -0.02 -0.066 c -0.02 0 -0.023 -0.023 -0.023 -0.133 c 0 -0.109 0 -0.133 -0.02 -0.133 c -0.016 0 -0.02 -0.047 -0.02 -0.336 c 0 -0.293 0.004 -0.34 0.02 -0.34 c 0.02 0 0.02 -0.023 0.02 -0.133 c 0 -0.109 0.004 -0.133 0.023 -0.133 c 0.016 0 0.02 -0.016 0.02 -0.09 c 0 -0.074 0.004 -0.094 0.02 -0.094 c 0.016 0 0.02 -0.016 0.02 -0.066 c 0 -0.047 0.004 -0.066 0.02 -0.066 c 0.02 0 0.035 -0.039 0.035 -0.094 c 0 -0.023 0.008 -0.039 0.02 -0.039 c 0.012 0 0.02 -0.012 0.02 -0.047 c 0 -0.031 0.008 -0.047 0.02 -0.047 c 0.016 0 0.02 -0.012 0.02 -0.043 c 0 -0.035 0.008 -0.047 0.02 -0.047 c 0.016 0 0.02 -0.016 0.02 -0.039 c 0 -0.027 0.008 -0.043 0.023 -0.043 c 0.012 0 0.02 -0.012 0.02 -0.047 c 0 -0.035 0.004 -0.043 0.027 -0.043 c 0.016 0 0.023 -0.012 0.023 -0.027 c 0 -0.016 0.012 -0.027 0.023 -0.027 c 0.012 0 0.02 -0.012 0.02 -0.039 c 0 -0.027 0.004 -0.039 0.02 -0.039 c 0.012 0 0.02 -0.012 0.02 -0.027 c 0 -0.016 0.008 -0.027 0.02 -0.027 c 0.012 0 0.02 -0.008 0.02 -0.02 c 0 -0.012 0.012 -0.02 0.02 -0.02 c 0.012 0 0.023 -0.012 0.023 -0.027 c 0 -0.016 0.008 -0.027 0.023 -0.027 c 0.016 0 0.027 -0.008 0.027 -0.02 c 0 -0.012 0.008 -0.02 0.02 -0.02 c 0.012 0 0.02 -0.008 0.02 -0.02 c 0 -0.012 0.012 -0.02 0.023 -0.02 c 0.008 0 0.02 -0.012 0.02 -0.027 c 0 -0.016 0.008 -0.027 0.02 -0.027 c 0.012 0 0.02 -0.008 0.02 -0.02 c 0 -0.012 0.012 -0.02 0.039 -0.02 c 0.031 0 0.043 -0.004 0.043 -0.027 c 0 -0.016 0.008 -0.023 0.023 -0.023 c 0.016 0 0.027 -0.012 0.027 -0.02 c 0 -0.016 0.016 -0.02 0.039 -0.02 c 0.027 0 0.043 -0.008 0.043 -0.023 c 0 -0.012 0.012 -0.02 0.039 -0.02 c 0.031 0 0.039 -0.004 0.039 -0.023 c 0 -0.023 0.008 -0.027 0.047 -0.027 c 0.035 0 0.047 -0.008 0.047 -0.02 c 0 -0.016 0.016 -0.02 0.063 -0.02 c 0.051 0 0.059 -0.004 0.059 -0.027 c 0 -0.023 0.008 -0.027 0.066 -0.027 c 0.047 0 0.066 -0.004 0.066 -0.02 c 0 -0.012 0.027 -0.02 0.121 -0.023 c 0.086 0 0.125 -0.008 0.129 -0.02 c 0.004 -0.012 0.094 -0.016 0.387 -0.016 c 0.328 0 0.379 0 0.379 0.02 c 0 0.016 0.02 0.02 0.105 0.02 c 0.086 0 0.109 0.004 0.109 0.02 c 0 0.016 0.016 0.02 0.086 0.02 c 0.078 0 0.086 0.004 0.086 0.027 c 0 0.023 0.008 0.027 0.063 0.027 c 0.043 0 0.059 0.004 0.059 0.02 c 0 0.012 0.016 0.02 0.047 0.02 c 0.039 0 0.047 0.004 0.047 0.027 c 0 0.02 0.008 0.023 0.039 0.023 c 0.027 0 0.039 0.008 0.039 0.02 c 0 0.016 0.016 0.023 0.043 0.023 c 0.023 0 0.039 0.004 0.039 0.02 c 0 0.012 0.016 0.02 0.047 0.02 c 0.039 0 0.047 0.004 0.047 0.023 c 0 0.016 0.008 0.027 0.02 0.027 c 0.012 0 0.02 0.012 0.02 0.02 c 0 0.016 0.016 0.02 0.039 0.02 c 0.031 0 0.043 0.008 0.043 0.027 c 0 0.016 0.008 0.027 0.02 0.027 c 0.012 0 0.02 0.008 0.02 0.02 c 0 0.016 0.016 0.02 0.047 0.02 c 0.031 0 0.047 0.008 0.047 0.02 c 0 0.012 0.008 0.02 0.02 0.02 c 0.012 0 0.02 0.012 0.02 0.027 c 0 0.016 0.008 0.027 0.02 0.027 c 0.012 0 0.02 0.008 0.02 0.02 c 0 0.012 0.012 0.02 0.023 0.02 c 0.008 0 0.02 0.012 0.02 0.027 c 0 0.016 0.008 0.027 0.023 0.027 c 0.016 0 0.027 0.008 0.027 0.02 c 0 0.012 0.012 0.02 0.02 0.02 c 0.012 0 0.023 0.008 0.023 0.02 c 0 0.012 0.008 0.02 0.02 0.02 c 0.012 0 0.02 0.016 0.02 0.047 c 0 0.031 0.004 0.047 0.02 0.047 c 0.012 0 0.02 0.012 0.02 0.027 c 0 0.012 0.008 0.023 0.02 0.023 c 0.012 0 0.02 0.012 0.02 0.02 c 0 0.012 0.012 0.023 0.023 0.023 c 0.012 0 0.02 0.012 0.02 0.043 c 0 0.039 0.004 0.047 0.027 0.047 c 0.012 0 0.023 0.012 0.023 0.02 c 0 0.012 0.012 0.02 0.02 0.02 c 0.016 0 0.023 0.016 0.023 0.047 c 0 0.035 0.004 0.047 0.02 0.047 c 0.012 0 0.02 0.016 0.02 0.047 c 0 0.031 0.004 0.047 0.02 0.047 c 0.016 0 0.02 0.016 0.02 0.047 c 0 0.031 0.008 0.047 0.02 0.047 c 0.016 0 0.02 0.012 0.02 0.039 c 0 0.031 0.008 0.039 0.027 0.039 c 0.023 0 0.027 0.008 0.027 0.074 c 0 0.055 0.004 0.07 0.02 0.07 c 0.016 0 0.02 0.016 0.02 0.066 c 0 0.051 0.008 0.066 0.023 0.066 c 0.016 0 0.02 0.02 0.02 0.086 c 0 0.07 0.004 0.086 0.02 0.086 c 0.016 0 0.02 0.031 0.02 0.18 c 0 0.148 0.004 0.18 0.02 0.188 c 0.016 0.008 0.02 0.059 0.02 0.336 c 0 0.285 -0.004 0.332 -0.02 0.332 c -0.016 0 -0.02 0.027 -0.02 0.18 c 0 0.148 -0.004 0.176 -0.02 0.176 c -0.016 0 -0.02 0.02 -0.02 0.094 c 0 0.074 -0.004 0.094 -0.02 0.094 c -0.016 0 -0.023 0.016 -0.023 0.066 c 0 0.051 -0.004 0.066 -0.02 0.066 c -0.016 0 -0.02 0.016 -0.02 0.066 c 0 0.055 -0.004 0.066 -0.027 0.066 c -0.02 0 -0.027 0.008 -0.027 0.047 c 0 0.031 -0.004 0.043 -0.02 0.043 c -0.012 0 -0.02 0.012 -0.02 0.02 c 0 0.012 -0.008 0.023 -0.02 0.027 c -0.012 0.004 -0.02 0.023 -0.02 0.047 c 0 0.027 -0.008 0.039 -0.02 0.039 c -0.012 0 -0.02 0.012 -0.02 0.027 c 0 0.016 -0.012 0.027 -0.023 0.027 c -0.008 0 -0.02 0.008 -0.02 0.02 c 0 0.012 -0.012 0.02 -0.023 0.02 c -0.016 0 -0.027 0.008 -0.027 0.02 c 0 0.012 -0.012 0.02 -0.02 0.02 c -0.012 0 -0.023 0.012 -0.023 0.027 c 0 0.016 -0.008 0.027 -0.02 0.027 c -0.012 0 -0.02 0.008 -0.02 0.02 c 0 0.008 -0.016 0.02 -0.039 0.027 c -0.023 0.004 -0.039 0.016 -0.039 0.027 c 0 0.008 -0.012 0.02 -0.023 0.02 c -0.008 0 -0.02 0.008 -0.02 0.02 c 0 0.012 -0.012 0.02 -0.047 0.02 c -0.031 0 -0.047 0.004 -0.047 0.02 c 0 0.012 -0.012 0.02 -0.039 0.02 c -0.031 0 -0.039 0.004 -0.039 0.027 c 0 0.023 -0.008 0.023 -0.066 0.023 c -0.051 0 -0.066 0.008 -0.066 0.023 c 0 0.012 -0.016 0.02 -0.063 0.02 c -0.051 0 -0.059 0.004 -0.059 0.023 c 0 0.027 -0.008 0.027 -0.105 0.027 c -0.086 0 -0.109 0.004 -0.109 0.02 c 0 0.016 -0.023 0.02 -0.145 0.02 c -0.125 0 -0.148 0.004 -0.148 0.02 c 0 0.02 -0.055 0.023 -0.406 0.023 c -0.355 0 -0.41 -0.004 -0.41 -0.023 m 1.242 -0.527 c 0 -0.016 0.02 -0.02 0.09 -0.02 c 0.078 0 0.086 -0.004 0.086 -0.027 c 0 -0.023 0.008 -0.027 0.059 -0.027 c 0.047 0 0.063 -0.004 0.063 -0.02 c 0 -0.012 0.012 -0.02 0.039 -0.02 c 0.031 0 0.039 -0.004 0.039 -0.027 c 0 -0.016 0.008 -0.027 0.027 -0.027 c 0.016 0 0.027 -0.008 0.027 -0.02 c 0 -0.008 0.008 -0.02 0.02 -0.02 c 0.012 0 0.02 -0.008 0.02 -0.02 c 0 -0.012 0.008 -0.02 0.02 -0.02 c 0.012 0 0.02 -0.012 0.02 -0.027 c 0 -0.012 0.012 -0.023 0.02 -0.023 c 0.012 0 0.023 -0.012 0.023 -0.023 c 0 -0.008 0.008 -0.02 0.02 -0.02 c 0.012 0 0.02 -0.012 0.02 -0.047 c 0 -0.035 0.004 -0.043 0.027 -0.043 c 0.023 0 0.023 -0.012 0.023 -0.066 c 0 -0.047 0.008 -0.066 0.023 -0.074 c 0.016 -0.004 0.02 -0.066 0.02 -0.43 c 0 -0.367 -0.004 -0.426 -0.02 -0.426 c -0.02 0 -0.023 -0.023 -0.023 -0.148 c 0 -0.164 -0.004 -0.207 -0.031 -0.207 c -0.016 0 -0.02 -0.023 -0.02 -0.094 c 0 -0.074 -0.004 -0.094 -0.02 -0.094 c -0.016 0 -0.02 -0.02 -0.02 -0.09 c 0 -0.074 -0.004 -0.094 -0.023 -0.094 c -0.012 0 -0.02 -0.016 -0.02 -0.066 c 0 -0.051 -0.004 -0.066 -0.02 -0.066 c -0.012 0 -0.02 -0.016 -0.02 -0.047 c 0 -0.031 -0.008 -0.047 -0.02 -0.047 c -0.016 0 -0.02 -0.012 -0.02 -0.039 c 0 -0.031 -0.008 -0.039 -0.027 -0.039 c -0.023 0 -0.027 -0.008 -0.027 -0.047 c 0 -0.031 -0.004 -0.047 -0.02 -0.047 c -0.016 0 -0.02 -0.016 -0.02 -0.047 c 0 -0.031 -0.008 -0.047 -0.02 -0.047 c -0.012 0 -0.02 -0.008 -0.02 -0.02 c 0 -0.012 -0.012 -0.02 -0.023 -0.02 c -0.012 0 -0.02 -0.012 -0.02 -0.047 c 0 -0.031 -0.004 -0.047 -0.02 -0.047 c -0.012 0 -0.02 -0.012 -0.02 -0.023 c 0 -0.016 -0.008 -0.027 -0.02 -0.027 c -0.012 0 -0.02 -0.008 -0.02 -0.02 c 0 -0.012 -0.012 -0.02 -0.027 -0.02 c -0.016 0 -0.027 -0.012 -0.027 -0.02 c 0 -0.012 -0.008 -0.023 -0.02 -0.023 c -0.012 0 -0.02 -0.012 -0.02 -0.023 c 0 -0.016 -0.008 -0.027 -0.02 -0.027 c -0.012 0 -0.02 -0.008 -0.02 -0.02 c 0 -0.012 -0.012 -0.02 -0.023 -0.02 c -0.008 0 -0.02 -0.012 -0.02 -0.027 c 0 -0.016 -0.008 -0.027 -0.02 -0.027 c -0.012 0 -0.02 -0.008 -0.02 -0.02 c 0 -0.012 -0.012 -0.02 -0.027 -0.02 c -0.016 0 -0.027 -0.008 -0.027 -0.02 c 0 -0.012 -0.008 -0.02 -0.02 -0.02 c -0.012 0 -0.02 -0.012 -0.02 -0.027 c 0 -0.02 -0.008 -0.027 -0.039 -0.027 c -0.027 0 -0.039 -0.004 -0.039 -0.02 c 0 -0.012 -0.016 -0.02 -0.047 -0.02 c -0.039 0 -0.047 -0.004 -0.047 -0.027 c 0 -0.02 -0.012 -0.023 -0.043 -0.023 c -0.027 0 -0.039 -0.008 -0.039 -0.023 c 0 -0.012 -0.012 -0.02 -0.039 -0.02 c -0.027 0 -0.039 -0.004 -0.039 -0.02 c 0 -0.016 -0.02 -0.02 -0.07 -0.02 c -0.055 0 -0.066 -0.004 -0.066 -0.027 c 0 -0.023 -0.008 -0.023 -0.105 -0.023 c -0.086 0 -0.105 -0.004 -0.105 -0.02 c 0 -0.02 -0.051 -0.023 -0.383 -0.023 c -0.328 0 -0.379 0.004 -0.379 0.023 c 0 0.016 -0.02 0.02 -0.09 0.02 c -0.074 0 -0.086 0 -0.086 0.023 c 0 0.023 -0.008 0.027 -0.047 0.027 c -0.031 0 -0.047 0.008 -0.047 0.02 c 0 0.012 -0.02 0.02 -0.055 0.023 c -0.031 0.004 -0.059 0.016 -0.063 0.023 c 0 0.008 -0.016 0.016 -0.031 0.016 c -0.016 0 -0.023 0.008 -0.023 0.023 c 0 0.023 -0.008 0.027 -0.039 0.027 c -0.027 0 -0.043 0.008 -0.043 0.02 c 0 0.012 -0.008 0.02 -0.02 0.02 c -0.012 0 -0.02 0.012 -0.02 0.027 c 0 0.016 -0.008 0.027 -0.02 0.027 c -0.012 0 -0.02 0.008 -0.02 0.02 c 0 0.012 -0.008 0.02 -0.02 0.02 c -0.012 0 -0.02 0.008 -0.02 0.02 c 0 0.012 -0.012 0.02 -0.027 0.02 c -0.02 0 -0.027 0.008 -0.027 0.027 c 0 0.016 -0.008 0.027 -0.02 0.027 c -0.012 0 -0.02 0.008 -0.02 0.02 c 0 0.012 -0.012 0.02 -0.023 0.02 c -0.012 0 -0.02 0.016 -0.02 0.047 c 0 0.031 -0.004 0.047 -0.02 0.047 c -0.012 0 -0.02 0.008 -0.02 0.02 c 0 0.012 -0.008 0.02 -0.02 0.02 c -0.016 0 -0.02 0.012 -0.02 0.047 c 0 0.035 -0.008 0.047 -0.027 0.047 c -0.023 0 -0.027 0.008 -0.027 0.043 c 0 0.027 -0.008 0.047 -0.02 0.055 c -0.016 0.004 -0.02 0.023 -0.02 0.066 c 0 0.043 -0.004 0.059 -0.02 0.059 c -0.016 0 -0.02 0.02 -0.02 0.074 c 0 0.055 -0.008 0.074 -0.023 0.074 c -0.016 0 -0.02 0.023 -0.02 0.129 c 0 0.109 -0.004 0.133 -0.02 0.133 c -0.016 0 -0.02 0.047 -0.02 0.34 c 0 0.289 0.004 0.336 0.02 0.336 c 0.016 0 0.02 0.023 0.02 0.113 c 0 0.086 0.004 0.113 0.02 0.113 c 0.012 0 0.02 0.02 0.023 0.063 c 0.008 0.035 0.016 0.063 0.023 0.066 c 0.008 0.004 0.016 0.027 0.016 0.051 c 0 0.031 0.004 0.047 0.02 0.047 c 0.016 0 0.02 0.012 0.02 0.043 c 0 0.039 0.004 0.047 0.027 0.047 c 0.02 0 0.027 0.012 0.027 0.039 c 0 0.027 0.004 0.043 0.02 0.043 c 0.012 0 0.02 0.012 0.02 0.023 c 0 0.016 0.008 0.027 0.02 0.027 c 0.012 0 0.02 0.012 0.02 0.027 c 0 0.016 0.012 0.027 0.02 0.027 c 0.016 0 0.023 0.012 0.023 0.039 c 0 0.027 0.004 0.039 0.02 0.039 c 0.012 0 0.02 0.012 0.02 0.027 c 0 0.016 0.008 0.027 0.027 0.027 c 0.012 0 0.027 0.008 0.027 0.02 c 0 0.012 0.008 0.02 0.02 0.02 c 0.008 0 0.02 0.012 0.02 0.027 c 0 0.012 0.008 0.023 0.02 0.023 c 0.012 0 0.02 0.012 0.02 0.023 c 0 0.008 0.008 0.02 0.02 0.02 c 0.012 0 0.02 0.008 0.02 0.02 c 0 0.012 0.016 0.02 0.043 0.02 c 0.031 0 0.039 0.004 0.039 0.027 c 0 0.016 0.008 0.023 0.027 0.023 c 0.012 0 0.027 0.012 0.027 0.02 c 0 0.012 0.008 0.023 0.02 0.023 c 0.008 0 0.02 0.008 0.02 0.016 c 0 0.012 0.016 0.023 0.039 0.027 c 0.023 0.008 0.039 0.02 0.039 0.027 c 0 0.016 0.016 0.02 0.047 0.02 c 0.035 0 0.047 0.008 0.047 0.02 c 0 0.016 0.016 0.02 0.039 0.02 c 0.031 0 0.043 0.008 0.043 0.027 c 0 0.023 0.008 0.027 0.066 0.027 c 0.051 0 0.066 0.004 0.066 0.02 c 0 0.016 0.016 0.02 0.059 0.02 c 0.051 0 0.063 0.004 0.063 0.027 c 0 0.023 0.008 0.027 0.086 0.027 c 0.066 0 0.086 0.004 0.086 0.02 c 0 0.016 0.078 0.02 0.621 0.02 c 0.543 0 0.621 -0.004 0.621 -0.02"/><path d="m 7.77 9.813 c 0 -0.02 -0.023 -0.023 -0.129 -0.023 c -0.102 0 -0.125 0 -0.125 -0.02 c 0 -0.016 -0.02 -0.02 -0.086 -0.02 c -0.078 0 -0.09 0 -0.09 -0.027 c 0 -0.02 -0.008 -0.023 -0.039 -0.023 c -0.027 0 -0.039 -0.008 -0.039 -0.02 c 0 -0.016 -0.016 -0.02 -0.047 -0.02 c -0.039 0 -0.047 -0.008 -0.047 -0.027 c 0 -0.023 -0.008 -0.027 -0.039 -0.027 c -0.027 0 -0.043 -0.008 -0.043 -0.02 c 0 -0.016 -0.012 -0.02 -0.039 -0.02 c -0.027 0 -0.039 -0.008 -0.039 -0.02 c 0 -0.012 -0.008 -0.02 -0.02 -0.02 c -0.012 0 -0.02 -0.012 -0.02 -0.027 c 0 -0.023 -0.012 -0.027 -0.047 -0.027 c -0.035 0 -0.047 -0.008 -0.047 -0.02 c 0 -0.012 -0.012 -0.02 -0.02 -0.02 c -0.012 0 -0.023 -0.012 -0.023 -0.027 c 0 -0.016 -0.008 -0.027 -0.02 -0.027 c -0.012 0 -0.02 -0.008 -0.02 -0.02 c 0 -0.012 -0.008 -0.02 -0.02 -0.02 c -0.012 0 -0.02 -0.008 -0.02 -0.02 c 0 -0.012 -0.012 -0.02 -0.027 -0.02 c -0.016 0 -0.027 -0.008 -0.027 -0.027 c 0 -0.016 -0.008 -0.027 -0.02 -0.027 c -0.012 0 -0.02 -0.012 -0.02 -0.039 c 0 -0.027 -0.008 -0.039 -0.02 -0.039 c -0.012 0 -0.02 -0.012 -0.02 -0.027 c 0 -0.016 -0.012 -0.027 -0.02 -0.027 c -0.012 0 -0.023 -0.008 -0.023 -0.02 c 0 -0.008 -0.008 -0.02 -0.02 -0.02 c -0.012 0 -0.02 -0.012 -0.02 -0.047 c 0 -0.035 -0.004 -0.043 -0.027 -0.043 c -0.02 0 -0.027 -0.012 -0.027 -0.047 c 0 -0.035 -0.004 -0.047 -0.02 -0.047 c -0.012 0 -0.02 -0.016 -0.02 -0.047 c 0 -0.031 -0.004 -0.047 -0.02 -0.047 c -0.016 0 -0.02 -0.016 -0.02 -0.066 c 0 -0.047 -0.004 -0.066 -0.02 -0.066 c -0.016 0 -0.02 -0.027 -0.023 -0.129 c -0.004 -0.086 -0.008 -0.129 -0.02 -0.133 c -0.012 -0.004 -0.02 -0.051 -0.02 -0.184 c 0 -0.148 0.004 -0.176 0.023 -0.176 c 0.016 0 0.02 -0.023 0.02 -0.121 c 0 -0.098 0.004 -0.117 0.02 -0.117 c 0.016 0 0.02 -0.02 0.02 -0.086 c 0 -0.07 0.004 -0.086 0.02 -0.086 c 0.016 0 0.02 -0.016 0.02 -0.047 c 0 -0.031 0.008 -0.047 0.02 -0.047 c 0.016 0 0.023 -0.016 0.023 -0.047 c 0 -0.031 0.004 -0.047 0.016 -0.047 c 0.012 0 0.023 -0.016 0.027 -0.039 c 0.008 -0.023 0.02 -0.039 0.031 -0.039 c 0.012 0 0.016 -0.016 0.016 -0.047 c 0 -0.031 0.008 -0.047 0.023 -0.047 c 0.008 0 0.02 -0.008 0.02 -0.02 c 0 -0.012 0.008 -0.02 0.02 -0.02 c 0.012 0 0.02 -0.016 0.02 -0.047 c 0 -0.031 0.008 -0.047 0.02 -0.047 c 0.012 0 0.02 -0.008 0.02 -0.02 c 0 -0.012 0.012 -0.02 0.027 -0.02 c 0.02 0 0.027 -0.008 0.027 -0.027 c 0 -0.016 0.008 -0.027 0.02 -0.027 c 0.012 0 0.02 -0.008 0.02 -0.02 c 0 -0.008 0.012 -0.02 0.02 -0.02 c 0.012 0 0.02 -0.012 0.02 -0.027 c 0 -0.02 0.012 -0.023 0.043 -0.023 c 0.027 0 0.039 -0.008 0.039 -0.02 c 0 -0.012 0.012 -0.023 0.027 -0.023 c 0.016 0 0.027 -0.008 0.027 -0.02 c 0 -0.012 0.012 -0.02 0.039 -0.02 c 0.031 0 0.039 -0.004 0.039 -0.023 c 0 -0.023 0.008 -0.027 0.039 -0.027 c 0.027 0 0.043 -0.008 0.043 -0.02 c 0 -0.016 0.012 -0.02 0.047 -0.02 c 0.035 0 0.047 -0.008 0.047 -0.027 c 0 -0.023 0.008 -0.027 0.059 -0.027 c 0.043 0 0.059 -0.004 0.059 -0.02 c 0 -0.016 0.031 -0.02 0.145 -0.023 c 0.098 -0.004 0.145 -0.008 0.148 -0.02 c 0.004 -0.012 0.043 -0.016 0.129 -0.016 c 0.105 0 0.129 0.004 0.129 0.02 c 0 0.016 0.023 0.02 0.133 0.02 c 0.109 0 0.133 0.004 0.133 0.02 c 0 0.016 0.016 0.02 0.078 0.02 c 0.074 0 0.082 0.004 0.082 0.027 c 0 0.02 0.008 0.027 0.039 0.027 c 0.027 0 0.039 0.004 0.039 0.02 c 0 0.012 0.016 0.02 0.047 0.02 c 0.039 0 0.047 0.004 0.047 0.027 c 0 0.02 0.012 0.023 0.043 0.023 c 0.023 0 0.039 0.008 0.039 0.02 c 0 0.016 0.016 0.02 0.047 0.02 c 0.031 0 0.047 0.008 0.047 0.023 c 0 0.008 0.008 0.02 0.02 0.02 c 0.012 0 0.02 0.012 0.02 0.023 c 0 0.016 0.008 0.027 0.02 0.027 c 0.012 0 0.02 0.012 0.02 0.02 c 0 0.012 0.012 0.02 0.023 0.02 c 0.008 0 0.02 0.012 0.02 0.027 c 0 0.016 0.004 0.027 0.012 0.027 c 0.02 0 0.066 0.051 0.066 0.066 c 0 0.008 0.012 0.012 0.027 0.012 c 0.02 0 0.027 0.012 0.027 0.027 c 0 0.016 0.008 0.027 0.02 0.027 c 0.012 0 0.02 0.008 0.02 0.02 c 0 0.012 0.008 0.02 0.02 0.02 c 0.012 0 0.02 0.012 0.02 0.027 c 0 0.016 0.012 0.027 0.023 0.027 c 0.012 0 0.02 0.012 0.02 0.039 c 0 0.027 0.004 0.039 0.02 0.039 c 0.012 0 0.02 0.016 0.02 0.047 c 0 0.035 0.004 0.047 0.027 0.047 c 0.02 0 0.027 0.008 0.027 0.047 c 0 0.031 0.004 0.043 0.02 0.043 c 0.012 0 0.02 0.016 0.02 0.047 c 0 0.035 0.004 0.047 0.02 0.047 c 0.016 0 0.02 0.016 0.02 0.047 c 0 0.031 0.008 0.047 0.02 0.047 c 0.016 0 0.02 0.02 0.02 0.086 c 0 0.066 0.008 0.086 0.023 0.086 c 0.016 0 0.02 0.027 0.02 0.16 c 0 0.148 0 0.156 0.027 0.156 c 0.023 0 0.023 0.012 0.023 0.266 c 0 0.25 0 0.262 -0.023 0.27 c -0.027 0.008 -0.027 0.02 -0.027 0.16 c 0 0.129 -0.004 0.152 -0.02 0.152 c -0.016 0 -0.023 0.02 -0.023 0.066 c 0 0.051 -0.004 0.066 -0.02 0.066 c -0.012 0 -0.02 0.016 -0.02 0.047 c 0 0.035 -0.004 0.047 -0.02 0.047 c -0.012 0 -0.02 0.012 -0.02 0.027 c 0 0.016 -0.008 0.027 -0.02 0.027 c -0.016 0 -0.02 0.012 -0.02 0.039 c 0 0.031 -0.008 0.039 -0.027 0.039 c -0.02 0 -0.027 0.008 -0.027 0.027 c 0 0.016 -0.008 0.027 -0.02 0.027 c -0.012 0 -0.02 0.008 -0.02 0.02 c 0 0.008 -0.012 0.02 -0.02 0.02 c -0.012 0 -0.023 0.008 -0.023 0.02 c 0 0.012 -0.012 0.02 -0.039 0.02 c -0.031 0 -0.039 0.004 -0.039 0.027 c 0 0.02 -0.008 0.027 -0.039 0.027 c -0.027 0 -0.043 0.004 -0.043 0.02 c 0 0.012 -0.012 0.02 -0.047 0.02 c -0.035 0 -0.047 0.004 -0.047 0.023 c 0 0.023 -0.008 0.027 -0.066 0.027 c -0.051 0 -0.066 0.008 -0.066 0.02 c 0 0.02 -0.023 0.02 -0.141 0.02 c -0.113 0 -0.141 0.004 -0.141 0.023 c 0 0.016 -0.039 0.02 -0.277 0.02 c -0.242 0 -0.281 -0.004 -0.281 -0.02 m 0.68 -0.305 c 0 -0.016 0.016 -0.023 0.066 -0.023 c 0.059 0 0.066 0 0.066 -0.023 c 0 -0.023 0.012 -0.027 0.043 -0.027 c 0.023 0 0.039 -0.008 0.039 -0.02 c 0 -0.016 0.012 -0.02 0.039 -0.02 c 0.031 0 0.039 -0.008 0.039 -0.027 c 0 -0.02 0.012 -0.027 0.027 -0.027 c 0.016 0 0.027 -0.008 0.027 -0.02 c 0 -0.012 0.008 -0.02 0.012 -0.02 c 0.008 0 0.02 -0.02 0.023 -0.047 c 0.004 -0.027 0.016 -0.047 0.027 -0.047 c 0.012 0 0.02 -0.02 0.02 -0.066 c 0 -0.051 0.004 -0.066 0.02 -0.066 c 0.016 0 0.02 -0.059 0.02 -0.469 c 0 -0.391 -0.004 -0.469 -0.02 -0.469 c -0.012 0 -0.02 -0.027 -0.023 -0.09 c -0.004 -0.051 -0.012 -0.09 -0.023 -0.094 c -0.008 -0.004 -0.016 -0.027 -0.016 -0.051 c 0 -0.031 -0.004 -0.047 -0.02 -0.047 c -0.012 0 -0.02 -0.012 -0.02 -0.047 c 0 -0.035 -0.004 -0.043 -0.027 -0.043 c -0.02 0 -0.027 -0.012 -0.027 -0.047 c 0 -0.035 -0.004 -0.047 -0.02 -0.047 c -0.012 0 -0.02 -0.016 -0.02 -0.047 c 0 -0.031 -0.004 -0.047 -0.02 -0.047 c -0.012 0 -0.02 -0.008 -0.02 -0.02 c 0 -0.012 -0.008 -0.02 -0.02 -0.02 c -0.012 0 -0.02 -0.008 -0.02 -0.02 c 0 -0.012 -0.012 -0.02 -0.023 -0.02 c -0.008 0 -0.02 -0.012 -0.02 -0.027 c 0 -0.02 -0.008 -0.027 -0.023 -0.027 c -0.016 0 -0.027 -0.008 -0.027 -0.02 c 0 -0.012 -0.012 -0.02 -0.02 -0.02 c -0.012 0 -0.023 -0.012 -0.023 -0.027 c 0 -0.016 -0.008 -0.027 -0.02 -0.027 c -0.012 0 -0.02 -0.008 -0.02 -0.02 c 0 -0.012 -0.012 -0.02 -0.039 -0.02 c -0.027 0 -0.039 -0.004 -0.039 -0.02 c 0 -0.012 -0.016 -0.02 -0.047 -0.02 c -0.039 0 -0.047 -0.004 -0.047 -0.027 c 0 -0.02 -0.012 -0.023 -0.043 -0.023 c -0.023 0 -0.039 -0.008 -0.039 -0.023 c 0 -0.012 -0.012 -0.02 -0.039 -0.02 c -0.031 0 -0.039 -0.004 -0.039 -0.023 c 0 -0.023 -0.012 -0.027 -0.09 -0.027 c -0.066 0 -0.086 -0.004 -0.086 -0.02 c 0 -0.02 -0.039 -0.023 -0.336 -0.02 c -0.254 0.004 -0.336 0.008 -0.34 0.023 c -0.004 0.008 -0.027 0.016 -0.051 0.016 c -0.039 0 -0.047 0.004 -0.047 0.027 c 0 0.02 -0.008 0.023 -0.039 0.023 c -0.027 0 -0.043 0.008 -0.043 0.02 c 0 0.012 -0.012 0.023 -0.023 0.023 c -0.02 0 -0.027 0.008 -0.027 0.023 c 0 0.023 -0.012 0.027 -0.043 0.027 c -0.023 0 -0.039 0.008 -0.039 0.02 c 0 0.012 -0.008 0.02 -0.02 0.02 c -0.012 0 -0.02 0.012 -0.02 0.02 c 0 0.012 -0.008 0.02 -0.02 0.02 c -0.012 0 -0.02 0.012 -0.02 0.027 c 0 0.016 -0.012 0.027 -0.02 0.027 c -0.012 0 -0.023 0.02 -0.031 0.047 c -0.004 0.027 -0.016 0.047 -0.027 0.047 c -0.012 0 -0.016 0.016 -0.016 0.039 c 0 0.027 -0.008 0.039 -0.02 0.039 c -0.016 0 -0.023 0.016 -0.023 0.047 c 0 0.031 -0.004 0.047 -0.02 0.047 c -0.012 0 -0.02 0.012 -0.02 0.047 c 0 0.031 -0.004 0.047 -0.02 0.047 c -0.016 0 -0.02 0.02 -0.02 0.09 c 0 0.074 -0.004 0.094 -0.02 0.094 c -0.02 0 -0.02 0.047 -0.02 0.34 c 0 0.289 0 0.336 0.02 0.336 c 0.016 0 0.02 0.016 0.02 0.066 c 0 0.051 0.004 0.066 0.02 0.066 c 0.016 0 0.02 0.016 0.02 0.047 c 0 0.031 0.008 0.047 0.02 0.047 c 0.016 0 0.02 0.012 0.02 0.039 c 0 0.023 0.012 0.043 0.023 0.047 c 0.008 0.004 0.02 0.016 0.02 0.027 c 0 0.008 0.008 0.02 0.016 0.02 c 0.012 0 0.023 0.02 0.027 0.043 c 0.008 0.031 0.02 0.047 0.031 0.047 c 0.008 0 0.02 0.012 0.02 0.027 c 0 0.016 0.008 0.027 0.02 0.027 c 0.012 0 0.02 0.008 0.02 0.02 c 0 0.012 0.008 0.02 0.02 0.02 c 0.012 0 0.02 0.008 0.02 0.02 c 0 0.016 0.016 0.02 0.039 0.02 c 0.031 0 0.043 0.008 0.043 0.027 c 0 0.02 0.008 0.027 0.027 0.027 c 0.012 0 0.023 0.008 0.023 0.02 c 0 0.012 0.012 0.02 0.023 0.02 c 0.008 0 0.02 0.008 0.02 0.02 c 0 0.012 0.012 0.02 0.039 0.02 c 0.031 0 0.039 0.008 0.039 0.027 c 0 0.02 0.008 0.027 0.047 0.027 c 0.031 0 0.047 0.004 0.047 0.02 c 0 0.016 0.016 0.02 0.059 0.02 c 0.055 0 0.063 0.004 0.063 0.027 c 0 0.023 0.008 0.023 0.086 0.023 c 0.07 0 0.086 0.008 0.086 0.023 c 0 0.016 0.059 0.02 0.43 0.02 c 0.371 0 0.426 -0.004 0.426 -0.02"/></g></g></svg>