<svg xmlns="http://www.w3.org/2000/svg" viewBox="0 0 16 16"><path d="m 12.141 1.902 c 14.258 13.254 -15.16 21.602 -11.918 4.01 c 1.598 -4.641 7.344 -8.262 11.918 -4.01" fill="#2f4e4e"/><g fill="#fff" fill-rule="evenodd"><path d="m 11.27 12.875 c 0 -0.059 -0.004 -0.078 -0.023 -0.078 c -0.02 0 -0.027 -0.016 -0.027 -0.043 c 0 -0.027 -0.012 -0.047 -0.027 -0.047 c -0.02 0 -0.027 -0.02 -0.027 -0.078 c 0 -0.059 -0.008 -0.082 -0.027 -0.082 c -0.02 0 -0.027 -0.016 -0.027 -0.043 c 0 -0.027 -0.012 -0.043 -0.027 -0.043 c -0.02 0 -0.027 -0.02 -0.027 -0.055 c 0 -0.027 -0.008 -0.055 -0.02 -0.055 c -0.008 0 -0.016 -0.02 -0.016 -0.043 c 0 -0.027 -0.012 -0.043 -0.027 -0.043 c -0.016 0 -0.027 -0.02 -0.027 -0.047 c 0 -0.023 -0.012 -0.047 -0.027 -0.055 c -0.016 -0.004 -0.027 -0.02 -0.027 -0.035 c 0 -0.012 -0.012 -0.023 -0.027 -0.023 c -0.016 0 -0.027 -0.016 -0.027 -0.047 c 0 -0.027 -0.008 -0.043 -0.027 -0.043 c -0.016 0 -0.027 -0.016 -0.027 -0.055 c 0 -0.035 -0.008 -0.051 -0.027 -0.051 c -0.012 0 -0.027 -0.012 -0.027 -0.027 c 0 -0.016 -0.008 -0.027 -0.016 -0.027 c -0.035 0 -0.074 -0.047 -0.074 -0.094 c 0 -0.031 -0.008 -0.047 -0.027 -0.047 c -0.012 0 -0.023 -0.012 -0.023 -0.027 c 0 -0.016 -0.016 -0.027 -0.027 -0.027 c -0.016 0 -0.027 -0.012 -0.027 -0.027 c 0 -0.012 -0.012 -0.023 -0.027 -0.023 c -0.016 0 -0.027 -0.008 -0.027 -0.02 c 0 -0.008 -0.012 -0.02 -0.027 -0.02 c -0.016 0 -0.027 -0.012 -0.027 -0.023 c 0 -0.02 -0.016 -0.027 -0.047 -0.027 c -0.027 0 -0.043 -0.012 -0.043 -0.027 c 0 -0.016 -0.012 -0.027 -0.027 -0.027 c -0.016 0 -0.027 -0.012 -0.027 -0.027 c 0 -0.016 -0.02 -0.023 -0.055 -0.023 c -0.055 0 -0.07 -0.027 -0.027 -0.043 c 0.016 -0.008 0.027 -0.031 0.027 -0.055 c 0 -0.027 0.012 -0.047 0.027 -0.047 c 0.016 0 0.027 -0.016 0.027 -0.043 c 0 -0.027 0.012 -0.043 0.027 -0.043 c 0.02 0 0.027 -0.02 0.027 -0.055 c 0 -0.031 0.008 -0.055 0.02 -0.055 c 0.008 0 0.016 -0.012 0.016 -0.027 c 0 -0.012 0.012 -0.023 0.027 -0.023 c 0.02 0 0.027 -0.02 0.027 -0.074 c 0 -0.051 0.008 -0.07 0.027 -0.07 c 0.02 0 0.027 -0.016 0.027 -0.051 c 0 -0.035 0.008 -0.055 0.027 -0.055 c 0.02 0 0.027 -0.02 0.027 -0.07 c 0 -0.051 0.008 -0.07 0.027 -0.07 c 0.02 0 0.027 -0.02 0.027 -0.074 c 0 -0.039 0.008 -0.07 0.016 -0.07 c 0.012 0 0.02 0.008 0.02 0.02 c 0 0.008 0.012 0.016 0.027 0.016 c 0.016 0 0.027 0.02 0.027 0.047 c 0 0.027 0.008 0.043 0.027 0.043 c 0.012 0 0.027 0.016 0.027 0.035 c 0 0.02 0.008 0.035 0.016 0.035 c 0.027 0 0.074 0.047 0.074 0.07 c 0 0.012 0.012 0.02 0.027 0.02 c 0.016 0 0.023 0.016 0.023 0.047 c 0 0.023 0.016 0.047 0.027 0.055 c 0.016 0.004 0.027 0.02 0.027 0.035 c 0 0.012 0.012 0.023 0.027 0.023 c 0.016 0 0.027 0.008 0.027 0.016 c 0 0.012 0.012 0.02 0.027 0.02 c 0.016 0 0.027 0.012 0.027 0.027 c 0 0.016 0.012 0.027 0.027 0.027 c 0.02 0 0.027 0.02 0.027 0.078 c 0 0.078 0 0.082 0.055 0.082 c 0.035 0 0.055 -0.012 0.055 -0.027 c 0 -0.012 0.02 -0.027 0.043 -0.035 c 0.027 -0.008 0.047 -0.02 0.047 -0.027 c 0 -0.012 0.012 -0.02 0.027 -0.02 c 0.012 0 0.027 -0.012 0.027 -0.027 c 0 -0.012 0.012 -0.023 0.023 -0.023 c 0.016 0 0.027 -0.012 0.027 -0.027 c 0 -0.016 0.016 -0.027 0.027 -0.027 c 0.016 0 0.027 -0.008 0.027 -0.02 c 0 -0.008 0.012 -0.016 0.027 -0.016 c 0.016 0 0.027 -0.012 0.027 -0.027 c 0 -0.016 0.012 -0.027 0.027 -0.027 c 0.016 0 0.027 -0.012 0.027 -0.027 c 0 -0.012 0.012 -0.023 0.027 -0.023 c 0.016 0 0.027 -0.012 0.027 -0.027 c 0 -0.016 0.008 -0.027 0.016 -0.027 c 0.012 0 0.02 -0.012 0.02 -0.027 c 0 -0.016 0.012 -0.027 0.027 -0.027 c 0.023 0 0.027 -0.102 0.027 -0.816 v -0.816 h -0.047 c -0.027 0 -0.043 -0.008 -0.043 -0.023 c 0 -0.02 -0.023 -0.027 -0.082 -0.027 c -0.059 0 -0.082 0.008 -0.082 0.027 c 0 0.02 -0.031 0.023 -0.18 0.023 c -0.148 0 -0.18 0.008 -0.18 0.027 c 0 0.02 -0.02 0.027 -0.082 0.027 c -0.043 0 -0.082 0.008 -0.082 0.02 c 0 0.008 -0.031 0.016 -0.07 0.016 c -0.051 0 -0.074 0.008 -0.074 0.027 c 0 0.02 -0.016 0.027 -0.051 0.027 c -0.039 0 -0.055 0.008 -0.055 0.027 c 0 0.016 -0.02 0.023 -0.055 0.023 c -0.035 0 -0.055 0.012 -0.055 0.027 c 0 0.02 -0.016 0.027 -0.047 0.027 c -0.027 0 -0.043 0.012 -0.043 0.027 c 0 0.016 -0.012 0.027 -0.027 0.027 c -0.016 0 -0.027 0.008 -0.027 0.016 c 0 0.012 -0.012 0.02 -0.027 0.02 c -0.02 0 -0.027 -0.027 -0.027 -0.117 c 0 -0.09 0.008 -0.113 0.027 -0.113 c 0.023 0 0.027 -0.043 0.027 -0.277 c 0 -0.23 -0.004 -0.273 -0.027 -0.273 c -0.023 0 -0.027 -0.043 -0.027 -0.293 v -0.293 h 0.441 c 0.367 0 0.445 -0.004 0.469 -0.027 c 0.02 -0.02 0.07 -0.027 0.199 -0.027 c 0.141 0 0.172 -0.004 0.172 -0.027 c 0 -0.012 0.012 -0.023 0.027 -0.023 c 0.023 0 0.027 -0.098 0.027 -0.773 c 0 -0.676 -0.004 -0.773 -0.027 -0.773 c -0.016 0 -0.027 -0.012 -0.027 -0.023 c 0 -0.016 -0.008 -0.027 -0.02 -0.027 c -0.008 0 -0.016 -0.012 -0.016 -0.027 c 0 -0.016 -0.012 -0.027 -0.027 -0.027 c -0.016 0 -0.027 -0.012 -0.027 -0.027 c 0 -0.012 -0.012 -0.027 -0.027 -0.027 c -0.016 0 -0.027 -0.008 -0.027 -0.016 c 0 -0.012 -0.012 -0.02 -0.027 -0.02 c -0.016 0 -0.027 -0.012 -0.027 -0.023 c 0 -0.016 -0.012 -0.027 -0.027 -0.027 c -0.012 0 -0.027 -0.012 -0.027 -0.027 c 0 -0.016 -0.012 -0.027 -0.027 -0.027 c -0.012 0 -0.023 -0.012 -0.023 -0.027 c 0 -0.016 -0.02 -0.027 -0.047 -0.027 c -0.027 0 -0.047 -0.008 -0.047 -0.023 c 0 -0.016 -0.012 -0.027 -0.023 -0.027 c -0.016 0 -0.027 -0.008 -0.027 -0.02 c 0 -0.008 -0.027 -0.016 -0.055 -0.016 c -0.051 0 -0.055 0.004 -0.055 0.07 c 0 0.051 -0.008 0.07 -0.027 0.07 c -0.016 0 -0.027 0.012 -0.027 0.027 c 0 0.016 -0.012 0.027 -0.027 0.027 c -0.016 0 -0.027 0.012 -0.027 0.027 c 0 0.012 -0.008 0.023 -0.016 0.023 c -0.035 0 -0.094 0.063 -0.094 0.102 c 0 0.027 -0.008 0.043 -0.023 0.043 c -0.016 0 -0.027 0.012 -0.027 0.027 c 0 0.012 -0.008 0.023 -0.02 0.023 c -0.012 0 -0.02 0.012 -0.02 0.027 c 0 0.016 -0.012 0.027 -0.027 0.027 c -0.012 0 -0.023 0.008 -0.023 0.02 c 0 0.008 -0.016 0.016 -0.027 0.016 c -0.02 0 -0.027 0.02 -0.027 0.055 c 0 0.035 -0.012 0.051 -0.027 0.051 c -0.016 0 -0.027 0.012 -0.027 0.027 c 0 0.016 -0.008 0.027 -0.02 0.027 c -0.008 0 -0.016 -0.035 -0.016 -0.078 c 0 -0.063 -0.008 -0.082 -0.027 -0.082 c -0.02 0 -0.027 -0.02 -0.027 -0.07 c 0 -0.051 -0.008 -0.07 -0.027 -0.07 c -0.02 0 -0.027 -0.02 -0.027 -0.07 c 0 -0.055 -0.008 -0.074 -0.027 -0.074 c -0.02 0 -0.027 -0.016 -0.027 -0.051 c 0 -0.035 -0.008 -0.055 -0.027 -0.055 c -0.02 0 -0.027 -0.016 -0.027 -0.055 c 0 -0.027 -0.008 -0.051 -0.016 -0.051 c -0.012 0 -0.02 -0.02 -0.02 -0.047 c 0 -0.027 -0.012 -0.043 -0.027 -0.043 c -0.016 0 -0.027 -0.012 -0.027 -0.027 c 0 -0.012 -0.012 -0.027 -0.027 -0.027 c -0.02 0 -0.027 -0.016 -0.027 -0.051 c 0 -0.035 -0.008 -0.055 -0.027 -0.055 c -0.016 0 -0.027 -0.008 -0.027 -0.016 c 0 -0.012 0.027 -0.02 0.055 -0.02 c 0.035 0 0.055 -0.008 0.055 -0.027 c 0 -0.012 0.012 -0.023 0.027 -0.023 c 0.016 0 0.027 -0.008 0.027 -0.02 c 0 -0.008 0.02 -0.023 0.043 -0.027 c 0.027 -0.008 0.047 -0.02 0.047 -0.027 c 0 -0.008 0.012 -0.016 0.027 -0.016 c 0.016 0 0.027 -0.008 0.027 -0.02 c 0 -0.012 0.02 -0.035 0.043 -0.059 c 0.023 -0.02 0.047 -0.055 0.055 -0.078 c 0.008 -0.023 0.023 -0.039 0.039 -0.039 c 0.012 0 0.023 -0.012 0.023 -0.027 c 0 -0.016 0.008 -0.027 0.02 -0.027 c 0.012 0 0.02 -0.012 0.02 -0.027 c 0 -0.012 0.012 -0.023 0.027 -0.023 c 0.012 0 0.023 -0.016 0.023 -0.027 c 0 -0.016 0.016 -0.027 0.027 -0.027 c 0.02 0 0.027 -0.016 0.027 -0.043 c 0 -0.031 0.012 -0.047 0.027 -0.047 c 0.02 0 0.027 -0.016 0.027 -0.051 c 0 -0.039 0.008 -0.055 0.027 -0.055 c 0.016 0 0.027 -0.012 0.027 -0.027 c 0 -0.016 0.008 -0.027 0.016 -0.027 c 0.008 0 0.023 -0.02 0.027 -0.043 c 0.008 -0.023 0.023 -0.043 0.039 -0.043 c 0.016 0 0.027 -0.02 0.027 -0.055 c 0 -0.031 0.008 -0.055 0.016 -0.055 c 0.012 0 0.02 -0.023 0.02 -0.051 c 0 -0.035 0.008 -0.055 0.027 -0.055 c 0.016 0 0.027 -0.016 0.027 -0.043 c 0 -0.027 0.008 -0.047 0.027 -0.047 c 0.02 0 0.027 -0.02 0.027 -0.078 c 0 -0.059 0.004 -0.082 0.027 -0.082 c 0.016 0 0.027 -0.016 0.027 -0.043 c 0 -0.027 0.008 -0.043 0.023 -0.043 c 0.023 0 0.027 -0.023 0.027 -0.082 c 0 -0.043 0.008 -0.078 0.02 -0.078 c 0.012 0 0.02 0.023 0.02 0.051 c 0 0.039 0.008 0.055 0.027 0.055 c 0.016 0 0.023 0.02 0.023 0.055 c 0 0.035 0.012 0.051 0.027 0.051 c 0.02 0 0.027 0.02 0.027 0.047 c 0 0.027 0.012 0.043 0.027 0.043 c 0.016 0 0.027 0.012 0.027 0.027 c 0 0.016 0.008 0.027 0.02 0.027 c 0.008 0 0.016 0.023 0.016 0.051 c 0 0.035 0.012 0.055 0.027 0.055 c 0.02 0 0.027 0.016 0.027 0.043 c 0 0.027 0.012 0.047 0.027 0.047 c 0.016 0 0.027 0.012 0.027 0.023 c 0 0.016 0.012 0.027 0.027 0.027 c 0.016 0 0.027 0.02 0.027 0.047 c 0 0.027 0.012 0.043 0.027 0.043 c 0.016 0 0.027 0.012 0.027 0.027 c 0 0.016 0.012 0.027 0.027 0.027 c 0.016 0 0.027 0.012 0.027 0.023 c 0 0.016 0.012 0.027 0.027 0.027 c 0.016 0 0.027 0.02 0.027 0.047 c 0 0.023 0.008 0.043 0.016 0.043 c 0.012 0 0.02 0.012 0.02 0.023 c 0 0.023 0.063 0.082 0.09 0.082 c 0.008 0 0.02 0.012 0.02 0.027 c 0 0.016 0.012 0.027 0.023 0.027 c 0.016 0 0.027 0.012 0.027 0.027 c 0 0.012 0.012 0.027 0.027 0.027 c 0.016 0 0.027 0.012 0.027 0.023 c 0 0.016 0.012 0.027 0.027 0.027 c 0.016 0 0.027 0.012 0.027 0.027 c 0 0.016 0.016 0.027 0.047 0.027 c 0.023 0 0.043 0.008 0.043 0.016 c 0 0.012 0.012 0.02 0.027 0.02 c 0.016 0 0.027 0.012 0.027 0.027 c 0 0.012 0.012 0.027 0.027 0.027 c 0.016 0 0.027 0.012 0.027 0.023 c 0 0.016 0.012 0.027 0.027 0.027 c 0.016 0 0.027 0.008 0.027 0.016 c 0 0.008 0.02 0.023 0.043 0.027 c 0.027 0.008 0.047 0.023 0.047 0.039 c 0 0.016 0.02 0.023 0.055 0.023 c 0.027 0 0.055 0.008 0.055 0.02 c 0 0.008 0.016 0.02 0.035 0.02 c 0.02 0 0.035 0.012 0.035 0.023 c 0 0.02 0.016 0.027 0.047 0.027 c 0.027 0 0.043 0.012 0.043 0.027 c 0 0.016 0.016 0.027 0.043 0.027 c 0.023 0 0.047 0.012 0.055 0.027 c 0.004 0.012 0.031 0.023 0.055 0.023 c 0.027 0 0.047 0.008 0.047 0.02 c 0 0.008 0.035 0.016 0.082 0.016 c 0.059 0 0.078 0.008 0.078 0.027 c 0 0.02 0.02 0.027 0.055 0.027 c 0.039 0 0.055 0.008 0.055 0.027 c 0 0.02 0.02 0.027 0.074 0.027 c 0.051 0 0.07 0.008 0.07 0.027 c 0 0.016 0.02 0.023 0.074 0.023 c 0.051 0 0.07 0.008 0.07 0.027 c 0 0.02 0.02 0.027 0.063 0.027 c 0.035 0 0.063 0.008 0.063 0.02 c 0 0.008 0.035 0.016 0.074 0.016 c 0.066 0 0.07 0.004 0.07 0.055 c 0 0.035 -0.008 0.051 -0.027 0.051 c -0.016 0 -0.027 0.008 -0.027 0.02 c 0 0.008 -0.012 0.016 -0.027 0.016 c -0.016 0 -0.023 0.02 -0.023 0.055 c 0 0.035 -0.012 0.055 -0.027 0.055 c -0.016 0 -0.027 0.012 -0.027 0.027 c 0 0.012 -0.012 0.023 -0.027 0.023 c -0.016 0 -0.027 0.012 -0.027 0.027 c 0 0.016 -0.008 0.027 -0.02 0.027 c -0.027 0 -0.07 0.047 -0.07 0.07 c 0 0.012 -0.027 0.02 -0.055 0.02 c -0.035 0 -0.055 0.008 -0.055 0.027 c 0 0.012 -0.012 0.023 -0.027 0.023 c -0.016 0 -0.027 0.012 -0.027 0.027 c 0 0.02 -0.016 0.027 -0.055 0.027 c -0.035 0 -0.055 0.008 -0.055 0.027 c 0 0.016 -0.016 0.027 -0.043 0.027 c -0.023 0 -0.047 0.008 -0.047 0.016 c 0 0.012 -0.023 0.02 -0.051 0.02 h -0.055 v 3.637 h 0.055 c 0.027 0 0.051 0.008 0.051 0.02 c 0 0.008 0.02 0.02 0.047 0.027 c 0.023 0.004 0.047 0.023 0.051 0.035 c 0.008 0.016 0.031 0.023 0.055 0.023 c 0.027 0 0.047 0.012 0.047 0.02 c 0 0.012 0.012 0.02 0.027 0.02 c 0.016 0 0.027 0.012 0.027 0.023 c 0 0.02 0.02 0.027 0.055 0.027 c 0.035 0 0.055 0.008 0.055 0.027 c 0 0.016 0.008 0.027 0.016 0.027 c 0.012 0 0.02 0.012 0.02 0.027 c 0 0.012 0.012 0.023 0.027 0.023 c 0.016 0 0.027 0.012 0.027 0.02 c 0 0.008 0.012 0.02 0.027 0.02 c 0.016 0 0.027 0.012 0.027 0.023 c 0 0.016 0.012 0.027 0.027 0.027 c 0.012 0 0.027 0.012 0.027 0.027 c 0 0.016 0.012 0.027 0.023 0.027 c 0.02 0 0.027 0.016 0.027 0.051 c 0 0.039 0.012 0.055 0.027 0.055 c 0.02 0 0.027 0.016 0.027 0.043 c 0 0.043 -0.004 0.047 -0.082 0.047 c -0.059 0 -0.078 0.008 -0.078 0.027 c 0 0.02 -0.02 0.023 -0.074 0.023 c -0.039 0 -0.07 0.008 -0.07 0.02 c 0 0.008 -0.035 0.02 -0.074 0.02 c -0.047 0 -0.074 0.008 -0.082 0.023 c -0.008 0.016 -0.035 0.027 -0.063 0.027 c -0.035 0 -0.051 0.008 -0.051 0.027 c 0 0.02 -0.023 0.027 -0.074 0.027 c -0.051 0 -0.07 0.008 -0.07 0.027 c 0 0.016 -0.02 0.023 -0.055 0.023 c -0.035 0 -0.055 0.012 -0.055 0.027 c 0 0.02 -0.02 0.027 -0.055 0.027 c -0.031 0 -0.055 0.008 -0.055 0.02 c 0 0.008 -0.02 0.016 -0.043 0.016 c -0.031 0 -0.047 0.012 -0.047 0.027 c 0 0.016 -0.02 0.027 -0.055 0.027 c -0.035 0 -0.055 0.008 -0.055 0.027 c 0 0.016 -0.016 0.023 -0.051 0.023 c -0.039 0 -0.055 0.012 -0.055 0.027 c 0 0.016 -0.012 0.027 -0.027 0.027 c -0.016 0 -0.027 0.012 -0.027 0.027 c 0 0.016 -0.02 0.027 -0.047 0.027 c -0.023 0 -0.043 0.008 -0.043 0.016 c 0 0.012 -0.012 0.02 -0.027 0.02 c -0.016 0 -0.027 0.012 -0.027 0.027 c 0 0.012 -0.012 0.023 -0.027 0.023 c -0.016 0 -0.027 0.012 -0.027 0.027 c 0 0.02 -0.02 0.027 -0.055 0.027 c -0.035 0 -0.055 0.008 -0.055 0.027 c 0 0.016 -0.008 0.027 -0.016 0.027 c -0.012 0 -0.02 0.012 -0.02 0.023 c 0 0.016 -0.012 0.027 -0.027 0.027 c -0.016 0 -0.027 0.008 -0.027 0.02 c 0 0.008 -0.012 0.016 -0.027 0.016 c -0.016 0 -0.027 0.012 -0.027 0.027 c 0 0.016 -0.012 0.027 -0.027 0.027 c -0.012 0 -0.023 0.012 -0.023 0.027 c 0 0.016 -0.016 0.027 -0.027 0.027 c -0.016 0 -0.027 0.012 -0.027 0.023 c 0 0.016 -0.012 0.027 -0.027 0.027 c -0.016 0 -0.027 0.012 -0.027 0.027 c 0 0.016 -0.008 0.027 -0.02 0.027 c -0.008 0 -0.016 0.02 -0.016 0.043 c 0 0.027 -0.012 0.047 -0.027 0.047 c -0.016 0 -0.027 0.012 -0.027 0.023 c 0 0.016 -0.012 0.027 -0.027 0.027 c -0.016 0 -0.027 0.012 -0.027 0.027 c 0 0.016 -0.012 0.027 -0.027 0.027 c -0.016 0 -0.027 0.016 -0.027 0.043 c 0 0.027 -0.012 0.047 -0.027 0.047 c -0.016 0 -0.027 0.012 -0.027 0.023 c 0 0.016 -0.012 0.027 -0.027 0.027 c -0.016 0 -0.027 0.02 -0.027 0.055 c 0 0.035 -0.008 0.051 -0.027 0.051 c -0.016 0 -0.027 0.02 -0.027 0.047 c 0 0.023 -0.008 0.043 -0.016 0.043 c -0.012 0 -0.02 0.012 -0.02 0.027 c 0 0.016 -0.012 0.027 -0.027 0.027 c -0.016 0 -0.027 0.016 -0.027 0.051 c 0 0.039 -0.008 0.055 -0.027 0.055 c -0.016 0 -0.027 0.016 -0.027 0.043 c 0 0.031 -0.008 0.047 -0.023 0.047 c -0.02 0 -0.027 0.016 -0.027 0.051 c 0 0.031 -0.008 0.055 -0.02 0.055 c -0.012 0 -0.02 -0.035 -0.02 -0.078"/><path d="m 2.957 11.242 c 0 -0.137 0.004 -0.168 0.027 -0.168 c 0.023 0 0.027 -0.078 0.027 -0.621 c 0 -0.539 -0.004 -0.621 -0.027 -0.621 c -0.023 0 -0.027 -0.043 -0.027 -0.301 c 0 -0.258 -0.004 -0.301 -0.027 -0.301 c -0.023 0 -0.027 -0.039 -0.027 -0.223 c 0 -0.188 -0.004 -0.223 -0.027 -0.223 c -0.023 0 -0.027 -0.031 -0.027 -0.195 c 0 -0.16 -0.004 -0.195 -0.027 -0.195 c -0.02 0 -0.027 -0.031 -0.027 -0.176 c 0 -0.109 -0.004 -0.18 -0.016 -0.18 c -0.012 0 -0.02 -0.07 -0.02 -0.176 c 0 -0.148 -0.004 -0.18 -0.027 -0.18 c -0.02 0 -0.027 -0.027 -0.027 -0.141 c 0 -0.113 -0.004 -0.141 -0.027 -0.141 c -0.02 0 -0.027 -0.027 -0.027 -0.125 c 0 -0.098 -0.004 -0.125 -0.023 -0.125 c -0.023 0 -0.027 -0.023 -0.027 -0.098 c 0 -0.074 -0.008 -0.098 -0.027 -0.098 c -0.023 0 -0.027 -0.023 -0.027 -0.105 c 0 -0.082 -0.008 -0.105 -0.027 -0.105 c -0.02 0 -0.027 -0.023 -0.027 -0.074 c 0 -0.051 -0.008 -0.07 -0.027 -0.07 c -0.02 0 -0.027 -0.02 -0.027 -0.07 c 0 -0.039 -0.008 -0.07 -0.02 -0.07 c -0.008 0 -0.016 -0.035 -0.016 -0.082 c 0 -0.055 -0.008 -0.078 -0.027 -0.078 c -0.012 0 -0.027 -0.027 -0.035 -0.07 c -0.008 -0.039 -0.02 -0.07 -0.027 -0.07 c -0.012 0 -0.02 -0.027 -0.02 -0.055 c 0 -0.035 -0.008 -0.055 -0.027 -0.055 c -0.016 0 -0.027 -0.016 -0.027 -0.043 c 0 -0.027 -0.008 -0.043 -0.027 -0.043 c -0.02 0 -0.027 -0.023 -0.027 -0.082 c 0 -0.059 -0.004 -0.078 -0.027 -0.078 c -0.016 0 -0.027 -0.02 -0.027 -0.047 c 0 -0.023 -0.008 -0.043 -0.016 -0.043 c -0.012 0 -0.02 -0.023 -0.02 -0.055 c 0 -0.035 -0.008 -0.051 -0.027 -0.051 c -0.016 0 -0.027 -0.016 -0.027 -0.043 c 0 -0.02 -0.016 -0.051 -0.035 -0.07 c -0.02 -0.016 -0.035 -0.043 -0.035 -0.055 c 0 -0.016 -0.008 -0.027 -0.02 -0.027 c -0.008 0 -0.016 -0.012 -0.016 -0.027 c 0 -0.016 -0.012 -0.027 -0.027 -0.027 c -0.02 0 -0.027 -0.016 -0.027 -0.043 v -0.047 h 1.84 v 0.613 c 0 0.531 0.004 0.617 0.027 0.625 c 0.02 0.008 0.027 0.035 0.027 0.105 c 0 0.074 0.004 0.094 0.027 0.094 c 0.02 0 0.023 0.023 0.023 0.098 c 0 0.078 0.008 0.098 0.027 0.098 c 0.023 0 0.027 0.023 0.027 0.082 c 0 0.043 0.008 0.078 0.02 0.078 c 0.008 0 0.02 0.031 0.02 0.07 c 0 0.051 0.008 0.074 0.023 0.074 c 0.016 0 0.027 0.027 0.035 0.09 c 0.004 0.051 0.016 0.098 0.027 0.102 c 0.012 0.004 0.02 0.027 0.02 0.055 c 0 0.027 0.012 0.063 0.027 0.078 c 0.016 0.016 0.027 0.047 0.027 0.074 c 0 0.027 0.012 0.043 0.027 0.043 c 0.02 0 0.027 0.023 0.027 0.082 c 0 0.059 0.008 0.078 0.027 0.078 c 0.02 0 0.027 0.02 0.027 0.07 c 0 0.051 0.008 0.07 0.027 0.07 c 0.02 0 0.027 0.023 0.027 0.074 c 0 0.066 0 0.07 0.055 0.07 c 0.043 0 0.051 -0.008 0.051 -0.047 c 0 -0.027 0.012 -0.043 0.027 -0.043 c 0.02 0 0.027 -0.016 0.027 -0.055 c 0 -0.027 0.008 -0.051 0.02 -0.051 c 0.008 0 0.02 -0.02 0.02 -0.047 c 0 -0.027 0.008 -0.043 0.023 -0.043 c 0.02 0 0.027 -0.016 0.027 -0.051 c 0 -0.039 0.012 -0.055 0.027 -0.055 c 0.02 0 0.027 -0.02 0.027 -0.055 c 0 -0.035 0.012 -0.051 0.027 -0.051 c 0.016 0 0.027 -0.02 0.027 -0.047 c 0 -0.027 0.012 -0.043 0.027 -0.043 c 0.02 0 0.027 -0.02 0.027 -0.055 c 0 -0.035 0.008 -0.051 0.027 -0.051 c 0.016 0 0.027 -0.02 0.027 -0.047 c 0 -0.023 0.008 -0.043 0.016 -0.043 c 0.012 0 0.02 -0.023 0.02 -0.055 c 0 -0.035 0.008 -0.051 0.027 -0.051 c 0.02 0 0.027 -0.02 0.027 -0.074 c 0 -0.051 0.008 -0.07 0.027 -0.07 c 0.016 0 0.027 -0.016 0.027 -0.051 c 0 -0.035 0.008 -0.055 0.027 -0.055 c 0.02 0 0.027 -0.02 0.027 -0.07 c 0 -0.051 0.008 -0.07 0.027 -0.07 c 0.016 0 0.023 -0.02 0.023 -0.055 c 0 -0.035 0.012 -0.055 0.027 -0.055 c 0.016 0 0.027 -0.012 0.027 -0.023 c 0 -0.016 0.008 -0.027 0.02 -0.027 c 0.008 0 0.02 0.035 0.02 0.078 c 0 0.059 0.004 0.082 0.027 0.082 c 0.02 0 0.023 0.02 0.023 0.07 c 0 0.051 0.008 0.07 0.027 0.07 c 0.02 0 0.027 0.02 0.027 0.055 c 0 0.035 0.012 0.051 0.027 0.051 c 0.02 0 0.027 0.02 0.027 0.047 c 0 0.023 0.008 0.043 0.02 0.043 c 0.008 0 0.016 0.02 0.016 0.047 c 0 0.023 0.012 0.047 0.027 0.051 c 0.012 0.008 0.031 0.031 0.035 0.055 c 0.008 0.023 0.02 0.043 0.031 0.043 c 0.008 0 0.016 0.012 0.016 0.027 c 0 0.016 0.012 0.027 0.027 0.027 c 0.02 0 0.027 0.016 0.027 0.051 c 0 0.035 0.008 0.055 0.027 0.055 c 0.016 0 0.027 0.016 0.027 0.043 c 0 0.027 0.008 0.047 0.027 0.047 c 0.016 0 0.027 0.012 0.027 0.023 c 0 0.016 0.008 0.027 0.016 0.027 c 0.008 0 0.02 0.02 0.027 0.047 c 0.004 0.023 0.02 0.043 0.027 0.043 c 0.012 0 0.02 0.016 0.02 0.035 c 0 0.02 0.012 0.035 0.027 0.035 c 0.016 0 0.027 0.016 0.027 0.043 c 0 0.031 0.008 0.047 0.027 0.047 c 0.012 0 0.023 0.012 0.023 0.027 c 0 0.012 0.016 0.023 0.027 0.023 c 0.02 0 0.027 0.02 0.027 0.055 c 0 0.035 0.012 0.055 0.027 0.055 c 0.016 0 0.027 0.008 0.027 0.016 c 0 0.012 0.023 0.02 0.055 0.02 c 0.035 0 0.055 -0.008 0.055 -0.027 c 0 -0.016 0.008 -0.027 0.016 -0.027 c 0.012 0 0.023 -0.02 0.031 -0.047 c 0.008 -0.027 0.023 -0.059 0.035 -0.074 c 0.016 -0.012 0.027 -0.055 0.027 -0.094 c 0 -0.035 0.008 -0.07 0.016 -0.07 c 0.012 0 0.02 -0.035 0.02 -0.078 c 0 -0.059 0.008 -0.078 0.027 -0.078 c 0.02 0 0.027 -0.023 0.027 -0.098 c 0 -0.078 0.004 -0.098 0.027 -0.098 c 0.02 0 0.027 -0.023 0.027 -0.098 c 0 -0.078 0.004 -0.098 0.023 -0.098 c 0.023 0 0.027 -0.023 0.027 -0.098 c 0 -0.078 0.008 -0.098 0.027 -0.098 c 0.023 0 0.027 -0.027 0.027 -0.125 c 0 -0.098 0.008 -0.125 0.027 -0.125 c 0.023 0 0.027 -0.027 0.027 -0.152 c 0 -0.121 0.004 -0.148 0.027 -0.148 c 0.023 0 0.027 -0.047 0.027 -0.301 c 0 -0.191 0.008 -0.305 0.02 -0.305 c 0.008 0 0.016 -0.066 0.016 -0.168 c 0 -0.102 -0.008 -0.168 -0.016 -0.168 c -0.012 0 -0.02 -0.055 -0.02 -0.125 v -0.125 h 0.867 c 0.758 0 0.863 0.004 0.863 0.027 c 0 0.016 -0.012 0.027 -0.027 0.027 c -0.016 0 -0.027 0.016 -0.027 0.043 c 0 0.027 -0.008 0.047 -0.027 0.047 c -0.016 0 -0.027 0.016 -0.027 0.043 c 0 0.027 -0.008 0.043 -0.023 0.043 c -0.02 0 -0.027 0.02 -0.027 0.055 c 0 0.035 -0.012 0.055 -0.027 0.055 c -0.016 0 -0.027 0.012 -0.027 0.023 c 0 0.016 -0.012 0.027 -0.027 0.027 c -0.016 0 -0.027 0.02 -0.027 0.047 c 0 0.023 -0.008 0.043 -0.02 0.043 c -0.008 0 -0.016 0.023 -0.016 0.055 c 0 0.035 -0.012 0.051 -0.027 0.051 c -0.02 0 -0.027 0.02 -0.027 0.055 c 0 0.035 -0.008 0.055 -0.027 0.055 c -0.02 0 -0.027 0.02 -0.027 0.07 c 0 0.051 -0.008 0.07 -0.027 0.07 c -0.02 0 -0.027 0.016 -0.027 0.055 c 0 0.035 -0.008 0.051 -0.027 0.051 c -0.02 0 -0.027 0.02 -0.027 0.07 c 0 0.051 -0.008 0.074 -0.027 0.074 c -0.016 0 -0.027 0.016 -0.027 0.051 c 0 0.031 -0.008 0.055 -0.016 0.055 c -0.012 0 -0.02 0.031 -0.02 0.07 c 0 0.051 -0.008 0.07 -0.027 0.07 c -0.02 0 -0.027 0.02 -0.027 0.07 c 0 0.051 -0.008 0.07 -0.027 0.07 c -0.02 0 -0.027 0.023 -0.027 0.082 c 0 0.059 -0.004 0.078 -0.023 0.078 c -0.023 0 -0.027 0.023 -0.027 0.098 c 0 0.078 -0.008 0.098 -0.027 0.098 c -0.02 0 -0.027 0.02 -0.027 0.07 c 0 0.047 -0.012 0.074 -0.027 0.078 c -0.02 0.008 -0.027 0.039 -0.027 0.102 c 0 0.047 -0.008 0.09 -0.02 0.09 c -0.008 0 -0.016 0.051 -0.016 0.125 c 0 0.098 -0.008 0.121 -0.027 0.121 c -0.023 0 -0.027 0.023 -0.027 0.109 c 0 0.082 -0.008 0.105 -0.027 0.105 c -0.023 0 -0.027 0.027 -0.027 0.141 c 0 0.113 -0.004 0.145 -0.027 0.145 c -0.023 0 -0.027 0.027 -0.027 0.148 c 0 0.121 -0.004 0.152 -0.027 0.152 c -0.023 0 -0.027 0.035 -0.027 0.203 c 0 0.168 -0.004 0.203 -0.027 0.203 c -0.023 0 -0.027 0.047 -0.027 0.297 c 0 0.234 -0.004 0.297 -0.027 0.32 c -0.02 0.02 -0.027 0.086 -0.027 0.344 c 0 0.266 0.008 0.32 0.027 0.328 c 0.023 0.012 0.027 0.082 0.027 0.508 c 0 0.426 0.004 0.492 0.027 0.492 c 0.023 0 0.027 0.027 0.027 0.117 v 0.113 h -1.262 v -0.238 c 0 -0.199 -0.004 -0.242 -0.027 -0.25 c -0.02 -0.008 -0.027 -0.039 -0.027 -0.133 c 0 -0.098 -0.004 -0.121 -0.027 -0.121 c -0.02 0 -0.027 -0.023 -0.027 -0.098 c 0 -0.063 -0.008 -0.105 -0.027 -0.125 c -0.016 -0.012 -0.027 -0.059 -0.027 -0.098 c 0 -0.051 -0.004 -0.07 -0.023 -0.07 c -0.023 0 -0.027 -0.023 -0.027 -0.098 c 0 -0.078 -0.008 -0.098 -0.027 -0.098 c -0.02 0 -0.027 -0.02 -0.027 -0.074 c 0 -0.051 -0.008 -0.07 -0.027 -0.07 c -0.02 0 -0.027 -0.016 -0.027 -0.051 c 0 -0.031 -0.008 -0.055 -0.02 -0.055 c -0.008 0 -0.016 -0.035 -0.016 -0.078 c 0 -0.059 -0.008 -0.082 -0.027 -0.082 c -0.016 0 -0.027 -0.027 -0.035 -0.07 c -0.008 -0.039 -0.02 -0.07 -0.031 -0.07 c -0.008 0 -0.016 -0.023 -0.016 -0.055 c 0 -0.035 -0.008 -0.055 -0.027 -0.055 c -0.016 0 -0.027 -0.016 -0.027 -0.043 c 0 -0.027 -0.012 -0.043 -0.027 -0.043 c -0.02 0 -0.027 -0.02 -0.027 -0.055 c 0 -0.035 -0.008 -0.055 -0.027 -0.055 c -0.016 0 -0.027 -0.016 -0.027 -0.043 c 0 -0.023 -0.008 -0.043 -0.016 -0.043 c -0.012 0 -0.02 -0.023 -0.02 -0.055 c 0 -0.047 -0.004 -0.055 -0.063 -0.055 c -0.059 0 -0.063 0.008 -0.063 0.055 c 0 0.031 -0.008 0.055 -0.02 0.055 c -0.008 0 -0.016 0.031 -0.016 0.07 c 0 0.051 -0.008 0.07 -0.027 0.07 c -0.02 0 -0.027 0.02 -0.027 0.07 c 0 0.051 -0.008 0.07 -0.027 0.07 c -0.02 0 -0.027 0.023 -0.027 0.082 c 0 0.059 -0.008 0.078 -0.027 0.078 c -0.02 0 -0.027 0.02 -0.027 0.07 c 0 0.047 -0.008 0.074 -0.027 0.078 c -0.02 0.008 -0.027 0.039 -0.027 0.102 c 0 0.066 -0.008 0.09 -0.027 0.09 c -0.02 0 -0.027 0.023 -0.027 0.098 c 0 0.074 -0.004 0.098 -0.027 0.098 c -0.02 0 -0.027 0.023 -0.027 0.105 c 0 0.059 -0.008 0.105 -0.016 0.105 c -0.012 0 -0.02 0.055 -0.02 0.125 c 0 0.098 -0.004 0.125 -0.027 0.125 c -0.02 0 -0.027 0.027 -0.027 0.148 c 0 0.125 -0.004 0.152 -0.027 0.152 c -0.02 0 -0.027 0.035 -0.027 0.223 c 0 0.133 -0.004 0.223 -0.016 0.223 c -0.012 0 -0.023 0.02 -0.031 0.043 l -0.008 0.043 h -1.422"/><path d="m 8.711 11.137 c 0 -0.016 -0.012 -0.027 -0.027 -0.027 c -0.016 0 -0.027 -0.008 -0.027 -0.016 c 0 -0.012 -0.012 -0.02 -0.027 -0.02 c -0.016 0 -0.027 -0.012 -0.027 -0.027 c 0 -0.016 -0.02 -0.023 -0.055 -0.023 c -0.035 0 -0.055 -0.012 -0.055 -0.027 c 0 -0.016 -0.012 -0.027 -0.027 -0.027 c -0.012 0 -0.027 -0.012 -0.027 -0.027 c 0 -0.016 -0.012 -0.027 -0.023 -0.027 c -0.016 0 -0.027 -0.008 -0.027 -0.016 c 0 -0.035 -0.051 -0.07 -0.098 -0.07 c -0.031 0 -0.047 -0.012 -0.047 -0.027 c 0 -0.016 -0.012 -0.027 -0.027 -0.027 c -0.016 0 -0.027 -0.012 -0.027 -0.027 c 0 -0.016 -0.012 -0.027 -0.027 -0.027 c -0.016 0 -0.027 -0.012 -0.027 -0.023 c 0 -0.02 -0.016 -0.027 -0.047 -0.027 c -0.027 0 -0.043 -0.012 -0.043 -0.027 c 0 -0.016 -0.012 -0.027 -0.027 -0.027 c -0.016 0 -0.027 -0.008 -0.027 -0.016 c 0 -0.012 -0.012 -0.02 -0.027 -0.02 c -0.016 0 -0.027 -0.012 -0.027 -0.027 c 0 -0.012 -0.012 -0.027 -0.023 -0.027 c -0.016 0 -0.031 -0.012 -0.035 -0.023 c -0.008 -0.016 -0.031 -0.027 -0.059 -0.027 c -0.027 0 -0.043 -0.012 -0.043 -0.027 c 0 -0.016 -0.012 -0.027 -0.027 -0.027 c -0.016 0 -0.027 -0.008 -0.027 -0.02 c 0 -0.031 -0.051 -0.07 -0.098 -0.07 c -0.031 0 -0.047 -0.008 -0.047 -0.023 c 0 -0.016 -0.012 -0.027 -0.027 -0.027 c -0.016 0 -0.027 -0.012 -0.027 -0.027 c 0 -0.016 -0.012 -0.027 -0.027 -0.027 c -0.023 0 -0.027 -0.164 -0.027 -1.383 c 0 -1.219 0.004 -1.387 0.027 -1.387 c 0.016 0 0.027 -0.012 0.027 -0.023 c 0 -0.02 0.016 -0.027 0.047 -0.027 c 0.027 0 0.043 -0.012 0.043 -0.027 c 0 -0.016 0.012 -0.027 0.027 -0.027 c 0.031 0 0.082 -0.039 0.082 -0.066 c 0 -0.012 0.023 -0.023 0.055 -0.031 c 0.027 -0.008 0.051 -0.02 0.051 -0.027 c 0 -0.008 0.016 -0.016 0.027 -0.016 c 0.016 0 0.027 -0.012 0.027 -0.027 c 0 -0.016 0.012 -0.027 0.027 -0.027 c 0.016 0 0.027 -0.012 0.027 -0.027 c 0 -0.012 0.012 -0.023 0.027 -0.023 c 0.016 0 0.027 -0.012 0.027 -0.02 c 0 -0.012 0.02 -0.02 0.047 -0.02 c 0.027 0 0.043 -0.008 0.043 -0.023 c 0 -0.016 0.012 -0.027 0.027 -0.027 c 0.016 0 0.027 -0.012 0.027 -0.027 c 0 -0.016 0.012 -0.027 0.027 -0.027 c 0.016 0 0.027 -0.012 0.027 -0.027 c 0 -0.016 0.016 -0.023 0.043 -0.023 c 0.031 0 0.047 -0.012 0.047 -0.027 c 0 -0.016 0.012 -0.027 0.027 -0.027 c 0.031 0 0.082 -0.043 0.082 -0.07 c 0 -0.012 0.012 -0.02 0.027 -0.02 c 0.012 0 0.023 -0.012 0.023 -0.027 c 0 -0.016 0.02 -0.023 0.055 -0.023 c 0.039 0 0.055 -0.012 0.055 -0.027 c 0 -0.016 0.012 -0.027 0.027 -0.027 c 0.016 0 0.027 -0.012 0.027 -0.027 c 0 -0.016 0.012 -0.027 0.027 -0.027 c 0.016 0 0.027 -0.008 0.027 -0.016 c 0 -0.012 0.02 -0.02 0.043 -0.02 c 0.031 0 0.047 -0.008 0.047 -0.027 c 0 -0.012 0.012 -0.023 0.027 -0.023 c 0.016 0 0.027 -0.016 0.027 -0.027 c 0 -0.02 0.016 -0.027 0.043 -0.027 c 0.031 0 0.047 0.008 0.047 0.027 c 0 0.012 0.012 0.027 0.027 0.027 c 0.016 0 0.027 0.012 0.027 0.023 c 0 0.016 0.012 0.027 0.027 0.027 c 0.012 0 0.027 0.008 0.027 0.02 c 0 0.008 0.023 0.016 0.051 0.016 c 0.039 0 0.055 0.012 0.055 0.027 c 0 0.016 0.012 0.027 0.027 0.027 c 0.016 0 0.027 0.012 0.027 0.027 c 0 0.012 0.008 0.027 0.02 0.027 c 0.008 0 0.016 0.012 0.016 0.023 c 0 0.02 0.02 0.027 0.055 0.027 c 0.035 0 0.055 0.008 0.055 0.027 c 0 0.016 0.012 0.027 0.027 0.027 c 0.016 0 0.027 0.008 0.027 0.016 c 0 0.012 0.012 0.02 0.027 0.02 c 0.016 0 0.027 0.012 0.027 0.027 c 0 0.012 0.012 0.027 0.027 0.027 c 0.016 0 0.027 0.012 0.027 0.023 c 0 0.02 0.016 0.027 0.043 0.027 c 0.027 0 0.047 0.012 0.047 0.027 c 0 0.016 0.012 0.027 0.027 0.027 c 0.012 0 0.027 0.012 0.027 0.027 c 0 0.012 0.012 0.023 0.027 0.023 c 0.012 0 0.023 0.008 0.023 0.02 c 0 0.008 0.027 0.02 0.055 0.02 c 0.039 0 0.055 0.008 0.055 0.023 c 0 0.016 0.012 0.027 0.027 0.027 c 0.016 0 0.027 0.012 0.027 0.027 c 0 0.016 0.008 0.027 0.02 0.027 c 0.008 0 0.016 0.012 0.016 0.027 c 0 0.012 0.016 0.023 0.039 0.023 c 0.02 0 0.035 0.008 0.035 0.02 c 0 0.008 0.02 0.023 0.043 0.027 c 0.027 0.008 0.047 0.02 0.047 0.027 c 0 0.008 0.012 0.016 0.027 0.016 c 0.016 0 0.027 0.012 0.027 0.027 c 0 0.016 0.012 0.027 0.027 0.027 c 0.012 0 0.027 0.012 0.027 0.027 c 0 0.016 0.016 0.023 0.043 0.023 c 0.027 0 0.047 0.012 0.047 0.027 c 0 0.016 0.012 0.027 0.027 0.027 c 0.012 0 0.023 0.008 0.023 0.02 c 0 0.008 -0.012 0.016 -0.023 0.016 c -0.016 0 -0.027 0.012 -0.027 0.027 c 0 0.016 -0.02 0.027 -0.047 0.027 c -0.027 0 -0.043 0.008 -0.043 0.027 c 0 0.012 -0.016 0.023 -0.027 0.023 c -0.016 0 -0.027 0.008 -0.027 0.02 c 0 0.008 -0.012 0.016 -0.027 0.016 c -0.016 0 -0.027 0.012 -0.027 0.027 c 0 0.012 -0.02 0.027 -0.047 0.035 c -0.023 0.008 -0.043 0.02 -0.043 0.027 c 0 0.012 -0.016 0.02 -0.035 0.02 c -0.023 0 -0.039 0.012 -0.039 0.027 c 0 0.012 -0.008 0.023 -0.016 0.023 c -0.012 0 -0.02 0.012 -0.02 0.027 c 0 0.016 -0.012 0.027 -0.027 0.027 c -0.016 0 -0.027 0.008 -0.027 0.016 c 0 0.008 -0.02 0.02 -0.043 0.027 c -0.027 0.004 -0.047 0.02 -0.047 0.027 c 0 0.012 -0.016 0.02 -0.035 0.02 c -0.02 0 -0.035 0.012 -0.035 0.027 c 0 0.012 -0.012 0.023 -0.027 0.023 c -0.016 0 -0.027 0.012 -0.027 0.027 c 0 0.016 -0.008 0.027 -0.02 0.027 c -0.008 0 -0.016 0.012 -0.016 0.027 c 0 0.02 -0.023 0.027 -0.102 0.027 c -0.074 0 -0.098 -0.008 -0.098 -0.027 c 0 -0.02 -0.023 -0.027 -0.082 -0.027 c -0.059 0 -0.082 -0.008 -0.082 -0.027 c 0 -0.016 -0.012 -0.027 -0.027 -0.027 c -0.016 0 -0.027 -0.004 -0.027 -0.016 c 0 -0.008 -0.02 -0.02 -0.043 -0.027 c -0.027 -0.004 -0.047 -0.02 -0.047 -0.035 c 0 -0.016 -0.012 -0.027 -0.027 -0.027 c -0.012 0 -0.027 -0.008 -0.027 -0.016 c 0 -0.012 -0.016 -0.02 -0.035 -0.02 c -0.02 0 -0.035 -0.012 -0.035 -0.027 c 0 -0.016 -0.016 -0.027 -0.047 -0.027 h -0.043 v 0.969 c 0 0.848 0.004 0.969 0.027 0.969 c 0.016 0 0.027 -0.008 0.027 -0.02 c 0 -0.008 0.012 -0.016 0.027 -0.016 c 0.012 0 0.027 -0.016 0.027 -0.027 c 0 -0.02 0.016 -0.027 0.051 -0.027 c 0.039 0 0.055 -0.008 0.055 -0.027 c 0 -0.016 0.008 -0.027 0.02 -0.027 c 0.008 0 0.02 -0.012 0.02 -0.027 c 0 -0.012 0.012 -0.023 0.023 -0.023 c 0.016 0 0.027 -0.012 0.027 -0.027 c 0 -0.02 0.02 -0.027 0.055 -0.027 c 0.031 0 0.055 -0.008 0.055 -0.02 c 0 -0.008 0.012 -0.016 0.027 -0.016 c 0.016 0 0.027 -0.012 0.027 -0.027 c 0 -0.016 0.012 -0.027 0.027 -0.027 c 0.016 0 0.027 -0.012 0.027 -0.027 c 0 -0.016 0.02 -0.023 0.07 -0.023 c 0.055 0 0.074 0.008 0.074 0.023 c 0 0.016 0.012 0.027 0.027 0.027 c 0.012 0 0.027 0.008 0.027 0.02 c 0 0.035 0.047 0.07 0.098 0.07 c 0.027 0 0.047 0.012 0.047 0.027 c 0 0.016 0.012 0.027 0.023 0.027 c 0.016 0 0.027 0.012 0.027 0.023 c 0 0.016 0.016 0.027 0.027 0.027 c 0.016 0 0.027 0.012 0.027 0.027 c 0 0.016 0.02 0.027 0.047 0.027 c 0.027 0 0.043 0.008 0.043 0.027 c 0 0.012 0.012 0.027 0.027 0.027 c 0.016 0 0.027 0.008 0.027 0.016 c 0 0.012 0.012 0.02 0.027 0.02 c 0.016 0 0.027 0.012 0.027 0.023 c 0 0.016 0.012 0.027 0.027 0.027 c 0.016 0 0.027 0.012 0.027 0.027 c 0 0.02 0.02 0.027 0.055 0.027 c 0.035 0 0.055 0.008 0.055 0.027 c 0 0.012 0.008 0.027 0.016 0.027 c 0.012 0 0.02 0.012 0.02 0.023 c 0 0.016 0.012 0.027 0.027 0.027 c 0.016 0 0.027 0.008 0.027 0.02 c 0 0.008 0.016 0.016 0.035 0.016 c 0.02 0 0.035 0.012 0.035 0.027 c 0 0.016 -0.016 0.027 -0.035 0.027 c -0.02 0 -0.035 0.008 -0.035 0.016 c 0 0.012 -0.012 0.02 -0.027 0.02 c -0.016 0 -0.027 0.012 -0.027 0.027 c 0 0.016 -0.008 0.027 -0.02 0.027 c -0.008 0 -0.016 0.012 -0.016 0.023 c 0 0.02 -0.02 0.027 -0.055 0.027 c -0.035 0 -0.055 0.008 -0.055 0.027 c 0 0.016 -0.012 0.027 -0.027 0.027 c -0.016 0 -0.027 0.012 -0.027 0.027 c 0 0.012 -0.012 0.023 -0.027 0.023 c -0.016 0 -0.027 0.008 -0.027 0.02 c 0 0.008 -0.02 0.02 -0.043 0.023 c -0.027 0.008 -0.047 0.02 -0.047 0.031 c 0 0.008 -0.012 0.016 -0.027 0.016 c -0.016 0 -0.027 0.012 -0.027 0.027 c 0 0.016 -0.012 0.027 -0.027 0.027 c -0.012 0 -0.027 0.012 -0.027 0.027 c 0 0.012 -0.012 0.023 -0.027 0.023 c -0.012 0 -0.023 0.016 -0.023 0.027 c 0 0.02 -0.02 0.027 -0.047 0.027 c -0.051 0 -0.098 0.035 -0.098 0.07 c 0 0.012 -0.016 0.02 -0.027 0.02 c -0.016 0 -0.027 0.012 -0.027 0.027 c 0 0.016 -0.02 0.023 -0.055 0.023 c -0.035 0 -0.055 0.012 -0.055 0.027 c 0 0.016 -0.012 0.027 -0.027 0.027 c -0.016 0 -0.027 0.012 -0.027 0.027 c 0 0.016 -0.012 0.027 -0.027 0.027 c -0.016 0 -0.027 0.008 -0.027 0.016 c 0 0.012 -0.012 0.02 -0.027 0.02 c -0.012 0 -0.027 0.012 -0.027 0.027 c 0 0.016 -0.016 0.023 -0.043 0.023 c -0.027 0 -0.047 0.012 -0.047 0.027 c 0 0.016 -0.012 0.027 -0.027 0.027 c -0.012 0 -0.023 0.012 -0.023 0.027 c 0 0.016 -0.016 0.027 -0.027 0.027 c -0.016 0 -0.027 0.012 -0.027 0.027 c 0 0.016 -0.02 0.023 -0.047 0.023 c -0.047 0 -0.098 0.039 -0.098 0.07 c 0 0.012 -0.035 0.02 -0.074 0.02 c -0.051 0 -0.07 -0.008 -0.07 -0.027"/></g></svg>