<svg xmlns="http://www.w3.org/2000/svg" xmlns:xlink="http://www.w3.org/1999/xlink" viewBox="0 0 16 16"><defs><g id="3" clip-path="url(#2)"><path d="m 23.318 30.913 c -0.481 -0.123 -0.797 -0.233 -0.852 -0.301 c -0.096 -0.109 -0.192 -0.78 -0.44 -2.955 c -0.11 -1.053 -0.467 -4.665 -0.467 -4.747 c 0 0 0.014 -0.014 0.027 -0.014 c 0.027 0 0.646 0.711 0.715 0.821 c 0.082 0.137 0.11 0.602 0.124 2.435 c 0.027 1.97 0.069 2.681 0.192 2.914 c 0.055 0.109 0.385 0.219 0.893 0.287 c 0.22 0.027 0.371 0.068 0.385 0.082 c 0 0.027 -0.027 0.383 -0.082 0.794 c -0.041 0.41 -0.096 0.752 -0.096 0.752 c 0 0.027 0.014 0.027 -0.399 -0.068 m 0.99 -0.014 c -0.055 -0.287 -0.165 -1.423 -0.165 -1.464 c 0.014 -0.027 0.124 -0.055 0.33 -0.082 c 0.577 -0.068 0.921 -0.178 0.976 -0.328 c 0.096 -0.274 0.137 -1.012 0.179 -3.325 c 0.014 -0.944 0.041 -1.779 0.055 -1.847 c 0.014 -0.096 0.082 -0.192 0.275 -0.41 c 0.44 -0.506 0.495 -0.561 0.509 -0.547 c 0.027 0.027 -0.302 3.407 -0.481 5.01 c -0.22 1.929 -0.316 2.599 -0.399 2.709 c -0.055 0.055 -0.495 0.205 -0.893 0.301 c -0.151 0.027 -0.289 0.068 -0.316 0.082 c -0.041 0 -0.055 -0.014 -0.069 -0.096 m -1.32 -2.148 c -0.192 -0.068 -0.234 -0.26 -0.124 -0.684 c 0.096 -0.369 0.371 -0.93 0.426 -0.862 c 0.014 0.014 0.014 0.246 -0.014 0.52 c -0.014 0.274 -0.041 0.602 -0.041 0.739 c 0 0.137 -0.014 0.26 -0.027 0.287 c -0.027 0.041 -0.082 0.027 -0.22 0 m 1.842 -0.014 c 0 -0.014 -0.014 -0.137 -0.014 -0.26 c -0.014 -0.192 -0.055 -0.835 -0.096 -1.204 c 0 -0.123 0.082 -0.068 0.179 0.109 c 0.247 0.397 0.412 1.094 0.302 1.259 c -0.069 0.109 -0.316 0.178 -0.371 0.096 m -1.471 -0.055 c -0.041 -0.027 -0.055 -0.082 -0.055 -0.41 v -0.383 h 0.687 v 0.369 c 0 0.397 -0.014 0.438 -0.165 0.438 c -0.055 0 -0.124 -0.014 -0.179 -0.014 c -0.041 0 -0.124 0 -0.165 0.014 c -0.041 0.014 -0.096 0.014 -0.124 -0.014 m 0.784 0 c -0.069 -0.041 -0.082 -0.055 -0.082 -0.41 l -0.014 -0.383 h 0.687 v 0.383 c 0 0.438 -0.014 0.465 -0.22 0.41 c -0.082 -0.027 -0.137 -0.027 -0.192 0 c -0.082 0.041 -0.096 0.041 -0.179 0 m -8 -1.792 c 0 -0.027 0.55 -1.505 0.646 -1.71 c 0.027 -0.068 0.082 -0.123 0.124 -0.15 c 0.041 -0.014 0.467 -0.178 0.948 -0.342 c 0.481 -0.178 1.471 -0.547 2.186 -0.821 c 0.715 -0.274 1.32 -0.479 1.333 -0.465 c 0.041 0.055 0.247 2.394 0.22 2.435 c -0.027 0.027 -5.265 1.081 -5.402 1.081 c -0.027 0 -0.055 -0.014 -0.055 -0.027 m 7.326 -0.041 c -0.385 -0.178 -0.481 -0.479 -0.66 -2.134 c -0.082 -0.711 -0.082 -0.766 -0.041 -0.821 c 0.055 -0.041 1.1 -0.547 1.155 -0.547 c 0.082 0.014 0.096 3.16 0.014 3.42 c -0.014 0.055 -0.055 0.109 -0.069 0.123 c -0.069 0.041 -0.247 0.027 -0.399 -0.041 m 0.715 0.041 c -0.096 -0.055 -0.11 -0.219 -0.124 -1.231 c -0.014 -1.272 0.014 -2.312 0.069 -2.312 c 0.041 0 1.072 0.493 1.141 0.534 c 0.014 0.014 0.027 0.082 0.027 0.137 c 0 0.164 -0.11 1.149 -0.192 1.683 c -0.11 0.752 -0.206 0.971 -0.522 1.136 c -0.151 0.082 -0.33 0.109 -0.399 0.055 m 4.921 -0.506 c -1.457 -0.287 -2.653 -0.534 -2.667 -0.547 c -0.041 -0.041 0.192 -2.394 0.234 -2.435 c 0.014 -0.014 0.522 0.164 1.21 0.424 c 0.646 0.246 1.663 0.629 2.241 0.835 c 0.591 0.219 1.072 0.397 1.086 0.41 c 0.027 0.027 0.687 1.792 0.687 1.82 c 0 0.014 -0.027 0.027 -0.082 0.027 c -0.041 0 -1.265 -0.246 -2.708 -0.534 m -14.625 -1.259 c 0.014 -0.041 1.141 -0.985 1.278 -1.081 c 1.663 -1.094 5.237 -3.379 5.265 -3.352 c 0.041 0.055 0.344 2.257 0.316 2.339 c -0.041 0.096 -3.753 1.614 -4.454 1.82 c -0.481 0.15 -2.433 0.369 -2.406 0.274 m 18.06 -0.055 c -1.127 -0.123 -1.278 -0.15 -2.186 -0.493 c -1.265 -0.493 -3.629 -1.491 -3.643 -1.56 c -0.041 -0.082 0.261 -2.271 0.316 -2.326 c 0.014 -0.014 0.399 0.219 0.88 0.52 c 4.674 3.02 4.426 2.859 5.04 3.379 c 0.33 0.26 0.591 0.506 0.605 0.52 c 0.014 0.055 -0.234 0.055 -1.017 -0.041 m -20.44 -1.177 c -1.388 -0.014 -2.639 -0.027 -2.804 -0.041 l -0.302 -0.027 l 0.385 -0.315 c 2.57 -2.162 4.261 -3.557 4.687 -3.885 c 0.247 -0.192 0.893 -0.52 1.388 -0.725 c 0.701 -0.287 1.21 -0.41 2.186 -0.561 c 0.715 -0.109 2.062 -0.26 2.117 -0.233 c 0.041 0.014 0.454 0.588 0.619 0.876 c 0.22 0.369 0.605 1.341 0.577 1.437 c -0.027 0.055 -3.931 2.627 -4.907 3.242 l -0.412 0.26 h -0.509 c -0.289 0 -1.649 0 -3.02 -0.014 m 20.454 0 c -0.165 -0.014 -0.234 -0.041 -0.509 -0.219 c -1.045 -0.643 -4.935 -3.229 -4.948 -3.27 c -0.014 -0.055 0.261 -0.835 0.426 -1.149 c 0.137 -0.287 0.55 -0.93 0.687 -1.094 c 0.082 -0.082 0.096 -0.096 0.22 -0.082 c 0.069 0.014 0.371 0.055 0.674 0.082 c 1.32 0.15 2.227 0.301 2.79 0.479 c 0.866 0.26 1.773 0.711 2.282 1.122 c 0.99 0.794 4.811 3.995 4.825 4.04 c 0.014 0.041 -0.66 0.068 -2.955 0.082 c -1.223 0 -2.46 0.014 -2.763 0.027 c -0.289 0 -0.619 0 -0.729 -0.014 m -10.03 -0.41 c -0.289 -0.219 -0.632 -0.588 -0.729 -0.766 c -0.096 -0.178 -0.206 -0.616 -0.261 -0.971 c -0.027 -0.137 -0.069 -0.301 -0.096 -0.369 c -0.096 -0.192 -0.027 -0.561 0.096 -0.534 c 0.591 0.178 0.976 0.274 1.113 0.301 c 0.412 0.068 1.347 0.096 1.952 0.068 c 0.838 -0.055 0.935 -0.068 1.663 -0.287 c 0.357 -0.109 0.357 -0.096 0.399 0.164 c 0.014 0.109 0 0.178 -0.041 0.287 c -0.027 0.082 -0.082 0.287 -0.11 0.438 c -0.11 0.67 -0.22 0.93 -0.522 1.259 c -0.247 0.246 -0.66 0.588 -0.674 0.547 c 0 -0.027 0.041 -0.15 0.096 -0.287 c 0.165 -0.397 0.247 -0.684 0.289 -0.985 c 0.041 -0.397 0.027 -0.506 -0.151 -0.67 l -0.137 -0.137 l -0.261 0.014 c -0.151 0.014 -0.344 0.027 -0.44 0.041 l -0.151 0.014 l 0.069 0.068 l 0.082 0.055 v 0.547 c 0 0.629 0.027 0.588 -0.357 0.575 l -0.22 -0.014 v -0.534 c 0.014 -0.287 0.027 -0.534 0.041 -0.547 c 0.014 -0.014 0.096 -0.055 0.179 -0.082 c 0.165 -0.041 0.165 -0.041 -0.316 -0.041 h -0.495 l 0.357 0.109 l 0.014 0.274 c 0.014 0.15 0.027 0.397 0.014 0.547 v 0.274 h -0.22 c -0.124 0.014 -0.261 0 -0.302 0 l -0.069 -0.027 l 0.014 -0.547 c 0.014 -0.547 0.014 -0.561 0.082 -0.588 c 0.027 -0.014 0.055 -0.041 0.055 -0.055 c 0 -0.014 -0.206 -0.041 -0.591 -0.068 l -0.247 -0.014 l -0.151 0.137 l -0.151 0.15 l 0.014 0.315 c 0 0.369 0.069 0.67 0.275 1.149 c 0.069 0.164 0.11 0.301 0.11 0.328 c -0.014 0.014 -0.11 -0.041 -0.22 -0.137 m 0.206 -0.657 c -0.096 -0.027 -0.096 -0.082 -0.137 -0.643 l -0.027 -0.301 l 0.11 -0.109 c 0.082 -0.096 0.11 -0.109 0.275 -0.123 c 0.124 0 0.206 0.014 0.22 0.041 c 0.069 0.055 0.082 1.094 0.027 1.136 c -0.055 0.027 -0.371 0.027 -0.467 0 m 2.144 0.014 c -0.027 -0.014 -0.041 -0.15 -0.041 -0.547 c 0 -0.629 0 -0.643 0.261 -0.643 c 0.179 0.014 0.275 0.068 0.357 0.178 c 0.041 0.068 0.041 0.123 0.014 0.493 c -0.027 0.233 -0.041 0.438 -0.055 0.451 c -0.027 0.068 -0.44 0.109 -0.536 0.068 m -1.704 -1.847 c -0.88 -0.096 -1.32 -0.178 -1.567 -0.315 c -0.137 -0.068 -0.151 -0.096 -0.866 -1.354 c -0.385 -0.711 -0.715 -1.313 -0.715 -1.341 c 0 -0.055 0.77 -0.889 0.838 -0.889 c 0.082 0 0.385 0.164 0.522 0.287 c 0.234 0.219 0.261 0.451 0.124 0.971 c -0.124 0.41 -0.165 0.698 -0.124 0.848 c 0.041 0.15 0.302 0.397 0.66 0.629 c 0.33 0.205 1.182 0.657 1.553 0.821 c 0.137 0.055 0.289 0.137 0.33 0.178 c 0.096 0.096 0.124 0.096 0.192 0.014 c 0.027 -0.027 0.275 -0.164 0.564 -0.301 c 0.907 -0.424 1.622 -0.862 1.883 -1.149 l 0.124 -0.137 l -0.014 -0.301 c -0.014 -0.205 -0.041 -0.383 -0.11 -0.602 c -0.151 -0.506 -0.124 -0.752 0.124 -0.971 c 0.151 -0.123 0.495 -0.315 0.55 -0.301 c 0.041 0.027 0.811 0.862 0.811 0.903 c 0 0.014 -0.33 0.616 -0.729 1.341 l -0.742 1.313 l -0.137 0.055 c -0.289 0.137 -0.701 0.205 -1.471 0.287 c -0.426 0.041 -0.811 0.082 -0.866 0.082 c -0.041 0.014 -0.467 -0.027 -0.935 -0.068 m 0.234 -0.629 c -0.344 -0.068 -0.907 -0.397 -1.43 -0.821 c -0.316 -0.26 -0.33 -0.301 -0.316 -0.588 c 0.027 -0.233 0.069 -0.424 0.124 -0.424 c 0.014 0 0.261 0.123 0.536 0.287 c 0.784 0.438 0.948 0.506 1.306 0.534 l 0.302 0.014 l 0.027 0.109 c 0.014 0.096 0.014 0.315 -0.027 0.684 c -0.014 0.096 -0.041 0.192 -0.069 0.205 c -0.041 0.068 -0.192 0.055 -0.454 0 m 0.096 -0.178 c 0 0 -0.192 -0.137 -0.426 -0.301 c -0.234 -0.15 -0.536 -0.383 -0.674 -0.52 c -0.124 -0.123 -0.247 -0.233 -0.247 -0.233 c -0.069 0 0.041 0.369 0.137 0.479 c 0.137 0.178 1.21 0.684 1.21 0.575 m 0.701 0.192 c -0.055 -0.055 -0.082 -0.274 -0.096 -0.657 c 0 -0.369 0 -0.369 0.261 -0.369 c 0.124 0 0.289 -0.027 0.385 -0.055 c 0.179 -0.055 0.674 -0.301 1.182 -0.588 c 0.179 -0.096 0.33 -0.178 0.357 -0.178 c 0.041 0 0.096 0.192 0.11 0.465 l 0.014 0.233 l -0.137 0.15 c -0.344 0.328 -1.127 0.835 -1.471 0.944 c -0.275 0.096 -0.536 0.109 -0.605 0.055 m 0.715 -0.287 c 0.742 -0.315 0.935 -0.479 1 -0.848 c 0.027 -0.15 -0.014 -0.137 -0.151 0.014 c -0.151 0.178 -0.564 0.506 -0.88 0.698 c -0.426 0.274 -0.412 0.328 0.027 0.137 m -12.564 -1.218 c -0.88 -0.205 -1.622 -0.383 -1.636 -0.383 c -0.027 -0.041 0.041 -0.096 0.838 -0.698 c 2.02 -1.519 2.241 -1.669 2.818 -1.847 c 0.44 -0.15 0.674 -0.192 1.636 -0.274 l 0.564 -0.041 l 0.344 0.137 c 0.522 0.219 1.223 0.561 1.512 0.766 c 0.151 0.096 0.371 0.287 0.522 0.438 c 0.261 0.274 0.66 0.794 0.646 0.835 c -0.014 0.027 -0.206 0.055 -0.44 0.082 c -1.54 0.205 -2.557 0.383 -3.038 0.534 c -0.357 0.123 -1.072 0.424 -1.608 0.684 c -0.22 0.096 -0.371 0.15 -0.44 0.15 c -0.055 0 -0.825 -0.178 -1.718 -0.383 m 21.265 0.26 c -0.44 -0.219 -1.333 -0.602 -1.663 -0.711 c -0.509 -0.164 -1.141 -0.274 -2.639 -0.479 c -0.811 -0.096 -0.852 -0.109 -0.852 -0.15 c 0 -0.041 0.344 -0.493 0.564 -0.739 c 0.124 -0.137 0.316 -0.315 0.454 -0.424 c 0.275 -0.205 1.031 -0.602 1.622 -0.848 l 0.399 -0.15 l 0.55 0.041 c 1.045 0.096 1.443 0.164 1.966 0.383 c 0.357 0.15 0.66 0.356 2.447 1.71 c 0.852 0.629 0.907 0.684 0.88 0.725 c -0.027 0.027 -3.299 0.766 -3.395 0.766 c -0.041 0 -0.192 -0.055 -0.33 -0.123 m -10.227 -0.233 c -0.179 -0.014 -0.454 -0.055 -0.605 -0.082 c -0.234 -0.055 -0.275 -0.068 -0.302 -0.123 c -0.027 -0.055 -0.014 -0.233 0.055 -0.752 c 0.041 -0.369 0.082 -0.78 0.082 -0.889 c 0 -0.192 -0.014 -0.233 -0.192 -0.588 c -0.096 -0.205 -0.179 -0.383 -0.165 -0.397 c 0.014 -0.041 1.471 -0.711 1.526 -0.711 c 0.014 0 0.041 0.027 0.041 0.068 c 0.014 0.068 0.151 3.174 0.137 3.393 v 0.137 h -0.124 c -0.069 -0.014 -0.275 -0.027 -0.454 -0.055 m 0.701 -0.109 c 0 -0.082 0.027 -0.889 0.069 -1.779 c 0.041 -1.218 0.069 -1.642 0.096 -1.642 c 0.055 -0.027 1.526 0.657 1.553 0.711 c 0 0.014 -0.055 0.137 -0.124 0.274 c -0.069 0.137 -0.165 0.328 -0.192 0.438 c -0.082 0.219 -0.082 0.205 0.041 1.177 c 0.041 0.328 0.069 0.616 0.069 0.643 c 0 0.15 -0.11 0.178 -0.866 0.274 c -0.687 0.096 -0.646 0.096 -0.646 -0.096 m -1.966 -0.246 c -0.069 -0.055 -0.11 -0.137 -0.11 -0.178 c 0 -0.027 -0.027 -0.205 -0.069 -0.369 c -0.082 -0.451 -0.179 -0.629 -0.564 -1.04 c -0.33 -0.342 -0.33 -0.342 -0.261 -0.397 c 0.151 -0.096 0.921 -0.424 0.962 -0.397 c 0.055 0.014 0.344 0.616 0.371 0.807 c 0.055 0.26 -0.069 1.532 -0.151 1.642 c -0.041 0.055 -0.055 0.041 -0.179 -0.068 m 3.629 0.068 c -0.041 -0.068 -0.11 -0.493 -0.151 -1.026 c -0.027 -0.369 -0.027 -0.493 0 -0.643 c 0.041 -0.192 0.316 -0.766 0.385 -0.78 c 0.055 -0.027 0.962 0.383 0.976 0.438 c 0.014 0.027 -0.096 0.164 -0.261 0.328 c -0.426 0.451 -0.55 0.67 -0.619 1.231 c -0.027 0.205 -0.055 0.274 -0.11 0.342 c -0.11 0.123 -0.179 0.15 -0.22 0.109 m -6.05 -0.999 c -0.041 -0.055 -0.151 -0.219 -0.247 -0.356 c -0.22 -0.328 -0.564 -0.698 -0.784 -0.848 c -0.096 -0.055 -0.44 -0.246 -0.784 -0.424 c -0.33 -0.178 -0.619 -0.342 -0.619 -0.356 c -0.027 -0.027 0.756 -2.01 0.811 -2.038 c 0.014 0 0.096 0.055 0.165 0.123 l 0.124 0.137 l 0.041 0.383 c 0.069 0.93 0.165 1.395 0.316 1.532 c 0.137 0.109 0.522 0.328 1.251 0.698 c 0.344 0.178 0.632 0.342 0.619 0.356 c -0.014 0.041 -0.77 0.889 -0.797 0.889 c -0.014 0 -0.055 -0.055 -0.096 -0.109 m 8.137 -0.328 c -0.206 -0.233 -0.385 -0.438 -0.385 -0.451 c 0 -0.027 0.357 -0.219 0.784 -0.438 c 0.825 -0.424 1.086 -0.588 1.155 -0.698 c 0.027 -0.041 0.069 -0.178 0.096 -0.315 c 0.055 -0.219 0.082 -0.465 0.179 -1.382 c 0.014 -0.137 0.027 -0.164 0.137 -0.274 c 0.055 -0.055 0.137 -0.109 0.165 -0.109 c 0.027 0 0.151 0.274 0.426 0.958 c 0.206 0.534 0.371 0.999 0.371 1.026 c 0.014 0.055 -0.096 0.123 -0.646 0.41 c -0.357 0.192 -0.742 0.41 -0.852 0.506 c -0.234 0.178 -0.522 0.52 -0.811 0.917 c -0.096 0.15 -0.192 0.287 -0.206 0.287 c -0.014 0 -0.192 -0.192 -0.412 -0.438 m -7.368 -0.862 c -0.165 -0.041 -0.426 -0.123 -0.591 -0.178 c -0.825 -0.301 -1.045 -0.479 -1.21 -1.012 c -0.082 -0.274 -0.11 -0.862 -0.041 -1.245 c 0.014 -0.15 0.027 -0.287 0.027 -0.315 c -0.014 -0.014 -0.11 -0.068 -0.22 -0.123 c -0.11 -0.055 -0.22 -0.109 -0.22 -0.137 c -0.027 -0.041 0.151 -0.383 0.206 -0.41 c 0.041 -0.014 5.237 2.093 5.278 2.148 c 0.041 0.041 0.137 -0.014 -1.43 0.725 c -0.742 0.342 -1.375 0.629 -1.416 0.616 c -0.055 0 -0.22 -0.027 -0.385 -0.068 m 0.385 -0.561 c 0.33 -0.15 0.811 -0.561 0.784 -0.657 c -0.014 -0.068 -2.227 -1.026 -2.268 -0.985 c -0.055 0.055 -0.041 0.835 0.027 1.04 c 0.069 0.219 0.22 0.438 0.385 0.561 c 0.192 0.137 0.289 0.164 0.605 0.15 c 0.22 -0.014 0.289 -0.027 0.467 -0.109 m -0.619 -0.328 c -0.179 -0.055 -0.289 -0.137 -0.357 -0.274 c -0.069 -0.109 -0.082 -0.178 -0.082 -0.342 c -0.014 -0.123 0 -0.233 0.027 -0.246 c 0.041 -0.041 1.072 0.41 1.1 0.479 c 0.027 0.055 -0.179 0.26 -0.302 0.328 c -0.124 0.055 -0.275 0.082 -0.385 0.055 m 5.485 0.315 c -0.756 -0.356 -1.388 -0.657 -1.388 -0.67 c -0.014 -0.041 5.237 -2.189 5.292 -2.175 c 0.055 0.027 0.234 0.383 0.22 0.424 c -0.014 0.014 -0.11 0.068 -0.234 0.123 c -0.11 0.055 -0.206 0.109 -0.22 0.123 c 0 0.027 0.014 0.164 0.027 0.315 c 0.124 0.807 -0.027 1.519 -0.385 1.833 c -0.151 0.137 -0.467 0.287 -0.99 0.465 c -0.33 0.109 -0.784 0.219 -0.893 0.205 c -0.027 0 -0.674 -0.287 -1.43 -0.643 m 2.351 0.082 c 0.275 -0.123 0.467 -0.328 0.577 -0.684 c 0.041 -0.123 0.055 -0.26 0.055 -0.588 c 0 -0.246 -0.014 -0.424 -0.027 -0.438 c -0.027 -0.027 -0.371 0.109 -1.127 0.438 c -0.605 0.26 -1.113 0.493 -1.141 0.506 c -0.11 0.096 0.564 0.643 0.962 0.78 c 0.179 0.055 0.522 0.041 0.687 -0.014 m -0.536 -0.41 c -0.124 -0.041 -0.399 -0.287 -0.399 -0.356 c 0 -0.068 1.058 -0.547 1.113 -0.493 c 0.055 0.055 0.027 0.397 -0.041 0.561 c -0.11 0.233 -0.412 0.356 -0.674 0.287 m -14.859 -0.068 c -0.564 -0.301 -1.031 -0.547 -1.031 -0.575 c 0.014 -0.027 3.285 -1.888 3.326 -1.888 c 0.014 0 0.055 0.096 0.11 0.205 c 0.247 0.629 0.399 0.985 0.495 1.136 c 0.096 0.164 0.454 0.657 0.66 0.903 c 0.055 0.082 0.096 0.15 0.082 0.164 c -0.014 0.014 -0.165 0.041 -0.344 0.068 c -0.976 0.109 -1.43 0.205 -1.952 0.41 c -0.151 0.055 -0.275 0.109 -0.289 0.109 c 0 0 -0.481 -0.246 -1.058 -0.534 m 21.361 0.424 c -0.137 -0.068 -0.385 -0.15 -0.536 -0.192 c -0.247 -0.068 -1.058 -0.192 -1.512 -0.233 c -0.124 -0.014 -0.234 -0.041 -0.234 -0.055 c -0.014 -0.014 0 -0.068 0.027 -0.096 c 0.041 -0.041 0.165 -0.205 0.289 -0.356 c 0.399 -0.506 0.495 -0.67 0.825 -1.505 c 0.096 -0.233 0.192 -0.438 0.206 -0.438 c 0.014 -0.014 1.746 0.944 3.148 1.751 c 0.11 0.055 0.192 0.109 0.192 0.137 c 0 0.027 -1.952 1.026 -2.076 1.067 c -0.027 0.014 -0.165 -0.027 -0.316 -0.096 m -17.223 -0.547 c -0.907 -0.438 -2.048 -3.393 -2.323 -6.05 c -0.055 -0.506 -0.041 -1.696 0.014 -1.984 c 0.069 -0.328 0.041 -0.328 0.385 0.055 c 0.371 0.383 1.141 1.136 1.512 1.464 c 0.412 0.356 0.619 0.506 0.99 0.698 c 0.192 0.096 0.399 0.205 0.454 0.246 c 0.096 0.055 0.124 0.055 0.165 0.014 c 0.014 -0.014 0.151 -0.246 0.275 -0.493 c 0.137 -0.26 0.275 -0.493 0.302 -0.52 c 0.069 -0.068 0.069 -0.068 0.22 -0.014 c 0.22 0.082 0.632 0.301 0.962 0.52 c 0.412 0.26 0.838 0.602 0.838 0.657 c 0 0.055 -1.718 2.394 -1.883 2.586 c -0.124 0.137 -0.137 0.137 -0.247 0.123 c -0.096 -0.014 -0.124 -0.014 -0.165 0.041 c -0.069 0.068 -0.426 0.862 -0.921 2.025 c -0.206 0.506 -0.316 0.725 -0.344 0.725 c -0.027 -0.014 -0.137 -0.041 -0.234 -0.096 m 0.412 -1.231 c 0.385 -0.807 0.701 -1.505 0.784 -1.738 c 0.069 -0.205 0.055 -0.383 -0.069 -0.629 c -0.096 -0.192 -0.179 -0.301 -0.467 -0.602 c -0.206 -0.192 -0.522 -0.493 -0.729 -0.643 c -0.811 -0.629 -1.443 -1.409 -1.911 -2.339 c -0.055 -0.15 -0.124 -0.26 -0.137 -0.26 c -0.082 0 -0.055 0.917 0.041 1.614 c 0.261 1.888 0.811 3.612 1.485 4.706 c 0.192 0.328 0.509 0.725 0.564 0.725 c 0.027 0 0.192 -0.315 0.44 -0.835 m 13.43 0.588 c -0.481 -1.122 -0.852 -1.956 -0.907 -2.01 c -0.041 -0.055 -0.082 -0.055 -0.179 -0.041 c -0.096 0.014 -0.11 0 -0.234 -0.123 c -0.192 -0.205 -1.897 -2.531 -1.897 -2.586 c 0 -0.055 0.316 -0.301 0.742 -0.602 c 0.302 -0.205 0.797 -0.479 1.045 -0.588 l 0.165 -0.055 l 0.069 0.068 c 0.027 0.041 0.165 0.274 0.302 0.52 c 0.137 0.26 0.261 0.479 0.289 0.506 c 0.027 0.041 0.055 0.041 0.151 -0.027 c 0.055 -0.027 0.261 -0.15 0.454 -0.246 c 0.591 -0.315 1.141 -0.78 2.199 -1.861 l 0.619 -0.629 l 0.027 0.137 c 0.096 0.424 0.124 1.341 0.069 2.01 c -0.206 2.285 -1.113 4.925 -2.01 5.91 c -0.137 0.15 -0.454 0.342 -0.564 0.342 c -0.014 0 -0.165 -0.328 -0.344 -0.725 m 0.784 0.055 c 0.797 -0.889 1.526 -2.873 1.869 -5.171 c 0.069 -0.479 0.11 -1.683 0.055 -1.683 c -0.014 0 -0.11 0.15 -0.206 0.342 c -0.33 0.657 -0.797 1.3 -1.251 1.738 c -0.11 0.109 -0.385 0.342 -0.605 0.52 c -0.674 0.534 -1.155 1.067 -1.265 1.395 c -0.069 0.178 -0.041 0.356 0.069 0.643 c 0.234 0.588 1.086 2.408 1.141 2.408 c 0.014 0 0.096 -0.082 0.192 -0.192 m -7.588 0.219 c -0.289 -0.233 -0.316 -0.383 -0.22 -0.93 c 0.069 -0.438 0.041 -0.752 -0.11 -1.149 c -0.165 -0.41 -0.206 -0.588 -0.206 -0.889 c 0 -0.287 0.041 -0.479 0.096 -0.479 c 0.027 0 0.165 0.082 0.302 0.192 c 0.151 0.096 0.289 0.178 0.302 0.178 c 0.027 0 0.165 -0.082 0.316 -0.178 c 0.137 -0.109 0.275 -0.192 0.302 -0.192 c 0.069 0 0.082 0.137 0.082 0.52 c 0 0.301 -0.014 0.383 -0.082 0.561 c -0.22 0.575 -0.234 0.616 -0.247 0.889 c -0.014 0.178 0 0.383 0.027 0.575 c 0.096 0.561 0.069 0.67 -0.22 0.903 c -0.082 0.068 -0.165 0.123 -0.179 0.123 c -0.014 0 -0.082 -0.055 -0.165 -0.123 m -1.058 -0.397 c -0.22 -0.096 -0.412 -0.192 -0.44 -0.219 c -0.027 -0.014 -0.082 -0.178 -0.124 -0.356 c -0.11 -0.479 -0.275 -0.794 -0.509 -1.04 c -0.124 -0.109 -0.247 -0.246 -0.302 -0.287 c -0.096 -0.068 -0.11 -0.096 -0.137 -0.274 c -0.014 -0.123 -0.014 -0.301 0.014 -0.41 c 0.055 -0.438 0.192 -0.547 0.756 -0.588 c 0.357 -0.027 1.127 0.014 1.168 0.055 c 0.014 0.014 -0.014 0.233 -0.055 0.479 l -0.096 0.465 l 0.165 0.493 c 0.096 0.287 0.192 0.602 0.22 0.711 c 0.055 0.233 0.055 0.561 -0.014 0.807 c -0.069 0.287 -0.096 0.342 -0.165 0.342 c -0.041 0 -0.247 -0.082 -0.481 -0.178 m 1.883 0.109 c -0.069 -0.205 -0.124 -0.479 -0.124 -0.711 c 0 -0.26 0.096 -0.657 0.316 -1.272 l 0.11 -0.287 l -0.096 -0.465 c -0.041 -0.274 -0.069 -0.479 -0.055 -0.493 c 0.041 -0.055 0.852 -0.082 1.196 -0.055 c 0.605 0.055 0.715 0.164 0.729 0.794 l 0.014 0.369 l -0.096 0.082 c -0.055 0.041 -0.206 0.192 -0.33 0.315 c -0.275 0.274 -0.357 0.465 -0.522 0.999 c -0.055 0.219 -0.11 0.397 -0.124 0.41 c -0.041 0.041 -0.866 0.383 -0.935 0.383 c -0.027 0 -0.069 -0.027 -0.082 -0.082 m -4.784 -1.395 c -0.605 -0.301 -1.1 -0.575 -1.1 -0.602 c 0 -0.014 0.179 -0.219 0.399 -0.438 l 0.399 -0.41 l 0.096 0.055 c 0.179 0.082 0.495 0.342 0.646 0.506 c 0.165 0.192 0.344 0.506 0.536 0.958 c 0.165 0.369 0.206 0.506 0.165 0.506 c -0.014 0 -0.536 -0.26 -1.141 -0.575 m 7.107 0.534 c 0 -0.123 0.454 -1.081 0.632 -1.313 c 0.124 -0.178 0.454 -0.465 0.674 -0.588 l 0.151 -0.082 l 0.399 0.41 c 0.22 0.219 0.399 0.424 0.399 0.438 c 0 0.027 -0.481 0.287 -1.113 0.602 c -0.619 0.315 -1.127 0.561 -1.127 0.561 c -0.014 0 -0.014 -0.014 -0.014 -0.027 m -6.598 -1.888 c -0.302 -0.205 -0.564 -0.383 -0.577 -0.397 c -0.027 -0.041 1.443 -2.449 1.54 -2.504 c 0.027 -0.027 0.11 0 0.289 0.109 c 0.357 0.219 0.866 0.561 1.086 0.752 c 0.11 0.082 0.206 0.15 0.22 0.15 c 0.055 0 0.234 -0.15 0.357 -0.328 c 0.137 -0.192 0.674 -1.259 0.674 -1.341 c 0 -0.014 0.014 -0.041 0.041 -0.041 c 0.014 0 0.027 0.027 0.027 0.041 c 0 0.068 0.426 0.958 0.577 1.19 c 0.165 0.26 0.261 0.369 0.371 0.438 c 0.055 0.027 0.096 0.041 0.096 0.041 c 0.014 0 0.082 -0.068 0.179 -0.137 c 0.261 -0.246 1.278 -0.903 1.375 -0.903 c 0.027 0 0.069 0.041 0.096 0.082 c 0.124 0.192 1.498 2.394 1.498 2.422 c 0 0.041 -1.141 0.794 -1.168 0.766 c -0.014 -0.014 -0.055 -0.15 -0.096 -0.315 c -0.137 -0.506 -0.302 -0.725 -0.536 -0.725 c -0.44 -0.014 -1 0.027 -1.938 0.164 l -0.495 0.082 l -0.495 -0.082 c -0.756 -0.109 -1.306 -0.164 -1.691 -0.164 c -0.344 0 -0.357 0 -0.454 0.082 c -0.11 0.096 -0.275 0.438 -0.344 0.725 c -0.027 0.109 -0.055 0.219 -0.069 0.233 c -0.014 0.014 -0.275 -0.137 -0.577 -0.342" transform="matrix(0.28418 0 0 0.28552 1.182 1.037)" fill="none" stroke="#000" stroke-linejoin="round" stroke-linecap="round" stroke-width="2"/></g><g id="6" clip-path="url(#5)"><path d="m 23.318 30.913 c -0.481 -0.123 -0.797 -0.233 -0.852 -0.301 c -0.096 -0.109 -0.192 -0.78 -0.44 -2.955 c -0.11 -1.053 -0.467 -4.665 -0.467 -4.747 c 0 0 0.014 -0.014 0.027 -0.014 c 0.027 0 0.646 0.711 0.715 0.821 c 0.082 0.137 0.11 0.602 0.124 2.435 c 0.027 1.97 0.069 2.681 0.192 2.914 c 0.055 0.109 0.385 0.219 0.893 0.287 c 0.22 0.027 0.371 0.068 0.385 0.082 c 0 0.027 -0.027 0.383 -0.082 0.794 c -0.041 0.41 -0.096 0.752 -0.096 0.752 c 0 0.027 0.014 0.027 -0.399 -0.068 m 0.99 -0.014 c -0.055 -0.287 -0.165 -1.423 -0.165 -1.464 c 0.014 -0.027 0.124 -0.055 0.33 -0.082 c 0.577 -0.068 0.921 -0.178 0.976 -0.328 c 0.096 -0.274 0.137 -1.012 0.179 -3.325 c 0.014 -0.944 0.041 -1.779 0.055 -1.847 c 0.014 -0.096 0.082 -0.192 0.275 -0.41 c 0.44 -0.506 0.495 -0.561 0.509 -0.547 c 0.027 0.027 -0.302 3.407 -0.481 5.01 c -0.22 1.929 -0.316 2.599 -0.399 2.709 c -0.055 0.055 -0.495 0.205 -0.893 0.301 c -0.151 0.027 -0.289 0.068 -0.316 0.082 c -0.041 0 -0.055 -0.014 -0.069 -0.096 m -1.32 -2.148 c -0.192 -0.068 -0.234 -0.26 -0.124 -0.684 c 0.096 -0.369 0.371 -0.93 0.426 -0.862 c 0.014 0.014 0.014 0.246 -0.014 0.52 c -0.014 0.274 -0.041 0.602 -0.041 0.739 c 0 0.137 -0.014 0.26 -0.027 0.287 c -0.027 0.041 -0.082 0.027 -0.22 0 m 1.842 -0.014 c 0 -0.014 -0.014 -0.137 -0.014 -0.26 c -0.014 -0.192 -0.055 -0.835 -0.096 -1.204 c 0 -0.123 0.082 -0.068 0.179 0.109 c 0.247 0.397 0.412 1.094 0.302 1.259 c -0.069 0.109 -0.316 0.178 -0.371 0.096 m -1.471 -0.055 c -0.041 -0.027 -0.055 -0.082 -0.055 -0.41 v -0.383 h 0.687 v 0.369 c 0 0.397 -0.014 0.438 -0.165 0.438 c -0.055 0 -0.124 -0.014 -0.179 -0.014 c -0.041 0 -0.124 0 -0.165 0.014 c -0.041 0.014 -0.096 0.014 -0.124 -0.014 m 0.784 0 c -0.069 -0.041 -0.082 -0.055 -0.082 -0.41 l -0.014 -0.383 h 0.687 v 0.383 c 0 0.438 -0.014 0.465 -0.22 0.41 c -0.082 -0.027 -0.137 -0.027 -0.192 0 c -0.082 0.041 -0.096 0.041 -0.179 0 m -8 -1.792 c 0 -0.027 0.55 -1.505 0.646 -1.71 c 0.027 -0.068 0.082 -0.123 0.124 -0.15 c 0.041 -0.014 0.467 -0.178 0.948 -0.342 c 0.481 -0.178 1.471 -0.547 2.186 -0.821 c 0.715 -0.274 1.32 -0.479 1.333 -0.465 c 0.041 0.055 0.247 2.394 0.22 2.435 c -0.027 0.027 -5.265 1.081 -5.402 1.081 c -0.027 0 -0.055 -0.014 -0.055 -0.027 m 7.326 -0.041 c -0.385 -0.178 -0.481 -0.479 -0.66 -2.134 c -0.082 -0.711 -0.082 -0.766 -0.041 -0.821 c 0.055 -0.041 1.1 -0.547 1.155 -0.547 c 0.082 0.014 0.096 3.16 0.014 3.42 c -0.014 0.055 -0.055 0.109 -0.069 0.123 c -0.069 0.041 -0.247 0.027 -0.399 -0.041 m 0.715 0.041 c -0.096 -0.055 -0.11 -0.219 -0.124 -1.231 c -0.014 -1.272 0.014 -2.312 0.069 -2.312 c 0.041 0 1.072 0.493 1.141 0.534 c 0.014 0.014 0.027 0.082 0.027 0.137 c 0 0.164 -0.11 1.149 -0.192 1.683 c -0.11 0.752 -0.206 0.971 -0.522 1.136 c -0.151 0.082 -0.33 0.109 -0.399 0.055 m 4.921 -0.506 c -1.457 -0.287 -2.653 -0.534 -2.667 -0.547 c -0.041 -0.041 0.192 -2.394 0.234 -2.435 c 0.014 -0.014 0.522 0.164 1.21 0.424 c 0.646 0.246 1.663 0.629 2.241 0.835 c 0.591 0.219 1.072 0.397 1.086 0.41 c 0.027 0.027 0.687 1.792 0.687 1.82 c 0 0.014 -0.027 0.027 -0.082 0.027 c -0.041 0 -1.265 -0.246 -2.708 -0.534 m -14.625 -1.259 c 0.014 -0.041 1.141 -0.985 1.278 -1.081 c 1.663 -1.094 5.237 -3.379 5.265 -3.352 c 0.041 0.055 0.344 2.257 0.316 2.339 c -0.041 0.096 -3.753 1.614 -4.454 1.82 c -0.481 0.15 -2.433 0.369 -2.406 0.274 m 18.06 -0.055 c -1.127 -0.123 -1.278 -0.15 -2.186 -0.493 c -1.265 -0.493 -3.629 -1.491 -3.643 -1.56 c -0.041 -0.082 0.261 -2.271 0.316 -2.326 c 0.014 -0.014 0.399 0.219 0.88 0.52 c 4.674 3.02 4.426 2.859 5.04 3.379 c 0.33 0.26 0.591 0.506 0.605 0.52 c 0.014 0.055 -0.234 0.055 -1.017 -0.041 m -20.44 -1.177 c -1.388 -0.014 -2.639 -0.027 -2.804 -0.041 l -0.302 -0.027 l 0.385 -0.315 c 2.57 -2.162 4.261 -3.557 4.687 -3.885 c 0.247 -0.192 0.893 -0.52 1.388 -0.725 c 0.701 -0.287 1.21 -0.41 2.186 -0.561 c 0.715 -0.109 2.062 -0.26 2.117 -0.233 c 0.041 0.014 0.454 0.588 0.619 0.876 c 0.22 0.369 0.605 1.341 0.577 1.437 c -0.027 0.055 -3.931 2.627 -4.907 3.242 l -0.412 0.26 h -0.509 c -0.289 0 -1.649 0 -3.02 -0.014 m 20.454 0 c -0.165 -0.014 -0.234 -0.041 -0.509 -0.219 c -1.045 -0.643 -4.935 -3.229 -4.948 -3.27 c -0.014 -0.055 0.261 -0.835 0.426 -1.149 c 0.137 -0.287 0.55 -0.93 0.687 -1.094 c 0.082 -0.082 0.096 -0.096 0.22 -0.082 c 0.069 0.014 0.371 0.055 0.674 0.082 c 1.32 0.15 2.227 0.301 2.79 0.479 c 0.866 0.26 1.773 0.711 2.282 1.122 c 0.99 0.794 4.811 3.995 4.825 4.04 c 0.014 0.041 -0.66 0.068 -2.955 0.082 c -1.223 0 -2.46 0.014 -2.763 0.027 c -0.289 0 -0.619 0 -0.729 -0.014 m -10.03 -0.41 c -0.289 -0.219 -0.632 -0.588 -0.729 -0.766 c -0.096 -0.178 -0.206 -0.616 -0.261 -0.971 c -0.027 -0.137 -0.069 -0.301 -0.096 -0.369 c -0.096 -0.192 -0.027 -0.561 0.096 -0.534 c 0.591 0.178 0.976 0.274 1.113 0.301 c 0.412 0.068 1.347 0.096 1.952 0.068 c 0.838 -0.055 0.935 -0.068 1.663 -0.287 c 0.357 -0.109 0.357 -0.096 0.399 0.164 c 0.014 0.109 0 0.178 -0.041 0.287 c -0.027 0.082 -0.082 0.287 -0.11 0.438 c -0.11 0.67 -0.22 0.93 -0.522 1.259 c -0.247 0.246 -0.66 0.588 -0.674 0.547 c 0 -0.027 0.041 -0.15 0.096 -0.287 c 0.165 -0.397 0.247 -0.684 0.289 -0.985 c 0.041 -0.397 0.027 -0.506 -0.151 -0.67 l -0.137 -0.137 l -0.261 0.014 c -0.151 0.014 -0.344 0.027 -0.44 0.041 l -0.151 0.014 l 0.069 0.068 l 0.082 0.055 v 0.547 c 0 0.629 0.027 0.588 -0.357 0.575 l -0.22 -0.014 v -0.534 c 0.014 -0.287 0.027 -0.534 0.041 -0.547 c 0.014 -0.014 0.096 -0.055 0.179 -0.082 c 0.165 -0.041 0.165 -0.041 -0.316 -0.041 h -0.495 l 0.357 0.109 l 0.014 0.274 c 0.014 0.15 0.027 0.397 0.014 0.547 v 0.274 h -0.22 c -0.124 0.014 -0.261 0 -0.302 0 l -0.069 -0.027 l 0.014 -0.547 c 0.014 -0.547 0.014 -0.561 0.082 -0.588 c 0.027 -0.014 0.055 -0.041 0.055 -0.055 c 0 -0.014 -0.206 -0.041 -0.591 -0.068 l -0.247 -0.014 l -0.151 0.137 l -0.151 0.15 l 0.014 0.315 c 0 0.369 0.069 0.67 0.275 1.149 c 0.069 0.164 0.11 0.301 0.11 0.328 c -0.014 0.014 -0.11 -0.041 -0.22 -0.137 m 0.206 -0.657 c -0.096 -0.027 -0.096 -0.082 -0.137 -0.643 l -0.027 -0.301 l 0.11 -0.109 c 0.082 -0.096 0.11 -0.109 0.275 -0.123 c 0.124 0 0.206 0.014 0.22 0.041 c 0.069 0.055 0.082 1.094 0.027 1.136 c -0.055 0.027 -0.371 0.027 -0.467 0 m 2.144 0.014 c -0.027 -0.014 -0.041 -0.15 -0.041 -0.547 c 0 -0.629 0 -0.643 0.261 -0.643 c 0.179 0.014 0.275 0.068 0.357 0.178 c 0.041 0.068 0.041 0.123 0.014 0.493 c -0.027 0.233 -0.041 0.438 -0.055 0.451 c -0.027 0.068 -0.44 0.109 -0.536 0.068 m -1.704 -1.847 c -0.88 -0.096 -1.32 -0.178 -1.567 -0.315 c -0.137 -0.068 -0.151 -0.096 -0.866 -1.354 c -0.385 -0.711 -0.715 -1.313 -0.715 -1.341 c 0 -0.055 0.77 -0.889 0.838 -0.889 c 0.082 0 0.385 0.164 0.522 0.287 c 0.234 0.219 0.261 0.451 0.124 0.971 c -0.124 0.41 -0.165 0.698 -0.124 0.848 c 0.041 0.15 0.302 0.397 0.66 0.629 c 0.33 0.205 1.182 0.657 1.553 0.821 c 0.137 0.055 0.289 0.137 0.33 0.178 c 0.096 0.096 0.124 0.096 0.192 0.014 c 0.027 -0.027 0.275 -0.164 0.564 -0.301 c 0.907 -0.424 1.622 -0.862 1.883 -1.149 l 0.124 -0.137 l -0.014 -0.301 c -0.014 -0.205 -0.041 -0.383 -0.11 -0.602 c -0.151 -0.506 -0.124 -0.752 0.124 -0.971 c 0.151 -0.123 0.495 -0.315 0.55 -0.301 c 0.041 0.027 0.811 0.862 0.811 0.903 c 0 0.014 -0.33 0.616 -0.729 1.341 l -0.742 1.313 l -0.137 0.055 c -0.289 0.137 -0.701 0.205 -1.471 0.287 c -0.426 0.041 -0.811 0.082 -0.866 0.082 c -0.041 0.014 -0.467 -0.027 -0.935 -0.068 m 0.234 -0.629 c -0.344 -0.068 -0.907 -0.397 -1.43 -0.821 c -0.316 -0.26 -0.33 -0.301 -0.316 -0.588 c 0.027 -0.233 0.069 -0.424 0.124 -0.424 c 0.014 0 0.261 0.123 0.536 0.287 c 0.784 0.438 0.948 0.506 1.306 0.534 l 0.302 0.014 l 0.027 0.109 c 0.014 0.096 0.014 0.315 -0.027 0.684 c -0.014 0.096 -0.041 0.192 -0.069 0.205 c -0.041 0.068 -0.192 0.055 -0.454 0 m 0.096 -0.178 c 0 0 -0.192 -0.137 -0.426 -0.301 c -0.234 -0.15 -0.536 -0.383 -0.674 -0.52 c -0.124 -0.123 -0.247 -0.233 -0.247 -0.233 c -0.069 0 0.041 0.369 0.137 0.479 c 0.137 0.178 1.21 0.684 1.21 0.575 m 0.701 0.192 c -0.055 -0.055 -0.082 -0.274 -0.096 -0.657 c 0 -0.369 0 -0.369 0.261 -0.369 c 0.124 0 0.289 -0.027 0.385 -0.055 c 0.179 -0.055 0.674 -0.301 1.182 -0.588 c 0.179 -0.096 0.33 -0.178 0.357 -0.178 c 0.041 0 0.096 0.192 0.11 0.465 l 0.014 0.233 l -0.137 0.15 c -0.344 0.328 -1.127 0.835 -1.471 0.944 c -0.275 0.096 -0.536 0.109 -0.605 0.055 m 0.715 -0.287 c 0.742 -0.315 0.935 -0.479 1 -0.848 c 0.027 -0.15 -0.014 -0.137 -0.151 0.014 c -0.151 0.178 -0.564 0.506 -0.88 0.698 c -0.426 0.274 -0.412 0.328 0.027 0.137 m -12.564 -1.218 c -0.88 -0.205 -1.622 -0.383 -1.636 -0.383 c -0.027 -0.041 0.041 -0.096 0.838 -0.698 c 2.02 -1.519 2.241 -1.669 2.818 -1.847 c 0.44 -0.15 0.674 -0.192 1.636 -0.274 l 0.564 -0.041 l 0.344 0.137 c 0.522 0.219 1.223 0.561 1.512 0.766 c 0.151 0.096 0.371 0.287 0.522 0.438 c 0.261 0.274 0.66 0.794 0.646 0.835 c -0.014 0.027 -0.206 0.055 -0.44 0.082 c -1.54 0.205 -2.557 0.383 -3.038 0.534 c -0.357 0.123 -1.072 0.424 -1.608 0.684 c -0.22 0.096 -0.371 0.15 -0.44 0.15 c -0.055 0 -0.825 -0.178 -1.718 -0.383 m 21.265 0.26 c -0.44 -0.219 -1.333 -0.602 -1.663 -0.711 c -0.509 -0.164 -1.141 -0.274 -2.639 -0.479 c -0.811 -0.096 -0.852 -0.109 -0.852 -0.15 c 0 -0.041 0.344 -0.493 0.564 -0.739 c 0.124 -0.137 0.316 -0.315 0.454 -0.424 c 0.275 -0.205 1.031 -0.602 1.622 -0.848 l 0.399 -0.15 l 0.55 0.041 c 1.045 0.096 1.443 0.164 1.966 0.383 c 0.357 0.15 0.66 0.356 2.447 1.71 c 0.852 0.629 0.907 0.684 0.88 0.725 c -0.027 0.027 -3.299 0.766 -3.395 0.766 c -0.041 0 -0.192 -0.055 -0.33 -0.123 m -10.227 -0.233 c -0.179 -0.014 -0.454 -0.055 -0.605 -0.082 c -0.234 -0.055 -0.275 -0.068 -0.302 -0.123 c -0.027 -0.055 -0.014 -0.233 0.055 -0.752 c 0.041 -0.369 0.082 -0.78 0.082 -0.889 c 0 -0.192 -0.014 -0.233 -0.192 -0.588 c -0.096 -0.205 -0.179 -0.383 -0.165 -0.397 c 0.014 -0.041 1.471 -0.711 1.526 -0.711 c 0.014 0 0.041 0.027 0.041 0.068 c 0.014 0.068 0.151 3.174 0.137 3.393 v 0.137 h -0.124 c -0.069 -0.014 -0.275 -0.027 -0.454 -0.055 m 0.701 -0.109 c 0 -0.082 0.027 -0.889 0.069 -1.779 c 0.041 -1.218 0.069 -1.642 0.096 -1.642 c 0.055 -0.027 1.526 0.657 1.553 0.711 c 0 0.014 -0.055 0.137 -0.124 0.274 c -0.069 0.137 -0.165 0.328 -0.192 0.438 c -0.082 0.219 -0.082 0.205 0.041 1.177 c 0.041 0.328 0.069 0.616 0.069 0.643 c 0 0.15 -0.11 0.178 -0.866 0.274 c -0.687 0.096 -0.646 0.096 -0.646 -0.096 m -1.966 -0.246 c -0.069 -0.055 -0.11 -0.137 -0.11 -0.178 c 0 -0.027 -0.027 -0.205 -0.069 -0.369 c -0.082 -0.451 -0.179 -0.629 -0.564 -1.04 c -0.33 -0.342 -0.33 -0.342 -0.261 -0.397 c 0.151 -0.096 0.921 -0.424 0.962 -0.397 c 0.055 0.014 0.344 0.616 0.371 0.807 c 0.055 0.26 -0.069 1.532 -0.151 1.642 c -0.041 0.055 -0.055 0.041 -0.179 -0.068 m 3.629 0.068 c -0.041 -0.068 -0.11 -0.493 -0.151 -1.026 c -0.027 -0.369 -0.027 -0.493 0 -0.643 c 0.041 -0.192 0.316 -0.766 0.385 -0.78 c 0.055 -0.027 0.962 0.383 0.976 0.438 c 0.014 0.027 -0.096 0.164 -0.261 0.328 c -0.426 0.451 -0.55 0.67 -0.619 1.231 c -0.027 0.205 -0.055 0.274 -0.11 0.342 c -0.11 0.123 -0.179 0.15 -0.22 0.109 m -6.05 -0.999 c -0.041 -0.055 -0.151 -0.219 -0.247 -0.356 c -0.22 -0.328 -0.564 -0.698 -0.784 -0.848 c -0.096 -0.055 -0.44 -0.246 -0.784 -0.424 c -0.33 -0.178 -0.619 -0.342 -0.619 -0.356 c -0.027 -0.027 0.756 -2.01 0.811 -2.038 c 0.014 0 0.096 0.055 0.165 0.123 l 0.124 0.137 l 0.041 0.383 c 0.069 0.93 0.165 1.395 0.316 1.532 c 0.137 0.109 0.522 0.328 1.251 0.698 c 0.344 0.178 0.632 0.342 0.619 0.356 c -0.014 0.041 -0.77 0.889 -0.797 0.889 c -0.014 0 -0.055 -0.055 -0.096 -0.109 m 8.137 -0.328 c -0.206 -0.233 -0.385 -0.438 -0.385 -0.451 c 0 -0.027 0.357 -0.219 0.784 -0.438 c 0.825 -0.424 1.086 -0.588 1.155 -0.698 c 0.027 -0.041 0.069 -0.178 0.096 -0.315 c 0.055 -0.219 0.082 -0.465 0.179 -1.382 c 0.014 -0.137 0.027 -0.164 0.137 -0.274 c 0.055 -0.055 0.137 -0.109 0.165 -0.109 c 0.027 0 0.151 0.274 0.426 0.958 c 0.206 0.534 0.371 0.999 0.371 1.026 c 0.014 0.055 -0.096 0.123 -0.646 0.41 c -0.357 0.192 -0.742 0.41 -0.852 0.506 c -0.234 0.178 -0.522 0.52 -0.811 0.917 c -0.096 0.15 -0.192 0.287 -0.206 0.287 c -0.014 0 -0.192 -0.192 -0.412 -0.438 m -7.368 -0.862 c -0.165 -0.041 -0.426 -0.123 -0.591 -0.178 c -0.825 -0.301 -1.045 -0.479 -1.21 -1.012 c -0.082 -0.274 -0.11 -0.862 -0.041 -1.245 c 0.014 -0.15 0.027 -0.287 0.027 -0.315 c -0.014 -0.014 -0.11 -0.068 -0.22 -0.123 c -0.11 -0.055 -0.22 -0.109 -0.22 -0.137 c -0.027 -0.041 0.151 -0.383 0.206 -0.41 c 0.041 -0.014 5.237 2.093 5.278 2.148 c 0.041 0.041 0.137 -0.014 -1.43 0.725 c -0.742 0.342 -1.375 0.629 -1.416 0.616 c -0.055 0 -0.22 -0.027 -0.385 -0.068 m 0.385 -0.561 c 0.33 -0.15 0.811 -0.561 0.784 -0.657 c -0.014 -0.068 -2.227 -1.026 -2.268 -0.985 c -0.055 0.055 -0.041 0.835 0.027 1.04 c 0.069 0.219 0.22 0.438 0.385 0.561 c 0.192 0.137 0.289 0.164 0.605 0.15 c 0.22 -0.014 0.289 -0.027 0.467 -0.109 m -0.619 -0.328 c -0.179 -0.055 -0.289 -0.137 -0.357 -0.274 c -0.069 -0.109 -0.082 -0.178 -0.082 -0.342 c -0.014 -0.123 0 -0.233 0.027 -0.246 c 0.041 -0.041 1.072 0.41 1.1 0.479 c 0.027 0.055 -0.179 0.26 -0.302 0.328 c -0.124 0.055 -0.275 0.082 -0.385 0.055 m 5.485 0.315 c -0.756 -0.356 -1.388 -0.657 -1.388 -0.67 c -0.014 -0.041 5.237 -2.189 5.292 -2.175 c 0.055 0.027 0.234 0.383 0.22 0.424 c -0.014 0.014 -0.11 0.068 -0.234 0.123 c -0.11 0.055 -0.206 0.109 -0.22 0.123 c 0 0.027 0.014 0.164 0.027 0.315 c 0.124 0.807 -0.027 1.519 -0.385 1.833 c -0.151 0.137 -0.467 0.287 -0.99 0.465 c -0.33 0.109 -0.784 0.219 -0.893 0.205 c -0.027 0 -0.674 -0.287 -1.43 -0.643 m 2.351 0.082 c 0.275 -0.123 0.467 -0.328 0.577 -0.684 c 0.041 -0.123 0.055 -0.26 0.055 -0.588 c 0 -0.246 -0.014 -0.424 -0.027 -0.438 c -0.027 -0.027 -0.371 0.109 -1.127 0.438 c -0.605 0.26 -1.113 0.493 -1.141 0.506 c -0.11 0.096 0.564 0.643 0.962 0.78 c 0.179 0.055 0.522 0.041 0.687 -0.014 m -0.536 -0.41 c -0.124 -0.041 -0.399 -0.287 -0.399 -0.356 c 0 -0.068 1.058 -0.547 1.113 -0.493 c 0.055 0.055 0.027 0.397 -0.041 0.561 c -0.11 0.233 -0.412 0.356 -0.674 0.287 m -14.859 -0.068 c -0.564 -0.301 -1.031 -0.547 -1.031 -0.575 c 0.014 -0.027 3.285 -1.888 3.326 -1.888 c 0.014 0 0.055 0.096 0.11 0.205 c 0.247 0.629 0.399 0.985 0.495 1.136 c 0.096 0.164 0.454 0.657 0.66 0.903 c 0.055 0.082 0.096 0.15 0.082 0.164 c -0.014 0.014 -0.165 0.041 -0.344 0.068 c -0.976 0.109 -1.43 0.205 -1.952 0.41 c -0.151 0.055 -0.275 0.109 -0.289 0.109 c 0 0 -0.481 -0.246 -1.058 -0.534 m 21.361 0.424 c -0.137 -0.068 -0.385 -0.15 -0.536 -0.192 c -0.247 -0.068 -1.058 -0.192 -1.512 -0.233 c -0.124 -0.014 -0.234 -0.041 -0.234 -0.055 c -0.014 -0.014 0 -0.068 0.027 -0.096 c 0.041 -0.041 0.165 -0.205 0.289 -0.356 c 0.399 -0.506 0.495 -0.67 0.825 -1.505 c 0.096 -0.233 0.192 -0.438 0.206 -0.438 c 0.014 -0.014 1.746 0.944 3.148 1.751 c 0.11 0.055 0.192 0.109 0.192 0.137 c 0 0.027 -1.952 1.026 -2.076 1.067 c -0.027 0.014 -0.165 -0.027 -0.316 -0.096 m -17.223 -0.547 c -0.907 -0.438 -2.048 -3.393 -2.323 -6.05 c -0.055 -0.506 -0.041 -1.696 0.014 -1.984 c 0.069 -0.328 0.041 -0.328 0.385 0.055 c 0.371 0.383 1.141 1.136 1.512 1.464 c 0.412 0.356 0.619 0.506 0.99 0.698 c 0.192 0.096 0.399 0.205 0.454 0.246 c 0.096 0.055 0.124 0.055 0.165 0.014 c 0.014 -0.014 0.151 -0.246 0.275 -0.493 c 0.137 -0.26 0.275 -0.493 0.302 -0.52 c 0.069 -0.068 0.069 -0.068 0.22 -0.014 c 0.22 0.082 0.632 0.301 0.962 0.52 c 0.412 0.26 0.838 0.602 0.838 0.657 c 0 0.055 -1.718 2.394 -1.883 2.586 c -0.124 0.137 -0.137 0.137 -0.247 0.123 c -0.096 -0.014 -0.124 -0.014 -0.165 0.041 c -0.069 0.068 -0.426 0.862 -0.921 2.025 c -0.206 0.506 -0.316 0.725 -0.344 0.725 c -0.027 -0.014 -0.137 -0.041 -0.234 -0.096 m 0.412 -1.231 c 0.385 -0.807 0.701 -1.505 0.784 -1.738 c 0.069 -0.205 0.055 -0.383 -0.069 -0.629 c -0.096 -0.192 -0.179 -0.301 -0.467 -0.602 c -0.206 -0.192 -0.522 -0.493 -0.729 -0.643 c -0.811 -0.629 -1.443 -1.409 -1.911 -2.339 c -0.055 -0.15 -0.124 -0.26 -0.137 -0.26 c -0.082 0 -0.055 0.917 0.041 1.614 c 0.261 1.888 0.811 3.612 1.485 4.706 c 0.192 0.328 0.509 0.725 0.564 0.725 c 0.027 0 0.192 -0.315 0.44 -0.835 m 13.43 0.588 c -0.481 -1.122 -0.852 -1.956 -0.907 -2.01 c -0.041 -0.055 -0.082 -0.055 -0.179 -0.041 c -0.096 0.014 -0.11 0 -0.234 -0.123 c -0.192 -0.205 -1.897 -2.531 -1.897 -2.586 c 0 -0.055 0.316 -0.301 0.742 -0.602 c 0.302 -0.205 0.797 -0.479 1.045 -0.588 l 0.165 -0.055 l 0.069 0.068 c 0.027 0.041 0.165 0.274 0.302 0.52 c 0.137 0.26 0.261 0.479 0.289 0.506 c 0.027 0.041 0.055 0.041 0.151 -0.027 c 0.055 -0.027 0.261 -0.15 0.454 -0.246 c 0.591 -0.315 1.141 -0.78 2.199 -1.861 l 0.619 -0.629 l 0.027 0.137 c 0.096 0.424 0.124 1.341 0.069 2.01 c -0.206 2.285 -1.113 4.925 -2.01 5.91 c -0.137 0.15 -0.454 0.342 -0.564 0.342 c -0.014 0 -0.165 -0.328 -0.344 -0.725 m 0.784 0.055 c 0.797 -0.889 1.526 -2.873 1.869 -5.171 c 0.069 -0.479 0.11 -1.683 0.055 -1.683 c -0.014 0 -0.11 0.15 -0.206 0.342 c -0.33 0.657 -0.797 1.3 -1.251 1.738 c -0.11 0.109 -0.385 0.342 -0.605 0.52 c -0.674 0.534 -1.155 1.067 -1.265 1.395 c -0.069 0.178 -0.041 0.356 0.069 0.643 c 0.234 0.588 1.086 2.408 1.141 2.408 c 0.014 0 0.096 -0.082 0.192 -0.192 m -7.588 0.219 c -0.289 -0.233 -0.316 -0.383 -0.22 -0.93 c 0.069 -0.438 0.041 -0.752 -0.11 -1.149 c -0.165 -0.41 -0.206 -0.588 -0.206 -0.889 c 0 -0.287 0.041 -0.479 0.096 -0.479 c 0.027 0 0.165 0.082 0.302 0.192 c 0.151 0.096 0.289 0.178 0.302 0.178 c 0.027 0 0.165 -0.082 0.316 -0.178 c 0.137 -0.109 0.275 -0.192 0.302 -0.192 c 0.069 0 0.082 0.137 0.082 0.52 c 0 0.301 -0.014 0.383 -0.082 0.561 c -0.22 0.575 -0.234 0.616 -0.247 0.889 c -0.014 0.178 0 0.383 0.027 0.575 c 0.096 0.561 0.069 0.67 -0.22 0.903 c -0.082 0.068 -0.165 0.123 -0.179 0.123 c -0.014 0 -0.082 -0.055 -0.165 -0.123 m -1.058 -0.397 c -0.22 -0.096 -0.412 -0.192 -0.44 -0.219 c -0.027 -0.014 -0.082 -0.178 -0.124 -0.356 c -0.11 -0.479 -0.275 -0.794 -0.509 -1.04 c -0.124 -0.109 -0.247 -0.246 -0.302 -0.287 c -0.096 -0.068 -0.11 -0.096 -0.137 -0.274 c -0.014 -0.123 -0.014 -0.301 0.014 -0.41 c 0.055 -0.438 0.192 -0.547 0.756 -0.588 c 0.357 -0.027 1.127 0.014 1.168 0.055 c 0.014 0.014 -0.014 0.233 -0.055 0.479 l -0.096 0.465 l 0.165 0.493 c 0.096 0.287 0.192 0.602 0.22 0.711 c 0.055 0.233 0.055 0.561 -0.014 0.807 c -0.069 0.287 -0.096 0.342 -0.165 0.342 c -0.041 0 -0.247 -0.082 -0.481 -0.178 m 1.883 0.109 c -0.069 -0.205 -0.124 -0.479 -0.124 -0.711 c 0 -0.26 0.096 -0.657 0.316 -1.272 l 0.11 -0.287 l -0.096 -0.465 c -0.041 -0.274 -0.069 -0.479 -0.055 -0.493 c 0.041 -0.055 0.852 -0.082 1.196 -0.055 c 0.605 0.055 0.715 0.164 0.729 0.794 l 0.014 0.369 l -0.096 0.082 c -0.055 0.041 -0.206 0.192 -0.33 0.315 c -0.275 0.274 -0.357 0.465 -0.522 0.999 c -0.055 0.219 -0.11 0.397 -0.124 0.41 c -0.041 0.041 -0.866 0.383 -0.935 0.383 c -0.027 0 -0.069 -0.027 -0.082 -0.082 m -4.784 -1.395 c -0.605 -0.301 -1.1 -0.575 -1.1 -0.602 c 0 -0.014 0.179 -0.219 0.399 -0.438 l 0.399 -0.41 l 0.096 0.055 c 0.179 0.082 0.495 0.342 0.646 0.506 c 0.165 0.192 0.344 0.506 0.536 0.958 c 0.165 0.369 0.206 0.506 0.165 0.506 c -0.014 0 -0.536 -0.26 -1.141 -0.575 m 7.107 0.534 c 0 -0.123 0.454 -1.081 0.632 -1.313 c 0.124 -0.178 0.454 -0.465 0.674 -0.588 l 0.151 -0.082 l 0.399 0.41 c 0.22 0.219 0.399 0.424 0.399 0.438 c 0 0.027 -0.481 0.287 -1.113 0.602 c -0.619 0.315 -1.127 0.561 -1.127 0.561 c -0.014 0 -0.014 -0.014 -0.014 -0.027 m -6.598 -1.888 c -0.302 -0.205 -0.564 -0.383 -0.577 -0.397 c -0.027 -0.041 1.443 -2.449 1.54 -2.504 c 0.027 -0.027 0.11 0 0.289 0.109 c 0.357 0.219 0.866 0.561 1.086 0.752 c 0.11 0.082 0.206 0.15 0.22 0.15 c 0.055 0 0.234 -0.15 0.357 -0.328 c 0.137 -0.192 0.674 -1.259 0.674 -1.341 c 0 -0.014 0.014 -0.041 0.041 -0.041 c 0.014 0 0.027 0.027 0.027 0.041 c 0 0.068 0.426 0.958 0.577 1.19 c 0.165 0.26 0.261 0.369 0.371 0.438 c 0.055 0.027 0.096 0.041 0.096 0.041 c 0.014 0 0.082 -0.068 0.179 -0.137 c 0.261 -0.246 1.278 -0.903 1.375 -0.903 c 0.027 0 0.069 0.041 0.096 0.082 c 0.124 0.192 1.498 2.394 1.498 2.422 c 0 0.041 -1.141 0.794 -1.168 0.766 c -0.014 -0.014 -0.055 -0.15 -0.096 -0.315 c -0.137 -0.506 -0.302 -0.725 -0.536 -0.725 c -0.44 -0.014 -1 0.027 -1.938 0.164 l -0.495 0.082 l -0.495 -0.082 c -0.756 -0.109 -1.306 -0.164 -1.691 -0.164 c -0.344 0 -0.357 0 -0.454 0.082 c -0.11 0.096 -0.275 0.438 -0.344 0.725 c -0.027 0.109 -0.055 0.219 -0.069 0.233 c -0.014 0.014 -0.275 -0.137 -0.577 -0.342" transform="matrix(0.28418 0 0 0.28552 1.182 1.037)" fill="none" stroke="#000" stroke-linejoin="round" stroke-linecap="round"/></g><g id="9" clip-path="url(#8)"><path d="m 14.546 21.813 c -0.029 0.013 0.306 0.365 0.728 0.78 c 1.135 1.107 1.121 0.994 0.131 0.994 h -0.83 l -0.015 0.428 c 0 0.252 0.015 0.466 0.044 0.503 c 0.029 0.038 0.364 0.075 0.815 0.088 c 0.408 0.013 0.757 0.025 0.757 0.038 c 0.015 0.013 0.044 0.994 0.058 2.177 c 0.015 1.183 0.029 2.152 0.044 2.152 c 0.015 0.038 0.786 0.05 0.815 0.025 c 0.015 -0.025 0.029 -0.994 0.044 -2.177 c 0.029 -1.598 0.044 -2.164 0.102 -2.24 c 0.058 -0.075 0.044 -0.113 -0.029 -0.214 c -0.102 -0.126 -0.102 -0.126 0 -0.088 c 0.058 0.025 0.233 0.189 0.393 0.377 c 0.146 0.176 0.495 0.491 0.757 0.705 c 0.277 0.201 0.713 0.554 0.99 0.78 c 0.277 0.226 0.597 0.466 0.713 0.541 c 0.131 0.063 0.247 0.151 0.277 0.189 c 0.015 0.038 -0.044 0.025 -0.131 -0.025 c -0.218 -0.138 -0.291 -0.126 -0.291 0.025 c 0 0.252 0.16 0.566 0.364 0.692 c 0.102 0.075 0.175 0.151 0.16 0.176 c -0.015 0.013 -0.102 -0.038 -0.175 -0.101 c -0.189 -0.176 -0.771 -0.516 -1.223 -0.73 c -0.946 -0.44 -0.437 0.113 0.742 0.793 c 0.335 0.201 0.64 0.352 0.67 0.352 c 0.029 0 0.073 0.063 0.102 0.126 c 0.073 0.264 1.019 0.818 1.383 0.818 c 0.087 0 0.437 0.151 0.786 0.34 c 0.757 0.415 1 0.491 0.859 0.302 c -0.044 -0.05 -0.204 -0.201 -0.378 -0.315 c -0.277 -0.214 -0.291 -0.226 -0.16 -0.264 c 0.131 -0.038 0.146 -0.075 0.175 -0.478 c 0.015 -0.239 0.029 -0.44 0.015 -0.466 c -0.015 -0.025 -0.291 -0.05 -0.611 -0.075 c -0.684 -0.038 -1.033 -0.164 -1.485 -0.554 c -0.16 -0.151 -0.277 -0.264 -0.262 -0.277 c 0 -0.013 0.204 0.063 0.437 0.164 c 0.233 0.101 0.451 0.189 0.495 0.176 c 0.116 0 -0.306 -0.365 -0.801 -0.692 c -0.262 -0.164 -0.495 -0.34 -0.509 -0.365 c -0.029 -0.038 -0.189 -0.176 -0.364 -0.315 c -0.175 -0.138 -0.32 -0.289 -0.32 -0.34 c 0 -0.101 -0.67 -0.717 -1.062 -0.981 c -0.291 -0.201 -0.32 -0.302 -0.087 -0.302 h 0.16 l -0.015 -0.491 l -0.015 -0.478 l -0.684 -0.013 c -0.771 -0.025 -0.888 0.025 -0.626 0.264 c 0.102 0.101 0.116 0.138 0.044 0.101 c -0.058 -0.038 -0.233 -0.189 -0.378 -0.34 c -0.146 -0.151 -0.466 -0.428 -0.713 -0.617 c -0.495 -0.39 -1.805 -1.208 -1.892 -1.17 m 25.34 1.271 c -0.568 0.013 -0.844 0.113 -1.164 0.453 c -0.335 0.352 -0.509 0.705 -0.597 1.17 c -0.087 0.516 0 0.579 0.218 0.164 c 0.175 -0.327 0.291 -0.377 0.466 -0.226 c 0.16 0.138 0.233 0.113 0.306 -0.088 c 0.087 -0.252 0.378 -0.541 0.597 -0.591 c 0.335 -0.088 0.713 0.176 0.713 0.503 c 0 0.164 -0.495 0.793 -0.975 1.221 c -0.771 0.705 -1.106 1.283 -1.106 1.938 c 0 0.579 -0.044 0.566 1.528 0.541 l 1.354 -0.013 v -0.818 l -0.917 -0.025 c -0.509 -0.025 -0.917 -0.063 -0.917 -0.088 c 0 -0.025 0 -0.063 0 -0.101 c 0 -0.063 0.539 -0.604 1.15 -1.158 c 0.233 -0.201 0.509 -0.503 0.626 -0.667 c 0.233 -0.34 0.859 -1.686 0.83 -1.762 c 0 -0.038 -0.16 0.088 -0.335 0.264 c -0.189 0.176 -0.349 0.302 -0.364 0.302 c -0.029 -0.013 -0.116 -0.151 -0.218 -0.327 c -0.131 -0.201 -0.291 -0.365 -0.495 -0.503 c -0.247 -0.164 -0.349 -0.189 -0.699 -0.189 m -4.963 0.466 c -0.873 0 -1.732 0.025 -1.761 0.063 c -0.015 0.038 0.029 0.088 0.087 0.126 c 0.116 0.075 0.116 0.113 0.102 1.434 c 0 0.742 0 1.913 0 2.592 v 1.233 h 0.917 l 0.044 -0.428 c 0.015 -0.226 0.029 -0.717 0.029 -1.082 c 0 -0.705 0.015 -0.742 0.291 -0.742 c 0.058 0 0.364 0.277 0.742 0.705 c 1.135 1.258 1.979 1.975 2.3 1.988 c 0.16 0 0.16 -0.013 0.189 -0.289 l 0.015 -0.289 l -0.801 -0.843 c -0.713 -0.755 -1.266 -1.409 -1.383 -1.636 c -0.029 -0.038 0.131 -0.264 0.422 -0.591 c 0.349 -0.39 0.48 -0.579 0.524 -0.768 c 0.058 -0.289 0.087 -1.296 0.044 -1.397 c -0.029 -0.05 -0.902 -0.075 -1.761 -0.075 m -23.87 0 c -0.262 0 -0.539 0.013 -0.582 0.05 c -0.015 0.025 0.029 0.101 0.102 0.164 l 0.131 0.138 l 0.029 1.824 c 0.015 1.01 0 1.85 -0.029 1.862 c -0.058 0.05 -0.67 -0.315 -0.888 -0.541 c -0.393 -0.39 -0.48 -0.755 -0.509 -2.265 c 0 -0.617 -0.029 -1.145 -0.044 -1.17 c -0.044 -0.075 -0.742 -0.075 -0.844 0 c -0.058 0.038 -0.073 0.403 -0.058 2.026 c 0.015 1.095 0.015 1.988 -0.015 1.988 c -0.16 0 -0.786 -0.428 -0.99 -0.692 c -0.364 -0.44 -0.422 -0.717 -0.422 -2.101 c 0 -0.793 -0.015 -1.145 -0.073 -1.208 c -0.058 -0.075 -0.626 -0.101 -0.771 -0.038 c -0.073 0.038 -0.087 0.201 -0.087 1.246 c 0 1.271 0.044 1.661 0.277 2.177 c 0.175 0.377 0.757 0.994 1.135 1.208 c 0.175 0.088 0.553 0.302 0.83 0.453 c 0.291 0.164 0.539 0.277 0.568 0.264 c 0.015 -0.013 0.131 -0.189 0.247 -0.377 c 0.131 -0.189 0.233 -0.39 0.233 -0.453 c 0 -0.063 0.015 -0.113 0.044 -0.101 c 0.015 0.013 0.247 0.138 0.495 0.289 c 0.597 0.327 1.31 0.705 1.339 0.705 c 0.015 0 0.131 -0.176 0.247 -0.377 l 0.233 -0.377 v -2.277 c 0.015 -1.246 0 -2.303 -0.029 -2.34 c -0.015 -0.038 -0.291 -0.063 -0.568 -0.075 m 2.183 0 c -0.306 0 -0.553 0.025 -0.568 0.063 c -0.015 0.025 0.029 0.113 0.102 0.189 l 0.131 0.126 l 0.015 1.736 c 0 0.956 0.015 1.938 0.044 2.177 l 0.029 0.428 l 0.378 0.327 c 0.218 0.189 0.408 0.315 0.422 0.289 c 0.029 -0.025 0.058 -1.183 0.087 -2.592 c 0.029 -2.026 0.015 -2.567 -0.029 -2.642 c -0.058 -0.075 -0.189 -0.101 -0.611 -0.101 m 11.178 0 c -0.291 0 -0.553 0.025 -0.568 0.063 c -0.015 0.038 0.029 0.101 0.102 0.164 l 0.131 0.101 l 0.015 2.529 c 0.015 2.164 0.044 2.542 0.102 2.592 c 0.087 0.063 0.67 0.038 0.771 -0.025 c 0.029 -0.025 0.058 -0.44 0.058 -1.17 c 0 -0.604 0.015 -1.132 0.044 -1.145 c 0.044 -0.038 2.241 0.239 2.271 0.277 c 0.029 0.025 0.044 0.717 0.073 1.548 c 0.029 1.221 0.058 1.522 0.116 1.522 c 0.044 0 0.189 -0.126 0.32 -0.264 c 0.131 -0.138 0.291 -0.377 0.364 -0.528 c 0.102 -0.277 0.116 -0.377 0.146 -2.919 c 0.015 -2.202 0.015 -2.63 -0.058 -2.68 c -0.102 -0.088 -0.771 -0.063 -0.859 0.013 c -0.044 0.063 -0.058 0.403 -0.058 1.158 c 0 0.994 -0.015 1.082 -0.102 1.082 c -0.218 0 -2.169 -0.252 -2.212 -0.289 c -0.044 -0.025 -0.044 -0.352 -0.015 -0.931 c 0.029 -0.679 0.015 -0.931 -0.029 -0.994 c -0.058 -0.075 -0.204 -0.101 -0.611 -0.101 m -4.075 0.013 c -0.771 0.013 -0.83 0.063 -0.64 0.214 c 0.102 0.088 0.116 0.151 0.116 0.893 c 0.015 0.44 0.029 0.856 0.044 0.931 c 0.029 0.138 0.742 0.83 0.83 0.83 c 0.029 0 0.058 -0.201 0.087 -0.466 c 0.015 -0.252 0.029 -0.617 0.029 -0.83 c -0.015 -0.201 -0.015 -0.39 -0.015 -0.44 c 0.015 -0.063 0.262 -0.075 1.062 -0.075 c 0.582 0 1.092 -0.025 1.135 -0.05 c 0.044 -0.038 0.058 -0.189 0.044 -0.516 l -0.015 -0.466 l -1.659 -0.025 c -0.437 0 -0.771 0 -1.019 0 m 9.402 0 c -0.277 0.013 -0.48 0.013 -0.495 0.025 c -0.073 0.025 -0.058 0.063 0.029 0.151 c 0.116 0.101 0.131 0.151 0.146 1.636 l 0.015 1.522 l 0.175 0.428 c 0.335 0.805 0.99 1.397 1.819 1.623 c 0.233 0.075 0.815 0.088 0.859 0.025 c 0 0 0.029 -0.201 0.044 -0.428 c 0.029 -0.466 0.015 -0.491 -0.437 -0.491 c -0.306 0 -0.771 -0.201 -0.975 -0.415 c -0.175 -0.189 -0.495 -0.931 -0.451 -1.057 c 0.029 -0.063 0.189 -0.088 0.655 -0.101 l 0.611 -0.025 l 0.015 -0.478 l 0.015 -0.491 h -1.31 l -0.015 -0.201 c -0.015 -0.113 0 -0.34 0.015 -0.516 l 0.015 -0.315 l 0.961 -0.013 l 0.946 -0.013 l -0.015 -0.428 l -0.029 -0.415 l -1.499 -0.025 c -0.422 0 -0.801 0 -1.092 0 m 5.371 0.868 c 0.568 0 0.655 0.013 0.655 0.101 c 0 0.05 -0.233 0.352 -0.509 0.654 c -0.422 0.478 -0.524 0.554 -0.684 0.554 c -0.102 0 -0.175 0 -0.175 -0.013 c -0.044 -0.113 -0.029 -1.158 0.015 -1.221 c 0.029 -0.05 0.247 -0.075 0.699 -0.075 m -14.569 3.334 c 0.029 -0.025 0.335 0.126 0.684 0.327 c 0.713 0.403 1 0.591 0.917 0.591 c -0.029 0 -0.102 -0.038 -0.16 -0.088 c -0.058 -0.05 -0.175 -0.101 -0.247 -0.101 c -0.073 0 -0.262 -0.088 -0.408 -0.201 c -0.16 -0.113 -0.408 -0.264 -0.553 -0.34 c -0.146 -0.088 -0.247 -0.164 -0.233 -0.189" transform="matrix(0.26838 0 0 0.31045 1.561 3.458)" fill="none" stroke="#000" stroke-linejoin="round" stroke-linecap="round" stroke-width="1.974"/><path d="m 14.546 21.813 c -0.029 0.013 0.306 0.365 0.728 0.78 c 0.437 0.415 0.655 0.629 0.757 0.768 c 0.029 0.025 0.029 0.025 0.044 0.038 c 0.349 0.252 0.684 0.579 1.092 0.868 c 0.015 0 0.015 0 0.044 0.013 c 0.058 0.025 0.233 0.189 0.393 0.377 c 0.16 0.176 0.495 0.491 0.771 0.705 c 0.262 0.201 0.699 0.554 0.975 0.78 c 0.277 0.226 0.597 0.466 0.728 0.541 c 0.116 0.063 0.247 0.151 0.262 0.189 c 0 0.013 -0.015 -0.013 -0.015 0 c 0.291 0.226 0.466 0.327 0.611 0.403 c -0.015 -0.013 -0.058 -0.063 -0.058 -0.063 c 0 -0.013 0.204 0.05 0.437 0.164 c 0.233 0.101 0.451 0.176 0.495 0.176 c 0.116 0 -0.306 -0.365 -0.801 -0.692 c -0.262 -0.164 -0.495 -0.34 -0.509 -0.365 c -0.015 -0.038 -0.175 -0.176 -0.364 -0.315 c -0.175 -0.138 -0.32 -0.289 -0.32 -0.34 c 0 -0.101 -0.67 -0.717 -1.062 -0.981 c -0.175 -0.126 -0.247 -0.201 -0.233 -0.252 c -0.306 -0.201 -0.655 -0.415 -0.946 -0.667 c 0 0.013 0 0.013 -0.029 0 c -0.073 -0.038 -0.247 -0.189 -0.393 -0.34 c -0.146 -0.151 -0.466 -0.428 -0.713 -0.629 c -0.495 -0.39 -1.805 -1.195 -1.892 -1.158 m 25.34 1.271 v 0.013 c -0.568 0 -0.844 0.101 -1.164 0.44 c -0.335 0.352 -0.509 0.705 -0.597 1.17 c -0.087 0.516 0 0.591 0.218 0.176 c 0.189 -0.34 0.291 -0.39 0.466 -0.239 c 0.16 0.138 0.233 0.126 0.306 -0.088 c 0.087 -0.252 0.378 -0.541 0.597 -0.591 c 0.335 -0.088 0.713 0.176 0.713 0.503 c 0 0.164 -0.495 0.793 -0.975 1.221 c -0.771 0.705 -1.106 1.283 -1.106 1.938 c 0 0.579 -0.044 0.566 1.528 0.541 l 1.354 -0.013 v -0.818 l -0.917 -0.025 c -0.509 -0.025 -0.917 -0.05 -0.917 -0.088 c 0 -0.025 0 -0.063 0 -0.101 c 0 -0.063 0.539 -0.604 1.164 -1.145 c 0.218 -0.201 0.495 -0.516 0.611 -0.679 c 0.233 -0.34 0.859 -1.673 0.83 -1.762 c 0 -0.038 -0.16 0.088 -0.335 0.264 c -0.189 0.176 -0.349 0.315 -0.364 0.302 c -0.029 -0.013 -0.116 -0.151 -0.218 -0.327 c -0.131 -0.201 -0.291 -0.365 -0.48 -0.491 c -0.262 -0.176 -0.364 -0.201 -0.713 -0.189 m -21.294 3.649 c -0.204 0 0.306 0.453 1.193 0.956 c 0.335 0.201 0.64 0.352 0.67 0.352 c 0.029 0 0.073 0.063 0.102 0.126 c 0.029 0.126 0.291 0.34 0.582 0.503 c 0.291 0.176 0.626 0.315 0.801 0.315 c 0.087 0 0.437 0.151 0.786 0.34 c 0.757 0.403 0.99 0.491 0.873 0.315 c -0.015 -0.013 -0.015 -0.013 -0.015 -0.013 c -0.044 -0.063 -0.204 -0.201 -0.364 -0.315 c -0.175 -0.126 -0.233 -0.176 -0.247 -0.214 c -0.349 -0.264 -0.902 -0.566 -1.47 -0.856 c 0.451 0.264 0.713 0.428 0.64 0.428 c -0.029 0 -0.102 -0.038 -0.16 -0.088 c -0.058 -0.05 -0.175 -0.101 -0.247 -0.101 c -0.073 0 -0.262 -0.088 -0.408 -0.201 c -0.16 -0.101 -0.393 -0.264 -0.553 -0.34 c -0.146 -0.075 -0.247 -0.164 -0.233 -0.189 c 0.015 -0.013 0.247 0.113 0.408 0.201 c -0.146 -0.088 -0.335 -0.176 -0.466 -0.252 c -0.058 -0.038 -0.087 -0.063 -0.146 -0.088 c 0.044 0.038 0.116 0.101 0.102 0.113 c -0.015 0.013 -0.087 -0.038 -0.175 -0.113 c -0.189 -0.164 -0.757 -0.503 -1.223 -0.717 c -0.233 -0.113 -0.378 -0.164 -0.451 -0.164" transform="matrix(0.26838 0 0 0.31045 1.561 3.458)" fill="none" stroke="#000" stroke-linejoin="round" stroke-linecap="round" stroke-width="1.974"/></g><g id="C" clip-path="url(#B)"><path d="m 14.546 21.813 c -0.029 0.013 0.306 0.365 0.728 0.78 c 1.135 1.107 1.121 0.994 0.131 0.994 h -0.83 l -0.015 0.428 c 0 0.252 0.015 0.466 0.044 0.503 c 0.029 0.038 0.364 0.075 0.815 0.088 c 0.408 0.013 0.757 0.025 0.757 0.038 c 0.015 0.013 0.044 0.994 0.058 2.177 c 0.015 1.183 0.029 2.152 0.044 2.152 c 0.015 0.038 0.786 0.05 0.815 0.025 c 0.015 -0.025 0.029 -0.994 0.044 -2.177 c 0.029 -1.598 0.044 -2.164 0.102 -2.24 c 0.058 -0.075 0.044 -0.113 -0.029 -0.214 c -0.102 -0.126 -0.102 -0.126 0 -0.088 c 0.058 0.025 0.233 0.189 0.393 0.377 c 0.146 0.176 0.495 0.491 0.757 0.705 c 0.277 0.201 0.713 0.554 0.99 0.78 c 0.277 0.226 0.597 0.466 0.713 0.541 c 0.131 0.063 0.247 0.151 0.277 0.189 c 0.015 0.038 -0.044 0.025 -0.131 -0.025 c -0.218 -0.138 -0.291 -0.126 -0.291 0.025 c 0 0.252 0.16 0.566 0.364 0.692 c 0.102 0.075 0.175 0.151 0.16 0.176 c -0.015 0.013 -0.102 -0.038 -0.175 -0.101 c -0.189 -0.176 -0.771 -0.516 -1.223 -0.73 c -0.946 -0.44 -0.437 0.113 0.742 0.793 c 0.335 0.201 0.64 0.352 0.67 0.352 c 0.029 0 0.073 0.063 0.102 0.126 c 0.073 0.264 1.019 0.818 1.383 0.818 c 0.087 0 0.437 0.151 0.786 0.34 c 0.757 0.415 1 0.491 0.859 0.302 c -0.044 -0.05 -0.204 -0.201 -0.378 -0.315 c -0.277 -0.214 -0.291 -0.226 -0.16 -0.264 c 0.131 -0.038 0.146 -0.075 0.175 -0.478 c 0.015 -0.239 0.029 -0.44 0.015 -0.466 c -0.015 -0.025 -0.291 -0.05 -0.611 -0.075 c -0.684 -0.038 -1.033 -0.164 -1.485 -0.554 c -0.16 -0.151 -0.277 -0.264 -0.262 -0.277 c 0 -0.013 0.204 0.063 0.437 0.164 c 0.233 0.101 0.451 0.189 0.495 0.176 c 0.116 0 -0.306 -0.365 -0.801 -0.692 c -0.262 -0.164 -0.495 -0.34 -0.509 -0.365 c -0.029 -0.038 -0.189 -0.176 -0.364 -0.315 c -0.175 -0.138 -0.32 -0.289 -0.32 -0.34 c 0 -0.101 -0.67 -0.717 -1.062 -0.981 c -0.291 -0.201 -0.32 -0.302 -0.087 -0.302 h 0.16 l -0.015 -0.491 l -0.015 -0.478 l -0.684 -0.013 c -0.771 -0.025 -0.888 0.025 -0.626 0.264 c 0.102 0.101 0.116 0.138 0.044 0.101 c -0.058 -0.038 -0.233 -0.189 -0.378 -0.34 c -0.146 -0.151 -0.466 -0.428 -0.713 -0.617 c -0.495 -0.39 -1.805 -1.208 -1.892 -1.17 m 25.34 1.271 c -0.568 0.013 -0.844 0.113 -1.164 0.453 c -0.335 0.352 -0.509 0.705 -0.597 1.17 c -0.087 0.516 0 0.579 0.218 0.164 c 0.175 -0.327 0.291 -0.377 0.466 -0.226 c 0.16 0.138 0.233 0.113 0.306 -0.088 c 0.087 -0.252 0.378 -0.541 0.597 -0.591 c 0.335 -0.088 0.713 0.176 0.713 0.503 c 0 0.164 -0.495 0.793 -0.975 1.221 c -0.771 0.705 -1.106 1.283 -1.106 1.938 c 0 0.579 -0.044 0.566 1.528 0.541 l 1.354 -0.013 v -0.818 l -0.917 -0.025 c -0.509 -0.025 -0.917 -0.063 -0.917 -0.088 c 0 -0.025 0 -0.063 0 -0.101 c 0 -0.063 0.539 -0.604 1.15 -1.158 c 0.233 -0.201 0.509 -0.503 0.626 -0.667 c 0.233 -0.34 0.859 -1.686 0.83 -1.762 c 0 -0.038 -0.16 0.088 -0.335 0.264 c -0.189 0.176 -0.349 0.302 -0.364 0.302 c -0.029 -0.013 -0.116 -0.151 -0.218 -0.327 c -0.131 -0.201 -0.291 -0.365 -0.495 -0.503 c -0.247 -0.164 -0.349 -0.189 -0.699 -0.189 m -4.963 0.466 c -0.873 0 -1.732 0.025 -1.761 0.063 c -0.015 0.038 0.029 0.088 0.087 0.126 c 0.116 0.075 0.116 0.113 0.102 1.434 c 0 0.742 0 1.913 0 2.592 v 1.233 h 0.917 l 0.044 -0.428 c 0.015 -0.226 0.029 -0.717 0.029 -1.082 c 0 -0.705 0.015 -0.742 0.291 -0.742 c 0.058 0 0.364 0.277 0.742 0.705 c 1.135 1.258 1.979 1.975 2.3 1.988 c 0.16 0 0.16 -0.013 0.189 -0.289 l 0.015 -0.289 l -0.801 -0.843 c -0.713 -0.755 -1.266 -1.409 -1.383 -1.636 c -0.029 -0.038 0.131 -0.264 0.422 -0.591 c 0.349 -0.39 0.48 -0.579 0.524 -0.768 c 0.058 -0.289 0.087 -1.296 0.044 -1.397 c -0.029 -0.05 -0.902 -0.075 -1.761 -0.075 m -23.87 0 c -0.262 0 -0.539 0.013 -0.582 0.05 c -0.015 0.025 0.029 0.101 0.102 0.164 l 0.131 0.138 l 0.029 1.824 c 0.015 1.01 0 1.85 -0.029 1.862 c -0.058 0.05 -0.67 -0.315 -0.888 -0.541 c -0.393 -0.39 -0.48 -0.755 -0.509 -2.265 c 0 -0.617 -0.029 -1.145 -0.044 -1.17 c -0.044 -0.075 -0.742 -0.075 -0.844 0 c -0.058 0.038 -0.073 0.403 -0.058 2.026 c 0.015 1.095 0.015 1.988 -0.015 1.988 c -0.16 0 -0.786 -0.428 -0.99 -0.692 c -0.364 -0.44 -0.422 -0.717 -0.422 -2.101 c 0 -0.793 -0.015 -1.145 -0.073 -1.208 c -0.058 -0.075 -0.626 -0.101 -0.771 -0.038 c -0.073 0.038 -0.087 0.201 -0.087 1.246 c 0 1.271 0.044 1.661 0.277 2.177 c 0.175 0.377 0.757 0.994 1.135 1.208 c 0.175 0.088 0.553 0.302 0.83 0.453 c 0.291 0.164 0.539 0.277 0.568 0.264 c 0.015 -0.013 0.131 -0.189 0.247 -0.377 c 0.131 -0.189 0.233 -0.39 0.233 -0.453 c 0 -0.063 0.015 -0.113 0.044 -0.101 c 0.015 0.013 0.247 0.138 0.495 0.289 c 0.597 0.327 1.31 0.705 1.339 0.705 c 0.015 0 0.131 -0.176 0.247 -0.377 l 0.233 -0.377 v -2.277 c 0.015 -1.246 0 -2.303 -0.029 -2.34 c -0.015 -0.038 -0.291 -0.063 -0.568 -0.075 m 2.183 0 c -0.306 0 -0.553 0.025 -0.568 0.063 c -0.015 0.025 0.029 0.113 0.102 0.189 l 0.131 0.126 l 0.015 1.736 c 0 0.956 0.015 1.938 0.044 2.177 l 0.029 0.428 l 0.378 0.327 c 0.218 0.189 0.408 0.315 0.422 0.289 c 0.029 -0.025 0.058 -1.183 0.087 -2.592 c 0.029 -2.026 0.015 -2.567 -0.029 -2.642 c -0.058 -0.075 -0.189 -0.101 -0.611 -0.101 m 11.178 0 c -0.291 0 -0.553 0.025 -0.568 0.063 c -0.015 0.038 0.029 0.101 0.102 0.164 l 0.131 0.101 l 0.015 2.529 c 0.015 2.164 0.044 2.542 0.102 2.592 c 0.087 0.063 0.67 0.038 0.771 -0.025 c 0.029 -0.025 0.058 -0.44 0.058 -1.17 c 0 -0.604 0.015 -1.132 0.044 -1.145 c 0.044 -0.038 2.241 0.239 2.271 0.277 c 0.029 0.025 0.044 0.717 0.073 1.548 c 0.029 1.221 0.058 1.522 0.116 1.522 c 0.044 0 0.189 -0.126 0.32 -0.264 c 0.131 -0.138 0.291 -0.377 0.364 -0.528 c 0.102 -0.277 0.116 -0.377 0.146 -2.919 c 0.015 -2.202 0.015 -2.63 -0.058 -2.68 c -0.102 -0.088 -0.771 -0.063 -0.859 0.013 c -0.044 0.063 -0.058 0.403 -0.058 1.158 c 0 0.994 -0.015 1.082 -0.102 1.082 c -0.218 0 -2.169 -0.252 -2.212 -0.289 c -0.044 -0.025 -0.044 -0.352 -0.015 -0.931 c 0.029 -0.679 0.015 -0.931 -0.029 -0.994 c -0.058 -0.075 -0.204 -0.101 -0.611 -0.101 m -4.075 0.013 c -0.771 0.013 -0.83 0.063 -0.64 0.214 c 0.102 0.088 0.116 0.151 0.116 0.893 c 0.015 0.44 0.029 0.856 0.044 0.931 c 0.029 0.138 0.742 0.83 0.83 0.83 c 0.029 0 0.058 -0.201 0.087 -0.466 c 0.015 -0.252 0.029 -0.617 0.029 -0.83 c -0.015 -0.201 -0.015 -0.39 -0.015 -0.44 c 0.015 -0.063 0.262 -0.075 1.062 -0.075 c 0.582 0 1.092 -0.025 1.135 -0.05 c 0.044 -0.038 0.058 -0.189 0.044 -0.516 l -0.015 -0.466 l -1.659 -0.025 c -0.437 0 -0.771 0 -1.019 0 m 9.402 0 c -0.277 0.013 -0.48 0.013 -0.495 0.025 c -0.073 0.025 -0.058 0.063 0.029 0.151 c 0.116 0.101 0.131 0.151 0.146 1.636 l 0.015 1.522 l 0.175 0.428 c 0.335 0.805 0.99 1.397 1.819 1.623 c 0.233 0.075 0.815 0.088 0.859 0.025 c 0 0 0.029 -0.201 0.044 -0.428 c 0.029 -0.466 0.015 -0.491 -0.437 -0.491 c -0.306 0 -0.771 -0.201 -0.975 -0.415 c -0.175 -0.189 -0.495 -0.931 -0.451 -1.057 c 0.029 -0.063 0.189 -0.088 0.655 -0.101 l 0.611 -0.025 l 0.015 -0.478 l 0.015 -0.491 h -1.31 l -0.015 -0.201 c -0.015 -0.113 0 -0.34 0.015 -0.516 l 0.015 -0.315 l 0.961 -0.013 l 0.946 -0.013 l -0.015 -0.428 l -0.029 -0.415 l -1.499 -0.025 c -0.422 0 -0.801 0 -1.092 0 m 5.371 0.868 c 0.568 0 0.655 0.013 0.655 0.101 c 0 0.05 -0.233 0.352 -0.509 0.654 c -0.422 0.478 -0.524 0.554 -0.684 0.554 c -0.102 0 -0.175 0 -0.175 -0.013 c -0.044 -0.113 -0.029 -1.158 0.015 -1.221 c 0.029 -0.05 0.247 -0.075 0.699 -0.075 m -14.569 3.334 c 0.029 -0.025 0.335 0.126 0.684 0.327 c 0.713 0.403 1 0.591 0.917 0.591 c -0.029 0 -0.102 -0.038 -0.16 -0.088 c -0.058 -0.05 -0.175 -0.101 -0.247 -0.101 c -0.073 0 -0.262 -0.088 -0.408 -0.201 c -0.16 -0.113 -0.408 -0.264 -0.553 -0.34 c -0.146 -0.088 -0.247 -0.164 -0.233 -0.189" transform="matrix(0.26838 0 0 0.31045 1.561 3.458)" fill="none" stroke="#000" stroke-linejoin="round" stroke-linecap="round" stroke-width="0.987"/><path d="m 14.546 21.813 c -0.029 0.013 0.306 0.365 0.728 0.78 c 0.437 0.415 0.655 0.629 0.757 0.768 c 0.029 0.025 0.029 0.025 0.044 0.038 c 0.349 0.252 0.684 0.579 1.092 0.868 c 0.015 0 0.015 0 0.044 0.013 c 0.058 0.025 0.233 0.189 0.393 0.377 c 0.16 0.176 0.495 0.491 0.771 0.705 c 0.262 0.201 0.699 0.554 0.975 0.78 c 0.277 0.226 0.597 0.466 0.728 0.541 c 0.116 0.063 0.247 0.151 0.262 0.189 c 0 0.013 -0.015 -0.013 -0.015 0 c 0.291 0.226 0.466 0.327 0.611 0.403 c -0.015 -0.013 -0.058 -0.063 -0.058 -0.063 c 0 -0.013 0.204 0.05 0.437 0.164 c 0.233 0.101 0.451 0.176 0.495 0.176 c 0.116 0 -0.306 -0.365 -0.801 -0.692 c -0.262 -0.164 -0.495 -0.34 -0.509 -0.365 c -0.015 -0.038 -0.175 -0.176 -0.364 -0.315 c -0.175 -0.138 -0.32 -0.289 -0.32 -0.34 c 0 -0.101 -0.67 -0.717 -1.062 -0.981 c -0.175 -0.126 -0.247 -0.201 -0.233 -0.252 c -0.306 -0.201 -0.655 -0.415 -0.946 -0.667 c 0 0.013 0 0.013 -0.029 0 c -0.073 -0.038 -0.247 -0.189 -0.393 -0.34 c -0.146 -0.151 -0.466 -0.428 -0.713 -0.629 c -0.495 -0.39 -1.805 -1.195 -1.892 -1.158 m 25.34 1.271 v 0.013 c -0.568 0 -0.844 0.101 -1.164 0.44 c -0.335 0.352 -0.509 0.705 -0.597 1.17 c -0.087 0.516 0 0.591 0.218 0.176 c 0.189 -0.34 0.291 -0.39 0.466 -0.239 c 0.16 0.138 0.233 0.126 0.306 -0.088 c 0.087 -0.252 0.378 -0.541 0.597 -0.591 c 0.335 -0.088 0.713 0.176 0.713 0.503 c 0 0.164 -0.495 0.793 -0.975 1.221 c -0.771 0.705 -1.106 1.283 -1.106 1.938 c 0 0.579 -0.044 0.566 1.528 0.541 l 1.354 -0.013 v -0.818 l -0.917 -0.025 c -0.509 -0.025 -0.917 -0.05 -0.917 -0.088 c 0 -0.025 0 -0.063 0 -0.101 c 0 -0.063 0.539 -0.604 1.164 -1.145 c 0.218 -0.201 0.495 -0.516 0.611 -0.679 c 0.233 -0.34 0.859 -1.673 0.83 -1.762 c 0 -0.038 -0.16 0.088 -0.335 0.264 c -0.189 0.176 -0.349 0.315 -0.364 0.302 c -0.029 -0.013 -0.116 -0.151 -0.218 -0.327 c -0.131 -0.201 -0.291 -0.365 -0.48 -0.491 c -0.262 -0.176 -0.364 -0.201 -0.713 -0.189 m -21.294 3.649 c -0.204 0 0.306 0.453 1.193 0.956 c 0.335 0.201 0.64 0.352 0.67 0.352 c 0.029 0 0.073 0.063 0.102 0.126 c 0.029 0.126 0.291 0.34 0.582 0.503 c 0.291 0.176 0.626 0.315 0.801 0.315 c 0.087 0 0.437 0.151 0.786 0.34 c 0.757 0.403 0.99 0.491 0.873 0.315 c -0.015 -0.013 -0.015 -0.013 -0.015 -0.013 c -0.044 -0.063 -0.204 -0.201 -0.364 -0.315 c -0.175 -0.126 -0.233 -0.176 -0.247 -0.214 c -0.349 -0.264 -0.902 -0.566 -1.47 -0.856 c 0.451 0.264 0.713 0.428 0.64 0.428 c -0.029 0 -0.102 -0.038 -0.16 -0.088 c -0.058 -0.05 -0.175 -0.101 -0.247 -0.101 c -0.073 0 -0.262 -0.088 -0.408 -0.201 c -0.16 -0.101 -0.393 -0.264 -0.553 -0.34 c -0.146 -0.075 -0.247 -0.164 -0.233 -0.189 c 0.015 -0.013 0.247 0.113 0.408 0.201 c -0.146 -0.088 -0.335 -0.176 -0.466 -0.252 c -0.058 -0.038 -0.087 -0.063 -0.146 -0.088 c 0.044 0.038 0.116 0.101 0.102 0.113 c -0.015 0.013 -0.087 -0.038 -0.175 -0.113 c -0.189 -0.164 -0.757 -0.503 -1.223 -0.717 c -0.233 -0.113 -0.378 -0.164 -0.451 -0.164" transform="matrix(0.26838 0 0 0.31045 1.561 3.458)" fill="none" stroke="#000" stroke-linejoin="round" stroke-linecap="round" stroke-width="0.987"/></g><clipPath id="8"><path d="M 0,0 H16 V16 H0 z"/></clipPath><clipPath id="2"><path d="M 0,0 H16 V16 H0 z"/></clipPath><clipPath id="5"><path d="M 0,0 H16 V16 H0 z"/></clipPath><clipPath id="B"><path d="M 0,0 H16 V16 H0 z"/></clipPath><filter id="0" filterUnits="objectBoundingBox" x="0" y="0" width="16" height="16"><feColorMatrix type="matrix" in="SourceGraphic" values="0 0 0 0 1 0 0 0 0 1 0 0 0 0 1 0 0 0 1 0"/></filter><mask id="A"><g filter="url(#0)"><path fill-opacity="0.149" d="M 0,0 H16 V16 H0 z"/></g></mask><mask id="4"><g filter="url(#0)"><path fill-opacity="0.149" d="M 0,0 H16 V16 H0 z"/></g></mask><mask id="7"><g filter="url(#0)"><path fill-opacity="0.149" d="M 0,0 H16 V16 H0 z"/></g></mask><mask id="1"><g filter="url(#0)"><path fill-opacity="0.149" d="M 0,0 H16 V16 H0 z"/></g></mask></defs><path d="m 2.594 14.184 c -7.18 -5.707 2.02 -17.48 9.754 -13.309 c 7.289 3.93 2.691 15.887 -5.219 15.09 c -1.648 -0.168 -3.219 -0.73 -4.535 -1.777" fill="#696969"/><use xlink:href="#3" mask="url(#1)"/><use xlink:href="#6" mask="url(#4)"/><use xlink:href="#9" mask="url(#7)"/><use xlink:href="#C" mask="url(#A)"/><path d="m 5.465 10.23 c -0.008 0.004 0.082 0.113 0.195 0.242 c 0.305 0.344 0.301 0.309 0.035 0.309 h -0.223 l -0.004 0.133 c 0 0.078 0.004 0.145 0.012 0.156 c 0.008 0.012 0.098 0.023 0.219 0.027 c 0.109 0.004 0.203 0.008 0.203 0.012 c 0.004 0.004 0.012 0.309 0.016 0.676 c 0.004 0.367 0.008 0.668 0.012 0.668 c 0.004 0.012 0.211 0.016 0.219 0.008 c 0.004 -0.008 0.008 -0.309 0.012 -0.676 c 0.008 -0.496 0.012 -0.672 0.027 -0.695 c 0.016 -0.023 0.012 -0.035 -0.008 -0.066 c -0.027 -0.039 -0.027 -0.039 0 -0.027 c 0.016 0.008 0.063 0.059 0.105 0.117 c 0.039 0.055 0.133 0.152 0.203 0.219 c 0.074 0.063 0.191 0.172 0.266 0.242 c 0.074 0.07 0.16 0.145 0.191 0.168 c 0.035 0.02 0.066 0.047 0.074 0.059 c 0.004 0.012 -0.012 0.008 -0.035 -0.008 c -0.059 -0.043 -0.078 -0.039 -0.078 0.008 c 0 0.078 0.043 0.176 0.098 0.215 c 0.027 0.023 0.047 0.047 0.043 0.055 c -0.004 0.004 -0.027 -0.012 -0.047 -0.031 c -0.051 -0.055 -0.207 -0.16 -0.328 -0.227 c -0.254 -0.137 -0.117 0.035 0.199 0.246 c 0.09 0.063 0.172 0.109 0.18 0.109 c 0.008 0 0.02 0.02 0.027 0.039 c 0.02 0.082 0.273 0.254 0.371 0.254 c 0.023 0 0.117 0.047 0.211 0.105 c 0.203 0.129 0.27 0.152 0.23 0.094 c -0.012 -0.016 -0.055 -0.063 -0.102 -0.098 c -0.074 -0.066 -0.078 -0.07 -0.043 -0.082 c 0.035 -0.012 0.039 -0.023 0.047 -0.148 c 0.004 -0.074 0.008 -0.137 0.004 -0.145 c -0.004 -0.008 -0.078 -0.016 -0.164 -0.023 c -0.184 -0.012 -0.277 -0.051 -0.398 -0.172 c -0.043 -0.047 -0.074 -0.082 -0.07 -0.086 c 0 -0.004 0.055 0.02 0.117 0.051 c 0.063 0.031 0.121 0.059 0.133 0.055 c 0.031 0 -0.082 -0.113 -0.215 -0.215 c -0.07 -0.051 -0.133 -0.105 -0.137 -0.113 c -0.008 -0.012 -0.051 -0.055 -0.098 -0.098 c -0.047 -0.043 -0.086 -0.09 -0.086 -0.105 c 0 -0.031 -0.18 -0.223 -0.285 -0.305 c -0.078 -0.063 -0.086 -0.094 -0.023 -0.094 h 0.043 l -0.004 -0.152 l -0.004 -0.148 l -0.184 -0.004 c -0.207 -0.008 -0.238 0.008 -0.168 0.082 c 0.027 0.031 0.031 0.043 0.012 0.031 c -0.016 -0.012 -0.063 -0.059 -0.102 -0.105 c -0.039 -0.047 -0.125 -0.133 -0.191 -0.191 c -0.133 -0.121 -0.484 -0.375 -0.508 -0.363 m 6.801 0.395 c -0.152 0.004 -0.227 0.035 -0.313 0.141 c -0.09 0.109 -0.137 0.219 -0.16 0.363 c -0.023 0.16 0 0.18 0.059 0.051 c 0.047 -0.102 0.078 -0.117 0.125 -0.07 c 0.043 0.043 0.063 0.035 0.082 -0.027 c 0.023 -0.078 0.102 -0.168 0.16 -0.184 c 0.09 -0.027 0.191 0.055 0.191 0.156 c 0 0.051 -0.133 0.246 -0.262 0.379 c -0.207 0.219 -0.297 0.398 -0.297 0.602 c 0 0.18 -0.012 0.176 0.41 0.168 l 0.363 -0.004 v -0.254 l -0.246 -0.008 c -0.137 -0.008 -0.246 -0.02 -0.246 -0.027 c 0 -0.008 0 -0.02 0 -0.031 c 0 -0.02 0.145 -0.188 0.309 -0.359 c 0.063 -0.063 0.137 -0.156 0.168 -0.207 c 0.063 -0.105 0.23 -0.523 0.223 -0.547 c 0 -0.012 -0.043 0.027 -0.09 0.082 c -0.051 0.055 -0.094 0.094 -0.098 0.094 c -0.008 -0.004 -0.031 -0.047 -0.059 -0.102 c -0.035 -0.063 -0.078 -0.113 -0.133 -0.156 c -0.066 -0.051 -0.094 -0.059 -0.188 -0.059 m -1.332 0.145 c -0.234 0 -0.465 0.008 -0.473 0.02 c -0.004 0.012 0.008 0.027 0.023 0.039 c 0.031 0.023 0.031 0.035 0.027 0.445 c 0 0.23 0 0.594 0 0.805 v 0.383 h 0.246 l 0.012 -0.133 c 0.004 -0.07 0.008 -0.223 0.008 -0.336 c 0 -0.219 0.004 -0.23 0.078 -0.23 c 0.016 0 0.098 0.086 0.199 0.219 c 0.305 0.391 0.531 0.613 0.617 0.617 c 0.043 0 0.043 -0.004 0.051 -0.09 l 0.004 -0.09 l -0.215 -0.262 c -0.191 -0.234 -0.34 -0.438 -0.371 -0.508 c -0.008 -0.012 0.035 -0.082 0.113 -0.184 c 0.094 -0.121 0.129 -0.18 0.141 -0.238 c 0.016 -0.09 0.023 -0.402 0.012 -0.434 c -0.008 -0.016 -0.242 -0.023 -0.473 -0.023 m -6.406 0 c -0.07 0 -0.145 0.004 -0.156 0.016 c -0.004 0.008 0.008 0.031 0.027 0.051 l 0.035 0.043 l 0.008 0.566 c 0.004 0.313 0 0.574 -0.008 0.578 c -0.016 0.016 -0.18 -0.098 -0.238 -0.168 c -0.105 -0.121 -0.129 -0.234 -0.137 -0.703 c 0 -0.191 -0.008 -0.355 -0.012 -0.363 c -0.012 -0.023 -0.199 -0.023 -0.227 0 c -0.016 0.012 -0.02 0.125 -0.016 0.629 c 0.004 0.34 0.004 0.617 -0.004 0.617 c -0.043 0 -0.211 -0.133 -0.266 -0.215 c -0.098 -0.137 -0.113 -0.223 -0.113 -0.652 c 0 -0.246 -0.004 -0.355 -0.02 -0.375 c -0.016 -0.023 -0.168 -0.031 -0.207 -0.012 c -0.02 0.012 -0.023 0.063 -0.023 0.387 c 0 0.395 0.012 0.516 0.074 0.676 c 0.047 0.117 0.203 0.309 0.305 0.375 c 0.047 0.027 0.148 0.094 0.223 0.141 c 0.078 0.051 0.145 0.086 0.152 0.082 c 0.004 -0.004 0.035 -0.059 0.066 -0.117 c 0.035 -0.059 0.062 -0.121 0.062 -0.141 c 0 -0.02 0.004 -0.035 0.012 -0.031 c 0.004 0.004 0.066 0.043 0.133 0.09 c 0.16 0.102 0.352 0.219 0.359 0.219 c 0.004 0 0.035 -0.055 0.066 -0.117 l 0.063 -0.117 v -0.707 c 0.004 -0.387 0 -0.715 -0.008 -0.727 c -0.004 -0.012 -0.078 -0.02 -0.152 -0.023 m 0.586 0 c -0.082 0 -0.148 0.008 -0.152 0.02 c -0.004 0.008 0.008 0.035 0.027 0.059 l 0.035 0.039 l 0.004 0.539 c 0 0.297 0.004 0.602 0.012 0.676 l 0.008 0.133 l 0.102 0.102 c 0.059 0.059 0.109 0.098 0.113 0.09 c 0.008 -0.008 0.016 -0.367 0.023 -0.805 c 0.008 -0.629 0.004 -0.797 -0.008 -0.82 c -0.016 -0.023 -0.051 -0.031 -0.164 -0.031 m 3 0 c -0.078 0 -0.148 0.008 -0.152 0.02 c -0.004 0.012 0.008 0.031 0.027 0.051 l 0.035 0.031 l 0.004 0.785 c 0.004 0.672 0.012 0.789 0.027 0.805 c 0.023 0.02 0.18 0.012 0.207 -0.008 c 0.008 -0.008 0.016 -0.137 0.016 -0.363 c 0 -0.188 0.004 -0.352 0.012 -0.355 c 0.012 -0.012 0.602 0.074 0.609 0.086 c 0.008 0.008 0.012 0.223 0.02 0.48 c 0.008 0.379 0.016 0.473 0.031 0.473 c 0.012 0 0.051 -0.039 0.086 -0.082 c 0.035 -0.043 0.078 -0.117 0.098 -0.164 c 0.027 -0.086 0.031 -0.117 0.039 -0.906 c 0.004 -0.684 0.004 -0.816 -0.016 -0.832 c -0.027 -0.027 -0.207 -0.02 -0.23 0.004 c -0.012 0.02 -0.016 0.125 -0.016 0.359 c 0 0.309 -0.004 0.336 -0.027 0.336 c -0.059 0 -0.582 -0.078 -0.594 -0.09 c -0.012 -0.008 -0.012 -0.109 -0.004 -0.289 c 0.008 -0.211 0.004 -0.289 -0.008 -0.309 c -0.016 -0.023 -0.055 -0.031 -0.164 -0.031 m -1.094 0.004 c -0.207 0.004 -0.223 0.02 -0.172 0.066 c 0.027 0.027 0.031 0.047 0.031 0.277 c 0.004 0.137 0.008 0.266 0.012 0.289 c 0.008 0.043 0.199 0.258 0.223 0.258 c 0.008 0 0.016 -0.063 0.023 -0.145 c 0.004 -0.078 0.008 -0.191 0.008 -0.258 c -0.004 -0.063 -0.004 -0.121 -0.004 -0.137 c 0.004 -0.02 0.07 -0.023 0.285 -0.023 c 0.156 0 0.293 -0.008 0.305 -0.016 c 0.012 -0.012 0.016 -0.059 0.012 -0.16 l -0.004 -0.145 l -0.445 -0.008 c -0.117 0 -0.207 0 -0.273 0 m 2.523 0 c -0.074 0.004 -0.129 0.004 -0.133 0.008 c -0.02 0.008 -0.016 0.02 0.008 0.047 c 0.031 0.031 0.035 0.047 0.039 0.508 l 0.004 0.473 l 0.047 0.133 c 0.09 0.25 0.266 0.434 0.488 0.504 c 0.063 0.023 0.219 0.027 0.23 0.008 c 0 0 0.008 -0.063 0.012 -0.133 c 0.008 -0.145 0.004 -0.152 -0.117 -0.152 c -0.082 0 -0.207 -0.063 -0.262 -0.129 c -0.047 -0.059 -0.133 -0.289 -0.121 -0.328 c 0.008 -0.02 0.051 -0.027 0.176 -0.031 l 0.164 -0.008 l 0.004 -0.148 l 0.004 -0.152 h -0.352 l -0.004 -0.063 c -0.004 -0.035 0 -0.105 0.004 -0.16 l 0.004 -0.098 l 0.258 -0.004 l 0.254 -0.004 l -0.004 -0.133 l -0.008 -0.129 l -0.402 -0.008 c -0.113 0 -0.215 0 -0.293 0 m 1.441 0.27 c 0.152 0 0.176 0.004 0.176 0.031 c 0 0.016 -0.063 0.109 -0.137 0.203 c -0.113 0.148 -0.141 0.172 -0.184 0.172 c -0.027 0 -0.047 0 -0.047 -0.004 c -0.012 -0.035 -0.008 -0.359 0.004 -0.379 c 0.008 -0.016 0.066 -0.023 0.188 -0.023 m -3.91 1.035 c 0.008 -0.008 0.09 0.039 0.184 0.102 c 0.191 0.125 0.27 0.184 0.246 0.184 c -0.008 0 -0.027 -0.012 -0.043 -0.027 c -0.016 -0.016 -0.047 -0.031 -0.066 -0.031 c -0.02 0 -0.07 -0.027 -0.109 -0.063 c -0.043 -0.035 -0.109 -0.082 -0.148 -0.105 c -0.039 -0.027 -0.066 -0.051 -0.063 -0.059" fill="#fff"/><path d="m 5.465 10.23 c -0.008 0.004 0.082 0.113 0.195 0.242 c 0.117 0.129 0.176 0.195 0.203 0.238 c 0.008 0.008 0.008 0.008 0.012 0.012 c 0.094 0.078 0.184 0.18 0.293 0.27 c 0.004 0 0.004 0 0.012 0.004 c 0.016 0.008 0.063 0.059 0.105 0.117 c 0.043 0.055 0.133 0.152 0.207 0.219 c 0.07 0.063 0.188 0.172 0.262 0.242 c 0.074 0.07 0.16 0.145 0.195 0.168 c 0.031 0.02 0.066 0.047 0.07 0.059 c 0 0.004 -0.004 -0.004 -0.004 0 c 0.078 0.07 0.125 0.102 0.164 0.125 c -0.004 -0.004 -0.016 -0.02 -0.016 -0.02 c 0 -0.004 0.055 0.016 0.117 0.051 c 0.063 0.031 0.121 0.055 0.133 0.055 c 0.031 0 -0.082 -0.113 -0.215 -0.215 c -0.07 -0.051 -0.133 -0.105 -0.137 -0.113 c -0.004 -0.012 -0.047 -0.055 -0.098 -0.098 c -0.047 -0.043 -0.086 -0.09 -0.086 -0.105 c 0 -0.031 -0.18 -0.223 -0.285 -0.305 c -0.047 -0.039 -0.066 -0.063 -0.063 -0.078 c -0.082 -0.063 -0.176 -0.129 -0.254 -0.207 c 0 0.004 0 0.004 -0.008 0 c -0.02 -0.012 -0.066 -0.059 -0.105 -0.105 c -0.039 -0.047 -0.125 -0.133 -0.191 -0.195 c -0.133 -0.121 -0.484 -0.371 -0.508 -0.359 m 6.801 0.395 v 0.004 c -0.152 0 -0.227 0.031 -0.313 0.137 c -0.09 0.109 -0.137 0.219 -0.16 0.363 c -0.023 0.16 0 0.184 0.059 0.055 c 0.051 -0.105 0.078 -0.121 0.125 -0.074 c 0.043 0.043 0.063 0.039 0.082 -0.027 c 0.023 -0.078 0.102 -0.168 0.16 -0.184 c 0.09 -0.027 0.191 0.055 0.191 0.156 c 0 0.051 -0.133 0.246 -0.262 0.379 c -0.207 0.219 -0.297 0.398 -0.297 0.602 c 0 0.18 -0.012 0.176 0.41 0.168 l 0.363 -0.004 v -0.254 l -0.246 -0.008 c -0.137 -0.008 -0.246 -0.016 -0.246 -0.027 c 0 -0.008 0 -0.02 0 -0.031 c 0 -0.02 0.145 -0.188 0.313 -0.355 c 0.059 -0.063 0.133 -0.16 0.164 -0.211 c 0.063 -0.105 0.23 -0.52 0.223 -0.547 c 0 -0.012 -0.043 0.027 -0.09 0.082 c -0.051 0.055 -0.094 0.098 -0.098 0.094 c -0.008 -0.004 -0.031 -0.047 -0.059 -0.102 c -0.035 -0.063 -0.078 -0.113 -0.129 -0.152 c -0.07 -0.055 -0.098 -0.063 -0.191 -0.059 m -5.715 1.133 c -0.055 0 0.082 0.141 0.32 0.297 c 0.09 0.063 0.172 0.109 0.18 0.109 c 0.008 0 0.02 0.02 0.027 0.039 c 0.008 0.039 0.078 0.105 0.156 0.156 c 0.078 0.055 0.168 0.098 0.215 0.098 c 0.023 0 0.117 0.047 0.211 0.105 c 0.203 0.125 0.266 0.152 0.234 0.098 c -0.004 -0.004 -0.004 -0.004 -0.004 -0.004 c -0.012 -0.02 -0.055 -0.063 -0.098 -0.098 c -0.047 -0.039 -0.063 -0.055 -0.066 -0.066 c -0.094 -0.082 -0.242 -0.176 -0.395 -0.266 c 0.121 0.082 0.191 0.133 0.172 0.133 c -0.008 0 -0.027 -0.012 -0.043 -0.027 c -0.016 -0.016 -0.047 -0.031 -0.066 -0.031 c -0.02 0 -0.07 -0.027 -0.109 -0.063 c -0.043 -0.031 -0.105 -0.082 -0.148 -0.105 c -0.039 -0.023 -0.066 -0.051 -0.063 -0.059 c 0.004 -0.004 0.066 0.035 0.109 0.063 c -0.039 -0.027 -0.09 -0.055 -0.125 -0.078 c -0.016 -0.012 -0.023 -0.02 -0.039 -0.027 c 0.012 0.012 0.031 0.031 0.027 0.035 c -0.004 0.004 -0.023 -0.012 -0.047 -0.035 c -0.051 -0.051 -0.203 -0.156 -0.328 -0.223 c -0.063 -0.035 -0.102 -0.051 -0.121 -0.051" fill="#ff3434"/><path d="m 7.809 9.605 c -0.137 -0.035 -0.227 -0.066 -0.242 -0.086 c -0.027 -0.031 -0.055 -0.219 -0.125 -0.844 c -0.031 -0.301 -0.133 -1.328 -0.133 -1.355 c 0 0 0.004 -0.004 0.008 -0.004 c 0.008 0 0.184 0.203 0.203 0.238 c 0.023 0.035 0.031 0.172 0.035 0.691 c 0.008 0.563 0.02 0.766 0.055 0.832 c 0.016 0.031 0.109 0.063 0.254 0.082 c 0.063 0.008 0.105 0.02 0.109 0.027 c 0 0.004 -0.008 0.105 -0.023 0.223 c -0.012 0.117 -0.027 0.215 -0.027 0.219 c 0 0.004 0.004 0.008 -0.113 -0.023 m 0.281 0 c -0.016 -0.086 -0.047 -0.41 -0.047 -0.422 c 0.004 -0.008 0.035 -0.016 0.094 -0.02 c 0.164 -0.023 0.262 -0.055 0.277 -0.098 c 0.027 -0.074 0.039 -0.285 0.051 -0.949 c 0.004 -0.27 0.012 -0.508 0.016 -0.527 c 0.004 -0.027 0.023 -0.055 0.078 -0.117 c 0.125 -0.145 0.141 -0.16 0.145 -0.156 c 0.008 0.008 -0.086 0.977 -0.137 1.434 c -0.063 0.551 -0.09 0.738 -0.113 0.77 c -0.016 0.016 -0.141 0.059 -0.254 0.086 c -0.043 0.012 -0.082 0.02 -0.09 0.023 c -0.012 0.004 -0.016 -0.004 -0.02 -0.023 m -0.375 -0.617 c -0.055 -0.016 -0.066 -0.074 -0.035 -0.195 c 0.027 -0.105 0.105 -0.262 0.121 -0.246 c 0.004 0.004 0.004 0.07 -0.004 0.148 c -0.004 0.078 -0.012 0.172 -0.012 0.211 c 0 0.039 -0.004 0.078 -0.008 0.082 c -0.008 0.012 -0.023 0.012 -0.063 0 m 0.523 0 c 0 -0.008 -0.004 -0.043 -0.004 -0.078 c -0.004 -0.051 -0.016 -0.234 -0.027 -0.344 c 0 -0.031 0.023 -0.02 0.051 0.031 c 0.07 0.113 0.117 0.313 0.086 0.359 c -0.02 0.031 -0.09 0.051 -0.105 0.031 m -0.418 -0.02 c -0.012 -0.008 -0.016 -0.023 -0.016 -0.117 v -0.105 h 0.195 v 0.102 c 0 0.113 -0.004 0.129 -0.047 0.125 c -0.016 0 -0.035 -0.004 -0.051 -0.004 c -0.012 0 -0.035 0.004 -0.047 0.004 c -0.012 0.004 -0.027 0.004 -0.035 0 m 0.223 -0.004 c -0.02 -0.012 -0.023 -0.016 -0.023 -0.117 l -0.004 -0.105 h 0.195 v 0.105 c 0 0.125 -0.004 0.137 -0.063 0.117 c -0.023 -0.004 -0.039 -0.004 -0.055 0 c -0.023 0.012 -0.027 0.012 -0.051 0 m -2.273 -0.512 c 0 -0.008 0.156 -0.43 0.184 -0.488 c 0.008 -0.02 0.023 -0.035 0.035 -0.043 c 0.012 -0.004 0.133 -0.047 0.27 -0.098 c 0.137 -0.051 0.418 -0.156 0.621 -0.23 c 0.203 -0.078 0.375 -0.141 0.379 -0.137 c 0.012 0.016 0.07 0.684 0.063 0.695 c -0.008 0.012 -1.496 0.309 -1.535 0.309 c -0.008 0 -0.016 -0.004 -0.016 -0.008 m 2.082 -0.012 c -0.109 -0.051 -0.137 -0.137 -0.188 -0.609 c -0.023 -0.203 -0.023 -0.219 -0.012 -0.23 c 0.016 -0.016 0.313 -0.156 0.328 -0.156 c 0.023 0 0.027 0.898 0.004 0.973 c -0.004 0.016 -0.016 0.035 -0.02 0.035 c -0.02 0.016 -0.07 0.008 -0.113 -0.012 m 0.203 0.016 c -0.027 -0.02 -0.031 -0.063 -0.035 -0.355 c -0.004 -0.363 0.004 -0.656 0.02 -0.656 c 0.012 0 0.305 0.137 0.324 0.148 c 0.004 0.004 0.008 0.023 0.008 0.039 c 0 0.047 -0.031 0.332 -0.055 0.48 c -0.031 0.219 -0.059 0.281 -0.148 0.324 c -0.043 0.023 -0.094 0.031 -0.113 0.02 m 1.398 -0.145 c -0.414 -0.082 -0.754 -0.152 -0.758 -0.16 c -0.012 -0.008 0.055 -0.684 0.066 -0.695 c 0.004 -0.004 0.148 0.047 0.344 0.121 c 0.184 0.07 0.473 0.18 0.637 0.242 c 0.168 0.059 0.305 0.113 0.309 0.113 c 0.008 0.008 0.195 0.512 0.195 0.52 c 0 0.004 -0.008 0.008 -0.023 0.008 c -0.012 0 -0.359 -0.066 -0.77 -0.148 m -4.156 -0.359 c 0.004 -0.012 0.324 -0.285 0.363 -0.313 c 0.473 -0.313 1.488 -0.961 1.496 -0.957 c 0.012 0.016 0.098 0.645 0.09 0.668 c -0.012 0.027 -1.066 0.465 -1.266 0.523 c -0.137 0.039 -0.691 0.102 -0.684 0.078 m 5.133 -0.016 c -0.32 -0.035 -0.363 -0.047 -0.621 -0.145 c -0.359 -0.137 -1.031 -0.426 -1.035 -0.441 c -0.012 -0.027 0.074 -0.652 0.09 -0.668 c 0.004 -0.004 0.113 0.063 0.25 0.152 c 1.328 0.859 1.258 0.813 1.434 0.961 c 0.094 0.078 0.168 0.145 0.172 0.148 c 0.004 0.02 -0.066 0.016 -0.289 -0.008 m -5.809 -0.336 c -0.395 -0.004 -0.75 -0.012 -0.797 -0.016 l -0.086 -0.008 l 0.109 -0.09 c 0.73 -0.613 1.211 -1.016 1.332 -1.105 c 0.07 -0.059 0.254 -0.152 0.395 -0.211 c 0.199 -0.082 0.344 -0.117 0.621 -0.16 c 0.203 -0.027 0.586 -0.07 0.602 -0.066 c 0.012 0.004 0.129 0.168 0.176 0.254 c 0.063 0.102 0.172 0.383 0.164 0.406 c -0.008 0.016 -1.117 0.75 -1.395 0.926 l -0.117 0.074 h -0.145 c -0.082 0.004 -0.469 0 -0.859 -0.004 m 5.812 0 c -0.047 -0.004 -0.066 -0.012 -0.145 -0.063 c -0.297 -0.184 -1.402 -0.918 -1.406 -0.934 c -0.004 -0.016 0.074 -0.234 0.121 -0.328 c 0.039 -0.082 0.156 -0.266 0.195 -0.309 c 0.023 -0.027 0.027 -0.027 0.063 -0.023 c 0.02 0 0.105 0.012 0.191 0.02 c 0.375 0.043 0.633 0.086 0.793 0.137 c 0.246 0.074 0.504 0.203 0.648 0.324 c 0.281 0.223 1.367 1.137 1.371 1.148 c 0.004 0.012 -0.188 0.02 -0.84 0.023 c -0.348 0.004 -0.699 0.008 -0.785 0.008 c -0.082 0.004 -0.176 0 -0.207 -0.004 m -2.852 -0.113 c -0.082 -0.066 -0.18 -0.172 -0.207 -0.223 c -0.027 -0.051 -0.059 -0.176 -0.074 -0.277 c -0.008 -0.039 -0.02 -0.086 -0.027 -0.105 c -0.027 -0.055 -0.008 -0.16 0.027 -0.148 c 0.168 0.047 0.277 0.078 0.316 0.082 c 0.117 0.02 0.383 0.027 0.555 0.02 c 0.238 -0.012 0.266 -0.02 0.473 -0.082 c 0.102 -0.031 0.102 -0.027 0.113 0.047 c 0.004 0.031 0 0.051 -0.012 0.082 c -0.008 0.023 -0.023 0.082 -0.031 0.125 c -0.031 0.191 -0.063 0.266 -0.148 0.359 c -0.07 0.074 -0.188 0.168 -0.191 0.156 c 0 -0.008 0.012 -0.043 0.027 -0.082 c 0.047 -0.113 0.07 -0.195 0.082 -0.281 c 0.012 -0.113 0.008 -0.145 -0.043 -0.191 l -0.039 -0.039 l -0.074 0.008 c -0.043 0 -0.098 0.004 -0.125 0.008 l -0.043 0.008 l 0.02 0.016 l 0.023 0.016 v 0.156 c 0 0.18 0.008 0.168 -0.102 0.164 l -0.063 -0.004 v -0.152 c 0.004 -0.082 0.008 -0.152 0.012 -0.156 c 0.004 -0.004 0.027 -0.016 0.051 -0.02 c 0.047 -0.016 0.047 -0.016 -0.09 -0.016 h -0.141 l 0.102 0.031 l 0.004 0.078 c 0.004 0.043 0.008 0.113 0.004 0.156 v 0.078 l -0.063 0.004 c -0.035 0 -0.074 0 -0.086 -0.004 l -0.02 -0.004 l 0.004 -0.16 c 0.004 -0.156 0.004 -0.16 0.023 -0.168 c 0.008 -0.004 0.016 -0.012 0.016 -0.012 c 0 -0.008 -0.059 -0.016 -0.168 -0.023 l -0.07 -0.004 l -0.043 0.043 l -0.043 0.039 l 0.004 0.094 c 0 0.105 0.02 0.188 0.078 0.324 c 0.02 0.047 0.031 0.09 0.031 0.094 c -0.004 0.004 -0.031 -0.012 -0.063 -0.035 m 0.059 -0.191 c -0.027 -0.008 -0.027 -0.02 -0.039 -0.184 l -0.008 -0.086 l 0.031 -0.031 c 0.023 -0.027 0.031 -0.031 0.078 -0.031 c 0.035 -0.004 0.059 0 0.063 0.008 c 0.02 0.016 0.023 0.316 0.008 0.324 c -0.016 0.008 -0.105 0.008 -0.133 0 m 0.609 0.004 c -0.008 -0.004 -0.012 -0.043 -0.012 -0.156 c 0 -0.18 0 -0.184 0.074 -0.18 c 0.051 0 0.078 0.016 0.102 0.051 c 0.012 0.02 0.012 0.031 0.004 0.141 c -0.008 0.063 -0.012 0.121 -0.016 0.129 c -0.008 0.016 -0.125 0.027 -0.152 0.016 m -0.484 -0.527 c -0.25 -0.027 -0.375 -0.051 -0.445 -0.09 c -0.039 -0.016 -0.043 -0.027 -0.246 -0.387 c -0.109 -0.203 -0.203 -0.375 -0.203 -0.379 c 0 -0.02 0.219 -0.258 0.238 -0.258 c 0.023 0 0.109 0.047 0.148 0.086 c 0.066 0.059 0.074 0.125 0.035 0.273 c -0.035 0.117 -0.047 0.199 -0.035 0.242 c 0.012 0.043 0.086 0.113 0.188 0.18 c 0.094 0.059 0.336 0.188 0.441 0.234 c 0.039 0.016 0.082 0.039 0.094 0.051 c 0.027 0.027 0.035 0.027 0.055 0.004 c 0.008 -0.008 0.078 -0.047 0.16 -0.086 c 0.258 -0.121 0.461 -0.246 0.535 -0.328 l 0.035 -0.039 l -0.004 -0.086 c -0.004 -0.059 -0.012 -0.109 -0.031 -0.168 c -0.043 -0.148 -0.035 -0.219 0.035 -0.281 c 0.043 -0.035 0.141 -0.09 0.156 -0.082 c 0.012 0.004 0.23 0.246 0.23 0.254 c 0 0.004 -0.094 0.176 -0.207 0.383 l -0.211 0.375 l -0.039 0.016 c -0.082 0.039 -0.199 0.063 -0.418 0.082 c -0.121 0.012 -0.23 0.023 -0.246 0.027 c -0.012 0 -0.133 -0.008 -0.266 -0.023 m 0.066 -0.176 c -0.098 -0.023 -0.258 -0.117 -0.406 -0.238 c -0.09 -0.074 -0.094 -0.082 -0.09 -0.164 c 0.008 -0.07 0.02 -0.125 0.035 -0.125 c 0.004 0 0.074 0.039 0.152 0.082 c 0.223 0.125 0.27 0.145 0.371 0.152 l 0.086 0.004 l 0.008 0.031 c 0.004 0.027 0.004 0.09 -0.008 0.199 c -0.004 0.023 -0.012 0.051 -0.02 0.059 c -0.012 0.016 -0.055 0.016 -0.129 0 m 0.027 -0.055 c 0 0 -0.055 -0.039 -0.121 -0.086 c -0.066 -0.043 -0.152 -0.109 -0.191 -0.148 c -0.035 -0.035 -0.07 -0.066 -0.07 -0.066 c -0.02 0 0.012 0.105 0.039 0.141 c 0.039 0.047 0.344 0.191 0.344 0.16 m 0.199 0.055 c -0.016 -0.016 -0.023 -0.078 -0.027 -0.188 c 0 -0.105 0 -0.105 0.074 -0.105 c 0.035 0 0.082 -0.008 0.109 -0.012 c 0.051 -0.016 0.191 -0.09 0.336 -0.172 c 0.051 -0.027 0.094 -0.051 0.102 -0.051 c 0.012 0 0.027 0.055 0.031 0.133 l 0.004 0.066 l -0.039 0.043 c -0.098 0.094 -0.32 0.242 -0.418 0.27 c -0.078 0.027 -0.152 0.031 -0.172 0.016 m 0.203 -0.078 c 0.211 -0.094 0.266 -0.137 0.285 -0.242 c 0.008 -0.043 -0.004 -0.043 -0.043 0.004 c -0.043 0.047 -0.16 0.141 -0.25 0.199 c -0.121 0.074 -0.117 0.09 0.008 0.035 m -3.57 -0.344 c -0.25 -0.059 -0.461 -0.109 -0.465 -0.113 c -0.008 -0.012 0.012 -0.027 0.238 -0.199 c 0.574 -0.434 0.637 -0.473 0.801 -0.527 c 0.125 -0.043 0.191 -0.051 0.465 -0.074 l 0.16 -0.016 l 0.098 0.039 c 0.148 0.063 0.348 0.164 0.43 0.219 c 0.043 0.027 0.105 0.082 0.148 0.125 c 0.074 0.078 0.188 0.227 0.184 0.242 c -0.004 0.004 -0.059 0.016 -0.125 0.023 c -0.438 0.055 -0.727 0.105 -0.863 0.148 c -0.102 0.035 -0.305 0.121 -0.457 0.195 c -0.063 0.031 -0.105 0.043 -0.125 0.043 c -0.016 0 -0.234 -0.047 -0.488 -0.105 m 6.04 0.07 c -0.125 -0.063 -0.379 -0.172 -0.473 -0.199 c -0.145 -0.051 -0.324 -0.082 -0.75 -0.137 c -0.23 -0.031 -0.242 -0.035 -0.242 -0.047 c 0 -0.012 0.098 -0.141 0.16 -0.211 c 0.035 -0.035 0.09 -0.09 0.129 -0.117 c 0.078 -0.063 0.293 -0.176 0.461 -0.242 l 0.113 -0.047 l 0.156 0.012 c 0.297 0.027 0.41 0.051 0.559 0.109 c 0.102 0.043 0.188 0.105 0.695 0.488 c 0.242 0.18 0.258 0.195 0.25 0.207 c -0.008 0.008 -0.938 0.219 -0.965 0.219 c -0.012 0 -0.055 -0.016 -0.094 -0.035 m -2.906 -0.063 c -0.051 -0.008 -0.129 -0.02 -0.172 -0.027 c -0.066 -0.012 -0.078 -0.02 -0.086 -0.035 c -0.008 -0.016 -0.004 -0.066 0.016 -0.215 c 0.012 -0.105 0.023 -0.219 0.023 -0.254 c 0 -0.055 -0.004 -0.063 -0.055 -0.164 c -0.027 -0.063 -0.051 -0.113 -0.047 -0.117 c 0.004 -0.008 0.418 -0.203 0.434 -0.203 c 0.004 0 0.012 0.008 0.012 0.02 c 0.004 0.023 0.043 0.906 0.039 0.973 v 0.035 h -0.035 c -0.02 0 -0.078 -0.008 -0.129 -0.012 m 0.199 -0.035 c 0 -0.023 0.008 -0.254 0.02 -0.508 c 0.012 -0.348 0.02 -0.465 0.027 -0.469 c 0.016 -0.008 0.434 0.188 0.441 0.203 c 0 0.004 -0.016 0.039 -0.035 0.078 c -0.02 0.039 -0.047 0.094 -0.055 0.125 c -0.023 0.063 -0.023 0.059 0.012 0.336 c 0.012 0.094 0.02 0.176 0.02 0.184 c 0 0.043 -0.031 0.055 -0.246 0.082 c -0.195 0.023 -0.184 0.023 -0.184 -0.031 m -0.559 -0.07 c -0.02 -0.016 -0.031 -0.039 -0.031 -0.047 c 0 -0.012 -0.008 -0.059 -0.02 -0.109 c -0.023 -0.129 -0.051 -0.18 -0.16 -0.297 c -0.094 -0.098 -0.094 -0.098 -0.074 -0.109 c 0.043 -0.027 0.262 -0.121 0.273 -0.117 c 0.016 0.008 0.098 0.176 0.105 0.23 c 0.016 0.074 -0.02 0.438 -0.043 0.469 c -0.012 0.016 -0.016 0.016 -0.051 -0.02 m 1.031 0.02 c -0.012 -0.016 -0.031 -0.141 -0.043 -0.293 c -0.008 -0.105 -0.008 -0.141 0 -0.18 c 0.012 -0.059 0.09 -0.219 0.109 -0.227 c 0.016 -0.008 0.273 0.109 0.277 0.125 c 0.004 0.008 -0.027 0.047 -0.074 0.098 c -0.121 0.129 -0.156 0.188 -0.176 0.348 c -0.008 0.059 -0.016 0.078 -0.031 0.098 c -0.031 0.035 -0.051 0.043 -0.063 0.031 m -1.719 -0.285 c -0.012 -0.016 -0.043 -0.063 -0.07 -0.102 c -0.063 -0.094 -0.16 -0.199 -0.223 -0.238 c -0.027 -0.02 -0.125 -0.074 -0.223 -0.125 c -0.094 -0.051 -0.176 -0.098 -0.176 -0.098 c -0.008 -0.012 0.215 -0.578 0.23 -0.582 c 0.004 -0.004 0.027 0.012 0.047 0.031 l 0.035 0.039 l 0.012 0.109 c 0.02 0.266 0.047 0.402 0.09 0.438 c 0.039 0.031 0.148 0.094 0.355 0.199 c 0.098 0.055 0.18 0.098 0.176 0.102 c -0.004 0.012 -0.219 0.254 -0.227 0.254 c -0.004 0 -0.016 -0.012 -0.027 -0.027 m 2.313 -0.094 c -0.059 -0.07 -0.109 -0.129 -0.109 -0.133 c 0 -0.008 0.102 -0.063 0.223 -0.125 c 0.234 -0.121 0.309 -0.164 0.328 -0.199 c 0.008 -0.008 0.02 -0.051 0.027 -0.09 c 0.016 -0.063 0.023 -0.133 0.051 -0.391 c 0.004 -0.043 0.008 -0.051 0.039 -0.078 c 0.016 -0.02 0.039 -0.035 0.047 -0.035 c 0.008 0 0.043 0.078 0.121 0.277 c 0.059 0.148 0.105 0.281 0.105 0.293 c 0.004 0.016 -0.027 0.031 -0.184 0.113 c -0.102 0.055 -0.211 0.121 -0.242 0.145 c -0.066 0.051 -0.148 0.148 -0.23 0.262 c -0.027 0.047 -0.055 0.082 -0.059 0.082 c -0.004 0 -0.055 -0.055 -0.117 -0.121 m -2.094 -0.25 c -0.047 -0.012 -0.121 -0.031 -0.168 -0.051 c -0.234 -0.086 -0.297 -0.133 -0.344 -0.289 c -0.023 -0.078 -0.031 -0.246 -0.012 -0.355 c 0.004 -0.043 0.008 -0.082 0.008 -0.09 c -0.004 -0.004 -0.031 -0.02 -0.063 -0.035 c -0.031 -0.016 -0.063 -0.031 -0.063 -0.039 c -0.008 -0.012 0.043 -0.109 0.059 -0.117 c 0.012 -0.004 1.488 0.598 1.5 0.613 c 0.012 0.012 0.039 0 -0.406 0.207 c -0.211 0.098 -0.391 0.18 -0.402 0.18 c -0.016 0 -0.063 -0.012 -0.109 -0.023 m 0.109 -0.16 c 0.094 -0.043 0.23 -0.16 0.223 -0.188 c -0.004 -0.02 -0.633 -0.293 -0.645 -0.281 c -0.016 0.016 -0.012 0.242 0.008 0.297 c 0.02 0.066 0.063 0.125 0.109 0.16 c 0.055 0.039 0.082 0.047 0.172 0.043 c 0.063 0 0.082 -0.004 0.133 -0.031 m -0.176 -0.094 c -0.051 -0.012 -0.082 -0.035 -0.102 -0.078 c -0.02 -0.031 -0.023 -0.051 -0.023 -0.098 c -0.004 -0.035 0 -0.063 0.008 -0.07 c 0.012 -0.012 0.305 0.117 0.313 0.137 c 0.008 0.016 -0.051 0.078 -0.086 0.094 c -0.035 0.016 -0.078 0.023 -0.109 0.016 m 1.559 0.09 c -0.215 -0.102 -0.395 -0.188 -0.395 -0.191 c -0.004 -0.012 1.488 -0.625 1.504 -0.621 c 0.016 0.008 0.066 0.109 0.063 0.121 c -0.004 0.004 -0.031 0.02 -0.066 0.035 c -0.031 0.016 -0.059 0.031 -0.063 0.035 c 0 0.008 0.004 0.047 0.008 0.09 c 0.035 0.234 -0.008 0.434 -0.109 0.523 c -0.043 0.039 -0.133 0.082 -0.281 0.133 c -0.094 0.031 -0.223 0.063 -0.254 0.063 c -0.008 0 -0.191 -0.086 -0.406 -0.188 m 0.668 0.023 c 0.078 -0.031 0.133 -0.094 0.164 -0.195 c 0.012 -0.035 0.016 -0.07 0.016 -0.164 c 0 -0.07 -0.004 -0.125 -0.008 -0.129 c -0.008 -0.008 -0.105 0.031 -0.32 0.125 c -0.172 0.078 -0.316 0.141 -0.324 0.145 c -0.031 0.027 0.16 0.184 0.273 0.223 c 0.051 0.016 0.148 0.016 0.195 -0.004 m -0.152 -0.117 c -0.035 -0.012 -0.113 -0.078 -0.113 -0.102 c 0 -0.02 0.301 -0.152 0.316 -0.141 c 0.016 0.02 0.008 0.117 -0.012 0.16 c -0.031 0.066 -0.117 0.102 -0.191 0.082 m -4.223 -0.02 c -0.16 -0.086 -0.293 -0.156 -0.293 -0.164 c 0.004 -0.008 0.934 -0.535 0.945 -0.535 c 0.004 0 0.016 0.023 0.031 0.059 c 0.07 0.176 0.113 0.277 0.141 0.32 c 0.027 0.051 0.129 0.188 0.188 0.258 c 0.016 0.023 0.027 0.043 0.023 0.047 c -0.004 0.004 -0.047 0.012 -0.098 0.02 c -0.277 0.031 -0.406 0.059 -0.555 0.117 c -0.043 0.016 -0.078 0.031 -0.082 0.031 c 0 0 -0.137 -0.07 -0.301 -0.152 m 6.07 0.121 c -0.039 -0.016 -0.109 -0.039 -0.152 -0.051 c -0.07 -0.02 -0.301 -0.059 -0.43 -0.07 c -0.035 -0.004 -0.066 -0.012 -0.066 -0.016 c -0.004 -0.004 0 -0.016 0.008 -0.027 c 0.012 -0.012 0.047 -0.059 0.082 -0.102 c 0.113 -0.145 0.141 -0.191 0.234 -0.43 c 0.027 -0.066 0.055 -0.125 0.059 -0.125 c 0.004 0 0.496 0.273 0.895 0.5 c 0.031 0.016 0.055 0.035 0.055 0.039 c 0 0.008 -0.555 0.297 -0.59 0.305 c -0.008 0.004 -0.047 -0.008 -0.09 -0.023 m -4.895 -0.16 c -0.258 -0.125 -0.582 -0.969 -0.66 -1.723 c -0.016 -0.148 -0.012 -0.488 0.004 -0.57 c 0.02 -0.09 0.012 -0.094 0.109 0.016 c 0.105 0.113 0.324 0.324 0.43 0.418 c 0.117 0.102 0.176 0.145 0.281 0.199 c 0.055 0.027 0.113 0.059 0.129 0.07 c 0.027 0.016 0.035 0.02 0.047 0.008 c 0.004 -0.008 0.043 -0.074 0.078 -0.145 c 0.039 -0.07 0.078 -0.141 0.086 -0.148 c 0.02 -0.02 0.02 -0.02 0.063 -0.004 c 0.063 0.023 0.18 0.086 0.273 0.148 c 0.117 0.078 0.238 0.172 0.238 0.188 c 0 0.016 -0.488 0.688 -0.535 0.738 c -0.035 0.039 -0.039 0.043 -0.07 0.035 c -0.027 -0.004 -0.035 -0.004 -0.047 0.012 c -0.02 0.02 -0.121 0.246 -0.262 0.578 c -0.059 0.145 -0.09 0.207 -0.098 0.207 c -0.008 0 -0.039 -0.012 -0.066 -0.027 m 0.117 -0.352 c 0.109 -0.23 0.199 -0.43 0.223 -0.496 c 0.02 -0.059 0.016 -0.109 -0.02 -0.18 c -0.027 -0.055 -0.051 -0.086 -0.133 -0.168 c -0.059 -0.059 -0.148 -0.145 -0.207 -0.188 c -0.23 -0.176 -0.41 -0.402 -0.543 -0.668 c -0.016 -0.039 -0.035 -0.074 -0.039 -0.074 c -0.023 0 -0.016 0.262 0.012 0.461 c 0.074 0.539 0.23 1.031 0.422 1.344 c 0.055 0.094 0.145 0.207 0.16 0.207 c 0.008 0 0.055 -0.09 0.125 -0.238 m 3.816 0.172 c -0.137 -0.324 -0.242 -0.559 -0.258 -0.578 c -0.012 -0.016 -0.023 -0.016 -0.051 -0.012 c -0.027 0.004 -0.031 0.004 -0.066 -0.035 c -0.055 -0.055 -0.539 -0.723 -0.539 -0.738 c 0 -0.016 0.09 -0.086 0.211 -0.172 c 0.086 -0.059 0.227 -0.137 0.297 -0.164 l 0.047 -0.02 l 0.02 0.02 c 0.008 0.012 0.047 0.078 0.086 0.152 c 0.039 0.07 0.074 0.133 0.082 0.141 c 0.008 0.012 0.016 0.012 0.043 -0.004 c 0.016 -0.012 0.074 -0.043 0.129 -0.074 c 0.168 -0.086 0.324 -0.223 0.625 -0.531 l 0.176 -0.18 l 0.008 0.043 c 0.027 0.117 0.035 0.383 0.02 0.57 c -0.059 0.652 -0.316 1.41 -0.57 1.691 c -0.039 0.043 -0.129 0.098 -0.16 0.098 c -0.004 0 -0.047 -0.094 -0.098 -0.207 m 0.223 0.016 c 0.227 -0.254 0.434 -0.824 0.531 -1.48 c 0.02 -0.137 0.031 -0.48 0.016 -0.48 c -0.004 0 -0.031 0.047 -0.059 0.102 c -0.094 0.184 -0.227 0.367 -0.355 0.492 c -0.031 0.031 -0.109 0.098 -0.172 0.148 c -0.191 0.152 -0.328 0.305 -0.359 0.398 c -0.02 0.051 -0.012 0.102 0.02 0.184 c 0.066 0.168 0.309 0.688 0.324 0.688 c 0.004 0 0.027 -0.023 0.055 -0.051 m -2.156 0.059 c -0.082 -0.066 -0.09 -0.105 -0.063 -0.266 c 0.02 -0.125 0.012 -0.215 -0.031 -0.328 c -0.047 -0.113 -0.059 -0.168 -0.059 -0.254 c 0 -0.082 0.012 -0.137 0.027 -0.137 c 0.008 0 0.047 0.023 0.086 0.055 c 0.043 0.027 0.082 0.051 0.086 0.051 c 0.008 0 0.047 -0.023 0.09 -0.051 c 0.039 -0.031 0.078 -0.055 0.086 -0.055 c 0.02 0 0.023 0.039 0.023 0.148 c 0 0.09 -0.004 0.109 -0.023 0.16 c -0.063 0.164 -0.066 0.176 -0.07 0.254 c -0.004 0.051 0 0.109 0.008 0.164 c 0.027 0.16 0.02 0.195 -0.063 0.258 c -0.023 0.02 -0.047 0.035 -0.051 0.035 c -0.004 0 -0.023 -0.016 -0.047 -0.035 m -0.301 -0.109 c -0.063 -0.027 -0.117 -0.059 -0.125 -0.063 c -0.008 -0.008 -0.023 -0.055 -0.035 -0.105 c -0.031 -0.137 -0.078 -0.223 -0.145 -0.297 c -0.035 -0.031 -0.07 -0.066 -0.086 -0.082 c -0.027 -0.02 -0.031 -0.027 -0.039 -0.078 c -0.004 -0.031 -0.004 -0.086 0.004 -0.117 c 0.016 -0.125 0.055 -0.156 0.215 -0.164 c 0.102 -0.008 0.32 0 0.332 0.012 c 0.004 0.004 -0.004 0.066 -0.016 0.141 l -0.027 0.129 l 0.047 0.145 c 0.027 0.078 0.055 0.168 0.063 0.199 c 0.016 0.07 0.016 0.16 -0.004 0.23 c -0.02 0.082 -0.027 0.102 -0.047 0.098 c -0.012 0 -0.07 -0.02 -0.137 -0.047 m 0.535 0.027 c -0.02 -0.059 -0.035 -0.137 -0.035 -0.199 c 0 -0.074 0.027 -0.191 0.09 -0.363 l 0.031 -0.086 l -0.027 -0.133 c -0.012 -0.074 -0.02 -0.137 -0.016 -0.141 c 0.012 -0.012 0.242 -0.023 0.34 -0.016 c 0.172 0.016 0.203 0.051 0.207 0.227 l 0.004 0.105 l -0.027 0.023 c -0.016 0.016 -0.059 0.055 -0.094 0.09 c -0.078 0.082 -0.102 0.133 -0.148 0.289 c -0.016 0.059 -0.031 0.109 -0.035 0.113 c -0.012 0.012 -0.246 0.109 -0.266 0.109 c -0.008 0 -0.02 -0.008 -0.023 -0.02 m -1.359 -0.398 c -0.172 -0.09 -0.313 -0.168 -0.313 -0.172 c 0 -0.008 0.051 -0.066 0.113 -0.129 l 0.113 -0.117 l 0.027 0.016 c 0.051 0.027 0.141 0.098 0.184 0.148 c 0.047 0.055 0.098 0.145 0.152 0.273 c 0.047 0.102 0.059 0.141 0.047 0.141 c -0.004 0 -0.152 -0.074 -0.324 -0.16 m 2.02 0.148 c 0 -0.035 0.129 -0.305 0.18 -0.375 c 0.035 -0.051 0.129 -0.133 0.191 -0.168 l 0.043 -0.023 l 0.113 0.117 c 0.063 0.063 0.113 0.121 0.113 0.129 c 0 0.004 -0.137 0.078 -0.316 0.172 c -0.176 0.086 -0.32 0.16 -0.32 0.16 c -0.004 0 -0.004 -0.004 -0.004 -0.012 m -1.875 -0.539 c -0.086 -0.055 -0.16 -0.109 -0.164 -0.113 c -0.008 -0.012 0.41 -0.699 0.438 -0.715 c 0.008 -0.008 0.031 0 0.082 0.031 c 0.102 0.063 0.246 0.16 0.309 0.215 c 0.031 0.023 0.059 0.043 0.063 0.043 c 0.016 0 0.066 -0.043 0.102 -0.094 c 0.039 -0.055 0.191 -0.355 0.191 -0.383 c 0 -0.004 0.004 -0.008 0.012 -0.008 c 0.004 0 0.008 0.004 0.008 0.008 c 0 0.02 0.121 0.273 0.164 0.34 c 0.047 0.074 0.074 0.109 0.105 0.125 c 0.016 0.008 0.027 0.012 0.027 0.012 c 0.004 0 0.023 -0.016 0.051 -0.039 c 0.074 -0.066 0.363 -0.258 0.391 -0.258 c 0.008 0 0.02 0.012 0.027 0.027 c 0.035 0.051 0.426 0.684 0.426 0.687 c 0 0.012 -0.324 0.227 -0.332 0.219 c -0.004 -0.004 -0.016 -0.043 -0.027 -0.086 c -0.039 -0.145 -0.086 -0.211 -0.152 -0.211 c -0.125 -0.004 -0.285 0.008 -0.551 0.047 l -0.141 0.023 l -0.141 -0.023 c -0.215 -0.031 -0.371 -0.047 -0.48 -0.047 c -0.098 0 -0.102 0 -0.129 0.023 c -0.031 0.027 -0.078 0.125 -0.098 0.207 c -0.008 0.035 -0.016 0.063 -0.02 0.066 c -0.004 0.004 -0.078 -0.039 -0.164 -0.098" fill="#6f6f6f"/></svg>