<svg xmlns="http://www.w3.org/2000/svg" viewBox="0 0 16 16" xmlns:xlink="http://www.w3.org/1999/xlink"><defs><path id="0" d="m 4.117 10.703 v -0.055 h -0.113 v -0.117 h -0.113 v -0.102 h 0.113 v -0.117 h 0.113 v -0.234 h 0.113 v 0.352 h 1.375 v 0.102 h -0.125 v 0.117 h -0.449 v 0.113 h -0.914" fill="#fff"/></defs><path d="m 3.395 14.426 c 11.906 7.922 19.238 -17.336 3.848 -13.992 c -6.359 1.426 -10.223 10.359 -3.848 13.992"/><g fill="#a9a9a9" fill-opacity="0.643"><path d="m 7.469 8.848 h 5.109 v 0.781 h -5.109"/><path d="m 4.742 7.59 h 3.434 v 1.312 h -3.434"/></g><g fill="#ff4500"><path d="m 4.457 9 v -0.168 h 1.484 v 0.109 h 0.805 v 0.113 h 3.687 v -0.113 h 0.805 v -0.109 h 1.484 v 0.109 c 0 0.105 -0.004 0.113 -0.055 0.113 c -0.043 0 -0.055 0.012 -0.055 0.055 v 0.059 h -8.156"/><path d="m 7.664 9 c 0 -0.047 -0.012 -0.051 -0.168 -0.066 c -0.09 -0.008 -0.348 -0.016 -0.566 -0.016 c -0.387 0 -0.398 0 -0.398 -0.043 c 0 -0.043 0.012 -0.043 2.07 -0.043 c 2.055 0 2.07 0 2.07 0.043 c 0 0.043 -0.016 0.043 -0.41 0.043 c -0.227 0 -0.488 0.008 -0.578 0.016 c -0.156 0.016 -0.168 0.02 -0.168 0.066 v 0.055 h -1.852"/><path d="m 4.457 9 v -0.168 h 1.484 v 0.109 h 0.805 v 0.113 h 0.461 c 0.438 0 0.457 0 0.457 -0.043 c 0 -0.023 -0.012 -0.051 -0.027 -0.063 c -0.016 -0.008 -0.262 -0.023 -0.547 -0.031 c -0.285 -0.008 -0.527 -0.023 -0.531 -0.031 c -0.008 -0.004 -0.008 -0.02 0 -0.027 c 0.023 -0.023 4.062 -0.023 4.082 0 c 0.012 0.008 0.012 0.023 0.004 0.027 c -0.008 0.008 -0.25 0.023 -0.543 0.031 c -0.293 0.008 -0.543 0.023 -0.559 0.031 c -0.016 0.012 -0.027 0.039 -0.027 0.063 c 0 0.039 0.02 0.043 0.461 0.043 h 0.457 v -0.113 h 0.805 v -0.109 h 0.742 c 0.613 0 0.742 0.004 0.742 0.027 c 0 0.09 -0.031 0.172 -0.07 0.184 c -0.023 0.008 -0.039 0.035 -0.039 0.07 v 0.055 h -8.152 v -0.168"/><path d="m 6.879 9 c 0 -0.047 0.012 -0.059 0.055 -0.059 c 0.043 0 0.055 0.012 0.055 0.059 c 0 0.043 -0.012 0.055 -0.055 0.055 c -0.043 0 -0.055 -0.012 -0.055 -0.055"/></g><path d="m 4.699 8.262 v -0.234 h -0.055 c -0.047 0 -0.055 -0.012 -0.055 -0.059 c 0 -0.047 -0.012 -0.055 -0.066 -0.055 h -0.066 v -0.336 h 2.879 v 0.113 h -2.531 v 0.805 h -0.109 v -0.234" fill="#fff"/><path d="m 4.215 6.18 v 0.277 h 0.156 v 0.176 c 0 0.168 0.004 0.176 0.051 0.176 c 0.047 0 0.047 0.008 0.047 0.176 c 0 0.176 0 0.176 0.059 0.176 h 0.059 v 0.379 h 2.918 v -0.348 h -0.125 c -0.102 0 -0.129 -0.012 -0.129 -0.047 c 0 -0.047 -0.066 -0.098 -0.172 -0.121 c -0.043 -0.012 -0.07 -0.039 -0.082 -0.082 c -0.02 -0.082 -0.059 -0.102 -0.172 -0.102 h -0.086 l 0.008 -0.102 l 0.008 -0.105 h -0.191 c -0.16 0 -0.191 -0.008 -0.191 -0.043 c 0 -0.031 -0.027 -0.043 -0.102 -0.043 c -0.074 0 -0.098 -0.012 -0.098 -0.043 c 0 -0.027 -0.012 -0.047 -0.027 -0.047 c -0.035 0 -0.043 -0.164 -0.004 -0.184 c 0.012 -0.008 -0.027 -0.016 -0.09 -0.016 c -0.113 -0.004 -0.113 -0.004 -0.113 -0.094 c 0 -0.086 0 -0.086 -0.105 -0.086 c -0.109 0 -0.109 0 -0.109 -0.086 v -0.09 h -1.508" fill="#a9a9a9" fill-opacity="0.643"/><g fill="#fff"><path d="m 4.457 7.313 v -0.344 h 0.219 v 0.688 h -0.219"/><path d="m 4.348 6.949 c 0 -0.055 -0.008 -0.066 -0.055 -0.066 c -0.039 0 -0.055 -0.012 -0.055 -0.047 c 0 -0.035 0.016 -0.043 0.109 -0.043 c 0.102 0 0.109 0.004 0.109 0.055 c 0 0.047 0.012 0.059 0.055 0.059 c 0.043 0 0.055 0.012 0.055 0.055 c 0 0.051 -0.008 0.055 -0.109 0.055 c -0.105 0 -0.109 0 -0.109 -0.066"/><path d="m 4.238 6.727 c 0 -0.059 -0.008 -0.066 -0.055 -0.066 c -0.039 0 -0.055 -0.016 -0.055 -0.047 c 0 -0.039 0.016 -0.043 0.164 -0.043 h 0.164 v 0.223 h -0.109 c -0.105 0 -0.109 0 -0.109 -0.066"/><path d="m 4.129 6.434 c 0 -0.109 0 -0.113 -0.063 -0.113 c -0.055 0 -0.066 -0.008 -0.066 -0.055 c 0 -0.055 0.004 -0.055 0.176 -0.055 h 0.172 v 0.336 h -0.219"/><path d="m 4 6.098 v -0.113 h 0.219 v 0.227 h -0.219"/><path d="m 5.395 6.04 v -0.059 h -1.504 v -0.223 h 1.484 v 0.055 c 0 0.055 0.004 0.055 0.117 0.055 c 0.113 0 0.121 0.004 0.121 0.059 c 0 0.043 0.012 0.055 0.055 0.055 c 0.043 0 0.055 0.012 0.055 0.059 c 0 0.055 -0.004 0.055 -0.164 0.055 c -0.16 0 -0.164 0 -0.164 -0.055"/><path d="m 4.129 5.703 v -0.055 h 1.027 v 0.113 h -1.027"/><path d="m 4.129 6.434 c 0 -0.094 -0.004 -0.113 -0.039 -0.113 c -0.039 0 -0.09 -0.039 -0.09 -0.07 c 0 -0.008 0.027 -0.02 0.059 -0.023 l 0.063 -0.012 l -0.063 -0.004 c -0.055 0 -0.059 -0.008 -0.059 -0.113 c 0 -0.105 -0.004 -0.113 -0.055 -0.113 c -0.051 0 -0.055 -0.008 -0.055 -0.113 v -0.109 h 0.121 c 0.113 0 0.117 -0.004 0.117 -0.059 v -0.055 h 1.027 v 0.055 c 0 0.055 0.008 0.059 0.109 0.059 c 0.102 0 0.109 0.004 0.109 0.055 c 0 0.043 0.008 0.055 0.051 0.055 c 0.105 0 0.188 0.031 0.188 0.066 c 0 0.02 0.023 0.047 0.047 0.059 c 0.078 0.035 0.07 0.07 -0.02 0.086 c -0.129 0.02 -0.246 -0.004 -0.246 -0.055 c 0 -0.039 -0.027 -0.043 -0.59 -0.043 h -0.586 v 0.113 c 0 0.109 0 0.113 0.066 0.113 h 0.063 v 0.336 h -0.219"/><path d="m 5.613 6.152 c 0 -0.055 0.004 -0.055 0.164 -0.055 c 0.16 0 0.164 0 0.164 0.055 c 0 0.055 -0.004 0.059 -0.164 0.059 c -0.16 0 -0.164 -0.004 -0.164 -0.059"/><path d="m 5.852 6.266 c 0 -0.051 0.008 -0.055 0.109 -0.055 c 0.102 0 0.109 0.004 0.109 0.055 c 0 0.051 -0.008 0.055 -0.109 0.055 c -0.102 0 -0.109 -0.004 -0.109 -0.055"/><path d="m 6.77 6.727 c 0 -0.031 0.016 -0.047 0.043 -0.047 c 0.027 0 0.043 0.016 0.043 0.047 c 0 0.027 -0.016 0.043 -0.043 0.043 c -0.027 0 -0.043 -0.016 -0.043 -0.043"/><path d="m 6.879 6.938 c 0 -0.043 -0.012 -0.055 -0.055 -0.055 c -0.039 0 -0.055 -0.012 -0.055 -0.047 c 0 -0.035 0.016 -0.043 0.109 -0.043 c 0.102 0 0.109 0.004 0.109 0.055 c 0 0.047 0.008 0.059 0.055 0.059 c 0.039 0 0.055 0.012 0.055 0.043 c 0 0.039 -0.016 0.047 -0.109 0.047 c -0.102 0 -0.109 -0.004 -0.109 -0.059"/><path d="m 6.988 7.06 c 0 -0.035 0.012 -0.047 0.055 -0.047 c 0.039 0 0.055 0.012 0.055 0.047 c 0 0.031 -0.016 0.043 -0.055 0.043 c -0.043 0 -0.055 -0.012 -0.055 -0.043"/><path d="m 7.285 7.227 c -0.043 -0.008 -0.059 -0.023 -0.059 -0.066 c 0 -0.043 -0.012 -0.055 -0.055 -0.055 c -0.039 0 -0.055 -0.012 -0.055 -0.043 c 0 -0.039 0.016 -0.047 0.109 -0.047 c 0.102 0 0.109 0.004 0.109 0.059 c 0 0.043 0.012 0.055 0.055 0.055 c 0.043 0 0.055 0.012 0.055 0.059 c 0 0.059 -0.016 0.059 -0.16 0.039"/><path d="m 7.336 7.355 c 0 -0.125 0.008 -0.133 0.211 -0.117 c 0.105 0.008 0.117 0.012 0.117 0.063 c 0 0.051 0.008 0.051 0.117 0.051 c 0.113 0 0.121 0.004 0.121 0.059 c 0 0.055 -0.004 0.055 -0.16 0.055 c -0.16 0 -0.164 0 -0.172 -0.063 l -0.012 -0.059 v 0.059 c -0.004 0.059 -0.012 0.063 -0.113 0.063 h -0.109"/><path d="m 7.336 7.523 c 0 -0.047 0.012 -0.055 0.105 -0.066 c 0.09 -0.012 0.109 -0.023 0.117 -0.066 l 0.012 -0.047 l 0.004 0.051 c 0 0.051 0.012 0.055 0.219 0.059 c 0.332 0.012 0.328 0.008 0.328 0.07 v 0.055 h -0.785"/><path d="m 8.06 7.699 c 0 -0.086 0.031 -0.105 0.156 -0.105 c 0.129 0 0.16 0.02 0.16 0.105 c 0 0.082 -0.031 0.102 -0.16 0.102 c -0.125 0 -0.156 -0.02 -0.156 -0.102"/><path d="m 6.637 10.01 c 0 -0.043 -0.008 -0.055 -0.055 -0.055 c -0.039 0 -0.055 -0.012 -0.055 -0.047 c 0 -0.039 0.016 -0.043 0.121 -0.043 c 0.121 0 0.121 0 0.121 -0.07 c 0 -0.063 0 -0.066 0.109 -0.066 c 0.102 0 0.109 -0.004 0.109 -0.055 c 0 -0.055 0.004 -0.055 0.117 -0.055 h 0.121 v -0.227 h -2.637 v -0.055 c 0 -0.047 -0.012 -0.059 -0.066 -0.059 c -0.055 0 -0.066 -0.008 -0.066 -0.055 v -0.055 h 3.555 v 0.055 c 0 0.047 -0.012 0.055 -0.055 0.055 c -0.043 0 -0.055 0.012 -0.055 0.059 c 0 0.051 -0.008 0.055 -0.121 0.055 c -0.113 0 -0.117 0.004 -0.117 0.055 c 0 0.047 -0.012 0.059 -0.055 0.059 c -0.047 0 -0.055 0.012 -0.055 0.055 v 0.059 h 2.766 v -0.113 h 1.375 v -0.113 h 0.566 v -0.113 h 0.457 v -0.055 c 0 -0.055 0.008 -0.055 0.121 -0.055 c 0.113 0 0.121 -0.004 0.121 -0.059 c 0 -0.051 -0.008 -0.055 -0.121 -0.055 h -0.121 v -0.246 h -0.914 v -0.059 c 0 -0.051 -0.004 -0.055 -0.148 -0.055 c -0.223 0 -0.309 0.02 -0.309 0.07 c 0 0.039 -0.023 0.043 -0.402 0.043 h -0.406 v -0.113 h -2.508 v -0.156 c 0 -0.141 0.004 -0.156 0.043 -0.156 c 0.035 0 0.047 0.016 0.047 0.055 c 0 0.055 0.004 0.055 0.117 0.055 c 0.113 0 0.121 0 0.121 -0.055 v -0.055 h 0.938 v -0.066 c 0 -0.07 0 -0.07 -0.121 -0.07 c -0.113 0 -0.117 0 -0.117 -0.055 c 0 -0.055 -0.008 -0.055 -0.121 -0.055 c -0.113 0 -0.121 -0.004 -0.121 -0.059 c 0 -0.043 -0.012 -0.055 -0.055 -0.055 c -0.043 0 -0.055 -0.012 -0.055 -0.055 c 0 -0.055 -0.008 -0.059 -0.109 -0.059 c -0.102 0 -0.105 -0.004 -0.105 -0.055 c 0 -0.047 -0.012 -0.059 -0.066 -0.059 c -0.055 0 -0.066 -0.008 -0.066 -0.055 c 0 -0.051 0.008 -0.055 0.109 -0.055 c 0.102 0 0.109 0.004 0.109 0.055 c 0 0.055 0.004 0.055 0.172 0.055 c 0.172 0 0.176 0.004 0.176 0.059 c 0 0.051 0.008 0.055 0.121 0.055 c 0.113 0 0.121 0.004 0.121 0.059 c 0 0.051 0.004 0.055 0.105 0.055 c 0.105 0 0.109 0.004 0.109 0.055 c 0 0.055 0.008 0.059 0.121 0.059 c 0.117 0 0.121 0 0.121 0.066 c 0 0.066 0 0.066 0.109 0.066 c 0.102 0 0.109 0.004 0.109 0.055 c 0 0.059 0 0.059 0.172 0.059 c 0.172 0 0.176 0 0.176 0.055 v 0.055 h 0.914 v 0.113 h 0.809 v 0.113 h 0.914 v 0.113 h 0.59 v 0.055 c 0 0.043 0.012 0.055 0.055 0.055 c 0.051 0 0.055 0.008 0.055 0.113 v 0.113 h -0.121 c -0.113 0 -0.121 0 -0.121 0.055 c 0 0.051 -0.004 0.055 -0.105 0.055 c -0.102 0 -0.109 0.004 -0.109 0.059 c 0 0.051 -0.008 0.055 -0.121 0.055 c -0.113 0 -0.121 0.004 -0.121 0.055 c 0 0.055 -0.008 0.059 -0.109 0.059 c -0.102 0 -0.109 0.004 -0.109 0.055 v 0.059 h -1.371 v 0.109 h -1.855 v 0.113 h -1.59 v 0.113 h -0.699 v 0.109 h -0.457"/><path d="m 6.637 10.01 c 0 -0.043 -0.008 -0.055 -0.055 -0.055 c -0.039 0 -0.055 -0.012 -0.055 -0.047 c 0 -0.039 0.016 -0.043 0.121 -0.043 c 0.121 0 0.121 0 0.121 -0.07 c 0 -0.063 0 -0.066 0.109 -0.066 c 0.102 0 0.109 -0.004 0.109 -0.055 c 0 -0.055 0.004 -0.055 0.117 -0.055 h 0.121 v -0.227 h -2.637 v -0.055 c 0 -0.047 -0.012 -0.059 -0.066 -0.059 c -0.055 0 -0.066 -0.008 -0.066 -0.055 v -0.055 h 3.555 v 0.055 c 0 0.047 -0.012 0.055 -0.055 0.055 c -0.043 0 -0.055 0.012 -0.055 0.059 c 0 0.051 -0.008 0.055 -0.121 0.055 c -0.113 0 -0.117 0.004 -0.117 0.055 c 0 0.047 -0.012 0.059 -0.055 0.059 c -0.047 0 -0.055 0.012 -0.055 0.055 v 0.059 h 2.766 v -0.113 h 1.375 v -0.113 h 0.566 v -0.113 h 0.457 v -0.055 c 0 -0.055 0.008 -0.055 0.121 -0.055 c 0.113 0 0.121 -0.004 0.121 -0.059 c 0 -0.051 -0.008 -0.055 -0.121 -0.055 h -0.121 v -0.246 h -0.91 l -0.008 -0.051 c -0.008 -0.047 -0.016 -0.051 -0.203 -0.047 c -0.168 0 -0.199 0.008 -0.23 0.047 c -0.035 0.047 -0.055 0.051 -0.434 0.051 h -0.395 v -0.113 h -2.508 v -0.156 c 0 -0.141 0.004 -0.156 0.043 -0.156 c 0.035 0 0.047 0.016 0.047 0.055 c 0 0.055 0.004 0.055 0.117 0.055 c 0.113 0 0.121 0 0.121 -0.055 v -0.055 h 0.938 v -0.066 c 0 -0.07 0 -0.07 -0.121 -0.07 c -0.113 0 -0.117 -0.004 -0.117 -0.055 c 0 -0.055 -0.008 -0.055 -0.121 -0.055 c -0.113 0 -0.121 -0.004 -0.121 -0.059 c 0 -0.043 -0.012 -0.055 -0.055 -0.055 c -0.043 0 -0.055 -0.012 -0.055 -0.055 c 0 -0.055 -0.008 -0.059 -0.109 -0.059 c -0.102 0 -0.105 -0.004 -0.105 -0.055 c 0 -0.047 -0.012 -0.059 -0.066 -0.059 c -0.055 0 -0.066 -0.008 -0.066 -0.055 c 0 -0.051 0.008 -0.055 0.109 -0.055 c 0.102 0 0.109 0.004 0.109 0.055 c 0 0.055 0.004 0.055 0.172 0.055 c 0.172 0 0.176 0.004 0.176 0.059 c 0 0.051 0.008 0.055 0.121 0.055 c 0.113 0 0.121 0.004 0.121 0.059 c 0 0.051 0.004 0.055 0.105 0.055 c 0.102 0 0.109 0.004 0.109 0.055 c 0 0.055 0.008 0.059 0.121 0.059 c 0.117 0 0.121 0 0.121 0.066 c 0 0.066 0 0.066 0.109 0.066 c 0.102 0 0.109 0.004 0.109 0.055 c 0 0.055 0 0.059 0.172 0.059 c 0.172 0 0.176 0 0.176 0.055 v 0.055 h 0.914 v 0.113 h 0.809 v 0.113 h 0.914 v 0.113 h 0.59 v 0.055 c 0 0.043 0.012 0.055 0.055 0.055 c 0.051 0 0.055 0.008 0.055 0.113 v 0.113 h -0.121 c -0.113 0 -0.121 0 -0.121 0.055 c 0 0.051 -0.004 0.055 -0.105 0.055 c -0.102 0 -0.109 0.004 -0.109 0.059 c 0 0.051 -0.008 0.055 -0.121 0.055 c -0.113 0 -0.121 0.004 -0.121 0.055 c 0 0.055 -0.008 0.059 -0.109 0.059 c -0.102 0 -0.109 0.004 -0.109 0.055 v 0.059 h -1.371 v 0.109 h -1.855 v 0.113 h -1.59 v 0.113 h -0.699 v 0.109 h -0.457"/><path d="m 6.637 10.01 c 0 -0.043 -0.008 -0.055 -0.055 -0.055 c -0.039 0 -0.055 -0.012 -0.055 -0.047 c 0 -0.039 0.016 -0.043 0.121 -0.043 c 0.121 0 0.121 0 0.121 -0.07 c 0 -0.063 0 -0.066 0.109 -0.066 c 0.102 0 0.109 -0.004 0.109 -0.055 c 0 -0.055 0.004 -0.055 0.117 -0.055 h 0.121 v -0.227 h -2.637 v -0.055 c 0 -0.047 -0.012 -0.059 -0.066 -0.059 c -0.055 0 -0.066 -0.008 -0.066 -0.055 v -0.055 h 3.555 v 0.055 c 0 0.047 -0.012 0.055 -0.055 0.055 c -0.043 0 -0.055 0.012 -0.055 0.059 c 0 0.051 -0.008 0.055 -0.121 0.055 c -0.113 0 -0.117 0.004 -0.117 0.055 c 0 0.047 -0.012 0.059 -0.055 0.059 c -0.047 0 -0.055 0.012 -0.055 0.055 v 0.059 h 2.766 v -0.113 h 1.375 v -0.113 h 0.566 v -0.113 h 0.457 v -0.055 c 0 -0.055 0.008 -0.055 0.121 -0.055 c 0.113 0 0.121 -0.004 0.121 -0.059 c 0 -0.051 -0.008 -0.055 -0.121 -0.055 h -0.121 v -0.246 h -0.457 c -0.434 0 -0.457 -0.004 -0.457 -0.043 c 0 -0.035 -0.02 -0.043 -0.098 -0.051 c -0.164 -0.016 -0.289 0.004 -0.336 0.051 c -0.039 0.039 -0.082 0.043 -0.438 0.043 h -0.395 v -0.113 h -2.508 v -0.156 c 0 -0.141 0.004 -0.156 0.043 -0.156 c 0.027 0 0.043 0.016 0.051 0.051 c 0.004 0.043 0.02 0.051 0.121 0.055 c 0.109 0.008 0.113 0.004 0.113 -0.051 v -0.055 h 0.938 v -0.066 c 0 -0.07 0 -0.07 -0.121 -0.07 c -0.113 0 -0.117 -0.004 -0.117 -0.055 c 0 -0.055 -0.008 -0.055 -0.121 -0.055 c -0.113 0 -0.121 -0.004 -0.121 -0.059 c 0 -0.043 -0.012 -0.055 -0.055 -0.055 c -0.043 0 -0.055 -0.012 -0.055 -0.055 c 0 -0.055 -0.008 -0.059 -0.109 -0.059 c -0.102 0 -0.109 -0.004 -0.109 -0.055 c 0 -0.047 -0.008 -0.059 -0.063 -0.059 c -0.055 0 -0.066 -0.008 -0.066 -0.055 c 0 -0.051 0.008 -0.055 0.109 -0.055 c 0.102 0 0.109 0.004 0.109 0.055 c 0 0.055 0.004 0.055 0.172 0.055 c 0.172 0 0.176 0.004 0.176 0.059 c 0 0.051 0.008 0.055 0.121 0.055 c 0.113 0 0.117 0.004 0.117 0.059 c 0 0.051 0.008 0.055 0.109 0.055 c 0.102 0 0.109 0.004 0.109 0.055 c 0 0.055 0.008 0.059 0.121 0.059 c 0.117 0 0.121 0 0.121 0.066 c 0 0.066 0 0.066 0.105 0.066 c 0.098 0 0.109 0.008 0.117 0.051 c 0.004 0.047 0.02 0.051 0.176 0.059 c 0.16 0.004 0.168 0.008 0.168 0.059 v 0.055 h 0.914 v 0.113 h 0.809 v 0.113 h 0.914 v 0.113 h 0.59 v 0.055 c 0 0.043 0.012 0.055 0.055 0.055 c 0.051 0 0.055 0.008 0.055 0.113 v 0.113 h -0.121 c -0.113 0 -0.121 0 -0.121 0.055 c 0 0.051 -0.004 0.055 -0.105 0.055 c -0.105 0 -0.109 0.004 -0.109 0.059 c 0 0.051 -0.008 0.055 -0.121 0.055 c -0.113 0 -0.121 0.004 -0.121 0.055 c 0 0.055 -0.008 0.059 -0.109 0.059 c -0.102 0 -0.109 0.004 -0.109 0.055 v 0.059 h -1.371 v 0.109 h -1.855 v 0.113 h -1.59 v 0.113 h -0.699 v 0.109 h -0.457"/><path d="m 6.633 10.02 c -0.004 -0.031 -0.023 -0.051 -0.055 -0.055 c -0.031 -0.004 -0.047 -0.023 -0.047 -0.051 c 0 -0.035 0.016 -0.043 0.113 -0.047 c 0.105 -0.008 0.113 -0.012 0.121 -0.07 c 0.008 -0.059 0.012 -0.063 0.113 -0.063 c 0.102 0 0.109 -0.004 0.109 -0.055 c 0 -0.055 0.004 -0.055 0.117 -0.055 h 0.121 v -0.227 h -2.633 l -0.008 -0.051 c -0.008 -0.035 -0.023 -0.051 -0.066 -0.059 c -0.047 -0.004 -0.063 -0.016 -0.063 -0.059 v -0.055 h 3.555 v 0.055 c 0 0.047 -0.012 0.055 -0.055 0.055 c -0.043 0 -0.055 0.012 -0.055 0.059 c 0 0.051 -0.004 0.055 -0.121 0.055 c -0.109 0 -0.117 0.004 -0.117 0.055 c 0 0.039 -0.016 0.059 -0.051 0.063 c -0.031 0.004 -0.051 0.023 -0.055 0.059 l -0.008 0.051 h 2.773 v -0.113 h 1.371 v -0.113 h 0.57 v -0.113 h 0.457 v -0.055 c 0 -0.055 0.008 -0.055 0.121 -0.055 c 0.113 0 0.117 -0.004 0.117 -0.059 c 0 -0.051 -0.004 -0.055 -0.117 -0.055 h -0.121 v -0.246 h -0.457 c -0.438 0 -0.453 -0.004 -0.465 -0.047 c -0.012 -0.039 -0.031 -0.043 -0.172 -0.043 c -0.121 0 -0.18 0.012 -0.23 0.043 c -0.066 0.043 -0.113 0.047 -0.465 0.047 h -0.391 v -0.113 h -2.508 v -0.156 c 0 -0.141 0.004 -0.156 0.043 -0.156 c 0.023 0 0.043 0.016 0.047 0.051 c 0.008 0.043 0.02 0.051 0.117 0.051 c 0.094 0 0.109 -0.008 0.113 -0.051 l 0.008 -0.051 h 0.938 l -0.008 -0.063 c -0.004 -0.059 -0.012 -0.063 -0.121 -0.07 c -0.105 -0.004 -0.113 -0.008 -0.113 -0.059 c 0 -0.055 -0.008 -0.055 -0.121 -0.055 c -0.113 0 -0.117 -0.004 -0.117 -0.059 c 0 -0.043 -0.012 -0.055 -0.055 -0.055 c -0.043 0 -0.055 -0.012 -0.055 -0.055 c 0 -0.055 -0.008 -0.059 -0.109 -0.059 c -0.094 0 -0.105 -0.004 -0.113 -0.051 c -0.004 -0.035 -0.023 -0.051 -0.066 -0.055 c -0.047 -0.008 -0.063 -0.02 -0.063 -0.063 c 0 -0.051 0.012 -0.055 0.109 -0.055 c 0.094 0 0.109 0.004 0.113 0.051 c 0.008 0.047 0.02 0.051 0.176 0.055 c 0.152 0.008 0.168 0.012 0.176 0.059 c 0.004 0.043 0.02 0.051 0.121 0.055 c 0.105 0.008 0.113 0.012 0.113 0.063 c 0 0.051 0.008 0.055 0.109 0.055 c 0.094 0 0.105 0.004 0.113 0.051 c 0.004 0.043 0.02 0.051 0.121 0.055 c 0.109 0.008 0.113 0.012 0.113 0.074 c 0 0.066 0.004 0.066 0.109 0.066 c 0.094 0 0.105 0.008 0.113 0.051 c 0.008 0.047 0.02 0.051 0.176 0.059 c 0.164 0.004 0.168 0.008 0.168 0.059 v 0.055 h 0.918 v 0.113 h 0.805 v 0.113 h 0.918 v 0.113 h 0.293 c 0.285 0 0.293 0 0.297 0.051 c 0.008 0.031 0.027 0.051 0.059 0.055 c 0.043 0.008 0.047 0.02 0.047 0.117 v 0.113 h -0.117 c -0.113 0 -0.121 0.004 -0.121 0.055 c 0 0.051 -0.008 0.055 -0.109 0.055 c -0.102 0 -0.109 0.004 -0.109 0.059 c 0 0.051 -0.008 0.055 -0.121 0.055 c -0.113 0 -0.117 0.004 -0.117 0.059 c 0 0.051 -0.008 0.055 -0.109 0.055 c -0.102 0 -0.109 0.004 -0.109 0.055 v 0.059 h -1.375 v 0.109 h -1.852 v 0.113 h -1.594 v 0.113 h -0.695 v 0.109 h -0.227 c -0.223 0 -0.23 0 -0.234 -0.051"/><path d="m 6.633 10.02 c -0.004 -0.031 -0.023 -0.051 -0.055 -0.055 c -0.031 -0.004 -0.047 -0.023 -0.047 -0.051 c 0 -0.035 0.016 -0.043 0.113 -0.047 c 0.105 -0.008 0.113 -0.012 0.121 -0.07 c 0.004 -0.055 0.016 -0.059 0.109 -0.066 c 0.086 -0.004 0.102 -0.016 0.109 -0.059 c 0.004 -0.043 0.02 -0.047 0.125 -0.047 h 0.117 v -0.227 h -2.633 l -0.008 -0.051 c -0.004 -0.035 -0.023 -0.051 -0.066 -0.059 c -0.047 -0.004 -0.063 -0.016 -0.063 -0.059 v -0.055 h 3.555 v 0.055 c 0 0.039 -0.012 0.055 -0.047 0.059 c -0.031 0.008 -0.055 0.027 -0.059 0.059 c -0.004 0.043 -0.02 0.051 -0.117 0.055 c -0.098 0.008 -0.117 0.016 -0.121 0.059 c -0.004 0.027 -0.023 0.051 -0.055 0.055 c -0.031 0.004 -0.051 0.023 -0.055 0.059 l -0.008 0.047 h 2.773 v -0.109 h 1.375 v -0.113 h 0.566 v -0.113 h 0.457 v -0.055 c 0 -0.055 0.008 -0.055 0.121 -0.055 c 0.113 0 0.117 -0.004 0.117 -0.059 c 0 -0.051 -0.004 -0.055 -0.117 -0.055 h -0.121 v -0.246 h -0.457 c -0.438 0 -0.453 -0.004 -0.465 -0.047 c -0.012 -0.039 -0.031 -0.043 -0.156 -0.043 c -0.102 0 -0.172 0.012 -0.23 0.043 c -0.078 0.043 -0.129 0.047 -0.48 0.047 h -0.391 v -0.113 h -2.508 v -0.156 c 0 -0.141 0.004 -0.156 0.043 -0.156 c 0.027 0 0.043 0.016 0.043 0.043 c 0 0.031 0.02 0.047 0.074 0.059 c 0.098 0.02 0.168 -0.004 0.168 -0.059 c 0 -0.043 0.02 -0.043 0.469 -0.043 h 0.469 l -0.004 -0.063 c -0.008 -0.059 -0.016 -0.063 -0.125 -0.07 c -0.102 -0.004 -0.113 -0.008 -0.113 -0.059 c 0 -0.055 -0.008 -0.055 -0.121 -0.055 c -0.113 0 -0.117 -0.004 -0.117 -0.059 c 0 -0.043 -0.012 -0.055 -0.055 -0.055 c -0.039 0 -0.055 -0.016 -0.059 -0.051 c -0.008 -0.043 -0.023 -0.051 -0.109 -0.059 c -0.086 -0.004 -0.105 -0.012 -0.109 -0.055 c -0.004 -0.035 -0.023 -0.051 -0.066 -0.059 c -0.047 -0.004 -0.059 -0.016 -0.059 -0.059 c 0 -0.051 0.008 -0.055 0.105 -0.055 c 0.094 0 0.109 0.004 0.113 0.051 c 0.008 0.047 0.02 0.051 0.176 0.055 c 0.152 0.008 0.168 0.012 0.176 0.059 c 0.004 0.043 0.02 0.051 0.117 0.055 c 0.098 0.008 0.117 0.012 0.121 0.055 c 0.008 0.043 0.023 0.051 0.109 0.059 c 0.086 0.004 0.102 0.012 0.109 0.055 c 0.004 0.043 0.023 0.051 0.121 0.055 c 0.102 0.008 0.113 0.012 0.117 0.07 c 0.008 0.055 0.016 0.059 0.113 0.066 c 0.082 0.004 0.102 0.016 0.102 0.047 c 0 0.055 0.043 0.07 0.211 0.07 c 0.133 0 0.137 0 0.137 0.055 v 0.055 h 0.918 v 0.113 h 0.805 v 0.113 h 0.918 v 0.113 h 0.293 c 0.285 0 0.293 0 0.297 0.047 c 0.008 0.035 0.027 0.055 0.059 0.059 c 0.043 0.008 0.047 0.02 0.047 0.117 v 0.109 l -0.113 0.008 c -0.098 0.004 -0.113 0.012 -0.121 0.055 c -0.004 0.043 -0.023 0.051 -0.109 0.059 c -0.086 0.004 -0.102 0.012 -0.109 0.055 c -0.004 0.043 -0.023 0.051 -0.117 0.055 c -0.098 0.008 -0.117 0.016 -0.121 0.059 c -0.008 0.039 -0.023 0.047 -0.109 0.055 c -0.086 0.004 -0.105 0.016 -0.109 0.059 l -0.008 0.051 h -1.371 v 0.109 h -1.852 v 0.113 h -1.594 v 0.113 h -0.695 v 0.109 h -0.227 c -0.223 0 -0.23 0 -0.234 -0.051"/><path d="m 11.48 8.777 c 0 -0.02 0.02 -0.031 0.043 -0.031 c 0.023 0 0.043 0.012 0.043 0.031 c 0 0.02 -0.02 0.035 -0.043 0.035 c -0.023 0 -0.043 -0.016 -0.043 -0.035"/><path d="m 6.637 10.02 c 0 -0.027 -0.02 -0.051 -0.055 -0.059 c -0.031 -0.008 -0.055 -0.031 -0.055 -0.059 c 0 -0.031 0.02 -0.039 0.086 -0.039 c 0.121 0 0.156 -0.02 0.156 -0.082 c 0 -0.047 0.012 -0.051 0.102 -0.059 c 0.09 -0.004 0.105 -0.016 0.113 -0.059 c 0.004 -0.043 0.02 -0.051 0.125 -0.051 h 0.117 v -0.223 h -2.629 l -0.02 -0.051 c -0.012 -0.027 -0.043 -0.055 -0.07 -0.059 c -0.035 -0.004 -0.051 -0.02 -0.051 -0.059 v -0.055 h 3.555 v 0.055 c 0 0.039 -0.012 0.055 -0.047 0.059 c -0.031 0.004 -0.055 0.027 -0.059 0.059 c -0.004 0.043 -0.02 0.051 -0.117 0.055 c -0.102 0.008 -0.117 0.016 -0.121 0.059 c -0.004 0.031 -0.023 0.051 -0.047 0.051 c -0.035 0 -0.066 0.039 -0.066 0.09 c 0 0.012 0.559 0.02 1.383 0.02 h 1.387 v -0.109 h 1.371 v -0.113 h 0.566 v -0.113 h 0.23 c 0.23 0 0.23 0 0.23 -0.055 c 0 -0.051 0.008 -0.055 0.113 -0.063 c 0.098 -0.004 0.113 -0.012 0.113 -0.051 c 0 -0.039 -0.016 -0.043 -0.113 -0.051 l -0.113 -0.008 v -0.242 h -0.453 c -0.43 0 -0.453 -0.004 -0.48 -0.047 c -0.023 -0.035 -0.051 -0.043 -0.148 -0.043 c -0.105 0 -0.121 0.004 -0.098 0.031 c 0.016 0.02 0.02 0.035 0.004 0.047 c -0.031 0.02 -0.074 -0.008 -0.055 -0.035 c 0.016 -0.031 -0.004 -0.027 -0.094 0.012 c -0.059 0.027 -0.172 0.035 -0.469 0.035 h -0.387 v -0.113 h -2.508 v -0.156 c 0 -0.141 0.004 -0.156 0.039 -0.156 c 0.023 0 0.047 0.02 0.051 0.043 c 0.023 0.086 0.234 0.086 0.234 0 c 0 -0.043 0.016 -0.043 0.469 -0.043 h 0.469 v -0.055 c 0 -0.063 -0.035 -0.082 -0.152 -0.082 c -0.07 0 -0.086 -0.008 -0.09 -0.051 c -0.008 -0.043 -0.023 -0.051 -0.121 -0.055 c -0.098 -0.008 -0.113 -0.016 -0.121 -0.059 c -0.004 -0.031 -0.023 -0.051 -0.051 -0.055 c -0.031 -0.004 -0.051 -0.027 -0.055 -0.055 c -0.008 -0.043 -0.023 -0.051 -0.105 -0.059 c -0.078 -0.004 -0.105 -0.016 -0.121 -0.055 c -0.012 -0.027 -0.043 -0.055 -0.07 -0.059 c -0.035 -0.004 -0.051 -0.02 -0.051 -0.059 c 0 -0.051 0.008 -0.055 0.109 -0.055 c 0.094 0 0.109 0.004 0.109 0.043 c 0 0.055 0.043 0.066 0.211 0.066 c 0.121 0 0.137 0.008 0.137 0.043 c 0 0.051 0.043 0.07 0.156 0.07 c 0.07 0 0.082 0.008 0.09 0.051 c 0.004 0.043 0.023 0.051 0.109 0.059 c 0.086 0.004 0.105 0.012 0.105 0.047 c 0 0.051 0.039 0.066 0.152 0.066 c 0.078 0 0.086 0.008 0.086 0.055 c 0 0.063 0.035 0.082 0.145 0.082 c 0.051 0 0.074 0.012 0.074 0.031 c 0 0.055 0.074 0.082 0.215 0.082 c 0.129 0 0.133 0 0.133 0.055 v 0.055 h 0.918 v 0.113 h 0.805 v 0.113 h 0.918 v 0.109 h 0.293 c 0.277 0 0.293 0.004 0.293 0.047 c 0 0.027 0.02 0.051 0.055 0.059 c 0.051 0.012 0.055 0.023 0.055 0.121 v 0.109 l -0.113 0.008 c -0.098 0.004 -0.117 0.012 -0.121 0.055 c -0.008 0.043 -0.023 0.051 -0.109 0.055 c -0.086 0.008 -0.105 0.016 -0.109 0.059 c -0.008 0.043 -0.023 0.051 -0.121 0.055 c -0.098 0.008 -0.113 0.016 -0.117 0.055 c -0.008 0.043 -0.023 0.051 -0.109 0.059 c -0.09 0.004 -0.105 0.016 -0.109 0.059 l -0.008 0.047 h -1.371 v 0.113 h -1.852 v 0.113 h -1.594 v 0.113 h -0.695 v 0.109 h -0.23 c -0.215 0 -0.23 -0.004 -0.23 -0.043"/><path d="m 6.633 10.02 c -0.008 -0.023 -0.035 -0.051 -0.059 -0.059 c -0.027 -0.004 -0.047 -0.027 -0.047 -0.055 c 0 -0.031 0.02 -0.039 0.078 -0.039 c 0.102 0 0.164 -0.035 0.164 -0.094 c 0 -0.035 0.016 -0.043 0.074 -0.043 c 0.102 0 0.145 -0.02 0.145 -0.07 c 0 -0.035 0.016 -0.039 0.117 -0.039 h 0.121 v -0.227 h -2.629 l -0.02 -0.051 c -0.012 -0.027 -0.043 -0.055 -0.07 -0.059 c -0.035 -0.004 -0.051 -0.02 -0.051 -0.059 v -0.055 h 3.555 v 0.055 c 0 0.039 -0.012 0.055 -0.051 0.059 c -0.031 0.008 -0.051 0.027 -0.055 0.059 c -0.004 0.043 -0.02 0.051 -0.09 0.051 c -0.109 0 -0.152 0.02 -0.152 0.066 c 0 0.02 -0.023 0.047 -0.051 0.059 c -0.027 0.012 -0.051 0.039 -0.055 0.059 c -0.008 0.039 0.07 0.039 1.379 0.039 h 1.387 v -0.109 h 1.371 v -0.113 h 0.566 v -0.113 h 0.23 c 0.23 0 0.23 0 0.23 -0.055 c 0 -0.051 0.008 -0.055 0.113 -0.059 c 0.098 -0.008 0.113 -0.016 0.113 -0.055 c 0 -0.035 -0.016 -0.043 -0.113 -0.051 l -0.113 -0.008 v -0.242 h -0.449 c -0.418 0 -0.449 -0.004 -0.488 -0.047 c -0.059 -0.059 -0.246 -0.063 -0.238 -0.004 c 0.004 0.023 -0.004 0.039 -0.023 0.039 c -0.02 0 -0.031 -0.012 -0.027 -0.027 c 0.004 -0.035 0.004 -0.035 -0.09 0.004 c -0.059 0.027 -0.172 0.035 -0.473 0.035 h -0.391 v -0.113 h -2.508 v -0.156 c 0 -0.141 0.004 -0.156 0.039 -0.156 c 0.023 0 0.047 0.02 0.051 0.043 c 0.023 0.086 0.234 0.078 0.234 -0.012 c 0 -0.027 0.074 -0.031 0.469 -0.031 h 0.469 v -0.055 c 0 -0.063 -0.035 -0.082 -0.152 -0.082 c -0.07 0 -0.086 -0.008 -0.09 -0.051 c -0.008 -0.043 -0.023 -0.051 -0.121 -0.055 c -0.098 -0.008 -0.113 -0.016 -0.121 -0.059 c -0.004 -0.031 -0.023 -0.051 -0.055 -0.055 c -0.031 -0.004 -0.047 -0.023 -0.047 -0.047 c 0 -0.051 -0.043 -0.07 -0.141 -0.07 c -0.051 0 -0.074 -0.012 -0.09 -0.051 c -0.012 -0.027 -0.043 -0.055 -0.07 -0.059 c -0.035 -0.004 -0.051 -0.02 -0.051 -0.059 c 0 -0.051 0.008 -0.055 0.109 -0.055 c 0.082 0 0.109 0.008 0.109 0.031 c 0 0.051 0.074 0.078 0.219 0.078 c 0.113 0 0.129 0.008 0.129 0.043 c 0 0.051 0.043 0.07 0.156 0.07 c 0.07 0 0.086 0.008 0.086 0.043 c 0 0.051 0.039 0.07 0.145 0.07 c 0.059 0 0.074 0.008 0.074 0.043 c 0 0.051 0.039 0.07 0.152 0.07 c 0.078 0 0.086 0.004 0.086 0.051 c 0 0.063 0.035 0.082 0.145 0.082 c 0.051 0 0.074 0.012 0.074 0.035 c 0 0.047 0.09 0.078 0.23 0.078 c 0.109 0 0.117 0.004 0.117 0.055 v 0.055 h 0.918 v 0.113 h 0.805 v 0.113 h 0.918 v 0.113 h 0.289 c 0.277 0 0.293 0 0.305 0.043 c 0.008 0.027 0.031 0.055 0.059 0.059 c 0.035 0.012 0.043 0.031 0.043 0.125 v 0.109 h -0.086 c -0.113 0 -0.152 0.016 -0.152 0.066 c 0 0.035 -0.016 0.043 -0.074 0.043 c -0.105 0 -0.145 0.02 -0.145 0.07 c 0 0.035 -0.016 0.043 -0.086 0.043 c -0.113 0 -0.152 0.02 -0.152 0.07 c 0 0.031 -0.02 0.043 -0.074 0.043 c -0.105 0 -0.145 0.02 -0.145 0.07 c 0 0.039 -0.027 0.039 -0.688 0.039 h -0.688 v 0.113 h -1.852 v 0.113 h -1.594 v 0.113 h -0.695 v 0.109 h -0.227 c -0.211 0 -0.23 -0.004 -0.238 -0.047"/><path d="m 6.633 10.02 c -0.008 -0.023 -0.035 -0.051 -0.059 -0.059 c -0.027 -0.004 -0.047 -0.027 -0.047 -0.055 c 0 -0.031 0.02 -0.039 0.078 -0.039 c 0.102 0 0.164 -0.035 0.164 -0.094 c 0 -0.035 0.016 -0.043 0.074 -0.043 c 0.102 0 0.145 -0.02 0.145 -0.07 c 0 -0.035 0.016 -0.039 0.117 -0.039 h 0.121 v -0.227 h -1.316 c -1.301 0 -1.32 0 -1.332 -0.043 c -0.008 -0.027 -0.039 -0.051 -0.066 -0.059 c -0.039 -0.012 -0.055 -0.031 -0.055 -0.07 v -0.051 h 3.555 v 0.051 c 0 0.035 -0.016 0.059 -0.047 0.066 c -0.023 0.008 -0.051 0.035 -0.055 0.059 c -0.012 0.039 -0.031 0.047 -0.094 0.047 c -0.109 0 -0.152 0.02 -0.152 0.066 c 0 0.02 -0.023 0.047 -0.051 0.059 c -0.027 0.012 -0.047 0.035 -0.047 0.055 c 0 0.031 0.168 0.035 1.379 0.039 l 1.375 0.008 v -0.113 h 1.375 v -0.113 h 0.566 v -0.113 h 0.457 v -0.055 c 0 -0.051 0.012 -0.055 0.086 -0.055 c 0.105 0 0.156 -0.02 0.156 -0.059 c 0 -0.035 -0.051 -0.055 -0.156 -0.055 h -0.086 v -0.246 h -0.449 c -0.395 0 -0.453 -0.004 -0.477 -0.039 c -0.031 -0.043 -0.238 -0.059 -0.238 -0.016 c 0 0.047 -0.031 0.063 -0.066 0.031 c -0.023 -0.02 -0.047 -0.02 -0.102 -0.004 c -0.039 0.016 -0.23 0.027 -0.457 0.027 h -0.391 v -0.113 h -2.508 v -0.156 c 0 -0.141 0.008 -0.156 0.043 -0.156 c 0.023 0 0.047 0.02 0.051 0.039 c 0.02 0.082 0.234 0.074 0.234 -0.008 c 0 -0.027 0.063 -0.031 0.469 -0.031 c 0.453 0 0.469 -0.004 0.469 -0.047 c 0 -0.055 -0.063 -0.09 -0.16 -0.09 c -0.063 0 -0.078 -0.008 -0.078 -0.043 c 0 -0.051 -0.043 -0.066 -0.152 -0.066 c -0.07 0 -0.086 -0.012 -0.094 -0.051 c -0.004 -0.035 -0.023 -0.055 -0.055 -0.059 c -0.031 -0.004 -0.051 -0.023 -0.051 -0.047 c 0 -0.051 -0.039 -0.07 -0.141 -0.07 c -0.055 0 -0.078 -0.012 -0.086 -0.043 c -0.008 -0.027 -0.039 -0.051 -0.066 -0.059 c -0.039 -0.012 -0.055 -0.031 -0.055 -0.07 c 0 -0.047 0.008 -0.051 0.109 -0.051 c 0.082 0 0.109 0.008 0.109 0.031 c 0 0.051 0.09 0.078 0.23 0.078 c 0.09 0 0.117 0.008 0.117 0.035 c 0 0.043 0.07 0.078 0.164 0.078 c 0.063 0 0.078 0.008 0.078 0.043 c 0 0.051 0.039 0.07 0.141 0.07 c 0.051 0 0.074 0.012 0.074 0.031 c 0 0.047 0.07 0.082 0.164 0.082 c 0.059 0 0.078 0.008 0.078 0.039 c 0 0.063 0.043 0.094 0.133 0.094 c 0.059 0 0.082 0.012 0.09 0.043 c 0.012 0.043 0.098 0.07 0.25 0.07 c 0.086 0 0.094 0.004 0.094 0.055 v 0.055 h 0.914 v 0.113 h 0.809 v 0.113 h 0.914 v 0.113 h 0.293 c 0.277 0 0.293 0 0.305 0.043 c 0.004 0.027 0.031 0.055 0.055 0.059 c 0.039 0.012 0.047 0.031 0.047 0.125 v 0.109 h -0.086 c -0.113 0 -0.152 0.016 -0.152 0.066 c 0 0.035 -0.02 0.043 -0.078 0.043 c -0.102 0 -0.141 0.02 -0.141 0.07 c 0 0.035 -0.016 0.043 -0.086 0.043 c -0.113 0 -0.156 0.02 -0.156 0.07 c 0 0.031 -0.016 0.043 -0.074 0.043 c -0.102 0 -0.141 0.02 -0.141 0.07 c 0 0.039 -0.027 0.039 -0.688 0.039 h -0.688 v 0.113 h -1.855 v 0.113 h -1.59 v 0.113 h -0.699 v 0.109 h -0.227 c -0.211 0 -0.227 -0.004 -0.238 -0.047"/><path d="m 6.633 10.02 c -0.008 -0.023 -0.035 -0.051 -0.059 -0.059 c -0.027 -0.004 -0.047 -0.027 -0.047 -0.055 c 0 -0.031 0.016 -0.039 0.066 -0.039 c 0.102 0 0.176 -0.039 0.176 -0.09 c 0 -0.035 0.012 -0.047 0.066 -0.047 c 0.082 0 0.152 -0.035 0.152 -0.078 c 0 -0.023 0.027 -0.035 0.117 -0.035 h 0.121 v -0.223 h -1.316 c -1.301 0 -1.32 0 -1.332 -0.043 c -0.008 -0.027 -0.039 -0.051 -0.066 -0.059 c -0.039 -0.012 -0.055 -0.031 -0.055 -0.07 v -0.051 h 3.555 v 0.051 c 0 0.035 -0.016 0.059 -0.047 0.066 c -0.023 0.008 -0.051 0.035 -0.055 0.059 c -0.012 0.035 -0.031 0.047 -0.086 0.047 c -0.094 0 -0.16 0.035 -0.16 0.078 c 0 0.02 -0.016 0.035 -0.031 0.035 c -0.02 0 -0.043 0.02 -0.055 0.039 c -0.02 0.039 -0.012 0.047 0.09 0.059 c 0.063 0.008 0.687 0.012 1.387 0.012 h 1.27 v -0.109 h 1.371 v -0.113 h 0.566 v -0.113 h 0.461 v -0.055 c 0 -0.051 0.008 -0.055 0.082 -0.055 c 0.105 0 0.156 -0.02 0.156 -0.059 c 0 -0.035 -0.051 -0.055 -0.156 -0.055 h -0.082 v -0.246 h -0.449 c -0.363 0 -0.457 -0.008 -0.48 -0.035 c -0.02 -0.016 -0.066 -0.039 -0.109 -0.047 c -0.066 -0.012 -0.086 -0.008 -0.117 0.027 c -0.031 0.043 -0.07 0.047 -0.531 0.051 l -0.496 0.008 v -0.117 h -2.504 v -0.156 c 0 -0.141 0.004 -0.156 0.039 -0.156 c 0.023 0 0.051 0.02 0.059 0.043 c 0.012 0.035 0.031 0.047 0.109 0.047 c 0.082 0 0.102 -0.008 0.113 -0.047 c 0.008 -0.043 0.027 -0.043 0.477 -0.043 c 0.449 0 0.465 -0.004 0.465 -0.047 c 0 -0.055 -0.063 -0.09 -0.16 -0.09 c -0.063 0 -0.078 -0.008 -0.078 -0.043 c 0 -0.051 -0.043 -0.066 -0.152 -0.066 c -0.066 0 -0.086 -0.012 -0.094 -0.047 c -0.008 -0.027 -0.031 -0.055 -0.059 -0.059 c -0.023 -0.008 -0.043 -0.027 -0.043 -0.043 c 0 -0.043 -0.07 -0.078 -0.152 -0.078 c -0.047 0 -0.07 -0.012 -0.078 -0.043 c -0.008 -0.027 -0.039 -0.051 -0.066 -0.059 c -0.039 -0.012 -0.055 -0.031 -0.055 -0.07 c 0 -0.047 0.012 -0.051 0.109 -0.051 c 0.082 0 0.105 0.008 0.117 0.039 c 0.012 0.047 0.098 0.07 0.246 0.07 c 0.07 0 0.094 0.012 0.094 0.035 c 0 0.043 0.07 0.078 0.164 0.078 c 0.055 0 0.078 0.012 0.078 0.035 c 0 0.043 0.066 0.078 0.152 0.078 c 0.043 0 0.066 0.012 0.066 0.031 c 0 0.047 0.066 0.082 0.16 0.082 c 0.063 0 0.078 0.008 0.078 0.043 c 0 0.051 0.063 0.09 0.148 0.09 c 0.043 0 0.066 0.012 0.074 0.043 c 0.012 0.043 0.098 0.07 0.25 0.07 c 0.086 0 0.094 0.004 0.094 0.055 v 0.055 h 0.918 v 0.113 h 0.805 v 0.113 h 0.914 v 0.113 h 0.293 c 0.277 0 0.293 0 0.305 0.043 c 0.008 0.027 0.031 0.055 0.059 0.059 c 0.035 0.012 0.043 0.031 0.043 0.121 v 0.109 l -0.102 0.008 c -0.082 0.004 -0.109 0.016 -0.125 0.055 c -0.016 0.039 -0.043 0.051 -0.109 0.059 c -0.066 0.004 -0.094 0.016 -0.109 0.055 c -0.016 0.039 -0.043 0.051 -0.121 0.055 c -0.078 0.008 -0.102 0.02 -0.121 0.059 c -0.016 0.035 -0.043 0.051 -0.105 0.055 c -0.07 0.004 -0.094 0.02 -0.109 0.059 l -0.023 0.047 h -1.363 v 0.113 h -1.852 v 0.113 h -1.594 v 0.113 h -0.695 v 0.109 h -0.227 c -0.211 0 -0.23 -0.004 -0.238 -0.047"/><path d="m 6.637 10.04 c -0.008 -0.047 -0.039 -0.078 -0.078 -0.078 c -0.027 0 -0.031 -0.004 -0.031 -0.059 v -0.059 h 0.098 c 0.109 0 0.129 -0.012 0.129 -0.066 c 0 -0.031 0.008 -0.035 0.043 -0.043 c 0.023 -0.004 0.066 -0.008 0.094 -0.012 c 0.066 -0.012 0.09 -0.031 0.09 -0.063 c 0 -0.039 0.023 -0.047 0.145 -0.047 h 0.094 v -0.219 h -2.645 v -0.031 c 0 -0.035 -0.051 -0.086 -0.086 -0.086 c -0.016 0 -0.023 -0.016 -0.031 -0.047 c -0.004 -0.027 -0.004 -0.051 0 -0.059 c 0.012 -0.016 3.547 -0.012 3.555 0.004 c 0.008 0.008 0.008 0.031 0.004 0.055 c -0.008 0.031 -0.02 0.047 -0.051 0.059 c -0.035 0.012 -0.047 0.027 -0.059 0.059 c -0.016 0.047 -0.016 0.047 -0.094 0.047 c -0.09 0 -0.137 0.02 -0.141 0.063 c -0.004 0.023 -0.02 0.039 -0.043 0.051 c -0.043 0.023 -0.07 0.059 -0.055 0.074 c 0.02 0.02 0.398 0.027 1.551 0.031 h 1.184 l 0.008 -0.109 l 0.688 -0.004 l 0.684 -0.004 v -0.102 h 0.578 v -0.117 l 0.219 -0.004 l 0.223 -0.004 l 0.008 -0.109 h 0.094 c 0.105 0 0.145 -0.012 0.145 -0.051 c 0 -0.035 -0.023 -0.043 -0.133 -0.051 l -0.098 -0.008 l -0.004 -0.113 l -0.004 -0.109 h -0.457 c -0.445 0 -0.457 -0.004 -0.457 -0.027 c 0 -0.031 -0.047 -0.059 -0.121 -0.07 c -0.066 -0.012 -0.102 0 -0.117 0.039 c -0.008 0.023 -0.02 0.027 -0.113 0.027 c -0.063 0.004 -0.105 0.008 -0.109 0.016 c -0.004 0.008 -0.137 0.016 -0.406 0.016 h -0.398 v -0.117 h -2.516 v -0.336 h 0.047 c 0.039 0 0.051 0.004 0.051 0.02 c 0 0.012 0.016 0.035 0.031 0.051 c 0.059 0.063 0.207 0.035 0.207 -0.039 v -0.031 h 0.918 l -0.004 -0.055 c -0.008 -0.063 -0.02 -0.07 -0.145 -0.07 l -0.078 -0.004 v -0.043 c 0 -0.055 -0.016 -0.059 -0.133 -0.059 c -0.094 0 -0.094 0 -0.094 -0.031 c 0 -0.043 -0.043 -0.086 -0.082 -0.086 c -0.023 0 -0.031 -0.008 -0.031 -0.027 c 0 -0.063 -0.047 -0.09 -0.164 -0.09 c -0.074 0 -0.074 0 -0.074 -0.035 c 0 -0.031 -0.008 -0.043 -0.035 -0.059 c -0.023 -0.012 -0.047 -0.02 -0.059 -0.02 c -0.012 0 -0.02 -0.016 -0.02 -0.051 c 0 -0.055 0.016 -0.066 0.102 -0.066 c 0.082 0 0.125 0.016 0.125 0.039 c 0 0.043 0.055 0.066 0.164 0.074 c 0.16 0.008 0.188 0.012 0.188 0.039 c 0 0.043 0.043 0.066 0.133 0.074 c 0.086 0.008 0.09 0.012 0.102 0.047 c 0.016 0.043 0.039 0.059 0.133 0.066 c 0.07 0.008 0.078 0.016 0.09 0.047 c 0.016 0.043 0.059 0.066 0.129 0.066 c 0.066 0 0.102 0.012 0.102 0.035 c 0 0.016 0.012 0.039 0.027 0.059 c 0.023 0.031 0.031 0.035 0.113 0.035 c 0.082 0 0.086 0 0.086 0.031 c 0 0.055 0.051 0.074 0.199 0.082 c 0.148 0.004 0.148 0.004 0.148 0.086 v 0.031 h 0.914 v 0.102 h 0.805 v 0.117 h 0.914 v 0.117 h 0.574 l 0.023 0.051 c 0.016 0.027 0.039 0.055 0.055 0.059 c 0.043 0.012 0.047 0.027 0.047 0.129 v 0.094 l -0.082 0.008 c -0.109 0.008 -0.148 0.027 -0.152 0.074 c -0.004 0.031 -0.008 0.035 -0.059 0.035 c -0.094 0 -0.145 0.023 -0.164 0.07 c -0.016 0.043 -0.02 0.047 -0.086 0.047 c -0.09 0 -0.133 0.016 -0.148 0.063 c -0.016 0.039 -0.047 0.055 -0.129 0.055 c -0.047 0 -0.094 0.035 -0.094 0.074 c 0 0.027 -0.012 0.027 -0.684 0.031 l -0.688 0.004 l -0.008 0.109 h -1.852 v 0.113 h -1.59 l -0.008 0.109 l -0.695 0.008 v 0.117 h -0.445"/><path d="m 6.637 10.05 c -0.012 -0.051 -0.043 -0.082 -0.078 -0.082 c -0.027 0 -0.031 -0.008 -0.031 -0.059 v -0.059 h 0.09 c 0.109 0 0.137 -0.012 0.137 -0.063 c 0 -0.039 0 -0.039 0.125 -0.059 c 0.078 -0.012 0.102 -0.027 0.102 -0.063 c 0 -0.039 0.023 -0.047 0.145 -0.047 h 0.094 v -0.219 h -2.645 v -0.031 c 0 -0.035 -0.031 -0.066 -0.078 -0.078 c -0.023 -0.008 -0.035 -0.02 -0.039 -0.055 c -0.004 -0.023 -0.004 -0.051 0 -0.055 c 0.012 -0.02 3.543 -0.02 3.555 0 c 0.004 0.008 0.008 0.031 0 0.055 c -0.004 0.031 -0.016 0.047 -0.047 0.059 c -0.023 0.012 -0.047 0.039 -0.059 0.063 c -0.016 0.039 -0.02 0.043 -0.086 0.043 c -0.09 0 -0.152 0.027 -0.152 0.066 c 0 0.02 -0.012 0.035 -0.039 0.051 c -0.043 0.02 -0.07 0.055 -0.059 0.07 c 0.02 0.02 0.445 0.027 1.57 0.031 h 1.168 l 0.008 -0.109 l 0.684 -0.004 l 0.688 -0.004 v -0.102 h 0.574 v -0.117 l 0.223 -0.004 h 0.223 l 0.004 -0.059 l 0.004 -0.055 h 0.094 c 0.105 0 0.145 -0.012 0.145 -0.051 c 0 -0.035 -0.02 -0.043 -0.133 -0.051 l -0.102 -0.008 v -0.109 l -0.004 -0.113 h -0.457 c -0.43 0 -0.457 -0.004 -0.457 -0.023 c 0 -0.027 -0.031 -0.047 -0.102 -0.066 c -0.066 -0.02 -0.117 -0.008 -0.133 0.031 c -0.016 0.027 -0.023 0.031 -0.105 0.031 c -0.047 0 -0.098 0.004 -0.109 0.012 c -0.016 0.008 -0.176 0.016 -0.422 0.016 h -0.395 v -0.117 h -2.516 v -0.336 h 0.047 c 0.039 0 0.047 0.008 0.059 0.039 c 0.02 0.047 0.066 0.07 0.141 0.063 c 0.063 -0.008 0.09 -0.027 0.09 -0.07 v -0.031 h 0.914 v -0.051 c 0 -0.047 -0.004 -0.051 -0.047 -0.063 c -0.023 -0.008 -0.074 -0.016 -0.113 -0.016 h -0.066 v -0.043 c 0 -0.055 -0.012 -0.059 -0.129 -0.059 h -0.094 l -0.008 -0.047 c -0.008 -0.047 -0.035 -0.07 -0.078 -0.07 c -0.02 0 -0.027 -0.008 -0.027 -0.031 c 0 -0.051 -0.043 -0.078 -0.145 -0.082 l -0.094 -0.004 l -0.004 -0.043 c 0 -0.031 -0.012 -0.043 -0.055 -0.059 c -0.051 -0.016 -0.055 -0.02 -0.055 -0.066 c 0 -0.051 0.016 -0.063 0.102 -0.063 c 0.082 0 0.121 0.016 0.129 0.043 c 0.004 0.039 0.059 0.063 0.168 0.07 c 0.156 0.008 0.18 0.016 0.18 0.043 c 0 0.035 0.051 0.063 0.141 0.07 c 0.078 0.008 0.082 0.012 0.094 0.047 c 0.016 0.043 0.047 0.059 0.141 0.066 c 0.063 0.008 0.07 0.012 0.082 0.047 c 0.016 0.043 0.059 0.066 0.137 0.066 c 0.07 0 0.094 0.008 0.094 0.039 c 0 0.012 0.012 0.039 0.031 0.055 c 0.027 0.027 0.043 0.035 0.113 0.035 c 0.078 0 0.082 0 0.082 0.031 c 0 0.055 0.047 0.074 0.195 0.082 c 0.078 0 0.141 0.012 0.145 0.02 c 0.004 0.008 0.008 0.031 0.008 0.055 v 0.043 h 0.914 v 0.102 h 0.805 v 0.117 h 0.914 v 0.117 h 0.574 l 0.023 0.043 c 0.008 0.027 0.027 0.051 0.043 0.055 c 0.047 0.016 0.059 0.043 0.059 0.137 v 0.098 l -0.047 0.008 c -0.023 0.004 -0.066 0.008 -0.094 0.008 c -0.051 0 -0.098 0.035 -0.098 0.078 c 0 0.02 -0.008 0.023 -0.051 0.023 c -0.094 0 -0.141 0.02 -0.164 0.07 c -0.02 0.043 -0.023 0.047 -0.09 0.047 c -0.09 0 -0.133 0.016 -0.148 0.063 c -0.016 0.039 -0.047 0.051 -0.129 0.051 c -0.047 0 -0.094 0.039 -0.094 0.078 c 0 0.027 -0.012 0.027 -0.684 0.031 l -0.688 0.004 l -0.008 0.109 h -1.852 v 0.113 h -1.59 v 0.117 h -0.703 v 0.117 h -0.445 l -0.012 -0.035"/><path d="m 6.637 10.05 c -0.012 -0.051 -0.043 -0.082 -0.078 -0.082 c -0.027 0 -0.031 -0.008 -0.031 -0.059 v -0.059 h 0.09 c 0.109 0 0.137 -0.012 0.137 -0.063 c 0 -0.039 0 -0.039 0.125 -0.059 c 0.07 -0.012 0.102 -0.031 0.102 -0.066 c 0 -0.035 0.027 -0.043 0.145 -0.043 h 0.094 v -0.219 h -2.641 l -0.008 -0.039 c -0.004 -0.031 -0.02 -0.047 -0.055 -0.063 c -0.039 -0.016 -0.051 -0.031 -0.059 -0.063 c -0.004 -0.023 -0.004 -0.051 0 -0.055 c 0.012 -0.02 3.547 -0.02 3.559 0 c 0.004 0.008 0.004 0.031 0 0.055 c -0.008 0.031 -0.02 0.047 -0.047 0.055 c -0.023 0.012 -0.043 0.035 -0.059 0.063 c -0.02 0.043 -0.023 0.047 -0.086 0.047 c -0.09 0 -0.141 0.02 -0.152 0.063 c -0.004 0.02 -0.02 0.039 -0.043 0.055 c -0.043 0.02 -0.07 0.055 -0.055 0.07 c 0.016 0.02 0.512 0.027 1.605 0.031 h 1.129 l 0.008 -0.109 l 0.688 -0.004 l 0.684 -0.004 v -0.102 h 0.578 v -0.117 l 0.223 -0.004 l 0.219 -0.004 l 0.008 -0.109 h 0.086 c 0.105 0 0.152 -0.016 0.152 -0.051 c 0 -0.035 -0.047 -0.051 -0.152 -0.051 h -0.086 v -0.23 h -0.457 c -0.438 0 -0.453 -0.004 -0.461 -0.027 c -0.008 -0.031 -0.074 -0.066 -0.141 -0.07 c -0.051 0 -0.063 0.004 -0.086 0.035 c -0.035 0.043 -0.078 0.047 -0.617 0.055 l -0.418 0.008 v -0.117 h -2.516 v -0.336 h 0.047 c 0.039 0 0.051 0.004 0.063 0.039 c 0.016 0.047 0.066 0.07 0.137 0.063 c 0.063 -0.008 0.09 -0.027 0.09 -0.07 v -0.031 h 0.914 v -0.043 c 0 -0.023 -0.008 -0.051 -0.016 -0.059 c -0.012 -0.008 -0.063 -0.02 -0.113 -0.023 c -0.094 -0.008 -0.094 -0.008 -0.094 -0.043 c 0 -0.051 -0.023 -0.063 -0.129 -0.063 c -0.094 0 -0.094 0 -0.102 -0.039 c -0.008 -0.047 -0.039 -0.078 -0.078 -0.078 c -0.023 0 -0.031 -0.008 -0.031 -0.031 c 0 -0.051 -0.039 -0.074 -0.145 -0.082 c -0.086 -0.004 -0.094 -0.008 -0.094 -0.035 c 0 -0.035 -0.031 -0.066 -0.078 -0.078 c -0.027 -0.008 -0.035 -0.016 -0.035 -0.055 c 0 -0.055 0.016 -0.066 0.102 -0.066 c 0.082 0 0.121 0.016 0.129 0.043 c 0.012 0.043 0.059 0.059 0.168 0.066 c 0.156 0.012 0.18 0.02 0.18 0.047 c 0 0.035 0.051 0.063 0.141 0.07 c 0.078 0.008 0.082 0.012 0.094 0.047 c 0.016 0.043 0.043 0.055 0.145 0.066 c 0.059 0.008 0.07 0.016 0.078 0.043 c 0.008 0.039 0.07 0.066 0.145 0.07 c 0.066 0 0.082 0.008 0.094 0.055 c 0.012 0.051 0.051 0.074 0.137 0.074 c 0.078 0 0.078 0 0.082 0.035 c 0.008 0.051 0.059 0.07 0.207 0.078 c 0.074 0 0.129 0.012 0.133 0.02 c 0.004 0.008 0.012 0.031 0.012 0.055 v 0.043 h 0.914 v 0.102 h 0.801 v 0.117 h 0.914 v 0.117 h 0.293 c 0.262 0 0.293 0 0.293 0.02 c 0 0.02 0.039 0.059 0.094 0.105 c 0.016 0.012 0.02 0.039 0.02 0.109 v 0.098 l -0.039 0.008 c -0.02 0.004 -0.059 0.008 -0.078 0.008 c -0.07 0 -0.105 0.02 -0.113 0.063 c -0.008 0.035 -0.012 0.035 -0.09 0.043 c -0.09 0.008 -0.109 0.02 -0.137 0.074 c -0.016 0.035 -0.023 0.039 -0.082 0.039 c -0.098 0.004 -0.129 0.016 -0.148 0.059 c -0.02 0.043 -0.043 0.055 -0.109 0.055 c -0.066 0 -0.102 0.023 -0.113 0.066 l -0.008 0.039 h -0.422 c -0.23 0 -0.539 0.004 -0.688 0.008 l -0.262 0.008 v 0.102 h -1.855 v 0.113 h -1.59 v 0.117 h -0.699 v 0.117 h -0.449"/><path d="m 6.637 10.04 c -0.012 -0.043 -0.051 -0.078 -0.086 -0.078 c -0.02 0 -0.023 -0.012 -0.023 -0.059 v -0.059 h 0.086 c 0.098 0 0.141 -0.02 0.141 -0.07 c 0 -0.031 0.004 -0.031 0.117 -0.051 c 0.066 -0.012 0.109 -0.039 0.109 -0.07 c 0 -0.031 0.031 -0.039 0.145 -0.039 h 0.094 v -0.219 h -2.641 l -0.008 -0.039 c -0.004 -0.031 -0.02 -0.047 -0.055 -0.063 c -0.043 -0.016 -0.055 -0.031 -0.059 -0.063 c -0.004 -0.023 -0.004 -0.051 0 -0.055 c 0.012 -0.02 3.547 -0.02 3.555 0 c 0.008 0.008 0.008 0.031 0.004 0.055 c -0.008 0.031 -0.02 0.047 -0.047 0.059 c -0.023 0.012 -0.047 0.035 -0.059 0.059 c -0.02 0.043 -0.023 0.043 -0.105 0.047 c -0.086 0.008 -0.137 0.031 -0.137 0.074 c 0 0.012 -0.02 0.035 -0.047 0.047 c -0.063 0.035 -0.066 0.066 -0.008 0.078 c 0.027 0.004 0.645 0.012 1.371 0.016 l 1.324 0.008 l 0.004 -0.059 l 0.004 -0.055 l 0.688 -0.004 l 0.684 -0.004 v -0.102 h 0.578 v -0.117 l 0.445 -0.008 l 0.008 -0.109 h 0.086 c 0.102 0 0.148 -0.016 0.148 -0.051 c 0 -0.035 -0.047 -0.051 -0.152 -0.051 h -0.086 v -0.23 h -0.453 c -0.449 0 -0.457 0 -0.465 -0.027 c -0.008 -0.035 -0.078 -0.063 -0.152 -0.063 c -0.043 0 -0.059 0.004 -0.074 0.027 c -0.016 0.027 -0.035 0.031 -0.152 0.047 c -0.074 0.008 -0.305 0.016 -0.508 0.016 h -0.375 v -0.117 h -2.516 v -0.336 h 0.047 c 0.039 0 0.051 0.008 0.063 0.039 c 0.035 0.082 0.207 0.082 0.223 0 l 0.008 -0.039 h 0.91 v -0.043 c 0 -0.023 -0.008 -0.051 -0.016 -0.059 c -0.008 -0.008 -0.059 -0.016 -0.113 -0.023 c -0.094 -0.008 -0.094 -0.008 -0.094 -0.043 c 0 -0.051 -0.031 -0.063 -0.137 -0.063 c -0.078 0 -0.09 -0.004 -0.09 -0.023 c 0 -0.039 -0.047 -0.094 -0.078 -0.094 c -0.023 0 -0.031 -0.012 -0.043 -0.043 c -0.012 -0.047 -0.063 -0.07 -0.164 -0.07 c -0.059 -0.004 -0.063 -0.004 -0.066 -0.039 c -0.004 -0.027 -0.016 -0.039 -0.059 -0.059 c -0.047 -0.023 -0.051 -0.031 -0.051 -0.074 c -0.004 -0.051 0.016 -0.063 0.109 -0.063 c 0.082 0 0.109 0.012 0.117 0.047 c 0.012 0.035 0.063 0.055 0.176 0.063 c 0.152 0.012 0.168 0.02 0.172 0.051 c 0.008 0.035 0.055 0.059 0.148 0.066 c 0.066 0.008 0.078 0.012 0.09 0.047 c 0.016 0.039 0.051 0.059 0.145 0.07 c 0.055 0.004 0.066 0.012 0.074 0.039 c 0.008 0.039 0.07 0.07 0.145 0.07 c 0.066 0 0.078 0.008 0.094 0.055 c 0.016 0.051 0.059 0.07 0.145 0.07 c 0.066 0.004 0.07 0.004 0.078 0.039 c 0.008 0.051 0.055 0.066 0.203 0.074 c 0.07 0.004 0.129 0.016 0.133 0.023 c 0.004 0.008 0.012 0.031 0.012 0.055 v 0.043 h 0.914 v 0.102 h 0.801 v 0.117 h 0.914 v 0.117 h 0.293 c 0.262 0 0.297 0 0.297 0.02 c 0 0.02 0.035 0.059 0.09 0.105 c 0.016 0.012 0.02 0.039 0.02 0.109 c 0 0.109 -0.004 0.113 -0.109 0.113 c -0.07 0 -0.113 0.023 -0.121 0.063 c -0.008 0.035 -0.016 0.035 -0.09 0.043 c -0.09 0.008 -0.109 0.02 -0.137 0.078 c -0.016 0.031 -0.023 0.035 -0.078 0.035 c -0.086 0 -0.137 0.02 -0.156 0.063 c -0.016 0.043 -0.039 0.051 -0.109 0.051 c -0.055 0.004 -0.113 0.043 -0.113 0.082 c 0 0.023 -0.012 0.023 -0.348 0.023 c -0.191 0 -0.5 0.004 -0.688 0.008 l -0.34 0.008 v 0.102 h -1.855 v 0.113 h -1.59 v 0.117 h -0.699 v 0.117 h -0.449"/><path d="m 6.625 10.03 c -0.016 -0.039 -0.027 -0.051 -0.059 -0.059 c -0.035 -0.008 -0.039 -0.012 -0.039 -0.063 v -0.059 h 0.086 c 0.098 0 0.141 -0.02 0.141 -0.07 c 0 -0.031 0.004 -0.031 0.121 -0.051 c 0.063 -0.012 0.105 -0.039 0.105 -0.07 c 0 -0.031 0.023 -0.039 0.137 -0.039 h 0.102 v -0.219 h -2.641 l -0.008 -0.039 c -0.004 -0.031 -0.02 -0.047 -0.059 -0.063 c -0.039 -0.016 -0.051 -0.031 -0.055 -0.063 c -0.004 -0.023 -0.004 -0.047 0 -0.055 c 0.012 -0.02 3.547 -0.02 3.559 0 c 0.004 0.008 0.004 0.031 0 0.055 c -0.008 0.031 -0.02 0.047 -0.047 0.059 c -0.02 0.012 -0.047 0.035 -0.059 0.059 c -0.02 0.043 -0.023 0.043 -0.105 0.051 c -0.09 0.004 -0.137 0.031 -0.137 0.074 c 0 0.012 -0.016 0.027 -0.039 0.039 c -0.043 0.02 -0.066 0.055 -0.043 0.07 c 0.023 0.016 0.805 0.027 1.824 0.031 h 0.898 l 0.008 -0.109 l 0.688 -0.004 l 0.684 -0.004 v -0.102 h 0.578 v -0.117 l 0.223 -0.004 h 0.219 l 0.008 -0.109 h 0.094 c 0.09 0 0.145 -0.023 0.145 -0.059 c 0 -0.027 -0.07 -0.047 -0.16 -0.047 h -0.078 v -0.23 h -0.457 c -0.43 0 -0.457 -0.004 -0.461 -0.023 c -0.012 -0.035 -0.086 -0.066 -0.152 -0.066 c -0.043 0 -0.059 0.004 -0.078 0.031 c -0.02 0.027 -0.039 0.031 -0.152 0.043 c -0.07 0.008 -0.297 0.016 -0.504 0.016 h -0.375 v -0.117 h -2.516 v -0.336 h 0.047 c 0.039 0 0.051 0.008 0.063 0.039 c 0.035 0.082 0.207 0.082 0.223 0 l 0.008 -0.039 h 0.914 v -0.043 c 0 -0.059 -0.027 -0.07 -0.141 -0.082 c -0.086 -0.008 -0.086 -0.008 -0.086 -0.043 c 0 -0.047 -0.031 -0.063 -0.137 -0.063 c -0.078 0 -0.09 -0.004 -0.09 -0.023 c 0 -0.035 -0.047 -0.094 -0.078 -0.094 c -0.023 0 -0.031 -0.012 -0.039 -0.039 c -0.016 -0.051 -0.066 -0.074 -0.168 -0.074 c -0.059 0 -0.063 -0.004 -0.066 -0.035 c -0.004 -0.027 -0.016 -0.043 -0.059 -0.063 c -0.047 -0.023 -0.051 -0.031 -0.051 -0.074 c -0.004 -0.051 0.016 -0.063 0.109 -0.063 c 0.074 0 0.113 0.012 0.113 0.031 c 0 0.039 0.051 0.063 0.16 0.074 c 0.188 0.023 0.188 0.023 0.195 0.055 c 0.008 0.039 0.051 0.055 0.145 0.066 c 0.066 0.008 0.078 0.012 0.09 0.047 c 0.016 0.039 0.055 0.059 0.145 0.07 c 0.055 0.004 0.066 0.012 0.074 0.035 c 0.008 0.039 0.074 0.074 0.145 0.074 c 0.066 0 0.078 0.004 0.098 0.059 c 0.02 0.051 0.059 0.07 0.145 0.07 c 0.063 0 0.066 0 0.074 0.035 c 0.008 0.051 0.055 0.066 0.203 0.074 c 0.07 0.004 0.129 0.016 0.133 0.023 c 0.008 0.008 0.012 0.031 0.012 0.055 v 0.043 h 0.914 v 0.102 h 0.801 v 0.117 h 0.914 v 0.117 h 0.293 c 0.238 0 0.297 0.004 0.297 0.016 c 0 0.02 0.035 0.063 0.082 0.102 c 0.023 0.02 0.027 0.035 0.027 0.117 c 0 0.109 0 0.113 -0.105 0.113 c -0.07 0 -0.129 0.035 -0.129 0.078 c 0 0.02 -0.012 0.023 -0.047 0.023 c -0.086 0 -0.141 0.023 -0.168 0.074 c -0.023 0.039 -0.031 0.043 -0.086 0.043 c -0.086 0 -0.133 0.02 -0.152 0.063 c -0.016 0.039 -0.043 0.051 -0.113 0.055 c -0.055 0 -0.113 0.039 -0.113 0.078 c 0 0.023 -0.012 0.023 -0.266 0.023 c -0.145 0 -0.457 0.004 -0.688 0.008 l -0.422 0.008 v 0.102 h -1.855 v 0.113 h -1.59 v 0.117 h -0.699 v 0.117 h -0.445"/><path d="m 6.625 10.03 c -0.016 -0.039 -0.027 -0.051 -0.059 -0.059 c -0.035 -0.008 -0.039 -0.012 -0.039 -0.063 v -0.059 h 0.078 c 0.098 0 0.141 -0.02 0.145 -0.066 c 0.008 -0.035 0.008 -0.039 0.125 -0.055 c 0.063 -0.012 0.105 -0.039 0.105 -0.07 c 0 -0.031 0.023 -0.039 0.137 -0.039 h 0.102 v -0.219 h -2.641 l -0.008 -0.039 c -0.008 -0.027 -0.023 -0.043 -0.059 -0.063 c -0.035 -0.016 -0.051 -0.031 -0.055 -0.063 c -0.004 -0.023 -0.004 -0.047 0 -0.055 c 0.012 -0.02 3.543 -0.02 3.555 0 c 0.02 0.031 -0.004 0.094 -0.039 0.113 c -0.02 0.008 -0.047 0.035 -0.059 0.059 c -0.023 0.039 -0.027 0.043 -0.102 0.051 c -0.086 0.004 -0.145 0.035 -0.145 0.07 c 0 0.012 -0.02 0.031 -0.043 0.047 c -0.047 0.027 -0.063 0.051 -0.039 0.066 c 0.02 0.016 0.879 0.027 1.871 0.031 h 0.852 l 0.008 -0.109 l 0.688 -0.004 l 0.684 -0.004 v -0.102 h 0.578 v -0.117 l 0.223 -0.004 l 0.219 -0.004 l 0.004 -0.051 l 0.004 -0.055 l 0.102 -0.004 c 0.074 -0.004 0.105 -0.012 0.121 -0.027 c 0.02 -0.02 0.02 -0.023 0 -0.047 c -0.016 -0.016 -0.047 -0.023 -0.121 -0.023 l -0.102 -0.008 v -0.227 h -0.453 c -0.445 0 -0.453 0 -0.473 -0.027 c -0.039 -0.066 -0.168 -0.086 -0.215 -0.031 c -0.043 0.043 -0.203 0.059 -0.664 0.059 h -0.375 v -0.117 h -2.516 v -0.336 h 0.047 c 0.039 0 0.055 0.008 0.059 0.023 c 0.016 0.047 0.055 0.074 0.121 0.074 c 0.066 0 0.109 -0.031 0.109 -0.074 c 0 -0.02 0.023 -0.023 0.457 -0.023 h 0.457 v -0.043 c 0 -0.059 -0.02 -0.07 -0.137 -0.082 c -0.086 -0.008 -0.086 -0.008 -0.086 -0.043 c 0 -0.047 -0.035 -0.063 -0.145 -0.063 c -0.074 0 -0.082 -0.004 -0.082 -0.027 c 0 -0.035 -0.055 -0.09 -0.086 -0.09 c -0.016 0 -0.027 -0.008 -0.027 -0.023 c 0 -0.047 -0.055 -0.082 -0.148 -0.09 c -0.082 -0.004 -0.086 -0.008 -0.094 -0.043 c -0.004 -0.023 -0.02 -0.039 -0.059 -0.059 c -0.043 -0.02 -0.051 -0.027 -0.051 -0.07 c 0 -0.051 0.02 -0.063 0.113 -0.063 c 0.074 0 0.113 0.012 0.113 0.031 c 0 0.043 0.117 0.086 0.242 0.086 c 0.078 0 0.105 0.012 0.113 0.043 c 0.008 0.039 0.051 0.055 0.145 0.066 c 0.055 0.008 0.078 0.016 0.082 0.031 c 0.012 0.043 0.055 0.066 0.133 0.078 c 0.043 0.008 0.082 0.02 0.086 0.027 c 0 0.008 0.016 0.027 0.031 0.043 c 0.02 0.027 0.043 0.035 0.109 0.043 c 0.047 0.004 0.086 0.012 0.09 0.016 c 0 0.004 0.012 0.023 0.02 0.043 c 0.027 0.051 0.07 0.07 0.148 0.07 c 0.055 0.004 0.066 0.004 0.066 0.027 c 0 0.055 0.098 0.09 0.258 0.09 c 0.082 0 0.094 0.008 0.094 0.078 v 0.039 h 0.914 v 0.102 h 0.801 v 0.117 h 0.914 v 0.117 h 0.293 c 0.238 0 0.297 0.004 0.297 0.016 c 0 0.012 0.023 0.043 0.055 0.07 l 0.055 0.055 v 0.098 c 0 0.105 0.008 0.102 -0.121 0.113 c -0.07 0.004 -0.117 0.035 -0.117 0.074 c 0 0.016 -0.016 0.023 -0.074 0.027 c -0.09 0.012 -0.117 0.023 -0.141 0.074 c -0.02 0.031 -0.027 0.035 -0.105 0.043 c -0.07 0.004 -0.09 0.012 -0.109 0.039 c -0.016 0.016 -0.031 0.039 -0.035 0.047 c 0 0.008 -0.039 0.02 -0.086 0.023 c -0.078 0.016 -0.125 0.043 -0.125 0.086 c 0 0.016 -0.039 0.02 -0.207 0.02 c -0.117 0 -0.426 0.004 -0.691 0.008 l -0.477 0.008 v 0.102 h -1.855 v 0.113 h -1.59 v 0.117 h -0.699 v 0.117 h -0.449"/><path d="m 6.625 10.03 c -0.016 -0.039 -0.027 -0.051 -0.059 -0.059 c -0.035 -0.008 -0.039 -0.012 -0.039 -0.063 v -0.059 h 0.074 c 0.102 0 0.141 -0.016 0.148 -0.063 c 0.004 -0.023 0.012 -0.039 0.016 -0.039 c 0.004 0 0.047 -0.008 0.094 -0.02 c 0.094 -0.02 0.121 -0.035 0.121 -0.07 c 0 -0.031 0.023 -0.039 0.137 -0.039 h 0.102 v -0.219 h -2.637 l -0.02 -0.043 c -0.012 -0.023 -0.035 -0.051 -0.059 -0.063 c -0.031 -0.012 -0.043 -0.027 -0.047 -0.059 c -0.008 -0.023 -0.008 -0.047 0 -0.055 c 0.012 -0.02 3.543 -0.02 3.555 0 c 0.02 0.031 -0.004 0.094 -0.043 0.117 c -0.02 0.012 -0.047 0.039 -0.059 0.059 c -0.02 0.035 -0.031 0.039 -0.102 0.047 c -0.086 0.004 -0.141 0.035 -0.141 0.07 c 0 0.012 -0.02 0.031 -0.043 0.047 c -0.047 0.027 -0.063 0.051 -0.039 0.066 c 0.02 0.016 0.961 0.027 1.918 0.031 h 0.805 l 0.008 -0.109 l 0.688 -0.004 l 0.684 -0.004 v -0.102 h 0.578 v -0.117 h 0.203 c 0.113 0 0.215 -0.004 0.227 -0.008 c 0.012 -0.004 0.02 -0.023 0.02 -0.055 v -0.051 l 0.102 -0.004 c 0.07 -0.004 0.105 -0.012 0.121 -0.027 c 0.02 -0.02 0.02 -0.023 0 -0.043 c -0.016 -0.016 -0.051 -0.023 -0.121 -0.027 l -0.102 -0.008 v -0.227 h -0.906 l -0.023 -0.031 c -0.023 -0.031 -0.09 -0.059 -0.145 -0.059 c -0.016 0 -0.043 0.012 -0.063 0.027 c -0.051 0.047 -0.219 0.063 -0.668 0.063 h -0.375 v -0.117 h -2.516 v -0.336 h 0.047 c 0.039 0 0.051 0.008 0.059 0.023 c 0.016 0.047 0.051 0.07 0.117 0.07 c 0.07 0 0.113 -0.027 0.113 -0.07 c 0 -0.023 0.023 -0.023 0.457 -0.023 h 0.457 v -0.035 c 0 -0.059 -0.027 -0.078 -0.129 -0.086 c -0.094 -0.012 -0.094 -0.012 -0.094 -0.047 c 0 -0.047 -0.035 -0.063 -0.145 -0.063 c -0.078 0 -0.082 0 -0.09 -0.039 c -0.008 -0.039 -0.047 -0.078 -0.082 -0.078 c -0.012 0 -0.023 -0.012 -0.027 -0.031 c -0.012 -0.047 -0.063 -0.074 -0.152 -0.082 c -0.074 -0.004 -0.078 -0.008 -0.086 -0.043 c -0.004 -0.023 -0.02 -0.039 -0.059 -0.059 c -0.047 -0.02 -0.051 -0.027 -0.051 -0.07 c 0 -0.055 0.012 -0.063 0.105 -0.063 c 0.086 0 0.117 0.012 0.125 0.039 c 0.008 0.035 0.074 0.059 0.176 0.07 c 0.141 0.012 0.172 0.02 0.172 0.039 c 0 0.031 0.051 0.063 0.133 0.074 c 0.074 0.012 0.09 0.02 0.109 0.055 c 0.027 0.039 0.055 0.051 0.145 0.063 c 0.047 0.008 0.063 0.016 0.074 0.043 c 0.016 0.039 0.082 0.07 0.148 0.07 c 0.055 0 0.066 0.004 0.09 0.055 c 0.027 0.051 0.066 0.07 0.148 0.07 c 0.055 0.004 0.063 0.004 0.066 0.031 c 0.008 0.047 0.07 0.074 0.207 0.082 c 0.07 0.004 0.129 0.016 0.133 0.023 c 0.004 0.008 0.008 0.031 0.012 0.055 v 0.043 h 0.914 v 0.102 h 0.801 v 0.117 h 0.914 v 0.117 h 0.293 c 0.273 0 0.293 0 0.301 0.023 c 0.004 0.012 0.031 0.043 0.059 0.07 c 0.047 0.047 0.047 0.047 0.047 0.141 c 0 0.109 -0.004 0.113 -0.094 0.113 c -0.074 0 -0.117 0.02 -0.133 0.063 c -0.012 0.031 -0.023 0.039 -0.086 0.043 c -0.094 0.012 -0.105 0.02 -0.137 0.066 c -0.023 0.039 -0.031 0.043 -0.109 0.051 c -0.07 0.004 -0.09 0.012 -0.113 0.039 c -0.012 0.016 -0.027 0.039 -0.031 0.047 c 0 0.008 -0.035 0.02 -0.074 0.023 c -0.082 0.012 -0.121 0.031 -0.129 0.07 l -0.008 0.031 l -0.496 0.008 c -0.273 0.004 -0.586 0.008 -0.691 0.008 h -0.188 v 0.105 h -1.855 v 0.113 h -1.59 v 0.117 h -0.703 v 0.117 h -0.445"/><path d="m 6.629 10.04 c -0.012 -0.023 -0.035 -0.051 -0.059 -0.063 c -0.035 -0.016 -0.039 -0.023 -0.043 -0.074 v -0.055 h 0.07 c 0.094 0 0.145 -0.02 0.152 -0.066 c 0.008 -0.039 0.016 -0.043 0.105 -0.055 c 0.074 -0.012 0.125 -0.043 0.125 -0.07 c 0 -0.035 0.023 -0.039 0.137 -0.039 h 0.102 v -0.219 h -2.637 l -0.02 -0.043 c -0.012 -0.023 -0.039 -0.051 -0.059 -0.059 c -0.031 -0.016 -0.043 -0.035 -0.051 -0.063 c -0.004 -0.023 -0.004 -0.047 0.004 -0.055 c 0.012 -0.02 3.543 -0.02 3.555 0 c 0.02 0.031 -0.004 0.094 -0.043 0.117 c -0.023 0.012 -0.047 0.039 -0.059 0.059 c -0.02 0.035 -0.031 0.039 -0.102 0.047 c -0.09 0.008 -0.125 0.023 -0.137 0.063 c -0.004 0.016 -0.023 0.039 -0.047 0.055 c -0.07 0.047 -0.059 0.066 0.059 0.074 c 0.059 0.004 0.672 0.012 1.363 0.02 l 1.262 0.008 l 0.004 -0.059 l 0.004 -0.055 l 0.684 -0.004 l 0.688 -0.004 v -0.102 h 0.574 v -0.117 h 0.203 c 0.113 0 0.211 -0.004 0.227 -0.012 c 0.016 -0.012 0.023 -0.027 0.023 -0.059 v -0.043 l 0.102 -0.004 c 0.07 -0.004 0.105 -0.012 0.121 -0.027 c 0.02 -0.02 0.02 -0.023 0 -0.043 c -0.016 -0.016 -0.051 -0.023 -0.121 -0.027 l -0.102 -0.008 v -0.227 h -0.457 c -0.398 0 -0.457 -0.004 -0.461 -0.023 c -0.004 -0.008 -0.035 -0.031 -0.066 -0.043 c -0.066 -0.031 -0.121 -0.027 -0.16 0.012 c -0.039 0.039 -0.23 0.055 -0.66 0.055 h -0.375 v -0.117 h -2.516 v -0.336 h 0.047 c 0.031 0 0.051 0.008 0.051 0.016 c 0 0.004 0.016 0.027 0.031 0.043 c 0.059 0.063 0.207 0.031 0.207 -0.039 c 0 -0.016 0.059 -0.02 0.457 -0.02 h 0.457 v -0.039 c 0 -0.051 -0.035 -0.074 -0.141 -0.082 c -0.078 -0.012 -0.082 -0.012 -0.082 -0.039 c 0 -0.047 -0.047 -0.07 -0.141 -0.07 h -0.082 l -0.02 -0.055 c -0.016 -0.039 -0.031 -0.051 -0.059 -0.059 c -0.023 -0.004 -0.039 -0.016 -0.043 -0.035 c -0.012 -0.047 -0.059 -0.07 -0.152 -0.082 c -0.066 -0.004 -0.082 -0.012 -0.082 -0.027 c 0 -0.027 -0.047 -0.07 -0.09 -0.086 c -0.016 -0.004 -0.023 -0.02 -0.023 -0.055 c 0 -0.059 0.012 -0.066 0.105 -0.066 c 0.09 0 0.117 0.012 0.133 0.047 c 0.012 0.031 0.063 0.051 0.184 0.063 c 0.125 0.012 0.156 0.02 0.156 0.039 c 0 0.031 0.051 0.059 0.133 0.074 c 0.074 0.012 0.09 0.02 0.102 0.043 c 0.016 0.035 0.074 0.066 0.152 0.074 c 0.047 0.008 0.063 0.016 0.078 0.047 c 0.02 0.039 0.082 0.063 0.156 0.063 c 0.039 0 0.078 0.031 0.078 0.059 c 0 0.035 0.051 0.063 0.133 0.07 c 0.07 0.004 0.078 0.008 0.086 0.035 c 0.012 0.047 0.074 0.07 0.211 0.078 c 0.063 0.004 0.121 0.016 0.125 0.023 c 0.004 0.008 0.008 0.031 0.008 0.055 v 0.043 h 0.914 v 0.102 h 0.805 v 0.117 h 0.914 v 0.117 h 0.293 c 0.273 0 0.293 0 0.301 0.023 c 0.004 0.012 0.027 0.043 0.055 0.07 c 0.051 0.047 0.051 0.047 0.051 0.141 c 0 0.105 -0.004 0.113 -0.09 0.113 c -0.07 0 -0.133 0.027 -0.141 0.066 c -0.008 0.027 -0.02 0.035 -0.086 0.043 c -0.086 0.008 -0.105 0.02 -0.141 0.074 c -0.016 0.027 -0.031 0.035 -0.066 0.035 c -0.078 0 -0.141 0.023 -0.164 0.063 c -0.012 0.027 -0.031 0.043 -0.063 0.047 c -0.105 0.016 -0.141 0.031 -0.152 0.07 l -0.016 0.035 l -0.449 0.008 c -0.25 0.004 -0.559 0.008 -0.688 0.008 h -0.234 v 0.105 h -1.855 v 0.113 h -1.59 v 0.117 h -0.703 v 0.117 h -0.445"/><path d="m 4.113 10.703 v -0.055 h -0.113 v -0.117 h -0.113 v -0.102 h 0.113 v -0.117 h 0.113 v -0.234 h 0.113 v 0.352 h 1.375 v 0.102 h -0.113 v 0.117 h -0.461 v 0.113 h -0.914"/></g><use xlink:href="#0"/><use xlink:href="#0"/><use xlink:href="#0"/><g fill="#fff"><path d="m 4.344 9.738 v -0.109 h 0.109 v 0.219 h -0.109"/><path d="m 4.453 9.508 v -0.109 h 0.113 v 0.219 h -0.113"/><path d="m 5.605 10.363 v -0.051 h 0.227 v 0.102 h -0.227"/><path d="m 5.957 10.133 c 0 -0.051 0 -0.051 0.051 -0.051 c 0.051 0 0.051 0 0.051 0.051 c 0 0.051 0 0.051 -0.051 0.051 c -0.051 0 -0.051 0 -0.051 -0.051"/><path d="m 6.297 10.02 v -0.059 h 0.223 v 0.117 h -0.223"/><path d="m 4.805 7.516 v -0.051 h 2.52 v 0.102 h -2.52"/><path d="m 4.816 7.75 v -0.055 h 2.508 v 0.105 h -2.508"/><path d="m 6.184 10.02 v -0.059 h 0.113 v 0.117 h -0.113"/><path d="m 5.793 10.254 v -0.051 h 0.227 v 0.105 h -0.227"/><path d="m 6.02 10.07 v -0.051 h 0.223 v 0.105 h -0.223"/><path d="m 4.25 9.953 v -0.109 h 0.109 v 0.223 h -0.109"/><path d="m 4.688 8.621 v -0.195 h 0.113 v 0.387 h -0.113"/><path d="m 6.03 6.375 c 0 -0.055 0.008 -0.059 0.109 -0.059 c 0.102 0 0.109 0.004 0.109 0.059 c 0 0.051 -0.008 0.055 -0.109 0.055 c -0.102 0 -0.109 -0.004 -0.109 -0.055"/><path d="m 6.18 6.48 c 0 -0.051 0.008 -0.055 0.109 -0.055 c 0.102 0 0.109 0.004 0.109 0.055 c 0 0.055 -0.008 0.059 -0.109 0.059 c -0.102 0 -0.109 -0.004 -0.109 -0.059"/><path d="m 6.355 6.578 c 0 -0.055 0.008 -0.059 0.109 -0.059 c 0.102 0 0.109 0.004 0.109 0.059 c 0 0.051 -0.008 0.055 -0.109 0.055 c -0.102 0 -0.109 -0.004 -0.109 -0.055"/><path d="m 6.496 6.688 c 0 -0.055 0.004 -0.059 0.105 -0.059 c 0.105 0 0.109 0.004 0.109 0.059 c 0 0.051 -0.004 0.055 -0.109 0.055 c -0.102 0 -0.105 -0.004 -0.105 -0.055"/><path d="m 6.625 6.746 c 0 -0.055 0.004 -0.055 0.105 -0.055 c 0.102 0 0.109 0 0.109 0.055 c 0 0.051 -0.008 0.055 -0.109 0.055 c -0.102 0 -0.105 -0.004 -0.105 -0.055"/></g><g fill="#ff4500"><path d="m 9.613 9.05 c -0.078 -0.008 -0.078 -0.008 -0.078 -0.043 c 0 -0.027 0.004 -0.039 0.035 -0.047 c 0.016 -0.004 0.27 -0.016 0.563 -0.023 c 0.43 -0.012 0.527 -0.02 0.535 -0.031 c 0.016 -0.023 0.004 -0.047 -0.02 -0.055 c -0.012 0 0.078 -0.004 0.191 -0.004 c 0.117 -0.004 0.254 -0.008 0.301 -0.012 l 0.09 -0.008 v 0.113 h -0.805 v 0.121 l -0.363 -0.004 c -0.203 0 -0.402 -0.004 -0.449 -0.008"/><path d="m 5.891 8.984 v -0.16 h 1.957 v 0.32 h -1.957"/><path d="m 9.379 8.996 v -0.16 h 1.953 v 0.32 h -1.953"/></g><path d="m 4.23 10.242 v -0.172 h 0.145 v -0.109 c 0 -0.105 0 -0.109 0.043 -0.109 c 0.043 0 0.043 -0.004 0.043 -0.109 c 0 -0.109 0 -0.109 0.055 -0.109 h 0.051 v -0.234 h 2.637 v 0.219 h -0.113 c -0.094 0 -0.117 0.004 -0.117 0.027 c 0 0.027 -0.059 0.059 -0.156 0.074 c -0.039 0.008 -0.063 0.023 -0.07 0.051 c -0.02 0.051 -0.055 0.066 -0.156 0.066 h -0.078 l 0.008 0.063 l 0.004 0.063 h -0.172 c -0.141 0 -0.172 0.004 -0.172 0.027 c 0 0.02 -0.023 0.027 -0.09 0.027 c -0.066 0 -0.09 0.008 -0.09 0.027 c 0 0.016 -0.012 0.027 -0.023 0.027 c -0.035 0 -0.039 0.102 -0.008 0.117 c 0.016 0.004 -0.023 0.008 -0.078 0.008 c -0.102 0.004 -0.102 0.004 -0.102 0.059 c 0 0.055 0 0.055 -0.098 0.055 c -0.098 0 -0.098 0 -0.098 0.055 v 0.055 h -1.363" fill="#a9a9a9" fill-opacity="0.643"/></svg>