<svg xmlns="http://www.w3.org/2000/svg" viewBox="0 0 16 16"><path d="m 13.152 2.414 c 12.508 16.578 -21.91 18.934 -10.863 2.01 c 2.516 -3.855 7.551 -6.402 10.863 -2.01" fill="#00bfff"/><path d="m 12.465 13.172 v -8.367 c 0 -0.07 -0.055 -0.125 -0.125 -0.125 h -8.742 c -0.07 0 -0.125 0.055 -0.125 0.125 v 8.367 c 0 0.07 0.055 0.125 0.125 0.125 h 8.742 c 0.07 0 0.125 -0.055 0.125 -0.125" fill="#369ff2"/><g fill-opacity="0.2"><path d="m 3.922 4.68 c -0.25 0 -0.449 0.191 -0.449 0.43 v 0.215 c 0 -0.238 0.199 -0.43 0.449 -0.43 h 8.094 c 0.25 0 0.449 0.191 0.449 0.43 v -0.215 c 0 -0.238 -0.199 -0.43 -0.449 -0.43" fill="#fff"/><path d="m 5.05 6.398 c -0.141 -0.004 -0.277 0.059 -0.363 0.168 c -0.086 0.105 -0.117 0.25 -0.074 0.379 l 1.348 4.742 c 0.051 0.176 0.211 0.305 0.402 0.316 c 0.191 0.012 0.371 -0.094 0.445 -0.262 l 1.16 -2.617 l 1.16 2.617 c 0.074 0.168 0.254 0.273 0.445 0.262 c 0.191 -0.012 0.352 -0.141 0.402 -0.316 l 1.352 -4.742 c 0.063 -0.227 -0.078 -0.465 -0.316 -0.527 c -0.242 -0.063 -0.488 0.074 -0.555 0.301 l -1.01 3.543 l -1.066 -2.41 c -0.07 -0.156 -0.234 -0.262 -0.414 -0.262 c -0.18 0 -0.344 0.105 -0.414 0.262 l -1.066 2.41 l -1.01 -3.543 c -0.051 -0.188 -0.227 -0.32 -0.43 -0.32" fill-rule="evenodd"/></g><path d="m 11.01 12.995 l 5.992 22.01 l 7 -16.5 l 7 16.5 l 5.992 -22.01" transform="matrix(0.2249 0 0 0.21544 2.571 3.818)" stroke-opacity="0.988" fill="none" stroke="#fff" stroke-linejoin="round" stroke-linecap="round" stroke-width="4"/><path d="m 13.14 11.359 c 0 1.426 -1.207 2.582 -2.699 2.582 c -1.488 0 -2.699 -1.156 -2.699 -2.582 c 0 -1.43 1.211 -2.586 2.699 -2.586 c 1.492 0 2.699 1.156 2.699 2.586" fill="#dc133c"/><path d="m 10.441 10.281 c -0.348 0.004 -0.699 0.078 -1 0.242 c -0.121 0.078 -0.266 0.176 -0.375 0.273 c -0.172 0.16 -0.32 0.352 -0.418 0.563 c 0.273 0.574 0.871 1 1.535 1.063 c 0.434 0.047 0.887 -0.027 1.266 -0.23 c 0.121 -0.074 0.266 -0.172 0.379 -0.273 c 0.172 -0.16 0.316 -0.348 0.418 -0.559 c -0.273 -0.578 -0.875 -1 -1.535 -1.066 c -0.086 -0.008 -0.176 -0.012 -0.266 -0.012 m 0 0.43 c 0.363 -0.008 0.684 0.301 0.676 0.648 c 0.012 0.379 -0.383 0.707 -0.777 0.637 c -0.395 -0.043 -0.672 -0.469 -0.543 -0.828 c 0.086 -0.266 0.355 -0.461 0.645 -0.457 m 0 0.43 c -0.121 0 -0.223 0.098 -0.223 0.219 c 0 0.117 0.102 0.215 0.223 0.215 c 0.125 0 0.227 -0.098 0.227 -0.215 c 0 -0.121 -0.102 -0.219 -0.227 -0.219" fill="#fff" fill-rule="evenodd"/></svg>