<svg xmlns="http://www.w3.org/2000/svg" viewBox="0 0 16 16"><path d="m 3.383 14.387 c 11.813 7.891 19.09 -17.266 3.816 -13.934 c -6.309 1.418 -10.137 10.316 -3.816 13.934" fill="#ed81ed"/><path d="m 4.273 12.359 c 0 -0.188 0.039 -0.27 0.141 -0.305 c 0.074 -0.023 0.445 -0.375 0.82 -0.781 c 0.395 -0.426 0.77 -0.758 0.879 -0.789 c 0.156 -0.039 0.195 -0.094 0.195 -0.27 c 0 -0.148 0.043 -0.234 0.137 -0.266 c 0.078 -0.023 0.453 -0.383 0.836 -0.793 c 0.949 -1.027 0.922 -1.027 2.035 0.125 c 0.473 0.488 0.844 0.934 0.844 1.012 c 0 0.086 0.066 0.16 0.18 0.188 c 0.277 0.074 1.855 1.738 1.855 1.961 v 0.176 h -1.895 c -1.613 0 -1.898 -0.016 -1.934 -0.109 c -0.023 -0.063 -0.082 -0.113 -0.133 -0.113 c -0.051 0 -0.113 0.051 -0.137 0.113 c -0.035 0.094 -0.32 0.109 -1.934 0.109 h -1.891 m -0.535 -0.574 c -0.023 -0.027 -0.047 -0.902 -0.047 -1.938 c 0 -1.863 0.004 -1.891 0.16 -1.992 l 0.16 -0.102 l -0.16 -0.137 c -0.16 -0.133 -0.164 -0.152 -0.145 -2.039 l 0.02 -1.906 l 0.27 -0.023 c 0.211 -0.02 0.273 0.008 0.309 0.125 c 0.027 0.082 0.371 0.473 0.77 0.867 c 0.395 0.395 0.742 0.801 0.766 0.906 c 0.039 0.152 0.094 0.195 0.254 0.195 c 0.137 0 0.219 0.047 0.25 0.141 c 0.023 0.082 0.375 0.477 0.781 0.879 c 0.984 0.98 0.984 0.965 0 1.945 c -0.406 0.402 -0.758 0.797 -0.781 0.875 c -0.031 0.098 -0.113 0.145 -0.25 0.145 c -0.16 0 -0.215 0.043 -0.254 0.191 c -0.023 0.109 -0.371 0.516 -0.766 0.91 c -0.398 0.395 -0.742 0.781 -0.766 0.863 c -0.031 0.102 -0.113 0.141 -0.281 0.141 c -0.133 0 -0.262 -0.02 -0.289 -0.047 m 1.844 -1.926 c 0 -0.156 -1.551 -1.813 -1.625 -1.734 c -0.063 0.066 -0.063 3.367 0.004 3.438 c 0.074 0.078 1.621 -1.547 1.621 -1.703 m 2.035 -2.125 c 0 -0.172 -1.539 -1.805 -1.621 -1.719 c -0.066 0.066 -0.066 3.371 0 3.438 c 0.082 0.086 1.621 -1.547 1.621 -1.719 m -2.035 0 c 0 -1 -0.023 -1.391 -0.086 -1.391 c -0.121 0 -1.297 1.258 -1.297 1.391 c 0 0.133 1.164 1.387 1.293 1.391 c 0.066 0 0.09 -0.328 0.09 -1.391 m 0 -2.125 c 0 -0.156 -1.547 -1.781 -1.621 -1.703 c -0.066 0.066 -0.066 3.371 -0.004 3.438 c 0.074 0.078 1.625 -1.578 1.625 -1.734 m 5.938 5.344 c -0.672 -0.703 -0.852 -0.93 -0.852 -1.094 c 0 -0.18 -0.023 -0.203 -0.164 -0.168 c -0.141 0.035 -0.309 -0.105 -1.02 -0.844 c -0.695 -0.73 -0.852 -0.93 -0.852 -1.109 c 0 -0.18 0.148 -0.379 0.816 -1.09 c 0.676 -0.719 0.855 -0.867 1.02 -0.859 c 0.168 0.008 0.199 -0.02 0.199 -0.184 c 0 -0.277 1.555 -1.934 1.816 -1.934 h 0.184 l 0.02 1.914 c 0.016 1.648 0.004 1.926 -0.094 1.98 c -0.059 0.035 -0.109 0.109 -0.109 0.168 c 0 0.059 0.051 0.133 0.109 0.168 c 0.098 0.055 0.109 0.332 0.094 1.98 c -0.027 2.383 0.035 2.328 -1.168 1.07 m -0.672 -1.52 c 0.023 -0.039 0.008 -0.094 -0.035 -0.117 c -0.039 -0.027 -0.07 0.004 -0.07 0.066 c 0 0.133 0.043 0.152 0.105 0.051 m 0 -3.313 c 0.023 -0.039 0.008 -0.09 -0.035 -0.117 c -0.039 -0.023 -0.07 0.008 -0.07 0.07 c 0 0.133 0.043 0.152 0.105 0.047 m -2.789 1.223 c -0.059 -0.023 -0.437 -0.395 -0.844 -0.824 c -0.406 -0.43 -0.777 -0.777 -0.824 -0.777 c -0.047 0 -0.082 -0.102 -0.082 -0.219 c 0 -0.172 -0.043 -0.23 -0.188 -0.266 c -0.102 -0.027 -0.523 -0.402 -0.934 -0.836 c -0.414 -0.434 -0.789 -0.789 -0.836 -0.789 c -0.059 0 -0.078 -0.098 -0.066 -0.281 l 0.023 -0.281 l 1.84 -0.02 c 1.813 -0.02 1.844 -0.02 1.969 0.141 l 0.129 0.164 l 0.109 -0.164 c 0.109 -0.16 0.133 -0.16 1.957 -0.141 l 1.844 0.02 l 0.023 0.281 c 0.016 0.184 -0.008 0.281 -0.066 0.281 c -0.047 0 -0.422 0.355 -0.836 0.789 c -0.41 0.434 -0.832 0.809 -0.934 0.836 c -0.145 0.035 -0.184 0.094 -0.184 0.266 c 0 0.117 -0.039 0.219 -0.086 0.219 c -0.043 0 -0.418 0.352 -0.828 0.785 c -0.715 0.75 -0.957 0.914 -1.188 0.816" fill="#e5e500"/><path d="m 4.273 12.359 c 0 -0.188 0.039 -0.27 0.141 -0.305 c 0.074 -0.023 0.445 -0.375 0.82 -0.781 c 0.395 -0.426 0.77 -0.758 0.879 -0.789 c 0.156 -0.039 0.195 -0.094 0.195 -0.27 c 0 -0.148 0.043 -0.234 0.137 -0.266 c 0.078 -0.023 0.453 -0.383 0.836 -0.793 c 0.949 -1.027 0.922 -1.027 2.035 0.125 c 0.473 0.488 0.844 0.934 0.844 1.012 c 0 0.086 0.066 0.16 0.18 0.188 c 0.277 0.074 1.855 1.738 1.855 1.961 v 0.176 h -1.895 c -1.613 0 -1.898 -0.016 -1.934 -0.109 c -0.023 -0.063 -0.082 -0.113 -0.133 -0.113 c -0.051 0 -0.113 0.051 -0.137 0.113 c -0.035 0.094 -0.32 0.109 -1.934 0.109 h -1.891 m -0.535 -0.574 c -0.023 -0.027 -0.047 -0.902 -0.047 -1.938 c 0 -1.863 0.004 -1.891 0.16 -1.992 l 0.16 -0.102 l -0.16 -0.137 c -0.16 -0.133 -0.164 -0.152 -0.145 -2.039 l 0.02 -1.906 l 0.27 -0.023 c 0.211 -0.02 0.273 0.008 0.309 0.125 c 0.027 0.082 0.371 0.473 0.77 0.867 c 0.395 0.395 0.742 0.801 0.766 0.906 c 0.039 0.152 0.094 0.195 0.254 0.195 c 0.137 0 0.219 0.047 0.25 0.141 c 0.023 0.082 0.375 0.477 0.781 0.879 c 0.984 0.98 0.984 0.965 0 1.945 c -0.406 0.402 -0.758 0.797 -0.781 0.875 c -0.031 0.098 -0.113 0.145 -0.25 0.145 c -0.16 0 -0.215 0.043 -0.254 0.191 c -0.023 0.109 -0.371 0.516 -0.766 0.91 c -0.398 0.395 -0.742 0.781 -0.766 0.863 c -0.031 0.102 -0.113 0.141 -0.281 0.141 c -0.133 0 -0.262 -0.02 -0.289 -0.047 m 1.844 -1.926 c 0 -0.156 -1.551 -1.813 -1.625 -1.734 c -0.063 0.066 -0.063 3.367 0.004 3.438 c 0.074 0.078 1.621 -1.547 1.621 -1.703 m 2.035 -2.125 c 0 -0.172 -1.539 -1.805 -1.621 -1.719 c -0.066 0.066 -0.066 3.371 0 3.438 c 0.082 0.086 1.621 -1.547 1.621 -1.719 m -2.035 0 c 0 -1 -0.023 -1.391 -0.086 -1.391 c -0.121 0 -1.297 1.258 -1.297 1.391 c 0 0.133 1.164 1.387 1.293 1.391 c 0.066 0 0.09 -0.328 0.09 -1.391 m 0 -2.125 c 0 -0.156 -1.547 -1.781 -1.621 -1.703 c -0.066 0.066 -0.066 3.371 -0.004 3.438 c 0.074 0.078 1.625 -1.578 1.625 -1.734 m 5.938 5.344 c -0.672 -0.703 -0.852 -0.93 -0.852 -1.094 c 0 -0.18 -0.023 -0.203 -0.164 -0.168 c -0.141 0.035 -0.309 -0.105 -1.02 -0.844 c -0.695 -0.73 -0.852 -0.93 -0.852 -1.109 c 0 -0.18 0.148 -0.379 0.816 -1.09 c 0.676 -0.719 0.855 -0.867 1.02 -0.859 c 0.168 0.008 0.199 -0.02 0.199 -0.184 c 0 -0.277 1.555 -1.934 1.816 -1.934 h 0.184 l 0.02 1.914 c 0.016 1.648 0.004 1.926 -0.094 1.98 c -0.059 0.035 -0.109 0.109 -0.109 0.168 c 0 0.059 0.051 0.133 0.109 0.168 c 0.098 0.055 0.109 0.332 0.094 1.98 c -0.027 2.383 0.035 2.328 -1.168 1.07 m -0.672 -1.52 c 0.023 -0.039 0.008 -0.094 -0.035 -0.117 c -0.039 -0.027 -0.07 0.004 -0.07 0.066 c 0 0.133 0.043 0.152 0.105 0.051 m 0 -3.313 c 0.023 -0.039 0.008 -0.09 -0.035 -0.117 c -0.039 -0.023 -0.07 0.008 -0.07 0.07 c 0 0.133 0.043 0.152 0.105 0.047 m -2.789 1.223 c -0.059 -0.023 -0.437 -0.395 -0.844 -0.824 c -0.406 -0.43 -0.777 -0.777 -0.824 -0.777 c -0.047 0 -0.082 -0.102 -0.082 -0.219 c 0 -0.172 -0.043 -0.23 -0.188 -0.266 c -0.102 -0.027 -0.523 -0.402 -0.934 -0.836 c -0.414 -0.434 -0.789 -0.789 -0.836 -0.789 c -0.059 0 -0.078 -0.098 -0.066 -0.281 l 0.023 -0.281 l 1.84 -0.02 c 1.813 -0.02 1.844 -0.02 1.969 0.141 l 0.129 0.164 l 0.109 -0.164 c 0.109 -0.16 0.133 -0.16 1.957 -0.141 l 1.844 0.02 l 0.023 0.281 c 0.016 0.184 -0.008 0.281 -0.066 0.281 c -0.047 0 -0.422 0.355 -0.836 0.789 c -0.41 0.434 -0.832 0.809 -0.934 0.836 c -0.145 0.035 -0.184 0.094 -0.184 0.266 c 0 0.117 -0.039 0.219 -0.086 0.219 c -0.043 0 -0.418 0.352 -0.828 0.785 c -0.715 0.75 -0.957 0.914 -1.188 0.816 m 1.117 -1.07 c 0.418 -0.426 0.746 -0.809 0.723 -0.844 c -0.047 -0.082 -3.277 -0.086 -3.328 -0.004 c -0.051 0.082 -0.027 0.105 0.844 0.98 c 0.582 0.586 0.801 0.762 0.887 0.711 c 0.059 -0.035 0.453 -0.414 0.875 -0.844 m -2.035 -2.109 c 0.453 -0.457 0.742 -0.809 0.703 -0.848 c -0.063 -0.066 -3.266 -0.098 -3.328 -0.035 c -0.066 0.07 0.109 0.281 0.855 1.016 c 0.578 0.574 0.813 0.762 0.895 0.715 c 0.059 -0.035 0.453 -0.414 0.875 -0.848 m 4.07 0.004 c 0.734 -0.75 0.852 -0.906 0.691 -0.914 c -1.102 -0.035 -3.234 0.012 -3.293 0.074 c -0.043 0.043 -0.063 0.086 -0.043 0.098 c 0.016 0.012 0.398 0.387 0.844 0.836 c 0.613 0.613 0.84 0.797 0.922 0.75 c 0.063 -0.035 0.457 -0.414 0.879 -0.844 m -1.633 0.727 c 0 -0.156 -1.184 -1.336 -1.34 -1.336 c -0.16 0 -1.348 1.176 -1.348 1.336 c 0 0.07 0.305 0.094 1.344 0.094 c 1.016 0 1.344 -0.023 1.344 -0.094" fill="#e56262"/><path d="m 4.273 12.359 c 0 -0.188 0.039 -0.27 0.141 -0.305 c 0.074 -0.023 0.445 -0.375 0.82 -0.781 c 0.395 -0.426 0.77 -0.758 0.879 -0.789 c 0.156 -0.039 0.195 -0.094 0.195 -0.27 c 0 -0.148 0.043 -0.234 0.137 -0.266 c 0.078 -0.023 0.453 -0.383 0.836 -0.793 c 0.949 -1.027 0.922 -1.027 2.035 0.125 c 0.473 0.488 0.844 0.934 0.844 1.012 c 0 0.086 0.066 0.16 0.18 0.188 c 0.277 0.074 1.855 1.738 1.855 1.961 v 0.176 h -1.895 c -1.613 0 -1.898 -0.016 -1.934 -0.109 c -0.023 -0.063 -0.082 -0.113 -0.133 -0.113 c -0.051 0 -0.113 0.051 -0.137 0.113 c -0.035 0.094 -0.32 0.109 -1.934 0.109 h -1.891 m 3.559 -0.219 c 0 -0.121 -1.539 -1.66 -1.66 -1.66 c -0.137 0 -1.609 1.496 -1.609 1.633 c 0 0.074 0.363 0.098 1.637 0.098 c 0.957 0 1.633 -0.031 1.633 -0.07 m 4.07 -0.027 c 0 -0.137 -1.469 -1.633 -1.605 -1.633 c -0.125 0 -1.664 1.539 -1.664 1.66 c 0 0.039 0.68 0.07 1.637 0.07 c 1.27 0 1.633 -0.023 1.633 -0.098 m -2.953 -0.848 c 0.348 -0.355 0.613 -0.676 0.59 -0.715 c -0.055 -0.094 -2.555 -0.094 -2.609 0 c -0.055 0.09 1.121 1.336 1.273 1.348 c 0.066 0.008 0.402 -0.277 0.746 -0.633 m 0.918 -1.258 c 0 -0.156 -1.477 -1.633 -1.633 -1.633 c -0.16 0 -1.637 1.477 -1.637 1.633 c 0 0.074 0.363 0.098 1.637 0.098 c 1.27 0 1.633 -0.023 1.633 -0.098 m -6.125 1.777 c -0.027 -0.027 -0.051 -0.902 -0.051 -1.938 c 0 -1.863 0.004 -1.891 0.16 -1.992 l 0.16 -0.102 l -0.16 -0.137 c -0.16 -0.133 -0.16 -0.152 -0.145 -2.039 l 0.02 -1.906 l 0.27 -0.023 c 0.211 -0.02 0.273 0.008 0.309 0.125 c 0.027 0.082 0.371 0.473 0.77 0.867 c 0.395 0.395 0.742 0.801 0.766 0.906 c 0.039 0.152 0.094 0.195 0.254 0.195 c 0.137 0 0.219 0.047 0.25 0.141 c 0.023 0.082 0.375 0.477 0.781 0.879 c 0.984 0.98 0.984 0.965 0 1.945 c -0.406 0.402 -0.758 0.797 -0.781 0.875 c -0.031 0.098 -0.113 0.145 -0.25 0.145 c -0.16 0 -0.215 0.043 -0.254 0.191 c -0.023 0.109 -0.371 0.516 -0.766 0.91 c -0.398 0.395 -0.742 0.781 -0.766 0.863 c -0.031 0.102 -0.113 0.141 -0.281 0.141 c -0.133 0 -0.262 -0.02 -0.285 -0.047 m 1.137 -1.059 c 0.582 -0.625 0.77 -0.871 0.727 -0.953 c -0.094 -0.172 -1.563 -1.699 -1.633 -1.699 c -0.035 0 -0.063 0.031 -0.066 0.074 c 0 0.039 0 0.801 0 1.691 c 0 0.891 0 1.652 0 1.699 c 0.008 0.176 0.215 0 0.973 -0.813 m 1.953 -2.02 c 0.41 -0.441 0.773 -0.848 0.809 -0.906 c 0.043 -0.082 -0.156 -0.34 -0.727 -0.953 c -0.758 -0.809 -0.969 -0.988 -0.973 -0.813 c 0 0.043 0 0.809 0 1.699 c 0 0.891 0 1.652 0 1.691 c 0.004 0.176 0.18 0.031 0.891 -0.723 m -1.25 -0.969 c 0 -1.051 -0.023 -1.391 -0.09 -1.391 c -0.152 0 -1.293 1.223 -1.293 1.387 c 0 0.164 1.137 1.395 1.289 1.395 c 0.07 0 0.094 -0.316 0.094 -1.391 m -0.793 -1.133 c 0.414 -0.438 0.781 -0.844 0.816 -0.906 c 0.043 -0.082 -0.145 -0.332 -0.727 -0.953 c -0.758 -0.813 -0.965 -0.988 -0.973 -0.813 c 0 0.043 0 0.809 0 1.699 c 0 0.887 0 1.648 0 1.691 c 0.008 0.168 0.16 0.039 0.883 -0.719 m 6.73 4.352 c -0.672 -0.703 -0.852 -0.93 -0.852 -1.094 c 0 -0.18 -0.023 -0.203 -0.164 -0.168 c -0.141 0.035 -0.309 -0.105 -1.02 -0.844 c -0.695 -0.73 -0.848 -0.93 -0.852 -1.109 c 0 -0.184 0.148 -0.383 0.816 -1.09 c 0.676 -0.719 0.855 -0.867 1.02 -0.859 c 0.168 0.008 0.199 -0.02 0.199 -0.184 c 0 -0.277 1.555 -1.934 1.816 -1.934 h 0.184 l 0.02 1.914 c 0.016 1.648 0.004 1.922 -0.094 1.98 c -0.059 0.035 -0.109 0.109 -0.109 0.168 c 0 0.059 0.051 0.133 0.109 0.168 c 0.098 0.055 0.109 0.332 0.094 1.98 c -0.027 2.383 0.035 2.328 -1.168 1.07 m -0.672 -1.523 c 0.023 -0.035 0.008 -0.09 -0.031 -0.117 c -0.043 -0.023 -0.074 0.008 -0.074 0.07 c 0 0.133 0.043 0.152 0.105 0.047 m 0 -3.309 c 0.023 -0.039 0.008 -0.09 -0.031 -0.117 c -0.043 -0.027 -0.074 0.004 -0.074 0.07 c 0 0.133 0.043 0.152 0.105 0.047 m -2.789 1.223 c -0.055 -0.023 -0.437 -0.395 -0.844 -0.824 c -0.406 -0.43 -0.777 -0.781 -0.824 -0.781 c -0.047 0 -0.082 -0.098 -0.082 -0.215 c 0 -0.172 -0.039 -0.23 -0.188 -0.266 c -0.102 -0.027 -0.523 -0.402 -0.934 -0.836 c -0.41 -0.434 -0.789 -0.789 -0.836 -0.789 c -0.055 0 -0.078 -0.098 -0.066 -0.281 l 0.023 -0.281 l 1.84 -0.02 c 1.813 -0.02 1.844 -0.02 1.969 0.141 l 0.129 0.164 l 0.109 -0.164 c 0.109 -0.16 0.133 -0.16 1.957 -0.141 l 1.844 0.02 l 0.023 0.281 c 0.016 0.184 -0.008 0.281 -0.063 0.281 c -0.051 0 -0.426 0.355 -0.836 0.789 c -0.414 0.434 -0.836 0.809 -0.938 0.836 c -0.145 0.035 -0.184 0.094 -0.184 0.266 c 0 0.117 -0.039 0.215 -0.082 0.215 c -0.047 0 -0.422 0.355 -0.832 0.789 c -0.711 0.75 -0.953 0.914 -1.188 0.816 m 1.117 -1.07 c 0.418 -0.426 0.746 -0.809 0.723 -0.844 c -0.047 -0.082 -3.277 -0.086 -3.328 -0.004 c -0.047 0.082 -0.027 0.105 0.844 0.98 c 0.582 0.586 0.801 0.762 0.887 0.711 c 0.059 -0.035 0.453 -0.414 0.875 -0.844 m -2.035 -2.109 c 0.453 -0.457 0.742 -0.809 0.707 -0.848 c -0.063 -0.066 -3.27 -0.098 -3.328 -0.035 c -0.07 0.07 0.105 0.277 0.852 1.016 c 0.582 0.574 0.813 0.762 0.895 0.715 c 0.059 -0.035 0.453 -0.414 0.875 -0.848 m 4.07 0.004 c 0.734 -0.75 0.852 -0.906 0.691 -0.914 c -1.102 -0.035 -3.234 0.012 -3.293 0.074 c -0.043 0.043 -0.063 0.086 -0.043 0.098 c 0.02 0.012 0.398 0.387 0.844 0.836 c 0.613 0.613 0.84 0.797 0.926 0.75 c 0.059 -0.035 0.453 -0.414 0.875 -0.844 m -1.633 0.727 c 0 -0.156 -1.184 -1.336 -1.34 -1.336 c -0.16 0 -1.348 1.176 -1.348 1.332 c 0 0.074 0.305 0.098 1.344 0.098 c 1.016 0 1.344 -0.023 1.344 -0.094" fill="#00e400"/><path d="m 4.273 12.359 c 0 -0.188 0.039 -0.27 0.141 -0.305 c 0.074 -0.023 0.445 -0.375 0.82 -0.781 c 0.395 -0.426 0.77 -0.758 0.879 -0.789 c 0.156 -0.039 0.195 -0.094 0.195 -0.27 c 0 -0.148 0.043 -0.234 0.137 -0.266 c 0.078 -0.023 0.453 -0.383 0.836 -0.793 c 0.949 -1.027 0.922 -1.027 2.035 0.125 c 0.473 0.488 0.844 0.934 0.844 1.012 c 0 0.086 0.066 0.16 0.18 0.188 c 0.277 0.074 1.855 1.738 1.855 1.961 v 0.176 h -1.895 c -1.613 0 -1.898 -0.016 -1.934 -0.109 c -0.023 -0.063 -0.082 -0.113 -0.133 -0.113 c -0.051 0 -0.113 0.051 -0.137 0.113 c -0.035 0.094 -0.32 0.109 -1.934 0.109 h -1.891 m 3.559 -0.219 c 0 -0.121 -1.539 -1.66 -1.66 -1.66 c -0.137 0 -1.609 1.496 -1.609 1.633 c 0 0.074 0.363 0.098 1.637 0.098 c 0.957 0 1.633 -0.031 1.633 -0.07 m 4.07 -0.027 c 0 -0.137 -1.469 -1.633 -1.605 -1.633 c -0.125 0 -1.664 1.539 -1.664 1.66 c 0 0.039 0.68 0.07 1.637 0.07 c 1.27 0 1.633 -0.023 1.633 -0.098 m -2.953 -0.848 c 0.348 -0.355 0.613 -0.676 0.59 -0.715 c -0.055 -0.094 -2.555 -0.094 -2.609 0 c -0.055 0.09 1.121 1.336 1.273 1.348 c 0.066 0.008 0.402 -0.277 0.746 -0.633 m 0.918 -1.258 c 0 -0.156 -1.477 -1.633 -1.633 -1.633 c -0.16 0 -1.637 1.477 -1.637 1.633 c 0 0.074 0.363 0.098 1.637 0.098 c 1.27 0 1.633 -0.023 1.633 -0.098 m -6.125 1.777 c -0.027 -0.027 -0.051 -0.902 -0.051 -1.938 c 0 -1.863 0.004 -1.891 0.16 -1.992 l 0.16 -0.102 l -0.16 -0.137 c -0.16 -0.133 -0.16 -0.152 -0.145 -2.039 l 0.02 -1.906 l 0.27 -0.023 c 0.211 -0.02 0.273 0.008 0.309 0.125 c 0.027 0.082 0.371 0.473 0.77 0.867 c 0.395 0.395 0.742 0.801 0.766 0.906 c 0.039 0.152 0.094 0.195 0.254 0.195 c 0.137 0 0.219 0.047 0.25 0.141 c 0.023 0.082 0.375 0.477 0.781 0.879 c 0.984 0.98 0.984 0.965 0 1.945 c -0.406 0.402 -0.758 0.797 -0.781 0.875 c -0.031 0.098 -0.113 0.145 -0.25 0.145 c -0.16 0 -0.215 0.043 -0.254 0.191 c -0.023 0.109 -0.371 0.516 -0.766 0.91 c -0.398 0.395 -0.742 0.781 -0.766 0.863 c -0.031 0.102 -0.113 0.141 -0.281 0.141 c -0.133 0 -0.262 -0.02 -0.285 -0.047 m 1.137 -1.059 c 0.582 -0.625 0.77 -0.871 0.727 -0.953 c -0.094 -0.172 -1.563 -1.699 -1.633 -1.699 c -0.035 0 -0.063 0.031 -0.066 0.074 c 0 0.039 0 0.801 0 1.691 c 0 0.891 0 1.652 0 1.699 c 0.008 0.176 0.215 0 0.973 -0.813 m 1.953 -2.02 c 0.41 -0.441 0.773 -0.848 0.809 -0.906 c 0.043 -0.082 -0.156 -0.34 -0.727 -0.953 c -0.758 -0.809 -0.969 -0.988 -0.973 -0.813 c 0 0.043 0 0.809 0 1.699 c 0 0.891 0 1.652 0 1.691 c 0.004 0.176 0.18 0.031 0.891 -0.723 m -1.25 -0.969 c 0 -1.051 -0.023 -1.391 -0.09 -1.391 c -0.152 0 -1.293 1.223 -1.293 1.387 c 0 0.164 1.137 1.395 1.289 1.395 c 0.07 0 0.094 -0.316 0.094 -1.391 m -0.793 -1.133 c 0.414 -0.438 0.781 -0.844 0.816 -0.906 c 0.043 -0.082 -0.145 -0.332 -0.727 -0.953 c -0.758 -0.813 -0.965 -0.988 -0.973 -0.813 c 0 0.043 0 0.809 0 1.699 c 0 0.887 0 1.648 0 1.691 c 0.008 0.168 0.16 0.039 0.883 -0.719 m 6.73 4.352 c -0.672 -0.703 -0.852 -0.93 -0.852 -1.094 c 0 -0.18 -0.023 -0.203 -0.164 -0.168 c -0.141 0.035 -0.309 -0.105 -1.02 -0.844 c -0.695 -0.73 -0.848 -0.93 -0.852 -1.109 c 0 -0.184 0.148 -0.383 0.816 -1.09 c 0.676 -0.719 0.855 -0.867 1.02 -0.859 c 0.168 0.008 0.199 -0.02 0.199 -0.184 c 0 -0.277 1.555 -1.934 1.816 -1.934 h 0.184 l 0.02 1.914 c 0.016 1.648 0.004 1.922 -0.094 1.98 c -0.059 0.035 -0.109 0.109 -0.109 0.168 c 0 0.059 0.051 0.133 0.109 0.168 c 0.098 0.055 0.109 0.332 0.094 1.98 c -0.027 2.383 0.035 2.328 -1.168 1.07 m 1.039 -1.113 c 0 -0.93 -0.027 -1.691 -0.063 -1.691 c -0.117 0 -1.609 1.594 -1.609 1.719 c 0 0.141 1.445 1.664 1.578 1.664 c 0.074 0 0.094 -0.375 0.094 -1.691 m -1.711 -0.41 c 0.023 -0.035 0.008 -0.09 -0.031 -0.117 c -0.043 -0.023 -0.074 0.008 -0.074 0.07 c 0 0.133 0.043 0.152 0.105 0.047 m -0.324 -1.695 c 0 -1.316 -0.02 -1.691 -0.094 -1.691 c -0.152 0 -1.578 1.527 -1.578 1.691 c 0 0.164 1.426 1.691 1.578 1.691 c 0.074 0 0.094 -0.375 0.094 -1.691 m 1.117 0.742 c 0.344 -0.355 0.625 -0.691 0.625 -0.742 c 0 -0.133 -1.234 -1.398 -1.316 -1.348 c -0.035 0.02 -0.063 0.625 -0.063 1.34 c 0 1.109 0.023 1.398 0.109 1.398 c 0.012 0 0.301 -0.293 0.645 -0.648 m 0.918 -2.848 c 0 -1.316 -0.02 -1.695 -0.094 -1.695 c -0.137 0 -1.578 1.523 -1.578 1.668 c 0 0.137 1.438 1.691 1.582 1.707 c 0.07 0.008 0.09 -0.371 0.09 -1.68 m -1.711 0.492 c 0.023 -0.039 0.008 -0.09 -0.031 -0.117 c -0.043 -0.027 -0.074 0.004 -0.074 0.07 c 0 0.133 0.043 0.152 0.105 0.047 m -2.789 1.223 c -0.055 -0.023 -0.437 -0.395 -0.844 -0.824 c -0.406 -0.43 -0.777 -0.781 -0.824 -0.781 c -0.047 0 -0.082 -0.098 -0.082 -0.215 c 0 -0.172 -0.039 -0.23 -0.188 -0.266 c -0.102 -0.027 -0.523 -0.402 -0.934 -0.836 c -0.41 -0.434 -0.789 -0.789 -0.836 -0.789 c -0.055 0 -0.078 -0.098 -0.066 -0.281 l 0.023 -0.281 l 1.84 -0.02 c 1.813 -0.02 1.844 -0.02 1.969 0.141 l 0.129 0.164 l 0.109 -0.164 c 0.109 -0.16 0.133 -0.16 1.957 -0.141 l 1.844 0.02 l 0.023 0.281 c 0.016 0.184 -0.008 0.281 -0.063 0.281 c -0.051 0 -0.426 0.355 -0.836 0.789 c -0.414 0.434 -0.836 0.809 -0.938 0.836 c -0.145 0.035 -0.184 0.094 -0.184 0.266 c 0 0.117 -0.039 0.215 -0.082 0.215 c -0.047 0 -0.422 0.355 -0.832 0.789 c -0.711 0.75 -0.953 0.914 -1.188 0.816 m 1.117 -1.07 c 0.418 -0.426 0.746 -0.809 0.723 -0.844 c -0.047 -0.082 -3.277 -0.086 -3.328 -0.004 c -0.047 0.082 -0.027 0.105 0.844 0.98 c 0.582 0.586 0.801 0.762 0.887 0.711 c 0.059 -0.035 0.453 -0.414 0.875 -0.844 m -2.035 -2.109 c 0.453 -0.457 0.742 -0.809 0.707 -0.848 c -0.063 -0.066 -3.27 -0.098 -3.328 -0.035 c -0.07 0.07 0.105 0.277 0.852 1.016 c 0.582 0.574 0.813 0.762 0.895 0.715 c 0.059 -0.035 0.453 -0.414 0.875 -0.848 m 4.07 0.004 c 0.734 -0.75 0.852 -0.906 0.691 -0.914 c -1.102 -0.035 -3.234 0.012 -3.293 0.074 c -0.043 0.043 -0.063 0.086 -0.043 0.098 c 0.02 0.012 0.398 0.387 0.844 0.836 c 0.613 0.613 0.84 0.797 0.926 0.75 c 0.059 -0.035 0.453 -0.414 0.875 -0.844 m -1.633 0.727 c 0 -0.156 -1.184 -1.336 -1.34 -1.336 c -0.16 0 -1.348 1.176 -1.348 1.332 c 0 0.074 0.305 0.098 1.344 0.098 c 1.016 0 1.344 -0.023 1.344 -0.094" fill="#5f2626"/><path d="m 4.273 12.359 c 0 -0.246 -0.016 -0.258 -0.273 -0.281 l -0.273 -0.023 l -0.02 -1.906 c -0.016 -1.875 -0.016 -1.906 0.141 -2.035 l 0.156 -0.133 l -0.156 -0.117 c -0.156 -0.113 -0.156 -0.137 -0.141 -2.023 l 0.02 -1.91 l 0.27 -0.023 c 0.254 -0.02 0.27 -0.039 0.293 -0.301 l 0.02 -0.277 l 1.84 -0.02 c 1.813 -0.02 1.844 -0.02 1.969 0.145 l 0.129 0.16 l 0.109 -0.16 c 0.109 -0.164 0.133 -0.164 1.957 -0.145 l 1.844 0.02 l 0.023 0.281 c 0.016 0.184 -0.008 0.281 -0.066 0.281 c -0.047 0 -0.422 0.355 -0.836 0.789 c -0.41 0.434 -0.832 0.809 -0.934 0.836 c -0.145 0.039 -0.184 0.094 -0.184 0.266 c 0 0.121 -0.039 0.219 -0.086 0.219 c -0.043 0 -0.426 0.359 -0.848 0.805 c -1.016 1.066 -0.973 1.066 -1.988 0 c -0.422 -0.445 -0.805 -0.805 -0.848 -0.805 c -0.203 0 -0.031 0.238 0.695 0.977 c 0.648 0.656 0.777 0.824 0.777 1.016 c 0 0.191 -0.129 0.359 -0.777 1.016 c -0.43 0.434 -0.777 0.832 -0.777 0.883 c 0 0.219 0.223 0.051 0.93 -0.695 c 1.01 -1.066 0.961 -1.066 2.078 0.086 c 0.473 0.488 0.844 0.934 0.844 1.012 c 0 0.09 0.066 0.16 0.18 0.188 c 0.277 0.074 1.855 1.738 1.855 1.961 c 0 0.113 -0.043 0.176 -0.121 0.176 c -0.094 0 -0.098 -0.02 -0.027 -0.105 c 0.113 -0.148 0.09 -0.18 -0.84 -1.117 c -0.836 -0.84 -0.996 -0.926 -1.23 -0.656 c -0.125 0.141 -0.141 0.145 -0.266 0.027 c -0.195 -0.188 -2.758 -0.188 -2.957 0 c -0.125 0.117 -0.141 0.113 -0.266 -0.027 c -0.234 -0.27 -0.395 -0.184 -1.23 0.656 c -0.93 0.938 -0.953 0.969 -0.836 1.117 c 0.07 0.086 0.063 0.105 -0.031 0.105 c -0.086 0 -0.117 -0.07 -0.117 -0.258 m 0.922 -1.047 c 0.406 -0.43 0.82 -0.805 0.926 -0.828 c 0.148 -0.039 0.188 -0.098 0.188 -0.273 c 0 -0.199 -0.027 -0.227 -0.211 -0.227 c -0.164 0 -0.219 0.043 -0.254 0.188 c -0.027 0.102 -0.391 0.531 -0.809 0.957 c -0.418 0.426 -0.762 0.816 -0.762 0.867 c 0 0.219 0.223 0.055 0.922 -0.684 m -0.305 -0.18 c 0.477 -0.508 0.836 -0.945 0.836 -1.031 c 0 -0.078 -0.066 -0.215 -0.145 -0.305 l -0.148 -0.164 l 0.148 -0.137 c 0.133 -0.125 0.145 -0.227 0.145 -1.492 c 0 -1.258 -0.012 -1.367 -0.145 -1.52 l -0.148 -0.16 l 0.148 -0.137 c 0.266 -0.25 0.18 -0.414 -0.703 -1.348 c -0.688 -0.73 -0.867 -0.883 -0.961 -0.82 c -0.102 0.066 -0.121 0.316 -0.137 1.852 c -0.02 1.715 -0.016 1.781 0.129 1.875 c 0.187 0.121 0.187 0.371 0 0.492 c -0.141 0.09 -0.145 0.176 -0.145 1.844 c 0 1.711 0.027 1.934 0.23 1.934 c 0.035 0 0.438 -0.398 0.895 -0.883 m 5.133 -0.793 c 0.09 -0.16 -1.543 -1.82 -1.789 -1.82 c -0.121 0 -0.426 0.254 -1.012 0.852 c -0.672 0.68 -0.828 0.879 -0.777 0.977 c 0.059 0.113 0.25 0.125 1.789 0.117 c 1.473 -0.008 1.734 -0.027 1.789 -0.125 m -3.098 -1.313 c 0.5 -0.531 0.832 -0.945 0.832 -1.035 c 0 -0.09 -0.336 -0.508 -0.844 -1.047 c -0.688 -0.727 -0.867 -0.883 -0.961 -0.82 c -0.102 0.066 -0.121 0.316 -0.137 1.828 c -0.02 1.707 0.008 1.957 0.211 1.957 c 0.035 0 0.438 -0.398 0.898 -0.883 m 2.309 -2.398 c 0.641 -0.66 0.836 -0.902 0.789 -0.988 c -0.094 -0.172 -3.488 -0.172 -3.578 0 c -0.082 0.148 1.562 1.863 1.789 1.863 c 0.09 0 0.473 -0.332 1 -0.875 m -2.926 -0.848 c 0 -0.172 -0.039 -0.227 -0.188 -0.266 c -0.102 -0.027 -0.523 -0.402 -0.934 -0.836 c -0.41 -0.434 -0.785 -0.789 -0.832 -0.789 c -0.199 0 -0.031 0.242 0.68 0.961 c 0.418 0.426 0.781 0.859 0.809 0.961 c 0.035 0.145 0.09 0.188 0.254 0.188 c 0.184 0 0.211 -0.031 0.211 -0.219 m 0.18 -0.535 c 0.125 -0.141 0.145 -0.145 0.266 -0.027 c 0.199 0.184 2.762 0.184 2.957 0 c 0.125 -0.117 0.145 -0.113 0.266 0.027 c 0.246 0.277 0.402 0.191 1.293 -0.727 c 0.469 -0.48 0.852 -0.895 0.852 -0.922 c 0 -0.203 -0.234 -0.23 -1.863 -0.23 c -1.617 0 -1.695 0.004 -1.77 0.148 c -0.047 0.086 -0.152 0.152 -0.254 0.152 c -0.102 0 -0.211 -0.066 -0.254 -0.152 c -0.074 -0.145 -0.152 -0.148 -1.77 -0.148 c -1.629 0 -1.863 0.027 -1.863 0.23 c 0 0.027 0.383 0.441 0.852 0.922 c 0.891 0.918 1.047 1 1.293 0.727 m 1.488 7.223 c 0.043 -0.086 0.152 -0.152 0.254 -0.152 c 0.102 0 0.207 0.066 0.254 0.152 c 0.055 0.105 0.055 0.148 0 0.148 c -0.043 0 -0.098 -0.051 -0.121 -0.113 c -0.02 -0.059 -0.082 -0.109 -0.133 -0.109 c -0.051 0 -0.113 0.051 -0.137 0.109 c -0.023 0.063 -0.074 0.113 -0.117 0.113 c -0.055 0 -0.055 -0.043 0 -0.148 m 3.539 -1.258 c -0.672 -0.703 -0.852 -0.93 -0.852 -1.094 c 0 -0.18 -0.023 -0.203 -0.164 -0.168 c -0.141 0.035 -0.309 -0.105 -1.02 -0.844 c -0.695 -0.727 -0.852 -0.926 -0.852 -1.109 c 0 -0.18 0.148 -0.379 0.816 -1.09 c 0.676 -0.719 0.855 -0.867 1.02 -0.859 c 0.168 0.008 0.199 -0.02 0.199 -0.184 c 0 -0.277 1.555 -1.934 1.816 -1.934 h 0.184 l 0.02 1.914 c 0.016 1.648 0.004 1.926 -0.094 1.98 c -0.059 0.035 -0.109 0.109 -0.109 0.168 c 0 0.059 0.051 0.133 0.109 0.168 c 0.098 0.055 0.109 0.332 0.094 1.98 c -0.027 2.383 0.035 2.328 -1.168 1.07 m 1.039 -1.113 c 0 -0.93 -0.027 -1.691 -0.063 -1.691 c -0.117 0 -1.609 1.594 -1.609 1.719 c 0 0.141 1.441 1.664 1.578 1.664 c 0.07 0 0.094 -0.375 0.094 -1.691 m -1.711 -0.406 c 0.023 -0.039 0.008 -0.094 -0.031 -0.117 c -0.043 -0.027 -0.074 0.004 -0.074 0.066 c 0 0.133 0.043 0.152 0.105 0.051 m -0.324 -1.699 c 0 -1.316 -0.02 -1.691 -0.094 -1.691 c -0.152 0 -1.578 1.527 -1.578 1.691 c 0 0.164 1.426 1.691 1.578 1.691 c 0.074 0 0.094 -0.375 0.094 -1.691 m 1.117 0.742 c 0.344 -0.355 0.625 -0.691 0.625 -0.742 c 0 -0.133 -1.238 -1.398 -1.316 -1.348 c -0.035 0.02 -0.063 0.625 -0.063 1.34 c 0 1.109 0.023 1.398 0.109 1.398 c 0.008 0 0.297 -0.293 0.645 -0.648 m 0.918 -2.848 c 0 -1.316 -0.023 -1.695 -0.094 -1.695 c -0.137 0 -1.578 1.523 -1.578 1.668 c 0 0.137 1.438 1.691 1.578 1.707 c 0.07 0.008 0.094 -0.371 0.094 -1.68 m -1.711 0.492 c 0.023 -0.039 0.008 -0.09 -0.031 -0.117 c -0.043 -0.023 -0.074 0.008 -0.074 0.07 c 0 0.133 0.043 0.152 0.105 0.047" fill="#006000"/><path d="m 4.273 12.359 c 0 -0.246 -0.016 -0.258 -0.273 -0.281 l -0.273 -0.023 l -0.02 -1.906 c -0.016 -1.875 -0.016 -1.906 0.141 -2.035 l 0.156 -0.133 l -0.156 -0.117 c -0.156 -0.113 -0.156 -0.137 -0.141 -2.023 l 0.02 -1.91 l 0.27 -0.023 c 0.254 -0.02 0.27 -0.039 0.293 -0.301 l 0.02 -0.277 l 1.84 -0.02 c 1.813 -0.02 1.844 -0.02 1.969 0.145 l 0.129 0.16 l 0.109 -0.16 c 0.109 -0.164 0.133 -0.164 1.957 -0.145 l 1.844 0.02 l 0.023 0.281 c 0.016 0.184 -0.008 0.281 -0.066 0.281 c -0.047 0 -0.422 0.355 -0.836 0.789 c -0.41 0.434 -0.832 0.809 -0.934 0.836 c -0.145 0.039 -0.184 0.094 -0.184 0.266 c 0 0.121 -0.039 0.219 -0.086 0.219 c -0.043 0 -0.426 0.359 -0.848 0.805 c -1.016 1.066 -0.973 1.066 -1.988 0 c -0.422 -0.445 -0.805 -0.805 -0.848 -0.805 c -0.203 0 -0.031 0.238 0.695 0.977 c 0.648 0.656 0.777 0.824 0.777 1.016 c 0 0.191 -0.129 0.359 -0.777 1.016 c -0.43 0.434 -0.777 0.832 -0.777 0.883 c 0 0.219 0.223 0.051 0.93 -0.695 c 1.01 -1.066 0.961 -1.066 2.078 0.086 c 0.473 0.488 0.844 0.934 0.844 1.012 c 0 0.09 0.066 0.16 0.18 0.188 c 0.277 0.074 1.855 1.738 1.855 1.961 c 0 0.113 -0.043 0.176 -0.121 0.176 c -0.094 0 -0.098 -0.02 -0.027 -0.105 c 0.113 -0.148 0.09 -0.18 -0.84 -1.117 c -0.836 -0.84 -0.996 -0.926 -1.23 -0.656 c -0.125 0.141 -0.141 0.145 -0.266 0.027 c -0.195 -0.188 -2.758 -0.188 -2.957 0 c -0.125 0.117 -0.141 0.113 -0.266 -0.027 c -0.234 -0.27 -0.395 -0.184 -1.23 0.656 c -0.93 0.938 -0.953 0.969 -0.836 1.117 c 0.07 0.086 0.063 0.105 -0.031 0.105 c -0.086 0 -0.117 -0.07 -0.117 -0.258 m 0.922 -1.047 c 0.406 -0.43 0.82 -0.805 0.926 -0.828 c 0.148 -0.039 0.188 -0.098 0.188 -0.273 c 0 -0.199 -0.027 -0.227 -0.211 -0.227 c -0.164 0 -0.219 0.043 -0.254 0.188 c -0.027 0.102 -0.391 0.531 -0.809 0.957 c -0.418 0.426 -0.762 0.816 -0.762 0.867 c 0 0.219 0.223 0.055 0.922 -0.684 m -0.305 -0.18 c 0.477 -0.508 0.836 -0.945 0.836 -1.031 c 0 -0.078 -0.066 -0.215 -0.145 -0.305 l -0.148 -0.164 l 0.148 -0.137 c 0.133 -0.125 0.145 -0.227 0.145 -1.492 c 0 -1.258 -0.012 -1.367 -0.145 -1.52 l -0.148 -0.16 l 0.148 -0.137 c 0.266 -0.25 0.18 -0.414 -0.703 -1.348 c -0.688 -0.73 -0.867 -0.883 -0.961 -0.82 c -0.102 0.066 -0.121 0.316 -0.137 1.852 c -0.02 1.715 -0.016 1.781 0.129 1.875 c 0.187 0.121 0.187 0.371 0 0.492 c -0.141 0.09 -0.145 0.176 -0.145 1.844 c 0 1.711 0.027 1.934 0.23 1.934 c 0.035 0 0.438 -0.398 0.895 -0.883 m 5.133 -0.793 c 0.09 -0.16 -1.543 -1.82 -1.789 -1.82 c -0.121 0 -0.426 0.254 -1.012 0.852 c -0.672 0.68 -0.828 0.879 -0.777 0.977 c 0.059 0.113 0.25 0.125 1.789 0.117 c 1.473 -0.008 1.734 -0.027 1.789 -0.125 m -3.098 -1.313 c 0.5 -0.531 0.832 -0.945 0.832 -1.035 c 0 -0.09 -0.336 -0.508 -0.844 -1.047 c -0.688 -0.727 -0.867 -0.883 -0.961 -0.82 c -0.102 0.066 -0.121 0.316 -0.137 1.828 c -0.02 1.707 0.008 1.957 0.211 1.957 c 0.035 0 0.438 -0.398 0.898 -0.883 m 2.309 -2.398 c 0.641 -0.66 0.836 -0.902 0.789 -0.988 c -0.094 -0.172 -3.488 -0.172 -3.578 0 c -0.082 0.148 1.562 1.863 1.789 1.863 c 0.09 0 0.473 -0.332 1 -0.875 m -2.926 -0.848 c 0 -0.172 -0.039 -0.227 -0.188 -0.266 c -0.102 -0.027 -0.523 -0.402 -0.934 -0.836 c -0.41 -0.434 -0.785 -0.789 -0.832 -0.789 c -0.199 0 -0.031 0.242 0.68 0.961 c 0.418 0.426 0.781 0.859 0.809 0.961 c 0.035 0.145 0.09 0.188 0.254 0.188 c 0.184 0 0.211 -0.031 0.211 -0.219 m 0.18 -0.535 c 0.125 -0.141 0.145 -0.145 0.266 -0.027 c 0.199 0.184 2.762 0.184 2.957 0 c 0.125 -0.117 0.145 -0.113 0.266 0.027 c 0.246 0.277 0.402 0.191 1.293 -0.727 c 0.469 -0.48 0.852 -0.895 0.852 -0.922 c 0 -0.203 -0.234 -0.23 -1.863 -0.23 c -1.617 0 -1.695 0.004 -1.77 0.148 c -0.047 0.086 -0.152 0.152 -0.254 0.152 c -0.102 0 -0.211 -0.066 -0.254 -0.152 c -0.074 -0.145 -0.152 -0.148 -1.77 -0.148 c -1.629 0 -1.863 0.027 -1.863 0.23 c 0 0.027 0.383 0.441 0.852 0.922 c 0.891 0.918 1.047 1 1.293 0.727 m 1.488 7.223 c 0.043 -0.086 0.152 -0.152 0.254 -0.152 c 0.102 0 0.207 0.066 0.254 0.152 c 0.055 0.105 0.055 0.148 0 0.148 c -0.043 0 -0.098 -0.051 -0.121 -0.113 c -0.02 -0.059 -0.082 -0.109 -0.133 -0.109 c -0.051 0 -0.113 0.051 -0.137 0.109 c -0.023 0.063 -0.074 0.113 -0.117 0.113 c -0.055 0 -0.055 -0.043 0 -0.148 m 3.539 -1.258 c -0.672 -0.703 -0.852 -0.93 -0.852 -1.094 c 0 -0.18 -0.023 -0.203 -0.164 -0.168 c -0.141 0.035 -0.309 -0.105 -1.02 -0.844 c -0.695 -0.727 -0.852 -0.926 -0.852 -1.109 c 0 -0.18 0.148 -0.379 0.816 -1.09 c 0.676 -0.719 0.855 -0.867 1.02 -0.859 c 0.168 0.008 0.199 -0.02 0.199 -0.184 c 0 -0.273 1.555 -1.934 1.813 -1.934 c 0.094 0 0.188 0.051 0.207 0.113 c 0.027 0.09 0.016 0.094 -0.063 0.02 c -0.055 -0.055 -0.117 -0.094 -0.145 -0.094 c -0.027 0 -0.43 0.395 -0.895 0.883 c -0.883 0.922 -0.969 1.082 -0.699 1.336 c 0.137 0.129 0.137 0.145 0.027 0.273 c -0.105 0.117 -0.121 0.34 -0.121 1.531 c 0 1.191 0.016 1.414 0.121 1.531 c 0.109 0.129 0.109 0.145 -0.027 0.273 c -0.27 0.254 -0.184 0.414 0.699 1.336 c 0.465 0.488 0.867 0.883 0.895 0.883 c 0.027 0 0.09 -0.043 0.145 -0.094 c 0.078 -0.074 0.09 -0.07 0.063 0.02 c -0.086 0.297 -0.328 0.148 -1.168 -0.73 m -0.906 -3.219 c 0 -1.52 -0.016 -1.797 -0.109 -1.852 c -0.145 -0.086 -1.797 1.621 -1.797 1.852 c 0 0.23 1.652 1.934 1.797 1.852 c 0.094 -0.055 0.109 -0.332 0.109 -1.852 m 0.234 1.699 c 0.023 -0.039 0.008 -0.094 -0.031 -0.117 c -0.043 -0.027 -0.074 0.004 -0.074 0.066 c 0 0.133 0.043 0.152 0.105 0.051 m 0 -3.313 c 0.023 -0.039 0.008 -0.09 -0.031 -0.117 c -0.043 -0.023 -0.074 0.008 -0.074 0.07 c 0 0.133 0.043 0.152 0.105 0.047 m 1.691 1.867 c -0.172 -0.102 -0.16 -0.418 0.02 -0.516 c 0.082 -0.047 0.145 -0.051 0.145 -0.012 c 0 0.039 -0.051 0.09 -0.109 0.113 c -0.148 0.059 -0.137 0.25 0.016 0.34 c 0.07 0.039 0.113 0.09 0.094 0.109 c -0.023 0.02 -0.094 0.004 -0.164 -0.035" fill="#0b0a04"/></svg>