<svg xmlns="http://www.w3.org/2000/svg" viewBox="0 0 16 16"><path d="m 2.75 13.266 c -8.121 -6.5 3.766 -18.234 10.949 -10.738 c 7.199 6.453 -4.04 18.977 -10.949 10.738" fill="#2f4e4e"/><g fill="#fff" fill-rule="evenodd"><path d="m 5.902 12.852 v -0.488 h 1.668 l 0.008 -2.629 c 0.008 -2.01 0.023 -2.637 0.059 -2.68 c 0.191 -0.23 0.262 -0.289 0.363 -0.309 c 0.063 -0.016 0.117 -0.039 0.117 -0.059 c 0 -0.039 0.094 -0.039 0.172 0.004 c 0.035 0.02 0.117 0.055 0.184 0.082 c 0.07 0.027 0.129 0.082 0.141 0.125 c 0.012 0.047 0.043 0.09 0.07 0.102 c 0.027 0.012 0.051 0.051 0.051 0.094 c 0 0.039 0.016 0.074 0.035 0.074 c 0.027 0 0.039 0.891 0.039 2.598 v 2.598 h 1.742 v 0.98 h -4.648"/><path d="m 5.945 7.555 c -0.008 -0.383 0.039 -0.738 0.098 -0.789 c 0.012 -0.008 0.063 -0.098 0.113 -0.199 c 0.051 -0.098 0.109 -0.195 0.137 -0.211 c 0.023 -0.016 0.043 -0.047 0.043 -0.066 c 0 -0.023 0.109 -0.145 0.242 -0.273 c 0.238 -0.23 0.68 -0.484 0.84 -0.484 c 0.043 0 0.082 -0.02 0.09 -0.047 c 0.02 -0.059 1.18 -0.063 1.219 -0.004 c 0.016 0.02 0.105 0.059 0.199 0.086 c 0.094 0.027 0.172 0.059 0.172 0.07 c 0 0.016 0.063 0.047 0.137 0.074 c 0.148 0.055 0.738 0.621 0.738 0.711 c 0 0.031 0.012 0.055 0.027 0.055 c 0.02 0 0.055 0.066 0.078 0.145 c 0.027 0.082 0.063 0.145 0.078 0.145 c 0.016 0 0.039 0.066 0.051 0.148 c 0.012 0.078 0.039 0.145 0.059 0.145 c 0.02 0 0.027 0.203 0.023 0.461 c -0.008 0.453 -0.008 0.457 -0.02 0.102 c -0.004 -0.195 -0.023 -0.379 -0.043 -0.398 c -0.016 -0.02 -0.043 -0.098 -0.059 -0.176 c -0.012 -0.074 -0.035 -0.133 -0.051 -0.133 c -0.016 0 -0.039 -0.059 -0.055 -0.133 c -0.012 -0.07 -0.047 -0.137 -0.07 -0.145 c -0.027 -0.012 -0.063 -0.063 -0.074 -0.109 c -0.023 -0.09 -0.473 -0.559 -0.535 -0.559 c -0.031 0 -0.07 -0.031 -0.188 -0.133 c -0.027 -0.023 -0.121 -0.066 -0.207 -0.09 c -0.09 -0.023 -0.184 -0.063 -0.207 -0.078 c -0.023 -0.02 -0.152 -0.043 -0.281 -0.055 c -0.133 -0.012 -0.246 -0.035 -0.258 -0.051 c -0.027 -0.039 -0.223 -0.039 -0.25 0 c -0.008 0.016 -0.137 0.039 -0.281 0.055 c -0.145 0.012 -0.27 0.039 -0.277 0.059 c -0.008 0.02 -0.039 0.039 -0.07 0.039 c -0.082 0 -0.301 0.082 -0.301 0.109 c 0 0.016 -0.039 0.035 -0.09 0.051 c -0.051 0.012 -0.09 0.039 -0.09 0.059 c 0 0.02 -0.023 0.035 -0.047 0.035 c -0.027 0 -0.086 0.035 -0.125 0.082 c -0.043 0.043 -0.145 0.145 -0.227 0.219 c -0.082 0.078 -0.148 0.164 -0.148 0.191 c 0 0.027 -0.016 0.051 -0.035 0.051 c -0.02 0 -0.035 0.02 -0.035 0.039 c 0 0.023 -0.035 0.082 -0.074 0.133 c -0.039 0.051 -0.07 0.125 -0.07 0.16 c 0 0.039 -0.016 0.07 -0.035 0.07 c -0.051 0 -0.086 0.207 -0.113 0.652 l -0.023 0.418"/><path d="m 4.648 7.371 c 0.008 -0.281 0.031 -0.516 0.047 -0.527 c 0.02 -0.012 0.047 -0.098 0.063 -0.188 c 0.012 -0.09 0.055 -0.23 0.094 -0.313 c 0.039 -0.086 0.066 -0.172 0.066 -0.191 c 0 -0.023 0.02 -0.039 0.039 -0.039 c 0.02 0 0.035 -0.023 0.035 -0.051 c 0 -0.031 0.023 -0.074 0.051 -0.102 c 0.027 -0.027 0.059 -0.086 0.074 -0.129 c 0.012 -0.039 0.051 -0.105 0.086 -0.148 c 0.035 -0.039 0.086 -0.109 0.117 -0.156 c 0.027 -0.047 0.102 -0.137 0.164 -0.199 c 0.059 -0.066 0.133 -0.148 0.164 -0.184 c 0.031 -0.039 0.102 -0.102 0.16 -0.141 c 0.059 -0.039 0.133 -0.098 0.168 -0.133 c 0.035 -0.031 0.098 -0.07 0.141 -0.082 c 0.039 -0.016 0.074 -0.039 0.074 -0.059 c 0 -0.016 0.059 -0.051 0.129 -0.078 c 0.066 -0.023 0.125 -0.055 0.125 -0.07 c 0 -0.016 0.051 -0.035 0.109 -0.051 c 0.059 -0.012 0.109 -0.035 0.109 -0.051 c 0 -0.016 0.078 -0.051 0.172 -0.078 c 0.094 -0.023 0.184 -0.059 0.191 -0.074 c 0.012 -0.016 0.168 -0.047 0.348 -0.07 c 0.176 -0.023 0.352 -0.055 0.387 -0.074 c 0.086 -0.047 0.637 -0.043 0.664 0.004 c 0.012 0.02 0.078 0.035 0.148 0.035 c 0.172 0 0.633 0.082 0.633 0.113 c 0 0.016 0.082 0.047 0.184 0.07 c 0.098 0.023 0.18 0.055 0.18 0.074 c 0 0.02 0.043 0.043 0.09 0.055 c 0.051 0.012 0.094 0.035 0.094 0.051 c 0 0.012 0.063 0.047 0.141 0.074 c 0.082 0.023 0.152 0.066 0.164 0.094 c 0.012 0.027 0.043 0.051 0.074 0.051 c 0.031 0 0.055 0.016 0.055 0.035 c 0 0.023 0.043 0.059 0.098 0.082 c 0.16 0.074 0.559 0.492 0.559 0.59 c 0 0.059 -0.09 -0.004 -0.309 -0.215 c -0.133 -0.133 -0.254 -0.238 -0.27 -0.238 c -0.012 0 -0.078 -0.051 -0.148 -0.109 c -0.066 -0.063 -0.16 -0.121 -0.207 -0.133 c -0.047 -0.012 -0.086 -0.031 -0.086 -0.047 c 0 -0.016 -0.066 -0.047 -0.145 -0.074 c -0.078 -0.027 -0.145 -0.063 -0.145 -0.078 c 0 -0.016 -0.063 -0.039 -0.137 -0.051 c -0.074 -0.016 -0.145 -0.043 -0.156 -0.059 c -0.012 -0.02 -0.137 -0.051 -0.273 -0.07 c -0.141 -0.02 -0.281 -0.055 -0.316 -0.07 c -0.082 -0.047 -1.027 -0.047 -1.109 0 c -0.035 0.016 -0.176 0.051 -0.316 0.07 c -0.141 0.02 -0.258 0.055 -0.266 0.074 c -0.008 0.023 -0.051 0.039 -0.098 0.039 c -0.047 0 -0.109 0.023 -0.137 0.051 c -0.027 0.027 -0.121 0.07 -0.203 0.098 c -0.082 0.023 -0.152 0.055 -0.152 0.066 c 0 0.012 -0.051 0.043 -0.117 0.074 c -0.063 0.027 -0.125 0.059 -0.137 0.074 c -0.008 0.012 -0.082 0.07 -0.16 0.129 c -0.172 0.129 -0.566 0.508 -0.566 0.547 c 0 0.012 -0.035 0.059 -0.082 0.102 c -0.043 0.043 -0.105 0.129 -0.129 0.195 c -0.027 0.063 -0.063 0.117 -0.078 0.117 c -0.016 0 -0.039 0.039 -0.051 0.09 c -0.012 0.051 -0.039 0.09 -0.059 0.09 c -0.016 0 -0.043 0.059 -0.059 0.129 c -0.012 0.07 -0.035 0.129 -0.051 0.129 c -0.016 0 -0.047 0.109 -0.074 0.242 c -0.023 0.137 -0.059 0.254 -0.074 0.266 c -0.016 0.012 -0.047 0.223 -0.066 0.473 l -0.035 0.453"/><path d="m 3.453 8.453 c -0.012 -0.094 -0.023 -0.219 -0.023 -0.273 c 0 -0.059 -0.016 -0.105 -0.035 -0.105 c -0.023 0 -0.039 -0.207 -0.039 -0.543 c 0 -0.301 0.016 -0.547 0.031 -0.547 c 0.02 0 0.043 -0.117 0.059 -0.262 c 0.012 -0.141 0.035 -0.277 0.055 -0.297 c 0.016 -0.023 0.051 -0.133 0.078 -0.25 c 0.023 -0.113 0.059 -0.207 0.07 -0.207 c 0.016 0 0.039 -0.059 0.051 -0.129 c 0.016 -0.07 0.039 -0.129 0.059 -0.129 c 0.02 0 0.035 -0.016 0.035 -0.039 c 0 -0.059 0.191 -0.445 0.227 -0.461 c 0.016 -0.008 0.027 -0.035 0.027 -0.066 c 0 -0.027 0.027 -0.063 0.055 -0.074 c 0.031 -0.012 0.055 -0.043 0.055 -0.07 c 0 -0.031 0.023 -0.063 0.055 -0.074 c 0.031 -0.012 0.055 -0.043 0.055 -0.07 c 0 -0.027 0.023 -0.063 0.051 -0.078 c 0.027 -0.016 0.07 -0.066 0.094 -0.117 c 0.027 -0.051 0.098 -0.133 0.156 -0.184 c 0.059 -0.051 0.199 -0.18 0.32 -0.289 c 0.344 -0.324 0.41 -0.379 0.543 -0.445 c 0.07 -0.035 0.152 -0.078 0.18 -0.098 c 0.258 -0.16 0.453 -0.258 0.578 -0.297 c 0.082 -0.023 0.148 -0.059 0.148 -0.074 c 0 -0.02 0.031 -0.031 0.066 -0.031 c 0.035 0 0.105 -0.023 0.16 -0.051 c 0.051 -0.027 0.215 -0.07 0.363 -0.098 c 0.145 -0.027 0.277 -0.063 0.293 -0.086 c 0.035 -0.055 1.727 -0.055 1.762 0 c 0.016 0.023 0.148 0.059 0.293 0.086 c 0.148 0.027 0.313 0.07 0.363 0.098 c 0.055 0.027 0.125 0.051 0.16 0.051 c 0.035 0 0.066 0.016 0.066 0.031 c 0 0.02 0.043 0.043 0.098 0.059 c 0.125 0.031 0.414 0.168 0.477 0.227 c 0.027 0.027 0.07 0.047 0.098 0.047 c 0.027 0 0.07 0.02 0.098 0.047 c 0.023 0.023 0.094 0.066 0.156 0.098 c 0.059 0.031 0.141 0.086 0.18 0.129 c 0.039 0.039 0.117 0.094 0.168 0.121 c 0.055 0.027 0.117 0.09 0.145 0.137 c 0.023 0.047 0.059 0.086 0.074 0.086 c 0.023 0 0.32 0.293 0.504 0.5 c 0.051 0.059 0.117 0.152 0.145 0.211 c 0.031 0.059 0.078 0.121 0.102 0.137 c 0.023 0.016 0.047 0.051 0.047 0.082 c 0 0.027 0.016 0.051 0.035 0.051 c 0.02 0 0.035 0.027 0.035 0.055 c 0 0.031 0.023 0.066 0.055 0.078 c 0.031 0.012 0.055 0.043 0.055 0.07 c 0 0.031 0.031 0.113 0.074 0.188 c 0.039 0.074 0.082 0.188 0.094 0.254 c 0.012 0.066 0.035 0.121 0.051 0.121 c 0.016 0 0.039 0.063 0.055 0.145 c 0.012 0.078 0.039 0.145 0.055 0.145 c 0.016 0 0.039 0.078 0.055 0.172 c 0.012 0.098 0.043 0.195 0.066 0.223 c 0.059 0.074 0.059 1.703 0 1.742 c -0.023 0.016 -0.051 0.074 -0.059 0.133 c -0.016 0.105 -0.016 0.105 -0.02 -0.02 c -0.004 -0.07 0.012 -0.148 0.035 -0.172 c 0.055 -0.055 0.059 -1.383 0.004 -1.418 c -0.02 -0.012 -0.051 -0.125 -0.063 -0.25 c -0.016 -0.125 -0.043 -0.227 -0.059 -0.227 c -0.02 0 -0.035 -0.035 -0.035 -0.078 c 0 -0.039 -0.031 -0.141 -0.066 -0.227 c -0.039 -0.082 -0.082 -0.203 -0.094 -0.27 c -0.016 -0.066 -0.039 -0.117 -0.059 -0.117 c -0.016 0 -0.039 -0.051 -0.055 -0.109 c -0.012 -0.059 -0.035 -0.109 -0.055 -0.109 c -0.02 0 -0.043 -0.039 -0.055 -0.09 c -0.012 -0.047 -0.043 -0.094 -0.07 -0.105 c -0.023 -0.008 -0.055 -0.059 -0.07 -0.113 c -0.012 -0.055 -0.063 -0.133 -0.113 -0.18 c -0.051 -0.047 -0.09 -0.098 -0.09 -0.113 c 0 -0.016 -0.031 -0.063 -0.07 -0.102 c -0.387 -0.406 -0.59 -0.605 -0.621 -0.605 c -0.02 0 -0.035 -0.016 -0.035 -0.035 c 0 -0.02 -0.016 -0.035 -0.035 -0.035 c -0.02 0 -0.066 -0.031 -0.105 -0.066 c -0.121 -0.113 -0.234 -0.191 -0.281 -0.191 c -0.023 0 -0.051 -0.02 -0.063 -0.051 c -0.012 -0.027 -0.066 -0.059 -0.129 -0.074 c -0.059 -0.012 -0.117 -0.047 -0.129 -0.074 c -0.008 -0.031 -0.039 -0.055 -0.066 -0.055 c -0.027 0 -0.117 -0.031 -0.199 -0.07 c -0.082 -0.043 -0.168 -0.074 -0.191 -0.074 c -0.02 0 -0.035 -0.016 -0.035 -0.035 c 0 -0.02 -0.027 -0.039 -0.063 -0.039 c -0.066 0 -0.285 -0.063 -0.379 -0.109 c -0.031 -0.016 -0.137 -0.039 -0.234 -0.055 c -0.098 -0.012 -0.203 -0.043 -0.23 -0.066 c -0.07 -0.055 -1.715 -0.055 -1.789 0 c -0.027 0.023 -0.137 0.055 -0.238 0.066 c -0.105 0.016 -0.191 0.039 -0.191 0.055 c 0 0.012 -0.098 0.047 -0.219 0.07 c -0.121 0.027 -0.219 0.063 -0.219 0.078 c 0 0.016 -0.043 0.039 -0.094 0.051 c -0.145 0.035 -0.449 0.176 -0.449 0.207 c 0 0.016 -0.051 0.039 -0.113 0.051 c -0.063 0.012 -0.121 0.047 -0.129 0.074 c -0.012 0.031 -0.043 0.051 -0.074 0.051 c -0.027 0 -0.059 0.027 -0.07 0.055 c -0.012 0.031 -0.047 0.055 -0.074 0.055 c -0.027 0 -0.078 0.031 -0.113 0.066 c -0.035 0.035 -0.125 0.109 -0.203 0.164 c -0.215 0.164 -0.605 0.578 -0.684 0.73 c -0.023 0.043 -0.063 0.09 -0.09 0.105 c -0.027 0.016 -0.051 0.051 -0.051 0.082 c 0 0.027 -0.016 0.051 -0.035 0.051 c -0.02 0 -0.035 0.027 -0.035 0.059 c 0 0.027 -0.023 0.063 -0.051 0.074 c -0.027 0.008 -0.07 0.082 -0.098 0.16 c -0.023 0.078 -0.059 0.145 -0.074 0.145 c -0.016 0 -0.039 0.047 -0.051 0.109 c -0.012 0.059 -0.039 0.109 -0.059 0.109 c -0.016 0 -0.031 0.027 -0.035 0.063 c 0 0.035 -0.031 0.129 -0.07 0.207 c -0.039 0.082 -0.07 0.184 -0.07 0.23 c 0 0.043 -0.016 0.082 -0.031 0.082 c -0.039 0 -0.117 0.527 -0.117 0.789 c 0 0.105 -0.016 0.191 -0.035 0.191 c -0.043 0 -0.051 0.371 -0.004 0.418 c 0.031 0.035 0.09 0.781 0.063 0.781 c -0.008 0 -0.023 -0.078 -0.035 -0.168"/><path d="m 5.945 7.664 c -0.008 -0.383 0.039 -0.738 0.098 -0.789 c 0.012 -0.008 0.063 -0.098 0.113 -0.199 c 0.051 -0.098 0.109 -0.195 0.137 -0.211 c 0.023 -0.016 0.043 -0.047 0.043 -0.066 c 0 -0.023 0.109 -0.145 0.242 -0.273 c 0.238 -0.23 0.68 -0.484 0.84 -0.484 c 0.043 0 0.082 -0.02 0.09 -0.047 c 0.02 -0.059 1.18 -0.063 1.219 -0.004 c 0.016 0.02 0.105 0.059 0.199 0.086 c 0.094 0.027 0.172 0.059 0.172 0.07 c 0 0.016 0.063 0.047 0.137 0.074 c 0.148 0.055 0.738 0.621 0.738 0.711 c 0 0.031 0.012 0.055 0.027 0.055 c 0.02 0 0.055 0.066 0.078 0.145 c 0.027 0.082 0.063 0.145 0.078 0.145 c 0.016 0 0.039 0.066 0.051 0.148 c 0.012 0.078 0.039 0.145 0.059 0.145 c 0.02 0 0.027 0.203 0.023 0.461 c -0.008 0.453 -0.008 0.457 -0.02 0.102 c -0.004 -0.195 -0.023 -0.379 -0.043 -0.398 c -0.016 -0.02 -0.043 -0.098 -0.059 -0.176 c -0.012 -0.074 -0.035 -0.133 -0.051 -0.133 c -0.016 0 -0.039 -0.059 -0.055 -0.133 c -0.012 -0.07 -0.047 -0.137 -0.07 -0.145 c -0.027 -0.012 -0.063 -0.063 -0.074 -0.109 c -0.023 -0.09 -0.473 -0.559 -0.535 -0.559 c -0.031 0 -0.07 -0.031 -0.188 -0.133 c -0.027 -0.023 -0.121 -0.066 -0.207 -0.09 c -0.09 -0.023 -0.184 -0.063 -0.207 -0.078 c -0.023 -0.02 -0.152 -0.043 -0.281 -0.055 c -0.133 -0.012 -0.246 -0.035 -0.258 -0.051 c -0.027 -0.039 -0.223 -0.039 -0.25 0 c -0.008 0.016 -0.137 0.039 -0.281 0.055 c -0.145 0.012 -0.27 0.039 -0.277 0.059 c -0.008 0.02 -0.039 0.039 -0.07 0.039 c -0.082 0 -0.301 0.082 -0.301 0.109 c 0 0.016 -0.039 0.035 -0.09 0.051 c -0.051 0.012 -0.09 0.039 -0.09 0.059 c 0 0.02 -0.023 0.035 -0.047 0.035 c -0.027 0 -0.086 0.035 -0.125 0.082 c -0.043 0.043 -0.145 0.145 -0.227 0.219 c -0.082 0.078 -0.148 0.164 -0.148 0.191 c 0 0.027 -0.016 0.051 -0.035 0.051 c -0.02 0 -0.035 0.02 -0.035 0.039 c 0 0.023 -0.035 0.082 -0.074 0.133 c -0.039 0.051 -0.07 0.125 -0.07 0.16 c 0 0.039 -0.016 0.07 -0.035 0.07 c -0.051 0 -0.086 0.207 -0.113 0.652 l -0.023 0.418"/><path d="m 11.59 7.371 c -0.008 -0.281 -0.027 -0.516 -0.047 -0.527 c -0.02 -0.012 -0.043 -0.098 -0.059 -0.188 c -0.016 -0.09 -0.059 -0.23 -0.098 -0.313 c -0.035 -0.086 -0.066 -0.172 -0.066 -0.191 c 0 -0.023 -0.016 -0.039 -0.035 -0.039 c -0.023 0 -0.039 -0.023 -0.039 -0.051 c 0 -0.031 -0.023 -0.074 -0.051 -0.102 c -0.023 -0.027 -0.059 -0.086 -0.07 -0.129 c -0.016 -0.039 -0.055 -0.105 -0.09 -0.148 c -0.031 -0.039 -0.086 -0.109 -0.113 -0.156 c -0.031 -0.047 -0.105 -0.137 -0.164 -0.199 c -0.063 -0.066 -0.137 -0.148 -0.168 -0.184 c -0.031 -0.039 -0.102 -0.102 -0.16 -0.141 c -0.055 -0.039 -0.129 -0.098 -0.164 -0.133 c -0.035 -0.031 -0.098 -0.07 -0.141 -0.082 c -0.043 -0.016 -0.078 -0.039 -0.078 -0.059 c 0 -0.016 -0.055 -0.051 -0.125 -0.078 c -0.07 -0.023 -0.129 -0.055 -0.129 -0.07 c 0 -0.016 -0.047 -0.035 -0.109 -0.051 c -0.059 -0.012 -0.109 -0.035 -0.109 -0.051 c 0 -0.016 -0.078 -0.051 -0.172 -0.078 c -0.094 -0.023 -0.18 -0.059 -0.191 -0.074 c -0.012 -0.016 -0.164 -0.047 -0.344 -0.07 c -0.18 -0.023 -0.355 -0.055 -0.391 -0.074 c -0.086 -0.047 -0.637 -0.043 -0.664 0.004 c -0.012 0.02 -0.078 0.035 -0.145 0.035 c -0.176 0 -0.637 0.082 -0.637 0.113 c 0 0.016 -0.082 0.047 -0.18 0.07 c -0.102 0.023 -0.184 0.055 -0.184 0.074 c 0 0.02 -0.039 0.043 -0.09 0.055 c -0.051 0.012 -0.09 0.035 -0.09 0.051 c 0 0.012 -0.066 0.047 -0.145 0.074 c -0.078 0.023 -0.152 0.066 -0.164 0.094 c -0.008 0.027 -0.043 0.051 -0.074 0.051 c -0.031 0 -0.055 0.016 -0.055 0.035 c 0 0.023 -0.043 0.059 -0.094 0.082 c -0.16 0.074 -0.559 0.492 -0.559 0.59 c 0 0.059 0.086 -0.004 0.305 -0.215 c 0.137 -0.133 0.254 -0.238 0.27 -0.238 c 0.012 0 0.078 -0.051 0.148 -0.109 c 0.066 -0.063 0.16 -0.121 0.207 -0.133 c 0.047 -0.012 0.086 -0.031 0.086 -0.047 c 0 -0.016 0.066 -0.047 0.145 -0.074 c 0.082 -0.027 0.148 -0.063 0.148 -0.078 c 0 -0.016 0.059 -0.039 0.133 -0.051 c 0.078 -0.016 0.148 -0.043 0.16 -0.059 c 0.012 -0.02 0.133 -0.051 0.27 -0.07 c 0.141 -0.02 0.281 -0.055 0.316 -0.07 c 0.082 -0.047 1.027 -0.047 1.109 0 c 0.035 0.016 0.176 0.051 0.316 0.07 c 0.141 0.02 0.262 0.055 0.266 0.074 c 0.008 0.023 0.051 0.039 0.098 0.039 c 0.047 0 0.109 0.023 0.137 0.051 c 0.031 0.027 0.121 0.07 0.203 0.098 c 0.082 0.023 0.152 0.055 0.152 0.066 c 0 0.012 0.051 0.043 0.117 0.074 c 0.066 0.027 0.125 0.059 0.137 0.074 c 0.008 0.012 0.082 0.07 0.16 0.129 c 0.172 0.129 0.566 0.508 0.566 0.547 c 0 0.012 0.035 0.059 0.082 0.102 c 0.047 0.043 0.105 0.129 0.133 0.195 c 0.027 0.063 0.063 0.117 0.074 0.117 c 0.016 0 0.039 0.039 0.051 0.09 c 0.016 0.051 0.039 0.09 0.059 0.09 c 0.02 0 0.043 0.059 0.059 0.129 c 0.012 0.07 0.035 0.129 0.051 0.129 c 0.016 0 0.051 0.109 0.074 0.242 c 0.027 0.137 0.059 0.254 0.074 0.266 c 0.02 0.012 0.047 0.223 0.066 0.473 l 0.035 0.453"/><path d="m 11.59 7.48 c -0.008 -0.281 -0.027 -0.516 -0.047 -0.527 c -0.02 -0.012 -0.043 -0.098 -0.059 -0.188 c -0.016 -0.09 -0.059 -0.23 -0.098 -0.313 c -0.035 -0.086 -0.066 -0.172 -0.066 -0.191 c 0 -0.023 -0.016 -0.039 -0.035 -0.039 c -0.023 0 -0.039 -0.023 -0.039 -0.051 c 0 -0.031 -0.023 -0.074 -0.051 -0.102 c -0.023 -0.027 -0.059 -0.086 -0.07 -0.129 c -0.016 -0.039 -0.055 -0.105 -0.09 -0.148 c -0.031 -0.039 -0.086 -0.109 -0.113 -0.156 c -0.031 -0.047 -0.105 -0.137 -0.164 -0.199 c -0.063 -0.066 -0.137 -0.148 -0.168 -0.184 c -0.031 -0.039 -0.102 -0.102 -0.16 -0.141 c -0.055 -0.039 -0.129 -0.098 -0.164 -0.133 c -0.035 -0.031 -0.098 -0.07 -0.141 -0.082 c -0.043 -0.016 -0.078 -0.039 -0.078 -0.059 c 0 -0.016 -0.055 -0.051 -0.125 -0.078 c -0.07 -0.023 -0.129 -0.055 -0.129 -0.07 c 0 -0.016 -0.047 -0.035 -0.109 -0.051 c -0.059 -0.012 -0.109 -0.035 -0.109 -0.051 c 0 -0.016 -0.078 -0.051 -0.172 -0.078 c -0.094 -0.023 -0.18 -0.059 -0.191 -0.074 c -0.012 -0.016 -0.164 -0.047 -0.344 -0.07 c -0.18 -0.023 -0.355 -0.055 -0.391 -0.074 c -0.086 -0.047 -0.637 -0.043 -0.664 0.004 c -0.012 0.02 -0.078 0.035 -0.145 0.035 c -0.176 0 -0.637 0.082 -0.637 0.113 c 0 0.016 -0.082 0.047 -0.18 0.07 c -0.102 0.023 -0.184 0.055 -0.184 0.074 c 0 0.02 -0.039 0.043 -0.09 0.055 c -0.051 0.012 -0.09 0.035 -0.09 0.051 c 0 0.012 -0.066 0.047 -0.145 0.074 c -0.078 0.023 -0.152 0.066 -0.164 0.094 c -0.008 0.027 -0.043 0.051 -0.074 0.051 c -0.031 0 -0.055 0.016 -0.055 0.035 c 0 0.023 -0.043 0.059 -0.094 0.082 c -0.16 0.074 -0.559 0.492 -0.559 0.59 c 0 0.059 0.086 -0.004 0.305 -0.215 c 0.137 -0.133 0.254 -0.238 0.27 -0.238 c 0.012 0 0.078 -0.051 0.148 -0.109 c 0.066 -0.063 0.16 -0.121 0.207 -0.133 c 0.047 -0.012 0.086 -0.031 0.086 -0.047 c 0 -0.016 0.066 -0.047 0.145 -0.074 c 0.082 -0.027 0.148 -0.063 0.148 -0.078 c 0 -0.016 0.059 -0.039 0.133 -0.051 c 0.078 -0.016 0.148 -0.043 0.16 -0.059 c 0.012 -0.02 0.133 -0.051 0.27 -0.07 c 0.141 -0.02 0.281 -0.055 0.316 -0.07 c 0.082 -0.047 1.027 -0.047 1.109 0 c 0.035 0.016 0.176 0.051 0.316 0.07 c 0.141 0.02 0.262 0.055 0.266 0.074 c 0.008 0.023 0.051 0.039 0.098 0.039 c 0.047 0 0.109 0.023 0.137 0.051 c 0.031 0.027 0.121 0.07 0.203 0.098 c 0.082 0.023 0.152 0.055 0.152 0.066 c 0 0.012 0.051 0.043 0.117 0.074 c 0.066 0.027 0.125 0.059 0.137 0.074 c 0.008 0.012 0.082 0.07 0.16 0.129 c 0.172 0.129 0.566 0.508 0.566 0.547 c 0 0.012 0.035 0.059 0.082 0.102 c 0.047 0.043 0.105 0.129 0.133 0.195 c 0.027 0.063 0.063 0.117 0.074 0.117 c 0.016 0 0.039 0.039 0.051 0.09 c 0.016 0.051 0.039 0.09 0.059 0.09 c 0.02 0 0.043 0.059 0.059 0.129 c 0.012 0.07 0.035 0.129 0.051 0.129 c 0.016 0 0.051 0.109 0.074 0.242 c 0.027 0.137 0.059 0.254 0.074 0.266 c 0.02 0.012 0.047 0.223 0.066 0.473 l 0.035 0.453"/><path d="m 4.613 7.48 c 0.008 -0.281 0.027 -0.516 0.047 -0.527 c 0.02 -0.012 0.043 -0.098 0.059 -0.188 c 0.016 -0.09 0.059 -0.23 0.098 -0.313 c 0.035 -0.086 0.066 -0.172 0.066 -0.191 c 0 -0.023 0.016 -0.039 0.035 -0.039 c 0.023 0 0.039 -0.023 0.039 -0.051 c 0 -0.031 0.023 -0.074 0.051 -0.102 c 0.023 -0.027 0.059 -0.086 0.07 -0.129 c 0.016 -0.039 0.055 -0.105 0.09 -0.148 c 0.031 -0.039 0.086 -0.109 0.113 -0.156 c 0.031 -0.047 0.105 -0.137 0.164 -0.199 c 0.063 -0.066 0.137 -0.148 0.168 -0.184 c 0.031 -0.039 0.102 -0.102 0.16 -0.141 c 0.055 -0.039 0.129 -0.098 0.164 -0.133 c 0.035 -0.031 0.098 -0.07 0.141 -0.082 c 0.043 -0.016 0.078 -0.039 0.078 -0.059 c 0 -0.016 0.055 -0.051 0.125 -0.078 c 0.07 -0.023 0.129 -0.055 0.129 -0.07 c 0 -0.016 0.047 -0.035 0.109 -0.051 c 0.059 -0.012 0.109 -0.035 0.109 -0.051 c 0 -0.016 0.078 -0.051 0.172 -0.078 c 0.094 -0.023 0.18 -0.059 0.191 -0.074 c 0.012 -0.016 0.164 -0.047 0.344 -0.07 c 0.18 -0.023 0.355 -0.055 0.391 -0.074 c 0.086 -0.047 0.637 -0.043 0.664 0.004 c 0.012 0.02 0.078 0.035 0.145 0.035 c 0.176 0 0.637 0.082 0.637 0.113 c 0 0.016 0.082 0.047 0.18 0.07 c 0.102 0.023 0.184 0.055 0.184 0.074 c 0 0.02 0.039 0.043 0.09 0.055 c 0.051 0.012 0.09 0.035 0.09 0.051 c 0 0.012 0.066 0.047 0.145 0.074 c 0.078 0.023 0.152 0.066 0.164 0.094 c 0.008 0.027 0.043 0.051 0.074 0.051 c 0.031 0 0.055 0.016 0.055 0.035 c 0 0.023 0.043 0.059 0.094 0.082 c 0.16 0.074 0.559 0.492 0.559 0.59 c 0 0.059 -0.086 -0.004 -0.305 -0.215 c -0.137 -0.133 -0.254 -0.238 -0.27 -0.238 c -0.012 0 -0.078 -0.051 -0.148 -0.109 c -0.066 -0.063 -0.16 -0.121 -0.207 -0.133 c -0.047 -0.012 -0.086 -0.031 -0.086 -0.047 c 0 -0.016 -0.066 -0.047 -0.145 -0.074 c -0.082 -0.027 -0.148 -0.063 -0.148 -0.078 c 0 -0.016 -0.059 -0.039 -0.133 -0.051 c -0.078 -0.016 -0.148 -0.043 -0.16 -0.059 c -0.012 -0.02 -0.133 -0.051 -0.27 -0.07 c -0.141 -0.02 -0.281 -0.055 -0.316 -0.07 c -0.082 -0.047 -1.027 -0.047 -1.109 0 c -0.035 0.016 -0.176 0.051 -0.316 0.07 c -0.141 0.02 -0.262 0.055 -0.266 0.074 c -0.008 0.023 -0.051 0.039 -0.098 0.039 c -0.047 0 -0.109 0.023 -0.137 0.051 c -0.031 0.027 -0.121 0.07 -0.203 0.098 c -0.082 0.023 -0.152 0.055 -0.152 0.066 c 0 0.012 -0.051 0.043 -0.117 0.074 c -0.066 0.027 -0.125 0.059 -0.137 0.074 c -0.008 0.012 -0.082 0.07 -0.16 0.129 c -0.172 0.129 -0.566 0.508 -0.566 0.547 c 0 0.012 -0.035 0.059 -0.082 0.102 c -0.047 0.043 -0.105 0.129 -0.133 0.195 c -0.027 0.063 -0.063 0.117 -0.074 0.117 c -0.016 0 -0.039 0.039 -0.051 0.09 c -0.016 0.051 -0.039 0.09 -0.059 0.09 c -0.02 0 -0.043 0.059 -0.059 0.129 c -0.012 0.07 -0.035 0.129 -0.051 0.129 c -0.016 0 -0.051 0.109 -0.074 0.242 c -0.027 0.137 -0.059 0.254 -0.074 0.266 c -0.02 0.012 -0.047 0.223 -0.066 0.473 l -0.035 0.453"/><path d="m 3.453 8.379 c -0.012 -0.094 -0.023 -0.215 -0.023 -0.273 c 0 -0.055 -0.016 -0.102 -0.035 -0.102 c -0.023 0 -0.039 -0.207 -0.039 -0.547 c 0 -0.301 0.016 -0.543 0.031 -0.543 c 0.02 0 0.043 -0.121 0.059 -0.262 c 0.012 -0.145 0.035 -0.277 0.055 -0.301 c 0.016 -0.02 0.051 -0.133 0.078 -0.246 c 0.023 -0.117 0.059 -0.211 0.07 -0.211 c 0.016 0 0.039 -0.059 0.051 -0.129 c 0.016 -0.066 0.039 -0.125 0.059 -0.125 c 0.02 0 0.035 -0.02 0.035 -0.043 c 0 -0.055 0.191 -0.445 0.227 -0.461 c 0.016 -0.004 0.027 -0.035 0.027 -0.063 c 0 -0.031 0.027 -0.063 0.055 -0.074 c 0.031 -0.012 0.055 -0.043 0.055 -0.074 c 0 -0.027 0.023 -0.059 0.055 -0.07 c 0.031 -0.012 0.055 -0.043 0.055 -0.07 c 0 -0.027 0.023 -0.063 0.051 -0.078 c 0.027 -0.016 0.07 -0.07 0.094 -0.121 c 0.027 -0.047 0.098 -0.129 0.156 -0.18 c 0.059 -0.051 0.199 -0.184 0.32 -0.293 c 0.344 -0.32 0.41 -0.379 0.543 -0.445 c 0.07 -0.035 0.152 -0.078 0.18 -0.098 c 0.258 -0.156 0.453 -0.258 0.578 -0.297 c 0.082 -0.023 0.148 -0.059 0.148 -0.074 c 0 -0.016 0.031 -0.031 0.066 -0.031 c 0.035 0 0.105 -0.023 0.16 -0.051 c 0.051 -0.027 0.215 -0.07 0.363 -0.098 c 0.145 -0.023 0.277 -0.063 0.293 -0.086 c 0.035 -0.051 1.727 -0.051 1.762 0 c 0.016 0.023 0.148 0.063 0.293 0.086 c 0.148 0.027 0.313 0.07 0.363 0.098 c 0.055 0.027 0.125 0.051 0.16 0.051 c 0.035 0 0.066 0.016 0.066 0.035 c 0 0.016 0.043 0.043 0.098 0.055 c 0.125 0.031 0.414 0.168 0.477 0.23 c 0.027 0.023 0.07 0.043 0.098 0.043 c 0.027 0 0.07 0.023 0.098 0.047 c 0.023 0.023 0.094 0.07 0.156 0.102 c 0.059 0.027 0.141 0.086 0.18 0.125 c 0.039 0.043 0.117 0.098 0.168 0.125 c 0.055 0.023 0.117 0.086 0.145 0.133 c 0.023 0.047 0.059 0.086 0.074 0.086 c 0.023 0 0.32 0.297 0.504 0.504 c 0.051 0.055 0.117 0.148 0.145 0.207 c 0.031 0.059 0.078 0.121 0.102 0.137 c 0.023 0.016 0.047 0.055 0.047 0.082 c 0 0.031 0.016 0.055 0.035 0.055 c 0.02 0 0.035 0.023 0.035 0.055 c 0 0.031 0.023 0.066 0.055 0.078 c 0.031 0.008 0.055 0.043 0.055 0.07 c 0 0.027 0.031 0.109 0.074 0.188 c 0.039 0.074 0.082 0.188 0.094 0.254 c 0.012 0.063 0.035 0.117 0.051 0.117 c 0.016 0 0.039 0.066 0.055 0.145 c 0.012 0.082 0.039 0.145 0.055 0.145 c 0.016 0 0.039 0.078 0.055 0.176 c 0.012 0.094 0.043 0.195 0.066 0.223 c 0.059 0.07 0.059 1.703 0 1.738 c -0.023 0.016 -0.051 0.078 -0.059 0.137 c -0.016 0.105 -0.016 0.102 -0.02 -0.02 c -0.004 -0.07 0.012 -0.148 0.035 -0.172 c 0.055 -0.055 0.059 -1.387 0.004 -1.422 c -0.02 -0.012 -0.051 -0.125 -0.063 -0.25 c -0.016 -0.125 -0.043 -0.227 -0.059 -0.227 c -0.02 0 -0.035 -0.035 -0.035 -0.074 c 0 -0.043 -0.031 -0.145 -0.066 -0.227 c -0.039 -0.086 -0.082 -0.207 -0.094 -0.273 c -0.016 -0.063 -0.039 -0.117 -0.059 -0.117 c -0.016 0 -0.039 -0.047 -0.055 -0.109 c -0.012 -0.059 -0.035 -0.109 -0.055 -0.109 c -0.02 0 -0.043 -0.039 -0.055 -0.086 c -0.012 -0.051 -0.043 -0.098 -0.07 -0.105 c -0.023 -0.012 -0.055 -0.063 -0.07 -0.117 c -0.012 -0.051 -0.063 -0.133 -0.113 -0.18 c -0.051 -0.043 -0.09 -0.094 -0.09 -0.109 c 0 -0.016 -0.031 -0.063 -0.07 -0.105 c -0.387 -0.406 -0.59 -0.602 -0.621 -0.602 c -0.02 0 -0.035 -0.02 -0.035 -0.039 c 0 -0.02 -0.016 -0.035 -0.035 -0.035 c -0.02 0 -0.066 -0.027 -0.105 -0.063 c -0.121 -0.113 -0.234 -0.191 -0.281 -0.191 c -0.023 0 -0.051 -0.023 -0.063 -0.051 c -0.012 -0.027 -0.066 -0.063 -0.129 -0.074 c -0.059 -0.016 -0.117 -0.051 -0.129 -0.078 c -0.008 -0.027 -0.039 -0.051 -0.066 -0.051 c -0.027 0 -0.117 -0.035 -0.199 -0.074 c -0.082 -0.039 -0.168 -0.07 -0.191 -0.07 c -0.02 0 -0.035 -0.02 -0.035 -0.039 c 0 -0.02 -0.027 -0.035 -0.063 -0.035 c -0.066 0 -0.285 -0.063 -0.379 -0.109 c -0.031 -0.016 -0.137 -0.043 -0.234 -0.055 c -0.098 -0.016 -0.203 -0.047 -0.23 -0.066 c -0.07 -0.059 -1.715 -0.059 -1.789 0 c -0.027 0.023 -0.137 0.051 -0.238 0.066 c -0.105 0.016 -0.191 0.035 -0.191 0.051 c 0 0.016 -0.098 0.047 -0.219 0.074 c -0.121 0.027 -0.219 0.059 -0.219 0.074 c 0 0.016 -0.043 0.039 -0.094 0.055 c -0.145 0.035 -0.449 0.176 -0.449 0.203 c 0 0.016 -0.051 0.039 -0.113 0.051 c -0.063 0.016 -0.121 0.051 -0.129 0.078 c -0.012 0.027 -0.043 0.051 -0.074 0.051 c -0.027 0 -0.059 0.023 -0.07 0.055 c -0.012 0.027 -0.047 0.055 -0.074 0.055 c -0.027 0 -0.078 0.027 -0.113 0.063 c -0.035 0.035 -0.125 0.109 -0.203 0.164 c -0.215 0.164 -0.605 0.582 -0.684 0.73 c -0.023 0.043 -0.063 0.09 -0.09 0.105 c -0.027 0.016 -0.051 0.055 -0.051 0.082 c 0 0.031 -0.016 0.055 -0.035 0.055 c -0.02 0 -0.035 0.023 -0.035 0.055 c 0 0.031 -0.023 0.063 -0.051 0.074 c -0.027 0.012 -0.07 0.082 -0.098 0.164 c -0.023 0.078 -0.059 0.141 -0.074 0.141 c -0.016 0 -0.039 0.051 -0.051 0.109 c -0.012 0.063 -0.039 0.109 -0.059 0.109 c -0.016 0 -0.031 0.027 -0.035 0.063 c 0 0.035 -0.031 0.129 -0.07 0.211 c -0.039 0.078 -0.07 0.184 -0.07 0.227 c 0 0.047 -0.016 0.082 -0.031 0.082 c -0.039 0 -0.117 0.531 -0.117 0.789 c 0 0.105 -0.016 0.191 -0.035 0.191 c -0.043 0 -0.051 0.371 -0.004 0.422 c 0.031 0.031 0.09 0.777 0.063 0.777 c -0.008 0 -0.023 -0.074 -0.035 -0.168"/><path d="m 3.453 8.27 c -0.012 -0.094 -0.023 -0.215 -0.023 -0.273 c 0 -0.055 -0.016 -0.102 -0.035 -0.102 c -0.023 0 -0.039 -0.207 -0.039 -0.547 c 0 -0.301 0.016 -0.543 0.031 -0.543 c 0.02 0 0.043 -0.117 0.059 -0.262 c 0.012 -0.145 0.035 -0.277 0.055 -0.301 c 0.016 -0.02 0.051 -0.133 0.078 -0.246 c 0.023 -0.117 0.059 -0.211 0.07 -0.211 c 0.016 0 0.039 -0.055 0.051 -0.125 c 0.016 -0.07 0.039 -0.129 0.059 -0.129 c 0.02 0 0.035 -0.02 0.035 -0.043 c 0 -0.055 0.191 -0.445 0.227 -0.461 c 0.016 -0.004 0.027 -0.035 0.027 -0.063 c 0 -0.031 0.027 -0.063 0.055 -0.074 c 0.031 -0.012 0.055 -0.043 0.055 -0.074 c 0 -0.027 0.023 -0.059 0.055 -0.07 c 0.031 -0.012 0.055 -0.043 0.055 -0.07 c 0 -0.027 0.023 -0.063 0.051 -0.078 c 0.027 -0.016 0.07 -0.07 0.094 -0.121 c 0.027 -0.047 0.098 -0.129 0.156 -0.18 c 0.059 -0.051 0.199 -0.184 0.32 -0.293 c 0.344 -0.32 0.41 -0.375 0.543 -0.445 c 0.07 -0.031 0.152 -0.078 0.18 -0.094 c 0.258 -0.16 0.453 -0.262 0.578 -0.297 c 0.082 -0.027 0.148 -0.059 0.148 -0.078 c 0 -0.016 0.031 -0.031 0.066 -0.031 c 0.035 0 0.105 -0.02 0.16 -0.051 c 0.051 -0.027 0.215 -0.07 0.363 -0.094 c 0.145 -0.027 0.277 -0.066 0.293 -0.086 c 0.035 -0.055 1.727 -0.055 1.762 0 c 0.016 0.02 0.148 0.059 0.293 0.086 c 0.148 0.023 0.313 0.066 0.363 0.094 c 0.055 0.031 0.125 0.051 0.16 0.051 c 0.035 0 0.066 0.016 0.066 0.035 c 0 0.016 0.043 0.043 0.098 0.055 c 0.125 0.031 0.414 0.168 0.477 0.23 c 0.027 0.023 0.07 0.043 0.098 0.043 c 0.027 0 0.07 0.023 0.098 0.047 c 0.023 0.027 0.094 0.07 0.156 0.102 c 0.059 0.027 0.141 0.086 0.18 0.125 c 0.039 0.043 0.117 0.098 0.168 0.125 c 0.055 0.027 0.117 0.086 0.145 0.133 c 0.023 0.051 0.059 0.09 0.074 0.09 c 0.023 0 0.32 0.293 0.504 0.5 c 0.051 0.055 0.117 0.148 0.145 0.211 c 0.031 0.059 0.078 0.117 0.102 0.133 c 0.023 0.02 0.047 0.055 0.047 0.082 c 0 0.031 0.016 0.055 0.035 0.055 c 0.02 0 0.035 0.023 0.035 0.055 c 0 0.031 0.023 0.066 0.055 0.078 c 0.031 0.012 0.055 0.043 0.055 0.07 c 0 0.027 0.031 0.113 0.074 0.188 c 0.039 0.074 0.082 0.188 0.094 0.254 c 0.012 0.066 0.035 0.117 0.051 0.117 c 0.016 0 0.039 0.066 0.055 0.145 c 0.012 0.082 0.039 0.148 0.055 0.148 c 0.016 0 0.039 0.078 0.055 0.172 c 0.012 0.094 0.043 0.195 0.066 0.223 c 0.059 0.07 0.059 1.703 0 1.742 c -0.023 0.012 -0.051 0.074 -0.059 0.133 c -0.016 0.105 -0.016 0.102 -0.02 -0.02 c -0.004 -0.07 0.012 -0.148 0.035 -0.172 c 0.055 -0.055 0.059 -1.387 0.004 -1.422 c -0.02 -0.012 -0.051 -0.125 -0.063 -0.25 c -0.016 -0.125 -0.043 -0.227 -0.059 -0.227 c -0.02 0 -0.035 -0.031 -0.035 -0.074 c 0 -0.039 -0.031 -0.145 -0.066 -0.227 c -0.039 -0.086 -0.082 -0.207 -0.094 -0.27 c -0.016 -0.066 -0.039 -0.121 -0.059 -0.121 c -0.016 0 -0.039 -0.047 -0.055 -0.105 c -0.012 -0.063 -0.035 -0.109 -0.055 -0.109 c -0.02 0 -0.043 -0.043 -0.055 -0.09 c -0.012 -0.047 -0.043 -0.098 -0.07 -0.105 c -0.023 -0.012 -0.055 -0.063 -0.07 -0.117 c -0.012 -0.051 -0.063 -0.133 -0.113 -0.18 c -0.051 -0.043 -0.09 -0.094 -0.09 -0.109 c 0 -0.016 -0.031 -0.063 -0.07 -0.105 c -0.387 -0.406 -0.59 -0.602 -0.621 -0.602 c -0.02 0 -0.035 -0.016 -0.035 -0.039 c 0 -0.02 -0.016 -0.035 -0.035 -0.035 c -0.02 0 -0.066 -0.027 -0.105 -0.063 c -0.121 -0.113 -0.234 -0.191 -0.281 -0.191 c -0.023 0 -0.051 -0.023 -0.063 -0.051 c -0.012 -0.027 -0.066 -0.063 -0.129 -0.074 c -0.059 -0.016 -0.117 -0.047 -0.129 -0.078 c -0.008 -0.027 -0.039 -0.051 -0.066 -0.051 c -0.027 0 -0.117 -0.031 -0.199 -0.074 c -0.082 -0.039 -0.168 -0.07 -0.191 -0.07 c -0.02 0 -0.035 -0.02 -0.035 -0.039 c 0 -0.02 -0.027 -0.035 -0.063 -0.035 c -0.066 0 -0.285 -0.063 -0.379 -0.109 c -0.031 -0.016 -0.137 -0.043 -0.234 -0.055 c -0.098 -0.016 -0.203 -0.043 -0.23 -0.066 c -0.07 -0.059 -1.715 -0.059 -1.789 0 c -0.027 0.023 -0.137 0.051 -0.238 0.066 c -0.105 0.016 -0.191 0.039 -0.191 0.051 c 0 0.016 -0.098 0.047 -0.219 0.074 c -0.121 0.027 -0.219 0.063 -0.219 0.078 c 0 0.012 -0.043 0.035 -0.094 0.051 c -0.145 0.035 -0.449 0.176 -0.449 0.207 c 0 0.012 -0.051 0.035 -0.113 0.051 c -0.063 0.012 -0.121 0.047 -0.129 0.074 c -0.012 0.027 -0.043 0.051 -0.074 0.051 c -0.027 0 -0.059 0.023 -0.07 0.055 c -0.012 0.031 -0.047 0.055 -0.074 0.055 c -0.027 0 -0.078 0.027 -0.113 0.063 c -0.035 0.035 -0.125 0.109 -0.203 0.168 c -0.215 0.164 -0.605 0.578 -0.684 0.73 c -0.023 0.039 -0.063 0.086 -0.09 0.102 c -0.027 0.02 -0.051 0.055 -0.051 0.082 c 0 0.031 -0.016 0.055 -0.035 0.055 c -0.02 0 -0.035 0.023 -0.035 0.055 c 0 0.031 -0.023 0.066 -0.051 0.074 c -0.027 0.012 -0.07 0.086 -0.098 0.164 c -0.023 0.078 -0.059 0.145 -0.074 0.145 c -0.016 0 -0.039 0.047 -0.051 0.105 c -0.012 0.063 -0.039 0.109 -0.059 0.109 c -0.016 0 -0.031 0.031 -0.035 0.066 c 0 0.035 -0.031 0.129 -0.07 0.207 c -0.039 0.082 -0.07 0.184 -0.07 0.227 c 0 0.047 -0.016 0.082 -0.031 0.082 c -0.039 0 -0.117 0.531 -0.117 0.789 c 0 0.105 -0.016 0.191 -0.035 0.191 c -0.043 0 -0.051 0.371 -0.004 0.422 c 0.031 0.031 0.09 0.777 0.063 0.777 c -0.008 0 -0.023 -0.074 -0.035 -0.168"/></g></svg>