<svg xmlns="http://www.w3.org/2000/svg" viewBox="0 0 16 16"><defs><clipPath><path d="m 5.203 11.824 h 7.68 v 1.148 h -7.68"/></clipPath></defs><path d="m 7.367 15.891 c 9.664 0.922 12.266 -14.578 2.344 -15.781 c -9.125 -1.492 -13.824 12.559 -4.758 15.367 c 0.766 0.309 1.605 0.301 2.414 0.414" fill="#dcdcdc"/><path d="m 3.656 4.184 h 0.129 v 8.523 h -0.129"/><path d="m 3.898 4.184 h 0.035 v 8.523 h -0.035"/><path d="m 4.04 4.184 h 0.258 v 8.523 h -0.258"/><path d="m 4.414 4.184 h 0.066 v 8.523 h -0.066"/><path d="m 4.594 4.184 h 0.094 v 8.523 h -0.094"/><path d="m 4.785 4.184 h 0.16 v 8.523 h -0.16"/><path d="m 5.109 4.18 h 0.16 v 7.367 h -0.16"/><path d="m 5.398 4.18 h 0.113 v 7.367 h -0.113"/><path d="m 5.605 4.18 h 0.18 v 7.367 h -0.18"/><path d="m 5.883 4.18 h 0.266 v 7.367 h -0.266"/><path d="m 6.246 4.18 h 0.527 v 7.406 h -0.527"/><path d="m 7.05 4.18 h 0.25 v 7.367 h -0.25"/><path d="m 7.438 4.18 h 0.129 v 7.367 h -0.129"/><path d="m 7.68 4.18 h 0.031 v 7.367 h -0.031"/><path d="m 7.824 4.18 h 0.258 v 7.367 h -0.258"/><path d="m 8.195 4.18 h 0.066 v 7.367 h -0.066"/><path d="m 8.375 4.18 h 0.094 v 7.367 h -0.094"/><path d="m 8.566 4.18 h 0.16 v 7.367 h -0.16"/><path d="m 8.891 4.18 h 0.16 v 7.367 h -0.16"/><path d="m 9.18 4.18 h 0.113 v 7.367 h -0.113"/><path d="m 9.391 4.18 h 0.176 v 7.367 h -0.176"/><path d="m 9.664 4.18 h 0.266 v 7.367 h -0.266"/><path d="m 10.04 4.16 h 0.527 v 7.406 h -0.527"/><path d="m 10.844 4.16 h 0.246 v 7.371 h -0.246"/><path d="m 11.23 4.16 h 0.129 v 7.371 h -0.129"/><path d="m 11.473 4.16 h 0.031 v 7.371 h -0.031"/><path d="m 11.617 4.16 h 0.258 v 7.371 h -0.258"/><path d="m 11.988 4.16 h 0.063 v 7.371 h -0.063"/><path d="m 12.164 4.16 h 0.094 v 7.371 h -0.094"/><path d="m 12.359 4.16 h 0.16 v 7.371 h -0.16"/><path d="m 12.68 4.16 h 0.164 v 7.371 h -0.164"/></svg>