<svg xmlns="http://www.w3.org/2000/svg" viewBox="0 0 24 24"><path d="m 21.527 18.359 c 8.629 -12.273 -7.309 -24.711 -17.473 -14.711 c -9.578 9.426 -0.699 24.07 11.219 19.488 c 2.488 -0.953 4.672 -2.523 6.254 -4.777" fill="#ffd600"/><path d="m 7.223 5.344 c -0.309 0 -0.555 0.324 -0.555 0.723 v 12.984 c 0 0.398 0.246 0.723 0.555 0.723 h 6.09 l 4.426 -5.773 v -7.934 c 0 -0.398 -0.246 -0.723 -0.551 -0.723" fill="#fdcd37"/><path d="m 17.738 14 h -3.875 c -0.305 0 -0.551 0.324 -0.551 0.723 v 5.05" fill="#ffe59b"/><path d="m 13.863 14 c -0.305 0 -0.551 0.324 -0.551 0.723 v 0.359 c 0 -0.398 0.246 -0.719 0.551 -0.719 h 3.598 l 0.277 -0.363" fill="#fff" fill-opacity="0.2"/><path d="m 9.711 13.641 v -0.723 h 3.324 v 0.723 m -3.324 -1.441 v -0.723 h 4.984 v 0.723 m -4.984 -1.445 v -0.719 h 4.984 v 0.719 m -4.984 -1.441 v -0.723 h 4.984 v 0.723" fill-opacity="0.502"/></svg>