<svg xmlns="http://www.w3.org/2000/svg" viewBox="0 0 24 24"><path d="m 8.516 23.855 c -1.109 -0.172 -2.656 -0.637 -3.742 -1.121 c -1.75 -0.785 -3.324 -2.316 -4.02 -3.914 c -0.422 -0.973 -0.586 -1.863 -0.582 -3.156 c 0 -1.121 0.051 -1.531 0.313 -2.555 c 0.496 -1.941 1.582 -4.223 3.09 -6.488 c 0.578 -0.871 1.082 -1.469 2.01 -2.391 c 1.43 -1.418 2.285 -2.063 3.742 -2.809 c 0.863 -0.445 1.406 -0.668 2.098 -0.871 c 0.488 -0.141 0.523 -0.145 1.824 -0.168 c 1.438 -0.027 1.574 -0.012 2.328 0.23 c 2.074 0.664 3.805 2.266 5.66 5.234 c 1.242 1.988 1.93 3.523 2.367 5.293 c 0.273 1.102 0.332 1.582 0.328 2.75 c 0 0.945 -0.016 1.098 -0.133 1.656 c -0.355 1.688 -1.082 3.039 -2.348 4.375 c -1.078 1.145 -3.01 2.383 -4.617 2.969 c -0.68 0.246 -2.164 0.664 -2.977 0.832 l -0.695 0.145 l -2.191 0.016 c -1.207 0.008 -2.313 -0.004 -2.457 -0.023" fill="#12cf18"/><path d="m 22.516 12.285 c 0 5.297 -4.355 9.59 -9.734 9.59 c -5.375 0 -9.734 -4.293 -9.734 -9.59 c 0 -5.293 4.359 -9.586 9.734 -9.586 c 5.379 0 9.734 4.293 9.734 9.586" fill="#fff" fill-rule="evenodd"/><path d="m 11.922 22.426 c -0.008 -0.012 -0.105 -0.023 -0.219 -0.035 c -0.227 -0.016 -0.438 -0.043 -0.727 -0.094 c -0.324 -0.055 -0.406 -0.07 -0.668 -0.137 c -0.043 -0.012 -0.137 -0.035 -0.211 -0.051 c -0.156 -0.035 -0.359 -0.094 -0.484 -0.137 c -0.047 -0.02 -0.176 -0.063 -0.281 -0.098 c -0.109 -0.035 -0.297 -0.105 -0.422 -0.16 c -0.125 -0.051 -0.234 -0.094 -0.242 -0.094 c -0.012 0 -0.273 -0.121 -0.512 -0.238 c -0.16 -0.074 -0.582 -0.301 -0.688 -0.367 c -0.152 -0.094 -0.773 -0.5 -0.828 -0.543 c -0.262 -0.195 -0.461 -0.355 -0.535 -0.426 c -0.051 -0.047 -0.133 -0.109 -0.18 -0.145 c -0.215 -0.156 -0.973 -0.957 -1.328 -1.398 c -0.273 -0.344 -0.633 -0.887 -0.863 -1.297 c -0.172 -0.309 -0.461 -0.902 -0.52 -1.07 c -0.023 -0.063 -0.066 -0.176 -0.098 -0.262 c -0.035 -0.082 -0.082 -0.211 -0.105 -0.289 c -0.023 -0.078 -0.07 -0.223 -0.105 -0.324 c -0.035 -0.105 -0.066 -0.207 -0.066 -0.23 c 0 -0.027 -0.008 -0.051 -0.02 -0.059 c -0.008 -0.004 -0.023 -0.043 -0.031 -0.082 c -0.023 -0.121 -0.082 -0.391 -0.102 -0.484 c -0.012 -0.051 -0.031 -0.137 -0.047 -0.195 c -0.039 -0.184 -0.094 -0.555 -0.129 -0.91 c -0.027 -0.281 -0.027 -1.688 0 -1.938 c 0.059 -0.5 0.078 -0.637 0.133 -0.875 c 0.012 -0.059 0.027 -0.137 0.035 -0.172 c 0.004 -0.035 0.02 -0.098 0.031 -0.141 c 0.008 -0.043 0.035 -0.152 0.055 -0.246 c 0.02 -0.098 0.063 -0.258 0.098 -0.355 c 0.031 -0.102 0.07 -0.227 0.086 -0.281 c 0.105 -0.363 0.328 -0.906 0.586 -1.434 c 0.105 -0.219 0.285 -0.547 0.32 -0.59 c 0.016 -0.02 0.047 -0.07 0.07 -0.109 c 0.059 -0.109 0.285 -0.453 0.348 -0.527 c 0.027 -0.039 0.074 -0.105 0.105 -0.152 c 0.027 -0.047 0.09 -0.137 0.141 -0.195 c 0.051 -0.059 0.117 -0.145 0.148 -0.191 c 0.16 -0.23 0.996 -1.09 1.383 -1.414 c 0.363 -0.305 0.887 -0.684 1.297 -0.934 c 0.453 -0.281 1.203 -0.648 1.676 -0.82 c 0.121 -0.043 0.234 -0.09 0.258 -0.102 c 0.02 -0.012 0.055 -0.02 0.078 -0.02 c 0.02 0 0.047 -0.008 0.059 -0.016 c 0.02 -0.02 0.191 -0.07 0.461 -0.145 c 0.074 -0.02 0.176 -0.051 0.23 -0.07 c 0.098 -0.031 0.16 -0.047 0.383 -0.09 c 0.063 -0.012 0.125 -0.027 0.145 -0.031 c 0.02 -0.008 0.102 -0.023 0.188 -0.035 c 0.082 -0.016 0.207 -0.035 0.273 -0.047 c 0.512 -0.09 0.836 -0.113 1.668 -0.113 c 0.82 0 1.176 0.027 1.668 0.113 c 0.066 0.012 0.184 0.031 0.258 0.043 c 0.191 0.027 0.57 0.113 0.777 0.176 c 0.027 0.008 0.094 0.027 0.141 0.039 c 0.344 0.094 0.895 0.281 1.148 0.395 c 0.059 0.023 0.148 0.066 0.203 0.09 c 0.777 0.336 1.547 0.793 2.191 1.309 c 0.523 0.418 0.551 0.441 0.938 0.828 c 0.336 0.332 0.434 0.438 0.688 0.734 c 0.219 0.262 0.859 1.168 0.859 1.223 c 0 0.012 0.023 0.051 0.051 0.09 c 0.059 0.07 0.309 0.551 0.457 0.863 c 0.176 0.383 0.457 1.129 0.457 1.219 c 0 0.023 0.012 0.047 0.023 0.055 c 0.012 0.008 0.023 0.035 0.023 0.063 c 0 0.031 0.008 0.059 0.02 0.063 c 0.008 0.008 0.023 0.039 0.031 0.074 c 0.004 0.031 0.023 0.102 0.035 0.156 c 0.043 0.168 0.09 0.395 0.102 0.484 c 0.008 0.047 0.023 0.094 0.035 0.105 c 0.008 0.012 0.02 0.063 0.02 0.113 c 0 0.051 0.008 0.098 0.016 0.102 c 0.012 0.008 0.027 0.07 0.035 0.137 c 0.008 0.07 0.023 0.191 0.035 0.277 c 0.051 0.336 0.063 0.637 0.063 1.344 c 0 0.707 -0.012 0.988 -0.063 1.328 c -0.012 0.082 -0.027 0.203 -0.035 0.27 c -0.008 0.063 -0.02 0.137 -0.031 0.16 c -0.012 0.023 -0.023 0.078 -0.031 0.117 c -0.004 0.043 -0.02 0.121 -0.031 0.172 c -0.047 0.195 -0.094 0.426 -0.105 0.492 c -0.008 0.039 -0.02 0.074 -0.031 0.082 c -0.012 0.008 -0.02 0.031 -0.02 0.059 c 0 0.023 -0.02 0.098 -0.043 0.164 c -0.023 0.066 -0.066 0.203 -0.098 0.305 c -0.059 0.184 -0.125 0.363 -0.18 0.484 c -0.016 0.035 -0.063 0.152 -0.102 0.258 c -0.043 0.109 -0.098 0.234 -0.121 0.281 c -0.027 0.047 -0.086 0.168 -0.137 0.27 c -0.117 0.242 -0.305 0.586 -0.344 0.625 c -0.016 0.02 -0.031 0.043 -0.031 0.055 c 0 0.039 -0.438 0.695 -0.582 0.871 c -0.035 0.047 -0.102 0.129 -0.141 0.184 c -0.406 0.531 -1.227 1.348 -1.723 1.715 c -0.363 0.27 -0.715 0.516 -0.871 0.613 c -0.098 0.059 -0.238 0.145 -0.316 0.195 c -0.117 0.074 -0.934 0.48 -1.121 0.563 c -0.547 0.227 -1.094 0.418 -1.449 0.496 c -0.07 0.016 -0.172 0.039 -0.219 0.051 c -0.047 0.012 -0.129 0.031 -0.176 0.043 c -0.047 0.012 -0.133 0.031 -0.188 0.043 c -0.055 0.012 -0.164 0.031 -0.242 0.043 c -0.078 0.012 -0.168 0.027 -0.195 0.035 c -0.059 0.016 -0.238 0.035 -0.594 0.074 c -0.254 0.027 -1.875 0.051 -1.898 0.027 m 4.078 -3.082 c 0.563 -0.125 1.09 -0.461 1.254 -0.801 c 0.066 -0.137 0.07 -0.156 0.066 -0.402 c 0 -0.23 -0.008 -0.277 -0.063 -0.422 c -0.074 -0.191 -0.188 -0.422 -0.289 -0.574 c -0.043 -0.063 -0.074 -0.125 -0.074 -0.137 c 0 -0.012 0.066 -0.102 0.145 -0.199 c 0.172 -0.207 0.348 -0.543 0.395 -0.758 c 0.039 -0.191 0.039 -0.438 0 -0.605 c -0.016 -0.07 -0.035 -0.195 -0.047 -0.277 c -0.035 -0.367 -0.191 -0.641 -0.785 -1.375 c -0.441 -0.547 -0.652 -0.824 -0.762 -1 c -0.145 -0.242 -0.207 -0.512 -0.371 -1.578 c -0.023 -0.16 -0.066 -0.383 -0.094 -0.492 c -0.023 -0.109 -0.043 -0.203 -0.039 -0.207 c 0.008 -0.004 0.16 0.016 0.34 0.043 c 0.855 0.137 1.559 0.207 2.113 0.211 c 0.344 0.004 0.43 -0.004 0.523 -0.035 c 0.316 -0.109 0.48 -0.453 0.344 -0.727 c -0.098 -0.195 -0.379 -0.434 -0.891 -0.754 c -0.418 -0.262 -0.926 -0.543 -1.43 -0.789 c -0.98 -0.473 -1.367 -0.578 -2.109 -0.578 c -0.43 0.004 -0.676 0.035 -1.01 0.129 c -0.336 0.094 -0.5 0.203 -0.676 0.453 l -0.063 0.094 h -0.238 c -0.254 0 -0.555 0.059 -0.762 0.152 c -0.059 0.023 -0.117 0.043 -0.141 0.043 c -0.02 0 -0.07 -0.066 -0.129 -0.18 c -0.188 -0.352 -0.625 -0.863 -1.297 -1.523 c -1.066 -1.043 -1.75 -1.547 -2.098 -1.551 c -0.207 0 -0.387 0.117 -0.488 0.313 c -0.051 0.098 -0.055 0.121 -0.047 0.301 c 0.016 0.242 0.129 0.625 0.344 1.152 c 0.398 0.988 1.117 2.441 1.652 3.34 l 0.176 0.289 l -0.027 0.23 c -0.031 0.297 -0.012 0.793 0.055 1.379 c 0.129 1.066 0.125 1.086 -0.051 2.156 c -0.063 0.359 -0.121 0.73 -0.133 0.816 c -0.008 0.09 -0.043 0.234 -0.074 0.32 c -0.148 0.398 -0.117 0.758 0.09 1.148 c 0.508 0.957 2.219 1.559 4.047 1.422 c 0.27 -0.023 0.789 -0.094 0.883 -0.121 c 0.027 -0.008 0.059 0.02 0.121 0.113 c 0.207 0.32 0.516 0.668 0.715 0.801 c 0.313 0.211 0.57 0.262 0.922 0.184 m -0.508 -1.078 c -0.105 -0.105 -0.207 -0.211 -0.223 -0.238 c -0.023 -0.051 -0.02 -0.055 0.113 -0.109 c 0.078 -0.031 0.27 -0.121 0.434 -0.203 c 0.16 -0.078 0.301 -0.141 0.313 -0.133 c 0.063 0.035 0.238 0.453 0.238 0.566 c 0 0.07 -0.387 0.262 -0.586 0.293 l -0.094 0.016 m -5.262 -4.051 c 0.004 -0.02 0.027 -0.156 0.047 -0.297 c 0.047 -0.32 0.047 -0.875 0 -1.434 c -0.074 -0.891 -0.082 -1.016 -0.07 -1.379 c 0.008 -0.328 0.016 -0.398 0.066 -0.551 c 0.031 -0.094 0.094 -0.223 0.137 -0.285 c 0.25 -0.363 0.828 -0.77 1.34 -0.934 c 0.449 -0.148 1.207 0.035 1.875 0.457 c 0.488 0.309 0.617 0.59 0.77 1.699 c 0.063 0.461 0.141 0.836 0.219 1.078 c 0.086 0.254 0.27 0.609 0.438 0.844 c 0.141 0.191 0.156 0.223 0.094 0.203 c -0.484 -0.145 -1.512 -0.223 -2.18 -0.164 c -0.898 0.082 -1.719 0.301 -2.414 0.648 c -0.164 0.082 -0.305 0.152 -0.313 0.152 c -0.012 0 -0.016 -0.02 -0.008 -0.039 m 1.793 -1.102 c 0.152 -0.07 0.301 -0.23 0.391 -0.414 c 0.078 -0.16 0.078 -0.164 0.078 -0.43 c 0 -0.27 0 -0.273 -0.082 -0.438 c -0.25 -0.492 -0.785 -0.602 -1.16 -0.234 c -0.449 0.445 -0.34 1.27 0.207 1.523 c 0.098 0.047 0.141 0.055 0.289 0.047 c 0.129 -0.004 0.203 -0.02 0.277 -0.055 m 1.785 -0.348 c 0.297 -0.148 0.477 -0.543 0.414 -0.906 c -0.051 -0.289 -0.211 -0.512 -0.449 -0.613 c -0.117 -0.051 -0.152 -0.059 -0.289 -0.051 c -0.098 0.008 -0.191 0.027 -0.246 0.055 c -0.133 0.07 -0.27 0.215 -0.348 0.371 c -0.063 0.133 -0.066 0.156 -0.066 0.391 c 0 0.227 0.004 0.258 0.059 0.375 c 0.078 0.16 0.234 0.324 0.379 0.391 c 0.148 0.074 0.387 0.066 0.547 -0.012 m 2.496 -3.215 c -0.371 -0.047 -0.977 -0.148 -1.449 -0.238 l -0.363 -0.066 l -0.188 -0.137 c -0.102 -0.074 -0.313 -0.203 -0.473 -0.281 l -0.285 -0.145 l 0.102 -0.031 c 0.145 -0.047 0.699 -0.043 0.953 0.004 c 0.238 0.047 0.586 0.18 1.031 0.391 c 0.555 0.27 1.078 0.559 0.988 0.547 c -0.012 0 -0.156 -0.02 -0.316 -0.043 m -6.855 -0.453 c -0.344 -0.609 -0.695 -1.297 -0.871 -1.707 c -0.168 -0.391 -0.207 -0.488 -0.18 -0.488 c 0.035 0 0.695 0.629 1 0.953 c 0.469 0.496 0.648 0.727 0.777 0.984 l 0.113 0.223 l -0.27 0.25 c -0.148 0.141 -0.277 0.254 -0.285 0.258 c -0.008 0.004 -0.137 -0.211 -0.289 -0.473" fill="#12cf18"/></svg>