<svg xmlns="http://www.w3.org/2000/svg" viewBox="0 0 24 24"><g fill="#d41919"><path d="m 17.14 0.289 c -34.516 -2.383 -8.645 43.656 6.02 13.34 c 2.02 -4.672 0.543 -11.637 -6.02 -13.34"/><path d="m 22.324 11.68 c 0 5.516 -4.688 9.988 -10.473 9.988 c -5.781 0 -10.473 -4.473 -10.473 -9.988 c 0 -5.516 4.691 -9.988 10.473 -9.988 c 5.785 0 10.473 4.469 10.473 9.988" fill-rule="evenodd"/></g><path d="m 18.512 11.727 c 0 3.527 -2.996 6.387 -6.695 6.387 c -3.695 0 -6.691 -2.859 -6.691 -6.387 c 0 -3.523 2.996 -6.383 6.691 -6.383 c 3.699 0 6.695 2.859 6.695 6.383" fill="#fff"/><path d="m 18.512 11.727 c 0 3.527 -2.996 6.387 -6.695 6.387 c -3.695 0 -6.691 -2.859 -6.691 -6.387 c 0 -3.523 2.996 -6.383 6.691 -6.383 c 3.699 0 6.695 2.859 6.695 6.383"/><path d="m 14.91 11.727 c 0 1.629 -1.383 2.949 -3.09 2.949 c -1.711 0 -3.094 -1.32 -3.094 -2.949 c 0 -1.625 1.383 -2.945 3.094 -2.945 c 1.707 0 3.09 1.32 3.09 2.945" fill="#fff"/><path d="m 12.98 12.449 c 0 0.137 -0.023 0.266 -0.07 0.383 c -0.047 0.113 -0.117 0.215 -0.211 0.297 c -0.094 0.086 -0.215 0.152 -0.359 0.199 c -0.148 0.047 -0.32 0.07 -0.52 0.07 c -0.199 0 -0.375 -0.023 -0.52 -0.07 c -0.145 -0.047 -0.266 -0.113 -0.363 -0.195 c -0.094 -0.086 -0.168 -0.184 -0.215 -0.301 c -0.043 -0.117 -0.066 -0.242 -0.066 -0.379 c 0 -0.117 0.02 -0.223 0.055 -0.316 c 0.039 -0.094 0.09 -0.172 0.152 -0.238 c 0.066 -0.066 0.137 -0.121 0.219 -0.16 c 0.082 -0.043 0.168 -0.07 0.254 -0.082 v -0.012 c -0.094 -0.02 -0.18 -0.055 -0.258 -0.102 c -0.074 -0.047 -0.137 -0.105 -0.188 -0.172 c -0.051 -0.066 -0.09 -0.141 -0.117 -0.223 c -0.023 -0.082 -0.035 -0.168 -0.035 -0.258 c 0 -0.113 0.02 -0.223 0.066 -0.32 c 0.047 -0.102 0.113 -0.191 0.203 -0.266 c 0.094 -0.078 0.203 -0.137 0.336 -0.18 c 0.137 -0.047 0.289 -0.066 0.465 -0.066 c 0.188 0 0.348 0.02 0.48 0.066 c 0.137 0.043 0.25 0.105 0.34 0.18 c 0.09 0.078 0.156 0.164 0.199 0.266 c 0.047 0.102 0.066 0.211 0.066 0.324 c 0 0.09 -0.012 0.176 -0.039 0.254 c -0.027 0.082 -0.066 0.156 -0.117 0.227 c -0.051 0.066 -0.113 0.121 -0.188 0.168 c -0.074 0.047 -0.16 0.078 -0.262 0.098 v 0.008 c 0.102 0.016 0.191 0.047 0.273 0.086 c 0.086 0.043 0.156 0.094 0.219 0.164 c 0.063 0.066 0.109 0.145 0.145 0.234 c 0.035 0.094 0.055 0.199 0.055 0.316 m -0.539 -1.531 c 0 -0.082 -0.008 -0.156 -0.031 -0.223 c -0.023 -0.07 -0.059 -0.129 -0.105 -0.176 c -0.051 -0.047 -0.117 -0.086 -0.199 -0.113 c -0.078 -0.027 -0.18 -0.039 -0.297 -0.039 c -0.113 0 -0.211 0.012 -0.289 0.039 c -0.078 0.027 -0.145 0.066 -0.195 0.113 c -0.051 0.047 -0.086 0.105 -0.109 0.176 c -0.023 0.066 -0.035 0.141 -0.035 0.223 c 0 0.063 0.012 0.129 0.027 0.199 c 0.02 0.066 0.051 0.129 0.098 0.184 c 0.047 0.055 0.109 0.102 0.191 0.137 c 0.082 0.035 0.188 0.051 0.316 0.051 c 0.141 0 0.25 -0.016 0.332 -0.051 c 0.082 -0.035 0.145 -0.082 0.191 -0.137 c 0.043 -0.055 0.07 -0.117 0.086 -0.184 c 0.016 -0.07 0.02 -0.137 0.02 -0.199 m 0.086 1.492 c 0 -0.078 -0.012 -0.156 -0.035 -0.227 c -0.02 -0.074 -0.059 -0.141 -0.113 -0.195 c -0.055 -0.055 -0.129 -0.102 -0.223 -0.137 c -0.094 -0.035 -0.207 -0.051 -0.348 -0.051 c -0.125 0 -0.234 0.016 -0.324 0.051 c -0.09 0.035 -0.164 0.082 -0.219 0.137 c -0.055 0.059 -0.094 0.125 -0.121 0.199 c -0.023 0.074 -0.039 0.152 -0.039 0.23 c 0 0.102 0.016 0.191 0.039 0.273 c 0.027 0.082 0.066 0.152 0.125 0.215 c 0.055 0.055 0.129 0.102 0.223 0.133 c 0.09 0.035 0.203 0.051 0.332 0.051 c 0.133 0 0.242 -0.016 0.332 -0.051 c 0.094 -0.031 0.164 -0.078 0.219 -0.133 c 0.055 -0.063 0.094 -0.133 0.117 -0.215 c 0.023 -0.086 0.035 -0.18 0.035 -0.281"/></svg>