<svg xmlns="http://www.w3.org/2000/svg" xmlns:xlink="http://www.w3.org/1999/xlink" viewBox="0 0 24 24"><defs><g id="3" clip-path="url(#2)"><path d="m 6.199 16.402 l -0.262 0.824 h -0.164 l -0.176 -0.578 c -0.008 -0.027 -0.012 -0.055 -0.016 -0.082 h -0.004 c 0 0.023 -0.008 0.047 -0.016 0.078 l -0.191 0.582 h -0.16 l -0.266 -0.824 h 0.164 l 0.176 0.609 c 0.008 0.02 0.012 0.043 0.012 0.074 h 0.008 c 0.004 -0.027 0.008 -0.051 0.016 -0.074 l 0.191 -0.609 h 0.145 l 0.184 0.609 c 0.008 0.02 0.012 0.043 0.016 0.078 h 0.004 c 0.004 -0.023 0.008 -0.047 0.016 -0.078 l 0.172 -0.609" fill="#fff"/><path d="m 7.922 16.402 l -0.262 0.824 h -0.164 l -0.176 -0.578 c -0.008 -0.027 -0.012 -0.055 -0.016 -0.082 h -0.004 c 0 0.023 -0.008 0.047 -0.016 0.078 l -0.191 0.582 h -0.16 l -0.266 -0.824 h 0.164 l 0.176 0.609 c 0.008 0.02 0.012 0.043 0.012 0.074 h 0.008 c 0.004 -0.027 0.008 -0.051 0.016 -0.074 l 0.191 -0.609 h 0.145 l 0.184 0.609 c 0.008 0.02 0.012 0.043 0.016 0.078 h 0.004 c 0.004 -0.023 0.008 -0.047 0.016 -0.078 l 0.172 -0.609" fill="#fff"/><path d="m 9.645 16.402 l -0.262 0.824 h -0.164 l -0.176 -0.578 c -0.008 -0.027 -0.012 -0.055 -0.016 -0.082 h -0.004 c 0 0.023 -0.008 0.047 -0.016 0.078 l -0.191 0.582 h -0.16 l -0.266 -0.824 h 0.164 l 0.176 0.609 c 0.008 0.02 0.012 0.043 0.012 0.074 h 0.008 c 0.004 -0.027 0.008 -0.051 0.016 -0.074 l 0.191 -0.609 h 0.145 l 0.184 0.609 c 0.008 0.02 0.012 0.043 0.016 0.078 h 0.004 c 0.004 -0.023 0.008 -0.047 0.016 -0.078 l 0.172 -0.609" fill="#fff"/><path d="m 10.08 17.15 c 0 -0.027 0.008 -0.051 0.027 -0.066 c 0.02 -0.02 0.047 -0.027 0.074 -0.027 c 0.031 0 0.055 0.008 0.074 0.027 c 0.02 0.02 0.031 0.039 0.031 0.066 c 0 0.027 -0.012 0.051 -0.031 0.066 c -0.02 0.02 -0.043 0.031 -0.074 0.031 c -0.031 0 -0.055 -0.012 -0.074 -0.031 c -0.02 -0.02 -0.027 -0.039 -0.027 -0.066" fill="#fff"/><path d="m 11.07 17.227 v -0.988 c -0.023 0.02 -0.066 0.047 -0.125 0.074 c -0.059 0.031 -0.113 0.051 -0.16 0.063 v -0.145 c 0.063 -0.016 0.133 -0.043 0.207 -0.082 c 0.074 -0.035 0.133 -0.07 0.176 -0.105 h 0.059 v 1.184" fill="#fff"/><path d="m 12.668 16.219 c -0.066 -0.031 -0.133 -0.047 -0.203 -0.047 c -0.109 0 -0.195 0.043 -0.258 0.129 c -0.066 0.09 -0.098 0.207 -0.102 0.359 h 0.004 c 0.059 -0.105 0.152 -0.16 0.281 -0.16 c 0.109 0 0.191 0.031 0.258 0.098 c 0.063 0.066 0.094 0.152 0.094 0.262 c 0 0.109 -0.035 0.203 -0.109 0.277 c -0.074 0.074 -0.168 0.109 -0.281 0.109 c -0.125 0 -0.227 -0.047 -0.297 -0.141 c -0.07 -0.09 -0.109 -0.219 -0.109 -0.391 c 0 -0.203 0.047 -0.363 0.141 -0.484 c 0.098 -0.121 0.219 -0.18 0.375 -0.18 c 0.086 0 0.156 0.012 0.207 0.031 m -0.551 0.766 c 0 0.074 0.02 0.141 0.063 0.195 c 0.047 0.055 0.102 0.082 0.176 0.082 c 0.066 0 0.121 -0.023 0.164 -0.07 c 0.043 -0.047 0.066 -0.105 0.066 -0.18 c 0 -0.082 -0.023 -0.145 -0.063 -0.188 c -0.039 -0.043 -0.098 -0.066 -0.172 -0.066 c -0.07 0 -0.125 0.023 -0.172 0.066 c -0.043 0.047 -0.063 0.098 -0.063 0.16" fill="#fff"/><path d="m 13.277 17.03 c 0.086 0.063 0.18 0.09 0.289 0.09 c 0.082 0 0.152 -0.02 0.199 -0.059 c 0.051 -0.039 0.078 -0.09 0.078 -0.156 c 0 -0.145 -0.113 -0.219 -0.34 -0.219 h -0.102 v -0.121 h 0.098 c 0.199 0 0.301 -0.066 0.301 -0.207 c 0 -0.125 -0.078 -0.188 -0.23 -0.188 c -0.086 0 -0.168 0.027 -0.246 0.082 v -0.141 c 0.082 -0.043 0.176 -0.063 0.285 -0.063 c 0.105 0 0.191 0.023 0.254 0.074 c 0.066 0.051 0.098 0.121 0.098 0.203 c 0 0.148 -0.082 0.246 -0.25 0.289 v 0.004 c 0.09 0.012 0.16 0.039 0.215 0.09 c 0.051 0.047 0.078 0.109 0.078 0.188 c 0 0.102 -0.043 0.188 -0.121 0.25 c -0.082 0.063 -0.188 0.094 -0.32 0.094 c -0.117 0 -0.211 -0.02 -0.285 -0.059" fill="#fff"/><path d="m 14.566 17.15 c 0 -0.027 0.012 -0.051 0.031 -0.066 c 0.02 -0.02 0.043 -0.027 0.07 -0.027 c 0.031 0 0.055 0.008 0.074 0.027 c 0.023 0.02 0.031 0.039 0.031 0.066 c 0 0.027 -0.008 0.051 -0.031 0.066 c -0.02 0.02 -0.043 0.031 -0.074 0.031 c -0.027 0 -0.055 -0.012 -0.07 -0.031 c -0.02 -0.02 -0.031 -0.039 -0.031 -0.066" fill="#fff"/><path d="m 15.965 17.188 c -0.066 0.039 -0.148 0.059 -0.242 0.059 c -0.129 0 -0.234 -0.039 -0.313 -0.117 c -0.074 -0.074 -0.113 -0.176 -0.113 -0.297 c 0 -0.137 0.039 -0.242 0.125 -0.328 c 0.082 -0.082 0.195 -0.125 0.336 -0.125 c 0.082 0 0.152 0.016 0.207 0.043 v 0.145 c -0.063 -0.043 -0.129 -0.066 -0.207 -0.066 c -0.09 0 -0.16 0.031 -0.219 0.09 c -0.055 0.055 -0.082 0.133 -0.082 0.23 c 0 0.094 0.023 0.168 0.078 0.223 c 0.055 0.055 0.125 0.082 0.215 0.082 c 0.074 0 0.148 -0.023 0.215 -0.07" fill="#fff"/><path d="m 16.477 16.82 c 0 -0.133 0.039 -0.242 0.121 -0.32 c 0.082 -0.078 0.195 -0.117 0.332 -0.117 c 0.133 0 0.238 0.035 0.313 0.113 c 0.078 0.074 0.113 0.18 0.113 0.313 c 0 0.133 -0.039 0.238 -0.121 0.316 c -0.078 0.082 -0.188 0.121 -0.324 0.121 c -0.129 0 -0.234 -0.039 -0.316 -0.117 c -0.078 -0.078 -0.117 -0.18 -0.117 -0.309 m 0.16 -0.004 c 0 0.098 0.027 0.172 0.078 0.227 c 0.051 0.055 0.121 0.082 0.207 0.082 c 0.09 0 0.156 -0.027 0.203 -0.082 c 0.047 -0.051 0.07 -0.129 0.07 -0.23 c 0 -0.098 -0.023 -0.176 -0.07 -0.23 c -0.047 -0.055 -0.113 -0.082 -0.203 -0.082 c -0.09 0 -0.156 0.031 -0.207 0.086 c -0.055 0.055 -0.078 0.133 -0.078 0.23" fill="#fff"/><path d="m 19.219 17.227 h -0.16 v -0.477 c 0 -0.086 -0.012 -0.152 -0.043 -0.191 c -0.031 -0.039 -0.078 -0.059 -0.148 -0.059 c -0.059 0 -0.105 0.027 -0.148 0.078 c -0.039 0.051 -0.059 0.109 -0.059 0.176 v 0.473 h -0.16 v -0.488 c 0 -0.156 -0.063 -0.238 -0.191 -0.238 c -0.063 0 -0.109 0.027 -0.148 0.074 c -0.039 0.047 -0.059 0.109 -0.059 0.184 v 0.469 h -0.156 v -0.824 h 0.156 v 0.129 c 0.066 -0.102 0.156 -0.148 0.277 -0.148 c 0.059 0 0.113 0.016 0.156 0.043 c 0.047 0.031 0.078 0.074 0.094 0.125 c 0.066 -0.113 0.164 -0.168 0.297 -0.168 c 0.195 0 0.293 0.109 0.293 0.336" fill="#fff"/></g><clipPath id="2"><path d="M 0,0 H24 V24 H0 z"/></clipPath><filter id="0" filterUnits="objectBoundingBox" x="0" y="0" width="24" height="24"><feColorMatrix type="matrix" in="SourceGraphic" values="0 0 0 0 1 0 0 0 0 1 0 0 0 0 1 0 0 0 1 0"/></filter><mask id="1"><g filter="url(#0)"><path fill-opacity="0.6" d="M 0,0 H24 V24 H0 z"/></g></mask></defs><path d="m 23.22 8.703 c 4.48 12.504 -11.621 18.586 -17.672 13.496 c -6.05 -5.094 -8.117 -13.82 -1.266 -18.207 c 6.855 -4.391 14.457 -7.797 18.938 4.711" fill="#de2f30"/><g fill="#fff" fill-rule="evenodd"><path d="m 5.05 13.207 l -0.02 0.02 l -0.031 0.047 l -0.02 0.027 l -0.023 0.047 l -0.016 0.027 l -0.008 0.023 l -0.008 0.027 l -0.008 0.031 l -0.008 0.023 l -0.008 0.027 l -0.004 0.027 v 0.027 l -0.004 0.031 v 0.027 l -0.016 0.078 l -0.004 0.039 l -0.023 0.07 l -0.012 0.031 l -0.016 0.031 l -0.012 0.031 l -0.016 0.078 l -0.004 0.035 l -0.004 0.039 v 0.035 l 0.004 0.039 l 0.004 0.035 l 0.008 0.039 l 0.008 0.027 l 0.012 0.031 l 0.016 0.027 l 0.02 0.023 l 0.02 0.02 l 0.027 0.016 l 0.023 0.012 l 0.031 0.012 l 0.035 0.004 l 0.027 0.004 h 0.063 l 0.023 -0.008 l 0.027 -0.004 l 0.023 -0.016 l 0.023 -0.008 l 0.02 -0.016 l 0.023 -0.016 l 0.016 -0.02 l 0.02 -0.023 l 0.012 -0.023 l 0.012 -0.027 l 0.016 -0.035 l 0.008 -0.031 l 0.023 -0.07 l 0.023 -0.063 l 0.027 -0.063 l 0.023 -0.055 l 0.02 -0.027 l 0.023 -0.023 l 0.016 -0.023 l 0.02 -0.031 l 0.02 -0.027 l 0.012 -0.027 l 0.016 -0.031 l 0.016 -0.027 l 0.008 -0.035 l 0.012 -0.027 l 0.008 -0.031 v -0.031 l 0.004 -0.031 l -0.004 -0.035 l -0.004 -0.031 l -0.012 -0.035 l -0.004 -0.07 l 0.004 -0.07 l 0.004 -0.063 l 0.004 -0.07 l 0.02 -0.043 l 0.008 -0.039 l 0.004 -0.043 v -0.074 l -0.004 -0.035 l -0.008 -0.027 l -0.02 -0.031 l -0.02 -0.027 l -0.027 -0.02 l -0.023 -0.02 l -0.027 -0.012 l -0.008 -0.004 l -0.02 -0.004 h -0.055 l -0.031 0.004 l -0.016 0.008 l -0.02 0.008 l -0.012 0.012 l -0.02 0.008 l -0.023 0.023 l -0.012 0.016 l -0.012 0.012 l -0.023 0.035 l -0.02 0.039 l -0.016 0.043 l -0.016 0.051 l -0.008 0.02 l -0.012 0.027 l -0.012 0.016 l -0.012 0.027 l -0.016 0.02 l -0.02 0.02 l -0.016 0.023 m 0.918 -0.09 l -0.016 0.117 l -0.016 0.098 l -0.012 0.078 l -0.012 0.063 l -0.004 0.035 v 0.16 l 0.008 0.07 l 0.008 0.078 l 0.012 0.086 l 0.016 0.094 v 0.031 l 0.004 0.027 l 0.004 0.031 l 0.012 0.031 l 0.012 0.035 l 0.02 0.031 l 0.02 0.035 l 0.023 0.035 l 0.02 0.031 l 0.016 0.031 l 0.023 0.02 l 0.016 0.02 l 0.02 0.016 l 0.016 0.008 l 0.023 0.004 l 0.016 0.004 l 0.039 -0.008 l 0.02 -0.008 l 0.023 -0.012 l 0.02 -0.012 l 0.02 -0.02 l 0.023 -0.02 l 0.027 -0.023 l 0.023 -0.039 l 0.02 -0.035 l 0.016 -0.031 l 0.008 -0.035 v -0.027 l 0.008 -0.035 l 0.004 -0.043 l 0.004 -0.051 l 0.016 -0.039 l 0.012 -0.039 l 0.016 -0.039 l 0.008 -0.039 l 0.004 -0.035 l 0.004 -0.039 v -0.039 l -0.004 -0.035 l -0.016 -0.086 l -0.008 -0.039 l -0.008 -0.043 v -0.047 l -0.004 -0.047 v -0.094 l 0.004 -0.027 v -0.027 l -0.004 -0.027 v -0.027 l -0.012 -0.066 l -0.016 -0.063 l -0.016 -0.023 l -0.012 -0.02 l -0.02 -0.023 l -0.012 -0.016 l -0.02 -0.016 l -0.07 -0.035 l -0.035 -0.012 l -0.035 -0.008 l -0.027 -0.004 l -0.023 -0.004 l -0.02 0.004 l -0.016 0.004 l -0.012 0.004 l -0.004 0.004 l -0.004 0.008 l -0.016 0.016 l -0.02 0.016 l -0.016 0.008 l -0.035 0.012 l -0.008 0.004 l -0.004 0.012 l -0.012 0.012 l -0.02 0.035 m 0.801 -0.145 l 0.008 0.055 l 0.008 0.047 l 0.004 0.035 l 0.004 0.031 v 0.016 l 0.004 0.027 l 0.004 0.02 l 0.012 0.031 l 0.023 0.066 l 0.035 0.082 l 0.008 0.031 l 0.016 0.027 l 0.012 0.027 l 0.023 0.031 l 0.02 0.031 l 0.031 0.023 l 0.035 0.035 l 0.035 0.027 l 0.027 0.027 l 0.027 0.023 l 0.023 0.016 l 0.031 0.012 l 0.02 0.012 l 0.023 0.004 l 0.012 0.004 l 0.004 -0.004 l 0.023 -0.008 l 0.039 -0.016 l 0.016 -0.012 l 0.016 -0.02 l 0.02 -0.02 l 0.016 -0.027 l 0.02 -0.027 l 0.016 -0.035 l 0.012 -0.043 l 0.008 -0.043 l 0.004 -0.039 l -0.004 -0.035 v -0.031 l -0.004 -0.039 l -0.023 -0.086 l 0.004 -0.031 v -0.043 l -0.004 -0.023 l -0.008 -0.023 l -0.012 -0.023 l -0.008 -0.055 l -0.016 -0.055 l -0.012 -0.031 l -0.012 -0.023 l -0.012 -0.031 l -0.016 -0.031 l -0.039 -0.055 l -0.02 -0.023 l -0.016 -0.02 l -0.023 -0.016 l -0.023 -0.012 l -0.027 -0.016 l -0.023 -0.008 h -0.031 l -0.027 -0.004 h -0.07 l -0.027 0.008 h -0.031 l -0.016 0.008 l -0.016 0.012 l -0.016 0.008 v 0.008 l -0.004 0.004 l -0.023 0.047 l -0.02 0.016 l -0.012 0.016 l -0.012 0.004 l -0.008 0.012 l -0.004 0.008 l -0.008 0.012 l -0.008 0.047 m -1.527 -0.508 l 0.027 0.02 l 0.023 0.02 l 0.023 0.016 l 0.027 0.016 l 0.027 0.012 l 0.023 0.016 l 0.027 0.012 l 0.027 0.008 l 0.023 0.012 l 0.055 0.008 l 0.023 0.008 h 0.027 l 0.027 0.004 h 0.027 l 0.027 -0.004 h 0.031 l 0.07 0.008 l 0.035 0.008 l 0.035 0.012 l 0.031 0.012 l 0.043 0.02 l 0.035 0.016 l 0.023 0.016 l 0.031 0.016 l 0.031 0.008 l 0.027 0.004 h 0.09 l 0.031 -0.004 l 0.047 -0.012 l 0.051 -0.012 l 0.051 -0.008 h 0.051 l 0.031 -0.004 l 0.035 -0.004 l 0.027 -0.004 l 0.031 -0.004 l 0.031 -0.012 l 0.027 -0.012 l 0.027 -0.008 l 0.027 -0.012 l 0.02 -0.012 l 0.027 -0.016 l 0.023 -0.012 l 0.023 -0.016 l 0.078 -0.078 l 0.023 -0.031 l 0.027 -0.023 l 0.027 -0.027 l 0.031 -0.027 l 0.027 -0.023 l 0.027 -0.027 l 0.035 -0.023 l 0.035 -0.02 l 0.035 -0.027 l 0.031 -0.023 l 0.023 -0.023 l 0.02 -0.023 l 0.039 -0.016 l 0.027 -0.02 l 0.031 -0.023 l 0.031 -0.027 l 0.023 -0.031 l 0.016 -0.027 l 0.016 -0.031 l 0.012 -0.031 l 0.012 -0.035 l 0.008 -0.039 l 0.008 -0.035 v -0.102 l -0.004 -0.02 l -0.008 -0.047 l -0.016 -0.047 l -0.012 -0.043 l -0.012 -0.051 l -0.016 -0.063 l -0.004 -0.07 l -0.004 -0.035 l -0.004 -0.027 l -0.016 -0.063 l -0.016 -0.074 l -0.027 -0.074 l -0.008 -0.023 l -0.008 -0.02 l -0.012 -0.02 l -0.012 -0.016 l -0.008 -0.012 l -0.012 -0.02 l -0.012 -0.004 l -0.012 -0.012 l -0.023 -0.027 l -0.023 -0.031 l -0.02 -0.031 l -0.016 -0.031 l -0.008 -0.023 l -0.012 -0.02 l -0.008 -0.02 l -0.039 -0.039 l -0.02 -0.012 l -0.02 -0.008 l -0.012 -0.008 l -0.012 -0.004 l -0.016 -0.02 l -0.008 -0.02 l -0.008 -0.004 l -0.008 -0.008 l -0.008 -0.055 l -0.004 -0.047 l -0.008 -0.043 l -0.008 -0.039 v -0.012 l -0.004 -0.012 v -0.008 l 0.004 -0.023 l 0.016 -0.039 l 0.012 -0.02 l 0.004 -0.012 l 0.004 -0.02 l 0.008 -0.016 l 0.004 -0.016 l 0.008 -0.016 l 0.043 -0.043 l 0.055 -0.047 l 0.031 -0.02 l 0.035 -0.023 l 0.035 -0.016 l 0.039 -0.02 l 0.047 -0.016 l 0.043 -0.012 l 0.016 -0.008 l 0.02 -0.008 l 0.02 -0.012 l 0.012 -0.012 l 0.02 -0.023 l 0.031 -0.047 l 0.016 -0.031 l 0.004 -0.023 l 0.008 -0.02 v -0.094 l -0.008 -0.023 l -0.004 -0.02 l -0.012 -0.023 l -0.008 -0.02 v -0.023 l -0.004 -0.02 v -0.02 l 0.008 -0.031 l 0.008 -0.02 l 0.004 -0.008 l 0.004 -0.016 v -0.02 l -0.008 -0.016 l -0.008 -0.02 l -0.012 -0.023 l -0.016 -0.023 l -0.016 -0.027 l -0.02 -0.023 l -0.035 -0.035 l -0.016 -0.02 l -0.023 -0.016 l -0.02 -0.016 l -0.039 -0.023 l -0.023 -0.016 l -0.02 -0.012 l -0.027 -0.004 l -0.047 -0.016 l -0.023 -0.004 l -0.027 -0.004 l -0.023 -0.004 h -0.035 l -0.031 -0.008 l -0.031 -0.004 l -0.039 -0.016 l -0.016 -0.004 l -0.012 -0.004 h -0.016 l -0.031 0.008 l -0.023 0.016 l -0.023 0.012 l -0.023 0.008 l -0.027 0.012 l -0.023 0.004 h -0.023 l -0.023 0.004 l -0.016 0.004 l -0.02 0.008 l -0.016 0.012 l -0.027 0.027 l -0.008 0.02 l -0.012 0.027 l -0.008 0.027 l -0.008 0.023 v 0.016 l 0.004 0.02 l 0.008 0.016 l 0.008 0.012 l 0.012 0.012 l 0.035 0.016 l 0.031 0.02 l 0.02 0.016 l 0.023 0.02 l 0.027 0.027 l 0.008 0.02 l 0.008 0.012 l 0.004 0.016 l 0.004 0.012 v 0.016 l -0.004 0.012 l -0.004 0.016 l -0.008 0.012 l -0.023 0.031 l -0.016 0.016 l -0.016 0.023 l -0.016 0.035 l -0.012 0.039 l -0.008 0.023 l -0.023 0.047 l -0.008 0.02 l -0.016 0.02 l -0.031 0.031 l -0.02 0.012 l -0.016 0.012 l -0.012 0.016 l -0.012 0.02 l -0.012 0.023 l -0.012 0.027 l -0.008 0.016 l -0.008 0.02 l -0.02 0.016 l -0.012 0.008 l -0.016 0.008 l -0.02 0.008 l -0.031 0.008 l -0.023 0.008 l -0.016 0.008 l -0.027 0.02 l -0.031 0.027 l -0.016 0.016 l -0.02 0.012 l -0.023 0.012 l -0.016 0.004 h -0.027 l -0.047 -0.012 l -0.039 -0.02 l -0.02 -0.008 l -0.031 -0.008 l -0.035 -0.004 l -0.059 -0.012 l -0.016 -0.008 l -0.012 -0.012 l -0.012 -0.008 l -0.008 -0.012 l -0.004 -0.016 l -0.004 -0.008 l -0.004 -0.004 l -0.004 -0.008 l -0.012 -0.004 l -0.016 -0.012 l -0.023 -0.012 l -0.023 -0.016 l -0.035 -0.035 l -0.035 -0.047 l -0.039 -0.055 l -0.012 -0.035 v -0.047 l 0.004 -0.039 l 0.008 -0.039 l 0.016 -0.039 l 0.016 -0.043 l 0.02 -0.047 l 0.012 -0.047 l 0.004 -0.035 l 0.012 -0.031 l 0.008 -0.027 l 0.012 -0.027 l 0.016 -0.016 l 0.008 -0.02 l 0.012 -0.012 l 0.008 -0.004 l 0.012 -0.004 l 0.012 -0.023 l 0.02 -0.027 l 0.02 -0.047 l 0.016 -0.039 l 0.02 -0.035 l 0.008 -0.016 l 0.012 -0.016 l 0.023 -0.023 l 0.012 -0.004 l 0.02 -0.02 l 0.008 -0.012 l 0.008 -0.016 l 0.004 -0.016 l 0.008 -0.016 v -0.02 l 0.008 -0.027 l 0.012 -0.023 l 0.023 -0.031 l 0.023 -0.035 l 0.035 -0.035 l 0.023 -0.008 l 0.008 -0.004 h 0.043 l 0.016 -0.004 l 0.02 -0.016 l 0.035 -0.023 l 0.012 -0.012 l 0.031 -0.008 l 0.012 -0.004 h 0.035 l 0.02 0.004 h 0.035 l 0.031 -0.008 l 0.02 -0.004 l 0.012 -0.008 l 0.016 -0.008 l 0.016 -0.012 l 0.012 -0.004 l 0.008 -0.008 l 0.012 -0.004 l 0.016 -0.004 l 0.012 -0.004 h 0.043 l 0.02 0.004 h 0.02 l 0.016 -0.008 l 0.023 -0.004 l 0.023 -0.008 l 0.027 -0.012 l 0.023 -0.02 l 0.027 -0.016 l 0.031 -0.023 l 0.012 -0.008 l 0.008 -0.012 l 0.012 -0.02 l 0.004 -0.016 l 0.008 -0.047 v -0.082 l -0.004 -0.012 l -0.004 -0.02 l -0.004 -0.016 l -0.02 -0.035 l -0.02 -0.031 l -0.023 -0.031 l -0.035 -0.031 l -0.031 -0.035 l -0.082 -0.055 l -0.035 -0.012 l -0.039 -0.012 l -0.035 -0.008 l -0.031 -0.012 h -0.07 l -0.027 0.012 h -0.023 l -0.031 -0.008 l -0.035 -0.004 l -0.043 -0.016 l -0.055 -0.008 h -0.051 l -0.02 0.004 l -0.023 0.004 l -0.016 0.008 l -0.023 0.008 l -0.02 0.012 l -0.027 0.012 l -0.063 0.008 h -0.02 l -0.008 0.004 l -0.012 0.004 l -0.02 0.016 l -0.023 0.023 l -0.02 0.027 l -0.031 0.035 l -0.023 0.047 l -0.027 0.047 l -0.016 0.023 l -0.008 0.02 l -0.012 0.016 l -0.043 0.043 l -0.023 0.008 l -0.012 0.012 l -0.016 0.008 l -0.008 0.012 l -0.008 0.016 l -0.008 0.012 l -0.016 0.031 v 0.012 l -0.004 0.012 l -0.004 0.016 l -0.004 0.008 l -0.016 0.016 l -0.016 0.012 l -0.008 0.008 l -0.023 0.02 l -0.059 0.082 l -0.008 0.031 l -0.016 0.027 l -0.012 0.023 l -0.027 0.027 l -0.016 0.023 l -0.02 0.027 l -0.02 0.035 l -0.051 0.09 l -0.063 0.113 l -0.031 0.059 l -0.023 0.051 l -0.02 0.043 l -0.016 0.039 l -0.016 0.035 l -0.008 0.031 l -0.008 0.027 v 0.047 l -0.004 0.012 l -0.012 0.023 l -0.016 0.023 l -0.012 0.012 l -0.012 0.008 l -0.008 0.016 l -0.008 0.02 l -0.004 0.031 l -0.008 0.031 v 0.133 l 0.012 0.047 l 0.008 0.016 l 0.004 0.016 l 0.012 0.012 l 0.012 0.016 l 0.023 0.023 l 0.012 0.016 l 0.016 0.023 l 0.004 0.012 v 0.063 l 0.008 0.016 l 0.004 0.012 l 0.004 0.008 l 0.012 0.016 l 0.012 0.008 l 0.016 0.008 l 0.016 0.012 l 0.023 0.012 l 0.016 0.02 l 0.02 0.016 l 0.008 0.016 l 0.008 0.02 l 0.016 0.016 l 0.02 0.012 l 0.023 0.02 l 0.023 0.008 l 0.055 0.031 h 0.012 l 0.012 0.004 l 0.023 0.012 l 0.012 0.012 l 0.016 0.012 l 0.023 0.031 l 0.02 0.023 l 0.016 0.031 l 0.008 0.023 l 0.004 0.031 l 0.016 0.027 l 0.008 0.031 l 0.004 0.031 v 0.059 l -0.016 0.063 l -0.016 0.031 l -0.02 0.031 l -0.023 0.035 l -0.016 0.031 l -0.016 0.027 l -0.012 0.035 l -0.008 0.027 l -0.008 0.055 l -0.004 0.023 l -0.004 0.027 l -0.008 0.02 l -0.012 0.023 l -0.012 0.012 l -0.012 0.02 l -0.016 0.012 l -0.016 0.008 l -0.016 0.004 l -0.016 0.012 l -0.023 0.023 l -0.031 0.027 l -0.023 0.031 l -0.031 0.043 l -0.027 0.047 l -0.023 0.051 l -0.031 0.063 l -0.031 0.07 l -0.008 0.031 l -0.012 0.035 l -0.004 0.027 v 0.059 l 0.004 0.031 l 0.016 0.051 l 0.004 0.051 l 0.004 0.043 v 0.043 l -0.004 0.016 l 0.004 0.016 v 0.02 l 0.008 0.016 l 0.012 0.047 l 0.02 0.047 l 0.023 0.051 l 0.027 0.059 l 0.035 0.063 m 1.363 -1.418 l 0.012 0.012 l 0.008 0.012 l 0.004 0.008 l 0.004 0.012 l 0.004 0.016 l 0.008 0.012 l 0.016 0.012 l 0.012 0.016 l 0.023 0.027 l 0.02 0.031 l 0.023 0.035 l 0.016 0.035 l 0.008 0.031 l 0.012 0.023 l 0.008 0.02 l 0.008 0.016 l 0.023 0.031 l 0.008 0.02 l 0.012 0.02 l 0.008 0.027 l 0.008 0.023 l 0.008 0.063 v 0.098 l -0.004 0.031 v 0.027 l -0.012 0.027 l -0.008 0.023 l -0.004 0.027 l -0.016 0.039 l -0.008 0.047 l -0.008 0.055 v 0.078 l -0.023 0.031 l -0.023 0.023 l -0.055 0.047 l -0.023 0.023 l -0.035 0.02 l -0.031 0.016 l -0.027 0.016 l -0.035 0.012 l -0.031 0.008 l -0.027 0.012 l -0.031 0.004 l -0.023 0.004 l -0.027 0.004 h -0.02 l -0.023 -0.004 l -0.012 -0.004 l -0.02 -0.004 l -0.016 -0.004 l -0.016 0.004 l -0.023 0.004 l -0.02 0.004 l -0.023 0.008 l -0.023 0.004 l -0.031 0.008 h -0.027 l -0.02 -0.004 l -0.012 -0.004 l -0.02 -0.008 l -0.02 -0.016 l -0.012 -0.004 l -0.016 -0.008 l -0.012 -0.004 l -0.023 -0.004 l -0.043 -0.008 l -0.051 -0.004 h -0.02 l -0.047 -0.008 l -0.016 -0.008 l -0.027 -0.004 l -0.016 -0.008 l -0.023 -0.008 l -0.02 -0.012 l -0.027 -0.027 l -0.047 -0.063 l -0.016 -0.031 l -0.02 -0.031 l -0.023 -0.063 l -0.008 -0.031 v -0.039 l 0.008 -0.023 l 0.012 -0.016 l 0.012 -0.02 l 0.016 -0.023 l 0.02 -0.02 l 0.02 -0.023 l 0.035 -0.035 l 0.012 -0.023 l 0.016 -0.023 l 0.008 -0.023 l 0.012 -0.027 l 0.004 -0.027 l 0.004 -0.031 v -0.02 l 0.031 -0.063 l 0.051 -0.051 l 0.023 -0.012 l 0.035 -0.027 l 0.031 -0.023 l 0.027 -0.023 l 0.023 -0.027 l 0.027 -0.031 l 0.039 -0.063 l 0.016 -0.031 l 0.008 -0.023 l 0.012 -0.02 l 0.016 -0.023 l 0.012 -0.008 l 0.02 -0.016 l 0.016 -0.012 l 0.023 -0.008 l 0.055 -0.008 h 0.027 l 0.027 -0.004 l 0.02 -0.012 l 0.023 -0.008 l 0.02 -0.008 l 0.02 -0.012 l 0.016 -0.016 v -0.004 h 0.008 l 0.055 0.016 l 0.047 0.016 l 0.047 0.02 m 2.211 -0.988 l 0.012 0.055 v 0.047 l 0.008 0.035 l 0.004 0.027 v 0.016 l 0.004 0.023 l 0.008 0.023 l 0.012 0.027 l 0.023 0.066 l 0.035 0.078 l 0.004 0.027 l 0.012 0.023 l 0.02 0.027 l 0.016 0.031 l 0.027 0.02 l 0.027 0.031 l 0.031 0.027 l 0.039 0.02 l 0.023 0.027 l 0.027 0.02 l 0.023 0.02 l 0.023 0.012 l 0.023 0.008 l 0.02 0.004 h 0.016 l 0.023 -0.004 l 0.016 -0.008 l 0.02 -0.012 l 0.016 -0.012 l 0.016 -0.016 l 0.016 -0.023 l 0.012 -0.023 l 0.02 -0.027 l 0.012 -0.023 l 0.012 -0.051 l 0.008 -0.039 l 0.004 -0.035 l -0.004 -0.031 v -0.031 l -0.008 -0.035 l -0.012 -0.039 l -0.008 -0.047 v -0.027 l 0.004 -0.023 l -0.004 -0.023 v -0.016 l -0.023 -0.047 l -0.004 -0.027 l -0.012 -0.023 l -0.004 -0.023 l -0.012 -0.031 l -0.012 -0.023 l -0.004 -0.027 l -0.016 -0.027 l -0.016 -0.031 l -0.012 -0.027 l -0.02 -0.027 l -0.023 -0.02 l -0.016 -0.012 l -0.023 -0.012 l -0.023 -0.016 l -0.023 -0.008 l -0.023 -0.004 l -0.027 -0.004 l -0.023 -0.004 h -0.07 l -0.027 0.004 l -0.02 0.004 l -0.023 0.008 l -0.016 0.016 l -0.004 0.008 v 0.004 l -0.004 0.008 l -0.012 0.02 l -0.016 0.02 l -0.012 0.016 l -0.02 0.012 l -0.008 0.004 l -0.008 0.008 l -0.004 0.012 l -0.008 0.012 l -0.004 0.039 m 0.887 3.324 l -0.027 0.004 l -0.055 0.016 l -0.027 0.012 l -0.023 0.016 l -0.023 0.02 l -0.043 0.043 l -0.023 0.047 l -0.016 0.043 l -0.008 0.023 l -0.004 0.023 l -0.004 0.02 v 0.051 l 0.004 0.023 l 0.012 0.027 l 0.012 0.023 l 0.02 0.023 l 0.012 0.02 l 0.023 0.02 l 0.023 0.016 l 0.051 0.012 l 0.047 0.008 l 0.043 0.008 l 0.043 0.004 h 0.043 l 0.035 -0.008 l 0.039 -0.004 l 0.035 -0.012 l 0.02 -0.008 l 0.027 -0.004 l 0.027 -0.008 h 0.055 l 0.023 -0.004 h 0.027 l 0.02 -0.004 l 0.004 -0.004 h 0.02 l 0.023 0.004 l 0.035 0.008 l 0.059 0.008 h 0.117 l 0.047 -0.008 l 0.047 -0.012 l 0.043 -0.012 l 0.02 -0.008 l 0.023 -0.008 l 0.016 -0.012 l 0.02 -0.008 l 0.016 -0.008 l 0.012 -0.012 l 0.012 -0.008 l 0.008 -0.012 l 0.012 -0.012 l 0.008 -0.016 l 0.008 -0.012 l 0.004 -0.02 l 0.016 -0.027 l 0.008 -0.035 l 0.004 -0.039 v -0.039 l -0.008 -0.035 l -0.012 -0.031 l -0.016 -0.035 l -0.016 -0.027 l -0.02 -0.023 l -0.023 -0.027 l -0.027 -0.02 l -0.031 -0.02 l -0.035 -0.02 l -0.039 -0.016 l -0.039 -0.012 l -0.078 -0.008 l -0.035 0.004 l -0.039 0.004 l -0.047 0.016 l -0.039 0.016 l -0.023 0.008 l -0.047 0.004 l -0.055 0.004 l -0.066 0.004 l -0.051 0.004 l -0.043 0.008 l -0.035 0.008 l -0.027 0.012 l -0.031 0.008 l -0.039 0.008 m 1.816 0.309 l 0.004 0.055 l 0.008 0.051 v 0.047 l 0.008 0.047 l 0.012 0.047 l 0.008 0.039 l 0.008 0.043 l 0.012 0.039 l 0.016 0.086 l 0.004 0.039 v 0.109 l -0.008 0.031 l -0.004 0.027 l -0.016 0.039 l -0.012 0.035 l -0.012 0.031 l -0.008 0.023 l -0.012 0.039 l -0.016 0.035 l -0.016 0.023 l -0.016 0.016 l -0.027 0.023 l -0.027 0.02 l -0.031 0.016 l -0.094 0.035 h -0.102 l -0.031 -0.008 l -0.027 -0.012 l -0.023 -0.016 l -0.027 -0.016 l -0.027 -0.02 l -0.023 -0.023 l -0.023 -0.031 l -0.023 -0.035 l -0.02 -0.035 l -0.016 -0.031 l -0.012 -0.035 l -0.008 -0.027 l -0.008 -0.031 l -0.004 -0.027 l 0.004 -0.023 v -0.043 l -0.004 -0.039 l -0.004 -0.02 l -0.008 -0.016 l -0.004 -0.02 l -0.008 -0.016 l -0.004 -0.016 v -0.016 l -0.004 -0.012 v -0.035 l 0.004 -0.016 v -0.016 l 0.004 -0.02 l 0.004 -0.016 l 0.008 -0.023 v -0.082 l -0.008 -0.02 l -0.004 -0.023 l -0.012 -0.055 l -0.008 -0.051 l -0.012 -0.043 l -0.008 -0.047 l -0.004 -0.039 v -0.035 l 0.008 -0.063 l 0.016 -0.164 v -0.16 l -0.008 -0.078 l -0.004 -0.082 l -0.008 -0.082 l -0.012 -0.078 v -0.16 l 0.004 -0.043 v -0.125 l -0.004 -0.074 v -0.047 l -0.004 -0.047 v -0.043 l 0.004 -0.039 v -0.035 l 0.004 -0.035 l 0.004 -0.027 l 0.008 -0.027 l 0.008 -0.039 l 0.008 -0.035 l 0.008 -0.078 v -0.078 l -0.008 -0.078 l -0.012 -0.051 l -0.008 -0.051 l -0.008 -0.055 l -0.004 -0.066 l -0.063 -0.063 l -0.055 -0.039 l -0.043 -0.043 l -0.035 -0.031 l -0.027 -0.023 l -0.031 -0.02 l -0.016 -0.008 l -0.02 -0.004 l -0.055 -0.02 l -0.059 -0.012 l -0.055 -0.008 l -0.059 -0.004 h -0.059 l -0.055 0.004 l -0.059 0.004 l -0.059 0.008 l -0.047 0.012 l -0.043 0.008 l -0.043 0.004 l -0.035 0.004 l -0.039 0.004 l -0.035 0.008 l -0.039 0.023 l -0.02 0.008 l -0.023 0.008 l -0.016 0.012 l -0.016 0.016 l 0.008 0.012 v 0.008 l 0.004 0.043 v 0.086 l 0.004 0.047 v 0.059 l -0.004 0.027 l -0.012 0.027 l -0.008 0.008 v 0.02 l 0.063 0.07 l 0.035 0.027 l 0.039 0.027 l 0.004 0.008 l 0.008 0.004 h 0.109 l 0.055 0.008 l 0.066 0.008 l 0.07 0.004 h 0.121 l 0.059 -0.004 l 0.063 0.008 l 0.055 0.016 l 0.031 0.012 l 0.027 0.012 l 0.031 0.016 l 0.023 0.02 l 0.031 0.02 l 0.023 0.027 l 0.02 0.023 l 0.023 0.027 l 0.012 0.031 l 0.008 0.031 l 0.008 0.035 v 0.074 l -0.004 0.008 l -0.004 0.02 l -0.004 0.016 l -0.004 0.012 l -0.008 0.016 l -0.008 0.012 l -0.012 0.012 l -0.008 0.012 l -0.016 0.012 l -0.016 0.016 l -0.027 0.02 l -0.035 0.02 l -0.047 0.012 l -0.051 0.008 l -0.047 0.008 h -0.098 l -0.059 -0.008 l -0.055 -0.012 l -0.055 -0.016 l -0.039 -0.012 l -0.043 -0.008 l -0.043 -0.004 h -0.129 l -0.086 0.008 l -0.035 0.008 l -0.027 0.008 l -0.039 0.004 h -0.09 l -0.031 -0.008 l -0.027 -0.004 h -0.008 l -0.074 0.027 l -0.07 0.023 l -0.059 0.023 l -0.055 0.023 l -0.047 0.02 l -0.043 0.023 l -0.039 0.02 l -0.027 0.016 l 0.004 0.008 l 0.004 0.027 l 0.004 0.035 l -0.004 0.031 l -0.008 0.07 l -0.012 0.039 l -0.008 0.043 l -0.02 0.047 l -0.004 0.039 l -0.008 0.035 v 0.031 l 0.004 0.027 v 0.152 l 0.004 0.043 l 0.004 0.039 l 0.012 0.039 l 0.012 0.035 l 0.008 0.02 l 0.004 0.02 l 0.012 0.016 l 0.016 0.02 l 0.016 0.016 l 0.02 0.016 l 0.012 0.02 l 0.008 0.02 l 0.004 0.02 l -0.004 0.023 l -0.004 0.027 l -0.008 0.027 l -0.012 0.023 l -0.016 0.027 l -0.012 0.023 l -0.02 0.016 l -0.02 0.02 l -0.02 0.016 l -0.023 0.016 l -0.02 0.012 l -0.031 0.004 h -0.051 l -0.02 -0.004 l -0.055 -0.016 l -0.027 -0.012 l -0.031 -0.012 l -0.02 -0.004 l -0.02 -0.012 l -0.02 -0.004 l -0.016 -0.012 l -0.02 -0.012 l -0.012 -0.016 l -0.016 -0.012 l -0.016 -0.02 l -0.012 -0.016 l -0.016 -0.02 l -0.016 -0.023 l -0.008 -0.02 l -0.027 -0.047 l -0.016 -0.055 l -0.016 -0.07 l -0.012 -0.07 l -0.008 -0.066 l -0.004 -0.066 l -0.004 -0.055 v -0.059 l 0.004 -0.051 v -0.047 l 0.008 -0.043 l 0.004 -0.039 l 0.004 -0.035 l 0.008 -0.035 v -0.063 l -0.008 -0.02 l -0.012 -0.023 l -0.004 -0.016 l -0.023 -0.039 l -0.012 -0.016 l -0.012 -0.02 l -0.012 -0.012 l -0.031 -0.004 h -0.059 l -0.031 -0.004 l -0.027 -0.016 l -0.027 -0.02 l -0.031 -0.012 l -0.02 -0.02 v 0.02 l 0.008 0.016 l -0.008 0.109 l -0.012 0.063 l -0.012 0.07 l -0.012 0.023 l -0.012 0.031 l -0.008 0.023 l -0.008 0.027 l -0.004 0.023 l -0.004 0.027 v 0.078 l -0.008 0.035 v 0.031 l -0.008 0.031 l -0.008 0.027 l -0.004 0.027 l -0.004 0.031 l 0.004 0.035 l -0.004 0.027 l -0.008 0.035 l -0.004 0.035 l -0.016 0.035 l -0.008 0.023 l -0.008 0.02 l -0.004 0.023 l -0.008 0.02 l -0.004 0.02 l -0.008 0.023 v 0.07 l -0.004 0.031 l -0.008 0.039 l -0.016 0.047 l -0.027 0.066 l -0.023 0.063 l -0.02 0.059 l -0.023 0.059 l -0.012 0.051 l -0.016 0.047 l -0.012 0.047 l -0.008 0.043 l -0.012 0.027 l -0.008 0.023 l -0.016 0.031 l -0.031 0.047 l -0.02 0.027 l -0.039 0.047 l -0.035 0.027 l -0.031 0.023 l -0.035 0.02 l -0.027 0.02 l -0.027 0.012 l -0.031 0.016 l -0.027 0.012 l -0.031 0.008 h -0.047 l -0.023 -0.008 l -0.027 -0.004 l -0.027 -0.008 l -0.023 -0.008 l -0.031 -0.008 l -0.027 -0.012 l -0.02 -0.02 l -0.023 -0.016 l -0.02 -0.023 l -0.016 -0.02 l -0.016 -0.023 l -0.012 -0.023 l -0.012 -0.02 l -0.008 -0.023 l -0.008 -0.047 l -0.012 -0.047 v -0.098 l 0.02 -0.047 l 0.016 -0.043 l 0.016 -0.039 l 0.012 -0.039 l 0.031 -0.031 l 0.027 -0.043 l 0.031 -0.047 l 0.035 -0.055 l 0.031 -0.035 l 0.027 -0.035 l 0.02 -0.035 l 0.02 -0.027 l 0.012 -0.031 l 0.008 -0.027 l 0.004 -0.027 l 0.004 -0.023 l 0.012 -0.039 l 0.008 -0.027 l 0.008 -0.012 l 0.004 -0.016 l 0.016 -0.016 l 0.031 -0.082 l 0.027 -0.078 l 0.023 -0.074 l 0.012 -0.066 l 0.023 -0.047 l 0.012 -0.043 l 0.004 -0.023 l 0.004 -0.02 v -0.02 l 0.004 -0.02 v -0.07 l 0.008 -0.07 l 0.012 -0.074 l 0.023 -0.141 l 0.047 -0.141 l 0.027 -0.066 l 0.016 -0.043 l 0.012 -0.043 l 0.008 -0.043 l 0.004 -0.039 v -0.039 l -0.004 -0.043 l -0.008 -0.039 l -0.012 -0.039 l 0.008 -0.063 l 0.004 -0.047 l 0.008 -0.039 l 0.004 -0.027 l 0.008 -0.031 l 0.008 -0.027 l 0.004 -0.027 l 0.004 -0.031 l 0.004 -0.023 v -0.082 l -0.008 -0.047 l -0.004 -0.043 v -0.043 l -0.004 -0.043 v -0.043 l 0.004 -0.039 v -0.039 l 0.004 -0.043 l 0.004 -0.035 v -0.168 l -0.004 -0.07 v -0.082 l -0.004 -0.09 l -0.008 -0.094 l -0.008 -0.059 l -0.008 -0.055 l -0.012 -0.051 l -0.016 -0.047 l -0.016 -0.043 l -0.02 -0.043 l -0.02 -0.035 l -0.023 -0.035 l -0.012 -0.023 l -0.02 -0.027 l -0.016 -0.023 l -0.012 -0.027 l -0.008 -0.027 l -0.016 -0.027 l -0.008 -0.031 l -0.012 -0.027 l -0.016 -0.066 l -0.012 -0.063 l -0.008 -0.07 l -0.004 -0.07 l -0.004 -0.039 v -0.035 l -0.004 -0.035 v -0.035 l 0.004 -0.035 v -0.035 l 0.004 -0.035 l 0.008 -0.031 l 0.004 -0.035 l 0.008 -0.035 l 0.012 -0.031 l 0.008 -0.031 l 0.012 -0.035 l 0.016 -0.031 l 0.016 -0.035 l 0.016 -0.031 l 0.031 -0.066 l 0.031 -0.063 l 0.027 -0.051 l 0.031 -0.051 l 0.027 -0.039 l 0.031 -0.035 l 0.012 -0.012 l 0.02 -0.012 l 0.023 -0.016 l 0.02 -0.008 l 0.023 -0.012 l 0.023 -0.004 l 0.016 -0.008 l 0.023 -0.004 l 0.016 -0.004 h 0.078 l 0.02 0.008 l 0.02 0.004 l 0.016 0.008 l 0.039 0.016 l 0.012 0.012 v -0.004 l -0.004 -0.004 h 0.004 l 0.02 -0.004 h 0.051 l 0.035 0.004 h 0.055 l 0.035 -0.004 h 0.043 l 0.039 -0.012 l 0.086 -0.023 l 0.043 -0.004 l 0.039 -0.004 h 0.043 l 0.043 0.004 l 0.043 0.008 l 0.027 0.008 l 0.023 0.004 l 0.027 0.004 l 0.023 0.004 h 0.023 l 0.039 -0.008 l 0.016 -0.004 l 0.043 -0.02 l 0.031 -0.012 l 0.031 -0.008 l 0.031 -0.012 l 0.027 -0.004 l 0.023 -0.004 h 0.023 l 0.02 0.008 h 0.023 l 0.027 -0.004 l 0.027 -0.008 l 0.035 -0.012 l 0.043 -0.02 l 0.086 -0.016 l 0.039 -0.004 l 0.035 -0.004 l 0.039 0.004 l 0.035 0.004 l 0.031 0.008 l 0.035 0.008 l 0.035 0.004 l 0.039 0.004 l 0.031 0.004 h 0.035 l 0.07 -0.008 l 0.039 -0.008 l 0.051 -0.004 l 0.055 -0.008 l 0.055 -0.004 h 0.145 l 0.043 0.004 l 0.043 0.008 l 0.094 0.008 h 0.039 l 0.035 -0.004 l 0.023 0.004 h 0.016 l 0.016 0.004 l 0.023 0.004 l 0.012 0.012 l 0.02 0.008 l 0.012 0.004 l 0.012 0.012 l 0.023 0.012 l 0.016 0.012 l 0.023 0.004 l 0.023 0.008 l 0.02 0.004 l 0.023 0.004 h 0.043 l 0.031 -0.004 h 0.023 l 0.031 0.004 l 0.047 0.008 l 0.02 0.004 l 0.023 0.004 l 0.02 0.008 l 0.043 0.023 l 0.035 0.023 l 0.012 0.016 l 0.027 0.027 l 0.008 0.012 l 0.008 0.02 l 0.016 0.02 l 0.016 0.016 l 0.016 0.02 l 0.02 0.012 l 0.02 0.016 l 0.027 0.02 l 0.027 0.008 l 0.023 0.016 l 0.02 0.016 l 0.023 0.012 l 0.016 0.02 l 0.023 0.016 l 0.031 0.039 l 0.02 0.02 l 0.012 0.02 l 0.02 0.023 l 0.012 0.02 l 0.012 0.027 l 0.023 0.047 l 0.016 0.059 l 0.004 0.031 l 0.008 0.031 l 0.004 0.035 v 0.063 l -0.004 0.031 l -0.008 0.039 l -0.004 0.035 l -0.004 0.02 l -0.008 0.023 l -0.035 0.07 l -0.012 0.012 l -0.016 0.012 l -0.012 0.016 l -0.008 0.016 l -0.012 0.016 l -0.008 0.016 l -0.008 0.02 l -0.008 0.031 v 0.02 l -0.008 0.039 l -0.004 0.027 l -0.012 0.023 l -0.008 0.02 l -0.012 0.02 l -0.008 0.047 l -0.004 0.016 v 0.035 l 0.004 0.016 l 0.004 0.023 l 0.004 0.012 l 0.004 0.023 v 0.078 l -0.008 0.047 l -0.012 0.063 l -0.016 0.125 v 0.066 l -0.004 0.066 v 0.063 l 0.004 0.07 l 0.004 0.066 v 0.043 l -0.004 0.043 l -0.008 0.078 l -0.008 0.039 l -0.008 0.035 l -0.023 0.063 l -0.008 0.016 v 0.086 l 0.004 0.023 l 0.004 0.031 l 0.004 0.027 l 0.008 0.023 l 0.004 0.027 l 0.004 0.023 l -0.004 0.027 v 0.031 l -0.004 0.031 l -0.008 0.031 l -0.004 0.035 l -0.008 0.023 l -0.008 0.055 v 0.059 l 0.004 0.027 l 0.004 0.031 l 0.008 0.031 l 0.012 0.063 l 0.008 0.07 l 0.012 0.063 v 0.227 l -0.008 0.051 l -0.012 0.078 l -0.008 0.078 v 0.137 l 0.008 0.059 l 0.012 0.059 l 0.008 0.023 l 0.004 0.023 l 0.008 0.02 l 0.008 0.023 l 0.063 0.203 l 0.023 0.094 l 0.023 0.086 l 0.012 0.082 l 0.016 0.082 l 0.008 0.074 m -2.402 -1.57 l 0.047 -0.023 l 0.043 -0.031 l 0.035 -0.023 l 0.031 -0.023 l 0.008 -0.039 v -0.082 l -0.004 -0.031 l -0.012 -0.035 v -0.188 l -0.012 -0.012 l -0.016 -0.008 l -0.012 -0.008 l -0.012 -0.004 l -0.023 -0.012 l -0.023 -0.016 l -0.02 -0.008 l -0.023 -0.012 l -0.051 -0.016 l -0.055 -0.012 h -0.008 l -0.059 0.027 l -0.051 0.02 l -0.027 0.008 l -0.023 0.012 l -0.039 0.008 l -0.043 0.004 l -0.039 0.008 h -0.082 l -0.027 0.012 l -0.016 0.008 l -0.039 0.023 l -0.027 0.027 l -0.023 0.027 l -0.02 0.027 l -0.02 0.02 l -0.016 0.023 l -0.012 0.016 l -0.016 0.031 l -0.004 0.066 l -0.004 0.063 l -0.012 0.055 l -0.012 0.047 l -0.016 0.027 l -0.008 0.02 l -0.008 0.055 l -0.008 0.027 v 0.086 l 0.02 -0.023 l 0.047 -0.039 l 0.055 -0.031 l 0.031 -0.012 l 0.035 -0.012 l 0.031 -0.012 l 0.059 -0.016 l 0.051 -0.012 l 0.023 -0.008 h 0.063 l 0.02 0.008 l 0.02 0.004 h 0.086 l 0.02 -0.004 l 0.027 -0.008 l 0.016 -0.004 l 0.023 -0.004 l 0.02 -0.004 h 0.039 l 0.016 0.004 l 0.039 0.008 m 1.711 -1.137 l -0.023 0.016 l -0.004 0.008 l -0.008 0.008 l -0.023 -0.008 l -0.059 0.004 h -0.059 l -0.063 -0.004 l -0.066 -0.008 l -0.066 -0.004 l -0.059 -0.012 h -0.109 l -0.008 -0.016 h -0.012 l -0.02 -0.031 l -0.023 -0.02 l 0.008 -0.023 v -0.02 l 0.008 -0.023 l 0.004 -0.02 v -0.043 l 0.004 -0.043 l 0.008 -0.039 l 0.012 -0.035 l 0.023 -0.063 l 0.039 -0.055 l 0.035 -0.043 l 0.031 -0.047 l 0.027 -0.051 l 0.023 -0.047 l 0.031 -0.102 l 0.012 -0.055 l 0.012 -0.059 v -0.039 l -0.004 -0.035 v -0.035 l -0.008 -0.035 l -0.004 -0.035 l -0.012 -0.035 l -0.012 -0.031 l -0.012 -0.035 l -0.016 -0.02 l -0.016 -0.023 l -0.031 -0.031 l -0.031 -0.023 l -0.023 -0.012 l -0.016 -0.004 l -0.027 -0.004 h -0.023 l -0.023 0.008 l -0.031 0.008 l -0.063 0.031 l -0.039 0.023 l -0.035 0.027 l -0.027 0.023 l -0.027 0.027 l -0.012 0.016 l -0.016 0.016 l -0.008 0.016 l -0.008 0.02 l -0.012 0.031 l -0.016 0.035 l -0.004 0.039 v 0.039 l -0.004 0.023 l -0.004 0.027 l -0.008 0.023 l -0.004 0.027 l -0.02 0.059 l -0.027 0.063 l -0.004 0.027 v 0.07 l 0.004 0.043 l 0.016 0.102 l 0.004 0.043 v 0.039 l -0.012 0.043 l -0.012 0.039 l -0.012 0.035 l -0.016 0.027 l -0.016 0.016 l -0.016 0.039 l -0.004 0.023 l -0.027 0.035 l -0.043 0.043 l -0.027 0.016 l -0.027 0.023 l -0.031 0.016 h -0.172 l -0.027 0.004 l -0.031 0.008 l -0.023 0.004 l -0.02 0.008 l -0.023 0.012 l -0.02 0.008 l -0.023 0.012 l -0.047 0.008 h -0.078 l -0.027 -0.004 l -0.023 -0.008 h -0.047 l -0.027 0.004 h -0.023 l -0.023 0.008 l -0.02 0.004 l -0.031 0.008 l -0.031 0.004 h -0.109 l -0.027 -0.004 l -0.027 -0.008 h -0.035 l -0.043 0.004 l -0.043 0.008 l -0.047 0.012 l -0.012 -0.008 l -0.012 -0.016 l -0.051 -0.035 l -0.055 -0.039 l -0.059 -0.047 l -0.066 -0.055 l -0.012 -0.008 v -0.016 l -0.023 -0.035 l -0.016 -0.039 l -0.016 -0.043 l -0.012 -0.043 l -0.008 -0.047 l -0.004 -0.051 v -0.105 l -0.004 -0.059 l -0.008 -0.07 l -0.016 -0.094 l -0.016 -0.109 v -0.023 l 0.004 -0.031 l 0.008 -0.039 l 0.012 -0.039 l 0.02 -0.043 l 0.02 -0.055 l 0.027 -0.051 l 0.031 -0.063 l 0.008 -0.023 l 0.004 -0.02 l 0.027 -0.02 l 0.063 -0.039 l 0.047 -0.02 l 0.094 -0.047 l 0.117 -0.051 l 0.012 -0.008 l 0.027 -0.008 l 0.027 -0.004 h 0.059 l 0.031 0.004 h 0.035 l 0.027 -0.004 l 0.02 -0.004 l 0.063 -0.02 l 0.063 -0.023 l 0.039 -0.02 l 0.035 -0.012 l 0.039 -0.012 l 0.035 -0.016 l 0.117 -0.023 l 0.035 -0.004 l 0.043 -0.004 l 0.035 -0.004 h 0.039 l 0.039 0.004 l 0.043 0.004 l 0.039 0.004 l 0.137 0.027 l 0.055 0.012 h 0.055 l 0.051 0.004 h 0.047 l 0.047 -0.004 l 0.078 -0.016 l 0.035 -0.012 l 0.039 -0.004 l 0.035 -0.004 h 0.035 l 0.039 0.004 l 0.043 0.008 l 0.039 0.012 l 0.043 0.012 l 0.043 0.02 l 0.043 0.023 l 0.047 0.02 l 0.043 0.031 l 0.051 0.031 l 0.047 0.035 l 0.102 0.078 l 0.039 0.047 l 0.035 0.047 l 0.027 0.051 l 0.047 0.094 l 0.016 0.051 l 0.012 0.051 l 0.008 0.051 l 0.004 0.059 v 0.109 l -0.004 0.051 l -0.004 0.043 l -0.008 0.078 l -0.004 0.035 l -0.004 0.027 l -0.004 0.031 l -0.008 0.035 v 0.031 l -0.004 0.07 v 0.184 l -0.02 0.023 l -0.016 0.02 l -0.02 0.023"/><path d="m 15.539 9.313 l -0.035 -0.012 l -0.039 -0.004 l -0.035 -0.004 l -0.035 0.004 l -0.012 0.004 l -0.02 0.008 l -0.012 0.004 l -0.02 0.008 l -0.012 0.004 l -0.012 0.008 l -0.016 0.012 l -0.035 0.035 l -0.039 0.055 l -0.023 0.055 l -0.012 0.031 l -0.008 0.035 l -0.004 0.031 v 0.063 l 0.012 0.035 l 0.012 0.027 l 0.016 0.031 l 0.02 0.027 l 0.051 0.051 l 0.02 0.004 l 0.047 0.016 l 0.02 0.008 h 0.023 l 0.02 0.004 h 0.102 l 0.051 -0.004 l 0.055 -0.016 l 0.055 -0.012 l 0.078 -0.016 l 0.074 -0.02 l 0.066 -0.004 l 0.063 -0.008 h 0.117 l 0.102 0.016 l 0.02 0.008 l 0.027 0.008 l 0.023 0.008 l 0.047 0.008 h 0.125 l 0.051 -0.008 l 0.055 -0.012 l 0.051 -0.02 l 0.047 -0.008 l 0.043 -0.012 l 0.051 -0.004 h 0.102 l 0.055 0.012 l 0.055 0.004 l 0.055 0.016 l 0.031 0.012 l 0.031 0.008 l 0.027 0.004 h 0.035 l 0.063 -0.008 l 0.031 -0.012 l 0.035 -0.012 l 0.023 -0.012 l 0.02 -0.02 l 0.016 -0.02 l 0.039 -0.055 l 0.016 -0.063 l 0.012 -0.035 l -0.004 -0.039 l -0.008 -0.039 l -0.008 -0.035 l -0.02 -0.031 l -0.02 -0.035 l -0.023 -0.027 l -0.031 -0.031 l -0.027 -0.02 l -0.031 -0.02 l -0.039 -0.012 l -0.039 -0.004 l -0.043 -0.008 h -0.043 l -0.043 0.004 l -0.051 0.008 l -0.047 0.004 l -0.039 0.016 l -0.047 0.004 l -0.039 0.004 h -0.098 l -0.047 -0.008 l -0.051 -0.012 l -0.055 -0.012 l -0.07 -0.012 l -0.066 -0.012 l -0.07 -0.004 h -0.07 l -0.066 0.004 l -0.074 0.008 l -0.066 0.008 l -0.07 0.012 l -0.063 0.02 l -0.059 0.012 l -0.055 0.008 l -0.055 0.004 h -0.047 l -0.047 -0.004 l -0.043 -0.004 m -0.094 -0.59 l -0.035 0.016 l -0.027 0.012 l -0.07 0.023 l -0.031 0.012 l -0.031 0.008 l -0.035 0.004 l -0.031 0.008 l -0.063 0.008 h -0.129 l -0.063 -0.008 l -0.031 -0.012 l -0.02 -0.008 l -0.023 -0.008 l -0.039 -0.023 l -0.016 -0.008 l -0.02 -0.016 l -0.016 -0.016 l -0.008 -0.012 l -0.016 -0.012 l -0.008 -0.02 l -0.008 -0.016 l -0.004 -0.016 l -0.004 -0.02 v -0.02 l -0.008 -0.02 v -0.039 l 0.016 -0.07 l 0.012 -0.031 l 0.016 -0.035 l 0.02 -0.023 l 0.023 -0.027 l 0.027 -0.023 l 0.035 -0.023 l 0.039 -0.027 l 0.086 -0.039 l 0.043 -0.016 l 0.047 -0.008 l 0.051 -0.004 l 0.047 -0.008 l 0.133 -0.008 l 0.066 -0.016 l 0.07 -0.008 l 0.043 -0.023 l 0.055 -0.012 l 0.051 -0.012 l 0.055 -0.012 l 0.059 -0.008 l 0.055 -0.008 h 0.059 l 0.059 -0.004 h 0.211 l 0.063 0.004 h 0.059 l 0.051 0.008 l 0.055 0.004 l 0.047 0.012 l 0.055 0.012 l 0.063 0.008 l 0.055 0.008 l 0.063 0.008 h 0.184 l 0.059 -0.012 l 0.047 -0.004 l 0.051 -0.004 l 0.047 -0.004 h 0.133 l 0.086 0.008 l 0.047 0.008 l 0.039 0.012 l 0.039 0.004 l 0.043 0.012 l 0.039 0.012 l 0.039 0.016 l 0.039 0.012 l 0.035 0.02 l 0.02 0.012 l 0.023 0.012 l 0.023 0.004 l 0.023 0.012 l 0.031 0.004 h 0.094 l 0.039 0.004 l 0.039 0.008 l 0.039 0.016 l 0.039 0.012 l 0.039 0.02 l 0.043 0.023 l 0.039 0.027 l 0.043 0.031 l 0.043 0.027 l 0.035 0.027 l 0.031 0.023 l 0.051 0.051 l 0.023 0.035 v 0.012 l 0.004 0.012 v 0.012 l 0.004 0.02 l 0.004 0.023 l 0.012 0.02 l 0.008 0.02 l 0.012 0.016 l 0.012 0.02 l 0.016 0.02 l 0.016 0.016 l 0.012 0.016 l 0.012 0.012 l 0.012 0.02 l 0.008 0.016 l 0.016 0.039 l 0.016 0.047 l 0.008 0.047 l 0.008 0.051 l 0.004 0.063 v 0.066 l 0.008 0.063 l 0.016 0.059 l 0.023 0.055 l 0.016 0.051 l 0.02 0.023 l 0.008 0.027 l 0.008 0.035 l 0.008 0.039 l 0.012 0.035 l 0.004 0.047 l 0.004 0.043 v 0.492 l -0.004 0.074 l -0.008 0.066 l -0.008 0.035 l -0.008 0.031 l -0.023 0.082 l -0.012 0.023 l -0.012 0.031 l -0.012 0.02 l -0.016 0.023 l -0.016 0.02 l -0.012 0.02 l -0.02 0.02 l -0.047 0.059 l -0.059 0.059 l -0.043 0.031 l -0.047 0.031 l -0.051 0.035 l -0.117 0.047 l -0.02 0.012 l -0.027 0.012 l -0.023 0.016 l -0.027 0.004 l -0.023 0.008 l -0.027 0.008 l -0.031 0.008 l -0.027 0.004 l -0.059 0.008 l -0.066 0.004 l -0.063 -0.004 l -0.074 -0.004 l -0.047 -0.004 h -0.137 l -0.043 0.004 l -0.039 0.004 l -0.035 0.004 l -0.078 0.016 l -0.039 0.016 l -0.078 0.008 h -0.074 l -0.07 -0.016 l -0.039 -0.016 l -0.031 -0.008 l -0.035 -0.008 h -0.102 l -0.07 0.016 l -0.078 0.031 l -0.043 0.008 h -0.113 l -0.07 -0.023 l -0.023 -0.012 l -0.027 -0.012 h -0.027 l -0.027 -0.004 h -0.059 l -0.027 0.004 l -0.031 0.008 l -0.02 0.063 l -0.023 0.063 l -0.027 0.063 l -0.031 0.063 l -0.016 0.023 l -0.023 0.027 l -0.023 0.023 l -0.02 0.023 l -0.027 0.027 l -0.027 0.023 l -0.063 0.047 l -0.031 0.031 l -0.031 0.027 l -0.031 0.031 l -0.023 0.035 l -0.016 0.031 l -0.016 0.023 l -0.012 0.02 l -0.035 0.035 l -0.023 0.012 l -0.02 0.012 l -0.047 0.016 l -0.023 0.012 l -0.027 0.012 l -0.02 0.012 l -0.023 0.016 l -0.02 0.02 l -0.02 0.012 l -0.051 0.051 l -0.035 0.027 l -0.035 0.031 l -0.031 0.023 l -0.078 0.039 l -0.078 0.031 l -0.188 0.094 l -0.055 0.039 l -0.031 0.02 l -0.027 0.016 l -0.031 0.012 l -0.039 0.016 l -0.047 0.012 l -0.043 0.008 l -0.094 0.008 h -0.043 l -0.043 0.008 l -0.078 0.016 l -0.078 0.031 l -0.035 0.016 l -0.035 0.02 l -0.031 0.016 l -0.035 0.016 l -0.027 0.012 l -0.027 0.008 l -0.055 0.008 l -0.02 0.004 l -0.02 -0.004 h -0.078 l -0.035 0.012 l -0.023 0.004 l -0.094 0.031 l -0.047 0.004 l -0.043 0.004 h -0.043 l -0.047 -0.004 l -0.047 -0.012 l -0.047 -0.008 l -0.035 -0.012 l -0.055 -0.023 l -0.039 -0.023 l -0.012 -0.012 l -0.008 -0.012 l -0.004 -0.012 l -0.008 -0.027 l -0.004 -0.016 l -0.008 -0.012 l -0.012 -0.012 h -0.004 l -0.023 -0.023 l -0.004 -0.012 l -0.008 -0.027 v -0.035 l -0.004 -0.027 v -0.027 l 0.004 -0.027 l 0.004 -0.023 l 0.008 -0.027 l 0.012 -0.023 l 0.031 -0.047 l 0.02 -0.016 l 0.016 -0.016 l 0.023 -0.012 l 0.023 -0.02 l 0.055 -0.023 l 0.031 -0.016 l 0.031 -0.012 l 0.035 -0.004 l 0.035 -0.008 h 0.035 l 0.039 -0.004 h 0.035 l 0.035 0.004 h 0.027 l 0.039 0.008 l 0.051 0.008 l 0.059 0.008 l 0.063 0.004 l 0.066 0.004 l 0.031 -0.008 l 0.035 -0.008 l 0.035 -0.004 l 0.031 -0.008 l 0.035 -0.012 l 0.031 -0.012 l 0.027 -0.012 l 0.031 -0.02 l 0.055 -0.039 l 0.031 -0.016 l 0.031 -0.012 l 0.031 -0.016 l 0.035 -0.004 l 0.035 -0.008 l 0.035 -0.004 l 0.031 -0.004 l 0.031 -0.012 l 0.035 -0.008 l 0.031 -0.016 l 0.031 -0.02 l 0.035 -0.016 l 0.023 -0.02 l 0.027 -0.02 l 0.031 -0.023 l 0.023 -0.016 l 0.027 -0.02 l 0.027 -0.012 l 0.027 -0.008 l 0.027 -0.012 l 0.031 -0.008 l 0.027 -0.008 l 0.043 -0.02 l 0.043 -0.023 l 0.035 -0.023 l 0.039 -0.027 l 0.031 -0.027 l 0.027 -0.031 l 0.035 -0.027 l 0.027 -0.031 l 0.023 -0.043 l 0.047 -0.07 l 0.02 -0.027 l -0.047 -0.016 l -0.086 -0.008 h -0.09 l -0.043 0.008 l -0.043 0.016 l -0.039 0.016 l -0.027 0.008 l -0.035 0.008 h -0.078 l -0.102 -0.016 l -0.055 -0.016 l -0.059 -0.016 l -0.063 -0.016 l -0.059 -0.02 l -0.047 -0.02 l -0.043 -0.023 l -0.047 -0.035 l -0.016 -0.016 l -0.012 -0.008 l -0.012 -0.016 l -0.008 -0.016 l -0.008 -0.012 l -0.008 -0.031 l -0.012 -0.027 l -0.016 -0.031 l -0.016 -0.023 l -0.023 -0.023 l -0.023 -0.031 l -0.031 -0.02 l -0.035 -0.027 l -0.008 -0.008 l -0.016 -0.008 l -0.012 -0.016 l -0.016 -0.023 l -0.012 -0.016 l -0.008 -0.02 l -0.004 -0.016 l -0.004 -0.02 l -0.008 -0.02 v -0.02 l -0.004 -0.023 v -0.047 l 0.004 -0.059 l -0.004 -0.082 v -0.082 l -0.004 -0.074 v -0.074 l -0.008 -0.07 l -0.008 -0.063 l -0.004 -0.059 l -0.008 -0.063 l -0.008 -0.027 l -0.008 -0.035 l -0.004 -0.031 v -0.105 l 0.004 -0.031 l 0.008 -0.031 l 0.004 -0.043 l 0.008 -0.094 l -0.004 -0.043 v -0.098 l 0.004 -0.047 l 0.008 -0.043 l 0.012 -0.047 l 0.012 -0.043 l 0.012 -0.039 l 0.031 -0.063 l 0.016 -0.027 l 0.031 -0.047 l 0.012 -0.016 l 0.02 -0.016 l 0.016 -0.02 l 0.02 -0.012 l 0.016 -0.012 l 0.02 -0.012 l 0.016 -0.012 l 0.02 -0.004 l 0.016 -0.008 l 0.023 -0.004 l 0.012 -0.004 l 0.02 -0.004 l 0.047 0.008 l 0.039 0.012 l 0.031 0.008 l 0.039 0.016 l 0.016 0.016 l 0.016 0.02 l 0.012 0.016 l 0.016 0.02 l 0.012 0.023 l 0.008 0.023 l 0.012 0.023 l 0.008 0.027 l 0.012 0.035 l 0.008 0.039 l 0.012 0.047 v 0.234 l -0.012 0.07 l -0.008 0.086 l -0.012 0.082 l -0.008 0.074 l -0.004 0.066 v 0.125 l 0.004 0.051 l 0.008 0.051 l 0.012 0.059 l 0.023 0.102 l 0.031 0.078 l 0.016 0.035 l 0.016 0.031 l 0.02 0.023 l 0.023 0.039 l 0.027 0.031 l 0.063 0.063 l 0.035 0.02 l 0.039 0.023 l 0.039 0.02 l 0.047 0.012 l 0.039 0.008 l 0.031 0.008 l 0.035 0.008 l 0.105 0.012 h 0.117 l 0.035 -0.008 h 0.039 l 0.043 -0.004 l 0.078 -0.016 l 0.039 -0.012 l 0.047 -0.008 l 0.051 -0.016 l 0.055 -0.012 l 0.055 -0.016 l 0.102 -0.016 l 0.055 -0.004 l 0.055 -0.008 h 0.055 l 0.047 -0.004 l 0.055 0.004 h 0.055 l 0.051 0.004 l 0.152 0.023 l 0.051 0.012 l 0.066 0.012 l 0.117 0.016 h 0.059 l 0.059 -0.008 l 0.055 -0.004 l 0.102 -0.031 l 0.051 -0.012 l 0.055 -0.016 l 0.051 -0.008 l 0.055 -0.008 l 0.117 -0.008 h 0.121 l 0.055 0.008 h 0.027 l 0.023 -0.004 h 0.023 l 0.02 -0.004 l 0.023 -0.004 l 0.02 -0.012 l 0.023 -0.004 l 0.016 -0.012 l 0.023 -0.004 l 0.016 -0.016 l 0.02 -0.012 l 0.047 -0.047 l 0.023 -0.02 l 0.023 -0.023 l 0.02 -0.027 l 0.039 -0.07 l 0.02 -0.039 l 0.023 -0.043 l 0.012 -0.047 l 0.008 -0.055 v -0.152 l -0.016 -0.094 l -0.012 -0.043 l -0.016 -0.039 l -0.023 -0.07 l -0.004 -0.039 l -0.012 -0.031 l -0.008 -0.063 l -0.004 -0.035 v -0.027 l -0.004 -0.039 l -0.008 -0.043 l -0.012 -0.043 l -0.012 -0.047 l -0.039 -0.047 l -0.031 -0.043 l -0.012 -0.02 l -0.004 -0.016 l -0.008 -0.012 l -0.004 -0.016 l -0.008 -0.02 l -0.012 -0.02 l -0.004 -0.016 l -0.012 -0.02 l -0.031 -0.031 l -0.016 -0.008 l -0.035 -0.016 l -0.07 -0.039 l -0.027 -0.02 l -0.012 -0.012 l -0.031 -0.023 l -0.027 -0.008 l -0.027 -0.012 l -0.031 -0.008 l -0.035 -0.012 l -0.043 -0.008 l -0.09 -0.012 l -0.109 -0.016 l -0.125 -0.012 l -0.141 -0.004 h -0.379 l -0.086 -0.008 h -0.078 l -0.074 -0.012 l -0.07 -0.004 l -0.094 -0.016 l -0.047 -0.004 h -0.176 l -0.086 0.008 l -0.039 0.008 l -0.129 0.035 l -0.039 0.016 l -0.043 0.02 m 2.18 5.957 h 0.023 l 0.023 -0.008 l 0.055 -0.023 l 0.066 -0.027 l 0.07 -0.039 l 0.086 -0.047 l 0.09 -0.051 l 0.102 -0.066 l 0.164 -0.109 l 0.051 -0.035 l 0.094 -0.07 l 0.043 -0.039 l 0.035 -0.031 l 0.031 -0.039 l 0.031 -0.035 l 0.023 -0.047 l 0.023 -0.035 l 0.012 -0.016 l 0.012 -0.012 l 0.012 -0.016 l 0.031 -0.016 h 0.012 l 0.012 -0.008 l 0.023 -0.02 l 0.031 -0.023 l 0.07 -0.07 l 0.086 -0.102 l 0.063 -0.102 l 0.023 -0.047 l 0.02 -0.043 l 0.016 -0.043 l 0.012 -0.039 l 0.008 -0.07 v -0.043 l 0.004 -0.043 l 0.004 -0.031 l 0.008 -0.035 l 0.02 -0.059 l 0.02 -0.055 l 0.008 -0.051 l 0.012 -0.039 l 0.004 -0.043 v -0.031 l -0.004 -0.02 l -0.004 -0.008 l -0.008 -0.012 l -0.004 -0.016 l -0.004 -0.023 l -0.004 -0.027 l -0.004 -0.031 v -0.02 l 0.004 -0.027 l 0.008 -0.023 l 0.004 -0.023 l 0.012 -0.02 l 0.008 -0.016 l 0.004 -0.016 v -0.016 l 0.004 -0.016 l -0.004 -0.016 l -0.004 -0.012 l -0.008 -0.02 l -0.008 -0.012 l -0.012 -0.02 l -0.012 -0.016 l -0.008 -0.02 l -0.012 -0.02 l -0.004 -0.02 l -0.008 -0.02 l -0.004 -0.02 l -0.004 -0.023 v -0.027 l -0.008 -0.055 l -0.008 -0.023 l -0.012 -0.027 l -0.008 -0.023 l -0.016 -0.023 l -0.02 -0.023 l -0.031 -0.066 l -0.027 -0.059 l -0.027 -0.051 l -0.023 -0.043 l -0.004 -0.027 l -0.008 -0.027 l -0.004 -0.023 l -0.012 -0.02 l -0.012 -0.023 l -0.016 -0.016 l -0.02 -0.023 l -0.016 -0.012 l -0.086 -0.066 l -0.078 -0.063 l -0.098 -0.098 l -0.027 -0.031 l -0.012 -0.02 l -0.02 -0.023 l -0.043 -0.043 l -0.063 -0.039 l -0.035 -0.016 l -0.035 -0.02 l -0.043 -0.016 l -0.047 -0.02 l -0.039 -0.02 l -0.043 -0.023 l -0.043 -0.027 l -0.043 -0.02 l -0.043 -0.027 l -0.043 -0.031 l -0.02 -0.012 l -0.027 -0.012 l -0.02 -0.016 l -0.023 -0.008 l -0.016 -0.004 h -0.145 l -0.027 -0.004 l -0.031 -0.004 l -0.02 -0.012 l -0.027 -0.004 l -0.016 -0.012 l -0.047 -0.004 l -0.043 0.004 l -0.035 0.004 l -0.031 0.008 l -0.027 0.012 h -0.082 l -0.039 -0.008 l -0.07 -0.016 l -0.043 -0.012 l -0.078 -0.016 l -0.078 -0.012 l -0.074 -0.008 l -0.07 -0.004 h -0.113 l -0.035 0.008 l -0.039 0.004 l -0.078 0.023 l -0.043 0.008 l -0.035 0.02 l -0.031 0.02 l -0.02 0.012 l -0.012 0.012 l -0.012 0.016 l -0.012 0.008 l -0.012 0.016 l -0.023 0.047 l -0.004 0.02 l -0.008 0.031 v 0.059 l 0.004 0.039 l 0.012 0.027 l 0.012 0.031 l 0.012 0.027 l 0.039 0.039 l 0.027 0.016 l 0.008 0.008 l -0.074 0.055 l -0.148 0.102 l -0.086 0.043 l -0.035 0.023 l -0.031 0.031 l -0.035 0.027 l -0.031 0.035 l -0.043 0.031 l -0.055 0.039 l -0.074 0.047 l -0.086 0.059 l -0.055 0.031 l -0.055 0.035 l -0.051 0.031 l -0.051 0.027 l -0.051 0.031 l -0.043 0.027 l -0.043 0.023 l -0.043 0.031 l -0.051 0.023 l -0.059 0.027 l -0.059 0.043 l -0.07 0.043 l -0.039 0.035 l -0.086 0.063 l -0.051 0.027 l -0.027 0.012 l -0.031 0.012 l -0.023 0.016 l -0.047 0.023 l -0.023 0.02 l -0.016 0.016 l -0.023 0.02 l -0.027 0.023 l -0.039 0.027 l -0.051 0.023 l -0.059 0.027 l -0.063 0.027 l -0.074 0.031 l -0.082 0.031 l -0.09 0.031 l -0.078 0.016 l -0.066 0.012 l -0.023 0.012 l -0.027 0.012 l -0.023 0.012 l -0.02 0.004 l -0.031 0.023 l -0.039 0.016 l -0.047 0.012 l -0.047 0.016 l -0.125 0.023 l -0.148 0.016 l -0.043 0.004 l -0.039 0.008 l -0.043 0.012 l -0.039 0.012 l -0.039 0.016 l -0.035 0.023 l -0.031 0.027 l -0.031 0.023 l -0.031 0.031 l -0.027 0.035 l -0.023 0.027 l -0.016 0.031 l -0.012 0.027 l -0.004 0.031 l -0.004 0.016 v 0.023 l 0.004 0.016 l 0.008 0.035 l 0.012 0.039 l 0.02 0.031 l 0.016 0.031 l 0.023 0.031 l 0.027 0.027 l 0.023 0.02 l 0.035 0.023 l 0.027 0.016 l 0.023 0.016 l 0.035 0.012 l 0.07 0.008 l 0.039 0.004 h 0.094 l 0.035 -0.008 l 0.039 -0.004 l 0.043 -0.008 l 0.039 -0.016 l 0.039 -0.012 l 0.039 -0.016 l 0.035 -0.023 l 0.043 -0.027 l 0.035 -0.02 l 0.027 -0.02 l 0.031 -0.016 l 0.027 -0.012 l 0.02 -0.008 l 0.023 -0.008 l 0.02 -0.004 h 0.043 l 0.035 -0.008 l 0.043 -0.012 l 0.047 -0.012 l 0.051 -0.016 l 0.055 -0.023 l 0.063 -0.023 l 0.063 -0.031 l 0.098 -0.043 l 0.082 -0.039 l 0.07 -0.035 l 0.059 -0.027 l 0.023 -0.027 l 0.055 -0.047 l 0.023 -0.02 l 0.027 -0.02 l 0.02 -0.012 l 0.027 -0.016 l 0.059 -0.02 l 0.039 -0.016 l 0.035 -0.016 l 0.031 -0.012 l 0.023 -0.02 l 0.031 -0.02 l 0.016 -0.02 l 0.027 -0.02 l 0.016 -0.02 l 0.039 -0.039 l 0.023 -0.02 l 0.02 -0.016 l 0.02 -0.012 l 0.027 -0.016 l 0.023 -0.012 l 0.027 -0.012 l 0.031 -0.023 l 0.055 -0.039 l 0.059 -0.047 l 0.055 -0.051 l 0.039 -0.035 l 0.035 -0.031 l 0.039 -0.023 l 0.039 -0.02 l 0.059 -0.039 l 0.066 -0.047 l 0.074 -0.059 l 0.078 -0.066 l 0.043 -0.043 l 0.016 -0.023 l 0.023 -0.02 l 0.023 -0.016 l 0.023 -0.02 l 0.023 -0.016 l 0.027 -0.016 l 0.066 -0.047 l 0.148 -0.109 l 0.074 -0.063 l 0.027 -0.035 l 0.027 -0.031 l 0.039 -0.031 l 0.035 -0.027 l 0.035 -0.023 l 0.031 -0.02 l 0.027 -0.027 l 0.023 -0.02 l 0.023 -0.027 l 0.016 -0.027 l 0.016 -0.023 l 0.012 -0.031 h 0.012 l 0.02 0.008 h 0.098 l 0.031 -0.008 l 0.031 -0.004 l 0.035 -0.004 l 0.02 -0.012 l 0.023 -0.004 l 0.031 -0.004 h 0.031 l 0.031 0.004 l 0.039 0.004 l 0.043 0.004 l 0.047 0.012 h 0.023 l 0.023 0.004 h 0.023 l 0.02 0.008 l 0.004 0.012 l 0.008 0.016 l 0.023 0.039 l 0.027 0.055 l 0.02 0.063 l 0.027 0.07 l 0.023 0.07 l 0.008 0.031 l 0.016 0.055 l 0.012 0.016 l 0.008 0.02 l 0.02 0.02 l 0.012 0.004 l 0.023 -0.004 l 0.031 -0.004 l 0.027 -0.008 l 0.039 -0.004 l 0.035 -0.008 l 0.039 -0.004 l 0.051 -0.012 l 0.051 -0.008 l 0.027 -0.004 h 0.039 l 0.039 -0.008 h 0.051 l 0.012 0.004 l 0.02 0.004 l 0.016 0.008 l 0.02 0.008 l 0.051 0.051 l 0.043 0.047 l 0.043 0.051 l 0.039 0.051 l 0.035 0.055 l 0.031 0.051 l 0.047 0.117 l 0.008 0.016 l 0.004 0.02 l 0.008 0.02 l 0.008 0.023 l 0.004 0.047 l 0.004 0.051 v 0.059 l -0.008 0.063 l -0.008 0.066 l -0.012 0.074 l -0.023 0.074 l -0.023 0.066 l -0.027 0.059 l -0.027 0.055 l -0.027 0.051 l -0.031 0.047 l -0.031 0.039 l -0.031 0.035 l -0.027 0.027 l -0.027 0.039 l -0.035 0.039 l -0.031 0.043 l -0.043 0.055 l -0.133 0.133 l -0.043 0.035 l -0.039 0.027 l -0.039 0.023 l -0.043 0.02 l -0.031 0.008 l -0.012 0.004 l -0.016 0.008 l -0.035 0.035 l -0.008 0.016 l -0.012 0.008 l -0.02 0.012 l -0.016 0.008 l -0.02 0.016 l -0.043 0.02 l -0.051 0.023 l -0.063 0.016 l -0.066 0.023 l -0.078 0.012 l -0.086 0.023 l -0.063 0.016 l -0.063 0.012 l -0.063 0.008 l -0.102 0.008 l -0.047 -0.004 l -0.039 -0.004 l -0.039 -0.008 l -0.027 -0.004 l -0.027 -0.008 l -0.02 -0.004 l -0.031 -0.012 l -0.086 -0.07 l -0.043 -0.027 l -0.039 -0.02 l -0.039 -0.023 l -0.039 -0.016 l -0.035 -0.004 l -0.031 -0.008 h -0.039 l -0.012 0.004 l -0.02 0.004 l -0.023 0.008 l -0.031 0.016 l -0.012 0.016 l -0.016 0.012 l -0.008 0.02 l -0.012 0.02 l -0.008 0.023 l -0.004 0.023 v 0.055 l 0.004 0.031 l 0.008 0.027 l 0.004 0.027 l 0.023 0.063 l 0.016 0.023 l 0.016 0.031 l 0.02 0.027 l 0.02 0.023 l 0.02 0.027 l 0.008 0.031 l 0.012 0.027 v 0.016 l 0.008 0.023 l 0.008 0.012 l 0.008 0.016 l 0.008 0.02 l 0.012 0.016 l 0.016 0.016 l 0.016 0.012 l 0.031 0.039 l 0.027 0.039 l 0.02 0.039 l 0.016 0.039 l 0.016 0.02 l 0.016 0.012 l 0.02 0.016 l 0.023 0.012 l 0.027 0.012 l 0.031 0.008 l 0.031 0.012 l 0.039 0.004 l 0.039 0.008 l 0.047 0.008 l 0.051 0.02 l 0.063 0.016 l 0.023 0.004 l 0.027 0.004 l 0.035 -0.004 l 0.031 -0.004 l 0.035 -0.008 l 0.043 -0.008 l 0.039 -0.02 l 0.047 -0.016 l 0.09 -0.031 l 0.086 -0.031 l 0.078 -0.023 m -2.25 -1.043 l -0.035 0.027 l -0.043 0.023 l -0.055 0.031 l -0.059 0.031 l -0.074 0.027 l -0.078 0.035 l -0.094 0.039 l -0.098 0.035 l -0.043 0.008 l -0.078 0.016 l -0.031 0.016 l -0.035 0.008 l -0.031 0.012 l -0.023 0.012 l -0.027 0.02 l -0.035 0.016 l -0.043 0.023 l -0.047 0.016 l -0.055 0.02 l -0.063 0.016 l -0.07 0.016 l -0.156 0.023 l -0.051 0.004 l -0.047 0.012 l -0.047 0.008 l -0.039 0.016 l -0.043 0.02 l -0.035 0.023 l -0.039 0.023 l -0.07 0.07 l -0.023 0.031 l -0.027 0.035 l -0.012 0.035 l -0.016 0.031 l -0.008 0.031 v 0.066 l 0.02 0.039 l 0.012 0.043 l 0.039 0.07 l 0.027 0.031 l 0.023 0.027 l 0.035 0.027 l 0.031 0.023 l 0.031 0.012 l 0.027 0.016 l 0.078 0.016 l 0.039 0.004 l 0.047 0.004 l 0.047 -0.004 l 0.051 -0.004 h 0.039 l 0.039 -0.008 l 0.043 -0.016 l 0.043 -0.012 l 0.043 -0.016 l 0.043 -0.023 l 0.043 -0.02 l 0.043 -0.031 l 0.039 -0.023 l 0.07 -0.039 l 0.023 -0.016 l 0.031 -0.012 l 0.023 -0.008 l 0.02 -0.004 h 0.055 l 0.035 -0.012 l 0.043 -0.012 l 0.055 -0.02 l 0.051 -0.023 l 0.063 -0.023 l 0.07 -0.027 l 0.074 -0.035 l 0.102 -0.047 l 0.094 -0.043 l 0.039 -0.023 l 0.031 -0.016 l 0.031 -0.023 l 0.023 -0.02 l 0.031 -0.027 l 0.027 -0.027 l 0.031 -0.02 l 0.027 -0.023 l 0.027 -0.02 l 0.023 -0.016 l 0.027 -0.016 l 0.027 -0.012 l 0.047 -0.02 l 0.039 -0.016 l 0.039 -0.02 l 0.031 -0.02 l 0.035 -0.016 l 0.023 -0.023 l 0.023 -0.012 l 0.043 -0.043 l 0.016 -0.023 l 0.023 -0.02 l 0.02 -0.023 l 0.023 -0.016 l 0.023 -0.023 l 0.023 -0.016 l 0.027 -0.02 l 0.016 -0.008 h 0.004 l 0.008 -0.004 l 0.012 -0.004 h 0.059 l 0.039 -0.004 l 0.035 -0.008 l 0.031 -0.004 h 0.121 l 0.008 -0.008 l 0.012 -0.027 l 0.004 -0.039 l 0.016 -0.055 l 0.004 -0.043 l 0.012 -0.043 l 0.012 -0.035 l 0.016 -0.039 l 0.035 -0.016 l 0.035 -0.023 l 0.039 -0.023 l 0.078 -0.055 l 0.039 -0.035 l 0.043 -0.035 l 0.039 -0.039 l 0.023 -0.027 l 0.02 -0.027 l 0.07 -0.07 l 0.027 -0.016 l 0.031 -0.02 l 0.023 -0.016 l 0.07 -0.055 l 0.082 -0.063 l 0.078 -0.066 l 0.082 -0.066 l 0.02 -0.027 l 0.016 -0.02 l 0.02 -0.02 l 0.016 -0.02 l 0.078 -0.063 l 0.039 -0.023 l 0.063 -0.055 l 0.027 -0.027 l 0.02 -0.035 l 0.02 -0.031 l 0.016 -0.035 l 0.008 -0.035 v -0.035 l -0.004 -0.016 v -0.02 l -0.008 -0.012 l -0.004 -0.016 l -0.012 -0.016 l -0.008 -0.012 l -0.023 -0.023 l -0.031 -0.016 l -0.016 -0.012 l -0.016 -0.008 l -0.02 -0.008 l -0.023 -0.004 l -0.027 -0.008 h -0.059 l -0.031 0.008 l -0.035 0.016 l -0.035 0.012 l -0.035 0.02 l -0.035 0.027 l -0.047 0.039 l -0.047 0.035 l -0.047 0.039 l -0.051 0.035 l -0.047 0.035 l -0.051 0.035 l -0.055 0.035 l -0.051 0.031 l -0.02 0.012 l -0.023 0.012 l -0.016 0.02 l -0.02 0.016 l -0.016 0.02 l -0.016 0.016 l -0.016 0.02 l -0.012 0.023 l -0.055 0.031 l -0.066 0.043 l -0.078 0.055 l -0.09 0.066 l -0.066 0.043 l -0.055 0.035 l -0.055 0.039 l -0.109 0.063 l -0.047 0.035 l -0.051 0.027 l -0.043 0.023 l -0.047 0.031 l -0.063 0.035 l -0.066 0.043 l -0.07 0.055 l -0.027 0.016 l -0.02 0.023 l -0.027 0.016 l -0.023 0.023 l -0.023 0.016 l -0.055 0.031 l -0.027 0.012 l -0.027 0.016 l -0.027 0.012 l -0.031 0.02 l -0.02 0.016 l -0.027 0.016 l -0.02 0.02 l -0.023 0.02"/></g><use xlink:href="#3" mask="url(#1)"/></svg>