<svg xmlns="http://www.w3.org/2000/svg" viewBox="0 0 24 24"><path d="m 21.527 18.359 c 8.629 -12.273 -7.309 -24.711 -17.473 -14.711 c -9.578 9.426 -0.699 24.07 11.219 19.488 c 2.488 -0.953 4.672 -2.523 6.254 -4.777" fill="#dc133c"/><path d="m 16.01 5.637 l -1.996 9.379 l -0.082 0.395 l 0.383 -0.055 l 0.855 -0.137 l 0.184 -0.016 l 0.055 -0.188 l 0.297 -1.363 l 0.336 1.211 l 0.066 0.238 l 0.23 -0.035 l 0.891 -0.137 l 0.32 -0.031 l -0.84 -2.781 l 2.293 -2.527 l -0.781 0.137 l -0.789 0.137 h -0.082 l -0.066 0.07 l -0.973 1.078 l 1.105 -5.305 m -8.16 1.926 l -0.918 0.152 l -3.754 9.348 l 0.488 -0.102 l 0.785 -0.137 l 0.148 -0.031 l 0.055 -0.137 l 0.602 -1.57 l 1.172 -0.172 v 1.23 l -0.016 0.324 l 0.316 -0.055 l 0.922 -0.152 l 0.234 -0.035 l -0.016 -0.238 l -0.02 -8.422 m 3.738 2.406 c -0.055 0.004 -0.117 0.004 -0.184 0.012 c -0.941 0.031 -1.793 0.613 -1.945 1.293 c -0.117 0.547 0.035 0.922 0.621 1.586 c 0.621 0.664 0.77 0.957 0.688 1.348 c -0.051 0.254 -0.469 0.578 -0.957 0.648 c -0.25 0.031 -0.418 0.031 -0.57 0 l -0.164 -0.051 l -0.102 0.137 l -0.402 0.492 l -0.285 0.344 l 0.438 0.102 c 0.266 0.066 0.668 0.066 1.102 -0.02 c 0.973 -0.152 2.129 -0.867 2.332 -1.754 c 0.184 -0.82 -0.152 -1.332 -0.855 -2.047 c -0.555 -0.563 -0.52 -0.699 -0.484 -0.801 c 0.016 -0.117 0.234 -0.289 0.535 -0.305 c 0.266 0 0.402 0.016 0.5 0.051 l 0.152 0.031 l 0.117 -0.121 l 0.367 -0.391 l 0.301 -0.324 l -0.434 -0.117 c -0.191 -0.063 -0.367 -0.121 -0.77 -0.113 m -5.01 0.934 l -0.188 2.762 l -0.77 0.105" fill="#fff"/></svg>