<svg xmlns="http://www.w3.org/2000/svg" xmlns:xlink="http://www.w3.org/1999/xlink" viewBox="0 0 24 24"><defs><g id="2" clip-path="url(#1)"><path d="m 11.57 10.637 l 2.055 2.281 c 0.301 0.332 0.781 0.332 1.078 0 c 0.297 -0.328 0.297 -0.863 0 -1.191 l -2.059 -2.285 c -1.473 -1.629 -3.852 -1.656 -5.355 -0.082 c -0.012 0.016 -0.027 0.027 -0.039 0.043 c -0.008 0.008 -0.012 0.012 -0.02 0.02 c -0.004 0.008 -0.012 0.016 -0.02 0.02 c -0.012 0.016 -0.023 0.031 -0.035 0.047 c -1.422 1.668 -1.398 4.305 0.074 5.938 l 2.059 2.281 c 0.297 0.332 0.777 0.332 1.078 0 c 0.297 -0.328 0.297 -0.863 0 -1.191 l -2.059 -2.281 c -0.898 -0.996 -0.906 -2.613 -0.02 -3.617 c 0.906 -0.98 2.363 -0.973 3.262 0.02"/><path d="m 14.227 7.602 c -0.297 0.328 -0.297 0.863 0 1.191 l 2.059 2.281 c 0.898 0.996 0.902 2.613 0.016 3.617 c -0.906 0.98 -2.359 0.973 -3.258 -0.02 l -2.059 -2.285 c -0.297 -0.328 -0.781 -0.328 -1.078 0 c -0.297 0.332 -0.297 0.867 0 1.195 l 2.059 2.281 c 1.473 1.633 3.852 1.66 5.355 0.086 c 0.012 -0.016 0.027 -0.027 0.039 -0.043 c 0.008 -0.008 0.012 -0.016 0.02 -0.02 c 0.008 -0.008 0.012 -0.016 0.02 -0.023 c 0.012 -0.012 0.023 -0.027 0.035 -0.043 c 1.426 -1.668 1.398 -4.305 -0.074 -5.938 l -2.055 -2.281 c -0.301 -0.332 -0.781 -0.332 -1.078 0"/></g><g id="5" clip-path="url(#4)"><use xlink:href="#2" mask="url(#3)"/><path d="m 11.57 10.148 l 2.055 2.281 c 0.301 0.332 0.781 0.328 1.078 0 c 0.297 -0.328 0.297 -0.863 0 -1.195 l -2.059 -2.281 c -1.473 -1.633 -3.852 -1.656 -5.355 -0.082 c -0.012 0.012 -0.027 0.027 -0.039 0.039 c -0.008 0.008 -0.012 0.016 -0.02 0.023 c -0.004 0.008 -0.012 0.012 -0.02 0.02 c -0.012 0.016 -0.023 0.031 -0.035 0.047 c -1.422 1.668 -1.398 4.305 0.074 5.938 l 2.059 2.281 c 0.297 0.332 0.777 0.332 1.078 0 c 0.297 -0.328 0.297 -0.863 0 -1.195 l -2.059 -2.281 c -0.898 -0.992 -0.906 -2.609 -0.02 -3.613 c 0.906 -0.98 2.363 -0.973 3.262 0.02" fill="#fff"/><path d="m 14.227 7.109 c -0.297 0.332 -0.297 0.867 0 1.195 l 2.059 2.281 c 0.898 0.996 0.902 2.613 0.016 3.617 c -0.906 0.98 -2.359 0.973 -3.258 -0.023 l -2.059 -2.281 c -0.297 -0.328 -0.781 -0.328 -1.078 0 c -0.297 0.332 -0.297 0.867 0 1.195 l 2.059 2.281 c 1.473 1.633 3.852 1.66 5.355 0.082 c 0.012 -0.012 0.027 -0.023 0.039 -0.039 c 0.008 -0.008 0.012 -0.016 0.02 -0.023 c 0.008 -0.004 0.012 -0.012 0.02 -0.02 c 0.012 -0.016 0.023 -0.031 0.035 -0.043 c 1.426 -1.668 1.398 -4.309 -0.074 -5.941 l -2.055 -2.281 c -0.301 -0.328 -0.781 -0.328 -1.078 0" fill="#fff"/></g><clipPath id="4"><path d="M 0,0 H24 V24 H0 z"/></clipPath><clipPath id="1"><path d="M 0,0 H24 V24 H0 z"/></clipPath><filter id="0" filterUnits="objectBoundingBox" x="0" y="0" width="24" height="24"><feColorMatrix type="matrix" in="SourceGraphic" values="0 0 0 0 1 0 0 0 0 1 0 0 0 0 1 0 0 0 1 0"/></filter><mask id="3"><g filter="url(#0)"><use xlink:href="#2"/></g></mask></defs><path d="m 21.21 19.836 c 5.84 -8.977 1.129 -17.16 -5.48 -19.1 c -8.891 -2.609 -20.961 4.25 -13.01 18.387 c 3.16 5.617 14.328 7.105 18.488 0.711" fill="#c71485"/><use xlink:href="#5"/></svg>