<svg xmlns="http://www.w3.org/2000/svg" viewBox="0 0 24 24"><path d="m 12.01 6.23 c -0.438 0 -0.789 0.336 -0.789 0.75 v 0.828 c -1.809 0.348 -3.164 1.863 -3.164 3.687 v 3.01 c -0.879 0 -1.582 0.672 -1.582 1.504 v 0.754 h 4.746 v 0.754 c 0 0.414 0.352 0.75 0.789 0.75 c 0.441 0 0.793 -0.336 0.793 -0.75 v -0.754 h 4.746 v -0.754 c 0 -0.832 -0.707 -1.504 -1.582 -1.504 v -3.01 c 0 -1.824 -1.355 -3.34 -3.164 -3.687 v -0.828 c 0 -0.414 -0.352 -0.75 -0.793 -0.75" fill="#fff"/><path d="m 6.01 1.84 c -20.934 18.05 22.11 35.406 17.684 7.488 c -0.969 -6.121 -12.04 -12.355 -17.684 -7.488" fill="#ffd600"/><path d="m 12.273 19.258 c 0.063 -0.074 0.047 -0.16 -0.129 -0.676 c -0.254 -0.754 -0.289 -0.906 -0.289 -1.336 c -0.004 -0.352 0.004 -0.383 0.078 -0.453 c 0.043 -0.039 0.117 -0.074 0.164 -0.074 c 0.199 0 1.07 -0.285 1.691 -0.555 c 1.051 -0.457 2.5 -1.504 3.434 -2.477 c 0.109 -0.113 0.211 -0.207 0.227 -0.207 c 0.016 0 0.047 0.066 0.07 0.145 c 0.055 0.188 0.316 0.789 0.414 0.949 c 0.426 0.707 0.969 1.191 1.594 1.434 c 0.336 0.129 0.738 0.211 1.039 0.211 c 0.402 0 0.445 -0.121 0.203 -0.566 c -0.422 -0.77 -0.758 -1.734 -0.902 -2.594 c -0.063 -0.363 -0.055 -1 0.016 -1.391 c 0.113 -0.629 0.359 -1.32 0.746 -2.117 c 0.27 -0.547 0.289 -0.625 0.191 -0.734 c -0.066 -0.074 -0.094 -0.078 -0.336 -0.055 c -1.035 0.102 -2.023 0.875 -2.785 2.184 c -0.121 0.207 -0.23 0.375 -0.246 0.375 c -0.012 0 -0.172 -0.145 -0.355 -0.32 c -0.723 -0.707 -1.711 -1.516 -2.348 -1.914 c -0.379 -0.234 -0.563 -0.555 -0.594 -1.043 c -0.031 -0.488 0.137 -0.945 0.613 -1.699 c 0.141 -0.223 0.273 -0.441 0.297 -0.492 c 0.098 -0.207 0.195 -0.199 -2.363 -0.199 h -2.367 l -0.203 0.094 c -0.664 0.309 -1.402 1.145 -1.742 1.98 l -0.145 0.359 l -0.238 0.082 c -0.637 0.215 -1.402 0.625 -1.922 1.02 c -0.949 0.719 -1.793 1.801 -2.289 2.941 c -0.129 0.289 -0.145 0.355 -0.145 0.598 c 0 0.32 0.082 0.523 0.438 1.066 c 0.945 1.445 2.348 2.379 4.172 2.789 c 0.234 0.051 0.484 0.105 0.559 0.117 c 0.098 0.02 0.137 0.051 0.148 0.109 c 0.047 0.199 0.293 0.668 0.52 0.992 c 0.375 0.535 1.031 1.195 1.41 1.422 c 0.125 0.074 0.191 0.082 0.734 0.082 c 0.422 0 0.609 -0.012 0.641 -0.047 m -5.414 -5.863 c -0.172 -0.063 -0.441 -0.281 -0.551 -0.441 c -0.055 -0.078 -0.137 -0.246 -0.184 -0.375 c -0.07 -0.195 -0.078 -0.277 -0.066 -0.543 c 0.02 -0.406 0.129 -0.672 0.387 -0.941 c 0.262 -0.273 0.492 -0.363 0.863 -0.344 c 0.25 0.016 0.32 0.035 0.508 0.145 c 0.246 0.152 0.418 0.359 0.543 0.656 c 0.074 0.18 0.09 0.27 0.09 0.543 c 0 0.273 -0.016 0.363 -0.09 0.547 c -0.164 0.398 -0.504 0.719 -0.852 0.801 c -0.168 0.039 -0.484 0.016 -0.648 -0.047 m 0.617 -0.789 c 0.164 -0.098 0.25 -0.246 0.266 -0.461 c 0.02 -0.254 -0.07 -0.43 -0.273 -0.547 c -0.113 -0.066 -0.188 -0.086 -0.27 -0.07 c -0.273 0.063 -0.445 0.293 -0.441 0.602 c 0.004 0.391 0.41 0.664 0.719 0.477" fill="#fff"/></svg>