<svg xmlns="http://www.w3.org/2000/svg" viewBox="0 0 24 24"><path d="m 0.277 14.746 c 1.488 9.68 14.707 12.27 20.543 5.359 c 5.137 -5.129 3.855 -14.953 -2.445 -18.32 c -7.238 -4.508 -17.781 1.063 -18.359 10.03 c -0.059 0.984 0.027 1.977 0.262 2.93" fill="#f4f4f4"/><path d="m 17.16 19.805 c -0.09 -0.09 -0.152 -0.523 -0.152 -1.094 c 0 -0.883 -0.113 -1.48 -0.586 -3.078 c -0.168 -0.555 -0.242 -0.652 -0.504 -0.652 h -0.309 v 2.152 c 0 1.508 -0.047 2.195 -0.156 2.301 c -0.082 0.082 -0.48 0.148 -0.883 0.148 c -1.121 0 -1.129 -0.016 -1.129 -2.496 c 0 -2.023 -0.012 -2.105 -0.254 -2.105 c -0.242 0 -0.254 0.082 -0.254 1.648 c 0 1.355 -0.043 1.73 -0.234 2.086 c -0.277 0.516 -1.145 0.992 -1.801 0.988 c -0.586 -0.004 -1.422 -0.379 -1.75 -0.785 l -0.258 -0.32 l -0.164 0.301 c -0.277 0.504 -0.863 0.684 -2.223 0.684 c -0.68 0 -1.344 -0.059 -1.48 -0.129 c -0.23 -0.121 -0.246 -0.289 -0.246 -3.086 c 0 -2.133 0.043 -2.996 0.152 -3.105 c 0.195 -0.188 2.145 -0.199 2.816 -0.016 c 0.27 0.074 0.598 0.238 0.73 0.371 c 0.238 0.23 0.242 0.227 0.406 -0.102 c 0.16 -0.32 0.219 -0.34 1.121 -0.355 c 0.523 -0.008 1.023 -0.023 1.113 -0.031 c 0.105 -0.012 0.156 -0.254 0.156 -0.762 v -0.746 h -0.676 c -0.371 0 -0.742 -0.066 -0.824 -0.145 c -0.113 -0.113 -0.203 -0.102 -0.379 0.055 c -0.695 0.613 -1.832 0.742 -2.703 0.309 c -1.039 -0.52 -1.086 -0.656 -1.086 -3.266 c 0 -2.113 0.02 -2.309 0.262 -2.625 c 0.406 -0.535 0.832 -0.785 1.461 -0.871 c 1.27 -0.168 2.313 0.438 2.594 1.508 l 0.164 0.621 l 0.094 -0.746 c 0.156 -1.211 0.27 -1.305 1.535 -1.305 c 0.77 0 1.125 0.051 1.258 0.18 c 0.16 0.156 0.426 1.246 0.488 2 c 0.012 0.133 0.055 -0.215 0.098 -0.77 c 0.047 -0.559 0.156 -1.105 0.254 -1.215 c 0.121 -0.145 0.383 -0.199 0.91 -0.199 c 1.102 0 1.141 0.082 1.141 2.574 c 0 1.945 0.008 2.027 0.254 2.027 c 0.242 0 0.254 -0.082 0.254 -2.105 c 0 -1.75 0.035 -2.141 0.199 -2.301 c 0.258 -0.25 1.617 -0.273 1.82 -0.031 c 0.086 0.102 0.152 0.973 0.176 2.266 c 0.031 1.996 0.047 2.109 0.289 2.152 c 0.469 0.082 0.699 0.398 0.699 0.961 c 0 0.902 -0.027 0.91 -3.074 0.914 c -1.48 0 -2.715 0.027 -2.75 0.059 c -0.031 0.031 -0.074 0.273 -0.09 0.535 c -0.012 0.258 -0.051 0.559 -0.082 0.66 c -0.047 0.16 0.262 0.195 2.086 0.25 c 1.687 0.047 2.16 0.098 2.254 0.242 c 0.098 0.156 0.148 0.152 0.363 -0.039 c 0.188 -0.168 0.418 -0.211 0.98 -0.18 c 1.094 0.055 1.105 0.121 0.469 2.301 c -0.449 1.527 -0.539 2.023 -0.539 2.902 c 0.004 1.418 -0.133 1.613 -1.125 1.613 c -0.402 0 -0.801 -0.066 -0.887 -0.148 m -10.887 -3.992 l -0.047 -0.527 l -0.102 0.406 c -0.07 0.277 -0.18 0.402 -0.344 0.402 c -0.191 0 -0.238 0.094 -0.238 0.492 c 0 0.414 0.055 0.516 0.352 0.656 l 0.348 0.164 l 0.039 -0.535 c 0.023 -0.293 0.02 -0.77 -0.008 -1.059 m 8.746 1.332 c 0.133 -0.34 0.078 -1.098 -0.102 -1.414 c -0.098 -0.168 -0.145 -0.379 -0.109 -0.469 c 0.035 -0.09 -0.027 -0.16 -0.145 -0.16 c -0.273 0 -0.457 0.496 -0.457 1.242 c 0 0.789 0.094 0.996 0.445 0.996 c 0.16 0 0.328 -0.09 0.367 -0.195 m -4.633 -1 c 0 -0.926 -0.027 -1.062 -0.203 -0.996 c -0.109 0.043 -0.281 0.074 -0.383 0.074 c -0.137 0 -0.18 0.199 -0.18 0.852 c 0 0.762 0.031 0.867 0.285 0.988 c 0.16 0.074 0.332 0.141 0.383 0.145 c 0.055 0.004 0.098 -0.473 0.098 -1.063 m -2.039 0.203 c 0 -0.621 -0.035 -0.73 -0.199 -0.668 c -0.113 0.043 -0.273 -0.027 -0.383 -0.16 c -0.164 -0.211 -0.18 -0.152 -0.152 0.574 c 0.027 0.68 0.066 0.805 0.246 0.773 c 0.117 -0.016 0.25 0.023 0.293 0.094 c 0.156 0.246 0.195 0.125 0.195 -0.613 m 3.906 0.098 c -0.039 -0.102 -0.07 -0.07 -0.074 0.074 c -0.008 0.133 0.023 0.203 0.066 0.164 c 0.043 -0.043 0.047 -0.148 0.008 -0.238 m 5.504 -0.508 c -0.008 -0.219 -0.051 -0.559 -0.094 -0.75 c -0.07 -0.305 -0.109 -0.328 -0.289 -0.188 c -0.191 0.145 -0.195 0.219 -0.031 0.754 c 0.211 0.676 0.438 0.781 0.414 0.184 m 1.281 -0.293 c 0.082 -0.316 0.133 -0.59 0.109 -0.609 c -0.02 -0.016 -0.156 0.016 -0.305 0.066 c -0.313 0.117 -0.523 0.984 -0.273 1.137 c 0.227 0.137 0.309 0.035 0.469 -0.594 m -13.176 -0.047 c -0.043 -0.07 -0.133 -0.125 -0.199 -0.125 c -0.066 0 -0.121 0.055 -0.121 0.125 c 0 0.066 0.09 0.125 0.199 0.125 c 0.109 0 0.164 -0.059 0.121 -0.125 m 12.1 -7.273 v -0.977 l -0.348 -0.016 c -0.402 -0.016 -0.465 0.117 -0.422 0.926 c 0.07 1.324 0.035 1.23 0.422 1.133 c 0.344 -0.09 0.348 -0.109 0.348 -1.066 m -6.633 0.047 c 0.094 -0.809 0 -1.164 -0.133 -0.512 c -0.043 0.215 -0.145 0.379 -0.223 0.363 c -0.082 -0.016 -0.164 0.176 -0.184 0.441 c -0.035 0.391 0 0.465 0.207 0.465 c 0.203 0 0.258 -0.121 0.332 -0.758 m -4.137 0.293 c -0.004 -0.328 -0.012 -0.332 -0.191 -0.102 c -0.145 0.188 -0.152 0.262 -0.027 0.34 c 0.227 0.141 0.223 0.141 0.219 -0.238 m 2.68 -0.012 c 0 -0.176 -0.152 -0.207 -1.02 -0.207 c -0.934 0 -1.02 0.02 -1.02 0.25 c 0 0.23 0.07 0.246 1.02 0.207 c 0.852 -0.035 1.02 -0.074 1.02 -0.25 m 3.039 0.242 c 0.109 -0.066 0.141 -0.207 0.086 -0.375 c -0.047 -0.145 -0.133 -0.234 -0.191 -0.199 c -0.063 0.035 -0.148 -0.109 -0.195 -0.316 c -0.133 -0.594 -0.211 -0.348 -0.117 0.363 c 0.09 0.66 0.129 0.707 0.418 0.527 m 1.93 -0.418 c 0 -0.059 0.059 -0.074 0.129 -0.031 c 0.07 0.043 0.098 0.129 0.063 0.188 c -0.039 0.059 -0.012 0.141 0.063 0.184 c 0.082 0.051 0.125 -0.227 0.125 -0.77 c -0.004 -0.73 -0.027 -0.816 -0.176 -0.629 c -0.195 0.258 -0.41 0.281 -0.5 0.063 c -0.035 -0.086 -0.066 0.238 -0.07 0.715 c -0.008 0.793 0.012 0.852 0.18 0.629 c 0.102 -0.133 0.188 -0.289 0.188 -0.348 m -5.477 -0.641 c 0 -0.102 -0.781 -0.152 -0.844 -0.055 c -0.035 0.059 0.141 0.105 0.387 0.105 c 0.25 0 0.457 -0.023 0.457 -0.051" fill="#cecfd1"/><path d="m 17.14 19.59 c -0.07 -0.133 -0.133 -0.707 -0.133 -1.273 c -0.004 -0.758 -0.098 -1.352 -0.355 -2.219 c -0.309 -1.023 -0.395 -1.188 -0.652 -1.223 c -0.164 -0.023 -0.348 0.031 -0.406 0.125 c -0.059 0.09 -0.109 1.098 -0.109 2.234 c -0.004 1.773 -0.031 2.082 -0.207 2.148 c -0.371 0.137 -1.418 0.078 -1.563 -0.09 c -0.086 -0.102 -0.152 -0.977 -0.172 -2.27 l -0.035 -2.105 h -0.641 l -0.063 1.805 c -0.043 1.211 -0.117 1.883 -0.234 2.051 c -0.336 0.488 -0.82 0.734 -1.543 0.777 c -0.84 0.055 -1.449 -0.215 -1.883 -0.836 l -0.285 -0.406 l -0.113 0.293 c -0.262 0.668 -0.57 0.789 -2.102 0.828 c -0.793 0.02 -1.504 -0.02 -1.609 -0.09 c -0.16 -0.102 -0.199 -0.586 -0.234 -2.77 c -0.023 -1.641 0.012 -2.781 0.094 -2.992 l 0.133 -0.34 h 1.309 c 1.391 0 1.883 0.141 2.242 0.645 c 0.188 0.254 0.191 0.254 0.328 -0.16 l 0.141 -0.422 l 1.051 -0.004 c 0.574 -0.004 1.109 -0.063 1.184 -0.137 c 0.074 -0.078 0.121 -0.457 0.098 -0.867 l -0.039 -0.734 l -0.695 -0.039 c -0.383 -0.02 -0.766 -0.094 -0.848 -0.16 c -0.102 -0.082 -0.301 -0.023 -0.621 0.191 c -0.82 0.539 -2.059 0.586 -2.73 0.098 c -0.738 -0.539 -0.84 -0.902 -0.84 -3.074 c 0 -2.191 0.098 -2.535 0.871 -3.098 c 0.543 -0.398 2.023 -0.375 2.617 0.035 c 0.504 0.352 0.781 0.93 0.781 1.621 c 0 0.906 0.219 0.637 0.363 -0.445 c 0.078 -0.586 0.207 -1.145 0.285 -1.238 c 0.105 -0.121 0.465 -0.172 1.211 -0.172 c 1.301 0 1.352 0.055 1.574 1.672 c 0.23 1.695 0.379 1.719 0.383 0.063 c 0.004 -0.945 0.059 -1.488 0.156 -1.586 c 0.211 -0.207 1.563 -0.195 1.742 0.016 c 0.086 0.102 0.152 0.973 0.176 2.27 l 0.035 2.105 h 0.637 l 0.035 -2.105 c 0.02 -1.297 0.086 -2.168 0.172 -2.27 c 0.09 -0.102 0.426 -0.164 0.895 -0.164 c 0.688 0 0.762 0.027 0.875 0.316 c 0.066 0.176 0.125 1.188 0.125 2.246 c 0 1.723 0.023 1.93 0.223 1.988 c 0.504 0.152 0.605 0.277 0.645 0.789 c 0.066 0.875 0.074 0.871 -2.941 0.871 c -1.477 0 -2.727 0.043 -2.777 0.098 c -0.055 0.055 -0.113 0.434 -0.137 0.844 l -0.047 0.746 l 2.07 0.035 c 2.055 0.031 2.07 0.035 2.281 0.344 l 0.207 0.313 l 0.148 -0.281 c 0.129 -0.254 0.238 -0.285 0.969 -0.285 c 1.055 0 1.059 0.02 0.387 2.262 c -0.43 1.43 -0.52 1.902 -0.52 2.797 c 0 1.328 -0.105 1.473 -1.086 1.473 c -0.551 0 -0.715 -0.051 -0.82 -0.242 m -5.16 -0.789 c 0.328 -0.273 0.34 -0.332 0.406 -2.035 c 0.039 -1.078 0.02 -1.781 -0.059 -1.828 c -0.066 -0.043 -0.254 0.063 -0.418 0.23 c -0.254 0.266 -0.273 0.348 -0.145 0.625 c 0.191 0.406 0.188 0.43 -0.051 0.43 c -0.152 0 -0.191 0.109 -0.16 0.469 c 0.035 0.398 0.082 0.461 0.328 0.438 c 0.262 -0.027 0.285 0.02 0.281 0.559 c -0.004 0.672 -0.297 1.109 -0.852 1.273 l -0.355 0.102 l 0.344 0.012 c 0.188 0.004 0.496 -0.117 0.68 -0.273 m -3.691 -0.098 c 0.137 -0.219 -0.02 -0.262 -0.195 -0.059 c -0.102 0.121 -0.109 0.191 -0.027 0.191 c 0.078 0 0.176 -0.059 0.223 -0.133 m 0.168 -2.441 c 0.016 -1.094 -0.125 -1.59 -0.285 -1 l -0.074 0.277 l -0.203 -0.281 c -0.113 -0.156 -0.258 -0.25 -0.32 -0.211 c -0.137 0.082 -0.156 1.371 -0.035 2.086 c 0.063 0.387 0.125 0.465 0.316 0.418 c 0.176 -0.043 0.262 0.027 0.328 0.27 l 0.086 0.332 l 0.086 -0.375 c 0.051 -0.203 0.094 -0.887 0.102 -1.516 m -2 -0.258 c 0.039 -1.613 -0.031 -2.09 -0.23 -1.586 c -0.039 0.105 -0.184 0.188 -0.316 0.188 c -0.285 0 -0.32 0.191 -0.047 0.293 c 0.289 0.109 0.227 0.434 -0.098 0.477 c -0.234 0.031 -0.293 0.133 -0.328 0.539 c -0.074 0.914 0.09 1.555 0.434 1.68 c 0.168 0.063 0.309 0.184 0.309 0.27 c 0 0.094 0.043 0.105 0.117 0.031 c 0.066 -0.063 0.137 -0.914 0.16 -1.891 m 4.047 0.133 c 0.008 -1.156 -0.102 -1.613 -0.309 -1.285 c -0.043 0.07 -0.188 0.129 -0.313 0.129 c -0.316 0 -0.391 0.238 -0.387 1.223 c 0 1.117 0.094 1.426 0.402 1.348 c 0.152 -0.039 0.277 0.012 0.324 0.133 c 0.156 0.395 0.27 -0.246 0.281 -1.547 m 4.648 1.066 c 0.047 -0.348 0.047 -1.012 0 -1.473 c -0.055 -0.547 -0.031 -0.934 0.063 -1.105 c 0.082 -0.148 0.113 -0.27 0.074 -0.27 c -0.152 0 -0.895 0.414 -0.984 0.547 c -0.113 0.164 -0.129 2.336 -0.023 2.609 c 0.039 0.102 0.148 0.16 0.242 0.125 c 0.09 -0.035 0.203 -0.004 0.25 0.07 c 0.176 0.273 0.293 0.113 0.379 -0.504 m 3.746 -0.762 c 0.227 -0.703 0.445 -1.496 0.492 -1.77 l 0.082 -0.492 l -0.457 0.434 c -0.277 0.262 -0.488 0.605 -0.539 0.871 c -0.203 1.055 -0.496 0.949 -0.703 -0.258 c -0.082 -0.477 -0.203 -0.871 -0.266 -0.871 c -0.063 0 -0.117 0.066 -0.117 0.148 c 0 0.078 -0.078 0.234 -0.176 0.34 c -0.152 0.168 -0.152 0.297 0 0.855 c 0.094 0.363 0.297 0.934 0.441 1.27 c 0.234 0.527 0.363 0.652 0.762 0.73 c 0.039 0.012 0.254 -0.559 0.48 -1.258 m -0.922 0.301 c -0.109 -0.176 0.273 -0.434 0.508 -0.348 c 0.109 0.043 0.18 0.148 0.148 0.234 c -0.063 0.188 -0.551 0.273 -0.656 0.113 m -6.246 -6.672 c 0.234 -0.176 0.23 -0.184 -0.105 -0.188 c -0.227 -0.004 -0.348 0.063 -0.348 0.184 c 0 0.234 0.137 0.234 0.453 0.004 m -2.238 -0.121 c 0 -0.098 -0.059 -0.215 -0.129 -0.258 c -0.07 -0.043 -0.125 0.039 -0.125 0.18 c 0 0.141 0.055 0.258 0.125 0.258 c 0.07 0 0.129 -0.082 0.129 -0.18 m 8.313 -0.004 c 0.137 0.055 0.207 -0.051 0.27 -0.402 c 0.105 -0.625 0.082 -2.133 -0.043 -2.523 c -0.086 -0.273 -0.109 -0.285 -0.191 -0.09 c -0.059 0.137 -0.203 0.211 -0.371 0.188 c -0.254 -0.035 -0.27 0.023 -0.309 1.082 c -0.047 1.395 0.047 2 0.285 1.813 c 0.094 -0.074 0.254 -0.105 0.359 -0.066 m -10.457 -2.105 c 0.035 -1.281 0.012 -1.535 -0.117 -1.359 c -0.09 0.117 -0.16 0.328 -0.16 0.469 c -0.004 0.41 -0.191 0.602 -0.492 0.508 c -0.219 -0.066 -0.273 -0.031 -0.273 0.176 c 0 0.188 0.082 0.258 0.313 0.258 c 0.363 0 0.488 0.141 0.375 0.43 c -0.059 0.148 -0.172 0.188 -0.383 0.137 c -0.234 -0.059 -0.301 -0.023 -0.301 0.145 c 0.004 0.273 0.117 0.43 0.445 0.605 c 0.141 0.074 0.273 0.273 0.301 0.438 c 0.105 0.66 0.25 -0.238 0.293 -1.805 m 7.992 0.359 c 0.004 -0.547 -0.035 -1.055 -0.086 -1.129 c -0.051 -0.07 -0.266 -0.129 -0.477 -0.125 l -0.379 0.012 l -0.043 0.871 c -0.055 1.211 0.047 1.668 0.348 1.594 c 0.133 -0.035 0.281 0.008 0.34 0.098 c 0.172 0.273 0.289 -0.25 0.297 -1.32 m -4.098 1.152 c 0.125 -0.152 0.434 -2.598 0.34 -2.691 c -0.023 -0.027 -0.102 0.094 -0.172 0.27 c -0.066 0.18 -0.234 0.383 -0.375 0.453 c -0.191 0.102 -0.27 0.316 -0.34 0.937 c -0.047 0.445 -0.055 0.891 -0.012 0.996 c 0.09 0.23 0.387 0.246 0.559 0.035 m 1.887 -0.746 c -0.047 -0.43 -0.148 -1.051 -0.219 -1.379 l -0.133 -0.605 l -0.258 0.414 c -0.215 0.344 -0.242 0.535 -0.172 1.191 c 0.105 1.027 0.168 1.156 0.551 1.156 c 0.316 0 0.32 -0.008 0.23 -0.777 m -4.086 0.34 h 0.895 l 0.039 -0.484 c 0.039 -0.457 0.031 -0.473 -0.18 -0.266 c -0.18 0.176 -0.395 0.207 -1.156 0.172 l -0.934 -0.047 v 0.418 c 0 0.359 0.035 0.406 0.223 0.316 c 0.121 -0.059 0.625 -0.109 1.113 -0.109 m 0.449 -1.242 c 0 -0.324 -0.195 -0.426 -0.289 -0.156 c -0.043 0.113 -0.125 0.098 -0.309 -0.063 c -0.289 -0.25 -0.422 -0.176 -0.422 0.238 c 0 0.258 0.059 0.289 0.508 0.289 c 0.461 0 0.512 -0.031 0.512 -0.309" fill="#b8c3d0"/><path d="m 17.273 19.715 c -0.133 -0.086 -0.211 -0.504 -0.273 -1.523 c -0.086 -1.316 -0.461 -2.977 -0.734 -3.246 c -0.063 -0.059 -0.25 -0.094 -0.418 -0.07 l -0.301 0.043 l -0.035 2.105 c -0.02 1.297 -0.086 2.168 -0.172 2.27 c -0.18 0.211 -1.266 0.215 -1.551 0.008 c -0.18 -0.133 -0.219 -0.457 -0.246 -2.27 l -0.035 -2.113 l -0.348 -0.039 l -0.352 -0.039 v 1.656 c 0 1.816 -0.133 2.285 -0.781 2.75 c -0.809 0.578 -2.367 0.293 -2.863 -0.52 c -0.125 -0.215 -0.266 -0.387 -0.305 -0.387 c -0.039 0 -0.137 0.168 -0.215 0.375 c -0.215 0.547 -0.809 0.746 -2.238 0.746 c -0.758 0 -1.246 -0.055 -1.344 -0.152 c -0.215 -0.211 -0.215 -5.707 0 -5.918 c 0.219 -0.215 2.293 -0.195 2.836 0.023 c 0.238 0.098 0.531 0.328 0.656 0.516 l 0.227 0.336 l 0.141 -0.48 l 0.141 -0.484 h 1.012 c 0.559 0 1.086 -0.043 1.172 -0.102 c 0.102 -0.063 0.16 -0.395 0.16 -0.898 v -0.805 h -0.629 c -0.348 0 -0.773 -0.063 -0.949 -0.141 c -0.273 -0.121 -0.371 -0.098 -0.707 0.18 c -0.969 0.793 -2.812 0.457 -3.262 -0.598 c -0.266 -0.617 -0.262 -4.281 0.004 -4.785 c 0.625 -1.184 2.852 -1.324 3.648 -0.23 c 0.336 0.461 0.496 1.977 0.242 2.277 c -0.188 0.219 -1.594 0.27 -1.723 0.066 c -0.18 -0.285 -0.32 -0.09 -0.32 0.449 c 0 0.484 0.031 0.551 0.184 0.426 c 0.113 -0.09 0.539 -0.137 1.113 -0.117 l 0.926 0.027 l 0.262 -1.73 c 0.141 -0.953 0.301 -1.801 0.359 -1.887 c 0.148 -0.223 2.172 -0.215 2.363 0.012 c 0.078 0.09 0.234 0.773 0.348 1.523 c 0.289 1.922 0.426 2 0.43 0.262 c 0.004 -0.809 0.063 -1.578 0.137 -1.711 c 0.109 -0.195 0.27 -0.242 0.883 -0.242 c 0.465 0 0.793 0.063 0.855 0.156 c 0.059 0.086 0.133 1.105 0.168 2.27 l 0.063 2.117 l 0.703 0.078 v -2.16 c 0 -1.516 0.047 -2.207 0.152 -2.313 c 0.211 -0.203 1.434 -0.191 1.613 0.016 c 0.086 0.102 0.152 0.977 0.172 2.273 l 0.035 2.105 l 0.32 0.039 c 0.414 0.051 0.637 0.344 0.637 0.844 c 0 0.754 -0.102 0.781 -3.02 0.781 c -1.563 0 -2.68 0.051 -2.754 0.125 c -0.07 0.066 -0.145 0.336 -0.168 0.598 c -0.023 0.258 -0.059 0.586 -0.078 0.723 c -0.035 0.238 0.055 0.25 2.129 0.309 c 2.094 0.063 2.172 0.074 2.293 0.344 c 0.16 0.359 0.246 0.352 0.426 -0.031 c 0.125 -0.27 0.227 -0.313 0.773 -0.313 c 0.773 0 1.031 0.09 1.031 0.355 c -0.004 0.113 -0.23 0.961 -0.512 1.883 c -0.418 1.383 -0.508 1.863 -0.508 2.738 c 0 1.371 -0.152 1.617 -0.992 1.617 c -0.332 -0.004 -0.684 -0.055 -0.785 -0.117 m 1.27 -0.383 c 0 -0.066 -0.172 -0.121 -0.383 -0.121 c -0.211 0 -0.383 0.055 -0.383 0.121 c 0 0.07 0.172 0.125 0.383 0.125 c 0.211 0 0.383 -0.055 0.383 -0.125 m -6.75 -0.313 c 0.203 -0.102 0.43 -0.293 0.504 -0.426 c 0.168 -0.313 0.172 -3.82 0.004 -3.926 c -0.07 -0.043 -0.129 -0.016 -0.129 0.055 c 0 0.074 -0.086 0.133 -0.188 0.133 c -0.266 0 -0.488 0.469 -0.406 0.867 c 0.039 0.188 0.012 0.398 -0.063 0.469 c -0.184 0.18 0.102 1.48 0.344 1.574 c 0.285 0.105 0.219 0.496 -0.133 0.82 c -0.238 0.219 -0.465 0.293 -0.895 0.293 c -0.566 0 -0.633 0.121 -0.125 0.242 c 0.473 0.109 0.711 0.09 1.086 -0.102 m -3.777 -0.074 c 0.25 -0.113 0.332 -0.266 0.402 -0.766 c 0.152 -1.09 0.113 -3.074 -0.066 -3.238 c -0.125 -0.113 -0.176 -0.113 -0.219 0.008 c -0.039 0.098 -0.176 0.125 -0.367 0.078 l -0.309 -0.074 v 1.25 c 0 1.332 0.129 1.887 0.445 1.887 c 0.23 0 0.258 0.387 0.039 0.598 c -0.082 0.082 -0.441 0.156 -0.797 0.16 c -1.102 0.023 -1.406 0.211 -0.363 0.227 c 0.508 0.004 1.063 -0.051 1.234 -0.129 m 7.086 -0.051 c 0 -0.141 -0.086 -0.168 -0.352 -0.105 c -0.566 0.129 -0.637 0.297 -0.121 0.297 c 0.34 0 0.473 -0.055 0.473 -0.191 m 0.055 -1.086 c 0.043 -0.293 0.07 -1.102 0.059 -1.801 c -0.016 -0.93 0.027 -1.328 0.156 -1.48 c 0.164 -0.195 0.133 -0.203 -0.391 -0.121 c -0.316 0.047 -0.613 0.156 -0.664 0.238 c -0.262 0.41 -0.285 2.594 -0.035 3.23 c 0.047 0.117 0.191 0.215 0.324 0.215 c 0.133 0 0.242 0.055 0.242 0.125 c 0 0.066 0.051 0.125 0.113 0.125 c 0.063 0 0.148 -0.238 0.195 -0.531 m -8.719 -1.488 c 0 -1.461 0.039 -1.793 0.211 -1.984 c 0.199 -0.211 0.195 -0.227 -0.035 -0.227 c -0.137 0 -0.32 0.07 -0.41 0.152 c -0.086 0.086 -0.254 0.156 -0.375 0.156 c -0.129 0 -0.234 0.117 -0.258 0.281 c -0.031 0.215 0.023 0.281 0.223 0.281 c 0.156 0 0.266 0.082 0.266 0.195 c 0 0.129 -0.098 0.18 -0.289 0.152 c -0.277 -0.035 -0.285 -0.008 -0.285 1.117 c 0.004 1.129 0.012 1.16 0.383 1.449 c 0.211 0.164 0.422 0.27 0.477 0.238 c 0.051 -0.031 0.094 -0.848 0.094 -1.813 m 4.109 0.891 c 0.094 -0.891 0.047 -1.879 -0.121 -2.668 c -0.082 -0.371 -0.082 -0.371 -0.164 -0.059 c -0.055 0.207 -0.164 0.301 -0.328 0.285 c -0.371 -0.031 -0.434 0.176 -0.434 1.414 c -0.004 1.281 0.137 1.816 0.438 1.703 c 0.129 -0.047 0.195 0 0.195 0.137 c 0 0.117 0.074 0.188 0.16 0.16 c 0.098 -0.031 0.195 -0.418 0.254 -0.973 m 8.688 -1.797 c 0.18 -0.613 0.328 -1.195 0.328 -1.289 c 0 -0.094 -0.23 0.059 -0.516 0.332 c -0.375 0.367 -0.539 0.648 -0.609 1.039 c -0.137 0.789 -0.477 0.801 -0.586 0.02 c -0.164 -1.133 -0.23 -1.406 -0.344 -1.406 c -0.063 0 -0.113 0.113 -0.113 0.254 c 0 0.137 -0.086 0.285 -0.191 0.324 c -0.27 0.102 -0.242 0.309 0.234 1.824 c 0.336 1.078 0.484 1.375 0.73 1.496 c 0.305 0.148 0.313 0.137 0.527 -0.66 c 0.117 -0.449 0.359 -1.316 0.539 -1.934 m -1.074 1.184 c 0 -0.07 0.086 -0.125 0.191 -0.125 c 0.105 0 0.191 0.055 0.191 0.125 c 0 0.066 -0.086 0.125 -0.191 0.125 c -0.105 0 -0.191 -0.059 -0.191 -0.125 m -2.23 -2.238 c 0.043 -0.07 0.02 -0.125 -0.055 -0.125 c -0.074 0 -0.137 0.055 -0.137 0.125 c 0 0.066 0.027 0.125 0.059 0.125 c 0.031 0 0.09 -0.059 0.133 -0.125 m -7.04 -3 c 0.496 -0.258 0.852 -1.727 0.422 -1.727 c -0.148 0 -0.172 0.109 -0.117 0.527 c 0.066 0.453 0.031 0.57 -0.242 0.816 c -0.176 0.16 -0.566 0.371 -0.871 0.469 l -0.555 0.18 l 0.555 -0.066 c 0.309 -0.039 0.672 -0.129 0.809 -0.199 m 2.395 -0.359 c 0 -0.07 -0.172 -0.125 -0.383 -0.125 c -0.211 0 -0.383 0.055 -0.383 0.125 c 0 0.066 0.172 0.125 0.383 0.125 c 0.211 0 0.383 -0.059 0.383 -0.125 m 2.102 0 c 0.043 -0.07 -0.016 -0.125 -0.129 -0.125 c -0.113 0 -0.168 0.055 -0.125 0.125 c 0.043 0.066 0.102 0.125 0.125 0.125 c 0.027 0 0.086 -0.059 0.129 -0.125 m 2.867 -0.012 c 0 -0.09 -0.273 -0.105 -0.859 -0.047 c -1.148 0.117 -1.168 0.184 -0.055 0.184 c 0.57 0 0.914 -0.051 0.914 -0.137 m 2.676 0.031 c 0 -0.055 -0.332 -0.078 -0.734 -0.051 c -1.063 0.074 -1.113 0.133 -0.125 0.145 c 0.473 0.008 0.859 -0.035 0.859 -0.094 m -7.01 -0.145 c 0 -0.066 -0.059 -0.125 -0.129 -0.125 c -0.07 0 -0.125 0.059 -0.125 0.125 c 0 0.07 0.055 0.125 0.125 0.125 c 0.07 0 0.129 -0.055 0.129 -0.125 m -4.527 -2.258 c 0.023 -1.117 0.086 -2.133 0.133 -2.254 c 0.07 -0.164 0.043 -0.199 -0.105 -0.145 c -0.109 0.039 -0.273 0.305 -0.367 0.59 c -0.133 0.414 -0.227 0.516 -0.441 0.492 c -0.172 -0.016 -0.293 0.059 -0.332 0.203 c -0.07 0.262 0.063 0.535 0.238 0.5 c 0.277 -0.051 0.434 0.023 0.434 0.207 c 0 0.152 -0.078 0.184 -0.32 0.125 c -0.297 -0.074 -0.316 -0.051 -0.316 0.406 c 0 0.379 0.07 0.531 0.313 0.688 c 0.199 0.125 0.344 0.367 0.398 0.664 c 0.223 1.215 0.313 0.852 0.367 -1.477 m 4.43 1.473 c 0.336 -0.117 0.27 -0.293 -0.141 -0.375 c -0.359 -0.07 -0.363 -0.074 -0.266 -0.73 c 0.055 -0.363 0.133 -1.078 0.176 -1.594 c 0.07 -0.848 0.063 -0.91 -0.117 -0.691 c -0.105 0.133 -0.191 0.316 -0.191 0.406 c 0 0.09 -0.082 0.164 -0.18 0.164 c -0.258 0 -0.348 0.309 -0.426 1.461 c -0.066 0.984 -0.059 1.023 0.203 1.023 c 0.223 0 0.273 0.078 0.273 0.395 c 0 0.363 0.02 0.379 0.223 0.207 c 0.125 -0.105 0.324 -0.223 0.445 -0.266 m 6.03 0.109 c 0.215 -0.152 0.25 -0.363 0.289 -1.625 c 0.023 -0.797 0.008 -1.594 -0.039 -1.766 c -0.074 -0.297 -0.094 -0.305 -0.313 -0.109 c -0.129 0.113 -0.309 0.188 -0.398 0.168 c -0.246 -0.055 -0.359 0.676 -0.301 1.883 c 0.086 1.68 0.184 1.863 0.762 1.449 m -2.512 -1.938 c 0 -1.395 -0.105 -1.934 -0.313 -1.609 c -0.063 0.098 -0.23 0.18 -0.371 0.18 c -0.238 0 -0.254 0.082 -0.254 1.367 c 0 1.266 0.02 1.367 0.254 1.414 c 0.141 0.023 0.309 0.133 0.371 0.242 c 0.207 0.352 0.313 -0.184 0.313 -1.594 m -2.188 0.445 c -0.086 -1.266 -0.305 -2.309 -0.484 -2.309 c -0.063 0 -0.113 0.082 -0.113 0.188 c 0 0.102 -0.066 0.289 -0.145 0.414 c -0.098 0.152 -0.113 0.602 -0.051 1.426 c 0.09 1.164 0.102 1.203 0.398 1.203 c 0.168 0 0.305 0.059 0.305 0.125 c 0 0.07 0.039 0.125 0.086 0.125 c 0.043 0 0.047 -0.527 0.004 -1.172 m -3.656 -1.246 c 0 -0.305 -0.055 -0.586 -0.125 -0.629 c -0.074 -0.043 -0.129 0.063 -0.129 0.242 c 0 0.336 -0.23 0.418 -0.48 0.172 c -0.188 -0.184 -0.227 -0.141 -0.328 0.363 l -0.078 0.402 h 1.141" fill="#a5b5c8"/><path d="m 17.23 19.629 c -0.051 -0.051 -0.09 -0.512 -0.09 -1.031 c 0 -1.25 -0.668 -3.695 -1.039 -3.813 c -0.543 -0.168 -0.617 0.098 -0.617 2.188 c 0 1.082 -0.035 2.055 -0.078 2.164 c -0.109 0.285 -1.645 0.285 -1.758 0 c -0.039 -0.109 -0.074 -1.113 -0.074 -2.23 c 0 -1.957 -0.012 -2.039 -0.27 -2.117 c -0.145 -0.047 -0.313 -0.035 -0.367 0.023 c -0.055 0.059 -0.125 0.895 -0.156 1.863 c -0.055 1.875 -0.164 2.234 -0.766 2.547 c -0.922 0.48 -2.035 0.336 -2.648 -0.344 c -0.211 -0.234 -0.383 -0.48 -0.383 -0.547 c 0 -0.27 -0.211 -0.094 -0.355 0.297 c -0.086 0.227 -0.281 0.477 -0.441 0.551 c -0.363 0.172 -2.805 0.273 -3.074 0.129 c -0.297 -0.164 -0.309 -5.707 -0.012 -5.949 c 0.137 -0.109 0.551 -0.137 1.457 -0.094 c 1.414 0.066 1.832 0.238 2.102 0.863 c 0.129 0.305 0.176 0.336 0.242 0.168 c 0.047 -0.113 0.082 -0.371 0.082 -0.57 c 0 -0.441 0.344 -0.559 1.34 -0.441 c 1.023 0.117 1.082 0.066 1.082 -0.918 c 0 -0.926 -0.051 -0.992 -0.754 -0.914 c -0.258 0.027 -0.559 -0.035 -0.742 -0.152 c -0.289 -0.184 -0.328 -0.184 -0.586 0.043 c -0.469 0.418 -0.805 0.523 -1.637 0.523 c -0.863 0 -1.332 -0.207 -1.734 -0.758 c -0.18 -0.246 -0.223 -0.664 -0.254 -2.414 c -0.035 -1.887 -0.012 -2.16 0.203 -2.547 c 0.363 -0.645 1.191 -1.035 2.027 -0.953 c 1.258 0.117 1.754 0.637 1.895 1.965 c 0.07 0.664 0.047 0.844 -0.133 1.016 c -0.27 0.266 -1.309 0.281 -1.68 0.027 c -0.348 -0.234 -0.426 -0.141 -0.426 0.508 c 0 0.594 0.141 0.766 0.391 0.473 c 0.129 -0.152 0.367 -0.188 1.066 -0.156 l 0.898 0.043 l 0.262 -1.781 c 0.176 -1.195 0.32 -1.82 0.445 -1.895 c 0.277 -0.172 1.949 -0.145 2.184 0.039 c 0.137 0.102 0.273 0.625 0.414 1.586 c 0.117 0.785 0.25 1.512 0.297 1.613 c 0.047 0.105 0.117 -0.555 0.152 -1.465 c 0.078 -1.848 0.098 -1.887 0.98 -1.891 c 0.973 -0.004 0.934 -0.09 0.938 2.219 c 0 1.141 0.043 2.137 0.094 2.215 c 0.055 0.078 0.238 0.16 0.414 0.188 l 0.32 0.043 l 0.063 -2.176 c 0.035 -1.199 0.109 -2.25 0.168 -2.332 c 0.141 -0.215 1.414 -0.207 1.598 0.008 c 0.086 0.102 0.152 0.973 0.172 2.262 l 0.035 2.098 l 0.398 0.102 c 0.309 0.078 0.418 0.188 0.477 0.473 c 0.125 0.617 -0.098 0.996 -0.582 1 c -0.23 0 -1.434 0.004 -2.676 0.004 c -2.504 -0.004 -2.652 0.043 -2.641 0.773 c 0.004 0.219 -0.012 0.535 -0.031 0.707 l -0.039 0.313 l 2.137 0.063 c 2.188 0.063 2.379 0.109 2.383 0.59 c 0 0.086 0.059 0.156 0.129 0.156 c 0.07 0 0.129 -0.074 0.129 -0.168 c 0 -0.328 0.453 -0.578 1.043 -0.578 c 0.941 0 0.961 0.102 0.34 2.133 c -0.422 1.387 -0.559 2.063 -0.613 3.03 l -0.07 1.246 l -0.77 0.035 c -0.422 0.02 -0.809 -0.004 -0.859 -0.051 m 1.41 -1.156 c 0.027 -0.75 0.164 -1.445 0.48 -2.465 c 0.242 -0.777 0.441 -1.594 0.441 -1.813 v -0.398 l -0.508 0.527 c -0.344 0.355 -0.535 0.684 -0.59 1.01 c -0.172 1.066 -0.492 0.996 -0.629 -0.137 c -0.047 -0.426 -0.148 -0.914 -0.219 -1.086 l -0.129 -0.313 l -0.113 0.406 c -0.063 0.223 -0.172 0.402 -0.238 0.402 c -0.203 0 -0.145 0.504 0.188 1.621 c 0.172 0.578 0.348 1.344 0.395 1.695 c 0.066 0.48 0.148 0.656 0.328 0.703 c 0.316 0.082 0.313 0.457 -0.008 0.457 c -0.137 0 -0.281 0.059 -0.324 0.125 c -0.145 0.227 0.082 0.391 0.484 0.352 l 0.402 -0.039 m -10.367 -0.645 c 0.219 -0.211 0.266 -0.473 0.332 -1.797 c 0.078 -1.629 -0.086 -2.648 -0.383 -2.359 c -0.078 0.074 -0.277 0.137 -0.441 0.137 h -0.301 l 0.016 1.648 c 0.012 0.906 0.016 1.77 0.012 1.918 c -0.012 0.242 -0.105 0.277 -0.965 0.355 c -0.922 0.082 -1.203 0.219 -0.734 0.352 c 0.121 0.035 0.672 0.051 1.219 0.031 c 0.793 -0.027 1.047 -0.086 1.25 -0.285 m 3.836 -0.031 l 0.414 -0.363 v -1.93 c 0 -1.059 -0.039 -1.961 -0.078 -2 c -0.141 -0.133 -0.742 0.215 -0.832 0.484 c -0.051 0.141 -0.094 1.012 -0.098 1.934 l -0.012 1.68 l -0.352 0.121 c -0.531 0.18 -0.754 -0.094 -0.602 -0.738 c 0.223 -0.926 0.109 -4.168 -0.148 -4.168 c -0.059 0 -0.109 0.16 -0.109 0.352 c 0 0.441 -0.113 0.563 -0.348 0.371 c -0.313 -0.254 -0.41 0.125 -0.414 1.594 c 0 1.762 0.07 2.086 0.574 2.605 c 0.352 0.367 0.496 0.426 1 0.426 c 0.469 0 0.672 -0.07 1 -0.363 m 3.01 0.195 c 0.094 -0.109 0.156 -0.945 0.176 -2.332 l 0.031 -2.164 l 0.352 -0.039 c 0.285 -0.031 0.348 -0.102 0.344 -0.371 c -0.004 -0.289 -0.02 -0.305 -0.133 -0.117 c -0.102 0.168 -0.301 0.219 -0.871 0.219 h -0.738 l -0.082 0.652 c -0.105 0.859 -0.09 2.227 0.039 3.078 c 0.055 0.375 0.055 0.773 -0.004 0.887 c -0.059 0.109 -0.07 0.234 -0.027 0.277 c 0.145 0.145 0.77 0.082 0.914 -0.09 m -8.621 -1.074 c 0.055 -0.238 0.09 -1.125 0.078 -1.973 c -0.012 -1.133 0.023 -1.559 0.145 -1.633 c 0.309 -0.184 0.023 -0.371 -0.363 -0.238 c -0.199 0.066 -0.438 0.105 -0.531 0.086 c -0.441 -0.094 -0.48 3.547 -0.047 4.02 c 0.324 0.348 0.602 0.25 0.719 -0.258 m 7.199 -3.559 c -0.039 -0.043 -0.152 -0.047 -0.242 -0.008 c -0.102 0.039 -0.07 0.066 0.078 0.074 c 0.133 0.004 0.207 -0.023 0.164 -0.066 m -0.641 -2.063 c -0.043 -0.098 -0.07 -0.07 -0.078 0.074 c -0.004 0.133 0.023 0.207 0.066 0.164 c 0.043 -0.043 0.047 -0.148 0.012 -0.238 m -3.977 -1.129 c 0.422 -0.414 0.723 -1.379 0.492 -1.582 c -0.059 -0.051 -0.328 -0.066 -0.594 -0.035 c -0.359 0.047 -0.465 0.109 -0.414 0.242 c 0.039 0.102 0.07 0.297 0.07 0.438 c 0 0.172 0.063 0.227 0.191 0.18 c 0.109 -0.043 0.191 -0.004 0.191 0.086 c 0 0.324 -0.332 0.586 -0.828 0.652 c -0.281 0.039 -0.648 0.098 -0.82 0.129 c -0.496 0.102 -0.055 0.293 0.676 0.293 c 0.527 0.004 0.676 -0.055 1.035 -0.402 m 2.207 -0.117 c 0.082 -0.082 0.152 -0.297 0.152 -0.473 c 0 -0.25 0.105 -0.375 0.449 -0.535 l 0.449 -0.211 l 0.449 0.434 c 0.242 0.242 0.387 0.445 0.313 0.453 c -0.07 0.008 -0.199 0.023 -0.281 0.031 c -0.082 0.008 -0.172 0.086 -0.199 0.172 c -0.039 0.105 0.094 0.152 0.41 0.152 h 0.465 l -0.078 -1.023 c -0.113 -1.438 -0.434 -3.441 -0.598 -3.742 c -0.133 -0.242 -0.145 -0.238 -0.336 0.109 c -0.191 0.348 -0.203 0.672 -0.109 2.668 c 0.02 0.391 -0.016 0.438 -0.344 0.477 c -0.203 0.02 -0.418 -0.012 -0.48 -0.07 c -0.105 -0.105 0.066 -2.324 0.219 -2.801 c 0.047 -0.145 0.004 -0.219 -0.129 -0.219 c -0.109 0 -0.199 0.051 -0.199 0.113 c 0 0.066 -0.137 0.273 -0.305 0.469 c -0.477 0.555 -0.816 3.148 -0.41 3.148 c 0.098 0 0.211 0.09 0.254 0.199 c 0.113 0.285 0.105 0.301 -0.168 0.301 c -0.281 0 -0.445 0.188 -0.328 0.371 c 0.109 0.172 0.617 0.156 0.805 -0.023 m 4.969 -0.254 c 0.051 -0.402 0.055 -0.398 -0.457 -0.152 c -0.215 0.105 -0.594 0.18 -0.84 0.16 c -0.496 -0.031 -0.664 0.055 -0.527 0.27 c 0.055 0.082 0.414 0.121 0.938 0.102 c 0.82 -0.035 0.852 -0.051 0.887 -0.379 m 2.805 -0.012 c 0.035 -0.293 0.004 -0.344 -0.191 -0.285 c -0.68 0.203 -1.324 0.289 -1.387 0.191 c -0.039 -0.063 0.094 -0.113 0.293 -0.113 h 0.363 l 0.031 -2.02 c 0.027 -1.891 -0.063 -2.578 -0.293 -2.215 c -0.051 0.078 -0.227 0.195 -0.391 0.254 c -0.395 0.148 -0.504 0.891 -0.383 2.605 c 0.098 1.32 0.148 1.902 0.18 1.973 c 0.008 0.02 0.402 0.02 0.875 0 c 0.84 -0.035 0.863 -0.047 0.902 -0.391 m -7.109 0.105 c 0 -0.105 -0.059 -0.188 -0.129 -0.188 c -0.07 0 -0.129 0.082 -0.129 0.188 c 0 0.102 0.059 0.184 0.129 0.184 c 0.07 0 0.129 -0.082 0.129 -0.184 m -4.461 -2.125 c 0 -1.332 0.055 -2.285 0.137 -2.438 c 0.117 -0.211 0.105 -0.242 -0.094 -0.207 c -0.129 0.023 -0.348 0.254 -0.488 0.508 c -0.141 0.258 -0.324 0.465 -0.41 0.465 c -0.301 0 -0.398 0.461 -0.344 1.645 c 0.055 1.293 0.199 1.84 0.48 1.84 c 0.098 0 0.25 0.082 0.336 0.188 c 0.09 0.102 0.211 0.184 0.27 0.184 c 0.063 0 0.113 -0.98 0.113 -2.184 m -0.891 -0.676 c 0 -0.066 0.055 -0.125 0.125 -0.125 c 0.07 0 0.129 0.059 0.129 0.125 c 0 0.07 -0.059 0.125 -0.129 0.125 c -0.07 0 -0.125 -0.055 -0.125 -0.125 m 8.66 1.996 c 0.145 -0.27 0.219 -3.371 0.086 -3.582 c -0.125 -0.199 -0.832 0.094 -0.926 0.383 c -0.203 0.633 -0.027 3.395 0.207 3.254 c 0.059 -0.035 0.145 -0.008 0.188 0.063 c 0.125 0.195 0.297 0.148 0.445 -0.117 m -5.758 -2.152 c 0.148 -0.172 0.137 -0.707 -0.027 -1.242 c -0.125 -0.426 -0.363 -0.461 -0.254 -0.039 c 0.113 0.441 -0.047 0.629 -0.328 0.379 c -0.125 -0.109 -0.258 -0.156 -0.293 -0.102 c -0.129 0.211 -0.234 0.91 -0.156 1.031 c 0.113 0.18 0.898 0.16 1.059 -0.027" fill="#9ca2a5"/><path d="m 17.227 19.5 c -0.047 -0.047 -0.086 -0.535 -0.086 -1.086 c 0 -1.047 -0.504 -3.176 -0.848 -3.57 c -0.094 -0.105 -0.172 -0.402 -0.172 -0.652 c 0 -0.469 -0.281 -0.648 -0.43 -0.27 c -0.078 0.203 -0.461 0.262 -0.461 0.066 c 0 -0.184 -1.125 -0.121 -1.289 0.074 c -0.078 0.094 -0.281 0.172 -0.445 0.172 c -0.168 0 -0.305 0.063 -0.305 0.141 c 0 0.141 -0.367 0.469 -0.531 0.477 c -0.047 0 -0.121 -0.219 -0.168 -0.496 c -0.078 -0.449 -0.32 -0.711 -0.32 -0.344 c 0 0.082 -0.156 0.273 -0.352 0.422 l -0.348 0.273 l -0.043 1.938 l -0.039 1.941 l -0.32 0.078 c -0.176 0.043 -0.367 0.031 -0.426 -0.031 c -0.059 -0.059 -0.055 -0.586 0.012 -1.164 c 0.156 -1.355 0.023 -3.734 -0.203 -3.734 c -0.086 0 -0.23 0.086 -0.32 0.188 c -0.086 0.102 -0.234 0.188 -0.332 0.188 c -0.27 0 -0.367 0.566 -0.367 2.176 c 0.004 1.754 0.063 2.027 0.59 2.609 c 0.215 0.242 0.324 0.438 0.246 0.438 c -0.352 0 -0.934 -0.422 -1.086 -0.785 c -0.219 -0.52 -0.344 -2.738 -0.227 -4.066 l 0.094 -1.055 l 1.035 -0.004 c 1.352 -0.008 1.449 -0.086 1.449 -1.199 c 0 -0.629 0.051 -0.879 0.184 -0.926 c 0.098 -0.039 0.215 -0.156 0.254 -0.262 c 0.09 -0.219 -0.152 -0.566 -0.324 -0.461 c -0.063 0.035 -0.113 0.008 -0.113 -0.063 c 0 -0.07 0.18 -0.219 0.398 -0.328 c 0.488 -0.246 0.664 -0.082 0.57 0.535 c -0.051 0.344 -0.016 0.414 0.242 0.477 c 0.648 0.16 0.766 0.043 0.766 -0.758 c 0 -0.41 0.059 -0.828 0.129 -0.93 c 0.066 -0.105 0.156 -1.055 0.188 -2.117 l 0.066 -1.926 l 0.793 -0.039 c 0.758 -0.035 0.793 -0.023 0.875 0.285 c 0.113 0.445 0.031 0.5 -0.871 0.594 c -0.121 0.012 -0.277 0.184 -0.348 0.387 c -0.152 0.418 -0.16 2.313 -0.016 3.305 c 0.121 0.84 -0.055 1.375 -0.449 1.375 c -0.301 0 -0.43 0.215 -0.434 0.727 c 0 0.184 -0.059 0.418 -0.125 0.52 c -0.098 0.145 -0.125 0.113 -0.125 -0.148 c -0.004 -0.41 -0.211 -0.566 -0.316 -0.238 c -0.121 0.379 0.055 0.852 0.355 0.957 c 0.152 0.055 1.223 0.129 2.379 0.168 c 1.824 0.059 2.105 0.098 2.141 0.277 c 0.031 0.156 -0.027 0.191 -0.223 0.141 c -0.242 -0.063 -0.328 0.055 -0.273 0.371 c 0.008 0.051 -0.07 0.129 -0.18 0.168 c -0.273 0.102 -0.238 0.453 0.191 1.953 c 0.227 0.781 0.383 1.625 0.379 2.043 c 0 1.043 -0.148 1.457 -0.422 1.191 m -4.781 -7.215 c -0.121 -0.199 -0.141 -0.184 -0.141 0.137 c -0.004 0.27 0.031 0.332 0.137 0.23 c 0.098 -0.098 0.102 -0.203 0.004 -0.367 m -0.527 0.145 c 0 -0.102 -0.059 -0.188 -0.129 -0.188 c -0.07 0 -0.125 0.086 -0.125 0.188 c 0 0.102 0.055 0.188 0.125 0.188 c 0.07 0 0.129 -0.086 0.129 -0.188 m -6.875 6.664 c -0.16 -0.293 -0.18 -5.344 -0.02 -5.586 c 0.082 -0.129 0.441 -0.156 1.535 -0.125 c 1.387 0.039 1.441 0.055 1.738 0.391 c 0.359 0.41 0.441 0.848 0.105 0.578 c -0.164 -0.137 -0.219 -0.137 -0.305 0 c -0.059 0.094 -0.191 0.133 -0.301 0.094 c -0.363 -0.137 -0.512 0.684 -0.43 2.355 c 0.078 1.629 0.051 1.723 -0.547 1.805 c -0.277 0.039 -0.313 0.004 -0.273 -0.266 c 0.027 -0.172 0.063 -1.117 0.082 -2.102 c 0.031 -1.496 0.07 -1.813 0.242 -1.906 c 0.355 -0.195 0.223 -0.313 -0.453 -0.398 c -1 -0.133 -1.039 -0.063 -1.027 2.066 c 0.004 0.977 0.059 1.977 0.121 2.215 c 0.078 0.309 0.059 0.535 -0.066 0.777 c -0.207 0.406 -0.234 0.414 -0.402 0.102 m 8.656 -1.945 c 0 -1.133 -0.055 -2.164 -0.125 -2.293 c -0.102 -0.188 -0.078 -0.246 0.137 -0.313 c 0.145 -0.047 0.281 -0.063 0.305 -0.039 c 0.039 0.039 0.113 4.047 0.082 4.488 c -0.008 0.117 -0.102 0.219 -0.207 0.219 c -0.16 0 -0.191 -0.313 -0.191 -2.063 m 4.328 -1.266 c -0.004 -0.051 -0.055 -0.348 -0.117 -0.652 c -0.082 -0.414 -0.063 -0.641 0.07 -0.871 c 0.098 -0.172 0.234 -0.469 0.305 -0.66 c 0.121 -0.332 0.16 -0.348 0.852 -0.313 c 0.871 0.047 1.043 0.289 0.293 0.414 c -0.59 0.094 -0.766 0.363 -1.027 1.551 c -0.074 0.344 -0.188 0.625 -0.254 0.625 c -0.063 0 -0.117 -0.043 -0.121 -0.094 m -2.605 -1.152 c 0.043 -0.066 0.102 -0.125 0.133 -0.125 c 0.031 0 0.059 0.059 0.059 0.125 c 0 0.07 -0.063 0.125 -0.137 0.125 c -0.074 0 -0.098 -0.055 -0.055 -0.125 m -8.93 -3.219 c -0.645 -0.383 -0.754 -0.828 -0.754 -3.086 c 0 -1.836 0.023 -2.039 0.262 -2.363 c 0.691 -0.918 2.434 -1.074 3.238 -0.293 c 0.301 0.297 0.344 0.563 0.07 0.461 c -0.102 -0.039 -0.219 -0.02 -0.262 0.047 c -0.043 0.066 -0.184 0.121 -0.316 0.121 c -0.199 0 -0.258 0.129 -0.336 0.777 c -0.051 0.426 -0.082 0.852 -0.063 0.945 c 0.02 0.094 -0.039 0.145 -0.133 0.113 c -0.094 -0.031 -0.211 -0.355 -0.266 -0.727 c -0.055 -0.371 -0.156 -0.695 -0.223 -0.719 c -0.188 -0.059 -0.152 -0.281 0.086 -0.539 c 0.199 -0.215 0.191 -0.227 -0.098 -0.223 c -0.184 0 -0.547 0.223 -0.926 0.57 l -0.621 0.566 l 0.059 1.512 c 0.063 1.523 0.266 2.344 0.715 2.852 c 0.246 0.285 0.059 0.277 -0.434 -0.016 m 3.305 -0.371 c -0.25 -0.203 -0.262 -0.281 -0.152 -0.883 c 0.129 -0.691 0.008 -0.949 -0.383 -0.813 c -0.094 0.035 -0.313 0.063 -0.492 0.063 c -0.316 0 -0.32 0.016 -0.27 0.738 c 0.051 0.68 0.031 0.746 -0.25 0.871 c -0.359 0.16 -0.512 0.086 -0.672 -0.32 c -0.09 -0.234 -0.063 -0.352 0.137 -0.547 c 0.152 -0.148 0.254 -0.414 0.254 -0.668 c 0 -0.27 0.07 -0.449 0.199 -0.496 c 0.34 -0.129 1.191 -0.086 1.453 0.074 c 0.133 0.082 0.277 0.121 0.316 0.082 c 0.035 -0.035 0.18 -0.867 0.313 -1.844 c 0.137 -0.98 0.301 -1.832 0.363 -1.895 c 0.066 -0.063 0.598 -0.098 1.188 -0.078 c 0.961 0.035 1.074 0.063 1.109 0.285 c 0.027 0.184 -0.043 0.254 -0.258 0.266 c -0.297 0.02 -1.047 0.277 -1.355 0.469 c -0.375 0.234 -0.641 1.152 -0.785 2.746 c -0.129 1.387 -0.281 2.191 -0.406 2.176 c -0.02 0 -0.16 -0.102 -0.309 -0.227 m 6.805 0.145 c -0.16 -0.039 -0.227 -0.18 -0.227 -0.484 v -0.426 l -0.52 0.082 c -0.512 0.078 -0.52 0.074 -0.477 -0.281 c 0.031 -0.246 0.102 -0.344 0.234 -0.305 c 0.105 0.027 0.363 0.055 0.574 0.063 l 0.379 0.008 l 0.066 -2.238 l 0.063 -2.238 h 0.766 c 0.758 0 0.762 0.004 0.789 0.371 c 0.016 0.207 -0.004 0.305 -0.039 0.219 c -0.086 -0.188 -0.266 -0.199 -0.469 -0.027 c -0.086 0.07 -0.27 0.207 -0.41 0.301 c -0.238 0.16 -0.258 0.328 -0.277 2.328 c -0.012 1.188 -0.023 2.281 -0.031 2.438 c -0.012 0.285 -0.031 0.293 -0.422 0.191 m 1.605 -0.969 c -0.156 -0.398 0.027 -0.539 0.516 -0.391 c 0.52 0.16 0.594 0.387 0.172 0.496 c -0.453 0.121 -0.609 0.094 -0.688 -0.105 m -6.625 -1 c -0.207 -0.523 0.262 -3.105 0.492 -2.719 c 0.035 0.063 0.105 0.742 0.156 1.512 l 0.09 1.398 h -0.332 c -0.184 0 -0.367 -0.086 -0.41 -0.191" fill="#78868f"/><path d="m 17.227 19.375 c -0.047 -0.047 -0.086 -0.535 -0.086 -1.082 c 0 -1.051 -0.504 -3.18 -0.848 -3.57 c -0.094 -0.109 -0.172 -0.363 -0.172 -0.563 v -0.363 l -1.086 -0.031 c -0.875 -0.027 -1.102 0.004 -1.16 0.156 c -0.039 0.102 -0.18 0.188 -0.313 0.188 c -0.133 0 -0.332 0.141 -0.449 0.316 c -0.273 0.406 -0.48 0.332 -0.559 -0.203 c -0.059 -0.387 -0.102 -0.422 -0.445 -0.383 c -0.211 0.02 -0.422 0.102 -0.469 0.18 c -0.168 0.266 -0.281 1.398 -0.289 2.922 c -0.008 1.219 -0.047 1.555 -0.199 1.648 c -0.105 0.063 -0.246 0.102 -0.316 0.078 c -0.078 -0.023 -0.109 -0.977 -0.086 -2.516 c 0.031 -2.141 0.066 -2.496 0.246 -2.602 c 0.113 -0.07 0.324 -0.246 0.465 -0.395 c 0.234 -0.242 0.27 -0.25 0.414 -0.063 c 0.383 0.504 0.91 -0.594 0.57 -1.188 c -0.102 -0.18 -0.137 -0.145 -0.199 0.215 c -0.039 0.238 -0.059 0.527 -0.043 0.645 c 0.02 0.113 -0.023 0.211 -0.094 0.215 c -0.07 0.004 -0.129 -0.191 -0.129 -0.438 c 0 -0.293 -0.074 -0.484 -0.223 -0.563 c -0.285 -0.156 -0.281 -0.258 0.031 -0.609 c 0.316 -0.352 0.328 -0.695 0.035 -0.855 c -0.266 -0.145 -0.215 -0.215 0.254 -0.328 c 0.367 -0.09 0.418 0.016 0.355 0.781 c -0.023 0.25 0.031 0.277 0.547 0.277 h 0.57 l 0.082 -0.836 c 0.047 -0.465 0.109 -1.707 0.145 -2.766 c 0.039 -1.133 0.121 -1.992 0.207 -2.09 c 0.168 -0.199 1.395 -0.16 1.461 0.047 c 0.027 0.074 -0.102 0.234 -0.285 0.352 c -0.262 0.168 -0.367 0.18 -0.516 0.063 c -0.102 -0.086 -0.227 -0.113 -0.277 -0.063 c -0.051 0.051 -0.102 1.164 -0.113 2.477 c -0.012 1.309 -0.027 2.48 -0.031 2.602 c -0.008 0.137 -0.113 0.215 -0.285 0.215 c -0.309 0 -0.609 0.324 -0.613 0.66 c -0.004 0.125 -0.059 0.195 -0.129 0.152 c -0.066 -0.039 -0.09 -0.156 -0.047 -0.254 c 0.039 -0.102 0.012 -0.184 -0.055 -0.184 c -0.289 0 -0.398 1.406 -0.125 1.578 c 0.086 0.055 1.156 0.129 2.379 0.164 c 1.613 0.043 2.234 0.102 2.27 0.215 c 0.031 0.09 -0.051 0.156 -0.188 0.156 c -0.629 0 -0.703 0.742 -0.238 2.395 c 0.559 1.984 0.578 3.777 0.035 3.246 m -12.12 -0.293 c -0.039 -0.105 -0.059 -1.422 -0.039 -2.922 l 0.035 -2.734 l 1.082 -0.039 c 1.242 -0.047 1.973 0.121 2.176 0.492 c 0.137 0.246 0.121 0.258 -0.281 0.188 c -1.883 -0.324 -2.43 -0.367 -2.527 -0.215 c -0.176 0.281 -0.281 2.309 -0.188 3.652 c 0.059 0.844 0.043 1.379 -0.047 1.531 c -0.113 0.199 -0.145 0.207 -0.211 0.047 m 4.371 -0.227 l -0.426 -0.371 l -0.043 -2.301 c -0.047 -2.742 -0.023 -2.82 0.867 -2.82 c 0.984 0 0.926 0.207 -0.145 0.539 c -0.285 0.09 -0.402 1.051 -0.344 2.844 c 0.039 1.191 0.09 1.48 0.34 1.887 c 0.16 0.266 0.266 0.508 0.234 0.539 c -0.031 0.031 -0.25 -0.113 -0.484 -0.316 m 4.223 -1.719 c 0 -1.086 -0.035 -2.098 -0.078 -2.25 c -0.059 -0.219 -0.023 -0.281 0.16 -0.281 c 0.227 0 0.238 0.133 0.238 2.199 c 0 1.645 -0.039 2.211 -0.16 2.25 c -0.121 0.039 -0.16 -0.398 -0.16 -1.918 m -7.129 1.109 c 0.004 -0.188 0.09 -0.453 0.191 -0.586 c 0.266 -0.344 0.262 -2.398 -0.008 -2.773 c -0.184 -0.25 -0.172 -0.285 0.133 -0.48 c 0.176 -0.113 0.359 -0.172 0.402 -0.133 c 0.043 0.043 0.066 0.961 0.055 2.039 c -0.02 1.664 -0.055 1.988 -0.234 2.117 c -0.344 0.254 -0.543 0.188 -0.539 -0.184 m 11.414 -2.676 c -0.168 -0.609 -0.074 -1.043 0.418 -1.961 c 0.148 -0.27 1.414 -0.332 1.414 -0.066 c 0 0.141 -0.133 0.191 -0.5 0.191 c -0.496 0 -0.504 0.008 -0.703 0.68 c -0.113 0.375 -0.238 0.852 -0.281 1.059 c -0.09 0.445 -0.238 0.488 -0.348 0.098 m -11.809 -4.395 c -0.301 -0.309 -0.313 -0.395 -0.352 -2.457 c -0.051 -2.496 0.031 -2.766 0.961 -3.207 c 0.68 -0.32 1.656 -0.277 2.172 0.098 c 0.527 0.383 0.5 0.539 -0.086 0.539 h -0.52 l -0.004 0.715 c 0 0.828 -0.105 1.301 -0.266 1.203 c -0.063 -0.035 -0.113 -0.297 -0.113 -0.578 c 0 -0.289 -0.086 -0.605 -0.199 -0.727 c -0.18 -0.195 -0.168 -0.234 0.129 -0.461 c 0.414 -0.32 0.41 -0.402 -0.027 -0.398 c -0.5 0 -1.336 0.5 -1.559 0.934 c -0.301 0.574 -0.215 3.254 0.125 4 c 0.141 0.313 0.254 0.586 0.254 0.609 c 0 0.141 -0.246 0.008 -0.52 -0.273 m 3.586 -0.168 c -0.145 -0.262 -0.043 -1.352 0.148 -1.59 c 0.066 -0.082 0.227 -0.922 0.359 -1.871 c 0.129 -0.945 0.277 -1.82 0.324 -1.938 c 0.07 -0.188 0.23 -0.215 1.109 -0.184 c 0.57 0.02 1.043 0.094 1.07 0.168 c 0.023 0.07 -0.316 0.246 -0.754 0.391 c -0.602 0.191 -0.855 0.348 -1.023 0.625 c -0.238 0.395 -0.602 2.457 -0.605 3.418 c 0 0.59 -0.207 1.219 -0.398 1.219 c -0.055 0 -0.16 -0.105 -0.23 -0.238 m 6.707 0.16 c -0.047 -0.047 -0.09 -0.262 -0.09 -0.477 c 0 -0.367 -0.02 -0.387 -0.43 -0.34 c -0.453 0.051 -0.637 -0.07 -0.477 -0.32 c 0.066 -0.109 0.211 -0.117 0.527 -0.027 c 0.238 0.066 0.477 0.078 0.531 0.027 c 0.055 -0.055 0.113 -1.102 0.133 -2.332 l 0.035 -2.234 l 0.73 -0.039 c 0.891 -0.047 0.992 0.18 0.223 0.504 c -0.277 0.121 -0.52 0.23 -0.531 0.25 c -0.012 0.016 -0.055 1.148 -0.094 2.516 c -0.063 2.109 -0.105 2.492 -0.27 2.523 c -0.109 0.02 -0.238 0 -0.289 -0.051 m -8.816 -0.418 c -0.059 -0.176 -0.02 -0.316 0.109 -0.414 c 0.109 -0.078 0.215 -0.371 0.234 -0.645 l 0.039 -0.496 l 0.797 -0.039 c 0.492 -0.02 0.797 0.016 0.797 0.094 c 0 0.074 -0.277 0.133 -0.633 0.133 h -0.633 l -0.035 0.777 c -0.035 0.688 -0.07 0.781 -0.316 0.816 c -0.187 0.023 -0.301 -0.047 -0.359 -0.227 m 10.594 -0.465 c -0.035 -0.059 -0.023 -0.172 0.027 -0.254 c 0.105 -0.164 0.754 -0.039 0.809 0.16 c 0.043 0.152 -0.742 0.242 -0.836 0.094 m -6.539 -0.875 c -0.184 -0.113 -0.027 -2.332 0.18 -2.535 c 0.207 -0.203 0.254 0 0.305 1.32 c 0.039 1.031 0.016 1.246 -0.145 1.277 c -0.105 0.02 -0.258 -0.008 -0.34 -0.063" fill="#707a84"/><path d="m 17.27 18.484 c 0 -0.902 -0.598 -3.266 -0.965 -3.813 c -0.109 -0.16 -0.18 -0.441 -0.16 -0.629 l 0.039 -0.34 l -1.434 -0.043 c -1.285 -0.039 -1.434 -0.02 -1.434 0.172 c -0.004 0.309 -0.445 0.824 -0.617 0.723 c -0.082 -0.047 -0.145 -0.254 -0.145 -0.453 c 0 -0.352 -0.023 -0.367 -0.574 -0.367 c -0.559 0 -0.574 0.012 -0.59 0.406 c -0.012 0.223 -0.055 1.301 -0.098 2.395 c -0.078 1.977 -0.078 1.988 -0.379 2.031 c -0.277 0.039 -0.297 0.012 -0.207 -0.313 c 0.055 -0.191 0.121 -1.316 0.152 -2.496 c 0.051 -2.055 0.066 -2.152 0.332 -2.289 c 0.152 -0.078 0.316 -0.195 0.359 -0.262 c 0.047 -0.07 0.191 -0.051 0.355 0.051 c 0.25 0.148 0.309 0.137 0.52 -0.117 c 0.219 -0.258 0.25 -0.266 0.359 -0.07 c 0.156 0.27 0.324 0.289 2.66 0.293 c 1.129 0.004 1.973 0.059 2.02 0.129 c 0.043 0.066 -0.098 0.156 -0.316 0.199 c -0.215 0.043 -0.414 0.113 -0.441 0.156 c -0.078 0.125 0.258 1.742 0.555 2.688 c 0.281 0.887 0.375 2.797 0.137 2.797 c -0.07 0 -0.125 -0.363 -0.125 -0.848 m -12.234 -2.121 c 0 -2.281 0.031 -2.746 0.195 -2.879 c 0.285 -0.23 2.375 -0.094 2.809 0.184 c 0.465 0.297 0.313 0.363 -0.453 0.203 c -0.355 -0.074 -0.988 -0.137 -1.398 -0.137 c -0.734 0 -0.75 0.008 -0.836 0.391 c -0.047 0.215 -0.074 1.348 -0.055 2.52 c 0.035 2.457 0.035 2.441 -0.133 2.441 c -0.082 0 -0.129 -0.992 -0.129 -2.723 m 4.391 2.414 c -0.309 -0.301 -0.313 -0.316 -0.313 -2.785 c 0 -2.738 -0.035 -2.629 0.852 -2.629 c 0.559 0 0.516 0.293 -0.051 0.348 c -0.516 0.051 -0.551 0.203 -0.559 2.5 c -0.004 1.645 0.027 1.914 0.262 2.363 c 0.305 0.586 0.254 0.641 -0.191 0.207 m 4.273 -2 c 0 -1.375 0.047 -2.18 0.125 -2.156 c 0.199 0.066 0.234 4.238 0.035 4.305 c -0.125 0.039 -0.16 -0.445 -0.16 -2.148 m -7.133 1.473 c 0 -0.113 0.098 -0.316 0.223 -0.449 c 0.184 -0.195 0.223 -0.477 0.223 -1.555 c 0 -0.938 -0.047 -1.328 -0.16 -1.363 c -0.086 -0.031 -0.16 -0.125 -0.16 -0.215 c 0 -0.176 0.344 -0.352 0.5 -0.258 c 0.148 0.086 0.133 3.715 -0.016 3.895 c -0.191 0.227 -0.609 0.191 -0.609 -0.055 m 11.391 -2.98 c -0.059 -0.309 -0.027 -0.555 0.105 -0.777 c 0.105 -0.18 0.227 -0.477 0.27 -0.656 c 0.066 -0.273 0.176 -0.348 0.605 -0.418 c 0.324 -0.055 0.574 -0.035 0.66 0.051 c 0.148 0.145 0.109 0.16 -0.539 0.188 c -0.285 0.012 -0.34 0.109 -0.574 1.039 c -0.145 0.563 -0.301 1.027 -0.352 1.027 c -0.047 0 -0.129 -0.203 -0.176 -0.453 m -5.902 -2.48 c 0.004 -0.145 0.035 -0.176 0.078 -0.078 c 0.035 0.09 0.031 0.199 -0.012 0.242 c -0.043 0.039 -0.074 -0.035 -0.066 -0.164 m 0.008 -0.832 c -0.008 -0.188 -0.078 -0.34 -0.148 -0.34 c -0.09 0 -0.082 -0.094 0.012 -0.266 c 0.082 -0.148 0.117 -0.449 0.078 -0.676 c -0.047 -0.285 -0.012 -0.43 0.113 -0.477 c 0.195 -0.074 0.359 0.348 0.285 0.738 c -0.031 0.176 0.086 0.258 0.512 0.359 c 0.305 0.074 0.512 0.172 0.465 0.219 c -0.047 0.047 -0.164 0.055 -0.262 0.016 c -0.098 -0.035 -0.207 0.023 -0.242 0.133 c -0.203 0.625 -0.227 0.648 -0.313 0.336 c -0.113 -0.434 -0.363 -0.461 -0.426 -0.051 l -0.055 0.352 m -5.992 -1.27 c -0.195 -0.289 -0.227 -0.641 -0.227 -2.559 v -2.227 l 0.41 -0.355 c 0.723 -0.633 1.711 -0.738 2.617 -0.289 c 0.496 0.246 0.453 0.469 -0.063 0.355 c -0.23 -0.051 -0.785 -0.098 -1.238 -0.105 l -0.828 -0.02 l -0.32 0.559 c -0.301 0.527 -0.32 0.664 -0.309 2.242 c 0.012 1.207 0.07 1.824 0.219 2.207 c 0.227 0.594 0.082 0.703 -0.262 0.191 m 7.566 -0.066 c -0.039 -0.156 -0.02 -0.504 0.047 -0.777 c 0.066 -0.273 0.121 -1.32 0.121 -2.324 c 0.004 -2.293 0.063 -2.465 0.82 -2.465 c 0.59 0 0.875 0.191 0.57 0.387 c -0.098 0.059 -0.332 0.078 -0.52 0.039 c -0.313 -0.066 -0.352 -0.031 -0.445 0.402 c -0.059 0.262 -0.09 1.398 -0.074 2.527 c 0.02 1.129 0 2.152 -0.039 2.273 c -0.102 0.305 -0.395 0.27 -0.48 -0.063 m 2.957 0.219 c -0.121 -0.117 0.047 -5.473 0.176 -5.629 c 0.172 -0.211 1.281 -0.211 1.211 0 c -0.027 0.082 -0.227 0.172 -0.441 0.191 c -0.27 0.027 -0.422 0.125 -0.488 0.313 c -0.055 0.148 -0.105 1.324 -0.117 2.605 c -0.02 2.082 -0.109 2.746 -0.34 2.52 m -6.824 -0.27 c -0.043 -0.113 -0.012 -0.492 0.07 -0.84 c 0.082 -0.348 0.27 -1.473 0.418 -2.5 c 0.145 -1.027 0.328 -1.938 0.398 -2.027 c 0.16 -0.195 1.957 -0.16 1.918 0.035 c -0.016 0.07 -0.328 0.184 -0.691 0.25 c -1.016 0.191 -1.199 0.625 -1.516 3.609 c -0.07 0.684 -0.16 1.34 -0.199 1.461 c -0.09 0.273 -0.293 0.281 -0.398 0.012 m -2.121 -0.23 c -0.047 -0.113 0 -0.227 0.109 -0.266 c 0.121 -0.047 0.191 -0.238 0.191 -0.531 c 0 -0.254 0.066 -0.527 0.152 -0.609 c 0.191 -0.188 1.426 -0.203 1.305 -0.016 c -0.043 0.074 -0.293 0.113 -0.547 0.094 l -0.465 -0.039 l -0.066 0.746 c -0.055 0.641 -0.098 0.75 -0.332 0.785 c -0.156 0.02 -0.305 -0.047 -0.348 -0.164 m 7.902 -0.395 c -0.172 -0.168 -0.078 -0.289 0.223 -0.289 c 0.375 0 0.535 0.191 0.254 0.297 c -0.258 0.098 -0.375 0.094 -0.477 -0.008 m 2.801 0 c -0.172 -0.168 -0.074 -0.289 0.227 -0.289 c 0.371 0 0.535 0.191 0.25 0.297 c -0.258 0.098 -0.371 0.094 -0.477 -0.008 m -6.723 -0.969 c -0.105 -0.098 0.109 -2.203 0.234 -2.324 c 0.129 -0.125 0.449 2.102 0.332 2.289 c -0.063 0.102 -0.477 0.129 -0.566 0.035 m -3.68 -1.969 c 0 -0.297 -0.074 -0.605 -0.16 -0.691 c -0.125 -0.121 -0.121 -0.18 0.031 -0.27 c 0.414 -0.258 0.531 -0.02 0.422 0.867 c -0.094 0.766 -0.293 0.828 -0.293 0.094" fill="#5c6062"/></svg>