<svg xmlns="http://www.w3.org/2000/svg" viewBox="0 0 24 24"><path d="m 4.43 4.336 c 9.672 -11.918 27.13 5.531 15.973 16.08 c -9.594 10.57 -28.22 -5.926 -15.973 -16.08" fill="#4581b3"/><path d="m 10.305 5.398 c -1.395 0.66 -2.332 1.918 -2.32 3.367 l 9.23 0.059 c -0.012 -1.449 -0.969 -2.719 -2.375 -3.398 c -0.766 -0.25 0.402 0.238 -0.309 -0.137 c -0.598 -0.238 -1.262 -0.375 -1.965 -0.383 c -0.699 -0.004 -1.363 0.125 -1.957 0.359 m -0.152 1.172 c 0.047 -0.012 0.094 -0.023 0.145 -0.02 c 0.273 0 0.496 0.23 0.5 0.508 c 0 0.281 -0.215 0.508 -0.488 0.504 c -0.273 0 -0.5 -0.23 -0.5 -0.508 c -0.004 -0.227 0.141 -0.422 0.344 -0.484 m 3.953 0.027 c 0.047 -0.016 0.098 -0.023 0.148 -0.023 c 0.273 0.004 0.496 0.23 0.5 0.512 c 0 0.281 -0.219 0.504 -0.492 0.504 c -0.273 -0.004 -0.496 -0.23 -0.5 -0.512 c 0 -0.227 0.145 -0.418 0.344 -0.48 m -8.359 3.01 c -0.402 0.129 -0.691 0.512 -0.688 0.965 l 0.051 7.738 c 1.941 0.016 -0.063 0.047 1.938 0.004 c 0.039 -2.01 -0.109 1.828 -0.027 -0.023 l 0.016 -7.703 c -0.004 -0.563 -0.449 -1.02 -0.996 -1.023 c -0.102 0 -0.203 0.016 -0.293 0.043 m 1.941 -0.031 l 0.008 0.844 l 0.004 0.688 l 0.102 6 c 9.176 -0.039 9.176 -0.039 9.176 -0.039 c 0.086 0.047 -0.035 -4.328 -0.047 -5.906 l -0.008 -0.684 l -0.008 -0.848 h -0.07 l -9.09 -0.059 h -0.07" fill="#fff"/><g fill="#4581b3"><path d="m 18.906 10.598 c 0.508 0 0.918 1.074 0.918 2.402 v 2.484 c 0 1.328 -0.41 2.402 -0.918 2.402 c -0.508 0 -0.918 -1.074 -0.918 -2.402 v -2.484 c 0 -1.328 0.41 -2.402 0.918 -2.402"/><path d="m 18.793 11.07 c 0.488 0 0.887 1.25 0.887 2.789 c 0 1.539 -0.398 2.789 -0.887 2.789 c -0.492 0 -0.887 -1.25 -0.887 -2.789 c 0 -1.539 0.395 -2.789 0.887 -2.789"/><path d="m 18.12 9.957 c 0.008 0 0.012 0.398 0.012 0.887 c 0 0.492 -0.004 0.891 -0.012 0.891 c -0.004 0 -0.008 -0.398 -0.008 -0.891 c 0 -0.488 0.004 -0.887 0.008 -0.887"/></g><g fill="#fff"><path d="m 19 9.238 c 0.617 0 1.113 0.441 1.113 0.988 v 7.395 c 0 0.547 -0.496 0.992 -1.113 0.992 c -0.613 0 -1.113 -0.445 -1.113 -0.992 v -7.395 c 0 -0.547 0.5 -0.988 1.113 -0.988"/><path d="m 17.512 18.594 c 0 0.617 -0.445 1.113 -0.992 1.113 h -7.395 c -0.547 0 -0.988 -0.496 -0.988 -1.113 c 0 -0.613 0.441 -1.113 0.988 -1.113 h 7.395 c 0.547 0 0.992 0.5 0.992 1.113"/><path d="m 6.359 9.273 c 0.613 0 1.113 0.445 1.113 0.992 v 7.391 c 0 0.551 -0.5 0.992 -1.113 0.992 c -0.617 0 -1.113 -0.441 -1.113 -0.992 v -7.391 c 0 -0.547 0.496 -0.992 1.113 -0.992"/></g></svg>