<svg xmlns="http://www.w3.org/2000/svg" viewBox="0 0 24 24"><path d="m 0.305 14.746 c 4.688 22.492 36.926 -1.652 17.559 -13.09 c -7.523 -4.898 -19.969 1.52 -17.559 13.09" fill="#acd7e5"/><path d="m 13.605 6.91 l 4.797 4.328 l -5.063 5.238 l -4.797 -4.328" fill="#fff"/><path d="m 9.34 18.281 c -2.145 -0.27 -4.301 -2.207 -5.156 -4.633 c -0.391 -1.105 -0.395 -2.965 -0.012 -4.125 c 0.543 -1.637 1.59 -2.891 3.078 -3.684 c 0.891 -0.473 2.988 -0.738 3.98 -0.5 c 0.668 0.156 1.762 0.703 2.375 1.184 c 0.266 0.211 0.434 0.258 0.559 0.164 c 0.922 -0.723 0.84 -0.703 1.32 -0.277 c 0.238 0.211 1.449 1.438 2.688 2.719 c 1.887 1.957 2.246 2.398 2.246 2.746 c 0 0.348 -0.379 0.805 -2.434 2.918 c -1.336 1.379 -2.504 2.508 -2.598 2.508 c -0.09 0 -0.32 -0.129 -0.508 -0.285 c -0.188 -0.156 -0.383 -0.285 -0.438 -0.285 c -0.051 0 -0.457 0.258 -0.902 0.574 c -1.227 0.867 -2.57 1.18 -4.199 0.977 m -1 -2.164 c 0 -0.023 -0.281 -0.266 -0.625 -0.535 c -0.344 -0.27 -0.887 -0.863 -1.207 -1.324 c -0.691 -0.984 -0.762 -0.891 -0.148 0.199 c 0.316 0.566 0.641 0.906 1.168 1.242 c 0.73 0.461 0.812 0.504 0.812 0.418 m 6.176 -1.266 c 1.031 -1.508 1.219 -3.934 0.441 -5.68 c -0.223 -0.504 -0.523 -1.07 -0.672 -1.258 l -0.266 -0.34 l -0.828 0.648 l -0.449 -0.293 c -0.449 -0.297 -1.184 -0.633 -1.184 -0.543 c 0 0.023 0.27 0.227 0.598 0.445 c 0.332 0.223 0.629 0.488 0.668 0.59 c 0.035 0.102 -0.094 0.383 -0.285 0.629 c -0.363 0.453 -0.457 0.469 -1.383 0.207 l -0.336 -0.098 l 0.371 0.309 c 0.203 0.168 0.367 0.391 0.367 0.496 c 0 0.324 -0.922 1.07 -1.324 1.07 c -0.387 0 -0.777 0.336 -0.824 0.711 c -0.102 0.77 0.293 1.027 0.941 0.617 l 0.406 -0.254 l 1.574 1.672 c 0.867 0.918 1.617 1.668 1.676 1.668 c 0.055 0 0.281 -0.27 0.508 -0.598 m -5.586 -0.805 c -0.57 -0.449 -1.01 -0.93 -1.238 -1.375 c -0.27 -0.512 -0.164 0.07 0.117 0.652 c 0.281 0.59 0.945 1.129 1.391 1.129 c 0.188 0 0.117 -0.109 -0.27 -0.406" fill="#e0d6a9"/><path d="m 9.05 18.16 c -1.703 -0.387 -3.695 -2.125 -4.504 -3.934 c -0.418 -0.934 -0.438 -1.066 -0.438 -2.629 c 0 -1.617 0.008 -1.664 0.504 -2.73 c 0.863 -1.852 2.789 -3.395 3.988 -3.191 c 0.316 0.055 0.734 0.004 1.094 -0.133 c 0.949 -0.355 2.5 0.074 3.66 1.016 c 0.641 0.52 0.871 0.52 1.281 -0.004 c 0.098 -0.121 0.266 -0.219 0.375 -0.219 c 0.297 0 5.402 5.25 5.402 5.555 c 0 0.281 -4.77 5.27 -5.04 5.27 c -0.086 0 -0.324 -0.16 -0.523 -0.359 l -0.363 -0.355 l -0.746 0.566 c -0.41 0.313 -1.078 0.699 -1.48 0.859 c -0.84 0.332 -2.395 0.473 -3.215 0.289 m 1.098 -1.715 c -0.148 -0.066 -0.41 -0.125 -0.578 -0.129 c -0.563 -0.02 -1.73 -0.719 -2.305 -1.379 c -0.309 -0.355 -0.746 -1.063 -0.973 -1.57 c -0.371 -0.852 -0.402 -1.02 -0.344 -2.07 c 0.043 -0.82 0.023 -1.07 -0.074 -0.883 c -0.074 0.145 -0.164 0.75 -0.195 1.352 c -0.129 2.355 0.949 4.066 2.918 4.629 c 0.719 0.207 1.98 0.25 1.551 0.055 m 4.543 -1.605 c 0.656 -1.098 0.891 -1.977 0.887 -3.301 c -0.004 -1.344 -0.281 -2.316 -0.949 -3.359 c -0.488 -0.762 -0.691 -0.848 -1.09 -0.469 c -0.219 0.211 -0.305 0.219 -0.68 0.055 c -1.691 -0.742 -2.922 -0.918 -3.762 -0.539 c -0.34 0.152 -0.27 0.172 0.672 0.176 c 1.125 0.004 2.199 0.383 2.676 0.941 c 0.227 0.266 0.223 0.289 -0.105 0.637 c -0.34 0.363 -0.344 0.363 -1.059 0.141 c -0.742 -0.238 -1.453 -0.305 -1.281 -0.121 c 0.055 0.055 0.344 0.199 0.645 0.32 c 0.813 0.32 0.926 0.605 0.445 1.137 c -0.242 0.27 -0.523 0.43 -0.75 0.43 c -0.781 0 -1.383 1.031 -0.902 1.539 c 0.207 0.223 0.707 0.219 1.043 -0.004 c 0.23 -0.152 0.332 -0.105 0.805 0.387 c 0.637 0.656 0.672 0.926 0.172 1.238 c -1.016 0.625 -2.066 0.422 -3.01 -0.574 c -0.402 -0.43 -0.684 -0.887 -0.801 -1.305 l -0.176 -0.641 l -0.051 0.5 c -0.059 0.621 0.156 1.41 0.523 1.906 c 0.437 0.59 1.016 0.836 1.965 0.836 c 0.723 0 0.953 -0.07 1.527 -0.449 l 0.68 -0.445 l 0.523 0.441 c 0.289 0.242 0.527 0.531 0.527 0.641 c 0 0.113 0.082 0.203 0.184 0.203 c 0.102 0 0.262 0.098 0.352 0.215 c 0.289 0.367 0.527 0.238 0.988 -0.535 m -7.09 -5.715 c 0.141 -0.109 0.262 -0.367 0.27 -0.566 c 0.008 -0.203 0.125 -0.5 0.262 -0.656 c 0.336 -0.398 0.043 -0.367 -0.594 0.063 c -0.484 0.324 -0.949 0.859 -0.949 1.094 c 0 0.055 0.137 0.129 0.305 0.164 c 0.164 0.031 0.336 0.07 0.375 0.078 c 0.043 0.012 0.191 -0.066 0.332 -0.176" fill="#ee9a5f"/><path d="m 9.08 18.15 c -0.648 -0.137 -1.645 -0.594 -2.01 -0.918 c -0.262 -0.227 -0.262 -0.23 0.066 -0.074 l 0.336 0.16 l -0.336 -0.293 c -0.188 -0.16 -0.414 -0.262 -0.512 -0.223 c -0.098 0.035 -0.145 0.016 -0.109 -0.043 c 0.035 -0.063 -0.238 -0.43 -0.605 -0.82 c -0.398 -0.418 -0.875 -1.141 -1.164 -1.766 c -0.477 -1.02 -0.496 -1.121 -0.496 -2.566 c 0 -1.395 0.031 -1.57 0.43 -2.465 c 0.563 -1.258 1.598 -2.41 2.668 -2.969 c 0.77 -0.402 1.254 -0.453 1.055 -0.117 c -0.043 0.074 -0.039 0.258 0.008 0.41 c 0.098 0.332 0.383 0.258 0.871 -0.219 c 0.691 -0.668 1.012 -0.762 1.895 -0.543 c 0.922 0.23 1.648 0.594 2.254 1.137 c 0.406 0.359 0.414 0.395 0.199 0.645 c -0.266 0.313 -0.684 0.277 -1.797 -0.148 c -0.832 -0.32 -2.145 -0.375 -2.727 -0.109 c -0.34 0.152 -0.27 0.172 0.672 0.176 c 1.125 0.004 2.199 0.383 2.676 0.941 c 0.227 0.266 0.223 0.289 -0.105 0.637 c -0.344 0.363 -0.344 0.363 -1.059 0.137 c -0.742 -0.234 -1.453 -0.301 -1.281 -0.117 c 0.055 0.055 0.344 0.199 0.645 0.32 c 0.813 0.32 0.926 0.605 0.445 1.137 c -0.242 0.27 -0.523 0.43 -0.75 0.43 c -0.781 0 -1.387 1.027 -0.906 1.539 c 0.211 0.223 0.711 0.219 1.047 -0.004 c 0.23 -0.152 0.332 -0.105 0.805 0.387 c 0.633 0.656 0.672 0.926 0.168 1.238 c -1.012 0.625 -2.063 0.422 -3 -0.574 c -0.406 -0.43 -0.684 -0.887 -0.801 -1.305 l -0.176 -0.641 l -0.051 0.5 c -0.063 0.621 0.156 1.41 0.523 1.906 c 0.434 0.59 1.016 0.836 1.965 0.836 c 0.719 0 0.953 -0.07 1.527 -0.449 l 0.68 -0.445 l 0.523 0.441 c 0.625 0.523 0.648 0.695 0.152 1.082 c -0.934 0.734 -1.543 0.965 -2.512 0.957 c -1.742 -0.023 -3.141 -1.07 -3.988 -2.996 c -0.375 -0.848 -0.402 -1.02 -0.344 -2.066 c 0.043 -0.82 0.023 -1.07 -0.074 -0.883 c -0.332 0.625 -0.266 2.668 0.121 3.672 c 0.074 0.199 0.059 0.242 -0.066 0.16 c -0.137 -0.09 -0.141 -0.047 -0.012 0.203 c 0.324 0.648 1.086 1.387 1.84 1.793 c 0.707 0.379 0.902 0.418 2.121 0.418 c 1.43 0 1.91 -0.164 2.996 -1.027 l 0.445 -0.355 l 0.32 0.316 c 0.406 0.406 0.594 0.32 1.113 -0.508 c 0.719 -1.152 1 -2.125 1.01 -3.48 c 0.008 -1.426 -0.301 -2.473 -1.055 -3.582 c -0.527 -0.785 -0.527 -0.977 0.004 -1.348 c 0.402 -0.281 0.195 -0.457 3.66 3.145 c 0.977 1.02 1.824 1.836 1.879 1.813 c 0.051 -0.023 0.117 0.063 0.145 0.195 c 0.051 0.258 -1.352 1.824 -3.633 4.07 c -1.027 1.012 -1.359 1.262 -1.578 1.191 c -0.148 -0.051 -0.27 -0.176 -0.27 -0.277 c 0 -0.105 -0.086 -0.262 -0.188 -0.352 c -0.148 -0.133 -0.285 -0.074 -0.641 0.273 c -1.219 1.191 -3.309 1.781 -5.01 1.418 m -1.473 -9.03 c 0.141 -0.109 0.262 -0.363 0.27 -0.566 c 0.008 -0.203 0.125 -0.496 0.262 -0.656 c 0.336 -0.395 0.043 -0.363 -0.594 0.063 c -0.484 0.324 -0.949 0.859 -0.949 1.098 c 0 0.055 0.137 0.129 0.305 0.16 c 0.164 0.035 0.332 0.07 0.375 0.082 c 0.043 0.012 0.191 -0.07 0.332 -0.18 m 5.164 -1.574 c 0 -0.039 -0.137 -0.137 -0.305 -0.223 c -0.289 -0.148 -0.289 -0.148 -0.039 0.066 c 0.273 0.234 0.344 0.266 0.344 0.156" fill="#9ea49b"/><path d="m 9.387 17.996 c -0.863 -0.129 -1.781 -0.578 -2.707 -1.328 c -0.945 -0.766 -1.379 -1.324 -1.93 -2.492 c -0.488 -1.023 -0.504 -1.113 -0.504 -2.563 c 0 -1.398 0.031 -1.574 0.43 -2.469 c 0.563 -1.258 1.598 -2.41 2.668 -2.969 c 0.77 -0.402 0.43 0.273 0.82 0.262 c 0.902 -0.02 0.055 0.117 0.098 0.27 c 0.102 0.328 0.715 0.02 1.207 -0.457 c 0.691 -0.672 0.82 -0.762 1.723 -0.539 c 0.906 0.227 1.953 0.781 2.379 1.258 l 0.277 0.316 l -0.281 0.266 c -0.273 0.266 -0.289 0.262 -0.906 -0.102 c -0.867 -0.508 -2.145 -0.723 -3.23 -0.539 c -2.031 0.348 -3.238 1.531 -3.844 3.758 c -0.391 1.434 -0.125 3.164 0.648 4.242 c 1.531 2.125 4.48 2.445 6.645 0.723 l 0.445 -0.355 l 0.32 0.316 c 0.406 0.41 0.598 0.32 1.113 -0.508 c 0.723 -1.152 1 -2.125 1.01 -3.48 c 0.008 -1.426 -0.301 -2.473 -1.051 -3.582 c -0.531 -0.781 -0.531 -0.977 -0.008 -1.34 l 0.344 -0.238 l 1.441 1.43 c 2.645 2.617 3.832 3.961 3.707 4.184 c -0.063 0.113 -1.156 1.277 -2.43 2.59 c -1.5 1.551 -2.371 2.352 -2.48 2.285 c -0.094 -0.055 -0.313 -0.234 -0.48 -0.395 c -0.215 -0.207 -0.359 -0.254 -0.48 -0.16 c -1.742 1.402 -3.195 1.875 -4.941 1.617 m -0.73 -2.25 c -1.715 -0.859 -2.734 -2.379 -2.73 -4.07 c 0 -1 0.168 -1.715 0.52 -2.199 c 0.246 -0.336 0.523 -1.145 0.965 -0.918 c 0.426 0.219 -0.176 0.125 0.102 -0.152 c 0.25 -0.25 -0.246 0.5 -0.367 0.141 c -0.109 -0.344 0.805 -0.426 1 -0.652 c 0.574 -0.672 2.191 -0.711 3.484 -0.082 c 0.863 0.418 1.023 0.703 0.633 1.117 c -0.273 0.289 -0.289 0.289 -0.781 0.043 c -0.695 -0.352 -2.09 -0.242 -2.887 0.227 c -1.438 0.84 -1.867 3.43 -0.773 4.637 c 0.664 0.73 1.125 0.938 2.094 0.938 c 0.723 0 0.957 -0.066 1.531 -0.445 l 0.676 -0.449 l 0.391 0.445 c 0.496 0.563 0.492 0.746 -0.02 1.133 c -1.063 0.801 -2.59 0.918 -3.836 0.289 m 0.336 -1.988 c -0.926 -0.621 -1.23 -1.25 -1.164 -2.371 c 0.043 -0.723 0.121 -0.992 0.383 -1.285 c 0.469 -0.535 0.973 -0.777 1.609 -0.777 c 0.578 0 1.473 0.363 1.473 0.594 c 0 0.297 -0.676 0.832 -1.051 0.832 c -0.777 0 -1.418 0.93 -1.094 1.578 c 0.223 0.438 0.66 0.559 1.195 0.328 c 0.438 -0.191 0.477 -0.184 0.836 0.184 c 0.488 0.492 0.48 0.84 -0.016 1.113 c -0.641 0.352 -1.477 0.277 -2.172 -0.195" fill="#96ca33"/><path d="m 9.387 17.996 c -0.863 -0.129 -1.781 -0.578 -2.707 -1.328 c -0.945 -0.766 -1.379 -1.324 -1.93 -2.492 c -0.488 -1.023 -0.504 -1.113 -0.504 -2.563 c 0 -1.398 0.031 -1.574 0.43 -2.469 c 0.563 -1.258 1.598 -2.41 2.668 -2.969 c 0.77 -0.402 1.254 -0.453 1.059 -0.113 c -0.043 0.07 -0.043 0.258 0.004 0.41 c 0.098 0.328 -0.895 0.113 -0.402 -0.363 c 0.691 -0.672 2.285 -0.621 3.188 -0.398 c 0.906 0.227 1.953 0.781 2.379 1.258 l 0.277 0.316 l -0.281 0.266 c -0.273 0.266 -0.289 0.262 -0.906 -0.102 c -0.867 -0.512 -2.145 -0.723 -3.23 -0.539 c -2.031 0.348 -3.238 1.531 -3.844 3.758 c -0.391 1.434 -0.125 3.164 0.648 4.242 c 1.531 2.125 4.48 2.445 6.645 0.723 l 0.445 -0.355 l 0.32 0.316 c 0.406 0.41 0.598 0.32 1.113 -0.508 c 0.723 -1.152 1 -2.125 1.01 -3.48 c 0.008 -1.426 -0.301 -2.473 -1.051 -3.582 c -0.531 -0.781 -0.531 -0.977 -0.008 -1.34 l 0.344 -0.238 l 1.441 1.43 c 2.645 2.617 3.832 3.961 3.707 4.184 c -0.063 0.113 -1.156 1.277 -2.43 2.59 c -1.5 1.551 -2.371 2.352 -2.48 2.285 c -0.094 -0.055 -0.313 -0.234 -0.48 -0.395 c -0.215 -0.207 -0.359 -0.254 -0.48 -0.16 c -1.742 1.402 -3.195 1.875 -4.941 1.617 m -0.434 -2.086 l -0.527 -0.258 l 0.969 0.059 c 1.16 0.066 1.98 -0.148 2.723 -0.719 c 0.402 -0.309 0.586 -0.379 0.695 -0.262 c 0.23 0.242 -0.043 0.594 -0.77 0.992 c -0.855 0.465 -2.344 0.559 -3.09 0.191 m 0.039 -2.156 c -0.926 -0.621 -1.234 -1.246 -1.164 -2.371 c 0.043 -0.723 0.121 -0.988 0.383 -1.285 c 0.469 -0.535 0.973 -0.773 1.609 -0.773 c 0.578 0 1.473 0.359 1.473 0.59 c 0 0.297 -0.676 0.832 -1.051 0.832 c -0.777 0 -1.422 0.93 -1.094 1.578 c 0.223 0.438 0.66 0.559 1.191 0.328 c 0.441 -0.191 0.48 -0.184 0.84 0.184 c 0.488 0.496 0.48 0.84 -0.016 1.113 c -0.641 0.352 -1.477 0.277 -2.176 -0.195 m -1.984 -1.148 c -0.203 -0.398 -0.172 -1.813 0.051 -2.258 c 0.27 -0.543 1.414 -1.695 1.863 -1.871 c 0.547 -0.219 1.52 -0.188 1.977 0.066 c 0.219 0.117 0.398 0.23 0.398 0.25 c 0 0.016 -0.469 0.031 -1.043 0.031 c -1.438 0.004 -2.094 0.387 -2.637 1.543 c -0.301 0.637 -0.391 1.027 -0.391 1.672 c 0 0.465 -0.02 0.844 -0.043 0.844 c -0.02 0 -0.102 -0.125 -0.176 -0.277" fill="#ea630a"/><path d="m 9.383 18 c -0.426 -0.066 -0.938 -0.215 -1.145 -0.336 l -0.367 -0.219 l 0.402 0.105 c 0.219 0.059 0.977 0.105 1.676 0.098 c 1.496 -0.008 2.348 -0.305 3.449 -1.191 c 0.555 -0.449 0.723 -0.523 0.84 -0.371 c 0.18 0.23 -0.391 0.781 -1.32 1.277 c -1.207 0.641 -2.254 0.828 -3.535 0.637 m 5.816 -1.113 c -0.141 -0.094 0.34 -0.668 1.945 -2.328 c 2.551 -2.637 2.957 -3.01 3.07 -2.816 c 0.047 0.078 0.035 0.23 -0.023 0.332 c -0.117 0.203 -4.684 4.945 -4.762 4.941 c -0.023 0 -0.129 -0.059 -0.23 -0.129 m -6.246 -0.973 l -0.527 -0.262 l 0.969 0.059 c 1.16 0.07 1.98 -0.148 2.723 -0.719 c 0.402 -0.309 0.586 -0.379 0.695 -0.262 c 0.23 0.242 -0.043 0.598 -0.77 0.992 c -0.855 0.465 -2.344 0.559 -3.09 0.191 m 0.039 -2.156 c -0.926 -0.621 -1.234 -1.246 -1.164 -2.367 c 0.043 -0.727 0.121 -0.992 0.383 -1.289 c 0.469 -0.535 0.973 -0.773 1.609 -0.773 c 0.578 0 1.473 0.359 1.473 0.59 c 0 0.297 -0.676 0.832 -1.051 0.832 c -0.777 0 -1.422 0.93 -1.094 1.578 c 0.223 0.438 0.66 0.559 1.191 0.328 c 0.441 -0.191 0.48 -0.184 0.84 0.184 c 0.488 0.496 0.48 0.84 -0.016 1.113 c -0.641 0.352 -1.477 0.277 -2.176 -0.191 m -3.676 -0.813 c -0.73 -2.66 0.645 -5.434 3.066 -6.199 c 1.094 -0.344 2.25 -0.32 3.047 0.063 l 0.469 0.227 l -0.535 -0.102 c -0.723 -0.133 -1.918 -0.09 -2.563 0.094 c -0.926 0.266 -1.965 1.031 -2.441 1.797 c -0.813 1.313 -1.164 3.129 -0.84 4.336 c 0.074 0.27 0.109 0.516 0.078 0.547 c -0.031 0.035 -0.16 -0.309 -0.285 -0.762 m 1.691 -0.336 c -0.199 -0.402 -0.168 -1.813 0.055 -2.262 c 0.27 -0.543 1.414 -1.691 1.863 -1.871 c 0.547 -0.219 1.52 -0.184 1.977 0.066 c 0.219 0.121 0.398 0.23 0.398 0.25 c 0 0.016 -0.469 0.031 -1.043 0.035 c -1.438 0 -2.094 0.383 -2.637 1.539 c -0.301 0.637 -0.391 1.027 -0.391 1.676 c 0 0.461 -0.02 0.84 -0.043 0.84 c -0.02 0 -0.102 -0.121 -0.176 -0.273" fill="#2e9b43"/><path d="m 9.383 18 c -0.426 -0.066 -0.938 -0.215 -1.145 -0.336 l -0.367 -0.219 l 0.402 0.105 c 0.219 0.059 0.977 0.105 1.676 0.098 c 1.496 -0.008 2.348 -0.305 3.449 -1.191 c 0.555 -0.449 0.723 -0.523 0.84 -0.371 c 0.18 0.23 -0.391 0.781 -1.32 1.277 c -1.207 0.641 -2.254 0.828 -3.535 0.637 m 5.816 -1.113 c -0.141 -0.094 0.34 -0.668 1.945 -2.328 c 2.551 -2.637 2.957 -3.01 3.07 -2.816 c 0.047 0.078 0.035 0.23 -0.023 0.332 c -0.117 0.203 -4.684 4.945 -4.762 4.941 c -0.023 0 -0.129 -0.059 -0.23 -0.129 m -6.246 -0.973 l -0.527 -0.262 l 0.969 0.059 c 1.16 0.07 1.98 -0.148 2.723 -0.719 c 0.402 -0.309 0.586 -0.379 0.695 -0.262 c 0.23 0.242 -0.043 0.598 -0.77 0.992 c -0.855 0.465 -2.344 0.559 -3.09 0.191 m 0.461 -1.887 c -0.148 -0.102 -0.039 -0.141 0.402 -0.145 c 0.387 0 0.809 -0.125 1.172 -0.348 c 0.539 -0.328 0.57 -0.332 0.57 -0.074 c 0 0.547 -1.57 0.961 -2.145 0.566 m -4.102 -1.078 c -0.73 -2.66 0.645 -5.434 3.066 -6.199 c 1.094 -0.344 2.25 -0.32 3.047 0.063 l 0.469 0.227 l -0.535 -0.102 c -0.723 -0.133 -1.918 -0.09 -2.563 0.094 c -0.926 0.266 -1.965 1.031 -2.441 1.797 c -0.813 1.313 -1.164 3.129 -0.836 4.336 c 0.07 0.27 0.105 0.516 0.074 0.547 c -0.031 0.035 -0.16 -0.309 -0.285 -0.762 m 1.695 -0.34 c -0.246 -0.484 -0.168 -1.738 0.141 -2.285 c 0.914 -1.617 2.594 -2.414 3.75 -1.777 c 0.219 0.117 0.398 0.23 0.398 0.25 c 0 0.016 -0.469 0.031 -1.043 0.031 c -1.438 0.004 -2.094 0.387 -2.637 1.543 c -0.301 0.637 -0.391 1.027 -0.391 1.672 c 0 0.465 -0.02 0.844 -0.043 0.844 c -0.02 0 -0.102 -0.125 -0.176 -0.277 m 1.867 -0.59 c -0.176 -0.348 -0.066 -0.945 0.238 -1.305 c 0.23 -0.273 1.043 -0.336 1.379 -0.105 c 0.152 0.102 0.098 0.137 -0.23 0.141 c -0.59 0 -1.145 0.531 -1.164 1.113 c -0.02 0.535 -0.027 0.543 -0.223 0.156" fill="#565c46"/></svg>