<svg xmlns="http://www.w3.org/2000/svg" viewBox="0 0 24 24"><path d="m 3.871 20.848 c 20.77 13.609 28.809 -23.566 7.441 -20.602 c -8.715 1.207 -15.391 15.395 -7.441 20.602" fill="#1097ec"/><g fill="#fff" fill-rule="evenodd"><path d="m 11.219 17.434 c 0.043 -0.176 0.016 -0.273 -0.082 -0.313 c -0.078 -0.031 -0.176 -0.211 -0.211 -0.402 c -0.035 -0.195 -0.109 -0.352 -0.164 -0.352 c -0.051 0 -0.094 -0.086 -0.094 -0.195 c 0 -0.109 -0.07 -0.266 -0.152 -0.348 c -0.086 -0.086 -0.156 -0.25 -0.156 -0.363 c 0 -0.117 -0.086 -0.289 -0.195 -0.383 c -0.18 -0.152 -0.184 -0.191 -0.047 -0.457 c 0.129 -0.254 0.203 -0.285 0.621 -0.285 c 0.371 0 0.449 -0.027 0.355 -0.125 c -0.164 -0.164 -0.148 -0.492 0.035 -0.734 c 0.082 -0.109 0.148 -0.352 0.148 -0.539 c 0 -0.238 0.078 -0.418 0.262 -0.586 c 0.227 -0.207 0.246 -0.27 0.141 -0.465 c -0.066 -0.125 -0.098 -0.375 -0.066 -0.559 c 0.039 -0.246 0.004 -0.379 -0.141 -0.508 c -0.168 -0.152 -0.195 -0.32 -0.195 -1.188 c 0 -0.965 -0.098 -1.398 -0.309 -1.398 c -0.133 0 -0.125 0.367 0.012 0.625 c 0.059 0.113 0.078 0.234 0.035 0.273 c -0.039 0.035 -0.094 0.008 -0.117 -0.063 c -0.066 -0.184 -0.203 -0.156 -0.445 0.086 c -0.133 0.133 -0.191 0.293 -0.16 0.418 c 0.039 0.145 -0.004 0.223 -0.137 0.258 c -0.105 0.027 -0.203 0.145 -0.223 0.258 c -0.039 0.285 -0.285 0.355 -0.285 0.082 c 0 -0.113 -0.066 -0.211 -0.145 -0.211 c -0.09 0 -0.16 -0.125 -0.18 -0.332 c -0.027 -0.293 -0.063 -0.324 -0.309 -0.301 c -0.246 0.027 -0.281 -0.004 -0.281 -0.258 c 0 -0.16 -0.055 -0.344 -0.121 -0.41 c -0.098 -0.094 -0.098 -0.121 0 -0.121 c 0.176 0 0.148 -0.477 -0.031 -0.547 c -0.09 -0.035 -0.152 -0.188 -0.152 -0.367 c 0 -0.273 0.031 -0.309 0.305 -0.309 c 0.27 0 0.305 -0.031 0.305 -0.305 c 0 -0.27 0.035 -0.305 0.297 -0.305 c 0.25 0 0.305 0.047 0.332 0.281 c 0.027 0.219 0.094 0.285 0.32 0.313 c 0.32 0.035 0.68 0.297 0.68 0.496 c 0 0.102 0.395 0.129 1.734 0.129 h 1.734 l 0.258 -0.305 c 0.176 -0.207 0.348 -0.305 0.551 -0.305 c 0.262 0 0.297 -0.035 0.297 -0.305 c 0 -0.27 0.035 -0.305 0.301 -0.305 c 0.246 0 0.301 0.047 0.328 0.281 c 0.027 0.227 0.09 0.285 0.344 0.309 c 0.309 0.031 0.309 0.031 0.293 0.641 c -0.012 0.508 -0.063 0.664 -0.309 0.961 c -0.164 0.195 -0.281 0.445 -0.262 0.559 c 0.016 0.109 -0.039 0.227 -0.129 0.262 c -0.086 0.035 -0.16 0.172 -0.16 0.305 c 0 0.359 0.473 0.324 0.855 -0.066 c 0.164 -0.164 0.402 -0.301 0.527 -0.301 c 0.141 0 0.258 -0.078 0.297 -0.203 c 0.043 -0.141 0.152 -0.203 0.363 -0.203 c 0.195 0 0.297 -0.051 0.297 -0.152 c 0 -0.086 0.09 -0.152 0.203 -0.152 c 0.113 0 0.203 0.066 0.203 0.152 c 0 0.102 0.102 0.152 0.301 0.152 c 0.207 0 0.316 0.063 0.359 0.203 c 0.035 0.113 0.109 0.203 0.16 0.203 c 0.055 0 0.094 0.23 0.094 0.508 c 0 0.387 -0.035 0.508 -0.152 0.508 c -0.105 0 -0.152 0.109 -0.152 0.348 c 0 0.191 -0.031 0.363 -0.074 0.383 c -0.203 0.09 -1.074 1.246 -1.082 1.438 c -0.008 0.133 -0.121 0.273 -0.285 0.352 c -0.152 0.074 -0.363 0.246 -0.473 0.383 c -0.109 0.141 -0.289 0.25 -0.398 0.25 c -0.117 0 -0.305 0.152 -0.445 0.355 c -0.145 0.215 -0.324 0.355 -0.453 0.355 c -0.266 0.004 -0.652 0.406 -0.652 0.684 c 0 0.113 -0.07 0.266 -0.152 0.336 c -0.086 0.07 -0.152 0.207 -0.152 0.305 c 0 0.098 -0.07 0.234 -0.152 0.305 c -0.086 0.07 -0.152 0.23 -0.152 0.355 c 0 0.129 -0.07 0.289 -0.152 0.355 c -0.086 0.07 -0.152 0.195 -0.152 0.277 c 0 0.082 -0.105 0.234 -0.23 0.34 c -0.195 0.164 -0.41 0.191 -1.535 0.195 l -1.309 0.004 m 0.5 -1.242 c -0.035 -0.078 -0.059 -0.055 -0.063 0.063 c -0.004 0.109 0.02 0.168 0.055 0.133 c 0.031 -0.031 0.035 -0.121 0.008 -0.195 m 1.375 -0.406 c -0.098 -0.094 -0.125 -0.066 -0.125 0.121 c 0 0.191 0.027 0.219 0.125 0.121 c 0.094 -0.094 0.094 -0.148 0 -0.242 m -1.344 -0.922 c -0.004 -0.184 -0.023 -0.199 -0.102 -0.074 c -0.129 0.195 -0.129 0.305 0 0.305 c 0.055 0 0.102 -0.102 0.102 -0.23 m -0.254 -0.582 c -0.035 -0.059 -0.105 -0.102 -0.16 -0.102 c -0.051 0 -0.094 0.043 -0.094 0.102 c 0 0.055 0.07 0.102 0.156 0.102 c 0.09 0 0.133 -0.047 0.098 -0.102 m 3.152 -0.305 c -0.035 -0.059 -0.176 -0.105 -0.313 -0.105 c -0.137 0 -0.246 0.047 -0.246 0.105 c 0 0.055 0.141 0.102 0.309 0.102 c 0.184 0 0.285 -0.043 0.25 -0.102 m -0.898 -0.426 c -0.031 -0.082 -0.055 -0.059 -0.059 0.059 c -0.004 0.109 0.02 0.168 0.051 0.133 c 0.035 -0.031 0.039 -0.121 0.008 -0.191 m 1.348 -0.16 c -0.004 -0.043 -0.047 -0.168 -0.094 -0.281 c -0.078 -0.18 -0.09 -0.172 -0.094 0.078 c -0.004 0.152 0.039 0.277 0.094 0.277 c 0.055 0 0.098 -0.031 0.094 -0.074 m 0.16 -0.633 c 0.035 -0.059 0.066 -0.688 0.07 -1.398 c 0.004 -1.152 -0.016 -1.305 -0.172 -1.336 c -0.129 -0.023 -0.16 -0.102 -0.117 -0.313 c 0.035 -0.188 0 -0.328 -0.117 -0.43 c -0.449 -0.398 -0.832 -0.914 -0.832 -1.121 c 0 -0.16 -0.031 -0.195 -0.109 -0.117 c -0.121 0.121 0.102 0.766 0.309 0.895 c 0.074 0.047 0.109 0.316 0.094 0.738 c -0.02 0.523 0.012 0.691 0.145 0.789 c 0.137 0.098 0.172 0.293 0.172 0.906 c 0 0.598 0.035 0.793 0.152 0.84 c 0.086 0.031 0.152 0.184 0.152 0.352 c 0 0.289 0.133 0.391 0.254 0.195 m -0.355 -5.293 c 0 -0.055 -0.02 -0.102 -0.043 -0.102 c -0.027 0 -0.074 0.047 -0.109 0.102 c -0.035 0.059 -0.016 0.102 0.043 0.102 c 0.063 0 0.109 -0.043 0.109 -0.102"/><path d="m 11.176 17.387 c 0 -0.168 -0.047 -0.309 -0.102 -0.309 c -0.059 0 -0.102 -0.078 -0.102 -0.18 c 0 -0.098 -0.063 -0.27 -0.137 -0.379 c -0.078 -0.113 -0.168 -0.328 -0.207 -0.48 c -0.039 -0.156 -0.113 -0.281 -0.168 -0.281 c -0.055 0 -0.098 -0.105 -0.098 -0.238 c 0 -0.133 -0.09 -0.32 -0.203 -0.418 c -0.184 -0.168 -0.188 -0.203 -0.047 -0.477 c 0.133 -0.258 0.207 -0.289 0.629 -0.289 c 0.367 0 0.445 -0.027 0.352 -0.125 c -0.148 -0.148 -0.16 -0.555 -0.016 -0.641 c 0.059 -0.039 0.074 -0.16 0.039 -0.273 c -0.043 -0.141 -0.027 -0.188 0.047 -0.141 c 0.074 0.047 0.113 -0.047 0.113 -0.266 c 0.004 -0.223 0.086 -0.414 0.254 -0.574 c 0.195 -0.188 0.23 -0.277 0.152 -0.426 c -0.059 -0.102 -0.102 -0.367 -0.102 -0.59 c 0 -0.23 -0.066 -0.453 -0.152 -0.527 c -0.117 -0.098 -0.152 -0.363 -0.152 -1.16 c 0 -0.734 -0.043 -1.094 -0.145 -1.234 c -0.211 -0.289 -0.316 -0.102 -0.18 0.332 c 0.102 0.34 0.055 0.664 -0.055 0.359 c -0.066 -0.184 -0.203 -0.156 -0.445 0.086 c -0.129 0.129 -0.191 0.293 -0.16 0.414 c 0.031 0.121 -0.008 0.223 -0.102 0.258 c -0.082 0.031 -0.191 0.168 -0.242 0.301 c -0.102 0.266 -0.301 0.324 -0.301 0.082 c 0 -0.086 -0.066 -0.18 -0.152 -0.215 c -0.086 -0.031 -0.152 -0.184 -0.152 -0.352 c 0 -0.258 -0.035 -0.293 -0.305 -0.293 c -0.266 0 -0.305 -0.035 -0.305 -0.285 c 0 -0.156 -0.055 -0.34 -0.121 -0.406 c -0.098 -0.098 -0.098 -0.121 0 -0.121 c 0.176 0 0.148 -0.477 -0.031 -0.547 c -0.09 -0.035 -0.152 -0.188 -0.152 -0.359 c 0 -0.254 0.043 -0.309 0.277 -0.336 c 0.223 -0.023 0.289 -0.09 0.313 -0.309 c 0.027 -0.234 0.082 -0.281 0.332 -0.281 c 0.219 0 0.297 0.047 0.297 0.184 c 0 0.25 0.199 0.426 0.477 0.426 c 0.137 0 0.32 0.121 0.457 0.305 l 0.223 0.305 h 3.332 l 0.25 -0.297 c 0.141 -0.164 0.375 -0.313 0.527 -0.332 c 0.219 -0.023 0.285 -0.094 0.309 -0.309 c 0.027 -0.234 0.082 -0.281 0.332 -0.281 c 0.219 0 0.297 0.047 0.297 0.184 c 0 0.246 0.199 0.426 0.469 0.426 c 0.203 0 0.219 0.047 0.207 0.594 c -0.012 0.477 -0.07 0.668 -0.293 0.961 c -0.156 0.199 -0.281 0.445 -0.281 0.543 c 0 0.094 -0.074 0.258 -0.164 0.355 c -0.195 0.219 -0.117 0.5 0.137 0.492 c 0.098 0 0.34 -0.141 0.531 -0.305 c 0.195 -0.164 0.434 -0.301 0.531 -0.301 c 0.098 0 0.227 -0.09 0.289 -0.203 c 0.063 -0.121 0.211 -0.203 0.363 -0.203 c 0.137 0 0.277 -0.07 0.313 -0.152 c 0.074 -0.199 0.402 -0.199 0.48 0 c 0.031 0.082 0.168 0.152 0.301 0.152 c 0.152 0 0.313 0.098 0.41 0.25 c 0.215 0.324 0.223 1.129 0.012 1.211 c -0.082 0.031 -0.152 0.176 -0.152 0.316 c 0 0.156 -0.184 0.488 -0.469 0.84 c -0.262 0.316 -0.535 0.73 -0.613 0.914 c -0.078 0.188 -0.25 0.379 -0.379 0.43 c -0.133 0.051 -0.332 0.207 -0.445 0.352 c -0.113 0.145 -0.297 0.262 -0.406 0.262 c -0.117 0 -0.305 0.152 -0.445 0.355 c -0.145 0.215 -0.324 0.355 -0.453 0.355 c -0.266 0.004 -0.652 0.406 -0.652 0.684 c 0 0.113 -0.066 0.266 -0.152 0.336 c -0.082 0.07 -0.152 0.207 -0.152 0.305 c 0 0.098 -0.07 0.234 -0.152 0.305 c -0.086 0.07 -0.152 0.23 -0.152 0.355 c 0 0.129 -0.07 0.289 -0.152 0.355 c -0.086 0.07 -0.152 0.211 -0.152 0.313 c 0 0.395 -0.375 0.504 -1.754 0.504 h -1.297 m 0.477 -1.242 c -0.035 -0.078 -0.059 -0.055 -0.063 0.063 c -0.004 0.109 0.02 0.168 0.055 0.133 c 0.031 -0.031 0.035 -0.121 0.008 -0.195 m 1.453 -0.277 c 0 -0.055 -0.043 -0.125 -0.102 -0.16 c -0.055 -0.035 -0.102 0.008 -0.102 0.098 c 0 0.086 0.047 0.156 0.102 0.156 c 0.059 0 0.102 -0.043 0.102 -0.094 m -1.422 -1.051 c -0.004 -0.184 -0.023 -0.199 -0.102 -0.074 c -0.129 0.195 -0.129 0.305 0 0.305 c 0.055 0 0.102 -0.102 0.102 -0.23 m -0.254 -0.582 c -0.035 -0.059 -0.105 -0.102 -0.16 -0.102 c -0.051 0 -0.094 0.043 -0.094 0.102 c 0 0.055 0.07 0.102 0.156 0.102 c 0.09 0 0.133 -0.047 0.098 -0.102 m 3.152 -0.305 c -0.035 -0.059 -0.176 -0.105 -0.313 -0.105 c -0.137 0 -0.246 0.047 -0.246 0.105 c 0 0.055 0.141 0.102 0.309 0.102 c 0.184 0 0.285 -0.043 0.25 -0.102 m -0.898 -0.426 c -0.031 -0.082 -0.055 -0.059 -0.059 0.059 c -0.004 0.109 0.02 0.168 0.051 0.133 c 0.035 -0.031 0.039 -0.121 0.008 -0.191 m 1.219 -0.414 c -0.027 -0.07 -0.051 -0.016 -0.051 0.125 c 0 0.141 0.023 0.199 0.051 0.129 c 0.027 -0.07 0.027 -0.184 0 -0.254 m 0.316 -1.738 c 0.027 -1.234 0.012 -1.391 -0.137 -1.391 c -0.125 0 -0.156 -0.066 -0.121 -0.254 c 0.051 -0.254 0.008 -0.324 -0.633 -1.031 c -0.16 -0.172 -0.309 -0.426 -0.336 -0.559 c -0.035 -0.195 -0.047 -0.184 -0.059 0.078 c -0.008 0.18 0.074 0.426 0.191 0.574 c 0.156 0.199 0.203 0.414 0.203 0.934 c 0 0.504 0.039 0.688 0.152 0.73 c 0.117 0.043 0.152 0.238 0.152 0.852 c 0 0.609 0.035 0.805 0.152 0.848 c 0.09 0.035 0.152 0.188 0.152 0.375 c 0 0.211 0.043 0.305 0.129 0.277 c 0.09 -0.031 0.133 -0.434 0.152 -1.434"/><path d="m 11.176 17.387 c 0 -0.168 -0.047 -0.309 -0.102 -0.309 c -0.059 0 -0.102 -0.082 -0.102 -0.184 c 0 -0.102 -0.066 -0.27 -0.152 -0.379 c -0.082 -0.109 -0.148 -0.273 -0.152 -0.363 c 0 -0.09 -0.07 -0.223 -0.152 -0.293 c -0.086 -0.07 -0.152 -0.227 -0.152 -0.352 c 0 -0.125 -0.09 -0.309 -0.203 -0.406 c -0.184 -0.168 -0.188 -0.203 -0.047 -0.477 c 0.129 -0.246 0.215 -0.289 0.555 -0.289 c 0.391 0 0.398 -0.008 0.34 -0.309 c -0.035 -0.168 -0.012 -0.363 0.055 -0.441 c 0.063 -0.078 0.086 -0.215 0.051 -0.309 c -0.035 -0.09 -0.012 -0.164 0.051 -0.164 c 0.063 0 0.113 -0.129 0.113 -0.289 c 0 -0.16 0.09 -0.371 0.203 -0.473 c 0.172 -0.156 0.191 -0.266 0.141 -0.754 c -0.035 -0.313 -0.121 -0.664 -0.195 -0.777 c -0.078 -0.125 -0.145 -0.648 -0.164 -1.293 c -0.023 -0.68 -0.082 -1.129 -0.16 -1.207 c -0.203 -0.203 -0.273 -0.016 -0.148 0.391 c 0.117 0.395 0.07 0.586 -0.082 0.336 c -0.078 -0.121 -0.137 -0.105 -0.359 0.102 c -0.16 0.152 -0.246 0.32 -0.215 0.438 c 0.027 0.105 -0.016 0.211 -0.105 0.242 c -0.082 0.031 -0.191 0.168 -0.242 0.301 c -0.102 0.262 -0.301 0.324 -0.301 0.094 c 0 -0.082 -0.063 -0.188 -0.141 -0.23 c -0.078 -0.047 -0.16 -0.195 -0.18 -0.336 c -0.027 -0.191 -0.105 -0.262 -0.313 -0.285 c -0.234 -0.027 -0.281 -0.082 -0.281 -0.324 c 0 -0.16 -0.047 -0.32 -0.102 -0.355 c -0.063 -0.039 -0.055 -0.133 0.023 -0.254 c 0.098 -0.156 0.086 -0.23 -0.055 -0.387 c -0.238 -0.262 -0.23 -0.734 0.012 -0.734 c 0.234 0 0.426 -0.191 0.426 -0.426 c 0 -0.133 0.078 -0.184 0.285 -0.184 c 0.219 0 0.305 0.066 0.395 0.305 c 0.09 0.23 0.18 0.305 0.375 0.305 c 0.172 0 0.34 0.105 0.488 0.305 l 0.223 0.305 h 3.332 l 0.258 -0.305 c 0.141 -0.168 0.336 -0.305 0.43 -0.305 c 0.227 0 0.418 -0.195 0.418 -0.426 c 0 -0.133 0.078 -0.184 0.285 -0.184 c 0.219 0 0.305 0.066 0.395 0.305 c 0.09 0.23 0.18 0.305 0.379 0.305 c 0.25 0 0.266 0.027 0.266 0.563 c 0 0.461 -0.055 0.633 -0.309 0.98 c -0.168 0.23 -0.305 0.492 -0.305 0.582 c -0.004 0.09 -0.07 0.25 -0.148 0.352 c -0.156 0.207 -0.105 0.473 0.09 0.473 c 0.07 0 0.305 -0.137 0.523 -0.301 c 0.223 -0.168 0.457 -0.305 0.527 -0.305 c 0.07 -0.004 0.207 -0.094 0.305 -0.207 c 0.094 -0.113 0.277 -0.203 0.406 -0.203 c 0.133 0 0.262 -0.07 0.297 -0.152 c 0.074 -0.199 0.402 -0.199 0.48 0 c 0.031 0.082 0.168 0.152 0.301 0.152 c 0.152 0 0.313 0.098 0.41 0.25 c 0.215 0.324 0.223 1.156 0.012 1.238 c -0.082 0.031 -0.152 0.168 -0.152 0.305 c 0 0.141 -0.219 0.527 -0.508 0.906 c -0.281 0.363 -0.559 0.773 -0.609 0.914 c -0.055 0.141 -0.207 0.297 -0.34 0.348 c -0.133 0.051 -0.332 0.203 -0.438 0.336 c -0.105 0.137 -0.305 0.273 -0.445 0.309 c -0.137 0.035 -0.344 0.203 -0.457 0.375 c -0.117 0.176 -0.289 0.309 -0.414 0.309 c -0.266 0 -0.652 0.402 -0.652 0.68 c 0 0.113 -0.066 0.266 -0.152 0.336 c -0.082 0.07 -0.152 0.207 -0.152 0.305 c 0 0.098 -0.07 0.234 -0.152 0.305 c -0.086 0.07 -0.152 0.23 -0.152 0.355 c 0 0.129 -0.07 0.289 -0.152 0.359 c -0.086 0.066 -0.152 0.207 -0.152 0.309 c 0 0.395 -0.375 0.504 -1.754 0.504 h -1.297 m 1.93 -1.527 c 0 -0.055 -0.043 -0.102 -0.102 -0.102 c -0.055 0 -0.102 0.047 -0.102 0.102 c 0 0.055 0.047 0.102 0.102 0.102 c 0.059 0 0.102 -0.047 0.102 -0.102 m -1.422 -0.973 c 0 -0.086 -0.047 -0.129 -0.102 -0.094 c -0.055 0.035 -0.102 0.105 -0.102 0.156 c 0 0.055 0.047 0.098 0.102 0.098 c 0.055 0 0.102 -0.07 0.102 -0.16 m -0.254 -0.652 c -0.035 -0.059 -0.105 -0.105 -0.16 -0.105 c -0.051 0 -0.094 0.047 -0.094 0.105 c 0 0.055 0.07 0.102 0.156 0.102 c 0.09 0 0.133 -0.047 0.098 -0.102 m 3.102 -0.309 c 0 -0.055 -0.113 -0.102 -0.254 -0.102 c -0.141 0 -0.254 0.047 -0.254 0.102 c 0 0.059 0.113 0.102 0.254 0.102 c 0.141 0 0.254 -0.043 0.254 -0.102 m 0.648 -1.277 c 0.035 -0.09 0.063 -0.73 0.063 -1.426 c 0 -1.055 -0.023 -1.262 -0.152 -1.262 c -0.102 0 -0.152 -0.102 -0.152 -0.313 c 0 -0.172 -0.059 -0.371 -0.129 -0.441 c -0.469 -0.484 -0.773 -0.871 -0.816 -1.039 c -0.035 -0.141 -0.051 -0.121 -0.059 0.074 c -0.008 0.148 0.078 0.383 0.191 0.527 c 0.156 0.199 0.203 0.41 0.203 0.93 c 0 0.508 0.039 0.691 0.152 0.734 c 0.117 0.043 0.152 0.234 0.152 0.797 c 0 0.535 0.043 0.773 0.152 0.867 c 0.082 0.07 0.152 0.258 0.152 0.418 c 0 0.316 0.145 0.395 0.242 0.133"/><path d="m 11.176 17.484 c 0 -0.203 -0.023 -0.266 -0.34 -0.895 c -0.094 -0.188 -0.168 -0.398 -0.168 -0.473 c 0 -0.07 -0.07 -0.187 -0.152 -0.258 c -0.086 -0.07 -0.152 -0.207 -0.152 -0.305 c 0 -0.098 -0.09 -0.289 -0.195 -0.418 c -0.176 -0.215 -0.18 -0.27 -0.047 -0.52 c 0.117 -0.234 0.211 -0.281 0.527 -0.281 c 0.383 0 0.383 -0.004 0.395 -0.434 c 0.023 -0.695 0.039 -0.789 0.137 -0.789 c 0.055 0 0.098 -0.117 0.098 -0.262 c 0 -0.145 0.09 -0.379 0.195 -0.516 c 0.16 -0.203 0.188 -0.352 0.141 -0.777 c -0.031 -0.293 -0.113 -0.621 -0.184 -0.734 c -0.074 -0.121 -0.145 -0.668 -0.168 -1.293 c -0.023 -0.664 -0.09 -1.137 -0.164 -1.211 c -0.199 -0.203 -0.27 -0.012 -0.148 0.391 c 0.121 0.395 0.074 0.586 -0.078 0.336 c -0.078 -0.121 -0.137 -0.105 -0.359 0.102 c -0.16 0.152 -0.246 0.32 -0.215 0.438 c 0.027 0.105 -0.016 0.211 -0.105 0.242 c -0.082 0.035 -0.191 0.168 -0.242 0.301 c -0.102 0.27 -0.301 0.324 -0.301 0.086 c 0 -0.086 -0.063 -0.184 -0.141 -0.211 c -0.078 -0.031 -0.168 -0.188 -0.199 -0.352 c -0.047 -0.238 -0.113 -0.301 -0.316 -0.301 c -0.199 0 -0.258 -0.051 -0.258 -0.227 c -0.004 -0.129 -0.043 -0.297 -0.094 -0.375 c -0.055 -0.086 -0.047 -0.211 0.023 -0.324 c 0.086 -0.141 0.074 -0.223 -0.063 -0.371 c -0.238 -0.266 -0.23 -0.738 0.012 -0.738 c 0.234 0 0.426 -0.191 0.426 -0.426 c 0 -0.133 0.078 -0.184 0.293 -0.184 c 0.23 0 0.309 0.059 0.359 0.258 c 0.047 0.184 0.156 0.273 0.375 0.32 c 0.172 0.035 0.406 0.191 0.523 0.352 l 0.215 0.293 h 3.332 l 0.258 -0.305 c 0.141 -0.168 0.336 -0.309 0.43 -0.309 c 0.227 0 0.418 -0.195 0.418 -0.426 c 0 -0.133 0.078 -0.184 0.293 -0.184 c 0.23 0 0.309 0.059 0.359 0.258 c 0.047 0.184 0.156 0.277 0.367 0.316 c 0.289 0.059 0.305 0.086 0.305 0.605 c 0 0.43 -0.063 0.629 -0.309 0.992 c -0.164 0.25 -0.305 0.523 -0.305 0.609 c 0 0.086 -0.043 0.184 -0.102 0.219 c -0.133 0.082 -0.129 0.43 0.004 0.512 c 0.055 0.035 0.293 -0.078 0.527 -0.25 c 0.234 -0.172 0.477 -0.313 0.543 -0.313 c 0.063 0 0.199 -0.09 0.301 -0.203 c 0.102 -0.113 0.293 -0.203 0.426 -0.203 c 0.133 0 0.266 -0.07 0.301 -0.152 c 0.031 -0.082 0.145 -0.152 0.254 -0.152 c 0.105 0 0.223 0.07 0.254 0.152 c 0.031 0.082 0.16 0.152 0.289 0.152 c 0.133 0 0.301 0.105 0.395 0.25 c 0.211 0.32 0.219 1.105 0.012 1.277 c -0.082 0.066 -0.152 0.215 -0.152 0.328 c 0 0.109 -0.129 0.367 -0.289 0.57 c -0.16 0.203 -0.461 0.633 -0.664 0.957 c -0.207 0.32 -0.438 0.582 -0.516 0.582 c -0.074 0 -0.254 0.137 -0.395 0.305 c -0.141 0.168 -0.324 0.309 -0.406 0.309 c -0.082 0 -0.289 0.16 -0.461 0.355 c -0.172 0.195 -0.402 0.355 -0.512 0.355 c -0.23 0 -0.621 0.449 -0.621 0.711 c 0 0.098 -0.066 0.234 -0.152 0.305 c -0.082 0.07 -0.152 0.207 -0.152 0.305 c 0 0.098 -0.07 0.238 -0.152 0.305 c -0.086 0.07 -0.152 0.23 -0.152 0.355 c 0 0.129 -0.07 0.289 -0.152 0.359 c -0.086 0.066 -0.152 0.207 -0.152 0.309 c 0 0.398 -0.375 0.504 -1.754 0.504 c -1.234 0 -1.297 -0.012 -1.297 -0.207 m 1.93 -1.32 c 0 -0.055 -0.043 -0.102 -0.102 -0.102 c -0.055 0 -0.102 0.047 -0.102 0.102 c 0 0.059 0.047 0.102 0.102 0.102 c 0.059 0 0.102 -0.043 0.102 -0.102 m -1.422 -0.973 c 0 -0.086 -0.047 -0.129 -0.102 -0.094 c -0.055 0.035 -0.102 0.105 -0.102 0.16 c 0 0.051 0.047 0.094 0.102 0.094 c 0.055 0 0.102 -0.07 0.102 -0.16 m -0.305 -0.652 c 0 -0.059 -0.047 -0.102 -0.102 -0.102 c -0.055 0 -0.102 0.043 -0.102 0.102 c 0 0.055 0.047 0.102 0.102 0.102 c 0.055 0 0.102 -0.047 0.102 -0.102 m 3.102 -0.305 c -0.035 -0.059 -0.152 -0.102 -0.262 -0.102 c -0.109 0 -0.195 0.043 -0.195 0.102 c 0 0.055 0.117 0.102 0.258 0.102 c 0.148 0 0.234 -0.047 0.199 -0.102 m 0.754 -2.676 c 0.008 -0.973 -0.02 -1.207 -0.145 -1.254 c -0.082 -0.031 -0.152 -0.184 -0.152 -0.336 c 0 -0.227 -0.492 -0.961 -0.82 -1.227 c -0.035 -0.027 -0.09 -0.121 -0.121 -0.203 c -0.055 -0.137 -0.059 -0.137 -0.066 0 c -0.004 0.082 0.082 0.301 0.195 0.484 c 0.148 0.242 0.203 0.512 0.203 0.996 c 0 0.492 0.039 0.676 0.152 0.719 c 0.117 0.043 0.152 0.234 0.152 0.797 c 0 0.535 0.043 0.777 0.152 0.867 c 0.082 0.07 0.152 0.227 0.152 0.352 c 0 0.125 0.031 0.258 0.074 0.297 c 0.145 0.148 0.215 -0.32 0.223 -1.492"/><path d="m 11.176 17.484 c 0 -0.109 -0.043 -0.281 -0.094 -0.379 c -0.191 -0.352 -0.703 -1.504 -0.766 -1.719 c -0.035 -0.121 -0.129 -0.273 -0.211 -0.34 c -0.125 -0.105 -0.125 -0.16 0.004 -0.41 c 0.113 -0.223 0.234 -0.297 0.516 -0.32 l 0.363 -0.031 l 0.039 -0.559 c 0.02 -0.309 0.086 -0.574 0.145 -0.594 c 0.059 -0.02 0.105 -0.148 0.105 -0.285 c 0 -0.137 0.078 -0.367 0.172 -0.508 c 0.203 -0.313 0.191 -1.055 -0.027 -1.473 c -0.09 -0.176 -0.145 -0.586 -0.145 -1.078 c 0 -0.867 -0.164 -1.637 -0.313 -1.488 c -0.055 0.055 -0.055 0.23 0.008 0.438 c 0.105 0.371 0.047 0.551 -0.102 0.309 c -0.078 -0.121 -0.137 -0.105 -0.359 0.102 c -0.16 0.152 -0.246 0.32 -0.215 0.438 c 0.027 0.105 -0.016 0.211 -0.105 0.242 c -0.082 0.035 -0.191 0.168 -0.242 0.301 c -0.102 0.27 -0.301 0.324 -0.301 0.086 c 0 -0.086 -0.066 -0.184 -0.152 -0.215 c -0.082 -0.035 -0.152 -0.137 -0.152 -0.23 c 0 -0.227 -0.195 -0.418 -0.426 -0.418 c -0.121 0 -0.184 -0.078 -0.184 -0.23 c -0.004 -0.125 -0.043 -0.293 -0.094 -0.371 c -0.055 -0.086 -0.047 -0.211 0.023 -0.324 c 0.086 -0.141 0.074 -0.223 -0.063 -0.371 c -0.281 -0.313 -0.223 -0.672 0.133 -0.809 c 0.203 -0.074 0.305 -0.184 0.305 -0.324 c 0 -0.168 0.063 -0.215 0.305 -0.215 c 0.238 0 0.316 0.055 0.367 0.262 c 0.047 0.18 0.152 0.273 0.363 0.316 c 0.168 0.035 0.398 0.191 0.516 0.352 l 0.215 0.293 h 3.281 l 0.293 -0.309 c 0.16 -0.164 0.367 -0.305 0.457 -0.305 c 0.215 0 0.406 -0.199 0.406 -0.426 c 0 -0.133 0.078 -0.184 0.293 -0.184 c 0.23 0 0.309 0.059 0.359 0.258 c 0.047 0.18 0.156 0.273 0.367 0.316 c 0.293 0.059 0.305 0.082 0.305 0.617 c 0 0.395 -0.063 0.641 -0.203 0.84 c -0.211 0.297 -0.613 1.172 -0.613 1.332 c 0 0.258 0.383 0.09 1.445 -0.633 c 0.152 -0.102 0.34 -0.188 0.422 -0.188 c 0.078 0 0.199 -0.07 0.27 -0.152 c 0.164 -0.195 0.449 -0.195 0.609 0 c 0.07 0.082 0.211 0.152 0.313 0.152 c 0.102 0 0.258 0.102 0.344 0.227 c 0.207 0.293 0.211 1.129 0.004 1.301 c -0.082 0.066 -0.152 0.211 -0.152 0.313 c 0 0.199 -0.945 1.625 -1.301 1.961 c -0.59 0.563 -0.863 0.777 -0.984 0.777 c -0.074 0 -0.266 0.148 -0.426 0.328 c -0.16 0.184 -0.426 0.379 -0.59 0.434 c -0.172 0.059 -0.363 0.234 -0.449 0.406 c -0.078 0.168 -0.184 0.375 -0.23 0.457 c -0.047 0.086 -0.113 0.223 -0.145 0.305 c -0.031 0.086 -0.125 0.273 -0.203 0.422 c -0.078 0.148 -0.145 0.34 -0.145 0.422 c 0 0.082 -0.07 0.207 -0.152 0.273 c -0.086 0.07 -0.152 0.211 -0.152 0.313 c 0 0.395 -0.375 0.504 -1.754 0.504 c -1.234 0 -1.297 -0.012 -1.297 -0.207 m 1.93 -1.32 c 0 -0.055 -0.043 -0.102 -0.102 -0.102 c -0.055 0 -0.102 0.047 -0.102 0.102 c 0 0.059 0.047 0.102 0.102 0.102 c 0.059 0 0.102 -0.043 0.102 -0.102 m -1.422 -0.965 c 0 -0.082 -0.02 -0.152 -0.039 -0.152 c -0.023 0 -0.066 0.07 -0.098 0.152 c -0.035 0.082 -0.016 0.152 0.039 0.152 c 0.055 0 0.098 -0.07 0.098 -0.152 m -0.305 -0.66 c 0 -0.059 -0.047 -0.102 -0.102 -0.102 c -0.055 0 -0.102 0.043 -0.102 0.102 c 0 0.055 0.047 0.102 0.102 0.102 c 0.055 0 0.102 -0.047 0.102 -0.102 m 3.051 -0.305 c 0 -0.059 -0.094 -0.102 -0.203 -0.102 c -0.113 0 -0.203 0.043 -0.203 0.102 c 0 0.055 0.09 0.102 0.203 0.102 c 0.109 0 0.203 -0.047 0.203 -0.102 m 0.75 -1.383 c 0.035 -0.09 0.063 -0.684 0.063 -1.324 c 0 -0.941 -0.027 -1.176 -0.152 -1.223 c -0.086 -0.035 -0.152 -0.184 -0.152 -0.344 c 0 -0.188 -0.145 -0.445 -0.441 -0.777 c -0.242 -0.27 -0.469 -0.563 -0.5 -0.645 c -0.055 -0.137 -0.059 -0.137 -0.066 0 c -0.004 0.082 0.082 0.301 0.195 0.484 c 0.141 0.234 0.203 0.512 0.203 0.93 c 0 0.402 0.047 0.633 0.152 0.723 c 0.105 0.086 0.152 0.324 0.152 0.805 c 0 0.441 0.051 0.75 0.148 0.879 c 0.082 0.105 0.152 0.301 0.152 0.426 c 0.004 0.262 0.156 0.305 0.246 0.066"/><path d="m 13.508 17.504 c 0 -0.105 0.063 -0.32 0.141 -0.484 c 0.324 -0.672 0.656 -1.426 0.715 -1.633 c 0.039 -0.121 0.133 -0.273 0.211 -0.34 c 0.129 -0.105 0.129 -0.16 -0.004 -0.41 c -0.113 -0.223 -0.23 -0.297 -0.512 -0.32 l -0.367 -0.031 l -0.027 -0.543 c -0.016 -0.297 -0.082 -0.59 -0.145 -0.656 c -0.063 -0.063 -0.117 -0.207 -0.117 -0.32 c -0.004 -0.117 -0.07 -0.301 -0.152 -0.406 c -0.188 -0.25 -0.195 -1.098 -0.012 -1.461 c 0.078 -0.152 0.164 -0.742 0.195 -1.309 c 0.051 -0.984 0.176 -1.5 0.309 -1.281 c 0.035 0.055 0.02 0.25 -0.035 0.438 c -0.109 0.383 -0.066 0.484 0.137 0.316 c 0.172 -0.145 0.453 0.125 0.508 0.48 c 0.02 0.129 0.082 0.262 0.141 0.301 c 0.055 0.035 0.156 0.172 0.223 0.297 c 0.133 0.254 0.316 0.305 0.316 0.086 c 0 -0.078 0.07 -0.168 0.152 -0.199 c 0.086 -0.031 0.152 -0.145 0.152 -0.246 c 0 -0.227 0.191 -0.43 0.406 -0.43 c 0.191 0 0.422 -0.73 0.297 -0.934 c -0.047 -0.074 -0.02 -0.227 0.066 -0.359 c 0.234 -0.359 0.188 -0.707 -0.105 -0.781 c -0.156 -0.039 -0.277 -0.16 -0.316 -0.316 c -0.086 -0.336 -0.602 -0.363 -0.707 -0.039 c -0.035 0.117 -0.219 0.273 -0.402 0.352 c -0.188 0.078 -0.43 0.258 -0.539 0.398 c -0.199 0.254 -0.211 0.258 -1.82 0.258 c -1.613 0 -1.625 -0.004 -1.867 -0.266 c -0.137 -0.145 -0.398 -0.324 -0.578 -0.402 c -0.223 -0.09 -0.332 -0.207 -0.332 -0.344 c 0 -0.324 -0.539 -0.289 -0.691 0.043 c -0.063 0.137 -0.23 0.277 -0.371 0.313 c -0.238 0.063 -0.258 0.113 -0.258 0.617 c 0 0.406 0.063 0.652 0.246 0.941 c 0.258 0.406 0.566 1.086 0.566 1.246 c 0 0.164 -0.332 0.09 -0.652 -0.148 c -0.457 -0.34 -1.066 -0.68 -1.223 -0.68 c -0.074 0 -0.191 -0.066 -0.262 -0.152 c -0.16 -0.195 -0.445 -0.195 -0.609 0 c -0.07 0.086 -0.207 0.152 -0.313 0.152 c -0.465 0 -0.66 0.984 -0.332 1.645 c 0.094 0.188 0.199 0.395 0.23 0.461 c 0.223 0.461 1.27 1.859 1.434 1.91 c 0.105 0.035 0.281 0.172 0.383 0.301 c 0.102 0.129 0.281 0.266 0.402 0.305 c 0.121 0.035 0.336 0.203 0.473 0.367 c 0.141 0.164 0.324 0.301 0.406 0.301 c 0.203 0 0.672 0.508 0.672 0.723 c 0 0.094 0.07 0.223 0.152 0.293 c 0.086 0.07 0.156 0.203 0.156 0.293 c 0.004 0.09 0.07 0.254 0.152 0.363 c 0.082 0.109 0.152 0.273 0.152 0.367 c 0 0.098 0.066 0.23 0.152 0.301 c 0.082 0.066 0.152 0.207 0.152 0.309 c 0 0.398 0.371 0.504 1.75 0.504 c 1.195 0 1.301 -0.016 1.301 -0.188 m -1.934 -1.34 c 0 -0.055 0.047 -0.102 0.102 -0.102 c 0.055 0 0.102 0.047 0.102 0.102 c 0 0.059 -0.047 0.102 -0.102 0.102 c -0.055 0 -0.102 -0.043 -0.102 -0.102 m 1.73 -1.625 c 0 -0.059 0.02 -0.102 0.043 -0.102 c 0.023 0 0.074 0.043 0.109 0.102 c 0.035 0.055 0.012 0.102 -0.047 0.102 c -0.059 0 -0.105 -0.047 -0.105 -0.102 m -3.051 -0.305 c 0 -0.059 0.066 -0.102 0.152 -0.102 c 0.082 0 0.152 0.043 0.152 0.102 c 0 0.055 -0.07 0.102 -0.152 0.102 c -0.086 0 -0.152 -0.047 -0.152 -0.102 m -0.75 -1.539 c -0.035 -0.176 -0.066 -0.77 -0.066 -1.324 c 0 -0.805 0.031 -1.02 0.152 -1.066 c 0.086 -0.035 0.152 -0.164 0.152 -0.289 c 0 -0.23 0.434 -0.902 0.746 -1.16 c 0.094 -0.074 0.176 -0.215 0.18 -0.305 c 0.004 -0.109 0.023 -0.121 0.059 -0.035 c 0.027 0.07 -0.043 0.289 -0.16 0.488 c -0.148 0.254 -0.211 0.535 -0.211 0.953 c 0 0.398 -0.051 0.629 -0.152 0.715 c -0.105 0.09 -0.152 0.324 -0.156 0.75 c 0 0.355 -0.066 0.75 -0.152 0.914 c -0.082 0.164 -0.152 0.379 -0.152 0.484 c 0 0.309 -0.172 0.219 -0.238 -0.125"/></g></svg>