<svg xmlns="http://www.w3.org/2000/svg" viewBox="0 0 24 24"><defs><linearGradient id="0" gradientUnits="userSpaceOnUse" y1="19.485" x2="0" y2="35.751" gradientTransform="matrix(0.33654 0 0 0.30905 4.126 4.229)"><stop stop-color="#895b2f"/><stop offset="1" stop-color="#895b2f" stop-opacity="0"/></linearGradient></defs><path d="m 12.227 23.871 c -2.473 -0.191 -5.371 -1.379 -7.391 -3.03 c -2.457 -2.01 -4.25 -5.086 -4.734 -8.117 c -0.105 -0.664 -0.137 -2.199 -0.055 -2.879 c 0.328 -2.828 1.988 -5.645 4.41 -7.477 c 1.316 -0.996 3.055 -1.789 4.688 -2.133 c 4.246 -0.902 8.68 0.805 11.715 4.516 c 1.82 2.223 2.766 4.465 2.992 7.117 c 0.277 3.18 -0.977 6.59 -3.262 8.883 c -1.793 1.805 -4.203 2.949 -6.488 3.09 c -0.332 0.02 -0.738 0.047 -0.902 0.059 c -0.168 0.012 -0.605 -0.004 -0.973 -0.031" fill="#d2d2d2"/><path d="m 5.422 9.934 v 7.148 c 0 0.266 0.125 0.504 0.324 0.664 v -7.813" fill="url(#0)"/><path d="m 5.422 5.465 h 13.625 v 12.512 h -13.625" fill="#ccaa7d"/><path d="m 6.512 7.254 h 11.414 c 0.527 0 0.953 0.398 0.953 0.895 v 1.785 c 0 0.492 -0.426 0.895 -0.953 0.895 h -11.414 c -0.527 0 -0.953 -0.402 -0.953 -0.895 v -1.785 c 0 -0.496 0.426 -0.895 0.953 -0.895" fill="#3c2510"/><g fill="#ccaa7d"><path d="m 6.52 5.477 c -1 0.02 -1 0.004 -1 0.895 v 3.566 c 0 0.895 0.039 0.871 1 0.891 l 6 -0.297 v -5.352"/><path d="m 18.02 5.477 c 0.895 0.02 0.914 0.02 0.914 0.895 v 3.566 c 0 0.914 -0.078 0.91 -0.914 0.891 l -5.5 -0.297 v -5.352"/></g><path d="m 13.227 5.207 h -1.965 l 0.008 3.77 l 0.023 4.531 l 0.922 -0.078 l 0.98 -0.082 l 0.004 -0.867 l 0.016 -3.504" fill="#39230f" fill-opacity="0.502"/><path d="m 13.215 5.188 l -0.98 -0.066 l -0.984 0.066 l 0.008 3.844 l 0.023 4.328 l 0.922 -0.07 l 0.98 -0.082 l 0.008 -0.828 l 0.016 -3.348 l 0.008 -3.84" fill="#d7c9b2"/><g fill-opacity="0.2"><path d="m 12.07 5.188 h 0.164 v 5.316 h -0.164" fill="#8d6136"/><path d="m 12.234 5.188 h 0.16 v 5.316 h -0.16" fill="#fff"/></g><path d="m 17.377 49.51 h 10.259 c 1.036 0 1.854 0.892 1.854 1.993 v 15 c 0 1.101 -0.819 1.993 -1.854 1.993 h -10.259 c -1.036 0 -1.878 -0.892 -1.878 -1.993 v -15 c 0 -1.101 0.843 -1.993 1.878 -1.993" transform="matrix(0.1622 0 0 0.14895 4.447 4.274)" fill="none" stroke="#814f22"/><g fill="#814f22"><path d="m 7.406 14.11 v -1.379 h -0.203 l 0.406 -0.707 l 0.406 0.707 h -0.203 v 1.379"/><path d="m 8.379 14.11 v -1.379 h -0.203 l 0.406 -0.707 l 0.406 0.707 h -0.203 v 1.379"/></g><g fill="#543417"><path d="m 6.898 16.711 v -0.156 h 0.023 v 0.078 l 0.086 -0.078 h 0.031 l -0.074 0.063 l 0.078 0.094 h -0.031 l -0.063 -0.078 l -0.027 0.023 v 0.055 h -0.023"/><path d="m 7.145 16.676 l 0.023 0.004 c -0.004 0.012 -0.012 0.02 -0.02 0.027 c -0.012 0.004 -0.023 0.008 -0.035 0.008 c -0.02 0 -0.035 -0.004 -0.047 -0.016 c -0.008 -0.012 -0.016 -0.023 -0.016 -0.043 c 0 -0.02 0.008 -0.035 0.016 -0.047 c 0.012 -0.008 0.027 -0.016 0.043 -0.016 c 0.02 0 0.031 0.004 0.043 0.016 c 0.012 0.012 0.016 0.027 0.016 0.047 c 0 0 0 0 0 0.004 h -0.094 c 0 0.012 0.004 0.023 0.012 0.027 c 0.008 0.008 0.016 0.012 0.027 0.012 c 0.008 0 0.012 0 0.02 -0.004 c 0.004 -0.004 0.008 -0.012 0.012 -0.02 m -0.07 -0.031 h 0.07 c 0 -0.012 -0.004 -0.02 -0.008 -0.023 c -0.008 -0.008 -0.016 -0.012 -0.027 -0.012 c -0.008 0 -0.016 0.004 -0.023 0.012 c -0.008 0.004 -0.012 0.012 -0.012 0.023"/><path d="m 7.281 16.676 l 0.02 0.004 c 0 0.012 -0.008 0.02 -0.02 0.027 c -0.008 0.004 -0.02 0.008 -0.035 0.008 c -0.02 0 -0.031 -0.004 -0.043 -0.016 c -0.012 -0.012 -0.016 -0.023 -0.016 -0.043 c 0 -0.02 0.004 -0.035 0.016 -0.047 c 0.012 -0.008 0.023 -0.016 0.043 -0.016 c 0.016 0 0.031 0.004 0.039 0.016 c 0.012 0.012 0.02 0.027 0.02 0.047 c 0 0 0 0 0 0.004 h -0.098 c 0.004 0.012 0.008 0.023 0.012 0.027 c 0.008 0.008 0.02 0.012 0.027 0.012 c 0.008 0 0.016 0 0.02 -0.004 c 0.008 -0.004 0.012 -0.012 0.016 -0.02 m -0.07 -0.031 h 0.07 c 0 -0.012 -0.004 -0.02 -0.008 -0.023 c -0.008 -0.008 -0.016 -0.012 -0.027 -0.012 c -0.012 0 -0.02 0.004 -0.023 0.012 c -0.008 0.004 -0.012 0.012 -0.012 0.023"/><path d="m 7.328 16.758 v -0.16 h 0.02 v 0.016 c 0.008 -0.008 0.012 -0.012 0.016 -0.016 c 0.008 0 0.016 -0.004 0.023 -0.004 c 0.008 0 0.02 0.004 0.027 0.008 c 0.008 0.004 0.016 0.012 0.02 0.023 c 0.004 0.008 0.004 0.02 0.004 0.027 c 0 0.012 0 0.023 -0.004 0.035 c -0.008 0.008 -0.012 0.016 -0.023 0.02 c -0.008 0.008 -0.016 0.008 -0.027 0.008 c -0.004 0 -0.012 0 -0.02 -0.004 c -0.004 -0.004 -0.008 -0.008 -0.012 -0.012 v 0.059 h -0.023 m 0.02 -0.102 c 0 0.016 0.004 0.023 0.012 0.031 c 0.008 0.008 0.016 0.012 0.023 0.012 c 0.008 0 0.016 -0.004 0.023 -0.012 c 0.008 -0.008 0.012 -0.02 0.012 -0.035 c 0 -0.012 -0.004 -0.023 -0.012 -0.031 c -0.004 -0.008 -0.012 -0.012 -0.023 -0.012 c -0.008 0 -0.016 0.004 -0.023 0.012 c -0.008 0.008 -0.012 0.02 -0.012 0.035"/><path d="m 7.531 16.574 v -0.02 h 0.023 v 0.02 h -0.023 m 0 0.141 v -0.117 h 0.023 v 0.117 h -0.023"/><path d="m 7.586 16.711 v -0.113 h 0.02 v 0.016 c 0.008 -0.012 0.023 -0.02 0.039 -0.02 c 0.008 0 0.016 0 0.023 0.004 c 0.004 0.004 0.012 0.008 0.012 0.012 c 0.004 0.004 0.008 0.008 0.008 0.012 c 0 0.004 0 0.012 0 0.02 v 0.07 h -0.02 v -0.07 c 0 -0.008 0 -0.012 -0.004 -0.016 c 0 -0.004 -0.004 -0.008 -0.008 -0.012 c -0.004 0 -0.008 -0.004 -0.016 -0.004 c -0.008 0 -0.016 0.004 -0.023 0.012 c -0.008 0.004 -0.008 0.012 -0.008 0.027 v 0.063 h -0.023"/><path d="m 7.871 16.699 c -0.008 0.008 -0.016 0.012 -0.023 0.012 c -0.008 0.004 -0.016 0.004 -0.023 0.004 c -0.012 0 -0.023 0 -0.031 -0.008 c -0.008 -0.008 -0.012 -0.016 -0.012 -0.023 c 0 -0.008 0 -0.012 0.004 -0.016 c 0.004 -0.004 0.008 -0.008 0.012 -0.012 c 0.004 -0.004 0.008 -0.004 0.016 -0.008 c 0.004 0 0.012 0 0.02 0 c 0.016 -0.004 0.027 -0.004 0.039 -0.008 c 0 -0.004 0 -0.004 0 -0.004 c 0 -0.008 -0.004 -0.016 -0.008 -0.02 c -0.004 -0.004 -0.012 -0.004 -0.023 -0.004 c -0.012 0 -0.02 0 -0.023 0.004 c -0.004 0.004 -0.008 0.008 -0.012 0.016 h -0.02 c 0.004 -0.012 0.004 -0.016 0.008 -0.023 c 0.008 -0.004 0.012 -0.008 0.02 -0.012 c 0.008 0 0.02 -0.004 0.031 -0.004 c 0.008 0 0.02 0.004 0.023 0.004 c 0.008 0.004 0.012 0.008 0.016 0.012 c 0.004 0 0.008 0.008 0.008 0.012 c 0 0.004 0 0.008 0 0.02 v 0.023 c 0 0.02 0 0.031 0 0.035 c 0.004 0.004 0.004 0.012 0.008 0.016 h -0.023 c 0 -0.004 -0.004 -0.012 -0.004 -0.016 m 0 -0.043 c -0.008 0.004 -0.02 0.004 -0.035 0.008 c -0.012 0 -0.016 0 -0.02 0.004 c -0.004 0 -0.008 0.004 -0.008 0.004 c -0.004 0.004 -0.004 0.008 -0.004 0.012 c 0 0.004 0.004 0.008 0.008 0.012 c 0.004 0.004 0.008 0.004 0.02 0.004 c 0.008 0 0.016 0 0.02 -0.004 c 0.008 -0.004 0.012 -0.008 0.016 -0.012 c 0 -0.004 0.004 -0.012 0.004 -0.02 v -0.008"/><path d="m 7.984 16.68 l 0.02 -0.004 c 0.004 0.008 0.004 0.012 0.012 0.016 c 0.004 0.008 0.012 0.008 0.023 0.008 c 0.008 0 0.016 0 0.02 -0.004 c 0.004 -0.004 0.008 -0.008 0.008 -0.016 c 0 -0.004 0 -0.008 -0.008 -0.008 c 0 -0.004 -0.008 -0.004 -0.02 -0.008 c -0.016 -0.004 -0.027 -0.008 -0.031 -0.008 c -0.008 -0.004 -0.012 -0.008 -0.016 -0.012 c -0.004 -0.004 -0.004 -0.012 -0.004 -0.016 c 0 -0.008 0 -0.012 0.004 -0.016 c 0 -0.004 0.004 -0.008 0.008 -0.012 c 0.004 0 0.008 -0.004 0.016 -0.004 c 0.004 -0.004 0.012 -0.004 0.02 -0.004 c 0.008 0 0.016 0.004 0.023 0.004 c 0.008 0.004 0.016 0.008 0.02 0.012 c 0 0.004 0.004 0.012 0.004 0.02 h -0.02 c 0 -0.004 -0.004 -0.012 -0.008 -0.012 c -0.004 -0.004 -0.012 -0.008 -0.02 -0.008 c -0.012 0 -0.016 0.004 -0.02 0.004 c -0.004 0.004 -0.008 0.008 -0.008 0.012 c 0 0.004 0 0.004 0.004 0.008 c 0 0 0.004 0.004 0.008 0.004 c 0 0 0.008 0.004 0.02 0.008 c 0.012 0 0.023 0.004 0.031 0.008 c 0.004 0 0.008 0.004 0.012 0.012 c 0.004 0.004 0.008 0.008 0.008 0.016 c 0 0.004 -0.004 0.012 -0.008 0.02 c -0.004 0.004 -0.012 0.008 -0.02 0.012 c -0.008 0.004 -0.016 0.004 -0.023 0.004 c -0.02 0 -0.031 -0.004 -0.039 -0.008 c -0.008 -0.008 -0.016 -0.016 -0.016 -0.027"/><path d="m 8.195 16.699 c -0.008 0.008 -0.016 0.012 -0.02 0.012 c -0.008 0.004 -0.016 0.004 -0.023 0.004 c -0.016 0 -0.027 0 -0.035 -0.008 c -0.004 -0.008 -0.008 -0.016 -0.008 -0.023 c 0 -0.008 0 -0.012 0.004 -0.016 c 0 -0.004 0.004 -0.008 0.008 -0.012 c 0.008 -0.004 0.012 -0.004 0.016 -0.008 c 0.004 0 0.012 0 0.02 0 c 0.02 -0.004 0.031 -0.004 0.039 -0.008 c 0 -0.004 0 -0.004 0 -0.004 c 0 -0.008 0 -0.016 -0.004 -0.02 c -0.008 -0.004 -0.016 -0.004 -0.027 -0.004 c -0.008 0 -0.016 0 -0.02 0.004 c -0.008 0.004 -0.012 0.008 -0.012 0.016 h -0.02 c 0 -0.012 0.004 -0.016 0.008 -0.023 c 0.004 -0.004 0.012 -0.008 0.02 -0.012 c 0.008 0 0.016 -0.004 0.027 -0.004 c 0.012 0 0.02 0.004 0.027 0.004 c 0.008 0.004 0.012 0.008 0.016 0.012 c 0 0 0.004 0.008 0.004 0.012 c 0 0.004 0.004 0.008 0.004 0.02 v 0.023 c 0 0.02 0 0.031 0 0.035 c 0 0.004 0.004 0.012 0.004 0.016 h -0.02 c -0.004 -0.004 -0.004 -0.012 -0.004 -0.016 m -0.004 -0.043 c -0.008 0.004 -0.02 0.004 -0.035 0.008 c -0.008 0 -0.016 0 -0.02 0.004 c -0.004 0 -0.004 0.004 -0.008 0.004 c 0 0.004 -0.004 0.008 -0.004 0.012 c 0 0.004 0.004 0.008 0.008 0.012 c 0.004 0.004 0.012 0.004 0.02 0.004 c 0.008 0 0.016 0 0.023 -0.004 c 0.004 -0.004 0.008 -0.008 0.012 -0.012 c 0.004 -0.004 0.004 -0.012 0.004 -0.02 v -0.008"/><path d="m 8.254 16.711 v -0.098 h -0.02 v -0.016 h 0.02 v -0.012 c 0 -0.008 0 -0.016 0.004 -0.02 c 0 -0.004 0.004 -0.008 0.012 -0.012 c 0.004 -0.004 0.012 -0.004 0.02 -0.004 c 0.008 0 0.012 0 0.02 0 l -0.004 0.02 c -0.004 0 -0.008 -0.004 -0.012 -0.004 c -0.004 0 -0.012 0.004 -0.012 0.004 c -0.004 0.004 -0.004 0.008 -0.004 0.016 v 0.012 h 0.023 v 0.016 h -0.023 v 0.102 h -0.023"/><path d="m 8.402 16.676 l 0.023 0.004 c -0.004 0.012 -0.012 0.02 -0.02 0.027 c -0.008 0.004 -0.023 0.008 -0.035 0.008 c -0.02 0 -0.035 -0.004 -0.047 -0.016 c -0.008 -0.012 -0.016 -0.023 -0.016 -0.043 c 0 -0.02 0.008 -0.035 0.016 -0.047 c 0.012 -0.008 0.027 -0.016 0.043 -0.016 c 0.02 0 0.031 0.004 0.043 0.016 c 0.012 0.012 0.016 0.027 0.016 0.047 c 0 0 0 0 0 0.004 h -0.094 c 0 0.012 0.004 0.023 0.012 0.027 c 0.008 0.008 0.016 0.012 0.027 0.012 c 0.008 0 0.012 0 0.02 -0.004 c 0.004 -0.004 0.008 -0.012 0.012 -0.02 m -0.07 -0.031 h 0.07 c 0 -0.012 -0.004 -0.02 -0.008 -0.023 c -0.008 -0.008 -0.016 -0.012 -0.027 -0.012 c -0.008 0 -0.016 0.004 -0.023 0.012 c -0.008 0.004 -0.012 0.012 -0.012 0.023"/><path d="m 8.52 16.758 v -0.16 h 0.02 v 0.016 c 0.004 -0.008 0.012 -0.012 0.016 -0.016 c 0.008 0 0.012 -0.004 0.02 -0.004 c 0.012 0 0.023 0.004 0.031 0.008 c 0.008 0.004 0.012 0.012 0.02 0.023 c 0.004 0.008 0.004 0.02 0.004 0.027 c 0 0.012 0 0.023 -0.008 0.035 c -0.004 0.008 -0.012 0.016 -0.02 0.02 c -0.008 0.008 -0.016 0.008 -0.027 0.008 c -0.008 0 -0.012 0 -0.02 -0.004 c -0.004 -0.004 -0.008 -0.008 -0.012 -0.012 v 0.059 h -0.023 m 0.02 -0.102 c 0 0.016 0.004 0.023 0.012 0.031 c 0.004 0.008 0.012 0.012 0.023 0.012 c 0.008 0 0.016 -0.004 0.023 -0.012 c 0.008 -0.008 0.012 -0.02 0.012 -0.035 c 0 -0.012 -0.004 -0.023 -0.012 -0.031 c -0.008 -0.008 -0.016 -0.012 -0.023 -0.012 c -0.008 0 -0.02 0.004 -0.023 0.012 c -0.008 0.008 -0.012 0.02 -0.012 0.035"/><path d="m 8.656 16.711 v -0.156 h 0.02 v 0.156 h -0.02"/><path d="m 8.793 16.699 c -0.008 0.008 -0.016 0.012 -0.023 0.012 c -0.008 0.004 -0.016 0.004 -0.023 0.004 c -0.016 0 -0.023 0 -0.031 -0.008 c -0.008 -0.008 -0.012 -0.016 -0.012 -0.023 c 0 -0.008 0 -0.012 0.004 -0.016 c 0.004 -0.004 0.008 -0.008 0.012 -0.012 c 0.004 -0.004 0.008 -0.004 0.016 -0.008 c 0.004 0 0.008 0 0.016 0 c 0.02 -0.004 0.031 -0.004 0.039 -0.008 c 0 -0.004 0 -0.004 0 -0.004 c 0 -0.008 0 -0.016 -0.004 -0.02 c -0.008 -0.004 -0.016 -0.004 -0.023 -0.004 c -0.012 0 -0.02 0 -0.023 0.004 c -0.004 0.004 -0.008 0.008 -0.012 0.016 h -0.02 c 0 -0.012 0.004 -0.016 0.008 -0.023 c 0.004 -0.004 0.012 -0.008 0.02 -0.012 c 0.008 0 0.02 -0.004 0.027 -0.004 c 0.012 0 0.02 0.004 0.027 0.004 c 0.008 0.004 0.012 0.008 0.016 0.012 c 0.004 0 0.004 0.008 0.008 0.012 c 0 0.004 0 0.008 0 0.02 v 0.023 c 0 0.02 0 0.031 0 0.035 c 0 0.004 0.004 0.012 0.008 0.016 h -0.023 c -0.004 -0.004 -0.004 -0.012 -0.004 -0.016 m -0.004 -0.043 c -0.008 0.004 -0.02 0.004 -0.035 0.008 c -0.008 0 -0.012 0 -0.016 0.004 c -0.004 0 -0.008 0.004 -0.012 0.004 c 0 0.004 0 0.008 0 0.012 c 0 0.004 0 0.008 0.004 0.012 c 0.004 0.004 0.012 0.004 0.02 0.004 c 0.008 0 0.016 0 0.023 -0.004 c 0.004 -0.004 0.012 -0.008 0.012 -0.012 c 0.004 -0.004 0.004 -0.012 0.004 -0.02 v -0.008"/><path d="m 8.926 16.672 h 0.023 c -0.004 0.016 -0.008 0.027 -0.02 0.031 c -0.008 0.008 -0.02 0.012 -0.035 0.012 c -0.016 0 -0.031 -0.004 -0.039 -0.016 c -0.012 -0.008 -0.016 -0.023 -0.016 -0.043 c 0 -0.012 0 -0.023 0.004 -0.031 c 0.008 -0.012 0.012 -0.02 0.023 -0.023 c 0.008 -0.004 0.02 -0.008 0.027 -0.008 c 0.016 0 0.027 0.004 0.035 0.012 c 0.008 0.004 0.016 0.016 0.016 0.027 h -0.02 c -0.004 -0.008 -0.004 -0.012 -0.012 -0.016 c -0.004 -0.004 -0.012 -0.008 -0.016 -0.008 c -0.012 0 -0.02 0.004 -0.027 0.012 c -0.008 0.008 -0.012 0.02 -0.012 0.035 c 0 0.016 0.004 0.027 0.012 0.031 c 0.004 0.008 0.016 0.012 0.023 0.012 c 0.008 0 0.016 0 0.023 -0.008 c 0.004 -0.004 0.008 -0.012 0.008 -0.02"/><path d="m 9.05 16.676 l 0.02 0.004 c -0.004 0.012 -0.008 0.02 -0.02 0.027 c -0.008 0.004 -0.02 0.008 -0.035 0.008 c -0.02 0 -0.031 -0.004 -0.043 -0.016 c -0.012 -0.012 -0.016 -0.023 -0.016 -0.043 c 0 -0.02 0.004 -0.035 0.016 -0.047 c 0.012 -0.008 0.023 -0.016 0.043 -0.016 c 0.016 0 0.031 0.004 0.039 0.016 c 0.012 0.012 0.016 0.027 0.016 0.047 c 0 0 0 0 0 0.004 h -0.094 c 0 0.012 0.004 0.023 0.012 0.027 c 0.008 0.008 0.016 0.012 0.027 0.012 c 0.008 0 0.016 0 0.02 -0.004 c 0.008 -0.004 0.012 -0.012 0.016 -0.02 m -0.07 -0.031 h 0.07 c -0.004 -0.012 -0.004 -0.02 -0.008 -0.023 c -0.008 -0.008 -0.016 -0.012 -0.027 -0.012 c -0.012 0 -0.02 0.004 -0.027 0.012 c -0.004 0.004 -0.008 0.012 -0.008 0.023"/><path d="m 7.05 16.992 h -0.039 l -0.016 -0.035 h -0.066 l -0.016 0.035 h -0.039 l 0.07 -0.16 h 0.035 l 0.07 0.16 m -0.063 -0.063 l -0.027 -0.059 l -0.023 0.059 h 0.051"/><path d="m 7.188 16.992 h -0.031 v -0.016 c -0.004 0.004 -0.008 0.012 -0.016 0.016 c -0.008 0 -0.016 0.004 -0.023 0.004 c -0.012 0 -0.027 -0.008 -0.035 -0.016 c -0.012 -0.012 -0.016 -0.027 -0.016 -0.047 c 0 -0.02 0.004 -0.035 0.016 -0.043 c 0.008 -0.012 0.023 -0.016 0.035 -0.016 c 0.016 0 0.027 0.004 0.039 0.016 v -0.059 h 0.031 v 0.16 m -0.086 -0.059 c 0 0.012 0 0.02 0.004 0.027 c 0.004 0.008 0.012 0.012 0.023 0.012 c 0.008 0 0.012 -0.004 0.02 -0.012 c 0.004 -0.004 0.008 -0.016 0.008 -0.027 c 0 -0.012 -0.004 -0.02 -0.008 -0.027 c -0.004 -0.004 -0.012 -0.008 -0.02 -0.008 c -0.008 0 -0.016 0.004 -0.02 0.008 c -0.008 0.008 -0.008 0.016 -0.008 0.027"/><path d="m 7.219 16.875 h 0.031 v 0.016 c 0.012 -0.012 0.023 -0.016 0.039 -0.016 c 0.008 0 0.016 0 0.02 0.004 c 0.008 0.004 0.012 0.008 0.016 0.012 c 0.008 -0.004 0.012 -0.008 0.02 -0.012 c 0.004 -0.004 0.012 -0.004 0.02 -0.004 c 0.008 0 0.016 0 0.023 0.004 c 0.008 0.004 0.012 0.008 0.016 0.016 c 0 0.004 0.004 0.012 0.004 0.023 v 0.074 h -0.035 v -0.066 c 0 -0.012 0 -0.02 -0.004 -0.023 c -0.004 -0.004 -0.008 -0.004 -0.012 -0.004 c -0.008 0 -0.012 0 -0.016 0.004 c -0.004 0 -0.008 0.004 -0.008 0.012 c -0.004 0.004 -0.004 0.012 -0.004 0.023 v 0.055 h -0.031 v -0.063 c 0 -0.012 -0.004 -0.02 -0.004 -0.023 c 0 -0.004 -0.004 -0.004 -0.004 -0.008 c -0.004 0 -0.008 0 -0.012 0 c -0.004 0 -0.008 0 -0.012 0.004 c -0.004 0 -0.008 0.004 -0.012 0.012 c 0 0.004 0 0.012 0 0.023 v 0.055 h -0.035 v -0.117"/><path d="m 7.438 16.863 v -0.031 h 0.035 v 0.031 h -0.035 m 0 0.129 v -0.113 h 0.035 v 0.113 h -0.035"/><path d="m 7.621 16.992 h -0.035 v -0.059 c 0 -0.012 0 -0.02 0 -0.023 c -0.004 -0.004 -0.004 -0.008 -0.008 -0.008 c -0.004 -0.004 -0.008 -0.004 -0.012 -0.004 c -0.004 0 -0.012 0 -0.016 0.004 c -0.004 0.004 -0.008 0.008 -0.008 0.012 c -0.004 0.004 -0.004 0.012 -0.004 0.027 v 0.051 h -0.035 v -0.117 h 0.031 v 0.02 c 0.012 -0.016 0.027 -0.02 0.043 -0.02 c 0.008 0 0.016 0 0.02 0.004 c 0.008 0 0.012 0.004 0.016 0.008 c 0.004 0.004 0.004 0.008 0.004 0.012 c 0.004 0.008 0.004 0.012 0.004 0.023 v 0.07"/><path d="m 7.656 16.863 v -0.031 h 0.031 v 0.031 h -0.031 m 0 0.129 v -0.113 h 0.031 v 0.113 h -0.031"/><path d="m 7.711 16.961 l 0.031 -0.004 c 0.004 0.004 0.008 0.008 0.012 0.012 c 0.004 0.004 0.008 0.004 0.016 0.004 c 0.012 0 0.016 0 0.02 -0.004 c 0.004 0 0.004 -0.004 0.004 -0.008 c 0 -0.004 0 -0.004 0 -0.004 c -0.004 -0.004 -0.008 -0.004 -0.012 -0.004 c -0.027 -0.008 -0.043 -0.012 -0.051 -0.016 c -0.012 -0.008 -0.016 -0.016 -0.016 -0.027 c 0 -0.008 0.004 -0.02 0.012 -0.023 c 0.012 -0.008 0.023 -0.012 0.043 -0.012 c 0.016 0 0.027 0.004 0.039 0.008 c 0.008 0.004 0.012 0.012 0.016 0.023 l -0.031 0.004 c 0 -0.004 -0.004 -0.008 -0.008 -0.008 c -0.004 -0.004 -0.008 -0.004 -0.016 -0.004 c -0.008 0 -0.016 0 -0.02 0 c -0.004 0.004 -0.004 0.004 -0.004 0.008 c 0 0.004 0 0.004 0.004 0.004 c 0.004 0.004 0.012 0.008 0.031 0.012 c 0.016 0.004 0.031 0.008 0.035 0.012 c 0.008 0.008 0.012 0.016 0.012 0.023 c 0 0.012 -0.004 0.02 -0.016 0.027 c -0.008 0.008 -0.023 0.012 -0.043 0.012 c -0.016 0 -0.027 -0.004 -0.039 -0.008 c -0.012 -0.008 -0.016 -0.016 -0.02 -0.027"/><path d="m 7.914 16.875 v 0.027 h -0.023 v 0.047 c 0 0.008 0 0.012 0.004 0.016 c 0 0 0 0.004 0 0.004 c 0.004 0 0.004 0 0.008 0 c 0.004 0 0.008 0 0.012 -0.004 l 0.004 0.027 c -0.008 0 -0.016 0.004 -0.027 0.004 c -0.004 0 -0.012 -0.004 -0.016 -0.004 c -0.004 0 -0.008 -0.004 -0.012 -0.008 c 0 -0.004 -0.004 -0.008 -0.004 -0.012 c 0 -0.004 0 -0.012 0 -0.02 v -0.051 h -0.016 v -0.027 h 0.016 v -0.02 l 0.031 -0.02 v 0.039 h 0.023"/><path d="m 7.973 16.992 h -0.035 v -0.117 h 0.031 v 0.02 c 0.004 -0.008 0.008 -0.016 0.016 -0.016 c 0.004 -0.004 0.008 -0.004 0.012 -0.004 c 0.008 0 0.016 0 0.023 0.004 l -0.012 0.027 c -0.004 -0.004 -0.012 -0.004 -0.016 -0.004 c -0.004 0 -0.008 0 -0.012 0.004 c -0.004 0 -0.004 0.004 -0.008 0.012 c 0 0.008 -0.004 0.02 -0.004 0.039 v 0.035"/><path d="m 8.06 16.914 l -0.031 -0.008 c 0.004 -0.012 0.008 -0.02 0.02 -0.023 c 0.008 -0.004 0.02 -0.008 0.035 -0.008 c 0.016 0 0.027 0 0.035 0.004 c 0.004 0.004 0.012 0.008 0.016 0.012 c 0 0.008 0.004 0.016 0.004 0.027 v 0.035 c 0 0.012 0 0.02 0 0.023 c 0 0.004 0.004 0.012 0.008 0.016 h -0.035 c 0 0 0 -0.004 -0.004 -0.008 c 0 -0.004 0 -0.004 0 -0.004 c -0.008 0.004 -0.012 0.008 -0.02 0.012 c -0.004 0.004 -0.012 0.004 -0.02 0.004 c -0.012 0 -0.023 -0.004 -0.031 -0.012 c -0.008 -0.004 -0.012 -0.012 -0.012 -0.023 c 0 -0.008 0.004 -0.012 0.004 -0.016 c 0.004 -0.008 0.012 -0.012 0.016 -0.012 c 0.008 -0.004 0.016 -0.008 0.027 -0.008 c 0.016 -0.004 0.027 -0.008 0.031 -0.008 v -0.004 c 0 -0.004 0 -0.012 -0.004 -0.012 c -0.004 -0.004 -0.008 -0.004 -0.02 -0.004 c -0.004 0 -0.008 0 -0.012 0.004 c -0.004 0 -0.008 0.004 -0.008 0.012 m 0.043 0.023 c -0.004 0 -0.012 0.004 -0.02 0.004 c -0.008 0.004 -0.016 0.004 -0.02 0.004 c -0.004 0.004 -0.004 0.008 -0.004 0.012 c 0 0.004 0 0.008 0.004 0.012 c 0.004 0.004 0.008 0.004 0.012 0.004 c 0.008 0 0.012 0 0.02 -0.004 c 0.004 -0.004 0.008 -0.008 0.008 -0.012 c 0 0 0 -0.008 0 -0.016 v -0.004"/><path d="m 8.227 16.875 v 0.027 h -0.023 v 0.047 c 0 0.008 0 0.012 0 0.016 c 0 0 0.004 0.004 0.004 0.004 c 0 0 0.004 0 0.004 0 c 0.004 0 0.008 0 0.016 -0.004 l 0.004 0.027 c -0.008 0 -0.02 0.004 -0.027 0.004 c -0.008 0 -0.012 -0.004 -0.016 -0.004 c -0.004 0 -0.008 -0.004 -0.012 -0.008 c -0.004 -0.004 -0.004 -0.008 -0.004 -0.012 c 0 -0.004 0 -0.012 0 -0.02 v -0.051 h -0.016 v -0.027 h 0.016 v -0.02 l 0.031 -0.02 v 0.039 h 0.023"/><path d="m 8.242 16.934 c 0 -0.012 0.004 -0.02 0.008 -0.031 c 0.008 -0.008 0.012 -0.016 0.023 -0.02 c 0.012 -0.008 0.023 -0.008 0.035 -0.008 c 0.02 0 0.035 0.004 0.047 0.016 c 0.012 0.012 0.016 0.027 0.016 0.043 c 0 0.02 -0.004 0.031 -0.016 0.043 c -0.016 0.012 -0.027 0.02 -0.047 0.02 c -0.012 0 -0.023 -0.004 -0.035 -0.008 c -0.008 -0.004 -0.016 -0.012 -0.023 -0.02 c -0.004 -0.012 -0.008 -0.023 -0.008 -0.035 m 0.035 0 c 0 0.012 0.004 0.023 0.008 0.027 c 0.008 0.008 0.016 0.008 0.023 0.008 c 0.008 0 0.016 0 0.02 -0.008 c 0.008 -0.004 0.012 -0.016 0.012 -0.027 c 0 -0.012 -0.004 -0.02 -0.012 -0.023 c -0.004 -0.008 -0.012 -0.012 -0.02 -0.012 c -0.012 0 -0.016 0.004 -0.023 0.012 c -0.004 0.004 -0.008 0.012 -0.008 0.023"/><path d="m 8.43 16.992 h -0.031 v -0.117 h 0.031 v 0.02 c 0.004 -0.008 0.008 -0.016 0.012 -0.016 c 0.004 -0.004 0.012 -0.004 0.016 -0.004 c 0.008 0 0.016 0 0.023 0.004 l -0.012 0.027 c -0.008 -0.004 -0.012 -0.004 -0.016 -0.004 c -0.004 0 -0.008 0 -0.012 0.004 c -0.004 0 -0.008 0.004 -0.008 0.012 c -0.004 0.008 -0.004 0.02 -0.004 0.039 v 0.035"/><path d="m 8.48 16.961 l 0.035 -0.004 c 0 0.004 0.004 0.008 0.008 0.012 c 0.004 0.004 0.012 0.004 0.02 0.004 c 0.008 0 0.016 0 0.02 -0.004 c 0 0 0.004 -0.004 0.004 -0.008 c 0 -0.004 0 -0.004 -0.004 -0.004 c 0 -0.004 -0.004 -0.004 -0.012 -0.004 c -0.027 -0.008 -0.043 -0.012 -0.051 -0.016 c -0.008 -0.008 -0.016 -0.016 -0.016 -0.027 c 0 -0.008 0.008 -0.02 0.016 -0.023 c 0.008 -0.008 0.02 -0.012 0.039 -0.012 c 0.016 0 0.031 0.004 0.039 0.008 c 0.008 0.004 0.012 0.012 0.016 0.023 l -0.031 0.004 c 0 -0.004 -0.004 -0.008 -0.008 -0.008 c -0.004 -0.004 -0.008 -0.004 -0.016 -0.004 c -0.008 0 -0.016 0 -0.02 0 c 0 0.004 -0.004 0.004 -0.004 0.008 c 0 0.004 0.004 0.004 0.004 0.004 c 0.004 0.004 0.016 0.008 0.031 0.012 c 0.02 0.004 0.031 0.008 0.039 0.012 c 0.008 0.008 0.008 0.016 0.008 0.023 c 0 0.012 -0.004 0.02 -0.012 0.027 c -0.012 0.008 -0.023 0.012 -0.043 0.012 c -0.02 0 -0.031 -0.004 -0.043 -0.008 c -0.008 -0.008 -0.016 -0.016 -0.02 -0.027"/><path d="m 8.688 16.934 c 0 -0.012 0.004 -0.02 0.008 -0.031 c 0.008 -0.008 0.016 -0.016 0.023 -0.02 c 0.012 -0.008 0.023 -0.008 0.035 -0.008 c 0.02 0 0.035 0.004 0.047 0.016 c 0.012 0.012 0.02 0.027 0.02 0.043 c 0 0.02 -0.008 0.031 -0.02 0.043 c -0.012 0.012 -0.027 0.02 -0.047 0.02 c -0.012 0 -0.023 -0.004 -0.031 -0.008 c -0.012 -0.004 -0.02 -0.012 -0.027 -0.02 c -0.004 -0.012 -0.008 -0.023 -0.008 -0.035 m 0.035 0 c 0 0.012 0.004 0.023 0.008 0.027 c 0.008 0.008 0.016 0.008 0.023 0.008 c 0.008 0 0.016 0 0.023 -0.008 c 0.004 -0.004 0.008 -0.016 0.008 -0.027 c 0 -0.012 -0.004 -0.02 -0.008 -0.023 c -0.008 -0.008 -0.016 -0.012 -0.023 -0.012 c -0.008 0 -0.016 0.004 -0.023 0.012 c -0.004 0.004 -0.008 0.012 -0.008 0.023"/><path d="m 8.961 16.992 h -0.035 v -0.059 c 0 -0.012 0 -0.02 0 -0.023 c -0.004 -0.004 -0.004 -0.008 -0.008 -0.008 c -0.004 -0.004 -0.008 -0.004 -0.012 -0.004 c -0.008 0 -0.012 0 -0.016 0.004 c -0.004 0.004 -0.008 0.008 -0.012 0.012 c 0 0.004 0 0.012 0 0.027 v 0.051 h -0.035 v -0.117 h 0.031 v 0.02 c 0.012 -0.016 0.027 -0.02 0.043 -0.02 c 0.008 0 0.012 0 0.02 0.004 c 0.008 0 0.012 0.004 0.016 0.008 c 0 0.004 0.004 0.008 0.004 0.012 c 0.004 0.008 0.004 0.012 0.004 0.023 v 0.07"/><path d="m 8.992 16.992 v -0.16 h 0.035 v 0.16 h -0.035"/><path d="m 9.05 16.875 h 0.035 l 0.027 0.082 l 0.031 -0.082 h 0.035 l -0.047 0.113 l -0.008 0.02 c 0 0.008 -0.004 0.012 -0.008 0.016 c 0 0.004 -0.004 0.008 -0.008 0.008 c -0.004 0.004 -0.008 0.004 -0.012 0.008 c -0.008 0 -0.012 0 -0.02 0 c -0.004 0 -0.012 0 -0.02 0 v -0.027 c 0.004 0.004 0.008 0.004 0.012 0.004 c 0.008 0 0.016 -0.004 0.02 -0.008 c 0.004 -0.004 0.004 -0.008 0.008 -0.016 l -0.047 -0.117"/><path d="m 6.887 16.215 l 0.051 -0.004 c 0.004 0.008 0.004 0.012 0.008 0.016 c 0.008 0.008 0.016 0.012 0.023 0.012 c 0.008 0 0.016 -0.004 0.02 -0.004 c 0.004 -0.004 0.004 -0.008 0.004 -0.012 c 0 -0.004 0 -0.008 -0.004 -0.012 c -0.004 -0.004 -0.012 -0.008 -0.027 -0.012 c -0.023 -0.004 -0.039 -0.008 -0.051 -0.02 c -0.012 -0.008 -0.016 -0.016 -0.016 -0.027 c 0 -0.012 0.004 -0.016 0.008 -0.023 c 0.004 -0.008 0.012 -0.016 0.023 -0.02 c 0.012 -0.004 0.023 -0.004 0.043 -0.004 c 0.023 0 0.039 0.004 0.051 0.012 c 0.012 0.008 0.02 0.02 0.02 0.035 l -0.051 0.004 c 0 -0.008 -0.004 -0.016 -0.008 -0.016 c -0.004 -0.004 -0.008 -0.008 -0.016 -0.008 c -0.008 0 -0.012 0.004 -0.016 0.004 c -0.004 0.004 -0.004 0.008 -0.004 0.008 c 0 0.004 0 0.008 0.004 0.008 c 0 0.004 0.008 0.004 0.016 0.008 c 0.023 0.004 0.043 0.008 0.051 0.012 c 0.012 0.008 0.02 0.012 0.023 0.02 c 0.004 0.008 0.008 0.016 0.008 0.023 c 0 0.012 -0.004 0.02 -0.012 0.027 c -0.004 0.008 -0.012 0.016 -0.023 0.02 c -0.012 0.004 -0.027 0.008 -0.043 0.008 c -0.031 0 -0.051 -0.004 -0.063 -0.016 c -0.012 -0.012 -0.016 -0.023 -0.02 -0.039"/><path d="m 7.07 16.211 c 0 -0.02 0.004 -0.035 0.02 -0.047 c 0.012 -0.012 0.027 -0.016 0.051 -0.016 c 0.027 0 0.043 0.008 0.059 0.02 c 0.008 0.012 0.016 0.023 0.016 0.039 c 0 0.02 -0.008 0.035 -0.02 0.047 c -0.016 0.008 -0.031 0.016 -0.055 0.016 c -0.02 0 -0.035 -0.004 -0.047 -0.016 c -0.016 -0.012 -0.023 -0.027 -0.023 -0.043 m 0.047 0 c 0 0.008 0.004 0.016 0.008 0.02 c 0.004 0.008 0.008 0.008 0.016 0.008 c 0.008 0 0.012 0 0.02 -0.008 c 0.004 -0.004 0.004 -0.012 0.004 -0.023 c 0 -0.008 0 -0.016 -0.004 -0.02 c -0.008 -0.008 -0.012 -0.008 -0.02 -0.008 c -0.008 0 -0.012 0 -0.016 0.008 c -0.004 0.004 -0.008 0.012 -0.008 0.023"/><path d="m 7.285 16.15 h 0.023 v 0.031 h -0.023 v 0.082 h -0.047 v -0.082 h -0.02 v -0.031 h 0.02 v -0.008 c 0 -0.004 0 -0.008 0 -0.016 c 0.004 -0.004 0.004 -0.008 0.008 -0.012 c 0.004 -0.004 0.008 -0.008 0.012 -0.008 c 0.008 -0.004 0.016 -0.004 0.023 -0.004 c 0.012 0 0.023 0 0.039 0 l -0.004 0.027 c -0.008 0 -0.012 0 -0.016 0 c -0.004 0 -0.008 0 -0.008 0 c -0.004 0.004 -0.004 0.004 -0.004 0.008 c -0.004 0 -0.004 0.004 -0.004 0.012"/><path d="m 7.387 16.11 v 0.047 h 0.027 v 0.031 h -0.027 v 0.039 c 0 0.008 0 0.008 0 0.012 c 0.004 0.004 0.004 0.004 0.008 0.004 c 0.004 0 0.012 0 0.016 -0.004 l 0.004 0.031 c -0.012 0.004 -0.023 0.004 -0.035 0.004 c -0.012 0 -0.02 0 -0.023 -0.004 c -0.008 -0.004 -0.012 -0.008 -0.016 -0.012 c 0 -0.008 -0.004 -0.016 -0.004 -0.031 v -0.039 h -0.016 v -0.031 h 0.016 v -0.023 l 0.051 -0.023"/><path d="m 7.422 16.15 h 0.047 l 0.02 0.07 l 0.027 -0.07 h 0.043 l 0.027 0.07 l 0.02 -0.07 h 0.047 l -0.047 0.113 h -0.043 l -0.027 -0.066 l -0.023 0.066 h -0.043 l -0.047 -0.113"/><path d="m 7.707 16.188 l -0.047 -0.004 c 0 -0.008 0.004 -0.012 0.008 -0.016 c 0.004 -0.008 0.008 -0.008 0.012 -0.012 c 0.008 -0.004 0.012 -0.004 0.02 -0.008 c 0.008 0 0.016 0 0.027 0 c 0.012 0 0.023 0 0.031 0 c 0.012 0.004 0.02 0.008 0.023 0.012 c 0.004 0.004 0.008 0.008 0.012 0.012 c 0 0.008 0 0.012 0 0.02 v 0.051 c 0 0.004 0.004 0.008 0.004 0.012 c 0 0.004 0 0.008 0.004 0.012 h -0.047 c 0 -0.004 0 -0.004 -0.004 -0.004 c 0 -0.004 0 -0.008 0 -0.008 c -0.008 0.004 -0.012 0.008 -0.02 0.012 c -0.008 0 -0.016 0.004 -0.027 0.004 c -0.016 0 -0.027 -0.004 -0.035 -0.012 c -0.008 -0.004 -0.012 -0.012 -0.012 -0.023 c 0 -0.008 0.004 -0.016 0.008 -0.02 c 0.004 -0.008 0.016 -0.012 0.031 -0.012 c 0.02 -0.004 0.031 -0.008 0.035 -0.008 c 0.004 -0.004 0.012 -0.004 0.016 -0.008 c 0 -0.004 0 -0.008 -0.004 -0.012 c 0 0 -0.004 0 -0.012 0 c -0.008 0 -0.012 0 -0.016 0.004 c -0.004 0 -0.008 0.004 -0.008 0.008 m 0.039 0.023 c -0.004 0.004 -0.012 0.004 -0.02 0.008 c -0.008 0 -0.016 0.004 -0.02 0.004 c 0 0.004 -0.004 0.008 -0.004 0.012 c 0 0 0.004 0.004 0.004 0.008 c 0.004 0 0.008 0.004 0.012 0.004 c 0.008 0 0.012 -0.004 0.016 -0.004 c 0.004 -0.004 0.008 -0.008 0.012 -0.012 c 0 0 0 -0.008 0 -0.012 v -0.008"/><path d="m 7.824 16.15 h 0.047 v 0.02 c 0.004 -0.012 0.008 -0.016 0.012 -0.02 c 0.004 -0.004 0.012 -0.004 0.02 -0.004 c 0.004 0 0.012 0.004 0.023 0.008 l -0.016 0.031 c -0.008 -0.004 -0.012 -0.004 -0.016 -0.004 c -0.004 0 -0.012 0 -0.012 0.008 c -0.008 0.004 -0.008 0.02 -0.008 0.035 v 0.039 h -0.051 v -0.113"/><path d="m 8.08 16.219 h -0.098 c 0 0.008 0 0.012 0.004 0.016 c 0.008 0.008 0.012 0.008 0.02 0.008 c 0.004 0 0.008 0 0.016 -0.004 c 0 0 0.004 -0.004 0.008 -0.004 l 0.047 0.004 c -0.008 0.012 -0.016 0.02 -0.027 0.023 c -0.012 0.004 -0.023 0.008 -0.043 0.008 c -0.02 0 -0.031 -0.004 -0.039 -0.008 c -0.012 -0.004 -0.02 -0.012 -0.023 -0.02 c -0.008 -0.008 -0.012 -0.02 -0.012 -0.031 c 0 -0.02 0.008 -0.035 0.02 -0.047 c 0.012 -0.012 0.031 -0.016 0.051 -0.016 c 0.02 0 0.035 0.004 0.043 0.008 c 0.012 0.004 0.02 0.012 0.023 0.02 c 0.008 0.012 0.012 0.023 0.012 0.039 v 0.004 m -0.051 -0.02 c 0 -0.008 -0.004 -0.016 -0.008 -0.02 c -0.004 -0.004 -0.008 -0.004 -0.016 -0.004 c -0.008 0 -0.016 0 -0.02 0.008 c -0.004 0.004 -0.004 0.008 -0.004 0.016 h 0.047"/><path d="m 8.18 16.15 h 0.047 v 0.016 c 0.008 -0.008 0.012 -0.012 0.02 -0.016 c 0.008 -0.004 0.016 -0.004 0.023 -0.004 c 0.012 0 0.02 0 0.023 0.004 c 0.008 0.004 0.012 0.008 0.016 0.016 c 0.008 -0.008 0.016 -0.012 0.02 -0.016 c 0.008 -0.004 0.016 -0.004 0.023 -0.004 c 0.016 0 0.023 0.004 0.031 0.012 c 0.008 0.008 0.012 0.02 0.012 0.035 v 0.07 h -0.047 v -0.063 c 0 -0.008 -0.004 -0.012 -0.004 -0.012 c -0.004 -0.004 -0.008 -0.008 -0.012 -0.008 c -0.008 0 -0.012 0.004 -0.016 0.004 c -0.004 0.004 -0.004 0.012 -0.004 0.02 v 0.059 h -0.051 v -0.063 c 0 -0.004 0 -0.008 0 -0.012 c 0 0 -0.004 -0.004 -0.004 -0.004 c -0.004 -0.004 -0.008 -0.004 -0.008 -0.004 c -0.008 0 -0.012 0 -0.016 0.004 c -0.004 0.004 -0.004 0.012 -0.004 0.02 v 0.059 h -0.051 v -0.113"/><path d="m 8.469 16.188 l -0.047 -0.004 c 0 -0.008 0.004 -0.012 0.008 -0.016 c 0.004 -0.008 0.008 -0.008 0.012 -0.012 c 0.008 -0.004 0.012 -0.004 0.02 -0.008 c 0.008 0 0.016 0 0.027 0 c 0.012 0 0.023 0 0.031 0 c 0.012 0.004 0.02 0.008 0.023 0.012 c 0.004 0.004 0.008 0.008 0.012 0.012 c 0 0.008 0 0.012 0 0.02 v 0.051 c 0 0.004 0.004 0.008 0.004 0.012 c 0 0.004 0 0.008 0.004 0.012 h -0.047 c 0 -0.004 0 -0.004 0 -0.004 c -0.004 -0.004 -0.004 -0.008 -0.004 -0.008 c -0.008 0.004 -0.012 0.008 -0.02 0.012 c -0.008 0 -0.016 0.004 -0.027 0.004 c -0.016 0 -0.027 -0.004 -0.035 -0.012 c -0.008 -0.004 -0.012 -0.012 -0.012 -0.023 c 0 -0.008 0.004 -0.016 0.008 -0.02 c 0.004 -0.008 0.016 -0.012 0.031 -0.012 c 0.02 -0.004 0.031 -0.008 0.035 -0.008 c 0.004 -0.004 0.012 -0.004 0.016 -0.008 c 0 -0.004 0 -0.008 -0.004 -0.012 c 0 0 -0.004 0 -0.012 0 c -0.008 0 -0.012 0 -0.016 0.004 c -0.004 0 -0.008 0.004 -0.008 0.008 m 0.039 0.023 c -0.004 0.004 -0.012 0.004 -0.02 0.008 c -0.008 0 -0.016 0.004 -0.02 0.004 c 0 0.004 -0.004 0.008 -0.004 0.012 c 0 0 0.004 0.004 0.004 0.008 c 0.004 0 0.008 0.004 0.012 0.004 c 0.008 0 0.012 -0.004 0.016 -0.004 c 0.004 -0.004 0.008 -0.008 0.012 -0.012 c 0 0 0 -0.008 0 -0.012 v -0.008"/><path d="m 8.586 16.15 h 0.047 v 0.02 c 0.004 -0.008 0.012 -0.016 0.02 -0.02 c 0.008 -0.004 0.016 -0.004 0.023 -0.004 c 0.016 0 0.023 0.004 0.031 0.012 c 0.008 0.008 0.012 0.02 0.012 0.031 v 0.074 h -0.047 v -0.063 c 0 -0.008 -0.004 -0.012 -0.004 -0.016 c -0.004 -0.004 -0.008 -0.004 -0.016 -0.004 c -0.004 0 -0.008 0 -0.012 0.004 c -0.004 0.004 -0.008 0.012 -0.008 0.023 v 0.055 h -0.047 v -0.113"/><path d="m 8.793 16.188 l -0.047 -0.004 c 0.004 -0.008 0.004 -0.012 0.008 -0.016 c 0.004 -0.008 0.008 -0.008 0.016 -0.012 c 0.004 -0.004 0.008 -0.004 0.016 -0.008 c 0.008 0 0.016 0 0.027 0 c 0.012 0 0.023 0 0.035 0 c 0.008 0.004 0.016 0.008 0.02 0.012 c 0.004 0.004 0.008 0.008 0.012 0.012 c 0 0.008 0.004 0.012 0.004 0.02 v 0.051 c 0 0.004 0 0.008 0 0.012 c 0 0.004 0.004 0.008 0.004 0.012 h -0.043 c -0.004 -0.004 -0.004 -0.004 -0.004 -0.004 c 0 -0.004 -0.004 -0.008 -0.004 -0.008 c -0.004 0.004 -0.012 0.008 -0.016 0.012 c -0.012 0 -0.02 0.004 -0.031 0.004 c -0.016 0 -0.027 -0.004 -0.035 -0.012 c -0.008 -0.004 -0.012 -0.012 -0.012 -0.023 c 0 -0.008 0.004 -0.016 0.008 -0.02 c 0.008 -0.008 0.016 -0.012 0.031 -0.012 c 0.02 -0.004 0.031 -0.008 0.035 -0.008 c 0.008 -0.004 0.012 -0.004 0.02 -0.008 c 0 -0.004 -0.004 -0.008 -0.004 -0.012 c -0.004 0 -0.008 0 -0.016 0 c -0.008 0 -0.012 0 -0.016 0.004 c -0.004 0 -0.008 0.004 -0.008 0.008 m 0.043 0.023 c -0.008 0.004 -0.016 0.004 -0.023 0.008 c -0.008 0 -0.016 0.004 -0.016 0.004 c -0.004 0.004 -0.008 0.008 -0.008 0.012 c 0 0 0.004 0.004 0.004 0.008 c 0.004 0 0.008 0.004 0.016 0.004 c 0.004 0 0.008 -0.004 0.012 -0.004 c 0.008 -0.004 0.008 -0.008 0.012 -0.012 c 0 0 0.004 -0.008 0.004 -0.012 v -0.008"/><path d="m 9 16.15 h 0.043 v 0.113 c 0 0.008 0 0.016 -0.004 0.02 c -0.004 0.008 -0.008 0.012 -0.012 0.016 c -0.008 0.004 -0.016 0.008 -0.023 0.012 c -0.008 0 -0.016 0 -0.027 0 c -0.027 0 -0.043 0 -0.055 -0.008 c -0.008 -0.008 -0.012 -0.016 -0.012 -0.027 c 0 -0.004 0 -0.004 0 -0.008 l 0.047 0.004 c 0 0.004 0.004 0.008 0.004 0.008 c 0.004 0.004 0.008 0.004 0.016 0.004 c 0.004 0 0.012 0 0.016 -0.004 c 0.004 -0.004 0.004 -0.008 0.004 -0.02 v -0.016 c -0.004 0.004 -0.008 0.008 -0.016 0.012 c -0.008 0.004 -0.016 0.004 -0.023 0.004 c -0.016 0 -0.031 -0.008 -0.039 -0.02 c -0.008 -0.008 -0.012 -0.023 -0.012 -0.039 c 0 -0.016 0.004 -0.031 0.012 -0.039 c 0.012 -0.012 0.023 -0.016 0.039 -0.016 c 0.012 0 0.02 0 0.023 0.004 c 0.008 0.004 0.012 0.008 0.02 0.016 v -0.016 m -0.047 0.055 c 0 0.008 0.004 0.016 0.008 0.02 c 0.004 0.004 0.008 0.004 0.016 0.004 c 0.004 0 0.008 0 0.012 -0.004 c 0.004 -0.004 0.008 -0.012 0.008 -0.02 c 0 -0.008 -0.004 -0.016 -0.008 -0.02 c -0.004 -0.004 -0.008 -0.008 -0.016 -0.008 c -0.004 0 -0.012 0.004 -0.012 0.008 c -0.004 0.004 -0.008 0.012 -0.008 0.02"/><path d="m 9.219 16.219 h -0.098 c 0 0.008 0.004 0.012 0.004 0.016 c 0.008 0.008 0.012 0.008 0.02 0.008 c 0.004 0 0.012 0 0.016 -0.004 c 0 0 0.004 -0.004 0.008 -0.004 l 0.047 0.004 c -0.008 0.012 -0.016 0.02 -0.027 0.023 c -0.008 0.004 -0.023 0.008 -0.043 0.008 c -0.016 0 -0.031 -0.004 -0.039 -0.008 c -0.012 -0.004 -0.02 -0.012 -0.023 -0.02 c -0.008 -0.008 -0.012 -0.02 -0.012 -0.031 c 0 -0.02 0.008 -0.035 0.02 -0.047 c 0.012 -0.012 0.031 -0.016 0.055 -0.016 c 0.016 0 0.031 0.004 0.039 0.008 c 0.012 0.004 0.02 0.012 0.027 0.02 c 0.004 0.012 0.008 0.023 0.008 0.039 v 0.004 m -0.051 -0.02 c 0 -0.008 -0.004 -0.016 -0.008 -0.02 c -0.004 -0.004 -0.008 -0.004 -0.016 -0.004 c -0.008 0 -0.012 0 -0.02 0.008 c 0 0.004 -0.004 0.008 -0.004 0.016 h 0.047"/><path d="m 9.242 16.15 h 0.043 v 0.02 c 0.004 -0.012 0.008 -0.016 0.016 -0.02 c 0.004 -0.004 0.008 -0.004 0.016 -0.004 c 0.008 0 0.016 0.004 0.023 0.008 l -0.016 0.031 c -0.004 -0.004 -0.012 -0.004 -0.012 -0.004 c -0.008 0 -0.012 0 -0.016 0.008 c -0.004 0.004 -0.008 0.02 -0.008 0.035 v 0.039 h -0.051 v -0.113"/></g><path d="m 11.266 10.488 h 1.938 v 0.262 h -1.938" fill="#b4a287" fill-rule="evenodd"/><g fill="#876a49"><path d="m 13.875 13.418 h 4.738 v 0.824 h -4.738"/><path d="m 13.875 14.906 h 4.738 v 0.828 h -4.738"/><path d="m 13.875 16.395 h 4.738 v 0.828 h -4.738"/></g><path d="m 5.445 17.965 c 6.797 -0.309 6.797 -0.309 13.598 0" fill-opacity="0.502"/></svg>