<svg xmlns="http://www.w3.org/2000/svg" viewBox="0 0 24 24"><path d="m 9.402 23.938 c -1.41 -0.125 -2.953 -0.484 -4.094 -0.949 c -3.98 -1.625 -5.836 -4.922 -5.113 -9.09 c 0.391 -2.238 1.5 -4.777 3.27 -7.457 c 2.113 -3.203 5.379 -5.629 8.402 -6.242 c 0.637 -0.129 1.844 -0.176 2.484 -0.098 c 2.152 0.273 3.945 1.437 5.594 3.637 c 1.57 2.098 2.738 4.238 3.395 6.227 c 1.352 4.09 0.535 7.738 -2.328 10.379 c -2.01 1.855 -4.738 3.039 -8.08 3.512 c -0.5 0.07 -3.01 0.133 -3.527 0.086" fill="#d2d2d2"/><path d="m 8.332 20.457 c -0.773 -0.172 -1.109 -0.598 -0.836 -1.055 c 0.219 -0.375 0.711 -0.527 1.648 -0.516 l 0.711 0.008 l -0.449 -0.348 c -1.32 -1.016 -2.156 -2.883 -2.051 -4.586 l 0.066 -1.066 l -0.445 0.375 c -0.527 0.441 -1.238 0.793 -1.238 0.613 c 0 -0.246 0.926 -1.395 1.688 -2.105 c 0.422 -0.391 1.129 -1.078 1.566 -1.523 l 0.801 -0.809 l -0.375 -0.766 c -0.758 -1.535 -0.102 -3.477 1.43 -4.23 c 0.867 -0.426 2.23 -0.324 3.043 0.234 c 1.23 0.848 1.691 2.641 1.027 3.992 l -0.371 0.754 l 0.66 0.719 c 0.359 0.398 0.984 1.016 1.383 1.375 c 1.703 1.535 2.332 2.922 0.793 1.754 l -0.531 -0.402 l 0.012 1.086 c 0.02 1.855 -0.449 3.082 -1.609 4.215 l -0.715 0.699 l 0.699 0.098 c 1.297 0.188 1.516 1.098 0.367 1.527 c -0.977 0.363 -2.469 -0.105 -2.469 -0.777 c 0 -0.199 -0.195 -0.254 -0.926 -0.254 c -0.508 0 -1.109 -0.059 -1.34 -0.133 c -0.359 -0.117 -0.398 -0.098 -0.301 0.18 c 0.07 0.195 0 0.414 -0.172 0.57 c -0.156 0.141 -0.297 0.254 -0.313 0.254 c -0.02 0 -0.27 0.059 -0.563 0.133 c -0.289 0.07 -0.82 0.063 -1.191 -0.016 m 5.461 -12.441 c 0.238 -0.324 0.227 -0.355 -0.215 -0.453 c -0.258 -0.059 -0.66 -0.027 -0.895 0.07 c -0.289 0.117 -0.574 0.125 -0.879 0.02 c -0.59 -0.203 -1.664 -0.199 -1.664 0.004 c 0 0.273 0.68 0.781 1.184 0.879 c 0.27 0.055 0.57 0.117 0.668 0.141 c 0.395 0.094 1.559 -0.332 1.801 -0.66 m -1.988 -1.508 c 0.578 -0.742 0.184 -1.707 -0.695 -1.707 c -0.469 0 -0.969 0.531 -0.969 1.031 c 0 0.898 1.133 1.359 1.664 0.676 m 2.113 0 c 0.57 -0.734 0.227 -1.707 -0.609 -1.707 c -0.934 0 -1.34 1.129 -0.664 1.863 c 0.289 0.313 0.973 0.23 1.273 -0.156" fill="#fff" fill-opacity="0.988"/></svg>