<svg xmlns="http://www.w3.org/2000/svg" xmlns:xlink="http://www.w3.org/1999/xlink" viewBox="0 0 24 24"><defs><g id="3" clip-path="url(#2)"><path d="m 6.094 8.25 v 1.91 h 5.602 c 0.414 0 0.746 0.355 0.746 0.793 v 3.18 c 0 0.441 -0.332 0.797 -0.746 0.797 h -4.109 v -3.867 h -1.492 v 5.773 h 6.723 c 0.617 0 1.117 -0.637 1.117 -1.43 v -5.723 c 0 -0.793 -0.5 -1.43 -1.117 -1.43 h -6.723"/><path d="m 15.801 8.25 v 1.91 h 1.496 v -1.91 m -1.496 2.813 v 5.773 h 1.496 v -5.773"/></g><clipPath id="2"><path d="M 0,0 H24 V24 H0 z"/></clipPath><filter id="0" filterUnits="objectBoundingBox" x="0" y="0" width="24" height="24"><feColorMatrix type="matrix" in="SourceGraphic" values="0 0 0 0 1 0 0 0 0 1 0 0 0 0 1 0 0 0 1 0"/></filter><mask id="1"><g filter="url(#0)"><path fill-opacity="0.2" d="M 0,0 H24 V24 H0 z"/></g></mask></defs><path d="m 2.773 4.379 c -5.836 8.98 -1.129 17.16 5.48 19.1 c 8.891 2.609 20.965 -4.25 13.01 -18.387 c -3.16 -5.617 -14.328 -7.102 -18.488 -0.711" fill="#59a6d0"/><use xlink:href="#3" mask="url(#1)"/><g fill="#fff"><path d="m 6.094 7.773 v 1.91 h 5.602 c 0.414 0 0.746 0.352 0.746 0.793 v 3.18 c 0 0.441 -0.332 0.797 -0.746 0.797 h -4.109 v -3.867 h -1.492 v 5.773 h 6.723 c 0.617 0 1.117 -0.637 1.117 -1.43 v -5.723 c 0 -0.793 -0.5 -1.43 -1.117 -1.43 h -6.723"/><path d="m 15.801 7.773 v 1.91 h 1.496 v -1.91 m -1.496 2.813 v 5.773 h 1.496 v -5.773"/></g></svg>