<svg xmlns="http://www.w3.org/2000/svg" viewBox="0 0 24 24"><path d="m 3.789 20.891 c 21.01 13.559 29.14 -23.473 7.527 -20.523 c -8.816 1.203 -15.566 15.34 -7.527 20.523"/><path d="m 65.13 60.08 h 139.17 c 1.083 0 2 0.917 2 2 v 138.79 c 0 1.125 -0.917 2 -2 2 h -139.17 c -1.125 0 -2 -0.875 -2 -2 v -138.79 c 0 -1.083 0.875 -2 2 -2" transform="scale(0.09375)" fill="#ff0" fill-rule="evenodd" stroke="#ff4500" stroke-width="1.645"/><path d="m 6.04 14.781 v -4.082 l 6.363 -0.027 c 3.5 -0.016 6.445 -0.012 6.543 0.008 c 0.16 0.035 0.176 0.203 0.176 1.762 v 1.723 h -0.254 c -0.285 0 -0.355 0.195 -0.078 0.215 c 0.098 0.008 0.215 0.008 0.258 0 c 0.043 -0.004 0.074 0.332 0.074 0.754 c 0 0.75 -0.004 0.766 -0.254 0.766 c -0.141 0 -0.254 0.047 -0.254 0.102 c 0 0.055 0.113 0.102 0.254 0.102 c 0.25 0 0.254 0.02 0.254 0.758 c 0 0.688 -0.02 0.762 -0.207 0.793 c -0.27 0.043 -0.27 0.227 0 0.27 c 0.172 0.027 0.207 0.105 0.207 0.484 v 0.453 h -13.08 v -4.082 m 8.949 3.258 c 0.035 -0.059 0.047 -0.129 0.023 -0.148 c -0.082 -0.082 -1.094 0.082 -1.043 0.168 c 0.078 0.129 0.938 0.109 1.02 -0.02 m 1.273 -0.707 c 0 -0.055 -0.02 -0.102 -0.047 -0.102 c -0.023 0 -0.07 0.047 -0.105 0.102 c -0.035 0.055 -0.016 0.102 0.043 0.102 c 0.059 0 0.109 -0.047 0.109 -0.102 m -7.391 -0.383 c -0.027 -0.098 -0.051 -0.043 -0.051 0.129 c -0.004 0.168 0.02 0.246 0.047 0.18 c 0.027 -0.07 0.031 -0.207 0.004 -0.309 m 7.801 -0.027 c 0 -0.055 -0.023 -0.102 -0.047 -0.102 c -0.023 0 -0.074 0.047 -0.109 0.102 c -0.035 0.059 -0.012 0.105 0.047 0.105 c 0.059 0 0.109 -0.047 0.109 -0.105 m -5.316 -1.586 c 0 -0.148 -0.043 -0.234 -0.102 -0.199 c -0.059 0.035 -0.102 0.152 -0.102 0.262 c 0 0.109 0.043 0.199 0.102 0.199 c 0.055 0 0.102 -0.117 0.102 -0.262 m 6.03 -0.301 c 0 -0.133 -0.047 -0.27 -0.102 -0.305 c -0.063 -0.039 -0.105 0.086 -0.105 0.305 c 0 0.219 0.043 0.344 0.105 0.305 c 0.055 -0.031 0.102 -0.172 0.102 -0.305 m -3.168 -1.531 c 0 -0.734 -0.012 -0.766 -0.242 -0.766 c -0.48 0 -0.781 0.629 -0.535 1.109 c 0.164 0.313 0.289 0.402 0.598 0.414 c 0.156 0.008 0.18 -0.094 0.18 -0.758 m -5.293 -0.152 c 0.023 -0.168 0.004 -0.305 -0.043 -0.305 c -0.043 0 -0.082 0.137 -0.082 0.305 c 0 0.168 0.016 0.305 0.039 0.305 c 0.02 0 0.059 -0.137 0.086 -0.305 m 7.746 -0.203 c 0 -0.059 -0.051 -0.102 -0.109 -0.102 c -0.059 0 -0.078 0.043 -0.047 0.102 c 0.035 0.055 0.086 0.102 0.109 0.102 c 0.027 0 0.047 -0.047 0.047 -0.102 m -4.242 -0.41 c 0.035 -0.055 0.012 -0.102 -0.047 -0.102 c -0.059 0 -0.105 0.047 -0.105 0.102 c 0 0.059 0.02 0.102 0.043 0.102 c 0.023 0 0.074 -0.043 0.109 -0.102 m 3.832 0 c 0 -0.055 -0.047 -0.102 -0.109 -0.102 c -0.059 0 -0.078 0.047 -0.043 0.102 c 0.035 0.059 0.082 0.102 0.105 0.102 c 0.027 0 0.047 -0.043 0.047 -0.102 m -1.387 -0.602 c 0.074 -0.117 -0.184 -0.215 -0.559 -0.215 c -0.313 0 -0.492 0.152 -0.277 0.238 c 0.219 0.09 0.777 0.074 0.836 -0.023 m -1.973 -1.883 c -0.086 -0.102 -0.055 -0.191 0.141 -0.371 l 0.254 -0.242 v 0.375 c 0 0.395 -0.176 0.504 -0.395 0.238 m 0.809 -0.008 c -0.168 -0.203 -0.094 -0.781 0.121 -0.914 c 0.137 -0.086 0.219 -0.07 0.352 0.066 c 0.16 0.16 0.191 0.16 0.355 0.012 c 0.195 -0.176 0.555 -0.113 0.438 0.074 c -0.035 0.059 -0.008 0.219 0.063 0.352 c 0.105 0.195 0.105 0.273 0 0.398 c -0.199 0.242 -0.395 0.188 -0.434 -0.113 c -0.035 -0.316 -0.285 -0.457 -0.285 -0.164 c 0 0.379 -0.383 0.563 -0.609 0.289 m 1.699 0.078 c -0.102 -0.102 -0.082 -0.934 0.023 -0.996 c 0.047 -0.031 0.145 0.012 0.215 0.094 c 0.07 0.082 0.176 0.121 0.238 0.082 c 0.063 -0.039 0.23 -0.07 0.371 -0.07 c 0.207 0 0.266 0.055 0.293 0.281 c 0.066 0.566 -0.059 0.641 -0.445 0.266 l -0.355 -0.344 v 0.266 c 0 0.266 -0.219 0.543 -0.34 0.422 m 1.516 -0.137 c -0.035 -0.055 -0.035 -0.195 0.004 -0.313 c 0.035 -0.113 0.008 -0.273 -0.059 -0.355 c -0.098 -0.113 -0.086 -0.16 0.043 -0.211 c 0.223 -0.082 0.52 0.16 0.375 0.305 c -0.059 0.059 -0.109 0.207 -0.109 0.332 c 0 0.258 -0.152 0.406 -0.254 0.242 m -10.887 -0.313 c 0 -0.266 0.035 -0.309 0.23 -0.281 c 0.262 0.039 0.371 0.375 0.164 0.504 c -0.266 0.168 -0.395 0.094 -0.395 -0.223 m 11.563 -0.027 c -0.09 -0.109 -0.082 -0.172 0.023 -0.258 c 0.109 -0.09 0.168 -0.086 0.258 0.023 c 0.09 0.105 0.086 0.168 -0.023 0.258 c -0.105 0.086 -0.168 0.082 -0.258 -0.023 m -4.664 -0.375 c -0.078 -0.125 0.203 -0.246 0.355 -0.152 c 0.059 0.035 0.082 0.109 0.051 0.16 c -0.078 0.125 -0.324 0.121 -0.406 -0.008 m -6.898 -1.074 c 0 -0.375 0.082 -0.434 0.293 -0.227 c 0.105 0.102 0.156 0.094 0.266 -0.055 c 0.129 -0.172 0.145 -0.172 0.309 -0.008 c 0.141 0.141 0.215 0.152 0.367 0.055 c 0.168 -0.102 0.203 -0.082 0.258 0.141 c 0.035 0.145 0.035 0.289 0 0.328 c -0.039 0.035 -0.391 0.078 -0.781 0.094 l -0.711 0.027 m 5.01 -0.352 c -0.102 -0.125 -0.082 -0.188 0.117 -0.352 c 0.133 -0.113 0.277 -0.203 0.316 -0.207 c 0.191 -0.008 0.055 -0.309 -0.141 -0.309 c -0.18 0 -0.195 -0.023 -0.086 -0.156 c 0.117 -0.141 0.16 -0.133 0.371 0.07 l 0.242 0.223 l -0.23 0.246 c -0.215 0.227 -0.219 0.25 -0.051 0.344 c 0.102 0.059 0.156 0.145 0.121 0.199 c -0.09 0.148 -0.52 0.109 -0.66 -0.059 m 1.434 0.004 c -0.109 -0.133 -0.094 -0.156 0.086 -0.156 c 0.285 0 0.285 -0.281 0 -0.324 c -0.523 -0.078 -0.457 -0.695 0.07 -0.695 c 0.313 0 0.406 0.16 0.176 0.297 c -0.168 0.102 -0.16 0.125 0.074 0.324 l 0.258 0.219 l 0.031 -0.293 c 0.02 -0.16 0.082 -0.352 0.141 -0.422 c 0.148 -0.176 0.539 -0.16 0.699 0.027 c 0.113 0.141 0.145 0.141 0.301 0 c 0.191 -0.172 0.57 -0.207 0.664 -0.059 c 0.031 0.055 -0.023 0.141 -0.121 0.195 c -0.172 0.094 -0.168 0.117 0.047 0.348 l 0.23 0.242 l -0.242 0.227 c -0.211 0.199 -0.254 0.207 -0.367 0.07 c -0.113 -0.133 -0.098 -0.156 0.086 -0.156 c 0.125 0 0.215 -0.066 0.215 -0.152 c 0 -0.086 -0.09 -0.156 -0.195 -0.156 c -0.109 0 -0.23 -0.043 -0.262 -0.102 c -0.125 -0.195 -0.258 -0.098 -0.258 0.184 c 0 0.16 -0.055 0.344 -0.121 0.41 c -0.195 0.191 -0.566 0.141 -0.738 -0.102 l -0.156 -0.223 l -0.242 0.227 c -0.215 0.199 -0.258 0.207 -0.375 0.07 m 1.309 -0.578 c -0.016 -0.133 -0.078 -0.234 -0.137 -0.223 c -0.129 0.027 -0.188 0.301 -0.105 0.512 c 0.094 0.242 0.285 0.012 0.242 -0.289 m 1.563 0.59 c -0.086 -0.109 -0.082 -0.168 0.023 -0.258 c 0.109 -0.09 0.172 -0.082 0.258 0.023 c 0.09 0.105 0.086 0.168 -0.023 0.258 c -0.105 0.09 -0.168 0.082 -0.258 -0.023 m 1.219 -0.012 c -0.109 -0.133 -0.098 -0.156 0.086 -0.156 c 0.125 0 0.219 -0.066 0.219 -0.152 c 0 -0.086 -0.09 -0.156 -0.199 -0.156 c -0.109 0 -0.227 -0.043 -0.262 -0.102 c -0.125 -0.195 -0.242 -0.098 -0.273 0.23 c -0.043 0.438 -0.23 0.383 -0.27 -0.078 c -0.023 -0.281 -0.094 -0.387 -0.289 -0.461 c -0.141 -0.055 -0.227 -0.145 -0.191 -0.199 c 0.098 -0.156 0.523 -0.121 0.668 0.051 c 0.117 0.141 0.148 0.141 0.301 0 c 0.191 -0.172 0.574 -0.207 0.664 -0.059 c 0.031 0.055 -0.023 0.141 -0.121 0.195 c -0.168 0.094 -0.164 0.117 0.051 0.348 l 0.227 0.242 l -0.238 0.227 c -0.215 0.199 -0.258 0.207 -0.371 0.07 m -7.01 -0.09 c -0.031 -0.082 -0.043 -0.324 -0.027 -0.535 c 0.031 -0.359 0.059 -0.391 0.34 -0.391 c 0.238 0 0.316 0.051 0.34 0.227 c 0.043 0.301 0.207 0.285 0.328 -0.039 c 0.055 -0.141 0.145 -0.23 0.203 -0.195 c 0.121 0.074 0.137 0.934 0.016 1.01 c -0.047 0.031 -0.242 -0.105 -0.43 -0.297 c -0.418 -0.434 -0.508 -0.441 -0.508 -0.055 c 0 0.332 -0.172 0.512 -0.262 0.277 m 8.695 -0.477 c -0.078 -0.125 0.203 -0.246 0.355 -0.152 c 0.059 0.035 0.082 0.109 0.047 0.16 c -0.078 0.125 -0.324 0.121 -0.402 -0.008 m -11.906 -1.074 c 0 -0.086 -0.07 -0.184 -0.156 -0.215 c -0.094 -0.035 -0.152 -0.191 -0.152 -0.406 v -0.344 h 13.08 v 1.121 h -6.387 c -5.668 0 -6.387 -0.016 -6.387 -0.156"/><g fill="#a9a9a9" fill-rule="evenodd" stroke="#000" stroke-width="0.595" transform="matrix(0.08435 0 0 0.0831 1.845 1.128)"><path d="m 49.952 164.4 v -48.607 l 20.423 -0.376 c 30.19 -0.517 131.94 -0.423 132.77 0.141 c 1.111 0.705 1.575 7.615 1.621 25.432 v 15.795 h -2.547 c -1.621 0 -2.732 0.282 -3.195 0.799 c -0.926 1.128 0 1.927 2.732 2.303 l 2.223 0.282 l 0.417 4.184 c 0.509 5.03 0.185 11.517 -0.695 12.504 c -0.324 0.423 -1.25 0.752 -2.084 0.752 c -3.149 0 -4.399 1.786 -1.667 2.397 c 4.631 1.034 4.677 1.128 4.724 8.838 c 0.046 7.286 -0.278 8.603 -2.732 9.872 c -2.779 1.457 -2.871 2.256 -0.324 3.291 c 2.547 1.081 3.149 2.538 3.149 7.474 v 3.573 h -154.81 m 105.82 -9.07 c 0.278 -0.188 0.556 -0.94 0.556 -1.692 v -1.316 l -3.612 0.329 c -5.233 0.517 -8.66 1.457 -8.66 2.397 c 0 0.564 0.787 0.846 2.871 1.034 c 2.918 0.282 7.826 -0.141 8.845 -0.752 m 14.958 -8.133 c 0.324 -0.329 0.463 -1.034 0.324 -1.551 c -0.232 -0.799 -0.463 -0.893 -1.25 -0.47 c -0.556 0.282 -0.973 0.987 -0.973 1.551 c 0 1.128 1.019 1.363 1.899 0.47 m -86.88 -3.902 c 0 -0.94 -0.185 -1.88 -0.463 -2.02 c -0.602 -0.376 -1.204 2.115 -0.834 3.385 c 0.509 1.504 1.297 0.658 1.297 -1.363 m 91.97 -1.41 c 0.37 -0.658 0.37 -1.081 -0.093 -1.551 c -0.88 -0.846 -2.501 0.705 -2.038 1.927 c 0.37 1.034 1.343 0.846 2.13 -0.376 m -63.31 -17.393 c 1.065 -2.727 0.278 -5.688 -1.204 -4.466 c -1.019 0.846 -1.389 3.103 -0.834 4.607 c 0.602 1.598 1.436 1.551 2.038 -0.141 m 71.41 -2.774 c 1.25 -2.35 0.093 -7.568 -1.482 -6.581 c -0.648 0.376 -0.834 6.628 -0.232 7.239 c 0.602 0.611 1.158 0.376 1.713 -0.658 m -37.696 -13.586 c 0.834 -1.598 0.926 -13.868 0.185 -15.889 c -1.111 -2.868 -6.854 -1.081 -8.984 2.868 c -1.575 2.868 -1.111 8.133 0.926 11.05 c 2.454 3.479 6.622 4.513 7.873 1.974 m -62.01 -10.11 c 0.185 -1.927 0.093 -2.915 -0.37 -3.197 c -1.019 -0.611 -1.528 0.752 -1.528 3.949 c -0.046 4.936 1.389 4.372 1.899 -0.752 m 91.88 -1.316 c 0 -1.175 -0.695 -2.115 -1.621 -2.115 c -1.111 0 -1.297 1.034 -0.37 1.974 c 0.741 0.705 1.991 0.799 1.991 0.141 m -50.52 -5.312 c 0.463 -0.893 0.463 -1.222 -0.093 -1.551 c -0.88 -0.564 -2.038 0.376 -2.038 1.645 c 0 1.363 1.389 1.269 2.13 -0.094 m 45.522 0.329 c 0.324 -0.893 -1.111 -2.538 -1.806 -2.068 c -0.648 0.423 -0.602 1.457 0.139 2.209 c 0.834 0.846 1.297 0.799 1.667 -0.141 m -16.625 -7.615 c 0.695 -0.705 -0.324 -2.209 -1.852 -2.632 c -2.084 -0.564 -6.622 -0.517 -8.01 0.141 c -1.436 0.658 -1.76 1.692 -0.695 2.35 c 1.899 1.175 9.355 1.269 10.559 0.141"/><path d="m 58.982 68.74 c -4.26 -0.329 -4.26 -0.329 -6.252 -2.632 c -2.501 -2.915 -2.686 -3.338 -2.732 -6.675 l -0.046 -2.727 h 154.86 v 12.504 l -70.76 -0.094 c -38.946 -0.047 -72.71 -0.235 -75.07 -0.376"/></g><path d="m 6.04 16.699 c 0 -2.105 0.008 -2.195 0.199 -2.195 c 0.313 0 0.355 -0.191 0.063 -0.262 l -0.262 -0.066 v -1.309 c 0 -0.949 0.035 -1.32 0.129 -1.359 c 0.105 -0.039 0.105 -0.051 0 -0.059 c -0.074 -0.004 -0.129 -0.145 -0.129 -0.32 v -0.313 l 6.613 0.031 l 6.609 0.031 v 0.273 c 0 0.148 -0.059 0.297 -0.129 0.324 c -0.102 0.039 -0.102 0.051 0 0.059 c 0.07 0.004 0.129 0.121 0.129 0.258 c 0 0.191 -0.063 0.254 -0.273 0.281 c -0.566 0.066 -0.602 0.695 -0.039 0.695 c 0.246 0 0.313 0.043 0.313 0.203 c 0 0.148 -0.066 0.203 -0.258 0.203 c -0.32 0 -0.34 0.18 -0.027 0.223 c 0.176 0.027 0.242 0.113 0.266 0.34 c 0.027 0.289 0.008 0.309 -0.313 0.309 c -0.293 0 -0.34 0.031 -0.34 0.254 c 0 0.215 0.055 0.262 0.336 0.285 c 0.445 0.043 0.445 0.305 0 0.348 c -0.184 0.016 -0.336 0.078 -0.336 0.133 c 0 0.055 0.152 0.117 0.336 0.133 c 0.277 0.027 0.336 0.074 0.336 0.281 c 0 0.207 -0.051 0.25 -0.297 0.25 c -0.164 0 -0.352 0.063 -0.418 0.141 c -0.176 0.211 0.152 0.504 0.473 0.426 c 0.191 -0.047 0.242 -0.02 0.242 0.133 c 0 0.117 -0.094 0.223 -0.23 0.258 c -0.191 0.051 -0.207 0.082 -0.082 0.16 c 0.082 0.051 0.184 0.07 0.23 0.043 c 0.047 -0.027 0.082 0.113 0.082 0.313 c 0 0.352 -0.016 0.363 -0.367 0.363 c -0.324 0 -0.367 0.031 -0.336 0.23 c 0.023 0.176 0.109 0.238 0.367 0.262 c 0.316 0.031 0.336 0.055 0.336 0.434 v 0.402 h -13.223 m 9.664 -0.914 c 0.59 -0.262 1.285 -0.789 1.285 -0.969 c 0 -0.035 0.082 -0.188 0.184 -0.336 c 0.098 -0.148 0.238 -0.434 0.309 -0.633 c 0.145 -0.422 0.172 -1.559 0.039 -1.82 c -0.051 -0.098 -0.164 -0.348 -0.254 -0.555 c -0.328 -0.754 -0.93 -1.254 -2.063 -1.703 c -0.887 -0.352 -2.473 0.098 -3.223 0.918 c -0.559 0.609 -0.879 1.41 -0.879 2.188 c 0 0.363 0.039 0.742 0.086 0.84 c 0.051 0.098 0.195 0.395 0.324 0.664 c 0.336 0.68 0.637 0.969 1.434 1.363 c 0.938 0.469 1.781 0.48 2.758 0.043 m -2.586 -0.453 c -0.941 -0.426 -1.43 -1.16 -1.543 -2.309 c -0.059 -0.598 -0.035 -0.727 0.242 -1.297 c 0.48 -0.996 1.398 -1.563 2.527 -1.559 c 1.105 0 2.066 0.598 2.527 1.574 c 0.316 0.656 0.305 1.668 -0.023 2.355 c -0.289 0.609 -0.559 0.867 -1.266 1.215 c -0.711 0.352 -1.715 0.359 -2.465 0.02 m 1.578 -3.145 c 0.078 -0.074 0.125 -0.434 0.125 -0.91 c 0 -0.766 -0.008 -0.789 -0.285 -0.875 c -0.422 -0.137 -0.711 -0.055 -1 0.289 c -0.395 0.465 -0.32 1.027 0.191 1.438 c 0.254 0.203 0.793 0.238 0.973 0.059 m -4.832 3.707 c 0 -0.129 -0.281 -0.219 -0.465 -0.148 c -0.266 0.098 -0.172 0.238 0.152 0.238 c 0.172 0 0.313 -0.039 0.313 -0.09 m -1.344 -0.113 c 0.223 -0.008 0.539 -0.48 0.621 -0.938 c 0.07 -0.367 0.047 -0.418 -0.258 -0.648 c -0.215 -0.164 -0.469 -0.254 -0.711 -0.254 c -0.43 0 -0.59 -0.211 -0.395 -0.52 c 0.141 -0.223 0.004 -0.336 -0.297 -0.242 c -0.219 0.066 -0.203 0.348 0.035 0.641 c 0.082 0.102 0.039 0.199 -0.168 0.387 c -0.152 0.141 -0.273 0.301 -0.273 0.355 c 0 0.207 0.313 0.211 0.605 0.004 c 0.426 -0.301 0.684 -0.273 0.836 0.086 c 0.25 0.598 -0.141 0.969 -0.719 0.684 c -0.434 -0.211 -0.531 0.004 -0.148 0.313 c 0.184 0.145 0.383 0.219 0.508 0.188 c 0.113 -0.027 0.277 -0.055 0.363 -0.059 m 2.859 -0.055 c 0.031 -0.09 -0.016 -0.238 -0.109 -0.328 c -0.156 -0.156 -0.18 -0.156 -0.336 0 c -0.211 0.207 -0.117 0.488 0.168 0.488 c 0.117 0 0.242 -0.07 0.273 -0.16 m -3.98 -0.789 c -0.133 -0.129 -0.27 -0.027 -0.172 0.129 c 0.039 0.059 0.117 0.082 0.176 0.047 c 0.07 -0.043 0.07 -0.102 -0.004 -0.176 m 1.516 -1.52 c 0.203 -0.199 0.145 -0.289 -0.184 -0.289 c -0.172 0 -0.313 0.039 -0.313 0.082 c 0 0.098 0.223 0.328 0.313 0.328 c 0.031 0 0.117 -0.055 0.184 -0.121 m -0.082 -1.391 c 0 -0.102 0.051 -0.234 0.117 -0.297 c 0.063 -0.063 0.148 -0.301 0.191 -0.527 c 0.066 -0.355 0.043 -0.445 -0.168 -0.641 c -0.137 -0.125 -0.438 -0.254 -0.684 -0.285 c -0.344 -0.047 -0.465 -0.117 -0.574 -0.34 c -0.074 -0.156 -0.18 -0.258 -0.23 -0.223 c -0.137 0.082 -0.121 0.391 0.023 0.531 c 0.09 0.094 0.055 0.172 -0.156 0.336 c -0.332 0.258 -0.34 0.383 -0.059 0.887 c 0.305 0.543 0.344 0.57 0.895 0.648 c 0.27 0.035 0.523 0.074 0.566 0.082 c 0.043 0.008 0.078 -0.07 0.078 -0.172 m -1.219 -0.625 c -0.121 -0.27 -0.113 -0.324 0.078 -0.512 c 0.316 -0.313 0.676 -0.273 0.828 0.09 c 0.199 0.469 0.063 0.719 -0.391 0.719 c -0.324 0 -0.402 -0.043 -0.516 -0.297 m 1.406 -1.77 c 0.027 -0.145 -0.039 -0.18 -0.336 -0.18 c -0.348 0 -0.484 0.16 -0.293 0.348 c 0.137 0.137 0.594 0.016 0.629 -0.168 m 2.5 0.184 c 0 -0.023 -0.047 -0.07 -0.105 -0.105 c -0.055 -0.035 -0.102 -0.016 -0.102 0.043 c 0 0.059 0.047 0.109 0.102 0.109 c 0.059 0 0.105 -0.02 0.105 -0.047 m 6.094 -0.055 c 0 -0.059 -0.047 -0.102 -0.102 -0.102 c -0.059 0 -0.105 0.043 -0.105 0.102 c 0 0.055 0.047 0.102 0.105 0.102 c 0.055 0 0.102 -0.047 0.102 -0.102 m -11.05 -0.152 c 0 -0.172 -0.02 -0.18 -0.25 -0.094 c -0.23 0.09 -0.203 0.246 0.043 0.246 c 0.117 0 0.207 -0.07 0.207 -0.152 m 10.824 -0.383 c -0.063 -0.184 -0.32 -0.211 -1.102 -0.125 c -0.535 0.063 -0.629 0.094 -0.426 0.156 c 0.461 0.133 1.574 0.109 1.527 -0.031 m -2.867 -0.078 c 0 -0.055 -0.07 -0.102 -0.156 -0.102 c -0.086 0 -0.156 0.047 -0.156 0.102 c 0 0.055 0.07 0.102 0.156 0.102 c 0.086 0 0.156 -0.047 0.156 -0.102 m -8.473 -1.43 c 0 -0.113 0.066 -0.203 0.148 -0.203 c 0.215 0 0.316 0.211 0.148 0.316 c -0.223 0.137 -0.297 0.109 -0.297 -0.113 m 0.332 -3.473 c -0.184 -0.219 -0.332 -0.441 -0.332 -0.504 c 0 -0.074 1.996 -0.109 6.609 -0.109 h 6.613 v 1.023 h -0.871 c -0.824 0 -0.871 -0.012 -0.902 -0.23 c -0.035 -0.223 -0.074 -0.23 -1.09 -0.23 c -0.977 0 -1.059 0.016 -1.086 0.203 c -0.039 0.277 -0.227 0.262 -0.266 -0.02 c -0.031 -0.195 -0.094 -0.223 -0.543 -0.211 c -0.281 0.008 -0.512 0.043 -0.512 0.086 c 0 0.086 -0.598 0.051 -0.691 -0.043 c -0.035 -0.035 -0.203 -0.066 -0.371 -0.066 c -0.254 0 -0.297 0.035 -0.25 0.207 c 0.039 0.152 -0.008 0.219 -0.195 0.266 c -0.359 0.09 -0.551 -0.016 -0.484 -0.262 c 0.078 -0.297 -0.234 -0.277 -0.332 0.02 l -0.078 0.23 l -0.043 -0.223 c -0.047 -0.23 -0.293 -0.383 -0.457 -0.281 c -0.051 0.031 -0.094 0.172 -0.094 0.313 c 0 0.219 -0.039 0.25 -0.281 0.223 c -0.172 -0.02 -0.301 -0.109 -0.332 -0.238 c -0.066 -0.238 -0.434 -0.305 -0.875 -0.152 c -0.207 0.07 -0.34 0.074 -0.41 0.004 c -0.172 -0.172 -0.375 -0.117 -0.375 0.098 c 0 0.246 -0.262 0.273 -0.352 0.039 c -0.035 -0.094 -0.094 -0.141 -0.129 -0.105 c -0.039 0.039 -0.133 0.012 -0.219 -0.055 c -0.117 -0.102 -0.176 -0.086 -0.293 0.07 c -0.137 0.188 -0.148 0.188 -0.383 -0.031 c -0.313 -0.293 -0.484 -0.281 -0.484 0.027 c 0 0.391 -0.129 0.379 -0.492 -0.047 m 3.645 0.203 c 0.035 -0.055 0.109 -0.102 0.16 -0.102 c 0.055 0 0.098 0.047 0.098 0.102 c 0 0.059 -0.07 0.105 -0.16 0.105 c -0.09 0 -0.133 -0.047 -0.098 -0.105" fill="#2f2f2f"/></svg>