<svg xmlns="http://www.w3.org/2000/svg" viewBox="0 0 24 24" xmlns:xlink="http://www.w3.org/1999/xlink"><defs><linearGradient id="5" gradientUnits="userSpaceOnUse" x1="41.5" x2="39.29" gradientTransform="matrix(0.27907 0 0 0.28452 5.403 -280.8)" xlink:href="#3"/><linearGradient id="4" gradientUnits="userSpaceOnUse" y1="1045.86" x2="0" y2="1043.65" gradientTransform="matrix(0.27907 0 0 0.28452 5.403 -280.8)" xlink:href="#3"/><linearGradient id="6" gradientUnits="userSpaceOnUse" x1="6.5" x2="8.709" gradientTransform="matrix(0.27907 0 0 0.28452 5.403 -280.8)" xlink:href="#3"/><linearGradient id="3" gradientUnits="userSpaceOnUse" y1="1010.86" x2="0" y2="1013.07" gradientTransform="matrix(0.27907 0 0 0.28452 5.403 -280.8)"><stop stop-color="#000"/><stop offset="1" stop-color="#000" stop-opacity="0"/></linearGradient><linearGradient id="1" gradientUnits="userSpaceOnUse" y1="-1045.03" x2="0" y2="-1011.72" gradientTransform="matrix(0.27907 0 0 -0.28452 5.403 -280.8)"><stop stop-color="#000"/><stop offset="1" stop-color="#333"/></linearGradient><linearGradient id="0" gradientUnits="userSpaceOnUse" x1="4" x2="44" gradientTransform="matrix(0.27907 0 0 -0.28452 5.403 -280.8)"><stop stop-color="#9ca197"/><stop offset="1" stop-color="#c8ccc1"/></linearGradient><linearGradient id="2" gradientUnits="userSpaceOnUse" y1="1007.31" x2="0" y2="1032.54" gradientTransform="matrix(0.27907 0 0 0.28452 5.403 -280.8)"><stop stop-color="#fff"/><stop offset="1" stop-color="#fff" stop-opacity="0"/></linearGradient></defs><path d="m 5.641 2.473 c 12.273 -8.629 24.711 7.309 14.711 17.473 c -9.422 9.582 -24.06 0.699 -19.488 -11.219 c 0.957 -2.488 2.523 -4.668 4.777 -6.254" fill="#2f4e4e"/><path d="m 6.52 17.48 h 11.164 v -11.383 h -11.164" fill="url(#0)"/><path d="m 7.613 16.77 h 8.977 c 0.219 0 0.395 -0.18 0.395 -0.402 v -9.152 c 0 -0.223 -0.176 -0.402 -0.395 -0.402 h -8.977 c -0.219 0 -0.398 0.18 -0.398 0.402 v 9.152 c 0 0.223 0.18 0.402 0.398 0.402" fill-opacity="0.235"/><path d="m 7.824 16.531 h 8.551 c 0.207 0 0.375 -0.172 0.375 -0.383 v -8.715 c 0 -0.211 -0.168 -0.383 -0.375 -0.383 h -8.551 c -0.207 0 -0.375 0.172 -0.375 0.383 v 8.715 c 0 0.211 0.168 0.383 0.375 0.383" fill="url(#1)"/><g fill="url(#2)"><path d="m 7.781 8 h 0.031 l 0.063 0.188 l 0.078 -0.188 h 0.031 l -0.078 0.219 h -0.047 m 0.262 -0.188 c -0.023 0 -0.039 0.012 -0.047 0.031 c -0.012 0.012 -0.016 0.027 -0.016 0.047 c 0 0.031 0.004 0.055 0.016 0.063 c 0.008 0.012 0.023 0.016 0.047 0.016 c 0.008 0 0.02 -0.004 0.031 -0.016 c 0.02 -0.008 0.031 -0.031 0.031 -0.063 c 0 -0.02 -0.012 -0.035 -0.031 -0.047 c -0.012 -0.02 -0.023 -0.031 -0.031 -0.031 m 0 -0.031 c 0.02 0 0.039 0.012 0.063 0.031 c 0.02 0.023 0.031 0.047 0.031 0.078 c 0 0.031 -0.012 0.059 -0.031 0.078 c -0.023 0.023 -0.043 0.031 -0.063 0.031 c -0.031 0 -0.059 -0.008 -0.078 -0.031 c -0.012 -0.02 -0.016 -0.047 -0.016 -0.078 c 0 -0.031 0.004 -0.055 0.016 -0.078 c 0.02 -0.02 0.047 -0.031 0.078 -0.031 m 0.141 0 h 0.047 v 0.219 h -0.047 m 0 -0.297 h 0.047 v 0.047 h -0.047 m 0.25 0.063 v -0.109 h 0.047 v 0.297 h -0.047 v -0.031 c -0.012 0.012 -0.023 0.023 -0.031 0.031 c 0 0 -0.012 0 -0.031 0 c -0.023 0 -0.043 -0.008 -0.063 -0.031 c -0.012 -0.02 -0.016 -0.047 -0.016 -0.078 c 0 -0.031 0.004 -0.055 0.016 -0.078 c 0.02 -0.02 0.039 -0.031 0.063 -0.031 c 0.02 0 0.031 0.008 0.031 0.016 c 0.008 0 0.02 0.008 0.031 0.016 m -0.125 0.078 c 0 0.031 0.004 0.055 0.016 0.063 c 0.02 0.012 0.035 0.016 0.047 0.016 c 0.02 0 0.035 -0.004 0.047 -0.016 c 0.008 -0.008 0.016 -0.031 0.016 -0.063 c 0 -0.02 -0.008 -0.035 -0.016 -0.047 c -0.012 -0.02 -0.027 -0.031 -0.047 -0.031 c -0.012 0 -0.027 0.012 -0.047 0.031 c -0.012 0.012 -0.016 0.027 -0.016 0.047 m 0.492 -0.094 v 0.031 c -0.012 -0.008 -0.023 -0.016 -0.031 -0.016 c -0.012 0 -0.023 0 -0.031 0 c -0.023 0 -0.039 0.008 -0.047 0.016 c -0.012 0 -0.016 0.008 -0.016 0.016 c 0 0.012 0.004 0.016 0.016 0.016 c 0.008 0 0.023 0.008 0.047 0.016 c 0.031 0.012 0.051 0.023 0.063 0.031 c 0.008 0 0.016 0.012 0.016 0.031 c 0 0.023 -0.012 0.039 -0.031 0.047 c -0.012 0.012 -0.031 0.016 -0.063 0.016 c -0.012 0 -0.023 0 -0.031 0 c -0.012 0 -0.027 0 -0.047 0 v -0.047 c 0.02 0.012 0.035 0.016 0.047 0.016 c 0.008 0 0.02 0 0.031 0 c 0.02 0 0.031 0 0.031 0 c 0.008 -0.008 0.016 -0.02 0.016 -0.031 c 0 -0.008 -0.008 -0.016 -0.016 -0.016 c 0 -0.008 -0.012 -0.016 -0.031 -0.016 h -0.016 c -0.023 -0.008 -0.039 -0.016 -0.047 -0.016 c 0 -0.008 0 -0.023 0 -0.047 c 0 -0.02 0.004 -0.035 0.016 -0.047 c 0.008 -0.008 0.031 -0.016 0.063 -0.016 c 0.008 0 0.02 0 0.031 0 c 0.008 0 0.02 0.008 0.031 0.016 m 0.25 0.094 v 0.016 h -0.156 c 0 0.023 0.004 0.039 0.016 0.047 c 0.008 0.012 0.031 0.016 0.063 0.016 c 0.008 0 0.02 0 0.031 0 c 0.008 0 0.023 -0.004 0.047 -0.016 v 0.031 c -0.023 0.012 -0.039 0.016 -0.047 0.016 c -0.012 0 -0.023 0 -0.031 0 c -0.043 0 -0.074 -0.008 -0.094 -0.031 c -0.012 -0.02 -0.016 -0.047 -0.016 -0.078 c 0 -0.031 0.004 -0.055 0.016 -0.078 c 0.02 -0.02 0.047 -0.031 0.078 -0.031 c 0.031 0 0.051 0.012 0.063 0.031 c 0.02 0.012 0.031 0.039 0.031 0.078 m -0.031 -0.016 c 0 -0.02 -0.008 -0.035 -0.016 -0.047 c -0.012 -0.008 -0.027 -0.016 -0.047 -0.016 c -0.023 0 -0.039 0.008 -0.047 0.016 c -0.012 0.012 -0.016 0.027 -0.016 0.047 m 0.254 -0.156 v 0.063 h 0.063 v 0.031 h -0.063 v 0.109 c 0 0.023 0 0.039 0 0.047 c 0 0 0.008 0 0.031 0 h 0.031 v 0.031 h -0.031 c -0.031 0 -0.055 -0.004 -0.063 -0.016 c -0.012 -0.008 -0.016 -0.031 -0.016 -0.063 v -0.109 h -0.016 v -0.031 h 0.016 v -0.063 m 0.152 0.188 v -0.125 h 0.031 v 0.125 c 0 0.023 0.004 0.039 0.016 0.047 c 0.008 0.012 0.02 0.016 0.031 0.016 c 0.02 0 0.035 -0.004 0.047 -0.016 c 0.008 -0.008 0.016 -0.023 0.016 -0.047 v -0.125 h 0.047 v 0.219 h -0.047 v -0.031 c -0.012 0.012 -0.023 0.023 -0.031 0.031 c -0.012 0 -0.023 0 -0.031 0 c -0.023 0 -0.043 -0.004 -0.063 -0.016 c -0.012 -0.02 -0.016 -0.047 -0.016 -0.078 m 0.094 -0.125 m 0.195 0.188 v 0.109 h -0.047 v -0.297 h 0.047 v 0.031 c 0 -0.008 0.004 -0.016 0.016 -0.016 c 0.008 -0.008 0.023 -0.016 0.047 -0.016 c 0.02 0 0.035 0.012 0.047 0.031 c 0.02 0.023 0.031 0.047 0.031 0.078 c 0 0.031 -0.012 0.059 -0.031 0.078 c -0.012 0.023 -0.027 0.031 -0.047 0.031 c -0.023 0 -0.039 0 -0.047 0 c -0.012 -0.008 -0.016 -0.02 -0.016 -0.031 m 0.109 -0.078 c 0 -0.02 -0.008 -0.035 -0.016 -0.047 c -0.012 -0.02 -0.027 -0.031 -0.047 -0.031 c -0.012 0 -0.023 0.012 -0.031 0.031 c -0.012 0.012 -0.016 0.027 -0.016 0.047 c 0 0.031 0.004 0.055 0.016 0.063 c 0.008 0.012 0.02 0.016 0.031 0.016 c 0.02 0 0.035 -0.004 0.047 -0.016 c 0.008 -0.008 0.016 -0.031 0.016 -0.063 m 0.184 -0.188 c -0.023 0.031 -0.039 0.063 -0.047 0.094 c 0 0.023 0 0.047 0 0.078 c 0 0.031 0 0.063 0 0.094 c 0.008 0.023 0.023 0.047 0.047 0.078 h -0.031 c -0.023 -0.031 -0.039 -0.055 -0.047 -0.078 c -0.012 -0.031 -0.016 -0.063 -0.016 -0.094 c 0 -0.031 0.004 -0.055 0.016 -0.078 c 0.008 -0.031 0.023 -0.063 0.047 -0.094 m 0.09 0 h 0.031 c 0.02 0.031 0.031 0.063 0.031 0.094 c 0.008 0.023 0.016 0.047 0.016 0.078 c 0 0.031 -0.008 0.063 -0.016 0.094 c 0 0.023 -0.012 0.047 -0.031 0.078 h -0.031 c 0.008 -0.031 0.02 -0.055 0.031 -0.078 c 0.008 -0.031 0.016 -0.063 0.016 -0.094 c 0 -0.031 -0.008 -0.055 -0.016 -0.078 c -0.012 -0.031 -0.023 -0.063 -0.031 -0.094"/><path d="m 7.969 8.75 v 0.031 h -0.016 c -0.031 0 -0.055 -0.008 -0.063 -0.016 c -0.012 -0.012 -0.016 -0.027 -0.016 -0.047 v -0.063 c 0 -0.008 -0.008 -0.02 -0.016 -0.031 c -0.012 -0.008 -0.023 -0.016 -0.031 -0.016 h -0.016 v -0.016 h 0.016 c 0.008 0 0.02 -0.004 0.031 -0.016 c 0.008 -0.008 0.016 -0.023 0.016 -0.047 v -0.047 c 0 -0.02 0.004 -0.035 0.016 -0.047 c 0.008 -0.008 0.031 -0.016 0.063 -0.016 h 0.016 v 0.031 h -0.016 c -0.023 0 -0.039 0.008 -0.047 0.016 c 0 0 0 0.008 0 0.016 v 0.063 c 0 0.023 -0.008 0.039 -0.016 0.047 c 0 0 -0.008 0.008 -0.016 0.016 c 0.008 0 0.016 0.008 0.016 0.016 c 0.008 0 0.016 0.012 0.016 0.031 v 0.063 c 0 0.008 0 0.016 0 0.016 c 0.008 0.008 0.023 0.016 0.047 0.016"/><path d="m 8.09 9.18 v 0.109 h -0.047 v -0.297 h 0.047 v 0.031 c 0 -0.008 0.004 -0.016 0.016 -0.016 c 0.008 -0.008 0.023 -0.016 0.047 -0.016 c 0.02 0 0.035 0.012 0.047 0.031 c 0.02 0.023 0.031 0.047 0.031 0.078 c 0 0.031 -0.012 0.059 -0.031 0.078 c -0.012 0.023 -0.027 0.031 -0.047 0.031 c -0.023 0 -0.039 0 -0.047 0 c -0.012 -0.008 -0.016 -0.02 -0.016 -0.031 m 0.109 -0.078 c 0 -0.02 -0.008 -0.035 -0.016 -0.047 c -0.012 -0.02 -0.027 -0.031 -0.047 -0.031 c -0.012 0 -0.023 0.012 -0.031 0.031 c -0.012 0.012 -0.016 0.027 -0.016 0.047 c 0 0.031 0.004 0.055 0.016 0.063 c 0.008 0.012 0.02 0.016 0.031 0.016 c 0.02 0 0.035 -0.004 0.047 -0.016 c 0.008 -0.008 0.016 -0.031 0.016 -0.063 m 0.09 -0.109 h 0.047 v 0.219 h -0.047 m 0 -0.297 h 0.047 v 0.047 h -0.047 m 0.293 0.125 v 0.125 h -0.047 v -0.125 c 0 -0.02 -0.008 -0.035 -0.016 -0.047 c 0 -0.008 -0.008 -0.016 -0.016 -0.016 c -0.023 0 -0.039 0.008 -0.047 0.016 c -0.012 0.012 -0.016 0.027 -0.016 0.047 v 0.125 h -0.047 v -0.219 h 0.047 v 0.031 c 0 -0.008 0.004 -0.016 0.016 -0.016 c 0.008 -0.008 0.023 -0.016 0.047 -0.016 c 0.02 0 0.035 0.012 0.047 0.031 c 0.02 0.012 0.031 0.031 0.031 0.063 m 0.059 -0.172 h 0.063 l 0.078 0.203 l 0.063 -0.203 h 0.063 v 0.297 h -0.031 v -0.25 l -0.078 0.188 h -0.047 l -0.063 -0.188 v 0.25 h -0.047 m 0.43 -0.188 c -0.023 0 -0.039 0.012 -0.047 0.031 c -0.012 0.012 -0.016 0.027 -0.016 0.047 c 0 0.031 0.004 0.055 0.016 0.063 c 0.008 0.012 0.023 0.016 0.047 0.016 c 0.008 0 0.02 -0.004 0.031 -0.016 c 0.02 -0.008 0.031 -0.031 0.031 -0.063 c 0 -0.02 -0.012 -0.035 -0.031 -0.047 c -0.012 -0.02 -0.023 -0.031 -0.031 -0.031 m 0 -0.031 c 0.02 0 0.039 0.012 0.063 0.031 c 0.02 0.023 0.031 0.047 0.031 0.078 c 0 0.031 -0.012 0.059 -0.031 0.078 c -0.023 0.023 -0.043 0.031 -0.063 0.031 c -0.031 0 -0.059 -0.008 -0.078 -0.031 c -0.012 -0.02 -0.016 -0.047 -0.016 -0.078 c 0 -0.031 0.004 -0.055 0.016 -0.078 c 0.02 -0.02 0.047 -0.031 0.078 -0.031 m 0.281 0.031 v -0.109 h 0.047 v 0.297 h -0.047 v -0.031 c -0.012 0.012 -0.023 0.023 -0.031 0.031 c 0 0 -0.012 0 -0.031 0 c -0.023 0 -0.043 -0.008 -0.063 -0.031 c -0.012 -0.02 -0.016 -0.047 -0.016 -0.078 c 0 -0.031 0.004 -0.055 0.016 -0.078 c 0.02 -0.02 0.039 -0.031 0.063 -0.031 c 0.02 0 0.031 0.008 0.031 0.016 c 0.008 0 0.02 0.008 0.031 0.016 m -0.125 0.078 c 0 0.031 0.004 0.055 0.016 0.063 c 0.02 0.012 0.035 0.016 0.047 0.016 c 0.02 0 0.035 -0.004 0.047 -0.016 c 0.008 -0.008 0.016 -0.031 0.016 -0.063 c 0 -0.02 -0.008 -0.035 -0.016 -0.047 c -0.012 -0.02 -0.027 -0.031 -0.047 -0.031 c -0.012 0 -0.027 0.012 -0.047 0.031 c -0.012 0.012 -0.016 0.027 -0.016 0.047 m 0.418 0 v 0.016 h -0.156 c 0 0.023 0.004 0.039 0.016 0.047 c 0.008 0.012 0.031 0.016 0.063 0.016 c 0.008 0 0.02 0 0.031 0 c 0.008 0 0.023 -0.004 0.047 -0.016 v 0.031 c -0.023 0.012 -0.039 0.016 -0.047 0.016 c -0.012 0 -0.023 0 -0.031 0 c -0.043 0 -0.074 -0.008 -0.094 -0.031 c -0.012 -0.02 -0.016 -0.047 -0.016 -0.078 c 0 -0.031 0.004 -0.055 0.016 -0.078 c 0.02 -0.02 0.047 -0.031 0.078 -0.031 c 0.031 0 0.051 0.012 0.063 0.031 c 0.02 0.012 0.031 0.039 0.031 0.078 m -0.031 -0.016 c 0 -0.02 -0.008 -0.035 -0.016 -0.047 c -0.012 -0.008 -0.027 -0.016 -0.047 -0.016 c -0.023 0 -0.039 0.008 -0.047 0.016 c -0.012 0.012 -0.016 0.027 -0.016 0.047 m 0.301 -0.172 c -0.023 0.031 -0.039 0.063 -0.047 0.094 c 0 0.023 0 0.047 0 0.078 c 0 0.031 0 0.063 0 0.094 c 0.008 0.023 0.023 0.047 0.047 0.078 h -0.031 c -0.023 -0.031 -0.039 -0.055 -0.047 -0.078 c -0.012 -0.031 -0.016 -0.063 -0.016 -0.094 c 0 -0.031 0.004 -0.055 0.016 -0.078 c 0.008 -0.031 0.023 -0.063 0.047 -0.094 m 0.09 0 h 0.047 v 0.297 h -0.047 m 0.293 -0.109 v 0.016 h -0.156 c 0 0.023 0.004 0.039 0.016 0.047 c 0.008 0.012 0.031 0.016 0.063 0.016 c 0.008 0 0.02 0 0.031 0 c 0.008 0 0.023 -0.004 0.047 -0.016 v 0.031 c -0.023 0.012 -0.039 0.016 -0.047 0.016 c -0.012 0 -0.023 0 -0.031 0 c -0.043 0 -0.074 -0.008 -0.094 -0.031 c -0.012 -0.02 -0.016 -0.047 -0.016 -0.078 c 0 -0.031 0.004 -0.055 0.016 -0.078 c 0.02 -0.02 0.047 -0.031 0.078 -0.031 c 0.031 0 0.051 0.012 0.063 0.031 c 0.02 0.012 0.031 0.039 0.031 0.078 m -0.031 -0.016 c 0 -0.02 -0.008 -0.035 -0.016 -0.047 c -0.012 -0.008 -0.027 -0.016 -0.047 -0.016 c -0.023 0 -0.039 0.008 -0.047 0.016 c -0.012 0.012 -0.016 0.027 -0.016 0.047 m 0.348 -0.063 v -0.109 h 0.047 v 0.297 h -0.047 v -0.031 c -0.012 0.012 -0.023 0.023 -0.031 0.031 c 0 0 -0.012 0 -0.031 0 c -0.023 0 -0.043 -0.008 -0.063 -0.031 c -0.012 -0.02 -0.016 -0.047 -0.016 -0.078 c 0 -0.031 0.004 -0.055 0.016 -0.078 c 0.02 -0.02 0.039 -0.031 0.063 -0.031 c 0.02 0 0.031 0.008 0.031 0.016 c 0.008 0 0.02 0.008 0.031 0.016 m -0.125 0.078 c 0 0.031 0.004 0.055 0.016 0.063 c 0.02 0.012 0.035 0.016 0.047 0.016 c 0.02 0 0.035 -0.004 0.047 -0.016 c 0.008 -0.008 0.016 -0.031 0.016 -0.063 c 0 -0.02 -0.008 -0.035 -0.016 -0.047 c -0.012 -0.02 -0.027 -0.031 -0.047 -0.031 c -0.012 0 -0.027 0.012 -0.047 0.031 c -0.012 0.012 -0.016 0.027 -0.016 0.047 m 0.277 -0.141 v 0.109 h 0.047 c 0.02 0 0.035 -0.004 0.047 -0.016 c 0.008 -0.008 0.016 -0.023 0.016 -0.047 c 0 -0.02 -0.008 -0.031 -0.016 -0.031 c -0.012 -0.008 -0.027 -0.016 -0.047 -0.016 m -0.094 -0.047 h 0.094 c 0.031 0 0.051 0.012 0.063 0.031 c 0.02 0.012 0.031 0.031 0.031 0.063 c 0 0.031 -0.012 0.059 -0.031 0.078 c -0.012 0.012 -0.031 0.016 -0.063 0.016 h -0.047 v 0.109 h -0.047 m 0.227 -0.219 h 0.047 v 0.219 h -0.047 m 0 -0.297 h 0.047 v 0.047 h -0.047 m 0.297 0.125 v 0.125 h -0.047 v -0.125 c 0 -0.02 -0.008 -0.035 -0.016 -0.047 c 0 -0.008 -0.008 -0.016 -0.016 -0.016 c -0.023 0 -0.039 0.008 -0.047 0.016 c -0.012 0.012 -0.016 0.027 -0.016 0.047 v 0.125 h -0.047 v -0.219 h 0.047 v 0.031 c 0 -0.008 0.004 -0.016 0.016 -0.016 c 0.008 -0.008 0.023 -0.016 0.047 -0.016 c 0.02 0 0.035 0.012 0.047 0.031 c 0.02 0.012 0.031 0.031 0.031 0.063 m 0.074 0.078 h 0.031 v 0.031 l -0.031 0.063 h -0.016 l 0.016 -0.063 m 0.355 -0.25 c -0.031 0 -0.059 0.012 -0.078 0.031 c -0.012 0.023 -0.016 0.055 -0.016 0.094 c 0 0.031 0.004 0.059 0.016 0.078 c 0.02 0.023 0.047 0.031 0.078 0.031 c 0.02 0 0.035 -0.008 0.047 -0.031 c 0.02 -0.02 0.031 -0.047 0.031 -0.078 c 0 -0.039 -0.012 -0.07 -0.031 -0.094 c -0.012 -0.02 -0.027 -0.031 -0.047 -0.031 m 0 -0.031 c 0.039 0 0.07 0.016 0.094 0.047 c 0.02 0.031 0.031 0.07 0.031 0.109 c 0 0.043 -0.012 0.078 -0.031 0.109 c -0.023 0.023 -0.055 0.031 -0.094 0.031 c -0.043 0 -0.074 -0.008 -0.094 -0.031 c -0.023 -0.031 -0.031 -0.066 -0.031 -0.109 c 0 -0.039 0.008 -0.078 0.031 -0.109 c 0.02 -0.031 0.051 -0.047 0.094 -0.047 m 0.18 0 h 0.047 v 0.188 c 0 0.031 0.004 0.055 0.016 0.063 c 0.008 0.012 0.023 0.016 0.047 0.016 c 0.031 0 0.051 -0.004 0.063 -0.016 c 0.008 -0.008 0.016 -0.031 0.016 -0.063 v -0.188 h 0.031 v 0.188 c 0 0.043 -0.012 0.074 -0.031 0.094 c -0.023 0.012 -0.047 0.016 -0.078 0.016 c -0.031 0 -0.059 -0.004 -0.078 -0.016 c -0.023 -0.02 -0.031 -0.051 -0.031 -0.094 m 0.25 -0.188 h 0.234 v 0.047 h -0.094 v 0.25 h -0.047 v -0.25 h -0.094 m 0.316 0 v 0.109 h 0.047 c 0.02 0 0.035 -0.004 0.047 -0.016 c 0.008 -0.008 0.016 -0.023 0.016 -0.047 c 0 -0.02 -0.008 -0.031 -0.016 -0.031 c -0.012 -0.008 -0.027 -0.016 -0.047 -0.016 m -0.094 -0.047 h 0.094 c 0.031 0 0.051 0.012 0.063 0.031 c 0.02 0.012 0.031 0.031 0.031 0.063 c 0 0.031 -0.012 0.059 -0.031 0.078 c -0.012 0.012 -0.031 0.016 -0.063 0.016 h -0.047 v 0.109 h -0.047 m 0.23 -0.297 h 0.047 v 0.188 c 0 0.031 0.004 0.055 0.016 0.063 c 0.008 0.012 0.023 0.016 0.047 0.016 c 0.031 0 0.051 -0.004 0.063 -0.016 c 0.008 -0.008 0.016 -0.031 0.016 -0.063 v -0.188 h 0.031 v 0.188 c 0 0.043 -0.012 0.074 -0.031 0.094 c -0.023 0.012 -0.047 0.016 -0.078 0.016 c -0.031 0 -0.059 -0.004 -0.078 -0.016 c -0.023 -0.02 -0.031 -0.051 -0.031 -0.094 m 0.254 -0.188 h 0.234 v 0.047 h -0.094 v 0.25 h -0.047 v -0.25 h -0.094 m 0.266 -0.047 h 0.031 c 0.02 0.031 0.031 0.063 0.031 0.094 c 0.008 0.023 0.016 0.047 0.016 0.078 c 0 0.031 -0.008 0.063 -0.016 0.094 c 0 0.023 -0.012 0.047 -0.031 0.078 h -0.031 c 0.008 -0.031 0.02 -0.055 0.031 -0.078 c 0.008 -0.031 0.016 -0.063 0.016 -0.094 c 0 -0.031 -0.008 -0.055 -0.016 -0.078 c -0.012 -0.031 -0.023 -0.063 -0.031 -0.094 m 0.168 0.094 h 0.031 v 0.047 h -0.031 m 0 0.109 h 0.031 v 0.031 l -0.031 0.063 h -0.016 l 0.016 -0.063"/><path d="m 7.859 9.406 h 0.047 l -0.109 0.328 h -0.031 m 0.223 -0.328 h 0.047 l -0.109 0.328 h -0.031 m 0.426 -0.234 v 0.031 c -0.012 -0.008 -0.023 -0.016 -0.031 -0.016 c -0.012 0 -0.023 0 -0.031 0 c -0.023 0 -0.039 0.008 -0.047 0.016 c -0.012 0 -0.016 0.008 -0.016 0.016 c 0 0.012 0.004 0.016 0.016 0.016 c 0.008 0 0.023 0.008 0.047 0.016 c 0.031 0.012 0.051 0.023 0.063 0.031 c 0.008 0 0.016 0.012 0.016 0.031 c 0 0.023 -0.012 0.039 -0.031 0.047 c -0.012 0.012 -0.031 0.016 -0.063 0.016 c -0.012 0 -0.023 0 -0.031 0 c -0.012 0 -0.027 0 -0.047 0 v -0.047 c 0.02 0.012 0.035 0.016 0.047 0.016 c 0.008 0 0.02 0 0.031 0 c 0.02 0 0.031 0 0.031 0 c 0.008 -0.008 0.016 -0.02 0.016 -0.031 c 0 -0.008 -0.008 -0.016 -0.016 -0.016 c 0 -0.008 -0.012 -0.016 -0.031 -0.016 h -0.016 c -0.023 -0.008 -0.039 -0.016 -0.047 -0.016 c 0 -0.008 0 -0.023 0 -0.047 c 0 -0.02 0.004 -0.035 0.016 -0.047 c 0.008 -0.008 0.031 -0.016 0.063 -0.016 c 0.008 0 0.02 0 0.031 0 c 0.008 0 0.02 0.008 0.031 0.016 m 0.25 0.094 v 0.016 h -0.156 c 0 0.023 0.004 0.039 0.016 0.047 c 0.008 0.012 0.031 0.016 0.063 0.016 c 0.008 0 0.02 0 0.031 0 c 0.008 0 0.023 -0.004 0.047 -0.016 v 0.031 c -0.023 0.012 -0.039 0.016 -0.047 0.016 c -0.012 0 -0.023 0 -0.031 0 c -0.043 0 -0.074 -0.008 -0.094 -0.031 c -0.012 -0.02 -0.016 -0.047 -0.016 -0.078 c 0 -0.031 0.004 -0.055 0.016 -0.078 c 0.02 -0.02 0.047 -0.031 0.078 -0.031 c 0.031 0 0.051 0.012 0.063 0.031 c 0.02 0.012 0.031 0.039 0.031 0.078 m -0.031 -0.016 c 0 -0.02 -0.008 -0.035 -0.016 -0.047 c -0.012 -0.008 -0.027 -0.016 -0.047 -0.016 c -0.023 0 -0.039 0.008 -0.047 0.016 c -0.012 0.012 -0.016 0.027 -0.016 0.047 m 0.254 -0.156 v 0.063 h 0.063 v 0.031 h -0.063 v 0.109 c 0 0.023 0 0.039 0 0.047 c 0 0 0.008 0 0.031 0 h 0.031 v 0.031 h -0.031 c -0.031 0 -0.055 -0.004 -0.063 -0.016 c -0.012 -0.008 -0.016 -0.031 -0.016 -0.063 v -0.109 h -0.016 v -0.031 h 0.016 v -0.063 m 0.293 0.078 v 0.031 c -0.012 -0.008 -0.023 -0.016 -0.031 -0.016 c -0.012 0 -0.023 0 -0.031 0 c -0.023 0 -0.039 0.008 -0.047 0.016 c -0.012 0 -0.016 0.008 -0.016 0.016 c 0 0.012 0.004 0.016 0.016 0.016 c 0.008 0 0.023 0.008 0.047 0.016 c 0.031 0.012 0.051 0.023 0.063 0.031 c 0.008 0 0.016 0.012 0.016 0.031 c 0 0.023 -0.012 0.039 -0.031 0.047 c -0.012 0.012 -0.031 0.016 -0.063 0.016 c -0.012 0 -0.023 0 -0.031 0 c -0.012 0 -0.027 0 -0.047 0 v -0.047 c 0.02 0.012 0.035 0.016 0.047 0.016 c 0.008 0 0.02 0 0.031 0 c 0.02 0 0.031 0 0.031 0 c 0.008 -0.008 0.016 -0.02 0.016 -0.031 c 0 -0.008 -0.008 -0.016 -0.016 -0.016 c 0 -0.008 -0.012 -0.016 -0.031 -0.016 h -0.016 c -0.023 -0.008 -0.039 -0.016 -0.047 -0.016 c 0 -0.008 0 -0.023 0 -0.047 c 0 -0.02 0.004 -0.035 0.016 -0.047 c 0.008 -0.008 0.031 -0.016 0.063 -0.016 c 0.008 0 0.02 0 0.031 0 c 0.008 0 0.02 0.008 0.031 0.016 m 0.23 -0.078 v 0.063 h 0.063 v 0.031 h -0.063 v 0.109 c 0 0.023 0 0.039 0 0.047 c 0 0 0.008 0 0.031 0 h 0.031 v 0.031 h -0.031 c -0.031 0 -0.055 -0.004 -0.063 -0.016 c -0.012 -0.008 -0.016 -0.031 -0.016 -0.063 v -0.109 h -0.016 v -0.031 h 0.016 v -0.063 m 0.34 0.156 v 0.125 h -0.047 v -0.125 c 0 -0.02 -0.008 -0.035 -0.016 -0.047 c 0 -0.008 -0.008 -0.016 -0.016 -0.016 c -0.023 0 -0.039 0.008 -0.047 0.016 c -0.012 0.012 -0.016 0.027 -0.016 0.047 v 0.125 h -0.047 v -0.297 h 0.047 v 0.109 c 0 -0.008 0.004 -0.016 0.016 -0.016 c 0.008 -0.008 0.023 -0.016 0.047 -0.016 c 0.02 0 0.035 0.012 0.047 0.031 c 0.02 0.012 0.031 0.031 0.031 0.063 m 0.242 0.016 v 0.016 h -0.156 c 0 0.023 0.004 0.039 0.016 0.047 c 0.008 0.012 0.031 0.016 0.063 0.016 c 0.008 0 0.02 0 0.031 0 c 0.008 0 0.023 -0.004 0.047 -0.016 v 0.031 c -0.023 0.012 -0.039 0.016 -0.047 0.016 c -0.012 0 -0.023 0 -0.031 0 c -0.043 0 -0.074 -0.008 -0.094 -0.031 c -0.012 -0.02 -0.016 -0.047 -0.016 -0.078 c 0 -0.031 0.004 -0.055 0.016 -0.078 c 0.02 -0.02 0.047 -0.031 0.078 -0.031 c 0.031 0 0.051 0.012 0.063 0.031 c 0.02 0.012 0.031 0.039 0.031 0.078 m -0.031 -0.016 c 0 -0.02 -0.008 -0.035 -0.016 -0.047 c -0.012 -0.008 -0.027 -0.016 -0.047 -0.016 c -0.023 0 -0.039 0.008 -0.047 0.016 c -0.012 0.012 -0.016 0.027 -0.016 0.047 m 0.473 -0.063 v -0.109 h 0.047 v 0.297 h -0.047 v -0.031 c -0.012 0.012 -0.023 0.023 -0.031 0.031 c 0 0 -0.012 0 -0.031 0 c -0.023 0 -0.043 -0.008 -0.063 -0.031 c -0.012 -0.02 -0.016 -0.047 -0.016 -0.078 c 0 -0.031 0.004 -0.055 0.016 -0.078 c 0.02 -0.02 0.039 -0.031 0.063 -0.031 c 0.02 0 0.031 0.008 0.031 0.016 c 0.008 0 0.02 0.008 0.031 0.016 m -0.125 0.078 c 0 0.031 0.004 0.055 0.016 0.063 c 0.02 0.012 0.035 0.016 0.047 0.016 c 0.02 0 0.035 -0.004 0.047 -0.016 c 0.008 -0.008 0.016 -0.031 0.016 -0.063 c 0 -0.02 -0.008 -0.035 -0.016 -0.047 c -0.012 -0.02 -0.027 -0.031 -0.047 -0.031 c -0.012 0 -0.027 0.012 -0.047 0.031 c -0.012 0.012 -0.016 0.027 -0.016 0.047 m 0.23 -0.109 h 0.047 v 0.219 h -0.047 m 0 -0.297 h 0.047 v 0.047 h -0.047 m 0.246 0.141 c 0 -0.02 -0.008 -0.035 -0.016 -0.047 c -0.012 -0.02 -0.027 -0.031 -0.047 -0.031 c -0.012 0 -0.027 0.012 -0.047 0.031 c -0.012 0.012 -0.016 0.027 -0.016 0.047 c 0 0.023 0.004 0.043 0.016 0.063 c 0.02 0.012 0.035 0.016 0.047 0.016 c 0.02 0 0.035 -0.004 0.047 -0.016 c 0.008 -0.02 0.016 -0.039 0.016 -0.063 m 0.047 0.078 c 0 0.039 -0.012 0.066 -0.031 0.078 c -0.023 0.02 -0.047 0.031 -0.078 0.031 c -0.012 0 -0.023 0 -0.031 0 c -0.012 0 -0.023 -0.008 -0.031 -0.016 v -0.031 c 0.008 0.008 0.02 0.016 0.031 0.016 c 0.008 0.008 0.02 0.016 0.031 0.016 c 0.02 0 0.035 -0.012 0.047 -0.031 c 0.008 -0.012 0.016 -0.027 0.016 -0.047 v -0.016 c -0.012 0.012 -0.023 0.023 -0.031 0.031 c 0 0 -0.012 0 -0.031 0 c -0.031 0 -0.055 -0.008 -0.063 -0.031 c -0.012 -0.02 -0.016 -0.047 -0.016 -0.078 c 0 -0.031 0.004 -0.055 0.016 -0.078 c 0.008 -0.02 0.031 -0.031 0.063 -0.031 c 0.02 0 0.031 0.008 0.031 0.016 c 0.008 0 0.02 0.008 0.031 0.016 v -0.031 h 0.047 m 0.059 0 h 0.047 v 0.219 h -0.047 m 0 -0.297 h 0.047 v 0.047 h -0.047 m 0.156 -0.031 v 0.063 h 0.063 v 0.031 h -0.063 v 0.109 c 0 0.023 0 0.039 0 0.047 c 0 0 0.008 0 0.031 0 h 0.031 v 0.031 h -0.031 c -0.031 0 -0.055 -0.004 -0.063 -0.016 c -0.012 -0.008 -0.016 -0.031 -0.016 -0.063 v -0.109 h -0.016 v -0.031 h 0.016 v -0.063 m 0.262 0.172 c -0.031 0 -0.055 0.008 -0.063 0.016 c -0.012 0 -0.016 0.012 -0.016 0.031 c 0 0.012 0 0.023 0 0.031 c 0.008 0 0.023 0 0.047 0 c 0.02 0 0.035 -0.004 0.047 -0.016 c 0.008 -0.008 0.016 -0.023 0.016 -0.047 v -0.016 m 0.031 -0.016 v 0.125 h -0.031 v -0.031 c -0.012 0.012 -0.023 0.023 -0.031 0.031 c -0.012 0 -0.027 0 -0.047 0 c -0.023 0 -0.039 -0.004 -0.047 -0.016 c -0.012 -0.008 -0.016 -0.023 -0.016 -0.047 c 0 -0.02 0.004 -0.035 0.016 -0.047 c 0.02 -0.02 0.047 -0.031 0.078 -0.031 h 0.047 c 0 -0.02 -0.008 -0.031 -0.016 -0.031 c -0.012 -0.008 -0.027 -0.016 -0.047 -0.016 c -0.012 0 -0.027 0 -0.047 0 c -0.012 0 -0.023 0.008 -0.031 0.016 v -0.031 c 0.02 -0.008 0.035 -0.016 0.047 -0.016 c 0.008 0 0.02 0 0.031 0 c 0.031 0 0.051 0.012 0.063 0.031 c 0.02 0.012 0.031 0.031 0.031 0.063 m 0.063 -0.172 h 0.047 v 0.297 h -0.047 m 0.277 -0.031 v 0.109 h -0.047 v -0.297 h 0.047 v 0.031 c 0 -0.008 0.004 -0.016 0.016 -0.016 c 0.008 -0.008 0.023 -0.016 0.047 -0.016 c 0.02 0 0.035 0.012 0.047 0.031 c 0.02 0.023 0.031 0.047 0.031 0.078 c 0 0.031 -0.012 0.059 -0.031 0.078 c -0.012 0.023 -0.027 0.031 -0.047 0.031 c -0.023 0 -0.039 0 -0.047 0 c -0.012 -0.008 -0.016 -0.02 -0.016 -0.031 m 0.109 -0.078 c 0 -0.02 -0.008 -0.035 -0.016 -0.047 c -0.012 -0.02 -0.027 -0.031 -0.047 -0.031 c -0.012 0 -0.023 0.012 -0.031 0.031 c -0.012 0.012 -0.016 0.027 -0.016 0.047 c 0 0.031 0.004 0.055 0.016 0.063 c 0.008 0.012 0.02 0.016 0.031 0.016 c 0.02 0 0.035 -0.004 0.047 -0.016 c 0.008 -0.008 0.016 -0.031 0.016 -0.063 m 0.09 -0.109 h 0.047 v 0.219 h -0.047 m 0 -0.297 h 0.047 v 0.047 h -0.047 m 0.297 0.125 v 0.125 h -0.047 v -0.125 c 0 -0.02 -0.008 -0.035 -0.016 -0.047 c 0 -0.008 -0.008 -0.016 -0.016 -0.016 c -0.023 0 -0.039 0.008 -0.047 0.016 c -0.012 0.012 -0.016 0.027 -0.016 0.047 v 0.125 h -0.047 v -0.219 h 0.047 v 0.031 c 0 -0.008 0.004 -0.016 0.016 -0.016 c 0.008 -0.008 0.023 -0.016 0.047 -0.016 c 0.02 0 0.035 0.012 0.047 0.031 c 0.02 0.012 0.031 0.031 0.031 0.063"/><path d="m 7.906 10.09 c -0.031 0 -0.055 0.008 -0.063 0.016 c -0.012 0 -0.016 0.012 -0.016 0.031 c 0 0.012 0 0.023 0 0.031 c 0.008 0 0.023 0 0.047 0 c 0.02 0 0.035 -0.004 0.047 -0.016 c 0.008 -0.008 0.016 -0.023 0.016 -0.047 v -0.016 m 0.031 -0.016 v 0.125 h -0.031 v -0.031 c -0.012 0.012 -0.023 0.023 -0.031 0.031 c -0.012 0 -0.027 0 -0.047 0 c -0.023 0 -0.039 -0.004 -0.047 -0.016 c -0.012 -0.008 -0.016 -0.023 -0.016 -0.047 c 0 -0.02 0.004 -0.035 0.016 -0.047 c 0.02 -0.02 0.047 -0.031 0.078 -0.031 h 0.047 c 0 -0.02 -0.008 -0.031 -0.016 -0.031 c -0.012 -0.008 -0.027 -0.016 -0.047 -0.016 c -0.012 0 -0.027 0 -0.047 0 c -0.012 0 -0.023 0.008 -0.031 0.016 v -0.031 c 0.02 -0.008 0.035 -0.016 0.047 -0.016 c 0.008 0 0.02 0 0.031 0 c 0.031 0 0.051 0.012 0.063 0.031 c 0.02 0.012 0.031 0.031 0.031 0.063 m 0.207 -0.078 v 0.031 c -0.012 -0.008 -0.023 -0.016 -0.031 -0.016 c -0.012 0 -0.023 0 -0.031 0 c -0.023 0 -0.039 0.008 -0.047 0.016 c -0.012 0 -0.016 0.008 -0.016 0.016 c 0 0.012 0.004 0.016 0.016 0.016 c 0.008 0 0.023 0.008 0.047 0.016 c 0.031 0.012 0.051 0.023 0.063 0.031 c 0.008 0 0.016 0.012 0.016 0.031 c 0 0.023 -0.012 0.039 -0.031 0.047 c -0.012 0.012 -0.031 0.016 -0.063 0.016 c -0.012 0 -0.023 0 -0.031 0 c -0.012 0 -0.027 0 -0.047 0 v -0.047 c 0.02 0.012 0.035 0.016 0.047 0.016 c 0.008 0 0.02 0 0.031 0 c 0.02 0 0.031 0 0.031 0 c 0.008 -0.008 0.016 -0.02 0.016 -0.031 c 0 -0.008 -0.008 -0.016 -0.016 -0.016 c 0 -0.008 -0.012 -0.016 -0.031 -0.016 h -0.016 c -0.023 -0.008 -0.039 -0.016 -0.047 -0.016 c 0 -0.008 0 -0.023 0 -0.047 c 0 -0.02 0.004 -0.035 0.016 -0.047 c 0.008 -0.008 0.031 -0.016 0.063 -0.016 c 0.008 0 0.02 0 0.031 0 c 0.008 0 0.02 0.008 0.031 0.016 m 0.277 0.016 c -0.023 0 -0.039 0.012 -0.047 0.031 c -0.012 0.012 -0.016 0.027 -0.016 0.047 c 0 0.031 0.004 0.055 0.016 0.063 c 0.008 0.012 0.023 0.016 0.047 0.016 c 0.008 0 0.02 -0.004 0.031 -0.016 c 0.02 -0.008 0.031 -0.031 0.031 -0.063 c 0 -0.02 -0.012 -0.035 -0.031 -0.047 c -0.012 -0.02 -0.023 -0.031 -0.031 -0.031 m 0 -0.031 c 0.02 0 0.039 0.012 0.063 0.031 c 0.02 0.023 0.031 0.047 0.031 0.078 c 0 0.031 -0.012 0.059 -0.031 0.078 c -0.023 0.023 -0.043 0.031 -0.063 0.031 c -0.031 0 -0.059 -0.008 -0.078 -0.031 c -0.012 -0.02 -0.016 -0.047 -0.016 -0.078 c 0 -0.031 0.004 -0.055 0.016 -0.078 c 0.02 -0.02 0.047 -0.031 0.078 -0.031 m 0.141 0.125 v -0.125 h 0.031 v 0.125 c 0 0.023 0.004 0.039 0.016 0.047 c 0.008 0.012 0.02 0.016 0.031 0.016 c 0.02 0 0.035 -0.004 0.047 -0.016 c 0.008 -0.008 0.016 -0.023 0.016 -0.047 v -0.125 h 0.047 v 0.219 h -0.047 v -0.031 c -0.012 0.012 -0.023 0.023 -0.031 0.031 c -0.012 0 -0.023 0 -0.031 0 c -0.023 0 -0.043 -0.004 -0.063 -0.016 c -0.012 -0.02 -0.016 -0.047 -0.016 -0.078 m 0.094 -0.125 m 0.199 -0.063 v 0.063 h 0.063 v 0.031 h -0.063 v 0.109 c 0 0.023 0 0.039 0 0.047 c 0 0 0.008 0 0.031 0 h 0.031 v 0.031 h -0.031 c -0.031 0 -0.055 -0.004 -0.063 -0.016 c -0.012 -0.008 -0.016 -0.031 -0.016 -0.063 v -0.109 h -0.016 v -0.031 h 0.016 v -0.063 m 0.199 0.25 v 0.109 h -0.047 v -0.297 h 0.047 v 0.031 c 0 -0.008 0.004 -0.016 0.016 -0.016 c 0.008 -0.008 0.023 -0.016 0.047 -0.016 c 0.02 0 0.035 0.012 0.047 0.031 c 0.02 0.023 0.031 0.047 0.031 0.078 c 0 0.031 -0.012 0.059 -0.031 0.078 c -0.012 0.023 -0.027 0.031 -0.047 0.031 c -0.023 0 -0.039 0 -0.047 0 c -0.012 -0.008 -0.016 -0.02 -0.016 -0.031 m 0.109 -0.078 c 0 -0.02 -0.008 -0.035 -0.016 -0.047 c -0.012 -0.02 -0.027 -0.031 -0.047 -0.031 c -0.012 0 -0.023 0.012 -0.031 0.031 c -0.012 0.012 -0.016 0.027 -0.016 0.047 c 0 0.031 0.004 0.055 0.016 0.063 c 0.008 0.012 0.02 0.016 0.031 0.016 c 0.02 0 0.035 -0.004 0.047 -0.016 c 0.008 -0.008 0.016 -0.031 0.016 -0.063 m 0.09 0.016 v -0.125 h 0.031 v 0.125 c 0 0.023 0.004 0.039 0.016 0.047 c 0.008 0.012 0.02 0.016 0.031 0.016 c 0.02 0 0.035 -0.004 0.047 -0.016 c 0.008 -0.008 0.016 -0.023 0.016 -0.047 v -0.125 h 0.047 v 0.219 h -0.047 v -0.031 c -0.012 0.012 -0.023 0.023 -0.031 0.031 c -0.012 0 -0.023 0 -0.031 0 c -0.023 0 -0.043 -0.004 -0.063 -0.016 c -0.012 -0.02 -0.016 -0.047 -0.016 -0.078 m 0.094 -0.125 m 0.199 -0.063 v 0.063 h 0.063 v 0.031 h -0.063 v 0.109 c 0 0.023 0 0.039 0 0.047 c 0 0 0.008 0 0.031 0 h 0.031 v 0.031 h -0.031 c -0.031 0 -0.055 -0.004 -0.063 -0.016 c -0.012 -0.008 -0.016 -0.031 -0.016 -0.063 v -0.109 h -0.016 v -0.031 h 0.016 v -0.063"/><path d="m 7.813 10.723 h 0.016 c 0.02 0 0.031 -0.008 0.031 -0.016 c 0.008 0 0.016 -0.008 0.016 -0.016 v -0.063 c 0 -0.02 0 -0.031 0 -0.031 c 0.008 -0.008 0.02 -0.016 0.031 -0.016 c -0.012 -0.008 -0.023 -0.016 -0.031 -0.016 c 0 -0.008 0 -0.023 0 -0.047 v -0.063 c 0 -0.008 -0.008 -0.016 -0.016 -0.016 c 0 -0.008 -0.012 -0.016 -0.031 -0.016 h -0.016 v -0.031 h 0.016 c 0.031 0 0.051 0.008 0.063 0.016 c 0.008 0.012 0.016 0.027 0.016 0.047 v 0.047 c 0 0.023 0 0.039 0 0.047 c 0.008 0.012 0.023 0.016 0.047 0.016 h 0.016 v 0.016 h -0.016 c -0.023 0 -0.039 0.008 -0.047 0.016 c 0 0.012 0 0.023 0 0.031 v 0.063 c 0 0.02 -0.008 0.035 -0.016 0.047 c -0.012 0.008 -0.031 0.016 -0.063 0.016 h -0.016"/><path d="m 7.781 10.969 h 0.031 l 0.063 0.188 l 0.078 -0.188 h 0.031 l -0.078 0.219 h -0.047 m 0.262 -0.188 c -0.023 0 -0.039 0.012 -0.047 0.031 c -0.012 0.012 -0.016 0.027 -0.016 0.047 c 0 0.031 0.004 0.055 0.016 0.063 c 0.008 0.012 0.023 0.016 0.047 0.016 c 0.008 0 0.02 -0.004 0.031 -0.016 c 0.02 -0.008 0.031 -0.031 0.031 -0.063 c 0 -0.02 -0.012 -0.035 -0.031 -0.047 c -0.012 -0.02 -0.023 -0.031 -0.031 -0.031 m 0 -0.031 c 0.02 0 0.039 0.012 0.063 0.031 c 0.02 0.023 0.031 0.047 0.031 0.078 c 0 0.031 -0.012 0.059 -0.031 0.078 c -0.023 0.023 -0.043 0.031 -0.063 0.031 c -0.031 0 -0.059 -0.008 -0.078 -0.031 c -0.012 -0.02 -0.016 -0.047 -0.016 -0.078 c 0 -0.031 0.004 -0.055 0.016 -0.078 c 0.02 -0.02 0.047 -0.031 0.078 -0.031 m 0.141 0 h 0.047 v 0.219 h -0.047 m 0 -0.297 h 0.047 v 0.047 h -0.047 m 0.25 0.063 v -0.109 h 0.047 v 0.297 h -0.047 v -0.031 c -0.012 0.012 -0.023 0.023 -0.031 0.031 c 0 0 -0.012 0 -0.031 0 c -0.023 0 -0.043 -0.008 -0.063 -0.031 c -0.012 -0.02 -0.016 -0.047 -0.016 -0.078 c 0 -0.031 0.004 -0.055 0.016 -0.078 c 0.02 -0.02 0.039 -0.031 0.063 -0.031 c 0.02 0 0.031 0.008 0.031 0.016 c 0.008 0 0.02 0.008 0.031 0.016 m -0.125 0.078 c 0 0.031 0.004 0.055 0.016 0.063 c 0.02 0.012 0.035 0.016 0.047 0.016 c 0.02 0 0.035 -0.004 0.047 -0.016 c 0.008 -0.008 0.016 -0.031 0.016 -0.063 c 0 -0.02 -0.008 -0.035 -0.016 -0.047 c -0.012 -0.02 -0.027 -0.031 -0.047 -0.031 c -0.012 0 -0.027 0.012 -0.047 0.031 c -0.012 0.012 -0.016 0.027 -0.016 0.047 m 0.352 -0.188 h 0.047 v 0.297 h -0.047 m 0.203 -0.188 c -0.023 0 -0.039 0.012 -0.047 0.031 c -0.012 0.012 -0.016 0.027 -0.016 0.047 c 0 0.031 0.004 0.055 0.016 0.063 c 0.008 0.012 0.023 0.016 0.047 0.016 c 0.008 0 0.02 -0.004 0.031 -0.016 c 0.02 -0.008 0.031 -0.031 0.031 -0.063 c 0 -0.02 -0.012 -0.035 -0.031 -0.047 c -0.012 -0.02 -0.023 -0.031 -0.031 -0.031 m 0 -0.031 c 0.02 0 0.039 0.012 0.063 0.031 c 0.02 0.023 0.031 0.047 0.031 0.078 c 0 0.031 -0.012 0.059 -0.031 0.078 c -0.023 0.023 -0.043 0.031 -0.063 0.031 c -0.031 0 -0.059 -0.008 -0.078 -0.031 c -0.012 -0.02 -0.016 -0.047 -0.016 -0.078 c 0 -0.031 0.004 -0.055 0.016 -0.078 c 0.02 -0.02 0.047 -0.031 0.078 -0.031 m 0.234 0.031 c -0.023 0 -0.039 0.012 -0.047 0.031 c -0.012 0.012 -0.016 0.027 -0.016 0.047 c 0 0.031 0.004 0.055 0.016 0.063 c 0.008 0.012 0.023 0.016 0.047 0.016 c 0.008 0 0.02 -0.004 0.031 -0.016 c 0.02 -0.008 0.031 -0.031 0.031 -0.063 c 0 -0.02 -0.012 -0.035 -0.031 -0.047 c -0.012 -0.02 -0.023 -0.031 -0.031 -0.031 m 0 -0.031 c 0.02 0 0.039 0.012 0.063 0.031 c 0.02 0.023 0.031 0.047 0.031 0.078 c 0 0.031 -0.012 0.059 -0.031 0.078 c -0.023 0.023 -0.043 0.031 -0.063 0.031 c -0.031 0 -0.059 -0.008 -0.078 -0.031 c -0.012 -0.02 -0.016 -0.047 -0.016 -0.078 c 0 -0.031 0.004 -0.055 0.016 -0.078 c 0.02 -0.02 0.047 -0.031 0.078 -0.031 m 0.191 0.188 v 0.109 h -0.047 v -0.297 h 0.047 v 0.031 c 0 -0.008 0.004 -0.016 0.016 -0.016 c 0.008 -0.008 0.023 -0.016 0.047 -0.016 c 0.02 0 0.035 0.012 0.047 0.031 c 0.02 0.023 0.031 0.047 0.031 0.078 c 0 0.031 -0.012 0.059 -0.031 0.078 c -0.012 0.023 -0.027 0.031 -0.047 0.031 c -0.023 0 -0.039 0 -0.047 0 c -0.012 -0.008 -0.016 -0.02 -0.016 -0.031 m 0.109 -0.078 c 0 -0.02 -0.008 -0.035 -0.016 -0.047 c -0.012 -0.02 -0.027 -0.031 -0.047 -0.031 c -0.012 0 -0.023 0.012 -0.031 0.031 c -0.012 0.012 -0.016 0.027 -0.016 0.047 c 0 0.031 0.004 0.055 0.016 0.063 c 0.008 0.012 0.02 0.016 0.031 0.016 c 0.02 0 0.035 -0.004 0.047 -0.016 c 0.008 -0.008 0.016 -0.031 0.016 -0.063 m 0.184 -0.188 c -0.023 0.031 -0.039 0.063 -0.047 0.094 c 0 0.023 0 0.047 0 0.078 c 0 0.031 0 0.063 0 0.094 c 0.008 0.023 0.023 0.047 0.047 0.078 h -0.031 c -0.023 -0.031 -0.039 -0.055 -0.047 -0.078 c -0.012 -0.031 -0.016 -0.063 -0.016 -0.094 c 0 -0.031 0.004 -0.055 0.016 -0.078 c 0.008 -0.031 0.023 -0.063 0.047 -0.094 m 0.086 0 h 0.031 c 0.02 0.031 0.031 0.063 0.031 0.094 c 0.008 0.023 0.016 0.047 0.016 0.078 c 0 0.031 -0.008 0.063 -0.016 0.094 c 0 0.023 -0.012 0.047 -0.031 0.078 h -0.031 c 0.008 -0.031 0.02 -0.055 0.031 -0.078 c 0.008 -0.031 0.016 -0.063 0.016 -0.094 c 0 -0.031 -0.008 -0.055 -0.016 -0.078 c -0.012 -0.031 -0.023 -0.063 -0.031 -0.094"/><path d="m 7.969 11.715 v 0.031 h -0.016 c -0.031 0 -0.055 -0.008 -0.063 -0.016 c -0.012 -0.012 -0.016 -0.027 -0.016 -0.047 v -0.063 c 0 -0.008 -0.008 -0.02 -0.016 -0.031 c -0.012 -0.008 -0.023 -0.016 -0.031 -0.016 h -0.016 v -0.016 h 0.016 c 0.008 0 0.02 -0.004 0.031 -0.016 c 0.008 -0.008 0.016 -0.023 0.016 -0.047 v -0.047 c 0 -0.02 0.004 -0.035 0.016 -0.047 c 0.008 -0.008 0.031 -0.016 0.063 -0.016 h 0.016 v 0.031 h -0.016 c -0.023 0 -0.039 0.008 -0.047 0.016 c 0 0 0 0.008 0 0.016 v 0.063 c 0 0.023 -0.008 0.039 -0.016 0.047 c 0 0 -0.008 0.008 -0.016 0.016 c 0.008 0 0.016 0.008 0.016 0.016 c 0.008 0 0.016 0.012 0.016 0.031 v 0.063 c 0 0.008 0 0.016 0 0.016 c 0.008 0.008 0.023 0.016 0.047 0.016"/><path d="m 7.938 11.988 v -0.109 h 0.047 v 0.297 h -0.047 v -0.031 c -0.012 0.012 -0.023 0.023 -0.031 0.031 c 0 0 -0.012 0 -0.031 0 c -0.023 0 -0.043 -0.008 -0.063 -0.031 c -0.012 -0.02 -0.016 -0.047 -0.016 -0.078 c 0 -0.031 0.004 -0.055 0.016 -0.078 c 0.02 -0.02 0.039 -0.031 0.063 -0.031 c 0.02 0 0.031 0.008 0.031 0.016 c 0.008 0 0.02 0.008 0.031 0.016 m -0.125 0.078 c 0 0.031 0.004 0.055 0.016 0.063 c 0.02 0.012 0.035 0.016 0.047 0.016 c 0.02 0 0.035 -0.004 0.047 -0.016 c 0.008 -0.008 0.016 -0.031 0.016 -0.063 c 0 -0.02 -0.008 -0.035 -0.016 -0.047 c -0.012 -0.02 -0.027 -0.031 -0.047 -0.031 c -0.012 0 -0.027 0.012 -0.047 0.031 c -0.012 0.012 -0.016 0.027 -0.016 0.047 m 0.23 -0.109 h 0.047 v 0.219 h -0.047 m 0 -0.297 h 0.047 v 0.047 h -0.047 m 0.246 0.141 c 0 -0.02 -0.008 -0.035 -0.016 -0.047 c -0.012 -0.02 -0.027 -0.031 -0.047 -0.031 c -0.012 0 -0.027 0.012 -0.047 0.031 c -0.012 0.012 -0.016 0.027 -0.016 0.047 c 0 0.023 0.004 0.043 0.016 0.063 c 0.02 0.012 0.035 0.016 0.047 0.016 c 0.02 0 0.035 -0.004 0.047 -0.016 c 0.008 -0.02 0.016 -0.039 0.016 -0.063 m 0.047 0.078 c 0 0.039 -0.012 0.066 -0.031 0.078 c -0.023 0.02 -0.047 0.031 -0.078 0.031 c -0.012 0 -0.023 0 -0.031 0 c -0.012 0 -0.023 -0.008 -0.031 -0.016 v -0.031 c 0.008 0.008 0.02 0.016 0.031 0.016 c 0.008 0.008 0.02 0.016 0.031 0.016 c 0.02 0 0.035 -0.012 0.047 -0.031 c 0.008 -0.012 0.016 -0.027 0.016 -0.047 v -0.016 c -0.012 0.012 -0.023 0.023 -0.031 0.031 c 0 0 -0.012 0 -0.031 0 c -0.031 0 -0.055 -0.008 -0.063 -0.031 c -0.012 -0.02 -0.016 -0.047 -0.016 -0.078 c 0 -0.031 0.004 -0.055 0.016 -0.078 c 0.008 -0.02 0.031 -0.031 0.063 -0.031 c 0.02 0 0.031 0.008 0.031 0.016 c 0.008 0 0.02 0.008 0.031 0.016 v -0.031 h 0.047 m 0.059 0 h 0.047 v 0.219 h -0.047 m 0 -0.297 h 0.047 v 0.047 h -0.047 m 0.156 -0.031 v 0.063 h 0.063 v 0.031 h -0.063 v 0.109 c 0 0.023 0 0.039 0 0.047 c 0 0 0.008 0 0.031 0 h 0.031 v 0.031 h -0.031 c -0.031 0 -0.055 -0.004 -0.063 -0.016 c -0.012 -0.008 -0.016 -0.031 -0.016 -0.063 v -0.109 h -0.016 v -0.031 h 0.016 v -0.063 m 0.262 0.172 c -0.031 0 -0.055 0.008 -0.063 0.016 c -0.012 0 -0.016 0.012 -0.016 0.031 c 0 0.012 0 0.023 0 0.031 c 0.008 0 0.023 0 0.047 0 c 0.02 0 0.035 -0.004 0.047 -0.016 c 0.008 -0.008 0.016 -0.023 0.016 -0.047 v -0.016 m 0.031 -0.016 v 0.125 h -0.031 v -0.031 c -0.012 0.012 -0.023 0.023 -0.031 0.031 c -0.012 0 -0.027 0 -0.047 0 c -0.023 0 -0.039 -0.004 -0.047 -0.016 c -0.012 -0.008 -0.016 -0.023 -0.016 -0.047 c 0 -0.02 0.004 -0.035 0.016 -0.047 c 0.02 -0.02 0.047 -0.031 0.078 -0.031 h 0.047 c 0 -0.02 -0.008 -0.031 -0.016 -0.031 c -0.012 -0.008 -0.027 -0.016 -0.047 -0.016 c -0.012 0 -0.027 0 -0.047 0 c -0.012 0 -0.023 0.008 -0.031 0.016 v -0.031 c 0.02 -0.008 0.035 -0.016 0.047 -0.016 c 0.008 0 0.02 0 0.031 0 c 0.031 0 0.051 0.012 0.063 0.031 c 0.02 0.012 0.031 0.031 0.031 0.063 m 0.063 -0.172 h 0.047 v 0.297 h -0.047 m 0.094 -0.297 h 0.031 l 0.063 0.25 l 0.063 -0.25 h 0.047 l 0.047 0.25 l 0.063 -0.25 h 0.047 l -0.078 0.297 h -0.047 l -0.063 -0.25 l -0.047 0.25 h -0.063 m 0.449 -0.188 c 0 0 -0.008 0 -0.016 0 c -0.023 0 -0.039 0.012 -0.047 0.031 c -0.012 0.012 -0.016 0.027 -0.016 0.047 v 0.109 h -0.047 v -0.219 h 0.047 v 0.031 c 0 -0.008 0.004 -0.016 0.016 -0.016 c 0.008 -0.008 0.023 -0.016 0.047 -0.016 c 0.008 0 0.016 0 0.016 0 m 0.031 0 h 0.047 v 0.219 h -0.047 m 0 -0.297 h 0.047 v 0.047 h -0.047 m 0.156 -0.031 v 0.063 h 0.063 v 0.031 h -0.063 v 0.109 c 0 0.023 0 0.039 0 0.047 c 0 0 0.008 0 0.031 0 h 0.031 v 0.031 h -0.031 c -0.031 0 -0.055 -0.004 -0.063 -0.016 c -0.012 -0.008 -0.016 -0.031 -0.016 -0.063 v -0.109 h -0.016 v -0.031 h 0.016 v -0.063 m 0.34 0.172 v 0.016 h -0.156 c 0 0.023 0.004 0.039 0.016 0.047 c 0.008 0.012 0.031 0.016 0.063 0.016 c 0.008 0 0.02 0 0.031 0 c 0.008 0 0.023 -0.004 0.047 -0.016 v 0.031 c -0.023 0.012 -0.039 0.016 -0.047 0.016 c -0.012 0 -0.023 0 -0.031 0 c -0.043 0 -0.074 -0.008 -0.094 -0.031 c -0.012 -0.02 -0.016 -0.047 -0.016 -0.078 c 0 -0.031 0.004 -0.055 0.016 -0.078 c 0.02 -0.02 0.047 -0.031 0.078 -0.031 c 0.031 0 0.051 0.012 0.063 0.031 c 0.02 0.012 0.031 0.039 0.031 0.078 m -0.031 -0.016 c 0 -0.02 -0.008 -0.035 -0.016 -0.047 c -0.012 -0.008 -0.027 -0.016 -0.047 -0.016 c -0.023 0 -0.039 0.008 -0.047 0.016 c -0.012 0.012 -0.016 0.027 -0.016 0.047 m 0.301 -0.172 c -0.023 0.031 -0.039 0.063 -0.047 0.094 c 0 0.023 0 0.047 0 0.078 c 0 0.031 0 0.063 0 0.094 c 0.008 0.023 0.023 0.047 0.047 0.078 h -0.031 c -0.023 -0.031 -0.039 -0.055 -0.047 -0.078 c -0.012 -0.031 -0.016 -0.063 -0.016 -0.094 c 0 -0.031 0.004 -0.055 0.016 -0.078 c 0.008 -0.031 0.023 -0.063 0.047 -0.094 m 0.086 0 h 0.047 v 0.297 h -0.047 m 0.297 -0.109 v 0.016 h -0.156 c 0 0.023 0.004 0.039 0.016 0.047 c 0.008 0.012 0.031 0.016 0.063 0.016 c 0.008 0 0.02 0 0.031 0 c 0.008 0 0.023 -0.004 0.047 -0.016 v 0.031 c -0.023 0.012 -0.039 0.016 -0.047 0.016 c -0.012 0 -0.023 0 -0.031 0 c -0.043 0 -0.074 -0.008 -0.094 -0.031 c -0.012 -0.02 -0.016 -0.047 -0.016 -0.078 c 0 -0.031 0.004 -0.055 0.016 -0.078 c 0.02 -0.02 0.047 -0.031 0.078 -0.031 c 0.031 0 0.051 0.012 0.063 0.031 c 0.02 0.012 0.031 0.039 0.031 0.078 m -0.031 -0.016 c 0 -0.02 -0.008 -0.035 -0.016 -0.047 c -0.012 -0.008 -0.027 -0.016 -0.047 -0.016 c -0.023 0 -0.039 0.008 -0.047 0.016 c -0.012 0.012 -0.016 0.027 -0.016 0.047 m 0.348 -0.063 v -0.109 h 0.047 v 0.297 h -0.047 v -0.031 c -0.012 0.012 -0.023 0.023 -0.031 0.031 c 0 0 -0.012 0 -0.031 0 c -0.023 0 -0.043 -0.008 -0.063 -0.031 c -0.012 -0.02 -0.016 -0.047 -0.016 -0.078 c 0 -0.031 0.004 -0.055 0.016 -0.078 c 0.02 -0.02 0.039 -0.031 0.063 -0.031 c 0.02 0 0.031 0.008 0.031 0.016 c 0.008 0 0.02 0.008 0.031 0.016 m -0.125 0.078 c 0 0.031 0.004 0.055 0.016 0.063 c 0.02 0.012 0.035 0.016 0.047 0.016 c 0.02 0 0.035 -0.004 0.047 -0.016 c 0.008 -0.008 0.016 -0.031 0.016 -0.063 c 0 -0.02 -0.008 -0.035 -0.016 -0.047 c -0.012 -0.02 -0.027 -0.031 -0.047 -0.031 c -0.012 0 -0.027 0.012 -0.047 0.031 c -0.012 0.012 -0.016 0.027 -0.016 0.047 m 0.277 -0.141 v 0.109 h 0.047 c 0.02 0 0.035 -0.004 0.047 -0.016 c 0.008 -0.008 0.016 -0.023 0.016 -0.047 c 0 -0.02 -0.008 -0.031 -0.016 -0.031 c -0.012 -0.008 -0.027 -0.016 -0.047 -0.016 m -0.094 -0.047 h 0.094 c 0.031 0 0.051 0.012 0.063 0.031 c 0.02 0.012 0.031 0.031 0.031 0.063 c 0 0.031 -0.012 0.059 -0.031 0.078 c -0.012 0.012 -0.031 0.016 -0.063 0.016 h -0.047 v 0.109 h -0.047 m 0.227 -0.219 h 0.047 v 0.219 h -0.047 m 0 -0.297 h 0.047 v 0.047 h -0.047 m 0.297 0.125 v 0.125 h -0.047 v -0.125 c 0 -0.02 -0.008 -0.035 -0.016 -0.047 c 0 -0.008 -0.008 -0.016 -0.016 -0.016 c -0.023 0 -0.039 0.008 -0.047 0.016 c -0.012 0.012 -0.016 0.027 -0.016 0.047 v 0.125 h -0.047 v -0.219 h 0.047 v 0.031 c 0 -0.008 0.004 -0.016 0.016 -0.016 c 0.008 -0.008 0.023 -0.016 0.047 -0.016 c 0.02 0 0.035 0.012 0.047 0.031 c 0.02 0.012 0.031 0.031 0.031 0.063 m 0.07 0.078 h 0.031 v 0.031 l -0.031 0.063 h -0.016 l 0.016 -0.063 m 0.23 -0.281 h 0.047 v 0.125 h 0.141 v -0.125 h 0.031 v 0.297 h -0.031 v -0.141 h -0.141 v 0.141 h -0.047 m 0.293 -0.297 h 0.047 v 0.297 h -0.047 m 0.316 -0.047 v -0.063 h -0.063 v -0.031 h 0.094 v 0.109 c -0.012 0.012 -0.027 0.023 -0.047 0.031 c -0.023 0 -0.043 0 -0.063 0 c -0.043 0 -0.074 -0.008 -0.094 -0.031 c -0.023 -0.031 -0.031 -0.066 -0.031 -0.109 c 0 -0.051 0.008 -0.086 0.031 -0.109 c 0.02 -0.031 0.051 -0.047 0.094 -0.047 c 0.02 0 0.035 0.008 0.047 0.016 c 0.02 0 0.039 0.008 0.063 0.016 v 0.047 c -0.023 -0.008 -0.043 -0.02 -0.063 -0.031 c -0.012 -0.008 -0.027 -0.016 -0.047 -0.016 c -0.031 0 -0.059 0.012 -0.078 0.031 c -0.012 0.023 -0.016 0.055 -0.016 0.094 c 0 0.031 0.004 0.059 0.016 0.078 c 0.02 0.023 0.047 0.031 0.078 0.031 c 0.02 0 0.035 0 0.047 0 c 0.008 0 0.02 -0.004 0.031 -0.016 m 0.098 -0.25 h 0.047 v 0.125 h 0.141 v -0.125 h 0.031 v 0.297 h -0.031 v -0.141 h -0.141 v 0.141 h -0.047 m 0.289 -0.297 h 0.031 c 0.02 0.031 0.031 0.063 0.031 0.094 c 0.008 0.023 0.016 0.047 0.016 0.078 c 0 0.031 -0.008 0.063 -0.016 0.094 c 0 0.023 -0.012 0.047 -0.031 0.078 h -0.031 c 0.008 -0.031 0.02 -0.055 0.031 -0.078 c 0.008 -0.031 0.016 -0.063 0.016 -0.094 c 0 -0.031 -0.008 -0.055 -0.016 -0.078 c -0.012 -0.031 -0.023 -0.063 -0.031 -0.094 m 0.168 0.094 h 0.031 v 0.047 h -0.031 m 0 0.109 h 0.031 v 0.031 l -0.031 0.063 h -0.016 l 0.016 -0.063"/><path d="m 7.938 12.48 v -0.109 h 0.047 v 0.297 h -0.047 v -0.031 c -0.012 0.012 -0.023 0.023 -0.031 0.031 c 0 0 -0.012 0 -0.031 0 c -0.023 0 -0.043 -0.008 -0.063 -0.031 c -0.012 -0.02 -0.016 -0.047 -0.016 -0.078 c 0 -0.031 0.004 -0.055 0.016 -0.078 c 0.02 -0.02 0.039 -0.031 0.063 -0.031 c 0.02 0 0.031 0.008 0.031 0.016 c 0.008 0 0.02 0.008 0.031 0.016 m -0.125 0.078 c 0 0.031 0.004 0.055 0.016 0.063 c 0.02 0.012 0.035 0.016 0.047 0.016 c 0.02 0 0.035 -0.004 0.047 -0.016 c 0.008 -0.008 0.016 -0.031 0.016 -0.063 c 0 -0.02 -0.008 -0.035 -0.016 -0.047 c -0.012 -0.02 -0.027 -0.031 -0.047 -0.031 c -0.012 0 -0.027 0.012 -0.047 0.031 c -0.012 0.012 -0.016 0.027 -0.016 0.047 m 0.23 -0.109 h 0.047 v 0.219 h -0.047 m 0 -0.297 h 0.047 v 0.047 h -0.047 m 0.246 0.141 c 0 -0.02 -0.008 -0.035 -0.016 -0.047 c -0.012 -0.02 -0.027 -0.031 -0.047 -0.031 c -0.012 0 -0.027 0.012 -0.047 0.031 c -0.012 0.012 -0.016 0.027 -0.016 0.047 c 0 0.023 0.004 0.043 0.016 0.063 c 0.02 0.012 0.035 0.016 0.047 0.016 c 0.02 0 0.035 -0.004 0.047 -0.016 c 0.008 -0.02 0.016 -0.039 0.016 -0.063 m 0.047 0.078 c 0 0.039 -0.012 0.066 -0.031 0.078 c -0.023 0.02 -0.047 0.031 -0.078 0.031 c -0.012 0 -0.023 0 -0.031 0 c -0.012 0 -0.023 -0.008 -0.031 -0.016 v -0.031 c 0.008 0.008 0.02 0.016 0.031 0.016 c 0.008 0.008 0.02 0.016 0.031 0.016 c 0.02 0 0.035 -0.012 0.047 -0.031 c 0.008 -0.012 0.016 -0.027 0.016 -0.047 v -0.016 c -0.012 0.012 -0.023 0.023 -0.031 0.031 c 0 0 -0.012 0 -0.031 0 c -0.031 0 -0.055 -0.008 -0.063 -0.031 c -0.012 -0.02 -0.016 -0.047 -0.016 -0.078 c 0 -0.031 0.004 -0.055 0.016 -0.078 c 0.008 -0.02 0.031 -0.031 0.063 -0.031 c 0.02 0 0.031 0.008 0.031 0.016 c 0.008 0 0.02 0.008 0.031 0.016 v -0.031 h 0.047 m 0.059 0 h 0.047 v 0.219 h -0.047 m 0 -0.297 h 0.047 v 0.047 h -0.047 m 0.156 -0.031 v 0.063 h 0.063 v 0.031 h -0.063 v 0.109 c 0 0.023 0 0.039 0 0.047 c 0 0 0.008 0 0.031 0 h 0.031 v 0.031 h -0.031 c -0.031 0 -0.055 -0.004 -0.063 -0.016 c -0.012 -0.008 -0.016 -0.031 -0.016 -0.063 v -0.109 h -0.016 v -0.031 h 0.016 v -0.063 m 0.262 0.172 c -0.031 0 -0.055 0.008 -0.063 0.016 c -0.012 0 -0.016 0.012 -0.016 0.031 c 0 0.012 0 0.023 0 0.031 c 0.008 0 0.023 0 0.047 0 c 0.02 0 0.035 -0.004 0.047 -0.016 c 0.008 -0.008 0.016 -0.023 0.016 -0.047 v -0.016 m 0.031 -0.016 v 0.125 h -0.031 v -0.031 c -0.012 0.012 -0.023 0.023 -0.031 0.031 c -0.012 0 -0.027 0 -0.047 0 c -0.023 0 -0.039 -0.004 -0.047 -0.016 c -0.012 -0.008 -0.016 -0.023 -0.016 -0.047 c 0 -0.02 0.004 -0.035 0.016 -0.047 c 0.02 -0.02 0.047 -0.031 0.078 -0.031 h 0.047 c 0 -0.02 -0.008 -0.031 -0.016 -0.031 c -0.012 -0.008 -0.027 -0.016 -0.047 -0.016 c -0.012 0 -0.027 0 -0.047 0 c -0.012 0 -0.023 0.008 -0.031 0.016 v -0.031 c 0.02 -0.008 0.035 -0.016 0.047 -0.016 c 0.008 0 0.02 0 0.031 0 c 0.031 0 0.051 0.012 0.063 0.031 c 0.02 0.012 0.031 0.031 0.031 0.063 m 0.063 -0.172 h 0.047 v 0.297 h -0.047 m 0.094 -0.297 h 0.031 l 0.063 0.25 l 0.063 -0.25 h 0.047 l 0.047 0.25 l 0.063 -0.25 h 0.047 l -0.078 0.297 h -0.047 l -0.063 -0.25 l -0.047 0.25 h -0.063 m 0.449 -0.188 c 0 0 -0.008 0 -0.016 0 c -0.023 0 -0.039 0.012 -0.047 0.031 c -0.012 0.012 -0.016 0.027 -0.016 0.047 v 0.109 h -0.047 v -0.219 h 0.047 v 0.031 c 0 -0.008 0.004 -0.016 0.016 -0.016 c 0.008 -0.008 0.023 -0.016 0.047 -0.016 c 0.008 0 0.016 0 0.016 0 m 0.031 0 h 0.047 v 0.219 h -0.047 m 0 -0.297 h 0.047 v 0.047 h -0.047 m 0.156 -0.031 v 0.063 h 0.063 v 0.031 h -0.063 v 0.109 c 0 0.023 0 0.039 0 0.047 c 0 0 0.008 0 0.031 0 h 0.031 v 0.031 h -0.031 c -0.031 0 -0.055 -0.004 -0.063 -0.016 c -0.012 -0.008 -0.016 -0.031 -0.016 -0.063 v -0.109 h -0.016 v -0.031 h 0.016 v -0.063 m 0.34 0.172 v 0.016 h -0.156 c 0 0.023 0.004 0.039 0.016 0.047 c 0.008 0.012 0.031 0.016 0.063 0.016 c 0.008 0 0.02 0 0.031 0 c 0.008 0 0.023 -0.004 0.047 -0.016 v 0.031 c -0.023 0.012 -0.039 0.016 -0.047 0.016 c -0.012 0 -0.023 0 -0.031 0 c -0.043 0 -0.074 -0.008 -0.094 -0.031 c -0.012 -0.02 -0.016 -0.047 -0.016 -0.078 c 0 -0.031 0.004 -0.055 0.016 -0.078 c 0.02 -0.02 0.047 -0.031 0.078 -0.031 c 0.031 0 0.051 0.012 0.063 0.031 c 0.02 0.012 0.031 0.039 0.031 0.078 m -0.031 -0.016 c 0 -0.02 -0.008 -0.035 -0.016 -0.047 c -0.012 -0.008 -0.027 -0.016 -0.047 -0.016 c -0.023 0 -0.039 0.008 -0.047 0.016 c -0.012 0.012 -0.016 0.027 -0.016 0.047 m 0.301 -0.172 c -0.023 0.031 -0.039 0.063 -0.047 0.094 c 0 0.023 0 0.047 0 0.078 c 0 0.031 0 0.063 0 0.094 c 0.008 0.023 0.023 0.047 0.047 0.078 h -0.031 c -0.023 -0.031 -0.039 -0.055 -0.047 -0.078 c -0.012 -0.031 -0.016 -0.063 -0.016 -0.094 c 0 -0.031 0.004 -0.055 0.016 -0.078 c 0.008 -0.031 0.023 -0.063 0.047 -0.094 m 0.086 0 h 0.047 v 0.297 h -0.047 m 0.297 -0.109 v 0.016 h -0.156 c 0 0.023 0.004 0.039 0.016 0.047 c 0.008 0.012 0.031 0.016 0.063 0.016 c 0.008 0 0.02 0 0.031 0 c 0.008 0 0.023 -0.004 0.047 -0.016 v 0.031 c -0.023 0.012 -0.039 0.016 -0.047 0.016 c -0.012 0 -0.023 0 -0.031 0 c -0.043 0 -0.074 -0.008 -0.094 -0.031 c -0.012 -0.02 -0.016 -0.047 -0.016 -0.078 c 0 -0.031 0.004 -0.055 0.016 -0.078 c 0.02 -0.02 0.047 -0.031 0.078 -0.031 c 0.031 0 0.051 0.012 0.063 0.031 c 0.02 0.012 0.031 0.039 0.031 0.078 m -0.031 -0.016 c 0 -0.02 -0.008 -0.035 -0.016 -0.047 c -0.012 -0.008 -0.027 -0.016 -0.047 -0.016 c -0.023 0 -0.039 0.008 -0.047 0.016 c -0.012 0.012 -0.016 0.027 -0.016 0.047 m 0.348 -0.063 v -0.109 h 0.047 v 0.297 h -0.047 v -0.031 c -0.012 0.012 -0.023 0.023 -0.031 0.031 c 0 0 -0.012 0 -0.031 0 c -0.023 0 -0.043 -0.008 -0.063 -0.031 c -0.012 -0.02 -0.016 -0.047 -0.016 -0.078 c 0 -0.031 0.004 -0.055 0.016 -0.078 c 0.02 -0.02 0.039 -0.031 0.063 -0.031 c 0.02 0 0.031 0.008 0.031 0.016 c 0.008 0 0.02 0.008 0.031 0.016 m -0.125 0.078 c 0 0.031 0.004 0.055 0.016 0.063 c 0.02 0.012 0.035 0.016 0.047 0.016 c 0.02 0 0.035 -0.004 0.047 -0.016 c 0.008 -0.008 0.016 -0.031 0.016 -0.063 c 0 -0.02 -0.008 -0.035 -0.016 -0.047 c -0.012 -0.02 -0.027 -0.031 -0.047 -0.031 c -0.012 0 -0.027 0.012 -0.047 0.031 c -0.012 0.012 -0.016 0.027 -0.016 0.047 m 0.277 -0.141 v 0.109 h 0.047 c 0.02 0 0.035 -0.004 0.047 -0.016 c 0.008 -0.008 0.016 -0.023 0.016 -0.047 c 0 -0.02 -0.008 -0.031 -0.016 -0.031 c -0.012 -0.008 -0.027 -0.016 -0.047 -0.016 m -0.094 -0.047 h 0.094 c 0.031 0 0.051 0.012 0.063 0.031 c 0.02 0.012 0.031 0.031 0.031 0.063 c 0 0.031 -0.012 0.059 -0.031 0.078 c -0.012 0.012 -0.031 0.016 -0.063 0.016 h -0.047 v 0.109 h -0.047 m 0.227 -0.219 h 0.047 v 0.219 h -0.047 m 0 -0.297 h 0.047 v 0.047 h -0.047 m 0.297 0.125 v 0.125 h -0.047 v -0.125 c 0 -0.02 -0.008 -0.035 -0.016 -0.047 c 0 -0.008 -0.008 -0.016 -0.016 -0.016 c -0.023 0 -0.039 0.008 -0.047 0.016 c -0.012 0.012 -0.016 0.027 -0.016 0.047 v 0.125 h -0.047 v -0.219 h 0.047 v 0.031 c 0 -0.008 0.004 -0.016 0.016 -0.016 c 0.008 -0.008 0.023 -0.016 0.047 -0.016 c 0.02 0 0.035 0.012 0.047 0.031 c 0.02 0.012 0.031 0.031 0.031 0.063 m 0.07 0.078 h 0.031 v 0.031 l -0.031 0.063 h -0.016 l 0.016 -0.063 m 0.23 -0.281 h 0.047 v 0.266 h 0.141 v 0.031 h -0.188 m 0.332 -0.266 c -0.031 0 -0.059 0.012 -0.078 0.031 c -0.012 0.023 -0.016 0.055 -0.016 0.094 c 0 0.031 0.004 0.059 0.016 0.078 c 0.02 0.023 0.047 0.031 0.078 0.031 c 0.02 0 0.035 -0.008 0.047 -0.031 c 0.02 -0.02 0.031 -0.047 0.031 -0.078 c 0 -0.039 -0.012 -0.07 -0.031 -0.094 c -0.012 -0.02 -0.027 -0.031 -0.047 -0.031 m 0 -0.031 c 0.039 0 0.07 0.016 0.094 0.047 c 0.02 0.031 0.031 0.07 0.031 0.109 c 0 0.043 -0.012 0.078 -0.031 0.109 c -0.023 0.023 -0.055 0.031 -0.094 0.031 c -0.043 0 -0.074 -0.008 -0.094 -0.031 c -0.023 -0.031 -0.031 -0.066 -0.031 -0.109 c 0 -0.039 0.008 -0.078 0.031 -0.109 c 0.02 -0.031 0.051 -0.047 0.094 -0.047 m 0.164 0 h 0.031 l 0.063 0.25 l 0.063 -0.25 h 0.047 l 0.047 0.25 l 0.063 -0.25 h 0.047 l -0.078 0.297 h -0.047 l -0.063 -0.25 l -0.047 0.25 h -0.063 m 0.336 -0.297 h 0.031 c 0.02 0.031 0.031 0.063 0.031 0.094 c 0.008 0.023 0.016 0.047 0.016 0.078 c 0 0.031 -0.008 0.063 -0.016 0.094 c 0 0.023 -0.012 0.047 -0.031 0.078 h -0.031 c 0.008 -0.031 0.02 -0.055 0.031 -0.078 c 0.008 -0.031 0.016 -0.063 0.016 -0.094 c 0 -0.031 -0.008 -0.055 -0.016 -0.078 c -0.012 -0.031 -0.023 -0.063 -0.031 -0.094 m 0.168 0.094 h 0.031 v 0.047 h -0.031 m 0 0.109 h 0.031 v 0.031 l -0.031 0.063 h -0.016 l 0.016 -0.063"/><path d="m 7.813 13.191 h 0.016 c 0.02 0 0.031 -0.008 0.031 -0.016 c 0.008 0 0.016 -0.008 0.016 -0.016 v -0.063 c 0 -0.02 0 -0.031 0 -0.031 c 0.008 -0.008 0.02 -0.016 0.031 -0.016 c -0.012 -0.008 -0.023 -0.016 -0.031 -0.016 c 0 -0.008 0 -0.023 0 -0.047 v -0.063 c 0 -0.008 -0.008 -0.016 -0.016 -0.016 c 0 -0.008 -0.012 -0.016 -0.031 -0.016 h -0.016 v -0.031 h 0.016 c 0.031 0 0.051 0.008 0.063 0.016 c 0.008 0.012 0.016 0.027 0.016 0.047 v 0.047 c 0 0.023 0 0.039 0 0.047 c 0.008 0.012 0.023 0.016 0.047 0.016 h 0.016 v 0.016 h -0.016 c -0.023 0 -0.039 0.008 -0.047 0.016 c 0 0.012 0 0.023 0 0.031 v 0.063 c 0 0.02 -0.008 0.035 -0.016 0.047 c -0.012 0.008 -0.031 0.016 -0.063 0.016 h -0.016"/></g><path d="m 7.824 7.05 c -0.211 0 -0.375 0.168 -0.375 0.379 v 0.285 c 0 -0.215 0.164 -0.383 0.375 -0.383 h 8.555 c 0.207 0 0.371 0.168 0.371 0.383 v -0.285 c 0 -0.211 -0.164 -0.379 -0.371 -0.379" fill="url(#3)"/><path d="m 7.824 16.531 c -0.211 0 -0.375 -0.168 -0.375 -0.379 v -0.281 c 0 0.211 0.164 0.379 0.375 0.379 h 8.555 c 0.207 0 0.371 -0.168 0.371 -0.379 v 0.281 c 0 0.211 -0.164 0.379 -0.371 0.379" fill="url(#4)"/><path d="m 16.75 16.15 c 0 0.211 -0.164 0.379 -0.371 0.379 h -0.277 c 0.207 0 0.375 -0.168 0.375 -0.379 v -8.723 c 0 -0.211 -0.168 -0.383 -0.375 -0.383 h 0.277 c 0.207 0 0.371 0.172 0.371 0.383" fill="url(#5)"/><path d="m 7.449 16.15 c 0 0.211 0.164 0.379 0.375 0.379 h 0.273 c -0.207 0 -0.371 -0.168 -0.371 -0.379 v -8.723 c 0 -0.211 0.164 -0.383 0.371 -0.383 h -0.273 c -0.211 0 -0.375 0.172 -0.375 0.383" fill="url(#6)"/></svg>