<svg xmlns="http://www.w3.org/2000/svg" viewBox="0 0 24 24"><path d="m 4.945 21.66 c 18.05 11.996 29.16 -26.26 5.832 -21.2 c -9.637 2.16 -15.488 15.691 -5.832 21.2" fill="#e5e5fa"/><path d="m 6.289 5.844 h 11.75 v 12.11 h -11.75" fill="#fff" fill-opacity="0.988"/><path d="m 6.223 11.953 v -6.176 h 12 v 12.355 h -12 m 9.797 -0.191 c -0.031 -0.055 0.031 -0.098 0.141 -0.098 c 0.113 0 0.172 0.043 0.141 0.102 c -0.043 0.066 0.242 0.09 0.859 0.07 l 0.922 -0.027 l 0.027 -0.949 c 0.02 -0.637 -0.004 -0.93 -0.07 -0.887 c -0.055 0.035 -0.098 -0.027 -0.098 -0.145 c 0 -0.109 0.043 -0.176 0.094 -0.145 c 0.059 0.039 0.094 -0.27 0.094 -0.859 v -0.918 l -1.039 0.02 l -1.039 0.023 l 0.051 -0.258 c 0.07 -0.363 -0.023 -0.398 -0.336 -0.129 c -0.348 0.301 -0.82 0.32 -1.066 0.039 c -0.336 -0.383 -0.461 -0.395 -0.84 -0.086 c -0.484 0.395 -0.836 0.379 -1.285 -0.059 c -0.477 -0.465 -0.484 -0.875 -0.027 -1.348 c 0.445 -0.457 0.895 -0.465 1.336 -0.023 l 0.313 0.309 l 0.254 -0.273 l 0.258 -0.273 l -0.293 0.055 l -0.297 0.059 l 0.051 -0.809 c 0.027 -0.441 0.02 -0.922 -0.016 -1.063 l -0.063 -0.262 l -0.957 0.027 l -0.957 0.023 l 0.016 -0.258 c 0.023 -0.309 -0.152 -0.34 -0.391 -0.066 c -0.277 0.316 -0.777 0.258 -1.195 -0.141 c -0.438 -0.414 -0.477 -0.848 -0.117 -1.25 c 0.293 -0.328 0.293 -0.359 -0.016 -0.324 l -0.25 0.027 l 0.023 -0.992 l 0.023 -0.988 h -3.766 v 2.352 l 0.262 -0.258 c 0.387 -0.383 0.813 -0.352 1.262 0.086 c 0.461 0.449 0.488 0.902 0.07 1.277 c -0.371 0.336 -0.355 0.441 0.055 0.359 c 0.336 -0.063 0.336 -0.063 0.273 0.23 c -0.074 0.359 0.035 0.379 0.309 0.055 c 0.316 -0.371 0.813 -0.332 1.262 0.105 c 0.461 0.449 0.484 0.883 0.07 1.262 c -0.363 0.336 -0.355 0.445 0.027 0.371 l 0.305 -0.063 l -0.035 1.02 l -0.035 1.016 l 0.254 0.063 c 0.141 0.039 0.598 0.047 1.02 0.02 l 0.766 -0.051 l -0.035 0.965 c -0.031 0.746 -0.008 0.984 0.09 1.047 c 0.07 0.043 0.527 0.066 1.02 0.047 l 0.891 -0.031 l -0.02 1.051 l -0.02 1.047 h 0.891 c 0.57 0 0.871 -0.031 0.836 -0.094 m 0.09 -1.84 c -0.086 -0.148 0.035 -0.246 0.156 -0.121 c 0.066 0.07 0.066 0.125 0.004 0.164 c -0.055 0.035 -0.125 0.016 -0.16 -0.043 m -1.969 -2.027 c -0.086 -0.148 0.035 -0.246 0.156 -0.121 c 0.066 0.07 0.066 0.125 0.004 0.164 c -0.055 0.035 -0.125 0.016 -0.16 -0.043 m -1.969 -2.027 c -0.086 -0.148 0.035 -0.246 0.156 -0.121 c 0.066 0.07 0.066 0.125 0.004 0.164 c -0.055 0.035 -0.125 0.016 -0.16 -0.043 m -1.969 -2.027 c -0.086 -0.148 0.035 -0.242 0.156 -0.121 c 0.066 0.07 0.066 0.125 0.004 0.164 c -0.055 0.035 -0.125 0.016 -0.16 -0.043 m -1.961 -2.02 c -0.027 -0.047 -0.012 -0.117 0.035 -0.145 c 0.051 -0.031 0.113 -0.016 0.145 0.031 c 0.031 0.051 0.016 0.117 -0.035 0.148 c -0.047 0.031 -0.113 0.016 -0.145 -0.035 m 7.859 4.188 c -0.055 -0.145 -0.316 -0.199 -0.316 -0.063 c 0 0.121 0.211 0.305 0.293 0.254 c 0.043 -0.027 0.051 -0.113 0.023 -0.191 m -7.254 -0.301 c 0 -0.098 -0.297 -0.418 -0.391 -0.418 c -0.125 0 -0.09 0.363 0.039 0.418 c 0.176 0.074 0.352 0.074 0.352 0 m -1.969 -2.043 c 0 -0.047 -0.082 -0.16 -0.188 -0.258 c -0.184 -0.172 -0.188 -0.168 -0.188 0.082 c 0 0.191 0.047 0.258 0.188 0.258 c 0.105 0 0.188 -0.039 0.188 -0.082 m 5.309 -1.617 c -0.031 -0.082 -0.059 -0.172 -0.059 -0.191 c 0 -0.023 -0.063 -0.043 -0.141 -0.043 c -0.168 0 -0.18 0.113 -0.027 0.273 c 0.16 0.164 0.293 0.141 0.227 -0.039" fill="#b1b2ed"/><path d="m 6.223 11.953 v -6.176 h 12 v 12.355 h -12 m 9.797 -0.191 c -0.031 -0.055 0.031 -0.098 0.141 -0.098 c 0.113 0 0.172 0.043 0.141 0.102 c -0.043 0.066 0.242 0.09 0.859 0.07 l 0.922 -0.027 l 0.027 -0.949 c 0.02 -0.637 -0.004 -0.93 -0.07 -0.887 c -0.055 0.035 -0.098 -0.027 -0.098 -0.145 c 0 -0.109 0.043 -0.176 0.094 -0.145 c 0.055 0.035 0.09 -0.645 0.09 -1.875 c 0 -1.465 -0.027 -1.938 -0.113 -1.945 c -0.09 -0.004 -0.09 -0.016 0 -0.055 c 0.082 -0.035 0.117 -0.332 0.117 -1.01 c 0 -0.695 -0.031 -0.957 -0.117 -0.965 c -0.094 -0.004 -0.094 -0.016 0 -0.055 c 0.07 -0.027 0.113 -0.211 0.109 -0.449 c -0.008 -0.301 -0.027 -0.348 -0.07 -0.18 c -0.035 0.121 -0.094 0.219 -0.129 0.219 c -0.039 0 -0.223 0.066 -0.406 0.145 c -0.5 0.215 -1.18 -0.09 -1.301 -0.586 c -0.07 -0.289 0.137 -0.746 0.434 -0.961 c 0.301 -0.215 0.852 -0.195 1.059 0.039 c 0.09 0.105 0.199 0.172 0.242 0.145 c 0.039 -0.027 0.09 0.07 0.113 0.219 c 0.027 0.191 0.043 0.148 0.055 -0.145 c 0.008 -0.266 -0.027 -0.41 -0.105 -0.418 c -0.094 -0.004 -0.094 -0.016 0 -0.055 c 0.082 -0.035 0.117 -0.328 0.117 -1 v -0.953 l -1.148 0.012 c -0.633 0.008 -1.18 0.031 -1.223 0.055 c -0.039 0.02 0.035 0.168 0.164 0.328 c 0.328 0.398 0.313 0.773 -0.051 1.086 c -0.395 0.344 -0.664 0.395 -1.066 0.199 c -0.457 -0.227 -0.668 -0.641 -0.516 -1.023 c 0.066 -0.156 0.195 -0.344 0.293 -0.414 c 0.152 -0.109 0.16 -0.137 0.035 -0.184 c -0.078 -0.031 -1.355 -0.043 -2.84 -0.023 c -1.48 0.02 -3.277 0.039 -3.984 0.043 l -1.289 0.012 v 2.352 l 0.262 -0.258 c 0.387 -0.383 0.813 -0.352 1.262 0.086 c 0.461 0.449 0.488 0.902 0.07 1.277 c -0.371 0.336 -0.355 0.441 0.055 0.359 c 0.336 -0.063 0.336 -0.063 0.273 0.234 c -0.074 0.355 0.035 0.375 0.309 0.051 c 0.316 -0.371 0.813 -0.332 1.262 0.105 c 0.461 0.449 0.484 0.883 0.07 1.262 c -0.363 0.336 -0.355 0.445 0.027 0.371 l 0.305 -0.059 l -0.07 2.031 l 0.254 0.063 c 0.141 0.039 0.598 0.047 1.02 0.02 l 0.766 -0.051 l -0.035 0.965 c -0.031 0.746 -0.008 0.984 0.09 1.047 c 0.07 0.043 0.527 0.066 1.02 0.047 l 0.891 -0.031 l -0.039 2.102 h 0.891 c 0.57 0 0.871 -0.035 0.836 -0.098 m 0.047 -1.934 c 0 -0.051 0.039 -0.094 0.09 -0.094 c 0.047 0 0.113 0.043 0.145 0.094 c 0.031 0.055 -0.008 0.098 -0.086 0.098 c -0.082 0 -0.148 -0.043 -0.148 -0.098 m -1.926 -1.934 c -0.086 -0.148 0.035 -0.246 0.156 -0.121 c 0.066 0.07 0.066 0.125 0.004 0.164 c -0.055 0.035 -0.125 0.016 -0.16 -0.043 m -1.215 -0.375 c -0.574 -0.242 -0.699 -0.852 -0.27 -1.297 c 0.418 -0.43 1.012 -0.316 1.348 0.25 c 0.16 0.273 0.164 0.324 0.035 0.582 c -0.078 0.152 -0.285 0.34 -0.461 0.418 c -0.355 0.152 -0.391 0.156 -0.652 0.047 m 1.93 -0.031 c -0.121 -0.066 -0.313 -0.242 -0.418 -0.387 c -0.188 -0.262 -0.188 -0.277 -0.023 -0.594 c 0.094 -0.18 0.309 -0.402 0.473 -0.492 c 0.281 -0.156 0.32 -0.156 0.605 -0.008 c 0.164 0.09 0.383 0.297 0.48 0.465 c 0.16 0.273 0.164 0.324 0.035 0.582 c -0.078 0.152 -0.285 0.344 -0.461 0.418 c -0.383 0.164 -0.406 0.164 -0.691 0.016 m -2.684 -1.621 c -0.086 -0.148 0.035 -0.246 0.156 -0.121 c 0.066 0.07 0.066 0.125 0.004 0.164 c -0.055 0.035 -0.125 0.016 -0.16 -0.043 m -1.961 -2.02 c -0.027 -0.047 -0.012 -0.117 0.035 -0.145 c 0.051 -0.031 0.113 -0.016 0.145 0.031 c 0.031 0.051 0.016 0.117 -0.035 0.148 c -0.047 0.031 -0.113 0.016 -0.145 -0.035 m 0.793 -0.359 c -0.316 -0.129 -0.563 -0.461 -0.563 -0.758 c 0 -0.309 0.336 -0.727 0.688 -0.855 c 0.219 -0.078 0.645 0.152 0.902 0.492 c 0.16 0.207 0.215 0.234 0.262 0.125 c 0.027 -0.082 0.172 -0.266 0.313 -0.41 c 0.383 -0.395 0.887 -0.375 1.285 0.051 c 0.402 0.426 0.406 0.828 0.012 1.168 c -0.391 0.34 -0.973 0.344 -1.32 0.016 c -0.133 -0.133 -0.266 -0.293 -0.293 -0.363 c -0.031 -0.086 -0.133 -0.023 -0.313 0.188 c -0.266 0.313 -0.688 0.461 -0.973 0.348 m -2.762 -1.668 c -0.027 -0.047 -0.012 -0.113 0.035 -0.145 c 0.051 -0.031 0.113 -0.016 0.145 0.031 c 0.031 0.051 0.016 0.117 -0.035 0.148 c -0.047 0.031 -0.113 0.016 -0.145 -0.035 m 0.605 3.887 c 0 -0.098 -0.297 -0.418 -0.391 -0.418 c -0.125 0 -0.09 0.363 0.039 0.418 c 0.176 0.074 0.352 0.074 0.352 0 m -1.969 -2.043 c 0 -0.047 -0.082 -0.16 -0.188 -0.258 c -0.184 -0.172 -0.188 -0.168 -0.188 0.082 c 0 0.191 0.047 0.258 0.188 0.258 c 0.105 0 0.188 -0.039 0.188 -0.082 m -0.496 -1.055 c -0.023 -0.094 -0.043 -0.016 -0.043 0.168 c 0 0.188 0.02 0.262 0.043 0.172 c 0.023 -0.094 0.023 -0.246 0 -0.34" fill="#ecb1b1"/><path d="m 6.223 11.953 v -6.176 h 12 v 12.355 h -12 m 2.02 -0.191 c -0.031 -0.055 0.012 -0.098 0.094 -0.098 c 0.082 0 0.125 0.043 0.094 0.098 c -0.035 0.059 0.281 0.094 0.891 0.094 c 0.609 0 0.93 -0.035 0.891 -0.094 c -0.031 -0.055 0.012 -0.098 0.094 -0.098 c 0.082 0 0.125 0.043 0.094 0.098 c -0.035 0.059 0.281 0.094 0.891 0.094 c 0.609 0 0.93 -0.035 0.891 -0.094 c -0.031 -0.055 0.012 -0.098 0.094 -0.098 c 0.082 0 0.129 0.043 0.098 0.09 c -0.035 0.059 1.031 0.094 2.852 0.094 l 2.906 0.004 v -2.988 c 0 -2.285 -0.027 -2.992 -0.117 -3 c -0.086 -0.004 -0.086 -0.02 0.004 -0.055 c 0.168 -0.07 0.168 -1.961 0 -1.973 c -0.094 -0.004 -0.094 -0.016 0 -0.055 c 0.07 -0.031 0.113 -0.211 0.109 -0.453 c -0.008 -0.297 -0.027 -0.344 -0.07 -0.176 c -0.035 0.121 -0.105 0.227 -0.156 0.23 c -0.051 0.004 -0.234 0.07 -0.406 0.145 c -0.477 0.203 -1.156 -0.113 -1.273 -0.598 c -0.07 -0.289 0.137 -0.746 0.434 -0.961 c 0.301 -0.215 0.852 -0.195 1.059 0.039 c 0.09 0.105 0.199 0.168 0.242 0.145 c 0.039 -0.027 0.09 0.07 0.113 0.219 c 0.027 0.188 0.043 0.148 0.055 -0.145 c 0.008 -0.266 -0.027 -0.41 -0.105 -0.418 c -0.094 -0.004 -0.094 -0.016 0 -0.055 c 0.082 -0.035 0.117 -0.328 0.117 -1 v -0.953 l -1.148 0.012 c -0.633 0.008 -1.18 0.031 -1.223 0.055 c -0.039 0.02 0.035 0.168 0.164 0.328 c 0.328 0.398 0.313 0.773 -0.051 1.086 c -0.395 0.344 -0.664 0.395 -1.066 0.199 c -0.457 -0.227 -0.668 -0.641 -0.516 -1.023 c 0.063 -0.156 0.195 -0.344 0.293 -0.414 c 0.129 -0.094 0.145 -0.141 0.059 -0.176 c -0.141 -0.051 -3.414 -0.113 -6.309 -0.117 l -1.969 -0.004 l -0.023 1.949 c -0.012 1.168 0.016 1.973 0.07 2.01 c 0.047 0.031 0.063 0.246 0.031 0.48 c -0.031 0.23 -0.023 0.793 0.012 1.246 l 0.066 0.824 l 0.273 -0.207 c 0.395 -0.301 0.859 -0.277 1.203 0.063 c 0.5 0.492 0.457 1.031 -0.113 1.395 c -0.426 0.27 -0.738 0.262 -1.082 -0.035 l -0.277 -0.242 l -0.055 0.844 c -0.027 0.465 -0.047 1.508 -0.043 2.32 l 0.008 1.469 h 0.93 c 0.598 0 0.91 -0.031 0.875 -0.094 m 4.496 -0.09 c 0.031 -0.051 -0.023 -0.148 -0.121 -0.219 c -0.461 -0.34 -0.461 -0.883 0.004 -1.285 c 0.84 -0.73 2.051 0.32 1.352 1.176 c -0.133 0.16 -0.215 0.32 -0.18 0.355 c 0.031 0.035 -0.203 0.063 -0.523 0.063 c -0.336 0 -0.563 -0.039 -0.531 -0.09 m -3.754 -2.031 c -0.23 -0.098 -0.695 -0.645 -0.695 -0.816 c 0 -0.219 0.422 -0.777 0.688 -0.91 c 0.344 -0.168 0.727 -0.07 1.047 0.277 l 0.266 0.281 l 0.316 -0.289 c 0.586 -0.531 1.449 -0.289 1.582 0.445 c 0.07 0.375 -0.098 0.711 -0.477 0.969 c -0.305 0.203 -0.762 0.117 -1.105 -0.211 l -0.258 -0.246 l -0.391 0.297 c -0.398 0.301 -0.621 0.348 -0.973 0.203 m 3.945 -2.121 c -0.574 -0.242 -0.699 -0.852 -0.27 -1.297 c 0.418 -0.43 1.012 -0.316 1.348 0.25 c 0.16 0.273 0.164 0.324 0.035 0.582 c -0.078 0.152 -0.285 0.34 -0.461 0.418 c -0.359 0.152 -0.391 0.156 -0.652 0.043 m 1.93 -0.027 c -0.121 -0.066 -0.313 -0.242 -0.418 -0.387 c -0.188 -0.262 -0.188 -0.277 -0.023 -0.594 c 0.094 -0.18 0.309 -0.402 0.473 -0.492 c 0.281 -0.156 0.32 -0.156 0.602 -0.008 c 0.168 0.09 0.387 0.297 0.484 0.465 c 0.16 0.273 0.164 0.324 0.035 0.582 c -0.078 0.152 -0.285 0.34 -0.461 0.418 c -0.383 0.164 -0.406 0.164 -0.691 0.016 m -6.156 -2.234 c -0.176 -0.18 -0.32 -0.398 -0.32 -0.48 c 0 -0.082 0.133 -0.305 0.289 -0.492 c 0.391 -0.453 0.863 -0.477 1.25 -0.059 c 0.359 0.383 0.348 0.742 -0.027 1.09 c -0.414 0.379 -0.785 0.359 -1.191 -0.059 m -1.941 -1.965 c -0.273 -0.211 -0.34 -0.332 -0.344 -0.594 c -0.004 -0.184 0.02 -0.309 0.047 -0.277 c 0.027 0.027 0.172 -0.074 0.32 -0.227 c 0.363 -0.375 0.813 -0.379 1.148 -0.012 c 0.406 0.445 0.414 0.656 0.043 1.039 c -0.406 0.418 -0.746 0.438 -1.215 0.07 m 4.246 0.199 c -0.316 -0.125 -0.563 -0.457 -0.563 -0.754 c 0 -0.309 0.332 -0.727 0.684 -0.855 c 0.223 -0.078 0.648 0.152 0.906 0.488 c 0.16 0.211 0.215 0.238 0.258 0.125 c 0.031 -0.078 0.176 -0.262 0.316 -0.41 c 0.383 -0.391 0.887 -0.371 1.285 0.055 c 0.402 0.426 0.406 0.824 0.012 1.168 c -0.391 0.34 -0.973 0.344 -1.32 0.012 c -0.137 -0.129 -0.266 -0.293 -0.293 -0.359 c -0.031 -0.086 -0.133 -0.023 -0.313 0.188 c -0.266 0.309 -0.688 0.461 -0.973 0.344" fill="#d9768e"/><path d="m 6.223 11.953 v -6.176 h 12 v 12.355 h -12 m 11.906 -3.09 c 0 -2.324 -0.027 -2.992 -0.117 -3 c -0.094 -0.004 -0.094 -0.016 0 -0.055 c 0.168 -0.07 0.168 -1.961 0 -1.973 c -0.094 -0.004 -0.094 -0.016 0 -0.055 c 0.07 -0.031 0.113 -0.211 0.109 -0.453 c -0.008 -0.297 -0.027 -0.344 -0.07 -0.176 c -0.035 0.121 -0.082 0.215 -0.109 0.211 c -0.023 -0.008 -0.207 0.059 -0.406 0.141 c -0.52 0.227 -1.195 -0.07 -1.32 -0.574 c -0.07 -0.289 0.137 -0.746 0.434 -0.961 c 0.297 -0.215 0.852 -0.195 1.059 0.039 c 0.09 0.105 0.199 0.168 0.242 0.145 c 0.039 -0.027 0.09 0.07 0.113 0.219 c 0.027 0.188 0.043 0.148 0.051 -0.145 c 0.012 -0.266 -0.023 -0.41 -0.102 -0.418 c -0.094 -0.004 -0.094 -0.016 0 -0.055 c 0.082 -0.035 0.117 -0.332 0.117 -1 v -0.953 l -1.148 0.012 c -0.633 0.008 -1.18 0.031 -1.223 0.055 c -0.039 0.02 0.035 0.168 0.164 0.328 c 0.328 0.398 0.313 0.773 -0.051 1.086 c -0.395 0.344 -0.664 0.395 -1.066 0.199 c -0.461 -0.227 -0.668 -0.641 -0.516 -1.023 c 0.063 -0.156 0.195 -0.344 0.293 -0.414 c 0.27 -0.191 0.094 -0.223 -1.281 -0.23 c -0.672 -0.004 -2.516 -0.039 -4.102 -0.078 l -2.883 -0.066 v 12.191 h 11.813 m -5.227 -0.363 c -0.41 -0.066 -0.637 -0.734 -0.371 -1.094 c 0.469 -0.629 1.473 -0.391 1.473 0.348 c 0 0.25 -0.188 0.629 -0.313 0.629 c -0.008 0 -0.145 0.035 -0.297 0.074 c -0.156 0.043 -0.375 0.063 -0.492 0.043 m -4.051 -2.074 c -0.574 -0.301 -0.445 -1.145 0.207 -1.344 c 0.445 -0.137 0.793 0.012 0.988 0.422 c 0.281 0.605 -0.566 1.254 -1.195 0.922 m 1.969 0 c -0.539 -0.285 -0.445 -1.129 0.145 -1.328 c 0.566 -0.191 1.07 0.109 1.07 0.641 c 0 0.313 -0.285 0.711 -0.508 0.715 c -0.055 0 -0.184 0.023 -0.289 0.051 c -0.102 0.023 -0.293 -0.008 -0.418 -0.078 m 2.105 -1.898 c -0.574 -0.242 -0.699 -0.852 -0.27 -1.297 c 0.418 -0.43 1.012 -0.316 1.348 0.25 c 0.16 0.273 0.164 0.324 0.035 0.582 c -0.078 0.152 -0.285 0.34 -0.461 0.418 c -0.355 0.152 -0.391 0.156 -0.652 0.047 m 1.93 -0.031 c -0.121 -0.066 -0.309 -0.242 -0.418 -0.387 c -0.188 -0.262 -0.188 -0.277 -0.023 -0.594 c 0.094 -0.18 0.309 -0.402 0.473 -0.492 c 0.281 -0.156 0.32 -0.156 0.605 -0.008 c 0.164 0.09 0.383 0.297 0.48 0.465 c 0.16 0.273 0.164 0.324 0.035 0.582 c -0.078 0.152 -0.285 0.344 -0.461 0.418 c -0.383 0.164 -0.406 0.164 -0.691 0.016 m -7.961 -0.098 c -0.121 -0.066 -0.285 -0.234 -0.367 -0.375 c -0.145 -0.246 -0.141 -0.273 0.102 -0.602 c 0.449 -0.605 1.234 -0.547 1.48 0.109 c 0.125 0.344 -0.059 0.688 -0.453 0.859 c -0.371 0.16 -0.48 0.16 -0.762 0.008 m 2.141 -1.973 c -0.52 -0.199 -0.641 -0.84 -0.223 -1.18 c 0.336 -0.27 0.738 -0.258 1.023 0.035 c 0.379 0.391 0.254 0.84 -0.289 1.074 c -0.176 0.078 -0.328 0.133 -0.344 0.129 c -0.016 -0.004 -0.09 -0.031 -0.168 -0.059 m 1.969 -1.926 c -0.316 -0.129 -0.563 -0.461 -0.563 -0.758 c 0 -0.309 0.336 -0.727 0.688 -0.855 c 0.219 -0.078 0.645 0.152 0.902 0.492 c 0.16 0.207 0.215 0.234 0.262 0.121 c 0.027 -0.078 0.172 -0.262 0.313 -0.41 c 0.383 -0.391 0.887 -0.371 1.285 0.055 c 0.402 0.426 0.406 0.828 0.012 1.168 c -0.391 0.34 -0.973 0.344 -1.32 0.016 c -0.133 -0.133 -0.266 -0.293 -0.293 -0.363 c -0.031 -0.086 -0.133 -0.023 -0.313 0.188 c -0.266 0.313 -0.688 0.461 -0.973 0.344 m -3.938 -0.102 c -0.5 -0.18 -0.621 -0.746 -0.238 -1.141 c 0.305 -0.313 0.734 -0.313 1.039 0 c 0.129 0.133 0.23 0.324 0.23 0.43 c 0 0.41 -0.641 0.852 -1.031 0.711" fill="#6c86e5"/><path d="m 6.223 11.953 v -6.176 h 12 v 12.355 h -12 m 11.906 -6.172 v -6.078 l -11.813 -0.008 v 12.16 h 11.813 m -5.227 -0.363 c -0.41 -0.066 -0.637 -0.734 -0.371 -1.09 c 0.469 -0.629 1.473 -0.395 1.473 0.344 c 0 0.254 -0.188 0.629 -0.313 0.629 c -0.008 0 -0.145 0.035 -0.297 0.074 c -0.156 0.043 -0.375 0.063 -0.492 0.043 m -4.051 -2.074 c -0.574 -0.301 -0.445 -1.145 0.207 -1.344 c 0.445 -0.137 0.793 0.012 0.988 0.426 c 0.281 0.602 -0.566 1.25 -1.195 0.918 m 1.969 0 c -0.539 -0.285 -0.445 -1.125 0.145 -1.328 c 0.566 -0.191 1.07 0.109 1.07 0.641 c 0 0.313 -0.285 0.711 -0.508 0.715 c -0.055 0 -0.184 0.023 -0.289 0.051 c -0.102 0.023 -0.293 -0.008 -0.418 -0.078 m -3.926 -2.027 c -0.121 -0.066 -0.285 -0.234 -0.367 -0.375 c -0.145 -0.246 -0.141 -0.273 0.102 -0.602 c 0.449 -0.605 1.234 -0.547 1.48 0.109 c 0.125 0.344 -0.059 0.688 -0.453 0.859 c -0.371 0.16 -0.48 0.16 -0.762 0.008 m 5.836 -0.145 c -0.34 -0.238 -0.305 -0.887 0.059 -1.086 c 0.367 -0.203 1.027 -0.047 1.027 0.242 c 0 0.184 -0.684 0.918 -0.852 0.914 c -0.074 0 -0.18 -0.031 -0.234 -0.07 m 1.801 -0.195 c -0.113 -0.223 -0.113 -0.316 -0.012 -0.563 c 0.129 -0.324 0.297 -0.422 0.695 -0.422 c 0.23 0 0.57 0.246 0.57 0.414 c 0 0.145 -0.781 0.84 -0.941 0.84 c -0.102 0 -0.238 -0.117 -0.313 -0.27 m -5.496 -1.633 c -0.52 -0.199 -0.641 -0.84 -0.223 -1.18 c 0.336 -0.27 0.738 -0.258 1.023 0.035 c 0.379 0.391 0.254 0.84 -0.289 1.074 c -0.176 0.078 -0.332 0.137 -0.344 0.129 c -0.016 -0.004 -0.09 -0.031 -0.168 -0.059 m -1.969 -2.031 c -0.504 -0.18 -0.621 -0.746 -0.238 -1.137 c 0.305 -0.316 0.734 -0.316 1.039 0 c 0.125 0.129 0.23 0.32 0.23 0.426 c 0 0.414 -0.641 0.855 -1.031 0.711 m 3.523 -0.395 c -0.168 -0.332 -0.043 -0.66 0.34 -0.879 c 0.285 -0.164 0.691 -0.066 0.859 0.211 c 0.082 0.133 0.035 0.234 -0.266 0.555 c -0.445 0.465 -0.738 0.504 -0.934 0.113 m 1.938 0.082 c -0.289 -0.473 0.09 -1.102 0.664 -1.102 c 0.313 0 0.719 0.246 0.719 0.438 c 0 0.043 -0.18 0.25 -0.398 0.465 c -0.445 0.43 -0.801 0.504 -0.984 0.199 m 3.918 0.004 c -0.383 -0.73 0.605 -1.488 1.211 -0.926 c 0.203 0.188 0.258 0.438 0.094 0.438 c -0.051 0 -0.227 0.152 -0.383 0.34 c -0.336 0.391 -0.762 0.461 -0.922 0.148 m 1.516 -0.391 c 0 -0.188 0.02 -0.262 0.043 -0.168 c 0.027 0.09 0.027 0.242 0 0.336 c -0.023 0.094 -0.043 0.016 -0.043 -0.168 m -3.484 -1.637 c -0.055 -0.102 -0.098 -0.27 -0.098 -0.371 c 0 -0.234 0.344 -0.695 0.523 -0.695 c 0.07 0 0.133 -0.043 0.133 -0.098 c 0 -0.051 0.086 -0.094 0.191 -0.094 c 0.105 0 0.168 0.043 0.137 0.094 c -0.031 0.055 0 0.098 0.074 0.098 c 0.152 0 0.441 0.305 0.441 0.465 c 0 0.063 -0.043 0.113 -0.098 0.113 c -0.051 0 -0.227 0.152 -0.383 0.34 c -0.336 0.391 -0.762 0.461 -0.922 0.148" fill="#6971e5"/><path d="m 6.223 11.953 v -6.176 h 12 v 12.355 h -12 m 11.906 -6.18 v -6.078 h -11.813 v 12.16 h 11.813 m -5.227 -0.363 c -0.41 -0.066 -0.637 -0.734 -0.371 -1.094 c 0.469 -0.629 1.473 -0.391 1.473 0.348 c 0 0.25 -0.188 0.629 -0.313 0.629 c -0.008 0 -0.145 0.035 -0.297 0.074 c -0.156 0.043 -0.375 0.063 -0.492 0.043 m -4.051 -2.074 c -0.574 -0.301 -0.445 -1.145 0.207 -1.344 c 0.445 -0.137 0.793 0.012 0.988 0.422 c 0.281 0.605 -0.566 1.254 -1.195 0.922 m 1.969 0 c -0.539 -0.285 -0.445 -1.129 0.145 -1.328 c 0.566 -0.191 1.07 0.109 1.07 0.641 c 0 0.313 -0.285 0.711 -0.508 0.715 c -0.055 0 -0.184 0.023 -0.289 0.051 c -0.102 0.023 -0.293 -0.008 -0.418 -0.078 m -3.926 -2.027 c -0.121 -0.066 -0.285 -0.234 -0.367 -0.379 c -0.145 -0.242 -0.141 -0.273 0.102 -0.598 c 0.449 -0.605 1.234 -0.551 1.48 0.109 c 0.125 0.344 -0.059 0.688 -0.453 0.859 c -0.371 0.16 -0.48 0.16 -0.762 0.008 m 2.141 -1.973 c -0.52 -0.199 -0.641 -0.84 -0.223 -1.18 c 0.336 -0.273 0.738 -0.258 1.023 0.035 c 0.379 0.391 0.258 0.84 -0.289 1.074 c -0.176 0.074 -0.328 0.133 -0.344 0.129 c -0.016 -0.004 -0.09 -0.031 -0.168 -0.059 m -1.969 -2.031 c -0.5 -0.18 -0.621 -0.746 -0.238 -1.141 c 0.305 -0.313 0.734 -0.313 1.039 0 c 0.129 0.133 0.23 0.324 0.23 0.43 c 0 0.41 -0.641 0.852 -1.031 0.711" fill="#e56b6e"/><path d="m 6.223 11.953 v -6.176 h 12 v 12.355 h -12 m 11.906 -6.18 v -6.078 h -11.813 v 12.16 h 11.813" fill="#020202"/></svg>