<svg xmlns="http://www.w3.org/2000/svg" viewBox="0 0 24 24"><defs><linearGradient id="0" gradientUnits="userSpaceOnUse" x1="-289.9" y1="-616.49" x2="-299.33" y2="-5.88" gradientTransform="matrix(0.02057 0 0 0.02578 16.13 20.438)"><stop stop-color="#bf7c00"/><stop offset="0.262" stop-color="#fb9b11"/><stop offset="0.705" stop-color="#e26f0d"/><stop offset="1" stop-color="#ab441f"/></linearGradient></defs><path d="m 19.05 2.344 c -18.05 -11.996 -29.16 26.26 -5.832 21.19 c 9.637 -2.156 15.488 -15.691 5.832 -21.19" fill="#2f4e4e"/><path d="m 5.398 18.313 c -0.086 -0.016 -0.16 -0.09 -0.207 -0.195 c -0.039 -0.094 -0.043 -0.129 -0.086 -0.457 c -0.004 -0.059 -0.016 -0.133 -0.02 -0.164 c -0.031 -0.223 -0.043 -0.383 -0.043 -0.719 c 0 -0.32 0 -0.34 0.027 -0.582 c 0.02 -0.191 0.027 -0.34 0.027 -0.938 c 0 -0.426 -0.004 -0.641 -0.008 -0.797 c -0.012 -0.254 -0.012 -0.98 -0.004 -2.23 c 0.004 -0.492 0 -0.852 0 -0.945 c -0.008 -0.145 -0.008 -0.152 -0.027 -0.203 c -0.043 -0.117 -0.094 -0.164 -0.242 -0.215 c -0.137 -0.047 -0.258 -0.109 -0.336 -0.172 c -0.188 -0.148 -0.293 -0.344 -0.293 -0.531 c 0 -0.086 0.008 -0.121 0.039 -0.199 c 0.043 -0.109 0.137 -0.207 0.246 -0.254 c 0.074 -0.031 0.141 -0.043 0.273 -0.051 c 0.102 -0.004 0.129 -0.008 0.156 -0.023 c 0.047 -0.02 0.102 -0.082 0.117 -0.129 c 0.031 -0.078 0.035 -0.137 0.031 -0.543 c -0.004 -0.418 -0.004 -0.41 -0.047 -0.527 c -0.02 -0.047 -0.035 -0.074 -0.113 -0.176 c -0.141 -0.176 -0.176 -0.246 -0.215 -0.387 c -0.047 -0.168 -0.051 -0.328 -0.02 -0.457 c 0.023 -0.086 0.043 -0.129 0.086 -0.188 c 0.035 -0.047 0.055 -0.063 0.102 -0.094 c 0.059 -0.039 0.078 -0.047 0.152 -0.066 c 0.043 -0.008 0.137 -0.012 0.824 -0.016 c 0.621 0 0.785 0 0.793 0.008 c 0.008 0.004 0.035 0.012 0.055 0.016 c 0.059 0.008 0.098 0.027 0.238 0.113 c 0.152 0.094 0.164 0.102 0.215 0.113 c 0.078 0.02 0.129 0 0.336 -0.105 c 0.195 -0.102 0.238 -0.121 0.289 -0.121 c 0.023 0 0.043 -0.004 0.051 -0.012 c 0.008 -0.012 0.063 -0.012 0.355 -0.012 c 0.5 0 1.148 0.012 1.191 0.023 c 0.145 0.031 0.23 0.125 0.262 0.273 c 0.016 0.07 0.02 0.207 0.008 0.293 c -0.012 0.082 -0.082 0.328 -0.109 0.375 c -0.008 0.012 -0.02 0.039 -0.031 0.063 c -0.008 0.027 -0.055 0.109 -0.098 0.184 c -0.141 0.234 -0.152 0.27 -0.152 0.609 c 0 0.18 0.004 0.23 0.016 0.309 c 0.012 0.109 0.02 0.133 0.043 0.195 c 0.035 0.086 0.09 0.176 0.203 0.324 c 0.023 0.031 0.051 0.07 0.066 0.09 c 0.035 0.055 0.125 0.18 0.141 0.195 c 0.078 0.082 0.145 0.074 0.172 -0.012 c 0.012 -0.035 0.031 -0.184 0.035 -0.289 c 0.008 -0.094 0.043 -0.258 0.074 -0.34 c 0.016 -0.039 0.066 -0.145 0.117 -0.238 c 0.07 -0.129 0.105 -0.211 0.176 -0.379 c 0.129 -0.32 0.156 -0.371 0.383 -0.672 c 0.172 -0.23 0.328 -0.395 0.488 -0.523 c 0.121 -0.094 0.414 -0.285 0.516 -0.336 c 0.148 -0.078 0.328 -0.133 0.578 -0.18 c 0.109 -0.023 0.324 -0.02 0.426 0.004 c 0.164 0.035 0.289 0.082 0.484 0.18 c 0.066 0.031 0.188 0.09 0.266 0.121 c 0.227 0.102 0.383 0.203 0.543 0.367 c 0.035 0.035 0.078 0.078 0.098 0.094 c 0.016 0.016 0.039 0.039 0.051 0.051 c 0.031 0.035 0.125 0.102 0.141 0.098 c 0.023 -0.004 0.027 -0.023 0.016 -0.078 c -0.047 -0.195 -0.055 -0.344 -0.031 -0.461 c 0.016 -0.078 0.031 -0.113 0.07 -0.176 c 0.055 -0.086 0.137 -0.148 0.238 -0.184 c 0.113 -0.039 0.105 -0.039 0.691 -0.035 c 0.547 0 0.688 0.004 0.777 0.027 c 0.145 0.035 0.242 0.094 0.332 0.207 c 0.102 0.129 0.172 0.289 0.293 0.68 c 0.016 0.055 0.055 0.184 0.086 0.277 c 0.063 0.195 0.098 0.324 0.133 0.492 c 0.051 0.219 0.07 0.297 0.137 0.551 c 0.094 0.348 0.121 0.434 0.207 0.656 c 0.066 0.168 0.105 0.25 0.137 0.293 c 0.063 0.078 0.102 0.039 0.121 -0.117 c 0.008 -0.07 0.008 -1.406 0 -1.508 c -0.016 -0.188 -0.07 -0.277 -0.258 -0.41 c -0.133 -0.094 -0.203 -0.242 -0.203 -0.418 c 0 -0.07 0.016 -0.156 0.039 -0.23 c 0.023 -0.066 0.098 -0.207 0.145 -0.27 c 0.074 -0.102 0.184 -0.172 0.297 -0.199 c 0.055 -0.012 0.195 -0.012 0.305 0.004 c 0.273 0.031 0.422 0.031 0.719 -0.004 c 0.336 -0.043 0.488 -0.008 0.602 0.133 c 0.078 0.098 0.109 0.199 0.113 0.371 c 0.004 0.113 0 0.141 -0.027 0.332 c -0.02 0.133 -0.031 0.258 -0.035 0.371 c -0.008 0.113 -0.02 0.41 -0.027 0.563 c -0.008 0.082 -0.008 1.066 -0.012 3.03 c 0 1.602 -0.004 2.93 -0.004 2.953 c -0.008 0.047 0.008 1.629 0.016 1.805 c 0.008 0.258 -0.012 0.977 -0.027 1.059 c -0.004 0.008 -0.008 0.059 -0.012 0.109 c -0.027 0.367 -0.117 0.535 -0.301 0.563 c -0.117 0.016 -0.25 -0.07 -0.379 -0.254 c -0.102 -0.145 -0.211 -0.363 -0.266 -0.531 c -0.012 -0.027 -0.023 -0.07 -0.035 -0.098 c -0.047 -0.129 -0.094 -0.313 -0.156 -0.609 c -0.023 -0.117 -0.055 -0.277 -0.082 -0.402 c -0.008 -0.039 -0.023 -0.117 -0.035 -0.172 c -0.078 -0.445 -0.113 -0.578 -0.188 -0.785 c -0.012 -0.031 -0.027 -0.074 -0.031 -0.094 c -0.008 -0.02 -0.039 -0.109 -0.074 -0.203 c -0.059 -0.164 -0.125 -0.352 -0.172 -0.48 c -0.074 -0.215 -0.098 -0.281 -0.195 -0.5 c -0.078 -0.164 -0.164 -0.355 -0.18 -0.395 c -0.238 -0.5 -0.258 -0.539 -0.301 -0.59 c -0.031 -0.035 -0.055 -0.047 -0.078 -0.031 c -0.043 0.023 -0.051 0.113 -0.055 0.492 c -0.004 0.371 0 0.426 0.043 0.535 c 0.035 0.086 0.078 0.152 0.168 0.238 c 0.105 0.105 0.156 0.168 0.199 0.238 c 0.094 0.156 0.137 0.324 0.129 0.48 c -0.004 0.082 -0.016 0.125 -0.043 0.203 c -0.07 0.18 -0.199 0.277 -0.398 0.293 c -0.031 0.004 -0.102 0.004 -0.16 0 c -0.359 -0.027 -0.535 -0.027 -1.109 0.016 c -0.344 0.023 -0.477 0.008 -0.621 -0.082 c -0.105 -0.066 -0.172 -0.145 -0.211 -0.258 c -0.031 -0.078 -0.043 -0.152 -0.039 -0.246 c 0.004 -0.102 0.02 -0.18 0.063 -0.277 c 0.035 -0.098 0.059 -0.133 0.156 -0.277 c 0.129 -0.18 0.148 -0.219 0.172 -0.352 c 0.008 -0.047 0.008 -0.172 0.004 -1.43 c -0.004 -1.598 -0.008 -1.773 -0.043 -1.867 c -0.027 -0.059 -0.043 -0.059 -0.09 0.012 c -0.031 0.055 -0.043 0.074 -0.102 0.219 c -0.082 0.195 -0.172 0.398 -0.246 0.547 c -0.035 0.07 -0.09 0.164 -0.16 0.273 c -0.09 0.141 -0.109 0.168 -0.129 0.223 c -0.039 0.102 -0.016 0.145 0.102 0.211 c 0.164 0.09 0.25 0.262 0.238 0.484 c -0.012 0.176 -0.059 0.332 -0.25 0.824 c -0.117 0.301 -0.152 0.371 -0.219 0.453 c -0.063 0.074 -0.094 0.098 -0.18 0.141 c -0.184 0.094 -0.438 0.137 -0.809 0.145 c -0.234 0.004 -0.27 0.004 -0.508 -0.039 c -0.188 -0.035 -0.238 -0.043 -0.383 -0.051 c -0.063 -0.004 -0.188 -0.016 -0.277 -0.023 c -0.199 -0.02 -0.391 -0.023 -0.547 -0.004 c -0.199 0.023 -0.277 0.035 -0.383 0.063 c -0.156 0.039 -0.207 0.043 -0.273 0.035 c -0.215 -0.035 -0.352 -0.219 -0.383 -0.504 c -0.004 -0.047 0.008 -0.145 0.023 -0.215 c 0.035 -0.121 0.07 -0.199 0.23 -0.48 c 0.117 -0.215 0.148 -0.262 0.27 -0.43 c 0.063 -0.086 0.074 -0.117 0.074 -0.176 c 0 -0.074 -0.031 -0.125 -0.219 -0.352 c -0.137 -0.164 -0.207 -0.273 -0.352 -0.531 c -0.109 -0.195 -0.164 -0.227 -0.387 -0.242 c -0.102 -0.008 -0.215 -0.031 -0.414 -0.082 c -0.086 -0.02 -0.102 -0.023 -0.137 -0.016 c -0.051 0.012 -0.09 0.043 -0.113 0.086 c -0.039 0.078 -0.035 -0.008 -0.035 1.301 c 0 0.652 0.004 1.215 0.004 1.25 c 0.012 0.18 0.063 0.273 0.223 0.426 c 0.113 0.105 0.176 0.195 0.227 0.316 c 0.043 0.105 0.059 0.18 0.063 0.281 c 0.004 0.113 -0.004 0.18 -0.043 0.277 c -0.063 0.156 -0.172 0.254 -0.332 0.297 c -0.074 0.02 -0.066 0.02 -0.805 0.016 c -0.285 -0.004 -0.535 0 -0.648 0.008 c -0.227 0.008 -0.305 0.004 -0.402 -0.035 c -0.137 -0.055 -0.219 -0.148 -0.27 -0.289 c -0.059 -0.168 -0.051 -0.363 0.023 -0.555 c 0.035 -0.105 0.07 -0.156 0.18 -0.293 c 0.109 -0.137 0.129 -0.172 0.16 -0.273 c 0.02 -0.07 0.02 -0.199 0.02 -1.563 v -1.25 l -0.02 -0.055 c -0.039 -0.098 -0.094 -0.145 -0.191 -0.16 c -0.066 -0.012 -0.324 -0.027 -0.418 -0.027 c -0.082 0 -0.09 0.004 -0.121 0.023 c -0.043 0.023 -0.086 0.082 -0.102 0.133 c -0.012 0.035 -0.012 0.066 -0.016 0.395 c -0.004 0.195 -0.008 0.777 -0.008 1.293 c -0.008 1.027 -0.004 1.063 0.027 1.305 c 0.039 0.281 0.043 0.32 0.043 0.402 c 0 0.098 -0.008 0.16 -0.027 0.266 c -0.023 0.113 -0.105 0.387 -0.16 0.547 c -0.16 0.43 -0.16 0.438 -0.297 1.121 c -0.109 0.547 -0.125 0.602 -0.223 0.883 c -0.094 0.281 -0.188 0.465 -0.309 0.617 c -0.113 0.145 -0.195 0.199 -0.301 0.207 c -0.027 0.004 -0.059 0 -0.078 -0.004 m 2.09 -3.32 c 0.086 -0.109 0.082 -0.105 0.211 -0.164 c 0.051 -0.023 0.082 -0.031 0.094 -0.027 c 0.012 0.004 0.02 0 0.02 -0.004 c 0 -0.004 0.02 -0.023 0.043 -0.047 c 0.023 -0.02 0.055 -0.047 0.074 -0.059 c 0.027 -0.027 0.039 -0.051 0.055 -0.129 c 0.004 -0.02 0.012 -0.043 0.016 -0.055 c 0.023 -0.035 0.027 -0.07 0.027 -0.215 c 0 -0.078 -0.004 -0.141 -0.004 -0.137 c -0.004 0.004 -0.004 0.055 -0.004 0.113 c -0.004 0.098 -0.004 0.105 -0.016 0.137 c -0.008 0.016 -0.023 0.059 -0.031 0.094 c -0.008 0.051 -0.016 0.07 -0.031 0.086 c -0.008 0.012 -0.027 0.035 -0.035 0.051 c -0.016 0.027 -0.016 0.027 -0.063 0.027 c -0.039 0 -0.105 0.02 -0.121 0.039 c -0.004 0.004 -0.016 0.008 -0.027 0.012 c -0.012 0.004 -0.031 0.012 -0.043 0.023 c -0.012 0.012 -0.035 0.027 -0.051 0.039 c -0.02 0.012 -0.031 0.027 -0.035 0.039 c -0.016 0.039 -0.102 0.141 -0.113 0.129 c -0.008 -0.004 -0.031 0.055 -0.031 0.078 c 0 0.016 0.004 0.02 0.02 0.012 c 0.008 -0.004 0.031 -0.023 0.047 -0.043 m 7.402 -0.059 c 0.008 -0.012 0.023 -0.035 0.039 -0.055 c 0.039 -0.051 0.051 -0.109 0.031 -0.133 c -0.008 -0.012 -0.012 -0.012 -0.035 0.004 c -0.043 0.031 -0.094 0.102 -0.102 0.137 c -0.008 0.035 -0.004 0.043 0.02 0.059 c 0.027 0.016 0.031 0.016 0.047 -0.012 m 1.813 -0.02 c 0.016 -0.008 0.02 -0.016 0.02 -0.031 c 0 -0.023 -0.027 -0.078 -0.047 -0.09 c -0.008 -0.004 -0.016 -0.012 -0.023 -0.02 c -0.035 -0.039 -0.094 -0.004 -0.082 0.047 c 0.004 0.016 0.027 0.031 0.055 0.039 c 0.008 0.004 0.023 0.02 0.035 0.035 c 0.012 0.02 0.023 0.031 0.023 0.031 c 0 0 0.012 -0.004 0.02 -0.012 m -7.449 -0.082 c 0.016 -0.023 0.004 -0.039 -0.047 -0.074 c -0.023 -0.016 -0.055 -0.039 -0.063 -0.051 c -0.016 -0.016 -0.023 -0.02 -0.035 -0.016 c -0.012 0.004 -0.02 -0.004 -0.039 -0.027 c -0.02 -0.027 -0.027 -0.031 -0.039 -0.027 c -0.012 0.004 -0.023 0.004 -0.035 -0.004 c -0.016 -0.004 -0.02 -0.004 -0.027 0.004 c -0.008 0.012 -0.008 0.039 0.004 0.047 c 0.004 0.004 0.004 0.012 0.004 0.02 c 0 0.016 0.043 0.047 0.063 0.047 c 0.004 0 0.027 0.008 0.047 0.02 c 0.063 0.039 0.129 0.07 0.145 0.07 c 0.008 0 0.02 -0.004 0.023 -0.008 m 5.824 -0.074 c 0.047 -0.043 0.098 -0.133 0.086 -0.145 c -0.008 -0.004 -0.094 0.063 -0.113 0.082 c -0.012 0.016 -0.02 0.055 -0.016 0.074 c 0.004 0.016 0.016 0.012 0.043 -0.012 m -7.344 -0.113 c 0.008 -0.008 -0.004 -0.008 -0.02 0 l -0.02 0.012 l 0.02 -0.004 c 0.012 -0.004 0.02 -0.008 0.02 -0.008 m 0.074 -0.027 c 0.004 -0.004 0 -0.008 -0.004 -0.004 c -0.004 0 -0.012 0.008 -0.012 0.012 c 0 0.004 0 0.008 0.004 0.008 c 0.008 -0.004 0.012 -0.008 0.012 -0.016 m -0.008 -0.035 c 0.004 -0.008 0.012 -0.016 0.012 -0.02 c 0 -0.008 -0.023 0.004 -0.031 0.02 c -0.008 0.012 -0.008 0.012 0 0.012 c 0.004 0 0.016 -0.004 0.02 -0.012 m 7.512 -0.172 c 0.02 -0.035 0.027 -0.074 0.027 -0.133 v -0.051 l -0.008 0.027 c -0.008 0.012 -0.02 0.039 -0.027 0.055 c -0.031 0.047 -0.035 0.066 -0.027 0.102 c 0.012 0.035 0.016 0.035 0.035 0 m 0.852 -0.184 l -0.008 -0.039 v 0.047 c 0.004 0.023 0.008 0.047 0.008 0.051 c 0.012 0.02 0.012 -0.016 0 -0.059 m -0.816 -0.035 c 0 -0.012 0 -0.031 0 -0.047 l -0.004 -0.027 l -0.004 0.031 c -0.008 0.047 -0.008 0.078 0 0.07 c 0.004 -0.004 0.008 -0.016 0.008 -0.027 m 0.813 -0.117 c 0 -0.047 0 -0.105 -0.004 -0.129 l -0.004 -0.043 l -0.004 0.027 c -0.008 0.027 0 0.23 0.004 0.23 c 0.004 0 0.008 -0.039 0.008 -0.086 m -10.656 -0.129 c -0.004 -0.109 -0.004 -0.203 -0.008 -0.211 c -0.004 -0.004 -0.008 0.063 -0.008 0.195 c 0 0.18 0.004 0.215 0.012 0.215 c 0 0 0.004 -0.09 0.004 -0.199 m 10.648 -0.141 c 0 -0.008 -0.004 -0.004 -0.004 0.004 c 0 0.008 0.004 0.012 0.004 0.012 c 0.004 -0.004 0.004 -0.012 0 -0.016 m 0 -0.227 c 0 -0.035 0 -0.004 0 0.07 c 0 0.07 0 0.098 0 0.063 c 0.004 -0.039 0.004 -0.098 0 -0.133 m -10.66 0.078 c 0 -0.004 0 -0.004 0 0.004 c -0.004 0.012 0 0.016 0 0.012 c 0.004 -0.004 0.004 -0.008 0.004 -0.016 m 8.234 -0.008 c 0.008 -0.008 0.02 -0.043 0.031 -0.078 c 0.008 -0.031 0.031 -0.086 0.047 -0.121 c 0.027 -0.066 0.066 -0.176 0.063 -0.184 c -0.008 -0.008 -0.074 0.145 -0.074 0.168 c 0 0.02 -0.031 0.094 -0.047 0.117 c -0.012 0.016 -0.027 0.047 -0.035 0.07 c -0.016 0.043 -0.016 0.047 -0.004 0.047 c 0.008 0 0.016 -0.008 0.02 -0.02 m -0.91 -0.234 c 0.02 -0.008 0.016 -0.023 -0.004 -0.031 c -0.023 -0.004 -0.035 0.004 -0.027 0.023 c 0.004 0.012 0.008 0.016 0.031 0.008 m -0.32 -0.035 c 0 -0.004 0.012 -0.004 0.02 0 c 0.016 0.004 0.02 0 0.016 -0.008 c -0.004 -0.02 -0.043 -0.031 -0.066 -0.027 c -0.012 0.004 -0.031 0.008 -0.047 0.004 c -0.02 0 -0.027 0.004 -0.027 0.012 c 0 0.012 0.012 0.02 0.047 0.023 c 0.039 0.004 0.055 0.004 0.059 -0.004 m 1.059 -0.156 c 0.117 -0.066 0.172 -0.105 0.23 -0.148 c 0.02 -0.02 0.059 -0.047 0.086 -0.063 c 0.055 -0.039 0.09 -0.074 0.152 -0.152 c 0.043 -0.051 0.047 -0.063 0.035 -0.082 c -0.016 -0.016 -0.023 -0.008 -0.074 0.051 c -0.035 0.039 -0.066 0.066 -0.094 0.086 c -0.023 0.012 -0.055 0.039 -0.074 0.059 c -0.016 0.023 -0.055 0.055 -0.094 0.074 c -0.031 0.023 -0.082 0.055 -0.109 0.07 c -0.023 0.016 -0.059 0.035 -0.078 0.039 c -0.016 0.008 -0.047 0.023 -0.066 0.039 c -0.023 0.012 -0.043 0.023 -0.047 0.023 c -0.004 0 -0.016 0.012 -0.031 0.023 l -0.02 0.023 l 0.016 0.016 c 0.02 0.02 0.043 0.016 0.168 -0.059 m -7.285 -0.141 c -0.004 -0.004 -0.004 0.016 -0.004 0.066 c 0 0.098 0.008 0.109 0.008 0.016 c 0.004 -0.043 0 -0.074 -0.004 -0.082 m 4.887 0.027 c 0.031 -0.004 0.07 -0.008 0.09 -0.008 c 0.023 0 0.055 -0.008 0.07 -0.012 c 0.02 -0.008 0.055 -0.012 0.094 -0.012 c 0.031 0 0.082 0 0.109 0 c 0.043 0 0.055 0.004 0.082 0.023 c 0.027 0.016 0.031 0.016 0.039 0.008 c 0.008 -0.004 0.012 -0.016 0.012 -0.023 c 0 -0.016 -0.031 -0.055 -0.043 -0.055 c -0.016 0 -0.063 -0.047 -0.063 -0.063 c 0 -0.012 -0.016 -0.039 -0.023 -0.039 c -0.004 0 -0.008 0.012 -0.012 0.027 c -0.008 0.035 -0.039 0.047 -0.102 0.039 c -0.023 0 -0.047 -0.004 -0.047 -0.008 c -0.004 0 0.004 -0.023 0.012 -0.043 c 0.012 -0.047 0.012 -0.07 -0.012 -0.078 c -0.023 -0.012 -0.027 -0.008 -0.023 0.027 c 0.004 0.027 0.004 0.039 -0.008 0.051 c -0.008 0.016 -0.012 0.016 -0.035 0.012 c -0.02 -0.004 -0.023 -0.012 -0.027 -0.027 c 0 -0.012 0.004 -0.031 0.008 -0.039 c 0.012 -0.023 0.008 -0.031 -0.016 -0.02 c -0.027 0.012 -0.035 0.02 -0.035 0.047 c -0.004 0.023 -0.004 0.023 -0.043 0.031 c -0.023 0 -0.047 0.012 -0.066 0.027 c -0.016 0.012 -0.039 0.023 -0.047 0.031 c -0.027 0.016 -0.039 0.09 -0.012 0.109 c 0.004 0.004 0.02 0.008 0.027 0.004 c 0.012 -0.004 0.043 -0.008 0.07 -0.012 m 0.074 -0.145 c -0.008 -0.012 -0.004 -0.02 0.012 -0.02 c 0.012 0 0.016 0.004 0.012 0.012 c 0 0.012 -0.016 0.016 -0.023 0.008 m 0.41 -0.031 c 0.008 -0.008 0.008 -0.012 -0.004 -0.023 c -0.027 -0.023 -0.051 -0.004 -0.027 0.02 c 0.016 0.02 0.02 0.02 0.031 0.004 m -5.371 -0.199 c -0.004 -0.004 -0.004 0 -0.004 0.012 c 0 0.012 0 0.016 0.004 0.008 c 0 -0.004 0 -0.012 0 -0.02 m 7.848 -0.031 c 0 -0.004 -0.008 0 -0.008 0.004 c -0.012 0.02 -0.008 0.027 0.004 0.016 c 0.004 -0.008 0.008 -0.016 0.004 -0.02 m -5.332 -0.355 c 0 -0.004 -0.004 0 -0.004 0.012 c 0 0.012 0.004 0.016 0.004 0.008 c 0.004 -0.004 0.004 -0.012 0 -0.02 m 4.496 -0.137 c 0.02 -0.02 0.016 -0.023 -0.012 -0.008 c -0.023 0.012 -0.043 0.031 -0.043 0.043 c 0 0.004 0.039 -0.02 0.055 -0.035 m -4.492 -0.203 l -0.004 -0.023 l -0.004 0.02 c -0.004 0.023 -0.008 0.137 0 0.172 c 0.004 0.027 0.004 0.016 0.008 -0.055 c 0.004 -0.051 0.004 -0.102 0 -0.113 m 3.59 0.18 c 0.074 -0.004 0.137 -0.023 0.184 -0.051 c 0.035 -0.02 0.043 -0.031 0.035 -0.055 c -0.012 -0.027 -0.031 -0.027 -0.059 -0.004 c -0.027 0.02 -0.031 0.02 -0.148 0.02 c -0.066 -0.004 -0.129 -0.008 -0.145 -0.012 c -0.016 -0.004 -0.051 -0.008 -0.074 -0.008 c -0.027 0 -0.055 -0.004 -0.063 -0.008 c -0.008 -0.008 -0.035 -0.012 -0.059 -0.016 c -0.023 -0.004 -0.051 -0.012 -0.059 -0.02 c -0.02 -0.012 -0.039 -0.008 -0.035 0.008 c 0.008 0.016 0.102 0.086 0.133 0.102 c 0.016 0.008 0.039 0.016 0.055 0.02 c 0.016 0.008 0.039 0.016 0.047 0.02 c 0.012 0.004 0.031 0.008 0.043 0.008 c 0.016 0 0.031 0.004 0.043 0.004 c 0.008 0.004 0.02 0.008 0.023 0.004 c 0.004 -0.004 0.039 -0.008 0.078 -0.012 m 1.012 -0.059 c 0.039 -0.027 0.066 -0.055 0.051 -0.055 c -0.016 0 -0.086 0.047 -0.094 0.063 c -0.016 0.031 -0.004 0.027 0.043 -0.008 m 4.492 -0.016 c 0 -0.004 0.004 -0.02 0.004 -0.031 c 0 -0.008 0.004 -0.023 0.004 -0.031 c -0.008 -0.121 -0.031 -0.016 -0.031 -0.016 c -0.012 0.023 0.016 0.055 0.023 0.078 m -12.398 -0.32 c 0 -0.051 0 -0.008 0 0.094 c 0 0.105 0 0.148 0 0.094 c 0 -0.051 0 -0.137 0 -0.188 m 8.07 0.223 c 0.023 -0.02 0.031 -0.031 0.023 -0.035 c -0.004 0 -0.008 -0.004 -0.008 -0.008 c 0 -0.012 -0.016 0 -0.047 0.035 c -0.012 0.012 -0.023 0.027 -0.02 0.035 c 0.008 0.012 0.012 0.008 0.051 -0.027 m -5.523 -0.035 c -0.004 -0.016 -0.004 -0.113 -0.004 -0.219 c 0 -0.109 -0.004 -0.188 -0.004 -0.18 c -0.008 0.02 -0.012 0.348 -0.004 0.395 c 0 0.02 0.004 0.035 0.008 0.035 c 0.004 0 0.008 -0.012 0.004 -0.031 m 4.746 -0.012 c 0 -0.02 -0.004 -0.023 -0.016 -0.023 c -0.012 0 -0.016 0.004 -0.016 0.016 c 0.008 0.039 0.031 0.043 0.031 0.008 m 0.824 -0.004 c 0.004 -0.004 0.004 -0.008 0 -0.008 c -0.004 0 -0.008 0.004 -0.008 0.008 c 0 0.004 0 0.008 0.004 0.008 c 0 0 0.004 -0.004 0.004 -0.008 m -1.945 -0.195 c -0.016 -0.023 -0.031 -0.047 -0.031 -0.055 c 0 -0.004 -0.008 -0.027 -0.016 -0.055 c -0.016 -0.031 -0.023 -0.043 -0.035 -0.047 c -0.02 -0.004 -0.078 -0.121 -0.078 -0.156 c 0 -0.016 -0.008 -0.031 -0.023 -0.051 c -0.016 -0.027 -0.02 -0.035 -0.02 -0.066 c 0 -0.023 -0.004 -0.035 -0.016 -0.051 c -0.004 -0.008 -0.02 -0.031 -0.027 -0.051 c -0.016 -0.035 -0.055 -0.094 -0.063 -0.094 c -0.012 0 0 0.063 0.012 0.098 c 0.008 0.016 0.023 0.055 0.035 0.082 c 0.012 0.027 0.043 0.094 0.066 0.148 c 0.082 0.184 0.133 0.27 0.188 0.32 c 0.02 0.02 0.035 0.031 0.039 0.023 c 0 -0.004 -0.012 -0.027 -0.031 -0.047 m 3.688 -0.051 c 0 -0.008 0 -0.004 0 0.012 c 0 0.012 0 0.016 0 0.012 c 0.004 -0.004 0.004 -0.016 0 -0.023 m -2.371 0 c 0.004 -0.008 0.004 -0.008 -0.004 0 c -0.012 0.008 -0.012 0.016 -0.004 0.016 c 0.004 0 0.008 -0.008 0.008 -0.016 m -4.18 -0.359 c 0 -0.234 0 -0.332 -0.004 -0.34 c -0.004 -0.004 -0.008 0.074 -0.008 0.293 c 0.004 0.355 0.004 0.387 0.008 0.383 c 0 -0.004 0.004 -0.152 0.004 -0.336 m 4.227 0.316 c 0.004 -0.016 0.008 -0.023 0.004 -0.027 c -0.008 -0.012 -0.035 0.016 -0.035 0.035 c 0 0.016 0.02 0.012 0.031 -0.008 m -7.527 -0.152 c 0 -0.059 0 -0.109 -0.004 -0.113 c 0 0 -0.004 0.051 -0.004 0.113 c 0 0.066 0 0.117 0.004 0.117 c 0 -0.004 0.004 -0.055 0.004 -0.117 m 6.18 0.043 c -0.004 -0.008 -0.016 0.004 -0.016 0.02 c 0 0.012 0 0.012 0.012 -0.004 c 0.004 -0.004 0.008 -0.012 0.004 -0.016 m 0.758 0.004 c 0.117 -0.039 0.266 -0.176 0.363 -0.336 c 0.172 -0.273 0.234 -0.527 0.254 -0.992 c 0.008 -0.195 0 -0.414 -0.016 -0.547 c -0.031 -0.23 -0.125 -0.535 -0.219 -0.723 c -0.105 -0.207 -0.215 -0.324 -0.359 -0.379 c -0.039 -0.016 -0.059 -0.02 -0.129 -0.02 c -0.074 0 -0.09 0 -0.141 0.02 c -0.078 0.035 -0.148 0.09 -0.219 0.176 c -0.105 0.133 -0.176 0.289 -0.246 0.555 c -0.082 0.293 -0.098 0.445 -0.098 0.828 c 0 0.25 0.004 0.359 0.02 0.465 c 0.066 0.414 0.348 0.859 0.598 0.953 c 0.055 0.02 0.133 0.02 0.191 0 m 0.672 -0.012 c 0.016 -0.012 0.035 -0.035 0.047 -0.051 c 0.008 -0.02 0.031 -0.059 0.047 -0.09 c 0.02 -0.027 0.043 -0.074 0.059 -0.102 c 0.012 -0.027 0.035 -0.078 0.047 -0.109 c 0.02 -0.043 0.027 -0.07 0.027 -0.09 c 0 -0.02 0.008 -0.039 0.016 -0.059 c 0.008 -0.012 0.02 -0.055 0.027 -0.086 c 0.008 -0.035 0.023 -0.086 0.031 -0.113 c 0.012 -0.031 0.02 -0.066 0.02 -0.086 c 0 -0.027 0 -0.031 -0.012 -0.023 c -0.008 0.008 -0.016 0.008 -0.031 -0.008 c -0.016 -0.016 -0.02 -0.016 -0.027 -0.008 c -0.016 0.016 -0.012 0.039 0.004 0.059 c 0.016 0.023 0.008 0.047 -0.012 0.039 c -0.016 -0.004 -0.031 0.02 -0.051 0.07 c -0.012 0.027 -0.031 0.043 -0.039 0.027 c -0.008 -0.02 -0.023 0.012 -0.023 0.047 c 0 0.016 -0.004 0.031 -0.004 0.031 c -0.012 0.008 -0.035 0.074 -0.035 0.102 c 0 0.016 -0.008 0.051 -0.02 0.078 c -0.027 0.078 -0.031 0.102 -0.016 0.113 c 0.008 0.008 0.012 0.016 0.012 0.023 c 0 0.016 -0.023 0.078 -0.063 0.16 c -0.027 0.059 -0.039 0.094 -0.031 0.094 c 0 0 0.016 -0.008 0.027 -0.02 m 4.785 -0.203 c 0 -0.035 0 -0.008 0 0.066 c 0 0.168 0 0.016 0 -0.066 m -9.863 0.047 c 0 -0.012 0 -0.004 0 0.016 c 0 0.023 0 0.031 0 0.023 c 0.004 -0.012 0.004 -0.027 0 -0.039 m 8.129 -0.027 c 0 -0.012 0 -0.004 0 0.02 c 0 0.027 0 0.039 0 0.027 c 0.004 -0.012 0.004 -0.031 0 -0.047 m -8.125 -0.449 c -0.004 -0.078 -0.004 -0.082 -0.008 -0.031 c -0.004 0.109 -0.004 0.363 0 0.387 c 0.008 0.031 0.012 -0.25 0.008 -0.355 m -2.535 0.055 c -0.004 -0.039 -0.008 -0.008 -0.008 0.129 v 0.18 l 0.008 -0.133 c 0.004 -0.078 0.004 -0.148 0 -0.176 m 12.398 0.039 l -0.004 -0.227 l -0.004 0.188 c 0 0.18 0 0.266 0.004 0.266 c 0.004 0 0.004 -0.102 0.004 -0.227 m -2.543 0.059 c -0.004 -0.004 -0.008 0.027 -0.004 0.066 v 0.074 l 0.004 -0.066 c 0 -0.035 0 -0.07 0 -0.074 m 0.82 0.094 c 0.023 -0.066 0.066 -0.078 0.113 -0.023 l 0.031 0.031 l -0.004 -0.023 c -0.012 -0.059 -0.023 -0.074 -0.063 -0.09 c -0.035 -0.012 -0.035 -0.012 -0.063 0.004 c -0.035 0.02 -0.047 0.051 -0.039 0.102 c 0.004 0.02 0.008 0.035 0.008 0.035 c 0.004 0 0.008 -0.016 0.016 -0.035 m -6.203 -0.172 c 0.016 -0.004 0.02 -0.008 0.02 -0.02 c 0 -0.023 -0.008 -0.035 -0.023 -0.039 c -0.012 -0.004 -0.051 -0.051 -0.105 -0.121 c -0.008 -0.012 -0.023 -0.031 -0.039 -0.043 c -0.012 -0.012 -0.027 -0.027 -0.031 -0.039 c 0 -0.008 -0.008 -0.027 -0.012 -0.039 c -0.004 -0.016 -0.016 -0.027 -0.023 -0.035 c -0.016 -0.008 -0.031 -0.023 -0.074 -0.086 c -0.016 -0.027 -0.023 -0.027 -0.027 0.008 c -0.004 0.023 0 0.031 0.016 0.059 c 0.012 0.016 0.027 0.043 0.035 0.063 c 0.008 0.02 0.02 0.039 0.023 0.043 c 0.004 0.008 0.008 0.016 0.008 0.02 c 0 0.008 0.008 0.016 0.02 0.023 c 0.008 0.008 0.031 0.035 0.047 0.063 c 0.016 0.031 0.031 0.059 0.039 0.063 c 0.012 0.008 0.031 0.031 0.059 0.07 c 0.012 0.023 0.02 0.027 0.031 0.023 c 0.012 -0.004 0.027 -0.008 0.039 -0.012 m -3.684 -0.055 c 0.004 -0.008 0.004 -0.086 0.004 -0.18 c 0 -0.117 -0.004 -0.16 -0.008 -0.152 c -0.008 0.008 -0.012 0.348 -0.004 0.348 c 0.004 0 0.008 -0.008 0.008 -0.016 m 9.06 -0.117 c 0 -0.008 -0.004 -0.008 -0.004 0.004 c 0 0.008 0.004 0.012 0.004 0.008 c 0.004 0 0.004 -0.008 0 -0.012 m -6.535 -0.082 c 0.008 -0.035 0.012 -0.047 0.004 -0.039 c -0.008 0.008 -0.027 0.078 -0.027 0.102 c 0 0.016 0.004 0.016 0.008 0 c 0 -0.008 0.008 -0.039 0.016 -0.063 m 9.08 -0.004 c 0 -0.012 0 -0.004 0 0.012 c 0 0.016 0 0.027 0 0.02 c 0.004 -0.008 0.004 -0.023 0 -0.031 m 0 -0.063 c 0 -0.012 0 -0.004 0 0.012 c 0 0.02 0 0.027 0 0.02 c 0.004 -0.008 0.004 -0.023 0 -0.031 m -9.875 -0.02 c 0 -0.004 -0.004 -0.012 -0.008 -0.012 c -0.004 0 -0.004 0.008 0 0.016 c 0.008 0.02 0.016 0.016 0.008 -0.004 m 9.879 -0.117 c -0.004 -0.012 -0.004 0.008 -0.004 0.051 c 0 0.066 0 0.066 0.004 0.02 c 0 -0.031 0 -0.063 0 -0.07 m -0.816 0.059 c 0 -0.008 0 -0.012 -0.004 -0.012 c -0.004 0 -0.004 0.004 -0.004 0.012 c 0.004 0.004 0.004 0.012 0.008 0.012 c 0 0 0 -0.008 0 -0.012 m 1.621 -0.047 c 0 -0.008 0 -0.004 0 0.016 c 0 0.016 0 0.023 0 0.016 c 0.004 -0.008 0.004 -0.02 0 -0.031 m -7.516 -0.258 c -0.008 -0.008 -0.012 0 -0.008 0.027 l 0.004 0.027 l 0.004 -0.023 c 0 -0.016 0 -0.031 0 -0.031 m 4.586 -0.066 c 0 -0.004 -0.004 -0.008 -0.008 -0.008 c -0.004 0 -0.008 0.004 -0.008 0.008 c 0 0.008 0.004 0.008 0.008 0.008 c 0.004 0 0.008 0 0.008 -0.008 m 0.09 -0.016 c 0.008 -0.027 0 -0.043 -0.012 -0.043 c -0.008 0 -0.008 0.008 -0.008 0.023 c 0 0.039 0.016 0.051 0.02 0.02 m -10.75 -0.055 c 0.02 -0.02 0.008 -0.047 -0.023 -0.066 c -0.031 -0.016 -0.031 -0.02 -0.25 -0.02 c -0.211 0 -0.223 0 -0.246 0.016 c -0.023 0.012 -0.023 0.02 -0.023 0.043 v 0.023 l 0.207 0.004 c 0.113 0 0.211 0.004 0.211 0.004 c 0.008 0.012 0.113 0.008 0.125 -0.004 m 1.574 -0.047 c 0.035 -0.008 0.109 -0.012 0.16 -0.012 c 0.066 0 0.094 -0.004 0.102 -0.012 c 0.004 -0.008 0.035 -0.012 0.078 -0.016 c 0.035 -0.004 0.07 -0.008 0.074 -0.016 c 0.008 -0.004 0.012 -0.043 0.004 -0.043 c 0 0 -0.031 -0.004 -0.066 -0.012 c -0.039 -0.008 -0.105 -0.016 -0.152 -0.016 c -0.047 0 -0.102 -0.008 -0.125 -0.012 c -0.035 -0.008 -0.086 -0.012 -0.172 -0.008 c -0.023 0.004 -0.125 0.051 -0.137 0.07 c -0.012 0.012 0.012 0.043 0.039 0.059 c 0.07 0.027 0.086 0.035 0.105 0.031 c 0.012 -0.004 0.051 -0.012 0.09 -0.016 m 9.23 -0.012 c 0 -0.008 -0.004 -0.012 -0.012 -0.016 c -0.012 -0.004 -0.023 0.016 -0.012 0.023 c 0.012 0.012 0.023 0.004 0.023 -0.008 m -7.984 -0.008 c 0.004 -0.004 0.012 -0.016 0.016 -0.027 c 0.012 -0.02 0.012 -0.023 0 -0.055 c -0.016 -0.039 -0.039 -0.055 -0.055 -0.031 c -0.012 0.02 -0.035 0.027 -0.082 0.027 c -0.023 0 -0.055 0.004 -0.066 0.012 c -0.02 0.012 -0.027 0.012 -0.039 0.004 c -0.016 -0.012 -0.051 -0.012 -0.059 0 c -0.008 0.008 -0.012 0.008 -0.02 0.004 c -0.012 -0.008 -0.098 -0.008 -0.168 0 l -0.051 0.008 v 0.023 c 0 0.016 0.004 0.027 0.012 0.031 c 0.02 0.008 0.078 -0.008 0.105 -0.023 l 0.027 -0.02 l 0.02 0.012 c 0.016 0.012 0.043 0.02 0.098 0.027 c 0.047 0.004 0.086 0.008 0.094 0.012 c 0.027 0.004 0.164 0 0.168 -0.004 m -0.559 -0.016 c 0 -0.004 -0.004 -0.008 -0.008 -0.008 c -0.004 0 -0.004 0.004 -0.004 0.008 c 0 0.004 0 0.008 0.004 0.008 c 0.004 0 0.008 -0.004 0.008 -0.008 m -1.875 -0.051 c 0 -0.012 0.004 -0.031 0.004 -0.047 v -0.023 l -0.012 0.02 c -0.008 0.012 -0.016 0.027 -0.023 0.031 c -0.012 0.016 -0.012 0.027 0 0.035 c 0.016 0.008 0.023 0.004 0.031 -0.016 m 11.355 0 c 0 -0.023 -0.023 -0.125 -0.039 -0.176 c -0.012 -0.035 -0.027 -0.102 -0.039 -0.156 c -0.023 -0.113 -0.047 -0.207 -0.074 -0.313 c -0.012 -0.047 -0.027 -0.109 -0.031 -0.145 c -0.008 -0.035 -0.023 -0.098 -0.031 -0.145 c -0.012 -0.043 -0.023 -0.09 -0.027 -0.105 c -0.004 -0.016 -0.012 -0.051 -0.016 -0.082 c -0.008 -0.031 -0.016 -0.059 -0.016 -0.063 c 0 -0.008 -0.016 -0.059 -0.031 -0.117 c -0.02 -0.063 -0.035 -0.117 -0.035 -0.129 c 0 -0.027 -0.035 -0.102 -0.051 -0.109 c -0.008 -0.008 -0.023 -0.012 -0.031 -0.012 c -0.02 -0.004 -0.023 0.02 -0.004 0.066 c 0.008 0.02 0.016 0.051 0.016 0.07 c 0.004 0.016 0.02 0.082 0.035 0.141 c 0.016 0.063 0.035 0.156 0.043 0.207 c 0.039 0.223 0.102 0.461 0.18 0.715 c 0.004 0.016 0.008 0.031 0.008 0.039 c 0 0.008 0.008 0.02 0.016 0.027 c 0.008 0.012 0.039 0.078 0.066 0.152 c 0.043 0.117 0.063 0.156 0.063 0.129 m -9.457 -0.016 c -0.004 -0.008 -0.008 -0.008 -0.012 -0.004 c 0 0.004 0 0.008 0.008 0.012 c 0.008 0.008 0.016 0.004 0.004 -0.008 m -1.078 -0.016 c 0.004 -0.008 0.004 -0.035 0 -0.066 c -0.004 -0.027 -0.008 -0.121 -0.012 -0.203 c 0 -0.082 -0.004 -0.168 -0.008 -0.188 l -0.004 -0.035 l -0.004 0.031 c -0.004 0.039 0.004 0.453 0.008 0.469 c 0.008 0.012 0.016 0.012 0.02 -0.008 m 1.332 -0.016 c 0 -0.004 -0.004 -0.008 -0.008 -0.008 c -0.012 0 -0.016 0.012 -0.008 0.02 c 0.004 0.004 0.016 0 0.016 -0.012 m 0.371 -0.031 c 0.004 -0.012 0.004 -0.035 0.004 -0.059 c 0 -0.031 0 -0.035 -0.008 -0.023 c 0 0.012 -0.012 0.031 -0.02 0.047 c -0.02 0.031 -0.016 0.051 0.008 0.051 c 0.008 0 0.016 -0.004 0.016 -0.016 m 10.527 -0.016 c 0 -0.016 -0.008 -0.027 -0.016 -0.016 c -0.004 0.012 0 0.031 0.012 0.031 c 0.004 0 0.004 -0.004 0.004 -0.016 m -9.586 -0.039 c 0.027 -0.031 0.039 -0.039 0.063 -0.043 c 0.043 -0.008 0.051 -0.023 0.047 -0.086 c -0.004 -0.059 -0.012 -0.074 -0.031 -0.063 c -0.012 0.008 -0.02 0.027 -0.031 0.063 c -0.012 0.035 -0.02 0.055 -0.023 0.055 c -0.008 0 -0.016 0.004 -0.02 0.008 c -0.016 0.02 -0.074 0.051 -0.086 0.051 c -0.02 0 -0.02 0.023 0 0.047 c 0.02 0.023 0.039 0.02 0.082 -0.031 m 9.348 0.016 c 0 -0.012 -0.012 -0.031 -0.02 -0.031 c -0.008 0 -0.008 0.02 0 0.031 c 0.012 0.012 0.02 0.012 0.02 0 m -2.961 -0.055 c 0 -0.004 -0.004 -0.004 -0.004 0.004 c 0 0.008 0.004 0.016 0.004 0.012 c 0.004 -0.004 0.004 -0.008 0 -0.016 m 3.02 0 c 0 -0.02 -0.012 -0.016 -0.016 0.004 c 0 0.008 0 0.012 0.008 0.012 c 0.004 0 0.008 -0.004 0.008 -0.016 m -2.832 -0.023 c 0.02 -0.035 0.016 -0.051 -0.012 -0.051 c -0.012 0 -0.027 -0.004 -0.031 -0.012 c -0.004 -0.008 -0.008 -0.008 -0.012 0.004 c -0.008 0.016 -0.008 0.027 0.004 0.039 c 0.004 0.004 0.008 0.016 0.008 0.027 c 0 0.027 0.023 0.023 0.043 -0.008 m 2.965 -0.004 c -0.004 -0.02 -0.023 -0.055 -0.031 -0.055 c -0.016 0 -0.012 0.023 0.008 0.051 c 0.02 0.031 0.031 0.031 0.023 0.004 m -9.641 -0.066 c 0 -0.008 -0.008 -0.023 -0.016 -0.039 c -0.012 -0.016 -0.016 -0.031 -0.016 -0.055 c 0 -0.016 -0.008 -0.059 -0.012 -0.094 c -0.008 -0.035 -0.016 -0.066 -0.016 -0.074 c 0 -0.008 0 -0.016 -0.004 -0.016 c -0.004 0 -0.004 0.047 -0.004 0.129 c 0.004 0.156 0.008 0.172 0.02 0.191 c 0.012 0.016 0.012 0.016 0.027 -0.008 c 0.012 -0.012 0.02 -0.027 0.02 -0.035 m 6.496 0.008 c 0 -0.023 0 -0.047 -0.004 -0.055 c -0.004 -0.016 -0.004 -0.012 -0.008 0.008 c -0.008 0.031 0 0.098 0.008 0.09 c 0.004 0 0.004 -0.02 0.004 -0.043 m 3.348 0.02 c 0 -0.016 -0.004 -0.023 -0.008 -0.023 c -0.008 0 -0.008 0.031 0 0.039 c 0.004 0.012 0.008 0.008 0.008 -0.016 m -0.074 0.004 c 0.008 -0.016 -0.008 -0.027 -0.012 -0.012 c -0.008 0.012 -0.004 0.023 0.004 0.023 c 0.004 0 0.008 -0.008 0.008 -0.012 m -0.242 -0.043 c 0 -0.016 -0.008 -0.023 -0.016 -0.008 c -0.004 0.012 0.004 0.031 0.012 0.027 c 0 -0.004 0.004 -0.012 0.004 -0.02 m 0.289 -0.063 c 0 -0.008 0.004 -0.016 0.008 -0.02 c 0.004 -0.004 0.008 0.004 0.008 0.02 c 0 0.012 0 0.023 0.004 0.027 c 0.008 0.004 0.016 -0.148 0.012 -0.207 c -0.004 -0.027 -0.004 -0.082 -0.004 -0.121 c -0.004 -0.09 -0.012 -0.133 -0.012 -0.051 c 0 0.063 -0.008 0.078 -0.02 0.043 c -0.008 -0.031 -0.02 -0.031 -0.02 0 c 0 0.031 0.008 0.047 0.023 0.055 c 0.012 0.004 0.016 0.012 0.016 0.031 c 0 0.027 -0.004 0.027 -0.02 0.027 c -0.02 0 -0.02 0.004 -0.02 0.031 c 0 0.031 0 0.031 -0.023 0.035 c -0.027 0.004 -0.031 0.016 -0.012 0.027 c 0.008 0.008 0.012 0.016 0.012 0.031 c 0 0.016 0.004 0.035 0.008 0.051 c 0.004 0.016 0.012 0.039 0.012 0.047 v 0.023 l 0.012 -0.02 c 0.012 -0.012 0.016 -0.023 0.016 -0.031 m -0.129 0.012 c 0.004 -0.012 -0.008 -0.035 -0.02 -0.035 c -0.004 0 -0.008 0.043 0 0.051 c 0.008 0.008 0.016 0 0.02 -0.016 m -3.043 -0.008 c 0.008 -0.008 0.012 -0.051 0.004 -0.051 c -0.008 0 -0.027 0.047 -0.027 0.059 c 0 0.008 0.016 0.004 0.023 -0.008 m -0.152 -0.047 c 0 -0.016 -0.004 -0.02 -0.008 -0.012 c 0 0.004 -0.004 0.016 0 0.02 c 0.004 0.02 0.008 0.012 0.008 -0.008 m -1.875 -0.055 c -0.008 -0.027 -0.008 -0.027 -0.008 -0.008 c 0 0.027 0.008 0.066 0.012 0.051 c 0 -0.008 -0.004 -0.027 -0.004 -0.043 m 2.09 0.02 c -0.004 -0.008 -0.004 -0.004 -0.004 0.004 c 0 0.008 0 0.012 0 0.012 c 0.004 -0.004 0.004 -0.012 0.004 -0.016 m -8.133 -0.016 c 0.086 -0.031 0.141 -0.102 0.16 -0.211 c 0.004 -0.023 0.004 -0.176 0.004 -0.391 c 0 -0.328 0 -0.355 -0.012 -0.414 c -0.008 -0.031 -0.02 -0.078 -0.027 -0.102 c -0.023 -0.055 -0.09 -0.137 -0.152 -0.191 c -0.027 -0.027 -0.078 -0.074 -0.109 -0.105 c -0.141 -0.141 -0.18 -0.129 -0.363 0.102 c -0.203 0.246 -0.211 0.281 -0.211 0.836 c 0 0.223 0 0.27 0.008 0.297 c 0.031 0.105 0.09 0.168 0.172 0.188 c 0.016 0.004 0.133 0.008 0.266 0.004 c 0.184 0 0.242 -0.004 0.266 -0.012 m 7.918 -0.063 l -0.004 -0.043 l -0.004 0.035 c -0.004 0.039 0 0.07 0.008 0.059 c 0.004 -0.004 0.004 -0.027 0 -0.051 m 0.207 0.004 c 0.012 -0.012 0.008 -0.035 0 -0.039 c -0.012 -0.004 -0.039 0.023 -0.031 0.039 c 0.004 0.016 0.023 0.016 0.031 0 m 2.637 -0.027 c 0 -0.004 0 -0.008 -0.004 -0.004 c -0.008 0 -0.012 0.008 -0.012 0.012 c -0.004 0.008 0 0.008 0.004 0.008 c 0.004 -0.004 0.012 -0.008 0.012 -0.016 m 0.219 -0.023 c 0.008 -0.012 -0.012 -0.035 -0.027 -0.035 c -0.016 0 -0.02 0.012 -0.008 0.031 c 0.012 0.016 0.031 0.02 0.035 0.004 m -0.313 -0.004 c 0.004 -0.012 -0.016 -0.039 -0.027 -0.043 c -0.02 -0.008 -0.023 0.004 -0.008 0.027 c 0.012 0.02 0.027 0.027 0.035 0.016 m 0.516 -0.004 c 0.004 -0.016 -0.008 -0.027 -0.016 -0.016 c -0.004 0.008 0 0.023 0.008 0.023 c 0.004 0 0.008 -0.004 0.008 -0.008 m -12.32 -0.055 c 0 -0.039 -0.004 -0.043 -0.008 -0.023 c -0.004 0.023 0 0.07 0.004 0.07 c 0.004 0 0.004 -0.02 0.004 -0.047 m 7.152 -0.008 c -0.012 -0.086 -0.031 -0.188 -0.035 -0.172 c 0 0.012 0.02 0.148 0.035 0.207 c 0.004 0.031 0.008 0.008 0 -0.035 m -5.418 -0.277 c 0 -0.117 -0.004 -0.238 -0.008 -0.27 c 0 -0.051 -0.004 -0.043 -0.008 0.074 c -0.004 0.172 -0.004 0.355 0 0.43 l 0.004 0.059 l 0.008 -0.039 c 0 -0.023 0.004 -0.137 0.004 -0.254 m 10.441 0.266 c -0.004 -0.027 -0.016 -0.031 -0.016 -0.008 c 0 0.02 0.004 0.031 0.012 0.031 c 0.004 0 0.004 -0.012 0.004 -0.023 m -3.121 -0.09 c 0 -0.047 -0.004 -0.086 -0.004 -0.09 c 0 0 -0.004 0.039 -0.004 0.09 c 0 0.051 0.004 0.09 0.008 0.09 c 0.004 0 0.004 -0.035 0 -0.09 m 3.223 0.063 c 0.004 -0.008 0 -0.012 -0.004 -0.012 c -0.012 0 -0.016 0.012 -0.012 0.016 c 0.008 0.012 0.012 0.008 0.016 -0.004 m -0.684 -0.016 c 0 -0.004 -0.004 -0.004 -0.004 0.008 c 0 0.008 0.004 0.012 0.004 0.008 c 0.004 0 0.004 -0.008 0 -0.016 m 0.441 -0.016 c 0.004 -0.004 0.008 -0.012 0.008 -0.016 c 0 -0.012 -0.02 -0.004 -0.027 0.012 c -0.012 0.016 -0.012 0.016 0 0.016 c 0.004 0 0.016 -0.004 0.02 -0.012 m -2.797 -0.027 c 0.012 -0.023 -0.004 -0.043 -0.016 -0.031 c -0.012 0.016 -0.008 0.047 0.004 0.047 c 0.004 0 0.008 -0.008 0.012 -0.016 m 2.359 -0.031 c 0 -0.031 -0.004 -0.031 -0.008 -0.016 c -0.004 0.016 -0.004 0.055 0.004 0.055 c 0.004 0 0.004 -0.016 0.004 -0.039 m -2.418 0.012 c 0.012 -0.059 -0.004 -0.078 -0.035 -0.047 c -0.027 0.023 -0.027 0.031 -0.012 0.051 c 0.02 0.02 0.043 0.02 0.047 -0.004 m -6.684 -0.078 c 0 -0.016 0 -0.004 0 0.027 c 0 0.031 0 0.047 0 0.027 c 0.004 -0.016 0.004 -0.039 0 -0.055 m 9.902 0.004 c -0.004 -0.008 -0.004 -0.004 -0.004 0.008 c 0 0.012 0 0.016 0.004 0.012 c 0 -0.008 0 -0.016 0 -0.02 m -3.859 -0.02 c 0.031 -0.051 0.047 -0.266 0.023 -0.387 c -0.012 -0.074 -0.055 -0.191 -0.098 -0.262 c -0.102 -0.172 -0.273 -0.309 -0.281 -0.227 c 0 0.023 0.027 0.117 0.07 0.23 c 0.043 0.121 0.078 0.23 0.113 0.355 c 0.02 0.063 0.047 0.145 0.063 0.18 c 0.027 0.074 0.066 0.137 0.082 0.137 c 0.008 0 0.02 -0.012 0.027 -0.027 m 0.68 -0.004 c 0.012 -0.016 0.008 -0.051 -0.008 -0.07 c -0.008 -0.008 -0.016 -0.023 -0.016 -0.039 c 0 -0.023 -0.004 -0.027 -0.027 -0.012 c -0.02 0.012 -0.02 0.027 -0.004 0.035 c 0.016 0.004 0.031 0.043 0.031 0.066 c 0 0.027 0.012 0.035 0.023 0.02 m -2.109 -0.035 c -0.008 -0.027 -0.016 -0.012 -0.008 0.02 c 0 0.012 0.004 0.016 0.008 0.012 c 0.004 -0.004 0.004 -0.016 0 -0.031 m 5.125 0.02 c 0.008 -0.016 -0.004 -0.039 -0.016 -0.039 c -0.012 0 -0.023 0.027 -0.02 0.043 c 0.004 0.016 0.027 0.016 0.035 -0.004 m -0.637 -0.129 c 0 -0.07 0 -0.125 -0.004 -0.125 c -0.004 0.004 -0.008 0.246 -0.004 0.25 c 0 0.004 0.004 0.004 0.004 0.004 c 0.004 0 0.004 -0.059 0.004 -0.129 m 0.406 0.066 c 0 -0.016 0 -0.023 -0.008 -0.023 c -0.012 0 -0.023 0.02 -0.023 0.035 c 0 0.023 0.027 0.012 0.031 -0.012 m -4 0 c 0.004 -0.012 0.008 -0.027 0.012 -0.039 c 0.004 -0.023 0.012 -0.027 0.035 -0.012 c 0.012 0.008 0.023 0.012 0.031 0.012 c 0.008 0 0.023 0.008 0.035 0.016 c 0.02 0.016 0.023 0.016 0.023 0.004 c 0 -0.02 -0.027 -0.07 -0.031 -0.066 c -0.004 0.004 -0.008 0 -0.012 -0.008 c -0.008 -0.016 -0.008 -0.02 0.004 -0.02 c 0.012 0 0.012 -0.008 -0.012 -0.086 c -0.012 -0.039 -0.023 -0.07 -0.023 -0.074 c 0 0 -0.012 -0.023 -0.023 -0.043 c -0.016 -0.023 -0.027 -0.055 -0.031 -0.074 c -0.012 -0.043 -0.023 -0.066 -0.059 -0.129 c -0.035 -0.055 -0.051 -0.063 -0.059 -0.031 l -0.008 0.02 l -0.016 -0.016 c -0.008 -0.012 -0.02 -0.02 -0.023 -0.02 c -0.02 -0.004 -0.027 -0.031 -0.012 -0.039 c 0.008 0 0 0 -0.012 0 c -0.02 0 -0.027 -0.004 -0.051 -0.039 c -0.016 -0.02 -0.035 -0.047 -0.043 -0.059 c -0.008 -0.012 -0.016 -0.023 -0.016 -0.027 c 0 -0.016 -0.027 -0.035 -0.039 -0.027 c -0.016 0.004 -0.012 0.035 0.008 0.066 c 0.012 0.02 0.023 0.039 0.031 0.051 c 0.02 0.035 0.055 0.121 0.055 0.137 c 0 0.012 0.008 0.027 0.02 0.043 c 0.008 0.016 0.023 0.043 0.031 0.066 c 0.012 0.02 0.023 0.051 0.035 0.066 c 0.008 0.016 0.016 0.039 0.016 0.047 c 0 0.008 0.008 0.047 0.023 0.082 c 0.012 0.035 0.023 0.07 0.023 0.074 c 0 0.012 0.043 0.117 0.051 0.133 c 0.012 0.016 0.031 0.012 0.035 -0.008 m -0.055 -0.359 c -0.035 -0.047 -0.051 -0.07 -0.051 -0.109 c 0 -0.027 0.016 -0.02 0.043 0.02 c 0.012 0.023 0.035 0.047 0.047 0.059 c 0.031 0.031 0.039 0.074 0.012 0.074 c -0.008 0 -0.027 -0.02 -0.051 -0.043 m 4.297 0.289 c -0.012 -0.027 -0.039 -0.039 -0.039 -0.016 c 0 0.008 0.012 0.023 0.02 0.039 c 0.02 0.02 0.023 0.023 0.027 0.012 c 0.004 -0.008 0 -0.02 -0.008 -0.035 m -0.297 0.008 c 0.004 -0.008 0.004 -0.016 -0.008 -0.023 c -0.016 -0.012 -0.016 -0.012 -0.023 0.004 c -0.004 0.008 -0.004 0.016 -0.004 0.023 c 0.008 0.008 0.027 0.008 0.035 -0.004 m -11.949 -0.027 c 0 -0.016 -0.004 -0.02 -0.008 -0.012 c -0.004 0.004 -0.004 0.016 -0.004 0.02 c 0.008 0.02 0.012 0.016 0.012 -0.008 m 12.375 -0.051 c 0 -0.004 -0.004 -0.016 -0.008 -0.02 c -0.008 -0.004 -0.012 -0.02 -0.012 -0.035 c -0.004 -0.027 -0.023 -0.039 -0.023 -0.012 c 0 0.008 -0.004 0.023 -0.008 0.031 c -0.004 0.012 -0.004 0.016 0.008 0.016 c 0.004 0 0.016 0.008 0.02 0.016 c 0.008 0.016 0.023 0.02 0.023 0.004 m -5.324 -0.027 c -0.004 -0.02 -0.039 -0.102 -0.039 -0.094 c 0 0.012 0.023 0.098 0.031 0.105 c 0.012 0.016 0.012 0.012 0.008 -0.012 m 4.961 0.012 c 0.008 -0.008 0.008 -0.02 0.008 -0.055 c 0 -0.055 -0.004 -0.063 -0.02 -0.055 c -0.008 0.004 -0.008 0.012 -0.004 0.031 c 0 0.02 0 0.031 -0.008 0.047 c -0.016 0.031 0 0.055 0.023 0.031 m 0.301 -0.012 c 0 -0.004 -0.004 -0.008 -0.004 -0.008 c -0.004 0 -0.008 0.004 -0.012 0.008 c 0 0.004 0 0.008 0.008 0.008 c 0.004 0 0.008 -0.004 0.008 -0.008 m -12.316 -0.027 c 0 -0.004 0 0 0 0.012 c 0 0.012 0 0.016 0 0.008 c 0.004 -0.004 0.004 -0.012 0 -0.02 m 4.105 -0.055 c 0.02 -0.051 0.066 -0.113 0.082 -0.113 c 0.012 0 0.012 0.008 0.012 0.027 c 0 0.016 0.004 0.031 0.008 0.031 c 0.012 0.008 0.035 -0.004 0.035 -0.016 c 0 -0.02 0.016 -0.066 0.027 -0.09 c 0.02 -0.035 0.039 -0.047 0.07 -0.047 c 0.035 0.004 0.051 -0.012 0.051 -0.047 c 0 -0.02 0 -0.02 -0.016 -0.016 c -0.023 0.004 -0.023 0 -0.008 -0.051 c 0.02 -0.051 0.066 -0.121 0.109 -0.16 c 0.008 -0.008 0.023 -0.027 0.031 -0.043 c 0.008 -0.016 0.023 -0.035 0.035 -0.043 c 0.012 -0.004 0.031 -0.027 0.043 -0.047 c 0.012 -0.02 0.031 -0.047 0.047 -0.059 c 0.012 -0.016 0.039 -0.035 0.051 -0.051 c 0.031 -0.027 0.043 -0.027 0.039 0.004 c 0 0.012 0.004 0.016 0.016 0.016 c 0.016 0.004 0.082 -0.051 0.133 -0.113 c 0.012 -0.016 0.043 -0.047 0.066 -0.066 c 0.023 -0.02 0.078 -0.07 0.117 -0.109 c 0.043 -0.039 0.086 -0.078 0.102 -0.086 c 0.012 -0.008 0.031 -0.023 0.043 -0.035 c 0.012 -0.012 0.027 -0.02 0.031 -0.02 c 0.008 0 0.051 -0.02 0.098 -0.043 c 0.086 -0.043 0.133 -0.059 0.227 -0.086 c 0.047 -0.012 0.109 -0.051 0.109 -0.066 c 0 -0.012 -0.027 -0.02 -0.074 -0.016 c -0.043 0 -0.051 0.004 -0.082 0.027 c -0.027 0.02 -0.047 0.031 -0.105 0.047 c -0.082 0.02 -0.129 0.043 -0.18 0.086 c -0.016 0.016 -0.039 0.031 -0.047 0.035 c -0.008 0.004 -0.023 0.016 -0.035 0.02 c -0.016 0.012 -0.02 0.012 -0.035 0.004 c -0.02 -0.012 -0.07 -0.016 -0.137 -0.004 c -0.023 0.004 -0.027 0.004 -0.027 -0.012 c 0 -0.016 -0.012 -0.02 -0.023 -0.008 c -0.012 0.016 -0.008 0.023 0 0.023 c 0.008 0 0.02 0.012 0.031 0.027 c 0.023 0.027 0.035 0.027 0.043 0.008 c 0.004 -0.016 0.016 -0.016 0.023 0.004 c 0.012 0.023 -0.016 0.074 -0.043 0.082 c -0.012 0 -0.023 0.012 -0.027 0.02 c 0 0.008 -0.012 0.02 -0.023 0.027 c -0.008 0.004 -0.031 0.027 -0.047 0.043 c -0.016 0.023 -0.035 0.035 -0.043 0.035 c -0.016 0 -0.016 0 -0.012 -0.027 c 0.004 -0.016 0 -0.035 -0.004 -0.051 c -0.004 -0.02 -0.004 -0.023 0.016 -0.047 c 0.016 -0.02 0.02 -0.02 0.031 -0.012 c 0.012 0.008 0.016 0.004 0.039 -0.027 c 0.031 -0.039 0.031 -0.066 0.004 -0.055 c -0.012 0.004 -0.016 0 -0.016 -0.008 c 0 -0.008 -0.004 -0.012 -0.008 -0.012 c -0.016 0 -0.051 0.039 -0.051 0.051 c 0 0.008 -0.008 0.012 -0.016 0.012 c -0.016 0 -0.031 0.031 -0.027 0.063 c 0.004 0.039 -0.008 0.074 -0.035 0.082 c -0.039 0.016 -0.051 0.016 -0.059 0.008 c -0.004 -0.004 -0.012 0 -0.027 0.016 c -0.016 0.02 -0.016 0.027 -0.012 0.031 c 0.016 0.016 0.035 0.008 0.039 -0.008 c 0.004 -0.008 0.008 -0.016 0.012 -0.012 c 0.004 0.004 0.004 0.012 -0.004 0.023 c -0.004 0.012 -0.008 0.023 -0.008 0.031 c 0 0.02 -0.004 0.027 -0.043 0.055 c -0.023 0.02 -0.039 0.035 -0.039 0.043 c 0 0.02 -0.035 0.059 -0.047 0.051 c -0.008 -0.004 -0.012 -0.016 0 -0.023 c 0 -0.004 0.004 -0.016 0.004 -0.023 c 0 -0.027 0.023 -0.063 0.043 -0.07 c 0.031 -0.012 0.035 -0.043 0.004 -0.059 c -0.02 -0.008 -0.023 -0.008 -0.066 0.043 c -0.027 0.031 -0.051 0.063 -0.051 0.07 c -0.004 0.008 -0.023 0.035 -0.043 0.066 c -0.047 0.059 -0.129 0.195 -0.211 0.336 c -0.023 0.039 -0.055 0.09 -0.07 0.113 c -0.012 0.02 -0.027 0.047 -0.027 0.059 c -0.004 0.012 -0.008 0.035 -0.016 0.055 c -0.008 0.016 -0.012 0.035 -0.012 0.039 c 0 0.008 -0.008 0.016 -0.012 0.023 c -0.016 0.016 -0.043 0.082 -0.043 0.105 c 0 0.016 0 0.016 0.012 -0.004 c 0.008 -0.012 0.02 -0.039 0.027 -0.059 m 0.238 -0.238 c 0 -0.008 0 -0.016 0.004 -0.016 c 0.004 -0.004 0.008 0 0.008 0.004 c 0 0.008 -0.004 0.016 -0.008 0.02 c -0.004 0 -0.004 0 -0.004 -0.008 m 0.375 -0.57 c -0.016 -0.012 -0.012 -0.023 0.004 -0.027 c 0.016 -0.004 0.047 0.012 0.043 0.023 c -0.004 0.012 -0.027 0.012 -0.047 0.004 m 7.531 0.848 c -0.008 -0.004 -0.008 -0.004 -0.012 0.004 c -0.008 0.016 -0.004 0.027 0.008 0.016 c 0.008 -0.008 0.008 -0.012 0.004 -0.02 m -13.04 -0.285 c 0 -0.145 0 -0.254 -0.004 -0.246 c -0.008 0.031 -0.008 0.512 0 0.512 c 0.004 0 0.008 -0.094 0.004 -0.266 m 5.875 0.203 c 0.02 -0.047 0.027 -0.078 0.023 -0.078 c -0.004 0 -0.043 0.09 -0.043 0.102 c 0 0.023 0.004 0.02 0.02 -0.023 m 7.04 -0.008 c 0 -0.02 -0.008 -0.023 -0.023 -0.012 c -0.016 0.016 -0.016 0.027 -0.004 0.031 c 0.02 0.004 0.027 -0.004 0.027 -0.02 m -5.137 -0.039 c -0.008 -0.023 -0.023 -0.055 -0.027 -0.051 c -0.004 0.004 0.023 0.066 0.027 0.066 c 0 0 0 -0.008 0 -0.016 m 4.684 -0.078 c 0.008 -0.016 0.004 -0.07 -0.012 -0.098 l -0.012 -0.027 l 0.016 -0.016 c 0.008 -0.008 0.016 -0.02 0.016 -0.02 c 0 -0.004 -0.008 -0.02 -0.02 -0.039 c -0.023 -0.039 -0.027 -0.059 -0.016 -0.09 c 0.008 -0.016 0.004 -0.023 -0.012 -0.051 c -0.023 -0.035 -0.043 -0.121 -0.035 -0.172 c 0 -0.02 -0.004 -0.039 -0.012 -0.063 c -0.008 -0.02 -0.016 -0.043 -0.016 -0.047 c -0.023 -0.047 0.02 0.199 -0.012 0.023 c 0.016 0.047 0.031 0.137 0.031 0.176 c 0 0.02 0 0.051 0.004 0.074 c 0.004 0.035 0.004 0.039 0.016 0.039 c 0.012 -0.004 0.012 0 0.012 0.117 c 0 0.063 0 0.121 -0.004 0.125 c 0 0.004 -0.008 0.008 -0.012 0.004 c -0.004 0 -0.008 0.008 -0.008 0.031 c -0.004 0.031 -0.004 0.031 0.008 0.023 c 0.012 -0.008 0.016 -0.008 0.027 0.004 c 0.016 0.016 0.035 0.016 0.039 0.004 m -9.941 -0.18 v -0.102 l -0.004 0.102 c -0.004 0.055 -0.004 0.117 0 0.137 v 0.031 l 0.004 -0.031 c 0.004 -0.02 0.004 -0.082 0 -0.137 m 3.426 0.137 c 0.004 -0.016 -0.004 -0.02 -0.012 -0.004 c -0.004 0.012 -0.004 0.02 0 0.02 c 0.004 0 0.008 -0.008 0.012 -0.016 m 4.945 -0.051 c -0.004 -0.008 -0.008 -0.004 -0.008 0.004 c 0 0.016 0.008 0.027 0.012 0.016 c 0.004 -0.008 0 -0.016 -0.004 -0.02 m -4.883 -0.074 c 0.004 -0.012 0.004 -0.016 0 -0.012 c -0.004 0 -0.008 0.012 -0.012 0.02 c -0.008 0.012 -0.008 0.016 0 0.012 c 0.004 -0.004 0.008 -0.012 0.012 -0.02 m 6.523 -0.051 c 0 -0.016 -0.02 -0.043 -0.027 -0.043 c -0.012 0 -0.012 0.016 0.004 0.035 c 0.016 0.02 0.023 0.023 0.023 0.008 m -2.457 -0.133 c 0 -0.004 0 -0.012 -0.004 -0.012 c -0.004 0 -0.008 0.008 -0.008 0.012 c 0 0.008 0.004 0.012 0.008 0.012 c 0.004 0 0.004 -0.004 0.004 -0.012 m -2.535 -0.004 c 0 -0.016 -0.012 -0.031 -0.035 -0.051 l -0.016 -0.012 l 0.02 0.035 c 0.02 0.035 0.031 0.047 0.031 0.027 m 2.293 -0.02 c -0.004 -0.016 -0.012 -0.039 -0.02 -0.055 c -0.012 -0.012 -0.02 -0.027 -0.023 -0.039 c -0.004 -0.008 -0.012 -0.012 -0.012 -0.008 c -0.004 0.004 0 0.016 0.008 0.027 c 0.008 0.012 0.023 0.039 0.031 0.063 c 0.008 0.023 0.016 0.039 0.016 0.039 c 0.004 0 0 -0.012 0 -0.027 m -1.387 0 c 0 -0.004 -0.012 -0.023 -0.023 -0.039 c -0.016 -0.02 -0.027 -0.035 -0.027 -0.043 c -0.004 -0.031 -0.016 -0.047 -0.043 -0.07 c -0.043 -0.035 -0.059 -0.039 -0.063 -0.023 c -0.004 0.008 0.004 0.023 0.023 0.047 c 0.016 0.02 0.031 0.035 0.035 0.035 c 0.008 0 0.051 0.055 0.051 0.063 c 0 0.016 0.027 0.043 0.039 0.043 c 0.004 0 0.008 -0.004 0.008 -0.012 m 4.03 -0.004 c 0 -0.004 -0.004 -0.008 -0.008 -0.008 c -0.004 0 -0.004 0.004 -0.004 0.008 c 0 0.004 0 0.008 0.004 0.008 c 0.004 0 0.008 -0.004 0.008 -0.008 m -6.285 -0.051 c 0.035 -0.043 0.039 -0.059 0.012 -0.039 c -0.016 0.008 -0.066 0.074 -0.066 0.086 c 0 0.012 0.016 -0.004 0.055 -0.047 m -3.672 -0.105 c -0.004 -0.02 -0.008 -0.043 -0.012 -0.051 c -0.004 -0.008 -0.004 -0.004 -0.004 0.012 c 0.004 0.012 0.008 0.035 0.008 0.051 c 0.008 0.047 0.012 0.035 0.008 -0.012 m 9.926 -0.027 c 0 -0.008 0 -0.016 -0.004 -0.016 c -0.012 0 -0.023 0.02 -0.016 0.031 c 0.004 0.012 0.016 0.004 0.02 -0.016 m -4.316 -0.148 c 0.004 -0.016 0 -0.023 -0.016 -0.035 c -0.008 -0.012 -0.023 -0.035 -0.031 -0.055 c -0.008 -0.016 -0.016 -0.031 -0.02 -0.031 c -0.016 0 -0.023 0.016 -0.023 0.043 c 0 0.02 0.004 0.031 0.031 0.063 c 0.035 0.043 0.059 0.051 0.059 0.016 m -2.348 -0.324 c 0 -0.004 -0.004 -0.008 -0.008 -0.008 c -0.004 0 -0.008 0.004 -0.008 0.008 c 0 0.004 0.004 0.008 0.008 0.008 c 0.004 0 0.008 -0.004 0.008 -0.008 m 0.105 -0.016 c 0.004 -0.004 0.012 -0.012 0.012 -0.02 c 0 -0.016 -0.02 -0.027 -0.035 -0.02 c -0.012 0.008 -0.016 0.016 -0.016 0.031 c 0 0.027 0.004 0.035 0.02 0.02 c 0.004 -0.004 0.012 -0.012 0.02 -0.012 m 1.91 0.008 c 0.012 -0.016 0.008 -0.02 -0.012 -0.035 c -0.016 -0.008 -0.02 -0.008 -0.027 0 c -0.012 0.02 -0.012 0.027 0.008 0.035 c 0.023 0.008 0.023 0.008 0.031 0 m -4.285 -0.055 c 0.078 -0.004 0.156 -0.012 0.172 -0.016 c 0.02 -0.004 0.066 -0.008 0.105 -0.012 c 0.09 -0.004 0.125 -0.02 0.129 -0.055 c 0.004 -0.023 -0.016 -0.055 -0.047 -0.074 c -0.035 -0.023 -0.102 0.008 -0.102 0.043 c 0 0.016 -0.055 0.047 -0.066 0.043 c -0.004 -0.004 -0.016 -0.016 -0.02 -0.027 c -0.012 -0.023 -0.016 -0.023 -0.031 -0.02 c -0.016 0.004 -0.02 0 -0.023 -0.012 c -0.004 -0.02 -0.035 -0.023 -0.047 -0.004 c -0.004 0.004 -0.012 0.012 -0.02 0.012 c -0.008 0 -0.016 0.004 -0.023 0.008 c -0.012 0.004 -0.023 0.004 -0.047 0 c -0.031 -0.012 -0.035 -0.008 -0.043 0 c -0.004 0.012 -0.012 0.012 -0.043 -0.004 c -0.047 -0.02 -0.082 -0.02 -0.094 -0.004 c -0.008 0.016 -0.023 0.02 -0.027 0.008 c -0.004 -0.004 -0.027 -0.008 -0.055 -0.008 c -0.051 0 -0.055 0 -0.063 0.02 c -0.008 0.012 -0.012 0.02 -0.004 0.035 c 0.012 0.023 0.004 0.035 -0.027 0.035 c -0.016 0 -0.035 -0.004 -0.043 -0.008 c -0.012 -0.004 -0.023 0 -0.051 0.012 c -0.027 0.012 -0.047 0.016 -0.066 0.016 c -0.02 -0.004 -0.023 0 -0.02 0.004 c 0.008 0.012 0.227 0.023 0.336 0.02 c 0.043 -0.004 0.141 -0.008 0.219 -0.012 m -0.199 -0.063 c 0 -0.004 0.008 -0.012 0.012 -0.012 c 0.004 0 0.008 0.008 0.012 0.012 c 0 0.004 -0.004 0.008 -0.012 0.008 c -0.008 0 -0.012 -0.004 -0.012 -0.008 m 0.277 -0.027 c -0.004 0 -0.008 -0.008 -0.008 -0.016 c 0 -0.016 0.023 -0.008 0.023 0.008 c 0.004 0.012 0 0.016 -0.016 0.008 m -3.937 0.074 c 0.004 -0.004 0.082 -0.004 0.168 -0.004 c 0.094 0.004 0.184 0 0.207 -0.004 c 0.027 -0.004 0.066 -0.008 0.086 -0.012 c 0.023 0 0.059 -0.004 0.082 -0.008 c 0.023 -0.004 0.051 0 0.059 0.004 c 0.012 0.004 0.027 0.004 0.043 0 c 0.016 -0.004 0.027 -0.004 0.043 0.008 c 0.016 0.008 0.023 0.008 0.035 0 c 0.027 -0.012 0.16 -0.008 0.184 0.004 c 0.02 0.008 0.023 0.012 0.039 0 c 0.012 -0.008 0.02 -0.008 0.035 -0.004 c 0.016 0.008 0.129 0.008 0.281 0.008 c 0.141 0 0.285 0 0.316 0 c 0.051 0 0.066 0 0.086 -0.012 c 0.027 -0.02 0.035 -0.035 0.027 -0.051 c -0.004 -0.016 -0.039 -0.023 -0.055 -0.02 c -0.023 0.012 -0.047 -0.004 -0.055 -0.031 c -0.004 -0.016 -0.012 -0.023 -0.02 -0.023 c -0.016 0 -0.031 0.02 -0.023 0.031 c 0.008 0.012 -0.012 0.031 -0.031 0.027 c -0.023 0 -0.031 -0.004 -0.031 -0.027 c 0 -0.031 -0.016 -0.031 -0.016 0 c -0.004 0.02 -0.008 0.027 -0.02 0.031 c -0.023 0.008 -0.387 0.004 -0.398 -0.004 c -0.004 -0.004 -0.023 -0.004 -0.043 0 c -0.047 0.012 -0.082 0 -0.098 -0.027 c -0.012 -0.023 -0.02 -0.023 -0.02 0 c 0 0.016 0 0.016 -0.027 0.016 c -0.043 -0.004 -0.426 -0.012 -0.492 -0.008 c -0.027 0 -0.059 0.004 -0.063 0.008 c -0.008 0.004 -0.035 0.004 -0.066 0 c -0.031 -0.004 -0.063 0 -0.086 0.004 c -0.035 0.012 -0.043 0.012 -0.078 -0.004 c -0.027 -0.012 -0.055 -0.016 -0.121 -0.016 c -0.074 0 -0.09 -0.004 -0.109 -0.016 c -0.023 -0.02 -0.063 -0.023 -0.082 -0.008 c -0.008 0.004 -0.016 0.02 -0.02 0.031 c -0.012 0.023 -0.012 0.027 0 0.035 c 0.004 0.004 0.012 0.02 0.016 0.035 c 0.012 0.039 0.051 0.051 0.152 0.047 c 0.047 -0.004 0.086 -0.008 0.094 -0.012 m 2.492 0.008 c 0.035 0 0.07 -0.008 0.078 -0.016 c 0.016 -0.008 0.016 -0.008 0.004 -0.023 c -0.016 -0.02 -0.031 -0.031 -0.066 -0.039 c -0.016 -0.008 -0.027 -0.012 -0.027 -0.02 c 0 -0.004 0.016 -0.008 0.035 -0.008 c 0.016 0 0.031 -0.004 0.031 -0.012 c 0 -0.004 0 -0.008 -0.043 -0.012 c -0.012 0 -0.043 -0.004 -0.07 -0.008 c -0.035 -0.008 -0.051 -0.004 -0.063 0.004 c -0.008 0.004 -0.023 0.008 -0.031 0.004 c -0.02 -0.004 -0.035 0.012 -0.039 0.031 c 0 0.004 0 0.023 0.004 0.043 c 0.004 0.039 0.016 0.047 0.066 0.055 c 0.051 0.008 0.051 0.008 0.121 0 m 0.297 -0.012 c 0.008 -0.008 -0.008 -0.027 -0.023 -0.027 c -0.012 0 -0.02 0.016 -0.012 0.027 c 0.008 0.008 0.031 0.008 0.035 0 m 0.195 -0.012 c 0.004 -0.016 -0.02 -0.027 -0.031 -0.016 c -0.004 0.008 -0.004 0.012 0.004 0.02 c 0.008 0.016 0.023 0.012 0.027 -0.004 m -0.105 0.004 c 0.012 -0.008 0.004 -0.02 -0.016 -0.02 c -0.02 0 -0.031 0.012 -0.02 0.02 c 0.012 0.004 0.023 0.004 0.035 0 m 0.27 -0.016 c -0.004 -0.004 -0.012 -0.004 -0.016 0 c -0.004 0.004 0 0.004 0.008 0.004 c 0.008 0 0.012 0 0.008 -0.004 m 0.27 -0.023 c 0 -0.004 -0.004 -0.012 -0.012 -0.012 c -0.012 0 -0.016 0.012 -0.008 0.02 c 0.008 0.008 0.02 0.004 0.02 -0.008 m 0.906 -0.008 c 0 -0.004 -0.004 -0.012 -0.008 -0.012 c -0.004 0 -0.012 0.008 -0.016 0.012 c -0.008 0.012 -0.004 0.012 0.008 0.012 c 0.012 0 0.016 -0.004 0.016 -0.012 m 3.047 0 c 0.008 -0.004 0.035 -0.012 0.059 -0.02 c 0.027 -0.004 0.047 -0.012 0.059 -0.027 c 0.031 -0.035 0.035 -0.043 0.031 -0.074 c -0.008 -0.078 -0.023 -0.09 -0.098 -0.09 c -0.027 0.004 -0.066 0.004 -0.09 0 c -0.035 0 -0.039 0 -0.043 -0.02 c -0.008 -0.02 -0.008 -0.02 -0.07 -0.023 c -0.023 0 -0.027 0.004 -0.043 0.023 c -0.012 0.016 -0.02 0.02 -0.047 0.02 c -0.016 0 -0.043 -0.004 -0.055 -0.008 c -0.016 -0.008 -0.039 -0.008 -0.098 0 c -0.074 0.008 -0.074 0.008 -0.102 0.039 c -0.016 0.02 -0.035 0.031 -0.051 0.035 c -0.012 0.004 -0.039 0.008 -0.059 0.016 c -0.035 0.008 -0.035 0.008 -0.039 0.031 c 0 0.035 0.016 0.047 0.047 0.031 c 0.031 -0.008 0.059 0.004 0.07 0.039 c 0.012 0.031 0.027 0.031 0.051 0.004 c 0.016 -0.023 0.02 -0.023 0.07 -0.023 c 0.043 0 0.059 0.004 0.098 0.023 c 0.055 0.027 0.098 0.035 0.211 0.035 c 0.059 0 0.082 0 0.098 -0.012 m -4.047 -0.008 c 0.012 -0.012 0.004 -0.031 -0.012 -0.031 c -0.012 0 -0.016 0.012 -0.012 0.031 c 0.004 0.016 0.016 0.016 0.023 0 m 0.148 -0.008 c -0.004 0 -0.008 0 -0.012 0 c -0.004 0.004 -0.004 0.004 0.004 0.004 c 0.004 0 0.008 0 0.008 -0.004 m 8.973 -0.027 c 0.207 -0.137 -0.098 -0.059 -0.133 -0.078 c 0 0.004 0 0.027 0.004 0.051 c 0.008 0.098 0.109 0.023 0.129 0.027 m -1.563 -0.008 c 0.031 -0.039 0.016 -0.074 -0.031 -0.086 c -0.035 -0.012 -0.289 -0.012 -0.309 0 c -0.016 0.008 -0.031 0.004 -0.066 -0.004 c -0.059 -0.012 -0.16 0 -0.172 0.016 c -0.004 0.008 -0.004 0.023 -0.004 0.035 c 0.004 0.02 0 0.027 -0.004 0.031 c -0.023 0.016 0.047 0.02 0.219 0.016 c 0.094 0 0.195 0 0.23 0 c 0.113 0.012 0.121 0.012 0.137 -0.008 m -6.793 -0.004 c -0.004 -0.004 -0.008 -0.008 -0.012 -0.008 c -0.004 0 -0.004 0.004 0 0.012 c 0.008 0.012 0.016 0.008 0.012 -0.004 m 5.578 0 c 0.008 -0.004 0.047 -0.004 0.082 0 c 0.07 0.008 0.117 0 0.078 -0.012 c -0.023 -0.008 -0.027 -0.016 -0.008 -0.023 l 0.012 -0.008 l -0.012 -0.016 c -0.012 -0.012 -0.027 -0.016 -0.105 -0.023 c -0.051 -0.008 -0.105 -0.012 -0.121 -0.016 c -0.016 -0.004 -0.066 -0.004 -0.109 -0.008 c -0.066 -0.004 -0.082 -0.004 -0.09 0.008 c -0.012 0.016 -0.012 0.02 0.016 0.063 l 0.027 0.039 l 0.066 0.004 c 0.074 0.004 0.137 0 0.164 -0.008 m 3.02 -0.012 c 0.008 -0.016 -0.004 -0.023 -0.023 -0.012 c -0.031 0.027 0.02 0.012 0.023 0.012 m 0.043 0.004 c -0.004 0 -0.012 0 -0.016 0 c -0.004 0.004 0 0.004 0.008 0.004 c 0.008 0 0.012 0 0.008 -0.004 m 0.043 -0.039 c -10.922 11.793 -5.461 5.898 0 0 m -0.191 0.031 c 0 -0.004 -0.004 -0.008 -0.008 -0.008 c -0.004 0 -0.004 0.004 -0.004 0.008 c 0.008 0.016 0.008 0 0.012 0 m -11.742 -0.07 c 0.004 -0.008 0 -0.008 -0.004 -0.008 c -0.004 0.004 -0.012 0.008 -0.012 0.016 c 0 0.004 0 0.008 0.008 0.004 c 0.004 0 0.008 -0.008 0.008 -0.012" fill="url(#0)"/></svg>