<svg xmlns="http://www.w3.org/2000/svg" viewBox="0 0 24 24"><g fill="#213655"><path d="m 5.01 1.414 c 35.75 -10.426 12.961 41.09 -3.035 15.246 c -2.922 -4.746 -3.125 -12.809 3.035 -15.246"/><path d="m 22.656 12 c 0 5.539 -4.77 10.03 -10.656 10.03 c -5.887 0 -10.656 -4.492 -10.656 -10.03 c 0 -5.535 4.77 -10.02 10.656 -10.02 c 5.887 0 10.656 4.488 10.656 10.02" fill-rule="evenodd"/></g><path d="m 12.13 3.902 c -1.168 0.027 -2.336 0.059 -2.406 1.406 c -1.262 3.301 -2.496 6.609 -3.762 9.91 c 0.23 0.137 0.34 0.348 0.57 0.484 c 0.145 0.172 0.297 0.332 0.504 0.473 c 0.117 0.191 0.367 0.316 0.484 0.508 c 0.234 0.141 0.34 0.348 0.574 0.488 c 0.117 0.191 0.367 0.316 0.484 0.508 c 0.234 0.141 0.34 0.348 0.574 0.488 c 0.117 0.191 0.367 0.316 0.484 0.508 c 0.234 0.141 0.34 0.348 0.574 0.488 c 0.148 0.309 -0.457 1.027 -0.039 1.172 c 0.172 0.102 0.301 0.223 0.395 0.367 c 0.238 0.133 0.332 0.344 0.57 0.48 c 0.117 0.199 0.371 0.316 0.488 0.516 c 0.156 0.09 0.254 0.215 0.371 0.328 c 0.004 0 0.004 0 0.008 0 c 5.398 0 9.855 -3.777 10.559 -8.672 c -1.188 -1.121 -2.367 -2.246 -3.539 -3.383 c -0.512 -0.418 -0.902 -1.113 -1.668 -1.109 c -0.148 -0.18 -0.379 -0.301 -0.492 -0.508 c -0.25 -0.109 -0.328 -0.352 -0.578 -0.461 c -0.102 -0.223 -0.379 -0.313 -0.477 -0.531 c -0.254 -0.113 -0.332 -0.352 -0.582 -0.465 c -0.102 -0.219 -0.375 -0.313 -0.48 -0.531 c -0.25 -0.113 -0.328 -0.352 -0.578 -0.465 c -0.102 -0.219 -0.375 -0.313 -0.48 -0.531 c -0.25 -0.113 -0.328 -0.355 -0.578 -0.465 c -0.102 -0.219 -0.379 -0.313 -0.477 -0.531 c -0.203 -0.121 -0.383 -0.289 -0.504 -0.473" fill-opacity="0.235"/><path d="m 10.184 4.094 c -1.422 3.707 -2.805 7.418 -4.227 11.125 c 0.09 0.027 0.18 0.016 0.273 0.016 c 0.52 0 1.039 0.004 1.555 0 c 0.07 0 0.063 -0.094 0.094 -0.137 c 0.625 -1.656 1.258 -3.305 1.887 -4.961 c 0.035 -0.102 0.078 -0.211 0.125 -0.309 c 0.328 0.008 0.648 -0.004 0.973 0 c -0.68 1.797 -1.359 3.598 -2.051 5.391 c 0.07 0.027 0.145 0.016 0.219 0.02 c 0.543 -0.008 1.086 0.004 1.629 0 c 0.617 -1.633 1.254 -3.262 1.871 -4.891 c 0.129 -0.336 0.133 -0.727 -0.074 -1.035 c -0.184 -0.273 -0.531 -0.418 -0.863 -0.43 c -0.453 -0.012 -0.898 0.008 -1.352 0 c 0.621 -1.664 1.266 -3.312 1.883 -4.98 c -1.938 0.191 -1.559 0.152 -1.941 0.191 m 4.047 4.754 c -0.012 0.027 -0.02 0.094 -0.035 0.121 c -1.41 3.723 -2.832 7.438 -4.246 11.16 c 1.785 0.242 0.496 0.074 1.793 0.242 c 0.617 -1.637 1.246 -3.262 1.867 -4.895 c 0.68 -0.012 1.352 -0.004 2.031 -0.016 c 0.434 -0.016 0.867 -0.258 1.01 -0.656 c 0.574 -1.516 1.148 -3.02 1.703 -4.547 c 0.09 -0.23 0.145 -0.48 0.074 -0.723 c -0.102 -0.305 -0.395 -0.535 -0.715 -0.617 c -0.277 -0.082 -0.555 -0.047 -0.84 -0.051 c -0.871 -0.004 -1.766 -0.012 -2.637 -0.02 m 1.594 0.961 c 0.043 0 0.086 0.008 0.125 0.004 c 0.254 0.004 0.5 -0.008 0.75 0 c -0.586 1.57 -1.18 3.145 -1.758 4.719 c -0.324 0.023 -0.66 0.004 -0.988 0 c 0.594 -1.563 1.18 -3.121 1.777 -4.684 c 0.012 -0.016 0.035 -0.031 0.055 -0.035 c 0.012 -0.004 0.027 -0.004 0.039 -0.004" fill="#fff"/></svg>