<svg xmlns="http://www.w3.org/2000/svg" viewBox="0 0 24 24"><path d="m 4.965 21.512 c 17.809 11.789 28.777 -25.801 5.758 -20.828 c -9.516 2.121 -15.289 15.422 -5.758 20.828" fill="#f4f4f4"/><path d="m 7.973 18.891 c -0.156 -0.297 -0.074 -0.605 0.234 -0.895 c 0.16 -0.145 0.234 -0.363 0.234 -0.695 c 0 -0.414 0.059 -0.539 0.406 -0.82 c 0.434 -0.352 0.523 -0.641 0.234 -0.754 c -0.098 -0.039 -0.176 -0.215 -0.176 -0.41 c 0 -0.379 -0.227 -0.461 -0.465 -0.164 c -0.082 0.098 -0.227 0.176 -0.32 0.176 c -0.094 0 -0.328 0.133 -0.52 0.297 c -0.191 0.164 -0.43 0.297 -0.527 0.297 c -0.234 0 -1.09 -0.867 -1.09 -1.105 c 0 -0.27 0.75 -1.031 1.02 -1.031 c 0.125 0 0.352 -0.105 0.5 -0.238 c 0.148 -0.129 0.395 -0.238 0.543 -0.238 c 0.168 0 0.277 -0.07 0.277 -0.176 c 0 -0.113 -0.113 -0.18 -0.297 -0.18 c -0.195 0 -0.504 -0.195 -0.879 -0.551 c -0.555 -0.527 -0.578 -0.578 -0.578 -1.184 c 0 -0.512 0.043 -0.656 0.234 -0.758 c 0.129 -0.07 0.23 -0.227 0.23 -0.344 c 0 -0.117 -0.102 -0.313 -0.23 -0.43 c -0.297 -0.27 -0.297 -0.441 0 -0.711 c 0.129 -0.117 0.23 -0.336 0.23 -0.48 c 0 -0.164 0.16 -0.387 0.41 -0.582 c 0.469 -0.363 0.504 -0.523 0.176 -0.813 c -0.324 -0.281 -0.293 -0.48 0.16 -0.969 c 0.34 -0.363 0.469 -0.422 0.922 -0.422 c 0.324 0 0.582 0.066 0.672 0.176 c 0.285 0.352 0.473 0.211 0.449 -0.344 c -0.016 -0.391 0.051 -0.613 0.262 -0.883 c 0.41 -0.523 0.672 -0.465 1.262 0.285 c 0.277 0.355 0.574 0.645 0.656 0.645 c 0.082 0 0.379 -0.289 0.66 -0.645 c 0.313 -0.398 0.602 -0.648 0.742 -0.648 c 0.594 0.004 1.043 1.375 0.609 1.863 c -0.109 0.121 -0.199 0.285 -0.199 0.359 c 0 0.227 0.453 0.16 0.672 -0.098 c 0.148 -0.176 0.344 -0.238 0.77 -0.238 c 0.535 0 0.613 0.043 1.203 0.641 c 0.344 0.352 0.629 0.727 0.629 0.828 c 0 0.281 -0.695 1.027 -0.957 1.027 c -0.285 0 -0.914 0.434 -0.914 0.633 c 0 0.078 0.105 0.234 0.234 0.348 c 0.129 0.113 0.234 0.289 0.234 0.391 c 0 0.105 -0.344 0.543 -0.762 0.973 c -0.613 0.637 -0.758 0.855 -0.758 1.164 c 0 0.211 0.074 0.445 0.168 0.523 c 0.203 0.168 0.602 0.066 0.695 -0.18 c 0.035 -0.094 0.188 -0.172 0.344 -0.172 c 0.152 0 0.371 -0.105 0.488 -0.238 c 0.117 -0.129 0.273 -0.238 0.352 -0.238 c 0.195 0 1.344 1.254 1.344 1.469 c 0 0.098 -0.133 0.336 -0.293 0.531 c -0.242 0.289 -0.293 0.477 -0.293 1.059 c 0 0.555 -0.051 0.75 -0.234 0.922 c -0.129 0.117 -0.234 0.332 -0.234 0.473 c 0 0.145 -0.105 0.359 -0.23 0.477 c -0.324 0.297 -0.297 0.84 0.059 1.27 c 0.328 0.398 0.355 0.555 0.145 0.848 c -0.129 0.18 -0.344 0.199 -1.727 0.172 l -1.574 -0.035 l -0.043 -0.297 c -0.066 -0.488 -0.234 -0.594 -0.953 -0.594 c -0.453 0 -0.719 -0.055 -0.816 -0.176 c -0.289 -0.352 -0.457 -0.203 -0.492 0.445 l -0.035 0.621 l -1.367 0.035 c -1.281 0.031 -1.375 0.02 -1.496 -0.211 m 5.492 -1.016 c 0 -0.102 -0.051 -0.152 -0.117 -0.113 c -0.063 0.043 -0.117 0.125 -0.117 0.188 c 0 0.059 0.055 0.109 0.117 0.109 c 0.066 0 0.117 -0.082 0.117 -0.184 m -0.609 -0.633 c 0.027 -0.082 -0.117 -0.133 -0.375 -0.133 c -0.238 0 -0.73 -0.156 -1.121 -0.355 c -0.617 -0.316 -0.738 -0.441 -1.051 -1.074 c -0.23 -0.457 -0.348 -0.859 -0.328 -1.121 c 0.023 -0.383 -0.07 -0.645 -0.191 -0.523 c -0.027 0.027 -0.063 0.359 -0.078 0.734 c -0.023 0.594 0.008 0.711 0.238 0.875 c 0.168 0.121 0.242 0.266 0.207 0.41 c -0.078 0.293 0.555 0.957 0.813 0.855 c 0.105 -0.043 0.285 0.043 0.438 0.211 c 0.211 0.23 0.367 0.281 0.832 0.27 c 0.316 -0.008 0.594 -0.074 0.617 -0.148 m -0.617 -2.508 c 0.039 -0.066 0.016 -0.117 -0.051 -0.117 c -0.07 0 -0.125 0.051 -0.125 0.117 c 0 0.066 0.023 0.117 0.051 0.117 c 0.031 0 0.086 -0.051 0.125 -0.117 m 0.277 -5.266 c 0.16 -0.195 0.055 -0.316 -0.277 -0.316 c -0.141 0 -0.289 0.035 -0.332 0.078 c -0.098 0.105 0.145 0.398 0.332 0.398 c 0.082 0 0.207 -0.07 0.277 -0.16 m -2.34 -0.473 c 0.074 -0.09 0.098 -0.195 0.055 -0.238 c -0.141 -0.145 -0.621 -0.082 -0.621 0.078 c 0 0.336 0.344 0.43 0.566 0.16 m 1.535 -0.375 c 0 -0.383 -0.191 -0.48 -0.352 -0.176 c -0.098 0.188 -0.098 0.293 0.008 0.418 c 0.184 0.223 0.344 0.109 0.344 -0.242 m 1.449 -0.152 c -0.234 -0.375 -0.512 -0.035 -0.344 0.418 c 0.066 0.176 0.09 0.172 0.273 -0.012 c 0.152 -0.156 0.168 -0.246 0.07 -0.406 m -3.785 -0.332 c 0 -0.176 -0.066 -0.289 -0.176 -0.289 c -0.176 0 -0.25 0.477 -0.102 0.629 c 0.133 0.137 0.277 -0.039 0.277 -0.34 m 1.406 0.18 c 0.137 -0.266 -0.047 -0.648 -0.25 -0.52 c -0.184 0.113 -0.109 0.762 0.086 0.762 c 0.02 0 0.094 -0.109 0.164 -0.242 m 1.77 -0.406 c 0.004 -0.063 -0.07 -0.164 -0.172 -0.23 c -0.203 -0.129 -0.594 0.117 -0.48 0.309 c 0.086 0.141 0.633 0.078 0.652 -0.078 m -2.309 -0.406 c 0.094 -0.156 -0.254 -0.406 -0.457 -0.328 c -0.293 0.113 -0.211 0.434 0.109 0.434 c 0.156 0 0.313 -0.047 0.348 -0.105 m -1.688 -0.844 c 0 -0.066 -0.051 -0.117 -0.117 -0.117 c -0.063 0 -0.117 0.051 -0.117 0.117 c 0 0.066 0.055 0.117 0.117 0.117 c 0.066 0 0.117 -0.051 0.117 -0.117" fill="#c5b042"/><path d="m 8.113 18.984 c -0.215 -0.215 -0.168 -0.625 0.094 -0.867 c 0.16 -0.145 0.23 -0.363 0.23 -0.695 c 0 -0.406 0.078 -0.563 0.5 -1 l 0.496 -0.52 l -0.266 -0.18 c -0.145 -0.102 -0.262 -0.305 -0.262 -0.457 c 0 -0.379 -0.164 -0.449 -0.41 -0.168 c -0.117 0.129 -0.324 0.234 -0.465 0.234 c -0.141 0 -0.352 0.105 -0.469 0.238 c -0.117 0.129 -0.324 0.238 -0.461 0.238 c -0.316 0 -1 -0.703 -1 -1.023 c 0 -0.293 0.691 -0.996 0.98 -0.996 c 0.117 0 0.344 -0.109 0.508 -0.238 c 0.164 -0.129 0.426 -0.238 0.582 -0.238 c 0.383 0 0.285 -0.258 -0.141 -0.375 c -0.184 -0.051 -0.59 -0.344 -0.898 -0.652 c -0.492 -0.496 -0.563 -0.629 -0.563 -1.059 c 0 -0.34 0.07 -0.555 0.23 -0.703 c 0.301 -0.273 0.301 -0.664 0.004 -0.922 c -0.242 -0.211 -0.215 -0.5 0.066 -0.609 c 0.09 -0.035 0.164 -0.191 0.164 -0.348 c 0 -0.176 0.18 -0.445 0.477 -0.727 l 0.477 -0.449 l -0.242 -0.262 c -0.34 -0.371 -0.301 -0.676 0.145 -1.113 c 0.469 -0.465 1.195 -0.531 1.539 -0.145 c 0.289 0.32 0.414 0.199 0.414 -0.402 c 0 -0.359 0.066 -0.574 0.23 -0.723 c 0.129 -0.121 0.234 -0.289 0.234 -0.375 c 0 -0.094 0.125 -0.16 0.293 -0.16 c 0.16 0 0.293 0.07 0.293 0.152 c 0 0.086 0.25 0.406 0.559 0.711 l 0.559 0.563 l 0.551 -0.57 c 0.305 -0.313 0.551 -0.633 0.551 -0.711 c 0 -0.078 0.133 -0.145 0.293 -0.145 c 0.168 0 0.293 0.066 0.293 0.16 c 0 0.086 0.105 0.254 0.234 0.375 c 0.344 0.313 0.324 1.156 -0.027 1.395 c -0.227 0.152 -0.238 0.203 -0.102 0.371 c 0.211 0.258 0.281 0.246 0.691 -0.105 c 0.242 -0.203 0.488 -0.297 0.801 -0.297 c 0.395 0 0.539 0.086 1.066 0.629 c 0.336 0.344 0.609 0.734 0.609 0.867 c 0 0.289 -0.691 1 -0.973 1 c -0.227 0 -0.898 0.461 -0.898 0.617 c 0 0.051 0.105 0.188 0.234 0.301 c 0.387 0.332 0.281 0.645 -0.473 1.398 c -0.676 0.68 -0.703 0.73 -0.672 1.246 c 0.031 0.473 0.066 0.535 0.332 0.566 c 0.188 0.023 0.379 -0.055 0.516 -0.207 c 0.117 -0.133 0.328 -0.242 0.465 -0.242 c 0.137 0 0.344 -0.113 0.461 -0.254 l 0.211 -0.25 l 0.633 0.633 c 0.684 0.684 0.777 1.01 0.398 1.355 c -0.188 0.172 -0.234 0.367 -0.234 0.949 c 0 0.586 -0.047 0.781 -0.234 0.949 c -0.129 0.121 -0.234 0.332 -0.234 0.477 c 0 0.145 -0.105 0.355 -0.234 0.477 c -0.16 0.148 -0.23 0.363 -0.23 0.711 c 0 0.348 0.07 0.563 0.23 0.711 c 0.262 0.242 0.309 0.652 0.094 0.867 c -0.094 0.098 -0.609 0.145 -1.555 0.145 c -1.531 0 -1.695 -0.059 -1.695 -0.617 c 0 -0.332 0 -0.332 -0.801 -0.332 c -0.695 0 -0.828 -0.035 -0.973 -0.258 c -0.242 -0.371 -0.445 -0.176 -0.445 0.418 c 0 0.277 -0.063 0.566 -0.141 0.645 c -0.191 0.195 -2.449 0.195 -2.641 0 m 1.355 -1.559 c 0.031 -0.5 0.008 -0.57 -0.176 -0.535 c -0.164 0.031 -0.219 0.176 -0.246 0.617 c -0.031 0.496 -0.008 0.566 0.176 0.531 c 0.16 -0.031 0.219 -0.172 0.246 -0.613 m 4.113 0.457 c 0 -0.102 -0.074 -0.18 -0.164 -0.18 c -0.086 0 -0.191 0.078 -0.227 0.18 c -0.047 0.121 0.004 0.176 0.16 0.176 c 0.129 0 0.23 -0.078 0.23 -0.176 m -0.293 -0.723 c 0.414 -0.551 0.34 -1 -0.168 -1 c -0.191 0 -0.375 -0.051 -0.41 -0.109 c -0.035 -0.063 -0.238 -0.148 -0.445 -0.195 c -0.207 -0.047 -0.555 -0.273 -0.77 -0.504 c -0.324 -0.352 -0.375 -0.48 -0.316 -0.801 c 0.039 -0.211 0.016 -0.52 -0.047 -0.691 c -0.105 -0.285 -0.176 -0.313 -0.738 -0.313 c -0.344 0 -0.688 0.063 -0.762 0.141 c -0.086 0.086 -0.141 0.492 -0.141 0.992 c 0 0.699 0.039 0.887 0.234 1.063 c 0.125 0.121 0.23 0.324 0.23 0.457 c 0 0.324 0.566 0.91 0.883 0.91 c 0.137 0 0.348 0.105 0.465 0.238 c 0.168 0.188 0.359 0.234 0.938 0.234 c 0.695 0 0.742 -0.016 1.047 -0.422 m 1.23 -0.645 c 0 -0.066 -0.055 -0.121 -0.117 -0.121 c -0.066 0 -0.117 0.055 -0.117 0.121 c 0 0.066 0.051 0.117 0.117 0.117 c 0.063 0 0.117 -0.051 0.117 -0.117 m -1.832 -1.91 c 0.246 -0.266 0.414 -0.52 0.371 -0.563 c -0.043 -0.043 -0.152 0.023 -0.242 0.148 c -0.09 0.125 -0.285 0.238 -0.43 0.254 c -0.145 0.02 -0.305 0.035 -0.352 0.043 c -0.152 0.016 -0.098 0.602 0.059 0.602 c 0.078 0 0.348 -0.219 0.594 -0.484 m -5.04 -0.113 c 0.367 -0.375 0.371 -0.656 0.008 -0.324 c -0.113 0.105 -0.34 0.207 -0.5 0.23 c -0.16 0.02 -0.305 0.129 -0.328 0.246 c -0.063 0.344 0.422 0.25 0.82 -0.152 m 7.141 -0.883 c 0.012 -0.066 -0.066 -0.137 -0.18 -0.16 c -0.129 -0.023 -0.207 0.035 -0.207 0.156 c 0 0.207 0.348 0.207 0.387 0.004 m -2.805 -0.477 c 0.012 -0.066 -0.07 -0.137 -0.18 -0.156 c -0.129 -0.027 -0.207 0.031 -0.207 0.156 c 0 0.203 0.348 0.207 0.387 0 m 3.652 0.051 c 0.105 -0.18 -0.016 -0.273 -0.242 -0.188 c -0.102 0.039 -0.152 0.129 -0.113 0.195 c 0.094 0.152 0.258 0.152 0.355 -0.008 m -1.645 -2.23 c 0.109 -0.438 0.277 -0.613 0.59 -0.613 c 0.367 0 0.438 -0.285 0.156 -0.645 c -0.281 -0.367 -0.453 -0.391 -0.453 -0.066 c 0 0.133 -0.105 0.332 -0.23 0.441 c -0.129 0.113 -0.234 0.293 -0.234 0.398 c 0 0.109 -0.105 0.332 -0.234 0.496 c -0.129 0.168 -0.234 0.426 -0.234 0.574 v 0.27 l 0.281 -0.27 c 0.156 -0.148 0.32 -0.414 0.359 -0.586 m -6.484 -0.203 c 0 -0.102 -0.055 -0.152 -0.117 -0.113 c -0.066 0.039 -0.117 0.125 -0.117 0.188 c 0 0.059 0.051 0.109 0.117 0.109 c 0.063 0 0.117 -0.082 0.117 -0.184 m 0.965 -1.426 l 0.621 -0.66 l 0.32 0.301 c 0.18 0.168 0.41 0.305 0.516 0.305 c 0.215 0 1.082 -0.918 1.082 -1.141 c 0 -0.25 -0.879 -1.113 -1.133 -1.113 c -0.223 0 -0.387 0.207 -0.387 0.484 c 0 0.059 0.148 0.109 0.328 0.109 c 0.391 0 0.609 0.191 0.609 0.535 c 0 0.316 -0.215 0.531 -0.527 0.531 c -0.34 0 -0.527 -0.223 -0.527 -0.625 c 0 -0.469 -0.281 -0.359 -0.328 0.125 c -0.023 0.262 -0.227 0.57 -0.672 1.039 c -0.348 0.367 -0.637 0.688 -0.637 0.719 c 0 0.133 0.16 0 0.734 -0.609 m 4.434 -0.063 c 0.246 -0.266 0.445 -0.566 0.445 -0.668 c 0 -0.254 -0.863 -1.105 -1.121 -1.105 c -0.223 0 -1.102 0.906 -1.102 1.141 c 0 0.242 0.867 1.117 1.105 1.117 c 0.125 0 0.426 -0.219 0.672 -0.484 m -1.051 -0.25 c -0.18 -0.184 -0.18 -0.602 0 -0.785 c 0.328 -0.332 0.91 -0.082 0.91 0.391 c 0 0.32 -0.211 0.535 -0.523 0.535 c -0.137 0 -0.309 -0.063 -0.387 -0.141 m -3.746 -0.41 c 0.223 -0.207 0.297 -0.637 0.105 -0.637 c -0.125 0 -0.594 0.574 -0.594 0.73 c 0 0.164 0.258 0.117 0.488 -0.094 m 7.734 -1.426 c 0.117 -0.121 -0.156 -0.398 -0.395 -0.398 c -0.246 0 -0.391 0.184 -0.285 0.355 c 0.078 0.133 0.559 0.164 0.68 0.043 m -7.117 -0.391 c 0.23 -0.258 0.156 -0.48 -0.16 -0.48 c -0.277 0 -0.523 0.301 -0.434 0.531 c 0.094 0.246 0.348 0.227 0.594 -0.051 m 4.531 -0.57 c 0.188 -0.223 0.355 -1.031 0.238 -1.148 c -0.039 -0.039 -0.191 0.047 -0.34 0.188 c -0.195 0.184 -0.273 0.391 -0.273 0.715 c 0 0.496 0.102 0.563 0.375 0.246 m -2.086 -0.324 c 0.074 -0.203 -0.504 -0.953 -0.629 -0.813 c -0.047 0.055 -0.059 0.297 -0.027 0.543 c 0.047 0.367 0.102 0.445 0.32 0.445 c 0.148 0 0.297 -0.078 0.336 -0.176" fill="#61635b"/><path d="m 8.164 18.715 c -0.039 -0.102 0.059 -0.316 0.219 -0.492 c 0.203 -0.219 0.293 -0.469 0.305 -0.805 c 0.012 -0.297 0.035 -0.371 0.063 -0.191 c 0.121 0.77 0.16 0.848 0.422 0.809 c 0.219 -0.031 0.266 -0.121 0.297 -0.586 c 0.023 -0.355 -0.023 -0.609 -0.133 -0.719 c -0.145 -0.145 -0.137 -0.203 0.051 -0.438 c 0.23 -0.289 0.453 -0.25 0.453 0.082 c 0 0.246 0.613 0.852 0.859 0.852 c 0.266 0 0.336 0.191 0.133 0.359 c -0.109 0.094 -0.172 0.355 -0.172 0.727 v 0.578 h -1.215 c -0.969 0 -1.23 -0.035 -1.281 -0.176 m 5.141 -0.008 c -0.039 -0.105 0.051 -0.281 0.223 -0.434 c 0.34 -0.305 0.355 -0.418 0.09 -0.715 c -0.164 -0.184 -0.176 -0.266 -0.059 -0.453 c 0.172 -0.277 0.188 -0.871 0.023 -0.77 c -0.063 0.043 -0.117 0.02 -0.117 -0.051 c 0 -0.07 -0.121 -0.125 -0.266 -0.125 c -0.148 0 -0.355 -0.109 -0.465 -0.238 c -0.113 -0.133 -0.332 -0.238 -0.488 -0.238 c -0.488 0 -0.438 -0.188 0.227 -0.863 c 0.617 -0.629 0.809 -1.035 0.492 -1.035 c -0.082 0 -0.238 0.105 -0.348 0.238 c -0.113 0.129 -0.297 0.234 -0.414 0.234 c -0.289 0 -0.492 0.23 -0.492 0.559 c 0 0.555 -0.297 0.258 -0.465 -0.469 l -0.176 -0.742 l -0.57 -0.035 c -0.313 -0.02 -0.656 0 -0.762 0.047 c -0.102 0.047 -0.227 0.078 -0.277 0.066 c -0.047 -0.008 -0.09 0.184 -0.094 0.426 c -0.008 0.598 -0.195 1.531 -0.215 1.074 c -0.02 -0.465 -0.402 -0.645 -0.711 -0.332 c -0.129 0.133 -0.332 0.238 -0.453 0.238 c -0.117 0 -0.359 0.137 -0.531 0.297 c -0.359 0.34 -0.582 0.285 -0.996 -0.254 c -0.184 -0.234 -0.211 -0.352 -0.113 -0.473 c 0.105 -0.129 0.156 -0.125 0.301 0.02 c 0.277 0.285 0.629 0.199 1.047 -0.25 c 0.398 -0.43 0.488 -0.645 0.277 -0.645 c -0.066 0 -0.117 -0.055 -0.117 -0.117 c 0 -0.066 0.125 -0.121 0.277 -0.121 c 0.672 0 0.672 -0.734 0.004 -0.809 c -0.207 -0.023 -0.535 -0.234 -0.836 -0.531 c -0.414 -0.406 -0.5 -0.566 -0.5 -0.941 c 0 -0.414 0.16 -0.617 0.258 -0.324 c 0.023 0.07 0.133 0.09 0.242 0.047 c 0.219 -0.086 0.277 -0.469 0.086 -0.586 c -0.063 -0.043 -0.117 -0.227 -0.117 -0.41 c 0 -0.191 -0.074 -0.367 -0.176 -0.406 c -0.223 -0.09 -0.223 -0.359 0 -0.551 c 0.098 -0.082 0.176 -0.238 0.176 -0.348 c 0 -0.109 0.211 -0.406 0.469 -0.66 c 0.258 -0.258 0.469 -0.523 0.469 -0.598 c 0 -0.074 0.156 -0.285 0.348 -0.473 c 0.195 -0.188 0.352 -0.434 0.352 -0.543 c 0 -0.219 -0.301 -0.395 -0.477 -0.281 c -0.059 0.035 -0.105 0.008 -0.105 -0.059 c 0 -0.07 0.207 -0.129 0.465 -0.129 c 0.258 0 0.469 0.055 0.469 0.117 c 0 0.063 0.109 0.172 0.242 0.246 c 0.355 0.195 0.574 -0.051 0.574 -0.652 c 0 -0.332 0.078 -0.578 0.234 -0.75 c 0.129 -0.141 0.203 -0.336 0.164 -0.438 c -0.047 -0.121 -0.004 -0.184 0.125 -0.184 c 0.129 0 0.18 0.078 0.156 0.23 c -0.047 0.301 0.918 1.313 1.25 1.313 c 0.332 0 1.297 -1.012 1.25 -1.313 c -0.023 -0.152 0.031 -0.23 0.16 -0.23 c 0.125 0 0.168 0.063 0.125 0.184 c -0.039 0.102 0.031 0.297 0.16 0.438 c 0.305 0.332 0.297 0.898 -0.008 1.23 c -0.203 0.215 -0.223 0.309 -0.113 0.512 c 0.168 0.324 0.715 0.328 1 0.012 c 0.148 -0.168 0.352 -0.234 0.688 -0.23 c 0.461 0.012 0.465 0.016 0.16 0.129 c -0.363 0.137 -0.441 0.535 -0.133 0.656 c 0.105 0.043 0.371 0.008 0.59 -0.07 c 0.43 -0.16 0.633 -0.074 0.863 0.355 c 0.141 0.27 -0.383 0.941 -0.73 0.941 c -0.27 0 -1.148 0.66 -1.148 0.863 c 0 0.074 0.137 0.277 0.305 0.453 l 0.301 0.32 l -0.77 0.781 c -0.719 0.73 -0.77 0.82 -0.77 1.309 c 0 0.324 0.07 0.602 0.184 0.715 c 0.254 0.262 0.789 0.234 1.043 -0.051 c 0.117 -0.129 0.305 -0.234 0.414 -0.234 c 0.109 0 0.266 -0.082 0.348 -0.18 c 0.078 -0.098 0.211 -0.18 0.289 -0.18 c 0.133 0 1.113 0.988 1.113 1.121 c 0 0.031 -0.133 0.199 -0.293 0.375 c -0.246 0.27 -0.293 0.438 -0.293 1.059 c 0 0.586 -0.047 0.777 -0.234 0.949 c -0.129 0.117 -0.23 0.332 -0.23 0.477 c 0 0.141 -0.105 0.355 -0.234 0.473 c -0.348 0.32 -0.32 1.121 0.055 1.527 c 0.516 0.57 0.324 0.672 -1.285 0.672 c -1.176 0 -1.445 -0.035 -1.504 -0.184 m 1.262 -2.266 c 0.078 -0.207 -0.25 -0.363 -0.41 -0.199 c -0.156 0.16 -0.004 0.508 0.188 0.434 c 0.086 -0.031 0.184 -0.137 0.223 -0.234 m 0.219 -2.832 c 0.016 -0.066 -0.066 -0.137 -0.18 -0.16 c -0.129 -0.023 -0.203 0.035 -0.203 0.156 c 0 0.207 0.344 0.207 0.383 0.004 m -2.805 -0.477 c 0.012 -0.066 -0.066 -0.137 -0.18 -0.156 c -0.129 -0.027 -0.207 0.031 -0.207 0.156 c 0 0.203 0.348 0.207 0.387 0 m 3.652 0.051 c 0.109 -0.18 -0.016 -0.273 -0.242 -0.188 c -0.102 0.039 -0.152 0.129 -0.113 0.195 c 0.094 0.152 0.258 0.152 0.355 -0.008 m -1.641 -2.23 c 0.105 -0.438 0.273 -0.613 0.586 -0.613 c 0.367 0 0.438 -0.285 0.156 -0.645 c -0.281 -0.367 -0.449 -0.391 -0.449 -0.066 c 0 0.133 -0.105 0.332 -0.234 0.441 c -0.129 0.113 -0.234 0.293 -0.234 0.398 c 0 0.109 -0.105 0.332 -0.234 0.496 c -0.129 0.168 -0.234 0.426 -0.234 0.574 v 0.266 l 0.281 -0.266 c 0.156 -0.148 0.32 -0.414 0.363 -0.586 m -5.523 -1.629 l 0.621 -0.66 l 0.324 0.305 c 0.176 0.164 0.41 0.305 0.516 0.305 c 0.211 0 1.082 -0.918 1.082 -1.145 c 0 -0.262 -0.883 -1.113 -1.152 -1.113 c -0.328 0 -1.07 0.742 -1.07 1.07 c 0 0.289 -0.449 0.949 -0.652 0.949 c -0.074 0 -0.168 0.113 -0.203 0.25 c -0.035 0.137 -0.113 0.215 -0.176 0.176 c -0.063 -0.035 -0.145 0.016 -0.184 0.117 c -0.242 0.641 0.164 0.523 0.895 -0.254 m 1.141 -1.18 c 0 -0.238 0.059 -0.297 0.289 -0.297 c 0.234 0 0.293 0.059 0.293 0.297 c 0 0.238 -0.059 0.297 -0.293 0.297 c -0.23 0 -0.289 -0.059 -0.289 -0.297 m 3.293 1.117 c 0.246 -0.266 0.445 -0.566 0.445 -0.668 c 0 -0.254 -0.863 -1.102 -1.117 -1.102 c -0.227 0 -1.102 0.906 -1.102 1.137 c 0 0.242 0.863 1.117 1.102 1.117 c 0.125 0 0.426 -0.219 0.672 -0.484 m -0.957 -0.645 c 0 -0.234 0.059 -0.297 0.293 -0.297 c 0.234 0 0.293 0.063 0.293 0.297 c 0 0.238 -0.059 0.297 -0.293 0.297 c -0.234 0 -0.293 -0.059 -0.293 -0.297 m -3.836 -0.016 c 0.223 -0.207 0.293 -0.637 0.105 -0.637 c -0.125 0 -0.594 0.574 -0.594 0.73 c 0 0.164 0.258 0.117 0.488 -0.094 m 5.148 -2.387 c 0.188 -0.223 0.355 -1.031 0.234 -1.148 c -0.035 -0.039 -0.191 0.043 -0.34 0.188 c -0.191 0.184 -0.273 0.391 -0.273 0.715 c 0 0.496 0.105 0.563 0.379 0.246 m -2.09 -0.324 c 0.078 -0.207 -0.5 -0.953 -0.625 -0.813 c -0.047 0.055 -0.063 0.297 -0.031 0.543 c 0.047 0.367 0.102 0.445 0.324 0.445 c 0.145 0 0.297 -0.082 0.332 -0.176 m 0.75 11.965 c 0.211 -0.027 0.527 -0.027 0.703 0 c 0.176 0.027 0.004 0.047 -0.383 0.047 c -0.387 0 -0.531 -0.023 -0.32 -0.047 m -4.941 -3.715 c -0.039 -0.066 0.012 -0.121 0.117 -0.121 c 0.105 0 0.156 0.055 0.117 0.121 c -0.039 0.063 -0.094 0.117 -0.117 0.117 c -0.023 0 -0.078 -0.055 -0.117 -0.117 m 0.715 -7.344 c -0.043 -0.066 -0.02 -0.156 0.051 -0.203 c 0.18 -0.109 0.297 0.043 0.145 0.195 c -0.082 0.086 -0.148 0.086 -0.195 0.008" fill="#926910"/><path d="m 8.164 18.715 c -0.039 -0.102 0.059 -0.316 0.219 -0.492 c 0.203 -0.219 0.293 -0.469 0.305 -0.805 c 0.012 -0.297 0.035 -0.371 0.063 -0.191 c 0.121 0.77 0.16 0.848 0.422 0.809 c 0.219 -0.031 0.266 -0.121 0.297 -0.586 c 0.023 -0.355 -0.023 -0.609 -0.133 -0.719 c -0.145 -0.145 -0.137 -0.203 0.051 -0.438 c 0.23 -0.289 0.453 -0.25 0.453 0.082 c 0 0.246 0.613 0.852 0.859 0.852 c 0.266 0 0.336 0.191 0.133 0.359 c -0.109 0.094 -0.172 0.355 -0.172 0.727 v 0.578 h -1.215 c -0.969 0 -1.23 -0.035 -1.281 -0.176 m 5.141 -0.008 c -0.039 -0.105 0.051 -0.281 0.223 -0.434 c 0.34 -0.305 0.355 -0.418 0.09 -0.715 c -0.164 -0.184 -0.176 -0.266 -0.059 -0.453 c 0.316 -0.516 0.121 -0.945 -0.426 -0.945 c -0.109 0 -0.289 -0.109 -0.398 -0.238 c -0.113 -0.133 -0.332 -0.238 -0.488 -0.238 c -0.488 0 -0.438 -0.188 0.227 -0.863 c 0.617 -0.629 0.809 -1.035 0.492 -1.035 c -0.082 0 -0.238 0.105 -0.348 0.238 c -0.113 0.129 -0.297 0.234 -0.414 0.234 c -0.289 0 -0.492 0.23 -0.492 0.559 c 0 0.168 -0.07 0.273 -0.18 0.273 c -0.148 0 -0.176 -0.141 -0.145 -0.801 c 0.031 -0.789 0.039 -0.801 0.379 -0.84 c 0.246 -0.031 0.594 -0.297 1.227 -0.949 l 0.883 -0.902 l 0.063 0.625 c 0.066 0.66 0.207 0.836 0.695 0.859 c 0.266 0.012 0.262 0.02 -0.074 0.121 c -0.363 0.105 -0.57 0.383 -0.445 0.59 c 0.125 0.207 0.813 0.117 1.02 -0.129 c 0.109 -0.129 0.309 -0.234 0.441 -0.234 c 0.133 0 0.43 -0.188 0.664 -0.418 c 0.406 -0.402 0.43 -0.41 0.648 -0.211 c 0.43 0.398 0.461 0.59 0.145 0.934 c -0.246 0.273 -0.293 0.438 -0.293 1.059 c 0 0.586 -0.047 0.781 -0.234 0.949 c -0.129 0.121 -0.234 0.332 -0.234 0.477 c 0 0.145 -0.105 0.355 -0.23 0.477 c -0.348 0.316 -0.32 1.117 0.051 1.527 c 0.52 0.566 0.328 0.668 -1.281 0.668 c -1.18 0 -1.449 -0.031 -1.504 -0.18 m 1.262 -2.27 c 0.078 -0.207 -0.25 -0.363 -0.41 -0.199 c -0.156 0.16 -0.004 0.508 0.188 0.434 c 0.086 -0.031 0.184 -0.137 0.223 -0.234 m -2.648 1.414 c 0.211 -0.027 0.527 -0.027 0.703 0 c 0.176 0.027 0.004 0.047 -0.383 0.047 c -0.387 0 -0.531 -0.023 -0.32 -0.047 m -5.316 -2.59 c -0.336 -0.34 -0.383 -0.449 -0.27 -0.59 c 0.125 -0.152 0.164 -0.152 0.316 0 c 0.277 0.285 0.625 0.203 1.047 -0.246 c 0.398 -0.43 0.488 -0.645 0.277 -0.645 c -0.262 0 -0.098 -0.227 0.191 -0.262 c 0.664 -0.078 0.613 -0.809 -0.059 -0.809 c -0.195 0 -0.473 -0.172 -0.801 -0.5 c -0.418 -0.414 -0.504 -0.574 -0.504 -0.949 c 0 -0.414 0.16 -0.617 0.258 -0.324 c 0.023 0.066 0.133 0.09 0.242 0.047 c 0.219 -0.086 0.273 -0.469 0.086 -0.59 c -0.152 -0.094 -0.152 -0.652 0 -0.652 c 0.063 0 0.117 0.055 0.117 0.121 c 0 0.285 0.395 0.066 0.965 -0.543 l 0.621 -0.66 l 0.324 0.305 c 0.176 0.164 0.41 0.305 0.516 0.305 c 0.211 0 1.082 -0.922 1.082 -1.145 c 0 -0.262 -0.883 -1.113 -1.152 -1.113 c -0.336 0 -1.07 0.746 -1.074 1.094 c -0.004 0.297 -0.523 1.02 -0.645 0.898 c -0.043 -0.043 0.035 -0.172 0.172 -0.289 c 0.293 -0.254 0.336 -0.961 0.066 -1.066 c -0.266 -0.105 -0.211 -0.32 0.176 -0.695 c 0.195 -0.188 0.352 -0.434 0.352 -0.543 c 0 -0.219 -0.301 -0.395 -0.477 -0.281 c -0.059 0.035 -0.109 0.008 -0.109 -0.059 c 0 -0.07 0.211 -0.129 0.469 -0.129 c 0.258 0 0.469 0.055 0.469 0.117 c 0 0.063 0.109 0.172 0.242 0.246 c 0.367 0.199 0.574 -0.051 0.574 -0.695 c 0 -0.664 0.203 -0.539 0.258 0.156 c 0.035 0.469 0.043 0.473 0.504 0.473 c 0.441 0 0.469 -0.02 0.523 -0.402 c 0.055 -0.363 0.078 -0.387 0.219 -0.211 c 0.207 0.254 0.582 0.254 0.855 0.004 c 0.203 -0.191 0.215 -0.172 0.215 0.406 c 0 0.699 0.125 0.836 0.527 0.57 c 0.262 -0.176 0.289 -0.172 0.406 0.051 c 0.164 0.313 0.715 0.313 0.992 0 c 0.152 -0.168 0.352 -0.234 0.691 -0.23 c 0.461 0.012 0.465 0.016 0.156 0.129 c -0.359 0.133 -0.438 0.535 -0.129 0.656 c 0.102 0.043 0.367 0.008 0.59 -0.074 c 0.43 -0.156 0.633 -0.07 0.863 0.359 c 0.141 0.27 -0.387 0.941 -0.738 0.941 c -0.137 0 -0.34 0.086 -0.461 0.195 c -0.184 0.168 -0.254 0.176 -0.496 0.043 c -0.262 -0.141 -0.316 -0.121 -0.645 0.211 c -0.199 0.203 -0.355 0.488 -0.355 0.648 c 0 0.16 -0.105 0.387 -0.234 0.504 c -0.129 0.117 -0.234 0.305 -0.234 0.414 c 0 0.113 -0.105 0.324 -0.234 0.477 c -0.129 0.148 -0.234 0.359 -0.234 0.469 c 0 0.297 -1.188 1.43 -1.504 1.43 c -0.172 0 -0.293 0.086 -0.332 0.238 c -0.066 0.266 -0.281 0.34 -1.133 0.383 c -0.68 0.039 -0.73 0.109 -0.848 1.219 c -0.047 0.465 -0.105 0.688 -0.129 0.508 c -0.063 -0.473 -0.426 -0.637 -0.727 -0.332 c -0.129 0.133 -0.332 0.242 -0.453 0.242 c -0.121 0 -0.359 0.133 -0.531 0.297 c -0.176 0.164 -0.344 0.297 -0.379 0.297 c -0.035 0 -0.25 -0.188 -0.477 -0.418 m 6.301 -6 c 0.246 -0.266 0.445 -0.566 0.445 -0.668 c 0 -0.254 -0.859 -1.102 -1.117 -1.102 c -0.227 0 -1.102 0.906 -1.102 1.137 c 0 0.242 0.863 1.117 1.102 1.117 c 0.125 0 0.43 -0.219 0.672 -0.484 m -0.957 -0.645 c 0 -0.234 0.059 -0.297 0.293 -0.297 c 0.234 0 0.293 0.063 0.293 0.297 c 0 0.238 -0.059 0.297 -0.293 0.297 c -0.234 0 -0.293 -0.059 -0.293 -0.297 m -4.969 5.523 c -0.039 -0.066 0.016 -0.121 0.117 -0.121 c 0.105 0 0.156 0.055 0.117 0.121 c -0.039 0.066 -0.094 0.117 -0.117 0.117 c -0.023 0 -0.078 -0.051 -0.117 -0.117 m 8.445 -1.504 c 0.082 -0.031 0.215 -0.031 0.293 0 c 0.082 0.031 0.016 0.059 -0.145 0.059 c -0.16 0 -0.227 -0.027 -0.148 -0.059 m -1.254 -1.559 c 0 -0.277 0.219 -0.5 0.488 -0.5 c 0.285 0 0.266 0.145 -0.059 0.453 c -0.328 0.316 -0.43 0.324 -0.43 0.047 m 0.934 -0.977 c 0 -0.23 0.125 -0.309 0.266 -0.164 c 0.094 0.094 -0.031 0.402 -0.16 0.402 c -0.059 0 -0.105 -0.105 -0.105 -0.238 m -7.41 -0.691 c -0.043 -0.066 -0.016 -0.156 0.051 -0.203 c 0.18 -0.113 0.297 0.043 0.148 0.195 c -0.086 0.086 -0.152 0.086 -0.199 0.008 m -0.418 -0.695 c -0.004 -0.145 0.051 -0.293 0.113 -0.336 c 0.148 -0.09 0.148 0.184 0 0.418 c -0.09 0.145 -0.113 0.129 -0.113 -0.082 m 2.336 -0.57 c 0 -0.238 0.059 -0.297 0.293 -0.297 c 0.23 0 0.289 0.059 0.289 0.297 c 0 0.234 -0.059 0.297 -0.289 0.297 c -0.234 0 -0.293 -0.063 -0.293 -0.297 m -1.918 -1.348 c -0.043 -0.066 -0.016 -0.156 0.051 -0.199 c 0.18 -0.113 0.297 0.039 0.148 0.191 c -0.086 0.086 -0.152 0.09 -0.199 0.008 m 6.01 -1.199 c 0 -0.191 0.051 -0.383 0.117 -0.422 c 0.07 -0.047 0.117 0.098 0.117 0.348 c 0 0.234 -0.055 0.422 -0.117 0.422 c -0.066 0 -0.117 -0.156 -0.117 -0.348 m -3.203 -1.027 c -0.098 -0.266 -0.09 -0.285 0.105 -0.285 c 0.098 0 0.176 0.074 0.176 0.168 c 0 0.254 -0.199 0.336 -0.281 0.117 m 2.816 0.109 c -0.145 -0.145 -0.086 -0.395 0.094 -0.395 c 0.195 0 0.219 0.102 0.078 0.328 c -0.051 0.082 -0.129 0.113 -0.172 0.066" fill="#28ce03"/><path d="m 8.164 18.715 c -0.039 -0.102 0.059 -0.316 0.219 -0.492 c 0.203 -0.223 0.293 -0.465 0.305 -0.805 l 0.016 -0.488 l 0.09 0.535 c 0.051 0.293 0.066 0.637 0.031 0.762 c -0.055 0.195 -0.016 0.215 0.32 0.145 c 0.211 -0.043 0.453 -0.137 0.539 -0.207 c 0.234 -0.199 0.078 -1.059 -0.246 -1.359 c -0.258 -0.242 -0.258 -0.254 -0.051 -0.516 c 0.23 -0.285 0.453 -0.242 0.453 0.086 c 0 0.246 0.613 0.852 0.859 0.852 c 0.266 0 0.336 0.191 0.133 0.359 c -0.109 0.094 -0.172 0.355 -0.172 0.727 v 0.578 h -1.215 c -0.969 0 -1.23 -0.035 -1.281 -0.176 m 5.141 -0.008 c -0.039 -0.105 0.051 -0.281 0.223 -0.434 c 0.34 -0.305 0.355 -0.418 0.094 -0.711 c -0.164 -0.188 -0.172 -0.262 -0.043 -0.504 c 0.082 -0.16 0.125 -0.426 0.094 -0.594 c -0.031 -0.176 0.012 -0.359 0.102 -0.438 c 0.09 -0.074 0.16 -0.207 0.16 -0.297 c 0 -0.238 -0.313 -0.203 -0.492 0.051 c -0.234 0.332 -0.504 0.383 -0.719 0.129 c -0.105 -0.125 -0.32 -0.227 -0.477 -0.227 c -0.156 0 -0.32 -0.059 -0.363 -0.125 c -0.102 -0.168 0.285 -0.461 0.621 -0.465 c 0.367 -0.004 1.344 -0.949 1.184 -1.145 c -0.18 -0.219 -0.836 -0.164 -1.074 0.09 c -0.113 0.121 -0.301 0.219 -0.414 0.219 c -0.285 0 -0.488 0.234 -0.488 0.559 c 0 0.168 -0.07 0.273 -0.18 0.273 c -0.148 0 -0.176 -0.141 -0.145 -0.801 c 0.031 -0.789 0.039 -0.801 0.379 -0.844 c 0.246 -0.027 0.594 -0.293 1.227 -0.945 l 0.883 -0.906 l 0.063 0.629 c 0.066 0.66 0.207 0.836 0.695 0.859 c 0.266 0.008 0.262 0.02 -0.074 0.117 c -0.363 0.109 -0.57 0.387 -0.445 0.594 c 0.125 0.203 0.813 0.117 1.02 -0.129 c 0.109 -0.129 0.309 -0.238 0.441 -0.238 c 0.133 0 0.43 -0.188 0.664 -0.414 c 0.406 -0.402 0.43 -0.41 0.648 -0.211 c 0.43 0.398 0.461 0.59 0.145 0.934 c -0.246 0.273 -0.293 0.438 -0.293 1.059 c 0 0.586 -0.047 0.781 -0.234 0.949 c -0.129 0.121 -0.234 0.332 -0.234 0.477 c 0 0.145 -0.105 0.355 -0.23 0.473 c -0.348 0.32 -0.32 1.121 0.051 1.531 c 0.52 0.566 0.328 0.668 -1.281 0.668 c -1.18 0 -1.449 -0.031 -1.504 -0.184 m 2.059 -0.598 c -0.293 -0.238 -0.379 -0.395 -0.379 -0.707 c 0 -0.219 0.055 -0.43 0.117 -0.473 c 0.219 -0.137 0.133 -0.535 -0.117 -0.535 c -0.129 0 -0.34 -0.063 -0.465 -0.145 c -0.32 -0.203 -0.543 0.02 -0.363 0.363 c 0.195 0.375 0.164 1.438 -0.047 1.52 c -0.418 0.164 -0.109 0.281 0.73 0.281 h 0.906 m -0.117 -3.609 c 0.75 -0.824 1.152 -1.371 1.07 -1.453 c -0.035 -0.039 -0.23 0.125 -0.434 0.359 c -0.203 0.238 -0.477 0.43 -0.605 0.43 c -0.133 0 -0.359 0.121 -0.504 0.266 c -0.277 0.281 -0.691 0.617 -0.988 0.809 c -0.156 0.102 -0.156 0.125 0 0.234 c 0.344 0.242 0.859 0.016 1.461 -0.645 m -2.164 -1.816 c 0 -0.301 -0.004 -0.305 -0.234 -0.094 c -0.176 0.16 -0.199 0.25 -0.102 0.371 c 0.18 0.219 0.336 0.09 0.336 -0.277 m -1.547 4.867 c 0.211 -0.027 0.527 -0.027 0.703 0 c 0.176 0.027 0.004 0.047 -0.383 0.047 c -0.387 0 -0.531 -0.023 -0.32 -0.047 m -5.316 -2.59 c -0.348 -0.352 -0.387 -0.445 -0.258 -0.602 c 0.133 -0.16 0.172 -0.148 0.332 0.121 c 0.219 0.367 0.594 0.395 0.887 0.066 c 0.117 -0.129 0.324 -0.238 0.465 -0.238 c 0.242 0 0.762 -0.563 0.762 -0.824 c 0 -0.188 -0.23 -0.148 -0.309 0.055 c -0.082 0.223 -0.242 0.227 -0.461 0.008 c -0.23 -0.234 -0.211 -0.285 0.145 -0.328 c 0.664 -0.078 0.613 -0.809 -0.055 -0.809 c -0.199 0 -0.477 -0.172 -0.805 -0.5 c -0.418 -0.414 -0.504 -0.574 -0.504 -0.949 c 0 -0.246 0.031 -0.449 0.066 -0.449 c 0.152 0 0.402 0.352 0.402 0.563 c 0 0.121 0.148 0.367 0.328 0.543 c 0.477 0.465 0.84 0.418 0.418 -0.055 c -0.105 -0.117 -0.16 -0.293 -0.121 -0.395 c 0.098 -0.262 0.578 -0.227 0.75 0.055 c 0.18 0.289 0.863 0.324 1.082 0.059 c 0.207 -0.258 0.816 -0.234 0.816 0.031 c 0 0.332 -0.746 0.859 -1.215 0.859 c -0.223 0 -0.438 0.051 -0.477 0.113 c -0.113 0.188 0.434 0.199 1.141 0.023 c 0.563 -0.137 0.758 -0.262 1.184 -0.742 c 0.281 -0.32 0.742 -0.77 1.02 -1 c 0.281 -0.234 0.695 -0.762 0.918 -1.172 c 0.77 -1.402 0.996 -1.676 1.574 -1.898 c 0.395 -0.156 0.691 -0.191 1.082 -0.133 c 0.457 0.07 0.523 0.059 0.461 -0.105 c -0.043 -0.102 -0.109 -0.266 -0.148 -0.363 c -0.168 -0.43 0.43 -0.109 0.699 0.375 c 0.109 0.199 -0.484 0.871 -0.773 0.871 c -0.133 0 -0.34 0.086 -0.461 0.195 c -0.18 0.168 -0.254 0.176 -0.496 0.043 c -0.258 -0.141 -0.316 -0.121 -0.645 0.211 c -0.199 0.203 -0.355 0.488 -0.355 0.648 c 0 0.16 -0.105 0.387 -0.234 0.504 c -0.129 0.117 -0.234 0.305 -0.234 0.418 c 0 0.109 -0.105 0.324 -0.234 0.473 c -0.129 0.152 -0.234 0.363 -0.234 0.469 c 0 0.301 -1.188 1.43 -1.504 1.43 c -0.172 0 -0.293 0.09 -0.332 0.238 c -0.066 0.266 -0.281 0.34 -1.133 0.387 c -0.68 0.035 -0.73 0.105 -0.848 1.219 c -0.047 0.461 -0.105 0.684 -0.129 0.504 c -0.063 -0.473 -0.426 -0.637 -0.727 -0.332 c -0.129 0.133 -0.332 0.242 -0.453 0.242 c -0.117 0 -0.359 0.133 -0.531 0.297 c -0.176 0.164 -0.344 0.297 -0.379 0.297 c -0.035 0 -0.25 -0.188 -0.477 -0.418 m 0.375 -1.125 c -0.039 -0.066 0.016 -0.121 0.117 -0.121 c 0.105 0 0.156 0.055 0.117 0.121 c -0.039 0.066 -0.094 0.117 -0.117 0.117 c -0.023 0 -0.078 -0.051 -0.117 -0.117 m 8.445 -1.504 c 0.082 -0.031 0.215 -0.031 0.293 0 c 0.082 0.031 0.016 0.059 -0.145 0.059 c -0.16 0 -0.227 -0.027 -0.148 -0.059 m -1.254 -1.559 c 0 -0.273 0.219 -0.5 0.488 -0.5 c 0.285 0 0.266 0.145 -0.059 0.453 c -0.328 0.316 -0.43 0.324 -0.43 0.047 m -4.359 0.02 c -0.047 -0.047 -0.082 -0.234 -0.082 -0.422 c 0 -0.293 0.043 -0.336 0.352 -0.336 c 0.395 0 0.574 0.27 0.383 0.582 c -0.125 0.207 -0.52 0.313 -0.652 0.176 m -1.953 -0.52 c -0.098 -0.055 -0.27 -0.133 -0.383 -0.168 c -0.121 -0.039 -0.203 -0.18 -0.203 -0.363 c 0 -0.383 0.152 -0.383 0.352 -0.004 l 0.156 0.297 l 0.223 -0.242 c 0.262 -0.285 0.594 -0.262 0.652 0.043 c 0.082 0.434 -0.379 0.688 -0.797 0.438 m 7.246 -0.477 c 0 -0.23 0.125 -0.309 0.266 -0.164 c 0.094 0.094 -0.031 0.402 -0.16 0.402 c -0.059 0 -0.105 -0.105 -0.105 -0.238 m -7.41 -0.691 c -0.043 -0.066 -0.016 -0.156 0.051 -0.203 c 0.18 -0.109 0.297 0.043 0.148 0.195 c -0.086 0.086 -0.152 0.09 -0.199 0.008 m 0.469 -0.543 c 0.035 -0.094 0.137 -0.199 0.23 -0.234 c 0.238 -0.094 0.215 -0.863 -0.027 -1 c -0.125 -0.07 -0.164 -0.184 -0.117 -0.316 c 0.063 -0.164 0.113 -0.176 0.25 -0.059 c 0.141 0.117 0.191 0.09 0.285 -0.152 c 0.063 -0.164 0.168 -0.336 0.234 -0.379 c 0.07 -0.043 0.125 -0.145 0.125 -0.23 c 0 -0.176 -0.555 -0.461 -0.711 -0.363 c -0.059 0.039 -0.105 0.012 -0.105 -0.055 c 0 -0.07 0.207 -0.129 0.465 -0.129 c 0.258 0 0.469 0.055 0.469 0.117 c 0 0.063 0.109 0.172 0.242 0.246 c 0.367 0.199 0.574 -0.051 0.574 -0.695 c 0 -0.66 0.203 -0.539 0.258 0.156 c 0.035 0.469 0.043 0.473 0.504 0.473 c 0.441 0 0.473 -0.02 0.527 -0.402 c 0.051 -0.363 0.074 -0.387 0.219 -0.211 c 0.203 0.254 0.578 0.254 0.852 0.004 c 0.203 -0.188 0.215 -0.172 0.215 0.406 c 0 0.699 0.129 0.836 0.527 0.57 c 0.266 -0.176 0.289 -0.172 0.406 0.051 c 0.164 0.313 0.719 0.313 0.996 0 c 0.145 -0.164 0.359 -0.238 0.688 -0.238 h 0.48 l -0.492 0.246 c -0.27 0.137 -0.523 0.352 -0.563 0.477 c -0.059 0.188 -0.195 0.23 -0.793 0.246 c -1.094 0.027 -1.145 0.012 -1.57 -0.496 c -0.43 -0.508 -0.793 -0.609 -0.902 -0.246 c -0.129 0.406 -0.887 0.434 -1.176 0.039 c -0.098 -0.129 -0.258 -0.031 -0.789 0.488 c -0.41 0.395 -0.672 0.746 -0.672 0.902 c 0 0.137 -0.113 0.41 -0.254 0.605 c -0.27 0.367 -0.484 0.473 -0.375 0.18 m -0.887 -0.148 c -0.004 -0.145 0.051 -0.293 0.113 -0.332 c 0.148 -0.094 0.148 0.18 0 0.414 c -0.094 0.145 -0.113 0.129 -0.113 -0.082 m 4.672 -0.098 c 0 -0.234 0.059 -0.297 0.293 -0.297 c 0.234 0 0.293 0.063 0.293 0.297 c 0 0.238 -0.059 0.297 -0.293 0.297 c -0.234 0 -0.293 -0.059 -0.293 -0.297 m -2.336 -0.473 c 0 -0.238 0.059 -0.297 0.289 -0.297 c 0.234 0 0.293 0.059 0.293 0.297 c 0 0.238 -0.059 0.297 -0.293 0.297 c -0.23 0 -0.289 -0.059 -0.289 -0.297 m -1.918 -1.348 c -0.043 -0.066 -0.016 -0.156 0.051 -0.199 c 0.18 -0.113 0.297 0.039 0.148 0.191 c -0.086 0.086 -0.152 0.09 -0.199 0.008 m 6.01 -1.199 c 0 -0.191 0.051 -0.383 0.117 -0.422 c 0.07 -0.043 0.117 0.098 0.117 0.348 c 0 0.234 -0.055 0.422 -0.117 0.422 c -0.066 0 -0.117 -0.156 -0.117 -0.348 m -3.203 -1.027 c -0.098 -0.266 -0.09 -0.285 0.105 -0.285 c 0.098 0 0.176 0.074 0.176 0.172 c 0 0.25 -0.199 0.332 -0.281 0.113 m 2.816 0.113 c -0.145 -0.148 -0.086 -0.398 0.094 -0.398 c 0.195 0 0.219 0.102 0.078 0.328 c -0.051 0.082 -0.129 0.113 -0.172 0.07" fill="#199f03"/><path d="m 8.164 18.715 c -0.039 -0.102 0.059 -0.316 0.219 -0.492 c 0.203 -0.223 0.293 -0.465 0.305 -0.805 l 0.016 -0.488 l 0.082 0.535 c 0.07 0.422 0.047 0.563 -0.102 0.676 c -0.145 0.105 -0.156 0.172 -0.051 0.281 c 0.102 0.102 0.328 0.113 0.82 0.039 c 0.563 -0.086 0.688 -0.148 0.715 -0.352 c 0.02 -0.137 -0.047 -0.316 -0.145 -0.402 c -0.102 -0.082 -0.184 -0.305 -0.184 -0.492 c 0 -0.266 -0.074 -0.375 -0.344 -0.492 l -0.344 -0.148 l 0.227 -0.277 c 0.238 -0.293 0.461 -0.254 0.461 0.078 c 0 0.246 0.613 0.852 0.859 0.852 c 0.266 0 0.336 0.191 0.137 0.359 c -0.113 0.094 -0.176 0.355 -0.176 0.727 v 0.578 h -1.215 c -0.969 0 -1.23 -0.035 -1.281 -0.176 m 5.141 -0.008 c -0.039 -0.105 0.051 -0.281 0.223 -0.434 c 0.34 -0.305 0.355 -0.418 0.09 -0.715 c -0.164 -0.184 -0.176 -0.266 -0.059 -0.453 c 0.078 -0.129 0.141 -0.352 0.145 -0.5 c 0.008 -0.52 0.461 -0.895 1.191 -0.984 c 0.566 -0.07 0.684 -0.051 0.746 0.117 c 0.066 0.176 0.105 0.168 0.352 -0.07 c 0.219 -0.203 0.277 -0.387 0.277 -0.828 c 0 -0.426 0.07 -0.648 0.293 -0.914 c 0.293 -0.355 0.395 -0.855 0.176 -0.855 c -0.066 0 -0.309 0.215 -0.539 0.477 c -0.254 0.285 -0.527 0.477 -0.684 0.477 c -0.145 0 -0.355 0.105 -0.473 0.234 c -0.117 0.133 -0.297 0.238 -0.398 0.238 c -0.102 0 -0.5 0.324 -0.883 0.719 c -0.547 0.563 -0.754 0.703 -0.938 0.645 c -0.129 -0.043 -0.383 -0.105 -0.559 -0.141 c -0.664 -0.129 -0.484 -0.504 0.238 -0.508 c 0.301 0 0.52 -0.129 0.992 -0.594 l 0.609 -0.594 l -0.262 -0.184 c -0.203 -0.148 -0.262 -0.305 -0.262 -0.715 c 0 -0.578 -0.172 -0.688 -0.508 -0.309 c -0.242 0.27 -0.242 0.359 -0.004 0.629 c 0.18 0.199 0.172 0.223 -0.117 0.332 c -0.168 0.066 -0.305 0.176 -0.305 0.242 c 0 0.063 -0.145 0.152 -0.324 0.195 c -0.449 0.109 -0.613 0.266 -0.613 0.594 c 0 0.172 -0.066 0.281 -0.176 0.281 c -0.254 0 -0.23 -0.668 0.031 -0.824 c 0.191 -0.117 0.191 -0.133 -0.016 -0.297 c -0.293 -0.23 -0.16 -0.539 0.23 -0.539 c 0.23 0 0.535 -0.234 1.199 -0.918 l 0.895 -0.914 l 0.063 0.625 c 0.066 0.66 0.207 0.84 0.695 0.859 c 0.266 0.012 0.262 0.023 -0.074 0.121 c -0.363 0.105 -0.57 0.383 -0.445 0.594 c 0.125 0.203 0.813 0.113 1.02 -0.129 c 0.109 -0.133 0.309 -0.238 0.441 -0.238 c 0.133 0 0.43 -0.188 0.664 -0.418 c 0.406 -0.398 0.43 -0.41 0.648 -0.207 c 0.43 0.395 0.461 0.586 0.145 0.93 c -0.246 0.273 -0.293 0.438 -0.293 1.059 c 0 0.586 -0.047 0.781 -0.234 0.953 c -0.129 0.117 -0.234 0.332 -0.234 0.473 c 0 0.145 -0.105 0.355 -0.234 0.477 c -0.344 0.32 -0.316 1.117 0.055 1.527 c 0.52 0.566 0.328 0.668 -1.281 0.668 c -1.18 0 -1.449 -0.031 -1.504 -0.18 m 2.582 -0.363 c 0.02 -0.07 -0.102 -0.195 -0.27 -0.273 c -0.301 -0.137 -0.309 -0.168 -0.25 -0.91 c 0.031 -0.426 0.027 -0.793 -0.016 -0.816 c -0.039 -0.023 -0.336 -0.066 -0.656 -0.086 l -0.586 -0.043 l 0.043 0.82 c 0.035 0.738 0.012 0.844 -0.223 1.023 c -0.457 0.352 -0.188 0.484 0.91 0.445 c 0.586 -0.02 1.02 -0.086 1.047 -0.16 m -3.297 -4.801 c -0.043 -0.066 -0.121 -0.117 -0.184 -0.117 c -0.059 0 -0.109 0.051 -0.109 0.117 c 0 0.066 0.082 0.117 0.18 0.117 c 0.102 0 0.152 -0.051 0.113 -0.117 m -0.672 4.309 c 0.211 -0.027 0.527 -0.027 0.703 0 c 0.176 0.027 0.004 0.051 -0.383 0.047 c -0.387 0 -0.531 -0.02 -0.32 -0.047 m -5.316 -2.586 c -0.355 -0.363 -0.391 -0.445 -0.254 -0.609 c 0.141 -0.172 0.172 -0.152 0.305 0.18 c 0.18 0.441 0.582 0.5 0.91 0.133 c 0.117 -0.133 0.324 -0.238 0.465 -0.238 c 0.316 0 0.879 -0.586 0.879 -0.914 c 0 -0.344 -0.297 -0.426 -0.488 -0.141 c -0.102 0.16 -0.223 0.211 -0.359 0.16 c -0.301 -0.117 -0.25 -0.27 0.105 -0.313 c 0.664 -0.082 0.613 -0.813 -0.059 -0.813 c -0.195 0 -0.473 -0.172 -0.801 -0.5 c -0.418 -0.414 -0.504 -0.574 -0.504 -0.949 c 0 -0.457 0.152 -0.602 0.281 -0.262 c 0.039 0.102 0.07 0.309 0.07 0.453 c 0 0.395 0.582 0.902 1.031 0.902 c 0.254 0 0.371 0.059 0.371 0.18 c 0 0.301 0.555 0.441 1.195 0.301 c 0.313 -0.066 0.727 -0.125 0.914 -0.125 c 0.219 0 0.398 -0.086 0.488 -0.234 c 0.082 -0.133 0.27 -0.238 0.422 -0.238 c 0.352 0 0.957 -0.613 0.957 -0.973 c 0 -0.152 0.105 -0.344 0.234 -0.426 c 0.125 -0.082 0.23 -0.246 0.23 -0.367 c 0 -0.121 0.105 -0.34 0.234 -0.492 c 0.129 -0.148 0.234 -0.352 0.234 -0.449 c 0 -0.098 0.188 -0.461 0.414 -0.809 c 0.445 -0.684 0.555 -0.734 1.805 -0.789 c 0.719 -0.035 0.898 -0.27 0.52 -0.691 c -0.168 -0.191 -0.172 -0.23 -0.027 -0.23 c 0.164 0 0.43 0.246 0.605 0.555 c 0.109 0.199 -0.488 0.871 -0.773 0.871 c -0.137 0 -0.34 0.09 -0.461 0.199 c -0.184 0.168 -0.254 0.172 -0.496 0.043 c -0.262 -0.141 -0.316 -0.125 -0.645 0.207 c -0.199 0.207 -0.355 0.488 -0.355 0.652 c 0 0.156 -0.105 0.383 -0.234 0.5 c -0.129 0.121 -0.234 0.305 -0.234 0.418 c 0 0.109 -0.105 0.324 -0.234 0.473 c -0.129 0.152 -0.234 0.363 -0.234 0.469 c 0 0.301 -1.188 1.434 -1.504 1.434 c -0.172 0 -0.293 0.086 -0.332 0.238 c -0.066 0.262 -0.281 0.336 -1.133 0.383 c -0.68 0.035 -0.73 0.105 -0.848 1.219 c -0.051 0.461 -0.105 0.684 -0.129 0.504 c -0.063 -0.473 -0.426 -0.637 -0.727 -0.328 c -0.129 0.129 -0.336 0.238 -0.453 0.238 c -0.121 0 -0.359 0.133 -0.531 0.297 c -0.176 0.164 -0.344 0.297 -0.379 0.297 c -0.035 0 -0.25 -0.188 -0.477 -0.418 m 0.375 -1.125 c -0.039 -0.066 0.016 -0.117 0.117 -0.117 c 0.105 0 0.156 0.051 0.117 0.117 c -0.039 0.066 -0.094 0.117 -0.117 0.117 c -0.023 0 -0.078 -0.051 -0.117 -0.117 m 8.445 -1.504 c 0.082 -0.031 0.215 -0.031 0.293 0 c 0.082 0.035 0.016 0.063 -0.145 0.063 c -0.16 0 -0.227 -0.027 -0.148 -0.063 m -7.07 -0.629 c -0.145 -0.188 -0.262 -0.371 -0.262 -0.41 c 0 -0.148 0.359 -0.059 0.422 0.109 c 0.051 0.125 0.246 0.18 0.684 0.18 c 0.406 0 0.668 -0.063 0.762 -0.18 c 0.184 -0.227 0.352 -0.23 0.352 -0.008 c 0 0.094 -0.102 0.203 -0.223 0.242 c -0.121 0.039 -0.254 0.148 -0.289 0.246 c -0.047 0.117 -0.238 0.172 -0.625 0.164 c -0.469 -0.004 -0.598 -0.059 -0.82 -0.344 m 5.816 -0.93 c 0 -0.273 0.219 -0.5 0.488 -0.5 c 0.285 0 0.266 0.145 -0.059 0.453 c -0.328 0.316 -0.43 0.328 -0.43 0.047 m -4.199 -0.137 c -0.199 -0.125 -0.086 -0.48 0.152 -0.48 c 0.258 0 0.355 0.238 0.172 0.422 c -0.102 0.102 -0.219 0.125 -0.324 0.059 m -1.945 -0.492 c -0.125 -0.203 0.266 -0.547 0.43 -0.379 c 0.074 0.074 0.102 0.219 0.063 0.324 c -0.082 0.211 -0.375 0.246 -0.492 0.055 m -0.672 -0.066 c -0.117 -0.117 -0.102 -0.637 0.023 -0.637 c 0.16 0 0.258 0.355 0.152 0.551 c -0.055 0.094 -0.133 0.133 -0.176 0.086 m 7.75 -0.277 c 0 -0.234 0.125 -0.313 0.266 -0.168 c 0.094 0.094 -0.027 0.402 -0.16 0.402 c -0.059 0 -0.105 -0.105 -0.105 -0.234 m -7.41 -0.695 c -0.039 -0.066 -0.016 -0.156 0.051 -0.199 c 0.18 -0.113 0.297 0.039 0.148 0.191 c -0.086 0.086 -0.148 0.09 -0.199 0.008 m 0.469 -0.543 c 0.035 -0.094 0.137 -0.199 0.23 -0.234 c 0.227 -0.09 0.223 -0.891 -0.008 -0.98 c -0.188 -0.07 -0.246 -0.398 -0.074 -0.398 c 0.055 0 0.168 0.078 0.246 0.176 c 0.184 0.223 0.352 0.125 0.352 -0.203 c 0 -0.141 0.109 -0.371 0.238 -0.512 c 0.203 -0.219 0.215 -0.277 0.07 -0.398 c -0.09 -0.074 -0.328 -0.152 -0.527 -0.164 c -0.531 -0.039 -0.445 -0.203 0.102 -0.203 c 0.258 0 0.469 0.051 0.469 0.113 c 0 0.063 0.109 0.172 0.242 0.246 c 0.367 0.199 0.574 -0.051 0.574 -0.695 c 0 -0.66 0.203 -0.539 0.258 0.156 c 0.035 0.469 0.043 0.477 0.504 0.477 c 0.441 0 0.473 -0.023 0.527 -0.406 c 0.051 -0.363 0.074 -0.387 0.219 -0.207 c 0.203 0.25 0.578 0.25 0.852 0 c 0.203 -0.188 0.215 -0.172 0.215 0.406 c 0 0.699 0.129 0.836 0.527 0.57 c 0.266 -0.176 0.289 -0.172 0.406 0.051 c 0.164 0.313 0.719 0.313 0.996 0 c 0.148 -0.168 0.352 -0.234 0.688 -0.23 l 0.48 0.008 l -0.484 0.199 c -0.27 0.109 -0.59 0.293 -0.711 0.41 c -0.164 0.148 -0.426 0.207 -0.949 0.207 c -0.691 0 -0.738 -0.02 -1.145 -0.477 c -0.469 -0.527 -0.887 -0.617 -1.121 -0.234 c -0.195 0.313 -0.742 0.313 -0.938 0 c -0.203 -0.336 -0.34 -0.297 -0.672 0.199 c -0.16 0.234 -0.438 0.578 -0.613 0.754 c -0.18 0.18 -0.324 0.441 -0.324 0.582 c 0 0.141 -0.113 0.41 -0.254 0.605 c -0.27 0.367 -0.484 0.473 -0.375 0.184 m -0.887 -0.152 c -0.004 -0.141 0.051 -0.293 0.113 -0.332 c 0.148 -0.094 0.148 0.18 0 0.414 c -0.09 0.145 -0.113 0.129 -0.113 -0.082 m 4.672 -0.094 c 0 -0.238 0.059 -0.297 0.293 -0.297 c 0.234 0 0.293 0.059 0.293 0.297 c 0 0.234 -0.059 0.297 -0.293 0.297 c -0.234 0 -0.293 -0.063 -0.293 -0.297 m -2.336 -0.477 c 0 -0.238 0.059 -0.297 0.293 -0.297 c 0.23 0 0.289 0.059 0.289 0.297 c 0 0.238 -0.059 0.297 -0.289 0.297 c -0.234 0 -0.293 -0.059 -0.293 -0.297 m -1.918 -1.348 c -0.039 -0.066 -0.016 -0.156 0.051 -0.199 c 0.18 -0.113 0.297 0.043 0.148 0.195 c -0.086 0.082 -0.152 0.086 -0.199 0.004 m 6.01 -1.199 c 0 -0.191 0.055 -0.383 0.117 -0.422 c 0.07 -0.043 0.117 0.098 0.117 0.348 c 0 0.234 -0.055 0.426 -0.117 0.426 c -0.063 0 -0.117 -0.16 -0.117 -0.352 m -3.203 -1.027 c -0.098 -0.262 -0.09 -0.285 0.105 -0.285 c 0.098 0 0.176 0.078 0.176 0.172 c 0 0.25 -0.199 0.332 -0.281 0.113 m 2.816 0.113 c -0.145 -0.148 -0.082 -0.398 0.094 -0.398 c 0.195 0 0.219 0.102 0.078 0.328 c -0.051 0.082 -0.129 0.113 -0.172 0.07" fill="#185b0a"/><path d="m 8.172 18.73 c -0.121 -0.316 0.098 -0.453 0.324 -0.199 c 0.184 0.203 0.301 0.227 0.867 0.164 c 1.094 -0.125 1.316 -0.398 0.828 -1.023 c -0.129 -0.168 -0.234 -0.414 -0.234 -0.551 c 0 -0.285 0.293 -0.34 0.395 -0.07 c 0.039 0.098 0.172 0.176 0.297 0.176 c 0.309 0 0.402 0.18 0.188 0.359 c -0.113 0.094 -0.176 0.355 -0.176 0.727 v 0.578 h -1.215 c -0.906 0 -1.23 -0.039 -1.273 -0.16 m 5.137 -0.016 c -0.094 -0.242 0.133 -0.352 0.348 -0.168 c 0.113 0.098 0.555 0.16 1.164 0.168 c 0.82 0.012 1.016 -0.02 1.18 -0.203 c 0.211 -0.238 0.422 -0.086 0.309 0.219 c -0.094 0.242 -2.906 0.23 -3 -0.016 m -1.391 -0.859 c 0.211 -0.027 0.527 -0.027 0.703 0 c 0.176 0.027 0.004 0.047 -0.383 0.047 c -0.387 0 -0.531 -0.023 -0.32 -0.047 m 3.578 -0.094 c -0.195 -0.512 0.297 -1.84 0.68 -1.84 c 0.191 0 0.09 0.563 -0.137 0.773 c -0.168 0.148 -0.234 0.363 -0.234 0.73 c 0 0.504 -0.176 0.691 -0.309 0.336 m -6.793 -0.355 c 0 -0.262 0.023 -0.355 0.055 -0.207 c 0.027 0.148 0.023 0.363 -0.004 0.477 c -0.027 0.113 -0.051 -0.008 -0.051 -0.27 m 4.934 0.172 c -0.18 -0.203 -0.191 -0.285 -0.078 -0.473 c 0.078 -0.129 0.141 -0.34 0.141 -0.469 c 0 -0.133 0.078 -0.238 0.176 -0.238 c 0.137 0 0.176 0.156 0.176 0.711 c 0 0.766 -0.074 0.852 -0.414 0.469 m -4.23 -1.043 c -0.09 -0.055 -0.078 -0.148 0.031 -0.301 c 0.164 -0.23 0.406 -0.172 0.406 0.098 c 0 0.191 -0.266 0.313 -0.438 0.203 m 4.879 -0.539 c 0 -0.188 0.938 -0.355 1.094 -0.195 c 0.199 0.195 -0.063 0.359 -0.574 0.359 c -0.363 0 -0.52 -0.051 -0.52 -0.164 m -2.02 -0.277 c -0.563 -0.086 -0.395 -0.391 0.215 -0.391 c 0.469 0 0.59 -0.059 0.996 -0.477 c 0.254 -0.262 0.508 -0.473 0.563 -0.473 c 0.055 0 0.125 -0.109 0.16 -0.238 c 0.059 -0.23 0.527 -0.34 0.703 -0.16 c 0.117 0.117 -0.156 0.398 -0.387 0.398 c -0.113 0 -0.52 0.32 -0.906 0.711 c -0.387 0.391 -0.777 0.707 -0.863 0.695 c -0.09 -0.012 -0.305 -0.039 -0.48 -0.066 m -5.359 -0.164 c -0.121 -0.074 -0.078 -0.105 0.156 -0.105 c 0.352 -0.004 0.414 0.055 0.164 0.152 c -0.086 0.035 -0.23 0.012 -0.32 -0.047 m 9.574 -0.375 c -0.035 -0.629 0.004 -0.953 0.133 -1.082 c 0.086 -0.086 0.125 0.121 0.125 0.672 c 0 0.801 -0.215 1.145 -0.258 0.41 m -7.328 0.004 c -0.008 -0.195 -0.109 -0.375 -0.258 -0.453 c -0.223 -0.125 -0.227 -0.152 -0.059 -0.418 c 0.238 -0.363 0.238 -0.84 0 -0.93 c -0.324 -0.129 -0.113 -0.344 0.367 -0.367 c 0.254 -0.016 0.789 -0.066 1.188 -0.121 c 0.637 -0.082 0.738 -0.066 0.809 0.113 c 0.109 0.297 -0.148 0.418 -0.898 0.418 c -0.754 0.004 -0.926 0.133 -0.938 0.711 c -0.008 0.578 -0.195 1.492 -0.211 1.047 m -2.859 -0.266 c -0.039 -0.098 -0.016 -0.207 0.043 -0.246 c 0.063 -0.039 0.113 0.039 0.113 0.176 c 0 0.285 -0.066 0.313 -0.156 0.07 m 1.5 0.055 c 0.039 -0.066 0.148 -0.121 0.242 -0.121 c 0.094 0 0.168 0.055 0.168 0.121 c 0 0.063 -0.109 0.117 -0.242 0.117 c -0.133 0 -0.207 -0.055 -0.168 -0.117 m 3.566 -0.188 c 0 -0.375 0.273 -0.332 0.328 0.047 c 0.027 0.172 -0.023 0.258 -0.145 0.258 c -0.121 0 -0.184 -0.105 -0.184 -0.305 m 0.359 -0.832 c -0.375 -0.32 -0.383 -0.523 -0.02 -0.523 c 0.281 0 0.879 0.535 0.777 0.699 c -0.129 0.211 -0.371 0.152 -0.758 -0.176 m -4.707 0.105 c 0.086 -0.035 0.184 -0.031 0.223 0.012 c 0.039 0.039 -0.027 0.066 -0.152 0.063 c -0.137 -0.008 -0.164 -0.035 -0.07 -0.074 m 8.207 -0.277 c -0.156 -0.102 -0.156 -0.129 0 -0.234 c 0.211 -0.141 0.699 -0.156 0.699 -0.023 c 0 0.137 -0.258 0.379 -0.402 0.379 c -0.066 -0.004 -0.203 -0.055 -0.297 -0.121 m -7.27 -0.195 c 0.082 -0.035 0.184 -0.031 0.223 0.008 c 0.039 0.039 -0.031 0.066 -0.152 0.063 c -0.137 -0.008 -0.164 -0.035 -0.07 -0.07 m 5.809 -0.039 c -0.039 -0.063 -0.039 -0.297 0.004 -0.523 c 0.063 -0.336 0.031 -0.43 -0.172 -0.539 c -0.324 -0.18 -0.309 -0.41 0.051 -0.648 l 0.289 -0.195 v 0.527 c 0 0.609 0.219 0.898 0.684 0.914 l 0.313 0.012 l -0.344 0.102 c -0.191 0.059 -0.391 0.188 -0.445 0.289 c -0.113 0.207 -0.277 0.234 -0.379 0.063 m 3.332 -0.207 c 0 -0.238 0.031 -0.281 0.105 -0.16 c 0.059 0.094 0.078 0.238 0.043 0.328 c -0.094 0.25 -0.152 0.184 -0.148 -0.168 m -1.055 -0.141 c 0 -0.063 0.051 -0.148 0.117 -0.188 c 0.063 -0.039 0.117 0.012 0.117 0.113 c 0 0.102 -0.055 0.184 -0.117 0.184 c -0.066 0 -0.117 -0.051 -0.117 -0.109 m -3.684 -0.129 c 0.043 -0.066 0.125 -0.09 0.184 -0.055 c 0.164 0.102 0.133 0.176 -0.074 0.176 c -0.098 0 -0.148 -0.055 -0.109 -0.121 m -0.973 -0.441 c 0.043 -0.227 0.355 -0.332 0.645 -0.219 c 0.266 0.105 -0.031 0.426 -0.395 0.426 c -0.211 0 -0.277 -0.059 -0.25 -0.207 m -3.434 0.004 c 0.086 -0.031 0.187 -0.027 0.227 0.012 c 0.039 0.039 -0.031 0.066 -0.156 0.063 c -0.133 -0.008 -0.164 -0.035 -0.07 -0.074 m 7.477 0.004 c 0.078 -0.031 0.211 -0.031 0.293 0 c 0.078 0.031 0.012 0.059 -0.148 0.059 c -0.16 0 -0.227 -0.027 -0.145 -0.059 m -3.246 -0.383 c 0 -0.152 0.344 -0.418 0.43 -0.332 c 0.086 0.09 -0.176 0.438 -0.324 0.438 c -0.059 0 -0.105 -0.047 -0.105 -0.105 m 0.547 -0.449 c -0.164 -0.168 -0.066 -0.629 0.156 -0.75 c 0.129 -0.074 0.234 -0.25 0.234 -0.402 c 0 -0.152 0.105 -0.371 0.234 -0.488 c 0.125 -0.121 0.23 -0.34 0.23 -0.492 c 0 -0.148 0.102 -0.367 0.227 -0.484 c 0.121 -0.117 0.258 -0.359 0.305 -0.539 c 0.102 -0.41 0.762 -0.617 1.59 -0.504 c 0.566 0.082 0.797 0.297 0.316 0.297 c -0.141 0 -0.352 0.09 -0.469 0.195 c -0.191 0.176 -0.254 0.18 -0.523 0.031 c -0.281 -0.152 -0.32 -0.145 -0.48 0.102 c -0.094 0.145 -0.246 0.266 -0.336 0.266 c -0.105 0 -0.16 0.141 -0.16 0.41 c 0 0.289 -0.07 0.449 -0.234 0.539 c -0.129 0.07 -0.234 0.25 -0.234 0.402 c 0 0.148 -0.105 0.371 -0.23 0.488 c -0.129 0.117 -0.234 0.332 -0.234 0.477 c 0 0.281 -0.262 0.582 -0.391 0.453 m -5.914 -0.484 c -0.004 -0.277 0.012 -0.504 0.035 -0.504 c 0.102 0 0.145 0.566 0.063 0.777 c -0.063 0.164 -0.094 0.082 -0.098 -0.273 m 7.355 -0.242 c 0 -0.273 0.223 -0.5 0.492 -0.5 c 0.281 0 0.262 0.145 -0.063 0.453 c -0.328 0.316 -0.43 0.324 -0.43 0.047 m 0.984 -0.895 c -0.094 -0.246 0.023 -0.41 0.184 -0.25 c 0.066 0.066 0.066 0.18 0.004 0.285 c -0.09 0.148 -0.121 0.145 -0.188 -0.035 m -7.863 -0.199 c 0 -0.164 0.027 -0.23 0.059 -0.148 c 0.035 0.082 0.035 0.215 0 0.297 c -0.031 0.082 -0.059 0.016 -0.059 -0.148 m 0.391 -0.711 c 0.039 -0.066 0.125 -0.121 0.191 -0.121 c 0.063 0 0.082 0.055 0.043 0.121 c -0.039 0.063 -0.125 0.117 -0.188 0.117 c -0.066 0 -0.086 -0.055 -0.047 -0.117 m -0.41 -0.594 c 0 -0.133 0.051 -0.238 0.109 -0.238 c 0.055 0 0.078 0.105 0.043 0.238 c -0.035 0.129 -0.082 0.234 -0.105 0.234 c -0.023 0 -0.047 -0.105 -0.047 -0.234 m 0.938 0.117 c 0 -0.066 0.055 -0.117 0.125 -0.117 c 0.066 0 0.09 0.051 0.051 0.117 c -0.039 0.066 -0.098 0.117 -0.125 0.117 c -0.027 0 -0.051 -0.051 -0.051 -0.117 m 3.738 -0.18 c 0 -0.234 0.059 -0.297 0.293 -0.297 c 0.234 0 0.293 0.063 0.293 0.297 c 0 0.238 -0.059 0.297 -0.293 0.297 c -0.234 0 -0.293 -0.059 -0.293 -0.297 m -3.387 -0.473 c 0 -0.164 0.051 -0.297 0.117 -0.297 c 0.063 0 0.113 0.133 0.113 0.297 c 0 0.164 -0.051 0.297 -0.113 0.297 c -0.066 0 -0.117 -0.133 -0.117 -0.297 m 1.051 0 c 0 -0.238 0.059 -0.297 0.293 -0.297 c 0.234 0 0.293 0.059 0.293 0.297 c 0 0.238 -0.059 0.297 -0.293 0.297 c -0.234 0 -0.293 -0.059 -0.293 -0.297 m 6.898 -0.41 c 0 -0.125 0.047 -0.262 0.105 -0.297 c 0.129 -0.082 0.23 0.172 0.156 0.379 c -0.086 0.23 -0.262 0.176 -0.262 -0.082 m -7.484 -0.531 c 0 -0.199 0.066 -0.305 0.184 -0.305 c 0.125 0 0.172 0.086 0.148 0.258 c -0.055 0.379 -0.332 0.418 -0.332 0.047 m 3.859 -0.234 c 0 -0.09 0.129 -0.25 0.289 -0.355 c 0.27 -0.18 0.293 -0.176 0.41 0.047 c 0.086 0.156 0.246 0.238 0.48 0.238 c 0.207 0 0.324 0.047 0.281 0.117 c -0.117 0.191 -1.461 0.152 -1.461 -0.047 m -5.199 -0.184 c -0.035 -0.059 -0.012 -0.145 0.055 -0.184 c 0.063 -0.043 0.117 0.008 0.117 0.109 c 0 0.211 -0.07 0.242 -0.172 0.074 m 2.859 -0.305 c 0 -0.109 0.113 -0.176 0.293 -0.176 c 0.184 0 0.293 0.066 0.293 0.176 c 0 0.113 -0.109 0.18 -0.293 0.18 c -0.18 0 -0.293 -0.066 -0.293 -0.18 m 1.648 -0.105 c -0.074 -0.09 -0.289 -0.195 -0.48 -0.234 c -0.281 -0.055 -0.348 -0.129 -0.348 -0.387 c 0 -0.301 0.012 -0.309 0.215 -0.121 c 0.117 0.105 0.309 0.195 0.426 0.195 c 0.121 0 0.313 -0.09 0.43 -0.195 c 0.203 -0.188 0.215 -0.172 0.215 0.355 c 0 0.574 -0.18 0.727 -0.457 0.387 m 2.883 0.082 c 0.145 -0.027 0.355 -0.027 0.469 0.004 c 0.113 0.027 -0.008 0.051 -0.266 0.051 c -0.258 -0.004 -0.348 -0.027 -0.203 -0.055 m -6.547 -0.477 c 0.148 -0.027 0.359 -0.027 0.469 0.004 c 0.113 0.031 -0.008 0.051 -0.266 0.051 c -0.254 0 -0.348 -0.023 -0.203 -0.055 m 1.551 -0.414 c 0 -0.371 0.031 -0.461 0.117 -0.332 c 0.148 0.234 0.148 0.68 0 0.773 c -0.074 0.043 -0.117 -0.129 -0.117 -0.441 m 3.625 0.113 c 0 -0.148 0.051 -0.348 0.113 -0.445 c 0.086 -0.133 0.113 -0.063 0.117 0.266 c 0 0.246 -0.051 0.445 -0.117 0.445 c -0.063 0 -0.113 -0.117 -0.113 -0.266 m -3.207 -1.109 c -0.098 -0.266 -0.09 -0.285 0.105 -0.285 c 0.098 0 0.176 0.078 0.176 0.172 c 0 0.25 -0.199 0.332 -0.281 0.113 m 2.816 0.113 c -0.145 -0.148 -0.082 -0.398 0.098 -0.398 c 0.191 0 0.219 0.102 0.074 0.328 c -0.051 0.082 -0.129 0.113 -0.172 0.07" fill="#18260d"/></svg>