<svg xmlns="http://www.w3.org/2000/svg" xmlns:xlink="http://www.w3.org/1999/xlink" viewBox="0 0 24 24"><defs><g id="7" clip-path="url(#6)"><path d="m 5.613 5.988 c 2.777 0 12.13 0 12.13 0 v 9.859 c 0 0 -8.09 0 -12.12 0 c 0 -3.285 0 -6.57 0 -9.859" fill="url(#3)"/><path d="m 96.4 46.5 h -32.996 v -27 h 32.996" transform="matrix(0.35657 0 0 0.3521 -16.815 -0.701)" fill="none" stroke="url(#4)" stroke-linecap="round"/><path d="m 62.4 18.498 c 8.02 0 35 0 35 0 v 29 c 0 0 -23.334 0 -35 0 c 0 -9.663 0 -19.326 0 -29" transform="matrix(0.35657 0 0 0.3521 -16.815 -0.701)" fill="none" stroke="url(#5)" stroke-linejoin="round"/></g><g id="E" clip-path="url(#D)"><path d="m 124.84 864.94 v -150.32 c 0 -15.03 3.29 -26.12 10 -33.02 c 6.58 -7.147 17.11 -10.843 31.582 -10.843 h 20 v 18.729 h -20 c -7.764 0 -13.159 1.725 -16.317 4.929 c -2.895 3.327 -4.211 9.241 -4.211 17.743 v 152.79 c 0 17.743 -3.158 30.558 -9.475 38.444 c -6.316 7.886 -16.317 11.829 -30 11.829 h -8.422 v -19.222 h 5.79 c 8.03 0 13.422 -2.218 16.317 -6.407 c 3.158 -3.943 4.737 -12.198 4.737 -24.643" transform="matrix(0.02968 0 0 0.0317 4.388 -13.346)" fill="none" stroke="url(#C)" stroke-width="1.362"/></g><clipPath id="6"><path d="M 0,0 H24 V24 H0 z"/></clipPath><clipPath id="D"><path d="M 0,0 H24 V24 H0 z"/></clipPath><filter id="1" filterUnits="objectBoundingBox" x="0" y="0" width="24" height="24"><feColorMatrix type="matrix" in="SourceGraphic" values="0 0 0 0 1 0 0 0 0 1 0 0 0 0 1 0 0 0 1 0"/></filter><linearGradient id="9" gradientUnits="userSpaceOnUse" y1="5" x2="0" y2="43" gradientTransform="matrix(12.0468 0 0 8.32817 -40.443 617.61)"><stop stop-color="#fff" stop-opacity="0.502"/><stop offset="0.063" stop-color="#fff" stop-opacity="0.118"/><stop offset="0.951" stop-color="#fff" stop-opacity="0.079"/><stop offset="1" stop-color="#fff" stop-opacity="0.197"/></linearGradient><linearGradient id="A" gradientUnits="userSpaceOnUse" y1="14" x2="0" y2="12" gradientTransform="matrix(0.36063 0 0 0.53819 3.093 -0.405)"><stop stop-color="#000" stop-opacity="0.122"/><stop offset="1" stop-color="#000" stop-opacity="0"/></linearGradient><linearGradient id="5" gradientUnits="userSpaceOnUse" y1="50.786" x2="0" y2="2.906" gradientTransform="matrix(0.8075 0 0 0.5897 115.31 16.208)"><stop stop-color="#000" stop-opacity="0.318"/><stop offset="1" stop-color="#000" stop-opacity="0.239"/></linearGradient><linearGradient id="3" gradientUnits="userSpaceOnUse" y1="0.985" x2="0" y2="47.01" gradientTransform="matrix(0.34639 0 0 0.21421 3.363 5.449)"><stop stop-color="#f4f4f4"/><stop offset="1" stop-color="#dbdbdb"/></linearGradient><linearGradient id="4" gradientUnits="userSpaceOnUse" y1="5.864" x2="0" y2="42.1" gradientTransform="matrix(0.89189 0 0 0.72973 58.49 15.487)"><stop stop-color="#fff"/><stop offset="0.012" stop-color="#fff" stop-opacity="0.235"/><stop offset="0.988" stop-color="#fff" stop-opacity="0.157"/><stop offset="1" stop-color="#fff" stop-opacity="0.392"/></linearGradient><mask id="2"><g filter="url(#1)"><path fill-opacity="0.8" d="M 0,0 H24 V24 H0 z"/></g></mask><mask id="B"><g filter="url(#1)"><path fill-opacity="0.882" d="M 0,0 H24 V24 H0 z"/></g></mask><radialGradient id="C" gradientUnits="userSpaceOnUse" cx="253.5" cy="845.37" r="100.26" gradientTransform="matrix(1.36178 0 0 1.31057 -117.91 -283.3)"><stop stop-color="#fff"/><stop offset="1" stop-color="#fff" stop-opacity="0"/></radialGradient><radialGradient id="8" gradientUnits="userSpaceOnUse" cx="7.496" cy="8.45" r="20" gradientTransform="matrix(-10.47883 9.44533 -10.69174 -10.64568 417.57 676.1)"><stop stop-color="#cacaed"/><stop offset="1" stop-color="#9951f4"/></radialGradient><radialGradient id="0" gradientUnits="userSpaceOnUse" cx="27" cy="45.05" r="17.625" gradientTransform="matrix(0.38516 0 0 0.12214 1.433 11.56)"><stop stop-color="#000" stop-opacity="0.4"/><stop offset="1" stop-color="#000" stop-opacity="0"/></radialGradient><radialGradient id="F" gradientUnits="userSpaceOnUse" cx="253.5" cy="845.37" r="100.26" gradientTransform="matrix(4.43552 0 0 4.05902 -744.23 -2874.95)" xlink:href="#C"/></defs><path d="m 2.34 19.05 c -11.996 -18.04 26.26 -29.16 21.2 -5.832 c -2.16 9.641 -15.691 15.492 -21.2 5.832" fill="#b9a2ef"/><path d="m 19.406 17.02 c -0.027 1.184 -3.41 2.137 -7.574 2.137 c -4.164 0 -7.547 -0.953 -7.574 -2.137 c -0.016 -0.773 1.426 -1.488 3.773 -1.879 c 2.352 -0.387 5.25 -0.387 7.602 0 c 2.352 0.391 3.789 1.105 3.773 1.879" fill="url(#0)"/><use xlink:href="#7" mask="url(#2)"/><g stroke-linecap="round" stroke-width="11.725"><path d="m 13.787 652.03 h 469.76 v 330.88 h -469.76" transform="matrix(0.02994 0 0 0.03144 4.388 -13.346)" stroke-opacity="0.349" fill="url(#8)" stroke="#420046" stroke-linejoin="round"/><path d="m 25.792 663.46 h 445.75 v 308.14 h -445.75" transform="matrix(0.02994 0 0 0.03144 4.388 -13.346)" fill="none" stroke="url(#9)"/></g><path d="m 5.258 6.05 h 12.98 v 1.074 h -12.98" fill="url(#A)"/><path d="m 11.457 16.336 l -3.03 -6.547 l 2.438 -1.066 l 0.059 -0.074 l 1.965 4.449 l 2.359 -1.121 l 1.063 2.113" fill="#ececec" fill-rule="evenodd" fill-opacity="0.306"/><use xlink:href="#E" mask="url(#B)"/><g fill-rule="evenodd"><path d="m 256.5 923.15 l -91.47 -195.32 l 73.73 -31.809 l 1.696 -2.237 l 59.5 132.83 l 71.25 -33.548 l 32.1 63.12" transform="matrix(0.02994 0 0 0.03144 4.388 -13.346)" fill="#f2f2f2" stroke="url(#F)" stroke-width="1.136"/><path d="m 269.02 904.63 l -86.38 -180.29 l 69.55 -29.448 l 1.696 -1.988 l 55.98 122.51 l 67.33 -30.814 l 30.27 58.15" transform="matrix(0.02994 0 0 0.03144 4.388 -13.346)" fill="#007fff" stroke="#000" stroke-width="1.06"/></g><g fill-opacity="0.149"><path d="m 10.199 15.16 h 1.137 v 0.371 h -1.137"/><path d="m 11.715 15.16 h 1.895 v 0.371 h -1.895"/><path d="m 13.988 15.16 h 1.516 v 0.371 h -1.516"/><path d="m 9.441 15.906 h 2.273 v 0.371 h -2.273"/><path d="m 12.09 15.906 h 0.379 v 0.371 h -0.379"/><path d="m 12.852 15.906 h 1.137 v 0.371 h -1.137"/><path d="m 14.367 15.906 h 1.516 v 0.371 h -1.516"/><path d="m 15.883 15.16 h 1.133 v 0.371 h -1.133"/><path d="m 16.262 15.906 h 0.758 v 0.371 h -0.758"/></g></svg>