<svg xmlns="http://www.w3.org/2000/svg" viewBox="0 0 24 24"><g fill="#f45123"><path d="m 8.758 23.852 c -2.789 -0.406 -4.895 -1.305 -6.398 -2.734 c -1.457 -1.383 -2.211 -3.098 -2.277 -5.176 c -0.055 -1.66 0.242 -3.094 1.074 -5.184 c 0.578 -1.461 1.945 -3.859 2.953 -5.184 c 2.01 -2.648 4.879 -4.672 7.488 -5.285 c 0.832 -0.195 2.145 -0.246 2.961 -0.113 c 2.262 0.359 4.02 1.66 5.898 4.355 c 3.281 4.707 4.258 8.992 2.84 12.488 c -0.422 1.039 -1.016 1.949 -1.828 2.793 c -1.977 2.066 -4.582 3.344 -8.05 3.941 c -0.691 0.121 -0.844 0.129 -2.488 0.145 c -1.277 0.012 -1.867 0 -2.176 -0.047"/><path d="m 23.05 13.05 c 0 5.609 -4.809 10.156 -10.738 10.156 c -5.93 0 -10.738 -4.547 -10.738 -10.156 c 0 -5.609 4.809 -10.152 10.738 -10.152 c 5.93 0 10.738 4.543 10.738 10.152" fill-rule="evenodd"/></g><path d="m 10.59 15.25 c -0.602 -0.039 -1.09 -0.199 -1.488 -0.488 c -0.176 -0.129 -0.367 -0.34 -0.48 -0.52 c -0.027 -0.043 -0.063 -0.082 -0.066 -0.09 v 1.012 h -1.691 l -0.004 -1.168 c -0.004 -1.211 -0.008 -1.27 -0.043 -1.414 c -0.07 -0.266 -0.32 -0.367 -0.582 -0.367 c -0.309 -0.008 -0.535 0.109 -0.672 0.379 c -0.055 0.145 -0.055 0.063 -0.055 1.371 l -0.004 1.199 h -1.699 c -0.023 -1.102 0.027 -2.203 -0.02 -3.305 c -0.02 -0.176 -0.059 -0.324 -0.141 -0.535 l -0.043 -0.113 l 1.652 0.004 l 0.043 0.082 c 0.023 0.051 0.047 0.113 0.055 0.156 c 0.012 0.039 0.02 0.07 0.023 0.07 c 0.004 0 0.063 -0.035 0.125 -0.078 c 0.258 -0.16 0.516 -0.254 0.848 -0.297 c 0.172 -0.027 0.613 -0.023 0.793 0.004 c 0.41 0.059 0.738 0.191 0.992 0.402 c 0.184 0.152 0.316 0.391 0.375 0.668 l 0.023 0.102 l 0.043 -0.078 c 0.082 -0.152 0.184 -0.281 0.32 -0.414 c 0.406 -0.398 0.965 -0.633 1.688 -0.707 c 0.172 -0.016 0.609 -0.016 0.785 0.004 c 0.367 0.043 0.668 0.121 0.941 0.258 c 0.215 0.105 0.379 0.219 0.547 0.383 c 0.16 0.152 0.301 0.344 0.391 0.531 l 0.031 0.063 v -0.188 c 0 -0.387 -0.02 -0.602 -0.082 -0.824 l -0.039 -0.145 l 1.668 0.012 l 0.023 0.066 c 0.035 0.105 0.059 0.234 0.066 0.344 l 0.008 0.105 l 0.059 -0.078 c 0.199 -0.254 0.441 -0.414 0.75 -0.484 c 0.148 -0.035 0.281 -0.047 0.484 -0.043 c 0.168 0.004 0.281 0.02 0.477 0.063 l 0.051 0.012 c 0 0.156 0 0.313 0 0.469 c 0.004 0 0.047 -0.023 0.086 -0.047 c 0.633 -0.434 1.539 -0.609 2.402 -0.469 c 0.477 0.078 0.922 0.254 1.262 0.492 c 0.586 0.418 0.875 1.051 0.801 1.754 c -0.047 0.48 -0.285 0.91 -0.68 1.23 c -0.52 0.422 -1.266 0.645 -2.082 0.625 c -0.531 -0.016 -0.98 -0.117 -1.395 -0.324 c -0.336 -0.164 -0.625 -0.406 -0.84 -0.703 c -0.383 -0.543 -0.434 -1.27 -0.133 -1.875 c 0.023 -0.047 0.043 -0.09 0.043 -0.09 c -0.168 -0.055 -0.348 -0.055 -0.523 -0.02 c -0.105 0.031 -0.172 0.063 -0.266 0.129 c -0.219 0.16 -0.348 0.391 -0.402 0.727 c -0.031 0.176 -0.035 0.348 -0.035 1.203 v 0.859 h -1.695 v -0.961 l -0.051 0.078 c -0.078 0.121 -0.164 0.227 -0.277 0.332 c -0.402 0.379 -0.973 0.59 -1.738 0.637 c -0.16 0.012 -0.469 0.012 -0.629 0 m 1.25 -1.324 l 1.449 0.023 v -0.449 h -3.285 l 0.004 0.059 c 0.004 0.035 0.016 0.098 0.027 0.141 c 0.082 0.301 0.324 0.488 0.707 0.547 c 0.438 0.035 0.797 0.016 1.094 -0.32 m 7.254 0.23 c 0.281 -0.164 0.453 -0.477 0.484 -0.875 c 0.023 -0.293 -0.055 -0.602 -0.207 -0.813 c -0.051 -0.07 -0.156 -0.176 -0.223 -0.215 c -0.223 -0.148 -0.5 -0.168 -0.762 -0.113 c -0.406 0.117 -0.652 0.477 -0.676 0.977 c -0.016 0.367 0.094 0.68 0.309 0.891 c 0.133 0.133 0.254 0.195 0.445 0.234 c 0.215 0.035 0.438 0.008 0.629 -0.086 m -7.387 -1.527 c 0.012 -0.016 -0.039 -0.188 -0.082 -0.266 c -0.043 -0.078 -0.156 -0.172 -0.262 -0.219 c -0.309 -0.145 -0.773 -0.117 -1.031 0.059 c -0.133 0.09 -0.238 0.23 -0.293 0.398 l -0.012 0.039 l 0.836 -0.004 c 0.461 0 0.84 -0.004 0.844 -0.008" fill="#fff"/></svg>