<svg xmlns="http://www.w3.org/2000/svg" xmlns:xlink="http://www.w3.org/1999/xlink" viewBox="0 0 24 24"><defs><g id="b" clip-path="url(#a)"><path d="m 18.293 2.332 c 0 0 -1.738 0.617 -2.277 0.711 c -0.535 0.098 -1.504 0.348 -1.504 0.348 c 0.352 -0.094 0.82 3.387 1.02 3.902 l -0.004 0.02 c 0.848 -0.277 3.672 -0.246 3.895 -0.832 c 0 0 -0.34 -1.141 -0.539 -2.223 c -0.195 -1.082 -0.59 -1.926 -0.59 -1.926" fill="url(#T)"/><path d="m 4.512 6.04 c 0 0 -0.395 0.934 -0.594 1.816 c -0.195 0.887 -0.41 1.695 -0.41 1.695 l 3.629 1.313 l 1.133 -4.336" fill="url(#U)"/><path d="m 4.438 13.602 c 0 0 -0.285 0.754 -0.535 1.781 c -0.25 1.031 -0.359 2.27 -0.359 2.27 c 0 0 0.012 -0.004 0.031 -0.004 c 0.145 -0.023 0.805 -0.09 2.01 0.156 c 1.379 0.281 2.313 0.512 2.313 0.512 l 0.105 -3.887 l -0.055 0.008" fill="url(#V)"/><path d="m 11 9.82 l -3.844 1.055 l -0.023 -0.008 l -0.008 0.035 l 0.875 3.473 v 0.055 l 3.547 -0.555 l 0.035 0.016 l 0.004 -0.004 l -0.59 -4.04" fill="url(#W)"/><path d="m 11.793 6.359 c 0.016 0.066 0.031 0.129 0.047 0.176 l -0.836 3.285 h 0.008 l 3.715 1.395 l 0.801 -3.902 c -0.023 0.008 -0.051 0.016 -0.07 0.027" fill="url(#X)"/><path d="m 11.574 13.887 l -0.789 3.57 c 0 0 0.391 0.047 1.609 0.512 c 0.152 0.055 0.301 0.113 0.441 0.16 c 0.141 0.051 0.277 0.098 0.402 0.141 c 0.762 0.258 1.254 0.391 1.254 0.391 l 0.914 -3.34 c -0.039 0.012 -0.074 0.023 -0.109 0.039" fill="url(#Y)"/><path d="m 18.203 10.188 c -1.125 0.434 -2.273 0.758 -3.445 1.039 l -0.031 -0.012 l 0.68 4.098 v 0.008 c 1.277 -0.434 2.535 -0.918 3.781 -1.434 c 0 0 -0.035 -0.336 -0.27 -1.473 c -0.23 -1.137 -0.715 -2.227 -0.715 -2.227" fill="url(#Z)"/></g><g id="k" clip-path="url(#j)"><path d="m 3.508 9.555 c 0 0 0.41 1.195 0.664 2.242 c 0.25 1.047 0.266 1.805 0.266 1.805 l 3.512 0.836 l 0.055 -0.008 v -0.055 l -0.875 -3.473 l 0.008 -0.035" fill="url(#d)"/><path d="m 11.711 6.336 l -3.438 0.195 h -0.004 l -1.133 4.336 l 0.023 0.008 l 3.844 -1.055 l 0.836 -3.285 c -0.016 -0.047 -0.031 -0.109 -0.047 -0.176" fill="url(#e)"/><path d="m 11.551 13.875 l -3.547 0.555 l -0.105 3.887 c 0 0 0.914 -0.176 1.719 -0.41 c 0.809 -0.238 1.168 -0.449 1.168 -0.449 l 0.801 -3.566" fill="url(#f)"/><path d="m 10.801 2.242 c 0.434 0.051 0.75 3.121 0.992 4.117 l 3.664 0.98 c 0.02 -0.012 0.047 -0.02 0.07 -0.027 l 0.004 -0.02 c -0.199 -0.516 -0.668 -3.996 -1.02 -3.902 c 0 0 -0.043 -0.02 -0.125 -0.059 c -0.238 -0.109 -0.793 -0.363 -1.453 -0.617 c -0.879 -0.344 -2.133 -0.473 -2.133 -0.473" fill="url(#g)"/><path d="m 11.01 9.82 h -0.008 l -0.004 0.027 l 0.59 3.965 l -0.016 0.074 l 3.723 1.473 c 0.035 -0.016 0.07 -0.027 0.109 -0.039 v -0.008 l -0.68 -4.098" fill="url(#h)"/><path d="m 19.422 6.48 c -0.223 0.586 -3.047 0.555 -3.895 0.832 l -0.801 3.902 l 0.031 0.012 c 1.172 -0.281 2.32 -0.605 3.445 -1.039 c 0 0 0.125 -0.773 0.484 -1.746 c 0.359 -0.973 0.734 -1.961 0.734 -1.961" fill="url(#i)"/></g><clipPath id="J"><path d="m 10 5 h 4 v 9 h -4"/></clipPath><clipPath id="a"><path d="M 0,0 H24 V24 H0 z"/></clipPath><clipPath id="I"><path d="m 3.219 2.059 c 0 0 0.539 0.98 0.844 2.082 c 0.305 1.102 0.449 1.902 0.449 1.902 c 0 0 -0.395 0.934 -0.594 1.816 c -0.195 0.887 -0.41 1.695 -0.41 1.695 c 0 0 0.41 1.195 0.664 2.242 c 0.25 1.047 0.266 1.805 0.266 1.805 c 0 0 -0.285 0.754 -0.535 1.781 c -0.25 1.031 -0.359 2.27 -0.359 2.27 c 0 0 0.664 -0.129 2.043 0.152 c 1.379 0.281 2.313 0.512 2.313 0.512 c 0 0 0.914 -0.176 1.719 -0.41 c 0.809 -0.238 1.168 -0.449 1.168 -0.449 c 0 0 0.391 0.047 1.609 0.512 c 1.219 0.461 2.098 0.691 2.098 0.691 c 0 0 0.934 -0.18 1.863 -0.375 c 0.934 -0.195 1.902 -0.535 1.902 -0.535 c 0 0 -0.055 -0.371 0.305 -1.809 c 0.355 -1.434 0.625 -2.055 0.625 -2.055 c 0 0 -0.035 -0.336 -0.27 -1.473 c -0.23 -1.137 -0.715 -2.227 -0.715 -2.227 c 0 0 0.125 -0.773 0.484 -1.746 c 0.359 -0.973 0.734 -1.961 0.734 -1.961 c 0 0 -0.34 -1.141 -0.539 -2.223 c -0.195 -1.082 -0.59 -1.926 -0.59 -1.926 c 0 0 -1.738 0.617 -2.277 0.711 c -0.535 0.098 -1.504 0.348 -1.504 0.348 c 0 0 -0.699 -0.336 -1.578 -0.676 c -0.879 -0.344 -2.133 -0.473 -2.133 -0.473 c 0 0 -0.234 0.254 -1.578 0.547 c -1.344 0.297 -1.969 0.371 -1.969 0.371 c 0 0 -1.328 -0.707 -2.258 -0.922 c -0.934 -0.211 -1.723 -0.195 -1.777 -0.18"/></clipPath><clipPath id="G"><path d="m 10 5 h 1 v 1 h -1"/></clipPath><clipPath id="F"><path d="m 11 5 h 2 v 2 h -2"/></clipPath><clipPath id="H"><path d="m 10 5 h 6 v 9 h -6"/></clipPath><clipPath id="K"><path d="m 10 5 h 3 v 9 h -3"/></clipPath><clipPath id="j"><path d="M 0,0 H24 V24 H0 z"/></clipPath><clipPath id="Q"><path d="m 10 5 h 8 v 9 h -8"/></clipPath><clipPath id="L"><path d="m 16 5 h 2 v 2 h -2"/></clipPath><clipPath id="P"><path d="m 10 10 h 8 v 4 h -8"/></clipPath><clipPath id="N"><path d="m 10 13 h 8 v 1 h -8"/></clipPath><clipPath id="M"><path d="m 10 11 h 8 v 3 h -8"/></clipPath><clipPath id="O"><path d="m 10 5 h 2 v 9 h -2"/></clipPath><clipPath id="E"><path d="m 11.438 11.848 c 1.492 1.543 3.914 1.543 5.406 0 c 1.496 -1.547 1.496 -4.051 0 -5.594 c -1.492 -1.543 -3.914 -1.543 -5.406 0 c -1.492 1.547 -1.492 4.051 0 5.594"/></clipPath><clipPath id="4"><path d="m 4 4 h 13 v 12 h -13"/></clipPath><clipPath id="D"><path d="m 10 7 h 8 v 7 h -8"/></clipPath><clipPath id="3"><path d="m 4.664 4.359 c 0 0 0.504 0.863 0.789 1.84 c 0.285 0.977 0.418 1.688 0.418 1.688 c 0 0 -0.367 0.844 -0.551 1.637 c -0.184 0.797 -0.387 1.523 -0.387 1.523 c 0 0 0.387 1.059 0.621 1.988 c 0.234 0.926 0.25 1.605 0.25 1.605 c 0 0 -0.266 0.68 -0.504 1.605 c -0.234 0.926 -0.332 2.035 -0.332 2.035 c 0 0 0.617 -0.133 1.91 0.082 c 1.289 0.215 2.16 0.398 2.16 0.398 c 0 0 0.855 -0.184 1.609 -0.414 c 0.754 -0.23 1.09 -0.43 1.09 -0.43 c 0 0 0.367 0.031 1.508 0.414 c 1.141 0.379 1.961 0.563 1.961 0.563 c 0 0 0.871 -0.184 1.742 -0.383 c 0.871 -0.199 1.777 -0.527 1.777 -0.527 c 0 0 -0.051 -0.332 0.285 -1.625 c 0.336 -1.289 0.586 -1.852 0.586 -1.852 c 0 0 -0.031 -0.297 -0.25 -1.309 c -0.219 -1.01 -0.672 -1.969 -0.672 -1.969 c 0 0 0.117 -0.695 0.453 -1.574 c 0.336 -0.875 0.688 -1.77 0.688 -1.77 c 0 0 -0.316 -1.012 -0.504 -1.969 c -0.184 -0.961 -0.551 -1.707 -0.551 -1.707 c 0 0 -1.625 0.598 -2.129 0.695 c -0.504 0.102 -1.41 0.348 -1.41 0.348 c 0 0 -0.652 -0.281 -1.473 -0.563 c -0.82 -0.281 -1.996 -0.363 -1.996 -0.363 c 0 0 -0.215 0.23 -1.473 0.527 c -1.258 0.301 -1.844 0.383 -1.844 0.383 c 0 0 -1.242 -0.598 -2.113 -0.762 c -0.871 -0.164 -1.609 -0.133 -1.66 -0.117"/></clipPath><clipPath id="1"><path d="m 4.863 4.359 c 0 0 0.496 0.863 0.777 1.84 c 0.281 0.977 0.414 1.688 0.414 1.688 c 0 0 -0.363 0.844 -0.547 1.637 c -0.18 0.797 -0.379 1.523 -0.379 1.523 c 0 0 0.379 1.059 0.609 1.988 c 0.234 0.926 0.25 1.605 0.25 1.605 c 0 0 -0.266 0.68 -0.496 1.605 c -0.23 0.926 -0.332 2.035 -0.332 2.035 c 0 0 0.613 -0.133 1.887 0.082 c 1.273 0.215 2.133 0.398 2.133 0.398 c 0 0 0.844 -0.184 1.586 -0.414 c 0.746 -0.23 1.078 -0.43 1.078 -0.43 c 0 0 0.363 0.031 1.488 0.414 c 1.121 0.379 1.934 0.563 1.934 0.563 c 0 0 0.859 -0.184 1.719 -0.383 c 0.859 -0.199 1.754 -0.527 1.754 -0.527 c 0 0 -0.051 -0.332 0.281 -1.625 c 0.332 -1.289 0.578 -1.852 0.578 -1.852 c 0 0 -0.031 -0.297 -0.246 -1.309 c -0.215 -1.01 -0.664 -1.969 -0.664 -1.969 c 0 0 0.117 -0.695 0.449 -1.574 c 0.328 -0.875 0.676 -1.77 0.676 -1.77 c 0 0 -0.313 -1.012 -0.496 -1.969 c -0.18 -0.961 -0.547 -1.707 -0.547 -1.707 c 0 0 -1.602 0.598 -2.098 0.695 c -0.496 0.102 -1.391 0.348 -1.391 0.348 c 0 0 -0.645 -0.281 -1.453 -0.563 c -0.813 -0.281 -1.969 -0.363 -1.969 -0.363 c 0 0 -0.215 0.23 -1.457 0.527 c -1.238 0.301 -1.816 0.383 -1.816 0.383 c 0 0 -1.227 -0.598 -2.086 -0.762 c -0.859 -0.164 -1.586 -0.133 -1.637 -0.117"/></clipPath><clipPath id="0"><path d="m 4 4 h 16 v 15 h -16"/></clipPath><clipPath id="2"><path d="m 4 10 h 4 v 4 h -4"/></clipPath><clipPath id="5"><path d="m 5 4 h 10 v 11 h -10"/></clipPath><clipPath id="C"><path d="m 10 11 h 10 v 8 h -10"/></clipPath><clipPath id="B"><path d="m 5 4 h 7 v 15 h -7"/></clipPath><clipPath id="6"><path d="m 5 4 h 9 v 11 h -9"/></clipPath><clipPath id="A"><path d="m 15 16 h 5 v 3 h -5"/></clipPath><clipPath id="8"><path d="m 4 12 h 16 v 6 h -16"/></clipPath><clipPath id="7"><path d="m 16 4 h 4 v 4 h -4"/></clipPath><clipPath id="9"><path d="m 9 13 h 11 v 6 h -11"/></clipPath><filter id="R" filterUnits="objectBoundingBox" x="0" y="0" width="24" height="24"><feColorMatrix type="matrix" in="SourceGraphic" values="0 0 0 0 1 0 0 0 0 1 0 0 0 0 1 0 0 0 1 0"/></filter><linearGradient id="l" gradientUnits="userSpaceOnUse" x1="4.327" y1="87.05" x2="9.428" y2="92.15" gradientTransform="matrix(0.17672 0 0 0.18274 3.49 2.436)"><stop stop-color="#f9e295"/><stop offset="0.125" stop-color="#f6dd84"/><stop offset="0.206" stop-color="#fff"/><stop offset="0.301" stop-color="#f4ce51"/><stop offset="0.341" stop-color="#f9e6aa"/><stop offset="1" stop-color="#eeba0d"/></linearGradient><linearGradient id="g" gradientUnits="userSpaceOnUse" x1="35" y1="-163.3" x2="180.75" y2="-146.8" gradientTransform="matrix(0.07168 0.00209 0 0.07413 2.575 15.364)" xlink:href="#d"/><linearGradient id="t" gradientUnits="userSpaceOnUse" x1="126.64" y1="29.815" x2="179.96" y2="137.2" gradientTransform="matrix(-0.02879 0.01174 0.01129 -0.0256 19.973 11.297)"><stop stop-color="#fff" stop-opacity="0.765"/><stop offset="1" stop-color="#fff" stop-opacity="0"/></linearGradient><linearGradient id="T" gradientUnits="userSpaceOnUse" x1="214.25" y1="-161.36" x2="166.5" y2="-113.72" gradientTransform="matrix(0.07168 0.00209 0 0.07413 2.575 15.364)"><stop stop-color="#fff"/><stop offset="1" stop-color="#fff" stop-opacity="0"/></linearGradient><linearGradient id="i" gradientUnits="userSpaceOnUse" x1="142.75" y1="-169.3" x2="235" y2="-77.3" gradientTransform="matrix(0.07168 0.00209 0 0.07413 2.575 15.364)" xlink:href="#d"/><linearGradient id="n" gradientUnits="userSpaceOnUse" x1="44.857" y1="51.619" x2="42.906" y2="55.41" gradientTransform="matrix(0.17672 0 0 0.18274 3.49 2.436)"><stop stop-color="#2d3335"/><stop offset="0.5" stop-color="#4c454a"/><stop offset="1" stop-color="#373f42"/></linearGradient><linearGradient id="s" gradientUnits="userSpaceOnUse" x1="44.844" y1="14.938" x2="62.11" y2="49.716" gradientTransform="matrix(0.17672 0 0 0.18274 3.49 2.436)"><stop stop-color="#fff" stop-opacity="0.604"/><stop offset="1" stop-color="#fff" stop-opacity="0"/></linearGradient><linearGradient id="o" gradientUnits="userSpaceOnUse" x1="41.34" y1="58.32" x2="38.16" y2="55.13" gradientTransform="matrix(0.17672 0 0 0.18274 3.49 2.436)" xlink:href="#n"/><linearGradient id="r" gradientUnits="userSpaceOnUse" x1="33.428" y1="88.55" x2="27.28" y2="62.826" gradientTransform="matrix(0.17672 0 0 0.18274 3.49 2.436)"><stop stop-color="#000" stop-opacity="0.596"/><stop offset="1" stop-color="#000" stop-opacity="0"/></linearGradient><linearGradient id="p" gradientUnits="userSpaceOnUse" x1="25.686" y1="65.69" x2="30.786" y2="70.79" gradientTransform="matrix(0.17672 0 0 0.18274 3.49 2.436)" xlink:href="#l"/><linearGradient id="q" gradientUnits="userSpaceOnUse" x1="33.654" y1="69.2" x2="27.28" y2="62.826" gradientTransform="matrix(0.17672 0 0 0.18274 3.49 2.436)" xlink:href="#n"/><linearGradient id="h" gradientUnits="userSpaceOnUse" x1="57" y1="-141.11" x2="179" y2="-41.609" gradientTransform="matrix(0.07168 0.00209 0 0.07413 2.575 15.364)" xlink:href="#d"/><linearGradient id="X" gradientUnits="userSpaceOnUse" x1="180.69" y1="-125.12" x2="133.94" y2="-60.75" gradientTransform="matrix(0.07168 0.00209 0 0.07413 2.575 15.364)" xlink:href="#T"/><linearGradient id="f" gradientUnits="userSpaceOnUse" x1="56.5" y1="-50.44" x2="125.72" y2="7.06" gradientTransform="matrix(0.07168 0.00209 0 0.07413 2.575 15.364)" xlink:href="#d"/><linearGradient id="W" gradientUnits="userSpaceOnUse" x1="117.75" y1="-78.09" x2="63.5" y2="-14.75" gradientTransform="matrix(0.07168 0.00209 0 0.07413 2.575 15.364)" xlink:href="#T"/><linearGradient id="U" gradientUnits="userSpaceOnUse" x1="53.25" y1="-126.5" x2="57.656" y2="-62.47" gradientTransform="matrix(0.07168 0.00209 0 0.07413 2.575 15.364)" xlink:href="#T"/><linearGradient id="V" gradientUnits="userSpaceOnUse" x1="39.5" y1="6.625" x2="75.72" y2="-17.12" gradientTransform="matrix(0.07168 0.00209 0 0.07413 2.575 15.364)" xlink:href="#T"/><linearGradient id="Y" gradientUnits="userSpaceOnUse" x1="170.75" y1="-23.5" x2="130.22" y2="33.375" gradientTransform="matrix(0.07168 0.00209 0 0.07413 2.575 15.364)" xlink:href="#T"/><linearGradient id="e" gradientUnits="userSpaceOnUse" x1="77.63" y1="-163.12" x2="115.25" y2="-74.62" gradientTransform="matrix(0.07168 0.00209 0 0.07413 2.575 15.364)" xlink:href="#d"/><linearGradient id="d" gradientUnits="userSpaceOnUse" x1="50.75" y1="-114.44" x2="35.75" y2="-30.438" gradientTransform="matrix(0.07168 0.00209 0 0.07413 2.575 15.364)"><stop stop-color="#000"/><stop offset="1" stop-color="#000" stop-opacity="0"/></linearGradient><linearGradient id="Z" gradientUnits="userSpaceOnUse" x1="213.5" y1="-76" x2="181.75" y2="-5.656" gradientTransform="matrix(0.07168 0.00209 0 0.07413 2.575 15.364)" xlink:href="#T"/><mask id="S"><g filter="url(#R)"><path fill-opacity="0.271" d="M 0,0 H24 V24 H0 z"/></g></mask><mask id="c"><g filter="url(#R)"><path fill-opacity="0.043" d="M 0,0 H24 V24 H0 z"/></g></mask><radialGradient id="m" gradientUnits="userSpaceOnUse" cx="128" cy="86" r="47" gradientTransform="matrix(0.05753 0.05949 0.05753 -0.05949 1.83 6.552)"><stop stop-color="#cfe8f2" stop-opacity="0"/><stop offset="0.839" stop-color="#cfe8f2" stop-opacity="0"/><stop offset="0.943" stop-color="#cfe8f2" stop-opacity="0.282"/><stop offset="1" stop-color="#cfe8f2"/></radialGradient></defs><path d="m 4.371 20.586 c -18.762 -24.867 32.867 -28.402 16.301 -3.02 c -3.777 5.785 -11.332 9.602 -16.301 3.02" fill="#c2eca3"/><g clip-path="url(#0)"><g clip-path="url(#1)"><path d="m 11.594 3.914 l -0.281 0.465 c -0.051 0.594 -0.148 0.91 -0.563 1.09 c -0.414 0.184 -0.809 0.234 -0.727 0.496 c 0.082 0.266 0.859 0.613 0.941 0.863 c 0.082 0.246 0.547 0.113 0.727 0.461 c 0.184 0.348 0.133 1.012 -0.246 1.145 c -0.379 0.133 -1.156 0.031 -1.34 0.629 c -0.18 0.594 -0.313 0.695 -0.594 0.844 c -0.281 0.148 -0.48 0.695 -0.234 1.094 c 0.25 0.395 0.813 -0.086 0.992 -0.434 c 0.184 -0.348 0.48 -0.578 0.48 -0.578 h 1.57 l 3.902 -0.117 l 0.219 -0.246 c 0 0 0.215 0.266 0.18 0.578 c -0.031 0.316 -0.246 0.977 0.016 1.145 c 0.266 0.164 1.293 -0.133 1.59 -0.465 c 0.297 -0.332 -0.316 -1.871 -0.695 -1.953 c -0.379 -0.082 -1.223 -0.117 -1.125 -0.465 c 0.098 -0.348 0.777 0.297 1.141 0.215 c 0.363 -0.082 1.109 -1.391 0.793 -1.672 c -0.313 -0.281 -1.602 -0.348 -1.703 -0.527 c -0.098 -0.184 1.391 -0.531 1.473 -0.73 c 0.082 -0.199 -0.164 -0.48 -0.414 -0.563 c -0.246 -0.082 -0.926 1.078 -1.387 1.043 c -0.465 -0.031 -1.324 0.383 -1.141 0.762 c 0.18 0.383 -0.398 0.73 -0.961 0.43 c -0.563 -0.297 -1.637 -0.859 -1.438 -1.59 c 0.195 -0.727 1.422 -1.238 1.422 -1.238 m -3.496 6.418 c -0.105 0.012 -0.293 0.313 -0.324 0.465 c -0.035 0.168 -0.215 0.449 -0.23 0.813 c -0.02 0.363 0.313 0.445 0.578 0.43 c 0.262 -0.016 0.18 -0.445 0.133 -0.992 c -0.02 0 -0.035 -0.68 -0.133 -0.711 c -0.008 -0.004 -0.016 -0.004 -0.023 -0.004 m 6.137 3.422 c -0.422 0.02 -0.441 0.492 -0.492 0.586 c -0.082 0.148 0.148 0.91 0.133 1.191 c -0.016 0.281 -0.313 0.348 -0.629 0.648 c -0.313 0.297 0.035 1.059 0.746 2.051 l 2.957 0.082 l -0.027 -2.445 c 0 0 0.277 -0.152 -1.41 -1.477 c -0.633 -0.496 -1.027 -0.648 -1.277 -0.637 m -9.922 1.094 c -0.266 -0.008 -0.547 0.379 -0.641 0.504 c -0.098 0.133 -0.414 0.328 -1.125 0.629 l -0.957 2.266 l 3.504 0.281 c 0 0 0.117 -0.727 -0.281 -1.043 c -0.398 -0.313 -1.141 -0.379 -1.207 -0.875 c -0.066 -0.496 0.613 -0.664 0.91 -0.945 c 0.297 -0.281 0.133 -0.742 -0.148 -0.809 c -0.02 -0.004 -0.035 -0.008 -0.055 -0.008" fill="#80cc8b"/></g></g><path d="m 14.691 9.199 c -0.32 0 -0.605 0.066 -0.773 0.211 c -0.535 0.461 -2.348 0.047 -3.254 0.461 c -0.902 0.414 -0.887 2.516 -0.988 2.949 c -0.098 0.43 -1.172 1.371 -1.34 1.555 c -0.168 0.184 -0.887 0.48 -1.309 0.563 c -0.418 0.082 -0.852 0.48 -1.039 0.727 c -0.133 0.184 -0.496 0.43 -0.676 0.547 c -0.004 0.012 -0.008 0.023 -0.012 0.035 c -0.008 0.035 -0.016 0.07 -0.023 0.105 c 0.336 -0.105 0.75 -0.539 1.113 -0.902 c 0.422 -0.414 1.344 -0.512 1.863 -0.762 c 0.52 -0.246 0.953 -1.305 1.773 -1.57 c 0.824 -0.266 1.426 0.777 1.629 1.223 c 0.199 0.449 0.117 0.848 0.25 1.129 c 0.133 0.281 0.738 0.777 0.77 0.891 c 0.035 0.117 -0.336 0.434 -0.418 0.563 c -0.082 0.133 -0.703 0.465 -0.789 0.582 c -0.063 0.09 -0.129 0.449 -0.152 0.609 c 0.027 -0.012 0.051 -0.02 0.074 -0.031 c 0.031 -0.168 0.102 -0.469 0.195 -0.563 c 0.137 -0.133 0.754 -0.297 0.84 -0.563 c 0.082 -0.266 0.469 -0.43 0.469 -0.43 c 0 0 0.184 0.266 1.074 0.926 c 0.59 0.441 0.855 1.027 0.965 1.371 c 0.043 0.012 0.102 0.027 0.137 0.035 c -0.082 -0.285 -0.324 -1.074 -0.602 -1.371 c -0.332 -0.367 -1.238 -0.715 -1.523 -1.457 c -0.285 -0.746 -1.645 -2.27 -1.172 -2.668 c 0.469 -0.395 1.105 -0.262 1.91 0.5 c 0.805 0.758 3.098 0.379 3.871 0.246 c 0.668 -0.113 1.395 0.984 1.602 1.723 c 0.039 -0.137 0.074 -0.262 0.109 -0.379 c -0.113 -0.129 -0.246 -0.305 -0.355 -0.547 c -0.25 -0.566 -0.805 -0.879 -0.805 -0.879 c 0 0 0.59 -0.332 0.992 -0.512 c 0.105 -0.051 0.199 -0.113 0.277 -0.18 c -0.008 -0.051 -0.016 -0.082 -0.027 -0.137 c -0.004 -0.008 -0.004 -0.02 -0.008 -0.027 c -0.316 0.367 -1.289 0.637 -1.449 0.723 c -0.188 0.098 -1.227 0.199 -2.398 0.297 c -1.172 0.102 -1.793 -0.496 -2.297 -0.977 c -0.5 -0.48 -0.871 -2.383 -0.199 -2.516 c 0.668 -0.133 1.34 0.91 2.01 1.125 c 0.668 0.215 1.441 -1.043 1.324 -1.785 c -0.082 -0.512 -0.941 -0.836 -1.641 -0.84 m -3.578 0.879 c 0.086 0 0.395 0.105 0.441 0.16 c 0.148 0.164 0.133 0.477 0 0.527 c -0.133 0.051 -0.855 0.531 -0.703 0.945 c 0.148 0.414 0.117 1.191 -0.234 1.191 c -0.355 0 -0.539 0 -0.672 -0.168 c -0.133 -0.164 -0.133 -0.793 0 -1.305 c 0.133 -0.516 0.234 -0.996 0.535 -1.211 c 0.207 -0.148 0.445 -0.141 0.633 -0.141 m 0.91 4.84 c 0.016 0 0.129 0.234 0.316 0.465 c 0.203 0.25 0.219 0.547 0.219 0.547 c 0 0 -0.285 -0.313 -0.402 -0.527 c -0.117 -0.219 -0.133 -0.48 -0.133 -0.48 c 0 -0.004 0 -0.004 0 -0.004" fill="#39c2ff"/><g stroke-opacity="0.388" fill="none" stroke="#6c7f42" stroke-linejoin="round" stroke-linecap="round" transform="matrix(0.06704 0 0 0.06621 4.063 4.212)"><path d="m 122.77 62.23 c 6.235 0.531 12.236 -2.242 10.721 -6.49 c -1.515 -4.248 -12.469 -7.257 -13.227 -3.01 c -0.757 4.248 1.981 10.502 2.506 9.499"/><path d="m 108.73 46.775 c -8.507 -5.546 -8.507 -7.257 -6.992 -8.02 c 1.515 -0.767 10.255 5.01 12.761 8.02 c 2.506 2.95 -2.272 1.947 -5.769 0"/></g><g clip-path="url(#2)"><g clip-path="url(#3)"><path d="m 15.732 151.23 c 33.04 -2.478 38.28 -3.481 36.24 -10.207 c -1.981 -6.785 -8.74 -23.54 -22.958 -22.537 c -14.276 1 -22.783 -6.726 -22.783 -6.726" transform="matrix(0.06704 0 0 0.06621 4.063 3.55)" stroke-opacity="0.388" fill="none" stroke="#6c7f42" stroke-linejoin="round" stroke-linecap="round"/></g></g><g clip-path="url(#4)"><g clip-path="url(#3)"><path d="m 17.48 177.25 c 18.296 -9.971 28.785 -8.496 35.02 -11.505 c 6.235 -3.01 13.227 -5.723 15.733 -9.499 c 2.506 -3.717 5.769 -11.505 5.769 -17.994 c 0 -6.49 -3.496 -35.989 3.263 -43.481 c 6.759 -7.493 17.248 -26.02 25.988 -23.25 c 8.74 2.714 12.236 9.735 22.03 9.499 c 9.731 -0.295 21.734 -4.01 24.24 -12.272 c 2.506 -8.26 -15.791 -15.988 -16.02 -23.01 c -0.233 -7.02 5.536 -14.218 20.277 -16.991 c 14.742 -2.773 23.482 -11.505 23.482 -11.505" transform="matrix(0.06704 0 0 0.06621 4.063 3.55)" stroke-opacity="0.388" fill="none" stroke="#6c7f42"/></g></g><g clip-path="url(#5)"><g clip-path="url(#3)"><path d="m 14.509 161.02 c 15.266 -1.534 22.259 3.481 31.465 1.711 c 9.265 -1.711 13.285 -3.01 17.772 -5.723 c 4.487 -2.773 6 -3.776 6.235 -6.49 c 0.291 -2.773 0.991 -12.508 -2.972 -22.01 c -4.02 -9.499 -12.528 -31.505 -8.274 -38.761 c 4.254 -7.257 5.244 -21.475 15.791 -24.484 c 10.488 -3.01 20.977 -6.254 27.736 -1.298 c 6.759 5.01 12.761 14.277 19.986 14.513 c 7.225 0.236 11.77 -1.475 14.509 -4.484 c 2.739 -3.01 4.487 -10.266 1.748 -13.746 c -2.739 -3.481 -15.499 -5.487 -17.248 -9.499 c -1.748 -4.01 -10.78 -16.991 -0.233 -26.785 c 10.488 -9.735 36.24 -8.201 36.24 -8.201" transform="matrix(0.06704 0 0 0.06621 4.063 3.55)" stroke-opacity="0.388" fill="none" stroke="#6c7f42" stroke-linejoin="round" stroke-linecap="round"/></g></g><g clip-path="url(#6)"><g clip-path="url(#3)"><path d="m 21.268 159.02 c 13.751 1 21.501 4.248 33.504 -0.531 c 12 -4.72 13.46 -5.251 13.751 -8.732 c 0.233 -3.481 -0.291 -15.752 -3.03 -20 c -2.739 -4.248 -12.994 -13.746 -15.733 -24.25 c -2.739 -10.502 0.233 -41 8.507 -48.26 c 8.216 -7.257 31.989 -7.257 37.467 -10.502 c 5.536 -3.245 5.244 -16.755 12.994 -24.484 c 7.75 -7.788 27.04 -12.272 27.04 -12.272" transform="matrix(0.06704 0 0 0.06621 4.063 3.55)" stroke-opacity="0.388" fill="none" stroke="#6c7f42" stroke-linejoin="round" stroke-linecap="round"/></g></g><g clip-path="url(#7)"><g clip-path="url(#3)"><path d="m 190.01 18.485 c 11.712 5.01 38.982 9.794 47.26 40.24" transform="matrix(0.06704 0 0 0.06621 4.063 3.55)" stroke-opacity="0.388" fill="none" stroke="#6c7f42" stroke-linejoin="round" stroke-linecap="round"/></g></g><g clip-path="url(#8)"><g clip-path="url(#3)"><path d="m 9.731 214 c 18.996 -12.508 36.01 -1.239 49 -4.01 c 12.994 -2.714 38.28 -37.23 46.03 -36.992 c 7.75 0.236 5.477 -11.741 8.507 -13.274 c 2.972 -1.475 5.477 6.02 11.712 8.02 c 6.293 2.01 24.531 -2.773 23.541 -5.723 c -1.049 -3.01 -7.05 -7.788 -5.536 -8.555 c 1.515 -0.708 8.507 5.01 12.761 3.54 c 4.254 -1.534 43.76 -1 48.48 -13.51 c 4.778 -12.508 21.501 -13.51 21.501 -13.51" transform="matrix(0.06704 0 0 0.06621 4.063 3.55)" stroke-opacity="0.388" fill="none" stroke="#6c7f42" stroke-linejoin="round" stroke-linecap="round"/></g></g><g clip-path="url(#9)"><g clip-path="url(#3)"><path d="m 77.5 233.47 c 13.518 -11.446 23.25 -24.956 28.493 -26.962 c 5.244 -2.01 12.761 -3.776 15.733 -8.02 c 3.03 -4.248 2.506 -10.738 5.302 -11.977 c 2.739 -1.239 3.729 5.723 8.74 6.02 c 5.01 0.236 36.709 -5.01 42.711 -11.8 c 6 -6.726 32.28 -12.508 32.514 -14.454 c 0.233 -2.01 -0.991 -4.779 0.233 -5.546 c 1.282 -0.708 24.764 -5.959 24.764 -5.959" transform="matrix(0.06704 0 0 0.06621 4.063 3.55)" stroke-opacity="0.388" fill="none" stroke="#6c7f42" stroke-linejoin="round" stroke-linecap="round"/></g></g><g clip-path="url(#A)"><g clip-path="url(#3)"><path d="m 168.75 236.01 c 9.03 -13.746 20.511 -41 29.484 -42.01 c 9.03 -1 10.255 -2.478 12.528 -4.248 c 2.214 -1.77 17.01 2.242 17.01 2.242" transform="matrix(0.06704 0 0 0.06621 4.063 3.55)" stroke-opacity="0.388" fill="none" stroke="#6c7f42" stroke-linejoin="round" stroke-linecap="round"/></g></g><g clip-path="url(#B)"><g clip-path="url(#3)"><path d="m 36.3 11.583 l -5.302 35.517 l 36.24 7.375 l 7.75 36.28 l -20.977 22.242 l 8.973 10.502 l -12 11.505 l 0.524 4.484 l 20.22 24.484 l 14.04 -6.726 l 20.452 18.525 l -10.488 28.2 l 10.255 8.555 l -2.739 12.979" transform="matrix(0.06704 0 0 0.06621 4.063 3.55)" fill="none" stroke="#ff5686" stroke-linecap="round" stroke-width="1.999"/></g></g><g clip-path="url(#C)"><g clip-path="url(#3)"><path d="m 105.76 212.23 l 12.469 -27.729 l 11.01 -7.02 l 27.503 15.752 l 20.511 -3.717 l -0.233 -15.752 l -10.255 -6.02 l 12.761 -26.25 l 5.71 -3.717 l 46.79 4.543" transform="matrix(0.06704 0 0 0.06621 4.063 3.55)" fill="none" stroke="#ff5686" stroke-linecap="round" stroke-width="2"/></g></g><g clip-path="url(#D)"><g clip-path="url(#E)"><path d="m 13.941 7.789 c -0.344 -0.012 -0.648 0.055 -0.828 0.211 c -0.574 0.5 -2.508 -0.02 -3.477 0.418 c -0.969 0.434 -0.949 2.789 -1.059 3.266 c -0.105 0.48 -1.254 1.504 -1.434 1.699 c -0.18 0.199 -0.949 0.512 -1.398 0.59 c -0.445 0.082 -0.914 0.512 -1.109 0.785 c -0.145 0.199 -0.531 0.461 -0.727 0.586 c -0.004 0.016 -0.004 0.027 -0.008 0.039 c -0.012 0.039 -0.02 0.082 -0.027 0.121 c 0.355 -0.109 0.801 -0.582 1.191 -0.977 c 0.449 -0.449 1.434 -0.531 1.988 -0.793 c 0.555 -0.262 1.023 -1.434 1.902 -1.707 c 0.875 -0.27 1.523 0.918 1.738 1.422 c 0.215 0.508 0.125 0.949 0.266 1.27 c 0.145 0.32 0.789 0.895 0.824 1.023 c 0.039 0.133 -0.355 0.473 -0.445 0.617 c -0.09 0.148 -0.754 0.5 -0.844 0.625 c -0.07 0.098 -0.137 0.5 -0.164 0.68 c 0.027 -0.012 0.051 -0.023 0.078 -0.031 c 0.035 -0.188 0.109 -0.523 0.211 -0.625 c 0.145 -0.145 0.809 -0.313 0.898 -0.605 c 0.09 -0.293 0.5 -0.465 0.5 -0.465 c 0 0 0.199 0.301 1.148 1.07 c 0.633 0.512 0.914 1.176 1.031 1.566 c 0.047 0.012 0.109 0.031 0.145 0.043 c -0.086 -0.324 -0.344 -1.215 -0.641 -1.559 c -0.355 -0.418 -1.324 -0.836 -1.629 -1.676 c -0.305 -0.844 -1.758 -2.59 -1.254 -3.02 c 0.5 -0.434 1.184 -0.266 2.043 0.613 c 0.859 0.879 3.313 0.523 4.137 0.398 c 0.715 -0.105 1.496 1.148 1.715 1.98 c 0.043 -0.152 0.082 -0.293 0.121 -0.422 c -0.125 -0.148 -0.266 -0.352 -0.383 -0.625 c -0.27 -0.637 -0.859 -1.01 -0.859 -1.01 c 0 0 0.625 -0.352 1.059 -0.543 c 0.113 -0.051 0.215 -0.117 0.297 -0.188 c -0.008 -0.059 -0.016 -0.094 -0.031 -0.156 c 0 -0.012 -0.004 -0.023 -0.004 -0.035 c -0.344 0.402 -1.379 0.672 -1.555 0.766 c -0.195 0.105 -1.309 0.184 -2.563 0.258 c -1.254 0.078 -1.918 -0.609 -2.453 -1.164 c -0.539 -0.551 -0.934 -2.695 -0.215 -2.82 c 0.715 -0.129 1.434 1.059 2.148 1.32 c 0.719 0.262 1.543 -1.121 1.418 -1.961 c -0.086 -0.574 -1 -0.965 -1.754 -0.988 m -3.824 0.875 c 0.09 0 0.418 0.129 0.469 0.188 c 0.16 0.191 0.145 0.543 0 0.594 c -0.145 0.051 -0.914 0.566 -0.754 1.035 c 0.164 0.469 0.125 1.336 -0.25 1.324 c -0.375 -0.008 -0.574 -0.016 -0.715 -0.203 c -0.145 -0.191 -0.145 -0.895 0 -1.465 c 0.141 -0.57 0.25 -1.105 0.57 -1.336 c 0.223 -0.16 0.477 -0.145 0.68 -0.137 m 0.973 5.445 c 0.016 0 0.137 0.262 0.34 0.531 c 0.215 0.285 0.23 0.617 0.23 0.617 c 0 0 -0.305 -0.359 -0.43 -0.605 c -0.125 -0.246 -0.141 -0.543 -0.141 -0.543" fill="#aac2e6"/></g></g><g clip-path="url(#F)"><g clip-path="url(#E)"><path d="m 122.75 72.27 c 6.267 0.455 12.261 -2.296 10.735 -6.522 c -1.471 -4.227 -12.479 -7.236 -13.242 -2.999 c -0.763 4.237 2.02 10.482 2.507 9.52" transform="matrix(0.07168 0.00209 0 0.07413 2.575 1.132)" stroke-opacity="0.388" fill="none" stroke="#6c7f42" stroke-linejoin="round" stroke-linecap="round"/></g></g><g clip-path="url(#G)"><g clip-path="url(#E)"><path d="m 108.75 56.755 c -8.501 -5.504 -8.501 -7.243 -6.975 -8.02 c 1.471 -0.727 10.245 5.03 12.751 8.02 c 2.452 2.987 -2.289 2.01 -5.776 0.005" transform="matrix(0.07168 0.00209 0 0.07413 2.575 1.132)" stroke-opacity="0.388" fill="none" stroke="#6c7f42" stroke-linejoin="round" stroke-linecap="round"/></g></g><g clip-path="url(#H)"><g clip-path="url(#E)"><g clip-path="url(#I)"><path d="m 17.475 177.27 c 18.255 -10 28.772 -8.507 35.04 -11.529 c 6.212 -2.968 13.242 -5.749 15.748 -9.509 c 2.507 -3.707 5.722 -11.492 5.722 -17.973 c 0 -6.482 -3.488 -35.999 3.27 -43.515 c 6.757 -7.516 17.274 -25.993 25.993 -23.24 c 8.773 2.756 12.261 9.719 22.01 9.496 c 9.754 -0.276 21.742 -3.987 24.25 -12.278 c 2.507 -8.239 -15.748 -15.997 -16.02 -22.998 c -0.218 -7 5.504 -14.226 20.271 -16.962 c 14.713 -2.787 23.486 -11.519 23.486 -11.519" transform="matrix(0.07168 0.00209 0 0.07413 2.575 1.132)" stroke-opacity="0.388" fill="none" stroke="#6c7f42"/></g></g></g><g clip-path="url(#J)"><g clip-path="url(#E)"><g clip-path="url(#I)"><path d="m 14.478 161.02 c 15.258 -1.538 22.287 3.481 31.497 1.745 c 9.264 -1.737 13.296 -3.01 17.764 -5.772 c 4.523 -2.763 5.994 -3.753 6.267 -6.501 c 0.218 -2.746 0.981 -12.517 -2.997 -21.995 c -4.03 -9.477 -12.533 -31.475 -8.283 -38.762 c 4.25 -7.234 5.286 -21.492 15.748 -24.475 c 10.517 -2.985 21.03 -6.233 27.791 -1.259 c 6.757 5.03 12.751 14.237 19.999 14.506 c 7.247 0.27 11.716 -1.49 14.495 -4.52 c 2.725 -2.975 4.468 -10.244 1.744 -13.751 c -2.779 -3.505 -15.476 -5.465 -17.274 -9.472 c -1.744 -4.01 -10.735 -17.03 -0.218 -26.764 c 10.517 -9.73 36.24 -8.243 36.24 -8.243" transform="matrix(0.07168 0.00209 0 0.07413 2.575 1.132)" stroke-opacity="0.388" fill="none" stroke="#6c7f42" stroke-linejoin="round" stroke-linecap="round"/></g></g></g><g clip-path="url(#K)"><g clip-path="url(#E)"><g clip-path="url(#I)"><path d="m 21.235 158.98 c 13.787 1.033 21.524 4.293 33.513 -0.472 c 11.988 -4.765 13.514 -5.283 13.732 -8.767 c 0.272 -3.486 -0.218 -15.75 -2.997 -19.993 c -2.725 -4.244 -12.969 -13.756 -15.748 -24.27 c -2.725 -10.462 0.272 -41.01 8.501 -48.25 c 8.283 -7.243 32.04 -7.229 37.491 -10.492 c 5.504 -3.265 5.286 -16.749 13.02 -24.503 c 7.738 -7.754 26.974 -12.25 26.974 -12.25" transform="matrix(0.07168 0.00209 0 0.07413 2.575 1.132)" stroke-opacity="0.388" fill="none" stroke="#6c7f42" stroke-linejoin="round" stroke-linecap="round"/></g></g></g><g clip-path="url(#L)"><g clip-path="url(#E)"><g clip-path="url(#I)"><path d="m 190 18.52 c 11.77 4.99 39.02 9.753 47.24 40.24" transform="matrix(0.07168 0.00209 0 0.07413 2.575 1.132)" stroke-opacity="0.388" fill="none" stroke="#6c7f42" stroke-linejoin="round" stroke-linecap="round"/></g></g></g><g clip-path="url(#M)"><g clip-path="url(#E)"><g clip-path="url(#I)"><path d="m 9.737 214.01 c 19.02 -12.5 36.02 -1.281 48.989 -4.02 c 13.02 -2.739 38.25 -37.23 46.05 -36.977 c 7.738 0.256 5.504 -11.749 8.501 -13.256 c 2.997 -1.507 5.504 6.01 11.716 7.995 c 6.267 1.984 24.522 -2.748 23.486 -5.775 c -0.981 -2.976 -6.975 -7.708 -5.449 -8.488 c 1.471 -0.727 8.501 5.03 12.751 3.487 c 4.25 -1.49 43.703 -0.971 48.5 -13.49 c 4.741 -12.465 21.47 -13.465 21.47 -13.465" transform="matrix(0.07168 0.00209 0 0.07413 2.575 1.132)" stroke-opacity="0.388" fill="none" stroke="#6c7f42" stroke-linejoin="round" stroke-linecap="round"/></g></g></g><g clip-path="url(#N)"><g clip-path="url(#E)"><g clip-path="url(#I)"><path d="m 77.53 233.49 c 13.46 -11.499 23.21 -25 28.499 -26.996 c 5.231 -1.992 12.751 -3.733 15.748 -7.981 c 2.997 -4.248 2.452 -10.767 5.231 -12 c 2.725 -1.236 3.76 5.743 8.719 5.972 c 5.01 0.28 36.782 -4.991 42.776 -11.748 c 5.994 -6.756 32.26 -12.505 32.477 -14.461 c 0.272 -2.01 -0.981 -4.768 0.272 -5.541 c 1.253 -0.72 24.74 -5.969 24.74 -5.969" transform="matrix(0.07168 0.00209 0 0.07413 2.575 1.132)" stroke-opacity="0.388" fill="none" stroke="#6c7f42" stroke-linejoin="round" stroke-linecap="round"/></g></g></g><g clip-path="url(#O)"><g clip-path="url(#E)"><g clip-path="url(#I)"><path d="m 57.745 19.99 l -8.501 28.28 l 17.982 6.237 l 7.792 36.25 l -21.03 22.253 l 8.991 10.496 l -11.988 11.51 l 0.49 4.518 l 20.271 24.458 l 14 -6.719 l 20.489 18.498 l -10.517 28.23 l 10.299 8.509 l -2.779 12.989" transform="matrix(0.07168 0.00209 0 0.07413 2.575 1.132)" fill="none" stroke="#d28484" stroke-linecap="round" stroke-width="2"/></g></g></g><g clip-path="url(#P)"><g clip-path="url(#E)"><g clip-path="url(#I)"><path d="m 105.75 212.24 l 12.479 -27.755 l 11.01 -7 l 27.519 15.769 l 20.489 -3.741 l -0.272 -15.749 l -10.245 -6.03 l 12.751 -26.23 l 5.776 -3.747 l 38.744 -10" transform="matrix(0.07168 0.00209 0 0.07413 2.575 1.132)" fill="none" stroke="#d28484" stroke-linecap="round" stroke-width="2"/></g></g></g><g clip-path="url(#Q)"><g clip-path="url(#E)"><use xlink:href="#b" mask="url(#S)"/><use xlink:href="#k" mask="url(#c)"/></g></g><path d="m 6.914 17.453 l -0.273 0.27 c -0.289 -0.313 -0.586 -0.633 -0.863 -0.953 l 0.258 -0.242 c 0.391 0.387 0.508 0.508 0.879 0.926" fill="url(#l)"/><path d="m 11.324 11.965 c -1.555 -1.609 -1.555 -4.219 0 -5.828 c 1.555 -1.605 4.078 -1.605 5.633 0 c 1.555 1.609 1.555 4.219 0 5.828 c -1.555 1.605 -4.078 1.605 -5.633 0 m 0.168 -0.176 c 1.496 1.543 3.859 1.602 5.352 0.059 c 1.496 -1.547 1.438 -3.992 -0.055 -5.535 c -1.492 -1.543 -3.859 -1.602 -5.352 -0.059 c -1.496 1.547 -1.438 3.992 0.055 5.535" fill="#2d3335"/><path d="m 11.324 11.965 c -1.555 -1.609 -1.555 -4.219 0 -5.828 c 0.008 -0.008 0.02 -0.02 0.027 -0.027 c -1.527 1.609 -1.516 4.195 0.027 5.797 c 1.547 1.598 4.051 1.605 5.605 0.027 c -0.008 0.012 -0.016 0.02 -0.027 0.031 c -1.555 1.605 -4.078 1.605 -5.633 0 m 0.141 -5.738 c 0.012 -0.012 0.02 -0.02 0.027 -0.031 c 1.496 -1.543 3.859 -1.484 5.352 0.059 c 1.496 1.547 1.551 3.992 0.059 5.535 l -0.031 0.027 c 1.465 -1.543 1.402 -3.969 -0.082 -5.504 c -1.484 -1.535 -3.828 -1.602 -5.324 -0.09" fill="#9daaab"/><path d="m 11.438 11.848 c 1.492 1.543 3.914 1.543 5.406 0 c 1.496 -1.547 1.496 -4.047 0 -5.594 c -1.492 -1.543 -3.914 -1.543 -5.406 0 c -1.492 1.543 -1.492 4.047 0 5.594" fill="#cfe8f2" fill-opacity="0.475"/><path d="m 11.438 11.848 c 1.492 1.543 3.914 1.543 5.406 0 c 1.496 -1.547 1.496 -4.047 0 -5.594 c -1.492 -1.543 -3.914 -1.543 -5.406 0 c -1.492 1.543 -1.492 4.047 0 5.594" fill="url(#m)"/><path d="m 10.809 10.816 l -0.328 0.242 c 0.188 0.367 0.43 0.711 0.73 1.02 c 0.301 0.313 0.633 0.563 0.988 0.758 l 0.234 -0.34 c -0.336 -0.18 -0.656 -0.414 -0.941 -0.707 c -0.281 -0.293 -0.512 -0.625 -0.684 -0.973" fill="url(#n)"/><path d="m 11.309 11.977 c 0.102 0.105 0.176 0.219 0.238 0.34 l -1.5 1.551 c -0.117 -0.063 -0.23 -0.141 -0.328 -0.242 c -0.098 -0.102 -0.176 -0.219 -0.238 -0.34 l 1.5 -1.551 c 0.121 0.063 0.23 0.141 0.328 0.242" fill="url(#o)"/><path d="m 10.82 13.418 l -3.781 3.91 c -0.227 -0.133 -0.332 -0.18 -0.531 -0.383 c -0.199 -0.207 -0.242 -0.316 -0.371 -0.551 l 3.781 -3.91 c 0.293 0.223 0.695 0.613 0.902 0.934" fill="url(#p)"/><path d="m 10.223 13.11 c 0.195 0.203 0.426 0.395 0.484 0.652 l -3.668 3.793 c -0.371 -0.305 -0.832 -0.758 -1.125 -1.164 l 3.668 -3.793 c 0.199 0.012 0.438 0.305 0.637 0.508" fill="url(#q)"/><path d="m 10.207 13.13 c 0.199 0.203 0.441 0.379 0.504 0.637 l -3.672 3.793 c -0.449 -0.41 -0.672 -0.629 -1.125 -1.164 l 3.668 -3.793 c 0.199 0.012 0.426 0.32 0.621 0.527" fill="url(#r)"/><path d="m 11.676 6.184 c 2.324 -1.902 4.469 -0.75 4.449 0.316 c -0.02 1.066 -3.238 4.164 -4.371 3.91 c -1.133 -0.25 -1.457 -3.156 -0.082 -4.227" fill="url(#s)"/><path d="m 16.727 11.633 c -1.531 1.301 -2.391 1.242 -2.18 0.777 c 0.215 -0.465 2.422 -2.465 2.945 -2.59 c 0.523 -0.121 0.129 1.07 -0.766 1.813" fill="url(#t)"/></svg>