<svg xmlns="http://www.w3.org/2000/svg" viewBox="0 0 24 24"><path d="m 21.273 19.715 c 5.855 -8.922 1.133 -17.05 -5.5 -18.977 c -8.918 -2.594 -21.03 4.223 -13.05 18.27 c 3.172 5.582 14.375 7.06 18.547 0.707" fill="#ff8c00"/><path d="m 164.17 182.08 c 0 -0.167 -2.25 -7.25 -4.958 -15.792 c -4.583 -14.458 -4.625 -15.583 -0.792 -16.875 c 3.5 -1.167 43.583 1.167 34.33 0.583 c -5.958 -0.375 -1.917 -19.417 -7.958 -19.792 c -7.333 -0.458 -64.833 15.458 -62.58 16.17 c 1.833 0.583 4.292 4.292 5.417 8.208 c 1.167 3.917 2.708 9.125 3.458 11.583 c 0.75 2.458 2.583 7.083 4.125 10.333 l -4.125 4.792 l 20 1.042 c 7.167 0.375 13.08 -0.125 13.08 -0.25" transform="scale(0.09375)" stroke-opacity="0.012" fill="#f4f4f4" fill-rule="evenodd" stroke="#ff4500" stroke-width="1.889"/><path d="m 13.629 17.13 c -0.176 -0.215 -0.086 -3.242 0.105 -3.605 c 0.121 -0.223 0.102 -0.238 -0.305 -0.238 c -0.648 0 -1.164 0.207 -1.07 0.434 c 0.09 0.211 0.715 2.676 0.715 2.813 c 0 0.141 -0.621 0.434 -0.926 0.434 c -0.32 0 -0.543 -0.305 -0.801 -1.094 c -0.102 -0.313 -0.25 -0.656 -0.328 -0.762 c -0.137 -0.188 -0.168 -0.184 -0.574 0.094 c -0.57 0.395 -2.68 1.227 -2.918 1.152 c -0.102 -0.035 -0.441 -0.324 -0.758 -0.645 l -0.57 -0.586 l -0.398 -2.191 c -0.219 -1.207 -0.398 -2.371 -0.398 -2.586 c 0 -0.215 -0.051 -0.422 -0.109 -0.461 c -0.063 -0.039 -0.113 -0.293 -0.113 -0.563 c 0 -0.574 -0.063 -0.547 1.613 -0.754 l 1.113 -0.137 v -0.555 c 0 -0.309 0.035 -0.613 0.078 -0.68 c 0.043 -0.066 0.43 -0.156 0.855 -0.195 c 1.074 -0.098 1.387 -0.23 1.305 -0.547 c -0.133 -0.539 0.008 -0.586 1.906 -0.574 c 0.965 0.004 1.844 0.039 1.949 0.078 c 0.164 0.063 0.188 0.266 0.188 1.555 c 0.004 0.812 0.039 1.535 0.086 1.605 c 0.043 0.066 0.555 0.363 1.137 0.652 c 1.148 0.578 3.777 2.305 3.934 2.586 c 0.125 0.227 -0.094 0.363 -0.586 0.367 c -0.438 0 -3.656 0.32 -3.902 0.387 c -0.094 0.023 0.25 0.035 0.758 0.027 c 0.699 -0.008 0.949 0.027 1.027 0.148 c 0.129 0.203 0.133 0.098 -0.105 1.934 c -0.148 1.156 -0.246 1.586 -0.387 1.688 c -0.102 0.074 -0.625 0.191 -1.164 0.262 c -1.227 0.156 -1.188 0.16 -1.355 -0.043" fill="#ebe595"/><path d="m 13.785 15.426 c 0.055 -1.109 0.125 -1.691 0.223 -1.789 c 0.188 -0.188 2.293 -0.398 2.449 -0.242 c 0.117 0.117 -0.211 3.223 -0.355 3.359 c -0.098 0.09 -1.547 0.316 -2.035 0.316 h -0.355 m -6.785 -1.363 c -0.645 -0.582 -0.648 -0.59 -0.813 -1.535 c -0.242 -1.379 -0.371 -2.102 -0.492 -2.73 c -0.059 -0.305 -0.137 -0.82 -0.176 -1.141 c -0.043 -0.324 -0.117 -0.586 -0.168 -0.586 c -0.055 0 -0.098 -0.191 -0.098 -0.426 v -0.422 l 1.195 -0.145 c 0.66 -0.074 1.27 -0.148 1.363 -0.16 c 0.125 -0.02 0.168 -0.176 0.168 -0.633 c 0 -0.336 0.039 -0.676 0.09 -0.75 c 0.051 -0.082 0.336 -0.145 0.664 -0.148 c 0.32 -0.008 0.828 -0.043 1.129 -0.086 c 0.539 -0.07 0.551 -0.082 0.559 -0.461 l 0.004 -0.391 h 3.668 l 0.031 1.586 l 0.031 1.59 l 1.191 0.602 c 1.121 0.563 3.598 2.156 3.758 2.418 c 0.039 0.063 0.051 0.137 0.023 0.164 c -0.027 0.027 -0.871 0.125 -1.875 0.219 c -1.484 0.137 -4.777 0.488 -6.105 0.652 c -0.25 0.031 -0.277 0.082 -0.273 0.523 c 0.004 0.27 0.043 0.621 0.09 0.777 c 0.082 0.27 0.039 0.309 -0.781 0.691 c -1.07 0.496 -2.258 0.973 -2.418 0.973 c -0.066 0 -0.41 -0.262 -0.766 -0.582 m 5.598 -6.641 c 0.23 -0.188 0.25 -0.289 0.238 -1.285 c -0.008 -0.598 -0.043 -1.133 -0.078 -1.191 c -0.121 -0.195 -0.516 -0.117 -0.578 0.117 c -0.039 0.156 -0.156 0.227 -0.406 0.234 c -0.234 0.008 -0.277 0.031 -0.125 0.066 c 0.445 0.109 0.5 0.25 0.5 1.273 c 0 0.543 0.043 0.988 0.098 0.988 c 0.055 0 0.215 -0.09 0.352 -0.203" fill="#ecde31"/><path d="m 13.781 16.895 c -0.098 -0.254 0.066 -2.945 0.191 -3.18 c 0.113 -0.211 0.559 -0.301 1.773 -0.348 l 0.723 -0.031 l -0.008 0.391 c -0.012 0.863 -0.293 2.852 -0.418 2.969 c -0.113 0.109 -1.555 0.375 -2.031 0.375 c -0.09 0 -0.195 -0.078 -0.23 -0.176 m -6.855 -1.188 c -0.645 -0.586 -0.648 -0.59 -0.813 -1.535 c -0.242 -1.379 -0.371 -2.102 -0.492 -2.73 c -0.059 -0.305 -0.137 -0.82 -0.176 -1.141 c -0.043 -0.324 -0.117 -0.586 -0.168 -0.586 c -0.055 0 -0.098 -0.191 -0.098 -0.426 v -0.422 l 1.195 -0.145 c 0.66 -0.074 1.273 -0.148 1.363 -0.16 c 0.125 -0.02 0.168 -0.176 0.168 -0.633 c 0 -0.336 0.039 -0.676 0.09 -0.75 c 0.051 -0.078 0.316 -0.141 0.609 -0.141 c 0.289 -0.004 0.848 -0.051 1.246 -0.113 c 0.73 -0.105 1.777 0.02 2.086 0.258 c 0.09 0.07 0.137 0.434 0.137 1.098 c 0 0.652 0.043 0.988 0.125 0.988 c 0.066 0 0.32 -0.109 0.559 -0.246 l 0.434 -0.242 l 1.66 0.863 c 0.914 0.473 2.211 1.238 2.883 1.695 c 1.176 0.801 1.426 1.01 1.32 1.113 c -0.027 0.027 -0.871 0.125 -1.875 0.219 c -1.484 0.137 -4.777 0.488 -6.105 0.652 c -0.25 0.031 -0.277 0.082 -0.273 0.523 c 0.004 0.27 0.047 0.621 0.09 0.777 c 0.082 0.27 0.039 0.309 -0.781 0.691 c -1.07 0.496 -2.258 0.973 -2.418 0.973 c -0.066 0 -0.41 -0.262 -0.766 -0.582" fill="#5bfa62"/><path d="m 13.781 16.895 c -0.098 -0.254 0.066 -2.945 0.191 -3.18 c 0.113 -0.211 0.559 -0.301 1.773 -0.348 l 0.723 -0.031 l -0.008 0.391 c -0.012 0.863 -0.293 2.852 -0.418 2.969 c -0.113 0.109 -1.555 0.375 -2.031 0.375 c -0.09 0 -0.195 -0.078 -0.23 -0.176 m -5.242 -2.246 c 0.211 -3.055 0.234 -4.141 0.09 -4.656 c -0.082 -0.285 -0.215 -0.547 -0.301 -0.582 c -0.086 -0.031 -0.469 -0.016 -0.848 0.039 l -0.688 0.098 l -0.098 0.52 c -0.086 0.43 -0.07 0.555 0.082 0.707 c 0.203 0.203 0.246 0.672 0.07 0.781 c -0.141 0.086 -0.141 0.84 0 1.059 c 0.063 0.09 0.117 0.117 0.129 0.055 c 0.016 -0.063 0.055 0.516 0.094 1.281 c 0.035 0.766 0.023 1.445 -0.027 1.504 c -0.063 0.074 -0.191 0.004 -0.352 -0.184 c -0.188 -0.211 -0.309 -0.594 -0.445 -1.391 c -0.102 -0.605 -0.23 -1.324 -0.285 -1.602 c -0.055 -0.273 -0.16 -0.852 -0.23 -1.281 c -0.199 -1.16 -0.324 -1.617 -0.441 -1.617 c -0.059 0 -0.109 -0.09 -0.109 -0.203 c 0 -0.18 0.164 -0.219 1.391 -0.328 c 1.477 -0.129 1.691 -0.188 1.52 -0.398 c -0.191 -0.23 -0.203 -1.203 -0.016 -1.301 c 0.09 -0.047 0.73 -0.137 1.422 -0.199 c 1.203 -0.105 2.02 -0.02 2.457 0.25 c 0.074 0.047 0.121 0.477 0.121 1.074 c 0 0.656 0.043 0.996 0.125 0.996 c 0.07 0 0.32 -0.109 0.559 -0.246 l 0.434 -0.242 l 1.66 0.863 c 0.914 0.473 2.211 1.238 2.887 1.695 c 1.176 0.801 1.422 1.01 1.316 1.113 c -0.027 0.027 -0.871 0.125 -1.875 0.219 c -1.48 0.137 -4.777 0.488 -6.105 0.652 c -0.25 0.031 -0.277 0.082 -0.27 0.523 c 0 0.273 0.043 0.621 0.09 0.777 c 0.07 0.242 0.035 0.309 -0.207 0.418 c -0.371 0.172 -0.391 0.168 -0.391 -0.047 c 0 -0.148 -0.031 -0.145 -0.195 0.039 c -0.184 0.207 -1.25 0.699 -1.516 0.699 c -0.09 0 -0.102 -0.316 -0.047 -1.086 m 1.613 -1 c -0.023 -0.168 -0.047 -0.055 -0.047 0.25 c 0 0.305 0.02 0.445 0.047 0.309 c 0.027 -0.137 0.027 -0.387 0 -0.559 m -0.113 -1.164 c -0.035 -0.09 -0.063 -0.063 -0.066 0.066 c -0.004 0.117 0.02 0.184 0.059 0.148 c 0.035 -0.039 0.039 -0.133 0.008 -0.215 m -0.109 -1.121 c -0.027 -0.137 -0.047 -0.051 -0.051 0.195 c 0 0.246 0.02 0.359 0.051 0.25 c 0.027 -0.105 0.027 -0.305 0 -0.445 m -0.223 -2.223 c -0.039 -0.09 -0.063 -0.063 -0.07 0.066 c -0.004 0.117 0.023 0.184 0.059 0.148 c 0.039 -0.039 0.043 -0.133 0.012 -0.215" fill="#ca6e0c"/><path d="m 8.539 14.648 c 0.211 -3.055 0.234 -4.141 0.09 -4.656 c -0.082 -0.285 -0.215 -0.547 -0.301 -0.582 c -0.086 -0.031 -0.469 -0.016 -0.848 0.039 l -0.688 0.098 l -0.098 0.52 c -0.086 0.43 -0.07 0.555 0.082 0.707 c 0.203 0.203 0.246 0.672 0.07 0.781 c -0.141 0.086 -0.141 0.84 0 1.059 c 0.063 0.09 0.117 0.117 0.129 0.055 c 0.016 -0.063 0.055 0.516 0.094 1.281 c 0.035 0.766 0.023 1.445 -0.027 1.504 c -0.063 0.074 -0.191 0.004 -0.352 -0.184 c -0.188 -0.211 -0.309 -0.594 -0.445 -1.391 c -0.102 -0.605 -0.23 -1.324 -0.285 -1.602 c -0.055 -0.273 -0.16 -0.852 -0.23 -1.281 c -0.199 -1.16 -0.324 -1.617 -0.441 -1.617 c -0.059 0 -0.109 -0.09 -0.109 -0.203 c 0 -0.18 0.164 -0.219 1.391 -0.328 c 1.473 -0.129 1.687 -0.188 1.523 -0.398 c -0.055 -0.07 -0.133 -0.359 -0.168 -0.645 c -0.102 -0.766 -0.031 -0.793 1.957 -0.805 c 2.242 -0.008 2.191 -0.039 2.191 1.34 c 0 1.191 -0.027 1.168 0.863 0.805 c 0.352 -0.145 0.422 -0.121 1.781 0.551 c 1.352 0.668 4.141 2.422 4.141 2.605 c 0 0.125 -0.352 0.184 -1.891 0.32 c -0.766 0.066 -1.816 0.16 -2.336 0.211 c -0.52 0.055 -1.605 0.156 -2.41 0.234 l -1.465 0.141 l 0.035 0.621 c 0.02 0.344 0.07 0.727 0.109 0.852 c 0.059 0.18 0.012 0.262 -0.215 0.363 c -0.371 0.172 -0.391 0.168 -0.391 -0.047 c 0 -0.148 -0.031 -0.145 -0.195 0.039 c -0.184 0.207 -1.25 0.699 -1.516 0.699 c -0.086 0 -0.102 -0.316 -0.047 -1.086 m 1.613 -1 c -0.023 -0.168 -0.047 -0.055 -0.047 0.25 c 0 0.305 0.02 0.445 0.047 0.309 c 0.027 -0.137 0.027 -0.387 0 -0.559 m -0.113 -1.164 c -0.035 -0.09 -0.063 -0.063 -0.066 0.066 c -0.004 0.117 0.02 0.184 0.059 0.148 c 0.035 -0.039 0.039 -0.133 0.008 -0.215 m -0.082 -1.688 c -0.063 -0.266 -0.082 -0.16 -0.082 0.426 c 0.004 0.652 0.016 0.711 0.086 0.352 c 0.043 -0.234 0.043 -0.586 -0.004 -0.777 m -0.25 -1.656 c -0.039 -0.09 -0.063 -0.063 -0.07 0.066 c -0.004 0.117 0.023 0.184 0.059 0.148 c 0.039 -0.039 0.043 -0.137 0.012 -0.215" fill="#262ee4"/><path d="m 8.539 14.648 c 0.211 -3.055 0.234 -4.141 0.09 -4.656 c -0.082 -0.285 -0.215 -0.547 -0.301 -0.582 c -0.086 -0.031 -0.469 -0.016 -0.848 0.039 l -0.688 0.098 l -0.098 0.52 c -0.086 0.43 -0.07 0.555 0.082 0.707 c 0.203 0.203 0.246 0.672 0.07 0.781 c -0.141 0.086 -0.141 0.84 0 1.059 c 0.063 0.09 0.117 0.117 0.129 0.055 c 0.016 -0.063 0.055 0.516 0.094 1.281 c 0.035 0.766 0.023 1.445 -0.027 1.504 c -0.063 0.074 -0.191 0.301 -0.352 0.113 c -0.188 -0.215 -0.406 -0.297 -0.543 -1.098 c -0.105 -0.602 -0.332 -1.52 -0.387 -1.797 c -0.055 -0.273 -0.211 -1 -0.281 -1.43 c -0.199 -1.16 -0.074 -1.863 -0.191 -1.863 c -0.059 0 -0.109 -0.09 -0.109 -0.203 c 0 -0.18 0.172 -0.223 1.418 -0.348 c 1.684 -0.172 1.961 -0.176 2.555 -0.012 c 0.531 0.141 0.551 0.211 0.703 2.18 c 0.055 0.676 0.148 1.852 0.211 2.617 c 0.09 1.086 0.086 1.418 -0.02 1.512 c -0.16 0.145 -1.277 0.609 -1.461 0.609 c -0.09 0 -0.102 -0.316 -0.047 -1.09 m 1.875 -2.406 c -0.199 -0.512 -0.367 -1.094 -0.379 -1.293 c -0.016 -0.344 0.027 -0.383 1.043 -0.934 c 1.051 -0.57 1.617 -0.828 2.063 -0.93 c 0.34 -0.078 2.734 1.145 4.355 2.223 c 0.75 0.5 1.363 0.949 1.363 0.996 c 0 0.125 -0.352 0.184 -1.836 0.313 c -1.723 0.148 -3.305 0.301 -4.559 0.441 c -1.777 0.199 -1.637 0.254 -2.051 -0.816" fill="#0fec18"/><path d="m 10.414 12.238 c -0.199 -0.512 -0.367 -1.094 -0.379 -1.289 c -0.016 -0.348 0.027 -0.387 1.043 -0.938 c 1.051 -0.57 1.617 -0.828 2.063 -0.93 c 0.34 -0.078 2.734 1.145 4.355 2.227 c 0.75 0.496 1.363 0.945 1.363 0.992 c 0 0.125 -0.352 0.188 -1.836 0.313 c -1.727 0.148 -3.305 0.305 -4.559 0.441 c -1.777 0.199 -1.637 0.254 -2.051 -0.816" fill="#d90f10"/><path d="m 172.38 179.17 c 0 -0.208 1.5 -8.667 3.333 -18.875 c 3.125 -17.25 3.167 -18.625 0.583 -20.12 c -2.375 -1.417 -1.75 -1.75 4.542 -2.458 c 4 -0.417 10.625 -1.167 14.75 -1.625 c 4.958 -0.542 6.708 -0.417 5.167 0.458 c -1.208 0.708 -2.875 5.083 -3.667 9.75 c -0.792 4.667 -1.833 10.917 -2.333 13.833 c -0.5 2.958 -1.75 8.5 -2.792 12.333 l -1.875 7 h -8.875 c -4.833 0 -8.833 -0.125 -8.833 -0.333" transform="scale(0.09375)" stroke-opacity="0.012" fill="#f4f4f4" fill-rule="evenodd" stroke="#ff4500" stroke-width="1.698"/></svg>