<svg xmlns="http://www.w3.org/2000/svg" viewBox="0 0 24 24"><path d="m 4.121 19.902 c -12.176 -9.754 5.652 -27.355 16.426 -16.11 c 10.801 9.676 -6.05 28.461 -16.426 16.11" fill="#006300"/><g fill="#fff" fill-rule="evenodd"><path d="m 10.11 19.625 c -0.055 -0.102 -0.168 -0.164 -0.305 -0.164 c -0.141 0 -0.246 -0.055 -0.293 -0.156 c -0.043 -0.086 -0.141 -0.184 -0.223 -0.211 c -0.078 -0.027 -0.145 -0.121 -0.145 -0.211 c 0 -0.086 -0.047 -0.156 -0.102 -0.156 c -0.07 0 -0.109 -0.18 -0.137 -0.656 c -0.023 -0.363 -0.082 -0.711 -0.129 -0.777 c -0.047 -0.063 -0.129 -0.641 -0.18 -1.285 c -0.051 -0.641 -0.133 -1.277 -0.18 -1.41 c -0.047 -0.133 -0.105 -0.688 -0.129 -1.227 c -0.023 -0.543 -0.086 -1.109 -0.141 -1.262 c -0.059 -0.152 -0.125 -0.531 -0.148 -0.844 c -0.043 -0.484 -0.027 -0.594 0.098 -0.785 c 0.285 -0.434 0.293 -1.516 0.012 -1.613 c -0.098 -0.035 -0.137 -0.129 -0.137 -0.332 c 0 -0.227 -0.035 -0.301 -0.18 -0.359 c -0.102 -0.043 -0.184 -0.141 -0.184 -0.211 c 0 -0.074 -0.066 -0.227 -0.148 -0.34 c -0.078 -0.117 -0.145 -0.27 -0.145 -0.344 c 0 -0.07 -0.066 -0.176 -0.145 -0.234 c -0.102 -0.066 -0.148 -0.191 -0.148 -0.375 c 0 -0.152 -0.066 -0.371 -0.145 -0.484 c -0.188 -0.262 -0.219 -1.203 -0.039 -1.203 c 0.059 0 0.141 0.074 0.184 0.164 c 0.043 0.09 0.129 0.164 0.191 0.164 c 0.141 0 1.418 1.43 1.418 1.59 c 0 0.066 0.066 0.16 0.145 0.207 c 0.082 0.051 0.148 0.141 0.148 0.207 c 0 0.063 0.066 0.156 0.145 0.203 c 0.082 0.047 0.148 0.141 0.148 0.203 c 0 0.066 0.066 0.156 0.145 0.207 c 0.082 0.047 0.148 0.125 0.148 0.172 c 0 0.047 0.105 0.227 0.234 0.402 c 0.207 0.277 0.281 0.32 0.539 0.324 c 0.168 0 0.43 -0.063 0.586 -0.141 c 0.398 -0.195 1.973 -0.195 2.43 0.004 c 0.488 0.207 0.773 0.18 0.93 -0.09 c 0.07 -0.121 0.176 -0.273 0.227 -0.332 c 0.055 -0.059 0.098 -0.215 0.098 -0.344 c 0 -0.152 0.051 -0.27 0.145 -0.324 c 0.098 -0.059 0.148 -0.172 0.148 -0.332 c 0 -0.141 0.059 -0.301 0.145 -0.383 c 0.082 -0.078 0.148 -0.215 0.148 -0.305 c 0 -0.098 0.246 -0.449 0.594 -0.844 c 0.324 -0.371 0.598 -0.672 0.602 -0.672 c 0.039 0 -0.051 0.977 -0.102 1.102 c -0.055 0.137 -0.219 1.266 -0.219 1.52 c 0 0.043 -0.047 0.078 -0.102 0.078 c -0.121 0 -0.191 0.176 -0.191 0.488 c 0 0.16 -0.043 0.242 -0.145 0.27 c -0.125 0.039 -0.148 0.113 -0.148 0.535 c 0 0.398 0.027 0.504 0.129 0.543 c 0.07 0.027 0.223 0.273 0.336 0.547 c 0.199 0.48 0.203 0.52 0.152 1.406 c -0.027 0.504 -0.094 1.012 -0.148 1.129 c -0.055 0.125 -0.117 0.672 -0.148 1.309 c -0.031 0.734 -0.086 1.152 -0.156 1.277 c -0.07 0.125 -0.117 0.512 -0.141 1.227 c -0.023 0.68 -0.082 1.215 -0.172 1.535 c -0.074 0.27 -0.152 0.594 -0.176 0.723 c -0.031 0.16 -0.117 0.262 -0.289 0.344 c -0.137 0.063 -0.266 0.168 -0.289 0.238 c -0.023 0.074 -0.133 0.125 -0.262 0.125 c -0.145 0 -0.246 0.059 -0.297 0.164 c -0.074 0.156 -0.152 0.164 -1.922 0.164 c -1.766 0 -1.848 -0.008 -1.934 -0.164 m 3.672 -0.328 c 0.121 -0.086 0.273 -0.16 0.336 -0.16 c 0.195 -0.004 0.727 -0.512 0.727 -0.703 c 0 -0.094 0.059 -0.371 0.133 -0.613 c 0.082 -0.273 0.152 -0.809 0.18 -1.391 c 0.023 -0.52 0.082 -1.055 0.129 -1.184 c 0.047 -0.133 0.129 -0.785 0.184 -1.449 c 0.055 -0.664 0.137 -1.281 0.18 -1.375 c 0.043 -0.09 0.098 -0.547 0.121 -1.012 c 0.043 -0.836 0.043 -0.848 -0.148 -1.031 c -0.105 -0.105 -0.195 -0.242 -0.195 -0.305 c 0 -0.078 -0.078 -0.105 -0.273 -0.086 c -0.258 0.023 -0.273 0.043 -0.297 0.332 c -0.016 0.191 -0.07 0.336 -0.152 0.387 c -0.09 0.051 -0.148 0.215 -0.184 0.48 c -0.027 0.242 -0.09 0.426 -0.152 0.453 c -0.059 0.023 -0.129 0.191 -0.152 0.371 c -0.031 0.219 -0.094 0.344 -0.188 0.379 c -0.102 0.035 -0.137 0.125 -0.137 0.359 c 0 0.242 -0.031 0.32 -0.145 0.355 c -0.09 0.027 -0.148 0.113 -0.148 0.219 c 0 0.137 -0.035 0.172 -0.164 0.152 c -0.125 -0.02 -0.168 -0.09 -0.188 -0.293 c -0.012 -0.16 -0.078 -0.301 -0.164 -0.352 c -0.121 -0.07 -0.141 -0.172 -0.141 -0.691 c 0 -0.492 0.027 -0.633 0.141 -0.754 c 0.078 -0.078 0.16 -0.281 0.188 -0.445 c 0.031 -0.168 0.094 -0.32 0.148 -0.344 c 0.055 -0.023 0.133 -0.246 0.18 -0.496 c 0.047 -0.25 0.137 -0.484 0.199 -0.523 c 0.059 -0.039 0.098 -0.141 0.082 -0.227 c -0.02 -0.133 -0.102 -0.16 -0.57 -0.18 c -0.387 -0.016 -0.566 -0.059 -0.605 -0.145 c -0.094 -0.18 -1.211 -0.168 -1.273 0.016 c -0.035 0.105 -0.117 0.121 -0.453 0.082 c -0.52 -0.063 -0.613 -0.004 -0.523 0.34 c 0.035 0.145 0.117 0.32 0.18 0.391 c 0.063 0.07 0.117 0.203 0.117 0.289 c 0 0.09 0.047 0.18 0.102 0.207 c 0.059 0.023 0.145 0.152 0.191 0.285 c 0.051 0.133 0.152 0.277 0.227 0.324 c 0.074 0.043 0.137 0.133 0.137 0.199 c 0 0.063 0.082 0.25 0.184 0.414 c 0.102 0.168 0.184 0.348 0.184 0.406 c 0 0.055 0.047 0.125 0.109 0.148 c 0.059 0.027 0.109 0.102 0.109 0.168 c 0 0.063 0.074 0.223 0.164 0.352 c 0.223 0.313 0.328 0.504 0.465 0.844 c 0.066 0.156 0.164 0.313 0.219 0.352 c 0.055 0.035 0.102 0.121 0.102 0.191 c 0 0.066 0.07 0.188 0.156 0.266 c 0.113 0.102 0.164 0.262 0.191 0.586 c 0.023 0.285 0.086 0.496 0.176 0.59 c 0.078 0.086 0.137 0.258 0.137 0.422 c 0 0.184 0.047 0.309 0.152 0.383 c 0.105 0.082 0.145 0.184 0.125 0.348 l -0.023 0.23 l -0.449 -0.457 c -0.25 -0.254 -0.508 -0.457 -0.574 -0.457 c -0.066 0 -0.141 -0.074 -0.16 -0.164 c -0.023 -0.09 -0.102 -0.164 -0.176 -0.164 c -0.094 0 -0.141 -0.059 -0.141 -0.172 c 0 -0.102 -0.059 -0.188 -0.145 -0.215 c -0.082 -0.023 -0.145 -0.105 -0.145 -0.184 c 0 -0.137 -0.117 -0.316 -0.531 -0.824 c -0.109 -0.137 -0.203 -0.281 -0.203 -0.328 c 0 -0.043 -0.047 -0.078 -0.109 -0.078 c -0.059 0 -0.109 -0.055 -0.109 -0.117 c 0 -0.066 -0.066 -0.16 -0.145 -0.207 c -0.082 -0.051 -0.148 -0.148 -0.148 -0.219 c 0 -0.07 -0.098 -0.254 -0.219 -0.41 c -0.121 -0.152 -0.219 -0.313 -0.219 -0.355 c 0 -0.047 -0.043 -0.082 -0.098 -0.082 c -0.055 0 -0.137 -0.09 -0.18 -0.203 c -0.047 -0.113 -0.117 -0.203 -0.16 -0.203 c -0.039 0 -0.074 -0.078 -0.074 -0.168 c 0 -0.094 -0.074 -0.25 -0.168 -0.348 c -0.094 -0.102 -0.191 -0.246 -0.219 -0.324 c -0.023 -0.078 -0.082 -0.145 -0.125 -0.145 c -0.043 0 -0.109 -0.094 -0.148 -0.211 c -0.039 -0.117 -0.137 -0.23 -0.219 -0.254 c -0.078 -0.023 -0.145 -0.094 -0.145 -0.156 c 0 -0.156 -0.215 -0.145 -0.379 0.023 c -0.168 0.172 -0.184 1.016 -0.023 1.445 c 0.063 0.168 0.129 0.695 0.152 1.258 c 0.023 0.543 0.094 1.105 0.156 1.289 c 0.063 0.191 0.125 0.738 0.148 1.309 c 0.023 0.57 0.082 1.105 0.145 1.27 c 0.055 0.156 0.121 0.543 0.145 0.859 c 0.039 0.547 0.055 0.586 0.363 0.918 c 0.18 0.191 0.383 0.348 0.449 0.348 c 0.07 0 0.191 0.051 0.273 0.113 c 0.23 0.184 0.359 0.195 1.859 0.207 c 1.309 0.008 1.445 -0.008 1.645 -0.156"/><path d="m 10.285 19.625 c -0.059 -0.102 -0.172 -0.164 -0.309 -0.164 c -0.137 0 -0.242 -0.055 -0.293 -0.156 c -0.039 -0.086 -0.141 -0.184 -0.219 -0.211 c -0.082 -0.027 -0.148 -0.121 -0.148 -0.211 c 0 -0.086 -0.043 -0.156 -0.098 -0.156 c -0.074 0 -0.109 -0.18 -0.141 -0.656 c -0.023 -0.363 -0.078 -0.711 -0.129 -0.777 c -0.047 -0.063 -0.129 -0.641 -0.18 -1.285 c -0.051 -0.641 -0.133 -1.277 -0.18 -1.41 c -0.047 -0.133 -0.105 -0.688 -0.129 -1.227 c -0.023 -0.543 -0.086 -1.109 -0.141 -1.262 c -0.055 -0.152 -0.121 -0.531 -0.148 -0.844 c -0.039 -0.484 -0.027 -0.594 0.098 -0.785 c 0.285 -0.434 0.297 -1.516 0.016 -1.613 c -0.102 -0.035 -0.137 -0.129 -0.137 -0.332 c 0 -0.227 -0.039 -0.301 -0.184 -0.359 c -0.102 -0.043 -0.184 -0.141 -0.184 -0.211 c 0 -0.074 -0.066 -0.227 -0.145 -0.34 c -0.082 -0.117 -0.148 -0.27 -0.148 -0.344 c 0 -0.07 -0.063 -0.176 -0.145 -0.234 c -0.098 -0.066 -0.145 -0.191 -0.145 -0.375 c 0 -0.152 -0.066 -0.371 -0.148 -0.484 c -0.184 -0.262 -0.215 -1.203 -0.039 -1.203 c 0.059 0 0.145 0.074 0.188 0.164 c 0.043 0.09 0.125 0.164 0.188 0.164 c 0.141 0 1.418 1.43 1.418 1.59 c 0 0.066 0.066 0.16 0.148 0.207 c 0.078 0.051 0.145 0.141 0.145 0.207 c 0 0.063 0.066 0.156 0.148 0.203 c 0.078 0.047 0.145 0.141 0.145 0.203 c 0 0.066 0.066 0.156 0.145 0.207 c 0.082 0.047 0.148 0.125 0.148 0.172 c 0 0.047 0.105 0.227 0.238 0.402 c 0.203 0.277 0.277 0.32 0.539 0.324 c 0.164 0 0.43 -0.063 0.582 -0.141 c 0.398 -0.195 1.973 -0.195 2.434 0.004 c 0.484 0.207 0.77 0.18 0.926 -0.09 c 0.074 -0.121 0.176 -0.273 0.227 -0.332 c 0.055 -0.059 0.098 -0.215 0.098 -0.344 c 0 -0.152 0.051 -0.27 0.148 -0.324 c 0.094 -0.059 0.145 -0.172 0.145 -0.332 c 0 -0.141 0.063 -0.301 0.145 -0.383 c 0.082 -0.078 0.148 -0.215 0.148 -0.305 c 0 -0.098 0.25 -0.449 0.594 -0.844 c 0.328 -0.371 0.598 -0.672 0.602 -0.672 c 0.043 0 -0.047 0.977 -0.102 1.102 c -0.055 0.137 -0.219 1.266 -0.219 1.52 c 0 0.043 -0.043 0.078 -0.102 0.078 c -0.121 0 -0.187 0.176 -0.187 0.488 c 0 0.16 -0.047 0.242 -0.148 0.27 c -0.125 0.039 -0.145 0.113 -0.145 0.535 c 0 0.398 0.023 0.504 0.125 0.543 c 0.07 0.027 0.223 0.273 0.336 0.547 c 0.203 0.48 0.207 0.52 0.156 1.406 c -0.027 0.504 -0.098 1.012 -0.148 1.129 c -0.059 0.125 -0.121 0.672 -0.148 1.309 c -0.035 0.734 -0.086 1.152 -0.156 1.277 c -0.074 0.125 -0.117 0.512 -0.145 1.227 c -0.023 0.68 -0.082 1.215 -0.168 1.535 c -0.074 0.27 -0.156 0.594 -0.18 0.723 c -0.031 0.16 -0.117 0.262 -0.289 0.344 c -0.133 0.063 -0.262 0.168 -0.285 0.238 c -0.027 0.074 -0.133 0.125 -0.262 0.125 c -0.145 0 -0.246 0.059 -0.301 0.164 c -0.074 0.156 -0.152 0.164 -1.922 0.164 c -1.762 0 -1.848 -0.008 -1.934 -0.164 m 3.676 -0.328 c 0.117 -0.086 0.27 -0.16 0.332 -0.16 c 0.199 -0.004 0.727 -0.512 0.727 -0.703 c 0 -0.094 0.059 -0.371 0.137 -0.613 c 0.082 -0.273 0.148 -0.809 0.176 -1.391 c 0.027 -0.52 0.082 -1.055 0.129 -1.184 c 0.047 -0.133 0.129 -0.785 0.184 -1.449 c 0.055 -0.664 0.137 -1.281 0.18 -1.375 c 0.047 -0.09 0.102 -0.547 0.125 -1.012 c 0.043 -0.836 0.039 -0.848 -0.152 -1.031 c -0.105 -0.105 -0.191 -0.242 -0.191 -0.305 c 0 -0.078 -0.082 -0.105 -0.277 -0.086 c -0.258 0.023 -0.273 0.043 -0.297 0.332 c -0.012 0.191 -0.07 0.336 -0.152 0.387 c -0.086 0.051 -0.148 0.215 -0.18 0.48 c -0.027 0.242 -0.094 0.426 -0.156 0.453 c -0.059 0.023 -0.125 0.191 -0.152 0.371 c -0.031 0.219 -0.094 0.344 -0.184 0.379 c -0.102 0.035 -0.137 0.125 -0.137 0.359 c 0 0.242 -0.035 0.32 -0.148 0.355 c -0.09 0.027 -0.145 0.113 -0.145 0.219 c 0 0.137 -0.039 0.172 -0.164 0.152 c -0.129 -0.02 -0.172 -0.09 -0.188 -0.293 c -0.016 -0.16 -0.078 -0.301 -0.164 -0.352 c -0.121 -0.07 -0.145 -0.172 -0.145 -0.691 c 0 -0.492 0.027 -0.633 0.141 -0.754 c 0.078 -0.078 0.164 -0.281 0.191 -0.445 c 0.027 -0.168 0.094 -0.32 0.145 -0.344 c 0.055 -0.023 0.137 -0.246 0.184 -0.496 c 0.043 -0.25 0.133 -0.484 0.195 -0.523 c 0.063 -0.039 0.102 -0.141 0.086 -0.227 c -0.023 -0.133 -0.105 -0.16 -0.574 -0.18 c -0.383 -0.016 -0.563 -0.059 -0.605 -0.145 c -0.09 -0.18 -1.211 -0.168 -1.273 0.016 c -0.035 0.105 -0.117 0.121 -0.453 0.082 c -0.52 -0.063 -0.609 -0.004 -0.523 0.34 c 0.039 0.145 0.121 0.32 0.184 0.391 c 0.063 0.07 0.113 0.203 0.113 0.289 c 0 0.09 0.047 0.18 0.102 0.207 c 0.059 0.023 0.145 0.152 0.195 0.285 c 0.047 0.133 0.148 0.277 0.227 0.324 c 0.074 0.043 0.133 0.133 0.133 0.199 c 0 0.063 0.086 0.25 0.184 0.414 c 0.102 0.168 0.184 0.348 0.184 0.406 c 0 0.055 0.051 0.125 0.109 0.148 c 0.063 0.027 0.109 0.102 0.109 0.168 c 0 0.063 0.074 0.223 0.164 0.352 c 0.227 0.313 0.332 0.504 0.469 0.844 c 0.063 0.156 0.16 0.313 0.215 0.352 c 0.059 0.035 0.102 0.121 0.102 0.191 c 0 0.066 0.07 0.188 0.156 0.266 c 0.113 0.102 0.168 0.262 0.195 0.586 c 0.023 0.285 0.082 0.496 0.172 0.59 c 0.078 0.086 0.137 0.258 0.137 0.422 c 0 0.184 0.047 0.309 0.152 0.383 c 0.109 0.082 0.145 0.184 0.129 0.348 l -0.027 0.23 l -0.449 -0.457 c -0.246 -0.254 -0.504 -0.457 -0.574 -0.457 c -0.066 0 -0.141 -0.074 -0.16 -0.164 c -0.02 -0.09 -0.098 -0.164 -0.176 -0.164 c -0.09 0 -0.137 -0.059 -0.137 -0.172 c 0 -0.102 -0.059 -0.188 -0.148 -0.215 c -0.078 -0.023 -0.145 -0.105 -0.145 -0.184 c 0 -0.137 -0.117 -0.316 -0.531 -0.824 c -0.109 -0.137 -0.199 -0.281 -0.199 -0.328 c 0 -0.043 -0.051 -0.078 -0.109 -0.078 c -0.063 0 -0.109 -0.055 -0.109 -0.117 c 0 -0.066 -0.066 -0.16 -0.148 -0.207 c -0.078 -0.051 -0.145 -0.148 -0.145 -0.219 c 0 -0.07 -0.098 -0.254 -0.219 -0.41 c -0.121 -0.152 -0.219 -0.313 -0.219 -0.355 c 0 -0.047 -0.047 -0.082 -0.102 -0.082 c -0.051 0 -0.133 -0.09 -0.18 -0.203 c -0.047 -0.113 -0.117 -0.203 -0.156 -0.203 c -0.043 0 -0.074 -0.078 -0.074 -0.168 c 0 -0.094 -0.078 -0.25 -0.172 -0.348 c -0.094 -0.102 -0.191 -0.246 -0.215 -0.324 c -0.027 -0.078 -0.082 -0.145 -0.125 -0.145 c -0.043 0 -0.109 -0.094 -0.152 -0.211 c -0.039 -0.117 -0.137 -0.23 -0.215 -0.254 c -0.082 -0.023 -0.145 -0.094 -0.145 -0.156 c 0 -0.156 -0.219 -0.145 -0.379 0.023 c -0.172 0.172 -0.184 1.016 -0.023 1.445 c 0.063 0.168 0.125 0.695 0.152 1.258 c 0.023 0.543 0.09 1.105 0.152 1.289 c 0.066 0.191 0.125 0.738 0.148 1.309 c 0.023 0.57 0.082 1.105 0.145 1.27 c 0.059 0.156 0.125 0.543 0.148 0.859 c 0.039 0.547 0.055 0.586 0.363 0.918 c 0.176 0.191 0.379 0.348 0.449 0.348 c 0.07 0 0.191 0.051 0.27 0.113 c 0.23 0.184 0.359 0.195 1.863 0.207 c 1.309 0.008 1.441 -0.008 1.645 -0.156"/></g></svg>