<svg xmlns="http://www.w3.org/2000/svg" viewBox="0 0 24 24"><path d="m 19.719 2.891 c -8.977 -5.836 -17.16 -1.129 -19.1 5.48 c -2.609 8.891 4.25 20.961 18.387 13.01 c 5.617 -3.16 7.105 -14.328 0.711 -18.488" fill="#00bfff"/><path d="m 13.418 5.04 l -2.633 0.695 v 1.047 h -1.316 c -2.105 0 -2.105 1.738 -2.105 1.738 v 1.742 h 3.422 c 0 -0.578 0.223 -1.047 0.66 -1.047 c 0.434 0 0.656 0.469 0.656 1.047 h 0.027 l -4.719 4.176 h -0.047 v 2.781 h 3.422 v 1.742 l 2.633 -0.695 v -1.047 h 3.422 v -2.781 h -4.707 l 3.664 -3.34 c 0.516 -0.488 1.043 -0.836 1.043 -2.23 c 0 0 0 -2.086 -2.895 -2.086 h -0.527" fill="#2096fb"/><path d="m 13.418 5.04 l -2.633 0.695 v 0.352 l 2.633 -0.699 m -3.949 1.395 c -2.105 0 -2.105 1.738 -2.105 1.738 v 0.348 c 0 0 0 -1.738 2.105 -1.738 h 1.316 v -0.348 m 2.633 0 v 0.348 h 0.527 c 2.48 0 2.832 1.527 2.883 1.965 c 0.004 -0.074 0.012 -0.145 0.012 -0.227 c 0 0 0 -2.086 -2.895 -2.086 m -1.867 3.523 l -4.668 4.133 h -0.047 v 0.348 h 0.047 l 4.719 -4.176 h -0.027 c 0 -0.105 -0.012 -0.207 -0.027 -0.305 m 0.441 4.133 l -0.383 0.348 h 4.707 v -0.348" fill="#fff" fill-opacity="0.2"/><path d="m 16.828 8.746 c -0.055 1.195 -0.547 1.543 -1.031 2 l -3.664 3.336 h 0.383 l 3.281 -2.988 c 0.516 -0.488 1.043 -0.836 1.043 -2.23 c 0 0 -0.004 -0.051 -0.012 -0.121 m -5.383 0.121 c -0.438 0 -0.66 0.469 -0.66 1.043 h -3.422 v 0.352 h 3.422 c 0 -0.578 0.223 -1.047 0.66 -1.047 c 0.355 0 0.566 0.316 0.633 0.742 l 0.051 -0.047 h -0.027 c 0 -0.574 -0.223 -1.043 -0.66 -1.043 m -4.078 8 v 0.348 h 3.422 v -0.348 m 2.633 0 v 0.348 h 3.422 v -0.348 m -3.422 1.043 l -2.633 0.699 v 0.348 l 2.633 -0.695" fill-opacity="0.302"/></svg>