<svg xmlns="http://www.w3.org/2000/svg" xmlns:xlink="http://www.w3.org/1999/xlink" viewBox="0 0 24 24"><defs><g id="J" clip-path="url(#I)"><path d="m 14.484 16.789 l -0.129 -0.043 c -0.031 -0.008 -0.051 0.008 -0.047 0.035 c 0.004 0.027 0.027 0.059 0.059 0.066 l 0.129 0.043 c 0.031 0.008 0.051 -0.008 0.047 -0.035 c 0 -0.027 -0.027 -0.059 -0.059 -0.066" fill="url(#H)"/></g><g id="N" clip-path="url(#M)"><path d="m 14.484 16.789 l -0.129 -0.043 c -0.031 -0.008 -0.051 0.008 -0.047 0.035 c 0.004 0.027 0.027 0.059 0.059 0.066 l 0.129 0.043 c 0.031 0.008 0.051 -0.008 0.047 -0.035 c 0 -0.027 -0.027 -0.059 -0.059 -0.066" fill="url(#L)"/></g><g id="R" clip-path="url(#Q)"><path d="m 14.227 16.707 l -0.129 -0.043 c -0.031 -0.008 -0.051 0.008 -0.047 0.035 c 0 0.027 0.027 0.059 0.059 0.066 l 0.129 0.043 c 0.031 0.008 0.051 -0.008 0.047 -0.035 c -0.004 -0.027 -0.027 -0.059 -0.059 -0.066" fill="url(#P)"/></g><g id="V" clip-path="url(#U)"><path d="m 14.227 16.707 l -0.129 -0.043 c -0.031 -0.008 -0.051 0.008 -0.047 0.035 c 0 0.027 0.027 0.059 0.059 0.066 l 0.129 0.043 c 0.031 0.008 0.051 -0.008 0.047 -0.035 c -0.004 -0.027 -0.027 -0.059 -0.059 -0.066" fill="url(#T)"/></g><g id="Z" clip-path="url(#Y)"><path d="m 14.551 16.934 l -0.133 -0.043 c -0.027 -0.008 -0.051 0.008 -0.047 0.035 c 0.004 0.027 0.027 0.059 0.059 0.066 l 0.129 0.043 c 0.031 0.008 0.051 -0.008 0.047 -0.035 c 0 -0.027 -0.027 -0.059 -0.055 -0.066" fill="url(#X)"/></g><g id="d" clip-path="url(#c)"><path d="m 14.551 16.934 l -0.133 -0.043 c -0.027 -0.008 -0.051 0.008 -0.047 0.035 c 0.004 0.027 0.027 0.059 0.059 0.066 l 0.129 0.043 c 0.031 0.008 0.051 -0.008 0.047 -0.035 c 0 -0.027 -0.027 -0.059 -0.055 -0.066" fill="url(#b)"/></g><g id="i" clip-path="url(#h)"><path d="m 14.563 17.06 l -0.129 -0.043 c -0.031 -0.008 -0.051 0.004 -0.051 0.035 c 0.004 0.027 0.031 0.055 0.059 0.066 l 0.133 0.039 c 0.027 0.012 0.051 -0.004 0.047 -0.031 c -0.004 -0.027 -0.031 -0.059 -0.059 -0.066" fill="url(#g)"/></g><g id="m" clip-path="url(#l)"><path d="m 14.563 17.06 l -0.129 -0.043 c -0.031 -0.008 -0.051 0.004 -0.051 0.035 c 0.004 0.027 0.031 0.055 0.059 0.066 l 0.133 0.039 c 0.027 0.012 0.051 -0.004 0.047 -0.031 c -0.004 -0.027 -0.031 -0.059 -0.059 -0.066" fill="url(#k)"/></g><g id="q" clip-path="url(#p)"><path d="m 14.305 16.977 l -0.133 -0.039 c -0.027 -0.008 -0.047 0.004 -0.047 0.035 c 0.004 0.027 0.031 0.055 0.059 0.066 l 0.133 0.039 c 0.027 0.012 0.051 -0.004 0.047 -0.031 c -0.004 -0.027 -0.031 -0.059 -0.059 -0.07" fill="url(#o)"/></g><g id="u" clip-path="url(#t)"><path d="m 14.305 16.977 l -0.133 -0.039 c -0.027 -0.008 -0.047 0.004 -0.047 0.035 c 0.004 0.027 0.031 0.055 0.059 0.066 l 0.133 0.039 c 0.027 0.012 0.051 -0.004 0.047 -0.031 c -0.004 -0.027 -0.031 -0.059 -0.059 -0.07" fill="url(#s)"/></g><g id="y" clip-path="url(#x)"><path d="m 14.602 17.207 l -0.129 -0.039 c -0.031 -0.008 -0.051 0.004 -0.047 0.031 c 0 0.031 0.027 0.059 0.055 0.07 l 0.133 0.039 c 0.027 0.012 0.051 -0.004 0.047 -0.031 c -0.004 -0.031 -0.027 -0.059 -0.059 -0.07" fill="url(#w)"/></g><g id="12" clip-path="url(#11)"><path d="m 14.602 17.207 l -0.129 -0.039 c -0.031 -0.008 -0.051 0.004 -0.047 0.031 c 0 0.031 0.027 0.059 0.055 0.07 l 0.133 0.039 c 0.027 0.012 0.051 -0.004 0.047 -0.031 c -0.004 -0.031 -0.027 -0.059 -0.059 -0.07" fill="url(#10)"/></g><clipPath id="U"><path d="M 0,0 H24 V24 H0 z"/></clipPath><clipPath id="p"><path d="M 0,0 H24 V24 H0 z"/></clipPath><clipPath id="t"><path d="M 0,0 H24 V24 H0 z"/></clipPath><clipPath id="x"><path d="M 0,0 H24 V24 H0 z"/></clipPath><clipPath id="M"><path d="M 0,0 H24 V24 H0 z"/></clipPath><clipPath id="Q"><path d="M 0,0 H24 V24 H0 z"/></clipPath><clipPath id="11"><path d="M 0,0 H24 V24 H0 z"/></clipPath><clipPath id="I"><path d="M 0,0 H24 V24 H0 z"/></clipPath><clipPath id="c"><path d="M 0,0 H24 V24 H0 z"/></clipPath><clipPath id="h"><path d="M 0,0 H24 V24 H0 z"/></clipPath><clipPath id="Y"><path d="M 0,0 H24 V24 H0 z"/></clipPath><clipPath id="l"><path d="M 0,0 H24 V24 H0 z"/></clipPath><filter id="F" filterUnits="objectBoundingBox" x="0" y="0" width="24" height="24"><feColorMatrix type="matrix" in="SourceGraphic" values="0 0 0 0 1 0 0 0 0 1 0 0 0 0 1 0 0 0 1 0"/></filter><linearGradient id="10" gradientUnits="userSpaceOnUse" x1="208.2" y1="904.69" x2="207.1" y2="923.19" gradientTransform="matrix(-0.01085 -0.00343 0.00049 0.00463 16.372 13.723)" xlink:href="#5"/><linearGradient id="w" gradientUnits="userSpaceOnUse" x1="188.47" y1="933.07" x2="200.75" y2="947.63" gradientTransform="matrix(-0.01085 -0.00343 0.00049 0.00463 16.212 13.55)" xlink:href="#H"/><linearGradient id="k" gradientUnits="userSpaceOnUse" x1="208.2" y1="904.69" x2="207.1" y2="923.19" gradientTransform="matrix(-0.01085 -0.00343 0.00049 0.00463 16.332 13.575)" xlink:href="#5"/><linearGradient id="s" gradientUnits="userSpaceOnUse" x1="208.2" y1="904.69" x2="207.1" y2="923.19" gradientTransform="matrix(-0.01085 -0.00343 0.00049 0.00463 16.07 13.492)" xlink:href="#5"/><linearGradient id="o" gradientUnits="userSpaceOnUse" x1="188.47" y1="933.07" x2="200.75" y2="947.63" gradientTransform="matrix(-0.01085 -0.00343 0.00049 0.00463 15.915 13.32)" xlink:href="#H"/><linearGradient id="1J" gradientUnits="userSpaceOnUse" x1="22.406" y1="22.398" x2="78.38" y2="-106.66" gradientTransform="matrix(0.01577 0 0 0.01395 10.936 17.188)" xlink:href="#6"/><linearGradient id="1C" gradientUnits="userSpaceOnUse" x1="42.44" y1="30.569" x2="129.23" y2="109.71" gradientTransform="matrix(0.02135 0 0 0.02589 6.766 13.1)" xlink:href="#8"/><linearGradient id="1D" gradientUnits="userSpaceOnUse" x1="207.87" y1="836.03" x2="544.79" y2="389.19" gradientTransform="matrix(0.00437 0 0 0.00493 10.132 12.608)" xlink:href="#1"/><linearGradient id="g" gradientUnits="userSpaceOnUse" x1="188.47" y1="933.07" x2="200.75" y2="947.63" gradientTransform="matrix(-0.01085 -0.00343 0.00049 0.00463 16.17 13.402)" xlink:href="#H"/><linearGradient id="1E" gradientUnits="userSpaceOnUse" x1="204.63" y1="839.62" x2="546.3" y2="386.48" gradientTransform="matrix(0.00437 0 0 0.00493 10.132 12.608)" xlink:href="#1"/><linearGradient id="1F" gradientUnits="userSpaceOnUse" x1="201.39" y1="843.21" x2="547.81" y2="383.77" gradientTransform="matrix(0.00437 0 0 0.00492 10.132 12.608)" xlink:href="#1"/><linearGradient id="1I" gradientUnits="userSpaceOnUse" x1="23.378" y1="19.876" x2="78.1" y2="-106.29" gradientTransform="matrix(0.01575 0 0 0.01396 10.936 17.188)" xlink:href="#6"/><linearGradient id="1G" gradientUnits="userSpaceOnUse" x1="741.64" y1="169.44" x2="622.33" y2="287.74" gradientTransform="matrix(0.00431 0 0 0.00485 9.607 13.834)" xlink:href="#0"/><linearGradient id="1H" gradientUnits="userSpaceOnUse" x1="687.96" y1="236.13" x2="330.88" y2="418.54" gradientTransform="matrix(0.00447 0 0 0.00469 9.607 13.834)" xlink:href="#5"/><linearGradient id="1B" gradientUnits="userSpaceOnUse" x1="22.406" y1="22.398" x2="78.38" y2="-106.66" gradientTransform="matrix(0.02403 0 0 0.02125 7.139 17.397)" xlink:href="#6"/><linearGradient id="13" gradientUnits="userSpaceOnUse" x1="208.2" y1="904.69" x2="207.1" y2="923.19" gradientTransform="matrix(-0.01085 -0.00343 0.00049 0.00463 16.11 13.64)" xlink:href="#e"/><linearGradient id="14" gradientUnits="userSpaceOnUse" x1="207.87" y1="836.03" x2="544.79" y2="389.19" gradientTransform="matrix(0.00666 0 0 0.00751 5.914 10.418)" xlink:href="#1"/><linearGradient id="1A" gradientUnits="userSpaceOnUse" x1="23.378" y1="19.876" x2="78.1" y2="-106.29" gradientTransform="matrix(0.02401 0 0 0.02127 7.139 17.397)" xlink:href="#6"/><linearGradient id="15" gradientUnits="userSpaceOnUse" x1="204.63" y1="839.62" x2="546.3" y2="386.48" gradientTransform="matrix(0.00666 0 0 0.00751 5.914 10.418)" xlink:href="#1"/><linearGradient id="16" gradientUnits="userSpaceOnUse" x1="201.39" y1="843.21" x2="547.81" y2="383.77" gradientTransform="matrix(0.00667 0 0 0.0075 5.914 10.418)" xlink:href="#1"/><linearGradient id="19" gradientUnits="userSpaceOnUse" x1="687.96" y1="236.13" x2="330.88" y2="418.54" gradientTransform="matrix(0.00681 0 0 0.00715 5.114 12.286)" xlink:href="#5"/><linearGradient id="17" gradientUnits="userSpaceOnUse" x1="728.97" y1="230.07" x2="351.71" y2="689.86" gradientTransform="scale(0.95542 1.04665)" xlink:href="#0"/><linearGradient id="18" gradientUnits="userSpaceOnUse" x1="741.64" y1="169.44" x2="622.33" y2="287.74" gradientTransform="matrix(0.00658 0 0 0.0074 5.114 12.286)" xlink:href="#0"/><linearGradient id="1K" gradientUnits="userSpaceOnUse" x1="42.44" y1="30.569" x2="129.23" y2="109.71" gradientTransform="matrix(0.01401 0 0 0.01699 10.691 14.366)" xlink:href="#8"/><linearGradient id="C" gradientUnits="userSpaceOnUse" x1="404.43" y1="296.76" x2="514.74" y2="521.23" gradientTransform="matrix(-0.0124 0.00139 0.00123 0.01158 20.599 10.363)" xlink:href="#9"/><linearGradient id="8" gradientUnits="userSpaceOnUse" x1="42.44" y1="30.569" x2="129.23" y2="109.71" gradientTransform="matrix(0.0786 0 0 0.09531 5.781 4.206)"><stop stop-color="#de421e"/><stop offset="1" stop-color="#900"/></linearGradient><linearGradient id="P" gradientUnits="userSpaceOnUse" x1="188.47" y1="933.07" x2="200.75" y2="947.63" gradientTransform="matrix(-0.01085 -0.00343 0.00049 0.00463 15.838 13.05)" xlink:href="#H"/><linearGradient id="7" gradientUnits="userSpaceOnUse" x1="22.406" y1="22.398" x2="78.38" y2="-106.66" gradientTransform="matrix(0.08847 0 0 0.07826 7.156 20.04)" xlink:href="#6"/><linearGradient id="L" gradientUnits="userSpaceOnUse" x1="208.2" y1="904.69" x2="207.1" y2="923.19" gradientTransform="matrix(-0.01085 -0.00343 0.00049 0.00463 16.256 13.302)" xlink:href="#5"/><linearGradient id="D" gradientUnits="userSpaceOnUse" x1="339.16" y1="972.67" x2="343.23" y2="993.38" gradientTransform="matrix(-0.01977 0.00365 0.00125 0.00712 24.741 10.415)"><stop stop-color="#dffcdf" stop-opacity="0.69"/><stop offset="1" stop-color="#1bc91b" stop-opacity="0"/></linearGradient><linearGradient id="9" gradientUnits="userSpaceOnUse" x1="241.24" y1="361.57" x2="346.36" y2="590.43" gradientTransform="matrix(-0.01182 0.00132 0.00129 0.01216 20.599 10.363)"><stop stop-color="#555562"/><stop offset="0.5" stop-color="#a4a4be"/><stop offset="0.75" stop-color="#000"/><stop offset="1" stop-color="#555562" stop-opacity="0"/></linearGradient><linearGradient id="E" gradientUnits="userSpaceOnUse" x1="322.15" x2="334.01" gradientTransform="matrix(-0.02061 0.00381 0.0012 0.00683 24.799 10.368)"><stop stop-color="#f3fbf3" stop-opacity="0.439"/><stop offset="1" stop-color="#f3fbf3" stop-opacity="0"/></linearGradient><linearGradient id="H" gradientUnits="userSpaceOnUse" x1="188.47" y1="933.07" x2="200.75" y2="947.63" gradientTransform="matrix(-0.01085 -0.00343 0.00049 0.00463 16.1 13.13)"><stop stop-color="#cdcdcd"/><stop offset="0.5" stop-color="#fff"/><stop offset="0.75" stop-color="#9a9a9a"/><stop offset="1" stop-color="#fff"/></linearGradient><linearGradient id="B" gradientUnits="userSpaceOnUse" x1="342.82" y1="254.97" x2="366.97" y2="326.85" gradientTransform="matrix(-0.00512 0.00057 0.00125 0.01176 20.13 13.212)"><stop stop-color="#1b1b1b" stop-opacity="0.69"/><stop offset="1" stop-color="#5b5b5b" stop-opacity="0.33"/></linearGradient><linearGradient id="6" gradientUnits="userSpaceOnUse" x1="23.378" y1="19.876" x2="78.1" y2="-106.29" gradientTransform="matrix(0.0884 0 0 0.07831 7.156 20.04)"><stop stop-color="#000" stop-opacity="0.068"/><stop offset="1" stop-color="#000" stop-opacity="0"/></linearGradient><linearGradient id="5" gradientUnits="userSpaceOnUse" x1="687.96" y1="236.13" x2="330.88" y2="418.54" gradientTransform="matrix(0.02507 0 0 0.02631 -0.301 1.219)"><stop stop-color="#fff"/><stop offset="1" stop-color="#fff" stop-opacity="0"/></linearGradient><linearGradient id="b" gradientUnits="userSpaceOnUse" x1="208.2" y1="904.69" x2="207.1" y2="923.19" gradientTransform="matrix(-0.01085 -0.00343 0.00049 0.00463 16.319 13.448)" xlink:href="#5"/><linearGradient id="e" gradientUnits="userSpaceOnUse" x1="208.2" y1="904.69" x2="207.1" y2="923.19" gradientTransform="matrix(-0.01085 -0.00343 0.00049 0.00463 16.06 13.365)"><stop stop-color="#fff" stop-opacity="0.733"/><stop offset="1" stop-color="#fff" stop-opacity="0"/></linearGradient><linearGradient id="0" gradientUnits="userSpaceOnUse" x1="728.97" y1="230.07" x2="351.71" y2="689.86" gradientTransform="matrix(0.0764 0 0 0.0837 -3.509 -3.394)"><stop stop-color="#d9d9d9"/><stop offset="0.349" stop-color="#f1f1f1"/><stop offset="1" stop-color="#efefef"/></linearGradient><linearGradient id="1" gradientUnits="userSpaceOnUse" x1="207.87" y1="836.03" x2="544.79" y2="389.19" gradientTransform="matrix(0.02451 0 0 0.02767 2.645 -5.659)"><stop stop-color="#000" stop-opacity="0.07"/><stop offset="1" stop-color="#000" stop-opacity="0"/></linearGradient><linearGradient id="T" gradientUnits="userSpaceOnUse" x1="208.2" y1="904.69" x2="207.1" y2="923.19" gradientTransform="matrix(-0.01085 -0.00343 0.00049 0.00463 15.998 13.22)" xlink:href="#5"/><linearGradient id="2" gradientUnits="userSpaceOnUse" x1="204.63" y1="839.62" x2="546.3" y2="386.48" gradientTransform="matrix(0.02453 0 0 0.02765 2.645 -5.659)" xlink:href="#1"/><linearGradient id="4" gradientUnits="userSpaceOnUse" x1="741.64" y1="169.44" x2="622.33" y2="287.74" gradientTransform="matrix(0.02421 0 0 0.02724 -0.301 1.219)" xlink:href="#0"/><linearGradient id="X" gradientUnits="userSpaceOnUse" x1="188.47" y1="933.07" x2="200.75" y2="947.63" gradientTransform="matrix(-0.01085 -0.00343 0.00049 0.00463 16.16 13.275)" xlink:href="#H"/><linearGradient id="3" gradientUnits="userSpaceOnUse" x1="201.39" y1="843.21" x2="547.81" y2="383.77" gradientTransform="matrix(0.02454 0 0 0.02762 2.645 -5.659)" xlink:href="#1"/><mask id="G"><g filter="url(#F)"><path fill-opacity="0.471" d="M 0,0 H24 V24 H0 z"/></g></mask><mask id="W"><g filter="url(#F)"><path fill-opacity="0.471" d="M 0,0 H24 V24 H0 z"/></g></mask><mask id="S"><g filter="url(#F)"><path fill-opacity="0.733" d="M 0,0 H24 V24 H0 z"/></g></mask><mask id="n"><g filter="url(#F)"><path fill-opacity="0.471" d="M 0,0 H24 V24 H0 z"/></g></mask><mask id="j"><g filter="url(#F)"><path fill-opacity="0.733" d="M 0,0 H24 V24 H0 z"/></g></mask><mask id="a"><g filter="url(#F)"><path fill-opacity="0.733" d="M 0,0 H24 V24 H0 z"/></g></mask><mask id="r"><g filter="url(#F)"><path fill-opacity="0.733" d="M 0,0 H24 V24 H0 z"/></g></mask><mask id="f"><g filter="url(#F)"><path fill-opacity="0.471" d="M 0,0 H24 V24 H0 z"/></g></mask><mask id="z"><g filter="url(#F)"><path fill-opacity="0.733" d="M 0,0 H24 V24 H0 z"/></g></mask><mask id="K"><g filter="url(#F)"><path fill-opacity="0.733" d="M 0,0 H24 V24 H0 z"/></g></mask><mask id="O"><g filter="url(#F)"><path fill-opacity="0.471" d="M 0,0 H24 V24 H0 z"/></g></mask><mask id="v"><g filter="url(#F)"><path fill-opacity="0.471" d="M 0,0 H24 V24 H0 z"/></g></mask><radialGradient id="A" gradientUnits="userSpaceOnUse" cx="338.29" cy="301.52" fx="339.8" fy="299.47" r="58.867" gradientTransform="matrix(-0.00512 0.00057 0.00125 0.01176 20.13 13.203)"><stop stop-color="#fff" stop-opacity="0.557"/><stop offset="0.609" stop-color="#999" stop-opacity="0.557"/><stop offset="1" stop-color="#333" stop-opacity="0.557"/></radialGradient></defs><path d="m 2.543 5.102 c -11.832 17.715 25.902 28.629 20.906 5.727 c -2.129 -9.465 -15.48 -15.207 -20.906 -5.727" fill="#e7e7e7"/><g fill-rule="evenodd"><path d="m 20.316 7.542 v 39.605 h 36.16 v -29.701 l -9.03 -9.904" transform="matrix(0.31693 0 0 0.32538 0.811 2.323)" stroke-opacity="0.365" fill="url(#0)" stroke="#000" stroke-width="0.115"/><path d="m 7.246 4.762 v 12.887 h 11.461 v -9.664 l -2.867 -3.223" fill="#fff"/><path d="m 7.148 5.01 v 12.762 h 11.305 v -9.57 l -2.828 -3.191" fill="url(#1)"/><path d="m 7.07 4.965 c 0 4.297 0 8.594 0 12.891 c 3.824 0 7.648 0 11.473 0 c 0 -3.23 0 -6.461 0 -9.688 c -0.961 -1.082 -1.914 -2.164 -2.875 -3.242 c -2.867 0 -5.73 0 -8.598 0 c 0 0.008 0 0.035 0 0.043" fill="url(#2)"/><path d="m 6.98 4.883 c 0 4.352 0 8.703 0 13.06 c 3.883 0 7.762 0 11.641 0 c 0 -3.27 0 -6.539 0 -9.809 c -0.973 -1.098 -1.945 -2.195 -2.918 -3.293 c -2.906 0 -5.816 0 -8.723 0 c 0 0.008 0 0.035 0 0.043" fill="url(#3)"/><path d="m 18.707 8 c -0.863 -0.262 -1.98 -0.227 -2.828 -0.078 c 0.148 -0.961 0.164 -2.164 -0.035 -3.145 l 2.867 3.223" fill="url(#4)"/><path d="m 7.336 5.77 l -0.051 11.813 h 11.246 l 0.008 -2.922 c -0.254 0.102 -2.793 -3.594 -5.992 -3.434 c -3.203 0.156 -2.375 -4.98 -5.211 -5.457" fill="url(#5)"/></g><path d="m 12.699 8.594 c -0.281 0.031 -0.434 0.113 -0.563 0.469 c -0.133 0.352 -0.004 0.988 0.172 1.477 c 0.074 0.16 0.168 0.32 0.254 0.48 c -0.051 0.238 -0.109 0.48 -0.191 0.719 c -0.313 0.969 -0.672 1.945 -1.211 2.859 c -0.75 0.277 -1.48 0.586 -2.176 0.934 c -0.418 0.199 -1.18 0.75 -0.48 1.039 c 0.395 0.168 0.805 0.133 1.18 0 c 0.184 -0.066 0.359 -0.16 0.52 -0.262 c 0.16 -0.105 0.309 -0.219 0.43 -0.328 c 0.375 -0.355 0.699 -0.734 0.984 -1.133 c 1.125 -0.379 2.285 -0.699 3.48 -0.922 c 0.5 0.328 1.234 0.66 1.855 0.332 c 0.625 -0.211 0.52 -0.844 -0.191 -0.852 c -0.473 -0.07 -0.941 -0.027 -1.402 0.051 c -0.203 -0.176 -0.387 -0.359 -0.563 -0.535 c -0.555 -0.664 -1.07 -1.352 -1.551 -2.047 c 0.129 -0.641 0.262 -1.352 0.16 -1.816 c -0.105 -0.461 -0.406 -0.5 -0.707 -0.465 m -0.094 0.48 c 0.078 -0.129 0.273 0.004 0.27 0.176 c -0.004 0.168 -0.039 0.543 -0.199 0.648 c -0.121 -0.273 -0.145 -0.699 -0.07 -0.824 m 0.414 2.715 c 0.438 0.656 0.969 1.273 1.633 1.809 c -0.195 0.043 -0.395 0.082 -0.586 0.121 c -0.715 0.172 -1.414 0.375 -2.098 0.602 c 0.484 -0.805 0.809 -1.668 1.051 -2.531 m 3.02 2.01 c 0.25 0 0.449 0.047 0.402 0.227 c -0.211 -0.043 -0.398 -0.117 -0.57 -0.211 c 0.055 -0.008 0.113 -0.016 0.168 -0.016 m -5.23 1.332 c -0.055 0.078 -0.098 0.156 -0.152 0.234 c -0.363 0.414 -0.883 0.934 -1.602 0.926 c -0.215 -0.453 0.664 -0.703 1.074 -0.91 c 0.223 -0.086 0.453 -0.164 0.68 -0.25" fill="url(#6)"/><path d="m 12.691 8.5 c -0.73 0.094 -0.781 0.773 -0.699 1.215 c 0.082 0.449 0.176 0.898 0.438 1.313 c -0.32 1.195 -0.75 2.375 -1.371 3.504 c -0.961 0.414 -2.043 0.742 -2.789 1.375 c -0.258 0.242 -0.215 0.652 0.227 0.758 c 0.777 0.316 1.652 -0.121 2.148 -0.57 c 0.461 -0.344 0.711 -0.82 1.113 -1.18 c 1.086 -0.344 2.184 -0.637 3.313 -0.883 c 0.535 0.34 1.363 0.645 2.01 0.281 c 0.605 -0.176 0.496 -0.965 -0.184 -0.988 c -0.488 -0.09 -0.988 -0.023 -1.477 0.031 c -0.832 -0.762 -1.41 -1.648 -2.039 -2.504 c 0.078 -0.711 0.395 -1.484 -0.027 -2.164 c -0.137 -0.16 -0.414 -0.219 -0.66 -0.188 m 0.051 0.758 c 0.059 0.492 -0.148 -0.074 0 0 m 0.902 3.531 c 0.25 0.258 0.504 0.52 0.785 0.762 c -0.758 0.168 -1.5 0.355 -2.227 0.59 c 0.398 -0.672 0.613 -1.395 0.863 -2.105 c 0.191 0.254 0.387 0.504 0.578 0.754 m -3.379 2.82 c -0.285 0.254 -0.629 0.531 -1.09 0.574 c 0.078 -0.434 0.762 -0.566 1.188 -0.781 c 0.41 -0.211 -0.078 0.141 -0.098 0.207" fill="url(#7)"/><path d="m 12.508 5.773 c -0.281 0.043 -0.434 0.156 -0.566 0.641 c -0.129 0.484 -0.004 1.355 0.176 2.023 c 0.074 0.223 0.168 0.438 0.25 0.656 c -0.047 0.332 -0.105 0.66 -0.188 0.988 c -0.316 1.324 -0.672 2.66 -1.211 3.914 c -0.754 0.379 -1.484 0.797 -2.176 1.277 c -0.418 0.27 -1.184 1.023 -0.48 1.422 c 0.395 0.23 0.805 0.184 1.176 0 c 0.188 -0.094 0.363 -0.219 0.523 -0.359 c 0.16 -0.141 0.309 -0.297 0.43 -0.453 c 0.375 -0.484 0.699 -1 0.98 -1.547 c 1.125 -0.52 2.289 -0.957 3.484 -1.262 c 0.5 0.449 1.234 0.902 1.855 0.453 c 0.625 -0.289 0.52 -1.156 -0.191 -1.168 c -0.473 -0.094 -0.941 -0.035 -1.402 0.074 c -0.203 -0.238 -0.391 -0.496 -0.563 -0.734 c -0.559 -0.91 -1.07 -1.848 -1.551 -2.805 c 0.129 -0.875 0.262 -1.848 0.156 -2.48 c -0.102 -0.633 -0.406 -0.684 -0.703 -0.641 m -0.094 0.656 c 0.074 -0.172 0.27 0.012 0.266 0.242 c -0.004 0.23 -0.039 0.746 -0.195 0.891 c -0.121 -0.371 -0.145 -0.957 -0.07 -1.133 m 0.414 3.719 c 0.438 0.898 0.969 1.746 1.633 2.48 c -0.195 0.055 -0.395 0.109 -0.59 0.16 c -0.711 0.234 -1.41 0.516 -2.098 0.824 c 0.488 -1.102 0.813 -2.281 1.055 -3.465 m 3.02 2.758 c 0.254 -0.004 0.453 0.063 0.402 0.305 c -0.211 -0.055 -0.395 -0.16 -0.57 -0.289 c 0.059 -0.004 0.117 -0.016 0.168 -0.016 m -5.227 1.824 c -0.055 0.102 -0.098 0.211 -0.156 0.316 c -0.359 0.566 -0.879 1.281 -1.598 1.266 c -0.215 -0.617 0.664 -0.961 1.074 -1.242 c 0.223 -0.117 0.449 -0.227 0.676 -0.34" fill="url(#8)"/><g fill-rule="evenodd"><path d="m 609.19 371.74 l 41.89 -27.718 c 14.656 -38.26 -0.552 -89.995 -56.55 -88.72 l -50.74 22.249" transform="matrix(-0.01183 0.00132 0.00129 0.01215 20.599 10.363)" fill="#191919" stroke="#000"/><path d="m 19.648 16.723 c -0.223 -1.18 -2.738 -2.105 -4.367 -2.473 c -0.367 0.031 -0.379 0.059 -0.68 0.164 l 4.238 1.633" fill="#757586"/><path d="m 18.863 16.04 l -4.223 -1.645 c -0.547 0.055 -0.867 0.289 -0.895 1.012 c -0.102 0.711 0.207 1.309 0.309 1.961 c 2.211 0.621 2.957 1.152 4.43 1.535 c 0.652 -0.02 1.375 -0.063 1.316 -1.148 c 0.043 -0.402 -0.16 -1.926 -0.938 -1.715" fill="#2c2c31"/><path d="m 18.871 17.645 c 0 0.215 -0.336 -0.211 -0.227 0.004 c 0.254 0.504 -0.168 1.098 -0.418 1.16 c 0.164 0.027 0.199 0.133 0.461 0.035 c 0.16 -0.203 0.395 -0.93 0.184 -1.199" fill="#1b1b1b"/><path d="m 18.891 16.06 c 0.184 -0.008 0.313 -0.035 0.566 0.289 c 0.246 0.402 0.305 0.93 0.305 1.219 c -0.211 0.258 -0.617 0.082 -0.855 0.152" fill="#5f5f5f"/><path d="m 18.852 17.719 l -2.387 -0.906 c -0.16 -0.43 -0.551 -1.066 0.145 -1.652 l 2.273 0.887" fill="url(#9)"/></g><path d="m 18.461 16.91 c 0.051 0.469 0.262 0.828 0.473 0.805 c 0.211 -0.023 0.34 -0.422 0.289 -0.887 c -0.047 -0.469 -0.258 -0.828 -0.469 -0.805 c -0.211 0.023 -0.34 0.418 -0.293 0.887" fill="#1b1b1b"/><path d="m 18.563 16.895 c 0.039 0.379 0.207 0.676 0.375 0.656 c 0.168 -0.02 0.27 -0.344 0.227 -0.727 c -0.039 -0.379 -0.207 -0.676 -0.375 -0.656 c -0.164 0.02 -0.266 0.344 -0.227 0.723" fill="#333"/><path d="m 18.52 16.914 c 0.043 0.414 0.23 0.73 0.418 0.711 c 0.184 -0.023 0.301 -0.375 0.254 -0.789 c -0.043 -0.414 -0.23 -0.73 -0.414 -0.711 c -0.188 0.02 -0.301 0.371 -0.258 0.785"/><path d="m 16.398 16.859 c 0.141 0.578 -0.168 0.715 -0.297 1.035 l -1.953 -0.664 c -0.16 -0.379 -0.32 -0.906 -0.277 -1.211" fill="#555562" fill-rule="evenodd"/><path d="m 18.563 16.891 c 0.039 0.383 0.207 0.68 0.371 0.66 c 0.168 -0.02 0.27 -0.344 0.23 -0.727 c -0.043 -0.383 -0.211 -0.676 -0.375 -0.656 c -0.168 0.016 -0.27 0.34 -0.227 0.723" fill="url(#A)"/><path d="m 18.555 16.902 c 0.039 0.379 0.207 0.676 0.375 0.656 c 0.164 -0.02 0.266 -0.344 0.227 -0.727 c -0.039 -0.379 -0.207 -0.676 -0.375 -0.656 c -0.164 0.02 -0.266 0.344 -0.227 0.723 l 0.301 -0.031" fill="url(#B)"/><g fill-rule="evenodd"><path d="m 16.531 15.13 c -0.734 0.629 -0.352 1.141 -0.164 1.645 l -2.457 -0.801 c -0.152 -0.559 -0.379 -1.508 0.676 -1.609" fill="url(#C)"/><path d="m 16.04 15.977 c -0.902 -0.012 -1.441 -0.547 -2.16 -0.695 c -0.043 0.16 0.008 0.316 0.039 0.48 l 2.277 0.766 c -0.094 -0.168 -0.133 -0.363 -0.156 -0.551" fill="#6c6c79"/><path d="m 17.781 16.324 c -0.066 0.234 -0.09 0.723 0.066 0.996 l -0.129 -0.047 c -0.121 -0.266 -0.129 -0.711 -0.043 -0.992" fill="#0f0f11"/></g><path d="m 19.32 18.563 l -0.227 0.043 c -0.027 0.004 -0.043 0.035 -0.039 0.066 c 0.008 0.035 0.031 0.055 0.059 0.051 l 0.227 -0.043 c 0.027 -0.004 0.047 -0.035 0.039 -0.066 c -0.004 -0.031 -0.031 -0.055 -0.059 -0.051" fill="#1bc91b"/><path d="m 19.32 18.563 l -0.227 0.043 c -0.027 0.004 -0.043 0.035 -0.039 0.066 c 0.008 0.035 0.031 0.055 0.059 0.051 l 0.227 -0.043 c 0.027 -0.004 0.047 -0.035 0.039 -0.066 c -0.004 -0.031 -0.031 -0.055 -0.059 -0.051" fill="url(#D)"/><path d="m 19.18 18.672 l 0.184 -0.055 c -0.063 -0.059 0.004 -0.055 -0.191 -0.008 l -0.016 0.051" fill="url(#E)" fill-rule="evenodd"/><path d="m 14.484 16.789 l -0.129 -0.043 c -0.031 -0.008 -0.051 0.008 -0.047 0.035 c 0.004 0.027 0.027 0.059 0.059 0.066 l 0.129 0.043 c 0.031 0.008 0.051 -0.008 0.047 -0.035 c 0 -0.027 -0.027 -0.059 -0.059 -0.066" fill="#1f1f61"/><use xlink:href="#J" mask="url(#G)"/><use xlink:href="#N" mask="url(#K)"/><path d="m 14.227 16.707 l -0.129 -0.043 c -0.031 -0.008 -0.051 0.008 -0.047 0.035 c 0 0.027 0.027 0.059 0.059 0.066 l 0.129 0.043 c 0.031 0.008 0.051 -0.008 0.047 -0.035 c -0.004 -0.027 -0.027 -0.059 -0.059 -0.066" fill="#1f1f61"/><use xlink:href="#R" mask="url(#O)"/><use xlink:href="#V" mask="url(#S)"/><path d="m 14.551 16.934 l -0.133 -0.043 c -0.027 -0.008 -0.051 0.008 -0.047 0.035 c 0.004 0.027 0.027 0.059 0.059 0.066 l 0.129 0.043 c 0.031 0.008 0.051 -0.008 0.047 -0.035 c 0 -0.027 -0.027 -0.059 -0.055 -0.066" fill="#1f1f61"/><use xlink:href="#Z" mask="url(#W)"/><use xlink:href="#d" mask="url(#a)"/><path d="m 14.297 16.852 l -0.141 -0.043 c -0.027 -0.008 -0.047 0.008 -0.043 0.035 c 0.004 0.027 0.027 0.059 0.055 0.066 l 0.137 0.043 c 0.027 0.008 0.047 -0.008 0.043 -0.035 c 0 -0.027 -0.027 -0.059 -0.051 -0.066" fill="url(#e)"/><path d="m 14.563 17.06 l -0.129 -0.043 c -0.031 -0.008 -0.051 0.004 -0.051 0.035 c 0.004 0.027 0.031 0.055 0.059 0.066 l 0.133 0.039 c 0.027 0.012 0.051 -0.004 0.047 -0.031 c -0.004 -0.027 -0.031 -0.059 -0.059 -0.066" fill="#1f1f61"/><use xlink:href="#i" mask="url(#f)"/><use xlink:href="#m" mask="url(#j)"/><path d="m 14.305 16.977 l -0.133 -0.039 c -0.027 -0.008 -0.047 0.004 -0.047 0.035 c 0.004 0.027 0.031 0.055 0.059 0.066 l 0.133 0.039 c 0.027 0.012 0.051 -0.004 0.047 -0.031 c -0.004 -0.027 -0.031 -0.059 -0.059 -0.07" fill="#1f1f61"/><use xlink:href="#q" mask="url(#n)"/><use xlink:href="#u" mask="url(#r)"/><path d="m 14.602 17.207 l -0.129 -0.039 c -0.031 -0.008 -0.051 0.004 -0.047 0.031 c 0 0.031 0.027 0.059 0.055 0.07 l 0.133 0.039 c 0.027 0.012 0.051 -0.004 0.047 -0.031 c -0.004 -0.031 -0.027 -0.059 -0.059 -0.07" fill="#1f1f61"/><use xlink:href="#y" mask="url(#v)"/><use xlink:href="#12" mask="url(#z)"/><path d="m 14.348 17.13 l -0.137 -0.047 c -0.027 -0.008 -0.047 0.008 -0.047 0.035 c 0.004 0.031 0.027 0.059 0.055 0.066 l 0.141 0.043 c 0.027 0.012 0.047 -0.004 0.043 -0.031 c -0.004 -0.031 -0.027 -0.059 -0.055 -0.066" fill="url(#13)"/><g stroke="#000"><g fill-rule="evenodd" stroke-linejoin="bevel"><g fill="#373737"><g stroke-width="3.75"><path d="m 79.8 270.2 h 352.64 l 60.5 60.32 l -443.29 2.976" transform="matrix(0.01917 0 0 0.01969 5.138 11.989)"/><g transform="matrix(0.01917 0 0 0.01969 5.269 10.896)"><path d="m 42.831 388.03 v 15.477 l 442.27 -2.778 v -14.683"/><path d="m 72.981 325.72 c -4.482 -2.381 -1.019 -5.357 -0.815 -5.953 c 1.833 0 353.45 -0.992 353.45 -0.992 c 0.407 0.397 3.667 2.381 0 5.953 c -6.723 0.992 -352.64 2.778 -352.64 0.992"/></g></g><path d="m -27.1 33.22 l -0.186 -18.993 c 0 0 0.708 -1.598 1.696 -1.689 c 0.969 -0.091 30.29 0.091 30.29 0.091 c 0 0 0.541 0.182 0.634 0.799 c 0.075 0.636 -0.093 19.701 -0.093 19.701 l -32.363 0.091" transform="matrix(0.20954 0 0 0.21513 12.312 10.03)" stroke-width="0.343"/></g><g stroke-width="3.75" transform="matrix(0.01917 0 0 0.01969 5.269 10.896)"><path d="m 76.04 330.48 l 346.73 0.992 l 42.781 42.86 l -408.05 -1.984" fill="#595959"/><path d="m 56.48 372.35 v 7.937 h 408.05 v -5.953" fill="#4c4c4c"/></g></g><g fill="none" stroke-width="1.25" transform="matrix(0.01917 0 0 0.01969 5.269 10.896)"><path d="m 76.24 338.22 c 1.222 0 349.99 2.381 349.99 2.381"/><path d="m 72.57 349.93 h 363.64"/><path d="m 66.87 360.05 l 381.16 1.786 l -1.222 0.595"/><path d="m 111.28 333.66 l -13.242 36.907"/><path d="m 169.95 334.45 c 0 0 -8.76 34.923 -8.76 35.518"/><path d="m 377.54 333.66 l 22.409 37.502"/><path d="m 316.22 332.47 l 5.704 36.907"/><path d="m 246.96 334.45 l 1.833 36.11"/></g></g><g fill-rule="evenodd"><path d="m 7.164 13.246 v 3.5 h 3.109 v -2.625 l -0.777 -0.875" fill="#fff"/><path d="m 7.137 13.316 v 3.465 h 3.07 v -2.598 l -0.766 -0.867" fill="url(#14)"/><path d="m 7.113 13.305 c 0 1.164 0 2.332 0 3.5 c 1.039 0 2.078 0 3.117 0 c 0 -0.879 0 -1.754 0 -2.633 c -0.262 -0.293 -0.52 -0.586 -0.781 -0.879 c -0.777 0 -1.555 0 -2.336 0 c 0 0 0 0.008 0 0.012" fill="url(#15)"/><path d="m 7.094 13.281 c 0 1.18 0 2.363 0 3.547 c 1.051 0 2.105 0 3.16 0 c 0 -0.887 0 -1.777 0 -2.664 c -0.266 -0.297 -0.527 -0.598 -0.793 -0.895 c -0.789 0 -1.578 0 -2.367 0 c 0 0 0 0.008 0 0.012" fill="url(#16)"/><path d="m 297.85 137.01 v 495.27 h 452.3 v -371.46 l -112.93 -123.82" transform="matrix(0.00688 0 0 0.00707 5.114 12.286)" stroke-opacity="0.365" fill="url(#17)" stroke="#000" stroke-width="1.438"/><path d="m 10.277 14.13 c -0.234 -0.074 -0.539 -0.063 -0.77 -0.023 c 0.039 -0.262 0.047 -0.586 -0.008 -0.852" fill="url(#18)"/><path d="m 7.188 13.523 l -0.012 3.207 h 3.055 v -0.793 c -0.066 0.027 -0.758 -0.977 -1.629 -0.934 c -0.867 0.043 -0.645 -1.352 -1.414 -1.48" fill="url(#19)"/></g><path d="m 8.645 14.289 c -0.074 0.008 -0.117 0.031 -0.152 0.125 c -0.035 0.098 0 0.27 0.047 0.402 c 0.02 0.043 0.047 0.086 0.07 0.129 c -0.016 0.066 -0.031 0.133 -0.055 0.199 c -0.086 0.262 -0.18 0.527 -0.328 0.773 c -0.203 0.078 -0.402 0.16 -0.59 0.254 c -0.113 0.055 -0.32 0.203 -0.133 0.285 c 0.109 0.043 0.219 0.035 0.32 0 c 0.051 -0.02 0.098 -0.047 0.145 -0.074 c 0.043 -0.027 0.082 -0.059 0.113 -0.09 c 0.105 -0.094 0.191 -0.199 0.27 -0.305 c 0.305 -0.105 0.621 -0.191 0.945 -0.25 c 0.137 0.09 0.336 0.176 0.504 0.09 c 0.168 -0.059 0.141 -0.23 -0.051 -0.234 c -0.129 -0.016 -0.258 -0.004 -0.383 0.016 c -0.055 -0.047 -0.105 -0.098 -0.152 -0.145 c -0.152 -0.18 -0.289 -0.367 -0.422 -0.559 c 0.035 -0.172 0.07 -0.367 0.043 -0.492 c -0.027 -0.125 -0.109 -0.133 -0.191 -0.125 m -0.023 0.129 c 0.02 -0.035 0.07 0.004 0.07 0.047 c 0 0.047 -0.008 0.148 -0.055 0.18 c -0.031 -0.074 -0.039 -0.191 -0.016 -0.227 m 0.109 0.738 c 0.121 0.18 0.266 0.348 0.445 0.492 c -0.055 0.012 -0.105 0.023 -0.16 0.031 c -0.191 0.047 -0.383 0.102 -0.57 0.164 c 0.133 -0.219 0.223 -0.453 0.285 -0.688 m 0.82 0.547 c 0.07 0 0.125 0.012 0.109 0.063 c -0.059 -0.012 -0.105 -0.035 -0.152 -0.059 c 0.016 0 0.027 -0.004 0.043 -0.004 m -1.418 0.363 c -0.016 0.02 -0.027 0.043 -0.043 0.063 c -0.098 0.113 -0.238 0.254 -0.434 0.25 c -0.059 -0.121 0.18 -0.191 0.289 -0.246 c 0.062 -0.023 0.125 -0.047 0.187 -0.066" fill="url(#1A)"/><path d="m 8.645 14.262 c -0.199 0.027 -0.215 0.211 -0.191 0.332 c 0.023 0.121 0.047 0.242 0.117 0.355 c -0.086 0.324 -0.203 0.645 -0.371 0.953 c -0.262 0.109 -0.555 0.199 -0.758 0.371 c -0.07 0.066 -0.059 0.18 0.063 0.207 c 0.211 0.086 0.449 -0.031 0.582 -0.156 c 0.125 -0.09 0.195 -0.223 0.305 -0.32 c 0.293 -0.094 0.59 -0.172 0.898 -0.238 c 0.145 0.094 0.371 0.176 0.543 0.078 c 0.168 -0.051 0.137 -0.266 -0.047 -0.27 c -0.133 -0.023 -0.27 -0.008 -0.402 0.008 c -0.227 -0.207 -0.383 -0.449 -0.555 -0.68 c 0.023 -0.191 0.109 -0.402 -0.004 -0.586 c -0.039 -0.047 -0.113 -0.063 -0.18 -0.055 m 0.012 0.207 c 0.016 0.133 -0.039 -0.02 0 0 m 0.246 0.961 c 0.066 0.07 0.137 0.141 0.215 0.207 c -0.207 0.043 -0.41 0.094 -0.605 0.16 c 0.105 -0.184 0.164 -0.379 0.234 -0.574 c 0.051 0.07 0.102 0.137 0.156 0.207 m -0.918 0.766 c -0.078 0.066 -0.172 0.145 -0.297 0.156 c 0.023 -0.121 0.207 -0.156 0.324 -0.215 c 0.109 -0.055 -0.023 0.039 -0.027 0.059" fill="url(#1B)"/><path d="m 8.594 13.523 c -0.078 0.012 -0.121 0.043 -0.156 0.172 c -0.035 0.133 0 0.371 0.051 0.551 c 0.02 0.059 0.043 0.117 0.066 0.18 c -0.012 0.09 -0.027 0.18 -0.051 0.266 c -0.086 0.363 -0.184 0.723 -0.328 1.063 c -0.207 0.105 -0.402 0.219 -0.594 0.348 c -0.113 0.074 -0.32 0.281 -0.129 0.387 c 0.105 0.063 0.219 0.051 0.32 0 c 0.051 -0.023 0.098 -0.059 0.141 -0.098 c 0.043 -0.039 0.086 -0.078 0.117 -0.121 c 0.102 -0.133 0.191 -0.273 0.266 -0.422 c 0.309 -0.141 0.621 -0.258 0.945 -0.34 c 0.137 0.121 0.336 0.242 0.504 0.121 c 0.172 -0.078 0.145 -0.313 -0.051 -0.316 c -0.129 -0.027 -0.254 -0.012 -0.379 0.02 c -0.055 -0.066 -0.105 -0.137 -0.152 -0.199 c -0.152 -0.246 -0.293 -0.504 -0.422 -0.762 c 0.035 -0.238 0.07 -0.504 0.043 -0.676 c -0.027 -0.172 -0.109 -0.184 -0.191 -0.172 m -0.027 0.176 c 0.02 -0.043 0.074 0.004 0.074 0.066 c 0 0.063 -0.012 0.203 -0.055 0.242 c -0.031 -0.102 -0.039 -0.262 -0.02 -0.309 m 0.113 1.012 c 0.117 0.242 0.262 0.473 0.445 0.672 c -0.055 0.016 -0.109 0.031 -0.16 0.047 c -0.195 0.063 -0.383 0.137 -0.57 0.223 c 0.133 -0.301 0.219 -0.621 0.285 -0.941 m 0.82 0.75 c 0.066 -0.004 0.121 0.016 0.109 0.082 c -0.059 -0.016 -0.109 -0.043 -0.156 -0.078 c 0.016 -0.004 0.031 -0.004 0.047 -0.004 m -1.422 0.492 c -0.016 0.031 -0.027 0.059 -0.043 0.09 c -0.098 0.152 -0.238 0.348 -0.434 0.344 c -0.059 -0.168 0.18 -0.262 0.293 -0.34 c 0.059 -0.031 0.121 -0.063 0.184 -0.094" fill="url(#1C)"/><g fill-rule="evenodd"><path d="m 10.953 14.465 v 2.297 h 2.039 v -1.723 l -0.508 -0.574" fill="#fff"/><path d="m 10.934 14.508 v 2.277 h 2.02 v -1.707 l -0.504 -0.57" fill="url(#1D)"/><path d="m 10.922 14.504 c 0 0.766 0 1.531 0 2.297 c 0.68 0 1.359 0 2.043 0 c 0 -0.578 0 -1.152 0 -1.727 c -0.172 -0.195 -0.34 -0.387 -0.512 -0.578 c -0.512 0 -1.023 0 -1.531 0 c 0 0 0 0.004 0 0.008" fill="url(#1E)"/><path d="m 10.906 14.488 c 0 0.773 0 1.551 0 2.324 c 0.691 0 1.383 0 2.074 0 c 0 -0.582 0 -1.164 0 -1.746 c -0.176 -0.195 -0.348 -0.391 -0.52 -0.586 c -0.52 0 -1.039 0 -1.555 0 c 0 0 0 0.004 0 0.008" fill="url(#1F)"/><path d="m 298.02 136.87 v 495.34 h 452.33 v -371.51 l -113.3 -123.84" transform="matrix(0.00452 0 0 0.00464 9.607 13.834)" stroke-opacity="0.365" fill="url(#17)" stroke="#000" stroke-width="1.438"/><path d="m 12.996 15.04 c -0.156 -0.047 -0.355 -0.039 -0.504 -0.016 c 0.023 -0.168 0.027 -0.383 -0.008 -0.559" fill="url(#1G)"/><path d="m 10.969 14.645 l -0.012 2.105 h 2.01 v -0.52 c -0.047 0.016 -0.5 -0.641 -1.066 -0.613 c -0.574 0.027 -0.426 -0.887 -0.93 -0.973" fill="url(#1H)"/></g><path d="m 11.926 15.15 c -0.051 0.004 -0.078 0.02 -0.102 0.082 c -0.023 0.063 0 0.176 0.031 0.266 c 0.012 0.027 0.027 0.055 0.043 0.086 c -0.008 0.043 -0.02 0.086 -0.031 0.125 c -0.059 0.176 -0.121 0.348 -0.219 0.512 c -0.133 0.051 -0.262 0.105 -0.387 0.168 c -0.074 0.035 -0.211 0.133 -0.086 0.184 c 0.07 0.031 0.145 0.023 0.211 0 c 0.031 -0.012 0.063 -0.027 0.094 -0.047 c 0.027 -0.02 0.055 -0.039 0.074 -0.059 c 0.066 -0.063 0.125 -0.133 0.176 -0.203 c 0.199 -0.066 0.406 -0.125 0.621 -0.164 c 0.09 0.059 0.219 0.117 0.332 0.059 c 0.109 -0.035 0.09 -0.148 -0.035 -0.152 c -0.086 -0.012 -0.168 -0.004 -0.25 0.012 c -0.035 -0.031 -0.07 -0.066 -0.102 -0.098 c -0.098 -0.117 -0.191 -0.238 -0.277 -0.363 c 0.023 -0.113 0.051 -0.242 0.031 -0.324 c -0.02 -0.082 -0.074 -0.09 -0.125 -0.082 m -0.02 0.086 c 0.016 -0.023 0.051 0 0.051 0.031 c -0.004 0.031 -0.008 0.098 -0.039 0.117 c -0.02 -0.051 -0.023 -0.125 -0.012 -0.148 m 0.074 0.484 c 0.078 0.117 0.172 0.227 0.293 0.32 c -0.035 0.008 -0.07 0.016 -0.105 0.023 c -0.129 0.031 -0.254 0.066 -0.375 0.105 c 0.086 -0.145 0.145 -0.297 0.188 -0.449 m 0.539 0.359 c 0.043 -0.004 0.078 0.008 0.07 0.039 c -0.035 -0.008 -0.07 -0.023 -0.102 -0.039 c 0.012 0 0.02 0 0.031 0 m -0.934 0.234 c -0.008 0.016 -0.016 0.031 -0.027 0.043 c -0.063 0.074 -0.156 0.168 -0.285 0.164 c -0.039 -0.078 0.121 -0.125 0.191 -0.16 c 0.039 -0.016 0.082 -0.031 0.121 -0.047" fill="url(#1I)"/><path d="m 11.922 15.13 c -0.129 0.016 -0.137 0.137 -0.125 0.215 c 0.016 0.082 0.031 0.16 0.078 0.234 c -0.055 0.215 -0.133 0.422 -0.242 0.625 c -0.172 0.074 -0.363 0.133 -0.496 0.246 c -0.047 0.043 -0.039 0.113 0.039 0.133 c 0.137 0.059 0.293 -0.02 0.383 -0.102 c 0.082 -0.059 0.125 -0.145 0.199 -0.211 c 0.191 -0.059 0.387 -0.113 0.59 -0.156 c 0.094 0.063 0.242 0.113 0.355 0.051 c 0.109 -0.031 0.09 -0.172 -0.031 -0.176 c -0.086 -0.016 -0.176 -0.004 -0.262 0.004 c -0.148 -0.137 -0.254 -0.293 -0.367 -0.445 c 0.016 -0.125 0.074 -0.266 -0.004 -0.387 c -0.023 -0.027 -0.074 -0.039 -0.117 -0.031 m 0.008 0.133 c 0.012 0.09 -0.023 -0.012 0 0 m 0.164 0.629 c 0.043 0.047 0.09 0.094 0.141 0.137 c -0.137 0.031 -0.27 0.063 -0.398 0.105 c 0.07 -0.121 0.109 -0.25 0.152 -0.375 c 0.035 0.043 0.07 0.09 0.105 0.133 m -0.602 0.504 c -0.051 0.047 -0.113 0.094 -0.195 0.102 c 0.012 -0.078 0.137 -0.102 0.211 -0.137 c 0.074 -0.039 -0.016 0.023 -0.016 0.035" fill="url(#1J)"/><path d="m 11.891 14.645 c -0.051 0.008 -0.078 0.027 -0.102 0.117 c -0.023 0.086 0 0.238 0.031 0.359 c 0.012 0.039 0.031 0.078 0.043 0.117 c -0.008 0.059 -0.016 0.117 -0.031 0.176 c -0.059 0.234 -0.121 0.473 -0.219 0.695 c -0.133 0.07 -0.262 0.145 -0.387 0.23 c -0.074 0.047 -0.211 0.18 -0.086 0.254 c 0.07 0.039 0.145 0.031 0.211 0 c 0.035 -0.02 0.066 -0.039 0.094 -0.066 c 0.027 -0.023 0.055 -0.051 0.078 -0.078 c 0.066 -0.09 0.121 -0.18 0.172 -0.277 c 0.203 -0.094 0.41 -0.172 0.621 -0.227 c 0.09 0.082 0.219 0.164 0.332 0.082 c 0.109 -0.051 0.094 -0.207 -0.035 -0.207 c -0.082 -0.02 -0.168 -0.008 -0.25 0.012 c -0.035 -0.043 -0.07 -0.086 -0.098 -0.129 c -0.102 -0.164 -0.191 -0.332 -0.277 -0.5 c 0.023 -0.156 0.047 -0.332 0.027 -0.441 c -0.02 -0.113 -0.074 -0.125 -0.125 -0.117 m -0.016 0.117 c 0.012 -0.031 0.047 0.004 0.047 0.043 c 0 0.043 -0.008 0.133 -0.035 0.16 c -0.023 -0.066 -0.027 -0.172 -0.012 -0.203 m 0.07 0.664 c 0.078 0.16 0.176 0.313 0.293 0.441 c -0.035 0.012 -0.07 0.02 -0.105 0.027 c -0.125 0.043 -0.25 0.094 -0.375 0.148 c 0.09 -0.195 0.145 -0.406 0.188 -0.617 m 0.539 0.492 c 0.047 -0.004 0.082 0.008 0.07 0.055 c -0.035 -0.012 -0.07 -0.031 -0.102 -0.055 c 0.012 0 0.023 0 0.031 0 m -0.934 0.324 c -0.008 0.02 -0.016 0.039 -0.027 0.055 c -0.063 0.102 -0.156 0.23 -0.285 0.227 c -0.035 -0.109 0.121 -0.172 0.191 -0.223 c 0.043 -0.02 0.082 -0.039 0.121 -0.059" fill="url(#1K)"/></svg>