<svg xmlns="http://www.w3.org/2000/svg" viewBox="0 0 24 24"><path d="m 4.203 20.52 c -18.922 -24.973 33.15 -28.52 16.438 -3.03 c -3.809 5.813 -11.426 9.645 -16.438 3.03" fill="#4581b3"/><path d="m 8.656 5.547 c -1.309 0 -2.898 0.043 -2.898 0.043 v 10.699 h 2.125 v -3.438 c 0 0 0.371 -0.004 0.773 -0.023 c 1.453 -0.063 2.305 -0.527 3.035 -1.313 c 0.563 -0.609 0.871 -1.473 0.871 -2.531 c 0 -1.059 -0.406 -1.988 -1.012 -2.531 c -0.633 -0.578 -1.574 -0.906 -2.895 -0.906 m -0.773 1.707 c 0 0 0.449 -0.02 0.887 0 c 1.09 0.039 1.672 0.855 1.672 1.848 c 0 1.105 -0.703 1.836 -1.844 1.852 c -0.34 0.004 -0.484 0.016 -0.715 -0.008 m 8.398 -3.01 c -1.918 0 -3.152 1.129 -3.152 2.633 c -0.016 0.93 0.602 1.594 2.203 2.152 c 0.902 0.309 1.141 0.738 1.141 1.148 c 0 0.406 -0.301 0.668 -1.031 0.668 c -0.711 0 -1.758 -0.414 -2.199 -0.691 v 1.781 c 0.586 0.328 1.434 0.637 2.199 0.66 c 2.234 0.07 3.359 -1.109 3.359 -2.598 c -0.02 -1.176 -0.637 -1.945 -2.109 -2.469 c -0.949 -0.344 -1.25 -0.539 -1.25 -0.914 c 0 -0.41 0.332 -0.652 0.918 -0.652 c 0.668 0 1.672 0.438 2.02 0.633 v -1.805 c -0.473 -0.242 -1.195 -0.547 -2.098 -0.547" fill="#f4fffa"/></svg>