<svg xmlns="http://www.w3.org/2000/svg" xmlns:xlink="http://www.w3.org/1999/xlink" viewBox="0 0 24 24"><defs><g id="1" clip-path="url(#0)"><path d="m 12.52 5.512 c -1.813 0 -3.609 0.738 -4.891 2.01 c -0.781 0.773 -1.355 1.746 -1.691 2.789 h 1.508 c 0.875 -1.949 2.898 -3.426 5.074 -3.426 c 1.625 0 3.168 0.824 4.207 2.055 h -2.133 v 1.371 h 4.844 v -4.797 h -1.383 v 2.762 c -0.199 -0.266 -0.41 -0.52 -0.645 -0.754 c -1.281 -1.27 -3.082 -2.01 -4.891 -2.01 m -6.914 8.91 v 4.797 h 1.383 v -2.758 c 0.195 0.262 0.406 0.516 0.641 0.75 c 1.281 1.27 3.078 2.01 4.891 2.01 c 1.809 0 3.609 -0.738 4.891 -2.01 c 0.781 -0.777 1.359 -1.746 1.695 -2.789 h -1.512 c -0.871 1.949 -2.898 3.426 -5.074 3.426 c -1.629 0 -3.168 -0.824 -4.207 -2.055 h 2.133 v -1.371" fill-rule="evenodd" fill-opacity="0.302"/><path d="m 12.734 5.73 c -1.809 0 -3.609 0.711 -4.887 1.934 c -0.781 0.746 -1.359 1.68 -1.691 2.687 h 1.508 c 0.871 -1.879 2.895 -3.301 5.07 -3.301 c 1.629 0 3.172 0.793 4.211 1.98 h -2.133 v 1.32 h 4.84 v -4.625 h -1.383 v 2.664 c -0.195 -0.254 -0.406 -0.5 -0.645 -0.727 c -1.277 -1.223 -3.078 -1.938 -4.891 -1.938 m -6.91 8.59 v 4.625 h 1.383 v -2.66 c 0.195 0.254 0.406 0.5 0.641 0.723 c 1.277 1.223 3.078 1.938 4.887 1.938 c 1.813 0 3.613 -0.715 4.895 -1.938 c 0.781 -0.746 1.355 -1.68 1.691 -2.688 h -1.508 c -0.875 1.883 -2.898 3.305 -5.078 3.305 c -1.625 0 -3.164 -0.797 -4.203 -1.984 h 2.133 v -1.32" fill="#fff" fill-rule="evenodd"/></g><clipPath id="0"><path d="M 0,0 H24 V24 H0 z"/></clipPath><clipPath><path d="M 0,0 H24 V24 H0 z"/></clipPath><filter filterUnits="objectBoundingBox" x="0" y="0" width="24" height="24"><feColorMatrix type="matrix" in="SourceGraphic" values="0 0 0 0 1 0 0 0 0 1 0 0 0 0 1 0 0 0 1 0"/></filter><mask/></defs><path d="m 1.98 19.05 c 4.59 8.297 18.969 5.078 21.402 -1.754 c 2.898 -8.141 -4.648 -23.598 -17.43 -14.543 c -4.305 3.16 -8.563 7.996 -3.973 16.297" fill="#d4aa00"/><use xlink:href="#1"/></svg>