<svg xmlns="http://www.w3.org/2000/svg" xmlns:xlink="http://www.w3.org/1999/xlink" viewBox="0 0 24 24"><defs><g id="4" clip-path="url(#3)"><path d="m 18.383 9.445 v 5.945 l -5.809 2.973 l -5.812 -2.969 l -0.004 -5.949 l 5.812 -2.973"/><path d="m 14.895 12.418 c 0.016 0.715 -0.426 1.383 -1.152 1.742 c -0.723 0.363 -1.621 0.363 -2.348 0 c -0.723 -0.359 -1.16 -1.027 -1.152 -1.742 c -0.012 -0.715 0.43 -1.379 1.152 -1.738 c 0.727 -0.363 1.621 -0.363 2.348 0 c 0.727 0.359 1.164 1.023 1.152 1.738"/></g><clipPath id="5"><path d="m 6 5 h 12 v 13 h -12"/></clipPath><clipPath id="6"><path d="m 9 9 h 6 v 5 h -6"/></clipPath><clipPath id="3"><path d="M 0,0 H24 V24 H0 z"/></clipPath><clipPath id="0"><path d="m 25.359 11.926 c 0 6.297 -5.988 11.395 -13.371 11.395 c -7.383 0 -13.371 -5.098 -13.371 -11.395 c 0 -6.297 5.988 -11.398 13.371 -11.398 c 7.383 0 13.371 5.102 13.371 11.398"/></clipPath><filter id="1" filterUnits="objectBoundingBox" x="0" y="0" width="24" height="24"><feColorMatrix type="matrix" in="SourceGraphic" values="0 0 0 0 1 0 0 0 0 1 0 0 0 0 1 0 0 0 1 0"/></filter><mask id="2"><g filter="url(#1)"><path fill-opacity="0.102" d="M 0,0 H24 V24 H0 z"/></g></mask></defs><path d="m 4.945 21.66 c 18.05 11.996 29.16 -26.26 5.832 -21.2 c -9.637 2.16 -15.488 15.691 -5.832 21.2" fill="#9acd31"/><g clip-path="url(#0)"><use xlink:href="#4" mask="url(#2)"/></g><g clip-path="url(#5)"><g clip-path="url(#0)"><path d="m 17.801 8.949 v 5.945 l -5.809 2.973 l -5.813 -2.969 l -0.004 -5.945 l 5.813 -2.973" fill="#007f00"/></g></g><g clip-path="url(#6)"><g clip-path="url(#0)"><path d="m 14.313 11.926 c 0.016 0.711 -0.426 1.379 -1.148 1.742 c -0.727 0.359 -1.621 0.359 -2.352 0 c -0.723 -0.363 -1.16 -1.027 -1.152 -1.742 c -0.012 -0.719 0.43 -1.383 1.152 -1.742 c 0.727 -0.363 1.621 -0.363 2.352 0 c 0.723 0.359 1.16 1.023 1.148 1.742" fill="#ffd6b9"/></g></g></svg>