<svg xmlns="http://www.w3.org/2000/svg" viewBox="0 0 24 24"><path d="m 2.063 19.07 c 4.551 8.266 18.809 5.059 21.22 -1.746 c 2.875 -8.105 -4.605 -23.496 -17.277 -14.48 c -4.27 3.148 -8.496 7.965 -3.945 16.227" fill="#d7bfd7"/><path d="m 8.582 12.93 c -0.059 -0.066 -0.074 -0.504 -0.086 -2.223 c -0.016 -2.098 -0.016 -2.141 0.09 -2.242 c 0.105 -0.102 0.168 -0.105 1.363 -0.105 c 0.98 0 1.273 0.016 1.352 0.07 c 0.09 0.066 0.102 0.164 0.113 1.223 c 0.02 1.301 0 1.457 -0.168 1.52 c -0.063 0.023 -0.551 0.055 -1.086 0.063 c -0.531 0.012 -0.992 0.035 -1.023 0.055 c -0.035 0.02 -0.07 0.34 -0.09 0.805 c -0.016 0.484 -0.051 0.801 -0.09 0.848 c -0.086 0.098 -0.285 0.094 -0.375 -0.012 m 2.219 -2.355 c 0.02 -0.309 0.004 -1.551 -0.016 -1.582 c -0.035 -0.055 -1.602 -0.051 -1.656 0.004 c -0.039 0.035 -0.02 1.508 0.02 1.57 c 0.027 0.047 1.652 0.051 1.652 0.008" fill="#e6cef8"/><path d="m 14.617 16.645 c -0.023 -0.098 -0.055 -0.383 -0.074 -0.637 c -0.027 -0.422 -0.039 -0.465 -0.164 -0.523 c -0.105 -0.055 -0.992 -0.066 -4.539 -0.055 l -4.41 0.016 v -0.281 h 4.473 c 3.996 0 4.48 -0.008 4.555 -0.082 c 0.074 -0.07 0.082 -0.543 0.082 -4.426 v -4.344 h 0.289 l -0.016 4.285 c -0.012 3.461 0 4.309 0.055 4.414 c 0.066 0.117 0.105 0.129 0.625 0.16 c 0.305 0.023 0.609 0.059 0.68 0.086 c 0.113 0.039 0.082 0.051 -0.215 0.102 c -0.191 0.035 -0.477 0.059 -0.637 0.059 c -0.43 0 -0.473 0.051 -0.523 0.621 c -0.023 0.262 -0.066 0.547 -0.09 0.633 l -0.047 0.152 l -0.043 -0.176 m -6.316 -3.523 c -0.016 -0.035 -0.027 -0.125 -0.027 -0.191 c 0 -0.066 -0.023 -0.125 -0.051 -0.125 c -0.031 0 -0.055 0.035 -0.055 0.078 c 0 0.043 -0.047 0.078 -0.105 0.078 c -0.113 0 -0.316 -0.34 -0.414 -0.691 c -0.203 -0.754 -0.16 -2.824 0.074 -3.473 c 0.281 -0.789 0.922 -1.105 2.234 -1.105 c 1.207 0.004 1.871 0.289 2.152 0.926 c 0.258 0.586 0.285 1.73 0.059 2.32 c -0.25 0.641 -0.492 0.887 -1.242 1.246 c -0.293 0.141 -0.684 0.375 -0.867 0.52 c -0.539 0.422 -0.684 0.48 -1.246 0.484 c -0.359 0.004 -0.492 -0.016 -0.512 -0.066 m 0.656 -0.184 c 0.039 -0.047 0.074 -0.363 0.094 -0.848 c 0.016 -0.469 0.051 -0.785 0.086 -0.805 c 0.031 -0.02 0.492 -0.043 1.027 -0.055 c 0.531 -0.008 1.02 -0.039 1.082 -0.063 c 0.172 -0.063 0.188 -0.219 0.168 -1.52 c -0.012 -1.059 -0.023 -1.156 -0.113 -1.223 c -0.078 -0.055 -0.371 -0.07 -1.352 -0.07 c -1.195 0 -1.258 0.004 -1.363 0.105 c -0.105 0.102 -0.105 0.145 -0.09 2.242 c 0.016 2.289 0.02 2.309 0.277 2.309 c 0.066 0 0.148 -0.035 0.184 -0.074 m 0.191 -2.375 c -0.039 -0.063 -0.059 -1.535 -0.02 -1.57 c 0.055 -0.055 1.625 -0.059 1.656 -0.004 c 0.02 0.031 0.035 1.273 0.02 1.582 c -0.004 0.043 -1.629 0.039 -1.656 -0.008" fill="#9b43cd"/><path d="m 6.602 18.586 c 0.027 -0.77 0.039 -0.84 0.18 -1.113 c 0.164 -0.316 0.332 -0.449 0.801 -0.633 c 0.289 -0.113 0.34 -0.113 2.324 -0.117 c 2.262 0 2.406 0.02 2.852 0.348 c 0.422 0.313 0.457 0.453 0.531 1.992 l 0.016 0.348 h -6.73 m 11.465 -5.477 c -0.816 -0.039 -1.102 -0.113 -1.414 -0.363 c -0.457 -0.367 -0.531 -0.875 -0.496 -3.398 l 0.023 -1.586 l 0.145 -0.305 c 0.176 -0.375 0.258 -0.465 0.559 -0.609 c 0.316 -0.152 0.746 -0.227 1.461 -0.25 l 0.59 -0.016 v 3.289 c 0 2.602 -0.012 3.289 -0.063 3.281 c -0.039 -0.004 -0.398 -0.023 -0.805 -0.043" fill="#e56300"/><path d="m 14.523 18.527 c 0.004 -0.488 0.012 -1.109 0.012 -1.383 c 0 -0.273 0.023 -0.496 0.051 -0.496 c 0.027 0 0.059 0.039 0.07 0.086 c 0.012 0.051 0.051 -0.082 0.086 -0.293 c 0.082 -0.457 0.113 -0.531 0.258 -0.551 c 0.141 -0.023 0.301 -0.199 0.301 -0.336 c 0 -0.078 0.039 -0.113 0.133 -0.125 c 0.512 -0.055 0.859 -0.129 0.762 -0.164 c -0.211 -0.078 0.055 -0.102 1.383 -0.113 l 1.328 -0.016 v 4.273 h -4.395" fill="#6ebf03"/><path d="m 5.578 15.434 c 0.039 -0.016 0.086 -0.012 0.102 0.004 c 0.02 0.02 -0.012 0.031 -0.07 0.027 c -0.059 -0.004 -0.074 -0.016 -0.031 -0.031 m -0.148 -0.32 c 0 -0.047 2.258 -0.016 2.313 0.031 c 0.012 0.008 -0.504 0.02 -1.145 0.02 c -0.715 0 -1.168 -0.02 -1.168 -0.051 m 2.594 0.016 c 0.051 -0.016 0.125 -0.016 0.16 0 c 0.035 0.016 -0.008 0.023 -0.094 0.023 c -0.086 0 -0.117 -0.012 -0.066 -0.023 m 3.555 -0.004 c 0.094 -0.012 0.238 -0.012 0.316 0 c 0.078 0.012 0 0.023 -0.172 0.023 c -0.176 -0.004 -0.238 -0.012 -0.145 -0.023 m 1.188 0 c 0.313 -0.012 0.809 -0.012 1.105 0 c 0.293 0.008 0.039 0.016 -0.57 0.016 c -0.609 0 -0.848 -0.008 -0.535 -0.016 m 1.742 -1.266 c 0 -0.648 0.008 -0.906 0.016 -0.574 c 0.012 0.332 0.012 0.863 0 1.176 c -0.008 0.316 -0.016 0.043 -0.016 -0.602 m -6.684 0.309 c -0.449 -0.094 -0.547 -0.141 -0.824 -0.422 c -0.336 -0.336 -0.492 -0.668 -0.563 -1.188 c -0.074 -0.551 -0.078 -3.059 -0.004 -3.664 c 0.086 -0.703 0.398 -1.285 0.797 -1.484 c 0.52 -0.266 1.785 -0.484 2.781 -0.48 c 0.684 0 1.641 0.129 2.121 0.281 c 0.703 0.227 1.105 0.629 1.246 1.25 c 0.148 0.648 0.145 2.766 -0.004 4.066 c -0.074 0.664 -0.18 0.879 -0.563 1.164 c -0.414 0.309 -0.762 0.395 -1.703 0.418 c -0.273 0.008 -0.754 0.039 -1.074 0.07 c -0.758 0.074 -1.813 0.07 -2.211 -0.012 m 1.687 -1.09 c 0.113 -0.059 0.359 -0.223 0.547 -0.371 c 0.184 -0.145 0.574 -0.379 0.867 -0.52 c 0.75 -0.359 0.992 -0.605 1.238 -1.246 c 0.23 -0.59 0.199 -1.734 -0.055 -2.32 c -0.281 -0.637 -0.945 -0.922 -2.152 -0.926 c -1.313 0 -1.953 0.316 -2.238 1.105 c -0.23 0.648 -0.273 2.719 -0.07 3.473 c 0.098 0.352 0.301 0.691 0.414 0.691 c 0.059 0 0.105 -0.035 0.105 -0.078 c 0 -0.043 0.023 -0.078 0.051 -0.078 c 0.031 0 0.055 0.059 0.055 0.125 c 0 0.25 0.023 0.262 0.539 0.258 c 0.387 -0.004 0.531 -0.027 0.699 -0.113 m 4.988 -0.602 c 0 -0.113 0.012 -0.152 0.023 -0.09 c 0.012 0.066 0.012 0.156 0 0.207 c -0.016 0.047 -0.027 -0.004 -0.023 -0.117 m 0 -3.582 c 0 -0.168 0.012 -0.23 0.023 -0.137 c 0.012 0.09 0.012 0.23 0 0.305 c -0.012 0.078 -0.023 0.004 -0.023 -0.168 m -0.023 -1.457 c -0.02 -0.602 -0.027 -1.109 -0.012 -1.121 c 0.063 -0.063 0.074 0.129 0.063 1.129 l -0.016 1.094" fill="#5b0ca3"/><path d="m 5.43 17.523 v -1.887 l 1.488 -0.035 c 0.816 -0.02 2.695 -0.031 4.172 -0.027 c 1.477 0.004 2.805 -0.008 2.953 -0.027 c 0.203 -0.027 0.285 -0.02 0.348 0.039 c 0.086 0.086 0.234 0.969 0.176 1.059 c -0.02 0.031 -0.035 0.629 -0.031 1.332 c 0 0.703 -0.012 1.313 -0.031 1.355 c -0.023 0.063 -0.141 0.074 -0.602 0.074 c -0.676 0 -0.609 0.105 -0.648 -0.965 c -0.035 -0.859 -0.121 -1.094 -0.496 -1.371 c -0.445 -0.332 -0.59 -0.348 -2.852 -0.348 c -1.984 0.004 -2.035 0.004 -2.324 0.117 c -0.469 0.184 -0.637 0.316 -0.801 0.633 c -0.141 0.273 -0.152 0.344 -0.18 1.113 l -0.027 0.824 h -1.145 m 9.426 -3.629 c 0 -0.176 0.16 -0.324 0.32 -0.305 c 0.242 0.035 0.09 0.348 -0.203 0.414 c -0.102 0.027 -0.117 0.008 -0.117 -0.109 m 0.527 -0.648 c -0.215 -0.031 -0.402 -0.086 -0.43 -0.129 c -0.027 -0.039 -0.035 -0.172 -0.016 -0.297 c 0.016 -0.125 0.035 -1.738 0.039 -3.582 c 0.004 -1.844 0.012 -3.684 0.023 -4.082 l 0.016 -0.73 h 3.891 v 1.063 l -0.164 0.031 c -0.09 0.02 -0.379 0.035 -0.645 0.035 c -0.527 0 -0.949 0.082 -1.27 0.238 c -0.273 0.137 -0.359 0.234 -0.531 0.602 l -0.145 0.305 l -0.023 1.586 c -0.035 2.523 0.039 3.03 0.496 3.398 c 0.309 0.246 0.602 0.324 1.309 0.348 c 0.348 0.012 0.711 0.031 0.805 0.047 l 0.168 0.027 v 0.559 c 0 0.539 -0.004 0.559 -0.117 0.582 c -0.258 0.055 -3.039 0.055 -3.406 0" fill="#a34e04"/><path d="m 14.496 15.844 c -0.016 -0.273 -0.125 -0.332 -0.555 -0.297 c -0.207 0.016 -2.207 0.035 -4.445 0.043 c -3.145 0.012 -4.066 0 -4.066 -0.047 c 0 -0.098 1.645 -0.133 5.488 -0.113 c 3.875 0.016 3.648 -0.008 3.605 0.379 c -0.02 0.176 -0.02 0.18 -0.027 0.035 m 0.316 -0.016 c 0 -0.098 0.012 -0.141 0.023 -0.09 c 0.016 0.051 0.016 0.129 0 0.18 c -0.012 0.047 -0.023 0.008 -0.023 -0.09 m 0.043 -0.246 c 0 -0.09 0.199 -0.172 0.355 -0.148 l 0.145 0.02 l -0.156 0.008 c -0.082 0.004 -0.195 0.047 -0.25 0.094 c -0.055 0.047 -0.094 0.059 -0.094 0.027 m -8.03 -0.473 c -0.52 -0.02 -1.047 -0.039 -1.172 -0.043 c -0.215 -0.004 -0.223 -0.012 -0.223 -0.172 c 0 -0.156 0.02 -0.176 0.305 -0.277 c 0.371 -0.137 0.684 -0.219 1.066 -0.273 c 0.156 -0.027 0.348 -0.059 0.418 -0.078 c 0.074 -0.016 0.168 -0.035 0.215 -0.043 c 0.043 -0.004 0.105 -0.027 0.141 -0.051 c 0.035 -0.02 0.211 -0.012 0.391 0.02 c 0.191 0.035 0.785 0.055 1.41 0.047 c 0.879 -0.008 3.02 0.031 3.242 0.059 c 0.027 0.004 0.137 -0.004 0.238 -0.02 c 0.098 -0.016 0.234 -0.031 0.301 -0.031 c 0.066 -0.004 0.207 -0.082 0.313 -0.176 c 0.168 -0.148 0.191 -0.199 0.188 -0.395 c 0 -0.125 -0.023 -0.949 -0.047 -1.836 c -0.09 -3.227 -0.016 -4.266 0.363 -5.23 c 0.109 -0.273 0.129 -0.297 0.281 -0.297 h 0.168 l 0.043 0.652 c 0.059 0.879 0.047 8.04 -0.016 8.098 c -0.059 0.059 -6.348 0.098 -7.625 0.047 m 8.07 -0.031 c -0.059 -0.07 -0.074 -0.688 -0.086 -3.441 c -0.02 -3.711 0.016 -5.324 0.117 -5.324 c 0.047 0 0.059 0.945 0.047 4.03 c -0.008 2.215 -0.027 4.152 -0.043 4.309 c -0.031 0.34 0.008 0.41 0.27 0.461 l 0.203 0.039 l -0.219 0.004 c -0.141 0.004 -0.238 -0.023 -0.289 -0.078" fill="#581166"/><path d="m 5.43 10.508 v -4.195 h 4.324 c 4.094 0 4.32 0.004 4.293 0.09 c -0.016 0.051 -0.078 0.219 -0.137 0.379 c -0.152 0.418 -0.266 1.094 -0.309 1.887 c -0.047 0.895 -0.047 1.238 0.008 3.168 c 0.023 0.887 0.043 1.715 0.047 1.84 c 0.004 0.195 -0.02 0.246 -0.188 0.395 c -0.105 0.094 -0.246 0.172 -0.313 0.176 c -0.066 0 -0.203 0.016 -0.305 0.031 c -0.102 0.012 -0.207 0.023 -0.234 0.02 c -0.031 -0.004 -0.547 -0.016 -1.148 -0.027 c -0.605 -0.008 -1.109 -0.031 -1.125 -0.043 c -0.066 -0.066 0.438 -0.141 0.891 -0.137 c 0.773 0.008 1.16 -0.09 1.578 -0.398 c 0.383 -0.285 0.488 -0.5 0.563 -1.164 c 0.148 -1.301 0.152 -3.418 0.004 -4.066 c -0.141 -0.621 -0.543 -1.023 -1.246 -1.25 c -0.48 -0.152 -1.438 -0.281 -2.121 -0.281 c -0.996 -0.004 -2.262 0.215 -2.781 0.48 c -0.398 0.203 -0.711 0.781 -0.797 1.488 c -0.074 0.602 -0.07 3.113 0.004 3.66 c 0.031 0.254 0.109 0.535 0.188 0.688 c 0.156 0.309 0.559 0.723 0.801 0.82 c 0.18 0.074 0.188 0.133 0.016 0.156 c -0.047 0.004 -0.148 0.023 -0.223 0.043 c -0.07 0.02 -0.262 0.051 -0.418 0.078 c -0.406 0.059 -0.777 0.152 -1.047 0.266 c -0.125 0.051 -0.25 0.094 -0.273 0.094 c -0.031 0 -0.051 -1.688 -0.051 -4.195" fill="#370070"/></svg>