<svg xmlns="http://www.w3.org/2000/svg" viewBox="0 0 24 24" xmlns:xlink="http://www.w3.org/1999/xlink"><defs><linearGradient id="2" gradientUnits="userSpaceOnUse" x1="-602.56" y1="-582.88" x2="612.14" y2="227.18" gradientTransform="matrix(0.01214 0 0 0.01216 1.146 11.05)" xlink:href="#0"/><linearGradient id="1" gradientUnits="userSpaceOnUse" x1="610.85" y1="220.39" x2="758.95" y2="72.28" spreadMethod="reflect" gradientTransform="matrix(-0.02225 0.01287 -0.01285 -0.02229 30.09 10.705)"><stop stop-color="#5c5c5c"/><stop offset="1" stop-color="#000"/></linearGradient><radialGradient id="0" gradientUnits="userSpaceOnUse" cx="1129.63" cy="322.76" r="506.42" gradientTransform="matrix(0.04039 -0.01084 0.01082 0.04046 -24.583 17.3)"><stop stop-color="#fff"/><stop offset="1" stop-color="#fff" stop-opacity="0"/></radialGradient></defs><path d="m 21.938 5.03 c -4.551 -8.262 -18.813 -5.05 -21.22 1.746 c -2.875 8.105 4.605 23.496 17.277 14.48 c 4.27 -3.148 8.492 -7.965 3.941 -16.227" fill="#b0c3de"/><path d="m -52.694 -94.3 c -141.19 0 -255.65 114.54 -255.65 255.96 c 0 141.42 114.45 255.96 255.65 255.96 c 141.35 0 255.8 -114.54 255.8 -255.96 c 0 -141.42 -114.45 -255.96 -255.8 -255.96 m 0.917 219.15 c 19.407 0 35.3 15.73 35.3 35.28 c 0 19.396 -15.892 35.28 -35.3 35.28 c -19.559 0 -35.3 -15.883 -35.3 -35.28 c 0 -19.548 15.739 -35.28 35.3 -35.28" transform="matrix(0.02556 0 0 0.02558 13.425 7.451)" stroke="#fff" stroke-width="1.5"/><path d="m 8.965 6.184 c 0.379 -0.156 0.824 -0.414 1.258 -0.527 c 2.313 -0.758 5.02 0.023 6.574 1.895 c 0.211 0.199 0.605 0.875 0.637 0.848 c -1.219 -2.117 -3.766 -3.352 -6.18 -2.996 c -0.805 0.105 -1.586 0.375 -2.289 0.781 m 0.07 0.113 c 0.367 -0.148 0.805 -0.402 1.23 -0.516 c 2.285 -0.746 4.961 0.043 6.477 1.91 c 0.188 0.188 0.527 0.773 0.578 0.777 c -1.195 -2.074 -3.688 -3.281 -6.05 -2.934 c -0.785 0.105 -1.551 0.363 -2.238 0.762 m 0.07 0.117 c 0.359 -0.145 0.785 -0.395 1.203 -0.504 c 2.234 -0.734 4.855 0.039 6.336 1.867 c 0.184 0.184 0.516 0.754 0.566 0.758 c -1.184 -2.051 -3.66 -3.23 -5.992 -2.859 c -0.742 0.109 -1.465 0.359 -2.113 0.738 m 0.066 0.113 c 0.352 -0.141 0.77 -0.383 1.176 -0.488 c 2.207 -0.723 4.797 0.055 6.238 1.879 c 0.188 0.203 0.766 1.129 0.359 0.445 c -1.254 -1.945 -3.727 -2.98 -5.984 -2.508 c -0.629 0.125 -1.238 0.352 -1.789 0.672 m 0.066 0.117 c 0.699 -0.344 1.539 -0.672 2.367 -0.719 c 2.141 -0.207 4.336 0.941 5.391 2.82 c -0.34 -0.711 -0.988 -1.367 -1.66 -1.844 c -1.766 -1.254 -4.234 -1.363 -6.098 -0.258 m 0.066 0.117 c 0.688 -0.34 1.504 -0.656 2.313 -0.703 c 2.09 -0.199 4.23 0.918 5.262 2.754 c -0.328 -0.695 -0.965 -1.336 -1.617 -1.801 c -1.727 -1.227 -4.137 -1.328 -5.957 -0.25 m 0.066 0.113 c 0.668 -0.328 1.469 -0.641 2.258 -0.684 c 2.039 -0.195 4.129 0.898 5.137 2.688 c -0.32 -0.68 -0.945 -1.305 -1.582 -1.758 c -1.684 -1.195 -4.04 -1.297 -5.813 -0.246 m 0.066 0.117 c 0.652 -0.316 1.43 -0.625 2.203 -0.668 c 1.988 -0.191 4.03 0.875 5.01 2.621 c -0.309 -0.66 -0.918 -1.27 -1.539 -1.715 c -1.645 -1.168 -3.938 -1.266 -5.672 -0.238 m 0.066 0.113 c 0.637 -0.305 1.395 -0.605 2.148 -0.648 c 1.938 -0.184 3.926 0.852 4.883 2.555 c -0.305 -0.645 -0.898 -1.238 -1.504 -1.672 c -1.602 -1.137 -3.836 -1.234 -5.527 -0.234 m 0.066 0.117 c 0.617 -0.297 1.359 -0.594 2.09 -0.633 c 1.891 -0.18 3.828 0.832 4.758 2.488 c -0.293 -0.625 -0.871 -1.207 -1.461 -1.629 c -1.559 -1.109 -3.738 -1.199 -5.387 -0.227 m 0.066 0.117 c 0.602 -0.285 1.324 -0.578 2.035 -0.617 c 1.84 -0.176 3.723 0.809 4.629 2.422 c -0.281 -0.609 -0.848 -1.176 -1.422 -1.586 c -1.516 -1.078 -3.637 -1.168 -5.242 -0.219 m 0.066 0.113 c 0.586 -0.273 1.289 -0.563 1.98 -0.598 c 1.789 -0.172 3.621 0.789 4.504 2.355 c -0.27 -0.59 -0.828 -1.145 -1.383 -1.543 c -1.477 -1.047 -3.539 -1.137 -5.102 -0.215 m 0.066 0.117 c 0.57 -0.27 1.254 -0.547 1.926 -0.582 c 1.738 -0.164 3.52 0.766 4.375 2.289 c -0.262 -0.574 -0.801 -1.113 -1.344 -1.496 c -1.434 -1.023 -3.438 -1.109 -4.957 -0.211 m 0.066 0.113 c 0.551 -0.254 1.215 -0.527 1.871 -0.563 c 1.688 -0.16 3.418 0.742 4.25 2.227 c -0.25 -0.559 -0.781 -1.082 -1.305 -1.457 c -1.395 -0.992 -3.34 -1.078 -4.816 -0.207 m 0.066 0.117 c 0.535 -0.246 1.18 -0.516 1.816 -0.547 c 1.637 -0.156 3.316 0.723 4.121 2.16 c -0.238 -0.543 -0.754 -1.051 -1.262 -1.414 c -1.355 -0.965 -3.246 -1.043 -4.676 -0.199 m 0.066 0.117 c 0.52 -0.242 1.145 -0.5 1.762 -0.531 c 1.586 -0.148 3.211 0.699 3.996 2.094 c -0.234 -0.527 -0.734 -1.02 -1.227 -1.371 c -1.313 -0.934 -3.145 -1.012 -4.531 -0.191 m 0.066 0.113 c 0.5 -0.227 1.109 -0.48 1.707 -0.508 c 1.535 -0.148 3.109 0.676 3.867 2.023 c -0.223 -0.508 -0.711 -0.988 -1.188 -1.328 c -1.27 -0.902 -3.043 -0.98 -4.387 -0.188 m 0.066 0.117 c 0.484 -0.219 1.074 -0.465 1.652 -0.492 c 1.484 -0.145 3.01 0.652 3.738 1.957 c -0.211 -0.492 -0.684 -0.957 -1.145 -1.285 c -1.23 -0.875 -2.945 -0.949 -4.246 -0.18 m 0.066 0.113 c 0.469 -0.207 1.039 -0.449 1.594 -0.473 c 1.438 -0.141 2.91 0.629 3.617 1.891 c -0.203 -0.477 -0.664 -0.922 -1.109 -1.242 c -1.188 -0.844 -2.844 -0.914 -4.102 -0.176 m 0.066 0.117 c 0.453 -0.195 1 -0.434 1.539 -0.457 c 1.387 -0.133 2.805 0.609 3.488 1.824 c -0.191 -0.457 -0.637 -0.891 -1.066 -1.199 c -1.148 -0.816 -2.746 -0.883 -3.957 -0.168 m 0.066 0.117 c 0.43 -0.191 0.961 -0.422 1.48 -0.441 c 1.336 -0.129 2.703 0.586 3.363 1.758 c -0.184 -0.441 -0.617 -0.859 -1.031 -1.156 c -1.102 -0.785 -2.645 -0.852 -3.813 -0.16 m 0.066 0.113 c 0.414 -0.176 0.926 -0.402 1.426 -0.422 c 1.285 -0.125 2.602 0.566 3.234 1.691 c -0.172 -0.422 -0.594 -0.828 -0.988 -1.113 c -1.063 -0.758 -2.547 -0.82 -3.672 -0.156 m 0.066 0.117 c 0.398 -0.168 0.891 -0.391 1.371 -0.406 c 1.234 -0.117 2.5 0.543 3.109 1.625 c -0.164 -0.406 -0.57 -0.797 -0.949 -1.07 c -1.023 -0.727 -2.453 -0.789 -3.531 -0.148 m 0.066 0.113 c 0.383 -0.16 0.855 -0.371 1.316 -0.387 c 1.184 -0.113 2.398 0.52 2.98 1.559 c -0.152 -0.387 -0.547 -0.762 -0.91 -1.027 c -0.98 -0.695 -2.352 -0.754 -3.387 -0.145 m 0.066 0.117 c 0.363 -0.148 0.82 -0.355 1.262 -0.371 c 1.133 -0.109 2.297 0.5 2.855 1.492 c -0.145 -0.371 -0.523 -0.73 -0.871 -0.984 c -0.941 -0.668 -2.254 -0.723 -3.246 -0.137 m 0.066 0.117 c 0.57 -0.277 1.309 -0.465 1.98 -0.316 c 0.824 0.133 1.547 0.723 1.977 1.375 c -0.707 -1.289 -2.461 -1.832 -3.77 -1.16 c -0.063 0.031 -0.125 0.063 -0.188 0.102 m 0.066 0.113 c 0.68 -0.34 1.594 -0.484 2.352 -0.168 c 0.598 0.203 1.09 0.707 1.422 1.184 c -0.711 -1.305 -2.508 -1.785 -3.773 -1.016 m 0.066 0.117 c 0.648 -0.324 1.516 -0.461 2.238 -0.16 c 0.57 0.191 1.035 0.672 1.352 1.125 c -0.676 -1.242 -2.383 -1.699 -3.59 -0.965 m 0.066 0.113 c 0.613 -0.301 1.438 -0.438 2.125 -0.148 c 0.539 0.18 0.984 0.641 1.285 1.066 c -0.645 -1.176 -2.266 -1.613 -3.41 -0.918 m 0.066 0.117 c 0.582 -0.285 1.363 -0.414 2.01 -0.141 c 0.516 0.168 0.934 0.609 1.219 1.01 c -0.609 -1.113 -2.141 -1.527 -3.227 -0.867 m 0.066 0.117 c 0.547 -0.262 1.285 -0.395 1.895 -0.133 c 0.488 0.156 0.879 0.578 1.152 0.949 c -0.574 -1.051 -2.023 -1.441 -3.047 -0.816 m 0.066 0.113 c 0.512 -0.242 1.211 -0.367 1.781 -0.121 c 0.457 0.148 0.828 0.547 1.082 0.891 c -0.539 -0.988 -1.902 -1.352 -2.863 -0.77 m 0.066 0.117 c 0.48 -0.223 1.133 -0.344 1.668 -0.113 c 0.371 0.059 0.945 0.727 0.965 0.75 c -0.539 -0.871 -1.754 -1.164 -2.633 -0.637 m 0.07 0.113 c 0.441 -0.199 1.051 -0.32 1.551 -0.102 c 0.348 0.055 0.875 0.676 0.898 0.699 c -0.504 -0.813 -1.633 -1.086 -2.449 -0.598 m 0.066 0.117 c 0.406 -0.18 0.977 -0.297 1.438 -0.094 c 0.324 0.055 0.805 0.621 0.832 0.645 c -0.465 -0.754 -1.512 -1.01 -2.27 -0.551 m 0.066 0.117 c 0.375 -0.164 0.898 -0.277 1.324 -0.086 c 0.301 0.051 0.738 0.574 0.77 0.594 c -0.43 -0.695 -1.398 -0.93 -2.094 -0.508 m 0.066 0.113 c 0.633 -0.355 1.582 -0.102 1.949 0.523 c -0.371 -0.676 -1.293 -0.922 -1.949 -0.523 m 0.066 0.117 c 0.574 -0.324 1.434 -0.09 1.77 0.473 c -0.336 -0.609 -1.172 -0.836 -1.77 -0.473 m 0.066 0.113 c 0.512 -0.281 1.285 -0.074 1.586 0.43 c -0.297 -0.551 -1.055 -0.754 -1.586 -0.43 m -4.813 4.129 c 1.195 2.133 3.727 3.398 6.148 3.074 c 0.828 -0.102 1.637 -0.371 2.359 -0.789 c -0.379 0.152 -0.824 0.41 -1.258 0.527 c -2.313 0.754 -5.02 -0.023 -6.574 -1.895 c -0.258 -0.273 -0.465 -0.66 -0.676 -0.918 m 0.113 -0.066 c 1.172 2.086 3.648 3.328 6.02 3.01 c 0.813 -0.098 1.605 -0.363 2.313 -0.773 c -0.371 0.148 -0.805 0.402 -1.23 0.516 c -2.262 0.742 -4.91 -0.023 -6.434 -1.852 c -0.25 -0.27 -0.457 -0.645 -0.664 -0.898 m 0.117 -0.066 c 1.145 2.043 3.566 3.254 5.883 2.941 c 0.793 -0.098 1.566 -0.355 2.262 -0.758 c -0.363 0.145 -0.789 0.395 -1.207 0.504 c -2.211 0.727 -4.801 -0.02 -6.289 -1.813 c -0.246 -0.262 -0.445 -0.629 -0.648 -0.875 m 0.113 -0.066 c 1.133 2.02 3.539 3.203 5.824 2.867 c 0.75 -0.102 1.484 -0.352 2.141 -0.73 c -0.355 0.137 -0.773 0.383 -1.18 0.492 c -2.16 0.707 -4.695 -0.023 -6.148 -1.773 c -0.242 -0.254 -0.434 -0.621 -0.637 -0.855 m 0.117 -0.066 c 1.172 2.098 3.758 3.262 6.102 2.73 c 0.574 -0.133 1.215 -0.336 1.664 -0.664 c -2.09 1.254 -4.965 0.922 -6.715 -0.781 c -0.414 -0.363 -0.754 -0.871 -1.051 -1.285 m 0.113 -0.066 c 1.168 2.094 3.773 3.223 6.094 2.637 c 0.512 -0.133 1.098 -0.32 1.492 -0.621 c -2.043 1.227 -4.852 0.898 -6.559 -0.762 c -0.406 -0.355 -0.734 -0.855 -1.027 -1.254 m 0.117 -0.066 c 1.137 2.043 3.68 3.145 5.945 2.574 c 0.5 -0.133 1.074 -0.313 1.457 -0.605 c -1.992 1.191 -4.734 0.875 -6.402 -0.746 c -0.395 -0.348 -0.715 -0.832 -1 -1.223 m 0.117 -0.066 c 1.129 2.031 3.684 3.102 5.922 2.477 c 0.441 -0.125 0.957 -0.293 1.297 -0.559 c -1.98 1.191 -4.719 0.84 -6.336 -0.813 c -0.348 -0.32 -0.629 -0.766 -0.883 -1.105 m 0.113 -0.07 c 1.102 1.984 3.594 3.03 5.773 2.418 c 0.434 -0.125 0.941 -0.285 1.266 -0.547 c -1.934 1.16 -4.602 0.82 -6.176 -0.793 c -0.34 -0.309 -0.609 -0.746 -0.863 -1.078 m 0.117 -0.066 c 1.07 1.934 3.5 2.949 5.625 2.355 c 0.418 -0.121 0.914 -0.277 1.23 -0.531 c -1.883 1.129 -4.48 0.797 -6.02 -0.773 c -0.328 -0.301 -0.594 -0.73 -0.84 -1.051 m 0.113 -0.066 c 1.062 1.918 3.5 2.902 5.59 2.262 c 0.371 -0.117 0.813 -0.262 1.086 -0.488 c -1.867 1.125 -4.453 0.762 -5.941 -0.836 c -0.285 -0.27 -0.516 -0.664 -0.734 -0.938 m 0.117 -0.066 c 1.031 1.863 3.402 2.824 5.438 2.199 c 0.359 -0.113 0.789 -0.254 1.055 -0.473 c -1.816 1.09 -4.332 0.738 -5.777 -0.816 c -0.277 -0.262 -0.504 -0.641 -0.715 -0.91 m 0.117 -0.066 c 1 1.813 3.305 2.746 5.281 2.137 c 0.348 -0.109 0.773 -0.246 1.027 -0.461 c -1.766 1.063 -4.211 0.719 -5.613 -0.793 c -0.273 -0.254 -0.488 -0.625 -0.695 -0.883 m 0.113 -0.066 c 0.992 1.793 3.293 2.695 5.238 2.043 c 0.254 -0.02 1.309 -0.613 0.602 -0.262 c -1.82 0.918 -4.215 0.371 -5.449 -1.25 c -0.145 -0.156 -0.262 -0.414 -0.391 -0.531 m 0.113 -0.066 c 0.965 1.742 3.199 2.613 5.086 1.984 c 0.246 -0.023 1.27 -0.598 0.582 -0.258 c -1.766 0.895 -4.09 0.359 -5.289 -1.215 c -0.137 -0.148 -0.25 -0.402 -0.379 -0.512 m 0.117 -0.066 c 0.949 1.719 3.18 2.559 5.03 1.891 c 0.234 -0.035 1.109 -0.543 0.465 -0.219 c -1.711 0.867 -3.961 0.352 -5.125 -1.176 c -0.137 -0.145 -0.242 -0.391 -0.367 -0.496 m 0.117 -0.066 c 0.918 1.664 3.078 2.48 4.867 1.832 c 0.227 -0.035 1.074 -0.527 0.449 -0.215 c -1.656 0.84 -3.836 0.34 -4.961 -1.137 c -0.133 -0.141 -0.238 -0.379 -0.355 -0.48 m 0.113 -0.066 c 0.891 1.609 2.98 2.398 4.707 1.77 c 0.313 -0.074 1.051 -0.52 0.352 -0.164 c -1.652 0.789 -3.793 0.215 -4.828 -1.293 c -0.082 -0.074 -0.148 -0.293 -0.23 -0.313 m 0.117 -0.066 c 0.859 1.555 2.879 2.316 4.551 1.711 c 0.301 -0.07 1.012 -0.504 0.336 -0.16 c -1.625 0.777 -3.734 0.18 -4.719 -1.328 c -0.059 -0.031 -0.102 -0.254 -0.168 -0.223 m 0.113 -0.07 c 0.848 1.535 2.848 2.262 4.477 1.625 c 0.305 -0.09 0.844 -0.438 0.242 -0.125 c -1.566 0.75 -3.605 0.176 -4.555 -1.281 c -0.059 -0.031 -0.098 -0.242 -0.16 -0.219 m 0.113 -0.066 c 0.813 1.48 2.746 2.18 4.313 1.566 c 0.297 -0.086 0.813 -0.422 0.234 -0.121 c -1.512 0.723 -3.477 0.168 -4.387 -1.234 c -0.059 -0.031 -0.098 -0.238 -0.16 -0.211 m 0.113 -0.066 c 0.797 1.449 2.711 2.117 4.234 1.477 c 0.297 -0.105 0.641 -0.352 0.145 -0.086 c -1.535 0.738 -3.539 0.09 -4.355 -1.402 m 0.094 -0.055 c 0.766 1.395 2.602 2.035 4.066 1.418 c 0.293 -0.098 0.617 -0.34 0.137 -0.082 c -1.469 0.707 -3.398 0.086 -4.184 -1.348 m 0.094 -0.055 c 0.75 1.359 2.563 1.969 3.977 1.332 c 0.766 -0.395 -0.285 0.141 -0.594 0.16 c -1.289 0.293 -2.715 -0.348 -3.359 -1.504 l -0.02 0.012 m 0.113 -0.066 c 0.727 1.328 2.512 1.902 3.875 1.246 c 0.625 -0.34 -0.453 0.219 -0.707 0.195 c -1.219 0.242 -2.539 -0.367 -3.145 -1.453 m 0.094 -0.055 c 0.715 1.316 2.516 1.848 3.828 1.129 c 0.535 -0.297 -1.105 0.5 -0.664 0.219 c -1.199 0.305 -2.543 -0.277 -3.145 -1.359 m 0.094 -0.055 c 0.707 1.301 2.516 1.785 3.773 1.012 c -0.602 0.297 -1.395 0.465 -2.09 0.254 c -0.695 -0.184 -1.305 -0.656 -1.664 -1.277 m 0.098 -0.055 c 0.668 1.238 2.391 1.699 3.59 0.961 c -0.574 0.277 -1.328 0.445 -1.988 0.242 c -0.676 -0.16 -1.242 -0.676 -1.602 -1.203 m 0.113 -0.07 c 0.637 1.18 2.273 1.617 3.41 0.918 c -0.543 0.258 -1.262 0.422 -1.891 0.227 c -0.641 -0.152 -1.176 -0.641 -1.52 -1.145 m 0.117 -0.063 c 0.602 1.109 2.148 1.527 3.227 0.863 c -0.516 0.242 -1.195 0.398 -1.789 0.215 c -0.609 -0.145 -1.113 -0.609 -1.438 -1.078 m 0.113 -0.066 c 0.57 1.047 2.031 1.438 3.047 0.816 c -0.48 0.219 -1.125 0.375 -1.684 0.199 c -0.563 -0.148 -1.055 -0.527 -1.34 -1.031 m 0.094 -0.055 c 0.535 0.988 1.906 1.359 2.863 0.77 c -0.484 0.227 -1.133 0.359 -1.684 0.156 c -0.5 -0.141 -0.906 -0.547 -1.18 -0.926 m 0.113 -0.066 c 0.504 0.926 1.789 1.27 2.684 0.719 c -0.422 0.188 -0.992 0.332 -1.484 0.172 c -0.508 -0.113 -0.926 -0.512 -1.195 -0.891 m 0.113 -0.066 c 0.469 0.863 1.664 1.184 2.5 0.672 c -0.391 0.168 -0.926 0.309 -1.383 0.16 c -0.473 -0.105 -0.863 -0.484 -1.117 -0.832 m 0.113 -0.066 c 0.434 0.801 1.547 1.098 2.32 0.621 c -0.363 0.152 -0.855 0.289 -1.281 0.148 c -0.426 -0.113 -0.797 -0.402 -1.016 -0.781 m 0.094 -0.055 c 0.398 0.734 1.422 1.012 2.137 0.574 c -0.332 0.133 -0.789 0.266 -1.18 0.133 c -0.391 -0.105 -0.734 -0.367 -0.938 -0.719 m 0.098 -0.055 c 0.344 0.676 1.363 0.941 1.938 0.504 c -0.652 0.422 -1.566 0.094 -1.938 -0.504 m 0.113 -0.066 c 0.332 0.609 1.18 0.836 1.77 0.473 c -0.414 0.195 -1.027 0.227 -1.422 -0.113 c -0.141 -0.082 -0.25 -0.293 -0.348 -0.359 m 0.117 -0.066 c 0.297 0.547 1.059 0.75 1.586 0.426 c -0.367 0.164 -0.922 0.199 -1.277 -0.105 c -0.125 -0.066 -0.219 -0.273 -0.309 -0.32" fill="url(#0)"/><path d="m 8.902 6.223 c -2.07 1.199 -3.301 3.668 -3.01 6.04 c 0.094 0.855 0.363 1.691 0.797 2.438 c -0.156 -0.379 -0.41 -0.824 -0.527 -1.258 c -0.746 -2.289 0.008 -4.973 1.836 -6.535 c 0.211 -0.23 0.961 -0.676 0.906 -0.688 m 0.066 0.113 c -2.047 1.184 -3.25 3.641 -2.938 5.988 c 0.098 0.813 0.363 1.605 0.77 2.313 c -0.148 -0.371 -0.398 -0.805 -0.512 -1.23 c -0.723 -2.219 -0.012 -4.809 1.738 -6.348 c 0.215 -0.242 1.031 -0.734 0.941 -0.723 m 0.066 0.113 c -2 1.16 -3.18 3.562 -2.871 5.859 c 0.094 0.793 0.355 1.57 0.754 2.262 c -0.148 -0.363 -0.391 -0.789 -0.504 -1.203 c -0.715 -2.195 0.004 -4.758 1.758 -6.258 c 0.203 -0.219 0.914 -0.641 0.863 -0.656 m 0.07 0.113 c -1.98 1.145 -3.133 3.531 -2.801 5.797 c 0.102 0.75 0.348 1.484 0.727 2.141 c -0.137 -0.352 -0.383 -0.77 -0.488 -1.18 c -0.699 -2.141 0.004 -4.648 1.715 -6.113 c 0.199 -0.219 0.895 -0.629 0.848 -0.645 m 0.066 0.113 c -1.934 1.121 -3.059 3.453 -2.734 5.664 c 0.098 0.738 0.34 1.453 0.711 2.094 c -0.137 -0.348 -0.375 -0.754 -0.477 -1.152 c -0.691 -2.117 0.02 -4.594 1.727 -6.02 c 0.184 -0.195 0.797 -0.551 0.773 -0.586 m 0.07 0.113 c -1.91 1.105 -3.01 3.422 -2.664 5.602 c 0.102 0.695 0.336 1.367 0.684 1.977 c -0.129 -0.336 -0.363 -0.738 -0.465 -1.125 c -0.684 -2.09 0.035 -4.535 1.738 -5.922 c 0.172 -0.176 0.703 -0.477 0.707 -0.531 m 0.07 0.125 c -0.035 0.004 -0.563 0.34 -0.656 0.449 c -1.684 1.336 -2.418 3.727 -1.773 5.781 c 0.121 0.402 0.285 0.793 0.496 1.156 c -0.211 -0.48 -0.496 -1.047 -0.586 -1.609 c -0.48 -2.16 0.523 -4.547 2.414 -5.695 c 0.09 -0.059 0.117 -0.086 0.105 -0.082 m 0.133 0.094 c -0.66 0.313 -1.27 0.922 -1.711 1.543 c -1.168 1.645 -1.266 3.945 -0.238 5.684 c -0.32 -0.656 -0.625 -1.434 -0.668 -2.207 c -0.191 -1.992 0.871 -4.04 2.617 -5.02 m 0.066 0.117 c -0.641 0.301 -1.238 0.898 -1.668 1.504 c -1.137 1.598 -1.23 3.848 -0.234 5.539 c -0.305 -0.637 -0.605 -1.398 -0.648 -2.152 c -0.188 -1.941 0.852 -3.934 2.551 -4.891 m 0.066 0.113 c -0.625 0.293 -1.203 0.875 -1.625 1.465 c -1.105 1.563 -1.199 3.746 -0.227 5.398 c -0.297 -0.621 -0.594 -1.363 -0.633 -2.098 c -0.18 -1.891 0.832 -3.832 2.484 -4.762 m 0.066 0.113 c -0.609 0.285 -1.172 0.852 -1.582 1.422 c -1.078 1.52 -1.168 3.648 -0.223 5.258 c -0.285 -0.605 -0.574 -1.328 -0.613 -2.039 c -0.176 -1.844 0.809 -3.73 2.418 -4.641 m 0.066 0.117 c -0.59 0.273 -1.141 0.824 -1.539 1.383 c -1.051 1.48 -1.137 3.547 -0.215 5.109 c -0.277 -0.586 -0.559 -1.289 -0.598 -1.98 c -0.172 -1.793 0.785 -3.629 2.352 -4.512 m 0.066 0.113 c -0.574 0.262 -1.109 0.805 -1.496 1.348 c -1.02 1.434 -1.105 3.449 -0.211 4.965 c -0.262 -0.566 -0.543 -1.254 -0.578 -1.926 c -0.168 -1.742 0.762 -3.527 2.285 -4.387 m 0.066 0.117 c -0.555 0.25 -1.078 0.781 -1.453 1.305 c -0.988 1.398 -1.074 3.348 -0.203 4.824 c -0.254 -0.551 -0.527 -1.219 -0.563 -1.871 c -0.16 -1.691 0.742 -3.426 2.219 -4.258 m 0.066 0.117 c -0.539 0.238 -1.047 0.754 -1.41 1.262 c -0.961 1.355 -1.043 3.25 -0.199 4.684 c -0.242 -0.535 -0.512 -1.18 -0.543 -1.816 c -0.156 -1.641 0.719 -3.32 2.152 -4.129 m 0.066 0.113 c -0.523 0.23 -1.016 0.734 -1.367 1.227 c -0.93 1.313 -1.01 3.152 -0.191 4.539 c -0.234 -0.516 -0.496 -1.145 -0.527 -1.762 c -0.152 -1.59 0.695 -3.219 2.086 -4 m 0.07 0.117 c -0.508 0.223 -0.984 0.711 -1.328 1.188 c -0.902 1.27 -0.977 3.051 -0.184 4.395 c -0.23 -0.5 -0.48 -1.109 -0.512 -1.707 c -0.148 -1.539 0.676 -3.117 2.023 -3.875 m 0.066 0.113 c -0.492 0.215 -0.953 0.688 -1.285 1.148 c -0.871 1.23 -0.945 2.957 -0.18 4.254 c -0.219 -0.484 -0.465 -1.074 -0.492 -1.648 c -0.145 -1.492 0.652 -3.02 1.957 -3.754 m 0.066 0.117 c -0.473 0.203 -0.922 0.664 -1.242 1.109 c -0.844 1.188 -0.914 2.852 -0.172 4.109 c -0.207 -0.469 -0.449 -1.039 -0.477 -1.598 c -0.137 -1.438 0.633 -2.91 1.891 -3.621 m 0.066 0.117 c -0.457 0.195 -0.891 0.637 -1.199 1.066 c -0.813 1.148 -0.883 2.754 -0.168 3.965 c -0.199 -0.449 -0.434 -1 -0.457 -1.535 c -0.133 -1.391 0.609 -2.813 1.824 -3.496 m 7.227 0.063 c 0.156 0.379 0.41 0.824 0.527 1.262 c 0.746 2.289 -0.008 4.969 -1.836 6.535 c -0.285 0.277 -0.691 0.5 -0.969 0.727 c 2.082 -1.172 3.34 -3.625 3.082 -6 c -0.082 -0.887 -0.359 -1.75 -0.805 -2.52 m -7.16 0.051 c -0.441 0.188 -0.859 0.617 -1.156 1.031 c -0.785 1.105 -0.852 2.652 -0.16 3.824 c -0.191 -0.434 -0.418 -0.969 -0.441 -1.484 c -0.129 -1.34 0.586 -2.711 1.758 -3.371 m 7.05 0.02 c 0.148 0.367 0.398 0.805 0.512 1.23 c 0.73 2.242 -0.004 4.863 -1.793 6.395 c -0.281 0.27 -0.676 0.492 -0.949 0.711 c 2.059 -1.16 3.293 -3.598 3.01 -5.949 c -0.09 -0.84 -0.355 -1.656 -0.777 -2.387 m -0.117 0.066 c 0.145 0.359 0.395 0.789 0.504 1.207 c 0.715 2.188 -0.008 4.754 -1.754 6.25 c -0.277 0.266 -0.664 0.48 -0.93 0.699 c 2.02 -1.137 3.223 -3.523 2.945 -5.82 c -0.09 -0.82 -0.352 -1.621 -0.766 -2.336 m -6.863 0.031 c -0.426 0.176 -0.828 0.594 -1.113 0.988 c -0.754 1.066 -0.816 2.559 -0.152 3.68 c -0.184 -0.414 -0.406 -0.926 -0.426 -1.426 c -0.125 -1.289 0.563 -2.609 1.691 -3.242 m 6.75 0.035 c 0.141 0.352 0.383 0.77 0.488 1.18 c 0.707 2.164 -0.02 4.699 -1.766 6.156 c -0.258 0.242 -0.617 0.438 -0.859 0.637 c 1.992 -1.121 3.176 -3.492 2.871 -5.762 c -0.094 -0.777 -0.344 -1.535 -0.734 -2.211 m -0.117 0.066 c 0.133 0.344 0.375 0.754 0.48 1.152 c 0.695 2.137 -0.039 4.645 -1.781 6.06 c -0.234 0.215 -0.574 0.391 -0.785 0.578 c 1.949 -1.098 3.105 -3.414 2.809 -5.633 c -0.094 -0.758 -0.34 -1.5 -0.723 -2.16 m -6.566 0.016 c -0.406 0.16 -0.797 0.566 -1.07 0.949 c -0.727 1.023 -0.785 2.453 -0.148 3.535 c -0.172 -0.398 -0.387 -0.891 -0.406 -1.371 c -0.117 -1.238 0.543 -2.504 1.625 -3.113 m 6.453 0.051 c 0.129 0.336 0.363 0.734 0.465 1.125 c 0.684 2.086 -0.035 4.535 -1.738 5.922 c -0.227 0.211 -0.559 0.383 -0.762 0.563 c 1.922 -1.078 3.047 -3.383 2.73 -5.566 c -0.098 -0.719 -0.336 -1.418 -0.695 -2.043 m -6.387 0.063 c -0.387 0.152 -0.762 0.547 -1.027 0.91 c -0.695 0.984 -0.754 2.355 -0.145 3.395 c -0.156 -0.379 -0.371 -0.855 -0.387 -1.316 c -0.113 -1.188 0.52 -2.402 1.559 -2.988 m 6.27 0.004 c 0.211 0.477 0.496 1.047 0.586 1.609 c 0.48 2.156 -0.523 4.543 -2.414 5.695 c -0.02 0.043 -0.199 0.066 -0.156 0.121 c 1.875 -1.055 2.977 -3.297 2.664 -5.43 c -0.094 -0.703 -0.324 -1.383 -0.68 -1.996 m -0.137 0.078 c 1.16 1.949 0.855 4.625 -0.723 6.254 c -0.34 0.387 -0.816 0.699 -1.195 0.98 c 1.988 -1.109 3.063 -3.594 2.508 -5.809 c -0.125 -0.488 -0.305 -1.051 -0.59 -1.426 m -6.066 0.035 c -0.371 0.141 -0.73 0.523 -0.984 0.871 c -0.668 0.941 -0.723 2.258 -0.137 3.25 c -0.148 -0.363 -0.355 -0.82 -0.371 -1.262 c -0.109 -1.137 0.5 -2.301 1.492 -2.859 m 5.953 0.031 c 1.156 1.938 0.813 4.605 -0.793 6.188 c -0.309 0.34 -0.746 0.613 -1.078 0.863 c 1.938 -1.082 2.984 -3.504 2.445 -5.66 c -0.125 -0.477 -0.297 -1.023 -0.574 -1.391 m -0.117 0.066 c 1.125 1.887 0.793 4.488 -0.773 6.03 c -0.297 0.328 -0.727 0.598 -1.047 0.84 c 1.926 -1.07 2.941 -3.504 2.352 -5.633 c -0.121 -0.422 -0.281 -0.914 -0.531 -1.234 m -5.77 0.016 c -0.355 0.137 -0.699 0.5 -0.941 0.832 c -0.637 0.902 -0.691 2.16 -0.129 3.109 c -0.141 -0.348 -0.34 -0.785 -0.355 -1.207 c -0.105 -1.086 0.477 -2.199 1.426 -2.734 m 5.652 0.051 c 1.098 1.836 0.773 4.367 -0.75 5.867 c -0.289 0.32 -0.711 0.578 -1.02 0.82 c 1.875 -1.047 2.863 -3.414 2.289 -5.484 c -0.117 -0.41 -0.273 -0.895 -0.52 -1.199 m -5.586 0.063 c -0.336 0.125 -0.668 0.477 -0.898 0.793 c -0.609 0.855 -0.66 2.059 -0.125 2.965 c -0.129 -0.332 -0.324 -0.75 -0.336 -1.148 c -0.098 -1.039 0.453 -2.102 1.359 -2.609 m 5.473 0 c 1.066 1.785 0.75 4.25 -0.73 5.707 c -0.281 0.313 -0.691 0.563 -0.992 0.797 c 1.824 -1.016 2.785 -3.316 2.227 -5.332 c -0.117 -0.398 -0.266 -0.875 -0.504 -1.172 m -0.117 0.07 c 1.059 1.766 0.715 4.215 -0.789 5.621 c -0.254 0.273 -0.625 0.488 -0.883 0.699 c 1.809 -1.01 2.738 -3.313 2.133 -5.297 c -0.109 -0.348 -0.246 -0.77 -0.461 -1.023 m -5.301 0.023 c -1.242 0.688 -1.695 2.379 -0.961 3.598 c -0.273 -0.574 -0.445 -1.332 -0.238 -1.992 c 0.152 -0.676 0.676 -1.246 1.199 -1.605 m 5.188 0.043 c 1.027 1.715 0.691 4.094 -0.77 5.461 c -0.246 0.262 -0.609 0.473 -0.855 0.676 c 1.758 -0.977 2.66 -3.215 2.074 -5.141 c -0.109 -0.336 -0.242 -0.754 -0.449 -0.996 m -5.121 0.074 c -1.18 0.652 -1.609 2.258 -0.914 3.414 c -0.258 -0.547 -0.418 -1.266 -0.223 -1.895 c 0.145 -0.641 0.641 -1.18 1.137 -1.52 m 5.05 0.039 c -0.004 0.004 0.027 0.074 0.105 0.234 c 0.891 1.766 0.359 4.094 -1.211 5.293 c -0.148 0.141 -0.402 0.254 -0.512 0.379 c 1.738 -0.965 2.609 -3.199 1.98 -5.09 c -0.016 -0.188 -0.355 -0.832 -0.363 -0.816 m -0.117 0.066 c 0 0.004 0.027 0.07 0.105 0.227 c 0.863 1.711 0.344 3.965 -1.176 5.133 c -0.145 0.133 -0.387 0.246 -0.496 0.367 c 1.684 -0.938 2.527 -3.105 1.918 -4.938 c -0.016 -0.18 -0.344 -0.805 -0.352 -0.789 m -4.852 0.031 c -0.527 0.23 -0.957 0.828 -1.113 1.418 c -0.16 0.598 -0.074 1.258 0.238 1.793 c -0.238 -0.512 -0.398 -1.195 -0.215 -1.789 c 0.156 -0.594 0.559 -1.117 1.09 -1.422 m 4.734 0.031 c 0 0.008 0.027 0.07 0.102 0.223 c 0.836 1.656 0.336 3.84 -1.137 4.969 c -0.137 0.133 -0.383 0.234 -0.48 0.355 c 1.629 -0.906 2.449 -3 1.859 -4.777 c -0.016 -0.18 -0.336 -0.785 -0.344 -0.77 m -0.121 0.063 c 0 0.004 0.027 0.066 0.102 0.215 c 0.824 1.633 0.305 3.793 -1.172 4.867 c -0.109 0.105 -0.328 0.188 -0.391 0.289 c 1.609 -0.895 2.395 -2.984 1.77 -4.719 c -0.027 -0.164 -0.301 -0.668 -0.309 -0.652 m -4.543 0.02 c -0.5 0.211 -0.91 0.785 -1.055 1.336 c -0.152 0.566 -0.07 1.188 0.223 1.695 c -0.219 -0.484 -0.375 -1.129 -0.199 -1.688 c 0.148 -0.563 0.527 -1.055 1.031 -1.344 m 4.43 0.043 c -0.004 0.008 0.023 0.066 0.094 0.211 c 0.816 1.609 0.273 3.738 -1.207 4.758 c -0.07 0.078 -0.285 0.145 -0.301 0.223 c 1.555 -0.859 2.313 -2.883 1.707 -4.559 c -0.023 -0.16 -0.285 -0.645 -0.293 -0.633 m -0.121 0.063 c -0.004 0 0.02 0.059 0.098 0.207 c 0.785 1.551 0.262 3.605 -1.168 4.59 c -0.063 0.074 -0.281 0.141 -0.289 0.219 c 1.527 -0.848 2.254 -2.855 1.621 -4.484 c -0.035 -0.152 -0.246 -0.531 -0.262 -0.531 m -4.344 0.043 c -0.004 0 -0.004 0.004 -0.008 0.004 c 0.004 0 0.004 0 0.008 -0.004 m -0.012 0.008 c -0.922 0.578 -1.227 1.871 -0.668 2.805 c -0.227 -0.48 -0.359 -1.133 -0.156 -1.684 c 0.031 -0.41 0.738 -1.055 0.824 -1.121 m 4.25 0.031 c -0.012 -0.008 0.016 0.063 0.121 0.262 c 0.719 1.512 0.164 3.48 -1.234 4.395 c -0.027 0.059 -0.242 0.098 -0.207 0.16 c 1.473 -0.816 2.172 -2.75 1.559 -4.324 c -0.055 -0.191 -0.219 -0.48 -0.238 -0.492 m -4.086 0.023 c -0.926 0.512 -1.262 1.777 -0.715 2.688 c -0.188 -0.426 -0.332 -0.996 -0.176 -1.488 c 0.109 -0.504 0.52 -0.926 0.891 -1.199 m 3.969 0.043 c -0.012 -0.004 0.016 0.066 0.113 0.25 c 0.707 1.484 0.141 3.414 -1.254 4.273 c 0.004 0.051 -0.191 0.047 -0.129 0.109 c 1.445 -0.797 2.109 -2.711 1.473 -4.238 c -0.066 -0.188 -0.188 -0.391 -0.203 -0.395 m -0.117 0.063 c -0.012 0 0.016 0.066 0.109 0.246 c 0.68 1.422 0.137 3.277 -1.203 4.105 c 0.004 0.047 -0.188 0.043 -0.125 0.105 c 1.387 -0.77 2.027 -2.609 1.414 -4.074 c -0.063 -0.184 -0.18 -0.379 -0.195 -0.383 m -3.77 0.031 c -0.406 0.16 -0.75 0.645 -0.867 1.094 c -0.125 0.465 -0.059 0.973 0.184 1.387 c -0.168 -0.391 -0.309 -0.922 -0.16 -1.383 c 0.121 -0.457 0.434 -0.863 0.844 -1.098 m 3.652 0.035 c -0.008 0.004 0.02 0.074 0.105 0.234 c 0.664 1.387 0.109 3.203 -1.223 3.98 l -0.066 0.039 l 0.016 0.02 c 1.355 -0.746 1.961 -2.563 1.328 -3.98 c -0.07 -0.176 -0.148 -0.305 -0.16 -0.293 m -0.117 0.063 c -0.004 0.008 0.02 0.074 0.102 0.227 c 0.637 1.328 0.102 3.07 -1.172 3.809 l -0.063 0.039 l 0.012 0.023 c 1.301 -0.719 1.883 -2.457 1.277 -3.816 c -0.066 -0.168 -0.145 -0.289 -0.156 -0.281 m -3.469 0.02 c -0.375 0.141 -0.695 0.594 -0.805 1.012 c -0.117 0.43 -0.055 0.902 0.172 1.285 c -0.152 -0.359 -0.289 -0.859 -0.145 -1.285 c 0.109 -0.422 0.395 -0.797 0.777 -1.012 m 3.367 0.066 c -0.016 0 0.309 0.672 0.293 0.863 c 0.23 1.164 -0.355 2.43 -1.391 3.01 l 0.012 0.023 c 1.27 -0.695 1.816 -2.406 1.191 -3.711 c -0.07 -0.129 -0.102 -0.184 -0.105 -0.184 m -3.301 0.051 c -0.344 0.121 -0.641 0.547 -0.742 0.926 c -0.105 0.398 -0.047 0.832 0.156 1.188 c -0.133 -0.332 -0.262 -0.789 -0.133 -1.18 c 0.105 -0.391 0.367 -0.734 0.719 -0.934 m 3.184 0.012 c -0.016 0 0.293 0.641 0.277 0.824 c 0.219 1.109 -0.336 2.316 -1.324 2.871 l 0.012 0.02 c 1.211 -0.664 1.73 -2.293 1.137 -3.539 c -0.07 -0.121 -0.098 -0.176 -0.102 -0.176 m -0.137 0.004 c 0.32 0.648 0.457 1.516 0.156 2.238 c -0.195 0.574 -0.664 1.039 -1.121 1.359 c 1.234 -0.672 1.699 -2.398 0.965 -3.598 m -0.117 0.066 c 0.301 0.613 0.438 1.441 0.148 2.125 c -0.184 0.547 -0.633 0.984 -1.063 1.289 c 1.172 -0.637 1.609 -2.273 0.914 -3.414 m -2.938 0.047 c -0.633 0.395 -0.844 1.277 -0.461 1.918 c -0.117 -0.301 -0.242 -0.723 -0.121 -1.078 c 0.008 -0.34 0.605 -0.852 0.586 -0.84 m 2.82 0.02 c 0.281 0.582 0.414 1.363 0.141 2.01 c -0.176 0.516 -0.605 0.934 -1.01 1.223 c 1.109 -0.605 1.523 -2.156 0.867 -3.234 m -0.117 0.066 c 0.262 0.547 0.391 1.289 0.129 1.898 c -0.16 0.488 -0.57 0.879 -0.945 1.152 c 1.047 -0.57 1.438 -2.031 0.816 -3.051 m -2.598 0.012 c -0.008 0 -0.059 0.035 -0.188 0.129 c -0.461 0.391 -0.578 1.105 -0.27 1.625 c -0.215 -0.449 -0.215 -1.129 0.199 -1.523 c 0.113 -0.098 0.27 -0.227 0.258 -0.23 m 2.48 0.055 c 0.242 0.512 0.367 1.211 0.125 1.785 c -0.152 0.461 -0.543 0.828 -0.891 1.082 c 0.984 -0.535 1.352 -1.91 0.766 -2.867 m -2.414 0.063 c -0.016 0.004 -0.063 0.035 -0.164 0.109 c -0.414 0.352 -0.52 0.996 -0.242 1.461 c -0.184 -0.402 -0.195 -1.012 0.18 -1.363 c 0.109 -0.094 0.254 -0.219 0.227 -0.207 m 2.301 0.004 c 0.223 0.48 0.344 1.133 0.113 1.672 c -0.141 0.43 -0.512 0.773 -0.832 1.016 c 0.922 -0.504 1.266 -1.789 0.719 -2.688 m -0.117 0.066 c 0.203 0.445 0.32 1.059 0.105 1.559 c -0.133 0.402 -0.48 0.719 -0.773 0.945 c 0.859 -0.469 1.18 -1.668 0.668 -2.504 m -0.113 0.07 c 0.18 0.406 0.297 0.977 0.094 1.441 c -0.117 0.371 -0.449 0.668 -0.715 0.875 c 0.797 -0.434 1.094 -1.543 0.621 -2.316 m -0.117 0.066 c 0.164 0.375 0.273 0.898 0.086 1.324 c -0.109 0.348 -0.414 0.613 -0.656 0.813 c 0.73 -0.398 1.01 -1.426 0.57 -2.137 m -0.113 0.066 c 0.141 0.34 0.25 0.82 0.074 1.211 c -0.098 0.316 -0.383 0.563 -0.598 0.742 c 0.668 -0.363 0.922 -1.301 0.523 -1.953 m -0.137 0.078 c 0.375 0.609 0.09 1.406 -0.453 1.762 c 0.609 -0.316 0.852 -1.246 0.453 -1.762 m -0.117 0.066 c 0.34 0.551 0.074 1.258 -0.402 1.578 c 0.547 -0.281 0.766 -1.125 0.402 -1.578" fill="url(#1)"/><path d="m 12.07 9.367 c -1.227 0 -2.219 0.992 -2.219 2.219 c 0 1.227 0.992 2.219 2.219 2.219 c 1.223 0 2.215 -0.996 2.215 -2.219 c 0 -1.227 -0.992 -2.219 -2.215 -2.219 m 0.004 1.316 c 0.5 0 0.906 0.402 0.906 0.902 c 0 0.496 -0.406 0.902 -0.906 0.902 c -0.496 0 -0.898 -0.406 -0.898 -0.902 c 0 -0.5 0.402 -0.902 0.898 -0.902" fill="#00007f"/><path d="m 12.09 5.109 c -1.809 0 -3.445 0.746 -4.617 1.949 c 1.086 1.883 2.855 3 4.477 4.234 c -0.324 -1.457 0.133 -5.816 1.449 -5.816 c 1.645 0.332 3.16 1.297 4.145 2.82 c 1.637 2.527 0.988 5.77 -0.957 7.887 c 0.004 0.004 0.008 0.008 0.008 0.012 c 1.199 -1.172 1.945 -2.809 1.945 -4.621 c 0 -3.57 -2.887 -6.465 -6.449 -6.465" fill="url(#2)"/><path d="m 12.07 9.305 c -1.258 0 -2.277 1.02 -2.277 2.281 c 0 1.258 1.02 2.281 2.277 2.281 c 1.254 0 2.277 -1.023 2.277 -2.281 c 0 -1.262 -1.023 -2.281 -2.277 -2.281 m 0 0.121 c 1.188 0 2.152 0.965 2.152 2.16 c 0 1.191 -0.965 2.156 -2.152 2.156 c -1.191 0 -2.156 -0.965 -2.156 -2.156 c 0 -1.195 0.965 -2.16 2.156 -2.16" fill="#00f"/><path d="m 170.86 14.869 c -5.39 0 -10.341 0.438 -14.728 1.315 c -4.387 0.689 -9.464 1.816 -15.292 3.382 c -8.9 2.38 -15.731 3.633 -20.431 3.633 c -2.507 0 -4.951 0.689 -7.207 2.13 c -2.131 1.378 -3.196 3.57 -3.196 6.577 c 0 1.942 0.125 3.633 0.439 4.886 c 0.439 1.127 0.94 2.255 1.504 3.382 c 0.439 0.877 0.627 1.503 0.627 1.942 c 0 2.944 -0.501 5.888 -1.504 8.707 c -0.815 2.693 -2.256 6.389 -4.262 11.02 c -0.439 0.752 -1.065 2.13 -1.88 4.259 v 0.251 c -0.125 -0.125 -0.251 -0.313 -0.251 -0.438 c 0 0 -0.063 -0.063 -0.188 -0.188 l -3.384 -4.948 c -4.826 -6.64 -8.461 -11.713 -10.842 -15.283 c -2.444 -3.696 -4.136 -6.89 -5.139 -9.583 c -0.564 -1.378 -1.128 -3.508 -1.692 -6.326 c -0.564 -3.696 -1.504 -6.389 -2.758 -8.143 c -1.128 -1.816 -3.447 -2.756 -7.02 -2.756 c -4.262 0 -9.652 1 -16.17 3.01 c -6.393 1.816 -12.66 4.259 -18.927 7.203 c -6.205 3.01 -11.469 6.264 -15.731 9.771 c -4.074 3.57 -6.142 6.89 -6.142 10.02 c 0 2.568 0.94 4.51 2.758 5.951 c 2.01 1.441 5.076 3.069 9.338 4.886 c 3.259 1.441 5.703 2.568 7.27 3.382 c 1.818 1 3.447 2.067 4.888 3.194 c 1.379 1.127 2.82 2.568 4.199 4.259 c 1.567 1.691 3.259 3.821 5.139 6.389 c 1.818 2.443 5.01 6.765 9.589 12.966 c 2.695 3.696 4.324 5.951 4.888 6.827 l 6.33 8.707 c 0.877 1 1.441 1.691 1.755 2.13 c 0.376 0.438 0.627 0.689 0.627 0.877 c 0 0.125 -0.125 0.376 -0.439 0.814 c -0.564 0.689 -0.94 1.19 -1.065 1.503 c -8.335 10.774 -18.363 22.11 -29.958 34.01 c -3.322 3.382 -6.581 6.264 -9.84 8.519 c -3.071 2.13 -6.831 4.51 -11.218 7.203 c -4.7 3.01 -8.02 5.387 -10.03 7.266 c -1.943 1.691 -2.946 3.883 -2.946 6.577 c 0 2 0.439 3.633 1.253 4.886 c 1 1.127 2.131 2 3.384 2.568 c 1.441 0.564 2.695 0.94 3.886 1.065 c 1.128 0.125 2.319 0.188 3.572 0.188 h 47.819 c 2.01 0 4.074 -0.626 6.205 -1.879 c 2.256 -1.315 3.384 -3.194 3.384 -5.763 c 0 -4.698 -0.439 -7.955 -1.253 -9.771 c -0.877 -2 -1.88 -3.508 -3.01 -4.51 c -0.564 -0.376 -0.815 -0.752 -0.815 -1.065 c 0 -4.823 1 -9.458 2.946 -13.968 c 2.01 -4.572 5.01 -10.46 9.15 -17.664 c 0.689 -1.127 1.191 -2 1.504 -2.568 l 21.06 29.565 c 1.128 1.253 1.88 2.255 2.319 2.944 c 0.564 0.752 1 1.566 1.316 2.568 h -0.251 c -0.125 -0.125 -0.251 -0.188 -0.439 -0.188 c -1.567 0 -3.01 0.877 -4.45 2.756 c -1.379 1.691 -2.131 4.572 -2.131 8.707 c 0 3.821 1.441 6.577 4.262 8.268 c 2.82 1.754 5.453 2.568 7.897 2.568 h 68.63 c 2.319 0 4.826 -1.065 7.646 -3.194 c 2.883 -2.13 4.262 -4.572 4.262 -7.391 c 0 -4.698 -1.065 -7.83 -3.196 -9.396 c -1.943 -1.566 -5.01 -2.693 -9.09 -3.382 c -2.57 -0.564 -4.7 -1.127 -6.393 -1.691 c -1.567 -0.752 -2.946 -1.816 -4.074 -3.194 l -53.15 -68.27 c -1.128 -1.253 -1.88 -2.13 -2.319 -2.568 c -0.313 -0.564 -0.439 -1.065 -0.439 -1.441 c 0 -0.188 0.125 -0.438 0.439 -0.877 c 0.439 -0.438 1.128 -1.19 2.131 -2.318 c 4.262 -5.387 8.649 -10.523 13.161 -15.346 c 4.575 -4.823 9.09 -9.08 13.6 -12.778 c 3.134 -2.505 7.583 -5.951 13.412 -10.147 c 6.643 -5.01 11.532 -8.894 14.665 -11.713 c 3.259 -2.819 4.888 -5.387 4.888 -7.642 c 0 -2.881 -0.94 -4.635 -2.758 -5.324 c -1.692 -0.877 -3.76 -1.315 -6.142 -1.315 m 0 1.065 c 2.256 0 4.074 0.376 5.515 1.065 c 1.567 0.564 2.319 2.067 2.319 4.447 c 0 2 -1.504 4.385 -4.45 7.078 c -3.01 2.693 -7.709 6.389 -14.289 11.212 c -6.079 4.447 -10.654 7.892 -13.788 10.46 c -4.387 3.508 -8.837 7.767 -13.412 12.715 c -4.512 4.823 -9.02 10.02 -13.6 15.534 c -1 1.315 -1.692 2.192 -2.131 2.756 c -0.251 0.438 -0.439 0.814 -0.439 1.065 c 0 0.438 0.251 1 0.627 1.754 c 0.439 0.689 1.191 1.691 2.131 2.944 l 53.21 68.27 c 1.253 1.566 2.758 2.756 4.45 3.57 c 1.692 0.752 3.948 1.378 6.769 1.942 c 3.823 0.877 6.706 2 8.523 3.382 c 1.88 1.441 2.758 4.134 2.758 8.08 c 0 2.568 -1.253 4.823 -3.823 6.827 c -2.57 1.816 -4.888 2.756 -7.02 2.756 h -68.63 c -2.319 0 -4.763 -0.752 -7.458 -2.318 c -2.57 -1.566 -3.823 -4.071 -3.823 -7.454 c 0 -4.572 0.752 -7.516 2.319 -8.957 c 1.567 -1.378 3.01 -2.13 4.262 -2.13 c 0 -1.253 -0.251 -2.318 -0.627 -3.132 c -0.439 -0.877 -1.253 -1.942 -2.382 -3.194 l -21.434 -30.25 l -0.439 -0.376 l -0.251 0.438 l -0.627 0.188 c 0.251 0 0.439 -0.063 0.564 -0.188 l -2.256 3.821 c -4.136 6.953 -7.145 12.715 -9.15 17.413 c -1.943 4.698 -2.946 9.396 -2.946 14.219 c 0 0.438 0.376 1.065 1.253 1.942 c 1.128 1.253 2.068 2.819 2.758 4.698 c 0.877 1.816 1.316 4.698 1.316 8.707 c 0 2.255 -1 3.946 -3.01 5.074 c -2.01 1 -3.886 1.503 -5.766 1.503 h -47.819 c -2.82 0 -5.39 -0.438 -7.646 -1.253 c -2.256 -1 -3.384 -3.132 -3.384 -6.389 c 0 -2.443 0.877 -4.447 2.758 -6.201 c 2.01 -1.691 5.076 -3.883 9.338 -6.577 c 4.512 -2.693 8.461 -5.136 11.72 -7.454 c 3.259 -2.255 6.581 -5.136 9.965 -8.707 c 12.911 -13.592 22.876 -24.929 29.958 -34.01 c 0.877 -1.127 1.379 -1.879 1.504 -2.13 c 0.125 -0.313 0.251 -0.564 0.251 -0.877 c 0 -0.125 -0.376 -0.689 -1.065 -1.691 c -0.439 -0.564 -0.94 -1.19 -1.504 -1.879 l -6.393 -8.707 l -4.7 -6.389 c -3.51 -5.136 -6.518 -9.145 -8.9 -12.152 c -2.256 -3.132 -4.199 -5.575 -5.766 -7.454 c -1.567 -1.816 -3.071 -3.32 -4.638 -4.447 c -1.441 -1.127 -3.134 -2.255 -5.139 -3.382 c -1.567 -0.877 -3.948 -2 -7.207 -3.382 c -4.136 -1.754 -7.082 -3.194 -8.962 -4.51 c -1.692 -1.378 -2.507 -3.257 -2.507 -5.512 c 0 -3.01 1.943 -6.201 5.954 -9.583 c 4.074 -3.382 9.213 -6.514 15.292 -9.333 c 6.267 -3.01 12.535 -5.387 18.927 -7.266 c 6.393 -1.816 11.594 -2.756 15.731 -2.756 c 3.134 0 5.202 0.877 6.142 2.568 c 1.128 1.566 2.01 4.01 2.57 7.454 c 0.564 2.944 1.128 5.136 1.692 6.577 c 1.692 4.259 7.458 13.09 17.235 26.558 c 0.439 0.752 1.191 1.879 2.382 3.445 c 0.251 0.251 0.501 0.626 0.815 1.065 c 0.313 0.251 0.501 0.501 0.627 0.626 c 0.313 -0.564 0.564 -1.065 0.877 -1.503 l 1.441 -3.633 c 2.131 -4.823 3.698 -8.707 4.7 -11.65 c 1 -3.01 1.504 -6.01 1.504 -9.145 c 0 -0.564 -0.313 -1.441 -0.877 -2.568 c -1.253 -2.568 -1.88 -5.136 -1.88 -7.642 c 0 -2.568 1 -4.51 2.946 -5.763 c 2.01 -1.441 4.199 -2.13 6.581 -2.13 c 3.134 0 6.142 -0.251 8.962 -0.814 c 2.946 -0.564 6.894 -1.503 11.657 -2.819 c 5.829 -1.378 10.905 -2.443 15.1 -3.194 c 4.45 -0.814 9.338 -1.253 14.728 -1.253 m 0 4.071 c -5.01 0 -9.526 0.313 -13.663 1.065 c -3.948 0.689 -8.774 1.754 -14.415 3.194 c -4.826 1.253 -8.962 2.255 -12.347 2.944 c -3.259 0.564 -6.581 0.877 -10.03 0.877 c -3.635 0 -5.515 1.253 -5.515 3.821 c 0 1.378 0.439 3.132 1.316 5.074 c 0.815 2 1.253 3.696 1.253 5.136 c 0 3.821 -0.627 7.579 -1.943 11.275 c -1.128 3.508 -2.82 7.83 -5.076 12.966 l -0.877 1.691 c -1.692 3.57 -3.071 5.324 -4.199 5.324 c -0.877 0 -2.319 -1.253 -4.262 -3.821 l -0.627 -0.877 c -0.564 -0.814 -1 -1.503 -1.316 -1.879 c -5.829 -7.955 -10.03 -13.968 -12.723 -18.1 c -2.695 -4.071 -4.763 -7.767 -6.205 -11.02 c -0.815 -2.318 -1.629 -5.01 -2.319 -8.08 c -0.439 -2.13 -0.94 -3.633 -1.504 -4.51 c -0.439 -1 -1.316 -1.441 -2.758 -1.441 c -3.823 0 -8.649 0.814 -14.477 2.505 c -5.766 1.566 -11.594 3.696 -17.423 6.389 c -5.829 2.568 -10.592 5.324 -14.415 8.331 c -3.698 2.819 -5.578 5.449 -5.578 7.83 c 0 1.566 2.57 3.508 7.646 5.763 c 3.698 1.566 6.643 2.881 8.774 4.01 c 2.256 1.19 4.136 2.443 5.703 3.883 c 1.692 1.253 3.384 2.881 5.139 4.886 c 1.692 1.816 3.447 4.01 5.265 6.577 c 2.01 2.505 5.202 6.827 9.589 12.966 c 1.818 2.568 3.447 4.823 4.888 6.765 l 6.393 8.769 c 0.376 0.564 0.752 1.065 1.065 1.503 c 1.379 1.816 2.194 3.132 2.319 4.01 c 0 1.566 -0.815 3.57 -2.57 5.951 c -9.464 12.03 -19.617 23.489 -30.396 34.2 c -4.136 4.259 -8.08 7.767 -11.908 10.46 c -3.698 2.568 -7.709 5.074 -12.1 7.642 c -3.259 2 -5.515 3.57 -6.831 4.698 c -1.253 1 -1.88 2.13 -1.88 3.382 c 0 1.566 0.627 2.568 1.88 3.01 c 1.441 0.376 3.196 0.626 5.327 0.626 h 47.819 c 1.441 0 2.57 -0.125 3.447 -0.438 c 0.815 -0.438 1.253 -1.127 1.253 -2.13 c 0 -2 -0.251 -3.508 -0.815 -4.698 c -0.439 -1.253 -1.065 -2.505 -1.943 -3.821 c -1 -1.253 -1.692 -2.318 -2.131 -3.194 c -0.251 -0.94 -0.439 -2.192 -0.439 -3.57 c 0 -5.575 1.065 -10.774 3.196 -15.722 c 2.256 -5.136 5.578 -11.4 10.03 -18.728 c 0.94 -1.566 1.692 -2.756 2.131 -3.633 c 1.253 -2.255 2.382 -3.382 3.384 -3.382 c 0.564 0 1.755 1.19 3.635 3.57 v 0.251 l 21.246 29.753 c 2.695 2.443 4.01 5.387 4.01 8.957 c 0 1.127 -0.815 2.318 -2.507 3.57 c -1.316 1 -2.319 2 -3.01 3.01 c -0.689 1 -1.065 2.443 -1.065 4.447 c 0 2 0.815 3.508 2.319 4.51 c 1.567 0.814 3.196 1.253 4.951 1.253 h 68.63 c 1.441 0 2.946 -0.501 4.512 -1.503 c 1.504 -1.127 2.319 -2.443 2.319 -4.01 c 0 -2 -0.627 -3.445 -1.943 -4.259 c -1.128 -0.877 -3.01 -1.566 -5.703 -2.13 c -3.01 -0.877 -5.641 -1.816 -7.897 -2.819 c -2.131 -1.127 -4.199 -2.881 -6.142 -5.261 l -53.15 -68.46 c -2.444 -2.881 -3.635 -5.199 -3.635 -7.02 c 0 -1.566 1.128 -3.696 3.384 -6.389 c 4.387 -5.387 8.962 -10.586 13.663 -15.534 c 4.638 -5.136 9.338 -9.583 13.976 -13.404 c 4.01 -3.257 9.276 -7.203 15.982 -11.901 c 5.39 -3.946 9.213 -6.953 11.469 -8.957 c 2.444 -1.942 3.635 -3.508 3.635 -4.635 c 0 -0.752 -0.313 -1.127 -0.877 -1.315 c -0.439 -0.125 -1.441 -0.188 -2.946 -0.188 m -65.62 69.965 c 8.273 0 15.04 6.702 15.04 15.03 c 0 8.331 -6.769 15.03 -15.04 15.03 c -8.335 0 -15.04 -6.702 -15.04 -15.03 c 0 -8.331 6.706 -15.03 15.04 -15.03" transform="matrix(0.06233 0 0 0.06236 5.597 4.874)" fill="#f4f4f4" stroke="#ff0" stroke-width="0.82"/></svg>