<svg xmlns="http://www.w3.org/2000/svg" viewBox="0 0 24 24"><path d="m 8.918 23.832 c -2.762 -0.41 -4.844 -1.309 -6.336 -2.738 c -1.441 -1.379 -2.188 -3.094 -2.254 -5.172 c -0.055 -1.66 0.238 -3.094 1.063 -5.188 c 0.578 -1.461 1.93 -3.859 2.926 -5.184 c 1.996 -2.648 4.836 -4.668 7.418 -5.281 c 0.824 -0.195 2.121 -0.246 2.93 -0.117 c 2.238 0.363 3.98 1.66 5.844 4.355 c 3.25 4.707 4.215 8.996 2.809 12.488 c -0.418 1.043 -1 1.953 -1.805 2.797 c -1.961 2.066 -4.539 3.34 -7.973 3.941 c -0.684 0.117 -0.832 0.125 -2.461 0.141 c -1.266 0.012 -1.852 0 -2.16 -0.043" fill="#695acd"/><g fill="#fff"><path d="m 16.281 7.258 c -0.359 0 -0.668 0.117 -0.922 0.355 c -0.258 0.234 -0.387 0.52 -0.387 0.855 v 3.387 l 2.617 2.426 v -5.813 c 0 -0.332 -0.129 -0.621 -0.383 -0.855 c -0.254 -0.238 -0.563 -0.355 -0.926 -0.355 m -2.863 0.352 c -0.258 -0.238 -0.566 -0.355 -0.926 -0.355 h -2.477 l 3.785 3.512 v -2.297 c -0.004 -0.336 -0.129 -0.621 -0.383 -0.859"/><path d="m 17.207 18.09 c 0.254 -0.238 0.383 -0.523 0.383 -0.859 v -9.113 c -0.473 -0.703 -1.422 -1.68 -2.617 0.004 v 9.109 c 0 0.336 0.129 0.621 0.387 0.859 c 0.254 0.238 0.563 0.355 0.922 0.355 c 0.363 0 0.672 -0.117 0.926 -0.355 m -3.406 -5.527 v -1.797 c 0.066 -1.488 0.223 -2.391 -0.301 -3.02 c -0.57 -0.68 -1.41 -0.457 -3.484 -0.496 h -2.262 c -0.363 0 -0.668 0.117 -0.926 0.355 c -0.254 0.238 -0.383 0.523 -0.383 0.859 c 0 0.332 0.129 0.621 0.383 0.855 c 0.258 0.238 0.563 0.355 0.926 0.355 h 3.43 v 2.918 c 0 0.023 0 0.047 0.004 0.07 c 0.078 1.262 -0.145 2.184 -0.66 2.762 c -0.57 0.465 -1.445 0.633 -2.625 0.504 c -0.355 -0.035 -0.676 0.047 -0.957 0.258 c -0.285 0.207 -0.445 0.477 -0.488 0.809 c -0.043 0.332 0.047 0.629 0.273 0.891 c 0.223 0.266 0.516 0.414 0.875 0.453 c 2.191 0.234 3.789 -0.172 4.801 -1.223 c 1.055 -0.93 1.52 -2.449 1.395 -4.559"/><path d="m 9.09 11.828 c -0.297 -0.277 -0.66 -0.418 -1.082 -0.418 c -0.426 0 -0.789 0.141 -1.086 0.418 c -0.301 0.277 -0.449 0.613 -0.449 1.01 c 0 0.391 0.148 0.727 0.449 1.01 c 0.297 0.277 0.66 0.414 1.086 0.414 c 0.422 0 0.785 -0.137 1.082 -0.414 c 0.301 -0.281 0.453 -0.617 0.453 -1.01 c 0 -0.395 -0.152 -0.73 -0.453 -1.01"/></g></svg>