<svg xmlns="http://www.w3.org/2000/svg" viewBox="0 0 24 24"><path d="m 5.598 2.645 c 8.852 -7.852 22.477 4.535 16.965 14.902 c -5.566 10.484 -23.996 7.691 -22.43 -5.184 c 0.469 -3.832 2.574 -7.156 5.465 -9.719" fill="#fbdbab"/><path d="m 15.02 20.01 c 0 -0.027 0.105 -0.258 0.234 -0.512 c 0.277 -0.551 0.309 -1.262 0.09 -2.02 c -0.086 -0.297 -0.133 -0.754 -0.117 -1.137 l 0.027 -0.641 l 0.297 -0.031 c 1.43 -0.137 2.609 1.664 2.418 3.691 l -0.066 0.699 h -1.441 c -0.793 0 -1.441 -0.023 -1.441 -0.051 m -5.695 -0.105 c -0.063 -0.027 -0.117 -0.121 -0.117 -0.215 c 0 -0.129 0.125 -0.191 0.527 -0.273 c 0.289 -0.059 0.563 -0.082 0.609 -0.055 c 0.188 0.117 0.059 0.313 -0.293 0.453 c -0.387 0.156 -0.523 0.172 -0.727 0.09 m -0.922 -1.535 c -0.328 -0.102 -0.566 -0.332 -0.617 -0.605 c -0.023 -0.129 -0.133 -0.203 -0.363 -0.238 c -0.445 -0.074 -0.559 -0.156 -0.551 -0.402 c 0.008 -0.285 0.219 -0.844 0.336 -0.879 c 0.051 -0.02 0.207 0.199 0.348 0.484 c 0.246 0.508 0.48 0.656 0.586 0.379 c 0.031 -0.078 0.129 -0.141 0.223 -0.141 c 0.09 0 0.227 -0.094 0.305 -0.211 c 0.117 -0.188 0.117 -0.273 -0.016 -0.742 c -0.082 -0.293 -0.18 -0.566 -0.219 -0.602 c -0.129 -0.129 -0.074 -0.227 0.125 -0.227 c 0.23 0 0.563 -0.168 0.699 -0.352 c 0.113 -0.152 0.621 -0.129 0.672 0.035 c 0.02 0.055 -0.09 0.129 -0.246 0.16 c -0.156 0.031 -0.352 0.164 -0.441 0.301 c -0.133 0.207 -0.145 0.293 -0.051 0.551 c 0.059 0.164 0.109 0.391 0.109 0.504 c 0 0.215 0.313 0.438 0.512 0.363 c 0.066 -0.027 0.168 -0.004 0.223 0.051 c 0.176 0.18 0.348 0.008 0.48 -0.477 c 0.074 -0.266 0.156 -0.48 0.191 -0.48 c 0.141 0 0.75 0.73 0.75 0.898 c 0 0.105 -0.191 0.449 -0.426 0.762 c -0.305 0.41 -0.535 0.617 -0.82 0.73 c -0.469 0.191 -1.406 0.262 -1.809 0.137" fill="#edd75a"/><path d="m 11.641 20.07 c -1.824 -0.047 -2.066 -0.066 -1.793 -0.168 c 0.172 -0.063 0.352 -0.094 0.395 -0.066 c 0.043 0.027 0.207 -0.016 0.359 -0.094 c 0.152 -0.082 0.383 -0.145 0.508 -0.145 c 0.137 0 0.285 -0.09 0.375 -0.23 c 0.082 -0.125 0.23 -0.25 0.332 -0.281 c 0.102 -0.035 0.207 -0.129 0.242 -0.215 c 0.09 -0.234 -0.227 -0.742 -0.582 -0.934 c -0.273 -0.148 -0.305 -0.199 -0.25 -0.449 c 0.031 -0.156 0.18 -0.414 0.332 -0.57 c 0.246 -0.258 0.266 -0.324 0.195 -0.652 c -0.066 -0.332 -0.113 -0.379 -0.488 -0.484 c -0.227 -0.066 -0.566 -0.27 -0.75 -0.449 c -0.184 -0.18 -0.383 -0.328 -0.441 -0.328 c -0.055 0 -0.125 -0.066 -0.156 -0.141 c -0.098 -0.258 0.121 -0.148 0.625 0.309 c 0.605 0.551 1.285 0.738 2.285 0.637 c 0.617 -0.063 2.043 -0.551 2.516 -0.863 c 0.32 -0.207 1.199 -1.91 0.988 -1.91 c -0.047 0 -0.113 0.086 -0.148 0.191 c -0.039 0.133 -0.125 0.184 -0.27 0.164 c -0.113 -0.012 -0.332 0.055 -0.484 0.156 c -0.391 0.262 -0.949 0.242 -1.176 -0.035 c -0.098 -0.117 -0.176 -0.34 -0.176 -0.488 c 0 -0.25 -0.016 -0.262 -0.23 -0.16 c -0.289 0.129 -0.48 -0.004 -0.566 -0.391 c -0.066 -0.297 -0.516 -0.852 -0.574 -0.703 c -0.094 0.238 -0.414 0.703 -0.484 0.703 c -0.09 0 -0.344 -0.574 -0.438 -0.984 c -0.059 -0.242 -0.078 -0.258 -0.156 -0.117 c -0.148 0.262 -0.27 0.188 -0.27 -0.164 c 0 -0.434 -0.129 -0.414 -0.441 0.059 c -0.246 0.371 -0.25 0.395 -0.086 0.492 c 0.734 0.438 0.762 0.469 0.789 0.969 c 0.023 0.422 -0.008 0.52 -0.246 0.789 c -0.238 0.266 -0.328 0.305 -0.73 0.301 c -0.336 0 -0.582 -0.078 -0.926 -0.281 c -0.461 -0.277 -0.469 -0.289 -0.469 -0.742 c -0.004 -0.508 -0.082 -0.695 -0.289 -0.695 c -0.105 0 -0.133 0.152 -0.133 0.727 c 0.004 0.844 0.137 1.496 0.348 1.73 c 0.082 0.094 0.125 0.191 0.094 0.223 c -0.117 0.117 -0.258 -0.086 -0.406 -0.594 c -0.121 -0.414 -0.141 -0.785 -0.105 -1.707 c 0.027 -0.648 0.078 -1.25 0.117 -1.34 c 0.109 -0.27 0.262 -0.195 0.184 0.094 c -0.102 0.375 -0.074 0.582 0.105 0.781 c 0.215 0.238 0.289 0.223 0.359 -0.063 c 0.07 -0.281 0.492 -0.969 0.699 -1.141 c 0.258 -0.215 0.32 -0.129 0.262 0.363 c -0.063 0.543 -0.234 0.777 -0.676 0.938 c -0.23 0.086 -0.328 0.195 -0.406 0.457 c -0.156 0.52 -0.133 0.648 0.152 0.75 c 0.141 0.051 0.363 0.148 0.492 0.219 c 0.188 0.102 0.688 0.133 1.145 0.07 c 0.129 -0.02 0.355 -0.563 0.355 -0.852 c 0 -0.172 -0.059 -0.313 -0.141 -0.344 c -0.078 -0.027 -0.141 -0.113 -0.141 -0.184 c 0 -0.074 -0.168 -0.199 -0.375 -0.281 c -0.207 -0.082 -0.375 -0.188 -0.375 -0.23 c 0 -0.133 0.555 -0.969 0.699 -1.047 c 0.086 -0.051 0.18 -0.008 0.266 0.117 c 0.086 0.121 0.191 0.168 0.289 0.133 c 0.121 -0.051 0.152 0 0.152 0.266 c 0 0.18 0.066 0.484 0.145 0.676 c 0.121 0.285 0.168 0.328 0.281 0.234 c 0.074 -0.063 0.137 -0.168 0.137 -0.23 c 0 -0.156 0.309 -0.422 0.492 -0.422 c 0.102 0 0.199 0.164 0.297 0.504 c 0.082 0.281 0.148 0.547 0.148 0.598 c 0 0.051 0.059 0.141 0.129 0.199 c 0.094 0.078 0.184 0.059 0.375 -0.09 l 0.246 -0.195 v 0.359 c 0.004 0.41 0.059 0.52 0.344 0.672 c 0.313 0.164 0.633 0.129 0.926 -0.102 c 0.145 -0.113 0.352 -0.207 0.457 -0.211 c 0.254 -0.004 0.301 -0.32 0.105 -0.695 c -0.168 -0.328 -0.184 -0.645 -0.047 -1 c 0.16 -0.426 0.316 -0.121 0.309 0.613 c -0.004 0.566 0.02 0.652 0.18 0.695 c 0.23 0.063 0.188 0.215 -0.379 1.316 l -0.43 0.836 l -0.801 0.371 c -0.887 0.406 -0.953 0.449 -0.781 0.512 c 0.18 0.066 0.141 0.227 -0.129 0.504 l -0.242 0.258 l 0.289 0.148 c 0.289 0.148 0.391 0.449 0.199 0.57 c -0.16 0.098 -0.105 0.313 0.102 0.379 c 0.242 0.074 0.742 0.848 0.742 1.145 c 0 0.227 -0.207 0.348 -1.02 0.617 c -0.23 0.074 -0.348 0.172 -0.367 0.309 c -0.047 0.316 0.219 0.328 0.598 0.031 c 0.445 -0.355 0.645 -0.367 0.559 -0.031 c -0.047 0.199 -0.031 0.234 0.086 0.191 c 0.078 -0.031 0.145 -0.016 0.145 0.035 c 0 0.047 -0.164 0.09 -0.363 0.09 c -0.199 0 -0.484 0.012 -0.633 0.027 c -0.148 0.016 -1.219 0.008 -2.379 -0.023 m 1.652 -0.574 c 0.211 -0.59 0.176 -0.699 -0.246 -0.711 c -0.289 -0.008 -0.355 0.02 -0.281 0.105 c 0.051 0.063 0.121 0.313 0.152 0.555 c 0.07 0.5 0.203 0.52 0.375 0.051 m 0.215 -1.289 c 0.168 -0.266 0.289 -0.578 0.289 -0.754 c 0 -0.297 -0.16 -0.422 -0.773 -0.613 c -0.098 -0.031 -0.164 -0.145 -0.164 -0.285 c 0 -0.273 -0.238 -0.426 -0.648 -0.426 c -0.336 0 -0.379 0.168 -0.102 0.422 c 0.227 0.203 0.246 0.367 0.031 0.285 c -0.184 -0.07 -0.594 0.281 -0.594 0.508 c 0 0.207 1.301 1.301 1.563 1.309 c 0.059 0.004 0.238 -0.199 0.398 -0.449 m 0.945 -0.105 c 0 -0.055 -0.063 -0.094 -0.141 -0.094 c -0.078 0 -0.141 0.039 -0.141 0.094 c 0 0.051 0.063 0.094 0.141 0.094 c 0.078 0 0.141 -0.043 0.141 -0.094 m -0.375 -1.07 c 0 -0.074 -0.125 -0.176 -0.281 -0.23 c -0.316 -0.109 -0.352 -0.059 -0.125 0.191 c 0.184 0.203 0.406 0.223 0.406 0.039 m -0.789 -0.879 c -0.027 -0.234 -0.066 -0.262 -0.336 -0.223 c -0.145 0.023 -0.113 0.266 0.055 0.43 c 0.195 0.195 0.313 0.109 0.281 -0.207 m 0.602 0.023 c 0.066 -0.078 0.098 -0.164 0.07 -0.191 c -0.094 -0.094 -0.539 0.074 -0.539 0.203 c 0 0.176 0.32 0.168 0.469 -0.012 m 2.25 -4.141 c 0 -0.258 -0.027 -0.32 -0.105 -0.242 c -0.059 0.059 -0.078 0.211 -0.047 0.348 c 0.086 0.344 0.152 0.297 0.152 -0.105 m -5.867 -0.438 c 0.027 -0.109 0.051 -0.301 0.055 -0.422 c 0 -0.191 -0.02 -0.207 -0.148 -0.102 c -0.184 0.152 -0.52 0.797 -0.449 0.867 c 0.102 0.102 0.488 -0.148 0.543 -0.344 m -5.102 8.375 c 0 -0.055 0.086 -0.27 0.195 -0.48 c 0.289 -0.57 0.469 -1.527 0.348 -1.871 c -0.109 -0.32 0.016 -0.512 0.547 -0.84 c 0.195 -0.121 0.359 -0.336 0.461 -0.605 c 0.227 -0.59 0.113 -0.703 -0.711 -0.703 c -0.457 0 -0.68 -0.039 -0.785 -0.145 c -0.082 -0.082 -0.148 -0.172 -0.148 -0.203 c 0 -0.031 0.133 -0.715 0.293 -1.52 c 0.164 -0.801 0.301 -1.711 0.305 -2.02 l 0.012 -0.559 l -0.746 -0.129 c -0.801 -0.133 -0.988 -0.227 -0.988 -0.496 c 0 -0.168 0.789 -0.895 1.629 -1.496 c 0.336 -0.242 0.461 -0.41 0.586 -0.785 c 0.527 -1.621 1.648 -2.824 3.477 -3.746 c 0.594 -0.301 0.922 -0.309 2.195 -0.051 c 1.668 0.336 2.996 0.973 4.301 2.051 c 0.434 0.363 0.941 0.66 1.125 0.66 c 0.242 0 2.125 0.77 2.289 0.934 c 0.184 0.184 0.18 0.187 -0.176 0.492 c -0.195 0.168 -0.477 0.414 -0.621 0.543 l -0.27 0.234 l 0.148 0.563 c 0.109 0.402 0.164 1.168 0.195 2.719 c 0.043 2.246 -0.008 2.668 -0.324 2.672 c -0.09 0 -0.238 0.125 -0.324 0.281 c -0.16 0.277 -0.387 0.363 -0.496 0.188 c -0.035 -0.059 -0.164 -0.043 -0.34 0.051 l -0.277 0.145 l 0.285 0.359 c 0.371 0.473 0.723 1.242 0.855 1.879 c 0.141 0.684 0.063 1.66 -0.152 1.863 c -0.152 0.145 -0.156 0.141 -0.09 -0.078 c 0.113 -0.355 0.168 -1.625 0.07 -1.563 c -0.047 0.027 -0.066 -0.066 -0.047 -0.211 c 0.047 -0.32 -0.262 -1.07 -0.691 -1.672 c -0.176 -0.246 -0.316 -0.496 -0.316 -0.555 c 0 -0.059 0.152 -0.199 0.34 -0.309 c 0.277 -0.164 0.363 -0.18 0.48 -0.078 c 0.121 0.098 0.16 0.086 0.246 -0.063 c 0.059 -0.102 0.246 -0.332 0.418 -0.516 l 0.316 -0.332 l -0.047 -2.109 c -0.035 -1.563 -0.09 -2.254 -0.203 -2.656 c -0.086 -0.301 -0.129 -0.617 -0.102 -0.703 c 0.027 -0.086 0.285 -0.305 0.57 -0.484 c 0.383 -0.238 0.512 -0.371 0.492 -0.512 c -0.035 -0.234 -0.551 -0.402 -0.84 -0.273 c -0.121 0.055 -0.453 0.059 -0.867 0.008 c -1.043 -0.133 -4.141 -0.016 -5.516 0.203 c -1.305 0.211 -2.078 0.395 -4.02 0.953 c -0.707 0.203 -1.352 0.371 -1.438 0.371 c -0.188 0 -1.461 0.539 -1.594 0.676 c -0.063 0.066 0.035 0.078 0.305 0.035 c 0.395 -0.059 0.398 -0.055 0.398 0.227 c 0 0.176 -0.059 0.309 -0.152 0.344 c -0.172 0.066 -1.16 -0.223 -1.16 -0.34 c 0 -0.113 0.555 -0.586 1.207 -1.027 c 0.508 -0.348 0.574 -0.434 0.813 -1.063 c 0.383 -1.01 0.633 -1.473 1.074 -1.973 c 0.34 -0.387 1.219 -1.09 1.219 -0.977 c 0 0.023 -0.109 0.234 -0.242 0.473 c -0.133 0.238 -0.227 0.508 -0.207 0.598 c 0.023 0.117 0.199 -0.07 0.574 -0.602 c 0.586 -0.836 0.977 -1.215 1.34 -1.305 c 0.203 -0.051 0.637 0.07 1.363 0.379 c 0.125 0.055 0.148 0.027 0.105 -0.129 c -0.055 -0.219 -0.773 -0.477 -1.344 -0.477 c -0.453 0 -1.266 0.422 -2.246 1.16 c -0.973 0.734 -1.492 1.414 -1.898 2.48 c -0.281 0.742 -0.348 0.836 -0.863 1.23 c -0.801 0.609 -1.457 1.23 -1.457 1.375 c 0 0.156 0.574 0.316 1.137 0.316 c 0.723 0.004 0.781 0.203 0.5 1.785 c -0.078 0.438 -0.23 1.188 -0.336 1.668 c -0.242 1.098 -0.215 1.145 0.707 1.145 c 0.945 0 1.082 0.195 0.707 1.02 c -0.152 0.34 -0.168 0.469 -0.086 0.773 c 0.078 0.289 0.168 0.391 0.441 0.508 c 0.617 0.258 0.703 0.387 0.633 0.988 c -0.063 0.52 -0.059 0.531 0.203 0.621 c 0.402 0.141 0.688 0 0.688 -0.34 c 0 -0.262 0.02 -0.277 0.305 -0.23 c 0.168 0.027 0.48 0.008 0.699 -0.043 c 0.324 -0.074 0.418 -0.063 0.527 0.063 c 0.141 0.168 0.27 0.695 0.148 0.617 c -0.039 -0.023 -0.277 0.004 -0.527 0.059 c -0.246 0.059 -0.547 0.105 -0.66 0.109 c -0.352 0.004 -0.336 0.152 0.035 0.305 c 0.43 0.18 0.355 0.293 -0.098 0.145 c -0.184 -0.059 -0.379 -0.078 -0.438 -0.043 c -0.172 0.105 -0.926 -0.16 -1.215 -0.43 c -0.324 -0.305 -0.352 -0.582 -0.086 -1.012 c 0.227 -0.371 0.188 -0.453 -0.336 -0.684 c -0.309 -0.137 -0.418 -0.246 -0.465 -0.461 c -0.035 -0.152 -0.094 -0.277 -0.137 -0.277 c -0.164 0 -0.305 0.293 -0.258 0.535 c 0.07 0.379 -0.359 1.984 -0.605 2.246 c -0.219 0.23 -0.359 0.277 -0.359 0.121 m 4.313 -0.93 c 0 -0.051 -0.043 -0.113 -0.094 -0.148 c -0.051 -0.031 -0.094 0.008 -0.094 0.09 c 0 0.082 0.043 0.145 0.094 0.145 c 0.051 0 0.094 -0.039 0.094 -0.086 m -3.594 -1.719 c -0.027 -0.063 -0.047 -0.012 -0.047 0.117 c 0 0.129 0.02 0.184 0.047 0.117 c 0.023 -0.063 0.023 -0.168 0 -0.234 m 2.445 -8.457 c 2.973 -0.879 4.285 -1.086 7.336 -1.16 l 2.391 -0.063 l -0.785 -0.211 c -0.633 -0.172 -0.906 -0.305 -1.387 -0.684 c -1.281 -1.01 -2.348 -1.602 -3.285 -1.836 c -0.238 -0.059 -0.215 -0.012 0.277 0.52 c 0.48 0.52 0.637 0.758 0.492 0.758 c -0.027 0 -0.398 -0.262 -0.82 -0.586 c -0.426 -0.324 -1.047 -0.711 -1.379 -0.859 l -0.605 -0.27 l -0.328 0.18 c -0.359 0.195 -1.102 1.125 -1.652 2.066 c -0.266 0.453 -0.398 0.598 -0.523 0.566 c -0.18 -0.047 -0.27 0.105 -0.27 0.457 c 0 0.27 -0.031 0.266 0.48 0.082 c 1.316 -0.473 2.805 -0.801 4.113 -0.902 c 1.355 -0.105 2.41 -0.043 1.859 0.113 c -0.137 0.039 -0.602 0.098 -1.031 0.133 c -1.625 0.133 -4.309 0.723 -5.422 1.199 c -0.469 0.199 -0.844 0.508 -0.844 0.699 c 0 0.18 0.172 0.156 1.383 -0.203 m 8.676 -1.781 c -0.164 -0.07 -0.691 -0.434 -1.172 -0.801 c -0.898 -0.695 -1.91 -1.258 -2.77 -1.539 c -0.777 -0.254 -0.793 -0.117 -0.02 0.172 c 0.898 0.328 1.32 0.578 2.527 1.469 c 0.539 0.398 1.09 0.746 1.219 0.77 c 0.445 0.082 0.512 0.059 0.215 -0.07 m -6.086 11.527 c -0.086 -0.133 -0.129 -0.266 -0.098 -0.297 c 0.082 -0.082 0.438 0.25 0.438 0.406 c 0 0.203 -0.172 0.148 -0.34 -0.109 m -2.754 -1.824 c 0 -0.141 0.063 -0.188 0.234 -0.188 c 0.164 0 0.23 0.047 0.227 0.164 c -0.004 0.098 -0.027 0.113 -0.055 0.047 c -0.027 -0.066 -0.113 -0.117 -0.191 -0.117 c -0.086 0 -0.121 0.051 -0.09 0.141 c 0.031 0.074 0.016 0.141 -0.035 0.141 c -0.051 0 -0.09 -0.086 -0.09 -0.188 m 1.594 -0.172 c 0 -0.113 -0.043 -0.203 -0.094 -0.203 c -0.051 0 -0.094 0.063 -0.094 0.141 c 0 0.074 -0.047 0.141 -0.102 0.141 c -0.188 0 -0.039 -0.328 0.16 -0.359 c 0.223 -0.031 0.379 0.238 0.227 0.391 c -0.07 0.066 -0.098 0.035 -0.098 -0.109 m -2.273 0.023 c -0.129 -0.129 -0.074 -0.84 0.078 -1.055 c 0.121 -0.176 0.223 -0.211 0.539 -0.188 c 0.289 0.023 0.395 0.074 0.422 0.199 c 0.027 0.156 0.008 0.16 -0.234 0.039 c -0.508 -0.246 -0.652 -0.098 -0.711 0.715 c -0.012 0.199 -0.055 0.328 -0.094 0.289 m 2.875 -0.566 c -0.207 -0.863 -0.605 -1.023 -0.922 -0.375 c -0.141 0.293 -0.191 0.332 -0.258 0.211 c -0.109 -0.191 0.344 -0.902 0.574 -0.902 c 0.332 0 0.977 1.031 0.77 1.238 c -0.07 0.07 -0.117 0.023 -0.164 -0.172 m 6.242 -0.645 c 0 -0.078 0.039 -0.141 0.094 -0.141 c 0.051 0 0.094 0.063 0.094 0.141 c 0 0.074 -0.043 0.141 -0.094 0.141 c -0.055 0 -0.094 -0.066 -0.094 -0.141 m -4.359 -0.797 c 0.031 -0.055 0.074 -0.094 0.098 -0.094 c 0.023 0 0.043 0.039 0.043 0.094 c 0 0.051 -0.047 0.094 -0.102 0.094 c -0.055 0 -0.074 -0.043 -0.039 -0.094 m 2.43 -3.141 c 0.105 -0.332 0.223 -0.609 0.262 -0.609 c 0.113 -0.004 0.355 0.535 0.355 0.793 c 0 0.246 -0.273 0.426 -0.645 0.426 c -0.156 0 -0.152 -0.043 0.027 -0.609 m 0.34 0.418 c 0.203 -0.109 0.227 -0.254 0.086 -0.465 c -0.082 -0.125 -0.113 -0.117 -0.234 0.039 c -0.133 0.18 -0.191 0.523 -0.086 0.523 c 0.031 0 0.137 -0.047 0.234 -0.098 m 3.23 -3.309 c -0.195 -0.301 -0.121 -0.438 0.234 -0.438 c 0.379 0 0.438 0.164 0.16 0.441 l -0.234 0.234" fill="#af9c8d"/><path d="m 15.14 16.313 c 0 -0.285 0.02 -0.402 0.039 -0.258 c 0.023 0.141 0.023 0.371 0 0.516 c -0.02 0.141 -0.039 0.023 -0.039 -0.258 m 2.922 -2.496 c -0.055 -0.434 -0.125 -0.594 -0.336 -0.781 c -0.336 -0.293 -0.34 -0.543 -0.023 -1.191 c 0.215 -0.438 0.27 -0.492 0.469 -0.445 c 0.148 0.039 0.223 0.02 0.223 -0.066 c 0 -0.074 0.031 -0.09 0.09 -0.031 c 0.047 0.047 0.117 0.371 0.152 0.715 c 0.051 0.496 0.02 0.785 -0.145 1.406 c -0.117 0.43 -0.242 0.816 -0.285 0.859 c -0.043 0.047 -0.109 -0.164 -0.145 -0.465 m -10.207 -0.234 c -0.25 -1.133 -0.297 -1.254 -0.457 -1.242 c -0.191 0.016 -0.223 -0.109 -0.301 -1.148 c -0.07 -0.93 -0.094 -0.902 1.254 -1.574 c 1.488 -0.742 3.293 -1.293 4.793 -1.465 c 1.504 -0.168 4.02 0.074 4.402 0.422 c 0.09 0.078 0.254 0.348 0.371 0.598 c 0.199 0.426 0.207 0.484 0.082 0.914 l -0.129 0.461 l -0.25 -0.539 c -0.309 -0.672 -0.484 -0.711 -0.41 -0.094 c 0.082 0.664 -0.051 1.559 -0.23 1.594 c -0.105 0.023 -0.223 -0.164 -0.41 -0.652 c -0.148 -0.379 -0.305 -0.738 -0.355 -0.801 c -0.125 -0.16 -0.258 -0.055 -0.258 0.203 c 0 0.504 -0.496 0.539 -0.77 0.055 c -0.242 -0.43 -0.355 -0.348 -0.344 0.258 c 0.012 0.641 -0.195 1.273 -0.434 1.32 c -0.09 0.02 -0.262 0.145 -0.379 0.281 c -0.117 0.137 -0.246 0.219 -0.281 0.18 c -0.039 -0.035 -0.094 -0.465 -0.129 -0.957 c -0.031 -0.488 -0.102 -0.934 -0.156 -0.988 c -0.148 -0.148 -0.469 0.141 -0.77 0.703 c -0.141 0.258 -0.297 0.465 -0.348 0.469 c -0.191 0 -0.145 -0.684 0.082 -1.297 c 0.133 -0.344 0.199 -0.645 0.148 -0.676 c -0.098 -0.059 -0.496 0.184 -0.809 0.496 c -0.113 0.113 -0.297 0.211 -0.402 0.211 c -0.148 0 -0.191 -0.063 -0.191 -0.281 c 0 -0.156 -0.02 -0.281 -0.047 -0.281 c -0.023 0 -0.238 0.148 -0.477 0.328 c -0.234 0.18 -0.473 0.328 -0.523 0.328 c -0.063 0 -0.074 -0.125 -0.039 -0.328 c 0.074 -0.379 0.078 -0.379 -0.602 -0.145 l -0.516 0.176 l -0.207 0.777 c -0.125 0.457 -0.285 0.84 -0.387 0.922 c -0.145 0.113 -0.195 0.32 -0.246 0.988 c -0.063 0.855 -0.188 1.199 -0.277 0.785 m -1.555 -1.199 c 0 -0.32 -0.043 -0.473 -0.141 -0.512 c -0.246 -0.094 -0.18 -0.715 0.113 -1.016 c 0.258 -0.27 0.59 -0.352 0.59 -0.145 c 0 0.063 -0.086 0.559 -0.188 1.102 c -0.102 0.539 -0.188 0.992 -0.188 1.01 c 0 0.012 -0.043 0.023 -0.094 0.023 c -0.051 0 -0.094 -0.207 -0.094 -0.461 m 9.387 -0.738 c -0.168 -0.316 -0.137 -0.695 0.059 -0.66 c 0.188 0.035 0.27 0.457 0.133 0.699 c -0.078 0.145 -0.098 0.141 -0.191 -0.039 m -6.105 -0.254 c 0 -0.262 0.387 -0.719 0.449 -0.535 c 0.031 0.102 -0.32 0.77 -0.41 0.77 c -0.02 0 -0.039 -0.105 -0.039 -0.234 m 1.359 -0.703 c 0.031 -0.055 0.102 -0.094 0.152 -0.094 c 0.051 0 0.066 0.039 0.035 0.094 c -0.031 0.051 -0.102 0.094 -0.152 0.094 c -0.051 0 -0.066 -0.043 -0.035 -0.094" fill="#e07373"/><path d="m 13.633 19.781 c 0.02 -0.18 0.105 -0.262 0.363 -0.348 c 0.813 -0.266 1.02 -0.391 1.02 -0.613 c 0 -0.301 -0.5 -1.07 -0.742 -1.148 c -0.203 -0.063 -0.262 -0.277 -0.102 -0.375 c 0.195 -0.121 0.09 -0.422 -0.199 -0.57 l -0.289 -0.148 l 0.242 -0.258 c 0.25 -0.262 0.32 -0.48 0.152 -0.48 c -0.141 0 -0.113 -0.16 0.043 -0.219 c 0.082 -0.031 0.117 -0.004 0.094 0.063 c -0.023 0.059 -0.004 0.168 0.039 0.234 c 0.063 0.102 0.195 0.066 0.633 -0.168 c 0.547 -0.293 0.633 -0.301 1.289 -0.137 c 0.203 0.051 0.258 0.02 0.336 -0.184 c 0.051 -0.133 0.164 -0.246 0.246 -0.246 c 0.121 0 0.145 0.063 0.102 0.277 c -0.043 0.223 -0.027 0.266 0.082 0.227 c 0.102 -0.039 0.121 -0.012 0.078 0.102 c -0.035 0.098 0.051 0.313 0.238 0.57 c 0.543 0.754 0.766 1.371 0.824 2.277 c 0.027 0.457 0.012 0.902 -0.035 0.988 c -0.059 0.105 -0.086 -0.121 -0.086 -0.711 c 0.004 -0.664 -0.043 -0.996 -0.195 -1.406 c -0.246 -0.656 -0.68 -1.27 -1.098 -1.551 c -0.379 -0.262 -1.207 -0.383 -1.414 -0.211 c -0.199 0.164 -0.184 0.758 0.043 1.574 c 0.25 0.895 0.246 1.605 -0.012 2.109 c -0.281 0.555 -0.609 0.754 -0.496 0.301 c 0.078 -0.309 -0.137 -0.309 -0.504 0 c -0.219 0.188 -0.277 0.203 -0.266 0.082 c 0.02 -0.246 -0.215 -0.258 -0.316 -0.02 l -0.09 0.219 l 0.02 -0.234 m 1.527 -2.109 c -0.184 -0.484 -0.57 -0.875 -0.719 -0.727 c -0.074 0.074 -0.035 0.16 0.145 0.32 c 0.156 0.137 0.324 0.457 0.457 0.875 c 0.203 0.652 0.207 0.656 0.238 0.293 c 0.016 -0.203 -0.039 -0.547 -0.121 -0.762 m -1.082 -1.168 c 0 -0.055 -0.043 -0.094 -0.094 -0.094 c -0.051 0 -0.094 0.039 -0.094 0.094 c 0 0.051 0.043 0.094 0.094 0.094 c 0.051 0 0.094 -0.043 0.094 -0.094 m 2.719 -1.078 c 0 -0.078 -0.043 -0.141 -0.094 -0.141 c -0.051 0 -0.094 0.063 -0.094 0.141 c 0 0.074 0.043 0.141 0.094 0.141 c 0.051 0 0.094 -0.066 0.094 -0.141 m -6.563 4.359 c 0 -0.055 0.047 -0.094 0.102 -0.094 c 0.141 0 0.012 -0.754 -0.164 -0.953 c -0.109 -0.125 -0.203 -0.137 -0.527 -0.063 c -0.219 0.051 -0.527 0.07 -0.695 0.043 c -0.277 -0.043 -0.301 -0.027 -0.328 0.246 c -0.016 0.156 -0.082 0.309 -0.152 0.328 c -0.102 0.035 -0.102 0.008 -0.004 -0.148 c 0.094 -0.148 0.094 -0.242 0.004 -0.438 c -0.148 -0.332 -0.492 -0.289 -0.621 0.078 c -0.078 0.223 -0.063 0.289 0.086 0.398 c 0.191 0.141 0.09 0.184 -0.121 0.051 c -0.094 -0.063 -0.109 -0.211 -0.063 -0.59 c 0.07 -0.574 -0.02 -0.711 -0.633 -0.965 c -0.277 -0.117 -0.363 -0.219 -0.445 -0.523 c -0.07 -0.254 -0.07 -0.426 -0.008 -0.539 c 0.078 -0.129 0.098 -0.133 0.102 -0.02 c 0.004 0.125 0.012 0.125 0.094 0 c 0.113 -0.176 0.121 -0.309 0.016 -0.246 c -0.047 0.027 -0.039 -0.117 0.016 -0.32 c 0.07 -0.25 0.125 -0.332 0.184 -0.254 c 0.047 0.07 0.098 0.078 0.121 0.023 c 0.313 -0.738 0.328 -0.75 1.023 -0.781 c 0.359 -0.016 0.688 -0.059 0.73 -0.098 c 0.039 -0.043 0.008 -0.227 -0.07 -0.414 c -0.082 -0.188 -0.141 -0.418 -0.137 -0.512 c 0.004 -0.09 0.063 0.016 0.129 0.234 c 0.07 0.223 0.176 0.461 0.234 0.531 c 0.082 0.102 0.059 0.164 -0.105 0.277 c -0.117 0.082 -0.309 0.152 -0.426 0.152 c -0.117 0 -0.215 0.039 -0.215 0.094 c 0 0.051 -0.145 0.094 -0.324 0.094 c -0.391 0 -0.613 0.266 -0.613 0.746 c -0.004 0.242 -0.027 0.293 -0.09 0.191 c -0.125 -0.199 -0.25 -0.043 -0.391 0.488 c -0.141 0.527 -0.074 0.637 0.449 0.719 c 0.27 0.047 0.363 0.109 0.406 0.285 c 0.098 0.418 0.5 0.617 1.25 0.617 c 0.922 0 1.449 -0.219 1.891 -0.777 c 0.328 -0.418 0.344 -0.426 0.289 -0.16 c -0.051 0.25 -0.023 0.301 0.254 0.449 c 0.352 0.191 0.668 0.699 0.578 0.934 c -0.031 0.086 -0.141 0.18 -0.242 0.211 c -0.098 0.035 -0.246 0.16 -0.328 0.285 c -0.094 0.145 -0.242 0.23 -0.398 0.23 c -0.133 0.004 -0.352 0.066 -0.48 0.141 c -0.281 0.16 -0.375 0.172 -0.375 0.047 m 1.387 -0.719 c 0.121 -0.074 0.238 -0.195 0.266 -0.266 c 0.145 -0.375 -0.672 -1.125 -0.957 -0.883 c -0.172 0.141 -0.168 0.273 0.008 0.273 c 0.207 0 0.535 0.566 0.41 0.715 c -0.133 0.164 -0.281 0.082 -0.539 -0.297 c -0.379 -0.555 -0.699 -0.367 -0.438 0.258 c 0.105 0.254 0.207 0.352 0.402 0.379 c 0.32 0.047 0.57 -0.004 0.848 -0.18 m -0.355 -0.348 c 0 -0.156 -0.355 -0.488 -0.434 -0.406 c -0.078 0.074 0.219 0.535 0.344 0.535 c 0.047 0 0.09 -0.059 0.09 -0.129 m 1.652 0.727 c -0.031 -0.242 -0.102 -0.492 -0.152 -0.555 c -0.074 -0.086 -0.008 -0.113 0.281 -0.105 c 0.422 0.012 0.457 0.121 0.246 0.711 c -0.172 0.469 -0.305 0.449 -0.375 -0.051 m 0.316 -0.363 c 0 -0.078 -0.043 -0.141 -0.094 -0.141 c -0.051 0 -0.094 0.063 -0.094 0.141 c 0 0.074 0.043 0.141 0.094 0.141 c 0.051 0 0.094 -0.066 0.094 -0.141 m -4.355 0.613 c -0.031 -0.047 -0.012 -0.113 0.043 -0.145 c 0.109 -0.07 0.281 0.02 0.281 0.145 c 0 0.113 -0.254 0.113 -0.324 0 m 0.418 -0.715 c 0 -0.078 0.043 -0.121 0.094 -0.086 c 0.051 0.031 0.094 0.098 0.094 0.145 c 0 0.047 -0.043 0.09 -0.094 0.09 c -0.051 0 -0.094 -0.066 -0.094 -0.148 m 4.875 -0.883 c 0 -0.055 0.063 -0.094 0.141 -0.094 c 0.078 0 0.141 0.039 0.141 0.094 c 0 0.051 -0.063 0.094 -0.141 0.094 c -0.078 0 -0.141 -0.043 -0.141 -0.094 m -8.328 -0.656 c 0 -0.129 0.02 -0.184 0.047 -0.117 c 0.027 0.063 0.027 0.168 0 0.234 c -0.027 0.063 -0.047 0.012 -0.047 -0.117 m 5.586 -0.613 c 0.039 -0.191 -0.027 -0.324 -0.313 -0.617 c -0.199 -0.203 -0.418 -0.348 -0.484 -0.32 c -0.074 0.027 -0.164 -0.059 -0.219 -0.211 c -0.055 -0.141 -0.188 -0.352 -0.297 -0.465 c -0.141 -0.152 -0.16 -0.211 -0.063 -0.211 c 0.152 0.004 0.93 0.711 0.93 0.848 c 0 0.148 0.602 0.648 0.727 0.605 c 0.195 -0.07 0.129 0.188 -0.105 0.41 l -0.223 0.207 m -3.055 -0.164 c -0.109 -0.109 -0.066 -0.219 0.078 -0.219 c 0.078 0 0.141 0.063 0.141 0.141 c 0 0.145 -0.109 0.184 -0.219 0.078 m 1.25 -0.313 c 0 -0.105 0.043 -0.188 0.094 -0.188 c 0.051 0 0.094 0.082 0.094 0.188 c 0 0.102 -0.043 0.188 -0.094 0.188 c -0.051 0 -0.094 -0.086 -0.094 -0.188 m 3.43 -0.242 c -0.082 -0.082 -0.148 -0.203 -0.148 -0.27 c 0 -0.172 0.289 -0.27 0.414 -0.141 c 0.074 0.074 0.051 0.098 -0.086 0.074 c -0.117 -0.02 -0.188 0.02 -0.188 0.109 c 0 0.082 0.07 0.129 0.164 0.113 c 0.09 -0.016 0.164 0.012 0.164 0.063 c 0 0.172 -0.172 0.199 -0.32 0.051 m -1.383 -0.258 c -0.035 -0.172 -0.023 -0.234 0.035 -0.176 c 0.051 0.051 0.074 0.172 0.055 0.266 c -0.027 0.129 -0.051 0.105 -0.09 -0.09 m -2.512 -0.5 c -0.004 -0.059 0.078 -0.207 0.18 -0.328 c 0.242 -0.285 0.242 -0.105 0.004 0.203 c -0.102 0.129 -0.184 0.184 -0.184 0.125 m 8.609 -0.195 c -0.117 -0.148 -0.113 -0.152 0.031 -0.039 c 0.09 0.066 0.211 0.094 0.273 0.055 c 0.07 -0.043 0.086 -0.031 0.043 0.039 c -0.094 0.152 -0.199 0.133 -0.348 -0.055 m -12.453 -0.16 c -0.063 -0.074 -0.094 -0.211 -0.07 -0.305 c 0.035 -0.133 0.047 -0.121 0.055 0.043 c 0.008 0.129 0.098 0.25 0.223 0.301 c 0.145 0.059 0.164 0.086 0.059 0.09 c -0.082 0.004 -0.203 -0.055 -0.266 -0.129 m 0.91 0.07 c 0.117 -0.023 0.285 -0.023 0.375 0 c 0.09 0.023 -0.004 0.043 -0.211 0.043 c -0.207 -0.004 -0.277 -0.023 -0.164 -0.043 m 8.844 -0.063 c 0.023 -0.02 0.145 -0.086 0.273 -0.145 c 0.223 -0.105 0.223 -0.105 0.051 0.031 c -0.148 0.121 -0.453 0.227 -0.324 0.113 m 3.262 -0.316 c 0.063 -0.117 0.156 -0.211 0.207 -0.211 c 0.051 0 0.129 -0.098 0.176 -0.211 c 0.047 -0.117 0.09 -0.148 0.09 -0.07 c 0.008 0.168 -0.063 0.27 -0.355 0.516 l -0.227 0.188 m -2.152 -0.953 c 0.246 -0.473 0.457 -0.848 0.473 -0.832 c 0.043 0.043 -0.59 1.273 -0.77 1.504 c -0.082 0.102 0.055 -0.199 0.297 -0.672 m -10.656 -0.086 c 0.004 -0.109 0.027 -0.133 0.055 -0.059 c 0.027 0.07 0.027 0.148 -0.004 0.18 c -0.031 0.031 -0.055 -0.023 -0.051 -0.121 m 0.094 -0.375 c 0.004 -0.109 0.027 -0.133 0.055 -0.059 c 0.027 0.07 0.027 0.148 -0.004 0.18 c -0.031 0.031 -0.055 -0.023 -0.051 -0.121 m 3.176 -1.023 c -0.047 -1.27 0.016 -1.668 0.305 -1.871 c 0.289 -0.203 0.34 -0.113 0.238 0.41 c -0.098 0.484 -0.055 0.758 0.117 0.758 c 0.055 0 0.141 -0.098 0.191 -0.211 c 0.074 -0.176 0.082 -0.16 0.035 0.094 c -0.035 0.195 -0.016 0.305 0.055 0.305 c 0.059 0 0.078 0.039 0.047 0.094 c -0.082 0.129 -0.617 -0.391 -0.625 -0.613 c -0.008 -0.102 0.02 -0.301 0.059 -0.441 c 0.086 -0.316 -0.09 -0.359 -0.195 -0.047 c -0.035 0.113 -0.094 0.758 -0.125 1.43 l -0.063 1.219 m 1.414 -0.289 c -0.18 -0.141 -0.18 -0.145 0.004 -0.059 c 0.102 0.047 0.25 0.109 0.328 0.141 c 0.121 0.043 0.121 0.051 -0.004 0.059 c -0.082 0.004 -0.23 -0.059 -0.328 -0.141 m 0.66 0.051 c -0.156 -0.066 -0.141 -0.078 0.098 -0.066 c 0.156 0.008 0.344 -0.02 0.422 -0.059 c 0.074 -0.043 0.055 -0.008 -0.043 0.074 c -0.207 0.164 -0.215 0.168 -0.477 0.051 m 4.01 -0.063 c 0.09 -0.023 0.238 -0.023 0.328 0 c 0.09 0.023 0.016 0.043 -0.164 0.043 c -0.18 0 -0.254 -0.02 -0.164 -0.043 m -9.191 -0.262 c 0 -0.156 0.023 -0.207 0.047 -0.117 c 0.023 0.09 0.02 0.219 -0.004 0.281 c -0.027 0.063 -0.047 -0.012 -0.043 -0.164 m 9.902 0.031 c 0.148 -0.168 0.277 -0.23 0.41 -0.195 c 0.168 0.043 0.188 0.016 0.148 -0.223 c -0.027 -0.148 -0.078 -0.355 -0.113 -0.457 c -0.039 -0.105 0 -0.07 0.086 0.074 c 0.203 0.355 0.152 0.672 -0.109 0.676 c -0.113 0.004 -0.305 0.086 -0.422 0.188 l -0.219 0.184 m 3.406 -0.957 c -0.02 -0.453 -0.008 -1.012 0.027 -1.242 c 0.035 -0.258 0.063 0.059 0.07 0.82 c 0.004 0.684 -0.008 1.242 -0.027 1.242 c -0.023 0 -0.055 -0.371 -0.07 -0.82 m -9.316 0.625 c -0.098 -0.156 -0.012 -0.176 0.125 -0.031 c 0.066 0.074 0.078 0.133 0.027 0.133 c -0.051 0 -0.117 -0.047 -0.152 -0.102 m 4.844 -0.352 l -0.012 -0.406 l -0.246 0.195 c -0.27 0.211 -0.512 0.129 -0.5 -0.168 c 0.004 -0.094 0.043 -0.063 0.102 0.082 l 0.094 0.234 l 0.422 -0.445 c 0.391 -0.418 0.59 -0.57 0.457 -0.352 c -0.031 0.051 0.039 0.094 0.156 0.098 c 0.219 0.008 0.219 0.008 0.016 0.086 c -0.258 0.105 -0.34 0.246 -0.414 0.707 l -0.063 0.375 m -8.496 -0.676 c 0.027 -0.219 0.082 -0.629 0.121 -0.914 c 0.098 -0.738 -0.027 -0.895 -0.727 -0.902 c -0.359 -0.004 -0.469 -0.031 -0.344 -0.078 c 0.18 -0.074 0.18 -0.078 -0.023 -0.141 c -0.117 -0.039 -0.211 -0.125 -0.211 -0.195 c 0 -0.156 0.797 -0.879 1.359 -1.234 c 0.379 -0.242 0.453 -0.352 0.758 -1.141 c 0.188 -0.484 0.527 -1.16 0.758 -1.5 l 0.418 -0.625 l -0.441 0.422 l -0.445 0.422 l 0.301 -0.383 c 0.445 -0.57 2.438 -2.01 2.77 -2.01 c 0.055 0 -0.133 0.129 -0.414 0.285 c -0.727 0.402 -0.93 0.625 -0.332 0.371 c 0.258 -0.109 0.531 -0.246 0.609 -0.309 c 0.078 -0.059 0.016 0.039 -0.145 0.219 c -0.16 0.176 -0.496 0.617 -0.75 0.98 c -0.512 0.73 -0.707 0.652 -0.281 -0.109 c 0.133 -0.238 0.242 -0.449 0.242 -0.469 c 0 -0.117 -0.879 0.586 -1.219 0.973 c -0.441 0.5 -0.691 0.965 -1.074 1.977 c -0.234 0.625 -0.301 0.711 -0.813 1.059 c -0.652 0.441 -1.207 0.914 -1.207 1.027 c 0 0.117 0.988 0.406 1.16 0.34 c 0.094 -0.035 0.152 -0.168 0.152 -0.344 c 0 -0.281 -0.004 -0.285 -0.398 -0.223 c -0.27 0.039 -0.367 0.027 -0.305 -0.039 c 0.145 -0.145 1.414 -0.676 1.609 -0.672 c 0.094 0 -0.039 0.074 -0.297 0.164 l -0.469 0.16 l -0.016 0.469 c -0.035 1.012 -0.121 1.805 -0.258 2.297 c -0.125 0.457 -0.133 0.469 -0.09 0.121 m 3.324 -6.984 c 0.074 -0.137 0.074 -0.176 0 -0.129 c -0.055 0.035 -0.148 0.152 -0.203 0.258 c -0.074 0.137 -0.074 0.176 -0.004 0.129 c 0.059 -0.035 0.152 -0.148 0.207 -0.258 m 7.422 7.195 c -0.141 -0.066 -0.207 -0.176 -0.203 -0.332 c 0.004 -0.141 0.027 -0.18 0.059 -0.094 c 0.027 0.074 0.141 0.211 0.246 0.297 c 0.242 0.191 0.188 0.262 -0.102 0.129 m -5.109 -0.305 c -0.09 -0.023 -0.164 -0.121 -0.164 -0.215 c 0 -0.098 -0.055 -0.195 -0.117 -0.223 c -0.094 -0.035 -0.09 -0.047 0.004 -0.055 c 0.066 -0.004 0.148 0.066 0.18 0.16 c 0.035 0.09 0.129 0.215 0.207 0.277 c 0.156 0.121 0.152 0.121 -0.109 0.055 m 1.906 -0.637 c -0.074 -0.309 -0.152 -0.422 -0.277 -0.422 c -0.18 0 -0.48 0.273 -0.48 0.441 c 0 0.051 -0.063 0.148 -0.137 0.211 c -0.113 0.094 -0.16 0.051 -0.281 -0.234 c -0.078 -0.191 -0.145 -0.496 -0.145 -0.676 c 0 -0.266 -0.031 -0.316 -0.152 -0.266 c -0.098 0.035 -0.203 -0.012 -0.289 -0.133 c -0.074 -0.105 -0.176 -0.168 -0.227 -0.133 c -0.055 0.031 -0.043 -0.027 0.023 -0.133 c 0.16 -0.258 0.551 -0.438 0.551 -0.254 c 0 0.07 -0.043 0.156 -0.094 0.191 c -0.051 0.031 -0.094 0.125 -0.094 0.207 c 0 0.133 0.016 0.133 0.172 -0.008 c 0.273 -0.246 0.324 -0.184 0.262 0.305 c -0.051 0.363 -0.031 0.469 0.082 0.512 c 0.102 0.039 0.129 0.133 0.09 0.316 c -0.055 0.25 -0.051 0.254 0.09 0.078 c 0.082 -0.102 0.148 -0.234 0.148 -0.301 c 0 -0.145 0.293 -0.313 0.551 -0.313 c 0.191 0 0.234 0.086 0.336 0.68 c 0.082 0.484 0 0.441 -0.129 -0.07 m 2.539 0.141 c 0 -0.129 0.02 -0.184 0.047 -0.117 c 0.023 0.063 0.023 0.168 0 0.234 c -0.027 0.063 -0.047 0.012 -0.047 -0.117 m -5.492 -0.199 c 0.145 -0.156 0.301 -1.113 0.188 -1.113 c -0.039 0 -0.16 0.047 -0.273 0.109 c -0.184 0.098 -0.191 0.094 -0.074 -0.047 c 0.234 -0.289 0.465 -0.195 0.496 0.195 l 0.031 0.352 l 0.16 -0.281 c 0.086 -0.156 0.16 -0.238 0.164 -0.188 c 0 0.051 -0.102 0.25 -0.23 0.441 c -0.285 0.418 -0.289 0.488 -0.035 0.602 c 0.168 0.074 0.141 0.09 -0.18 0.086 c -0.344 -0.004 -0.367 -0.02 -0.246 -0.156 m 4.996 -0.105 c 0.043 -0.258 0.055 -0.273 0.086 -0.086 c 0.02 0.125 -0.004 0.262 -0.051 0.309 c -0.051 0.051 -0.066 -0.035 -0.035 -0.223 m 0.941 -0.117 c -0.023 -0.16 -0.09 -0.273 -0.156 -0.258 c -0.066 0.012 -0.117 -0.043 -0.117 -0.117 c 0 -0.078 0.035 -0.141 0.082 -0.141 c 0.164 0 0.305 0.273 0.27 0.531 l -0.035 0.266 m -1.254 -0.938 c -0.125 -0.23 -0.199 -0.445 -0.164 -0.48 c 0.039 -0.035 0.156 0.133 0.262 0.379 c 0.254 0.574 0.191 0.633 -0.098 0.098 m 3.586 -0.371 c 0 -0.207 0.02 -0.281 0.043 -0.164 c 0.02 0.117 0.02 0.285 -0.004 0.375 c -0.023 0.09 -0.043 -0.008 -0.039 -0.211 m -14.555 -0.09 c 0 -0.074 0.035 -0.16 0.082 -0.188 c 0.047 -0.027 0.066 0.031 0.039 0.137 c -0.059 0.219 -0.121 0.246 -0.121 0.051 m 0.281 -0.363 c 0 -0.016 0.137 -0.152 0.305 -0.305 l 0.305 -0.273 l -0.277 0.305 c -0.258 0.281 -0.332 0.348 -0.332 0.273 m 14.164 -0.117 c 0.004 -0.109 0.023 -0.133 0.055 -0.059 c 0.027 0.066 0.023 0.148 -0.008 0.18 c -0.031 0.031 -0.051 -0.023 -0.047 -0.121 m -0.094 -0.375 c 0.004 -0.109 0.023 -0.133 0.055 -0.059 c 0.027 0.066 0.023 0.148 -0.008 0.18 c -0.031 0.031 -0.051 -0.023 -0.047 -0.121 m -13.414 -0.074 c 0 -0.02 0.074 -0.094 0.164 -0.164 c 0.148 -0.117 0.152 -0.113 0.035 0.035 c -0.125 0.156 -0.199 0.203 -0.199 0.129 m 13.32 -0.328 c -0.004 -0.121 -0.102 -0.387 -0.215 -0.594 c -0.18 -0.316 -0.191 -0.379 -0.07 -0.457 c 0.117 -0.078 0.117 -0.098 -0.004 -0.184 c -0.109 -0.07 -0.066 -0.094 0.188 -0.09 c 0.18 0 0.461 -0.023 0.621 -0.055 l 0.293 -0.059 l -0.07 0.383 c -0.074 0.402 -0.031 0.465 0.18 0.27 c 0.094 -0.086 0.109 -0.086 0.063 -0.008 c -0.031 0.063 -0.227 0.207 -0.43 0.324 c -0.203 0.113 -0.41 0.316 -0.461 0.449 c -0.086 0.238 -0.09 0.238 -0.094 0.02 m 0.512 -0.941 c -0.082 -0.129 -0.582 -0.137 -0.664 -0.004 c -0.031 0.051 0.012 0.207 0.098 0.34 l 0.16 0.242 l 0.234 -0.238 c 0.129 -0.129 0.207 -0.281 0.172 -0.34 m -13.457 0.988 c 0 -0.02 0.074 -0.094 0.164 -0.164 c 0.148 -0.117 0.152 -0.113 0.035 0.035 c -0.121 0.156 -0.199 0.203 -0.199 0.129 m 2.137 -0.031 c 0.07 -0.027 0.148 -0.023 0.18 0.008 c 0.031 0.031 -0.023 0.055 -0.121 0.051 c -0.109 -0.004 -0.133 -0.027 -0.059 -0.059 m -1.566 -0.461 c 0.125 -0.16 0.246 -0.277 0.27 -0.254 c 0.02 0.02 -0.082 0.148 -0.227 0.289 l -0.27 0.258 m 3.762 -0.395 c 0.07 -0.027 0.148 -0.023 0.18 0.008 c 0.031 0.031 -0.023 0.055 -0.121 0.051 c -0.109 -0.004 -0.133 -0.027 -0.059 -0.059 m 1.125 -0.281 c 0.07 -0.027 0.148 -0.023 0.18 0.008 c 0.031 0.031 -0.023 0.055 -0.121 0.051 c -0.109 -0.004 -0.133 -0.027 -0.059 -0.059 m 0.371 -0.09 c 0.063 -0.027 0.168 -0.027 0.234 0 c 0.063 0.023 0.012 0.047 -0.117 0.047 c -0.129 0 -0.184 -0.023 -0.117 -0.047 m 1.055 -0.176 c 0.387 -0.07 0.996 -0.145 1.359 -0.176 c 0.418 -0.031 0.227 0.016 -0.516 0.129 c -0.645 0.102 -1.258 0.18 -1.359 0.176 c -0.105 -0.004 0.129 -0.063 0.516 -0.129 m 7.313 -0.137 c -0.086 -0.055 -0.098 -0.094 -0.031 -0.094 c 0.063 0 0.141 0.039 0.172 0.094 c 0.07 0.113 0.039 0.113 -0.141 0 m -4.898 -0.164 c 0.168 -0.02 0.441 -0.02 0.609 0 c 0.168 0.023 0.031 0.039 -0.305 0.039 c -0.336 0 -0.473 -0.016 -0.305 -0.039 m 2.066 0 c 0.219 -0.02 0.555 -0.02 0.75 0 c 0.191 0.02 0.012 0.039 -0.402 0.035 c -0.414 0 -0.57 -0.016 -0.348 -0.035 m 0.301 -0.656 c -0.27 -0.051 -0.785 -0.395 -0.707 -0.473 c 0.027 -0.027 -0.023 -0.141 -0.113 -0.246 c -0.164 -0.195 -0.164 -0.195 0.043 -0.02 c 0.113 0.094 0.199 0.215 0.188 0.27 c -0.012 0.051 0.039 0.113 0.109 0.141 c 0.09 0.031 0.109 0.008 0.055 -0.082 c -0.043 -0.078 0 -0.063 0.109 0.031 c 0.098 0.086 0.328 0.223 0.508 0.301 c 0.32 0.137 0.262 0.164 -0.191 0.078 m -10.03 -0.211 c 0.055 -0.105 0.121 -0.188 0.148 -0.188 c 0.023 0 0 0.082 -0.055 0.188 c -0.055 0.102 -0.121 0.188 -0.148 0.188 c -0.023 0 0 -0.086 0.055 -0.188 m 8.672 -0.66 c -0.258 -0.199 -0.469 -0.418 -0.469 -0.48 c 0 -0.059 -0.059 -0.129 -0.129 -0.152 c -0.09 -0.031 -0.105 -0.004 -0.059 0.074 c 0.051 0.082 0.039 0.098 -0.035 0.055 c -0.059 -0.039 -0.082 -0.113 -0.047 -0.168 c 0.035 -0.059 0.008 -0.082 -0.07 -0.055 c -0.07 0.027 -0.297 -0.051 -0.504 -0.168 c -0.207 -0.121 -0.688 -0.332 -1.074 -0.473 c -0.383 -0.145 -0.645 -0.277 -0.586 -0.297 c 0.355 -0.117 3.078 1.172 2.887 1.363 c -0.066 0.066 0.129 0.305 0.25 0.305 c 0.051 0 0.035 -0.074 -0.035 -0.164 c -0.117 -0.152 -0.113 -0.152 0.039 -0.035 c 0.09 0.07 0.141 0.152 0.117 0.18 c -0.027 0.027 0.02 0.125 0.105 0.223 c 0.23 0.254 0.133 0.203 -0.391 -0.207 m -0.188 -0.371 c -0.031 -0.055 -0.102 -0.094 -0.152 -0.094 c -0.051 0 -0.066 0.039 -0.035 0.094 c 0.031 0.051 0.102 0.094 0.152 0.094 c 0.051 0 0.066 -0.043 0.035 -0.094 m -3.984 -1.273 c -0.586 -0.254 -0.77 -0.273 -1.063 -0.117 c -0.176 0.094 -0.188 0.09 -0.086 -0.035 c 0.063 -0.078 0.086 -0.168 0.055 -0.203 c -0.117 -0.113 0.684 -0.059 1.16 0.082 c 0.324 0.094 0.488 0.199 0.523 0.328 c 0.059 0.223 0.063 0.223 -0.59 -0.055" fill="#a88d73"/><path d="m 13.719 19.813 c 0.039 -0.207 0.313 -0.234 0.313 -0.035 c 0 0.078 -0.078 0.156 -0.172 0.172 c -0.125 0.027 -0.164 -0.012 -0.141 -0.137 m -5.566 -0.566 c 0.07 -0.027 0.148 -0.023 0.18 0.008 c 0.031 0.031 -0.023 0.055 -0.121 0.051 c -0.109 -0.004 -0.133 -0.027 -0.059 -0.059 m 2.605 -0.016 c -0.152 -0.035 -0.293 -0.121 -0.32 -0.199 c -0.039 -0.117 -0.023 -0.121 0.102 -0.02 c 0.223 0.184 0.289 -0.02 0.117 -0.355 c -0.164 -0.316 -0.293 -0.363 -0.359 -0.117 c -0.039 0.152 -0.043 0.152 -0.051 -0.004 c -0.016 -0.246 0.273 -0.32 0.426 -0.105 c 0.375 0.512 0.508 0.617 0.645 0.504 c 0.113 -0.094 0.109 -0.148 -0.016 -0.391 c -0.078 -0.156 -0.227 -0.305 -0.324 -0.332 c -0.215 -0.055 -0.227 -0.148 -0.051 -0.297 c 0.289 -0.238 1.105 0.508 0.961 0.883 c -0.117 0.305 -0.695 0.523 -1.129 0.434 m 0.961 -0.355 c 0.09 -0.164 0.043 -0.477 -0.102 -0.664 c -0.145 -0.184 -0.27 -0.035 -0.156 0.176 c 0.055 0.105 0.078 0.293 0.047 0.418 c -0.066 0.254 0.078 0.305 0.211 0.07 m -3.887 0.207 c -0.031 -0.078 -0.035 -0.195 -0.012 -0.258 c 0.02 -0.066 0.063 -0.008 0.09 0.137 c 0.051 0.277 0.008 0.344 -0.078 0.121 m 5.215 -0.004 c 0 -0.078 0.043 -0.141 0.094 -0.141 c 0.051 0 0.094 0.063 0.094 0.141 c 0 0.078 -0.043 0.141 -0.094 0.141 c -0.051 0 -0.094 -0.063 -0.094 -0.141 m -4.582 -0.113 c -0.008 -0.109 -0.078 -0.27 -0.16 -0.352 c -0.082 -0.078 -0.102 -0.145 -0.051 -0.145 c 0.141 0 0.313 0.355 0.262 0.543 c -0.031 0.117 -0.043 0.105 -0.051 -0.047 m 6.578 -0.828 c -0.133 -0.418 -0.301 -0.738 -0.457 -0.875 c -0.18 -0.156 -0.219 -0.246 -0.145 -0.32 c 0.277 -0.277 0.895 0.813 0.84 1.488 c -0.031 0.363 -0.035 0.359 -0.238 -0.293 m -8.277 -1.563 c 0 -0.086 0.043 -0.184 0.094 -0.215 c 0.117 -0.074 0.117 0.051 0 0.234 c -0.078 0.121 -0.09 0.117 -0.094 -0.02 m 7.125 -0.074 c 0 -0.051 0.043 -0.094 0.094 -0.094 c 0.051 0 0.094 0.043 0.094 0.094 c 0 0.051 -0.043 0.094 -0.094 0.094 c -0.051 0 -0.094 -0.043 -0.094 -0.094 m -2.48 -0.184 c -0.164 -0.18 -0.164 -0.184 0.078 -0.07 c 0.133 0.063 0.246 0.145 0.246 0.184 c 0 0.125 -0.156 0.07 -0.324 -0.113 m 1.59 -0.098 c -0.039 -0.063 -0.027 -0.152 0.023 -0.203 c 0.063 -0.063 0.117 -0.059 0.164 0.016 c 0.035 0.059 0.027 0.152 -0.027 0.203 c -0.063 0.063 -0.113 0.059 -0.16 -0.016 m -2.02 -0.328 c 0 -0.078 0.039 -0.141 0.09 -0.141 c 0.051 0 0.066 0.063 0.039 0.141 c -0.031 0.078 -0.07 0.141 -0.094 0.141 c -0.02 0 -0.035 -0.063 -0.035 -0.141 m 0.469 0.047 c -0.086 -0.055 -0.098 -0.094 -0.031 -0.094 c 0.063 0 0.141 0.043 0.172 0.094 c 0.07 0.117 0.039 0.117 -0.141 0 m 2.77 -0.07 c -0.059 -0.156 0.156 -0.398 0.359 -0.398 c 0.051 0 0.012 0.063 -0.09 0.137 c -0.176 0.137 -0.176 0.137 0.02 0.141 c 0.109 0 0.25 -0.059 0.316 -0.137 c 0.094 -0.113 0.09 -0.141 -0.012 -0.145 c -0.07 0 0.098 -0.117 0.379 -0.258 c 0.422 -0.211 0.559 -0.348 0.82 -0.816 c 0.172 -0.309 0.398 -0.797 0.508 -1.078 l 0.191 -0.516 l -0.191 -0.129 c -0.168 -0.109 -0.195 -0.227 -0.195 -0.762 c 0 -0.68 -0.059 -0.785 -0.504 -0.898 c -0.266 -0.066 -0.27 -0.059 -0.223 0.25 c 0.027 0.176 0.105 0.531 0.18 0.789 c 0.129 0.461 0.129 0.469 -0.082 0.48 c -0.117 0.008 -0.215 -0.023 -0.215 -0.07 c 0 -0.047 0.063 -0.082 0.141 -0.082 c 0.18 0 0.18 -0.133 0.004 -0.277 c -0.078 -0.066 -0.227 -0.086 -0.352 -0.051 c -0.203 0.063 -0.207 0.059 -0.039 -0.07 c 0.223 -0.168 0.16 -0.586 -0.18 -1.254 c -0.125 -0.254 -0.23 -0.512 -0.23 -0.574 c 0 -0.211 0.191 -0.125 0.355 0.164 c 0.273 0.484 0.77 0.449 0.77 -0.055 c 0 -0.258 0.129 -0.363 0.258 -0.203 c 0.047 0.063 0.207 0.422 0.352 0.801 c 0.191 0.488 0.309 0.676 0.414 0.652 c 0.18 -0.031 0.309 -0.93 0.23 -1.594 c -0.074 -0.617 0.102 -0.578 0.41 0.094 l 0.25 0.539 l 0.129 -0.461 c 0.125 -0.43 0.117 -0.488 -0.082 -0.914 c -0.289 -0.617 -0.426 -0.719 -1.176 -0.867 c -2.641 -0.527 -5.648 -0.059 -8.391 1.313 c -1.348 0.672 -1.324 0.645 -1.254 1.574 c 0.078 1.039 0.109 1.164 0.301 1.148 c 0.16 -0.012 0.203 0.109 0.457 1.242 c 0.09 0.422 0.215 0.066 0.281 -0.813 c 0.051 -0.699 0.098 -0.891 0.234 -0.961 c 0.09 -0.051 0.191 -0.09 0.219 -0.09 c 0.031 0 0.055 0.434 0.055 0.961 c 0 0.586 0.055 1.168 0.145 1.477 c 0.234 0.84 0.266 0.789 -0.52 0.844 l -0.703 0.047 l -0.188 0.398 c -0.199 0.426 -0.277 0.48 -0.367 0.25 c -0.027 -0.078 -0.016 -0.121 0.035 -0.09 c 0.086 0.055 0.285 -0.23 0.285 -0.414 c 0 -0.055 -0.086 -0.098 -0.188 -0.098 c -0.102 0 -0.238 -0.086 -0.305 -0.188 c -0.172 -0.277 -0.371 -0.23 -0.621 0.141 c -0.141 0.203 -0.301 0.328 -0.422 0.324 c -0.121 0 -0.156 -0.027 -0.094 -0.07 c 0.078 -0.051 0.074 -0.215 -0.008 -0.629 c -0.102 -0.5 -0.125 -0.539 -0.23 -0.375 c -0.094 0.152 -0.105 0.156 -0.066 0.02 c 0.031 -0.094 0.168 -0.727 0.309 -1.414 c 0.242 -1.199 0.258 -1.238 0.422 -1.074 c 0.113 0.113 0.172 0.309 0.172 0.594 c 0 0.23 0.039 0.422 0.094 0.422 c 0.051 0 0.094 -0.012 0.094 -0.023 c 0 -0.016 0.082 -0.469 0.188 -1.01 c 0.102 -0.543 0.188 -1.039 0.188 -1.102 c 0 -0.199 -0.332 -0.129 -0.566 0.117 c -0.262 0.281 -0.418 0.18 -0.281 -0.188 c 0.055 -0.145 0.09 -0.41 0.074 -0.594 c -0.023 -0.305 0.004 -0.344 0.305 -0.449 c 0.52 -0.191 4.02 -1.141 4.594 -1.246 c 3.055 -0.578 7.828 -0.715 7.03 -0.199 c -0.121 0.078 -0.117 0.125 0.031 0.379 c 0.234 0.398 0.508 1.598 0.566 2.488 c 0.027 0.41 0.027 0.66 0 0.559 c -0.07 -0.242 -0.223 -0.41 -0.223 -0.242 c 0 0.082 -0.074 0.102 -0.227 0.066 c -0.195 -0.051 -0.25 0.004 -0.469 0.441 c -0.313 0.648 -0.309 0.898 0.023 1.191 c 0.215 0.188 0.285 0.348 0.336 0.773 c 0.035 0.293 0.102 0.516 0.145 0.488 c 0.043 -0.023 0.152 -0.352 0.246 -0.727 c 0.152 -0.613 0.176 -0.652 0.234 -0.398 c 0.035 0.152 0.059 0.492 0.059 0.75 c -0.004 0.383 -0.012 0.402 -0.043 0.113 c -0.047 -0.457 -0.211 -0.355 -0.211 0.133 c 0 0.223 0.035 0.352 0.094 0.316 c 0.051 -0.031 0.094 -0.012 0.094 0.043 c 0 0.055 -0.066 0.129 -0.145 0.156 c -0.082 0.031 -0.23 0.219 -0.332 0.422 c -0.188 0.363 -0.309 0.441 -0.418 0.266 c -0.031 -0.051 -0.105 -0.066 -0.168 -0.031 c -0.063 0.035 0.008 -0.051 0.156 -0.188 c 0.164 -0.156 0.246 -0.313 0.211 -0.398 c -0.031 -0.078 -0.055 -0.164 -0.055 -0.184 c 0 -0.023 -0.059 -0.039 -0.129 -0.039 c -0.074 0 -0.184 0.125 -0.246 0.281 c -0.164 0.391 -0.375 0.367 -0.375 -0.047 c 0 -0.23 -0.043 -0.328 -0.141 -0.328 c -0.078 0 -0.141 0.035 -0.141 0.078 c 0 0.043 -0.168 0.262 -0.375 0.484 c -0.207 0.223 -0.375 0.441 -0.375 0.484 c 0 0.164 0.238 0.066 0.328 -0.133 c 0.051 -0.117 0.188 -0.227 0.305 -0.242 c 0.168 -0.023 0.211 0.016 0.211 0.203 c 0 0.129 0.051 0.25 0.113 0.273 c 0.063 0.02 0.023 0.059 -0.09 0.09 c -0.184 0.047 -0.199 0.023 -0.148 -0.219 c 0.07 -0.355 -0.215 -0.379 -0.348 -0.027 c -0.078 0.203 -0.133 0.234 -0.336 0.184 c -0.656 -0.164 -0.746 -0.156 -1.277 0.129 c -0.629 0.34 -0.598 0.332 -0.676 0.125 m 2.141 -4.945 c -0.031 -0.078 -0.121 -0.141 -0.199 -0.141 c -0.113 0 -0.117 0.023 -0.023 0.141 c 0.063 0.078 0.152 0.141 0.195 0.141 c 0.043 0 0.055 -0.063 0.027 -0.141 m 1.063 -2.93 c -0.191 -0.02 -0.488 -0.02 -0.656 0 c -0.164 0.023 -0.008 0.039 0.355 0.039 c 0.359 0 0.496 -0.02 0.301 -0.039 m -7.121 5.539 c 0.063 -0.027 0.168 -0.027 0.234 0 c 0.063 0.027 0.012 0.047 -0.117 0.047 c -0.129 0 -0.184 -0.02 -0.117 -0.047 m 0.586 -0.031 c -0.086 -0.055 -0.098 -0.094 -0.031 -0.094 c 0.063 0 0.141 0.043 0.172 0.094 c 0.07 0.117 0.039 0.117 -0.141 0 m -0.938 -0.094 c -0.086 -0.055 -0.098 -0.094 -0.031 -0.094 c 0.063 0 0.141 0.043 0.172 0.094 c 0.07 0.117 0.039 0.117 -0.141 0 m 5.871 -0.355 c 0.059 -0.035 0.129 -0.152 0.152 -0.254 c 0.035 -0.145 0.051 -0.129 0.059 0.07 c 0.008 0.188 -0.035 0.258 -0.152 0.254 c -0.105 0 -0.125 -0.023 -0.059 -0.07 m -4.359 -0.223 c -0.008 -0.137 -0.066 -0.273 -0.129 -0.297 c -0.094 -0.039 -0.094 -0.051 0.004 -0.055 c 0.148 -0.012 0.238 0.207 0.18 0.43 c -0.031 0.117 -0.051 0.09 -0.055 -0.078 m 2.059 -0.285 c -0.047 -0.133 -0.117 -0.406 -0.152 -0.605 c -0.117 -0.699 -0.129 -0.715 -0.473 -0.66 l -0.32 0.055 l 0.188 -0.363 c 0.219 -0.434 0.555 -0.703 0.699 -0.559 c 0.051 0.055 0.121 0.496 0.152 0.984 c 0.031 0.488 0.09 0.922 0.125 0.957 c 0.039 0.039 0.176 -0.051 0.301 -0.199 c 0.129 -0.148 0.258 -0.242 0.293 -0.207 c 0.031 0.031 -0.113 0.234 -0.328 0.449 l -0.391 0.391 l -0.09 -0.242 m -4.04 -0.109 c 0 -0.02 0.074 -0.094 0.164 -0.164 c 0.148 -0.117 0.152 -0.113 0.035 0.035 c -0.121 0.156 -0.199 0.203 -0.199 0.129 m 1.609 -0.152 c 0 -0.129 0.02 -0.184 0.047 -0.117 c 0.023 0.063 0.023 0.168 0 0.234 c -0.027 0.063 -0.047 0.012 -0.047 -0.117 m 3.379 0.039 c 0.09 -0.094 0.184 -0.148 0.207 -0.125 c 0.027 0.023 -0.047 0.102 -0.16 0.168 c -0.199 0.121 -0.199 0.117 -0.047 -0.043 m -5.328 -0.457 c -0.031 -0.086 -0.016 -0.363 0.031 -0.617 c 0.051 -0.254 0.07 -0.484 0.043 -0.512 c -0.027 -0.027 -0.148 0.016 -0.27 0.098 c -0.215 0.141 -0.219 0.141 -0.156 -0.117 c 0.129 -0.543 0.191 -0.609 0.695 -0.781 c 0.676 -0.234 0.672 -0.234 0.598 0.145 c -0.035 0.203 -0.023 0.328 0.035 0.328 c 0.055 0 0.293 -0.148 0.527 -0.328 c 0.238 -0.18 0.453 -0.328 0.477 -0.328 c 0.027 0 0.047 0.125 0.047 0.281 c 0 0.152 0.043 0.281 0.094 0.281 c 0.172 0 0.094 0.203 -0.098 0.254 c -0.105 0.027 -0.262 0.203 -0.348 0.391 l -0.156 0.34 l -0.031 -0.352 c -0.039 -0.41 -0.148 -0.438 -0.629 -0.156 c -0.203 0.121 -0.355 0.293 -0.387 0.445 c -0.156 0.707 -0.348 0.957 -0.473 0.629 m 1.699 -1.457 c 0.031 -0.051 0.012 -0.094 -0.043 -0.094 c -0.055 0 -0.098 0.043 -0.098 0.094 c 0 0.051 0.02 0.094 0.039 0.094 c 0.023 0 0.07 -0.043 0.102 -0.094 m 1.363 1.488 c -0.004 -0.086 0.059 -0.207 0.137 -0.27 c 0.18 -0.148 0.18 0.004 0.004 0.238 c -0.117 0.152 -0.141 0.16 -0.141 0.031 m -0.137 -0.926 c 0.066 -0.5 0.016 -0.563 -0.258 -0.313 c -0.156 0.137 -0.172 0.141 -0.172 0.004 c 0 -0.082 0.035 -0.172 0.082 -0.199 c 0.043 -0.027 0.105 -0.168 0.133 -0.313 c 0.055 -0.262 0.563 -0.637 0.727 -0.539 c 0.043 0.027 -0.023 0.324 -0.148 0.66 c -0.129 0.336 -0.23 0.734 -0.23 0.887 c 0 0.156 -0.043 0.281 -0.098 0.281 c -0.063 0 -0.074 -0.168 -0.035 -0.469 m -7.648 -0.516 c 0 -0.129 -0.043 -0.234 -0.098 -0.234 c -0.113 0 0.43 -0.48 1.281 -1.133 c 0.449 -0.348 0.582 -0.516 0.68 -0.844 c 0.219 -0.738 0.672 -1.551 1.102 -1.973 l 0.422 -0.41 l -0.418 0.625 c -0.23 0.344 -0.57 1.016 -0.754 1.5 c -0.309 0.789 -0.379 0.898 -0.762 1.141 c -0.551 0.348 -1.359 1.078 -1.359 1.227 c 0 0.066 0.094 0.164 0.211 0.219 c 0.207 0.102 0.207 0.105 -0.047 0.109 c -0.215 0.004 -0.258 -0.031 -0.258 -0.227 m 1.734 -1.641 c 0.094 -0.105 0.148 -0.188 0.121 -0.188 c -0.023 0 -0.121 0.082 -0.215 0.188 c -0.094 0.102 -0.148 0.188 -0.121 0.188 c 0.023 0 0.121 -0.086 0.215 -0.188 m 12.871 -0.609 c 0.043 -0.348 0.207 -0.461 0.207 -0.141 c 0 0.102 0.047 0.188 0.105 0.188 c 0.059 0 0.074 -0.07 0.039 -0.164 c -0.051 -0.137 -0.039 -0.145 0.063 -0.043 c 0.098 0.102 0.078 0.156 -0.113 0.305 c -0.32 0.242 -0.344 0.23 -0.301 -0.145 m -3.371 -1.852 c -0.434 -0.324 -0.891 -0.66 -1.02 -0.754 c -0.23 -0.164 -0.23 -0.164 0.066 -0.023 c 0.297 0.141 1.813 1.246 1.813 1.324 c 0 0.082 -0.09 0.023 -0.859 -0.547 m -6.836 -0.617 c 0.055 -0.105 0.148 -0.223 0.207 -0.258 c 0.07 -0.043 0.07 -0.008 -0.004 0.133 c -0.055 0.105 -0.148 0.219 -0.207 0.254 c -0.07 0.047 -0.07 0.012 0.004 -0.129 m 0.195 -0.777 c 0.281 -0.234 1.125 -0.676 1.188 -0.613 c 0.07 0.066 -0.473 0.418 -0.965 0.625 l -0.457 0.188" fill="#9e6966"/><path d="m 7.953 19.16 c -0.109 -0.109 -0.066 -0.477 0.066 -0.586 c 0.176 -0.145 0.434 0.105 0.434 0.418 c 0 0.176 -0.051 0.23 -0.219 0.23 c -0.121 0 -0.246 -0.031 -0.281 -0.063 m 2.527 -0.234 c -0.168 -0.238 -0.203 -0.547 -0.063 -0.547 c 0.051 0 0.16 0.129 0.242 0.289 c 0.191 0.371 0.043 0.578 -0.18 0.258 m 1.023 -0.117 c 0.031 -0.125 0.012 -0.313 -0.043 -0.418 c -0.113 -0.211 0.012 -0.359 0.156 -0.176 c 0.145 0.188 0.191 0.5 0.102 0.664 c -0.133 0.234 -0.277 0.184 -0.215 -0.07 m -0.238 -2.676 c -0.129 -0.102 -0.203 -0.211 -0.164 -0.25 c 0.105 -0.105 0.539 0.129 0.539 0.289 c 0 0.188 -0.09 0.176 -0.375 -0.039 m 3.227 -0.523 c 0.254 -0.191 0.496 -0.191 0.336 0.004 c -0.066 0.074 -0.207 0.137 -0.316 0.137 c -0.195 -0.004 -0.195 -0.008 -0.02 -0.141 m -7.563 -0.137 c -0.105 -0.121 -0.277 -0.188 -0.492 -0.188 c -0.375 0 -0.395 -0.055 -0.148 -0.352 c 0.219 -0.262 0.395 -0.27 0.547 -0.023 c 0.066 0.102 0.203 0.188 0.305 0.188 c 0.211 0 0.242 0.168 0.07 0.406 c -0.113 0.148 -0.129 0.148 -0.281 -0.031 m 9.211 0.016 c 0 -0.043 0.168 -0.262 0.375 -0.484 c 0.207 -0.227 0.375 -0.441 0.375 -0.484 c 0 -0.043 0.063 -0.078 0.141 -0.078 c 0.098 0 0.141 0.098 0.141 0.328 c 0 0.41 0.211 0.438 0.375 0.047 c 0.125 -0.309 0.32 -0.371 0.41 -0.133 c 0.078 0.199 -0.027 0.363 -0.406 0.645 c -0.41 0.301 -0.566 0.301 -0.566 -0.004 c 0 -0.195 -0.039 -0.234 -0.211 -0.211 c -0.117 0.016 -0.254 0.125 -0.305 0.242 c -0.086 0.199 -0.328 0.297 -0.328 0.133 m -10.84 -0.336 c -0.059 -0.152 0.121 -0.871 0.234 -0.941 c 0.043 -0.027 0.105 0.133 0.137 0.352 c 0.027 0.223 0.082 0.473 0.113 0.563 c 0.051 0.125 0.008 0.16 -0.184 0.16 c -0.137 0 -0.27 -0.063 -0.297 -0.133 m 13.18 -0.984 c 0 -0.203 0.043 -0.398 0.094 -0.43 c 0.055 -0.035 0.094 0.09 0.094 0.316 c 0 0.207 -0.043 0.398 -0.094 0.434 c -0.059 0.031 -0.094 -0.094 -0.094 -0.32 m -8.438 -0.754 c -0.078 -0.043 -0.262 -0.129 -0.41 -0.188 c -0.238 -0.094 -0.262 -0.137 -0.207 -0.406 c 0.07 -0.363 0.273 -0.578 0.711 -0.754 c 0.422 -0.168 0.938 -0.051 0.938 0.211 c 0 0.102 0.082 0.207 0.188 0.238 c 0.223 0.074 0.254 0.473 0.055 0.758 c -0.102 0.145 -0.246 0.191 -0.633 0.203 c -0.273 0.008 -0.563 -0.02 -0.641 -0.063 m 4.5 -0.035 c -0.191 -0.098 -0.234 -0.188 -0.223 -0.465 c 0.012 -0.449 0.137 -0.586 0.703 -0.773 c 0.367 -0.125 0.492 -0.133 0.602 -0.043 c 0.176 0.148 0.176 0.277 -0.004 0.277 c -0.078 0 -0.141 0.043 -0.141 0.094 c 0 0.051 0.094 0.082 0.211 0.07 c 0.168 -0.016 0.215 0.031 0.238 0.234 c 0.023 0.199 -0.008 0.262 -0.141 0.262 c -0.094 0 -0.27 0.105 -0.391 0.234 c -0.242 0.258 -0.504 0.289 -0.855 0.109 m 1.594 -2.453 c -0.094 -0.117 -0.09 -0.141 0.023 -0.141 c 0.078 0 0.168 0.063 0.199 0.141 c 0.027 0.074 0.016 0.141 -0.027 0.141 c -0.043 0 -0.133 -0.066 -0.195 -0.141 m -11.953 -0.422 c -0.07 -0.113 0.02 -0.281 0.145 -0.281 c 0.051 0 0.09 0.082 0.09 0.188 c 0 0.195 -0.137 0.25 -0.234 0.094 m 6.516 -0.094 c 0 -0.055 0.043 -0.094 0.098 -0.094 c 0.055 0 0.074 0.039 0.043 0.094 c -0.031 0.051 -0.078 0.094 -0.102 0.094 c -0.02 0 -0.039 -0.043 -0.039 -0.094 m -4.641 -1.594 c 0.094 -0.105 0.191 -0.188 0.215 -0.188 c 0.027 0 -0.027 0.082 -0.121 0.188 c -0.094 0.102 -0.191 0.188 -0.219 0.188 c -0.023 0 0.031 -0.086 0.125 -0.188 m 13.172 -0.711 c 0 -0.078 0.043 -0.121 0.094 -0.086 c 0.051 0.031 0.094 0.098 0.094 0.145 c 0 0.047 -0.043 0.09 -0.094 0.09 c -0.051 0 -0.094 -0.066 -0.094 -0.148 m -2.465 -0.109 c 0.168 -0.02 0.465 -0.02 0.656 0 c 0.195 0.02 0.059 0.039 -0.301 0.039 c -0.359 0 -0.52 -0.02 -0.355 -0.039" fill="#67585b"/></svg>