<svg xmlns="http://www.w3.org/2000/svg" viewBox="0 0 24 24"><path d="m 21.527 18.359 c 8.629 -12.273 -7.309 -24.711 -17.473 -14.711 c -9.578 9.426 -0.699 24.07 11.219 19.488 c 2.488 -0.953 4.672 -2.523 6.254 -4.777" fill="#778799"/><g fill="#fff"><path d="m 3.227 15.12 c 0 0.016 0 0.035 0.004 0.051 c 0.004 0.176 0.09 0.348 0.207 0.438 l 3.457 2.555 l 3.461 2.555 c 0.125 0.094 0.289 0.09 0.414 -0.004 c 0.129 -0.094 0.211 -0.277 0.211 -0.461 v -2.848 h 7.863 c 0.527 0 0.949 -0.43 0.949 -0.965 v -1.328 h -16.566 c 0 0.004 0 0.004 0 0.008"/><path d="m 11.05 5.168 c -0.273 0 -0.492 0.207 -0.492 0.469 v 1.117 c -0.414 0.098 -0.805 0.254 -1.16 0.461 l -0.82 -0.789 c -0.191 -0.184 -0.504 -0.184 -0.695 0 l -0.805 0.773 c -0.191 0.184 -0.191 0.48 0 0.668 l 0.82 0.785 c -0.211 0.344 -0.375 0.719 -0.48 1.113 h -1.16 c -0.273 0 -0.492 0.211 -0.492 0.473 v 1.098 c 0 0.258 0.219 0.469 0.492 0.469 h 1.16 c 0.105 0.398 0.27 0.77 0.48 1.113 l -0.82 0.789 c -0.191 0.184 -0.191 0.48 0 0.664 l 0.805 0.773 c 0.195 0.188 0.504 0.188 0.695 0 l 0.82 -0.785 c 0.355 0.203 0.746 0.359 1.16 0.461 v 1.113 c 0 0.262 0.219 0.473 0.492 0.473 h 1.141 c 0.273 0 0.492 -0.211 0.492 -0.473 v -1.113 c 0.41 -0.102 0.801 -0.258 1.156 -0.461 l 0.824 0.785 c 0.191 0.188 0.5 0.188 0.691 0 l 0.809 -0.773 c 0.191 -0.184 0.191 -0.48 0 -0.664 l -0.824 -0.789 c 0.215 -0.34 0.379 -0.715 0.484 -1.113 h 1.16 c 0.273 0 0.492 -0.211 0.492 -0.469 v -1.098 c 0 -0.262 -0.219 -0.473 -0.492 -0.473 h -1.16 c -0.105 -0.395 -0.27 -0.77 -0.484 -1.113 l 0.824 -0.785 c 0.191 -0.188 0.191 -0.484 0 -0.668 l -0.809 -0.773 c -0.191 -0.184 -0.5 -0.184 -0.691 0 l -0.824 0.789 c -0.355 -0.207 -0.746 -0.363 -1.156 -0.461 v -1.117 c 0 -0.262 -0.219 -0.469 -0.492 -0.469 m -0.57 3.699 c 1.105 0 2 0.859 2 1.918 c 0 1.063 -0.895 1.922 -2 1.922 c -1.105 0 -2 -0.859 -2 -1.922 c 0 -1.059 0.895 -1.918 2 -1.918"/><path d="m 163.55 127.99 c 0 19.616 -15.931 35.567 -35.535 35.567 c -19.655 0 -35.587 -15.951 -35.587 -35.567 c 0 -19.616 15.931 -35.567 35.587 -35.567 c 19.604 0 35.535 15.951 35.535 35.567" transform="matrix(0.07552 0 0 0.07249 1.958 1.507)" stroke="#707f8f" stroke-width="17.6"/></g></svg>