<svg xmlns="http://www.w3.org/2000/svg" xmlns:xlink="http://www.w3.org/1999/xlink" viewBox="0 0 24 24"><defs><g id="3" clip-path="url(#2)"><path d="m 10.32 17.473 l -0.16 -0.059 c -0.488 -0.18 -1 -0.484 -1.492 -0.887 l -0.227 -0.188 l -0.117 0.066 c -0.102 0.051 -0.141 0.063 -0.254 0.07 c -0.125 0.004 -0.141 0.004 -0.25 -0.055 c -0.332 -0.168 -0.586 -0.449 -0.801 -0.883 c -0.117 -0.238 -0.164 -0.383 -0.184 -0.59 c -0.027 -0.238 -0.02 -0.266 0.137 -0.418 c 0.074 -0.074 0.141 -0.145 0.148 -0.164 c 0.023 -0.035 -0.004 -0.129 -0.07 -0.242 c -0.027 -0.043 -0.07 -0.145 -0.102 -0.219 c -0.031 -0.078 -0.086 -0.203 -0.121 -0.285 c -0.035 -0.078 -0.063 -0.156 -0.063 -0.172 c 0 -0.016 -0.012 -0.047 -0.027 -0.074 c -0.012 -0.023 -0.031 -0.09 -0.043 -0.145 c -0.012 -0.055 -0.047 -0.16 -0.074 -0.238 c -0.031 -0.074 -0.063 -0.188 -0.07 -0.25 c -0.008 -0.063 -0.023 -0.16 -0.031 -0.223 c -0.051 -0.324 -0.07 -0.574 -0.07 -0.922 c 0 -0.406 0.023 -0.633 0.086 -0.82 c 0.07 -0.207 0.324 -0.602 0.633 -0.988 l 0.152 -0.188 v -0.215 c 0 -0.188 -0.035 -0.586 -0.07 -0.848 l -0.012 -0.078 l 0.109 -0.078 c 0.152 -0.105 0.277 -0.164 0.469 -0.223 c 0.211 -0.063 0.336 -0.082 0.52 -0.082 h 0.156 l 0.102 -0.125 c 0.055 -0.07 0.125 -0.156 0.16 -0.188 c 0.035 -0.035 0.055 -0.07 0.051 -0.082 c 0.832 -0.621 1.137 -0.879 2.133 -1.484 c 0.117 -0.07 1.023 -0.805 1.145 -0.926 c 0.039 -0.039 0.078 -0.07 0.094 -0.07 c 0.047 0 0.008 0.133 -0.074 0.27 c -0.043 0.07 -0.086 0.145 -0.09 0.164 c -0.02 0.051 -0.27 0.496 -0.301 0.531 c -0.016 0.016 -0.027 0.043 -0.027 0.063 c 0 0.055 -0.254 0.414 -0.176 0.402 c 0.504 0.035 0.77 -0.023 1.297 -0.109 l 0.645 -0.203 c 0.121 -0.039 0.262 -0.094 0.316 -0.121 c 0.051 -0.027 0.109 -0.051 0.125 -0.051 c 0.027 0 0.328 -0.129 0.41 -0.172 c 0.043 -0.027 0.082 -0.02 0.082 0.008 c 0 0.039 -0.059 0.117 -0.188 0.254 c -0.063 0.066 -0.113 0.125 -0.113 0.133 c 0 0.012 -0.148 0.273 -0.117 0.293 c 0.055 0.031 0.438 -0.145 0.84 -0.133 c 0.113 0.004 0.246 -0.035 0.301 -0.031 c -0.008 0.102 -0.031 0.078 -0.586 0.492 c -0.07 0.051 -0.012 -0.129 1.203 0.527 c 0.094 0.09 0.02 0.266 -0.25 0.145 c -0.18 -0.07 -0.777 -0.215 -0.887 -0.215 c -0.059 -0.004 -0.121 -0.012 -0.145 -0.023 c -0.02 -0.012 -0.063 -0.016 -0.098 -0.008 c -0.051 0.008 -0.082 0 -0.133 -0.031 c -0.059 -0.039 -0.086 -0.043 -0.262 -0.043 c -0.109 0 -0.219 0.012 -0.254 0.023 c -0.043 0.016 -0.25 0.02 -0.785 0.02 h -0.727 l -0.148 0.043 c -0.082 0.027 -0.164 0.043 -0.188 0.035 c -0.086 -0.02 -0.18 0.07 -0.203 0.199 c -0.008 0.031 -0.047 0.105 -0.094 0.16 c -0.063 0.078 -0.086 0.098 -0.129 0.098 c -0.031 0 -0.078 0.012 -0.109 0.023 c -0.035 0.012 -0.176 0.059 -0.316 0.105 c -0.141 0.043 -0.27 0.09 -0.289 0.102 c -0.02 0.012 -0.066 0.031 -0.105 0.043 c -0.086 0.027 -0.707 0.27 -0.883 0.344 l -0.125 0.055 h 0.234 c 0.402 0 0.855 0.098 0.832 0.176 c -0.004 0.008 -0.059 0.031 -0.121 0.047 c -0.063 0.016 -0.172 0.047 -0.242 0.063 c -0.066 0.02 -0.137 0.043 -0.152 0.055 c -0.012 0.012 -0.059 0.027 -0.105 0.035 c -0.043 0.008 -0.098 0.027 -0.121 0.043 c -0.023 0.012 -0.07 0.035 -0.109 0.047 c -0.039 0.012 -0.129 0.047 -0.195 0.078 c -0.066 0.031 -0.156 0.066 -0.191 0.082 c -0.109 0.047 -0.555 0.301 -0.684 0.395 c -0.273 0.195 -0.59 0.586 -0.828 1.02 l -0.094 0.168 l 0.078 -0.008 c 0.043 -0.008 0.164 -0.035 0.266 -0.063 c 0.102 -0.031 0.199 -0.055 0.219 -0.055 c 0.02 0 0.059 -0.016 0.09 -0.035 c 0.027 -0.016 0.07 -0.031 0.098 -0.031 c 0.027 0 0.07 -0.012 0.098 -0.027 c 0.059 -0.031 0.156 -0.035 0.172 -0.008 c 0.016 0.023 -0.137 0.184 -0.324 0.344 c -0.16 0.141 -0.461 0.469 -0.461 0.508 c 0 0.016 -0.02 0.035 -0.043 0.047 c -0.047 0.02 -0.059 0.063 -0.023 0.094 c 0.012 0.012 0.004 0.027 -0.027 0.047 c -0.039 0.023 -0.047 0.039 -0.047 0.121 c 0 0.152 -0.016 0.199 -0.063 0.199 c -0.059 0 -0.07 0.047 -0.023 0.094 c 0.035 0.039 0.039 0.051 0.027 0.152 c -0.008 0.059 -0.027 0.184 -0.047 0.273 c -0.066 0.332 -0.063 0.59 0.02 0.953 c 0.02 0.086 0.047 0.227 0.063 0.316 c 0.066 0.406 0.078 0.445 0.195 0.715 c 0.242 0.574 0.285 0.648 0.578 1.016 c 0.207 0.262 0.297 0.352 0.492 0.496 c 0.078 0.059 0.207 0.164 0.285 0.23 c 0.191 0.164 0.273 0.215 0.707 0.418 c 0.387 0.184 0.355 0.172 1.066 0.34 c 0.262 0.059 0.289 0.063 0.746 0.078 c 0.598 0.023 0.723 0.023 0.836 0 c 0.051 -0.012 0.176 -0.02 0.277 -0.02 c 0.16 0 0.207 -0.008 0.348 -0.055 c 0.102 -0.031 0.23 -0.059 0.34 -0.07 c 0.223 -0.02 0.461 -0.078 0.816 -0.195 c 0.305 -0.102 0.344 -0.105 0.398 -0.066 c 0.051 0.035 0.094 0.031 0.246 -0.035 c 0.457 -0.195 1.258 -0.793 1.488 -1.109 c 0.043 -0.063 0.121 -0.156 0.168 -0.207 c 0.223 -0.25 0.445 -0.648 0.609 -1.105 c 0.059 -0.152 0.105 -0.258 0.125 -0.27 c 0.02 -0.016 0.035 -0.039 0.035 -0.059 c 0 -0.031 -0.008 -0.031 -0.152 -0.02 c -0.707 0.059 -1.227 -0.074 -1.566 -0.398 c -0.137 -0.133 -0.207 -0.242 -0.344 -0.539 c -0.402 -0.883 -0.422 -1.57 -0.051 -2.109 c 0.207 -0.301 0.617 -0.59 1.031 -0.727 c 0.074 -0.027 0.164 -0.059 0.191 -0.074 c 0.078 -0.039 0.43 -0.039 0.547 0 c 0.102 0.039 0.371 0.098 0.512 0.129 c 0.727 0.504 0.633 0.508 0.688 0.801 c -0.016 0.113 -0.039 0.141 -0.078 0.082 c -0.141 -0.219 -0.523 -0.48 -0.828 -0.57 c -0.191 -0.059 -0.52 -0.059 -0.707 0 c -0.965 0.293 -1.262 1.414 -0.59 2.238 c 0.297 0.363 0.734 0.543 1.18 0.484 c 0.359 -0.047 0.691 -0.18 0.828 -0.332 c 0.176 -0.188 0.246 -0.391 0.305 -0.844 c 0.016 -0.133 0.039 -0.074 0.063 0.152 c 0.02 0.238 -0.004 0.57 -0.059 0.777 c -0.035 0.137 -0.18 0.445 -0.25 0.527 c -0.023 0.031 -0.039 0.074 -0.043 0.121 c -0.004 0.105 -0.023 0.188 -0.051 0.227 c -0.016 0.02 -0.023 0.063 -0.023 0.098 c 0 0.133 -0.211 0.668 -0.402 1.031 c -0.113 0.203 -0.285 0.488 -0.453 0.73 l -0.141 0.207 c -0.844 0.801 -0.766 0.766 -1.563 1.215 c -0.012 -0.02 -0.336 0.094 -0.723 0.254 c -0.758 0.289 -0.68 0.25 -1.23 0.348 c -0.012 -0.004 -0.082 -0.004 -0.156 0.004 c -0.43 0.043 -0.793 0.086 -0.805 0.094 c -1.09 0.047 -1.297 0.078 -2.453 -0.258 m 0.926 -1.578 c -0.016 -0.012 -0.063 -0.02 -0.102 -0.02 c -0.094 0 -0.391 -0.074 -0.527 -0.133 c -0.059 -0.023 -0.145 -0.059 -0.191 -0.082 c -0.145 -0.059 -0.395 -0.242 -0.566 -0.41 c -0.188 -0.188 -0.316 -0.367 -0.422 -0.582 c -0.188 -0.387 -0.258 -0.73 -0.258 -1.27 c 0.004 -0.633 0.078 -0.918 0.313 -1.207 c 0.391 -0.477 1.02 -0.77 2.191 -1.027 c 0.398 -0.086 0.59 -0.063 0.941 0.109 c 0.625 0.305 1.168 0.898 1.375 1.504 c 0.184 0.531 0.141 1.09 -0.113 1.574 c -0.148 0.277 -0.504 0.672 -0.816 0.906 c -0.344 0.258 -0.781 0.473 -1.148 0.566 c -0.242 0.063 -0.629 0.102 -0.68 0.07 m 0.277 -0.727 c 0.141 -0.023 0.461 -0.125 0.637 -0.203 c 0.426 -0.195 0.836 -0.492 1.152 -0.836 c 0.246 -0.266 0.309 -0.441 0.293 -0.801 c -0.023 -0.508 -0.219 -0.91 -0.586 -1.199 c -0.344 -0.27 -0.75 -0.453 -1.01 -0.453 c -0.188 0 -0.816 0.164 -1.164 0.301 c -0.582 0.227 -0.906 0.477 -1.066 0.813 c -0.082 0.18 -0.148 0.703 -0.121 0.941 c 0.059 0.457 0.184 0.723 0.453 0.977 c 0.148 0.137 0.25 0.207 0.418 0.281 c 0.363 0.164 0.715 0.23 0.992 0.18 m -0.391 -1.012 c -0.141 -0.031 -0.277 -0.16 -0.383 -0.363 c -0.063 -0.117 -0.066 -0.133 -0.066 -0.281 c 0 -0.121 0.008 -0.172 0.035 -0.23 c 0.047 -0.086 0.172 -0.203 0.293 -0.262 c 0.078 -0.039 0.109 -0.043 0.289 -0.043 c 0.191 0 0.207 0 0.297 0.051 c 0.133 0.07 0.246 0.18 0.297 0.293 c 0.039 0.082 0.043 0.113 0.035 0.207 c -0.016 0.191 -0.133 0.375 -0.32 0.496 c -0.156 0.102 -0.355 0.156 -0.477 0.133 m 2.988 1.473 c -0.055 -0.023 -0.121 -0.152 -0.121 -0.23 c 0 -0.031 0.012 -0.078 0.023 -0.105 c 0.031 -0.059 0.035 -0.059 0.406 -0.09 c 0.82 -0.063 1.266 -0.246 1.68 -0.676 c 0.137 -0.145 0.145 -0.148 0.223 -0.148 c 0.148 0 0.191 0.039 0.215 0.195 c 0.016 0.105 -0.016 0.152 -0.215 0.332 c -0.438 0.391 -0.73 0.543 -1.16 0.605 c -0.066 0.012 -0.168 0.027 -0.223 0.035 c -0.117 0.02 -0.34 0.047 -0.57 0.074 c -0.094 0.008 -0.184 0.02 -0.191 0.023 c -0.012 0.004 -0.039 -0.004 -0.066 -0.016 m 3.145 -3.316 c -0.215 -0.043 -0.355 -0.211 -0.355 -0.434 c 0 -0.203 0.094 -0.375 0.25 -0.453 c 0.074 -0.035 0.113 -0.043 0.23 -0.043 c 0.121 0 0.16 0.008 0.25 0.051 c 0.238 0.109 0.348 0.324 0.281 0.543 c -0.066 0.23 -0.375 0.387 -0.656 0.336"/><path d="m 7.906 16.445 c -0.211 -0.082 -0.496 -0.328 -0.656 -0.57 c -0.113 -0.164 -0.25 -0.426 -0.293 -0.57 c -0.02 -0.059 -0.047 -0.133 -0.055 -0.164 c -0.008 -0.027 -0.02 -0.141 -0.02 -0.25 l -0.008 -0.195 l 0.125 -0.121 c 0.066 -0.07 0.141 -0.129 0.164 -0.137 c 0.02 -0.008 0.039 -0.023 0.039 -0.039 c 0 -0.016 -0.043 -0.113 -0.094 -0.219 c -0.055 -0.105 -0.102 -0.211 -0.109 -0.234 c -0.008 -0.023 -0.035 -0.09 -0.063 -0.145 c -0.043 -0.094 -0.07 -0.152 -0.156 -0.387 c -0.012 -0.035 -0.035 -0.109 -0.047 -0.164 c -0.016 -0.059 -0.055 -0.18 -0.086 -0.27 c -0.047 -0.125 -0.063 -0.203 -0.07 -0.332 c -0.008 -0.094 -0.023 -0.199 -0.035 -0.234 c -0.043 -0.109 -0.07 -0.52 -0.059 -0.93 c 0.012 -0.469 0.043 -0.625 0.16 -0.859 c 0.098 -0.184 0.34 -0.543 0.547 -0.801 c 0.086 -0.105 0.16 -0.215 0.172 -0.25 c 0.012 -0.039 0.016 -0.117 0.012 -0.215 c -0.012 -0.137 -0.023 -0.262 -0.074 -0.77 l -0.012 -0.109 l 0.109 -0.074 c 0.27 -0.172 0.582 -0.277 0.855 -0.281 c 0.254 -0.004 0.258 -0.004 0.344 -0.117 c 0.043 -0.051 0.117 -0.145 0.168 -0.203 c 0.055 -0.059 0.094 -0.117 0.094 -0.133 c 0 -0.039 0.172 -0.164 0.387 -0.281 c 0.262 -0.148 1.148 -0.75 1.504 -1.02 c 0.059 -0.043 0.137 -0.102 0.18 -0.125 c 0.137 -0.086 1.039 -0.813 1.164 -0.941 c 0.039 -0.039 0.078 -0.07 0.086 -0.07 c 0.027 0 0.012 0.082 -0.027 0.156 c -0.023 0.043 -0.098 0.184 -0.168 0.316 c -0.137 0.25 -0.234 0.418 -0.289 0.488 c -0.016 0.023 -0.031 0.055 -0.031 0.066 c 0 0.016 -0.043 0.086 -0.094 0.156 c -0.051 0.074 -0.109 0.16 -0.125 0.188 c -0.027 0.055 -0.027 0.059 0.004 0.07 c 0.055 0.023 0.691 0.016 0.824 -0.012 c 0.164 -0.031 0.414 -0.094 0.652 -0.164 c 0.105 -0.031 0.227 -0.063 0.266 -0.07 c 0.121 -0.02 0.578 -0.18 0.648 -0.227 c 0.02 -0.012 0.051 -0.023 0.066 -0.023 c 0.016 0 0.125 -0.043 0.242 -0.098 c 0.117 -0.051 0.219 -0.09 0.227 -0.086 c 0.02 0.02 -0.035 0.098 -0.16 0.227 c -0.066 0.066 -0.137 0.156 -0.156 0.195 c -0.016 0.043 -0.074 0.125 -0.121 0.188 c -0.051 0.063 -0.086 0.113 -0.082 0.117 c 0.004 0.004 0.086 -0.008 0.18 -0.023 c 0.465 -0.094 0.945 -0.164 0.969 -0.141 c 0.02 0.02 -0.035 0.063 -0.281 0.215 c -0.125 0.074 -0.246 0.152 -0.27 0.176 l -0.047 0.039 l 0.055 0.02 c 0.293 0.109 0.656 0.285 0.891 0.438 c 0.199 0.133 0.227 0.152 0.227 0.18 c 0 0.039 -0.039 0.039 -0.172 -0.004 c -0.16 -0.051 -0.734 -0.191 -0.91 -0.219 c -0.07 -0.012 -0.172 -0.031 -0.23 -0.047 c -0.156 -0.035 -0.445 -0.047 -0.531 -0.02 c -0.051 0.016 -0.289 0.023 -0.844 0.035 c -0.762 0.012 -0.977 0.027 -1.094 0.074 c -0.074 0.027 -0.168 0.152 -0.168 0.215 c 0 0.063 -0.121 0.223 -0.176 0.234 c -0.023 0.008 -0.105 0.031 -0.176 0.055 c -0.074 0.023 -0.156 0.051 -0.188 0.059 c -0.09 0.023 -0.367 0.121 -0.387 0.133 c -0.008 0.008 -0.051 0.027 -0.09 0.039 c -0.074 0.023 -0.695 0.266 -0.93 0.363 c -0.078 0.031 -0.137 0.066 -0.137 0.074 c 0 0.012 0.105 0.02 0.27 0.02 c 0.27 0.004 0.523 0.031 0.695 0.082 c 0.094 0.027 0.133 0.059 0.09 0.066 c -0.012 0.004 -0.086 0.027 -0.164 0.055 c -0.078 0.023 -0.168 0.043 -0.203 0.043 c -0.039 0 -0.074 0.012 -0.094 0.035 c -0.016 0.016 -0.063 0.035 -0.102 0.043 c -0.039 0.004 -0.09 0.02 -0.109 0.035 c -0.023 0.012 -0.082 0.039 -0.137 0.059 c -0.152 0.051 -0.465 0.199 -0.734 0.352 c -0.414 0.227 -0.637 0.43 -0.902 0.813 c -0.129 0.184 -0.355 0.574 -0.355 0.609 c 0 0.031 0.129 0.012 0.359 -0.051 c 0.098 -0.027 0.199 -0.051 0.227 -0.051 c 0.023 0 0.066 -0.016 0.09 -0.035 c 0.027 -0.02 0.063 -0.035 0.086 -0.035 c 0.02 0 0.063 -0.012 0.094 -0.027 c 0.035 -0.016 0.086 -0.023 0.117 -0.02 l 0.059 0.004 l -0.223 0.215 c -0.574 0.551 -0.961 1.027 -1.16 1.438 c -0.117 0.234 -0.172 0.453 -0.195 0.758 c -0.008 0.133 -0.02 0.297 -0.027 0.363 c -0.012 0.141 0.016 0.516 0.066 0.938 c 0.047 0.363 0.059 0.418 0.145 0.617 c 0.168 0.398 0.441 0.809 0.797 1.195 c 0.109 0.121 0.168 0.195 0.16 0.211 c -0.016 0.043 -0.199 0.113 -0.309 0.121 c -0.07 0.008 -0.121 0 -0.18 -0.023 m 3.422 -0.543 c -0.008 -0.008 -0.086 -0.02 -0.172 -0.031 c -0.258 -0.027 -0.656 -0.164 -0.867 -0.297 c -0.457 -0.289 -0.773 -0.688 -0.941 -1.184 c -0.109 -0.32 -0.145 -0.621 -0.129 -1.117 c 0.016 -0.484 0.059 -0.688 0.191 -0.91 c 0.09 -0.141 0.363 -0.414 0.547 -0.535 c 0.383 -0.258 1 -0.48 1.758 -0.629 c 0.344 -0.07 0.434 -0.07 0.656 -0.004 c 0.148 0.043 0.441 0.191 0.621 0.316 c 0.215 0.148 0.566 0.5 0.699 0.695 c 0.398 0.59 0.512 1.16 0.344 1.773 c -0.129 0.465 -0.465 0.906 -1.012 1.313 c -0.422 0.32 -0.977 0.547 -1.418 0.582 c -0.109 0.008 -0.215 0.02 -0.234 0.023 c -0.02 0.008 -0.039 0.008 -0.043 0.004 m 0.285 -0.715 c 0.305 -0.066 0.723 -0.246 1.023 -0.441 c 0.34 -0.223 0.766 -0.613 0.879 -0.809 c 0.223 -0.379 0.137 -1.07 -0.188 -1.516 c -0.148 -0.211 -0.48 -0.461 -0.789 -0.602 c -0.328 -0.152 -0.465 -0.172 -0.754 -0.113 c -0.902 0.188 -1.563 0.492 -1.859 0.859 c -0.172 0.207 -0.238 0.422 -0.27 0.855 c -0.051 0.719 0.25 1.289 0.828 1.574 c 0.402 0.199 0.789 0.266 1.129 0.191 m -0.504 -1.039 c -0.098 -0.027 -0.25 -0.18 -0.332 -0.336 c -0.063 -0.113 -0.066 -0.129 -0.066 -0.277 c 0 -0.105 0.012 -0.18 0.027 -0.223 c 0.039 -0.086 0.137 -0.184 0.254 -0.25 c 0.09 -0.047 0.113 -0.055 0.289 -0.059 c 0.184 -0.008 0.191 -0.008 0.301 0.043 c 0.363 0.176 0.449 0.523 0.207 0.828 c -0.16 0.199 -0.48 0.328 -0.68 0.273 m 5.688 -0.355 c -0.363 -0.039 -0.754 -0.238 -0.949 -0.492 c -0.164 -0.215 -0.395 -0.742 -0.48 -1.102 c -0.113 -0.484 -0.086 -0.898 0.086 -1.242 c 0.172 -0.332 0.504 -0.625 0.938 -0.82 c 0.355 -0.16 0.652 -0.203 0.906 -0.133 c 0.121 0.031 0.207 0.031 0.266 0.063 c 0.816 0.406 0.852 0.375 0.938 0.707 c -0.012 0.102 -0.027 0.176 -0.039 0.172 c -0.008 0 -0.063 -0.051 -0.121 -0.113 c -0.137 -0.145 -0.281 -0.242 -0.508 -0.344 c -0.238 -0.113 -0.328 -0.133 -0.594 -0.133 c -0.254 0 -0.367 0.027 -0.609 0.152 c -0.109 0.055 -0.18 0.109 -0.301 0.227 c -0.137 0.133 -0.172 0.18 -0.242 0.32 c -0.117 0.23 -0.145 0.355 -0.145 0.629 c 0 0.254 0.035 0.418 0.141 0.637 c 0.277 0.59 0.816 0.906 1.418 0.836 c 0.184 -0.023 0.465 -0.109 0.629 -0.188 c 0.113 -0.059 0.258 -0.191 0.328 -0.313 c 0.063 -0.105 0.129 -0.309 0.156 -0.473 c 0.012 -0.07 0.027 -0.133 0.035 -0.133 c 0.027 0 0.02 0.531 -0.008 0.691 c -0.039 0.234 -0.125 0.441 -0.27 0.648 c -0.113 0.168 -0.371 0.297 -0.715 0.367 c -0.207 0.039 -0.625 0.055 -0.859 0.035 m 0.465 -1.48 c -0.148 -0.035 -0.273 -0.156 -0.316 -0.305 c -0.027 -0.082 -0.027 -0.113 -0.008 -0.203 c 0.051 -0.266 0.199 -0.395 0.449 -0.395 c 0.16 -0.004 0.285 0.039 0.387 0.129 c 0.188 0.16 0.219 0.395 0.082 0.578 c -0.074 0.098 -0.176 0.156 -0.316 0.184 c -0.129 0.027 -0.195 0.031 -0.277 0.012"/></g><clipPath id="2"><path d="M 0,0 H24 V24 H0 z"/></clipPath><filter id="0" filterUnits="objectBoundingBox" x="0" y="0" width="24" height="24"><feColorMatrix type="matrix" in="SourceGraphic" values="0 0 0 0 1 0 0 0 0 1 0 0 0 0 1 0 0 0 1 0"/></filter><mask id="1"><g filter="url(#0)"><path fill-opacity="0.102" d="M 0,0 H24 V24 H0 z"/></g></mask></defs><path d="m 0.777 15.297 c -4.48 -12.508 11.621 -18.59 17.672 -13.496 c 6.05 5.09 8.117 13.816 1.266 18.207 c -6.852 4.391 -14.457 7.797 -18.938 -4.711" fill="#8eb252"/><use xlink:href="#3" mask="url(#1)"/><path d="m 9.848 17.01 l -0.16 -0.059 c -0.484 -0.18 -0.996 -0.48 -1.492 -0.887 l -0.223 -0.184 l -0.121 0.063 c -0.098 0.055 -0.137 0.063 -0.25 0.07 c -0.125 0.008 -0.141 0.004 -0.254 -0.051 c -0.328 -0.172 -0.582 -0.453 -0.797 -0.883 c -0.117 -0.238 -0.164 -0.387 -0.188 -0.594 c -0.023 -0.238 -0.016 -0.262 0.141 -0.418 c 0.07 -0.07 0.141 -0.145 0.148 -0.16 c 0.02 -0.039 -0.004 -0.129 -0.07 -0.242 c -0.027 -0.047 -0.074 -0.148 -0.105 -0.223 c -0.027 -0.074 -0.082 -0.203 -0.117 -0.281 c -0.035 -0.082 -0.066 -0.16 -0.066 -0.176 c 0 -0.012 -0.008 -0.047 -0.023 -0.07 c -0.012 -0.027 -0.035 -0.094 -0.047 -0.148 c -0.012 -0.051 -0.043 -0.16 -0.074 -0.234 c -0.027 -0.078 -0.059 -0.191 -0.066 -0.25 c -0.008 -0.063 -0.023 -0.164 -0.035 -0.227 c -0.051 -0.324 -0.066 -0.57 -0.07 -0.922 c 0 -0.406 0.023 -0.629 0.09 -0.82 c 0.07 -0.207 0.324 -0.602 0.633 -0.984 l 0.152 -0.191 l -0.004 -0.215 c 0 -0.188 -0.031 -0.586 -0.07 -0.844 l -0.012 -0.082 l 0.113 -0.078 c 0.152 -0.102 0.273 -0.164 0.465 -0.219 c 0.215 -0.066 0.34 -0.086 0.523 -0.086 h 0.156 l 0.098 -0.125 c 0.055 -0.066 0.129 -0.152 0.164 -0.188 c 0.031 -0.035 0.055 -0.07 0.051 -0.078 c 0.832 -0.621 1.137 -0.879 2.129 -1.484 c 0.117 -0.074 1.027 -0.809 1.145 -0.93 c 0.039 -0.039 0.082 -0.07 0.098 -0.07 c 0.043 0 0.004 0.137 -0.078 0.27 c -0.043 0.07 -0.082 0.145 -0.09 0.164 c -0.016 0.051 -0.27 0.496 -0.301 0.531 c -0.012 0.016 -0.023 0.043 -0.023 0.063 c 0 0.055 -0.258 0.418 -0.176 0.402 c 0.5 0.035 0.77 -0.023 1.293 -0.109 l 0.648 -0.203 c 0.121 -0.039 0.262 -0.094 0.313 -0.121 c 0.055 -0.027 0.109 -0.051 0.125 -0.051 c 0.027 0 0.328 -0.125 0.41 -0.172 c 0.047 -0.023 0.086 -0.02 0.086 0.012 c 0 0.039 -0.059 0.117 -0.191 0.254 c -0.059 0.063 -0.109 0.121 -0.109 0.133 c 0 0.008 -0.148 0.273 -0.121 0.289 c 0.059 0.035 0.438 -0.141 0.844 -0.129 c 0.113 0.004 0.246 -0.035 0.301 -0.031 c -0.008 0.098 -0.031 0.078 -0.586 0.488 c -0.074 0.055 -0.012 -0.129 1.203 0.527 c 0.094 0.094 0.016 0.266 -0.25 0.145 c -0.18 -0.066 -0.781 -0.211 -0.887 -0.215 c -0.059 0 -0.125 -0.012 -0.145 -0.02 c -0.02 -0.012 -0.066 -0.016 -0.102 -0.012 c -0.047 0.008 -0.078 0 -0.129 -0.031 c -0.059 -0.035 -0.086 -0.039 -0.262 -0.039 c -0.109 0 -0.219 0.008 -0.254 0.02 c -0.043 0.016 -0.25 0.023 -0.785 0.023 h -0.727 l -0.148 0.043 c -0.082 0.023 -0.168 0.039 -0.188 0.035 c -0.086 -0.023 -0.18 0.066 -0.207 0.195 c -0.004 0.035 -0.047 0.105 -0.09 0.16 c -0.066 0.082 -0.09 0.098 -0.133 0.098 c -0.027 0 -0.078 0.012 -0.109 0.023 c -0.031 0.016 -0.172 0.063 -0.313 0.105 c -0.141 0.047 -0.273 0.094 -0.293 0.105 c -0.02 0.012 -0.066 0.031 -0.105 0.043 c -0.082 0.027 -0.707 0.27 -0.879 0.344 l -0.125 0.051 h 0.234 c 0.402 0 0.855 0.098 0.828 0.176 c -0.004 0.012 -0.059 0.031 -0.121 0.051 c -0.063 0.016 -0.168 0.043 -0.238 0.063 c -0.07 0.016 -0.137 0.043 -0.152 0.055 c -0.016 0.008 -0.063 0.027 -0.105 0.035 c -0.047 0.008 -0.102 0.023 -0.121 0.039 c -0.023 0.016 -0.074 0.035 -0.113 0.047 c -0.039 0.012 -0.125 0.047 -0.191 0.078 c -0.07 0.031 -0.156 0.07 -0.195 0.086 c -0.109 0.043 -0.555 0.297 -0.684 0.391 c -0.27 0.195 -0.59 0.59 -0.824 1.02 l -0.094 0.172 l 0.078 -0.012 c 0.043 -0.004 0.16 -0.035 0.262 -0.063 c 0.102 -0.027 0.203 -0.051 0.223 -0.051 c 0.02 0 0.059 -0.016 0.086 -0.035 c 0.031 -0.02 0.074 -0.035 0.102 -0.035 c 0.023 0 0.066 -0.012 0.094 -0.027 c 0.059 -0.027 0.16 -0.031 0.176 -0.008 c 0.016 0.023 -0.137 0.184 -0.324 0.344 c -0.16 0.141 -0.461 0.469 -0.461 0.508 c 0 0.016 -0.02 0.035 -0.043 0.047 c -0.047 0.02 -0.059 0.063 -0.027 0.094 c 0.016 0.012 0.008 0.027 -0.027 0.047 c -0.035 0.027 -0.043 0.043 -0.043 0.121 c 0 0.152 -0.016 0.199 -0.066 0.199 c -0.059 0 -0.07 0.047 -0.023 0.098 c 0.039 0.035 0.039 0.051 0.031 0.148 c -0.008 0.059 -0.027 0.184 -0.047 0.277 c -0.066 0.332 -0.063 0.586 0.016 0.949 c 0.02 0.086 0.047 0.23 0.063 0.32 c 0.07 0.406 0.082 0.441 0.195 0.715 c 0.242 0.57 0.285 0.645 0.578 1.012 c 0.211 0.262 0.297 0.352 0.492 0.496 c 0.082 0.059 0.211 0.164 0.285 0.23 c 0.191 0.168 0.277 0.219 0.707 0.418 c 0.391 0.184 0.355 0.172 1.066 0.34 c 0.266 0.063 0.293 0.066 0.75 0.082 c 0.594 0.02 0.719 0.02 0.836 -0.004 c 0.051 -0.012 0.176 -0.02 0.277 -0.02 c 0.16 0 0.207 -0.008 0.348 -0.051 c 0.102 -0.035 0.227 -0.059 0.336 -0.07 c 0.227 -0.023 0.465 -0.078 0.82 -0.199 c 0.301 -0.098 0.344 -0.105 0.398 -0.066 c 0.051 0.039 0.09 0.031 0.246 -0.035 c 0.457 -0.195 1.258 -0.789 1.484 -1.105 c 0.047 -0.066 0.121 -0.16 0.172 -0.211 c 0.223 -0.246 0.445 -0.645 0.609 -1.102 c 0.055 -0.152 0.105 -0.258 0.125 -0.273 c 0.02 -0.012 0.035 -0.039 0.035 -0.055 c 0 -0.031 -0.012 -0.031 -0.156 -0.02 c -0.703 0.059 -1.223 -0.074 -1.566 -0.402 c -0.133 -0.129 -0.203 -0.242 -0.34 -0.539 c -0.406 -0.879 -0.422 -1.57 -0.055 -2.105 c 0.211 -0.301 0.621 -0.594 1.031 -0.73 c 0.078 -0.023 0.164 -0.059 0.195 -0.074 c 0.078 -0.039 0.43 -0.039 0.543 0.004 c 0.102 0.035 0.371 0.094 0.516 0.129 c 0.727 0.504 0.629 0.504 0.684 0.801 c -0.012 0.113 -0.035 0.137 -0.074 0.078 c -0.145 -0.215 -0.523 -0.477 -0.832 -0.566 c -0.191 -0.059 -0.516 -0.059 -0.703 -0.004 c -0.965 0.297 -1.262 1.418 -0.59 2.238 c 0.297 0.363 0.734 0.547 1.18 0.484 c 0.355 -0.047 0.691 -0.18 0.828 -0.328 c 0.176 -0.191 0.246 -0.391 0.301 -0.848 c 0.016 -0.133 0.043 -0.07 0.063 0.152 c 0.023 0.238 0 0.57 -0.055 0.777 c -0.035 0.141 -0.184 0.445 -0.25 0.527 c -0.027 0.031 -0.043 0.078 -0.043 0.121 c -0.008 0.105 -0.027 0.188 -0.055 0.227 c -0.012 0.02 -0.023 0.063 -0.023 0.098 c 0 0.137 -0.207 0.672 -0.402 1.031 c -0.109 0.207 -0.285 0.492 -0.449 0.73 l -0.141 0.207 c -0.844 0.801 -0.766 0.766 -1.563 1.215 c -0.012 -0.02 -0.336 0.094 -0.723 0.258 c -0.762 0.285 -0.684 0.25 -1.234 0.348 c -0.012 -0.008 -0.082 -0.008 -0.156 0 c -0.426 0.043 -0.789 0.086 -0.805 0.098 c -1.09 0.043 -1.293 0.074 -2.453 -0.262 m 0.926 -1.578 c -0.016 -0.008 -0.059 -0.016 -0.098 -0.016 c -0.094 0 -0.391 -0.074 -0.527 -0.133 c -0.059 -0.023 -0.145 -0.063 -0.195 -0.082 c -0.145 -0.063 -0.395 -0.246 -0.563 -0.414 c -0.188 -0.188 -0.32 -0.363 -0.426 -0.582 c -0.184 -0.387 -0.254 -0.727 -0.254 -1.27 c 0 -0.629 0.074 -0.914 0.313 -1.207 c 0.387 -0.477 1.016 -0.77 2.191 -1.023 c 0.395 -0.086 0.586 -0.066 0.941 0.105 c 0.625 0.305 1.168 0.902 1.375 1.504 c 0.18 0.531 0.141 1.094 -0.117 1.574 c -0.148 0.281 -0.5 0.672 -0.816 0.91 c -0.344 0.258 -0.777 0.473 -1.145 0.563 c -0.246 0.063 -0.633 0.102 -0.68 0.07 m 0.273 -0.723 c 0.145 -0.023 0.465 -0.129 0.637 -0.207 c 0.43 -0.191 0.84 -0.488 1.156 -0.836 c 0.242 -0.266 0.309 -0.438 0.293 -0.801 c -0.023 -0.504 -0.219 -0.91 -0.586 -1.199 c -0.344 -0.27 -0.754 -0.453 -1.012 -0.453 c -0.184 0.004 -0.816 0.164 -1.164 0.301 c -0.578 0.227 -0.906 0.477 -1.063 0.816 c -0.086 0.176 -0.152 0.699 -0.121 0.938 c 0.059 0.461 0.18 0.727 0.453 0.977 c 0.145 0.141 0.25 0.211 0.418 0.285 c 0.359 0.164 0.715 0.227 0.988 0.18 m -0.387 -1.016 c -0.145 -0.031 -0.277 -0.156 -0.387 -0.359 c -0.059 -0.117 -0.063 -0.137 -0.063 -0.281 c 0 -0.125 0.008 -0.172 0.035 -0.23 c 0.043 -0.09 0.172 -0.207 0.293 -0.266 c 0.074 -0.039 0.105 -0.043 0.289 -0.043 c 0.191 0 0.207 0.004 0.297 0.051 c 0.133 0.074 0.242 0.184 0.297 0.297 c 0.039 0.082 0.043 0.113 0.035 0.207 c -0.016 0.191 -0.133 0.375 -0.32 0.496 c -0.156 0.098 -0.359 0.156 -0.477 0.129 m 2.988 1.477 c -0.055 -0.027 -0.125 -0.156 -0.125 -0.234 c 0 -0.031 0.012 -0.078 0.027 -0.105 c 0.031 -0.055 0.035 -0.059 0.406 -0.086 c 0.816 -0.066 1.266 -0.246 1.676 -0.676 c 0.141 -0.148 0.145 -0.152 0.227 -0.152 c 0.145 0 0.191 0.039 0.215 0.195 c 0.016 0.105 -0.016 0.152 -0.215 0.332 c -0.438 0.391 -0.73 0.543 -1.164 0.609 c -0.066 0.008 -0.164 0.023 -0.219 0.031 c -0.121 0.02 -0.34 0.051 -0.57 0.074 c -0.098 0.012 -0.184 0.023 -0.195 0.027 c -0.012 0.004 -0.039 -0.004 -0.063 -0.016 m 3.145 -3.32 c -0.219 -0.039 -0.359 -0.207 -0.359 -0.43 c 0 -0.207 0.094 -0.379 0.25 -0.453 c 0.078 -0.039 0.117 -0.047 0.234 -0.047 c 0.121 0 0.16 0.008 0.246 0.051 c 0.238 0.113 0.352 0.324 0.285 0.547 c -0.07 0.23 -0.375 0.387 -0.656 0.332" fill="#1a1c26"/><path d="m 7.438 15.984 c -0.211 -0.082 -0.496 -0.328 -0.66 -0.566 c -0.113 -0.168 -0.246 -0.43 -0.293 -0.57 c -0.02 -0.063 -0.043 -0.137 -0.051 -0.168 c -0.012 -0.027 -0.02 -0.141 -0.023 -0.246 l -0.004 -0.199 l 0.125 -0.121 c 0.066 -0.066 0.141 -0.129 0.16 -0.137 c 0.023 -0.004 0.043 -0.023 0.043 -0.039 c 0 -0.012 -0.043 -0.109 -0.098 -0.215 c -0.051 -0.105 -0.102 -0.211 -0.105 -0.234 c -0.008 -0.023 -0.035 -0.09 -0.063 -0.148 c -0.047 -0.09 -0.07 -0.152 -0.156 -0.387 c -0.016 -0.035 -0.035 -0.105 -0.051 -0.164 c -0.012 -0.055 -0.051 -0.176 -0.086 -0.266 c -0.043 -0.125 -0.059 -0.207 -0.07 -0.336 c -0.004 -0.094 -0.02 -0.199 -0.035 -0.23 c -0.043 -0.109 -0.066 -0.52 -0.055 -0.934 c 0.012 -0.465 0.039 -0.621 0.16 -0.855 c 0.094 -0.188 0.34 -0.547 0.547 -0.805 c 0.082 -0.102 0.16 -0.215 0.172 -0.246 c 0.012 -0.039 0.016 -0.117 0.008 -0.219 c -0.008 -0.137 -0.02 -0.258 -0.074 -0.766 l -0.012 -0.113 l 0.113 -0.07 c 0.27 -0.176 0.578 -0.277 0.855 -0.281 c 0.254 -0.008 0.258 -0.008 0.344 -0.117 c 0.039 -0.055 0.117 -0.148 0.168 -0.207 c 0.051 -0.059 0.094 -0.117 0.094 -0.133 c 0 -0.035 0.172 -0.16 0.383 -0.281 c 0.266 -0.145 1.152 -0.746 1.508 -1.02 c 0.055 -0.043 0.137 -0.098 0.18 -0.125 c 0.137 -0.082 1.035 -0.809 1.164 -0.941 c 0.039 -0.039 0.078 -0.07 0.082 -0.07 c 0.031 0 0.016 0.082 -0.023 0.156 c -0.023 0.043 -0.102 0.188 -0.172 0.316 c -0.133 0.254 -0.23 0.422 -0.285 0.492 c -0.02 0.02 -0.031 0.051 -0.031 0.066 c 0 0.012 -0.043 0.082 -0.098 0.156 c -0.051 0.07 -0.105 0.156 -0.121 0.188 c -0.027 0.051 -0.027 0.055 0 0.066 c 0.059 0.023 0.695 0.016 0.824 -0.008 c 0.168 -0.031 0.418 -0.098 0.652 -0.168 c 0.109 -0.031 0.227 -0.063 0.266 -0.07 c 0.121 -0.02 0.582 -0.176 0.652 -0.223 c 0.02 -0.016 0.047 -0.023 0.063 -0.023 c 0.02 0 0.129 -0.047 0.246 -0.098 c 0.117 -0.055 0.219 -0.094 0.223 -0.086 c 0.023 0.02 -0.031 0.098 -0.156 0.223 c -0.066 0.066 -0.137 0.156 -0.156 0.199 c -0.02 0.043 -0.074 0.125 -0.125 0.184 c -0.047 0.063 -0.086 0.117 -0.082 0.121 c 0.008 0.004 0.086 -0.008 0.184 -0.027 c 0.461 -0.094 0.941 -0.164 0.965 -0.141 c 0.023 0.023 -0.031 0.066 -0.277 0.215 c -0.125 0.078 -0.246 0.156 -0.273 0.176 l -0.043 0.039 l 0.051 0.02 c 0.297 0.109 0.656 0.289 0.891 0.441 c 0.203 0.133 0.23 0.152 0.23 0.176 c 0 0.039 -0.043 0.039 -0.172 -0.004 c -0.16 -0.051 -0.738 -0.188 -0.914 -0.219 c -0.066 -0.012 -0.172 -0.031 -0.23 -0.043 c -0.152 -0.039 -0.445 -0.051 -0.527 -0.023 c -0.051 0.016 -0.289 0.027 -0.848 0.035 c -0.762 0.012 -0.977 0.027 -1.094 0.074 c -0.07 0.031 -0.164 0.152 -0.164 0.215 c 0 0.063 -0.121 0.223 -0.18 0.238 c -0.023 0.004 -0.102 0.027 -0.176 0.055 c -0.07 0.023 -0.156 0.047 -0.184 0.055 c -0.09 0.023 -0.367 0.121 -0.387 0.137 c -0.012 0.008 -0.051 0.023 -0.09 0.035 c -0.074 0.023 -0.699 0.266 -0.934 0.363 c -0.074 0.031 -0.137 0.066 -0.137 0.074 c 0.004 0.012 0.109 0.02 0.273 0.02 c 0.27 0.004 0.52 0.035 0.695 0.086 c 0.094 0.027 0.133 0.055 0.09 0.066 c -0.012 0.004 -0.086 0.027 -0.164 0.051 c -0.078 0.027 -0.172 0.047 -0.203 0.047 c -0.043 0 -0.078 0.012 -0.094 0.031 c -0.02 0.02 -0.063 0.039 -0.102 0.043 c -0.039 0.008 -0.09 0.023 -0.109 0.035 c -0.023 0.016 -0.086 0.043 -0.137 0.059 c -0.156 0.051 -0.465 0.199 -0.738 0.352 c -0.41 0.23 -0.633 0.43 -0.898 0.813 c -0.129 0.188 -0.355 0.574 -0.355 0.609 c 0 0.035 0.129 0.016 0.355 -0.051 c 0.102 -0.027 0.203 -0.051 0.23 -0.051 c 0.023 0 0.063 -0.016 0.09 -0.035 c 0.023 -0.016 0.063 -0.031 0.082 -0.031 c 0.023 0 0.066 -0.012 0.098 -0.027 c 0.031 -0.016 0.086 -0.027 0.117 -0.023 l 0.059 0.008 l -0.227 0.215 c -0.574 0.547 -0.957 1.023 -1.16 1.438 c -0.113 0.234 -0.168 0.453 -0.191 0.754 c -0.008 0.137 -0.023 0.301 -0.027 0.367 c -0.012 0.137 0.012 0.512 0.066 0.934 c 0.043 0.363 0.055 0.422 0.141 0.621 c 0.168 0.398 0.441 0.805 0.801 1.195 c 0.109 0.117 0.164 0.195 0.16 0.211 c -0.02 0.039 -0.199 0.113 -0.309 0.121 c -0.07 0.004 -0.125 -0.004 -0.18 -0.027 m 3.418 -0.543 c -0.004 -0.004 -0.082 -0.02 -0.172 -0.027 c -0.258 -0.027 -0.652 -0.168 -0.863 -0.301 c -0.457 -0.289 -0.773 -0.684 -0.941 -1.184 c -0.109 -0.32 -0.145 -0.617 -0.129 -1.113 c 0.012 -0.484 0.055 -0.691 0.191 -0.91 c 0.086 -0.145 0.363 -0.418 0.543 -0.539 c 0.387 -0.258 1 -0.477 1.762 -0.629 c 0.344 -0.066 0.434 -0.066 0.652 -0.004 c 0.152 0.047 0.445 0.195 0.625 0.32 c 0.211 0.148 0.563 0.496 0.695 0.691 c 0.402 0.59 0.516 1.164 0.348 1.773 c -0.129 0.469 -0.465 0.906 -1.012 1.316 c -0.426 0.316 -0.977 0.543 -1.422 0.578 c -0.105 0.008 -0.211 0.02 -0.23 0.027 c -0.02 0.004 -0.039 0.004 -0.047 0 m 0.285 -0.715 c 0.305 -0.066 0.727 -0.246 1.027 -0.441 c 0.34 -0.223 0.762 -0.609 0.875 -0.805 c 0.227 -0.383 0.141 -1.074 -0.184 -1.52 c -0.152 -0.207 -0.48 -0.461 -0.789 -0.602 c -0.332 -0.152 -0.469 -0.172 -0.754 -0.113 c -0.902 0.188 -1.563 0.492 -1.859 0.859 c -0.172 0.211 -0.238 0.422 -0.27 0.859 c -0.055 0.715 0.246 1.289 0.824 1.57 c 0.406 0.199 0.793 0.266 1.129 0.191 m -0.5 -1.039 c -0.098 -0.023 -0.25 -0.176 -0.332 -0.332 c -0.063 -0.117 -0.066 -0.133 -0.066 -0.281 c 0 -0.102 0.008 -0.18 0.027 -0.223 c 0.035 -0.082 0.137 -0.18 0.254 -0.246 c 0.086 -0.051 0.113 -0.055 0.285 -0.063 c 0.188 -0.008 0.195 -0.008 0.305 0.047 c 0.363 0.176 0.449 0.523 0.203 0.824 c -0.16 0.199 -0.48 0.328 -0.676 0.273 m 5.684 -0.355 c -0.363 -0.035 -0.75 -0.238 -0.945 -0.488 c -0.164 -0.215 -0.395 -0.742 -0.48 -1.105 c -0.117 -0.484 -0.086 -0.898 0.086 -1.238 c 0.168 -0.336 0.504 -0.629 0.934 -0.824 c 0.355 -0.16 0.652 -0.203 0.906 -0.133 c 0.125 0.035 0.211 0.031 0.27 0.063 c 0.813 0.41 0.852 0.375 0.938 0.711 c -0.012 0.098 -0.031 0.172 -0.039 0.172 c -0.012 -0.004 -0.066 -0.055 -0.121 -0.113 c -0.141 -0.145 -0.285 -0.246 -0.508 -0.348 c -0.242 -0.109 -0.332 -0.129 -0.598 -0.129 c -0.25 0 -0.363 0.027 -0.609 0.148 c -0.105 0.055 -0.18 0.109 -0.301 0.227 c -0.133 0.133 -0.172 0.184 -0.238 0.32 c -0.117 0.234 -0.145 0.359 -0.145 0.629 c -0.004 0.254 0.035 0.418 0.137 0.641 c 0.281 0.586 0.816 0.902 1.418 0.832 c 0.184 -0.023 0.469 -0.105 0.633 -0.188 c 0.113 -0.055 0.254 -0.191 0.328 -0.313 c 0.063 -0.105 0.129 -0.305 0.152 -0.469 c 0.016 -0.074 0.031 -0.133 0.039 -0.133 c 0.023 0 0.016 0.527 -0.008 0.688 c -0.043 0.234 -0.125 0.441 -0.27 0.648 c -0.117 0.168 -0.371 0.301 -0.715 0.367 c -0.211 0.043 -0.625 0.059 -0.863 0.035 m 0.469 -1.48 c -0.148 -0.035 -0.273 -0.152 -0.32 -0.305 c -0.023 -0.082 -0.023 -0.113 -0.008 -0.203 c 0.055 -0.262 0.203 -0.395 0.449 -0.395 c 0.16 0 0.285 0.043 0.391 0.129 c 0.184 0.16 0.215 0.395 0.078 0.582 c -0.07 0.094 -0.172 0.152 -0.313 0.184 c -0.129 0.027 -0.195 0.027 -0.277 0.008" fill="#110f0a"/></svg>