<svg xmlns="http://www.w3.org/2000/svg" viewBox="0 0 24 24"><defs><clipPath><path d="M 0,0 H24 V24 H0 z"/></clipPath><filter id="0" filterUnits="objectBoundingBox" x="0" y="0" width="24" height="24"><feColorMatrix type="matrix" in="SourceGraphic" values="0 0 0 0 1 0 0 0 0 1 0 0 0 0 1 0 0 0 1 0"/></filter><mask><g filter="url(#0)"><path fill-opacity="0.302" d="M 0,0 H24 V24 H0 z"/></g></mask></defs><path d="m 19.05 21.66 c -18.05 11.996 -29.16 -26.26 -5.832 -21.2 c 9.637 2.16 15.488 15.691 5.832 21.2" fill="#09c"/><g fill-rule="evenodd"><path d="m 11.06 5.672 c -3.09 0 -5.594 2.563 -5.594 5.73 c 0 3.168 2.504 5.738 5.594 5.738 c 0.344 0 0.684 -0.035 1.012 -0.098 c -0.074 -0.301 -0.117 -0.617 -0.117 -0.945 c 0 -2 1.484 -3.633 3.324 -3.633 c 0.43 0 0.844 0.094 1.223 0.254 c 0.094 -0.422 0.141 -0.863 0.141 -1.316 c 0 -3.164 -2.496 -5.73 -5.582 -5.73 m -1.824 0.852 c 0.723 0 1.246 0.195 1.766 0.652 l 0.418 -0.594 h 0.5 v 2.75 h -0.5 c -0.234 -0.75 -0.387 -1.082 -0.703 -1.441 c -0.406 -0.441 -0.852 -0.656 -1.398 -0.656 c -0.797 0 -1.344 0.477 -1.344 1.133 c 0 0.359 0.188 0.707 0.504 0.871 c 0.258 0.164 0.262 0.16 1.055 0.355 l 0.719 0.18 c 0.879 0.211 1.164 0.348 1.512 0.691 c 0.402 0.375 0.605 0.934 0.605 1.652 c 0 1.52 -0.934 2.512 -2.348 2.512 c -0.723 0 -1.383 -0.254 -1.977 -0.793 l -0.512 0.668 h -0.5 v -3.094 h 0.574 c 0.348 1.637 1.215 2.52 2.43 2.52 c 0.852 0 1.438 -0.539 1.438 -1.309 c 0 -0.656 -0.402 -0.984 -1.543 -1.293 l -0.766 -0.195 c -0.867 -0.23 -1.195 -0.395 -1.527 -0.738 c -0.316 -0.324 -0.504 -0.871 -0.504 -1.508 c 0 -1.426 0.832 -2.367 2.102 -2.367" fill-opacity="0.302"/><path d="m 10.984 5.672 c -3.051 0 -5.52 2.457 -5.52 5.484 c 0 3.03 2.469 5.484 5.52 5.484 c 0.344 0 0.684 -0.031 1.01 -0.09 c -0.074 -0.289 -0.113 -0.586 -0.113 -0.898 c 0 -1.918 1.461 -3.477 3.277 -3.477 c 0.426 0 0.832 0.082 1.207 0.238 c 0.094 -0.402 0.152 -0.824 0.152 -1.258 c 0 -3.03 -2.48 -5.48 -5.531 -5.48 m -1.766 0.77 c 0.75 0 1.293 0.195 1.828 0.664 l 0.434 -0.594 h 0.527 v 2.805 h -0.527 c -0.238 -0.77 -0.406 -1.105 -0.734 -1.473 c -0.422 -0.453 -0.879 -0.672 -1.449 -0.672 c -0.82 0 -1.387 0.484 -1.387 1.152 c 0 0.367 0.188 0.719 0.52 0.887 c 0.266 0.168 0.27 0.172 1.094 0.371 l 0.742 0.18 c 0.914 0.215 1.215 0.348 1.574 0.699 c 0.418 0.383 0.629 0.953 0.629 1.688 c 0 1.555 -0.977 2.574 -2.441 2.574 c -0.75 0 -1.434 -0.266 -2.047 -0.816 l -0.527 0.684 h -0.52 v -3.156 h 0.598 c 0.359 1.672 1.254 2.566 2.512 2.566 c 0.883 0 1.5 -0.547 1.5 -1.328 c 0 -0.668 -0.422 -1.01 -1.605 -1.324 l -0.789 -0.203 c -0.898 -0.234 -1.246 -0.395 -1.594 -0.742 c -0.328 -0.336 -0.516 -0.891 -0.516 -1.543 c 0 -1.449 0.863 -2.418 2.18 -2.418" fill="#f2f2f2"/></g></svg>