<svg xmlns="http://www.w3.org/2000/svg" viewBox="0 0 24 24"><path d="m 4.105 4.01 c 9.828 -11.918 27.574 5.531 16.238 16.08 c -9.754 10.57 -28.691 -5.926 -16.238 -16.08" fill="#6c3"/><path d="m 18.223 4.891 c -1.387 0 -2.09 0.492 -2.645 1.176 c -0.551 0.684 -0.883 1.594 -1.266 2.375 c -0.254 0.527 -0.824 2.477 -1.348 4.32 c -0.262 0.922 -0.523 1.836 -0.77 2.598 c -0.246 0.766 -0.43 1.332 -0.715 1.77 c -0.465 0.723 -1.219 1.129 -1.973 1.129 c -0.266 0 -0.531 -0.051 -0.785 -0.148 c 0.898 1.281 2.969 3.363 5.383 -0.102 c 1.68 -2.402 2.238 -7.578 3.422 -9.527 c 1.504 -2.477 2.262 -1.891 2.438 -1.684 c 0.035 -0.203 0.055 -0.414 0.047 -0.617 c -0.02 -0.375 -0.109 -0.656 -0.324 -0.871 c -0.219 -0.211 -0.621 -0.418 -1.465 -0.418 m -11.301 2.188 c 0.355 0.414 0.645 0.941 0.816 1.563 c 0.387 1.391 0.461 3.121 0.547 4.641 c 0.043 0.762 0.086 1.469 0.16 2.023 c 0.07 0.555 0.207 0.965 0.246 1.027 c 0.23 0.355 0.523 0.492 0.816 0.492 c 0.289 0 0.586 -0.137 0.816 -0.492 c 0.059 -0.09 0.277 -0.609 0.496 -1.266 c -0.367 -0.156 -0.902 -1.043 -1.313 -4.434 c -0.238 -1.957 -1.629 -3.035 -2.586 -3.555 m -2.199 0.348 c -0.18 0 -0.324 0.051 -0.445 0.137 c -0.156 0.113 -0.297 0.293 -0.355 0.676 l -0.039 -0.008 c 0.023 1.043 0.695 1.734 0.695 1.734 c 0 0 -0.004 -0.719 0.695 -1.078 c 0.375 -0.191 0.844 0.121 1.199 0.453 c -0.023 -0.105 -0.051 -0.207 -0.078 -0.305 c -0.281 -1.02 -0.961 -1.512 -1.484 -1.594 c -0.066 -0.012 -0.129 -0.016 -0.188 -0.016" fill="#fff"/></svg>