<svg xmlns="http://www.w3.org/2000/svg" xmlns:xlink="http://www.w3.org/1999/xlink" viewBox="0 0 24 24"><defs><g id="9" clip-path="url(#8)"><path d="m 11.645 15.477 c -1.918 0 -3.477 -1.535 -3.477 -3.426 c 0 -1.891 1.559 -3.426 3.477 -3.426 c 1.914 0 3.473 1.535 3.473 3.426 c 0 1.891 -1.559 3.426 -3.473 3.426" fill="url(#7)"/></g><g id="D" clip-path="url(#C)"><path d="m 14.273 12.05 c 0 1.434 -1.176 2.594 -2.629 2.594 c -1.453 0 -2.629 -1.16 -2.629 -2.594 c 0 -1.434 1.176 -2.594 2.629 -2.594 c 1.453 0 2.629 1.16 2.629 2.594"/></g><g id="H" clip-path="url(#G)"><path d="m 13.496 12.05 c 0 1.01 -0.828 1.828 -1.852 1.828 c -1.023 0 -1.852 -0.82 -1.852 -1.828 c 0 -1.01 0.828 -1.828 1.852 -1.828 c 1.023 0 1.852 0.82 1.852 1.828"/></g><g id="L" clip-path="url(#K)"><path d="m 12.582 12.05 c 0 0.512 -0.418 0.926 -0.938 0.926 c -0.52 0 -0.941 -0.414 -0.941 -0.926 c 0 -0.512 0.422 -0.926 0.941 -0.926 c 0.52 0 0.938 0.414 0.938 0.926"/></g><clipPath id="C"><path d="M 0,0 H24 V24 H0 z"/></clipPath><clipPath id="8"><path d="M 0,0 H24 V24 H0 z"/></clipPath><clipPath id="E"><path d="m 9.793 10.223 h 3.703 v 3.656 h -3.703"/></clipPath><clipPath id="I"><path d="m 10.707 11.125 h 1.875 v 1.852 h -1.875"/></clipPath><clipPath id="G"><path d="M 0,0 H24 V24 H0 z"/></clipPath><clipPath id="A"><path d="m 9.02 9.457 h 5.258 v 5.188 h -5.258"/></clipPath><clipPath id="4"><path d="m 8.168 8.625 h 6.949 v 6.852 h -6.949"/></clipPath><clipPath id="K"><path d="M 0,0 H24 V24 H0 z"/></clipPath><filter id="5" filterUnits="objectBoundingBox" x="0" y="0" width="24" height="24"><feColorMatrix type="matrix" in="SourceGraphic" values="0 0 0 0 1 0 0 0 0 1 0 0 0 0 1 0 0 0 1 0"/></filter><linearGradient id="1" gradientUnits="userSpaceOnUse" x1="202.68" y1="202.68" x2="309.32" y2="309.32" gradientTransform="matrix(0.07068 0 0 -0.06971 -6.451 29.898)"><stop stop-color="#000"/><stop offset="0.5" stop-color="#4c4c4c"/><stop offset="1" stop-color="#000"/></linearGradient><linearGradient id="3" gradientUnits="userSpaceOnUse" x1="221.26" y1="221.26" x2="290.74" y2="290.74" gradientTransform="matrix(0.07068 0 0 -0.06971 -6.451 29.898)" xlink:href="#1"/><linearGradient id="2" gradientUnits="userSpaceOnUse" x1="213.84" y1="213.84" x2="298.16" y2="298.16" gradientTransform="matrix(0.07068 0 0 -0.06971 -6.451 29.898)" xlink:href="#1"/><linearGradient id="7" gradientUnits="userSpaceOnUse" x1="280.57" y1="213.43" x2="231.43" y2="298.57" gradientTransform="matrix(0.07068 0 0 -0.06971 -6.451 29.898)"><stop stop-color="#0019d4"/><stop offset="0.534" stop-color="#ffe53e"/><stop offset="1" stop-color="#ff00f1"/></linearGradient><linearGradient id="0" gradientUnits="userSpaceOnUse" y1="175.26" x2="0" y2="336.74" gradientTransform="matrix(0.07068 0 0 -0.06971 -6.451 29.898)"><stop stop-color="#000"/><stop offset="0.988" stop-color="#4c4c4c"/><stop offset="1" stop-color="#4c4c4c"/></linearGradient><mask id="J"><g filter="url(#5)"><path fill-opacity="0.302" d="M 0,0 H24 V24 H0 z"/></g></mask><mask id="6"><g filter="url(#5)"><path fill-opacity="0.702" d="M 0,0 H24 V24 H0 z"/></g></mask><mask id="F"><g filter="url(#5)"><path fill-opacity="0.302" d="M 0,0 H24 V24 H0 z"/></g></mask><mask id="B"><g filter="url(#5)"><path fill-opacity="0.302" d="M 0,0 H24 V24 H0 z"/></g></mask></defs><path d="m 0.211 11.977 c -1.801 -15.914 24.01 -15.695 23.699 0.281 c 0.852 14.859 -25.11 16.199 -23.699 -0.281" fill="#86cefa"/><path d="m 11.645 5.254 c -3.809 0 -6.895 3.043 -6.895 6.797 c 0 2.137 1 4.047 2.566 5.289 l -0.883 1.508 h 5.211 c 3.805 0 6.891 -3.043 6.891 -6.797 c 0 -3.754 -3.086 -6.797 -6.891 -6.797" fill="#fff"/><path d="m 5.938 12.05 c 0 3.109 2.555 5.629 5.707 5.629 c 3.152 0 5.707 -2.52 5.707 -5.629 c 0 -3.109 -2.555 -5.629 -5.707 -5.629 c -3.152 0 -5.707 2.52 -5.707 5.629" fill="url(#0)"/><path d="m 6.313 12.05 c 0 2.902 2.387 5.258 5.332 5.258 c 2.941 0 5.328 -2.355 5.328 -5.258 c 0 -2.902 -2.387 -5.258 -5.328 -5.258 c -2.945 0 -5.332 2.355 -5.332 5.258" fill="url(#1)"/><path d="m 7.426 12.05 c 0 2.293 1.895 4.16 4.219 4.16 c 2.324 0 4.215 -1.867 4.215 -4.16 c 0 -2.293 -1.891 -4.16 -4.215 -4.16 c -2.324 0 -4.219 1.867 -4.219 4.16" fill="url(#2)"/><path d="m 8.168 12.05 c 0 1.891 1.559 3.426 3.477 3.426 c 1.914 0 3.473 -1.535 3.473 -3.426 c 0 -1.891 -1.559 -3.426 -3.473 -3.426 c -1.918 0 -3.477 1.535 -3.477 3.426" fill="url(#3)"/><g clip-path="url(#4)"><use xlink:href="#9" mask="url(#6)"/></g><g clip-path="url(#A)"><use xlink:href="#D" mask="url(#B)"/></g><g clip-path="url(#E)"><use xlink:href="#H" mask="url(#F)"/></g><g clip-path="url(#I)"><use xlink:href="#L" mask="url(#J)"/></g></svg>