<svg xmlns="http://www.w3.org/2000/svg" viewBox="0 0 24 24"><path d="m 19.797 3.48 c 18.922 24.973 -33.15 28.52 -16.438 3.03 c 3.809 -5.813 11.426 -9.645 16.438 -3.03" fill="#23200f"/><path d="m 5.508 12.965 v -6.605 h 13.496 v 13.211 h -13.496" fill="#ebecd8"/><path d="m 5.508 12.965 v -6.605 h 4.215 c 3.309 0 4.219 0.016 4.246 0.074 c 0.027 0.059 0.043 0.059 0.07 0 c 0.023 -0.047 0.16 -0.074 0.367 -0.074 c 0.234 0 0.316 0.02 0.285 0.07 c -0.027 0.043 -0.016 0.051 0.035 0.02 c 0.043 -0.027 0.168 -0.055 0.277 -0.066 c 0.156 -0.012 0.207 0.012 0.238 0.102 c 0.051 0.16 -0.012 0.211 -0.148 0.129 c -0.086 -0.055 -0.137 -0.051 -0.223 0.012 c -0.164 0.117 -0.008 0.266 0.273 0.266 c 0.121 0 0.387 0.055 0.59 0.121 l 0.367 0.121 l 0.309 -0.215 c 0.199 -0.141 0.445 -0.246 0.699 -0.305 c 0.266 -0.059 0.391 -0.113 0.391 -0.172 c 0 -0.047 0.023 -0.074 0.055 -0.055 c 0.031 0.02 0.039 0.086 0.023 0.152 c -0.027 0.098 -0.004 0.117 0.156 0.117 c 0.102 0 0.188 0.027 0.188 0.059 c 0 0.031 0.023 0.059 0.051 0.059 c 0.031 0 0.039 -0.066 0.023 -0.148 c -0.027 -0.145 0.02 -0.176 0.211 -0.152 c 0.043 0.008 0.074 -0.016 0.074 -0.051 c 0 -0.047 0.035 -0.047 0.117 -0.004 c 0.148 0.078 0.203 0.078 0.156 0 c -0.023 -0.035 0.059 -0.059 0.207 -0.059 h 0.246 v 1.117 c 0 0.836 -0.02 1.121 -0.078 1.145 c -0.059 0.023 -0.059 0.031 0 0.035 c 0.098 0.004 0.113 1.891 0.016 1.891 c -0.035 0 -0.059 0.035 -0.051 0.074 c 0.008 0.039 -0.016 0.133 -0.059 0.207 c -0.066 0.113 -0.109 0.129 -0.305 0.098 c -0.145 -0.023 -0.25 -0.012 -0.273 0.027 c -0.023 0.035 -0.156 0.066 -0.293 0.066 c -0.148 0 -0.336 0.051 -0.457 0.121 c -0.156 0.094 -0.289 0.117 -0.586 0.109 c -0.215 -0.008 -0.402 0 -0.422 0.02 c -0.02 0.02 -0.113 0.012 -0.211 -0.016 c -0.102 -0.027 -0.188 -0.027 -0.207 0.004 c -0.02 0.031 -0.082 0.055 -0.137 0.051 c -0.063 -0.004 -0.074 -0.016 -0.027 -0.035 c 0.125 -0.047 0.086 -0.133 -0.121 -0.254 c -0.266 -0.16 -0.504 -0.156 -0.547 0.012 c -0.047 0.168 -0.012 0.207 0.211 0.254 c 0.105 0.023 0.324 0.133 0.484 0.242 c 0.156 0.109 0.305 0.199 0.324 0.199 c 0.02 0 0.195 0.125 0.391 0.273 c 0.199 0.152 0.375 0.262 0.395 0.242 c 0.051 -0.051 -0.098 -0.293 -0.258 -0.414 c -0.078 -0.063 -0.141 -0.133 -0.141 -0.16 c 0 -0.055 0.238 -0.008 0.34 0.07 c 0.039 0.027 0.371 0.039 0.738 0.023 c 0.488 -0.02 0.754 -0.004 0.973 0.059 l 0.301 0.086 v 0.563 c 0 0.516 -0.008 0.555 -0.105 0.504 c -0.059 -0.031 -0.203 -0.199 -0.32 -0.371 c -0.219 -0.324 -0.469 -0.473 -0.391 -0.23 c 0.031 0.094 -0.023 0.066 -0.215 -0.113 c -0.352 -0.328 -0.477 -0.316 -0.477 0.039 c 0 0.277 0.238 1.23 0.398 1.602 c 0.047 0.109 0.102 0.359 0.117 0.559 c 0.066 0.727 0.07 0.738 0.316 0.809 c 0.227 0.063 0.555 0.43 0.555 0.617 c 0 0.051 0.027 0.09 0.063 0.09 c 0.039 0 0.055 0.246 0.043 0.691 c -0.016 0.641 -0.023 0.695 -0.137 0.711 c -0.066 0.012 -0.16 0.035 -0.211 0.055 c -0.148 0.059 -0.664 0.07 -0.664 0.016 c 0 -0.117 -0.289 -0.191 -0.852 -0.215 c -0.375 -0.012 -0.711 -0.063 -0.91 -0.133 c -0.172 -0.063 -0.391 -0.129 -0.48 -0.148 c -0.09 -0.02 -0.281 -0.113 -0.422 -0.211 c -0.168 -0.117 -0.359 -0.188 -0.559 -0.207 l -0.301 -0.035 l 0.168 0.137 c 0.094 0.074 0.379 0.207 0.633 0.293 c 0.258 0.086 0.723 0.25 1.039 0.367 c 0.313 0.117 0.68 0.238 0.813 0.273 c 0.336 0.082 1.605 0.234 1.66 0.203 c 0.023 -0.016 0.09 -0.012 0.141 0.008 c 0.082 0.031 0.098 0.164 0.098 0.914 v 0.879 h -13.5 m 3.797 -3.539 c 0 -0.066 -0.133 -0.379 -0.297 -0.695 c -0.16 -0.32 -0.383 -0.855 -0.488 -1.195 c -0.219 -0.691 -0.531 -1.41 -0.609 -1.41 c -0.027 0 -0.051 0.25 -0.051 0.555 c 0 0.551 0.121 1.035 0.34 1.359 c 0.043 0.063 0.082 0.195 0.086 0.293 c 0.008 0.313 0.141 0.645 0.285 0.719 c 0.078 0.035 0.23 0.16 0.34 0.277 c 0.223 0.238 0.395 0.281 0.395 0.098 m 5.063 -0.285 c 0 -0.129 -0.336 -0.598 -0.426 -0.598 c -0.094 0 0 0.301 0.164 0.516 c 0.164 0.215 0.262 0.246 0.262 0.082 m 1.504 -0.078 c 0 -0.102 -0.262 -0.492 -0.281 -0.426 c -0.031 0.09 0.152 0.496 0.223 0.496 c 0.031 0 0.059 -0.031 0.059 -0.07 m -7.699 -0.711 c -0.063 -0.125 -0.066 -0.121 -0.07 0.07 c 0 0.152 0.016 0.184 0.066 0.133 c 0.055 -0.051 0.055 -0.105 0.004 -0.203 m 6.465 -0.586 c 0.184 -0.086 0.164 -0.184 -0.129 -0.59 c -0.207 -0.289 -0.246 -0.402 -0.145 -0.402 c 0.086 0 0.48 0.422 0.602 0.648 c 0.125 0.23 0.348 0.449 0.402 0.395 c 0.047 -0.047 0.02 -0.098 -0.309 -0.602 c -0.148 -0.227 -0.309 -0.496 -0.355 -0.594 c -0.051 -0.102 -0.238 -0.309 -0.426 -0.461 c -0.313 -0.266 -0.41 -0.453 -0.273 -0.539 c 0.031 -0.02 -0.035 -0.129 -0.152 -0.246 c -0.246 -0.25 -0.301 -0.223 -0.324 0.145 c -0.004 0.039 -0.047 0.074 -0.094 0.074 c -0.129 0 -0.113 0.16 0.027 0.336 c 0.066 0.082 0.121 0.203 0.121 0.273 c 0 0.066 0.148 0.371 0.328 0.684 c 0.184 0.309 0.363 0.652 0.398 0.754 c 0.078 0.215 0.102 0.223 0.328 0.125 m 0.754 -0.938 c 0 -0.031 -0.039 -0.074 -0.09 -0.094 c -0.047 -0.016 -0.102 -0.082 -0.121 -0.141 c -0.043 -0.129 -0.313 -0.313 -0.395 -0.262 c -0.07 0.043 0.109 0.32 0.211 0.32 c 0.039 0 0.125 0.055 0.184 0.121 c 0.117 0.129 0.211 0.152 0.211 0.055 m -2.168 -1.352 c 0 -0.035 -0.031 -0.063 -0.066 -0.063 c -0.035 0 -0.047 0.027 -0.027 0.063 c 0.023 0.031 0.051 0.059 0.066 0.059 c 0.012 0 0.027 -0.027 0.027 -0.059 m 1.566 -0.59 c 0.168 -0.168 0.148 -0.285 -0.07 -0.402 c -0.102 -0.055 -0.316 -0.195 -0.477 -0.309 c -0.27 -0.191 -0.313 -0.203 -0.758 -0.203 h -0.473 l -0.02 0.25 c -0.023 0.277 0.016 0.297 0.305 0.152 c 0.367 -0.184 0.527 -0.203 0.805 -0.082 c 0.262 0.113 0.445 0.355 0.445 0.59 c 0 0.152 0.086 0.152 0.242 0.004 m -0.395 -1.32 c 0.098 -0.07 0.102 -0.109 0.039 -0.352 c -0.035 -0.148 -0.066 -0.43 -0.066 -0.625 c 0 -0.199 -0.043 -0.633 -0.094 -0.965 c -0.051 -0.332 -0.086 -0.73 -0.078 -0.883 c 0.004 -0.156 -0.016 -0.309 -0.047 -0.34 c -0.031 -0.031 -0.188 -0.074 -0.344 -0.094 c -0.262 -0.035 -0.281 -0.031 -0.246 0.07 c 0.094 0.277 0.215 0.496 0.277 0.496 c 0.09 0 0.223 0.184 0.227 0.309 c 0 0.055 -0.047 0.125 -0.102 0.156 c -0.098 0.055 -0.098 0.066 0.027 0.195 c 0.168 0.176 0.102 0.305 -0.125 0.25 c -0.137 -0.031 -0.16 -0.02 -0.16 0.086 c 0 0.082 -0.055 0.148 -0.152 0.184 c -0.082 0.031 -0.148 0.098 -0.148 0.152 c 0 0.078 0.039 0.09 0.223 0.055 c 0.125 -0.023 0.262 -0.094 0.309 -0.16 c 0.055 -0.078 0.105 -0.098 0.145 -0.059 c 0.039 0.039 0.027 0.105 -0.035 0.195 c -0.121 0.172 -0.125 0.23 -0.008 0.23 c 0.051 0 0.09 0.023 0.09 0.059 c 0 0.031 -0.027 0.059 -0.063 0.059 c -0.109 0 -0.059 0.188 0.063 0.219 c 0.168 0.043 0.156 0.207 -0.012 0.184 c -0.07 -0.012 -0.141 0.012 -0.152 0.055 c -0.016 0.039 0 0.074 0.035 0.074 c 0.035 0 0.094 0.055 0.129 0.121 c 0.055 0.094 0.047 0.152 -0.027 0.266 c -0.094 0.137 -0.09 0.145 0.043 0.145 c 0.078 0 0.191 -0.039 0.254 -0.082 m 3.965 -0.098 c 0.09 -0.043 0.164 -0.098 0.164 -0.125 c 0 -0.027 -0.074 -0.02 -0.164 0.016 c -0.094 0.035 -0.465 0.078 -0.832 0.098 c -0.492 0.027 -0.605 0.047 -0.449 0.078 c 0.309 0.063 1.09 0.023 1.281 -0.066 m -5.277 -0.453 c -0.098 -0.098 -0.109 -0.098 -0.207 0 c -0.098 0.094 -0.09 0.102 0.105 0.102 c 0.195 0 0.199 -0.008 0.102 -0.102 m 2.551 -0.75 c 0 -0.016 -0.027 -0.043 -0.063 -0.063 c -0.031 -0.02 -0.059 -0.008 -0.059 0.023 c 0 0.035 0.027 0.063 0.059 0.063 c 0.035 0 0.063 -0.012 0.063 -0.023 m 1.363 -0.223 c 0.078 -0.07 0.141 -0.141 0.141 -0.16 c 0 -0.02 -0.18 -0.039 -0.398 -0.043 l -0.398 -0.008 l 0.188 0.117 c 0.105 0.066 0.172 0.141 0.156 0.172 c -0.07 0.105 0.18 0.047 0.316 -0.078 m 1.598 -0.027 l 0.227 -0.031 v -0.305 c 0 -0.168 -0.016 -0.441 -0.039 -0.613 c -0.031 -0.273 -0.055 -0.309 -0.176 -0.309 c -0.172 0 -0.242 0.184 -0.133 0.352 c 0.07 0.109 0.059 0.137 -0.098 0.258 c -0.113 0.09 -0.164 0.172 -0.141 0.23 c 0.02 0.051 -0.012 0.133 -0.07 0.188 c -0.137 0.117 -0.488 0.125 -0.488 0.008 c 0 -0.07 -0.035 -0.074 -0.188 -0.023 c -0.156 0.055 -0.172 0.074 -0.09 0.117 c 0.055 0.031 0.098 0.098 0.098 0.148 c 0 0.078 0.066 0.086 0.438 0.051 c 0.238 -0.02 0.535 -0.051 0.66 -0.07 m -5.148 -0.063 c -0.023 -0.125 -0.129 -0.117 -0.156 0.012 c -0.012 0.051 0.02 0.09 0.078 0.09 c 0.063 0 0.094 -0.039 0.078 -0.102 m 2.844 -0.246 c 0 -0.027 -0.055 -0.066 -0.121 -0.082 c -0.066 -0.02 -0.117 -0.082 -0.117 -0.148 c 0 -0.207 -0.199 -0.379 -0.457 -0.395 c -0.129 -0.008 -0.285 -0.035 -0.344 -0.059 c -0.063 -0.027 -0.105 -0.016 -0.105 0.023 c 0 0.039 0.043 0.082 0.09 0.094 c 0.051 0.016 0.141 0.047 0.195 0.07 c 0.059 0.023 0.148 0.043 0.199 0.047 c 0.055 0 0.086 0.059 0.082 0.148 c -0.004 0.082 0.047 0.195 0.113 0.25 c 0.125 0.105 0.465 0.145 0.465 0.051 m -3.313 -0.477 c 0 -0.141 -0.184 -0.289 -0.41 -0.332 c -0.262 -0.051 -0.613 0.02 -0.613 0.125 c 0 0.129 0.34 0.402 0.59 0.477 c 0.195 0.059 0.234 0.051 0.328 -0.051 c 0.059 -0.063 0.105 -0.16 0.105 -0.219 m 0.691 0.293 c 0.023 -0.031 -0.004 -0.059 -0.055 -0.059 c -0.051 0 -0.094 0.027 -0.094 0.059 c 0 0.031 0.023 0.059 0.055 0.059 c 0.031 0 0.074 -0.027 0.094 -0.059 m 4.047 -0.352 c 0.105 0 0.172 -0.059 0.242 -0.207 c 0.113 -0.23 0.07 -0.328 -0.238 -0.48 c -0.215 -0.109 -0.703 -0.059 -0.895 0.094 c -0.16 0.125 -0.109 0.219 0.145 0.285 c 0.316 0.078 0.281 0.195 -0.051 0.148 c -0.227 -0.027 -0.277 -0.02 -0.254 0.047 c 0.031 0.09 0.461 0.168 0.734 0.133 c 0.094 -0.012 0.238 -0.02 0.316 -0.02 m -1.695 -0.422 c 0 -0.047 -0.102 -0.102 -0.242 -0.129 c -0.133 -0.023 -0.418 -0.086 -0.633 -0.133 c -0.215 -0.047 -0.434 -0.086 -0.488 -0.086 c -0.055 0 -0.133 -0.039 -0.176 -0.09 c -0.07 -0.086 -0.086 -0.086 -0.133 0 c -0.039 0.07 -0.004 0.141 0.137 0.27 c 0.105 0.098 0.227 0.176 0.273 0.176 c 0.043 0 0.094 0.023 0.113 0.051 c 0.016 0.031 0.195 0.055 0.398 0.051 c 0.199 0 0.395 0.027 0.434 0.066 c 0.082 0.082 0.316 -0.047 0.316 -0.176 m -0.906 -0.051 c 0.023 -0.035 0.051 -0.059 0.066 -0.059 c 0.016 0 0.027 0.023 0.027 0.059 c 0 0.031 -0.031 0.059 -0.066 0.059 c -0.035 0 -0.047 -0.027 -0.027 -0.059 m 3.375 -0.258 c 0.078 -0.055 0.09 -0.09 0.039 -0.121 c -0.074 -0.047 -0.25 0.059 -0.25 0.148 c 0 0.074 0.082 0.066 0.211 -0.027 m 0.375 6.477 c -0.059 -0.129 -0.18 -0.336 -0.266 -0.457 c -0.086 -0.121 -0.141 -0.238 -0.121 -0.254 c 0.039 -0.043 0.285 0.082 0.285 0.145 c 0 0.023 0.055 0.102 0.121 0.176 c 0.094 0.098 0.121 0.191 0.105 0.379 l -0.02 0.25 m -3.281 -7.297 c -0.152 -0.086 -0.172 -0.105 -0.059 -0.074 c 0.082 0.02 0.211 0.035 0.289 0.035 c 0.082 -0.004 0.133 0.023 0.117 0.063 c -0.035 0.109 -0.117 0.102 -0.348 -0.023" fill="#d9e5a5"/><path d="m 5.523 19.05 l 0.004 -0.516 l 0.039 0.383 l 0.043 0.383 l 0.008 -0.395 c 0.008 -0.219 -0.016 -0.41 -0.051 -0.434 c -0.039 -0.023 -0.059 -2.113 -0.059 -6.074 v -6.04 h 2.047 c 1.297 0 2.059 0.023 2.082 0.059 c 0.02 0.035 0.063 0.063 0.098 0.063 c 0.031 0 0.043 -0.027 0.023 -0.063 c -0.027 -0.035 0.672 -0.059 2.043 -0.059 c 2 0 2.082 0.004 2.082 0.113 c 0 0.063 0.043 0.125 0.09 0.145 c 0.066 0.027 0.094 -0.004 0.094 -0.109 c 0 -0.105 0.031 -0.148 0.113 -0.148 c 0.063 0 0.129 0.035 0.148 0.074 c 0.023 0.059 0.031 0.059 0.035 0 c 0.004 -0.105 0.223 -0.09 0.266 0.02 c 0.023 0.059 -0.016 0.109 -0.129 0.148 c -0.09 0.035 -0.223 0.117 -0.293 0.184 c -0.129 0.117 -0.145 0.117 -0.871 0.023 c -0.43 -0.055 -0.766 -0.07 -0.797 -0.043 c -0.078 0.078 0.035 0.125 0.457 0.191 c 0.391 0.059 0.492 0.129 0.598 0.422 c 0.035 0.09 0.145 0.207 0.242 0.254 c 0.227 0.117 0.191 0.219 -0.105 0.281 c -0.133 0.031 -0.273 0.063 -0.313 0.074 c -0.043 0.012 -0.074 0.094 -0.074 0.184 c 0 0.16 -0.277 0.488 -0.41 0.488 c -0.035 0 -0.07 0.094 -0.086 0.207 c -0.012 0.113 -0.012 0.207 0 0.207 c 0.012 0 0.094 -0.055 0.18 -0.121 c 0.188 -0.145 0.328 -0.066 0.207 0.121 c -0.039 0.063 -0.074 0.129 -0.074 0.145 c 0 0.063 0.172 0.027 0.195 -0.039 c 0.031 -0.098 0.227 -0.012 0.227 0.098 c 0 0.051 -0.051 0.09 -0.113 0.09 c -0.063 0 -0.145 0.043 -0.188 0.09 c -0.047 0.055 -0.125 0.078 -0.195 0.055 c -0.066 -0.02 -0.184 -0.004 -0.258 0.035 c -0.113 0.059 -0.164 0.055 -0.27 -0.02 c -0.074 -0.051 -0.172 -0.078 -0.219 -0.059 c -0.102 0.035 -0.109 0.137 -0.012 0.137 c 0.039 0 0.133 0.055 0.207 0.125 c 0.184 0.164 0.691 0.191 0.734 0.035 c 0.031 -0.125 0.191 -0.137 0.191 -0.016 c 0 0.121 0.281 0.18 0.398 0.086 c 0.113 -0.09 0.227 0 0.195 0.16 c -0.016 0.074 -0.105 0.129 -0.289 0.172 c -0.156 0.039 -0.238 0.082 -0.195 0.105 c 0.039 0.027 0.074 0.086 0.074 0.137 c 0 0.074 -0.047 0.086 -0.227 0.059 c -0.242 -0.035 -1.195 0.199 -1.184 0.293 c 0.004 0.027 0.105 0.066 0.227 0.086 c 0.293 0.047 0.348 0.105 0.383 0.434 c 0.035 0.309 0.195 0.387 0.195 0.094 c 0 -0.387 0.707 -0.609 1.129 -0.359 c 0.191 0.117 0.238 0.215 0.273 0.563 c 0.008 0.117 0.055 0.184 0.125 0.199 c 0.125 0.02 0.461 -0.262 0.461 -0.387 c 0 -0.102 0.191 -0.098 0.336 0.012 c 0.113 0.082 0.105 0.086 -0.078 0.086 c -0.168 0.004 -0.195 0.023 -0.195 0.148 c 0 0.078 -0.027 0.16 -0.063 0.18 c -0.102 0.063 -0.066 0.117 0.121 0.188 c 0.27 0.098 0.223 0.195 -0.09 0.195 c -0.152 0 -0.27 -0.027 -0.27 -0.063 c 0 -0.035 -0.047 -0.059 -0.105 -0.055 c -0.332 0.035 -0.504 -0.016 -0.738 -0.207 c -0.266 -0.219 -0.41 -0.254 -0.531 -0.133 c -0.063 0.055 -0.082 0.043 -0.113 -0.063 c -0.047 -0.176 -0.215 -0.145 -0.23 0.039 c -0.004 0.074 -0.047 0.16 -0.094 0.188 c -0.066 0.039 -0.039 0.133 0.141 0.48 c 0.125 0.238 0.277 0.551 0.344 0.695 c 0.07 0.148 0.211 0.414 0.32 0.59 c 0.109 0.18 0.277 0.547 0.375 0.813 c 0.094 0.27 0.199 0.512 0.238 0.543 c 0.035 0.027 0.156 0.031 0.27 0.012 c 0.172 -0.035 0.219 -0.078 0.262 -0.242 c 0.039 -0.16 0.031 -0.211 -0.043 -0.254 c -0.121 -0.066 -0.121 -0.164 -0.004 -0.164 c 0.051 0 0.109 0.047 0.133 0.105 c 0.02 0.055 0.078 0.148 0.129 0.207 c 0.109 0.125 0.238 0.453 0.309 0.773 c 0.07 0.328 0.434 0.582 0.52 0.367 c 0.039 -0.102 -0.09 -0.359 -0.379 -0.75 l -0.211 -0.289 h 0.148 c 0.195 0 0.277 -0.258 0.137 -0.41 c -0.051 -0.055 -0.094 -0.133 -0.094 -0.168 c 0 -0.039 -0.039 -0.07 -0.09 -0.07 c -0.051 0 -0.09 -0.051 -0.09 -0.117 c 0 -0.152 0.121 -0.152 0.164 0 c 0.031 0.125 0.117 0.148 0.246 0.066 c 0.063 -0.039 0.059 -0.063 -0.016 -0.125 c -0.074 -0.059 -0.078 -0.094 -0.027 -0.156 c 0.039 -0.043 0.105 -0.082 0.152 -0.082 c 0.105 0 0.109 -0.098 0.008 -0.133 c -0.043 -0.012 -0.078 -0.113 -0.082 -0.227 c -0.004 -0.109 -0.027 -0.309 -0.051 -0.445 c -0.043 -0.223 -0.031 -0.254 0.109 -0.344 c 0.152 -0.098 0.172 -0.098 0.438 0.027 c 0.156 0.07 0.324 0.18 0.379 0.238 c 0.156 0.18 0.254 0.164 0.332 -0.055 c 0.094 -0.262 0.199 -0.297 0.25 -0.082 c 0.02 0.09 0.094 0.285 0.164 0.426 c 0.07 0.145 0.133 0.41 0.145 0.59 c 0.043 0.715 0.16 1.484 0.238 1.547 c 0.047 0.035 0.082 0.141 0.082 0.23 c 0 0.227 0.203 0.344 0.359 0.203 c 0.102 -0.09 0.117 -0.086 0.207 0.039 c 0.051 0.074 0.098 0.234 0.098 0.355 c 0 0.234 0.078 0.297 0.145 0.125 c 0.031 -0.082 0.059 -0.066 0.156 0.09 c 0.086 0.137 0.121 0.297 0.121 0.57 c 0 0.352 -0.012 0.383 -0.148 0.418 c -0.078 0.02 -0.289 0.008 -0.465 -0.027 c -0.18 -0.035 -0.555 -0.09 -0.836 -0.125 c -0.281 -0.035 -0.945 -0.191 -1.477 -0.348 c -1.273 -0.383 -1.457 -0.418 -1.996 -0.418 c -0.621 0 -0.613 0.004 0.551 0.41 c 0.301 0.105 0.754 0.293 1.016 0.422 c 0.258 0.125 0.523 0.227 0.594 0.227 c 0.094 0 0.113 0.027 0.09 0.121 c -0.039 0.148 0.102 0.242 0.59 0.402 c 0.316 0.102 1.34 0.273 1.871 0.316 l 0.18 0.016 l 0.016 0.457 c 0.016 0.418 0.008 0.453 -0.09 0.418 c -0.059 -0.02 -0.156 -0.078 -0.215 -0.129 c -0.129 -0.105 -0.809 -0.168 -0.895 -0.082 c -0.09 0.086 0.051 0.277 0.262 0.355 c 0.105 0.039 0.168 0.098 0.152 0.141 c -0.02 0.063 -1.227 0.082 -6.355 0.094 l -6.328 0.016 m 3.863 -3.219 c 0.074 -0.184 0.031 -0.316 -0.301 -0.965 c -0.184 -0.363 -0.438 -0.969 -0.563 -1.348 c -0.379 -1.141 -0.609 -1.559 -0.773 -1.402 c -0.023 0.023 -0.059 0.332 -0.082 0.688 c -0.027 0.465 -0.063 0.676 -0.133 0.75 c -0.141 0.156 -0.219 0.566 -0.148 0.824 c 0.219 0.816 0.23 0.852 0.379 0.813 c 0.105 -0.023 0.207 0.02 0.391 0.172 c 0.137 0.109 0.352 0.223 0.473 0.242 c 0.121 0.023 0.301 0.105 0.395 0.18 c 0.199 0.164 0.313 0.176 0.363 0.047 m 5.102 -0.438 c -0.094 -0.313 -0.391 -0.797 -0.504 -0.816 c -0.148 -0.027 -0.199 0.031 -0.246 0.297 c -0.039 0.207 -0.027 0.223 0.188 0.332 c 0.125 0.063 0.281 0.172 0.344 0.238 c 0.172 0.188 0.281 0.164 0.219 -0.051 m -1.813 0.016 c -0.008 -0.176 -0.254 -0.711 -0.355 -0.777 c -0.117 -0.074 -0.125 -0.066 -0.125 0.125 c 0 0.137 0.063 0.281 0.195 0.449 c 0.18 0.227 0.289 0.305 0.285 0.203 m -1.684 -0.395 c 0 -0.094 -0.129 -0.328 -0.18 -0.328 c -0.086 0 -0.078 0.195 0.012 0.281 c 0.07 0.07 0.168 0.098 0.168 0.047 m 1.164 -0.773 c -0.016 -0.047 -0.055 -0.07 -0.082 -0.055 c -0.031 0.016 -0.039 0.07 -0.02 0.117 c 0.02 0.047 0.059 0.07 0.086 0.055 c 0.027 -0.016 0.035 -0.07 0.016 -0.117 m 3.957 -0.324 c 0 -0.031 -0.027 -0.059 -0.059 -0.059 c -0.035 0 -0.062 0.027 -0.062 0.059 c 0 0.035 0.027 0.059 0.062 0.059 c 0.031 0 0.059 -0.023 0.059 -0.059 m -3.855 -4.297 c 0 -0.074 -0.18 -0.207 -0.223 -0.164 c -0.043 0.043 0.094 0.215 0.168 0.215 c 0.031 0 0.055 -0.023 0.055 -0.051 m -0.422 -0.031 c 0 -0.016 -0.027 -0.043 -0.063 -0.063 c -0.031 -0.02 -0.059 -0.008 -0.059 0.023 c 0 0.035 0.027 0.063 0.059 0.063 c 0.035 0 0.063 -0.012 0.063 -0.023 m 1.203 -0.07 c 0 -0.012 -0.055 -0.023 -0.121 -0.023 c -0.07 0 -0.109 0.027 -0.09 0.059 c 0.031 0.051 0.211 0.02 0.211 -0.035 m -0.063 -2.031 c 0.109 -0.195 0.121 -0.254 0.059 -0.328 c -0.188 -0.219 -0.676 -0.324 -1.059 -0.223 c -0.113 0.031 -0.125 0.07 -0.113 0.328 c 0.023 0.367 0.086 0.43 0.41 0.414 c 0.141 -0.008 0.293 0.012 0.34 0.043 c 0.125 0.082 0.211 0.023 0.363 -0.234 m -3.148 -0.953 c -0.012 -0.074 -0.027 -0.027 -0.027 0.102 c 0 0.129 0.012 0.191 0.027 0.133 c 0.016 -0.055 0.016 -0.16 0 -0.234 m 8.516 12.43 c 0 -0.047 0.027 -0.102 0.063 -0.125 c 0.078 -0.047 0.25 0.086 0.203 0.156 c -0.055 0.086 -0.266 0.063 -0.266 -0.031 m 0.438 -0.031 c -0.008 -0.082 0.027 -0.121 0.109 -0.121 c 0.074 0 0.113 0.043 0.113 0.121 c 0 0.07 -0.039 0.117 -0.105 0.117 c -0.066 0 -0.113 -0.047 -0.117 -0.117 m 0.094 -6.621 c -0.039 -0.074 -0.09 -0.23 -0.113 -0.355 c -0.035 -0.191 -0.027 -0.219 0.074 -0.219 c 0.148 0 0.203 0.152 0.102 0.277 c -0.059 0.066 -0.059 0.086 -0.008 0.055 c 0.055 -0.031 0.074 0.012 0.074 0.164 c 0 0.246 -0.027 0.262 -0.129 0.078 m -4.27 -0.102 c 0 -0.035 0.027 -0.059 0.063 -0.059 c 0.031 0 0.059 0.023 0.059 0.059 c 0 0.031 -0.027 0.059 -0.059 0.059 c -0.035 0 -0.063 -0.027 -0.063 -0.059 m 1.539 -0.828 c -0.023 -0.031 -0.012 -0.059 0.023 -0.059 c 0.031 0 0.074 0.027 0.098 0.059 c 0.02 0.035 0.008 0.059 -0.023 0.059 c -0.035 0 -0.078 -0.023 -0.098 -0.059 m 0.613 -1.238 c -0.09 -0.027 -0.504 -0.094 -0.914 -0.148 c -0.738 -0.098 -0.746 -0.098 -0.871 0.027 c -0.121 0.117 -0.129 0.117 -0.32 0.012 c -0.148 -0.082 -0.191 -0.145 -0.184 -0.25 c 0.023 -0.199 0.02 -0.293 -0.008 -1.047 c -0.023 -0.566 -0.016 -0.66 0.059 -0.633 c 0.047 0.016 0.086 0.008 0.086 -0.02 c 0 -0.031 -0.031 -0.066 -0.074 -0.078 c -0.043 -0.016 -0.055 -0.047 -0.035 -0.07 c 0.023 -0.027 0.133 -0.016 0.238 0.02 c 0.254 0.09 0.348 -0.004 0.141 -0.137 c -0.129 -0.082 -0.191 -0.09 -0.305 -0.043 c -0.117 0.055 -0.152 0.047 -0.203 -0.047 c -0.082 -0.148 -0.152 -0.789 -0.102 -0.918 c 0.035 -0.086 0.055 -0.082 0.199 0.027 c 0.086 0.066 0.203 0.121 0.254 0.125 c 0.156 0 0.281 0.125 0.402 0.395 c 0.066 0.152 0.152 0.25 0.215 0.25 c 0.055 0 0.156 0.047 0.227 0.105 c 0.168 0.137 0.082 0.266 -0.184 0.277 c -0.109 0.004 -0.262 0.039 -0.34 0.082 l -0.141 0.074 l 0.16 0.145 c 0.113 0.105 0.227 0.145 0.414 0.145 c 0.324 0 0.371 -0.047 0.215 -0.211 l -0.121 -0.129 l 0.152 -0.098 c 0.152 -0.098 0.418 -0.082 0.488 0.031 c 0.02 0.027 0.086 0.051 0.148 0.051 c 0.066 0 0.117 0.031 0.117 0.066 c 0 0.063 -0.102 0.055 -0.406 -0.039 c -0.117 -0.035 -0.133 -0.02 -0.133 0.117 v 0.156 l 0.496 -0.039 c 0.273 -0.02 0.66 -0.047 0.859 -0.055 c 0.199 -0.008 0.617 -0.047 0.934 -0.086 c 0.313 -0.039 0.586 -0.074 0.602 -0.074 c 0.172 -0.008 0.18 0.035 0.18 0.883 v 0.871 l -0.195 0.078 c -0.586 0.23 -1.586 0.32 -2.051 0.184 m 1.715 -0.449 c 0.09 -0.043 0.207 -0.137 0.258 -0.211 c 0.156 -0.215 0.027 -0.258 -0.434 -0.145 c -0.223 0.055 -0.727 0.125 -1.117 0.152 c -0.391 0.027 -0.73 0.07 -0.754 0.09 c -0.078 0.078 0.148 0.148 0.5 0.156 c 0.199 0.004 0.496 0.023 0.664 0.047 c 0.355 0.051 0.66 0.02 0.883 -0.09 m -0.645 -0.781 c 0.016 -0.031 -0.008 -0.066 -0.055 -0.086 c -0.098 -0.035 -0.176 0.039 -0.113 0.102 c 0.055 0.051 0.129 0.047 0.168 -0.016 m -3.039 -1.711 c 0 -0.055 -0.148 -0.125 -0.262 -0.121 c -0.039 0 -0.02 0.039 0.047 0.086 c 0.133 0.102 0.215 0.113 0.215 0.035 m 4.074 0.57 c -0.02 -0.172 -0.039 -0.461 -0.039 -0.648 c 0 -0.184 -0.031 -0.352 -0.066 -0.375 c -0.043 -0.023 -0.055 -0.137 -0.031 -0.297 c 0.02 -0.152 0.012 -0.258 -0.023 -0.258 c -0.098 0 -0.066 -0.281 0.035 -0.32 c 0.18 -0.066 0.254 -0.035 0.254 0.113 c 0 0.078 -0.02 0.133 -0.043 0.121 c -0.055 -0.035 -0.039 0.188 0.016 0.242 c 0.059 0.059 0.051 1.73 -0.012 1.73 c -0.027 0 -0.07 -0.141 -0.09 -0.309 m -2.203 0.09 c -0.23 -0.043 -0.52 -0.289 -0.637 -0.547 c -0.098 -0.215 -0.102 -0.246 -0.016 -0.34 c 0.051 -0.059 0.102 -0.156 0.113 -0.219 c 0.055 -0.289 1.145 -0.754 1.336 -0.566 c 0.039 0.035 0.137 0.063 0.227 0.063 c 0.191 0 0.477 0.242 0.477 0.402 c 0 0.063 0.043 0.148 0.094 0.188 c 0.203 0.164 0.023 0.637 -0.309 0.801 c -0.145 0.074 -0.988 0.27 -1.09 0.254 c -0.027 -0.008 -0.117 -0.023 -0.195 -0.035 m 0.828 -0.441 c 0.039 -0.039 0.145 -0.074 0.238 -0.074 c 0.129 -0.004 0.188 -0.051 0.277 -0.234 c 0.129 -0.254 0.105 -0.336 -0.164 -0.531 c -0.297 -0.215 -1.184 -0.07 -1.184 0.191 c 0 0.063 -0.016 0.195 -0.039 0.297 c -0.035 0.172 -0.02 0.191 0.227 0.301 c 0.301 0.137 0.539 0.152 0.645 0.051 m -3.773 0.293 c 0.039 -0.109 0.168 -0.125 0.168 -0.023 c 0 0.055 -0.043 0.094 -0.094 0.094 c -0.055 0 -0.086 -0.031 -0.074 -0.07 m 1.523 -1.199 l -0.238 -0.082 l 0.238 0.031 c 0.133 0.02 0.27 0.059 0.301 0.09 c 0.078 0.07 -0.004 0.063 -0.301 -0.039" fill="#aaab56"/><path d="m 5.578 19.438 c 0.098 -0.18 0.102 -1 0.004 -1.035 c -0.059 -0.016 -0.074 -1.348 -0.074 -6.03 v -6.01 h 4.082 l 0.035 0.133 c 0.016 0.074 0.051 0.313 0.074 0.535 c 0.051 0.484 0.238 1.113 0.293 0.98 c 0.039 -0.094 -0.035 -0.863 -0.133 -1.359 l -0.051 -0.273 l 1.379 -0.008 c 1.055 -0.008 1.406 0.008 1.477 0.063 c 0.078 0.063 0.09 0.063 0.051 0 c -0.039 -0.059 0.059 -0.074 0.469 -0.066 c 0.285 0.008 0.5 0.035 0.484 0.063 c -0.02 0.031 -0.004 0.051 0.031 0.051 c 0.035 0 0.113 0.051 0.176 0.113 c 0.063 0.059 0.152 0.121 0.195 0.137 c 0.047 0.016 0.063 0.055 0.035 0.082 c -0.078 0.082 -1.805 -0.152 -1.883 -0.258 c -0.051 -0.063 -0.082 -0.07 -0.109 -0.023 c -0.051 0.074 0.066 0.203 0.406 0.449 c 0.195 0.141 0.254 0.156 0.348 0.102 c 0.137 -0.086 0.234 -0.09 0.234 -0.012 c 0 0.035 -0.043 0.059 -0.094 0.059 c -0.109 0 -0.113 0.082 -0.016 0.234 c 0.117 0.184 0.016 0.203 -0.227 0.043 c -0.16 -0.109 -0.258 -0.137 -0.352 -0.102 c -0.07 0.023 -0.258 0.066 -0.418 0.086 c -0.352 0.051 -0.766 0.219 -0.879 0.352 c -0.117 0.137 -0.02 0.434 0.188 0.586 c 0.223 0.164 0.281 0.082 0.109 -0.145 c -0.188 -0.254 -0.117 -0.492 0.152 -0.492 c 0.16 0 0.176 0.016 0.16 0.176 c -0.023 0.305 0.145 0.441 0.582 0.469 c 0.469 0.031 0.516 0.016 0.676 -0.242 c 0.07 -0.109 0.16 -0.191 0.199 -0.18 c 0.117 0.039 0.035 0.41 -0.121 0.527 c -0.203 0.16 -0.309 0.27 -0.336 0.348 c -0.016 0.043 -0.164 0.078 -0.359 0.082 c -0.426 0.016 -0.473 0.047 -0.473 0.305 c 0 0.16 0.027 0.215 0.125 0.238 c 0.082 0.02 0.117 0.07 0.105 0.156 c -0.016 0.094 0.016 0.129 0.133 0.145 c 0.141 0.02 0.301 0.152 0.301 0.258 c 0 0.078 -0.266 0.051 -0.391 -0.043 c -0.148 -0.109 -0.215 -0.109 -0.215 0.004 c 0 0.117 -0.07 0.109 -0.313 -0.027 c -0.266 -0.148 -1.012 -0.434 -1.047 -0.398 c -0.016 0.016 0.203 0.145 0.492 0.285 c 0.367 0.18 0.551 0.309 0.621 0.434 c 0.051 0.098 0.121 0.195 0.152 0.215 c 0.09 0.066 0.227 -0.02 0.199 -0.121 c -0.02 -0.07 0.027 -0.098 0.191 -0.105 c 0.383 -0.023 0.93 -0.016 0.961 0.012 c 0.066 0.066 -0.063 0.102 -0.316 0.098 c -0.184 -0.004 -0.289 0.023 -0.324 0.082 c -0.031 0.059 -0.191 0.102 -0.461 0.125 c -0.309 0.027 -0.449 0.074 -0.582 0.18 c -0.23 0.191 -0.219 0.266 0.031 0.246 c 0.125 -0.012 0.25 0.02 0.316 0.074 c 0.063 0.055 0.191 0.137 0.293 0.184 c 0.098 0.051 0.281 0.188 0.406 0.305 c 0.176 0.168 0.219 0.246 0.191 0.355 c -0.023 0.078 0 0.199 0.055 0.277 c 0.047 0.074 0.105 0.281 0.129 0.457 c 0.055 0.406 0.191 0.648 0.469 0.824 c 0.25 0.16 0.609 0.813 0.676 1.227 c 0.039 0.242 0.035 0.25 -0.172 0.336 c -0.23 0.094 -0.309 0.293 -0.27 0.688 c 0.016 0.156 0.047 0.203 0.141 0.203 c 0.125 0 0.629 0.32 0.633 0.398 c 0 0.023 -0.344 0.047 -0.77 0.047 c -0.617 0 -0.871 0.027 -1.309 0.141 c -0.758 0.199 -1.039 0.305 -1.242 0.473 c -0.301 0.246 -0.887 0.504 -1.43 0.625 c -0.289 0.066 -0.594 0.145 -0.68 0.18 c -0.164 0.063 -0.52 0.387 -0.473 0.43 c 0.043 0.035 1.01 -0.246 1.445 -0.418 c 0.215 -0.086 0.566 -0.262 0.781 -0.387 c 0.52 -0.305 0.902 -0.449 1.098 -0.414 c 0.086 0.016 0.531 -0.016 0.988 -0.074 c 1.387 -0.168 1.926 -0.07 2.547 0.469 c 0.348 0.301 1.066 0.656 1.867 0.926 c 0.434 0.145 0.625 0.172 1.137 0.18 l 0.617 0.004 v 0.238 c 0 0.219 -0.008 0.23 -0.133 0.191 c -0.316 -0.098 -1.234 -0.102 -1.531 -0.008 c -0.16 0.051 -0.414 0.094 -0.563 0.094 c -0.637 0 -0.758 0.012 -0.813 0.066 c -0.031 0.027 -0.105 0.055 -0.164 0.055 c -0.059 0 -0.109 0.027 -0.109 0.063 c 0 0.035 -0.047 0.055 -0.105 0.047 c -0.059 -0.012 -0.172 0.027 -0.254 0.082 c -0.082 0.059 -0.219 0.105 -0.301 0.105 c -0.133 0 -0.141 0.008 -0.047 0.063 c 0.059 0.031 0.129 0.043 0.16 0.027 c 0.031 -0.02 0.07 -0.012 0.09 0.016 c 0.02 0.031 -0.441 0.059 -1.059 0.066 c -0.84 0.008 -1.105 -0.008 -1.145 -0.066 c -0.039 -0.059 -0.051 -0.063 -0.051 -0.004 c 0 0.043 -0.078 0.074 -0.184 0.074 c -0.133 0 -0.172 -0.023 -0.145 -0.074 c 0.035 -0.059 0.027 -0.059 -0.039 0 c -0.063 0.059 -0.867 0.074 -3.594 0.074 h -3.516 m 4.03 -3.07 c 0.016 -0.227 -0.039 -0.379 -0.371 -1.043 c -0.215 -0.426 -0.473 -1.023 -0.566 -1.324 c -0.223 -0.691 -0.539 -1.434 -0.648 -1.523 c -0.168 -0.137 -0.324 0 -0.566 0.492 c -0.586 1.199 -0.547 2.473 0.102 3.156 c 0.145 0.156 0.258 0.238 0.258 0.188 c 0 -0.051 0.066 -0.121 0.148 -0.156 c 0.121 -0.055 0.164 -0.047 0.25 0.043 c 0.055 0.063 0.141 0.113 0.191 0.113 c 0.051 0 0.141 0.043 0.203 0.098 c 0.102 0.09 0.109 0.09 0.109 0 c 0 -0.055 0.012 -0.098 0.023 -0.098 c 0.086 0 0.453 0.188 0.52 0.262 c 0.043 0.055 0.137 0.09 0.207 0.078 c 0.102 -0.016 0.129 -0.066 0.141 -0.285 m 3.207 -0.465 c 0 -0.059 -0.039 -0.219 -0.09 -0.355 c -0.086 -0.238 -0.082 -0.25 0.031 -0.281 c 0.164 -0.043 0.148 -0.113 -0.039 -0.176 c -0.129 -0.043 -0.176 -0.113 -0.238 -0.344 c -0.043 -0.16 -0.082 -0.363 -0.082 -0.453 c -0.004 -0.086 -0.035 -0.23 -0.078 -0.316 c -0.063 -0.141 -0.059 -0.168 0.039 -0.227 c 0.063 -0.035 0.188 -0.133 0.281 -0.219 c 0.145 -0.133 0.172 -0.207 0.176 -0.473 c 0.004 -0.402 -0.094 -0.988 -0.176 -1.07 c -0.039 -0.043 -0.086 -0.043 -0.121 -0.008 c -0.121 0.129 -0.414 0.727 -0.414 0.855 c -0.008 0.379 -0.07 0.93 -0.129 1.117 c -0.098 0.32 -0.078 0.656 0.063 0.879 c 0.109 0.176 0.117 0.23 0.059 0.465 c -0.059 0.227 -0.055 0.277 0.035 0.375 c 0.059 0.063 0.152 0.105 0.207 0.09 c 0.066 -0.016 0.152 0.039 0.234 0.145 c 0.133 0.18 0.242 0.18 0.242 -0.004 m -1.688 -0.406 c 0 -0.184 -0.121 -0.473 -0.215 -0.504 c -0.055 -0.023 -0.133 0.035 -0.207 0.156 c -0.168 0.266 -0.152 0.383 0.047 0.414 c 0.336 0.051 0.375 0.043 0.375 -0.066 m 0 -2.348 c 0 -0.047 0.039 -0.098 0.082 -0.113 c 0.109 -0.043 0.461 -0.574 0.461 -0.699 c 0 -0.195 -0.309 -0.098 -0.703 0.23 c -0.57 0.473 -0.707 0.617 -0.641 0.684 c 0.047 0.047 0.141 -0.012 0.32 -0.207 c 0.266 -0.281 0.48 -0.355 0.48 -0.16 c 0 0.063 -0.039 0.145 -0.09 0.184 c -0.051 0.043 -0.09 0.129 -0.09 0.191 c 0 0.098 0.016 0.105 0.09 0.047 c 0.051 -0.043 0.09 -0.113 0.09 -0.156 m 0.527 -2.844 c 0.098 -0.027 0.117 -0.059 0.078 -0.125 c -0.047 -0.07 -0.109 -0.074 -0.41 -0.012 c -0.449 0.09 -0.754 0.09 -0.844 0 c -0.043 -0.039 -0.074 -0.207 -0.074 -0.371 c 0 -0.484 -0.148 -0.871 -0.266 -0.691 c -0.016 0.027 0.012 0.234 0.059 0.457 c 0.047 0.227 0.086 0.477 0.086 0.563 c 0 0.082 0.02 0.168 0.043 0.191 c 0.051 0.051 1.148 0.039 1.328 -0.012 m 0.27 -0.688 c 0.004 -0.078 -0.262 -0.207 -0.336 -0.164 c -0.031 0.02 0.004 0.086 0.082 0.148 c 0.141 0.113 0.246 0.117 0.254 0.016 m -4.594 -0.563 c 0 -0.121 -0.125 -0.293 -0.211 -0.293 c -0.105 0 -0.113 0.082 -0.027 0.242 c 0.066 0.121 0.238 0.156 0.238 0.051 m 0.309 -0.191 c -0.047 -0.047 -0.066 -0.031 -0.066 0.055 c 0 0.156 0.086 0.238 0.113 0.109 c 0.008 -0.055 -0.012 -0.129 -0.047 -0.164 m 4.121 -0.039 c 0 -0.051 -0.047 -0.098 -0.109 -0.109 c -0.125 -0.023 -0.297 0.098 -0.246 0.176 c 0.055 0.09 0.355 0.031 0.355 -0.066 m -4.066 -0.852 c 0 -0.016 -0.016 -0.066 -0.035 -0.117 c -0.055 -0.133 -0.145 -0.117 -0.145 0.023 c 0 0.066 0.039 0.117 0.09 0.117 c 0.051 0 0.09 -0.012 0.09 -0.023 m -1.148 -0.25 c 0.152 -0.254 0.129 -0.297 -0.113 -0.199 c -0.18 0.074 -0.285 0.246 -0.215 0.355 c 0.074 0.117 0.199 0.055 0.328 -0.156 m 0.828 -0.051 c 0.043 -0.117 0.035 -0.121 -0.242 -0.172 c -0.27 -0.047 -0.289 0.059 -0.035 0.188 c 0.191 0.094 0.234 0.09 0.277 -0.016 m 4.898 -0.77 c -0.09 -0.102 -0.309 -0.094 -0.344 0.02 c -0.02 0.051 0.047 0.074 0.195 0.074 c 0.195 0 0.215 -0.012 0.148 -0.094 m -0.359 -0.465 c 0 -0.063 -0.117 -0.09 -0.152 -0.035 c -0.02 0.035 0.008 0.063 0.059 0.063 c 0.051 0 0.094 -0.012 0.094 -0.027 m 3.734 12.941 c 0 -0.031 0.043 -0.043 0.09 -0.023 c 0.051 0.02 0.09 0.047 0.09 0.059 c 0 0.012 -0.039 0.023 -0.09 0.023 c -0.047 0 -0.09 -0.027 -0.09 -0.059 m -10.05 -0.563 c 0.004 -0.16 0.016 -0.219 0.027 -0.129 c 0.016 0.086 0.016 0.219 0 0.293 c -0.016 0.074 -0.027 0 -0.027 -0.164 m 12.992 -1.707 c -0.012 -0.012 -0.363 -0.066 -0.777 -0.117 c -0.543 -0.066 -0.969 -0.168 -1.535 -0.355 c -0.43 -0.141 -0.918 -0.277 -1.086 -0.301 c -0.406 -0.055 -0.512 -0.117 -0.512 -0.305 c 0 -0.09 -0.07 -0.297 -0.16 -0.461 c -0.195 -0.367 -0.164 -0.496 0.125 -0.496 c 0.164 0 0.242 -0.043 0.359 -0.191 l 0.152 -0.188 l 0.063 0.164 c 0.035 0.09 0.066 0.266 0.066 0.391 c 0 0.234 0.23 0.59 0.387 0.59 c 0.043 0 0.148 0.055 0.234 0.121 c 0.293 0.227 0.371 -0.012 0.156 -0.473 c -0.066 -0.148 -0.168 -0.313 -0.219 -0.371 c -0.09 -0.094 -0.086 -0.121 0.016 -0.309 c 0.09 -0.16 0.125 -0.188 0.164 -0.117 c 0.027 0.047 0.102 0.086 0.164 0.086 c 0.129 0 0.18 -0.223 0.109 -0.492 c -0.023 -0.094 -0.027 -0.281 -0.012 -0.418 c 0.027 -0.176 0 -0.355 -0.09 -0.602 c -0.16 -0.445 -0.16 -0.531 0.004 -0.57 c 0.164 -0.043 0.652 0.219 0.691 0.367 c 0.016 0.055 0.102 0.129 0.191 0.16 c 0.129 0.051 0.176 0.121 0.234 0.371 c 0.051 0.211 0.055 0.348 0.016 0.422 c -0.035 0.059 -0.059 0.191 -0.059 0.297 c 0 0.184 0.004 0.188 0.094 0.078 c 0.09 -0.105 0.094 -0.094 0.063 0.168 c -0.023 0.191 -0.008 0.328 0.047 0.414 c 0.047 0.07 0.121 0.285 0.16 0.473 c 0.043 0.188 0.102 0.355 0.129 0.371 c 0.027 0.016 0.051 0.105 0.051 0.195 c 0 0.141 0.023 0.168 0.164 0.168 c 0.09 0 0.199 -0.023 0.234 -0.055 c 0.094 -0.074 0.305 0.055 0.344 0.207 c 0.023 0.082 0.066 0.105 0.164 0.078 c 0.191 -0.047 0.352 0.164 0.355 0.477 v 0.25 h -0.23 c -0.125 0 -0.242 -0.012 -0.258 -0.027 m -2.785 -2.902 c -0.066 -0.066 -0.043 -0.137 0.051 -0.137 c 0.051 0 0.09 0.023 0.09 0.055 c 0 0.074 -0.094 0.129 -0.141 0.082 m -1.777 -2.555 c -0.18 -0.129 -0.363 -0.234 -0.41 -0.234 c -0.047 0 -0.164 -0.059 -0.262 -0.129 c -0.219 -0.156 -0.164 -0.289 0.172 -0.422 c 0.477 -0.188 0.922 0.098 0.902 0.574 c -0.008 0.133 0 0.277 0.012 0.32 c 0.055 0.164 -0.102 0.121 -0.414 -0.109 m 2.754 -1.203 c -0.121 -0.047 -0.5 -0.113 -0.844 -0.148 c -0.344 -0.035 -0.773 -0.102 -0.953 -0.141 l -0.328 -0.078 l -0.074 -0.379 c -0.145 -0.742 -0.121 -0.781 0.484 -0.801 c 0.25 -0.004 0.813 -0.043 1.254 -0.082 c 0.441 -0.043 0.938 -0.078 1.102 -0.086 c 0.168 -0.008 0.598 -0.059 0.961 -0.109 c 0.363 -0.055 0.668 -0.098 0.68 -0.098 c 0.008 0 0.02 0.254 0.02 0.559 v 0.559 l -0.18 -0.035 c -0.098 -0.02 -0.363 0.008 -0.586 0.059 c -0.332 0.078 -2.043 0.277 -2.355 0.277 c -0.129 -0.004 -0.082 0.086 0.102 0.191 c 0.129 0.074 0.313 0.102 0.684 0.102 c 0.281 0 0.656 0.027 0.836 0.063 c 0.176 0.031 0.457 0.043 0.625 0.023 c 0.262 -0.035 0.34 -0.078 0.586 -0.336 l 0.289 -0.293 v 0.234 c 0 0.258 0.012 0.25 -0.633 0.453 c -0.426 0.137 -1.387 0.172 -1.668 0.066 m 1.023 -0.977 c 0.113 -0.094 0.188 -0.195 0.164 -0.23 c -0.066 -0.105 -0.301 -0.074 -0.383 0.051 c -0.039 0.066 -0.113 0.121 -0.164 0.121 c -0.09 0 -0.121 0.125 -0.051 0.195 c 0.082 0.078 0.238 0.031 0.434 -0.137 m -5.188 -0.156 c -0.094 -0.047 -0.191 -0.07 -0.223 -0.055 c -0.094 0.059 -0.137 -0.086 -0.055 -0.184 c 0.059 -0.07 0.141 -0.082 0.344 -0.055 c 0.164 0.023 0.301 0.008 0.352 -0.031 c 0.098 -0.082 0.109 -0.07 0.164 0.141 c 0.031 0.137 0.02 0.16 -0.086 0.16 c -0.07 0 -0.172 0.027 -0.23 0.055 c -0.066 0.035 -0.156 0.023 -0.266 -0.031 m 2.156 -0.613 c -0.051 -0.074 0.031 -0.074 0.148 0 c 0.078 0.051 0.078 0.059 -0.012 0.059 c -0.055 0 -0.117 -0.023 -0.137 -0.059 m 4.168 -0.926 c -0.016 -0.383 -0.039 -0.762 -0.051 -0.84 c -0.016 -0.105 0.008 -0.152 0.098 -0.168 c 0.102 -0.02 0.109 -0.012 0.039 0.07 c -0.047 0.055 -0.055 0.098 -0.02 0.098 c 0.035 0 0.063 0.289 0.07 0.766 c 0.008 0.977 -0.102 1.035 -0.137 0.074 m -3.613 0.477 c -0.023 -0.023 -0.043 -0.063 -0.043 -0.094 c 0 -0.07 0.301 -0.031 0.316 0.043 c 0.016 0.07 -0.215 0.113 -0.273 0.051 m 1.398 -0.074 c -0.27 -0.082 -0.426 -0.207 -0.543 -0.43 c -0.113 -0.211 -0.113 -0.223 -0.004 -0.457 c 0.063 -0.137 0.219 -0.32 0.352 -0.418 c 0.289 -0.207 0.797 -0.332 0.973 -0.238 c 0.066 0.035 0.176 0.063 0.238 0.063 c 0.137 0 0.422 0.207 0.363 0.266 c -0.02 0.02 -0.121 -0.004 -0.223 -0.055 c -0.352 -0.18 -1.113 -0.059 -1.191 0.191 c -0.016 0.055 -0.055 0.145 -0.086 0.199 c -0.094 0.176 0.043 0.398 0.32 0.52 c 0.301 0.137 0.477 0.145 0.777 0.043 c 0.297 -0.102 0.402 -0.199 0.461 -0.418 c 0.027 -0.102 0.074 -0.18 0.105 -0.172 c 0.102 0.02 0.098 0.184 -0.012 0.406 c -0.078 0.164 -0.176 0.246 -0.41 0.348 c -0.344 0.148 -0.891 0.223 -1.121 0.152 m -2.285 -0.184 c 0 -0.031 0.023 -0.059 0.055 -0.059 c 0.031 0 0.074 0.027 0.094 0.059 c 0.02 0.035 -0.004 0.059 -0.055 0.059 c -0.055 0 -0.094 -0.023 -0.094 -0.059 m 0.523 -0.008 c -0.125 -0.066 -0.137 -0.168 -0.02 -0.168 c 0.102 0 0.242 0.156 0.176 0.195 c -0.027 0.016 -0.098 0.004 -0.156 -0.027 m -0.547 -0.262 c -0.023 -0.051 -0.039 -0.141 -0.039 -0.203 c 0 -0.098 0.02 -0.094 0.152 0.039 c 0.152 0.148 0.152 0.258 0.004 0.258 c -0.047 0 -0.098 -0.043 -0.117 -0.094 m -0.863 -0.133 c -0.117 -0.188 0.004 -0.266 0.152 -0.098 c 0.156 0.18 0.16 0.207 0.023 0.207 c -0.059 0 -0.137 -0.051 -0.176 -0.109 m 0.68 -1.164 c -0.051 -0.137 -0.043 -0.203 0.027 -0.203 c 0.035 0 0.047 0.027 0.027 0.063 c -0.02 0.031 -0.008 0.059 0.027 0.059 c 0.035 0 0.063 0.039 0.063 0.086 c 0 0.117 -0.098 0.113 -0.145 -0.004 m 0.266 -0.141 c 0 -0.035 0.027 -0.063 0.059 -0.063 c 0.035 0 0.063 0.027 0.063 0.063 c 0 0.031 -0.027 0.059 -0.063 0.059 c -0.031 0 -0.059 -0.027 -0.059 -0.059" fill="#6e8e3f"/><path d="m 5.633 19.352 c 0.066 -0.121 0.117 -0.297 0.117 -0.391 c 0 -0.223 -0.125 -0.629 -0.191 -0.629 c -0.027 0 -0.051 -1.234 -0.051 -2.738 c 0 -2.133 0.016 -2.742 0.074 -2.766 c 0.063 -0.023 0.063 -0.031 0 -0.035 c -0.105 -0.008 -0.105 -1.574 0 -1.617 c 0.063 -0.023 0.063 -0.031 0 -0.035 c -0.059 -0.004 -0.074 -0.523 -0.074 -2.391 v -2.391 h 4.09 l 0.031 0.25 c 0.016 0.141 0.047 0.387 0.066 0.547 c 0.02 0.164 0.086 0.441 0.148 0.621 c 0.113 0.32 0.113 0.32 0.18 0.156 c 0.082 -0.211 0.082 -0.336 0 -0.336 c -0.039 0 -0.047 -0.102 -0.023 -0.277 c 0.023 -0.195 0.008 -0.352 -0.063 -0.508 c -0.133 -0.309 -0.063 -0.379 0.375 -0.363 c 0.191 0.004 0.395 -0.02 0.453 -0.055 c 0.074 -0.047 0.137 -0.043 0.219 0.008 c 0.063 0.039 0.133 0.051 0.156 0.027 c 0.074 -0.07 0.512 -0.051 0.449 0.023 c -0.031 0.039 -0.02 0.109 0.035 0.188 c 0.07 0.094 0.074 0.137 0.02 0.168 c -0.043 0.027 -0.109 -0.008 -0.16 -0.086 c -0.094 -0.141 -0.371 -0.176 -0.371 -0.043 c 0 0.043 0.039 0.113 0.09 0.156 c 0.066 0.051 0.074 0.094 0.031 0.137 c -0.035 0.031 -0.063 0.137 -0.063 0.23 c 0 0.164 0.008 0.168 0.137 0.09 c 0.102 -0.066 0.254 -0.078 0.648 -0.051 c 0.512 0.035 0.512 0.074 0 0.152 c -0.328 0.051 -0.73 0.215 -0.836 0.34 c -0.105 0.125 -0.043 0.402 0.137 0.594 c 0.297 0.313 1.336 0.254 1.672 -0.094 c 0.184 -0.188 0.23 -0.203 0.23 -0.07 c 0 0.055 -0.121 0.207 -0.273 0.348 c -0.23 0.215 -0.32 0.258 -0.605 0.289 c -0.188 0.023 -0.465 0.023 -0.617 0.004 c -0.238 -0.031 -0.301 -0.02 -0.395 0.086 c -0.109 0.117 -0.109 0.129 -0.012 0.238 c 0.059 0.063 0.137 0.102 0.18 0.086 c 0.074 -0.027 0.578 0.32 0.578 0.402 c 0 0.066 -0.086 0.055 -0.164 -0.023 c -0.039 -0.035 -0.172 -0.082 -0.301 -0.105 c -0.137 -0.023 -0.223 -0.07 -0.211 -0.113 c 0.012 -0.047 -0.012 -0.059 -0.063 -0.027 c -0.094 0.059 -0.352 0.031 -0.445 -0.047 c -0.043 -0.035 -0.086 -0.035 -0.105 0 c -0.074 0.117 -0.352 0.113 -0.473 -0.004 c -0.195 -0.191 -0.266 -0.055 -0.18 0.355 c 0.039 0.188 0.074 0.438 0.074 0.551 c 0 0.316 0.09 0.355 0.746 0.336 c 0.313 -0.012 0.586 -0.004 0.602 0.012 c 0.02 0.016 -0.008 0.105 -0.055 0.199 c -0.121 0.223 -0.117 0.227 0.133 0.199 c 0.203 -0.023 0.246 0 0.656 0.41 c 0.242 0.242 0.426 0.473 0.41 0.516 c -0.016 0.039 -0.184 0.102 -0.371 0.133 c -0.641 0.113 -1 0.238 -1.098 0.379 c -0.047 0.074 -0.195 0.23 -0.324 0.344 c -0.133 0.113 -0.336 0.293 -0.453 0.402 l -0.215 0.195 l 0.168 0.145 c 0.152 0.129 0.164 0.16 0.109 0.332 c -0.059 0.195 -0.055 0.547 0.008 0.613 c 0.055 0.051 0.164 -0.035 0.164 -0.129 c 0 -0.059 0.066 -0.086 0.211 -0.086 c 0.207 0 0.344 -0.129 0.289 -0.273 c -0.012 -0.039 0.004 -0.086 0.039 -0.105 c 0.039 -0.023 0.063 0.012 0.063 0.082 c 0 0.066 0.027 0.121 0.063 0.121 c 0.078 0 0.25 0.406 0.203 0.48 c -0.02 0.031 0.023 0.109 0.09 0.176 c 0.07 0.063 0.129 0.172 0.129 0.242 c 0 0.07 0.066 0.184 0.152 0.25 c 0.133 0.105 0.145 0.141 0.094 0.305 c -0.047 0.16 -0.035 0.207 0.078 0.309 c 0.074 0.07 0.18 0.125 0.234 0.125 c 0.117 0 0.379 0.344 0.309 0.41 c -0.031 0.027 -0.313 0.117 -0.625 0.203 c -0.316 0.086 -0.723 0.246 -0.906 0.355 c -0.559 0.332 -0.934 0.5 -1.426 0.629 c -0.258 0.07 -0.605 0.211 -0.773 0.313 c -0.164 0.102 -0.375 0.219 -0.465 0.258 c -0.203 0.086 -0.223 0.25 -0.031 0.25 c 0.285 0 2.188 -0.66 2.477 -0.859 c 0.07 -0.047 0.16 -0.086 0.203 -0.086 c 0.105 0 0.098 0.207 -0.012 0.297 c -0.051 0.039 -0.094 0.109 -0.094 0.156 c 0 0.043 -0.059 0.105 -0.137 0.133 c -0.168 0.063 -0.313 0.316 -0.262 0.449 c 0.031 0.082 0.059 0.086 0.129 0.027 c 0.051 -0.039 0.164 -0.059 0.254 -0.043 c 0.09 0.02 0.273 -0.012 0.406 -0.063 c 0.363 -0.137 1.121 -0.664 1.184 -0.82 c 0.027 -0.074 0.121 -0.164 0.211 -0.195 c 0.086 -0.031 0.168 -0.109 0.188 -0.172 c 0.055 -0.211 0.984 -0.316 1.555 -0.176 c 0.172 0.043 0.363 0.156 0.551 0.332 c 0.328 0.301 1.293 0.777 2.191 1.082 c 0.504 0.168 0.645 0.191 1.188 0.191 c 0.617 -0.004 0.617 -0.004 0.617 0.141 c 0 0.109 -0.023 0.137 -0.105 0.113 c -0.492 -0.141 -0.629 -0.152 -1.223 -0.094 c -0.625 0.063 -2.02 0.078 -2.105 0.027 c -0.078 -0.047 -0.75 0.113 -0.801 0.191 c -0.039 0.059 -0.074 0.063 -0.129 0.02 c -0.055 -0.047 -0.16 -0.039 -0.371 0.023 c -0.395 0.117 -0.891 0.117 -0.988 0 c -0.043 -0.051 -0.121 -0.074 -0.176 -0.059 c -0.059 0.016 -0.156 -0.008 -0.219 -0.055 c -0.156 -0.117 -0.598 -0.113 -0.965 0.004 c -0.441 0.145 -0.59 0.387 -0.305 0.492 c 0.426 0.16 0.152 0.176 -2.938 0.18 h -3.16 m 4.172 -2.914 c 0.023 -0.082 -0.137 -0.469 -0.473 -1.156 c -0.277 -0.566 -0.578 -1.27 -0.668 -1.563 c -0.09 -0.293 -0.254 -0.723 -0.367 -0.961 c -0.187 -0.398 -0.215 -0.43 -0.371 -0.414 c -0.141 0.016 -0.203 0.09 -0.414 0.504 c -0.605 1.18 -0.57 2.504 0.082 3.195 c 0.145 0.152 0.254 0.234 0.258 0.184 c 0 -0.051 0.066 -0.121 0.148 -0.156 c 0.121 -0.055 0.164 -0.047 0.25 0.043 c 0.055 0.063 0.141 0.113 0.191 0.113 c 0.051 0 0.141 0.043 0.203 0.098 c 0.102 0.09 0.109 0.09 0.109 0 c 0 -0.055 0.012 -0.098 0.023 -0.098 c 0.082 0 0.453 0.184 0.516 0.258 c 0.117 0.141 0.469 0.105 0.512 -0.047 m 1.391 -0.863 c 0.059 -0.184 -0.141 -0.707 -0.27 -0.707 c -0.137 0 -0.305 0.246 -0.305 0.441 c 0 0.121 0.031 0.148 0.156 0.148 c 0.105 0 0.168 0.039 0.188 0.121 c 0.043 0.152 0.18 0.152 0.23 -0.004 m -1.02 -1.398 c 0.047 -0.055 0.082 -0.164 0.082 -0.238 c 0.004 -0.074 0.047 -0.199 0.102 -0.277 c 0.09 -0.137 0.09 -0.148 -0.004 -0.148 c -0.055 0 -0.117 0.047 -0.137 0.105 c -0.023 0.055 -0.074 0.129 -0.117 0.16 c -0.109 0.086 -0.176 0.504 -0.078 0.504 c 0.039 0 0.109 -0.047 0.152 -0.105 m 0.93 -0.043 c 0 -0.051 -0.027 -0.09 -0.063 -0.09 c -0.031 0 -0.059 0.039 -0.059 0.09 c 0 0.047 0.027 0.086 0.059 0.086 c 0.035 0 0.063 -0.039 0.063 -0.086 m -3.824 -2.273 c 0.063 -0.098 -0.027 -0.352 -0.121 -0.352 c -0.051 0 -0.117 -0.055 -0.156 -0.121 c -0.043 -0.082 -0.102 -0.109 -0.18 -0.086 c -0.066 0.02 -0.152 0.016 -0.191 -0.008 c -0.043 -0.027 -0.113 -0.051 -0.16 -0.059 c -0.043 -0.008 -0.125 -0.055 -0.184 -0.105 c -0.117 -0.105 -0.305 -0.125 -0.305 -0.031 c 0 0.031 0.063 0.082 0.145 0.113 c 0.078 0.027 0.18 0.105 0.227 0.172 c 0.047 0.063 0.156 0.148 0.242 0.188 c 0.086 0.039 0.176 0.133 0.195 0.211 c 0.027 0.113 0.074 0.141 0.242 0.141 c 0.113 0 0.223 -0.031 0.246 -0.063 m 3.824 -0.258 c 0 -0.098 -0.109 -0.184 -0.164 -0.133 c -0.047 0.051 0.027 0.215 0.102 0.215 c 0.035 0 0.063 -0.039 0.063 -0.082 m -3.738 -2.633 c 0 -0.121 -0.125 -0.293 -0.211 -0.293 c -0.105 0 -0.113 0.082 -0.027 0.242 c 0.066 0.121 0.238 0.156 0.238 0.051 m 0.309 -0.191 c -0.047 -0.047 -0.066 -0.031 -0.066 0.055 c 0 0.156 0.086 0.238 0.109 0.109 c 0.012 -0.055 -0.008 -0.129 -0.043 -0.164 m 0.082 -0.805 c 0.105 -0.113 0.102 -0.125 -0.133 -0.355 c -0.191 -0.188 -0.285 -0.238 -0.457 -0.238 c -0.172 0 -0.211 0.023 -0.207 0.113 c 0.008 0.066 0.094 0.152 0.211 0.207 c 0.145 0.066 0.195 0.129 0.195 0.242 c 0 0.113 0.031 0.148 0.141 0.148 c 0.078 0 0.191 -0.055 0.25 -0.117 m -1.176 -0.336 c 0.152 -0.254 0.129 -0.297 -0.113 -0.199 c -0.184 0.074 -0.285 0.242 -0.215 0.355 c 0.074 0.117 0.199 0.055 0.328 -0.156 m 4.266 -0.184 c 0.016 -0.039 -0.02 -0.074 -0.07 -0.074 c -0.055 0 -0.113 -0.039 -0.133 -0.086 c -0.043 -0.113 -0.121 -0.113 -0.164 -0.004 c -0.02 0.047 0.008 0.129 0.063 0.18 c 0.105 0.105 0.266 0.098 0.305 -0.016 m 0.195 -0.375 c 0 -0.086 -0.102 -0.059 -0.141 0.035 c -0.023 0.055 -0.004 0.074 0.055 0.051 c 0.047 -0.02 0.086 -0.055 0.086 -0.086 m -5.41 11.711 c 0 -0.098 0.016 -0.129 0.031 -0.07 c 0.016 0.055 0.012 0.137 -0.004 0.176 c -0.016 0.039 -0.027 -0.008 -0.027 -0.105 m 12.402 -1.887 c -0.766 -0.105 -1.148 -0.191 -1.664 -0.375 c -0.367 -0.129 -0.801 -0.25 -0.965 -0.273 c -0.16 -0.02 -0.383 -0.066 -0.492 -0.098 c -0.168 -0.051 -0.195 -0.086 -0.195 -0.25 c 0 -0.105 -0.055 -0.301 -0.121 -0.434 c -0.16 -0.328 -0.152 -0.367 0.082 -0.367 c 0.133 0 0.246 -0.047 0.336 -0.145 c 0.191 -0.195 0.305 -0.137 0.309 0.164 c 0.004 0.355 0.168 0.648 0.371 0.656 c 0.09 0.004 0.215 0.055 0.285 0.113 c 0.133 0.117 0.305 0.09 0.305 -0.047 c 0 -0.137 -0.238 -0.699 -0.344 -0.816 c -0.129 -0.141 -0.051 -0.199 0.164 -0.121 c 0.211 0.078 0.316 -0.012 0.41 -0.348 c 0.047 -0.172 0.039 -0.242 -0.035 -0.348 c -0.078 -0.109 -0.082 -0.172 -0.016 -0.43 c 0.043 -0.168 0.105 -0.336 0.137 -0.375 c 0.094 -0.113 0.316 -0.09 0.441 0.047 c 0.063 0.066 0.16 0.109 0.215 0.094 c 0.129 -0.031 0.203 0.211 0.113 0.371 c -0.031 0.063 -0.059 0.199 -0.059 0.305 c 0 0.184 0.004 0.188 0.086 0.078 c 0.109 -0.141 0.113 -0.105 0.035 0.559 c -0.066 0.539 -0.035 0.773 0.094 0.773 c 0.051 0 0.086 0.059 0.086 0.141 c 0 0.195 0.094 0.242 0.152 0.078 c 0.043 -0.121 0.047 -0.117 0.07 0.051 c 0.02 0.156 0.051 0.188 0.188 0.188 c 0.09 0 0.191 -0.023 0.23 -0.055 c 0.094 -0.074 0.305 0.055 0.344 0.207 c 0.023 0.082 0.066 0.102 0.164 0.078 c 0.191 -0.051 0.352 0.164 0.355 0.477 c 0 0.137 -0.02 0.246 -0.043 0.242 c -0.027 0 -0.492 -0.066 -1.039 -0.141 m -0.805 -2.871 c -0.02 -0.047 -0.031 -0.031 -0.035 0.035 c -0.004 0.063 0.012 0.098 0.031 0.078 c 0.02 -0.02 0.023 -0.07 0.004 -0.113 m -4.277 2.01 c -0.016 -0.043 -0.051 -0.184 -0.086 -0.316 c -0.031 -0.129 -0.078 -0.277 -0.102 -0.332 c -0.035 -0.078 0.016 -0.102 0.277 -0.133 c 0.176 -0.023 0.391 -0.078 0.473 -0.121 c 0.148 -0.082 0.148 -0.078 0.211 0.223 c 0.043 0.223 0.086 0.301 0.152 0.289 c 0.051 -0.008 0.188 0.078 0.297 0.195 l 0.207 0.203 h -0.516 c -0.285 0 -0.602 0.02 -0.707 0.039 c -0.129 0.023 -0.191 0.012 -0.207 -0.047 m 0.02 -1.066 c -0.211 -0.105 -0.277 -0.176 -0.32 -0.34 c -0.09 -0.352 -0.023 -0.789 0.156 -0.996 c 0.086 -0.102 0.172 -0.234 0.191 -0.297 c 0.035 -0.102 0.059 -0.105 0.246 -0.043 c 0.238 0.082 0.594 0.391 0.723 0.633 c 0.051 0.094 0.105 0.285 0.125 0.422 c 0.035 0.238 0.023 0.262 -0.195 0.434 c -0.461 0.363 -0.543 0.379 -0.926 0.188 m 2.871 -0.852 c -0.07 -0.066 -0.043 -0.137 0.051 -0.137 c 0.051 0 0.09 0.023 0.09 0.055 c 0 0.074 -0.094 0.129 -0.141 0.082 m -4.453 -0.934 c 0.027 -0.148 0.117 -0.242 0.172 -0.188 c 0.016 0.016 0.012 0.098 -0.012 0.184 c -0.051 0.199 -0.199 0.207 -0.16 0.004 m 5.695 0.074 c 0.012 -0.039 0.059 -0.074 0.105 -0.074 c 0.043 0 0.09 0.035 0.105 0.074 c 0.012 0.043 -0.027 0.074 -0.105 0.074 c -0.078 0 -0.121 -0.031 -0.105 -0.074 m -0.695 -0.047 c -0.059 -0.035 -0.105 -0.125 -0.105 -0.199 c 0 -0.125 0.035 -0.141 0.277 -0.16 c 0.305 -0.023 0.445 0.063 0.297 0.184 c -0.051 0.043 -0.09 0.113 -0.09 0.156 c 0 0.094 -0.223 0.105 -0.379 0.02 m -5.633 -0.113 c 0.02 -0.063 0.004 -0.121 -0.027 -0.133 c -0.035 -0.012 -0.02 -0.055 0.035 -0.098 c 0.082 -0.07 0.098 -0.066 0.098 0.016 c 0 0.051 0.027 0.094 0.059 0.094 c 0.035 0 0.063 0.055 0.063 0.121 c 0 0.078 -0.043 0.117 -0.129 0.117 c -0.098 0 -0.121 -0.027 -0.098 -0.117 m 0.316 -0.355 c 0.02 -0.031 0.051 -0.059 0.063 -0.059 c 0.016 0 0.027 0.027 0.027 0.059 c 0 0.031 -0.027 0.059 -0.063 0.059 c -0.035 0 -0.047 -0.027 -0.027 -0.059 m 2.98 -1.297 c -0.117 -0.094 -0.262 -0.176 -0.328 -0.176 c -0.137 -0.008 -0.395 -0.195 -0.395 -0.289 c 0 -0.086 0.324 -0.242 0.496 -0.242 c 0.074 0 0.227 0.051 0.336 0.117 c 0.195 0.117 0.195 0.125 0.156 0.43 c -0.02 0.168 -0.043 0.313 -0.051 0.32 c -0.004 0.008 -0.102 -0.063 -0.215 -0.16 m -3.59 -1.445 c -0.02 -0.047 -0.012 -0.188 0.02 -0.309 c 0.063 -0.262 0.195 -0.309 0.469 -0.172 c 0.098 0.051 0.309 0.148 0.469 0.211 c 0.156 0.066 0.285 0.145 0.285 0.172 c 0 0.031 -0.152 0.074 -0.34 0.098 c -0.281 0.031 -0.352 0.023 -0.395 -0.055 c -0.074 -0.129 -0.211 -0.117 -0.289 0.027 c -0.078 0.137 -0.172 0.152 -0.219 0.027 m 8.414 0.039 c 0 -0.027 0.055 -0.098 0.117 -0.156 c 0.121 -0.105 0.121 -0.102 0.121 0.051 c 0 0.117 -0.027 0.156 -0.121 0.156 c -0.063 0 -0.117 -0.023 -0.117 -0.051 m -3.906 -0.066 c -0.109 -0.027 -0.207 -0.059 -0.215 -0.07 c -0.059 -0.078 -0.16 -0.543 -0.16 -0.738 v -0.238 l 0.738 -0.043 c 1.867 -0.109 2.348 -0.148 2.938 -0.258 c 0.348 -0.063 0.684 -0.133 0.738 -0.156 c 0.098 -0.039 0.105 0 0.105 0.406 c 0 0.402 -0.012 0.445 -0.117 0.445 c -0.063 0 -0.133 0.027 -0.152 0.063 c -0.02 0.031 -0.082 0.059 -0.141 0.059 c -0.055 0 -0.184 0.043 -0.281 0.094 c -0.219 0.113 -1.48 0.258 -2.262 0.258 c -0.66 0.004 -0.863 0.039 -0.816 0.156 c 0.035 0.09 -0.063 0.094 -0.375 0.023 m 2.871 -0.59 c 0.113 -0.094 0.184 -0.199 0.164 -0.234 c -0.066 -0.105 -0.301 -0.07 -0.383 0.055 c -0.039 0.066 -0.113 0.117 -0.164 0.117 c -0.09 0 -0.121 0.125 -0.051 0.199 c 0.082 0.078 0.238 0.031 0.434 -0.137 m -7.01 -0.121 c -0.02 -0.031 -0.008 -0.059 0.023 -0.059 c 0.035 0 0.078 0.027 0.098 0.059 c 0.02 0.035 0.012 0.059 -0.023 0.059 c -0.031 0 -0.074 -0.023 -0.098 -0.059 m 1.566 -0.176 c -0.055 -0.086 0.078 -0.117 0.438 -0.102 c 0.207 0.008 0.316 0.039 0.316 0.086 c 0 0.094 -0.695 0.105 -0.754 0.016 m 6.605 -1.504 c 0.004 -0.406 0.027 -0.738 0.055 -0.738 c 0.023 0 0.047 0.332 0.043 0.738 c 0 0.406 -0.023 0.738 -0.055 0.738 c -0.027 0 -0.047 -0.332 -0.043 -0.738 m -2.242 0.449 c -0.656 -0.211 -0.738 -0.805 -0.164 -1.207 c 0.242 -0.172 0.715 -0.285 0.844 -0.207 c 0.055 0.035 0.035 0.051 -0.07 0.051 c -0.223 0.004 -0.66 0.215 -0.699 0.336 c -0.016 0.059 -0.059 0.156 -0.09 0.211 c -0.094 0.172 0.063 0.41 0.363 0.559 c 0.316 0.156 0.566 0.168 0.879 0.043 c 0.332 -0.137 0.336 -0.051 0.004 0.094 c -0.32 0.141 -0.828 0.195 -1.063 0.121 m -5.355 -0.262 c -0.004 -0.125 0.098 -0.336 0.168 -0.336 c 0.027 0 0.047 0.039 0.047 0.086 c 0 0.047 -0.027 0.082 -0.059 0.074 c -0.031 -0.008 -0.078 0.055 -0.105 0.137 c -0.031 0.102 -0.047 0.113 -0.051 0.039 m 0.156 -1.012 c -0.059 -0.043 -0.082 -0.094 -0.051 -0.113 c 0.031 -0.02 0.09 0.008 0.133 0.055 c 0.102 0.121 0.055 0.156 -0.082 0.059 m 1.941 -0.234 c -0.797 -0.113 -0.965 -0.152 -0.93 -0.207 c 0.02 -0.027 -0.016 -0.063 -0.07 -0.078 c -0.082 -0.02 -0.074 -0.031 0.027 -0.035 c 0.074 -0.004 0.137 0.02 0.137 0.051 c 0 0.09 0.219 0.07 0.32 -0.027 c 0.059 -0.055 0.188 -0.082 0.367 -0.074 c 0.234 0.008 0.258 0.02 0.152 0.074 c -0.152 0.082 -0.09 0.148 0.129 0.148 c 0.191 0 0.477 0.109 0.477 0.184 c 0 0.027 -0.02 0.047 -0.047 0.043 c -0.023 -0.004 -0.277 -0.039 -0.563 -0.078 m -1.59 -0.328 c 0.02 -0.031 0.09 -0.059 0.152 -0.059 c 0.066 0 0.117 0.027 0.117 0.059 c 0 0.035 -0.066 0.059 -0.152 0.059 c -0.09 0 -0.137 -0.023 -0.117 -0.059" fill="#b05f1c"/><path d="m 5.633 19.352 c 0.066 -0.121 0.117 -0.297 0.117 -0.391 c 0 -0.223 -0.125 -0.629 -0.191 -0.629 c -0.027 0 -0.051 -1.234 -0.051 -2.738 c 0 -2.133 0.016 -2.742 0.074 -2.766 c 0.063 -0.023 0.063 -0.031 0 -0.035 c -0.039 -0.004 -0.074 -0.059 -0.074 -0.121 c 0 -0.066 0.035 -0.121 0.074 -0.121 c 0.047 0 0.055 -0.016 0.016 -0.043 c -0.078 -0.055 -0.121 -1.074 -0.047 -1.074 c 0.031 0 0.141 0.086 0.246 0.191 c 0.262 0.266 0.379 0.355 0.574 0.441 c 0.203 0.09 0.742 0.098 0.797 0.012 c 0.063 -0.098 -0.027 -0.352 -0.121 -0.352 c -0.051 0 -0.117 -0.055 -0.156 -0.121 c -0.043 -0.082 -0.102 -0.109 -0.18 -0.086 c -0.066 0.023 -0.152 0.016 -0.191 -0.008 c -0.043 -0.027 -0.113 -0.051 -0.16 -0.059 c -0.043 -0.008 -0.125 -0.055 -0.184 -0.105 c -0.121 -0.105 -0.379 -0.121 -0.551 -0.031 c -0.09 0.047 -0.117 0.043 -0.117 -0.023 c 0 -0.047 0.035 -0.102 0.074 -0.117 c 0.063 -0.023 0.063 -0.031 0 -0.035 c -0.105 -0.004 -0.105 -1.691 0 -1.734 c 0.063 -0.023 0.063 -0.031 0 -0.035 c -0.059 -0.004 -0.074 -0.348 -0.074 -1.508 v -1.504 h 2.047 c 1.914 0 2.051 0.008 2.051 0.105 c 0.004 0.18 0.113 0.906 0.238 1.578 c 0.066 0.355 0.121 0.766 0.125 0.914 c 0 0.145 0.039 0.422 0.086 0.617 c 0.051 0.195 0.09 0.465 0.09 0.598 c 0.004 0.344 0.09 0.391 0.711 0.375 c 0.289 -0.008 0.566 -0.012 0.613 -0.008 c 0.152 0.016 -0.16 0.281 -0.414 0.355 c -0.617 0.18 -0.848 1.02 -0.273 0.996 c 0.234 -0.008 0.297 -0.152 0.09 -0.207 c -0.301 -0.074 0.043 -0.664 0.391 -0.664 c 0.23 0 0.578 0.16 0.801 0.367 c 0.117 0.113 0.195 0.152 0.195 0.105 c 0 -0.051 0.086 -0.004 0.207 0.113 c 0.113 0.105 0.191 0.227 0.176 0.27 c -0.016 0.039 -0.184 0.102 -0.371 0.133 c -0.879 0.156 -1.246 0.352 -2.16 1.148 c -0.48 0.422 -0.746 0.801 -0.742 1.063 c 0 0.133 0.094 0.328 0.133 0.277 c 0.012 -0.016 0.066 -0.102 0.125 -0.188 c 0.137 -0.215 0.223 -0.207 0.223 0.012 c 0 0.098 0.031 0.18 0.066 0.18 c 0.102 0 0.23 -0.188 0.23 -0.344 c 0.004 -0.141 0.293 -0.633 0.344 -0.582 c 0.02 0.02 0.004 0.121 -0.027 0.227 c -0.063 0.199 -0.059 0.551 0.004 0.617 c 0.055 0.051 0.164 -0.035 0.164 -0.129 c 0 -0.059 0.066 -0.086 0.211 -0.086 c 0.207 0 0.344 -0.129 0.293 -0.273 c -0.016 -0.039 0 -0.086 0.035 -0.109 c 0.039 -0.02 0.066 0.016 0.066 0.086 c 0 0.066 0.023 0.121 0.059 0.121 c 0.078 0 0.25 0.406 0.203 0.48 c -0.02 0.031 0.023 0.109 0.09 0.176 c 0.07 0.063 0.129 0.172 0.129 0.242 c 0 0.07 0.066 0.184 0.145 0.25 c 0.141 0.113 0.145 0.133 0.078 0.434 c -0.063 0.289 -0.059 0.324 0.051 0.402 c 0.066 0.047 0.176 0.07 0.246 0.055 c 0.082 -0.023 0.172 0.016 0.262 0.113 c 0.16 0.164 0.203 0.141 -0.57 0.355 c -0.297 0.082 -0.719 0.254 -0.934 0.383 c -0.59 0.344 -1 0.512 -1.598 0.648 c -0.621 0.145 -0.781 0.219 -1.01 0.461 c -0.348 0.363 -0.168 0.391 0.738 0.105 c 0.738 -0.234 1.531 -0.539 1.707 -0.66 c 0.07 -0.047 0.16 -0.086 0.203 -0.086 c 0.105 0 0.098 0.207 -0.012 0.297 c -0.051 0.039 -0.094 0.109 -0.094 0.156 c 0 0.043 -0.059 0.105 -0.137 0.133 c -0.168 0.063 -0.313 0.316 -0.262 0.449 c 0.031 0.082 0.059 0.086 0.129 0.027 c 0.051 -0.039 0.164 -0.059 0.254 -0.043 c 0.09 0.02 0.273 -0.012 0.406 -0.063 c 0.363 -0.137 1.121 -0.664 1.184 -0.82 c 0.027 -0.074 0.125 -0.164 0.211 -0.195 c 0.086 -0.035 0.172 -0.109 0.188 -0.172 c 0.055 -0.211 0.984 -0.316 1.555 -0.176 c 0.172 0.043 0.363 0.156 0.551 0.332 c 0.328 0.301 1.293 0.777 2.191 1.082 c 0.504 0.168 0.645 0.191 1.188 0.191 c 0.617 -0.004 0.617 -0.004 0.617 0.141 c 0 0.109 -0.023 0.137 -0.105 0.113 c -0.492 -0.141 -0.629 -0.152 -1.223 -0.094 c -0.625 0.063 -2.02 0.078 -2.105 0.027 c -0.078 -0.047 -0.75 0.113 -0.801 0.191 c -0.039 0.059 -0.074 0.063 -0.129 0.02 c -0.055 -0.047 -0.16 -0.039 -0.371 0.023 c -0.395 0.117 -0.891 0.117 -0.988 0 c -0.043 -0.051 -0.121 -0.074 -0.176 -0.059 c -0.055 0.016 -0.156 -0.008 -0.219 -0.055 c -0.156 -0.117 -0.598 -0.113 -0.965 0.004 c -0.441 0.141 -0.59 0.387 -0.305 0.492 c 0.426 0.156 0.152 0.176 -2.938 0.176 l -3.16 0.004 m 2.699 -2.766 c 0 -0.063 0.031 -0.063 0.148 0.016 c 0.145 0.094 0.234 0.086 0.508 -0.043 c 0.121 -0.059 0.16 -0.043 0.285 0.098 c 0.203 0.234 0.379 0.195 0.484 -0.105 l 0.086 -0.234 l -0.508 -1.031 c -0.281 -0.57 -0.582 -1.273 -0.672 -1.566 c -0.09 -0.293 -0.254 -0.723 -0.363 -0.957 c -0.172 -0.367 -0.223 -0.43 -0.352 -0.43 c -0.289 0 -0.652 0.672 -0.891 1.641 c -0.102 0.41 -0.121 0.633 -0.094 1.102 c 0.031 0.621 0.172 1.094 0.32 1.094 c 0.047 0 0.16 0.117 0.25 0.266 c 0.16 0.254 0.254 0.332 0.254 0.199 c 0 -0.035 0.07 -0.008 0.156 0.059 c 0.129 0.098 0.176 0.105 0.273 0.047 c 0.063 -0.039 0.113 -0.105 0.113 -0.152 m 2.5 -0.891 c 0.023 -0.035 0.102 -0.043 0.18 -0.027 c 0.203 0.051 0.246 -0.141 0.121 -0.508 c -0.082 -0.242 -0.125 -0.293 -0.227 -0.281 c -0.148 0.023 -0.398 0.469 -0.402 0.711 c 0 0.133 0.023 0.164 0.145 0.164 c 0.082 0 0.164 -0.027 0.184 -0.059 m 0.273 -1.563 c 0 -0.051 -0.027 -0.09 -0.063 -0.09 c -0.031 0 -0.059 0.039 -0.059 0.09 c 0 0.047 0.027 0.086 0.059 0.086 c 0.035 0 0.063 -0.039 0.063 -0.086 m -1.445 -1.27 c 0 -0.102 -0.117 -0.063 -0.184 0.063 c -0.063 0.113 -0.059 0.117 0.059 0.059 c 0.066 -0.035 0.125 -0.09 0.125 -0.121 m -1.145 -0.855 c 0.063 -0.074 0.059 -0.082 -0.023 -0.055 c -0.055 0.023 -0.098 0.063 -0.098 0.09 c 0 0.078 0.035 0.066 0.121 -0.035 m 0.367 -0.246 c 0.074 -0.086 0.07 -0.09 -0.055 -0.027 c -0.137 0.074 -0.172 0.129 -0.082 0.129 c 0.031 0 0.09 -0.047 0.137 -0.102 m -0.762 -1.371 c 0.102 -0.023 0.18 -0.07 0.18 -0.105 c 0 -0.031 0.07 -0.117 0.152 -0.184 c 0.133 -0.105 0.141 -0.129 0.059 -0.203 c -0.137 -0.133 -0.652 -0.277 -0.977 -0.277 c -0.41 0 -0.824 0.184 -0.828 0.367 c 0 0.07 0.313 0.207 0.586 0.25 c 0.141 0.023 0.258 0.066 0.258 0.094 c 0 0.031 -0.027 0.055 -0.063 0.055 c -0.031 0 -0.059 0.023 -0.059 0.055 c 0 0.055 0.359 0.027 0.691 -0.051 m -1.598 -0.063 c -0.117 -0.074 -0.316 -0.074 -0.27 0 c 0.02 0.031 0.109 0.059 0.199 0.059 c 0.129 0 0.145 -0.016 0.07 -0.059 m 1.176 -1.238 h 0.195 l -0.098 -0.203 c -0.133 -0.281 -0.246 -0.316 -0.25 -0.074 l -0.004 0.188 l -0.172 -0.199 c -0.199 -0.227 -0.406 -0.223 -0.34 0.008 c 0.02 0.074 0.035 0.164 0.035 0.203 c 0 0.074 0.219 0.137 0.352 0.098 c 0.047 -0.012 0.172 -0.02 0.281 -0.02 m -0.488 -1.012 c -0.059 -0.063 -0.195 -0.168 -0.305 -0.234 c -0.207 -0.125 -0.27 -0.285 -0.105 -0.285 c 0.051 0 0.199 0.051 0.328 0.117 c 0.184 0.09 0.238 0.156 0.238 0.266 c 0 0.113 0.031 0.145 0.145 0.145 c 0.078 0 0.188 -0.051 0.246 -0.117 c 0.105 -0.113 0.102 -0.121 -0.125 -0.348 c -0.203 -0.195 -0.289 -0.234 -0.582 -0.273 c -0.645 -0.078 -0.973 0.082 -0.973 0.473 c 0 0.379 0.25 0.496 0.5 0.238 c 0.18 -0.191 0.223 -0.188 0.434 0.031 c 0.094 0.102 0.203 0.164 0.238 0.145 c 0.047 -0.027 0.031 -0.078 -0.039 -0.156 m -1.578 10.711 c 0 -0.098 0.016 -0.129 0.031 -0.07 c 0.016 0.055 0.012 0.137 -0.004 0.176 c -0.016 0.039 -0.027 -0.008 -0.027 -0.105 m 12.402 -1.887 c -0.762 -0.105 -1.148 -0.191 -1.656 -0.371 c -0.367 -0.129 -0.785 -0.25 -0.934 -0.273 c -0.602 -0.086 -0.605 -0.09 -0.605 -0.27 c 0 -0.094 -0.023 -0.184 -0.051 -0.203 c -0.063 -0.035 -0.309 -0.535 -0.309 -0.621 c 0 -0.031 0.09 -0.059 0.199 -0.059 c 0.137 0 0.246 -0.047 0.34 -0.148 c 0.078 -0.078 0.164 -0.129 0.191 -0.113 c 0.027 0.02 0.051 0.262 0.051 0.539 c 0 0.461 0.012 0.5 0.09 0.395 c 0.086 -0.109 0.09 -0.109 0.242 0.051 c 0.086 0.086 0.199 0.16 0.254 0.16 c 0.055 0 0.164 0.059 0.238 0.129 l 0.137 0.125 l 0.066 -0.168 c 0.051 -0.137 0.035 -0.23 -0.094 -0.551 c -0.09 -0.215 -0.203 -0.438 -0.254 -0.492 c -0.129 -0.141 -0.051 -0.199 0.164 -0.121 c 0.211 0.078 0.316 -0.012 0.41 -0.348 c 0.047 -0.172 0.043 -0.242 -0.031 -0.348 c -0.082 -0.109 -0.086 -0.172 -0.02 -0.43 c 0.043 -0.168 0.105 -0.336 0.141 -0.375 c 0.094 -0.121 0.313 -0.086 0.465 0.074 c 0.258 0.27 0.195 0.984 -0.18 2.063 c -0.266 0.766 -0.16 0.922 0.18 0.266 c 0.207 -0.398 0.297 -0.477 0.344 -0.301 c 0.016 0.066 0.07 0.125 0.117 0.125 c 0.043 0 0.082 0.039 0.082 0.086 c 0 0.051 0.031 0.195 0.074 0.324 l 0.074 0.23 l 0.363 0.02 c 0.336 0.016 0.363 0.027 0.383 0.164 c 0.012 0.109 0.094 0.184 0.316 0.289 c 0.16 0.078 0.297 0.18 0.297 0.223 c 0 0.043 -0.023 0.074 -0.047 0.07 c -0.023 -0.004 -0.492 -0.066 -1.039 -0.141 m -5.082 -0.863 c -0.016 -0.043 -0.051 -0.188 -0.086 -0.316 c -0.031 -0.129 -0.078 -0.277 -0.102 -0.332 c -0.031 -0.078 0.016 -0.102 0.273 -0.133 c 0.172 -0.023 0.391 -0.082 0.484 -0.129 l 0.172 -0.086 v 0.414 c 0 0.418 0.031 0.465 0.23 0.359 c 0.074 -0.039 0.152 -0.012 0.281 0.09 l 0.184 0.141 h -0.52 c -0.289 0 -0.605 0.016 -0.707 0.039 c -0.133 0.023 -0.195 0.012 -0.211 -0.047 m 0.02 -1.066 c -0.211 -0.105 -0.277 -0.176 -0.32 -0.34 c -0.09 -0.352 -0.023 -0.789 0.156 -0.996 c 0.086 -0.102 0.172 -0.234 0.191 -0.297 c 0.035 -0.102 0.059 -0.105 0.246 -0.043 c 0.242 0.082 0.598 0.391 0.723 0.633 c 0.051 0.094 0.105 0.285 0.125 0.422 c 0.035 0.238 0.023 0.262 -0.195 0.434 c -0.461 0.363 -0.543 0.379 -0.926 0.188 m -1.582 -1.785 c 0.031 -0.148 0.117 -0.242 0.172 -0.188 c 0.016 0.016 0.012 0.098 -0.008 0.18 c -0.055 0.203 -0.203 0.211 -0.164 0.008 m 5.68 0.086 c 0 -0.035 0.027 -0.047 0.059 -0.027 c 0.035 0.02 0.063 0.051 0.063 0.063 c 0 0.016 -0.027 0.027 -0.063 0.027 c -0.031 0 -0.059 -0.027 -0.059 -0.063 m -0.676 -0.063 c -0.059 -0.031 -0.109 -0.125 -0.109 -0.203 c 0 -0.125 0.031 -0.145 0.207 -0.145 c 0.238 0 0.348 0.102 0.297 0.285 c -0.035 0.141 -0.215 0.168 -0.395 0.063 m -2.34 -1.762 c -0.113 -0.094 -0.262 -0.176 -0.328 -0.176 c -0.137 -0.008 -0.391 -0.195 -0.391 -0.289 c 0 -0.086 0.32 -0.242 0.492 -0.242 c 0.078 0 0.227 0.051 0.336 0.117 c 0.195 0.117 0.199 0.125 0.16 0.426 c -0.023 0.172 -0.047 0.316 -0.055 0.324 c -0.004 0.008 -0.102 -0.063 -0.215 -0.16 m 4.824 -1.406 c 0 -0.027 0.055 -0.098 0.121 -0.156 c 0.117 -0.105 0.117 -0.105 0.117 0.051 c 0 0.117 -0.027 0.156 -0.117 0.156 c -0.066 0 -0.121 -0.023 -0.121 -0.051 m -8.352 -0.152 c -0.098 -0.383 0.082 -0.539 0.426 -0.367 c 0.102 0.051 0.313 0.148 0.469 0.211 c 0.156 0.066 0.285 0.145 0.285 0.172 c 0 0.031 -0.152 0.074 -0.34 0.098 c -0.281 0.031 -0.352 0.023 -0.395 -0.055 c -0.066 -0.117 -0.223 -0.121 -0.266 -0.004 c -0.055 0.133 -0.137 0.105 -0.18 -0.055 m 4.445 0.086 c -0.109 -0.027 -0.207 -0.059 -0.215 -0.07 c -0.059 -0.078 -0.156 -0.543 -0.156 -0.742 v -0.234 l 0.738 -0.043 c 1.863 -0.109 2.344 -0.148 2.938 -0.258 c 0.348 -0.063 0.68 -0.133 0.738 -0.156 c 0.094 -0.039 0.105 0 0.105 0.406 c 0 0.391 -0.016 0.445 -0.109 0.445 c -0.063 0 -0.137 0.023 -0.168 0.055 c -0.031 0.027 -0.133 0.066 -0.227 0.09 c -0.164 0.039 -0.168 0.031 -0.133 -0.133 c 0.035 -0.16 0.023 -0.18 -0.188 -0.25 c -0.281 -0.09 -1.098 -0.035 -1.332 0.09 c -0.09 0.051 -0.246 0.152 -0.344 0.234 c -0.141 0.113 -0.16 0.16 -0.105 0.227 c 0.113 0.133 0.027 0.16 -0.465 0.16 c -0.551 0.004 -0.746 0.047 -0.703 0.156 c 0.035 0.09 -0.059 0.094 -0.375 0.023 m -3.01 -0.602 c -0.039 -0.035 -0.172 -0.086 -0.301 -0.105 c -0.137 -0.023 -0.223 -0.07 -0.211 -0.113 c 0.012 -0.047 -0.012 -0.059 -0.063 -0.027 c -0.094 0.055 -0.352 0.031 -0.445 -0.047 c -0.043 -0.035 -0.086 -0.035 -0.105 0 c -0.047 0.074 -0.332 0.121 -0.371 0.059 c -0.102 -0.156 -0.211 -0.77 -0.27 -1.496 c -0.039 -0.453 -0.105 -0.926 -0.156 -1.051 c -0.121 -0.313 -0.051 -0.379 0.383 -0.363 c 0.191 0.004 0.395 -0.02 0.453 -0.055 c 0.074 -0.043 0.137 -0.043 0.219 0.008 c 0.063 0.039 0.133 0.051 0.156 0.027 c 0.074 -0.07 0.512 -0.051 0.453 0.023 c -0.035 0.039 -0.023 0.109 0.031 0.188 c 0.07 0.094 0.074 0.137 0.02 0.168 c -0.043 0.027 -0.109 -0.008 -0.16 -0.086 c -0.094 -0.141 -0.371 -0.176 -0.371 -0.043 c 0 0.043 0.039 0.113 0.09 0.156 c 0.066 0.051 0.074 0.094 0.031 0.137 c -0.035 0.031 -0.063 0.137 -0.063 0.23 c 0 0.172 0 0.172 0.152 0.074 c 0.094 -0.059 0.203 -0.082 0.277 -0.059 c 0.109 0.031 0.082 0.063 -0.184 0.211 c -0.395 0.223 -0.484 0.391 -0.348 0.668 c 0.133 0.273 0.316 0.379 0.738 0.422 c 0.461 0.047 1.012 -0.102 1.148 -0.305 c 0.109 -0.164 0.203 -0.188 0.203 -0.051 c 0 0.055 -0.121 0.207 -0.273 0.348 c -0.23 0.215 -0.32 0.258 -0.605 0.289 c -0.188 0.023 -0.465 0.023 -0.617 0.004 c -0.238 -0.031 -0.301 -0.02 -0.395 0.086 c -0.109 0.117 -0.109 0.129 -0.012 0.238 c 0.059 0.063 0.141 0.102 0.18 0.086 c 0.074 -0.027 0.578 0.32 0.578 0.402 c 0 0.066 -0.086 0.055 -0.164 -0.023 m -1.117 -1.922 c 0.016 -0.039 -0.02 -0.074 -0.07 -0.074 c -0.055 0 -0.113 -0.039 -0.133 -0.086 c -0.043 -0.113 -0.121 -0.113 -0.164 -0.004 c -0.02 0.047 0.008 0.129 0.063 0.18 c 0.105 0.105 0.266 0.098 0.305 -0.016 m 0.195 -0.375 c 0 -0.082 -0.102 -0.059 -0.141 0.035 c -0.023 0.055 -0.004 0.074 0.055 0.051 c 0.047 -0.02 0.086 -0.055 0.086 -0.086 m 1.355 2.01 c -0.055 -0.086 0.078 -0.117 0.438 -0.102 c 0.207 0.008 0.316 0.039 0.316 0.086 c 0 0.094 -0.695 0.105 -0.754 0.016 m 6.605 -1.504 c 0.004 -0.406 0.027 -0.738 0.055 -0.738 c 0.023 0 0.047 0.332 0.043 0.738 c 0 0.406 -0.023 0.738 -0.055 0.738 c -0.027 0 -0.047 -0.332 -0.043 -0.738 m -2.242 0.449 c -0.656 -0.211 -0.738 -0.805 -0.164 -1.207 c 0.242 -0.172 0.715 -0.285 0.844 -0.207 c 0.055 0.035 0.035 0.051 -0.07 0.051 c -0.223 0.004 -0.66 0.215 -0.699 0.336 c -0.016 0.059 -0.059 0.156 -0.09 0.211 c -0.094 0.172 0.063 0.41 0.363 0.559 c 0.316 0.156 0.566 0.168 0.879 0.043 c 0.332 -0.137 0.336 -0.051 0.004 0.094 c -0.32 0.141 -0.828 0.195 -1.063 0.121 m -5.199 -1.273 c -0.059 -0.043 -0.082 -0.094 -0.051 -0.113 c 0.031 -0.02 0.09 0.008 0.133 0.055 c 0.102 0.121 0.055 0.156 -0.082 0.059 m 1.941 -0.234 c -0.797 -0.113 -0.965 -0.152 -0.93 -0.207 c 0.02 -0.027 -0.012 -0.063 -0.07 -0.078 c -0.082 -0.02 -0.074 -0.031 0.027 -0.035 c 0.074 -0.004 0.137 0.02 0.137 0.051 c 0 0.09 0.219 0.07 0.32 -0.027 c 0.059 -0.055 0.188 -0.082 0.367 -0.074 c 0.234 0.008 0.258 0.02 0.152 0.074 c -0.152 0.082 -0.09 0.148 0.129 0.148 c 0.191 0 0.477 0.109 0.477 0.184 c 0 0.027 -0.02 0.047 -0.047 0.043 c -0.023 -0.004 -0.277 -0.039 -0.563 -0.078 m -1.59 -0.328 c 0.02 -0.031 0.09 -0.059 0.152 -0.059 c 0.066 0 0.117 0.027 0.117 0.059 c 0 0.035 -0.066 0.059 -0.152 0.059 c -0.086 0 -0.137 -0.023 -0.117 -0.059" fill="#5b5b27"/><path d="m 5.652 19.441 c 0.156 -0.234 0.184 -0.609 0.07 -0.906 c -0.059 -0.145 -0.129 -0.262 -0.16 -0.262 c -0.031 0 -0.055 -1.105 -0.055 -2.711 c 0 -2.109 0.016 -2.711 0.074 -2.734 c 0.063 -0.023 0.063 -0.031 0 -0.035 c -0.039 -0.004 -0.074 -0.059 -0.074 -0.125 c 0 -0.063 0.035 -0.117 0.074 -0.117 c 0.047 0 0.055 -0.016 0.016 -0.043 c -0.031 -0.023 -0.066 -0.219 -0.078 -0.426 l -0.016 -0.387 l 0.18 0.277 c 0.102 0.152 0.242 0.309 0.313 0.348 c 0.203 0.105 1.098 0.051 1.242 -0.078 c 0.066 -0.055 0.184 -0.102 0.266 -0.102 c 0.078 0 0.293 -0.109 0.477 -0.246 c 0.18 -0.133 0.473 -0.32 0.645 -0.418 c 0.211 -0.113 0.316 -0.211 0.316 -0.285 c 0 -0.137 -0.059 -0.141 -0.645 -0.02 c -0.258 0.051 -0.75 0.098 -1.102 0.102 c -0.563 0.008 -0.699 -0.008 -1.16 -0.164 l -0.52 -0.172 l -0.004 -0.75 c 0 -0.543 0.02 -0.758 0.074 -0.781 c 0.059 -0.023 0.055 -0.031 -0.004 -0.035 c -0.059 -0.004 -0.074 -0.348 -0.074 -1.512 v -1.504 l 1.762 0.02 c 0.969 0.008 1.816 0.039 1.883 0.066 c 0.098 0.039 0.102 0.035 0.031 -0.016 c -0.07 -0.051 -0.031 -0.063 0.172 -0.066 c 0.188 0 0.254 0.023 0.234 0.074 c -0.047 0.121 0.129 1.227 0.316 1.961 c 0.031 0.129 0.059 0.41 0.063 0.621 c 0 0.211 0.027 0.488 0.055 0.617 c 0.031 0.129 0.07 0.367 0.086 0.523 c 0.02 0.16 0.063 0.32 0.098 0.355 c 0.039 0.039 0.281 0.066 0.563 0.066 c 0.27 0 0.508 0.023 0.523 0.055 c 0.016 0.035 -0.102 0.129 -0.266 0.211 c -0.488 0.254 -0.676 0.566 -0.539 0.91 c 0.063 0.164 0.684 0.359 0.684 0.215 c 0 -0.027 -0.055 -0.168 -0.117 -0.309 c -0.148 -0.313 -0.148 -0.371 -0.027 -0.488 c 0.227 -0.223 0.793 -0.023 1.102 0.387 c 0.234 0.313 0.234 0.363 0.004 0.316 c -0.109 -0.023 -0.215 -0.012 -0.27 0.031 c -0.047 0.039 -0.156 0.059 -0.238 0.043 c -0.113 -0.023 -0.207 0.027 -0.395 0.203 c -0.152 0.148 -0.277 0.223 -0.336 0.199 c -0.051 -0.02 -0.215 0.035 -0.367 0.121 c -0.176 0.102 -0.379 0.164 -0.574 0.172 c -0.266 0.016 -0.324 0.043 -0.492 0.238 c -0.102 0.121 -0.25 0.355 -0.324 0.52 l -0.141 0.301 l 0.203 -0.191 c 0.398 -0.379 0.441 -0.156 0.098 0.52 c -0.199 0.395 -0.211 0.488 -0.078 0.797 l 0.098 0.227 l 0.109 -0.129 c 0.129 -0.156 0.215 -0.168 0.266 -0.035 c 0.031 0.082 0.051 0.086 0.141 0.012 c 0.301 -0.242 0.41 -0.254 0.805 -0.086 l 0.371 0.156 l 0.086 -0.121 c 0.105 -0.145 0.238 -0.074 0.27 0.137 c 0.012 0.07 0.098 0.164 0.199 0.211 c 0.102 0.047 0.223 0.105 0.273 0.125 c 0.055 0.027 0.078 0.094 0.063 0.184 c -0.016 0.078 -0.031 0.27 -0.031 0.43 c -0.004 0.277 0.008 0.293 0.207 0.359 l 0.207 0.07 l -0.477 0.152 c -0.266 0.082 -0.813 0.313 -1.215 0.512 c -0.465 0.227 -0.949 0.41 -1.324 0.508 c -0.328 0.078 -0.73 0.203 -0.895 0.27 c -0.461 0.191 -0.871 0.199 -1.137 0.023 c -0.297 -0.195 -0.613 -0.254 -0.664 -0.117 c -0.059 0.145 -0.004 0.176 0.172 0.098 c 0.168 -0.074 0.238 -0.012 0.184 0.16 c -0.027 0.09 0 0.121 0.148 0.152 c 0.098 0.02 0.18 0.063 0.18 0.09 c 0 0.07 -0.406 0.176 -0.516 0.137 c -0.164 -0.063 -0.082 0.094 0.098 0.188 c 0.141 0.07 0.172 0.117 0.145 0.223 c -0.023 0.09 0.008 0.168 0.086 0.238 c 0.098 0.09 0.156 0.098 0.348 0.047 c 0.129 -0.031 0.422 -0.078 0.656 -0.098 c 0.23 -0.023 0.488 -0.086 0.57 -0.137 c 0.082 -0.055 0.246 -0.098 0.363 -0.098 c 0.18 0 0.211 -0.02 0.207 -0.133 c -0.004 -0.074 0.027 -0.133 0.07 -0.133 c 0.039 0 0.09 -0.051 0.109 -0.109 c 0.066 -0.207 0.516 -0.301 0.516 -0.105 c 0 0.035 -0.039 0.207 -0.086 0.379 c -0.074 0.281 -0.074 0.32 0.008 0.352 c 0.273 0.102 1.633 -0.395 2.043 -0.75 c 0.109 -0.094 0.383 -0.277 0.609 -0.406 c 0.223 -0.133 0.5 -0.332 0.609 -0.449 c 0.215 -0.223 0.41 -0.301 0.629 -0.246 c 0.074 0.016 0.25 0.059 0.387 0.094 c 0.141 0.035 0.418 0.164 0.617 0.293 c 0.199 0.125 0.613 0.328 0.922 0.449 c 0.309 0.125 0.77 0.309 1.031 0.41 c 0.258 0.105 0.469 0.211 0.465 0.242 c -0.008 0.074 -1.074 0.055 -1.691 -0.031 c -0.281 -0.039 -0.605 -0.07 -0.723 -0.07 c -0.332 0 -1.023 0.059 -1.074 0.09 c -0.027 0.02 -0.129 0.008 -0.227 -0.016 c -0.156 -0.043 -0.137 -0.055 0.188 -0.098 c 0.266 -0.031 0.328 -0.059 0.238 -0.09 c -0.184 -0.07 -0.563 -0.063 -0.711 0.016 c -0.07 0.039 -0.293 0.074 -0.492 0.082 c -0.5 0.02 -1.391 0.332 -1.898 0.664 c -0.016 0.008 -0.031 0.102 -0.031 0.203 v 0.188 l -2.578 0.02 l -2.578 0.016 m 2.719 -2.332 c 0 -0.199 0.086 -0.23 0.281 -0.109 c 0.223 0.145 0.941 0.133 1.109 -0.016 c 0.063 -0.055 0.113 -0.137 0.113 -0.18 c 0 -0.043 0.027 -0.082 0.063 -0.082 c 0.121 0 0.051 -0.219 -0.219 -0.676 c -0.504 -0.859 -0.742 -1.375 -1.012 -2.168 c -0.359 -1.059 -0.57 -1.484 -0.75 -1.508 c -0.203 -0.027 -0.363 0.141 -0.59 0.621 c -0.461 0.965 -0.594 2.203 -0.328 3.03 c 0.102 0.32 0.184 0.441 0.453 0.691 c 0.18 0.168 0.379 0.305 0.441 0.305 c 0.066 0 0.164 0.051 0.227 0.117 c 0.145 0.156 0.211 0.148 0.211 -0.027 m 2.922 -1.242 c -0.02 -0.129 -0.082 -0.402 -0.133 -0.605 c -0.09 -0.344 -0.109 -0.371 -0.254 -0.355 c -0.121 0.016 -0.195 0.09 -0.32 0.34 c -0.242 0.465 -0.227 0.605 0.09 0.75 c 0.141 0.066 0.344 0.117 0.453 0.113 c 0.195 -0.004 0.199 -0.008 0.164 -0.242 m -2.293 -3.902 c 0.426 -0.422 0.438 -0.512 0.043 -0.316 c -0.629 0.313 -0.926 0.59 -0.719 0.672 c 0.188 0.074 0.301 0.016 0.676 -0.355 m -0.875 -1.438 c 0.379 -0.063 0.551 -0.172 0.273 -0.172 h -0.18 l 0.18 -0.145 c 0.16 -0.125 0.172 -0.152 0.09 -0.227 c -0.137 -0.133 -0.652 -0.277 -0.977 -0.277 c -0.41 0 -0.824 0.184 -0.828 0.367 c 0 0.07 0.316 0.207 0.598 0.25 c 0.219 0.039 0.246 0.055 0.156 0.105 c -0.117 0.063 -0.699 0.016 -0.867 -0.07 c -0.055 -0.027 -0.219 -0.07 -0.367 -0.094 c -0.25 -0.039 -0.266 -0.035 -0.188 0.055 c 0.258 0.305 1.066 0.383 2.109 0.207 m 0.277 -1.352 c 0.02 -0.031 -0.039 -0.059 -0.133 -0.059 c -0.289 -0.004 -0.41 -0.059 -0.516 -0.238 c -0.133 -0.223 -0.289 -0.23 -0.289 -0.012 l -0.004 0.16 l -0.102 -0.16 c -0.191 -0.305 -0.391 -0.262 -0.391 0.082 c 0.004 0.109 0.008 0.215 0.008 0.238 c 0.012 0.063 1.383 0.051 1.426 -0.012 m -0.93 -0.852 c 0.113 -0.043 0.258 -0.137 0.324 -0.207 c 0.109 -0.117 0.109 -0.137 0.016 -0.285 c -0.164 -0.27 -0.355 -0.367 -0.805 -0.414 c -0.676 -0.07 -0.988 0.078 -0.988 0.469 c 0 0.254 0.172 0.391 0.516 0.418 c 0.305 0.027 0.309 0.023 0.277 -0.125 c -0.027 -0.152 -0.027 -0.152 0.156 0.039 c 0.211 0.219 0.227 0.223 0.504 0.105 m 10.05 8.547 c -0.313 -0.039 -0.707 -0.125 -0.871 -0.188 l -0.301 -0.109 l 0.02 -0.336 c 0.016 -0.266 -0.008 -0.383 -0.105 -0.539 c -0.211 -0.332 -0.176 -0.402 0.176 -0.355 c 0.324 0.043 0.391 -0.02 0.172 -0.164 c -0.203 -0.133 -0.105 -0.344 0.164 -0.344 c 0.285 0 0.285 0.055 -0.043 1.01 c -0.129 0.379 -0.133 0.406 -0.055 0.527 c 0.047 0.07 0.09 0.055 0.266 -0.109 c 0.195 -0.188 0.207 -0.191 0.246 -0.074 c 0.047 0.141 0.094 0.152 0.207 0.051 c 0.066 -0.063 0.074 -0.035 0.047 0.141 c -0.039 0.266 0.09 0.344 0.527 0.324 c 0.234 -0.012 0.324 0.012 0.445 0.121 l 0.148 0.137 l -0.234 -0.008 c -0.129 -0.004 -0.492 -0.039 -0.809 -0.082 m -2.348 -0.602 c -0.258 -0.031 -0.395 -0.129 -0.305 -0.215 c 0.094 -0.094 0.074 -0.273 -0.027 -0.273 c -0.094 0 -0.332 -0.328 -0.332 -0.457 c 0 -0.047 0.059 -0.059 0.168 -0.039 c 0.121 0.023 0.195 0 0.281 -0.09 c 0.063 -0.066 0.133 -0.121 0.164 -0.121 c 0.027 0 0.051 0.223 0.051 0.496 c 0 0.461 0.055 0.652 0.148 0.504 c 0.051 -0.074 0.133 -0.027 0.215 0.121 c 0.066 0.125 0.074 0.125 -0.363 0.074 m -2.195 -0.203 c -0.059 -0.191 -0.148 -0.441 -0.184 -0.535 c -0.039 -0.086 -0.004 -0.098 0.309 -0.086 c 0.195 0.004 0.391 -0.004 0.441 -0.02 c 0.074 -0.023 0.09 0.035 0.09 0.313 c 0 0.184 -0.012 0.34 -0.027 0.34 c -0.418 0.059 -0.609 0.055 -0.629 -0.012 m 0.066 -1.055 c -0.289 -0.082 -0.344 -0.164 -0.344 -0.52 c 0 -0.27 0.027 -0.363 0.145 -0.484 c 0.078 -0.086 0.16 -0.211 0.184 -0.281 c 0.055 -0.16 0.125 -0.16 0.426 0.008 c 0.293 0.164 0.512 0.469 0.512 0.719 c 0 0.207 -0.219 0.453 -0.5 0.559 c -0.191 0.07 -0.191 0.07 -0.422 0 m 3.797 -0.582 c -0.098 -0.02 -0.215 -0.105 -0.27 -0.191 c -0.086 -0.141 -0.086 -0.18 -0.008 -0.383 c 0.094 -0.242 0.285 -0.328 0.449 -0.195 c 0.129 0.105 0.105 0.176 -0.063 0.176 c -0.113 0 -0.152 0.031 -0.152 0.117 c 0 0.07 0.063 0.148 0.152 0.188 c 0.141 0.063 0.207 0.25 0.105 0.301 c -0.027 0.012 -0.121 0.004 -0.215 -0.012 m -0.426 -1.223 c -0.074 -0.074 -0.039 -0.141 0.082 -0.141 c 0.066 0 0.121 0.039 0.121 0.09 c 0 0.09 -0.129 0.121 -0.203 0.051 m -2.539 -1.906 c -0.059 -0.066 -0.168 -0.121 -0.234 -0.121 c -0.07 0 -0.164 -0.023 -0.207 -0.051 c -0.066 -0.039 -0.055 -0.07 0.059 -0.148 c 0.297 -0.203 0.652 -0.051 0.652 0.277 c 0 0.191 -0.117 0.207 -0.27 0.043 m 5.094 -1.238 c 0 -0.027 0.023 -0.07 0.059 -0.09 c 0.031 -0.02 0.059 0.004 0.059 0.055 c 0 0.051 -0.027 0.094 -0.059 0.094 c -0.035 0 -0.059 -0.027 -0.059 -0.059 m -4.273 -0.301 c -0.102 -0.285 -0.09 -0.703 0.023 -0.703 c 0.051 0 0.09 0.043 0.09 0.094 c 0 0.074 0.047 0.086 0.227 0.059 c 0.125 -0.016 0.551 -0.047 0.949 -0.07 c 0.652 -0.035 2.742 -0.359 2.996 -0.465 c 0.078 -0.031 0.098 -0.012 0.09 0.098 c -0.004 0.074 -0.035 0.156 -0.07 0.18 c -0.043 0.031 -0.031 0.066 0.027 0.109 c 0.078 0.055 0.078 0.066 0.004 0.098 c -0.047 0.02 -0.141 0.09 -0.211 0.164 c -0.066 0.07 -0.188 0.148 -0.262 0.172 c -0.125 0.039 -0.133 0.027 -0.102 -0.102 c 0.039 -0.152 -0.031 -0.195 -0.504 -0.297 c -0.195 -0.043 -0.945 0.102 -1.109 0.215 c -0.379 0.258 -0.434 0.32 -0.359 0.41 c 0.063 0.07 -0.039 0.09 -0.695 0.121 c -0.422 0.023 -0.824 0.055 -0.898 0.074 c -0.102 0.027 -0.141 0 -0.195 -0.156 m -4.375 -1.055 c -0.02 -0.031 -0.051 -0.195 -0.074 -0.359 c -0.035 -0.297 -0.035 -0.297 0.117 -0.262 c 0.168 0.043 0.172 0.039 0.504 -0.398 c 0.117 -0.156 0.242 -0.281 0.281 -0.281 c 0.051 0 0.051 0.02 -0.004 0.07 c -0.098 0.098 -0.09 0.371 0.016 0.574 c 0.125 0.23 0.348 0.359 0.758 0.422 c 0.301 0.047 0.398 0.039 0.664 -0.063 c 0.215 -0.086 0.301 -0.098 0.285 -0.047 c -0.051 0.145 -0.32 0.223 -0.781 0.223 c -0.496 0 -1.035 -0.152 -1.18 -0.336 c -0.039 -0.055 -0.094 -0.078 -0.113 -0.055 c -0.023 0.02 -0.012 0.07 0.027 0.109 c 0.098 0.098 0.09 0.254 -0.02 0.344 c -0.078 0.063 -0.117 0.051 -0.223 -0.063 c -0.094 -0.098 -0.137 -0.117 -0.156 -0.059 c -0.016 0.043 0.02 0.113 0.082 0.156 c 0.105 0.074 0.105 0.078 -0.02 0.078 c -0.07 0 -0.145 -0.023 -0.164 -0.055 m 6.328 -0.68 c -0.293 -0.102 -0.395 -0.227 -0.395 -0.484 c 0 -0.258 0.086 -0.246 0.25 0.039 c 0.094 0.164 0.223 0.277 0.438 0.379 c 0.285 0.137 0.293 0.148 0.129 0.148 c -0.102 0 -0.289 -0.039 -0.422 -0.082 m 2.324 -0.125 c 0 -0.066 0.016 -0.082 0.035 -0.035 c 0.02 0.043 0.016 0.094 -0.004 0.113 c -0.02 0.02 -0.035 -0.016 -0.031 -0.078 m 0.004 -0.438 c 0 -0.082 0.012 -0.113 0.031 -0.074 c 0.016 0.043 0.016 0.109 0 0.148 c -0.02 0.039 -0.031 0.008 -0.031 -0.074 m -2.602 -0.293 c 0 -0.035 0.027 -0.059 0.063 -0.059 c 0.031 0 0.059 0.023 0.059 0.059 c 0 0.031 -0.027 0.059 -0.059 0.059 c -0.035 0 -0.063 -0.027 -0.063 -0.059 m -5.496 -0.867 c 0.039 -0.016 0.109 -0.016 0.148 0 c 0.043 0.02 0.008 0.031 -0.074 0.031 c -0.082 0 -0.117 -0.012 -0.074 -0.031 m 1.129 -0.02 c 0.02 -0.031 0.047 -0.059 0.063 -0.059 c 0.016 0 0.027 0.027 0.027 0.059 c 0 0.035 -0.027 0.059 -0.063 0.059 c -0.035 0 -0.047 -0.023 -0.027 -0.059" fill="#4e3114"/><path d="m 5.645 19.465 c 0.234 -0.258 0.215 -0.91 -0.035 -1.184 c -0.09 -0.098 -0.102 -0.375 -0.102 -2.773 c 0 -1.762 0.02 -2.656 0.063 -2.633 c 0.031 0.023 0.059 -0.004 0.059 -0.055 c 0 -0.051 -0.027 -0.09 -0.059 -0.09 c -0.035 0 -0.063 -0.039 -0.063 -0.082 c 0 -0.117 0.223 -0.16 0.309 -0.063 c 0.07 0.09 0.66 0.121 0.738 0.043 c 0.023 -0.023 0.172 -0.074 0.328 -0.117 c 0.242 -0.059 0.293 -0.059 0.355 0.023 c 0.059 0.07 0.059 0.121 0 0.219 c -0.039 0.066 -0.078 0.203 -0.082 0.301 c -0.004 0.098 -0.082 0.398 -0.168 0.672 c -0.387 1.223 -0.352 2.098 0.117 3.043 c 0.078 0.16 0.16 0.344 0.18 0.402 c 0.02 0.074 0.066 0.098 0.133 0.074 c 0.066 -0.027 0.172 0.027 0.316 0.164 c 0.156 0.152 0.277 0.211 0.457 0.227 l 0.238 0.023 l -0.211 0.094 c -0.254 0.113 -0.918 0.082 -1.031 -0.051 c -0.035 -0.043 -0.105 -0.078 -0.152 -0.078 c -0.047 0 -0.148 -0.043 -0.227 -0.094 c -0.133 -0.086 -0.148 -0.078 -0.301 0.098 c -0.113 0.133 -0.148 0.219 -0.117 0.313 c 0.023 0.066 0.039 0.191 0.031 0.273 c -0.004 0.078 0.039 0.215 0.098 0.301 c 0.32 0.473 0.426 0.59 0.633 0.703 l 0.227 0.125 l 0.105 -0.129 c 0.09 -0.105 0.199 -0.133 0.711 -0.176 c 0.336 -0.031 0.73 -0.043 0.875 -0.027 c 0.488 0.047 0.805 0.039 1.215 -0.031 c 0.227 -0.039 0.43 -0.055 0.449 -0.035 c 0.02 0.02 -0.027 0.102 -0.105 0.18 c -0.164 0.176 -0.477 0.246 -0.656 0.152 c -0.098 -0.051 -0.223 -0.051 -0.477 -0.004 c -0.473 0.086 -0.793 0.188 -0.793 0.246 c 0 0.027 -0.711 0.051 -1.578 0.051 c -1.496 0 -1.57 -0.008 -1.48 -0.105 m 1.094 -2.172 c 0.055 -0.145 0.043 -0.16 -0.055 -0.082 c -0.102 0.082 -0.121 0.176 -0.035 0.176 c 0.027 0 0.07 -0.043 0.09 -0.094 m 4.5 1.371 c 0.215 -0.102 0.508 -0.281 0.648 -0.398 c 0.141 -0.121 0.414 -0.301 0.609 -0.402 c 0.195 -0.102 0.469 -0.277 0.605 -0.391 c 0.141 -0.109 0.32 -0.223 0.406 -0.242 c 0.246 -0.059 0.73 0.094 1.129 0.363 c 0.203 0.133 0.516 0.293 0.695 0.348 c 0.18 0.059 0.441 0.156 0.578 0.215 c 0.137 0.063 0.379 0.164 0.543 0.227 c 0.16 0.059 0.285 0.133 0.281 0.164 c -0.027 0.098 -0.313 0.082 -1.227 -0.07 c -1.219 -0.203 -2.328 -0.219 -3.07 -0.043 c -0.727 0.172 -1.195 0.301 -1.328 0.371 c -0.059 0.031 -0.145 0.055 -0.188 0.051 c -0.047 0 0.098 -0.086 0.316 -0.191 m -1.902 -1.309 c 0.488 -0.16 0.723 -0.371 0.664 -0.602 c -0.023 -0.082 -0.145 -0.297 -0.27 -0.48 c -0.367 -0.531 -0.785 -1.395 -1.063 -2.187 c -0.141 -0.406 -0.309 -0.875 -0.379 -1.039 l -0.121 -0.305 l 0.168 -0.035 c 0.094 -0.016 0.332 -0.184 0.531 -0.375 c 0.199 -0.188 0.5 -0.469 0.672 -0.629 c 0.461 -0.434 0.426 -0.457 -0.281 -0.207 c -0.172 0.059 -0.316 0.098 -0.316 0.078 c 0 -0.02 0.098 -0.121 0.211 -0.227 c 0.121 -0.113 0.211 -0.254 0.211 -0.328 c 0 -0.129 -0.016 -0.133 -0.316 -0.094 c -0.172 0.023 -0.531 0.098 -0.797 0.164 c -0.316 0.078 -0.691 0.125 -1.086 0.129 c -0.52 0.004 -0.676 -0.016 -1.129 -0.168 l -0.527 -0.176 v -0.223 c 0 -0.121 0.016 -0.223 0.031 -0.223 c 0.016 0 0.188 0.086 0.375 0.191 c 0.34 0.188 0.359 0.191 1.102 0.191 c 0.73 0 1.523 -0.121 1.746 -0.27 c 0.078 -0.051 0.078 -0.063 -0.008 -0.113 c -0.063 -0.035 -0.09 -0.105 -0.07 -0.176 c 0.027 -0.098 -0.031 -0.148 -0.32 -0.281 c -0.453 -0.203 -1.148 -0.25 -1.711 -0.109 c -0.289 0.074 -0.398 0.078 -0.461 0.027 c -0.117 -0.094 -0.18 -0.008 -0.094 0.129 c 0.125 0.191 0.086 0.223 -0.258 0.215 l -0.332 -0.008 v -0.391 c 0 -0.391 0 -0.391 0.164 -0.391 c 0.094 0 1.09 -0.008 2.215 -0.012 l 2.043 -0.012 l 0.078 0.254 c 0.043 0.137 0.078 0.359 0.078 0.488 c 0.004 0.371 0.055 0.41 0.617 0.441 l 0.5 0.031 l -0.184 0.098 c -0.242 0.129 -0.691 0.57 -0.758 0.742 c -0.035 0.098 -0.023 0.191 0.035 0.309 c 0.117 0.219 0.184 0.254 0.504 0.273 c 0.293 0.02 0.344 0.043 0.285 0.137 c -0.074 0.117 -0.625 0.074 -0.816 -0.066 l -0.176 -0.125 l -0.637 0.285 c -0.359 0.164 -0.715 0.367 -0.824 0.477 l -0.188 0.191 l 0.121 0.258 c 0.125 0.254 0.238 0.621 0.414 1.305 c 0.047 0.188 0.129 0.406 0.184 0.484 c 0.109 0.164 0.289 0.188 0.344 0.047 c 0.035 -0.086 0.051 -0.086 0.191 0.004 c 0.148 0.098 0.164 0.094 0.363 -0.055 l 0.207 -0.156 l 0.055 0.145 c 0.031 0.082 0.086 0.156 0.121 0.168 c 0.039 0.012 0.004 0.188 -0.094 0.461 c -0.164 0.461 -0.25 1.039 -0.18 1.219 c 0.035 0.09 0.051 0.094 0.098 0.02 c 0.031 -0.047 0.059 -0.141 0.059 -0.207 c 0.004 -0.234 0.086 -0.285 0.301 -0.176 c 0.129 0.066 0.246 0.086 0.355 0.055 c 0.086 -0.023 0.207 -0.039 0.262 -0.031 c 0.141 0.02 0.137 -0.07 -0.051 -0.734 c -0.09 -0.309 -0.145 -0.574 -0.125 -0.594 c 0.02 -0.02 0.148 0.008 0.281 0.059 c 0.133 0.055 0.313 0.098 0.395 0.098 c 0.176 0 0.176 -0.004 0.055 0.508 c -0.051 0.219 -0.078 0.457 -0.059 0.531 c 0.027 0.113 0.004 0.141 -0.133 0.168 c -0.16 0.031 -0.891 0.355 -1.461 0.648 c -0.328 0.168 -0.871 0.328 -1.082 0.32 c -0.098 -0.004 -0.004 -0.055 0.27 -0.145 m 7.41 -0.52 c -0.109 -0.078 -0.109 -0.082 0.02 -0.121 c 0.09 -0.031 0.18 -0.004 0.289 0.078 l 0.16 0.121 h -0.18 c -0.098 0 -0.227 -0.035 -0.289 -0.078 m -3.906 -0.91 c -0.055 -0.152 -0.102 -0.289 -0.102 -0.309 c 0 -0.016 0.176 -0.027 0.395 -0.027 c 0.426 0 0.43 0 0.336 0.402 c -0.031 0.148 -0.066 0.172 -0.281 0.191 c -0.242 0.023 -0.246 0.02 -0.348 -0.258 m 3.41 -0.082 c -0.254 -0.309 -0.25 -0.367 0.031 -0.32 c 0.121 0.02 0.273 0.035 0.328 0.035 c 0.059 0 0.105 0.043 0.105 0.094 c 0 0.113 -0.168 0.438 -0.227 0.434 c -0.023 0 -0.133 -0.109 -0.238 -0.242 m -1.461 -0.035 c -0.16 -0.023 -0.301 -0.16 -0.301 -0.293 c 0 -0.055 0.039 -0.07 0.125 -0.043 c 0.086 0.027 0.172 -0.004 0.27 -0.094 l 0.145 -0.133 v 0.27 c 0 0.301 -0.02 0.324 -0.238 0.293 m 1.844 -0.492 c -0.074 -0.102 -0.078 -0.145 -0.02 -0.18 c 0.188 -0.121 0.301 0.035 0.168 0.238 c -0.039 0.063 -0.07 0.051 -0.148 -0.059 m -3.758 -0.254 c -0.188 -0.082 -0.195 -0.102 -0.195 -0.402 c 0 -0.273 0.023 -0.34 0.18 -0.484 c 0.102 -0.094 0.18 -0.207 0.18 -0.25 c 0 -0.094 0.02 -0.094 0.266 0.004 c 0.461 0.191 0.609 0.699 0.289 1 c -0.207 0.195 -0.465 0.242 -0.719 0.133 m -1.691 -3.234 c -0.039 -0.047 -0.09 -0.207 -0.109 -0.355 c -0.035 -0.25 -0.027 -0.277 0.113 -0.34 c 0.211 -0.094 0.664 0.125 0.828 0.402 c 0.145 0.238 0.152 0.289 0.031 0.191 c -0.051 -0.039 -0.145 -0.059 -0.207 -0.043 c -0.066 0.016 -0.152 -0.008 -0.195 -0.059 c -0.063 -0.074 -0.098 -0.059 -0.23 0.102 c -0.133 0.16 -0.168 0.176 -0.23 0.102 m 2.594 -0.516 c -0.043 -0.063 -0.117 -0.117 -0.164 -0.117 c -0.121 0 -0.113 -0.113 0.008 -0.16 c 0.102 -0.035 0.383 0.215 0.383 0.34 c 0 0.102 -0.148 0.059 -0.227 -0.063 m 5.109 -1.117 c 0 -0.035 0.027 -0.063 0.059 -0.063 c 0.035 0 0.063 0.027 0.063 0.063 c 0 0.031 -0.027 0.059 -0.063 0.059 c -0.031 0 -0.059 -0.027 -0.059 -0.059 m -4.047 -0.219 c -0.164 -0.027 -0.293 -0.223 -0.293 -0.449 c 0 -0.121 0.023 -0.129 0.406 -0.117 c 0.223 0.004 0.496 0.027 0.605 0.051 c 0.105 0.02 0.27 0.012 0.359 -0.023 c 0.09 -0.035 0.301 -0.082 0.469 -0.102 l 0.301 -0.035 l -0.176 0.133 c -0.094 0.074 -0.211 0.219 -0.254 0.328 l -0.086 0.195 h -0.465 c -0.258 0 -0.52 0.012 -0.586 0.023 c -0.066 0.012 -0.191 0.008 -0.281 -0.004 m 3.609 -0.688 c -0.09 -0.07 -0.168 -0.152 -0.168 -0.176 c 0 -0.063 0.305 -0.047 0.523 0.031 c 0.223 0.078 0.254 0.137 0.098 0.18 c -0.059 0.016 -0.148 0.047 -0.199 0.066 c -0.047 0.016 -0.164 -0.027 -0.254 -0.102 m -12.934 -1.387 c 0.008 -1.301 0.023 -1.484 0.105 -1.508 c 0.055 -0.012 0.703 -0.023 1.441 -0.023 c 1.25 0.004 1.352 0.012 1.418 0.113 c 0.039 0.063 0.094 0.113 0.121 0.113 c 0.078 0 0.219 -0.16 0.18 -0.199 c -0.023 -0.02 0.008 -0.039 0.063 -0.039 c 0.078 0 0.098 0.043 0.086 0.16 c -0.023 0.23 0.16 0.254 0.266 0.035 c 0.055 -0.109 0.125 -0.164 0.219 -0.164 c 0.129 0 0.141 0.027 0.168 0.43 c 0.016 0.238 0.063 0.609 0.109 0.824 c 0.141 0.672 0.234 1.41 0.195 1.516 c -0.043 0.109 -0.238 0.078 -0.406 -0.066 c -0.125 -0.105 -0.32 -0.102 -0.547 0.016 c -0.121 0.059 -0.254 0.078 -0.375 0.055 c -0.102 -0.02 -0.309 -0.031 -0.453 -0.031 c -0.227 0.004 -0.285 -0.023 -0.43 -0.191 c -0.145 -0.16 -0.188 -0.184 -0.281 -0.125 c -0.082 0.051 -0.148 0.047 -0.273 -0.02 c -0.203 -0.098 -0.215 -0.195 -0.023 -0.195 c 0.195 0 0.496 -0.156 0.641 -0.336 c 0.117 -0.148 0.117 -0.16 0.016 -0.332 c -0.176 -0.289 -0.367 -0.387 -0.91 -0.449 c -0.52 -0.063 -0.633 -0.043 -0.867 0.16 c -0.141 0.121 -0.141 0.547 0 0.715 c 0.066 0.086 0.215 0.145 0.426 0.176 c 0.176 0.027 0.352 0.082 0.387 0.117 c 0.066 0.066 0.07 0.473 0.004 0.539 c -0.016 0.016 -0.266 0.043 -0.551 0.063 c -0.289 0.02 -0.57 0.055 -0.629 0.082 c -0.105 0.043 -0.109 -0.031 -0.098 -1.434 m 2.16 -0.422 c 0 -0.078 -0.168 -0.145 -0.227 -0.094 c -0.02 0.023 0 0.066 0.051 0.098 c 0.117 0.07 0.176 0.07 0.176 -0.004 m 1.238 -0.293 c 0.102 -0.043 0.086 -0.051 -0.078 -0.055 c -0.105 -0.004 -0.195 0.02 -0.195 0.055 c 0 0.07 0.105 0.07 0.273 0 m 0.512 -0.211 c 0 -0.055 -0.066 -0.086 -0.188 -0.086 h -0.188 l 0.141 0.113 c 0.152 0.121 0.234 0.109 0.234 -0.027 m 9.488 2.039 c 0.023 -0.035 0.051 -0.059 0.066 -0.059 c 0.016 0 0.027 0.023 0.027 0.059 c 0 0.031 -0.031 0.059 -0.066 0.059 c -0.035 0 -0.047 -0.027 -0.027 -0.059 m -7.77 -0.504 c -0.102 -0.043 -0.258 -0.145 -0.348 -0.219 l -0.164 -0.137 l 0.117 -0.172 l 0.113 -0.172 l 0.102 0.25 c 0.063 0.152 0.188 0.305 0.32 0.395 c 0.234 0.156 0.148 0.191 -0.141 0.055 m 5.324 -0.414 c -0.152 -0.078 -0.332 -0.422 -0.262 -0.492 c 0.02 -0.02 0.105 0.055 0.191 0.164 c 0.086 0.109 0.242 0.246 0.344 0.309 c 0.184 0.109 0.184 0.109 0.035 0.109 c -0.082 -0.004 -0.223 -0.043 -0.309 -0.09" fill="#23200f"/></svg>