<svg xmlns="http://www.w3.org/2000/svg" viewBox="0 0 24 24"><defs><linearGradient id="0" gradientUnits="userSpaceOnUse" x1="293.72" x2="377.29" gradientTransform="matrix(0.08439 0 0 0.05816 -20.885 -9.904)"><stop stop-color="#01b0ff" stop-opacity="0"/><stop offset="0.5" stop-color="#01b0ff"/><stop offset="1" stop-color="#01b0ff"/></linearGradient><linearGradient id="1" gradientUnits="userSpaceOnUse" x1="432.87" x2="495.71" gradientTransform="matrix(0.08439 0 0 0.05816 -20.885 -9.904)"><stop stop-color="#86ff01"/><stop offset="0.5" stop-color="#86ff01"/><stop offset="1" stop-color="#86ff01" stop-opacity="0"/></linearGradient><linearGradient id="2" gradientUnits="userSpaceOnUse" x1="292.46" x2="545.96" gradientTransform="matrix(0.06622 -0.00885 0.01168 0.05017 -20.585 -2.923)"><stop stop-color="#fff" stop-opacity="0"/><stop offset="0.75" stop-color="#fff" stop-opacity="0.647"/><stop offset="1" stop-color="#fff" stop-opacity="0"/></linearGradient></defs><path d="m 21.602 18.273 c 8.547 -12.164 -7.242 -24.484 -17.316 -14.574 c -9.488 9.336 -0.691 23.84 11.12 19.305 c 2.465 -0.945 4.629 -2.5 6.199 -4.73" fill="#f4f4f4"/><path d="m 13.05 6.883 c -0.008 0 -0.02 0 -0.027 0.004 c -0.227 0.023 -0.527 0.387 -0.668 0.957 c -0.117 0.469 -0.34 1.01 -0.492 1.195 c -0.219 0.27 -0.332 0.148 -0.527 -0.563 l -0.25 -0.91 l -0.137 0.938 v 8.375 l 0.137 0.504 l 0.406 -0.715 c 0.375 -0.648 0.426 -0.672 0.539 -0.242 c 0.066 0.258 0.281 0.434 0.473 0.391 c 0.477 -0.113 1.066 0.457 1.113 1.078 c 0.027 0.371 0.137 0.262 0.406 -0.41 c 0.363 -0.895 0.379 -0.902 0.52 -0.305 c 0.125 0.508 0.16 0.469 0.195 -0.262 c 0.023 -0.484 0.164 -0.832 0.316 -0.77 c 0.148 0.066 0.32 -0.09 0.379 -0.344 c 0.043 -0.191 0.152 -0.023 0.266 0.375 v -7.539 c -0.004 0.02 -0.012 0.031 -0.016 0.055 c -0.199 0.707 -0.195 0.703 -0.602 -0.516 l -0.41 -1.223 l -0.305 1.121 c -0.27 0.984 -0.328 1.043 -0.418 0.461 c -0.055 -0.367 -0.227 -0.664 -0.379 -0.664 c -0.152 0 -0.281 -0.234 -0.281 -0.523 c 0 -0.32 -0.098 -0.465 -0.238 -0.469" fill="#ff2929"/><path d="m 7.938 5.734 l -0.063 1.84 c -0.047 1.277 -0.152 1.746 -0.352 1.535 c -0.16 -0.168 -0.293 -0.582 -0.301 -0.922 c -0.004 -0.441 -0.074 -0.527 -0.266 -0.316 c -0.203 0.219 -0.305 0.141 -0.398 -0.309 c -0.078 -0.355 -0.148 -0.145 -0.18 0.523 c -0.063 1.445 -0.609 2.141 -0.648 0.816 c -0.02 -0.688 -0.094 -0.816 -0.277 -0.508 c -0.18 0.301 -0.27 0.117 -0.352 -0.719 l -0.102 -1.121 l -0.688 1.43 l -0.027 -0.77 c -0.02 -0.605 -0.207 -0.836 -0.383 -0.711 v 11.176 c 0.02 -0.027 0.039 -0.055 0.059 -0.086 c 0.199 -0.32 0.277 -0.207 0.332 0.512 c 0.07 0.895 0.07 0.883 0.262 -0.305 c 0.109 -0.676 0.227 -0.953 0.258 -0.617 c 0.055 0.574 0.078 0.59 0.418 0.207 c 0.199 -0.227 0.52 -0.73 0.707 -1.125 l 0.344 -0.715 l 0.063 1.02 c 0.059 0.91 0.086 0.957 0.289 0.41 c 0.121 -0.336 0.246 -0.5 0.266 -0.359 c 0.02 0.141 0.195 0.234 0.391 0.207 c 0.215 -0.031 0.43 0.297 0.539 0.816 c 0.25 1.195 0.586 1.332 0.613 0.242 c 0.02 -0.926 0.5 -2.121 0.543 -1.352 c 0.012 0.203 0.156 0.309 0.32 0.242 c 0.16 -0.07 0.313 0.09 0.32 0.352 c 0.02 0.445 0.031 0.441 0.27 0.055 c 0.223 -0.355 0.266 -0.328 0.324 0.207 c 0.051 0.445 0.121 0.332 0.27 -0.41 c 0.195 -0.977 0.215 -0.953 0.309 0.613 c 0.039 0.715 0.102 1.102 0.16 1.047 v -11.445 c -0.059 -0.371 -0.094 -0.094 -0.16 0.992 c -0.098 1.574 -0.113 1.598 -0.309 0.613 c -0.152 -0.773 -0.215 -0.871 -0.277 -0.406 l -0.082 0.609 l -0.234 -0.609 l -0.223 -0.613 l -0.035 0.715 c -0.031 0.539 -0.117 0.641 -0.332 0.406 c -0.227 -0.234 -0.297 -0.168 -0.328 0.309 c -0.02 0.348 -0.098 0.461 -0.176 0.258 c -0.074 -0.199 -0.254 -0.359 -0.398 -0.359 c -0.145 0 -0.305 -0.758 -0.359 -1.688" fill="url(#0)"/><path d="m 17.11 5.594 c -0.023 0.004 -0.043 0.504 -0.078 1.566 c -0.059 1.777 -0.117 2 -0.473 1.68 c -0.301 -0.273 -0.449 -0.301 -0.566 -0.102 c -0.086 0.145 -0.18 0.031 -0.215 -0.25 c -0.031 -0.266 -0.066 -0.344 -0.129 -0.211 v 8.414 c 0.262 1.301 0.266 1.301 0.43 0.441 c 0.215 -1.121 0.82 -0.898 0.98 0.359 c 0.098 0.766 0.125 0.707 0.168 -0.383 c 0.047 -1.133 0.105 -1.277 0.492 -1.055 c 0.242 0.141 0.465 0.496 0.488 0.793 c 0.043 0.508 0.059 0.5 0.195 -0.078 c 0.148 -0.609 0.148 -0.609 0.355 -0.102 c 0.188 0.469 0.242 0.438 0.609 -0.41 c 0.332 -0.762 0.418 -0.832 0.504 -0.406 c 0.207 1.059 0.395 1.445 0.672 1.328 c 0.16 -0.07 0.309 0 0.32 0.145 c 0.004 0.074 0.039 0.094 0.086 0.066 v -11.152 c -0.074 0.145 -0.141 0.363 -0.172 0.664 c -0.059 0.563 -0.227 0.852 -0.465 0.82 c -0.254 -0.035 -0.383 0.285 -0.418 1.023 c -0.039 0.883 -0.07 0.938 -0.164 0.305 c -0.066 -0.422 -0.23 -0.766 -0.371 -0.766 c -0.145 0 -0.32 -0.254 -0.391 -0.563 c -0.066 -0.309 -0.145 -0.035 -0.168 0.613 c -0.047 1.313 -0.465 1.566 -0.766 0.461 c -0.109 -0.398 -0.316 -0.672 -0.465 -0.609 c -0.148 0.063 -0.316 -0.602 -0.371 -1.484 c -0.047 -0.727 -0.07 -1.109 -0.09 -1.109" fill="url(#1)"/><path d="m 20.457 17.332 v -0.117 c -0.016 0.004 -0.031 0.004 -0.043 0.012 c -0.023 0.008 -0.039 0.012 -0.051 0.012 c -0.012 0 -0.023 -0.004 -0.043 -0.016 c -0.039 -0.023 -0.094 -0.086 -0.148 -0.188 c -0.102 -0.207 -0.203 -0.566 -0.305 -1.098 c -0.02 -0.105 -0.043 -0.184 -0.074 -0.238 c -0.016 -0.027 -0.035 -0.055 -0.094 -0.07 c -0.027 -0.004 -0.063 0 -0.086 0.008 c -0.023 0.008 -0.039 0.02 -0.051 0.031 c -0.059 0.043 -0.098 0.109 -0.152 0.223 c -0.059 0.109 -0.125 0.254 -0.211 0.449 c -0.09 0.211 -0.16 0.367 -0.219 0.48 c -0.055 0.098 -0.094 0.145 -0.113 0.164 c -0.031 -0.039 -0.07 -0.121 -0.117 -0.234 c -0.051 -0.129 -0.09 -0.227 -0.121 -0.289 c -0.02 -0.035 -0.031 -0.059 -0.051 -0.078 c -0.012 -0.012 -0.02 -0.023 -0.043 -0.035 c -0.023 -0.008 -0.066 -0.016 -0.098 -0.008 c -0.063 0.02 -0.066 0.047 -0.078 0.07 c -0.016 0.027 -0.027 0.059 -0.039 0.098 c -0.023 0.082 -0.051 0.195 -0.086 0.348 c -0.012 0.047 -0.016 0.066 -0.027 0.105 c 0 -0.012 0 -0.012 0 -0.023 c -0.027 -0.313 -0.242 -0.672 -0.52 -0.832 c -0.102 -0.055 -0.184 -0.102 -0.289 -0.102 c -0.051 0 -0.105 0.02 -0.145 0.043 c -0.035 0.027 -0.059 0.063 -0.078 0.105 c -0.074 0.168 -0.098 0.484 -0.121 1.051 c -0.004 0.129 -0.012 0.199 -0.016 0.297 c -0.039 -0.273 -0.102 -0.504 -0.18 -0.672 c -0.086 -0.188 -0.176 -0.313 -0.316 -0.363 c -0.074 -0.027 -0.16 -0.023 -0.23 0.004 c -0.07 0.027 -0.125 0.074 -0.176 0.141 c -0.098 0.129 -0.176 0.328 -0.23 0.613 c -0.035 0.18 -0.059 0.293 -0.082 0.395 c -0.008 -0.035 -0.016 -0.059 -0.027 -0.102 c -0.039 -0.168 -0.086 -0.41 -0.152 -0.734 v -0.668 l -0.004 -0.004 c -0.047 -0.145 -0.086 -0.238 -0.141 -0.297 c -0.016 -0.016 -0.027 -0.027 -0.063 -0.039 c -0.031 -0.012 -0.09 -0.008 -0.113 0.008 c -0.055 0.031 -0.055 0.066 -0.066 0.109 c -0.027 0.121 -0.082 0.215 -0.137 0.266 c -0.027 0.027 -0.055 0.039 -0.07 0.043 c -0.02 0.004 -0.027 0.004 -0.043 -0.004 c -0.035 -0.016 -0.086 -0.02 -0.129 -0.012 c -0.039 0.012 -0.07 0.031 -0.094 0.051 c -0.047 0.043 -0.078 0.098 -0.109 0.172 c -0.059 0.148 -0.102 0.359 -0.113 0.605 c -0.004 0.121 -0.012 0.195 -0.016 0.277 c -0.004 -0.012 -0.008 -0.012 -0.012 -0.023 c -0.035 -0.148 -0.063 -0.262 -0.09 -0.336 c -0.016 -0.035 -0.027 -0.066 -0.055 -0.094 c -0.016 -0.012 -0.039 -0.027 -0.078 -0.031 c -0.035 -0.004 -0.074 0.008 -0.094 0.02 c -0.039 0.023 -0.055 0.051 -0.078 0.086 c -0.023 0.035 -0.047 0.082 -0.074 0.145 c -0.055 0.117 -0.125 0.289 -0.215 0.512 c -0.066 0.168 -0.125 0.297 -0.172 0.395 c -0.023 0.051 -0.039 0.063 -0.059 0.094 c -0.004 -0.027 -0.012 -0.031 -0.012 -0.07 c -0.023 -0.32 -0.188 -0.625 -0.41 -0.84 c -0.109 -0.109 -0.238 -0.199 -0.375 -0.25 c -0.141 -0.055 -0.293 -0.074 -0.438 -0.039 c -0.055 0.012 -0.117 -0.004 -0.191 -0.063 c -0.074 -0.063 -0.141 -0.164 -0.172 -0.285 c -0.027 -0.105 -0.055 -0.188 -0.086 -0.242 c -0.016 -0.027 -0.027 -0.051 -0.066 -0.074 c -0.02 -0.008 -0.047 -0.016 -0.078 -0.016 c -0.027 0 -0.051 0.008 -0.07 0.016 c -0.074 0.031 -0.109 0.086 -0.172 0.176 c -0.059 0.09 -0.137 0.211 -0.23 0.375 l -0.297 0.523 l -0.07 -0.262 l -0.168 0.012 v 0.551 c -0.02 -0.316 -0.035 -0.598 -0.051 -0.777 c -0.008 -0.102 -0.02 -0.184 -0.031 -0.246 c -0.008 -0.063 -0.016 -0.102 -0.031 -0.133 c -0.004 -0.008 -0.008 -0.016 -0.016 -0.027 c -0.012 -0.008 -0.035 -0.027 -0.074 -0.027 c -0.039 -0.004 -0.066 0.012 -0.078 0.023 c -0.012 0.008 -0.016 0.016 -0.02 0.023 c -0.02 0.031 -0.031 0.066 -0.047 0.125 c -0.035 0.113 -0.07 0.297 -0.121 0.543 c -0.035 0.184 -0.066 0.328 -0.094 0.434 c -0.004 -0.012 -0.004 -0.012 -0.004 -0.023 c -0.016 -0.133 -0.031 -0.238 -0.047 -0.313 c -0.008 -0.039 -0.02 -0.066 -0.027 -0.094 c -0.012 -0.027 -0.02 -0.047 -0.055 -0.07 c -0.016 -0.012 -0.043 -0.02 -0.074 -0.02 c -0.027 -0.004 -0.051 0.004 -0.066 0.012 c -0.035 0.016 -0.055 0.035 -0.074 0.059 c -0.043 0.047 -0.086 0.113 -0.145 0.203 c -0.039 0.066 -0.066 0.105 -0.098 0.148 c -0.004 -0.051 -0.008 -0.102 -0.008 -0.184 c -0.008 -0.141 -0.047 -0.254 -0.121 -0.332 c -0.035 -0.039 -0.082 -0.07 -0.141 -0.086 c -0.063 -0.016 -0.137 -0.008 -0.191 0.016 c -0.031 0.012 -0.047 0.016 -0.063 0.012 c -0.016 0 -0.027 -0.004 -0.047 -0.02 c -0.035 -0.027 -0.074 -0.094 -0.078 -0.188 c -0.008 -0.098 -0.02 -0.164 -0.043 -0.215 c -0.008 -0.023 -0.02 -0.047 -0.051 -0.066 c -0.031 -0.02 -0.098 -0.023 -0.133 -0.008 c -0.07 0.023 -0.09 0.063 -0.125 0.113 c -0.031 0.055 -0.063 0.125 -0.098 0.203 c -0.129 0.328 -0.258 0.859 -0.266 1.332 c -0.008 0.27 -0.035 0.461 -0.07 0.574 c -0.016 0.047 -0.031 0.074 -0.043 0.09 c -0.012 -0.008 -0.023 -0.016 -0.043 -0.043 c -0.027 -0.043 -0.063 -0.105 -0.094 -0.188 c -0.066 -0.16 -0.133 -0.391 -0.195 -0.688 c -0.055 -0.262 -0.137 -0.477 -0.238 -0.629 c -0.047 -0.074 -0.102 -0.137 -0.164 -0.18 c -0.066 -0.043 -0.148 -0.07 -0.234 -0.059 c -0.152 0.023 -0.277 -0.043 -0.289 -0.152 c -0.004 -0.02 -0.008 -0.035 -0.02 -0.055 c -0.008 -0.012 -0.016 -0.023 -0.031 -0.031 c -0.02 -0.012 -0.047 -0.016 -0.074 -0.016 c -0.047 0 -0.07 0.02 -0.086 0.035 c -0.016 0.012 -0.031 0.027 -0.043 0.047 c -0.059 0.074 -0.121 0.199 -0.184 0.371 c -0.031 0.082 -0.047 0.121 -0.07 0.172 c -0.004 -0.016 -0.008 -0.027 -0.008 -0.047 c -0.016 -0.121 -0.027 -0.297 -0.043 -0.523 l -0.063 -1.023 l -0.164 -0.016 l -0.344 0.715 c -0.184 0.391 -0.508 0.898 -0.699 1.113 c -0.082 0.098 -0.148 0.168 -0.195 0.207 c -0.004 0.004 -0.004 0 -0.008 0.004 c -0.004 -0.016 -0.012 -0.035 -0.016 -0.066 c -0.016 -0.07 -0.027 -0.18 -0.043 -0.32 c -0.004 -0.047 -0.008 -0.078 -0.016 -0.109 c -0.008 -0.027 -0.004 -0.043 -0.047 -0.074 c -0.023 -0.012 -0.078 -0.02 -0.109 -0.008 c -0.031 0.008 -0.043 0.02 -0.051 0.031 c -0.02 0.02 -0.031 0.043 -0.043 0.074 c -0.051 0.121 -0.105 0.359 -0.16 0.695 c -0.016 0.098 -0.023 0.152 -0.035 0.223 v 0.762 c 0.004 -0.004 0.016 -0.008 0.016 -0.012 c 0.016 -0.016 0.016 -0.027 0.023 -0.043 c 0.004 -0.016 0.008 -0.035 0.016 -0.055 c 0.012 -0.047 0.023 -0.105 0.035 -0.184 c 0.027 -0.156 0.066 -0.379 0.113 -0.676 c 0.039 -0.234 0.074 -0.348 0.109 -0.473 c 0.008 0.063 0.016 0.141 0.023 0.188 c 0.008 0.039 0.016 0.07 0.027 0.098 c 0.016 0.027 0.027 0.055 0.066 0.074 c 0.023 0.008 0.051 0.016 0.078 0.016 c 0.027 0 0.047 -0.008 0.066 -0.016 c 0.035 -0.012 0.059 -0.031 0.086 -0.059 c 0.059 -0.047 0.121 -0.117 0.207 -0.215 c 0.207 -0.234 0.527 -0.738 0.715 -1.137 l 0.199 -0.414 l 0.043 0.707 c 0.016 0.227 0.027 0.398 0.043 0.523 c 0.004 0.063 0.016 0.113 0.023 0.152 c 0.008 0.039 0.012 0.07 0.031 0.094 c 0.008 0.016 0.023 0.031 0.063 0.043 c 0.039 0.012 0.086 -0.004 0.105 -0.016 c 0.039 -0.023 0.047 -0.047 0.063 -0.078 c 0.035 -0.066 0.074 -0.164 0.125 -0.301 c 0.051 -0.141 0.098 -0.223 0.141 -0.289 c 0.07 0.125 0.254 0.207 0.457 0.176 c 0.02 -0.004 0.039 0 0.082 0.027 c 0.039 0.027 0.086 0.078 0.129 0.145 c 0.09 0.137 0.168 0.344 0.223 0.602 c 0.063 0.301 0.133 0.535 0.199 0.703 c 0.035 0.082 0.07 0.148 0.105 0.199 c 0.035 0.051 0.066 0.09 0.129 0.117 c 0.027 0.012 0.074 0.016 0.109 0.008 c 0.039 -0.008 0.063 -0.027 0.082 -0.043 c 0.039 -0.039 0.063 -0.086 0.082 -0.148 c 0.043 -0.129 0.066 -0.328 0.074 -0.602 c 0.012 -0.457 0.137 -0.988 0.262 -1.301 c 0.031 -0.078 0.063 -0.141 0.09 -0.188 c 0.012 0.035 0.02 0.066 0.023 0.133 c 0.008 0.113 0.047 0.203 0.125 0.262 c 0.039 0.031 0.09 0.051 0.148 0.059 c 0.059 0.004 0.121 -0.008 0.172 -0.031 c 0.027 -0.008 0.035 -0.008 0.047 -0.004 c 0.012 0.004 0.035 0.016 0.059 0.039 c 0.047 0.051 0.086 0.148 0.09 0.273 c 0.008 0.109 0.008 0.191 0.02 0.254 c 0 0.027 0.008 0.051 0.016 0.074 c 0.004 0.008 0.008 0.02 0.02 0.031 c 0.008 0.012 0.027 0.027 0.063 0.031 c 0.031 0.008 0.066 0 0.082 -0.008 c 0.02 -0.008 0.027 -0.016 0.035 -0.023 c 0.02 -0.02 0.035 -0.039 0.055 -0.063 c 0.039 -0.051 0.086 -0.125 0.145 -0.223 c 0.047 -0.07 0.078 -0.117 0.109 -0.156 c 0.004 0.016 0.008 0.023 0.012 0.039 c 0.012 0.07 0.027 0.172 0.039 0.305 c 0.016 0.113 0.027 0.188 0.047 0.238 c 0.004 0.016 0.008 0.027 0.02 0.039 c 0.008 0.012 0.023 0.027 0.063 0.035 c 0.039 0.008 0.082 -0.008 0.098 -0.02 c 0.02 -0.012 0.027 -0.02 0.035 -0.031 c 0.027 -0.047 0.051 -0.113 0.078 -0.223 c 0.031 -0.109 0.063 -0.258 0.098 -0.445 c 0.031 -0.152 0.051 -0.234 0.074 -0.336 c 0.004 0.02 0.004 0.027 0.008 0.051 c 0.016 0.207 0.035 0.5 0.059 0.895 c 0.02 0.359 0.047 0.633 0.074 0.816 c 0.016 0.09 0.027 0.156 0.047 0.203 c 0.008 0.023 0.012 0.039 0.031 0.063 c 0.012 0.008 0.035 0.027 0.078 0.027 c 0.043 0 0.07 -0.02 0.082 -0.027 l 0.016 -0.016 v -1.117 l 0.012 0.051 l 0.109 -0.191 l 0.406 -0.715 c 0.094 -0.16 0.168 -0.281 0.223 -0.367 c 0.043 -0.063 0.066 -0.078 0.082 -0.098 c 0.023 0.043 0.047 0.109 0.07 0.211 c 0.039 0.137 0.113 0.254 0.211 0.336 c 0.098 0.082 0.238 0.129 0.375 0.098 c 0.094 -0.023 0.191 -0.012 0.301 0.031 c 0.105 0.043 0.219 0.117 0.32 0.215 c 0.203 0.195 0.355 0.484 0.379 0.781 c 0.004 0.098 0.016 0.16 0.043 0.207 c 0.008 0.012 0.016 0.023 0.031 0.035 c 0.016 0.012 0.047 0.023 0.078 0.023 c 0.066 0 0.09 -0.027 0.113 -0.047 c 0.043 -0.047 0.082 -0.109 0.133 -0.211 c 0.047 -0.102 0.105 -0.234 0.176 -0.402 c 0.09 -0.223 0.16 -0.391 0.211 -0.508 c 0.023 -0.047 0.043 -0.082 0.059 -0.113 c 0.023 0.066 0.051 0.164 0.086 0.305 c 0.031 0.129 0.055 0.223 0.074 0.285 c 0.012 0.027 0.02 0.047 0.043 0.07 c 0.008 0.012 0.027 0.035 0.082 0.035 c 0.023 0.004 0.047 -0.008 0.063 -0.016 c 0.012 -0.008 0.02 -0.016 0.023 -0.02 c 0.02 -0.027 0.023 -0.047 0.027 -0.078 c 0.008 -0.031 0.016 -0.07 0.02 -0.121 c 0.012 -0.102 0.02 -0.242 0.027 -0.422 c 0.016 -0.242 0.055 -0.445 0.105 -0.578 c 0.027 -0.066 0.063 -0.113 0.082 -0.133 c 0.008 -0.008 0.012 -0.008 0.012 -0.008 c 0.055 0.02 0.121 0.023 0.176 0.012 c 0.063 -0.016 0.109 -0.043 0.148 -0.082 c 0.066 -0.063 0.113 -0.152 0.148 -0.254 c 0.023 0.043 0.047 0.074 0.074 0.156 v 0.668 c 0.066 0.324 0.113 0.57 0.156 0.738 c 0.02 0.086 0.039 0.152 0.055 0.203 c 0.016 0.051 0.023 0.082 0.055 0.113 c 0.008 0.008 0.016 0.016 0.035 0.023 c 0.02 0.008 0.055 0.012 0.082 0.008 c 0.051 -0.012 0.059 -0.035 0.066 -0.051 c 0.02 -0.027 0.035 -0.066 0.047 -0.117 c 0.031 -0.102 0.063 -0.262 0.102 -0.477 c 0.055 -0.277 0.133 -0.469 0.215 -0.574 c 0.039 -0.055 0.078 -0.086 0.105 -0.094 c 0.031 -0.012 0.039 -0.012 0.066 0 c 0.059 0.02 0.16 0.117 0.238 0.293 c 0.082 0.172 0.148 0.418 0.188 0.73 c 0.023 0.191 0.047 0.332 0.063 0.418 c 0.012 0.047 0.016 0.074 0.027 0.098 c 0.004 0.008 0.004 0.012 0.012 0.02 c 0.008 0.008 0.027 0.027 0.07 0.031 c 0.023 0.004 0.043 -0.004 0.059 -0.012 c 0.012 -0.004 0.02 -0.012 0.027 -0.016 c 0.008 -0.012 0.008 -0.016 0.012 -0.023 c 0.012 -0.023 0.016 -0.055 0.02 -0.098 c 0.008 -0.043 0.012 -0.102 0.016 -0.176 c 0.012 -0.148 0.023 -0.355 0.031 -0.629 c 0.023 -0.566 0.055 -0.891 0.113 -1.02 c 0.016 -0.031 0.035 -0.055 0.043 -0.063 c 0.012 -0.008 0.012 -0.004 0.02 -0.004 c 0.016 0 0.086 0.023 0.18 0.074 c 0.211 0.121 0.434 0.473 0.457 0.75 c 0.012 0.129 0.02 0.223 0.031 0.289 c 0.004 0.031 0.012 0.055 0.02 0.074 c 0.004 0.012 0.004 0.02 0.016 0.035 c 0.008 0.008 0.02 0.016 0.047 0.023 c 0.023 0.008 0.059 0.004 0.074 -0.004 c 0.039 -0.016 0.039 -0.027 0.047 -0.035 c 0.004 -0.012 0.012 -0.02 0.016 -0.031 c 0.008 -0.023 0.02 -0.055 0.031 -0.094 c 0.023 -0.074 0.051 -0.184 0.086 -0.328 c 0.035 -0.152 0.059 -0.262 0.082 -0.336 c 0.027 0.059 0.059 0.133 0.105 0.238 c 0.047 0.121 0.086 0.207 0.129 0.266 c 0.023 0.031 0.047 0.055 0.098 0.074 c 0.023 0.008 0.059 0.008 0.086 0.004 c 0.027 -0.004 0.047 -0.016 0.066 -0.027 c 0.07 -0.047 0.105 -0.117 0.168 -0.23 c 0.059 -0.117 0.133 -0.281 0.227 -0.492 c 0.082 -0.191 0.152 -0.336 0.207 -0.441 c 0.035 -0.074 0.059 -0.102 0.082 -0.133 c 0.016 0.039 0.031 0.078 0.047 0.156 c 0.102 0.531 0.203 0.895 0.316 1.117 c 0.055 0.113 0.113 0.191 0.195 0.238 c 0.039 0.027 0.09 0.039 0.141 0.043 c 0.039 0.004 0.07 -0.012 0.105 -0.02"/><path d="m 4.641 7.371 v 0.371 l 0.277 -0.578 l 0.203 -0.426 l 0.078 0.82 c 0.039 0.418 0.078 0.672 0.141 0.801 c 0.016 0.031 0.035 0.059 0.066 0.082 c 0.016 0.008 0.039 0.02 0.066 0.023 c 0.027 0.004 0.059 0 0.082 -0.008 c 0.043 -0.016 0.066 -0.035 0.09 -0.063 c 0.023 -0.027 0.047 -0.063 0.07 -0.102 c 0.023 -0.039 0.035 -0.047 0.055 -0.066 c 0.012 0.035 0.027 0.07 0.035 0.148 c 0.012 0.102 0.02 0.238 0.023 0.41 c 0.008 0.332 0.047 0.539 0.113 0.652 c 0.016 0.031 0.035 0.055 0.063 0.074 c 0.027 0.02 0.074 0.035 0.121 0.031 c 0.043 0 0.078 -0.016 0.105 -0.035 c 0.027 -0.02 0.051 -0.039 0.07 -0.066 c 0.086 -0.109 0.16 -0.293 0.223 -0.543 c 0.063 -0.25 0.105 -0.566 0.121 -0.93 c 0.012 -0.211 0.027 -0.285 0.043 -0.398 c 0.016 0.055 0.031 0.113 0.047 0.156 c 0.027 0.07 0.051 0.121 0.102 0.156 c 0.023 0.02 0.059 0.039 0.102 0.043 c 0.039 0.004 0.078 -0.004 0.109 -0.02 c 0.063 -0.027 0.105 -0.07 0.16 -0.125 c 0.035 -0.039 0.051 -0.051 0.07 -0.063 c 0.008 0.02 0.02 0.039 0.027 0.09 c 0.012 0.063 0.016 0.148 0.016 0.258 c 0.004 0.176 0.039 0.367 0.094 0.539 c 0.059 0.172 0.129 0.32 0.219 0.414 c 0.027 0.031 0.059 0.059 0.113 0.07 c 0.031 0.008 0.063 0.008 0.094 0 c 0.027 -0.012 0.047 -0.023 0.063 -0.035 c 0.066 -0.055 0.09 -0.137 0.117 -0.266 c 0.059 -0.258 0.098 -0.695 0.121 -1.332 v -0.109 c 0.027 0.445 0.082 0.855 0.145 1.152 c 0.035 0.156 0.07 0.281 0.109 0.371 c 0.02 0.047 0.035 0.082 0.063 0.113 c 0.012 0.012 0.023 0.027 0.043 0.039 c 0.02 0.012 0.051 0.023 0.086 0.023 c 0.027 0 0.094 0.023 0.156 0.082 c 0.063 0.059 0.125 0.141 0.16 0.23 c 0.02 0.055 0.031 0.09 0.078 0.125 c 0.012 0.008 0.027 0.016 0.051 0.02 c 0.02 0.004 0.051 0 0.07 -0.004 c 0.043 -0.012 0.055 -0.031 0.066 -0.051 c 0.047 -0.07 0.066 -0.18 0.074 -0.355 c 0.008 -0.117 0.02 -0.211 0.031 -0.277 c 0.012 -0.055 0.027 -0.078 0.035 -0.094 c 0.023 0.016 0.059 0.043 0.105 0.094 c 0.055 0.059 0.102 0.102 0.168 0.129 c 0.035 0.012 0.082 0.02 0.125 0.008 c 0.039 -0.012 0.07 -0.031 0.09 -0.055 c 0.035 -0.047 0.055 -0.105 0.07 -0.191 c 0.016 -0.086 0.027 -0.195 0.035 -0.332 l 0.016 -0.305 l 0.078 0.215 l 0.23 0.613 l 0.168 -0.008 l 0.082 -0.613 c 0.004 -0.027 0.004 -0.027 0.008 -0.051 c 0.004 0.004 0.004 0.004 0.004 0.008 c 0.027 0.109 0.059 0.262 0.098 0.453 c 0.051 0.246 0.09 0.43 0.117 0.543 c 0.016 0.059 0.027 0.098 0.047 0.125 c 0.004 0.008 0.008 0.016 0.02 0.023 c 0.012 0.012 0.039 0.027 0.078 0.027 c 0.039 -0.004 0.063 -0.02 0.074 -0.027 c 0.008 -0.012 0.012 -0.02 0.02 -0.027 c 0.016 -0.031 0.023 -0.074 0.031 -0.133 c 0.012 -0.063 0.02 -0.145 0.027 -0.25 c 0.016 -0.184 0.031 -0.461 0.055 -0.781 v 0.121 l 0.168 0.008 v -0.008 l 0.066 -0.457 l 0.145 0.516 c 0.098 0.355 0.164 0.563 0.266 0.672 c 0.023 0.023 0.055 0.047 0.098 0.063 c 0.043 0.012 0.098 0.008 0.137 -0.004 c 0.078 -0.027 0.125 -0.078 0.184 -0.148 c 0.082 -0.105 0.176 -0.289 0.266 -0.508 c 0.09 -0.219 0.176 -0.469 0.234 -0.707 c 0.07 -0.281 0.18 -0.512 0.297 -0.668 c 0.055 -0.082 0.117 -0.141 0.168 -0.18 c 0.055 -0.043 0.105 -0.059 0.133 -0.063 c 0.008 0 0.012 -0.004 0.012 -0.004 c 0.012 0 0.023 0.004 0.039 0.016 c 0.016 0.012 0.039 0.031 0.055 0.063 c 0.039 0.066 0.063 0.176 0.063 0.332 c 0 0.152 0.035 0.289 0.09 0.395 c 0.027 0.051 0.063 0.094 0.105 0.129 c 0.043 0.031 0.102 0.059 0.172 0.059 c -0.004 0 0.02 0.004 0.047 0.031 c 0.031 0.027 0.066 0.07 0.098 0.129 c 0.066 0.113 0.121 0.277 0.148 0.453 c 0.023 0.145 0.043 0.25 0.07 0.32 c 0.012 0.031 0.012 0.059 0.059 0.086 c 0.023 0.016 0.074 0.023 0.109 0.012 c 0.035 -0.008 0.047 -0.023 0.063 -0.035 c 0.047 -0.055 0.07 -0.133 0.117 -0.27 c 0.043 -0.133 0.102 -0.324 0.168 -0.57 l 0.23 -0.848 l 0.32 0.953 c 0.094 0.285 0.168 0.504 0.227 0.664 c 0.059 0.156 0.098 0.254 0.145 0.313 c 0.016 0.016 0.027 0.027 0.051 0.039 c 0.027 0.012 0.074 0.02 0.109 0.008 c 0.066 -0.02 0.074 -0.047 0.09 -0.082 c 0.039 -0.066 0.07 -0.172 0.113 -0.32 v -0.137 c 0.016 0.051 0.035 0.094 0.063 0.125 c 0.016 0.016 0.031 0.031 0.059 0.043 c 0.027 0.012 0.07 0.016 0.105 0.008 c 0.066 -0.02 0.09 -0.051 0.113 -0.094 c 0.027 -0.047 0.055 -0.074 0.07 -0.086 c 0.02 -0.012 0.02 -0.012 0.043 -0.008 c 0.043 0.008 0.16 0.074 0.309 0.207 c 0.047 0.043 0.086 0.078 0.129 0.102 c 0.043 0.027 0.094 0.051 0.16 0.047 c 0.063 -0.004 0.113 -0.039 0.141 -0.074 c 0.027 -0.039 0.047 -0.086 0.066 -0.148 c 0.07 -0.25 0.098 -0.75 0.125 -1.637 c 0.008 -0.141 0.008 -0.191 0.012 -0.313 c 0.031 0.379 0.078 0.719 0.141 0.961 c 0.035 0.137 0.07 0.242 0.109 0.316 c 0.02 0.039 0.043 0.066 0.074 0.094 c 0.016 0.012 0.039 0.023 0.07 0.027 c 0.031 0.004 0.07 0 0.094 -0.012 c 0 0 0.012 0.004 0.023 0.008 c 0.027 0.016 0.063 0.051 0.102 0.102 c 0.078 0.102 0.16 0.266 0.211 0.461 c 0.078 0.277 0.16 0.473 0.25 0.594 c 0.043 0.059 0.086 0.105 0.152 0.129 c 0.066 0.027 0.156 0.02 0.215 -0.012 c 0.109 -0.07 0.164 -0.195 0.219 -0.391 c 0.051 -0.195 0.086 -0.461 0.098 -0.789 c 0.012 -0.23 0.031 -0.344 0.047 -0.465 c 0.035 0.102 0.078 0.195 0.129 0.27 c 0.039 0.055 0.078 0.102 0.125 0.137 c 0.047 0.035 0.102 0.063 0.172 0.063 c -0.012 0 0.012 0.004 0.039 0.035 c 0.031 0.031 0.063 0.086 0.098 0.148 c 0.063 0.137 0.121 0.324 0.152 0.531 c 0.023 0.156 0.043 0.273 0.063 0.348 c 0.008 0.035 0.012 0.059 0.027 0.082 c 0.004 0.004 0.008 0.012 0.016 0.02 c 0.008 0.008 0.027 0.023 0.066 0.023 c 0.035 0.004 0.066 -0.012 0.078 -0.02 c 0.012 -0.012 0.012 -0.02 0.016 -0.023 c 0.012 -0.023 0.02 -0.047 0.023 -0.086 c 0.008 -0.035 0.012 -0.082 0.016 -0.145 c 0.012 -0.121 0.02 -0.289 0.031 -0.512 c 0.016 -0.363 0.059 -0.625 0.121 -0.785 c 0.035 -0.078 0.07 -0.133 0.105 -0.156 c 0.031 -0.027 0.051 -0.027 0.09 -0.023 c 0.082 0.012 0.172 -0.008 0.234 -0.051 c 0.027 -0.016 0.043 -0.047 0.063 -0.066 v -0.305 c -0.02 0.055 -0.039 0.117 -0.063 0.156 c -0.035 0.063 -0.078 0.105 -0.113 0.129 c -0.035 0.023 -0.055 0.027 -0.09 0.02 c -0.09 -0.012 -0.184 0.016 -0.246 0.063 c -0.063 0.047 -0.105 0.113 -0.141 0.203 c -0.074 0.18 -0.113 0.445 -0.133 0.816 c -0.004 0.098 -0.008 0.148 -0.012 0.23 c -0.035 -0.188 -0.082 -0.355 -0.145 -0.484 c -0.035 -0.07 -0.074 -0.133 -0.117 -0.176 c -0.043 -0.047 -0.094 -0.09 -0.18 -0.09 c 0 0 -0.016 0 -0.047 -0.023 c -0.027 -0.023 -0.063 -0.059 -0.098 -0.109 c -0.066 -0.094 -0.125 -0.23 -0.156 -0.379 c -0.012 -0.043 -0.02 -0.074 -0.031 -0.098 c -0.004 -0.012 -0.012 -0.023 -0.02 -0.031 c -0.004 -0.012 -0.012 -0.027 -0.039 -0.039 c -0.027 -0.012 -0.09 -0.008 -0.113 0.004 c -0.023 0.016 -0.027 0.023 -0.035 0.035 c -0.016 0.02 -0.023 0.043 -0.031 0.074 c -0.035 0.121 -0.059 0.352 -0.07 0.676 c -0.012 0.324 -0.047 0.586 -0.098 0.773 c -0.047 0.184 -0.125 0.297 -0.164 0.32 c -0.016 0.012 -0.004 0.008 -0.016 0.004 c -0.016 -0.008 -0.051 -0.035 -0.09 -0.086 c -0.074 -0.098 -0.156 -0.289 -0.23 -0.563 c -0.055 -0.203 -0.137 -0.375 -0.227 -0.492 c -0.047 -0.059 -0.094 -0.105 -0.152 -0.137 c -0.027 -0.016 -0.059 -0.027 -0.098 -0.031 c -0.023 -0.004 -0.047 0.004 -0.07 0.008 c -0.008 -0.008 -0.023 -0.02 -0.035 -0.043 c -0.035 -0.063 -0.07 -0.164 -0.105 -0.297 c -0.066 -0.266 -0.121 -0.648 -0.148 -1.09 c -0.023 -0.363 -0.043 -0.641 -0.055 -0.828 c -0.008 -0.094 -0.016 -0.164 -0.02 -0.215 c -0.004 -0.023 -0.004 -0.039 -0.008 -0.055 c 0 -0.008 -0.004 -0.016 -0.008 -0.023 c -0.004 -0.004 -0.004 -0.008 -0.012 -0.016 c -0.004 -0.008 -0.012 -0.012 -0.027 -0.02 c -0.012 -0.004 -0.039 -0.012 -0.063 -0.008 c -0.051 0.008 -0.059 0.027 -0.063 0.035 c -0.004 0.008 -0.008 0.012 -0.008 0.016 c -0.004 0.008 -0.004 0.016 -0.004 0.023 c -0.004 0.02 -0.008 0.043 -0.008 0.074 c -0.008 0.066 -0.012 0.164 -0.016 0.293 c -0.012 0.258 -0.027 0.648 -0.047 1.18 c -0.031 0.887 -0.059 1.391 -0.125 1.617 c -0.016 0.059 -0.035 0.094 -0.047 0.117 c -0.016 0.02 -0.02 0.016 -0.008 0.012 c 0.008 0 -0.008 0 -0.035 -0.016 c -0.027 -0.016 -0.063 -0.043 -0.102 -0.082 c -0.156 -0.141 -0.27 -0.227 -0.402 -0.25 c -0.066 -0.016 -0.145 0 -0.195 0.027 c -0.047 0.031 -0.078 0.07 -0.105 0.117 c -0.023 -0.043 -0.051 -0.105 -0.063 -0.219 c -0.02 -0.137 -0.031 -0.215 -0.063 -0.27 c -0.008 -0.016 -0.012 -0.031 -0.043 -0.047 c -0.016 -0.008 -0.043 -0.012 -0.066 -0.012 c -0.023 0.004 -0.043 0.008 -0.055 0.016 c -0.051 0.027 -0.051 0.051 -0.07 0.086 l -0.004 0.012 v 0.535 c -0.031 0.113 -0.059 0.18 -0.082 0.234 c -0.027 -0.047 -0.055 -0.094 -0.098 -0.211 c -0.055 -0.156 -0.129 -0.371 -0.227 -0.66 l -0.406 -1.223 h -0.164 l -0.305 1.125 c -0.07 0.246 -0.125 0.43 -0.168 0.566 c -0.02 0.055 -0.027 0.059 -0.043 0.098 c -0.012 -0.059 -0.027 -0.105 -0.043 -0.199 c -0.027 -0.188 -0.086 -0.359 -0.156 -0.484 c -0.035 -0.066 -0.078 -0.117 -0.125 -0.156 c -0.047 -0.043 -0.102 -0.074 -0.18 -0.074 c -0.008 0 -0.023 -0.004 -0.047 -0.023 c -0.023 -0.016 -0.051 -0.051 -0.074 -0.094 c -0.047 -0.086 -0.074 -0.211 -0.074 -0.352 c 0 -0.164 -0.027 -0.285 -0.074 -0.371 c -0.023 -0.047 -0.055 -0.082 -0.098 -0.109 c -0.039 -0.027 -0.098 -0.043 -0.152 -0.047 c -0.02 0 -0.031 0.004 -0.043 0.004 c -0.086 0.012 -0.156 0.047 -0.227 0.098 c -0.07 0.051 -0.137 0.121 -0.203 0.207 c -0.125 0.172 -0.234 0.414 -0.309 0.703 c -0.055 0.23 -0.141 0.48 -0.227 0.695 c -0.09 0.215 -0.188 0.398 -0.254 0.48 c -0.051 0.063 -0.098 0.098 -0.109 0.102 c -0.004 0 -0.008 -0.004 -0.02 -0.016 c -0.059 -0.066 -0.145 -0.277 -0.242 -0.633 l -0.25 -0.906 l -0.125 0.004 v -0.371 c -0.008 -0.047 -0.016 -0.086 -0.023 -0.113 c -0.004 -0.016 -0.008 -0.027 -0.012 -0.035 c -0.004 -0.012 -0.004 -0.02 -0.027 -0.039 c -0.016 -0.012 -0.047 -0.027 -0.082 -0.02 c -0.035 0.004 -0.051 0.016 -0.059 0.027 c -0.016 0.016 -0.02 0.023 -0.023 0.035 c -0.008 0.023 -0.012 0.051 -0.02 0.094 c -0.027 0.16 -0.051 0.504 -0.086 1.047 c -0.023 0.395 -0.043 0.688 -0.059 0.895 c -0.004 0.02 -0.004 0.027 -0.008 0.043 c -0.02 -0.102 -0.039 -0.18 -0.07 -0.328 c -0.039 -0.195 -0.07 -0.348 -0.098 -0.461 c -0.031 -0.113 -0.051 -0.184 -0.082 -0.227 c -0.008 -0.012 -0.016 -0.023 -0.035 -0.035 c -0.012 -0.008 -0.027 -0.016 -0.047 -0.016 c -0.023 -0.004 -0.047 -0.004 -0.063 0.004 c -0.035 0.012 -0.043 0.027 -0.051 0.039 c -0.008 0.012 -0.016 0.023 -0.023 0.035 c -0.02 0.051 -0.035 0.133 -0.047 0.25 l -0.039 0.281 l -0.109 -0.289 l -0.227 -0.613 l -0.164 0.012 l -0.039 0.715 c -0.008 0.137 -0.016 0.242 -0.031 0.32 c -0.012 0.074 -0.035 0.117 -0.051 0.141 c -0.016 -0.012 -0.051 -0.031 -0.094 -0.082 c -0.059 -0.059 -0.102 -0.102 -0.16 -0.133 c -0.027 -0.016 -0.066 -0.027 -0.109 -0.027 c -0.043 0.004 -0.082 0.027 -0.105 0.047 c -0.043 0.039 -0.055 0.09 -0.07 0.164 c -0.016 0.07 -0.027 0.168 -0.035 0.289 c -0.008 0.105 -0.023 0.137 -0.035 0.191 c -0.043 -0.082 -0.094 -0.16 -0.16 -0.223 c -0.074 -0.066 -0.164 -0.113 -0.266 -0.121 v -0.004 c 0 0 -0.004 0 -0.012 -0.008 c -0.012 -0.016 -0.027 -0.047 -0.047 -0.086 c -0.035 -0.082 -0.066 -0.203 -0.098 -0.355 c -0.066 -0.301 -0.121 -0.723 -0.148 -1.184 l -0.105 -1.684 v -0.004 h -0.168 v 0.004 l -0.066 1.836 c -0.02 0.637 -0.059 1.074 -0.113 1.316 c -0.027 0.109 -0.059 0.168 -0.078 0.191 c -0.004 -0.004 0 0 -0.004 -0.004 c -0.066 -0.07 -0.141 -0.215 -0.195 -0.379 c -0.051 -0.16 -0.086 -0.348 -0.09 -0.512 c 0 -0.109 -0.004 -0.199 -0.016 -0.27 c -0.012 -0.07 -0.023 -0.121 -0.059 -0.164 c -0.016 -0.02 -0.047 -0.043 -0.086 -0.051 c -0.043 -0.008 -0.082 0.004 -0.113 0.016 c -0.059 0.027 -0.098 0.063 -0.148 0.121 c -0.047 0.051 -0.086 0.078 -0.105 0.086 c -0.012 -0.012 -0.043 -0.047 -0.066 -0.109 c -0.023 -0.063 -0.047 -0.152 -0.07 -0.262 c -0.012 -0.047 -0.023 -0.082 -0.031 -0.113 c -0.012 -0.027 -0.02 -0.051 -0.039 -0.07 c -0.012 -0.012 -0.023 -0.027 -0.063 -0.035 c -0.039 -0.008 -0.082 0.008 -0.098 0.023 c -0.031 0.023 -0.035 0.039 -0.043 0.066 c -0.035 0.105 -0.059 0.324 -0.074 0.66 c -0.016 0.359 -0.063 0.672 -0.121 0.914 c -0.059 0.246 -0.137 0.426 -0.203 0.504 c -0.012 0.02 -0.023 0.027 -0.031 0.035 c -0.004 -0.004 -0.012 -0.008 -0.02 -0.023 c -0.051 -0.082 -0.094 -0.285 -0.105 -0.613 c -0.004 -0.172 -0.012 -0.309 -0.023 -0.418 c -0.016 -0.105 -0.027 -0.176 -0.059 -0.23 c -0.012 -0.023 -0.031 -0.051 -0.078 -0.066 c -0.023 -0.012 -0.055 -0.012 -0.078 -0.008 c -0.027 0.004 -0.043 0.016 -0.059 0.023 c -0.059 0.039 -0.094 0.09 -0.141 0.168 c -0.02 0.035 -0.039 0.059 -0.055 0.078 c 0 -0.004 0 -0.004 -0.004 -0.008 c -0.047 -0.094 -0.094 -0.352 -0.133 -0.77 l -0.102 -1.121 l -0.164 -0.016 l -0.344 0.715"/><path d="m 15.684 9.5 c -0.023 0.004 0.008 0.199 0.066 0.613 c 0.098 0.691 0.059 0.785 -0.316 0.707 c -0.324 -0.066 -0.469 -0.059 -0.566 0.035 c -0.07 0.066 -0.172 0.035 -0.234 -0.07 c -0.055 -0.098 -0.098 -0.121 -0.148 -0.063 l 0.047 0.203 c -0.109 0.246 -0.137 0.227 -0.613 -0.164 l -0.512 -0.418 l -0.203 0.473 c -0.176 0.414 -0.23 0.441 -0.367 0.23 c -0.09 -0.133 -0.285 -0.223 -0.434 -0.203 c -0.152 0.02 -0.297 -0.055 -0.324 -0.164 c -0.027 -0.125 -0.141 -0.168 -0.277 -0.148 c -0.008 0 -0.02 0 -0.027 0.004 c -0.219 0.039 -0.484 0.215 -0.57 0.453 c -0.074 0.199 -0.246 0.434 -0.379 0.527 c -0.191 0.133 -0.313 0.102 -0.57 -0.148 l -0.328 -0.316 l -0.047 0.348 l -0.109 -0.473 c -0.09 -0.137 -0.102 -0.023 -0.07 0.402 c 0.043 0.617 0.035 0.629 -0.246 0.277 c -0.219 -0.281 -0.293 -0.309 -0.313 -0.121 l -0.023 0.246 l -0.285 -0.207 l -0.273 -0.203 l 0.027 0.277 c 0.016 0.215 -0.055 0.262 -0.293 0.203 c -0.238 -0.063 -0.305 -0.027 -0.289 0.16 c 0.008 0.137 -0.059 0.188 -0.156 0.121 c -0.09 -0.066 -0.277 -0.105 -0.422 -0.086 c -0.141 0.02 -0.367 -0.25 -0.508 -0.602 l -0.25 -0.633 l 0.102 0.715 c 0.066 0.496 0.004 0.691 -0.211 0.637 c -0.172 -0.043 -0.34 -0.188 -0.375 -0.316 c -0.047 -0.168 -0.121 -0.191 -0.293 -0.086 c -0.18 0.109 -0.285 0.094 -0.422 -0.066 c -0.105 -0.125 -0.156 -0.035 -0.125 0.227 c 0.066 0.563 -0.41 0.902 -0.566 0.398 c -0.078 -0.262 -0.164 -0.301 -0.316 -0.16 c -0.152 0.141 -0.262 0.082 -0.414 -0.23 l -0.203 -0.418 l -0.547 0.641 l -0.094 -0.289 c -0.074 -0.234 -0.277 -0.297 -0.441 -0.227 l 1 4.297 c 0.016 -0.012 0.031 -0.023 0.051 -0.039 c 0.168 -0.148 0.254 -0.117 0.375 0.152 c 0.145 0.336 0.145 0.332 0.227 -0.152 c 0.047 -0.273 0.137 -0.395 0.199 -0.27 c 0.105 0.215 0.129 0.215 0.43 0.023 c 0.176 -0.113 0.445 -0.348 0.594 -0.523 l 0.277 -0.324 l 0.152 0.387 c 0.141 0.344 0.172 0.355 0.32 0.121 c 0.094 -0.148 0.203 -0.227 0.234 -0.176 c 0.031 0.055 0.207 0.066 0.398 0.027 c 0.211 -0.039 0.453 0.059 0.605 0.246 c 0.352 0.426 0.699 0.434 0.625 0.012 c -0.063 -0.359 0.305 -0.883 0.414 -0.594 c 0.031 0.078 0.18 0.102 0.336 0.055 c 0.152 -0.051 0.313 -0.008 0.348 0.09 c 0.063 0.168 0.07 0.168 0.27 -0.012 c 0.188 -0.168 0.234 -0.164 0.34 0.035 c 0.09 0.164 0.148 0.113 0.23 -0.191 c 0.102 -0.402 0.121 -0.395 0.355 0.195 c 0.105 0.27 0.199 0.41 0.25 0.383 l -0.152 -0.664 l 0.164 0.16 l 0.336 -0.328 c 0.309 -0.297 0.359 -0.313 0.508 -0.164 c 0.09 0.09 0.32 0.129 0.504 0.086 c 0.457 -0.102 1.086 0.039 1.188 0.27 c 0.063 0.141 0.16 0.082 0.367 -0.211 c 0.277 -0.391 0.289 -0.395 0.484 -0.184 c 0.164 0.18 0.199 0.16 0.168 -0.129 c -0.02 -0.188 0.086 -0.34 0.242 -0.336 c 0.152 0.008 0.309 -0.074 0.344 -0.184 c 0.02 -0.066 0.113 -0.039 0.234 0.059 l 0.059 0.258 c 0.375 0.465 0.379 0.461 0.465 0.109 c 0.113 -0.457 0.727 -0.453 0.996 0.012 c 0.168 0.281 0.188 0.254 0.133 -0.172 c -0.059 -0.441 -0.012 -0.504 0.387 -0.469 c 0.254 0.023 0.504 0.129 0.559 0.238 c 0.086 0.191 0.098 0.188 0.184 -0.055 c 0.09 -0.254 0.09 -0.254 0.34 -0.086 c 0.227 0.156 0.277 0.137 0.563 -0.238 c 0.262 -0.336 0.34 -0.375 0.461 -0.223 c 0.297 0.383 0.52 0.508 0.781 0.422 c 0.152 -0.047 0.301 -0.039 0.324 0.016 c 0.012 0.027 0.047 0.031 0.094 0.012 l -0.996 -4.285 c -0.063 0.066 -0.109 0.156 -0.113 0.277 c -0.008 0.223 -0.145 0.359 -0.383 0.375 c -0.254 0.02 -0.352 0.164 -0.32 0.449 c 0.039 0.344 0.016 0.371 -0.137 0.141 c -0.098 -0.152 -0.293 -0.266 -0.434 -0.246 c -0.141 0.02 -0.336 -0.055 -0.43 -0.164 c -0.098 -0.113 -0.148 0.004 -0.113 0.258 c 0.066 0.512 -0.32 0.66 -0.715 0.277 c -0.141 -0.141 -0.371 -0.215 -0.512 -0.172 c -0.141 0.043 -0.363 -0.191 -0.5 -0.523 c -0.109 -0.273 -0.168 -0.418 -0.188 -0.414" fill="url(#2)"/><path d="m 4.273 12.164 v 0.371 l 0.277 -0.578 l 0.203 -0.43 l 0.078 0.824 c 0.039 0.418 0.078 0.668 0.141 0.797 c 0.016 0.035 0.035 0.059 0.066 0.082 c 0.016 0.012 0.039 0.02 0.066 0.023 c 0.027 0.004 0.059 0 0.082 -0.004 c 0.043 -0.016 0.066 -0.039 0.09 -0.066 c 0.023 -0.027 0.047 -0.059 0.07 -0.098 c 0.023 -0.043 0.035 -0.051 0.055 -0.07 c 0.012 0.035 0.027 0.07 0.035 0.148 c 0.012 0.102 0.02 0.238 0.023 0.41 c 0.012 0.332 0.047 0.539 0.113 0.656 c 0.02 0.027 0.035 0.051 0.063 0.07 c 0.031 0.02 0.074 0.035 0.121 0.035 c 0.043 -0.004 0.078 -0.02 0.105 -0.039 c 0.027 -0.016 0.051 -0.039 0.07 -0.066 c 0.086 -0.105 0.16 -0.289 0.223 -0.539 c 0.063 -0.254 0.105 -0.57 0.125 -0.934 c 0.008 -0.207 0.023 -0.281 0.039 -0.398 c 0.016 0.055 0.031 0.117 0.047 0.156 c 0.027 0.07 0.055 0.121 0.102 0.16 c 0.023 0.02 0.059 0.035 0.102 0.039 c 0.039 0.004 0.078 -0.004 0.109 -0.02 c 0.063 -0.023 0.109 -0.066 0.16 -0.125 c 0.035 -0.035 0.051 -0.047 0.07 -0.059 c 0.008 0.016 0.02 0.035 0.027 0.086 c 0.012 0.063 0.016 0.152 0.016 0.262 c 0.004 0.172 0.043 0.363 0.098 0.535 c 0.055 0.172 0.125 0.32 0.215 0.418 c 0.031 0.031 0.059 0.059 0.117 0.07 c 0.027 0.004 0.063 0.004 0.09 -0.004 c 0.027 -0.008 0.047 -0.02 0.063 -0.035 c 0.066 -0.055 0.09 -0.137 0.117 -0.266 c 0.059 -0.258 0.098 -0.691 0.121 -1.332 v -0.109 c 0.031 0.449 0.082 0.855 0.145 1.156 c 0.035 0.152 0.07 0.277 0.109 0.371 c 0.02 0.043 0.039 0.078 0.063 0.109 c 0.012 0.016 0.023 0.027 0.043 0.039 c 0.02 0.012 0.051 0.023 0.086 0.023 c 0.027 0 0.094 0.023 0.156 0.082 c 0.066 0.059 0.125 0.141 0.16 0.234 c 0.02 0.055 0.031 0.09 0.078 0.121 c 0.012 0.008 0.027 0.016 0.051 0.02 c 0.023 0.004 0.051 0.004 0.07 -0.004 c 0.043 -0.012 0.055 -0.031 0.066 -0.051 c 0.047 -0.066 0.066 -0.176 0.078 -0.355 c 0.004 -0.117 0.016 -0.207 0.031 -0.273 c 0.008 -0.055 0.023 -0.078 0.031 -0.094 c 0.023 0.016 0.059 0.039 0.105 0.09 c 0.055 0.063 0.105 0.105 0.172 0.129 c 0.031 0.012 0.078 0.02 0.121 0.008 c 0.039 -0.008 0.07 -0.031 0.09 -0.055 c 0.035 -0.047 0.055 -0.105 0.07 -0.191 c 0.016 -0.082 0.027 -0.191 0.035 -0.328 l 0.016 -0.309 l 0.078 0.219 l 0.23 0.613 l 0.168 -0.012 l 0.082 -0.613 c 0.004 -0.023 0.008 -0.027 0.008 -0.051 c 0.004 0.008 0.004 0.004 0.004 0.012 c 0.027 0.109 0.059 0.258 0.098 0.453 c 0.051 0.242 0.09 0.426 0.121 0.543 c 0.016 0.055 0.023 0.094 0.043 0.125 c 0.004 0.008 0.012 0.012 0.02 0.023 c 0.012 0.008 0.039 0.023 0.078 0.023 c 0.039 0 0.063 -0.016 0.074 -0.027 c 0.012 -0.012 0.016 -0.02 0.02 -0.027 c 0.016 -0.031 0.023 -0.07 0.031 -0.133 c 0.012 -0.063 0.02 -0.145 0.027 -0.25 c 0.016 -0.18 0.035 -0.457 0.055 -0.777 v 0.121 l 0.168 0.004 v -0.004 l 0.066 -0.461 l 0.145 0.516 c 0.098 0.359 0.164 0.563 0.266 0.672 c 0.027 0.027 0.055 0.051 0.098 0.063 c 0.043 0.016 0.098 0.012 0.137 -0.004 c 0.078 -0.027 0.125 -0.078 0.184 -0.148 c 0.082 -0.105 0.176 -0.285 0.266 -0.504 c 0.09 -0.219 0.176 -0.473 0.234 -0.711 c 0.07 -0.281 0.18 -0.512 0.297 -0.668 c 0.059 -0.078 0.117 -0.141 0.168 -0.18 c 0.055 -0.039 0.105 -0.059 0.133 -0.063 c 0.008 0 0.012 0 0.012 0 c 0.012 0 0.023 0.004 0.039 0.012 c 0.016 0.012 0.039 0.031 0.055 0.066 c 0.039 0.063 0.063 0.176 0.063 0.328 c 0 0.152 0.035 0.289 0.09 0.395 c 0.027 0.051 0.063 0.094 0.105 0.129 c 0.043 0.035 0.102 0.063 0.172 0.063 c -0.004 0 0.02 0.004 0.047 0.031 c 0.031 0.023 0.066 0.07 0.098 0.125 c 0.066 0.113 0.121 0.277 0.148 0.453 c 0.023 0.148 0.047 0.254 0.07 0.32 c 0.012 0.035 0.016 0.059 0.059 0.086 c 0.023 0.016 0.074 0.023 0.109 0.016 c 0.035 -0.012 0.047 -0.027 0.063 -0.039 c 0.047 -0.055 0.07 -0.129 0.117 -0.266 c 0.047 -0.137 0.102 -0.324 0.168 -0.57 l 0.234 -0.848 l 0.316 0.949 c 0.094 0.285 0.168 0.504 0.227 0.664 c 0.059 0.16 0.098 0.254 0.145 0.313 c 0.016 0.016 0.027 0.027 0.051 0.039 c 0.027 0.012 0.074 0.02 0.109 0.012 c 0.066 -0.02 0.074 -0.051 0.094 -0.086 c 0.035 -0.066 0.066 -0.172 0.109 -0.32 v -0.137 c 0.016 0.051 0.035 0.094 0.063 0.125 c 0.016 0.016 0.031 0.031 0.059 0.043 c 0.027 0.012 0.07 0.016 0.105 0.008 c 0.066 -0.016 0.09 -0.051 0.113 -0.094 c 0.027 -0.047 0.055 -0.074 0.07 -0.086 c 0.02 -0.012 0.023 -0.008 0.043 -0.004 c 0.043 0.008 0.16 0.07 0.309 0.207 c 0.047 0.043 0.086 0.074 0.129 0.102 c 0.043 0.023 0.094 0.051 0.16 0.043 c 0.063 -0.004 0.113 -0.035 0.141 -0.074 c 0.031 -0.039 0.051 -0.086 0.066 -0.148 c 0.07 -0.25 0.098 -0.746 0.129 -1.637 c 0.004 -0.141 0.004 -0.191 0.008 -0.313 c 0.031 0.379 0.078 0.723 0.141 0.965 c 0.035 0.133 0.07 0.242 0.109 0.316 c 0.023 0.035 0.043 0.066 0.074 0.09 c 0.02 0.012 0.043 0.023 0.07 0.027 c 0.031 0.008 0.07 0 0.094 -0.008 c 0 0 0.012 0 0.023 0.008 c 0.027 0.012 0.063 0.047 0.102 0.098 c 0.078 0.102 0.16 0.266 0.211 0.461 c 0.078 0.281 0.16 0.473 0.25 0.594 c 0.043 0.063 0.086 0.105 0.152 0.133 c 0.066 0.023 0.16 0.02 0.215 -0.016 c 0.109 -0.066 0.168 -0.191 0.219 -0.391 c 0.051 -0.195 0.086 -0.457 0.098 -0.789 c 0.012 -0.227 0.031 -0.34 0.051 -0.465 c 0.035 0.102 0.074 0.199 0.125 0.273 c 0.039 0.055 0.078 0.098 0.125 0.133 c 0.047 0.035 0.102 0.063 0.172 0.063 c -0.012 0 0.012 0.004 0.039 0.035 c 0.031 0.035 0.066 0.086 0.098 0.152 c 0.063 0.133 0.121 0.32 0.152 0.527 c 0.023 0.16 0.047 0.277 0.063 0.348 c 0.008 0.039 0.012 0.059 0.027 0.082 c 0.004 0.008 0.008 0.012 0.016 0.02 c 0.008 0.008 0.027 0.023 0.066 0.027 c 0.035 0 0.066 -0.012 0.078 -0.023 c 0.012 -0.008 0.012 -0.016 0.016 -0.023 c 0.016 -0.023 0.02 -0.047 0.023 -0.082 c 0.008 -0.039 0.012 -0.086 0.016 -0.145 c 0.012 -0.121 0.02 -0.293 0.031 -0.512 c 0.016 -0.367 0.059 -0.629 0.121 -0.789 c 0.035 -0.078 0.07 -0.129 0.105 -0.156 c 0.031 -0.023 0.051 -0.027 0.09 -0.023 c 0.082 0.012 0.172 -0.008 0.238 -0.047 c 0.023 -0.016 0.039 -0.047 0.059 -0.07 v -0.305 c -0.02 0.055 -0.039 0.117 -0.059 0.156 c -0.039 0.066 -0.082 0.109 -0.117 0.129 c -0.035 0.023 -0.055 0.027 -0.09 0.023 c -0.09 -0.012 -0.184 0.012 -0.246 0.059 c -0.063 0.051 -0.105 0.117 -0.141 0.203 c -0.074 0.18 -0.113 0.445 -0.133 0.816 c -0.004 0.102 -0.008 0.152 -0.012 0.23 c -0.035 -0.184 -0.082 -0.355 -0.145 -0.48 c -0.035 -0.074 -0.074 -0.133 -0.117 -0.18 c -0.043 -0.047 -0.094 -0.086 -0.18 -0.086 c 0.004 0 -0.016 -0.004 -0.047 -0.027 c -0.027 -0.023 -0.063 -0.059 -0.098 -0.105 c -0.066 -0.098 -0.125 -0.234 -0.156 -0.383 c -0.012 -0.039 -0.02 -0.07 -0.031 -0.098 c -0.004 -0.012 -0.012 -0.02 -0.016 -0.031 c -0.008 -0.012 -0.016 -0.023 -0.043 -0.035 c -0.027 -0.016 -0.086 -0.012 -0.113 0.004 c -0.023 0.012 -0.027 0.023 -0.035 0.031 c -0.016 0.023 -0.023 0.047 -0.031 0.074 c -0.035 0.121 -0.059 0.352 -0.07 0.676 c -0.012 0.328 -0.047 0.586 -0.098 0.773 c -0.047 0.188 -0.125 0.301 -0.164 0.32 c -0.016 0.012 0 0.012 -0.016 0.004 c -0.016 -0.004 -0.051 -0.031 -0.09 -0.082 c -0.074 -0.102 -0.156 -0.293 -0.23 -0.563 c -0.055 -0.203 -0.137 -0.375 -0.227 -0.496 c -0.047 -0.059 -0.094 -0.102 -0.152 -0.133 c -0.027 -0.02 -0.059 -0.031 -0.098 -0.035 c -0.023 -0.004 -0.047 0.004 -0.07 0.008 c -0.008 -0.004 -0.02 -0.016 -0.035 -0.043 c -0.035 -0.063 -0.07 -0.164 -0.105 -0.297 c -0.063 -0.262 -0.121 -0.648 -0.148 -1.086 c -0.023 -0.363 -0.039 -0.645 -0.055 -0.832 c -0.008 -0.094 -0.012 -0.164 -0.02 -0.211 c -0.004 -0.027 -0.004 -0.043 -0.008 -0.059 c 0 -0.008 -0.004 -0.012 -0.008 -0.02 c 0 -0.004 -0.004 -0.012 -0.012 -0.02 c -0.004 -0.004 -0.012 -0.008 -0.023 -0.016 c -0.016 -0.008 -0.039 -0.012 -0.066 -0.008 c -0.051 0.004 -0.059 0.023 -0.063 0.031 c -0.004 0.008 -0.004 0.012 -0.008 0.016 c -0.004 0.008 -0.004 0.016 -0.004 0.027 c -0.004 0.016 -0.008 0.039 -0.008 0.074 c -0.008 0.063 -0.012 0.16 -0.016 0.289 c -0.012 0.258 -0.027 0.648 -0.047 1.18 c -0.027 0.891 -0.059 1.395 -0.125 1.621 c -0.016 0.055 -0.031 0.094 -0.047 0.113 c -0.016 0.02 -0.016 0.016 -0.008 0.016 c 0.008 -0.004 -0.004 0 -0.031 -0.02 c -0.027 -0.016 -0.066 -0.043 -0.105 -0.082 c -0.156 -0.141 -0.27 -0.227 -0.402 -0.25 c -0.066 -0.012 -0.145 0 -0.195 0.031 c -0.047 0.027 -0.078 0.066 -0.105 0.113 c -0.023 -0.039 -0.051 -0.102 -0.063 -0.219 c -0.02 -0.133 -0.031 -0.215 -0.063 -0.27 c -0.008 -0.016 -0.012 -0.031 -0.043 -0.047 c -0.016 -0.008 -0.043 -0.012 -0.066 -0.008 c -0.023 0 -0.043 0.004 -0.055 0.012 c -0.051 0.027 -0.051 0.051 -0.07 0.09 l -0.004 0.008 v 0.539 c -0.031 0.109 -0.059 0.176 -0.082 0.23 c -0.027 -0.047 -0.055 -0.094 -0.094 -0.207 c -0.059 -0.156 -0.133 -0.375 -0.227 -0.66 l -0.41 -1.227 l -0.164 0.004 l -0.305 1.121 c -0.066 0.246 -0.125 0.434 -0.168 0.566 c -0.02 0.059 -0.023 0.063 -0.043 0.098 c -0.012 -0.055 -0.027 -0.102 -0.039 -0.199 c -0.031 -0.188 -0.086 -0.355 -0.16 -0.484 c -0.035 -0.063 -0.078 -0.117 -0.125 -0.156 c -0.047 -0.039 -0.102 -0.074 -0.18 -0.074 c -0.008 0 -0.023 0 -0.047 -0.02 c -0.023 -0.02 -0.051 -0.051 -0.074 -0.094 c -0.043 -0.086 -0.074 -0.215 -0.074 -0.355 c 0 -0.164 -0.027 -0.285 -0.074 -0.371 c -0.023 -0.043 -0.055 -0.078 -0.098 -0.105 c -0.039 -0.027 -0.094 -0.047 -0.152 -0.047 c -0.02 0 -0.031 0 -0.043 0.004 c -0.086 0.008 -0.156 0.043 -0.227 0.098 c -0.07 0.051 -0.137 0.121 -0.199 0.207 c -0.129 0.172 -0.238 0.41 -0.309 0.699 c -0.059 0.234 -0.145 0.48 -0.23 0.695 c -0.09 0.215 -0.188 0.398 -0.254 0.484 c -0.051 0.063 -0.098 0.094 -0.109 0.098 c 0 0 -0.004 -0.004 -0.016 -0.016 c -0.063 -0.063 -0.148 -0.273 -0.246 -0.629 l -0.25 -0.91 l -0.125 0.004 v -0.371 c -0.008 -0.047 -0.016 -0.086 -0.023 -0.113 c 0 -0.012 -0.008 -0.023 -0.012 -0.035 c -0.004 -0.012 -0.004 -0.02 -0.027 -0.039 c -0.012 -0.008 -0.043 -0.023 -0.082 -0.02 c -0.035 0.004 -0.051 0.02 -0.059 0.027 c -0.016 0.016 -0.016 0.023 -0.023 0.035 c -0.008 0.023 -0.012 0.055 -0.02 0.094 c -0.023 0.164 -0.051 0.504 -0.086 1.047 c -0.023 0.395 -0.039 0.688 -0.059 0.895 c 0 0.02 -0.004 0.027 -0.004 0.047 c -0.023 -0.102 -0.043 -0.18 -0.074 -0.332 c -0.035 -0.195 -0.07 -0.348 -0.098 -0.461 c -0.031 -0.113 -0.051 -0.18 -0.082 -0.227 c -0.008 -0.012 -0.016 -0.023 -0.035 -0.035 c -0.012 -0.004 -0.027 -0.012 -0.047 -0.016 c -0.02 -0.004 -0.047 0 -0.063 0.004 c -0.035 0.012 -0.043 0.027 -0.051 0.039 c -0.008 0.012 -0.016 0.023 -0.023 0.035 c -0.02 0.055 -0.031 0.137 -0.047 0.254 l -0.039 0.281 l -0.109 -0.293 l -0.227 -0.609 l -0.164 0.012 l -0.039 0.715 c -0.008 0.133 -0.016 0.238 -0.031 0.32 c -0.012 0.07 -0.035 0.117 -0.047 0.137 c -0.02 -0.012 -0.051 -0.031 -0.098 -0.078 c -0.059 -0.063 -0.102 -0.105 -0.16 -0.133 c -0.027 -0.016 -0.063 -0.031 -0.109 -0.027 c -0.043 0 -0.082 0.023 -0.105 0.043 c -0.043 0.043 -0.055 0.09 -0.07 0.164 c -0.016 0.074 -0.027 0.168 -0.035 0.289 c -0.004 0.105 -0.023 0.141 -0.035 0.195 c -0.039 -0.086 -0.094 -0.164 -0.16 -0.227 c -0.074 -0.063 -0.16 -0.109 -0.266 -0.121 c 0 0 -0.004 -0.004 -0.012 -0.012 c -0.012 -0.016 -0.027 -0.043 -0.047 -0.086 c -0.035 -0.082 -0.066 -0.203 -0.098 -0.355 c -0.066 -0.301 -0.121 -0.723 -0.148 -1.184 l -0.102 -1.684 v -0.004 h -0.172 v 0.004 l -0.066 1.836 c -0.02 0.637 -0.059 1.074 -0.113 1.316 c -0.027 0.113 -0.059 0.168 -0.078 0.191 c -0.004 0 0 0 -0.004 -0.004 c -0.066 -0.07 -0.141 -0.215 -0.195 -0.375 c -0.051 -0.164 -0.086 -0.348 -0.086 -0.512 c -0.004 -0.113 -0.008 -0.203 -0.02 -0.273 c -0.012 -0.07 -0.023 -0.121 -0.055 -0.16 c -0.02 -0.023 -0.051 -0.043 -0.09 -0.051 c -0.043 -0.008 -0.082 0 -0.113 0.012 c -0.059 0.027 -0.098 0.066 -0.148 0.121 c -0.047 0.051 -0.086 0.078 -0.105 0.086 c -0.012 -0.008 -0.043 -0.043 -0.066 -0.109 c -0.023 -0.063 -0.047 -0.152 -0.07 -0.262 c -0.012 -0.047 -0.023 -0.082 -0.031 -0.109 c -0.012 -0.031 -0.02 -0.051 -0.039 -0.074 c -0.008 -0.012 -0.023 -0.027 -0.063 -0.035 c -0.039 -0.008 -0.082 0.012 -0.098 0.023 c -0.031 0.023 -0.035 0.043 -0.043 0.066 c -0.035 0.105 -0.059 0.324 -0.074 0.66 c -0.016 0.359 -0.059 0.672 -0.121 0.914 c -0.059 0.246 -0.137 0.426 -0.203 0.508 c -0.012 0.016 -0.023 0.027 -0.031 0.035 c -0.004 -0.008 -0.012 -0.012 -0.02 -0.023 c -0.047 -0.082 -0.094 -0.285 -0.105 -0.613 c -0.004 -0.176 -0.012 -0.313 -0.023 -0.418 c -0.016 -0.109 -0.027 -0.18 -0.059 -0.23 c -0.012 -0.027 -0.031 -0.055 -0.078 -0.07 c -0.023 -0.008 -0.055 -0.012 -0.078 -0.004 c -0.023 0.004 -0.043 0.012 -0.059 0.023 c -0.059 0.035 -0.094 0.086 -0.141 0.164 c -0.02 0.035 -0.039 0.059 -0.055 0.078 c 0 -0.004 0 -0.004 -0.004 -0.004 c -0.047 -0.098 -0.094 -0.355 -0.133 -0.77 l -0.102 -1.125 l -0.164 -0.012 l -0.344 0.711" fill="#fff"/></svg>