<svg xmlns="http://www.w3.org/2000/svg" xmlns:xlink="http://www.w3.org/1999/xlink" viewBox="0 0 24 24"><defs><g id="3" clip-path="url(#2)"><path d="m 23.322 30.908 c -0.486 -0.119 -0.797 -0.228 -0.861 -0.301 c -0.101 -0.109 -0.192 -0.766 -0.431 -2.955 c -0.11 -1.049 -0.477 -4.652 -0.477 -4.743 c 0 -0.009 0.009 -0.009 0.027 -0.009 c 0.027 0 0.651 0.702 0.724 0.821 c 0.082 0.128 0.101 0.602 0.128 2.426 c 0.018 1.979 0.064 2.682 0.183 2.91 c 0.055 0.119 0.394 0.228 0.889 0.292 c 0.22 0.036 0.376 0.073 0.385 0.091 c 0.009 0.018 -0.027 0.374 -0.073 0.784 c -0.055 0.41 -0.092 0.748 -0.092 0.766 c 0 0.018 0.009 0.018 -0.403 -0.082 m 0.99 0 c -0.055 -0.301 -0.174 -1.432 -0.165 -1.468 c 0.009 -0.027 0.119 -0.055 0.321 -0.082 c 0.577 -0.073 0.926 -0.192 0.981 -0.328 c 0.101 -0.274 0.137 -1.012 0.174 -3.329 c 0.018 -0.949 0.046 -1.779 0.055 -1.852 c 0.027 -0.091 0.082 -0.192 0.284 -0.41 c 0.44 -0.502 0.495 -0.556 0.513 -0.538 c 0.018 0.018 -0.312 3.411 -0.495 5.01 c -0.211 1.934 -0.312 2.599 -0.403 2.7 c -0.055 0.064 -0.486 0.21 -0.889 0.301 c -0.147 0.036 -0.284 0.073 -0.312 0.082 c -0.037 0.009 -0.055 -0.009 -0.064 -0.082 m -1.32 -2.162 c -0.202 -0.064 -0.238 -0.255 -0.128 -0.684 c 0.092 -0.365 0.376 -0.921 0.431 -0.857 c 0.009 0.009 0 0.237 -0.018 0.511 c -0.018 0.274 -0.037 0.611 -0.046 0.748 c 0 0.137 -0.009 0.265 -0.027 0.283 c -0.018 0.036 -0.082 0.036 -0.211 0 m 1.842 0 c -0.009 -0.027 -0.018 -0.146 -0.027 -0.274 c 0 -0.182 -0.046 -0.821 -0.082 -1.204 c -0.009 -0.109 0.073 -0.064 0.174 0.109 c 0.247 0.401 0.412 1.094 0.302 1.259 c -0.064 0.109 -0.321 0.182 -0.367 0.1 m -1.475 -0.055 c -0.046 -0.027 -0.055 -0.082 -0.055 -0.41 v -0.374 h 0.687 v 0.356 c 0 0.401 -0.018 0.447 -0.174 0.438 c -0.037 0 -0.119 -0.009 -0.165 -0.009 c -0.055 0 -0.128 0 -0.165 0.018 c -0.046 0.009 -0.101 0 -0.128 -0.018 m 0.779 -0.009 c -0.073 -0.036 -0.073 -0.046 -0.082 -0.41 l -0.009 -0.365 h 0.687 v 0.374 c 0 0.438 -0.018 0.465 -0.22 0.41 c -0.082 -0.027 -0.137 -0.018 -0.183 0 c -0.092 0.046 -0.101 0.046 -0.192 -0.009 m -8 -1.779 c 0 -0.036 0.559 -1.505 0.651 -1.715 c 0.027 -0.073 0.073 -0.128 0.119 -0.146 c 0.046 -0.018 0.477 -0.173 0.962 -0.347 c 0.477 -0.182 1.457 -0.547 2.172 -0.812 c 0.724 -0.283 1.32 -0.483 1.329 -0.474 c 0.046 0.046 0.266 2.39 0.229 2.435 c -0.027 0.027 -5.269 1.085 -5.407 1.085 c -0.027 0 -0.055 -0.018 -0.055 -0.036 m 7.331 -0.036 c -0.385 -0.182 -0.477 -0.483 -0.66 -2.143 c -0.082 -0.702 -0.082 -0.757 -0.037 -0.812 c 0.046 -0.046 1.09 -0.538 1.145 -0.538 c 0.082 0 0.092 3.147 0.018 3.411 c -0.018 0.055 -0.046 0.109 -0.073 0.128 c -0.064 0.046 -0.238 0.018 -0.394 -0.046 m 0.715 0.046 c -0.092 -0.055 -0.11 -0.219 -0.128 -1.24 c -0.018 -1.268 0.018 -2.298 0.073 -2.298 c 0.037 0 1.072 0.474 1.136 0.52 c 0.018 0.018 0.037 0.082 0.037 0.146 c 0 0.164 -0.11 1.149 -0.192 1.678 c -0.119 0.757 -0.22 0.976 -0.522 1.131 c -0.165 0.082 -0.339 0.109 -0.403 0.064 m 4.912 -0.502 c -1.448 -0.292 -2.648 -0.538 -2.658 -0.556 c -0.037 -0.036 0.192 -2.39 0.229 -2.435 c 0.018 -0.009 0.532 0.164 1.21 0.429 c 0.651 0.246 1.668 0.62 2.245 0.839 c 0.586 0.21 1.072 0.392 1.081 0.401 c 0.027 0.027 0.696 1.788 0.696 1.824 c 0 0.009 -0.037 0.027 -0.082 0.018 c -0.046 0 -1.265 -0.237 -2.722 -0.52 m -14.616 -1.259 c 0.018 -0.046 1.136 -1 1.274 -1.094 c 1.659 -1.085 5.242 -3.366 5.269 -3.347 c 0.046 0.046 0.348 2.253 0.312 2.335 c -0.027 0.091 -3.748 1.623 -4.454 1.833 c -0.467 0.137 -2.428 0.356 -2.401 0.274 m 18.06 -0.055 c -1.127 -0.128 -1.283 -0.164 -2.181 -0.511 c -1.265 -0.474 -3.629 -1.487 -3.656 -1.551 c -0.027 -0.082 0.275 -2.271 0.321 -2.326 c 0.018 -0.018 0.403 0.21 0.889 0.529 c 4.674 3.02 4.426 2.846 5.05 3.366 c 0.312 0.274 0.577 0.511 0.586 0.529 c 0.027 0.055 -0.229 0.046 -1.01 -0.036 m -20.435 -1.177 c -1.384 -0.018 -2.648 -0.046 -2.813 -0.055 l -0.293 -0.018 l 0.385 -0.328 c 2.566 -2.152 4.261 -3.548 4.683 -3.876 c 0.247 -0.192 0.889 -0.529 1.393 -0.73 c 0.696 -0.283 1.21 -0.41 2.181 -0.556 c 0.715 -0.1 2.071 -0.255 2.117 -0.237 c 0.046 0.018 0.449 0.593 0.623 0.885 c 0.211 0.365 0.605 1.341 0.568 1.423 c -0.018 0.064 -3.922 2.636 -4.912 3.256 l -0.412 0.246 l -0.504 0.009 c -0.284 0 -1.64 -0.009 -3.02 -0.018 m 20.463 0 c -0.174 -0.018 -0.238 -0.036 -0.504 -0.21 c -1.045 -0.648 -4.939 -3.229 -4.958 -3.283 c -0.018 -0.046 0.266 -0.821 0.422 -1.14 c 0.137 -0.292 0.55 -0.939 0.687 -1.094 c 0.082 -0.082 0.11 -0.091 0.22 -0.073 c 0.073 0.009 0.376 0.036 0.678 0.073 c 1.31 0.146 2.236 0.301 2.786 0.474 c 0.861 0.265 1.769 0.711 2.291 1.131 c 0.981 0.794 4.811 3.986 4.82 4.03 c 0.018 0.046 -0.669 0.064 -2.951 0.082 c -1.228 0.009 -2.474 0.018 -2.767 0.027 c -0.293 0 -0.623 0 -0.724 -0.009 m -10.03 -0.41 c -0.293 -0.228 -0.641 -0.593 -0.733 -0.775 c -0.092 -0.173 -0.211 -0.611 -0.266 -0.976 c -0.018 -0.128 -0.064 -0.292 -0.092 -0.356 c -0.092 -0.192 -0.027 -0.565 0.092 -0.529 c 0.586 0.164 0.971 0.274 1.118 0.292 c 0.422 0.064 1.347 0.1 1.952 0.064 c 0.834 -0.046 0.935 -0.064 1.659 -0.283 c 0.357 -0.109 0.367 -0.1 0.403 0.155 c 0.018 0.119 0.009 0.182 -0.037 0.301 c -0.037 0.082 -0.082 0.274 -0.11 0.438 c -0.11 0.666 -0.22 0.93 -0.522 1.25 c -0.247 0.255 -0.66 0.593 -0.678 0.547 c -0.009 -0.018 0.037 -0.146 0.092 -0.283 c 0.174 -0.401 0.257 -0.693 0.293 -0.985 c 0.046 -0.401 0.018 -0.511 -0.147 -0.675 l -0.137 -0.128 l -0.275 0.009 c -0.147 0.009 -0.339 0.027 -0.422 0.036 l -0.165 0.018 l 0.082 0.064 l 0.073 0.055 v 0.547 c 0 0.638 0.037 0.593 -0.357 0.575 l -0.22 -0.009 l 0.009 -0.529 c 0 -0.292 0.009 -0.538 0.027 -0.556 c 0.009 -0.018 0.101 -0.046 0.183 -0.073 c 0.165 -0.046 0.165 -0.046 -0.321 -0.046 h -0.495 l 0.183 0.055 l 0.174 0.046 l 0.027 0.274 c 0.009 0.155 0.018 0.401 0.009 0.556 l -0.009 0.274 l -0.22 0.009 c -0.119 0 -0.257 0 -0.293 -0.009 l -0.064 -0.018 l 0.009 -0.556 c 0.009 -0.547 0.009 -0.556 0.073 -0.584 c 0.037 -0.018 0.064 -0.046 0.064 -0.055 c 0 -0.018 -0.211 -0.046 -0.596 -0.073 l -0.247 -0.018 l -0.156 0.146 l -0.147 0.146 l 0.009 0.319 c 0 0.374 0.073 0.657 0.275 1.14 c 0.064 0.164 0.119 0.31 0.11 0.328 c 0 0.018 -0.101 -0.036 -0.211 -0.128 m 0.192 -0.666 c -0.082 -0.018 -0.092 -0.073 -0.128 -0.638 l -0.027 -0.301 l 0.101 -0.109 c 0.092 -0.1 0.119 -0.109 0.284 -0.119 c 0.119 0 0.202 0.009 0.229 0.036 c 0.055 0.055 0.073 1.104 0.018 1.14 c -0.046 0.027 -0.367 0.027 -0.477 -0.009 m 2.154 0.009 c -0.027 -0.009 -0.037 -0.146 -0.037 -0.538 c 0 -0.638 0 -0.648 0.247 -0.638 c 0.183 0.009 0.284 0.055 0.357 0.182 c 0.046 0.064 0.046 0.119 0.018 0.483 c -0.018 0.237 -0.046 0.438 -0.046 0.456 c -0.027 0.055 -0.44 0.1 -0.541 0.055 m -1.704 -1.842 c -0.88 -0.091 -1.32 -0.173 -1.576 -0.31 c -0.128 -0.064 -0.147 -0.1 -0.852 -1.359 c -0.394 -0.711 -0.724 -1.313 -0.724 -1.332 c 0 -0.064 0.779 -0.894 0.843 -0.894 c 0.082 0 0.376 0.164 0.522 0.292 c 0.238 0.21 0.266 0.447 0.119 0.958 c -0.11 0.42 -0.156 0.702 -0.11 0.848 c 0.037 0.155 0.293 0.401 0.66 0.629 c 0.321 0.21 1.182 0.666 1.54 0.821 c 0.147 0.064 0.293 0.146 0.339 0.192 c 0.092 0.082 0.128 0.091 0.192 0.009 c 0.018 -0.027 0.275 -0.164 0.559 -0.301 c 0.907 -0.429 1.622 -0.866 1.879 -1.149 l 0.128 -0.146 l -0.018 -0.292 c -0.009 -0.201 -0.046 -0.383 -0.11 -0.593 c -0.156 -0.511 -0.119 -0.757 0.128 -0.985 c 0.147 -0.119 0.495 -0.31 0.55 -0.292 c 0.046 0.018 0.806 0.857 0.806 0.894 c 0 0.018 -0.33 0.62 -0.724 1.341 l -0.733 1.313 l -0.137 0.064 c -0.293 0.128 -0.706 0.21 -1.485 0.283 c -0.422 0.046 -0.806 0.082 -0.861 0.091 c -0.046 0 -0.467 -0.027 -0.935 -0.082 m 0.238 -0.62 c -0.348 -0.082 -0.907 -0.401 -1.439 -0.83 c -0.312 -0.255 -0.33 -0.292 -0.312 -0.575 c 0.018 -0.246 0.073 -0.438 0.119 -0.438 c 0.009 0 0.257 0.137 0.55 0.292 c 0.779 0.438 0.944 0.502 1.301 0.529 l 0.293 0.018 l 0.027 0.109 c 0.018 0.1 0.018 0.31 -0.027 0.693 c -0.009 0.082 -0.037 0.173 -0.055 0.201 c -0.055 0.055 -0.202 0.055 -0.458 0 m 0.092 -0.182 c 0 -0.009 -0.192 -0.137 -0.431 -0.301 c -0.229 -0.155 -0.532 -0.392 -0.66 -0.52 c -0.137 -0.128 -0.257 -0.228 -0.266 -0.228 c -0.055 0 0.055 0.365 0.147 0.474 c 0.147 0.182 1.21 0.684 1.21 0.575 m 0.706 0.192 c -0.055 -0.064 -0.092 -0.283 -0.092 -0.657 c -0.009 -0.374 -0.009 -0.374 0.257 -0.374 c 0.119 0 0.284 -0.018 0.376 -0.046 c 0.183 -0.055 0.687 -0.31 1.182 -0.593 c 0.174 -0.1 0.339 -0.182 0.357 -0.182 c 0.046 0 0.092 0.192 0.119 0.465 l 0.018 0.237 l -0.156 0.146 c -0.33 0.328 -1.118 0.839 -1.457 0.949 c -0.275 0.091 -0.55 0.109 -0.605 0.055 m 0.706 -0.283 c 0.751 -0.319 0.944 -0.474 1.01 -0.848 c 0.027 -0.146 -0.009 -0.146 -0.156 0.018 c -0.147 0.164 -0.568 0.493 -0.88 0.693 c -0.422 0.265 -0.403 0.319 0.037 0.137 m -12.564 -1.213 c -0.889 -0.21 -1.622 -0.383 -1.64 -0.401 c -0.027 -0.027 0.046 -0.091 0.843 -0.693 c 2.02 -1.514 2.236 -1.66 2.813 -1.842 c 0.44 -0.146 0.678 -0.182 1.64 -0.265 l 0.559 -0.055 l 0.348 0.146 c 0.513 0.21 1.21 0.556 1.512 0.757 c 0.147 0.1 0.376 0.292 0.513 0.438 c 0.266 0.283 0.66 0.794 0.651 0.848 c -0.009 0.009 -0.211 0.046 -0.44 0.082 c -1.54 0.192 -2.557 0.365 -3.042 0.529 c -0.348 0.109 -1.063 0.41 -1.613 0.675 c -0.211 0.1 -0.357 0.155 -0.431 0.155 c -0.055 0 -0.834 -0.173 -1.714 -0.374 m 21.26 0.255 c -0.431 -0.219 -1.329 -0.602 -1.659 -0.711 c -0.513 -0.173 -1.136 -0.283 -2.648 -0.474 c -0.806 -0.109 -0.852 -0.119 -0.852 -0.155 c 0 -0.046 0.348 -0.502 0.568 -0.748 c 0.119 -0.128 0.321 -0.31 0.458 -0.42 c 0.266 -0.21 1.026 -0.602 1.622 -0.839 l 0.394 -0.164 l 0.55 0.046 c 1.045 0.091 1.439 0.173 1.961 0.383 c 0.357 0.146 0.669 0.365 2.447 1.706 c 0.852 0.638 0.916 0.693 0.889 0.721 c -0.037 0.036 -3.299 0.775 -3.4 0.775 c -0.046 0 -0.192 -0.055 -0.321 -0.119 m -10.236 -0.237 c -0.174 -0.018 -0.449 -0.055 -0.605 -0.082 c -0.238 -0.046 -0.275 -0.064 -0.302 -0.128 c -0.027 -0.055 -0.018 -0.237 0.046 -0.748 c 0.046 -0.374 0.092 -0.775 0.092 -0.885 c 0 -0.201 -0.009 -0.228 -0.192 -0.584 c -0.101 -0.21 -0.174 -0.392 -0.165 -0.41 c 0.018 -0.027 1.475 -0.711 1.53 -0.711 c 0.018 0 0.037 0.036 0.046 0.073 c 0.009 0.073 0.137 3.174 0.137 3.402 v 0.128 l -0.128 -0.009 c -0.073 0 -0.275 -0.018 -0.458 -0.036 m 0.696 -0.119 c 0 -0.082 0.037 -0.894 0.073 -1.788 c 0.046 -1.213 0.073 -1.623 0.101 -1.642 c 0.046 -0.018 1.53 0.666 1.549 0.711 c 0 0.018 -0.046 0.146 -0.119 0.283 c -0.082 0.137 -0.165 0.328 -0.202 0.438 c -0.073 0.219 -0.073 0.21 0.046 1.177 c 0.046 0.319 0.073 0.611 0.073 0.648 c 0 0.146 -0.119 0.182 -0.871 0.274 c -0.687 0.091 -0.641 0.091 -0.651 -0.1 m -1.961 -0.246 c -0.064 -0.064 -0.119 -0.137 -0.119 -0.173 c 0 -0.036 -0.018 -0.201 -0.055 -0.374 c -0.092 -0.456 -0.183 -0.629 -0.568 -1.04 c -0.33 -0.347 -0.33 -0.347 -0.257 -0.392 c 0.147 -0.091 0.916 -0.42 0.953 -0.41 c 0.055 0.027 0.339 0.629 0.376 0.812 c 0.055 0.265 -0.064 1.532 -0.156 1.642 c -0.046 0.055 -0.055 0.055 -0.174 -0.064 m 3.638 0.064 c -0.046 -0.055 -0.119 -0.493 -0.156 -1.022 c -0.027 -0.374 -0.027 -0.502 0 -0.638 c 0.046 -0.192 0.312 -0.766 0.376 -0.794 c 0.055 -0.018 0.962 0.392 0.981 0.447 c 0.009 0.018 -0.101 0.164 -0.266 0.337 c -0.431 0.447 -0.541 0.666 -0.614 1.222 c -0.027 0.21 -0.055 0.274 -0.119 0.347 c -0.101 0.119 -0.165 0.146 -0.202 0.1 m -6.05 -1 c -0.046 -0.055 -0.156 -0.21 -0.247 -0.356 c -0.229 -0.319 -0.577 -0.693 -0.797 -0.839 c -0.092 -0.055 -0.44 -0.246 -0.779 -0.429 c -0.339 -0.173 -0.614 -0.337 -0.623 -0.347 c -0.027 -0.036 0.761 -2.025 0.806 -2.034 c 0.027 -0.009 0.101 0.036 0.174 0.119 l 0.128 0.128 l 0.037 0.383 c 0.073 0.93 0.174 1.405 0.321 1.532 c 0.128 0.109 0.522 0.328 1.246 0.702 c 0.348 0.182 0.632 0.337 0.623 0.356 c -0.018 0.046 -0.779 0.885 -0.806 0.885 c -0.009 0 -0.046 -0.046 -0.082 -0.1 m 8.137 -0.328 c -0.211 -0.237 -0.385 -0.447 -0.385 -0.465 c 0 -0.018 0.348 -0.21 0.77 -0.429 c 0.825 -0.429 1.081 -0.584 1.155 -0.693 c 0.027 -0.046 0.073 -0.182 0.11 -0.328 c 0.046 -0.219 0.073 -0.465 0.165 -1.368 c 0.018 -0.137 0.037 -0.173 0.137 -0.274 c 0.064 -0.064 0.137 -0.109 0.165 -0.109 c 0.037 0 0.156 0.274 0.431 0.958 c 0.202 0.529 0.376 0.994 0.376 1.022 c 0 0.064 -0.101 0.128 -0.651 0.41 c -0.357 0.192 -0.742 0.41 -0.852 0.502 c -0.229 0.173 -0.532 0.52 -0.806 0.921 c -0.101 0.155 -0.202 0.283 -0.211 0.283 c -0.009 0 -0.192 -0.192 -0.403 -0.429 m -7.377 -0.866 c -0.165 -0.036 -0.431 -0.119 -0.596 -0.182 c -0.825 -0.292 -1.036 -0.465 -1.2 -1 c -0.082 -0.283 -0.11 -0.866 -0.055 -1.25 c 0.027 -0.155 0.037 -0.292 0.037 -0.31 c -0.009 -0.018 -0.11 -0.073 -0.22 -0.128 c -0.119 -0.055 -0.22 -0.109 -0.22 -0.137 c -0.018 -0.046 0.147 -0.383 0.202 -0.41 c 0.046 -0.009 5.233 2.098 5.288 2.152 c 0.037 0.036 0.137 -0.009 -1.43 0.721 c -0.742 0.347 -1.384 0.62 -1.43 0.62 c -0.037 0 -0.211 -0.036 -0.376 -0.073 m 0.385 -0.556 c 0.33 -0.155 0.806 -0.565 0.788 -0.666 c -0.018 -0.064 -2.227 -1.022 -2.273 -0.985 c -0.055 0.055 -0.037 0.848 0.027 1.04 c 0.064 0.228 0.211 0.447 0.385 0.565 c 0.202 0.137 0.293 0.155 0.596 0.146 c 0.238 0 0.302 -0.018 0.477 -0.1 m -0.623 -0.337 c -0.165 -0.046 -0.275 -0.128 -0.357 -0.265 c -0.064 -0.119 -0.082 -0.182 -0.082 -0.356 c 0 -0.109 0.009 -0.219 0.027 -0.237 c 0.037 -0.036 1.081 0.41 1.109 0.483 c 0.018 0.046 -0.183 0.265 -0.302 0.319 c -0.128 0.064 -0.284 0.082 -0.394 0.055 m 5.489 0.319 c -0.761 -0.356 -1.384 -0.657 -1.393 -0.675 c -0.009 -0.046 5.251 -2.189 5.306 -2.171 c 0.046 0.027 0.229 0.383 0.202 0.42 c -0.009 0.009 -0.11 0.073 -0.22 0.119 c -0.11 0.055 -0.211 0.119 -0.22 0.137 c -0.009 0.018 0.009 0.155 0.027 0.31 c 0.119 0.812 -0.037 1.514 -0.394 1.833 c -0.147 0.137 -0.467 0.283 -0.99 0.465 c -0.321 0.109 -0.77 0.219 -0.889 0.21 c -0.027 0 -0.669 -0.292 -1.43 -0.648 m 2.346 0.073 c 0.284 -0.109 0.467 -0.319 0.586 -0.675 c 0.046 -0.128 0.055 -0.255 0.055 -0.584 c 0 -0.246 -0.009 -0.429 -0.037 -0.447 c -0.018 -0.018 -0.367 0.119 -1.127 0.447 c -0.605 0.255 -1.118 0.483 -1.136 0.502 c -0.119 0.091 0.568 0.648 0.962 0.775 c 0.183 0.055 0.522 0.055 0.696 -0.018 m -0.541 -0.401 c -0.128 -0.036 -0.412 -0.283 -0.412 -0.356 c 0 -0.073 1.072 -0.538 1.118 -0.493 c 0.055 0.064 0.037 0.401 -0.046 0.556 c -0.11 0.237 -0.394 0.365 -0.66 0.292 m -14.864 -0.073 c -0.568 -0.292 -1.036 -0.547 -1.026 -0.565 c 0.009 -0.036 3.281 -1.888 3.326 -1.888 c 0.009 0 0.055 0.091 0.101 0.21 c 0.247 0.62 0.412 0.976 0.495 1.122 c 0.101 0.173 0.458 0.657 0.66 0.912 c 0.064 0.073 0.101 0.146 0.092 0.164 c -0.018 0.009 -0.174 0.036 -0.339 0.064 c -0.99 0.109 -1.448 0.21 -1.97 0.41 c -0.147 0.055 -0.275 0.109 -0.275 0.109 c -0.009 0 -0.486 -0.246 -1.054 -0.538 m 21.361 0.42 c -0.147 -0.055 -0.394 -0.137 -0.541 -0.173 c -0.257 -0.073 -1.063 -0.201 -1.521 -0.246 c -0.119 -0.018 -0.229 -0.036 -0.238 -0.055 c -0.009 -0.018 0.009 -0.055 0.046 -0.1 c 0.027 -0.036 0.156 -0.192 0.275 -0.356 c 0.403 -0.493 0.495 -0.666 0.834 -1.496 c 0.092 -0.237 0.183 -0.438 0.202 -0.438 c 0.018 -0.009 1.741 0.949 3.152 1.751 c 0.101 0.055 0.183 0.119 0.183 0.128 c 0 0.027 -1.943 1.04 -2.062 1.076 c -0.037 0.009 -0.183 -0.027 -0.33 -0.091 m -17.219 -0.556 c -0.907 -0.429 -2.044 -3.384 -2.318 -6.04 c -0.055 -0.511 -0.046 -1.696 0.009 -1.988 c 0.073 -0.319 0.037 -0.328 0.385 0.046 c 0.367 0.401 1.136 1.14 1.521 1.468 c 0.403 0.356 0.614 0.502 0.981 0.693 c 0.192 0.1 0.394 0.21 0.458 0.255 c 0.101 0.055 0.119 0.055 0.156 0.018 c 0.018 -0.018 0.147 -0.246 0.284 -0.502 c 0.128 -0.246 0.266 -0.483 0.302 -0.52 c 0.055 -0.064 0.055 -0.064 0.22 -0.009 c 0.22 0.073 0.623 0.292 0.962 0.52 c 0.403 0.265 0.834 0.602 0.834 0.657 c 0 0.055 -1.714 2.399 -1.888 2.59 c -0.119 0.128 -0.137 0.137 -0.247 0.119 c -0.092 -0.018 -0.119 -0.009 -0.165 0.036 c -0.055 0.064 -0.412 0.866 -0.907 2.025 c -0.22 0.511 -0.33 0.721 -0.357 0.721 c -0.027 0 -0.128 -0.036 -0.229 -0.082 m 0.412 -1.231 c 0.394 -0.812 0.696 -1.505 0.779 -1.742 c 0.073 -0.21 0.055 -0.383 -0.064 -0.638 c -0.092 -0.182 -0.174 -0.292 -0.467 -0.584 c -0.202 -0.21 -0.532 -0.502 -0.733 -0.657 c -0.806 -0.62 -1.448 -1.405 -1.897 -2.344 c -0.073 -0.137 -0.137 -0.246 -0.147 -0.246 c -0.082 0 -0.055 0.912 0.037 1.614 c 0.266 1.879 0.806 3.612 1.485 4.697 c 0.202 0.328 0.513 0.73 0.577 0.73 c 0.027 0 0.192 -0.319 0.431 -0.83 m 13.425 0.593 c -0.477 -1.131 -0.852 -1.961 -0.907 -2.025 c -0.046 -0.046 -0.073 -0.055 -0.165 -0.036 c -0.11 0.018 -0.128 0.009 -0.247 -0.128 c -0.183 -0.192 -1.888 -2.536 -1.888 -2.59 c 0 -0.046 0.312 -0.301 0.733 -0.593 c 0.312 -0.21 0.797 -0.483 1.045 -0.584 l 0.165 -0.064 l 0.064 0.073 c 0.037 0.036 0.183 0.274 0.312 0.529 c 0.128 0.246 0.257 0.474 0.284 0.502 c 0.037 0.036 0.055 0.027 0.156 -0.027 c 0.064 -0.036 0.266 -0.146 0.449 -0.246 c 0.586 -0.31 1.155 -0.784 2.208 -1.861 l 0.614 -0.629 l 0.037 0.137 c 0.092 0.42 0.119 1.341 0.055 1.997 c -0.211 2.298 -1.1 4.943 -1.998 5.928 c -0.137 0.146 -0.449 0.337 -0.568 0.337 c -0.018 0 -0.174 -0.328 -0.339 -0.721 m 0.779 0.055 c 0.806 -0.894 1.521 -2.882 1.86 -5.19 c 0.073 -0.465 0.119 -1.669 0.064 -1.669 c -0.009 0 -0.11 0.155 -0.202 0.347 c -0.339 0.648 -0.806 1.295 -1.246 1.724 c -0.119 0.109 -0.394 0.347 -0.605 0.52 c -0.687 0.538 -1.164 1.067 -1.274 1.395 c -0.064 0.182 -0.046 0.365 0.073 0.648 c 0.22 0.584 1.09 2.408 1.136 2.408 c 0.009 0 0.101 -0.082 0.192 -0.182 m -7.588 0.21 c -0.284 -0.228 -0.321 -0.374 -0.229 -0.93 c 0.082 -0.438 0.055 -0.757 -0.101 -1.149 c -0.165 -0.401 -0.211 -0.593 -0.211 -0.894 c 0 -0.283 0.046 -0.474 0.11 -0.474 c 0.018 0 0.156 0.082 0.293 0.182 c 0.147 0.109 0.284 0.192 0.312 0.192 c 0.018 0 0.156 -0.082 0.302 -0.192 c 0.137 -0.1 0.275 -0.182 0.302 -0.182 c 0.073 0 0.092 0.137 0.092 0.52 c 0 0.31 -0.009 0.383 -0.082 0.556 c -0.229 0.584 -0.238 0.62 -0.247 0.894 c -0.009 0.173 0 0.383 0.027 0.565 c 0.092 0.565 0.064 0.684 -0.229 0.912 c -0.082 0.064 -0.165 0.119 -0.174 0.119 c -0.009 0 -0.082 -0.055 -0.174 -0.119 m -1.045 -0.392 c -0.22 -0.091 -0.422 -0.192 -0.449 -0.219 c -0.018 -0.027 -0.073 -0.192 -0.119 -0.356 c -0.119 -0.483 -0.275 -0.794 -0.513 -1.04 c -0.11 -0.119 -0.247 -0.246 -0.302 -0.292 c -0.092 -0.064 -0.11 -0.091 -0.128 -0.283 c -0.009 -0.109 -0.009 -0.292 0 -0.401 c 0.064 -0.438 0.202 -0.547 0.77 -0.584 c 0.357 -0.027 1.127 0.009 1.173 0.055 c 0.009 0.009 -0.018 0.228 -0.064 0.474 l -0.092 0.465 l 0.165 0.502 c 0.092 0.274 0.183 0.593 0.211 0.702 c 0.064 0.237 0.055 0.565 0 0.803 c -0.073 0.292 -0.11 0.356 -0.174 0.347 c -0.037 0 -0.247 -0.073 -0.477 -0.173 m 1.879 0.1 c -0.073 -0.21 -0.119 -0.483 -0.119 -0.702 c 0 -0.255 0.101 -0.657 0.312 -1.268 l 0.11 -0.301 l -0.092 -0.465 c -0.046 -0.265 -0.073 -0.474 -0.064 -0.493 c 0.046 -0.046 0.861 -0.082 1.2 -0.046 c 0.614 0.055 0.715 0.164 0.733 0.784 l 0.009 0.374 l -0.101 0.082 c -0.055 0.046 -0.202 0.192 -0.33 0.319 c -0.266 0.274 -0.357 0.456 -0.513 0.994 c -0.055 0.21 -0.119 0.392 -0.128 0.41 c -0.046 0.046 -0.871 0.383 -0.935 0.383 c -0.027 0 -0.064 -0.036 -0.082 -0.073 m -4.784 -1.405 c -0.605 -0.31 -1.1 -0.575 -1.1 -0.602 c 0 -0.018 0.183 -0.219 0.394 -0.438 l 0.403 -0.41 l 0.101 0.055 c 0.174 0.091 0.495 0.347 0.641 0.511 c 0.165 0.192 0.348 0.511 0.541 0.958 c 0.156 0.365 0.202 0.493 0.156 0.493 c -0.018 0 -0.522 -0.246 -1.136 -0.556 m 7.102 0.529 c 0 -0.137 0.458 -1.076 0.632 -1.323 c 0.128 -0.173 0.458 -0.456 0.687 -0.584 l 0.147 -0.082 l 0.403 0.401 c 0.211 0.228 0.394 0.429 0.394 0.447 c 0 0.027 -0.486 0.292 -1.118 0.602 c -0.614 0.31 -1.127 0.565 -1.127 0.565 c -0.009 0 -0.018 -0.009 -0.018 -0.027 m -6.598 -1.888 c -0.302 -0.201 -0.559 -0.383 -0.577 -0.41 c -0.027 -0.036 1.448 -2.444 1.54 -2.499 c 0.027 -0.018 0.11 0.009 0.293 0.119 c 0.357 0.21 0.871 0.556 1.09 0.739 c 0.11 0.091 0.202 0.164 0.211 0.164 c 0.064 0 0.229 -0.155 0.357 -0.328 c 0.147 -0.201 0.687 -1.259 0.687 -1.341 c 0 -0.027 0.009 -0.046 0.027 -0.046 c 0.018 0 0.027 0.018 0.027 0.046 c 0 0.064 0.44 0.949 0.586 1.186 c 0.156 0.255 0.266 0.374 0.376 0.438 c 0.037 0.018 0.082 0.036 0.092 0.036 c 0.009 0 0.082 -0.055 0.174 -0.137 c 0.266 -0.237 1.283 -0.894 1.375 -0.894 c 0.018 0 0.064 0.036 0.101 0.082 c 0.128 0.182 1.485 2.39 1.485 2.417 c 0 0.036 -1.136 0.794 -1.155 0.766 c -0.009 -0.009 -0.055 -0.146 -0.101 -0.31 c -0.137 -0.502 -0.302 -0.73 -0.532 -0.739 c -0.449 -0.009 -0.999 0.036 -1.943 0.173 l -0.504 0.082 l -0.486 -0.082 c -0.751 -0.109 -1.301 -0.164 -1.695 -0.164 c -0.339 0 -0.357 0 -0.449 0.073 c -0.11 0.1 -0.275 0.447 -0.339 0.73 c -0.037 0.119 -0.064 0.228 -0.073 0.237 c -0.018 0.018 -0.266 -0.137 -0.568 -0.337" transform="matrix(0.42627 0 0 0.42828 1.773 1.555)" fill="none" stroke="#000" stroke-linejoin="round" stroke-linecap="round" stroke-width="2"/></g><g id="6" clip-path="url(#5)"><path d="m 23.322 30.908 c -0.486 -0.119 -0.797 -0.228 -0.861 -0.301 c -0.101 -0.109 -0.192 -0.766 -0.431 -2.955 c -0.11 -1.049 -0.477 -4.652 -0.477 -4.743 c 0 -0.009 0.009 -0.009 0.027 -0.009 c 0.027 0 0.651 0.702 0.724 0.821 c 0.082 0.128 0.101 0.602 0.128 2.426 c 0.018 1.979 0.064 2.682 0.183 2.91 c 0.055 0.119 0.394 0.228 0.889 0.292 c 0.22 0.036 0.376 0.073 0.385 0.091 c 0.009 0.018 -0.027 0.374 -0.073 0.784 c -0.055 0.41 -0.092 0.748 -0.092 0.766 c 0 0.018 0.009 0.018 -0.403 -0.082 m 0.99 0 c -0.055 -0.301 -0.174 -1.432 -0.165 -1.468 c 0.009 -0.027 0.119 -0.055 0.321 -0.082 c 0.577 -0.073 0.926 -0.192 0.981 -0.328 c 0.101 -0.274 0.137 -1.012 0.174 -3.329 c 0.018 -0.949 0.046 -1.779 0.055 -1.852 c 0.027 -0.091 0.082 -0.192 0.284 -0.41 c 0.44 -0.502 0.495 -0.556 0.513 -0.538 c 0.018 0.018 -0.312 3.411 -0.495 5.01 c -0.211 1.934 -0.312 2.599 -0.403 2.7 c -0.055 0.064 -0.486 0.21 -0.889 0.301 c -0.147 0.036 -0.284 0.073 -0.312 0.082 c -0.037 0.009 -0.055 -0.009 -0.064 -0.082 m -1.32 -2.162 c -0.202 -0.064 -0.238 -0.255 -0.128 -0.684 c 0.092 -0.365 0.376 -0.921 0.431 -0.857 c 0.009 0.009 0 0.237 -0.018 0.511 c -0.018 0.274 -0.037 0.611 -0.046 0.748 c 0 0.137 -0.009 0.265 -0.027 0.283 c -0.018 0.036 -0.082 0.036 -0.211 0 m 1.842 0 c -0.009 -0.027 -0.018 -0.146 -0.027 -0.274 c 0 -0.182 -0.046 -0.821 -0.082 -1.204 c -0.009 -0.109 0.073 -0.064 0.174 0.109 c 0.247 0.401 0.412 1.094 0.302 1.259 c -0.064 0.109 -0.321 0.182 -0.367 0.1 m -1.475 -0.055 c -0.046 -0.027 -0.055 -0.082 -0.055 -0.41 v -0.374 h 0.687 v 0.356 c 0 0.401 -0.018 0.447 -0.174 0.438 c -0.037 0 -0.119 -0.009 -0.165 -0.009 c -0.055 0 -0.128 0 -0.165 0.018 c -0.046 0.009 -0.101 0 -0.128 -0.018 m 0.779 -0.009 c -0.073 -0.036 -0.073 -0.046 -0.082 -0.41 l -0.009 -0.365 h 0.687 v 0.374 c 0 0.438 -0.018 0.465 -0.22 0.41 c -0.082 -0.027 -0.137 -0.018 -0.183 0 c -0.092 0.046 -0.101 0.046 -0.192 -0.009 m -8 -1.779 c 0 -0.036 0.559 -1.505 0.651 -1.715 c 0.027 -0.073 0.073 -0.128 0.119 -0.146 c 0.046 -0.018 0.477 -0.173 0.962 -0.347 c 0.477 -0.182 1.457 -0.547 2.172 -0.812 c 0.724 -0.283 1.32 -0.483 1.329 -0.474 c 0.046 0.046 0.266 2.39 0.229 2.435 c -0.027 0.027 -5.269 1.085 -5.407 1.085 c -0.027 0 -0.055 -0.018 -0.055 -0.036 m 7.331 -0.036 c -0.385 -0.182 -0.477 -0.483 -0.66 -2.143 c -0.082 -0.702 -0.082 -0.757 -0.037 -0.812 c 0.046 -0.046 1.09 -0.538 1.145 -0.538 c 0.082 0 0.092 3.147 0.018 3.411 c -0.018 0.055 -0.046 0.109 -0.073 0.128 c -0.064 0.046 -0.238 0.018 -0.394 -0.046 m 0.715 0.046 c -0.092 -0.055 -0.11 -0.219 -0.128 -1.24 c -0.018 -1.268 0.018 -2.298 0.073 -2.298 c 0.037 0 1.072 0.474 1.136 0.52 c 0.018 0.018 0.037 0.082 0.037 0.146 c 0 0.164 -0.11 1.149 -0.192 1.678 c -0.119 0.757 -0.22 0.976 -0.522 1.131 c -0.165 0.082 -0.339 0.109 -0.403 0.064 m 4.912 -0.502 c -1.448 -0.292 -2.648 -0.538 -2.658 -0.556 c -0.037 -0.036 0.192 -2.39 0.229 -2.435 c 0.018 -0.009 0.532 0.164 1.21 0.429 c 0.651 0.246 1.668 0.62 2.245 0.839 c 0.586 0.21 1.072 0.392 1.081 0.401 c 0.027 0.027 0.696 1.788 0.696 1.824 c 0 0.009 -0.037 0.027 -0.082 0.018 c -0.046 0 -1.265 -0.237 -2.722 -0.52 m -14.616 -1.259 c 0.018 -0.046 1.136 -1 1.274 -1.094 c 1.659 -1.085 5.242 -3.366 5.269 -3.347 c 0.046 0.046 0.348 2.253 0.312 2.335 c -0.027 0.091 -3.748 1.623 -4.454 1.833 c -0.467 0.137 -2.428 0.356 -2.401 0.274 m 18.06 -0.055 c -1.127 -0.128 -1.283 -0.164 -2.181 -0.511 c -1.265 -0.474 -3.629 -1.487 -3.656 -1.551 c -0.027 -0.082 0.275 -2.271 0.321 -2.326 c 0.018 -0.018 0.403 0.21 0.889 0.529 c 4.674 3.02 4.426 2.846 5.05 3.366 c 0.312 0.274 0.577 0.511 0.586 0.529 c 0.027 0.055 -0.229 0.046 -1.01 -0.036 m -20.435 -1.177 c -1.384 -0.018 -2.648 -0.046 -2.813 -0.055 l -0.293 -0.018 l 0.385 -0.328 c 2.566 -2.152 4.261 -3.548 4.683 -3.876 c 0.247 -0.192 0.889 -0.529 1.393 -0.73 c 0.696 -0.283 1.21 -0.41 2.181 -0.556 c 0.715 -0.1 2.071 -0.255 2.117 -0.237 c 0.046 0.018 0.449 0.593 0.623 0.885 c 0.211 0.365 0.605 1.341 0.568 1.423 c -0.018 0.064 -3.922 2.636 -4.912 3.256 l -0.412 0.246 l -0.504 0.009 c -0.284 0 -1.64 -0.009 -3.02 -0.018 m 20.463 0 c -0.174 -0.018 -0.238 -0.036 -0.504 -0.21 c -1.045 -0.648 -4.939 -3.229 -4.958 -3.283 c -0.018 -0.046 0.266 -0.821 0.422 -1.14 c 0.137 -0.292 0.55 -0.939 0.687 -1.094 c 0.082 -0.082 0.11 -0.091 0.22 -0.073 c 0.073 0.009 0.376 0.036 0.678 0.073 c 1.31 0.146 2.236 0.301 2.786 0.474 c 0.861 0.265 1.769 0.711 2.291 1.131 c 0.981 0.794 4.811 3.986 4.82 4.03 c 0.018 0.046 -0.669 0.064 -2.951 0.082 c -1.228 0.009 -2.474 0.018 -2.767 0.027 c -0.293 0 -0.623 0 -0.724 -0.009 m -10.03 -0.41 c -0.293 -0.228 -0.641 -0.593 -0.733 -0.775 c -0.092 -0.173 -0.211 -0.611 -0.266 -0.976 c -0.018 -0.128 -0.064 -0.292 -0.092 -0.356 c -0.092 -0.192 -0.027 -0.565 0.092 -0.529 c 0.586 0.164 0.971 0.274 1.118 0.292 c 0.422 0.064 1.347 0.1 1.952 0.064 c 0.834 -0.046 0.935 -0.064 1.659 -0.283 c 0.357 -0.109 0.367 -0.1 0.403 0.155 c 0.018 0.119 0.009 0.182 -0.037 0.301 c -0.037 0.082 -0.082 0.274 -0.11 0.438 c -0.11 0.666 -0.22 0.93 -0.522 1.25 c -0.247 0.255 -0.66 0.593 -0.678 0.547 c -0.009 -0.018 0.037 -0.146 0.092 -0.283 c 0.174 -0.401 0.257 -0.693 0.293 -0.985 c 0.046 -0.401 0.018 -0.511 -0.147 -0.675 l -0.137 -0.128 l -0.275 0.009 c -0.147 0.009 -0.339 0.027 -0.422 0.036 l -0.165 0.018 l 0.082 0.064 l 0.073 0.055 v 0.547 c 0 0.638 0.037 0.593 -0.357 0.575 l -0.22 -0.009 l 0.009 -0.529 c 0 -0.292 0.009 -0.538 0.027 -0.556 c 0.009 -0.018 0.101 -0.046 0.183 -0.073 c 0.165 -0.046 0.165 -0.046 -0.321 -0.046 h -0.495 l 0.183 0.055 l 0.174 0.046 l 0.027 0.274 c 0.009 0.155 0.018 0.401 0.009 0.556 l -0.009 0.274 l -0.22 0.009 c -0.119 0 -0.257 0 -0.293 -0.009 l -0.064 -0.018 l 0.009 -0.556 c 0.009 -0.547 0.009 -0.556 0.073 -0.584 c 0.037 -0.018 0.064 -0.046 0.064 -0.055 c 0 -0.018 -0.211 -0.046 -0.596 -0.073 l -0.247 -0.018 l -0.156 0.146 l -0.147 0.146 l 0.009 0.319 c 0 0.374 0.073 0.657 0.275 1.14 c 0.064 0.164 0.119 0.31 0.11 0.328 c 0 0.018 -0.101 -0.036 -0.211 -0.128 m 0.192 -0.666 c -0.082 -0.018 -0.092 -0.073 -0.128 -0.638 l -0.027 -0.301 l 0.101 -0.109 c 0.092 -0.1 0.119 -0.109 0.284 -0.119 c 0.119 0 0.202 0.009 0.229 0.036 c 0.055 0.055 0.073 1.104 0.018 1.14 c -0.046 0.027 -0.367 0.027 -0.477 -0.009 m 2.154 0.009 c -0.027 -0.009 -0.037 -0.146 -0.037 -0.538 c 0 -0.638 0 -0.648 0.247 -0.638 c 0.183 0.009 0.284 0.055 0.357 0.182 c 0.046 0.064 0.046 0.119 0.018 0.483 c -0.018 0.237 -0.046 0.438 -0.046 0.456 c -0.027 0.055 -0.44 0.1 -0.541 0.055 m -1.704 -1.842 c -0.88 -0.091 -1.32 -0.173 -1.576 -0.31 c -0.128 -0.064 -0.147 -0.1 -0.852 -1.359 c -0.394 -0.711 -0.724 -1.313 -0.724 -1.332 c 0 -0.064 0.779 -0.894 0.843 -0.894 c 0.082 0 0.376 0.164 0.522 0.292 c 0.238 0.21 0.266 0.447 0.119 0.958 c -0.11 0.42 -0.156 0.702 -0.11 0.848 c 0.037 0.155 0.293 0.401 0.66 0.629 c 0.321 0.21 1.182 0.666 1.54 0.821 c 0.147 0.064 0.293 0.146 0.339 0.192 c 0.092 0.082 0.128 0.091 0.192 0.009 c 0.018 -0.027 0.275 -0.164 0.559 -0.301 c 0.907 -0.429 1.622 -0.866 1.879 -1.149 l 0.128 -0.146 l -0.018 -0.292 c -0.009 -0.201 -0.046 -0.383 -0.11 -0.593 c -0.156 -0.511 -0.119 -0.757 0.128 -0.985 c 0.147 -0.119 0.495 -0.31 0.55 -0.292 c 0.046 0.018 0.806 0.857 0.806 0.894 c 0 0.018 -0.33 0.62 -0.724 1.341 l -0.733 1.313 l -0.137 0.064 c -0.293 0.128 -0.706 0.21 -1.485 0.283 c -0.422 0.046 -0.806 0.082 -0.861 0.091 c -0.046 0 -0.467 -0.027 -0.935 -0.082 m 0.238 -0.62 c -0.348 -0.082 -0.907 -0.401 -1.439 -0.83 c -0.312 -0.255 -0.33 -0.292 -0.312 -0.575 c 0.018 -0.246 0.073 -0.438 0.119 -0.438 c 0.009 0 0.257 0.137 0.55 0.292 c 0.779 0.438 0.944 0.502 1.301 0.529 l 0.293 0.018 l 0.027 0.109 c 0.018 0.1 0.018 0.31 -0.027 0.693 c -0.009 0.082 -0.037 0.173 -0.055 0.201 c -0.055 0.055 -0.202 0.055 -0.458 0 m 0.092 -0.182 c 0 -0.009 -0.192 -0.137 -0.431 -0.301 c -0.229 -0.155 -0.532 -0.392 -0.66 -0.52 c -0.137 -0.128 -0.257 -0.228 -0.266 -0.228 c -0.055 0 0.055 0.365 0.147 0.474 c 0.147 0.182 1.21 0.684 1.21 0.575 m 0.706 0.192 c -0.055 -0.064 -0.092 -0.283 -0.092 -0.657 c -0.009 -0.374 -0.009 -0.374 0.257 -0.374 c 0.119 0 0.284 -0.018 0.376 -0.046 c 0.183 -0.055 0.687 -0.31 1.182 -0.593 c 0.174 -0.1 0.339 -0.182 0.357 -0.182 c 0.046 0 0.092 0.192 0.119 0.465 l 0.018 0.237 l -0.156 0.146 c -0.33 0.328 -1.118 0.839 -1.457 0.949 c -0.275 0.091 -0.55 0.109 -0.605 0.055 m 0.706 -0.283 c 0.751 -0.319 0.944 -0.474 1.01 -0.848 c 0.027 -0.146 -0.009 -0.146 -0.156 0.018 c -0.147 0.164 -0.568 0.493 -0.88 0.693 c -0.422 0.265 -0.403 0.319 0.037 0.137 m -12.564 -1.213 c -0.889 -0.21 -1.622 -0.383 -1.64 -0.401 c -0.027 -0.027 0.046 -0.091 0.843 -0.693 c 2.02 -1.514 2.236 -1.66 2.813 -1.842 c 0.44 -0.146 0.678 -0.182 1.64 -0.265 l 0.559 -0.055 l 0.348 0.146 c 0.513 0.21 1.21 0.556 1.512 0.757 c 0.147 0.1 0.376 0.292 0.513 0.438 c 0.266 0.283 0.66 0.794 0.651 0.848 c -0.009 0.009 -0.211 0.046 -0.44 0.082 c -1.54 0.192 -2.557 0.365 -3.042 0.529 c -0.348 0.109 -1.063 0.41 -1.613 0.675 c -0.211 0.1 -0.357 0.155 -0.431 0.155 c -0.055 0 -0.834 -0.173 -1.714 -0.374 m 21.26 0.255 c -0.431 -0.219 -1.329 -0.602 -1.659 -0.711 c -0.513 -0.173 -1.136 -0.283 -2.648 -0.474 c -0.806 -0.109 -0.852 -0.119 -0.852 -0.155 c 0 -0.046 0.348 -0.502 0.568 -0.748 c 0.119 -0.128 0.321 -0.31 0.458 -0.42 c 0.266 -0.21 1.026 -0.602 1.622 -0.839 l 0.394 -0.164 l 0.55 0.046 c 1.045 0.091 1.439 0.173 1.961 0.383 c 0.357 0.146 0.669 0.365 2.447 1.706 c 0.852 0.638 0.916 0.693 0.889 0.721 c -0.037 0.036 -3.299 0.775 -3.4 0.775 c -0.046 0 -0.192 -0.055 -0.321 -0.119 m -10.236 -0.237 c -0.174 -0.018 -0.449 -0.055 -0.605 -0.082 c -0.238 -0.046 -0.275 -0.064 -0.302 -0.128 c -0.027 -0.055 -0.018 -0.237 0.046 -0.748 c 0.046 -0.374 0.092 -0.775 0.092 -0.885 c 0 -0.201 -0.009 -0.228 -0.192 -0.584 c -0.101 -0.21 -0.174 -0.392 -0.165 -0.41 c 0.018 -0.027 1.475 -0.711 1.53 -0.711 c 0.018 0 0.037 0.036 0.046 0.073 c 0.009 0.073 0.137 3.174 0.137 3.402 v 0.128 l -0.128 -0.009 c -0.073 0 -0.275 -0.018 -0.458 -0.036 m 0.696 -0.119 c 0 -0.082 0.037 -0.894 0.073 -1.788 c 0.046 -1.213 0.073 -1.623 0.101 -1.642 c 0.046 -0.018 1.53 0.666 1.549 0.711 c 0 0.018 -0.046 0.146 -0.119 0.283 c -0.082 0.137 -0.165 0.328 -0.202 0.438 c -0.073 0.219 -0.073 0.21 0.046 1.177 c 0.046 0.319 0.073 0.611 0.073 0.648 c 0 0.146 -0.119 0.182 -0.871 0.274 c -0.687 0.091 -0.641 0.091 -0.651 -0.1 m -1.961 -0.246 c -0.064 -0.064 -0.119 -0.137 -0.119 -0.173 c 0 -0.036 -0.018 -0.201 -0.055 -0.374 c -0.092 -0.456 -0.183 -0.629 -0.568 -1.04 c -0.33 -0.347 -0.33 -0.347 -0.257 -0.392 c 0.147 -0.091 0.916 -0.42 0.953 -0.41 c 0.055 0.027 0.339 0.629 0.376 0.812 c 0.055 0.265 -0.064 1.532 -0.156 1.642 c -0.046 0.055 -0.055 0.055 -0.174 -0.064 m 3.638 0.064 c -0.046 -0.055 -0.119 -0.493 -0.156 -1.022 c -0.027 -0.374 -0.027 -0.502 0 -0.638 c 0.046 -0.192 0.312 -0.766 0.376 -0.794 c 0.055 -0.018 0.962 0.392 0.981 0.447 c 0.009 0.018 -0.101 0.164 -0.266 0.337 c -0.431 0.447 -0.541 0.666 -0.614 1.222 c -0.027 0.21 -0.055 0.274 -0.119 0.347 c -0.101 0.119 -0.165 0.146 -0.202 0.1 m -6.05 -1 c -0.046 -0.055 -0.156 -0.21 -0.247 -0.356 c -0.229 -0.319 -0.577 -0.693 -0.797 -0.839 c -0.092 -0.055 -0.44 -0.246 -0.779 -0.429 c -0.339 -0.173 -0.614 -0.337 -0.623 -0.347 c -0.027 -0.036 0.761 -2.025 0.806 -2.034 c 0.027 -0.009 0.101 0.036 0.174 0.119 l 0.128 0.128 l 0.037 0.383 c 0.073 0.93 0.174 1.405 0.321 1.532 c 0.128 0.109 0.522 0.328 1.246 0.702 c 0.348 0.182 0.632 0.337 0.623 0.356 c -0.018 0.046 -0.779 0.885 -0.806 0.885 c -0.009 0 -0.046 -0.046 -0.082 -0.1 m 8.137 -0.328 c -0.211 -0.237 -0.385 -0.447 -0.385 -0.465 c 0 -0.018 0.348 -0.21 0.77 -0.429 c 0.825 -0.429 1.081 -0.584 1.155 -0.693 c 0.027 -0.046 0.073 -0.182 0.11 -0.328 c 0.046 -0.219 0.073 -0.465 0.165 -1.368 c 0.018 -0.137 0.037 -0.173 0.137 -0.274 c 0.064 -0.064 0.137 -0.109 0.165 -0.109 c 0.037 0 0.156 0.274 0.431 0.958 c 0.202 0.529 0.376 0.994 0.376 1.022 c 0 0.064 -0.101 0.128 -0.651 0.41 c -0.357 0.192 -0.742 0.41 -0.852 0.502 c -0.229 0.173 -0.532 0.52 -0.806 0.921 c -0.101 0.155 -0.202 0.283 -0.211 0.283 c -0.009 0 -0.192 -0.192 -0.403 -0.429 m -7.377 -0.866 c -0.165 -0.036 -0.431 -0.119 -0.596 -0.182 c -0.825 -0.292 -1.036 -0.465 -1.2 -1 c -0.082 -0.283 -0.11 -0.866 -0.055 -1.25 c 0.027 -0.155 0.037 -0.292 0.037 -0.31 c -0.009 -0.018 -0.11 -0.073 -0.22 -0.128 c -0.119 -0.055 -0.22 -0.109 -0.22 -0.137 c -0.018 -0.046 0.147 -0.383 0.202 -0.41 c 0.046 -0.009 5.233 2.098 5.288 2.152 c 0.037 0.036 0.137 -0.009 -1.43 0.721 c -0.742 0.347 -1.384 0.62 -1.43 0.62 c -0.037 0 -0.211 -0.036 -0.376 -0.073 m 0.385 -0.556 c 0.33 -0.155 0.806 -0.565 0.788 -0.666 c -0.018 -0.064 -2.227 -1.022 -2.273 -0.985 c -0.055 0.055 -0.037 0.848 0.027 1.04 c 0.064 0.228 0.211 0.447 0.385 0.565 c 0.202 0.137 0.293 0.155 0.596 0.146 c 0.238 0 0.302 -0.018 0.477 -0.1 m -0.623 -0.337 c -0.165 -0.046 -0.275 -0.128 -0.357 -0.265 c -0.064 -0.119 -0.082 -0.182 -0.082 -0.356 c 0 -0.109 0.009 -0.219 0.027 -0.237 c 0.037 -0.036 1.081 0.41 1.109 0.483 c 0.018 0.046 -0.183 0.265 -0.302 0.319 c -0.128 0.064 -0.284 0.082 -0.394 0.055 m 5.489 0.319 c -0.761 -0.356 -1.384 -0.657 -1.393 -0.675 c -0.009 -0.046 5.251 -2.189 5.306 -2.171 c 0.046 0.027 0.229 0.383 0.202 0.42 c -0.009 0.009 -0.11 0.073 -0.22 0.119 c -0.11 0.055 -0.211 0.119 -0.22 0.137 c -0.009 0.018 0.009 0.155 0.027 0.31 c 0.119 0.812 -0.037 1.514 -0.394 1.833 c -0.147 0.137 -0.467 0.283 -0.99 0.465 c -0.321 0.109 -0.77 0.219 -0.889 0.21 c -0.027 0 -0.669 -0.292 -1.43 -0.648 m 2.346 0.073 c 0.284 -0.109 0.467 -0.319 0.586 -0.675 c 0.046 -0.128 0.055 -0.255 0.055 -0.584 c 0 -0.246 -0.009 -0.429 -0.037 -0.447 c -0.018 -0.018 -0.367 0.119 -1.127 0.447 c -0.605 0.255 -1.118 0.483 -1.136 0.502 c -0.119 0.091 0.568 0.648 0.962 0.775 c 0.183 0.055 0.522 0.055 0.696 -0.018 m -0.541 -0.401 c -0.128 -0.036 -0.412 -0.283 -0.412 -0.356 c 0 -0.073 1.072 -0.538 1.118 -0.493 c 0.055 0.064 0.037 0.401 -0.046 0.556 c -0.11 0.237 -0.394 0.365 -0.66 0.292 m -14.864 -0.073 c -0.568 -0.292 -1.036 -0.547 -1.026 -0.565 c 0.009 -0.036 3.281 -1.888 3.326 -1.888 c 0.009 0 0.055 0.091 0.101 0.21 c 0.247 0.62 0.412 0.976 0.495 1.122 c 0.101 0.173 0.458 0.657 0.66 0.912 c 0.064 0.073 0.101 0.146 0.092 0.164 c -0.018 0.009 -0.174 0.036 -0.339 0.064 c -0.99 0.109 -1.448 0.21 -1.97 0.41 c -0.147 0.055 -0.275 0.109 -0.275 0.109 c -0.009 0 -0.486 -0.246 -1.054 -0.538 m 21.361 0.42 c -0.147 -0.055 -0.394 -0.137 -0.541 -0.173 c -0.257 -0.073 -1.063 -0.201 -1.521 -0.246 c -0.119 -0.018 -0.229 -0.036 -0.238 -0.055 c -0.009 -0.018 0.009 -0.055 0.046 -0.1 c 0.027 -0.036 0.156 -0.192 0.275 -0.356 c 0.403 -0.493 0.495 -0.666 0.834 -1.496 c 0.092 -0.237 0.183 -0.438 0.202 -0.438 c 0.018 -0.009 1.741 0.949 3.152 1.751 c 0.101 0.055 0.183 0.119 0.183 0.128 c 0 0.027 -1.943 1.04 -2.062 1.076 c -0.037 0.009 -0.183 -0.027 -0.33 -0.091 m -17.219 -0.556 c -0.907 -0.429 -2.044 -3.384 -2.318 -6.04 c -0.055 -0.511 -0.046 -1.696 0.009 -1.988 c 0.073 -0.319 0.037 -0.328 0.385 0.046 c 0.367 0.401 1.136 1.14 1.521 1.468 c 0.403 0.356 0.614 0.502 0.981 0.693 c 0.192 0.1 0.394 0.21 0.458 0.255 c 0.101 0.055 0.119 0.055 0.156 0.018 c 0.018 -0.018 0.147 -0.246 0.284 -0.502 c 0.128 -0.246 0.266 -0.483 0.302 -0.52 c 0.055 -0.064 0.055 -0.064 0.22 -0.009 c 0.22 0.073 0.623 0.292 0.962 0.52 c 0.403 0.265 0.834 0.602 0.834 0.657 c 0 0.055 -1.714 2.399 -1.888 2.59 c -0.119 0.128 -0.137 0.137 -0.247 0.119 c -0.092 -0.018 -0.119 -0.009 -0.165 0.036 c -0.055 0.064 -0.412 0.866 -0.907 2.025 c -0.22 0.511 -0.33 0.721 -0.357 0.721 c -0.027 0 -0.128 -0.036 -0.229 -0.082 m 0.412 -1.231 c 0.394 -0.812 0.696 -1.505 0.779 -1.742 c 0.073 -0.21 0.055 -0.383 -0.064 -0.638 c -0.092 -0.182 -0.174 -0.292 -0.467 -0.584 c -0.202 -0.21 -0.532 -0.502 -0.733 -0.657 c -0.806 -0.62 -1.448 -1.405 -1.897 -2.344 c -0.073 -0.137 -0.137 -0.246 -0.147 -0.246 c -0.082 0 -0.055 0.912 0.037 1.614 c 0.266 1.879 0.806 3.612 1.485 4.697 c 0.202 0.328 0.513 0.73 0.577 0.73 c 0.027 0 0.192 -0.319 0.431 -0.83 m 13.425 0.593 c -0.477 -1.131 -0.852 -1.961 -0.907 -2.025 c -0.046 -0.046 -0.073 -0.055 -0.165 -0.036 c -0.11 0.018 -0.128 0.009 -0.247 -0.128 c -0.183 -0.192 -1.888 -2.536 -1.888 -2.59 c 0 -0.046 0.312 -0.301 0.733 -0.593 c 0.312 -0.21 0.797 -0.483 1.045 -0.584 l 0.165 -0.064 l 0.064 0.073 c 0.037 0.036 0.183 0.274 0.312 0.529 c 0.128 0.246 0.257 0.474 0.284 0.502 c 0.037 0.036 0.055 0.027 0.156 -0.027 c 0.064 -0.036 0.266 -0.146 0.449 -0.246 c 0.586 -0.31 1.155 -0.784 2.208 -1.861 l 0.614 -0.629 l 0.037 0.137 c 0.092 0.42 0.119 1.341 0.055 1.997 c -0.211 2.298 -1.1 4.943 -1.998 5.928 c -0.137 0.146 -0.449 0.337 -0.568 0.337 c -0.018 0 -0.174 -0.328 -0.339 -0.721 m 0.779 0.055 c 0.806 -0.894 1.521 -2.882 1.86 -5.19 c 0.073 -0.465 0.119 -1.669 0.064 -1.669 c -0.009 0 -0.11 0.155 -0.202 0.347 c -0.339 0.648 -0.806 1.295 -1.246 1.724 c -0.119 0.109 -0.394 0.347 -0.605 0.52 c -0.687 0.538 -1.164 1.067 -1.274 1.395 c -0.064 0.182 -0.046 0.365 0.073 0.648 c 0.22 0.584 1.09 2.408 1.136 2.408 c 0.009 0 0.101 -0.082 0.192 -0.182 m -7.588 0.21 c -0.284 -0.228 -0.321 -0.374 -0.229 -0.93 c 0.082 -0.438 0.055 -0.757 -0.101 -1.149 c -0.165 -0.401 -0.211 -0.593 -0.211 -0.894 c 0 -0.283 0.046 -0.474 0.11 -0.474 c 0.018 0 0.156 0.082 0.293 0.182 c 0.147 0.109 0.284 0.192 0.312 0.192 c 0.018 0 0.156 -0.082 0.302 -0.192 c 0.137 -0.1 0.275 -0.182 0.302 -0.182 c 0.073 0 0.092 0.137 0.092 0.52 c 0 0.31 -0.009 0.383 -0.082 0.556 c -0.229 0.584 -0.238 0.62 -0.247 0.894 c -0.009 0.173 0 0.383 0.027 0.565 c 0.092 0.565 0.064 0.684 -0.229 0.912 c -0.082 0.064 -0.165 0.119 -0.174 0.119 c -0.009 0 -0.082 -0.055 -0.174 -0.119 m -1.045 -0.392 c -0.22 -0.091 -0.422 -0.192 -0.449 -0.219 c -0.018 -0.027 -0.073 -0.192 -0.119 -0.356 c -0.119 -0.483 -0.275 -0.794 -0.513 -1.04 c -0.11 -0.119 -0.247 -0.246 -0.302 -0.292 c -0.092 -0.064 -0.11 -0.091 -0.128 -0.283 c -0.009 -0.109 -0.009 -0.292 0 -0.401 c 0.064 -0.438 0.202 -0.547 0.77 -0.584 c 0.357 -0.027 1.127 0.009 1.173 0.055 c 0.009 0.009 -0.018 0.228 -0.064 0.474 l -0.092 0.465 l 0.165 0.502 c 0.092 0.274 0.183 0.593 0.211 0.702 c 0.064 0.237 0.055 0.565 0 0.803 c -0.073 0.292 -0.11 0.356 -0.174 0.347 c -0.037 0 -0.247 -0.073 -0.477 -0.173 m 1.879 0.1 c -0.073 -0.21 -0.119 -0.483 -0.119 -0.702 c 0 -0.255 0.101 -0.657 0.312 -1.268 l 0.11 -0.301 l -0.092 -0.465 c -0.046 -0.265 -0.073 -0.474 -0.064 -0.493 c 0.046 -0.046 0.861 -0.082 1.2 -0.046 c 0.614 0.055 0.715 0.164 0.733 0.784 l 0.009 0.374 l -0.101 0.082 c -0.055 0.046 -0.202 0.192 -0.33 0.319 c -0.266 0.274 -0.357 0.456 -0.513 0.994 c -0.055 0.21 -0.119 0.392 -0.128 0.41 c -0.046 0.046 -0.871 0.383 -0.935 0.383 c -0.027 0 -0.064 -0.036 -0.082 -0.073 m -4.784 -1.405 c -0.605 -0.31 -1.1 -0.575 -1.1 -0.602 c 0 -0.018 0.183 -0.219 0.394 -0.438 l 0.403 -0.41 l 0.101 0.055 c 0.174 0.091 0.495 0.347 0.641 0.511 c 0.165 0.192 0.348 0.511 0.541 0.958 c 0.156 0.365 0.202 0.493 0.156 0.493 c -0.018 0 -0.522 -0.246 -1.136 -0.556 m 7.102 0.529 c 0 -0.137 0.458 -1.076 0.632 -1.323 c 0.128 -0.173 0.458 -0.456 0.687 -0.584 l 0.147 -0.082 l 0.403 0.401 c 0.211 0.228 0.394 0.429 0.394 0.447 c 0 0.027 -0.486 0.292 -1.118 0.602 c -0.614 0.31 -1.127 0.565 -1.127 0.565 c -0.009 0 -0.018 -0.009 -0.018 -0.027 m -6.598 -1.888 c -0.302 -0.201 -0.559 -0.383 -0.577 -0.41 c -0.027 -0.036 1.448 -2.444 1.54 -2.499 c 0.027 -0.018 0.11 0.009 0.293 0.119 c 0.357 0.21 0.871 0.556 1.09 0.739 c 0.11 0.091 0.202 0.164 0.211 0.164 c 0.064 0 0.229 -0.155 0.357 -0.328 c 0.147 -0.201 0.687 -1.259 0.687 -1.341 c 0 -0.027 0.009 -0.046 0.027 -0.046 c 0.018 0 0.027 0.018 0.027 0.046 c 0 0.064 0.44 0.949 0.586 1.186 c 0.156 0.255 0.266 0.374 0.376 0.438 c 0.037 0.018 0.082 0.036 0.092 0.036 c 0.009 0 0.082 -0.055 0.174 -0.137 c 0.266 -0.237 1.283 -0.894 1.375 -0.894 c 0.018 0 0.064 0.036 0.101 0.082 c 0.128 0.182 1.485 2.39 1.485 2.417 c 0 0.036 -1.136 0.794 -1.155 0.766 c -0.009 -0.009 -0.055 -0.146 -0.101 -0.31 c -0.137 -0.502 -0.302 -0.73 -0.532 -0.739 c -0.449 -0.009 -0.999 0.036 -1.943 0.173 l -0.504 0.082 l -0.486 -0.082 c -0.751 -0.109 -1.301 -0.164 -1.695 -0.164 c -0.339 0 -0.357 0 -0.449 0.073 c -0.11 0.1 -0.275 0.447 -0.339 0.73 c -0.037 0.119 -0.064 0.228 -0.073 0.237 c -0.018 0.018 -0.266 -0.137 -0.568 -0.337" transform="matrix(0.42627 0 0 0.42828 1.773 1.555)" fill="none" stroke="#000" stroke-linejoin="round" stroke-linecap="round"/></g><g id="9" clip-path="url(#8)"><path d="m 14.55 21.818 c -0.029 0.008 0.291 0.361 0.728 0.78 c 1.135 1.099 1.116 0.99 0.136 0.99 h -0.834 l -0.019 0.428 c -0.01 0.26 0.01 0.461 0.049 0.503 c 0.029 0.042 0.359 0.075 0.805 0.084 c 0.408 0.017 0.757 0.034 0.767 0.042 c 0.01 0.008 0.029 0.99 0.049 2.173 c 0.019 1.183 0.039 2.156 0.039 2.164 c 0.019 0.025 0.805 0.042 0.825 0.017 c 0.01 -0.017 0.039 -0.998 0.049 -2.173 c 0.019 -1.602 0.049 -2.164 0.097 -2.24 c 0.058 -0.075 0.049 -0.117 -0.029 -0.218 c -0.097 -0.126 -0.097 -0.126 0 -0.084 c 0.058 0.017 0.233 0.185 0.388 0.369 c 0.155 0.176 0.505 0.495 0.767 0.705 c 0.272 0.21 0.708 0.562 0.98 0.789 c 0.272 0.226 0.602 0.47 0.728 0.537 c 0.126 0.067 0.243 0.151 0.262 0.193 c 0.019 0.034 -0.039 0.025 -0.126 -0.034 c -0.223 -0.126 -0.281 -0.126 -0.281 0.034 c 0 0.252 0.155 0.562 0.349 0.688 c 0.107 0.075 0.184 0.151 0.165 0.168 c -0.01 0.025 -0.097 -0.025 -0.175 -0.101 c -0.194 -0.168 -0.767 -0.512 -1.223 -0.721 c -0.951 -0.445 -0.437 0.109 0.747 0.797 c 0.33 0.193 0.631 0.352 0.67 0.352 c 0.029 0 0.068 0.059 0.087 0.126 c 0.078 0.26 1.029 0.814 1.397 0.814 c 0.087 0 0.437 0.151 0.776 0.336 c 0.767 0.419 0.999 0.503 0.864 0.31 c -0.039 -0.059 -0.204 -0.201 -0.369 -0.327 c -0.291 -0.21 -0.301 -0.218 -0.165 -0.26 c 0.126 -0.034 0.136 -0.067 0.165 -0.47 c 0.019 -0.235 0.029 -0.453 0.019 -0.47 c -0.01 -0.025 -0.291 -0.059 -0.611 -0.075 c -0.689 -0.034 -1.029 -0.159 -1.485 -0.562 c -0.155 -0.134 -0.281 -0.26 -0.272 -0.277 c 0.01 -0.008 0.213 0.067 0.446 0.168 c 0.233 0.101 0.456 0.185 0.485 0.185 c 0.116 0 -0.301 -0.369 -0.796 -0.688 c -0.262 -0.176 -0.495 -0.344 -0.505 -0.377 c -0.019 -0.034 -0.184 -0.168 -0.359 -0.31 c -0.184 -0.134 -0.33 -0.294 -0.33 -0.344 c 0 -0.101 -0.66 -0.713 -1.058 -0.981 c -0.301 -0.201 -0.33 -0.294 -0.087 -0.294 h 0.165 l -0.019 -0.487 l -0.01 -0.487 l -0.689 -0.017 c -0.776 -0.025 -0.883 0.025 -0.631 0.268 c 0.107 0.101 0.126 0.134 0.049 0.101 c -0.058 -0.034 -0.233 -0.185 -0.378 -0.336 c -0.155 -0.151 -0.475 -0.436 -0.708 -0.629 c -0.495 -0.386 -1.805 -1.191 -1.902 -1.158 m 25.335 1.275 c -0.563 0 -0.834 0.101 -1.155 0.445 c -0.34 0.361 -0.514 0.705 -0.592 1.166 c -0.097 0.52 -0.01 0.587 0.213 0.176 c 0.184 -0.336 0.291 -0.386 0.466 -0.235 c 0.165 0.143 0.223 0.117 0.301 -0.092 c 0.087 -0.243 0.388 -0.537 0.602 -0.587 c 0.34 -0.092 0.718 0.176 0.718 0.503 c 0 0.168 -0.505 0.797 -0.98 1.225 c -0.776 0.696 -1.106 1.275 -1.106 1.938 c 0 0.57 -0.049 0.562 1.523 0.537 l 1.358 -0.017 v -0.814 l -0.922 -0.034 c -0.505 -0.017 -0.922 -0.05 -0.922 -0.075 c 0 -0.025 0 -0.075 0 -0.109 c 0 -0.067 0.543 -0.596 1.164 -1.149 c 0.233 -0.201 0.505 -0.503 0.621 -0.679 c 0.233 -0.336 0.854 -1.669 0.834 -1.762 c -0.01 -0.025 -0.165 0.092 -0.349 0.268 c -0.175 0.176 -0.34 0.31 -0.359 0.302 c -0.019 -0.008 -0.116 -0.151 -0.213 -0.319 c -0.126 -0.21 -0.291 -0.377 -0.485 -0.503 c -0.262 -0.168 -0.359 -0.193 -0.718 -0.185 m -4.958 0.461 c -0.864 0 -1.727 0.017 -1.756 0.059 c -0.019 0.034 0.019 0.092 0.087 0.134 c 0.116 0.067 0.116 0.101 0.107 1.426 c -0.01 0.747 -0.01 1.913 -0.01 2.592 l 0.01 1.233 h 0.912 l 0.039 -0.428 c 0.019 -0.226 0.039 -0.721 0.039 -1.082 c 0 -0.705 0.01 -0.747 0.281 -0.747 c 0.068 0 0.369 0.285 0.747 0.705 c 1.145 1.258 1.979 1.98 2.29 1.988 c 0.165 0 0.175 -0.008 0.194 -0.285 l 0.019 -0.285 l -0.805 -0.847 c -0.708 -0.763 -1.261 -1.409 -1.378 -1.627 c -0.029 -0.05 0.136 -0.268 0.427 -0.596 c 0.349 -0.394 0.475 -0.579 0.514 -0.772 c 0.068 -0.294 0.097 -1.3 0.039 -1.401 c -0.019 -0.042 -0.883 -0.067 -1.756 -0.067 m -23.86 0 c -0.272 -0.008 -0.543 0.008 -0.582 0.042 c -0.019 0.025 0.019 0.101 0.097 0.176 l 0.136 0.126 l 0.019 1.829 c 0.019 1.015 0.01 1.845 -0.019 1.862 c -0.068 0.05 -0.67 -0.31 -0.902 -0.537 c -0.388 -0.394 -0.466 -0.755 -0.495 -2.265 c -0.01 -0.612 -0.039 -1.141 -0.049 -1.174 c -0.039 -0.075 -0.747 -0.075 -0.844 0 c -0.058 0.042 -0.068 0.403 -0.049 2.03 c 0.01 1.09 0 1.98 -0.029 1.98 c -0.165 0 -0.776 -0.419 -0.99 -0.679 c -0.359 -0.453 -0.417 -0.721 -0.417 -2.105 c 0 -0.797 -0.019 -1.158 -0.068 -1.208 c -0.068 -0.075 -0.631 -0.101 -0.776 -0.034 c -0.078 0.034 -0.087 0.201 -0.087 1.233 c 0 1.275 0.049 1.669 0.281 2.181 c 0.165 0.377 0.747 0.998 1.126 1.2 c 0.175 0.101 0.553 0.31 0.834 0.47 c 0.291 0.159 0.543 0.277 0.563 0.26 c 0.019 -0.025 0.136 -0.193 0.262 -0.377 c 0.116 -0.185 0.223 -0.394 0.223 -0.461 c 0 -0.059 0.019 -0.101 0.039 -0.092 c 0.019 0.008 0.252 0.134 0.505 0.277 c 0.592 0.327 1.31 0.713 1.339 0.713 c 0.01 0 0.126 -0.168 0.243 -0.377 l 0.223 -0.386 l 0.019 -2.265 c 0 -1.25 -0.01 -2.298 -0.029 -2.34 c -0.029 -0.042 -0.301 -0.067 -0.572 -0.075 m 2.174 0 c -0.291 0 -0.553 0.025 -0.563 0.05 c -0.019 0.034 0.029 0.117 0.107 0.193 l 0.136 0.134 v 1.736 c 0.01 0.956 0.029 1.929 0.049 2.164 l 0.029 0.436 l 0.388 0.336 c 0.204 0.176 0.398 0.31 0.417 0.285 c 0.019 -0.025 0.058 -1.191 0.078 -2.592 c 0.029 -2.03 0.029 -2.567 -0.029 -2.642 c -0.058 -0.075 -0.194 -0.101 -0.611 -0.101 m 11.188 0 c -0.301 0 -0.553 0.025 -0.572 0.059 c -0.019 0.034 0.029 0.109 0.097 0.159 l 0.136 0.101 l 0.019 2.533 c 0.019 2.164 0.029 2.542 0.097 2.592 c 0.087 0.067 0.66 0.042 0.767 -0.025 c 0.039 -0.034 0.058 -0.436 0.058 -1.166 c 0 -0.612 0.019 -1.132 0.049 -1.149 c 0.049 -0.034 2.232 0.235 2.28 0.277 c 0.01 0.017 0.039 0.713 0.068 1.552 c 0.029 1.216 0.049 1.51 0.107 1.51 c 0.049 0 0.184 -0.109 0.32 -0.252 c 0.136 -0.143 0.301 -0.386 0.359 -0.537 c 0.116 -0.268 0.126 -0.377 0.155 -2.911 c 0.019 -2.206 0.01 -2.634 -0.049 -2.684 c -0.116 -0.084 -0.786 -0.067 -0.864 0.017 c -0.049 0.05 -0.068 0.403 -0.068 1.158 c 0 0.99 -0.01 1.082 -0.097 1.082 c -0.223 0 -2.164 -0.252 -2.212 -0.285 c -0.039 -0.025 -0.049 -0.352 -0.019 -0.939 c 0.029 -0.679 0.019 -0.923 -0.029 -0.998 c -0.049 -0.067 -0.194 -0.092 -0.602 -0.092 m -4.085 0.008 c -0.767 0.008 -0.825 0.067 -0.64 0.218 c 0.116 0.084 0.126 0.143 0.126 0.889 c 0 0.436 0.019 0.856 0.039 0.931 c 0.039 0.134 0.737 0.83 0.834 0.83 c 0.019 0 0.058 -0.21 0.078 -0.461 c 0.019 -0.252 0.039 -0.629 0.029 -0.83 c 0 -0.201 -0.01 -0.403 0 -0.445 c 0 -0.059 0.252 -0.075 1.058 -0.075 c 0.582 0 1.087 -0.025 1.126 -0.059 c 0.049 -0.034 0.068 -0.185 0.058 -0.512 l -0.019 -0.461 l -1.669 -0.017 c -0.427 -0.008 -0.767 -0.008 -1.019 -0.008 m 9.412 0.008 c -0.291 0 -0.475 0.008 -0.505 0.017 c -0.068 0.034 -0.058 0.059 0.039 0.151 c 0.116 0.101 0.116 0.159 0.136 1.636 l 0.019 1.527 l 0.175 0.419 c 0.33 0.805 0.999 1.401 1.824 1.636 c 0.223 0.059 0.815 0.075 0.854 0.017 c 0.01 -0.008 0.029 -0.193 0.039 -0.428 c 0.039 -0.47 0.019 -0.487 -0.437 -0.487 c -0.301 0 -0.767 -0.201 -0.97 -0.419 c -0.175 -0.185 -0.495 -0.931 -0.446 -1.057 c 0.019 -0.059 0.184 -0.092 0.64 -0.101 l 0.621 -0.017 l 0.039 -0.973 h -1.31 l -0.019 -0.201 c -0.01 -0.117 -0.01 -0.344 0 -0.52 l 0.029 -0.31 l 0.951 -0.017 l 0.941 -0.017 l -0.01 -0.419 l -0.019 -0.428 l -1.504 -0.017 c -0.417 0 -0.805 0 -1.087 0 m 5.366 0.864 c 0.563 0 0.66 0.017 0.66 0.101 c 0 0.059 -0.233 0.352 -0.505 0.663 c -0.427 0.47 -0.534 0.554 -0.689 0.554 c -0.097 0 -0.184 -0.008 -0.184 -0.017 c -0.039 -0.109 -0.029 -1.158 0.019 -1.216 c 0.039 -0.059 0.252 -0.084 0.708 -0.084 m -14.574 3.339 c 0.019 -0.025 0.33 0.126 0.679 0.327 c 0.708 0.403 0.999 0.587 0.912 0.587 c -0.029 0 -0.107 -0.034 -0.165 -0.092 c -0.058 -0.042 -0.165 -0.092 -0.243 -0.092 c -0.068 0 -0.262 -0.092 -0.408 -0.201 c -0.155 -0.109 -0.398 -0.268 -0.543 -0.344 c -0.146 -0.075 -0.252 -0.159 -0.233 -0.185" transform="matrix(0.40258 0 0 0.46568 2.342 5.188)" fill="none" stroke="#000" stroke-linejoin="round" stroke-linecap="round" stroke-width="1.974"/><path d="m 14.55 21.818 c -0.029 0.008 0.291 0.361 0.728 0.78 c 0.427 0.419 0.64 0.629 0.757 0.772 c 0.019 0.008 0.029 0.017 0.049 0.034 c 0.349 0.243 0.679 0.579 1.087 0.864 c 0.01 0 0.01 0 0.049 0.017 c 0.058 0.017 0.223 0.185 0.378 0.369 c 0.155 0.176 0.505 0.495 0.776 0.705 c 0.262 0.21 0.708 0.562 0.98 0.789 c 0.262 0.226 0.592 0.47 0.718 0.537 c 0.126 0.067 0.243 0.151 0.262 0.193 c 0.01 0 -0.019 -0.008 -0.019 -0.008 c 0.301 0.226 0.475 0.336 0.621 0.403 c -0.01 -0.017 -0.068 -0.059 -0.058 -0.067 c 0.01 -0.008 0.204 0.067 0.437 0.168 c 0.233 0.101 0.456 0.185 0.495 0.185 c 0.116 0 -0.311 -0.369 -0.805 -0.696 c -0.262 -0.168 -0.485 -0.336 -0.505 -0.369 c -0.019 -0.034 -0.175 -0.176 -0.359 -0.31 c -0.175 -0.143 -0.32 -0.294 -0.32 -0.344 c 0 -0.101 -0.67 -0.713 -1.067 -0.981 c -0.175 -0.117 -0.243 -0.201 -0.233 -0.243 c -0.311 -0.201 -0.65 -0.428 -0.951 -0.671 c 0.01 0.008 0 0.017 -0.029 0 c -0.068 -0.034 -0.243 -0.193 -0.388 -0.344 c -0.146 -0.151 -0.466 -0.428 -0.708 -0.621 c -0.495 -0.394 -1.805 -1.191 -1.892 -1.158 m 25.325 1.275 c -0.563 0 -0.834 0.101 -1.155 0.445 c -0.34 0.361 -0.514 0.705 -0.592 1.166 c -0.097 0.52 -0.01 0.587 0.213 0.176 c 0.184 -0.336 0.291 -0.386 0.466 -0.235 c 0.165 0.143 0.223 0.117 0.301 -0.092 c 0.087 -0.243 0.388 -0.537 0.602 -0.587 c 0.34 -0.092 0.718 0.176 0.718 0.503 c 0 0.168 -0.505 0.797 -0.98 1.225 c -0.776 0.696 -1.106 1.275 -1.106 1.938 c 0 0.57 -0.039 0.562 1.523 0.537 l 1.358 -0.017 v -0.814 l -0.922 -0.025 c -0.505 -0.025 -0.912 -0.059 -0.912 -0.084 c 0 -0.025 0 -0.067 0 -0.101 c 0 -0.067 0.534 -0.604 1.155 -1.158 c 0.233 -0.201 0.505 -0.503 0.621 -0.671 c 0.233 -0.344 0.864 -1.678 0.834 -1.77 c -0.01 -0.025 -0.165 0.092 -0.34 0.268 c -0.184 0.176 -0.349 0.319 -0.369 0.31 c -0.019 -0.008 -0.116 -0.159 -0.213 -0.327 c -0.126 -0.201 -0.291 -0.369 -0.485 -0.495 c -0.262 -0.168 -0.359 -0.193 -0.718 -0.193 m -21.279 3.657 c -0.204 0 0.31 0.445 1.193 0.956 c 0.33 0.193 0.631 0.352 0.67 0.352 c 0.029 0 0.078 0.059 0.097 0.126 c 0.029 0.126 0.291 0.327 0.582 0.503 c 0.291 0.176 0.621 0.31 0.805 0.31 c 0.087 0 0.437 0.151 0.776 0.336 c 0.757 0.411 0.999 0.495 0.873 0.319 c 0 -0.008 -0.01 -0.008 -0.01 -0.017 c -0.049 -0.059 -0.213 -0.193 -0.369 -0.319 c -0.165 -0.117 -0.233 -0.168 -0.243 -0.201 c -0.359 -0.268 -0.902 -0.562 -1.465 -0.856 c 0.456 0.26 0.708 0.428 0.631 0.428 c -0.029 0 -0.107 -0.042 -0.165 -0.092 c -0.058 -0.05 -0.165 -0.092 -0.243 -0.092 c -0.068 -0.008 -0.262 -0.092 -0.408 -0.201 c -0.155 -0.117 -0.398 -0.268 -0.543 -0.352 c -0.146 -0.075 -0.252 -0.159 -0.233 -0.185 c 0.01 -0.008 0.243 0.117 0.408 0.201 c -0.155 -0.084 -0.34 -0.176 -0.466 -0.252 c -0.068 -0.042 -0.097 -0.059 -0.155 -0.092 c 0.058 0.042 0.126 0.101 0.116 0.109 c -0.019 0.025 -0.107 -0.025 -0.184 -0.101 c -0.194 -0.168 -0.767 -0.512 -1.213 -0.721 c -0.243 -0.117 -0.388 -0.159 -0.456 -0.159" transform="matrix(0.40258 0 0 0.46568 2.342 5.188)" fill="none" stroke="#000" stroke-linejoin="round" stroke-linecap="round" stroke-width="1.974"/></g><g id="C" clip-path="url(#B)"><path d="m 14.55 21.818 c -0.029 0.008 0.291 0.361 0.728 0.78 c 1.135 1.099 1.116 0.99 0.136 0.99 h -0.834 l -0.019 0.428 c -0.01 0.26 0.01 0.461 0.049 0.503 c 0.029 0.042 0.359 0.075 0.805 0.084 c 0.408 0.017 0.757 0.034 0.767 0.042 c 0.01 0.008 0.029 0.99 0.049 2.173 c 0.019 1.183 0.039 2.156 0.039 2.164 c 0.019 0.025 0.805 0.042 0.825 0.017 c 0.01 -0.017 0.039 -0.998 0.049 -2.173 c 0.019 -1.602 0.049 -2.164 0.097 -2.24 c 0.058 -0.075 0.049 -0.117 -0.029 -0.218 c -0.097 -0.126 -0.097 -0.126 0 -0.084 c 0.058 0.017 0.233 0.185 0.388 0.369 c 0.155 0.176 0.505 0.495 0.767 0.705 c 0.272 0.21 0.708 0.562 0.98 0.789 c 0.272 0.226 0.602 0.47 0.728 0.537 c 0.126 0.067 0.243 0.151 0.262 0.193 c 0.019 0.034 -0.039 0.025 -0.126 -0.034 c -0.223 -0.126 -0.281 -0.126 -0.281 0.034 c 0 0.252 0.155 0.562 0.349 0.688 c 0.107 0.075 0.184 0.151 0.165 0.168 c -0.01 0.025 -0.097 -0.025 -0.175 -0.101 c -0.194 -0.168 -0.767 -0.512 -1.223 -0.721 c -0.951 -0.445 -0.437 0.109 0.747 0.797 c 0.33 0.193 0.631 0.352 0.67 0.352 c 0.029 0 0.068 0.059 0.087 0.126 c 0.078 0.26 1.029 0.814 1.397 0.814 c 0.087 0 0.437 0.151 0.776 0.336 c 0.767 0.419 0.999 0.503 0.864 0.31 c -0.039 -0.059 -0.204 -0.201 -0.369 -0.327 c -0.291 -0.21 -0.301 -0.218 -0.165 -0.26 c 0.126 -0.034 0.136 -0.067 0.165 -0.47 c 0.019 -0.235 0.029 -0.453 0.019 -0.47 c -0.01 -0.025 -0.291 -0.059 -0.611 -0.075 c -0.689 -0.034 -1.029 -0.159 -1.485 -0.562 c -0.155 -0.134 -0.281 -0.26 -0.272 -0.277 c 0.01 -0.008 0.213 0.067 0.446 0.168 c 0.233 0.101 0.456 0.185 0.485 0.185 c 0.116 0 -0.301 -0.369 -0.796 -0.688 c -0.262 -0.176 -0.495 -0.344 -0.505 -0.377 c -0.019 -0.034 -0.184 -0.168 -0.359 -0.31 c -0.184 -0.134 -0.33 -0.294 -0.33 -0.344 c 0 -0.101 -0.66 -0.713 -1.058 -0.981 c -0.301 -0.201 -0.33 -0.294 -0.087 -0.294 h 0.165 l -0.019 -0.487 l -0.01 -0.487 l -0.689 -0.017 c -0.776 -0.025 -0.883 0.025 -0.631 0.268 c 0.107 0.101 0.126 0.134 0.049 0.101 c -0.058 -0.034 -0.233 -0.185 -0.378 -0.336 c -0.155 -0.151 -0.475 -0.436 -0.708 -0.629 c -0.495 -0.386 -1.805 -1.191 -1.902 -1.158 m 25.335 1.275 c -0.563 0 -0.834 0.101 -1.155 0.445 c -0.34 0.361 -0.514 0.705 -0.592 1.166 c -0.097 0.52 -0.01 0.587 0.213 0.176 c 0.184 -0.336 0.291 -0.386 0.466 -0.235 c 0.165 0.143 0.223 0.117 0.301 -0.092 c 0.087 -0.243 0.388 -0.537 0.602 -0.587 c 0.34 -0.092 0.718 0.176 0.718 0.503 c 0 0.168 -0.505 0.797 -0.98 1.225 c -0.776 0.696 -1.106 1.275 -1.106 1.938 c 0 0.57 -0.049 0.562 1.523 0.537 l 1.358 -0.017 v -0.814 l -0.922 -0.034 c -0.505 -0.017 -0.922 -0.05 -0.922 -0.075 c 0 -0.025 0 -0.075 0 -0.109 c 0 -0.067 0.543 -0.596 1.164 -1.149 c 0.233 -0.201 0.505 -0.503 0.621 -0.679 c 0.233 -0.336 0.854 -1.669 0.834 -1.762 c -0.01 -0.025 -0.165 0.092 -0.349 0.268 c -0.175 0.176 -0.34 0.31 -0.359 0.302 c -0.019 -0.008 -0.116 -0.151 -0.213 -0.319 c -0.126 -0.21 -0.291 -0.377 -0.485 -0.503 c -0.262 -0.168 -0.359 -0.193 -0.718 -0.185 m -4.958 0.461 c -0.864 0 -1.727 0.017 -1.756 0.059 c -0.019 0.034 0.019 0.092 0.087 0.134 c 0.116 0.067 0.116 0.101 0.107 1.426 c -0.01 0.747 -0.01 1.913 -0.01 2.592 l 0.01 1.233 h 0.912 l 0.039 -0.428 c 0.019 -0.226 0.039 -0.721 0.039 -1.082 c 0 -0.705 0.01 -0.747 0.281 -0.747 c 0.068 0 0.369 0.285 0.747 0.705 c 1.145 1.258 1.979 1.98 2.29 1.988 c 0.165 0 0.175 -0.008 0.194 -0.285 l 0.019 -0.285 l -0.805 -0.847 c -0.708 -0.763 -1.261 -1.409 -1.378 -1.627 c -0.029 -0.05 0.136 -0.268 0.427 -0.596 c 0.349 -0.394 0.475 -0.579 0.514 -0.772 c 0.068 -0.294 0.097 -1.3 0.039 -1.401 c -0.019 -0.042 -0.883 -0.067 -1.756 -0.067 m -23.86 0 c -0.272 -0.008 -0.543 0.008 -0.582 0.042 c -0.019 0.025 0.019 0.101 0.097 0.176 l 0.136 0.126 l 0.019 1.829 c 0.019 1.015 0.01 1.845 -0.019 1.862 c -0.068 0.05 -0.67 -0.31 -0.902 -0.537 c -0.388 -0.394 -0.466 -0.755 -0.495 -2.265 c -0.01 -0.612 -0.039 -1.141 -0.049 -1.174 c -0.039 -0.075 -0.747 -0.075 -0.844 0 c -0.058 0.042 -0.068 0.403 -0.049 2.03 c 0.01 1.09 0 1.98 -0.029 1.98 c -0.165 0 -0.776 -0.419 -0.99 -0.679 c -0.359 -0.453 -0.417 -0.721 -0.417 -2.105 c 0 -0.797 -0.019 -1.158 -0.068 -1.208 c -0.068 -0.075 -0.631 -0.101 -0.776 -0.034 c -0.078 0.034 -0.087 0.201 -0.087 1.233 c 0 1.275 0.049 1.669 0.281 2.181 c 0.165 0.377 0.747 0.998 1.126 1.2 c 0.175 0.101 0.553 0.31 0.834 0.47 c 0.291 0.159 0.543 0.277 0.563 0.26 c 0.019 -0.025 0.136 -0.193 0.262 -0.377 c 0.116 -0.185 0.223 -0.394 0.223 -0.461 c 0 -0.059 0.019 -0.101 0.039 -0.092 c 0.019 0.008 0.252 0.134 0.505 0.277 c 0.592 0.327 1.31 0.713 1.339 0.713 c 0.01 0 0.126 -0.168 0.243 -0.377 l 0.223 -0.386 l 0.019 -2.265 c 0 -1.25 -0.01 -2.298 -0.029 -2.34 c -0.029 -0.042 -0.301 -0.067 -0.572 -0.075 m 2.174 0 c -0.291 0 -0.553 0.025 -0.563 0.05 c -0.019 0.034 0.029 0.117 0.107 0.193 l 0.136 0.134 v 1.736 c 0.01 0.956 0.029 1.929 0.049 2.164 l 0.029 0.436 l 0.388 0.336 c 0.204 0.176 0.398 0.31 0.417 0.285 c 0.019 -0.025 0.058 -1.191 0.078 -2.592 c 0.029 -2.03 0.029 -2.567 -0.029 -2.642 c -0.058 -0.075 -0.194 -0.101 -0.611 -0.101 m 11.188 0 c -0.301 0 -0.553 0.025 -0.572 0.059 c -0.019 0.034 0.029 0.109 0.097 0.159 l 0.136 0.101 l 0.019 2.533 c 0.019 2.164 0.029 2.542 0.097 2.592 c 0.087 0.067 0.66 0.042 0.767 -0.025 c 0.039 -0.034 0.058 -0.436 0.058 -1.166 c 0 -0.612 0.019 -1.132 0.049 -1.149 c 0.049 -0.034 2.232 0.235 2.28 0.277 c 0.01 0.017 0.039 0.713 0.068 1.552 c 0.029 1.216 0.049 1.51 0.107 1.51 c 0.049 0 0.184 -0.109 0.32 -0.252 c 0.136 -0.143 0.301 -0.386 0.359 -0.537 c 0.116 -0.268 0.126 -0.377 0.155 -2.911 c 0.019 -2.206 0.01 -2.634 -0.049 -2.684 c -0.116 -0.084 -0.786 -0.067 -0.864 0.017 c -0.049 0.05 -0.068 0.403 -0.068 1.158 c 0 0.99 -0.01 1.082 -0.097 1.082 c -0.223 0 -2.164 -0.252 -2.212 -0.285 c -0.039 -0.025 -0.049 -0.352 -0.019 -0.939 c 0.029 -0.679 0.019 -0.923 -0.029 -0.998 c -0.049 -0.067 -0.194 -0.092 -0.602 -0.092 m -4.085 0.008 c -0.767 0.008 -0.825 0.067 -0.64 0.218 c 0.116 0.084 0.126 0.143 0.126 0.889 c 0 0.436 0.019 0.856 0.039 0.931 c 0.039 0.134 0.737 0.83 0.834 0.83 c 0.019 0 0.058 -0.21 0.078 -0.461 c 0.019 -0.252 0.039 -0.629 0.029 -0.83 c 0 -0.201 -0.01 -0.403 0 -0.445 c 0 -0.059 0.252 -0.075 1.058 -0.075 c 0.582 0 1.087 -0.025 1.126 -0.059 c 0.049 -0.034 0.068 -0.185 0.058 -0.512 l -0.019 -0.461 l -1.669 -0.017 c -0.427 -0.008 -0.767 -0.008 -1.019 -0.008 m 9.412 0.008 c -0.291 0 -0.475 0.008 -0.505 0.017 c -0.068 0.034 -0.058 0.059 0.039 0.151 c 0.116 0.101 0.116 0.159 0.136 1.636 l 0.019 1.527 l 0.175 0.419 c 0.33 0.805 0.999 1.401 1.824 1.636 c 0.223 0.059 0.815 0.075 0.854 0.017 c 0.01 -0.008 0.029 -0.193 0.039 -0.428 c 0.039 -0.47 0.019 -0.487 -0.437 -0.487 c -0.301 0 -0.767 -0.201 -0.97 -0.419 c -0.175 -0.185 -0.495 -0.931 -0.446 -1.057 c 0.019 -0.059 0.184 -0.092 0.64 -0.101 l 0.621 -0.017 l 0.039 -0.973 h -1.31 l -0.019 -0.201 c -0.01 -0.117 -0.01 -0.344 0 -0.52 l 0.029 -0.31 l 0.951 -0.017 l 0.941 -0.017 l -0.01 -0.419 l -0.019 -0.428 l -1.504 -0.017 c -0.417 0 -0.805 0 -1.087 0 m 5.366 0.864 c 0.563 0 0.66 0.017 0.66 0.101 c 0 0.059 -0.233 0.352 -0.505 0.663 c -0.427 0.47 -0.534 0.554 -0.689 0.554 c -0.097 0 -0.184 -0.008 -0.184 -0.017 c -0.039 -0.109 -0.029 -1.158 0.019 -1.216 c 0.039 -0.059 0.252 -0.084 0.708 -0.084 m -14.574 3.339 c 0.019 -0.025 0.33 0.126 0.679 0.327 c 0.708 0.403 0.999 0.587 0.912 0.587 c -0.029 0 -0.107 -0.034 -0.165 -0.092 c -0.058 -0.042 -0.165 -0.092 -0.243 -0.092 c -0.068 0 -0.262 -0.092 -0.408 -0.201 c -0.155 -0.109 -0.398 -0.268 -0.543 -0.344 c -0.146 -0.075 -0.252 -0.159 -0.233 -0.185" transform="matrix(0.40258 0 0 0.46568 2.342 5.188)" fill="none" stroke="#000" stroke-linejoin="round" stroke-linecap="round" stroke-width="0.987"/><path d="m 14.55 21.818 c -0.029 0.008 0.291 0.361 0.728 0.78 c 0.427 0.419 0.64 0.629 0.757 0.772 c 0.019 0.008 0.029 0.017 0.049 0.034 c 0.349 0.243 0.679 0.579 1.087 0.864 c 0.01 0 0.01 0 0.049 0.017 c 0.058 0.017 0.223 0.185 0.378 0.369 c 0.155 0.176 0.505 0.495 0.776 0.705 c 0.262 0.21 0.708 0.562 0.98 0.789 c 0.262 0.226 0.592 0.47 0.718 0.537 c 0.126 0.067 0.243 0.151 0.262 0.193 c 0.01 0 -0.019 -0.008 -0.019 -0.008 c 0.301 0.226 0.475 0.336 0.621 0.403 c -0.01 -0.017 -0.068 -0.059 -0.058 -0.067 c 0.01 -0.008 0.204 0.067 0.437 0.168 c 0.233 0.101 0.456 0.185 0.495 0.185 c 0.116 0 -0.311 -0.369 -0.805 -0.696 c -0.262 -0.168 -0.485 -0.336 -0.505 -0.369 c -0.019 -0.034 -0.175 -0.176 -0.359 -0.31 c -0.175 -0.143 -0.32 -0.294 -0.32 -0.344 c 0 -0.101 -0.67 -0.713 -1.067 -0.981 c -0.175 -0.117 -0.243 -0.201 -0.233 -0.243 c -0.311 -0.201 -0.65 -0.428 -0.951 -0.671 c 0.01 0.008 0 0.017 -0.029 0 c -0.068 -0.034 -0.243 -0.193 -0.388 -0.344 c -0.146 -0.151 -0.466 -0.428 -0.708 -0.621 c -0.495 -0.394 -1.805 -1.191 -1.892 -1.158 m 25.325 1.275 c -0.563 0 -0.834 0.101 -1.155 0.445 c -0.34 0.361 -0.514 0.705 -0.592 1.166 c -0.097 0.52 -0.01 0.587 0.213 0.176 c 0.184 -0.336 0.291 -0.386 0.466 -0.235 c 0.165 0.143 0.223 0.117 0.301 -0.092 c 0.087 -0.243 0.388 -0.537 0.602 -0.587 c 0.34 -0.092 0.718 0.176 0.718 0.503 c 0 0.168 -0.505 0.797 -0.98 1.225 c -0.776 0.696 -1.106 1.275 -1.106 1.938 c 0 0.57 -0.039 0.562 1.523 0.537 l 1.358 -0.017 v -0.814 l -0.922 -0.025 c -0.505 -0.025 -0.912 -0.059 -0.912 -0.084 c 0 -0.025 0 -0.067 0 -0.101 c 0 -0.067 0.534 -0.604 1.155 -1.158 c 0.233 -0.201 0.505 -0.503 0.621 -0.671 c 0.233 -0.344 0.864 -1.678 0.834 -1.77 c -0.01 -0.025 -0.165 0.092 -0.34 0.268 c -0.184 0.176 -0.349 0.319 -0.369 0.31 c -0.019 -0.008 -0.116 -0.159 -0.213 -0.327 c -0.126 -0.201 -0.291 -0.369 -0.485 -0.495 c -0.262 -0.168 -0.359 -0.193 -0.718 -0.193 m -21.279 3.657 c -0.204 0 0.31 0.445 1.193 0.956 c 0.33 0.193 0.631 0.352 0.67 0.352 c 0.029 0 0.078 0.059 0.097 0.126 c 0.029 0.126 0.291 0.327 0.582 0.503 c 0.291 0.176 0.621 0.31 0.805 0.31 c 0.087 0 0.437 0.151 0.776 0.336 c 0.757 0.411 0.999 0.495 0.873 0.319 c 0 -0.008 -0.01 -0.008 -0.01 -0.017 c -0.049 -0.059 -0.213 -0.193 -0.369 -0.319 c -0.165 -0.117 -0.233 -0.168 -0.243 -0.201 c -0.359 -0.268 -0.902 -0.562 -1.465 -0.856 c 0.456 0.26 0.708 0.428 0.631 0.428 c -0.029 0 -0.107 -0.042 -0.165 -0.092 c -0.058 -0.05 -0.165 -0.092 -0.243 -0.092 c -0.068 -0.008 -0.262 -0.092 -0.408 -0.201 c -0.155 -0.117 -0.398 -0.268 -0.543 -0.352 c -0.146 -0.075 -0.252 -0.159 -0.233 -0.185 c 0.01 -0.008 0.243 0.117 0.408 0.201 c -0.155 -0.084 -0.34 -0.176 -0.466 -0.252 c -0.068 -0.042 -0.097 -0.059 -0.155 -0.092 c 0.058 0.042 0.126 0.101 0.116 0.109 c -0.019 0.025 -0.107 -0.025 -0.184 -0.101 c -0.194 -0.168 -0.767 -0.512 -1.213 -0.721 c -0.243 -0.117 -0.388 -0.159 -0.456 -0.159" transform="matrix(0.40258 0 0 0.46568 2.342 5.188)" fill="none" stroke="#000" stroke-linejoin="round" stroke-linecap="round" stroke-width="0.987"/></g><clipPath id="8"><path d="M 0,0 H24 V24 H0 z"/></clipPath><clipPath id="2"><path d="M 0,0 H24 V24 H0 z"/></clipPath><clipPath id="5"><path d="M 0,0 H24 V24 H0 z"/></clipPath><clipPath id="B"><path d="M 0,0 H24 V24 H0 z"/></clipPath><filter id="0" filterUnits="objectBoundingBox" x="0" y="0" width="24" height="24"><feColorMatrix type="matrix" in="SourceGraphic" values="0 0 0 0 1 0 0 0 0 1 0 0 0 0 1 0 0 0 1 0"/></filter><mask id="A"><g filter="url(#0)"><path fill-opacity="0.149" d="M 0,0 H24 V24 H0 z"/></g></mask><mask id="4"><g filter="url(#0)"><path fill-opacity="0.149" d="M 0,0 H24 V24 H0 z"/></g></mask><mask id="7"><g filter="url(#0)"><path fill-opacity="0.149" d="M 0,0 H24 V24 H0 z"/></g></mask><mask id="1"><g filter="url(#0)"><path fill-opacity="0.149" d="M 0,0 H24 V24 H0 z"/></g></mask></defs><path d="m 3.891 21.273 c -10.77 -8.559 3.03 -26.21 14.633 -19.961 c 10.93 5.895 4.04 23.832 -7.828 22.629 c -2.477 -0.25 -4.828 -1.098 -6.805 -2.668" fill="#696969"/><use xlink:href="#3" mask="url(#1)"/><use xlink:href="#6" mask="url(#4)"/><use xlink:href="#9" mask="url(#7)"/><use xlink:href="#C" mask="url(#A)"/><path d="m 8.199 15.348 c -0.012 0.004 0.117 0.168 0.293 0.363 c 0.457 0.512 0.449 0.461 0.055 0.461 h -0.336 l -0.008 0.199 c -0.004 0.121 0.004 0.215 0.02 0.234 c 0.012 0.02 0.145 0.035 0.324 0.039 c 0.164 0.008 0.305 0.016 0.309 0.02 c 0.004 0.004 0.012 0.461 0.02 1.012 c 0.008 0.551 0.016 1 0.016 1.01 c 0.008 0.012 0.324 0.02 0.332 0.008 c 0.004 -0.008 0.016 -0.465 0.02 -1.012 c 0.008 -0.746 0.02 -1.01 0.039 -1.043 c 0.023 -0.035 0.02 -0.055 -0.012 -0.102 c -0.039 -0.059 -0.039 -0.059 0 -0.039 c 0.023 0.008 0.094 0.086 0.156 0.172 c 0.063 0.082 0.203 0.23 0.309 0.328 c 0.109 0.098 0.285 0.262 0.395 0.367 c 0.109 0.105 0.242 0.219 0.293 0.25 c 0.051 0.031 0.098 0.07 0.105 0.09 c 0.008 0.016 -0.016 0.012 -0.051 -0.016 c -0.09 -0.059 -0.113 -0.059 -0.113 0.016 c 0 0.117 0.063 0.262 0.141 0.32 c 0.043 0.035 0.074 0.07 0.066 0.078 c -0.004 0.012 -0.039 -0.012 -0.07 -0.047 c -0.078 -0.078 -0.309 -0.238 -0.492 -0.336 c -0.383 -0.207 -0.176 0.051 0.301 0.371 c 0.133 0.09 0.254 0.164 0.27 0.164 c 0.012 0 0.027 0.027 0.035 0.059 c 0.031 0.121 0.414 0.379 0.563 0.379 c 0.035 0 0.176 0.07 0.313 0.156 c 0.309 0.195 0.402 0.234 0.348 0.145 c -0.016 -0.027 -0.082 -0.094 -0.148 -0.152 c -0.117 -0.098 -0.121 -0.102 -0.066 -0.121 c 0.051 -0.016 0.055 -0.031 0.066 -0.219 c 0.008 -0.109 0.012 -0.211 0.008 -0.219 c -0.004 -0.012 -0.117 -0.027 -0.246 -0.035 c -0.277 -0.016 -0.414 -0.074 -0.598 -0.262 c -0.063 -0.063 -0.113 -0.121 -0.109 -0.129 c 0.004 -0.004 0.086 0.031 0.18 0.078 c 0.094 0.047 0.184 0.086 0.195 0.086 c 0.047 0 -0.121 -0.172 -0.32 -0.32 c -0.105 -0.082 -0.199 -0.16 -0.203 -0.176 c -0.008 -0.016 -0.074 -0.078 -0.145 -0.145 c -0.074 -0.063 -0.133 -0.137 -0.133 -0.16 c 0 -0.047 -0.266 -0.332 -0.426 -0.457 c -0.121 -0.094 -0.133 -0.137 -0.035 -0.137 h 0.066 l -0.008 -0.227 l -0.004 -0.227 l -0.277 -0.008 c -0.313 -0.012 -0.355 0.012 -0.254 0.125 c 0.043 0.047 0.051 0.063 0.02 0.047 c -0.023 -0.016 -0.094 -0.086 -0.152 -0.156 c -0.063 -0.07 -0.191 -0.203 -0.285 -0.293 c -0.199 -0.18 -0.727 -0.555 -0.766 -0.539 m 10.199 0.594 c -0.227 0 -0.336 0.047 -0.465 0.207 c -0.137 0.168 -0.207 0.328 -0.238 0.543 c -0.039 0.242 -0.004 0.273 0.086 0.082 c 0.074 -0.156 0.117 -0.18 0.188 -0.109 c 0.066 0.066 0.09 0.055 0.121 -0.043 c 0.035 -0.113 0.156 -0.25 0.242 -0.273 c 0.137 -0.043 0.289 0.082 0.289 0.234 c 0 0.078 -0.203 0.371 -0.395 0.57 c -0.313 0.324 -0.445 0.594 -0.445 0.902 c 0 0.266 -0.02 0.262 0.613 0.25 l 0.547 -0.008 v -0.379 l -0.371 -0.016 c -0.203 -0.008 -0.371 -0.023 -0.371 -0.035 c 0 -0.012 0 -0.035 0 -0.051 c 0 -0.031 0.219 -0.277 0.469 -0.535 c 0.094 -0.094 0.203 -0.234 0.25 -0.316 c 0.094 -0.156 0.344 -0.777 0.336 -0.82 c -0.004 -0.012 -0.066 0.043 -0.141 0.125 c -0.07 0.082 -0.137 0.145 -0.145 0.141 c -0.008 -0.004 -0.047 -0.07 -0.086 -0.148 c -0.051 -0.098 -0.117 -0.176 -0.195 -0.234 c -0.105 -0.078 -0.145 -0.09 -0.289 -0.086 m -1.996 0.215 c -0.348 0 -0.695 0.008 -0.707 0.027 c -0.008 0.016 0.008 0.043 0.035 0.063 c 0.047 0.031 0.047 0.047 0.043 0.664 c -0.004 0.348 -0.004 0.891 -0.004 1.207 l 0.004 0.574 h 0.367 l 0.016 -0.199 c 0.008 -0.105 0.016 -0.336 0.016 -0.504 c 0 -0.328 0.004 -0.348 0.113 -0.348 c 0.027 0 0.148 0.133 0.301 0.328 c 0.461 0.586 0.797 0.922 0.922 0.926 c 0.066 0 0.07 -0.004 0.078 -0.133 l 0.008 -0.133 l -0.324 -0.395 c -0.285 -0.355 -0.508 -0.656 -0.555 -0.758 c -0.012 -0.023 0.055 -0.125 0.172 -0.277 c 0.141 -0.184 0.191 -0.27 0.207 -0.359 c 0.027 -0.137 0.039 -0.605 0.016 -0.652 c -0.008 -0.02 -0.355 -0.031 -0.707 -0.031 m -9.605 0 c -0.109 -0.004 -0.219 0.004 -0.234 0.02 c -0.008 0.012 0.008 0.047 0.039 0.082 l 0.055 0.059 l 0.008 0.852 c 0.008 0.473 0.004 0.859 -0.008 0.867 c -0.027 0.023 -0.27 -0.145 -0.363 -0.25 c -0.156 -0.184 -0.188 -0.352 -0.199 -1.055 c -0.004 -0.285 -0.016 -0.531 -0.02 -0.547 c -0.016 -0.035 -0.301 -0.035 -0.34 0 c -0.023 0.02 -0.027 0.188 -0.02 0.945 c 0.004 0.508 0 0.922 -0.012 0.922 c -0.066 0 -0.313 -0.195 -0.398 -0.316 c -0.145 -0.211 -0.168 -0.336 -0.168 -0.98 c 0 -0.371 -0.008 -0.539 -0.027 -0.563 c -0.027 -0.035 -0.254 -0.047 -0.313 -0.016 c -0.031 0.016 -0.035 0.094 -0.035 0.574 c 0 0.594 0.02 0.777 0.113 1.016 c 0.066 0.176 0.301 0.465 0.453 0.559 c 0.07 0.047 0.223 0.145 0.336 0.219 c 0.117 0.074 0.219 0.129 0.227 0.121 c 0.008 -0.012 0.055 -0.09 0.105 -0.176 c 0.047 -0.086 0.09 -0.184 0.09 -0.215 c 0 -0.027 0.008 -0.047 0.016 -0.043 c 0.008 0.004 0.102 0.063 0.203 0.129 c 0.238 0.152 0.527 0.332 0.539 0.332 c 0.004 0 0.051 -0.078 0.098 -0.176 l 0.09 -0.18 l 0.008 -1.055 c 0 -0.582 -0.004 -1.07 -0.012 -1.09 c -0.012 -0.02 -0.121 -0.031 -0.23 -0.035 m 0.875 0 c -0.117 0 -0.223 0.012 -0.227 0.023 c -0.008 0.016 0.012 0.055 0.043 0.09 l 0.055 0.063 v 0.809 c 0.004 0.445 0.012 0.898 0.02 1.01 l 0.012 0.203 l 0.156 0.156 c 0.082 0.082 0.16 0.145 0.168 0.133 c 0.008 -0.012 0.023 -0.555 0.031 -1.207 c 0.012 -0.945 0.012 -1.195 -0.012 -1.23 c -0.023 -0.035 -0.078 -0.047 -0.246 -0.047 m 4.504 0 c -0.121 0 -0.223 0.012 -0.23 0.027 c -0.008 0.016 0.012 0.051 0.039 0.074 l 0.055 0.047 l 0.008 1.18 c 0.008 1.01 0.012 1.184 0.039 1.207 c 0.035 0.031 0.266 0.02 0.309 -0.012 c 0.016 -0.016 0.023 -0.203 0.023 -0.543 c 0 -0.285 0.008 -0.527 0.02 -0.535 c 0.02 -0.016 0.898 0.109 0.918 0.129 c 0.004 0.008 0.016 0.332 0.027 0.723 c 0.012 0.566 0.02 0.703 0.043 0.703 c 0.02 0 0.074 -0.051 0.129 -0.117 c 0.055 -0.066 0.121 -0.18 0.145 -0.25 c 0.047 -0.125 0.051 -0.176 0.063 -1.355 c 0.008 -1.027 0.004 -1.227 -0.02 -1.25 c -0.047 -0.039 -0.316 -0.031 -0.348 0.008 c -0.02 0.023 -0.027 0.188 -0.027 0.539 c 0 0.461 -0.004 0.504 -0.039 0.504 c -0.09 0 -0.871 -0.117 -0.891 -0.133 c -0.016 -0.012 -0.02 -0.164 -0.008 -0.438 c 0.012 -0.316 0.008 -0.43 -0.012 -0.465 c -0.02 -0.031 -0.078 -0.043 -0.242 -0.043 m -1.645 0.004 c -0.309 0.004 -0.332 0.031 -0.258 0.102 c 0.047 0.039 0.051 0.066 0.051 0.414 c 0 0.203 0.008 0.398 0.016 0.434 c 0.016 0.063 0.297 0.387 0.336 0.387 c 0.008 0 0.023 -0.098 0.031 -0.215 c 0.008 -0.117 0.016 -0.293 0.012 -0.387 c 0 -0.094 -0.004 -0.188 0 -0.207 c 0 -0.027 0.102 -0.035 0.426 -0.035 c 0.234 0 0.438 -0.012 0.453 -0.027 c 0.02 -0.016 0.027 -0.086 0.023 -0.238 l -0.008 -0.215 l -0.672 -0.008 c -0.172 -0.004 -0.309 -0.004 -0.41 -0.004 m 3.789 0.004 c -0.117 0 -0.191 0.004 -0.203 0.008 c -0.027 0.016 -0.023 0.027 0.016 0.07 c 0.047 0.047 0.047 0.074 0.055 0.762 l 0.008 0.711 l 0.07 0.195 c 0.133 0.375 0.402 0.652 0.734 0.762 c 0.09 0.027 0.328 0.035 0.344 0.008 c 0.004 -0.004 0.012 -0.09 0.016 -0.199 c 0.016 -0.219 0.008 -0.227 -0.176 -0.227 c -0.121 0 -0.309 -0.094 -0.391 -0.195 c -0.07 -0.086 -0.199 -0.434 -0.18 -0.492 c 0.008 -0.027 0.074 -0.043 0.258 -0.047 l 0.25 -0.008 l 0.016 -0.453 h -0.527 l -0.008 -0.094 c -0.004 -0.055 -0.004 -0.16 0 -0.242 l 0.012 -0.145 l 0.383 -0.008 l 0.379 -0.008 l -0.004 -0.195 l -0.008 -0.199 l -0.605 -0.008 c -0.168 0 -0.324 0 -0.438 0 m 2.16 0.402 c 0.227 0 0.266 0.008 0.266 0.047 c 0 0.027 -0.094 0.164 -0.203 0.309 c -0.172 0.219 -0.215 0.258 -0.277 0.258 c -0.039 0 -0.074 -0.004 -0.074 -0.008 c -0.016 -0.051 -0.012 -0.539 0.008 -0.566 c 0.016 -0.027 0.102 -0.039 0.285 -0.039 m -5.867 1.555 c 0.008 -0.012 0.133 0.059 0.273 0.152 c 0.285 0.188 0.402 0.273 0.367 0.273 c -0.012 0 -0.043 -0.016 -0.066 -0.043 c -0.023 -0.02 -0.066 -0.043 -0.098 -0.043 c -0.027 0 -0.105 -0.043 -0.164 -0.094 c -0.063 -0.051 -0.16 -0.125 -0.219 -0.16 c -0.059 -0.035 -0.102 -0.074 -0.094 -0.086" fill="#fff"/><path d="m 8.199 15.348 c -0.012 0.004 0.117 0.168 0.293 0.363 c 0.172 0.195 0.258 0.293 0.305 0.359 c 0.008 0.004 0.012 0.008 0.02 0.016 c 0.141 0.113 0.273 0.27 0.438 0.402 c 0.004 0 0.004 0 0.02 0.008 c 0.023 0.008 0.09 0.086 0.152 0.172 c 0.063 0.082 0.203 0.23 0.313 0.328 c 0.105 0.098 0.285 0.262 0.395 0.367 c 0.105 0.105 0.238 0.219 0.289 0.25 c 0.051 0.031 0.098 0.07 0.105 0.09 c 0.004 0 -0.008 -0.004 -0.008 -0.004 c 0.121 0.105 0.191 0.156 0.25 0.188 c -0.004 -0.008 -0.027 -0.027 -0.023 -0.031 c 0.004 -0.004 0.082 0.031 0.176 0.078 c 0.094 0.047 0.184 0.086 0.199 0.086 c 0.047 0 -0.125 -0.172 -0.324 -0.324 c -0.105 -0.078 -0.195 -0.156 -0.203 -0.172 c -0.008 -0.016 -0.07 -0.082 -0.145 -0.145 c -0.07 -0.066 -0.129 -0.137 -0.129 -0.16 c 0 -0.047 -0.27 -0.332 -0.43 -0.457 c -0.07 -0.055 -0.098 -0.094 -0.094 -0.113 c -0.125 -0.094 -0.262 -0.199 -0.383 -0.313 c 0.004 0.004 0 0.008 -0.012 0 c -0.027 -0.016 -0.098 -0.09 -0.156 -0.16 c -0.059 -0.07 -0.188 -0.199 -0.285 -0.289 c -0.199 -0.184 -0.727 -0.555 -0.762 -0.539 m 10.195 0.594 c -0.227 0 -0.336 0.047 -0.465 0.207 c -0.137 0.168 -0.207 0.328 -0.238 0.543 c -0.039 0.242 -0.004 0.273 0.086 0.082 c 0.074 -0.156 0.117 -0.18 0.188 -0.109 c 0.066 0.066 0.09 0.055 0.121 -0.043 c 0.035 -0.113 0.156 -0.25 0.242 -0.273 c 0.137 -0.043 0.289 0.082 0.289 0.234 c 0 0.078 -0.203 0.371 -0.395 0.57 c -0.313 0.324 -0.445 0.594 -0.445 0.902 c 0 0.266 -0.016 0.262 0.613 0.25 l 0.547 -0.008 v -0.379 l -0.371 -0.012 c -0.203 -0.012 -0.367 -0.027 -0.367 -0.039 c 0 -0.012 0 -0.031 0 -0.047 c 0 -0.031 0.215 -0.281 0.465 -0.539 c 0.094 -0.094 0.203 -0.234 0.25 -0.313 c 0.094 -0.16 0.348 -0.781 0.336 -0.824 c -0.004 -0.012 -0.066 0.043 -0.137 0.125 c -0.074 0.082 -0.141 0.148 -0.148 0.145 c -0.008 -0.004 -0.047 -0.074 -0.086 -0.152 c -0.051 -0.094 -0.117 -0.172 -0.195 -0.23 c -0.105 -0.078 -0.145 -0.09 -0.289 -0.09 m -8.566 1.703 c -0.082 0 0.125 0.207 0.48 0.445 c 0.133 0.09 0.254 0.164 0.27 0.164 c 0.012 0 0.031 0.027 0.039 0.059 c 0.012 0.059 0.117 0.152 0.234 0.234 c 0.117 0.082 0.25 0.145 0.324 0.145 c 0.035 0 0.176 0.07 0.313 0.156 c 0.305 0.191 0.402 0.23 0.352 0.148 c 0 -0.004 -0.004 -0.004 -0.004 -0.008 c -0.02 -0.027 -0.086 -0.09 -0.148 -0.148 c -0.066 -0.055 -0.094 -0.078 -0.098 -0.094 c -0.145 -0.125 -0.363 -0.262 -0.59 -0.398 c 0.184 0.121 0.285 0.199 0.254 0.199 c -0.012 0 -0.043 -0.02 -0.066 -0.043 c -0.023 -0.023 -0.066 -0.043 -0.098 -0.043 c -0.027 -0.004 -0.105 -0.043 -0.164 -0.094 c -0.063 -0.055 -0.16 -0.125 -0.219 -0.164 c -0.059 -0.035 -0.102 -0.074 -0.094 -0.086 c 0.004 -0.004 0.098 0.055 0.164 0.094 c -0.063 -0.039 -0.137 -0.082 -0.188 -0.117 c -0.027 -0.02 -0.039 -0.027 -0.063 -0.043 c 0.023 0.02 0.051 0.047 0.047 0.051 c -0.008 0.012 -0.043 -0.012 -0.074 -0.047 c -0.078 -0.078 -0.309 -0.238 -0.488 -0.336 c -0.098 -0.055 -0.156 -0.074 -0.184 -0.074" fill="#ff3434"/><path d="m 11.715 14.406 c -0.207 -0.051 -0.34 -0.098 -0.367 -0.129 c -0.043 -0.047 -0.082 -0.328 -0.184 -1.266 c -0.047 -0.445 -0.203 -1.992 -0.203 -2.027 c 0 -0.004 0.004 -0.008 0.012 -0.008 c 0.012 0 0.277 0.301 0.309 0.355 c 0.035 0.051 0.043 0.258 0.055 1.035 c 0.008 0.848 0.027 1.148 0.078 1.25 c 0.023 0.047 0.168 0.094 0.379 0.125 c 0.094 0.012 0.16 0.027 0.164 0.035 c 0.004 0.012 -0.012 0.16 -0.031 0.336 c -0.023 0.176 -0.039 0.324 -0.039 0.328 c 0 0.012 0.004 0.012 -0.172 -0.031 m 0.422 -0.004 c -0.023 -0.129 -0.074 -0.613 -0.07 -0.629 c 0.004 -0.012 0.051 -0.023 0.137 -0.035 c 0.246 -0.027 0.395 -0.078 0.418 -0.141 c 0.043 -0.117 0.059 -0.434 0.074 -1.426 c 0.008 -0.402 0.02 -0.762 0.023 -0.789 c 0.012 -0.043 0.035 -0.082 0.121 -0.176 c 0.188 -0.219 0.211 -0.242 0.219 -0.234 c 0.008 0.008 -0.133 1.461 -0.211 2.145 c -0.09 0.828 -0.133 1.113 -0.172 1.156 c -0.023 0.027 -0.207 0.09 -0.379 0.133 c -0.063 0.016 -0.121 0.027 -0.133 0.031 c -0.016 0.004 -0.023 -0.004 -0.027 -0.035 m -0.563 -0.926 c -0.086 -0.023 -0.102 -0.109 -0.055 -0.293 c 0.039 -0.152 0.16 -0.395 0.184 -0.367 c 0.004 0.004 0 0.105 -0.008 0.223 c -0.008 0.117 -0.016 0.262 -0.02 0.316 c 0 0.059 -0.004 0.113 -0.012 0.121 c -0.008 0.02 -0.035 0.02 -0.09 0 m 0.785 0 c -0.004 -0.008 -0.008 -0.059 -0.012 -0.113 c 0 -0.078 -0.02 -0.355 -0.035 -0.52 c -0.004 -0.047 0.031 -0.023 0.074 0.047 c 0.105 0.172 0.176 0.469 0.129 0.539 c -0.027 0.047 -0.137 0.078 -0.156 0.047 m -0.629 -0.023 c -0.02 -0.012 -0.023 -0.035 -0.023 -0.176 v -0.164 h 0.293 v 0.156 c 0 0.168 -0.008 0.188 -0.074 0.184 c -0.016 0 -0.051 0 -0.07 -0.004 c -0.023 0 -0.055 0.004 -0.07 0.008 c -0.02 0.004 -0.043 0.004 -0.055 -0.004 m 0.332 -0.004 c -0.031 -0.016 -0.031 -0.02 -0.035 -0.176 l -0.004 -0.16 h 0.293 v 0.164 c 0 0.188 -0.008 0.199 -0.094 0.172 c -0.035 -0.008 -0.059 -0.008 -0.078 0 c -0.039 0.02 -0.043 0.02 -0.082 0 m -3.41 -0.766 c 0 -0.012 0.238 -0.645 0.277 -0.734 c 0.012 -0.027 0.031 -0.055 0.051 -0.063 c 0.02 -0.008 0.203 -0.074 0.41 -0.148 c 0.203 -0.074 0.621 -0.23 0.926 -0.348 c 0.309 -0.117 0.563 -0.207 0.566 -0.203 c 0.02 0.023 0.113 1.023 0.098 1.043 c -0.012 0.016 -2.246 0.465 -2.305 0.465 c -0.012 0 -0.023 -0.008 -0.023 -0.012 m 3.125 -0.02 c -0.164 -0.078 -0.203 -0.207 -0.281 -0.914 c -0.035 -0.305 -0.035 -0.328 -0.016 -0.348 c 0.02 -0.023 0.465 -0.234 0.488 -0.234 c 0.035 0 0.039 1.348 0.008 1.461 c -0.008 0.023 -0.02 0.051 -0.031 0.055 c -0.027 0.02 -0.102 0.012 -0.168 -0.02 m 0.305 0.02 c -0.039 -0.023 -0.047 -0.09 -0.055 -0.531 c -0.008 -0.543 0.008 -0.984 0.031 -0.984 c 0.016 0 0.457 0.207 0.484 0.227 c 0.008 0.004 0.016 0.031 0.016 0.059 c 0 0.07 -0.047 0.492 -0.082 0.723 c -0.051 0.32 -0.094 0.414 -0.223 0.48 c -0.07 0.035 -0.145 0.047 -0.172 0.027 m 2.094 -0.215 c -0.617 -0.125 -1.129 -0.23 -1.133 -0.238 c -0.016 -0.012 0.082 -1.023 0.098 -1.039 c 0.008 -0.008 0.227 0.07 0.516 0.18 c 0.277 0.105 0.711 0.27 0.957 0.359 c 0.25 0.09 0.457 0.168 0.461 0.172 c 0.012 0.012 0.297 0.766 0.297 0.781 c 0 0.008 -0.016 0.012 -0.035 0.012 c -0.02 -0.004 -0.539 -0.102 -1.16 -0.227 m -6.23 -0.539 c 0.008 -0.016 0.484 -0.426 0.543 -0.465 c 0.707 -0.469 2.234 -1.445 2.246 -1.438 c 0.02 0.023 0.148 0.965 0.133 1 c -0.012 0.043 -1.598 0.695 -1.898 0.785 c -0.199 0.059 -1.035 0.156 -1.023 0.117 m 7.699 -0.023 c -0.48 -0.055 -0.547 -0.066 -0.93 -0.215 c -0.539 -0.207 -1.547 -0.637 -1.559 -0.664 c -0.012 -0.039 0.117 -0.973 0.137 -1 c 0.008 -0.004 0.172 0.094 0.379 0.227 c 1.992 1.293 1.887 1.219 2.152 1.445 c 0.133 0.113 0.246 0.215 0.25 0.223 c 0.012 0.023 -0.098 0.02 -0.43 -0.016 m -8.711 -0.504 c -0.59 -0.008 -1.129 -0.016 -1.199 -0.023 l -0.125 -0.008 l 0.164 -0.137 c 1.094 -0.922 1.816 -1.523 1.996 -1.66 c 0.105 -0.086 0.379 -0.227 0.594 -0.316 c 0.297 -0.117 0.516 -0.176 0.93 -0.234 c 0.305 -0.047 0.883 -0.113 0.902 -0.105 c 0.02 0.008 0.191 0.258 0.266 0.379 c 0.09 0.156 0.258 0.574 0.242 0.613 c -0.008 0.023 -1.672 1.129 -2.094 1.391 l -0.176 0.109 h -0.215 c -0.121 0.004 -0.699 0 -1.289 -0.008 m 8.723 0.004 c -0.074 -0.008 -0.102 -0.02 -0.215 -0.094 c -0.445 -0.277 -2.105 -1.379 -2.113 -1.402 c -0.008 -0.023 0.113 -0.355 0.18 -0.492 c 0.059 -0.125 0.234 -0.398 0.293 -0.465 c 0.035 -0.039 0.047 -0.043 0.094 -0.035 c 0.031 0.004 0.16 0.02 0.289 0.031 c 0.559 0.063 0.953 0.129 1.188 0.203 c 0.367 0.113 0.754 0.309 0.977 0.484 c 0.418 0.34 2.051 1.711 2.055 1.727 c 0.008 0.02 -0.285 0.027 -1.258 0.035 c -0.523 0.004 -1.055 0.008 -1.18 0.012 c -0.125 0.004 -0.266 0 -0.309 -0.004 m -4.277 -0.176 c -0.125 -0.094 -0.273 -0.254 -0.313 -0.332 c -0.039 -0.074 -0.09 -0.262 -0.113 -0.414 c -0.008 -0.059 -0.027 -0.129 -0.039 -0.156 c -0.039 -0.082 -0.012 -0.242 0.039 -0.227 c 0.25 0.074 0.414 0.117 0.477 0.125 c 0.18 0.031 0.574 0.043 0.832 0.027 c 0.355 -0.02 0.398 -0.023 0.707 -0.121 c 0.152 -0.043 0.156 -0.043 0.172 0.07 c 0.008 0.047 0.004 0.078 -0.016 0.125 c -0.016 0.035 -0.035 0.121 -0.047 0.188 c -0.047 0.285 -0.094 0.398 -0.223 0.535 c -0.105 0.113 -0.281 0.258 -0.289 0.234 c -0.004 -0.008 0.016 -0.063 0.039 -0.121 c 0.074 -0.172 0.109 -0.293 0.125 -0.418 c 0.02 -0.172 0.008 -0.223 -0.063 -0.289 l -0.059 -0.059 l -0.117 0.008 c -0.063 0.004 -0.145 0.012 -0.18 0.016 l -0.07 0.008 l 0.035 0.023 l 0.031 0.027 v 0.234 c 0 0.27 0.016 0.25 -0.152 0.242 l -0.094 -0.004 l 0.004 -0.227 c 0 -0.125 0.004 -0.23 0.012 -0.238 c 0.004 -0.004 0.043 -0.02 0.078 -0.031 c 0.07 -0.016 0.07 -0.016 -0.137 -0.016 h -0.211 l 0.078 0.02 l 0.074 0.023 l 0.012 0.117 c 0.004 0.063 0.008 0.168 0.004 0.234 l -0.004 0.117 l -0.094 0.004 c -0.051 0 -0.109 0 -0.125 -0.004 l -0.027 -0.008 l 0.004 -0.238 c 0.004 -0.23 0.004 -0.238 0.031 -0.25 c 0.016 -0.008 0.027 -0.016 0.027 -0.02 c 0 -0.012 -0.09 -0.023 -0.254 -0.031 l -0.105 -0.008 l -0.066 0.059 l -0.063 0.063 l 0.004 0.137 c 0 0.16 0.031 0.285 0.117 0.492 c 0.027 0.066 0.051 0.129 0.047 0.137 c 0 0.008 -0.043 -0.016 -0.09 -0.055 m 0.082 -0.281 c -0.035 -0.012 -0.039 -0.035 -0.055 -0.277 l -0.012 -0.129 l 0.043 -0.047 c 0.039 -0.043 0.051 -0.047 0.121 -0.047 c 0.051 -0.004 0.086 0 0.098 0.012 c 0.023 0.027 0.031 0.473 0.008 0.488 c -0.02 0.012 -0.156 0.012 -0.203 0 m 0.918 0.004 c -0.012 -0.008 -0.016 -0.066 -0.016 -0.234 c 0 -0.27 0 -0.273 0.105 -0.27 c 0.078 0 0.121 0.023 0.152 0.074 c 0.02 0.027 0.02 0.051 0.008 0.211 c -0.008 0.098 -0.02 0.184 -0.02 0.191 c -0.012 0.027 -0.188 0.043 -0.23 0.027 m -0.727 -0.793 c -0.375 -0.039 -0.563 -0.074 -0.672 -0.129 c -0.055 -0.031 -0.063 -0.043 -0.363 -0.586 c -0.168 -0.305 -0.309 -0.563 -0.309 -0.57 c 0 -0.027 0.332 -0.383 0.359 -0.383 c 0.035 0 0.16 0.074 0.223 0.125 c 0.102 0.09 0.113 0.191 0.051 0.414 c -0.047 0.176 -0.066 0.297 -0.047 0.363 c 0.016 0.063 0.125 0.168 0.281 0.27 c 0.137 0.09 0.504 0.281 0.656 0.352 c 0.063 0.023 0.125 0.063 0.145 0.078 c 0.039 0.039 0.055 0.039 0.082 0.008 c 0.008 -0.016 0.117 -0.074 0.238 -0.133 c 0.387 -0.184 0.691 -0.371 0.801 -0.492 l 0.055 -0.059 l -0.008 -0.125 c -0.004 -0.09 -0.02 -0.168 -0.047 -0.258 c -0.066 -0.219 -0.051 -0.324 0.055 -0.418 c 0.063 -0.055 0.211 -0.137 0.234 -0.129 c 0.02 0.008 0.344 0.371 0.344 0.383 c 0 0.008 -0.141 0.266 -0.309 0.574 l -0.313 0.563 l -0.059 0.027 c -0.125 0.055 -0.301 0.09 -0.633 0.121 c -0.18 0.02 -0.344 0.035 -0.367 0.039 c -0.02 0.004 -0.199 -0.012 -0.398 -0.031 m 0.102 -0.27 c -0.148 -0.031 -0.387 -0.172 -0.613 -0.355 c -0.133 -0.109 -0.141 -0.125 -0.133 -0.246 c 0.008 -0.105 0.031 -0.188 0.051 -0.188 c 0.004 0 0.109 0.059 0.234 0.125 c 0.332 0.188 0.402 0.219 0.555 0.227 l 0.125 0.008 l 0.012 0.047 c 0.008 0.043 0.008 0.133 -0.012 0.297 c -0.004 0.039 -0.016 0.078 -0.023 0.09 c -0.023 0.023 -0.086 0.023 -0.195 -0.004 m 0.039 -0.074 c 0 -0.004 -0.082 -0.063 -0.184 -0.129 c -0.098 -0.07 -0.227 -0.168 -0.281 -0.223 c -0.059 -0.055 -0.109 -0.102 -0.113 -0.102 c -0.023 0 0.023 0.156 0.063 0.207 c 0.063 0.074 0.516 0.289 0.516 0.246 m 0.301 0.078 c -0.023 -0.023 -0.039 -0.117 -0.039 -0.281 c -0.004 -0.16 -0.004 -0.156 0.109 -0.156 c 0.051 0 0.121 -0.012 0.16 -0.023 c 0.078 -0.02 0.293 -0.129 0.504 -0.25 c 0.074 -0.047 0.145 -0.082 0.152 -0.082 c 0.02 0 0.039 0.086 0.051 0.199 l 0.008 0.105 l -0.066 0.059 c -0.141 0.145 -0.477 0.363 -0.621 0.406 c -0.117 0.039 -0.234 0.051 -0.258 0.023 m 0.301 -0.121 c 0.32 -0.137 0.402 -0.203 0.43 -0.363 c 0.012 -0.063 -0.004 -0.059 -0.066 0.008 c -0.063 0.07 -0.242 0.215 -0.375 0.297 c -0.18 0.113 -0.172 0.141 0.016 0.059 m -5.355 -0.52 c -0.379 -0.09 -0.691 -0.164 -0.699 -0.168 c -0.012 -0.016 0.02 -0.039 0.359 -0.297 c 0.859 -0.652 0.953 -0.715 1.199 -0.793 c 0.188 -0.063 0.289 -0.078 0.699 -0.113 l 0.238 -0.02 l 0.148 0.059 c 0.219 0.09 0.516 0.242 0.645 0.328 c 0.063 0.039 0.16 0.121 0.219 0.188 c 0.113 0.117 0.281 0.336 0.277 0.359 c -0.004 0.008 -0.09 0.023 -0.188 0.035 c -0.656 0.082 -1.09 0.16 -1.297 0.227 c -0.148 0.051 -0.453 0.18 -0.688 0.293 c -0.09 0.043 -0.152 0.063 -0.184 0.063 c -0.023 0 -0.355 -0.074 -0.73 -0.16 m 9.06 0.109 c -0.184 -0.094 -0.566 -0.258 -0.707 -0.305 c -0.219 -0.07 -0.484 -0.121 -1.129 -0.203 c -0.344 -0.047 -0.363 -0.051 -0.363 -0.066 c 0 -0.02 0.148 -0.215 0.242 -0.316 c 0.051 -0.059 0.137 -0.137 0.195 -0.18 c 0.113 -0.09 0.438 -0.258 0.691 -0.363 l 0.168 -0.07 l 0.234 0.023 c 0.445 0.035 0.613 0.07 0.836 0.164 c 0.152 0.063 0.285 0.152 1.043 0.727 c 0.363 0.273 0.391 0.297 0.379 0.313 c -0.016 0.012 -1.406 0.328 -1.449 0.328 c -0.02 0 -0.082 -0.023 -0.137 -0.051 m -4.363 -0.098 c -0.074 -0.012 -0.191 -0.027 -0.258 -0.039 c -0.102 -0.02 -0.117 -0.027 -0.129 -0.055 c -0.012 -0.023 -0.008 -0.098 0.02 -0.32 c 0.02 -0.16 0.039 -0.332 0.039 -0.379 c 0 -0.082 -0.004 -0.098 -0.082 -0.25 c -0.043 -0.09 -0.074 -0.168 -0.07 -0.176 c 0.008 -0.012 0.629 -0.301 0.652 -0.301 c 0.008 0 0.016 0.012 0.02 0.027 c 0.004 0.031 0.059 1.359 0.059 1.457 v 0.055 h -0.055 c -0.031 0 -0.117 -0.012 -0.195 -0.02 m 0.297 -0.047 c 0 -0.039 0.016 -0.383 0.031 -0.766 c 0.02 -0.523 0.031 -0.699 0.043 -0.703 c 0.02 -0.008 0.652 0.281 0.66 0.305 c 0 0.008 -0.02 0.063 -0.051 0.117 c -0.035 0.059 -0.07 0.145 -0.086 0.188 c -0.031 0.094 -0.031 0.09 0.02 0.504 c 0.02 0.141 0.031 0.266 0.031 0.277 c 0 0.063 -0.051 0.078 -0.371 0.117 c -0.293 0.039 -0.273 0.043 -0.277 -0.039 m -0.836 -0.109 c -0.027 -0.023 -0.051 -0.059 -0.051 -0.074 c 0 -0.012 -0.008 -0.086 -0.023 -0.16 c -0.039 -0.195 -0.078 -0.27 -0.242 -0.445 c -0.141 -0.145 -0.141 -0.148 -0.109 -0.168 c 0.063 -0.039 0.391 -0.18 0.406 -0.172 c 0.023 0.008 0.145 0.266 0.16 0.348 c 0.023 0.109 -0.027 0.652 -0.066 0.699 c -0.02 0.023 -0.023 0.023 -0.074 -0.027 m 1.551 0.027 c -0.02 -0.023 -0.051 -0.211 -0.066 -0.438 c -0.012 -0.156 -0.012 -0.211 0 -0.27 c 0.02 -0.086 0.133 -0.332 0.16 -0.34 c 0.023 -0.012 0.41 0.164 0.418 0.188 c 0.004 0.012 -0.043 0.074 -0.113 0.145 c -0.184 0.191 -0.23 0.285 -0.262 0.527 c -0.012 0.086 -0.023 0.113 -0.051 0.145 c -0.043 0.051 -0.07 0.066 -0.086 0.043 m -2.578 -0.426 c -0.02 -0.023 -0.066 -0.094 -0.105 -0.152 c -0.098 -0.141 -0.246 -0.301 -0.34 -0.359 c -0.039 -0.027 -0.188 -0.109 -0.332 -0.188 c -0.145 -0.074 -0.262 -0.141 -0.266 -0.148 c -0.012 -0.016 0.324 -0.863 0.344 -0.871 c 0.012 -0.004 0.043 0.02 0.074 0.051 l 0.055 0.059 l 0.016 0.16 c 0.031 0.398 0.074 0.602 0.137 0.66 c 0.055 0.047 0.223 0.141 0.531 0.301 c 0.148 0.074 0.27 0.145 0.266 0.148 c -0.008 0.02 -0.332 0.379 -0.344 0.379 c -0.004 0 -0.02 -0.016 -0.035 -0.043 m 3.469 -0.141 c -0.09 -0.098 -0.164 -0.188 -0.164 -0.195 c 0 -0.008 0.148 -0.094 0.328 -0.188 c 0.352 -0.184 0.461 -0.25 0.492 -0.297 c 0.012 -0.016 0.031 -0.078 0.047 -0.137 c 0.02 -0.094 0.031 -0.199 0.07 -0.59 c 0.008 -0.059 0.016 -0.074 0.059 -0.117 c 0.027 -0.023 0.059 -0.047 0.07 -0.047 c 0.016 0 0.066 0.117 0.184 0.41 c 0.086 0.227 0.16 0.426 0.16 0.441 c 0 0.023 -0.043 0.051 -0.277 0.176 c -0.152 0.078 -0.316 0.176 -0.363 0.211 c -0.098 0.078 -0.227 0.223 -0.344 0.395 c -0.043 0.066 -0.086 0.121 -0.09 0.121 c -0.004 0 -0.082 -0.082 -0.172 -0.184 m -3.145 -0.371 c -0.07 -0.016 -0.184 -0.051 -0.254 -0.074 c -0.352 -0.129 -0.441 -0.203 -0.512 -0.434 c -0.035 -0.121 -0.047 -0.371 -0.023 -0.535 c 0.012 -0.063 0.016 -0.125 0.016 -0.133 c -0.004 -0.008 -0.047 -0.031 -0.094 -0.055 c -0.051 -0.02 -0.094 -0.047 -0.094 -0.059 c -0.008 -0.02 0.063 -0.164 0.086 -0.172 c 0.02 -0.008 2.23 0.895 2.254 0.918 c 0.016 0.016 0.059 -0.004 -0.609 0.309 c -0.316 0.148 -0.59 0.27 -0.609 0.266 c -0.016 0 -0.09 -0.012 -0.16 -0.031 m 0.164 -0.238 c 0.141 -0.066 0.344 -0.238 0.336 -0.285 c -0.008 -0.027 -0.949 -0.438 -0.969 -0.422 c -0.023 0.027 -0.016 0.363 0.012 0.445 c 0.027 0.102 0.09 0.191 0.164 0.242 c 0.086 0.059 0.125 0.07 0.254 0.066 c 0.102 -0.004 0.129 -0.012 0.203 -0.047 m -0.266 -0.145 c -0.07 -0.02 -0.117 -0.055 -0.152 -0.113 c -0.027 -0.051 -0.035 -0.078 -0.035 -0.148 c 0 -0.051 0.004 -0.098 0.012 -0.105 c 0.016 -0.016 0.461 0.18 0.473 0.207 c 0.008 0.023 -0.078 0.113 -0.129 0.137 c -0.055 0.027 -0.121 0.035 -0.168 0.023 m 2.34 0.137 c -0.324 -0.148 -0.59 -0.281 -0.594 -0.289 c -0.004 -0.016 2.238 -0.938 2.262 -0.926 c 0.02 0.008 0.098 0.16 0.086 0.176 c -0.004 0.008 -0.047 0.031 -0.094 0.055 c -0.047 0.023 -0.09 0.047 -0.094 0.055 c -0.004 0.008 0.004 0.07 0.012 0.133 c 0.051 0.348 -0.016 0.652 -0.168 0.789 c -0.063 0.055 -0.199 0.121 -0.422 0.195 c -0.137 0.047 -0.328 0.094 -0.379 0.09 c -0.012 0 -0.285 -0.125 -0.609 -0.277 m 1 0.035 c 0.121 -0.051 0.199 -0.141 0.25 -0.289 c 0.02 -0.059 0.023 -0.113 0.023 -0.25 c 0 -0.109 -0.004 -0.188 -0.016 -0.195 c -0.008 -0.008 -0.156 0.051 -0.48 0.191 c -0.258 0.113 -0.477 0.211 -0.484 0.215 c -0.051 0.043 0.242 0.277 0.41 0.332 c 0.078 0.027 0.223 0.023 0.297 -0.004 m -0.23 -0.176 c -0.055 -0.016 -0.176 -0.121 -0.176 -0.152 c 0 -0.027 0.457 -0.23 0.477 -0.211 c 0.023 0.027 0.016 0.176 -0.02 0.242 c -0.047 0.098 -0.168 0.152 -0.281 0.121 m -6.336 -0.031 c -0.242 -0.125 -0.441 -0.234 -0.438 -0.242 c 0.004 -0.012 1.398 -0.809 1.418 -0.809 c 0.004 0 0.023 0.043 0.043 0.09 c 0.105 0.266 0.176 0.418 0.211 0.484 c 0.043 0.07 0.195 0.281 0.281 0.387 c 0.027 0.035 0.043 0.066 0.039 0.07 c -0.008 0.008 -0.074 0.02 -0.145 0.027 c -0.422 0.047 -0.617 0.09 -0.84 0.176 c -0.063 0.027 -0.117 0.047 -0.117 0.047 c -0.004 0 -0.207 -0.102 -0.449 -0.23 m 9.105 0.184 c -0.063 -0.027 -0.168 -0.063 -0.23 -0.078 c -0.109 -0.031 -0.453 -0.086 -0.648 -0.105 c -0.051 -0.004 -0.098 -0.016 -0.102 -0.02 c -0.004 -0.008 0.004 -0.027 0.02 -0.043 c 0.012 -0.02 0.066 -0.086 0.117 -0.152 c 0.172 -0.215 0.211 -0.289 0.355 -0.645 c 0.039 -0.102 0.078 -0.184 0.086 -0.188 c 0.008 -0.004 0.742 0.41 1.344 0.75 c 0.043 0.023 0.078 0.051 0.078 0.059 c 0 0.012 -0.828 0.445 -0.879 0.457 c -0.016 0.004 -0.078 -0.012 -0.141 -0.035 m -7.34 -0.238 c -0.387 -0.188 -0.871 -1.453 -0.988 -2.586 c -0.023 -0.223 -0.02 -0.73 0.004 -0.855 c 0.031 -0.137 0.016 -0.141 0.164 0.023 c 0.156 0.168 0.484 0.488 0.648 0.625 c 0.172 0.152 0.262 0.219 0.418 0.301 c 0.082 0.043 0.168 0.09 0.195 0.105 c 0.043 0.023 0.051 0.027 0.066 0.008 c 0.008 -0.008 0.063 -0.105 0.121 -0.211 c 0.055 -0.109 0.113 -0.211 0.129 -0.227 c 0.023 -0.027 0.023 -0.027 0.094 -0.004 c 0.094 0.035 0.266 0.129 0.41 0.223 c 0.172 0.117 0.355 0.262 0.355 0.281 c 0 0.023 -0.73 1.027 -0.805 1.109 c -0.051 0.055 -0.059 0.059 -0.105 0.051 c -0.039 -0.008 -0.051 -0.004 -0.07 0.02 c -0.023 0.027 -0.176 0.367 -0.387 0.863 c -0.094 0.219 -0.141 0.313 -0.152 0.313 c -0.012 0 -0.055 -0.02 -0.098 -0.039 m 0.176 -0.527 c 0.168 -0.348 0.297 -0.645 0.332 -0.746 c 0.031 -0.09 0.023 -0.164 -0.027 -0.27 c -0.039 -0.078 -0.074 -0.125 -0.199 -0.254 c -0.086 -0.086 -0.227 -0.211 -0.313 -0.281 c -0.344 -0.266 -0.617 -0.602 -0.809 -1 c -0.031 -0.059 -0.059 -0.109 -0.063 -0.109 c -0.035 0 -0.023 0.391 0.016 0.691 c 0.113 0.805 0.344 1.547 0.633 2.02 c 0.086 0.137 0.219 0.309 0.246 0.309 c 0.012 0 0.082 -0.137 0.184 -0.355 m 5.723 0.254 c -0.203 -0.484 -0.363 -0.84 -0.387 -0.867 c -0.02 -0.02 -0.031 -0.023 -0.07 -0.016 c -0.047 0.008 -0.055 0.004 -0.105 -0.051 c -0.078 -0.086 -0.805 -1.086 -0.805 -1.109 c 0 -0.023 0.133 -0.129 0.313 -0.258 c 0.133 -0.086 0.34 -0.203 0.445 -0.246 l 0.07 -0.031 l 0.027 0.031 c 0.016 0.016 0.078 0.117 0.133 0.227 c 0.055 0.105 0.109 0.203 0.121 0.215 c 0.016 0.016 0.023 0.016 0.066 -0.012 c 0.027 -0.016 0.113 -0.063 0.191 -0.105 c 0.25 -0.133 0.492 -0.336 0.941 -0.797 l 0.262 -0.27 l 0.016 0.059 c 0.039 0.18 0.051 0.574 0.023 0.859 c -0.09 0.98 -0.469 2.113 -0.852 2.535 c -0.059 0.063 -0.191 0.145 -0.242 0.145 c -0.008 0 -0.074 -0.137 -0.145 -0.309 m 0.332 0.023 c 0.344 -0.383 0.648 -1.234 0.793 -2.219 c 0.031 -0.203 0.051 -0.719 0.027 -0.719 c -0.004 0 -0.047 0.066 -0.086 0.148 c -0.145 0.277 -0.344 0.555 -0.531 0.742 c -0.051 0.047 -0.168 0.145 -0.258 0.219 c -0.293 0.23 -0.496 0.457 -0.543 0.602 c -0.027 0.078 -0.02 0.152 0.031 0.277 c 0.094 0.25 0.465 1.027 0.484 1.027 c 0.004 0 0.043 -0.035 0.082 -0.078 m -3.234 0.09 c -0.121 -0.098 -0.137 -0.16 -0.098 -0.398 c 0.035 -0.188 0.023 -0.324 -0.043 -0.488 c -0.07 -0.176 -0.09 -0.258 -0.09 -0.387 c 0 -0.117 0.02 -0.199 0.047 -0.199 c 0.008 0 0.066 0.035 0.125 0.078 c 0.063 0.043 0.121 0.078 0.133 0.078 c 0.008 0 0.066 -0.035 0.129 -0.078 c 0.059 -0.043 0.117 -0.078 0.129 -0.078 c 0.031 0 0.039 0.055 0.039 0.223 c 0 0.129 -0.004 0.16 -0.035 0.234 c -0.098 0.25 -0.102 0.266 -0.105 0.383 c -0.004 0.074 0 0.164 0.012 0.246 c 0.039 0.242 0.027 0.289 -0.098 0.387 c -0.035 0.027 -0.07 0.055 -0.074 0.055 c -0.004 0 -0.035 -0.027 -0.074 -0.055 m -0.445 -0.168 c -0.094 -0.039 -0.18 -0.082 -0.191 -0.094 c -0.008 -0.008 -0.031 -0.078 -0.051 -0.152 c -0.051 -0.207 -0.117 -0.336 -0.219 -0.445 c -0.047 -0.047 -0.105 -0.105 -0.129 -0.121 c -0.039 -0.031 -0.047 -0.043 -0.055 -0.121 c -0.004 -0.051 -0.004 -0.125 0 -0.172 c 0.027 -0.188 0.086 -0.234 0.328 -0.254 c 0.152 -0.012 0.48 0.004 0.5 0.023 c 0.004 0.004 -0.008 0.098 -0.027 0.207 l -0.039 0.195 l 0.07 0.215 c 0.039 0.117 0.078 0.254 0.09 0.301 c 0.027 0.105 0.023 0.242 0 0.344 c -0.031 0.125 -0.047 0.152 -0.074 0.152 c -0.016 0 -0.105 -0.035 -0.203 -0.078 m 0.801 0.047 c -0.031 -0.09 -0.051 -0.207 -0.051 -0.301 c 0 -0.113 0.043 -0.285 0.133 -0.547 l 0.047 -0.129 l -0.039 -0.199 c -0.02 -0.113 -0.031 -0.203 -0.027 -0.207 c 0.02 -0.02 0.367 -0.035 0.512 -0.023 c 0.262 0.023 0.305 0.07 0.313 0.336 l 0.004 0.16 l -0.043 0.035 c -0.023 0.02 -0.086 0.082 -0.141 0.137 c -0.113 0.121 -0.152 0.195 -0.219 0.43 c -0.023 0.09 -0.051 0.168 -0.055 0.172 c -0.02 0.02 -0.371 0.164 -0.398 0.164 c -0.012 0 -0.027 -0.012 -0.035 -0.031 m -2.039 -0.598 c -0.258 -0.133 -0.469 -0.25 -0.469 -0.258 c 0 -0.012 0.078 -0.098 0.168 -0.191 l 0.172 -0.176 l 0.043 0.023 c 0.074 0.039 0.211 0.148 0.273 0.223 c 0.07 0.078 0.148 0.215 0.23 0.406 c 0.066 0.156 0.086 0.215 0.066 0.215 c -0.008 0 -0.223 -0.109 -0.484 -0.242 m 3.03 0.227 c 0 -0.055 0.195 -0.461 0.27 -0.566 c 0.055 -0.074 0.195 -0.195 0.293 -0.25 l 0.063 -0.035 l 0.172 0.176 c 0.09 0.094 0.168 0.18 0.168 0.191 c 0 0.008 -0.207 0.121 -0.477 0.258 c -0.262 0.133 -0.48 0.238 -0.48 0.238 c -0.004 0 -0.008 -0.004 -0.008 -0.012 m -2.813 -0.809 c -0.129 -0.086 -0.238 -0.164 -0.246 -0.172 c -0.012 -0.02 0.617 -1.051 0.656 -1.074 c 0.012 -0.008 0.047 0.004 0.125 0.051 c 0.152 0.09 0.371 0.242 0.465 0.32 c 0.047 0.035 0.086 0.066 0.09 0.066 c 0.027 0 0.098 -0.066 0.152 -0.141 c 0.063 -0.086 0.293 -0.539 0.293 -0.574 c 0 -0.008 0.004 -0.016 0.012 -0.016 c 0.008 0 0.012 0.008 0.012 0.016 c 0 0.027 0.188 0.41 0.25 0.508 c 0.066 0.109 0.113 0.164 0.16 0.188 c 0.016 0.012 0.035 0.02 0.039 0.02 c 0.004 0 0.035 -0.027 0.074 -0.059 c 0.113 -0.105 0.547 -0.387 0.586 -0.387 c 0.008 0 0.027 0.016 0.043 0.035 c 0.055 0.082 0.633 1.027 0.633 1.035 c 0 0.016 -0.484 0.34 -0.492 0.332 c -0.004 -0.008 -0.023 -0.066 -0.043 -0.133 c -0.059 -0.219 -0.129 -0.316 -0.227 -0.316 c -0.191 -0.008 -0.426 0.016 -0.828 0.074 l -0.215 0.031 l -0.207 -0.031 c -0.32 -0.051 -0.555 -0.074 -0.723 -0.074 c -0.145 0 -0.152 0.004 -0.191 0.035 c -0.047 0.039 -0.117 0.188 -0.145 0.313 c -0.016 0.047 -0.027 0.094 -0.031 0.102 c -0.008 0.004 -0.113 -0.063 -0.242 -0.148" fill="#6f6f6f"/></svg>