<svg xmlns="http://www.w3.org/2000/svg" viewBox="0 0 24 24"><path d="m 2.473 18.98 c -11.832 -17.715 25.902 -28.629 20.906 -5.727 c -2.129 9.465 -15.48 15.207 -20.906 5.727" fill="#ffdeac"/><path d="m 11.609 19.11 c -0.035 -0.059 -0.164 -0.109 -0.289 -0.109 c -0.129 0 -0.313 -0.098 -0.414 -0.215 c -0.098 -0.117 -0.281 -0.215 -0.402 -0.215 c -0.121 0 -0.301 -0.098 -0.398 -0.215 c -0.102 -0.121 -0.281 -0.215 -0.402 -0.215 c -0.121 0 -0.301 -0.098 -0.402 -0.219 c -0.102 -0.117 -0.281 -0.215 -0.402 -0.215 c -0.121 0 -0.301 -0.098 -0.402 -0.215 c -0.098 -0.117 -0.277 -0.215 -0.398 -0.215 c -0.121 0 -0.305 -0.098 -0.402 -0.215 c -0.102 -0.121 -0.281 -0.219 -0.402 -0.219 c -0.121 0 -0.301 -0.094 -0.402 -0.215 c -0.098 -0.117 -0.277 -0.215 -0.391 -0.219 c -0.117 0 -0.359 -0.145 -0.539 -0.32 l -0.324 -0.32 v -6.797 l 0.324 -0.316 c 0.18 -0.176 0.422 -0.32 0.539 -0.324 c 0.113 0 0.293 -0.098 0.391 -0.219 c 0.102 -0.117 0.281 -0.215 0.402 -0.215 c 0.121 0 0.301 -0.098 0.402 -0.215 c 0.098 -0.117 0.281 -0.215 0.402 -0.215 c 0.121 0 0.301 -0.098 0.398 -0.215 c 0.102 -0.121 0.281 -0.219 0.402 -0.219 c 0.121 0 0.301 -0.094 0.402 -0.215 c 0.102 -0.117 0.281 -0.215 0.402 -0.215 c 0.121 0 0.301 -0.098 0.402 -0.215 c 0.098 -0.117 0.277 -0.215 0.398 -0.215 c 0.121 0 0.305 -0.098 0.402 -0.215 c 0.102 -0.121 0.289 -0.219 0.422 -0.219 c 0.129 0 0.266 -0.07 0.297 -0.16 c 0.078 -0.223 0.895 -0.223 0.977 0 c 0.031 0.09 0.164 0.16 0.293 0.16 c 0.133 0 0.324 0.098 0.422 0.219 c 0.102 0.117 0.281 0.215 0.402 0.215 c 0.121 0 0.301 0.098 0.402 0.215 c 0.098 0.117 0.281 0.215 0.402 0.215 c 0.117 0 0.301 0.098 0.398 0.215 c 0.102 0.121 0.281 0.215 0.402 0.215 c 0.121 0 0.301 0.098 0.402 0.219 c 0.102 0.117 0.281 0.215 0.402 0.215 c 0.121 0 0.301 0.098 0.402 0.215 c 0.098 0.117 0.277 0.215 0.398 0.215 c 0.121 0 0.305 0.098 0.402 0.215 c 0.102 0.121 0.273 0.219 0.387 0.219 c 0.113 0 0.332 0.129 0.488 0.289 l 0.281 0.289 v 6.926 l -0.281 0.289 c -0.156 0.16 -0.375 0.289 -0.488 0.289 c -0.113 0 -0.285 0.098 -0.387 0.215 c -0.098 0.121 -0.281 0.219 -0.402 0.219 c -0.121 0 -0.301 0.094 -0.398 0.215 c -0.102 0.117 -0.281 0.215 -0.402 0.215 c -0.121 0 -0.301 0.098 -0.402 0.215 c -0.102 0.121 -0.281 0.215 -0.402 0.215 c -0.121 0 -0.301 0.098 -0.402 0.219 c -0.098 0.117 -0.281 0.215 -0.398 0.215 c -0.121 0 -0.305 0.098 -0.402 0.215 c -0.102 0.117 -0.281 0.215 -0.402 0.215 c -0.121 0 -0.301 0.098 -0.402 0.215 c -0.098 0.121 -0.285 0.215 -0.41 0.215 c -0.125 0 -0.258 0.051 -0.293 0.109 c -0.035 0.059 -0.258 0.109 -0.5 0.109 c -0.242 0 -0.469 -0.051 -0.504 -0.109" fill="#8b8bf9"/><path d="m 11.625 19.05 c -0.031 -0.09 -0.168 -0.16 -0.297 -0.16 c -0.133 0 -0.32 -0.098 -0.422 -0.219 c -0.098 -0.117 -0.281 -0.215 -0.402 -0.215 c -0.117 0 -0.301 -0.098 -0.398 -0.215 c -0.102 -0.117 -0.281 -0.215 -0.402 -0.215 c -0.121 0 -0.301 -0.098 -0.402 -0.215 c -0.102 -0.121 -0.281 -0.215 -0.402 -0.215 c -0.121 0 -0.301 -0.098 -0.402 -0.219 c -0.098 -0.117 -0.277 -0.215 -0.398 -0.215 c -0.121 0 -0.301 -0.098 -0.402 -0.215 c -0.102 -0.117 -0.281 -0.215 -0.402 -0.215 c -0.121 0 -0.301 -0.098 -0.402 -0.215 c -0.098 -0.121 -0.281 -0.219 -0.402 -0.219 c -0.121 0 -0.301 -0.094 -0.398 -0.215 c -0.102 -0.117 -0.246 -0.215 -0.32 -0.215 c -0.109 0 -0.133 -0.641 -0.133 -3.504 c 0 -2.863 0.023 -3.5 0.133 -3.5 c 0.074 0 0.219 -0.098 0.32 -0.219 c 0.098 -0.117 0.277 -0.215 0.398 -0.215 c 0.121 0 0.301 -0.098 0.402 -0.215 c 0.102 -0.117 0.281 -0.215 0.402 -0.215 c 0.121 0 0.301 -0.098 0.402 -0.215 c 0.098 -0.121 0.281 -0.219 0.402 -0.219 c 0.121 0 0.301 -0.094 0.398 -0.215 c 0.102 -0.117 0.281 -0.215 0.402 -0.215 c 0.121 0 0.301 -0.098 0.402 -0.215 c 0.102 -0.117 0.281 -0.215 0.402 -0.215 c 0.121 0 0.301 -0.098 0.402 -0.215 c 0.098 -0.121 0.281 -0.219 0.398 -0.219 c 0.121 0 0.305 -0.098 0.402 -0.215 c 0.102 -0.117 0.293 -0.215 0.43 -0.215 c 0.16 0 0.262 -0.074 0.297 -0.215 c 0.039 -0.176 0.137 -0.215 0.48 -0.215 c 0.344 0 0.438 0.039 0.48 0.215 c 0.035 0.141 0.137 0.215 0.297 0.215 c 0.133 0 0.328 0.098 0.426 0.215 c 0.102 0.117 0.281 0.215 0.402 0.215 c 0.121 0 0.301 0.098 0.402 0.219 c 0.098 0.117 0.281 0.215 0.402 0.215 c 0.121 0 0.301 0.098 0.398 0.215 c 0.102 0.117 0.281 0.215 0.402 0.215 c 0.121 0 0.301 0.098 0.402 0.215 c 0.102 0.121 0.281 0.215 0.402 0.215 c 0.121 0 0.301 0.098 0.402 0.219 c 0.098 0.117 0.281 0.215 0.402 0.215 c 0.117 0 0.301 0.098 0.398 0.215 c 0.102 0.117 0.277 0.215 0.395 0.219 c 0.113 0.004 0.332 0.121 0.484 0.266 l 0.277 0.258 v 6.813 l -0.277 0.262 c -0.152 0.145 -0.371 0.262 -0.484 0.266 c -0.117 0 -0.293 0.098 -0.395 0.219 c -0.098 0.117 -0.281 0.215 -0.398 0.215 c -0.121 0 -0.305 0.098 -0.402 0.215 c -0.102 0.117 -0.281 0.215 -0.402 0.215 c -0.121 0 -0.301 0.098 -0.402 0.215 c -0.098 0.121 -0.281 0.219 -0.402 0.219 c -0.121 0 -0.301 0.094 -0.402 0.215 c -0.098 0.117 -0.277 0.215 -0.398 0.215 c -0.121 0 -0.301 0.098 -0.402 0.215 c -0.102 0.117 -0.281 0.215 -0.402 0.215 c -0.121 0 -0.301 0.098 -0.402 0.215 c -0.098 0.121 -0.289 0.219 -0.418 0.219 c -0.133 0 -0.266 0.07 -0.297 0.16 c -0.039 0.109 -0.199 0.16 -0.488 0.16 c -0.289 0 -0.449 -0.051 -0.488 -0.16 m -0.086 -1.914 c 0.023 -0.906 0.004 -1.063 -0.141 -1.125 c -0.109 -0.043 -0.234 0.016 -0.348 0.164 c -0.133 0.18 -0.285 0.234 -0.637 0.234 c -0.352 0 -0.488 0.051 -0.586 0.215 c -0.074 0.133 -0.234 0.215 -0.402 0.215 c -0.152 0 -0.277 0.035 -0.277 0.074 c 0 0.188 0.363 0.465 0.605 0.465 c 0.148 0 0.352 0.098 0.449 0.219 c 0.102 0.117 0.289 0.215 0.418 0.215 c 0.129 0 0.293 0.098 0.359 0.219 c 0.074 0.125 0.211 0.207 0.328 0.188 c 0.184 -0.027 0.203 -0.125 0.23 -1.082 m -2.691 -0.887 c 0.07 -0.09 0.234 -0.164 0.363 -0.164 c 0.133 0 0.297 -0.098 0.363 -0.215 c 0.098 -0.164 0.234 -0.215 0.586 -0.215 c 0.352 0 0.512 -0.059 0.68 -0.25 l 0.219 -0.25 l -0.352 -0.363 c -0.195 -0.199 -0.352 -0.469 -0.352 -0.59 c 0 -0.125 -0.18 -0.418 -0.402 -0.648 c -0.238 -0.25 -0.402 -0.523 -0.402 -0.668 c 0 -0.137 -0.09 -0.309 -0.199 -0.383 c -0.125 -0.082 -0.203 -0.25 -0.203 -0.434 c 0 -0.402 -0.273 -0.512 -0.508 -0.207 c -0.098 0.133 -0.289 0.234 -0.434 0.234 c -0.152 0 -0.313 0.09 -0.387 0.215 c -0.07 0.125 -0.234 0.219 -0.383 0.219 c -0.145 0 -0.359 0.113 -0.48 0.25 c -0.199 0.227 -0.207 0.27 -0.07 0.391 c 0.086 0.078 0.156 0.254 0.156 0.395 c 0 0.141 0.09 0.316 0.199 0.391 c 0.117 0.078 0.203 0.25 0.203 0.41 c 0 0.18 0.137 0.422 0.398 0.695 c 0.223 0.23 0.402 0.512 0.402 0.617 c 0 0.219 0.281 0.73 0.402 0.73 c 0.043 0 0.133 -0.074 0.199 -0.16 m -1.336 -0.332 c 0.039 -0.109 -0.086 -0.332 -0.355 -0.625 c -0.23 -0.25 -0.414 -0.555 -0.414 -0.676 c 0 -0.121 -0.09 -0.309 -0.195 -0.41 c -0.109 -0.105 -0.215 -0.293 -0.242 -0.422 c -0.023 -0.129 -0.035 0.23 -0.027 0.793 l 0.012 1.023 l 0.281 0.035 c 0.152 0.02 0.332 0.129 0.398 0.242 c 0.148 0.25 0.457 0.273 0.543 0.039 m 4 -3.246 c -0.027 -0.078 -0.156 -0.141 -0.289 -0.141 c -0.129 0 -0.32 -0.098 -0.418 -0.219 c -0.102 -0.117 -0.262 -0.215 -0.355 -0.215 c -0.098 0 -0.23 -0.07 -0.297 -0.16 c -0.07 -0.09 -0.168 -0.164 -0.215 -0.164 c -0.16 0 -0.094 0.289 0.113 0.488 c 0.109 0.105 0.199 0.297 0.199 0.426 c 0 0.125 0.18 0.418 0.402 0.652 c 0.223 0.23 0.402 0.516 0.402 0.633 c 0 0.117 0.102 0.332 0.227 0.473 l 0.227 0.258 l 0.027 -0.941 c 0.016 -0.52 0.008 -1.01 -0.023 -1.09 m -4.75 -0.68 c 0.074 -0.129 0.234 -0.219 0.395 -0.219 c 0.152 0 0.332 -0.086 0.406 -0.203 c 0.074 -0.113 0.27 -0.223 0.434 -0.242 c 0.398 -0.051 0.426 -0.453 0.031 -0.504 c -0.145 -0.016 -0.344 -0.125 -0.441 -0.242 c -0.098 -0.113 -0.27 -0.207 -0.383 -0.207 c -0.109 0 -0.305 -0.105 -0.43 -0.23 c -0.418 -0.422 -0.539 -0.219 -0.539 0.91 c 0 0.555 0.031 1.039 0.066 1.078 c 0.129 0.137 0.336 0.074 0.461 -0.141" fill="#e0e201"/><path d="m 11.625 19.05 c -0.031 -0.09 -0.168 -0.16 -0.297 -0.16 c -0.133 0 -0.32 -0.098 -0.422 -0.219 c -0.098 -0.117 -0.281 -0.215 -0.402 -0.215 c -0.117 0 -0.301 -0.098 -0.398 -0.215 c -0.102 -0.117 -0.281 -0.215 -0.402 -0.215 c -0.121 0 -0.301 -0.098 -0.402 -0.215 c -0.102 -0.121 -0.281 -0.215 -0.402 -0.215 c -0.121 0 -0.301 -0.098 -0.402 -0.219 c -0.098 -0.117 -0.277 -0.215 -0.398 -0.215 c -0.121 0 -0.301 -0.098 -0.402 -0.215 c -0.102 -0.117 -0.281 -0.215 -0.402 -0.215 c -0.121 0 -0.301 -0.098 -0.402 -0.215 c -0.098 -0.121 -0.281 -0.219 -0.402 -0.219 c -0.121 0 -0.301 -0.094 -0.398 -0.215 c -0.102 -0.117 -0.246 -0.215 -0.32 -0.215 c -0.109 0 -0.133 -0.641 -0.133 -3.504 c 0 -2.863 0.023 -3.5 0.133 -3.5 c 0.074 0 0.219 -0.098 0.32 -0.219 c 0.098 -0.117 0.277 -0.215 0.398 -0.215 c 0.121 0 0.301 -0.098 0.402 -0.215 c 0.102 -0.117 0.281 -0.215 0.402 -0.215 c 0.121 0 0.301 -0.098 0.402 -0.215 c 0.098 -0.121 0.281 -0.219 0.402 -0.219 c 0.121 0 0.301 -0.094 0.398 -0.215 c 0.102 -0.117 0.281 -0.215 0.402 -0.215 c 0.121 0 0.301 -0.098 0.402 -0.215 c 0.102 -0.117 0.281 -0.215 0.402 -0.215 c 0.121 0 0.301 -0.098 0.402 -0.215 c 0.098 -0.121 0.281 -0.219 0.398 -0.219 c 0.121 0 0.305 -0.098 0.402 -0.215 c 0.102 -0.117 0.293 -0.215 0.43 -0.215 c 0.16 0 0.262 -0.074 0.297 -0.215 c 0.039 -0.176 0.137 -0.215 0.48 -0.215 c 0.344 0 0.438 0.039 0.48 0.215 c 0.035 0.141 0.137 0.215 0.297 0.215 c 0.133 0 0.328 0.098 0.426 0.215 c 0.102 0.117 0.281 0.215 0.402 0.215 c 0.121 0 0.301 0.098 0.402 0.219 c 0.098 0.117 0.281 0.215 0.402 0.215 c 0.121 0 0.301 0.098 0.398 0.215 c 0.102 0.117 0.281 0.215 0.402 0.215 c 0.121 0 0.301 0.098 0.402 0.215 c 0.102 0.121 0.281 0.215 0.402 0.215 c 0.121 0 0.301 0.098 0.402 0.219 c 0.098 0.117 0.281 0.215 0.402 0.215 c 0.117 0 0.301 0.098 0.398 0.215 c 0.102 0.117 0.277 0.215 0.395 0.219 c 0.113 0.004 0.332 0.121 0.484 0.266 l 0.277 0.258 v 6.813 l -0.277 0.262 c -0.152 0.145 -0.371 0.262 -0.484 0.266 c -0.117 0 -0.293 0.098 -0.395 0.219 c -0.098 0.117 -0.281 0.215 -0.398 0.215 c -0.121 0 -0.305 0.098 -0.402 0.215 c -0.102 0.117 -0.281 0.215 -0.402 0.215 c -0.121 0 -0.301 0.098 -0.402 0.215 c -0.098 0.121 -0.281 0.219 -0.402 0.219 c -0.121 0 -0.301 0.094 -0.402 0.215 c -0.098 0.117 -0.277 0.215 -0.398 0.215 c -0.121 0 -0.301 0.098 -0.402 0.215 c -0.102 0.117 -0.281 0.215 -0.402 0.215 c -0.121 0 -0.301 0.098 -0.402 0.215 c -0.098 0.121 -0.289 0.219 -0.418 0.219 c -0.133 0 -0.266 0.07 -0.297 0.16 c -0.039 0.109 -0.199 0.16 -0.488 0.16 c -0.289 0 -0.449 -0.051 -0.488 -0.16 m -0.086 -1.914 c 0.023 -0.906 0.004 -1.063 -0.141 -1.125 c -0.109 -0.043 -0.234 0.016 -0.348 0.164 c -0.133 0.18 -0.285 0.234 -0.637 0.234 c -0.352 0 -0.488 0.051 -0.586 0.215 c -0.074 0.133 -0.234 0.215 -0.402 0.215 c -0.152 0 -0.277 0.035 -0.277 0.074 c 0 0.188 0.363 0.465 0.605 0.465 c 0.148 0 0.352 0.098 0.449 0.219 c 0.102 0.117 0.289 0.215 0.418 0.215 c 0.129 0 0.293 0.098 0.359 0.219 c 0.074 0.125 0.211 0.207 0.328 0.188 c 0.184 -0.027 0.203 -0.125 0.23 -1.082 m -2.691 -0.887 c 0.07 -0.09 0.234 -0.164 0.363 -0.164 c 0.133 0 0.297 -0.098 0.363 -0.215 c 0.098 -0.164 0.234 -0.215 0.586 -0.215 c 0.352 0 0.512 -0.059 0.68 -0.25 l 0.219 -0.25 l -0.352 -0.363 c -0.195 -0.199 -0.352 -0.469 -0.352 -0.59 c 0 -0.125 -0.18 -0.418 -0.402 -0.648 c -0.238 -0.25 -0.402 -0.523 -0.402 -0.668 c 0 -0.137 -0.09 -0.309 -0.199 -0.383 c -0.125 -0.082 -0.203 -0.25 -0.203 -0.434 c 0 -0.402 -0.273 -0.512 -0.508 -0.207 c -0.098 0.133 -0.289 0.234 -0.434 0.234 c -0.152 0 -0.313 0.09 -0.387 0.215 c -0.07 0.125 -0.234 0.219 -0.383 0.219 c -0.145 0 -0.359 0.113 -0.48 0.25 c -0.199 0.227 -0.207 0.27 -0.07 0.391 c 0.086 0.078 0.156 0.254 0.156 0.395 c 0 0.141 0.09 0.316 0.199 0.391 c 0.117 0.078 0.203 0.25 0.203 0.41 c 0 0.18 0.137 0.422 0.398 0.695 c 0.223 0.23 0.402 0.512 0.402 0.617 c 0 0.219 0.281 0.73 0.402 0.73 c 0.043 0 0.133 -0.074 0.199 -0.16 m -1.336 -0.332 c 0.039 -0.109 -0.086 -0.332 -0.355 -0.625 c -0.23 -0.25 -0.414 -0.555 -0.414 -0.676 c 0 -0.121 -0.09 -0.309 -0.195 -0.41 c -0.109 -0.105 -0.215 -0.293 -0.242 -0.422 c -0.023 -0.129 -0.035 0.23 -0.027 0.793 l 0.012 1.023 l 0.281 0.035 c 0.152 0.02 0.332 0.129 0.398 0.242 c 0.148 0.25 0.457 0.273 0.543 0.039 m 4 -3.246 c -0.027 -0.078 -0.156 -0.141 -0.289 -0.141 c -0.129 0 -0.32 -0.098 -0.418 -0.219 c -0.102 -0.117 -0.262 -0.215 -0.355 -0.215 c -0.098 0 -0.23 -0.07 -0.297 -0.16 c -0.07 -0.09 -0.168 -0.164 -0.215 -0.164 c -0.16 0 -0.094 0.289 0.113 0.488 c 0.109 0.105 0.199 0.297 0.199 0.426 c 0 0.125 0.18 0.418 0.402 0.652 c 0.223 0.23 0.402 0.516 0.402 0.633 c 0 0.117 0.102 0.332 0.227 0.473 l 0.227 0.258 l 0.027 -0.941 c 0.016 -0.52 0.008 -1.01 -0.023 -1.09 m -4.75 -0.68 c 0.074 -0.129 0.234 -0.219 0.395 -0.219 c 0.152 0 0.332 -0.086 0.406 -0.203 c 0.074 -0.113 0.27 -0.223 0.434 -0.242 c 0.398 -0.051 0.426 -0.453 0.031 -0.504 c -0.145 -0.016 -0.344 -0.125 -0.441 -0.242 c -0.098 -0.113 -0.27 -0.207 -0.383 -0.207 c -0.109 0 -0.305 -0.105 -0.43 -0.23 c -0.418 -0.422 -0.539 -0.219 -0.539 0.91 c 0 0.555 0.031 1.039 0.066 1.078 c 0.129 0.137 0.336 0.074 0.461 -0.141 m 6.129 -0.324 c 0.137 -0.117 0.32 -0.215 0.398 -0.215 c 0.082 0 0.262 -0.098 0.402 -0.215 c 0.141 -0.121 0.352 -0.219 0.465 -0.219 c 0.121 0 0.211 -0.066 0.211 -0.16 c 0 -0.141 -0.316 -0.16 -2.258 -0.16 c -1.941 0 -2.262 0.02 -2.262 0.16 c 0 0.094 0.094 0.16 0.211 0.16 c 0.117 0 0.324 0.098 0.465 0.219 c 0.141 0.117 0.324 0.215 0.402 0.215 c 0.082 0 0.262 0.098 0.402 0.215 c 0.18 0.152 0.406 0.215 0.781 0.215 c 0.371 0 0.598 -0.063 0.781 -0.215 m -3.703 -1.68 c 0.078 -0.223 0.078 -1.918 0 -2.137 c -0.086 -0.238 -0.477 -0.215 -0.695 0.043 c -0.098 0.117 -0.277 0.215 -0.398 0.215 c -0.121 0 -0.301 0.098 -0.402 0.215 c -0.102 0.121 -0.273 0.219 -0.387 0.219 c -0.234 0 -0.668 0.398 -0.668 0.609 c 0 0.078 0.094 0.145 0.211 0.145 c 0.113 0 0.324 0.098 0.465 0.215 c 0.141 0.117 0.32 0.215 0.402 0.215 c 0.078 0 0.262 0.098 0.398 0.215 c 0.316 0.27 0.984 0.297 1.074 0.047 m 5.16 0.039 c 0.125 -0.133 0.172 -1.859 0.059 -2.176 c -0.051 -0.148 -0.352 -0.172 -2.297 -0.172 c -1.949 0 -2.246 0.023 -2.301 0.172 c -0.113 0.316 -0.066 2.043 0.063 2.176 c 0.168 0.184 4.305 0.184 4.477 0 m 1.754 -0.086 c 0.141 -0.117 0.32 -0.215 0.402 -0.215 c 0.082 0 0.262 -0.098 0.402 -0.215 c 0.141 -0.117 0.348 -0.215 0.465 -0.215 c 0.113 0 0.211 -0.059 0.211 -0.129 c 0 -0.219 -0.426 -0.625 -0.656 -0.625 c -0.121 0 -0.301 -0.098 -0.398 -0.219 c -0.102 -0.117 -0.281 -0.215 -0.402 -0.215 c -0.121 0 -0.301 -0.098 -0.402 -0.215 c -0.219 -0.258 -0.605 -0.281 -0.691 -0.043 c -0.035 0.094 -0.063 0.574 -0.063 1.066 c 0 0.496 0.027 0.977 0.063 1.07 c 0.09 0.25 0.754 0.223 1.07 -0.047 m -2.137 -2.961 c 0 -0.098 -0.094 -0.164 -0.234 -0.164 c -0.129 0 -0.316 -0.098 -0.418 -0.215 c -0.098 -0.117 -0.281 -0.215 -0.402 -0.215 c -0.121 0 -0.301 -0.098 -0.398 -0.215 c -0.234 -0.277 -0.574 -0.277 -0.805 0 c -0.102 0.117 -0.281 0.215 -0.402 0.215 c -0.121 0 -0.301 0.098 -0.402 0.215 c -0.098 0.117 -0.285 0.215 -0.414 0.215 c -0.145 0 -0.238 0.066 -0.238 0.164 c 0 0.137 0.273 0.16 1.859 0.16 c 1.582 0 1.855 -0.023 1.855 -0.16" fill="#e06060"/><path d="m 11.625 19.05 c -0.031 -0.09 -0.168 -0.16 -0.297 -0.16 c -0.133 0 -0.32 -0.098 -0.422 -0.219 c -0.098 -0.117 -0.281 -0.215 -0.402 -0.215 c -0.117 0 -0.301 -0.098 -0.398 -0.215 c -0.102 -0.117 -0.281 -0.215 -0.402 -0.215 c -0.121 0 -0.301 -0.098 -0.402 -0.215 c -0.102 -0.121 -0.281 -0.215 -0.402 -0.215 c -0.121 0 -0.301 -0.098 -0.402 -0.219 c -0.098 -0.117 -0.277 -0.215 -0.398 -0.215 c -0.121 0 -0.301 -0.098 -0.402 -0.215 c -0.102 -0.117 -0.281 -0.215 -0.402 -0.215 c -0.121 0 -0.301 -0.098 -0.402 -0.215 c -0.098 -0.121 -0.281 -0.219 -0.402 -0.219 c -0.121 0 -0.301 -0.094 -0.398 -0.215 c -0.102 -0.117 -0.246 -0.215 -0.32 -0.215 c -0.109 0 -0.133 -0.641 -0.133 -3.504 c 0 -2.863 0.023 -3.5 0.133 -3.5 c 0.074 0 0.219 -0.098 0.32 -0.219 c 0.098 -0.117 0.277 -0.215 0.398 -0.215 c 0.121 0 0.301 -0.098 0.402 -0.215 c 0.102 -0.117 0.281 -0.215 0.402 -0.215 c 0.121 0 0.301 -0.098 0.402 -0.215 c 0.098 -0.121 0.281 -0.219 0.402 -0.219 c 0.121 0 0.301 -0.094 0.398 -0.215 c 0.102 -0.117 0.281 -0.215 0.402 -0.215 c 0.121 0 0.301 -0.098 0.402 -0.215 c 0.102 -0.117 0.281 -0.215 0.402 -0.215 c 0.121 0 0.301 -0.098 0.402 -0.215 c 0.098 -0.121 0.281 -0.219 0.398 -0.219 c 0.121 0 0.305 -0.098 0.402 -0.215 c 0.102 -0.117 0.293 -0.215 0.43 -0.215 c 0.16 0 0.262 -0.074 0.297 -0.215 c 0.039 -0.176 0.137 -0.215 0.48 -0.215 c 0.344 0 0.438 0.039 0.48 0.215 c 0.035 0.141 0.137 0.215 0.297 0.215 c 0.133 0 0.328 0.098 0.426 0.215 c 0.102 0.117 0.281 0.215 0.402 0.215 c 0.121 0 0.301 0.098 0.402 0.219 c 0.098 0.117 0.281 0.215 0.402 0.215 c 0.121 0 0.301 0.098 0.398 0.215 c 0.102 0.117 0.281 0.215 0.402 0.215 c 0.121 0 0.301 0.098 0.402 0.215 c 0.102 0.121 0.281 0.215 0.402 0.215 c 0.121 0 0.301 0.098 0.402 0.219 c 0.098 0.117 0.281 0.215 0.402 0.215 c 0.117 0 0.301 0.098 0.398 0.215 c 0.102 0.117 0.277 0.215 0.395 0.219 c 0.113 0.004 0.332 0.121 0.484 0.266 l 0.277 0.258 v 6.813 l -0.277 0.262 c -0.152 0.145 -0.371 0.262 -0.484 0.266 c -0.117 0 -0.293 0.098 -0.395 0.219 c -0.098 0.117 -0.281 0.215 -0.398 0.215 c -0.121 0 -0.305 0.098 -0.402 0.215 c -0.102 0.117 -0.281 0.215 -0.402 0.215 c -0.121 0 -0.301 0.098 -0.402 0.215 c -0.098 0.121 -0.281 0.219 -0.402 0.219 c -0.121 0 -0.301 0.094 -0.402 0.215 c -0.098 0.117 -0.277 0.215 -0.398 0.215 c -0.121 0 -0.301 0.098 -0.402 0.215 c -0.102 0.117 -0.281 0.215 -0.402 0.215 c -0.121 0 -0.301 0.098 -0.402 0.215 c -0.098 0.121 -0.289 0.219 -0.418 0.219 c -0.133 0 -0.266 0.07 -0.297 0.16 c -0.039 0.109 -0.199 0.16 -0.488 0.16 c -0.289 0 -0.449 -0.051 -0.488 -0.16 m 1.691 -0.914 c 0.102 -0.121 0.281 -0.219 0.402 -0.219 c 0.121 0 0.301 -0.094 0.402 -0.215 c 0.098 -0.117 0.273 -0.215 0.387 -0.215 c 0.23 0 0.668 -0.398 0.668 -0.613 c 0 -0.082 -0.117 -0.141 -0.281 -0.141 c -0.152 0 -0.355 -0.098 -0.449 -0.215 c -0.125 -0.156 -0.281 -0.211 -0.578 -0.199 c -0.301 0.012 -0.457 -0.043 -0.613 -0.223 c -0.117 -0.137 -0.297 -0.227 -0.422 -0.207 c -0.203 0.031 -0.219 0.102 -0.246 1.105 c -0.016 0.59 -0.008 1.133 0.02 1.211 c 0.078 0.215 0.504 0.172 0.711 -0.07 m -1.777 -1 c 0.023 -0.906 0.004 -1.063 -0.141 -1.125 c -0.109 -0.043 -0.234 0.016 -0.348 0.164 c -0.133 0.18 -0.285 0.234 -0.637 0.234 c -0.352 0 -0.488 0.051 -0.586 0.215 c -0.074 0.133 -0.234 0.215 -0.402 0.215 c -0.152 0 -0.277 0.035 -0.277 0.074 c 0 0.188 0.363 0.465 0.605 0.465 c 0.148 0 0.352 0.098 0.449 0.219 c 0.102 0.117 0.289 0.215 0.418 0.215 c 0.129 0 0.293 0.098 0.359 0.219 c 0.074 0.125 0.211 0.207 0.328 0.188 c 0.184 -0.027 0.203 -0.125 0.23 -1.082 m 4.277 -0.844 c 0.145 -0.18 0.262 -0.426 0.262 -0.543 c 0 -0.113 0.18 -0.414 0.402 -0.66 c 0.219 -0.246 0.402 -0.547 0.402 -0.672 c 0 -0.121 0.09 -0.305 0.199 -0.406 c 0.109 -0.102 0.199 -0.301 0.199 -0.441 c 0 -0.156 0.086 -0.293 0.227 -0.359 l 0.223 -0.109 l -0.316 -0.34 c -0.176 -0.188 -0.422 -0.34 -0.555 -0.34 c -0.129 0 -0.313 -0.098 -0.406 -0.215 c -0.094 -0.117 -0.285 -0.215 -0.422 -0.215 c -0.145 0 -0.293 -0.09 -0.355 -0.215 c -0.215 -0.434 -0.703 -0.223 -0.703 0.305 c 0 0.102 -0.09 0.27 -0.199 0.371 c -0.109 0.102 -0.203 0.281 -0.203 0.402 c 0 0.121 -0.18 0.426 -0.398 0.672 c -0.223 0.246 -0.402 0.547 -0.402 0.668 c 0 0.121 -0.16 0.363 -0.352 0.535 c -0.195 0.176 -0.352 0.375 -0.352 0.453 c 0 0.266 0.512 0.578 0.918 0.563 c 0.285 -0.012 0.445 0.047 0.594 0.215 c 0.113 0.129 0.313 0.234 0.441 0.234 c 0.152 0 0.266 0.078 0.305 0.215 c 0.09 0.297 0.191 0.27 0.492 -0.117 m -6.969 -0.043 c 0.07 -0.09 0.234 -0.164 0.363 -0.164 c 0.133 0 0.297 -0.098 0.363 -0.215 c 0.098 -0.164 0.234 -0.215 0.586 -0.215 c 0.352 0 0.512 -0.059 0.68 -0.25 l 0.219 -0.25 l -0.352 -0.363 c -0.195 -0.199 -0.352 -0.469 -0.352 -0.59 c 0 -0.125 -0.18 -0.418 -0.402 -0.648 c -0.238 -0.25 -0.402 -0.523 -0.402 -0.668 c 0 -0.137 -0.09 -0.309 -0.199 -0.383 c -0.125 -0.082 -0.199 -0.25 -0.199 -0.434 c 0 -0.402 -0.277 -0.512 -0.512 -0.207 c -0.098 0.133 -0.289 0.234 -0.434 0.234 c -0.152 0 -0.313 0.09 -0.387 0.215 c -0.07 0.129 -0.234 0.219 -0.383 0.219 c -0.145 0 -0.359 0.113 -0.48 0.25 c -0.199 0.227 -0.207 0.27 -0.07 0.391 c 0.086 0.078 0.156 0.254 0.156 0.395 c 0 0.141 0.09 0.316 0.199 0.391 c 0.117 0.078 0.203 0.25 0.203 0.41 c 0 0.18 0.137 0.422 0.398 0.695 c 0.223 0.23 0.402 0.512 0.402 0.617 c 0 0.219 0.281 0.73 0.402 0.73 c 0.043 0 0.133 -0.074 0.199 -0.16 m 8.48 -0.266 c 0.098 -0.113 0.297 -0.223 0.441 -0.242 l 0.266 -0.031 l 0.031 -1.16 c 0.023 -0.984 0.004 -1.16 -0.129 -1.16 c -0.086 0 -0.152 0.098 -0.152 0.227 c 0 0.125 -0.09 0.348 -0.199 0.5 c -0.113 0.152 -0.203 0.387 -0.203 0.523 c 0 0.137 -0.063 0.289 -0.137 0.336 c -0.32 0.199 -0.68 0.785 -0.617 1 c 0.086 0.281 0.465 0.285 0.699 0.008 m -9.816 -0.066 c 0.039 -0.109 -0.086 -0.332 -0.355 -0.625 c -0.227 -0.25 -0.414 -0.555 -0.414 -0.676 c 0 -0.121 -0.09 -0.309 -0.195 -0.41 c -0.109 -0.105 -0.215 -0.293 -0.238 -0.422 c -0.027 -0.129 -0.039 0.23 -0.031 0.793 l 0.012 1.023 l 0.281 0.035 c 0.152 0.02 0.332 0.129 0.398 0.242 c 0.148 0.25 0.457 0.273 0.543 0.039 m 5.527 -1.41 c 0.125 -0.156 0.227 -0.379 0.227 -0.488 c 0 -0.113 0.184 -0.406 0.402 -0.652 c 0.227 -0.254 0.402 -0.555 0.402 -0.695 c 0 -0.133 0.09 -0.293 0.199 -0.359 c 0.117 -0.066 0.203 -0.223 0.203 -0.379 c 0 -0.301 -0.211 -0.355 -0.402 -0.105 c -0.07 0.09 -0.203 0.164 -0.301 0.164 c -0.094 0 -0.289 0.094 -0.43 0.215 c -0.141 0.117 -0.316 0.215 -0.395 0.215 c -0.305 0 -0.383 0.258 -0.383 1.316 c 0 1.152 0.074 1.27 0.477 0.77 m -1.523 -1.836 c -0.027 -0.078 -0.156 -0.141 -0.289 -0.141 c -0.129 0 -0.32 -0.098 -0.418 -0.219 c -0.102 -0.117 -0.262 -0.215 -0.355 -0.215 c -0.098 0 -0.23 -0.07 -0.297 -0.16 c -0.07 -0.09 -0.168 -0.164 -0.215 -0.164 c -0.16 0 -0.094 0.289 0.113 0.488 c 0.109 0.105 0.199 0.297 0.199 0.426 c 0 0.125 0.18 0.418 0.402 0.652 c 0.223 0.23 0.402 0.516 0.402 0.633 c 0 0.117 0.102 0.332 0.227 0.473 l 0.223 0.258 l 0.031 -0.941 c 0.016 -0.52 0.008 -1.01 -0.023 -1.09 m 6.52 -1.598 c 0 -1.07 -0.016 -1.188 -0.188 -1.223 c -0.102 -0.02 -0.316 0.063 -0.473 0.188 c -0.156 0.125 -0.348 0.227 -0.426 0.227 c -0.078 0 -0.25 0.09 -0.379 0.199 c -0.133 0.109 -0.367 0.23 -0.516 0.273 c -0.207 0.051 -0.277 0.137 -0.277 0.328 c 0 0.254 0.164 0.387 0.488 0.387 c 0.094 0 0.246 0.098 0.34 0.215 c 0.098 0.117 0.277 0.215 0.402 0.215 c 0.129 0 0.309 0.102 0.406 0.223 c 0.105 0.129 0.27 0.207 0.398 0.188 c 0.215 -0.031 0.223 -0.078 0.223 -1.219 m -11.273 0.918 c 0.078 -0.129 0.234 -0.219 0.398 -0.219 c 0.152 0 0.332 -0.086 0.406 -0.203 c 0.074 -0.113 0.27 -0.223 0.434 -0.242 c 0.398 -0.051 0.426 -0.453 0.031 -0.504 c -0.148 -0.016 -0.348 -0.125 -0.441 -0.242 c -0.098 -0.113 -0.27 -0.207 -0.383 -0.207 c -0.109 0 -0.305 -0.105 -0.43 -0.23 c -0.418 -0.422 -0.539 -0.219 -0.539 0.91 c 0 0.555 0.031 1.039 0.066 1.078 c 0.129 0.137 0.332 0.074 0.457 -0.141 m 6.129 -0.324 c 0.141 -0.117 0.324 -0.215 0.402 -0.215 c 0.082 0 0.262 -0.098 0.402 -0.215 c 0.141 -0.121 0.352 -0.219 0.465 -0.219 c 0.121 0 0.211 -0.066 0.211 -0.16 c 0 -0.141 -0.316 -0.16 -2.258 -0.16 c -1.941 0 -2.262 0.02 -2.262 0.16 c 0 0.094 0.09 0.16 0.211 0.16 c 0.117 0 0.324 0.098 0.465 0.219 c 0.141 0.117 0.32 0.215 0.402 0.215 c 0.082 0 0.262 0.098 0.402 0.215 c 0.18 0.152 0.406 0.215 0.781 0.215 c 0.371 0 0.598 -0.063 0.777 -0.215 m -3.703 -1.68 c 0.082 -0.223 0.082 -1.918 0 -2.137 c -0.082 -0.238 -0.473 -0.215 -0.691 0.043 c -0.098 0.117 -0.281 0.215 -0.402 0.215 c -0.117 0 -0.301 0.098 -0.398 0.215 c -0.102 0.121 -0.273 0.219 -0.387 0.219 c -0.234 0 -0.668 0.398 -0.668 0.609 c 0 0.078 0.094 0.145 0.211 0.145 c 0.113 0 0.324 0.098 0.465 0.215 c 0.141 0.117 0.32 0.215 0.402 0.215 c 0.078 0 0.258 0.098 0.398 0.215 c 0.316 0.27 0.984 0.297 1.07 0.047 m 5.164 0.039 c 0.125 -0.133 0.172 -1.859 0.059 -2.176 c -0.051 -0.148 -0.352 -0.172 -2.297 -0.172 c -1.949 0 -2.246 0.023 -2.301 0.172 c -0.113 0.316 -0.066 2.043 0.063 2.176 c 0.168 0.184 4.305 0.184 4.477 0 m 1.754 -0.086 c 0.141 -0.117 0.32 -0.215 0.402 -0.215 c 0.078 0 0.262 -0.098 0.402 -0.215 c 0.141 -0.117 0.348 -0.215 0.465 -0.215 c 0.113 0 0.207 -0.059 0.207 -0.129 c 0 -0.219 -0.426 -0.625 -0.652 -0.625 c -0.121 0 -0.301 -0.098 -0.398 -0.219 c -0.102 -0.117 -0.281 -0.215 -0.402 -0.215 c -0.121 0 -0.301 -0.098 -0.402 -0.215 c -0.219 -0.258 -0.609 -0.281 -0.691 -0.043 c -0.035 0.094 -0.063 0.574 -0.063 1.066 c 0 0.496 0.027 0.977 0.063 1.07 c 0.09 0.25 0.754 0.223 1.07 -0.047 m -2.137 -2.961 c 0 -0.098 -0.094 -0.164 -0.234 -0.164 c -0.129 0 -0.316 -0.098 -0.418 -0.215 c -0.098 -0.117 -0.281 -0.215 -0.402 -0.215 c -0.121 0 -0.301 -0.098 -0.402 -0.215 c -0.23 -0.277 -0.57 -0.277 -0.801 0 c -0.102 0.117 -0.281 0.215 -0.402 0.215 c -0.121 0 -0.301 0.098 -0.402 0.215 c -0.098 0.117 -0.285 0.215 -0.418 0.215 c -0.141 0 -0.234 0.066 -0.234 0.164 c 0 0.137 0.273 0.16 1.859 0.16 c 1.582 0 1.855 -0.023 1.855 -0.16" fill="#6262b3"/><path d="m 11.688 19.01 c -0.066 -0.113 -0.242 -0.223 -0.391 -0.242 c -0.383 -0.047 -0.438 -0.305 -0.066 -0.305 c 0.16 0 0.344 -0.059 0.41 -0.129 c 0.164 -0.176 0.164 -2.258 0 -2.434 c -0.188 -0.203 -0.449 -0.156 -0.742 0.137 c -0.199 0.199 -0.383 0.27 -0.688 0.27 c -0.289 0 -0.465 0.066 -0.586 0.219 c -0.188 0.234 -0.344 0.266 -0.566 0.113 c -0.199 -0.133 0.031 -0.438 0.332 -0.438 c 0.121 0 0.293 -0.098 0.391 -0.215 c 0.121 -0.152 0.297 -0.219 0.598 -0.219 c 0.383 0 0.48 -0.059 0.906 -0.531 l 0.477 -0.531 v -1.023 c 0 -1.055 -0.105 -1.363 -0.469 -1.363 c -0.086 0 -0.27 -0.094 -0.406 -0.215 c -0.141 -0.117 -0.336 -0.215 -0.434 -0.215 c -0.094 0 -0.23 -0.074 -0.297 -0.16 c -0.164 -0.211 -0.367 -0.207 -0.441 0.008 c -0.098 0.27 -0.078 0.34 0.188 0.648 c 0.141 0.16 0.254 0.375 0.254 0.48 c 0 0.105 0.18 0.395 0.398 0.641 c 0.23 0.258 0.402 0.555 0.402 0.695 c 0 0.137 0.07 0.309 0.152 0.383 c 0.172 0.152 0.199 0.324 0.051 0.324 c -0.164 0 -0.703 -0.668 -0.703 -0.871 c 0 -0.105 -0.184 -0.395 -0.402 -0.641 c -0.223 -0.246 -0.402 -0.555 -0.402 -0.684 c 0 -0.133 -0.09 -0.32 -0.199 -0.422 c -0.113 -0.102 -0.203 -0.301 -0.203 -0.445 c 0 -0.262 -0.164 -0.387 -0.508 -0.387 c -0.137 0 -0.195 -0.078 -0.195 -0.266 c 0 -0.293 -0.238 -0.598 -0.469 -0.598 c -0.082 0 -0.266 -0.098 -0.406 -0.215 c -0.141 -0.121 -0.32 -0.219 -0.402 -0.219 c -0.078 0 -0.262 -0.094 -0.402 -0.215 c -0.289 -0.246 -0.531 -0.273 -0.707 -0.086 c -0.164 0.176 -0.164 2.258 0 2.438 c 0.188 0.203 0.445 0.152 0.742 -0.141 c 0.148 -0.148 0.367 -0.27 0.484 -0.27 c 0.117 0 0.289 -0.098 0.387 -0.215 c 0.227 -0.285 0.676 -0.293 0.676 -0.012 c 0 0.207 -0.184 0.332 -0.488 0.332 c -0.094 0 -0.25 0.098 -0.344 0.219 c -0.094 0.117 -0.273 0.215 -0.398 0.215 c -0.141 0 -0.41 0.203 -0.703 0.531 l -0.477 0.531 v 1.141 c 0 1.066 -0.012 1.137 -0.203 1.137 c -0.195 0 -0.199 -0.07 -0.199 -3.395 c 0 -2.77 0.023 -3.395 0.137 -3.395 c 0.074 0 0.215 -0.098 0.316 -0.215 c 0.098 -0.121 0.281 -0.215 0.402 -0.215 c 0.117 0 0.301 -0.098 0.398 -0.219 c 0.102 -0.117 0.281 -0.215 0.402 -0.215 c 0.121 0 0.301 -0.098 0.402 -0.215 c 0.102 -0.117 0.281 -0.215 0.402 -0.215 c 0.121 0 0.301 -0.098 0.402 -0.215 c 0.098 -0.121 0.277 -0.215 0.398 -0.215 c 0.121 0 0.301 -0.098 0.402 -0.219 c 0.102 -0.117 0.281 -0.215 0.402 -0.215 c 0.121 0 0.301 -0.098 0.402 -0.215 c 0.098 -0.117 0.281 -0.215 0.402 -0.215 c 0.121 0 0.301 -0.098 0.398 -0.215 c 0.102 -0.121 0.262 -0.219 0.359 -0.219 c 0.313 0 0.496 -0.125 0.496 -0.332 c 0 -0.164 0.074 -0.207 0.352 -0.207 c 0.277 0 0.352 0.043 0.352 0.207 c 0 0.207 0.184 0.332 0.492 0.332 c 0.098 0 0.262 0.098 0.359 0.219 c 0.102 0.117 0.281 0.215 0.402 0.215 c 0.121 0 0.301 0.098 0.402 0.215 c 0.098 0.117 0.281 0.215 0.402 0.215 c 0.121 0 0.301 0.098 0.402 0.215 c 0.098 0.121 0.277 0.219 0.398 0.219 c 0.121 0 0.301 0.094 0.402 0.215 c 0.102 0.117 0.281 0.215 0.402 0.215 c 0.121 0 0.301 0.098 0.402 0.215 c 0.098 0.117 0.281 0.215 0.402 0.215 c 0.121 0 0.301 0.098 0.398 0.215 c 0.102 0.121 0.277 0.219 0.395 0.223 c 0.113 0 0.332 0.117 0.484 0.262 l 0.277 0.262 v 3.348 c 0 2.867 -0.02 3.344 -0.148 3.344 c -0.078 0 -0.195 0.098 -0.254 0.219 c -0.07 0.141 -0.211 0.215 -0.402 0.215 c -0.191 0 -0.332 0.074 -0.398 0.215 c -0.063 0.121 -0.211 0.215 -0.34 0.215 c -0.129 0 -0.316 0.098 -0.414 0.215 c -0.102 0.121 -0.281 0.219 -0.402 0.219 c -0.121 0 -0.301 0.094 -0.402 0.215 c -0.098 0.117 -0.289 0.215 -0.418 0.215 c -0.129 0 -0.313 0.098 -0.406 0.215 c -0.098 0.121 -0.297 0.215 -0.449 0.215 c -0.172 0 -0.316 0.082 -0.383 0.219 c -0.07 0.137 -0.211 0.215 -0.402 0.215 c -0.191 0 -0.332 0.074 -0.402 0.215 c -0.063 0.125 -0.207 0.215 -0.352 0.215 c -0.137 0 -0.305 0.094 -0.371 0.215 c -0.168 0.285 -0.691 0.293 -0.855 0.008 m 1.629 -0.867 c 0.102 -0.121 0.281 -0.219 0.402 -0.219 c 0.121 0 0.301 -0.094 0.402 -0.215 c 0.098 -0.117 0.273 -0.215 0.387 -0.215 c 0.23 0 0.668 -0.398 0.668 -0.613 c 0 -0.082 -0.117 -0.141 -0.281 -0.141 c -0.152 0 -0.355 -0.098 -0.449 -0.215 c -0.125 -0.156 -0.281 -0.211 -0.578 -0.199 c -0.301 0.012 -0.457 -0.043 -0.613 -0.223 c -0.117 -0.137 -0.297 -0.227 -0.422 -0.207 c -0.203 0.031 -0.219 0.102 -0.246 1.105 c -0.016 0.59 -0.008 1.133 0.023 1.211 c 0.074 0.215 0.504 0.172 0.707 -0.07 m 2.504 -1.844 c 0.141 -0.18 0.258 -0.426 0.258 -0.543 c 0 -0.117 0.18 -0.414 0.402 -0.66 c 0.219 -0.246 0.402 -0.547 0.402 -0.672 c 0 -0.121 0.09 -0.309 0.199 -0.41 c 0.109 -0.102 0.199 -0.297 0.199 -0.438 c 0 -0.16 0.086 -0.293 0.227 -0.359 l 0.223 -0.109 l -0.316 -0.34 c -0.176 -0.188 -0.422 -0.34 -0.551 -0.34 c -0.133 0 -0.316 -0.098 -0.41 -0.215 c -0.094 -0.121 -0.285 -0.215 -0.422 -0.215 c -0.145 0 -0.293 -0.09 -0.355 -0.219 c -0.215 -0.43 -0.703 -0.219 -0.703 0.309 c 0 0.102 -0.09 0.266 -0.199 0.367 c -0.109 0.102 -0.199 0.285 -0.199 0.406 c 0 0.121 -0.184 0.422 -0.402 0.672 c -0.223 0.246 -0.402 0.547 -0.402 0.668 c 0 0.121 -0.16 0.363 -0.352 0.535 c -0.195 0.176 -0.352 0.375 -0.352 0.449 c 0 0.27 0.512 0.582 0.918 0.566 c 0.285 -0.016 0.445 0.043 0.594 0.215 c 0.113 0.129 0.313 0.234 0.441 0.234 c 0.152 0 0.266 0.078 0.305 0.215 c 0.09 0.297 0.191 0.27 0.496 -0.117 m 1.508 -0.309 c 0.098 -0.113 0.297 -0.223 0.441 -0.242 l 0.266 -0.031 l 0.031 -1.16 c 0.023 -0.984 0.004 -1.16 -0.129 -1.16 c -0.086 0 -0.152 0.098 -0.152 0.227 c 0 0.125 -0.09 0.348 -0.199 0.5 c -0.113 0.152 -0.203 0.387 -0.203 0.523 c 0 0.137 -0.063 0.289 -0.137 0.336 c -0.32 0.199 -0.68 0.785 -0.617 1 c 0.086 0.281 0.465 0.285 0.699 0.008 m -4.289 -1.477 c 0.125 -0.16 0.227 -0.379 0.227 -0.488 c 0 -0.113 0.184 -0.406 0.402 -0.652 c 0.227 -0.254 0.402 -0.555 0.402 -0.695 c 0 -0.133 0.09 -0.293 0.199 -0.359 c 0.121 -0.066 0.203 -0.223 0.203 -0.379 c 0 -0.301 -0.211 -0.355 -0.402 -0.105 c -0.07 0.09 -0.203 0.164 -0.301 0.164 c -0.094 0 -0.289 0.094 -0.43 0.215 c -0.141 0.117 -0.316 0.215 -0.395 0.215 c -0.305 0 -0.383 0.258 -0.383 1.316 c 0 1.152 0.074 1.27 0.477 0.77 m 4.996 -3.434 c 0 -1.07 -0.016 -1.188 -0.188 -1.223 c -0.102 -0.02 -0.316 0.063 -0.473 0.188 c -0.156 0.125 -0.348 0.227 -0.426 0.227 c -0.078 0 -0.25 0.09 -0.379 0.199 c -0.133 0.109 -0.363 0.23 -0.516 0.273 c -0.207 0.051 -0.277 0.137 -0.277 0.328 c 0 0.254 0.164 0.387 0.488 0.387 c 0.094 0 0.246 0.094 0.344 0.215 c 0.094 0.117 0.273 0.215 0.398 0.215 c 0.129 0 0.313 0.102 0.41 0.223 c 0.102 0.129 0.266 0.207 0.398 0.188 c 0.211 -0.031 0.219 -0.078 0.219 -1.219 m -5.141 0.594 c 0.137 -0.121 0.32 -0.215 0.398 -0.215 c 0.082 0 0.262 -0.098 0.402 -0.219 c 0.141 -0.117 0.352 -0.215 0.465 -0.215 c 0.121 0 0.211 -0.07 0.211 -0.16 c 0 -0.141 -0.316 -0.16 -2.258 -0.16 c -1.941 0 -2.262 0.02 -2.262 0.16 c 0 0.09 0.094 0.16 0.211 0.16 c 0.117 0 0.324 0.098 0.465 0.215 c 0.141 0.121 0.324 0.219 0.402 0.219 c 0.082 0 0.262 0.094 0.402 0.215 c 0.18 0.152 0.406 0.215 0.781 0.215 c 0.371 0 0.598 -0.063 0.781 -0.215 m -3.703 -1.68 c 0.078 -0.223 0.078 -1.918 0 -2.137 c -0.086 -0.238 -0.477 -0.215 -0.695 0.043 c -0.098 0.117 -0.277 0.215 -0.398 0.215 c -0.121 0 -0.301 0.098 -0.402 0.215 c -0.102 0.121 -0.273 0.219 -0.387 0.219 c -0.234 0 -0.668 0.398 -0.668 0.609 c 0 0.078 0.094 0.145 0.211 0.145 c 0.113 0 0.324 0.098 0.465 0.215 c 0.141 0.117 0.32 0.215 0.402 0.215 c 0.078 0 0.262 0.098 0.398 0.215 c 0.316 0.27 0.984 0.297 1.074 0.047 m 5.16 0.039 c 0.125 -0.133 0.172 -1.859 0.059 -2.176 c -0.051 -0.148 -0.352 -0.172 -2.297 -0.172 c -1.949 0 -2.246 0.023 -2.301 0.172 c -0.113 0.316 -0.066 2.043 0.063 2.176 c 0.168 0.184 4.305 0.184 4.477 0 m 1.754 -0.086 c 0.141 -0.117 0.32 -0.215 0.402 -0.215 c 0.082 0 0.262 -0.098 0.402 -0.215 c 0.141 -0.117 0.348 -0.215 0.465 -0.215 c 0.113 0 0.211 -0.059 0.211 -0.129 c 0 -0.219 -0.426 -0.625 -0.656 -0.625 c -0.121 0 -0.301 -0.098 -0.398 -0.219 c -0.102 -0.117 -0.281 -0.215 -0.402 -0.215 c -0.121 0 -0.301 -0.098 -0.402 -0.215 c -0.219 -0.258 -0.605 -0.281 -0.691 -0.043 c -0.035 0.094 -0.063 0.574 -0.063 1.066 c 0 0.496 0.027 0.977 0.063 1.07 c 0.09 0.25 0.754 0.223 1.07 -0.047 m -2.137 -2.961 c 0 -0.098 -0.09 -0.164 -0.234 -0.164 c -0.129 0 -0.316 -0.098 -0.418 -0.215 c -0.098 -0.117 -0.281 -0.215 -0.402 -0.215 c -0.121 0 -0.301 -0.098 -0.398 -0.215 c -0.234 -0.277 -0.574 -0.277 -0.805 0 c -0.102 0.117 -0.281 0.215 -0.402 0.215 c -0.121 0 -0.301 0.098 -0.402 0.215 c -0.098 0.117 -0.285 0.215 -0.414 0.215 c -0.145 0 -0.238 0.066 -0.238 0.164 c 0 0.137 0.273 0.16 1.859 0.16 c 1.582 0 1.855 -0.023 1.855 -0.16 m -3.746 11.297 c -0.152 -0.164 -0.047 -0.262 0.25 -0.23 c 0.418 0.043 0.508 0.301 0.109 0.301 c -0.16 0 -0.324 -0.031 -0.359 -0.07 m -0.805 -0.43 c -0.152 -0.164 -0.047 -0.266 0.254 -0.234 c 0.414 0.047 0.508 0.305 0.105 0.305 c -0.16 0 -0.32 -0.031 -0.359 -0.07 m -0.918 -0.574 c -0.102 -0.121 -0.281 -0.219 -0.402 -0.219 c -0.121 0 -0.301 -0.094 -0.398 -0.207 c -0.098 -0.117 -0.293 -0.227 -0.434 -0.242 c -0.391 -0.051 -0.391 -0.285 -0.004 -0.324 c 0.289 -0.027 0.336 -0.074 0.363 -0.367 c 0.023 -0.27 -0.051 -0.426 -0.375 -0.793 c -0.234 -0.262 -0.406 -0.559 -0.406 -0.703 c 0 -0.133 -0.07 -0.305 -0.152 -0.379 c -0.156 -0.141 -0.215 -0.754 -0.07 -0.754 c 0.148 0 0.32 0.258 0.32 0.48 c 0 0.125 0.09 0.309 0.203 0.41 c 0.109 0.102 0.199 0.277 0.199 0.391 c 0 0.117 0.18 0.41 0.402 0.656 c 0.219 0.246 0.402 0.555 0.402 0.684 c 0 0.145 0.215 0.465 0.551 0.816 c 0.305 0.32 0.551 0.621 0.551 0.672 c 0 0.184 -0.574 0.09 -0.75 -0.121 m -2.301 -1.246 c -0.047 -0.137 0.004 -0.164 0.258 -0.137 c 0.422 0.043 0.508 0.305 0.102 0.305 c -0.176 0 -0.32 -0.07 -0.359 -0.168" fill="#626206"/><path d="m 11.688 19.01 c -0.066 -0.113 -0.242 -0.223 -0.391 -0.242 c -0.383 -0.047 -0.438 -0.305 -0.066 -0.305 c 0.16 0 0.344 -0.059 0.41 -0.129 c 0.164 -0.176 0.164 -2.258 0 -2.434 c -0.188 -0.203 -0.449 -0.156 -0.742 0.137 c -0.199 0.199 -0.383 0.27 -0.688 0.27 c -0.289 0 -0.465 0.066 -0.586 0.219 c -0.188 0.234 -0.344 0.266 -0.566 0.113 c -0.199 -0.133 0.031 -0.438 0.332 -0.438 c 0.121 0 0.293 -0.098 0.391 -0.215 c 0.121 -0.152 0.297 -0.219 0.598 -0.219 c 0.383 0 0.48 -0.059 0.906 -0.531 l 0.477 -0.531 v -1.023 c 0 -1.055 -0.105 -1.363 -0.469 -1.363 c -0.086 0 -0.27 -0.094 -0.406 -0.215 c -0.141 -0.117 -0.336 -0.215 -0.434 -0.215 c -0.094 0 -0.23 -0.074 -0.297 -0.16 c -0.164 -0.211 -0.367 -0.207 -0.441 0.008 c -0.098 0.27 -0.078 0.34 0.188 0.648 c 0.141 0.16 0.254 0.375 0.254 0.48 c 0 0.105 0.18 0.395 0.398 0.641 c 0.23 0.258 0.402 0.555 0.402 0.695 c 0 0.137 0.07 0.309 0.152 0.383 c 0.172 0.152 0.199 0.324 0.051 0.324 c -0.164 0 -0.703 -0.668 -0.703 -0.871 c 0 -0.105 -0.184 -0.395 -0.402 -0.641 c -0.223 -0.246 -0.402 -0.555 -0.402 -0.684 c 0 -0.133 -0.09 -0.32 -0.199 -0.422 c -0.113 -0.102 -0.203 -0.301 -0.203 -0.445 c 0 -0.262 -0.164 -0.387 -0.508 -0.387 c -0.137 0 -0.195 -0.078 -0.195 -0.266 c 0 -0.293 -0.238 -0.598 -0.469 -0.598 c -0.082 0 -0.266 -0.098 -0.406 -0.215 c -0.141 -0.121 -0.32 -0.219 -0.402 -0.219 c -0.078 0 -0.262 -0.094 -0.402 -0.215 c -0.289 -0.246 -0.531 -0.273 -0.707 -0.086 c -0.164 0.176 -0.164 2.258 0 2.438 c 0.188 0.203 0.445 0.152 0.742 -0.141 c 0.148 -0.148 0.367 -0.27 0.484 -0.27 c 0.117 0 0.289 -0.098 0.387 -0.215 c 0.227 -0.285 0.676 -0.293 0.676 -0.012 c 0 0.207 -0.184 0.332 -0.488 0.332 c -0.094 0 -0.25 0.098 -0.344 0.219 c -0.094 0.117 -0.273 0.215 -0.398 0.215 c -0.141 0 -0.41 0.203 -0.703 0.531 l -0.477 0.531 v 1.141 c 0 1.066 -0.012 1.137 -0.203 1.137 c -0.195 0 -0.199 -0.07 -0.199 -3.395 c 0 -2.77 0.023 -3.395 0.137 -3.395 c 0.074 0 0.215 -0.098 0.316 -0.215 c 0.098 -0.121 0.293 -0.215 0.43 -0.215 c 0.238 0 0.242 0.008 0.086 0.195 c -0.328 0.391 -0.164 0.773 0.332 0.773 c 0.102 0 0.234 0.066 0.297 0.152 c 0.066 0.082 0.234 0.184 0.383 0.223 c 0.145 0.039 0.375 0.164 0.512 0.277 c 0.277 0.234 0.914 0.281 1.102 0.082 c 0.168 -0.18 0.168 -2.477 0 -2.652 c -0.066 -0.07 -0.25 -0.129 -0.406 -0.129 c -0.168 0 -0.262 -0.047 -0.227 -0.109 c 0.035 -0.059 0.168 -0.105 0.293 -0.105 c 0.125 0 0.313 -0.098 0.41 -0.219 c 0.238 -0.281 0.531 -0.273 0.75 0.027 c 0.176 0.238 0.223 0.242 2.066 0.234 c 1.805 -0.012 1.895 -0.02 2.063 -0.242 c 0.219 -0.293 0.508 -0.297 0.746 -0.02 c 0.098 0.121 0.285 0.219 0.41 0.219 c 0.125 0 0.258 0.047 0.289 0.105 c 0.039 0.063 -0.059 0.109 -0.223 0.109 c -0.16 0 -0.344 0.059 -0.406 0.129 c -0.168 0.176 -0.168 2.473 0 2.652 c 0.184 0.199 0.824 0.152 1.102 -0.082 c 0.137 -0.113 0.367 -0.238 0.512 -0.277 c 0.145 -0.039 0.316 -0.141 0.383 -0.223 c 0.063 -0.086 0.195 -0.152 0.297 -0.152 c 0.496 0 0.66 -0.383 0.332 -0.773 c -0.16 -0.184 -0.152 -0.195 0.074 -0.191 c 0.133 0 0.363 0.117 0.516 0.262 l 0.277 0.262 v 3.348 c 0 2.867 -0.02 3.344 -0.148 3.344 c -0.078 0 -0.195 0.098 -0.254 0.219 c -0.07 0.141 -0.211 0.215 -0.402 0.215 c -0.191 0 -0.332 0.074 -0.398 0.215 c -0.063 0.121 -0.211 0.215 -0.34 0.215 c -0.129 0 -0.316 0.098 -0.414 0.215 c -0.102 0.121 -0.281 0.219 -0.402 0.219 c -0.121 0 -0.301 0.094 -0.402 0.215 c -0.098 0.117 -0.289 0.215 -0.418 0.215 c -0.129 0 -0.313 0.098 -0.406 0.215 c -0.098 0.121 -0.297 0.215 -0.449 0.215 c -0.172 0 -0.316 0.082 -0.383 0.219 c -0.07 0.137 -0.211 0.215 -0.402 0.215 c -0.191 0 -0.332 0.074 -0.402 0.215 c -0.063 0.125 -0.207 0.215 -0.352 0.215 c -0.137 0 -0.305 0.094 -0.371 0.215 c -0.168 0.285 -0.691 0.293 -0.855 0.008 m 1.629 -0.867 c 0.102 -0.121 0.281 -0.219 0.402 -0.219 c 0.121 0 0.301 -0.094 0.402 -0.215 c 0.098 -0.117 0.273 -0.215 0.387 -0.215 c 0.23 0 0.668 -0.398 0.668 -0.613 c 0 -0.082 -0.117 -0.141 -0.281 -0.141 c -0.152 0 -0.355 -0.098 -0.449 -0.215 c -0.125 -0.156 -0.281 -0.211 -0.578 -0.199 c -0.301 0.012 -0.457 -0.043 -0.613 -0.223 c -0.117 -0.137 -0.297 -0.227 -0.422 -0.207 c -0.203 0.031 -0.219 0.102 -0.246 1.105 c -0.016 0.59 -0.008 1.133 0.023 1.211 c 0.074 0.215 0.504 0.172 0.707 -0.07 m 2.504 -1.844 c 0.141 -0.18 0.258 -0.426 0.258 -0.543 c 0 -0.117 0.18 -0.414 0.402 -0.66 c 0.219 -0.246 0.402 -0.547 0.402 -0.672 c 0 -0.121 0.09 -0.309 0.199 -0.41 c 0.109 -0.102 0.199 -0.297 0.199 -0.438 c 0 -0.16 0.086 -0.293 0.227 -0.359 l 0.223 -0.109 l -0.316 -0.34 c -0.176 -0.188 -0.422 -0.34 -0.551 -0.34 c -0.133 0 -0.316 -0.098 -0.41 -0.215 c -0.094 -0.121 -0.285 -0.215 -0.422 -0.215 c -0.145 0 -0.293 -0.09 -0.355 -0.219 c -0.215 -0.43 -0.703 -0.219 -0.703 0.309 c 0 0.102 -0.09 0.266 -0.199 0.367 c -0.109 0.102 -0.199 0.285 -0.199 0.406 c 0 0.121 -0.184 0.422 -0.402 0.672 c -0.223 0.246 -0.402 0.547 -0.402 0.668 c 0 0.121 -0.16 0.363 -0.352 0.535 c -0.195 0.176 -0.352 0.375 -0.352 0.449 c 0 0.27 0.512 0.582 0.918 0.566 c 0.285 -0.016 0.445 0.043 0.594 0.215 c 0.113 0.129 0.313 0.234 0.441 0.234 c 0.152 0 0.266 0.078 0.305 0.215 c 0.09 0.297 0.191 0.27 0.496 -0.117 m 1.508 -0.309 c 0.098 -0.113 0.297 -0.223 0.441 -0.242 l 0.266 -0.031 l 0.031 -1.16 c 0.023 -0.984 0.004 -1.16 -0.129 -1.16 c -0.086 0 -0.152 0.098 -0.152 0.227 c 0 0.125 -0.09 0.348 -0.199 0.5 c -0.113 0.152 -0.203 0.387 -0.203 0.523 c 0 0.137 -0.063 0.289 -0.137 0.336 c -0.32 0.199 -0.68 0.785 -0.617 1 c 0.086 0.281 0.465 0.285 0.699 0.008 m -4.289 -1.477 c 0.125 -0.16 0.227 -0.379 0.227 -0.488 c 0 -0.113 0.184 -0.406 0.402 -0.652 c 0.227 -0.254 0.402 -0.555 0.402 -0.695 c 0 -0.133 0.09 -0.293 0.199 -0.359 c 0.121 -0.066 0.203 -0.223 0.203 -0.379 c 0 -0.301 -0.211 -0.355 -0.402 -0.105 c -0.07 0.09 -0.203 0.164 -0.301 0.164 c -0.094 0 -0.289 0.094 -0.43 0.215 c -0.141 0.117 -0.316 0.215 -0.395 0.215 c -0.305 0 -0.383 0.258 -0.383 1.316 c 0 1.152 0.074 1.27 0.477 0.77 m 4.996 -3.434 c 0 -1.07 -0.016 -1.188 -0.188 -1.223 c -0.102 -0.02 -0.316 0.063 -0.473 0.188 c -0.156 0.125 -0.348 0.227 -0.426 0.227 c -0.078 0 -0.25 0.09 -0.379 0.199 c -0.133 0.109 -0.363 0.23 -0.516 0.273 c -0.207 0.051 -0.277 0.137 -0.277 0.328 c 0 0.254 0.164 0.387 0.488 0.387 c 0.094 0 0.246 0.094 0.344 0.215 c 0.094 0.117 0.273 0.215 0.398 0.215 c 0.129 0 0.313 0.102 0.41 0.223 c 0.102 0.129 0.266 0.207 0.398 0.188 c 0.211 -0.031 0.219 -0.078 0.219 -1.219 m -5.152 0.816 c 0.137 -0.117 0.367 -0.242 0.512 -0.281 c 0.148 -0.039 0.316 -0.141 0.383 -0.223 c 0.063 -0.082 0.199 -0.152 0.297 -0.152 c 0.332 0 0.496 -0.129 0.496 -0.387 c 0 -0.141 -0.043 -0.262 -0.098 -0.266 c -0.055 -0.004 -1.117 -0.008 -2.359 -0.008 c -1.242 0 -2.305 0.004 -2.359 0.008 c -0.055 0.004 -0.102 0.125 -0.102 0.266 c 0 0.258 0.164 0.387 0.496 0.387 c 0.102 0 0.234 0.07 0.301 0.152 c 0.063 0.082 0.234 0.184 0.379 0.223 c 0.145 0.039 0.375 0.164 0.512 0.281 c 0.34 0.285 1.203 0.285 1.543 0 m 1.668 -2.91 c 0.016 -0.676 -0.016 -1.273 -0.066 -1.328 c -0.105 -0.113 -4.555 -0.145 -4.727 -0.031 c -0.117 0.078 -0.152 2.453 -0.035 2.574 c 0.035 0.043 1.133 0.063 2.434 0.047 l 2.367 -0.031 m -4.301 8.07 c -0.156 -0.164 -0.047 -0.262 0.25 -0.23 c 0.414 0.043 0.508 0.305 0.109 0.305 c -0.164 0 -0.324 -0.035 -0.359 -0.074 m -0.805 -0.43 c -0.152 -0.164 -0.047 -0.262 0.25 -0.23 c 0.418 0.043 0.508 0.301 0.109 0.301 c -0.16 0 -0.324 -0.031 -0.359 -0.07 m -0.922 -0.574 c -0.098 -0.121 -0.277 -0.215 -0.398 -0.215 c -0.121 0 -0.301 -0.098 -0.398 -0.211 c -0.098 -0.117 -0.293 -0.227 -0.434 -0.242 c -0.391 -0.051 -0.395 -0.281 -0.004 -0.324 c 0.289 -0.027 0.336 -0.074 0.363 -0.367 c 0.023 -0.27 -0.051 -0.426 -0.379 -0.793 c -0.234 -0.262 -0.406 -0.559 -0.406 -0.699 c 0 -0.137 -0.066 -0.309 -0.148 -0.383 c -0.156 -0.141 -0.215 -0.754 -0.07 -0.754 c 0.148 0 0.32 0.258 0.32 0.48 c 0 0.125 0.09 0.309 0.199 0.41 c 0.113 0.102 0.203 0.277 0.203 0.391 c 0 0.117 0.18 0.41 0.402 0.656 c 0.219 0.25 0.398 0.555 0.398 0.684 c 0 0.145 0.219 0.465 0.555 0.816 c 0.305 0.32 0.551 0.625 0.551 0.672 c 0 0.184 -0.574 0.09 -0.754 -0.121 m -2.297 -1.246 c -0.047 -0.137 0.004 -0.164 0.258 -0.137 c 0.418 0.047 0.508 0.305 0.102 0.305 c -0.18 0 -0.324 -0.07 -0.359 -0.168 m 0.793 -7.809 c 0.035 -0.059 0.176 -0.109 0.313 -0.109 c 0.141 0 0.223 0.047 0.188 0.109 c -0.031 0.059 -0.172 0.105 -0.313 0.105 c -0.141 0 -0.223 -0.047 -0.188 -0.105 m 9.738 0 c -0.035 -0.063 0.047 -0.109 0.188 -0.109 c 0.141 0 0.281 0.051 0.316 0.109 c 0.031 0.059 -0.051 0.105 -0.191 0.105 c -0.137 0 -0.277 -0.047 -0.313 -0.105 m -8.938 -0.434 c 0.035 -0.059 0.176 -0.105 0.316 -0.105 c 0.141 0 0.223 0.047 0.188 0.105 c -0.035 0.063 -0.176 0.109 -0.313 0.109 c -0.141 0 -0.227 -0.047 -0.191 -0.109 m 8.133 0 c -0.035 -0.059 0.047 -0.105 0.191 -0.105 c 0.137 0 0.277 0.047 0.313 0.105 c 0.035 0.063 -0.047 0.109 -0.188 0.109 c -0.141 0 -0.281 -0.047 -0.316 -0.109 m -5.672 -1.293 c 0 -0.059 0.117 -0.105 0.258 -0.105 c 0.145 0 0.23 0.047 0.195 0.105 c -0.035 0.063 -0.152 0.109 -0.258 0.109 c -0.105 0 -0.195 -0.047 -0.195 -0.109 m 3.262 0 c -0.035 -0.059 0.051 -0.105 0.195 -0.105 c 0.145 0 0.258 0.047 0.258 0.105 c 0 0.063 -0.086 0.109 -0.195 0.109 c -0.105 0 -0.223 -0.047 -0.258 -0.109 m -2.508 -0.43 c 0.035 -0.059 0.176 -0.109 0.313 -0.109 c 0.141 0 0.223 0.047 0.188 0.109 c -0.031 0.059 -0.172 0.109 -0.313 0.109 c -0.141 0 -0.223 -0.047 -0.188 -0.109 m 1.707 0 c -0.035 -0.063 0.047 -0.109 0.188 -0.109 c 0.141 0 0.281 0.051 0.313 0.109 c 0.035 0.063 -0.047 0.109 -0.188 0.109 c -0.137 0 -0.277 -0.051 -0.313 -0.109 m -0.953 -0.484 c 0 -0.113 0.105 -0.164 0.352 -0.164 c 0.242 0 0.352 0.051 0.352 0.164 c 0 0.113 -0.109 0.16 -0.352 0.16 c -0.246 0 -0.352 -0.047 -0.352 -0.16" fill="#602728"/><path d="m 11.809 18.977 c -0.055 -0.129 -0.211 -0.27 -0.348 -0.313 c -0.141 -0.039 -0.18 -0.078 -0.09 -0.082 c 0.332 -0.023 0.414 -0.309 0.414 -1.457 c 0 -0.617 -0.031 -1.176 -0.07 -1.238 c -0.035 -0.066 -0.199 -0.121 -0.363 -0.121 c -0.387 0 -0.371 -0.105 0.086 -0.605 l 0.379 -0.418 l -0.023 -1.023 c -0.012 -0.563 -0.023 -1.082 -0.027 -1.156 c -0.004 -0.074 -0.129 -0.164 -0.281 -0.203 c -0.152 -0.043 -0.383 -0.164 -0.516 -0.273 c -0.133 -0.109 -0.305 -0.199 -0.387 -0.199 c -0.078 0 -0.258 -0.094 -0.395 -0.211 c -0.316 -0.266 -0.535 -0.176 -0.535 0.223 c 0 0.445 -0.277 0.414 -0.32 -0.035 c -0.027 -0.289 -0.086 -0.363 -0.363 -0.449 c -0.25 -0.074 -0.344 -0.176 -0.391 -0.406 c -0.039 -0.219 -0.133 -0.328 -0.32 -0.379 c -0.145 -0.039 -0.371 -0.156 -0.5 -0.266 c -0.133 -0.109 -0.309 -0.199 -0.387 -0.199 c -0.082 0 -0.262 -0.098 -0.402 -0.219 c -0.277 -0.23 -0.777 -0.285 -0.887 -0.098 c -0.09 0.156 -0.09 2.309 0 2.461 c 0.039 0.063 0.199 0.117 0.363 0.117 c 0.164 0 0.297 0.043 0.297 0.094 c 0 0.051 -0.184 0.281 -0.41 0.512 l -0.406 0.418 l 0.063 0.676 c 0.082 0.836 -0.016 1.535 -0.211 1.535 c -0.117 0 -0.141 -0.527 -0.141 -3.289 c 0 -3.121 0.008 -3.285 0.184 -3.285 c 0.102 0 0.27 -0.098 0.367 -0.219 c 0.102 -0.117 0.254 -0.215 0.336 -0.215 c 0.121 0 0.129 0.031 0.035 0.129 c -0.297 0.32 -0.086 0.734 0.379 0.734 c 0.098 0 0.234 0.066 0.297 0.152 c 0.063 0.082 0.234 0.184 0.383 0.223 c 0.145 0.039 0.375 0.164 0.508 0.277 c 0.281 0.234 0.918 0.281 1.105 0.082 c 0.188 -0.203 0.164 -2.5 -0.027 -2.672 c -0.125 -0.113 -0.105 -0.168 0.141 -0.391 c 0.34 -0.309 0.523 -0.324 0.738 -0.07 c 0.141 0.168 0.367 0.188 2.023 0.18 c 1.586 -0.008 1.891 -0.035 2.047 -0.188 c 0.25 -0.242 0.391 -0.227 0.727 0.078 c 0.246 0.223 0.266 0.277 0.141 0.391 c -0.191 0.172 -0.215 2.469 -0.027 2.672 c 0.188 0.199 0.828 0.152 1.105 -0.082 c 0.137 -0.113 0.367 -0.238 0.512 -0.277 c 0.145 -0.039 0.316 -0.141 0.379 -0.223 c 0.066 -0.086 0.199 -0.152 0.297 -0.152 c 0.465 0 0.676 -0.414 0.379 -0.734 c -0.094 -0.098 -0.086 -0.129 0.035 -0.129 c 0.086 0 0.238 0.098 0.336 0.215 c 0.102 0.121 0.242 0.219 0.316 0.219 c 0.109 0 0.137 0.605 0.137 3.285 c 0 2.121 -0.035 3.289 -0.102 3.289 c -0.059 0 -0.102 -0.449 -0.102 -1.129 v -1.125 l -0.398 -0.398 c -0.406 -0.402 -0.453 -0.602 -0.117 -0.508 c 0.395 0.109 0.516 -0.227 0.516 -1.422 c 0 -1.488 -0.246 -1.781 -1 -1.184 c -0.184 0.148 -0.414 0.27 -0.508 0.27 c -0.094 0 -0.227 0.07 -0.293 0.16 c -0.07 0.09 -0.266 0.199 -0.441 0.246 c -0.234 0.066 -0.336 0.172 -0.41 0.434 c -0.066 0.25 -0.152 0.344 -0.313 0.344 c -0.262 0 -0.41 0.176 -0.457 0.539 c -0.043 0.309 -0.23 0.32 -0.246 0.016 c -0.027 -0.48 -0.23 -0.559 -0.617 -0.23 c -0.141 0.117 -0.32 0.215 -0.402 0.215 c -0.078 0 -0.258 0.098 -0.398 0.215 c -0.141 0.121 -0.34 0.215 -0.441 0.215 c -0.297 0 -0.391 0.352 -0.391 1.445 v 1.027 l 0.398 0.395 c 0.406 0.406 0.453 0.605 0.117 0.512 c -0.395 -0.113 -0.516 0.223 -0.516 1.43 c 0 0.98 0.023 1.145 0.195 1.305 c 0.195 0.18 0.195 0.18 0 0.328 c -0.105 0.082 -0.195 0.219 -0.195 0.301 c 0 0.254 -0.441 0.188 -0.555 -0.082 m 1.078 -7.082 c 0.133 -0.117 0.363 -0.242 0.508 -0.281 c 0.148 -0.039 0.32 -0.141 0.383 -0.223 c 0.063 -0.082 0.199 -0.148 0.297 -0.148 c 0.332 0 0.496 -0.133 0.496 -0.391 c 0 -0.141 -0.043 -0.262 -0.098 -0.266 c -0.055 -0.004 -1.117 -0.008 -2.359 -0.008 c -1.242 0 -2.305 0.004 -2.359 0.008 c -0.055 0.004 -0.102 0.125 -0.102 0.266 c 0 0.258 0.164 0.391 0.5 0.391 c 0.098 0 0.23 0.066 0.297 0.148 c 0.063 0.082 0.234 0.184 0.379 0.223 c 0.145 0.039 0.375 0.164 0.512 0.281 c 0.34 0.285 1.203 0.285 1.547 0 m 1.664 -2.91 c 0.016 -0.676 -0.016 -1.273 -0.066 -1.328 c -0.105 -0.113 -4.555 -0.145 -4.727 -0.031 c -0.117 0.078 -0.152 2.453 -0.035 2.574 c 0.035 0.043 1.133 0.063 2.434 0.047 l 2.367 -0.031 m -4.086 7.957 c 0.07 -0.031 0.16 -0.027 0.191 0.008 c 0.035 0.035 -0.027 0.063 -0.133 0.059 c -0.117 -0.008 -0.141 -0.031 -0.059 -0.066 m -0.805 -0.43 c 0.074 -0.031 0.16 -0.027 0.191 0.008 c 0.035 0.035 -0.023 0.063 -0.129 0.055 c -0.117 -0.004 -0.141 -0.027 -0.063 -0.063 m -1.035 -0.574 c -0.098 -0.117 -0.281 -0.215 -0.402 -0.215 c -0.121 0 -0.301 -0.098 -0.398 -0.215 c -0.102 -0.121 -0.277 -0.219 -0.395 -0.219 c -0.191 0 -0.188 -0.012 0.043 -0.137 c 0.172 -0.094 0.258 -0.238 0.281 -0.484 c 0.039 -0.422 0.32 -0.484 0.32 -0.07 c 0 0.184 0.168 0.469 0.5 0.844 c 0.277 0.316 0.504 0.602 0.504 0.641 c 0 0.152 -0.281 0.063 -0.453 -0.145 m 6.578 0.129 c 0 -0.043 0.223 -0.32 0.496 -0.609 c 0.273 -0.289 0.512 -0.641 0.527 -0.781 c 0.039 -0.332 0.223 -0.328 0.262 0.012 c 0.016 0.145 0.094 0.32 0.172 0.391 c 0.117 0.105 0.094 0.168 -0.145 0.383 c -0.16 0.145 -0.375 0.262 -0.484 0.262 c -0.109 0 -0.277 0.098 -0.379 0.215 c -0.18 0.215 -0.449 0.293 -0.449 0.129 m -6.05 -0.738 c -0.105 -0.109 0.027 -0.254 0.234 -0.254 c 0.109 0 0.195 0.074 0.195 0.164 c 0 0.16 -0.309 0.227 -0.43 0.09 m 5.621 0.004 c -0.137 -0.148 -0.066 -0.27 0.137 -0.238 c 0.109 0.02 0.203 0.082 0.203 0.145 c 0.004 0.129 -0.242 0.195 -0.34 0.094 m -4.891 -0.527 c 0 -0.117 0.117 -0.16 0.453 -0.16 c 0.336 0 0.453 0.043 0.453 0.16 c 0 0.121 -0.117 0.164 -0.453 0.164 c -0.336 0 -0.453 -0.043 -0.453 -0.164 m 3.668 0.059 c -0.035 -0.063 0.004 -0.141 0.082 -0.176 c 0.219 -0.09 0.719 -0.008 0.719 0.117 c 0 0.148 -0.719 0.203 -0.801 0.059 m -7.098 -0.078 c 0.07 -0.031 0.156 -0.027 0.191 0.008 c 0.031 0.039 -0.027 0.063 -0.133 0.059 c -0.117 -0.004 -0.141 -0.031 -0.059 -0.066 m 0.969 -0.793 c -0.039 -0.066 -0.043 -0.145 -0.016 -0.176 c 0.074 -0.074 0.27 0.059 0.27 0.188 c 0 0.137 -0.176 0.129 -0.254 -0.012 m -0.449 -0.695 c 0 -0.168 0.059 -0.27 0.148 -0.27 c 0.094 0 0.152 0.102 0.152 0.27 c 0 0.168 -0.059 0.27 -0.152 0.27 c -0.09 0 -0.148 -0.102 -0.148 -0.27 m 10.06 0.047 c 0.016 -0.137 0.094 -0.266 0.164 -0.293 c 0.094 -0.031 0.125 0.031 0.102 0.199 c -0.02 0.137 -0.094 0.266 -0.168 0.293 c -0.09 0.031 -0.121 -0.031 -0.098 -0.199 m -6.445 -0.477 c 0 -0.168 0.059 -0.27 0.152 -0.27 c 0.094 0 0.148 0.102 0.148 0.27 c 0 0.168 -0.055 0.27 -0.148 0.27 c -0.094 0 -0.152 -0.102 -0.152 -0.27 m 2.828 0.047 c 0.02 -0.137 0.094 -0.27 0.168 -0.293 c 0.09 -0.035 0.125 0.031 0.102 0.195 c -0.02 0.137 -0.094 0.27 -0.168 0.297 c -0.09 0.031 -0.125 -0.031 -0.102 -0.199 m -6.805 -0.367 c -0.07 -0.191 0.043 -0.406 0.168 -0.324 c 0.129 0.086 0.121 0.48 -0.008 0.48 c -0.059 0 -0.129 -0.07 -0.16 -0.156 m 10.844 0.008 c -0.035 -0.105 -0.016 -0.242 0.047 -0.309 c 0.078 -0.086 0.129 -0.066 0.176 0.07 c 0.035 0.102 0.016 0.238 -0.043 0.305 c -0.082 0.086 -0.129 0.066 -0.18 -0.066 m -7.223 -0.289 c -0.035 -0.063 -0.039 -0.141 -0.012 -0.172 c 0.07 -0.078 0.27 0.059 0.27 0.184 c 0 0.141 -0.176 0.129 -0.258 -0.012 m -0.445 -0.691 c 0 -0.168 0.055 -0.27 0.148 -0.27 c 0.094 0 0.152 0.102 0.152 0.27 c 0 0.164 -0.059 0.266 -0.152 0.266 c -0.094 0 -0.148 -0.102 -0.148 -0.266 m 4.434 0.047 c 0.02 -0.137 0.094 -0.27 0.168 -0.293 c 0.09 -0.035 0.121 0.031 0.102 0.195 c -0.02 0.137 -0.094 0.27 -0.168 0.297 c -0.094 0.031 -0.125 -0.035 -0.102 -0.199 m -7.145 -0.695 c 0 -0.102 0.094 -0.16 0.25 -0.16 c 0.156 0 0.25 0.059 0.25 0.16 c 0 0.102 -0.094 0.16 -0.25 0.16 c -0.156 0 -0.25 -0.059 -0.25 -0.16 m 9.703 0.09 c -0.137 -0.148 -0.059 -0.266 0.152 -0.23 c 0.277 0.043 0.367 0.301 0.109 0.301 c -0.105 0 -0.223 -0.031 -0.262 -0.07 m -8.902 -0.52 c 0 -0.102 0.098 -0.164 0.254 -0.164 c 0.156 0 0.25 0.063 0.25 0.164 c 0 0.098 -0.094 0.16 -0.25 0.16 c -0.156 0 -0.254 -0.063 -0.254 -0.16 m 8.08 0.051 c -0.074 -0.133 0.203 -0.262 0.348 -0.164 c 0.059 0.039 0.105 0.117 0.105 0.172 c 0 0.137 -0.371 0.129 -0.453 -0.008 m -3.992 -6.102 c -0.145 -0.152 -0.066 -0.258 0.188 -0.258 c 0.164 0 0.242 0.051 0.219 0.137 c -0.051 0.156 -0.305 0.23 -0.406 0.121" fill="#17120b"/></svg>