<svg xmlns="http://www.w3.org/2000/svg" xmlns:xlink="http://www.w3.org/1999/xlink" viewBox="0 0 24 24"><defs><g id="3" clip-path="url(#2)"><path d="m 15.215 11.172 c -0.309 -1.492 -3.238 -1.586 -5.125 -0.449 v 0.125 c 1.887 -0.961 4.559 -0.953 4.805 0.422 c 0.082 0.457 -0.176 0.93 -0.641 1.203 v 0.355 c 0.559 -0.203 1.129 -0.855 0.961 -1.656 m -3.43 2.613 c -1.305 0.121 -2.66 -0.066 -2.852 -1.074 c -0.094 -0.496 0.137 -1.023 0.438 -1.352 v -0.176 c -0.543 0.477 -0.84 1.074 -0.672 1.785 c 0.219 0.906 1.387 1.422 3.164 1.25 c 0.703 -0.066 1.625 -0.289 2.266 -0.637 v -0.496 c -0.582 0.344 -1.543 0.625 -2.344 0.699" fill="#fff"/><path d="m 14.277 10.93 h -0.359 v 1.555 c 0 0.18 0.09 0.34 0.359 0.363" fill="#fff"/><path d="m 9.984 11.496 h -0.363 v 1.016 c 0 0.184 0.09 0.34 0.363 0.367" fill="#fff"/><path d="m 9.621 10.977 h 0.363 v 0.328 h -0.363" fill="#fff"/><path d="m 12.141 12.859 c -0.293 0 -0.414 -0.195 -0.414 -0.391 v -1.348 h 0.355 v 0.375 h 0.27 v 0.277 h -0.27 v 0.676 c 0 0.078 0.039 0.121 0.125 0.121 h 0.145 v 0.289 h -0.211" fill="#fff"/><path d="m 13.09 11.758 c -0.121 0 -0.215 0.063 -0.254 0.145 c -0.023 0.051 -0.031 0.086 -0.035 0.148 h 0.551 c -0.008 -0.148 -0.078 -0.293 -0.262 -0.293 m -0.293 0.527 c 0 0.176 0.117 0.309 0.32 0.309 c 0.156 0 0.234 -0.043 0.328 -0.133 l 0.219 0.207 c -0.141 0.133 -0.289 0.215 -0.551 0.215 c -0.344 0 -0.668 -0.18 -0.668 -0.707 c 0 -0.449 0.285 -0.703 0.66 -0.703 c 0.383 0 0.602 0.297 0.602 0.688 v 0.125 h -0.906" fill="#fff"/><path d="m 10.953 11.773 c 0.105 0 0.148 0.051 0.148 0.133 v 0.957 h 0.359 v -0.957 c 0 -0.195 -0.109 -0.41 -0.422 -0.41 h -0.738 v 1.367 h 0.355 v -1.09" fill="#fff"/></g><clipPath id="2"><path d="M 0,0 H24 V24 H0 z"/></clipPath><filter id="0" filterUnits="objectBoundingBox" x="0" y="0" width="24" height="24"><feColorMatrix type="matrix" in="SourceGraphic" values="0 0 0 0 1 0 0 0 0 1 0 0 0 0 1 0 0 0 1 0"/></filter><mask id="1"><g filter="url(#0)"><path fill-opacity="0.2" d="M 0,0 H24 V24 H0 z"/></g></mask></defs><path d="m 21.484 18.383 c 8.59 -12.223 -7.273 -24.609 -17.395 -14.648 c -9.535 9.383 -0.695 23.961 11.168 19.402 c 2.477 -0.949 4.648 -2.512 6.227 -4.754" fill="#dcdcdc"/><g fill="#3f3f3f"><path d="m 17.941 13.02 v 0.613 h -11.984 v -0.613"/><path d="m 17.941 11.793 v 0.617 h -11.984 v -0.617"/><path d="m 17.941 10.566 v 0.613 h -11.984 v -0.613"/><path d="m 17.941 9.336 v 0.613 h -11.984 v -0.613"/><path d="m 17.941 14.254 v 0.613 h -11.984 v -0.613"/><path d="m 17.941 15.48 v 0.617 h -11.984 v -0.617"/><path d="m 17.941 16.711 v 0.613 h -11.984 v -0.613"/><path d="m 17.941 8.105 v 0.617 h -11.984 v -0.617"/><path d="m 17.941 6.879 v 0.613 h -11.984 v -0.613"/><path d="m 11.648 5.957 h 0.602 v 12.289 h -0.602"/><path d="m 10.449 5.957 h 0.602 v 12.289 h -0.602"/><path d="m 9.25 5.957 h 0.602 v 12.289 h -0.602"/><path d="m 8.05 5.957 h 0.598 v 12.289 h -0.598"/><path d="m 12.848 5.957 h 0.602 v 12.289 h -0.602"/><path d="m 14.05 5.957 h 0.598 v 12.289 h -0.598"/><path d="m 15.246 5.957 h 0.598 v 12.289 h -0.598"/><path d="m 6.855 5.957 h 0.598 v 12.289 h -0.598"/><path d="m 16.445 5.957 h 0.598 v 12.289 h -0.598"/></g><path d="m 17.344 17.465 v -10.727 c 0 -0.094 -0.094 -0.168 -0.211 -0.168 h -10.367 c -0.117 0 -0.211 0.074 -0.211 0.168 v 10.727 c 0 0.094 0.094 0.168 0.211 0.168 h 10.367 c 0.117 0 0.211 -0.074 0.211 -0.168" fill="#858988"/><g fill-opacity="0.2"><path d="m 7.23 6.57 c -0.375 0 -0.676 0.246 -0.676 0.555 v 0.305 c 0 -0.305 0.301 -0.551 0.676 -0.551 h 9.438 c 0.375 0 0.676 0.246 0.676 0.551 v -0.305 c 0 -0.309 -0.301 -0.555 -0.676 -0.555" fill="#fff"/><path d="m 6.555 16.773 v 0.305 c 0 0.309 0.301 0.555 0.676 0.555 h 9.438 c 0.375 0 0.676 -0.246 0.676 -0.555 v -0.305 c 0 0.305 -0.301 0.551 -0.676 0.551 h -9.438 c -0.375 0 -0.676 -0.246 -0.676 -0.551"/></g><use xlink:href="#3" mask="url(#1)"/></svg>