<svg xmlns="http://www.w3.org/2000/svg" viewBox="0 0 24 24"><path d="m 23.941 12.945 c 1.379 -14.492 -21.867 -18.395 -23.676 -3.512 c -2.234 13.688 18.836 20.734 23.05 7.137 c 0.461 -1.148 0.453 -2.406 0.625 -3.625" fill="#ff8c00"/><path d="m 17.262 11.848 v -6.387 h -10.938 v 11.898 l 0.273 0.293 c 0.156 0.168 0.398 0.352 0.574 0.438 l 0.305 0.148 h 9.785 m -8.84 -3.098 c 0 -0.125 0.508 -0.453 1.148 -0.738 c 0.863 -0.387 1.27 -0.637 1.34 -0.816 c 0.031 -0.078 0.055 -0.313 0.055 -0.52 c 0 -0.352 -0.02 -0.406 -0.281 -0.863 c -0.152 -0.266 -0.313 -0.602 -0.352 -0.746 c -0.043 -0.145 -0.117 -0.344 -0.172 -0.445 c -0.105 -0.203 -0.105 -0.211 -0.035 -1.012 c 0.059 -0.645 0.203 -0.973 0.578 -1.316 c 0.305 -0.273 0.434 -0.344 0.801 -0.43 c 0.227 -0.051 0.348 -0.051 0.578 0 c 0.367 0.086 0.496 0.156 0.801 0.43 c 0.371 0.34 0.523 0.68 0.555 1.234 c 0.012 0.254 0.047 0.484 0.074 0.516 c 0.082 0.086 0.055 0.348 -0.066 0.59 c -0.063 0.125 -0.16 0.348 -0.215 0.5 c -0.055 0.148 -0.211 0.445 -0.352 0.66 c -0.258 0.387 -0.258 0.395 -0.258 0.859 c 0 0.258 0.027 0.52 0.059 0.578 c 0.082 0.152 0.41 0.34 1.18 0.672 c 0.375 0.16 0.781 0.355 0.906 0.43 c 0.207 0.129 0.395 0.332 0.395 0.426 c 0 0.023 -1.516 0.043 -3.367 0.043 c -2.02 0 -3.371 -0.02 -3.371 -0.051" fill="#fdfdfd"/></svg>