<svg xmlns="http://www.w3.org/2000/svg" xmlns:xlink="http://www.w3.org/1999/xlink" viewBox="0 0 24 24"><defs><linearGradient id="0" gradientUnits="userSpaceOnUse" x1="64.56" y1="-3.114" x2="89.1" y2="68.41" gradientTransform="matrix(0.0596 0 0 0.04986 3.911 5.997)"><stop stop-color="#fff" stop-opacity="0.831"/><stop offset="1" stop-color="#fff" stop-opacity="0"/></linearGradient><linearGradient id="1" gradientUnits="userSpaceOnUse" x1="189.58" y1="210.18" x2="203.82" y2="240.59" gradientTransform="matrix(0.09978 0 0 0.08347 -2.827 -3.93)"><stop stop-color="#fff"/><stop offset="1" stop-color="#fff" stop-opacity="0"/></linearGradient><linearGradient id="2" gradientUnits="userSpaceOnUse" x1="189.58" y1="210.18" x2="203.82" y2="240.59" gradientTransform="matrix(0.09978 0 0 0.08347 -12.545 -3.971)" xlink:href="#1"/></defs><path d="m 21.938 19.07 c -4.551 8.266 -18.813 5.059 -21.22 -1.746 c -2.875 -8.105 4.605 -23.496 17.277 -14.48 c 4.27 3.148 8.492 7.965 3.941 16.227" fill="#ff4500"/><path d="m 15.895 6.809 h -7.848 c -0.934 0 -1.695 0.633 -1.695 1.418 v 6.563 c 0 0.785 0.762 1.418 1.695 1.418 h 7.848 c 0.938 0 1.699 -0.633 1.699 -1.418 v -6.563 c 0 -0.785 -0.762 -1.418 -1.699 -1.418" fill-rule="evenodd"/><path d="m 84.59 102.87 h 106.77 c 15.73 0 28.511 12.771 28.511 28.52 v 20.06 c 0 15.67 -12.781 28.442 -28.511 28.442 h -106.77 c -15.73 0 -28.511 -12.771 -28.511 -28.442 v -20.06 c 0 -15.749 12.781 -28.52 28.511 -28.52" transform="matrix(0.0596 0 0 0.04986 3.911 5.997)" fill="#ff2929" stroke="#fff" stroke-width="0.803"/><path d="m 103.12 119.09 v 34.11 h -5.073 v -34.11 h -12.964 v -4.373 h 30.718 v 4.373 m 12.259 4.665 v 18.659 c 0 1.385 0.07 2.551 0.282 3.499 c 0.352 1.02 0.705 1.749 1.127 2.332 c 0.352 0.583 0.916 1.093 1.691 1.458 c 0.705 0.219 1.691 0.292 2.818 0.292 c 1.127 0 2.114 -0.146 3.1 -0.583 c 0.916 -0.364 1.691 -0.948 2.255 -1.749 c 0.705 -0.729 1.268 -1.749 1.691 -2.915 c 0.352 -1.166 0.564 -2.478 0.564 -4.082 v -16.91 h 4.509 v 23.03 c 0 0.802 0 1.604 0 2.332 c 0.141 0.583 0.282 1.166 0.282 1.749 c 0 0.583 0 1.093 0 1.458 c 0 0.437 0 0.729 0 0.875 h -4.509 c 0 0 0 -0.146 0 -0.583 c 0 -0.583 0 -1.02 0 -1.458 c 0 -0.583 -0.141 -1.02 -0.282 -1.458 c 0 -0.583 0 -1.02 0 -1.458 c -0.423 0.802 -0.845 1.604 -1.409 2.332 c -0.564 0.583 -1.268 1.166 -1.973 1.749 c -0.775 0.437 -1.62 0.729 -2.536 0.875 c -0.986 0.364 -1.973 0.583 -3.1 0.583 c -1.691 0 -3.1 -0.219 -4.227 -0.583 c -1.127 -0.364 -2.114 -0.948 -2.818 -1.749 c -0.775 -0.948 -1.339 -2.041 -1.691 -3.207 c -0.423 -1.312 -0.564 -2.988 -0.564 -4.956 v -19.534 m 57.28 14.577 c 0 10.35 -3.593 15.452 -10.709 15.452 c -2.114 0 -3.875 -0.437 -5.355 -1.166 c -1.339 -0.729 -2.466 -2.114 -3.382 -4.082 c 0 0.583 -0.141 1.166 -0.282 1.749 c 0 0.437 0 0.802 0 1.166 c 0 0.437 0 0.802 0 1.166 c 0 0.437 0 0.583 0 0.583 h -4.791 c 0 -0.146 0 -0.437 0 -0.875 c 0.141 -0.364 0.282 -0.875 0.282 -1.458 c 0 -0.583 0 -1.166 0 -1.749 c 0 -0.583 0 -1.239 0 -2.041 v -34.403 h 4.791 v 11.662 c 0 0.437 0 0.875 0 1.458 c 0 0.437 0 0.802 0 1.166 c 0 0.583 -0.141 1.093 -0.282 1.458 h 0.282 c 0.916 -1.895 2.043 -3.28 3.382 -4.082 c 1.48 -0.729 3.241 -1.166 5.355 -1.166 c 3.734 0 6.482 1.312 8.173 3.79 c 1.691 2.551 2.536 6.341 2.536 11.37 m -5.073 0 c 0 -1.895 -0.211 -3.571 -0.564 -4.956 c -0.211 -1.531 -0.564 -2.77 -1.127 -3.79 c -0.423 -0.948 -1.057 -1.604 -1.973 -2.041 c -0.775 -0.364 -1.832 -0.583 -3.1 -0.583 c -1.339 0 -2.466 0.219 -3.382 0.583 c -0.986 0.437 -1.832 1.093 -2.536 2.041 c -0.564 1.02 -1.057 2.26 -1.409 3.79 c -0.211 1.385 -0.282 3.134 -0.282 5.248 c 0 2.187 0.07 4.01 0.282 5.539 c 0.352 1.385 0.845 2.551 1.409 3.499 c 0.705 0.802 1.55 1.385 2.536 1.749 c 0.916 0.437 2.043 0.583 3.382 0.583 c 1.127 0 2.043 -0.146 2.818 -0.583 c 0.916 -0.364 1.691 -0.948 2.255 -1.749 c 0.564 -0.948 0.916 -2.187 1.127 -3.79 c 0.352 -1.531 0.564 -3.353 0.564 -5.539 m 17.332 1.166 c 0 1.604 0.07 3.061 0.282 4.373 c 0.352 1.166 0.845 2.26 1.409 3.207 c 0.705 1.02 1.55 1.749 2.536 2.332 c 1.127 0.437 2.325 0.583 3.664 0.583 c 2.043 0 3.664 -0.364 4.791 -1.166 c 1.268 -0.948 2.255 -2.041 2.818 -3.207 l 4.227 1.166 c -0.423 0.802 -0.845 1.676 -1.409 2.624 c -0.564 0.802 -1.339 1.458 -2.255 2.041 c -0.775 0.583 -1.902 1.166 -3.382 1.749 c -1.339 0.364 -2.959 0.583 -4.791 0.583 c -4.157 0 -7.327 -1.239 -9.582 -3.79 c -2.255 -2.697 -3.382 -6.56 -3.382 -11.662 c 0 -2.915 0.282 -5.248 0.845 -6.997 c 0.705 -1.895 1.691 -3.499 2.818 -4.665 c 1.268 -1.312 2.677 -2.187 4.227 -2.624 c 1.48 -0.583 3.17 -0.875 5.073 -0.875 c 2.255 0 4.086 0.437 5.636 1.166 c 1.691 0.802 2.959 1.895 3.945 3.207 c 1.127 1.385 1.832 3.061 2.255 4.956 c 0.352 1.968 0.564 4.082 0.564 6.414 v 0.583 m -4.791 -3.79 c -0.423 -3.061 -1.268 -5.321 -2.536 -6.706 c -1.127 -1.531 -2.959 -2.332 -5.355 -2.332 c -0.775 0 -1.62 0.219 -2.536 0.583 c -0.775 0.219 -1.55 0.729 -2.255 1.458 c -0.775 0.583 -1.409 1.458 -1.973 2.624 c -0.564 1.166 -0.845 2.624 -0.845 4.373" transform="matrix(0.05544 0 0 0.05359 3.911 5.997)" fill="none" stroke="#000" stroke-width="1.5"/><path d="m 14.621 7.207 h -5.301 c -0.609 0 -1.289 -0.016 -1.918 0.355 c -0.773 0.457 -0.613 1.113 -0.613 1.781 v 4.328 c 0.047 0.922 0.219 0.34 0.551 -0.684 c 0.387 -1.188 1.648 -2.227 3.18 -3.01 c 1.168 -0.594 2.48 -0.973 4.863 -1.01 c 1.352 -0.023 1.23 -1.469 -0.762 -1.766" fill="url(#0)" fill-rule="evenodd"/><g transform="matrix(0.09978 0 0 0.08347 -2.827 -3.93)"><path d="m 184.97 205.26 h 27.13 l -3.406 31.543 c 6.616 0 11.275 1.076 20.2 -1.217 c -11.627 10.717 -27.756 30.14 -30.574 46.706 c -3.093 -10.296 -17.538 -34.725 -30.574 -46 c 6.773 0.983 13.78 1.498 21.375 0.749" fill="#2a0000" stroke="#ffac00" stroke-width="1.541"/><path d="m 187.67 207.6 h 21.57 l -3.288 31.636 c 7.79 -0.983 9.552 1.404 16.677 -0.421 c -9.121 8.751 -22.432 22.978 -24.663 36.13 c -3.01 -9.641 -13.702 -26.629 -23.958 -35.801 c 4.385 1.123 14.406 -0.374 17.851 0.281" fill="#ff2929" stroke="#2a0000" stroke-width="1.373"/></g><path d="m 16.09 13.621 l 1.703 -0.008 l -0.258 2.727 c 0 0 -0.742 -0.316 -0.906 -1.16 c -0.16 -0.848 -0.477 -1.184 -0.539 -1.559" fill="url(#1)"/><g transform="matrix(0.09978 0 0 0.08347 -12.545 -3.971)"><path d="m 185 205.24 h 27.09 l -3.406 31.589 c 6.655 -0.047 11.275 1.03 20.2 -1.264 c -11.627 10.717 -27.756 30.19 -30.535 46.706 c -3.132 -10.296 -17.538 -34.725 -30.613 -46 c 6.773 1.03 13.78 1.498 21.375 0.796" fill="#2a0000" stroke="#ffac00" stroke-width="1.541"/><path d="m 187.7 207.58 h 21.531 l -3.288 31.636 c 7.79 -0.983 9.591 1.451 16.677 -0.374 c -9.121 8.705 -22.432 22.932 -24.663 36.08 c -2.975 -9.594 -13.663 -26.629 -23.919 -35.801 c 4.385 1.123 14.406 -0.328 17.812 0.281" fill="#ff2929" stroke="#2a0000" stroke-width="1.373"/></g><path d="m 6.371 13.578 l 1.703 -0.004 l -0.258 2.723 c 0 0 -0.742 -0.313 -0.902 -1.16 c -0.164 -0.848 -0.477 -1.18 -0.543 -1.559" fill="url(#2)"/></svg>