<svg xmlns="http://www.w3.org/2000/svg" viewBox="0 0 22 22"><path d="m 19.734 16.828 c 7.91 -11.25 -6.699 -22.652 -16.02 -13.484 c -8.777 8.641 -0.641 22.06 10.285 17.863 c 2.281 -0.875 4.281 -2.313 5.734 -4.375" fill="#ffd600"/><path d="m 6.621 4.898 c -0.281 0 -0.508 0.297 -0.508 0.664 v 11.902 c 0 0.367 0.227 0.66 0.508 0.66 h 5.582 l 4.059 -5.289 v -7.273 c 0 -0.367 -0.227 -0.664 -0.508 -0.664" fill="#fdcd37"/><path d="m 16.262 12.836 h -3.555 c -0.277 0 -0.504 0.293 -0.504 0.66 v 4.629" fill="#ffe59b"/><path d="m 12.707 12.836 c -0.277 0 -0.504 0.293 -0.504 0.66 v 0.332 c 0 -0.367 0.227 -0.664 0.504 -0.664 h 3.301 l 0.254 -0.328" fill="#fff" fill-opacity="0.2"/><path d="m 8.902 12.504 v -0.66 h 3.047 v 0.66 m -3.047 -1.32 v -0.664 h 4.566 v 0.664 m -4.566 -1.324 v -0.66 h 4.566 v 0.66 m -4.566 -1.324 v -0.66 h 4.566 v 0.66" fill-opacity="0.502"/></svg>