<svg xmlns="http://www.w3.org/2000/svg" xmlns:xlink="http://www.w3.org/1999/xlink" viewBox="0 0 22 22"><defs><g id="3" clip-path="url(#2)"><path d="m 8.684 11.891 l -0.574 1.453 h 1.148 m -0.813 -1.84 h 0.48 l 1.191 2.914 h -0.441 l -0.285 -0.75 h -1.406 l -0.285 0.75 h -0.445 l 1.191 -2.918"/><path d="m 10.551 12.23 h 0.387 v 2.188 h -0.387 m 0 -3.039 h 0.387 v 0.457 h -0.387"/><path d="m 13.238 13.05 c 0.09 0.027 0.18 0.09 0.266 0.184 c 0.086 0.094 0.172 0.223 0.258 0.387 l 0.43 0.797 h -0.453 l -0.402 -0.75 c -0.102 -0.195 -0.203 -0.324 -0.301 -0.387 c -0.094 -0.063 -0.227 -0.098 -0.395 -0.098 h -0.461 v 1.234 h -0.422 v -2.914 h 0.953 c 0.359 0 0.625 0.07 0.801 0.207 c 0.176 0.141 0.262 0.352 0.262 0.633 c 0 0.184 -0.043 0.336 -0.137 0.457 c -0.09 0.121 -0.223 0.203 -0.398 0.25 m -1.059 -1.227 v 1.035 h 0.531 c 0.203 0 0.359 -0.043 0.461 -0.129 c 0.105 -0.09 0.156 -0.219 0.156 -0.391 c 0 -0.168 -0.051 -0.297 -0.156 -0.383 c -0.102 -0.086 -0.258 -0.133 -0.461 -0.133"/></g><clipPath id="2"><path d="M 0,0 H22 V22 H0 z"/></clipPath><filter id="0" filterUnits="objectBoundingBox" x="0" y="0" width="22" height="22"><feColorMatrix type="matrix" in="SourceGraphic" values="0 0 0 0 1 0 0 0 0 1 0 0 0 0 1 0 0 0 1 0"/></filter><mask id="1"><g filter="url(#0)"><path fill-opacity="0.2" d="M 0,0 H22 V22 H0 z"/></g></mask></defs><path d="m 19.734 16.828 c 7.91 -11.25 -6.699 -22.652 -16.02 -13.484 c -8.777 8.641 -0.641 22.06 10.285 17.863 c 2.281 -0.875 4.281 -2.313 5.734 -4.375" fill="#dc133c"/><g fill="#848484"><path d="m 7.422 4.055 h 1.738 c 0.094 0 0.172 0.074 0.172 0.172 v 4.836 c 0 0.098 -0.078 0.172 -0.172 0.172 h -1.738 c -0.094 0 -0.172 -0.074 -0.172 -0.172 v -4.836 c 0 -0.098 0.078 -0.172 0.172 -0.172"/><path d="m 12.281 4.055 h 1.738 c 0.094 0 0.172 0.074 0.172 0.172 v 4.836 c 0 0.098 -0.078 0.172 -0.172 0.172 h -1.738 c -0.098 0 -0.172 -0.074 -0.172 -0.172 v -4.836 c 0 -0.098 0.074 -0.172 0.172 -0.172"/></g><path d="m 5.688 8.586 h 10.07 c 0.094 0 0.172 0.078 0.172 0.172 v 7.43 c 0 0.098 -0.078 0.172 -0.172 0.172 h -10.07 c -0.094 0 -0.172 -0.074 -0.172 -0.172 v -7.43 c 0 -0.094 0.078 -0.172 0.172 -0.172" fill="#b92d2d"/><use xlink:href="#3" mask="url(#1)"/><g fill="#fff"><g fill-opacity="0.2"><path d="m 7.945 4.055 c -0.387 0 -0.695 0.289 -0.695 0.645 v 0.324 c 0 -0.355 0.309 -0.645 0.695 -0.645 h 0.691 c 0.387 0 0.695 0.289 0.695 0.645 v -0.324 c 0 -0.355 -0.309 -0.645 -0.695 -0.645"/><path d="m 12.801 4.055 c -0.383 0 -0.691 0.289 -0.691 0.645 v 0.324 c 0 -0.355 0.309 -0.645 0.691 -0.645 h 0.695 c 0.383 0 0.695 0.289 0.695 0.645 v -0.324 c 0 -0.355 -0.313 -0.645 -0.695 -0.645"/><path d="m 6.211 8.586 c -0.387 0 -0.695 0.289 -0.695 0.648 v 0.324 c 0 -0.359 0.309 -0.648 0.695 -0.648 h 9.02 c 0.383 0 0.695 0.289 0.695 0.648 v -0.324 c 0 -0.359 -0.313 -0.648 -0.695 -0.648"/></g><path d="m 8.684 11.566 l -0.574 1.453 h 1.148 m -0.813 -1.84 h 0.48 l 1.191 2.914 h -0.441 l -0.285 -0.746 h -1.406 l -0.285 0.746 h -0.445 l 1.191 -2.918"/><path d="m 10.551 11.906 h 0.387 v 2.188 h -0.387 m 0 -3.039 h 0.387 v 0.457 h -0.387"/><path d="m 13.238 12.727 c 0.09 0.027 0.18 0.09 0.266 0.184 c 0.086 0.094 0.172 0.223 0.258 0.387 l 0.43 0.797 h -0.453 l -0.402 -0.746 c -0.102 -0.199 -0.203 -0.328 -0.301 -0.391 c -0.094 -0.063 -0.227 -0.098 -0.395 -0.098 h -0.461 v 1.234 h -0.422 v -2.914 h 0.953 c 0.359 0 0.625 0.07 0.801 0.207 c 0.176 0.141 0.262 0.352 0.262 0.633 c 0 0.184 -0.043 0.336 -0.137 0.457 c -0.09 0.121 -0.223 0.203 -0.398 0.25 m -1.059 -1.227 v 1.035 h 0.531 c 0.203 0 0.359 -0.043 0.461 -0.129 c 0.105 -0.09 0.156 -0.219 0.156 -0.391 c 0 -0.168 -0.051 -0.297 -0.156 -0.383 c -0.102 -0.086 -0.258 -0.133 -0.461 -0.133"/></g></svg>