<svg xmlns="http://www.w3.org/2000/svg" viewBox="0 0 22 22"><g fill="#ff4500"><path d="m 7.566 7.668 c 0 1.051 0.844 1.902 1.883 1.902 c 1.043 0 1.887 -0.852 1.887 -1.902 c 0 -1.051 -0.844 -1.902 -1.887 -1.902 c -1.039 0 -1.883 0.852 -1.883 1.902"/><path d="m 7.34 14.348 c 0 1.051 0.844 1.898 1.887 1.898 c 1.039 0 1.887 -0.852 1.887 -1.898 c 0 -1.051 -0.848 -1.902 -1.887 -1.902 c -1.043 0 -1.887 0.852 -1.887 1.902"/><path d="m 14.57 10.691 c 0 1.051 0.844 1.902 1.887 1.902 c 1.039 0 1.883 -0.852 1.883 -1.902 c 0 -1.047 -0.844 -1.898 -1.883 -1.898 c -1.043 0 -1.887 0.852 -1.887 1.898"/></g><path d="m 19.789 4.566 c 10.855 16.34 -23.766 26.402 -19.18 5.281 c 1.953 -8.73 14.203 -14.03 19.18 -5.281" fill="#4b0081"/><g fill="#fff" fill-rule="evenodd"><path d="m 6.852 16.375 c -0.332 0.293 -0.828 0.496 -1.051 0.426 c -0.324 -0.102 -0.879 -0.547 -0.813 -0.656 c 0.031 -0.051 0.008 -0.094 -0.047 -0.094 c -0.059 0 -0.105 -0.137 -0.105 -0.301 c 0 -0.168 0.043 -0.305 0.098 -0.305 c 0.055 0 0.102 -0.074 0.102 -0.168 c 0 -0.156 1.559 -1.848 1.699 -1.848 c 0.102 0 1.254 -1.207 1.203 -1.258 c -0.027 -0.031 0.02 -0.051 0.102 -0.051 c 0.164 0 0.875 -0.738 0.875 -0.902 c 0 -0.094 -0.895 -0.766 -0.996 -0.746 c -0.027 0.004 -0.137 -0.031 -0.246 -0.082 c -0.148 -0.066 -0.105 -0.078 0.172 -0.043 c 0.203 0.023 0.637 0.176 0.961 0.332 l 0.59 0.289 l 0.531 -0.508 c 0.289 -0.281 0.516 -0.543 0.504 -0.586 c -0.012 -0.043 0.09 -0.121 0.227 -0.176 c 0.137 -0.051 0.25 -0.141 0.25 -0.199 c 0 -0.059 0.133 -0.188 0.297 -0.289 c 0.164 -0.102 0.277 -0.203 0.258 -0.227 c -0.023 -0.023 0.004 -0.262 0.059 -0.535 c 0.063 -0.293 0.133 -0.441 0.18 -0.367 c 0.113 0.188 0.207 -0.227 0.262 -1.172 c 0.051 -0.801 0.043 -0.836 -0.262 -1.262 l -0.313 -0.434 l 1.246 -0.102 l 0.293 0.637 c 0.055 0.117 0.551 -0.609 0.664 -0.613 c 1.047 -0.012 1.172 0.063 1.277 0.168 c 0.195 0.195 0.102 0.305 -0.449 0.512 c -0.969 0.344 -0.57 0.695 -0.996 1.059 c 0.008 -0.316 0.133 1.016 0.801 0.871 l 0.813 -0.176 l 0.523 -0.051 c 0.586 -0.063 0.57 -0.137 0.137 0.793 c -0.207 0.449 -0.789 0.984 -1.07 0.984 c -0.063 0 -0.242 0.066 -0.398 0.152 c -0.156 0.082 -0.383 0.148 -0.496 0.148 c -0.117 0 -0.469 0.117 -0.781 0.258 c -0.59 0.262 -1.648 1.266 -2.25 2.133 c -0.164 0.234 -0.375 0.484 -0.469 0.555 c -0.098 0.074 -0.328 0.336 -0.52 0.586 c -0.191 0.25 -0.488 0.59 -0.668 0.754 c -0.176 0.168 -0.422 0.449 -0.547 0.629 c -0.125 0.176 -0.445 0.574 -0.715 0.883 c -0.238 0.383 -0.59 0.688 -0.93 0.98 m -0.328 -0.27 c 0.465 -0.504 0.07 -1.027 -0.645 -0.883 c -0.25 0.051 -0.375 -0.078 -0.496 0.281 c -0.148 0.434 -0.059 0.527 0.203 0.73 c 0.375 0.281 0.652 0.176 0.938 -0.129 m 4.203 -4.727 c 0.059 -0.109 0.059 -0.164 0.004 -0.133 c -0.117 0.074 -0.371 -0.676 -0.281 -0.828 c 0.18 -0.289 -0.152 -0.059 -0.641 0.457 c -0.359 0.375 -0.473 0.543 -0.336 0.5 c 0.152 -0.047 0.289 0.012 0.496 0.215 c 0.266 0.262 0.305 0.27 0.473 0.133 c 0.102 -0.086 0.23 -0.242 0.285 -0.344"/><path d="m 8.594 16.836 c 0.234 -0.215 0.418 -0.426 0.402 -0.469 c -0.016 -0.043 0.016 -0.078 0.07 -0.078 c 0.051 0 0.125 -0.117 0.164 -0.262 c 0.035 -0.145 0.137 -0.262 0.219 -0.262 c 0.098 -0.457 0.691 -1.598 0.656 -1.789 c -0.047 -0.191 0.059 -0.363 0.492 -0.793 c 0.301 -0.301 0.586 -0.547 0.637 -0.547 c 0.047 0 0.117 0.164 0.156 0.363 c 0.09 0.461 0.484 0.746 0.805 0.582 c 0.121 -0.063 0.195 -0.18 0.164 -0.258 c -0.031 -0.082 0.043 -0.238 0.172 -0.352 c 0.125 -0.113 0.246 -0.316 0.273 -0.453 c 0.023 -0.137 0.195 -0.648 0.379 -1.133 c 0.184 -0.484 0.313 -0.961 0.285 -1.059 c -0.055 -0.215 0.371 -0.465 0.629 -0.371 c 0.094 0.035 0.363 -0.027 0.594 -0.141 c 0.234 -0.117 0.535 -0.211 0.672 -0.211 c 0.133 0 0.406 -0.094 0.598 -0.207 c 0.195 -0.117 0.402 -0.211 0.461 -0.211 c 0.16 0 0.125 0.781 -0.066 1.5 c -0.23 0.875 -1.125 2.648 -1.57 3.109 c -0.199 0.207 -0.547 0.594 -0.773 0.859 c -0.227 0.266 -0.473 0.484 -0.547 0.484 c -0.078 0 -0.258 0.121 -0.402 0.273 c -0.352 0.367 -0.941 0.746 -2.063 1.328 c -0.914 0.477 -0.961 0.488 -1.887 0.484 l -0.953 -0.004 l 0.43 -0.387"/></g></svg>