<svg xmlns="http://www.w3.org/2000/svg" viewBox="0 0 22 22"><path d="m 19.441 18.18 c 5.352 -8.23 1.035 -15.727 -5.03 -17.504 c -8.148 -2.395 -19.211 3.895 -11.922 16.852 c 2.898 5.148 13.14 6.512 16.949 0.652" fill="#d44a4a"/><path d="m 11.05 5.453 c -1.688 0 -3.293 0.75 -4.387 2.055 l 1.777 3.129 c 0.023 -0.086 0.047 -0.168 0.078 -0.25 c 0.031 -0.086 0.063 -0.168 0.102 -0.25 c 0 0 0 -0.004 0.004 -0.004 c 0.035 -0.074 0.07 -0.148 0.113 -0.215 c 0.004 -0.012 0.012 -0.023 0.02 -0.031 c 0.035 -0.066 0.078 -0.125 0.121 -0.188 c 0.012 -0.012 0.02 -0.027 0.031 -0.043 c 0.043 -0.059 0.09 -0.113 0.137 -0.168 c 0.012 -0.012 0.023 -0.027 0.035 -0.039 c 0.047 -0.051 0.094 -0.098 0.145 -0.145 c 0.02 -0.016 0.039 -0.035 0.055 -0.051 c 0.043 -0.039 0.086 -0.074 0.133 -0.109 c 0.027 -0.02 0.059 -0.043 0.086 -0.066 c 0.039 -0.027 0.078 -0.051 0.117 -0.074 c 0.027 -0.02 0.059 -0.039 0.086 -0.059 c 0.012 -0.008 0.027 -0.016 0.039 -0.023 c 0.016 -0.008 0.031 -0.012 0.043 -0.02 c 0.051 -0.027 0.102 -0.055 0.152 -0.078 c 0.043 -0.02 0.086 -0.035 0.129 -0.055 c 0.039 -0.016 0.078 -0.027 0.117 -0.043 c 0.043 -0.016 0.09 -0.031 0.137 -0.043 c 0.039 -0.012 0.078 -0.02 0.121 -0.031 c 0.047 -0.012 0.094 -0.02 0.145 -0.031 c 0.039 -0.004 0.082 -0.012 0.121 -0.016 c 0.047 -0.008 0.094 -0.012 0.137 -0.016 c 0.047 -0.004 0.09 -0.008 0.137 -0.008 c 0.023 0 0.047 -0.004 0.07 -0.004 h 5.105 c -1 -1.922 -2.965 -3.125 -5.105 -3.125 m -4.883 2.746 c -0.582 0.934 -0.891 2.01 -0.891 3.113 c 0 3.238 2.582 5.863 5.773 5.863 c 0.656 0 1.309 -0.117 1.926 -0.34 v -3.605 c -0.02 0.02 -0.043 0.039 -0.063 0.059 c -0.035 0.031 -0.07 0.066 -0.105 0.098 c -0.035 0.031 -0.07 0.059 -0.109 0.09 c -0.031 0.023 -0.063 0.051 -0.098 0.074 c -0.039 0.027 -0.078 0.055 -0.117 0.078 c -0.027 0.02 -0.059 0.035 -0.086 0.055 c -0.012 0.008 -0.027 0.012 -0.039 0.02 c -0.016 0.008 -0.031 0.016 -0.043 0.023 c -0.051 0.027 -0.102 0.051 -0.152 0.074 c -0.043 0.02 -0.086 0.039 -0.129 0.055 c -0.039 0.016 -0.078 0.031 -0.117 0.043 c -0.043 0.016 -0.09 0.031 -0.137 0.047 c -0.039 0.012 -0.078 0.02 -0.121 0.027 c -0.047 0.012 -0.094 0.023 -0.145 0.031 c -0.039 0.008 -0.082 0.016 -0.121 0.02 c -0.047 0.008 -0.094 0.012 -0.137 0.016 c -0.047 0.004 -0.09 0.004 -0.137 0.004 c -0.023 0.004 -0.047 0.004 -0.07 0.008 c -0.031 0 -0.059 -0.004 -0.09 -0.004 c -0.02 0 -0.039 0 -0.063 -0.004 c -0.047 -0.004 -0.098 -0.008 -0.148 -0.012 c -0.039 -0.008 -0.082 -0.012 -0.125 -0.02 c -0.043 -0.008 -0.09 -0.016 -0.133 -0.027 c -0.047 -0.008 -0.09 -0.016 -0.133 -0.027 c -0.039 -0.012 -0.078 -0.023 -0.117 -0.039 c -0.047 -0.012 -0.094 -0.027 -0.141 -0.047 c -0.039 -0.012 -0.074 -0.027 -0.109 -0.043 c -0.047 -0.02 -0.094 -0.043 -0.137 -0.063 c -0.035 -0.02 -0.07 -0.039 -0.105 -0.059 c -0.043 -0.023 -0.09 -0.051 -0.133 -0.078 c -0.031 -0.023 -0.066 -0.047 -0.098 -0.07 c -0.043 -0.027 -0.082 -0.055 -0.121 -0.082 c -0.031 -0.031 -0.066 -0.059 -0.098 -0.086 c -0.035 -0.031 -0.07 -0.063 -0.105 -0.094 c -0.031 -0.031 -0.063 -0.063 -0.09 -0.094 c -0.031 -0.035 -0.063 -0.07 -0.094 -0.105 c -0.031 -0.035 -0.059 -0.07 -0.09 -0.105 c -0.023 -0.035 -0.051 -0.07 -0.074 -0.102 c -0.027 -0.039 -0.051 -0.082 -0.078 -0.121 c -0.016 -0.027 -0.035 -0.059 -0.051 -0.086 m 4.219 -3.324 c 0.02 0.02 0.035 0.043 0.055 0.063 c 0.035 0.035 0.066 0.07 0.098 0.105 c 0.031 0.039 0.059 0.074 0.09 0.113 c 0.023 0.031 0.051 0.066 0.074 0.098 c 0.027 0.039 0.051 0.078 0.074 0.121 c 0.02 0.027 0.039 0.059 0.055 0.086 c 0.008 0.016 0.016 0.027 0.023 0.043 c 0.008 0.012 0.016 0.027 0.023 0.043 c 0.023 0.051 0.051 0.102 0.074 0.152 c 0.016 0.043 0.035 0.086 0.051 0.129 c 0.016 0.039 0.031 0.082 0.043 0.121 c 0.016 0.047 0.031 0.094 0.043 0.141 c 0.012 0.039 0.023 0.078 0.031 0.121 c 0.012 0.047 0.02 0.098 0.031 0.145 c 0.008 0.043 0.012 0.086 0.016 0.125 c 0.004 0.027 0.008 0.051 0.012 0.074 c 0.004 0.023 0.004 0.047 0.004 0.066 c 0.004 0.047 0.004 0.09 0.008 0.137 c 0 0.023 0.004 0.047 0.004 0.07 v 5.184 c 1.895 -1.016 3.078 -3.01 3.078 -5.184 c 0 -0.664 -0.113 -1.324 -0.332 -1.953 m -6.414 0.391 c -0.023 -0.004 -0.039 0 -0.051 0.008 c -0.176 0.125 -0.176 2.984 0 3.109 c 0.172 0.129 2.18 -1.305 2.18 -1.555 c 0 -0.23 -1.762 -1.504 -2.125 -1.563" fill-opacity="0.2"/><path d="m 11.05 5.063 c -1.688 0 -3.293 0.75 -4.387 2.055 l 1.777 3.129 c 0.023 -0.086 0.047 -0.168 0.078 -0.25 c 0.031 -0.086 0.063 -0.168 0.102 -0.25 c 0 0 0 -0.004 0.004 -0.004 c 0.035 -0.074 0.07 -0.148 0.113 -0.215 c 0.004 -0.012 0.012 -0.023 0.02 -0.031 c 0.035 -0.066 0.078 -0.125 0.121 -0.188 c 0.012 -0.016 0.02 -0.027 0.031 -0.043 c 0.043 -0.059 0.09 -0.113 0.137 -0.168 c 0.012 -0.012 0.023 -0.027 0.035 -0.039 c 0.047 -0.051 0.094 -0.098 0.145 -0.145 c 0.02 -0.016 0.039 -0.035 0.055 -0.051 c 0.043 -0.039 0.086 -0.074 0.133 -0.109 c 0.027 -0.02 0.059 -0.043 0.086 -0.066 c 0.039 -0.027 0.078 -0.051 0.117 -0.074 c 0.027 -0.02 0.059 -0.039 0.086 -0.059 c 0.012 -0.008 0.027 -0.016 0.039 -0.023 c 0.016 -0.008 0.031 -0.016 0.043 -0.02 c 0.051 -0.027 0.102 -0.055 0.152 -0.078 c 0.043 -0.02 0.086 -0.035 0.129 -0.055 c 0.039 -0.016 0.078 -0.027 0.117 -0.043 c 0.043 -0.016 0.09 -0.031 0.137 -0.043 c 0.039 -0.012 0.078 -0.023 0.121 -0.031 c 0.047 -0.012 0.094 -0.02 0.145 -0.031 c 0.039 -0.008 0.082 -0.012 0.121 -0.016 c 0.047 -0.008 0.094 -0.012 0.137 -0.016 c 0.047 -0.004 0.09 -0.008 0.137 -0.008 c 0.023 0 0.047 -0.004 0.07 -0.004 h 5.105 c -1 -1.922 -2.965 -3.125 -5.105 -3.125 m -4.883 2.746 c -0.582 0.934 -0.891 2.01 -0.891 3.113 c 0 3.238 2.582 5.863 5.773 5.863 c 0.656 0 1.309 -0.117 1.926 -0.34 v -3.605 c -0.02 0.02 -0.043 0.039 -0.063 0.055 c -0.035 0.035 -0.07 0.07 -0.105 0.102 c -0.035 0.031 -0.07 0.059 -0.109 0.09 c -0.031 0.023 -0.063 0.051 -0.098 0.074 c -0.039 0.027 -0.078 0.055 -0.117 0.078 c -0.027 0.02 -0.059 0.035 -0.086 0.055 c -0.012 0.004 -0.027 0.012 -0.039 0.02 c -0.016 0.008 -0.031 0.016 -0.043 0.023 c -0.051 0.027 -0.102 0.051 -0.152 0.074 c -0.043 0.02 -0.086 0.039 -0.129 0.055 c -0.039 0.016 -0.078 0.031 -0.117 0.043 c -0.043 0.016 -0.09 0.031 -0.137 0.047 c -0.039 0.008 -0.078 0.02 -0.121 0.027 c -0.047 0.012 -0.094 0.023 -0.145 0.031 c -0.039 0.008 -0.082 0.016 -0.121 0.02 c -0.047 0.004 -0.094 0.012 -0.137 0.016 c -0.047 0.004 -0.09 0.004 -0.137 0.004 c -0.023 0.004 -0.047 0.004 -0.07 0.008 c -0.031 0 -0.059 -0.004 -0.09 -0.004 c -0.02 0 -0.039 0 -0.063 -0.004 c -0.047 -0.004 -0.098 -0.008 -0.148 -0.012 c -0.039 -0.008 -0.082 -0.012 -0.125 -0.02 c -0.043 -0.008 -0.09 -0.016 -0.133 -0.027 c -0.047 -0.008 -0.09 -0.016 -0.133 -0.027 c -0.039 -0.012 -0.078 -0.023 -0.117 -0.039 c -0.047 -0.012 -0.094 -0.027 -0.141 -0.047 c -0.039 -0.012 -0.074 -0.027 -0.109 -0.043 c -0.047 -0.02 -0.094 -0.043 -0.137 -0.063 c -0.035 -0.02 -0.07 -0.039 -0.105 -0.059 c -0.043 -0.027 -0.09 -0.051 -0.133 -0.078 c -0.031 -0.023 -0.066 -0.047 -0.098 -0.07 c -0.043 -0.027 -0.082 -0.055 -0.121 -0.086 c -0.031 -0.027 -0.066 -0.055 -0.098 -0.082 c -0.035 -0.031 -0.07 -0.063 -0.105 -0.094 c -0.031 -0.031 -0.063 -0.063 -0.09 -0.094 c -0.031 -0.035 -0.063 -0.07 -0.094 -0.105 c -0.031 -0.035 -0.059 -0.07 -0.09 -0.105 c -0.023 -0.035 -0.051 -0.07 -0.074 -0.102 c -0.027 -0.039 -0.051 -0.082 -0.078 -0.121 c -0.016 -0.027 -0.035 -0.059 -0.051 -0.086 m 4.219 -3.324 c 0.02 0.02 0.035 0.043 0.055 0.063 c 0.035 0.035 0.066 0.07 0.098 0.105 c 0.031 0.039 0.059 0.074 0.09 0.113 c 0.023 0.031 0.051 0.066 0.074 0.098 c 0.027 0.039 0.051 0.078 0.074 0.121 c 0.02 0.027 0.039 0.059 0.055 0.086 c 0.008 0.016 0.016 0.027 0.023 0.043 c 0.008 0.012 0.016 0.027 0.023 0.043 c 0.023 0.051 0.051 0.102 0.074 0.152 c 0.016 0.043 0.035 0.086 0.051 0.129 c 0.016 0.039 0.031 0.082 0.043 0.121 c 0.016 0.047 0.031 0.094 0.043 0.141 c 0.012 0.039 0.023 0.078 0.031 0.121 c 0.012 0.047 0.02 0.098 0.031 0.145 c 0.008 0.043 0.012 0.086 0.016 0.125 c 0.004 0.027 0.008 0.051 0.012 0.074 c 0.004 0.023 0.004 0.047 0.004 0.066 c 0.004 0.047 0.004 0.09 0.008 0.137 c 0 0.023 0.004 0.047 0.004 0.07 v 5.184 c 1.895 -1.016 3.078 -3.01 3.078 -5.184 c 0 -0.664 -0.113 -1.324 -0.332 -1.953 m -6.414 0.391 c -0.023 -0.004 -0.039 0 -0.051 0.008 c -0.176 0.125 -0.176 2.984 0 3.109 c 0.172 0.129 2.18 -1.305 2.18 -1.555 c 0 -0.23 -1.762 -1.504 -2.125 -1.563" fill="#fff"/></svg>