<svg xmlns="http://www.w3.org/2000/svg" viewBox="0 0 22 22"><path d="m 11.07 21.918 c -14.625 1.656 -14.426 -22.08 0.258 -21.797 c 13.656 -0.781 14.891 23.09 -0.258 21.797" fill="#2f4e4e"/><path d="m 6.496 17.906 c 0 -0.023 0.027 -0.066 0.059 -0.098 c 0.145 -0.141 -0.023 -0.172 -0.914 -0.172 c -1.102 0 -1.082 0.012 -1.082 -0.594 c 0 -0.359 -0.023 -0.445 -0.195 -0.781 c -0.176 -0.34 -0.191 -0.414 -0.172 -0.707 c 0.016 -0.223 0.07 -0.418 0.18 -0.633 l 0.16 -0.305 l 0.016 -4.625 l 0.016 -4.621 l 0.133 -0.117 l 0.137 -0.117 c 2.363 0 4.723 0 7.086 0 l 0.211 -0.137 c 0.23 -0.156 0.668 -0.242 1.176 -0.23 c 0.578 0.012 0.77 0.055 0.934 0.215 l 0.156 0.148 c 1.012 0.012 2.027 0.02 3.039 0.031 l 0.102 0.121 c 0.09 0.109 0.102 0.211 0.102 0.883 c 0 0.633 0.02 0.813 0.113 1.066 c 0.117 0.328 0.109 0.543 -0.035 1.023 c -0.063 0.215 -0.078 1 -0.078 4.715 c 0 4.391 0 4.461 -0.105 4.563 c -3.746 0.102 -5.262 0.102 -10.316 0.102 c -0.145 0.164 -0.336 0.309 -0.516 0.313 c -0.113 0 -0.203 -0.02 -0.203 -0.043 m 8.734 -3.941 c -0.031 -0.035 -0.105 -0.043 -0.156 -0.023 c -0.094 0.035 -0.094 0.039 0.004 0.109 c 0.125 0.09 0.254 0.012 0.152 -0.086 m 0.363 -0.07 c 0 -0.043 -0.035 -0.078 -0.082 -0.078 c -0.082 0 -0.105 0.059 -0.043 0.121 c 0.063 0.059 0.125 0.035 0.125 -0.043" fill="#ddac95"/><path d="m 6.551 17.914 c 0 -0.02 0.043 -0.063 0.094 -0.098 c 0.078 -0.055 0.082 -0.082 0.023 -0.137 c -0.051 -0.051 -0.32 -0.07 -0.996 -0.086 c -0.508 -0.008 -0.949 -0.035 -0.984 -0.063 c -0.035 -0.027 -0.07 -0.27 -0.086 -0.555 c -0.023 -0.441 -0.047 -0.535 -0.195 -0.789 c -0.094 -0.156 -0.184 -0.391 -0.203 -0.516 c -0.027 -0.199 -0.004 -0.277 0.172 -0.59 l 0.203 -0.363 l 0.02 -4.672 c 0.016 -3.176 0.039 -4.695 0.078 -4.738 c 0.047 -0.055 0.773 -0.066 3.457 -0.07 c 2.125 0 3.488 -0.02 3.637 -0.055 c 0.137 -0.027 0.332 -0.109 0.438 -0.18 c 0.113 -0.074 0.34 -0.152 0.539 -0.184 c 0.387 -0.063 0.355 -0.063 0.723 -0.023 c 0.145 0.016 0.32 0.027 0.387 0.027 c 0.066 0.004 0.219 0.086 0.336 0.191 l 0.219 0.184 l 1.492 0.027 c 1.238 0.023 1.512 0.039 1.59 0.105 c 0.082 0.07 0.094 0.18 0.094 0.836 c 0 0.605 0.02 0.816 0.105 1.078 c 0.113 0.348 0.109 0.539 -0.031 1.012 c -0.063 0.211 -0.074 1.055 -0.074 4.707 c 0 4.246 -0.004 4.453 -0.098 4.535 c -0.09 0.078 -0.527 0.086 -5.137 0.086 c -3.305 0 -5.09 0.02 -5.184 0.055 c -0.082 0.027 -0.195 0.109 -0.25 0.18 c -0.094 0.113 -0.367 0.184 -0.367 0.094 m 2.145 -1.355 c 0.109 -0.082 0.422 -0.293 0.699 -0.469 c 0.516 -0.328 0.574 -0.395 0.738 -0.902 c 0.035 -0.105 0.188 -0.254 0.461 -0.449 c 0.48 -0.348 0.746 -0.668 0.746 -0.895 c 0 -0.086 -0.063 -0.297 -0.141 -0.469 c -0.074 -0.168 -0.16 -0.391 -0.191 -0.488 c -0.027 -0.102 -0.074 -0.203 -0.098 -0.227 c -0.023 -0.023 -0.145 0.16 -0.266 0.406 c -0.262 0.523 -0.605 1.059 -0.633 0.98 c -0.008 -0.031 0.027 -0.188 0.086 -0.348 c 0.25 -0.699 -0.332 -0.25 -0.816 0.629 c -0.145 0.262 -0.262 0.402 -0.418 0.496 c -0.117 0.07 -0.215 0.137 -0.215 0.141 c -0.004 0.008 -0.023 0.234 -0.051 0.504 c -0.039 0.422 -0.121 0.734 -0.297 1.148 c -0.063 0.148 0.168 0.113 0.395 -0.059 m -3.812 -1.086 c 0 -0.059 -0.125 -0.16 -0.199 -0.16 c -0.039 0 -0.07 0.055 -0.07 0.125 c 0 0.102 0.02 0.117 0.133 0.094 c 0.074 -0.012 0.137 -0.039 0.137 -0.059 m 11.04 -0.5 c 0 -0.066 -0.176 -0.617 -0.211 -0.652 c -0.02 -0.02 -0.18 0.004 -0.355 0.055 l -0.316 0.09 l 0.398 0.27 c 0.387 0.258 0.484 0.305 0.484 0.238 m -0.551 -0.82 c 0.246 -0.059 0.34 -0.199 0.266 -0.406 c -0.105 -0.309 -0.254 -0.371 -0.254 -0.105 c 0 0.184 -0.129 0.203 -0.391 0.055 c -0.188 -0.102 -0.25 -0.18 -0.328 -0.391 c -0.055 -0.145 -0.125 -0.277 -0.152 -0.297 c -0.027 -0.016 -0.156 -0.184 -0.285 -0.371 c -0.25 -0.375 -0.598 -0.723 -0.656 -0.664 c -0.023 0.02 0.012 0.184 0.074 0.359 c 0.066 0.188 0.094 0.34 0.066 0.371 c -0.07 0.066 -0.266 -0.117 -0.375 -0.359 c -0.055 -0.113 -0.168 -0.289 -0.258 -0.387 c -0.16 -0.18 -0.16 -0.18 -0.273 -0.082 c -0.133 0.113 -0.383 0.617 -0.383 0.77 c 0 0.219 0.273 0.492 0.801 0.801 c 0.652 0.387 0.957 0.527 1.137 0.527 c 0.078 0 0.195 0.051 0.258 0.113 c 0.121 0.125 0.406 0.152 0.754 0.066 m -6.25 -0.641 c 0.996 -0.453 1.734 -1.18 1.895 -1.863 c 0.039 -0.168 0.031 -0.219 -0.031 -0.254 c -0.094 -0.051 -0.172 -0.324 -0.23 -0.813 c -0.027 -0.219 -0.102 -0.473 -0.184 -0.629 c -0.172 -0.324 -0.465 -1.188 -0.465 -1.371 c 0 -0.156 -0.145 -0.313 -0.254 -0.27 c -0.043 0.016 -0.109 0.027 -0.148 0.027 c -0.039 0 -0.195 0.094 -0.344 0.207 c -0.195 0.148 -0.344 0.328 -0.527 0.652 c -0.145 0.246 -0.297 0.457 -0.34 0.473 c -0.047 0.016 -0.223 0.148 -0.395 0.293 c -0.293 0.246 -0.313 0.273 -0.281 0.441 c 0.082 0.477 0.09 0.715 0.035 0.816 c -0.055 0.098 -0.07 0.102 -0.207 0.031 c -0.316 -0.156 -0.445 -0.047 -0.445 0.367 c 0 0.258 0.07 0.41 0.395 0.879 c 0.613 0.875 0.871 1.137 1.141 1.156 c 0.027 0.004 0.203 -0.063 0.383 -0.145 m -1.121 -0.727 c -0.176 -0.152 -0.176 -0.152 -0.086 -0.309 c 0.09 -0.156 0.09 -0.16 -0.066 -0.309 c -0.242 -0.234 -0.211 -0.289 0.152 -0.285 c 0.172 0.004 0.367 0.035 0.438 0.07 c 0.113 0.059 0.113 0.07 0.035 0.156 c -0.082 0.086 -0.074 0.094 0.113 0.125 c 0.113 0.016 0.344 0.031 0.516 0.031 c 0.168 0 0.309 0.023 0.309 0.051 c 0 0.031 -0.137 0.18 -0.309 0.336 c -0.301 0.277 -0.316 0.285 -0.617 0.285 c -0.27 0 -0.336 -0.02 -0.484 -0.152 m 0.41 -1.926 c 0.02 -0.18 0.043 -0.387 0.051 -0.465 c 0.012 -0.078 0.027 -0.152 0.039 -0.16 c 0.195 -0.156 0.727 -0.457 0.844 -0.477 c 0.191 -0.031 0.723 0.086 0.754 0.168 c 0.012 0.043 -0.063 0.078 -0.199 0.098 c -0.289 0.047 -0.309 0.09 -0.082 0.191 c 0.242 0.113 0.254 0.297 0.023 0.504 c -0.23 0.203 -0.488 0.273 -0.867 0.234 c -0.301 -0.035 -0.316 -0.031 -0.379 0.098 c -0.035 0.07 -0.098 0.129 -0.141 0.129 c -0.066 0 -0.074 -0.055 -0.043 -0.32 m 7.328 0.934 c 0.086 -0.039 0.313 -0.313 0.59 -0.723 c 0.723 -1.055 0.77 -1.168 0.539 -1.406 c -0.156 -0.164 -0.457 -0.195 -0.457 -0.047 c -0.004 0.148 -0.199 0.414 -0.367 0.5 c -0.129 0.063 -0.152 0.105 -0.133 0.211 c 0.023 0.113 0.008 0.129 -0.129 0.129 l -0.152 0.004 l 0.195 0.109 c 0.16 0.086 0.316 0.273 0.316 0.375 c 0 0.008 -0.102 0.078 -0.223 0.156 c -0.215 0.137 -0.227 0.137 -0.563 0.074 c -0.313 -0.059 -0.363 -0.09 -0.586 -0.336 c -0.137 -0.148 -0.246 -0.281 -0.246 -0.293 c 0 -0.035 0.746 -0.109 0.941 -0.102 c 0.137 0.008 0.145 0.004 0.055 -0.035 c -0.059 -0.027 -0.152 -0.063 -0.207 -0.078 c -0.078 -0.023 -0.09 -0.063 -0.063 -0.164 c 0.023 -0.102 0.004 -0.168 -0.082 -0.254 c -0.117 -0.121 -0.129 -0.336 -0.02 -0.371 c 0.035 -0.012 0.074 0.031 0.094 0.094 c 0.027 0.098 0.059 0.109 0.25 0.086 c 0.117 -0.016 0.301 -0.004 0.406 0.027 c 0.254 0.074 0.297 0.016 0.227 -0.309 c -0.051 -0.234 -0.043 -0.301 0.063 -0.566 c 0.191 -0.477 0.191 -0.465 0.035 -0.504 c -0.074 -0.02 -0.188 -0.008 -0.25 0.023 c -0.086 0.043 -0.133 0.039 -0.211 -0.027 c -0.141 -0.121 -0.168 -0.031 -0.094 0.305 c 0.059 0.266 0.055 0.313 -0.043 0.484 c -0.07 0.133 -0.148 0.195 -0.242 0.207 c -0.117 0.012 -0.137 -0.004 -0.133 -0.129 c 0 -0.145 -0.004 -0.145 -0.402 -0.176 c -0.426 -0.027 -0.711 -0.137 -0.82 -0.309 c -0.086 -0.133 -0.176 -0.129 -0.281 0.016 c -0.133 0.18 -0.098 0.371 0.137 0.824 c 0.164 0.309 0.215 0.457 0.191 0.566 c -0.047 0.223 -0.195 0.406 -0.324 0.406 c -0.125 0 -0.402 -0.25 -0.512 -0.453 c -0.035 -0.063 -0.086 -0.117 -0.117 -0.117 c -0.117 0 -0.113 0.176 0.008 0.422 c 0.152 0.313 0.922 1 1.352 1.211 c 0.418 0.203 0.996 0.281 1.254 0.168 m -4.184 -0.316 c 0.074 -0.086 0.336 -0.797 0.375 -1.01 c 0.035 -0.207 -0.059 -0.324 -0.246 -0.313 c -0.133 0.004 -0.133 0.008 -0.02 0.027 c 0.121 0.023 0.125 0.039 0.09 0.316 c -0.039 0.309 -0.23 0.699 -0.414 0.844 c -0.063 0.043 -0.094 0.109 -0.074 0.141 c 0.051 0.078 0.223 0.074 0.289 -0.008 m -5.262 -1.484 c -0.031 -0.055 -0.07 -0.102 -0.082 -0.102 c -0.016 0 -0.027 0.047 -0.027 0.102 c 0 0.059 0.039 0.105 0.086 0.105 c 0.063 0 0.07 -0.023 0.023 -0.105 m 1.527 -1.012 c 0.02 -0.043 0.035 -0.117 0.035 -0.16 c 0 -0.066 -0.016 -0.066 -0.082 -0.016 c -0.086 0.07 -0.113 0.258 -0.031 0.258 c 0.023 0 0.063 -0.035 0.078 -0.082 m -1.66 -0.836 c 0.07 -0.043 0.145 -0.219 0.094 -0.219 c -0.051 0 -0.23 0.168 -0.23 0.215 c 0 0.055 0.063 0.055 0.137 0.004" fill="#c18b75"/><path d="m 6.551 17.914 c 0 -0.02 0.039 -0.063 0.09 -0.094 c 0.051 -0.039 0.074 -0.098 0.055 -0.148 c -0.031 -0.074 -0.148 -0.086 -0.949 -0.086 c -1.148 0 -1.133 0.008 -1.133 -0.66 c 0 -0.367 -0.023 -0.48 -0.113 -0.605 c -0.34 -0.48 -0.363 -0.855 -0.082 -1.336 l 0.195 -0.332 v -4.594 c 0 -4.07 0.008 -4.602 0.082 -4.703 l 0.086 -0.113 h 3.496 c 3.703 0 3.711 -0.004 3.984 -0.238 c 0.152 -0.133 0.781 -0.234 1.23 -0.195 c 0.461 0.035 0.563 0.074 0.766 0.285 l 0.145 0.148 h 1.5 c 1.094 0 1.516 0.016 1.566 0.059 c 0.043 0.043 0.063 0.289 0.063 0.762 c 0 0.547 0.027 0.793 0.117 1.133 c 0.121 0.461 0.121 0.453 -0.066 1.273 c -0.023 0.113 -0.047 2.176 -0.047 4.582 l -0.004 4.375 l -0.121 0.078 c -0.105 0.074 -0.688 0.082 -5.219 0.082 h -5.102 l -0.082 0.121 c -0.105 0.156 -0.457 0.316 -0.457 0.207 m 2.215 -1.352 c 0.188 -0.133 0.504 -0.348 0.707 -0.469 c 0.363 -0.227 0.629 -0.477 0.629 -0.59 c 0 -0.035 0.027 -0.145 0.055 -0.246 c 0.043 -0.148 0.109 -0.215 0.32 -0.324 c 0.289 -0.152 0.758 -0.621 0.918 -0.918 l 0.102 -0.184 l -0.207 -0.488 c -0.113 -0.266 -0.223 -0.582 -0.242 -0.703 c -0.043 -0.246 -0.102 -0.27 -0.281 -0.109 c -0.176 0.16 -0.16 0.031 0.031 -0.262 c 0.082 -0.129 0.195 -0.344 0.246 -0.473 c 0.086 -0.23 0.098 -0.238 0.313 -0.234 l 0.223 0.004 l 0.199 -0.516 c 0.113 -0.281 0.203 -0.57 0.207 -0.641 c 0.008 -0.266 -0.363 -0.422 -0.559 -0.234 c -0.121 0.117 -0.105 0.141 0.078 0.117 c 0.211 -0.031 0.258 0.043 0.113 0.172 c -0.078 0.066 -0.113 0.164 -0.113 0.293 c -0.004 0.105 -0.055 0.27 -0.117 0.371 c -0.102 0.156 -0.117 0.168 -0.176 0.09 c -0.051 -0.066 -0.082 -0.07 -0.129 -0.027 c -0.094 0.09 -0.113 0.043 -0.172 -0.402 c -0.039 -0.293 -0.105 -0.512 -0.242 -0.77 c -0.238 -0.457 -0.512 -1.234 -0.512 -1.453 c 0 -0.352 -0.348 -0.434 -0.758 -0.184 c -0.32 0.203 -0.559 0.457 -0.648 0.695 c -0.043 0.121 -0.254 0.379 -0.543 0.664 c -0.516 0.512 -0.547 0.586 -0.387 0.949 c 0.047 0.105 0.07 0.246 0.051 0.313 c -0.027 0.105 -0.066 0.121 -0.367 0.137 l -0.336 0.016 l -0.031 0.781 l 0.281 0.406 c 0.387 0.574 0.895 1.199 1.016 1.262 c 0.137 0.074 0.449 0.066 0.629 -0.008 c 0.086 -0.035 0.309 -0.156 0.504 -0.266 c 0.191 -0.109 0.367 -0.211 0.387 -0.223 c 0.125 -0.07 0 0.102 -0.305 0.434 c -0.207 0.223 -0.371 0.453 -0.406 0.57 c -0.027 0.105 -0.109 0.285 -0.176 0.398 c -0.102 0.164 -0.156 0.207 -0.281 0.211 c -0.199 0 -0.234 0.094 -0.238 0.621 c -0.004 0.441 -0.109 0.863 -0.285 1.156 c -0.102 0.168 -0.102 0.18 -0.012 0.242 c 0.137 0.098 0.141 0.094 0.516 -0.18 m -0.668 -3.785 c -0.109 -0.055 -0.203 -0.129 -0.203 -0.168 c 0 -0.168 0.172 -0.254 0.594 -0.301 c 0.238 -0.023 0.809 0.016 0.809 0.059 c 0 0.07 -0.305 0.215 -0.508 0.238 c -0.09 0.012 -0.238 0.043 -0.328 0.07 l -0.16 0.047 l 0.199 0.004 c 0.211 0.004 0.309 0.078 0.172 0.129 c -0.152 0.055 -0.371 0.027 -0.574 -0.078 m -0.188 -0.648 c -0.039 -0.016 -0.066 -0.059 -0.066 -0.094 c 0 -0.086 0.367 -0.133 0.504 -0.066 c 0.102 0.051 0.102 0.055 0.004 0.121 c -0.098 0.07 -0.313 0.09 -0.441 0.039 m 1.227 -1.332 c -0.148 -0.148 -0.219 -0.168 -0.219 -0.055 c 0 0.094 -0.191 0.102 -0.25 0.012 c -0.027 -0.035 -0.074 -0.145 -0.109 -0.242 c -0.082 -0.219 -0.031 -0.285 0.418 -0.547 c 0.324 -0.191 0.441 -0.211 0.766 -0.125 c 0.242 0.066 0.223 0.129 -0.066 0.172 c -0.238 0.039 -0.332 0.121 -0.184 0.168 c 0.293 0.086 0.449 0.18 0.449 0.273 c 0 0.109 -0.336 0.418 -0.457 0.418 c -0.039 0 -0.105 0.012 -0.148 0.027 c -0.039 0.016 -0.129 -0.031 -0.199 -0.102 m 0.48 -0.234 c 0 -0.031 -0.008 -0.055 -0.023 -0.055 c -0.012 0 -0.039 0.023 -0.055 0.055 c -0.02 0.027 -0.008 0.051 0.023 0.051 c 0.031 0 0.055 -0.023 0.055 -0.051 m -4.734 4.91 c 0 -0.059 -0.125 -0.16 -0.199 -0.16 c -0.039 0 -0.07 0.055 -0.07 0.121 c 0 0.105 0.02 0.121 0.133 0.098 c 0.074 -0.012 0.137 -0.039 0.137 -0.059 m 11.195 -0.348 c 0 -0.016 -0.063 -0.223 -0.137 -0.457 c -0.109 -0.34 -0.16 -0.434 -0.254 -0.457 c -0.094 -0.023 -0.105 -0.043 -0.055 -0.094 c 0.109 -0.105 0.078 -0.426 -0.055 -0.617 c -0.129 -0.184 -0.336 -0.277 -0.273 -0.129 c 0.016 0.047 0.016 0.137 0 0.207 c -0.07 0.266 -0.461 -0.043 -0.578 -0.449 c -0.031 -0.121 -0.148 -0.313 -0.254 -0.43 c -0.109 -0.117 -0.352 -0.398 -0.539 -0.625 c -0.191 -0.227 -0.438 -0.465 -0.551 -0.531 c -0.113 -0.07 -0.234 -0.172 -0.266 -0.234 c -0.035 -0.059 -0.133 -0.148 -0.215 -0.195 l -0.152 -0.09 l -0.078 0.223 c -0.258 0.703 -0.418 1.223 -0.418 1.34 c 0 0.285 0.309 0.559 1.129 1.01 c 0.52 0.285 0.832 0.43 0.945 0.43 c 0.109 0 0.215 0.043 0.297 0.129 c 0.07 0.07 0.18 0.129 0.246 0.129 c 0.086 0 0.113 0.023 0.098 0.09 c -0.02 0.063 0.055 0.145 0.254 0.27 c 0.152 0.102 0.379 0.258 0.5 0.348 c 0.203 0.156 0.355 0.215 0.355 0.137 m -0.836 -0.844 c 0.02 -0.031 0.074 -0.051 0.125 -0.051 c 0.078 0 0.082 0.008 0.012 0.051 c -0.105 0.063 -0.176 0.063 -0.137 0 m 0.496 -2.426 c 0.113 -0.066 0.383 -0.402 0.754 -0.934 c 0.543 -0.785 0.578 -0.848 0.598 -1.137 c 0.027 -0.383 -0.031 -0.473 -0.273 -0.41 c -0.094 0.02 -0.273 0.051 -0.398 0.066 c -0.219 0.023 -0.223 0.02 -0.258 -0.156 c -0.027 -0.141 0.004 -0.266 0.141 -0.563 c 0.094 -0.211 0.156 -0.395 0.141 -0.414 c -0.02 -0.016 -0.164 -0.031 -0.32 -0.035 c -0.156 0 -0.316 -0.023 -0.355 -0.051 c -0.129 -0.098 -0.281 0.105 -0.281 0.379 c 0 0.277 0 0.281 -0.492 0.336 c -0.344 0.039 -0.621 -0.055 -0.801 -0.273 c -0.148 -0.184 -0.133 -0.266 0.059 -0.344 l 0.168 -0.066 l -0.137 -0.086 c -0.129 -0.082 -0.137 -0.078 -0.301 0.109 c -0.09 0.105 -0.215 0.238 -0.273 0.297 c -0.074 0.074 -0.125 0.242 -0.172 0.551 c -0.066 0.438 -0.074 0.449 -0.324 0.66 c -0.297 0.254 -0.313 0.336 -0.117 0.707 c 0.125 0.246 0.672 0.773 1.129 1.094 c 0.484 0.34 1.184 0.461 1.52 0.27 m -0.449 -0.781 c -0.203 -0.059 -0.66 -0.434 -0.598 -0.492 c 0.023 -0.023 0.227 -0.043 0.457 -0.043 c 0.32 -0.004 0.465 0.02 0.629 0.105 c 0.293 0.145 0.316 0.305 0.059 0.406 c -0.211 0.086 -0.305 0.09 -0.547 0.023 m 0.148 -1.094 c -0.133 -0.078 -0.164 -0.117 -0.109 -0.145 c 0.113 -0.063 0.27 -0.066 0.52 -0.023 c 0.379 0.066 0.371 0.199 -0.016 0.25 c -0.164 0.02 -0.262 0 -0.395 -0.082 m -4.156 0.875 c 0 -0.051 -0.023 -0.078 -0.051 -0.063 c -0.031 0.02 -0.055 0.094 -0.055 0.172 c 0 0.109 0.012 0.121 0.055 0.063 c 0.027 -0.043 0.051 -0.121 0.051 -0.172 m -4.145 -0.426 c 0 -0.039 -0.035 -0.074 -0.078 -0.074 c -0.086 0 -0.109 0.059 -0.047 0.121 c 0.063 0.059 0.125 0.035 0.125 -0.047 m -0.859 -0.438 c -0.031 -0.055 -0.07 -0.102 -0.082 -0.102 c -0.016 0 -0.027 0.047 -0.027 0.102 c 0 0.059 0.039 0.105 0.086 0.105 c 0.063 0 0.07 -0.023 0.023 -0.105 m 1.527 -1.012 c 0.02 -0.043 0.035 -0.117 0.035 -0.16 c 0 -0.066 -0.016 -0.066 -0.082 -0.016 c -0.086 0.07 -0.113 0.258 -0.031 0.258 c 0.023 0 0.063 -0.035 0.078 -0.082 m -1.66 -0.836 c 0.07 -0.043 0.145 -0.219 0.094 -0.219 c -0.051 0 -0.23 0.168 -0.23 0.215 c 0 0.055 0.063 0.055 0.137 0.004" fill="#b4589c"/><path d="m 5.75 17.586 c -1.191 -0.031 -1.137 0 -1.137 -0.707 c 0 -0.266 0.02 -0.48 0.043 -0.48 c 0.023 0 0.102 0.059 0.172 0.129 c 0.152 0.156 0.988 0.551 1.402 0.664 c 0.281 0.078 0.57 0.285 0.527 0.379 c -0.012 0.023 -0.465 0.031 -1.01 0.016 m 1.262 -0.117 c -0.016 -0.063 -0.039 -0.266 -0.059 -0.449 c -0.094 -0.918 -0.344 -1.555 -0.758 -1.934 c -0.238 -0.223 -0.43 -0.328 -0.484 -0.273 c -0.059 0.055 0.105 0.32 0.352 0.57 c 0.145 0.148 0.281 0.332 0.301 0.41 c 0.051 0.191 0.008 0.176 -0.18 -0.066 c -0.086 -0.113 -0.258 -0.277 -0.383 -0.363 c -0.262 -0.184 -0.434 -0.434 -0.434 -0.633 c -0.012 -0.145 -0.125 -0.195 -0.191 -0.301 c -0.047 -0.141 -0.141 -0.121 -0.309 0.063 c -0.078 0.086 -0.168 0.145 -0.199 0.125 c -0.063 -0.039 -0.078 -1.371 -0.016 -1.371 c 0.023 0 0.082 0.137 0.133 0.297 c 0.152 0.48 0.359 0.742 0.734 0.938 c 0.359 0.18 1.449 1.035 1.551 1.215 c 0.035 0.059 0.082 0.203 0.102 0.316 c 0.055 0.309 0.113 0.391 0.16 0.215 c 0.063 -0.238 -0.02 -0.656 -0.148 -0.758 c -0.133 -0.102 -0.156 -0.047 0.277 -0.602 c 0.133 -0.168 0.355 -0.426 0.5 -0.578 c 0.141 -0.152 0.258 -0.293 0.258 -0.309 c 0 -0.125 -0.543 -0.664 -0.859 -0.863 c -0.207 -0.125 -0.398 -0.273 -0.43 -0.328 c -0.031 -0.059 -0.043 -0.227 -0.023 -0.41 c 0.02 -0.18 0.012 -0.316 -0.02 -0.336 c -0.035 -0.02 -0.027 -0.129 0.023 -0.305 c 0.086 -0.313 0.063 -0.504 -0.094 -0.785 c -0.07 -0.125 -0.102 -0.246 -0.082 -0.324 c 0.043 -0.16 -0.051 -0.324 -0.188 -0.324 c -0.059 0 -0.105 -0.02 -0.105 -0.039 c 0 -0.074 0.477 -0.316 0.684 -0.355 c 0.113 -0.02 0.277 -0.07 0.359 -0.109 c 0.152 -0.074 0.156 -0.07 0.129 0.031 c -0.055 0.195 0.078 0.117 0.543 -0.328 c 0.254 -0.242 0.469 -0.43 0.477 -0.422 c 0.078 0.074 -0.113 0.355 -0.473 0.711 c -0.465 0.453 -0.496 0.539 -0.34 0.898 c 0.047 0.105 0.07 0.25 0.051 0.313 c -0.027 0.109 -0.066 0.121 -0.367 0.137 l -0.336 0.016 l -0.031 0.781 l 0.277 0.406 c 0.391 0.574 0.895 1.203 1.02 1.266 c 0.137 0.07 0.445 0.066 0.629 -0.012 c 0.086 -0.035 0.309 -0.152 0.5 -0.266 c 0.195 -0.109 0.371 -0.211 0.391 -0.223 c 0.121 -0.07 0 0.105 -0.305 0.434 c -0.207 0.223 -0.371 0.453 -0.406 0.57 c -0.031 0.105 -0.109 0.285 -0.18 0.398 c -0.098 0.164 -0.152 0.207 -0.277 0.211 c -0.199 0 -0.234 0.094 -0.238 0.621 c -0.004 0.445 -0.109 0.863 -0.285 1.156 c -0.102 0.168 -0.102 0.18 -0.012 0.246 c 0.137 0.094 0.141 0.09 0.516 -0.18 c 0.188 -0.137 0.504 -0.352 0.707 -0.473 c 0.363 -0.227 0.629 -0.477 0.629 -0.59 c 0.004 -0.25 0.117 -0.43 0.355 -0.547 c 0.273 -0.141 0.785 -0.652 0.938 -0.941 l 0.102 -0.184 l -0.207 -0.488 c -0.113 -0.266 -0.223 -0.582 -0.242 -0.703 c -0.043 -0.246 -0.102 -0.27 -0.281 -0.109 c -0.176 0.16 -0.16 0.031 0.031 -0.262 c 0.082 -0.129 0.195 -0.348 0.25 -0.484 c 0.066 -0.172 0.117 -0.238 0.172 -0.219 c 0.121 0.035 0.355 0 0.285 0.129 c -0.086 0.148 -0.063 0.617 0.039 0.906 c 0.09 0.246 0.578 0.891 0.68 0.898 c 0.074 0.008 -0.008 -0.301 -0.125 -0.453 c -0.055 -0.078 -0.152 -0.285 -0.215 -0.465 c -0.152 -0.43 -0.152 -1.387 0.004 -1.805 c 0.055 -0.148 0.098 -0.324 0.098 -0.391 c 0 -0.246 -0.375 -0.387 -0.559 -0.211 c -0.215 0.277 0.484 0.016 0.188 0.289 c -0.074 0.066 -0.113 0.164 -0.113 0.293 c 0 0.105 -0.051 0.27 -0.113 0.371 c -0.102 0.156 -0.121 0.168 -0.18 0.09 c -0.047 -0.066 -0.078 -0.07 -0.125 -0.027 c -0.094 0.09 -0.113 0.043 -0.172 -0.402 c -0.039 -0.293 -0.105 -0.512 -0.242 -0.77 c -0.238 -0.457 -0.512 -1.234 -0.512 -1.453 c 0 -0.207 -0.121 -0.328 -0.328 -0.328 c -0.219 0 -0.445 0.117 -0.762 0.402 l -0.27 0.242 l 0.09 -0.207 c 0.082 -0.191 0.164 -0.285 0.535 -0.582 c 0.078 -0.063 0.141 -0.156 0.141 -0.207 c 0 -0.152 -0.152 -0.313 -0.336 -0.352 c -0.242 -0.047 -0.293 -0.086 -0.172 -0.129 c 0.191 -0.074 0.656 -0.051 0.988 0.051 c 0.344 0.102 0.402 0.082 0.219 -0.074 c -0.129 -0.113 -0.137 -0.18 -0.012 -0.184 c 0.238 -0.012 -0.41 -0.211 -0.758 -0.234 c -0.539 -0.035 -0.656 -0.063 -0.586 -0.133 c 0.09 -0.086 0.887 -0.063 1.238 0.039 c 0.172 0.043 0.383 0.129 0.477 0.184 c 0.121 0.07 0.184 0.082 0.211 0.043 c 0.02 -0.031 0.086 -0.047 0.145 -0.031 c 0.086 0.023 0.07 -0.012 -0.074 -0.156 l -0.18 -0.184 l 0.215 0.09 c 0.27 0.113 0.512 0.156 0.512 0.09 c 0 -0.074 -0.273 -0.32 -0.453 -0.41 c -0.25 -0.125 -0.715 -0.164 -1.238 -0.105 c -0.453 0.047 -0.742 0.031 -1.457 -0.094 l -0.164 -0.031 l 0.176 0.152 l 0.18 0.148 l -0.398 0.035 c -0.219 0.016 -0.469 0.055 -0.551 0.086 c -0.281 0.102 -1.344 0.867 -1.516 1.09 c -0.098 0.125 -0.25 0.316 -0.336 0.426 c -0.418 0.516 -0.531 1.324 -0.258 1.824 c 0.082 0.148 0.191 0.313 0.25 0.363 c 0.113 0.227 0.063 0.504 0.059 0.754 c 0 0.07 -0.051 0.281 -0.109 0.469 c -0.098 0.301 -0.141 0.363 -0.406 0.559 c -0.195 0.148 -0.336 0.305 -0.414 0.465 c -0.063 0.133 -0.137 0.23 -0.16 0.215 c -0.02 -0.012 -0.039 -1.68 -0.039 -3.703 c 0 -3.246 0.008 -3.691 0.082 -3.793 l 0.086 -0.117 h 3.496 c 3.703 0 3.711 0 3.984 -0.238 c 0.152 -0.129 0.781 -0.23 1.23 -0.195 c 0.414 0.035 0.586 0.102 0.793 0.313 l 0.117 0.121 h 1.5 c 1.094 0 1.516 0.02 1.563 0.063 c 0.047 0.043 0.066 0.285 0.066 0.762 c 0 0.543 0.023 0.793 0.117 1.133 c 0.121 0.461 0.121 0.453 -0.066 1.273 c -0.023 0.113 -0.047 2.176 -0.047 4.582 l -0.004 4.371 l -0.121 0.082 c -0.105 0.07 -0.691 0.082 -5.246 0.082 h -5.129 m 9.04 -2.461 c 0 -0.016 -0.063 -0.223 -0.137 -0.457 c -0.109 -0.34 -0.16 -0.434 -0.254 -0.457 c -0.094 -0.023 -0.105 -0.043 -0.055 -0.094 c 0.109 -0.105 0.078 -0.426 -0.055 -0.617 c -0.129 -0.184 -0.336 -0.277 -0.273 -0.129 c 0.016 0.047 0.016 0.137 0 0.207 c -0.07 0.266 -0.461 -0.043 -0.578 -0.449 c -0.031 -0.121 -0.148 -0.313 -0.258 -0.43 c -0.105 -0.117 -0.348 -0.398 -0.535 -0.625 c -0.191 -0.227 -0.438 -0.465 -0.551 -0.531 c -0.203 -0.102 -0.301 -0.328 -0.48 -0.43 l -0.152 -0.09 l -0.082 0.223 c -0.254 0.703 -0.414 1.223 -0.414 1.34 c 0 0.285 0.309 0.559 1.129 1.012 c 0.52 0.281 0.832 0.426 0.945 0.426 c 0.109 0 0.215 0.043 0.297 0.129 c 0.121 0.113 0.305 0.113 0.344 0.219 c -0.02 0.063 0.055 0.145 0.254 0.27 c 0.152 0.102 0.379 0.258 0.5 0.348 c 0.203 0.156 0.355 0.215 0.355 0.137 m -0.836 -0.844 c 0.02 -0.031 0.074 -0.051 0.125 -0.051 c 0.035 0.027 -0.086 0.07 -0.125 0.051 m 0.496 -2.426 c 0.113 -0.066 0.383 -0.402 0.754 -0.934 c 0.543 -0.785 0.574 -0.848 0.598 -1.137 c 0.027 -0.383 -0.031 -0.473 -0.273 -0.41 c -0.098 0.02 -0.273 0.051 -0.398 0.066 c -0.219 0.023 -0.223 0.02 -0.258 -0.156 c -0.027 -0.141 0.004 -0.266 0.141 -0.563 c 0.094 -0.211 0.156 -0.395 0.141 -0.414 c -0.02 -0.016 -0.164 -0.031 -0.32 -0.035 c -0.156 0 -0.316 -0.023 -0.355 -0.051 c -0.129 -0.098 -0.281 0.105 -0.281 0.379 c 0 0.277 0 0.281 -0.492 0.336 c -0.344 0.039 -0.621 -0.055 -0.801 -0.273 c -0.148 -0.184 -0.133 -0.266 0.059 -0.344 l 0.168 -0.066 l -0.137 -0.086 c -0.129 -0.082 -0.137 -0.078 -0.301 0.109 c -0.09 0.105 -0.215 0.238 -0.273 0.297 c -0.074 0.074 -0.129 0.242 -0.172 0.551 c -0.066 0.438 -0.074 0.449 -0.324 0.66 c -0.297 0.254 -0.313 0.336 -0.117 0.707 c 0.125 0.246 0.672 0.773 1.129 1.094 c 0.484 0.34 1.184 0.461 1.516 0.27 m -0.449 -0.781 c -0.199 -0.059 -0.656 -0.434 -0.594 -0.492 c 0.02 -0.023 0.227 -0.043 0.457 -0.043 c 0.32 -0.004 0.465 0.02 0.629 0.105 c 0.293 0.145 0.316 0.305 0.059 0.406 c -0.211 0.086 -0.305 0.09 -0.551 0.023 m 0.152 -1.094 c -0.133 -0.078 -0.164 -0.117 -0.109 -0.145 c 0.113 -0.063 0.27 -0.066 0.52 -0.023 c 0.379 0.066 0.371 0.199 -0.016 0.25 c -0.164 0.02 -0.262 0 -0.395 -0.082 m -4.156 0.875 c 0 -0.051 -0.023 -0.078 -0.051 -0.063 c -0.031 0.02 -0.055 0.094 -0.055 0.172 c 0.023 0.207 0.09 -0.023 0.105 -0.109 m -4.145 -0.426 c 0 -0.039 -0.035 -0.074 -0.078 -0.074 c -0.086 0 -0.109 0.059 -0.047 0.121 c 0.063 0.059 0.125 0.035 0.125 -0.047 m 0.957 2.348 c -0.109 -0.055 -0.203 -0.133 -0.203 -0.168 c 0 -0.168 0.168 -0.254 0.594 -0.301 c 0.238 -0.027 0.809 0.016 0.809 0.059 c 0 0.07 -0.305 0.215 -0.508 0.238 c -0.09 0.012 -0.238 0.043 -0.328 0.07 l -0.16 0.047 l 0.195 0.004 c 0.215 0.004 0.313 0.078 0.176 0.129 c -0.152 0.055 -0.371 0.027 -0.574 -0.078 m -2.25 -0.25 c 0.059 -0.117 0.18 -0.18 0.082 -0.035 c -0.105 0.156 -0.164 0.18 -0.082 0.035 m 2.063 -0.398 c -0.039 -0.016 -0.066 -0.059 -0.066 -0.094 c 0 -0.086 0.367 -0.133 0.504 -0.066 c 0.102 0.051 0.102 0.055 0.004 0.121 c -0.098 0.07 -0.313 0.09 -0.441 0.039 m -1.363 -0.863 c -0.203 -0.262 -0.277 -0.395 -0.219 -0.395 c 0.074 0 0.348 0.391 0.32 0.457 c -0.008 0.027 -0.055 0 -0.102 -0.063 m 2.59 -0.473 c -0.148 -0.148 -0.219 -0.164 -0.219 -0.051 c 0 0.094 -0.191 0.102 -0.25 0.012 c -0.027 -0.035 -0.074 -0.145 -0.109 -0.242 c -0.082 -0.219 -0.031 -0.285 0.418 -0.547 c 0.324 -0.191 0.441 -0.211 0.762 -0.125 c 0.246 0.066 0.227 0.129 -0.063 0.172 c -0.238 0.035 -0.332 0.121 -0.184 0.164 c 0.293 0.09 0.449 0.184 0.449 0.277 c 0 0.105 -0.336 0.418 -0.457 0.418 c -0.039 0 -0.105 0.012 -0.148 0.027 c -0.039 0.016 -0.129 -0.031 -0.203 -0.105 m 0.484 -0.23 c 0 -0.031 -0.012 -0.055 -0.023 -0.055 c -0.012 0 -0.039 0.023 -0.055 0.055 c -0.02 0.027 -0.008 0.051 0.023 0.051 c 0.031 0 0.055 -0.023 0.055 -0.051 m -3.742 -0.434 c -0.07 -0.164 0.02 -0.75 0.168 -1.07 c 0.203 -0.426 0.707 -0.875 1.297 -1.145 c 0.25 -0.113 0.465 -0.195 0.477 -0.184 c 0.016 0.016 -0.063 0.09 -0.176 0.172 c -0.109 0.078 -0.305 0.238 -0.434 0.355 c -0.125 0.117 -0.367 0.281 -0.539 0.367 c -0.262 0.133 -0.328 0.195 -0.461 0.449 c -0.094 0.18 -0.18 0.465 -0.223 0.723 c -0.043 0.293 -0.078 0.398 -0.109 0.332 m 1.59 -1.449 c 0.063 -0.34 0.91 -0.859 0.48 -0.508 c -0.094 0.074 -0.242 0.23 -0.328 0.34 c -0.082 0.113 -0.152 0.188 -0.152 0.168" fill="#96535b"/><path d="m 4.828 17.531 c -0.191 -0.078 -0.215 -0.137 -0.215 -0.578 c 0 -0.445 0.027 -0.469 0.289 -0.281 c 0.281 0.203 0.578 0.344 1.031 0.492 c 0.48 0.152 0.723 0.285 0.652 0.352 c -0.066 0.066 -1.598 0.078 -1.758 0.016 m 2.25 -0.07 c -0.074 -0.16 0.02 -0.402 0.195 -0.516 c 0.07 -0.043 0.137 -0.129 0.152 -0.195 c 0.016 -0.066 0.066 -0.211 0.113 -0.328 c 0.098 -0.242 0.113 -0.641 0.027 -0.816 c -0.031 -0.07 -0.117 -0.152 -0.188 -0.184 c -0.137 -0.059 -0.164 -0.133 -0.074 -0.188 c 0.031 -0.016 0.172 -0.199 0.316 -0.406 c 0.148 -0.207 0.324 -0.41 0.395 -0.457 c 0.094 -0.059 0.348 -0.367 0.449 -0.543 c 0.02 -0.035 0.68 -0.176 0.703 -0.152 c 0.016 0.016 0.008 0.129 -0.016 0.25 c -0.043 0.207 -0.066 0.234 -0.355 0.375 c -0.273 0.129 -0.309 0.164 -0.316 0.309 c 0 0.09 -0.008 0.406 -0.016 0.703 c -0.008 0.438 -0.039 0.617 -0.156 0.934 c -0.188 0.512 -0.188 0.566 0.023 0.566 c 0.105 0 0.242 -0.063 0.391 -0.176 c 0.121 -0.094 0.441 -0.301 0.707 -0.461 c 0.609 -0.359 0.711 -0.465 0.781 -0.809 c 0.027 -0.152 0.055 -0.281 0.055 -0.289 c 0 -0.012 0.152 -0.102 0.344 -0.203 c 0.363 -0.195 0.766 -0.57 0.918 -0.852 c 0.09 -0.168 0.09 -0.176 -0.074 -0.516 c -0.16 -0.332 -0.211 -0.57 -0.125 -0.57 c 0.02 0 0.137 0.055 0.254 0.117 c 0.152 0.082 0.254 0.188 0.34 0.363 c 0.133 0.27 0.238 0.34 0.363 0.242 c 0.129 -0.105 0.09 -0.32 -0.109 -0.641 c -0.363 -0.578 -0.434 -1.012 -0.262 -1.609 c 0.047 -0.168 0.094 -0.508 0.105 -0.75 c 0.016 -0.395 0.004 -0.457 -0.09 -0.543 c -0.133 -0.113 -0.434 -0.121 -0.566 -0.02 c -0.125 0.102 -0.238 0.371 -0.238 0.578 c 0 0.094 -0.023 0.203 -0.055 0.246 c -0.039 0.059 -0.051 0.031 -0.051 -0.109 c 0 -0.105 -0.051 -0.344 -0.113 -0.531 c -0.176 -0.547 -0.09 -0.848 0.164 -0.586 l 0.117 0.117 l 0.156 -0.172 c 0.176 -0.184 0.266 -0.176 0.266 0.02 c 0 0.16 0.094 0.168 0.117 0.012 c 0.02 -0.121 0.051 -0.129 0.219 -0.063 c 0.129 0.047 0.125 -0.113 -0.008 -0.531 c -0.059 -0.18 -0.086 -0.324 -0.066 -0.324 c 0.09 0 0.168 0.137 0.168 0.289 c 0 0.176 0.117 0.332 0.246 0.332 c 0.102 0 0.098 -0.148 -0.004 -0.387 c -0.133 -0.301 -0.066 -0.41 0.078 -0.133 l 0.117 0.234 l -0.023 -0.309 c -0.027 -0.367 -0.176 -0.75 -0.289 -0.75 c -0.051 0 -0.066 0.031 -0.043 0.102 c 0.043 0.137 -0.094 0.191 -0.281 0.109 c -0.152 -0.082 -0.223 0.059 -0.363 0.035 c -0.211 -0.027 -0.207 0.195 -0.387 0.238 c -0.215 0.082 -0.316 0.266 -0.469 0.168 c -0.176 -0.109 -0.191 -0.109 -0.246 0.031 c -0.047 0.113 -0.047 0.113 -0.105 -0.031 c -0.031 -0.078 -0.059 -0.199 -0.059 -0.266 c 0 -0.078 -0.066 -0.172 -0.176 -0.254 c -0.156 -0.121 -0.164 -0.133 -0.059 -0.133 c 0.285 -0.004 0.371 -0.137 0.199 -0.32 c -0.113 -0.117 -0.008 -0.129 0.195 -0.016 c 0.352 0.152 0.266 -0.195 0.41 -0.313 c 0.102 0.051 0.176 0.066 0.234 0.023 c 0.125 -0.027 0.203 0.16 0.297 0.043 c 0.035 -0.051 0.113 -0.09 0.168 -0.094 c 0.148 0 0.289 -0.121 0.289 -0.246 c 0 -0.18 -0.344 -0.496 -0.711 -0.66 c -0.359 -0.156 -0.379 -0.156 -1.762 -0.121 c -0.414 0.012 -0.66 -0.008 -0.91 -0.074 c -0.379 -0.098 -0.449 -0.082 -0.305 0.07 c 0.121 0.129 0.102 0.152 -0.168 0.191 c -0.293 0.043 -0.625 0.211 -1.121 0.57 c -0.238 0.172 -0.57 0.387 -0.742 0.477 c -0.246 0.133 -0.301 0.184 -0.25 0.238 c 0.043 0.055 0.027 0.109 -0.074 0.238 c -0.391 0.496 -0.613 1.184 -0.527 1.621 c 0.023 0.113 0.117 0.344 0.215 0.516 c 0.141 0.254 0.176 0.391 0.203 0.758 c 0.043 0.609 -0.031 0.781 -0.551 1.293 c -0.223 0.223 -0.418 0.402 -0.43 0.402 c -0.016 0 -0.023 -1.613 -0.023 -3.586 c 0 -3.336 0.004 -3.59 0.094 -3.691 c 0.094 -0.109 0.109 -0.109 3.707 -0.125 l 3.617 -0.012 l 0.176 -0.125 c 0.184 -0.129 0.672 -0.277 0.91 -0.273 c 0.141 0 0.594 0.055 0.781 0.09 c 0.059 0.012 0.16 0.066 0.219 0.117 c 0.23 0.211 0.301 0.219 1.813 0.219 c 1.074 0 1.488 0.016 1.535 0.063 c 0.047 0.043 0.066 0.316 0.066 0.902 c 0 0.629 0.023 0.922 0.09 1.156 c 0.086 0.289 0.086 0.332 0 0.684 c -0.082 0.332 -0.09 0.828 -0.09 4.871 c 0 4.125 -0.008 4.508 -0.09 4.57 c -0.074 0.059 -0.961 0.074 -5.195 0.086 l -5.105 0.016 m 9.129 -2.734 c -0.246 -0.809 -0.281 -0.891 -0.363 -0.871 c -0.039 0.004 -0.074 -0.047 -0.086 -0.117 c -0.055 -0.398 -0.246 -0.672 -0.469 -0.672 c -0.051 0 -0.164 -0.051 -0.254 -0.113 c -0.156 -0.105 -0.16 -0.125 -0.133 -0.383 c 0.043 -0.426 0.125 -0.539 0.465 -0.648 c 0.379 -0.125 0.512 -0.25 1.023 -0.973 c 0.492 -0.699 0.574 -0.844 0.641 -1.141 c 0.07 -0.297 0.02 -0.719 -0.09 -0.719 c -0.043 0 -0.113 -0.043 -0.152 -0.09 c -0.152 -0.102 -0.207 0.082 -0.309 0.063 c -0.035 -0.086 -0.195 -0.105 -0.195 -0.023 c 0 0.027 -0.023 0.051 -0.055 0.051 c -0.074 0 -0.066 -0.172 0.012 -0.25 c 0.098 -0.094 0.359 -0.074 0.512 0.043 c 0.164 0.121 0.262 0.133 0.305 0.023 c 0.086 -0.219 -0.164 -0.438 -0.508 -0.438 c -0.199 0 -0.203 -0.063 -0.012 -0.195 l 0.148 -0.105 l -0.133 -0.102 c -0.09 -0.07 -0.164 -0.09 -0.215 -0.063 c -0.164 0.023 -0.254 -0.113 -0.383 -0.051 c -0.102 0.055 -0.133 0.051 -0.184 -0.02 c -0.09 -0.117 -0.141 -0.105 -0.27 0.051 c -0.129 0.152 -0.066 0.156 -1.059 -0.082 l -0.355 -0.09 l -0.195 0.176 c -0.105 0.098 -0.195 0.199 -0.195 0.227 c 0 0.027 -0.047 0.047 -0.102 0.047 c -0.121 0 -0.141 0.059 -0.195 0.488 c -0.047 0.402 -0.09 0.504 -0.379 0.875 c -0.199 0.254 -0.242 0.34 -0.215 0.461 c 0.023 0.121 0.016 0.141 -0.066 0.117 c -0.055 -0.016 -0.145 0.004 -0.199 0.043 c -0.094 0.063 -0.105 0.141 -0.109 0.633 c 0 0.5 -0.02 0.609 -0.176 1.02 c -0.234 0.625 -0.227 0.707 0.082 1.012 c 0.297 0.293 1.738 1.086 1.973 1.086 c 0.086 0 0.168 0.043 0.207 0.105 c 0.039 0.059 0.254 0.234 0.48 0.387 c 0.227 0.152 0.625 0.441 0.887 0.645 c 0.262 0.199 0.484 0.34 0.496 0.309 c 0.012 -0.031 -0.066 -0.352 -0.176 -0.715 m -1.457 -6.102 c 0.02 -0.027 0.043 -0.051 0.059 -0.051 c 0.012 0 0.023 0.023 0.023 0.051 c 0 0.027 -0.027 0.051 -0.059 0.051 c -0.031 0 -0.043 -0.023 -0.023 -0.051 m -0.508 -0.141 c -0.152 -0.184 -0.082 -0.234 0.32 -0.242 c 0.301 -0.004 0.344 0.008 0.461 0.141 c 0.074 0.078 0.129 0.172 0.129 0.207 c 0 0.039 -0.016 0.035 -0.047 -0.012 c -0.035 -0.051 -0.105 -0.063 -0.242 -0.043 c -0.105 0.016 -0.207 0.008 -0.223 -0.02 c -0.051 -0.074 -0.188 -0.055 -0.188 0.031 c 0 0.117 -0.086 0.094 -0.211 -0.063 m 2.687 -0.273 c 0 -0.027 -0.023 -0.051 -0.051 -0.051 c -0.031 0 -0.055 0.023 -0.055 0.051 c 0 0.027 0.023 0.051 0.055 0.051 c 0.027 0 0.051 -0.023 0.051 -0.051 m -12.379 5.703 c 0 -0.566 0.055 -0.59 0.266 -0.121 c 0.113 0.258 0.113 0.266 0.016 0.426 c -0.055 0.09 -0.141 0.172 -0.191 0.18 c -0.082 0.016 -0.09 -0.039 -0.09 -0.484 m 2.746 -3.105 c -0.09 -0.063 -0.137 -0.07 -0.152 -0.023 c -0.055 0.156 -0.281 0.027 -0.281 -0.164 c 0 -0.066 0.359 -0.188 0.563 -0.188 c 0.273 0 0.43 0.367 0.18 0.43 c -0.168 0.043 -0.16 0.043 -0.309 -0.055 m 1.746 -0.277 c -0.023 -0.035 -0.105 -0.047 -0.195 -0.027 c -0.258 0.051 -0.02 -0.227 -0.199 -0.227 c -0.164 0 -0.141 -0.07 0.059 -0.219 c 0.277 -0.203 0.508 -0.297 0.699 -0.297 c 0.176 0.004 0.176 0.008 -0.094 0.121 c -0.145 0.066 -0.305 0.16 -0.348 0.215 c -0.078 0.086 -0.07 0.09 0.113 0.063 c 0.215 -0.031 0.566 0.027 0.652 0.109 c 0.031 0.027 0.039 0.094 0.02 0.145 c -0.039 0.09 -0.043 0.09 -0.094 0.004 c -0.074 -0.129 -0.203 -0.109 -0.262 0.039 c -0.055 0.137 -0.281 0.184 -0.352 0.074 m -1.801 -0.355 c -0.102 -0.063 -0.027 -0.137 0.176 -0.184 c 0.086 -0.023 0.148 -0.016 0.148 0.016 c 0 0.031 0.012 0.09 0.031 0.137 c 0.023 0.063 -0.004 0.082 -0.121 0.078 c -0.086 0 -0.191 -0.02 -0.234 -0.047 m -0.453 -0.125 c 0.027 -0.07 0.184 -0.133 0.332 -0.137 c 0.098 0 0.082 0.141 -0.02 0.176 c -0.16 0.059 -0.344 0.035 -0.313 -0.039" fill="#2d9462"/><path d="m 6.469 17.48 c -0.02 -0.031 -0.023 -0.07 -0.008 -0.082 c 0.039 -0.039 0.145 0.027 0.145 0.086 c 0 0.066 -0.094 0.063 -0.137 -0.004 m 0.621 -0.301 c 0 -0.035 0.066 -0.129 0.152 -0.203 c 0.176 -0.145 0.223 -0.367 0.297 -0.555 c 0.098 -0.242 0.109 -0.641 0.027 -0.816 c -0.031 -0.07 -0.117 -0.152 -0.188 -0.184 c -0.137 -0.059 -0.164 -0.133 -0.074 -0.188 c 0.031 -0.016 0.172 -0.199 0.316 -0.406 c 0.148 -0.207 0.324 -0.41 0.395 -0.457 c 0.094 -0.059 0.348 -0.367 0.449 -0.543 c 0.02 -0.035 0.68 -0.176 0.703 -0.152 c 0.016 0.016 0.008 0.129 -0.02 0.25 c -0.035 0.188 -0.082 0.242 -0.258 0.34 c -0.16 0.109 -0.367 0.078 -0.516 0.152 c -0.035 0.035 -0.105 0.07 -0.16 0.07 c -0.301 0.164 -0.461 0.438 -0.719 0.684 c -0.113 0.105 -0.141 0.16 -0.094 0.188 c 0.125 0.074 0.387 -0.004 0.508 -0.156 c 0.336 -0.422 0.328 -0.418 0.43 -0.344 c 0.121 0.086 0.172 0.371 0.125 0.73 c -0.027 0.215 -0.063 0.285 -0.141 0.309 c -0.055 0.012 -0.145 0.109 -0.195 0.211 c -0.113 0.176 -0.277 0.227 -0.375 0.383 c -0.164 0.27 -0.664 0.789 -0.664 0.688 m -1.844 -0.242 c -0.203 -0.105 -0.191 -0.148 0.012 -0.051 c 0.09 0.047 0.16 0.094 0.16 0.105 c 0 0.035 -0.004 0.031 -0.172 -0.055 m 6.957 -0.168 c 0 -0.027 0.117 -0.09 0.266 -0.137 c 0.145 -0.047 0.359 -0.152 0.48 -0.234 c 0.238 -0.168 0.492 -0.539 0.492 -0.719 c 0 -0.109 -0.02 -0.117 -0.258 -0.094 c -0.441 0.055 -1.023 0.32 -1.215 0.727 c -0.078 0.199 -0.828 0.008 -1.344 -0.34 c -0.164 -0.145 -0.227 -0.066 -0.406 0.023 c -0.246 0.129 -0.754 0.273 -0.797 0.23 c -0.016 -0.012 0.066 -0.078 0.176 -0.145 c 0.375 -0.219 0.555 -0.406 0.59 -0.605 c 0.055 -0.313 0.078 -0.371 0.168 -0.371 c 0.141 0 0.383 0.203 0.762 0.637 c 0.203 0.234 0.434 0.457 0.516 0.5 c 0.141 0.07 0.156 0.066 0.266 -0.059 c 0.063 -0.074 0.262 -0.305 0.445 -0.516 c 0.363 -0.422 0.504 -0.652 0.504 -0.828 c 0 -0.094 -0.027 -0.07 -0.152 0.113 c -0.086 0.129 -0.277 0.34 -0.43 0.477 c -0.285 0.258 -0.277 0.254 -0.75 0.164 c -0.145 -0.027 -0.445 -0.449 -0.445 -0.621 c 0 -0.063 0.109 -0.273 0.246 -0.465 c 0.156 -0.172 0.207 -0.371 0.258 -0.57 c 0.027 -0.074 -0.016 -0.215 -0.125 -0.438 c -0.156 -0.316 -0.207 -0.563 -0.121 -0.563 c 0.023 0 0.137 0.055 0.254 0.117 c 0.152 0.082 0.254 0.191 0.34 0.363 c 0.137 0.27 0.238 0.34 0.363 0.242 c 0.129 -0.105 0.09 -0.32 -0.109 -0.641 c -0.363 -0.578 -0.434 -1.012 -0.262 -1.609 c 0.047 -0.168 0.098 -0.508 0.105 -0.75 c 0.016 -0.395 0.008 -0.457 -0.09 -0.543 c -0.133 -0.113 -0.434 -0.121 -0.566 -0.02 c -0.125 0.102 -0.238 0.371 -0.238 0.578 c 0 0.094 -0.023 0.203 -0.055 0.246 c -0.039 0.059 -0.051 0.031 -0.051 -0.109 c 0 -0.105 -0.051 -0.344 -0.113 -0.531 c -0.176 -0.547 -0.09 -0.848 0.164 -0.586 l 0.117 0.117 l 0.16 -0.172 c 0.336 -0.367 0.313 0.41 0.383 0.031 c 0.016 -0.117 0.047 -0.129 0.215 -0.063 c 0.129 0.047 0.125 -0.113 -0.008 -0.531 c -0.055 -0.18 -0.086 -0.324 -0.063 -0.324 c 0.086 0 0.164 0.137 0.164 0.289 c 0 0.176 0.117 0.332 0.246 0.332 c 0.102 0 0.098 -0.148 -0.004 -0.387 c -0.133 -0.301 -0.066 -0.406 0.078 -0.133 l 0.117 0.234 l -0.023 -0.309 c -0.027 -0.367 -0.176 -0.75 -0.289 -0.75 c -0.051 0 -0.066 0.031 -0.043 0.102 c 0.047 0.137 -0.094 0.191 -0.281 0.109 c -0.164 -0.016 -0.496 -0.012 -0.555 0.125 c -0.023 0.066 -0.109 0.129 -0.195 0.148 c -0.383 0.332 -0.645 0.027 -0.715 0.199 c -0.047 0.113 -0.047 0.113 -0.105 -0.031 c -0.031 -0.078 -0.059 -0.199 -0.059 -0.266 c 0 -0.074 -0.066 -0.172 -0.176 -0.254 c -0.156 -0.121 -0.164 -0.133 -0.059 -0.133 c 0.285 0 0.371 -0.137 0.199 -0.32 c -0.113 -0.117 -0.008 -0.129 0.195 -0.016 c 0.418 -0.012 0.172 -0.117 0.648 -0.289 c 0 -0.039 0.039 -0.027 0.109 0.035 c 0.168 0.125 0.191 -0.035 0.352 -0.086 c 0.152 0 0.289 -0.121 0.289 -0.246 c 0 -0.18 -0.344 -0.496 -0.711 -0.66 c -0.359 -0.156 -0.379 -0.156 -1.762 -0.121 c -0.41 0.012 -0.66 -0.008 -0.91 -0.074 c -0.379 -0.098 -0.449 -0.082 -0.301 0.07 c 0.117 0.129 0.098 0.152 -0.172 0.191 c -0.414 0.133 -1.98 0.949 -2.117 1.281 c 0.043 0.051 0.02 0.125 -0.098 0.293 c -0.09 0.125 -0.211 0.305 -0.273 0.406 l -0.113 0.18 v -1.379 c 0 -1.367 0 -1.379 0.117 -1.457 c 0.105 -0.074 0.492 -0.082 3.098 -0.082 h 2.98 l 0.082 -0.184 c 0.043 -0.105 0.152 -0.223 0.242 -0.273 c 0.094 -0.047 0.254 -0.141 0.363 -0.211 c 0.207 -0.133 0.695 -0.277 0.922 -0.273 c 0.305 0.004 0.844 0.098 0.953 0.168 c 0.063 0.039 0.141 0.121 0.168 0.18 c 0.043 0.094 0.367 0.371 0.664 0.395 c 0.227 0.023 0.301 -0.145 0.645 -0.008 c 0.398 0.152 0.617 0.207 0.832 0.207 c 0.219 0 0.316 0.023 0.398 0.102 c 0.059 0.059 0.109 0.129 0.109 0.156 c 0 0.027 0.133 0.191 0.293 0.363 c 0.199 0.203 0.297 0.352 0.297 0.438 c 0 0.074 0.051 0.277 0.113 0.453 c 0.121 0.34 0.117 0.41 -0.031 1.07 c -0.082 0.355 -0.234 0.621 -0.359 0.621 c -0.027 0 -0.07 -0.059 -0.098 -0.133 c -0.059 -0.141 -0.246 -0.23 -0.488 -0.23 c -0.199 0 -0.203 -0.063 -0.012 -0.195 l 0.148 -0.105 l -0.137 -0.102 c -0.086 -0.07 -0.16 -0.09 -0.211 -0.063 c -0.164 0.023 -0.254 -0.113 -0.383 -0.047 c -0.102 0.051 -0.133 0.047 -0.188 -0.023 c -0.086 -0.117 -0.137 -0.105 -0.266 0.051 c -0.129 0.152 -0.066 0.156 -1.059 -0.082 l -0.355 -0.09 l -0.195 0.176 c -0.105 0.098 -0.195 0.199 -0.195 0.227 c 0 0.027 -0.047 0.047 -0.102 0.047 c -0.121 0 -0.145 0.059 -0.195 0.488 c -0.047 0.402 -0.09 0.504 -0.383 0.875 c -0.195 0.254 -0.238 0.34 -0.211 0.461 c 0.023 0.125 0.016 0.141 -0.066 0.117 c -0.055 -0.016 -0.145 0.004 -0.199 0.043 c -0.094 0.063 -0.105 0.141 -0.109 0.633 c 0 0.5 -0.02 0.609 -0.176 1.02 c -0.234 0.629 -0.227 0.707 0.082 1.016 c 0.297 0.289 1.738 1.082 1.969 1.082 c 0.09 0 0.172 0.043 0.211 0.105 c 0.039 0.059 0.254 0.234 0.48 0.387 c 0.227 0.152 0.625 0.441 0.887 0.645 c 0.262 0.199 0.484 0.34 0.496 0.309 c 0.02 -0.055 -0.316 -1.227 -0.426 -1.484 c -0.027 -0.063 -0.078 -0.109 -0.113 -0.102 c -0.039 0.004 -0.078 -0.047 -0.086 -0.117 c -0.055 -0.398 -0.246 -0.672 -0.473 -0.672 c -0.047 0 -0.16 -0.051 -0.25 -0.113 c -0.156 -0.105 -0.164 -0.125 -0.133 -0.383 c 0.043 -0.426 0.125 -0.539 0.465 -0.648 c 0.375 -0.121 0.531 -0.273 0.996 -0.945 c 0.211 -0.297 0.398 -0.543 0.418 -0.543 c 0.023 0 0.043 1.355 0.043 3.02 c 0 2.676 -0.012 3.03 -0.086 3.102 c -0.074 0.07 -0.32 0.078 -1.898 0.078 c -0.996 0.004 -2.01 0.016 -2.258 0.035 c -0.301 0.023 -0.441 0.016 -0.441 -0.023 m 4.789 -8.43 c 0 -0.027 -0.023 -0.051 -0.055 -0.051 c -0.027 0 -0.051 0.023 -0.051 0.051 c 0 0.027 0.023 0.051 0.051 0.051 c 0.031 0 0.055 -0.023 0.055 -0.051 m 0.035 -1.348 c -0.016 -0.113 -0.121 -0.199 -0.234 -0.199 c -0.098 -0.004 -0.086 0.066 0.043 0.223 c 0.125 0.152 0.219 0.137 0.191 -0.023 m -11.727 3.969 c -0.016 -0.547 -0.02 -1 -0.016 -1.01 c 0.004 -0.008 0.074 0.113 0.156 0.266 c 0.215 0.41 0.258 1.086 0.086 1.465 c -0.066 0.152 -0.141 0.273 -0.16 0.273 c -0.023 0 -0.055 -0.449 -0.066 -0.996 m 2.059 -0.023 c -0.094 -0.059 -0.137 -0.066 -0.152 -0.023 c -0.055 0.16 -0.281 0.027 -0.281 -0.164 c 0 -0.066 0.359 -0.188 0.563 -0.188 c 0.273 0 0.426 0.367 0.18 0.43 c -0.168 0.043 -0.164 0.043 -0.309 -0.055 m 1.758 -0.277 c -0.055 -0.031 -0.16 -0.043 -0.23 -0.023 c -0.121 0.027 -0.129 0.02 -0.098 -0.102 c 0.027 -0.105 0.016 -0.129 -0.082 -0.129 c -0.16 0 -0.141 -0.07 0.063 -0.219 c 0.277 -0.199 0.504 -0.297 0.699 -0.293 c 0.176 0 0.172 0.004 -0.094 0.117 c -0.148 0.066 -0.305 0.16 -0.348 0.215 c -0.078 0.09 -0.07 0.094 0.113 0.063 c 0.215 -0.031 0.566 0.027 0.652 0.109 c 0.031 0.027 0.039 0.094 0.016 0.145 c -0.035 0.09 -0.039 0.09 -0.09 0.004 c -0.074 -0.129 -0.203 -0.109 -0.262 0.039 c -0.055 0.137 -0.176 0.164 -0.34 0.074 m -1.813 -0.355 c -0.102 -0.063 -0.031 -0.137 0.172 -0.184 c 0.09 -0.023 0.148 -0.016 0.148 0.016 c 0 0.031 0.016 0.09 0.035 0.137 c -0.047 0.145 -0.219 0.078 -0.355 0.031 m -0.453 -0.125 c 0.027 -0.07 0.184 -0.133 0.332 -0.133 c 0.098 -0.004 0.082 0.137 -0.02 0.172 c -0.16 0.063 -0.344 0.035 -0.313 -0.039 m 9.691 -0.988 c -0.035 -0.086 -0.195 -0.105 -0.195 -0.023 c 0 0.027 -0.023 0.051 -0.055 0.051 c -0.074 0 -0.066 -0.172 0.012 -0.25 c 0.098 -0.094 0.359 -0.07 0.512 0.043 c 0.074 0.059 0.172 0.102 0.211 0.102 c 0.039 0 0.074 0.023 0.074 0.055 c 0 0.082 -0.172 0.059 -0.25 -0.039 c -0.152 -0.102 -0.207 0.082 -0.309 0.063 m -6.129 -0.078 c -0.063 -0.195 -0.055 -0.289 0.016 -0.223 c 0.031 0.031 0.051 0.125 0.039 0.207 l -0.016 0.148 m 4.359 -0.492 c 0.02 -0.027 0.043 -0.051 0.059 -0.051 c 0.012 0 0.023 0.023 0.023 0.051 c 0 0.027 -0.027 0.051 -0.059 0.051 c -0.031 0 -0.043 -0.023 -0.023 -0.051 m -0.508 -0.137 c -0.152 -0.188 -0.086 -0.238 0.32 -0.246 c 0.301 -0.004 0.344 0.008 0.461 0.141 c 0.07 0.078 0.129 0.172 0.129 0.207 c 0 0.039 -0.016 0.035 -0.047 -0.012 c -0.156 -0.094 -0.301 -0.02 -0.465 -0.059 c -0.051 -0.078 -0.188 -0.059 -0.188 0.027 c 0 0.117 -0.086 0.094 -0.211 -0.059" fill="#122f53"/><path d="m 7.547 16.461 c 0.02 -0.039 0.055 -0.223 0.078 -0.414 l 0.043 -0.348 l 0.004 0.316 c 0.008 0.215 -0.016 0.344 -0.074 0.41 c -0.047 0.055 -0.07 0.07 -0.051 0.035 m 9.1 -0.035 c -0.215 -0.145 -1.602 -0.602 -1.77 -0.586 c -0.148 0.016 -0.172 0 -0.176 -0.121 c -0.008 -0.191 -0.211 -0.488 -0.438 -0.637 c -0.801 -0.156 -1.195 -0.625 -1.711 -0.93 c -0.402 -0.234 -0.477 -0.355 -0.301 -0.473 c 0.164 -0.109 0.141 -0.316 -0.074 -0.66 c -0.219 -0.348 -0.359 -0.719 -0.32 -0.824 c 0.027 -0.066 0.344 -0.148 0.395 -0.105 c 0.012 0.012 -0.004 0.109 -0.039 0.219 c -0.109 0.355 -0.082 0.461 0.195 0.734 c 0.293 0.289 1.734 1.082 1.969 1.082 c 0.086 0 0.168 0.043 0.211 0.109 c 0.035 0.059 0.25 0.23 0.477 0.383 c 0.227 0.152 0.625 0.441 0.887 0.645 c 0.262 0.203 0.484 0.34 0.496 0.309 c 0.02 -0.055 -0.316 -1.227 -0.426 -1.484 c -0.023 -0.063 -0.078 -0.109 -0.113 -0.102 c -0.039 0.008 -0.074 -0.047 -0.086 -0.117 c -0.055 -0.398 -0.246 -0.672 -0.469 -0.672 c -0.051 0 -0.16 -0.047 -0.246 -0.105 c -0.176 -0.121 -0.199 -0.262 -0.098 -0.645 c 0.066 -0.246 0.113 -0.301 0.313 -0.359 l 0.133 -0.039 l -0.145 0.164 c -0.082 0.094 -0.133 0.188 -0.113 0.215 c 0.016 0.027 0.148 0.105 0.293 0.176 c 0.145 0.07 0.344 0.199 0.445 0.281 c 0.098 0.086 0.336 0.23 0.527 0.328 l 0.344 0.176 l 0.043 1.078 c 0.043 1.035 0.012 2.039 -0.063 2.035 c -0.02 -0.004 -0.082 -0.035 -0.141 -0.074 m -6.648 -0.613 c 0 -0.012 0.043 -0.055 0.094 -0.094 c 0.086 -0.063 0.086 -0.063 0.02 0.02 c -0.07 0.086 -0.113 0.113 -0.113 0.074 m -1.551 -0.445 c 0 -0.102 0.012 -0.141 0.027 -0.094 c 0.012 0.051 0.012 0.133 0 0.184 c -0.016 0.047 -0.027 0.008 -0.027 -0.09 m -0.871 -0.469 c 0.031 -0.055 0.07 -0.102 0.082 -0.102 c 0.016 0 0.004 0.047 -0.031 0.102 c -0.031 0.059 -0.066 0.105 -0.082 0.105 c -0.016 0 0 -0.047 0.031 -0.105 m 1.023 -0.563 c 0 -0.023 0.082 -0.094 0.188 -0.152 c 0.258 -0.309 -0.137 0.145 -0.063 -0.219 c 0.039 -0.18 0.094 -0.234 0.293 -0.285 c 0.172 -0.043 0.188 -0.012 0.133 0.246 c -0.035 0.188 -0.078 0.242 -0.258 0.34 c -0.234 0.129 -0.293 0.141 -0.293 0.07 m 3.094 -0.84 c -0.074 -0.16 -0.188 -0.18 -0.191 -0.035 c -0.137 0.066 -0.23 -0.398 -0.191 -0.523 c 0.012 0 0.121 0.051 0.246 0.113 c 0.234 0.121 0.32 0.285 0.238 0.461 c -0.047 0.098 -0.051 0.098 -0.102 -0.016 m 0.781 -2.461 c 0 -0.105 -0.039 -0.242 -0.082 -0.297 c -0.078 -0.098 -0.082 -0.098 -0.16 0 c -0.043 0.051 -0.09 0.121 -0.102 0.152 c -0.063 0.145 -0.137 -0.117 -0.105 -0.379 c 0.027 -0.25 0.016 -0.301 -0.086 -0.387 c -0.137 -0.121 -0.438 -0.133 -0.574 -0.027 c -0.125 0.102 -0.238 0.371 -0.238 0.578 c 0 0.094 -0.023 0.203 -0.055 0.246 c -0.039 0.059 -0.051 0.031 -0.051 -0.109 c 0 -0.102 -0.051 -0.344 -0.113 -0.531 c -0.176 -0.547 -0.09 -0.848 0.164 -0.586 l 0.117 0.117 l 0.16 -0.172 c 0.172 -0.184 0.262 -0.176 0.262 0.02 c 0.109 0.219 0.125 -0.133 0.336 -0.051 c 0.129 0.047 0.125 -0.113 -0.008 -0.531 c -0.055 -0.18 -0.086 -0.324 -0.063 -0.324 c 0.086 0 0.164 0.137 0.164 0.289 c 0 0.176 0.117 0.332 0.246 0.332 c 0.102 0 0.098 -0.148 -0.004 -0.387 c -0.129 -0.297 -0.066 -0.406 0.078 -0.133 l 0.121 0.234 l -0.027 -0.309 c -0.027 -0.367 -0.176 -0.75 -0.285 -0.75 c -0.055 0 -0.07 0.031 -0.047 0.102 c 0.047 0.137 -0.094 0.191 -0.281 0.109 c -0.105 -0.047 -0.148 -0.047 -0.18 0 c -0.133 0.074 -0.316 -0.012 -0.371 0.125 c -0.102 0.172 -0.32 0.152 -0.441 0.297 c -0.188 0.203 -0.379 -0.184 -0.473 0.051 c -0.047 0.113 -0.047 0.113 -0.105 -0.031 c -0.031 -0.078 -0.059 -0.199 -0.059 -0.266 c 0 -0.078 -0.066 -0.172 -0.176 -0.254 c -0.156 -0.121 -0.164 -0.133 -0.059 -0.133 c 0.285 -0.004 0.371 -0.137 0.199 -0.32 c -0.113 -0.117 -0.004 -0.129 0.195 -0.016 c 0.211 0.113 0.266 0.09 0.305 -0.133 c 0.023 -0.148 0.055 -0.203 0.109 -0.18 c 0.039 0.016 0.109 0.043 0.152 0.059 c 0.047 0.02 0.082 0.004 0.082 -0.035 c 0.125 -0.027 0.203 0.16 0.293 0.043 c 0.035 -0.051 0.113 -0.09 0.168 -0.094 c 0.262 -0.004 0.363 -0.234 0.207 -0.453 c -0.055 -0.074 -0.074 -0.164 -0.055 -0.25 c 0.031 -0.117 -0.063 -0.469 -0.188 -0.699 c -0.035 -0.066 -0.023 -0.102 0.059 -0.145 c 0.059 -0.031 0.121 -0.109 0.137 -0.18 c 0.043 -0.152 0.141 -0.238 0.539 -0.473 c 0.25 -0.141 0.668 -0.277 0.867 -0.277 c 0.012 0 0.008 -0.023 -0.012 -0.051 c 0.043 -0.098 0.137 -0.031 0.168 -0.008 c -0.035 0.055 0.223 0.109 0.488 0.109 c 0.098 0 0.18 0.02 0.18 0.043 c 0 0.023 -0.086 0.031 -0.188 0.02 c -0.152 -0.031 -0.191 0.066 -0.297 0.094 c -0.117 0 -0.137 0.082 -0.055 0.207 c 0.117 0.09 0.191 -0.016 0.324 -0.027 c 0.023 0.016 0.078 -0.016 0.117 -0.07 c 0.051 -0.07 0.117 -0.09 0.246 -0.07 c 0.344 0.047 0.125 0.27 -0.262 0.27 c -0.09 0 -0.301 0.074 -0.469 0.164 c -0.168 0.094 -0.371 0.199 -0.449 0.234 c -0.078 0.039 -0.266 0.223 -0.418 0.41 c -0.234 0.293 -0.273 0.375 -0.273 0.574 c 0 0.266 0.078 0.273 0.242 0.023 c 0.059 -0.09 0.152 -0.164 0.203 -0.164 c 0.141 -0.066 0.176 -0.215 0.297 -0.238 c 0.117 0.035 0.496 -0.273 0.496 -0.402 c 0 -0.09 0.137 -0.113 0.188 -0.031 c 0.02 0.027 0.176 -0.023 0.383 -0.129 c 0.219 -0.113 0.422 -0.184 0.547 -0.184 c 0.113 0 0.234 -0.02 0.277 -0.047 c 0.051 -0.031 0.172 -0.008 0.352 0.059 c 0.148 0.063 0.395 0.117 0.543 0.125 c 0.695 0.043 1.066 0.102 1.094 0.172 c 0.016 0.051 -0.004 0.059 -0.078 0.027 c -0.141 -0.059 -0.543 -0.098 -0.492 -0.047 c 0.023 0.02 0.16 0.078 0.305 0.129 c 0.441 0.148 0.926 0.566 0.555 0.48 c -0.078 -0.02 -0.242 -0.078 -0.359 -0.129 c -0.121 -0.051 -0.277 -0.098 -0.352 -0.098 c -0.074 0 -0.23 -0.035 -0.352 -0.078 c -0.188 -0.066 -0.223 -0.063 -0.273 0.004 c -0.25 0.176 -0.375 -0.098 -0.547 -0.09 c -0.051 0.027 -0.207 0.063 -0.348 0.078 c -0.184 0.012 -0.398 0.152 -0.535 0.098 c -0.168 -0.16 -0.418 -0.039 -0.746 0.359 c -0.344 0.418 -0.266 0.805 0.086 0.438 c 0.203 -0.215 0.316 -0.234 0.402 -0.082 c 0.105 0.117 0.211 0.063 0.215 0.207 c 0 0.188 0.074 0.195 0.191 0.023 c 0.063 -0.09 0.121 -0.121 0.188 -0.102 c 0.078 0.023 0.133 -0.031 0.246 -0.246 l 0.148 -0.273 l 0.051 0.195 c 0.047 0.164 0.07 0.188 0.18 0.16 c 0.07 -0.016 0.125 -0.008 0.125 0.023 c 0 0.031 0.055 0.063 0.121 0.07 c 0.09 0.012 0.129 0.063 0.152 0.199 l 0.031 0.18 l 0.09 -0.195 c 0.051 -0.105 0.113 -0.191 0.141 -0.191 c 0.094 0 0.219 0.23 0.219 0.41 c 0.004 0.148 0.012 0.164 0.059 0.094 c 0.211 -0.215 0.172 0.211 0.32 -0.105 c 0.109 -0.234 0.273 -0.227 0.34 0.012 c 0.066 0.23 0.07 0.234 0.164 0.16 c 0.121 -0.047 0.199 0.094 0.246 0.113 c 0 -0.031 0.047 -0.074 0.105 -0.09 c 0.063 -0.02 0.113 -0.09 0.125 -0.172 l 0.02 -0.141 l 0.066 0.152 c 0.098 0.219 -0.074 0.984 -0.273 1.207 c -0.168 0.195 -0.184 0.199 -0.219 0.063 c -0.031 -0.117 -0.238 -0.207 -0.473 -0.207 c -0.199 0 -0.199 -0.063 -0.012 -0.195 l 0.148 -0.105 l -0.133 -0.102 c -0.09 -0.07 -0.164 -0.09 -0.215 -0.063 c -0.164 0.023 -0.254 -0.113 -0.383 -0.051 c -0.102 0.055 -0.133 0.051 -0.184 -0.02 c -0.09 -0.117 -0.141 -0.105 -0.27 0.051 c -0.129 0.152 -0.066 0.156 -1.059 -0.082 l -0.355 -0.09 l -0.195 0.176 c -0.105 0.098 -0.195 0.199 -0.195 0.227 c 0 0.027 -0.047 0.047 -0.105 0.047 c -0.059 0 -0.109 0.031 -0.109 0.066 c 0 0.035 -0.035 0.02 -0.082 -0.035 c -0.07 -0.094 -0.078 -0.055 -0.086 0.387 c -0.004 0.266 -0.016 0.418 -0.027 0.332 c -0.047 -0.367 -0.203 -1.02 -0.266 -1.098 c -0.117 -0.156 -0.148 -0.027 -0.137 0.621 c 0.016 0.691 -0.051 1.063 -0.215 1.203 c -0.137 0.117 -0.133 0.227 0.008 0.191 c 0.07 -0.02 0.105 0 0.105 0.055 c 0 0.043 0.016 0.117 0.035 0.168 c 0.031 0.07 0.02 0.082 -0.059 0.055 c -0.059 -0.02 -0.152 -0.004 -0.227 0.043 c -0.117 0.074 -0.121 0.102 -0.09 0.465 c 0.02 0.215 0.02 0.387 0 0.387 c -0.02 0 -0.035 -0.086 -0.035 -0.195 m 4.52 -2.695 c 0 -0.027 -0.023 -0.051 -0.051 -0.051 c -0.031 0 -0.055 0.023 -0.055 0.051 c 0 0.027 0.023 0.051 0.055 0.051 c 0.027 0 0.051 -0.023 0.051 -0.051 m -4.477 -2.844 c 0.121 -0.105 0.262 -0.109 0.355 -0.23 c 0.148 -0.184 0.113 -0.277 -0.055 -0.152 c -0.066 0.047 -0.172 0.063 -0.293 0.043 c -0.164 -0.023 -0.207 -0.008 -0.285 0.105 c -0.117 0.172 -0.113 0.203 0.031 0.27 c 0.172 0.082 0.168 0.082 0.246 -0.035 m -5.09 5.426 c -0.031 -0.121 -0.164 -0.137 -0.211 -0.023 c -0.066 0.168 -0.289 0.055 -0.289 -0.148 c 0 -0.066 0.359 -0.188 0.563 -0.188 c 0.273 0 0.426 0.367 0.18 0.43 c -0.188 0.051 -0.211 0.043 -0.242 -0.07 m 1.871 -0.266 c 0 -0.121 -0.105 -0.141 -0.309 -0.059 c -0.23 0.09 -0.238 0.086 -0.199 -0.063 c 0.027 -0.105 0.016 -0.129 -0.078 -0.129 c -0.164 0 -0.141 -0.07 0.059 -0.219 c 0.277 -0.199 0.508 -0.297 0.699 -0.293 c 0.176 0 0.172 0.004 -0.094 0.121 c -0.148 0.063 -0.305 0.16 -0.348 0.211 c -0.078 0.09 -0.07 0.094 0.113 0.063 c 0.215 -0.031 0.566 0.027 0.652 0.109 c 0.031 0.031 0.039 0.094 0.016 0.148 c -0.035 0.086 -0.039 0.086 -0.09 0 c -0.074 -0.129 -0.184 -0.109 -0.309 0.055 c -0.082 0.102 -0.113 0.117 -0.113 0.055 m -3.898 -0.227 c -0.016 -0.047 -0.031 -0.121 -0.031 -0.168 c 0.004 -0.074 0.012 -0.074 0.082 0.012 c 0.086 0.113 0.105 0.238 0.031 0.238 c -0.027 0 -0.063 -0.039 -0.082 -0.082 m 1.906 -0.125 c -0.102 -0.063 -0.031 -0.137 0.176 -0.184 c 0.086 -0.023 0.148 -0.016 0.148 0.016 c 0 0.031 0.012 0.09 0.031 0.137 c 0.023 0.063 -0.004 0.082 -0.121 0.082 c -0.086 0 -0.191 -0.023 -0.234 -0.051 m -0.453 -0.125 c 0.027 -0.07 0.184 -0.133 0.332 -0.133 c 0.098 -0.004 0.082 0.137 -0.02 0.172 c -0.16 0.063 -0.344 0.039 -0.313 -0.039 m 9.691 -0.988 c -0.035 -0.086 -0.195 -0.105 -0.195 -0.023 c 0 0.027 -0.023 0.051 -0.055 0.051 c -0.074 0 -0.066 -0.172 0.012 -0.246 c 0.098 -0.098 0.359 -0.074 0.512 0.039 c 0.074 0.059 0.172 0.105 0.211 0.105 c 0.039 0 0.074 0.02 0.074 0.051 c 0 0.086 -0.172 0.059 -0.25 -0.039 c -0.07 -0.086 -0.078 -0.086 -0.176 0.023 c -0.082 0.094 -0.109 0.102 -0.133 0.039 m -6.129 -0.074 c -0.063 -0.199 -0.055 -0.293 0.016 -0.227 c 0.031 0.031 0.051 0.125 0.039 0.207 l -0.016 0.148 m 4.359 -0.492 c 0.02 -0.027 0.043 -0.051 0.059 -0.051 c 0.012 0 0.023 0.023 0.023 0.051 c 0 0.027 -0.027 0.051 -0.059 0.051 c -0.031 0 -0.043 -0.023 -0.023 -0.051 m -0.508 -0.137 c -0.152 -0.188 -0.086 -0.238 0.32 -0.246 c 0.301 -0.004 0.344 0.008 0.461 0.141 c 0.07 0.078 0.129 0.172 0.129 0.207 c 0 0.039 -0.016 0.035 -0.047 -0.012 c -0.035 -0.051 -0.105 -0.063 -0.242 -0.043 c -0.105 0.02 -0.207 0.008 -0.223 -0.016 c -0.051 -0.078 -0.188 -0.059 -0.188 0.027 c 0 0.117 -0.086 0.094 -0.211 -0.059 m -8.668 -0.691 c 0 -0.027 0.023 -0.051 0.051 -0.051 c 0.031 0 0.055 0.023 0.055 0.051 c 0 0.031 -0.023 0.055 -0.055 0.055 c -0.027 0 -0.051 -0.023 -0.051 -0.055 m -0.191 -2.01 c 0.02 -0.031 0.074 -0.051 0.125 -0.051 c 0.078 0 0.082 0.008 0.012 0.051 c -0.105 0.063 -0.176 0.063 -0.137 0" fill="#20202a"/></svg>