<svg xmlns="http://www.w3.org/2000/svg" viewBox="0 0 22 22"><path d="m 4.551 19.785 c 16.504 10.844 26.668 -23.742 5.332 -19.16 c -8.816 1.949 -14.168 14.188 -5.332 19.16" fill="#f4f4dc"/><path d="m 58.23 869.86 h 140.91 c 0.864 0 1.545 1.091 1.545 2.409 v 103.36 c 0 1.318 -0.682 2.364 -1.545 2.364 h -140.91 c -0.864 0 -1.545 -1.045 -1.545 -2.364 v -103.36 c 0 -1.318 0.682 -2.409 1.545 -2.409" transform="matrix(0.08594 0 0 0.08594 0 -68.44)" fill="#fff" stroke="#696969" stroke-width="1.149"/><path d="m 4.957 15.738 c -0.102 -0.113 -0.246 -0.207 -0.32 -0.207 c -0.113 0 -0.137 -0.805 -0.137 -4.543 c 0 -3.738 0.023 -4.547 0.137 -4.547 c 0.074 0 0.219 -0.09 0.32 -0.203 c 0.18 -0.199 0.313 -0.203 6.109 -0.199 l 5.922 0.004 l 0.563 0.492 v 8.906 l -0.563 0.492 l -5.922 0.004 c -5.797 0.004 -5.93 0 -6.109 -0.199 m 11.777 -0.344 c 0 -0.074 0.086 -0.215 0.191 -0.309 c 0.176 -0.16 0.195 -0.441 0.266 -3.945 l 0.074 -3.766 l -0.289 -0.457 c -0.23 -0.355 -0.371 -0.465 -0.648 -0.512 c -0.469 -0.082 -10.04 -0.082 -10.504 0 c -0.281 0.047 -0.418 0.156 -0.648 0.512 l -0.293 0.457 l 0.078 3.766 c 0.066 3.504 0.086 3.785 0.266 3.945 c 0.105 0.094 0.191 0.234 0.191 0.309 c 0 0.113 0.984 0.137 5.656 0.137 c 4.672 0 5.66 -0.023 5.66 -0.137 m -10.926 -0.547 c -0.23 -0.055 -0.297 -0.383 -0.125 -0.629 c 0.09 -0.129 0.105 -0.227 0.039 -0.27 c -0.137 -0.082 -0.129 -0.492 0.008 -0.633 c 0.082 -0.078 0.082 -0.129 0 -0.18 c -0.141 -0.086 -0.145 -0.531 -0.008 -0.617 c 0.066 -0.039 0.047 -0.145 -0.051 -0.285 c -0.195 -0.277 -0.195 -0.625 -0.004 -0.82 c 0.137 -0.133 0.117 -0.164 -0.152 -0.258 l -0.305 -0.105 v -3.648 l 0.352 -0.34 l 0.348 -0.336 l 5.184 0.016 l 5.18 0.016 l 0.332 0.324 l 0.332 0.32 v 1.812 c 0 1.195 -0.039 1.836 -0.109 1.879 c -0.063 0.039 -1.754 0.063 -3.766 0.055 c -2.01 -0.012 -3.996 0.016 -4.414 0.051 l -0.758 0.07 l 0.113 0.297 c 0.09 0.242 0.078 0.359 -0.059 0.598 c -0.102 0.172 -0.133 0.324 -0.078 0.359 c 0.133 0.082 0.121 0.531 -0.012 0.613 c -0.082 0.051 -0.082 0.102 0 0.18 c 0.137 0.141 0.145 0.551 0.008 0.633 c -0.066 0.043 -0.055 0.141 0.039 0.27 c 0.297 0.426 -0.113 0.832 -0.535 0.535 c -0.133 -0.09 -0.227 -0.105 -0.27 -0.039 c -0.082 0.133 -0.531 0.133 -0.609 0.004 c -0.039 -0.066 -0.148 -0.051 -0.289 0.035 c -0.121 0.074 -0.297 0.117 -0.391 0.094 m 0.719 -0.914 c -0.09 -0.105 -0.152 -0.109 -0.258 -0.023 c -0.109 0.09 -0.113 0.152 -0.023 0.258 c 0.086 0.109 0.148 0.113 0.258 0.023 c 0.105 -0.086 0.109 -0.148 0.023 -0.258 m 0.813 0 c -0.086 -0.105 -0.148 -0.109 -0.254 -0.023 c -0.109 0.09 -0.113 0.152 -0.027 0.258 c 0.09 0.109 0.152 0.113 0.258 0.023 c 0.109 -0.086 0.113 -0.148 0.023 -0.258 m -0.813 -0.816 c -0.09 -0.105 -0.152 -0.113 -0.258 -0.023 c -0.109 0.09 -0.113 0.152 -0.023 0.258 c 0.086 0.109 0.148 0.113 0.258 0.023 c 0.105 -0.09 0.109 -0.148 0.023 -0.258 m 0.813 0 c -0.086 -0.105 -0.148 -0.113 -0.254 -0.023 c -0.109 0.09 -0.113 0.152 -0.027 0.258 c 0.09 0.109 0.152 0.113 0.258 0.023 c 0.109 -0.09 0.113 -0.148 0.023 -0.258 m -0.699 -0.75 c 0 -0.129 -0.262 -0.191 -0.41 -0.102 c -0.113 0.07 -0.113 0.113 -0.004 0.246 c 0.102 0.125 0.168 0.137 0.273 0.047 c 0.078 -0.063 0.141 -0.148 0.141 -0.191 m 0.816 0 c 0 -0.129 -0.262 -0.191 -0.41 -0.102 c -0.113 0.07 -0.117 0.113 -0.004 0.246 c 0.102 0.125 0.168 0.137 0.273 0.047 c 0.078 -0.063 0.141 -0.148 0.141 -0.191 m -1.012 -1.16 c -0.27 -0.121 -0.387 -0.02 -0.215 0.188 c 0.105 0.125 0.16 0.133 0.281 0.031 c 0.129 -0.105 0.121 -0.137 -0.066 -0.219 m 0.898 0.031 c -0.07 -0.043 -0.188 -0.055 -0.262 -0.023 c -0.109 0.039 -0.113 0.086 -0.023 0.195 c 0.094 0.109 0.152 0.117 0.262 0.023 c 0.109 -0.094 0.117 -0.141 0.023 -0.195 m -0.363 -1.441 c -0.16 -0.176 -0.18 -0.18 -0.355 -0.02 c -0.18 0.16 -0.18 0.184 -0.02 0.359 c 0.16 0.176 0.184 0.18 0.359 0.02 c 0.176 -0.16 0.176 -0.184 0.016 -0.359 m 0.816 0 c -0.16 -0.176 -0.184 -0.18 -0.359 -0.02 c -0.176 0.16 -0.176 0.184 -0.016 0.359 c 0.16 0.176 0.18 0.18 0.359 0.02 c 0.176 -0.16 0.176 -0.184 0.016 -0.359 m -1.168 -0.938 c 0.121 -0.148 0.055 -0.27 -0.16 -0.27 c -0.074 0 -0.133 0.09 -0.133 0.203 c 0 0.234 0.129 0.266 0.293 0.066 m 1.438 -0.066 c 0 -0.195 -0.199 -0.277 -0.336 -0.137 c -0.078 0.078 0.113 0.34 0.25 0.34 c 0.047 0 0.086 -0.09 0.086 -0.203 m -1.266 -1.102 c -0.09 -0.09 -0.465 0.301 -0.465 0.477 c 0.004 0.117 0.078 0.082 0.262 -0.129 c 0.141 -0.16 0.23 -0.316 0.203 -0.348 m 1.078 0.152 c -0.297 -0.301 -0.371 -0.164 -0.098 0.184 c 0.141 0.18 0.242 0.238 0.27 0.156 c 0.023 -0.07 -0.055 -0.223 -0.172 -0.34 m 3.641 7 c -0.262 -0.063 -0.305 -0.426 -0.074 -0.652 c 0.18 -0.18 0.184 -0.219 0.043 -0.359 c -0.195 -0.195 -0.195 -0.289 -0.004 -0.445 c 0.324 -0.273 0.711 0.172 0.426 0.488 c -0.148 0.164 -0.148 0.191 0.016 0.293 c 0.133 0.082 0.227 0.078 0.359 -0.02 c 0.348 -0.254 0.699 0.023 0.602 0.477 c -0.051 0.227 -0.383 0.301 -0.602 0.141 c -0.145 -0.105 -0.223 -0.105 -0.387 -0.008 c -0.117 0.07 -0.285 0.109 -0.379 0.086 m -2.605 -0.195 c -0.148 -0.395 0.395 -0.684 0.617 -0.328 c 0.078 0.125 0.07 0.215 -0.027 0.332 c -0.176 0.211 -0.508 0.207 -0.59 -0.004 m 0.895 0.02 c -0.258 -0.313 0.148 -0.719 0.457 -0.461 c 0.219 0.18 0.145 0.551 -0.117 0.586 c -0.117 0.016 -0.27 -0.039 -0.34 -0.125 m 3.594 -0.02 c -0.035 -0.094 -0.008 -0.254 0.059 -0.363 c 0.094 -0.152 0.09 -0.238 -0.023 -0.402 c -0.293 -0.418 0.102 -0.84 0.516 -0.551 c 0.152 0.109 0.223 0.109 0.367 0 c 0.43 -0.313 0.844 0.195 0.465 0.574 c -0.18 0.18 -0.184 0.215 -0.043 0.355 c 0.199 0.199 0.199 0.289 -0.004 0.457 c -0.113 0.094 -0.211 0.105 -0.324 0.031 c -0.238 -0.152 -0.258 -0.297 -0.066 -0.492 c 0.156 -0.156 0.156 -0.18 -0.016 -0.305 c -0.141 -0.105 -0.23 -0.109 -0.371 -0.023 c -0.191 0.121 -0.242 0.27 -0.09 0.27 c 0.152 0 0.223 0.324 0.102 0.473 c -0.16 0.195 -0.492 0.18 -0.57 -0.023 m 1.707 0.02 c -0.258 -0.313 0.148 -0.719 0.461 -0.461 c 0.215 0.18 0.145 0.551 -0.117 0.586 c -0.117 0.016 -0.273 -0.039 -0.344 -0.125 m -6.117 -0.82 c -0.277 -0.332 0.18 -0.73 0.484 -0.426 c 0.129 0.133 0.145 0.211 0.059 0.348 c -0.148 0.238 -0.387 0.27 -0.543 0.078 m 0.813 0 c -0.273 -0.332 0.184 -0.73 0.488 -0.426 c 0.129 0.133 0.141 0.211 0.059 0.348 c -0.152 0.238 -0.387 0.27 -0.547 0.078 m 0.816 0 c -0.273 -0.332 0.18 -0.73 0.488 -0.426 c 0.129 0.133 0.141 0.211 0.055 0.348 c -0.148 0.238 -0.383 0.27 -0.543 0.078 m 4.898 0.008 c -0.215 -0.262 -0.094 -0.523 0.25 -0.523 c 0.27 0 0.305 0.035 0.305 0.309 c 0 0.23 -0.051 0.313 -0.215 0.336 c -0.117 0.016 -0.27 -0.039 -0.34 -0.121 m -6.527 -0.824 c -0.277 -0.332 0.18 -0.73 0.484 -0.426 c 0.129 0.129 0.145 0.211 0.059 0.348 c -0.148 0.234 -0.387 0.27 -0.543 0.078 m 0.813 0 c -0.273 -0.332 0.184 -0.73 0.488 -0.426 c 0.129 0.129 0.141 0.211 0.059 0.348 c -0.152 0.234 -0.387 0.27 -0.547 0.078 m 0.816 0 c -0.273 -0.332 0.18 -0.73 0.488 -0.426 c 0.129 0.129 0.141 0.211 0.055 0.348 c -0.148 0.234 -0.383 0.27 -0.543 0.078 m 0.816 0 c -0.273 -0.332 0.18 -0.73 0.484 -0.426 c 0.133 0.129 0.145 0.211 0.059 0.348 c -0.148 0.234 -0.383 0.27 -0.543 0.078 m 0.77 -0.891 c -0.137 -0.195 -0.164 -0.203 -0.219 -0.051 c -0.086 0.219 -0.516 0.223 -0.637 0.008 c -0.086 -0.152 -0.098 -0.152 -0.156 0 c -0.082 0.211 -0.539 0.211 -0.66 0 c -0.082 -0.152 -0.098 -0.152 -0.156 0 c -0.078 0.207 -0.563 0.215 -0.645 0.008 c -0.051 -0.141 -0.074 -0.137 -0.18 0.008 c -0.07 0.098 -0.223 0.152 -0.371 0.133 c -0.215 -0.031 -0.25 -0.09 -0.25 -0.445 c 0 -0.461 0.242 -0.598 0.555 -0.313 c 0.164 0.148 0.195 0.148 0.313 0.008 c 0.164 -0.195 0.348 -0.195 0.512 0 c 0.117 0.141 0.148 0.141 0.301 0 c 0.098 -0.086 0.223 -0.156 0.281 -0.156 c 0.059 0 0.164 0.07 0.234 0.156 c 0.117 0.141 0.148 0.141 0.301 0 c 0.094 -0.086 0.219 -0.156 0.281 -0.156 c 0.059 0 0.164 0.07 0.234 0.156 c 0.117 0.141 0.148 0.141 0.301 0 c 0.094 -0.086 0.211 -0.156 0.258 -0.156 c 0.047 0 0.164 0.07 0.258 0.156 c 0.152 0.141 0.184 0.141 0.301 0 c 0.07 -0.086 0.188 -0.156 0.258 -0.156 c 0.07 0 0.184 0.07 0.258 0.156 c 0.113 0.141 0.145 0.141 0.301 0 c 0.094 -0.086 0.211 -0.156 0.258 -0.156 c 0.047 0 0.16 0.07 0.258 0.156 c 0.152 0.141 0.184 0.141 0.301 0 c 0.164 -0.195 0.348 -0.195 0.512 0 c 0.117 0.141 0.148 0.141 0.313 -0.008 c 0.313 -0.281 0.555 -0.148 0.555 0.305 c 0 0.52 -0.285 0.727 -0.551 0.402 c -0.176 -0.215 -0.184 -0.215 -0.301 -0.027 c -0.156 0.25 -0.391 0.25 -0.547 -0.004 c -0.121 -0.195 -0.125 -0.195 -0.262 0 c -0.176 0.254 -0.383 0.254 -0.559 0 c -0.137 -0.195 -0.141 -0.195 -0.262 0 c -0.066 0.109 -0.188 0.199 -0.27 0.199 c -0.078 0 -0.207 -0.09 -0.285 -0.199 c -0.137 -0.195 -0.137 -0.195 -0.262 0 c -0.16 0.262 -0.379 0.25 -0.57 -0.023" fill="#d2d2d2"/><path d="m 4.629 10.902 c 0 -2.484 0.035 -3.828 0.102 -3.828 c 0.063 0 0.098 1.344 0.098 3.828 c 0 2.488 -0.035 3.832 -0.098 3.832 c -0.066 0 -0.102 -1.344 -0.102 -3.832 m 12.676 0 c 0 -2.484 0.035 -3.828 0.102 -3.828 c 0.066 0 0.102 1.344 0.102 3.828 c 0 2.488 -0.035 3.832 -0.102 3.832 c -0.066 0 -0.102 -1.344 -0.102 -3.832 m -11.434 3.477 c -0.035 -0.086 -0.012 -0.207 0.055 -0.27 c 0.141 -0.137 0.477 0.148 0.367 0.316 c -0.098 0.164 -0.355 0.133 -0.422 -0.047 m 0.813 0.047 c -0.035 -0.059 0 -0.172 0.078 -0.254 c 0.129 -0.125 0.164 -0.125 0.273 0.008 c 0.07 0.082 0.098 0.195 0.063 0.254 c -0.086 0.137 -0.324 0.133 -0.414 -0.008 m 0.805 0 c -0.105 -0.168 0.23 -0.453 0.371 -0.316 c 0.066 0.063 0.09 0.184 0.055 0.27 c -0.07 0.18 -0.324 0.211 -0.426 0.047 m 1.68 -0.023 c -0.121 -0.145 -0.051 -0.266 0.156 -0.266 c 0.148 0 0.184 0.258 0.043 0.344 c -0.047 0.027 -0.137 -0.008 -0.199 -0.078 m 0.859 0.066 c -0.035 -0.035 -0.066 -0.125 -0.066 -0.199 c 0 -0.148 0.258 -0.18 0.344 -0.043 c 0.07 0.109 -0.188 0.332 -0.277 0.242 m 1.48 -0.082 c -0.035 -0.09 -0.016 -0.211 0.043 -0.27 c 0.152 -0.152 0.445 -0.012 0.402 0.195 c -0.043 0.227 -0.367 0.281 -0.445 0.074 m 0.805 0 c -0.035 -0.09 -0.016 -0.211 0.043 -0.27 c 0.152 -0.152 0.445 -0.012 0.402 0.195 c -0.043 0.227 -0.367 0.281 -0.445 0.074 m 1.281 0.016 c -0.121 -0.145 -0.051 -0.266 0.156 -0.266 c 0.152 0 0.184 0.258 0.047 0.344 c -0.051 0.027 -0.141 -0.008 -0.199 -0.078 m 1.633 -0.012 c -0.09 -0.23 0.098 -0.398 0.25 -0.219 c 0.09 0.109 0.082 0.168 -0.035 0.262 c -0.121 0.102 -0.16 0.094 -0.215 -0.043 m -0.844 -0.102 c 0 -0.082 0.07 -0.152 0.152 -0.152 c 0.082 0 0.152 0.07 0.152 0.152 c 0 0.082 -0.07 0.148 -0.152 0.148 c -0.082 0 -0.152 -0.066 -0.152 -0.148 m -8.516 -0.707 c -0.094 -0.234 0.121 -0.398 0.313 -0.242 c 0.121 0.098 0.133 0.16 0.043 0.266 c -0.148 0.18 -0.281 0.172 -0.355 -0.023 m 0.883 0.023 c -0.086 -0.105 -0.082 -0.164 0.023 -0.25 c 0.105 -0.09 0.168 -0.082 0.254 0.023 c 0.09 0.102 0.082 0.164 -0.023 0.25 c -0.105 0.086 -0.168 0.082 -0.254 -0.023 m 0.805 0 c -0.086 -0.105 -0.078 -0.168 0.043 -0.266 c 0.191 -0.16 0.406 0.008 0.313 0.242 c -0.074 0.195 -0.207 0.199 -0.355 0.023 m 3.273 0.066 c -0.121 -0.121 -0.066 -0.328 0.086 -0.328 c 0.082 0 0.152 0.063 0.152 0.141 c 0 0.168 -0.145 0.277 -0.238 0.188 m 2.688 -0.082 c -0.035 -0.09 -0.016 -0.211 0.043 -0.27 c 0.156 -0.148 0.445 -0.012 0.406 0.195 c -0.047 0.227 -0.367 0.285 -0.449 0.074 m 0.805 0 c -0.035 -0.09 -0.016 -0.211 0.043 -0.27 c 0.156 -0.148 0.445 -0.012 0.406 0.195 c -0.047 0.227 -0.367 0.285 -0.449 0.074 m 1.285 0.016 c -0.09 -0.105 -0.082 -0.164 0.023 -0.25 c 0.105 -0.09 0.164 -0.082 0.254 0.023 c 0.086 0.102 0.082 0.164 -0.023 0.25 c -0.105 0.086 -0.168 0.082 -0.254 -0.023 m -6.453 -0.113 c 0 -0.082 0.07 -0.148 0.152 -0.148 c 0.082 0 0.148 0.066 0.148 0.148 c 0 0.082 -0.066 0.148 -0.148 0.148 c -0.082 0 -0.152 -0.066 -0.152 -0.148 m 0.805 0 c 0 -0.082 0.07 -0.148 0.152 -0.148 c 0.082 0 0.148 0.066 0.148 0.148 c 0 0.082 -0.066 0.148 -0.148 0.148 c -0.082 0 -0.152 -0.066 -0.152 -0.148 m 1.609 0 c 0 -0.082 0.07 -0.148 0.152 -0.148 c 0.082 0 0.152 0.066 0.152 0.148 c 0 0.082 -0.07 0.148 -0.152 0.148 c -0.082 0 -0.152 -0.066 -0.152 -0.148 m -5.699 -0.703 c -0.094 -0.238 0.121 -0.402 0.313 -0.246 c 0.121 0.098 0.133 0.16 0.043 0.266 c -0.148 0.18 -0.281 0.172 -0.355 -0.02 m 0.883 0.02 c -0.086 -0.105 -0.082 -0.164 0.023 -0.25 c 0.105 -0.09 0.168 -0.082 0.254 0.023 c 0.09 0.102 0.082 0.164 -0.023 0.25 c -0.105 0.086 -0.164 0.082 -0.254 -0.023 m 0.805 0 c -0.086 -0.105 -0.078 -0.168 0.043 -0.266 c 0.191 -0.156 0.406 0.008 0.313 0.246 c -0.074 0.191 -0.207 0.199 -0.355 0.02 m 1.598 -0.113 c 0 -0.082 0.07 -0.148 0.152 -0.148 c 0.082 0 0.148 0.066 0.148 0.148 c 0 0.082 -0.066 0.148 -0.148 0.148 c -0.082 0 -0.152 -0.066 -0.152 -0.148 m 0.805 0 c 0 -0.082 0.07 -0.148 0.152 -0.148 c 0.082 0 0.148 0.066 0.148 0.148 c 0 0.082 -0.066 0.148 -0.148 0.148 c -0.082 0 -0.152 -0.066 -0.152 -0.148 m 0.805 0 c 0 -0.082 0.07 -0.148 0.152 -0.148 c 0.082 0 0.152 0.066 0.152 0.148 c 0 0.082 -0.07 0.148 -0.152 0.148 c -0.082 0 -0.152 -0.066 -0.152 -0.148 m 0.805 0 c 0 -0.102 0.066 -0.152 0.176 -0.133 c 0.215 0.043 0.199 0.219 -0.02 0.266 c -0.09 0.016 -0.156 -0.039 -0.156 -0.133 m -5.75 -0.816 c -0.082 -0.336 0.02 -0.543 0.25 -0.508 c 0.313 0.043 0.316 0.613 0.004 0.656 c -0.137 0.02 -0.227 -0.031 -0.254 -0.148 m 0.863 0.031 c -0.102 -0.258 0 -0.508 0.211 -0.508 c 0.156 0 0.199 0.066 0.199 0.297 c 0 0.324 -0.305 0.484 -0.41 0.211 m 0.801 -0.004 c -0.098 -0.254 0.008 -0.504 0.227 -0.535 c 0.223 -0.031 0.332 0.176 0.262 0.504 c -0.047 0.207 -0.41 0.23 -0.488 0.027 m 1.641 0.078 c -0.109 -0.105 -0.078 -0.512 0.043 -0.586 c 0.176 -0.109 0.422 0.207 0.344 0.441 c -0.066 0.207 -0.254 0.277 -0.387 0.145 m 0.781 -0.145 c -0.039 -0.129 -0.008 -0.266 0.078 -0.352 c 0.129 -0.125 0.164 -0.125 0.27 0.008 c 0.152 0.176 0.055 0.555 -0.141 0.555 c -0.074 0 -0.168 -0.094 -0.207 -0.211 m 0.809 0 c -0.043 -0.129 -0.012 -0.266 0.074 -0.352 c 0.129 -0.125 0.164 -0.125 0.273 0.008 c 0.148 0.176 0.051 0.555 -0.145 0.555 c -0.074 0 -0.168 -0.094 -0.203 -0.211 m 0.805 0 c -0.043 -0.129 -0.012 -0.266 0.074 -0.352 c 0.129 -0.125 0.164 -0.125 0.273 0.008 c 0.148 0.176 0.051 0.555 -0.145 0.555 c -0.074 0 -0.168 -0.094 -0.203 -0.211 m 0.828 0.148 c -0.117 -0.113 -0.082 -0.402 0.066 -0.523 c 0.172 -0.141 0.398 0.09 0.348 0.355 c -0.035 0.188 -0.293 0.289 -0.414 0.168 m 0.805 0 c -0.117 -0.113 -0.082 -0.402 0.066 -0.523 c 0.172 -0.141 0.398 0.09 0.348 0.355 c -0.035 0.188 -0.293 0.289 -0.414 0.168 m 0.805 0 c -0.117 -0.113 -0.082 -0.402 0.066 -0.523 c 0.172 -0.141 0.398 0.09 0.348 0.355 c -0.035 0.188 -0.293 0.289 -0.414 0.168 m 0.805 0 c -0.117 -0.113 -0.078 -0.402 0.066 -0.523 c 0.172 -0.141 0.398 0.09 0.348 0.355 c -0.035 0.188 -0.293 0.289 -0.414 0.168 m 0.77 -0.094 c -0.082 -0.203 0.082 -0.488 0.277 -0.488 c 0.219 0 0.184 0.586 -0.035 0.625 c -0.098 0.02 -0.207 -0.043 -0.242 -0.137 m -9.977 -1.059 c -0.082 -0.082 -0.121 -0.605 -0.121 -1.719 v -1.605 l 0.664 -0.633 h 10.06 l 0.324 0.328 l 0.32 0.328 v 1.59 c 0 1.105 -0.035 1.629 -0.121 1.711 c -0.176 0.176 -10.953 0.176 -11.129 0 m 1.566 -0.594 c 0.094 -0.09 0.18 -0.086 0.379 0.02 c 0.23 0.121 0.277 0.113 0.477 -0.082 c 0.172 -0.172 0.199 -0.258 0.117 -0.387 c -0.203 -0.316 -0.426 -0.391 -0.613 -0.203 c -0.164 0.16 -0.184 0.16 -0.359 0 c -0.203 -0.18 -0.422 -0.109 -0.621 0.199 c -0.074 0.121 -0.055 0.215 0.086 0.367 c 0.211 0.23 0.363 0.258 0.535 0.086 m 4.703 -0.281 c 0.035 -0.055 0.012 -0.098 -0.047 -0.098 c -0.059 0 -0.105 0.043 -0.105 0.098 c 0 0.055 0.02 0.102 0.043 0.102 c 0.027 0 0.074 -0.047 0.109 -0.102 m -2.367 -0.445 c 0 -0.332 -0.039 -0.449 -0.148 -0.449 c -0.113 0 -0.152 0.117 -0.152 0.449 c 0 0.328 0.039 0.445 0.152 0.445 c 0.109 0 0.148 -0.117 0.148 -0.445 m 0.809 0 c 0 -0.332 -0.043 -0.449 -0.152 -0.449 c -0.113 0 -0.152 0.117 -0.152 0.449 c 0 0.328 0.039 0.445 0.152 0.445 c 0.109 0 0.152 -0.117 0.152 -0.445 m 0.805 0 c 0 -0.332 -0.039 -0.449 -0.152 -0.449 c -0.113 0 -0.152 0.117 -0.152 0.449 c 0 0.328 0.039 0.445 0.152 0.445 c 0.113 0 0.152 -0.117 0.152 -0.445 m 1.559 -0.352 c 0.035 -0.055 0.012 -0.098 -0.047 -0.098 c -0.059 0 -0.105 0.043 -0.105 0.098 c 0 0.055 0.02 0.102 0.047 0.102 c 0.023 0 0.07 -0.047 0.105 -0.102 m -5.871 -0.164 c 0.227 -0.203 0.23 -0.316 0.023 -0.543 c -0.145 -0.16 -0.141 -0.188 0.051 -0.352 c 0.227 -0.191 0.289 -0.633 0.094 -0.633 c -0.066 0 -0.227 0.098 -0.352 0.219 c -0.199 0.18 -0.234 0.316 -0.234 0.844 c 0 0.668 0.086 0.766 0.418 0.465 m 1.492 -0.449 c 0 -0.496 -0.043 -0.66 -0.219 -0.848 c -0.117 -0.125 -0.277 -0.23 -0.352 -0.23 c -0.207 0 -0.156 0.434 0.078 0.633 c 0.195 0.164 0.199 0.191 0.051 0.352 c -0.203 0.223 -0.203 0.301 0.004 0.527 c 0.32 0.348 0.438 0.227 0.438 -0.434 m -0.859 -0.289 c -0.031 -0.051 -0.102 -0.07 -0.152 -0.035 c -0.055 0.031 -0.07 0.098 -0.039 0.152 c 0.035 0.051 0.102 0.066 0.156 0.035 c 0.051 -0.031 0.066 -0.102 0.035 -0.152 m 2.066 -0.141 c 0 -0.148 -0.055 -0.25 -0.141 -0.25 c -0.16 0 -0.254 0.188 -0.184 0.375 c 0.082 0.227 0.324 0.133 0.324 -0.125 m 0.805 0 c 0 -0.156 -0.055 -0.25 -0.148 -0.25 c -0.094 0 -0.152 0.094 -0.152 0.25 c 0 0.156 0.059 0.25 0.152 0.25 c 0.094 0 0.148 -0.094 0.148 -0.25 m 0.809 0 c 0 -0.156 -0.059 -0.25 -0.152 -0.25 c -0.094 0 -0.152 0.094 -0.152 0.25 c 0 0.156 0.059 0.25 0.152 0.25 c 0.094 0 0.152 -0.094 0.152 -0.25 m 0.805 0 c 0 -0.156 -0.059 -0.25 -0.152 -0.25 c -0.094 0 -0.152 0.094 -0.152 0.25 c 0 0.156 0.059 0.25 0.152 0.25 c 0.094 0 0.152 -0.094 0.152 -0.25 m 0.832 0.125 c 0.063 -0.188 -0.031 -0.375 -0.191 -0.375 c -0.082 0 -0.141 0.102 -0.141 0.25 c 0 0.258 0.25 0.352 0.332 0.125" fill="#adb0ad"/><path d="m 5.848 11.895 c -0.039 -0.094 -0.02 -0.223 0.043 -0.281 c 0.082 -0.082 0.129 -0.063 0.176 0.063 c 0.039 0.094 0.02 0.223 -0.043 0.281 c -0.078 0.078 -0.129 0.063 -0.176 -0.063 m 1.609 0 c -0.039 -0.094 -0.02 -0.223 0.043 -0.281 c 0.082 -0.082 0.129 -0.063 0.18 0.063 c 0.035 0.094 0.016 0.223 -0.047 0.281 c -0.078 0.078 -0.129 0.063 -0.176 -0.063 m -0.844 -0.109 c 0 -0.082 0.066 -0.148 0.148 -0.148 c 0.082 0 0.152 0.066 0.152 0.148 c 0 0.082 -0.07 0.148 -0.152 0.148 c -0.082 0 -0.148 -0.066 -0.148 -0.148 m 4.25 -0.922 l -5.359 -0.027 v -1.621 c 0 -1.594 0.004 -1.629 0.246 -1.852 l 0.246 -0.23 l 5.01 0.016 c 4.961 0.02 5.01 0.02 5.234 0.23 c 0.219 0.203 0.23 0.277 0.23 1.824 c 0 1.207 -0.031 1.625 -0.125 1.652 c -0.07 0.02 -2.539 0.023 -5.484 0.008 m -3.871 -0.34 c 0.09 -0.09 0.176 -0.086 0.363 0.012 c 0.223 0.117 0.281 0.105 0.551 -0.105 c 0.34 -0.266 0.395 -0.496 0.16 -0.688 c -0.137 -0.113 -0.133 -0.152 0.051 -0.344 c 0.156 -0.164 0.203 -0.348 0.203 -0.801 c 0 -0.523 -0.031 -0.621 -0.32 -0.914 c -0.438 -0.445 -0.695 -0.418 -0.723 0.086 c -0.016 0.242 -0.211 0.242 -0.223 0 c -0.031 -0.496 -0.266 -0.527 -0.715 -0.094 c -0.305 0.289 -0.332 0.371 -0.332 0.914 c 0 0.461 0.047 0.645 0.203 0.809 c 0.184 0.191 0.188 0.23 0.051 0.344 c -0.227 0.188 -0.188 0.379 0.125 0.652 c 0.313 0.27 0.434 0.297 0.605 0.129 m 4.852 -0.328 c 0.164 -0.199 0.055 -0.449 -0.203 -0.449 c -0.227 0 -0.355 0.215 -0.266 0.445 c 0.074 0.191 0.309 0.191 0.469 0.004 m -2.359 -0.188 c 0.098 -0.379 0.008 -0.883 -0.172 -0.992 c -0.281 -0.176 -0.488 0.09 -0.488 0.625 c 0 0.535 0.043 0.602 0.367 0.602 c 0.16 0 0.254 -0.074 0.293 -0.234 m 0.805 0 c 0.164 -0.648 -0.148 -1.254 -0.5 -0.965 c -0.16 0.129 -0.219 0.734 -0.098 1.043 c 0.098 0.254 0.527 0.195 0.598 -0.078 m 0.73 0.113 c 0.176 -0.176 0.152 -0.922 -0.039 -1.078 c -0.352 -0.289 -0.664 0.316 -0.5 0.965 c 0.063 0.254 0.34 0.313 0.539 0.113 m 1.617 -0.711 c 0.168 -0.199 0.027 -0.461 -0.25 -0.461 c -0.188 0 -0.242 0.055 -0.242 0.23 c 0 0.375 0.266 0.5 0.492 0.23 m -0.813 -0.238 c 0.027 -0.18 -0.016 -0.223 -0.227 -0.223 c -0.184 0 -0.258 0.051 -0.258 0.184 c 0 0.383 0.43 0.418 0.484 0.039 m -2.367 -0.73 c 0.055 -0.086 0.07 -0.281 0.031 -0.43 c -0.055 -0.223 -0.117 -0.266 -0.34 -0.238 c -0.215 0.023 -0.281 0.09 -0.305 0.309 c -0.059 0.496 0.367 0.746 0.613 0.359 m 0.805 0 c 0.168 -0.266 0.004 -0.688 -0.273 -0.688 c -0.238 0 -0.359 0.164 -0.359 0.488 c 0 0.383 0.43 0.52 0.633 0.199 m 0.805 0 c 0.172 -0.266 0.004 -0.688 -0.27 -0.688 c -0.242 0 -0.363 0.164 -0.363 0.488 c 0 0.383 0.43 0.52 0.633 0.199 m 0.805 0 c 0.172 -0.266 0.004 -0.688 -0.27 -0.688 c -0.242 0 -0.363 0.164 -0.363 0.488 c 0 0.383 0.43 0.52 0.633 0.199 m 0.77 0.066 c 0.066 -0.078 0.109 -0.27 0.09 -0.426 c -0.023 -0.207 -0.094 -0.285 -0.273 -0.313 c -0.133 -0.016 -0.277 0.027 -0.324 0.102 c -0.293 0.453 0.176 1.035 0.508 0.637" fill="#208c20"/></svg>