<svg xmlns="http://www.w3.org/2000/svg" viewBox="0 0 22 22"><path d="m 0.281 13.52 c 4.293 20.617 33.844 -1.52 16.09 -11.996 c -6.898 -4.492 -18.305 1.391 -16.09 11.996" fill="#acd7e5"/><path d="m 12.469 6.336 l 4.398 3.969 l -4.641 4.797 l -4.395 -3.965" fill="#fff"/><path d="m 8.563 16.758 c -1.965 -0.246 -3.945 -2.023 -4.73 -4.25 c -0.355 -1.012 -0.359 -2.715 -0.008 -3.777 c 0.496 -1.5 1.457 -2.648 2.824 -3.379 c 0.813 -0.434 2.734 -0.676 3.645 -0.457 c 0.613 0.145 1.617 0.645 2.18 1.086 c 0.242 0.191 0.398 0.234 0.512 0.148 c 0.844 -0.66 0.77 -0.645 1.207 -0.254 c 0.223 0.195 1.332 1.32 2.465 2.492 c 1.73 1.797 2.059 2.199 2.059 2.516 c 0 0.32 -0.348 0.742 -2.227 2.68 c -1.227 1.262 -2.301 2.297 -2.383 2.297 c -0.086 0 -0.293 -0.117 -0.465 -0.262 c -0.172 -0.141 -0.355 -0.262 -0.402 -0.262 c -0.047 0 -0.422 0.238 -0.828 0.527 c -1.121 0.793 -2.355 1.082 -3.848 0.895 m -0.918 -1.984 c 0 -0.023 -0.258 -0.242 -0.574 -0.488 c -0.313 -0.246 -0.813 -0.793 -1.105 -1.215 c -0.633 -0.902 -0.695 -0.816 -0.133 0.184 c 0.289 0.516 0.582 0.828 1.07 1.137 c 0.668 0.422 0.742 0.461 0.742 0.383 m 5.66 -1.156 c 0.945 -1.387 1.117 -3.609 0.406 -5.211 c -0.203 -0.461 -0.48 -0.977 -0.617 -1.152 l -0.242 -0.313 l -0.379 0.297 l -0.379 0.301 l -0.414 -0.27 c -0.41 -0.27 -1.082 -0.582 -1.082 -0.5 c 0 0.023 0.246 0.211 0.547 0.41 c 0.301 0.203 0.578 0.445 0.609 0.539 c 0.035 0.094 -0.082 0.352 -0.262 0.578 c -0.328 0.414 -0.418 0.43 -1.266 0.188 l -0.309 -0.086 l 0.34 0.281 c 0.188 0.156 0.34 0.359 0.34 0.453 c 0 0.301 -0.848 0.98 -1.219 0.98 c -0.355 0 -0.711 0.309 -0.754 0.656 c -0.094 0.703 0.27 0.938 0.863 0.566 l 0.375 -0.234 l 1.441 1.531 c 0.793 0.84 1.484 1.531 1.535 1.531 c 0.051 0 0.258 -0.246 0.465 -0.547 m -5.121 -0.742 c -0.523 -0.41 -0.922 -0.852 -1.133 -1.258 c -0.246 -0.473 -0.152 0.063 0.105 0.598 c 0.262 0.539 0.867 1.031 1.273 1.035 c 0.172 0 0.109 -0.102 -0.246 -0.375" fill="#e0d6a9"/><path d="m 8.301 16.645 c -1.563 -0.352 -3.391 -1.945 -4.129 -3.602 c -0.383 -0.859 -0.402 -0.98 -0.402 -2.41 c 0 -1.48 0.008 -1.527 0.461 -2.504 c 0.793 -1.695 2.559 -3.113 3.656 -2.926 c 0.293 0.051 0.672 0.004 1 -0.121 c 0.871 -0.324 2.293 0.07 3.355 0.93 c 0.59 0.477 0.801 0.477 1.176 -0.004 c 0.086 -0.109 0.242 -0.203 0.344 -0.203 c 0.27 0 4.953 4.816 4.953 5.098 c 0 0.254 -4.375 4.828 -4.617 4.828 c -0.082 0 -0.297 -0.148 -0.48 -0.328 l -0.332 -0.328 l -0.688 0.52 c -0.375 0.285 -0.984 0.641 -1.355 0.789 c -0.77 0.305 -2.195 0.434 -2.945 0.262 m 1 -1.566 c -0.133 -0.063 -0.371 -0.117 -0.531 -0.121 c -0.512 -0.02 -1.586 -0.66 -2.109 -1.262 c -0.285 -0.328 -0.684 -0.977 -0.891 -1.441 c -0.344 -0.781 -0.371 -0.938 -0.316 -1.898 c 0.039 -0.75 0.02 -0.98 -0.07 -0.809 c -0.066 0.129 -0.148 0.688 -0.18 1.238 c -0.117 2.16 0.871 3.727 2.676 4.246 c 0.66 0.188 1.816 0.227 1.422 0.047 m 4.168 -1.469 c 0.602 -1.01 0.816 -1.813 0.813 -3.03 c -0.004 -1.23 -0.258 -2.125 -0.871 -3.078 c -0.449 -0.699 -0.637 -0.781 -1 -0.43 c -0.199 0.191 -0.281 0.199 -0.625 0.047 c -1.547 -0.68 -2.676 -0.84 -3.445 -0.492 c -0.313 0.141 -0.246 0.156 0.613 0.16 c 1.031 0.004 2.02 0.352 2.453 0.863 c 0.207 0.242 0.207 0.266 -0.094 0.586 c -0.313 0.332 -0.316 0.332 -0.969 0.125 c -0.684 -0.215 -1.332 -0.277 -1.18 -0.109 c 0.051 0.051 0.316 0.184 0.594 0.293 c 0.746 0.293 0.848 0.555 0.41 1.043 c -0.227 0.246 -0.48 0.395 -0.688 0.395 c -0.719 0 -1.273 0.941 -0.832 1.41 c 0.191 0.203 0.652 0.199 0.961 -0.004 c 0.211 -0.141 0.301 -0.094 0.734 0.352 c 0.582 0.605 0.617 0.852 0.156 1.137 c -0.926 0.574 -1.891 0.391 -2.754 -0.527 c -0.371 -0.395 -0.629 -0.813 -0.734 -1.191 l -0.164 -0.59 l -0.043 0.457 c -0.059 0.57 0.141 1.293 0.477 1.75 c 0.402 0.539 0.93 0.766 1.801 0.766 c 0.664 0 0.879 -0.063 1.402 -0.41 l 0.621 -0.41 l 0.484 0.402 c 0.262 0.223 0.48 0.488 0.48 0.59 c 0 0.102 0.074 0.188 0.168 0.188 c 0.094 0 0.238 0.086 0.324 0.195 c 0.262 0.336 0.48 0.219 0.902 -0.492 m -6.496 -5.238 c 0.129 -0.102 0.238 -0.336 0.246 -0.52 c 0.008 -0.188 0.117 -0.457 0.238 -0.602 c 0.313 -0.363 0.043 -0.336 -0.543 0.059 c -0.445 0.297 -0.867 0.785 -0.867 1 c 0 0.051 0.125 0.117 0.277 0.148 c 0.152 0.031 0.305 0.063 0.344 0.074 c 0.039 0.008 0.176 -0.063 0.305 -0.164" fill="#ee9a5f"/><path d="m 8.32 16.641 c -0.594 -0.129 -1.508 -0.543 -1.844 -0.84 c -0.238 -0.211 -0.238 -0.211 0.063 -0.07 l 0.305 0.148 l -0.305 -0.27 c -0.172 -0.148 -0.383 -0.238 -0.469 -0.207 c -0.09 0.035 -0.133 0.016 -0.102 -0.039 c 0.031 -0.055 -0.219 -0.395 -0.555 -0.75 c -0.363 -0.383 -0.801 -1.047 -1.07 -1.621 c -0.434 -0.934 -0.453 -1.023 -0.453 -2.348 c 0 -1.281 0.031 -1.441 0.395 -2.262 c 0.516 -1.152 1.465 -2.211 2.449 -2.723 c 0.699 -0.367 1.148 -0.414 0.965 -0.105 c -0.039 0.066 -0.035 0.238 0.004 0.375 c 0.09 0.305 0.352 0.238 0.801 -0.199 c 0.633 -0.613 0.93 -0.699 1.738 -0.5 c 0.844 0.211 1.508 0.547 2.066 1.043 c 0.371 0.332 0.379 0.359 0.184 0.594 c -0.246 0.285 -0.629 0.25 -1.648 -0.141 c -0.766 -0.293 -1.969 -0.34 -2.5 -0.098 c -0.313 0.141 -0.25 0.156 0.613 0.16 c 1.031 0.004 2.02 0.352 2.453 0.863 c 0.207 0.242 0.203 0.266 -0.098 0.586 c -0.313 0.332 -0.313 0.332 -0.965 0.125 c -0.684 -0.215 -1.336 -0.277 -1.18 -0.113 c 0.051 0.055 0.316 0.188 0.594 0.297 c 0.742 0.293 0.848 0.555 0.41 1.039 c -0.227 0.25 -0.484 0.398 -0.688 0.398 c -0.719 0 -1.273 0.941 -0.832 1.41 c 0.191 0.203 0.652 0.199 0.957 -0.004 c 0.215 -0.141 0.305 -0.098 0.738 0.352 c 0.582 0.605 0.617 0.852 0.156 1.137 c -0.93 0.574 -1.895 0.391 -2.754 -0.527 c -0.371 -0.395 -0.629 -0.813 -0.734 -1.191 l -0.164 -0.59 l -0.043 0.457 c -0.059 0.57 0.141 1.293 0.477 1.75 c 0.402 0.539 0.93 0.766 1.801 0.766 c 0.664 0 0.875 -0.063 1.402 -0.41 l 0.621 -0.41 l 0.48 0.402 c 0.574 0.48 0.594 0.637 0.141 0.996 c -0.855 0.672 -1.418 0.883 -2.305 0.875 c -1.594 -0.02 -2.875 -0.98 -3.652 -2.746 c -0.344 -0.777 -0.371 -0.934 -0.316 -1.895 c 0.039 -0.754 0.02 -0.98 -0.07 -0.809 c -0.301 0.574 -0.242 2.445 0.113 3.363 c 0.07 0.184 0.055 0.223 -0.063 0.148 c -0.125 -0.082 -0.125 -0.043 -0.012 0.184 c 0.301 0.598 0.996 1.273 1.688 1.645 c 0.648 0.352 0.828 0.387 1.945 0.387 c 1.313 0 1.754 -0.152 2.746 -0.945 l 0.41 -0.324 l 0.293 0.293 c 0.371 0.371 0.547 0.293 1.02 -0.469 c 0.66 -1.059 0.918 -1.949 0.926 -3.191 c 0.004 -1.309 -0.277 -2.266 -0.969 -3.285 c -0.484 -0.715 -0.484 -0.895 0.004 -1.23 c 0.371 -0.258 0.18 -0.422 3.355 2.883 c 0.895 0.934 1.672 1.68 1.719 1.66 c 0.051 -0.023 0.113 0.059 0.137 0.18 c 0.043 0.234 -1.238 1.672 -3.332 3.73 c -0.941 0.926 -1.246 1.156 -1.445 1.09 c -0.137 -0.047 -0.25 -0.16 -0.25 -0.254 c 0 -0.094 -0.074 -0.238 -0.172 -0.324 c -0.133 -0.117 -0.258 -0.066 -0.582 0.254 c -1.121 1.09 -3.035 1.633 -4.598 1.301 m -1.352 -8.273 c 0.129 -0.102 0.242 -0.336 0.25 -0.52 c 0.008 -0.188 0.117 -0.457 0.238 -0.602 c 0.309 -0.363 0.043 -0.336 -0.543 0.055 c -0.445 0.301 -0.867 0.789 -0.867 1 c 0 0.051 0.121 0.121 0.273 0.152 c 0.152 0.031 0.309 0.063 0.348 0.074 c 0.039 0.008 0.172 -0.066 0.301 -0.164 m 4.734 -1.445 c 0 -0.035 -0.125 -0.125 -0.277 -0.203 c -0.266 -0.137 -0.266 -0.137 -0.035 0.059 c 0.25 0.215 0.313 0.242 0.313 0.145" fill="#9ea49b"/><path d="m 8.605 16.496 c -0.793 -0.117 -1.633 -0.527 -2.48 -1.219 c -0.867 -0.703 -1.266 -1.211 -1.773 -2.281 c -0.445 -0.941 -0.457 -1.02 -0.457 -2.352 c 0 -1.281 0.027 -1.441 0.391 -2.262 c 0.516 -1.152 1.465 -2.207 2.449 -2.723 c 0.703 -0.367 0.391 0.25 0.75 0.242 c 0.828 -0.02 0.047 0.105 0.09 0.246 c 0.09 0.301 0.656 0.02 1.105 -0.418 c 0.633 -0.617 0.75 -0.699 1.578 -0.492 c 0.832 0.203 1.793 0.711 2.18 1.152 l 0.254 0.285 l -0.254 0.246 c -0.254 0.242 -0.266 0.242 -0.832 -0.094 c -0.797 -0.469 -1.965 -0.66 -2.961 -0.492 c -1.863 0.32 -2.969 1.402 -3.527 3.445 c -0.355 1.309 -0.109 2.898 0.598 3.883 c 1.402 1.953 4.105 2.246 6.09 0.664 l 0.41 -0.324 l 0.293 0.293 c 0.375 0.371 0.547 0.293 1.02 -0.469 c 0.66 -1.055 0.918 -1.949 0.926 -3.191 c 0.004 -1.305 -0.277 -2.266 -0.965 -3.281 c -0.484 -0.715 -0.484 -0.898 -0.008 -1.23 l 0.316 -0.219 l 1.32 1.313 c 2.422 2.398 3.516 3.633 3.398 3.836 c -0.059 0.102 -1.059 1.172 -2.227 2.375 c -1.375 1.422 -2.176 2.156 -2.277 2.094 c -0.086 -0.051 -0.281 -0.215 -0.438 -0.363 c -0.195 -0.188 -0.332 -0.23 -0.438 -0.145 c -1.602 1.285 -2.934 1.719 -4.531 1.48 m -0.672 -2.059 c -1.57 -0.789 -2.504 -2.184 -2.504 -3.734 c 0.004 -0.918 0.156 -1.574 0.48 -2.02 c 0.227 -0.309 0.48 -1.051 0.883 -0.844 c 0.391 0.203 -0.16 0.113 0.094 -0.137 c 0.227 -0.23 -0.227 0.457 -0.336 0.125 c -0.102 -0.313 0.738 -0.387 0.914 -0.598 c 0.527 -0.613 2.01 -0.648 3.195 -0.074 c 0.789 0.387 0.938 0.645 0.578 1.027 c -0.25 0.262 -0.266 0.262 -0.715 0.039 c -0.637 -0.324 -1.914 -0.223 -2.645 0.207 c -1.316 0.77 -1.715 3.141 -0.711 4.25 c 0.609 0.668 1.031 0.859 1.922 0.859 c 0.66 0 0.875 -0.063 1.398 -0.41 l 0.621 -0.41 l 0.359 0.406 c 0.453 0.516 0.449 0.684 -0.02 1.039 c -0.973 0.734 -2.371 0.844 -3.516 0.27 m 0.309 -1.824 c -0.848 -0.57 -1.129 -1.145 -1.066 -2.176 c 0.039 -0.664 0.113 -0.906 0.352 -1.18 c 0.43 -0.488 0.891 -0.711 1.477 -0.711 c 0.527 0 1.348 0.332 1.348 0.543 c 0 0.273 -0.617 0.766 -0.965 0.766 c -0.711 0 -1.301 0.852 -1 1.445 c 0.203 0.402 0.605 0.512 1.094 0.301 c 0.402 -0.176 0.438 -0.168 0.77 0.168 c 0.445 0.453 0.441 0.77 -0.016 1.02 c -0.586 0.324 -1.352 0.254 -1.992 -0.176" fill="#96ca33"/><path d="m 8.605 16.496 c -0.793 -0.117 -1.633 -0.527 -2.48 -1.219 c -0.867 -0.703 -1.266 -1.211 -1.773 -2.281 c -0.445 -0.941 -0.457 -1.02 -0.457 -2.352 c 0 -1.281 0.027 -1.441 0.391 -2.262 c 0.516 -1.152 1.465 -2.207 2.449 -2.723 c 0.703 -0.367 1.148 -0.414 0.965 -0.105 c -0.039 0.07 -0.035 0.238 0.004 0.375 c 0.094 0.305 -0.816 0.109 -0.367 -0.328 c 0.633 -0.617 2.094 -0.57 2.922 -0.367 c 0.832 0.207 1.793 0.715 2.18 1.156 l 0.254 0.285 l -0.254 0.246 c -0.254 0.242 -0.266 0.242 -0.832 -0.094 c -0.797 -0.469 -1.965 -0.66 -2.961 -0.492 c -1.863 0.32 -2.969 1.402 -3.527 3.441 c -0.355 1.313 -0.109 2.902 0.598 3.887 c 1.402 1.953 4.105 2.246 6.09 0.664 l 0.41 -0.324 l 0.293 0.293 c 0.375 0.371 0.547 0.293 1.02 -0.469 c 0.66 -1.059 0.918 -1.949 0.926 -3.191 c 0.004 -1.305 -0.277 -2.266 -0.965 -3.281 c -0.484 -0.719 -0.484 -0.898 -0.008 -1.23 l 0.316 -0.219 l 1.32 1.313 c 2.422 2.398 3.516 3.633 3.398 3.836 c -0.059 0.102 -1.059 1.172 -2.227 2.375 c -1.375 1.422 -2.176 2.156 -2.277 2.094 c -0.086 -0.051 -0.281 -0.215 -0.438 -0.363 c -0.195 -0.188 -0.332 -0.23 -0.438 -0.145 c -1.602 1.285 -2.934 1.719 -4.531 1.48 m -0.398 -1.91 l -0.484 -0.238 l 0.891 0.055 c 1.063 0.063 1.813 -0.137 2.496 -0.66 c 0.367 -0.285 0.535 -0.348 0.637 -0.238 c 0.211 0.223 -0.043 0.543 -0.703 0.906 c -0.785 0.43 -2.152 0.516 -2.836 0.176 m 0.035 -1.973 c -0.848 -0.57 -1.129 -1.145 -1.066 -2.176 c 0.039 -0.664 0.113 -0.906 0.352 -1.18 c 0.43 -0.488 0.891 -0.707 1.477 -0.707 c 0.527 0 1.348 0.328 1.348 0.543 c 0 0.27 -0.617 0.762 -0.965 0.762 c -0.711 0 -1.301 0.852 -1 1.445 c 0.203 0.402 0.605 0.512 1.094 0.301 c 0.402 -0.176 0.438 -0.168 0.77 0.168 c 0.445 0.453 0.441 0.77 -0.016 1.02 c -0.586 0.324 -1.352 0.254 -1.992 -0.176 m -1.824 -1.055 c -0.184 -0.367 -0.156 -1.66 0.047 -2.07 c 0.25 -0.496 1.297 -1.551 1.711 -1.715 c 0.5 -0.199 1.391 -0.172 1.813 0.059 c 0.199 0.109 0.363 0.215 0.363 0.23 c 0 0.016 -0.43 0.031 -0.953 0.031 c -1.32 0.004 -1.922 0.352 -2.422 1.414 c -0.273 0.582 -0.355 0.941 -0.355 1.531 c 0 0.426 -0.02 0.773 -0.039 0.773 c -0.02 0 -0.094 -0.113 -0.164 -0.254" fill="#ea630a"/><path d="m 8.598 16.5 c -0.387 -0.059 -0.859 -0.199 -1.043 -0.309 l -0.34 -0.203 l 0.367 0.102 c 0.203 0.051 0.895 0.094 1.539 0.09 c 1.371 -0.012 2.152 -0.281 3.16 -1.094 c 0.512 -0.41 0.664 -0.48 0.773 -0.34 c 0.164 0.211 -0.359 0.715 -1.215 1.168 c -1.105 0.59 -2.066 0.762 -3.242 0.586 m 5.336 -1.02 c -0.129 -0.086 0.309 -0.613 1.781 -2.137 c 2.34 -2.414 2.711 -2.754 2.816 -2.578 c 0.039 0.07 0.031 0.207 -0.023 0.305 c -0.105 0.184 -4.293 4.531 -4.363 4.527 c -0.023 0 -0.117 -0.055 -0.211 -0.117 m -5.727 -0.895 l -0.484 -0.238 l 0.891 0.055 c 1.063 0.063 1.813 -0.137 2.496 -0.66 c 0.367 -0.285 0.535 -0.348 0.637 -0.238 c 0.211 0.223 -0.043 0.547 -0.703 0.906 c -0.785 0.43 -2.152 0.516 -2.836 0.176 m 0.035 -1.973 c -0.848 -0.57 -1.129 -1.145 -1.066 -2.172 c 0.039 -0.664 0.113 -0.91 0.352 -1.184 c 0.43 -0.488 0.891 -0.707 1.477 -0.707 c 0.527 0 1.348 0.328 1.348 0.543 c 0 0.27 -0.617 0.762 -0.965 0.762 c -0.711 0 -1.301 0.852 -1 1.445 c 0.203 0.402 0.605 0.512 1.094 0.301 c 0.402 -0.176 0.438 -0.168 0.77 0.168 c 0.445 0.453 0.438 0.77 -0.016 1.02 c -0.59 0.324 -1.352 0.254 -1.992 -0.176 m -3.375 -0.742 c -0.668 -2.438 0.594 -4.98 2.813 -5.684 c 1 -0.316 2.063 -0.297 2.793 0.055 l 0.434 0.207 l -0.492 -0.09 c -0.664 -0.121 -1.762 -0.082 -2.352 0.086 c -0.848 0.242 -1.801 0.945 -2.234 1.648 c -0.746 1.203 -1.07 2.867 -0.77 3.973 c 0.066 0.246 0.098 0.473 0.066 0.504 c -0.027 0.031 -0.145 -0.285 -0.258 -0.699 m 1.551 -0.309 c -0.184 -0.371 -0.156 -1.664 0.047 -2.074 c 0.25 -0.496 1.297 -1.551 1.711 -1.715 c 0.5 -0.199 1.391 -0.168 1.813 0.063 c 0.199 0.109 0.363 0.211 0.363 0.227 c 0 0.016 -0.43 0.031 -0.953 0.031 c -1.32 0.004 -1.922 0.355 -2.422 1.414 c -0.273 0.582 -0.355 0.941 -0.355 1.535 c 0 0.422 -0.02 0.77 -0.039 0.77 c -0.02 0 -0.094 -0.113 -0.164 -0.25" fill="#2e9b43"/><path d="m 8.598 16.5 c -0.387 -0.059 -0.859 -0.199 -1.043 -0.309 l -0.34 -0.203 l 0.367 0.102 c 0.203 0.051 0.895 0.094 1.539 0.09 c 1.371 -0.012 2.152 -0.281 3.16 -1.094 c 0.512 -0.41 0.664 -0.48 0.773 -0.34 c 0.164 0.211 -0.359 0.715 -1.215 1.168 c -1.105 0.59 -2.066 0.762 -3.242 0.586 m 5.336 -1.02 c -0.129 -0.086 0.309 -0.613 1.781 -2.137 c 2.34 -2.414 2.711 -2.754 2.816 -2.578 c 0.039 0.07 0.031 0.207 -0.023 0.305 c -0.105 0.184 -4.293 4.531 -4.363 4.527 c -0.023 0 -0.117 -0.055 -0.211 -0.117 m -5.727 -0.895 l -0.484 -0.238 l 0.891 0.055 c 1.063 0.063 1.813 -0.137 2.496 -0.66 c 0.367 -0.285 0.535 -0.348 0.637 -0.238 c 0.211 0.223 -0.043 0.547 -0.703 0.906 c -0.785 0.43 -2.152 0.516 -2.836 0.176 m 0.422 -1.73 c -0.133 -0.09 -0.035 -0.125 0.367 -0.129 c 0.355 0 0.742 -0.117 1.078 -0.32 c 0.492 -0.301 0.523 -0.305 0.523 -0.066 c 0 0.5 -1.441 0.879 -1.969 0.516 m -3.762 -0.984 c -0.664 -2.438 0.594 -4.98 2.813 -5.684 c 1 -0.316 2.063 -0.297 2.793 0.055 l 0.434 0.207 l -0.492 -0.09 c -0.664 -0.121 -1.762 -0.082 -2.352 0.086 c -0.848 0.242 -1.801 0.945 -2.234 1.648 c -0.746 1.199 -1.07 2.867 -0.77 3.973 c 0.066 0.246 0.098 0.473 0.066 0.504 c -0.027 0.027 -0.145 -0.285 -0.258 -0.699 m 1.551 -0.313 c -0.223 -0.441 -0.152 -1.594 0.133 -2.098 c 0.836 -1.48 2.375 -2.211 3.438 -1.629 c 0.199 0.109 0.363 0.215 0.363 0.23 c 0 0.016 -0.43 0.031 -0.953 0.031 c -1.32 0.004 -1.922 0.352 -2.422 1.414 c -0.273 0.582 -0.355 0.941 -0.355 1.531 c 0 0.426 -0.02 0.773 -0.039 0.773 c -0.02 0 -0.094 -0.113 -0.164 -0.254 m 1.711 -0.543 c -0.16 -0.316 -0.059 -0.867 0.223 -1.195 c 0.211 -0.25 0.957 -0.305 1.262 -0.098 c 0.141 0.098 0.09 0.129 -0.207 0.129 c -0.543 0.004 -1.051 0.488 -1.07 1.023 c -0.016 0.492 -0.027 0.496 -0.207 0.141" fill="#565c46"/></svg>