<svg xmlns="http://www.w3.org/2000/svg" viewBox="0 0 22 22"><path d="m 10.219 21.945 c 13.191 1.27 16.738 -20.13 3.199 -21.793 c -12.453 -2.059 -18.867 17.34 -6.492 21.22 c 1.047 0.426 2.188 0.418 3.293 0.574" fill="#f4f4f4"/><path d="m 7.578 19.797 l -0.098 -0.105 l 0.125 0.09 c 0.078 0.059 0.145 0.082 0.18 0.059 c 0.047 -0.027 2.238 -1.715 2.703 -2.082 c 0.113 -0.09 0.207 -0.184 0.207 -0.211 c 0 -0.063 0.207 -0.172 0.324 -0.172 l 0.09 0.004 l -0.098 0.078 c -0.055 0.047 -0.285 0.223 -0.512 0.395 c -0.23 0.172 -0.926 0.703 -1.551 1.184 c -0.625 0.477 -1.168 0.871 -1.207 0.871 c -0.039 0 -0.113 -0.051 -0.164 -0.109 m -0.18 -0.223 c -0.047 -0.051 -0.262 -0.332 -0.484 -0.625 c -0.219 -0.293 -0.418 -0.531 -0.441 -0.531 c -0.023 0 -0.027 -0.016 -0.016 -0.039 c 0.039 -0.066 0.176 -0.047 0.176 0.027 c 0 0.055 0.172 0.301 0.781 1.125 c 0.109 0.152 0.102 0.176 -0.016 0.043 m -0.086 -0.566 c -0.219 -0.293 -0.426 -0.559 -0.457 -0.586 c -0.082 -0.07 -0.078 -0.152 0.004 -0.18 c 0.277 -0.086 3.32 -0.711 3.418 -0.699 c 0.113 0.012 0.016 0.094 -1.168 1.01 c -0.711 0.547 -1.316 0.992 -1.344 0.992 c -0.031 0 -0.234 -0.242 -0.453 -0.535 m -2.086 -0.676 c -0.039 -0.051 -1.867 -8.863 -1.867 -9 c 0.004 -0.035 0.016 -0.074 0.031 -0.086 c 0.031 -0.02 14.08 -3.02 14.242 -3.047 c 0.07 -0.008 0.109 0.016 0.148 0.09 c 0.027 0.055 0.449 2.051 0.941 4.437 c 0.488 2.387 0.895 4.375 0.906 4.418 c 0.008 0.047 0.004 0.102 -0.012 0.129 c -0.016 0.023 -0.289 0.102 -0.602 0.168 c -0.316 0.066 -3.5 0.746 -7.078 1.512 c -3.578 0.766 -6.543 1.398 -6.586 1.41 c -0.047 0.012 -0.102 -0.004 -0.125 -0.031 m 0.719 -1.395 c 0.172 -0.043 0.762 -0.195 1.313 -0.34 c 0.547 -0.148 1.117 -0.285 1.262 -0.313 c 0.145 -0.023 0.383 -0.078 0.531 -0.125 l 0.266 -0.078 l -0.09 -0.168 c -0.074 -0.129 -0.113 -0.164 -0.188 -0.16 c -0.434 0.035 -0.504 0.051 -0.645 0.148 c -0.086 0.059 -0.164 0.105 -0.18 0.109 c -0.492 0.039 -0.676 0.016 -0.703 -0.09 c -0.02 -0.074 -0.047 -0.086 -0.195 -0.074 c -0.125 0.008 -0.289 -0.152 -0.289 -0.285 c 0 -0.063 -0.016 -0.121 -0.039 -0.137 c -0.078 -0.047 -0.043 -0.258 0.055 -0.32 c 0.082 -0.055 0.094 -0.082 0.063 -0.188 c -0.035 -0.121 -0.02 -0.172 0.109 -0.414 c 0.051 -0.094 0.055 -0.141 0.02 -0.234 c -0.043 -0.109 -0.031 -0.129 0.133 -0.297 c 0.23 -0.23 0.617 -0.484 0.82 -0.539 c 0.09 -0.023 0.207 -0.066 0.262 -0.094 c 0.055 -0.027 0.168 -0.063 0.254 -0.078 c 0.086 -0.016 0.234 -0.055 0.328 -0.086 c 0.125 -0.043 0.211 -0.047 0.336 -0.02 c 0.09 0.02 0.309 0.035 0.48 0.031 c 0.219 -0.004 0.352 0.016 0.434 0.059 c 0.066 0.031 0.188 0.074 0.27 0.09 c 0.086 0.016 0.195 0.07 0.25 0.125 c 0.051 0.055 0.121 0.098 0.148 0.098 c 0.063 0 0.102 0.086 0.102 0.227 c 0 0.082 0.016 0.098 0.078 0.074 c 0.047 -0.016 0.078 -0.008 0.078 0.02 c 0 0.023 -0.035 0.043 -0.078 0.043 c -0.039 0 -0.094 0.035 -0.117 0.082 c -0.039 0.066 -0.027 0.094 0.047 0.156 c 0.051 0.043 0.102 0.078 0.117 0.082 c 0.016 0 0.039 0.059 0.055 0.129 c 0.016 0.074 0.059 0.152 0.098 0.18 c 0.188 0.137 0.105 0.516 -0.133 0.613 c -0.078 0.031 -0.156 0.09 -0.168 0.133 c -0.02 0.059 -0.047 0.07 -0.133 0.051 c -0.07 -0.016 -0.125 -0.004 -0.156 0.035 c -0.031 0.039 -0.117 0.063 -0.207 0.063 c -0.137 0 -0.152 0.012 -0.152 0.102 c 0 0.063 0.023 0.102 0.059 0.102 c 0.035 0 0.063 0.027 0.063 0.059 c 0 0.094 0.191 0.078 0.949 -0.082 c 0.379 -0.082 0.809 -0.172 0.961 -0.203 c 0.406 -0.082 0.41 -0.086 0.453 -0.258 c 0.051 -0.188 0.137 -0.219 0.109 -0.039 c -0.02 0.148 0.043 0.176 0.25 0.113 c 0.156 -0.047 0.207 -0.113 0.086 -0.113 c -0.051 0 -0.055 -0.012 -0.02 -0.047 c 0.035 -0.035 0.07 -0.035 0.148 0 c 0.133 0.063 0.176 0.059 0.176 -0.008 c 0 -0.102 -0.137 -0.176 -0.367 -0.203 l -0.23 -0.031 l 0.02 -0.348 c 0.012 -0.191 0.023 -0.375 0.027 -0.406 c 0.004 -0.035 0.023 -0.102 0.047 -0.148 c 0.051 -0.109 0.016 -0.215 -0.086 -0.242 c -0.094 -0.023 -0.109 -0.18 -0.027 -0.25 c 0.031 -0.023 0.07 -0.145 0.082 -0.266 c 0.016 -0.121 0.043 -0.219 0.063 -0.219 c 0.02 0 0.078 0.047 0.129 0.102 c 0.09 0.098 0.098 0.098 0.375 0.059 c 0.273 -0.039 0.402 -0.027 0.402 0.039 c 0 0.02 0.055 0.051 0.117 0.074 c 0.074 0.027 0.121 0.07 0.121 0.117 c 0 0.039 0.012 0.109 0.023 0.16 c 0.02 0.074 0.008 0.09 -0.059 0.09 c -0.078 0 -0.102 0.039 -0.09 0.148 c 0.012 0.074 -0.063 0.102 -0.145 0.047 c -0.066 -0.039 -0.098 -0.023 -0.246 0.121 c -0.094 0.09 -0.195 0.168 -0.223 0.168 c -0.074 0 -0.172 0.164 -0.172 0.305 c 0 0.242 0.242 0.305 0.438 0.113 c 0.09 -0.09 0.125 -0.102 0.172 -0.063 c 0.031 0.027 0.105 0.043 0.164 0.039 c 0.102 -0.012 0.113 0 0.121 0.125 c 0.004 0.078 -0.02 0.176 -0.051 0.219 c -0.059 0.086 -0.074 0.223 -0.023 0.227 c 0.016 0 0.223 -0.039 0.465 -0.082 c 0.238 -0.043 0.82 -0.141 1.301 -0.219 c 0.937 -0.152 1.367 -0.23 1.949 -0.344 c 0.207 -0.043 0.512 -0.098 0.68 -0.125 c 0.277 -0.043 0.309 -0.055 0.309 -0.137 c 0 -0.051 -0.066 -0.387 -0.141 -0.75 c -0.078 -0.359 -0.219 -1.035 -0.313 -1.5 c -0.207 -1 -0.668 -3.227 -0.75 -3.594 c -0.121 -0.559 -0.258 -1.234 -0.281 -1.395 c -0.016 -0.098 -0.035 -0.18 -0.051 -0.188 c -0.016 -0.012 -0.734 0.137 -1.602 0.32 c -0.867 0.188 -1.754 0.375 -1.969 0.418 c -0.219 0.043 -0.805 0.164 -1.305 0.277 c -0.496 0.109 -1.172 0.254 -1.496 0.32 c -1.297 0.266 -7.02 1.496 -7.03 1.512 c -0.012 0.012 0.125 0.727 0.305 1.598 c 0.18 0.867 0.457 2.219 0.621 3 c 0.16 0.785 0.355 1.734 0.43 2.109 c 0.168 0.828 0.16 0.793 0.242 0.77 c 0.039 -0.016 0.211 -0.059 0.387 -0.102 m 8.121 -2.734 c 0.012 -0.023 0.031 -0.043 0.043 -0.043 c 0.008 0 0.016 0.02 0.016 0.043 c 0 0.02 -0.02 0.039 -0.043 0.039 c -0.02 0 -0.027 -0.02 -0.016 -0.039 m -1.59 -0.613 c -0.063 -0.066 -0.059 -0.113 0.012 -0.113 c 0.035 0 0.059 0.039 0.059 0.082 c 0 0.094 -0.004 0.098 -0.07 0.031 m -0.176 -0.203 c -0.016 -0.047 -0.066 -0.07 -0.152 -0.07 c -0.172 0 -0.418 -0.078 -0.445 -0.145 c -0.043 -0.117 0.051 -0.25 0.188 -0.277 c 0.094 -0.02 0.152 -0.059 0.184 -0.129 c 0.023 -0.055 0.09 -0.152 0.148 -0.215 c 0.078 -0.086 0.121 -0.102 0.172 -0.074 c 0.047 0.023 0.152 0.016 0.309 -0.023 c 0.133 -0.035 0.273 -0.055 0.309 -0.043 c 0.094 0.031 0.184 -0.035 0.156 -0.113 c -0.035 -0.086 0.125 -0.176 0.172 -0.098 c 0.02 0.031 0.035 0.066 0.035 0.078 c 0 0.012 0.047 0.043 0.102 0.07 c 0.152 0.07 0.117 0.137 -0.121 0.238 c -0.23 0.094 -0.418 0.109 -0.668 0.051 c -0.086 -0.02 -0.172 -0.023 -0.195 -0.008 c -0.023 0.012 -0.078 0.027 -0.121 0.027 c -0.098 0 -0.129 0.137 -0.043 0.188 c 0.066 0.039 0.078 0.184 0.031 0.453 c -0.023 0.117 -0.039 0.141 -0.059 0.09 m -0.836 -0.551 c 0.012 -0.023 0.043 -0.031 0.063 -0.02 c 0.055 0.035 0.043 0.059 -0.027 0.059 c -0.031 0 -0.047 -0.016 -0.035 -0.039 m -5.441 -0.48 c -0.121 -0.051 -0.242 -0.203 -0.344 -0.426 c -0.109 -0.246 -0.117 -0.754 -0.016 -0.996 c 0.105 -0.262 0.402 -0.645 0.555 -0.73 l 0.145 -0.078 l 0.098 0.113 c 0.105 0.125 0.152 0.277 0.117 0.371 c -0.016 0.047 -0.051 0.059 -0.141 0.039 c -0.168 -0.039 -0.281 0.098 -0.41 0.484 c -0.109 0.336 -0.137 0.691 -0.055 0.77 c 0.094 0.098 0.297 0.059 0.461 -0.094 c 0.133 -0.121 0.168 -0.137 0.238 -0.098 c 0.109 0.059 0.145 0.23 0.074 0.359 c -0.105 0.195 -0.539 0.367 -0.723 0.285 m 6.68 -0.266 c -0.035 -0.043 -0.09 -0.059 -0.172 -0.047 c -0.07 0.012 -0.164 0 -0.211 -0.027 l -0.09 -0.047 l 0.129 -0.125 c 0.184 -0.172 0.426 -0.215 0.426 -0.074 c 0 0.027 0.063 0.094 0.137 0.148 c 0.191 0.133 0.184 0.164 -0.043 0.211 c -0.086 0.02 -0.137 0.008 -0.176 -0.039 m -5.238 -0.203 c -0.117 -0.063 -0.289 -0.184 -0.379 -0.273 c -0.211 -0.207 -0.254 -0.387 -0.16 -0.688 c 0.082 -0.262 0.172 -0.379 0.406 -0.531 c 0.164 -0.102 0.23 -0.117 0.512 -0.125 l 0.324 -0.004 l 0.184 0.23 c 0.199 0.246 0.293 0.434 0.293 0.582 c 0 0.125 -0.148 0.59 -0.223 0.707 c -0.145 0.227 -0.609 0.277 -0.957 0.102 m 0.43 -0.297 c 0.117 -0.063 0.188 -0.313 0.18 -0.633 c -0.004 -0.16 -0.016 -0.297 -0.023 -0.301 c -0.008 -0.004 -0.066 -0.055 -0.125 -0.105 l -0.109 -0.098 l -0.086 0.086 c -0.051 0.047 -0.168 0.156 -0.262 0.238 c -0.164 0.145 -0.172 0.168 -0.191 0.414 c -0.02 0.219 -0.008 0.27 0.051 0.324 c 0.121 0.109 0.43 0.148 0.566 0.074 m 1.063 0.07 c -0.031 -0.055 -0.051 -0.289 -0.055 -0.582 c -0.008 -0.477 -0.012 -0.496 -0.113 -0.59 c -0.117 -0.113 -0.137 -0.266 -0.043 -0.359 c 0.109 -0.113 0.477 -0.195 0.789 -0.18 c 0.371 0.02 0.488 0.102 0.563 0.387 c 0.07 0.254 0.023 0.402 -0.16 0.512 l -0.121 0.074 l 0.094 0.074 c 0.324 0.25 0.391 0.324 0.391 0.414 c 0 0.051 -0.016 0.105 -0.039 0.117 c -0.02 0.016 -0.164 -0.031 -0.324 -0.102 c -0.465 -0.203 -0.688 -0.273 -0.73 -0.23 c -0.02 0.02 -0.027 0.125 -0.02 0.234 c 0.027 0.289 -0.125 0.438 -0.23 0.23 m 0.625 -1.199 c 0.09 -0.027 0.156 -0.063 0.145 -0.082 c -0.051 -0.082 -0.648 -0.004 -0.648 0.086 c 0 0.047 0.316 0.043 0.504 -0.004 m 2.77 1.133 c 0 -0.023 0.02 -0.051 0.039 -0.063 c 0.023 -0.016 0.039 0.004 0.039 0.035 c 0 0.035 -0.016 0.063 -0.039 0.063 c -0.02 0 -0.039 -0.016 -0.039 -0.035 m 0.559 -0.047 c 0.008 -0.055 0.043 -0.102 0.082 -0.109 c 0.055 -0.012 0.063 0.004 0.035 0.078 c -0.047 0.129 -0.133 0.148 -0.117 0.031 m -1.727 -0.211 l -0.113 -0.102 l -0.012 -0.563 c -0.012 -0.402 -0.027 -0.566 -0.059 -0.566 c -0.027 0 -0.172 0.063 -0.324 0.141 c -0.297 0.152 -0.426 0.156 -0.406 0.008 c 0.008 -0.059 0.125 -0.152 0.367 -0.297 c 0.641 -0.379 1.309 -0.57 1.414 -0.402 c 0.066 0.109 -0.078 0.207 -0.379 0.266 c -0.141 0.027 -0.273 0.063 -0.305 0.082 c -0.039 0.027 -0.043 0.164 -0.008 0.73 c 0.035 0.574 0.035 0.703 -0.008 0.75 c -0.043 0.043 -0.07 0.035 -0.168 -0.047 m 1.973 -0.07 c 0.07 -0.055 0.102 -0.121 0.102 -0.203 c 0 -0.07 0.016 -0.109 0.039 -0.094 c 0.078 0.047 0.039 0.215 -0.063 0.297 c -0.059 0.047 -0.121 0.082 -0.145 0.082 c -0.023 0 0.008 -0.035 0.066 -0.082 m 2.883 0.043 c -0.016 -0.023 0 -0.074 0.035 -0.113 c 0.051 -0.055 0.063 -0.055 0.063 -0.004 c 0 0.098 -0.063 0.176 -0.098 0.117 m -3.207 -0.387 c -0.172 -0.254 -0.234 -0.441 -0.285 -0.902 c -0.027 -0.258 -0.039 -0.5 -0.023 -0.535 c 0.043 -0.113 0.156 -0.055 0.195 0.098 c 0.02 0.078 0.105 0.379 0.191 0.668 c 0.086 0.289 0.152 0.578 0.145 0.641 c -0.02 0.156 -0.125 0.172 -0.223 0.031 m 0.527 -0.219 c -0.105 -0.094 -0.141 -0.156 -0.141 -0.25 c 0 -0.07 -0.027 -0.297 -0.059 -0.504 c -0.07 -0.43 -0.051 -0.488 0.16 -0.488 c 0.07 0 0.211 -0.035 0.313 -0.078 c 0.336 -0.148 0.691 -0.082 0.93 0.168 c 0.082 0.082 0.223 0.273 0.316 0.418 c 0.137 0.211 0.168 0.301 0.172 0.449 c 0 0.145 -0.016 0.188 -0.066 0.199 c -0.09 0.02 -0.375 -0.383 -0.449 -0.637 c -0.07 -0.246 -0.191 -0.336 -0.402 -0.309 c -0.195 0.027 -0.598 0.258 -0.598 0.344 c 0 0.039 0.023 0.219 0.059 0.406 c 0.031 0.184 0.047 0.352 0.035 0.371 c -0.039 0.066 -0.133 0.035 -0.27 -0.09 m 3.02 -0.113 c -0.031 -0.063 -0.02 -0.09 0.063 -0.145 c 0.055 -0.035 0.129 -0.055 0.164 -0.039 c 0.063 0.023 0.063 0.027 0 0.066 c -0.039 0.02 -0.07 0.074 -0.07 0.117 c 0 0.098 -0.105 0.102 -0.156 0 m -0.813 -0.066 c -0.539 -0.285 -0.527 -0.906 0.023 -1.441 c 0.25 -0.242 0.613 -0.434 0.781 -0.414 c 0.094 0.008 0.105 0.027 0.105 0.191 c 0.004 0.164 0.078 0.395 0.328 1.035 c 0.145 0.363 0.105 0.445 -0.16 0.34 c -0.141 -0.059 -0.148 -0.059 -0.301 0.066 c -0.148 0.117 -0.324 0.199 -0.559 0.258 c -0.059 0.016 -0.148 0 -0.219 -0.035 m 0.605 -0.391 c 0.238 -0.145 0.234 -0.109 0.086 -0.629 c -0.125 -0.449 -0.105 -0.418 -0.188 -0.355 c -0.039 0.027 -0.164 0.156 -0.273 0.277 c -0.227 0.258 -0.285 0.457 -0.207 0.699 c 0.039 0.129 0.055 0.141 0.207 0.141 c 0.113 0 0.227 -0.039 0.375 -0.133 m 0.836 -0.211 c -0.023 -0.059 -0.031 -0.117 -0.023 -0.129 c 0.012 -0.012 0.039 0.027 0.063 0.09 c 0.023 0.063 0.031 0.121 0.023 0.133 c -0.012 0.012 -0.039 -0.031 -0.063 -0.094 m 0.059 -0.551 c -0.016 -0.039 -0.02 -0.086 -0.004 -0.098 c 0.039 -0.043 0.07 0.016 0.055 0.094 c -0.02 0.07 -0.02 0.07 -0.051 0.004 m -4.805 -0.09 c -0.082 -0.082 -0.117 -0.281 -0.07 -0.375 c 0.023 -0.043 0.109 -0.109 0.188 -0.148 c 0.184 -0.086 0.258 -0.047 0.305 0.16 c 0.039 0.164 0 0.223 -0.258 0.363 c -0.094 0.051 -0.113 0.051 -0.164 0 m 4.586 -0.359 c 0 -0.066 0.152 -0.164 0.191 -0.125 c 0.02 0.023 -0.125 0.184 -0.168 0.184 c -0.012 0 -0.023 -0.027 -0.023 -0.059 m -6.855 7 c 0.188 -0.063 0.227 -0.113 0.207 -0.262 c -0.02 -0.121 -0.031 -0.129 -0.223 -0.141 c -0.379 -0.027 -0.527 0.117 -0.359 0.359 c 0.066 0.098 0.176 0.113 0.375 0.043 m 3.996 -0.863 c 0.035 -0.012 0.063 -0.047 0.063 -0.078 c 0 -0.086 -0.109 -0.066 -0.16 0.023 c -0.043 0.082 -0.016 0.102 0.098 0.055 m -9.199 2.574 c 0 -0.047 0.008 -0.059 0.023 -0.023 c 0.012 0.027 0.008 0.063 -0.004 0.074 c -0.012 0.016 -0.023 -0.008 -0.02 -0.051 m -0.043 -0.203 c 0.004 -0.047 0.012 -0.055 0.027 -0.023 c 0.008 0.031 0.008 0.063 -0.004 0.078 c -0.016 0.012 -0.023 -0.012 -0.023 -0.055 m -0.035 -0.176 c 0 -0.055 0.008 -0.078 0.02 -0.051 c 0.012 0.027 0.012 0.074 0 0.102 c -0.012 0.027 -0.02 0.004 -0.02 -0.051 m -0.039 -0.199 c 0 -0.059 0.008 -0.078 0.02 -0.051 c 0.012 0.027 0.012 0.07 0 0.098 c -0.012 0.027 -0.02 0.008 -0.02 -0.047 m -0.043 -0.188 c 0.004 -0.047 0.012 -0.055 0.023 -0.023 c 0.012 0.031 0.012 0.063 -0.004 0.078 c -0.012 0.012 -0.02 -0.012 -0.02 -0.055 m -0.039 -0.199 c 0.004 -0.047 0.012 -0.055 0.023 -0.023 c 0.012 0.027 0.012 0.063 -0.004 0.074 c -0.012 0.016 -0.02 -0.008 -0.02 -0.051 m -0.035 -0.176 c 0 -0.059 0.008 -0.078 0.02 -0.051 c 0.012 0.027 0.012 0.07 0 0.098 c -0.012 0.031 -0.02 0.008 -0.02 -0.047 m -0.039 -0.203 c 0 -0.055 0.008 -0.078 0.02 -0.051 c 0.012 0.027 0.012 0.074 0 0.102 c -0.012 0.027 -0.02 0.004 -0.02 -0.051 m -0.043 -0.184 c 0 -0.047 0.012 -0.055 0.023 -0.023 c 0.012 0.027 0.008 0.063 -0.004 0.078 c -0.012 0.012 -0.023 -0.012 -0.02 -0.055 m -0.039 -0.199 c 0 -0.047 0.012 -0.059 0.023 -0.027 c 0.012 0.031 0.008 0.066 -0.004 0.078 c -0.012 0.016 -0.023 -0.012 -0.02 -0.051 m -0.059 -0.234 c -0.035 -0.176 -0.215 -0.438 -1.402 -2.031 c -0.547 -0.734 -0.988 -1.352 -0.98 -1.371 c 0.008 -0.02 0.297 0.348 0.645 0.816 c 1.375 1.859 1.523 2.047 1.598 2.027 c 0.074 -0.02 0.129 0.137 0.176 0.504 c 0.027 0.219 0 0.258 -0.035 0.055 m -0.137 -0.707 c 0 -0.055 0.008 -0.078 0.02 -0.051 c 0.012 0.027 0.012 0.074 0 0.102 c -0.012 0.027 -0.02 0.004 -0.02 -0.051 m 15.656 0.031 c -0.07 -0.09 -0.156 -0.441 -0.504 -2.121 c -0.188 -0.895 -0.355 -1.699 -0.375 -1.785 c -0.02 -0.09 -0.066 -0.289 -0.109 -0.449 c -0.043 -0.156 -0.105 -0.461 -0.141 -0.68 c -0.035 -0.219 -0.102 -0.57 -0.148 -0.781 c -0.043 -0.211 -0.191 -0.957 -0.332 -1.66 c -0.316 -1.598 -0.313 -1.594 -0.414 -1.594 c -0.078 0 -0.93 0.188 -1.652 0.359 c -0.184 0.047 -1.746 0.383 -3.469 0.75 c -1.727 0.367 -3.586 0.766 -4.137 0.883 c -0.551 0.121 -1.051 0.219 -1.105 0.219 c -0.059 0 -0.273 0.043 -0.477 0.098 c -0.473 0.121 -3.348 0.707 -3.484 0.707 c -0.121 0 -0.121 -0.008 -0.047 -0.156 c 0.145 -0.281 0.367 -0.391 1.246 -0.59 c 0.355 -0.078 0.809 -0.199 1 -0.27 c 0.453 -0.152 1.203 -0.523 1.652 -0.813 c 0.195 -0.125 1.613 -1.199 3.156 -2.387 c 1.539 -1.188 2.875 -2.207 2.961 -2.27 c 0.316 -0.211 0.633 -0.191 0.875 0.059 c 0.086 0.086 0.563 0.699 1.055 1.363 c 0.492 0.66 0.949 1.254 1.02 1.312 c 0.066 0.059 0.215 0.148 0.324 0.199 c 0.184 0.086 0.254 0.098 0.699 0.09 c 0.477 -0.008 0.504 -0.004 0.652 0.098 c 0.223 0.148 0.336 0.422 0.496 1.176 c 0.191 0.91 0.367 1.434 0.746 2.211 c 0.184 0.371 0.344 0.734 0.359 0.805 c 0.027 0.145 -0.043 0.457 -0.102 0.457 c -0.023 0 -0.102 -0.047 -0.176 -0.105 c -0.164 -0.129 -0.172 -0.078 -0.039 0.203 c 0.066 0.141 0.086 0.215 0.059 0.266 c -0.023 0.039 -0.039 0.086 -0.039 0.098 c 0 0.031 0.133 0.008 0.246 -0.039 c 0.113 -0.047 0.086 0.07 -0.047 0.199 c -0.066 0.063 -0.121 0.141 -0.121 0.172 c 0 0.027 0.145 0.742 0.32 1.586 c 0.336 1.633 0.379 1.996 0.262 2.223 c -0.09 0.172 -0.164 0.23 -0.215 0.168 m -11.48 -7.676 c 0.301 -0.184 0.664 -0.457 3.227 -2.434 c 1.242 -0.957 2.289 -1.742 2.324 -1.746 c 0.035 -0.004 0.387 0.434 0.902 1.121 c 0.461 0.617 0.914 1.211 1.01 1.313 c 0.172 0.195 0.266 0.242 0.266 0.137 c 0 -0.164 -1.98 -2.848 -2.113 -2.867 c -0.102 -0.016 -5.152 3.852 -5.738 4.387 c -0.281 0.258 -0.219 0.305 0.125 0.09 m -5.176 6.203 c -0.539 -0.727 -0.977 -1.34 -0.977 -1.363 c 0 -0.02 0.215 -0.207 0.48 -0.41 c 0.57 -0.438 0.699 -0.559 0.699 -0.629 c 0 -0.145 -0.145 -0.078 -0.633 0.289 c -0.543 0.402 -0.672 0.453 -0.699 0.266 c -0.039 -0.289 0.102 -0.512 0.523 -0.836 c 0.129 -0.102 0.316 -0.258 0.41 -0.352 l 0.168 -0.164 l -0.02 -0.32 l -0.023 -0.32 l 0.117 0.461 c 0.066 0.254 0.137 0.586 0.16 0.734 c 0.02 0.148 0.055 0.301 0.074 0.34 c 0.066 0.117 0.715 3.355 0.703 3.492 c -0.008 0.121 -0.082 0.035 -0.988 -1.188 m -0.102 -3.926 c 0 -0.047 0.008 -0.055 0.023 -0.023 c 0.012 0.031 0.008 0.063 -0.004 0.078 c -0.012 0.012 -0.023 -0.012 -0.02 -0.055 m -0.043 -0.199 c 0.004 -0.047 0.012 -0.059 0.027 -0.023 c 0.008 0.027 0.008 0.063 -0.004 0.074 c -0.016 0.016 -0.023 -0.008 -0.023 -0.051" fill="#a3a3a3"/><path d="m 7.672 19.414 c -0.215 -0.246 -0.805 -1.074 -0.785 -1.105 c 0.012 -0.02 0.113 -0.059 0.23 -0.082 c 1.898 -0.414 3.074 -0.656 3.094 -0.633 c 0.016 0.012 0 0.047 -0.031 0.078 c -0.105 0.098 -2.328 1.797 -2.375 1.813 c -0.027 0.012 -0.086 -0.02 -0.133 -0.07 m -2.414 -1.133 c -0.063 -0.078 -1.875 -8.938 -1.832 -8.98 c 0.02 -0.02 0.551 -0.148 1.18 -0.281 c 7.441 -1.594 12.977 -2.77 13.05 -2.77 c 0.082 0 0.098 0.031 0.156 0.289 c 0.406 1.898 1.781 8.695 1.762 8.715 c -0.016 0.016 -0.195 0.066 -0.402 0.109 c -0.355 0.078 -12.813 2.742 -13.531 2.891 c -0.254 0.055 -0.355 0.063 -0.383 0.027 m 1.598 -1.531 c 0.734 -0.191 1.461 -0.371 1.613 -0.402 c 0.539 -0.105 0.855 -0.199 0.875 -0.25 c 0.063 -0.16 -0.207 -0.469 -0.355 -0.414 c -0.047 0.02 -0.164 0.035 -0.258 0.039 c -0.102 0.004 -0.238 0.047 -0.34 0.109 c -0.129 0.074 -0.25 0.105 -0.465 0.121 c -0.285 0.02 -0.289 0.02 -0.379 -0.105 c -0.07 -0.098 -0.113 -0.121 -0.184 -0.105 c -0.109 0.031 -0.297 -0.109 -0.297 -0.219 c 0 -0.043 -0.02 -0.113 -0.043 -0.152 c -0.059 -0.094 -0.02 -0.207 0.086 -0.234 c 0.07 -0.02 0.074 -0.043 0.055 -0.211 c -0.023 -0.16 -0.012 -0.215 0.063 -0.313 c 0.086 -0.125 0.105 -0.246 0.063 -0.391 c -0.027 -0.086 0.027 -0.156 0.293 -0.371 c 0.238 -0.199 0.453 -0.324 0.633 -0.375 c 0.098 -0.023 0.207 -0.066 0.25 -0.086 c 0.145 -0.078 0.555 -0.164 0.793 -0.164 c 0.691 0.004 0.848 0.012 0.969 0.066 c 0.074 0.031 0.219 0.082 0.328 0.113 c 0.117 0.031 0.199 0.078 0.211 0.121 c 0.008 0.039 0.051 0.078 0.09 0.094 c 0.137 0.043 0.141 0.301 0.008 0.402 c -0.051 0.039 -0.031 0.066 0.113 0.164 c 0.109 0.074 0.176 0.152 0.184 0.215 c 0.008 0.055 0.059 0.141 0.109 0.191 c 0.094 0.094 0.129 0.301 0.066 0.391 c -0.051 0.07 -0.203 0.141 -0.305 0.141 c -0.055 0 -0.098 0.023 -0.102 0.051 c 0 0.066 -0.387 0.195 -0.496 0.168 c -0.047 -0.016 -0.176 0.016 -0.285 0.066 c -0.191 0.082 -0.207 0.082 -0.277 0.02 c -0.07 -0.066 -0.086 -0.063 -0.238 0.035 c -0.121 0.078 -0.16 0.129 -0.16 0.207 c 0 0.137 0.145 0.379 0.227 0.379 c 0.031 0 0.266 -0.047 0.52 -0.102 c 0.25 -0.059 0.535 -0.121 0.633 -0.141 c 0.098 -0.02 0.516 -0.109 0.93 -0.199 c 1.156 -0.246 2.672 -0.547 3.586 -0.707 c 2.875 -0.5 3.609 -0.637 3.609 -0.668 c 0 -0.059 -1.547 -7.523 -1.566 -7.555 c -0.008 -0.016 -0.043 -0.027 -0.078 -0.027 c -0.055 0 -4.961 1.039 -6.242 1.324 c -0.293 0.062 -0.746 0.16 -1.01 0.215 c -1.934 0.406 -6.098 1.313 -6.129 1.332 c -0.023 0.012 -0.039 0.051 -0.039 0.086 c 0 0.055 0.945 4.699 1.141 5.617 c 0.043 0.199 0.133 0.633 0.199 0.965 c 0.148 0.738 0.191 0.902 0.23 0.902 c 0.016 0 0.633 -0.156 1.367 -0.344 m -0.809 -4.434 c -0.137 -0.035 -0.34 -0.359 -0.395 -0.621 c -0.102 -0.5 0.145 -1.137 0.563 -1.438 l 0.121 -0.086 l 0.113 0.129 c 0.152 0.176 0.137 0.305 -0.035 0.305 c -0.176 0 -0.27 0.109 -0.406 0.469 c -0.137 0.371 -0.164 0.746 -0.059 0.855 c 0.125 0.125 0.383 0.066 0.563 -0.129 c 0.086 -0.094 0.094 -0.098 0.168 -0.027 c 0.172 0.156 0.023 0.402 -0.309 0.516 c -0.098 0.035 -0.191 0.063 -0.203 0.059 c -0.012 0 -0.066 -0.016 -0.121 -0.031 m 1.531 -0.422 c -0.148 -0.055 -0.379 -0.223 -0.539 -0.395 c -0.133 -0.148 -0.148 -0.34 -0.047 -0.625 c 0.074 -0.207 0.121 -0.273 0.289 -0.395 c 0.188 -0.137 0.227 -0.148 0.531 -0.16 l 0.328 -0.016 l 0.137 0.152 c 0.176 0.188 0.332 0.496 0.328 0.641 c 0 0.063 -0.047 0.246 -0.105 0.414 c -0.094 0.258 -0.129 0.309 -0.246 0.371 c -0.16 0.082 -0.469 0.086 -0.676 0.012 m 0.371 -0.293 c 0.121 -0.148 0.16 -0.281 0.172 -0.602 l 0.008 -0.328 l -0.152 -0.121 c -0.168 -0.141 -0.215 -0.152 -0.262 -0.066 c -0.02 0.031 -0.109 0.113 -0.203 0.184 c -0.094 0.066 -0.195 0.188 -0.227 0.262 c -0.059 0.141 -0.074 0.445 -0.031 0.563 c 0.063 0.164 0.578 0.246 0.695 0.109 m 1.051 0.043 c -0.035 -0.043 -0.051 -0.148 -0.047 -0.293 c 0.008 -0.121 0 -0.352 -0.012 -0.512 c -0.02 -0.234 -0.043 -0.309 -0.121 -0.395 c -0.207 -0.23 -0.004 -0.41 0.516 -0.449 c 0.508 -0.039 0.695 0.078 0.758 0.473 c 0.023 0.148 0.016 0.168 -0.137 0.313 c -0.09 0.086 -0.164 0.164 -0.164 0.176 c 0 0.012 0.09 0.082 0.199 0.152 c 0.207 0.137 0.293 0.25 0.258 0.34 c -0.016 0.043 -0.141 0.004 -0.52 -0.152 c -0.484 -0.203 -0.496 -0.207 -0.551 -0.129 c -0.039 0.051 -0.051 0.125 -0.035 0.211 c 0.027 0.145 -0.004 0.332 -0.059 0.332 c -0.02 0 -0.059 -0.031 -0.086 -0.066 m 0.418 -1.117 c 0.336 -0.023 0.531 -0.141 0.324 -0.195 c -0.254 -0.07 -0.699 0.02 -0.699 0.145 c 0 0.082 0.047 0.117 0.117 0.09 c 0.031 -0.016 0.148 -0.031 0.258 -0.039 m 1.734 0.703 c -0.043 -0.086 -0.059 -0.25 -0.059 -0.625 c 0 -0.609 -0.008 -0.617 -0.406 -0.41 c -0.152 0.078 -0.301 0.133 -0.332 0.121 c -0.074 -0.027 -0.063 -0.129 0.02 -0.16 c 0.035 -0.016 0.211 -0.113 0.383 -0.215 c 0.457 -0.273 1.109 -0.484 1.238 -0.402 c 0.113 0.074 0.008 0.156 -0.293 0.227 c -0.164 0.043 -0.328 0.094 -0.363 0.117 c -0.051 0.039 -0.055 0.133 -0.02 0.727 c 0.023 0.375 0.031 0.691 0.023 0.711 c -0.043 0.066 -0.133 0.023 -0.191 -0.09 m 1.703 -0.375 c -0.168 -0.223 -0.199 -0.32 -0.25 -0.73 c -0.066 -0.543 -0.066 -0.664 0.004 -0.664 c 0.035 0 0.066 0.059 0.082 0.152 c 0.012 0.082 0.094 0.375 0.18 0.652 c 0.211 0.676 0.203 0.891 -0.016 0.59 m 0.523 -0.188 c -0.082 -0.082 -0.117 -0.156 -0.117 -0.25 c 0 -0.074 -0.027 -0.285 -0.055 -0.473 c -0.031 -0.191 -0.039 -0.363 -0.023 -0.383 c 0.02 -0.023 0.082 -0.047 0.145 -0.051 c 0.059 -0.008 0.203 -0.047 0.316 -0.09 c 0.402 -0.152 0.707 -0.07 0.988 0.266 c 0.223 0.266 0.41 0.629 0.395 0.77 c -0.004 0.059 -0.031 0.109 -0.059 0.109 c -0.07 0 -0.32 -0.379 -0.391 -0.594 c -0.07 -0.223 -0.211 -0.352 -0.383 -0.352 c -0.07 0 -0.254 0.066 -0.41 0.145 c -0.328 0.164 -0.324 0.156 -0.23 0.66 c 0.074 0.402 0.035 0.461 -0.176 0.242 m 2.227 -0.184 c -0.18 -0.074 -0.32 -0.234 -0.375 -0.41 c -0.039 -0.133 -0.035 -0.199 0.023 -0.395 c 0.051 -0.188 0.113 -0.285 0.32 -0.504 c 0.266 -0.281 0.621 -0.492 0.777 -0.469 c 0.066 0.008 0.082 0.035 0.074 0.121 c -0.012 0.105 0.121 0.523 0.324 1.023 c 0.055 0.137 0.102 0.277 0.102 0.313 c 0 0.078 -0.09 0.078 -0.238 0 c -0.109 -0.059 -0.121 -0.055 -0.246 0.055 c -0.262 0.234 -0.582 0.348 -0.762 0.266 m 0.488 -0.258 c 0.078 -0.043 0.195 -0.121 0.258 -0.172 c 0.113 -0.094 0.113 -0.098 0.051 -0.223 c -0.035 -0.066 -0.094 -0.262 -0.129 -0.434 c -0.039 -0.172 -0.09 -0.316 -0.125 -0.328 c -0.063 -0.023 -0.457 0.352 -0.543 0.516 c -0.094 0.18 -0.109 0.406 -0.043 0.57 c 0.059 0.137 0.074 0.148 0.223 0.148 c 0.09 0 0.227 -0.035 0.309 -0.078 m -3.84 -1.02 c -0.063 -0.172 -0.035 -0.281 0.102 -0.375 c 0.172 -0.125 0.246 -0.105 0.285 0.066 c 0.023 0.125 0.016 0.152 -0.098 0.254 c -0.133 0.117 -0.258 0.141 -0.289 0.055 m -8.559 4.863 c -0.234 -0.316 -0.645 -0.867 -0.91 -1.23 c -0.473 -0.633 -0.488 -0.656 -0.422 -0.734 c 0.098 -0.105 1.063 -0.836 1.109 -0.836 c 0.02 0 0.094 0.285 0.164 0.633 c 0.07 0.348 0.227 1.09 0.344 1.652 c 0.117 0.559 0.215 1.035 0.215 1.055 c 0 0.105 -0.121 -0.023 -0.5 -0.539 m 15.402 -2.922 c 0 -0.035 0.125 -0.121 0.18 -0.121 c 0.016 0 -0.004 0.035 -0.043 0.082 c -0.074 0.086 -0.137 0.102 -0.137 0.039 m -0.102 -0.328 c -0.027 -0.047 -0.254 -1.098 -0.254 -1.184 c 0 -0.109 0.102 -0.047 0.223 0.137 c 0.07 0.105 0.211 0.313 0.316 0.465 l 0.191 0.277 l -0.191 0.176 c -0.199 0.184 -0.242 0.203 -0.285 0.129 m -0.035 -1.469 c -0.148 -0.172 -0.293 -0.363 -0.316 -0.434 c -0.059 -0.137 -0.191 -0.918 -0.172 -0.98 c 0.012 -0.039 0.824 1.633 0.824 1.699 c 0 0.074 -0.094 -0.004 -0.336 -0.285 m -12.13 -1.496 c 0.617 -0.313 1.129 -0.555 1.137 -0.547 c 0.023 0.023 -0.816 0.781 -0.941 0.848 c -0.09 0.051 -0.715 0.176 -1.18 0.242 c -0.082 0.012 0.301 -0.203 0.984 -0.543 m 0.836 0.109 c 0.055 -0.051 0.402 -0.309 0.77 -0.578 c 0.363 -0.27 1.754 -1.332 3.09 -2.359 c 1.43 -1.102 2.441 -1.855 2.469 -1.84 c 0.027 0.016 0.449 0.57 0.941 1.23 c 0.492 0.664 1 1.328 1.133 1.477 c 0.129 0.148 0.223 0.289 0.211 0.309 c -0.016 0.023 -0.125 0.059 -0.25 0.086 c -0.926 0.184 -6.926 1.469 -7.875 1.684 c -0.195 0.043 -0.406 0.078 -0.473 0.078 h -0.117 m 8.836 -2.148 c -0.059 -0.125 -0.098 -0.238 -0.086 -0.25 c 0.02 -0.02 0.637 0.254 0.703 0.316 c 0.039 0.031 -0.297 0.16 -0.426 0.16 c -0.063 0 -0.109 -0.059 -0.191 -0.227" fill="#c88f2d"/><path d="m 7.672 19.414 c -0.215 -0.246 -0.805 -1.074 -0.785 -1.105 c 0.012 -0.02 0.113 -0.059 0.23 -0.082 c 1.898 -0.414 3.074 -0.656 3.094 -0.633 c 0.016 0.012 0 0.047 -0.031 0.078 c -0.105 0.098 -2.328 1.797 -2.375 1.813 c -0.027 0.012 -0.086 -0.02 -0.133 -0.07 m -2.414 -1.133 c -0.063 -0.078 -1.875 -8.938 -1.832 -8.98 c 0.02 -0.02 0.551 -0.148 1.18 -0.281 c 7.441 -1.594 12.977 -2.77 13.05 -2.77 c 0.082 0 0.098 0.031 0.156 0.289 c 0.406 1.898 1.781 8.695 1.762 8.715 c -0.016 0.016 -0.195 0.066 -0.402 0.109 c -0.355 0.078 -12.813 2.742 -13.531 2.891 c -0.254 0.055 -0.355 0.063 -0.383 0.027 m 1.395 -1.426 c 0.543 -0.133 1.148 -0.285 1.344 -0.34 c 0.195 -0.055 0.469 -0.121 0.609 -0.145 c 0.496 -0.082 0.789 -0.168 0.789 -0.227 c 0 -0.168 -0.273 -0.527 -0.359 -0.477 c -0.016 0.012 -0.129 0.027 -0.25 0.039 c -0.141 0.012 -0.285 0.059 -0.395 0.121 c -0.129 0.078 -0.25 0.109 -0.457 0.125 l -0.285 0.02 l -0.117 -0.141 c -0.094 -0.117 -0.133 -0.141 -0.211 -0.121 c -0.113 0.031 -0.254 -0.074 -0.254 -0.191 c 0 -0.039 -0.02 -0.109 -0.043 -0.148 c -0.059 -0.094 -0.02 -0.207 0.086 -0.234 c 0.07 -0.02 0.074 -0.043 0.055 -0.211 c -0.023 -0.16 -0.012 -0.215 0.063 -0.313 c 0.086 -0.125 0.105 -0.246 0.063 -0.391 c -0.027 -0.086 0.027 -0.156 0.293 -0.371 c 0.238 -0.199 0.453 -0.324 0.633 -0.375 c 0.098 -0.023 0.207 -0.066 0.25 -0.086 c 0.145 -0.082 0.555 -0.164 0.793 -0.164 c 0.652 0.004 0.793 0.012 0.961 0.07 c 0.098 0.031 0.262 0.086 0.359 0.117 c 0.125 0.039 0.18 0.078 0.188 0.141 c 0.008 0.051 0.043 0.086 0.09 0.086 c 0.063 0 0.078 0.027 0.078 0.145 c 0 0.082 -0.031 0.18 -0.063 0.219 c -0.059 0.063 -0.051 0.078 0.109 0.184 c 0.109 0.074 0.172 0.152 0.18 0.215 c 0.008 0.055 0.059 0.141 0.109 0.191 c 0.094 0.094 0.129 0.301 0.066 0.391 c -0.039 0.059 -0.234 0.141 -0.328 0.141 c -0.043 0 -0.074 0.023 -0.078 0.051 c 0 0.074 -0.387 0.184 -0.57 0.16 c -0.117 -0.012 -0.176 0 -0.215 0.047 c -0.059 0.074 -0.156 0.082 -0.293 0.02 c -0.082 -0.039 -0.117 -0.031 -0.238 0.063 c -0.168 0.133 -0.18 0.25 -0.047 0.484 c 0.113 0.191 0.113 0.191 0.906 0.012 c 0.516 -0.113 0.547 -0.117 0.617 -0.051 c 0.059 0.051 0.113 0.063 0.25 0.043 c 0.199 -0.031 0.293 0.035 0.117 0.078 c -0.063 0.016 -0.133 0.043 -0.156 0.063 c -0.023 0.02 -0.074 0.023 -0.113 0.008 c -0.063 -0.023 -0.066 -0.008 -0.047 0.109 c 0.035 0.219 0.102 0.359 0.164 0.359 c 0.035 0 0.063 -0.016 0.063 -0.035 c 0 -0.02 0.055 -0.059 0.121 -0.086 c 0.066 -0.027 0.148 -0.094 0.184 -0.148 l 0.063 -0.098 l 0.066 0.086 c 0.055 0.074 0.078 0.082 0.148 0.047 c 0.113 -0.063 0.203 -0.059 0.203 0.016 c 0 0.066 0.141 0.082 0.18 0.02 c 0.012 -0.023 0.008 -0.043 -0.012 -0.043 c -0.02 0 -0.035 -0.07 -0.035 -0.16 c 0 -0.191 0.082 -0.262 0.266 -0.219 c 0.133 0.027 0.156 0.121 0.039 0.16 c -0.074 0.023 -0.148 0.164 -0.105 0.207 c 0.012 0.012 0.105 0.004 0.211 -0.02 c 0.102 -0.023 0.402 -0.082 0.66 -0.129 c 0.262 -0.047 0.492 -0.102 0.516 -0.121 c 0.023 -0.02 0.164 -0.055 0.313 -0.078 c 0.148 -0.023 0.289 -0.055 0.309 -0.07 c 0.023 -0.012 0.129 -0.031 0.238 -0.039 c 0.25 -0.02 4.293 -0.887 4.328 -0.926 c 0.016 -0.016 0 -0.176 -0.031 -0.352 c -0.094 -0.52 -1.594 -7.867 -1.613 -7.902 c -0.012 -0.016 -0.047 -0.027 -0.082 -0.027 c -0.055 0 -4.957 1.039 -6.242 1.324 c -0.293 0.062 -0.746 0.16 -1 0.215 c -1.938 0.406 -6.102 1.313 -6.133 1.332 c -0.023 0.012 -0.039 0.051 -0.039 0.086 c 0 0.055 0.941 4.684 1.145 5.617 c 0.043 0.199 0.141 0.676 0.219 1.063 c 0.078 0.387 0.16 0.734 0.18 0.773 c 0.023 0.047 0.066 0.066 0.125 0.051 c 0.047 -0.008 0.531 -0.125 1.07 -0.258 m 4.699 -0.473 c -0.043 -0.047 -0.027 -0.094 0.035 -0.094 c 0.031 0 0.059 0.02 0.059 0.039 c 0 0.051 -0.063 0.086 -0.094 0.055 m 1.395 -0.254 c 0 -0.043 0.016 -0.078 0.035 -0.078 c 0.02 0 0.027 0.035 0.016 0.078 c -0.012 0.043 -0.027 0.082 -0.035 0.082 c -0.008 0 -0.016 -0.039 -0.016 -0.082 m -0.473 -0.32 c 0 -0.023 0.016 -0.039 0.039 -0.039 c 0.02 0 0.039 0.016 0.039 0.039 c 0 0.023 -0.02 0.039 -0.039 0.039 c -0.023 0 -0.039 -0.016 -0.039 -0.039 m 1.988 -0.043 c -0.043 -0.07 0.09 -0.188 0.145 -0.129 c 0.035 0.035 0.035 0.063 -0.004 0.109 c -0.059 0.074 -0.105 0.078 -0.141 0.02 m -1.059 -0.063 c -0.035 -0.094 -0.027 -0.215 0.012 -0.215 c 0.066 0 0.129 0.117 0.105 0.199 c -0.031 0.098 -0.082 0.105 -0.117 0.016 m 1.359 -0.031 c -0.035 -0.043 -0.031 -0.063 0.02 -0.078 c 0.09 -0.039 0.098 -0.035 0.098 0.055 c 0 0.094 -0.051 0.102 -0.117 0.023 m -8.52 -3.355 c -0.137 -0.035 -0.34 -0.359 -0.395 -0.621 c -0.102 -0.5 0.145 -1.137 0.563 -1.438 l 0.121 -0.086 l 0.113 0.129 c 0.152 0.176 0.137 0.305 -0.031 0.305 c -0.18 0 -0.273 0.109 -0.41 0.473 c -0.137 0.367 -0.16 0.742 -0.055 0.852 c 0.121 0.125 0.379 0.066 0.559 -0.129 c 0.09 -0.094 0.094 -0.094 0.168 -0.027 c 0.172 0.156 0.027 0.402 -0.309 0.516 c -0.098 0.035 -0.191 0.063 -0.203 0.063 c -0.012 -0.004 -0.066 -0.02 -0.121 -0.035 m 1.531 -0.422 c -0.148 -0.055 -0.379 -0.223 -0.535 -0.395 c -0.137 -0.148 -0.152 -0.34 -0.047 -0.625 c 0.074 -0.207 0.121 -0.273 0.285 -0.395 c 0.188 -0.137 0.227 -0.148 0.531 -0.16 l 0.328 -0.016 l 0.137 0.152 c 0.176 0.191 0.332 0.496 0.332 0.641 c -0.004 0.063 -0.051 0.246 -0.109 0.414 c -0.09 0.258 -0.125 0.309 -0.246 0.371 c -0.16 0.082 -0.469 0.09 -0.676 0.012 m 0.371 -0.293 c 0.125 -0.145 0.164 -0.281 0.172 -0.602 l 0.008 -0.324 l -0.152 -0.125 c -0.168 -0.141 -0.215 -0.152 -0.262 -0.066 c -0.016 0.031 -0.109 0.113 -0.203 0.184 c -0.094 0.066 -0.195 0.188 -0.227 0.262 c -0.059 0.141 -0.074 0.445 -0.031 0.563 c 0.063 0.164 0.578 0.246 0.695 0.109 m 1.051 0.043 c -0.035 -0.043 -0.051 -0.148 -0.047 -0.293 c 0.008 -0.121 0 -0.352 -0.012 -0.512 c -0.02 -0.23 -0.043 -0.309 -0.121 -0.395 c -0.207 -0.23 -0.004 -0.41 0.52 -0.449 c 0.504 -0.039 0.691 0.078 0.754 0.473 c 0.023 0.148 0.016 0.172 -0.137 0.313 c -0.09 0.086 -0.164 0.164 -0.164 0.176 c 0 0.012 0.09 0.082 0.199 0.152 c 0.207 0.137 0.293 0.25 0.258 0.34 c -0.016 0.043 -0.137 0.004 -0.516 -0.152 c -0.488 -0.203 -0.5 -0.207 -0.555 -0.129 c -0.039 0.051 -0.051 0.125 -0.035 0.211 c 0.027 0.145 -0.004 0.332 -0.059 0.332 c -0.016 0 -0.059 -0.031 -0.086 -0.066 m 0.418 -1.117 c 0.336 -0.023 0.531 -0.141 0.324 -0.195 c -0.254 -0.07 -0.699 0.023 -0.699 0.145 c 0 0.082 0.047 0.117 0.117 0.09 c 0.035 -0.016 0.148 -0.031 0.258 -0.039 m 1.734 0.703 c -0.043 -0.086 -0.059 -0.25 -0.059 -0.625 c 0 -0.609 -0.008 -0.617 -0.406 -0.41 c -0.152 0.078 -0.301 0.133 -0.332 0.121 c -0.074 -0.027 -0.063 -0.129 0.02 -0.16 c 0.039 -0.016 0.211 -0.113 0.383 -0.215 c 0.457 -0.273 1.109 -0.484 1.238 -0.402 c 0.113 0.074 0.008 0.156 -0.293 0.227 c -0.164 0.043 -0.328 0.094 -0.359 0.117 c -0.055 0.039 -0.055 0.133 -0.023 0.727 c 0.023 0.375 0.035 0.695 0.023 0.711 c -0.039 0.066 -0.133 0.023 -0.191 -0.09 m 1.703 -0.371 c -0.168 -0.227 -0.199 -0.324 -0.25 -0.734 c -0.066 -0.543 -0.066 -0.664 0.004 -0.664 c 0.035 0 0.066 0.059 0.082 0.152 c 0.016 0.082 0.094 0.375 0.18 0.652 c 0.211 0.68 0.203 0.891 -0.016 0.594 m 0.523 -0.191 c -0.082 -0.082 -0.117 -0.156 -0.117 -0.25 c 0 -0.074 -0.023 -0.285 -0.055 -0.473 c -0.031 -0.191 -0.039 -0.363 -0.023 -0.383 c 0.02 -0.023 0.082 -0.047 0.145 -0.051 c 0.059 -0.008 0.203 -0.047 0.32 -0.09 c 0.398 -0.152 0.703 -0.07 0.984 0.266 c 0.223 0.266 0.414 0.633 0.398 0.77 c -0.008 0.059 -0.035 0.109 -0.063 0.109 c -0.07 0 -0.32 -0.375 -0.387 -0.594 c -0.074 -0.223 -0.215 -0.352 -0.387 -0.352 c -0.07 0 -0.254 0.066 -0.41 0.145 c -0.328 0.164 -0.324 0.156 -0.23 0.66 c 0.074 0.402 0.035 0.461 -0.176 0.242 m 2.227 -0.18 c -0.176 -0.078 -0.32 -0.238 -0.371 -0.414 c -0.039 -0.133 -0.039 -0.199 0.02 -0.395 c 0.055 -0.188 0.113 -0.285 0.324 -0.504 c 0.262 -0.277 0.617 -0.492 0.777 -0.469 c 0.063 0.008 0.078 0.035 0.07 0.121 c -0.012 0.109 0.121 0.523 0.324 1.023 c 0.055 0.141 0.102 0.277 0.102 0.313 c 0 0.078 -0.09 0.078 -0.238 0 c -0.109 -0.059 -0.121 -0.055 -0.242 0.055 c -0.266 0.234 -0.586 0.348 -0.766 0.27 m 0.488 -0.262 c 0.082 -0.043 0.195 -0.121 0.258 -0.172 c 0.113 -0.094 0.113 -0.098 0.051 -0.223 c -0.035 -0.066 -0.094 -0.262 -0.129 -0.434 c -0.039 -0.172 -0.09 -0.316 -0.121 -0.328 c -0.063 -0.023 -0.461 0.352 -0.547 0.52 c -0.09 0.18 -0.109 0.402 -0.043 0.566 c 0.059 0.137 0.074 0.148 0.223 0.148 c 0.09 0 0.227 -0.035 0.309 -0.078 m -3.84 -1.02 c -0.063 -0.168 -0.035 -0.281 0.102 -0.375 c 0.176 -0.125 0.246 -0.105 0.285 0.066 c 0.027 0.129 0.016 0.152 -0.098 0.254 c -0.133 0.117 -0.258 0.141 -0.289 0.055 m -8.559 4.863 c -0.234 -0.316 -0.641 -0.867 -0.91 -1.227 c -0.473 -0.637 -0.488 -0.66 -0.422 -0.734 c 0.098 -0.109 1.063 -0.84 1.109 -0.84 c 0.02 0 0.094 0.285 0.164 0.633 c 0.07 0.348 0.227 1.09 0.344 1.652 c 0.117 0.559 0.215 1.035 0.215 1.055 c 0 0.105 -0.121 -0.023 -0.5 -0.539 m 15.402 -2.922 c 0 -0.035 0.125 -0.121 0.184 -0.121 c 0.016 0 -0.004 0.035 -0.043 0.082 c -0.078 0.086 -0.141 0.102 -0.141 0.039 m -0.102 -0.324 c -0.027 -0.051 -0.254 -1.098 -0.254 -1.188 c 0 -0.109 0.105 -0.047 0.227 0.137 c 0.066 0.105 0.207 0.313 0.313 0.465 l 0.191 0.277 l -0.191 0.176 c -0.199 0.184 -0.238 0.203 -0.285 0.133 m -0.035 -1.473 c -0.148 -0.172 -0.289 -0.363 -0.316 -0.43 c -0.059 -0.141 -0.191 -0.922 -0.172 -0.984 c 0.016 -0.039 0.824 1.633 0.824 1.699 c 0 0.074 -0.094 -0.004 -0.336 -0.285 m -12.13 -1.496 c 0.617 -0.309 1.129 -0.555 1.137 -0.547 c 0.023 0.023 -0.816 0.781 -0.941 0.848 c -0.09 0.051 -0.715 0.176 -1.176 0.242 c -0.086 0.012 0.297 -0.199 0.98 -0.543 m 0.836 0.109 c 0.055 -0.051 0.402 -0.309 0.77 -0.578 c 0.367 -0.27 1.758 -1.332 3.09 -2.359 c 1.43 -1.102 2.441 -1.855 2.469 -1.84 c 0.027 0.016 0.449 0.57 0.941 1.234 c 0.496 0.66 1 1.324 1.133 1.473 c 0.129 0.148 0.223 0.289 0.211 0.309 c -0.012 0.023 -0.125 0.059 -0.25 0.086 c -0.926 0.184 -6.926 1.469 -7.875 1.684 c -0.195 0.043 -0.406 0.082 -0.473 0.082 l -0.117 -0.004 m 8.836 -2.148 c -0.059 -0.125 -0.098 -0.234 -0.086 -0.246 c 0.02 -0.023 0.637 0.254 0.703 0.313 c 0.039 0.031 -0.297 0.16 -0.426 0.16 c -0.059 0 -0.109 -0.059 -0.191 -0.227" fill="#b9691b"/><path d="m 7.672 19.414 c -0.215 -0.246 -0.805 -1.074 -0.785 -1.105 c 0.012 -0.02 0.113 -0.059 0.23 -0.082 c 1.898 -0.414 3.074 -0.656 3.094 -0.633 c 0.016 0.012 0 0.047 -0.031 0.078 c -0.105 0.098 -2.328 1.797 -2.375 1.813 c -0.027 0.012 -0.086 -0.02 -0.133 -0.07 m -2.414 -1.133 c -0.063 -0.078 -1.875 -8.938 -1.832 -8.98 c 0.02 -0.02 0.551 -0.148 1.18 -0.281 c 7.441 -1.594 12.977 -2.77 13.05 -2.77 c 0.082 0 0.098 0.031 0.156 0.289 c 0.406 1.898 1.781 8.695 1.762 8.715 c -0.016 0.016 -0.195 0.066 -0.402 0.109 c -0.355 0.078 -12.813 2.742 -13.531 2.891 c -0.254 0.055 -0.355 0.063 -0.383 0.027 m 0.602 -0.465 c 0.09 -0.023 0.715 -0.156 1.387 -0.301 c 7.465 -1.582 11.797 -2.523 11.832 -2.563 c 0.035 -0.035 -0.168 -1.082 -0.797 -4.125 c -0.461 -2.238 -0.852 -4.098 -0.859 -4.125 c -0.012 -0.031 -0.051 -0.055 -0.086 -0.055 c -0.059 0 -4.918 1.031 -6.246 1.328 c -0.293 0.062 -0.746 0.16 -1 0.215 c -1.938 0.406 -6.102 1.313 -6.133 1.332 c -0.023 0.012 -0.039 0.051 -0.039 0.086 c 0 0.051 0.867 4.324 1.164 5.715 c 0.133 0.637 0.355 1.719 0.434 2.129 c 0.035 0.188 0.074 0.355 0.086 0.371 c 0.023 0.043 0.063 0.039 0.262 -0.008 m 3.457 -1.887 c -0.078 -0.16 -0.227 -0.293 -0.281 -0.262 c -0.016 0.012 -0.129 0.027 -0.25 0.039 c -0.141 0.012 -0.285 0.059 -0.395 0.121 c -0.125 0.078 -0.25 0.109 -0.457 0.125 l -0.285 0.02 l -0.117 -0.145 c -0.09 -0.113 -0.133 -0.137 -0.211 -0.117 c -0.113 0.031 -0.254 -0.074 -0.254 -0.191 c 0 -0.039 -0.02 -0.109 -0.043 -0.148 c -0.059 -0.094 -0.016 -0.207 0.086 -0.234 c 0.07 -0.02 0.074 -0.043 0.055 -0.215 c -0.023 -0.156 -0.012 -0.211 0.063 -0.309 c 0.086 -0.125 0.109 -0.246 0.063 -0.391 c -0.027 -0.086 0.027 -0.156 0.293 -0.375 c 0.238 -0.195 0.453 -0.32 0.633 -0.371 c 0.098 -0.023 0.211 -0.066 0.25 -0.086 c 0.145 -0.082 0.555 -0.164 0.793 -0.164 c 0.652 0.004 0.793 0.012 0.961 0.07 c 0.102 0.031 0.262 0.086 0.359 0.117 c 0.125 0.039 0.18 0.078 0.188 0.141 c 0.008 0.051 0.043 0.086 0.09 0.086 c 0.063 0 0.078 0.027 0.078 0.145 c 0 0.082 -0.027 0.18 -0.063 0.219 c -0.059 0.063 -0.047 0.078 0.109 0.184 c 0.109 0.074 0.172 0.152 0.18 0.215 c 0.008 0.055 0.059 0.141 0.109 0.191 c 0.094 0.094 0.129 0.301 0.066 0.391 c -0.039 0.059 -0.234 0.141 -0.328 0.141 c -0.039 0 -0.074 0.023 -0.074 0.051 c -0.004 0.074 -0.391 0.184 -0.566 0.16 c -0.105 -0.012 -0.168 0 -0.223 0.047 c -0.063 0.059 -0.098 0.063 -0.234 0.023 c -0.148 -0.039 -0.172 -0.035 -0.301 0.063 c -0.156 0.121 -0.176 0.242 -0.066 0.426 c 0.059 0.102 0.059 0.121 0.008 0.156 c -0.102 0.066 -0.152 0.043 -0.234 -0.121 m -3.273 -3.613 c -0.137 -0.035 -0.34 -0.359 -0.395 -0.621 c -0.102 -0.5 0.145 -1.137 0.563 -1.438 l 0.121 -0.086 l 0.113 0.129 c 0.152 0.176 0.137 0.305 -0.035 0.305 c -0.176 0 -0.27 0.109 -0.406 0.469 c -0.137 0.371 -0.164 0.746 -0.055 0.855 c 0.121 0.125 0.379 0.066 0.559 -0.129 c 0.086 -0.094 0.094 -0.098 0.168 -0.027 c 0.172 0.156 0.023 0.402 -0.309 0.516 c -0.098 0.035 -0.191 0.063 -0.203 0.059 c -0.012 0 -0.066 -0.016 -0.121 -0.031 m 1.531 -0.422 c -0.148 -0.055 -0.379 -0.223 -0.535 -0.395 c -0.137 -0.148 -0.152 -0.34 -0.047 -0.625 c 0.074 -0.207 0.117 -0.273 0.285 -0.395 c 0.188 -0.137 0.227 -0.148 0.531 -0.16 l 0.328 -0.016 l 0.137 0.152 c 0.176 0.188 0.332 0.496 0.332 0.641 c -0.004 0.063 -0.051 0.246 -0.109 0.414 c -0.09 0.258 -0.125 0.309 -0.246 0.371 c -0.16 0.082 -0.469 0.086 -0.676 0.012 m 0.371 -0.293 c 0.125 -0.148 0.164 -0.281 0.172 -0.602 l 0.008 -0.328 l -0.152 -0.121 c -0.168 -0.141 -0.215 -0.152 -0.262 -0.066 c -0.016 0.031 -0.109 0.113 -0.203 0.184 c -0.094 0.066 -0.195 0.188 -0.227 0.262 c -0.059 0.141 -0.074 0.445 -0.031 0.563 c 0.063 0.164 0.578 0.246 0.695 0.109 m 1.051 0.043 c -0.035 -0.043 -0.051 -0.148 -0.047 -0.293 c 0.008 -0.121 0 -0.352 -0.012 -0.512 c -0.02 -0.234 -0.043 -0.309 -0.121 -0.395 c -0.207 -0.23 -0.004 -0.41 0.52 -0.449 c 0.504 -0.039 0.691 0.078 0.754 0.473 c 0.023 0.148 0.016 0.168 -0.137 0.313 c -0.09 0.086 -0.164 0.164 -0.164 0.176 c 0 0.012 0.09 0.082 0.199 0.152 c 0.207 0.137 0.293 0.25 0.258 0.34 c -0.016 0.043 -0.141 0.004 -0.516 -0.152 c -0.488 -0.203 -0.5 -0.207 -0.555 -0.129 c -0.039 0.051 -0.051 0.125 -0.035 0.211 c 0.027 0.145 -0.004 0.332 -0.059 0.332 c -0.016 0 -0.059 -0.031 -0.086 -0.066 m 0.418 -1.117 c 0.336 -0.023 0.531 -0.141 0.324 -0.195 c -0.254 -0.07 -0.699 0.02 -0.699 0.145 c 0 0.082 0.047 0.117 0.117 0.09 c 0.035 -0.016 0.148 -0.031 0.258 -0.039 m 1.734 0.703 c -0.043 -0.086 -0.059 -0.25 -0.059 -0.625 c 0 -0.609 -0.008 -0.617 -0.406 -0.41 c -0.152 0.078 -0.301 0.133 -0.332 0.121 c -0.074 -0.027 -0.063 -0.129 0.02 -0.16 c 0.035 -0.016 0.211 -0.113 0.383 -0.215 c 0.457 -0.273 1.109 -0.484 1.238 -0.402 c 0.113 0.074 0.008 0.156 -0.293 0.227 c -0.164 0.043 -0.328 0.094 -0.359 0.117 c -0.055 0.039 -0.059 0.133 -0.023 0.727 c 0.023 0.375 0.031 0.691 0.023 0.711 c -0.039 0.066 -0.133 0.023 -0.191 -0.09 m 1.703 -0.375 c -0.168 -0.223 -0.199 -0.32 -0.25 -0.73 c -0.066 -0.543 -0.066 -0.664 0.004 -0.664 c 0.035 0 0.066 0.059 0.082 0.152 c 0.016 0.082 0.094 0.375 0.18 0.652 c 0.211 0.676 0.203 0.891 -0.016 0.59 m 0.523 -0.188 c -0.082 -0.082 -0.117 -0.156 -0.117 -0.25 c 0 -0.074 -0.027 -0.285 -0.055 -0.473 c -0.031 -0.191 -0.039 -0.363 -0.023 -0.383 c 0.02 -0.023 0.082 -0.047 0.145 -0.051 c 0.059 -0.008 0.203 -0.047 0.32 -0.09 c 0.398 -0.152 0.703 -0.07 0.984 0.266 c 0.223 0.266 0.41 0.629 0.395 0.77 c -0.004 0.059 -0.031 0.109 -0.059 0.109 c -0.07 0 -0.32 -0.379 -0.391 -0.594 c -0.07 -0.223 -0.211 -0.352 -0.383 -0.352 c -0.07 0 -0.254 0.066 -0.41 0.145 c -0.328 0.164 -0.324 0.156 -0.23 0.66 c 0.074 0.402 0.035 0.461 -0.176 0.242 m 2.227 -0.184 c -0.176 -0.074 -0.32 -0.234 -0.371 -0.41 c -0.039 -0.133 -0.039 -0.199 0.02 -0.395 c 0.055 -0.188 0.113 -0.285 0.32 -0.504 c 0.266 -0.281 0.621 -0.492 0.777 -0.469 c 0.066 0.008 0.082 0.035 0.074 0.121 c -0.012 0.105 0.121 0.523 0.324 1.023 c 0.055 0.137 0.102 0.277 0.102 0.313 c 0 0.078 -0.09 0.078 -0.238 0 c -0.109 -0.059 -0.121 -0.055 -0.242 0.055 c -0.266 0.234 -0.586 0.348 -0.766 0.266 m 0.488 -0.258 c 0.078 -0.043 0.195 -0.121 0.258 -0.172 c 0.113 -0.094 0.113 -0.098 0.051 -0.223 c -0.035 -0.066 -0.094 -0.262 -0.129 -0.434 c -0.039 -0.172 -0.09 -0.316 -0.121 -0.328 c -0.066 -0.023 -0.461 0.352 -0.547 0.516 c -0.09 0.18 -0.109 0.406 -0.043 0.57 c 0.059 0.137 0.074 0.148 0.223 0.148 c 0.09 0 0.227 -0.035 0.309 -0.078 m -3.84 -1.02 c -0.063 -0.172 -0.035 -0.281 0.102 -0.375 c 0.176 -0.125 0.246 -0.105 0.285 0.066 c 0.023 0.125 0.016 0.152 -0.098 0.254 c -0.133 0.117 -0.258 0.141 -0.289 0.055 m -8.559 4.863 c -0.234 -0.316 -0.645 -0.867 -0.91 -1.23 c -0.473 -0.633 -0.488 -0.656 -0.422 -0.734 c 0.098 -0.105 1.063 -0.836 1.109 -0.836 c 0.02 0 0.094 0.285 0.164 0.633 c 0.07 0.348 0.227 1.09 0.344 1.652 c 0.117 0.559 0.215 1.035 0.215 1.055 c 0 0.105 -0.121 -0.023 -0.5 -0.539 m 15.402 -2.922 c 0 -0.035 0.125 -0.121 0.18 -0.121 c 0.016 0 0 0.035 -0.039 0.082 c -0.078 0.086 -0.141 0.102 -0.141 0.039 m -0.102 -0.328 c -0.027 -0.047 -0.254 -1.098 -0.254 -1.184 c 0 -0.109 0.105 -0.047 0.223 0.137 c 0.07 0.105 0.211 0.313 0.316 0.465 l 0.191 0.277 l -0.191 0.176 c -0.199 0.184 -0.242 0.203 -0.285 0.129 m -0.035 -1.469 c -0.148 -0.172 -0.289 -0.363 -0.316 -0.434 c -0.059 -0.137 -0.191 -0.918 -0.172 -0.98 c 0.012 -0.039 0.824 1.633 0.824 1.699 c 0 0.074 -0.094 -0.004 -0.336 -0.285 m -12.13 -1.496 c 0.617 -0.313 1.129 -0.555 1.137 -0.547 c 0.023 0.023 -0.816 0.781 -0.941 0.848 c -0.09 0.051 -0.715 0.176 -1.176 0.242 c -0.086 0.012 0.297 -0.203 0.98 -0.543 m 0.836 0.109 c 0.055 -0.051 0.402 -0.309 0.77 -0.578 c 0.367 -0.27 1.754 -1.332 3.09 -2.359 c 1.43 -1.102 2.441 -1.855 2.469 -1.84 c 0.027 0.016 0.449 0.57 0.941 1.23 c 0.496 0.664 1 1.328 1.133 1.477 c 0.129 0.148 0.223 0.289 0.211 0.309 c -0.012 0.023 -0.125 0.059 -0.25 0.086 c -0.926 0.184 -6.926 1.469 -7.875 1.684 c -0.195 0.043 -0.406 0.078 -0.473 0.078 h -0.117 m 8.836 -2.148 c -0.059 -0.125 -0.098 -0.238 -0.086 -0.25 c 0.02 -0.02 0.637 0.254 0.703 0.316 c 0.039 0.031 -0.297 0.16 -0.426 0.16 c -0.063 0 -0.109 -0.059 -0.191 -0.227" fill="#616160"/><path d="m 7.332 18.902 c -0.234 -0.309 -0.406 -0.57 -0.383 -0.582 c 0.02 -0.016 0.211 -0.059 0.422 -0.102 c 0.559 -0.109 1.828 -0.387 2.234 -0.484 c 0.191 -0.047 0.383 -0.078 0.43 -0.07 c 0.059 0.008 -0.238 0.258 -1.082 0.906 c -0.637 0.488 -1.172 0.891 -1.184 0.891 c -0.008 0 -0.207 -0.25 -0.438 -0.559 m -2.078 -0.676 c 0 -0.016 -0.41 -2.02 -0.914 -4.457 c -0.5 -2.438 -0.902 -4.438 -0.895 -4.445 c 0.008 -0.012 1.074 -0.246 2.363 -0.523 c 7.562 -1.621 11.77 -2.512 11.832 -2.512 c 0.043 0 0.082 0.035 0.094 0.09 c 0.156 0.645 1.813 8.816 1.793 8.84 c -0.016 0.02 -0.23 0.078 -0.48 0.129 c -3.832 0.828 -13.637 2.91 -13.703 2.91 c -0.051 0 -0.09 -0.016 -0.09 -0.031 m 0.758 -0.434 c 0.156 -0.035 0.918 -0.195 1.688 -0.359 c 6.406 -1.359 11.406 -2.43 11.426 -2.449 c 0.008 -0.008 -0.016 -0.191 -0.051 -0.41 c -0.074 -0.426 -1.586 -7.832 -1.617 -7.914 c -0.008 -0.027 -0.059 -0.051 -0.113 -0.051 c -0.074 0 -4.223 0.879 -7.301 1.547 c -0.238 0.051 -1.707 0.367 -3.266 0.699 c -1.559 0.336 -2.852 0.617 -2.867 0.629 c -0.02 0.012 -0.035 0.063 -0.035 0.109 c 0 0.051 0.195 1.039 0.434 2.199 c 0.238 1.156 0.496 2.406 0.57 2.77 c 0.211 1.039 0.402 1.965 0.469 2.25 c 0.035 0.145 0.102 0.438 0.148 0.652 c 0.098 0.445 0.07 0.426 0.516 0.328 m 3.367 -1.836 c -0.031 -0.07 -0.102 -0.176 -0.156 -0.234 c -0.09 -0.098 -0.121 -0.105 -0.355 -0.094 c -0.191 0.012 -0.309 0.043 -0.465 0.133 c -0.273 0.152 -0.73 0.211 -0.77 0.098 c -0.043 -0.121 -0.184 -0.211 -0.336 -0.211 c -0.129 0 -0.152 -0.016 -0.172 -0.113 c -0.012 -0.059 -0.039 -0.141 -0.059 -0.18 c -0.059 -0.105 -0.047 -0.133 0.063 -0.184 c 0.094 -0.043 0.098 -0.063 0.074 -0.23 c -0.02 -0.133 -0.012 -0.199 0.031 -0.25 c 0.035 -0.039 0.082 -0.137 0.113 -0.219 c 0.039 -0.117 0.039 -0.156 0 -0.207 c -0.043 -0.051 -0.035 -0.082 0.035 -0.172 c 0.043 -0.059 0.125 -0.137 0.172 -0.172 c 0.48 -0.332 0.605 -0.406 0.73 -0.43 c 0.078 -0.012 0.188 -0.047 0.242 -0.074 c 0.055 -0.027 0.18 -0.063 0.273 -0.082 c 0.098 -0.016 0.203 -0.047 0.23 -0.07 c 0.027 -0.023 0.133 -0.027 0.254 -0.012 c 0.113 0.012 0.363 0.027 0.551 0.035 c 0.211 0.004 0.363 0.027 0.391 0.059 c 0.027 0.027 0.09 0.051 0.137 0.051 c 0.156 0 0.371 0.113 0.371 0.199 c 0 0.055 0.027 0.082 0.078 0.082 c 0.063 0 0.078 0.027 0.078 0.113 c 0 0.07 -0.023 0.129 -0.059 0.141 c -0.105 0.043 -0.051 0.199 0.094 0.27 c 0.148 0.07 0.203 0.141 0.203 0.266 c 0 0.047 0.043 0.113 0.098 0.148 c 0.145 0.098 0.129 0.387 -0.02 0.387 c -0.039 0 -0.086 0.02 -0.098 0.043 c -0.016 0.023 -0.063 0.031 -0.102 0.016 c -0.051 -0.016 -0.086 0 -0.102 0.039 c -0.039 0.105 -0.25 0.184 -0.508 0.184 c -0.172 0 -0.262 0.02 -0.293 0.059 c -0.066 0.078 -0.176 0.078 -0.242 0 c -0.113 -0.145 -0.426 0.086 -0.43 0.316 c 0 0.059 0.027 0.164 0.063 0.23 c 0.059 0.117 0.047 0.199 -0.023 0.199 c -0.023 0 -0.063 -0.059 -0.094 -0.133 m -0.074 -0.48 c -0.008 -0.027 -0.039 -0.051 -0.07 -0.051 c -0.027 0 -0.059 0.023 -0.066 0.051 c -0.012 0.031 0.016 0.051 0.066 0.051 c 0.051 0 0.082 -0.02 0.07 -0.051 m -3.281 -3.219 c -0.066 -0.031 -0.156 -0.125 -0.207 -0.211 c -0.234 -0.43 -0.199 -0.938 0.094 -1.391 c 0.102 -0.152 0.238 -0.313 0.305 -0.355 c 0.117 -0.07 0.125 -0.07 0.188 -0.004 c 0.035 0.035 0.078 0.109 0.094 0.16 c 0.02 0.07 0.008 0.09 -0.059 0.09 c -0.125 0 -0.293 0.102 -0.348 0.207 c -0.238 0.48 -0.316 0.977 -0.188 1.18 c 0.063 0.098 0.086 0.105 0.266 0.09 c 0.141 -0.016 0.223 -0.051 0.309 -0.133 c 0.129 -0.125 0.234 -0.113 0.234 0.035 c 0 0.215 -0.453 0.434 -0.688 0.332 m 1.578 -0.387 c -0.301 -0.102 -0.652 -0.465 -0.652 -0.68 c 0 -0.129 0.113 -0.441 0.195 -0.539 c 0.105 -0.129 0.398 -0.316 0.457 -0.293 c 0.082 0.031 0.07 0.176 -0.012 0.203 c -0.039 0.012 -0.141 0.098 -0.227 0.184 c -0.145 0.152 -0.156 0.18 -0.172 0.438 c -0.012 0.242 -0.004 0.285 0.078 0.383 c 0.078 0.09 0.137 0.113 0.344 0.133 c 0.223 0.02 0.254 0.012 0.348 -0.074 c 0.152 -0.145 0.219 -0.344 0.191 -0.563 c -0.016 -0.117 -0.012 -0.195 0.016 -0.215 c 0.074 -0.043 0.047 -0.098 -0.141 -0.305 l -0.184 -0.199 h 0.141 c 0.117 0 0.168 0.031 0.285 0.172 c 0.176 0.207 0.297 0.438 0.297 0.563 c 0 0.176 -0.195 0.691 -0.285 0.75 c -0.109 0.066 -0.523 0.094 -0.68 0.043 m 1.418 -0.238 c -0.016 -0.027 -0.035 -0.285 -0.039 -0.574 c -0.008 -0.504 -0.012 -0.523 -0.113 -0.617 c -0.18 -0.168 -0.133 -0.262 0.168 -0.352 c 0.395 -0.121 0.848 -0.063 0.941 0.121 c 0.055 0.109 0.094 0.355 0.066 0.43 c -0.016 0.035 -0.086 0.102 -0.16 0.148 c -0.074 0.047 -0.133 0.109 -0.133 0.141 c 0 0.031 0.094 0.121 0.211 0.203 c 0.199 0.133 0.289 0.242 0.242 0.285 c -0.02 0.023 -0.109 -0.008 -0.582 -0.207 c -0.203 -0.086 -0.379 -0.137 -0.422 -0.125 c -0.082 0.027 -0.141 0.215 -0.102 0.336 c 0.031 0.102 -0.035 0.281 -0.078 0.211 m 0.668 -1.121 c 0.105 -0.035 0.199 -0.086 0.207 -0.109 c 0.039 -0.117 -0.41 -0.18 -0.707 -0.098 c -0.152 0.047 -0.227 0.168 -0.152 0.258 c 0.055 0.066 0.379 0.039 0.652 -0.051 m 1.516 0.73 c -0.039 -0.047 -0.059 -0.234 -0.074 -0.633 c -0.02 -0.559 -0.02 -0.566 -0.113 -0.578 c -0.051 -0.008 -0.195 0.043 -0.324 0.113 c -0.379 0.203 -0.414 0.125 -0.043 -0.098 c 0.539 -0.32 1.227 -0.566 1.32 -0.469 c 0.047 0.047 -0.055 0.102 -0.328 0.164 c -0.41 0.094 -0.406 0.082 -0.375 0.719 c 0.012 0.301 0.035 0.613 0.047 0.699 c 0.023 0.16 -0.02 0.191 -0.109 0.082 m 1.656 -0.434 c -0.055 -0.09 -0.113 -0.184 -0.129 -0.215 c -0.035 -0.059 -0.145 -0.859 -0.137 -1.012 c 0 -0.086 0.008 -0.078 0.043 0.039 c 0.02 0.078 0.109 0.371 0.195 0.656 c 0.086 0.281 0.148 0.551 0.141 0.602 c -0.012 0.078 -0.023 0.07 -0.113 -0.07 m 0.547 -0.172 c -0.078 -0.082 -0.109 -0.156 -0.109 -0.262 c 0 -0.082 -0.016 -0.234 -0.035 -0.34 c -0.086 -0.441 -0.086 -0.453 -0.012 -0.453 c 0.035 0 0.191 -0.047 0.344 -0.102 c 0.504 -0.18 0.766 -0.105 1.066 0.309 c 0.102 0.141 0.219 0.32 0.258 0.402 c 0.078 0.16 0.098 0.313 0.039 0.313 c -0.043 0 -0.32 -0.406 -0.32 -0.473 c 0 -0.117 -0.133 -0.336 -0.238 -0.391 c -0.176 -0.094 -0.313 -0.07 -0.66 0.105 c -0.254 0.125 -0.324 0.176 -0.309 0.23 c 0.039 0.141 0.113 0.684 0.098 0.727 c -0.008 0.027 -0.059 0 -0.121 -0.066 m 2.047 -0.289 c -0.176 -0.16 -0.234 -0.352 -0.184 -0.598 c 0.059 -0.262 0.125 -0.363 0.379 -0.613 c 0.215 -0.207 0.535 -0.398 0.672 -0.398 c 0.031 0 0.051 0.043 0.051 0.109 c 0 0.113 0.137 0.523 0.336 1.027 c 0.059 0.148 0.098 0.285 0.086 0.297 c -0.047 0.047 -0.34 -0.117 -0.332 -0.184 c 0.004 -0.035 -0.031 -0.191 -0.078 -0.348 c -0.047 -0.152 -0.105 -0.355 -0.129 -0.449 c -0.027 -0.121 -0.063 -0.172 -0.109 -0.172 c -0.039 0 -0.188 0.121 -0.332 0.27 c -0.199 0.207 -0.273 0.316 -0.313 0.457 c -0.051 0.203 -0.023 0.445 0.07 0.539 c 0.102 0.102 0.355 0.074 0.598 -0.063 c 0.258 -0.148 0.254 -0.066 -0.004 0.098 c -0.113 0.07 -0.262 0.125 -0.375 0.137 c -0.172 0.016 -0.207 0.004 -0.336 -0.109 m -3.191 -1.234 c -0.027 -0.148 0 -0.207 0.137 -0.277 c 0.133 -0.07 0.168 -0.051 0.203 0.109 c 0.02 0.09 0.004 0.125 -0.09 0.191 c -0.152 0.113 -0.227 0.105 -0.25 -0.023 m -9.02 4.285 c -0.469 -0.629 -0.863 -1.168 -0.879 -1.195 c -0.02 -0.031 0.164 -0.195 0.527 -0.473 c 0.305 -0.238 0.563 -0.422 0.57 -0.414 c 0.008 0.008 0.078 0.336 0.156 0.734 c 0.078 0.398 0.223 1.094 0.32 1.543 c 0.098 0.449 0.172 0.848 0.164 0.883 c -0.008 0.039 -0.367 -0.414 -0.859 -1.078 m 15.758 -2.656 c -0.051 -0.156 -0.188 -0.918 -0.176 -0.973 c 0.016 -0.078 0.547 0.641 0.543 0.734 c 0 0.063 -0.176 0.223 -0.289 0.266 c -0.035 0.016 -0.07 0.004 -0.078 -0.027 m -11.262 -2.746 c 0 -0.008 0.777 -0.609 1.727 -1.336 c 0.945 -0.727 2.336 -1.797 3.082 -2.371 c 0.75 -0.578 1.383 -1.051 1.41 -1.051 c 0.027 -0.004 0.348 0.398 0.711 0.887 c 0.363 0.492 0.859 1.156 1.105 1.477 c 0.297 0.395 0.426 0.594 0.391 0.609 c -0.023 0.016 -0.117 0.039 -0.207 0.055 c -0.086 0.016 -1.258 0.262 -2.602 0.551 c -1.344 0.285 -2.859 0.609 -3.371 0.719 c -0.512 0.105 -1.215 0.258 -1.566 0.336 c -0.676 0.152 -0.68 0.152 -0.68 0.125" fill="#165a87"/><path d="m 7.473 18.758 c -0.23 -0.309 -0.402 -0.57 -0.383 -0.582 c 0.023 -0.016 0.211 -0.059 0.426 -0.102 c 0.555 -0.109 1.824 -0.383 2.23 -0.484 c 0.191 -0.047 0.387 -0.078 0.43 -0.07 c 0.059 0.008 -0.238 0.258 -1.078 0.906 c -0.641 0.492 -1.172 0.895 -1.184 0.895 c -0.012 0 -0.211 -0.254 -0.441 -0.563 m -2.078 -0.672 c 0 -0.02 -0.41 -2.023 -0.91 -4.461 c -0.504 -2.438 -0.906 -4.438 -0.898 -4.445 c 0.012 -0.012 1.074 -0.246 2.363 -0.52 c 7.566 -1.621 11.77 -2.516 11.832 -2.516 c 0.043 0 0.082 0.039 0.094 0.09 c 0.156 0.645 1.816 8.816 1.793 8.84 c -0.016 0.02 -0.23 0.078 -0.477 0.129 c -3.832 0.828 -13.641 2.91 -13.707 2.91 c -0.047 0 -0.086 -0.012 -0.086 -0.031 m 0.754 -0.434 c 0.16 -0.031 0.918 -0.195 1.688 -0.359 c 6.406 -1.355 11.41 -2.43 11.426 -2.445 c 0.012 -0.012 -0.012 -0.195 -0.051 -0.414 c -0.074 -0.426 -1.586 -7.832 -1.613 -7.914 c -0.012 -0.027 -0.063 -0.051 -0.117 -0.051 c -0.074 0 -4.219 0.879 -7.297 1.547 c -0.238 0.051 -1.711 0.367 -3.27 0.703 c -1.559 0.332 -2.848 0.613 -2.867 0.625 c -0.02 0.012 -0.035 0.063 -0.035 0.109 c 0 0.051 0.195 1.039 0.438 2.199 c 0.238 1.16 0.496 2.406 0.566 2.77 c 0.211 1.043 0.406 1.965 0.473 2.25 c 0.031 0.145 0.098 0.438 0.145 0.652 c 0.102 0.445 0.07 0.426 0.516 0.328 m 3.367 -1.836 c -0.031 -0.07 -0.098 -0.176 -0.152 -0.234 c -0.094 -0.098 -0.125 -0.105 -0.359 -0.094 c -0.191 0.012 -0.309 0.043 -0.465 0.133 c -0.27 0.152 -0.73 0.211 -0.77 0.098 c -0.039 -0.121 -0.184 -0.211 -0.336 -0.211 c -0.129 0 -0.148 -0.016 -0.172 -0.109 c -0.012 -0.063 -0.039 -0.145 -0.059 -0.184 c -0.055 -0.105 -0.047 -0.133 0.063 -0.184 c 0.094 -0.043 0.102 -0.059 0.074 -0.23 c -0.02 -0.133 -0.008 -0.199 0.035 -0.25 c 0.031 -0.039 0.082 -0.133 0.109 -0.215 c 0.043 -0.121 0.043 -0.16 0 -0.211 c -0.039 -0.051 -0.035 -0.082 0.035 -0.172 c 0.047 -0.059 0.125 -0.137 0.176 -0.172 c 0.477 -0.332 0.605 -0.406 0.727 -0.426 c 0.078 -0.016 0.188 -0.051 0.242 -0.078 c 0.055 -0.027 0.18 -0.063 0.277 -0.078 c 0.098 -0.02 0.199 -0.051 0.227 -0.07 c 0.027 -0.023 0.137 -0.031 0.258 -0.016 c 0.113 0.012 0.359 0.027 0.547 0.035 c 0.211 0.004 0.363 0.027 0.395 0.059 c 0.027 0.027 0.086 0.051 0.133 0.051 c 0.16 0 0.371 0.117 0.371 0.203 c 0 0.051 0.027 0.078 0.082 0.078 c 0.059 0 0.078 0.027 0.078 0.117 c 0 0.066 -0.027 0.125 -0.063 0.141 c -0.105 0.039 -0.051 0.195 0.094 0.266 c 0.148 0.07 0.203 0.141 0.203 0.266 c 0 0.047 0.047 0.113 0.102 0.152 c 0.145 0.094 0.129 0.383 -0.023 0.383 c -0.039 0 -0.082 0.02 -0.098 0.043 c -0.012 0.023 -0.059 0.031 -0.102 0.016 c -0.047 -0.016 -0.082 0 -0.098 0.039 c -0.039 0.109 -0.254 0.184 -0.512 0.184 c -0.168 0 -0.258 0.02 -0.293 0.063 c -0.063 0.078 -0.176 0.074 -0.238 -0.004 c -0.117 -0.145 -0.426 0.086 -0.43 0.316 c 0 0.063 0.023 0.164 0.059 0.23 c 0.059 0.117 0.051 0.199 -0.023 0.199 c -0.02 0 -0.063 -0.059 -0.094 -0.133 m -0.07 -0.48 c -0.012 -0.027 -0.043 -0.051 -0.07 -0.051 c -0.031 0 -0.059 0.023 -0.07 0.051 c -0.008 0.031 0.02 0.051 0.07 0.051 c 0.051 0 0.078 -0.02 0.07 -0.051 m -3.285 -3.219 c -0.066 -0.031 -0.156 -0.121 -0.203 -0.211 c -0.238 -0.43 -0.203 -0.938 0.094 -1.391 c 0.098 -0.152 0.234 -0.313 0.305 -0.355 c 0.113 -0.07 0.125 -0.07 0.188 -0.004 c 0.035 0.039 0.074 0.109 0.09 0.16 c 0.023 0.074 0.012 0.09 -0.059 0.09 c -0.121 0 -0.293 0.102 -0.344 0.207 c -0.238 0.48 -0.32 0.98 -0.188 1.18 c 0.063 0.098 0.086 0.105 0.262 0.09 c 0.145 -0.016 0.227 -0.051 0.309 -0.129 c 0.133 -0.129 0.238 -0.113 0.238 0.031 c 0 0.215 -0.457 0.434 -0.691 0.332 m 1.578 -0.387 c -0.301 -0.102 -0.648 -0.465 -0.652 -0.68 c 0 -0.129 0.113 -0.441 0.195 -0.539 c 0.109 -0.129 0.398 -0.313 0.461 -0.293 c 0.078 0.035 0.07 0.176 -0.016 0.203 c -0.039 0.016 -0.141 0.098 -0.227 0.188 c -0.145 0.148 -0.156 0.18 -0.168 0.434 c -0.016 0.242 -0.004 0.285 0.078 0.383 c 0.078 0.094 0.133 0.113 0.34 0.133 c 0.223 0.02 0.258 0.016 0.348 -0.074 c 0.152 -0.145 0.223 -0.344 0.191 -0.563 c -0.016 -0.117 -0.008 -0.195 0.02 -0.211 c 0.07 -0.047 0.047 -0.102 -0.141 -0.305 l -0.184 -0.199 h 0.141 c 0.113 0 0.164 0.027 0.285 0.168 c 0.172 0.207 0.293 0.438 0.293 0.563 c 0 0.18 -0.195 0.691 -0.281 0.75 c -0.109 0.07 -0.527 0.094 -0.684 0.043 m 1.422 -0.238 c -0.02 -0.027 -0.035 -0.285 -0.039 -0.57 c -0.012 -0.508 -0.012 -0.523 -0.113 -0.621 c -0.18 -0.168 -0.137 -0.262 0.168 -0.352 c 0.391 -0.121 0.848 -0.059 0.941 0.121 c 0.055 0.109 0.09 0.355 0.063 0.43 c -0.012 0.035 -0.086 0.102 -0.16 0.148 c -0.07 0.047 -0.133 0.109 -0.133 0.141 c 0 0.031 0.098 0.125 0.215 0.203 c 0.195 0.133 0.289 0.242 0.242 0.289 c -0.023 0.02 -0.113 -0.012 -0.586 -0.211 c -0.203 -0.086 -0.375 -0.137 -0.422 -0.121 c -0.082 0.023 -0.141 0.215 -0.102 0.332 c 0.031 0.102 -0.031 0.281 -0.074 0.211 m 0.664 -1.121 c 0.109 -0.035 0.203 -0.086 0.211 -0.109 c 0.035 -0.117 -0.414 -0.18 -0.707 -0.094 c -0.156 0.043 -0.227 0.164 -0.152 0.254 c 0.051 0.066 0.375 0.039 0.648 -0.051 m 1.516 0.73 c -0.035 -0.043 -0.059 -0.234 -0.074 -0.633 c -0.02 -0.555 -0.02 -0.566 -0.109 -0.578 c -0.055 -0.008 -0.199 0.043 -0.328 0.113 c -0.379 0.207 -0.414 0.125 -0.039 -0.098 c 0.535 -0.32 1.223 -0.566 1.316 -0.469 c 0.051 0.051 -0.055 0.102 -0.324 0.164 c -0.414 0.094 -0.406 0.086 -0.379 0.719 c 0.016 0.301 0.035 0.617 0.047 0.699 c 0.023 0.16 -0.02 0.191 -0.109 0.082 m 1.66 -0.434 c -0.059 -0.09 -0.117 -0.184 -0.133 -0.211 c -0.031 -0.063 -0.141 -0.863 -0.137 -1.016 c 0.004 -0.082 0.012 -0.078 0.043 0.039 c 0.023 0.078 0.109 0.375 0.195 0.656 c 0.086 0.281 0.152 0.555 0.145 0.602 c -0.012 0.078 -0.023 0.07 -0.113 -0.07 m 0.543 -0.172 c -0.078 -0.082 -0.105 -0.156 -0.105 -0.262 c 0 -0.078 -0.02 -0.234 -0.039 -0.34 c -0.082 -0.441 -0.082 -0.453 -0.012 -0.453 c 0.039 0 0.191 -0.047 0.344 -0.102 c 0.504 -0.18 0.77 -0.102 1.066 0.309 c 0.102 0.141 0.219 0.324 0.262 0.406 c 0.078 0.156 0.098 0.313 0.039 0.313 c -0.047 0 -0.32 -0.41 -0.32 -0.477 c 0 -0.117 -0.137 -0.336 -0.242 -0.391 c -0.172 -0.09 -0.309 -0.07 -0.66 0.105 c -0.25 0.125 -0.32 0.176 -0.305 0.23 c 0.039 0.141 0.109 0.684 0.098 0.727 c -0.012 0.027 -0.063 0 -0.125 -0.066 m 2.051 -0.289 c -0.18 -0.16 -0.238 -0.352 -0.184 -0.594 c 0.059 -0.262 0.121 -0.367 0.379 -0.617 c 0.211 -0.207 0.535 -0.398 0.668 -0.398 c 0.031 0 0.055 0.043 0.055 0.113 c 0 0.109 0.133 0.52 0.336 1.023 c 0.059 0.152 0.098 0.285 0.082 0.297 c -0.043 0.047 -0.336 -0.117 -0.328 -0.184 c 0.004 -0.035 -0.031 -0.191 -0.082 -0.344 c -0.047 -0.156 -0.102 -0.359 -0.125 -0.453 c -0.031 -0.117 -0.066 -0.172 -0.113 -0.172 c -0.035 0 -0.188 0.121 -0.332 0.273 c -0.199 0.203 -0.273 0.313 -0.309 0.453 c -0.055 0.203 -0.023 0.445 0.066 0.539 c 0.102 0.102 0.359 0.074 0.598 -0.063 c 0.262 -0.148 0.258 -0.066 -0.004 0.098 c -0.113 0.07 -0.258 0.125 -0.375 0.137 c -0.172 0.016 -0.203 0.004 -0.332 -0.109 m -3.195 -1.234 c -0.027 -0.148 0.004 -0.207 0.141 -0.277 c 0.129 -0.07 0.164 -0.051 0.203 0.113 c 0.02 0.086 0.004 0.121 -0.09 0.188 c -0.156 0.113 -0.227 0.105 -0.254 -0.023 m -9.02 4.285 c -0.469 -0.629 -0.863 -1.168 -0.879 -1.191 c -0.02 -0.031 0.168 -0.199 0.527 -0.477 c 0.309 -0.234 0.563 -0.422 0.57 -0.414 c 0.008 0.008 0.078 0.34 0.156 0.734 c 0.078 0.398 0.223 1.094 0.32 1.543 c 0.098 0.453 0.172 0.848 0.168 0.883 c -0.008 0.039 -0.367 -0.414 -0.863 -1.078 m 15.758 -2.656 c -0.051 -0.156 -0.188 -0.918 -0.176 -0.973 c 0.016 -0.078 0.547 0.641 0.547 0.738 c -0.004 0.059 -0.176 0.219 -0.293 0.262 c -0.035 0.016 -0.07 0.004 -0.078 -0.027 m -11.262 -2.742 c 0 -0.012 0.777 -0.613 1.727 -1.34 c 0.949 -0.727 2.336 -1.793 3.086 -2.371 c 0.746 -0.578 1.383 -1.051 1.406 -1.051 c 0.027 0 0.348 0.398 0.711 0.887 c 0.363 0.492 0.863 1.156 1.105 1.477 c 0.305 0.398 0.43 0.594 0.395 0.613 c -0.027 0.016 -0.133 0.039 -0.234 0.055 l -0.188 0.027 l -0.109 -0.184 c -0.117 -0.199 -1.539 -2.148 -1.68 -2.305 c -0.043 -0.051 -0.09 -0.09 -0.102 -0.09 c -0.016 0 -0.496 0.363 -1.07 0.805 c -0.574 0.441 -1.426 1.094 -1.891 1.453 c -0.945 0.727 -1.773 1.418 -1.773 1.477 c 0 0.023 0.07 0.039 0.156 0.039 c 0.109 0 0.156 0.02 0.156 0.059 c 0 0.039 -0.133 0.09 -0.422 0.16 c -0.234 0.059 -0.547 0.141 -0.699 0.18 c -0.34 0.09 -0.574 0.137 -0.574 0.109 m 2.176 -0.578 c 0.012 -0.051 0.094 -0.086 0.328 -0.137 c 0.34 -0.078 0.539 -0.078 0.563 -0.008 c 0.008 0.027 -0.152 0.078 -0.41 0.129 c -0.512 0.105 -0.496 0.105 -0.48 0.016" fill="#164902"/></svg>