<svg xmlns="http://www.w3.org/2000/svg" viewBox="0 0 22 22"><path d="m 19.441 18.18 c 5.352 -8.23 1.035 -15.727 -5.03 -17.504 c -8.148 -2.395 -19.211 3.895 -11.922 16.852 c 2.898 5.148 13.14 6.512 16.949 0.652" fill="#7f7f7f"/><path d="m 15.688 16.277 c -0.027 -0.074 -0.156 -0.129 -0.297 -0.129 c -0.203 0 -0.422 -0.18 -1.211 -0.988 c -0.527 -0.547 -0.996 -0.969 -1.043 -0.941 c -0.043 0.027 -0.082 0.141 -0.082 0.254 c 0 0.133 -0.125 0.309 -0.359 0.508 c -0.457 0.391 -0.672 0.406 -0.672 0.047 c 0 -0.23 0.023 -0.258 0.18 -0.207 c 0.148 0.047 0.176 0.023 0.148 -0.145 c -0.02 -0.156 0.02 -0.211 0.168 -0.23 c 0.207 -0.027 0.254 -0.141 0.098 -0.234 c -0.051 -0.031 -0.137 -0.016 -0.188 0.039 c -0.055 0.051 -0.184 0.094 -0.293 0.094 c -0.141 0 -0.199 0.051 -0.199 0.172 c 0 0.23 -0.492 0.688 -0.738 0.688 c -0.105 0 -0.219 0.039 -0.25 0.086 c -0.027 0.047 -0.156 0.086 -0.285 0.082 c -0.207 0 -0.215 -0.012 -0.07 -0.094 c 0.133 -0.074 0.141 -0.109 0.043 -0.168 c -0.211 -0.129 0.043 -0.371 0.496 -0.469 c 0.328 -0.07 0.418 -0.129 0.418 -0.258 c 0 -0.262 -0.309 -0.246 -0.922 0.043 c -0.613 0.289 -1.01 0.367 -0.707 0.137 c 0.098 -0.07 0.121 -0.129 0.063 -0.129 c -0.215 -0.008 -0.102 -0.277 0.148 -0.375 c 0.367 -0.137 0.32 -0.23 -0.117 -0.23 c -0.465 0 -0.641 -0.164 -0.5 -0.469 c 0.121 -0.27 -0.008 -0.316 -0.672 -0.246 l -0.508 0.051 l -0.691 -0.715 c -0.379 -0.398 -0.746 -0.84 -0.813 -0.984 c -0.07 -0.148 -0.305 -0.426 -0.52 -0.621 c -0.23 -0.211 -0.391 -0.43 -0.391 -0.543 c 0 -0.102 -0.078 -0.281 -0.172 -0.402 c -0.113 -0.145 -0.168 -0.328 -0.156 -0.516 c 0.016 -0.18 -0.027 -0.32 -0.105 -0.371 c -0.074 -0.047 -0.086 -0.078 -0.02 -0.082 c 0.156 0 0.238 0.184 0.246 0.539 c 0.004 0.215 0.066 0.379 0.191 0.496 c 0.105 0.098 0.188 0.27 0.188 0.383 c 0 0.145 0.145 0.332 0.477 0.617 c 0.262 0.227 0.496 0.492 0.523 0.594 c 0.023 0.098 0.344 0.48 0.715 0.844 l 0.668 0.668 l 0.344 -0.094 c 0.188 -0.051 0.52 -0.07 0.73 -0.039 c 0.402 0.055 0.539 -0.02 0.414 -0.227 c -0.047 -0.074 -0.242 -0.121 -0.512 -0.129 c -0.242 -0.004 -0.484 -0.055 -0.539 -0.113 c -0.059 -0.055 -0.223 -0.102 -0.367 -0.102 c -0.168 0 -0.301 -0.059 -0.371 -0.172 c -0.059 -0.094 -0.164 -0.172 -0.234 -0.172 c -0.148 0 -0.172 -0.133 -0.035 -0.219 c 0.051 -0.031 0.16 0.008 0.242 0.082 c 0.234 0.215 0.59 0.172 0.828 -0.098 c 0.113 -0.133 0.207 -0.277 0.211 -0.328 c 0 -0.051 -0.137 -0.254 -0.305 -0.453 c -0.363 -0.426 -0.387 -0.848 -0.055 -1.012 c 0.105 -0.055 0.285 -0.18 0.391 -0.281 l 0.199 -0.188 l 0.156 0.176 c 0.203 0.223 0.27 0.219 0.434 -0.031 c 0.105 -0.16 0.117 -0.301 0.059 -0.672 c -0.039 -0.254 -0.059 -0.512 -0.039 -0.566 c 0.047 -0.145 0.32 -0.129 0.449 0.023 c 0.211 0.254 0.602 0.098 0.602 -0.242 c 0 -0.25 -1.188 -1.434 -1.438 -1.434 c -0.125 0 -0.344 -0.133 -0.559 -0.344 c -0.191 -0.188 -0.398 -0.344 -0.453 -0.344 c -0.059 0 -0.203 -0.078 -0.324 -0.172 c -0.117 -0.094 -0.293 -0.172 -0.387 -0.172 c -0.184 0 -0.422 -0.227 -0.332 -0.316 c 0.031 -0.031 0.055 -0.012 0.055 0.047 c 0 0.055 0.098 0.098 0.211 0.098 c 0.117 0 0.316 0.098 0.441 0.215 c 0.129 0.117 0.297 0.215 0.375 0.215 c 0.078 0 0.273 0.137 0.434 0.301 c 0.164 0.172 0.379 0.301 0.488 0.301 c 0.203 0 1.473 1.238 1.594 1.551 c 0.031 0.086 0.156 0.223 0.277 0.301 c 0.133 0.09 0.219 0.227 0.219 0.352 c 0 0.113 0.078 0.273 0.172 0.352 c 0.094 0.082 0.172 0.234 0.172 0.34 c 0 0.113 0.141 0.324 0.344 0.512 c 0.203 0.188 0.344 0.395 0.344 0.508 c 0 0.105 0.059 0.238 0.129 0.297 c 0.074 0.059 0.16 0.227 0.199 0.371 c 0.09 0.34 0.246 0.387 0.371 0.109 c 0.129 -0.281 0.215 -0.281 0.281 -0.004 c 0.031 0.125 0.156 0.262 0.289 0.316 c 0.129 0.059 0.25 0.109 0.266 0.121 c 0.016 0.012 -0.016 0.234 -0.074 0.504 c -0.074 0.371 -0.074 0.512 0.004 0.605 c 0.156 0.188 0.273 0.156 0.66 -0.176 c 0.195 -0.164 0.441 -0.301 0.547 -0.301 c 0.191 0 0.195 0.004 0.031 0.125 c -0.094 0.074 -0.121 0.129 -0.059 0.129 c 0.195 0.008 0.109 0.301 -0.156 0.555 c -0.184 0.176 -0.379 0.258 -0.664 0.289 c -0.223 0.023 -0.438 0.098 -0.473 0.16 c -0.039 0.066 -0.145 0.117 -0.238 0.117 c -0.109 0 -0.168 0.059 -0.168 0.172 c 0 0.113 0.059 0.172 0.172 0.172 c 0.113 0 0.172 0.059 0.172 0.164 c 0 0.09 0.078 0.18 0.172 0.207 c 0.094 0.023 0.172 0.102 0.172 0.172 c 0 0.066 0.078 0.145 0.172 0.172 c 0.094 0.023 0.172 0.105 0.172 0.18 c 0 0.074 0.063 0.137 0.137 0.137 c 0.078 0 0.156 0.074 0.18 0.164 c 0.023 0.09 0.121 0.184 0.215 0.207 c 0.105 0.027 0.156 0.105 0.141 0.203 c -0.02 0.109 0.035 0.164 0.176 0.184 c 0.207 0.031 0.613 0.336 0.613 0.461 c 0 0.125 -0.41 0.074 -0.461 -0.059 m -4.352 -2.215 c 0.117 0.008 0.355 0.039 0.527 0.07 c 0.18 0.031 0.391 0.016 0.496 -0.043 c 0.121 -0.063 0.23 -0.066 0.34 -0.012 c 0.23 0.125 0.652 -0.012 0.684 -0.219 c 0.02 -0.137 -0.051 -0.195 -0.316 -0.277 c -0.211 -0.059 -0.367 -0.168 -0.398 -0.27 c -0.063 -0.199 -0.262 -0.227 -0.328 -0.051 c -0.066 0.168 -1.488 0.105 -1.691 -0.078 c -0.195 -0.176 -0.367 -0.16 -0.496 0.043 c -0.059 0.094 -0.18 0.172 -0.273 0.172 c -0.207 0 -0.32 0.168 -0.176 0.258 c 0.059 0.039 0.254 0.047 0.434 0.023 c 0.297 -0.039 0.336 -0.02 0.465 0.23 c 0.117 0.223 0.176 0.258 0.332 0.207 c 0.102 -0.039 0.285 -0.063 0.402 -0.055 m 2.188 -0.879 c 0.055 -0.242 0.051 -0.25 -0.086 -0.113 c -0.09 0.086 -0.125 0.203 -0.09 0.293 c 0.07 0.18 0.098 0.152 0.176 -0.18 m 0.477 -0.047 c 0 -0.047 -0.039 -0.082 -0.086 -0.082 c -0.047 0 -0.086 0.063 -0.086 0.133 c 0 0.074 0.039 0.113 0.086 0.082 c 0.047 -0.027 0.086 -0.09 0.086 -0.133 m -0.875 -0.098 c 0.141 -0.141 0.129 -0.328 -0.02 -0.328 c -0.07 0 -0.148 -0.078 -0.18 -0.172 c -0.066 -0.211 -0.148 -0.215 -0.328 -0.016 c -0.16 0.176 -0.113 0.273 0.129 0.273 c 0.102 0 0.156 0.063 0.156 0.172 c 0 0.195 0.09 0.223 0.242 0.07 m 0.602 -0.699 c 0.023 -0.184 -0.02 -0.246 -0.199 -0.316 c -0.313 -0.117 -0.387 -0.109 -0.387 0.059 c 0 0.18 0.344 0.559 0.469 0.516 c 0.051 -0.016 0.102 -0.133 0.117 -0.258 m -1.691 -0.207 c -0.043 -0.086 -0.359 -0.422 -0.703 -0.754 c -0.844 -0.813 -0.906 -0.574 -0.07 0.266 c 0.598 0.605 0.961 0.832 0.773 0.488 m 0.848 -0.203 c 0 -0.051 -0.039 -0.063 -0.086 -0.035 c -0.047 0.031 -0.086 0.094 -0.086 0.141 c 0 0.047 0.039 0.063 0.086 0.031 c 0.047 -0.027 0.086 -0.09 0.086 -0.137 m -3.891 -1.508 c 0.121 -0.258 0.078 -0.391 -0.102 -0.32 c -0.074 0.027 -0.117 0.148 -0.105 0.297 c 0.02 0.309 0.07 0.316 0.207 0.023 m 1.324 -1.945 c -0.145 -0.145 -0.207 -0.016 -0.137 0.297 l 0.066 0.285 l 0.082 -0.242 c 0.055 -0.168 0.055 -0.273 -0.012 -0.34 m -4.758 -2.883 c 0.082 -0.086 0.164 -0.145 0.184 -0.133 c 0.051 0.039 -0.172 0.289 -0.258 0.289 c -0.043 0 -0.008 -0.07 0.074 -0.156" fill="#d4d4d4"/><path d="m 10.602 13.91 c -0.129 -0.25 -0.168 -0.27 -0.465 -0.23 c -0.18 0.023 -0.375 0.012 -0.434 -0.023 c -0.145 -0.09 -0.031 -0.258 0.176 -0.258 c 0.094 0 0.215 -0.078 0.273 -0.172 c 0.129 -0.203 0.301 -0.219 0.496 -0.043 c 0.203 0.184 1.625 0.246 1.691 0.078 c 0.066 -0.176 0.266 -0.148 0.328 0.051 c 0.031 0.102 0.188 0.211 0.395 0.27 c 0.27 0.082 0.34 0.141 0.32 0.277 c -0.031 0.207 -0.453 0.344 -0.684 0.219 c -0.109 -0.055 -0.219 -0.051 -0.34 0.012 c -0.105 0.059 -0.316 0.074 -0.496 0.043 c -0.477 -0.086 -0.723 -0.09 -0.93 -0.016 c -0.156 0.051 -0.215 0.016 -0.332 -0.207 m 1.93 -0.137 c 0.02 -0.016 -0.109 -0.031 -0.285 -0.031 c -0.191 0 -0.297 0.035 -0.266 0.086 c 0.047 0.074 0.449 0.035 0.551 -0.055 m 0.816 -0.41 c -0.035 -0.09 0 -0.207 0.086 -0.293 c 0.141 -0.137 0.145 -0.129 0.086 0.113 c -0.078 0.332 -0.105 0.359 -0.172 0.18 m -5.547 -0.973 c -0.363 -0.367 -0.68 -0.746 -0.711 -0.844 c -0.027 -0.098 -0.266 -0.363 -0.523 -0.586 c -0.258 -0.227 -0.473 -0.449 -0.473 -0.496 c 0 -0.047 0.105 0.039 0.234 0.191 c 0.129 0.152 0.398 0.352 0.602 0.438 c 0.238 0.109 0.367 0.219 0.367 0.32 c 0 0.242 0.195 0.352 0.527 0.297 c 0.211 -0.035 0.328 -0.008 0.41 0.09 c 0.16 0.191 0.422 0.172 0.66 -0.055 c 0.27 -0.258 0.262 -0.328 -0.094 -0.715 c -0.34 -0.375 -0.406 -0.797 -0.148 -0.992 c 0.125 -0.094 0.133 -0.094 0.043 0.008 c -0.199 0.223 -0.125 0.598 0.191 0.969 c 0.168 0.195 0.301 0.395 0.297 0.445 c 0 0.051 -0.094 0.195 -0.207 0.328 c -0.238 0.27 -0.594 0.309 -0.828 0.098 c -0.086 -0.074 -0.195 -0.113 -0.242 -0.082 c -0.137 0.082 -0.113 0.219 0.035 0.219 c 0.07 0 0.176 0.078 0.234 0.172 c 0.07 0.113 0.203 0.172 0.371 0.172 c 0.145 0 0.309 0.047 0.367 0.102 c 0.055 0.059 0.297 0.109 0.539 0.113 c 0.27 0.008 0.465 0.055 0.508 0.129 c 0.125 0.203 0.012 0.258 -0.5 0.238 c -0.27 -0.012 -0.605 0.008 -0.746 0.043 c -0.238 0.063 -0.301 0.02 -0.914 -0.602 m 4.91 -0.355 c 0 -0.047 0.039 -0.109 0.086 -0.141 c 0.047 -0.027 0.086 -0.016 0.086 0.035 c 0 0.047 -0.039 0.109 -0.086 0.137 c -0.047 0.031 -0.086 0.016 -0.086 -0.031 m -6.922 -2.164 c -0.031 -0.051 -0.035 -0.109 -0.016 -0.133 c 0.023 -0.023 0.066 0.02 0.094 0.09 c 0.059 0.152 0.008 0.18 -0.078 0.043 m 3.277 -0.125 c 0.117 -0.117 0.238 -0.215 0.27 -0.215 c 0.031 0 -0.035 0.098 -0.148 0.215 c -0.109 0.117 -0.23 0.215 -0.27 0.215 c -0.035 0 0.031 -0.098 0.148 -0.215 m 0.594 0.043 c -0.027 -0.047 0.004 -0.063 0.074 -0.035 c 0.191 0.074 0.262 -0.125 0.254 -0.691 l -0.008 -0.52 l 0.078 0.465 c 0.063 0.371 0.051 0.504 -0.055 0.668 c -0.141 0.215 -0.258 0.254 -0.344 0.113 m -3.988 -0.309 c 0.004 -0.098 0.023 -0.117 0.051 -0.051 c 0.027 0.063 0.023 0.137 -0.008 0.164 c -0.027 0.031 -0.047 -0.02 -0.043 -0.113 m -0.133 -0.508 c -0.09 -0.07 -0.125 -0.129 -0.074 -0.129 c 0.051 0 0.141 0.059 0.199 0.129 c 0.133 0.16 0.094 0.16 -0.125 0 m 4.937 -0.516 c -0.129 -0.156 -0.398 -0.168 -0.457 -0.02 c -0.027 0.063 -0.047 0.047 -0.051 -0.043 c -0.008 -0.191 0.27 -0.199 0.555 -0.012 c 0.113 0.074 0.27 0.113 0.34 0.086 c 0.281 -0.105 0.129 -0.43 -0.5 -1.059 c -0.348 -0.344 -0.605 -0.629 -0.574 -0.629 c 0.133 0 1.289 1.285 1.289 1.434 c 0 0.34 -0.391 0.496 -0.602 0.242 m -2.309 -2.539 c -0.266 -0.219 -0.145 -0.219 0.137 0.004 c 0.121 0.094 0.184 0.172 0.145 0.168 c -0.043 0 -0.168 -0.078 -0.281 -0.172 m -2.566 -0.277 c 0.105 -0.109 0.207 -0.188 0.227 -0.176 c 0.051 0.039 -0.262 0.371 -0.348 0.371 c -0.035 0 0.02 -0.09 0.121 -0.195 m 1.953 -0.02 c -0.063 -0.074 -0.094 -0.148 -0.074 -0.168 c 0.023 -0.023 0.086 0.039 0.145 0.129 c 0.125 0.199 0.082 0.223 -0.07 0.039" fill="#a6a6a6"/><path d="m 11.98 13.828 c -0.031 -0.051 0.074 -0.086 0.266 -0.086 c 0.359 0 0.363 0.035 0.02 0.117 c -0.129 0.031 -0.254 0.016 -0.285 -0.031 m -3.746 -2.027 c -0.082 -0.098 -0.199 -0.125 -0.41 -0.09 c -0.293 0.047 -0.527 -0.051 -0.527 -0.219 c 0 -0.047 0.063 -0.02 0.137 0.055 c 0.094 0.094 0.203 0.117 0.324 0.078 c 0.188 -0.063 0.316 -0.066 0.594 -0.016 c 0.094 0.016 0.211 -0.063 0.301 -0.207 c 0.137 -0.223 0.137 -0.242 -0.047 -0.41 c -0.273 -0.254 -0.273 -0.898 0.004 -1.039 c 0.105 -0.055 0.316 -0.215 0.469 -0.359 c 0.27 -0.258 0.281 -0.258 0.449 -0.109 c 0.094 0.086 0.23 0.129 0.309 0.102 c 0.086 -0.035 0.129 -0.016 0.105 0.047 c -0.055 0.164 -0.207 0.176 -0.352 0.031 c -0.148 -0.148 -0.402 -0.18 -0.402 -0.047 c 0 0.047 -0.152 0.184 -0.344 0.301 c -0.461 0.293 -0.477 0.641 -0.043 1.113 c 0.355 0.387 0.363 0.457 0.094 0.715 c -0.238 0.227 -0.5 0.246 -0.66 0.055 m -1.367 -0.723 c -0.078 -0.051 -0.086 -0.082 -0.027 -0.086 c 0.059 0 0.129 0.039 0.156 0.086 c 0.066 0.105 0.035 0.105 -0.129 0 m -0.477 -0.363 l -0.254 -0.281 l 0.281 0.254 c 0.258 0.234 0.316 0.305 0.25 0.305 c -0.016 0 -0.141 -0.125 -0.277 -0.277 m -0.285 -0.445 c -0.008 -0.09 -0.078 -0.246 -0.16 -0.344 c -0.141 -0.172 -0.137 -0.172 0.055 0.004 c 0.117 0.109 0.18 0.246 0.156 0.344 c -0.039 0.152 -0.043 0.152 -0.051 -0.004 m -0.34 -0.871 c -0.008 -0.191 -0.043 -0.387 -0.078 -0.43 c -0.035 -0.047 -0.016 -0.039 0.047 0.012 c 0.07 0.059 0.102 0.223 0.078 0.43 l -0.031 0.336 m 4.117 -0.988 c 0 -0.211 0.016 -0.301 0.039 -0.191 c 0.02 0.105 0.02 0.277 0 0.387 c -0.023 0.105 -0.039 0.02 -0.039 -0.195 m 0.492 -0.434 c -0.164 -0.09 -0.238 -0.168 -0.168 -0.168 c 0.07 0 0.219 0.063 0.324 0.137 c 0.164 0.113 0.219 0.117 0.336 0.023 c 0.117 -0.098 0.129 -0.098 0.094 0.012 c -0.063 0.188 -0.246 0.188 -0.586 -0.004 m -0.09 -0.918 l -0.555 -0.582 l 0.582 0.559 c 0.535 0.516 0.617 0.602 0.555 0.602 c -0.012 0 -0.273 -0.262 -0.582 -0.578 m -1.246 -0.902 l -0.34 -0.367 l 0.344 0.316 c 0.188 0.172 0.422 0.332 0.516 0.355 c 0.168 0.039 0.168 0.039 -0.004 0.051 c -0.105 0.004 -0.313 -0.141 -0.516 -0.355 m -0.57 -0.383 c 0.063 -0.023 0.137 -0.02 0.164 0.008 c 0.027 0.027 -0.023 0.047 -0.113 0.043 c -0.098 -0.004 -0.121 -0.023 -0.051 -0.051 m -0.879 -0.359 c -0.023 -0.039 0.051 -0.055 0.168 -0.031 c 0.117 0.023 0.211 0.055 0.211 0.074 c 0 0.066 -0.336 0.031 -0.379 -0.043" fill="#8e8e8e"/><path d="m 7.59 11.609 c 0.027 -0.047 0.184 -0.133 0.344 -0.184 c 0.34 -0.113 0.418 -0.32 0.344 -0.879 c -0.039 -0.266 -0.02 -0.406 0.063 -0.473 c 0.098 -0.082 0.113 -0.027 0.09 0.313 c -0.023 0.344 0.004 0.445 0.168 0.598 c 0.191 0.176 0.191 0.191 0.055 0.418 c -0.09 0.145 -0.203 0.223 -0.297 0.207 c -0.285 -0.051 -0.41 -0.047 -0.617 0.02 c -0.133 0.047 -0.184 0.039 -0.148 -0.02 m -1.566 -1.66 c -0.109 -0.133 -0.168 -0.246 -0.129 -0.242 c 0.078 0.004 0.406 0.422 0.359 0.465 c -0.016 0.012 -0.121 -0.086 -0.23 -0.223 m 2.563 -0.016 c 0 -0.02 0.195 -0.195 0.434 -0.398 c 0.406 -0.34 0.445 -0.355 0.59 -0.227 c 0.203 0.184 0.254 0.109 0.219 -0.32 c -0.027 -0.316 -0.023 -0.328 0.039 -0.102 c 0.176 0.617 0.008 0.914 -0.336 0.602 c -0.16 -0.145 -0.18 -0.141 -0.516 0.16 c -0.316 0.285 -0.43 0.363 -0.43 0.285 m -2.781 -0.871 c -0.027 -0.074 -0.137 -0.172 -0.246 -0.215 c -0.125 -0.051 -0.145 -0.082 -0.059 -0.082 c 0.148 -0.008 0.48 0.309 0.402 0.383 c -0.023 0.027 -0.066 -0.012 -0.098 -0.086 m 4.715 -0.793 c -0.152 -0.117 -0.152 -0.129 -0.016 -0.082 c 0.09 0.031 0.215 0.055 0.285 0.055 c 0.07 0 0.105 0.039 0.074 0.086 c -0.07 0.117 -0.141 0.105 -0.344 -0.055 m -1.531 -1.711 c -0.23 -0.211 -0.391 -0.383 -0.355 -0.383 c 0.035 0 0.25 0.176 0.477 0.387 c 0.23 0.215 0.387 0.387 0.355 0.383 c -0.035 0 -0.25 -0.176 -0.477 -0.387 m -1.391 -0.727 c -0.027 -0.047 0.004 -0.063 0.082 -0.031 c 0.148 0.055 0.176 0.117 0.051 0.117 c -0.043 0 -0.102 -0.039 -0.133 -0.086" fill="#696969"/><path d="m 7.32 11.395 c -0.051 -0.113 -0.223 -0.266 -0.379 -0.34 c -0.371 -0.176 -0.793 -0.617 -0.734 -0.766 c 0.031 -0.078 0.047 -0.07 0.051 0.031 c 0.012 0.191 0.492 0.586 0.723 0.59 c 0.254 0 0.391 0.098 0.535 0.379 c 0.152 0.293 0.152 0.305 0.012 0.305 c -0.066 0 -0.156 -0.09 -0.207 -0.199 m -1.238 -1.496 c -0.105 -0.137 -0.102 -0.141 0.035 -0.035 c 0.082 0.066 0.148 0.133 0.148 0.152 c 0 0.07 -0.07 0.023 -0.184 -0.117 m -0.227 -0.453 c 0 -0.164 0.02 -0.234 0.039 -0.148 c 0.023 0.082 0.023 0.215 0 0.301 c -0.02 0.082 -0.039 0.016 -0.039 -0.152 m 3.246 -0.043 c 0.109 -0.117 0.223 -0.215 0.246 -0.215 c 0.023 0 -0.051 0.098 -0.16 0.215 c -0.109 0.117 -0.223 0.215 -0.246 0.215 c -0.023 0 0.051 -0.098 0.16 -0.215 m -3.363 -0.535 c -0.105 -0.137 -0.102 -0.141 0.035 -0.035 c 0.082 0.066 0.148 0.133 0.148 0.152 c 0 0.07 -0.07 0.023 -0.184 -0.117 m 4.059 -0.34 c -0.012 -0.254 0.215 -0.457 0.492 -0.449 c 0.223 0.008 0.223 0.012 -0.043 0.086 c -0.18 0.055 -0.301 0.16 -0.355 0.316 c -0.078 0.207 -0.09 0.211 -0.094 0.047 m 1.023 -0.395 c 0 -0.125 -1.01 -1.137 -1.203 -1.207 c -0.109 -0.039 -0.113 -0.047 0 -0.051 c 0.125 -0.008 1.375 1.176 1.375 1.301 c 0 0.035 -0.039 0.066 -0.086 0.066 c -0.047 0 -0.086 -0.047 -0.086 -0.109 m -1.809 -1.5 l -0.297 -0.324 l 0.324 0.297 c 0.176 0.164 0.32 0.309 0.32 0.32 c 0 0.066 -0.07 0.004 -0.348 -0.293 m -0.828 -0.527 c -0.086 -0.086 -0.215 -0.18 -0.285 -0.207 c -0.086 -0.031 -0.063 -0.051 0.066 -0.055 c 0.105 -0.004 0.191 0.031 0.191 0.074 c 0 0.047 0.105 0.145 0.238 0.215 c 0.16 0.086 0.188 0.129 0.09 0.129 c -0.082 0.004 -0.219 -0.066 -0.301 -0.156 m -2.637 -0.285 c 0.102 -0.047 0.227 -0.172 0.273 -0.273 c 0.07 -0.141 0.094 -0.152 0.098 -0.039 c 0.008 0.188 -0.223 0.418 -0.41 0.41 c -0.113 -0.004 -0.102 -0.027 0.039 -0.098 m 1.922 -0.074 c -0.055 -0.098 -0.082 -0.223 -0.063 -0.277 c 0.02 -0.055 0.078 0.023 0.129 0.176 c 0.109 0.313 0.074 0.367 -0.066 0.102" fill="#5b5b5b"/><path d="m 7.578 11.402 c -0.156 -0.203 -0.199 -0.43 -0.098 -0.551 c 0.145 -0.176 0.316 -0.141 0.348 0.078 c 0.016 0.105 0.086 0.191 0.156 0.191 c 0.156 0 0.227 -0.367 0.094 -0.5 c -0.156 -0.156 -0.105 -0.297 0.223 -0.625 c 0.285 -0.285 0.301 -0.328 0.172 -0.422 c -0.195 -0.141 -0.18 -0.273 0.039 -0.395 c 0.152 -0.078 0.199 -0.07 0.266 0.043 c 0.102 0.188 0.301 0.172 0.406 -0.027 c 0.051 -0.094 0.164 -0.191 0.258 -0.219 c 0.09 -0.031 0.203 -0.16 0.25 -0.285 c 0.074 -0.203 0.086 -0.164 0.09 0.273 c 0.008 0.488 0.004 0.5 -0.148 0.367 c -0.215 -0.195 -0.246 -0.188 -0.656 0.18 c -0.199 0.176 -0.449 0.391 -0.559 0.48 c -0.168 0.137 -0.188 0.211 -0.145 0.543 c 0.078 0.555 0 0.773 -0.309 0.883 c -0.32 0.109 -0.285 0.113 -0.387 -0.016 m -0.609 -0.496 c -0.383 -0.09 -0.703 -0.402 -0.703 -0.688 c 0 -0.129 -0.078 -0.301 -0.172 -0.387 c -0.094 -0.086 -0.172 -0.215 -0.172 -0.289 c 0 -0.094 0.047 -0.066 0.148 0.078 c 0.078 0.117 0.203 0.254 0.27 0.305 c 0.07 0.055 0.105 0.172 0.082 0.266 c -0.039 0.141 -0.012 0.164 0.156 0.133 c 0.148 -0.027 0.203 0 0.203 0.102 c 0 0.074 -0.039 0.137 -0.086 0.137 c -0.047 0 -0.086 0.043 -0.086 0.098 c 0 0.055 0.082 0.074 0.203 0.043 c 0.141 -0.035 0.25 0 0.359 0.121 c 0.082 0.094 0.137 0.164 0.117 0.16 c -0.02 -0.004 -0.164 -0.039 -0.32 -0.078 m 0.289 -0.422 c -0.027 -0.043 -0.012 -0.105 0.031 -0.133 c 0.047 -0.027 0.105 -0.012 0.133 0.031 c 0.027 0.047 0.016 0.105 -0.031 0.133 c -0.043 0.027 -0.105 0.012 -0.133 -0.031 m -0.379 -0.348 c 0.039 -0.109 0.156 -0.129 0.168 -0.027 c 0.004 0.035 -0.039 0.078 -0.098 0.098 c -0.055 0.02 -0.086 -0.012 -0.07 -0.07 m 0.723 0.004 c -0.027 -0.047 -0.008 -0.105 0.039 -0.137 c 0.047 -0.027 0.086 0.008 0.086 0.082 c 0 0.148 -0.051 0.172 -0.125 0.055 m -1.035 -0.355 c -0.082 -0.133 0.027 -0.219 0.141 -0.105 c 0.059 0.059 0.063 0.109 0.004 0.145 c -0.051 0.031 -0.113 0.012 -0.145 -0.039 m 0.691 0.012 c -0.027 -0.047 -0.012 -0.105 0.031 -0.133 c 0.047 -0.027 0.105 -0.012 0.133 0.031 c 0.027 0.047 0.016 0.105 -0.031 0.133 c -0.043 0.027 -0.105 0.012 -0.133 -0.031 m 0.688 0 c -0.027 -0.047 -0.012 -0.105 0.031 -0.133 c 0.047 -0.027 0.105 -0.012 0.133 0.031 c 0.027 0.047 0.016 0.105 -0.031 0.133 c -0.043 0.027 -0.105 0.012 -0.133 -0.031 m -1.766 -0.402 c 0 -0.152 0.188 -0.125 0.238 0.035 c 0.02 0.055 -0.027 0.102 -0.102 0.102 c -0.074 0 -0.137 -0.063 -0.137 -0.137 m 0.734 0.059 c -0.027 -0.047 -0.012 -0.105 0.031 -0.133 c 0.047 -0.027 0.105 -0.012 0.133 0.031 c 0.027 0.047 0.016 0.105 -0.031 0.133 c -0.043 0.027 -0.105 0.012 -0.133 -0.031 m 0.688 0 c -0.027 -0.047 -0.012 -0.105 0.031 -0.133 c 0.047 -0.027 0.105 -0.012 0.133 0.031 c 0.027 0.047 0.016 0.105 -0.031 0.133 c -0.043 0.027 -0.105 0.012 -0.133 -0.031 m -1.68 -0.285 c 0 -0.242 -0.148 -0.41 -0.359 -0.41 c -0.086 0 -0.156 -0.039 -0.156 -0.086 c 0 -0.156 0.313 -0.086 0.5 0.113 c 0.199 0.211 0.242 0.445 0.102 0.531 c -0.047 0.031 -0.086 -0.035 -0.086 -0.148 m 0.648 -0.059 c -0.027 -0.047 -0.012 -0.105 0.031 -0.133 c 0.047 -0.027 0.105 -0.012 0.133 0.031 c 0.027 0.047 0.016 0.105 -0.031 0.133 c -0.043 0.027 -0.105 0.012 -0.133 -0.031 m 0.688 0 c -0.027 -0.047 -0.012 -0.105 0.031 -0.133 c 0.047 -0.027 0.105 -0.012 0.133 0.031 c 0.027 0.047 0.016 0.105 -0.031 0.133 c -0.043 0.027 -0.105 0.012 -0.133 -0.031 m 0.68 -0.012 c -0.031 -0.051 -0.035 -0.113 -0.008 -0.141 c 0.059 -0.059 0.227 0.047 0.227 0.148 c 0 0.109 -0.148 0.105 -0.219 -0.008 m -1.715 -0.344 c -0.082 -0.133 0.027 -0.219 0.137 -0.105 c 0.063 0.059 0.066 0.109 0.008 0.145 c -0.051 0.031 -0.113 0.012 -0.145 -0.039 m 0.691 0.012 c -0.027 -0.047 -0.012 -0.105 0.031 -0.133 c 0.047 -0.027 0.105 -0.012 0.133 0.031 c 0.027 0.047 0.012 0.105 -0.031 0.133 c -0.043 0.027 -0.105 0.012 -0.133 -0.031 m 0.68 -0.012 c -0.031 -0.051 -0.035 -0.113 -0.012 -0.141 c 0.063 -0.059 0.23 0.047 0.23 0.148 c 0 0.109 -0.148 0.105 -0.219 -0.008 m 1.375 0 c -0.078 -0.133 0.031 -0.219 0.141 -0.105 c 0.063 0.059 0.066 0.109 0.008 0.145 c -0.051 0.031 -0.113 0.012 -0.148 -0.039 m -3.133 -0.391 c 0 -0.074 0.047 -0.121 0.102 -0.102 c 0.16 0.055 0.188 0.238 0.035 0.238 c -0.074 0 -0.137 -0.063 -0.137 -0.137 m 0.734 0.059 c -0.027 -0.047 -0.012 -0.105 0.031 -0.133 c 0.047 -0.027 0.105 -0.012 0.133 0.031 c 0.027 0.047 0.012 0.105 -0.031 0.133 c -0.043 0.027 -0.105 0.012 -0.133 -0.031 m 0.68 -0.012 c -0.031 -0.051 -0.035 -0.113 -0.012 -0.141 c 0.063 -0.059 0.23 0.047 0.23 0.148 c 0 0.109 -0.148 0.105 -0.219 -0.008 m 1.375 0 c -0.031 -0.051 -0.035 -0.113 -0.012 -0.141 c 0.063 -0.059 0.23 0.047 0.23 0.148 c 0 0.109 -0.148 0.105 -0.219 -0.008 m 1.094 -0.258 c -0.121 -0.195 -0.02 -0.273 0.168 -0.137 c 0.105 0.078 0.113 0.121 0.035 0.195 c -0.078 0.074 -0.129 0.059 -0.203 -0.059 m 0.715 -0.043 l -0.258 -0.117 l 0.25 -0.004 c 0.242 -0.004 0.246 -0.008 0.094 -0.172 c -0.105 -0.121 -0.215 -0.156 -0.355 -0.121 c -0.148 0.035 -0.203 0.016 -0.203 -0.082 c 0 -0.07 0.047 -0.145 0.105 -0.164 c 0.078 -0.027 0.078 -0.047 0 -0.098 c -0.059 -0.035 -0.105 -0.023 -0.105 0.027 c 0 0.051 -0.082 0.09 -0.18 0.09 c -0.148 0 -0.176 -0.039 -0.145 -0.203 c 0.031 -0.164 0.008 -0.195 -0.125 -0.16 c -0.113 0.031 -0.25 -0.051 -0.43 -0.246 c -0.145 -0.16 -0.363 -0.359 -0.488 -0.441 c -0.145 -0.098 -0.176 -0.152 -0.09 -0.152 c 0.074 0 0.285 0.156 0.469 0.344 c 0.219 0.227 0.414 0.344 0.559 0.344 c 0.156 0 0.375 0.156 0.754 0.539 c 0.672 0.68 0.719 0.879 0.148 0.617 m -5.03 -0.082 c 0 -0.09 0.059 -0.129 0.152 -0.113 c 0.18 0.035 0.168 0.187 -0.02 0.227 c -0.078 0.016 -0.133 -0.031 -0.133 -0.113 m 0.82 0.051 c -0.027 -0.043 -0.012 -0.105 0.031 -0.133 c 0.047 -0.027 0.105 -0.012 0.133 0.031 c 0.027 0.047 0.012 0.105 -0.031 0.133 c -0.043 0.027 -0.105 0.012 -0.133 -0.031 m 0.68 -0.012 c -0.031 -0.051 -0.035 -0.113 -0.012 -0.141 c 0.063 -0.059 0.23 0.047 0.23 0.148 c 0 0.113 -0.148 0.105 -0.219 -0.008 m 1.375 0 c -0.031 -0.051 -0.035 -0.113 -0.012 -0.141 c 0.063 -0.059 0.23 0.047 0.23 0.148 c 0 0.113 -0.148 0.105 -0.219 -0.008 m 0.535 -0.152 c -0.188 -0.203 -0.18 -0.266 0.043 -0.504 l 0.188 -0.199 l 0.484 0.461 l -0.188 0.199 c -0.223 0.242 -0.34 0.25 -0.531 0.043 m -2.977 -0.23 c 0 -0.078 0.043 -0.129 0.094 -0.113 c 0.051 0.02 0.09 0.07 0.09 0.113 c 0 0.047 -0.039 0.098 -0.09 0.113 c -0.051 0.016 -0.094 -0.035 -0.094 -0.113 m 0.746 0.074 c -0.066 -0.066 0.012 -0.203 0.117 -0.203 c 0.047 0 0.082 0.059 0.082 0.129 c 0 0.133 -0.102 0.172 -0.199 0.074 m 1.355 -0.035 c -0.031 -0.051 -0.035 -0.113 -0.012 -0.141 c 0.063 -0.059 0.23 0.051 0.23 0.148 c 0 0.113 -0.148 0.105 -0.219 -0.008 m -2.531 -0.383 c 0 -0.086 0.059 -0.129 0.152 -0.113 c 0.18 0.035 0.168 0.188 -0.02 0.227 c -0.078 0.016 -0.133 -0.031 -0.133 -0.113 m 0.82 0.051 c -0.027 -0.043 -0.012 -0.105 0.031 -0.133 c 0.047 -0.027 0.105 -0.012 0.133 0.031 c 0.027 0.047 0.012 0.105 -0.031 0.133 c -0.043 0.027 -0.105 0.016 -0.133 -0.031 m 0.641 -0.043 c 0 -0.074 0.063 -0.137 0.137 -0.137 c 0.152 0 0.125 0.188 -0.035 0.238 c -0.055 0.02 -0.102 -0.027 -0.102 -0.102 m 0.727 0.031 c -0.031 -0.051 -0.035 -0.113 -0.012 -0.141 c 0.063 -0.059 0.23 0.051 0.23 0.148 c 0 0.113 -0.148 0.105 -0.219 -0.008 m 0.695 0.012 c -0.027 -0.043 -0.012 -0.105 0.031 -0.133 c 0.047 -0.027 0.105 -0.012 0.133 0.031 c 0.027 0.047 0.012 0.105 -0.031 0.133 c -0.043 0.027 -0.105 0.016 -0.133 -0.031 m -2.453 -0.395 c 0 -0.078 0.043 -0.129 0.094 -0.113 c 0.051 0.02 0.09 0.07 0.09 0.113 c 0 0.047 -0.039 0.098 -0.09 0.113 c -0.051 0.016 -0.094 -0.035 -0.094 -0.113 m 0.734 0.051 c -0.027 -0.043 -0.012 -0.105 0.031 -0.133 c 0.047 -0.027 0.105 -0.012 0.133 0.031 c 0.027 0.047 0.012 0.105 -0.031 0.133 c -0.043 0.027 -0.105 0.016 -0.133 -0.031 m 0.656 -0.012 c 0.02 -0.051 0.07 -0.094 0.113 -0.094 c 0.047 0 0.098 0.043 0.113 0.094 c 0.016 0.051 -0.035 0.09 -0.113 0.09 c -0.078 0 -0.129 -0.039 -0.113 -0.09 m 0.719 0.012 c -0.027 -0.043 -0.012 -0.105 0.031 -0.133 c 0.047 -0.027 0.105 -0.012 0.133 0.031 c 0.027 0.047 0.012 0.105 -0.031 0.133 c -0.043 0.027 -0.105 0.016 -0.133 -0.031 m 0.68 -0.012 c -0.078 -0.133 0.031 -0.219 0.141 -0.105 c 0.063 0.059 0.066 0.109 0.008 0.145 c -0.051 0.031 -0.113 0.012 -0.148 -0.039 m -3.219 -0.426 c 0 -0.188 0.063 -0.211 0.246 -0.094 c 0.141 0.09 0.059 0.266 -0.121 0.266 c -0.07 0 -0.125 -0.078 -0.125 -0.172 m 0.82 0.094 c -0.027 -0.043 -0.012 -0.105 0.031 -0.133 c 0.047 -0.027 0.105 -0.012 0.133 0.031 c 0.027 0.047 0.012 0.105 -0.031 0.133 c -0.043 0.027 -0.105 0.012 -0.133 -0.031 m 0.688 0 c -0.027 -0.043 -0.012 -0.105 0.031 -0.133 c 0.047 -0.027 0.105 -0.012 0.133 0.031 c 0.027 0.047 0.012 0.105 -0.031 0.133 c -0.043 0.027 -0.105 0.012 -0.133 -0.031 m 0.691 0.008 c -0.027 -0.051 -0.012 -0.113 0.039 -0.148 c 0.133 -0.078 0.219 0.031 0.109 0.141 c -0.063 0.063 -0.113 0.066 -0.148 0.008 m 0.695 0.012 c -0.102 -0.098 -0.063 -0.199 0.07 -0.199 c 0.07 0 0.129 0.059 0.129 0.129 c 0 0.137 -0.102 0.172 -0.199 0.07 m -2.465 -0.355 c 0 -0.113 0.508 -0.566 0.566 -0.508 c 0.031 0.031 -0.063 0.172 -0.207 0.316 c -0.266 0.266 -0.359 0.316 -0.359 0.191 m 0.734 -0.008 c -0.027 -0.043 -0.012 -0.105 0.031 -0.133 c 0.047 -0.027 0.105 -0.012 0.133 0.031 c 0.027 0.047 0.012 0.105 -0.031 0.133 c -0.047 0.027 -0.105 0.012 -0.133 -0.031 m 0.695 0.02 c -0.098 -0.098 -0.059 -0.199 0.074 -0.199 c 0.07 0 0.129 0.035 0.129 0.082 c 0 0.109 -0.133 0.184 -0.203 0.117 m 0.652 -0.137 c 0.027 -0.16 0 -0.195 -0.176 -0.191 c -0.117 0 -0.227 -0.043 -0.246 -0.094 c -0.051 -0.148 0.512 -0.031 0.676 0.137 c 0.105 0.113 0.117 0.176 0.047 0.246 c -0.172 0.172 -0.344 0.117 -0.301 -0.098 m -1.012 -0.238 c -0.031 -0.051 -0.035 -0.113 -0.012 -0.141 c 0.063 -0.059 0.23 0.051 0.23 0.148 c 0 0.113 -0.148 0.105 -0.219 -0.008 m -0.418 -0.391 c -0.074 -0.199 -0.07 -0.207 0.172 -0.207 c 0.172 0 0.215 0.035 0.172 0.137 c -0.027 0.074 -0.051 0.152 -0.051 0.172 c 0 0.102 -0.246 0.016 -0.293 -0.102" fill="#282828"/><path d="m 7.871 11.11 c -0.031 -0.031 -0.059 -0.129 -0.059 -0.219 c 0 -0.191 -0.195 -0.203 -0.344 -0.023 c -0.098 0.117 -0.133 0.113 -0.293 -0.039 c -0.121 -0.113 -0.25 -0.156 -0.375 -0.125 c -0.113 0.031 -0.191 0.012 -0.191 -0.043 c 0 -0.055 0.039 -0.098 0.086 -0.098 c 0.047 0 0.086 -0.063 0.086 -0.141 c 0 -0.098 -0.059 -0.125 -0.203 -0.098 c -0.168 0.031 -0.195 0.008 -0.156 -0.133 c 0.023 -0.098 -0.012 -0.211 -0.086 -0.266 c -0.223 -0.164 -0.43 -0.547 -0.332 -0.605 c 0.242 -0.152 -0.117 -0.734 -0.453 -0.734 c -0.223 0 -0.191 -0.398 0.035 -0.457 c 0.195 -0.051 0.152 -0.23 -0.055 -0.23 c -0.203 0 -0.152 -0.402 0.055 -0.457 c 0.195 -0.051 0.152 -0.23 -0.055 -0.23 c -0.199 0 -0.156 -0.402 0.047 -0.453 c 0.094 -0.027 0.172 -0.086 0.172 -0.137 c 0 -0.047 -0.078 -0.109 -0.172 -0.141 c -0.23 -0.074 -0.246 -0.559 -0.016 -0.559 c 0.195 0 0.359 -0.164 0.359 -0.359 c 0 -0.23 0.484 -0.215 0.559 0.016 c 0.07 0.223 0.273 0.223 0.344 0 c 0.039 -0.117 0.129 -0.172 0.293 -0.172 c 0.203 0 0.246 0.047 0.316 0.32 c 0.066 0.27 0.117 0.324 0.301 0.32 c 0.184 0 0.215 0.031 0.184 0.195 c -0.043 0.215 0.133 0.27 0.305 0.098 c 0.121 -0.125 0.461 0.078 0.848 0.508 c 0.188 0.207 0.324 0.289 0.438 0.258 c 0.137 -0.035 0.16 -0.008 0.129 0.16 c -0.031 0.16 0 0.203 0.137 0.203 c 0.094 0 0.188 -0.047 0.207 -0.102 c 0.027 -0.082 0.051 -0.082 0.098 0 c 0.035 0.055 0.023 0.102 -0.027 0.102 c -0.047 0 -0.09 0.063 -0.09 0.137 c 0 0.105 0.055 0.125 0.203 0.09 c 0.137 -0.035 0.25 0 0.348 0.105 c 0.137 0.152 0.125 0.164 -0.215 0.219 c -0.203 0.031 -0.398 0.02 -0.461 -0.031 c -0.145 -0.121 -0.242 -0.004 -0.121 0.141 c 0.145 0.172 -0.051 0.773 -0.27 0.844 c -0.094 0.031 -0.211 0.129 -0.262 0.219 c -0.105 0.203 -0.305 0.219 -0.41 0.027 c -0.063 -0.109 -0.109 -0.117 -0.262 -0.039 c -0.219 0.121 -0.234 0.254 -0.039 0.395 c 0.129 0.094 0.113 0.137 -0.172 0.422 c -0.328 0.328 -0.379 0.469 -0.223 0.625 c 0.051 0.051 0.082 0.184 0.063 0.289 c -0.027 0.203 -0.164 0.301 -0.27 0.199 m -0.449 -0.727 c -0.027 -0.043 -0.086 -0.059 -0.133 -0.031 c -0.043 0.027 -0.059 0.086 -0.031 0.133 c 0.027 0.043 0.09 0.059 0.133 0.031 c 0.047 -0.027 0.059 -0.086 0.031 -0.133 m -0.375 -0.273 c -0.012 -0.102 -0.129 -0.082 -0.164 0.027 c -0.02 0.059 0.012 0.09 0.066 0.07 c 0.059 -0.02 0.102 -0.063 0.098 -0.098 m 0.68 -0.023 c 0 -0.074 -0.039 -0.109 -0.086 -0.082 c -0.047 0.031 -0.066 0.09 -0.039 0.137 c 0.074 0.117 0.125 0.094 0.125 -0.055 m -1.02 -0.406 c -0.113 -0.113 -0.223 -0.027 -0.141 0.105 c 0.031 0.051 0.094 0.07 0.145 0.039 c 0.059 -0.035 0.055 -0.086 -0.004 -0.145 m 0.715 0.016 c -0.027 -0.043 -0.086 -0.059 -0.133 -0.031 c -0.043 0.027 -0.059 0.086 -0.031 0.133 c 0.027 0.043 0.09 0.059 0.133 0.031 c 0.047 -0.027 0.059 -0.086 0.031 -0.133 m 0.688 0 c -0.027 -0.043 -0.086 -0.059 -0.133 -0.031 c -0.043 0.027 -0.059 0.086 -0.031 0.133 c 0.027 0.043 0.09 0.059 0.133 0.031 c 0.047 -0.027 0.059 -0.086 0.031 -0.133 m -1.691 -0.266 c -0.051 -0.16 -0.238 -0.188 -0.238 -0.035 c 0 0.074 0.063 0.137 0.137 0.137 c 0.074 0 0.121 -0.047 0.102 -0.102 m 0.66 -0.078 c -0.027 -0.043 -0.086 -0.059 -0.133 -0.031 c -0.043 0.027 -0.059 0.086 -0.031 0.133 c 0.027 0.043 0.09 0.059 0.133 0.031 c 0.047 -0.027 0.059 -0.086 0.031 -0.133 m 0.688 0 c -0.027 -0.043 -0.086 -0.059 -0.133 -0.031 c -0.043 0.027 -0.059 0.086 -0.031 0.133 c 0.027 0.043 0.09 0.059 0.133 0.031 c 0.047 -0.027 0.059 -0.086 0.031 -0.133 m -1.031 -0.344 c -0.027 -0.043 -0.086 -0.059 -0.133 -0.031 c -0.043 0.027 -0.059 0.086 -0.031 0.133 c 0.027 0.043 0.09 0.059 0.133 0.031 c 0.047 -0.027 0.059 -0.086 0.031 -0.133 m 0.688 0 c -0.027 -0.043 -0.086 -0.059 -0.133 -0.031 c -0.043 0.027 -0.059 0.086 -0.031 0.133 c 0.027 0.043 0.09 0.059 0.133 0.031 c 0.047 -0.027 0.059 -0.086 0.031 -0.133 m 0.734 0.098 c 0 -0.102 -0.168 -0.207 -0.227 -0.148 c -0.063 0.063 0.047 0.23 0.148 0.23 c 0.043 0 0.078 -0.035 0.078 -0.082 m -1.793 -0.457 c -0.113 -0.113 -0.223 -0.027 -0.141 0.105 c 0.031 0.051 0.094 0.07 0.145 0.039 c 0.059 -0.035 0.055 -0.086 -0.004 -0.145 m 0.715 0.016 c -0.027 -0.043 -0.086 -0.059 -0.133 -0.031 c -0.043 0.027 -0.059 0.086 -0.031 0.133 c 0.027 0.043 0.09 0.059 0.133 0.031 c 0.047 -0.027 0.059 -0.086 0.031 -0.133 m 0.734 0.098 c 0 -0.102 -0.168 -0.207 -0.227 -0.148 c -0.063 0.063 0.047 0.23 0.148 0.23 c 0.043 0 0.078 -0.035 0.078 -0.082 m 1.297 -0.113 c -0.109 -0.113 -0.219 -0.027 -0.141 0.105 c 0.035 0.051 0.098 0.07 0.148 0.039 c 0.059 -0.035 0.055 -0.086 -0.008 -0.145 m -3.035 -0.25 c -0.051 -0.16 -0.238 -0.188 -0.238 -0.035 c 0 0.074 0.063 0.137 0.137 0.137 c 0.074 0 0.121 -0.047 0.102 -0.102 m 0.66 -0.078 c -0.027 -0.043 -0.086 -0.059 -0.133 -0.031 c -0.043 0.027 -0.059 0.086 -0.031 0.133 c 0.027 0.043 0.09 0.059 0.133 0.031 c 0.047 -0.027 0.059 -0.086 0.031 -0.133 m 0.734 0.098 c 0 -0.102 -0.168 -0.207 -0.227 -0.148 c -0.063 0.063 0.047 0.23 0.145 0.23 c 0.047 0 0.082 -0.035 0.082 -0.082 m 1.375 0 c 0 -0.102 -0.168 -0.207 -0.227 -0.148 c -0.063 0.063 0.047 0.23 0.145 0.23 c 0.047 0 0.082 -0.035 0.082 -0.082 m -2.453 -0.441 c -0.027 -0.043 -0.086 -0.059 -0.133 -0.031 c -0.043 0.027 -0.059 0.086 -0.031 0.133 c 0.027 0.043 0.09 0.059 0.133 0.031 c 0.047 -0.027 0.059 -0.086 0.031 -0.133 m 0.734 0.098 c 0 -0.102 -0.168 -0.207 -0.227 -0.148 c -0.063 0.063 0.047 0.23 0.145 0.23 c 0.047 0 0.082 -0.035 0.082 -0.082 m 1.375 0 c 0 -0.102 -0.168 -0.207 -0.227 -0.148 c -0.063 0.063 0.047 0.23 0.145 0.23 c 0.047 0 0.082 -0.035 0.082 -0.082 m 0.844 -0.203 l 0.188 -0.199 l -0.484 -0.461 l -0.188 0.199 c -0.223 0.238 -0.23 0.297 -0.043 0.504 c 0.188 0.207 0.305 0.199 0.527 -0.043 m -3.324 -0.188 c 0 -0.043 -0.039 -0.094 -0.09 -0.113 c -0.051 -0.016 -0.094 0.035 -0.094 0.113 c 0 0.078 0.043 0.129 0.094 0.113 c 0.051 -0.02 0.09 -0.066 0.09 -0.113 m 0.762 0 c 0 -0.07 -0.035 -0.129 -0.082 -0.129 c -0.105 0 -0.184 0.133 -0.117 0.203 c 0.098 0.098 0.199 0.059 0.199 -0.074 m 1.375 0.047 c 0 -0.102 -0.168 -0.207 -0.227 -0.148 c -0.063 0.063 0.047 0.23 0.145 0.23 c 0.047 0 0.082 -0.035 0.082 -0.082 m -1.766 -0.441 c -0.027 -0.043 -0.086 -0.059 -0.133 -0.031 c -0.043 0.027 -0.059 0.086 -0.031 0.133 c 0.027 0.043 0.09 0.059 0.133 0.031 c 0.047 -0.027 0.059 -0.086 0.031 -0.133 m 0.715 0.023 c 0.02 -0.055 -0.027 -0.102 -0.102 -0.102 c -0.074 0 -0.137 0.063 -0.137 0.137 c 0 0.152 0.188 0.125 0.238 -0.035 m 0.707 0.074 c 0 -0.102 -0.168 -0.207 -0.227 -0.148 c -0.063 0.063 0.047 0.23 0.145 0.23 c 0.047 0 0.082 -0.035 0.082 -0.082 m 0.641 -0.098 c -0.027 -0.043 -0.086 -0.059 -0.133 -0.031 c -0.043 0.027 -0.059 0.086 -0.031 0.133 c 0.027 0.043 0.09 0.059 0.133 0.031 c 0.047 -0.027 0.059 -0.086 0.031 -0.133 m -2.434 -0.293 c 0 -0.043 -0.039 -0.094 -0.09 -0.113 c -0.051 -0.016 -0.094 0.035 -0.094 0.113 c 0 0.078 0.043 0.129 0.094 0.113 c 0.051 -0.02 0.09 -0.066 0.09 -0.113 m 0.715 -0.051 c -0.027 -0.043 -0.086 -0.059 -0.133 -0.031 c -0.043 0.027 -0.059 0.086 -0.031 0.133 c 0.027 0.043 0.09 0.059 0.133 0.031 c 0.043 -0.027 0.059 -0.086 0.031 -0.133 m 0.719 0.086 c -0.016 -0.051 -0.066 -0.09 -0.113 -0.09 c -0.043 0 -0.094 0.039 -0.113 0.09 c -0.016 0.051 0.035 0.094 0.113 0.094 c 0.078 0 0.129 -0.043 0.113 -0.094 m 0.656 -0.086 c -0.027 -0.043 -0.086 -0.059 -0.133 -0.031 c -0.043 0.027 -0.059 0.086 -0.031 0.133 c 0.027 0.043 0.09 0.059 0.133 0.031 c 0.043 -0.027 0.059 -0.086 0.031 -0.133 m 0.656 -0.016 c -0.109 -0.113 -0.219 -0.027 -0.141 0.105 c 0.035 0.051 0.098 0.07 0.148 0.039 c 0.059 -0.035 0.055 -0.086 -0.008 -0.145 m -2.375 -0.328 c -0.027 -0.043 -0.086 -0.059 -0.133 -0.031 c -0.043 0.027 -0.059 0.086 -0.031 0.133 c 0.027 0.043 0.09 0.059 0.133 0.031 c 0.043 -0.027 0.059 -0.086 0.031 -0.133 m 0.688 0 c -0.027 -0.043 -0.086 -0.059 -0.133 -0.031 c -0.043 0.027 -0.059 0.086 -0.031 0.133 c 0.027 0.043 0.09 0.059 0.133 0.031 c 0.043 -0.027 0.059 -0.086 0.031 -0.133 m 0.715 -0.043 c -0.082 -0.082 -0.246 0.051 -0.188 0.148 c 0.039 0.063 0.086 0.059 0.148 -0.004 c 0.051 -0.051 0.066 -0.113 0.039 -0.145 m 0.707 0.094 c 0 -0.07 -0.059 -0.129 -0.129 -0.129 c -0.133 0 -0.172 0.102 -0.07 0.199 c 0.098 0.102 0.199 0.063 0.199 -0.07 m -2.301 -0.477 c 0.141 -0.145 0.234 -0.285 0.207 -0.316 c -0.063 -0.059 -0.57 0.395 -0.57 0.508 c 0 0.125 0.094 0.074 0.363 -0.191 m 0.535 0.082 c -0.027 -0.043 -0.086 -0.059 -0.133 -0.031 c -0.043 0.027 -0.059 0.086 -0.031 0.133 c 0.027 0.043 0.09 0.059 0.133 0.031 c 0.043 -0.027 0.059 -0.086 0.031 -0.133 m 0.734 0.004 c 0 -0.047 -0.059 -0.082 -0.129 -0.082 c -0.133 0 -0.172 0.102 -0.074 0.199 c 0.07 0.066 0.203 -0.012 0.203 -0.117 m -0.344 -0.25 c 0 -0.102 -0.168 -0.207 -0.23 -0.148 c -0.059 0.063 0.047 0.23 0.148 0.23 c 0.047 0 0.082 -0.035 0.082 -0.082" fill="#161616"/></svg>