<svg xmlns="http://www.w3.org/2000/svg" viewBox="0 0 22 22"><path d="m 18.871 18.18 c -22.797 17.199 -26.04 -30.13 -2.766 -14.941 c 5.305 3.465 8.801 10.387 2.766 14.941" fill="#546a2f"/><path d="m 6 14.48 c -0.395 -0.422 -0.719 -0.82 -0.719 -0.879 c 0 -0.059 -0.109 -0.215 -0.246 -0.344 c -0.242 -0.234 -0.348 -0.785 -0.148 -0.785 c 0.055 0 0.098 -0.082 0.098 -0.18 c 0 -0.223 0.691 -0.922 0.906 -0.922 c 0.09 0 0.215 -0.07 0.281 -0.152 c 0.07 -0.082 0.207 -0.148 0.309 -0.148 c 0.105 0 0.188 -0.047 0.188 -0.102 c 0 -0.055 0.156 -0.102 0.352 -0.102 c 0.219 0 0.371 -0.055 0.406 -0.148 c 0.035 -0.094 0.184 -0.152 0.379 -0.152 c 0.18 0 0.383 -0.07 0.453 -0.152 c 0.07 -0.086 0.219 -0.145 0.332 -0.129 c 0.113 0.016 0.266 -0.012 0.336 -0.055 c 0.199 -0.125 -0.035 -0.344 -0.309 -0.293 c -0.133 0.027 -0.281 -0.02 -0.359 -0.113 c -0.078 -0.098 -0.285 -0.16 -0.551 -0.16 c -0.246 0 -0.469 -0.059 -0.539 -0.145 c -0.074 -0.09 -0.348 -0.156 -0.73 -0.176 c -0.5 -0.023 -0.613 -0.059 -0.613 -0.199 c 0 -0.094 -0.055 -0.227 -0.125 -0.297 c -0.145 -0.148 -0.164 -1.348 -0.023 -1.438 c 0.055 -0.031 0.102 -0.129 0.102 -0.215 c 0 -0.086 0.102 -0.262 0.223 -0.395 c 0.188 -0.199 0.32 -0.238 0.844 -0.238 c 0.465 -0.004 0.637 0.035 0.68 0.148 c 0.035 0.09 0.188 0.148 0.387 0.148 c 0.184 0 0.359 0.047 0.391 0.102 c 0.035 0.055 0.152 0.102 0.258 0.102 c 0.109 0 0.223 0.066 0.254 0.148 c 0.031 0.082 0.156 0.152 0.281 0.152 c 0.125 0 0.254 0.066 0.285 0.148 c 0.039 0.102 0.168 0.145 0.375 0.129 c 0.18 -0.012 0.336 0.027 0.355 0.098 c 0.023 0.07 0.152 0.125 0.285 0.125 c 0.133 0 0.27 0.066 0.301 0.148 c 0.035 0.094 0.184 0.152 0.395 0.152 c 0.211 0 0.359 0.055 0.395 0.148 c 0.031 0.082 0.16 0.152 0.289 0.152 c 0.125 0 0.246 0.055 0.27 0.125 c 0.027 0.086 0.234 0.113 0.691 0.09 l 0.652 -0.035 l 0.504 0.531 c 0.363 0.379 0.504 0.605 0.504 0.809 c 0 0.254 0.035 0.281 0.32 0.281 c 0.266 0 0.41 0.098 0.813 0.551 c 0.273 0.305 0.57 0.555 0.66 0.555 c 0.094 0 0.418 0.258 0.723 0.574 c 0.531 0.555 0.551 0.598 0.555 1.125 c 0 0.508 -0.027 0.574 -0.418 0.977 c -0.316 0.328 -0.488 0.43 -0.73 0.43 c -0.199 0 -0.34 0.059 -0.375 0.16 c -0.035 0.086 -0.125 0.137 -0.203 0.105 c -0.078 -0.031 -0.195 0.012 -0.258 0.09 c -0.066 0.078 -0.273 0.145 -0.457 0.145 c -0.211 0 -0.359 0.059 -0.395 0.148 c -0.047 0.121 -0.262 0.152 -1.09 0.152 c -0.828 0 -1.043 -0.031 -1.09 -0.152 c -0.047 -0.125 -0.34 -0.148 -1.77 -0.148 c -1.398 0 -1.73 0.027 -1.832 0.148 c -0.098 0.117 -0.344 0.148 -1.125 0.141 l -1 -0.016" fill="#9ca19c"/><path d="m 6.098 14.445 c -0.391 -0.398 -0.715 -0.777 -0.715 -0.84 c 0 -0.063 -0.133 -0.23 -0.297 -0.367 c -0.316 -0.273 -0.391 -0.609 -0.148 -0.703 c 0.082 -0.031 0.148 -0.141 0.148 -0.242 c 0 -0.223 0.594 -0.824 0.809 -0.824 c 0.09 0 0.215 -0.066 0.281 -0.152 c 0.066 -0.082 0.18 -0.148 0.25 -0.148 c 0.066 0 0.18 -0.07 0.254 -0.16 c 0.086 -0.105 0.223 -0.141 0.398 -0.105 c 0.172 0.035 0.313 0.004 0.391 -0.09 c 0.066 -0.082 0.242 -0.145 0.391 -0.145 c 0.152 0 0.328 -0.07 0.398 -0.152 c 0.066 -0.082 0.273 -0.148 0.457 -0.148 c 0.289 0 0.336 -0.035 0.336 -0.25 c 0 -0.219 -0.047 -0.254 -0.336 -0.254 c -0.184 0 -0.391 -0.066 -0.457 -0.148 c -0.074 -0.09 -0.289 -0.152 -0.539 -0.152 c -0.227 0 -0.469 -0.055 -0.535 -0.121 c -0.066 -0.066 -0.375 -0.121 -0.688 -0.125 c -0.504 -0.004 -0.57 -0.027 -0.598 -0.219 c -0.016 -0.121 -0.094 -0.273 -0.172 -0.34 c -0.199 -0.164 -0.195 -1.129 0.004 -1.297 c 0.082 -0.07 0.148 -0.203 0.148 -0.297 c 0 -0.098 0.082 -0.246 0.184 -0.34 c 0.238 -0.219 1.254 -0.23 1.465 -0.016 c 0.09 0.09 0.238 0.129 0.371 0.094 c 0.141 -0.035 0.273 0.004 0.352 0.102 c 0.074 0.086 0.207 0.156 0.305 0.156 c 0.094 0 0.23 0.066 0.297 0.148 c 0.066 0.086 0.18 0.152 0.246 0.152 c 0.07 0 0.18 0.066 0.246 0.145 c 0.074 0.094 0.219 0.129 0.387 0.094 c 0.18 -0.035 0.316 0 0.402 0.102 c 0.07 0.09 0.188 0.16 0.254 0.16 c 0.07 0 0.18 0.066 0.25 0.152 c 0.066 0.082 0.266 0.148 0.445 0.148 c 0.176 0 0.375 0.066 0.445 0.148 c 0.066 0.082 0.156 0.129 0.199 0.102 c 0.039 -0.027 0.129 0.02 0.195 0.102 c 0.09 0.105 0.324 0.148 0.809 0.148 h 0.684 l 0.5 0.492 c 0.289 0.285 0.492 0.574 0.48 0.68 c -0.039 0.371 0.008 0.434 0.328 0.434 c 0.262 0 0.422 0.105 0.848 0.551 c 0.289 0.301 0.582 0.551 0.648 0.551 c 0.066 0 0.375 0.262 0.684 0.578 c 0.52 0.531 0.566 0.617 0.566 1.023 c 0 0.387 -0.051 0.5 -0.414 0.875 c -0.32 0.324 -0.492 0.43 -0.73 0.43 c -0.176 0 -0.371 0.066 -0.438 0.148 c -0.07 0.082 -0.18 0.152 -0.25 0.152 c -0.066 0 -0.18 0.066 -0.25 0.152 c -0.086 0.105 -0.215 0.137 -0.395 0.098 c -0.176 -0.039 -0.305 -0.008 -0.391 0.094 c -0.168 0.203 -2.063 0.23 -2.137 0.031 c -0.063 -0.16 -3.492 -0.137 -3.648 0.023 c -0.059 0.055 -0.531 0.102 -1.051 0.102 h -0.949 l -0.715 -0.73" fill="#5b665b"/><path d="m 6.113 14.426 c -0.402 -0.402 -0.73 -0.801 -0.73 -0.883 c 0 -0.086 -0.133 -0.266 -0.297 -0.406 c -0.348 -0.297 -0.379 -0.52 -0.086 -0.598 c 0.133 -0.035 0.191 -0.109 0.156 -0.199 c -0.055 -0.148 0.594 -0.871 0.785 -0.871 c 0.148 0 0.715 -0.293 0.785 -0.406 c 0.031 -0.051 0.203 -0.094 0.387 -0.094 c 0.211 0 0.352 -0.059 0.391 -0.16 c 0.039 -0.102 0.156 -0.145 0.344 -0.125 c 0.156 0.016 0.363 -0.035 0.461 -0.117 c 0.094 -0.082 0.273 -0.133 0.391 -0.117 c 0.285 0.035 0.484 -0.211 0.398 -0.488 c -0.055 -0.172 -0.129 -0.207 -0.355 -0.172 c -0.168 0.023 -0.336 -0.012 -0.398 -0.09 c -0.063 -0.074 -0.301 -0.133 -0.531 -0.133 c -0.254 0 -0.473 -0.063 -0.547 -0.152 c -0.082 -0.102 -0.309 -0.148 -0.703 -0.148 c -0.504 0 -0.582 -0.027 -0.582 -0.188 c 0 -0.105 -0.066 -0.246 -0.148 -0.313 c -0.207 -0.176 -0.203 -1.133 0.004 -1.309 c 0.082 -0.07 0.133 -0.184 0.105 -0.25 c -0.027 -0.07 0.055 -0.219 0.176 -0.336 c 0.273 -0.262 1.152 -0.301 1.348 -0.063 c 0.066 0.086 0.246 0.152 0.398 0.152 c 0.148 0 0.328 0.066 0.395 0.148 c 0.066 0.082 0.203 0.152 0.305 0.152 c 0.098 0 0.207 0.043 0.238 0.098 c 0.035 0.059 0.152 0.102 0.258 0.102 c 0.109 0 0.223 0.066 0.254 0.152 c 0.035 0.09 0.184 0.148 0.379 0.148 c 0.18 0 0.379 0.066 0.449 0.152 c 0.066 0.082 0.203 0.148 0.301 0.148 c 0.102 0 0.211 0.047 0.242 0.102 c 0.035 0.055 0.188 0.098 0.34 0.098 c 0.156 0 0.336 0.07 0.402 0.152 c 0.07 0.082 0.203 0.148 0.301 0.148 c 0.098 0 0.203 0.07 0.234 0.156 c 0.047 0.125 0.203 0.152 0.758 0.137 l 0.699 -0.023 l 0.438 0.434 c 0.328 0.324 0.441 0.52 0.465 0.793 c 0.027 0.332 0.055 0.359 0.355 0.363 c 0.254 0.004 0.438 0.121 0.844 0.527 c 0.285 0.285 0.59 0.52 0.672 0.52 c 0.086 0 0.406 0.266 0.715 0.594 c 0.488 0.512 0.563 0.641 0.563 0.98 c 0 0.332 -0.07 0.457 -0.488 0.875 c -0.355 0.355 -0.539 0.469 -0.688 0.43 c -0.113 -0.027 -0.254 0.012 -0.316 0.086 c -0.063 0.078 -0.195 0.141 -0.289 0.141 c -0.098 0 -0.23 0.066 -0.297 0.152 c -0.07 0.082 -0.27 0.148 -0.445 0.148 c -0.18 0 -0.379 0.066 -0.445 0.152 c -0.094 0.109 -0.344 0.148 -0.992 0.148 c -0.648 0 -0.898 -0.039 -0.992 -0.148 c -0.176 -0.219 -3.582 -0.223 -3.758 -0.008 c -0.09 0.109 -0.352 0.145 -1.02 0.141 l -0.898 -0.004 m 2.902 -5.191 c 0 -0.055 -0.039 -0.098 -0.094 -0.098 c -0.051 0 -0.121 0.043 -0.152 0.098 c -0.035 0.059 0.008 0.102 0.094 0.102 c 0.082 0 0.152 -0.043 0.152 -0.102 m -3.27 -1.199 c 0 -0.055 -0.043 -0.102 -0.098 -0.102 c -0.055 0 -0.098 0.047 -0.098 0.102 c 0 0.055 0.043 0.098 0.098 0.098 c 0.055 0 0.098 -0.043 0.098 -0.098 m -0.297 -0.914 c 0 -0.055 -0.043 -0.074 -0.098 -0.039 c -0.055 0.035 -0.098 0.105 -0.098 0.16 c 0 0.059 0.043 0.074 0.098 0.039 c 0.055 -0.031 0.098 -0.105 0.098 -0.16 m 0.363 -0.344 c 0.074 -0.199 -0.016 -0.289 -0.207 -0.211 c -0.086 0.031 -0.125 0.121 -0.094 0.211 c 0.074 0.199 0.227 0.199 0.301 0 m 0.305 -0.406 c -0.031 -0.035 -0.117 -0.039 -0.191 -0.008 c -0.078 0.031 -0.055 0.055 0.063 0.059 c 0.102 0.004 0.16 -0.02 0.129 -0.051" fill="#4a883d"/><path d="m 6.113 14.426 c -0.402 -0.402 -0.73 -0.801 -0.73 -0.883 c 0 -0.086 -0.133 -0.266 -0.297 -0.406 c -0.348 -0.297 -0.379 -0.52 -0.086 -0.598 c 0.133 -0.035 0.191 -0.109 0.156 -0.199 c -0.055 -0.148 0.594 -0.871 0.785 -0.871 c 0.148 0 0.715 -0.293 0.785 -0.406 c 0.031 -0.051 0.203 -0.094 0.387 -0.094 c 0.211 0 0.352 -0.059 0.391 -0.16 c 0.039 -0.102 0.156 -0.145 0.344 -0.125 c 0.156 0.016 0.363 -0.035 0.461 -0.117 c 0.094 -0.082 0.273 -0.133 0.391 -0.117 c 0.285 0.035 0.484 -0.211 0.398 -0.488 c -0.055 -0.172 -0.129 -0.207 -0.355 -0.172 c -0.168 0.023 -0.336 -0.012 -0.398 -0.09 c -0.063 -0.074 -0.301 -0.133 -0.531 -0.133 c -0.254 0 -0.473 -0.063 -0.547 -0.152 c -0.082 -0.102 -0.309 -0.148 -0.703 -0.148 c -0.504 0 -0.582 -0.027 -0.582 -0.188 c 0 -0.105 -0.066 -0.246 -0.148 -0.313 c -0.207 -0.176 -0.203 -1.133 0.004 -1.309 c 0.082 -0.07 0.133 -0.184 0.105 -0.25 c -0.027 -0.07 0.055 -0.219 0.176 -0.336 c 0.273 -0.262 1.152 -0.301 1.348 -0.063 c 0.066 0.086 0.246 0.152 0.398 0.152 c 0.148 0 0.328 0.066 0.395 0.148 c 0.066 0.082 0.203 0.152 0.305 0.152 c 0.098 0 0.207 0.043 0.238 0.098 c 0.035 0.059 0.152 0.102 0.258 0.102 c 0.109 0 0.223 0.066 0.254 0.152 c 0.035 0.09 0.184 0.148 0.379 0.148 c 0.18 0 0.379 0.066 0.449 0.152 c 0.066 0.082 0.203 0.148 0.301 0.148 c 0.102 0 0.211 0.047 0.242 0.102 c 0.035 0.055 0.188 0.098 0.34 0.098 c 0.156 0 0.336 0.07 0.402 0.152 c 0.07 0.082 0.203 0.148 0.301 0.148 c 0.098 0 0.203 0.07 0.234 0.156 c 0.047 0.125 0.203 0.152 0.758 0.137 l 0.699 -0.023 l 0.438 0.434 c 0.328 0.324 0.441 0.52 0.465 0.793 c 0.027 0.332 0.055 0.359 0.355 0.363 c 0.254 0.004 0.438 0.121 0.844 0.527 c 0.285 0.285 0.59 0.52 0.672 0.52 c 0.086 0 0.406 0.266 0.715 0.594 c 0.488 0.512 0.563 0.641 0.563 0.98 c 0 0.332 -0.07 0.457 -0.488 0.875 c -0.355 0.355 -0.539 0.469 -0.688 0.43 c -0.113 -0.027 -0.254 0.012 -0.316 0.086 c -0.063 0.078 -0.195 0.141 -0.289 0.141 c -0.098 0 -0.23 0.066 -0.297 0.152 c -0.07 0.082 -0.27 0.148 -0.445 0.148 c -0.18 0 -0.379 0.066 -0.445 0.152 c -0.094 0.109 -0.344 0.148 -0.992 0.148 c -0.648 0 -0.898 -0.039 -0.992 -0.148 c -0.176 -0.219 -3.582 -0.223 -3.758 -0.008 c -0.09 0.109 -0.352 0.145 -1.02 0.141 l -0.898 -0.004 m 2.211 -2.699 c 0 -0.172 0.461 -0.566 0.707 -0.605 c 0.32 -0.047 0.328 -0.23 0.016 -0.375 c -0.25 -0.113 -0.293 -0.102 -0.5 0.16 c -0.121 0.156 -0.223 0.34 -0.223 0.41 c 0 0.152 -0.125 0.16 -0.27 0.012 c -0.117 -0.117 -0.324 -0.043 -0.324 0.117 c 0 0.055 0.066 0.094 0.148 0.094 c 0.082 0 0.148 0.07 0.148 0.152 c 0 0.082 0.066 0.148 0.148 0.148 c 0.082 0 0.148 -0.051 0.148 -0.113 m 0.848 -2.301 c 0.074 -0.121 -0.145 -0.305 -0.305 -0.254 c -0.055 0.016 -0.113 0.105 -0.129 0.199 c -0.039 0.191 0.324 0.238 0.434 0.055 m 1.23 -1.391 c -0.113 -0.219 -0.441 -0.27 -0.551 -0.09 c -0.086 0.141 0.133 0.285 0.43 0.289 c 0.199 0 0.215 -0.027 0.121 -0.199 m -4.656 0 c 0 -0.055 -0.043 -0.102 -0.098 -0.102 c -0.055 0 -0.098 0.047 -0.098 0.102 c 0 0.055 0.043 0.098 0.098 0.098 c 0.055 0 0.098 -0.043 0.098 -0.098 m 3.793 -0.188 c 0.156 -0.16 -0.211 -0.273 -0.434 -0.133 c -0.102 0.066 -0.203 0.074 -0.234 0.023 c -0.031 -0.051 -0.012 -0.121 0.047 -0.156 c 0.207 -0.129 -0.027 -0.254 -0.355 -0.191 c -0.27 0.051 -0.34 0.031 -0.34 -0.098 c 0 -0.09 -0.066 -0.16 -0.148 -0.16 c -0.082 0 -0.238 -0.055 -0.344 -0.121 c -0.105 -0.066 -0.223 -0.09 -0.258 -0.055 c -0.09 0.09 0.141 0.371 0.402 0.492 c 0.301 0.137 0.652 0.348 0.75 0.449 c 0.117 0.121 0.781 0.082 0.914 -0.051 m -4.09 -0.727 c 0 -0.055 -0.043 -0.074 -0.098 -0.039 c -0.055 0.035 -0.098 0.105 -0.098 0.16 c 0 0.059 0.043 0.074 0.098 0.039 c 0.055 -0.031 0.098 -0.105 0.098 -0.16 m 0.367 -0.391 c 0.031 -0.109 0.086 -0.176 0.125 -0.152 c 0.043 0.027 0.16 -0.023 0.262 -0.109 c 0.176 -0.141 0.16 -0.148 -0.199 -0.098 c -0.406 0.055 -0.57 0.199 -0.484 0.426 c 0.074 0.199 0.238 0.164 0.297 -0.063" fill="#22551a"/><path d="m 6.113 14.426 c -0.402 -0.402 -0.73 -0.801 -0.73 -0.883 c 0 -0.086 -0.133 -0.266 -0.297 -0.406 c -0.348 -0.297 -0.379 -0.52 -0.086 -0.598 c 0.133 -0.035 0.191 -0.109 0.156 -0.199 c -0.055 -0.148 0.594 -0.871 0.785 -0.871 c 0.148 0 0.715 -0.293 0.785 -0.406 c 0.031 -0.051 0.203 -0.094 0.387 -0.094 c 0.211 0 0.352 -0.059 0.391 -0.16 c 0.039 -0.102 0.156 -0.145 0.344 -0.125 c 0.156 0.016 0.363 -0.035 0.461 -0.117 c 0.094 -0.082 0.273 -0.133 0.391 -0.117 c 0.285 0.035 0.484 -0.211 0.398 -0.488 c -0.055 -0.172 -0.129 -0.207 -0.355 -0.172 c -0.168 0.023 -0.336 -0.012 -0.398 -0.09 c -0.063 -0.074 -0.301 -0.133 -0.531 -0.133 c -0.254 0 -0.473 -0.063 -0.547 -0.152 c -0.082 -0.102 -0.309 -0.148 -0.703 -0.148 c -0.504 0 -0.582 -0.027 -0.582 -0.188 c 0 -0.105 -0.066 -0.246 -0.148 -0.313 c -0.207 -0.176 -0.203 -1.133 0.004 -1.309 c 0.082 -0.07 0.133 -0.184 0.105 -0.25 c -0.027 -0.07 0.055 -0.219 0.176 -0.336 c 0.273 -0.262 1.152 -0.301 1.348 -0.063 c 0.066 0.086 0.246 0.152 0.398 0.152 c 0.148 0 0.328 0.066 0.395 0.148 c 0.066 0.082 0.207 0.152 0.313 0.152 c 0.105 0 0.215 0.066 0.246 0.152 c 0.039 0.098 0.129 0.133 0.246 0.094 c 0.121 -0.039 0.207 -0.004 0.246 0.098 c 0.039 0.098 0.18 0.156 0.383 0.156 c 0.18 0 0.379 0.066 0.449 0.152 c 0.066 0.082 0.203 0.148 0.301 0.148 c 0.102 0 0.211 0.047 0.242 0.102 c 0.035 0.055 0.188 0.098 0.34 0.098 c 0.156 0 0.336 0.07 0.402 0.152 c 0.07 0.082 0.203 0.148 0.301 0.148 c 0.098 0 0.203 0.07 0.234 0.156 c 0.047 0.125 0.203 0.152 0.758 0.137 l 0.699 -0.023 l 0.438 0.434 c 0.328 0.324 0.441 0.52 0.465 0.793 c 0.027 0.332 0.055 0.359 0.355 0.363 c 0.254 0.004 0.438 0.121 0.844 0.527 c 0.285 0.285 0.59 0.52 0.672 0.52 c 0.086 0 0.406 0.266 0.719 0.594 c 0.484 0.512 0.559 0.641 0.559 0.98 c 0 0.332 -0.066 0.457 -0.484 0.875 c -0.359 0.355 -0.543 0.469 -0.691 0.43 c -0.113 -0.027 -0.254 0.012 -0.316 0.086 c -0.063 0.078 -0.195 0.141 -0.289 0.141 c -0.098 0 -0.23 0.066 -0.297 0.152 c -0.07 0.082 -0.27 0.148 -0.445 0.148 c -0.18 0 -0.379 0.066 -0.445 0.152 c -0.094 0.109 -0.344 0.148 -0.992 0.148 c -0.648 0 -0.898 -0.039 -0.992 -0.148 c -0.176 -0.219 -3.582 -0.223 -3.758 -0.008 c -0.09 0.109 -0.352 0.145 -1.02 0.141 l -0.898 -0.004 m 3.309 -1.785 c 0.234 0 0.375 -0.039 0.34 -0.098 c -0.094 -0.152 -2.129 -0.113 -2.355 0.047 c -0.109 0.074 -0.145 0.156 -0.086 0.195 c 0.055 0.031 0.125 0.016 0.16 -0.039 c 0.035 -0.059 0.32 -0.105 0.641 -0.105 c 0.457 0 0.59 0.039 0.645 0.176 c 0.063 0.168 0.07 0.168 0.164 0 c 0.066 -0.121 0.219 -0.176 0.492 -0.176 m 0.371 -0.68 c 0.5 -0.016 0.621 -0.051 0.578 -0.164 c -0.035 -0.094 0.047 -0.176 0.246 -0.246 c 0.215 -0.078 0.285 -0.152 0.246 -0.262 c -0.035 -0.094 -0.012 -0.152 0.063 -0.141 c 0.297 0.039 0.469 -0.02 0.469 -0.16 c 0 -0.164 -0.164 -0.188 -1.219 -0.164 c -0.43 0.008 -0.777 -0.039 -0.961 -0.137 c -0.363 -0.188 -0.793 -0.195 -0.793 -0.012 c 0 0.078 -0.145 0.199 -0.32 0.27 c -0.18 0.074 -0.539 0.316 -0.805 0.539 l -0.484 0.406 l 0.531 0.051 c 0.535 0.051 1.281 0.055 2.453 0.02 m -3.43 -0.16 c 0.094 -0.074 0.172 -0.184 0.172 -0.246 c 0 -0.063 0.063 -0.113 0.137 -0.113 c 0.074 0 0.219 -0.113 0.32 -0.25 c 0.102 -0.141 0.242 -0.254 0.309 -0.254 c 0.18 0 0.156 -0.293 -0.027 -0.363 c -0.09 -0.035 -0.254 0.035 -0.395 0.168 c -0.133 0.129 -0.25 0.203 -0.258 0.164 c -0.004 -0.035 -0.016 -0.109 -0.023 -0.16 c -0.027 -0.195 -0.137 -0.199 -0.309 -0.008 c -0.098 0.109 -0.238 0.203 -0.313 0.203 c -0.211 0 -0.156 0.336 0.086 0.543 c 0.16 0.141 0.184 0.203 0.086 0.238 c -0.074 0.023 -0.176 -0.027 -0.227 -0.117 c -0.094 -0.172 -0.375 -0.23 -0.375 -0.078 c 0 0.105 0.398 0.402 0.543 0.406 c 0.055 0 0.176 -0.059 0.273 -0.133 m -0.07 -0.555 c -0.031 -0.051 -0.012 -0.121 0.043 -0.156 c 0.055 -0.035 0.102 0.008 0.102 0.094 c 0 0.176 -0.059 0.203 -0.145 0.063 m 5.395 0.48 c 0 -0.07 0.105 -0.09 0.289 -0.051 c 0.313 0.063 0.516 -0.172 0.242 -0.277 c -0.273 -0.105 -0.609 -0.059 -0.668 0.094 c -0.031 0.082 -0.145 0.148 -0.25 0.148 c -0.109 0 -0.223 0.047 -0.258 0.102 c -0.035 0.059 0.082 0.098 0.293 0.098 c 0.195 0 0.352 -0.051 0.352 -0.113 m 1.484 -0.789 c 0 -0.055 -0.086 -0.098 -0.195 -0.098 c -0.109 0 -0.199 0.043 -0.199 0.098 c 0 0.059 0.09 0.102 0.199 0.102 c 0.109 0 0.195 -0.043 0.195 -0.102 m -5.313 -0.449 c 0.043 -0.113 -0.016 -0.148 -0.234 -0.148 c -0.219 0 -0.277 0.035 -0.234 0.148 c 0.031 0.082 0.137 0.152 0.234 0.152 c 0.098 0 0.203 -0.07 0.234 -0.152 m 3.84 -0.277 c 0.059 -0.105 0.246 -0.141 0.68 -0.129 c 0.512 0.012 0.598 -0.012 0.598 -0.164 c 0 -0.102 0.031 -0.168 0.074 -0.156 c 0.09 0.031 0.121 -0.059 0.121 -0.324 c 0 -0.137 -0.066 -0.203 -0.203 -0.203 c -0.113 0 -0.184 -0.031 -0.156 -0.074 c 0.074 -0.121 -0.211 -0.453 -0.324 -0.379 c -0.066 0.039 -0.098 -0.023 -0.082 -0.164 c 0.023 -0.207 -0.012 -0.223 -0.371 -0.195 c -0.219 0.016 -0.406 0.043 -0.422 0.055 c -0.012 0.012 -0.035 0.188 -0.047 0.387 c -0.02 0.273 -0.09 0.391 -0.273 0.484 c -0.332 0.16 -1.668 0.113 -1.926 -0.07 c -0.332 -0.238 -0.621 -0.18 -0.684 0.133 c -0.129 0.668 -0.129 0.676 0.133 0.676 c 0.133 0 0.34 0.07 0.457 0.152 c 0.293 0.211 2.309 0.188 2.426 -0.027 m -3.398 -0.066 c 0.023 -0.074 -0.012 -0.113 -0.086 -0.09 c -0.074 0.027 -0.152 0.105 -0.176 0.176 c -0.023 0.078 0.016 0.113 0.09 0.09 c 0.07 -0.023 0.148 -0.105 0.172 -0.176 m 5.469 0.098 c 0 -0.117 -0.195 -0.242 -0.266 -0.172 c -0.07 0.074 0.055 0.27 0.172 0.27 c 0.051 0 0.094 -0.043 0.094 -0.098 m -4.305 -1.621 c 0.047 -0.074 0.289 -0.094 0.738 -0.051 c 0.559 0.055 0.68 0.039 0.73 -0.094 c 0.074 -0.195 -0.004 -0.344 -0.18 -0.344 c -0.074 0 -0.188 -0.066 -0.254 -0.148 c -0.07 -0.082 -0.246 -0.152 -0.398 -0.152 c -0.148 0 -0.328 -0.066 -0.395 -0.148 c -0.07 -0.082 -0.207 -0.152 -0.305 -0.152 c -0.098 0 -0.207 -0.043 -0.242 -0.098 c -0.031 -0.055 -0.184 -0.102 -0.332 -0.102 c -0.148 0 -0.324 -0.051 -0.387 -0.117 c -0.121 -0.121 -0.781 -0.379 -0.977 -0.383 c -0.07 0 -0.113 0.191 -0.113 0.504 v 0.504 l 0.539 0.258 c 0.406 0.191 0.625 0.242 0.879 0.191 c 0.293 -0.055 0.344 -0.035 0.344 0.125 c 0 0.305 0.215 0.434 0.352 0.207 m -3.621 -0.523 c 0 -0.023 -0.066 -0.094 -0.148 -0.164 c -0.121 -0.102 -0.148 -0.094 -0.148 0.039 c 0 0.09 0.066 0.16 0.148 0.16 c 0.082 0 0.148 -0.016 0.148 -0.035 m 1.102 -0.977 c -0.082 -0.406 -0.27 -0.363 -0.234 0.051 c 0.02 0.203 -0.031 0.383 -0.121 0.457 c -0.086 0.07 -0.152 0.176 -0.152 0.234 c 0 0.059 0.129 -0.016 0.281 -0.168 c 0.234 -0.223 0.273 -0.328 0.227 -0.574 m -1.457 0.187 c 0.035 -0.152 0.102 -0.277 0.148 -0.277 c 0.137 0 0.703 -0.566 0.703 -0.703 c 0 -0.086 -0.113 -0.105 -0.367 -0.063 c -0.395 0.063 -0.523 0.195 -0.523 0.539 c -0.004 0.125 -0.047 0.227 -0.102 0.227 c -0.113 0 -0.137 0.531 -0.027 0.641 c 0.039 0.043 0.082 0.039 0.09 -0.008 c 0.012 -0.043 0.047 -0.203 0.078 -0.355" fill="#293328"/><path d="m 6.148 14.398 c -0.367 -0.375 -0.664 -0.762 -0.664 -0.863 c 0 -0.195 -0.367 -0.555 -0.57 -0.559 c -0.133 -0.004 -0.176 -0.406 -0.043 -0.406 c 0.043 0 0.16 0.063 0.262 0.137 c 0.18 0.133 0.496 0.113 0.699 -0.043 c 0.09 -0.07 0.637 -0.059 0.891 0.02 c 0.145 0.043 0.543 -0.238 0.543 -0.387 c 0 -0.07 0.063 -0.125 0.137 -0.125 c 0.074 0 0.219 -0.113 0.32 -0.25 c 0.102 -0.141 0.246 -0.254 0.32 -0.254 c 0.086 0 0.121 -0.07 0.09 -0.184 c -0.039 -0.148 0 -0.172 0.188 -0.137 c 0.137 0.027 0.234 -0.004 0.234 -0.07 c 0 -0.063 0.109 -0.156 0.246 -0.207 c 0.266 -0.105 0.34 -0.301 0.109 -0.301 c -0.074 0 -0.164 0.07 -0.195 0.156 c -0.047 0.117 -0.137 0.141 -0.352 0.094 c -0.246 -0.055 -0.336 -0.008 -0.609 0.289 c -0.309 0.348 -0.535 0.402 -0.422 0.105 c 0.074 -0.191 -0.203 -0.191 -0.363 0.004 c -0.066 0.082 -0.203 0.152 -0.297 0.152 c -0.098 0 -0.203 0.098 -0.23 0.215 c -0.051 0.188 -0.082 0.199 -0.215 0.086 c -0.133 -0.109 -0.195 -0.094 -0.426 0.109 c -0.148 0.133 -0.305 0.297 -0.348 0.367 c -0.113 0.18 -0.27 0.152 -0.27 -0.047 c 0 -0.223 0.586 -0.828 0.742 -0.77 c 0.066 0.027 0.176 -0.023 0.246 -0.109 c 0.07 -0.082 0.207 -0.152 0.301 -0.152 c 0.098 0 0.234 -0.07 0.305 -0.156 c 0.07 -0.09 0.207 -0.137 0.301 -0.113 c 0.098 0.027 0.277 -0.027 0.402 -0.113 c 0.125 -0.09 0.348 -0.148 0.492 -0.133 c 0.156 0.016 0.301 -0.035 0.348 -0.121 c 0.047 -0.082 0.242 -0.164 0.43 -0.184 c 0.313 -0.027 0.352 -0.066 0.379 -0.359 c 0.031 -0.316 0.023 -0.324 -0.371 -0.324 c -0.293 0 -0.402 -0.043 -0.402 -0.148 c 0 -0.086 0.043 -0.152 0.098 -0.152 c 0.055 0 0.184 -0.082 0.281 -0.184 c 0.102 -0.102 0.391 -0.215 0.645 -0.25 c 0.41 -0.055 0.461 -0.043 0.461 0.129 c 0 0.254 0.172 0.352 0.355 0.199 c 0.102 -0.086 0.34 -0.102 0.777 -0.055 c 0.527 0.055 0.641 0.039 0.691 -0.098 c 0.074 -0.195 -0.004 -0.344 -0.184 -0.344 c -0.07 0 -0.184 -0.066 -0.254 -0.148 c -0.066 -0.082 -0.246 -0.152 -0.395 -0.152 c -0.148 0 -0.328 -0.066 -0.395 -0.148 c -0.07 -0.082 -0.207 -0.152 -0.305 -0.152 c -0.098 0 -0.207 -0.043 -0.242 -0.098 c -0.035 -0.055 -0.184 -0.102 -0.332 -0.102 c -0.148 0 -0.324 -0.051 -0.387 -0.117 c -0.121 -0.121 -0.781 -0.379 -0.977 -0.383 c -0.07 0 -0.113 0.195 -0.113 0.508 c 0 0.5 0.008 0.516 0.391 0.68 l 0.387 0.168 l -0.277 0.266 c -0.207 0.199 -0.395 0.273 -0.766 0.297 c -0.316 0.016 -0.5 -0.016 -0.527 -0.094 c -0.027 -0.078 -0.266 -0.121 -0.676 -0.121 c -0.605 0 -0.637 -0.012 -0.637 -0.242 c 0 -0.129 -0.066 -0.266 -0.148 -0.297 c -0.207 -0.078 -0.207 -1.09 0 -1.266 c 0.082 -0.066 0.148 -0.199 0.148 -0.289 c 0 -0.406 1.063 -0.582 1.527 -0.254 c 0.105 0.074 0.297 0.109 0.422 0.078 c 0.156 -0.039 0.25 -0.008 0.289 0.105 c 0.035 0.086 0.164 0.16 0.289 0.16 c 0.125 0 0.254 0.066 0.285 0.148 c 0.031 0.082 0.145 0.152 0.25 0.152 c 0.109 0 0.223 0.043 0.258 0.098 c 0.031 0.059 0.211 0.102 0.391 0.102 c 0.203 0 0.352 0.059 0.387 0.152 c 0.031 0.082 0.145 0.148 0.246 0.148 c 0.105 0 0.25 0.07 0.32 0.16 c 0.074 0.09 0.227 0.137 0.359 0.113 c 0.125 -0.023 0.277 0.016 0.34 0.09 c 0.059 0.078 0.195 0.137 0.301 0.137 c 0.102 0 0.215 0.07 0.246 0.152 c 0.043 0.113 0.227 0.148 0.766 0.148 h 0.715 l 0.457 0.477 c 0.301 0.309 0.473 0.582 0.492 0.777 c 0.027 0.262 0.074 0.305 0.379 0.332 c 0.27 0.027 0.461 0.156 0.871 0.59 c 0.289 0.305 0.555 0.523 0.59 0.488 c 0.035 -0.035 0.344 0.219 0.688 0.563 c 0.805 0.805 0.836 1.094 0.191 1.746 c -0.316 0.324 -0.512 0.438 -0.73 0.438 c -0.164 0 -0.352 0.07 -0.422 0.152 c -0.066 0.082 -0.207 0.148 -0.313 0.148 c -0.102 0 -0.215 0.07 -0.246 0.152 c -0.043 0.113 -0.141 0.137 -0.379 0.094 c -0.242 -0.047 -0.336 -0.023 -0.383 0.098 c -0.047 0.129 -0.23 0.156 -0.992 0.156 c -0.652 0 -0.965 -0.039 -1.039 -0.129 c -0.148 -0.18 -3.699 -0.164 -3.758 0.016 c -0.027 0.078 -0.359 0.113 -1 0.113 h -0.961 m 2.039 -0.602 c 0 -0.055 -0.043 -0.098 -0.098 -0.098 c -0.055 0 -0.102 0.043 -0.102 0.098 c 0 0.059 0.047 0.102 0.102 0.102 c 0.055 0 0.098 -0.043 0.098 -0.102 m 5.152 0 c 0 -0.055 -0.047 -0.098 -0.105 -0.098 c -0.059 0 -0.078 0.043 -0.043 0.098 c 0.031 0.059 0.078 0.102 0.102 0.102 c 0.027 0 0.047 -0.043 0.047 -0.102 m -2.355 -0.25 c -0.047 -0.262 -0.164 -0.324 -0.273 -0.145 c -0.094 0.152 0.023 0.395 0.184 0.395 c 0.094 0 0.121 -0.078 0.09 -0.25 m -4.977 0.051 c 0 -0.055 -0.047 -0.098 -0.105 -0.098 c -0.055 0 -0.074 0.043 -0.043 0.098 c 0.035 0.055 0.082 0.102 0.105 0.102 c 0.023 0 0.043 -0.047 0.043 -0.102 m 7.996 -0.199 c 0.027 -0.109 0.09 -0.199 0.141 -0.199 c 0.047 0 0.086 -0.047 0.086 -0.102 c 0 -0.152 -0.152 -0.121 -0.402 0.082 c -0.125 0.105 -0.191 0.234 -0.152 0.301 c 0.109 0.18 0.27 0.141 0.328 -0.082 m -5.805 -0.043 c 0.184 -0.074 0.453 -0.117 0.594 -0.09 c 0.145 0.027 0.395 -0.02 0.559 -0.105 c 0.164 -0.086 0.32 -0.129 0.352 -0.098 c 0.031 0.027 0.191 0.023 0.359 -0.012 c 0.238 -0.055 0.305 -0.121 0.305 -0.313 v -0.246 l -1.164 -0.004 c -0.641 -0.004 -1.254 -0.004 -1.363 -0.004 c -0.105 0 -0.32 0.031 -0.469 0.066 c -0.176 0.043 -0.273 0.027 -0.273 -0.043 c 0 -0.063 -0.066 -0.113 -0.148 -0.113 c -0.215 0 -0.18 0.176 0.051 0.25 c 0.109 0.035 0.199 0.152 0.199 0.258 c 0 0.109 0.059 0.195 0.137 0.195 c 0.074 0 0.16 0.09 0.188 0.199 c 0.063 0.238 0.223 0.25 0.676 0.059 m -0.605 -0.34 c 0 -0.141 0.234 -0.32 0.418 -0.32 c 0.152 0 0.164 0.035 0.078 0.203 c -0.102 0.191 -0.496 0.285 -0.496 0.117 m 0.855 -0.164 c -0.039 -0.109 0.004 -0.156 0.145 -0.156 c 0.113 0 0.188 0.055 0.164 0.121 c -0.059 0.184 -0.242 0.207 -0.309 0.035 m 0.953 0.074 c -0.172 -0.063 -0.156 -0.23 0.02 -0.23 c 0.164 0 0.293 0.168 0.18 0.23 c -0.043 0.023 -0.133 0.023 -0.199 0 m 5.996 0.188 c 0.027 -0.086 -0.02 -0.121 -0.133 -0.102 c -0.098 0.02 -0.195 0.098 -0.223 0.172 c -0.027 0.086 0.02 0.121 0.133 0.098 c 0.098 -0.02 0.199 -0.094 0.223 -0.168 m -0.473 -0.617 c 0 -0.055 -0.047 -0.102 -0.102 -0.102 c -0.055 0 -0.098 0.047 -0.098 0.102 c 0 0.055 0.043 0.102 0.098 0.102 c 0.055 0 0.102 -0.047 0.102 -0.102 m -1.129 -0.551 c -0.016 -0.055 -0.09 -0.109 -0.168 -0.125 c -0.172 -0.027 -0.523 0.438 -0.438 0.578 c 0.074 0.121 0.645 -0.305 0.605 -0.453 m 0.926 0.023 c 0.004 -0.148 -0.27 -0.07 -0.449 0.133 c -0.156 0.176 -0.164 0.219 -0.039 0.297 c 0.102 0.066 0.195 0.027 0.316 -0.129 c 0.094 -0.125 0.172 -0.258 0.172 -0.301 m 0.895 0.383 c 0 -0.16 -0.18 -0.309 -0.266 -0.219 c -0.082 0.082 0.043 0.363 0.164 0.363 c 0.055 0 0.102 -0.066 0.102 -0.145 m -5.215 -0.477 c -0.008 -0.105 0.102 -0.211 0.285 -0.273 c 0.203 -0.074 0.277 -0.152 0.238 -0.258 c -0.047 -0.121 -0.008 -0.141 0.191 -0.09 c 0.152 0.039 0.313 0.008 0.418 -0.078 c 0.172 -0.141 0.52 -0.316 0.836 -0.422 c 0.098 -0.031 0.176 -0.102 0.176 -0.16 c 0 -0.152 -0.371 -0.121 -0.641 0.055 c -0.348 0.23 -2.242 0.297 -2.633 0.094 c -0.359 -0.188 -0.789 -0.195 -0.789 -0.012 c 0 0.074 -0.145 0.199 -0.32 0.27 c -0.18 0.074 -0.539 0.316 -0.805 0.539 l -0.484 0.406 l 0.531 0.051 c 0.293 0.027 1.09 0.051 1.773 0.051 c 1.102 -0.004 1.234 -0.02 1.223 -0.172 m 2.441 0.109 c 0 -0.043 -0.078 -0.125 -0.172 -0.18 c -0.266 -0.148 -0.074 -0.262 0.895 -0.508 c 0.805 -0.211 0.883 -0.215 1.047 -0.066 c 0.098 0.09 0.301 0.164 0.449 0.164 c 0.152 0 0.387 0.09 0.527 0.199 c 0.418 0.336 0.559 0.234 0.211 -0.148 c -0.172 -0.195 -0.387 -0.352 -0.477 -0.352 c -0.09 0 -0.25 -0.066 -0.355 -0.148 c -0.227 -0.172 -0.852 -0.199 -1 -0.047 c -0.074 0.074 -0.246 0.07 -0.57 -0.012 c -0.398 -0.102 -0.488 -0.098 -0.641 0.043 c -0.098 0.09 -0.227 0.164 -0.285 0.164 c -0.164 0 -0.758 0.332 -0.848 0.477 c -0.043 0.066 -0.156 0.125 -0.246 0.129 c -0.195 0.004 -0.539 0.242 -0.461 0.32 c 0.082 0.082 1.926 0.051 1.926 -0.035 m -1.074 -1.723 c 0.059 -0.109 0.242 -0.141 0.727 -0.121 c 0.488 0.016 0.645 -0.012 0.645 -0.113 c 0 -0.074 0.043 -0.137 0.098 -0.137 c 0.055 0 0.102 -0.141 0.102 -0.309 c 0 -0.238 -0.105 -0.41 -0.441 -0.73 c -0.391 -0.375 -0.48 -0.414 -0.84 -0.379 c -0.344 0.031 -0.406 0.074 -0.418 0.277 c -0.008 0.133 -0.02 0.297 -0.027 0.363 c -0.004 0.07 -0.121 0.191 -0.254 0.27 c -0.328 0.191 -1.668 0.152 -1.898 -0.055 c -0.086 -0.082 -0.289 -0.156 -0.445 -0.168 c -0.25 -0.02 -0.285 0.016 -0.301 0.281 c -0.008 0.164 -0.031 0.391 -0.051 0.5 c -0.023 0.156 0.023 0.199 0.219 0.199 c 0.133 0 0.34 0.07 0.457 0.152 c 0.293 0.211 2.309 0.188 2.426 -0.031 m 2.238 0.109 c 0.066 -0.055 0.164 -0.066 0.223 -0.031 c 0.059 0.035 0.078 0.004 0.047 -0.082 c -0.082 -0.215 -0.758 -0.27 -0.906 -0.074 c -0.066 0.086 -0.121 0.184 -0.125 0.219 c -0.004 0.098 0.633 0.07 0.762 -0.031 m -6.59 -2 c -0.07 -0.07 -0.117 -0.078 -0.117 -0.016 c 0 0.059 0.027 0.133 0.066 0.172 c 0.035 0.035 0.09 0.043 0.117 0.016 c 0.027 -0.031 -0.004 -0.105 -0.066 -0.172 m -0.855 -0.242 c 0.133 -0.086 0.242 -0.215 0.242 -0.277 c 0 -0.066 0.055 -0.176 0.121 -0.242 c 0.066 -0.066 0.125 -0.285 0.133 -0.48 c 0.008 -0.195 0.074 -0.402 0.152 -0.457 c 0.109 -0.078 0.098 -0.09 -0.043 -0.043 c -0.102 0.035 -0.25 0.063 -0.336 0.063 c -0.125 0 -0.141 0.082 -0.094 0.449 c 0.043 0.316 0.027 0.449 -0.055 0.449 c -0.066 0 -0.215 0.125 -0.332 0.273 c -0.211 0.262 -0.219 0.266 -0.473 0.098 c -0.496 -0.328 -0.254 -0.867 0.617 -1.371 c 0.215 -0.125 0.031 -0.301 -0.316 -0.301 c -0.41 0.004 -0.496 0.07 -0.719 0.547 c -0.207 0.445 -0.199 0.879 0.027 1.223 c 0.184 0.281 0.703 0.316 1.074 0.07 m -1.539 3.563 c 0 -0.055 0.043 -0.078 0.098 -0.043 c 0.055 0.035 0.098 0.082 0.098 0.105 c 0 0.027 -0.043 0.047 -0.098 0.047 c -0.055 0 -0.098 -0.051 -0.098 -0.109 m 1.34 -0.387 c -0.031 -0.051 -0.012 -0.121 0.043 -0.156 c 0.055 -0.035 0.102 0.008 0.102 0.094 c 0 0.176 -0.059 0.203 -0.145 0.063" fill="#112c0f"/><path d="m 6.133 14.371 c -0.613 -0.637 -0.668 -0.73 -0.613 -1.012 c 0.051 -0.258 0.039 -0.293 -0.074 -0.199 c -0.102 0.086 -0.164 0.078 -0.258 -0.039 c -0.07 -0.082 -0.188 -0.148 -0.262 -0.148 c -0.074 0 -0.137 -0.07 -0.137 -0.152 c 0 -0.082 0.09 -0.148 0.199 -0.148 c 0.109 0 0.195 0.047 0.195 0.105 c 0 0.063 0.129 0.078 0.34 0.039 c 0.293 -0.055 0.344 -0.035 0.371 0.148 c 0.047 0.297 0.227 0.309 0.266 0.02 c 0.027 -0.211 0.07 -0.23 0.391 -0.18 c 0.195 0.035 0.406 0.016 0.469 -0.035 c 0.07 -0.059 0.234 -0.059 0.422 -0.004 c 0.172 0.047 1.082 0.07 2.023 0.051 c 0.941 -0.023 1.805 -0.039 1.91 -0.035 c 0.109 0.004 0.625 0.016 1.141 0.027 c 0.941 0.023 1.184 -0.051 0.973 -0.309 c -0.074 -0.094 -0.066 -0.141 0.031 -0.176 c 1.438 -0.492 1.684 -0.531 1.875 -0.297 c 0.086 0.102 0.234 0.145 0.418 0.117 c 0.172 -0.027 0.309 0.008 0.336 0.082 c 0.055 0.145 0.605 0.398 0.688 0.316 c 0.082 -0.086 -0.684 -0.77 -0.863 -0.77 c -0.086 -0.004 -0.23 -0.086 -0.32 -0.184 c -0.168 -0.191 -0.73 -0.227 -1.09 -0.07 c -0.102 0.043 -0.215 0.039 -0.25 -0.012 c -0.105 -0.148 -0.734 -0.145 -0.902 0.004 c -0.184 0.168 -0.863 0.457 -1.066 0.457 c -0.121 0 -0.125 -0.027 -0.027 -0.148 c 0.066 -0.082 0.156 -0.129 0.199 -0.102 c 0.043 0.027 0.133 -0.02 0.199 -0.102 c 0.066 -0.082 0.227 -0.148 0.359 -0.148 c 0.141 0 0.234 -0.059 0.234 -0.152 c 0 -0.102 -0.105 -0.148 -0.348 -0.148 c -0.191 0 -0.348 -0.047 -0.348 -0.102 c 0 -0.172 1.051 -0.121 1.195 0.059 c 0.098 0.117 0.23 0.145 0.484 0.102 c 0.195 -0.035 0.453 -0.063 0.574 -0.063 c 0.125 0 0.223 -0.039 0.223 -0.09 c 0 -0.176 -0.313 -0.406 -0.543 -0.406 c -0.301 0 -0.547 -0.25 -0.547 -0.551 c 0 -0.145 -0.16 -0.395 -0.41 -0.645 c -0.348 -0.344 -0.477 -0.41 -0.816 -0.406 c -0.426 0 -0.676 0.102 -0.648 0.258 c 0.035 0.184 -0.008 0.34 -0.094 0.34 c -0.047 0 -0.113 -0.168 -0.148 -0.375 c -0.055 -0.324 -0.125 -0.406 -0.531 -0.602 c -0.258 -0.125 -0.516 -0.227 -0.57 -0.227 c -0.055 0 -0.32 -0.113 -0.594 -0.246 c -0.273 -0.137 -0.559 -0.25 -0.633 -0.25 c -0.129 -0.004 -1.023 -0.387 -1.422 -0.609 c -0.094 -0.051 -0.301 -0.094 -0.461 -0.094 c -0.156 0 -0.309 -0.063 -0.34 -0.141 c -0.063 -0.164 -0.563 -0.254 -0.844 -0.148 c -0.242 0.09 -0.609 0.813 -0.609 1.195 c 0 0.148 0.066 0.324 0.148 0.395 c 0.082 0.07 0.148 0.184 0.148 0.258 c 0 0.184 0.324 0.266 0.742 0.188 c 0.242 -0.047 0.438 -0.176 0.609 -0.406 c 0.289 -0.383 0.383 -0.414 0.469 -0.164 c 0.035 0.098 0.086 0.227 0.117 0.293 c 0.035 0.078 -0.016 0.098 -0.148 0.063 c -0.117 -0.031 -0.203 -0.004 -0.203 0.063 c 0 0.172 -0.402 0.289 -1.102 0.32 c -0.559 0.023 -0.637 0 -0.668 -0.168 c -0.02 -0.109 -0.086 -0.227 -0.141 -0.262 c -0.152 -0.098 -0.152 -1.199 0.004 -1.258 c 0.066 -0.027 0.121 -0.129 0.121 -0.223 c 0 -0.098 0.082 -0.25 0.184 -0.34 c 0.242 -0.223 1.129 -0.23 1.313 -0.008 c 0.086 0.105 0.219 0.141 0.406 0.102 c 0.207 -0.039 0.301 -0.008 0.375 0.141 c 0.063 0.113 0.164 0.168 0.25 0.137 c 0.082 -0.031 0.172 0.012 0.207 0.102 c 0.035 0.09 0.164 0.16 0.289 0.16 c 0.125 0 0.254 0.074 0.285 0.164 c 0.047 0.113 0.148 0.148 0.359 0.117 c 0.176 -0.027 0.344 0.008 0.41 0.09 c 0.059 0.07 0.191 0.133 0.297 0.133 c 0.105 0 0.215 0.066 0.246 0.148 c 0.035 0.094 0.184 0.152 0.383 0.152 c 0.176 0 0.375 0.063 0.441 0.145 c 0.063 0.078 0.18 0.117 0.258 0.09 c 0.078 -0.031 0.168 0.016 0.203 0.105 c 0.047 0.125 0.211 0.16 0.77 0.16 h 0.711 l 0.473 0.48 c 0.258 0.266 0.438 0.512 0.402 0.547 c -0.035 0.035 -0.035 0.18 0 0.32 c 0.051 0.207 0.125 0.254 0.387 0.254 c 0.262 0 0.43 0.109 0.863 0.551 c 0.297 0.305 0.609 0.551 0.699 0.551 c 0.09 0 0.414 0.273 0.723 0.605 c 0.727 0.781 0.742 1.039 0.109 1.66 c -0.352 0.344 -0.523 0.441 -0.781 0.441 c -0.203 0 -0.355 0.059 -0.391 0.152 c -0.031 0.082 -0.141 0.148 -0.246 0.148 c -0.105 0 -0.238 0.059 -0.297 0.133 c -0.066 0.078 -0.23 0.117 -0.41 0.09 c -0.211 -0.031 -0.313 0.004 -0.355 0.117 c -0.09 0.23 -1.902 0.238 -1.988 0.012 c -0.047 -0.125 -0.352 -0.152 -1.883 -0.152 c -1.527 0 -1.832 0.027 -1.879 0.152 c -0.047 0.117 -0.258 0.148 -1.02 0.148 h -0.965 m 0.512 -0.301 c 0.031 -0.055 0.012 -0.098 -0.043 -0.098 c -0.059 0 -0.105 0.043 -0.105 0.098 c 0 0.055 0.02 0.102 0.043 0.102 c 0.023 0 0.07 -0.047 0.105 -0.102 m 6.191 0 c 0 -0.055 -0.094 -0.098 -0.207 -0.098 c -0.109 0 -0.176 0.043 -0.141 0.098 c 0.035 0.055 0.125 0.102 0.203 0.102 c 0.078 0 0.145 -0.047 0.145 -0.102 m 0.594 -0.203 c 0 -0.195 -0.25 -0.379 -0.359 -0.266 c -0.074 0.074 0.148 0.469 0.262 0.469 c 0.055 0 0.098 -0.09 0.098 -0.203 m -3.777 -0.008 l 1.48 -0.02 l -0.055 -0.336 c -0.031 -0.215 -0.012 -0.332 0.059 -0.332 c 0.063 0 0.113 -0.07 0.113 -0.152 c 0 -0.082 -0.043 -0.148 -0.098 -0.148 c -0.055 0 -0.102 0.066 -0.102 0.148 c 0 0.082 -0.039 0.152 -0.09 0.152 c -0.051 0 -0.152 0.023 -0.227 0.051 c -0.098 0.039 -0.145 -0.051 -0.164 -0.324 c -0.012 -0.211 -0.055 -0.41 -0.094 -0.449 c -0.094 -0.094 -2.797 -0.121 -3.02 -0.031 c -0.098 0.039 -0.238 0.02 -0.32 -0.047 c -0.078 -0.066 -0.188 -0.09 -0.246 -0.055 c -0.152 0.094 -0.125 0.324 0.047 0.391 c 0.082 0.031 0.148 0.125 0.148 0.207 c 0 0.176 0.488 0.656 0.668 0.656 c 0.066 0 0.125 0.094 0.125 0.211 c 0 0.145 0.047 0.195 0.145 0.156 c 0.078 -0.031 0.813 -0.066 1.625 -0.078 m -3.652 -0.273 c 0 -0.129 -0.117 -0.215 -0.215 -0.156 c -0.102 0.063 -0.012 0.242 0.121 0.242 c 0.051 0 0.094 -0.039 0.094 -0.086 m 0.445 -0.016 c 0.035 -0.055 0.016 -0.102 -0.043 -0.102 c -0.059 0 -0.105 0.047 -0.105 0.102 c 0 0.055 0.02 0.102 0.043 0.102 c 0.023 0 0.07 -0.047 0.105 -0.102 m 5.301 0 c 0 -0.055 -0.066 -0.102 -0.148 -0.102 c -0.082 0 -0.148 0.047 -0.148 0.102 c 0 0.055 0.066 0.102 0.148 0.102 c 0.082 0 0.148 -0.047 0.148 -0.102 m 2.277 -0.145 c 0 -0.074 0.066 -0.16 0.148 -0.191 c 0.18 -0.07 0.199 -0.363 0.023 -0.363 c -0.387 0 -0.762 0.613 -0.445 0.727 c 0.164 0.063 0.273 -0.008 0.273 -0.172 m -1.684 0.043 c 0 -0.055 -0.043 -0.098 -0.098 -0.098 c -0.055 0 -0.102 0.043 -0.102 0.098 c 0 0.059 0.047 0.102 0.102 0.102 c 0.055 0 0.098 -0.043 0.098 -0.102 m 3.02 -0.297 c 0.16 -0.176 0.16 -0.203 0.02 -0.258 c -0.211 -0.086 -0.363 0.027 -0.363 0.262 c 0 0.25 0.117 0.246 0.344 -0.004 m -8.621 -0.094 c 0.031 -0.055 0.012 -0.125 -0.043 -0.156 c -0.055 -0.035 -0.102 0.004 -0.102 0.09 c 0 0.18 0.059 0.203 0.145 0.066 m 5.156 -0.008 c 0.031 -0.055 -0.012 -0.102 -0.102 -0.102 c -0.086 0 -0.129 0.047 -0.098 0.102 c 0.035 0.055 0.078 0.098 0.098 0.098 c 0.023 0 0.066 -0.043 0.102 -0.098 m 4.309 -0.258 c 0 -0.086 -0.043 -0.129 -0.098 -0.094 c -0.055 0.035 -0.102 0.105 -0.102 0.156 c 0 0.051 0.047 0.094 0.102 0.094 c 0.055 0 0.098 -0.07 0.098 -0.156 m -3.43 -0.195 c 0.031 -0.082 0.012 -0.148 -0.039 -0.148 c -0.055 0 -0.098 0.066 -0.098 0.148 c 0 0.086 0.02 0.152 0.039 0.152 c 0.02 0 0.066 -0.066 0.098 -0.152 m 2.141 -0.207 c 0 -0.117 -0.055 -0.137 -0.223 -0.086 c -0.223 0.07 -0.223 0.07 -0.031 -0.145 c 0.277 -0.316 0.066 -0.504 -0.281 -0.25 c -0.309 0.227 -0.293 0.457 0.043 0.551 c 0.398 0.109 0.492 0.098 0.492 -0.07 m 0.793 0.066 c 0 -0.203 -0.125 -0.41 -0.25 -0.41 c -0.227 0 -0.285 0.227 -0.094 0.367 c 0.215 0.156 0.344 0.172 0.344 0.043 m -2.121 -0.234 c 0.129 -0.125 0.238 -0.277 0.238 -0.34 c 0.004 -0.152 -0.332 -0.277 -0.379 -0.141 c -0.02 0.063 -0.098 0.172 -0.172 0.25 c -0.168 0.168 -0.188 0.457 -0.031 0.457 c 0.059 0 0.215 -0.102 0.344 -0.227 m -2.93 -0.477 c 0 -0.055 0.066 -0.098 0.148 -0.098 c 0.082 0 0.148 0.016 0.148 0.039 c 0 0.02 -0.066 0.066 -0.148 0.098 c -0.082 0.031 -0.148 0.012 -0.148 -0.039 m -6.141 -0.148 c 0 -0.242 0.508 -0.75 0.746 -0.75 c 0.121 0 0.246 -0.07 0.277 -0.152 c 0.031 -0.082 0.145 -0.148 0.246 -0.148 c 0.105 0 0.238 -0.063 0.301 -0.137 c 0.063 -0.078 0.23 -0.113 0.406 -0.086 c 0.211 0.031 0.316 -0.004 0.359 -0.117 c 0.039 -0.105 0.18 -0.164 0.398 -0.164 c 0.211 0 0.363 -0.055 0.398 -0.148 c 0.035 -0.098 0.191 -0.152 0.441 -0.152 c 0.375 0 0.387 -0.008 0.387 -0.348 c 0 -0.344 -0.008 -0.352 -0.406 -0.352 c -0.488 0 -0.492 -0.234 -0.008 -0.281 c 0.172 -0.02 0.313 -0.082 0.313 -0.137 c 0 -0.066 0.066 -0.055 0.16 0.023 c 0.086 0.074 0.332 0.145 0.543 0.156 c 0.211 0.008 0.453 0.09 0.543 0.18 c 0.184 0.188 0.285 0.195 0.551 0.051 c 0.211 -0.113 0.98 -0.031 0.98 0.102 c 0 0.043 -0.34 0.109 -0.758 0.148 c -0.609 0.055 -0.785 0.039 -0.922 -0.086 c -0.094 -0.086 -0.313 -0.156 -0.484 -0.156 c -0.27 0 -0.313 0.035 -0.313 0.258 c 0 0.328 -0.168 0.645 -0.34 0.645 c -0.074 0 -0.262 0.066 -0.418 0.148 c -0.156 0.082 -0.375 0.148 -0.488 0.148 c -0.113 0.004 -0.289 0.07 -0.395 0.148 c -0.105 0.082 -0.34 0.148 -0.516 0.152 c -0.176 0 -0.32 0.043 -0.32 0.09 c 0 0.051 -0.113 0.121 -0.25 0.152 c -0.137 0.035 -0.246 0.109 -0.246 0.164 c 0 0.055 -0.109 0.098 -0.238 0.098 c -0.148 0 -0.352 0.133 -0.543 0.352 c -0.336 0.387 -0.41 0.422 -0.41 0.199 m 2.281 0.051 c 0 -0.055 0.043 -0.102 0.098 -0.102 c 0.055 0 0.102 0.047 0.102 0.102 c 0 0.055 -0.047 0.098 -0.102 0.098 c -0.055 0 -0.098 -0.043 -0.098 -0.098 m 4.258 -0.191 c 0 -0.117 0.289 -0.227 0.406 -0.152 c 0.051 0.031 0.066 0.098 0.035 0.148 c -0.07 0.121 -0.441 0.125 -0.441 0.004 m -3.813 -0.211 c 0.098 -0.109 0.223 -0.199 0.277 -0.199 c 0.055 0 0.02 0.09 -0.078 0.199 c -0.102 0.109 -0.227 0.199 -0.281 0.199 c -0.055 0 -0.016 -0.09 0.082 -0.199 m 0.445 -0.398 c 0 -0.059 0.066 -0.102 0.148 -0.102 c 0.082 0 0.148 0.043 0.148 0.102 c 0 0.055 -0.066 0.098 -0.148 0.098 c -0.082 0 -0.148 -0.043 -0.148 -0.098 m 0.398 -0.203 c 0 -0.055 0.047 -0.098 0.102 -0.098 c 0.059 0 0.078 0.043 0.047 0.098 c -0.035 0.055 -0.082 0.102 -0.105 0.102 c -0.023 0 -0.043 -0.047 -0.043 -0.102 m 1.383 0 c -0.105 -0.07 -0.023 -0.098 0.293 -0.098 c 0.469 0 0.5 0.035 0.105 0.129 c -0.137 0.035 -0.316 0.02 -0.398 -0.031 m 1.191 0 c -0.48 -0.074 -0.352 -0.117 0.469 -0.148 c 0.535 -0.023 0.695 0.078 0.297 0.188 c -0.121 0.031 -0.242 0.055 -0.27 0.047 c -0.027 -0.008 -0.25 -0.047 -0.496 -0.086 m -2.129 -0.301 c -0.035 -0.059 0.063 -0.098 0.242 -0.098 c 0.164 0 0.301 0.043 0.301 0.098 c 0 0.055 -0.109 0.102 -0.242 0.102 c -0.133 0 -0.27 -0.047 -0.301 -0.102 m 4.703 -0.301 c 0 -0.055 0.047 -0.098 0.105 -0.098 c 0.059 0 0.078 0.043 0.043 0.098 c -0.031 0.055 -0.078 0.102 -0.105 0.102 c -0.023 0 -0.043 -0.047 -0.043 -0.102 m -6.637 -1.391 c 0 -0.117 0.516 -0.215 0.777 -0.145 c 0.152 0.043 0.215 0.012 0.215 -0.105 c 0 -0.09 0.066 -0.16 0.148 -0.16 c 0.199 0 0.188 0.195 -0.027 0.359 c -0.191 0.148 -1.113 0.191 -1.113 0.051 m -0.781 -0.902 c -0.191 -0.148 -0.211 -0.199 -0.098 -0.273 c 0.074 -0.047 0.207 -0.223 0.289 -0.387 c 0.211 -0.418 0.508 -0.402 0.543 0.023 c 0.012 0.176 -0.008 0.305 -0.051 0.277 c -0.078 -0.051 -0.348 0.223 -0.41 0.418 c -0.023 0.086 -0.109 0.066 -0.273 -0.059 m 1.332 -0.535 c -0.043 -0.098 -0.043 -0.254 0 -0.352 c 0.07 -0.168 0.078 -0.168 0.117 0 c 0.023 0.098 0.023 0.254 0 0.352 c -0.039 0.168 -0.047 0.168 -0.117 0" fill="#040a04"/></svg>