<svg xmlns="http://www.w3.org/2000/svg" viewBox="0 0 22 22"><path d="m 3.547 19.11 c 19.04 12.477 26.41 -21.602 6.82 -18.887 c -7.988 1.109 -14.11 14.11 -6.82 18.887" fill="#1097ec"/><g fill="#fff" fill-rule="evenodd"><path d="m 10.281 15.98 c 0.043 -0.16 0.02 -0.25 -0.074 -0.285 c -0.07 -0.027 -0.16 -0.195 -0.191 -0.371 c -0.031 -0.176 -0.102 -0.32 -0.148 -0.32 c -0.051 0 -0.09 -0.082 -0.09 -0.18 c 0 -0.098 -0.063 -0.242 -0.141 -0.32 c -0.074 -0.074 -0.141 -0.227 -0.141 -0.332 c 0 -0.109 -0.078 -0.266 -0.18 -0.348 c -0.164 -0.145 -0.168 -0.18 -0.043 -0.422 c 0.121 -0.23 0.188 -0.262 0.57 -0.262 c 0.34 0 0.414 -0.027 0.324 -0.113 c -0.148 -0.148 -0.137 -0.453 0.031 -0.676 c 0.074 -0.098 0.137 -0.32 0.137 -0.492 c 0 -0.219 0.074 -0.383 0.242 -0.535 c 0.207 -0.191 0.223 -0.25 0.129 -0.43 c -0.063 -0.113 -0.09 -0.34 -0.063 -0.508 c 0.039 -0.23 0.004 -0.348 -0.129 -0.469 c -0.152 -0.141 -0.18 -0.293 -0.18 -1.086 c 0 -0.887 -0.086 -1.285 -0.281 -1.285 c -0.121 0 -0.113 0.34 0.012 0.574 c 0.055 0.102 0.07 0.215 0.031 0.25 c -0.035 0.031 -0.086 0.008 -0.109 -0.055 c -0.059 -0.168 -0.184 -0.145 -0.406 0.078 c -0.121 0.121 -0.176 0.266 -0.145 0.383 c 0.035 0.133 -0.004 0.203 -0.125 0.234 c -0.098 0.023 -0.191 0.133 -0.207 0.238 c -0.035 0.262 -0.262 0.324 -0.262 0.074 c 0 -0.105 -0.059 -0.191 -0.133 -0.191 c -0.082 0 -0.145 -0.117 -0.164 -0.305 c -0.023 -0.27 -0.055 -0.301 -0.285 -0.277 c -0.227 0.023 -0.254 -0.004 -0.254 -0.234 c 0 -0.148 -0.051 -0.316 -0.113 -0.379 c -0.086 -0.086 -0.086 -0.113 0 -0.113 c 0.164 0 0.137 -0.434 -0.027 -0.496 c -0.082 -0.031 -0.141 -0.172 -0.141 -0.34 c 0 -0.25 0.031 -0.281 0.281 -0.281 c 0.246 0 0.277 -0.031 0.277 -0.277 c 0 -0.25 0.031 -0.281 0.273 -0.281 c 0.23 0 0.277 0.043 0.305 0.258 c 0.023 0.203 0.082 0.262 0.293 0.285 c 0.293 0.035 0.621 0.273 0.621 0.457 c 0 0.09 0.363 0.117 1.59 0.117 h 1.594 l 0.234 -0.277 c 0.16 -0.195 0.32 -0.281 0.504 -0.281 c 0.242 0 0.273 -0.031 0.273 -0.277 c 0 -0.25 0.031 -0.281 0.273 -0.281 c 0.23 0 0.277 0.043 0.305 0.258 c 0.023 0.207 0.078 0.262 0.313 0.281 c 0.285 0.027 0.285 0.031 0.27 0.586 c -0.012 0.469 -0.059 0.613 -0.285 0.883 c -0.148 0.18 -0.258 0.41 -0.238 0.512 c 0.016 0.102 -0.035 0.211 -0.117 0.242 c -0.082 0.031 -0.148 0.156 -0.148 0.277 c 0 0.332 0.434 0.301 0.785 -0.059 c 0.152 -0.152 0.367 -0.277 0.484 -0.277 c 0.129 0 0.234 -0.07 0.27 -0.188 c 0.043 -0.129 0.141 -0.184 0.332 -0.184 c 0.184 0 0.273 -0.051 0.273 -0.141 c 0 -0.078 0.086 -0.141 0.188 -0.141 c 0.105 0 0.188 0.063 0.188 0.141 c 0 0.09 0.09 0.141 0.273 0.141 c 0.191 0 0.289 0.055 0.332 0.184 c 0.031 0.105 0.098 0.188 0.145 0.188 c 0.047 0 0.09 0.211 0.09 0.465 c 0 0.355 -0.035 0.469 -0.141 0.469 c -0.098 0 -0.141 0.098 -0.141 0.316 c 0 0.176 -0.031 0.332 -0.07 0.352 c -0.188 0.082 -0.984 1.141 -0.992 1.316 c -0.004 0.121 -0.109 0.25 -0.262 0.324 c -0.137 0.066 -0.332 0.223 -0.434 0.352 c -0.098 0.125 -0.262 0.227 -0.363 0.227 c -0.109 0 -0.281 0.141 -0.406 0.328 c -0.133 0.195 -0.301 0.324 -0.418 0.324 c -0.242 0.004 -0.598 0.371 -0.598 0.625 c 0 0.105 -0.063 0.246 -0.141 0.309 c -0.074 0.066 -0.141 0.191 -0.141 0.281 c 0 0.09 -0.063 0.215 -0.137 0.277 c -0.078 0.066 -0.141 0.211 -0.141 0.328 c 0 0.113 -0.063 0.262 -0.141 0.324 c -0.078 0.066 -0.141 0.18 -0.141 0.254 c 0 0.074 -0.094 0.215 -0.207 0.313 c -0.184 0.152 -0.379 0.176 -1.41 0.18 h -1.199 m 0.457 -1.137 c -0.027 -0.074 -0.051 -0.051 -0.055 0.059 c -0.004 0.098 0.016 0.152 0.047 0.121 c 0.031 -0.031 0.035 -0.109 0.008 -0.18 m 1.262 -0.371 c -0.09 -0.09 -0.113 -0.063 -0.113 0.109 c 0 0.176 0.023 0.199 0.113 0.113 c 0.086 -0.086 0.086 -0.137 0 -0.223 m -1.234 -0.844 c 0 -0.172 -0.016 -0.184 -0.09 -0.07 c -0.117 0.18 -0.117 0.277 0 0.277 c 0.051 0 0.094 -0.094 0.09 -0.207 m -0.23 -0.539 c -0.031 -0.051 -0.098 -0.09 -0.145 -0.09 c -0.051 0 -0.09 0.039 -0.09 0.09 c 0 0.055 0.066 0.094 0.148 0.094 c 0.078 0 0.117 -0.039 0.086 -0.094 m 2.891 -0.277 c -0.031 -0.051 -0.16 -0.094 -0.285 -0.094 c -0.125 0 -0.227 0.043 -0.227 0.094 c 0 0.051 0.125 0.094 0.285 0.094 c 0.164 0 0.258 -0.039 0.227 -0.094 m -0.824 -0.391 c -0.027 -0.074 -0.051 -0.051 -0.055 0.055 c -0.004 0.102 0.02 0.156 0.051 0.125 c 0.027 -0.031 0.031 -0.113 0.004 -0.18 m 1.238 -0.145 c -0.004 -0.039 -0.043 -0.156 -0.09 -0.258 c -0.07 -0.164 -0.078 -0.156 -0.086 0.07 c -0.004 0.141 0.035 0.258 0.086 0.258 c 0.051 0 0.09 -0.031 0.09 -0.07 m 0.145 -0.582 c 0.031 -0.051 0.059 -0.629 0.063 -1.281 c 0.008 -1.055 -0.012 -1.195 -0.156 -1.223 c -0.121 -0.023 -0.145 -0.094 -0.109 -0.289 c 0.035 -0.172 0 -0.297 -0.105 -0.395 c -0.41 -0.363 -0.762 -0.836 -0.762 -1.023 c 0 -0.148 -0.031 -0.18 -0.102 -0.109 c -0.109 0.109 0.094 0.703 0.281 0.82 c 0.07 0.043 0.102 0.289 0.09 0.676 c -0.02 0.48 0.012 0.637 0.133 0.727 c 0.121 0.086 0.156 0.266 0.156 0.828 c 0 0.551 0.031 0.727 0.141 0.77 c 0.078 0.027 0.137 0.168 0.137 0.32 c 0 0.266 0.121 0.359 0.234 0.18 m -0.324 -4.848 c 0 -0.051 -0.02 -0.094 -0.043 -0.094 c -0.023 0 -0.066 0.043 -0.098 0.094 c -0.031 0.051 -0.016 0.094 0.039 0.094 c 0.055 0 0.102 -0.043 0.102 -0.094"/><path d="m 10.242 15.938 c 0 -0.156 -0.039 -0.281 -0.09 -0.281 c -0.055 0 -0.094 -0.074 -0.094 -0.164 c 0 -0.094 -0.059 -0.25 -0.129 -0.352 c -0.066 -0.102 -0.152 -0.297 -0.188 -0.441 c -0.035 -0.141 -0.102 -0.254 -0.152 -0.254 c -0.051 0 -0.094 -0.098 -0.094 -0.219 c 0 -0.121 -0.082 -0.293 -0.18 -0.383 c -0.168 -0.156 -0.172 -0.188 -0.047 -0.438 c 0.125 -0.234 0.191 -0.266 0.574 -0.266 c 0.34 0 0.414 -0.027 0.324 -0.113 c -0.137 -0.137 -0.145 -0.508 -0.016 -0.59 c 0.055 -0.031 0.07 -0.145 0.039 -0.25 c -0.039 -0.125 -0.027 -0.168 0.043 -0.125 c 0.066 0.039 0.102 -0.043 0.105 -0.246 c 0 -0.207 0.078 -0.383 0.23 -0.527 c 0.18 -0.172 0.211 -0.254 0.137 -0.391 c -0.051 -0.094 -0.09 -0.336 -0.09 -0.539 c 0 -0.211 -0.059 -0.414 -0.141 -0.484 c -0.105 -0.086 -0.141 -0.332 -0.141 -1.063 c 0 -0.676 -0.039 -1 -0.133 -1.133 c -0.191 -0.266 -0.285 -0.094 -0.164 0.305 c 0.094 0.313 0.051 0.609 -0.051 0.332 c -0.059 -0.168 -0.184 -0.145 -0.406 0.078 c -0.117 0.117 -0.176 0.266 -0.148 0.379 c 0.031 0.109 -0.004 0.203 -0.09 0.234 c -0.078 0.031 -0.176 0.156 -0.223 0.277 c -0.094 0.246 -0.277 0.297 -0.277 0.074 c 0 -0.078 -0.063 -0.164 -0.137 -0.195 c -0.082 -0.031 -0.141 -0.168 -0.141 -0.324 c 0 -0.234 -0.035 -0.27 -0.281 -0.27 c -0.242 0 -0.277 -0.031 -0.277 -0.258 c 0 -0.145 -0.051 -0.313 -0.113 -0.375 c -0.086 -0.086 -0.086 -0.113 0 -0.113 c 0.164 0 0.137 -0.434 -0.027 -0.5 c -0.082 -0.027 -0.141 -0.168 -0.141 -0.328 c 0 -0.23 0.043 -0.281 0.258 -0.305 c 0.199 -0.023 0.262 -0.086 0.285 -0.289 c 0.023 -0.211 0.074 -0.254 0.301 -0.254 c 0.203 0 0.273 0.043 0.273 0.168 c 0 0.227 0.184 0.391 0.438 0.391 c 0.125 0 0.293 0.113 0.418 0.281 l 0.207 0.277 h 3.055 l 0.227 -0.273 c 0.129 -0.152 0.344 -0.285 0.484 -0.301 c 0.199 -0.023 0.262 -0.086 0.285 -0.289 c 0.023 -0.211 0.07 -0.254 0.301 -0.254 c 0.203 0 0.273 0.043 0.273 0.168 c 0 0.227 0.18 0.391 0.43 0.391 c 0.188 0 0.199 0.043 0.188 0.543 c -0.012 0.438 -0.063 0.613 -0.27 0.883 c -0.141 0.184 -0.254 0.406 -0.254 0.496 c 0 0.09 -0.066 0.234 -0.152 0.328 c -0.18 0.199 -0.109 0.457 0.125 0.449 c 0.094 0 0.313 -0.129 0.488 -0.277 c 0.18 -0.152 0.398 -0.277 0.488 -0.277 c 0.09 0 0.207 -0.086 0.262 -0.188 c 0.059 -0.109 0.195 -0.184 0.332 -0.184 c 0.129 0 0.258 -0.066 0.289 -0.141 c 0.066 -0.184 0.371 -0.184 0.438 0 c 0.031 0.074 0.156 0.141 0.281 0.141 c 0.137 0 0.285 0.09 0.375 0.227 c 0.195 0.301 0.203 1.035 0.012 1.109 c -0.078 0.031 -0.141 0.16 -0.141 0.293 c 0 0.145 -0.172 0.445 -0.434 0.766 c -0.238 0.293 -0.488 0.672 -0.563 0.844 c -0.07 0.168 -0.227 0.348 -0.348 0.391 c -0.117 0.047 -0.301 0.191 -0.406 0.324 c -0.102 0.133 -0.27 0.238 -0.371 0.238 c -0.109 0 -0.281 0.141 -0.406 0.328 c -0.133 0.195 -0.301 0.324 -0.418 0.324 c -0.242 0.004 -0.598 0.371 -0.598 0.625 c 0 0.105 -0.063 0.246 -0.141 0.309 c -0.074 0.063 -0.141 0.191 -0.141 0.281 c 0 0.09 -0.063 0.215 -0.137 0.277 c -0.078 0.066 -0.141 0.211 -0.141 0.328 c 0 0.113 -0.063 0.262 -0.141 0.324 c -0.078 0.066 -0.141 0.195 -0.141 0.289 c 0 0.359 -0.34 0.457 -1.605 0.457 h -1.191 m 0.438 -1.137 c -0.027 -0.074 -0.051 -0.051 -0.055 0.059 c -0.004 0.098 0.016 0.152 0.047 0.121 c 0.031 -0.031 0.035 -0.109 0.008 -0.18 m 1.336 -0.254 c 0 -0.051 -0.043 -0.113 -0.094 -0.145 c -0.051 -0.035 -0.094 0.008 -0.094 0.086 c 0 0.078 0.043 0.145 0.094 0.145 c 0.051 0 0.094 -0.039 0.094 -0.086 m -1.309 -0.961 c 0 -0.172 -0.016 -0.184 -0.09 -0.07 c -0.117 0.18 -0.117 0.277 0 0.277 c 0.051 0 0.094 -0.094 0.09 -0.207 m -0.23 -0.539 c -0.031 -0.051 -0.098 -0.09 -0.145 -0.09 c -0.047 0 -0.09 0.039 -0.09 0.09 c 0 0.055 0.066 0.094 0.148 0.094 c 0.078 0 0.117 -0.039 0.086 -0.094 m 2.891 -0.277 c -0.031 -0.051 -0.16 -0.094 -0.285 -0.094 c -0.125 0 -0.227 0.043 -0.227 0.094 c 0 0.051 0.125 0.094 0.285 0.094 c 0.164 0 0.258 -0.039 0.227 -0.094 m -0.824 -0.391 c -0.027 -0.074 -0.051 -0.051 -0.055 0.055 c -0.004 0.102 0.02 0.156 0.051 0.125 c 0.031 -0.031 0.031 -0.113 0.004 -0.18 m 1.117 -0.379 c -0.023 -0.063 -0.047 -0.012 -0.047 0.117 c 0 0.129 0.023 0.18 0.047 0.117 c 0.027 -0.066 0.027 -0.172 0 -0.234 m 0.293 -1.594 c 0.023 -1.129 0.008 -1.273 -0.129 -1.273 c -0.113 0 -0.141 -0.059 -0.109 -0.234 c 0.047 -0.23 0.008 -0.297 -0.582 -0.941 c -0.145 -0.16 -0.281 -0.391 -0.305 -0.512 c -0.035 -0.184 -0.043 -0.172 -0.055 0.066 c -0.008 0.168 0.066 0.395 0.172 0.527 c 0.145 0.184 0.188 0.379 0.188 0.855 c 0 0.465 0.035 0.633 0.141 0.672 c 0.109 0.039 0.141 0.219 0.141 0.777 c 0 0.563 0.031 0.738 0.141 0.781 c 0.082 0.031 0.137 0.172 0.137 0.344 c 0 0.191 0.043 0.277 0.117 0.25 c 0.086 -0.027 0.125 -0.395 0.145 -1.313"/><path d="m 10.242 15.938 c 0 -0.156 -0.039 -0.281 -0.09 -0.281 c -0.055 0 -0.094 -0.074 -0.094 -0.168 c 0 -0.094 -0.063 -0.25 -0.137 -0.352 c -0.078 -0.098 -0.141 -0.246 -0.141 -0.332 c -0.004 -0.082 -0.066 -0.203 -0.145 -0.266 c -0.074 -0.066 -0.141 -0.211 -0.141 -0.324 c 0 -0.113 -0.082 -0.281 -0.18 -0.371 c -0.172 -0.156 -0.172 -0.188 -0.047 -0.438 c 0.117 -0.227 0.195 -0.266 0.508 -0.266 c 0.359 0 0.367 -0.008 0.313 -0.281 c -0.031 -0.156 -0.008 -0.336 0.051 -0.406 c 0.059 -0.07 0.082 -0.195 0.047 -0.281 c -0.031 -0.082 -0.012 -0.152 0.047 -0.152 c 0.055 0 0.102 -0.117 0.102 -0.266 c 0 -0.145 0.086 -0.34 0.188 -0.43 c 0.156 -0.145 0.176 -0.246 0.129 -0.691 c -0.031 -0.289 -0.113 -0.609 -0.176 -0.715 c -0.074 -0.117 -0.137 -0.594 -0.152 -1.184 c -0.023 -0.621 -0.078 -1.035 -0.148 -1.105 c -0.188 -0.188 -0.25 -0.016 -0.137 0.355 c 0.109 0.363 0.066 0.539 -0.074 0.309 c -0.07 -0.113 -0.125 -0.098 -0.328 0.094 c -0.148 0.141 -0.227 0.293 -0.199 0.398 c 0.027 0.098 -0.012 0.195 -0.094 0.227 c -0.078 0.027 -0.176 0.152 -0.223 0.273 c -0.094 0.242 -0.277 0.297 -0.277 0.082 c 0 -0.074 -0.059 -0.168 -0.129 -0.207 c -0.074 -0.043 -0.145 -0.18 -0.164 -0.309 c -0.023 -0.176 -0.094 -0.238 -0.289 -0.262 c -0.211 -0.023 -0.254 -0.074 -0.254 -0.297 c 0 -0.148 -0.043 -0.293 -0.094 -0.324 c -0.059 -0.035 -0.051 -0.121 0.02 -0.234 c 0.09 -0.145 0.082 -0.211 -0.047 -0.352 c -0.219 -0.242 -0.215 -0.676 0.008 -0.676 c 0.215 0 0.391 -0.176 0.391 -0.391 c 0 -0.121 0.074 -0.168 0.262 -0.168 c 0.199 0 0.281 0.063 0.363 0.281 c 0.078 0.207 0.164 0.277 0.344 0.277 c 0.156 0 0.309 0.098 0.445 0.281 l 0.207 0.277 h 3.055 l 0.234 -0.277 c 0.129 -0.156 0.305 -0.281 0.395 -0.281 c 0.207 0 0.383 -0.18 0.383 -0.391 c 0 -0.121 0.07 -0.168 0.258 -0.168 c 0.203 0 0.285 0.063 0.367 0.281 c 0.078 0.211 0.164 0.277 0.344 0.277 c 0.23 0 0.242 0.023 0.242 0.516 c 0 0.422 -0.051 0.582 -0.277 0.898 c -0.156 0.211 -0.281 0.453 -0.285 0.535 c 0 0.082 -0.063 0.227 -0.133 0.32 c -0.145 0.188 -0.098 0.434 0.082 0.434 c 0.063 0 0.281 -0.125 0.48 -0.277 c 0.203 -0.152 0.418 -0.277 0.484 -0.277 c 0.063 -0.004 0.188 -0.086 0.277 -0.191 c 0.086 -0.102 0.254 -0.184 0.375 -0.184 c 0.117 0 0.238 -0.063 0.27 -0.141 c 0.066 -0.184 0.371 -0.184 0.438 0 c 0.031 0.078 0.156 0.141 0.281 0.141 c 0.137 0 0.285 0.09 0.375 0.227 c 0.195 0.301 0.203 1.063 0.012 1.137 c -0.078 0.027 -0.141 0.156 -0.141 0.277 c 0 0.129 -0.203 0.488 -0.469 0.832 c -0.258 0.332 -0.508 0.707 -0.559 0.836 c -0.047 0.129 -0.188 0.273 -0.313 0.32 c -0.121 0.047 -0.301 0.184 -0.398 0.309 c -0.098 0.125 -0.281 0.25 -0.406 0.285 c -0.129 0.031 -0.316 0.184 -0.418 0.34 c -0.109 0.164 -0.27 0.281 -0.383 0.285 c -0.242 0 -0.598 0.367 -0.598 0.621 c 0 0.105 -0.063 0.246 -0.141 0.309 c -0.074 0.066 -0.141 0.191 -0.141 0.281 c 0 0.09 -0.063 0.215 -0.137 0.277 c -0.078 0.066 -0.141 0.211 -0.141 0.328 c 0 0.117 -0.063 0.262 -0.141 0.324 c -0.078 0.066 -0.141 0.195 -0.141 0.289 c 0 0.359 -0.34 0.457 -1.605 0.457 h -1.191 m 1.773 -1.398 c 0 -0.051 -0.043 -0.094 -0.094 -0.094 c -0.051 0 -0.094 0.043 -0.094 0.094 c 0 0.051 0.043 0.094 0.094 0.094 c 0.051 0 0.094 -0.043 0.094 -0.094 m -1.305 -0.891 c 0 -0.078 -0.043 -0.117 -0.094 -0.086 c -0.051 0.031 -0.094 0.098 -0.094 0.145 c 0 0.047 0.043 0.086 0.094 0.086 c 0.051 0 0.094 -0.063 0.094 -0.145 m -0.234 -0.602 c -0.031 -0.051 -0.098 -0.09 -0.145 -0.09 c -0.047 0 -0.09 0.039 -0.09 0.09 c 0 0.055 0.066 0.094 0.148 0.094 c 0.078 0 0.117 -0.039 0.086 -0.094 m 2.844 -0.277 c 0 -0.051 -0.105 -0.094 -0.234 -0.094 c -0.129 0 -0.234 0.043 -0.234 0.094 c 0 0.051 0.105 0.094 0.234 0.094 c 0.129 0 0.234 -0.043 0.234 -0.094 m 0.594 -1.172 c 0.031 -0.082 0.059 -0.672 0.059 -1.309 c 0 -0.965 -0.023 -1.156 -0.141 -1.156 c -0.094 0 -0.141 -0.094 -0.141 -0.285 c 0 -0.156 -0.051 -0.34 -0.117 -0.406 c -0.43 -0.445 -0.707 -0.801 -0.746 -0.949 c -0.035 -0.129 -0.051 -0.113 -0.059 0.066 c -0.004 0.133 0.074 0.352 0.176 0.48 c 0.145 0.184 0.188 0.379 0.188 0.855 c 0 0.461 0.035 0.629 0.141 0.672 c 0.105 0.039 0.141 0.215 0.141 0.73 c 0 0.488 0.039 0.711 0.137 0.793 c 0.078 0.066 0.141 0.238 0.141 0.387 c 0 0.289 0.133 0.359 0.223 0.117"/><path d="m 10.242 16.03 c 0 -0.188 -0.02 -0.242 -0.309 -0.82 c -0.086 -0.172 -0.156 -0.363 -0.156 -0.43 c 0 -0.066 -0.063 -0.176 -0.141 -0.238 c -0.074 -0.063 -0.141 -0.191 -0.141 -0.281 c 0 -0.09 -0.078 -0.262 -0.176 -0.383 c -0.16 -0.199 -0.164 -0.246 -0.043 -0.477 c 0.109 -0.211 0.195 -0.258 0.484 -0.258 c 0.348 0 0.352 -0.004 0.363 -0.395 c 0.02 -0.641 0.031 -0.723 0.125 -0.723 c 0.047 0 0.086 -0.109 0.086 -0.242 c 0 -0.133 0.082 -0.348 0.184 -0.473 c 0.145 -0.188 0.172 -0.324 0.129 -0.715 c -0.031 -0.266 -0.105 -0.566 -0.172 -0.672 c -0.066 -0.109 -0.133 -0.613 -0.152 -1.188 c -0.023 -0.605 -0.082 -1.039 -0.152 -1.109 c -0.184 -0.184 -0.246 -0.008 -0.133 0.359 c 0.109 0.363 0.066 0.539 -0.074 0.309 c -0.07 -0.113 -0.125 -0.098 -0.328 0.094 c -0.148 0.141 -0.227 0.293 -0.199 0.398 c 0.027 0.098 -0.012 0.195 -0.094 0.227 c -0.078 0.027 -0.176 0.152 -0.223 0.273 c -0.094 0.246 -0.277 0.297 -0.277 0.078 c 0 -0.078 -0.055 -0.168 -0.129 -0.195 c -0.07 -0.027 -0.152 -0.172 -0.184 -0.32 c -0.043 -0.219 -0.105 -0.273 -0.289 -0.273 c -0.184 0 -0.234 -0.051 -0.238 -0.211 c 0 -0.117 -0.039 -0.27 -0.082 -0.34 c -0.051 -0.082 -0.043 -0.199 0.02 -0.301 c 0.082 -0.129 0.07 -0.203 -0.055 -0.34 c -0.219 -0.242 -0.215 -0.676 0.008 -0.676 c 0.215 0 0.391 -0.176 0.391 -0.391 c 0 -0.121 0.074 -0.168 0.27 -0.168 c 0.211 0 0.285 0.051 0.328 0.234 c 0.043 0.168 0.141 0.254 0.344 0.293 c 0.16 0.035 0.371 0.176 0.48 0.324 l 0.199 0.266 h 3.055 l 0.234 -0.277 c 0.129 -0.152 0.305 -0.281 0.395 -0.281 c 0.207 0 0.383 -0.18 0.383 -0.391 c 0 -0.121 0.07 -0.168 0.27 -0.168 c 0.211 0 0.281 0.051 0.328 0.234 c 0.043 0.168 0.141 0.254 0.336 0.293 c 0.266 0.055 0.277 0.074 0.277 0.551 c 0 0.398 -0.055 0.582 -0.277 0.91 c -0.156 0.23 -0.281 0.48 -0.281 0.559 c 0 0.082 -0.043 0.172 -0.094 0.203 c -0.121 0.074 -0.121 0.391 0.004 0.469 c 0.051 0.031 0.27 -0.07 0.484 -0.23 c 0.211 -0.156 0.438 -0.285 0.496 -0.285 c 0.059 0 0.184 -0.082 0.273 -0.188 c 0.094 -0.102 0.27 -0.184 0.391 -0.184 c 0.121 0 0.246 -0.063 0.277 -0.141 c 0.027 -0.078 0.133 -0.141 0.23 -0.141 c 0.102 0 0.203 0.063 0.234 0.141 c 0.031 0.078 0.148 0.141 0.266 0.141 c 0.125 0 0.277 0.098 0.363 0.23 c 0.191 0.293 0.199 1.012 0.012 1.168 c -0.078 0.063 -0.141 0.199 -0.141 0.301 c 0 0.102 -0.121 0.336 -0.27 0.523 c -0.145 0.188 -0.418 0.582 -0.605 0.875 c -0.188 0.297 -0.402 0.535 -0.473 0.535 c -0.07 0 -0.234 0.129 -0.363 0.281 c -0.129 0.152 -0.297 0.281 -0.371 0.281 c -0.074 0 -0.266 0.145 -0.422 0.324 c -0.16 0.18 -0.371 0.328 -0.469 0.328 c -0.211 0 -0.57 0.41 -0.57 0.652 c 0 0.09 -0.063 0.215 -0.141 0.277 c -0.074 0.066 -0.137 0.191 -0.137 0.281 c 0 0.09 -0.066 0.215 -0.141 0.277 c -0.078 0.066 -0.141 0.211 -0.141 0.328 c 0 0.117 -0.063 0.262 -0.141 0.328 c -0.078 0.063 -0.141 0.191 -0.141 0.285 c 0 0.359 -0.34 0.457 -1.605 0.457 c -1.129 0 -1.191 -0.008 -1.191 -0.188 m 1.773 -1.211 c 0 -0.051 -0.043 -0.09 -0.094 -0.09 c -0.051 0 -0.094 0.039 -0.094 0.09 c 0 0.055 0.043 0.094 0.094 0.094 c 0.051 0 0.094 -0.039 0.094 -0.094 m -1.305 -0.891 c 0 -0.078 -0.043 -0.117 -0.094 -0.086 c -0.051 0.031 -0.094 0.098 -0.094 0.145 c 0 0.047 0.043 0.09 0.094 0.09 c 0.051 0 0.094 -0.066 0.094 -0.148 m -0.281 -0.598 c 0 -0.055 -0.043 -0.094 -0.094 -0.094 c -0.051 0 -0.094 0.039 -0.094 0.094 c 0 0.051 0.043 0.09 0.094 0.09 c 0.051 0 0.094 -0.039 0.094 -0.09 m 2.844 -0.281 c -0.031 -0.051 -0.141 -0.094 -0.238 -0.094 c -0.102 0 -0.18 0.043 -0.18 0.094 c 0 0.051 0.105 0.094 0.238 0.094 c 0.133 0 0.211 -0.039 0.18 -0.094 m 0.691 -2.449 c 0.008 -0.895 -0.02 -1.109 -0.133 -1.152 c -0.078 -0.031 -0.141 -0.168 -0.141 -0.309 c 0 -0.207 -0.449 -0.879 -0.75 -1.125 c -0.035 -0.023 -0.082 -0.109 -0.113 -0.184 c -0.047 -0.125 -0.055 -0.125 -0.059 0 c -0.004 0.074 0.074 0.277 0.176 0.445 c 0.137 0.219 0.188 0.469 0.188 0.91 c 0 0.453 0.035 0.621 0.141 0.66 c 0.105 0.039 0.141 0.215 0.141 0.73 c 0 0.488 0.039 0.711 0.137 0.793 c 0.078 0.066 0.141 0.211 0.141 0.324 c 0 0.113 0.031 0.234 0.066 0.273 c 0.137 0.133 0.203 -0.297 0.207 -1.367"/><path d="m 10.242 16.03 c 0 -0.102 -0.039 -0.258 -0.086 -0.348 c -0.172 -0.324 -0.641 -1.379 -0.699 -1.574 c -0.031 -0.113 -0.121 -0.254 -0.191 -0.313 c -0.117 -0.098 -0.117 -0.148 0 -0.375 c 0.105 -0.207 0.215 -0.273 0.473 -0.297 l 0.336 -0.027 l 0.035 -0.512 c 0.02 -0.281 0.078 -0.527 0.129 -0.543 c 0.055 -0.02 0.098 -0.137 0.098 -0.262 c 0 -0.125 0.07 -0.336 0.156 -0.469 c 0.188 -0.285 0.176 -0.965 -0.02 -1.348 c -0.086 -0.16 -0.137 -0.535 -0.137 -0.988 c 0 -0.793 -0.148 -1.5 -0.285 -1.363 c -0.051 0.051 -0.047 0.211 0.004 0.402 c 0.098 0.34 0.047 0.5 -0.09 0.281 c -0.07 -0.113 -0.125 -0.098 -0.328 0.094 c -0.148 0.141 -0.227 0.293 -0.199 0.398 c 0.027 0.098 -0.012 0.195 -0.094 0.227 c -0.078 0.027 -0.176 0.152 -0.223 0.273 c -0.094 0.246 -0.277 0.297 -0.277 0.078 c 0 -0.078 -0.063 -0.168 -0.137 -0.199 c -0.078 -0.027 -0.141 -0.125 -0.141 -0.211 c 0 -0.203 -0.18 -0.379 -0.391 -0.379 c -0.113 0 -0.172 -0.07 -0.172 -0.211 c 0 -0.117 -0.039 -0.27 -0.082 -0.34 c -0.051 -0.082 -0.043 -0.199 0.02 -0.301 c 0.082 -0.129 0.07 -0.203 -0.055 -0.34 c -0.258 -0.285 -0.207 -0.617 0.121 -0.738 c 0.188 -0.07 0.277 -0.172 0.277 -0.301 c 0 -0.152 0.059 -0.195 0.277 -0.195 c 0.223 0 0.293 0.051 0.34 0.238 c 0.043 0.168 0.141 0.254 0.336 0.293 c 0.148 0.031 0.363 0.176 0.469 0.32 l 0.199 0.266 h 3.01 l 0.266 -0.277 c 0.148 -0.156 0.336 -0.281 0.418 -0.281 c 0.199 0 0.375 -0.184 0.375 -0.391 c 0 -0.121 0.07 -0.168 0.27 -0.168 c 0.211 0 0.281 0.051 0.328 0.234 c 0.043 0.168 0.141 0.254 0.336 0.293 c 0.27 0.055 0.277 0.074 0.277 0.566 c 0 0.359 -0.055 0.586 -0.184 0.77 c -0.191 0.27 -0.563 1.07 -0.563 1.223 c 0 0.234 0.352 0.082 1.324 -0.582 c 0.141 -0.098 0.313 -0.172 0.387 -0.172 c 0.07 0 0.184 -0.063 0.246 -0.141 c 0.152 -0.18 0.414 -0.18 0.563 0 c 0.063 0.078 0.191 0.141 0.285 0.141 c 0.094 0 0.234 0.094 0.313 0.207 c 0.191 0.27 0.195 1.035 0.008 1.191 c -0.078 0.063 -0.141 0.191 -0.141 0.289 c 0 0.18 -0.871 1.488 -1.191 1.793 c -0.543 0.516 -0.793 0.715 -0.902 0.715 c -0.07 0 -0.246 0.133 -0.391 0.301 c -0.148 0.168 -0.391 0.348 -0.543 0.398 c -0.16 0.055 -0.332 0.211 -0.41 0.371 c -0.074 0.156 -0.172 0.344 -0.215 0.418 c -0.043 0.078 -0.102 0.203 -0.133 0.281 c -0.027 0.078 -0.109 0.25 -0.184 0.387 c -0.074 0.137 -0.133 0.309 -0.133 0.387 c 0 0.074 -0.063 0.188 -0.141 0.25 c -0.078 0.066 -0.141 0.195 -0.141 0.289 c 0 0.359 -0.34 0.457 -1.605 0.457 c -1.129 0 -1.191 -0.008 -1.191 -0.188 m 1.773 -1.211 c 0 -0.051 -0.043 -0.09 -0.094 -0.09 c -0.051 0 -0.094 0.039 -0.094 0.09 c 0 0.055 0.043 0.094 0.094 0.094 c 0.051 0 0.094 -0.039 0.094 -0.094 m -1.305 -0.883 c 0 -0.078 -0.016 -0.141 -0.039 -0.141 c -0.02 0 -0.059 0.063 -0.09 0.141 c -0.027 0.074 -0.012 0.141 0.039 0.141 c 0.047 0 0.09 -0.066 0.09 -0.141 m -0.281 -0.605 c 0 -0.051 -0.043 -0.094 -0.094 -0.094 c -0.051 0 -0.094 0.043 -0.094 0.094 c 0 0.051 0.043 0.094 0.094 0.094 c 0.051 0 0.094 -0.043 0.094 -0.094 m 2.797 -0.281 c 0 -0.051 -0.082 -0.094 -0.188 -0.094 c -0.102 0 -0.184 0.043 -0.184 0.094 c 0 0.051 0.082 0.094 0.184 0.094 c 0.105 0 0.188 -0.043 0.188 -0.094 m 0.691 -1.266 c 0.027 -0.082 0.055 -0.629 0.055 -1.215 c 0 -0.863 -0.027 -1.078 -0.141 -1.121 c -0.078 -0.031 -0.141 -0.168 -0.141 -0.313 c 0 -0.176 -0.133 -0.41 -0.402 -0.715 c -0.223 -0.246 -0.43 -0.516 -0.461 -0.59 c -0.047 -0.125 -0.055 -0.125 -0.059 0 c -0.004 0.074 0.074 0.277 0.18 0.445 c 0.129 0.211 0.184 0.469 0.184 0.848 c 0 0.371 0.047 0.586 0.141 0.664 c 0.098 0.082 0.141 0.297 0.141 0.738 c 0 0.402 0.047 0.688 0.137 0.805 c 0.074 0.098 0.137 0.273 0.141 0.391 c 0.004 0.242 0.141 0.281 0.223 0.063"/><path d="m 12.383 16.04 c 0 -0.094 0.059 -0.293 0.129 -0.441 c 0.297 -0.613 0.602 -1.309 0.656 -1.496 c 0.031 -0.113 0.121 -0.254 0.191 -0.313 c 0.117 -0.098 0.117 -0.148 0 -0.375 c -0.105 -0.207 -0.215 -0.273 -0.473 -0.297 l -0.336 -0.027 l -0.027 -0.496 c -0.012 -0.273 -0.07 -0.543 -0.129 -0.602 c -0.059 -0.059 -0.109 -0.191 -0.109 -0.297 c -0.004 -0.105 -0.066 -0.273 -0.141 -0.371 c -0.172 -0.227 -0.18 -1 -0.008 -1.34 c 0.07 -0.137 0.148 -0.676 0.176 -1.199 c 0.047 -0.902 0.164 -1.375 0.285 -1.176 c 0.031 0.051 0.016 0.234 -0.031 0.402 c -0.102 0.355 -0.063 0.445 0.125 0.289 c 0.156 -0.129 0.414 0.117 0.465 0.445 c 0.016 0.113 0.074 0.238 0.125 0.273 c 0.055 0.035 0.148 0.156 0.207 0.273 c 0.125 0.23 0.289 0.277 0.289 0.078 c 0 -0.07 0.066 -0.152 0.141 -0.184 c 0.078 -0.031 0.141 -0.129 0.141 -0.223 c 0 -0.211 0.176 -0.395 0.371 -0.395 c 0.176 0 0.387 -0.672 0.27 -0.859 c -0.043 -0.066 -0.016 -0.207 0.063 -0.328 c 0.219 -0.328 0.176 -0.648 -0.094 -0.715 c -0.145 -0.039 -0.254 -0.148 -0.293 -0.293 c -0.074 -0.305 -0.551 -0.332 -0.645 -0.035 c -0.035 0.105 -0.203 0.254 -0.371 0.324 c -0.168 0.07 -0.391 0.234 -0.492 0.363 c -0.188 0.234 -0.195 0.234 -1.672 0.234 c -1.477 0 -1.488 0 -1.711 -0.238 c -0.125 -0.133 -0.363 -0.301 -0.531 -0.371 c -0.199 -0.082 -0.301 -0.188 -0.301 -0.316 c 0 -0.297 -0.496 -0.266 -0.633 0.039 c -0.059 0.129 -0.215 0.258 -0.344 0.289 c -0.215 0.055 -0.234 0.102 -0.234 0.566 c 0 0.371 0.059 0.598 0.227 0.863 c 0.234 0.371 0.52 0.996 0.52 1.141 c 0 0.148 -0.309 0.082 -0.598 -0.133 c -0.422 -0.316 -0.98 -0.625 -1.121 -0.625 c -0.07 0 -0.176 -0.063 -0.238 -0.141 c -0.152 -0.18 -0.414 -0.18 -0.563 0 c -0.063 0.078 -0.191 0.141 -0.285 0.141 c -0.426 0 -0.609 0.898 -0.305 1.508 c 0.086 0.168 0.18 0.359 0.211 0.422 c 0.203 0.422 1.164 1.703 1.313 1.75 c 0.102 0.035 0.258 0.156 0.352 0.273 c 0.094 0.117 0.258 0.246 0.371 0.281 c 0.109 0.035 0.305 0.188 0.434 0.336 c 0.125 0.152 0.293 0.277 0.371 0.277 c 0.184 0 0.617 0.465 0.617 0.664 c 0 0.082 0.063 0.203 0.141 0.266 c 0.074 0.066 0.141 0.188 0.141 0.27 c 0.004 0.082 0.066 0.234 0.141 0.332 c 0.074 0.102 0.137 0.254 0.137 0.34 c 0 0.086 0.063 0.207 0.141 0.273 c 0.078 0.063 0.141 0.191 0.141 0.285 c 0 0.359 0.34 0.461 1.605 0.461 c 1.094 0 1.191 -0.016 1.191 -0.172 m -1.773 -1.227 c 0 -0.055 0.043 -0.094 0.094 -0.094 c 0.051 0 0.094 0.039 0.094 0.094 c 0 0.051 -0.043 0.09 -0.094 0.09 c -0.051 0 -0.094 -0.039 -0.094 -0.09 m 1.586 -1.492 c 0 -0.051 0.02 -0.094 0.039 -0.094 c 0.023 0 0.066 0.043 0.102 0.094 c 0.031 0.051 0.012 0.094 -0.043 0.094 c -0.055 0 -0.098 -0.043 -0.098 -0.094 m -2.797 -0.281 c 0 -0.051 0.063 -0.094 0.141 -0.094 c 0.074 0 0.137 0.043 0.137 0.094 c 0 0.051 -0.063 0.094 -0.137 0.094 c -0.078 0 -0.141 -0.043 -0.141 -0.094 m -0.688 -1.41 c -0.031 -0.16 -0.059 -0.707 -0.059 -1.215 c 0 -0.734 0.027 -0.934 0.141 -0.977 c 0.074 -0.031 0.141 -0.148 0.141 -0.262 c 0 -0.211 0.395 -0.828 0.684 -1.066 c 0.082 -0.07 0.156 -0.195 0.16 -0.277 c 0.004 -0.102 0.023 -0.113 0.055 -0.035 c 0.027 0.066 -0.039 0.266 -0.145 0.449 c -0.141 0.23 -0.195 0.488 -0.195 0.871 c 0 0.371 -0.047 0.582 -0.141 0.66 c -0.098 0.078 -0.141 0.293 -0.141 0.688 c 0 0.324 -0.063 0.684 -0.141 0.836 c -0.074 0.148 -0.137 0.348 -0.137 0.445 c 0 0.281 -0.16 0.199 -0.223 -0.117"/></g></svg>