<svg xmlns="http://www.w3.org/2000/svg" xmlns:xlink="http://www.w3.org/1999/xlink" viewBox="0 0 22 22"><defs><g id="3" clip-path="url(#2)"><path d="m 5.586 7.563 v 1.75 h 5.133 c 0.379 0 0.688 0.324 0.688 0.73 v 2.914 c 0 0.402 -0.309 0.727 -0.688 0.727 h -3.766 v -3.543 h -1.367 v 5.293 h 6.16 c 0.57 0 1.027 -0.586 1.027 -1.313 v -5.246 c 0 -0.727 -0.457 -1.309 -1.027 -1.309 h -6.16"/><path d="m 14.484 7.563 v 1.75 h 1.371 v -1.75 m -1.371 2.578 v 5.293 h 1.371 v -5.293"/></g><clipPath id="2"><path d="M 0,0 H22 V22 H0 z"/></clipPath><filter id="0" filterUnits="objectBoundingBox" x="0" y="0" width="22" height="22"><feColorMatrix type="matrix" in="SourceGraphic" values="0 0 0 0 1 0 0 0 0 1 0 0 0 0 1 0 0 0 1 0"/></filter><mask id="1"><g filter="url(#0)"><path fill-opacity="0.2" d="M 0,0 H22 V22 H0 z"/></g></mask></defs><path d="m 2.543 4.02 c -5.352 8.23 -1.035 15.727 5.02 17.504 c 8.148 2.395 19.215 -3.895 11.926 -16.852 c -2.898 -5.152 -13.14 -6.516 -16.949 -0.652" fill="#59a6d0"/><use xlink:href="#3" mask="url(#1)"/><g fill="#fff"><path d="m 5.586 7.129 v 1.746 h 5.133 c 0.379 0 0.688 0.324 0.688 0.73 v 2.914 c 0 0.402 -0.309 0.727 -0.688 0.727 h -3.766 v -3.543 h -1.367 v 5.293 h 6.16 c 0.57 0 1.027 -0.586 1.027 -1.313 v -5.246 c 0 -0.727 -0.457 -1.309 -1.027 -1.309"/><path d="m 14.484 7.129 v 1.746 h 1.371 v -1.746 m -1.371 2.574 v 5.293 h 1.371 v -5.293"/></g></svg>