<svg xmlns="http://www.w3.org/2000/svg" viewBox="0 0 22 22"><path d="m 19.734 16.828 c 7.91 -11.25 -6.699 -22.652 -16.02 -13.484 c -8.777 8.641 -0.641 22.06 10.285 17.863 c 2.281 -0.875 4.281 -2.313 5.734 -4.375" fill="#9acd31"/><path d="m 5.992 16.203 c -0.273 -0.145 -0.375 -0.336 -0.375 -0.703 c 0 -0.285 0.133 -0.422 3.836 -4.078 l 3.836 -3.789 h -0.781 l -2.914 2.871 c -2.883 2.84 -2.922 2.871 -3.238 2.871 c -0.242 0 -0.375 -0.051 -0.531 -0.203 l -0.207 -0.203 v -3.512 l 0.902 -0.891 l 0.902 -0.895 l -0.715 -0.039 c -0.656 -0.039 -0.727 -0.059 -0.898 -0.258 c -0.207 -0.234 -0.254 -0.645 -0.105 -0.918 c 0.172 -0.313 0.523 -0.375 2.125 -0.375 c 1.195 0 1.559 0.023 1.762 0.121 c 0.289 0.133 0.438 0.387 0.438 0.75 c 0 0.215 -0.188 0.43 -1.457 1.688 l -1.457 1.441 v 0.77 l 2.383 -2.34 c 2.01 -1.98 2.426 -2.348 2.664 -2.391 c 0.156 -0.027 0.965 -0.039 1.797 -0.027 l 1.516 0.027 l 0.23 0.254 c 0.488 0.539 0.656 0.328 -3.629 4.555 c -2.121 2.094 -3.855 3.832 -3.855 3.863 c 0 0.031 0.164 0.055 0.371 0.055 h 0.371 l 2.957 -2.906 c 2.762 -2.719 2.973 -2.91 3.23 -2.91 c 0.152 0 0.352 0.051 0.441 0.113 c 0.316 0.219 0.352 0.469 0.328 2.199 l -0.023 1.641 l -0.887 0.875 c -0.488 0.484 -0.887 0.902 -0.887 0.934 c 0 0.031 0.285 0.059 0.637 0.059 c 0.719 0 0.887 0.059 1.063 0.395 c 0.152 0.297 0.09 0.609 -0.176 0.855 c -0.195 0.184 -0.215 0.184 -1.953 0.184 c -1.648 0 -1.77 -0.008 -1.934 -0.156 c -0.25 -0.223 -0.332 -0.48 -0.238 -0.766 c 0.051 -0.152 0.617 -0.77 1.5 -1.637 l 1.418 -1.395 v -0.777 l -2.344 2.305 c -1.289 1.266 -2.441 2.34 -2.563 2.383 c -0.129 0.047 -0.879 0.082 -1.773 0.078 c -1.211 0 -1.594 -0.027 -1.762 -0.117" fill="#fff"/></svg>