<svg xmlns="http://www.w3.org/2000/svg" xmlns:xlink="http://www.w3.org/1999/xlink" viewBox="0 0 22 22"><defs><g id="3" clip-path="url(#2)"><path d="m -206.9 171.04 c -2.208 -0.693 -8.373 -4.272 -23.37 -13.625 c -15.825 -9.93 -21.07 -13.51 -29.07 -19.861 c -5.612 -4.503 -14.721 -13.05 -18.13 -17.205 c -7.085 -8.776 -13.249 -20.785 -19.414 -38.1 c -0.644 -1.732 -1.288 -3.233 -1.38 -3.233 c -0.092 0 -0.276 0.346 -0.368 0.693 c -0.368 1.039 -3.496 4.04 -5.152 4.734 c -2.024 0.924 -5.888 1.155 -8.373 0.462 c -10.581 -3 -20.794 -16.05 -25.302 -32.22 c -3.128 -11.316 -3.864 -24.71 -1.656 -32.22 l 0.644 -2.425 l -0.828 -0.924 c -5.336 -5.773 -10.305 -11.778 -13.893 -16.397 c -1.932 -2.656 -2.392 -3.58 -1.656 -3.58 c 0.276 0 2.76 2.078 5.52 4.619 c 2.76 2.54 5.152 4.619 5.244 4.503 c 0.276 -0.346 -6.901 -10.277 -10.581 -14.665 c -2.76 -3.233 -3.772 -5.081 -4.048 -7.04 c -0.276 -2.194 1.012 -4.503 4.692 -8.66 c 1.656 -1.848 3.036 -3.464 3.036 -3.58 c 0 -0.808 -16.377 -29.1 -16.653 -28.752 c -0.092 0 1.012 3.58 2.392 7.852 c 2.576 7.736 2.76 9.122 1.38 7.736 c -0.92 -0.693 -3.22 -4.619 -5.336 -9.01 c -3.956 -7.736 -8.465 -18.475 -16.745 -39.721 c -3.036 -7.621 -6.073 -15.473 -6.901 -17.32 c -1.472 -3.695 -1.932 -6.12 -1.656 -8.545 c 0.552 -3.695 16.01 -37.07 24.382 -52.54 c 6.901 -12.817 12.881 -22.17 18.402 -29.21 c 2.852 -3.464 4.14 -4.157 2.76 -1.386 c -0.828 1.617 -2.668 6.582 -2.668 7.159 c 0 0.115 3.956 -3.58 8.649 -8.198 c 9.293 -9.238 13.525 -13.164 20.06 -18.822 c 8.833 -7.506 16.193 -13.164 24.75 -18.822 c 9.293 -6.235 10.213 -6.582 7.729 -2.656 c -0.368 0.577 -0.552 1.039 -0.552 1.155 c 0.092 0 1.472 -0.693 3.036 -1.501 c 2.76 -1.617 3.864 -1.963 3.864 -1.386 c 0 0.231 -1.288 2.194 -2.852 4.619 c -1.472 2.309 -3.956 6.235 -5.336 8.66 c -5.152 8.776 -14.353 25.519 -14.353 26.1 c 0 0.231 2.852 -2.54 6.257 -6 c 3.404 -3.58 6.441 -6.466 6.717 -6.697 c 1.288 -0.693 0.644 0.577 -2.944 6.12 c -9.109 13.625 -13.617 22.978 -15.733 32.562 c -0.92 3.926 -1.012 12.12 -0.184 15.935 c 2.392 10.739 9.569 22.863 20.06 33.717 c 13.341 13.856 26.314 14.549 38.37 2.309 c 4.968 -5.081 10.121 -13.279 16.377 -25.981 c 7.085 -14.549 11.225 -27.713 11.225 -35.796 c 0 -4.503 -2.208 -8.545 -7.453 -13.856 c -4.692 -4.619 -12.05 -9.93 -15.641 -11.201 c -1.196 -0.462 -1.38 -0.462 -2.392 0.115 c -1.656 0.808 -5.52 3.695 -9.293 6.813 c -4.324 3.695 -13.249 12.586 -16.193 16.17 c -1.38 1.732 -2.484 2.771 -2.852 2.771 c -0.552 0 -0.552 -0.115 -0.368 -1.848 c 0.368 -4.04 2.576 -9.815 5.796 -15.588 c 3.588 -6.351 9.109 -13.972 22.726 -31.29 c 0.552 -0.693 0.828 -0.808 1.104 -0.577 c 2.852 1.963 5.06 3.233 11.225 6 c 3.956 1.848 8.557 4.04 10.213 4.85 c 1.564 0.924 3.036 1.501 3.036 1.501 c 0.184 -0.231 -2.3 -5.081 -3.864 -7.39 c -0.828 -1.27 -1.472 -2.425 -1.472 -2.54 c 0 -0.577 1.104 0.115 3.956 2.771 c 5.336 4.965 14.169 12.586 33.583 29.21 c 20.978 17.898 25.03 21.477 25.854 22.863 c 0.644 1.155 2.116 5.543 2.944 8.891 c 1.38 5.889 2.3 14.203 3.128 27.944 c 0.46 7.39 1.012 13.856 1.196 13.972 c 0.368 0.462 9.661 -6.351 14.261 -10.277 c 9.937 -8.545 14.445 -16.05 17.665 -29.21 c 1.472 -5.889 2.116 -6.235 2.944 -1.155 c 0.368 2.309 0.46 3.233 0.184 5.658 c -0.184 1.501 -0.276 2.887 -0.276 2.887 c 0.368 0.346 2.668 -3.81 3.496 -6.12 c 2.208 -6.12 3.128 -11.778 3.128 -19.283 c 0 -8.314 -1.012 -13.741 -3.588 -19.17 c -3.864 -8.08 -9.661 -12.586 -18.218 -13.856 c -5.152 -0.808 -13.249 0.115 -20.518 2.54 c -2.208 0.693 -3.312 0.924 -3.588 0.693 c -0.46 -0.462 0.46 -1.039 8.925 -6.235 c 18.586 -11.316 25.12 -15.357 30.823 -19.17 c 4.324 -2.771 6.257 -3.926 6.533 -3.695 c 0.276 0.115 0.736 1.155 1.104 2.309 c 1.288 4.04 6.257 14.896 6.625 14.434 c 0.092 0 -0.276 -1.848 -0.828 -4.157 c -1.564 -6.12 -4.508 -20.554 -4.324 -20.784 c 1.104 -1.155 3.864 4.503 13.249 26.443 c 11.961 27.944 18.218 42.608 21.53 49.883 c 9.569 21.246 16.1 34.06 22.08 43.19 c 1.38 2.078 1.564 2.656 1.472 3.464 c -0.092 0.577 -1.104 3 -2.208 5.427 c -1.104 2.425 -1.932 4.503 -1.84 4.503 c 0.092 0.115 1.196 -0.924 2.484 -2.309 c 2.76 -3 3.312 -3 2.668 0 c -2.852 12.471 -12.145 31.408 -33.21 67.43 c -2.484 4.04 -4.416 7.621 -4.416 7.967 c 0 0.231 0.368 0.808 0.828 1.155 c 1.196 1.155 3.588 4.272 7.913 10.392 c 2.3 3.118 4.876 6.466 5.796 7.506 c 2.76 3.118 3.588 5.312 2.668 6.928 c -0.276 0.577 -1.656 2.54 -3.036 4.503 c -6.901 9.584 -9.937 13.972 -9.845 14.09 c 0.184 0.115 4.784 -3.464 8.465 -6.582 c 3.404 -3 4.6 -3.695 4.6 -2.887 c 0 0.577 -3.588 6.466 -6.073 9.815 c -4.876 6.928 -10.397 12.702 -17.665 18.475 c -2.208 1.732 -4.048 3.349 -4.048 3.464 c -0.092 0.115 0.368 1.386 1.104 2.771 c 5.888 12.355 2.76 31.06 -8 47.23 c -2.852 4.157 -5.06 6.351 -7.729 7.621 c -3.496 1.617 -9.02 1.732 -13.249 0.115 c -1.104 -0.346 -2.116 -0.577 -2.3 -0.462 c -0.092 0.115 -0.92 1.963 -1.84 4.04 c -4.6 10.392 -12.421 24.13 -21.898 38.34 c -7.361 10.854 -9.569 13.856 -18.954 25.17 c -8.281 9.93 -17.573 19.861 -20.886 22.401 c -1.656 1.27 -4.6 2.54 -5.704 2.425 c -0.368 0 -1.196 -0.115 -1.932 -0.346" transform="matrix(0.04246 0 0 0.03383 20.288 11.917)" fill="none" stroke="#fff" stroke-linejoin="round" stroke-linecap="round" stroke-width="13.09"/><path d="m -206.9 170.81 c -1.84 -0.577 -8.925 -4.734 -23.37 -13.741 c -15.825 -9.815 -21.16 -13.51 -28.982 -19.63 c -5.244 -4.272 -14.997 -13.51 -18.03 -17.32 c -6.533 -7.967 -12.789 -19.976 -18.494 -35.68 c -1.196 -3 -2.208 -5.543 -2.3 -5.658 c -0.184 0 -0.736 0.693 -1.288 1.501 c -3.496 5.427 -10.305 6.351 -17.297 2.54 c -8.833 -4.965 -16.837 -16.743 -20.61 -30.368 c -1.84 -6.351 -2.944 -14.549 -2.944 -21.13 c 0.092 -4.388 0.368 -7.275 1.288 -10.854 l 0.644 -2.54 l -1.288 -1.501 c -11.04 -12.471 -15.457 -18.01 -14.905 -18.591 c 0.184 -0.231 2.116 1.386 7.361 6.235 c 2.208 1.963 4.048 3.58 4.14 3.464 c 0.368 -0.346 -7.637 -11.547 -11.409 -15.935 c -4.416 -5.196 -5.06 -7.967 -2.76 -11.431 c 0.552 -0.924 2.3 -3 3.772 -4.619 l 2.76 -3.118 l -0.92 -1.848 c -2.392 -4.965 -16.653 -28.983 -16.745 -28.29 c -0.092 0.231 1.012 3.81 2.392 8.08 c 1.472 4.157 2.576 7.852 2.576 8.08 c 0 1.848 -2.116 -1.386 -5.612 -8.314 c -4.232 -8.429 -8.741 -19.17 -16.837 -39.952 c -2.668 -6.697 -5.52 -14.09 -6.533 -16.281 c -2.116 -5.312 -2.484 -7.39 -1.84 -9.93 c 1.472 -5.543 17.11 -38.913 25.03 -53.35 c 7.269 -13.279 15.733 -26.327 19.14 -29.445 c 1.012 -0.808 1.012 -0.924 -0.644 3.81 c -0.644 1.848 -1.288 3.58 -1.38 4.04 c -0.184 0.462 3.22 -2.771 9.02 -8.429 c 17.665 -17.436 30.547 -28.29 45.912 -38.451 c 5.244 -3.464 7.269 -4.619 7.453 -4.272 c 0.092 0.115 -0.184 0.808 -0.736 1.617 c -0.828 1.27 -1.196 2.194 -0.828 2.194 c 0.092 0 1.472 -0.808 3.128 -1.732 c 2.76 -1.501 3.68 -1.848 3.68 -1.386 c 0 0.115 -0.828 1.27 -1.748 2.771 c -2.576 3.695 -8.281 13.394 -12.881 21.593 c -4.416 7.967 -8.465 15.704 -8.465 16.05 c 0 0.115 3.036 -2.887 6.717 -6.582 c 3.772 -3.81 6.901 -6.813 6.993 -6.582 c 0 0.231 -1.38 2.54 -3.128 5.312 c -9.477 14.09 -13.985 23.556 -15.917 33.602 c -0.736 4.04 -0.644 11.09 0.184 15.13 c 2.3 10.97 9.845 23.44 20.702 34.29 c 6.073 6 10.673 8.891 16.469 10.05 c 9.477 1.963 19.14 -3.58 27.326 -15.588 c 5.428 -7.967 12.697 -22.286 16.745 -32.909 c 3.772 -9.93 5.796 -19.976 4.876 -24.48 c -0.92 -4.388 -4.784 -9.584 -11.04 -14.78 c -5.152 -4.388 -11.317 -8.08 -13.249 -8.08 c -1.104 0 -5.06 2.54 -10.03 6.697 c -4.508 3.81 -14.08 13.279 -16.929 16.859 c -1.104 1.386 -2.116 2.54 -2.392 2.54 c -1.38 0 0.92 -8.198 3.956 -14.203 c 3.312 -6.582 7.269 -12.471 14.997 -22.286 c 2.3 -3 5.428 -6.928 6.901 -8.891 c 1.472 -1.963 2.852 -3.58 2.944 -3.58 c 0.184 0 0.828 0.462 1.38 0.924 c 1.38 1.039 4.784 2.771 13.157 6.582 c 3.404 1.617 7.269 3.464 8.465 4.157 c 1.196 0.693 2.3 1.27 2.392 1.155 c 0.184 -0.231 -2.208 -4.734 -3.772 -7.275 c -0.736 -1.27 -1.288 -2.309 -1.196 -2.425 c 0.184 -0.231 0.644 0.231 8.189 6.928 c 2.944 2.656 14.721 12.933 26.22 22.747 c 11.501 9.815 22.358 19.17 24.2 20.9 c 3.036 2.771 3.404 3.233 4.232 5.196 c 2.852 6.813 4.324 16.628 5.52 36.26 c 0.276 6 0.828 11.893 1.012 12.702 c 0.092 0.231 0.276 0.462 0.46 0.462 c 0.092 0 2.116 -1.386 4.508 -3 c 13.617 -9.584 20.794 -17.551 24.566 -27.14 c 0.644 -1.732 1.84 -5.543 2.576 -8.545 c 0.92 -3.349 1.564 -5.427 1.84 -5.427 c 0.92 0 1.472 6.813 0.92 10.854 l -0.276 1.617 l 0.736 -0.693 c 1.932 -1.732 4.14 -7.39 5.52 -13.741 c 1.012 -4.965 1.288 -15.357 0.552 -20.323 c -1.84 -11.778 -7.085 -19.63 -15.365 -23.09 c -3.312 -1.386 -6.165 -1.848 -11.04 -1.848 c -5.152 0 -8.925 0.693 -14.721 2.425 c -6.165 1.848 -5.704 1.501 7.361 -6.466 c 16.653 -10.161 22.542 -13.856 28.338 -17.667 c 3.128 -1.963 5.796 -3.58 5.98 -3.58 c 0.184 0.115 0.736 1.501 1.288 3.118 c 1.656 4.85 6.809 15.473 7.177 15.01 c 0.092 0 -0.368 -2.194 -1.012 -4.734 c -1.748 -6.697 -4.692 -21.246 -4.416 -21.477 c 0.828 -0.808 4.324 6.582 13.801 28.867 c 17.481 41.22 23.09 53.693 30.455 68.7 c 4.692 9.468 8.281 15.935 11.501 21.02 c 1.748 2.656 2.3 3.695 2.116 4.157 c -0.092 0.346 -1.196 2.887 -2.392 5.543 c -1.196 2.656 -2.208 4.965 -2.116 5.081 c 0.276 0.231 2.208 -1.617 3.772 -3.349 c 2.208 -2.656 2.392 -2.078 0.828 3.349 c -1.748 6.351 -6.717 17.782 -12.237 28.521 c -5.06 9.584 -10.121 18.706 -19.14 34.06 c -2.852 4.965 -5.244 9.238 -5.336 9.468 c -0.092 0.462 0.368 1.155 1.564 2.54 c 1.012 1.039 3.956 4.85 6.625 8.545 c 2.576 3.695 5.52 7.506 6.441 8.66 c 2.668 3 3.496 5.196 2.484 6.697 c -1.748 2.656 -10.673 15.13 -11.869 16.743 c -0.828 1.039 -1.472 2.078 -1.472 2.194 c 0 0.693 5.98 -3.81 10.581 -7.967 c 2.3 -2.078 2.668 -2.309 2.668 -1.501 c 0 0.924 -4.876 8.429 -8.741 13.279 c -3.312 4.272 -9.753 10.508 -14.721 14.549 c -2.3 1.848 -4.14 3.464 -4.14 3.58 c 0 0.231 0.368 1.155 0.92 2.078 c 2.3 4.157 3.128 8.314 3.128 15.01 c 0 5.773 -0.46 9.01 -2.116 14.549 c -2.484 7.967 -7.729 17.782 -12.05 22.517 c -2.576 2.771 -6.625 4.503 -10.489 4.503 c -1.932 0 -5.704 -0.693 -7.637 -1.501 c -0.828 -0.346 -1.564 -0.577 -1.656 -0.462 c 0 0 -0.828 1.848 -1.748 3.926 c -5.612 12.817 -17.02 32.1 -28.982 48.728 c -5.98 8.314 -19.782 24.595 -26.866 31.754 c -5.244 5.312 -6.533 6.466 -8.097 7.159 c -1.932 0.924 -3.956 1.155 -5.428 0.693 m 3.588 -9.238 c 4.692 -4.157 12.05 -11.316 16.285 -15.819 c 22.358 -24.02 38.18 -49.767 47.568 -77.83 c 6.625 -19.861 9.569 -37.874 9.569 -58.774 c 0 -11.662 -0.828 -21.939 -2.76 -33.14 c -0.92 -5.312 -0.92 -5.427 -2.024 -6.582 c -0.552 -0.577 -1.472 -1.386 -2.024 -1.732 c -0.552 -0.346 -1.012 -0.924 -1.104 -1.039 c -0.092 -0.231 1.196 -2.771 2.944 -5.543 c 5.428 -9.122 9.569 -17.205 13.801 -27.02 c 2.392 -5.427 5.612 -14.09 5.428 -14.318 c -0.092 0 -3.68 0.115 -8 0.346 c -41.22 2.656 -68.27 6.351 -92.93 12.702 c -4.048 1.039 -6.533 1.501 -6.717 1.386 c -0.184 -0.231 0 -0.693 0.368 -1.27 c 0.368 -0.462 0.644 -1.039 0.552 -1.039 c -0.276 -0.346 -15.733 -4.503 -26.04 -7.04 c -19.322 -4.85 -36.34 -8.198 -53.09 -10.623 c -6.809 -0.924 -19.23 -2.309 -19.414 -2.194 c -0.46 0.462 12.973 25.75 19.782 37.3 c 0.736 1.386 1.472 2.771 1.472 2.887 c 0 0.231 -0.644 1.501 -1.288 2.656 c -4.416 7.736 -10.857 22.978 -13.249 31.18 l -0.736 2.54 l 0.736 2.54 c 3.312 12.01 6.809 27.14 11.04 48.728 c 4.048 20.323 6.257 28.867 10.213 38.913 c 11.133 28.06 29.35 49.883 57.6 68.47 c 8.189 5.427 27.51 16.628 28.706 16.743 c 0.276 0 1.748 -1.155 3.312 -2.425 m -23.09 -46.881 c 0.092 -0.462 4.6 -2.887 8.925 -4.734 c 6.625 -2.771 15.273 -5.196 23.19 -6.466 c 2.576 -0.346 3.68 -0.231 3.036 0.462 c -0.552 0.577 -6.717 2.54 -19.966 6.582 c -6.993 2.194 -13.07 4.04 -13.617 4.157 c -1.104 0.462 -1.748 0.462 -1.564 0 m 18.586 -19.63 c -3.22 -3.233 -5.704 -6.697 -7.545 -10.739 c -1.196 -2.309 -1.84 -4.388 -1.472 -4.388 c 0.092 0 2.392 2.194 5.06 4.85 c 2.668 2.656 5.06 4.734 5.152 4.734 c 0.092 0 0.184 -1.27 0.184 -2.887 c 0 -1.617 0.368 -8.429 0.828 -15.242 c 0.368 -6.697 0.828 -15.357 0.92 -19.05 c 0.092 -3.81 0.276 -7.04 0.46 -7.275 c 0.276 -0.462 1.104 0 2.852 1.501 l 1.288 1.155 l -0.276 7.04 c -0.368 7.852 -0.92 14.665 -1.932 27.02 c -0.46 4.503 -0.828 9.584 -0.92 11.201 c -0.276 4.388 -0.368 4.965 -1.104 4.965 c -0.276 0 -1.84 -1.27 -3.496 -2.887 m -46.1 -26.673 c -4.6 -0.462 -9.661 -1.963 -12.789 -3.926 c -2.576 -1.501 -5.704 -4.503 -7.361 -7.04 c -2.852 -4.272 -5.612 -11.316 -6.165 -15.588 c -0.46 -3.233 0.092 -6.351 1.656 -9.468 c 1.38 -2.771 4.692 -6.351 7.913 -8.545 c 2.852 -1.963 2.576 -1.732 2.392 -1.963 c -0.092 0 -2.208 -0.346 -4.876 -0.577 c -6.809 -0.693 -10.03 -1.155 -10.765 -1.848 c -0.368 -0.346 -1.472 -0.808 -2.392 -1.039 c -2.76 -0.462 -4.692 -1.155 -4.692 -1.501 c 0 -0.115 0.736 -0.231 1.748 -0.231 c 1.656 0 7.085 -0.693 8.189 -1.039 c 0.828 -0.346 0.736 -0.577 -0.736 -1.386 c -1.656 -1.155 -4.876 -4.04 -4.692 -4.272 c 0.184 -0.115 1.196 0 2.484 0.346 c 4.784 1.386 11.593 1.963 27.694 2.771 c 14.261 0.577 18.862 0.693 19.966 0.231 c 3.496 -1.039 5.06 -6.813 3.128 -11.431 c -1.196 -2.771 -1.196 -2.887 -0.552 -2.887 c 0.92 0 3.588 2.54 4.416 4.157 c 1.104 2.078 1.38 3.695 1.748 8.545 l 0.368 4.503 l 1.012 0.577 c 0.644 0.231 1.104 0.693 1.104 0.808 c 0 0.924 -6.901 4.157 -8.741 4.157 c -0.92 0 -0.92 0.346 0 1.155 c 1.38 1.386 5.612 8.198 6.349 10.277 c 1.104 3.118 1.472 6.582 1.012 9.93 c -1.748 13.625 -13.341 25.634 -24.474 25.403 c -0.92 0 -2.3 -0.115 -2.944 -0.115 m 81.61 -3 c -6.717 -1.27 -13.157 -4.157 -16.561 -7.621 c -1.748 -1.617 -3.312 -4.04 -4.048 -6.12 c -0.828 -2.309 -1.104 -6.928 -0.552 -9.93 c 0.828 -4.619 3.404 -10.508 6.993 -15.819 l 1.932 -2.771 l -5.244 -0.115 c -6.073 -0.231 -6.441 -0.346 -4.784 -2.078 c 1.472 -1.617 2.208 -4.157 2.944 -10.392 c 0.644 -5.427 1.104 -7.736 1.564 -7.736 c 0.184 0 0.46 1.617 0.552 3.695 c 0.092 2.078 0.276 4.388 0.46 5.196 l 0.276 1.501 l 2.024 -0.115 c 2.208 0 6.993 -0.693 13.07 -1.848 c 1.932 -0.346 4.876 -0.693 6.625 -0.808 c 2.852 -0.115 3.496 0 6.625 0.808 c 5.428 1.386 6.349 1.27 12.05 -1.386 c 2.208 -1.039 2.944 -1.27 3.128 -1.039 c 0.184 0.231 0.46 0.346 1.104 0.115 c 1.104 -0.462 1.656 -0.462 1.656 0 c 0 0.462 -2.76 2.656 -6.257 4.85 c -1.196 0.808 -2.116 1.501 -2.024 1.617 c 0.092 0.115 2.024 0.346 4.324 0.462 c 4.6 0.231 5.152 0.346 5.152 0.924 c 0 0.693 -0.828 1.039 -4.232 1.848 c -1.656 0.346 -3.036 0.693 -3.128 0.808 c -0.092 0 0.736 1.039 1.748 2.078 c 4.324 4.619 6.165 10.05 5.796 17.205 c -0.644 12.355 -8.925 23.44 -19.782 26.443 c -2.484 0.577 -8.741 0.808 -11.409 0.231 m -129.09 10.05 c 1.104 -1.617 1.012 -3.464 -0.46 -8.66 c -2.392 -7.967 -5.06 -18.937 -6.901 -27.713 c -0.368 -1.848 -0.828 -3.695 -1.012 -4.04 c -0.552 -1.155 -7.085 -7.852 -10.03 -10.277 c -3.404 -2.887 -5.888 -4.157 -7.821 -4.157 c -1.564 0 -2.3 0.577 -3.128 2.54 c -0.46 0.924 -0.552 2.425 -0.736 6.813 c -0.276 12.817 2.024 22.05 7.545 30.14 c 4.508 6.582 17.389 16.512 20.886 16.17 c 0.736 0 1.196 -0.346 1.656 -0.808 m 172.15 -2.425 c 3.312 -1.039 6.349 -3.464 9.477 -7.275 c 5.796 -7.275 10.673 -18.244 11.869 -26.673 c 0.828 -6.351 -1.472 -15.357 -4.324 -16.859 c -1.656 -0.808 -2.392 -0.462 -5.612 3.233 c -5.98 6.697 -8.465 9.815 -8.649 10.97 c -0.828 4.734 -4.876 24.71 -6.073 30.02 c -0.92 3.695 -1.472 6.813 -1.38 6.928 c 0.276 0.462 2.76 0.346 4.692 -0.346" transform="matrix(0.04246 0 0 0.03383 20.288 11.917)" fill="none" stroke="#fff" stroke-linejoin="round" stroke-linecap="round" stroke-width="13.09"/><path d="m -206.44 170.58 c -1.84 -0.462 -8.373 -4.272 -23.646 -13.856 c -21.898 -13.625 -29.718 -19.399 -40.02 -29.56 c -6.257 -6.235 -9.201 -9.699 -12.881 -15.704 c -4.14 -6.697 -8.741 -16.743 -12.697 -27.713 c -1.104 -3 -2.116 -5.543 -2.208 -5.658 c -0.092 -0.231 -0.828 0.462 -1.472 1.501 c -1.472 2.078 -2.944 3.58 -4.784 4.388 c -2.024 0.924 -6.625 0.924 -9.201 0 c -10.397 -3.926 -19.874 -16.974 -24.01 -33.26 c -1.932 -7.621 -2.852 -17.09 -2.3 -23.44 c 0.276 -3.349 1.012 -7.159 1.748 -8.891 c 0.092 -0.346 -1.104 -1.848 -4.048 -5.196 c -6.441 -7.159 -11.593 -13.625 -10.949 -13.625 c 0.184 0 2.024 1.617 4.232 3.695 c 6.073 5.543 6.993 6.351 7.177 6.12 c 0.46 -0.462 -8.465 -13.279 -12.789 -18.244 c -5.428 -6.351 -5.244 -8.429 1.288 -15.473 c 1.472 -1.501 2.576 -3 2.576 -3.233 c 0 -0.924 -4.508 -9.122 -13.525 -24.13 c -4.416 -7.275 -5.612 -9.122 -5.612 -8.314 c 0 0.115 1.288 4.157 2.852 8.891 c 1.564 4.85 2.76 8.776 2.668 8.891 c -0.276 0.231 -2.116 -2.887 -4.6 -7.852 c -4.232 -8.66 -8.189 -17.898 -16.285 -38.567 c -2.944 -7.506 -6.073 -15.588 -7.085 -17.898 c -1.472 -3.58 -1.748 -4.503 -1.84 -6.582 c -0.092 -1.501 0 -2.887 0.276 -3.58 c 0.552 -1.617 7.637 -17.898 11.225 -25.519 c 6.625 -13.972 15.09 -30.14 20.61 -39.26 c 4.416 -7.159 10.857 -16.281 11.317 -15.935 c 0 0.115 -0.46 1.848 -1.196 3.926 c -0.736 2.078 -1.196 3.81 -1.012 3.926 c 0.092 0.115 2.76 -2.309 5.796 -5.543 c 17.389 -17.898 35.607 -33.14 51.984 -43.763 c 2.208 -1.386 4.048 -2.425 4.232 -2.425 c 0.092 0 -0.092 0.577 -0.552 1.386 c -1.288 2.656 -1.104 2.771 2.76 0.462 c 1.656 -0.808 3.036 -1.501 3.036 -1.501 c 0.092 0.115 -0.736 1.501 -1.748 3.118 c -4.048 6 -11.133 18.36 -17.573 30.484 c -3.22 6 -4.14 7.967 -3.772 7.967 c 0.092 0 3.036 -2.887 6.441 -6.466 c 3.496 -3.464 6.349 -6.351 6.441 -6.235 c 0.092 0 -1.012 1.963 -2.484 4.272 c -3.772 5.773 -5.888 9.122 -8.281 13.741 c -10.489 20.21 -9.937 35.68 2.116 53.693 c 6.901 10.277 14.169 18.01 20.886 21.939 c 6.901 4.04 14.169 4.503 20.978 1.155 c 6.165 -3.118 11.961 -9.238 17.665 -18.706 c 3.22 -5.312 9.845 -18.591 12.05 -23.902 c 4.692 -11.431 7.085 -21.477 6.717 -27.482 c -0.184 -2.771 -1.196 -5.196 -3.496 -8.314 c -3.68 -5.312 -12.697 -12.702 -18.862 -15.588 c -1.932 -0.924 -2.3 -1.039 -3.128 -0.693 c -4.508 1.501 -20.794 16.17 -26.958 24.02 c -1.564 2.078 -1.932 2.078 -1.656 0.346 c 0.644 -3.926 2.668 -9.353 5.612 -14.665 c 3.404 -6.12 7.177 -11.431 18.218 -25.519 l 4.876 -6.351 l 1.38 1.039 c 1.748 1.155 4.692 2.656 12.789 6.466 c 3.496 1.501 7.453 3.464 8.833 4.272 c 2.576 1.501 3.036 1.617 3.036 1.155 c 0 -0.462 -2.484 -5.543 -3.496 -7.04 c -0.368 -0.577 -0.644 -1.27 -0.552 -1.27 c 0 -0.115 2.576 1.963 5.612 4.734 c 3.036 2.656 13.525 11.778 23.37 20.21 c 31.28 26.789 30.731 26.327 32.02 29.329 c 2.668 6.235 4.14 16.512 5.336 34.987 c 0.552 9.699 1.012 13.856 1.472 14.318 c 0.276 0.346 1.012 -0.115 3.956 -2.078 c 10.397 -7.04 17.297 -13.51 21.714 -20.09 c 3.128 -4.734 5.152 -9.468 6.809 -16.628 c 0.552 -2.078 1.104 -4.04 1.104 -4.272 c 0.368 -0.924 0.828 0.231 1.104 2.887 c 0.276 2.078 0.184 3.233 -0.092 5.427 c -0.276 1.617 -0.368 3 -0.184 3.118 c 0.368 0.462 2.3 -1.732 3.404 -4.04 c 3.128 -6.12 4.968 -16.281 4.508 -25.17 c -0.276 -7.04 -1.564 -12.471 -4.048 -17.551 c -2.668 -5.081 -6.073 -8.776 -10.673 -10.97 c -6.533 -3.233 -15.273 -3.464 -25.486 -0.693 c -2.116 0.577 -3.956 1.039 -3.956 0.924 c -0.184 -0.115 1.104 -0.924 16.1 -10.05 c 12.973 -7.967 22.818 -14.09 25.67 -16.17 c 0.92 -0.693 1.84 -1.155 1.932 -1.039 c 0.092 0.115 0.46 1.155 0.92 2.309 c 1.564 5.081 6.349 14.896 8 16.628 l 0.736 0.808 l -0.184 -0.808 c -0.092 -0.346 -0.644 -2.771 -1.38 -5.312 c -1.012 -3.926 -3.68 -15.935 -4.416 -19.976 c -0.368 -2.078 0.46 -0.924 2.76 3.81 c 2.576 5.427 5.06 11.09 14.08 32.33 c 20.15 47.573 29.626 67.55 38.28 80.83 c 1.012 1.501 1.748 3 1.748 3.233 c 0 0.346 -1.012 3 -2.392 5.889 c -1.288 3 -2.392 5.427 -2.392 5.543 c 0 0.693 1.38 -0.115 3.496 -2.309 c 1.38 -1.27 2.576 -2.309 2.576 -2.078 c 0 0.577 -1.564 5.658 -2.668 8.66 c -4.508 12.586 -12.145 27.366 -28.338 55.19 l -7.177 12.471 l 1.564 1.848 c 2.392 2.771 3.312 3.926 7.913 10.277 c 2.208 3.118 4.876 6.582 5.888 7.736 c 1.104 1.27 1.932 2.656 2.208 3.58 c 0.46 1.386 0.46 1.501 0 2.309 c -0.92 1.386 -7.453 10.739 -11.04 15.704 c -1.748 2.425 -3.128 4.503 -3.036 4.619 c 0.092 0.115 0.46 0 0.828 -0.115 c 1.104 -0.462 6.257 -4.503 9.477 -7.275 c 1.564 -1.386 2.852 -2.425 2.944 -2.309 c 0.46 0.462 -4.416 7.736 -8.281 12.586 c -3.588 4.503 -9.385 10.161 -14.445 14.09 c -2.024 1.617 -3.956 3.118 -4.14 3.349 c -0.368 0.346 -0.276 0.808 0.828 2.771 c 6.349 12.24 3.312 30.715 -7.637 47.34 c -2.3 3.58 -3.956 5.427 -5.704 6.582 c -3.956 2.425 -9.385 2.771 -14.629 0.924 c -1.196 -0.462 -2.3 -0.808 -2.484 -0.808 c -0.184 0 -0.828 1.27 -1.472 2.887 c -3.956 9.468 -13.433 26.327 -22.726 40.18 c -8.557 12.702 -22.45 30.14 -32.2 40.07 c -6.349 6.582 -7.913 7.967 -10.305 8.891 c -1.932 0.808 -2.208 0.808 -3.956 0.346 m 4.508 -9.584 c 22.266 -19.861 40.02 -42.839 52.35 -67.43 c 4.048 -8.198 5.888 -12.24 8.741 -19.976 c 4.508 -12.12 7.821 -25.06 9.753 -38.34 c 1.288 -9.353 1.656 -14.203 1.656 -25.981 c 0 -12.12 -0.368 -17.667 -1.84 -27.482 c -1.196 -8.545 -1.84 -11.662 -2.484 -12.12 c -0.276 -0.231 -1.196 -1.039 -2.116 -1.848 l -1.564 -1.386 l 3.128 -5.196 c 3.864 -6.466 7.545 -13.279 10.581 -19.745 c 4.324 -9.353 9.109 -21.477 8.557 -21.939 c -0.276 -0.346 -7.913 0.115 -23 1.27 c -32.847 2.425 -61.19 6.697 -80.967 12.24 c -1.748 0.462 -3.312 0.808 -3.404 0.693 c -0.092 0 0.184 -0.462 0.552 -1.039 c 0.368 -0.462 0.552 -0.924 0.46 -1.039 c -0.184 -0.231 -14.813 -4.157 -25.394 -6.928 c -24.382 -6.12 -48.03 -10.508 -67.63 -12.471 c -2.484 -0.346 -4.968 -0.577 -5.612 -0.693 c -0.828 -0.115 -1.196 0 -1.288 0.346 c -0.368 0.808 9.385 19.514 17.757 34.06 c 1.84 3.349 3.404 6.235 3.404 6.351 c 0 0.231 -0.828 1.963 -1.84 3.81 c -2.576 4.734 -6.073 12.355 -8.465 18.36 c -2.3 5.773 -4.692 12.933 -4.692 13.972 c 0 0.462 0.552 2.656 1.196 5.081 c 3.496 13.279 6.257 25.403 9.937 43.878 c 1.288 6.813 2.944 14.896 3.588 17.898 c 5.52 24.364 14.721 43.763 29.626 61.66 c 3.312 4.157 11.593 12.355 16.561 16.628 c 7.913 6.928 17.205 13.51 28.522 20.323 c 7.545 4.503 18.586 10.739 19.322 10.739 c 0.368 0 2.3 -1.501 4.6 -3.695 m -21.254 -47.46 c 0 -0.346 4.508 -2.425 8.097 -3.81 c 4.692 -1.963 10.03 -3.464 15.917 -4.619 c 5.152 -1.039 6.073 -1.27 5.888 -0.808 c -0.276 0.462 -6.901 2.54 -29.35 9.238 c -0.368 0.115 -0.552 0.115 -0.552 0 m 16.837 -17.667 c -2.392 -2.078 -4.416 -4.388 -5.98 -6.813 c -1.472 -2.309 -3.404 -6.235 -3.404 -6.928 c 0 -0.231 1.196 0.693 2.668 2.194 c 6.625 6.351 6.717 6.466 6.993 5.889 c 0.184 -0.231 0.276 -2.078 0.276 -4.157 c 0 -2.078 0.368 -9.238 0.736 -15.935 c 0.46 -6.582 0.828 -14.896 0.92 -18.13 c 0.184 -3.81 0.368 -6.12 0.552 -6.12 c 0.276 0 2.3 1.386 2.668 1.963 c 0.552 0.577 -0.368 16.281 -1.748 31.523 c -0.368 4.388 -0.828 10.161 -1.012 12.817 c -0.184 2.656 -0.46 4.965 -0.644 5.081 c -0.092 0.115 -1.012 -0.462 -2.024 -1.386 m 33.767 -31.87 c -2.668 -0.693 -5.888 -2.309 -8.557 -4.272 c -2.484 -1.963 -4.14 -3.58 -3.864 -3.81 c 0.092 -0.115 1.012 0.231 2.024 0.577 c 1.104 0.462 5.336 2.078 9.385 3.695 c 4.14 1.501 7.637 2.887 7.821 3.118 c 0.552 0.577 -0.368 0.924 -2.76 1.039 c -1.472 0.115 -2.944 -0.115 -4.048 -0.346 m -80.41 -2.194 c 0.092 -0.231 2.116 -1.039 4.324 -1.963 c 2.208 -0.924 6.349 -2.656 9.109 -3.926 c 6.901 -3 7.177 -3 3.128 0.693 c -3.404 3 -5.98 4.157 -11.593 4.965 c -3.404 0.577 -5.428 0.577 -4.968 0.231 m 71.12 -9.815 c -1.932 -0.577 -3.864 -2.54 -4.692 -4.734 c -1.932 -5.312 -1.104 -14.665 1.932 -21.593 c 1.472 -3.349 1.564 -3.349 -0.46 -3.233 c -2.024 0.231 -8.649 0.115 -9.201 -0.115 c -0.276 -0.115 -0.092 -0.577 0.644 -1.617 c 1.196 -1.732 1.748 -4.04 2.392 -9.01 c 0.552 -4.157 0.736 -5.312 0.92 -5.081 c 0.092 0.115 1.012 6.466 1.012 7.159 c 0 0.346 7.177 -0.462 13.341 -1.501 c 8.925 -1.501 11.04 -1.501 15.917 -0.346 c 5.06 1.386 5.98 1.27 12.329 -1.039 c 1.932 -0.808 3.588 -1.27 3.68 -1.155 c 0.46 0.462 -5.704 4.388 -8.281 5.312 c -1.012 0.346 -1.84 0.808 -1.84 0.924 c -0.184 0.577 2.852 1.039 6.257 1.039 c 1.748 0.115 3.404 0.231 3.772 0.346 c 0.552 0.231 0.552 0.231 0 0.462 c -1.288 0.462 -8.649 1.963 -11.961 2.425 c -4.232 0.462 -11.133 1.039 -14.08 1.039 c -1.104 0 -2.024 0.115 -2.116 0.231 c -0.092 0.231 0.276 0.924 0.92 1.617 c 2.576 3.118 3.864 7.506 3.588 12.702 c -0.552 10.854 -7.085 18.36 -14.08 16.17 m -61.921 -2.656 c -4.232 -2.078 -6.993 -7.967 -6.993 -14.665 c -0.092 -4.965 1.104 -8.66 3.68 -11.893 c 0.644 -0.808 1.104 -1.617 1.012 -1.732 c -0.092 0 -2.208 0 -4.692 0.231 c -8.925 0.577 -19.782 0.231 -28.25 -1.039 c -1.656 -0.231 -3.036 -0.462 -3.128 -0.462 c -0.092 0 -0.092 -0.115 -0.092 -0.231 c 0 -0.231 0.644 -0.577 1.564 -0.808 c 2.116 -0.693 5.06 -2.309 4.968 -2.656 c -0.092 -0.115 -1.288 -0.808 -2.668 -1.386 c -2.944 -1.27 -5.428 -2.771 -4.876 -3 c 0.184 0 2.116 0.115 4.232 0.346 c 6.441 0.808 16.377 1.386 32.847 2.078 c 9.201 0.231 9.937 0.231 11.685 -1.039 c 0.368 -0.346 1.104 -1.27 1.564 -2.078 c 0.736 -1.27 0.92 -2.078 1.012 -4.157 c 0.092 -2.425 -0.184 -3.81 -1.288 -6.351 c -0.368 -0.808 0.368 -0.577 1.656 0.577 c 2.208 1.963 3.22 5.081 3.496 10.854 c 0.184 4.503 0.184 4.734 1.288 5.312 c 0.736 0.346 0.828 0.577 0.644 0.808 c -0.644 0.808 -5.704 3 -7.637 3.233 c -1.104 0.231 -2.024 0.462 -2.024 0.577 c 0 0.115 0.368 0.577 0.92 0.924 c 1.196 0.808 3.404 4.272 4.14 6.466 c 0.828 2.309 1.288 6.466 1.104 8.66 c -0.644 5.773 -2.668 9.468 -6.165 11.201 c -1.656 0.808 -2.208 0.924 -4.14 0.924 c -1.932 0 -2.668 -0.115 -3.864 -0.693 m -58.15 27.482 c 0.92 -0.346 1.656 -1.732 1.84 -3.58 c 0.184 -1.155 -0.092 -2.425 -1.288 -6.697 c -1.932 -6.582 -4.416 -16.628 -6.257 -24.941 c -0.736 -3.464 -1.564 -6.697 -1.84 -7.159 c -0.276 -0.346 -2.392 -2.656 -4.692 -5.081 c -6.073 -6.12 -9.937 -8.891 -12.973 -9.238 c -3.864 -0.462 -5.152 3.233 -4.876 13.856 c 0.46 13.741 3.956 22.978 11.501 31.06 c 4.048 4.272 11.409 9.815 14.997 11.316 c 2.024 0.808 2.484 0.808 3.588 0.462 m 174.72 -4.04 c 7.361 -3.58 15.733 -16.512 18.954 -29.1 c 1.104 -4.619 1.288 -7.159 0.736 -11.201 c -0.736 -5.889 -2.392 -9.584 -4.692 -10.739 c -1.012 -0.462 -1.196 -0.462 -2.116 -0.115 c -1.196 0.462 -3.588 3 -8.741 9.122 l -3.588 4.272 l -2.668 13.279 c -1.38 7.39 -3.22 15.935 -3.956 19.17 c -0.736 3.233 -1.38 5.889 -1.38 6.12 c 0 0.462 1.38 0.808 3.128 0.693 c 1.288 -0.115 2.484 -0.577 4.324 -1.501" transform="matrix(0.04246 0 0 0.03383 20.288 11.917)" fill="none" stroke="#fff" stroke-linejoin="round" stroke-linecap="round" stroke-width="13.09"/></g><clipPath id="2"><path d="M 0,0 H22 V22 H0 z"/></clipPath><filter id="0" filterUnits="objectBoundingBox" x="0" y="0" width="22" height="22"><feColorMatrix type="matrix" in="SourceGraphic" values="0 0 0 0 1 0 0 0 0 1 0 0 0 0 1 0 0 0 1 0"/></filter><mask id="1"><g filter="url(#0)"><path fill-opacity="0.149" d="M 0,0 H22 V22 H0 z"/></g></mask></defs><path d="m 3.852 18.809 c -17.344 -22.891 30.387 -26.14 15.07 -2.777 c -3.492 5.328 -10.477 8.84 -15.07 2.777" fill="#778799"/><use xlink:href="#3" mask="url(#1)"/><path d="m 11.504 17.703 c -0.094 -0.023 -0.355 -0.145 -0.992 -0.461 c -0.672 -0.336 -0.895 -0.457 -1.234 -0.672 c -0.238 -0.152 -0.625 -0.441 -0.77 -0.582 c -0.301 -0.297 -0.562 -0.703 -0.824 -1.289 c -0.027 -0.059 -0.055 -0.109 -0.059 -0.109 c -0.004 0 -0.012 0.012 -0.016 0.023 c -0.016 0.035 -0.148 0.137 -0.219 0.16 c -0.086 0.031 -0.25 0.039 -0.355 0.016 c -0.449 -0.102 -0.883 -0.543 -1.074 -1.09 c -0.133 -0.383 -0.164 -0.836 -0.07 -1.09 l 0.027 -0.082 l -0.035 -0.031 c -0.227 -0.195 -0.438 -0.398 -0.59 -0.555 c -0.082 -0.09 -0.102 -0.121 -0.07 -0.121 c 0.012 0 0.117 0.07 0.234 0.156 c 0.117 0.086 0.219 0.156 0.223 0.152 c 0.012 -0.012 -0.293 -0.348 -0.449 -0.496 c -0.117 -0.109 -0.16 -0.172 -0.172 -0.238 c -0.012 -0.074 0.043 -0.152 0.199 -0.293 c 0.07 -0.063 0.129 -0.117 0.129 -0.121 c 0 -0.027 -0.695 -0.984 -0.707 -0.973 c -0.004 0 0.043 0.121 0.102 0.266 c 0.109 0.262 0.117 0.309 0.059 0.262 c -0.039 -0.023 -0.137 -0.156 -0.227 -0.305 c -0.168 -0.262 -0.359 -0.625 -0.711 -1.344 c -0.129 -0.258 -0.258 -0.523 -0.293 -0.586 c -0.063 -0.125 -0.082 -0.207 -0.07 -0.289 c 0.023 -0.125 0.68 -1.254 1.035 -1.777 c 0.293 -0.434 0.547 -0.75 0.781 -0.988 c 0.121 -0.117 0.176 -0.141 0.117 -0.047 c -0.035 0.055 -0.113 0.223 -0.113 0.242 c 0 0.004 0.168 -0.121 0.367 -0.277 c 0.395 -0.313 0.574 -0.445 0.852 -0.637 c 0.375 -0.254 0.688 -0.445 1.051 -0.637 c 0.395 -0.211 0.434 -0.223 0.328 -0.09 c -0.016 0.02 -0.023 0.035 -0.023 0.039 c 0.004 0 0.063 -0.023 0.129 -0.051 c 0.117 -0.055 0.164 -0.066 0.164 -0.047 c 0 0.008 -0.055 0.074 -0.121 0.156 c -0.063 0.078 -0.168 0.211 -0.227 0.293 c -0.219 0.297 -0.609 0.863 -0.609 0.883 c 0 0.008 0.121 -0.086 0.266 -0.203 c 0.145 -0.121 0.273 -0.219 0.285 -0.227 c 0.055 -0.023 0.027 0.02 -0.125 0.207 c -0.387 0.461 -0.578 0.777 -0.668 1.102 c -0.039 0.133 -0.043 0.41 -0.008 0.539 c 0.102 0.363 0.406 0.773 0.852 1.141 c 0.566 0.469 1.117 0.492 1.629 0.078 c 0.211 -0.172 0.43 -0.449 0.695 -0.879 c 0.301 -0.492 0.477 -0.938 0.477 -1.211 c 0 -0.152 -0.094 -0.289 -0.316 -0.469 c -0.199 -0.156 -0.512 -0.336 -0.664 -0.379 c -0.051 -0.016 -0.059 -0.016 -0.102 0.004 c -0.07 0.027 -0.234 0.125 -0.395 0.23 c -0.184 0.125 -0.563 0.426 -0.688 0.547 c -0.059 0.059 -0.105 0.094 -0.121 0.094 c -0.023 0 -0.023 -0.004 -0.016 -0.063 c 0.016 -0.137 0.109 -0.332 0.246 -0.527 c 0.152 -0.215 0.387 -0.473 0.965 -1.059 c 0.023 -0.023 0.035 -0.027 0.047 -0.02 c 0.121 0.066 0.215 0.109 0.477 0.203 c 0.168 0.063 0.363 0.137 0.434 0.164 c 0.066 0.031 0.129 0.051 0.129 0.051 c 0.008 -0.008 -0.098 -0.172 -0.164 -0.25 c -0.035 -0.043 -0.063 -0.082 -0.063 -0.086 c 0 -0.02 0.047 0.004 0.168 0.094 c 0.227 0.168 0.602 0.426 1.426 0.988 c 0.891 0.605 1.063 0.727 1.098 0.773 c 0.027 0.039 0.09 0.188 0.125 0.301 c 0.059 0.199 0.098 0.48 0.133 0.945 c 0.02 0.25 0.043 0.469 0.051 0.473 c 0.016 0.016 0.41 -0.215 0.605 -0.348 c 0.422 -0.289 0.613 -0.543 0.75 -0.988 c 0.063 -0.199 0.09 -0.211 0.125 -0.039 c 0.016 0.078 0.02 0.109 0.008 0.191 c -0.008 0.051 -0.012 0.098 -0.012 0.098 c 0.016 0.012 0.113 -0.129 0.148 -0.207 c 0.094 -0.207 0.133 -0.398 0.133 -0.652 c 0 -0.281 -0.043 -0.465 -0.152 -0.648 c -0.164 -0.273 -0.41 -0.426 -0.773 -0.469 c -0.219 -0.027 -0.563 0.004 -0.871 0.086 c -0.094 0.023 -0.141 0.031 -0.152 0.023 c -0.02 -0.016 0.02 -0.035 0.379 -0.211 c 0.789 -0.383 1.066 -0.52 1.309 -0.648 c 0.184 -0.094 0.266 -0.133 0.277 -0.125 c 0.012 0.004 0.031 0.039 0.047 0.078 c 0.055 0.137 0.266 0.504 0.281 0.488 c 0.004 0 -0.012 -0.063 -0.035 -0.141 c -0.066 -0.207 -0.191 -0.695 -0.184 -0.703 c 0.047 -0.039 0.164 0.152 0.563 0.895 c 0.508 0.945 0.773 1.441 0.914 1.688 c 0.406 0.719 0.684 1.152 0.938 1.461 c 0.059 0.07 0.066 0.09 0.063 0.117 c -0.004 0.02 -0.047 0.102 -0.094 0.184 c -0.047 0.082 -0.082 0.152 -0.078 0.152 c 0.004 0.004 0.051 -0.031 0.105 -0.078 c 0.117 -0.102 0.141 -0.102 0.113 0 c -0.121 0.422 -0.516 1.062 -1.41 2.281 c -0.105 0.137 -0.188 0.258 -0.188 0.27 c 0 0.008 0.016 0.027 0.035 0.039 c 0.051 0.039 0.152 0.145 0.336 0.352 c 0.098 0.105 0.207 0.219 0.246 0.254 c 0.117 0.105 0.152 0.18 0.113 0.234 c -0.012 0.02 -0.07 0.086 -0.129 0.152 c -0.293 0.324 -0.422 0.473 -0.418 0.477 c 0.008 0.004 0.203 -0.117 0.359 -0.223 c 0.145 -0.102 0.195 -0.125 0.195 -0.098 c 0 0.02 -0.152 0.219 -0.258 0.332 c -0.207 0.234 -0.441 0.43 -0.75 0.625 c -0.094 0.059 -0.172 0.113 -0.172 0.117 c -0.004 0.004 0.016 0.047 0.047 0.094 c 0.25 0.418 0.117 1.051 -0.34 1.598 c -0.121 0.141 -0.215 0.215 -0.328 0.258 c -0.148 0.055 -0.383 0.059 -0.563 0.004 c -0.047 -0.012 -0.09 -0.02 -0.098 -0.016 c -0.004 0.004 -0.039 0.066 -0.078 0.137 c -0.195 0.352 -0.527 0.816 -0.93 1.297 c -0.313 0.367 -0.406 0.469 -0.805 0.852 c -0.352 0.336 -0.746 0.672 -0.887 0.758 c -0.07 0.043 -0.195 0.086 -0.242 0.082 c -0.016 0 -0.051 -0.004 -0.082 -0.012" fill="#e2c181"/><path d="m 11.504 17.695 c -0.078 -0.02 -0.379 -0.16 -0.992 -0.465 c -0.672 -0.332 -0.898 -0.457 -1.23 -0.664 c -0.223 -0.145 -0.637 -0.457 -0.766 -0.586 c -0.277 -0.27 -0.543 -0.676 -0.785 -1.207 c -0.051 -0.102 -0.094 -0.188 -0.098 -0.191 c -0.008 0 -0.031 0.023 -0.055 0.051 c -0.148 0.184 -0.438 0.215 -0.734 0.086 c -0.375 -0.168 -0.715 -0.566 -0.875 -1.027 c -0.078 -0.215 -0.125 -0.492 -0.125 -0.715 c 0.004 -0.148 0.016 -0.246 0.055 -0.367 l 0.027 -0.086 l -0.055 -0.051 c -0.469 -0.422 -0.656 -0.609 -0.633 -0.629 c 0.008 -0.008 0.09 0.047 0.313 0.211 c 0.094 0.066 0.172 0.121 0.176 0.117 c 0.016 -0.012 -0.324 -0.391 -0.484 -0.539 c -0.188 -0.176 -0.215 -0.27 -0.117 -0.387 c 0.023 -0.031 0.098 -0.102 0.16 -0.156 l 0.117 -0.105 l -0.039 -0.063 c -0.102 -0.168 -0.707 -0.98 -0.711 -0.957 c -0.004 0.008 0.043 0.129 0.102 0.273 c 0.063 0.141 0.109 0.266 0.109 0.273 c 0 0.063 -0.09 -0.047 -0.238 -0.281 c -0.18 -0.285 -0.371 -0.648 -0.715 -1.352 c -0.113 -0.227 -0.234 -0.477 -0.277 -0.551 c -0.09 -0.18 -0.105 -0.25 -0.078 -0.336 c 0.063 -0.188 0.727 -1.316 1.062 -1.805 c 0.309 -0.449 0.668 -0.891 0.813 -0.996 c 0.043 -0.027 0.043 -0.031 -0.027 0.129 c -0.027 0.063 -0.055 0.121 -0.059 0.137 c -0.008 0.016 0.137 -0.094 0.383 -0.285 c 0.75 -0.59 1.297 -0.957 1.949 -1.301 c 0.223 -0.117 0.309 -0.156 0.316 -0.145 c 0.004 0.004 -0.008 0.027 -0.031 0.055 c -0.035 0.043 -0.051 0.074 -0.035 0.074 c 0.004 0 0.063 -0.027 0.133 -0.059 c 0.117 -0.051 0.156 -0.063 0.156 -0.047 c 0 0.004 -0.035 0.043 -0.074 0.094 c -0.109 0.125 -0.352 0.453 -0.547 0.73 c -0.188 0.27 -0.359 0.531 -0.359 0.543 c 0 0.004 0.129 -0.098 0.285 -0.223 c 0.16 -0.129 0.293 -0.23 0.297 -0.223 c 0 0.008 -0.059 0.086 -0.133 0.18 c -0.402 0.477 -0.594 0.797 -0.676 1.137 c -0.031 0.137 -0.027 0.375 0.008 0.512 c 0.098 0.371 0.418 0.793 0.879 1.16 c 0.258 0.203 0.453 0.301 0.699 0.34 c 0.402 0.066 0.813 -0.121 1.16 -0.527 c 0.23 -0.27 0.539 -0.754 0.711 -1.113 c 0.16 -0.336 0.246 -0.676 0.207 -0.828 c -0.039 -0.148 -0.203 -0.324 -0.469 -0.5 c -0.219 -0.148 -0.48 -0.273 -0.563 -0.273 c -0.047 0 -0.215 0.086 -0.426 0.227 c -0.191 0.129 -0.598 0.449 -0.719 0.57 c -0.047 0.047 -0.09 0.086 -0.102 0.086 c -0.059 0 0.039 -0.277 0.168 -0.48 c 0.141 -0.223 0.309 -0.422 0.637 -0.754 c 0.098 -0.102 0.23 -0.234 0.293 -0.301 c 0.063 -0.066 0.121 -0.121 0.125 -0.121 c 0.008 0 0.035 0.016 0.059 0.031 c 0.059 0.035 0.203 0.094 0.559 0.223 c 0.145 0.055 0.309 0.117 0.359 0.141 c 0.051 0.023 0.098 0.043 0.102 0.039 c 0.008 -0.008 -0.094 -0.16 -0.16 -0.246 c -0.031 -0.043 -0.055 -0.078 -0.051 -0.082 c 0.008 -0.008 0.027 0.008 0.348 0.234 c 0.125 0.09 0.625 0.438 1.113 0.77 c 0.488 0.332 0.949 0.648 1.027 0.707 c 0.129 0.094 0.145 0.109 0.18 0.176 c 0.121 0.23 0.184 0.563 0.234 1.227 c 0.012 0.203 0.035 0.402 0.043 0.43 c 0.004 0.008 0.012 0.016 0.02 0.016 c 0.004 0 0.09 -0.047 0.191 -0.102 c 0.578 -0.324 0.883 -0.594 1.043 -0.918 c 0.027 -0.059 0.078 -0.188 0.109 -0.289 c 0.039 -0.113 0.066 -0.184 0.078 -0.184 c 0.039 0 0.063 0.23 0.039 0.367 l -0.012 0.055 l 0.031 -0.023 c 0.082 -0.059 0.176 -0.25 0.234 -0.465 c 0.043 -0.168 0.055 -0.52 0.023 -0.688 c -0.078 -0.398 -0.301 -0.664 -0.652 -0.781 c -0.141 -0.047 -0.262 -0.063 -0.469 -0.063 c -0.219 0 -0.379 0.023 -0.625 0.082 c -0.262 0.063 -0.242 0.051 0.313 -0.219 c 0.707 -0.344 0.957 -0.469 1.203 -0.598 c 0.133 -0.066 0.246 -0.121 0.254 -0.121 c 0.008 0.004 0.031 0.051 0.055 0.105 c 0.07 0.164 0.289 0.523 0.305 0.508 c 0.004 0 -0.016 -0.074 -0.043 -0.16 c -0.074 -0.227 -0.199 -0.719 -0.188 -0.727 c 0.035 -0.027 0.184 0.223 0.586 0.977 c 0.742 1.395 0.98 1.816 1.293 2.324 c 0.199 0.32 0.352 0.539 0.488 0.711 c 0.074 0.09 0.098 0.125 0.09 0.141 c -0.004 0.012 -0.051 0.098 -0.102 0.188 c -0.051 0.09 -0.094 0.168 -0.09 0.172 c 0.012 0.008 0.094 -0.055 0.16 -0.113 c 0.094 -0.09 0.102 -0.07 0.035 0.113 c -0.074 0.215 -0.285 0.602 -0.52 0.965 c -0.215 0.324 -0.43 0.633 -0.813 1.152 c -0.121 0.168 -0.223 0.313 -0.227 0.32 c -0.004 0.016 0.016 0.039 0.066 0.086 c 0.043 0.035 0.168 0.164 0.281 0.289 c 0.109 0.125 0.234 0.254 0.273 0.293 c 0.113 0.102 0.148 0.176 0.105 0.227 c -0.074 0.09 -0.453 0.512 -0.504 0.566 c -0.035 0.035 -0.063 0.07 -0.063 0.074 c 0 0.023 0.254 -0.129 0.449 -0.27 c 0.098 -0.07 0.113 -0.078 0.113 -0.051 c 0 0.031 -0.207 0.285 -0.371 0.449 c -0.141 0.145 -0.414 0.355 -0.625 0.492 c -0.098 0.063 -0.176 0.117 -0.176 0.121 c 0 0.008 0.016 0.039 0.039 0.07 c 0.098 0.141 0.133 0.281 0.133 0.508 c 0 0.195 -0.02 0.305 -0.09 0.492 c -0.105 0.27 -0.328 0.602 -0.512 0.762 c -0.109 0.094 -0.281 0.152 -0.445 0.152 c -0.082 0 -0.242 -0.023 -0.324 -0.051 c -0.035 -0.012 -0.066 -0.02 -0.07 -0.016 c 0 0 -0.035 0.063 -0.074 0.133 c -0.238 0.434 -0.723 1.086 -1.23 1.648 c -0.254 0.281 -0.84 0.832 -1.141 1.074 c -0.223 0.18 -0.277 0.219 -0.344 0.242 c -0.082 0.031 -0.168 0.039 -0.23 0.023 m 0.152 -0.313 c 0.199 -0.141 0.512 -0.383 0.691 -0.535 c 0.949 -0.813 1.621 -1.684 2.02 -2.633 c 0.281 -0.672 0.406 -1.281 0.406 -1.988 c 0 -0.395 -0.035 -0.742 -0.117 -1.121 c -0.039 -0.18 -0.039 -0.184 -0.086 -0.223 c -0.023 -0.02 -0.063 -0.047 -0.086 -0.059 c -0.023 -0.012 -0.043 -0.031 -0.047 -0.035 c -0.004 -0.008 0.051 -0.094 0.125 -0.188 c 0.23 -0.309 0.406 -0.582 0.586 -0.914 c 0.102 -0.184 0.238 -0.477 0.23 -0.484 c -0.004 0 -0.156 0.004 -0.34 0.012 c -1.75 0.09 -2.898 0.215 -3.945 0.43 c -0.172 0.035 -0.277 0.051 -0.285 0.047 c -0.008 -0.008 0 -0.023 0.016 -0.043 c 0.016 -0.016 0.027 -0.035 0.023 -0.035 c -0.012 -0.012 -0.668 -0.152 -1.105 -0.238 c -0.82 -0.164 -1.543 -0.277 -2.254 -0.359 c -0.289 -0.031 -0.816 -0.078 -0.824 -0.074 c -0.02 0.016 0.551 0.871 0.84 1.262 c 0.031 0.047 0.063 0.094 0.063 0.098 c 0 0.008 -0.027 0.051 -0.055 0.09 c -0.188 0.262 -0.461 0.777 -0.563 1.055 l -0.031 0.086 l 0.031 0.086 c 0.141 0.406 0.289 0.918 0.469 1.648 c 0.172 0.688 0.266 0.977 0.434 1.316 c 0.473 0.949 1.246 1.688 2.445 2.316 c 0.348 0.184 1.168 0.563 1.219 0.566 c 0.012 0 0.074 -0.039 0.141 -0.082 m -0.98 -1.586 c 0.004 -0.016 0.195 -0.098 0.379 -0.16 c 0.281 -0.094 0.648 -0.176 0.984 -0.219 c 0.109 -0.012 0.156 -0.008 0.129 0.016 c -0.023 0.02 -0.285 0.086 -0.848 0.223 c -0.297 0.074 -0.555 0.137 -0.578 0.141 c -0.047 0.016 -0.074 0.016 -0.066 0 m 0.789 -0.664 c -0.137 -0.109 -0.242 -0.227 -0.32 -0.363 c -0.051 -0.078 -0.078 -0.148 -0.063 -0.148 c 0.004 0 0.102 0.074 0.215 0.164 c 0.113 0.09 0.215 0.16 0.219 0.16 c 0.004 0 0.008 -0.043 0.008 -0.098 c 0 -0.055 0.016 -0.285 0.035 -0.516 c 0.016 -0.227 0.035 -0.52 0.039 -0.645 c 0.004 -0.129 0.012 -0.238 0.02 -0.246 c 0.012 -0.016 0.047 0 0.121 0.051 l 0.055 0.039 l -0.012 0.238 c -0.016 0.266 -0.039 0.496 -0.082 0.914 c -0.02 0.152 -0.035 0.324 -0.039 0.379 c -0.012 0.148 -0.016 0.168 -0.047 0.168 c -0.012 0 -0.078 -0.043 -0.148 -0.098 m -1.957 -0.902 c -0.195 -0.016 -0.41 -0.066 -0.543 -0.133 c -0.109 -0.051 -0.242 -0.152 -0.313 -0.238 c -0.121 -0.145 -0.238 -0.383 -0.262 -0.527 c -0.02 -0.109 0.004 -0.215 0.07 -0.32 c 0.059 -0.094 0.199 -0.215 0.336 -0.289 c 0.121 -0.066 0.109 -0.059 0.102 -0.066 c -0.004 0 -0.094 -0.012 -0.207 -0.02 c -0.289 -0.023 -0.426 -0.039 -0.457 -0.063 c -0.016 -0.012 -0.063 -0.027 -0.102 -0.035 c -0.117 -0.016 -0.199 -0.039 -0.199 -0.051 c 0 -0.004 0.031 -0.008 0.074 -0.008 c 0.07 0 0.301 -0.023 0.348 -0.035 c 0.035 -0.012 0.031 -0.02 -0.031 -0.047 c -0.07 -0.039 -0.207 -0.137 -0.199 -0.145 c 0.008 -0.004 0.051 0 0.105 0.012 c 0.203 0.047 0.492 0.066 1.176 0.094 c 0.605 0.02 0.801 0.023 0.848 0.008 c 0.148 -0.035 0.215 -0.23 0.133 -0.387 c -0.051 -0.094 -0.051 -0.098 -0.023 -0.098 c 0.039 0 0.152 0.086 0.188 0.141 c 0.047 0.07 0.059 0.125 0.074 0.289 l 0.016 0.152 l 0.043 0.02 c 0.027 0.008 0.047 0.023 0.047 0.027 c 0 0.031 -0.293 0.141 -0.371 0.141 c -0.039 0 -0.039 0.012 0 0.039 c 0.059 0.047 0.238 0.277 0.27 0.348 c 0.047 0.105 0.063 0.223 0.043 0.336 c -0.074 0.461 -0.566 0.867 -1.039 0.859 c -0.039 0 -0.098 -0.004 -0.125 -0.004 m 3.465 -0.102 c -0.285 -0.043 -0.559 -0.141 -0.703 -0.258 c -0.074 -0.055 -0.141 -0.137 -0.172 -0.207 c -0.035 -0.078 -0.047 -0.234 -0.023 -0.336 c 0.035 -0.156 0.145 -0.355 0.297 -0.535 l 0.082 -0.094 l -0.223 -0.004 c -0.258 -0.008 -0.273 -0.012 -0.203 -0.07 c 0.063 -0.055 0.094 -0.141 0.125 -0.352 c 0.027 -0.184 0.047 -0.262 0.066 -0.262 c 0.008 0 0.02 0.055 0.023 0.125 c 0.004 0.07 0.012 0.148 0.02 0.176 l 0.012 0.051 l 0.086 -0.004 c 0.094 0 0.297 -0.023 0.555 -0.063 c 0.082 -0.012 0.207 -0.023 0.281 -0.027 c 0.121 -0.004 0.148 0 0.281 0.027 c 0.23 0.047 0.27 0.043 0.512 -0.047 c 0.094 -0.035 0.125 -0.043 0.133 -0.035 c 0.008 0.008 0.02 0.012 0.047 0.004 c 0.047 -0.016 0.07 -0.016 0.07 0 c 0 0.016 -0.117 0.09 -0.266 0.164 c -0.051 0.027 -0.09 0.051 -0.086 0.055 c 0.004 0.004 0.086 0.012 0.184 0.016 c 0.195 0.008 0.219 0.012 0.219 0.031 c 0 0.023 -0.035 0.035 -0.18 0.063 c -0.07 0.012 -0.129 0.023 -0.133 0.027 c -0.004 0 0.031 0.035 0.074 0.07 c 0.184 0.156 0.262 0.34 0.246 0.582 c -0.027 0.418 -0.379 0.793 -0.84 0.895 c -0.105 0.02 -0.371 0.027 -0.484 0.008 m -5.48 0.34 c 0.047 -0.055 0.043 -0.117 -0.02 -0.293 c -0.102 -0.27 -0.215 -0.641 -0.293 -0.938 c -0.016 -0.063 -0.035 -0.125 -0.043 -0.137 c -0.023 -0.039 -0.301 -0.266 -0.426 -0.348 c -0.145 -0.098 -0.25 -0.141 -0.332 -0.141 c -0.066 0 -0.098 0.02 -0.133 0.086 c -0.02 0.031 -0.023 0.082 -0.031 0.23 c -0.012 0.434 0.086 0.746 0.32 1.02 c 0.191 0.223 0.738 0.559 0.887 0.547 c 0.031 0 0.051 -0.012 0.07 -0.027 m 7.309 -0.082 c 0.141 -0.035 0.27 -0.117 0.402 -0.246 c 0.246 -0.246 0.453 -0.617 0.504 -0.902 c 0.035 -0.215 -0.063 -0.52 -0.184 -0.57 c -0.07 -0.027 -0.102 -0.016 -0.238 0.109 c -0.254 0.227 -0.359 0.332 -0.367 0.371 c -0.035 0.16 -0.207 0.836 -0.258 1.016 c -0.039 0.125 -0.063 0.23 -0.059 0.234 c 0.012 0.016 0.117 0.012 0.199 -0.012" fill="#a39063"/><path d="m 11.523 17.688 c -0.078 -0.016 -0.355 -0.145 -1 -0.469 c -0.93 -0.461 -1.262 -0.656 -1.699 -1 c -0.266 -0.211 -0.391 -0.328 -0.547 -0.531 c -0.176 -0.227 -0.371 -0.566 -0.539 -0.938 c -0.047 -0.102 -0.09 -0.188 -0.094 -0.191 c -0.004 -0.008 -0.035 0.016 -0.063 0.051 c -0.063 0.07 -0.125 0.121 -0.203 0.148 c -0.086 0.031 -0.281 0.031 -0.391 0 c -0.441 -0.133 -0.844 -0.574 -1.02 -1.125 c -0.082 -0.258 -0.121 -0.578 -0.098 -0.793 c 0.012 -0.113 0.043 -0.242 0.074 -0.301 c 0.004 -0.012 -0.047 -0.063 -0.172 -0.176 c -0.273 -0.242 -0.492 -0.461 -0.465 -0.461 c 0.008 0 0.086 0.055 0.18 0.125 c 0.258 0.188 0.297 0.215 0.305 0.207 c 0.02 -0.016 -0.359 -0.449 -0.543 -0.617 c -0.23 -0.215 -0.223 -0.285 0.055 -0.523 c 0.063 -0.051 0.109 -0.102 0.109 -0.109 c 0 -0.031 -0.191 -0.309 -0.574 -0.816 c -0.188 -0.246 -0.238 -0.309 -0.238 -0.281 c 0 0.004 0.055 0.141 0.121 0.301 c 0.066 0.164 0.117 0.297 0.113 0.301 c -0.012 0.008 -0.09 -0.098 -0.195 -0.266 c -0.18 -0.293 -0.348 -0.605 -0.691 -1.305 c -0.125 -0.254 -0.258 -0.527 -0.301 -0.605 c -0.063 -0.121 -0.074 -0.152 -0.078 -0.223 c -0.004 -0.051 0 -0.098 0.012 -0.121 c 0.023 -0.055 0.324 -0.605 0.477 -0.863 c 0.281 -0.473 0.641 -1.02 0.875 -1.328 c 0.188 -0.242 0.461 -0.551 0.48 -0.539 c 0 0.004 -0.02 0.063 -0.051 0.133 c -0.031 0.07 -0.051 0.129 -0.043 0.133 c 0.004 0.004 0.117 -0.078 0.246 -0.188 c 0.738 -0.605 1.512 -1.121 2.207 -1.48 c 0.094 -0.047 0.172 -0.082 0.18 -0.082 c 0.004 0 -0.004 0.02 -0.023 0.047 c -0.055 0.09 -0.047 0.094 0.117 0.016 c 0.07 -0.027 0.129 -0.051 0.129 -0.051 c 0.004 0.004 -0.031 0.051 -0.074 0.105 c -0.172 0.203 -0.473 0.621 -0.746 1.031 c -0.137 0.203 -0.176 0.27 -0.16 0.27 c 0.004 0 0.129 -0.098 0.273 -0.219 c 0.148 -0.117 0.27 -0.215 0.273 -0.211 c 0.004 0 -0.043 0.066 -0.105 0.145 c -0.16 0.195 -0.25 0.309 -0.352 0.465 c -0.445 0.684 -0.422 1.207 0.09 1.816 c 0.293 0.348 0.602 0.609 0.887 0.742 c 0.293 0.137 0.602 0.152 0.891 0.039 c 0.262 -0.105 0.508 -0.313 0.75 -0.633 c 0.137 -0.18 0.418 -0.629 0.512 -0.809 c 0.199 -0.387 0.301 -0.727 0.285 -0.93 c -0.008 -0.094 -0.051 -0.176 -0.148 -0.281 c -0.156 -0.18 -0.539 -0.43 -0.801 -0.527 c -0.082 -0.031 -0.098 -0.035 -0.133 -0.023 c -0.191 0.051 -0.883 0.547 -1.145 0.813 c -0.066 0.07 -0.082 0.07 -0.07 0.012 c 0.027 -0.133 0.113 -0.316 0.238 -0.496 c 0.145 -0.207 0.305 -0.387 0.773 -0.863 l 0.207 -0.215 l 0.059 0.035 c 0.074 0.039 0.199 0.09 0.543 0.219 c 0.148 0.051 0.316 0.117 0.375 0.145 c 0.109 0.051 0.129 0.055 0.129 0.039 c 0 -0.016 -0.105 -0.188 -0.148 -0.238 c -0.016 -0.02 -0.027 -0.043 -0.023 -0.043 c 0 -0.004 0.109 0.066 0.238 0.16 c 0.129 0.09 0.574 0.398 0.992 0.684 c 1.328 0.906 1.305 0.891 1.359 0.992 c 0.113 0.211 0.176 0.559 0.227 1.184 c 0.023 0.328 0.043 0.469 0.063 0.484 c 0.012 0.012 0.043 -0.004 0.168 -0.07 c 0.441 -0.238 0.734 -0.457 0.922 -0.68 c 0.133 -0.16 0.219 -0.32 0.289 -0.563 c 0.023 -0.07 0.047 -0.137 0.047 -0.145 c 0.016 -0.031 0.035 0.008 0.047 0.098 c 0.012 0.07 0.008 0.109 -0.004 0.184 c -0.012 0.055 -0.016 0.102 -0.008 0.105 c 0.016 0.016 0.098 -0.059 0.145 -0.137 c 0.133 -0.207 0.211 -0.551 0.191 -0.852 c -0.012 -0.238 -0.066 -0.422 -0.172 -0.594 c -0.113 -0.172 -0.258 -0.297 -0.453 -0.371 c -0.277 -0.109 -0.648 -0.117 -1.082 -0.023 c -0.09 0.02 -0.168 0.035 -0.168 0.031 c -0.008 -0.004 0.047 -0.031 0.684 -0.34 c 0.551 -0.27 0.969 -0.477 1.09 -0.547 c 0.039 -0.023 0.078 -0.039 0.082 -0.035 c 0.004 0.004 0.02 0.039 0.039 0.078 c 0.066 0.172 0.27 0.504 0.34 0.563 l 0.031 0.027 l -0.008 -0.027 c -0.004 -0.012 -0.027 -0.094 -0.059 -0.18 c -0.043 -0.133 -0.156 -0.539 -0.188 -0.676 c -0.016 -0.07 0.02 -0.031 0.117 0.129 c 0.109 0.184 0.215 0.375 0.598 1.094 c 0.855 1.609 1.258 2.285 1.625 2.734 c 0.043 0.051 0.074 0.102 0.074 0.109 c 0 0.012 -0.043 0.102 -0.102 0.199 c -0.055 0.102 -0.102 0.184 -0.102 0.188 c 0 0.023 0.059 -0.004 0.148 -0.078 c 0.059 -0.043 0.109 -0.078 0.109 -0.07 c 0 0.02 -0.066 0.191 -0.113 0.293 c -0.191 0.426 -0.516 0.926 -1.203 1.867 l -0.305 0.422 l 0.066 0.063 c 0.102 0.094 0.141 0.133 0.336 0.348 c 0.094 0.105 0.207 0.223 0.25 0.262 c 0.047 0.043 0.082 0.09 0.094 0.121 c 0.02 0.047 0.02 0.051 0 0.078 c -0.039 0.047 -0.316 0.363 -0.469 0.531 c -0.074 0.082 -0.133 0.152 -0.129 0.156 c 0.004 0.004 0.02 0 0.035 -0.004 c 0.047 -0.016 0.266 -0.152 0.402 -0.246 c 0.066 -0.047 0.121 -0.082 0.125 -0.078 c 0.02 0.016 -0.188 0.262 -0.352 0.426 c -0.152 0.152 -0.398 0.344 -0.613 0.477 c -0.086 0.055 -0.168 0.105 -0.176 0.113 c -0.016 0.012 -0.012 0.027 0.035 0.094 c 0.27 0.414 0.141 1.039 -0.324 1.602 c -0.098 0.121 -0.168 0.184 -0.242 0.223 c -0.168 0.082 -0.398 0.094 -0.621 0.031 c -0.051 -0.016 -0.098 -0.027 -0.105 -0.027 c -0.008 0 -0.035 0.043 -0.063 0.098 c -0.168 0.32 -0.57 0.891 -0.965 1.359 c -0.363 0.43 -0.953 1.02 -1.367 1.355 c -0.27 0.223 -0.336 0.27 -0.438 0.301 c -0.082 0.027 -0.094 0.027 -0.168 0.012 m 0.191 -0.324 c 0.945 -0.672 1.699 -1.449 2.223 -2.281 c 0.172 -0.277 0.25 -0.414 0.371 -0.676 c 0.191 -0.41 0.332 -0.848 0.414 -1.297 c 0.055 -0.316 0.07 -0.48 0.07 -0.879 c 0 -0.41 -0.016 -0.598 -0.078 -0.93 c -0.051 -0.289 -0.078 -0.395 -0.105 -0.41 c -0.012 -0.008 -0.051 -0.035 -0.09 -0.063 l -0.066 -0.047 l 0.133 -0.176 c 0.164 -0.219 0.32 -0.449 0.449 -0.668 c 0.184 -0.316 0.387 -0.727 0.363 -0.742 c -0.012 -0.012 -0.336 0.004 -0.977 0.043 c -1.395 0.082 -2.598 0.227 -3.438 0.414 c -0.074 0.016 -0.141 0.027 -0.145 0.023 c -0.004 0 0.008 -0.016 0.023 -0.035 c 0.016 -0.016 0.023 -0.031 0.02 -0.035 c -0.008 -0.008 -0.629 -0.141 -1.078 -0.234 c -1.035 -0.207 -2.039 -0.355 -2.871 -0.422 c -0.105 -0.012 -0.211 -0.02 -0.238 -0.023 c -0.035 -0.004 -0.051 0 -0.055 0.012 c -0.016 0.027 0.398 0.66 0.754 1.152 c 0.078 0.113 0.145 0.211 0.145 0.215 c 0 0.008 -0.035 0.066 -0.078 0.129 c -0.109 0.16 -0.258 0.418 -0.359 0.621 c -0.098 0.195 -0.199 0.438 -0.199 0.473 c 0 0.016 0.023 0.09 0.051 0.172 c 0.148 0.449 0.266 0.859 0.422 1.484 c 0.055 0.23 0.125 0.504 0.152 0.605 c 0.234 0.824 0.625 1.48 1.258 2.086 c 0.141 0.141 0.492 0.418 0.703 0.563 c 0.336 0.234 0.73 0.457 1.211 0.688 c 0.32 0.152 0.789 0.363 0.82 0.363 c 0.016 0 0.098 -0.051 0.195 -0.125 m -0.902 -1.605 c 0 -0.012 0.191 -0.082 0.344 -0.129 c 0.199 -0.066 0.426 -0.117 0.676 -0.156 c 0.219 -0.035 0.258 -0.043 0.25 -0.027 c -0.012 0.016 -0.293 0.086 -1.246 0.313 c -0.016 0.004 -0.023 0.004 -0.023 0 m 0.715 -0.598 c -0.102 -0.07 -0.188 -0.148 -0.254 -0.23 c -0.063 -0.078 -0.145 -0.211 -0.145 -0.234 c 0 -0.008 0.051 0.023 0.113 0.074 c 0.281 0.215 0.285 0.219 0.297 0.199 c 0.008 -0.008 0.012 -0.07 0.012 -0.141 c 0 -0.07 0.016 -0.313 0.031 -0.539 c 0.02 -0.223 0.035 -0.504 0.039 -0.613 c 0.008 -0.129 0.016 -0.207 0.023 -0.207 c 0.012 0 0.098 0.047 0.113 0.066 c 0.023 0.02 -0.016 0.551 -0.074 1.066 c -0.016 0.148 -0.035 0.344 -0.043 0.434 c -0.008 0.09 -0.02 0.168 -0.027 0.172 c -0.004 0.004 -0.043 -0.016 -0.086 -0.047 m 1.434 -1.078 c -0.113 -0.023 -0.25 -0.078 -0.363 -0.145 c -0.105 -0.066 -0.176 -0.121 -0.164 -0.129 c 0.004 -0.004 0.043 0.008 0.086 0.02 c 0.047 0.016 0.227 0.07 0.398 0.125 c 0.176 0.051 0.324 0.098 0.332 0.105 c 0.023 0.02 -0.016 0.031 -0.117 0.035 c -0.063 0.004 -0.125 -0.004 -0.172 -0.012 m -3.414 -0.074 c 0.004 -0.008 0.09 -0.035 0.184 -0.066 c 0.094 -0.031 0.27 -0.09 0.387 -0.133 c 0.293 -0.102 0.305 -0.102 0.133 0.023 c -0.145 0.102 -0.254 0.141 -0.492 0.168 c -0.145 0.02 -0.23 0.02 -0.211 0.008 m 3.02 -0.332 c -0.082 -0.02 -0.164 -0.086 -0.199 -0.16 c -0.082 -0.18 -0.047 -0.496 0.082 -0.73 c 0.063 -0.113 0.066 -0.113 -0.02 -0.109 c -0.086 0.008 -0.367 0.004 -0.391 -0.004 c -0.012 -0.004 -0.004 -0.02 0.027 -0.055 c 0.051 -0.059 0.074 -0.137 0.102 -0.305 c 0.023 -0.141 0.031 -0.18 0.039 -0.172 c 0.004 0.004 0.043 0.219 0.043 0.242 c 0 0.012 0.305 -0.016 0.566 -0.051 c 0.379 -0.051 0.469 -0.051 0.676 -0.012 c 0.215 0.047 0.254 0.043 0.523 -0.035 c 0.082 -0.027 0.152 -0.043 0.156 -0.039 c 0.02 0.016 -0.242 0.148 -0.352 0.18 c -0.043 0.012 -0.078 0.027 -0.078 0.031 c -0.008 0.02 0.121 0.035 0.266 0.035 c 0.074 0.004 0.145 0.008 0.16 0.012 c 0.023 0.008 0.023 0.008 0 0.016 c -0.055 0.016 -0.367 0.066 -0.508 0.082 c -0.18 0.016 -0.473 0.035 -0.598 0.035 c -0.047 0 -0.086 0.004 -0.09 0.008 c -0.004 0.008 0.012 0.031 0.039 0.055 c 0.109 0.105 0.164 0.254 0.152 0.43 c -0.023 0.367 -0.301 0.621 -0.598 0.547 m -2.629 -0.09 c -0.18 -0.07 -0.297 -0.27 -0.297 -0.496 c -0.004 -0.168 0.047 -0.293 0.156 -0.402 c 0.027 -0.027 0.047 -0.055 0.043 -0.059 c -0.004 0 -0.094 0 -0.199 0.008 c -0.379 0.02 -0.84 0.008 -1.199 -0.035 c -0.07 -0.008 -0.129 -0.016 -0.133 -0.016 c -0.004 0 -0.004 -0.004 -0.004 -0.008 c 0 -0.008 0.027 -0.02 0.066 -0.027 c 0.09 -0.023 0.215 -0.078 0.211 -0.09 c -0.004 -0.004 -0.055 -0.027 -0.113 -0.047 c -0.125 -0.043 -0.23 -0.094 -0.207 -0.102 c 0.008 0 0.09 0.004 0.18 0.012 c 0.273 0.027 0.695 0.047 1.395 0.07 c 0.391 0.008 0.422 0.008 0.496 -0.035 c 0.016 -0.012 0.047 -0.043 0.066 -0.07 c 0.031 -0.043 0.039 -0.07 0.043 -0.141 c 0.004 -0.082 -0.008 -0.129 -0.055 -0.215 c -0.016 -0.027 0.016 -0.02 0.07 0.02 c 0.094 0.066 0.137 0.172 0.148 0.367 c 0.008 0.152 0.008 0.16 0.055 0.18 c 0.031 0.012 0.035 0.02 0.027 0.027 c -0.027 0.027 -0.242 0.102 -0.324 0.109 c -0.047 0.008 -0.086 0.016 -0.086 0.02 c 0 0.004 0.016 0.02 0.039 0.031 c 0.051 0.027 0.145 0.145 0.176 0.219 c 0.035 0.078 0.055 0.219 0.047 0.293 c -0.027 0.195 -0.113 0.32 -0.262 0.379 c -0.07 0.027 -0.094 0.031 -0.176 0.031 c -0.082 0 -0.113 -0.004 -0.164 -0.023 m -2.469 0.93 c 0.039 -0.012 0.07 -0.059 0.078 -0.121 c 0.008 -0.039 -0.004 -0.082 -0.055 -0.227 c -0.082 -0.223 -0.188 -0.563 -0.266 -0.844 c -0.031 -0.117 -0.066 -0.227 -0.078 -0.242 c -0.012 -0.012 -0.102 -0.09 -0.199 -0.172 c -0.258 -0.207 -0.422 -0.301 -0.551 -0.313 c -0.164 -0.016 -0.219 0.109 -0.207 0.469 c 0.02 0.465 0.168 0.777 0.488 1.051 c 0.172 0.145 0.484 0.332 0.637 0.383 c 0.086 0.027 0.105 0.027 0.152 0.016 m 7.418 -0.137 c 0.313 -0.121 0.668 -0.559 0.805 -0.984 c 0.047 -0.156 0.055 -0.242 0.031 -0.379 c -0.031 -0.199 -0.102 -0.324 -0.199 -0.363 c -0.043 -0.016 -0.051 -0.016 -0.09 -0.004 c -0.051 0.016 -0.152 0.102 -0.371 0.309 l -0.152 0.145 l -0.113 0.449 c -0.059 0.25 -0.137 0.539 -0.168 0.648 c -0.031 0.109 -0.059 0.199 -0.059 0.207 c 0 0.016 0.059 0.027 0.133 0.023 c 0.055 -0.004 0.105 -0.02 0.184 -0.051" fill="#030302"/></svg>