<svg xmlns="http://www.w3.org/2000/svg" viewBox="0 0 22 22"><path d="m 18.09 3.223 c 17.199 22.797 -30.13 26.04 -14.941 2.766 c 3.465 -5.305 10.387 -8.801 14.941 -2.766" fill="#649e44"/><path d="m 7.883 16.707 c -0.031 -0.047 -0.184 -0.066 -0.336 -0.035 c -0.309 0.059 -0.605 -0.18 -1.051 -0.836 c -0.191 -0.281 -0.234 -0.453 -0.211 -0.84 c 0.027 -0.438 0.051 -0.484 0.273 -0.512 c 0.285 -0.031 0.883 -0.309 0.883 -0.41 c 0 -0.035 -0.063 -0.098 -0.137 -0.141 c -0.074 -0.039 -0.313 -0.434 -0.531 -0.871 c -0.215 -0.438 -0.484 -0.875 -0.598 -0.969 c -0.145 -0.125 -0.203 -0.289 -0.203 -0.57 c 0 -0.238 -0.059 -0.441 -0.148 -0.512 c -0.113 -0.09 -0.145 -0.344 -0.145 -1.137 c 0 -1.01 0.004 -1.027 0.285 -1.297 c 0.477 -0.457 0.707 -0.383 1.648 0.512 c 0.656 0.629 0.813 0.824 0.762 0.977 c -0.047 0.137 0.02 0.273 0.234 0.488 c 0.164 0.164 0.297 0.348 0.297 0.41 c 0 0.145 0.473 0.563 0.555 0.488 c 0.031 -0.035 -0.012 -0.164 -0.098 -0.293 c -0.211 -0.305 -0.23 -2.34 -0.023 -2.598 c 0.07 -0.09 0.109 -0.262 0.086 -0.383 c -0.027 -0.133 0.074 -0.434 0.258 -0.758 c 0.164 -0.297 0.301 -0.637 0.301 -0.75 c 0 -0.113 0.066 -0.262 0.148 -0.324 c 0.086 -0.07 0.145 -0.273 0.145 -0.508 c 0 -0.289 0.059 -0.445 0.227 -0.598 c 0.289 -0.254 0.426 -0.254 0.957 0.016 c 0.516 0.258 0.855 0.777 0.863 1.336 c 0.008 0.219 0.074 0.434 0.156 0.5 c 0.082 0.063 0.148 0.254 0.148 0.418 c 0 0.168 0.066 0.359 0.145 0.422 c 0.121 0.094 0.148 0.387 0.148 1.539 c 0 1.152 -0.027 1.445 -0.148 1.539 c -0.078 0.066 -0.145 0.16 -0.145 0.215 c 0 0.238 0.441 -0.324 0.789 -1.01 c 0.211 -0.414 0.535 -0.895 0.727 -1.07 c 0.188 -0.176 0.344 -0.371 0.344 -0.438 c 0 -0.063 0.125 -0.254 0.281 -0.426 c 0.156 -0.168 0.301 -0.391 0.32 -0.492 c 0.055 -0.281 0.48 -0.289 0.754 -0.016 c 0.211 0.219 0.223 0.289 0.223 1.895 c 0.004 1.805 0.004 1.809 -0.602 2.813 c -0.055 0.09 -0.121 0.227 -0.152 0.301 c -0.035 0.078 -0.145 0.293 -0.246 0.48 c -0.156 0.281 -0.164 0.352 -0.051 0.391 c 0.078 0.027 0.219 -0.008 0.32 -0.078 c 0.098 -0.074 0.363 -0.133 0.582 -0.137 c 0.242 0 0.457 -0.059 0.531 -0.145 c 0.07 -0.082 0.238 -0.133 0.379 -0.117 c 0.238 0.027 0.254 0.059 0.281 0.621 c 0.023 0.41 -0.02 0.703 -0.133 0.934 c -0.203 0.418 -1.01 1.227 -1.223 1.227 c -0.086 0 -0.242 0.086 -0.344 0.195 c -0.184 0.191 -0.766 0.484 -0.988 0.5 c -0.063 0.004 -0.148 0.035 -0.188 0.074 c -0.086 0.082 -2.035 0.094 -2.121 0.012 c -0.031 -0.027 -0.395 -0.055 -0.805 -0.055 c -0.414 0 -0.773 0.027 -0.809 0.055 c -0.098 0.098 -2.555 0.063 -2.617 -0.031 m 0.293 -2.43 c -0.035 -0.055 -0.105 -0.094 -0.16 -0.094 c -0.055 0 -0.07 0.039 -0.039 0.094 c 0.035 0.051 0.105 0.09 0.16 0.09 c 0.055 0 0.07 -0.039 0.039 -0.09" fill="#abc8ab"/><path d="m 7.93 16.707 c 0 -0.055 -0.145 -0.094 -0.324 -0.094 c -0.586 0 -1.242 -0.859 -1.242 -1.629 c 0 -0.406 0.016 -0.426 0.273 -0.426 c 0.152 0 0.363 -0.063 0.465 -0.137 c 0.246 -0.176 0.641 -0.18 0.883 -0.008 c 0.211 0.156 0.629 0.191 0.629 0.059 c 0 -0.121 -0.57 -0.379 -0.828 -0.379 c -0.293 0 -0.547 -0.297 -0.973 -1.137 c -0.203 -0.395 -0.453 -0.789 -0.555 -0.879 c -0.129 -0.109 -0.188 -0.285 -0.188 -0.555 c 0 -0.238 -0.059 -0.441 -0.148 -0.512 c -0.113 -0.09 -0.145 -0.344 -0.145 -1.137 c 0 -0.957 0.012 -1.031 0.238 -1.246 c 0.422 -0.402 0.688 -0.316 1.539 0.5 c 0.617 0.59 0.766 0.785 0.766 1.012 c 0 0.168 0.082 0.355 0.203 0.457 c 0.113 0.098 0.262 0.305 0.332 0.461 c 0.18 0.406 0.512 0.672 0.664 0.527 c 0.098 -0.09 0.086 -0.176 -0.051 -0.398 c -0.133 -0.223 -0.168 -0.508 -0.168 -1.344 c 0 -0.605 0.039 -1.086 0.098 -1.117 c 0.055 -0.031 0.098 -0.211 0.098 -0.398 c 0 -0.328 0.316 -1.086 0.496 -1.195 c 0.051 -0.027 0.09 -0.191 0.09 -0.359 c 0 -0.172 0.066 -0.363 0.145 -0.426 c 0.09 -0.07 0.141 -0.258 0.133 -0.477 c -0.016 -0.414 0.223 -0.738 0.547 -0.734 c 0.305 0.004 0.945 0.465 1.164 0.836 c 0.105 0.18 0.188 0.473 0.18 0.648 c -0.004 0.18 0.055 0.418 0.137 0.535 c 0.078 0.113 0.145 0.313 0.145 0.434 c 0 0.125 0.063 0.277 0.145 0.344 c 0.121 0.094 0.148 0.387 0.148 1.539 c 0 1.152 -0.027 1.445 -0.148 1.539 c -0.172 0.137 -0.195 0.375 -0.035 0.375 c 0.18 0 0.867 -0.914 0.867 -1.156 c 0 -0.07 0.066 -0.18 0.148 -0.246 c 0.078 -0.063 0.145 -0.184 0.145 -0.27 c 0 -0.086 0.176 -0.32 0.395 -0.523 c 0.215 -0.199 0.391 -0.418 0.391 -0.48 c 0 -0.066 0.125 -0.258 0.277 -0.426 c 0.152 -0.168 0.305 -0.379 0.34 -0.469 c 0.09 -0.238 0.414 -0.199 0.648 0.082 c 0.184 0.227 0.203 0.371 0.203 1.781 c 0 1.152 -0.035 1.602 -0.141 1.785 c -0.078 0.137 -0.164 0.313 -0.195 0.391 c -0.031 0.074 -0.094 0.203 -0.141 0.277 c -0.246 0.402 -0.523 0.914 -0.609 1.121 c -0.055 0.129 -0.234 0.297 -0.406 0.371 c -0.172 0.078 -0.328 0.195 -0.348 0.258 c -0.051 0.16 0.277 0.145 0.512 -0.027 c 0.105 -0.074 0.289 -0.137 0.41 -0.137 c 0.121 0 0.246 -0.039 0.281 -0.094 c 0.031 -0.051 0.25 -0.09 0.48 -0.09 c 0.258 0 0.473 -0.059 0.547 -0.141 c 0.145 -0.168 0.449 -0.184 0.547 -0.035 c 0.145 0.227 0.105 0.969 -0.066 1.281 c -0.219 0.391 -1.039 1.227 -1.207 1.227 c -0.066 0 -0.203 0.082 -0.301 0.184 c -0.094 0.102 -0.379 0.273 -0.625 0.379 c -0.25 0.109 -0.527 0.234 -0.621 0.285 c -0.23 0.117 -1.91 0.109 -1.984 -0.008 c -0.035 -0.051 -0.43 -0.094 -0.883 -0.094 c -0.449 0 -0.848 0.043 -0.879 0.094 c -0.035 0.055 -0.574 0.094 -1.277 0.094 c -0.75 0 -1.219 -0.035 -1.219 -0.094" fill="#8eb78e"/><path d="m 7.977 16.707 c -0.031 -0.055 -0.18 -0.094 -0.328 -0.094 c -0.445 0 -1.285 -0.996 -1.285 -1.523 c 0 -0.398 0.102 -0.531 0.406 -0.531 c 0.156 0 0.391 -0.066 0.523 -0.148 c 0.219 -0.137 0.266 -0.137 0.551 0 c 0.375 0.18 0.871 0.195 0.867 0.031 c -0.004 -0.137 -0.656 -0.441 -0.945 -0.441 c -0.266 0 -0.527 -0.305 -0.91 -1.074 c -0.18 -0.359 -0.43 -0.773 -0.559 -0.918 c -0.16 -0.184 -0.211 -0.332 -0.168 -0.488 c 0.035 -0.141 0 -0.32 -0.098 -0.457 c -0.121 -0.176 -0.156 -0.469 -0.156 -1.246 c 0 -1.133 0.094 -1.324 0.645 -1.324 c 0.391 0 1.703 1.23 1.703 1.598 c 0 0.34 1.098 1.723 1.285 1.617 c 0.133 -0.082 0.094 -0.535 -0.066 -0.734 c -0.199 -0.258 -0.195 -1.984 0.008 -2.242 c 0.078 -0.098 0.145 -0.359 0.145 -0.578 c 0 -0.219 0.039 -0.422 0.09 -0.449 c 0.145 -0.086 0.398 -0.621 0.398 -0.84 c 0 -0.109 0.066 -0.285 0.145 -0.383 c 0.078 -0.102 0.145 -0.352 0.148 -0.563 c 0 -0.277 0.063 -0.438 0.23 -0.586 l 0.23 -0.207 l 0.504 0.242 c 0.34 0.16 0.523 0.316 0.563 0.465 c 0.031 0.125 0.121 0.273 0.195 0.336 c 0.078 0.059 0.141 0.281 0.141 0.492 c 0.004 0.211 0.07 0.465 0.148 0.566 c 0.078 0.102 0.145 0.297 0.145 0.438 c 0 0.141 0.043 0.281 0.098 0.316 c 0.164 0.098 0.125 2.812 -0.047 3.059 c -0.094 0.137 -0.109 0.254 -0.051 0.344 c 0.141 0.223 0.629 -0.297 1.039 -1.109 c 0.199 -0.391 0.527 -0.887 0.738 -1.102 c 0.207 -0.219 0.375 -0.453 0.375 -0.523 c 0 -0.07 0.094 -0.207 0.207 -0.305 c 0.113 -0.098 0.246 -0.273 0.293 -0.387 c 0.102 -0.254 0.391 -0.273 0.609 -0.039 c 0.137 0.145 0.164 0.41 0.164 1.75 v 1.578 l -0.578 1.109 c -0.477 0.918 -0.629 1.133 -0.883 1.23 c -0.199 0.082 -0.301 0.188 -0.301 0.316 c 0 0.223 0.18 0.246 0.445 0.051 c 0.105 -0.074 0.305 -0.137 0.445 -0.137 c 0.145 -0.004 0.313 -0.066 0.379 -0.145 c 0.074 -0.082 0.293 -0.141 0.527 -0.145 c 0.223 0 0.488 -0.063 0.594 -0.137 c 0.289 -0.211 0.445 -0.016 0.445 0.559 c 0 0.324 -0.047 0.531 -0.145 0.609 c -0.082 0.063 -0.148 0.184 -0.148 0.27 c 0 0.176 -0.777 0.941 -0.953 0.941 c -0.063 0 -0.266 0.129 -0.449 0.281 c -0.184 0.156 -0.402 0.281 -0.48 0.281 c -0.082 0 -0.203 0.063 -0.27 0.141 c -0.066 0.074 -0.203 0.137 -0.305 0.137 c -0.102 0 -0.184 0.043 -0.184 0.094 c 0 0.059 -0.375 0.094 -0.93 0.094 c -0.555 0 -0.93 -0.035 -0.93 -0.094 c 0 -0.055 -0.375 -0.094 -0.93 -0.094 c -0.555 0 -0.93 0.039 -0.93 0.094 c 0 0.059 -0.457 0.094 -1.172 0.094 c -0.672 0 -1.191 -0.039 -1.227 -0.094" fill="#5b9b5b"/><path d="m 7.992 16.66 c -0.031 -0.082 -0.176 -0.141 -0.332 -0.141 c -0.301 0 -0.906 -0.457 -0.906 -0.684 c 0 -0.074 -0.066 -0.188 -0.145 -0.25 c -0.09 -0.07 -0.148 -0.277 -0.148 -0.527 c 0 -0.383 0.016 -0.406 0.273 -0.406 c 0.152 0 0.363 -0.063 0.465 -0.137 c 0.25 -0.18 0.578 -0.18 0.734 0 c 0.176 0.203 0.816 0.148 0.859 -0.074 c 0.02 -0.094 -0.043 -0.188 -0.148 -0.219 c -0.098 -0.031 -0.266 -0.094 -0.375 -0.145 c -0.113 -0.051 -0.266 -0.102 -0.344 -0.113 c -0.441 -0.074 -0.559 -0.191 -0.941 -0.969 c -0.223 -0.449 -0.496 -0.898 -0.609 -0.996 c -0.148 -0.125 -0.207 -0.289 -0.207 -0.563 c 0 -0.215 -0.047 -0.434 -0.105 -0.488 c -0.063 -0.059 -0.105 -0.516 -0.105 -1.113 c 0 -0.93 0.016 -1.027 0.215 -1.18 c 0.117 -0.09 0.277 -0.164 0.359 -0.164 c 0.082 0 0.473 0.301 0.871 0.668 c 0.559 0.52 0.723 0.73 0.723 0.93 c 0 0.16 0.117 0.391 0.293 0.582 c 0.164 0.176 0.293 0.355 0.293 0.406 c 0 0.176 0.672 0.707 0.828 0.648 c 0.195 -0.07 0.199 -0.559 0.004 -0.715 c -0.207 -0.164 -0.203 -2.02 0.004 -2.281 c 0.078 -0.098 0.145 -0.34 0.145 -0.531 c 0 -0.203 0.105 -0.531 0.246 -0.77 c 0.133 -0.23 0.242 -0.523 0.242 -0.648 c 0 -0.125 0.066 -0.277 0.148 -0.344 c 0.086 -0.066 0.145 -0.273 0.145 -0.508 c 0 -0.555 0.402 -0.891 0.684 -0.57 c 0.063 0.074 0.207 0.148 0.32 0.164 c 0.27 0.039 0.66 0.746 0.66 1.199 c 0 0.195 0.066 0.398 0.148 0.465 c 0.082 0.063 0.148 0.25 0.148 0.418 c 0 0.168 0.063 0.355 0.145 0.422 c 0.117 0.094 0.148 0.375 0.148 1.445 c 0 1.07 -0.031 1.352 -0.148 1.445 c -0.168 0.137 -0.195 0.52 -0.039 0.613 c 0.172 0.102 0.734 -0.496 1.059 -1.125 c 0.168 -0.32 0.301 -0.621 0.301 -0.672 c 0 -0.047 0.176 -0.25 0.395 -0.449 c 0.215 -0.199 0.391 -0.418 0.391 -0.48 c 0 -0.066 0.133 -0.262 0.293 -0.438 c 0.16 -0.176 0.293 -0.363 0.293 -0.418 c 0 -0.191 0.211 -0.219 0.398 -0.059 c 0.172 0.148 0.191 0.301 0.191 1.773 c 0 1.688 -0.031 1.816 -0.598 2.75 c -0.047 0.074 -0.18 0.328 -0.293 0.559 c -0.137 0.266 -0.324 0.473 -0.52 0.559 c -0.34 0.156 -0.457 0.504 -0.203 0.594 c 0.086 0.035 0.254 -0.004 0.367 -0.078 c 0.117 -0.078 0.305 -0.141 0.414 -0.141 c 0.113 0 0.293 -0.063 0.395 -0.137 c 0.105 -0.078 0.363 -0.141 0.574 -0.141 c 0.211 -0.004 0.461 -0.07 0.559 -0.152 c 0.094 -0.082 0.219 -0.121 0.277 -0.09 c 0.176 0.105 0.117 0.902 -0.098 1.324 c -0.215 0.418 -0.883 1.063 -1.105 1.063 c -0.074 0 -0.211 0.082 -0.309 0.184 c -0.098 0.105 -0.41 0.293 -0.695 0.422 c -0.285 0.129 -0.543 0.273 -0.578 0.328 c -0.102 0.156 -1.668 0.113 -1.809 -0.047 c -0.094 -0.105 -0.332 -0.141 -0.934 -0.141 c -0.598 0 -0.836 0.035 -0.93 0.141 c -0.094 0.109 -0.363 0.137 -1.223 0.137 c -0.891 0 -1.113 -0.027 -1.16 -0.137" fill="#2f822f"/><path d="m 8.07 16.707 c -0.031 -0.055 -0.023 -0.098 0.02 -0.098 c 0.207 -0.004 -0.246 -0.18 -0.465 -0.184 c -0.426 0 -1.07 -0.855 -1.07 -1.422 c 0 -0.223 0.039 -0.258 0.281 -0.258 c 0.156 0 0.336 -0.063 0.402 -0.141 c 0.16 -0.18 0.391 -0.18 0.664 0.004 c 0.133 0.09 0.367 0.137 0.586 0.117 c 0.32 -0.023 0.371 -0.063 0.398 -0.285 c 0.027 -0.223 -0.012 -0.266 -0.273 -0.316 c -0.164 -0.031 -0.324 -0.094 -0.352 -0.137 c -0.031 -0.047 -0.176 -0.082 -0.328 -0.082 c -0.336 0 -0.465 -0.145 -0.914 -1.031 c -0.199 -0.391 -0.449 -0.785 -0.559 -0.879 c -0.141 -0.121 -0.199 -0.289 -0.199 -0.559 c 0 -0.215 -0.047 -0.434 -0.105 -0.488 c -0.059 -0.055 -0.105 -0.527 -0.109 -1.105 c -0.008 -0.875 0.016 -1.027 0.172 -1.133 c 0.297 -0.207 0.426 -0.152 1.129 0.496 c 0.52 0.48 0.676 0.684 0.676 0.883 c 0 0.16 0.117 0.391 0.293 0.582 c 0.16 0.176 0.293 0.371 0.293 0.434 c 0 0.063 0.18 0.277 0.395 0.48 c 0.332 0.305 0.426 0.348 0.586 0.266 c 0.234 -0.121 0.266 -0.621 0.051 -0.891 c -0.203 -0.258 -0.203 -1.973 0 -2.23 c 0.078 -0.098 0.145 -0.34 0.145 -0.531 c 0 -0.191 0.043 -0.375 0.098 -0.406 c 0.055 -0.031 0.098 -0.133 0.098 -0.227 c 0 -0.094 0.066 -0.223 0.148 -0.289 c 0.078 -0.063 0.148 -0.227 0.148 -0.359 c 0 -0.137 0.066 -0.328 0.148 -0.426 c 0.078 -0.102 0.141 -0.359 0.141 -0.574 c 0 -0.547 0.16 -0.641 0.672 -0.398 c 0.461 0.219 0.797 0.746 0.797 1.246 c 0 0.16 0.066 0.371 0.145 0.473 c 0.078 0.098 0.145 0.293 0.148 0.426 c 0 0.137 0.066 0.297 0.148 0.363 c 0.219 0.172 0.215 2.723 -0.004 2.895 c -0.195 0.156 -0.152 0.684 0.059 0.723 c 0.242 0.043 0.828 -0.57 1.156 -1.219 c 0.168 -0.328 0.305 -0.637 0.305 -0.688 c 0 -0.047 0.176 -0.254 0.395 -0.453 c 0.215 -0.199 0.391 -0.418 0.391 -0.488 c 0 -0.066 0.133 -0.254 0.293 -0.414 c 0.16 -0.16 0.293 -0.348 0.293 -0.418 c 0 -0.156 0.121 -0.164 0.273 -0.016 c 0.082 0.078 0.121 0.594 0.121 1.703 v 1.594 l -0.547 1.023 c -0.395 0.734 -0.641 1.082 -0.859 1.215 c -0.387 0.234 -0.477 0.652 -0.164 0.746 c 0.125 0.039 0.301 0.004 0.445 -0.086 c 0.129 -0.082 0.34 -0.148 0.473 -0.148 c 0.129 0 0.289 -0.063 0.355 -0.137 c 0.074 -0.086 0.289 -0.141 0.539 -0.141 c 0.25 0 0.465 -0.059 0.539 -0.141 c 0.211 -0.242 0.293 -0.156 0.293 0.313 c 0 0.316 -0.078 0.59 -0.254 0.891 c -0.242 0.41 -0.773 0.895 -0.984 0.895 c -0.055 0 -0.199 0.105 -0.328 0.234 c -0.125 0.129 -0.305 0.234 -0.395 0.234 c -0.094 0 -0.223 0.063 -0.289 0.141 c -0.066 0.074 -0.211 0.141 -0.316 0.141 c -0.109 0 -0.215 0.078 -0.242 0.184 c -0.047 0.168 -0.137 0.188 -0.863 0.188 c -0.727 0 -0.813 -0.02 -0.859 -0.188 c -0.047 -0.168 -0.133 -0.184 -1 -0.184 c -0.863 0 -0.953 0.016 -1 0.184 c -0.047 0.172 -0.133 0.188 -1.109 0.188 c -0.602 0 -1.086 -0.039 -1.121 -0.094" fill="#007f00"/><path d="m 8.09 16.73 c -0.035 -0.035 0.035 -0.141 0.156 -0.234 c 0.199 -0.148 0.207 -0.18 0.074 -0.281 c -0.086 -0.063 -0.184 -0.191 -0.219 -0.281 c -0.035 -0.09 -0.164 -0.164 -0.289 -0.164 c -0.332 0 -0.488 -0.133 -0.449 -0.383 c 0.027 -0.184 0.086 -0.223 0.367 -0.223 c 0.398 0 0.512 -0.188 0.152 -0.254 c -0.402 -0.074 -1.125 0.031 -1.125 0.164 c 0 0.066 0.066 0.141 0.148 0.172 c 0.078 0.031 0.148 0.129 0.148 0.219 c 0.004 0.211 0.531 0.773 0.723 0.773 c 0.078 0 0.172 0.043 0.203 0.094 c 0.039 0.055 -0.074 0.094 -0.27 0.094 c -0.223 0 -0.402 -0.074 -0.547 -0.219 c -0.309 -0.313 -0.602 -0.898 -0.602 -1.203 c 0 -0.223 0.039 -0.258 0.281 -0.258 c 0.156 0 0.336 -0.063 0.402 -0.141 c 0.156 -0.18 0.391 -0.18 0.664 0.004 c 0.133 0.09 0.367 0.137 0.586 0.117 c 0.316 -0.023 0.371 -0.063 0.398 -0.281 c 0.023 -0.211 -0.016 -0.266 -0.246 -0.32 c -0.152 -0.035 -0.371 -0.121 -0.492 -0.195 c -0.117 -0.074 -0.262 -0.105 -0.32 -0.07 c -0.18 0.102 -0.363 -0.121 -0.773 -0.922 c -0.211 -0.418 -0.477 -0.84 -0.59 -0.938 c -0.152 -0.133 -0.203 -0.289 -0.203 -0.637 c 0 -0.25 0.047 -0.543 0.105 -0.645 c 0.094 -0.172 0.086 -0.18 -0.098 -0.086 c -0.199 0.102 -0.203 0.086 -0.203 -0.637 c 0 -0.406 -0.027 -0.805 -0.059 -0.883 c -0.066 -0.164 0.281 -0.527 0.508 -0.527 c 0.086 0 0.461 0.277 0.832 0.621 c 0.52 0.477 0.676 0.684 0.676 0.883 c 0 0.156 0.117 0.391 0.293 0.582 c 0.16 0.176 0.293 0.371 0.293 0.434 c 0 0.063 0.18 0.277 0.395 0.48 c 0.332 0.305 0.426 0.348 0.586 0.266 c 0.238 -0.121 0.266 -0.625 0.051 -0.891 c -0.168 -0.215 -0.219 -2.055 -0.051 -1.957 c 0.055 0.031 0.098 0.41 0.098 0.836 c 0 0.605 0.031 0.789 0.145 0.832 c 0.117 0.043 0.148 0.227 0.148 0.84 c 0 0.582 0.039 0.813 0.148 0.898 c 0.078 0.066 0.145 0.168 0.145 0.234 c 0 0.063 0.109 0.309 0.246 0.551 c 0.309 0.555 0.309 0.711 0.004 0.711 c -0.293 0 -0.422 0.168 -0.184 0.238 c 0.098 0.031 0.262 0.098 0.359 0.148 c 0.102 0.051 0.203 0.07 0.234 0.043 c 0.027 -0.027 0.043 -0.461 0.035 -0.965 c -0.02 -0.906 -0.023 -0.914 -0.355 -1.242 c -0.5 -0.488 -0.422 -0.914 0.141 -0.773 c 0.141 0.035 0.207 0.008 0.207 -0.09 c 0 -0.164 -0.18 -0.316 -0.43 -0.359 c -0.105 -0.02 -0.219 -0.098 -0.258 -0.176 c -0.262 -0.496 -0.313 -0.656 -0.262 -0.785 c 0.086 -0.203 0.332 -0.184 0.457 0.039 c 0.148 0.262 0.293 0.234 0.293 -0.055 c 0 -0.156 -0.129 -0.359 -0.363 -0.578 c -0.203 -0.188 -0.426 -0.441 -0.492 -0.563 c -0.148 -0.273 -0.172 -0.98 -0.023 -0.762 c 0.051 0.074 0.094 0.234 0.098 0.348 c 0 0.16 0.059 0.211 0.246 0.211 c 0.133 0 0.242 0.043 0.242 0.094 c 0 0.051 0.066 0.094 0.148 0.094 c 0.227 0 0.172 -0.32 -0.098 -0.563 c -0.137 -0.121 -0.246 -0.293 -0.246 -0.387 c 0 -0.094 -0.066 -0.172 -0.145 -0.172 c -0.082 0 -0.148 -0.059 -0.148 -0.129 c 0 -0.07 0.066 -0.18 0.148 -0.246 c 0.078 -0.063 0.148 -0.227 0.148 -0.359 c 0 -0.137 0.066 -0.328 0.148 -0.426 c 0.078 -0.102 0.141 -0.359 0.141 -0.574 c 0 -0.547 0.16 -0.641 0.672 -0.398 c 0.289 0.137 0.469 0.309 0.605 0.574 c 0.203 0.398 0.262 1.094 0.094 1.094 c -0.055 0 -0.098 -0.145 -0.098 -0.32 c 0 -0.195 -0.055 -0.336 -0.145 -0.367 c -0.082 -0.031 -0.148 -0.129 -0.152 -0.223 c -0.004 -0.266 -0.242 -0.492 -0.52 -0.492 c -0.227 0 -0.262 0.039 -0.262 0.289 c 0 0.23 0.035 0.281 0.16 0.234 c 0.289 -0.105 0.43 0.121 0.43 0.695 c 0 0.492 0.02 0.547 0.219 0.57 c 0.176 0.027 0.227 0.102 0.25 0.375 c 0.027 0.297 0 0.348 -0.195 0.371 c -0.121 0.02 -0.238 0.105 -0.258 0.195 c -0.027 0.141 0.004 0.152 0.234 0.07 c 0.188 -0.07 0.301 -0.066 0.398 0.008 c 0.211 0.168 0.164 0.301 -0.258 0.691 c -0.488 0.457 -0.508 0.613 -0.063 0.543 c 0.398 -0.059 0.539 0.16 0.309 0.492 c -0.082 0.121 -0.148 0.281 -0.148 0.355 c 0 0.078 -0.063 0.176 -0.145 0.219 c -0.223 0.117 -0.074 0.508 0.184 0.473 c 0.148 -0.02 0.207 -0.094 0.207 -0.273 c 0 -0.137 0.074 -0.328 0.172 -0.43 c 0.234 -0.25 0.254 -2.238 0.023 -2.324 c -0.168 -0.063 -0.211 -0.828 -0.051 -0.922 c 0.059 -0.031 0.098 0.059 0.098 0.219 c 0 0.148 0.066 0.324 0.148 0.391 c 0.219 0.172 0.215 2.723 -0.004 2.895 c -0.203 0.16 -0.152 0.684 0.066 0.723 c 0.09 0.02 0.27 -0.078 0.402 -0.211 c 0.301 -0.313 0.898 -0.406 1.043 -0.164 c 0.09 0.148 0.113 0.145 0.32 -0.055 l 0.227 -0.219 l -0.41 -0.352 c -0.379 -0.32 -0.402 -0.367 -0.273 -0.531 c 0.078 -0.094 0.141 -0.242 0.145 -0.32 c 0.004 -0.199 0.547 -0.684 0.68 -0.605 c 0.184 0.109 0.113 0.289 -0.188 0.504 c -0.359 0.25 -0.375 0.387 -0.055 0.387 c 0.133 0 0.285 0.074 0.344 0.164 c 0.094 0.152 0.109 0.152 0.242 -0.012 c 0.09 -0.109 0.219 -0.156 0.336 -0.129 c 0.184 0.047 0.195 -0.008 0.227 -0.789 c 0.016 -0.461 0.008 -0.852 -0.023 -0.871 c -0.031 -0.016 -0.18 0.09 -0.328 0.242 c -0.148 0.152 -0.313 0.273 -0.359 0.273 c -0.184 0 -0.082 -0.289 0.203 -0.574 c 0.16 -0.16 0.293 -0.348 0.293 -0.418 c 0 -0.156 0.121 -0.164 0.273 -0.016 c 0.082 0.078 0.117 0.594 0.117 1.719 v 1.609 l -0.406 0.75 c -0.227 0.41 -0.445 0.727 -0.492 0.699 c -0.137 -0.082 -0.086 -0.504 0.066 -0.563 c 0.082 -0.027 0.148 -0.152 0.148 -0.277 c 0 -0.121 0.043 -0.223 0.098 -0.223 c 0.055 0 0.098 -0.07 0.098 -0.156 c 0 -0.086 0.082 -0.246 0.18 -0.352 c 0.125 -0.129 0.164 -0.266 0.121 -0.418 l -0.063 -0.23 l -0.215 0.223 c -0.121 0.121 -0.219 0.293 -0.219 0.379 c 0 0.086 -0.242 0.367 -0.539 0.625 c -0.297 0.258 -0.539 0.516 -0.539 0.57 c 0 0.055 0.113 0.172 0.25 0.258 c 0.355 0.219 0.293 0.539 -0.109 0.578 c -0.188 0.016 -0.352 -0.031 -0.43 -0.121 c -0.117 -0.133 -0.145 -0.133 -0.313 0.012 c -0.211 0.184 -0.238 0.527 -0.047 0.676 c 0.098 0.078 0.172 0.059 0.309 -0.082 c 0.098 -0.105 0.258 -0.188 0.355 -0.188 c 0.195 0 0.246 0.141 0.082 0.234 c -0.051 0.031 -0.098 0.156 -0.098 0.277 c 0 0.293 0.324 0.391 0.641 0.195 c 0.129 -0.082 0.34 -0.148 0.473 -0.148 c 0.129 0 0.289 -0.063 0.355 -0.137 c 0.074 -0.086 0.289 -0.141 0.539 -0.141 c 0.25 0 0.465 -0.059 0.539 -0.141 c 0.211 -0.242 0.293 -0.156 0.293 0.313 c 0 0.316 -0.078 0.59 -0.254 0.891 c -0.242 0.41 -0.773 0.895 -0.984 0.895 c -0.055 0 -0.199 0.105 -0.328 0.234 c -0.125 0.129 -0.305 0.234 -0.395 0.234 c -0.094 0 -0.223 0.063 -0.289 0.141 c -0.066 0.074 -0.211 0.141 -0.316 0.141 c -0.109 0 -0.215 0.078 -0.242 0.184 c -0.047 0.168 -0.133 0.188 -0.863 0.188 c -0.727 0 -0.813 -0.02 -0.859 -0.188 c -0.047 -0.168 -0.133 -0.184 -1 -0.184 c -0.863 0 -0.953 0.016 -0.996 0.184 c -0.051 0.172 -0.137 0.188 -1.102 0.188 c -0.578 0 -1.082 -0.031 -1.117 -0.066 m 1.965 -0.41 c 0.133 -0.129 2.383 -0.113 2.52 0.016 c 0.121 0.117 1.102 0.113 1.18 -0.004 c 0.031 -0.051 0.145 -0.094 0.254 -0.094 c 0.105 0 0.215 -0.063 0.246 -0.141 c 0.031 -0.074 0.16 -0.141 0.285 -0.141 c 0.129 0 0.316 -0.105 0.434 -0.25 c 0.188 -0.227 0.191 -0.262 0.051 -0.395 c -0.141 -0.133 -0.164 -0.133 -0.254 0.016 c -0.07 0.117 -0.219 0.164 -0.535 0.164 c -0.473 0 -0.777 0.184 -0.84 0.512 c -0.047 0.242 -0.641 0.324 -0.73 0.102 c -0.043 -0.105 -0.191 -0.148 -0.52 -0.148 c -0.367 0 -0.512 -0.047 -0.691 -0.23 c -0.184 -0.188 -0.328 -0.234 -0.695 -0.234 c -0.41 0 -0.469 0.027 -0.496 0.211 c -0.023 0.148 -0.109 0.219 -0.301 0.238 c -0.234 0.027 -0.27 -0.004 -0.27 -0.211 c 0 -0.262 -0.234 -0.332 -0.332 -0.098 c -0.027 0.078 -0.145 0.141 -0.254 0.141 c -0.16 0 -0.199 0.059 -0.199 0.324 v 0.328 h 0.52 c 0.285 0 0.566 -0.047 0.629 -0.105 m 2.301 -1.195 c -0.02 -0.156 0.082 -0.336 0.324 -0.57 c 0.348 -0.34 0.348 -0.344 0.129 -0.398 c -0.266 -0.066 -0.672 0.246 -0.672 0.516 c 0 0.094 -0.063 0.195 -0.137 0.223 c -0.168 0.063 -0.277 0.301 -0.195 0.426 c 0.031 0.047 0.176 0.078 0.316 0.059 c 0.211 -0.02 0.258 -0.07 0.234 -0.254 m -3.059 -0.109 c 0.375 -0.188 0.516 -0.363 0.285 -0.363 c -0.059 0 -0.223 0.059 -0.367 0.133 c -0.141 0.074 -0.34 0.156 -0.438 0.188 c -0.098 0.027 -0.148 0.094 -0.113 0.145 c 0.086 0.137 0.188 0.121 0.633 -0.102 m 6.609 0.102 c 0.031 -0.051 0.016 -0.09 -0.039 -0.09 c -0.051 0 -0.125 0.039 -0.156 0.09 c -0.035 0.055 -0.016 0.094 0.035 0.094 c 0.055 0 0.125 -0.039 0.16 -0.094 m -5.355 -0.285 c -0.016 -0.055 -0.074 -0.102 -0.125 -0.102 c -0.051 0 -0.109 0.047 -0.129 0.102 c -0.02 0.055 0.039 0.102 0.129 0.102 c 0.09 0 0.145 -0.047 0.125 -0.102 m 4.03 -0.07 c 0.227 -0.129 0.27 -0.195 0.18 -0.281 c -0.16 -0.152 -0.461 -0.137 -0.531 0.031 c -0.031 0.078 -0.133 0.141 -0.227 0.141 c -0.098 0 -0.23 0.063 -0.297 0.141 c -0.105 0.121 -0.07 0.141 0.23 0.141 c 0.191 0 0.484 -0.078 0.645 -0.172 m 1.938 -0.52 c 0.281 -0.23 0.199 -0.336 -0.25 -0.336 c -0.34 0 -0.703 0.23 -0.703 0.449 c 0 0.152 0.738 0.063 0.953 -0.113 m -7.578 -0.52 c -0.027 -0.102 -0.113 -0.234 -0.188 -0.293 c -0.074 -0.059 -0.137 -0.184 -0.137 -0.277 c 0 -0.25 -0.176 -0.309 -0.441 -0.141 c -0.129 0.082 -0.328 0.148 -0.438 0.148 c -0.25 0 -0.254 0.133 -0.004 0.371 c 0.145 0.137 0.27 0.168 0.488 0.129 c 0.219 -0.043 0.309 -0.02 0.355 0.094 c 0.09 0.227 0.426 0.199 0.363 -0.031 m 0.965 -0.031 c -0.117 -0.121 -0.211 -0.289 -0.211 -0.375 c 0 -0.086 -0.043 -0.156 -0.09 -0.156 c -0.047 0 -0.133 -0.129 -0.191 -0.281 c -0.129 -0.355 -0.336 -0.379 -0.242 -0.023 c 0.035 0.141 0.125 0.313 0.195 0.379 c 0.074 0.07 0.133 0.172 0.133 0.227 c 0 0.156 0.305 0.445 0.473 0.445 c 0.113 0 0.098 -0.051 -0.066 -0.215 m 2.566 -0.203 c 0.086 -0.125 0.156 -0.285 0.156 -0.352 c 0 -0.066 0.09 -0.195 0.199 -0.285 c 0.16 -0.129 0.18 -0.199 0.094 -0.352 c -0.109 -0.191 -0.293 -0.168 -0.293 0.043 c 0 0.066 -0.109 0.32 -0.242 0.559 c -0.137 0.242 -0.246 0.48 -0.246 0.527 c 0 0.164 0.172 0.094 0.332 -0.141 m -4.934 -0.754 c 0 -0.129 0.066 -0.254 0.148 -0.277 c 0.496 -0.148 0.477 -0.133 0.32 -0.305 c -0.078 -0.086 -0.172 -0.234 -0.203 -0.324 c -0.133 -0.352 -0.828 -0.016 -0.77 0.375 c 0.016 0.113 0.07 0.211 0.121 0.211 c 0.051 0 0.09 0.098 0.09 0.215 c 0 0.121 0.031 0.246 0.066 0.281 c 0.133 0.129 0.227 0.055 0.227 -0.176 m 4.309 -0.324 c 0 -0.203 -0.156 -0.324 -0.246 -0.188 c -0.086 0.137 0.043 0.484 0.156 0.418 c 0.051 -0.027 0.09 -0.133 0.09 -0.23 m -2.84 -0.348 c -0.004 -0.082 -0.441 -0.492 -0.527 -0.492 c -0.113 0 -0.059 0.223 0.102 0.391 c 0.164 0.172 0.43 0.234 0.426 0.102 m 4.441 -0.07 c 0.063 -0.16 -0.02 -0.422 -0.133 -0.422 c -0.074 0 -0.391 0.414 -0.391 0.512 c 0 0.117 0.473 0.035 0.523 -0.09 m -6.699 -0.828 c -0.117 -0.129 -0.285 0.027 -0.285 0.266 c 0 0.309 0.23 0.355 0.301 0.059 c 0.031 -0.133 0.023 -0.277 -0.016 -0.324 m 1.574 0.004 c 0 -0.02 -0.098 -0.113 -0.219 -0.211 l -0.223 -0.18 l 0.188 0.211 c 0.176 0.199 0.254 0.254 0.254 0.18 m -0.98 -0.156 c 0 -0.051 -0.063 -0.094 -0.141 -0.094 c -0.078 0 -0.168 0.043 -0.199 0.094 c -0.035 0.051 0.027 0.094 0.141 0.094 c 0.109 0 0.199 -0.043 0.199 -0.094 m -0.836 -1.41 c -0.047 -0.141 -0.008 -0.203 0.148 -0.242 c 0.23 -0.055 0.223 -0.195 -0.02 -0.34 c -0.258 -0.16 -0.465 0.09 -0.465 0.563 c 0 0.383 0.012 0.402 0.199 0.309 c 0.141 -0.074 0.184 -0.156 0.137 -0.289 m 4.215 -2.445 c 0 -0.488 -0.191 -0.473 -0.227 0.016 c -0.023 0.305 0 0.398 0.098 0.367 c 0.074 -0.023 0.129 -0.184 0.129 -0.383 m 3.668 6.152 c 0 -0.02 0.066 -0.086 0.148 -0.148 c 0.121 -0.098 0.148 -0.09 0.148 0.035 c 0 0.082 -0.066 0.148 -0.148 0.148 c -0.082 0 -0.148 -0.016 -0.148 -0.035 m -0.863 -2.484 c 0 -0.125 0.023 -0.18 0.051 -0.113 c 0.023 0.063 0.023 0.168 0 0.23 c -0.027 0.066 -0.051 0.012 -0.051 -0.117" fill="#007800"/><path d="m 8.176 16.707 c 0.031 -0.055 0.438 -0.094 0.902 -0.094 c 0.648 0 0.883 -0.039 1.023 -0.156 c 0.215 -0.188 0.285 -0.141 0.211 0.137 c -0.055 0.195 -0.105 0.203 -1.129 0.203 c -0.688 0 -1.047 -0.031 -1.01 -0.094 m 4.125 -0.109 c -0.078 -0.277 -0.004 -0.324 0.211 -0.137 c 0.242 0.211 1.023 0.203 1.363 -0.008 c 0.25 -0.156 0.258 -0.156 0.191 0.008 c -0.039 0.094 -0.066 0.207 -0.066 0.254 c 0 0.051 -0.371 0.086 -0.824 0.086 c -0.762 0 -0.824 -0.012 -0.875 -0.203 m -5.203 -0.449 c -0.18 -0.188 -0.152 -0.352 0.043 -0.238 c 0.148 0.09 0.324 0.426 0.219 0.426 c -0.047 0 -0.164 -0.086 -0.262 -0.188 m 1.344 0.043 c -0.121 -0.082 -0.219 -0.227 -0.219 -0.324 c 0 -0.121 -0.09 -0.199 -0.27 -0.238 c -0.473 -0.098 -0.551 -0.137 -0.457 -0.223 c 0.051 -0.047 0.223 -0.098 0.387 -0.113 c 0.234 -0.023 0.297 -0.078 0.324 -0.289 c 0.016 -0.141 0.09 -0.254 0.164 -0.254 c 0.074 0 0.148 0.113 0.164 0.254 c 0.027 0.211 0.086 0.262 0.332 0.285 c 0.184 0.02 0.352 -0.027 0.43 -0.113 c 0.07 -0.082 0.188 -0.148 0.262 -0.148 c 0.078 0 0.18 -0.102 0.23 -0.23 c 0.051 -0.129 0.141 -0.234 0.195 -0.234 c 0.055 0 0.098 -0.043 0.098 -0.094 c 0 -0.148 -0.32 -0.109 -0.758 0.094 c -0.223 0.102 -0.418 0.188 -0.434 0.188 c -0.02 0 -0.031 -0.148 -0.031 -0.328 c 0 -0.32 0.078 -0.414 0.195 -0.234 c 0.074 0.113 0.441 0.129 0.441 0.02 c 0 -0.043 -0.109 -0.176 -0.246 -0.297 c -0.133 -0.121 -0.242 -0.293 -0.242 -0.379 c 0 -0.086 -0.066 -0.211 -0.148 -0.273 c -0.082 -0.066 -0.145 -0.195 -0.145 -0.293 c 0 -0.207 -0.383 -0.242 -0.688 -0.063 c -0.133 0.082 -0.223 0.086 -0.293 0.016 c -0.148 -0.141 -0.012 -0.41 0.207 -0.41 c 0.258 0 0.34 -0.25 0.148 -0.453 c -0.09 -0.09 -0.16 -0.238 -0.16 -0.324 c 0 -0.188 -0.578 -0.219 -0.762 -0.043 c -0.094 0.086 -0.145 0.086 -0.238 -0.004 c -0.168 -0.156 0.02 -0.426 0.324 -0.465 c 0.352 -0.047 0.41 -0.152 0.191 -0.34 c -0.184 -0.156 -0.211 -0.156 -0.438 -0.016 c -0.137 0.086 -0.313 0.152 -0.395 0.152 c -0.281 0 -0.156 -0.285 0.215 -0.492 l 0.367 -0.207 l -0.313 -0.031 c -0.176 -0.016 -0.422 0.043 -0.563 0.129 c -0.219 0.137 -0.25 0.141 -0.25 0.012 c 0 -0.078 0.156 -0.234 0.344 -0.344 c 0.262 -0.156 0.332 -0.25 0.289 -0.383 c -0.063 -0.184 0.094 -0.246 0.199 -0.082 c 0.07 0.109 0.539 0.125 0.539 0.02 c 0 -0.043 -0.176 -0.242 -0.395 -0.441 c -0.215 -0.199 -0.391 -0.406 -0.391 -0.457 c 0 -0.055 0.289 0.172 0.637 0.504 c 0.352 0.332 0.637 0.641 0.637 0.688 c 0 0.051 -0.09 0.012 -0.195 -0.082 c -0.215 -0.184 -0.219 -0.184 -0.379 0.109 c -0.09 0.168 -0.078 0.207 0.098 0.25 c 0.16 0.039 0.195 0.102 0.152 0.262 c -0.047 0.156 0.035 0.309 0.328 0.609 c 0.266 0.273 0.387 0.484 0.387 0.672 c 0 0.219 0.066 0.301 0.344 0.426 c 0.379 0.172 0.383 0.18 0.246 0.422 c -0.07 0.129 -0.059 0.188 0.047 0.227 c 0.082 0.027 0.148 0.113 0.148 0.188 c 0 0.152 0.277 0.684 0.457 0.871 c 0.063 0.066 0.18 0.121 0.258 0.121 c 0.078 0 0.195 0.063 0.262 0.137 c 0.066 0.078 0.191 0.141 0.273 0.141 c 0.086 0 0.23 0.07 0.328 0.152 c 0.145 0.125 0.207 0.133 0.328 0.035 c 0.113 -0.09 0.148 -0.328 0.148 -1.059 v -0.941 l -0.414 -0.398 c -0.313 -0.309 -0.383 -0.426 -0.293 -0.512 c 0.086 -0.082 0.172 -0.082 0.367 0 c 0.34 0.148 0.34 0.148 0.34 -0.164 c 0 -0.266 -0.367 -0.656 -0.625 -0.66 c -0.145 -0.004 -0.457 -0.641 -0.348 -0.703 c 0.047 -0.027 0.172 0.035 0.281 0.141 c 0.301 0.285 0.398 0.234 0.398 -0.203 c 0 -0.336 -0.063 -0.449 -0.414 -0.793 c -0.25 -0.246 -0.355 -0.398 -0.262 -0.398 c 0.078 0 0.195 0.047 0.258 0.105 c 0.18 0.172 0.418 0.016 0.418 -0.273 c 0 -0.164 -0.098 -0.352 -0.246 -0.488 c -0.309 -0.273 -0.309 -0.355 0 -0.465 c 0.219 -0.078 0.246 -0.141 0.246 -0.598 c 0 -0.516 0.141 -0.75 0.305 -0.512 c 0.051 0.07 0.078 0.383 0.063 0.688 l -0.027 0.563 l 0.27 -0.027 c 0.371 -0.039 0.375 0.297 0.004 0.465 c -0.293 0.133 -0.402 0.406 -0.23 0.57 c 0.074 0.074 0.137 0.07 0.223 -0.012 c 0.148 -0.141 0.469 -0.145 0.469 -0.004 c 0 0.059 -0.176 0.289 -0.391 0.512 c -0.273 0.281 -0.391 0.488 -0.391 0.68 c 0 0.348 0.152 0.449 0.293 0.199 c 0.102 -0.184 0.488 -0.273 0.488 -0.113 c 0 0.188 -0.32 0.668 -0.441 0.668 c -0.191 0 -0.285 0.188 -0.156 0.309 c 0.059 0.059 0.109 0.191 0.109 0.301 c 0 0.285 0.07 0.32 0.398 0.199 c 0.219 -0.078 0.336 -0.074 0.484 0.012 c 0.277 0.168 0.457 0.141 0.625 -0.09 c 0.082 -0.113 0.184 -0.176 0.219 -0.141 c 0.039 0.035 -0.027 0.164 -0.145 0.281 c -0.117 0.117 -0.211 0.281 -0.211 0.359 c 0 0.082 -0.066 0.199 -0.148 0.266 c -0.082 0.063 -0.145 0.168 -0.145 0.23 c 0 0.063 -0.113 0.313 -0.246 0.551 c -0.137 0.242 -0.246 0.57 -0.246 0.727 c 0 0.273 0.012 0.281 0.215 0.152 c 0.113 -0.074 0.289 -0.273 0.383 -0.441 c 0.098 -0.172 0.27 -0.406 0.387 -0.523 c 0.148 -0.152 0.191 -0.273 0.141 -0.418 c -0.055 -0.168 -0.035 -0.195 0.113 -0.148 c 0.262 0.078 0.488 -0.41 0.324 -0.695 c -0.156 -0.281 0.004 -0.406 0.332 -0.266 c 0.219 0.098 0.289 0.086 0.453 -0.055 c 0.277 -0.238 0.246 -0.418 -0.145 -0.813 c -0.34 -0.34 -0.43 -0.543 -0.246 -0.543 c 0.055 0 0.098 0.043 0.098 0.094 c 0 0.051 0.086 0.094 0.184 0.094 c 0.102 0 0.242 0.063 0.309 0.141 c 0.145 0.168 0.406 0.18 0.566 0.027 c 0.215 -0.203 0.238 0.008 0.031 0.285 c -0.113 0.152 -0.207 0.313 -0.207 0.355 c 0 0.043 -0.242 0.316 -0.539 0.609 c -0.57 0.563 -0.664 0.844 -0.344 1.01 c 0.254 0.129 0.262 0.469 0.012 0.469 c -0.098 0 -0.238 -0.066 -0.305 -0.141 c -0.16 -0.184 -0.324 -0.18 -0.512 0.023 c -0.219 0.234 -0.254 0.5 -0.105 0.793 c 0.16 0.305 0.238 0.316 0.473 0.07 c 0.242 -0.258 0.34 -0.234 0.34 0.086 c 0 0.152 0.047 0.301 0.105 0.336 c 0.121 0.074 -0.066 0.324 -0.242 0.324 c -0.066 0 -0.266 0.145 -0.445 0.324 c -0.281 0.277 -0.305 0.332 -0.164 0.383 c 0.098 0.035 0.242 -0.004 0.344 -0.09 c 0.102 -0.086 0.344 -0.152 0.57 -0.152 c 0.234 0 0.445 -0.055 0.52 -0.141 c 0.066 -0.074 0.18 -0.137 0.254 -0.137 c 0.16 0 0.074 -0.281 -0.141 -0.445 c -0.082 -0.063 -0.113 -0.145 -0.07 -0.184 c 0.043 -0.039 0.102 -0.02 0.125 0.043 c 0.023 0.066 0.152 0.117 0.281 0.117 c 0.168 0 0.27 0.074 0.34 0.25 c 0.074 0.188 0.125 0.223 0.211 0.141 c 0.172 -0.168 0.402 -0.133 0.602 0.086 c 0.172 0.195 0.168 0.207 -0.145 0.512 c -0.176 0.176 -0.34 0.297 -0.367 0.27 c -0.027 -0.023 0.07 -0.164 0.215 -0.309 c 0.141 -0.141 0.262 -0.289 0.262 -0.324 c 0 -0.16 -0.457 -0.039 -0.707 0.188 c -0.211 0.195 -0.301 0.227 -0.391 0.141 c -0.16 -0.152 -0.422 -0.141 -0.566 0.027 c -0.07 0.078 -0.281 0.141 -0.484 0.141 c -0.551 0 -0.898 0.184 -0.863 0.465 c 0.035 0.309 -0.324 0.328 -0.461 0.023 c -0.105 -0.227 -0.199 -0.262 -0.297 -0.117 c -0.121 0.191 -0.625 0.098 -0.91 -0.168 c -0.273 -0.254 -0.41 -0.277 -1.305 -0.207 c -0.035 0 -0.086 0.086 -0.113 0.191 c -0.066 0.238 -0.27 0.242 -0.332 0.004 c -0.066 -0.242 -0.285 -0.309 -0.461 -0.141 c -0.078 0.074 -0.25 0.137 -0.379 0.137 c -0.32 0 -0.371 0.07 -0.242 0.336 c 0.145 0.313 -0.016 0.453 -0.297 0.262 m 4.113 -0.816 c 0.043 -0.059 0.055 -0.195 0.027 -0.301 c -0.031 -0.137 0.055 -0.289 0.293 -0.512 c 0.188 -0.172 0.34 -0.336 0.34 -0.367 c 0 -0.031 -0.141 -0.105 -0.313 -0.168 c -0.281 -0.102 -0.34 -0.09 -0.551 0.098 c -0.129 0.113 -0.273 0.293 -0.32 0.395 c -0.047 0.102 -0.188 0.305 -0.309 0.453 l -0.219 0.262 l 0.238 0.188 c 0.25 0.191 0.664 0.168 0.813 -0.047 m -1.738 -0.574 c -0.348 -0.273 -0.574 -0.266 -0.617 0.023 c -0.031 0.191 0.008 0.207 0.441 0.207 h 0.469 m 0.672 -0.613 c 0.164 -0.219 0.168 -0.25 0.023 -0.402 c -0.199 -0.207 -0.207 -0.938 -0.012 -1.18 c 0.078 -0.102 0.145 -0.32 0.148 -0.492 c 0 -0.27 -0.027 -0.305 -0.219 -0.281 c -0.215 0.031 -0.223 0.063 -0.246 1.313 c -0.016 0.707 0.004 1.285 0.047 1.281 c 0.043 0 0.156 -0.109 0.258 -0.238 m 2.609 1.828 c 0 -0.051 0.066 -0.094 0.152 -0.094 c 0.082 0 0.125 0.043 0.09 0.094 c -0.031 0.051 -0.102 0.094 -0.152 0.094 c -0.051 0 -0.09 -0.043 -0.09 -0.094 m 0.586 -0.25 c 0 -0.051 0.09 -0.172 0.195 -0.262 c 0.109 -0.094 0.195 -0.129 0.195 -0.078 c 0 0.051 -0.086 0.172 -0.195 0.262 c -0.105 0.094 -0.195 0.129 -0.195 0.078 m -8.254 -0.465 c -0.035 -0.035 -0.066 -0.105 -0.066 -0.16 c 0 -0.059 0.047 -0.051 0.117 0.016 c 0.063 0.059 0.094 0.133 0.066 0.156 c -0.027 0.027 -0.082 0.023 -0.117 -0.012 m 0.473 -0.871 c 0.035 -0.051 0.105 -0.094 0.16 -0.094 c 0.051 0 0.07 0.043 0.035 0.094 c -0.031 0.051 -0.102 0.094 -0.156 0.094 c -0.055 0 -0.07 -0.043 -0.039 -0.094 m 0.539 -0.004 c 0 -0.055 0.043 -0.074 0.098 -0.043 c 0.055 0.031 0.098 0.074 0.098 0.098 c 0 0.023 -0.043 0.043 -0.098 0.043 c -0.055 0 -0.098 -0.047 -0.098 -0.098 m 8.809 -0.184 c 0 -0.051 0.047 -0.094 0.105 -0.094 c 0.055 0 0.074 0.043 0.043 0.094 c -0.035 0.051 -0.082 0.094 -0.105 0.094 c -0.023 0 -0.043 -0.043 -0.043 -0.094 m -8.27 -0.559 c -0.035 -0.051 -0.016 -0.094 0.035 -0.094 c 0.055 0 0.125 0.043 0.16 0.094 c 0.031 0.051 0.016 0.094 -0.039 0.094 c -0.051 0 -0.125 -0.043 -0.156 -0.094 m 7.242 0 c 0.035 -0.051 0.078 -0.094 0.105 -0.094 c 0.023 0 0.043 0.043 0.043 0.094 c 0 0.051 -0.047 0.094 -0.105 0.094 c -0.059 0 -0.074 -0.043 -0.043 -0.094 m -8.03 -0.195 c -0.105 -0.16 0.016 -0.195 0.148 -0.043 c 0.078 0.09 0.086 0.145 0.02 0.145 c -0.055 0 -0.133 -0.047 -0.168 -0.102 m 2.52 -0.113 c -0.117 -0.121 -0.215 -0.25 -0.215 -0.293 c 0 -0.215 -0.664 -1.355 -0.965 -1.664 c -0.43 -0.434 -0.309 -0.457 0.184 -0.031 c 0.277 0.238 0.43 0.305 0.625 0.27 c 0.219 -0.043 0.254 -0.016 0.254 0.18 c 0 0.121 0.156 0.523 0.344 0.887 c 0.188 0.367 0.344 0.711 0.344 0.766 c 0 0.18 -0.352 0.109 -0.57 -0.113 m 6.563 0.105 c 0.059 -0.176 0.27 -0.203 0.27 -0.039 c 0 0.082 -0.07 0.148 -0.152 0.148 c -0.086 0 -0.141 -0.051 -0.117 -0.113 m -9.32 -0.492 c -0.078 -0.09 -0.086 -0.141 -0.02 -0.141 c 0.117 0 0.258 0.176 0.188 0.242 c -0.023 0.023 -0.102 -0.023 -0.168 -0.102 m -0.246 -0.516 c -0.035 -0.051 -0.016 -0.094 0.043 -0.094 c 0.059 0 0.102 0.043 0.102 0.094 c 0 0.051 -0.016 0.094 -0.043 0.094 c -0.023 0 -0.07 -0.043 -0.102 -0.094 m 7.93 -0.277 c 0.031 -0.055 0.102 -0.094 0.156 -0.094 c 0.055 0 0.07 0.039 0.039 0.094 c -0.035 0.051 -0.105 0.09 -0.16 0.09 c -0.055 0 -0.07 -0.039 -0.035 -0.09 m -8.422 -0.375 c -0.098 -0.105 -0.156 -0.207 -0.129 -0.23 c 0.063 -0.063 0.473 0.223 0.473 0.328 c 0 0.145 -0.152 0.102 -0.344 -0.098 m 8.688 -0.109 c 0.02 -0.063 0.09 -0.129 0.152 -0.148 c 0.074 -0.023 0.094 0.02 0.059 0.109 c -0.07 0.168 -0.27 0.207 -0.211 0.039 m 0.27 -0.543 c 0 -0.055 0.043 -0.094 0.098 -0.094 c 0.055 0 0.098 0.039 0.098 0.094 c 0 0.051 -0.043 0.094 -0.098 0.094 c -0.055 0 -0.098 -0.043 -0.098 -0.094 m -7.219 -0.563 c -0.121 -0.094 -0.219 -0.223 -0.219 -0.293 c 0 -0.07 0.113 -0.012 0.262 0.129 c 0.309 0.297 0.277 0.414 -0.043 0.164 m 1.41 0.125 c -0.035 -0.035 -0.063 -0.105 -0.063 -0.156 c 0 -0.059 0.043 -0.055 0.113 0.012 c 0.066 0.063 0.094 0.133 0.066 0.16 c -0.027 0.027 -0.078 0.02 -0.117 -0.016 m 2.598 -0.035 c 0.023 -0.07 0.102 -0.141 0.172 -0.164 c 0.074 -0.023 0.109 0.012 0.086 0.082 c -0.023 0.066 -0.102 0.141 -0.172 0.164 c -0.074 0.023 -0.109 -0.012 -0.086 -0.082 m 1.84 -1.289 c 0 -0.121 0.387 -0.422 0.457 -0.355 c 0.035 0.035 -0.016 0.145 -0.113 0.25 c -0.184 0.191 -0.344 0.242 -0.344 0.105 m -7.977 -0.758 c 0.035 -0.055 0.105 -0.094 0.16 -0.094 c 0.055 0 0.07 0.039 0.035 0.094 c -0.031 0.051 -0.102 0.09 -0.156 0.09 c -0.055 0 -0.07 -0.039 -0.039 -0.09 m 9.07 -0.555 c 0.18 -0.207 0.359 -0.336 0.406 -0.289 c 0.047 0.043 -0.059 0.203 -0.242 0.363 c -0.465 0.402 -0.551 0.359 -0.164 -0.074 m -2.891 -0.164 c -0.094 -0.086 -0.082 -0.215 0.023 -0.215 c 0.047 0 0.109 0.063 0.141 0.137 c 0.059 0.145 -0.047 0.191 -0.164 0.078 m -2.195 -0.793 c 0.047 -0.141 0.27 -0.219 0.27 -0.094 c 0 0.051 -0.07 0.117 -0.156 0.148 c -0.094 0.035 -0.137 0.012 -0.113 -0.055 m 0.32 -0.824 c 0.031 -0.051 0.078 -0.094 0.102 -0.094 c 0.023 0 0.043 0.043 0.043 0.094 c 0 0.051 -0.047 0.094 -0.102 0.094 c -0.059 0 -0.078 -0.043 -0.043 -0.094 m 1.387 -0.156 c -0.039 -0.031 -0.066 -0.105 -0.066 -0.156 c 0 -0.059 0.047 -0.055 0.117 0.012 c 0.063 0.063 0.09 0.133 0.063 0.16 c -0.027 0.027 -0.078 0.02 -0.113 -0.016 m -0.313 -0.59 c -0.031 -0.051 -0.012 -0.094 0.043 -0.094 c 0.059 0 0.105 0.043 0.105 0.094 c 0 0.051 -0.02 0.094 -0.043 0.094 c -0.023 0 -0.07 -0.043 -0.105 -0.094 m -0.773 -0.176 c -0.031 -0.047 0.004 -0.129 0.078 -0.188 c 0.098 -0.078 0.16 -0.074 0.242 0.023 c 0.059 0.066 0.082 0.152 0.047 0.188 c -0.094 0.086 -0.305 0.074 -0.367 -0.023" fill="#006800"/></svg>