<svg xmlns="http://www.w3.org/2000/svg" viewBox="0 0 22 22"><path d="m 19.2 18.691 c 12.582 -19.371 -21.785 -26.863 -19.05 -6.941 c 1.117 8.129 14.234 14.348 19.05 6.941" fill="#f4f4f4"/><g transform="matrix(0.08594 0 0 0.08594 -0.804 -0.777)"><g fill="#586a93" stroke="#586a93"><path d="m 214.9 162.36 c -1.636 -1.045 -4.909 -2.727 -7.273 -3.727 l -4.273 -1.818 l 0.409 -5.091 c 1.136 -14.682 1.227 -16.773 0.682 -16.773 c -0.318 0 -1.318 2.636 -2.182 5.864 c -2.773 10.09 -4.727 12.864 -9.09 12.864 c -3.455 0 -9.5 -1.727 -9.909 -2.864 c -0.136 -0.455 0.091 -5.05 0.591 -10.182 c 0.455 -5.182 0.864 -11.5 0.818 -14.09 v -4.682 l -1.545 7.05 c -3.136 14.318 -5.455 19.682 -9.455 21.864 c -2.045 1.045 -2.227 1.045 -4.364 -0.182 c -1.364 -0.773 -2.909 -2.5 -3.818 -4.409 c -1.409 -2.773 -1.955 -5.5 -3.227 -15.818 c -0.182 -1.591 -0.5 -2.773 -0.682 -2.591 c -0.182 0.182 -1.091 3.273 -2 6.864 c -1.864 7.318 -2.955 9.818 -5.455 12.5 c -2 2.136 -5.591 2.5 -7.955 0.864 c -1.409 -1 -3.591 -6.136 -3.591 -8.5 c 0 -1.682 -1.864 -1.545 -3.364 0.273 c -1 1.182 -1.273 2.636 -1.273 6.727 c -0.045 4.955 -0.818 6.682 -1.727 3.818 c -0.227 -0.727 -0.682 -1.318 -1.045 -1.318 c -0.318 0 -0.636 0.591 -0.636 1.318 c 0 1.273 -0.409 1.364 -8.318 1.364 h -8.318 l -0.227 -1.864 c -0.136 -1.409 -0.5 -1.773 -1.545 -1.636 c -4.409 0.727 -8.364 0.909 -8.364 0.455 c 0 -0.318 0.5 -1.091 1.136 -1.773 c 0.818 -0.909 0.909 -1.455 0.409 -1.955 c -1.091 -1.091 -2 -0.227 -4 3.636 c -0.955 1.909 -1.909 3.091 -2.045 2.636 c -0.182 -0.455 -1.318 -0.864 -2.591 -0.864 c -1.5 0 -2.455 -0.364 -2.727 -1.045 c -0.227 -0.636 0.227 -4.909 1 -9.545 c 2.591 -15.227 2.5 -18.545 -0.409 -19.864 c -0.818 -0.364 -1.5 -0.864 -1.5 -1.182 c 0 -0.818 -3.773 -0.545 -4.5 0.364 c -0.409 0.455 -1.182 7.318 -1.773 15.227 c -0.636 7.909 -1.273 15.05 -1.5 15.909 c -0.409 1.545 -0.727 1.682 -10.5 3.909 c -6.318 1.455 -6.455 1.318 -6.5 -5.409 c 0 -4.727 -0.864 -7.773 -1.591 -5.682 c -0.227 0.545 -1 3.818 -1.727 7.318 c -0.864 4.045 -1.773 6.682 -2.5 7.227 c -1.545 1.136 -6.136 2.5 -6.636 1.955 c -0.5 -0.5 -0.045 -2.955 4.909 -27.18 l 3.773 -18.318 l -1.227 -18.273 c -0.682 -10 -1.045 -18.682 -0.818 -19.227 c 0.409 -1.091 6.318 -3.364 7.227 -2.818 c 0.273 0.182 0.727 2.727 1 5.682 c 0.227 2.955 0.682 5.364 1 5.364 c 0.273 0 1.182 -2.864 1.955 -6.364 l 1.455 -6.364 l 2.455 -0.636 c 5 -1.364 18.318 -3.455 20.409 -3.273 c 2.136 0.227 2.136 0.227 2.5 4.545 c 0.364 4.273 0.364 4.318 1.227 2.364 c 2.091 -4.955 3.045 -6.5 4.909 -8.05 c 1.091 -0.909 2.591 -1.682 3.318 -1.682 c 4.273 0 6.273 4.136 6.955 14.227 c 0.273 3.955 0.682 7.05 1 6.864 c 0.273 -0.182 0.864 -1.909 1.318 -3.818 c 3.455 -14.773 9.909 -21.5 15.409 -16 c 2.409 2.409 3.182 5.364 3.727 14.5 l 0.455 7.409 l -3.591 2.409 c -2 1.318 -3.818 2.318 -4.045 2.136 c -0.273 -0.136 -0.682 -1.909 -0.955 -3.955 c -0.682 -5.636 -2.136 -5.409 -3.727 0.591 c -0.682 2.5 -0.682 3.455 -0.045 4.5 c 0.682 1.045 0.636 1.273 -0.182 1.273 c -0.682 0 -1 0.682 -1 1.955 c 0 1.818 0.136 1.909 4.091 2.318 c 2.273 0.227 5.273 0.455 6.682 0.455 c 2.818 0 2.545 0.682 3.955 -9.05 c 1.045 -7.05 3.818 -16.864 5.727 -20.409 c 2.818 -5.136 6.727 -6.682 9.818 -3.818 c 2.182 2.045 3.591 6.591 4.545 15.05 c 0.455 3.773 0.955 6.773 1.136 6.591 c 0.136 -0.182 1.182 -3.227 2.227 -6.864 c 3.409 -11.273 6.909 -15.318 11.682 -13.409 c 4.136 1.727 5.955 7.5 6.773 22.05 c 0.273 4.318 0.682 8 0.955 8.182 c 0.273 0.182 0.682 -1.591 0.909 -3.864 c 1.5 -15.727 2.045 -20.455 2.5 -21.727 l 0.545 -1.455 l 4.864 1.318 c 2.682 0.773 5.273 1.682 5.773 2.091 c 2.591 2.182 4.409 8.5 5.182 18.5 c 0.227 3.045 0.682 5.318 0.955 5 c 0.273 -0.318 0.864 -4.773 1.318 -9.909 c 0.455 -5.182 1.045 -9.636 1.318 -9.909 c 0.773 -0.818 7.05 2.682 10.364 5.773 l 3.091 2.864 v 8.545 c 0 9.818 -0.455 10.5 -4.5 7.182 c -1.364 -1.136 -2.682 -1.864 -2.955 -1.591 c -0.227 0.273 -0.636 2.182 -0.864 4.273 c -0.455 3.682 -0.455 3.727 1.955 5.545 c 5.05 3.909 5.136 4.045 4.636 11 c -0.273 3.455 -0.682 7.136 -0.864 8.182 l -0.409 1.909 l -3.182 -1.955 c -1.727 -1.091 -3.318 -1.682 -3.5 -1.364 c -0.182 0.318 -0.5 3.091 -0.727 6.136 l -0.364 5.636 l 4.136 2.591 l 4.091 2.591 l -0.455 8.818 c -0.273 4.818 -0.636 9 -0.818 9.273 c -0.5 0.864 -1.773 0.455 -4.909 -1.545 m -78.32 -17 c 0 -0.545 -0.318 -1.136 -0.636 -1.364 c -0.818 -0.5 -1.591 0.773 -1.045 1.636 c 0.591 1 1.682 0.818 1.682 -0.273 m -52.591 -28.955 c 2.136 -26.955 2.636 -37.05 1.818 -35.727 c -0.364 0.545 -2.182 7.818 -4.091 16.182 l -3.409 15.14 l 1.045 13 c 0.545 7.136 1.182 13.682 1.409 14.636 l 0.364 1.682 l 0.591 -1.682 c 0.273 -0.955 1.318 -11.364 2.273 -23.23 m 112.68 8.727 c 0.636 -4.045 1.091 -11.182 1.091 -18.455 c 0.091 -10.545 -0.227 -13.5 -1.227 -12.5 c -0.5 0.455 -3.591 38.32 -3.227 38.955 c 0.909 1.545 2.409 -2.045 3.364 -8 m -22.636 3.227 c 1.591 -3.909 2.773 -12.864 3.182 -24.318 c 0.364 -11.773 0.136 -15.318 -1.182 -15.318 c -2.273 0 -4.864 15.409 -4.955 29.455 c -0.045 9.5 0.318 12.05 1.545 12.05 c 0.318 0 0.955 -0.818 1.409 -1.864 m -21.455 -2.318 c 0.364 -1.182 1.182 -4.364 1.773 -7 c 0.591 -2.727 1.409 -4.864 1.864 -4.818 c 0.409 0 1.682 1.182 2.773 2.636 c 1.136 1.455 2.227 2.636 2.455 2.636 c 0.273 0 0.636 -1.091 0.864 -2.455 c 0.727 -4.545 2.409 -23.864 2.091 -24.14 c -0.182 -0.182 -1.682 0.636 -3.364 1.773 c -1.727 1.136 -3.364 2.091 -3.682 2.091 c -0.318 0 -0.773 -1.727 -1.045 -3.864 c -0.227 -2.091 -0.455 -4.273 -0.545 -4.864 c -0.091 -0.545 -0.591 -1 -1.136 -1 c -1.364 0 -2.5 4.864 -3.682 15.409 c -1 9 -1.318 24.545 -0.545 25.364 c 0.909 0.864 1.5 0.409 2.182 -1.727 m -48.32 -8.591 c 0.818 -1.591 1.5 -3.909 1.5 -5.091 c 0 -1.182 1.091 -4.182 2.409 -6.727 c 3 -5.636 4.045 -9.136 4.682 -15.545 c 0.364 -4.045 0.273 -4.864 -0.455 -4.636 c -0.5 0.182 -1.182 1.636 -1.455 3.273 c -1.045 5.864 -1.136 6 -2.818 6 c -0.864 0 -2.364 -0.318 -3.318 -0.682 c -1.5 -0.545 -1.727 -1.045 -1.727 -3.773 v -3.091 l -3.864 0.409 c -2.091 0.273 -4.045 0.682 -4.318 1 c -0.273 0.273 -0.727 2.818 -0.955 5.636 l -0.455 5.182 h 7.05 l -0.455 8.818 l -0.5 8.773 l 1.455 -0.364 c 1.182 -0.318 1.409 -0.182 1 0.727 c -1.864 4.591 -0.136 4.682 2.227 0.091 m 13.05 -2.409 c 2.227 -1.136 2.273 -1.636 0.455 -3.318 c -1.045 -0.909 -1.273 -1.727 -1 -3.227 c 0.591 -2.909 1.591 -3.727 4.5 -3.727 c 3.273 0 3.455 -1.5 0.409 -3.364 c -2.455 -1.5 -4.364 -1.273 -8 1.045 c -3.727 2.409 -6.05 5.864 -6.409 9.636 c -0.318 3.045 -0.227 3.273 1.591 3.955 c 2.227 0.818 5.727 0.409 8.455 -1 m 20.682 -2.182 c 2.182 -2.182 2.591 -3.045 2.591 -5.364 c 0 -4.864 -4.227 -7.364 -11.182 -6.591 c -3.227 0.364 -4.318 1.318 -4.045 3.5 c 0.136 1 0.773 1.409 2.318 1.545 c 1.318 0.136 2.591 0.818 3.182 1.682 c 1.364 1.909 1.318 2.045 -0.682 4.409 c -0.955 1.136 -1.545 2.364 -1.318 2.727 c 0.227 0.409 1.818 0.682 3.5 0.682 c 2.636 0 3.364 -0.318 5.636 -2.591" stroke-width="0.711"/><path d="m 47.03 142.18 c 0.227 -15.182 0.727 -34.23 1.136 -42.27 l 0.682 -14.682 l 2.864 -2.545 c 5.318 -4.773 8.591 -5.136 10.409 -1.136 c 1.818 4.045 1.909 29.32 0.136 44.818 c -2.318 19.864 -4.409 27.909 -9.136 34.636 c -1.591 2.273 -3.364 5.182 -3.909 6.455 c -0.545 1.273 -1.364 2.318 -1.773 2.318 c -0.636 0 -0.727 -6.273 -0.409 -27.591 m 6.727 -6.545 c 1.727 -9.09 3.045 -33.32 1.909 -34.05 c -1.091 -0.636 -1.364 1.136 -2.136 14.318 c -0.364 6.455 -0.864 14 -1.091 16.818 c -0.227 3.182 -0.136 5.05 0.273 5.05 c 0.364 0 0.818 -0.955 1.045 -2.136" stroke-width="0.702"/></g><path d="m 122.49 210.63 c 0.773 -0.5 0.045 -1.455 -3.5 -4.727 c -3.182 -2.909 -5.091 -5.364 -6.682 -8.545 c -2.045 -4.136 -2.182 -4.909 -2.091 -10.864 c 0.045 -6.636 -0.182 -5.773 5.909 -22.682 c 1.773 -4.909 2.591 -12.909 1.5 -14.591 c -0.318 -0.545 -1.136 -0.5 -3 0.136 c -2.636 0.955 -6.864 1.273 -6.864 0.545 c 0.818 -1.364 1.818 -2.455 1.5 -3.682 c -1.045 -1.045 -2 -0.227 -3.864 3.455 c -1.909 3.818 -2.182 5.273 -0.636 4 c 1.864 -1.545 1.045 0.591 -1.091 2.818 c -1.409 1.545 -1.909 1.773 -1.545 0.864 c 0.273 -0.727 0.636 -2.455 0.773 -3.864 c 0.318 -2.455 0.273 -2.5 -2.045 -2.5 c -1.318 0 -2.545 -0.273 -2.773 -0.636 c -0.227 -0.364 0.409 -5.227 1.364 -10.864 c 1.227 -7.182 1.636 -11.455 1.364 -14.273 c -0.227 -2.318 -0.136 -3.636 0.182 -3.136 c 0.773 1.227 3.227 -1.909 4.045 -5.182 c 1.864 -7.227 2.318 -8.545 3.773 -10.455 c 0.909 -1.136 1.818 -3.045 2.045 -4.227 c 0.318 -1.636 0.773 -2.136 1.955 -2.136 c 0.864 0 1.682 0.409 1.864 0.864 c 0.227 0.682 0.455 0.682 1.182 0 c 0.955 -0.909 7.318 -1.182 7.318 -0.364 c 0 0.318 4.864 0.591 10.773 0.636 c 5.909 0.091 10.909 0.273 11.136 0.455 c 0.545 0.591 -1.136 16.273 -2.955 27.23 c -1.364 8.227 -2.045 10.773 -3.273 12.227 c -1.364 1.636 -1.5 2.318 -1.182 7 c 0.273 4.818 0.227 5.091 -0.727 3.909 c -0.591 -0.727 -1.045 -1.545 -1.045 -1.864 c -1.682 -1.591 -1.364 5.318 -1.364 5.545 c 0 4.455 -0.5 8.136 -1.955 13.909 c -2.773 11.182 -3.045 13.591 -1.773 16.09 c 1.545 2.955 4.455 5.455 6.409 5.455 c 1.955 0 7.364 -2.5 15.05 -6.955 c 10.227 -5.909 17.318 -7.091 23.545 -3.909 c 1.455 0.727 5.727 4.273 9.545 7.818 c 9.5 8.955 13.318 10.5 19.273 7.773 c 4.909 -2.227 8.682 -9.136 9.409 -17.364 c 0.545 -5.773 1.455 -3.636 1.5 3.636 c 0.091 9.182 -2.818 16.364 -9.364 23.455 c -2.182 2.318 -2.636 1.864 -4 4.909 c -6.955 0.5 -5.955 -1.273 -8.909 -1.364 c -19.455 -9.818 -22 -9.591 -25.27 -11.318 c -6.5 1.364 -6.591 1.864 -14.955 7.455 c -3.318 2.182 -6.682 4.136 -7.591 4.364 c -14.864 2.455 -21.364 3.136 -22.955 0.955 m 14.09 -64 c 0 -1.045 -0.409 -1.636 -1 -1.636 c -2.364 1.273 0.909 4.682 1 1.636 m -33.5 -7 c 0 -0.364 -0.318 -0.682 -0.682 -0.682 c -0.364 0 -0.636 0.318 -0.636 0.682 c 0.455 1 0.909 0.545 1.318 0 m 14.636 -23.23 c 0.864 -0.591 1.364 -1.409 1.182 -1.955 c -0.227 -0.545 0.045 -0.955 0.545 -0.955 c 1.682 -2.136 -0.364 -4.5 2.455 -4.818 l 2.273 -0.227 l -1.773 -0.909 c -1.364 -0.682 -2.045 -0.682 -3.227 -0.045 c -1.227 0.636 -1.455 0.591 -1.227 -0.136 c 0.182 -0.5 1.545 -0.955 3.364 -1.091 c 2.636 -0.182 3 -0.364 2.727 -1.455 c -4.864 -6.182 -11.455 -1 -14.773 3.273 c -1.909 2.5 -2.182 3.364 -2.045 6 c 0.182 2.591 0.455 3.091 1.909 3.5 c 2.227 0.591 6.682 0 8.591 -1.182 m 20.591 -1.955 c 1.273 -1.318 2.455 -3.136 2.682 -4.091 c 0.591 -2.364 -1.273 -5.955 -3.773 -7.273 c -2.409 -1.227 -8.591 -1.409 -10.636 -0.318 c -1.955 1 -1.864 3.909 0.091 4.682 c 1.182 0.455 1.227 0.636 0.364 0.636 c -3.318 1.636 3.045 1.636 1.409 3.864 c -1.545 0.909 -2.773 -0.364 -4.182 0.182 c -1.091 1.136 1.364 2.773 3.318 2.318 c 2.818 1.273 0.909 2.409 4.636 2.409 c 3.545 0 4.045 -0.182 6.091 -2.409" fill="#67a421" stroke="#67a421" stroke-width="0.711"/></g><path d="m 10.121 17.609 c -0.324 -0.027 -0.688 -0.082 -0.707 -0.105 c -0.039 -0.035 0.031 -0.074 0.195 -0.113 c 0.098 -0.02 0.18 -0.047 0.18 -0.059 c 0 -0.012 -0.035 -0.047 -0.078 -0.07 c -0.16 -0.102 -0.387 -0.313 -0.613 -0.582 c -0.305 -0.355 -0.418 -0.629 -0.461 -1.09 c -0.063 -0.625 0.023 -1.035 0.402 -1.992 c 0.082 -0.207 0.16 -0.391 0.168 -0.41 c 0.047 -0.074 0.133 -0.59 0.133 -0.785 c 0 -0.188 -0.047 -0.414 -0.086 -0.414 c -0.008 0 -0.051 0.031 -0.098 0.063 c -0.066 0.047 -0.16 0.066 -0.402 0.078 c -0.172 0.008 -0.316 0.02 -0.324 0.023 c -0.035 0.035 -0.207 0.414 -0.207 0.453 c 0 0.027 0.031 0.117 0.066 0.199 c 0.059 0.133 0.066 0.195 0.051 0.422 c -0.027 0.453 -0.188 0.566 -0.234 0.168 c -0.012 -0.105 -0.031 -0.191 -0.043 -0.191 c -0.047 0 -0.105 0.102 -0.125 0.211 c -0.043 0.258 -0.156 0.043 -0.16 -0.305 c -0.004 -0.191 0.004 -0.215 0.105 -0.32 c 0.078 -0.082 0.117 -0.16 0.145 -0.301 c 0.055 -0.297 0.063 -0.285 -0.168 -0.262 c -0.289 0.031 -0.301 0.012 -0.25 -0.43 c 0.02 -0.188 0.074 -0.504 0.117 -0.699 c 0.09 -0.41 0.16 -1.023 0.129 -1.168 c -0.008 -0.051 -0.043 -0.16 -0.07 -0.234 c -0.043 -0.117 -0.063 -0.133 -0.133 -0.125 c -0.066 0.004 -0.086 -0.008 -0.098 -0.07 c -0.008 -0.07 -0.016 -0.074 -0.191 -0.055 c -0.098 0.012 -0.195 0.039 -0.219 0.063 c -0.035 0.035 -0.105 0.809 -0.203 2.258 c -0.039 0.609 -0.039 0.609 -0.355 0.668 c -0.277 0.055 -0.578 0.125 -0.836 0.203 c -0.215 0.063 -0.219 0.063 -0.277 0.004 c -0.055 -0.055 -0.066 -0.129 -0.082 -0.574 c -0.027 -0.695 -0.074 -0.758 -0.168 -0.223 c -0.102 0.57 -0.172 0.902 -0.211 0.961 c -0.047 0.074 -0.57 0.313 -0.648 0.297 c -0.035 -0.008 -0.059 -0.047 -0.063 -0.121 c -0.008 -0.098 0.246 -1.391 0.672 -3.434 l 0.109 -0.512 l -0.121 -1.613 c -0.063 -0.891 -0.105 -1.637 -0.094 -1.664 c 0.027 -0.051 0.516 -0.223 0.633 -0.223 c 0.035 0 0.074 0.016 0.086 0.031 c 0.008 0.016 0.031 0.238 0.047 0.496 c 0.043 0.684 0.063 0.676 0.215 -0.07 c 0.078 -0.398 0.121 -0.551 0.168 -0.586 c 0.031 -0.027 0.18 -0.074 0.328 -0.102 c 0.145 -0.031 0.309 -0.063 0.359 -0.074 c 0.434 -0.086 1.035 -0.176 1.23 -0.184 l 0.242 -0.008 l -0.012 0.445 c -0.012 0.48 0.012 0.531 0.105 0.203 c 0.184 -0.652 0.496 -0.965 0.859 -0.855 c 0.176 0.055 0.297 0.195 0.371 0.438 c 0.082 0.27 0.141 0.883 0.113 1.23 c -0.016 0.176 -0.008 0.281 0.012 0.297 c 0.031 0.02 0.066 -0.082 0.133 -0.414 c 0.113 -0.57 0.348 -1.172 0.555 -1.41 c 0.293 -0.344 0.773 -0.289 0.961 0.102 c 0.098 0.207 0.176 0.684 0.195 1.215 c 0.012 0.293 0.008 0.535 -0.008 0.566 c -0.035 0.063 -0.555 0.438 -0.605 0.438 c -0.074 0 -0.102 -0.086 -0.133 -0.395 c -0.035 -0.332 -0.066 -0.41 -0.148 -0.344 c -0.051 0.043 -0.156 0.332 -0.207 0.574 c -0.027 0.121 -0.023 0.145 0.035 0.191 c 0.156 0.121 0.375 0.336 0.375 0.359 c 0 0.059 -0.066 0.023 -0.215 -0.113 c -0.215 -0.203 -0.254 -0.195 -0.27 0.059 l -0.012 0.129 l 0.273 0.039 c 0.148 0.023 0.41 0.047 0.578 0.051 l 0.309 0.012 l 0.055 -0.418 c 0.152 -1.176 0.41 -2.059 0.707 -2.41 c 0.125 -0.148 0.316 -0.238 0.469 -0.215 c 0.398 0.051 0.594 0.523 0.648 1.59 c 0.031 0.625 0.055 0.641 0.172 0.109 c 0.246 -1.078 0.609 -1.602 1.039 -1.484 c 0.309 0.086 0.5 0.441 0.609 1.148 c 0.031 0.176 0.059 0.652 0.07 1.133 c 0.023 1 0.035 0.957 0.168 -0.621 c 0.051 -0.645 0.102 -1.199 0.109 -1.234 c 0.012 -0.039 0.039 -0.078 0.066 -0.09 c 0.074 -0.027 0.773 0.164 0.934 0.254 c 0.102 0.063 0.156 0.125 0.23 0.277 c 0.156 0.32 0.258 0.977 0.258 1.672 c 0 0.18 0.012 0.336 0.027 0.348 c 0.035 0.023 0.055 -0.137 0.133 -1.113 c 0.035 -0.453 0.078 -0.813 0.098 -0.836 c 0.059 -0.074 0.125 -0.055 0.461 0.141 c 0.344 0.203 0.617 0.449 0.715 0.641 c 0.059 0.113 0.059 0.156 0.031 0.82 c -0.043 0.859 -0.066 0.91 -0.32 0.633 c -0.176 -0.188 -0.313 -0.281 -0.348 -0.246 c -0.016 0.016 -0.035 0.188 -0.051 0.383 l -0.02 0.355 c 0.172 0.117 0.352 0.234 0.496 0.383 l 0.125 0.129 l -0.043 0.691 c -0.047 0.832 -0.07 0.887 -0.289 0.695 c -0.191 -0.164 -0.355 -0.262 -0.391 -0.23 c -0.016 0.02 -0.047 0.242 -0.066 0.504 c -0.039 0.539 -0.07 0.469 0.305 0.711 c 0.129 0.086 0.273 0.191 0.313 0.234 l 0.078 0.082 l -0.039 0.602 c -0.066 1.141 -0.059 1.121 -0.398 0.887 c -0.117 -0.082 -0.367 -0.219 -0.555 -0.309 c -0.621 -0.289 -0.566 -0.25 -0.563 -0.395 c 0 -0.07 0.031 -0.488 0.07 -0.926 c 0.066 -0.773 0.086 -1.16 0.055 -1.129 c -0.008 0.008 -0.059 0.223 -0.113 0.473 c -0.113 0.512 -0.289 1.051 -0.391 1.203 c -0.105 0.152 -0.301 0.27 -0.461 0.27 c -0.223 0 -0.816 -0.152 -0.879 -0.227 c -0.059 -0.07 -0.059 -0.086 0.008 -0.684 c 0.063 -0.57 0.156 -1.828 0.156 -2.031 c -0.004 -0.18 -0.02 -0.121 -0.113 0.434 c -0.207 1.215 -0.426 1.871 -0.711 2.133 c -0.293 0.266 -0.66 0.168 -0.879 -0.227 c -0.129 -0.246 -0.199 -0.574 -0.242 -1.156 c -0.023 -0.289 -0.047 -0.551 -0.055 -0.574 c -0.023 -0.078 -0.059 0.012 -0.105 0.254 c -0.074 0.41 -0.227 0.953 -0.316 1.152 c -0.105 0.23 -0.285 0.434 -0.445 0.5 c -0.184 0.074 -0.441 -0.004 -0.59 -0.18 c -0.176 -0.207 -0.305 -0.777 -0.203 -0.863 c 0.039 -0.031 0.043 -0.055 0.016 -0.086 c -0.051 -0.063 -0.09 -0.055 -0.094 0.012 c 0 0.031 -0.078 0.148 -0.176 0.262 l -0.176 0.211 l 0.02 0.176 c 0.066 0.602 0.047 0.824 -0.063 0.734 c -0.027 -0.023 -0.051 -0.063 -0.051 -0.086 c 0 -0.066 -0.094 -0.234 -0.129 -0.234 c -0.02 0 -0.023 0.176 -0.012 0.488 l 0.02 0.484 l -0.133 0.512 c -0.164 0.625 -0.289 1.203 -0.289 1.34 c 0 0.184 0.094 0.387 0.254 0.555 c 0.262 0.273 0.414 0.262 1.023 -0.07 c 0.309 -0.172 0.523 -0.297 0.824 -0.488 c 0.172 -0.109 0.484 -0.242 0.758 -0.316 c 0.254 -0.07 0.609 -0.055 0.887 0.031 c 0.301 0.098 0.453 0.199 0.758 0.52 c 0.789 0.828 1.035 1 1.426 1.027 c 0.172 0.012 0.23 0 0.426 -0.09 c 0.273 -0.125 0.406 -0.262 0.574 -0.598 c 0.16 -0.324 0.258 -0.707 0.258 -1.023 c 0 -0.324 0.039 -0.383 0.117 -0.18 c 0.047 0.129 0.059 0.242 0.059 0.652 c 0 0.473 -0.008 0.512 -0.109 0.832 c -0.188 0.59 -0.402 0.938 -0.824 1.344 c -0.199 0.191 -0.258 0.266 -0.227 0.285 c 0.035 0.023 0.172 0.059 0.434 0.113 c 0.125 0.023 0.078 0.066 -0.109 0.105 c -0.254 0.051 -0.98 0.043 -1.398 -0.012 c -0.195 -0.027 -0.379 -0.047 -0.41 -0.047 c -0.102 -0.004 -0.055 -0.059 0.082 -0.102 c 0.191 -0.063 0.113 -0.148 0 -0.234 c -0.074 -0.051 -0.273 -0.211 -0.445 -0.355 c -0.414 -0.336 -0.461 -0.367 -0.762 -0.492 c -0.211 -0.086 -0.277 -0.102 -0.414 -0.086 c -0.195 0.023 -0.598 0.223 -0.883 0.434 c -0.508 0.383 -0.809 0.563 -1.043 0.629 c -0.145 0.039 -0.078 0.102 0.156 0.137 c 0.344 0.051 0.348 0.082 0.008 0.133 c -0.254 0.035 -1.27 0.035 -1.691 -0.004 m 1.191 -0.301 c 0.363 -0.078 0.934 -0.371 1.223 -0.637 c 0.203 -0.188 0.57 -0.406 0.777 -0.469 c 0.48 -0.148 0.77 -0.035 1.508 0.578 c 0.328 0.273 0.32 0.227 0.191 0.074 c -0.055 -0.07 0.344 0.203 0.531 0.301 c 0.32 0.168 0.691 0.121 0.996 -0.121 c 0.129 -0.102 0.168 -0.121 0.176 -0.082 c 0.016 0.074 0.059 0.066 0.105 -0.02 c 0.02 -0.039 0.078 -0.109 0.129 -0.156 c 0.09 -0.086 0.117 -0.156 0.059 -0.156 c -0.016 0 -0.023 -0.02 -0.012 -0.047 c 0.09 -0.066 0.168 -0.094 0.191 -0.188 c -0.008 -0.027 0.004 -0.063 0.023 -0.082 c 0.082 -0.141 0.102 -0.312 0.16 -0.457 c 0.145 -0.363 0.137 -0.414 -0.023 -0.18 c -0.078 0.117 -0.211 0.266 -0.293 0.336 c -0.145 0.117 -0.148 0.125 -0.129 0.254 c 0.035 0.242 -0.172 0.527 -0.418 0.574 c -0.395 0.074 -0.707 -0.145 -0.672 -0.469 c 0.016 -0.145 0.016 -0.152 -0.109 -0.234 c -0.152 -0.098 -0.168 -0.102 -0.289 -0.008 c -0.137 0.098 -0.414 0.098 -0.578 -0.004 c -0.141 -0.086 -0.281 -0.309 -0.281 -0.441 c 0.004 -0.109 0.082 -0.387 0.133 -0.449 c 0.051 -0.059 -0.004 -0.121 -0.195 -0.215 c -0.16 -0.082 -0.223 -0.066 -0.223 0.051 c 0 0.07 -0.145 0.242 -0.258 0.301 c -0.051 0.023 -0.168 0.043 -0.262 0.043 c -0.328 0 -0.566 -0.188 -0.566 -0.453 c 0 -0.063 -0.016 -0.125 -0.035 -0.137 c -0.039 -0.027 -0.406 0.047 -0.43 0.082 c -0.008 0.012 0.008 0.078 0.035 0.145 c 0.035 0.082 0.047 0.18 0.039 0.289 c -0.012 0.137 -0.035 0.191 -0.156 0.328 c -0.18 0.211 -0.27 0.258 -0.496 0.258 c -0.27 0 -0.426 -0.055 -0.5 -0.18 c -0.035 -0.059 -0.066 -0.105 -0.07 -0.105 c -0.008 0 -0.078 0.027 -0.156 0.063 c -0.16 0.066 -0.211 0.137 -0.211 0.285 c 0 0.262 -0.176 0.449 -0.414 0.449 c -0.305 0 -0.563 -0.148 -0.688 -0.398 c -0.133 -0.258 -0.105 -0.391 0.113 -0.594 c 0.117 -0.109 0.121 -0.121 0.086 -0.223 c -0.059 -0.184 -0.074 -0.203 -0.188 -0.227 c -0.133 -0.027 -0.332 -0.246 -0.387 -0.414 c -0.098 -0.324 0.301 -0.824 0.594 -0.75 c 0.094 0.023 0.141 -0.031 0.152 -0.172 c 0.012 -0.098 0 -0.109 -0.094 -0.137 c -0.059 -0.016 -0.172 -0.09 -0.25 -0.168 c -0.137 -0.141 -0.141 -0.145 -0.141 -0.355 c 0 -0.156 0.016 -0.238 0.063 -0.316 c 0.082 -0.129 0.266 -0.254 0.445 -0.305 c 0.152 -0.039 0.145 -0.016 0.063 -0.324 c -0.035 -0.137 -0.035 -0.137 -0.219 -0.074 c -0.082 0.031 -0.25 0.047 -0.434 0.047 c -0.352 0 -0.32 -0.039 -0.348 0.469 c -0.02 0.371 -0.035 0.426 -0.113 0.426 c -0.043 0 -0.074 0.063 -0.129 0.25 c -0.039 0.137 -0.105 0.313 -0.145 0.391 c -0.105 0.219 -0.293 0.746 -0.379 1.086 c -0.125 0.48 -0.117 0.949 0.02 1.328 c 0.07 0.195 0.348 0.613 0.527 0.797 c 0.477 0.492 1.207 0.695 1.949 0.539 m -3.137 -4.473 c -0.012 -0.074 -0.027 -0.141 -0.039 -0.141 c -0.031 0 -0.168 0.18 -0.168 0.227 c 0 0.023 0.047 0.066 0.102 0.094 c 0.125 0.059 0.137 0.035 0.105 -0.18 m 9.707 0.188 c 0.008 -0.031 0.023 -0.281 0.039 -0.555 l 0.02 -0.5 l -0.137 -0.098 c -0.188 -0.141 -0.398 -0.223 -0.566 -0.379 c -0.031 -0.082 0.082 -1.414 0.121 -1.465 c 0.063 -0.074 0.188 -0.055 0.383 0.066 c 0.102 0.063 0.199 0.109 0.215 0.109 c 0.035 0 0.07 -0.395 0.07 -0.734 l 0.004 -0.211 c -0.145 -0.105 -0.289 -0.215 -0.441 -0.316 c -0.074 -0.047 -0.141 -0.113 -0.152 -0.145 c -0.012 -0.035 -0.004 -0.297 0.02 -0.582 c 0.051 -0.727 0.102 -0.781 0.48 -0.52 l 0.203 0.145 l 0.02 -0.199 c 0.023 -0.273 0.027 -0.516 0.027 -0.789 l -0.168 -0.168 c -0.164 -0.172 -0.52 -0.402 -0.559 -0.363 c -0.016 0.016 -0.441 5.352 -0.492 6.129 l -0.008 0.184 c 0.293 0.145 0.582 0.305 0.883 0.445 c 0.012 0 0.027 -0.023 0.039 -0.055 m -13.11 -0.496 c 0.035 -0.074 0.156 -0.602 0.273 -1.172 c 0.168 -0.832 0.223 -1.051 0.273 -1.094 c 0.07 -0.059 0.18 -0.043 0.219 0.035 c 0.016 0.027 0.047 0.332 0.066 0.676 c 0.023 0.34 0.051 0.637 0.066 0.652 c 0.016 0.02 0.035 0.176 0.047 0.348 c 0.02 0.254 0.035 0.309 0.07 0.293 c 0.027 -0.008 0.063 -0.016 0.078 -0.016 c 0.023 0 0.027 -0.043 0.012 -0.121 c -0.012 -0.066 -0.023 -0.305 -0.023 -0.535 c 0 -0.227 -0.039 -0.926 -0.086 -1.547 l -0.09 -1.137 l 0.363 -1.656 c 0.199 -0.914 0.355 -1.668 0.348 -1.676 c -0.008 -0.008 -0.055 0 -0.102 0.016 c -0.09 0.031 -0.09 0.035 -0.305 1.109 c -0.121 0.594 -0.234 1.102 -0.254 1.125 c -0.055 0.07 -0.18 0.055 -0.23 -0.027 c -0.031 -0.051 -0.055 -0.289 -0.082 -0.84 c -0.02 -0.422 -0.047 -0.844 -0.055 -0.934 c -0.02 -0.168 -0.023 -0.172 -0.105 -0.152 c -0.043 0.012 -0.094 0.031 -0.105 0.043 c -0.012 0.012 0.027 0.719 0.09 1.57 l 0.113 1.551 l -0.063 0.32 c -0.035 0.176 -0.195 0.953 -0.355 1.727 c -0.16 0.77 -0.289 1.445 -0.289 1.492 c 0 0.129 0.059 0.105 0.125 -0.047 m 3.473 -0.227 c 0.039 -0.074 0.137 -0.211 0.223 -0.305 c 0.145 -0.164 0.148 -0.176 0.094 -0.219 c -0.047 -0.031 -0.07 -0.035 -0.105 -0.004 c -0.047 0.039 -0.27 0.465 -0.309 0.594 c -0.039 0.121 0.031 0.078 0.098 -0.066 m 7.828 -0.332 c 0.051 -0.102 0.109 -0.199 0.129 -0.211 c 0.082 -0.051 0.254 -0.77 0.328 -1.348 c 0.133 -1.055 0.203 -2.477 0.16 -3.215 c -0.051 -0.867 -0.164 -1.281 -0.375 -1.367 c -0.172 -0.07 -0.535 -0.16 -0.559 -0.137 c -0.039 0.035 -0.473 5.477 -0.461 5.754 c 0.012 0.223 0.027 0.277 0.117 0.422 c 0.078 0.145 0.156 0.277 0.297 0.34 c 0.152 0.043 0.254 -0.023 0.359 -0.238 m -0.395 -0.961 c -0.039 -0.008 -0.094 -0.047 -0.117 -0.086 c -0.043 -0.063 -0.031 -0.27 0.105 -1.961 c 0.113 -1.363 0.168 -1.902 0.199 -1.941 c 0.063 -0.074 0.258 -0.043 0.395 0.063 c 0.207 0.156 0.227 0.273 0.223 1.234 c 0 0.652 -0.016 0.977 -0.07 1.422 c -0.137 1.152 -0.258 1.363 -0.734 1.27 m 0.297 -0.371 c 0.172 -0.406 0.344 -2.691 0.234 -3.105 c -0.113 -0.434 -0.148 -0.176 -0.391 2.934 c -0.023 0.27 -0.023 0.277 0.043 0.277 c 0.047 0 0.082 -0.031 0.113 -0.105 m -9.348 1.25 c 0.055 -0.328 0.066 -0.445 0.148 -1.496 c 0.043 -0.551 0.086 -1.027 0.098 -1.059 c 0.02 -0.066 0.145 -0.113 0.375 -0.141 c 0.102 -0.012 0.203 -0.039 0.223 -0.059 c 0.039 -0.039 0.137 -1.035 0.105 -1.063 c -0.176 -0.004 -0.535 0.109 -0.582 -0.066 c -0.039 -0.145 0.066 -1.313 0.117 -1.367 c 0.027 -0.023 0.188 -0.066 0.363 -0.094 c 0.176 -0.027 0.328 -0.063 0.34 -0.082 c 0.027 -0.043 0.105 -1.113 0.086 -1.137 c -0.02 -0.02 -0.887 0.105 -0.91 0.129 c -0.02 0.02 -0.457 5.645 -0.469 6.04 c -0.008 0.211 -0.023 0.445 -0.035 0.52 c -0.023 0.137 -0.023 0.141 0.039 0.105 c 0.051 -0.023 0.074 -0.086 0.102 -0.234 m 7.273 0.027 c -0.008 -0.043 -0.027 -0.098 -0.035 -0.125 c 0.137 -0.176 0.207 -0.055 0.262 0.09 l 0.121 -0.242 c 0.063 -0.129 0.145 -0.273 0.18 -0.316 c 0.129 -0.168 0.301 -1.039 0.418 -2.141 c 0.098 -0.895 0.105 -2.629 0.016 -3.102 c -0.094 -0.496 -0.262 -0.797 -0.449 -0.797 c -0.184 0 -0.43 0.441 -0.59 1.055 c -0.16 0.609 -0.25 1.207 -0.344 2.234 c -0.09 1 -0.063 2.59 0.047 2.73 c 0.016 0.02 0.047 0.094 0.07 0.164 c 0.055 0.176 0.152 0.367 0.23 0.453 c 0.086 0.094 0.098 0.09 0.074 -0.004 m -0.047 -1.223 c -0.176 -0.145 -0.211 -0.34 -0.211 -1.145 c 0.004 -1.102 0.152 -2.262 0.344 -2.68 c 0.082 -0.18 0.23 -0.309 0.352 -0.309 c 0.113 0 0.27 0.184 0.332 0.391 c 0.152 0.516 -0.012 2.793 -0.25 3.43 c -0.133 0.363 -0.359 0.488 -0.566 0.316 m 0.246 -0.246 c 0.184 -0.227 0.379 -1.824 0.352 -2.863 c -0.008 -0.293 -0.031 -0.57 -0.051 -0.621 c -0.121 -0.293 -0.297 0.207 -0.402 1.16 c -0.164 1.426 -0.113 2.586 0.102 2.324 m -3.156 1.422 c 0 -0.105 -0.039 -0.199 -0.082 -0.199 c -0.066 0 -0.082 0.098 -0.031 0.18 c 0.059 0.09 0.113 0.098 0.113 0.02 m 1.254 -0.102 c 0.102 -0.109 0.18 -0.246 0.27 -0.359 c 0.09 -0.094 0.258 -0.719 0.348 -1.289 c 0.055 -0.34 0.055 -0.359 -0.004 -0.441 c -0.031 -0.051 -0.066 -0.078 -0.078 -0.063 c -0.012 0.012 -0.051 0.16 -0.09 0.328 c -0.086 0.367 -0.18 0.539 -0.328 0.621 c -0.102 0.051 -0.129 0.055 -0.211 0.023 c -0.176 -0.074 -0.293 -0.414 -0.297 -0.852 l -0.004 -0.16 l -0.074 0.094 c -0.043 0.051 -0.086 0.137 -0.098 0.191 c -0.055 0.227 0.008 1.258 0.082 1.348 c 0.016 0.02 0.074 0.164 0.129 0.32 c 0.145 0.418 0.176 0.438 0.355 0.238 m -2.035 0.051 c 0.121 -0.023 0.285 -0.078 0.363 -0.117 c 0.184 -0.094 0.574 -0.496 0.711 -0.727 c 0.164 -0.285 0.191 -0.383 0.188 -0.711 c 0 -0.316 -0.051 -0.566 -0.168 -0.836 c -0.063 -0.145 -0.074 -0.16 -0.148 -0.141 c -0.207 0.051 -0.383 0.078 -0.523 0.078 c -0.105 0.004 -0.16 0.02 -0.172 0.051 c -0.027 0.074 -0.105 0.059 -0.203 -0.039 c -0.047 -0.051 -0.148 -0.133 -0.227 -0.184 c -0.074 -0.055 -0.152 -0.109 -0.176 -0.129 c -0.027 -0.02 -0.102 0.012 -0.234 0.109 c -0.258 0.18 -0.547 0.297 -0.801 0.324 c -0.176 0.02 -0.215 0.016 -0.289 -0.039 c -0.145 -0.105 -0.191 -0.07 -0.336 0.262 c -0.074 0.164 -0.152 0.336 -0.172 0.379 c -0.082 0.184 -0.012 0.645 0.145 0.98 c 0.117 0.25 0.449 0.504 0.859 0.656 c 0.328 0.121 0.801 0.152 1.184 0.082 m -0.207 -0.785 c -0.078 -0.012 -0.117 -0.039 -0.125 -0.082 c -0.008 -0.035 -0.035 -0.09 -0.063 -0.125 c -0.047 -0.051 -0.047 -0.066 -0.004 -0.141 c 0.039 -0.07 0.07 -0.086 0.172 -0.086 c 0.109 0 0.133 0.012 0.176 0.094 c 0.027 0.055 0.066 0.109 0.09 0.121 c 0.023 0.016 0.039 0.047 0.039 0.074 c 0 0.051 -0.113 0.176 -0.152 0.168 c -0.012 0 -0.074 -0.012 -0.133 -0.023 m 0.086 -0.074 c 0.066 -0.063 0.043 -0.09 -0.039 -0.051 c -0.043 0.02 -0.07 0.047 -0.063 0.063 c 0.023 0.039 0.059 0.035 0.102 -0.012 m -1.027 0.012 c -0.012 -0.016 0.012 -0.039 0.051 -0.047 c 0.086 -0.023 0.219 0.004 0.219 0.047 c 0 0.035 -0.246 0.035 -0.27 0 m 0.031 -0.184 c -0.066 -0.066 -0.063 -0.152 0.008 -0.215 c 0.117 -0.109 0.262 -0.047 0.262 0.109 c 0 0.141 -0.168 0.207 -0.27 0.105 m -0.227 -0.055 c -0.023 -0.059 -0.004 -0.168 0.047 -0.246 c 0.059 -0.086 0.07 -0.004 0.023 0.148 c -0.035 0.117 -0.051 0.141 -0.07 0.098 m 1.52 -1.133 c -0.078 -0.047 -0.121 -0.09 -0.098 -0.098 c 0.02 -0.008 0.047 0 0.059 0.016 c 0.012 0.016 0.078 0.043 0.145 0.059 c 0.066 0.02 0.121 0.047 0.121 0.063 c 0 0.063 -0.086 0.047 -0.227 -0.039 m 0.23 -0.059 c -0.082 -0.035 -0.035 -0.078 0.09 -0.078 c 0.09 0 0.125 0.012 0.117 0.043 c -0.012 0.039 -0.141 0.063 -0.207 0.035 m -2.34 2.02 c 0 -0.027 -0.016 -0.047 -0.031 -0.047 c -0.02 0 -0.035 0.02 -0.035 0.047 c 0 0.027 0.016 0.047 0.035 0.047 c 0.016 0 0.031 -0.02 0.031 -0.047 m -1.773 -2.859 c 0.238 -3.043 0.215 -2.715 0.18 -2.715 c -0.039 0 -0.07 0.125 -0.387 1.574 l -0.293 1.336 l 0.098 1.262 c 0.055 0.695 0.105 1.277 0.117 1.297 c 0.016 0.027 0.031 0.02 0.051 -0.023 c 0.012 -0.035 0.117 -1.262 0.234 -2.73 m 1.57 2.469 c -0.035 -0.031 -0.063 0.016 -0.035 0.059 c 0.02 0.035 0.027 0.035 0.039 0 c 0.008 -0.02 0.004 -0.047 -0.004 -0.059 m 4.273 -1 c 0.059 -0.145 0.16 -0.605 0.195 -0.883 c 0.023 -0.172 0.086 -0.273 0.152 -0.254 c 0.039 0.012 0.148 0.152 0.332 0.418 c 0.059 0.082 0.117 0.148 0.133 0.148 c 0.016 0 0.039 -0.16 0.051 -0.359 c 0.031 -0.492 0.109 -1.371 0.145 -1.605 c 0.039 -0.246 0.039 -0.398 0 -0.398 c -0.016 0 -0.145 0.09 -0.289 0.199 c -0.336 0.258 -0.359 0.246 -0.387 -0.18 c -0.031 -0.5 -0.07 -0.617 -0.168 -0.531 c -0.055 0.047 -0.164 0.441 -0.223 0.832 c -0.125 0.797 -0.191 2.344 -0.113 2.625 c 0.043 0.16 0.105 0.152 0.172 -0.012 m -4.27 -0.563 c 0.137 -0.191 0.23 -0.422 0.23 -0.563 c 0 -0.168 0.066 -0.449 0.141 -0.59 c 0.027 -0.055 0.102 -0.148 0.164 -0.211 c 0.063 -0.063 0.109 -0.137 0.109 -0.172 c 0 -0.031 0.031 -0.145 0.066 -0.25 c 0.098 -0.277 0.16 -0.66 0.16 -0.996 c 0 -0.402 -0.063 -0.379 -0.141 0.043 c -0.098 0.555 -0.094 0.543 -0.176 0.555 c -0.121 0.016 -0.516 -0.094 -0.543 -0.152 c -0.016 -0.027 -0.016 -0.148 0 -0.27 c 0.016 -0.121 0.023 -0.227 0.012 -0.238 c -0.02 -0.023 -0.633 0.055 -0.684 0.086 c -0.039 0.027 -0.098 0.484 -0.098 0.797 v 0.172 l 0.266 -0.023 c 0.211 -0.016 0.27 -0.012 0.301 0.027 c 0.031 0.035 0.027 0.203 -0.016 0.766 c -0.031 0.398 -0.047 0.73 -0.035 0.742 c 0.012 0.012 0.066 -0.004 0.121 -0.035 c 0.148 -0.074 0.195 -0.016 0.086 0.113 c -0.082 0.098 -0.117 0.289 -0.055 0.289 c 0.016 0 0.055 -0.039 0.09 -0.09 m 1.23 -0.418 c 0.16 -0.078 0.199 -0.168 0.09 -0.227 c -0.066 -0.035 -0.164 -0.25 -0.164 -0.355 c 0 -0.035 0.047 -0.133 0.102 -0.211 l 0.102 -0.148 l 0.234 0.02 c 0.211 0.016 0.234 0.012 0.234 -0.043 c 0 -0.109 -0.043 -0.16 -0.195 -0.238 c -0.25 -0.129 -0.414 -0.094 -0.742 0.148 c -0.352 0.254 -0.574 0.68 -0.504 0.945 c 0.047 0.168 0.121 0.203 0.434 0.191 c 0.191 -0.004 0.297 -0.027 0.41 -0.082 m 2.559 -0.078 c 0.008 -0.09 0.031 -0.375 0.051 -0.629 c 0.09 -1.187 0.258 -1.898 0.484 -2.059 c 0.242 -0.172 0.473 0.055 0.523 0.52 c 0.023 0.211 0.063 0.242 0.16 0.133 c 0.055 -0.063 0.055 -0.098 0.02 -0.633 c -0.066 -0.977 -0.188 -1.348 -0.438 -1.348 c -0.434 0 -0.801 1.375 -0.973 3.641 c -0.035 0.43 -0.031 0.465 0.02 0.504 c 0.102 0.074 0.133 0.047 0.152 -0.129 m -0.887 0.016 c 0.094 -0.047 0.16 -0.121 0.242 -0.258 c 0.148 -0.25 0.164 -0.297 0.121 -0.449 c -0.047 -0.172 -0.203 -0.348 -0.383 -0.426 c -0.203 -0.09 -0.605 -0.094 -0.785 -0.008 c -0.117 0.062 -0.125 0.07 -0.125 0.207 v 0.145 l 0.129 0.004 c 0.152 0.008 0.316 0.082 0.363 0.172 c 0.02 0.031 0.035 0.121 0.035 0.195 c 0 0.113 -0.02 0.152 -0.129 0.258 c -0.07 0.07 -0.129 0.141 -0.129 0.156 c 0 0.113 0.441 0.117 0.66 0.004 m -0.664 -0.18 c 0.305 -0.156 0.145 -0.621 -0.164 -0.473 c -0.113 0.055 -0.117 0.117 -0.004 0.09 c 0.113 -0.027 0.238 0.055 0.238 0.156 c 0 0.145 -0.246 0.199 -0.332 0.078 c -0.027 -0.039 -0.063 -0.059 -0.082 -0.047 c -0.047 0.027 -0.043 0.156 0.004 0.203 c 0.051 0.051 0.234 0.047 0.34 -0.008 m -0.773 -0.141 c -0.07 -0.078 -0.066 -0.207 0.008 -0.297 c 0.055 -0.07 0.07 -0.07 0.172 -0.035 c 0.133 0.047 0.152 0.047 0.152 0.004 c 0 -0.016 -0.051 -0.055 -0.113 -0.078 c -0.211 -0.09 -0.363 0.02 -0.375 0.258 c -0.004 0.098 0.016 0.137 0.09 0.199 c 0.102 0.09 0.152 0.047 0.066 -0.051 m -0.344 -0.988 c 0.066 -0.055 0.129 -0.297 0.078 -0.293 c -0.07 0 -0.168 0.121 -0.188 0.23 c -0.023 0.133 0.004 0.148 0.109 0.063 m 0.832 -0.016 c 0.016 -0.039 0.047 -0.195 0.066 -0.344 c 0.102 -0.773 0.313 -1.215 0.574 -1.215 c 0.063 0 0.145 0.023 0.184 0.047 c 0.07 0.051 0.152 0.242 0.184 0.441 c 0.02 0.129 0.059 0.148 0.148 0.066 c 0.051 -0.047 0.059 -0.105 0.059 -0.438 c 0 -0.391 -0.063 -0.918 -0.125 -1.09 c -0.063 -0.16 -0.16 -0.242 -0.293 -0.242 c -0.23 0 -0.414 0.258 -0.598 0.832 c -0.184 0.582 -0.418 1.895 -0.352 1.973 c 0.055 0.063 0.121 0.047 0.152 -0.031 m -0.742 -0.465 c 0.098 -0.063 0.141 -1.313 0.059 -1.766 c -0.07 -0.398 -0.168 -0.52 -0.387 -0.465 c -0.191 0.051 -0.383 0.539 -0.508 1.281 c -0.121 0.723 -0.117 0.684 -0.047 0.719 c 0.074 0.043 0.074 0.047 0.141 -0.336 c 0.09 -0.48 0.203 -0.668 0.406 -0.648 c 0.223 0.023 0.309 0.324 0.266 0.922 c -0.023 0.309 -0.012 0.348 0.07 0.293 m -6.02 6.891 c -0.031 -0.031 -0.039 -0.223 -0.039 -0.73 c 0 -1.621 0.164 -6.559 0.227 -6.813 c 0.035 -0.133 0.246 -0.332 0.555 -0.52 c 0.223 -0.133 0.328 -0.141 0.461 -0.031 c 0.125 0.105 0.207 0.371 0.262 0.816 c 0.047 0.426 0.02 2.055 -0.051 2.871 c -0.176 2.066 -0.461 3.23 -0.922 3.754 c -0.164 0.188 -0.238 0.328 -0.289 0.527 c -0.039 0.152 -0.121 0.203 -0.203 0.125 m 0.398 -0.977 c 0.164 -0.242 0.262 -0.492 0.375 -0.945 c 0.187 -0.734 0.289 -1.457 0.391 -2.738 c 0.066 -0.875 0.078 -2.438 0.016 -2.781 c -0.055 -0.301 -0.117 -0.445 -0.184 -0.445 c -0.059 0 -0.41 0.238 -0.5 0.34 c -0.043 0.051 -0.059 0.168 -0.086 0.652 c -0.016 0.324 -0.023 0.594 -0.02 0.598 c 0.008 0.008 0.039 -0.016 0.074 -0.055 c 0.215 -0.211 0.418 -0.191 0.523 0.051 c 0.086 0.199 0.102 0.563 0.059 1.336 c -0.066 1.227 -0.172 2.074 -0.289 2.391 c -0.082 0.223 -0.289 0.461 -0.406 0.477 l -0.09 0.008 l -0.008 0.633 c -0.004 0.348 0.004 0.629 0.016 0.629 c 0.016 0 0.07 -0.066 0.129 -0.152 m 0.199 -2.035 c 0.086 -0.469 0.191 -1.867 0.191 -2.555 c 0 -0.488 -0.023 -0.648 -0.09 -0.574 c -0.027 0.031 -0.152 1.938 -0.188 2.883 c -0.012 0.344 -0.008 0.461 0.02 0.438 c 0.02 -0.02 0.047 -0.105 0.066 -0.191" fill="#535963"/></svg>