<svg xmlns="http://www.w3.org/2000/svg" viewBox="0 0 22 22"><path d="m 4.652 19.785 c 16.238 10.844 26.24 -23.742 5.25 -19.16 c -8.676 1.949 -13.941 14.188 -5.25 19.16" fill="#ede7aa"/><path d="m 5.758 16.652 c 0 -0.254 0.043 -0.441 0.105 -0.473 c 0.086 -0.039 0.086 -0.059 0 -0.102 c -0.082 -0.039 -0.105 -1.129 -0.105 -5.03 v -4.977 h 11 v 4.977 c 0 3.898 -0.023 4.988 -0.109 5.03 c -0.086 0.043 -0.086 0.063 0 0.102 c 0.066 0.031 0.109 0.219 0.109 0.473 v 0.422 h -0.422 c -0.254 0 -0.445 -0.043 -0.473 -0.105 c -0.043 -0.086 -0.063 -0.086 -0.102 0 c -0.074 0.156 -8.852 0.156 -8.922 0 c -0.043 -0.086 -0.063 -0.086 -0.102 0 c -0.031 0.066 -0.227 0.105 -0.516 0.105 h -0.465 m 8.824 -0.922 c -1.145 -0.02 -1.492 -0.055 -1.656 -0.164 c -0.125 -0.082 -0.289 -0.113 -0.414 -0.082 c -0.332 0.082 -0.652 -0.078 -0.652 -0.328 c 0 -0.117 0.043 -0.238 0.094 -0.27 c 0.066 -0.043 0.066 -0.082 0 -0.152 c -0.117 -0.113 -0.125 -0.461 -0.012 -0.527 c 0.051 -0.031 0.047 -0.133 -0.016 -0.27 c -0.078 -0.168 -0.078 -0.258 0 -0.379 c 0.063 -0.105 0.07 -0.184 0.016 -0.215 c -0.043 -0.027 -0.082 -0.145 -0.082 -0.258 c 0 -0.113 0.039 -0.227 0.082 -0.254 c 0.055 -0.035 0.047 -0.113 -0.016 -0.215 c -0.078 -0.125 -0.078 -0.215 0 -0.379 c 0.063 -0.137 0.066 -0.238 0.016 -0.27 c -0.113 -0.07 -0.105 -0.449 0.012 -0.52 c 0.066 -0.043 0.066 -0.082 0 -0.152 c -0.117 -0.113 -0.125 -0.461 -0.012 -0.527 c 0.051 -0.031 0.047 -0.133 -0.016 -0.27 c -0.078 -0.168 -0.078 -0.258 0 -0.379 c 0.063 -0.105 0.07 -0.184 0.016 -0.215 c -0.109 -0.066 -0.109 -0.445 0 -0.512 c 0.055 -0.035 0.047 -0.113 -0.016 -0.215 c -0.078 -0.125 -0.078 -0.215 0 -0.379 c 0.063 -0.137 0.066 -0.238 0.016 -0.27 c -0.113 -0.07 -0.105 -0.449 0.012 -0.52 c 0.066 -0.043 0.066 -0.082 0 -0.152 c -0.125 -0.121 -0.121 -0.426 0.008 -0.555 c 0.082 -0.082 0.063 -0.105 -0.078 -0.105 c -0.102 0 -0.211 0.039 -0.238 0.086 c -0.098 0.156 -0.047 8.188 0.051 8.305 c 0.113 0.133 0.734 0.172 2.785 0.168 l 1.547 -0.004 m -5.125 -0.16 c 0.063 -0.078 0.09 -1.141 0.086 -3.414 c 0 -1.816 0.02 -3.363 0.051 -3.441 c 0.031 -0.074 0.039 -0.441 0.023 -0.816 l -0.027 -0.68 l -0.02 0.75 l -0.016 0.75 l -1.461 0.023 c -0.898 0.016 -1.465 0.059 -1.465 0.109 c -0.004 0.047 -0.063 0.172 -0.129 0.277 c -0.078 0.117 -0.09 0.207 -0.039 0.238 c 0.109 0.07 0.109 0.449 0 0.516 c -0.051 0.031 -0.027 0.141 0.066 0.281 c 0.082 0.125 0.129 0.25 0.105 0.273 c -0.023 0.027 0.285 0.059 0.684 0.074 c 0.398 0.012 0.777 0.066 0.836 0.117 c 0.152 0.125 0.152 1.305 0 1.434 c -0.059 0.051 -0.438 0.102 -0.836 0.117 c -0.426 0.012 -0.719 0.059 -0.711 0.109 c 0.012 0.047 -0.039 0.172 -0.105 0.277 c -0.078 0.117 -0.09 0.207 -0.039 0.238 c 0.109 0.066 0.113 0.445 0.004 0.512 c -0.047 0.031 -0.031 0.145 0.039 0.277 c 0.102 0.191 0.098 0.242 -0.012 0.352 c -0.09 0.094 -0.102 0.156 -0.039 0.223 c 0.121 0.117 0.121 0.457 0.004 0.531 c -0.063 0.039 -0.063 0.09 0.008 0.172 c 0.313 0.379 -0.215 0.746 -0.848 0.59 c -0.34 -0.082 -0.469 -0.359 -0.277 -0.59 c 0.066 -0.082 0.07 -0.133 0.008 -0.172 c -0.113 -0.07 -0.117 -0.449 -0.008 -0.516 c 0.051 -0.035 0.047 -0.133 -0.016 -0.27 c -0.078 -0.168 -0.074 -0.258 0 -0.383 c 0.066 -0.102 0.07 -0.18 0.016 -0.211 c -0.109 -0.066 -0.109 -0.445 0 -0.516 c 0.055 -0.031 0.051 -0.109 -0.016 -0.211 c -0.074 -0.125 -0.078 -0.215 0 -0.379 c 0.063 -0.137 0.066 -0.238 0.016 -0.27 c -0.113 -0.07 -0.105 -0.449 0.012 -0.52 c 0.066 -0.043 0.066 -0.086 0 -0.152 c -0.117 -0.113 -0.125 -0.461 -0.012 -0.527 c 0.051 -0.035 0.047 -0.133 -0.016 -0.27 c -0.078 -0.168 -0.074 -0.258 0 -0.383 c 0.066 -0.102 0.07 -0.18 0.016 -0.211 c -0.109 -0.066 -0.109 -0.445 0 -0.516 c 0.055 -0.031 0.051 -0.109 -0.016 -0.211 c -0.074 -0.125 -0.078 -0.215 0 -0.379 c 0.063 -0.137 0.066 -0.238 0.016 -0.27 c -0.113 -0.07 -0.105 -0.449 0.012 -0.52 c 0.066 -0.043 0.066 -0.086 0 -0.152 c -0.125 -0.125 -0.121 -0.43 0.008 -0.555 c 0.082 -0.082 0.063 -0.105 -0.078 -0.105 c -0.102 0 -0.211 0.039 -0.238 0.09 c -0.105 0.164 -0.051 8.176 0.055 8.305 c 0.137 0.164 4.219 0.168 4.359 0 m 5.293 -1.598 c -0.066 -0.164 -0.066 -6.457 0 -6.52 c 0.023 -0.027 0 -0.098 -0.051 -0.16 c -0.074 -0.09 -0.457 -0.117 -1.648 -0.117 c -1.211 0 -1.531 0.023 -1.453 0.105 c 0.129 0.129 0.137 0.469 0.012 0.543 c -0.066 0.043 -0.066 0.086 0 0.152 c 0.117 0.121 0.121 0.426 0 0.547 c -0.063 0.063 -0.051 0.129 0.039 0.219 c 0.109 0.109 0.109 0.16 0.012 0.355 c -0.07 0.129 -0.086 0.246 -0.039 0.273 c 0.047 0.027 0.082 0.141 0.082 0.254 c 0 0.113 -0.035 0.227 -0.082 0.254 c -0.047 0.031 -0.031 0.145 0.039 0.277 c 0.098 0.191 0.098 0.242 -0.012 0.352 c -0.09 0.094 -0.102 0.156 -0.039 0.223 c 0.121 0.117 0.121 0.457 0 0.531 c -0.066 0.043 -0.066 0.086 0 0.152 c 0.117 0.121 0.121 0.426 0 0.547 c -0.063 0.063 -0.051 0.129 0.039 0.219 c 0.109 0.109 0.109 0.16 0.012 0.355 c -0.07 0.129 -0.086 0.246 -0.039 0.273 c 0.105 0.066 0.105 0.445 -0.004 0.512 c -0.051 0.031 -0.031 0.133 0.051 0.258 c 0.074 0.113 0.129 0.238 0.125 0.277 c -0.004 0.035 0.652 0.078 1.457 0.09 l 1.461 0.023 l 0.016 0.793 l 0.02 0.793 l 0.027 -0.723 c 0.016 -0.398 0.004 -0.785 -0.023 -0.859" fill="#c9c9cc"/><path d="m 5.758 16.688 c 0 -0.273 0.035 -0.387 0.121 -0.387 c 0.129 0 0.738 0.57 0.738 0.695 c 0 0.043 -0.195 0.078 -0.43 0.078 h -0.43 m 10.227 -0.078 c 0 -0.043 0.137 -0.215 0.309 -0.387 c 0.172 -0.168 0.344 -0.309 0.387 -0.309 c 0.043 0 0.078 0.176 0.078 0.387 v 0.387 h -0.387 c -0.215 0 -0.387 -0.035 -0.387 -0.078 m -3.051 -1 c -0.105 -0.078 -0.266 -0.113 -0.41 -0.086 c -0.352 0.07 -0.664 -0.078 -0.664 -0.316 c 0 -0.109 0.043 -0.242 0.094 -0.293 c 0.066 -0.066 0.066 -0.109 0 -0.152 c -0.113 -0.07 -0.125 -0.445 -0.016 -0.516 c 0.043 -0.023 0.055 -0.125 0.031 -0.219 c -0.117 -0.453 0.715 -0.617 1.094 -0.215 c 0.199 0.211 0.215 0.215 1.648 0.215 h 1.449 l -0.023 0.84 l -0.023 0.836 l -1.504 0.02 c -1.246 0.016 -1.535 -0.004 -1.676 -0.113 m -6.04 -0.125 c -0.203 -0.082 -0.27 -0.453 -0.098 -0.559 c 0.066 -0.043 0.066 -0.086 0 -0.152 c -0.113 -0.113 -0.125 -0.461 -0.016 -0.527 c 0.043 -0.023 0.055 -0.125 0.031 -0.219 c -0.07 -0.27 0.129 -0.43 0.523 -0.43 c 0.465 0.004 0.605 0.098 0.551 0.379 c -0.023 0.125 -0.012 0.246 0.031 0.273 c 0.105 0.066 0.09 0.414 -0.02 0.523 c -0.066 0.066 -0.066 0.109 0 0.152 c 0.051 0.031 0.094 0.152 0.094 0.27 c 0 0.328 -0.602 0.488 -1.098 0.289 m -0.043 -2.254 c -0.094 -0.238 0.07 -0.332 0.547 -0.305 c 0.398 0.023 0.465 0.051 0.465 0.199 c 0 0.148 -0.066 0.176 -0.484 0.199 c -0.352 0.016 -0.496 -0.008 -0.527 -0.094 m 5.156 0 c -0.094 -0.238 0.07 -0.332 0.547 -0.305 c 0.398 0.023 0.465 0.051 0.465 0.199 c 0 0.148 -0.066 0.176 -0.484 0.199 c -0.352 0.016 -0.496 -0.008 -0.527 -0.094 m -5.133 -0.707 c -0.059 -0.07 -0.086 -0.203 -0.063 -0.301 c 0.023 -0.094 0.012 -0.191 -0.031 -0.219 c -0.109 -0.066 -0.098 -0.414 0.016 -0.527 c 0.066 -0.066 0.066 -0.109 0 -0.152 c -0.113 -0.07 -0.125 -0.445 -0.016 -0.516 c 0.043 -0.023 0.055 -0.125 0.031 -0.219 c -0.117 -0.453 0.715 -0.617 1.094 -0.215 c 0.184 0.195 0.266 0.215 0.898 0.215 c 0.43 0 0.738 0.039 0.801 0.105 c 0.137 0.137 0.137 1.289 0 1.426 c -0.063 0.063 -0.371 0.102 -0.801 0.102 c -0.633 0 -0.715 0.02 -0.898 0.215 c -0.238 0.254 -0.852 0.305 -1.031 0.086 m 5.156 0 c -0.059 -0.07 -0.086 -0.203 -0.063 -0.301 c 0.023 -0.094 0.012 -0.191 -0.031 -0.219 c -0.109 -0.066 -0.098 -0.414 0.016 -0.527 c 0.066 -0.066 0.066 -0.109 0 -0.152 c -0.113 -0.07 -0.125 -0.445 -0.016 -0.516 c 0.043 -0.023 0.055 -0.125 0.031 -0.219 c -0.07 -0.27 0.129 -0.43 0.523 -0.426 c 0.465 0 0.605 0.094 0.551 0.375 c -0.023 0.125 -0.012 0.25 0.031 0.273 c 0.105 0.066 0.09 0.414 -0.02 0.523 c -0.066 0.066 -0.066 0.109 0 0.152 c 0.109 0.07 0.125 0.449 0.02 0.512 c -0.043 0.027 -0.055 0.148 -0.031 0.273 c 0.027 0.141 -0.004 0.254 -0.078 0.301 c -0.195 0.125 -0.816 0.09 -0.934 -0.051 m -5.184 -2.73 c -0.09 -0.238 0.074 -0.332 0.551 -0.305 c 0.398 0.023 0.465 0.051 0.465 0.199 c 0 0.148 -0.066 0.176 -0.484 0.199 c -0.352 0.016 -0.496 -0.008 -0.531 -0.094 m 5.156 0 c -0.09 -0.238 0.074 -0.332 0.551 -0.305 c 0.398 0.023 0.465 0.051 0.465 0.199 c 0 0.148 -0.066 0.176 -0.484 0.199 c -0.352 0.016 -0.496 -0.008 -0.531 -0.094 m -5.129 -0.707 c -0.059 -0.07 -0.086 -0.203 -0.063 -0.301 c 0.023 -0.094 0.012 -0.191 -0.031 -0.219 c -0.109 -0.066 -0.098 -0.414 0.016 -0.527 c 0.066 -0.066 0.066 -0.109 0 -0.152 c -0.133 -0.082 -0.117 -0.438 0.027 -0.555 c 0.066 -0.055 0.277 -0.09 0.469 -0.082 c 0.191 0.012 0.375 -0.004 0.41 -0.039 c 0.031 -0.031 -0.391 -0.059 -0.945 -0.059 h -1 v -1.461 h 11 v 1.445 l -0.883 0.059 c -0.484 0.031 -1.77 0.047 -2.855 0.031 l -1.977 -0.031 l -0.027 0.797 l -0.023 0.793 h -1.441 c -1.43 0 -1.445 0.004 -1.645 0.215 c -0.238 0.254 -0.852 0.305 -1.031 0.086 m 5.156 0 c -0.059 -0.07 -0.086 -0.203 -0.063 -0.301 c 0.023 -0.094 0.012 -0.191 -0.031 -0.219 c -0.109 -0.066 -0.098 -0.414 0.016 -0.527 c 0.066 -0.066 0.066 -0.109 0 -0.152 c -0.125 -0.074 -0.121 -0.418 0.008 -0.543 c 0.133 -0.137 0.949 -0.137 1.082 0 c 0.129 0.125 0.137 0.43 0.012 0.555 c -0.066 0.066 -0.066 0.109 0 0.152 c 0.109 0.07 0.125 0.449 0.02 0.512 c -0.043 0.027 -0.055 0.148 -0.031 0.273 c 0.023 0.141 -0.004 0.254 -0.078 0.301 c -0.195 0.125 -0.816 0.09 -0.934 -0.051" fill="#e2e269"/><path d="m 5.758 16.688 c 0 -0.273 0.035 -0.387 0.121 -0.387 c 0.129 0 0.738 0.57 0.738 0.695 c 0 0.043 -0.195 0.078 -0.43 0.078 h -0.43 m 10.227 -0.078 c 0 -0.043 0.137 -0.215 0.309 -0.387 c 0.172 -0.168 0.344 -0.309 0.387 -0.309 c 0.043 0 0.078 0.176 0.078 0.387 v 0.387 h -0.387 c -0.215 0 -0.387 -0.035 -0.387 -0.078 m -9.137 -1.184 c -0.109 -0.109 -0.059 -0.438 0.078 -0.492 c 0.258 -0.098 0.797 -0.051 0.93 0.086 c 0.102 0.102 0.113 0.176 0.047 0.301 c -0.07 0.129 -0.184 0.164 -0.543 0.164 c -0.25 0 -0.48 -0.027 -0.512 -0.059 m 5.156 0 c -0.109 -0.109 -0.059 -0.438 0.078 -0.492 c 0.074 -0.027 0.836 -0.059 1.695 -0.066 l 1.563 -0.02 l -1.676 -0.051 c -0.922 -0.027 -1.688 -0.059 -1.699 -0.07 c -0.082 -0.063 0.008 -0.438 0.117 -0.48 c 0.074 -0.027 0.918 -0.051 1.879 -0.051 c 1.41 0 1.766 0.023 1.848 0.125 c 0.113 0.137 0.004 0.426 -0.188 0.504 c -0.082 0.035 -0.082 0.047 -0.004 0.051 c 0.176 0.012 0.309 0.344 0.191 0.488 c -0.086 0.098 -0.445 0.121 -1.926 0.121 c -1 0 -1.848 -0.027 -1.879 -0.059 m -5.109 -0.684 c -0.152 -0.063 -0.133 -0.434 0.031 -0.496 c 0.258 -0.098 0.797 -0.051 0.93 0.086 c 0.168 0.164 0.168 0.164 0 0.328 c -0.129 0.133 -0.715 0.18 -0.961 0.078 m -0.02 -0.715 c -0.102 -0.063 -0.109 -0.117 -0.035 -0.234 c 0.102 -0.164 0.527 -0.242 0.863 -0.156 c 0.23 0.059 0.277 0.344 0.066 0.426 c -0.207 0.078 -0.75 0.059 -0.895 -0.035 m 5.156 0 c -0.102 -0.063 -0.109 -0.113 -0.035 -0.234 c 0.07 -0.109 0.207 -0.152 0.508 -0.152 c 0.301 0 0.438 0.043 0.504 0.152 c 0.074 0.117 0.066 0.172 -0.031 0.234 c -0.168 0.109 -0.781 0.109 -0.945 0 m -5.18 -0.797 c -0.094 -0.238 0.07 -0.332 0.547 -0.305 c 0.398 0.023 0.465 0.051 0.465 0.199 c 0 0.148 -0.066 0.176 -0.484 0.199 c -0.352 0.016 -0.496 -0.008 -0.527 -0.094 m 5.156 0 c -0.094 -0.238 0.07 -0.332 0.547 -0.305 c 0.398 0.023 0.465 0.051 0.465 0.199 c 0 0.148 -0.066 0.176 -0.484 0.199 c -0.352 0.016 -0.496 -0.008 -0.527 -0.094 m -5.113 -0.676 c -0.254 -0.254 -0.063 -0.418 0.48 -0.418 c 0.43 0.004 0.602 0.121 0.48 0.32 c -0.117 0.188 -0.801 0.254 -0.961 0.098 m 5.152 -0.004 c -0.141 -0.145 -0.129 -0.301 0.035 -0.363 c 0.176 -0.066 0.668 -0.066 0.844 0 c 0.176 0.07 0.176 0.344 0 0.414 c -0.23 0.086 -0.77 0.055 -0.879 -0.051 m -5.152 -0.555 c -0.059 -0.023 -0.105 -0.137 -0.105 -0.25 c 0 -0.258 0.121 -0.289 1.203 -0.32 l 0.816 -0.027 l -0.875 -0.016 c -1.027 -0.023 -1.145 -0.055 -1.145 -0.328 c 0 -0.273 0.168 -0.305 1.41 -0.273 c 0.875 0.02 1.035 0.047 1.117 0.18 c 0.074 0.125 0.059 0.184 -0.086 0.301 l -0.18 0.148 l 0.18 0.141 c 0.145 0.113 0.16 0.172 0.086 0.301 c -0.086 0.137 -0.234 0.16 -1.203 0.172 c -0.609 0.008 -1.156 -0.004 -1.219 -0.027 m 5.156 -0.004 c -0.152 -0.059 -0.133 -0.43 0.031 -0.492 c 0.258 -0.098 0.797 -0.051 0.93 0.086 c 0.074 0.074 0.137 0.148 0.137 0.164 c 0 0.016 -0.063 0.09 -0.137 0.164 c -0.129 0.133 -0.715 0.18 -0.961 0.078 m 0 -0.688 c -0.152 -0.059 -0.133 -0.43 0.031 -0.492 c 0.258 -0.098 0.797 -0.051 0.93 0.086 c 0.074 0.074 0.137 0.148 0.137 0.164 c 0 0.016 -0.063 0.09 -0.137 0.164 c -0.129 0.133 -0.715 0.18 -0.961 0.078 m -5.176 -0.715 c -0.102 -0.063 -0.109 -0.117 -0.035 -0.234 c 0.07 -0.109 0.207 -0.152 0.508 -0.152 c 0.301 0 0.438 0.043 0.504 0.152 c 0.129 0.207 -0.051 0.316 -0.504 0.316 c -0.191 0 -0.402 -0.035 -0.473 -0.082 m 5.156 0 c -0.102 -0.063 -0.109 -0.117 -0.035 -0.234 c 0.102 -0.164 0.527 -0.242 0.863 -0.156 c 0.234 0.059 0.277 0.344 0.066 0.426 c -0.207 0.078 -0.75 0.059 -0.895 -0.035 m -5.18 -0.797 c -0.094 -0.238 0.074 -0.332 0.547 -0.305 c 0.398 0.023 0.465 0.051 0.465 0.199 c 0 0.148 -0.066 0.176 -0.484 0.199 c -0.352 0.016 -0.496 -0.008 -0.527 -0.094 m 5.156 0 c -0.094 -0.238 0.074 -0.332 0.547 -0.305 c 0.398 0.023 0.465 0.051 0.465 0.199 c 0 0.148 -0.066 0.176 -0.484 0.199 c -0.352 0.016 -0.496 -0.008 -0.527 -0.094 m -5.113 -0.676 c -0.254 -0.254 -0.063 -0.418 0.48 -0.418 c 0.43 0.004 0.605 0.121 0.48 0.32 c -0.117 0.188 -0.801 0.254 -0.961 0.098 m 5.152 -0.004 c -0.141 -0.145 -0.129 -0.301 0.035 -0.363 c 0.176 -0.066 0.668 -0.066 0.844 0 c 0.176 0.07 0.176 0.344 0 0.414 c -0.23 0.086 -0.77 0.055 -0.879 -0.051 m -5.152 -0.559 c -0.152 -0.059 -0.129 -0.43 0.031 -0.492 c 0.074 -0.027 0.836 -0.059 1.695 -0.07 l 1.563 -0.016 l -1.676 -0.051 c -0.922 -0.027 -1.684 -0.059 -1.695 -0.07 c -0.012 -0.008 -0.023 -0.086 -0.023 -0.172 c 0 -0.332 0.145 -0.359 1.945 -0.359 c 1.465 0 1.758 0.02 1.871 0.137 c 0.145 0.145 0.07 0.41 -0.141 0.492 c -0.082 0.035 -0.082 0.047 -0.004 0.051 c 0.176 0.012 0.309 0.344 0.191 0.484 c -0.082 0.102 -0.434 0.125 -1.875 0.117 c -0.977 -0.004 -1.82 -0.023 -1.879 -0.051 m 5.152 0 c -0.152 -0.059 -0.129 -0.43 0.031 -0.492 c 0.258 -0.098 0.797 -0.051 0.93 0.086 c 0.074 0.074 0.137 0.148 0.137 0.164 c 0 0.016 -0.063 0.09 -0.137 0.164 c -0.129 0.133 -0.715 0.18 -0.961 0.078 m 0 -0.688 c -0.133 -0.055 -0.137 -0.305 -0.004 -0.441 c 0.109 -0.105 0.648 -0.137 0.879 -0.051 c 0.074 0.031 0.137 0.141 0.137 0.25 c 0 0.109 -0.063 0.219 -0.137 0.25 c -0.16 0.059 -0.719 0.059 -0.875 -0.008 m -5.199 -0.695 l -1.094 -0.023 v -1.457 h 11 v 1.441 l -0.84 0.047 c -0.816 0.047 -6.891 0.039 -9.07 -0.008" fill="#a9a961"/><path d="m 5.758 16.73 c 0 -0.188 0.035 -0.344 0.082 -0.344 c 0.109 0 0.691 0.512 0.691 0.609 c 0 0.043 -0.176 0.078 -0.387 0.078 h -0.387 m 10.313 -0.07 c 0 -0.082 0.543 -0.617 0.625 -0.617 c 0.035 0 0.063 0.156 0.063 0.344 c 0 0.344 0 0.344 -0.344 0.344 c -0.191 0 -0.344 -0.031 -0.344 -0.07 m -9.168 -1.355 c -0.066 -0.176 0.109 -0.289 0.445 -0.289 c 0.332 0 0.512 0.113 0.445 0.289 c -0.039 0.098 -0.168 0.137 -0.445 0.137 c -0.281 0 -0.41 -0.039 -0.445 -0.137 m 5.156 0 c -0.031 -0.078 -0.008 -0.164 0.043 -0.199 c 0.055 -0.031 0.887 -0.07 1.852 -0.082 c 1.563 -0.02 1.754 -0.008 1.805 0.121 c 0.027 0.078 0.031 0.176 0.004 0.219 c -0.023 0.043 -0.859 0.078 -1.848 0.078 c -1.574 0 -1.809 -0.016 -1.855 -0.137 m -5.078 -0.605 c -0.148 -0.063 -0.133 -0.262 0.031 -0.324 c 0.32 -0.121 0.809 -0.023 0.809 0.164 c 0 0.188 -0.523 0.285 -0.84 0.16 m 5.148 -0.012 c -0.133 -0.043 -0.125 -0.25 0.008 -0.297 c 0.227 -0.082 3.574 -0.074 3.625 0.008 c 0.027 0.043 0.027 0.148 -0.004 0.227 c -0.051 0.125 -0.242 0.137 -1.793 0.117 c -0.953 -0.012 -1.781 -0.035 -1.836 -0.055 m -5.156 -0.734 c -0.137 -0.168 -0.035 -0.23 0.375 -0.23 c 0.195 0 0.383 0.027 0.414 0.059 c 0.113 0.109 -0.141 0.285 -0.414 0.285 c -0.156 0 -0.324 -0.051 -0.375 -0.113 m 5.156 0 c -0.141 -0.168 -0.035 -0.23 0.383 -0.23 c 0.383 0 0.57 0.137 0.367 0.266 c -0.18 0.117 -0.645 0.094 -0.75 -0.035 m -5.207 -0.742 c -0.031 -0.051 0 -0.113 0.066 -0.141 c 0.195 -0.07 0.789 -0.004 0.789 0.094 c 0 0.117 -0.785 0.16 -0.855 0.047 m 5.156 0 c -0.031 -0.051 0 -0.113 0.066 -0.141 c 0.195 -0.07 0.789 -0.004 0.789 0.094 c 0 0.117 -0.785 0.16 -0.855 0.047 m -5.145 -0.66 c -0.109 -0.113 0.137 -0.289 0.402 -0.289 c 0.324 0.004 0.527 0.117 0.445 0.25 c -0.063 0.102 -0.754 0.133 -0.848 0.039 m 5.156 0 c -0.113 -0.113 0.141 -0.289 0.414 -0.289 c 0.273 0 0.527 0.176 0.414 0.289 c -0.031 0.031 -0.219 0.055 -0.414 0.055 c -0.195 0 -0.383 -0.023 -0.414 -0.055 m -5.113 -0.613 c -0.156 -0.051 -0.121 -0.262 0.047 -0.301 c 0.086 -0.02 0.617 -0.031 1.184 -0.027 c 0.973 0.008 1.031 0.02 1.031 0.18 c 0 0.164 -0.059 0.172 -1.078 0.176 c -0.598 0.004 -1.129 -0.008 -1.184 -0.027 m 5.164 0.012 c -0.152 -0.063 -0.137 -0.262 0.027 -0.324 c 0.324 -0.121 0.809 -0.023 0.809 0.164 c 0 0.188 -0.523 0.285 -0.836 0.16 m -5.172 -0.703 c -0.148 -0.047 -0.109 -0.258 0.059 -0.301 c 0.082 -0.02 0.613 -0.031 1.18 -0.027 c 0.973 0.012 1.031 0.023 1.031 0.184 c 0 0.164 -0.059 0.172 -1.09 0.176 c -0.598 0 -1.129 -0.012 -1.18 -0.031 m 5.172 0.016 c -0.152 -0.063 -0.137 -0.262 0.027 -0.324 c 0.324 -0.121 0.809 -0.023 0.809 0.164 c 0 0.188 -0.523 0.285 -0.836 0.16 m -5.168 -0.746 c -0.137 -0.168 -0.035 -0.23 0.383 -0.23 c 0.383 0 0.574 0.137 0.367 0.266 c -0.18 0.117 -0.645 0.094 -0.75 -0.035 m 5.156 0 c -0.137 -0.168 -0.035 -0.23 0.375 -0.23 c 0.195 0 0.383 0.027 0.414 0.059 c 0.113 0.109 -0.141 0.285 -0.414 0.285 c -0.152 0 -0.324 -0.051 -0.375 -0.113 m -5.207 -0.742 c -0.031 -0.051 0 -0.113 0.066 -0.141 c 0.195 -0.07 0.789 -0.004 0.789 0.094 c 0 0.117 -0.785 0.16 -0.855 0.047 m 5.156 0 c -0.031 -0.051 0 -0.113 0.066 -0.141 c 0.195 -0.07 0.789 -0.004 0.789 0.094 c 0 0.117 -0.785 0.16 -0.855 0.047 m -5.145 -0.66 c -0.109 -0.113 0.141 -0.289 0.402 -0.289 c 0.324 0.004 0.527 0.117 0.449 0.25 c -0.063 0.102 -0.758 0.133 -0.852 0.039 m 5.156 0 c -0.113 -0.113 0.141 -0.289 0.414 -0.289 c 0.273 0 0.527 0.176 0.414 0.289 c -0.074 0.07 -0.754 0.07 -0.828 0 m -5.105 -0.609 c -0.16 -0.055 -0.133 -0.262 0.043 -0.309 c 0.082 -0.02 0.906 -0.047 1.832 -0.055 c 1.508 -0.016 1.691 -0.004 1.742 0.125 c 0.031 0.078 0.031 0.184 0.004 0.227 c -0.051 0.082 -3.387 0.09 -3.625 0.012 m 5.16 0.008 c -0.152 -0.063 -0.137 -0.262 0.027 -0.324 c 0.324 -0.121 0.809 -0.023 0.809 0.164 c 0 0.188 -0.523 0.285 -0.836 0.16 m -5.164 -0.699 c -0.141 -0.047 -0.125 -0.25 0.02 -0.305 c 0.066 -0.023 0.863 -0.051 1.77 -0.055 c 1.676 -0.008 1.938 0.035 1.832 0.309 c -0.043 0.109 -0.309 0.125 -1.785 0.105 c -0.957 -0.012 -1.781 -0.035 -1.836 -0.055 m 5.164 0.012 c -0.152 -0.063 -0.137 -0.262 0.027 -0.324 c 0.324 -0.121 0.809 -0.023 0.809 0.164 c 0 0.188 -0.523 0.285 -0.836 0.16 m -6.238 -0.703 c -0.121 -0.023 -0.145 -0.141 -0.145 -0.707 v -0.684 h 11 v 0.688 c 0 0.379 -0.027 0.688 -0.063 0.691 c -0.68 0.02 -10.691 0.031 -10.793 0.012" fill="#5f5f10"/><path d="m 66.64 71.19 c 1.591 4.864 -3.818 16.818 4.045 15.955 c 41.05 0 82.09 0 123.14 0 c 2.045 -4.636 2.045 -10.636 2.182 -15.955 c -7.545 -1.909 -16.545 -0.227 -24.636 -0.773 c -34.636 0 -69.27 0 -103.91 0 l -0.773 0.773" transform="scale(0.08594)" fill="#0a0a97" stroke="#4581b3" stroke-width="1.083"/></svg>