<svg xmlns="http://www.w3.org/2000/svg" viewBox="0 0 22 22" xmlns:xlink="http://www.w3.org/1999/xlink"><defs><linearGradient id="7" gradientUnits="userSpaceOnUse" x1="194.98" x2="234.84" gradientTransform="matrix(0.99588 0 0 1.23187 17.553 -105.86)"><stop stop-color="#000" stop-opacity="0.263"/><stop offset="1" stop-color="#000" stop-opacity="0.059"/></linearGradient><linearGradient id="8" gradientUnits="userSpaceOnUse" x1="213.4" x2="250.26"><stop stop-color="#ff0013"/><stop offset="1" stop-color="#ff0013" stop-opacity="0"/></linearGradient><linearGradient id="6" gradientUnits="userSpaceOnUse" x1="194.98" x2="234.84" gradientTransform="matrix(0.99588 0 0 1.23187 17.553 -46.752)"><stop stop-color="#000" stop-opacity="0.278"/><stop offset="1" stop-color="#000013" stop-opacity="0"/></linearGradient><linearGradient id="3" gradientUnits="userSpaceOnUse" x1="19.893" y1="31.17" x2="19.689" y2="30.828" gradientTransform="matrix(0.35335 -0.08619 0.09468 0.32167 -4.794 8.243)"><stop stop-color="#000"/><stop offset="1" stop-color="#c8c8c8"/></linearGradient><linearGradient id="1" gradientUnits="userSpaceOnUse" x1="40.33" y1="19.813" x2="42.02" y2="22.625" gradientTransform="matrix(0.35335 -0.08619 0.09468 0.32167 -4.794 8.243)"><stop stop-color="#c1c1c1"/><stop offset="1" stop-color="#ababab"/></linearGradient><linearGradient id="0" gradientUnits="userSpaceOnUse" x1="43.24" y1="17.376" x2="45.32" y2="22.251" gradientTransform="matrix(0.35335 -0.08619 0.09468 0.32167 -4.794 8.243)"><stop stop-color="#ffd0d0"/><stop offset="0.5" stop-color="#ff1c1c"/><stop offset="1" stop-color="#6f0000"/></linearGradient><linearGradient id="9" gradientUnits="userSpaceOnUse" x1="211.9" x2="251.76"><stop stop-color="#f00"/><stop offset="1" stop-color="#f00" stop-opacity="0"/></linearGradient><radialGradient id="5" gradientUnits="userSpaceOnUse" cx="59.9" cy="44.37" r="8.274" gradientTransform="matrix(0.56151 0 0 1.04222 -24.841 -32.435)" xlink:href="#4"/><radialGradient id="4" gradientUnits="userSpaceOnUse" cx="76.22" cy="48.15" r="12.01" gradientTransform="matrix(0.56151 0 0 0.60596 -24.841 -13.428)"><stop stop-color="#fff"/><stop offset="0.538" stop-color="#fff" stop-opacity="0.608"/><stop offset="1" stop-color="#fff"/></radialGradient><radialGradient id="2" gradientUnits="userSpaceOnUse" cx="29.05" cy="27.641" r="3.241" gradientTransform="matrix(1.03306 -0.25199 0.19218 0.6529 -29.19 4.58)"><stop stop-color="#e6e2b8"/><stop offset="1" stop-color="#e6e2b8" stop-opacity="0"/></radialGradient><radialGradient id="A" gradientUnits="userSpaceOnUse" cx="20.525" cy="40.44" r="19.563" gradientTransform="matrix(0.25866 0 0 0.03182 5.02 16.277)"><stop stop-color="#000" stop-opacity="0.2"/><stop offset="1" stop-color="#000" stop-opacity="0"/></radialGradient></defs><path d="m 15.711 0.082 c -31.637 -2.203 -7.922 40.36 5.52 12.332 c 1.852 -4.316 0.496 -10.758 -5.52 -12.332" fill="#b0dfe5"/><path d="m 17.34 32.5 l 5.629 -5.62 l 20.09 -9.759 c 3.241 -1.245 5.185 3.381 2.308 5 l -20.03 9.374" transform="matrix(0.35335 -0.08619 0.09468 0.32167 -4.794 8.243)" fill="#ca8f21" fill-rule="evenodd" stroke="#5b400b"/><path d="m 10.645 11.375 c 0 0 0.516 -0.094 0.832 0.258 c 0.328 0.363 0.254 0.855 0.254 0.855 l 1.543 -1.23 c 0 0 0.43 -0.406 -0.039 -0.969 c -0.461 -0.555 -1.059 -0.141 -1.059 -0.141" fill="url(#0)"/><path d="m 10.645 11.375 c 0 0 0.516 -0.094 0.832 0.258 c 0.328 0.363 0.254 0.855 0.254 0.855 l 0.609 -0.496 c 0 0 0.168 -0.496 -0.176 -0.883 c -0.355 -0.398 -0.91 -0.23 -0.91 -0.23 l -0.609 0.492" fill="url(#1)"/><path d="m 4.848 16.848 l 1.164 -1.836 c 0.605 0.133 1.01 0.5 1.012 1.035" fill="url(#2)"/><path d="m 5.188 16.281 l -0.422 0.652 l 0.797 -0.301 c 0.012 -0.254 -0.168 -0.328 -0.375 -0.352" fill="url(#3)"/><g fill-opacity="0.365"><path d="m 6.01 15 l 0.672 0.266 l 4.742 -3.68 c -0.238 -0.238 -0.543 -0.242 -0.781 -0.211" fill="#fff"/><path d="m 7.03 16.07 l -0.008 -0.258 l 4.707 -3.605 c 0 0 0.02 0.207 -0.004 0.262"/></g><path d="m 18.406 11.367 c 0 1.098 -0.965 1.984 -2.156 1.984 c -1.191 0 -2.16 -0.887 -2.16 -1.984 c 0 -1.098 0.969 -1.988 2.16 -1.988 c 1.18 0 2.141 0.875 2.156 1.961" fill="#e3e3e3"/><path d="m 16.961 11.293 c 0 0.391 -0.355 0.707 -0.793 0.707 c -0.438 0 -0.793 -0.316 -0.793 -0.707 c 0 -0.387 0.355 -0.703 0.793 -0.703 c 0.434 0 0.789 0.309 0.793 0.695" fill="#0a12af" fill-opacity="0.824"/><path d="m 22.377 10.274 c 0 0 3.154 12.503 -9.199 10.795" transform="matrix(0.34183 0 0 0.31119 2.757 3.651)" fill="none" stroke="url(#4)" stroke-linecap="round" stroke-width="3.76"/><path d="m 11.32 6.332 c -0.324 0.441 -0.988 0.598 -1.492 0.348 c -0.5 -0.254 -0.645 -0.816 -0.324 -1.262 c 0.324 -0.445 0.988 -0.602 1.492 -0.348 c 0.496 0.25 0.645 0.805 0.332 1.25" fill="#5b5b5b"/><path d="m 10.299 6.985 c 0 0 -10.159 8.85 1.177 13.645" transform="matrix(0.34183 0 0 0.31119 2.757 3.651)" fill="none" stroke="url(#5)" stroke-linecap="round" stroke-width="3.76"/><path d="m 7.922 5.543 c -0.32 0.441 -0.988 0.598 -1.488 0.348 c -0.504 -0.254 -0.648 -0.816 -0.328 -1.262 c 0.324 -0.445 0.988 -0.598 1.492 -0.348 c 0.496 0.25 0.645 0.805 0.332 1.25" fill="#0a12af" fill-opacity="0.824"/><path d="m 2.669 -48.45 l 1.671 -0.004 c 2.821 -0.001 5.111 3.159 5.103 7.05 l -0.002 17.797 c 0.004 3.886 -2.278 7.04 -5.099 7.04 l -1.671 0.004 c -2.821 0.001 -5.108 -3.148 -5.112 -7.03 l -0.001 -17.808 c 0.008 -3.89 2.29 -7.04 5.111 -7.04" transform="matrix(-0.09424 0.29913 -0.32859 -0.08579 2.757 3.651)" fill="#fff" stroke="#fff" stroke-width="0.768"/><path d="m 229.07 19.552 l 5.02 -0.011 c 8.476 -0.002 15.359 9.493 15.336 21.18 l 0.003 53.52 c 0.013 11.679 -6.856 21.12 -15.332 21.12 l -5.057 0.021 c -8.44 -0.009 -15.313 -9.47 -15.327 -21.15 l -0.003 -53.52 c 0.023 -11.689 6.883 -21.16 15.359 -21.16" transform="matrix(-0.03136 0.09954 -0.10934 -0.02855 27.735 -13.629)" fill="url(#6)" stroke="url(#7)" stroke-width="2.307"/><path d="m 229.31 19.983 l 5.03 0.022 c 8.549 -0.022 15.42 7.653 15.4 17.16 l 0.025 31.29 c -17.17 -5.116 -22.244 -4.625 -35.87 -0.002 l 0.011 -31.3 c -0.016 -9.498 6.846 -17.18 15.404 -17.17" transform="matrix(-0.03136 0.09954 -0.10934 -0.02855 27.735 -13.629)" fill="url(#8)" stroke="url(#9)" stroke-width="2"/><path d="m 16.18 17.563 c -0.023 0.344 -2.285 0.617 -5.063 0.617 c -2.777 0 -5.04 -0.273 -5.059 -0.617 c -0.016 -0.223 0.945 -0.43 2.516 -0.543 c 1.574 -0.113 3.516 -0.113 5.086 0 c 1.57 0.113 2.531 0.32 2.52 0.543" fill="url(#A)"/><g fill="#012537" stroke="#012537"><g stroke-width="0.584" transform="scale(0.08594 0.08594)"><path d="m 97.69 78.27 c -0.227 -0.091 0.182 -1.727 1.273 -5 c 0.909 -2.682 1.682 -4.909 1.727 -4.955 c 0.045 -0.091 1.455 0.227 3.091 0.682 c 2.273 0.591 3 0.909 2.909 1.182 c -0.182 0.545 -0.136 0.545 -2.682 -0.182 c -1.182 -0.318 -2.227 -0.5 -2.364 -0.364 c -0.091 0.136 -0.409 0.864 -0.682 1.636 c -0.318 1.045 -0.364 1.409 -0.091 1.5 c 0.182 0.045 1.182 0.318 2.182 0.591 c 1.091 0.318 1.818 0.682 1.818 0.909 c 0 0.5 -0.227 0.5 -2.636 -0.182 l -2 -0.545 l -0.818 2.455 c -0.727 2.318 -0.954 2.591 -1.727 2.273"/><path d="m 105.32 80.22 c -0.091 -0.136 0.318 -1.773 0.954 -3.682 c 0.864 -2.864 1.182 -3.5 1.636 -3.5 c 0.409 0 0.545 0.182 0.455 0.682 c -0.091 0.682 -0.091 0.682 0.818 0.182 c 1.091 -0.545 2.909 -0.364 2.909 0.318 c 0 0.318 -0.318 0.364 -1.364 0.227 c -2.045 -0.227 -2.773 0.455 -3.773 3.545 c -0.727 2.227 -1.227 2.909 -1.636 2.227"/><path d="m 114.91 83.04 c -3.045 -0.727 -4.227 -3.273 -2.727 -5.864 c 1.5 -2.636 5 -2.955 6.864 -0.591 c 0.545 0.682 0.636 1.045 0.455 2.091 c -0.091 0.727 -0.182 1.318 -0.227 1.364 c -0.045 0.045 -1.5 -0.273 -3.273 -0.773 c -1.727 -0.455 -3.227 -0.818 -3.273 -0.818 c 0 0 -0.045 0.409 -0.045 0.955 c 0 1.864 1.727 3.091 4.273 3.091 c 0.636 0 0.955 0.136 0.955 0.409 c 0 0.5 -1.182 0.545 -3 0.136 m 3.545 -4.909 c 0 -2.045 -2.727 -3.091 -4.455 -1.727 c -1.182 0.955 -0.955 1.318 1.364 1.955 c 2.955 0.818 3.091 0.818 3.091 -0.227"/><path d="m 124.96 85.68 c -2.682 -0.545 -3.864 -1.682 -3.864 -3.682 c 0 -4.045 4.682 -5.955 7.364 -3 c 0.591 0.591 0.818 2.955 0.364 3.409 c -0.136 0.136 -1.409 -0.091 -2.864 -0.455 c -1.5 -0.409 -2.909 -0.773 -3.182 -0.818 c -0.455 -0.136 -0.545 0.045 -0.545 1 c 0 0.955 0.182 1.318 0.864 1.909 c 0.864 0.727 3.455 1.318 4.091 0.955 c 0.136 -0.136 0.273 0 0.273 0.227 c 0 0.364 -0.636 0.818 -1.091 0.727 c -0.091 0 -0.727 -0.136 -1.409 -0.273 m 3.045 -5 c 0.227 -2.045 -3.091 -3.091 -4.682 -1.455 c -0.455 0.409 -0.682 0.864 -0.591 1 c 0.318 0.273 4.5 1.364 4.909 1.273 c 0.136 -0.045 0.318 -0.409 0.364 -0.818"/><path d="m 139.09 89.27 c 0 -0.136 0.636 -2.227 1.409 -4.682 c 0.773 -2.409 1.318 -4.409 1.227 -4.409 c -0.091 0.045 -1.318 1.455 -2.727 3.182 c -2.273 2.773 -2.636 3.136 -3.182 2.955 c -0.591 -0.227 -0.682 -0.545 -0.955 -3.909 c -0.136 -2 -0.364 -3.727 -0.5 -3.818 c -0.091 -0.136 -0.818 1.773 -1.545 4.182 c -1.136 3.5 -1.5 4.364 -1.909 4.364 c -0.773 0 -0.682 -0.5 1 -5.591 l 1.5 -4.545 l 0.864 0.182 c 0.5 0.091 1 0.227 1.091 0.273 c 0.091 0.091 0.273 1.818 0.409 3.909 c 0.091 2.045 0.318 3.773 0.409 3.773 c 0.136 0 1.364 -1.364 2.773 -3.045 c 2.409 -2.955 2.5 -3 3.364 -2.773 c 0.5 0.136 0.955 0.318 1 0.364 c 0.045 0.045 -0.636 2.273 -1.5 4.955 c -1.364 4 -1.727 4.818 -2.182 4.818 c -0.318 0 -0.545 -0.091 -0.545 -0.182"/><path d="m 147.32 91.82 c -3.591 -0.864 -4.636 -4.136 -2.182 -6.773 c 0.864 -0.955 1.318 -1.182 2.409 -1.318 c 2.455 -0.273 4.318 1.227 4.318 3.455 c 0 1.682 -0.182 1.727 -3.5 0.818 c -1.864 -0.5 -3.136 -0.727 -3.318 -0.545 c -0.455 0.455 0.227 2.364 1.046 2.955 c 0.455 0.318 1.409 0.591 2.5 0.727 c 1.318 0.091 1.727 0.227 1.591 0.545 c -0.136 0.409 -1.364 0.455 -2.864 0.136 m 3.363 -5.091 c 0 -2.045 -2.955 -3 -4.5 -1.5 c -0.409 0.409 -0.727 0.864 -0.727 1 c 0 0.227 3.773 1.409 4.727 1.455 c 0.409 0.045 0.5 -0.182 0.5 -0.955"/><path d="m 159 94.72 c -0.364 -0.045 -0.5 -0.273 -0.364 -0.682 c 0.091 -0.455 0.045 -0.5 -0.364 -0.364 c -0.955 0.455 -2.409 0.5 -3.227 0.136 c -1.227 -0.5 -1.818 -1.773 -1.682 -3.545 c 0.182 -1.591 0.818 -2.682 2.273 -3.636 c 1.5 -1.045 3.455 -0.545 4.409 1.045 c 0.455 0.727 0.455 0.727 1.136 -1.364 c 0.5 -1.545 0.773 -2.091 1.182 -2.091 c 0.273 0 0.5 0.091 0.5 0.227 c 0 0.136 -0.727 2.5 -1.682 5.318 c -1.409 4.318 -1.727 5.05 -2.182 4.955 m -1 -1.636 c 0.955 -0.5 1.954 -2.409 1.954 -3.682 c 0.045 -1.227 -1.091 -2.318 -2.409 -2.318 c -1.273 0 -2.091 0.636 -2.682 2 c -0.818 1.909 -0.454 3.455 0.864 4.045 c 1.182 0.5 1.227 0.5 2.273 -0.045"/><path d="m 163.41 95.95 c -0.318 -0.091 -0.545 -0.227 -0.545 -0.318 c 0 -0.364 3 -9.5 3.182 -9.682 c 0.182 -0.227 5.545 1.136 5.955 1.5 c 0.136 0.136 0.136 0.364 0.045 0.5 c -0.091 0.182 -0.955 0.091 -2.364 -0.273 c -1.182 -0.318 -2.318 -0.545 -2.545 -0.455 c -0.227 0.091 -0.545 0.773 -0.773 1.5 c -0.455 1.636 -0.409 1.682 2.091 2.182 c 1.773 0.409 2.045 0.545 1.727 1.091 c -0.136 0.227 -0.773 0.182 -2.227 -0.227 c -1.091 -0.318 -2.091 -0.545 -2.227 -0.545 c -0.136 0 -0.545 1.091 -0.954 2.455 c -0.409 1.364 -0.773 2.455 -0.818 2.409 c -0.045 0 -0.273 -0.091 -0.545 -0.136"/><path d="m 173.64 98.86 c -0.818 -0.318 -2 -1.636 -2.182 -2.455 c -0.455 -2 1.091 -4.636 3.045 -5.227 c 2.273 -0.682 4.909 1.136 4.909 3.364 c 0 1.227 -0.909 3.136 -1.864 3.864 c -0.818 0.636 -2.818 0.864 -3.909 0.455 m 3.273 -1.455 c 1.909 -1.909 1.545 -5 -0.682 -5.455 c -2.091 -0.455 -3.636 1.545 -3.5 4.409 c 0.091 1.818 2.773 2.455 4.182 1.045"/><path d="m 180.73 100.54 c -0.136 -0.273 1.636 -6.591 2.045 -7.364 c 0.091 -0.091 0.364 -0.091 0.682 -0.045 c 0.364 0.136 0.5 0.318 0.364 0.773 c -0.136 0.5 -0.045 0.545 0.409 0.364 c 1.5 -0.636 3.455 -0.5 3.227 0.227 c -0.091 0.227 -0.636 0.318 -1.591 0.227 c -1.318 -0.091 -1.591 0 -2.136 0.636 c -0.364 0.409 -1 1.727 -1.409 3 c -0.727 2.136 -1.182 2.773 -1.591 2.182"/><path d="m 197.5 104.72 c 0.091 -0.227 0.545 -1.591 0.954 -2.955 c 0.636 -2 0.727 -2.591 0.454 -3.182 c -0.545 -1.227 -2.727 -1.318 -3.773 -0.091 c -0.273 0.318 -0.818 1.591 -1.227 2.818 c -0.591 1.727 -0.864 2.227 -1.364 2.318 c -0.591 0.091 -0.591 0.045 0.273 -2.545 c 1 -3.182 1.045 -3.909 0.182 -4.5 c -1.864 -1.273 -3.636 0.045 -4.591 3.409 c -0.5 1.727 -0.773 2.227 -1.182 2.227 c -0.727 0 -0.727 -0.273 0.545 -4.045 c 0.727 -2.182 1.273 -3.364 1.545 -3.364 c 0.227 0 0.455 0.318 0.5 0.636 c 0.091 0.591 0.136 0.636 1.182 0.182 c 0.955 -0.364 1.227 -0.364 2.182 0.045 c 0.727 0.273 1.182 0.727 1.409 1.273 l 0.318 0.864 l 1.182 -0.545 c 1.455 -0.636 3.045 -0.318 3.773 0.682 c 0.591 0.864 0.545 1.409 -0.364 4.409 c -0.682 2.273 -0.909 2.636 -1.5 2.727 c -0.5 0.091 -0.636 0 -0.5 -0.364"/></g><path d="m 43.32 17.484 c -0.269 -0.138 -0.369 -0.23 -0.365 -0.343 c 0.007 -0.188 -0.027 -0.19 0.398 0.068 c 0.403 0.244 0.699 0.282 0.865 0.113 c 0.238 -0.241 0.152 -0.395 -0.451 -0.799 c -0.346 -0.241 -0.441 -0.459 -0.327 -0.756 c 0.101 -0.247 0.31 -0.351 0.653 -0.336 c 0.285 0.025 0.881 0.303 0.876 0.428 c -0.005 0.151 -0.085 0.147 -0.343 -0.015 c -0.347 -0.216 -0.781 -0.223 -0.891 -0.027 c -0.111 0.221 -0.047 0.35 0.288 0.578 c 0.648 0.418 0.773 0.75 0.417 1.099 c -0.226 0.241 -0.581 0.238 -1.109 -0.011" transform="matrix(0.34156 -0.0137 0.01247 0.31094 2.402 4.341)" stroke-width="0.154"/></g></svg>