<svg xmlns="http://www.w3.org/2000/svg" viewBox="0 0 22 22"><defs><clipPath><path d="M 0,0 H22 V22 H0 z"/></clipPath><clipPath><path d="M 0,0 H22 V22 H0 z"/></clipPath><clipPath><path d="M 0,0 H22 V22 H0 z"/></clipPath><filter id="4" filterUnits="objectBoundingBox" x="0" y="0" width="22" height="22"><feColorMatrix type="matrix" in="SourceGraphic" values="0 0 0 0 1 0 0 0 0 1 0 0 0 0 1 0 0 0 1 0"/></filter><linearGradient id="0" gradientUnits="userSpaceOnUse" x1="194.98" x2="234.84" gradientTransform="matrix(0.99588 0 0 1.23187 17.553 -46.752)"><stop stop-color="#000" stop-opacity="0.278"/><stop offset="1" stop-color="#000013" stop-opacity="0"/></linearGradient><linearGradient id="2" gradientUnits="userSpaceOnUse" x1="213.4" x2="250.26"><stop stop-color="#ff0013"/><stop offset="1" stop-color="#ff0013" stop-opacity="0"/></linearGradient><linearGradient id="1" gradientUnits="userSpaceOnUse" x1="194.98" x2="234.84" gradientTransform="matrix(0.99588 0 0 1.23187 17.553 -105.86)"><stop stop-color="#000" stop-opacity="0.263"/><stop offset="1" stop-color="#000" stop-opacity="0.059"/></linearGradient><linearGradient id="3" gradientUnits="userSpaceOnUse" x1="211.9" x2="251.76"><stop stop-color="#f00"/><stop offset="1" stop-color="#f00" stop-opacity="0"/></linearGradient><mask><g filter="url(#4)"><path fill-opacity="0.42" d="M 0,0 H22 V22 H0 z"/></g></mask><mask><g filter="url(#4)"><path fill-opacity="0.42" d="M 0,0 H22 V22 H0 z"/></g></mask><mask><g filter="url(#4)"><path fill-opacity="0.42" d="M 0,0 H22 V22 H0 z"/></g></mask></defs><path d="m 15.711 0.082 c -31.637 -2.203 -7.922 40.36 5.52 12.332 c 1.852 -4.316 0.496 -10.758 -5.52 -12.332" fill="#b0dfe5"/><g fill="#fff" stroke="#fff" stroke-width="0.768"><path d="m 11.417 -50.24 l 1.673 0.003 c 2.82 -0.005 5.106 3.148 5.1 7.04 v 17.794 c 0.003 3.887 -2.277 7.04 -5.106 7.04 l -1.664 0.006 c -2.83 -0.004 -5.115 -3.157 -5.118 -7.04 l 0.008 -17.803 c -0.003 -3.887 2.286 -7.04 5.106 -7.04" transform="matrix(-0.22611 0.21288 -0.20284 -0.23731 3.043 2.627)"/><path d="m 27.523 -27.683 l 1.677 -0.005 c 2.823 -0.001 5.104 3.149 5.102 7.04 l -0.001 17.802 c -0.001 3.89 -2.282 7.04 -5.105 7.04 l -1.669 -0.005 c -2.823 0.001 -5.104 -3.149 -5.111 -7.03 l 0.01 -17.812 c -0.007 -3.88 2.282 -7.04 5.096 -7.03" transform="matrix(0.20198 0.23811 -0.22688 0.21198 3.043 2.627)"/></g><path d="m 229.07 19.565 l 5.04 -0.014 c 8.457 0.026 15.338 9.464 15.333 21.15 l -0.004 53.5 c -0.005 11.69 -6.86 21.16 -15.342 21.16 l -5.04 0.014 c -8.482 0.003 -15.338 -9.464 -15.333 -21.15 l -0.024 -53.52 c 0.032 -11.665 6.887 -21.14 15.369 -21.14" transform="matrix(0.06721 0.07923 -0.07549 0.07054 0.964 -16.201)" fill="url(#0)" stroke="url(#1)" stroke-width="2.307"/><path d="m 229.29 19.974 l 5.069 0.011 c 8.536 -0.007 15.41 7.666 15.385 17.16 l 0.019 31.32 c -17.17 -5.14 -22.243 -4.642 -35.878 -0.015 l 0.008 -31.3 c -0.002 -9.523 6.861 -17.18 15.397 -17.18" transform="matrix(0.06721 0.07923 -0.07549 0.07054 0.964 -16.201)" fill="url(#2)" stroke="url(#3)" stroke-width="2"/><path d="m 229.05 19.553 l 5.03 -0.005 c 8.48 0.015 15.35 9.498 15.362 21.15 l -0.005 53.53 c -0.013 11.684 -6.893 21.14 -15.345 21.15 l -5.03 0.005 c -8.48 -0.015 -15.35 -9.498 -15.338 -21.18 l -0.019 -53.51 c 0.013 -11.684 6.893 -21.14 15.345 -21.15" transform="matrix(0.07543 -0.07061 0.06728 0.07916 -14.76 24.424)" fill="url(#0)" stroke="url(#1)" stroke-width="2.307"/><path d="m 229.3 19.972 l 5.057 0.021 c 8.505 -0.013 15.387 7.657 15.386 17.18 l 0.004 31.29 c -17.16 -5.144 -22.23 -4.631 -35.841 0.004 l -0.033 -31.31 c 0.03 -9.497 6.869 -17.16 15.427 -17.18" transform="matrix(0.07543 -0.07061 0.06728 0.07916 -14.76 24.424)" fill="url(#2)" stroke="url(#3)" stroke-width="2"/><path d="m 43.805 1.548 l 1.667 -0.002 c 2.827 -0.004 5.111 3.154 5.112 7.03 l -0.002 17.807 c 0.004 3.888 -2.286 7.05 -5.104 7.04 l -1.679 0.005 c -2.814 0 -5.095 -3.146 -5.099 -7.03 l 0.002 -17.807 c -0.004 -3.888 2.286 -7.05 5.104 -7.04" transform="matrix(0.29285 0.08469 -0.08069 0.30735 3.043 2.627)" fill="#fff" stroke="#fff" stroke-width="0.768"/><path d="m 229.06 19.571 l 5.01 -0.03 c 8.478 0.029 15.351 9.496 15.374 21.16 l -0.026 53.51 c -0.005 11.705 -6.862 21.17 -15.33 21.17 l -5.02 -0.006 c -8.468 0.007 -15.341 -9.461 -15.374 -21.16 l 0.026 -53.51 c 0.005 -11.705 6.862 -21.17 15.34 -21.14" transform="matrix(0.09731 0.02868 -0.02733 0.10213 -5.975 -1.693)" fill="url(#0)" stroke="url(#1)" stroke-width="2.307"/><path d="m 229.31 20 l 5.056 -0.005 c 8.505 -0.017 15.394 7.648 15.38 17.18 l -0.005 31.29 c -17.14 -5.132 -22.21 -4.625 -35.844 0.006 l -0.005 -31.32 c 0.024 -9.492 6.865 -17.15 15.418 -17.14" transform="matrix(0.09731 0.02868 -0.02733 0.10213 -5.975 -1.693)" fill="url(#2)" stroke="url(#3)" stroke-width="2"/></svg>