<svg xmlns="http://www.w3.org/2000/svg" viewBox="0 0 22 22"><path d="m 3.914 18.777 c -17.199 -22.797 30.13 -26.04 14.941 -2.766 c -3.465 5.305 -10.387 8.801 -14.941 2.766" fill="#4581b3"/><path d="m 5.586 14.941 c -0.117 -0.051 -0.23 -0.191 -0.258 -0.305 c -0.027 -0.117 0.258 -2.352 0.629 -4.965 c 0.539 -3.809 0.711 -4.785 0.852 -4.902 c 0.133 -0.113 1 -0.148 3.781 -0.148 c 3.375 0 3.621 0.016 3.773 0.211 c 0.164 0.207 0.332 1.113 1.355 7.199 c 0.227 1.336 0.379 2.512 0.344 2.617 c -0.035 0.109 -0.172 0.242 -0.305 0.301 c -0.309 0.133 -9.883 0.129 -10.172 -0.008" fill="#fff"/></svg>