<svg xmlns="http://www.w3.org/2000/svg" viewBox="0 0 22 22"><path d="m 8.609 21.852 c -0.691 -0.07 -2.418 -0.441 -3.137 -0.672 c -2.367 -0.758 -4.02 -2.156 -4.887 -4.141 c -0.449 -1.016 -0.52 -1.488 -0.461 -3.02 c 0.074 -1.922 0.434 -3.078 1.723 -5.574 c 1.09 -2.109 2.074 -3.434 3.652 -4.91 c 1.816 -1.703 3.137 -2.496 4.949 -2.965 c 0.566 -0.148 0.898 -0.18 2.043 -0.176 c 1.508 0 1.676 0.039 3.043 0.715 c 1.793 0.887 4.383 4.316 5.73 7.59 c 0.574 1.391 0.648 1.848 0.652 3.93 l -0.063 1.734 l -0.199 0.699 c -0.977 3.43 -4.422 5.723 -9.03 6.563 c -1.293 0.234 -3.03 0.336 -4.02 0.23" fill="#5f9d9f"/><g fill-rule="evenodd"><path d="m 11.676 7 l -6.148 2.586 v 5.172 l 6.148 2.586 l 6.152 -2.586 v -5.172 m -7.098 -1.078 v 3.234 h -1.891 v -2.563 l 1.891 -0.672 m 1.895 0 l 1.891 0.672 v 2.563 h -1.891 v -3.234 m -4.734 1.01 v 2.227 h -1.418 v -1.727 m 8.992 -0.5 l 1.418 0.5 v 1.727 h -1.418 m -8.992 0.859 h 1.418 v 2.227 l -1.418 -0.504 v -1.723 m 2.367 0 h 1.891 v 3.234 l -1.891 -0.672 v -2.563 m 3.785 0 h 1.891 v 2.563 l -1.891 0.672 v -3.234 m 2.84 0 h 1.418 v 1.723 l -1.418 0.504 v -2.227" fill-opacity="0.102"/><path d="m 11.203 6.57 l -6.152 2.586 v 5.168 l 6.152 2.586 m -0.945 -8.832 v 7.324 l -4.258 -1.508 v -4.309" fill="#0d0d71"/></g><g fill="#0d0d71"><path d="m 5.527 11.309 h 5.203 v 0.863 h -5.203"/><path d="m 7.418 8.293 h 0.945 v 6.895 h -0.945"/></g><g fill="#7878b2"><path d="m 11.203 6.57 l 6.152 2.586 v 5.168 l -6.152 2.586 m 0.949 -8.832 v 7.324 l 4.258 -1.508 v -4.309" fill-rule="evenodd"/><path d="m 16.883 11.309 h -5.207 v 0.863 h 5.207"/><path d="m 14.988 8.293 h -0.945 v 6.895 h 0.945"/></g></svg>