<svg xmlns="http://www.w3.org/2000/svg" viewBox="0 0 22 22"><path d="m 4.066 18.836 c -17.14 -22.695 30.03 -25.922 14.891 -2.754 c -3.449 5.285 -10.348 8.766 -14.891 2.754" fill="#f4f4f4"/><path d="m 8.59 17.12 c -0.43 -0.512 -0.426 -0.734 0.027 -1.242 c 0.398 -0.445 0.438 -0.551 0.246 -0.672 c -0.172 -0.105 -0.152 -0.73 0.027 -0.914 c 0.117 -0.121 -0.023 -0.332 -0.672 -0.992 c -0.645 -0.664 -0.852 -0.809 -0.969 -0.688 c -0.195 0.195 -0.652 0.195 -0.961 -0.004 c -0.211 -0.133 -0.289 -0.102 -0.605 0.25 c -0.457 0.516 -0.719 0.512 -1.207 -0.008 c -0.348 -0.363 -0.395 -0.496 -0.395 -1.105 c 0 -0.539 0.059 -0.75 0.246 -0.922 c 0.305 -0.281 0.305 -0.332 0 -0.691 c -0.18 -0.215 -0.246 -0.469 -0.246 -0.984 c 0 -0.582 0.055 -0.75 0.332 -1.043 c 0.434 -0.465 0.875 -0.457 1.32 0.02 c 0.316 0.336 0.367 0.352 0.602 0.188 c 0.332 -0.238 0.555 -0.23 0.84 0.031 c 0.223 0.203 0.266 0.176 1.02 -0.648 c 0.813 -0.883 0.879 -1 0.668 -1.133 c -0.168 -0.109 -0.152 -0.734 0.023 -0.914 c 0.117 -0.117 0.063 -0.242 -0.242 -0.563 c -0.5 -0.527 -0.496 -0.816 0.012 -1.32 c 0.352 -0.348 0.488 -0.398 1.063 -0.398 c 0.512 0 0.727 0.063 0.945 0.273 l 0.285 0.27 l 0.281 -0.27 c 0.223 -0.211 0.438 -0.273 0.957 -0.273 c 0.602 0 0.715 0.043 1.066 0.414 c 0.492 0.52 0.492 0.781 0 1.305 c -0.305 0.32 -0.359 0.445 -0.246 0.563 c 0.18 0.18 0.195 0.805 0.023 0.914 c -0.211 0.133 -0.141 0.25 0.668 1.133 c 0.758 0.824 0.801 0.852 1.02 0.648 c 0.285 -0.262 0.508 -0.273 0.844 -0.031 c 0.234 0.164 0.281 0.148 0.602 -0.188 c 0.445 -0.477 0.887 -0.484 1.32 -0.02 c 0.277 0.293 0.328 0.461 0.328 1.043 c 0 0.516 -0.063 0.77 -0.246 0.984 c -0.305 0.359 -0.305 0.41 0 0.691 c 0.191 0.176 0.246 0.383 0.246 0.934 c 0 0.637 -0.039 0.75 -0.402 1.109 c -0.512 0.504 -0.746 0.504 -1.199 -0.008 c -0.316 -0.352 -0.395 -0.383 -0.605 -0.25 c -0.309 0.199 -0.766 0.199 -0.957 0.004 c -0.117 -0.121 -0.324 0.023 -0.973 0.688 c -0.645 0.66 -0.789 0.871 -0.672 0.992 c 0.18 0.184 0.199 0.809 0.027 0.914 c -0.188 0.121 -0.152 0.227 0.246 0.672 c 0.457 0.512 0.461 0.742 0.02 1.25 c -0.32 0.363 -0.41 0.398 -1.09 0.398 c -0.508 0 -0.785 -0.059 -0.891 -0.188 c -0.086 -0.105 -0.25 -0.188 -0.367 -0.188 c -0.121 0 -0.285 0.082 -0.371 0.188 c -0.105 0.129 -0.383 0.188 -0.902 0.188 c -0.691 -0.004 -0.777 -0.035 -1.09 -0.406 m -2.742 -1.539 c -0.039 -0.102 -0.004 -0.273 0.078 -0.375 c 0.121 -0.148 0.121 -0.227 0 -0.371 c -0.313 -0.387 0.219 -0.793 0.57 -0.438 c 0.086 0.09 0.285 -0.047 0.637 -0.438 c 0.535 -0.594 0.832 -0.707 0.957 -0.371 c 0.051 0.129 -0.129 0.414 -0.523 0.828 c -0.371 0.395 -0.539 0.656 -0.445 0.691 c 0.215 0.082 0.191 0.531 -0.031 0.617 c -0.102 0.043 -0.27 0.004 -0.375 -0.086 c -0.141 -0.117 -0.223 -0.121 -0.328 -0.012 c -0.199 0.203 -0.457 0.18 -0.539 -0.047 m 8.863 0.105 c -0.137 -0.141 -0.09 -0.516 0.07 -0.578 c 0.098 -0.035 -0.07 -0.297 -0.445 -0.691 c -0.395 -0.414 -0.574 -0.699 -0.523 -0.828 c 0.125 -0.336 0.422 -0.223 0.957 0.371 c 0.355 0.391 0.551 0.527 0.641 0.438 c 0.34 -0.348 0.879 0.051 0.574 0.426 c -0.109 0.137 -0.105 0.238 0.016 0.434 c 0.125 0.207 0.125 0.289 0.004 0.414 c -0.125 0.125 -0.207 0.125 -0.41 -0.008 c -0.184 -0.117 -0.297 -0.125 -0.391 -0.027 c -0.148 0.152 -0.371 0.176 -0.492 0.051 m -7.508 -8.652 c -0.484 -0.512 -0.586 -0.566 -0.789 -0.438 c -0.461 0.293 -0.832 -0.184 -0.457 -0.59 c 0.121 -0.133 0.121 -0.18 0 -0.223 c -0.215 -0.082 -0.191 -0.531 0.031 -0.621 c 0.102 -0.039 0.266 0 0.367 0.082 c 0.145 0.125 0.219 0.125 0.363 0 c 0.375 -0.313 0.777 0.223 0.434 0.574 c -0.082 0.086 0.063 0.313 0.43 0.68 c 0.566 0.57 0.688 0.922 0.363 1.047 c -0.117 0.047 -0.387 -0.141 -0.742 -0.512 m 6.723 0.508 c -0.293 -0.121 -0.152 -0.492 0.395 -1.043 c 0.367 -0.367 0.512 -0.594 0.43 -0.68 c -0.344 -0.352 0.059 -0.887 0.434 -0.574 c 0.145 0.125 0.219 0.125 0.363 0 c 0.102 -0.082 0.266 -0.121 0.367 -0.082 c 0.223 0.09 0.246 0.539 0.031 0.621 c -0.121 0.047 -0.121 0.09 0 0.223 c 0.375 0.406 0.008 0.883 -0.457 0.59 c -0.203 -0.129 -0.305 -0.074 -0.793 0.441 c -0.309 0.324 -0.574 0.582 -0.59 0.578 c -0.016 -0.004 -0.098 -0.039 -0.18 -0.074" fill="#e4a19f"/><path d="m 8.75 17.01 c -0.207 -0.211 -0.375 -0.438 -0.375 -0.504 c 0 -0.066 0.191 -0.316 0.43 -0.559 c 0.48 -0.492 0.508 -0.582 0.242 -0.809 c -0.238 -0.203 -0.23 -0.488 0.023 -0.777 c 0.199 -0.223 0.168 -0.277 -0.699 -1.168 c -0.93 -0.953 -1.141 -1.078 -1.266 -0.746 c -0.039 0.102 -0.176 0.188 -0.305 0.188 c -0.129 0 -0.305 -0.086 -0.387 -0.188 c -0.23 -0.281 -0.422 -0.23 -0.738 0.188 c -0.352 0.473 -0.715 0.48 -1.141 0.023 c -0.422 -0.449 -0.469 -1.359 -0.082 -1.715 c 0.313 -0.289 0.313 -0.699 0 -0.973 c -0.375 -0.328 -0.34 -1.215 0.07 -1.711 c 0.406 -0.496 0.613 -0.488 1.156 0.055 l 0.445 0.441 l 0.285 -0.254 c 0.34 -0.305 0.418 -0.313 0.617 -0.066 c 0.262 0.328 0.527 0.184 1.398 -0.766 c 0.805 -0.875 0.836 -0.934 0.645 -1.152 c -0.258 -0.293 -0.258 -0.508 -0.004 -0.793 c 0.188 -0.215 0.172 -0.262 -0.25 -0.734 c -0.363 -0.414 -0.426 -0.551 -0.324 -0.746 c 0.383 -0.727 1.477 -1.01 1.965 -0.508 c 0.137 0.141 0.355 0.25 0.492 0.25 c 0.133 0 0.355 -0.109 0.488 -0.25 c 0.492 -0.5 1.586 -0.219 1.965 0.508 c 0.102 0.195 0.043 0.332 -0.32 0.746 c -0.422 0.473 -0.438 0.52 -0.25 0.734 c 0.254 0.285 0.254 0.5 -0.004 0.793 c -0.191 0.219 -0.16 0.277 0.645 1.152 c 0.871 0.949 1.133 1.094 1.398 0.766 c 0.199 -0.246 0.273 -0.238 0.617 0.066 l 0.285 0.254 l 0.445 -0.441 c 0.543 -0.543 0.746 -0.551 1.156 -0.055 c 0.406 0.496 0.445 1.383 0.07 1.711 c -0.133 0.117 -0.246 0.332 -0.246 0.48 c 0 0.145 0.113 0.367 0.246 0.492 c 0.18 0.164 0.246 0.387 0.246 0.809 c 0 0.477 -0.063 0.648 -0.344 0.922 c -0.445 0.438 -0.777 0.426 -1.129 -0.039 c -0.313 -0.418 -0.508 -0.469 -0.734 -0.188 c -0.082 0.102 -0.258 0.188 -0.387 0.188 c -0.129 0 -0.266 -0.086 -0.305 -0.188 c -0.125 -0.332 -0.34 -0.207 -1.266 0.746 c -0.867 0.891 -0.898 0.945 -0.703 1.168 c 0.258 0.289 0.266 0.574 0.023 0.777 c -0.262 0.227 -0.234 0.316 0.246 0.809 c 0.238 0.242 0.43 0.492 0.43 0.559 c 0 0.066 -0.168 0.293 -0.379 0.504 c -0.313 0.324 -0.473 0.387 -0.961 0.387 c -0.43 0 -0.645 -0.066 -0.805 -0.25 c -0.121 -0.141 -0.316 -0.25 -0.43 -0.25 c -0.113 0 -0.309 0.109 -0.43 0.25 c -0.164 0.184 -0.379 0.25 -0.805 0.25 c -0.492 0 -0.648 -0.063 -0.965 -0.387 m -2.703 -1.617 c 0 -0.07 0.055 -0.129 0.121 -0.129 c 0.066 0 0.121 -0.109 0.121 -0.25 c 0 -0.137 -0.055 -0.25 -0.121 -0.25 c -0.066 0 -0.121 -0.098 -0.117 -0.219 c 0 -0.207 0.012 -0.207 0.164 0 c 0.246 0.328 0.371 0.277 1.027 -0.426 c 0.34 -0.363 0.637 -0.59 0.684 -0.516 c 0.043 0.07 -0.199 0.391 -0.535 0.711 c -0.664 0.637 -0.719 0.777 -0.395 1.027 c 0.203 0.16 0.203 0.168 0 0.172 c -0.117 0 -0.215 -0.055 -0.215 -0.121 c 0 -0.07 -0.109 -0.129 -0.246 -0.129 c -0.133 0 -0.246 0.059 -0.246 0.129 c 0 0.066 -0.055 0.125 -0.121 0.125 c -0.066 0 -0.121 -0.059 -0.121 -0.125 m 8.855 -0.051 c 0.324 -0.25 0.27 -0.391 -0.395 -1.027 c -0.336 -0.32 -0.578 -0.641 -0.535 -0.711 c 0.043 -0.074 0.344 0.152 0.684 0.516 c 0.656 0.703 0.781 0.754 1.027 0.426 c 0.152 -0.207 0.16 -0.207 0.164 0 c 0.004 0.121 -0.051 0.219 -0.117 0.219 c -0.18 0 -0.152 0.473 0.031 0.535 c 0.09 0.035 0.105 0.105 0.043 0.168 c -0.063 0.066 -0.133 0.047 -0.164 -0.043 c -0.063 -0.188 -0.523 -0.215 -0.523 -0.031 c 0 0.066 -0.098 0.121 -0.215 0.121 c -0.203 -0.004 -0.203 -0.012 0 -0.172 m -7.785 -8.637 c -0.563 -0.621 -0.594 -0.641 -0.766 -0.41 c -0.102 0.133 -0.219 0.207 -0.262 0.16 c -0.043 -0.043 -0.008 -0.172 0.082 -0.281 c 0.133 -0.164 0.137 -0.25 0.012 -0.453 c -0.203 -0.332 -0.063 -0.469 0.16 -0.16 c 0.168 0.238 0.176 0.238 0.426 0.004 c 0.141 -0.133 0.297 -0.195 0.348 -0.145 c 0.051 0.047 -0.004 0.145 -0.121 0.211 c -0.336 0.191 -0.262 0.383 0.391 0.98 c 0.332 0.309 0.578 0.602 0.543 0.66 c -0.105 0.172 -0.215 0.098 -0.813 -0.566 m 6.852 0.566 c -0.035 -0.059 0.211 -0.352 0.543 -0.66 c 0.652 -0.598 0.727 -0.789 0.391 -0.98 c -0.117 -0.066 -0.172 -0.164 -0.121 -0.211 c 0.051 -0.051 0.207 0.012 0.348 0.145 c 0.25 0.234 0.258 0.234 0.426 -0.004 c 0.098 -0.133 0.211 -0.203 0.254 -0.156 c 0.043 0.043 0.008 0.172 -0.082 0.281 c -0.133 0.164 -0.137 0.25 -0.012 0.453 c 0.207 0.336 0.063 0.469 -0.168 0.156 c -0.172 -0.23 -0.207 -0.211 -0.793 0.418 c -0.641 0.688 -0.688 0.723 -0.785 0.559" fill="#d6d60a"/><path d="m 8.75 17.01 c -0.207 -0.211 -0.375 -0.438 -0.375 -0.504 c 0 -0.066 0.191 -0.316 0.43 -0.559 c 0.48 -0.492 0.508 -0.582 0.242 -0.809 c -0.238 -0.203 -0.23 -0.488 0.023 -0.777 c 0.199 -0.223 0.168 -0.277 -0.699 -1.168 c -0.93 -0.953 -1.141 -1.078 -1.266 -0.746 c -0.039 0.102 -0.176 0.188 -0.305 0.188 c -0.129 0 -0.305 -0.086 -0.387 -0.188 c -0.23 -0.281 -0.422 -0.23 -0.738 0.188 c -0.352 0.473 -0.715 0.48 -1.141 0.023 c -0.422 -0.449 -0.469 -1.359 -0.082 -1.715 c 0.313 -0.289 0.313 -0.699 0 -0.973 c -0.375 -0.328 -0.34 -1.215 0.07 -1.711 c 0.406 -0.496 0.613 -0.488 1.156 0.055 l 0.445 0.441 l 0.285 -0.254 c 0.34 -0.305 0.418 -0.313 0.617 -0.066 c 0.262 0.328 0.527 0.184 1.398 -0.766 c 0.805 -0.875 0.836 -0.934 0.645 -1.152 c -0.258 -0.293 -0.258 -0.508 -0.004 -0.793 c 0.188 -0.215 0.172 -0.262 -0.25 -0.734 c -0.363 -0.414 -0.426 -0.551 -0.324 -0.746 c 0.383 -0.727 1.477 -1.01 1.965 -0.508 c 0.137 0.141 0.355 0.25 0.492 0.25 c 0.133 0 0.355 -0.109 0.488 -0.25 c 0.492 -0.5 1.586 -0.219 1.965 0.508 c 0.102 0.195 0.043 0.332 -0.32 0.746 c -0.422 0.473 -0.438 0.52 -0.25 0.734 c 0.254 0.285 0.254 0.5 -0.004 0.793 c -0.191 0.219 -0.16 0.277 0.645 1.152 c 0.871 0.949 1.133 1.094 1.398 0.766 c 0.199 -0.246 0.273 -0.238 0.617 0.066 l 0.285 0.254 l 0.445 -0.441 c 0.543 -0.543 0.746 -0.551 1.156 -0.055 c 0.406 0.496 0.445 1.383 0.07 1.711 c -0.133 0.117 -0.246 0.332 -0.246 0.48 c 0 0.145 0.113 0.367 0.246 0.492 c 0.18 0.164 0.246 0.387 0.246 0.809 c 0 0.477 -0.063 0.648 -0.344 0.922 c -0.445 0.438 -0.777 0.426 -1.129 -0.039 c -0.313 -0.418 -0.508 -0.469 -0.734 -0.188 c -0.082 0.102 -0.258 0.188 -0.387 0.188 c -0.129 0 -0.266 -0.086 -0.305 -0.188 c -0.125 -0.332 -0.34 -0.207 -1.266 0.746 c -0.867 0.891 -0.898 0.945 -0.703 1.168 c 0.258 0.289 0.266 0.574 0.023 0.777 c -0.262 0.227 -0.234 0.316 0.246 0.809 c 0.238 0.242 0.43 0.492 0.43 0.559 c 0 0.066 -0.168 0.293 -0.379 0.504 c -0.313 0.324 -0.473 0.387 -0.961 0.387 c -0.43 0 -0.645 -0.066 -0.805 -0.25 c -0.121 -0.141 -0.316 -0.25 -0.43 -0.25 c -0.113 0 -0.309 0.109 -0.43 0.25 c -0.164 0.184 -0.379 0.25 -0.805 0.25 c -0.492 0 -0.648 -0.063 -0.965 -0.387 m 0.852 -2.176 c 0 -0.098 -0.055 -0.215 -0.125 -0.258 c -0.066 -0.043 -0.121 0.039 -0.121 0.18 c 0 0.145 0.055 0.258 0.121 0.258 c 0.07 0 0.125 -0.078 0.125 -0.18 m 0.855 -0.07 c 0 -0.137 -0.055 -0.25 -0.121 -0.25 c -0.066 0 -0.121 0.113 -0.121 0.25 c 0 0.137 0.055 0.25 0.121 0.25 c 0.066 0 0.121 -0.113 0.121 -0.25 m 1.227 0 c 0 -0.137 -0.055 -0.25 -0.121 -0.25 c -0.066 0 -0.125 0.113 -0.125 0.25 c 0 0.137 0.059 0.25 0.125 0.25 c 0.066 0 0.121 -0.113 0.121 -0.25 m 0.859 -0.008 c 0 -0.141 -0.055 -0.223 -0.125 -0.18 c -0.066 0.043 -0.121 0.16 -0.121 0.258 c 0 0.098 0.055 0.18 0.121 0.18 c 0.07 0 0.125 -0.113 0.125 -0.258 m -2.105 -1.656 c 0.059 -0.324 -1.652 -2.094 -2.027 -2.094 c -0.523 0 -0.324 0.473 0.605 1.453 c 0.898 0.949 1.328 1.141 1.422 0.641 m 2.449 -0.645 c 0.926 -0.977 1.121 -1.449 0.598 -1.449 c -0.188 0 -0.57 0.305 -1.164 0.922 c -0.82 0.863 -1 1.168 -0.801 1.375 c 0.215 0.219 0.551 0.008 1.367 -0.848 m -5.922 -0.449 c 0.043 -0.066 -0.039 -0.125 -0.176 -0.125 c -0.141 0 -0.254 0.059 -0.254 0.125 c 0 0.07 0.078 0.129 0.176 0.129 c 0.098 0 0.211 -0.059 0.254 -0.129 m 8.398 0 c 0 -0.066 -0.113 -0.125 -0.254 -0.125 c -0.137 0 -0.219 0.059 -0.176 0.125 c 0.043 0.07 0.156 0.129 0.25 0.129 c 0.098 0 0.18 -0.059 0.18 -0.129 m -3.695 -0.934 c 0.277 -0.309 0.508 -0.594 0.508 -0.633 c 0 -0.18 -1.039 -1.188 -1.227 -1.188 c -0.188 0 -1.227 1.01 -1.227 1.188 c 0 0.184 1.039 1.191 1.227 1.191 c 0.117 0 0.441 -0.25 0.719 -0.559 m -1.063 -0.219 c -0.418 -0.426 0.074 -1.133 0.59 -0.852 c 0.434 0.238 0.242 1 -0.246 1 c -0.109 0 -0.262 -0.07 -0.344 -0.152 m -3.641 0.277 c 0.043 -0.07 -0.043 -0.125 -0.184 -0.125 c -0.145 0 -0.227 0.055 -0.184 0.125 c 0.039 0.07 0.125 0.125 0.184 0.125 c 0.059 0 0.141 -0.055 0.184 -0.125 m 8.336 0 c 0.043 -0.07 -0.039 -0.125 -0.184 -0.125 c -0.145 0 -0.227 0.055 -0.184 0.125 c 0.043 0.07 0.125 0.125 0.184 0.125 c 0.059 0 0.141 -0.055 0.184 -0.125 m -8.336 -1.254 c 0.043 -0.07 -0.043 -0.125 -0.184 -0.125 c -0.145 0 -0.227 0.055 -0.184 0.125 c 0.039 0.07 0.125 0.125 0.184 0.125 c 0.059 0 0.141 -0.055 0.184 -0.125 m 2.539 -0.844 c 0.941 -0.953 1.141 -1.348 0.762 -1.496 c -0.137 -0.051 -0.5 0.23 -1.168 0.91 c -0.895 0.91 -1.102 1.254 -0.887 1.473 c 0.18 0.184 0.379 0.043 1.293 -0.887 m 4.238 0.656 c 0.047 -0.344 -1.832 -2.262 -2.109 -2.152 c -0.375 0.148 -0.184 0.527 0.758 1.496 c 0.941 0.969 1.285 1.137 1.352 0.656 m 1.559 0.188 c 0.043 -0.07 -0.043 -0.125 -0.184 -0.125 c -0.145 0 -0.227 0.055 -0.184 0.125 c 0.039 0.07 0.125 0.125 0.184 0.125 c 0.059 0 0.141 -0.055 0.184 -0.125 m -8.375 -1.027 c -0.113 -0.117 -0.18 -0.117 -0.293 0 c -0.113 0.117 -0.082 0.152 0.148 0.152 c 0.227 0 0.262 -0.035 0.145 -0.152 m 8.34 0 c -0.117 -0.117 -0.18 -0.117 -0.297 0 c -0.113 0.117 -0.082 0.152 0.148 0.152 c 0.23 0 0.262 -0.035 0.148 -0.152 m -5.664 -2.66 c 0 -0.102 -0.055 -0.219 -0.125 -0.258 c -0.066 -0.043 -0.121 0.039 -0.121 0.18 c 0 0.141 0.055 0.258 0.121 0.258 c 0.07 0 0.125 -0.082 0.125 -0.18 m 0.855 -0.078 c 0 -0.145 -0.055 -0.223 -0.121 -0.18 c -0.066 0.039 -0.121 0.156 -0.121 0.258 c 0 0.098 0.055 0.18 0.121 0.18 c 0.066 0 0.121 -0.117 0.121 -0.258 m 1.227 0.078 c 0 -0.102 -0.055 -0.219 -0.121 -0.258 c -0.066 -0.043 -0.125 0.039 -0.125 0.18 c 0 0.141 0.059 0.258 0.125 0.258 c 0.066 0 0.121 -0.082 0.121 -0.18 m 0.859 -0.078 c 0 -0.145 -0.055 -0.223 -0.121 -0.18 c -0.07 0.039 -0.125 0.156 -0.125 0.258 c 0 0.098 0.055 0.18 0.125 0.18 c 0.066 0 0.121 -0.117 0.121 -0.258 m -6.5 9.281 c 0 -0.07 0.059 -0.129 0.125 -0.129 c 0.066 0 0.121 -0.109 0.121 -0.25 c 0 -0.137 -0.055 -0.25 -0.121 -0.25 c -0.066 0 -0.121 -0.098 -0.121 -0.219 c 0.004 -0.207 0.012 -0.207 0.168 0 c 0.246 0.328 0.371 0.277 1.027 -0.426 c 0.34 -0.363 0.637 -0.59 0.684 -0.516 c 0.043 0.07 -0.199 0.391 -0.535 0.711 c -0.664 0.637 -0.719 0.777 -0.395 1.027 c 0.203 0.16 0.203 0.168 0 0.172 c -0.117 0 -0.215 -0.055 -0.215 -0.121 c 0 -0.07 -0.109 -0.129 -0.246 -0.129 c -0.133 0 -0.246 0.059 -0.246 0.129 c 0 0.066 -0.055 0.125 -0.121 0.125 c -0.066 0 -0.121 -0.059 -0.121 -0.125 m 8.855 -0.051 c 0.324 -0.25 0.27 -0.391 -0.395 -1.027 c -0.336 -0.32 -0.578 -0.641 -0.535 -0.711 c 0.043 -0.074 0.344 0.152 0.68 0.516 c 0.66 0.703 0.785 0.754 1.031 0.426 c 0.152 -0.207 0.16 -0.207 0.164 0 c 0.004 0.121 -0.051 0.219 -0.117 0.219 c -0.18 0 -0.152 0.473 0.031 0.535 c 0.09 0.035 0.105 0.105 0.043 0.168 c -0.063 0.066 -0.133 0.047 -0.164 -0.043 c -0.063 -0.188 -0.523 -0.215 -0.523 -0.031 c 0 0.066 -0.098 0.121 -0.215 0.121 c -0.203 -0.004 -0.203 -0.012 0 -0.172 m -7.785 -8.637 c -0.563 -0.621 -0.594 -0.641 -0.766 -0.41 c -0.102 0.133 -0.219 0.207 -0.262 0.16 c -0.043 -0.043 -0.008 -0.172 0.082 -0.281 c 0.133 -0.164 0.137 -0.25 0.012 -0.453 c -0.203 -0.332 -0.063 -0.469 0.16 -0.16 c 0.168 0.238 0.176 0.238 0.426 0.004 c 0.141 -0.133 0.297 -0.195 0.348 -0.145 c 0.051 0.047 -0.004 0.145 -0.121 0.211 c -0.336 0.191 -0.262 0.383 0.391 0.98 c 0.332 0.309 0.578 0.602 0.543 0.66 c -0.105 0.172 -0.215 0.098 -0.813 -0.566 m 6.852 0.566 c -0.035 -0.059 0.211 -0.352 0.543 -0.66 c 0.652 -0.598 0.727 -0.789 0.391 -0.98 c -0.117 -0.066 -0.172 -0.164 -0.121 -0.211 c 0.051 -0.051 0.207 0.012 0.348 0.145 c 0.25 0.234 0.258 0.234 0.426 -0.004 c 0.098 -0.133 0.211 -0.203 0.254 -0.156 c 0.043 0.043 0.008 0.172 -0.082 0.281 c -0.133 0.164 -0.137 0.25 -0.012 0.453 c 0.207 0.336 0.063 0.469 -0.168 0.156 c -0.172 -0.23 -0.207 -0.211 -0.793 0.418 c -0.645 0.688 -0.688 0.723 -0.785 0.559" fill="#d16863"/><path d="m 8.922 16.996 c -0.406 -0.328 -0.383 -0.543 0.137 -1.129 l 0.438 -0.496 l -0.57 -0.625 l 0.281 -0.234 c 0.219 -0.184 0.258 -0.285 0.168 -0.461 c -0.145 -0.27 -1.918 -2.039 -2.047 -2.039 c -0.051 0 -0.195 0.121 -0.32 0.27 l -0.23 0.27 l -0.309 -0.293 l -0.305 -0.297 l -0.465 0.465 c -0.543 0.543 -0.629 0.555 -0.98 0.172 c -0.324 -0.352 -0.375 -1.344 -0.082 -1.59 c 0.098 -0.086 0.184 -0.313 0.184 -0.5 c 0 -0.191 -0.086 -0.418 -0.184 -0.504 c -0.121 -0.102 -0.188 -0.379 -0.188 -0.809 c 0 -0.523 0.059 -0.707 0.297 -0.934 c 0.34 -0.328 0.633 -0.238 0.977 0.297 c 0.238 0.367 0.625 0.418 0.801 0.098 c 0.102 -0.184 0.156 -0.191 0.344 -0.059 c 0.496 0.352 0.551 0.324 1.605 -0.77 l 1.043 -1.086 l -0.293 -0.32 l -0.297 -0.324 l 0.281 -0.234 c 0.324 -0.266 0.266 -0.477 -0.27 -0.988 c -0.375 -0.355 -0.387 -0.477 -0.078 -0.855 c 0.18 -0.223 0.355 -0.281 0.836 -0.281 c 0.395 0 0.664 0.066 0.762 0.188 c 0.199 0.242 0.785 0.242 0.98 0 c 0.102 -0.121 0.371 -0.188 0.762 -0.188 c 0.484 0 0.66 0.059 0.84 0.281 c 0.309 0.379 0.297 0.5 -0.078 0.855 c -0.535 0.512 -0.594 0.723 -0.273 0.988 l 0.285 0.234 l -0.297 0.324 l -0.293 0.32 l 1.043 1.086 c 1.051 1.094 1.109 1.121 1.605 0.77 c 0.184 -0.133 0.242 -0.125 0.344 0.059 c 0.176 0.32 0.563 0.27 0.797 -0.098 c 0.344 -0.535 0.637 -0.625 0.98 -0.297 c 0.238 0.227 0.293 0.41 0.293 0.934 c 0 0.43 -0.063 0.707 -0.184 0.809 c -0.102 0.086 -0.184 0.313 -0.184 0.504 c 0 0.188 0.082 0.414 0.184 0.5 c 0.305 0.258 0.242 1.277 -0.098 1.605 c -0.156 0.152 -0.336 0.273 -0.395 0.273 c -0.059 0 -0.316 -0.207 -0.574 -0.461 l -0.461 -0.465 l -0.309 0.297 l -0.305 0.293 l -0.23 -0.27 c -0.129 -0.148 -0.273 -0.273 -0.32 -0.273 c -0.129 0 -1.902 1.773 -2.047 2.043 c -0.09 0.176 -0.055 0.277 0.164 0.461 l 0.285 0.234 l -0.289 0.313 l -0.285 0.309 l 0.441 0.5 c 0.516 0.586 0.543 0.801 0.137 1.129 c -0.359 0.289 -1.203 0.273 -1.527 -0.027 c -0.117 -0.109 -0.344 -0.199 -0.5 -0.199 c -0.16 0 -0.383 0.09 -0.5 0.199 c -0.328 0.301 -1.168 0.316 -1.527 0.027 m 0.68 -2.16 c 0 -0.098 -0.059 -0.215 -0.125 -0.258 c -0.066 -0.043 -0.121 0.039 -0.121 0.18 c 0 0.145 0.055 0.258 0.121 0.258 c 0.066 0 0.125 -0.078 0.125 -0.18 m 0.855 -0.07 c 0 -0.137 -0.055 -0.25 -0.121 -0.25 c -0.066 0 -0.125 0.113 -0.125 0.25 c 0 0.137 0.059 0.25 0.125 0.25 c 0.066 0 0.121 -0.113 0.121 -0.25 m 1.227 0 c 0 -0.137 -0.055 -0.25 -0.121 -0.25 c -0.07 0 -0.125 0.113 -0.125 0.25 c 0 0.137 0.055 0.25 0.125 0.25 c 0.066 0 0.121 -0.113 0.121 -0.25 m 0.859 -0.008 c 0 -0.141 -0.055 -0.223 -0.125 -0.18 c -0.066 0.043 -0.121 0.16 -0.121 0.258 c 0 0.098 0.055 0.18 0.121 0.18 c 0.07 0 0.125 -0.113 0.125 -0.258 m -2.105 -1.656 c 0.059 -0.324 -1.652 -2.094 -2.027 -2.094 c -0.523 0 -0.324 0.473 0.605 1.453 c 0.898 0.949 1.328 1.141 1.422 0.641 m 2.449 -0.645 c 0.926 -0.977 1.121 -1.449 0.598 -1.449 c -0.188 0 -0.57 0.305 -1.164 0.922 c -0.824 0.863 -1 1.168 -0.801 1.375 c 0.215 0.219 0.551 0.008 1.367 -0.848 m -5.922 -0.449 c 0.039 -0.066 -0.039 -0.125 -0.176 -0.125 c -0.141 0 -0.254 0.059 -0.254 0.125 c 0 0.07 0.078 0.129 0.176 0.129 c 0.098 0 0.211 -0.059 0.254 -0.129 m 8.398 0 c 0 -0.066 -0.113 -0.125 -0.254 -0.125 c -0.141 0 -0.219 0.059 -0.176 0.125 c 0.039 0.07 0.156 0.129 0.25 0.129 c 0.098 0 0.18 -0.059 0.18 -0.129 m -3.695 -0.934 c 0.277 -0.309 0.508 -0.594 0.508 -0.633 c 0 -0.18 -1.039 -1.188 -1.227 -1.188 c -0.188 0 -1.227 1.01 -1.227 1.188 c 0 0.184 1.039 1.191 1.227 1.191 c 0.117 0 0.441 -0.25 0.719 -0.559 m -1.063 -0.219 c -0.418 -0.426 0.074 -1.133 0.59 -0.852 c 0.43 0.238 0.242 1 -0.246 1 c -0.109 0 -0.262 -0.07 -0.344 -0.152 m -3.641 0.277 c 0.039 -0.07 -0.043 -0.125 -0.184 -0.125 c -0.145 0 -0.227 0.055 -0.184 0.125 c 0.039 0.07 0.121 0.125 0.184 0.125 c 0.059 0 0.141 -0.055 0.184 -0.125 m 8.336 0 c 0.043 -0.07 -0.043 -0.125 -0.184 -0.125 c -0.145 0 -0.227 0.055 -0.184 0.125 c 0.043 0.07 0.125 0.125 0.184 0.125 c 0.059 0 0.141 -0.055 0.184 -0.125 m -8.336 -1.254 c 0.039 -0.07 -0.043 -0.125 -0.184 -0.125 c -0.145 0 -0.227 0.055 -0.184 0.125 c 0.039 0.07 0.121 0.125 0.184 0.125 c 0.059 0 0.141 -0.055 0.184 -0.125 m 2.539 -0.844 c 0.941 -0.953 1.141 -1.348 0.758 -1.496 c -0.133 -0.051 -0.496 0.23 -1.164 0.91 c -0.895 0.91 -1.102 1.254 -0.887 1.473 c 0.18 0.184 0.379 0.043 1.293 -0.887 m 4.238 0.656 c 0.047 -0.344 -1.832 -2.262 -2.109 -2.152 c -0.375 0.148 -0.184 0.527 0.754 1.496 c 0.945 0.969 1.289 1.137 1.355 0.656 m 1.559 0.188 c 0.039 -0.07 -0.043 -0.125 -0.184 -0.125 c -0.145 0 -0.227 0.055 -0.184 0.125 c 0.039 0.07 0.121 0.125 0.184 0.125 c 0.059 0 0.141 -0.055 0.184 -0.125 m -8.375 -1.027 c -0.113 -0.117 -0.18 -0.117 -0.293 0 c -0.113 0.117 -0.082 0.152 0.148 0.152 c 0.227 0 0.262 -0.035 0.145 -0.152 m 8.34 0 c -0.117 -0.117 -0.18 -0.117 -0.297 0 c -0.113 0.117 -0.082 0.152 0.148 0.152 c 0.227 0 0.262 -0.035 0.148 -0.152 m -5.664 -2.66 c 0 -0.102 -0.059 -0.219 -0.125 -0.258 c -0.066 -0.043 -0.121 0.039 -0.121 0.18 c 0 0.141 0.055 0.258 0.121 0.258 c 0.066 0 0.125 -0.082 0.125 -0.18 m 0.855 -0.078 c 0 -0.145 -0.055 -0.223 -0.121 -0.18 c -0.066 0.039 -0.121 0.156 -0.121 0.258 c 0 0.098 0.055 0.18 0.121 0.18 c 0.066 0 0.121 -0.117 0.121 -0.258 m 1.227 0.078 c 0 -0.102 -0.055 -0.219 -0.121 -0.258 c -0.07 -0.043 -0.125 0.039 -0.125 0.18 c 0 0.141 0.055 0.258 0.125 0.258 c 0.066 0 0.121 -0.082 0.121 -0.18 m 0.859 -0.078 c 0 -0.145 -0.055 -0.223 -0.125 -0.18 c -0.066 0.039 -0.121 0.156 -0.121 0.258 c 0 0.098 0.055 0.18 0.121 0.18 c 0.07 0 0.125 -0.117 0.125 -0.258" fill="#b2ac34"/><path d="m 8.922 16.996 c -0.406 -0.328 -0.383 -0.539 0.133 -1.148 c 0.238 -0.285 0.488 -0.586 0.551 -0.668 c 0.164 -0.211 0.145 -0.637 -0.035 -0.879 c -0.199 -0.266 -2.078 -2.18 -2.336 -2.387 c -0.371 -0.289 -0.777 -0.172 -1.41 0.41 c -0.336 0.309 -0.664 0.563 -0.727 0.563 c -0.063 0 -0.234 -0.129 -0.379 -0.289 c -0.324 -0.352 -0.375 -1.344 -0.082 -1.59 c 0.098 -0.086 0.184 -0.313 0.184 -0.5 c 0 -0.191 -0.086 -0.418 -0.184 -0.504 c -0.121 -0.102 -0.188 -0.379 -0.188 -0.809 c 0 -0.523 0.059 -0.703 0.297 -0.934 c 0.34 -0.328 0.633 -0.238 0.977 0.297 c 0.113 0.176 0.289 0.32 0.391 0.32 c 0.102 0 0.215 0.082 0.254 0.188 c 0.098 0.25 0.781 0.25 0.781 0 c 0 -0.105 0.078 -0.188 0.168 -0.188 c 0.094 0 0.676 -0.539 1.289 -1.195 c 0.801 -0.855 1.117 -1.285 1.117 -1.512 c 0 -0.336 -0.008 -0.348 -0.668 -1.133 c -0.5 -0.594 -0.508 -0.637 -0.195 -1.02 c 0.18 -0.223 0.355 -0.281 0.84 -0.281 c 0.391 0 0.66 0.066 0.758 0.188 c 0.199 0.242 0.785 0.242 0.984 0 c 0.098 -0.121 0.367 -0.188 0.758 -0.188 c 0.484 0 0.66 0.059 0.84 0.281 c 0.313 0.383 0.305 0.426 -0.195 1.02 c -0.66 0.785 -0.668 0.797 -0.668 1.133 c 0 0.227 0.316 0.656 1.117 1.512 c 0.613 0.656 1.195 1.195 1.289 1.195 c 0.09 0 0.168 0.082 0.168 0.188 c 0 0.121 0.121 0.188 0.355 0.188 c 0.203 0 0.383 -0.082 0.426 -0.188 c 0.039 -0.105 0.152 -0.188 0.254 -0.188 c 0.102 0 0.277 -0.145 0.391 -0.32 c 0.34 -0.535 0.637 -0.625 0.977 -0.297 c 0.238 0.23 0.293 0.41 0.293 0.934 c 0 0.43 -0.063 0.707 -0.184 0.809 c -0.102 0.086 -0.184 0.313 -0.184 0.504 c 0 0.188 0.082 0.414 0.184 0.5 c 0.309 0.258 0.242 1.277 -0.098 1.605 c -0.156 0.152 -0.328 0.273 -0.383 0.273 c -0.051 0 -0.371 -0.254 -0.707 -0.563 c -0.633 -0.582 -1.039 -0.699 -1.41 -0.41 c -0.262 0.207 -2.137 2.121 -2.336 2.387 c -0.18 0.242 -0.199 0.668 -0.035 0.879 c 0.063 0.082 0.313 0.383 0.551 0.668 c 0.516 0.609 0.539 0.82 0.133 1.148 c -0.359 0.289 -1.199 0.273 -1.527 -0.027 c -0.117 -0.109 -0.34 -0.195 -0.5 -0.195 c -0.156 0 -0.383 0.086 -0.5 0.195 c -0.324 0.301 -1.168 0.316 -1.527 0.027 m 1.453 -0.422 c 0.219 -0.305 0.219 -0.32 -0.063 -0.621 c -0.355 -0.383 -0.457 -0.383 -0.813 0 c -0.281 0.301 -0.281 0.316 -0.063 0.621 c 0.125 0.176 0.336 0.316 0.469 0.316 c 0.137 0 0.344 -0.145 0.469 -0.316 m 2.082 0 c 0.223 -0.305 0.219 -0.32 -0.059 -0.621 c -0.355 -0.383 -0.461 -0.383 -0.816 0 c -0.277 0.301 -0.277 0.316 -0.059 0.621 c 0.121 0.176 0.332 0.316 0.469 0.316 c 0.133 0 0.344 -0.145 0.469 -0.316 m -1.941 -1.809 c 0 -0.195 -0.078 -0.324 -0.215 -0.352 c -0.168 -0.031 -0.215 0.043 -0.215 0.352 c 0 0.309 0.047 0.387 0.215 0.352 c 0.137 -0.023 0.215 -0.156 0.215 -0.352 m 1.285 0 c 0 -0.402 -0.313 -0.535 -0.445 -0.188 c -0.098 0.266 0.039 0.563 0.262 0.563 c 0.125 0 0.188 -0.121 0.188 -0.375 m -1.25 -1.602 c 0.059 -0.434 -1.727 -2.281 -2.207 -2.281 c -0.301 0 -0.344 0.047 -0.344 0.367 c 0 0.285 0.195 0.578 0.887 1.313 c 0.758 0.805 0.945 0.941 1.258 0.918 c 0.277 -0.023 0.375 -0.098 0.406 -0.316 m 2.422 -0.598 c 0.715 -0.746 0.91 -1.027 0.91 -1.316 c 0 -0.32 -0.047 -0.367 -0.348 -0.367 c -0.27 0 -0.551 0.215 -1.285 0.988 c -1.09 1.141 -1.234 1.641 -0.48 1.641 c 0.207 0 0.57 -0.281 1.203 -0.945 m -7.06 -0.988 c 0.004 -0.145 -0.496 -0.695 -0.633 -0.695 c -0.152 0 -0.59 0.48 -0.59 0.652 c 0 0.086 0.145 0.281 0.324 0.438 l 0.32 0.281 l 0.289 -0.277 c 0.16 -0.156 0.289 -0.332 0.289 -0.398 m 11.06 0.316 c 0.285 -0.246 0.277 -0.453 -0.027 -0.762 c -0.305 -0.313 -0.348 -0.313 -0.695 0.02 c -0.352 0.34 -0.352 0.434 -0.012 0.797 c 0.277 0.297 0.34 0.289 0.734 -0.055 m -5.281 -0.617 c 0.328 -0.336 0.598 -0.695 0.598 -0.797 c 0 -0.301 -1.047 -1.352 -1.348 -1.352 c -0.301 0 -1.352 1.051 -1.352 1.352 c 0 0.227 1.133 1.402 1.352 1.402 c 0.086 0 0.426 -0.273 0.75 -0.605 m -1.031 -0.473 c -0.156 -0.16 -0.09 -0.645 0.098 -0.719 c 0.328 -0.129 0.566 0.055 0.527 0.406 c -0.039 0.32 -0.426 0.516 -0.625 0.313 m -3.543 0.359 c -0.023 -0.133 -0.176 -0.234 -0.375 -0.258 c -0.273 -0.031 -0.336 0.012 -0.336 0.219 c 0 0.203 0.074 0.258 0.375 0.258 c 0.293 0 0.367 -0.047 0.336 -0.219 m 8.359 -0.039 c 0 -0.211 -0.066 -0.254 -0.336 -0.219 c -0.203 0.023 -0.352 0.125 -0.379 0.258 c -0.031 0.168 0.047 0.219 0.336 0.219 c 0.301 0 0.379 -0.055 0.379 -0.258 m -8.363 -1.355 c -0.02 -0.117 -0.184 -0.219 -0.375 -0.242 c -0.266 -0.031 -0.336 0.012 -0.336 0.207 c 0 0.137 0.07 0.273 0.156 0.301 c 0.273 0.098 0.594 -0.059 0.555 -0.266 m 8.363 -0.039 c 0 -0.191 -0.07 -0.234 -0.336 -0.203 c -0.387 0.043 -0.535 0.43 -0.191 0.508 c 0.34 0.074 0.527 -0.031 0.527 -0.305 m -9.809 0.023 c 0.137 -0.137 0.246 -0.309 0.246 -0.375 c 0 -0.164 -0.453 -0.629 -0.613 -0.629 c -0.16 0 -0.613 0.465 -0.613 0.629 c 0 0.18 0.402 0.602 0.582 0.617 c 0.086 0.004 0.266 -0.105 0.398 -0.242 m 3.969 -0.734 c 0.746 -0.766 0.949 -1.051 0.918 -1.285 c -0.031 -0.203 -0.137 -0.313 -0.336 -0.34 c -0.426 -0.063 -2.219 1.766 -2.219 2.262 c 0 0.297 0.051 0.348 0.34 0.348 c 0.262 0 0.559 -0.227 1.297 -0.984 m 4.246 0.637 c 0 -0.496 -1.793 -2.324 -2.219 -2.262 c -0.203 0.027 -0.309 0.137 -0.336 0.34 c -0.059 0.438 1.727 2.27 2.215 2.27 c 0.289 0 0.34 -0.051 0.34 -0.348 m 3.066 0.098 c 0.133 -0.137 0.242 -0.309 0.242 -0.375 c 0 -0.164 -0.453 -0.629 -0.609 -0.629 c -0.16 0 -0.613 0.465 -0.613 0.629 c 0 0.18 0.398 0.602 0.582 0.617 c 0.082 0.004 0.262 -0.105 0.398 -0.242 m -6.438 -3.633 c 0 -0.195 -0.078 -0.328 -0.215 -0.352 c -0.168 -0.035 -0.215 0.043 -0.215 0.352 c 0 0.309 0.047 0.383 0.215 0.352 c 0.137 -0.027 0.215 -0.156 0.215 -0.352 m 1.289 0 c 0 -0.406 -0.316 -0.539 -0.449 -0.188 c -0.098 0.266 0.039 0.563 0.262 0.563 c 0.125 0 0.188 -0.121 0.188 -0.375 m -1.477 -1.188 l 0.281 -0.309 l -0.293 -0.316 c -0.16 -0.172 -0.348 -0.316 -0.414 -0.316 c -0.066 0 -0.254 0.145 -0.414 0.316 l -0.293 0.316 l 0.281 0.309 c 0.156 0.172 0.348 0.309 0.426 0.309 c 0.078 0 0.27 -0.137 0.426 -0.309 m 2.082 0 l 0.285 -0.309 l -0.293 -0.316 c -0.16 -0.172 -0.348 -0.316 -0.414 -0.316 c -0.07 0 -0.258 0.145 -0.418 0.316 l -0.293 0.316 l 0.285 0.309 c 0.156 0.172 0.348 0.309 0.426 0.309 c 0.074 0 0.266 -0.137 0.422 -0.309 m -3.371 9.945 c -0.047 -0.074 -0.023 -0.199 0.051 -0.273 c 0.102 -0.102 0.137 -0.066 0.137 0.137 c 0 0.301 -0.063 0.348 -0.188 0.137 m 3.621 -0.113 c 0 -0.234 0.031 -0.266 0.148 -0.148 c 0.113 0.117 0.113 0.184 0 0.301 c -0.117 0.117 -0.148 0.082 -0.148 -0.152 m -6.066 -2.379 c -0.043 -0.07 0.008 -0.129 0.113 -0.129 c 0.105 0 0.191 0.059 0.191 0.129 c 0 0.066 -0.051 0.125 -0.113 0.125 c -0.066 0 -0.152 -0.059 -0.191 -0.125 m 8.398 0 c 0 -0.07 0.086 -0.129 0.188 -0.129 c 0.105 0 0.16 0.059 0.117 0.129 c -0.043 0.066 -0.129 0.125 -0.191 0.125 c -0.063 0 -0.113 -0.059 -0.113 -0.125 m -8.398 -3.762 c -0.043 -0.066 0.008 -0.125 0.113 -0.125 c 0.105 0 0.191 0.059 0.191 0.125 c 0 0.07 -0.051 0.125 -0.113 0.125 c -0.066 0 -0.152 -0.055 -0.191 -0.125 m 8.398 0 c 0 -0.066 0.086 -0.125 0.188 -0.125 c 0.105 0 0.16 0.059 0.117 0.125 c -0.043 0.07 -0.129 0.125 -0.191 0.125 c -0.063 0 -0.113 -0.055 -0.113 -0.125 m -5.953 -2.391 c -0.047 -0.074 -0.023 -0.199 0.051 -0.277 c 0.102 -0.102 0.137 -0.066 0.137 0.137 c 0 0.305 -0.063 0.352 -0.188 0.141 m 3.621 -0.113 c 0 -0.234 0.031 -0.27 0.148 -0.152 c 0.113 0.117 0.113 0.184 0 0.301 c -0.117 0.117 -0.148 0.082 -0.148 -0.148" fill="#9c9b4f"/><path d="m 8.922 16.996 c -0.402 -0.324 -0.383 -0.543 0.109 -1.102 c 0.227 -0.254 0.438 -0.535 0.465 -0.621 c 0.027 -0.086 0.27 -0.164 0.535 -0.176 c 0.434 -0.016 0.488 -0.051 0.488 -0.332 c 0 -0.281 -0.051 -0.313 -0.48 -0.313 c -0.32 0 -0.5 -0.063 -0.535 -0.188 c -0.031 -0.102 -0.508 -0.645 -1.055 -1.207 c -0.547 -0.559 -1.078 -1.043 -1.18 -1.074 c -0.121 -0.039 -0.184 -0.223 -0.184 -0.551 c 0 -0.445 -0.031 -0.492 -0.355 -0.531 c -0.336 -0.039 -0.348 -0.02 -0.277 0.348 c 0.07 0.352 0.012 0.457 -0.563 1.012 c -0.355 0.34 -0.703 0.621 -0.773 0.621 c -0.074 0.004 -0.254 -0.125 -0.398 -0.285 c -0.324 -0.352 -0.375 -1.344 -0.082 -1.59 c 0.098 -0.086 0.184 -0.313 0.184 -0.5 c 0 -0.191 -0.086 -0.418 -0.184 -0.504 c -0.121 -0.102 -0.188 -0.379 -0.188 -0.809 c 0 -0.523 0.059 -0.707 0.297 -0.934 c 0.34 -0.328 0.633 -0.238 0.977 0.297 c 0.113 0.176 0.285 0.316 0.383 0.316 c 0.246 0 0.43 0.406 0.344 0.746 c -0.082 0.328 0.125 0.508 0.477 0.414 c 0.176 -0.047 0.223 -0.137 0.176 -0.332 c -0.09 -0.363 0.039 -0.828 0.23 -0.828 c 0.086 0 0.664 -0.543 1.285 -1.207 c 0.941 -1.01 1.195 -1.211 1.516 -1.223 c 0.328 -0.012 0.387 -0.059 0.387 -0.324 c 0 -0.281 -0.051 -0.313 -0.48 -0.313 c -0.301 0 -0.5 -0.066 -0.535 -0.176 c -0.031 -0.098 -0.246 -0.387 -0.473 -0.641 c -0.477 -0.539 -0.484 -0.59 -0.172 -0.973 c 0.18 -0.223 0.355 -0.281 0.836 -0.281 c 0.395 0 0.664 0.066 0.762 0.188 c 0.199 0.242 0.785 0.242 0.98 0 c 0.102 -0.121 0.371 -0.188 0.762 -0.188 c 0.484 0 0.66 0.059 0.84 0.281 c 0.313 0.383 0.301 0.434 -0.176 0.973 c -0.227 0.254 -0.438 0.543 -0.469 0.641 c -0.035 0.109 -0.234 0.176 -0.535 0.176 c -0.434 0 -0.48 0.031 -0.48 0.313 c 0 0.266 0.059 0.313 0.383 0.324 c 0.32 0.012 0.578 0.215 1.516 1.223 c 0.625 0.664 1.203 1.207 1.289 1.207 c 0.191 0 0.32 0.465 0.23 0.828 c -0.047 0.195 0 0.285 0.176 0.332 c 0.352 0.094 0.559 -0.086 0.473 -0.414 c -0.086 -0.34 0.102 -0.746 0.348 -0.746 c 0.098 0 0.27 -0.141 0.379 -0.316 c 0.344 -0.535 0.637 -0.625 0.98 -0.297 c 0.238 0.227 0.293 0.41 0.293 0.934 c 0 0.43 -0.063 0.707 -0.184 0.809 c -0.102 0.086 -0.184 0.313 -0.184 0.504 c 0 0.188 0.082 0.414 0.184 0.5 c 0.305 0.258 0.242 1.277 -0.098 1.605 c -0.156 0.152 -0.336 0.273 -0.398 0.27 c -0.066 0 -0.406 -0.281 -0.758 -0.621 c -0.574 -0.555 -0.633 -0.66 -0.566 -1.012 c 0.074 -0.367 0.059 -0.387 -0.277 -0.348 c -0.324 0.039 -0.355 0.086 -0.355 0.531 c 0 0.328 -0.059 0.512 -0.184 0.551 c -0.098 0.031 -0.629 0.516 -1.18 1.074 c -0.547 0.563 -1.02 1.102 -1.051 1.207 c -0.039 0.125 -0.219 0.188 -0.535 0.188 c -0.434 0 -0.48 0.031 -0.48 0.313 c 0 0.281 0.055 0.316 0.484 0.332 c 0.27 0.012 0.512 0.09 0.539 0.176 c 0.027 0.086 0.234 0.367 0.461 0.621 c 0.492 0.559 0.516 0.777 0.113 1.102 c -0.359 0.289 -1.203 0.273 -1.527 -0.027 c -0.117 -0.109 -0.344 -0.195 -0.5 -0.195 c -0.16 0 -0.383 0.086 -0.5 0.195 c -0.328 0.301 -1.168 0.316 -1.527 0.027 m 1.48 -0.402 c 0.367 -0.574 -0.289 -1.16 -0.867 -0.773 c -0.355 0.238 -0.609 0.691 -0.469 0.828 c 0.059 0.055 0.215 0.125 0.348 0.16 c 0.551 0.133 0.797 0.082 0.988 -0.215 m 2.426 0.059 c 0.145 -0.145 -0.109 -0.59 -0.469 -0.832 c -0.348 -0.23 -0.676 -0.156 -0.898 0.207 c -0.137 0.223 -0.129 0.313 0.043 0.582 c 0.18 0.281 0.258 0.309 0.711 0.234 c 0.281 -0.047 0.559 -0.133 0.613 -0.191 m -2.375 -3.129 c 0.234 -0.449 0.133 -0.66 -0.813 -1.652 c -0.703 -0.738 -1.023 -0.988 -1.266 -0.988 c -0.344 0 -0.613 0.199 -0.613 0.457 c 0 0.246 2.117 2.426 2.355 2.426 c 0.113 0 0.266 -0.109 0.336 -0.242 m 2.609 -0.891 c 0.59 -0.625 1.074 -1.207 1.074 -1.293 c 0 -0.258 -0.273 -0.457 -0.617 -0.457 c -0.242 0 -0.559 0.25 -1.262 0.988 c -0.52 0.543 -0.941 1.082 -0.941 1.199 c 0 0.34 0.238 0.695 0.465 0.695 c 0.113 0 0.691 -0.512 1.281 -1.133 m -7.355 -0.641 c 0.293 -0.398 0.199 -0.816 -0.227 -1.012 c -0.238 -0.113 -0.34 -0.094 -0.547 0.098 c -0.203 0.188 -0.238 0.32 -0.176 0.676 c 0.047 0.242 0.109 0.488 0.145 0.543 c 0.117 0.195 0.566 0.023 0.805 -0.305 m 11.41 -0.145 c 0.09 -0.387 0.07 -0.523 -0.105 -0.723 c -0.277 -0.309 -0.484 -0.309 -0.793 0.008 c -0.313 0.32 -0.309 0.512 0.016 0.93 c 0.371 0.484 0.742 0.395 0.883 -0.215 m -5.215 -0.375 c 0.43 -0.445 0.516 -0.621 0.516 -1.027 c 0 -0.41 -0.086 -0.586 -0.516 -1.031 c -0.719 -0.746 -1.191 -0.746 -1.91 0 c -0.43 0.445 -0.516 0.621 -0.516 1.031 c 0 0.406 0.086 0.582 0.516 1.027 c 0.418 0.434 0.602 0.535 0.957 0.535 c 0.355 0 0.535 -0.102 0.953 -0.535 m -1.234 -0.668 c -0.156 -0.16 -0.094 -0.645 0.098 -0.719 c 0.324 -0.129 0.566 0.055 0.527 0.406 c -0.039 0.32 -0.426 0.516 -0.625 0.313 m -4.973 -1.01 c 0.309 -0.285 0.281 -0.531 -0.102 -0.945 c -0.516 -0.547 -0.695 -0.484 -0.836 0.289 c -0.133 0.727 0.434 1.125 0.938 0.656 m 3.934 -0.762 c 1 -1.023 1.133 -1.332 0.707 -1.723 c -0.238 -0.223 -0.27 -0.199 -1.41 0.941 c -0.641 0.645 -1.164 1.234 -1.164 1.309 c 0 0.238 0.277 0.441 0.602 0.441 c 0.223 0 0.578 -0.273 1.266 -0.969 m 4.434 0.684 c 0.113 -0.191 -0.039 -0.398 -1.063 -1.43 c -1.172 -1.18 -1.199 -1.199 -1.441 -0.977 c -0.418 0.387 -0.293 0.691 0.707 1.723 c 0.805 0.828 1 0.973 1.305 0.941 c 0.195 -0.02 0.418 -0.133 0.492 -0.258 m 2.953 0.078 c 0.152 -0.152 0.184 -0.32 0.121 -0.656 c -0.141 -0.773 -0.32 -0.836 -0.832 -0.289 c -0.383 0.406 -0.41 0.605 -0.129 0.926 c 0.254 0.281 0.578 0.293 0.844 0.02 m -6.684 -4.805 c 0.309 -0.316 0.305 -0.438 -0.008 -0.762 c -0.199 -0.199 -0.344 -0.238 -0.645 -0.172 c -0.215 0.043 -0.473 0.164 -0.574 0.266 c -0.164 0.16 -0.137 0.223 0.215 0.551 c 0.473 0.434 0.68 0.457 1.012 0.117 m 2.234 -0.117 c 0.355 -0.328 0.379 -0.391 0.215 -0.551 c -0.098 -0.102 -0.359 -0.223 -0.574 -0.266 c -0.301 -0.066 -0.445 -0.027 -0.641 0.172 c -0.316 0.324 -0.316 0.445 -0.008 0.762 c 0.332 0.34 0.535 0.316 1.01 -0.117 m -3.531 10.01 c -0.043 -0.078 -0.02 -0.199 0.055 -0.277 c 0.102 -0.102 0.137 -0.066 0.137 0.137 c 0 0.301 -0.063 0.348 -0.191 0.141 m 3.625 -0.117 c 0 -0.234 0.031 -0.266 0.148 -0.148 c 0.113 0.117 0.113 0.184 0 0.301 c -0.117 0.117 -0.148 0.082 -0.148 -0.152 m -6.066 -2.379 c -0.043 -0.07 0.008 -0.125 0.113 -0.125 c 0.105 0 0.191 0.055 0.191 0.125 c 0 0.066 -0.051 0.125 -0.117 0.125 c -0.063 0 -0.148 -0.059 -0.188 -0.125 m 8.395 0 c 0 -0.07 0.086 -0.125 0.191 -0.125 c 0.105 0 0.16 0.055 0.117 0.125 c -0.043 0.066 -0.129 0.125 -0.191 0.125 c -0.063 0 -0.117 -0.059 -0.117 -0.125 m -8.395 -3.762 c -0.043 -0.066 0.008 -0.125 0.113 -0.125 c 0.105 0 0.191 0.059 0.191 0.125 c 0 0.07 -0.051 0.125 -0.117 0.125 c -0.063 0 -0.148 -0.055 -0.188 -0.125 m 8.395 0 c 0 -0.066 0.086 -0.125 0.191 -0.125 c 0.105 0 0.16 0.059 0.117 0.125 c -0.043 0.07 -0.129 0.125 -0.191 0.125 c -0.063 0 -0.117 -0.055 -0.117 -0.125 m -5.953 -2.391 c -0.043 -0.074 -0.02 -0.199 0.055 -0.273 c 0.102 -0.105 0.137 -0.066 0.137 0.133 c 0 0.305 -0.063 0.352 -0.191 0.141 m 3.625 -0.113 c 0 -0.234 0.031 -0.27 0.148 -0.152 c 0.113 0.117 0.113 0.184 0 0.301 c -0.117 0.117 -0.148 0.086 -0.148 -0.148" fill="#9e624d"/><path d="m 9.152 17.12 c -0.031 -0.051 0.23 -0.094 0.582 -0.094 c 0.355 0 0.609 0.031 0.57 0.074 c -0.109 0.113 -1.086 0.129 -1.152 0.02 m 2.488 0 c -0.078 -0.051 0.16 -0.094 0.523 -0.094 c 0.367 0 0.629 0.035 0.586 0.082 c -0.113 0.113 -0.938 0.125 -1.109 0.012 m -1.082 -0.879 c -0.039 -0.516 -0.055 -0.535 -0.52 -0.594 c -0.621 -0.082 -0.746 -0.375 -0.156 -0.375 c 0.844 0 0.957 -0.73 0.145 -0.945 c -0.695 -0.188 -2.633 -2.168 -2.812 -2.879 c -0.098 -0.387 -0.195 -0.512 -0.422 -0.543 c -0.352 -0.051 -0.5 0.156 -0.5 0.711 c -0.004 0.586 -0.293 0.449 -0.371 -0.176 c -0.059 -0.469 -0.086 -0.496 -0.551 -0.555 c -0.402 -0.051 -0.5 -0.117 -0.531 -0.363 c -0.051 -0.348 0.18 -0.543 0.531 -0.457 c 0.375 0.09 0.527 -0.074 0.574 -0.613 c 0.051 -0.637 0.344 -0.766 0.344 -0.152 c 0 0.512 0.262 0.84 0.602 0.746 c 0.223 -0.059 0.375 -0.375 0.379 -0.793 c 0 -0.105 0.531 -0.738 1.18 -1.41 c 0.926 -0.957 1.25 -1.219 1.516 -1.219 c 0.391 0 0.656 -0.262 0.594 -0.59 c -0.027 -0.148 -0.215 -0.262 -0.559 -0.344 c -0.289 -0.063 -0.523 -0.16 -0.523 -0.211 c 0 -0.117 0.488 -0.277 0.578 -0.188 c 0.18 0.184 0.516 -0.207 0.551 -0.641 c 0.031 -0.406 0.078 -0.469 0.344 -0.469 c 0.266 0 0.313 0.063 0.344 0.469 c 0.035 0.434 0.371 0.824 0.551 0.641 c 0.09 -0.09 0.578 0.07 0.578 0.188 c 0 0.051 -0.234 0.148 -0.523 0.211 c -0.348 0.082 -0.535 0.195 -0.563 0.344 c -0.059 0.328 0.207 0.59 0.598 0.59 c 0.266 0 0.59 0.262 1.516 1.219 c 0.648 0.672 1.18 1.305 1.18 1.41 c 0.004 0.418 0.156 0.734 0.379 0.793 c 0.336 0.094 0.602 -0.234 0.602 -0.746 c 0 -0.613 0.293 -0.484 0.344 0.152 c 0.043 0.539 0.199 0.703 0.574 0.613 c 0.352 -0.086 0.578 0.109 0.531 0.457 c -0.035 0.246 -0.129 0.313 -0.531 0.363 c -0.465 0.059 -0.492 0.086 -0.551 0.555 c -0.078 0.625 -0.367 0.762 -0.371 0.176 c -0.004 -0.555 -0.148 -0.762 -0.504 -0.711 c -0.223 0.031 -0.32 0.156 -0.418 0.543 c -0.184 0.715 -2.117 2.691 -2.813 2.879 c -0.813 0.215 -0.699 0.945 0.145 0.945 c 0.59 0 0.465 0.293 -0.156 0.375 c -0.469 0.059 -0.484 0.078 -0.52 0.594 c -0.035 0.496 -0.063 0.535 -0.391 0.535 c -0.328 0 -0.355 -0.039 -0.391 -0.535 m -0.125 -2.375 c 0.23 -0.234 0.172 -0.91 -0.105 -1.273 l -0.254 -0.328 h 1.75 l -0.254 0.328 c -0.422 0.547 -0.289 1.426 0.215 1.426 c 0.188 0 2.293 -2.043 2.492 -2.418 c 0.063 -0.121 0.082 -0.336 0.043 -0.469 c -0.063 -0.195 -0.188 -0.246 -0.605 -0.246 c -0.32 0 -0.59 0.074 -0.684 0.188 c -0.277 0.344 -0.367 0.195 -0.367 -0.625 c 0 -0.855 0.043 -0.93 0.363 -0.633 c 0.215 0.199 0.973 0.293 1.207 0.148 c 0.32 -0.207 0.098 -0.59 -1.02 -1.758 c -0.988 -1.031 -1.219 -1.215 -1.504 -1.184 c -0.293 0.035 -0.336 0.102 -0.371 0.555 c -0.023 0.344 0.027 0.562 0.156 0.672 c 0.367 0.313 0.207 0.445 -0.547 0.445 c -0.754 0 -0.914 -0.133 -0.547 -0.445 c 0.129 -0.109 0.18 -0.328 0.152 -0.672 c -0.031 -0.457 -0.074 -0.52 -0.371 -0.555 c -0.281 -0.031 -0.516 0.152 -1.5 1.184 c -1.121 1.168 -1.344 1.551 -1.02 1.758 c 0.234 0.145 0.988 0.051 1.207 -0.148 c 0.32 -0.297 0.363 -0.223 0.363 0.633 c 0 0.82 -0.09 0.969 -0.371 0.625 c -0.09 -0.113 -0.359 -0.188 -0.68 -0.188 c -0.418 0 -0.543 0.051 -0.605 0.246 c -0.109 0.359 0.043 0.574 1.262 1.789 c 1.098 1.098 1.316 1.23 1.594 0.945 m -0.82 -2.047 c -0.16 -0.176 -0.266 -0.34 -0.234 -0.375 c 0.031 -0.031 0.215 0.113 0.406 0.32 c 0.191 0.203 0.301 0.371 0.234 0.371 c -0.063 0 -0.246 -0.145 -0.406 -0.316 m 2.5 -0.055 c 0.191 -0.207 0.375 -0.352 0.406 -0.32 c 0.074 0.078 -0.496 0.688 -0.645 0.691 c -0.063 0 0.043 -0.164 0.238 -0.371 m -1.445 -0.957 c -0.156 -0.16 -0.09 -0.645 0.098 -0.719 c 0.328 -0.129 0.566 0.055 0.527 0.406 c -0.035 0.32 -0.426 0.516 -0.625 0.313 m -1.313 -1.395 c 0.004 -0.137 0.609 -0.703 0.68 -0.633 c 0.031 0.035 -0.078 0.211 -0.242 0.395 c -0.309 0.336 -0.441 0.41 -0.438 0.238 m 2.727 -0.246 c -0.152 -0.18 -0.25 -0.355 -0.219 -0.387 c 0.07 -0.07 0.676 0.496 0.676 0.633 c 0.004 0.18 -0.18 0.078 -0.457 -0.246 m -3.02 5.746 c -0.051 -0.09 -0.063 -0.195 -0.023 -0.234 c 0.109 -0.113 0.23 0.051 0.172 0.234 c -0.043 0.125 -0.07 0.125 -0.148 0 m 3.605 -0.074 c 0 -0.105 0.055 -0.195 0.125 -0.195 c 0.066 0 0.121 0.055 0.121 0.117 c 0 0.066 -0.055 0.152 -0.121 0.195 c -0.07 0.043 -0.125 -0.008 -0.125 -0.117 m -6.066 -2.449 c -0.043 -0.07 0.012 -0.125 0.113 -0.125 c 0.105 0 0.191 0.055 0.191 0.125 c 0 0.066 -0.051 0.125 -0.113 0.125 c -0.063 0 -0.148 -0.059 -0.191 -0.125 m 8.398 0 c 0 -0.07 0.086 -0.125 0.191 -0.125 c 0.105 0 0.156 0.055 0.113 0.125 c -0.039 0.066 -0.125 0.125 -0.191 0.125 c -0.063 0 -0.113 -0.059 -0.113 -0.125 m -10.527 -0.629 c -0.008 -0.5 0.023 -0.633 0.109 -0.48 c 0.074 0.133 0.078 0.391 0.008 0.691 c -0.109 0.477 -0.109 0.477 -0.117 -0.211 m 12.816 0.168 c -0.043 -0.25 -0.023 -0.547 0.039 -0.656 c 0.082 -0.141 0.117 -0.008 0.117 0.457 c 0.008 0.77 -0.055 0.848 -0.156 0.199 m -12.816 -2.797 c 0.008 -0.688 0.008 -0.688 0.117 -0.211 c 0.07 0.301 0.066 0.559 -0.008 0.691 c -0.086 0.152 -0.117 0.02 -0.109 -0.48 m 12.809 0.406 c -0.035 -0.121 -0.016 -0.418 0.039 -0.656 c 0.102 -0.422 0.105 -0.414 0.117 0.219 c 0.016 0.672 -0.043 0.828 -0.156 0.438 m -10.68 -0.91 c -0.043 -0.066 0.012 -0.125 0.113 -0.125 c 0.105 0 0.191 0.059 0.191 0.125 c 0 0.07 -0.051 0.125 -0.113 0.125 c -0.063 0 -0.148 -0.055 -0.191 -0.125 m 8.398 0 c 0 -0.066 0.086 -0.125 0.191 -0.125 c 0.105 0 0.156 0.059 0.113 0.125 c -0.039 0.07 -0.125 0.125 -0.191 0.125 c -0.063 0 -0.113 -0.055 -0.113 -0.125 m -10.05 -0.5 c 0 -0.07 0.055 -0.125 0.125 -0.125 c 0.066 0 0.121 0.055 0.121 0.125 c 0 0.07 -0.055 0.125 -0.121 0.125 c -0.07 0 -0.125 -0.055 -0.125 -0.125 m 11.77 0 c 0 -0.07 0.055 -0.125 0.125 -0.125 c 0.066 0 0.121 0.055 0.121 0.125 c 0 0.07 -0.055 0.125 -0.121 0.125 c -0.07 0 -0.125 -0.055 -0.125 -0.125 m -7.652 -1.863 c -0.051 -0.086 -0.063 -0.191 -0.023 -0.234 c 0.113 -0.109 0.23 0.055 0.172 0.234 c -0.043 0.129 -0.07 0.129 -0.148 0 m 3.605 -0.07 c 0 -0.109 0.059 -0.195 0.125 -0.195 c 0.066 0 0.121 0.051 0.121 0.117 c 0 0.063 -0.055 0.152 -0.121 0.195 c -0.066 0.043 -0.125 -0.012 -0.125 -0.117 m -4.04 -1.773 c 0.008 -0.145 0.035 -0.176 0.074 -0.074 c 0.035 0.09 0.031 0.195 -0.008 0.238 c -0.043 0.043 -0.07 -0.031 -0.066 -0.164 m 4.535 0 c 0.008 -0.145 0.035 -0.176 0.074 -0.074 c 0.039 0.09 0.031 0.195 -0.008 0.238 c -0.039 0.043 -0.07 -0.031 -0.066 -0.164 m -3.809 -0.555 c -0.238 -0.078 -0.164 -0.102 0.344 -0.113 c 0.406 -0.008 0.625 0.035 0.574 0.113 c -0.086 0.145 -0.477 0.145 -0.918 0 m 2.27 0 c -0.047 -0.078 0.168 -0.121 0.574 -0.113 c 0.508 0.012 0.586 0.035 0.344 0.113 c -0.441 0.145 -0.832 0.145 -0.918 0" fill="#b72119"/></svg>