<svg xmlns="http://www.w3.org/2000/svg" viewBox="0 0 22 22"><g fill="#213655"><path d="m 4.59 1.297 c 32.773 -9.559 11.883 37.66 -2.781 13.977 c -2.68 -4.355 -2.867 -11.742 2.781 -13.977"/><path d="m 20.77 11 c 0 5.074 -4.375 9.191 -9.77 9.191 c -5.395 0 -9.77 -4.117 -9.77 -9.191 c 0 -5.074 4.375 -9.191 9.77 -9.191 c 5.395 0 9.77 4.117 9.77 9.191" fill-rule="evenodd"/></g><path d="m 11.11 3.578 c -1.07 0.023 -2.141 0.055 -2.203 1.289 c -1.156 3.03 -2.289 6.06 -3.449 9.08 c 0.211 0.129 0.313 0.32 0.523 0.445 c 0.133 0.156 0.27 0.305 0.461 0.434 c 0.109 0.176 0.336 0.289 0.445 0.465 c 0.215 0.129 0.309 0.32 0.523 0.445 c 0.109 0.18 0.336 0.293 0.445 0.469 c 0.215 0.129 0.313 0.32 0.527 0.445 c 0.109 0.176 0.336 0.289 0.445 0.469 c 0.215 0.129 0.309 0.316 0.523 0.445 c 0.137 0.285 -0.418 0.941 -0.035 1.074 c 0.156 0.094 0.273 0.207 0.359 0.336 c 0.219 0.125 0.309 0.316 0.527 0.441 c 0.105 0.184 0.34 0.289 0.445 0.473 c 0.145 0.082 0.234 0.195 0.344 0.301 c 0 0 0 0 0.004 0 c 4.945 0 9.04 -3.461 9.68 -7.949 c -1.09 -1.027 -2.172 -2.059 -3.242 -3.098 c -0.473 -0.387 -0.832 -1.023 -1.531 -1.02 c -0.137 -0.168 -0.348 -0.273 -0.449 -0.465 c -0.23 -0.102 -0.301 -0.324 -0.531 -0.426 c -0.094 -0.199 -0.348 -0.285 -0.441 -0.484 c -0.23 -0.105 -0.301 -0.324 -0.531 -0.43 c -0.094 -0.199 -0.344 -0.285 -0.438 -0.484 c -0.23 -0.105 -0.301 -0.324 -0.531 -0.426 c -0.094 -0.203 -0.348 -0.285 -0.441 -0.488 c -0.23 -0.102 -0.297 -0.324 -0.531 -0.426 c -0.09 -0.199 -0.344 -0.285 -0.438 -0.484 c -0.184 -0.113 -0.348 -0.266 -0.461 -0.434" fill-opacity="0.235"/><path d="m 9.336 3.754 c -1.305 3.395 -2.574 6.801 -3.875 10.195 c 0.082 0.023 0.164 0.016 0.25 0.016 c 0.477 0 0.953 0.004 1.426 0 c 0.066 0 0.059 -0.086 0.086 -0.125 c 0.57 -1.52 1.152 -3.03 1.727 -4.547 c 0.035 -0.094 0.074 -0.195 0.117 -0.281 c 0.301 0.004 0.594 -0.008 0.891 0 c -0.625 1.645 -1.246 3.297 -1.879 4.938 c 0.066 0.027 0.133 0.016 0.199 0.016 c 0.5 -0.004 0.996 0.008 1.496 0 c 0.563 -1.492 1.145 -2.988 1.711 -4.48 c 0.121 -0.305 0.125 -0.664 -0.066 -0.949 c -0.168 -0.246 -0.484 -0.383 -0.789 -0.395 c -0.414 -0.012 -0.824 0.008 -1.242 0 c 0.574 -1.523 1.16 -3.035 1.73 -4.563 c -1.777 0.176 -1.434 0.137 -1.781 0.176 m 3.711 4.355 c -0.012 0.027 -0.02 0.086 -0.035 0.109 c -1.293 3.414 -2.594 6.82 -3.891 10.23 c 1.637 0.223 0.457 0.07 1.641 0.223 c 0.566 -1.496 1.145 -2.988 1.715 -4.484 c 0.621 -0.012 1.238 -0.004 1.863 -0.016 c 0.395 -0.012 0.789 -0.238 0.922 -0.598 c 0.527 -1.395 1.051 -2.773 1.559 -4.168 c 0.086 -0.211 0.137 -0.441 0.07 -0.664 c -0.094 -0.281 -0.363 -0.492 -0.656 -0.566 c -0.254 -0.074 -0.508 -0.043 -0.77 -0.051 c -0.801 0 -1.621 -0.008 -2.418 -0.016 m 1.461 0.879 c 0.039 0 0.078 0.012 0.117 0.004 c 0.23 0.004 0.457 -0.004 0.688 0 c -0.539 1.441 -1.082 2.887 -1.613 4.328 c -0.297 0.02 -0.605 0.004 -0.906 0 c 0.547 -1.43 1.082 -2.863 1.629 -4.293 c 0.012 -0.016 0.035 -0.027 0.051 -0.035 c 0.012 0 0.023 -0.004 0.035 -0.004" fill="#fff"/></svg>