<svg xmlns="http://www.w3.org/2000/svg" viewBox="0 0 22 22"><path d="m 4.535 19.855 c 16.539 10.996 26.727 -24.07 5.344 -19.43 c -8.836 1.98 -14.199 14.387 -5.344 19.43" fill="#fc6"/><path d="m 6.367 15.996 c -0.098 -0.063 -0.105 -0.133 -0.043 -0.301 c 0.043 -0.117 0.855 -1.227 1.801 -2.465 c 0.945 -1.234 1.73 -2.281 1.75 -2.324 c 0.027 -0.074 -0.57 -0.879 -2.781 -3.754 c -0.449 -0.586 -0.816 -1.109 -0.816 -1.164 c 0 -0.262 0.219 -0.309 1.395 -0.309 c 1.402 0 1.223 -0.113 2.27 1.43 c 0.371 0.547 0.891 1.23 1.152 1.523 c 0.258 0.289 0.582 0.672 0.719 0.852 c 0.133 0.176 0.273 0.32 0.313 0.32 c 0.039 0 0.77 -0.902 1.621 -2.01 c 0.852 -1.105 1.609 -2.035 1.688 -2.063 c 0.18 -0.07 0.758 -0.07 0.934 -0.004 c 0.297 0.113 0.098 0.473 -1.207 2.184 c -0.742 0.969 -1.559 2.043 -1.816 2.387 l -0.473 0.625 l 1 1.309 c 0.551 0.719 1.348 1.754 1.773 2.297 c 0.805 1.031 0.965 1.34 0.762 1.469 c -0.066 0.043 -0.656 0.074 -1.305 0.078 c -1.406 0 -1.227 0.113 -2.313 -1.5 c -0.387 -0.57 -0.898 -1.246 -1.141 -1.508 c -0.242 -0.258 -0.551 -0.617 -0.688 -0.797 c -0.133 -0.18 -0.273 -0.316 -0.313 -0.301 c -0.039 0.012 -0.754 0.914 -1.59 2 c -0.832 1.086 -1.563 2 -1.613 2.039 c -0.141 0.09 -0.934 0.078 -1.082 -0.016 m 4.133 -7.762 c -0.086 -0.082 -0.098 -0.074 -0.051 0.047 c 0.035 0.086 0.082 0.133 0.109 0.109 c 0.027 -0.027 0 -0.098 -0.059 -0.156" fill="#d6aaa2"/><path d="m 6.395 15.863 c -0.047 -0.125 0.258 -0.547 2.695 -3.73 c 0.484 -0.633 0.883 -1.199 0.883 -1.262 c 0 -0.109 -1.023 -1.496 -2.609 -3.531 c -0.449 -0.574 -0.855 -1.121 -0.902 -1.211 c -0.164 -0.305 0.035 -0.363 1.219 -0.363 h 1.109 l 0.328 0.359 c 0.43 0.469 0.793 1.145 0.73 1.348 c -0.074 0.234 0.816 1.418 1.039 1.379 c 0.199 -0.035 0.309 0.043 0.676 0.496 c 0.293 0.355 0.391 0.543 0.363 0.691 c -0.039 0.195 -0.035 0.195 0.133 0.047 c 0.094 -0.082 0.734 -0.887 1.418 -1.785 c 1.938 -2.531 1.941 -2.535 2.367 -2.535 c 0.199 0 0.418 0.039 0.488 0.086 c 0.184 0.117 0.117 0.223 -1.832 2.766 c -0.93 1.211 -1.691 2.242 -1.691 2.285 c 0 0.098 1.133 1.621 2.57 3.457 c 0.57 0.73 1.031 1.391 1.016 1.461 c -0.02 0.105 -0.227 0.129 -1.266 0.129 h -1.242 l -0.453 -0.633 c -0.25 -0.352 -0.477 -0.738 -0.5 -0.859 c -0.121 -0.578 -0.773 -1.473 -1.078 -1.473 c -0.156 0 -1.023 -0.957 -1.023 -1.129 c 0 -0.047 0.043 -0.172 0.102 -0.273 c 0.25 -0.473 -0.301 0.188 -1.879 2.238 l -1.668 2.172 h -0.473 c -0.34 0 -0.484 -0.035 -0.52 -0.133" fill="#ec8770"/><path d="m 6.457 15.914 c -0.066 -0.043 -0.098 -0.129 -0.074 -0.191 c 0.027 -0.066 0.844 -1.16 1.82 -2.434 c 0.973 -1.27 1.77 -2.367 1.77 -2.43 c 0 -0.223 -1.191 -1.891 -1.891 -2.645 c -0.574 -0.621 -1.633 -2.055 -1.633 -2.211 c 0 -0.203 0.184 -0.238 1.305 -0.238 h 1.031 l 0.258 0.273 c 0.277 0.301 0.609 0.895 0.57 1.023 c -0.047 0.141 -0.652 -0.336 -0.77 -0.605 c -0.066 -0.145 -0.156 -0.262 -0.203 -0.262 c -0.168 0.004 -0.473 0.105 -0.473 0.16 c 0.004 0.031 0.219 0.211 0.484 0.398 c 0.266 0.188 0.691 0.586 0.945 0.879 c 0.254 0.297 0.68 0.793 0.945 1.105 c 0.313 0.363 0.508 0.527 0.547 0.461 c 0.16 -0.254 0.918 0.543 0.832 0.871 c -0.047 0.176 -0.043 0.176 0.129 0.023 c 0.098 -0.09 0.855 -1.043 1.684 -2.117 c 0.828 -1.078 1.582 -2.02 1.684 -2.086 c 0.203 -0.141 0.719 -0.164 0.914 -0.039 c 0.184 0.117 0.117 0.219 -1.844 2.781 l -1.703 2.223 l 0.129 0.27 c 0.184 0.379 1.379 2 1.82 2.461 c 0.402 0.426 1.43 1.742 1.578 2.027 c 0.172 0.324 -0.012 0.379 -1.238 0.379 h -1.133 l -0.254 -0.324 c -0.355 -0.449 -0.559 -0.871 -0.496 -1.027 c 0.09 -0.242 -1.141 -1.914 -1.41 -1.914 c -0.191 0 -0.543 -0.273 -0.785 -0.613 c -0.16 -0.223 -0.172 -0.293 -0.086 -0.48 c 0.094 -0.207 0.09 -0.215 -0.043 -0.105 c -0.078 0.066 -0.836 1.031 -1.688 2.141 c -0.852 1.113 -1.625 2.09 -1.719 2.172 c -0.184 0.164 -0.793 0.207 -1 0.074 m 5.105 -5.938 c 0.027 -0.047 0.012 -0.086 -0.039 -0.086 c -0.051 0 -0.09 0.039 -0.09 0.086 c 0 0.047 0.016 0.086 0.039 0.086 c 0.02 0 0.059 -0.039 0.09 -0.086 m 4.168 -3.691 c 0 -0.043 -0.039 -0.105 -0.086 -0.133 c -0.047 -0.031 -0.086 0.008 -0.086 0.082 c 0 0.07 0.039 0.133 0.086 0.133 c 0.047 0 0.086 -0.035 0.086 -0.082" fill="#f4694d"/><path d="m 6.457 15.914 c -0.066 -0.043 -0.098 -0.129 -0.074 -0.191 c 0.027 -0.066 0.844 -1.16 1.82 -2.434 c 0.973 -1.27 1.77 -2.371 1.766 -2.449 c 0 -0.074 -0.074 -0.23 -0.168 -0.348 c -0.094 -0.117 -0.168 -0.25 -0.172 -0.289 c 0 -0.039 -0.172 -0.32 -0.383 -0.625 c -0.211 -0.301 -0.363 -0.547 -0.336 -0.547 c 0.023 0 0.219 0.184 0.43 0.406 c 0.43 0.461 0.379 0.301 -0.191 -0.582 c -0.211 -0.324 -0.379 -0.621 -0.379 -0.668 c 0 -0.043 0.34 0.031 0.75 0.172 c 0.695 0.234 0.793 0.297 1.289 0.828 c 0.316 0.34 0.535 0.652 0.535 0.766 c 0.004 0.215 0.09 0.246 0.238 0.098 c 0.078 -0.078 0.059 -0.152 -0.066 -0.313 c -0.32 -0.406 -0.129 -0.516 0.23 -0.129 c 0.141 0.152 0.203 0.301 0.176 0.434 c -0.035 0.191 -0.031 0.191 0.137 0.043 c 0.094 -0.082 0.848 -1.035 1.676 -2.109 c 0.828 -1.078 1.586 -2.02 1.684 -2.086 c 0.203 -0.141 0.719 -0.164 0.914 -0.039 c 0.184 0.117 0.117 0.219 -1.848 2.785 l -1.707 2.227 l 0.203 0.395 c 0.113 0.215 0.375 0.645 0.582 0.945 c 0.207 0.305 0.395 0.633 0.414 0.727 c 0.039 0.219 0.18 0.359 0.555 0.559 c 0.277 0.148 1.48 1.574 1.758 2.082 c 0.199 0.371 0.051 0.422 -1.215 0.422 h -1.141 l -0.305 -0.398 c -0.313 -0.41 -0.371 -0.617 -0.215 -0.773 c 0.063 -0.063 -0.07 -0.309 -0.441 -0.813 c -0.719 -0.973 -1.398 -1.75 -1.434 -1.645 c -0.051 0.152 -0.359 0.008 -0.547 -0.254 c -0.156 -0.219 -0.168 -0.289 -0.082 -0.477 c 0.094 -0.203 0.09 -0.215 -0.043 -0.105 c -0.078 0.066 -0.836 1.031 -1.688 2.145 c -0.852 1.109 -1.625 2.09 -1.719 2.172 c -0.184 0.16 -0.793 0.203 -1 0.07 m 4.977 -4.047 c 0 -0.098 -0.059 -0.172 -0.129 -0.172 c -0.133 0 -0.176 0.18 -0.074 0.285 c 0.109 0.109 0.203 0.059 0.203 -0.113 m -0.816 -0.945 c 0 -0.063 -0.051 -0.133 -0.109 -0.152 c -0.063 -0.02 -0.105 0.039 -0.105 0.152 c 0 0.109 0.043 0.172 0.105 0.148 c 0.059 -0.02 0.109 -0.086 0.109 -0.148 m 4.633 -3.984 c 0.309 -0.371 0.543 -0.707 0.52 -0.75 c -0.082 -0.133 -0.297 -0.086 -0.297 0.059 c 0 0.078 -0.145 0.34 -0.32 0.582 c -0.641 0.891 -0.742 1.039 -0.609 0.914 c 0.078 -0.07 0.395 -0.434 0.707 -0.805 m -7.145 1.273 c -0.258 -0.18 -1.656 -2.043 -1.656 -2.207 c 0 -0.203 0.18 -0.238 1.305 -0.238 h 1.035 l 0.285 0.313 c 0.34 0.367 0.523 0.805 0.344 0.805 c -0.121 0 -0.648 -0.555 -0.648 -0.68 c 0 -0.082 -1.473 -0.02 -1.566 0.066 c -0.031 0.031 0.188 0.375 0.488 0.766 c 0.648 0.84 0.879 1.504 0.41 1.176" fill="#b0625f"/><path d="m 6.504 15.848 c -0.078 -0.078 0.02 -0.219 1.891 -2.668 c 0.914 -1.191 1.664 -2.23 1.664 -2.305 c 0 -0.07 -0.27 -0.516 -0.602 -0.988 c -0.328 -0.473 -0.578 -0.855 -0.551 -0.855 c 0.027 0 0.223 0.184 0.434 0.406 c 0.43 0.461 0.379 0.301 -0.191 -0.582 c -0.211 -0.324 -0.379 -0.621 -0.379 -0.668 c 0 -0.043 0.336 0.031 0.75 0.172 c 0.695 0.234 0.793 0.297 1.285 0.828 c 0.32 0.34 0.535 0.652 0.539 0.766 c 0.004 0.215 0.09 0.246 0.238 0.094 c 0.078 -0.074 0.059 -0.148 -0.066 -0.309 c -0.094 -0.121 -0.168 -0.25 -0.168 -0.289 c 0 -0.152 0.164 -0.066 0.34 0.18 c 0.156 0.215 0.168 0.289 0.082 0.453 c -0.117 0.223 -3.52 4.684 -4.098 5.371 c -0.348 0.414 -0.406 0.453 -0.742 0.453 c -0.203 0 -0.391 -0.027 -0.426 -0.059 m 4.113 -4.926 c 0 -0.063 -0.051 -0.133 -0.109 -0.152 c -0.063 -0.02 -0.105 0.039 -0.105 0.152 c 0 0.109 0.043 0.172 0.105 0.148 c 0.059 -0.02 0.109 -0.086 0.109 -0.148 m 3.059 4.574 c -0.371 -0.43 -0.41 -0.531 -0.262 -0.676 c 0.063 -0.063 -0.07 -0.309 -0.441 -0.813 c -0.738 -1 -1.398 -1.75 -1.438 -1.637 c -0.047 0.148 -0.34 -0.043 -0.48 -0.316 c -0.113 -0.219 -0.102 -0.258 0.148 -0.625 c 0.535 -0.773 3.914 -5.113 4.164 -5.348 c 0.203 -0.195 0.32 -0.238 0.582 -0.215 c 0.18 0.016 0.34 0.066 0.355 0.117 c 0.016 0.051 -0.781 1.152 -1.777 2.449 c -0.992 1.297 -1.805 2.406 -1.805 2.469 c 0 0.063 0.273 0.504 0.609 0.98 c 0.336 0.48 0.621 0.945 0.641 1.039 c 0.043 0.223 0.188 0.383 0.453 0.512 c 0.203 0.102 1.281 1.398 1.656 2 c 0.289 0.457 0.266 0.473 -0.949 0.473 h -1.109 m -2.59 -4.04 c 0 -0.098 -0.059 -0.172 -0.129 -0.172 c -0.133 0 -0.176 0.18 -0.07 0.285 c 0.105 0.109 0.199 0.059 0.199 -0.113 m 3.816 -4.93 c 0.313 -0.371 0.543 -0.707 0.52 -0.75 c -0.082 -0.133 -0.297 -0.086 -0.297 0.059 c 0 0.078 -0.145 0.34 -0.316 0.582 c -0.645 0.891 -0.742 1.039 -0.609 0.914 c 0.074 -0.07 0.391 -0.434 0.703 -0.805 m -7.551 0.703 c -0.906 -1.141 -1.207 -1.621 -1.066 -1.715 c 0.063 -0.039 0.578 -0.066 1.145 -0.055 l 1.023 0.023 l 0.383 0.469 c 0.234 0.289 0.344 0.48 0.277 0.504 c -0.121 0.039 -0.582 -0.379 -0.652 -0.59 c -0.039 -0.129 -0.141 -0.145 -0.793 -0.105 c -0.414 0.023 -0.777 0.066 -0.809 0.098 c -0.035 0.031 0.188 0.375 0.488 0.766 c 0.488 0.637 0.738 1.156 0.617 1.281 c -0.027 0.023 -0.301 -0.281 -0.613 -0.676" fill="#ef4c31"/><path d="m 6.504 15.848 c -0.078 -0.078 0.02 -0.219 1.891 -2.668 c 0.914 -1.191 1.664 -2.242 1.664 -2.328 c 0 -0.082 -0.051 -0.207 -0.109 -0.27 c -0.086 -0.09 -0.082 -0.105 0.016 -0.074 c 0.215 0.063 0.309 0.297 0.219 0.535 c -0.047 0.121 -0.797 1.148 -1.672 2.289 c -0.875 1.137 -1.645 2.141 -1.707 2.234 c -0.113 0.156 -0.098 0.168 0.191 0.168 c 0.25 0 0.344 -0.051 0.465 -0.238 c 0.309 -0.496 3.797 -4.973 4.063 -5.219 c 0.426 -0.391 0.281 -0.191 -1.668 2.363 c -2.559 3.352 -2.484 3.266 -2.926 3.266 c -0.203 0 -0.395 -0.027 -0.426 -0.059 m 7.324 -0.18 c -0.117 -0.129 -0.27 -0.309 -0.336 -0.398 c -0.117 -0.156 -0.113 -0.16 0.066 -0.063 c 0.105 0.059 0.258 0.199 0.336 0.32 c 0.141 0.215 0.148 0.215 1.246 0.191 c 0.84 -0.023 1.105 -0.004 1.105 0.078 c 0 0.082 -0.277 0.109 -1.102 0.109 c -1.094 0 -1.102 -0.004 -1.316 -0.238 m 2.141 -0.195 c -0.289 -0.172 -1.27 -1.574 -1.168 -1.676 c 0.031 -0.027 1.141 1.383 1.297 1.648 c 0.082 0.137 0.066 0.141 -0.129 0.023 m -3.102 -3.152 c -0.086 -0.02 -0.141 -0.078 -0.125 -0.129 c 0.055 -0.16 0.211 -0.164 0.273 -0.012 c 0.066 0.172 0.051 0.184 -0.148 0.141 m -1.809 -0.672 c 0.223 -0.363 4.03 -5.309 4.195 -5.445 c 0.27 -0.227 0.121 0.082 -0.32 0.66 c -2.02 2.648 -3.535 4.578 -3.762 4.793 l -0.273 0.258 l 0.16 -0.262 m 1.594 -0.488 c -0.055 -0.055 -0.102 -0.172 -0.102 -0.254 c 0 -0.082 0.777 -1.184 1.727 -2.441 c 1.754 -2.324 1.813 -2.437 1.328 -2.441 c -0.117 0 -0.141 -0.027 -0.074 -0.094 c 0.145 -0.145 0.758 -0.063 0.746 0.102 c -0.004 0.074 -0.762 1.117 -1.684 2.32 c -2.027 2.645 -1.945 2.52 -1.805 2.742 c 0.117 0.188 0.027 0.23 -0.137 0.066 m -0.914 -1.332 c -0.047 -0.121 -0.035 -0.133 0.051 -0.047 c 0.059 0.059 0.082 0.129 0.059 0.152 c -0.027 0.027 -0.078 -0.02 -0.109 -0.105 m -4.41 -2.664 c -0.344 -0.453 -0.602 -0.848 -0.57 -0.875 c 0.109 -0.109 1.285 1.441 1.227 1.613 c -0.02 0.047 -0.313 -0.285 -0.656 -0.738 m 1.625 -0.84 l -0.273 -0.301 h -0.988 c -0.711 0 -0.984 0.027 -0.984 0.102 c 0 0.078 -0.027 0.078 -0.109 -0.004 c -0.195 -0.195 0.113 -0.27 1.145 -0.27 c 1.078 0 1.059 -0.008 1.535 0.621 c 0.207 0.273 -0.047 0.156 -0.324 -0.148" fill="#af1e19"/></svg>