<svg xmlns="http://www.w3.org/2000/svg" viewBox="0 0 22 22"><path d="m 0.195 10.977 c -1.652 -14.586 22 -14.387 21.723 0.258 c 0.781 13.621 -23.01 14.852 -21.723 -0.258" fill="#4581b3"/><path d="m 15.316 17.266 c -0.039 -0.035 -0.066 -0.207 -0.066 -0.41 v -0.348 h -4.617 c -4.527 0 -4.617 -0.004 -4.758 -0.102 c -0.082 -0.059 -0.242 -0.121 -0.363 -0.145 c -0.168 -0.031 -0.223 -0.066 -0.238 -0.156 c -0.008 -0.066 -0.078 -0.137 -0.156 -0.164 c -0.074 -0.027 -0.137 -0.082 -0.137 -0.125 c 0 -0.047 -0.059 -0.102 -0.133 -0.129 c -0.098 -0.031 -0.148 -0.102 -0.176 -0.238 c -0.023 -0.109 -0.102 -0.246 -0.18 -0.309 l -0.137 -0.117 v -3.02 c 0 -2.281 0.02 -3.035 0.07 -3.082 c 0.098 -0.09 1.313 -0.082 1.398 0.008 c 0.043 0.047 0.066 0.941 0.078 2.914 l 0.016 2.844 l 0.223 0.207 l 0.227 0.203 l 4.441 0.012 l 4.438 0.016 v -0.355 c 0 -0.238 0.027 -0.371 0.078 -0.41 c 0.109 -0.082 0.262 -0.02 0.262 0.105 c 0 0.059 0.051 0.113 0.121 0.129 c 0.063 0.016 0.141 0.082 0.168 0.148 c 0.027 0.07 0.09 0.125 0.137 0.125 c 0.051 0 0.113 0.055 0.141 0.121 c 0.031 0.074 0.109 0.133 0.184 0.141 c 0.086 0.012 0.137 0.059 0.148 0.137 c 0.012 0.066 0.078 0.137 0.148 0.164 c 0.074 0.023 0.145 0.09 0.16 0.148 c 0.02 0.059 0.07 0.109 0.117 0.109 c 0.184 0 0.16 0.207 -0.031 0.27 c -0.055 0.02 -0.102 0.082 -0.102 0.141 c 0 0.063 -0.051 0.121 -0.133 0.152 c -0.074 0.023 -0.148 0.094 -0.164 0.152 c -0.02 0.063 -0.078 0.105 -0.152 0.105 c -0.074 0 -0.137 0.047 -0.172 0.121 c -0.027 0.066 -0.102 0.133 -0.168 0.148 c -0.07 0.02 -0.117 0.07 -0.117 0.137 c 0 0.07 -0.051 0.129 -0.141 0.156 c -0.078 0.027 -0.145 0.082 -0.145 0.125 c 0 0.039 -0.039 0.086 -0.09 0.102 c -0.113 0.039 -0.102 0.043 -0.18 -0.031 m -7.43 -3.516 c -0.074 -0.012 -0.148 -0.059 -0.168 -0.105 c -0.043 -0.094 -0.387 -0.422 -0.445 -0.422 c -0.023 0 -0.133 -0.086 -0.246 -0.191 l -0.203 -0.188 v -4.52 l 0.484 -0.02 c 0.262 -0.008 0.59 0 0.723 0.02 l 0.238 0.031 l 0.004 1.832 c 0 1.297 0.023 1.91 0.074 2.113 l 0.074 0.281 l 0.32 0.016 c 0.301 0.016 0.332 0.004 0.52 -0.164 l 0.199 -0.184 v -1.918 c 0 -1.578 0.016 -1.93 0.082 -1.98 c 0.051 -0.039 0.309 -0.055 0.777 -0.043 l 0.695 0.016 l 0.063 0.219 c 0.031 0.125 0.102 0.246 0.156 0.273 c 0.055 0.027 0.102 0.082 0.102 0.125 c 0 0.043 0.047 0.113 0.109 0.16 c 0.063 0.047 0.141 0.195 0.18 0.324 c 0.043 0.152 0.109 0.258 0.18 0.285 c 0.066 0.027 0.145 0.117 0.18 0.203 c 0.031 0.086 0.117 0.207 0.188 0.27 c 0.082 0.078 0.125 0.176 0.125 0.297 c 0 0.156 0.027 0.191 0.203 0.266 c 0.309 0.133 0.387 0.059 0.422 -0.402 l 0.027 -0.379 l 0.641 -0.016 l 0.641 -0.012 l 0.055 0.133 c 0.035 0.082 0.051 0.816 0.043 1.914 l -0.016 1.777 l -0.672 0.016 c -0.754 0.016 -0.832 -0.012 -0.832 -0.277 c 0 -0.141 -0.027 -0.188 -0.137 -0.223 c -0.074 -0.027 -0.156 -0.102 -0.18 -0.168 c -0.02 -0.063 -0.086 -0.145 -0.137 -0.18 c -0.055 -0.035 -0.117 -0.145 -0.137 -0.242 c -0.023 -0.102 -0.086 -0.203 -0.145 -0.234 c -0.07 -0.031 -0.121 -0.133 -0.148 -0.285 c -0.023 -0.148 -0.074 -0.246 -0.129 -0.266 c -0.133 -0.043 -0.52 -0.418 -0.52 -0.504 c 0 -0.043 -0.047 -0.074 -0.105 -0.074 c -0.125 0 -0.176 0.207 -0.176 0.711 c -0.004 0.277 -0.02 0.328 -0.109 0.352 c -0.109 0.027 -0.176 0.156 -0.176 0.359 c 0 0.063 -0.047 0.145 -0.105 0.18 c -0.059 0.035 -0.121 0.117 -0.145 0.176 c -0.02 0.059 -0.102 0.133 -0.176 0.164 c -0.078 0.031 -0.141 0.082 -0.141 0.113 c 0 0.031 -0.078 0.078 -0.168 0.109 c -0.105 0.031 -0.172 0.094 -0.184 0.164 c -0.02 0.105 -0.043 0.109 -0.898 0.117 c -0.484 0.004 -0.938 -0.004 -1.01 -0.016 m 1.395 -0.176 c 0.039 -0.059 0.16 -0.141 0.27 -0.18 c 0.105 -0.039 0.195 -0.105 0.195 -0.148 c 0 -0.043 0.078 -0.086 0.195 -0.105 c 0.246 -0.043 0.359 -0.156 0.383 -0.383 c 0.012 -0.141 0.043 -0.184 0.145 -0.195 c 0.125 -0.016 0.129 -0.027 0.129 -0.801 c 0 -0.77 0 -0.785 0.141 -0.902 c 0.129 -0.109 0.148 -0.113 0.242 -0.039 c 0.055 0.043 0.176 0.09 0.27 0.098 c 0.148 0.016 0.172 0.039 0.188 0.203 c 0.012 0.117 0.066 0.23 0.156 0.305 c 0.074 0.066 0.137 0.16 0.137 0.207 c 0 0.063 0.051 0.098 0.156 0.109 c 0.125 0.012 0.16 0.043 0.176 0.16 c 0.012 0.09 0.059 0.156 0.121 0.172 c 0.105 0.027 0.168 0.16 0.172 0.359 c 0 0.074 0.039 0.117 0.129 0.129 c 0.109 0.012 0.129 0.051 0.145 0.281 c 0.016 0.246 0.027 0.27 0.168 0.281 c 0.145 0.016 0.156 0.035 0.172 0.285 l 0.016 0.27 h 0.621 c 0.57 0 0.621 -0.008 0.621 -0.094 c 0 -0.055 -0.039 -0.125 -0.086 -0.16 c -0.07 -0.055 -0.082 -0.297 -0.082 -1.598 v -1.535 h -0.797 v 0.426 c 0 0.23 -0.016 0.473 -0.035 0.535 c -0.059 0.199 -0.387 0.191 -0.441 -0.012 c -0.023 -0.082 -0.082 -0.125 -0.188 -0.137 c -0.113 -0.012 -0.164 -0.051 -0.176 -0.129 c -0.012 -0.07 -0.063 -0.117 -0.141 -0.129 c -0.105 -0.012 -0.129 -0.051 -0.141 -0.281 c -0.016 -0.23 -0.035 -0.27 -0.145 -0.281 c -0.078 -0.012 -0.129 -0.059 -0.141 -0.129 c -0.012 -0.078 -0.063 -0.117 -0.172 -0.129 c -0.141 -0.016 -0.152 -0.035 -0.168 -0.281 c -0.016 -0.23 -0.035 -0.27 -0.141 -0.281 c -0.09 -0.012 -0.133 -0.059 -0.145 -0.16 c -0.012 -0.082 -0.051 -0.141 -0.102 -0.141 c -0.113 0 -0.191 -0.211 -0.191 -0.516 v -0.254 h -1.305 l -0.016 2.039 l -0.012 2.043 l -0.125 0.016 c -0.078 0.008 -0.133 0.059 -0.141 0.125 c -0.02 0.109 -0.047 0.113 -0.559 0.113 h -0.539 l -0.016 -0.137 c -0.016 -0.098 -0.059 -0.145 -0.141 -0.152 c -0.074 -0.012 -0.137 -0.07 -0.16 -0.145 c -0.023 -0.07 -0.043 -0.98 -0.047 -2.02 l -0.004 -1.887 h -0.965 v 3.895 l 0.129 0.016 c 0.109 0.016 0.129 0.051 0.145 0.281 c 0.016 0.246 0.027 0.27 0.168 0.285 c 0.109 0.008 0.16 0.047 0.172 0.125 c 0.012 0.07 0.063 0.121 0.141 0.129 c 0.078 0.012 0.133 0.059 0.145 0.133 c 0.012 0.086 0.055 0.113 0.168 0.117 c 0.266 0 0.398 0.055 0.434 0.184 c 0.031 0.113 0.059 0.121 0.414 0.121 c 0.328 0 0.395 -0.016 0.457 -0.105 m 6.375 -0.418 c -0.051 -0.047 -0.066 -0.77 -0.066 -2.938 c 0 -3 0 -3 -0.238 -3 c -0.063 0 -0.102 -0.039 -0.102 -0.094 c 0 -0.219 0.063 -0.215 -4.609 -0.215 h -4.469 v 0.355 c 0 0.223 -0.027 0.371 -0.07 0.406 c -0.086 0.063 -0.176 0.02 -0.23 -0.105 c -0.02 -0.051 -0.074 -0.09 -0.125 -0.09 c -0.047 0 -0.109 -0.059 -0.141 -0.125 c -0.027 -0.074 -0.105 -0.133 -0.18 -0.141 c -0.09 -0.012 -0.141 -0.059 -0.152 -0.137 c -0.008 -0.066 -0.074 -0.137 -0.156 -0.164 c -0.074 -0.027 -0.137 -0.082 -0.137 -0.129 c 0 -0.043 -0.059 -0.098 -0.133 -0.125 c -0.074 -0.023 -0.148 -0.094 -0.164 -0.152 c -0.02 -0.063 -0.078 -0.105 -0.145 -0.105 c -0.063 0 -0.129 -0.035 -0.145 -0.078 c -0.051 -0.117 0.02 -0.23 0.145 -0.23 c 0.066 0 0.125 -0.043 0.145 -0.105 c 0.016 -0.059 0.09 -0.129 0.164 -0.152 c 0.074 -0.027 0.133 -0.082 0.133 -0.129 c 0 -0.043 0.063 -0.098 0.137 -0.125 c 0.082 -0.027 0.148 -0.098 0.156 -0.164 c 0.012 -0.078 0.063 -0.125 0.152 -0.137 c 0.074 -0.008 0.152 -0.07 0.18 -0.141 c 0.031 -0.07 0.094 -0.125 0.141 -0.125 c 0.051 0 0.105 -0.039 0.125 -0.09 c 0.055 -0.129 0.145 -0.168 0.23 -0.105 c 0.043 0.035 0.07 0.184 0.07 0.406 v 0.355 h 9.348 l 0.094 0.125 c 0.066 0.098 0.141 0.129 0.289 0.129 c 0.16 0 0.211 0.027 0.25 0.125 c 0.031 0.074 0.109 0.133 0.184 0.141 c 0.086 0.012 0.137 0.059 0.148 0.137 c 0.012 0.066 0.078 0.137 0.156 0.164 c 0.109 0.039 0.141 0.086 0.141 0.227 c 0 0.137 0.035 0.203 0.141 0.266 l 0.141 0.082 v 3.066 c 0 2.313 -0.016 3.074 -0.066 3.121 c -0.047 0.043 -0.277 0.063 -0.672 0.063 c -0.391 0 -0.625 -0.02 -0.668 -0.063 m -2.695 -3.516 c -0.016 -0.023 -0.035 -0.328 -0.047 -0.68 l -0.02 -0.645 h 1.418 v 0.594 c 0 0.324 -0.02 0.629 -0.039 0.68 c -0.035 0.078 -0.125 0.09 -0.664 0.09 c -0.344 0 -0.637 -0.02 -0.648 -0.039 m 1.266 -0.445 c 0 -0.039 -0.039 -0.098 -0.086 -0.133 c -0.047 -0.035 -0.082 -0.141 -0.082 -0.23 c 0 -0.094 0.035 -0.195 0.082 -0.23 c 0.047 -0.035 0.086 -0.098 0.086 -0.137 c 0 -0.055 -0.109 -0.07 -0.48 -0.07 h -0.484 v 0.875 h 0.484 c 0.371 0 0.48 -0.02 0.48 -0.074" fill="#fd0a0a"/><path d="m 7.887 13.75 c -0.074 -0.012 -0.148 -0.059 -0.168 -0.105 c -0.043 -0.098 -0.387 -0.422 -0.445 -0.422 c -0.023 0 -0.133 -0.086 -0.246 -0.191 l -0.203 -0.188 v -4.523 l 0.484 -0.016 c 0.262 -0.008 0.59 0 0.723 0.016 l 0.238 0.035 l 0.004 1.828 c 0 1.301 0.023 1.914 0.074 2.117 l 0.074 0.281 l 0.32 0.016 c 0.301 0.012 0.332 0.004 0.52 -0.164 l 0.199 -0.184 v -1.918 c 0 -1.578 0.016 -1.93 0.082 -1.98 c 0.051 -0.039 0.309 -0.055 0.777 -0.043 l 0.695 0.012 l 0.063 0.223 c 0.031 0.121 0.102 0.246 0.156 0.273 c 0.055 0.027 0.102 0.082 0.102 0.125 c 0 0.039 0.047 0.113 0.109 0.16 c 0.063 0.047 0.141 0.191 0.18 0.324 c 0.043 0.152 0.109 0.254 0.18 0.285 c 0.066 0.027 0.145 0.117 0.18 0.203 c 0.031 0.086 0.117 0.207 0.188 0.27 c 0.082 0.074 0.125 0.176 0.125 0.293 c 0 0.156 0.027 0.195 0.203 0.27 c 0.309 0.133 0.387 0.059 0.422 -0.402 l 0.027 -0.379 l 1.281 -0.031 l 0.055 0.137 c 0.035 0.082 0.051 0.816 0.043 1.914 l -0.016 1.777 l -0.672 0.016 c -0.754 0.016 -0.832 -0.012 -0.832 -0.281 c 0 -0.137 -0.027 -0.184 -0.137 -0.219 c -0.074 -0.027 -0.156 -0.102 -0.18 -0.168 c -0.02 -0.063 -0.086 -0.145 -0.137 -0.18 c -0.055 -0.035 -0.117 -0.145 -0.137 -0.242 c -0.023 -0.102 -0.086 -0.207 -0.145 -0.234 c -0.07 -0.035 -0.121 -0.133 -0.148 -0.285 c -0.023 -0.148 -0.074 -0.246 -0.129 -0.266 c -0.133 -0.043 -0.52 -0.418 -0.52 -0.504 c 0 -0.043 -0.047 -0.074 -0.105 -0.074 c -0.125 0 -0.176 0.207 -0.176 0.711 c -0.004 0.277 -0.02 0.328 -0.109 0.352 c -0.109 0.023 -0.176 0.156 -0.176 0.359 c 0 0.063 -0.047 0.141 -0.105 0.18 c -0.059 0.035 -0.121 0.113 -0.145 0.176 c -0.02 0.059 -0.102 0.133 -0.176 0.164 c -0.078 0.031 -0.141 0.082 -0.141 0.113 c 0 0.031 -0.078 0.078 -0.168 0.109 c -0.105 0.031 -0.172 0.094 -0.184 0.164 c -0.02 0.105 -0.043 0.109 -0.898 0.117 c -0.484 0.004 -0.938 -0.004 -1.01 -0.02 m 1.395 -0.172 c 0.039 -0.059 0.16 -0.141 0.27 -0.18 c 0.105 -0.043 0.195 -0.109 0.195 -0.148 c 0 -0.043 0.078 -0.086 0.195 -0.105 c 0.246 -0.043 0.359 -0.156 0.383 -0.383 c 0.012 -0.141 0.043 -0.184 0.145 -0.195 c 0.125 -0.02 0.129 -0.027 0.129 -0.801 c 0 -0.77 0 -0.785 0.141 -0.902 c 0.129 -0.109 0.148 -0.113 0.242 -0.039 c 0.055 0.043 0.176 0.09 0.27 0.098 c 0.148 0.016 0.172 0.039 0.188 0.203 c 0.012 0.117 0.066 0.23 0.156 0.305 c 0.074 0.063 0.137 0.156 0.137 0.207 c 0 0.063 0.051 0.098 0.156 0.105 c 0.125 0.016 0.16 0.047 0.176 0.164 c 0.012 0.09 0.059 0.156 0.121 0.172 c 0.105 0.023 0.168 0.156 0.172 0.359 c 0 0.074 0.039 0.117 0.129 0.129 c 0.109 0.012 0.129 0.051 0.145 0.281 c 0.016 0.246 0.027 0.266 0.168 0.281 c 0.145 0.016 0.156 0.035 0.172 0.285 l 0.016 0.27 h 0.621 c 0.57 0 0.621 -0.008 0.621 -0.094 c 0 -0.055 -0.039 -0.125 -0.086 -0.16 c -0.07 -0.055 -0.082 -0.297 -0.082 -1.598 v -1.535 h -0.797 v 0.426 c 0 0.23 -0.016 0.473 -0.035 0.535 c -0.059 0.199 -0.387 0.188 -0.441 -0.012 c -0.023 -0.082 -0.082 -0.125 -0.188 -0.137 c -0.113 -0.012 -0.164 -0.051 -0.176 -0.129 c -0.012 -0.07 -0.063 -0.117 -0.141 -0.129 c -0.105 -0.012 -0.129 -0.051 -0.141 -0.281 c -0.016 -0.23 -0.035 -0.27 -0.145 -0.281 c -0.078 -0.012 -0.129 -0.059 -0.141 -0.129 c -0.012 -0.078 -0.063 -0.117 -0.172 -0.129 c -0.141 -0.016 -0.152 -0.035 -0.168 -0.281 c -0.016 -0.23 -0.035 -0.27 -0.141 -0.285 c -0.09 -0.008 -0.133 -0.055 -0.145 -0.156 c -0.012 -0.082 -0.051 -0.141 -0.102 -0.141 c -0.113 0 -0.191 -0.215 -0.191 -0.516 v -0.254 h -1.305 l -0.016 2.039 l -0.012 2.039 l -0.125 0.02 c -0.078 0.008 -0.133 0.055 -0.141 0.125 c -0.02 0.109 -0.047 0.113 -0.559 0.113 h -0.539 l -0.016 -0.137 c -0.016 -0.098 -0.059 -0.145 -0.141 -0.156 c -0.074 -0.008 -0.137 -0.066 -0.16 -0.145 c -0.023 -0.07 -0.043 -0.977 -0.047 -2.01 l -0.004 -1.887 h -0.965 v 3.895 l 0.129 0.016 c 0.109 0.012 0.129 0.051 0.145 0.281 c 0.016 0.246 0.027 0.27 0.168 0.281 c 0.109 0.012 0.16 0.051 0.172 0.129 c 0.012 0.07 0.063 0.121 0.141 0.129 c 0.078 0.012 0.133 0.059 0.145 0.133 c 0.012 0.086 0.055 0.113 0.168 0.117 c 0.266 0 0.398 0.055 0.434 0.184 c 0.031 0.113 0.059 0.121 0.414 0.121 c 0.328 0 0.395 -0.016 0.457 -0.105 m 6.375 -0.418 c -0.051 -0.047 -0.066 -0.77 -0.066 -2.941 c 0 -3 0 -3 -0.238 -3 c -0.063 0 -0.102 -0.039 -0.102 -0.094 c 0 -0.219 0.063 -0.215 -4.609 -0.215 h -4.469 v 0.352 c 0 0.227 -0.027 0.375 -0.07 0.41 c -0.086 0.063 -0.176 0.02 -0.23 -0.105 c -0.02 -0.051 -0.074 -0.09 -0.125 -0.09 c -0.047 0 -0.109 -0.059 -0.141 -0.125 c -0.027 -0.074 -0.105 -0.133 -0.18 -0.141 c -0.09 -0.012 -0.141 -0.059 -0.152 -0.137 c -0.008 -0.066 -0.074 -0.137 -0.156 -0.164 c -0.074 -0.027 -0.137 -0.086 -0.137 -0.129 c 0 -0.043 -0.059 -0.098 -0.133 -0.125 c -0.074 -0.023 -0.148 -0.094 -0.164 -0.152 c -0.02 -0.063 -0.078 -0.105 -0.145 -0.105 c -0.063 0 -0.129 -0.035 -0.145 -0.078 c -0.051 -0.117 0.02 -0.23 0.145 -0.23 c 0.066 0 0.125 -0.043 0.145 -0.105 c 0.016 -0.059 0.09 -0.129 0.164 -0.156 c 0.074 -0.023 0.133 -0.078 0.133 -0.125 c 0 -0.043 0.063 -0.098 0.137 -0.125 c 0.082 -0.027 0.148 -0.098 0.156 -0.168 c 0.012 -0.074 0.063 -0.121 0.152 -0.133 c 0.074 -0.012 0.152 -0.07 0.18 -0.141 c 0.031 -0.07 0.094 -0.125 0.141 -0.125 c 0.051 0 0.105 -0.039 0.125 -0.09 c 0.055 -0.129 0.145 -0.172 0.23 -0.105 c 0.043 0.035 0.07 0.184 0.07 0.406 v 0.355 h 9.348 l 0.094 0.125 c 0.066 0.098 0.141 0.129 0.289 0.129 c 0.16 0 0.211 0.027 0.25 0.125 c 0.031 0.07 0.109 0.133 0.184 0.141 c 0.086 0.012 0.137 0.059 0.148 0.137 c 0.012 0.066 0.078 0.137 0.156 0.164 c 0.109 0.039 0.141 0.086 0.141 0.227 c 0 0.137 0.035 0.203 0.141 0.266 l 0.141 0.082 v 3.063 c 0 2.316 -0.016 3.078 -0.066 3.125 c -0.047 0.043 -0.277 0.063 -0.672 0.063 c -0.391 0 -0.625 -0.02 -0.668 -0.063 m -2.695 -3.516 c -0.016 -0.023 -0.035 -0.328 -0.047 -0.68 l -0.02 -0.645 h 1.418 v 0.59 c 0 0.328 -0.02 0.633 -0.039 0.68 c -0.035 0.078 -0.125 0.09 -0.664 0.09 c -0.344 0 -0.637 -0.016 -0.648 -0.035 m 1.266 -0.445 c 0 -0.039 -0.039 -0.098 -0.086 -0.133 c -0.047 -0.035 -0.082 -0.141 -0.082 -0.23 c 0 -0.094 0.035 -0.195 0.082 -0.23 c 0.047 -0.035 0.086 -0.098 0.086 -0.137 c 0 -0.055 -0.109 -0.07 -0.48 -0.07 h -0.484 v 0.871 h 0.484 c 0.371 0 0.48 -0.016 0.48 -0.07" fill="#090afd"/><g fill-rule="evenodd"><path d="m 8.03 13.738 l -0.207 -0.02 l -0.188 -0.203 c -0.102 -0.113 -0.234 -0.238 -0.301 -0.277 c -0.063 -0.035 -0.199 -0.145 -0.305 -0.234 l -0.191 -0.164 v -4.512 h 0.563 c 0.313 0 0.629 0.008 0.707 0.02 l 0.145 0.02 v 0.973 c 0.004 1.609 0.043 2.813 0.105 3.047 l 0.051 0.203 l 0.266 0.016 c 0.328 0.023 0.449 -0.016 0.648 -0.195 l 0.152 -0.133 l 0.004 -1.723 c 0.004 -1.59 0.023 -2.137 0.078 -2.191 c 0.012 -0.012 0.34 -0.023 0.734 -0.027 l 0.715 -0.012 l 0.051 0.188 c 0.031 0.121 0.09 0.227 0.156 0.305 c 0.063 0.066 0.109 0.129 0.109 0.141 c 0 0.012 0.047 0.078 0.102 0.148 c 0.059 0.07 0.141 0.219 0.188 0.328 c 0.051 0.121 0.133 0.25 0.211 0.324 c 0.07 0.07 0.168 0.188 0.215 0.262 c 0.047 0.074 0.117 0.18 0.156 0.234 c 0.043 0.055 0.082 0.168 0.094 0.254 c 0.02 0.156 0.023 0.16 0.18 0.234 c 0.191 0.086 0.301 0.094 0.371 0.02 c 0.055 -0.059 0.113 -0.371 0.113 -0.609 v -0.156 l 0.281 -0.02 c 0.152 -0.012 0.441 -0.02 0.641 -0.02 h 0.363 l 0.031 0.156 c 0.023 0.098 0.035 0.758 0.035 1.887 v 1.73 l -0.102 0.02 c -0.059 0.012 -0.363 0.016 -0.68 0.012 c -0.563 -0.012 -0.578 -0.012 -0.637 -0.086 c -0.031 -0.039 -0.059 -0.117 -0.059 -0.18 c 0 -0.082 -0.02 -0.125 -0.094 -0.188 c -0.23 -0.199 -0.41 -0.422 -0.508 -0.645 c -0.039 -0.094 -0.105 -0.199 -0.148 -0.234 c -0.043 -0.043 -0.102 -0.16 -0.137 -0.285 c -0.059 -0.199 -0.078 -0.223 -0.219 -0.316 c -0.164 -0.105 -0.43 -0.379 -0.43 -0.445 c 0 -0.02 -0.02 -0.047 -0.047 -0.055 c -0.176 -0.066 -0.234 0.066 -0.254 0.563 l -0.016 0.383 l -0.117 0.109 c -0.094 0.086 -0.125 0.141 -0.148 0.273 c -0.023 0.125 -0.063 0.195 -0.172 0.316 c -0.074 0.086 -0.137 0.164 -0.137 0.18 c 0 0.012 -0.051 0.055 -0.113 0.094 c -0.066 0.039 -0.129 0.09 -0.141 0.109 c -0.016 0.023 -0.094 0.078 -0.176 0.117 c -0.09 0.047 -0.168 0.113 -0.191 0.16 c -0.039 0.082 -0.051 0.086 -0.348 0.105 c -0.375 0.023 -1.125 0.023 -1.402 0 m 1.273 -0.148 c 0.055 -0.051 0.168 -0.129 0.258 -0.172 c 0.086 -0.043 0.176 -0.113 0.203 -0.152 c 0.027 -0.047 0.102 -0.086 0.203 -0.109 c 0.254 -0.066 0.316 -0.141 0.387 -0.445 c 0.012 -0.059 0.051 -0.102 0.121 -0.129 c 0.133 -0.055 0.141 -0.098 0.141 -0.855 c 0 -0.676 0.02 -0.766 0.188 -0.887 c 0.074 -0.055 0.078 -0.055 0.199 0.004 c 0.066 0.035 0.184 0.078 0.258 0.102 c 0.129 0.039 0.137 0.047 0.172 0.195 c 0.02 0.102 0.074 0.211 0.145 0.293 c 0.063 0.074 0.125 0.172 0.141 0.215 c 0.023 0.059 0.066 0.09 0.168 0.113 c 0.121 0.031 0.137 0.047 0.172 0.156 c 0.023 0.082 0.066 0.145 0.129 0.18 c 0.086 0.051 0.137 0.16 0.156 0.348 c 0.008 0.055 0.043 0.09 0.125 0.129 c 0.121 0.059 0.133 0.082 0.156 0.344 c 0.016 0.164 0.07 0.234 0.195 0.234 c 0.086 0 0.133 0.082 0.133 0.238 c 0 0.066 0.008 0.164 0.02 0.219 l 0.02 0.094 l 0.539 -0.004 c 0.297 0 0.578 -0.012 0.617 -0.023 c 0.105 -0.027 0.113 -0.113 0.027 -0.23 l -0.07 -0.094 l -0.012 -1.531 l -0.008 -1.527 h -0.816 l -0.02 0.465 c -0.023 0.551 -0.047 0.609 -0.238 0.609 c -0.105 0 -0.129 -0.012 -0.199 -0.121 c -0.047 -0.078 -0.105 -0.129 -0.16 -0.141 c -0.129 -0.027 -0.172 -0.059 -0.219 -0.148 c -0.023 -0.047 -0.082 -0.098 -0.133 -0.117 c -0.102 -0.035 -0.148 -0.129 -0.148 -0.305 c 0 -0.16 -0.039 -0.227 -0.152 -0.27 c -0.051 -0.016 -0.102 -0.055 -0.113 -0.086 c -0.035 -0.094 -0.109 -0.164 -0.184 -0.164 c -0.105 0 -0.164 -0.078 -0.164 -0.227 c 0 -0.203 -0.051 -0.316 -0.152 -0.34 c -0.066 -0.016 -0.098 -0.051 -0.137 -0.148 c -0.027 -0.074 -0.078 -0.141 -0.117 -0.16 c -0.105 -0.047 -0.156 -0.188 -0.172 -0.484 l -0.012 -0.266 h -1.305 l -0.02 0.344 c -0.012 0.191 -0.02 1.109 -0.023 2.043 v 1.695 h -0.066 c -0.09 0 -0.207 0.082 -0.207 0.141 c 0 0.086 -0.125 0.105 -0.594 0.105 h -0.477 l -0.02 -0.121 c -0.016 -0.109 -0.035 -0.129 -0.137 -0.172 c -0.066 -0.027 -0.133 -0.07 -0.145 -0.102 c -0.023 -0.059 -0.07 -2.059 -0.074 -3.16 v -0.777 h -0.984 v 3.934 h 0.09 c 0.121 0 0.16 0.059 0.18 0.266 c 0.023 0.23 0.039 0.262 0.184 0.301 c 0.078 0.023 0.129 0.063 0.156 0.121 c 0.023 0.047 0.09 0.105 0.148 0.129 c 0.063 0.027 0.117 0.078 0.137 0.129 c 0.043 0.109 0.078 0.129 0.238 0.129 c 0.168 0 0.324 0.074 0.371 0.172 c 0.051 0.113 0.137 0.137 0.484 0.129 c 0.305 -0.008 0.316 -0.012 0.418 -0.105"/><path d="m 13.246 9.656 c -0.223 -0.012 -0.242 -0.016 -0.27 -0.086 c -0.016 -0.043 -0.035 -0.34 -0.047 -0.66 l -0.023 -0.582 h 1.395 v 0.441 c 0 0.57 -0.027 0.813 -0.09 0.844 c -0.059 0.031 -0.641 0.059 -0.965 0.043 m 0.922 -0.395 c 0.09 -0.027 0.09 -0.09 -0.008 -0.203 c -0.055 -0.066 -0.074 -0.129 -0.074 -0.227 c 0 -0.098 0.02 -0.156 0.074 -0.223 c 0.098 -0.113 0.098 -0.176 0.008 -0.203 c -0.035 -0.008 -0.258 -0.016 -0.492 -0.016 l -0.422 -0.004 v 0.895 l 0.422 -0.004 c 0.234 0 0.457 -0.008 0.492 -0.016"/><path d="m 13.285 8.836 v -0.418 l 0.426 0.004 c 0.23 0 0.438 0.012 0.461 0.023 c 0.031 0.02 0.023 0.051 -0.039 0.145 c -0.105 0.156 -0.105 0.332 0 0.492 c 0.063 0.09 0.07 0.121 0.039 0.141 c -0.023 0.016 -0.23 0.027 -0.461 0.027 h -0.426"/><path d="m 8.52 13.648 c -0.027 -0.012 -0.086 -0.07 -0.125 -0.129 c -0.074 -0.113 -0.152 -0.145 -0.34 -0.152 c -0.152 -0.004 -0.238 -0.051 -0.238 -0.129 c 0 -0.043 -0.031 -0.074 -0.117 -0.109 c -0.078 -0.031 -0.133 -0.078 -0.168 -0.145 c -0.035 -0.078 -0.07 -0.105 -0.156 -0.125 c -0.129 -0.023 -0.16 -0.074 -0.188 -0.332 c -0.02 -0.184 -0.063 -0.238 -0.195 -0.238 h -0.066 v -3.871 h 0.914 l 0.027 1.957 l 0.031 1.953 l 0.086 0.074 c 0.047 0.039 0.102 0.074 0.125 0.074 c 0.055 0 0.109 0.094 0.109 0.195 v 0.078 h 0.484 c 0.539 0 0.609 -0.012 0.637 -0.094 c 0.031 -0.094 0.105 -0.152 0.199 -0.152 h 0.09 v -1.762 c 0 -0.969 0.012 -1.887 0.023 -2.043 l 0.02 -0.281 h 1.242 l 0.012 0.273 c 0.02 0.293 0.078 0.453 0.188 0.492 c 0.035 0.016 0.082 0.07 0.098 0.129 c 0.023 0.07 0.07 0.125 0.141 0.16 c 0.113 0.055 0.145 0.121 0.148 0.316 c 0.004 0.148 0.074 0.258 0.168 0.258 c 0.094 0.004 0.133 0.035 0.172 0.133 c 0.02 0.055 0.07 0.098 0.125 0.117 c 0.109 0.039 0.152 0.109 0.152 0.238 c 0 0.203 0.039 0.285 0.145 0.332 c 0.055 0.023 0.121 0.082 0.148 0.133 c 0.035 0.063 0.082 0.102 0.172 0.125 c 0.09 0.023 0.141 0.063 0.188 0.137 c 0.066 0.113 0.188 0.172 0.313 0.145 c 0.145 -0.027 0.168 -0.105 0.191 -0.613 l 0.023 -0.469 h 0.754 l 0.008 1.52 l 0.012 1.516 l 0.07 0.094 c 0.145 0.203 0.094 0.219 -0.625 0.219 c -0.563 0 -0.535 0.016 -0.535 -0.262 c -0.004 -0.207 -0.027 -0.258 -0.156 -0.293 c -0.141 -0.035 -0.184 -0.098 -0.184 -0.281 c -0.004 -0.18 -0.031 -0.23 -0.152 -0.293 c -0.094 -0.047 -0.109 -0.07 -0.129 -0.207 c -0.02 -0.125 -0.043 -0.172 -0.145 -0.262 c -0.066 -0.059 -0.133 -0.141 -0.145 -0.184 c -0.031 -0.113 -0.066 -0.145 -0.184 -0.168 c -0.086 -0.016 -0.121 -0.043 -0.152 -0.117 c -0.023 -0.055 -0.07 -0.129 -0.109 -0.16 c -0.078 -0.07 -0.18 -0.277 -0.18 -0.375 c -0.004 -0.082 -0.078 -0.164 -0.16 -0.164 c -0.035 0 -0.145 -0.035 -0.246 -0.078 l -0.18 -0.082 l -0.105 0.082 c -0.066 0.051 -0.121 0.125 -0.141 0.195 c -0.016 0.063 -0.031 0.395 -0.031 0.734 c 0 0.34 -0.012 0.656 -0.027 0.699 c -0.02 0.043 -0.066 0.086 -0.109 0.098 c -0.09 0.023 -0.121 0.07 -0.152 0.23 c -0.031 0.176 -0.117 0.262 -0.34 0.336 c -0.117 0.039 -0.215 0.09 -0.23 0.125 c -0.02 0.031 -0.102 0.094 -0.184 0.137 c -0.086 0.039 -0.203 0.121 -0.266 0.176 c -0.109 0.094 -0.125 0.098 -0.406 0.105 c -0.164 0.004 -0.32 -0.004 -0.348 -0.016"/></g></svg>