<svg xmlns="http://www.w3.org/2000/svg" viewBox="0 0 22 22"><path d="m 14.578 0.332 c -23.367 -2.395 -14.496 30.18 2.383 19.254 c 6.883 -4.457 6.559 -18.34 -2.383 -19.254" fill="#93a525"/><g fill="#a1f91b"><path d="m 11.863 3.785 c 0.098 0.02 0.383 0.082 0.637 0.133 c 2.047 0.414 4.04 2.133 4.84 4.176 c 1.477 3.77 -0.652 8 -4.578 9.1 c -3.566 0.992 -7.293 -1.113 -8.367 -4.734 c -0.199 -0.664 -0.234 -0.941 -0.234 -1.863 c 0 -0.926 0.035 -1.203 0.234 -1.867 c 0.688 -2.32 2.445 -4.078 4.738 -4.73 c 0.621 -0.18 2.305 -0.309 2.73 -0.211 m -2.777 1.031 c -1.633 0.551 -2.816 1.59 -3.559 3.129 c -0.488 1.02 -0.605 1.531 -0.602 2.691 c 0.004 1.699 0.543 2.98 1.773 4.219 c 0.629 0.633 0.875 0.813 1.566 1.148 c 1.063 0.512 2 0.707 3.074 0.637 c 2.75 -0.18 4.969 -2.09 5.563 -4.781 c 0.195 -0.902 0.137 -2.277 -0.137 -3.09 c -0.734 -2.18 -2.313 -3.613 -4.555 -4.129 c -0.832 -0.195 -2.273 -0.113 -3.125 0.176"/><path d="m 11.992 8.09 c 0.648 0.254 1.305 0.922 1.551 1.578 c 0.516 1.383 -0.082 2.875 -1.418 3.535 c -0.633 0.309 -1.633 0.305 -2.301 -0.016 c -1.762 -0.836 -2.176 -3.141 -0.801 -4.473 c 0.547 -0.531 1.082 -0.762 1.84 -0.789 c 0.504 -0.016 0.762 0.02 1.129 0.164 m -1.871 0.758 c -0.191 0.086 -0.488 0.32 -0.656 0.52 c -0.543 0.633 -0.648 1.398 -0.301 2.145 c 0.594 1.281 2.258 1.566 3.242 0.555 c 0.621 -0.641 0.719 -1.691 0.23 -2.48 c -0.492 -0.801 -1.637 -1.137 -2.516 -0.738"/><path d="m 11.406 6.07 c 0.133 1.086 0.242 2.039 0.242 2.121 c 0 0.078 -0.262 0.145 -0.582 0.145 c -0.488 0 -0.57 -0.059 -0.508 -0.367 c 0.043 -0.203 0.148 -1.035 0.242 -1.844 c 0.09 -0.813 0.211 -1.602 0.266 -1.754 c 0.055 -0.152 0.211 0.609 0.34 1.699"/><path d="m 11.555 13.262 c -0.012 0.34 -0.539 3.723 -0.555 3.563 c -0.016 -0.184 -0.426 -2.84 -0.516 -3.367 c -0.07 -0.395 -0.023 -0.434 0.5 -0.434 c 0.371 0 0.574 0.086 0.57 0.242"/><path d="m 8.867 10.652 c 0 0.848 -0.047 1.066 -0.23 1.07 c -0.5 0.008 -4.04 -0.984 -4.04 -0.984 c -0.055 -0.09 0.887 -0.383 2.09 -0.656 l 2.184 -0.492"/><path d="m 15.348 10.156 c 2.352 0.547 2.359 0.602 0.105 1.074 c -0.883 0.188 -1.711 0.383 -1.836 0.438 c -0.219 0.09 -0.234 0.027 -0.234 -0.93 c 0 -0.699 0.043 -1.02 0.129 -1 c 0.07 0.012 0.898 0.199 1.836 0.418"/><path d="m 137.32 128.61 c 0.042 2.904 -1.393 5.618 -3.757 7.094 c -2.343 1.452 -5.276 1.452 -7.64 0 c -2.364 -1.476 -3.799 -4.19 -3.757 -7.094 c -0.042 -2.904 1.393 -5.595 3.757 -7.07 c 2.364 -1.476 5.298 -1.476 7.64 0 c 2.364 1.476 3.799 4.166 3.757 7.07" transform="matrix(0.18508 0 0 0.16408 -13.07 -10.459)" stroke="#fff" stroke-width="0.499"/></g></svg>