<svg xmlns="http://www.w3.org/2000/svg" xmlns:xlink="http://www.w3.org/1999/xlink" viewBox="0 0 22 22"><defs><g id="g" clip-path="url(#f)"><path d="m 15.07 11.184 c -0.98 0 -1.773 0.266 -1.773 0.266 c 0 0 0.793 0.262 1.773 0.262 c 0.977 0 1.125 -0.242 1.125 -0.242 c 0 0 -0.148 -0.285 -1.125 -0.285" fill="url(#5)"/><path d="m 7.02 11.184 c 0.977 0 1.773 0.266 1.773 0.266 c 0 0 -0.797 0.262 -1.773 0.262 c -0.98 0 -1.125 -0.242 -1.125 -0.242 c 0 0 0.145 -0.285 1.125 -0.285" fill="url(#6)"/><path d="m 10.777 7.441 c 0 0.973 0.266 1.762 0.266 1.762 c 0 0 0.266 -0.789 0.266 -1.762 c 0 -0.977 -0.242 -1.121 -0.242 -1.121 c 0 0 -0.289 0.145 -0.289 1.121" fill="url(#7)"/><path d="m 10.777 15.453 c 0 -0.973 0.266 -1.762 0.266 -1.762 c 0 0 0.266 0.789 0.266 1.762 c 0 0.977 -0.242 1.121 -0.242 1.121 c 0 0 -0.289 -0.145 -0.289 -1.121" fill="url(#8)"/><path d="m 12.824 7.848 c -0.488 0.844 -0.652 1.66 -0.652 1.66 c 0 0 0.625 -0.555 1.117 -1.398 c 0.488 -0.844 0.352 -1.094 0.352 -1.094 c 0 0 -0.328 -0.02 -0.816 0.832" fill="url(#9)"/><path d="m 8.801 14.785 c 0.488 -0.844 1.117 -1.398 1.117 -1.398 c 0 0 -0.168 0.816 -0.656 1.66 c -0.488 0.844 -0.77 0.855 -0.77 0.855 c 0 0 -0.18 -0.273 0.309 -1.117" fill="url(#A)"/><path d="m 7.426 9.672 c 0.848 0.488 1.672 0.652 1.672 0.652 c 0 0 -0.559 -0.625 -1.406 -1.109 c -0.848 -0.488 -1.098 -0.355 -1.098 -0.355 c 0 0 -0.02 0.328 0.832 0.813" fill="url(#B)"/><path d="m 14.395 13.68 c -0.848 -0.484 -1.402 -1.109 -1.402 -1.109 c 0 0 0.82 0.164 1.668 0.652 c 0.848 0.484 0.855 0.766 0.855 0.766 c 0 0 -0.273 0.18 -1.121 -0.309" fill="url(#C)"/><path d="m 14.395 9.215 c -0.848 0.484 -1.402 1.109 -1.402 1.109 c 0 0 0.82 -0.164 1.668 -0.652 c 0.848 -0.484 0.855 -0.766 0.855 -0.766 c 0 0 -0.273 -0.18 -1.121 0.309" fill="url(#D)"/><path d="m 7.426 13.223 c 0.848 -0.488 1.672 -0.652 1.672 -0.652 c 0 0 -0.559 0.625 -1.406 1.109 c -0.848 0.488 -1.098 0.355 -1.098 0.355 c 0 0 -0.02 -0.328 0.832 -0.813" fill="url(#E)"/><path d="m 8.801 8.109 c 0.488 0.844 1.117 1.398 1.117 1.398 c 0 0 -0.168 -0.816 -0.656 -1.66 c -0.488 -0.844 -0.77 -0.855 -0.77 -0.855 c 0 0 -0.18 0.273 0.309 1.117" fill="url(#F)"/><path d="m 12.824 15.05 c -0.488 -0.844 -0.652 -1.66 -0.652 -1.66 c 0 0 0.625 0.555 1.117 1.398 c 0.488 0.844 0.352 1.094 0.352 1.094 c 0 0 -0.328 0.02 -0.816 -0.832" fill="url(#G)"/><path d="m 14.973 11.875 c -0.941 -0.164 -1.754 -0.047 -1.754 -0.047 c 0 0 0.719 0.387 1.664 0.559 c 0.945 0.164 1.129 -0.043 1.129 -0.043 c 0 0 -0.094 -0.301 -1.039 -0.469" fill="url(#H)"/><path d="m 7.215 10.5 c 0.945 0.164 1.668 0.559 1.668 0.559 c 0 0 -0.813 0.121 -1.758 -0.051 c -0.941 -0.164 -1.043 -0.422 -1.043 -0.422 c 0 0 0.188 -0.25 1.133 -0.086" fill="url(#I)"/><path d="m 11.484 7.535 c -0.168 0.938 -0.051 1.746 -0.051 1.746 c 0 0 0.391 -0.715 0.563 -1.66 c 0.164 -0.938 -0.043 -1.121 -0.043 -1.121 c 0 0 -0.305 0.094 -0.469 1.035" fill="url(#J)"/><path d="m 10.1 15.258 c 0.164 -0.938 0.563 -1.656 0.563 -1.656 c 0 0 0.121 0.809 -0.051 1.746 c -0.168 0.938 -0.426 1.039 -0.426 1.039 c 0 0 -0.254 -0.188 -0.086 -1.129" fill="url(#K)"/><path d="m 13.387 8.273 c -0.621 0.73 -0.922 1.488 -0.922 1.488 c 0 0 0.703 -0.422 1.32 -1.156 c 0.621 -0.727 0.531 -0.992 0.531 -0.992 c 0 0 -0.313 -0.066 -0.93 0.66" fill="url(#L)"/><path d="m 8.313 14.273 c 0.617 -0.727 1.316 -1.156 1.316 -1.156 c 0 0 -0.301 0.762 -0.918 1.488 c -0.621 0.73 -0.895 0.688 -0.895 0.688 c 0 0 -0.121 -0.285 0.496 -1.02" fill="url(#M)"/><path d="m 7.867 9.113 c 0.73 0.617 1.492 0.918 1.492 0.918 c 0 0 -0.426 -0.695 -1.16 -1.313 c -0.734 -0.617 -0.996 -0.527 -0.996 -0.527 c 0 0 -0.07 0.309 0.664 0.922" fill="url(#N)"/><path d="m 13.895 14.168 c -0.734 -0.617 -1.164 -1.313 -1.164 -1.313 c 0 0 0.762 0.297 1.496 0.914 c 0.73 0.617 0.688 0.891 0.688 0.891 c 0 0 -0.285 0.121 -1.02 -0.492" fill="url(#O)"/><path d="m 14.664 9.867 c -0.902 0.324 -1.543 0.828 -1.543 0.828 c 0 0 0.82 -0.016 1.723 -0.344 c 0.902 -0.324 0.957 -0.594 0.957 -0.594 c 0 0 -0.234 -0.219 -1.137 0.109" fill="url(#P)"/><path d="m 7.258 12.531 c 0.902 -0.324 1.723 -0.344 1.723 -0.344 c 0 0 -0.641 0.512 -1.543 0.832 c -0.902 0.32 -1.117 0.152 -1.117 0.152 c 0 0 0.035 -0.313 0.938 -0.641" fill="url(#Q)"/><path d="m 9.461 7.844 c 0.328 0.895 0.832 1.535 0.832 1.535 c 0 0 -0.016 -0.816 -0.344 -1.715 c -0.328 -0.898 -0.598 -0.953 -0.598 -0.953 c 0 0 -0.215 0.234 0.109 1.133" fill="url(#R)"/><path d="m 12.145 15.219 c -0.328 -0.898 -0.348 -1.715 -0.348 -1.715 c 0 0 0.512 0.637 0.836 1.535 c 0.324 0.898 0.152 1.113 0.152 1.113 c 0 0 -0.316 -0.035 -0.641 -0.934" fill="url(#S)"/><path d="m 14.773 12.52 c -0.891 -0.316 -1.691 -0.336 -1.691 -0.336 c 0 0 0.633 0.496 1.52 0.82 c 0.891 0.316 1.102 0.145 1.102 0.145 c 0 0 -0.043 -0.313 -0.93 -0.629" fill="url(#T)"/><path d="m 7.48 9.906 c 0.891 0.316 1.523 0.816 1.523 0.816 c 0 0 -0.809 -0.016 -1.691 -0.336 c -0.887 -0.316 -0.945 -0.582 -0.945 -0.582 c 0 0 0.227 -0.219 1.113 0.102" fill="url(#U)"/><path d="m 12.11 7.734 c -0.32 0.887 -0.34 1.684 -0.34 1.684 c 0 0 0.5 -0.629 0.824 -1.512 c 0.316 -0.887 0.148 -1.098 0.148 -1.098 c 0 0 -0.316 0.043 -0.633 0.926" fill="url(#V)"/><path d="m 9.488 14.996 c 0.316 -0.887 0.82 -1.516 0.82 -1.516 c 0 0 -0.02 0.805 -0.336 1.684 c -0.32 0.887 -0.59 0.938 -0.59 0.938 c 0 0 -0.219 -0.223 0.105 -1.105" fill="url(#W)"/><path d="m 13.836 8.766 c -0.723 0.609 -1.141 1.293 -1.141 1.293 c 0 0 0.75 -0.297 1.473 -0.902 c 0.723 -0.609 0.676 -0.875 0.676 -0.875 c 0 0 -0.293 -0.121 -1.01 0.484" fill="url(#X)"/><path d="m 7.918 13.75 c 0.723 -0.609 1.469 -0.906 1.469 -0.906 c 0 0 -0.414 0.691 -1.137 1.293 c -0.723 0.609 -0.98 0.523 -0.98 0.523 c 0 0 -0.074 -0.309 0.648 -0.91" fill="url(#Y)"/><path d="m 8.344 8.668 c 0.609 0.719 1.297 1.137 1.297 1.137 c 0 0 -0.297 -0.746 -0.906 -1.469 c -0.605 -0.715 -0.875 -0.672 -0.875 -0.672 c 0 0 -0.121 0.289 0.484 1" fill="url(#Z)"/><path d="m 13.344 14.563 c -0.609 -0.719 -0.906 -1.465 -0.906 -1.465 c 0 0 0.691 0.414 1.297 1.133 c 0.605 0.719 0.527 0.973 0.527 0.973 c 0 0 -0.309 0.078 -0.918 -0.641" fill="url(#a)"/><path d="m 14.809 10.52 c -0.93 0.164 -1.633 0.547 -1.633 0.547 c 0 0 0.797 0.117 1.727 -0.047 c 0.93 -0.168 1.027 -0.422 1.027 -0.422 c 0 0 -0.191 -0.246 -1.121 -0.078" fill="url(#b)"/><path d="m 7.18 11.879 c 0.93 -0.164 1.727 -0.047 1.727 -0.047 c 0 0 -0.707 0.383 -1.633 0.551 c -0.926 0.164 -1.105 -0.039 -1.105 -0.039 c 0 0 0.082 -0.293 1.012 -0.465" fill="url(#c)"/><path d="m 10.1 7.699 c 0.164 0.926 0.551 1.625 0.551 1.625 c 0 0 0.117 -0.793 -0.047 -1.719 c -0.168 -0.926 -0.422 -1.023 -0.422 -1.023 c 0 0 -0.25 0.191 -0.082 1.117" fill="url(#d)"/><path d="m 11.473 15.293 c -0.164 -0.926 -0.047 -1.719 -0.047 -1.719 c 0 0 0.387 0.707 0.551 1.625 c 0.168 0.926 -0.035 1.105 -0.035 1.105 c 0 0 -0.301 -0.086 -0.469 -1.012" fill="url(#e)"/></g><clipPath id="f"><path d="M 0,0 H22 V22 H0 z"/></clipPath><filter id="3" filterUnits="objectBoundingBox" x="0" y="0" width="22" height="22"><feColorMatrix type="matrix" in="SourceGraphic" values="0 0 0 0 1 0 0 0 0 1 0 0 0 0 1 0 0 0 1 0"/></filter><linearGradient id="r" gradientUnits="userSpaceOnUse" x1="233.11" y1="216.35" x2="203.61" y2="165.26" gradientTransform="matrix(0.04487 0 0 0.04468 -0.443 0.01)" xlink:href="#h"/><linearGradient id="q" gradientUnits="userSpaceOnUse" x1="216.35" y1="278.89" x2="165.26" y2="308.39" gradientTransform="matrix(0.04487 0 0 0.04468 -0.443 0.01)" xlink:href="#h"/><linearGradient id="s" gradientUnits="userSpaceOnUse" x1="278.89" y1="295.65" x2="308.39" y2="346.74" gradientTransform="matrix(0.04487 0 0 0.04468 -0.443 0.01)" xlink:href="#h"/><linearGradient id="t" gradientUnits="userSpaceOnUse" x1="300.2" y1="263.77" x2="357.06" y2="273.88" gradientTransform="matrix(0.04487 0 0 0.04468 -0.443 0.01)" xlink:href="#h"/><linearGradient id="p" gradientUnits="userSpaceOnUse" x1="295.65" y1="233.11" x2="346.74" y2="203.61" gradientTransform="matrix(0.04487 0 0 0.04468 -0.443 0.01)" xlink:href="#h"/><linearGradient id="w" gradientUnits="userSpaceOnUse" x1="248.23" y1="300.03" x2="238.12" y2="356.88" gradientTransform="matrix(0.04487 0 0 0.04468 -0.443 0.01)" xlink:href="#h"/><linearGradient id="u" gradientUnits="userSpaceOnUse" x1="211.97" y1="248.06" x2="155.12" y2="237.95" gradientTransform="matrix(0.04487 0 0 0.04468 -0.443 0.01)" xlink:href="#h"/><linearGradient id="v" gradientUnits="userSpaceOnUse" x1="263.94" y1="211.8" x2="274.05" y2="154.94" gradientTransform="matrix(0.04487 0 0 0.04468 -0.443 0.01)" xlink:href="#h"/><linearGradient id="o" gradientUnits="userSpaceOnUse" x1="295.65" y1="278.89" x2="346.74" y2="308.39" gradientTransform="matrix(0.04487 0 0 0.04468 -0.443 0.01)" xlink:href="#h"/><linearGradient id="h" gradientUnits="userSpaceOnUse" x1="301.78" x2="360.78" gradientTransform="matrix(0.04487 0 0 0.04468 -0.443 0.01)"><stop stop-color="#1f3f20" stop-opacity="0.502"/><stop offset="0.235" stop-color="#4c7034" stop-opacity="0.616"/><stop offset="0.469" stop-color="#70993d" stop-opacity="0.733"/><stop offset="0.683" stop-color="#8cb53e" stop-opacity="0.843"/><stop offset="0.867" stop-color="#9cc73b" stop-opacity="0.933"/><stop offset="1" stop-color="#a3cd39"/></linearGradient><linearGradient id="i" gradientUnits="userSpaceOnUse" x1="210.22" x2="151.22" gradientTransform="matrix(0.04487 0 0 0.04468 -0.443 0.01)" xlink:href="#h"/><linearGradient id="e" gradientUnits="userSpaceOnUse" x1="264.45" y1="303.64" x2="275.46" y2="364.9" gradientTransform="matrix(0.04487 0 0 0.04468 -0.443 0.01)" xlink:href="#5"/><linearGradient id="j" gradientUnits="userSpaceOnUse" x1="301.78" y1="210.22" x2="0" y2="151.22" gradientTransform="matrix(0.04487 0 0 0.04468 -0.443 0.01)" xlink:href="#h"/><linearGradient id="k" gradientUnits="userSpaceOnUse" x1="301.78" y1="301.78" x2="0" y2="360.78" gradientTransform="matrix(0.04487 0 0 0.04468 -0.443 0.01)" xlink:href="#h"/><linearGradient id="n" gradientUnits="userSpaceOnUse" x1="216.35" y1="233.11" x2="165.26" y2="203.61" gradientTransform="matrix(0.04487 0 0 0.04468 -0.443 0.01)" xlink:href="#h"/><linearGradient id="l" gradientUnits="userSpaceOnUse" x1="278.89" y1="216.35" x2="308.39" y2="165.26" gradientTransform="matrix(0.04487 0 0 0.04468 -0.443 0.01)" xlink:href="#h"/><linearGradient id="m" gradientUnits="userSpaceOnUse" x1="233.11" y1="295.65" x2="203.61" y2="346.74" gradientTransform="matrix(0.04487 0 0 0.04468 -0.443 0.01)" xlink:href="#h"/><linearGradient id="x" gradientUnits="userSpaceOnUse" x1="284.94" y1="221.63" x2="322.13" y2="177.46" gradientTransform="matrix(0.04487 0 0 0.04468 -0.443 0.01)" xlink:href="#h"/><linearGradient id="19" gradientUnits="userSpaceOnUse" x1="289.59" y1="227.64" x2="332.98" y2="191" gradientTransform="matrix(0.04487 0 0 0.04468 -0.443 0.01)" xlink:href="#h"/><linearGradient id="1A" gradientUnits="userSpaceOnUse" x1="222.25" y1="284.52" x2="178.86" y2="321.17" gradientTransform="matrix(0.04487 0 0 0.04468 -0.443 0.01)" xlink:href="#h"/><linearGradient id="y" gradientUnits="userSpaceOnUse" x1="227.23" y1="290.2" x2="190.04" y2="334.37" gradientTransform="matrix(0.04487 0 0 0.04468 -0.443 0.01)" xlink:href="#h"/><linearGradient id="1B" gradientUnits="userSpaceOnUse" x1="227.48" y1="222.41" x2="190.83" y2="179.03" gradientTransform="matrix(0.04487 0 0 0.04468 -0.443 0.01)" xlink:href="#h"/><linearGradient id="1C" gradientUnits="userSpaceOnUse" x1="284.36" y1="289.75" x2="321" y2="333.14" gradientTransform="matrix(0.04487 0 0 0.04468 -0.443 0.01)" xlink:href="#h"/><linearGradient id="1F" gradientUnits="userSpaceOnUse" x1="248.12" y1="212.7" x2="238.08" y2="156.81" gradientTransform="matrix(0.04487 0 0 0.04468 -0.443 0.01)" xlink:href="#h"/><linearGradient id="1D" gradientUnits="userSpaceOnUse" x1="299.3" y1="248.29" x2="355.19" y2="238.25" gradientTransform="matrix(0.04487 0 0 0.04468 -0.443 0.01)" xlink:href="#h"/><linearGradient id="1E" gradientUnits="userSpaceOnUse" x1="212.54" y1="263.88" x2="156.64" y2="273.92" gradientTransform="matrix(0.04487 0 0 0.04468 -0.443 0.01)" xlink:href="#h"/><linearGradient id="18" gradientUnits="userSpaceOnUse" x1="240.98" y1="297.55" x2="221.72" y2="350.98" gradientTransform="matrix(0.04487 0 0 0.04468 -0.443 0.01)" xlink:href="#h"/><linearGradient id="17" gradientUnits="userSpaceOnUse" x1="270.85" y1="214.62" x2="290.11" y2="161.19" gradientTransform="matrix(0.04487 0 0 0.04468 -0.443 0.01)" xlink:href="#h"/><linearGradient id="11" gradientUnits="userSpaceOnUse" x1="298.22" y1="240.65" x2="352.51" y2="220.99" gradientTransform="matrix(0.04487 0 0 0.04468 -0.443 0.01)" xlink:href="#h"/><linearGradient id="z" gradientUnits="userSpaceOnUse" x1="221.8" y1="227.06" x2="177.63" y2="189.87" gradientTransform="matrix(0.04487 0 0 0.04468 -0.443 0.01)" xlink:href="#h"/><linearGradient id="10" gradientUnits="userSpaceOnUse" x1="290.37" y1="284.77" x2="334.54" y2="321.96" gradientTransform="matrix(0.04487 0 0 0.04468 -0.443 0.01)" xlink:href="#h"/><linearGradient id="12" gradientUnits="userSpaceOnUse" x1="213.95" y1="271.18" x2="159.66" y2="290.84" gradientTransform="matrix(0.04487 0 0 0.04468 -0.443 0.01)" xlink:href="#h"/><linearGradient id="13" gradientUnits="userSpaceOnUse" x1="240.82" y1="213.78" x2="221.16" y2="159.49" gradientTransform="matrix(0.04487 0 0 0.04468 -0.443 0.01)" xlink:href="#h"/><linearGradient id="16" gradientUnits="userSpaceOnUse" x1="214.45" y1="241.15" x2="161.02" y2="221.89" gradientTransform="matrix(0.04487 0 0 0.04468 -0.443 0.01)" xlink:href="#h"/><linearGradient id="14" gradientUnits="userSpaceOnUse" x1="271.35" y1="298.05" x2="291.01" y2="352.34" gradientTransform="matrix(0.04487 0 0 0.04468 -0.443 0.01)" xlink:href="#h"/><linearGradient id="15" gradientUnits="userSpaceOnUse" x1="297.38" y1="271.02" x2="350.81" y2="290.28" gradientTransform="matrix(0.04487 0 0 0.04468 -0.443 0.01)" xlink:href="#h"/><linearGradient id="d" gradientUnits="userSpaceOnUse" x1="247.36" y1="208.55" x2="236.36" y2="147.28" gradientTransform="matrix(0.04487 0 0 0.04468 -0.443 0.01)" xlink:href="#5"/><linearGradient id="D" gradientUnits="userSpaceOnUse" x1="299.45" y1="230.91" x2="355.45" y2="198.58" gradientTransform="matrix(0.04487 0 0 0.04468 -0.443 0.01)" xlink:href="#5"/><linearGradient id="E" gradientUnits="userSpaceOnUse" x1="212.55" y1="281.09" x2="156.55" y2="313.42" gradientTransform="matrix(0.04487 0 0 0.04468 -0.443 0.01)" xlink:href="#5"/><linearGradient id="L" gradientUnits="userSpaceOnUse" x1="287.72" y1="218.33" x2="328.48" y2="169.92" gradientTransform="matrix(0.04487 0 0 0.04468 -0.443 0.01)" xlink:href="#5"/><linearGradient id="F" gradientUnits="userSpaceOnUse" x1="230.91" y1="212.55" x2="198.58" y2="156.55" gradientTransform="matrix(0.04487 0 0 0.04468 -0.443 0.01)" xlink:href="#5"/><linearGradient id="G" gradientUnits="userSpaceOnUse" x1="281.09" y1="299.45" x2="313.42" y2="355.45" gradientTransform="matrix(0.04487 0 0 0.04468 -0.443 0.01)" xlink:href="#5"/><linearGradient id="K" gradientUnits="userSpaceOnUse" x1="247.49" y1="304.26" x2="236.4" y2="366.57" gradientTransform="matrix(0.04487 0 0 0.04468 -0.443 0.01)" xlink:href="#5"/><linearGradient id="H" gradientUnits="userSpaceOnUse" x1="304.45" y1="264.51" x2="366.76" y2="275.6" gradientTransform="matrix(0.04487 0 0 0.04468 -0.443 0.01)" xlink:href="#5"/><linearGradient id="I" gradientUnits="userSpaceOnUse" x1="207.74" y1="247.3" x2="145.43" y2="236.21" gradientTransform="matrix(0.04487 0 0 0.04468 -0.443 0.01)" xlink:href="#5"/><linearGradient id="C" gradientUnits="userSpaceOnUse" x1="299.45" y1="281.09" x2="355.45" y2="313.42" gradientTransform="matrix(0.04487 0 0 0.04468 -0.443 0.01)" xlink:href="#5"/><linearGradient id="1G" gradientUnits="userSpaceOnUse" x1="263.71" y1="299.46" x2="273.75" y2="355.36" gradientTransform="matrix(0.04487 0 0 0.04468 -0.443 0.01)" xlink:href="#h"/><linearGradient id="5" gradientUnits="userSpaceOnUse" x1="306.18" x2="370.84" gradientTransform="matrix(0.04487 0 0 0.04468 -0.443 0.01)"><stop stop-color="#a4ab70"/><stop offset="0.041" stop-color="#abb469"/><stop offset="0.156" stop-color="#b9c85b"/><stop offset="0.274" stop-color="#c2d154"/><stop offset="0.398" stop-color="#c6d652"/><stop offset="0.477" stop-color="#bfd045"/><stop offset="0.592" stop-color="#b9cd3d"/><stop offset="0.791" stop-color="#b9cc3c"/><stop offset="0.806" stop-color="#becf46"/><stop offset="0.844" stop-color="#c9d861"/><stop offset="0.884" stop-color="#d0de72"/><stop offset="0.928" stop-color="#d6e37d"/><stop offset="0.98" stop-color="#d6e37f"/></linearGradient><linearGradient id="B" gradientUnits="userSpaceOnUse" x1="212.55" y1="230.91" x2="156.55" y2="198.58" gradientTransform="matrix(0.04487 0 0 0.04468 -0.443 0.01)" xlink:href="#5"/><linearGradient id="6" gradientUnits="userSpaceOnUse" x1="205.82" x2="141.16" gradientTransform="matrix(0.04487 0 0 0.04468 -0.443 0.01)" xlink:href="#5"/><linearGradient id="7" gradientUnits="userSpaceOnUse" x1="306.18" y1="205.82" x2="0" y2="141.16" gradientTransform="matrix(0.04487 0 0 0.04468 -0.443 0.01)" xlink:href="#5"/><linearGradient id="A" gradientUnits="userSpaceOnUse" x1="230.91" y1="299.45" x2="198.58" y2="355.45" gradientTransform="matrix(0.04487 0 0 0.04468 -0.443 0.01)" xlink:href="#5"/><linearGradient id="8" gradientUnits="userSpaceOnUse" x1="306.18" y1="306.18" x2="0" y2="370.84" gradientTransform="matrix(0.04487 0 0 0.04468 -0.443 0.01)" xlink:href="#5"/><linearGradient id="9" gradientUnits="userSpaceOnUse" x1="281.09" y1="212.55" x2="313.42" y2="156.55" gradientTransform="matrix(0.04487 0 0 0.04468 -0.443 0.01)" xlink:href="#5"/><linearGradient id="J" gradientUnits="userSpaceOnUse" x1="264.7" y1="207.55" x2="275.79" y2="145.24" gradientTransform="matrix(0.04487 0 0 0.04468 -0.443 0.01)" xlink:href="#5"/><linearGradient id="M" gradientUnits="userSpaceOnUse" x1="224.46" y1="293.48" x2="183.71" y2="341.9" gradientTransform="matrix(0.04487 0 0 0.04468 -0.443 0.01)" xlink:href="#5"/><linearGradient id="X" gradientUnits="userSpaceOnUse" x1="292.81" y1="224.92" x2="340.36" y2="184.76" gradientTransform="matrix(0.04487 0 0 0.04468 -0.443 0.01)" xlink:href="#5"/><linearGradient id="V" gradientUnits="userSpaceOnUse" x1="272.28" y1="210.65" x2="293.38" y2="152.08" gradientTransform="matrix(0.04487 0 0 0.04468 -0.443 0.01)" xlink:href="#5"/><linearGradient id="Y" gradientUnits="userSpaceOnUse" x1="219.01" y1="287.26" x2="171.45" y2="327.43" gradientTransform="matrix(0.04487 0 0 0.04468 -0.443 0.01)" xlink:href="#5"/><linearGradient id="Z" gradientUnits="userSpaceOnUse" x1="224.74" y1="219.19" x2="184.57" y2="171.64" gradientTransform="matrix(0.04487 0 0 0.04468 -0.443 0.01)" xlink:href="#5"/><linearGradient id="c" gradientUnits="userSpaceOnUse" x1="208.36" y1="264.64" x2="147.1" y2="275.64" gradientTransform="matrix(0.04487 0 0 0.04468 -0.443 0.01)" xlink:href="#5"/><linearGradient id="a" gradientUnits="userSpaceOnUse" x1="287.08" y1="292.99" x2="327.24" y2="340.55" gradientTransform="matrix(0.04487 0 0 0.04468 -0.443 0.01)" xlink:href="#5"/><linearGradient id="b" gradientUnits="userSpaceOnUse" x1="303.45" y1="247.55" x2="364.72" y2="236.54" gradientTransform="matrix(0.04487 0 0 0.04468 -0.443 0.01)" xlink:href="#5"/><linearGradient id="W" gradientUnits="userSpaceOnUse" x1="239.54" y1="301.54" x2="218.43" y2="360.1" gradientTransform="matrix(0.04487 0 0 0.04468 -0.443 0.01)" xlink:href="#5"/><linearGradient id="N" gradientUnits="userSpaceOnUse" x1="218.52" y1="224.28" x2="170.1" y2="183.52" gradientTransform="matrix(0.04487 0 0 0.04468 -0.443 0.01)" xlink:href="#5"/><linearGradient id="O" gradientUnits="userSpaceOnUse" x1="293.67" y1="287.54" x2="342.08" y2="328.29" gradientTransform="matrix(0.04487 0 0 0.04468 -0.443 0.01)" xlink:href="#5"/><linearGradient id="P" gradientUnits="userSpaceOnUse" x1="302.27" y1="239.18" x2="361.78" y2="217.63" gradientTransform="matrix(0.04487 0 0 0.04468 -0.443 0.01)" xlink:href="#5"/><linearGradient id="U" gradientUnits="userSpaceOnUse" x1="210.46" y1="239.72" x2="151.9" y2="218.62" gradientTransform="matrix(0.04487 0 0 0.04468 -0.443 0.01)" xlink:href="#5"/><linearGradient id="T" gradientUnits="userSpaceOnUse" x1="301.35" y1="272.46" x2="359.92" y2="293.57" gradientTransform="matrix(0.04487 0 0 0.04468 -0.443 0.01)" xlink:href="#5"/><linearGradient id="Q" gradientUnits="userSpaceOnUse" x1="209.91" y1="272.63" x2="150.41" y2="294.18" gradientTransform="matrix(0.04487 0 0 0.04468 -0.443 0.01)" xlink:href="#5"/><linearGradient id="S" gradientUnits="userSpaceOnUse" x1="272.82" y1="302.09" x2="294.37" y2="361.59" gradientTransform="matrix(0.04487 0 0 0.04468 -0.443 0.01)" xlink:href="#5"/><linearGradient id="R" gradientUnits="userSpaceOnUse" x1="239.37" y1="209.73" x2="217.82" y2="150.22" gradientTransform="matrix(0.04487 0 0 0.04468 -0.443 0.01)" xlink:href="#5"/><mask id="4"><g filter="url(#3)"><path fill-opacity="0.502" d="M 0,0 H22 V22 H0 z"/></g></mask><radialGradient id="1" gradientUnits="userSpaceOnUse" cx="256" cy="256" r="132.83" gradientTransform="matrix(0.04487 0 0 0.04468 -0.443 0.01)"><stop stop-color="#f4ecb7"/><stop offset="0.124" stop-color="#f3ecb4"/><stop offset="0.183" stop-color="#efeaac"/><stop offset="0.228" stop-color="#ece7a1"/><stop offset="0.266" stop-color="#e2e48e"/><stop offset="0.299" stop-color="#d7de77"/><stop offset="0.329" stop-color="#c9d85b"/><stop offset="0.337" stop-color="#c6d652"/><stop offset="0.418" stop-color="#c8d656"/><stop offset="0.504" stop-color="#cadb63"/><stop offset="0.594" stop-color="#cfe07a"/><stop offset="0.685" stop-color="#d7e597"/><stop offset="0.694" stop-color="#d8e59a"/><stop offset="0.716" stop-color="#d4e48f"/><stop offset="1" stop-color="#99ac3b"/></radialGradient><radialGradient id="2" gradientUnits="userSpaceOnUse" cx="256" cy="256" r="122.62" gradientTransform="matrix(0.04487 0 0 0.04468 -0.443 0.01)"><stop stop-color="#f4ecb7"/><stop offset="0.132" stop-color="#f3ecb4"/><stop offset="0.184" stop-color="#efeaad"/><stop offset="0.222" stop-color="#ece7a3"/><stop offset="0.253" stop-color="#e3e592"/><stop offset="0.28" stop-color="#d9df7a"/><stop offset="0.284" stop-color="#d7de77"/><stop offset="0.329" stop-color="#c9d85b"/><stop offset="0.337" stop-color="#c6d652"/><stop offset="0.418" stop-color="#c8d656"/><stop offset="0.504" stop-color="#cadb63"/><stop offset="0.594" stop-color="#cfe07a"/><stop offset="0.685" stop-color="#d7e597"/><stop offset="0.694" stop-color="#d8e59a"/><stop offset="0.716" stop-color="#d4e48f"/></radialGradient><radialGradient id="0" gradientUnits="userSpaceOnUse" cx="256" cy="256" r="143.33" gradientTransform="matrix(0.04487 0 0 0.04468 -0.443 0.01)"><stop offset="0.857" stop-color="#92a43b"/><stop offset="1" stop-color="#869b3b"/></radialGradient></defs><path d="m 19.18 3.48 c 12.477 19.04 -21.598 26.406 -18.883 6.82 c 1.105 -7.988 14.11 -14.11 18.883 -6.82" fill="#a5b94d"/><path d="m 17.473 11.449 c 0 3.535 -2.879 6.398 -6.43 6.398 c -3.551 0 -6.43 -2.863 -6.43 -6.398 c 0 -3.539 2.879 -6.402 6.43 -6.402 c 3.551 0 6.43 2.863 6.43 6.402" fill="url(#0)"/><path d="m 17 11.449 c 0 3.273 -2.668 5.93 -5.961 5.93 c -3.289 0 -5.957 -2.656 -5.957 -5.93 c 0 -3.277 2.668 -5.934 5.957 -5.934 c 3.293 0 5.961 2.656 5.961 5.934" fill="url(#1)"/><path d="m 16.543 11.449 c 0 3.02 -2.461 5.477 -5.5 5.477 c -3.039 0 -5.5 -2.453 -5.5 -5.477 c 0 -3.03 2.461 -5.48 5.5 -5.48 c 3.039 0 5.5 2.453 5.5 5.48" fill="url(#2)"/><use xlink:href="#g" mask="url(#4)"/><path d="m 14.715 11.207 c -0.895 0 -1.621 0.242 -1.621 0.242 c 0 0 0.723 0.238 1.621 0.238 c 0.898 0 1.027 -0.219 1.027 -0.219 c 0 0 -0.129 -0.262 -1.027 -0.262" fill="url(#h)"/><path d="m 7.375 11.207 c 0.891 0 1.617 0.242 1.617 0.242 c 0 0 -0.723 0.238 -1.617 0.238 c -0.898 0 -1.027 -0.219 -1.027 -0.219 c 0 0 0.129 -0.262 1.027 -0.262" fill="url(#i)"/><path d="m 10.801 7.793 c 0 0.891 0.242 1.613 0.242 1.613 c 0 0 0.242 -0.719 0.242 -1.613 c 0 -0.895 -0.219 -1.023 -0.219 -1.023 c 0 0 -0.266 0.129 -0.266 1.023" fill="url(#j)"/><path d="m 10.801 15.1 c 0 -0.891 0.242 -1.613 0.242 -1.613 c 0 0 0.242 0.719 0.242 1.613 c 0 0.895 -0.219 1.023 -0.219 1.023 c 0 0 -0.266 -0.129 -0.266 -1.023" fill="url(#k)"/><path d="m 12.668 8.16 c -0.449 0.766 -0.598 1.512 -0.598 1.512 c 0 0 0.574 -0.504 1.02 -1.273 c 0.449 -0.766 0.324 -0.996 0.324 -0.996 c 0 0 -0.297 -0.012 -0.746 0.758" fill="url(#l)"/><path d="m 8.996 14.496 c 0.449 -0.77 1.02 -1.273 1.02 -1.273 c 0 0 -0.152 0.746 -0.598 1.512 c -0.441 0.77 -0.707 0.777 -0.707 0.777 c 0 0 -0.16 -0.25 0.285 -1.016" fill="url(#m)"/><path d="m 7.742 9.828 c 0.77 0.449 1.52 0.598 1.52 0.598 c 0 0 -0.508 -0.574 -1.277 -1.016 c -0.773 -0.445 -1 -0.32 -1 -0.32 c 0 0 -0.016 0.293 0.758 0.738" fill="url(#n)"/><path d="m 14.11 13.484 c -0.773 -0.445 -1.281 -1.016 -1.281 -1.016 c 0 0 0.75 0.152 1.523 0.598 c 0.77 0.445 0.777 0.699 0.777 0.699 c 0 0 -0.25 0.164 -1.02 -0.281" fill="url(#o)"/><path d="m 14.11 9.41 c -0.773 0.445 -1.281 1.016 -1.281 1.016 c 0 0 0.75 -0.152 1.523 -0.598 c 0.77 -0.441 0.777 -0.703 0.777 -0.703 c 0 0 -0.25 -0.16 -1.02 0.285" fill="url(#p)"/><path d="m 7.742 13.07 c 0.77 -0.449 1.52 -0.598 1.52 -0.598 c 0 0 -0.508 0.574 -1.277 1.016 c -0.773 0.445 -1 0.32 -1 0.32 c 0 0 -0.016 -0.293 0.758 -0.738" fill="url(#q)"/><path d="m 8.996 8.398 c 0.449 0.77 1.02 1.273 1.02 1.273 c 0 0 -0.152 -0.746 -0.598 -1.512 c -0.441 -0.77 -0.707 -0.777 -0.707 -0.777 c 0 0 -0.16 0.25 0.285 1.016" fill="url(#r)"/><path d="m 12.668 14.734 c -0.449 -0.766 -0.598 -1.512 -0.598 -1.512 c 0 0 0.574 0.504 1.02 1.273 c 0.449 0.766 0.324 0.996 0.324 0.996 c 0 0 -0.297 0.012 -0.746 -0.758" fill="url(#s)"/><path d="m 14.629 11.836 c -0.863 -0.152 -1.602 -0.043 -1.602 -0.043 c 0 0 0.656 0.355 1.516 0.508 c 0.863 0.152 1.027 -0.035 1.027 -0.035 c 0 0 -0.078 -0.273 -0.941 -0.43" fill="url(#t)"/><path d="m 7.547 10.586 c 0.863 0.152 1.52 0.508 1.52 0.508 c 0 0 -0.742 0.109 -1.602 -0.043 c -0.863 -0.152 -0.957 -0.391 -0.957 -0.391 c 0 0 0.184 -0.227 1.039 -0.074" fill="url(#u)"/><path d="m 11.441 7.879 c -0.152 0.855 -0.043 1.594 -0.043 1.594 c 0 0 0.359 -0.652 0.512 -1.512 c 0.152 -0.855 -0.035 -1.023 -0.035 -1.023 c 0 0 -0.281 0.082 -0.434 0.941" fill="url(#v)"/><path d="m 10.184 14.926 c 0.152 -0.855 0.512 -1.508 0.512 -1.508 c 0 0 0.105 0.738 -0.047 1.594 c -0.152 0.859 -0.391 0.953 -0.391 0.953 c 0 0 -0.227 -0.184 -0.074 -1.039" fill="url(#w)"/><path d="m 13.18 8.551 c -0.566 0.668 -0.84 1.359 -0.84 1.359 c 0 0 0.637 -0.387 1.203 -1.055 c 0.566 -0.664 0.484 -0.906 0.484 -0.906 c 0 0 -0.281 -0.063 -0.848 0.602" fill="url(#x)"/><path d="m 8.551 14.03 c 0.563 -0.668 1.199 -1.055 1.199 -1.055 c 0 0 -0.273 0.691 -0.836 1.355 c -0.566 0.668 -0.813 0.633 -0.813 0.633 c 0 0 -0.113 -0.27 0.449 -0.934" fill="url(#y)"/><path d="m 8.145 9.32 c 0.668 0.563 1.363 0.836 1.363 0.836 c 0 0 -0.391 -0.633 -1.059 -1.199 c -0.668 -0.563 -0.91 -0.48 -0.91 -0.48 c 0 0 -0.063 0.281 0.605 0.844" fill="url(#z)"/><path d="m 13.645 13.93 c -0.668 -0.563 -1.059 -1.195 -1.059 -1.195 c 0 0 0.695 0.273 1.367 0.836 c 0.668 0.563 0.629 0.809 0.629 0.809 c 0 0 -0.266 0.109 -0.938 -0.449" fill="url(#10)"/><path d="m 14.348 10 c -0.824 0.297 -1.41 0.762 -1.41 0.762 c 0 0 0.75 -0.02 1.57 -0.316 c 0.82 -0.293 0.875 -0.543 0.875 -0.543 c 0 0 -0.215 -0.203 -1.035 0.098" fill="url(#11)"/><path d="m 7.59 12.438 c 0.82 -0.293 1.57 -0.313 1.57 -0.313 c 0 0 -0.59 0.465 -1.41 0.762 c -0.82 0.293 -1.02 0.137 -1.02 0.137 c 0 0 0.031 -0.285 0.859 -0.586" fill="url(#12)"/><path d="m 9.598 8.16 c 0.297 0.816 0.766 1.402 0.766 1.402 c 0 0 -0.02 -0.746 -0.316 -1.563 c -0.297 -0.82 -0.547 -0.871 -0.547 -0.871 c 0 0 -0.195 0.211 0.098 1.031" fill="url(#13)"/><path d="m 12.05 14.887 c -0.293 -0.816 -0.313 -1.563 -0.313 -1.563 c 0 0 0.469 0.586 0.762 1.402 c 0.297 0.816 0.141 1.016 0.141 1.016 c 0 0 -0.293 -0.031 -0.59 -0.855" fill="url(#14)"/><path d="m 14.445 12.426 c -0.809 -0.289 -1.543 -0.309 -1.543 -0.309 c 0 0 0.578 0.457 1.387 0.746 c 0.805 0.289 1 0.133 1 0.133 c 0 0 -0.039 -0.281 -0.848 -0.57" fill="url(#15)"/><path d="m 7.797 10.04 c 0.805 0.293 1.383 0.746 1.383 0.746 c 0 0 -0.734 -0.016 -1.543 -0.309 c -0.805 -0.289 -0.859 -0.531 -0.859 -0.531 c 0 0 0.207 -0.195 1.02 0.094" fill="url(#16)"/><path d="m 12.02 8.06 c -0.289 0.801 -0.309 1.535 -0.309 1.535 c 0 0 0.457 -0.578 0.75 -1.379 c 0.293 -0.805 0.133 -1 0.133 -1 c 0 0 -0.281 0.043 -0.574 0.848" fill="url(#17)"/><path d="m 9.621 14.684 c 0.293 -0.805 0.75 -1.383 0.75 -1.383 c 0 0 -0.02 0.734 -0.309 1.539 c -0.293 0.801 -0.535 0.855 -0.535 0.855 c 0 0 -0.199 -0.203 0.094 -1.012" fill="url(#18)"/><path d="m 13.586 9 c -0.652 0.555 -1.039 1.18 -1.039 1.18 c 0 0 0.684 -0.273 1.34 -0.824 c 0.656 -0.551 0.621 -0.797 0.621 -0.797 c 0 0 -0.262 -0.113 -0.922 0.441" fill="url(#19)"/><path d="m 8.191 13.543 c 0.652 -0.555 1.34 -0.824 1.34 -0.824 c 0 0 -0.383 0.629 -1.039 1.18 c -0.66 0.555 -0.895 0.477 -0.895 0.477 c 0 0 -0.066 -0.277 0.594 -0.832" fill="url(#1A)"/><path d="m 8.582 8.914 c 0.555 0.652 1.184 1.035 1.184 1.035 c 0 0 -0.273 -0.676 -0.828 -1.336 c -0.555 -0.652 -0.801 -0.613 -0.801 -0.613 c 0 0 -0.113 0.258 0.445 0.914" fill="url(#1B)"/><path d="m 13.145 14.289 c -0.559 -0.652 -0.828 -1.336 -0.828 -1.336 c 0 0 0.629 0.379 1.188 1.035 c 0.555 0.652 0.473 0.891 0.473 0.891 c 0 0 -0.277 0.066 -0.832 -0.59" fill="url(#1C)"/><path d="m 14.477 10.598 c -0.848 0.152 -1.488 0.504 -1.488 0.504 c 0 0 0.727 0.109 1.574 -0.043 c 0.848 -0.152 0.938 -0.383 0.938 -0.383 c 0 0 -0.176 -0.23 -1.023 -0.078" fill="url(#1D)"/><path d="m 7.516 11.844 c 0.848 -0.152 1.578 -0.043 1.578 -0.043 c 0 0 -0.648 0.352 -1.492 0.504 c -0.848 0.152 -1.012 -0.035 -1.012 -0.035 c 0 0 0.082 -0.273 0.926 -0.426" fill="url(#1E)"/><path d="m 10.188 8.03 c 0.152 0.844 0.508 1.48 0.508 1.48 c 0 0 0.105 -0.723 -0.047 -1.566 c -0.152 -0.844 -0.387 -0.934 -0.387 -0.934 c 0 0 -0.227 0.172 -0.074 1.02" fill="url(#1F)"/><path d="m 11.434 14.957 c -0.152 -0.844 -0.043 -1.566 -0.043 -1.566 c 0 0 0.352 0.645 0.504 1.484 c 0.152 0.844 -0.035 1.01 -0.035 1.01 c 0 0 -0.273 -0.086 -0.426 -0.926" fill="url(#1G)"/><g fill="#010101"><path d="m 11.238 14.18 c 0 -0.176 -0.195 -0.473 -0.195 -0.473 c 0 0 -0.188 0.297 -0.188 0.473 c 0 0.18 0.086 0.328 0.191 0.328 c 0.109 0 0.191 -0.148 0.191 -0.328"/><path d="m 10.363 14.449 c 0.059 -0.168 -0.039 -0.508 -0.039 -0.508 c 0 0 -0.273 0.219 -0.324 0.391 c -0.059 0.172 -0.023 0.336 0.078 0.371 c 0.098 0.031 0.227 -0.078 0.285 -0.254"/><path d="m 9.34 13.492 c 0.125 -0.129 0.188 -0.477 0.188 -0.477 c 0 0 -0.34 0.086 -0.469 0.215 c -0.125 0.129 -0.16 0.293 -0.082 0.367 c 0.074 0.074 0.242 0.023 0.363 -0.105"/><path d="m 8.496 13.566 c 0.129 -0.125 0.211 -0.465 0.211 -0.465 c 0 0 -0.348 0.066 -0.477 0.191 c -0.129 0.125 -0.18 0.285 -0.102 0.359 c 0.07 0.078 0.23 0.039 0.367 -0.086"/><path d="m 9.629 14.859 c 0.074 -0.164 0.016 -0.512 0.016 -0.512 c 0 0 -0.293 0.195 -0.363 0.359 c -0.074 0.168 -0.055 0.336 0.043 0.375 c 0.102 0.043 0.234 -0.055 0.305 -0.223"/><path d="m 12.13 14.781 c -0.051 -0.176 -0.32 -0.402 -0.32 -0.402 c 0 0 -0.098 0.336 -0.047 0.508 c 0.047 0.176 0.168 0.293 0.273 0.266 c 0.102 -0.039 0.145 -0.199 0.094 -0.371"/><path d="m 12.426 13.676 c -0.094 -0.152 -0.414 -0.305 -0.414 -0.305 c 0 0 -0.008 0.352 0.09 0.508 c 0.094 0.152 0.246 0.23 0.336 0.176 c 0.086 -0.055 0.082 -0.227 -0.012 -0.379"/><path d="m 13.238 14.05 c -0.105 -0.145 -0.426 -0.285 -0.426 -0.285 c 0 0 0.008 0.348 0.109 0.5 c 0.105 0.148 0.258 0.223 0.344 0.16 c 0.086 -0.059 0.07 -0.227 -0.027 -0.375"/><path d="m 13.309 12.777 c -0.148 -0.105 -0.496 -0.121 -0.496 -0.121 c 0 0 0.129 0.328 0.277 0.43 c 0.148 0.109 0.313 0.121 0.375 0.035 c 0.066 -0.082 -0.008 -0.234 -0.156 -0.344"/><path d="m 13.969 12.563 c -0.164 -0.07 -0.516 -0.012 -0.516 -0.012 c 0 0 0.199 0.289 0.363 0.363 c 0.168 0.07 0.336 0.051 0.379 -0.047 c 0.039 -0.094 -0.059 -0.23 -0.227 -0.305"/><path d="m 14.508 11.992 c -0.18 -0.027 -0.504 0.117 -0.504 0.117 c 0 0 0.262 0.23 0.441 0.258 c 0.18 0.027 0.336 -0.031 0.355 -0.133 c 0.016 -0.105 -0.113 -0.211 -0.293 -0.242"/><path d="m 8.371 12.801 c 0.164 -0.074 0.352 -0.371 0.352 -0.371 c 0 0 -0.344 -0.047 -0.512 0.027 c -0.164 0.074 -0.262 0.215 -0.219 0.309 c 0.047 0.094 0.215 0.109 0.379 0.035"/><path d="m 10.859 8.652 c 0 0.176 0.191 0.473 0.191 0.473 c 0 0 0.191 -0.297 0.191 -0.473 c 0 -0.18 -0.086 -0.328 -0.195 -0.328 c -0.102 0 -0.188 0.148 -0.188 0.328"/><path d="m 11.734 8.383 c -0.059 0.168 0.035 0.508 0.035 0.508 c 0 0 0.273 -0.219 0.328 -0.391 c 0.059 -0.172 0.023 -0.336 -0.082 -0.371 c -0.102 -0.031 -0.227 0.082 -0.281 0.254"/><path d="m 12.754 9.344 c -0.125 0.129 -0.188 0.477 -0.188 0.477 c 0 0 0.34 -0.086 0.465 -0.215 c 0.125 -0.129 0.16 -0.293 0.086 -0.363 c -0.078 -0.078 -0.238 -0.031 -0.363 0.102"/><path d="m 14.379 10.863 c -0.18 0.016 -0.453 0.238 -0.453 0.238 c 0 0 0.313 0.156 0.492 0.141 c 0.18 -0.02 0.32 -0.121 0.305 -0.223 c -0.008 -0.109 -0.164 -0.18 -0.344 -0.156"/><path d="m 13.602 9.273 c -0.129 0.125 -0.211 0.461 -0.211 0.461 c 0 0 0.344 -0.066 0.477 -0.191 c 0.129 -0.125 0.18 -0.285 0.102 -0.359 c -0.07 -0.078 -0.238 -0.039 -0.367 0.09"/><path d="m 12.461 7.977 c -0.07 0.164 -0.012 0.512 -0.012 0.512 c 0 0 0.289 -0.195 0.363 -0.359 c 0.07 -0.168 0.055 -0.336 -0.047 -0.375 c -0.098 -0.047 -0.23 0.059 -0.305 0.223"/><path d="m 9.969 8.05 c 0.047 0.176 0.316 0.402 0.316 0.402 c 0 0 0.098 -0.336 0.051 -0.508 c -0.051 -0.176 -0.172 -0.293 -0.273 -0.266 c -0.105 0.039 -0.145 0.203 -0.094 0.371"/><path d="m 9.672 9.156 c 0.094 0.152 0.41 0.305 0.41 0.305 c 0 0 0.012 -0.352 -0.09 -0.508 c -0.094 -0.152 -0.246 -0.23 -0.336 -0.176 c -0.086 0.055 -0.086 0.227 0.016 0.379"/><path d="m 8.781 10.05 c 0.148 0.105 0.5 0.121 0.5 0.121 c 0 0 -0.133 -0.328 -0.277 -0.43 c -0.148 -0.109 -0.316 -0.121 -0.379 -0.035 c -0.059 0.082 0.016 0.238 0.156 0.344"/><path d="m 7.59 10.84 c 0.18 0.027 0.5 -0.117 0.5 -0.117 c 0 0 -0.258 -0.23 -0.437 -0.258 c -0.18 -0.027 -0.336 0.031 -0.355 0.133 c -0.023 0.109 0.113 0.215 0.293 0.242"/><path d="m 13.723 10.03 c -0.168 0.074 -0.355 0.371 -0.355 0.371 c 0 0 0.348 0.047 0.512 -0.027 c 0.168 -0.074 0.266 -0.215 0.219 -0.309 c -0.043 -0.094 -0.211 -0.109 -0.375 -0.035"/><path d="m 8.703 8.906 c 0.121 0.133 0.461 0.223 0.461 0.223 c 0 0 -0.059 -0.344 -0.18 -0.477 c -0.121 -0.137 -0.281 -0.184 -0.363 -0.117 c -0.07 0.07 -0.039 0.234 0.082 0.371"/><path d="m 7.367 10 c 0.168 0.078 0.512 0.027 0.512 0.027 c 0 0 -0.188 -0.297 -0.348 -0.371 c -0.168 -0.074 -0.332 -0.063 -0.379 0.035 c -0.043 0.09 0.055 0.234 0.215 0.309"/><path d="m 7.383 12.488 c 0.176 -0.043 0.414 -0.305 0.414 -0.305 c 0 0 -0.332 -0.109 -0.508 -0.063 c -0.176 0.047 -0.297 0.168 -0.27 0.266 c 0.023 0.102 0.188 0.145 0.363 0.102"/><path d="m 8.48 12.813 c 0.16 -0.086 0.32 -0.398 0.32 -0.398 c 0 0 -0.352 -0.02 -0.508 0.07 c -0.156 0.09 -0.242 0.234 -0.188 0.324 c 0.047 0.094 0.219 0.094 0.375 0.004"/><path d="m 8.121 11.645 c 0.18 0 0.477 -0.191 0.477 -0.191 c 0 0 -0.297 -0.188 -0.477 -0.188 c -0.18 0 -0.324 0.082 -0.324 0.191 c 0 0.102 0.145 0.188 0.324 0.188"/></g></svg>