<svg xmlns="http://www.w3.org/2000/svg" viewBox="0 0 22 22"><path d="m 13.613 21.559 c 20.441 -4.238 -1.504 -33.406 -11.895 -15.887 c -4.453 6.809 1.379 18.07 11.895 15.887" fill="#2f4e4e"/><g fill="#fff"><path d="m 12.969 16.418 c 0.52 0.551 1.336 0.594 1.91 0.145 l -0.602 -0.637 c -0.234 0.121 -0.516 0.078 -0.715 -0.133 l -2.66 -2.816 c -0.199 -0.207 -0.242 -0.508 -0.125 -0.758 l -0.602 -0.633 c -0.426 0.605 -0.383 1.469 0.133 2.02 m 6.789 4.68 c 0.105 -0.094 0.207 -0.195 0.305 -0.301 c 0.102 -0.105 0.195 -0.215 0.289 -0.324 l -3.316 -3.508 c -0.105 -0.117 -0.262 -0.16 -0.406 -0.121 c -0.145 0.039 -0.262 0.16 -0.297 0.316 c -0.039 0.152 0.004 0.316 0.113 0.43 m -1.895 -2 c 0.172 0.164 0.434 0.152 0.59 -0.031 c 0.156 -0.18 0.145 -0.461 -0.027 -0.625 l -3.316 -3.508 c -0.102 0.094 -0.203 0.195 -0.305 0.301 c -0.098 0.105 -0.195 0.215 -0.285 0.324 l 3.316 3.508 c 0.008 0.012 0.016 0.02 0.027 0.031 m 4.168 2.535 c 0.43 -0.605 0.387 -1.469 -0.133 -2.02 l -2.66 -2.813 c -0.52 -0.551 -1.336 -0.594 -1.906 -0.145 l 0.602 0.637 c 0.23 -0.121 0.516 -0.078 0.715 0.133 l 2.66 2.816 c 0.199 0.207 0.238 0.508 0.125 0.758"/><path d="m 5.477 8.582 c -0.547 0.523 -0.594 1.352 -0.141 1.926 l 0.633 -0.605 c -0.121 -0.234 -0.078 -0.523 0.133 -0.723 l 2.816 -2.684 c 0.211 -0.203 0.512 -0.246 0.758 -0.129 l 0.637 -0.605 c -0.605 -0.43 -1.473 -0.387 -2.02 0.137 m -4.684 6.852 c 0.098 0.105 0.199 0.211 0.305 0.309 c 0.102 0.102 0.211 0.199 0.32 0.289 l 3.512 -3.348 c 0.113 -0.105 0.16 -0.262 0.117 -0.41 c -0.039 -0.148 -0.16 -0.262 -0.313 -0.301 c -0.156 -0.039 -0.32 0.004 -0.434 0.113 m 2 -1.91 c -0.105 0.113 -0.145 0.27 -0.094 0.414 c 0.047 0.145 0.172 0.254 0.328 0.285 c 0.156 0.031 0.316 -0.016 0.422 -0.129 l 3.512 -3.348 c -0.098 -0.105 -0.199 -0.207 -0.305 -0.309 c -0.105 -0.102 -0.211 -0.195 -0.324 -0.289 l -3.508 3.348 c -0.012 0.008 -0.02 0.02 -0.031 0.027 m -2.535 4.211 c 0.605 0.43 1.469 0.387 2.02 -0.137 l 2.816 -2.684 c 0.547 -0.523 0.59 -1.348 0.141 -1.926 l -0.637 0.605 c 0.125 0.234 0.078 0.523 -0.133 0.723 l -2.812 2.688 c -0.211 0.199 -0.512 0.242 -0.758 0.125"/></g></svg>