<svg xmlns="http://www.w3.org/2000/svg" viewBox="0 0 22 22"><path d="m 4.719 19.758 c 16.238 10.848 26.24 -23.742 5.25 -19.16 c -8.676 1.953 -13.941 14.191 -5.25 19.16" fill="#dcdcdc"/><path d="m 5.852 16.797 c -0.23 -0.055 -0.223 0.066 -0.223 -3.594 c 0 -3.867 -0.027 -3.574 0.352 -3.574 c 0.098 -0.004 0.191 -0.02 0.203 -0.039 c 0.023 -0.031 0.313 -1.461 0.668 -3.27 c 0.09 -0.465 0.184 -0.805 0.227 -0.855 c 0.066 -0.066 0.172 -0.078 0.777 -0.078 h 0.699 l 0.129 0.191 c 0.074 0.109 0.223 0.41 0.336 0.676 c 0.113 0.262 0.242 0.559 0.289 0.66 l 0.086 0.184 l 0.109 -0.23 c 0.059 -0.125 0.164 -0.34 0.234 -0.477 c 0.07 -0.141 0.172 -0.367 0.227 -0.512 c 0.059 -0.141 0.148 -0.309 0.203 -0.375 c 0.098 -0.117 0.105 -0.117 0.793 -0.117 c 0.609 0 0.707 0.012 0.777 0.082 c 0.105 0.109 0.191 0.461 0.375 1.559 c 0.387 2.309 0.461 2.668 0.551 2.684 c 0.047 0.008 0.125 0 0.168 -0.016 c 0.066 -0.023 0.055 -0.047 -0.074 -0.145 c -0.113 -0.078 -0.16 -0.152 -0.16 -0.238 c 0 -0.188 0.582 -1.074 0.715 -1.09 c 0.059 -0.008 0.219 0.063 0.375 0.164 c 0.34 0.223 0.656 0.309 0.891 0.234 c 0.09 -0.027 0.164 -0.078 0.164 -0.113 c 0 -0.086 -0.121 -0.141 -0.613 -0.273 c -0.688 -0.188 -1.02 -0.395 -1.227 -0.773 c -0.184 -0.324 -0.184 -0.848 -0.004 -1.211 c 0.23 -0.465 0.578 -0.742 1.113 -0.891 c 0.289 -0.078 1 -0.066 1.434 0.023 c 0.281 0.059 0.766 0.258 0.82 0.336 c 0.078 0.117 0.023 0.297 -0.203 0.695 c -0.293 0.508 -0.363 0.543 -0.773 0.371 c -0.273 -0.113 -0.691 -0.168 -0.691 -0.086 c 0 0.055 0.281 0.18 0.633 0.289 c 0.629 0.191 0.984 0.434 1.199 0.824 c 0.121 0.219 0.145 0.695 0.051 1 c -0.09 0.289 -0.379 0.676 -0.637 0.844 l -0.172 0.117 l 0.391 0.23 c 0.418 0.242 0.875 0.684 0.996 0.957 c 0.129 0.293 0.082 0.559 -0.152 0.82 c -0.156 0.18 -0.445 0.348 -0.59 0.348 c -0.199 0 -0.57 -0.141 -1.02 -0.391 c -0.418 -0.234 -0.797 -0.406 -0.797 -0.367 c 0 0.008 0.055 0.133 0.121 0.273 c 0.066 0.145 0.121 0.289 0.121 0.324 c 0 0.063 0.586 0.348 1.414 0.691 c 0.867 0.359 1.289 1 1.281 1.953 c -0.008 0.652 -0.238 1.164 -0.688 1.516 c -0.359 0.285 -0.637 0.398 -1.375 0.559 c -0.973 0.215 -1.438 0.176 -2.223 -0.188 c -0.078 -0.035 -0.137 -0.031 -0.25 0.023 c -0.277 0.133 -0.992 0.301 -1.289 0.301 c -0.363 0 -0.773 -0.094 -1.293 -0.301 l -0.402 -0.16 l -0.207 0.156 c -0.414 0.316 -0.348 0.305 -2.141 0.301 c -0.895 -0.004 -1.668 -0.016 -1.719 -0.027 m 2.824 -1.961 c -0.281 -0.637 -0.387 -1.184 -0.348 -1.789 c 0.02 -0.266 0.047 -0.559 0.063 -0.652 l 0.027 -0.172 h -0.789 v 2.691 h 0.539 c 0.5 0 0.539 -0.008 0.508 -0.078 m 3.324 -0.855 c 0.172 -0.246 0.234 -0.301 0.406 -0.348 c 0.137 -0.039 0.219 -0.094 0.246 -0.168 c 0.07 -0.172 0.055 -0.223 -0.105 -0.285 c -0.082 -0.031 -0.266 -0.172 -0.414 -0.313 c -0.301 -0.285 -0.461 -0.613 -0.461 -0.945 c 0 -0.188 -0.008 -0.203 -0.109 -0.191 c -0.105 0.016 -0.109 0.027 -0.09 0.473 c 0.016 0.508 -0.047 1.043 -0.199 1.609 c -0.117 0.445 -0.109 0.461 0.281 0.461 l 0.246 0.004 m 3.281 -0.09 c 0.059 -0.035 0.043 -0.055 -0.066 -0.094 c -0.137 -0.047 -0.219 -0.012 -0.223 0.102 c 0 0.047 0.203 0.043 0.289 -0.008 m -4.285 -4.605 c 0 -0.121 -0.121 -0.824 -0.188 -1.098 l -0.039 -0.156 l -0.152 0.277 c -0.168 0.305 -0.5 1.039 -0.496 1.098 c 0 0.02 0.066 0.082 0.148 0.133 l 0.148 0.098 l 0.289 -0.117 c 0.242 -0.102 0.289 -0.141 0.289 -0.234 m -2 -0.047 c 0 -0.023 -0.078 -0.203 -0.176 -0.398 c -0.098 -0.195 -0.23 -0.465 -0.293 -0.598 c -0.066 -0.137 -0.129 -0.238 -0.141 -0.227 c -0.016 0.016 -0.219 1.121 -0.219 1.195 c 0 0.035 0.203 0.059 0.523 0.066 c 0.176 0.004 0.305 -0.012 0.305 -0.039" fill="#aaa"/><path d="m 6.289 16.75 c -0.242 -0.008 -0.488 -0.035 -0.551 -0.066 l -0.109 -0.051 v -3.434 c 0 -2.695 0.016 -3.438 0.063 -3.469 c 0.031 -0.02 0.172 -0.047 0.305 -0.059 l 0.242 -0.023 l 0.254 -1.254 c 0.141 -0.688 0.32 -1.602 0.406 -2.023 c 0.082 -0.426 0.172 -0.809 0.199 -0.855 c 0.043 -0.074 0.117 -0.082 0.715 -0.082 c 0.367 0 0.691 0.016 0.723 0.035 c 0.074 0.043 0.25 0.371 0.391 0.734 c 0.207 0.516 0.426 0.965 0.469 0.949 c 0.043 -0.012 0.449 -0.824 0.656 -1.309 c 0.07 -0.164 0.148 -0.324 0.172 -0.355 c 0.035 -0.039 0.25 -0.055 0.754 -0.055 h 0.703 l 0.063 0.148 c 0.059 0.133 0.332 1.602 0.539 2.883 c 0.188 1.16 0.223 1.297 0.352 1.328 c 0.121 0.027 0.406 -0.059 0.406 -0.125 c 0 -0.023 -0.066 -0.07 -0.148 -0.109 c -0.238 -0.117 -0.273 -0.246 -0.133 -0.508 c 0.18 -0.336 0.473 -0.75 0.551 -0.777 c 0.039 -0.012 0.203 0.059 0.367 0.164 c 0.164 0.102 0.387 0.207 0.496 0.234 c 0.32 0.082 0.621 -0.008 0.621 -0.184 c 0 -0.125 -0.102 -0.176 -0.52 -0.277 c -0.789 -0.195 -1.234 -0.48 -1.387 -0.891 c -0.102 -0.281 -0.074 -0.797 0.059 -1.055 c 0.32 -0.621 1.027 -1 1.777 -0.961 c 0.656 0.039 1.492 0.32 1.523 0.52 c 0.02 0.125 -0.41 0.871 -0.555 0.957 c -0.102 0.063 -0.133 0.059 -0.367 -0.051 c -0.277 -0.133 -0.68 -0.176 -0.781 -0.082 c -0.098 0.094 0.031 0.18 0.461 0.313 c 0.879 0.273 1.16 0.453 1.379 0.887 c 0.109 0.211 0.109 0.727 0 1.031 c -0.094 0.266 -0.488 0.707 -0.711 0.793 c -0.191 0.074 -0.188 0.121 0.008 0.199 c 0.559 0.219 1.172 0.75 1.336 1.156 c 0.113 0.277 0.031 0.512 -0.273 0.797 c -0.211 0.203 -0.25 0.219 -0.469 0.219 c -0.25 -0.004 -0.441 -0.082 -1.25 -0.508 c -0.445 -0.238 -0.602 -0.285 -0.586 -0.176 c 0.004 0.035 0.07 0.211 0.145 0.383 c 0.156 0.359 0.277 0.453 0.926 0.711 c 0.789 0.309 0.902 0.363 1.18 0.566 c 0.324 0.234 0.508 0.535 0.617 1.027 c 0.133 0.586 0.063 1.094 -0.23 1.605 c -0.156 0.273 -0.484 0.559 -0.82 0.719 c -0.328 0.156 -1.172 0.332 -1.711 0.355 c -0.547 0.023 -0.672 0 -1.18 -0.207 l -0.281 -0.113 l -0.473 0.152 c -0.844 0.273 -1.535 0.234 -2.34 -0.121 l -0.355 -0.16 l -0.195 0.16 c -0.402 0.32 -0.422 0.324 -1.773 0.324 c -0.672 0.004 -1.418 0 -1.656 -0.012 m 2.441 -1.898 c -0.012 -0.055 -0.082 -0.242 -0.148 -0.422 c -0.223 -0.582 -0.273 -1.246 -0.152 -1.887 c 0.039 -0.188 0.051 -0.355 0.031 -0.379 c -0.02 -0.02 -0.223 -0.027 -0.445 -0.02 l -0.41 0.012 l -0.016 1.398 l -0.012 1.402 l 0.523 0.012 c 0.625 0.016 0.664 0.008 0.629 -0.117 m 2.988 -0.512 c 0.109 -0.023 0.172 -0.066 0.207 -0.148 c 0.086 -0.219 0.293 -0.426 0.516 -0.516 c 0.16 -0.066 0.234 -0.133 0.289 -0.254 c 0.082 -0.188 0.102 -0.16 -0.277 -0.375 c -0.449 -0.254 -0.73 -0.727 -0.73 -1.219 c 0 -0.16 -0.016 -0.195 -0.09 -0.195 c -0.047 0 -0.129 0.027 -0.176 0.059 c -0.074 0.055 -0.086 0.109 -0.066 0.379 c 0.035 0.461 -0.035 1.113 -0.184 1.676 c -0.07 0.273 -0.109 0.512 -0.086 0.531 c 0.035 0.031 0.113 0.051 0.387 0.082 c 0.031 0.004 0.125 -0.004 0.211 -0.02 m 3.426 -0.117 c 0.133 -0.063 0.105 -0.109 -0.105 -0.188 c -0.145 -0.051 -0.207 -0.055 -0.238 -0.016 c -0.043 0.047 -0.074 0.188 -0.063 0.273 c 0.008 0.039 0.273 -0.004 0.406 -0.07 m -4.605 -4.355 c 0.164 -0.07 0.309 -0.148 0.32 -0.172 c 0.027 -0.07 -0.211 -1.453 -0.258 -1.5 c -0.027 -0.023 -0.129 0.129 -0.246 0.363 c -0.23 0.461 -0.535 1.117 -0.535 1.16 c 0 0.031 0.348 0.273 0.391 0.273 c 0.012 0 0.16 -0.059 0.328 -0.125 m -1.691 -0.313 c 0 -0.125 -0.648 -1.438 -0.691 -1.398 c -0.051 0.047 -0.289 1.379 -0.258 1.43 c 0.016 0.023 0.234 0.039 0.488 0.039 c 0.387 0 0.461 -0.012 0.461 -0.07 m 6.172 -0.133 c 0.328 -0.09 0.695 -0.328 0.813 -0.52 c 0.141 -0.223 0.164 -0.75 0.047 -0.961 c -0.113 -0.207 -0.488 -0.418 -0.926 -0.523 c -0.707 -0.168 -0.941 -0.336 -0.941 -0.684 c 0 -0.469 0.484 -0.676 1.172 -0.504 c 0.145 0.035 0.281 0.066 0.301 0.066 c 0.039 0 0.199 -0.32 0.172 -0.344 c -0.008 -0.008 -0.199 -0.059 -0.426 -0.113 c -0.777 -0.188 -1.309 -0.102 -1.672 0.277 c -0.25 0.258 -0.305 0.445 -0.266 0.91 c 0.031 0.43 0.184 0.543 1.012 0.754 c 0.426 0.109 0.645 0.215 0.797 0.387 c 0.234 0.262 0.117 0.637 -0.262 0.828 c -0.262 0.137 -0.73 0.098 -1.113 -0.086 c -0.32 -0.152 -0.32 -0.152 -0.465 0.117 c -0.102 0.184 -0.063 0.238 0.234 0.344 c 0.488 0.176 1.023 0.191 1.523 0.051 m -7.637 -0.051 c 0.047 -0.047 0.344 -1.629 0.344 -1.832 c 0 -0.582 0.445 -0.602 0.664 -0.027 c 0.055 0.148 0.191 0.441 0.297 0.656 c 0.109 0.211 0.27 0.555 0.352 0.762 c 0.086 0.207 0.191 0.41 0.23 0.449 c 0.133 0.121 0.109 0.168 0.898 -1.523 c 0.383 -0.82 0.441 -0.883 0.672 -0.703 c 0.105 0.086 0.223 0.676 0.344 1.742 c 0.031 0.277 0.078 0.492 0.113 0.512 c 0.055 0.035 0.551 0.004 0.625 -0.035 c 0.016 -0.008 -0.023 -0.289 -0.082 -0.621 c -0.176 -0.941 -0.297 -1.648 -0.387 -2.246 c -0.047 -0.301 -0.098 -0.563 -0.113 -0.578 c -0.02 -0.02 -0.207 -0.047 -0.422 -0.063 l -0.391 -0.031 l -0.207 0.41 c -0.113 0.23 -0.258 0.543 -0.32 0.703 c -0.063 0.156 -0.207 0.457 -0.316 0.664 c -0.168 0.313 -0.223 0.375 -0.32 0.375 c -0.063 0 -0.137 -0.027 -0.168 -0.063 c -0.047 -0.051 -0.375 -0.789 -0.809 -1.805 l -0.105 -0.25 l -0.406 -0.016 c -0.223 -0.008 -0.426 0.004 -0.445 0.023 c -0.02 0.02 -0.063 0.199 -0.09 0.402 c -0.031 0.199 -0.16 0.887 -0.293 1.523 c -0.262 1.285 -0.309 1.57 -0.258 1.617 c 0.047 0.047 0.539 0.008 0.594 -0.047" fill="#dede00"/><path d="m 6.289 16.75 c -0.242 -0.008 -0.488 -0.035 -0.551 -0.066 l -0.109 -0.051 v -3.434 c 0 -2.695 0.016 -3.438 0.063 -3.469 c 0.031 -0.02 0.172 -0.047 0.305 -0.059 l 0.242 -0.023 l 0.254 -1.254 c 0.141 -0.688 0.32 -1.602 0.406 -2.023 c 0.082 -0.426 0.172 -0.809 0.199 -0.855 c 0.043 -0.074 0.117 -0.082 0.715 -0.082 c 0.367 0 0.691 0.016 0.723 0.035 c 0.074 0.043 0.25 0.371 0.391 0.734 c 0.207 0.516 0.426 0.965 0.469 0.949 c 0.043 -0.012 0.449 -0.824 0.656 -1.309 c 0.07 -0.164 0.148 -0.324 0.172 -0.355 c 0.035 -0.039 0.25 -0.055 0.754 -0.055 h 0.703 l 0.063 0.148 c 0.059 0.133 0.332 1.602 0.539 2.883 c 0.188 1.16 0.223 1.297 0.352 1.328 c 0.121 0.027 0.406 -0.059 0.406 -0.125 c 0 -0.023 -0.066 -0.07 -0.148 -0.109 c -0.238 -0.117 -0.273 -0.246 -0.133 -0.508 c 0.18 -0.336 0.473 -0.75 0.551 -0.777 c 0.039 -0.012 0.203 0.059 0.367 0.164 c 0.164 0.102 0.387 0.207 0.496 0.234 c 0.32 0.082 0.621 -0.008 0.621 -0.184 c 0 -0.125 -0.102 -0.176 -0.52 -0.277 c -0.789 -0.195 -1.234 -0.48 -1.387 -0.891 c -0.102 -0.281 -0.074 -0.797 0.059 -1.055 c 0.32 -0.621 1.027 -1 1.777 -0.961 c 0.656 0.039 1.492 0.32 1.523 0.52 c 0.02 0.125 -0.41 0.871 -0.555 0.957 c -0.102 0.063 -0.133 0.059 -0.367 -0.051 c -0.277 -0.133 -0.68 -0.176 -0.781 -0.082 c -0.098 0.094 0.031 0.18 0.461 0.313 c 0.879 0.273 1.16 0.453 1.379 0.887 c 0.109 0.211 0.109 0.727 0 1.031 c -0.094 0.266 -0.488 0.707 -0.711 0.793 c -0.191 0.074 -0.188 0.121 0.008 0.199 c 0.559 0.219 1.172 0.75 1.336 1.156 c 0.113 0.277 0.031 0.512 -0.273 0.797 c -0.211 0.203 -0.25 0.219 -0.469 0.219 c -0.25 -0.004 -0.441 -0.082 -1.25 -0.508 c -0.445 -0.238 -0.602 -0.285 -0.586 -0.176 c 0.004 0.035 0.07 0.211 0.145 0.383 c 0.156 0.359 0.277 0.453 0.926 0.711 c 0.789 0.309 0.902 0.363 1.18 0.566 c 0.324 0.234 0.508 0.535 0.617 1.027 c 0.133 0.586 0.063 1.094 -0.23 1.605 c -0.156 0.273 -0.484 0.559 -0.82 0.719 c -0.328 0.156 -1.172 0.332 -1.711 0.355 c -0.547 0.023 -0.672 0 -1.18 -0.207 l -0.281 -0.113 l -0.473 0.152 c -0.844 0.273 -1.535 0.234 -2.34 -0.121 l -0.355 -0.16 l -0.195 0.16 c -0.402 0.32 -0.422 0.324 -1.773 0.324 c -0.672 0.004 -1.418 0 -1.656 -0.012 m 8.746 -0.473 c 0.148 -0.027 0.477 -0.109 0.73 -0.191 c 0.387 -0.121 0.5 -0.18 0.68 -0.352 c 0.316 -0.305 0.457 -0.621 0.48 -1.102 c 0.02 -0.313 0 -0.461 -0.082 -0.715 c -0.152 -0.473 -0.391 -0.676 -1.199 -1.016 c -0.809 -0.34 -0.828 -0.34 -0.785 -0.027 c 0.016 0.133 0.031 0.336 0.031 0.457 c 0 0.141 0.02 0.215 0.059 0.215 c 0.137 0 0.559 0.223 0.637 0.336 c 0.242 0.348 0.094 0.605 -0.426 0.734 c -0.625 0.16 -1.297 0.039 -1.934 -0.348 c -0.34 -0.207 -0.641 -0.27 -0.789 -0.168 c -0.176 0.125 -0.238 0.754 -0.102 1.01 c 0.188 0.34 0.777 0.84 1.258 1.059 c 0.434 0.199 0.758 0.223 1.441 0.109 m -6.305 -1.426 c -0.012 -0.055 -0.082 -0.242 -0.148 -0.422 c -0.223 -0.582 -0.277 -1.246 -0.152 -1.887 c 0.035 -0.188 0.051 -0.355 0.031 -0.379 c -0.02 -0.02 -0.223 -0.027 -0.449 -0.02 l -0.41 0.012 l -0.012 1.398 l -0.012 1.402 l 0.523 0.012 c 0.625 0.016 0.664 0.008 0.629 -0.117 m 2.988 -0.512 c 0.109 -0.023 0.172 -0.066 0.203 -0.148 c 0.09 -0.219 0.297 -0.426 0.516 -0.516 c 0.164 -0.066 0.238 -0.133 0.293 -0.254 c 0.082 -0.188 0.102 -0.16 -0.277 -0.375 c -0.449 -0.254 -0.73 -0.727 -0.73 -1.219 c 0 -0.16 -0.02 -0.195 -0.09 -0.195 c -0.047 0 -0.129 0.027 -0.176 0.059 c -0.074 0.055 -0.086 0.109 -0.066 0.379 c 0.035 0.461 -0.035 1.113 -0.184 1.676 c -0.07 0.273 -0.109 0.512 -0.086 0.531 c 0.035 0.031 0.113 0.051 0.387 0.082 c 0.031 0.004 0.125 -0.004 0.211 -0.02 m 3.426 -0.117 c 0.129 -0.063 0.105 -0.109 -0.105 -0.188 c -0.145 -0.051 -0.207 -0.055 -0.242 -0.016 c -0.043 0.047 -0.07 0.188 -0.059 0.273 c 0.004 0.039 0.273 -0.004 0.406 -0.07 m -1.875 -1.684 c 0.23 -0.41 0.254 -0.652 0.094 -0.875 c -0.348 -0.48 -0.098 -0.852 0.563 -0.852 c 0.426 0 0.969 0.184 1.695 0.574 c 0.461 0.246 0.684 0.289 0.82 0.16 c 0.059 -0.051 0.117 -0.152 0.137 -0.219 c 0.047 -0.172 -0.18 -0.563 -0.441 -0.762 c -0.508 -0.387 -0.973 -0.5 -2.125 -0.504 c -0.934 -0.004 -1.055 0.031 -1.406 0.418 c -0.324 0.352 -0.414 0.625 -0.406 1.238 c 0.004 0.387 0.023 0.543 0.082 0.625 c 0.105 0.152 0.656 0.527 0.746 0.508 c 0.043 -0.004 0.148 -0.148 0.242 -0.313 m -2.73 -2.672 c 0.164 -0.07 0.309 -0.148 0.32 -0.172 c 0.027 -0.07 -0.211 -1.453 -0.258 -1.5 c -0.027 -0.023 -0.129 0.129 -0.246 0.363 c -0.23 0.461 -0.535 1.117 -0.535 1.16 c 0 0.031 0.348 0.273 0.391 0.273 c 0.012 0 0.16 -0.059 0.328 -0.125 m -1.691 -0.313 c 0 -0.125 -0.648 -1.438 -0.691 -1.398 c -0.051 0.047 -0.293 1.379 -0.258 1.43 c 0.016 0.023 0.234 0.039 0.488 0.039 c 0.387 0 0.461 -0.012 0.461 -0.07 m 6.172 -0.133 c 0.328 -0.094 0.695 -0.328 0.813 -0.52 c 0.141 -0.223 0.164 -0.75 0.047 -0.965 c -0.113 -0.203 -0.488 -0.414 -0.926 -0.52 c -0.707 -0.168 -0.941 -0.336 -0.941 -0.684 c 0 -0.469 0.484 -0.676 1.172 -0.504 c 0.145 0.035 0.281 0.066 0.301 0.066 c 0.039 0 0.199 -0.32 0.172 -0.344 c -0.008 -0.008 -0.199 -0.059 -0.426 -0.113 c -0.777 -0.188 -1.309 -0.102 -1.676 0.277 c -0.246 0.258 -0.301 0.445 -0.266 0.91 c 0.035 0.43 0.188 0.543 1.016 0.754 c 0.426 0.109 0.645 0.215 0.797 0.387 c 0.234 0.262 0.117 0.637 -0.262 0.828 c -0.262 0.137 -0.73 0.098 -1.113 -0.086 c -0.32 -0.152 -0.32 -0.152 -0.465 0.117 c -0.102 0.184 -0.066 0.238 0.23 0.344 c 0.492 0.176 1.027 0.191 1.527 0.051 m -7.637 -0.051 c 0.047 -0.047 0.344 -1.629 0.344 -1.832 c 0 -0.582 0.445 -0.602 0.664 -0.027 c 0.055 0.148 0.191 0.441 0.297 0.656 c 0.109 0.211 0.27 0.555 0.352 0.762 c 0.086 0.207 0.191 0.41 0.23 0.449 c 0.133 0.121 0.109 0.164 0.898 -1.523 c 0.383 -0.82 0.441 -0.883 0.668 -0.703 c 0.109 0.086 0.227 0.676 0.348 1.742 c 0.031 0.277 0.078 0.492 0.113 0.512 c 0.055 0.035 0.551 0.004 0.625 -0.035 c 0.016 -0.008 -0.023 -0.289 -0.082 -0.621 c -0.176 -0.941 -0.297 -1.648 -0.387 -2.246 c -0.047 -0.301 -0.098 -0.563 -0.113 -0.578 c -0.02 -0.02 -0.207 -0.047 -0.422 -0.063 l -0.391 -0.031 l -0.207 0.41 c -0.113 0.23 -0.258 0.543 -0.32 0.703 c -0.063 0.156 -0.207 0.457 -0.316 0.664 c -0.168 0.313 -0.223 0.375 -0.32 0.375 c -0.063 0 -0.141 -0.027 -0.168 -0.063 c -0.047 -0.051 -0.379 -0.789 -0.809 -1.805 l -0.105 -0.254 l -0.406 -0.012 c -0.223 -0.008 -0.426 0.004 -0.445 0.023 c -0.02 0.02 -0.063 0.199 -0.09 0.402 c -0.031 0.199 -0.16 0.887 -0.293 1.523 c -0.262 1.285 -0.309 1.57 -0.258 1.617 c 0.047 0.047 0.539 0.008 0.594 -0.047" fill="#9000ab"/><path d="m 6.289 16.75 c -0.242 -0.008 -0.488 -0.035 -0.551 -0.066 l -0.109 -0.051 v -3.434 c 0 -2.695 0.016 -3.438 0.063 -3.469 c 0.031 -0.02 0.172 -0.047 0.305 -0.059 l 0.242 -0.023 l 0.254 -1.254 c 0.141 -0.688 0.32 -1.602 0.406 -2.023 c 0.082 -0.426 0.172 -0.809 0.199 -0.855 c 0.043 -0.074 0.117 -0.082 0.715 -0.082 c 0.367 0 0.691 0.016 0.723 0.035 c 0.074 0.043 0.25 0.371 0.391 0.734 c 0.207 0.516 0.426 0.965 0.469 0.949 c 0.043 -0.012 0.449 -0.824 0.656 -1.309 c 0.07 -0.164 0.148 -0.324 0.172 -0.355 c 0.035 -0.039 0.25 -0.055 0.754 -0.055 h 0.703 l 0.063 0.148 c 0.059 0.133 0.332 1.602 0.539 2.883 c 0.188 1.16 0.223 1.297 0.352 1.328 c 0.121 0.027 0.406 -0.059 0.406 -0.125 c 0 -0.023 -0.066 -0.07 -0.148 -0.109 c -0.238 -0.117 -0.273 -0.246 -0.133 -0.508 c 0.18 -0.336 0.473 -0.75 0.551 -0.777 c 0.039 -0.012 0.203 0.059 0.367 0.164 c 0.164 0.102 0.387 0.207 0.496 0.234 c 0.32 0.082 0.621 -0.008 0.621 -0.184 c 0 -0.125 -0.102 -0.176 -0.52 -0.277 c -0.789 -0.195 -1.234 -0.48 -1.387 -0.891 c -0.102 -0.281 -0.074 -0.797 0.059 -1.055 c 0.32 -0.621 1.027 -1 1.777 -0.961 c 0.656 0.039 1.492 0.32 1.523 0.52 c 0.02 0.125 -0.41 0.871 -0.555 0.957 c -0.102 0.063 -0.133 0.059 -0.367 -0.051 c -0.277 -0.133 -0.68 -0.176 -0.781 -0.082 c -0.098 0.094 0.031 0.18 0.461 0.313 c 0.879 0.273 1.16 0.453 1.379 0.887 c 0.109 0.211 0.109 0.727 0 1.031 c -0.094 0.266 -0.488 0.707 -0.711 0.793 c -0.191 0.074 -0.188 0.121 0.008 0.199 c 0.559 0.219 1.172 0.75 1.336 1.156 c 0.113 0.277 0.031 0.512 -0.273 0.797 c -0.211 0.203 -0.25 0.219 -0.469 0.219 c -0.25 -0.004 -0.441 -0.082 -1.25 -0.508 c -0.445 -0.238 -0.602 -0.285 -0.586 -0.176 c 0.004 0.035 0.07 0.211 0.145 0.383 c 0.156 0.359 0.277 0.453 0.926 0.711 c 0.789 0.309 0.902 0.363 1.18 0.566 c 0.324 0.234 0.508 0.535 0.617 1.027 c 0.133 0.586 0.063 1.094 -0.23 1.605 c -0.156 0.273 -0.484 0.559 -0.82 0.719 c -0.328 0.156 -1.172 0.332 -1.711 0.355 c -0.547 0.023 -0.672 0 -1.18 -0.207 l -0.281 -0.113 l -0.473 0.152 c -0.844 0.273 -1.535 0.234 -2.34 -0.121 l -0.355 -0.16 l -0.195 0.16 c -0.402 0.32 -0.422 0.324 -1.773 0.324 c -0.672 0.004 -1.418 0 -1.656 -0.012 m 8.746 -0.473 c 0.148 -0.027 0.477 -0.109 0.73 -0.191 c 0.387 -0.121 0.5 -0.18 0.68 -0.352 c 0.316 -0.305 0.457 -0.621 0.48 -1.102 c 0.02 -0.313 0 -0.461 -0.082 -0.715 c -0.152 -0.473 -0.391 -0.676 -1.199 -1.016 c -0.809 -0.34 -0.828 -0.34 -0.785 -0.027 c 0.016 0.133 0.031 0.336 0.031 0.457 c 0 0.141 0.02 0.215 0.059 0.215 c 0.137 0 0.559 0.223 0.637 0.336 c 0.242 0.348 0.094 0.605 -0.426 0.734 c -0.625 0.16 -1.297 0.039 -1.934 -0.348 c -0.34 -0.207 -0.641 -0.27 -0.789 -0.168 c -0.176 0.125 -0.238 0.754 -0.102 1.01 c 0.188 0.34 0.777 0.84 1.258 1.059 c 0.434 0.199 0.758 0.223 1.441 0.109 m -3.582 -0.363 c 0.461 -0.063 0.707 -0.125 0.707 -0.188 c 0 -0.027 -0.055 -0.121 -0.125 -0.203 c -0.137 -0.172 -0.266 -0.477 -0.266 -0.637 c 0 -0.098 -0.02 -0.109 -0.23 -0.109 c -0.129 0 -0.313 -0.012 -0.41 -0.027 l -0.18 -0.027 l -0.219 0.426 c -0.125 0.234 -0.27 0.492 -0.328 0.574 c -0.113 0.16 -0.102 0.176 0.172 0.207 c 0.281 0.035 0.539 0.031 0.879 -0.016 m -2.723 -1.063 c -0.012 -0.055 -0.082 -0.242 -0.148 -0.422 c -0.223 -0.582 -0.277 -1.246 -0.152 -1.887 c 0.039 -0.188 0.051 -0.355 0.031 -0.379 c -0.02 -0.02 -0.223 -0.027 -0.449 -0.02 l -0.406 0.012 l -0.016 1.398 l -0.012 1.402 l 0.523 0.012 c 0.625 0.016 0.664 0.008 0.629 -0.117 m 0.602 -0.555 c 0.105 -0.203 0.121 -0.301 0.148 -0.977 c 0.023 -0.668 0.039 -0.777 0.137 -0.949 c 0.531 -0.945 1.211 -1.469 1.898 -1.469 h 0.285 l 0.207 -0.371 c 0.113 -0.203 0.195 -0.379 0.184 -0.391 c -0.012 -0.012 -0.184 -0.031 -0.379 -0.047 c -0.43 -0.027 -1.035 0.098 -1.383 0.289 c -0.523 0.285 -1.156 1.027 -1.359 1.59 c -0.148 0.402 -0.238 1.027 -0.207 1.438 c 0.027 0.359 0.148 1.016 0.211 1.105 c 0.051 0.078 0.141 0.004 0.258 -0.219 m 2.387 0.043 c 0.109 -0.023 0.172 -0.066 0.203 -0.148 c 0.09 -0.219 0.297 -0.426 0.516 -0.516 c 0.164 -0.066 0.238 -0.133 0.293 -0.254 c 0.082 -0.188 0.102 -0.16 -0.277 -0.375 c -0.449 -0.254 -0.73 -0.727 -0.73 -1.219 c 0 -0.16 -0.02 -0.195 -0.09 -0.195 c -0.047 0 -0.129 0.027 -0.176 0.059 c -0.074 0.055 -0.086 0.109 -0.066 0.379 c 0.035 0.461 -0.035 1.113 -0.184 1.676 c -0.07 0.273 -0.109 0.512 -0.086 0.531 c 0.035 0.031 0.113 0.051 0.387 0.082 c 0.031 0.004 0.125 -0.004 0.211 -0.02 m 3.426 -0.117 c 0.129 -0.063 0.105 -0.109 -0.105 -0.188 c -0.145 -0.051 -0.207 -0.055 -0.242 -0.016 c -0.043 0.047 -0.07 0.188 -0.059 0.273 c 0.004 0.039 0.273 -0.004 0.406 -0.07 m -0.93 -0.297 c 0.262 -0.551 0.172 -1.645 -0.188 -2.309 c -0.145 -0.266 -0.188 -0.254 -0.105 0.027 c 0.113 0.398 -0.043 0.863 -0.543 1.629 c -0.27 0.414 -0.266 0.402 -0.141 0.5 c 0.152 0.117 0.676 0.359 0.789 0.363 c 0.059 0 0.121 -0.066 0.188 -0.211 m -0.945 -1.387 c 0.23 -0.41 0.254 -0.656 0.094 -0.875 c -0.348 -0.48 -0.098 -0.852 0.563 -0.852 c 0.426 0 0.969 0.184 1.695 0.574 c 0.461 0.246 0.684 0.289 0.82 0.16 c 0.059 -0.051 0.117 -0.152 0.137 -0.219 c 0.047 -0.172 -0.18 -0.563 -0.441 -0.762 c -0.508 -0.387 -0.973 -0.5 -2.125 -0.504 c -0.934 -0.004 -1.055 0.031 -1.406 0.418 c -0.324 0.352 -0.414 0.625 -0.406 1.234 c 0.004 0.391 0.023 0.547 0.082 0.629 c 0.105 0.152 0.656 0.527 0.746 0.508 c 0.043 -0.004 0.148 -0.148 0.242 -0.313 m -2.73 -2.672 c 0.164 -0.07 0.309 -0.148 0.32 -0.172 c 0.027 -0.07 -0.211 -1.453 -0.258 -1.5 c -0.027 -0.023 -0.129 0.129 -0.246 0.363 c -0.23 0.461 -0.535 1.117 -0.535 1.16 c 0 0.031 0.348 0.273 0.391 0.273 c 0.012 0 0.16 -0.059 0.328 -0.125 m -1.691 -0.313 c 0 -0.125 -0.648 -1.438 -0.691 -1.398 c -0.051 0.047 -0.289 1.379 -0.258 1.43 c 0.016 0.023 0.234 0.039 0.488 0.039 c 0.387 0 0.461 -0.012 0.461 -0.07 m 6.172 -0.133 c 0.328 -0.094 0.695 -0.328 0.813 -0.52 c 0.141 -0.223 0.164 -0.75 0.047 -0.965 c -0.113 -0.203 -0.488 -0.414 -0.926 -0.52 c -0.707 -0.168 -0.941 -0.336 -0.941 -0.684 c 0 -0.469 0.484 -0.676 1.172 -0.504 c 0.145 0.035 0.281 0.066 0.301 0.066 c 0.039 0 0.199 -0.32 0.172 -0.344 c -0.008 -0.008 -0.199 -0.059 -0.426 -0.113 c -0.777 -0.188 -1.309 -0.102 -1.676 0.277 c -0.246 0.258 -0.301 0.445 -0.266 0.91 c 0.035 0.43 0.188 0.543 1.016 0.754 c 0.426 0.109 0.645 0.215 0.797 0.387 c 0.234 0.262 0.117 0.637 -0.262 0.828 c -0.262 0.133 -0.73 0.098 -1.113 -0.086 c -0.32 -0.152 -0.32 -0.152 -0.465 0.113 c -0.102 0.188 -0.063 0.242 0.234 0.348 c 0.488 0.176 1.023 0.191 1.523 0.051 m -7.637 -0.051 c 0.047 -0.047 0.344 -1.629 0.344 -1.836 c 0 -0.578 0.445 -0.598 0.664 -0.023 c 0.055 0.148 0.191 0.441 0.297 0.656 c 0.109 0.211 0.27 0.555 0.352 0.762 c 0.086 0.207 0.191 0.41 0.23 0.445 c 0.133 0.125 0.109 0.168 0.898 -1.523 c 0.383 -0.816 0.441 -0.879 0.672 -0.699 c 0.105 0.086 0.223 0.676 0.344 1.742 c 0.031 0.277 0.078 0.492 0.113 0.512 c 0.055 0.035 0.551 0.004 0.625 -0.035 c 0.016 -0.008 -0.023 -0.289 -0.082 -0.621 c -0.176 -0.941 -0.297 -1.652 -0.387 -2.246 c -0.047 -0.301 -0.098 -0.563 -0.113 -0.582 c -0.02 -0.016 -0.207 -0.043 -0.422 -0.063 l -0.391 -0.027 l -0.207 0.41 c -0.113 0.227 -0.258 0.543 -0.32 0.703 c -0.063 0.156 -0.207 0.457 -0.316 0.664 c -0.168 0.313 -0.223 0.375 -0.32 0.375 c -0.063 0 -0.137 -0.027 -0.168 -0.063 c -0.047 -0.051 -0.375 -0.789 -0.809 -1.805 l -0.105 -0.254 l -0.406 -0.012 c -0.223 -0.008 -0.426 0.004 -0.445 0.023 c -0.02 0.02 -0.063 0.199 -0.09 0.398 c -0.031 0.203 -0.16 0.891 -0.293 1.527 c -0.262 1.285 -0.309 1.57 -0.258 1.617 c 0.047 0.047 0.539 0.004 0.594 -0.047" fill="#606060"/><path d="m 7.289 16.695 c -0.848 -0.016 -1.563 -0.043 -1.598 -0.063 c -0.047 -0.031 -0.063 -0.77 -0.063 -3.449 v -3.41 l 0.152 -0.027 c 0.086 -0.016 0.227 -0.027 0.316 -0.027 c 0.148 0 0.168 -0.02 0.211 -0.172 c 0.051 -0.184 0.383 -1.809 0.637 -3.137 c 0.086 -0.449 0.18 -0.844 0.207 -0.875 c 0.07 -0.082 1.324 -0.082 1.387 0 c 0.047 0.055 0.145 0.266 0.563 1.219 c 0.234 0.539 0.332 0.613 0.43 0.332 c 0.035 -0.094 0.152 -0.355 0.266 -0.582 c 0.113 -0.227 0.23 -0.484 0.262 -0.57 c 0.031 -0.09 0.098 -0.227 0.152 -0.309 l 0.098 -0.148 h 0.652 c 0.461 0 0.664 0.016 0.699 0.059 c 0.047 0.055 0.219 0.961 0.617 3.266 c 0.105 0.609 0.191 0.988 0.234 1.012 c 0.148 0.09 0.625 -0.02 0.625 -0.141 c 0 -0.027 -0.086 -0.098 -0.191 -0.156 c -0.23 -0.137 -0.254 -0.188 -0.168 -0.383 c 0.098 -0.23 0.508 -0.828 0.563 -0.828 c 0.027 0 0.156 0.07 0.281 0.16 c 0.41 0.281 0.797 0.359 1.078 0.223 c 0.125 -0.059 0.145 -0.094 0.133 -0.215 c -0.016 -0.16 -0.094 -0.199 -0.879 -0.422 c -0.484 -0.141 -0.813 -0.348 -0.945 -0.605 c -0.059 -0.105 -0.098 -0.305 -0.109 -0.539 c -0.016 -0.324 0 -0.41 0.102 -0.617 c 0.066 -0.137 0.188 -0.32 0.273 -0.406 c 0.164 -0.176 0.617 -0.422 0.871 -0.473 c 0.09 -0.016 0.172 -0.051 0.188 -0.074 c 0.035 -0.055 0.488 -0.055 0.594 0.004 c 0.047 0.023 0.227 0.074 0.402 0.117 c 0.387 0.086 0.82 0.266 0.855 0.355 c 0.016 0.035 -0.086 0.262 -0.223 0.504 c -0.281 0.484 -0.336 0.516 -0.645 0.348 c -0.336 -0.188 -0.867 -0.16 -0.867 0.043 c 0 0.121 0.137 0.195 0.633 0.34 c 0.223 0.07 0.512 0.172 0.641 0.234 c 0.266 0.125 0.551 0.418 0.633 0.648 c 0.086 0.238 0.035 0.82 -0.094 1.066 c -0.141 0.266 -0.508 0.613 -0.691 0.652 c -0.199 0.043 -0.195 0.18 0.012 0.246 c 0.355 0.117 0.824 0.43 1.09 0.727 c 0.371 0.418 0.414 0.762 0.141 1.07 c -0.391 0.434 -0.621 0.414 -1.648 -0.148 c -0.504 -0.277 -0.773 -0.371 -0.828 -0.285 c -0.02 0.023 0.031 0.176 0.109 0.336 c 0.074 0.156 0.16 0.344 0.191 0.414 c 0.047 0.102 0.172 0.18 0.629 0.383 c 0.316 0.137 0.727 0.32 0.914 0.402 c 0.613 0.27 0.883 0.574 1.035 1.164 c 0.215 0.824 0.004 1.633 -0.539 2.066 c -0.344 0.273 -0.555 0.363 -1.176 0.508 c -0.984 0.23 -1.551 0.203 -2.188 -0.098 l -0.238 -0.113 l -0.227 0.09 c -0.551 0.215 -0.754 0.258 -1.273 0.258 c -0.438 -0.004 -0.566 -0.023 -0.902 -0.133 c -0.211 -0.07 -0.445 -0.168 -0.516 -0.215 c -0.188 -0.121 -0.258 -0.109 -0.551 0.117 c -0.184 0.137 -0.34 0.215 -0.516 0.25 c -0.137 0.027 -0.254 0.047 -0.258 0.039 c -0.008 -0.004 -0.703 -0.02 -1.547 -0.035 m 8.07 -0.434 c 0.676 -0.164 0.938 -0.289 1.203 -0.57 c 0.328 -0.355 0.445 -0.703 0.41 -1.246 c -0.055 -0.859 -0.309 -1.16 -1.34 -1.586 c -0.355 -0.145 -0.688 -0.266 -0.742 -0.266 c -0.09 0 -0.094 0.023 -0.066 0.445 c 0.012 0.242 0.031 0.465 0.039 0.488 c 0.008 0.027 0.125 0.086 0.262 0.129 c 0.281 0.094 0.547 0.34 0.547 0.504 c 0 0.32 -0.469 0.508 -1.168 0.473 c -0.496 -0.023 -0.863 -0.137 -1.273 -0.395 c -0.441 -0.273 -0.746 -0.301 -0.902 -0.074 c -0.105 0.152 -0.145 0.695 -0.07 0.918 c 0.148 0.418 1.188 1.18 1.766 1.293 c 0.293 0.059 0.809 0.016 1.336 -0.113 m -3.906 -0.344 c 0.465 -0.063 0.707 -0.129 0.707 -0.188 c 0 -0.027 -0.055 -0.121 -0.121 -0.203 c -0.141 -0.172 -0.27 -0.477 -0.27 -0.637 c 0 -0.102 -0.02 -0.109 -0.23 -0.109 c -0.125 0 -0.313 -0.012 -0.41 -0.027 l -0.18 -0.027 l -0.219 0.426 c -0.121 0.234 -0.27 0.492 -0.324 0.574 c -0.117 0.16 -0.105 0.176 0.172 0.207 c 0.277 0.035 0.539 0.031 0.875 -0.016 m -2.664 -0.922 c 0.039 -0.047 0.023 -0.133 -0.063 -0.332 c -0.23 -0.52 -0.285 -0.875 -0.25 -1.609 c 0.016 -0.367 0.035 -0.727 0.043 -0.805 l 0.012 -0.137 l -0.465 -0.012 c -0.391 -0.012 -0.469 0 -0.523 0.066 c -0.047 0.059 -0.059 0.406 -0.059 1.41 c 0 1.152 0.008 1.344 0.074 1.406 c 0.102 0.094 1.148 0.105 1.23 0.012 m 0.543 -0.695 c 0.109 -0.203 0.121 -0.301 0.148 -0.977 c 0.023 -0.668 0.039 -0.777 0.137 -0.949 c 0.535 -0.945 1.211 -1.469 1.898 -1.469 h 0.285 l 0.207 -0.371 c 0.113 -0.203 0.199 -0.379 0.188 -0.391 c -0.016 -0.012 -0.188 -0.031 -0.383 -0.047 c -0.43 -0.027 -1.031 0.098 -1.383 0.289 c -0.52 0.285 -1.156 1.027 -1.359 1.59 c -0.145 0.402 -0.234 1.027 -0.207 1.438 c 0.027 0.363 0.152 1.016 0.211 1.105 c 0.051 0.078 0.141 0.004 0.258 -0.219 m 2.551 0.008 c 0.059 -0.059 0.168 -0.203 0.246 -0.316 c 0.105 -0.164 0.18 -0.223 0.332 -0.266 c 0.215 -0.063 0.316 -0.168 0.363 -0.387 c 0.027 -0.133 0.012 -0.148 -0.23 -0.277 c -0.332 -0.176 -0.652 -0.5 -0.723 -0.727 c -0.027 -0.098 -0.051 -0.289 -0.051 -0.43 c 0 -0.137 -0.023 -0.273 -0.055 -0.301 c -0.055 -0.055 -0.313 -0.008 -0.395 0.07 c -0.023 0.02 -0.051 0.375 -0.059 0.785 c -0.012 0.633 -0.035 0.824 -0.145 1.227 c -0.074 0.262 -0.125 0.516 -0.117 0.566 c 0.016 0.105 0.16 0.152 0.492 0.16 c 0.188 0.004 0.254 -0.02 0.34 -0.105 m 3.328 -0.047 c 0.063 -0.043 0.117 -0.094 0.117 -0.121 c 0 -0.047 -0.398 -0.227 -0.512 -0.227 c -0.078 0 -0.191 0.297 -0.148 0.398 c 0.035 0.09 0.359 0.059 0.539 -0.051 m -0.988 -0.332 c 0.258 -0.551 0.168 -1.645 -0.188 -2.309 c -0.148 -0.266 -0.188 -0.254 -0.109 0.031 c 0.113 0.395 -0.039 0.859 -0.543 1.625 c -0.27 0.414 -0.266 0.402 -0.141 0.5 c 0.152 0.117 0.676 0.359 0.789 0.363 c 0.059 0.004 0.121 -0.066 0.191 -0.211 m -0.906 -1.371 c 0.238 -0.461 0.266 -0.691 0.102 -0.875 c -0.16 -0.176 -0.207 -0.379 -0.129 -0.555 c 0.203 -0.457 1.203 -0.328 2.305 0.297 c 0.355 0.199 0.586 0.273 0.742 0.234 c 0.141 -0.031 0.313 -0.27 0.313 -0.438 c 0 -0.16 -0.234 -0.488 -0.492 -0.684 c -0.508 -0.391 -1.031 -0.516 -2.164 -0.52 c -0.711 0 -0.797 0.008 -0.977 0.098 c -0.34 0.172 -0.656 0.539 -0.777 0.906 c -0.098 0.305 -0.098 1.16 0 1.34 c 0.086 0.16 0.738 0.598 0.836 0.563 c 0.035 -0.012 0.148 -0.18 0.246 -0.367 m -2.742 -2.656 c 0.176 -0.074 0.332 -0.164 0.344 -0.195 c 0.043 -0.102 -0.242 -1.641 -0.305 -1.66 c -0.063 -0.02 -0.227 0.289 -0.676 1.242 c -0.117 0.25 -0.215 0.461 -0.215 0.465 c 0 0.02 0.461 0.285 0.496 0.285 c 0.016 0 0.176 -0.063 0.355 -0.137 m -1.652 -0.277 c 0.02 -0.027 -0.078 -0.277 -0.211 -0.559 c -0.137 -0.277 -0.301 -0.625 -0.371 -0.77 c -0.113 -0.246 -0.184 -0.312 -0.242 -0.227 c -0.051 0.078 -0.285 1.469 -0.258 1.535 c 0.023 0.059 0.121 0.07 0.539 0.07 c 0.316 0 0.523 -0.02 0.543 -0.051 m 6.418 -0.211 c 0.559 -0.262 0.746 -0.563 0.711 -1.16 c -0.012 -0.219 -0.047 -0.344 -0.117 -0.434 c -0.148 -0.188 -0.563 -0.402 -0.934 -0.492 c -0.473 -0.109 -0.688 -0.203 -0.793 -0.348 c -0.141 -0.18 -0.121 -0.375 0.043 -0.547 c 0.121 -0.129 0.176 -0.148 0.438 -0.168 c 0.203 -0.012 0.383 0.004 0.555 0.059 l 0.254 0.078 l 0.113 -0.129 c 0.156 -0.184 0.191 -0.336 0.094 -0.402 c -0.043 -0.031 -0.301 -0.094 -0.574 -0.137 c -0.715 -0.117 -1.176 -0.047 -1.508 0.234 c -0.336 0.285 -0.406 0.434 -0.41 0.887 c 0 0.336 0.016 0.418 0.102 0.527 c 0.137 0.176 0.383 0.324 0.621 0.379 c 0.871 0.195 1.219 0.395 1.219 0.695 c 0 0.516 -0.723 0.727 -1.387 0.406 c -0.168 -0.078 -0.328 -0.145 -0.359 -0.145 c -0.059 0 -0.27 0.371 -0.27 0.477 c 0 0.094 0.188 0.199 0.523 0.301 c 0.219 0.07 0.398 0.086 0.816 0.078 c 0.496 -0.012 0.563 -0.023 0.863 -0.16 m -7.863 0.02 c 0.031 -0.035 0.133 -0.523 0.23 -1.086 c 0.098 -0.559 0.191 -1.051 0.211 -1.086 c 0.074 -0.137 0.219 -0.078 0.328 0.137 c 0.141 0.27 0.566 1.188 0.695 1.492 c 0.203 0.488 0.289 0.609 0.422 0.594 c 0.129 -0.016 0.137 -0.027 0.922 -1.633 c 0.152 -0.313 0.301 -0.594 0.328 -0.625 c 0.07 -0.082 0.172 -0.07 0.227 0.023 c 0.047 0.086 0.223 1.168 0.273 1.691 c 0.051 0.547 0.059 0.551 0.473 0.551 c 0.195 0 0.383 -0.016 0.418 -0.039 c 0.051 -0.027 0.02 -0.281 -0.152 -1.262 c -0.121 -0.676 -0.258 -1.465 -0.301 -1.754 c -0.043 -0.293 -0.094 -0.551 -0.113 -0.574 c -0.039 -0.059 -0.777 -0.113 -0.898 -0.07 c -0.082 0.031 -0.273 0.371 -0.48 0.852 c -0.055 0.125 -0.211 0.457 -0.348 0.742 c -0.34 0.703 -0.406 0.695 -0.734 -0.105 c -0.438 -1.074 -0.637 -1.473 -0.734 -1.5 c -0.191 -0.047 -0.738 -0.027 -0.82 0.031 c -0.055 0.039 -0.117 0.273 -0.203 0.742 c -0.07 0.375 -0.211 1.094 -0.316 1.594 c -0.172 0.824 -0.219 1.121 -0.203 1.289 c 0.008 0.082 0.703 0.078 0.777 -0.008" fill="#db1820"/><path d="m 7.289 16.695 c -0.848 -0.016 -1.563 -0.043 -1.598 -0.063 c -0.047 -0.031 -0.063 -0.77 -0.063 -3.449 v -3.41 l 0.152 -0.027 c 0.086 -0.016 0.227 -0.027 0.316 -0.027 c 0.148 0 0.168 -0.02 0.211 -0.172 c 0.051 -0.184 0.383 -1.809 0.637 -3.137 c 0.086 -0.449 0.18 -0.844 0.207 -0.875 c 0.07 -0.082 1.324 -0.082 1.387 0 c 0.047 0.055 0.145 0.266 0.563 1.219 c 0.234 0.539 0.332 0.613 0.43 0.332 c 0.035 -0.094 0.152 -0.355 0.266 -0.582 c 0.113 -0.227 0.23 -0.484 0.262 -0.57 c 0.031 -0.09 0.098 -0.227 0.152 -0.309 l 0.098 -0.148 h 0.652 c 0.461 0 0.664 0.016 0.699 0.059 c 0.047 0.055 0.219 0.961 0.617 3.266 c 0.105 0.609 0.191 0.988 0.234 1.012 c 0.148 0.09 0.625 -0.02 0.625 -0.141 c 0 -0.027 -0.086 -0.098 -0.191 -0.156 c -0.23 -0.137 -0.254 -0.188 -0.168 -0.383 c 0.098 -0.23 0.508 -0.828 0.563 -0.828 c 0.027 0 0.156 0.07 0.281 0.16 c 0.41 0.281 0.797 0.359 1.078 0.223 c 0.125 -0.059 0.145 -0.094 0.133 -0.215 c -0.016 -0.16 -0.094 -0.199 -0.879 -0.422 c -0.484 -0.141 -0.813 -0.348 -0.945 -0.605 c -0.059 -0.105 -0.098 -0.305 -0.109 -0.539 c -0.016 -0.324 0 -0.41 0.102 -0.617 c 0.066 -0.137 0.188 -0.32 0.273 -0.406 c 0.164 -0.176 0.617 -0.422 0.871 -0.473 c 0.09 -0.016 0.172 -0.051 0.188 -0.074 c 0.035 -0.055 0.488 -0.055 0.594 0.004 c 0.047 0.023 0.227 0.074 0.402 0.117 c 0.387 0.086 0.82 0.266 0.855 0.355 c 0.016 0.035 -0.086 0.262 -0.223 0.504 c -0.281 0.484 -0.336 0.516 -0.645 0.348 c -0.336 -0.188 -0.867 -0.16 -0.867 0.043 c 0 0.121 0.137 0.195 0.633 0.34 c 0.223 0.07 0.512 0.172 0.641 0.234 c 0.266 0.125 0.551 0.418 0.633 0.648 c 0.086 0.238 0.035 0.82 -0.094 1.066 c -0.141 0.266 -0.508 0.613 -0.691 0.652 c -0.199 0.043 -0.195 0.18 0.012 0.246 c 0.355 0.117 0.824 0.43 1.09 0.727 c 0.371 0.418 0.414 0.762 0.141 1.07 c -0.391 0.434 -0.621 0.414 -1.648 -0.148 c -0.504 -0.277 -0.773 -0.371 -0.828 -0.285 c -0.02 0.023 0.031 0.176 0.109 0.336 c 0.074 0.156 0.16 0.344 0.191 0.414 c 0.047 0.102 0.172 0.18 0.629 0.383 c 0.316 0.137 0.727 0.32 0.914 0.402 c 0.613 0.27 0.883 0.574 1.035 1.164 c 0.215 0.824 0.004 1.633 -0.539 2.066 c -0.344 0.273 -0.555 0.363 -1.176 0.508 c -0.984 0.23 -1.551 0.203 -2.188 -0.098 l -0.238 -0.113 l -0.227 0.09 c -0.551 0.215 -0.754 0.258 -1.273 0.258 c -0.438 -0.004 -0.566 -0.023 -0.902 -0.133 c -0.211 -0.07 -0.445 -0.168 -0.516 -0.215 c -0.188 -0.121 -0.258 -0.109 -0.551 0.117 c -0.184 0.137 -0.34 0.215 -0.516 0.25 c -0.137 0.027 -0.254 0.047 -0.258 0.039 c -0.008 -0.004 -0.703 -0.02 -1.547 -0.035 m 1.906 -0.391 c 0.07 -0.031 0.258 -0.188 0.414 -0.348 c 0.52 -0.523 1.016 -1.523 1.293 -2.621 c 0.102 -0.402 0.152 -1.293 0.078 -1.363 c -0.063 -0.063 -0.348 0.113 -0.648 0.398 l -0.285 0.27 l -0.008 0.543 c -0.004 0.426 -0.027 0.609 -0.113 0.859 c -0.156 0.461 -0.477 0.957 -0.727 1.137 l -0.211 0.152 l -0.859 -0.016 l -0.859 -0.012 l -0.063 -0.113 c -0.047 -0.086 -0.063 -0.512 -0.063 -1.684 c 0 -1.855 -0.035 -1.734 0.535 -1.734 c 0.207 0 0.512 -0.016 0.68 -0.031 l 0.301 -0.027 l 0.176 -0.301 c 0.242 -0.406 0.371 -0.57 0.715 -0.906 l 0.293 -0.281 l -0.277 -0.121 l -0.281 -0.117 l -1.543 0.016 c -0.852 0.008 -1.574 0.031 -1.609 0.051 c -0.047 0.027 -0.059 0.715 -0.059 3.176 v 3.141 l 0.352 0.02 c 0.727 0.035 2.641 -0.023 2.77 -0.086 m 6.168 -0.043 c 0.676 -0.164 0.938 -0.289 1.203 -0.57 c 0.328 -0.355 0.445 -0.703 0.41 -1.246 c -0.055 -0.859 -0.309 -1.16 -1.34 -1.586 c -0.355 -0.145 -0.688 -0.266 -0.742 -0.266 c -0.09 0 -0.094 0.023 -0.066 0.445 c 0.012 0.242 0.031 0.465 0.039 0.488 c 0.008 0.027 0.125 0.086 0.262 0.129 c 0.281 0.094 0.547 0.34 0.547 0.504 c 0 0.32 -0.469 0.508 -1.168 0.473 c -0.496 -0.023 -0.863 -0.137 -1.273 -0.395 c -0.441 -0.273 -0.746 -0.301 -0.902 -0.074 c -0.105 0.152 -0.145 0.695 -0.07 0.918 c 0.148 0.418 1.188 1.18 1.766 1.293 c 0.293 0.059 0.809 0.016 1.336 -0.113 m -3.906 -0.344 c 0.465 -0.063 0.707 -0.129 0.707 -0.188 c 0 -0.027 -0.055 -0.121 -0.121 -0.203 c -0.141 -0.172 -0.27 -0.477 -0.27 -0.637 c 0 -0.102 -0.02 -0.109 -0.23 -0.109 c -0.125 0 -0.313 -0.012 -0.41 -0.027 l -0.18 -0.027 l -0.219 0.426 c -0.121 0.234 -0.27 0.492 -0.324 0.574 c -0.117 0.16 -0.105 0.176 0.172 0.207 c 0.277 0.035 0.539 0.031 0.875 -0.016 m -2.664 -0.922 c 0.039 -0.047 0.023 -0.133 -0.063 -0.332 c -0.23 -0.52 -0.285 -0.875 -0.25 -1.609 c 0.016 -0.367 0.035 -0.727 0.043 -0.805 l 0.012 -0.137 l -0.465 -0.012 c -0.391 -0.012 -0.469 0 -0.523 0.066 c -0.047 0.059 -0.059 0.406 -0.059 1.41 c 0 1.152 0.008 1.344 0.074 1.406 c 0.102 0.094 1.148 0.105 1.23 0.012 m 0.543 -0.695 c 0.109 -0.203 0.121 -0.301 0.148 -0.977 c 0.023 -0.668 0.039 -0.777 0.137 -0.949 c 0.535 -0.945 1.211 -1.469 1.898 -1.469 h 0.285 l 0.207 -0.371 c 0.113 -0.203 0.199 -0.379 0.188 -0.391 c -0.016 -0.012 -0.188 -0.031 -0.383 -0.047 c -0.43 -0.027 -1.031 0.098 -1.383 0.289 c -0.52 0.285 -1.156 1.027 -1.359 1.59 c -0.145 0.402 -0.234 1.027 -0.207 1.438 c 0.027 0.363 0.152 1.016 0.211 1.105 c 0.051 0.078 0.141 0.004 0.258 -0.219 m 2.551 0.008 c 0.059 -0.059 0.168 -0.203 0.246 -0.316 c 0.105 -0.164 0.18 -0.223 0.332 -0.266 c 0.215 -0.063 0.316 -0.168 0.363 -0.387 c 0.027 -0.133 0.012 -0.148 -0.23 -0.277 c -0.332 -0.176 -0.652 -0.5 -0.723 -0.727 c -0.027 -0.098 -0.051 -0.289 -0.051 -0.43 c 0 -0.137 -0.023 -0.273 -0.055 -0.301 c -0.055 -0.055 -0.313 -0.008 -0.395 0.07 c -0.023 0.02 -0.051 0.375 -0.059 0.785 c -0.012 0.633 -0.035 0.824 -0.145 1.227 c -0.074 0.262 -0.125 0.516 -0.117 0.566 c 0.016 0.105 0.16 0.152 0.492 0.16 c 0.188 0.004 0.254 -0.02 0.34 -0.105 m 3.328 -0.047 c 0.063 -0.043 0.117 -0.094 0.117 -0.121 c 0 -0.047 -0.398 -0.227 -0.512 -0.227 c -0.078 0 -0.191 0.297 -0.148 0.398 c 0.035 0.09 0.359 0.059 0.539 -0.051 m -0.988 -0.332 c 0.258 -0.551 0.168 -1.645 -0.188 -2.309 c -0.148 -0.266 -0.188 -0.254 -0.109 0.031 c 0.113 0.395 -0.039 0.859 -0.543 1.625 c -0.27 0.414 -0.266 0.402 -0.141 0.5 c 0.152 0.117 0.676 0.359 0.789 0.363 c 0.059 0.004 0.121 -0.066 0.191 -0.211 m -0.906 -1.371 c 0.238 -0.461 0.266 -0.691 0.102 -0.875 c -0.16 -0.176 -0.207 -0.379 -0.129 -0.555 c 0.203 -0.457 1.203 -0.328 2.305 0.297 c 0.355 0.199 0.586 0.273 0.742 0.234 c 0.141 -0.031 0.313 -0.27 0.313 -0.438 c 0 -0.16 -0.234 -0.488 -0.492 -0.684 c -0.508 -0.391 -1.031 -0.516 -2.164 -0.52 c -0.711 0 -0.797 0.008 -0.977 0.098 c -0.34 0.172 -0.656 0.539 -0.777 0.906 c -0.098 0.305 -0.098 1.16 0 1.34 c 0.086 0.16 0.738 0.598 0.836 0.563 c 0.035 -0.012 0.148 -0.18 0.246 -0.367 m -2.742 -2.656 c 0.176 -0.074 0.332 -0.164 0.344 -0.195 c 0.043 -0.102 -0.242 -1.641 -0.305 -1.66 c -0.063 -0.02 -0.227 0.289 -0.676 1.242 c -0.117 0.25 -0.215 0.461 -0.215 0.465 c 0 0.02 0.461 0.285 0.496 0.285 c 0.016 0 0.176 -0.063 0.355 -0.137 m -1.652 -0.277 c 0.02 -0.027 -0.078 -0.277 -0.211 -0.559 c -0.137 -0.277 -0.301 -0.625 -0.371 -0.77 c -0.113 -0.246 -0.184 -0.312 -0.242 -0.227 c -0.051 0.078 -0.285 1.469 -0.258 1.535 c 0.023 0.059 0.121 0.07 0.539 0.07 c 0.316 0 0.523 -0.02 0.543 -0.051 m 6.418 -0.211 c 0.559 -0.262 0.746 -0.563 0.711 -1.16 c -0.012 -0.219 -0.047 -0.344 -0.117 -0.434 c -0.148 -0.188 -0.563 -0.402 -0.934 -0.492 c -0.473 -0.109 -0.688 -0.203 -0.793 -0.348 c -0.141 -0.18 -0.121 -0.375 0.043 -0.547 c 0.121 -0.129 0.176 -0.148 0.438 -0.168 c 0.203 -0.012 0.383 0.004 0.555 0.059 l 0.254 0.078 l 0.113 -0.129 c 0.156 -0.184 0.191 -0.336 0.094 -0.402 c -0.043 -0.031 -0.301 -0.094 -0.574 -0.137 c -0.715 -0.117 -1.176 -0.047 -1.508 0.234 c -0.336 0.285 -0.406 0.434 -0.41 0.887 c 0 0.336 0.016 0.418 0.102 0.527 c 0.137 0.176 0.383 0.324 0.621 0.379 c 0.871 0.195 1.219 0.395 1.219 0.695 c 0 0.516 -0.723 0.727 -1.387 0.406 c -0.168 -0.078 -0.328 -0.145 -0.359 -0.145 c -0.059 0 -0.27 0.371 -0.27 0.477 c 0 0.094 0.188 0.199 0.523 0.301 c 0.219 0.07 0.398 0.086 0.816 0.078 c 0.496 -0.012 0.563 -0.023 0.863 -0.16 m -7.863 0.02 c 0.031 -0.035 0.133 -0.523 0.23 -1.086 c 0.098 -0.559 0.191 -1.051 0.211 -1.086 c 0.074 -0.137 0.219 -0.078 0.328 0.137 c 0.141 0.27 0.566 1.188 0.695 1.492 c 0.203 0.488 0.289 0.609 0.422 0.594 c 0.129 -0.016 0.137 -0.027 0.922 -1.633 c 0.152 -0.313 0.301 -0.594 0.328 -0.625 c 0.07 -0.082 0.172 -0.07 0.227 0.023 c 0.047 0.086 0.223 1.168 0.273 1.691 c 0.051 0.547 0.059 0.551 0.473 0.551 c 0.195 0 0.383 -0.016 0.418 -0.039 c 0.051 -0.027 0.02 -0.281 -0.152 -1.262 c -0.121 -0.676 -0.258 -1.465 -0.301 -1.754 c -0.043 -0.293 -0.094 -0.551 -0.113 -0.574 c -0.039 -0.059 -0.777 -0.113 -0.898 -0.07 c -0.082 0.031 -0.273 0.371 -0.48 0.852 c -0.055 0.125 -0.211 0.457 -0.348 0.742 c -0.34 0.703 -0.406 0.695 -0.734 -0.105 c -0.438 -1.074 -0.637 -1.473 -0.734 -1.5 c -0.191 -0.047 -0.738 -0.027 -0.82 0.031 c -0.055 0.039 -0.117 0.273 -0.203 0.742 c -0.07 0.375 -0.211 1.094 -0.316 1.594 c -0.172 0.824 -0.219 1.121 -0.203 1.289 c 0.008 0.082 0.703 0.078 0.777 -0.008" fill="#710086"/><path d="m 7.289 16.695 c -0.848 -0.016 -1.563 -0.043 -1.598 -0.063 c -0.047 -0.031 -0.063 -0.77 -0.063 -3.449 v -3.41 l 0.152 -0.027 c 0.086 -0.016 0.227 -0.027 0.316 -0.027 c 0.148 0 0.168 -0.02 0.211 -0.172 c 0.051 -0.184 0.383 -1.809 0.637 -3.137 c 0.086 -0.449 0.18 -0.844 0.207 -0.875 c 0.07 -0.082 1.324 -0.082 1.387 0 c 0.047 0.055 0.145 0.266 0.563 1.219 c 0.234 0.539 0.332 0.613 0.43 0.332 c 0.035 -0.094 0.152 -0.355 0.266 -0.582 c 0.113 -0.227 0.23 -0.484 0.262 -0.57 c 0.031 -0.09 0.098 -0.227 0.152 -0.309 l 0.098 -0.148 h 0.652 c 0.461 0 0.664 0.016 0.699 0.059 c 0.047 0.055 0.219 0.961 0.617 3.266 c 0.105 0.609 0.191 0.988 0.234 1.012 c 0.148 0.09 0.625 -0.02 0.625 -0.141 c 0 -0.027 -0.086 -0.098 -0.191 -0.156 c -0.23 -0.137 -0.254 -0.188 -0.168 -0.383 c 0.098 -0.23 0.508 -0.828 0.563 -0.828 c 0.027 0 0.156 0.07 0.281 0.16 c 0.41 0.281 0.797 0.359 1.078 0.223 c 0.125 -0.059 0.145 -0.094 0.133 -0.215 c -0.016 -0.16 -0.094 -0.199 -0.879 -0.422 c -0.484 -0.141 -0.813 -0.348 -0.945 -0.605 c -0.059 -0.105 -0.098 -0.305 -0.109 -0.539 c -0.016 -0.324 0 -0.41 0.102 -0.617 c 0.066 -0.137 0.188 -0.32 0.273 -0.406 c 0.164 -0.176 0.617 -0.422 0.871 -0.473 c 0.09 -0.016 0.172 -0.051 0.188 -0.074 c 0.035 -0.055 0.488 -0.055 0.594 0.004 c 0.047 0.023 0.227 0.074 0.402 0.117 c 0.387 0.086 0.82 0.266 0.855 0.355 c 0.016 0.035 -0.086 0.262 -0.223 0.504 c -0.281 0.484 -0.336 0.516 -0.645 0.348 c -0.336 -0.188 -0.867 -0.16 -0.867 0.043 c 0 0.121 0.137 0.195 0.633 0.34 c 0.223 0.07 0.512 0.172 0.641 0.234 c 0.266 0.125 0.551 0.418 0.633 0.648 c 0.086 0.238 0.035 0.82 -0.094 1.066 c -0.141 0.266 -0.508 0.613 -0.691 0.652 c -0.199 0.043 -0.195 0.18 0.012 0.246 c 0.355 0.117 0.824 0.43 1.09 0.727 c 0.371 0.418 0.414 0.762 0.141 1.07 c -0.391 0.434 -0.621 0.414 -1.648 -0.148 c -0.504 -0.277 -0.773 -0.371 -0.828 -0.285 c -0.02 0.023 0.031 0.176 0.109 0.336 c 0.074 0.156 0.16 0.344 0.191 0.414 c 0.047 0.102 0.172 0.18 0.629 0.383 c 0.316 0.137 0.727 0.32 0.914 0.402 c 0.613 0.27 0.883 0.574 1.035 1.164 c 0.215 0.824 0.004 1.633 -0.539 2.066 c -0.344 0.273 -0.555 0.363 -1.176 0.508 c -0.984 0.23 -1.551 0.203 -2.188 -0.098 l -0.238 -0.113 l -0.227 0.09 c -0.551 0.215 -0.754 0.258 -1.273 0.258 c -0.438 -0.004 -0.566 -0.023 -0.902 -0.133 c -0.211 -0.07 -0.445 -0.168 -0.516 -0.215 c -0.188 -0.121 -0.258 -0.109 -0.551 0.117 c -0.184 0.137 -0.34 0.215 -0.516 0.25 c -0.137 0.027 -0.254 0.047 -0.258 0.039 c -0.008 -0.004 -0.703 -0.02 -1.547 -0.035 m 1.906 -0.391 c 0.07 -0.031 0.258 -0.188 0.414 -0.348 c 0.52 -0.523 1.016 -1.523 1.293 -2.621 c 0.102 -0.402 0.152 -1.293 0.078 -1.363 c -0.063 -0.063 -0.348 0.113 -0.648 0.398 l -0.285 0.27 l -0.008 0.543 c -0.004 0.426 -0.027 0.609 -0.113 0.859 c -0.156 0.461 -0.477 0.957 -0.727 1.137 l -0.211 0.152 l -0.859 -0.016 l -0.859 -0.012 l -0.063 -0.113 c -0.047 -0.086 -0.063 -0.512 -0.063 -1.684 c 0 -1.855 -0.035 -1.734 0.535 -1.734 c 0.207 0 0.512 -0.016 0.68 -0.031 l 0.301 -0.027 l 0.176 -0.301 c 0.242 -0.406 0.371 -0.57 0.715 -0.906 l 0.293 -0.281 l -0.277 -0.121 l -0.281 -0.117 l -1.543 0.016 c -0.852 0.008 -1.574 0.031 -1.609 0.051 c -0.047 0.027 -0.059 0.715 -0.059 3.176 v 3.141 l 0.352 0.02 c 0.727 0.035 2.641 -0.023 2.77 -0.086 m 6.168 -0.043 c 0.676 -0.164 0.938 -0.289 1.203 -0.57 c 0.328 -0.355 0.445 -0.703 0.41 -1.246 c -0.055 -0.859 -0.309 -1.16 -1.34 -1.586 c -0.355 -0.145 -0.688 -0.266 -0.742 -0.266 c -0.09 0 -0.094 0.023 -0.066 0.445 c 0.012 0.242 0.031 0.465 0.039 0.488 c 0.008 0.027 0.125 0.086 0.262 0.129 c 0.281 0.094 0.547 0.34 0.547 0.504 c 0 0.32 -0.469 0.508 -1.168 0.473 c -0.496 -0.023 -0.863 -0.137 -1.273 -0.395 c -0.441 -0.273 -0.746 -0.301 -0.902 -0.074 c -0.105 0.152 -0.145 0.695 -0.07 0.918 c 0.148 0.418 1.188 1.18 1.766 1.293 c 0.293 0.059 0.809 0.016 1.336 -0.113 m -2.992 -0.02 c 0.156 -0.055 0.281 -0.113 0.281 -0.129 c 0 -0.016 -0.086 -0.113 -0.188 -0.215 c -0.285 -0.273 -0.535 -0.645 -0.57 -0.836 c -0.059 -0.352 -0.07 -0.359 -0.52 -0.383 c -0.223 -0.012 -0.43 0 -0.461 0.02 c -0.031 0.023 -0.148 0.219 -0.262 0.438 c -0.117 0.219 -0.258 0.469 -0.324 0.555 c -0.063 0.09 -0.113 0.184 -0.113 0.215 c 0 0.078 0.422 0.293 0.758 0.387 c 0.387 0.109 1.012 0.086 1.398 -0.051 m -3.578 -1.246 c 0.039 -0.047 0.023 -0.133 -0.063 -0.332 c -0.23 -0.52 -0.285 -0.875 -0.25 -1.609 c 0.016 -0.367 0.035 -0.727 0.043 -0.805 l 0.012 -0.137 l -0.465 -0.012 c -0.391 -0.012 -0.469 0 -0.523 0.066 c -0.047 0.059 -0.059 0.406 -0.059 1.41 c 0 1.152 0.008 1.344 0.074 1.406 c 0.102 0.094 1.148 0.105 1.23 0.012 m 0.594 -0.648 c 0.164 -0.301 0.172 -0.344 0.199 -0.934 c 0.023 -0.559 0.039 -0.637 0.164 -0.867 c 0.285 -0.52 0.578 -0.754 1.367 -1.113 c 0.27 -0.117 0.539 -0.242 0.602 -0.27 c 0.07 -0.031 0.164 -0.16 0.246 -0.352 c 0.074 -0.16 0.191 -0.375 0.262 -0.473 c 0.07 -0.098 0.117 -0.195 0.105 -0.211 c -0.047 -0.074 -0.586 -0.145 -0.871 -0.117 c -0.574 0.059 -1.102 0.277 -1.563 0.656 c -0.203 0.164 -0.543 0.59 -0.719 0.906 c -0.398 0.711 -0.512 1.734 -0.285 2.59 c 0.168 0.637 0.234 0.664 0.492 0.184 m 2.5 -0.039 c 0.059 -0.059 0.168 -0.203 0.246 -0.316 c 0.105 -0.164 0.18 -0.223 0.332 -0.266 c 0.215 -0.063 0.316 -0.172 0.363 -0.387 c 0.027 -0.133 0.012 -0.148 -0.23 -0.277 c -0.332 -0.176 -0.652 -0.5 -0.723 -0.727 c -0.027 -0.098 -0.051 -0.289 -0.051 -0.43 c 0 -0.137 -0.023 -0.273 -0.055 -0.301 c -0.055 -0.055 -0.313 -0.008 -0.395 0.07 c -0.023 0.02 -0.051 0.375 -0.059 0.785 c -0.012 0.633 -0.035 0.824 -0.145 1.227 c -0.074 0.262 -0.125 0.516 -0.117 0.566 c 0.016 0.105 0.16 0.152 0.492 0.16 c 0.188 0 0.254 -0.02 0.34 -0.105 m 3.324 -0.047 c 0.066 -0.043 0.121 -0.098 0.121 -0.121 c 0 -0.051 -0.398 -0.227 -0.512 -0.227 c -0.078 0 -0.191 0.297 -0.148 0.395 c 0.035 0.094 0.359 0.063 0.539 -0.047 m -0.922 -0.031 c 0.066 -0.105 0.164 -0.758 0.164 -1.113 c 0.004 -0.383 -0.09 -0.918 -0.211 -1.234 c -0.125 -0.336 -0.375 -0.703 -0.473 -0.703 c -0.121 0 -0.117 0.074 0.004 0.297 c 0.238 0.441 0.02 1.129 -0.645 2.043 c -0.051 0.07 -0.082 0.156 -0.07 0.188 c 0.039 0.094 0.41 0.32 0.738 0.453 c 0.324 0.129 0.441 0.145 0.492 0.07 m -0.973 -1.672 c 0.238 -0.461 0.266 -0.691 0.102 -0.875 c -0.16 -0.176 -0.207 -0.379 -0.129 -0.555 c 0.203 -0.457 1.203 -0.328 2.305 0.297 c 0.355 0.199 0.586 0.273 0.742 0.234 c 0.141 -0.031 0.313 -0.27 0.313 -0.438 c 0 -0.16 -0.234 -0.488 -0.492 -0.688 c -0.508 -0.387 -1.031 -0.512 -2.164 -0.516 c -0.711 0 -0.797 0.008 -0.977 0.098 c -0.34 0.172 -0.656 0.539 -0.777 0.906 c -0.098 0.305 -0.098 1.16 0 1.34 c 0.086 0.16 0.738 0.598 0.836 0.563 c 0.035 -0.012 0.148 -0.18 0.246 -0.367 m -2.742 -2.656 c 0.176 -0.074 0.332 -0.164 0.344 -0.195 c 0.043 -0.102 -0.242 -1.641 -0.305 -1.66 c -0.063 -0.02 -0.227 0.285 -0.676 1.242 c -0.117 0.25 -0.215 0.461 -0.215 0.465 c 0 0.02 0.461 0.285 0.496 0.285 c 0.016 0 0.176 -0.063 0.355 -0.137 m -1.652 -0.277 c 0.02 -0.027 -0.078 -0.277 -0.211 -0.559 c -0.137 -0.277 -0.301 -0.625 -0.371 -0.77 c -0.113 -0.246 -0.184 -0.312 -0.242 -0.227 c -0.051 0.078 -0.285 1.469 -0.258 1.535 c 0.023 0.059 0.121 0.07 0.539 0.07 c 0.316 0 0.523 -0.02 0.543 -0.051 m 6.414 -0.211 c 0.563 -0.262 0.75 -0.566 0.715 -1.16 c -0.012 -0.219 -0.047 -0.344 -0.117 -0.434 c -0.148 -0.188 -0.563 -0.402 -0.934 -0.492 c -0.473 -0.113 -0.688 -0.203 -0.797 -0.348 c -0.137 -0.18 -0.117 -0.375 0.047 -0.551 c 0.121 -0.125 0.176 -0.145 0.438 -0.164 c 0.203 -0.012 0.383 0.004 0.555 0.059 l 0.254 0.078 l 0.113 -0.129 c 0.156 -0.184 0.191 -0.336 0.094 -0.406 c -0.043 -0.027 -0.301 -0.09 -0.574 -0.133 c -0.715 -0.117 -1.176 -0.047 -1.508 0.234 c -0.336 0.281 -0.406 0.434 -0.41 0.887 c 0 0.332 0.016 0.418 0.102 0.527 c 0.137 0.176 0.383 0.324 0.621 0.379 c 0.871 0.195 1.219 0.395 1.219 0.695 c 0 0.516 -0.723 0.727 -1.387 0.406 c -0.168 -0.082 -0.328 -0.145 -0.359 -0.145 c -0.059 0 -0.27 0.371 -0.27 0.477 c 0 0.09 0.188 0.199 0.523 0.301 c 0.219 0.07 0.398 0.086 0.816 0.078 c 0.496 -0.012 0.563 -0.023 0.863 -0.16 m -7.863 0.016 c 0.031 -0.031 0.133 -0.52 0.23 -1.082 c 0.098 -0.559 0.191 -1.051 0.211 -1.09 c 0.074 -0.133 0.219 -0.074 0.328 0.137 c 0.141 0.273 0.566 1.191 0.695 1.496 c 0.203 0.488 0.289 0.609 0.422 0.594 c 0.129 -0.016 0.137 -0.027 0.922 -1.633 c 0.152 -0.313 0.301 -0.594 0.328 -0.625 c 0.07 -0.082 0.172 -0.07 0.227 0.02 c 0.047 0.09 0.223 1.172 0.273 1.695 c 0.051 0.543 0.059 0.551 0.473 0.551 c 0.195 0 0.383 -0.016 0.418 -0.039 c 0.051 -0.027 0.02 -0.281 -0.152 -1.262 c -0.121 -0.676 -0.258 -1.465 -0.301 -1.758 c -0.043 -0.289 -0.094 -0.547 -0.113 -0.574 c -0.039 -0.055 -0.777 -0.109 -0.898 -0.066 c -0.082 0.031 -0.277 0.371 -0.48 0.852 c -0.055 0.125 -0.211 0.457 -0.348 0.738 c -0.34 0.707 -0.41 0.699 -0.734 -0.102 c -0.438 -1.074 -0.637 -1.477 -0.734 -1.5 c -0.191 -0.047 -0.738 -0.027 -0.82 0.031 c -0.055 0.039 -0.117 0.273 -0.203 0.738 c -0.07 0.379 -0.211 1.098 -0.316 1.598 c -0.172 0.824 -0.219 1.121 -0.203 1.289 c 0.008 0.082 0.703 0.078 0.777 -0.008" fill="#0c090a"/></svg>