<svg xmlns="http://www.w3.org/2000/svg" xmlns:xlink="http://www.w3.org/1999/xlink" viewBox="0 0 22 22"><defs><g id="4" clip-path="url(#3)"><path d="m 9.48 5.777 c -1.063 -0.023 -2.141 0.223 -2.406 1.172 c -0.063 0.23 -0.156 0.703 -0.16 0.926 c 0 0.82 0 1.758 0 2.578 c 0.363 0 0.641 0 1 0 c 0.008 -0.863 -0.012 -1.711 0 -2.578 c 0.035 -0.551 0.844 -1.164 1.496 -1.16 c 0.012 0.879 -0.012 1.773 0 2.648 c 0.059 0.711 0.5 1.148 1.434 1.148 c 0.496 -0.008 0.996 0 1.488 0 c 0.754 -0.125 1.078 -0.723 1.078 -1.422 c 0 -0.781 0 -1.59 0 -2.375 c 0.684 -0.043 1.469 0.574 1.496 1.145 c 0.012 0.867 -0.004 1.699 0 2.559 c 0.359 0 0.641 0.035 1 0.035 c 0 -0.871 0 -1.727 0 -2.594 c -0.035 -0.281 -0.137 -0.641 -0.305 -0.914 c -0.441 -0.801 -1.473 -1.234 -2.445 -1.168 c -0.281 -0.035 -0.672 0.137 -0.75 0.379 c 0.008 1.035 0.012 2.094 0 3.125 c -0.031 0.434 -0.355 0.758 -0.996 0.758 c -0.613 0 -0.617 -0.07 -0.848 -0.328 c -0.152 -0.289 -0.133 -0.73 -0.152 -1.098 c 0 -0.84 -0.008 -1.625 0 -2.461 c -0.301 -0.316 -0.563 -0.359 -0.934 -0.379" fill-rule="evenodd"/><path d="m 15.715 16.277 c -0.031 0 -0.145 -0.023 -0.168 -0.008 c 0 0 -0.281 0.32 -0.434 0.422 c -0.137 0.09 -0.262 0.348 -0.453 0.441 c -0.074 0.035 -0.113 0.035 -0.25 0.035 h -1.707 l 0.012 0.473 h 1.484 c 0.031 0 0.137 0.012 0.203 -0.004 c 0.18 -0.039 0.305 -0.098 0.512 -0.211 c 0.219 -0.125 0.91 -0.867 0.91 -0.867 c 0.07 -0.043 0.09 -0.129 0.043 -0.191 l -0.02 -0.027 c -0.031 -0.043 -0.078 -0.063 -0.129 -0.063" fill-rule="evenodd"/><path d="m 15.336 10.293 v 6.547 c 1.441 -0.141 2.574 -1.551 2.574 -3.273 c 0 -1.719 -1.137 -3.129 -2.574 -3.273" fill-rule="evenodd"/><path d="m 7.492 10.328 v 6.547 c -1.441 -0.141 -2.574 -1.551 -2.574 -3.273 c 0 -1.723 1.137 -3.133 2.574 -3.273" fill-rule="evenodd"/><path d="m 12.914 17.402 c 0 0.391 -0.563 0.711 -1.25 0.711 c -0.691 0 -1.25 -0.32 -1.25 -0.711 c 0 -0.395 0.559 -0.715 1.25 -0.715 c 0.688 0 1.25 0.32 1.25 0.715" fill-rule="evenodd"/><path d="m 15.09 10.188 h 0.387 c 0.098 0 0.18 0.063 0.18 0.137 v 6.375 c 0 0.074 -0.082 0.137 -0.18 0.137 h -0.387 c -0.102 0 -0.184 -0.063 -0.184 -0.137 v -6.375 c 0 -0.074 0.082 -0.137 0.184 -0.137" fill-rule="evenodd"/><path d="m 7.328 10.18 h 0.426 c 0.09 0 0.16 0.059 0.16 0.137 v 6.418 c 0 0.074 -0.074 0.137 -0.16 0.137 h -0.426 c -0.09 0 -0.16 -0.063 -0.16 -0.137 v -6.418 c 0 -0.078 0.07 -0.137 0.16 -0.137" fill-rule="evenodd"/></g><clipPath id="8"><path d="m 15 10 h 3 v 7 h -3"/></clipPath><clipPath id="C"><path d="m 7 10 h 1 v 7 h -1"/></clipPath><clipPath id="9"><path d="m 4 10 h 4 v 7 h -4"/></clipPath><clipPath id="B"><path d="m 14 10 h 2 v 7 h -2"/></clipPath><clipPath id="A"><path d="m 10 16 h 3 v 3 h -3"/></clipPath><clipPath id="7"><path d="m 12 16 h 4 v 2 h -4"/></clipPath><clipPath id="0"><path d="m 22.406 11.469 c 0 6.03 -5.148 10.918 -11.492 10.918 c -6.344 0 -11.492 -4.887 -11.492 -10.918 c 0 -6.04 5.148 -10.922 11.492 -10.922 c 6.344 0 11.492 4.887 11.492 10.922"/></clipPath><clipPath id="6"><path d="m 22.906 11.941 c 0 6.03 -5.148 10.918 -11.492 10.918 c -6.344 0 -11.492 -4.887 -11.492 -10.918 c 0 -6.03 5.148 -10.918 11.492 -10.918 c 6.344 0 11.492 4.887 11.492 10.918"/></clipPath><clipPath id="5"><path d="m 6 5 h 10 v 6 h -10"/></clipPath><clipPath id="3"><path d="M 0,0 H22 V22 H0 z"/></clipPath><filter id="1" filterUnits="objectBoundingBox" x="0" y="0" width="22" height="22"><feColorMatrix type="matrix" in="SourceGraphic" values="0 0 0 0 1 0 0 0 0 1 0 0 0 0 1 0 0 0 1 0"/></filter><mask id="2"><g filter="url(#1)"><path fill-opacity="0.102" d="M 0,0 H22 V22 H0 z"/></g></mask></defs><g fill="#287fb9"><path d="m 9.172 21.977 c -2.219 -0.277 -3.695 -0.824 -5.137 -1.902 c -1.074 -0.805 -1.863 -1.809 -2.629 -3.352 c -2.566 -5.172 -1.629 -9.457 2.898 -13.223 c 3.688 -3.07 7.445 -4.121 10.598 -2.961 c 1.984 0.73 3.738 2.27 4.992 4.387 c 0.879 1.484 1.555 3.336 1.844 5.05 c 0.152 0.914 0.188 1.359 0.191 2.344 c 0.008 2.766 -0.707 4.676 -2.348 6.254 c -1.883 1.809 -4.598 3 -7.676 3.363 c -0.473 0.055 -2.367 0.078 -2.734 0.031"/><path d="m 22 11.941 c 0 -5.555 -4.738 -10.06 -10.586 -10.06 c -5.848 0 -10.586 4.504 -10.586 10.06 c 0 5.555 4.738 10.06 10.586 10.06 c 5.848 0 10.586 -4.504 10.586 -10.06" fill-rule="evenodd"/></g><g clip-path="url(#0)"><use xlink:href="#4" mask="url(#2)"/></g><g clip-path="url(#5)"><g clip-path="url(#6)"><path d="m 9.48 5.777 c -1.063 -0.023 -2.141 0.223 -2.406 1.172 c -0.063 0.23 -0.156 0.703 -0.16 0.926 c 0 0.82 0 1.758 0 2.578 c 0.363 0 0.641 0 1 0 c 0.008 -0.863 -0.012 -1.711 0 -2.578 c 0.035 -0.551 0.844 -1.164 1.496 -1.16 c 0.012 0.879 -0.012 1.773 0 2.648 c 0.059 0.711 0.5 1.148 1.434 1.148 c 0.496 -0.008 0.996 0 1.488 0 c 0.754 -0.125 1.078 -0.723 1.078 -1.422 c 0 -0.781 0 -1.59 0 -2.375 c 0.684 -0.043 1.469 0.574 1.496 1.145 c 0.012 0.867 -0.004 1.699 0 2.559 c 0.359 0 0.641 0.035 1 0.035 c 0 -0.871 0 -1.727 0 -2.594 c -0.035 -0.281 -0.137 -0.641 -0.305 -0.914 c -0.441 -0.801 -1.473 -1.234 -2.445 -1.168 c -0.281 -0.035 -0.672 0.137 -0.75 0.379 c 0.008 1.035 0.012 2.094 0 3.125 c -0.031 0.434 -0.355 0.758 -0.996 0.758 c -0.613 0 -0.617 -0.07 -0.848 -0.328 c -0.152 -0.289 -0.133 -0.73 -0.152 -1.098 c 0 -0.84 -0.008 -1.625 0 -2.461 c -0.301 -0.316 -0.563 -0.359 -0.934 -0.379" fill="#fff" fill-rule="evenodd"/></g></g><g clip-path="url(#7)"><g clip-path="url(#6)"><path d="m 15.715 16.277 c -0.031 0 -0.145 -0.023 -0.168 -0.008 c 0 0 -0.281 0.32 -0.434 0.422 c -0.137 0.09 -0.262 0.348 -0.453 0.441 c -0.074 0.035 -0.113 0.035 -0.25 0.035 h -1.707 l 0.012 0.473 h 1.484 c 0.031 0 0.137 0.012 0.203 -0.004 c 0.18 -0.039 0.305 -0.098 0.512 -0.211 c 0.219 -0.125 0.91 -0.867 0.91 -0.867 c 0.07 -0.043 0.09 -0.129 0.043 -0.191 l -0.02 -0.027 c -0.031 -0.043 -0.078 -0.063 -0.129 -0.063" fill="#fff" fill-rule="evenodd"/></g></g><g clip-path="url(#8)"><g clip-path="url(#6)"><path d="m 15.336 10.293 v 6.547 c 1.441 -0.141 2.574 -1.551 2.574 -3.273 c 0 -1.719 -1.137 -3.129 -2.574 -3.273" fill="#fff" fill-rule="evenodd"/></g></g><g clip-path="url(#9)"><g clip-path="url(#6)"><path d="m 7.492 10.328 v 6.547 c -1.441 -0.141 -2.574 -1.551 -2.574 -3.273 c 0 -1.723 1.137 -3.133 2.574 -3.273" fill="#fff" fill-rule="evenodd"/></g></g><g clip-path="url(#A)"><g clip-path="url(#6)"><path d="m 12.914 17.402 c 0 0.391 -0.563 0.711 -1.25 0.711 c -0.691 0 -1.25 -0.32 -1.25 -0.711 c 0 -0.395 0.559 -0.715 1.25 -0.715 c 0.688 0 1.25 0.32 1.25 0.715" fill="#fff" fill-rule="evenodd"/></g></g><g clip-path="url(#B)"><g clip-path="url(#6)"><path d="m 15.09 10.188 h 0.387 c 0.098 0 0.18 0.063 0.18 0.137 v 6.375 c 0 0.074 -0.082 0.137 -0.18 0.137 h -0.387 c -0.102 0 -0.184 -0.063 -0.184 -0.137 v -6.375 c 0 -0.074 0.082 -0.137 0.184 -0.137" fill="#fff" fill-rule="evenodd"/></g></g><g clip-path="url(#C)"><g clip-path="url(#6)"><path d="m 7.328 10.18 h 0.426 c 0.09 0 0.16 0.059 0.16 0.137 v 6.418 c 0 0.074 -0.074 0.137 -0.16 0.137 h -0.426 c -0.09 0 -0.16 -0.063 -0.16 -0.137 v -6.418 c 0 -0.078 0.07 -0.137 0.16 -0.137" fill="#fff" fill-rule="evenodd"/></g></g></svg>