<svg xmlns="http://www.w3.org/2000/svg" xmlns:xlink="http://www.w3.org/1999/xlink" viewBox="0 0 22 22"><defs><g id="5" clip-path="url(#4)"><path d="m 10.848 14.707 c -0.035 0.246 -0.035 0.777 -0.098 0.934 c -0.059 0.152 -0.223 0.605 -0.301 0.758 c -0.027 0.055 -0.055 0.121 -0.078 0.188 l -0.152 -0.02 c 0.012 -0.027 0.023 -0.051 0.043 -0.074 c 0.09 -0.137 0.09 -0.348 0.09 -0.348 c 0 0 0.199 -0.5 0.242 -0.656 c 0.043 -0.156 -0.008 -0.605 0.016 -0.73 c 0.023 -0.121 0.078 -0.188 0.18 -0.43 c 0.098 -0.238 0.004 -0.547 -0.008 -0.656 c -0.008 -0.105 -0.016 -0.5 -0.039 -0.609 c -0.027 -0.109 -0.207 -0.438 -0.215 -0.516 c -0.008 -0.078 -0.324 -0.195 -0.324 -0.195 c -0.004 -0.176 -0.098 -0.309 -0.098 -0.309 c 0.012 -0.176 -0.535 -0.715 -0.535 -0.715 c -0.172 -0.152 -0.984 -0.512 -1.195 -0.582 c -0.211 -0.066 -0.34 0.063 -0.34 0.063 c -0.273 -0.164 -0.531 -0.039 -0.703 0.055 c -0.172 0.098 -0.203 0.273 -0.203 0.273 c -0.105 0.113 -0.07 -0.168 -0.07 -0.168 c 0 0 0.09 -0.348 0.344 -0.418 c 0.254 -0.07 0.668 0.012 0.668 0.012 c 0.574 -0.082 1.438 0.441 1.691 0.672 c 0.25 0.23 0.781 1.035 0.781 1.035 c 0 0 0.172 0.168 0.313 0.555 c 0.141 0.383 0.121 1.18 0.094 1.34 c -0.027 0.156 -0.07 0.297 -0.102 0.543" fill="#ffdca9"/><path d="m 8.609 11.05 c -0.043 -0.09 -0.246 0.066 -0.391 0.055 c -0.145 -0.008 -0.402 -0.133 -0.574 -0.109 c -0.168 0.02 -0.395 0.145 -0.449 0.258 c -0.059 0.117 0.031 0.57 0.176 0.617 c 0 0 -0.262 0.254 -0.148 0.363 c 0.117 0.113 0.172 0.012 0.172 -0.039 c 0.004 -0.051 -0.012 -0.188 0.09 -0.215 c 0.098 -0.027 0.227 -0.137 0.227 -0.137 c 0 0 -0.195 -0.016 -0.285 -0.125 c -0.09 -0.109 -0.027 -0.293 0.027 -0.375 c 0.055 -0.086 0.184 -0.23 0.305 -0.223 c 0.121 0.012 0.355 0.133 0.523 0.125 c 0.172 -0.004 0.371 -0.109 0.328 -0.199" fill="#ffdca9"/><path d="m 8.965 11.574 c 0 0 0.242 0.328 -0.047 0.668 c -0.289 0.34 -0.254 0.188 -0.254 0.188 l 0.086 0.145 c 0 0 0.211 -0.277 0.379 -0.246 c 0.168 0.027 0.375 0.199 0.43 0.461 c 0.055 0.262 -0.125 0.453 -0.344 0.473 c -0.223 0.02 -1.035 -0.129 -1.035 -0.129 c 0 0 0.07 0.059 0.043 0.141 c -0.031 0.086 -0.086 0.184 -0.086 0.184 c 0 0 0.203 -0.156 0.684 -0.105 c 0.48 0.055 0.645 0.152 0.813 0.488 c 0.172 0.34 0.02 0.809 -0.086 0.922 c -0.102 0.113 -0.539 0.117 -0.594 0.23 c -0.055 0.117 0.082 0.246 0.098 0.336 c 0.02 0.086 -0.082 0.148 -0.082 0.148 c 0 0 0.273 -0.102 0.465 -0.07 c 0.191 0.031 0.539 0.246 0.539 0.246 c 0 0 -0.074 0.027 -0.051 0.082 c 0.02 0.055 0.063 0.109 0.035 0.156 c -0.027 0.051 -0.102 0.078 -0.102 0.078 c 0 0 0.121 0.027 0.199 -0.07 c 0.078 -0.098 -0.063 -0.125 -0.012 -0.172 c 0.051 -0.047 0.148 -0.023 0.148 -0.023 c 0 0 -0.074 -0.023 -0.184 -0.188 c -0.109 -0.16 -0.152 -0.25 -0.32 -0.262 c -0.168 -0.012 -0.363 -0.012 -0.363 -0.012 c 0 0 -0.164 -0.078 -0.086 -0.176 c 0.082 -0.098 0.637 -0.129 0.637 -0.129 c 0 0 -0.16 -0.113 -0.152 -0.199 c 0.004 -0.086 0.137 -0.246 0.363 -0.352 c 0.223 -0.105 0.406 -0.281 0.43 -0.641 c 0.023 -0.355 0.121 -0.434 0.273 -0.559 l -0.035 -0.242 c 0 0 -0.156 0.309 -0.309 0.402 l -0.348 -0.199 c 0 0 0.055 0.227 0.242 0.328 c 0 0 0.125 0.301 -0.008 0.5 c -0.137 0.195 -0.457 0.328 -0.457 0.328 c 0 0 -0.063 -0.504 -0.105 -0.613 c -0.043 -0.105 -0.129 -0.211 -0.148 -0.285 c -0.023 -0.07 0.176 -0.484 0.16 -0.625 c -0.012 -0.137 -0.18 -0.559 -0.539 -0.625 c 0 0 -0.008 -0.598 -0.273 -0.586" fill="#ffdca9"/><path d="m 8.375 12.395 c 0 0 0.195 -0.039 0.359 0.059 c 0.164 0.098 0.266 0.363 0.113 0.488 c 0 0 -0.078 0.047 -0.145 -0.043 c 0 0 0.047 -0.359 -0.094 -0.402 c -0.141 -0.043 -0.234 -0.102 -0.234 -0.102" fill="#ffdca9"/><path d="m 8.598 11.945 c 0 0 -0.254 -0.137 -0.5 -0.09 c -0.246 0.051 -0.414 0.352 -0.414 0.352 c 0 0 -0.102 -0.234 0.125 -0.391 c 0.227 -0.152 0.582 -0.023 0.75 0.004 c 0.168 0.031 0.191 0.051 0.039 0.125" fill="#ffdca9"/><path d="m 8.293 11.785 c 0 0 -0.063 -0.141 0.039 -0.168 c 0.098 -0.027 0.219 -0.055 0.176 -0.109 c -0.047 -0.055 -0.293 0.031 -0.375 0.18 c -0.082 0.148 -0.082 0.148 -0.082 0.148" fill="#ffdca9"/><path d="m 8.05 12.473 c 0 0 -0.484 0.395 -0.516 0.84 c -0.031 0.445 0.164 0.816 0.332 0.832 c 0.168 0.012 0.18 -0.145 0.297 -0.102 c 0.113 0.043 0.273 0.211 0.105 0.23 c -0.172 0.023 -0.348 0.078 -0.488 0 c -0.141 -0.078 -0.305 -0.176 -0.391 -0.336 c -0.082 -0.16 -0.039 -0.484 -0.047 -0.656 c -0.012 -0.172 0.34 -0.75 0.465 -0.828 c 0.129 -0.074 0.25 -0.133 0.242 0.02" fill="#ffdca9"/><path d="m 8.996 13.914 c 0 0 -0.188 -0.047 -0.254 -0.137 c -0.066 -0.094 -0.098 0.008 -0.063 0.184 c 0.035 0.172 0.043 0.449 -0.012 0.566 c -0.059 0.117 -0.297 0.426 -0.582 0.371 c -0.289 -0.055 -0.379 -0.148 -0.445 -0.258 c -0.063 -0.109 -0.207 -0.133 -0.238 -0.035 c -0.031 0.102 0.059 0.227 0.102 0.301 c 0.043 0.07 0.02 0.07 0.16 0.133 c 0.141 0.063 0.426 0.148 0.672 0.082 c 0.246 -0.066 0.488 -0.43 0.496 -0.547 c 0.008 -0.121 0.082 -0.496 0.164 -0.66" fill="#ffdca9"/><path d="m 10.625 15.547 c 0 0 0.02 -0.648 -0.148 -0.793 c -0.172 -0.145 -0.223 -0.129 -0.223 -0.184 c 0 -0.043 -0.004 -0.063 0.121 -0.047 c 0.102 0.012 0.355 0.215 0.355 0.215" fill="#ffdca9"/><path d="m 8.828 10.887 c 0 0 0.223 0.098 0.164 0.223 c -0.063 0.129 -0.063 0.18 0.039 0.188 c 0.102 0.008 0.16 -0.145 0.281 -0.082 c 0.125 0.059 0.012 0.262 0.137 0.297 c 0.121 0.035 0.176 0.016 0.25 0.047 c 0.074 0.031 0.34 0.258 0.305 0.363 c -0.027 0.102 -0.266 -0.18 -0.344 -0.129 c -0.082 0.043 -0.211 0.113 -0.117 0.176 c 0.098 0.059 0.402 0.078 0.52 0.219 c 0.117 0.141 0.148 0.219 0.223 0.148 c 0.078 -0.074 -0.117 -0.563 -0.258 -0.703 c -0.145 -0.141 -0.938 -0.777 -1.195 -0.746" fill="#ffdca9"/><path d="m 10.281 13.262 c 0 0 0.125 0.066 0.168 0.055 c 0.039 -0.016 0.145 -0.098 0.203 -0.195 c 0.055 -0.098 0.039 -0.176 0.02 -0.227 l 0.102 0.117 l 0.027 0.406 l -0.027 -0.031 c 0 0 -0.004 -0.102 -0.043 -0.102 c -0.031 0.004 -0.117 0.066 -0.117 0.066 l -0.23 0.016 l -0.105 -0.074" fill="#ffdca9"/><path d="m 10.52 14.59 c 0 0 0.078 0.047 0.113 0.031 c 0.039 -0.016 0.055 -0.074 0.055 -0.074 l -0.039 0.164 l -0.086 -0.004" fill="#ffdca9"/><path d="m 7.539 14.574 c -0.07 0.035 -0.137 0.063 -0.125 0.102 c 0.008 0.043 0.043 1.09 0.496 1.148 c 0.453 0.059 0.855 -0.055 1.074 0.117 c 0.215 0.176 -0.047 0.301 -0.047 0.301 c 0 0 -0.035 0.184 0.176 0.051 c 0 0 0.063 0.047 0.074 0.008 c 0.016 -0.039 0.047 -0.313 -0.063 -0.387 c -0.109 -0.074 -0.27 -0.141 -0.34 -0.199 c -0.074 -0.055 -0.602 0.02 -0.738 -0.016 c -0.289 -0.078 -0.25 -0.34 -0.352 -0.543 c -0.102 -0.203 -0.094 -0.617 -0.156 -0.582" fill="#ffdca9"/><path d="m 10.453 15.879 c 0 0 -0.121 0.281 -0.273 0.27 c 0 0 0.195 0.09 0.164 0.195 c -0.031 0.102 0.109 -0.465 0.109 -0.465" fill="#ffdca9"/><path d="m 9.09 16.203 c 0 0 0.227 -0.055 0.402 -0.035 c 0.18 0.02 0.242 0.184 0.242 0.184 c 0 0 -0.18 -0.09 -0.277 -0.098 c -0.102 -0.004 -0.285 0.059 -0.285 0.059" fill="#ffdca9"/><path d="m 7.934 16.17 c 0 0 -0.102 -0.258 -0.328 -0.289 c -0.23 -0.031 -0.195 -0.031 -0.27 -0.051 c -0.074 -0.02 -0.18 -0.281 -0.258 -0.309 c -0.078 -0.027 -0.105 -0.059 -0.141 -0.047 c -0.035 0.016 -0.016 0.055 0 0.066 c 0.02 0.012 0.09 0.027 0.121 0.047 c 0.031 0.023 0.078 0.234 0.207 0.309 c 0.129 0.074 0.234 0.086 0.285 0.105 c 0.051 0.02 0.211 0.125 0.285 0.238 c 0 0 0.117 0.055 0.094 -0.07" fill="#ffdca9"/></g><g id="8" clip-path="url(#7)"><path d="m 7.859 14.11 l 0.008 0.039 l 0.414 2.211 l 0.012 0.035 c 0.102 0.551 0.313 0.719 0.785 0.645 l 6.215 -1.01 c 0.539 -0.086 0.699 -0.336 0.574 -0.922 l -0.008 -0.039 l -0.77 -3.609 l -0.008 -0.035 l -0.273 -1.27 l -0.434 -2.059 l -0.262 -1.238 c -0.117 -0.559 -0.352 -0.711 -0.867 -0.574 l -5.918 1.543 c -0.453 0.117 -0.582 0.348 -0.484 0.867 l 0.219 1.164 l 0.574 3.055 l 0.227 1.191 m 2.078 -5.617 c -0.168 -0.301 -0.02 -0.641 0.324 -0.758 c 0.344 -0.117 0.754 0.031 0.922 0.332 c 0.164 0.301 0.02 0.641 -0.328 0.758 c -0.344 0.117 -0.754 -0.031 -0.918 -0.332" fill-rule="evenodd"/><path d="m 6.789 13.652 v 0.035 l -0.063 2.32 v 0.035 c -0.016 0.574 0.148 0.793 0.613 0.824 l 6.102 0.426 c 0.535 0.039 0.73 -0.176 0.734 -0.793 v -0.039 l 0.016 -3.801 v -0.039 l 0.008 -1.336 l 0.008 -2.164 l 0.008 -1.309 c 0.004 -0.586 -0.184 -0.793 -0.707 -0.773 l -5.934 0.18 c -0.453 0.012 -0.625 0.219 -0.637 0.762 l -0.031 1.215 l -0.086 3.203 l -0.031 1.25 m 3.133 -5.168 c -0.098 -0.34 0.113 -0.645 0.465 -0.684 c 0.348 -0.035 0.707 0.207 0.805 0.551 c 0.094 0.34 -0.117 0.645 -0.465 0.684 c -0.352 0.039 -0.711 -0.207 -0.805 -0.551" fill-rule="evenodd"/><use xlink:href="#5" mask="url(#6)"/><path d="m 16.762 7.418 c -0.012 0 -0.027 0.004 -0.039 0.012 l -5.406 2.43 c -0.039 0.016 -0.066 0.055 -0.063 0.098 l 0.055 4.645 c -0.219 -0.039 -0.461 -0.023 -0.703 0.055 c -0.32 0.102 -0.59 0.293 -0.766 0.527 c -0.172 0.23 -0.258 0.512 -0.191 0.777 c 0.066 0.266 0.273 0.461 0.531 0.559 c 0.262 0.098 0.578 0.098 0.898 -0.004 c 0.32 -0.102 0.582 -0.289 0.762 -0.52 c 0.168 -0.223 0.254 -0.492 0.199 -0.754 c 0.004 -1.125 0.027 -3.984 0.027 -4.105 l 4.094 -1.863 l 0.012 3.93 c -0.211 -0.031 -0.445 -0.016 -0.684 0.059 c -0.32 0.102 -0.586 0.293 -0.762 0.527 c -0.176 0.23 -0.258 0.512 -0.195 0.777 c 0.066 0.27 0.273 0.461 0.531 0.559 c 0.262 0.098 0.578 0.102 0.898 -0.004 c 0.324 -0.102 0.59 -0.293 0.766 -0.527 c 0.176 -0.23 0.258 -0.512 0.191 -0.777 l -0.047 -6.289 c 0 -0.031 -0.012 -0.059 -0.031 -0.078 c -0.023 -0.02 -0.051 -0.031 -0.082 -0.031" fill-rule="evenodd"/><path d="m 10.551 7.73 c -0.395 0 -0.715 0.312 -0.715 0.691 c 0 0.383 0.32 0.691 0.715 0.691 c 0.395 0 0.711 -0.309 0.711 -0.691 c 0 -0.383 -0.316 -0.691 -0.711 -0.691 m 0 0.266 c 0.027 0 0.059 0 0.086 0.008 c 0.027 0.008 0.055 0.012 0.082 0.023 c 0.023 0.012 0.047 0.023 0.07 0.039 c 0.023 0.012 0.043 0.031 0.063 0.047 c 0.02 0.02 0.035 0.043 0.051 0.063 c 0.016 0.023 0.027 0.047 0.039 0.07 c 0.012 0.023 0.02 0.047 0.023 0.074 c 0.008 0.027 0.012 0.055 0.012 0.082 c 0 0.031 -0.004 0.059 -0.012 0.086 c -0.004 0.027 -0.012 0.051 -0.023 0.078 c -0.012 0.023 -0.023 0.043 -0.039 0.066 c -0.016 0.023 -0.031 0.043 -0.051 0.063 c -0.02 0.016 -0.039 0.035 -0.063 0.051 c -0.023 0.012 -0.047 0.027 -0.07 0.035 c -0.027 0.012 -0.055 0.02 -0.082 0.027 c -0.027 0.004 -0.059 0.008 -0.086 0.008 c -0.027 0 -0.059 -0.004 -0.086 -0.008 c -0.027 -0.008 -0.055 -0.016 -0.082 -0.027 c -0.023 -0.008 -0.047 -0.023 -0.07 -0.035 c -0.023 -0.016 -0.043 -0.035 -0.063 -0.051 c -0.02 -0.016 -0.035 -0.039 -0.051 -0.063 c -0.016 -0.023 -0.031 -0.043 -0.039 -0.066 c -0.012 -0.027 -0.023 -0.051 -0.027 -0.078 c -0.004 -0.027 -0.008 -0.055 -0.008 -0.086 c 0 -0.027 0.004 -0.055 0.008 -0.082 c 0.008 -0.027 0.016 -0.051 0.027 -0.074 c 0.008 -0.023 0.023 -0.051 0.039 -0.07 c 0.016 -0.023 0.031 -0.043 0.051 -0.063 c 0.02 -0.016 0.039 -0.035 0.063 -0.047 c 0.023 -0.016 0.047 -0.027 0.07 -0.039 c 0.027 -0.012 0.055 -0.016 0.082 -0.023 c 0.027 -0.008 0.055 -0.008 0.086 -0.008"/></g><clipPath id="7"><path d="M 0,0 H22 V22 H0 z"/></clipPath><clipPath id="9"><path d="m 6 5 h 10 v 12 h -10"/></clipPath><clipPath id="B"><path d="m 9 6 h 8 v 11 h -8"/></clipPath><clipPath id="A"><path d="m 6 6 h 8 v 11 h -8"/></clipPath><clipPath id="C"><path d="m 9 7 h 2 v 2 h -2"/></clipPath><clipPath id="0"><path d="m 1 1 h 21 v 21 h -21"/></clipPath><clipPath id="1"><path d="m 21.2 11.348 c 0 5.402 -4.387 9.777 -9.789 9.777 c -5.406 0 -9.793 -4.375 -9.793 -9.777 c 0 -5.406 4.387 -9.781 9.793 -9.781 c 5.402 0 9.789 4.375 9.789 9.781"/></clipPath><clipPath id="4"><path d="M 0,0 H22 V22 H0 z"/></clipPath><filter id="2" filterUnits="objectBoundingBox" x="0" y="0" width="22" height="22"><feColorMatrix type="matrix" in="SourceGraphic" values="0 0 0 0 1 0 0 0 0 1 0 0 0 0 1 0 0 0 1 0"/></filter><mask id="3"><g filter="url(#2)"><path fill-opacity="0.102" d="M 0,0 H22 V22 H0 z"/></g></mask><mask id="6"><g filter="url(#2)"><use xlink:href="#5"/></g></mask></defs><path d="m 4.676 19.781 c 16.309 10.844 26.352 -23.73 5.273 -19.16 c -8.715 1.953 -14 14.184 -5.273 19.16" fill="#939acf"/><g clip-path="url(#0)"><g clip-path="url(#1)"><use xlink:href="#8" mask="url(#3)"/></g></g><g clip-path="url(#9)"><g clip-path="url(#1)"><path d="m 7.434 13.688 l 0.008 0.039 l 0.418 2.211 l 0.008 0.035 c 0.102 0.551 0.313 0.723 0.785 0.645 l 6.215 -1.01 c 0.539 -0.086 0.699 -0.336 0.574 -0.922 l -0.008 -0.039 l -0.77 -3.605 l -0.008 -0.039 l -0.27 -1.27 l -0.438 -2.055 l -0.262 -1.242 c -0.117 -0.559 -0.352 -0.711 -0.867 -0.574 l -5.918 1.543 c -0.453 0.117 -0.582 0.348 -0.484 0.871 l 0.219 1.16 l 0.578 3.059 l 0.223 1.188 m 2.078 -5.617 c -0.168 -0.301 -0.02 -0.641 0.324 -0.758 c 0.344 -0.117 0.754 0.031 0.922 0.332 c 0.164 0.301 0.02 0.641 -0.324 0.758 c -0.348 0.117 -0.758 -0.031 -0.922 -0.332" fill="#ff9327" fill-rule="evenodd"/></g></g><g clip-path="url(#A)"><g clip-path="url(#1)"><path d="m 6.363 13.227 v 0.035 l -0.063 2.32 v 0.035 c -0.016 0.574 0.148 0.793 0.613 0.824 l 6.102 0.426 c 0.535 0.039 0.73 -0.172 0.734 -0.793 v -0.039 l 0.016 -3.797 v -0.043 l 0.008 -1.336 l 0.008 -2.164 l 0.008 -1.309 c 0.004 -0.582 -0.184 -0.793 -0.707 -0.773 l -5.934 0.18 c -0.453 0.012 -0.625 0.219 -0.637 0.762 l -0.031 1.215 l -0.086 3.203 l -0.031 1.25 m 3.133 -5.164 c -0.098 -0.344 0.113 -0.648 0.465 -0.687 c 0.348 -0.035 0.707 0.207 0.805 0.551 c 0.094 0.34 -0.117 0.648 -0.465 0.684 c -0.352 0.039 -0.711 -0.207 -0.805 -0.547" fill="#5b59a3" fill-rule="evenodd"/></g></g><g clip-path="url(#B)"><g clip-path="url(#1)"><path d="m 16.336 6.992 c -0.012 0 -0.027 0.004 -0.039 0.012 l -5.406 2.43 c -0.039 0.02 -0.066 0.055 -0.063 0.098 l 0.055 4.645 c -0.219 -0.035 -0.461 -0.023 -0.703 0.055 c -0.32 0.102 -0.586 0.297 -0.766 0.527 c -0.172 0.23 -0.258 0.512 -0.191 0.777 c 0.066 0.27 0.273 0.461 0.531 0.559 c 0.262 0.098 0.578 0.102 0.898 -0.004 c 0.32 -0.102 0.582 -0.289 0.762 -0.52 c 0.168 -0.223 0.254 -0.492 0.199 -0.754 c 0.004 -1.125 0.027 -3.984 0.027 -4.105 l 4.094 -1.859 l 0.012 3.93 c -0.211 -0.035 -0.445 -0.02 -0.684 0.059 c -0.32 0.098 -0.586 0.289 -0.762 0.523 c -0.176 0.23 -0.258 0.512 -0.195 0.777 c 0.066 0.27 0.273 0.465 0.531 0.559 c 0.262 0.098 0.578 0.102 0.898 -0.004 c 0.324 -0.102 0.59 -0.293 0.766 -0.523 c 0.176 -0.234 0.258 -0.512 0.191 -0.777 l -0.047 -6.293 c 0 -0.031 -0.012 -0.059 -0.031 -0.078 c -0.023 -0.02 -0.051 -0.031 -0.082 -0.031" fill="#e53b70" fill-rule="evenodd"/></g></g><g clip-path="url(#C)"><g clip-path="url(#1)"><path d="m 10.125 7.309 c -0.395 0 -0.715 0.309 -0.715 0.688 c 0 0.383 0.32 0.691 0.715 0.691 c 0.395 0 0.711 -0.309 0.711 -0.691 c 0 -0.379 -0.316 -0.688 -0.711 -0.688 m 0 0.262 c 0.027 0 0.059 0.004 0.086 0.008 c 0.027 0.008 0.055 0.012 0.082 0.023 c 0.023 0.012 0.047 0.023 0.07 0.039 c 0.023 0.016 0.043 0.031 0.063 0.047 c 0.02 0.02 0.035 0.043 0.051 0.063 c 0.016 0.023 0.027 0.047 0.039 0.07 c 0.012 0.023 0.02 0.047 0.023 0.074 c 0.008 0.027 0.012 0.055 0.012 0.082 c 0 0.031 -0.004 0.059 -0.012 0.086 c -0.004 0.027 -0.012 0.051 -0.023 0.078 c -0.012 0.023 -0.023 0.047 -0.039 0.066 c -0.016 0.023 -0.031 0.043 -0.051 0.063 c -0.02 0.02 -0.039 0.035 -0.063 0.051 c -0.023 0.012 -0.047 0.027 -0.07 0.035 c -0.027 0.012 -0.055 0.02 -0.082 0.027 c -0.027 0.004 -0.059 0.008 -0.086 0.008 c -0.027 0 -0.059 -0.004 -0.086 -0.008 c -0.027 -0.008 -0.055 -0.016 -0.082 -0.027 c -0.023 -0.008 -0.047 -0.023 -0.07 -0.035 c -0.023 -0.016 -0.043 -0.031 -0.063 -0.051 c -0.02 -0.016 -0.035 -0.039 -0.051 -0.063 c -0.016 -0.02 -0.031 -0.043 -0.039 -0.066 c -0.012 -0.027 -0.023 -0.051 -0.027 -0.078 c -0.004 -0.027 -0.008 -0.055 -0.008 -0.086 c 0 -0.027 0.004 -0.055 0.008 -0.082 c 0.008 -0.027 0.016 -0.051 0.027 -0.074 c 0.008 -0.023 0.023 -0.051 0.039 -0.07 c 0.016 -0.023 0.031 -0.043 0.051 -0.063 c 0.02 -0.016 0.039 -0.035 0.063 -0.047 c 0.023 -0.016 0.047 -0.027 0.07 -0.039 c 0.027 -0.012 0.055 -0.016 0.082 -0.023 c 0.027 -0.008 0.055 -0.008 0.086 -0.008" fill="#2d2d2d"/></g></g></svg>