<svg xmlns="http://www.w3.org/2000/svg" viewBox="0 0 22 22"><path d="m 0.551 13.512 c 4.227 20.242 33.31 -1.488 15.836 -11.777 c -6.785 -4.41 -18.01 1.367 -15.836 11.777" fill="#d1b38c"/><path d="m 6.223 13.98 c 0 -1.113 -0.035 -2.023 -0.078 -2.023 c -0.047 0 -0.172 0.078 -0.285 0.18 c -0.699 0.625 -1.543 0.492 -1.543 -0.25 c 0 -0.176 0.063 -0.32 0.152 -0.352 c 0.082 -0.031 0.148 -0.121 0.148 -0.203 c 0 -0.082 0.082 -0.148 0.176 -0.148 c 0.098 0 0.469 -0.219 0.82 -0.48 l 0.648 -0.484 l 2.312 -0.012 c 1.273 -0.008 3.668 0.293 3.535 0.27 c -0.141 -0.027 -1.086 0.098 -1.25 -0.121 c -0.195 -0.262 -0.742 -0.688 -0.824 -0.977 c -0.148 -0.5 -0.082 -0.773 0.289 -1.184 c 0.281 -0.309 0.309 -0.316 0.895 -0.266 l 0.891 0.582 c 0.836 -1.246 0.754 -0.621 -0.16 -0.672 l -0.063 -0.258 c -0.051 -0.215 0.059 -0.609 0.055 -0.863 l -0.008 -0.465 l 0.453 0.023 c 0.25 0.016 0.488 0 0.527 -0.039 c 0.035 -0.035 0.242 -0.066 0.453 -0.066 c 0.371 0 0.387 0.012 0.387 0.336 c 0 0.188 0.039 0.34 0.09 0.34 c 0.191 0 0.41 0.309 0.41 0.582 c 0 0.23 -0.043 0.285 -0.227 0.285 c -0.313 0.004 -0.434 0.102 -0.512 0.41 c -0.059 0.223 -0.121 0.262 -0.41 0.262 c -0.254 0 -0.359 -0.047 -0.406 -0.191 c -0.039 -0.121 -0.152 -0.191 -0.297 -0.191 c -0.234 0 -0.355 0.289 -0.219 0.734 c 0.207 0.656 0.301 0.719 0.012 1.039 c -0.137 0.152 -2.023 0.188 -2.16 -0.25 c -0.023 -0.066 0.059 0.805 2.137 0.906 c 0.273 0.012 -0.875 0.047 -0.75 0.055 c 0.629 0.035 1.395 -0.27 1.859 -0.27 h 1.336 l 0.648 0.48 c 0.352 0.266 0.723 0.484 0.82 0.484 c 0.098 0 0.176 0.066 0.176 0.148 c 0 0.082 0.066 0.172 0.148 0.203 c 0.215 0.078 0.195 0.645 -0.031 0.84 c -0.34 0.297 -0.887 0.184 -1.418 -0.289 l -0.254 -0.23 l -0.055 4.148 h -8.43 m 1.566 -5.961 c -0.035 -0.055 -0.23 -0.125 -0.438 -0.156 c -0.625 -0.105 -0.762 -0.258 -0.684 -0.77 c 0.039 -0.242 0.109 -0.438 0.152 -0.438 c 0.047 0 0.113 -0.16 0.152 -0.352 l 0.07 -0.352 l 0.652 0.051 c 0.359 0.027 0.707 0.098 0.766 0.156 c 0.063 0.063 0.199 0.109 0.305 0.109 c 0.176 0 0.188 0.047 0.125 0.504 c -0.039 0.277 -0.105 0.527 -0.145 0.555 c -0.043 0.027 -0.117 0.199 -0.172 0.387 c -0.082 0.281 -0.148 0.344 -0.41 0.367 c -0.176 0.016 -0.344 -0.012 -0.375 -0.063 m 0.711 -1.91 c -0.039 -0.035 -0.066 -0.168 -0.066 -0.289 c 0 -0.125 -0.039 -0.227 -0.082 -0.227 c -0.047 0 -0.164 -0.391 -0.266 -0.871 c -0.18 -0.852 -0.18 -0.875 0.004 -1 c 0.105 -0.074 0.477 -0.188 0.82 -0.25 c 0.348 -0.063 0.652 -0.152 0.684 -0.199 c 0.031 -0.047 0.254 -0.086 0.5 -0.086 c 0.328 0 0.445 0.039 0.445 0.145 c 0 0.078 0.035 0.145 0.082 0.145 c 0.043 0 0.137 0.27 0.207 0.602 c 0.074 0.332 0.168 0.648 0.215 0.699 c 0.043 0.055 0.113 0.305 0.152 0.555 l 0.07 0.457 h -0.414 c -0.227 0 -0.41 0.035 -0.41 0.078 c 0 0.176 -1.781 0.402 -1.941 0.246" fill="#fdfdfd"/><g fill="#d1b38c"><path d="m 9.664 10.07 c 0.18 0.094 0.371 0.152 0.563 0.203 c 0.133 0.031 0.262 0.063 0.391 0.086 c 0.117 0.031 0.227 0.008 0.34 -0.004 c 0.094 -0.027 0.195 -0.035 0.297 -0.051 c 0.004 0 0.039 -0.012 0.039 0.004 c 0.496 0.121 0.566 -0.555 0.07 -0.676 c -0.109 -0.023 -0.215 -0.039 -0.316 -0.02 c -0.098 0.02 -0.203 0.023 -0.297 0.051 c -0.102 0.016 -0.027 0.02 -0.117 0.008 c -0.105 -0.008 -0.223 -0.059 -0.328 -0.074 c -0.121 -0.027 -0.242 -0.07 -0.359 -0.117 c -0.457 -0.262 -0.738 0.328 -0.281 0.59"/><path d="m 12.06 7.324 c 0.082 0.082 0.152 0.176 0.215 0.273 c 0.043 0.063 0.074 0.129 0.121 0.188 c 0.043 0.055 0.078 0.113 0.125 0.164 c 0.051 0.043 0.102 0.09 0.152 0.133 c 0.07 0.055 0.129 0.121 0.199 0.18 c 0.059 0.051 0.125 0.09 0.191 0.129 c 0.066 0.055 0.059 0.039 0.121 0.063 c 0.113 0.031 0.219 0.086 0.313 0.152 c 0.352 0.25 -0.004 0.746 -0.355 0.496 c -0.023 -0.031 -0.105 -0.055 -0.141 -0.07 c -0.086 -0.027 -0.18 -0.051 -0.25 -0.113 c -0.094 -0.059 -0.188 -0.117 -0.27 -0.191 c -0.07 -0.059 -0.137 -0.125 -0.211 -0.188 c -0.066 -0.059 -0.137 -0.117 -0.199 -0.176 c -0.063 -0.066 -0.113 -0.137 -0.164 -0.215 c -0.055 -0.074 -0.105 -0.156 -0.156 -0.234 c -0.031 -0.059 -0.078 -0.109 -0.125 -0.156 c -0.305 -0.309 0.129 -0.738 0.434 -0.434"/><path d="m 8.207 7.598 c 0.125 -0.043 0.258 -0.066 0.391 -0.082 c 0.195 -0.023 0.324 0.035 0.457 0.176 c 0.066 0.09 0.102 0.191 0.137 0.297 c 0.027 0.074 0.063 0.145 0.098 0.215 c 0.016 0.023 0.027 0.047 0.043 0.07 c 0.227 0.367 -0.289 0.688 -0.516 0.324 c -0.027 -0.047 -0.055 -0.09 -0.082 -0.137 c -0.039 -0.09 -0.082 -0.18 -0.117 -0.27 c -0.012 -0.027 -0.02 -0.055 -0.031 -0.082 c -0.004 -0.02 0.004 -0.004 -0.008 -0.023 c 0 -0.008 -0.02 -0.02 -0.012 -0.023 c 0.012 -0.004 0.012 0.012 0.02 0.02 c 0.027 0.023 0.027 0.023 0.078 0.039 c -0.078 0.012 -0.156 0.023 -0.23 0.043 c -0.402 0.16 -0.629 -0.406 -0.227 -0.566"/><path d="m 10.05 7.934 c 0.09 -0.035 0.18 -0.074 0.27 -0.105 c 0.09 -0.023 0.039 -0.012 0.148 -0.023 c 0.004 0 0.043 -0.004 0.039 -0.004 c -0.055 0.012 -0.055 0.012 -0.035 0.004 c 0.012 -0.004 0.023 -0.012 0.039 -0.016 c 0.039 -0.012 0.145 -0.043 0.098 -0.035 c 0.02 -0.008 0.078 -0.047 0.129 -0.078 c 0 0 -0.008 0.004 -0.008 0.004 c 0.059 -0.047 0.129 -0.074 0.195 -0.105 c 0.07 -0.023 0.129 -0.051 0.148 -0.063 c 0.066 -0.035 0.031 -0.02 0.105 -0.047 c 0.406 -0.145 0.609 0.43 0.203 0.574 c 0 0 -0.004 0 -0.004 0 c -0.063 0.035 -0.125 0.07 -0.195 0.086 c -0.078 0.035 -0.055 0.016 -0.129 0.074 c -0.059 0.031 -0.113 0.07 -0.176 0.102 c -0.059 0.027 -0.121 0.055 -0.184 0.07 c -0.059 0.023 -0.133 0.051 -0.199 0.043 c -0.004 0 0.016 0 0.02 -0.004 c 0.004 -0.008 -0.012 0 -0.016 0 c -0.063 0.02 -0.117 0.051 -0.176 0.07 c -0.387 0.191 -0.656 -0.352 -0.273 -0.547"/><path d="m 8.234 5.781 c 0.016 0.074 0.035 0.148 0.059 0.223 c 0.023 0.078 0.043 0.156 0.07 0.234 c 0.035 0.086 0.047 0.18 0.07 0.27 c 0.027 0.074 0.055 0.152 0.082 0.23 c 0.031 0.063 0.051 0.137 0.074 0.203 c 0.016 0.082 0.043 0.156 0.066 0.238 c 0.004 -0.016 0.004 0.016 0.008 0.023 c 0.004 0.004 -0.008 -0.02 -0.004 -0.016 c 0.023 0.02 0.051 0.102 0.063 0.129 c 0.035 0.063 0.063 0.133 0.086 0.203 c 0.039 0.078 0.055 0.164 0.066 0.25 c 0.055 0.43 -0.551 0.508 -0.605 0.078 c -0.008 -0.055 -0.023 -0.102 -0.047 -0.152 c -0.012 -0.063 -0.059 -0.113 -0.078 -0.172 c -0.004 -0.047 -0.086 -0.145 -0.082 -0.203 c -0.016 -0.063 -0.043 -0.125 -0.055 -0.188 c -0.023 -0.074 -0.047 -0.145 -0.078 -0.215 c -0.023 -0.09 -0.063 -0.172 -0.086 -0.262 c -0.02 -0.07 -0.031 -0.145 -0.055 -0.219 c -0.031 -0.086 -0.059 -0.172 -0.082 -0.262 c -0.027 -0.09 -0.051 -0.184 -0.074 -0.273 c -0.082 -0.426 0.516 -0.543 0.602 -0.121"/><path d="m 8.395 5.621 c 0.027 0.098 0.059 0.195 0.09 0.293 c 0.027 0.086 0.059 0.172 0.098 0.254 c 0.043 0.098 0.082 0.195 0.109 0.297 c 0.023 0.105 0.027 0.211 0.031 0.316 c 0.012 0.047 0.023 0.098 0.043 0.145 c 0.027 0.082 0.063 0.16 0.086 0.238 c 0.023 0.055 0.039 0.109 0.059 0.16 c 0.02 0.078 0.047 0.137 0.07 0.219 c 0.016 0.035 0.035 0.105 0.051 0.145 c 0.016 0.07 0.035 0.109 0.063 0.168 c 0.027 0.078 0.047 0.094 0.086 0.168 c 0.027 0.066 0.016 0.039 0.035 0.086 c 0.164 0.398 -0.398 0.629 -0.563 0.23 c -0.008 -0.012 -0.012 -0.027 -0.016 -0.039 c 0 -0.012 0 0 -0.016 -0.027 c -0.031 -0.051 -0.063 -0.105 -0.082 -0.164 c -0.031 -0.063 -0.063 -0.129 -0.078 -0.199 c -0.027 -0.074 -0.047 -0.148 -0.074 -0.219 c -0.012 -0.051 -0.039 -0.098 -0.047 -0.148 c -0.027 -0.07 -0.047 -0.141 -0.074 -0.211 c -0.016 -0.066 -0.059 -0.129 -0.074 -0.199 c -0.039 -0.109 -0.074 -0.223 -0.078 -0.34 c -0.004 -0.059 -0.004 -0.117 -0.016 -0.172 c -0.016 -0.07 -0.047 -0.133 -0.07 -0.195 c -0.047 -0.105 -0.09 -0.211 -0.121 -0.32 c -0.039 -0.121 -0.082 -0.242 -0.109 -0.367 c -0.086 -0.422 0.512 -0.543 0.598 -0.117"/><path d="m 8.098 5.391 c 0.031 -0.008 0.176 -0.023 0.199 -0.047 c 0.07 -0.023 0.137 -0.047 0.203 -0.07 c 0.055 -0.016 0.125 -0.043 0.176 -0.059 c 0.063 -0.031 0.141 -0.039 0.203 -0.059 c 0.043 -0.016 0.098 -0.039 0.156 -0.059 c 0.07 -0.027 0.129 -0.047 0.199 -0.07 c 0.07 -0.023 0.148 -0.051 0.23 -0.066 c 0.039 -0.016 0.098 -0.031 0.137 -0.043 c 0.059 -0.023 0.137 -0.059 0.223 -0.074 c 0.059 -0.02 0.07 -0.031 0.133 -0.055 c 0.059 -0.02 0.125 -0.047 0.18 -0.063 c 0.066 -0.027 0.141 -0.039 0.203 -0.059 c 0.055 -0.02 0.133 -0.051 0.215 -0.07 c 0.02 -0.008 0.055 -0.027 0.074 -0.039 c 0.379 -0.211 0.676 0.32 0.297 0.531 c -0.078 0.043 -0.156 0.086 -0.246 0.105 c -0.055 0.008 -0.098 0.043 -0.152 0.051 c -0.059 0.02 -0.117 0.027 -0.172 0.051 c -0.063 0.02 -0.125 0.039 -0.184 0.063 c -0.074 0.023 -0.145 0.063 -0.223 0.078 c -0.051 0.008 -0.09 0.043 -0.137 0.051 c -0.078 0.031 -0.16 0.051 -0.238 0.074 c -0.051 0.004 -0.098 0.031 -0.148 0.043 c -0.055 0.016 -0.109 0.039 -0.16 0.055 c -0.066 0.027 -0.133 0.051 -0.203 0.074 c -0.055 0.02 -0.117 0.027 -0.172 0.051 c -0.063 0.023 -0.129 0.043 -0.195 0.063 c -0.063 0.02 -0.121 0.047 -0.184 0.066 c -0.094 0.035 -0.195 0.063 -0.297 0.074 c -0.422 0.086 -0.543 -0.512 -0.117 -0.598"/><path d="m 12.03 6.04 c 0.109 0.039 0.199 0.109 0.289 0.18 c 0.027 0.027 0.047 0.031 0.082 0.047 c 0.398 0.168 0.16 0.727 -0.234 0.563 c -0.09 -0.039 -0.176 -0.082 -0.246 -0.145 c -0.047 -0.047 -0.105 -0.074 -0.164 -0.098 c -0.383 -0.195 -0.109 -0.738 0.273 -0.547"/><path d="m 12.363 5.973 c 0.051 0.004 0.102 0.023 0.148 0.039 c 0.008 0 0.039 0 -0.004 -0.008 c -0.012 0.008 0.074 -0.035 0.051 -0.031 c 0.117 -0.07 0.043 -0.031 0.145 -0.109 c 0.02 -0.023 -0.023 0.02 -0.012 0.008 c 0.031 -0.051 0.082 -0.094 0.125 -0.129 c 0.031 -0.02 0.063 -0.043 0.094 -0.051 c 0.25 -0.07 0.395 0.051 0.484 0.266 c 0.008 0.023 0.016 0.047 0.02 0.07 c 0.012 0.055 0.027 0.219 0.023 0.16 c -0.047 -0.098 -0.039 -0.113 -0.16 -0.176 c -0.043 -0.102 -0.09 -0.004 -0.133 -0.02 c -0.008 0 0.012 -0.004 0.02 -0.008 c 0.066 -0.027 0.145 -0.063 0.23 -0.082 c 0.422 -0.098 0.555 0.5 0.137 0.594 c -0.051 0.008 -0.094 0.047 -0.141 0.055 c -0.18 0.07 -0.328 0.078 -0.477 -0.074 c -0.031 -0.031 -0.039 -0.074 -0.063 -0.113 c -0.016 -0.063 -0.031 -0.129 -0.027 -0.195 c 0.082 0.121 0.25 0.145 0.367 0.055 c 0.004 -0.004 0.012 -0.012 0.016 -0.016 c 0.012 -0.016 -0.023 0.027 -0.039 0.043 c -0.027 0.035 -0.063 0.07 -0.102 0.102 c 0.004 -0.004 0.008 -0.012 0.008 -0.008 c -0.051 0.039 -0.094 0.09 -0.152 0.121 c -0.105 0.07 -0.219 0.129 -0.348 0.145 c -0.031 0.004 -0.063 0.008 -0.094 0.008 c -0.082 -0.004 -0.156 -0.031 -0.238 -0.047 c -0.422 -0.086 -0.301 -0.684 0.121 -0.598"/><path d="m 12.152 6.953 c 0.004 0 0.012 -0.004 0.008 0 c -0.074 0.055 -0.039 0.035 -0.008 -0.012 c 0.027 -0.055 0.012 -0.109 0 -0.164 c 0.023 0.02 0.012 0.012 0.035 0.023 c 0.367 0.223 0.051 0.742 -0.316 0.52 c -0.078 -0.051 -0.043 -0.023 -0.109 -0.074 c -0.16 -0.145 -0.246 -0.305 -0.18 -0.523 c 0.016 -0.031 0.027 -0.063 0.043 -0.094 c 0.063 -0.098 0.156 -0.16 0.254 -0.219 c 0.387 -0.195 0.66 0.352 0.273 0.543"/><path d="m 14.09 6.219 c -0.023 0.078 -0.066 0.152 -0.105 0.227 c -0.035 0.047 -0.051 0.098 -0.074 0.148 c 0 0.008 -0.004 0.016 -0.008 0.027 c -0.172 0.395 -0.73 0.152 -0.563 -0.242 c 0.004 -0.012 0.012 -0.023 0.016 -0.031 c 0.027 -0.074 0.063 -0.141 0.102 -0.207 c 0.035 -0.063 0.063 -0.129 0.09 -0.195 c 0.191 -0.387 0.738 -0.113 0.543 0.273"/></g><path d="m 14.367 7.547 c -0.07 0 -0.145 -0.008 -0.215 0.008 c 0 0.004 -0.098 0.008 -0.074 0.012 c -0.414 0.121 -0.586 -0.461 -0.172 -0.582 c 0.047 -0.016 0.098 -0.027 0.145 -0.031 c 0.105 -0.02 0.211 -0.02 0.316 -0.016 c 0.434 0 0.434 0.609 0 0.609" fill="#ff8c00"/><g fill="#d1b38c"><path d="m 14.328 7.953 c -0.078 0 -0.152 0 -0.23 0 c -0.434 0 -0.434 -0.609 0 -0.609 c 0.078 0 0.152 0 0.23 0 c 0.43 0 0.43 0.609 0 0.609"/><path d="m 14.383 7.555 c -0.016 0 -0.035 0 -0.051 0 c -0.059 0 -0.121 -0.004 -0.184 0 c -0.004 0 -0.016 0.004 -0.012 0.004 c 0.008 0 0.02 0 0.031 -0.004 c 0.043 -0.027 0.086 -0.051 0.129 -0.078 c -0.383 0.457 -0.945 -0.172 -0.559 -0.629 c 0.063 -0.051 0.125 -0.098 0.188 -0.148 c 0.043 -0.012 0.082 -0.027 0.125 -0.035 c 0.109 -0.023 0.223 -0.004 0.332 -0.012 c 0.551 0 0.551 0.902 0 0.902"/><path d="m 13.379 8.617 c 0 0.004 0.004 0.012 0.004 0.008 c -0.051 -0.063 -0.078 -0.141 -0.113 -0.215 c -0.023 -0.059 -0.016 -0.035 -0.031 -0.074 c -0.164 -0.398 0.398 -0.633 0.563 -0.234 c 0.016 0.035 0.012 0.02 0.02 0.047 c 0.031 0.066 0.059 0.137 0.105 0.195 c 0.191 0.387 -0.355 0.66 -0.547 0.273"/><path d="m 12.879 8.711 c -0.039 -0.078 -0.039 -0.176 -0.074 -0.254 c -0.16 -0.402 0.406 -0.629 0.566 -0.227 c 0.031 0.082 0.051 0.172 0.074 0.254 c 0.16 0.402 -0.406 0.629 -0.566 0.227"/><path d="m 12.27 8.01 c 0 -0.012 0.004 -0.023 0.004 -0.031 c 0.074 -0.426 0.676 -0.32 0.602 0.105 c -0.004 0.016 -0.004 0.027 -0.008 0.043 c -0.086 0.426 -0.684 0.305 -0.598 -0.117"/><path d="m 11.961 7.406 c 0.051 -0.023 0.031 -0.012 0.055 -0.027 c 0.379 -0.207 0.672 0.328 0.293 0.535 c -0.066 0.035 -0.043 0.023 -0.078 0.035 c -0.383 0.195 -0.656 -0.352 -0.27 -0.543"/><path d="m 10.82 7.953 c 0.105 -0.02 0.211 -0.031 0.32 -0.035 c 0.109 -0.008 0.219 -0.008 0.324 0.008 c 0.086 0.012 0.172 0.031 0.254 0.051 c 0.043 0.012 0.082 0.012 0.125 0.016 c 0.43 0.023 0.398 0.633 -0.031 0.609 c -0.082 -0.004 -0.168 -0.012 -0.246 -0.031 c -0.066 -0.02 -0.129 -0.035 -0.195 -0.039 c -0.066 -0.012 -0.129 -0.008 -0.195 -0.004 c -0.078 0.004 -0.156 0.012 -0.234 0.023 c -0.426 0.086 -0.543 -0.512 -0.121 -0.598"/><path d="m 11.246 9.578 c 0.094 0 0.188 0 0.277 0 c 0.102 -0.004 0.199 0.02 0.297 0.031 c 0.07 0.008 0.141 0.008 0.211 0.012 c 0.082 0 0.16 0 0.242 0 c 0.094 -0.004 0.188 0.02 0.281 0.031 c 0.043 0.004 0.09 0.004 0.133 0.008 c 0.434 0.012 0.414 0.621 -0.02 0.609 c -0.063 -0.004 -0.125 -0.004 -0.188 -0.012 c -0.07 -0.008 -0.141 -0.027 -0.207 -0.027 c -0.082 0 -0.164 0 -0.25 0 c -0.09 -0.004 -0.184 -0.004 -0.277 -0.016 c -0.074 -0.008 -0.148 -0.027 -0.223 -0.027 c -0.09 0 -0.184 0 -0.277 0 c -0.43 0 -0.43 -0.609 0 -0.609"/></g></svg>