<svg xmlns="http://www.w3.org/2000/svg" viewBox="0 0 22 22" xmlns:xlink="http://www.w3.org/1999/xlink"><defs><linearGradient id="2" gradientUnits="userSpaceOnUse" x1="-602.56" y1="-582.88" x2="612.14" y2="227.18" gradientTransform="matrix(0.01113 0 0 0.01114 1.051 10.126)" xlink:href="#0"/><linearGradient id="1" gradientUnits="userSpaceOnUse" x1="610.85" y1="220.39" x2="758.95" y2="72.28" spreadMethod="reflect" gradientTransform="matrix(-0.0204 0.0118 -0.01178 -0.02043 27.586 9.813)"><stop stop-color="#5c5c5c"/><stop offset="1" stop-color="#000"/></linearGradient><radialGradient id="0" gradientUnits="userSpaceOnUse" cx="1129.63" cy="322.76" r="506.42" gradientTransform="matrix(0.03702 -0.00994 0.00992 0.03709 -22.534 15.859)"><stop stop-color="#fff"/><stop offset="1" stop-color="#fff" stop-opacity="0"/></radialGradient></defs><path d="m 20.11 4.609 c -4.172 -7.574 -17.242 -4.637 -19.453 1.602 c -2.637 7.43 4.223 21.539 15.836 13.273 c 3.914 -2.887 7.785 -7.301 3.613 -14.875" fill="#b0c3de"/><path d="m -52.583 -94.38 c -141.19 0 -255.72 114.62 -255.72 256.07 c 0 141.28 114.52 255.9 255.72 255.9 c 141.19 0 255.72 -114.62 255.72 -255.9 c 0 -141.45 -114.52 -256.07 -255.72 -256.07 m 0.833 219.25 c 19.504 0 35.17 15.827 35.17 35.15 c 0 19.493 -15.67 35.32 -35.17 35.32 c -19.504 0 -35.34 -15.827 -35.34 -35.32 c 0 -19.493 15.836 -35.15 35.34 -35.15" transform="matrix(0.02343 0 0 0.02345 12.306 6.83)" stroke="#fff" stroke-width="1.5"/><path d="m 8.219 5.668 c 0.348 -0.145 0.754 -0.379 1.152 -0.484 c 2.117 -0.691 4.602 0.023 6.03 1.738 c 0.191 0.184 0.555 0.801 0.586 0.777 c -1.121 -1.941 -3.457 -3.07 -5.668 -2.746 c -0.738 0.098 -1.453 0.34 -2.098 0.715 m 0.063 0.105 c 0.34 -0.137 0.738 -0.367 1.129 -0.473 c 2.094 -0.688 4.547 0.039 5.938 1.75 c 0.172 0.172 0.484 0.707 0.531 0.711 c -1.098 -1.898 -3.383 -3.01 -5.547 -2.688 c -0.723 0.094 -1.422 0.336 -2.051 0.699 m 0.059 0.105 c 0.332 -0.133 0.723 -0.359 1.105 -0.461 c 2.047 -0.672 4.449 0.035 5.809 1.711 c 0.168 0.168 0.473 0.691 0.52 0.695 c -1.082 -1.879 -3.355 -2.961 -5.492 -2.621 c -0.68 0.102 -1.344 0.328 -1.941 0.676 m 0.063 0.105 c 0.324 -0.129 0.707 -0.352 1.078 -0.449 c 2.023 -0.664 4.398 0.051 5.723 1.723 c 0.168 0.188 0.699 1.035 0.324 0.406 c -1.145 -1.781 -3.414 -2.73 -5.484 -2.297 c -0.574 0.113 -1.133 0.324 -1.641 0.617 m 0.063 0.105 c 0.645 -0.313 1.41 -0.613 2.172 -0.656 c 1.961 -0.191 3.973 0.859 4.938 2.582 c -0.309 -0.652 -0.906 -1.254 -1.52 -1.688 c -1.617 -1.152 -3.879 -1.25 -5.59 -0.238 m 0.059 0.105 c 0.633 -0.309 1.379 -0.598 2.121 -0.641 c 1.918 -0.184 3.879 0.84 4.824 2.523 c -0.301 -0.637 -0.883 -1.223 -1.484 -1.648 c -1.582 -1.125 -3.789 -1.223 -5.461 -0.234 m 0.063 0.105 c 0.613 -0.297 1.344 -0.586 2.07 -0.625 c 1.871 -0.18 3.785 0.82 4.707 2.461 c -0.293 -0.621 -0.863 -1.191 -1.445 -1.609 c -1.547 -1.098 -3.699 -1.188 -5.332 -0.227 m 0.063 0.109 c 0.598 -0.293 1.313 -0.574 2.02 -0.613 c 1.824 -0.172 3.691 0.805 4.59 2.402 c -0.285 -0.605 -0.844 -1.164 -1.41 -1.57 c -1.508 -1.07 -3.609 -1.16 -5.199 -0.219 m 0.059 0.105 c 0.586 -0.281 1.281 -0.559 1.969 -0.598 c 1.777 -0.168 3.598 0.781 4.477 2.344 c -0.277 -0.594 -0.82 -1.137 -1.375 -1.531 c -1.469 -1.047 -3.52 -1.133 -5.07 -0.215 m 0.063 0.105 c 0.566 -0.273 1.246 -0.543 1.918 -0.578 c 1.73 -0.168 3.504 0.758 4.359 2.277 c -0.27 -0.574 -0.801 -1.105 -1.34 -1.492 c -1.43 -1.016 -3.426 -1.102 -4.938 -0.207 m 0.063 0.105 c 0.551 -0.262 1.211 -0.527 1.863 -0.563 c 1.688 -0.164 3.414 0.742 4.242 2.219 c -0.254 -0.559 -0.777 -1.078 -1.301 -1.453 c -1.391 -0.988 -3.336 -1.07 -4.805 -0.203 m 0.059 0.105 c 0.535 -0.25 1.18 -0.516 1.816 -0.547 c 1.641 -0.156 3.32 0.723 4.125 2.16 c -0.246 -0.543 -0.754 -1.051 -1.266 -1.414 c -1.355 -0.965 -3.242 -1.043 -4.676 -0.199 m 0.063 0.105 c 0.52 -0.246 1.148 -0.5 1.766 -0.531 c 1.594 -0.152 3.223 0.703 4.01 2.098 c -0.238 -0.527 -0.734 -1.02 -1.23 -1.371 c -1.316 -0.938 -3.152 -1.016 -4.543 -0.195 m 0.059 0.105 c 0.508 -0.234 1.117 -0.484 1.715 -0.516 c 1.551 -0.148 3.133 0.684 3.895 2.039 c -0.227 -0.512 -0.711 -0.992 -1.195 -1.336 c -1.277 -0.906 -3.063 -0.984 -4.414 -0.188 m 0.063 0.109 c 0.488 -0.227 1.082 -0.473 1.664 -0.5 c 1.5 -0.145 3.039 0.66 3.777 1.977 c -0.219 -0.496 -0.691 -0.965 -1.156 -1.297 c -1.242 -0.883 -2.973 -0.957 -4.285 -0.184 m 0.063 0.109 c 0.473 -0.219 1.047 -0.457 1.613 -0.484 c 1.453 -0.141 2.945 0.641 3.66 1.914 c -0.215 -0.48 -0.672 -0.93 -1.121 -1.254 c -1.203 -0.855 -2.883 -0.93 -4.152 -0.176 m 0.059 0.105 c 0.461 -0.207 1.016 -0.441 1.563 -0.469 c 1.41 -0.133 2.852 0.621 3.547 1.855 c -0.203 -0.465 -0.648 -0.902 -1.086 -1.215 c -1.164 -0.832 -2.793 -0.898 -4.02 -0.172 m 0.063 0.105 c 0.445 -0.199 0.984 -0.426 1.512 -0.453 c 1.363 -0.129 2.758 0.602 3.43 1.797 c -0.195 -0.449 -0.629 -0.875 -1.051 -1.18 c -1.129 -0.801 -2.699 -0.867 -3.891 -0.164 m 0.063 0.105 c 0.426 -0.191 0.949 -0.414 1.461 -0.434 c 1.316 -0.129 2.664 0.578 3.313 1.73 c -0.188 -0.434 -0.609 -0.844 -1.016 -1.137 c -1.09 -0.773 -2.609 -0.84 -3.758 -0.16 m 0.059 0.105 c 0.414 -0.18 0.918 -0.398 1.41 -0.418 c 1.273 -0.121 2.574 0.559 3.199 1.672 c -0.18 -0.418 -0.586 -0.816 -0.98 -1.098 c -1.051 -0.75 -2.516 -0.813 -3.629 -0.156 m 0.063 0.105 c 0.395 -0.172 0.883 -0.383 1.359 -0.402 c 1.223 -0.117 2.477 0.539 3.082 1.613 c -0.172 -0.406 -0.566 -0.789 -0.945 -1.062 c -1.012 -0.719 -2.426 -0.781 -3.496 -0.148 m 0.063 0.105 c 0.379 -0.16 0.848 -0.367 1.305 -0.387 c 1.18 -0.113 2.387 0.52 2.969 1.551 c -0.16 -0.387 -0.547 -0.758 -0.91 -1.02 c -0.973 -0.691 -2.336 -0.75 -3.363 -0.145 m 0.059 0.105 c 0.367 -0.152 0.82 -0.352 1.258 -0.371 c 1.133 -0.105 2.293 0.5 2.852 1.492 c -0.152 -0.371 -0.523 -0.73 -0.871 -0.98 c -0.938 -0.668 -2.246 -0.723 -3.238 -0.137 m 0.063 0.105 c 0.352 -0.148 0.785 -0.34 1.207 -0.355 c 1.086 -0.105 2.195 0.477 2.734 1.43 c -0.145 -0.359 -0.504 -0.703 -0.836 -0.941 c -0.902 -0.641 -2.156 -0.695 -3.105 -0.133 m 0.059 0.105 c 0.336 -0.137 0.754 -0.328 1.156 -0.34 c 1.043 -0.102 2.105 0.457 2.617 1.367 c -0.129 -0.34 -0.477 -0.672 -0.797 -0.902 c -0.863 -0.613 -2.066 -0.664 -2.977 -0.125 m 0.063 0.105 c 0.523 -0.25 1.199 -0.422 1.816 -0.289 c 0.754 0.125 1.418 0.664 1.809 1.262 c -0.645 -1.184 -2.254 -1.68 -3.453 -1.063 c -0.059 0.027 -0.113 0.059 -0.172 0.09 m 0.063 0.105 c 0.625 -0.313 1.461 -0.445 2.152 -0.152 c 0.551 0.184 1 0.645 1.305 1.082 c -0.652 -1.195 -2.297 -1.637 -3.457 -0.93 m 0.059 0.105 c 0.598 -0.293 1.391 -0.422 2.051 -0.145 c 0.523 0.176 0.953 0.617 1.242 1.031 c -0.621 -1.137 -2.188 -1.559 -3.293 -0.887 m 0.063 0.105 c 0.563 -0.277 1.32 -0.398 1.945 -0.137 c 0.496 0.164 0.902 0.59 1.18 0.977 c -0.59 -1.078 -2.078 -1.477 -3.125 -0.84 m 0.063 0.109 c 0.531 -0.262 1.246 -0.383 1.84 -0.129 c 0.473 0.152 0.855 0.559 1.117 0.922 c -0.559 -1.02 -1.965 -1.398 -2.957 -0.793 m 0.059 0.105 c 0.5 -0.242 1.18 -0.359 1.738 -0.121 c 0.445 0.145 0.805 0.531 1.055 0.867 c -0.527 -0.961 -1.855 -1.316 -2.793 -0.746 m 0.063 0.105 c 0.469 -0.223 1.105 -0.34 1.633 -0.113 c 0.418 0.137 0.758 0.504 0.992 0.816 c -0.496 -0.902 -1.746 -1.238 -2.625 -0.703 m 0.063 0.105 c 0.438 -0.203 1.035 -0.316 1.527 -0.102 c 0.34 0.051 0.863 0.664 0.883 0.688 c -0.496 -0.801 -1.609 -1.07 -2.41 -0.586 m 0.059 0.105 c 0.406 -0.184 0.969 -0.293 1.426 -0.094 c 0.316 0.051 0.801 0.617 0.82 0.641 c -0.457 -0.746 -1.496 -0.996 -2.246 -0.547 m 0.063 0.105 c 0.375 -0.164 0.895 -0.273 1.32 -0.086 c 0.297 0.051 0.734 0.57 0.762 0.59 c -0.426 -0.688 -1.387 -0.922 -2.082 -0.504 m 0.063 0.105 c 0.344 -0.145 0.824 -0.25 1.215 -0.078 c 0.273 0.047 0.676 0.527 0.703 0.547 c -0.395 -0.637 -1.277 -0.852 -1.918 -0.469 m 0.059 0.109 c 0.582 -0.328 1.449 -0.098 1.789 0.48 c -0.34 -0.621 -1.184 -0.848 -1.789 -0.48 m 0.063 0.105 c 0.523 -0.297 1.313 -0.082 1.621 0.434 c -0.309 -0.559 -1.074 -0.766 -1.621 -0.434 m 0.063 0.105 c 0.465 -0.262 1.176 -0.07 1.453 0.391 c -0.273 -0.504 -0.965 -0.688 -1.453 -0.391 m -4.414 3.785 c 1.098 1.953 3.418 3.113 5.637 2.816 c 0.758 -0.094 1.5 -0.34 2.164 -0.723 c -0.348 0.137 -0.754 0.375 -1.156 0.48 c -2.117 0.691 -4.598 -0.023 -6.02 -1.734 c -0.234 -0.254 -0.426 -0.605 -0.621 -0.84 m 0.105 -0.063 c 1.074 1.914 3.344 3.047 5.516 2.758 c 0.742 -0.094 1.469 -0.336 2.117 -0.711 c -0.34 0.137 -0.738 0.367 -1.129 0.473 c -2.074 0.68 -4.5 -0.02 -5.895 -1.699 c -0.23 -0.246 -0.418 -0.59 -0.609 -0.82 m 0.105 -0.063 c 1.051 1.871 3.27 2.984 5.395 2.695 c 0.727 -0.086 1.438 -0.324 2.07 -0.691 c -0.332 0.133 -0.723 0.359 -1.102 0.461 c -2.027 0.664 -4.402 -0.02 -5.77 -1.66 c -0.223 -0.242 -0.406 -0.578 -0.594 -0.805 m 0.105 -0.059 c 1.039 1.848 3.246 2.934 5.34 2.625 c 0.688 -0.09 1.359 -0.32 1.961 -0.668 c -0.324 0.125 -0.707 0.352 -1.082 0.449 c -1.98 0.652 -4.301 -0.02 -5.637 -1.625 c -0.219 -0.23 -0.398 -0.566 -0.582 -0.781 m 0.109 -0.063 c 1.07 1.926 3.441 2.988 5.59 2.5 c 0.527 -0.117 1.113 -0.305 1.527 -0.605 c -1.918 1.148 -4.555 0.844 -6.156 -0.715 c -0.379 -0.336 -0.688 -0.801 -0.961 -1.18 m 0.105 -0.063 c 1.066 1.918 3.453 2.953 5.582 2.418 c 0.469 -0.121 1.01 -0.293 1.371 -0.566 c -1.875 1.121 -4.449 0.824 -6.02 -0.699 c -0.371 -0.328 -0.672 -0.785 -0.938 -1.152 m 0.105 -0.063 c 1.039 1.875 3.371 2.887 5.445 2.363 c 0.461 -0.121 0.984 -0.289 1.34 -0.559 c -1.828 1.098 -4.34 0.809 -5.871 -0.68 c -0.359 -0.316 -0.656 -0.766 -0.914 -1.125 m 0.105 -0.059 c 1.035 1.863 3.379 2.844 5.43 2.273 c 0.406 -0.117 0.879 -0.273 1.188 -0.512 c -1.816 1.09 -4.324 0.77 -5.809 -0.75 c -0.316 -0.289 -0.574 -0.699 -0.809 -1.012 m 0.105 -0.063 c 1.01 1.816 3.293 2.773 5.293 2.219 c 0.395 -0.117 0.859 -0.266 1.16 -0.504 c -1.773 1.063 -4.219 0.754 -5.664 -0.727 c -0.309 -0.281 -0.559 -0.688 -0.789 -0.988 m 0.105 -0.059 c 0.984 1.766 3.207 2.699 5.156 2.156 c 0.387 -0.109 0.84 -0.258 1.129 -0.488 c -1.727 1.035 -4.105 0.73 -5.516 -0.707 c -0.301 -0.277 -0.547 -0.672 -0.77 -0.961 m 0.105 -0.063 c 0.973 1.758 3.207 2.66 5.125 2.07 c 0.336 -0.105 0.742 -0.238 0.992 -0.445 c -1.711 1.027 -4.082 0.695 -5.445 -0.766 c -0.262 -0.25 -0.473 -0.609 -0.672 -0.859 m 0.105 -0.063 c 0.949 1.711 3.117 2.59 4.984 2.02 c 0.328 -0.105 0.727 -0.23 0.969 -0.434 c -1.664 1 -3.973 0.676 -5.297 -0.746 c -0.254 -0.242 -0.461 -0.59 -0.656 -0.836 m 0.105 -0.063 c 0.922 1.664 3.03 2.52 4.844 1.961 c 0.32 -0.102 0.711 -0.227 0.941 -0.422 c -1.617 0.973 -3.859 0.656 -5.148 -0.727 c -0.246 -0.234 -0.445 -0.574 -0.637 -0.813 m 0.105 -0.059 c 0.91 1.645 3.02 2.469 4.805 1.875 c 0.23 -0.023 1.195 -0.566 0.547 -0.242 c -1.664 0.844 -3.859 0.34 -4.992 -1.148 c -0.133 -0.141 -0.238 -0.379 -0.359 -0.484 m 0.105 -0.063 c 0.883 1.598 2.934 2.398 4.66 1.82 c 0.227 -0.02 1.164 -0.547 0.535 -0.238 c -1.617 0.82 -3.746 0.332 -4.848 -1.109 c -0.129 -0.137 -0.23 -0.371 -0.348 -0.473 m 0.105 -0.059 c 0.871 1.574 2.918 2.344 4.609 1.734 c 0.215 -0.035 1.02 -0.5 0.426 -0.203 c -1.566 0.793 -3.629 0.32 -4.695 -1.078 c -0.125 -0.129 -0.227 -0.359 -0.34 -0.453 m 0.109 -0.063 c 0.84 1.527 2.82 2.273 4.461 1.68 c 0.207 -0.031 0.984 -0.484 0.41 -0.195 c -1.516 0.77 -3.516 0.313 -4.547 -1.043 c -0.121 -0.129 -0.215 -0.348 -0.324 -0.441 m 0.105 -0.063 c 0.813 1.48 2.73 2.199 4.316 1.625 c 0.285 -0.066 0.961 -0.477 0.316 -0.152 c -1.512 0.723 -3.473 0.199 -4.426 -1.188 c -0.07 -0.066 -0.133 -0.266 -0.207 -0.285 m 0.105 -0.059 c 0.789 1.426 2.637 2.125 4.172 1.566 c 0.277 -0.063 0.926 -0.461 0.305 -0.145 c -1.484 0.711 -3.422 0.164 -4.32 -1.219 c -0.059 -0.027 -0.094 -0.23 -0.156 -0.203 m 0.105 -0.063 c 0.773 1.402 2.609 2.07 4.102 1.488 c 0.281 -0.086 0.773 -0.402 0.223 -0.117 c -1.438 0.688 -3.305 0.164 -4.172 -1.172 c -0.055 -0.031 -0.094 -0.223 -0.152 -0.199 m 0.105 -0.063 c 0.746 1.355 2.516 1.996 3.957 1.434 c 0.27 -0.078 0.742 -0.387 0.211 -0.109 c -1.387 0.66 -3.184 0.156 -4.02 -1.133 c -0.051 -0.027 -0.086 -0.219 -0.145 -0.191 m 0.105 -0.063 c 0.73 1.332 2.484 1.941 3.879 1.355 c 0.273 -0.098 0.59 -0.324 0.133 -0.082 c -1.406 0.68 -3.242 0.086 -3.992 -1.281 m 0.086 -0.051 c 0.703 1.277 2.387 1.863 3.73 1.301 c 0.266 -0.094 0.563 -0.313 0.125 -0.078 c -1.348 0.648 -3.117 0.078 -3.836 -1.234 m 0.086 -0.051 c 0.684 1.246 2.348 1.809 3.645 1.223 c 0.703 -0.363 -0.262 0.129 -0.543 0.145 c -1.184 0.27 -2.488 -0.316 -3.082 -1.379 m 0.086 -0.047 c 0.668 1.215 2.305 1.742 3.555 1.141 c 0.57 -0.313 -0.418 0.199 -0.648 0.18 c -1.117 0.223 -2.332 -0.34 -2.887 -1.332 m 0.086 -0.051 c 0.66 1.207 2.309 1.695 3.512 1.035 c 0.492 -0.273 -1.016 0.461 -0.609 0.199 c -1.098 0.277 -2.332 -0.254 -2.883 -1.246 m 0.086 -0.051 c 0.648 1.191 2.305 1.637 3.461 0.93 c -0.555 0.27 -1.277 0.426 -1.914 0.23 c -0.637 -0.168 -1.199 -0.598 -1.527 -1.172 l -0.016 0.012 m 0.105 -0.063 c 0.613 1.137 2.191 1.563 3.289 0.887 c -0.523 0.25 -1.215 0.406 -1.824 0.219 c -0.617 -0.145 -1.137 -0.617 -1.465 -1.105 m 0.105 -0.059 c 0.582 1.078 2.082 1.48 3.125 0.836 c -0.5 0.238 -1.156 0.387 -1.734 0.207 c -0.586 -0.137 -1.078 -0.586 -1.391 -1.043 m 0.105 -0.063 c 0.551 1.02 1.969 1.402 2.957 0.793 c -0.473 0.223 -1.094 0.367 -1.637 0.195 c -0.563 -0.129 -1.023 -0.559 -1.32 -0.988 m 0.105 -0.059 c 0.52 0.961 1.859 1.32 2.789 0.746 c -0.441 0.203 -1.031 0.348 -1.543 0.184 c -0.512 -0.133 -0.965 -0.48 -1.227 -0.941 m 0.086 -0.051 c 0.492 0.902 1.746 1.242 2.625 0.703 c -0.445 0.207 -1.039 0.332 -1.547 0.145 c -0.453 -0.129 -0.828 -0.5 -1.078 -0.848 m 0.105 -0.063 c 0.461 0.848 1.637 1.164 2.457 0.66 c -0.387 0.172 -0.91 0.305 -1.359 0.156 c -0.465 -0.102 -0.848 -0.469 -1.098 -0.816 m 0.105 -0.059 c 0.43 0.789 1.527 1.082 2.293 0.613 c -0.359 0.152 -0.848 0.285 -1.27 0.145 c -0.434 -0.094 -0.789 -0.441 -1.023 -0.762 m 0.105 -0.059 c 0.398 0.73 1.414 1 2.125 0.57 c -0.332 0.137 -0.785 0.262 -1.176 0.133 c -0.387 -0.102 -0.73 -0.367 -0.93 -0.715 m 0.086 -0.051 c 0.367 0.676 1.305 0.926 1.957 0.527 c -0.301 0.121 -0.723 0.242 -1.082 0.121 c -0.355 -0.094 -0.672 -0.336 -0.855 -0.66 m 0.086 -0.051 c 0.316 0.621 1.25 0.863 1.781 0.461 c -0.602 0.391 -1.438 0.09 -1.781 -0.461 m 0.105 -0.059 c 0.305 0.559 1.082 0.77 1.625 0.434 c -0.379 0.18 -0.945 0.207 -1.309 -0.105 c -0.125 -0.07 -0.223 -0.27 -0.316 -0.328 m 0.105 -0.063 c 0.273 0.504 0.973 0.691 1.457 0.391 c -0.336 0.152 -0.844 0.184 -1.168 -0.098 c -0.117 -0.059 -0.203 -0.246 -0.285 -0.293" fill="url(#0)"/><path d="m 8.16 5.703 c -1.898 1.098 -3.02 3.363 -2.762 5.539 c 0.086 0.785 0.336 1.555 0.73 2.238 c -0.141 -0.348 -0.375 -0.758 -0.48 -1.156 c -0.684 -2.098 0.004 -4.555 1.68 -5.992 c 0.195 -0.211 0.883 -0.617 0.832 -0.629 m 0.063 0.105 c -1.879 1.086 -2.98 3.336 -2.695 5.488 c 0.09 0.746 0.332 1.473 0.707 2.121 c -0.137 -0.34 -0.367 -0.738 -0.469 -1.129 c -0.664 -2.035 -0.012 -4.41 1.594 -5.816 c 0.195 -0.227 0.941 -0.676 0.863 -0.664 m 0.063 0.105 c -1.836 1.063 -2.918 3.262 -2.637 5.367 c 0.09 0.73 0.324 1.441 0.691 2.074 c -0.133 -0.332 -0.359 -0.723 -0.461 -1.105 c -0.652 -2.01 0.004 -4.359 1.609 -5.73 c 0.188 -0.203 0.844 -0.59 0.797 -0.605 m 0.059 0.105 c -1.813 1.047 -2.867 3.234 -2.566 5.313 c 0.094 0.691 0.32 1.359 0.668 1.965 c -0.125 -0.324 -0.352 -0.707 -0.449 -1.082 c -0.641 -1.965 0.004 -4.262 1.574 -5.605 c 0.184 -0.199 0.82 -0.574 0.773 -0.59 m 0.066 0.105 c -1.773 1.023 -2.809 3.164 -2.508 5.191 c 0.09 0.672 0.313 1.328 0.652 1.918 c -0.125 -0.316 -0.344 -0.691 -0.441 -1.059 c -0.633 -1.938 0.02 -4.207 1.586 -5.516 c 0.168 -0.176 0.73 -0.504 0.711 -0.535 m 0.063 0.105 c -1.75 1.012 -2.762 3.133 -2.441 5.133 c 0.09 0.637 0.305 1.254 0.629 1.809 c -0.121 -0.309 -0.336 -0.672 -0.43 -1.031 c -0.625 -1.914 0.035 -4.156 1.594 -5.426 c 0.156 -0.16 0.645 -0.438 0.645 -0.484 m 0.07 0.109 c -0.035 0.008 -0.516 0.313 -0.605 0.41 c -1.543 1.227 -2.215 3.422 -1.625 5.305 c 0.109 0.367 0.262 0.723 0.457 1.059 c -0.195 -0.441 -0.457 -0.961 -0.539 -1.477 c -0.441 -1.977 0.48 -4.164 2.215 -5.219 c 0.078 -0.059 0.105 -0.078 0.098 -0.078 m 0.117 0.09 c -0.602 0.285 -1.16 0.84 -1.566 1.41 c -1.07 1.508 -1.16 3.617 -0.219 5.211 c -0.293 -0.598 -0.57 -1.313 -0.609 -2.02 c -0.176 -1.828 0.797 -3.703 2.395 -4.602 m 0.063 0.105 c -0.59 0.273 -1.133 0.82 -1.527 1.375 c -1.043 1.469 -1.129 3.527 -0.215 5.078 c -0.277 -0.582 -0.559 -1.281 -0.594 -1.969 c -0.172 -1.781 0.777 -3.605 2.336 -4.484 m 0.063 0.105 c -0.574 0.266 -1.105 0.801 -1.488 1.34 c -1.016 1.434 -1.102 3.434 -0.211 4.949 c -0.27 -0.57 -0.543 -1.25 -0.578 -1.922 c -0.168 -1.734 0.762 -3.512 2.277 -4.367 m 0.059 0.105 c -0.555 0.262 -1.074 0.777 -1.449 1.305 c -0.988 1.395 -1.07 3.344 -0.203 4.816 c -0.262 -0.551 -0.527 -1.215 -0.563 -1.867 c -0.16 -1.691 0.738 -3.422 2.215 -4.254 m 0.063 0.105 c -0.543 0.25 -1.047 0.758 -1.41 1.27 c -0.965 1.355 -1.043 3.254 -0.199 4.684 c -0.254 -0.535 -0.512 -1.18 -0.547 -1.816 c -0.156 -1.645 0.719 -3.328 2.156 -4.137 m 0.063 0.109 c -0.527 0.238 -1.02 0.734 -1.375 1.23 c -0.934 1.316 -1.012 3.164 -0.191 4.555 c -0.242 -0.523 -0.496 -1.148 -0.531 -1.77 c -0.152 -1.594 0.699 -3.23 2.098 -4.02 m 0.059 0.105 c -0.512 0.227 -0.988 0.715 -1.332 1.195 c -0.906 1.277 -0.984 3.066 -0.188 4.422 c -0.234 -0.504 -0.484 -1.117 -0.512 -1.719 c -0.148 -1.551 0.676 -3.137 2.031 -3.898 m 0.063 0.105 c -0.496 0.219 -0.961 0.691 -1.293 1.156 c -0.883 1.246 -0.957 2.98 -0.184 4.293 c -0.223 -0.488 -0.469 -1.082 -0.496 -1.664 c -0.145 -1.504 0.656 -3.047 1.973 -3.785 m 0.063 0.105 c -0.48 0.211 -0.934 0.672 -1.254 1.121 c -0.855 1.207 -0.93 2.891 -0.18 4.164 c -0.215 -0.477 -0.453 -1.051 -0.48 -1.617 c -0.141 -1.457 0.637 -2.949 1.914 -3.668 m 0.059 0.105 c -0.465 0.203 -0.902 0.652 -1.215 1.09 c -0.828 1.164 -0.895 2.797 -0.168 4.03 c -0.211 -0.461 -0.441 -1.016 -0.469 -1.563 c -0.137 -1.414 0.617 -2.859 1.852 -3.555 m 0.063 0.105 c -0.449 0.195 -0.875 0.629 -1.176 1.055 c -0.801 1.125 -0.867 2.707 -0.164 3.895 c -0.203 -0.441 -0.426 -0.98 -0.453 -1.512 c -0.129 -1.363 0.598 -2.766 1.793 -3.438 m 0.063 0.105 c -0.434 0.188 -0.848 0.609 -1.137 1.016 c -0.773 1.09 -0.84 2.613 -0.16 3.77 c -0.191 -0.43 -0.414 -0.953 -0.438 -1.465 c -0.125 -1.316 0.578 -2.668 1.734 -3.32 m 0.059 0.105 c -0.418 0.18 -0.816 0.586 -1.098 0.98 c -0.746 1.051 -0.809 2.523 -0.152 3.637 c -0.184 -0.414 -0.398 -0.918 -0.418 -1.41 c -0.125 -1.273 0.555 -2.578 1.668 -3.207 m 6.629 0.063 c 0.141 0.348 0.375 0.754 0.48 1.152 c 0.684 2.102 -0.004 4.559 -1.68 5.992 c -0.266 0.254 -0.637 0.461 -0.891 0.668 c 1.906 -1.078 3.062 -3.324 2.824 -5.508 c -0.074 -0.809 -0.328 -1.602 -0.734 -2.305 m -6.566 0.043 c -0.402 0.172 -0.785 0.566 -1.059 0.945 c -0.719 1.016 -0.781 2.434 -0.148 3.504 c -0.176 -0.395 -0.383 -0.883 -0.402 -1.359 c -0.121 -1.227 0.535 -2.484 1.609 -3.09 m 6.461 0.016 c 0.137 0.34 0.367 0.742 0.469 1.133 c 0.668 2.055 -0.004 4.457 -1.645 5.859 c -0.258 0.25 -0.621 0.453 -0.871 0.652 c 1.887 -1.063 3.02 -3.301 2.758 -5.453 c -0.082 -0.77 -0.328 -1.52 -0.715 -2.187 m -0.102 0.059 c 0.129 0.332 0.359 0.723 0.457 1.105 c 0.656 2.01 -0.004 4.359 -1.605 5.734 c -0.254 0.242 -0.609 0.441 -0.852 0.637 c 1.844 -1.039 2.953 -3.227 2.699 -5.336 c -0.082 -0.75 -0.324 -1.484 -0.699 -2.141 m -6.297 0.031 c -0.387 0.16 -0.758 0.543 -1.016 0.906 c -0.695 0.977 -0.754 2.344 -0.145 3.375 c -0.164 -0.383 -0.367 -0.852 -0.387 -1.309 c -0.113 -1.184 0.516 -2.391 1.547 -2.973 m 6.188 0.031 c 0.129 0.324 0.352 0.707 0.449 1.082 c 0.648 1.984 -0.02 4.309 -1.621 5.645 c -0.23 0.219 -0.563 0.398 -0.781 0.582 c 1.824 -1.027 2.906 -3.203 2.629 -5.281 c -0.086 -0.711 -0.316 -1.406 -0.676 -2.027 m -0.105 0.059 c 0.125 0.316 0.344 0.691 0.438 1.059 c 0.641 1.961 -0.031 4.258 -1.629 5.559 c -0.215 0.199 -0.527 0.359 -0.719 0.527 c 1.785 -1 2.844 -3.129 2.57 -5.16 c -0.082 -0.695 -0.309 -1.375 -0.66 -1.984 m -6.02 0.016 c -0.371 0.148 -0.727 0.523 -0.98 0.871 c -0.664 0.938 -0.719 2.25 -0.137 3.242 c -0.156 -0.367 -0.355 -0.82 -0.371 -1.258 c -0.109 -1.137 0.496 -2.297 1.488 -2.855 m 5.914 0.047 c 0.117 0.309 0.336 0.676 0.43 1.031 c 0.625 1.914 -0.035 4.156 -1.594 5.43 c -0.211 0.191 -0.512 0.352 -0.699 0.516 c 1.758 -0.988 2.793 -3.102 2.5 -5.102 c -0.086 -0.66 -0.305 -1.301 -0.637 -1.875 m -5.852 0.059 c -0.355 0.141 -0.699 0.5 -0.941 0.836 c -0.641 0.898 -0.691 2.16 -0.133 3.109 c -0.145 -0.348 -0.34 -0.785 -0.355 -1.207 c -0.105 -1.086 0.477 -2.203 1.43 -2.738 m 5.746 0.004 c 0.191 0.438 0.457 0.961 0.539 1.473 c 0.438 1.98 -0.48 4.168 -2.215 5.223 c -0.016 0.039 -0.184 0.063 -0.145 0.113 c 1.719 -0.969 2.73 -3.03 2.441 -4.98 c -0.086 -0.641 -0.297 -1.266 -0.621 -1.828 m -0.125 0.07 c 1.066 1.785 0.781 4.242 -0.664 5.734 c -0.309 0.355 -0.746 0.641 -1.094 0.898 c 1.824 -1.02 2.809 -3.297 2.297 -5.324 c -0.113 -0.449 -0.277 -0.965 -0.539 -1.309 m -5.563 0.031 c -0.34 0.133 -0.668 0.48 -0.898 0.801 c -0.613 0.859 -0.664 2.066 -0.129 2.98 c -0.133 -0.336 -0.324 -0.754 -0.34 -1.156 c -0.098 -1.043 0.457 -2.113 1.367 -2.625 m 5.457 0.031 c 1.059 1.773 0.746 4.223 -0.727 5.672 c -0.281 0.309 -0.684 0.559 -0.988 0.789 c 1.777 -0.992 2.738 -3.211 2.242 -5.188 c -0.113 -0.438 -0.273 -0.938 -0.527 -1.273 m -0.105 0.063 c 1.031 1.727 0.727 4.109 -0.707 5.523 c -0.277 0.301 -0.668 0.547 -0.961 0.77 c 1.766 -0.984 2.695 -3.211 2.152 -5.164 c -0.109 -0.387 -0.254 -0.836 -0.484 -1.129 m -5.289 0.012 c -0.324 0.125 -0.641 0.461 -0.863 0.766 c -0.586 0.824 -0.633 1.977 -0.121 2.848 c -0.129 -0.32 -0.309 -0.719 -0.324 -1.105 c -0.094 -0.996 0.438 -2.02 1.309 -2.508 m 5.184 0.047 c 1 1.684 0.707 4 -0.691 5.379 c -0.266 0.293 -0.648 0.531 -0.934 0.75 c 1.719 -0.957 2.625 -3.129 2.098 -5.03 c -0.109 -0.375 -0.25 -0.82 -0.473 -1.102 m -5.121 0.059 c -0.313 0.117 -0.613 0.438 -0.824 0.73 c -0.559 0.785 -0.605 1.887 -0.113 2.715 c -0.121 -0.305 -0.297 -0.684 -0.309 -1.055 c -0.094 -0.949 0.414 -1.922 1.246 -2.391 m 5.02 0.004 c 0.977 1.637 0.688 3.895 -0.672 5.23 c -0.258 0.285 -0.633 0.516 -0.906 0.73 c 1.672 -0.934 2.551 -3.043 2.039 -4.891 c -0.105 -0.363 -0.242 -0.801 -0.461 -1.07 m -0.105 0.063 c 0.969 1.621 0.652 3.863 -0.727 5.152 c -0.234 0.25 -0.574 0.449 -0.809 0.641 c 1.656 -0.922 2.508 -3.035 1.957 -4.852 c -0.102 -0.32 -0.227 -0.711 -0.422 -0.941 m -4.863 0.023 c -1.137 0.629 -1.551 2.18 -0.883 3.297 c -0.25 -0.527 -0.406 -1.219 -0.215 -1.828 c 0.141 -0.617 0.621 -1.141 1.098 -1.469 m 4.754 0.035 c 0.945 1.574 0.637 3.754 -0.703 5.01 c -0.223 0.242 -0.559 0.434 -0.785 0.621 c 1.613 -0.895 2.438 -2.949 1.902 -4.715 c -0.102 -0.309 -0.219 -0.691 -0.414 -0.914 m -4.691 0.07 c -1.082 0.598 -1.473 2.066 -0.836 3.129 c -0.238 -0.5 -0.387 -1.156 -0.207 -1.734 c 0.133 -0.586 0.59 -1.082 1.043 -1.395 m 4.625 0.035 c 0 0.004 0.027 0.066 0.098 0.215 c 0.816 1.621 0.328 3.754 -1.109 4.855 c -0.137 0.129 -0.367 0.23 -0.469 0.348 c 1.594 -0.887 2.391 -2.938 1.816 -4.668 c -0.016 -0.172 -0.328 -0.766 -0.336 -0.75 m -0.105 0.059 c 0 0.008 0.023 0.066 0.094 0.211 c 0.793 1.566 0.32 3.637 -1.074 4.703 c -0.133 0.125 -0.355 0.227 -0.457 0.336 c 1.547 -0.855 2.316 -2.844 1.762 -4.523 c -0.016 -0.168 -0.32 -0.738 -0.324 -0.727 m -4.445 0.031 c -0.484 0.211 -0.883 0.762 -1.023 1.297 c -0.148 0.551 -0.066 1.156 0.219 1.645 c -0.219 -0.469 -0.367 -1.094 -0.195 -1.637 c 0.141 -0.547 0.512 -1.027 1 -1.305 m 4.336 0.031 c 0 0.004 0.023 0.063 0.094 0.199 c 0.766 1.52 0.309 3.523 -1.043 4.555 c -0.125 0.125 -0.348 0.219 -0.441 0.328 c 1.496 -0.828 2.246 -2.754 1.707 -4.379 c -0.016 -0.164 -0.309 -0.719 -0.316 -0.703 m -0.109 0.055 c 0 0.004 0.023 0.059 0.094 0.199 c 0.754 1.496 0.277 3.473 -1.078 4.461 c -0.098 0.094 -0.297 0.168 -0.355 0.262 c 1.473 -0.816 2.195 -2.734 1.621 -4.32 c -0.023 -0.152 -0.273 -0.617 -0.281 -0.602 m -4.168 0.02 c -0.453 0.191 -0.832 0.719 -0.961 1.223 c -0.141 0.52 -0.066 1.09 0.203 1.555 c -0.203 -0.445 -0.344 -1.035 -0.184 -1.547 c 0.137 -0.516 0.484 -0.965 0.941 -1.23 m 4.063 0.039 c -0.004 0.004 0.023 0.059 0.09 0.195 c 0.746 1.473 0.246 3.422 -1.109 4.359 c -0.063 0.07 -0.262 0.133 -0.277 0.203 c 1.426 -0.789 2.121 -2.641 1.566 -4.176 c -0.02 -0.148 -0.262 -0.594 -0.27 -0.582 m -0.109 0.055 c -0.004 0 0.016 0.055 0.09 0.191 c 0.719 1.422 0.238 3.305 -1.074 4.207 c -0.055 0.07 -0.258 0.129 -0.262 0.199 c 1.398 -0.773 2.066 -2.613 1.484 -4.109 c -0.031 -0.137 -0.223 -0.484 -0.238 -0.488 m -3.984 0.043 c 0 0 -0.004 0 -0.004 0.004 c 0 -0.004 0.004 -0.004 0.004 -0.004 m -0.008 0.004 c -0.844 0.531 -1.125 1.715 -0.613 2.574 c -0.207 -0.445 -0.328 -1.039 -0.145 -1.547 c 0.031 -0.375 0.676 -0.965 0.758 -1.027 m 3.895 0.027 c -0.012 -0.004 0.016 0.059 0.109 0.242 c 0.66 1.387 0.152 3.191 -1.129 4.03 c -0.027 0.055 -0.223 0.09 -0.191 0.148 c 1.352 -0.746 1.992 -2.523 1.43 -3.961 c -0.051 -0.18 -0.199 -0.445 -0.219 -0.457 m -3.742 0.023 c -0.852 0.469 -1.16 1.629 -0.66 2.461 c -0.168 -0.387 -0.305 -0.906 -0.156 -1.359 c 0.098 -0.465 0.473 -0.852 0.816 -1.102 m 3.633 0.039 c -0.008 -0.004 0.016 0.059 0.109 0.23 c 0.645 1.359 0.125 3.129 -1.152 3.918 c 0.004 0.047 -0.176 0.043 -0.121 0.102 c 1.328 -0.734 1.938 -2.488 1.352 -3.887 c -0.059 -0.172 -0.168 -0.359 -0.188 -0.363 m -0.105 0.059 c -0.008 0 0.016 0.059 0.102 0.223 c 0.621 1.305 0.121 3.01 -1.105 3.766 c 0.004 0.043 -0.172 0.039 -0.113 0.098 c 1.273 -0.703 1.859 -2.395 1.297 -3.734 c -0.055 -0.168 -0.164 -0.348 -0.18 -0.352 m -3.457 0.027 c -0.371 0.145 -0.684 0.59 -0.793 1 c -0.113 0.426 -0.051 0.891 0.168 1.273 c -0.152 -0.359 -0.281 -0.848 -0.145 -1.27 c 0.109 -0.418 0.395 -0.789 0.77 -1.01 m 3.352 0.031 c -0.008 0.008 0.016 0.07 0.098 0.215 c 0.605 1.273 0.098 2.938 -1.121 3.648 l -0.063 0.035 l 0.012 0.02 c 1.246 -0.684 1.801 -2.348 1.219 -3.648 c -0.063 -0.16 -0.137 -0.277 -0.145 -0.27 m -0.109 0.059 c -0.004 0.008 0.02 0.066 0.094 0.207 c 0.582 1.219 0.094 2.813 -1.074 3.496 l -0.055 0.031 l 0.008 0.02 c 1.195 -0.656 1.727 -2.25 1.168 -3.492 c -0.059 -0.156 -0.129 -0.27 -0.141 -0.258 m -3.18 0.012 c -0.344 0.129 -0.637 0.547 -0.738 0.93 c -0.105 0.395 -0.047 0.828 0.156 1.18 c -0.137 -0.332 -0.262 -0.785 -0.133 -1.176 c 0.102 -0.391 0.367 -0.734 0.715 -0.934 m 3.086 0.063 c -0.012 0 0.281 0.617 0.27 0.793 c 0.211 1.066 -0.324 2.227 -1.273 2.758 l 0.012 0.02 c 1.16 -0.637 1.664 -2.203 1.09 -3.398 c -0.066 -0.121 -0.094 -0.172 -0.098 -0.172 m -3.02 0.047 c -0.316 0.113 -0.59 0.5 -0.68 0.852 c -0.102 0.363 -0.047 0.762 0.145 1.086 c -0.125 -0.305 -0.242 -0.723 -0.125 -1.082 c 0.094 -0.359 0.34 -0.672 0.66 -0.855 m 2.918 0.012 c -0.016 0 0.27 0.59 0.254 0.754 c 0.199 1.02 -0.309 2.125 -1.215 2.633 l 0.012 0.02 c 1.109 -0.609 1.586 -2.102 1.039 -3.242 c -0.063 -0.117 -0.09 -0.164 -0.09 -0.164 m -0.129 0.004 c 0.297 0.594 0.422 1.391 0.145 2.051 c -0.176 0.527 -0.609 0.953 -1.027 1.246 c 1.133 -0.617 1.559 -2.199 0.883 -3.297 m -0.105 0.059 c 0.277 0.566 0.402 1.32 0.137 1.949 c -0.168 0.5 -0.582 0.902 -0.973 1.184 c 1.074 -0.586 1.477 -2.086 0.836 -3.133 m -2.691 0.043 c -0.578 0.363 -0.777 1.172 -0.422 1.762 c -0.105 -0.277 -0.223 -0.664 -0.109 -0.992 c 0.004 -0.309 0.555 -0.777 0.531 -0.77 m 2.586 0.02 c 0.262 0.531 0.379 1.25 0.129 1.844 c -0.16 0.477 -0.551 0.855 -0.922 1.121 c 1.02 -0.555 1.398 -1.977 0.793 -2.965 m -0.105 0.063 c 0.238 0.5 0.359 1.18 0.121 1.738 c -0.148 0.449 -0.527 0.809 -0.867 1.055 c 0.957 -0.52 1.316 -1.859 0.746 -2.793 m -2.383 0.012 c -0.004 0 -0.051 0.031 -0.168 0.113 c -0.426 0.359 -0.531 1.016 -0.246 1.492 c -0.199 -0.414 -0.199 -1.035 0.18 -1.395 c 0.105 -0.094 0.246 -0.211 0.234 -0.211 m 2.277 0.047 c 0.223 0.469 0.336 1.109 0.113 1.637 c -0.141 0.422 -0.496 0.758 -0.816 0.992 c 0.902 -0.488 1.238 -1.75 0.703 -2.629 m -2.215 0.059 c -0.012 0.004 -0.059 0.031 -0.152 0.102 c -0.379 0.32 -0.477 0.91 -0.219 1.336 c -0.172 -0.367 -0.18 -0.926 0.164 -1.25 c 0.102 -0.086 0.23 -0.199 0.207 -0.188 m 2.109 0.004 c 0.203 0.438 0.313 1.039 0.102 1.531 c -0.129 0.395 -0.465 0.711 -0.762 0.93 c 0.848 -0.461 1.16 -1.641 0.66 -2.461 m -0.105 0.063 c 0.184 0.406 0.293 0.965 0.094 1.426 c -0.121 0.367 -0.438 0.66 -0.707 0.867 c 0.785 -0.43 1.082 -1.527 0.613 -2.293 m -0.105 0.059 c 0.164 0.379 0.273 0.898 0.086 1.324 c -0.109 0.34 -0.414 0.609 -0.656 0.805 c 0.73 -0.398 1 -1.418 0.57 -2.129 m -0.109 0.063 c 0.152 0.348 0.254 0.824 0.082 1.219 c -0.102 0.316 -0.383 0.563 -0.605 0.742 c 0.672 -0.367 0.926 -1.309 0.523 -1.961 m -0.105 0.063 c 0.133 0.313 0.23 0.754 0.07 1.113 c -0.09 0.289 -0.352 0.512 -0.547 0.68 c 0.613 -0.336 0.844 -1.195 0.477 -1.793 m -0.125 0.07 c 0.348 0.563 0.086 1.289 -0.414 1.613 c 0.559 -0.285 0.781 -1.141 0.414 -1.613 m -0.105 0.063 c 0.313 0.504 0.07 1.152 -0.367 1.445 c 0.5 -0.254 0.699 -1.027 0.367 -1.445" fill="url(#1)"/><path d="m 11.07 8.586 c -1.121 0 -2.031 0.91 -2.031 2.035 c 0 1.121 0.91 2.031 2.031 2.031 c 1.121 0 2.031 -0.91 2.031 -2.031 c 0 -1.125 -0.91 -2.035 -2.031 -2.035 m 0.008 1.207 c 0.457 0 0.828 0.371 0.828 0.828 c 0 0.457 -0.371 0.824 -0.828 0.824 c -0.457 0 -0.828 -0.367 -0.828 -0.824 c 0 -0.457 0.371 -0.828 0.828 -0.828" fill="#00007f"/><path d="m 11.09 4.684 c -1.66 0 -3.16 0.684 -4.23 1.785 v 0.004 c 0.992 1.723 2.617 2.75 4.102 3.879 c -0.297 -1.336 0.121 -5.328 1.328 -5.332 c 1.508 0.305 2.898 1.191 3.801 2.586 c 1.5 2.316 0.906 5.289 -0.879 7.23 c 0.004 0.004 0.008 0.008 0.008 0.012 c 1.102 -1.078 1.785 -2.578 1.785 -4.238 c 0 -3.273 -2.648 -5.926 -5.914 -5.926" fill="url(#2)"/><path d="m 11.07 8.527 c -1.152 0 -2.086 0.938 -2.086 2.094 c 0 1.152 0.934 2.09 2.086 2.09 c 1.152 0 2.086 -0.938 2.086 -2.09 c 0 -1.156 -0.934 -2.094 -2.086 -2.094 m 0 0.113 c 1.09 0 1.977 0.887 1.977 1.98 c 0 1.09 -0.887 1.977 -1.977 1.977 c -1.09 0 -1.973 -0.887 -1.973 -1.977 c 0 -1.094 0.883 -1.98 1.973 -1.98" fill="#00f"/><path d="m 170.83 14.852 c -5.401 0 -10.256 0.478 -14.7 1.298 c -4.376 0.752 -9.435 1.845 -15.247 3.417 c -8.956 2.392 -15.794 3.622 -20.443 3.622 c -2.53 0 -4.991 0.683 -7.247 2.118 c -2.119 1.435 -3.213 3.622 -3.213 6.56 c 0 1.982 0.205 3.622 0.479 4.92 c 0.41 1.162 0.889 2.255 1.504 3.417 c 0.41 0.82 0.615 1.503 0.615 1.913 c 0 2.938 -0.479 5.876 -1.504 8.678 c -0.82 2.733 -2.256 6.423 -4.239 11.07 c -0.41 0.752 -1.094 2.118 -1.914 4.237 v 0.273 c -0.137 -0.137 -0.205 -0.342 -0.205 -0.478 c 0 0 -0.068 -0.068 -0.205 -0.205 l -3.419 -4.852 c -4.854 -6.696 -8.478 -11.821 -10.871 -15.306 c -2.393 -3.69 -4.102 -6.901 -5.059 -9.566 c -0.615 -1.435 -1.162 -3.553 -1.709 -6.423 c -0.615 -3.69 -1.504 -6.355 -2.803 -8.06 c -1.094 -1.845 -3.487 -2.733 -6.974 -2.733 c -4.307 0 -9.64 0.957 -16.204 2.938 c -6.358 1.845 -12.648 4.237 -18.87 7.243 c -6.29 2.938 -11.486 6.218 -15.794 9.771 c -4.102 3.553 -6.153 6.901 -6.153 9.976 c 0 2.597 0.957 4.578 2.803 5.945 c 1.983 1.435 5.059 3.075 9.367 4.92 c 3.213 1.435 5.675 2.528 7.179 3.417 c 1.846 0.957 3.487 2.05 4.923 3.143 c 1.367 1.162 2.803 2.597 4.239 4.305 c 1.573 1.708 3.282 3.827 5.128 6.355 c 1.846 2.392 4.991 6.765 9.572 12.983 c 2.666 3.69 4.307 5.945 4.854 6.765 l 6.358 8.746 c 0.889 1.025 1.436 1.708 1.709 2.118 c 0.479 0.41 0.684 0.683 0.684 0.888 c 0 0.137 -0.137 0.41 -0.41 0.82 c -0.615 0.683 -0.957 1.23 -1.094 1.503 c -8.341 10.796 -18.392 22.07 -30.01 34.03 c -3.213 3.417 -6.495 6.218 -9.777 8.473 c -3.077 2.118 -6.837 4.578 -11.281 7.243 c -4.649 3.01 -7.999 5.398 -9.982 7.243 c -1.983 1.708 -2.94 3.895 -2.94 6.56 c 0 1.982 0.41 3.622 1.299 4.92 c 0.957 1.162 2.119 1.982 3.35 2.528 c 1.436 0.615 2.735 0.957 3.829 1.093 c 1.162 0.137 2.325 0.205 3.624 0.205 h 47.859 c 1.983 0 4.03 -0.615 6.153 -1.913 c 2.256 -1.298 3.419 -3.212 3.419 -5.74 c 0 -4.715 -0.479 -7.926 -1.299 -9.771 c -0.82 -1.982 -1.846 -3.485 -2.94 -4.51 c -0.615 -0.41 -0.889 -0.752 -0.889 -1.025 c 0 -4.852 1.026 -9.498 3.01 -14.01 c 1.983 -4.578 4.991 -10.455 9.09 -17.698 c 0.752 -1.093 1.231 -1.982 1.504 -2.528 l 21.06 29.519 c 1.162 1.298 1.914 2.323 2.325 3.01 c 0.615 0.683 1.026 1.572 1.299 2.528 h -0.205 c -0.137 -0.137 -0.273 -0.205 -0.41 -0.205 c -1.573 0 -3.077 0.957 -4.512 2.802 c -1.367 1.708 -2.119 4.578 -2.119 8.678 c 0 3.827 1.436 6.628 4.239 8.336 c 2.872 1.64 5.47 2.528 7.931 2.528 h 68.64 c 2.256 0 4.786 -1.093 7.657 -3.212 c 2.803 -2.118 4.239 -4.578 4.239 -7.448 c 0 -4.647 -1.026 -7.79 -3.213 -9.361 c -1.983 -1.503 -4.991 -2.665 -9.09 -3.348 c -2.598 -0.615 -4.718 -1.162 -6.427 -1.708 c -1.504 -0.752 -2.872 -1.777 -4.03 -3.212 l -53.12 -68.26 c -1.162 -1.23 -1.914 -2.118 -2.325 -2.528 c -0.273 -0.547 -0.479 -1.093 -0.479 -1.503 c 0 -0.137 0.205 -0.41 0.479 -0.82 c 0.41 -0.478 1.094 -1.23 2.119 -2.392 c 4.239 -5.33 8.615 -10.455 13.195 -15.306 c 4.512 -4.783 9.02 -9.02 13.606 -12.71 c 3.077 -2.597 7.589 -5.945 13.401 -10.25 c 6.632 -4.92 11.555 -8.815 14.631 -11.685 c 3.282 -2.802 4.923 -5.398 4.923 -7.653 c 0 -2.802 -0.957 -4.578 -2.803 -5.33 c -1.709 -0.82 -3.76 -1.23 -6.153 -1.23 m 0 1.025 c 2.256 0 4.102 0.342 5.538 1.093 c 1.573 0.547 2.325 2.05 2.325 4.442 c 0 1.982 -1.504 4.305 -4.444 7.04 c -3.01 2.665 -7.726 6.423 -14.289 11.275 c -6.085 4.373 -10.666 7.858 -13.811 10.386 c -4.376 3.553 -8.82 7.79 -13.401 12.778 c -4.512 4.783 -9.02 9.976 -13.606 15.511 c -0.957 1.23 -1.709 2.187 -2.119 2.733 c -0.273 0.478 -0.41 0.82 -0.41 1.093 c 0 0.41 0.205 0.957 0.615 1.708 c 0.41 0.683 1.162 1.708 2.119 2.938 l 53.19 68.26 c 1.231 1.572 2.735 2.802 4.444 3.622 c 1.709 0.752 3.965 1.367 6.837 1.913 c 3.829 0.888 6.632 1.982 8.478 3.417 c 1.846 1.435 2.735 4.1 2.735 8.06 c 0 2.597 -1.231 4.852 -3.76 6.833 c -2.598 1.845 -4.923 2.733 -7.04 2.733 h -68.71 c -2.256 0 -4.718 -0.752 -7.384 -2.323 c -2.598 -1.572 -3.829 -4.03 -3.829 -7.448 c 0 -4.51 0.752 -7.516 2.325 -8.951 c 1.573 -1.367 2.94 -2.118 4.239 -2.118 c 0 -1.23 -0.205 -2.323 -0.615 -3.143 c -0.479 -0.888 -1.231 -1.913 -2.393 -3.212 l -21.468 -30.2 l -0.41 -0.41 l -0.273 0.41 l -0.547 0.205 c 0.205 0 0.41 -0.068 0.547 -0.137 l -2.256 3.758 c -4.102 6.97 -7.179 12.778 -9.162 17.424 c -1.983 4.715 -2.94 9.43 -2.94 14.281 c 0 0.41 0.41 1.025 1.231 1.913 c 1.162 1.23 2.051 2.802 2.803 4.647 c 0.82 1.845 1.231 4.783 1.231 8.746 c 0 2.255 -0.957 3.963 -2.94 5.057 c -1.983 1.025 -3.897 1.503 -5.743 1.503 h -47.859 c -2.803 0 -5.401 -0.41 -7.657 -1.23 c -2.256 -1.025 -3.419 -3.143 -3.419 -6.423 c 0 -2.392 0.957 -4.442 2.803 -6.15 c 1.983 -1.708 5.059 -3.895 9.367 -6.56 c 4.512 -2.733 8.41 -5.193 11.691 -7.448 c 3.213 -2.323 6.564 -5.193 9.982 -8.746 c 12.854 -13.598 22.904 -24.941 29.946 -34.03 c 0.889 -1.162 1.367 -1.845 1.504 -2.118 c 0.137 -0.273 0.205 -0.547 0.205 -0.888 c 0 -0.137 -0.342 -0.683 -1.026 -1.708 c -0.479 -0.547 -0.957 -1.162 -1.504 -1.845 l -6.358 -8.746 l -4.718 -6.355 c -3.555 -5.125 -6.495 -9.156 -8.956 -12.163 c -2.256 -3.075 -4.171 -5.603 -5.743 -7.448 c -1.504 -1.845 -3.077 -3.28 -4.649 -4.442 c -1.436 -1.162 -3.145 -2.255 -5.128 -3.417 c -1.504 -0.82 -3.965 -1.982 -7.179 -3.348 c -4.102 -1.708 -7.11 -3.212 -8.956 -4.51 c -1.709 -1.435 -2.53 -3.28 -2.53 -5.535 c 0 -2.938 1.983 -6.15 5.948 -9.566 c 4.102 -3.417 9.23 -6.491 15.315 -9.361 c 6.222 -2.938 12.512 -5.398 18.939 -7.243 c 6.358 -1.845 11.623 -2.733 15.725 -2.733 c 3.077 0 5.128 0.82 6.153 2.528 c 1.094 1.572 1.983 4.03 2.53 7.448 c 0.615 3.01 1.162 5.193 1.709 6.628 c 1.709 4.237 7.452 13.05 17.229 26.581 c 0.41 0.683 1.231 1.845 2.325 3.348 c 0.273 0.342 0.615 0.683 0.889 1.093 c 0.273 0.273 0.479 0.478 0.615 0.615 c 0.273 -0.547 0.547 -1.025 0.82 -1.503 l 1.504 -3.553 c 2.119 -4.852 3.692 -8.746 4.718 -11.685 c 0.957 -3.01 1.436 -6.081 1.436 -9.156 c 0 -0.547 -0.273 -1.435 -0.82 -2.597 c -1.299 -2.528 -1.914 -5.057 -1.914 -7.653 c 0 -2.528 1.026 -4.442 3.01 -5.74 c 1.983 -1.367 4.171 -2.118 6.564 -2.118 c 3.077 0 6.085 -0.273 8.956 -0.82 c 2.94 -0.615 6.837 -1.503 11.691 -2.802 c 5.811 -1.367 10.802 -2.46 15.04 -3.143 c 4.444 -0.888 9.298 -1.298 14.7 -1.298 m 0 4.03 c -4.991 0 -9.503 0.342 -13.606 1.093 c -3.965 0.683 -8.82 1.777 -14.494 3.143 c -4.786 1.298 -8.888 2.323 -12.307 3.01 c -3.282 0.547 -6.564 0.888 -9.982 0.888 c -3.692 0 -5.538 1.23 -5.538 3.758 c 0 1.435 0.41 3.143 1.299 5.125 c 0.82 1.982 1.231 3.69 1.231 5.125 c 0 3.827 -0.615 7.585 -1.914 11.275 c -1.094 3.553 -2.803 7.858 -5.059 12.983 l -0.889 1.708 c -1.709 3.485 -3.077 5.261 -4.239 5.261 c -0.82 0 -2.256 -1.23 -4.239 -3.827 l -0.615 -0.82 c -0.615 -0.888 -1.026 -1.503 -1.299 -1.913 c -5.811 -7.926 -10.05 -13.94 -12.785 -18.11 c -2.666 -4.1 -4.718 -7.79 -6.153 -11 c -0.82 -2.323 -1.641 -4.988 -2.325 -8.131 c -0.41 -2.118 -0.957 -3.622 -1.504 -4.442 c -0.41 -1.025 -1.367 -1.503 -2.735 -1.503 c -3.829 0 -8.683 0.888 -14.494 2.597 c -5.811 1.503 -11.623 3.69 -17.434 6.355 c -5.811 2.528 -10.597 5.33 -14.426 8.268 c -3.692 2.87 -5.538 5.466 -5.538 7.858 c 0 1.572 2.53 3.485 7.657 5.808 c 3.692 1.503 6.564 2.87 8.683 4.03 c 2.325 1.093 4.239 2.392 5.743 3.827 c 1.709 1.23 3.419 2.87 5.128 4.852 c 1.709 1.845 3.487 4.03 5.333 6.628 c 1.983 2.528 5.128 6.833 9.572 12.915 c 1.846 2.597 3.419 4.852 4.854 6.833 l 6.358 8.746 c 0.479 0.547 0.82 1.025 1.094 1.503 c 1.436 1.777 2.188 3.143 2.325 4.03 c 0 1.503 -0.82 3.485 -2.53 5.945 c -9.503 12.03 -19.622 23.438 -30.425 34.23 c -4.102 4.237 -8.07 7.721 -11.896 10.386 c -3.692 2.528 -7.726 5.125 -12.1 7.653 c -3.282 1.982 -5.538 3.553 -6.837 4.715 c -1.231 0.957 -1.914 2.118 -1.914 3.348 c 0 1.572 0.684 2.597 1.914 3.01 c 1.436 0.41 3.213 0.615 5.333 0.615 h 47.859 c 1.367 0 2.53 -0.137 3.419 -0.41 c 0.82 -0.41 1.231 -1.093 1.231 -2.118 c 0 -1.982 -0.273 -3.553 -0.82 -4.647 c -0.41 -1.298 -1.094 -2.597 -1.914 -3.895 c -1.026 -1.23 -1.709 -2.323 -2.119 -3.143 c -0.273 -1.025 -0.479 -2.187 -0.479 -3.622 c 0 -5.535 1.094 -10.796 3.213 -15.716 c 2.256 -5.125 5.606 -11.343 9.982 -18.723 c 1.026 -1.572 1.709 -2.802 2.119 -3.622 c 1.299 -2.255 2.461 -3.417 3.419 -3.417 c 0.547 0 1.778 1.23 3.624 3.622 v 0.205 l 21.263 29.792 c 2.666 2.392 4.03 5.398 4.03 8.883 c 0 1.162 -0.82 2.392 -2.53 3.622 c -1.299 1.025 -2.325 2.05 -3.01 3.01 c -0.684 1.025 -1.026 2.46 -1.026 4.442 c 0 1.982 0.752 3.485 2.325 4.51 c 1.573 0.82 3.213 1.23 4.923 1.23 h 68.64 c 1.436 0 2.94 -0.478 4.444 -1.435 c 1.573 -1.162 2.325 -2.528 2.325 -4.1 c 0 -1.982 -0.615 -3.348 -1.914 -4.237 c -1.094 -0.82 -3.01 -1.572 -5.675 -2.118 c -3.01 -0.82 -5.606 -1.777 -7.931 -2.733 c -2.119 -1.162 -4.171 -2.938 -6.153 -5.33 l -53.12 -68.47 c -2.461 -2.87 -3.624 -5.193 -3.624 -7.04 c 0 -1.572 1.162 -3.69 3.419 -6.355 c 4.376 -5.398 8.888 -10.591 13.606 -15.511 c 4.649 -5.125 9.298 -9.566 14.02 -13.393 c 3.965 -3.28 9.298 -7.243 15.93 -11.958 c 5.401 -3.963 9.23 -6.901 11.486 -8.883 c 2.393 -1.982 3.624 -3.553 3.624 -4.715 c 0 -0.683 -0.273 -1.093 -0.82 -1.23 c -0.479 -0.205 -1.436 -0.273 -3.01 -0.273 m -65.64 69.971 c 8.341 0 15.11 6.765 15.11 15.03 c 0 8.336 -6.769 15.1 -15.11 15.1 c -8.273 0 -15.04 -6.765 -15.04 -15.1 c 0 -8.268 6.769 -15.03 15.04 -15.03" transform="matrix(0.05713 0 0 0.05717 5.13 4.467)" fill="#f4f4f4" stroke="#ff0" stroke-width="0.82"/></svg>