<svg xmlns="http://www.w3.org/2000/svg" xmlns:xlink="http://www.w3.org/1999/xlink" viewBox="0 0 22 22"><defs><g id="1" clip-path="url(#0)"><path d="m 11.285 4.77 c -1.281 0 -2.555 0.695 -3.461 1.883 c -0.555 0.73 -0.961 1.641 -1.199 2.621 h 1.07 c 0.617 -1.832 2.051 -3.219 3.59 -3.219 c 1.152 0 2.242 0.777 2.98 1.93 h -1.512 v 1.289 h 3.43 v -4.504 h -0.98 v 2.594 c -0.141 -0.25 -0.289 -0.488 -0.457 -0.711 c -0.906 -1.188 -2.18 -1.883 -3.461 -1.883 m -4.895 8.363 v 4.504 h 0.98 v -2.59 c 0.137 0.246 0.285 0.484 0.453 0.703 c 0.906 1.191 2.18 1.887 3.461 1.887 c 1.281 0 2.555 -0.695 3.461 -1.887 c 0.555 -0.727 0.965 -1.637 1.199 -2.617 h -1.066 c -0.617 1.832 -2.055 3.215 -3.594 3.215 c -1.152 0 -2.242 -0.773 -2.977 -1.93 h 1.512 v -1.285" fill-rule="evenodd" fill-opacity="0.302"/><path d="m 11.285 4.605 c -1.281 0 -2.555 0.668 -3.461 1.816 c -0.555 0.699 -0.961 1.578 -1.199 2.52 h 1.07 c 0.617 -1.762 2.051 -3.098 3.59 -3.098 c 1.152 0 2.242 0.746 2.98 1.859 h -1.512 v 1.238 h 3.43 v -4.34 h -0.98 v 2.5 c -0.141 -0.238 -0.289 -0.469 -0.457 -0.684 c -0.906 -1.145 -2.18 -1.816 -3.461 -1.816 m -4.895 8.06 v 4.34 h 0.98 v -2.496 c 0.137 0.238 0.285 0.469 0.453 0.68 c 0.906 1.148 2.18 1.816 3.461 1.816 c 1.281 0 2.555 -0.668 3.461 -1.816 c 0.555 -0.703 0.965 -1.578 1.199 -2.523 h -1.066 c -0.617 1.766 -2.055 3.102 -3.594 3.102 c -1.152 0 -2.242 -0.746 -2.977 -1.859 h 1.512 v -1.242" fill="#fff" fill-rule="evenodd"/></g><clipPath id="0"><path d="M 0,0 H22 V22 H0 z"/></clipPath><clipPath><path d="M 0,0 H22 V22 H0 z"/></clipPath><filter filterUnits="objectBoundingBox" x="0" y="0" width="22" height="22"><feColorMatrix type="matrix" in="SourceGraphic" values="0 0 0 0 1 0 0 0 0 1 0 0 0 0 1 0 0 0 1 0"/></filter><mask/></defs><path d="m 4.535 19.855 c 16.539 10.996 26.727 -24.07 5.344 -19.43 c -8.836 1.98 -14.199 14.387 -5.344 19.43" fill="#005353"/><use xlink:href="#1"/></svg>