<svg xmlns="http://www.w3.org/2000/svg" viewBox="0 0 22 22"><path d="m 5.129 2.426 c 8.117 -7.199 20.605 4.156 15.555 13.66 c -5.105 9.609 -21.996 7.05 -20.563 -4.754 c 0.43 -3.512 2.359 -6.559 5.01 -8.906" fill="#fbdbab"/><path d="m 13.766 18.344 c 0 -0.023 0.094 -0.238 0.215 -0.469 c 0.254 -0.504 0.281 -1.156 0.082 -1.852 c -0.082 -0.273 -0.125 -0.691 -0.109 -1.043 l 0.027 -0.586 l 0.273 -0.027 c 1.305 -0.125 2.387 1.523 2.215 3.383 l -0.059 0.641 h -1.324 c -0.727 0 -1.32 -0.02 -1.32 -0.047 m -5.223 -0.098 c -0.059 -0.023 -0.105 -0.113 -0.105 -0.195 c 0 -0.117 0.113 -0.176 0.48 -0.25 c 0.266 -0.055 0.516 -0.074 0.559 -0.051 c 0.172 0.105 0.055 0.285 -0.27 0.414 c -0.352 0.145 -0.477 0.16 -0.664 0.082 m -0.844 -1.406 c -0.301 -0.094 -0.52 -0.305 -0.566 -0.555 c -0.02 -0.117 -0.121 -0.184 -0.332 -0.219 c -0.406 -0.066 -0.516 -0.145 -0.508 -0.367 c 0.012 -0.262 0.203 -0.773 0.309 -0.809 c 0.047 -0.016 0.191 0.184 0.32 0.445 c 0.227 0.465 0.441 0.602 0.539 0.348 c 0.027 -0.07 0.117 -0.129 0.203 -0.129 c 0.082 0 0.207 -0.086 0.277 -0.195 c 0.109 -0.168 0.109 -0.25 -0.012 -0.68 c -0.078 -0.27 -0.168 -0.516 -0.203 -0.551 c -0.117 -0.117 -0.066 -0.207 0.113 -0.207 c 0.215 0 0.52 -0.152 0.645 -0.324 c 0.102 -0.137 0.566 -0.113 0.613 0.031 c 0.02 0.055 -0.082 0.121 -0.223 0.148 c -0.145 0.031 -0.324 0.152 -0.406 0.277 c -0.125 0.188 -0.133 0.27 -0.047 0.504 c 0.055 0.152 0.102 0.359 0.102 0.461 c 0 0.199 0.285 0.402 0.469 0.332 c 0.063 -0.023 0.152 0 0.203 0.047 c 0.164 0.164 0.32 0.012 0.441 -0.438 c 0.066 -0.242 0.145 -0.438 0.172 -0.438 c 0.133 0 0.691 0.668 0.691 0.824 c 0 0.098 -0.176 0.41 -0.391 0.699 c -0.277 0.375 -0.488 0.563 -0.75 0.668 c -0.434 0.176 -1.293 0.242 -1.66 0.125" fill="#edd75a"/><path d="m 10.672 18.395 c -1.672 -0.043 -1.895 -0.063 -1.645 -0.156 c 0.156 -0.059 0.32 -0.086 0.359 -0.059 c 0.043 0.023 0.191 -0.016 0.332 -0.086 c 0.141 -0.074 0.348 -0.133 0.465 -0.133 c 0.125 0 0.262 -0.082 0.344 -0.211 c 0.078 -0.113 0.211 -0.23 0.305 -0.258 c 0.09 -0.031 0.191 -0.121 0.223 -0.199 c 0.082 -0.215 -0.211 -0.68 -0.531 -0.855 c -0.254 -0.133 -0.281 -0.184 -0.234 -0.41 c 0.031 -0.145 0.168 -0.379 0.305 -0.523 c 0.227 -0.234 0.246 -0.297 0.184 -0.598 c -0.063 -0.305 -0.105 -0.348 -0.449 -0.445 c -0.211 -0.059 -0.52 -0.246 -0.688 -0.41 c -0.172 -0.168 -0.352 -0.301 -0.402 -0.301 c -0.055 0 -0.117 -0.059 -0.145 -0.129 c -0.09 -0.234 0.105 -0.137 0.57 0.285 c 0.559 0.504 1.176 0.676 2.094 0.582 c 0.566 -0.059 1.875 -0.508 2.309 -0.789 c 0.293 -0.195 1.098 -1.754 0.906 -1.754 c -0.043 0 -0.105 0.078 -0.137 0.176 c -0.039 0.121 -0.117 0.168 -0.246 0.152 c -0.105 -0.016 -0.305 0.051 -0.445 0.141 c -0.359 0.238 -0.871 0.223 -1.078 -0.031 c -0.09 -0.109 -0.16 -0.313 -0.16 -0.445 c 0 -0.23 -0.016 -0.242 -0.215 -0.152 c -0.262 0.121 -0.438 0 -0.516 -0.355 c -0.063 -0.273 -0.473 -0.781 -0.527 -0.645 c -0.086 0.219 -0.383 0.645 -0.445 0.645 c -0.082 0 -0.316 -0.527 -0.402 -0.902 c -0.051 -0.223 -0.07 -0.234 -0.141 -0.109 c -0.137 0.242 -0.246 0.172 -0.246 -0.148 c 0 -0.398 -0.117 -0.383 -0.406 0.055 c -0.227 0.34 -0.23 0.359 -0.078 0.449 c 0.672 0.402 0.695 0.43 0.723 0.887 c 0.023 0.387 -0.004 0.48 -0.223 0.723 c -0.223 0.246 -0.305 0.281 -0.672 0.277 c -0.309 0 -0.531 -0.07 -0.848 -0.258 c -0.426 -0.254 -0.43 -0.266 -0.434 -0.68 c 0 -0.465 -0.07 -0.637 -0.262 -0.637 c -0.098 0 -0.121 0.141 -0.121 0.664 c 0.004 0.773 0.121 1.375 0.316 1.59 c 0.078 0.082 0.117 0.176 0.09 0.203 c -0.109 0.109 -0.238 -0.082 -0.375 -0.547 c -0.109 -0.379 -0.133 -0.719 -0.098 -1.563 c 0.023 -0.594 0.07 -1.148 0.105 -1.23 c 0.105 -0.246 0.242 -0.176 0.172 0.086 c -0.094 0.348 -0.066 0.535 0.098 0.719 c 0.195 0.219 0.262 0.207 0.328 -0.059 c 0.066 -0.258 0.453 -0.887 0.641 -1.047 c 0.238 -0.195 0.293 -0.117 0.238 0.336 c -0.059 0.496 -0.211 0.711 -0.617 0.859 c -0.211 0.074 -0.301 0.176 -0.375 0.418 c -0.145 0.477 -0.117 0.598 0.141 0.688 c 0.129 0.047 0.332 0.137 0.453 0.199 c 0.172 0.094 0.629 0.121 1.051 0.066 c 0.113 -0.016 0.324 -0.516 0.324 -0.781 c 0 -0.156 -0.055 -0.285 -0.129 -0.313 c -0.074 -0.027 -0.129 -0.105 -0.129 -0.172 c 0 -0.066 -0.156 -0.184 -0.344 -0.258 c -0.191 -0.074 -0.344 -0.172 -0.344 -0.211 c 0 -0.121 0.508 -0.887 0.637 -0.961 c 0.082 -0.043 0.164 -0.008 0.246 0.109 c 0.078 0.109 0.176 0.152 0.266 0.121 c 0.113 -0.043 0.141 0.004 0.141 0.246 c 0 0.164 0.059 0.441 0.133 0.617 c 0.109 0.262 0.152 0.301 0.258 0.215 c 0.066 -0.059 0.125 -0.152 0.125 -0.211 c 0 -0.145 0.281 -0.387 0.449 -0.387 c 0.094 0 0.184 0.152 0.273 0.461 c 0.074 0.258 0.137 0.504 0.137 0.551 c 0 0.047 0.051 0.125 0.117 0.18 c 0.086 0.074 0.168 0.055 0.344 -0.082 l 0.227 -0.18 v 0.328 c 0 0.379 0.055 0.48 0.316 0.617 c 0.285 0.152 0.578 0.121 0.848 -0.09 c 0.133 -0.105 0.32 -0.191 0.418 -0.195 c 0.23 -0.004 0.273 -0.293 0.098 -0.637 c -0.156 -0.301 -0.172 -0.59 -0.047 -0.922 c 0.152 -0.391 0.293 -0.109 0.285 0.563 c -0.004 0.52 0.016 0.602 0.164 0.637 c 0.211 0.059 0.172 0.195 -0.348 1.207 l -0.391 0.766 l -0.738 0.34 c -0.809 0.375 -0.871 0.414 -0.715 0.473 c 0.168 0.059 0.129 0.207 -0.117 0.461 l -0.223 0.234 l 0.266 0.137 c 0.262 0.137 0.359 0.414 0.184 0.523 c -0.148 0.09 -0.098 0.285 0.09 0.344 c 0.223 0.074 0.684 0.781 0.684 1.051 c 0 0.207 -0.191 0.32 -0.938 0.566 c -0.211 0.066 -0.32 0.16 -0.336 0.285 c -0.043 0.289 0.199 0.301 0.547 0.027 c 0.41 -0.324 0.594 -0.336 0.516 -0.027 c -0.047 0.18 -0.031 0.215 0.074 0.172 c 0.074 -0.027 0.137 -0.012 0.137 0.035 c 0 0.043 -0.152 0.082 -0.336 0.082 c -0.184 0 -0.441 0.012 -0.578 0.027 c -0.137 0.016 -1.117 0.004 -2.18 -0.023 m 1.512 -0.527 c 0.195 -0.543 0.164 -0.641 -0.227 -0.648 c -0.262 -0.008 -0.324 0.016 -0.258 0.094 c 0.051 0.059 0.113 0.285 0.145 0.508 c 0.063 0.461 0.184 0.477 0.34 0.047 m 0.195 -1.184 c 0.156 -0.242 0.27 -0.527 0.27 -0.688 c 0 -0.273 -0.148 -0.387 -0.711 -0.563 c -0.09 -0.027 -0.148 -0.133 -0.148 -0.262 c 0 -0.25 -0.219 -0.391 -0.598 -0.391 c -0.309 0 -0.344 0.156 -0.09 0.387 c 0.207 0.188 0.223 0.34 0.027 0.262 c -0.168 -0.063 -0.543 0.258 -0.543 0.465 c 0 0.188 1.191 1.191 1.43 1.199 c 0.055 0.004 0.219 -0.18 0.363 -0.41 m 0.871 -0.098 c 0 -0.047 -0.059 -0.086 -0.129 -0.086 c -0.074 0 -0.129 0.039 -0.129 0.086 c 0 0.047 0.055 0.086 0.129 0.086 c 0.07 0 0.129 -0.039 0.129 -0.086 m -0.344 -0.98 c 0 -0.066 -0.117 -0.16 -0.258 -0.211 c -0.293 -0.102 -0.324 -0.055 -0.117 0.172 c 0.168 0.188 0.375 0.207 0.375 0.039 m -0.727 -0.805 c -0.023 -0.219 -0.063 -0.242 -0.305 -0.207 c -0.133 0.02 -0.105 0.242 0.047 0.395 c 0.18 0.18 0.289 0.102 0.258 -0.188 m 0.555 0.02 c 0.059 -0.07 0.09 -0.152 0.063 -0.176 c -0.086 -0.086 -0.492 0.07 -0.492 0.188 c 0 0.16 0.293 0.152 0.43 -0.012 m 2.063 -3.797 c 0 -0.234 -0.027 -0.293 -0.098 -0.219 c -0.055 0.055 -0.074 0.191 -0.043 0.316 c 0.078 0.316 0.141 0.273 0.141 -0.098 m -5.383 -0.402 c 0.027 -0.098 0.051 -0.273 0.051 -0.387 c 0.004 -0.176 -0.016 -0.188 -0.133 -0.09 c -0.172 0.141 -0.477 0.73 -0.41 0.793 c 0.09 0.094 0.445 -0.133 0.492 -0.316 m -4.672 7.68 c 0 -0.051 0.078 -0.246 0.176 -0.441 c 0.266 -0.52 0.43 -1.398 0.32 -1.715 c -0.102 -0.293 0.016 -0.469 0.5 -0.77 c 0.18 -0.113 0.332 -0.309 0.426 -0.555 c 0.207 -0.539 0.102 -0.641 -0.656 -0.641 c -0.414 0 -0.621 -0.039 -0.719 -0.137 c -0.074 -0.074 -0.133 -0.16 -0.133 -0.188 c 0 -0.027 0.121 -0.652 0.27 -1.391 c 0.148 -0.734 0.273 -1.566 0.277 -1.848 l 0.012 -0.512 l -0.684 -0.117 c -0.734 -0.125 -0.906 -0.211 -0.906 -0.457 c 0 -0.152 0.723 -0.82 1.492 -1.371 c 0.309 -0.223 0.422 -0.375 0.535 -0.719 c 0.484 -1.484 1.512 -2.59 3.187 -3.438 c 0.547 -0.273 0.848 -0.281 2.01 -0.043 c 1.531 0.309 2.75 0.891 3.945 1.879 c 0.398 0.332 0.863 0.605 1.031 0.605 c 0.219 0 1.945 0.703 2.098 0.855 c 0.168 0.168 0.164 0.172 -0.16 0.449 c -0.18 0.156 -0.438 0.379 -0.574 0.5 l -0.242 0.215 l 0.137 0.516 c 0.098 0.371 0.148 1.07 0.176 2.492 c 0.043 2.059 -0.004 2.445 -0.293 2.449 c -0.086 0 -0.219 0.113 -0.301 0.258 c -0.145 0.254 -0.355 0.332 -0.453 0.172 c -0.035 -0.055 -0.148 -0.039 -0.313 0.047 l -0.254 0.133 l 0.258 0.328 c 0.344 0.434 0.668 1.137 0.789 1.723 c 0.129 0.625 0.055 1.523 -0.141 1.711 c -0.141 0.129 -0.145 0.125 -0.082 -0.074 c 0.102 -0.324 0.152 -1.488 0.063 -1.434 c -0.043 0.027 -0.059 -0.059 -0.039 -0.191 c 0.043 -0.293 -0.242 -0.98 -0.637 -1.535 c -0.16 -0.223 -0.289 -0.453 -0.289 -0.508 c 0 -0.055 0.137 -0.18 0.309 -0.281 c 0.254 -0.152 0.332 -0.164 0.441 -0.074 c 0.109 0.094 0.148 0.082 0.227 -0.055 c 0.055 -0.094 0.227 -0.305 0.383 -0.473 l 0.289 -0.305 l -0.043 -1.934 c -0.031 -1.43 -0.078 -2.066 -0.184 -2.434 c -0.078 -0.277 -0.121 -0.566 -0.094 -0.645 c 0.023 -0.082 0.262 -0.281 0.523 -0.445 c 0.352 -0.219 0.469 -0.34 0.449 -0.469 c -0.031 -0.215 -0.504 -0.367 -0.77 -0.25 c -0.113 0.051 -0.418 0.051 -0.793 0.004 c -0.957 -0.117 -3.797 -0.012 -5.059 0.191 c -1.195 0.191 -1.902 0.359 -3.688 0.871 c -0.648 0.188 -1.242 0.34 -1.32 0.34 c -0.168 0 -1.336 0.496 -1.457 0.621 c -0.059 0.059 0.031 0.07 0.277 0.031 c 0.363 -0.055 0.367 -0.051 0.367 0.207 c 0 0.16 -0.055 0.281 -0.141 0.316 c -0.16 0.059 -1.063 -0.207 -1.063 -0.313 c 0 -0.105 0.508 -0.539 1.105 -0.941 c 0.469 -0.32 0.527 -0.398 0.746 -0.973 c 0.348 -0.926 0.578 -1.352 0.984 -1.813 c 0.313 -0.352 1.117 -0.996 1.117 -0.891 c 0 0.02 -0.102 0.215 -0.223 0.43 c -0.121 0.219 -0.207 0.465 -0.191 0.551 c 0.02 0.105 0.184 -0.066 0.527 -0.555 c 0.535 -0.766 0.895 -1.113 1.227 -1.195 c 0.188 -0.047 0.586 0.066 1.25 0.348 c 0.117 0.051 0.137 0.027 0.098 -0.117 c -0.051 -0.203 -0.711 -0.434 -1.23 -0.434 c -0.418 0 -1.16 0.383 -2.059 1.059 c -0.891 0.672 -1.367 1.297 -1.738 2.273 c -0.262 0.684 -0.32 0.77 -0.797 1.129 c -0.73 0.559 -1.332 1.129 -1.332 1.262 c 0 0.141 0.527 0.289 1.039 0.289 c 0.664 0.004 0.715 0.188 0.461 1.637 c -0.074 0.402 -0.211 1.09 -0.309 1.527 c -0.223 1.01 -0.199 1.051 0.648 1.051 c 0.867 0 0.992 0.18 0.648 0.934 c -0.141 0.313 -0.156 0.43 -0.082 0.707 c 0.074 0.27 0.156 0.363 0.406 0.469 c 0.566 0.234 0.645 0.355 0.578 0.906 c -0.055 0.477 -0.051 0.488 0.188 0.57 c 0.367 0.129 0.633 -0.004 0.633 -0.313 c 0 -0.242 0.016 -0.254 0.277 -0.211 c 0.152 0.023 0.441 0.008 0.641 -0.039 c 0.297 -0.066 0.383 -0.059 0.484 0.059 c 0.129 0.152 0.246 0.633 0.137 0.566 c -0.039 -0.023 -0.254 0 -0.48 0.051 c -0.23 0.055 -0.504 0.098 -0.609 0.098 c -0.324 0.008 -0.305 0.141 0.031 0.281 c 0.395 0.168 0.328 0.27 -0.09 0.133 c -0.164 -0.055 -0.344 -0.074 -0.398 -0.043 c -0.16 0.102 -0.848 -0.141 -1.113 -0.391 c -0.301 -0.281 -0.32 -0.531 -0.082 -0.926 c 0.211 -0.344 0.172 -0.418 -0.309 -0.629 c -0.281 -0.125 -0.379 -0.223 -0.422 -0.422 c -0.031 -0.141 -0.09 -0.254 -0.125 -0.254 c -0.152 0 -0.281 0.27 -0.238 0.492 c 0.066 0.348 -0.328 1.816 -0.555 2.055 c -0.199 0.215 -0.328 0.258 -0.328 0.113 m 3.953 -0.852 c 0 -0.047 -0.039 -0.105 -0.086 -0.133 c -0.047 -0.031 -0.086 0.004 -0.086 0.078 c 0 0.074 0.039 0.137 0.086 0.137 c 0.047 0 0.086 -0.039 0.086 -0.082 m -3.297 -1.574 c -0.023 -0.059 -0.043 -0.012 -0.043 0.109 c 0 0.117 0.02 0.164 0.043 0.105 c 0.023 -0.059 0.023 -0.156 0 -0.215 m 2.246 -7.754 c 2.723 -0.805 3.922 -0.996 6.723 -1.066 l 2.191 -0.055 l -0.723 -0.191 c -0.578 -0.156 -0.828 -0.281 -1.27 -0.629 c -1.176 -0.922 -2.152 -1.469 -3.01 -1.684 c -0.219 -0.051 -0.195 -0.012 0.254 0.477 c 0.441 0.477 0.582 0.695 0.449 0.695 c -0.023 0 -0.359 -0.242 -0.75 -0.535 c -0.391 -0.297 -0.957 -0.652 -1.262 -0.789 l -0.559 -0.246 l -0.297 0.164 c -0.332 0.18 -1.012 1.031 -1.52 1.895 c -0.242 0.418 -0.363 0.547 -0.477 0.516 c -0.164 -0.043 -0.246 0.098 -0.246 0.422 c 0 0.246 -0.031 0.242 0.438 0.074 c 1.207 -0.434 2.574 -0.734 3.773 -0.828 c 1.242 -0.098 2.207 -0.039 1.703 0.105 c -0.125 0.035 -0.551 0.09 -0.945 0.121 c -1.492 0.121 -3.949 0.664 -4.969 1.098 c -0.434 0.184 -0.773 0.469 -0.773 0.641 c 0 0.168 0.156 0.145 1.27 -0.184 m 7.949 -1.633 c -0.152 -0.066 -0.633 -0.398 -1.074 -0.734 c -0.82 -0.637 -1.75 -1.152 -2.539 -1.41 c -0.715 -0.234 -0.727 -0.105 -0.016 0.156 c 0.82 0.305 1.211 0.531 2.313 1.348 c 0.5 0.367 1 0.684 1.117 0.707 c 0.41 0.074 0.473 0.055 0.199 -0.066 m -5.578 10.566 c -0.078 -0.121 -0.117 -0.242 -0.09 -0.273 c 0.074 -0.074 0.398 0.23 0.398 0.375 c 0 0.184 -0.152 0.133 -0.309 -0.102 m -2.527 -1.672 c 0 -0.129 0.059 -0.172 0.215 -0.172 c 0.152 0 0.215 0.043 0.211 0.148 c -0.004 0.09 -0.027 0.105 -0.051 0.043 c -0.023 -0.059 -0.102 -0.105 -0.176 -0.105 c -0.082 0 -0.109 0.047 -0.082 0.129 c 0.027 0.07 0.012 0.129 -0.031 0.129 c -0.047 0 -0.086 -0.078 -0.086 -0.172 m 1.461 -0.156 c 0 -0.105 -0.035 -0.188 -0.086 -0.188 c -0.047 0 -0.086 0.055 -0.086 0.129 c 0 0.07 -0.039 0.129 -0.09 0.129 c -0.172 0 -0.039 -0.301 0.145 -0.328 c 0.207 -0.031 0.348 0.219 0.207 0.359 c -0.059 0.059 -0.09 0.027 -0.09 -0.102 m -2.082 0.02 c -0.117 -0.117 -0.066 -0.77 0.07 -0.969 c 0.113 -0.156 0.203 -0.191 0.496 -0.168 c 0.262 0.02 0.363 0.066 0.387 0.184 c 0.027 0.141 0.008 0.145 -0.215 0.035 c -0.465 -0.227 -0.598 -0.09 -0.652 0.652 c -0.012 0.184 -0.051 0.301 -0.086 0.266 m 2.637 -0.52 c -0.191 -0.789 -0.555 -0.938 -0.844 -0.344 c -0.133 0.27 -0.176 0.305 -0.238 0.195 c -0.098 -0.176 0.316 -0.828 0.527 -0.828 c 0.305 0 0.895 0.945 0.707 1.133 c -0.066 0.066 -0.109 0.023 -0.152 -0.156 m 5.719 -0.59 c 0 -0.074 0.039 -0.129 0.086 -0.129 c 0.047 0 0.086 0.055 0.086 0.129 c 0 0.07 -0.039 0.129 -0.086 0.129 c -0.047 0 -0.086 -0.059 -0.086 -0.129 m -3.996 -0.73 c 0.031 -0.047 0.07 -0.086 0.094 -0.086 c 0.02 0 0.035 0.039 0.035 0.086 c 0 0.047 -0.039 0.086 -0.09 0.086 c -0.051 0 -0.066 -0.039 -0.039 -0.086 m 2.23 -2.879 c 0.098 -0.305 0.203 -0.559 0.238 -0.559 c 0.105 -0.004 0.324 0.492 0.324 0.727 c 0 0.223 -0.25 0.391 -0.59 0.391 c -0.141 0 -0.137 -0.039 0.027 -0.559 m 0.313 0.383 c 0.184 -0.098 0.207 -0.23 0.078 -0.426 c -0.078 -0.113 -0.105 -0.109 -0.215 0.035 c -0.125 0.164 -0.176 0.48 -0.078 0.48 c 0.027 0 0.121 -0.043 0.215 -0.09 m 2.961 -3.035 c -0.18 -0.273 -0.113 -0.398 0.211 -0.398 c 0.348 0 0.402 0.152 0.148 0.406 l -0.215 0.215" fill="#af9c8d"/><path d="m 13.875 14.953 c 0 -0.262 0.016 -0.367 0.035 -0.238 c 0.023 0.129 0.023 0.344 0 0.473 c -0.02 0.129 -0.035 0.023 -0.035 -0.234 m 2.676 -2.289 c -0.047 -0.398 -0.109 -0.543 -0.309 -0.715 c -0.305 -0.27 -0.309 -0.5 -0.02 -1.09 c 0.199 -0.406 0.25 -0.453 0.43 -0.41 c 0.137 0.035 0.207 0.016 0.207 -0.059 c 0 -0.07 0.027 -0.082 0.078 -0.031 c 0.047 0.043 0.109 0.34 0.141 0.656 c 0.047 0.453 0.02 0.719 -0.133 1.289 c -0.102 0.391 -0.223 0.746 -0.262 0.789 c -0.035 0.039 -0.098 -0.152 -0.133 -0.43 m -9.355 -0.215 c -0.23 -1.039 -0.27 -1.148 -0.414 -1.137 c -0.176 0.012 -0.207 -0.102 -0.277 -1.055 c -0.066 -0.852 -0.086 -0.828 1.148 -1.441 c 1.363 -0.684 3.02 -1.188 4.395 -1.34 c 1.375 -0.156 3.684 0.063 4.04 0.383 c 0.078 0.074 0.234 0.32 0.34 0.547 c 0.184 0.391 0.188 0.445 0.074 0.84 l -0.117 0.422 l -0.23 -0.496 c -0.281 -0.613 -0.441 -0.652 -0.375 -0.086 c 0.074 0.609 -0.047 1.434 -0.211 1.465 c -0.098 0.02 -0.203 -0.152 -0.379 -0.602 c -0.133 -0.344 -0.277 -0.672 -0.324 -0.73 c -0.117 -0.148 -0.234 -0.055 -0.234 0.184 c 0 0.461 -0.453 0.492 -0.707 0.051 c -0.223 -0.395 -0.324 -0.316 -0.316 0.234 c 0.012 0.59 -0.18 1.172 -0.395 1.211 c -0.086 0.02 -0.242 0.133 -0.348 0.258 c -0.109 0.129 -0.227 0.203 -0.262 0.168 c -0.031 -0.035 -0.086 -0.43 -0.113 -0.879 c -0.031 -0.445 -0.094 -0.855 -0.145 -0.906 c -0.137 -0.137 -0.43 0.129 -0.707 0.645 c -0.129 0.234 -0.27 0.43 -0.316 0.43 c -0.176 0 -0.137 -0.629 0.074 -1.188 c 0.121 -0.316 0.18 -0.594 0.137 -0.621 c -0.09 -0.055 -0.457 0.168 -0.742 0.453 c -0.105 0.105 -0.273 0.195 -0.367 0.195 c -0.141 0 -0.176 -0.055 -0.176 -0.258 c 0 -0.145 -0.02 -0.258 -0.043 -0.258 c -0.023 0 -0.219 0.133 -0.438 0.301 c -0.215 0.164 -0.434 0.301 -0.48 0.301 c -0.059 0 -0.07 -0.117 -0.035 -0.301 c 0.066 -0.348 0.07 -0.348 -0.551 -0.133 l -0.473 0.16 l -0.191 0.715 c -0.113 0.418 -0.258 0.766 -0.355 0.844 c -0.129 0.105 -0.176 0.293 -0.223 0.906 c -0.059 0.785 -0.172 1.102 -0.258 0.719 m -1.422 -1.098 c 0 -0.293 -0.039 -0.434 -0.129 -0.469 c -0.227 -0.086 -0.164 -0.656 0.102 -0.934 c 0.238 -0.246 0.543 -0.32 0.543 -0.133 c 0 0.059 -0.078 0.516 -0.172 1.012 c -0.098 0.496 -0.172 0.91 -0.172 0.922 c 0 0.012 -0.039 0.023 -0.086 0.023 c -0.047 0 -0.086 -0.191 -0.086 -0.422 m 8.602 -0.676 c -0.152 -0.293 -0.121 -0.641 0.055 -0.605 c 0.172 0.031 0.246 0.418 0.125 0.641 c -0.074 0.129 -0.09 0.125 -0.18 -0.035 m -5.594 -0.234 c 0 -0.238 0.352 -0.66 0.41 -0.488 c 0.031 0.094 -0.293 0.703 -0.375 0.703 c -0.02 0 -0.035 -0.098 -0.035 -0.215 m 1.246 -0.645 c 0.027 -0.047 0.09 -0.086 0.137 -0.086 c 0.047 0 0.063 0.039 0.035 0.086 c -0.031 0.047 -0.094 0.086 -0.141 0.086 c -0.047 0 -0.063 -0.039 -0.031 -0.086" fill="#e07373"/><path d="m 12.496 18.13 c 0.016 -0.164 0.098 -0.242 0.332 -0.316 c 0.75 -0.246 0.938 -0.359 0.938 -0.566 c 0 -0.273 -0.461 -0.98 -0.684 -1.051 c -0.184 -0.059 -0.238 -0.254 -0.09 -0.344 c 0.176 -0.109 0.082 -0.387 -0.184 -0.523 l -0.266 -0.137 l 0.223 -0.234 c 0.23 -0.238 0.293 -0.441 0.141 -0.441 c -0.133 0 -0.105 -0.145 0.039 -0.199 c 0.074 -0.027 0.109 -0.008 0.086 0.055 c -0.023 0.059 -0.004 0.156 0.035 0.219 c 0.059 0.09 0.18 0.059 0.578 -0.156 c 0.5 -0.27 0.582 -0.277 1.184 -0.125 c 0.188 0.047 0.238 0.02 0.309 -0.168 c 0.047 -0.125 0.148 -0.227 0.227 -0.227 c 0.109 0 0.129 0.055 0.09 0.258 c -0.039 0.199 -0.023 0.242 0.078 0.203 c 0.09 -0.035 0.109 -0.008 0.07 0.094 c -0.035 0.09 0.047 0.285 0.219 0.523 c 0.496 0.691 0.699 1.258 0.754 2.09 c 0.027 0.418 0.012 0.824 -0.031 0.902 c -0.055 0.098 -0.078 -0.109 -0.078 -0.652 c 0 -0.605 -0.043 -0.91 -0.18 -1.285 c -0.227 -0.605 -0.621 -1.164 -1 -1.426 c -0.352 -0.234 -1.109 -0.348 -1.301 -0.191 c -0.18 0.152 -0.164 0.695 0.043 1.441 c 0.227 0.82 0.223 1.473 -0.012 1.938 c -0.258 0.504 -0.559 0.688 -0.453 0.273 c 0.07 -0.285 -0.125 -0.285 -0.465 0 c -0.203 0.172 -0.254 0.188 -0.242 0.074 c 0.02 -0.223 -0.195 -0.234 -0.289 -0.016 l -0.086 0.199 m 1.422 -2.148 c -0.172 -0.445 -0.523 -0.801 -0.66 -0.664 c -0.07 0.066 -0.031 0.148 0.133 0.289 c 0.145 0.125 0.297 0.422 0.418 0.805 c 0.188 0.598 0.191 0.602 0.219 0.266 c 0.016 -0.184 -0.035 -0.496 -0.109 -0.695 m -0.992 -1.07 c 0 -0.047 -0.039 -0.086 -0.086 -0.086 c -0.047 0 -0.086 0.039 -0.086 0.086 c 0 0.047 0.039 0.086 0.086 0.086 c 0.047 0 0.086 -0.039 0.086 -0.086 m 2.492 -0.988 c 0 -0.07 -0.039 -0.129 -0.086 -0.129 c -0.047 0 -0.086 0.059 -0.086 0.129 c 0 0.07 0.039 0.129 0.086 0.129 c 0.047 0 0.086 -0.059 0.086 -0.129 m -6.02 3.996 c 0 -0.047 0.039 -0.086 0.094 -0.086 c 0.129 0 0.008 -0.691 -0.152 -0.871 c -0.102 -0.117 -0.188 -0.125 -0.484 -0.059 c -0.199 0.047 -0.484 0.063 -0.637 0.039 c -0.254 -0.039 -0.273 -0.023 -0.301 0.223 c -0.012 0.148 -0.074 0.285 -0.137 0.305 c -0.094 0.031 -0.098 0.004 -0.008 -0.137 c 0.086 -0.141 0.09 -0.223 0.008 -0.402 c -0.141 -0.305 -0.453 -0.266 -0.57 0.07 c -0.074 0.203 -0.059 0.266 0.078 0.367 c 0.176 0.129 0.082 0.168 -0.113 0.043 c -0.086 -0.055 -0.098 -0.191 -0.055 -0.535 c 0.063 -0.527 -0.02 -0.652 -0.582 -0.887 c -0.254 -0.109 -0.332 -0.199 -0.406 -0.48 c -0.066 -0.234 -0.066 -0.391 -0.008 -0.492 c 0.07 -0.117 0.09 -0.125 0.09 -0.02 c 0.004 0.113 0.016 0.113 0.09 0 c 0.102 -0.16 0.109 -0.285 0.012 -0.223 c -0.039 0.023 -0.031 -0.109 0.016 -0.297 c 0.063 -0.23 0.117 -0.305 0.168 -0.23 c 0.043 0.063 0.09 0.07 0.109 0.02 c 0.289 -0.68 0.301 -0.688 0.941 -0.715 c 0.328 -0.016 0.629 -0.055 0.668 -0.094 c 0.035 -0.035 0.008 -0.207 -0.066 -0.379 c -0.07 -0.172 -0.129 -0.383 -0.125 -0.465 c 0.004 -0.086 0.059 0.012 0.121 0.215 c 0.063 0.203 0.16 0.422 0.215 0.484 c 0.074 0.094 0.055 0.148 -0.098 0.258 c -0.109 0.074 -0.285 0.137 -0.391 0.137 c -0.109 0 -0.195 0.039 -0.195 0.086 c 0 0.047 -0.133 0.086 -0.297 0.086 c -0.359 0 -0.563 0.242 -0.566 0.684 c 0 0.223 -0.02 0.27 -0.082 0.176 c -0.113 -0.184 -0.227 -0.039 -0.359 0.449 c -0.125 0.484 -0.066 0.582 0.414 0.66 c 0.25 0.039 0.336 0.098 0.371 0.258 c 0.09 0.383 0.461 0.566 1.148 0.566 c 0.848 0 1.328 -0.199 1.734 -0.715 c 0.301 -0.383 0.316 -0.391 0.266 -0.145 c -0.051 0.227 -0.023 0.277 0.23 0.41 c 0.324 0.176 0.613 0.641 0.531 0.855 c -0.031 0.078 -0.129 0.168 -0.223 0.195 c -0.09 0.031 -0.227 0.148 -0.301 0.262 c -0.086 0.133 -0.223 0.211 -0.363 0.211 c -0.125 0.004 -0.324 0.059 -0.441 0.129 c -0.258 0.145 -0.344 0.156 -0.344 0.043 m 1.27 -0.66 c 0.109 -0.066 0.219 -0.18 0.246 -0.242 c 0.129 -0.344 -0.617 -1.031 -0.883 -0.809 c -0.156 0.129 -0.152 0.25 0.012 0.25 c 0.191 0 0.488 0.52 0.375 0.656 c -0.125 0.148 -0.258 0.074 -0.496 -0.273 c -0.344 -0.508 -0.641 -0.336 -0.398 0.238 c 0.098 0.23 0.191 0.32 0.367 0.348 c 0.297 0.043 0.523 -0.008 0.777 -0.168 m -0.324 -0.316 c 0 -0.145 -0.324 -0.445 -0.398 -0.375 c -0.07 0.07 0.199 0.492 0.313 0.492 c 0.047 0 0.086 -0.055 0.086 -0.117 m 1.516 0.664 c -0.031 -0.223 -0.094 -0.449 -0.145 -0.508 c -0.066 -0.078 -0.004 -0.102 0.258 -0.094 c 0.391 0.008 0.422 0.105 0.227 0.648 c -0.156 0.43 -0.277 0.414 -0.34 -0.047 m 0.289 -0.332 c 0 -0.07 -0.039 -0.129 -0.086 -0.129 c -0.047 0 -0.086 0.059 -0.086 0.129 c 0 0.07 0.039 0.129 0.086 0.129 c 0.047 0 0.086 -0.059 0.086 -0.129 m -3.992 0.563 c -0.027 -0.043 -0.012 -0.105 0.035 -0.133 c 0.105 -0.063 0.262 0.016 0.262 0.133 c 0 0.105 -0.234 0.105 -0.297 0 m 0.383 -0.656 c 0 -0.07 0.039 -0.109 0.086 -0.078 c 0.047 0.027 0.086 0.09 0.086 0.133 c 0 0.043 -0.039 0.082 -0.086 0.082 c -0.047 0 -0.086 -0.063 -0.086 -0.137 m 4.469 -0.809 c 0 -0.047 0.055 -0.086 0.129 -0.086 c 0.07 0 0.129 0.039 0.129 0.086 c 0 0.047 -0.059 0.086 -0.129 0.086 c -0.074 0 -0.129 -0.039 -0.129 -0.086 m -7.637 -0.602 c 0 -0.121 0.02 -0.168 0.043 -0.109 c 0.023 0.059 0.023 0.156 0 0.215 c -0.023 0.059 -0.043 0.012 -0.043 -0.105 m 5.121 -0.563 c 0.035 -0.176 -0.027 -0.297 -0.285 -0.563 c -0.184 -0.188 -0.383 -0.32 -0.445 -0.297 c -0.066 0.023 -0.148 -0.055 -0.203 -0.191 c -0.047 -0.129 -0.168 -0.324 -0.27 -0.43 c -0.129 -0.137 -0.145 -0.191 -0.059 -0.191 c 0.141 0.004 0.855 0.652 0.855 0.777 c 0 0.137 0.547 0.594 0.664 0.555 c 0.18 -0.063 0.121 0.172 -0.098 0.375 l -0.203 0.191 m -2.801 -0.152 c -0.098 -0.098 -0.063 -0.199 0.074 -0.199 c 0.07 0 0.129 0.059 0.129 0.129 c 0 0.133 -0.102 0.168 -0.203 0.07 m 1.148 -0.285 c 0 -0.098 0.039 -0.172 0.086 -0.172 c 0.047 0 0.086 0.074 0.086 0.172 c 0 0.094 -0.039 0.172 -0.086 0.172 c -0.047 0 -0.086 -0.078 -0.086 -0.172 m 3.141 -0.223 c -0.074 -0.074 -0.133 -0.188 -0.133 -0.25 c 0 -0.152 0.266 -0.242 0.379 -0.125 c 0.066 0.07 0.047 0.086 -0.078 0.066 c -0.109 -0.02 -0.172 0.02 -0.172 0.102 c 0 0.074 0.063 0.117 0.148 0.102 c 0.082 -0.012 0.152 0.016 0.152 0.059 c 0 0.16 -0.16 0.184 -0.297 0.047 m -1.266 -0.234 c -0.031 -0.16 -0.02 -0.215 0.031 -0.16 c 0.047 0.043 0.07 0.152 0.051 0.242 c -0.023 0.117 -0.047 0.098 -0.082 -0.082 m -2.305 -0.457 c 0 -0.055 0.074 -0.191 0.168 -0.301 c 0.219 -0.266 0.223 -0.098 0.004 0.184 c -0.094 0.117 -0.172 0.168 -0.172 0.117 m 7.895 -0.184 c -0.105 -0.133 -0.105 -0.137 0.027 -0.035 c 0.082 0.063 0.195 0.086 0.25 0.051 c 0.066 -0.039 0.082 -0.027 0.043 0.035 c -0.086 0.141 -0.184 0.125 -0.32 -0.051 m -11.414 -0.145 c -0.059 -0.07 -0.086 -0.195 -0.066 -0.281 c 0.031 -0.117 0.043 -0.109 0.051 0.043 c 0.008 0.117 0.09 0.227 0.203 0.273 c 0.133 0.051 0.148 0.078 0.055 0.082 c -0.078 0.004 -0.188 -0.051 -0.242 -0.117 m 0.836 0.063 c 0.105 -0.02 0.258 -0.02 0.344 0.004 c 0.082 0.02 -0.008 0.035 -0.195 0.035 c -0.191 0 -0.258 -0.02 -0.148 -0.039 m 8.105 -0.055 c 0.02 -0.02 0.129 -0.078 0.25 -0.137 c 0.203 -0.094 0.203 -0.094 0.047 0.035 c -0.137 0.109 -0.418 0.203 -0.297 0.102 m 2.988 -0.293 c 0.059 -0.105 0.141 -0.191 0.188 -0.191 c 0.047 0 0.121 -0.09 0.164 -0.195 c 0.043 -0.105 0.078 -0.137 0.082 -0.063 c 0.004 0.156 -0.059 0.246 -0.328 0.473 l -0.207 0.172 m -1.973 -0.875 c 0.227 -0.434 0.422 -0.773 0.438 -0.762 c 0.035 0.039 -0.543 1.168 -0.707 1.379 c -0.074 0.094 0.047 -0.184 0.27 -0.617 m -9.77 -0.078 c 0.008 -0.102 0.027 -0.121 0.055 -0.051 c 0.023 0.059 0.02 0.133 -0.008 0.164 c -0.027 0.027 -0.047 -0.023 -0.047 -0.113 m 0.086 -0.344 c 0.008 -0.102 0.027 -0.121 0.055 -0.051 c 0.023 0.059 0.02 0.133 -0.008 0.164 c -0.027 0.027 -0.047 -0.023 -0.047 -0.113 m 2.914 -0.938 c -0.047 -1.164 0.016 -1.527 0.277 -1.715 c 0.266 -0.184 0.313 -0.105 0.219 0.375 c -0.09 0.445 -0.051 0.695 0.109 0.695 c 0.051 0 0.129 -0.09 0.176 -0.195 c 0.066 -0.16 0.074 -0.145 0.031 0.086 c -0.031 0.184 -0.016 0.281 0.047 0.281 c 0.055 0 0.074 0.039 0.047 0.086 c -0.074 0.121 -0.566 -0.359 -0.574 -0.563 c -0.004 -0.094 0.02 -0.277 0.055 -0.406 c 0.078 -0.289 -0.086 -0.328 -0.18 -0.043 c -0.035 0.105 -0.086 0.695 -0.117 1.313 l -0.055 1.117 m 1.293 -0.262 c -0.164 -0.133 -0.164 -0.133 0.008 -0.055 c 0.094 0.043 0.23 0.098 0.301 0.125 c 0.109 0.043 0.109 0.047 -0.008 0.055 c -0.07 0.004 -0.207 -0.055 -0.301 -0.125 m 0.609 0.043 c -0.145 -0.063 -0.129 -0.07 0.086 -0.063 c 0.145 0.008 0.32 -0.016 0.387 -0.055 c 0.07 -0.035 0.055 -0.004 -0.039 0.07 c -0.188 0.152 -0.195 0.152 -0.434 0.047 m 3.672 -0.055 c 0.082 -0.023 0.219 -0.023 0.301 0 c 0.082 0.02 0.016 0.039 -0.148 0.039 c -0.168 0 -0.234 -0.02 -0.152 -0.039 m -8.426 -0.242 c 0 -0.145 0.02 -0.191 0.043 -0.105 c 0.02 0.082 0.02 0.199 -0.004 0.258 c -0.023 0.059 -0.039 -0.012 -0.039 -0.152 m 9.08 0.031 c 0.137 -0.156 0.254 -0.215 0.375 -0.18 c 0.156 0.039 0.172 0.012 0.137 -0.203 c -0.023 -0.141 -0.07 -0.328 -0.105 -0.422 c -0.031 -0.094 0.004 -0.066 0.082 0.066 c 0.188 0.328 0.141 0.621 -0.102 0.621 c -0.105 0.004 -0.277 0.078 -0.387 0.172 l -0.199 0.168 m 3.121 -0.879 c -0.016 -0.414 -0.004 -0.926 0.023 -1.137 c 0.031 -0.238 0.059 0.055 0.066 0.75 c 0.004 0.629 -0.008 1.141 -0.027 1.141 c -0.02 0 -0.051 -0.34 -0.063 -0.754 m -8.539 0.574 c -0.09 -0.141 -0.012 -0.16 0.113 -0.027 c 0.063 0.066 0.074 0.121 0.027 0.121 c -0.047 0 -0.109 -0.043 -0.141 -0.094 m 4.438 -0.32 l -0.008 -0.371 l -0.23 0.176 c -0.246 0.195 -0.465 0.121 -0.453 -0.152 c 0.004 -0.086 0.039 -0.059 0.09 0.074 l 0.086 0.215 l 0.387 -0.41 c 0.359 -0.379 0.543 -0.52 0.422 -0.32 c -0.031 0.047 0.035 0.086 0.145 0.09 c 0.195 0.004 0.195 0.008 0.012 0.082 c -0.234 0.094 -0.313 0.219 -0.379 0.645 l -0.059 0.344 m -7.789 -0.621 c 0.027 -0.199 0.078 -0.574 0.113 -0.84 c 0.09 -0.672 -0.023 -0.816 -0.664 -0.824 c -0.332 -0.004 -0.434 -0.027 -0.316 -0.074 c 0.164 -0.063 0.164 -0.066 -0.023 -0.129 c -0.105 -0.031 -0.191 -0.113 -0.191 -0.176 c 0 -0.141 0.73 -0.809 1.246 -1.133 c 0.348 -0.219 0.414 -0.32 0.695 -1.047 c 0.172 -0.441 0.484 -1.059 0.691 -1.375 l 0.383 -0.57 l -0.406 0.387 l -0.402 0.387 l 0.273 -0.352 c 0.406 -0.523 2.234 -1.844 2.539 -1.84 c 0.051 0 -0.121 0.117 -0.379 0.262 c -0.668 0.367 -0.852 0.57 -0.305 0.34 c 0.234 -0.102 0.484 -0.227 0.559 -0.281 c 0.07 -0.055 0.012 0.035 -0.133 0.199 c -0.148 0.16 -0.457 0.566 -0.688 0.898 c -0.469 0.668 -0.648 0.598 -0.258 -0.098 c 0.121 -0.219 0.223 -0.414 0.223 -0.434 c 0 -0.105 -0.805 0.539 -1.117 0.895 c -0.406 0.457 -0.637 0.883 -0.984 1.809 c -0.219 0.574 -0.277 0.652 -0.746 0.973 c -0.598 0.406 -1.105 0.84 -1.105 0.941 c 0 0.109 0.902 0.371 1.063 0.313 c 0.086 -0.035 0.141 -0.156 0.141 -0.316 c 0 -0.258 -0.004 -0.262 -0.367 -0.207 c -0.246 0.039 -0.336 0.027 -0.277 -0.031 c 0.129 -0.133 1.297 -0.621 1.473 -0.617 c 0.09 0 -0.035 0.07 -0.27 0.148 l -0.43 0.148 l -0.016 0.43 c -0.031 0.926 -0.113 1.652 -0.234 2.105 c -0.117 0.418 -0.125 0.43 -0.086 0.109 m 3.051 -6.398 c 0.066 -0.129 0.066 -0.16 0 -0.121 c -0.051 0.031 -0.137 0.141 -0.191 0.234 c -0.066 0.129 -0.066 0.164 0 0.121 c 0.051 -0.031 0.137 -0.137 0.191 -0.234 m 6.801 6.594 c -0.129 -0.059 -0.191 -0.16 -0.188 -0.305 c 0.004 -0.129 0.027 -0.164 0.055 -0.086 c 0.027 0.07 0.129 0.191 0.227 0.273 c 0.223 0.176 0.172 0.238 -0.094 0.117 m -4.684 -0.281 c -0.082 -0.02 -0.148 -0.109 -0.148 -0.195 c 0 -0.086 -0.051 -0.18 -0.109 -0.203 c -0.082 -0.035 -0.082 -0.043 0.004 -0.051 c 0.059 -0.004 0.137 0.063 0.164 0.145 c 0.031 0.082 0.117 0.199 0.191 0.254 c 0.145 0.113 0.137 0.113 -0.102 0.051 m 1.75 -0.582 c -0.07 -0.285 -0.141 -0.387 -0.254 -0.387 c -0.168 0 -0.441 0.25 -0.441 0.402 c 0 0.051 -0.059 0.137 -0.125 0.195 c -0.105 0.086 -0.148 0.047 -0.258 -0.215 c -0.074 -0.176 -0.133 -0.453 -0.133 -0.617 c 0 -0.242 -0.027 -0.289 -0.141 -0.246 c -0.09 0.031 -0.188 -0.012 -0.266 -0.121 c -0.066 -0.098 -0.16 -0.152 -0.211 -0.121 c -0.047 0.027 -0.035 -0.027 0.023 -0.125 c 0.148 -0.234 0.508 -0.398 0.508 -0.23 c 0 0.066 -0.039 0.145 -0.086 0.176 c -0.047 0.027 -0.086 0.113 -0.086 0.188 c 0 0.125 0.016 0.125 0.156 -0.004 c 0.25 -0.227 0.297 -0.172 0.238 0.277 c -0.043 0.336 -0.027 0.43 0.078 0.473 c 0.094 0.035 0.117 0.117 0.082 0.289 c -0.051 0.227 -0.047 0.23 0.082 0.07 c 0.074 -0.094 0.137 -0.215 0.137 -0.277 c 0 -0.133 0.27 -0.285 0.504 -0.285 c 0.176 0 0.215 0.078 0.309 0.621 c 0.074 0.445 0 0.406 -0.117 -0.063 m 2.324 0.129 c 0 -0.121 0.02 -0.168 0.043 -0.109 c 0.023 0.059 0.023 0.156 0 0.215 c -0.023 0.059 -0.043 0.012 -0.043 -0.105 m -5.03 -0.184 c 0.129 -0.145 0.273 -1.02 0.168 -1.02 c -0.031 0 -0.145 0.043 -0.246 0.098 c -0.172 0.09 -0.18 0.086 -0.07 -0.043 c 0.215 -0.262 0.426 -0.176 0.457 0.18 l 0.027 0.324 l 0.145 -0.258 c 0.082 -0.145 0.148 -0.219 0.152 -0.172 c 0 0.047 -0.094 0.23 -0.211 0.402 c -0.266 0.387 -0.266 0.449 -0.031 0.555 c 0.152 0.066 0.125 0.082 -0.168 0.078 c -0.313 -0.004 -0.336 -0.02 -0.223 -0.145 m 4.578 -0.094 c 0.039 -0.238 0.051 -0.25 0.078 -0.078 c 0.02 0.109 -0.004 0.238 -0.047 0.281 c -0.047 0.047 -0.059 -0.031 -0.031 -0.203 m 0.863 -0.109 c -0.02 -0.148 -0.086 -0.25 -0.145 -0.238 c -0.059 0.012 -0.109 -0.035 -0.109 -0.105 c 0 -0.074 0.035 -0.129 0.078 -0.129 c 0.148 0 0.277 0.25 0.246 0.488 l -0.031 0.242 m -1.152 -0.859 c -0.113 -0.211 -0.18 -0.41 -0.145 -0.441 c 0.031 -0.031 0.141 0.125 0.238 0.348 c 0.23 0.523 0.176 0.582 -0.094 0.094 m 3.289 -0.344 c 0 -0.191 0.02 -0.258 0.039 -0.152 c 0.02 0.109 0.02 0.262 -0.004 0.344 c -0.02 0.082 -0.035 -0.004 -0.035 -0.191 m -13.344 -0.082 c 0 -0.07 0.035 -0.145 0.078 -0.172 c 0.043 -0.027 0.059 0.027 0.035 0.125 c -0.055 0.199 -0.113 0.223 -0.113 0.047 m 0.258 -0.332 c 0 -0.016 0.129 -0.141 0.281 -0.281 l 0.277 -0.25 l -0.25 0.277 c -0.234 0.262 -0.309 0.32 -0.309 0.254 m 12.984 -0.109 c 0.004 -0.102 0.023 -0.121 0.051 -0.055 c 0.027 0.063 0.023 0.137 -0.004 0.168 c -0.031 0.027 -0.051 -0.023 -0.047 -0.113 m -0.086 -0.344 c 0.004 -0.102 0.023 -0.121 0.051 -0.055 c 0.027 0.063 0.023 0.137 -0.004 0.168 c -0.031 0.027 -0.051 -0.023 -0.047 -0.113 m -12.297 -0.07 c 0 -0.016 0.07 -0.086 0.152 -0.148 c 0.137 -0.109 0.141 -0.105 0.031 0.031 c -0.113 0.145 -0.184 0.188 -0.184 0.117 m 12.211 -0.297 c -0.004 -0.113 -0.094 -0.355 -0.195 -0.543 c -0.164 -0.289 -0.176 -0.352 -0.066 -0.422 c 0.109 -0.07 0.109 -0.09 -0.004 -0.168 c -0.098 -0.066 -0.055 -0.086 0.172 -0.082 c 0.168 0 0.422 -0.02 0.57 -0.051 l 0.27 -0.055 l -0.063 0.355 c -0.066 0.367 -0.027 0.422 0.164 0.242 c 0.082 -0.078 0.102 -0.078 0.059 -0.004 c -0.031 0.059 -0.211 0.188 -0.398 0.293 c -0.184 0.105 -0.375 0.293 -0.418 0.414 c -0.082 0.219 -0.082 0.219 -0.09 0.02 m 0.473 -0.863 c -0.074 -0.121 -0.535 -0.125 -0.609 -0.004 c -0.031 0.047 0.008 0.188 0.09 0.309 l 0.145 0.223 l 0.215 -0.215 c 0.121 -0.121 0.191 -0.262 0.16 -0.313 m -12.34 0.902 c 0 -0.016 0.07 -0.086 0.152 -0.148 c 0.137 -0.109 0.141 -0.105 0.031 0.031 c -0.109 0.145 -0.184 0.188 -0.184 0.117 m 1.961 -0.023 c 0.063 -0.027 0.137 -0.023 0.168 0.004 c 0.027 0.031 -0.023 0.051 -0.113 0.047 c -0.102 -0.004 -0.121 -0.023 -0.055 -0.051 m -1.438 -0.426 c 0.117 -0.148 0.227 -0.254 0.246 -0.234 c 0.023 0.02 -0.07 0.141 -0.207 0.27 l -0.246 0.234 m 3.449 -0.359 c 0.063 -0.027 0.137 -0.023 0.168 0.004 c 0.027 0.031 -0.023 0.051 -0.113 0.047 c -0.102 -0.004 -0.121 -0.023 -0.055 -0.051 m 1.031 -0.258 c 0.063 -0.027 0.137 -0.023 0.168 0.004 c 0.027 0.031 -0.023 0.051 -0.113 0.047 c -0.102 -0.004 -0.121 -0.023 -0.055 -0.051 m 0.34 -0.086 c 0.059 -0.023 0.156 -0.023 0.215 0 c 0.059 0.023 0.012 0.043 -0.109 0.043 c -0.117 0 -0.164 -0.02 -0.105 -0.043 m 0.965 -0.16 c 0.355 -0.063 0.918 -0.133 1.246 -0.16 c 0.383 -0.031 0.211 0.012 -0.473 0.117 c -0.59 0.094 -1.148 0.164 -1.246 0.16 c -0.094 -0.004 0.121 -0.059 0.473 -0.117 m 6.703 -0.125 c -0.074 -0.051 -0.086 -0.086 -0.023 -0.086 c 0.055 0 0.125 0.039 0.152 0.086 c 0.066 0.105 0.039 0.105 -0.129 0 m -4.488 -0.148 c 0.152 -0.02 0.406 -0.02 0.559 0 c 0.152 0.02 0.027 0.035 -0.281 0.035 c -0.305 0 -0.43 -0.016 -0.277 -0.035 m 1.895 0 c 0.199 -0.02 0.512 -0.02 0.688 0 c 0.176 0.016 0.008 0.031 -0.367 0.031 c -0.379 0 -0.523 -0.016 -0.32 -0.031 m 0.277 -0.602 c -0.246 -0.047 -0.723 -0.363 -0.652 -0.434 c 0.027 -0.027 -0.02 -0.129 -0.102 -0.227 c -0.148 -0.18 -0.148 -0.18 0.039 -0.02 c 0.105 0.09 0.184 0.199 0.172 0.246 c -0.008 0.047 0.035 0.105 0.102 0.129 c 0.082 0.031 0.098 0.008 0.051 -0.074 c -0.043 -0.07 0 -0.059 0.098 0.027 c 0.094 0.082 0.301 0.207 0.465 0.277 c 0.297 0.129 0.242 0.148 -0.172 0.074 m -9.195 -0.195 c 0.051 -0.094 0.109 -0.172 0.133 -0.172 c 0.023 0 0.004 0.078 -0.047 0.172 c -0.051 0.094 -0.113 0.172 -0.137 0.172 c -0.023 0 0 -0.078 0.051 -0.172 m 7.949 -0.605 c -0.238 -0.184 -0.43 -0.383 -0.43 -0.438 c 0 -0.059 -0.055 -0.121 -0.121 -0.145 c -0.078 -0.027 -0.098 -0.004 -0.051 0.07 c 0.047 0.074 0.035 0.09 -0.031 0.051 c -0.055 -0.035 -0.078 -0.105 -0.047 -0.156 c 0.035 -0.051 0.008 -0.07 -0.063 -0.047 c -0.066 0.023 -0.273 -0.047 -0.461 -0.156 c -0.191 -0.109 -0.633 -0.305 -0.984 -0.434 c -0.352 -0.129 -0.594 -0.25 -0.539 -0.27 c 0.324 -0.109 2.82 1.07 2.645 1.25 c -0.063 0.059 0.117 0.277 0.23 0.277 c 0.047 0 0.031 -0.07 -0.031 -0.152 c -0.109 -0.137 -0.105 -0.141 0.035 -0.031 c 0.082 0.066 0.133 0.141 0.105 0.164 c -0.023 0.027 0.02 0.117 0.098 0.203 c 0.211 0.234 0.121 0.188 -0.355 -0.188 m -0.172 -0.34 c -0.031 -0.047 -0.094 -0.086 -0.141 -0.086 c -0.047 0 -0.063 0.039 -0.031 0.086 c 0.027 0.047 0.09 0.086 0.137 0.086 c 0.047 0 0.063 -0.039 0.035 -0.086 m -3.652 -1.168 c -0.539 -0.23 -0.707 -0.25 -0.973 -0.109 c -0.164 0.086 -0.176 0.086 -0.082 -0.027 c 0.059 -0.07 0.082 -0.156 0.051 -0.188 c -0.109 -0.105 0.629 -0.055 1.063 0.074 c 0.297 0.086 0.449 0.184 0.48 0.301 c 0.055 0.203 0.055 0.203 -0.539 -0.051" fill="#a88d73"/><path d="m 12.574 18.16 c 0.039 -0.188 0.289 -0.215 0.289 -0.031 c 0 0.07 -0.074 0.145 -0.16 0.16 c -0.113 0.023 -0.148 -0.012 -0.129 -0.129 m -5.098 -0.516 c 0.059 -0.027 0.133 -0.023 0.164 0.004 c 0.027 0.031 -0.023 0.051 -0.113 0.047 c -0.102 -0.004 -0.121 -0.023 -0.051 -0.051 m 2.383 -0.02 c -0.137 -0.027 -0.27 -0.109 -0.293 -0.18 c -0.035 -0.109 -0.02 -0.113 0.094 -0.02 c 0.203 0.168 0.266 -0.02 0.109 -0.324 c -0.152 -0.293 -0.27 -0.332 -0.328 -0.109 c -0.039 0.141 -0.039 0.141 -0.051 0 c -0.016 -0.23 0.25 -0.293 0.395 -0.098 c 0.34 0.469 0.465 0.563 0.586 0.461 c 0.105 -0.086 0.105 -0.137 -0.012 -0.359 c -0.074 -0.141 -0.207 -0.277 -0.297 -0.301 c -0.195 -0.051 -0.211 -0.137 -0.047 -0.273 c 0.266 -0.223 1.012 0.465 0.883 0.809 c -0.109 0.277 -0.637 0.48 -1.035 0.395 m 0.879 -0.32 c 0.082 -0.152 0.039 -0.441 -0.094 -0.609 c -0.129 -0.168 -0.246 -0.035 -0.145 0.16 c 0.055 0.098 0.07 0.27 0.043 0.383 c -0.059 0.234 0.074 0.277 0.195 0.066 m -3.563 0.184 c -0.027 -0.066 -0.031 -0.172 -0.012 -0.234 c 0.02 -0.063 0.055 -0.004 0.082 0.125 c 0.047 0.254 0.008 0.316 -0.07 0.109 m 4.781 0 c 0 -0.07 0.035 -0.129 0.086 -0.129 c 0.047 0 0.086 0.059 0.086 0.129 c 0 0.07 -0.039 0.129 -0.086 0.129 c -0.051 0 -0.086 -0.059 -0.086 -0.129 m -4.203 -0.102 c -0.004 -0.105 -0.07 -0.25 -0.145 -0.324 c -0.074 -0.074 -0.094 -0.133 -0.047 -0.133 c 0.129 0 0.285 0.324 0.242 0.496 c -0.031 0.109 -0.043 0.098 -0.051 -0.039 m 6.03 -0.762 c -0.121 -0.383 -0.273 -0.68 -0.418 -0.805 c -0.164 -0.141 -0.203 -0.223 -0.133 -0.289 c 0.254 -0.258 0.82 0.742 0.77 1.359 c -0.027 0.336 -0.031 0.332 -0.219 -0.266 m -7.586 -1.43 c 0 -0.082 0.035 -0.172 0.086 -0.199 c 0.105 -0.066 0.105 0.047 0 0.215 c -0.074 0.109 -0.086 0.109 -0.086 -0.016 m 6.531 -0.07 c 0 -0.047 0.035 -0.086 0.086 -0.086 c 0.047 0 0.086 0.039 0.086 0.086 c 0 0.047 -0.039 0.086 -0.086 0.086 c -0.051 0 -0.086 -0.039 -0.086 -0.086 m -2.277 -0.168 c -0.148 -0.168 -0.148 -0.168 0.074 -0.066 c 0.121 0.059 0.223 0.133 0.223 0.168 c 0.004 0.117 -0.141 0.066 -0.297 -0.102 m 1.461 -0.09 c -0.035 -0.055 -0.027 -0.141 0.023 -0.188 c 0.055 -0.059 0.105 -0.051 0.148 0.016 c 0.031 0.055 0.023 0.137 -0.023 0.188 c -0.059 0.055 -0.109 0.051 -0.148 -0.016 m -1.848 -0.301 c 0 -0.07 0.035 -0.129 0.082 -0.129 c 0.047 0 0.063 0.059 0.035 0.129 c -0.027 0.07 -0.066 0.129 -0.086 0.129 c -0.02 0 -0.031 -0.059 -0.031 -0.129 m 0.43 0.043 c -0.078 -0.051 -0.09 -0.086 -0.027 -0.086 c 0.055 0 0.125 0.039 0.156 0.086 c 0.063 0.105 0.035 0.105 -0.129 0 m 2.539 -0.063 c -0.059 -0.145 0.141 -0.367 0.328 -0.367 c 0.047 0 0.012 0.055 -0.082 0.125 c -0.164 0.125 -0.16 0.125 0.016 0.129 c 0.102 0 0.234 -0.055 0.293 -0.125 c 0.086 -0.105 0.082 -0.129 -0.012 -0.133 c -0.066 0 0.09 -0.105 0.344 -0.234 c 0.387 -0.195 0.516 -0.32 0.754 -0.75 c 0.156 -0.285 0.367 -0.73 0.465 -0.988 l 0.18 -0.473 l -0.18 -0.117 c -0.152 -0.102 -0.18 -0.207 -0.18 -0.699 c 0 -0.625 -0.051 -0.719 -0.461 -0.824 c -0.238 -0.059 -0.246 -0.055 -0.203 0.23 c 0.023 0.16 0.098 0.484 0.164 0.723 c 0.121 0.426 0.121 0.43 -0.074 0.441 c -0.109 0.008 -0.199 -0.023 -0.199 -0.066 c 0 -0.039 0.059 -0.074 0.129 -0.074 c 0.164 0 0.168 -0.121 0.008 -0.254 c -0.074 -0.063 -0.211 -0.078 -0.324 -0.047 c -0.188 0.059 -0.188 0.055 -0.035 -0.063 c 0.203 -0.156 0.148 -0.539 -0.164 -1.152 c -0.117 -0.23 -0.211 -0.469 -0.211 -0.527 c -0.004 -0.191 0.176 -0.109 0.324 0.152 c 0.25 0.441 0.703 0.41 0.703 -0.051 c 0 -0.238 0.121 -0.332 0.238 -0.184 c 0.043 0.059 0.191 0.387 0.324 0.73 c 0.176 0.449 0.281 0.621 0.379 0.602 c 0.164 -0.031 0.285 -0.855 0.211 -1.465 c -0.07 -0.566 0.094 -0.527 0.375 0.086 l 0.227 0.496 l 0.121 -0.422 c 0.113 -0.395 0.109 -0.449 -0.074 -0.84 c -0.266 -0.566 -0.391 -0.66 -1.078 -0.797 c -2.418 -0.48 -5.176 -0.051 -7.691 1.207 c -1.234 0.613 -1.215 0.59 -1.152 1.441 c 0.074 0.953 0.102 1.066 0.277 1.055 c 0.148 -0.012 0.188 0.098 0.418 1.137 c 0.086 0.387 0.199 0.063 0.258 -0.746 c 0.051 -0.637 0.094 -0.813 0.215 -0.879 c 0.086 -0.047 0.176 -0.082 0.203 -0.082 c 0.027 0 0.047 0.395 0.047 0.883 c 0 0.535 0.055 1.07 0.133 1.352 c 0.215 0.77 0.246 0.723 -0.477 0.773 l -0.645 0.043 l -0.168 0.363 c -0.184 0.395 -0.254 0.441 -0.336 0.234 c -0.027 -0.074 -0.016 -0.113 0.027 -0.086 c 0.082 0.051 0.262 -0.211 0.262 -0.379 c 0 -0.051 -0.074 -0.09 -0.168 -0.09 c -0.098 0 -0.223 -0.078 -0.281 -0.172 c -0.156 -0.254 -0.34 -0.211 -0.57 0.129 c -0.125 0.184 -0.273 0.301 -0.387 0.297 c -0.109 0 -0.145 -0.027 -0.086 -0.063 c 0.07 -0.047 0.07 -0.199 -0.008 -0.578 c -0.09 -0.461 -0.113 -0.496 -0.207 -0.344 c -0.09 0.141 -0.102 0.141 -0.063 0.016 c 0.027 -0.082 0.152 -0.664 0.281 -1.293 c 0.227 -1.102 0.238 -1.137 0.387 -0.984 c 0.105 0.105 0.156 0.285 0.156 0.543 c 0 0.211 0.039 0.387 0.086 0.387 c 0.047 0 0.086 -0.012 0.086 -0.023 c 0 -0.012 0.078 -0.426 0.172 -0.922 c 0.098 -0.496 0.172 -0.953 0.172 -1.012 c 0 -0.18 -0.301 -0.117 -0.516 0.109 c -0.242 0.258 -0.383 0.164 -0.258 -0.172 c 0.051 -0.129 0.082 -0.375 0.066 -0.543 c -0.02 -0.281 0.004 -0.316 0.277 -0.414 c 0.48 -0.172 3.691 -1.043 4.211 -1.141 c 2.805 -0.531 7.18 -0.656 6.449 -0.184 c -0.113 0.07 -0.109 0.117 0.027 0.348 c 0.215 0.367 0.469 1.465 0.52 2.281 c 0.027 0.375 0.023 0.605 -0.004 0.512 c -0.059 -0.223 -0.203 -0.375 -0.203 -0.223 c 0 0.074 -0.066 0.094 -0.203 0.059 c -0.18 -0.043 -0.234 0.004 -0.43 0.41 c -0.289 0.59 -0.285 0.82 0.02 1.09 c 0.195 0.172 0.258 0.316 0.309 0.707 c 0.035 0.273 0.094 0.473 0.133 0.449 c 0.035 -0.023 0.141 -0.324 0.223 -0.668 c 0.141 -0.559 0.164 -0.598 0.215 -0.363 c 0.031 0.141 0.059 0.449 0.055 0.688 c -0.004 0.348 -0.012 0.367 -0.039 0.105 c -0.043 -0.422 -0.195 -0.328 -0.195 0.117 c 0 0.207 0.035 0.324 0.086 0.293 c 0.047 -0.031 0.086 -0.012 0.086 0.039 c 0 0.051 -0.059 0.117 -0.133 0.145 c -0.07 0.027 -0.207 0.203 -0.301 0.383 c -0.172 0.336 -0.281 0.41 -0.383 0.246 c -0.027 -0.047 -0.098 -0.059 -0.156 -0.027 c -0.055 0.031 0.012 -0.047 0.145 -0.172 c 0.148 -0.145 0.223 -0.285 0.191 -0.367 c -0.027 -0.074 -0.051 -0.148 -0.051 -0.168 c 0 -0.02 -0.051 -0.035 -0.117 -0.035 c -0.066 0 -0.168 0.113 -0.227 0.258 c -0.148 0.359 -0.344 0.336 -0.344 -0.043 c 0 -0.211 -0.039 -0.301 -0.129 -0.301 c -0.07 0 -0.129 0.031 -0.129 0.07 c 0 0.039 -0.152 0.238 -0.344 0.445 c -0.188 0.203 -0.344 0.402 -0.344 0.441 c 0 0.152 0.223 0.063 0.305 -0.121 c 0.047 -0.105 0.172 -0.203 0.277 -0.219 c 0.156 -0.023 0.191 0.012 0.191 0.184 c 0 0.117 0.051 0.23 0.105 0.25 c 0.059 0.02 0.023 0.059 -0.082 0.086 c -0.168 0.043 -0.18 0.02 -0.137 -0.203 c 0.066 -0.324 -0.195 -0.348 -0.316 -0.023 c -0.074 0.188 -0.125 0.215 -0.309 0.168 c -0.602 -0.152 -0.684 -0.141 -1.172 0.117 c -0.578 0.313 -0.547 0.305 -0.617 0.117 m 1.961 -4.535 c -0.027 -0.07 -0.109 -0.129 -0.18 -0.129 c -0.109 0 -0.113 0.023 -0.023 0.129 c 0.059 0.07 0.137 0.129 0.18 0.129 c 0.039 0 0.047 -0.059 0.023 -0.129 m 0.977 -2.684 c -0.18 -0.02 -0.449 -0.02 -0.602 0 c -0.152 0.02 -0.008 0.035 0.324 0.035 c 0.328 -0.004 0.453 -0.02 0.277 -0.035 m -6.531 5.074 c 0.059 -0.023 0.156 -0.023 0.215 0 c 0.059 0.023 0.012 0.043 -0.105 0.043 c -0.121 0 -0.168 -0.02 -0.109 -0.043 m 0.539 -0.027 c -0.078 -0.051 -0.09 -0.086 -0.027 -0.086 c 0.055 0 0.125 0.039 0.156 0.086 c 0.063 0.105 0.035 0.105 -0.129 0 m -0.859 -0.086 c -0.078 -0.051 -0.09 -0.086 -0.027 -0.086 c 0.055 0 0.125 0.039 0.156 0.086 c 0.063 0.105 0.035 0.105 -0.129 0 m 5.379 -0.324 c 0.055 -0.035 0.117 -0.141 0.141 -0.234 c 0.035 -0.133 0.047 -0.117 0.055 0.063 c 0.008 0.172 -0.031 0.238 -0.141 0.234 c -0.094 0 -0.113 -0.023 -0.055 -0.063 m -3.996 -0.207 c -0.004 -0.125 -0.059 -0.25 -0.117 -0.273 c -0.086 -0.031 -0.082 -0.043 0.004 -0.047 c 0.137 -0.012 0.219 0.188 0.164 0.395 c -0.027 0.105 -0.043 0.082 -0.051 -0.074 m 1.891 -0.262 c -0.047 -0.121 -0.109 -0.371 -0.141 -0.551 c -0.109 -0.645 -0.117 -0.656 -0.438 -0.605 l -0.289 0.047 l 0.168 -0.332 c 0.203 -0.398 0.512 -0.645 0.641 -0.512 c 0.051 0.047 0.113 0.457 0.145 0.902 c 0.027 0.449 0.078 0.844 0.113 0.879 c 0.035 0.035 0.16 -0.051 0.273 -0.184 c 0.117 -0.137 0.238 -0.223 0.27 -0.191 c 0.031 0.031 -0.105 0.215 -0.301 0.414 l -0.355 0.355 m -3.789 -0.32 c 0 -0.02 0.066 -0.086 0.148 -0.152 c 0.137 -0.105 0.141 -0.105 0.031 0.031 c -0.109 0.145 -0.18 0.191 -0.18 0.121 m 1.473 -0.141 c 0 -0.117 0.02 -0.168 0.043 -0.109 c 0.023 0.059 0.023 0.156 0 0.215 c -0.023 0.059 -0.043 0.012 -0.043 -0.105 m 3.102 0.035 c 0.078 -0.086 0.164 -0.137 0.188 -0.113 c 0.023 0.023 -0.043 0.094 -0.148 0.156 c -0.18 0.105 -0.184 0.105 -0.039 -0.043 m -4.887 -0.418 c -0.031 -0.078 -0.016 -0.332 0.031 -0.566 c 0.043 -0.23 0.063 -0.445 0.039 -0.469 c -0.027 -0.023 -0.137 0.016 -0.25 0.09 c -0.199 0.129 -0.199 0.129 -0.145 -0.109 c 0.121 -0.496 0.176 -0.555 0.641 -0.715 c 0.617 -0.215 0.613 -0.215 0.547 0.133 c -0.035 0.188 -0.023 0.301 0.031 0.301 c 0.051 0 0.27 -0.137 0.484 -0.301 c 0.219 -0.168 0.414 -0.301 0.438 -0.301 c 0.023 0 0.043 0.117 0.043 0.258 c 0 0.141 0.039 0.258 0.086 0.258 c 0.156 0 0.086 0.188 -0.09 0.234 c -0.098 0.023 -0.242 0.184 -0.32 0.355 l -0.141 0.313 l -0.031 -0.324 c -0.035 -0.375 -0.137 -0.398 -0.574 -0.141 c -0.188 0.109 -0.328 0.27 -0.355 0.41 c -0.145 0.645 -0.316 0.875 -0.434 0.574 m 1.559 -1.336 c 0.027 -0.047 0.012 -0.086 -0.039 -0.086 c -0.051 0 -0.09 0.039 -0.09 0.086 c 0 0.047 0.016 0.086 0.035 0.086 c 0.023 0 0.063 -0.039 0.094 -0.086 m 1.246 1.363 c 0 -0.078 0.055 -0.188 0.129 -0.246 c 0.164 -0.137 0.164 0.004 0 0.219 c -0.105 0.141 -0.125 0.145 -0.129 0.027 m -0.121 -0.848 c 0.059 -0.457 0.012 -0.516 -0.238 -0.289 c -0.145 0.129 -0.156 0.129 -0.156 0.008 c 0 -0.078 0.031 -0.16 0.074 -0.184 c 0.039 -0.027 0.098 -0.156 0.125 -0.285 c 0.047 -0.242 0.512 -0.586 0.66 -0.496 c 0.043 0.027 -0.02 0.297 -0.137 0.605 c -0.113 0.309 -0.207 0.672 -0.207 0.813 c 0 0.141 -0.043 0.258 -0.09 0.258 c -0.059 0 -0.07 -0.156 -0.031 -0.43 m -7.01 -0.473 c 0 -0.117 -0.043 -0.215 -0.094 -0.215 c -0.102 0 0.398 -0.441 1.176 -1.039 c 0.41 -0.316 0.535 -0.469 0.625 -0.773 c 0.199 -0.676 0.613 -1.422 1.012 -1.809 l 0.383 -0.375 l -0.379 0.57 c -0.211 0.316 -0.523 0.934 -0.695 1.375 c -0.281 0.727 -0.348 0.828 -0.695 1.047 c -0.504 0.32 -1.246 0.988 -1.246 1.125 c 0 0.063 0.086 0.152 0.191 0.203 c 0.191 0.09 0.191 0.094 -0.043 0.098 c -0.195 0.008 -0.234 -0.031 -0.234 -0.207 m 1.59 -1.504 c 0.086 -0.094 0.137 -0.172 0.109 -0.172 c -0.023 0 -0.109 0.078 -0.195 0.172 c -0.086 0.094 -0.137 0.172 -0.113 0.172 c 0.023 0 0.113 -0.078 0.199 -0.172 m 11.797 -0.559 c 0.039 -0.32 0.191 -0.422 0.191 -0.129 c 0 0.094 0.043 0.172 0.094 0.172 c 0.055 0 0.07 -0.063 0.039 -0.152 c -0.047 -0.121 -0.039 -0.129 0.055 -0.035 c 0.094 0.09 0.074 0.141 -0.102 0.277 c -0.293 0.223 -0.316 0.211 -0.277 -0.133 m -3.09 -1.699 c -0.395 -0.293 -0.816 -0.605 -0.934 -0.688 c -0.211 -0.152 -0.211 -0.152 0.059 -0.023 c 0.273 0.129 1.664 1.145 1.664 1.215 c 0 0.074 -0.082 0.023 -0.789 -0.504 m -6.266 -0.563 c 0.051 -0.098 0.137 -0.203 0.188 -0.238 c 0.066 -0.039 0.066 -0.008 0 0.121 c -0.055 0.098 -0.137 0.203 -0.191 0.234 c -0.066 0.043 -0.066 0.008 0.004 -0.117 m 0.176 -0.711 c 0.258 -0.219 1.035 -0.621 1.09 -0.566 c 0.063 0.063 -0.434 0.387 -0.883 0.574 l -0.418 0.172" fill="#9e6966"/><path d="m 7.289 17.559 c -0.098 -0.102 -0.063 -0.434 0.063 -0.535 c 0.16 -0.133 0.398 0.094 0.398 0.383 c 0 0.164 -0.047 0.211 -0.203 0.211 c -0.109 0 -0.227 -0.027 -0.258 -0.059 m 2.316 -0.211 c -0.152 -0.223 -0.184 -0.504 -0.055 -0.504 c 0.047 0 0.145 0.117 0.223 0.266 c 0.176 0.34 0.039 0.531 -0.168 0.238 m 0.941 -0.109 c 0.027 -0.113 0.012 -0.285 -0.043 -0.383 c -0.105 -0.195 0.012 -0.328 0.145 -0.164 c 0.133 0.172 0.176 0.461 0.094 0.609 c -0.121 0.215 -0.254 0.172 -0.195 -0.063 m -0.219 -2.453 c -0.117 -0.09 -0.188 -0.195 -0.152 -0.227 c 0.098 -0.098 0.496 0.113 0.496 0.262 c 0 0.172 -0.086 0.164 -0.344 -0.035 m 2.957 -0.48 c 0.234 -0.176 0.453 -0.176 0.309 0.004 c -0.063 0.07 -0.191 0.125 -0.293 0.125 c -0.18 -0.004 -0.18 -0.004 -0.016 -0.129 m -6.934 -0.125 c -0.098 -0.113 -0.254 -0.172 -0.449 -0.172 c -0.344 0 -0.363 -0.051 -0.137 -0.324 c 0.199 -0.238 0.363 -0.246 0.5 -0.02 c 0.059 0.094 0.188 0.172 0.281 0.172 c 0.195 0 0.219 0.156 0.063 0.371 c -0.102 0.137 -0.117 0.137 -0.258 -0.027 m 8.445 0.012 c 0 -0.039 0.152 -0.238 0.344 -0.441 c 0.188 -0.207 0.344 -0.406 0.344 -0.445 c 0 -0.039 0.055 -0.07 0.129 -0.07 c 0.09 0 0.129 0.09 0.129 0.301 c 0 0.379 0.191 0.402 0.344 0.043 c 0.113 -0.281 0.293 -0.34 0.375 -0.125 c 0.07 0.184 -0.023 0.336 -0.375 0.594 c -0.375 0.277 -0.516 0.273 -0.516 -0.004 c 0 -0.18 -0.039 -0.215 -0.195 -0.191 c -0.105 0.012 -0.23 0.113 -0.277 0.219 c -0.082 0.184 -0.301 0.273 -0.301 0.121 m -9.938 -0.305 c -0.051 -0.141 0.109 -0.797 0.215 -0.863 c 0.039 -0.023 0.094 0.121 0.125 0.324 c 0.027 0.199 0.074 0.43 0.105 0.512 c 0.043 0.117 0.008 0.148 -0.172 0.148 c -0.125 0 -0.246 -0.055 -0.273 -0.121 m 12.09 -0.902 c 0 -0.188 0.035 -0.367 0.086 -0.395 c 0.051 -0.035 0.086 0.082 0.086 0.289 c 0 0.188 -0.039 0.367 -0.086 0.398 c -0.055 0.031 -0.086 -0.086 -0.086 -0.293 m -7.734 -0.691 c -0.074 -0.039 -0.242 -0.117 -0.379 -0.172 c -0.219 -0.086 -0.238 -0.129 -0.191 -0.375 c 0.07 -0.332 0.254 -0.527 0.656 -0.691 c 0.383 -0.152 0.859 -0.043 0.859 0.199 c 0 0.09 0.074 0.188 0.172 0.215 c 0.203 0.066 0.23 0.434 0.051 0.695 c -0.094 0.133 -0.23 0.176 -0.582 0.184 c -0.254 0.008 -0.516 -0.016 -0.586 -0.055 m 4.125 -0.031 c -0.176 -0.09 -0.215 -0.172 -0.207 -0.43 c 0.012 -0.41 0.129 -0.535 0.645 -0.707 c 0.336 -0.113 0.453 -0.121 0.551 -0.039 c 0.164 0.137 0.164 0.258 0 0.258 c -0.074 0 -0.129 0.035 -0.129 0.082 c 0 0.047 0.086 0.078 0.191 0.066 c 0.152 -0.016 0.199 0.027 0.223 0.215 c 0.02 0.18 -0.012 0.238 -0.129 0.238 c -0.086 0 -0.25 0.098 -0.359 0.215 c -0.227 0.234 -0.465 0.266 -0.785 0.102 m 1.461 -2.25 c -0.09 -0.105 -0.086 -0.129 0.023 -0.129 c 0.07 0 0.152 0.055 0.18 0.129 c 0.027 0.07 0.016 0.129 -0.023 0.129 c -0.043 0 -0.121 -0.059 -0.18 -0.129 m -10.957 -0.387 c -0.063 -0.102 0.016 -0.258 0.133 -0.258 c 0.043 0 0.082 0.074 0.082 0.172 c 0 0.18 -0.125 0.23 -0.215 0.086 m 5.973 -0.086 c 0 -0.051 0.039 -0.086 0.09 -0.086 c 0.051 0 0.066 0.035 0.039 0.086 c -0.031 0.047 -0.07 0.086 -0.094 0.086 c -0.02 0 -0.035 -0.039 -0.035 -0.086 m -4.254 -1.461 c 0.082 -0.098 0.172 -0.172 0.195 -0.172 c 0.023 0 -0.027 0.074 -0.109 0.172 c -0.086 0.094 -0.176 0.172 -0.199 0.172 c -0.023 0 0.027 -0.078 0.113 -0.172 m 12.07 -0.652 c 0 -0.074 0.035 -0.109 0.086 -0.078 c 0.047 0.027 0.086 0.086 0.086 0.133 c 0 0.043 -0.039 0.082 -0.086 0.082 c -0.051 0 -0.086 -0.063 -0.086 -0.137 m -2.258 -0.098 c 0.152 -0.02 0.422 -0.02 0.602 -0.004 c 0.176 0.02 0.051 0.035 -0.277 0.035 c -0.332 0 -0.477 -0.012 -0.324 -0.031" fill="#67585b"/></svg>