<svg xmlns="http://www.w3.org/2000/svg" viewBox="0 0 22 22"><path d="m 2.293 5.137 c -7.258 8.184 4.191 20.781 13.773 15.688 c 9.688 -5.148 7.105 -22.19 -4.793 -20.738 c -3.539 0.434 -6.613 2.383 -8.98 5.05" fill="#535a9c"/><path d="m 5.277 16.477 c -0.152 -0.281 -0.148 -10.789 0.004 -11.07 c 0.113 -0.203 0.297 -0.207 5.832 -0.207 c 4.297 0 5.746 0.031 5.848 0.129 c 0.102 0.098 0.133 1.48 0.133 5.574 c 0 4.766 -0.02 5.469 -0.172 5.613 c -0.148 0.145 -0.875 0.164 -5.852 0.16 c -5.422 -0.008 -5.687 -0.016 -5.793 -0.207" fill="#e8ab0a"/><path d="m 5.281 16.48 c -0.156 -0.285 -0.156 -10.785 0 -11.07 c 0.113 -0.203 0.297 -0.207 5.832 -0.207 c 4.297 0 5.746 0.031 5.848 0.129 c 0.102 0.098 0.133 1.48 0.133 5.574 c 0 4.809 -0.02 5.465 -0.176 5.613 c -0.148 0.148 -0.598 0.172 -3.195 0.172 c -2.477 0 -2.988 -0.027 -2.832 -0.137 c 0.16 -0.113 0.191 -0.277 0.16 -0.941 l -0.031 -0.801 l -0.77 -0.035 c -0.543 -0.02 -0.797 0.012 -0.863 0.109 c -0.168 0.258 -0.109 1.453 0.082 1.633 c 0.156 0.156 -0.02 0.172 -1.949 0.172 c -1.984 0 -2.129 -0.016 -2.238 -0.207 m 3.813 -1.066 l 0.031 -0.82 h 2.117 l 0.055 0.859 l 0.059 0.855 l 0.754 0.035 l 0.754 0.031 l -0.031 -1.695 l -0.027 -1.699 l -1.734 0.039 c -1.391 0.031 -1.754 0.012 -1.859 -0.109 c -0.074 -0.086 -0.148 -0.512 -0.164 -0.953 l -0.035 -0.801 l -0.867 -0.031 c -0.813 -0.027 -0.875 -0.047 -0.977 -0.301 c -0.121 -0.305 -0.125 -1.141 -0.008 -1.547 c 0.074 -0.25 0.137 -0.27 0.965 -0.32 l 0.887 -0.055 l 0.035 -0.836 c 0.027 -0.781 0.051 -0.844 0.313 -0.941 c 0.363 -0.133 1.285 -0.133 1.652 0.004 l 0.285 0.105 l 0.004 1.637 c 0 0.902 0.047 1.711 0.102 1.797 c 0.086 0.125 0.402 0.148 1.699 0.125 c 0.879 -0.016 1.621 -0.055 1.652 -0.082 c 0.031 -0.031 0.082 -0.426 0.109 -0.879 l 0.059 -0.824 l 0.891 -0.051 l 0.891 -0.055 l 0.035 -0.727 l 0.031 -0.723 l -1.762 -0.004 c -0.965 0 -1.836 -0.047 -1.926 -0.102 c -0.117 -0.07 -0.184 -0.355 -0.223 -0.938 l -0.055 -0.836 l -3.5 -0.027 c -2.488 -0.02 -3.543 0.004 -3.652 0.094 c -0.121 0.098 -0.152 0.895 -0.152 4.301 c 0 2.676 0.043 4.258 0.117 4.391 c 0.098 0.172 0.238 0.207 0.887 0.207 c 0.93 0 1 0.082 1 1.113 v 0.699 l 0.641 0.035 c 0.352 0.016 0.703 -0.012 0.777 -0.059 c 0.078 -0.055 0.148 -0.426 0.168 -0.914 m 7.492 -0.941 c 0.133 -0.051 0.176 -0.223 0.176 -0.75 v -0.688 h -1.563 v 0.68 c 0 0.375 0.035 0.711 0.074 0.754 c 0.094 0.086 1.074 0.094 1.312 0.004" fill="#e47303"/><path d="m 5.281 16.48 c -0.156 -0.285 -0.156 -10.785 0 -11.07 c 0.113 -0.203 0.297 -0.207 5.832 -0.207 c 4.297 0 5.746 0.031 5.848 0.129 c 0.102 0.098 0.133 1.48 0.133 5.574 c 0 4.809 -0.02 5.465 -0.176 5.613 c -0.148 0.148 -0.598 0.172 -3.195 0.172 c -2.477 0 -2.988 -0.027 -2.832 -0.137 c 0.16 -0.113 0.191 -0.277 0.16 -0.941 l -0.031 -0.801 l -0.77 -0.035 c -0.543 -0.02 -0.797 0.012 -0.863 0.109 c -0.168 0.258 -0.109 1.453 0.082 1.633 c 0.156 0.156 -0.02 0.172 -1.949 0.172 c -1.984 0 -2.129 -0.016 -2.238 -0.207 m 9.582 -0.109 c 0.172 -0.313 0.145 -1.352 -0.043 -1.504 c -0.094 -0.074 -0.441 -0.113 -0.863 -0.094 l -0.707 0.035 l -0.035 0.734 c -0.039 0.934 0.047 1.035 0.879 1.035 c 0.531 0 0.676 -0.039 0.77 -0.207 m -5.77 -0.957 l 0.031 -0.82 h 2.117 l 0.055 0.859 l 0.059 0.855 l 0.754 0.035 l 0.754 0.031 l -0.027 -1.695 l -0.031 -1.699 l -1.734 0.039 c -1.391 0.031 -1.754 0.012 -1.859 -0.109 c -0.074 -0.086 -0.145 -0.512 -0.164 -0.953 l -0.035 -0.801 l -0.867 -0.031 c -0.813 -0.027 -0.875 -0.047 -0.977 -0.301 c -0.117 -0.305 -0.121 -1.141 -0.008 -1.547 c 0.074 -0.25 0.137 -0.27 0.965 -0.32 l 0.887 -0.055 l 0.035 -0.836 c 0.031 -0.781 0.051 -0.844 0.313 -0.941 c 0.363 -0.133 1.289 -0.133 1.652 0.004 l 0.285 0.105 l 0.004 1.637 c 0 0.902 0.047 1.711 0.102 1.797 c 0.086 0.125 0.402 0.148 1.699 0.125 c 0.879 -0.016 1.621 -0.055 1.652 -0.082 c 0.031 -0.031 0.082 -0.426 0.113 -0.879 l 0.055 -0.824 l 0.891 -0.051 l 0.895 -0.055 l 0.031 -0.727 l 0.031 -0.723 l -1.758 -0.004 c -0.969 0 -1.836 -0.047 -1.93 -0.102 c -0.117 -0.07 -0.184 -0.355 -0.223 -0.938 l -0.055 -0.836 l -3.5 -0.027 c -2.488 -0.02 -3.543 0.004 -3.648 0.094 c -0.125 0.098 -0.152 0.895 -0.152 4.301 c 0 2.676 0.039 4.258 0.113 4.391 c 0.098 0.172 0.238 0.207 0.887 0.207 c 0.93 0 1 0.082 1 1.113 v 0.699 l 0.641 0.035 c 0.355 0.016 0.703 -0.012 0.777 -0.059 c 0.078 -0.055 0.148 -0.426 0.168 -0.914 m 7.492 -0.941 c 0.133 -0.051 0.176 -0.223 0.176 -0.75 v -0.688 h -1.563 v 0.68 c 0 0.375 0.035 0.711 0.074 0.754 c 0.094 0.086 1.074 0.094 1.312 0.004 m -5.531 -2.398 c 0.063 -1.031 0.023 -1.078 -0.863 -1.078 h -0.77 l -0.043 0.672 c -0.063 0.988 0 1.063 0.895 1.023 l 0.746 -0.031 m -2.02 -1.836 c 0.137 -0.051 0.176 -0.23 0.176 -0.797 v -0.73 l -0.676 -0.035 c -1.023 -0.055 -1.105 0 -1.105 0.742 c 0 0.344 0.059 0.684 0.133 0.754 c 0.137 0.137 1.164 0.18 1.473 0.066 m 2 -1.93 c 0.133 -0.332 0.07 -1.305 -0.09 -1.434 c -0.094 -0.074 -0.426 -0.113 -0.809 -0.094 l -0.648 0.031 l -0.035 0.832 l -0.031 0.832 h 0.773 c 0.602 0 0.789 -0.035 0.84 -0.168 m 3.902 -1.934 c 0.117 -0.297 0.074 -1.285 -0.066 -1.418 c -0.172 -0.168 -1.344 -0.168 -1.516 0 c -0.141 0.133 -0.191 1.391 -0.059 1.516 c 0.039 0.039 0.41 0.07 0.824 0.07 c 0.578 0 0.766 -0.035 0.816 -0.168" fill="#535a9c"/><path d="m 5.418 16.457 c -0.137 -0.129 -0.199 -1.426 -0.082 -1.719 c 0.043 -0.109 0.273 -0.129 0.977 -0.086 l 0.918 0.051 v 1.824 l -0.84 0.031 c -0.555 0.023 -0.883 -0.012 -0.973 -0.102 m 3.836 0.055 c -0.039 -0.039 -0.074 -0.449 -0.074 -0.91 c 0 -0.977 0.012 -0.984 1.23 -0.93 l 0.723 0.031 l 0.031 0.852 c 0.02 0.465 -0.008 0.887 -0.055 0.934 c -0.051 0.047 -0.09 -0.313 -0.09 -0.797 v -0.879 l -0.805 -0.031 c -0.785 -0.031 -0.809 -0.023 -0.879 0.246 c -0.039 0.152 -0.051 0.563 -0.023 0.914 c 0.027 0.355 0.043 0.641 0.031 0.641 c -0.008 0 -0.047 -0.031 -0.09 -0.07 m 3.77 -0.168 c -0.031 -0.133 -0.055 -0.918 -0.047 -1.746 c 0.008 -0.828 -0.02 -1.957 -0.063 -2.512 c -0.055 -0.781 -0.039 -1.031 0.074 -1.098 c 0.082 -0.051 0.539 -0.094 1.012 -0.094 c 0.984 0 0.953 0.035 1 -1.129 l 0.027 -0.645 h 1.898 l 0.027 1.766 c 0.023 1.145 -0.008 1.801 -0.086 1.875 c -0.066 0.066 -0.422 0.102 -0.816 0.082 c -0.898 -0.047 -0.988 0.051 -0.945 1.02 l 0.035 0.734 l 0.832 0.031 c 0.492 0.02 0.867 0.086 0.918 0.16 c 0.047 0.07 0.086 0.43 0.086 0.793 c 0.004 0.918 -0.105 1 -1.289 1 c -0.898 0 -0.938 -0.008 -0.828 -0.207 c 0.172 -0.313 0.145 -1.352 -0.043 -1.5 c -0.094 -0.078 -0.441 -0.113 -0.863 -0.094 l -0.707 0.031 l -0.035 0.734 c -0.02 0.449 0.02 0.793 0.098 0.887 c 0.105 0.117 0.094 0.148 -0.047 0.148 c -0.098 0 -0.207 -0.105 -0.242 -0.238 m -3.648 -3.527 c -0.156 -0.086 -0.195 -0.258 -0.195 -0.84 c 0 -0.469 -0.051 -0.777 -0.145 -0.852 c -0.078 -0.063 -0.492 -0.129 -0.918 -0.145 l -0.777 -0.035 v -1.824 l 0.801 -0.031 c 0.465 -0.016 0.844 -0.086 0.914 -0.164 c 0.063 -0.074 0.129 -0.473 0.148 -0.883 l 0.031 -0.746 h 1.898 l 0.07 1.824 c 0.043 1 0.094 2.23 0.113 2.727 c 0.035 0.855 0.027 0.902 -0.219 0.992 c -0.352 0.125 -1.48 0.113 -1.723 -0.023 m 1.68 -0.734 c 0.059 -1.035 0.023 -1.082 -0.863 -1.082 h -0.77 l -0.043 0.672 c -0.063 0.992 0 1.063 0.895 1.023 l 0.746 -0.031 m -2.02 -1.836 c 0.137 -0.051 0.176 -0.227 0.176 -0.797 v -0.73 l -0.676 -0.035 c -1.023 -0.055 -1.105 0 -1.105 0.742 c 0 0.348 0.059 0.688 0.133 0.758 c 0.137 0.133 1.164 0.176 1.473 0.063 m 2 -1.93 c 0.133 -0.332 0.07 -1.305 -0.09 -1.434 c -0.094 -0.074 -0.426 -0.113 -0.809 -0.094 l -0.648 0.031 l -0.035 0.832 l -0.031 0.832 h 0.773 c 0.602 0 0.789 -0.035 0.84 -0.168 m 2.141 -1.715 c -0.148 -0.141 -0.18 -0.348 -0.156 -1 l 0.035 -0.82 l 1.824 -0.027 c 1.25 -0.023 1.871 0.008 1.977 0.094 c 0.18 0.141 0.223 1.652 0.055 1.754 c -0.055 0.031 -0.879 0.086 -1.824 0.121 c -1.516 0.051 -1.746 0.039 -1.91 -0.121 m 1.762 -0.219 c 0.117 -0.297 0.07 -1.285 -0.066 -1.418 c -0.176 -0.168 -1.344 -0.168 -1.516 0 c -0.141 0.137 -0.191 1.391 -0.059 1.516 c 0.039 0.039 0.41 0.074 0.824 0.074 c 0.578 0 0.762 -0.039 0.816 -0.172" fill="#13d212"/><path d="m 5.414 16.453 c -0.133 -0.125 -0.191 -1.426 -0.078 -1.715 c 0.043 -0.105 0.277 -0.133 0.922 -0.105 c 1.164 0.047 1.242 0.18 0.102 0.18 h -0.914 l -0.031 0.746 c -0.027 0.613 0 0.777 0.16 0.887 c 0.105 0.074 0.145 0.137 0.082 0.137 c -0.059 0 -0.168 -0.059 -0.242 -0.129 m 1.539 0.086 c 0 -0.02 0.078 -0.07 0.172 -0.105 c 0.098 -0.035 0.145 -0.016 0.105 0.043 c -0.066 0.102 -0.277 0.152 -0.277 0.063 m 2.301 -0.027 c -0.039 -0.039 -0.074 -0.449 -0.074 -0.91 c 0 -0.977 0.012 -0.984 1.23 -0.93 l 0.723 0.031 l 0.031 0.852 c 0.02 0.465 -0.008 0.887 -0.055 0.934 c -0.051 0.047 -0.09 -0.313 -0.09 -0.797 v -0.879 l -0.805 -0.031 c -0.781 -0.031 -0.805 -0.023 -0.875 0.246 c -0.043 0.152 -0.051 0.563 -0.027 0.914 c 0.027 0.352 0.043 0.641 0.035 0.641 c -0.012 0 -0.051 -0.031 -0.094 -0.07 m 3.785 -0.098 c -0.09 -0.223 -0.086 -1.32 0.004 -1.75 c 0.059 -0.285 0.09 -0.313 0.195 -0.172 c 0.102 0.133 0.301 0.164 0.906 0.137 l 0.777 -0.031 v -1.609 l -0.824 -0.035 c -0.586 -0.02 -0.855 0.012 -0.922 0.109 c -0.184 0.277 -0.313 -0.172 -0.313 -1.109 c -0.004 -1.086 -0.031 -1.059 1.176 -1.059 c 0.941 0 0.914 0.031 0.965 -1.129 l 0.031 -0.645 h 1.895 l 0.031 1.113 c 0.027 1.031 0.02 1.098 -0.152 0.934 c -0.141 -0.137 -0.355 -0.168 -0.926 -0.145 l -0.738 0.031 l -0.031 0.797 c -0.023 0.543 0.008 0.82 0.102 0.875 c 0.109 0.066 0.109 0.117 0 0.242 c -0.086 0.102 -0.125 0.426 -0.102 0.895 l 0.031 0.734 l 0.891 0.059 l 0.895 0.063 l -0.91 0.02 c -0.613 0.012 -0.926 0.063 -0.957 0.152 c -0.039 0.109 -0.086 0.105 -0.223 -0.004 c -0.117 -0.09 -0.422 -0.129 -0.883 -0.105 l -0.707 0.031 l -0.035 0.734 c -0.02 0.449 0.02 0.793 0.098 0.887 c 0.105 0.117 0.094 0.148 -0.035 0.148 c -0.094 0 -0.203 -0.074 -0.238 -0.168 m 1.785 0.008 c 0.035 -0.09 0.09 -0.16 0.117 -0.16 c 0.027 0 0.129 0.07 0.219 0.16 c 0.148 0.145 0.137 0.16 -0.117 0.16 c -0.203 0 -0.266 -0.043 -0.219 -0.16 m -5.449 -3.605 c -0.156 -0.086 -0.195 -0.258 -0.195 -0.844 c 0 -0.465 -0.051 -0.773 -0.145 -0.848 c -0.078 -0.063 -0.492 -0.129 -0.918 -0.145 l -0.777 -0.035 v -1.824 l 0.801 -0.031 c 0.465 -0.02 0.848 -0.086 0.914 -0.164 c 0.063 -0.074 0.129 -0.473 0.148 -0.883 l 0.035 -0.746 h 1.895 l 0.074 1.824 c 0.039 1 0.09 2.23 0.109 2.723 c 0.035 0.859 0.027 0.906 -0.219 0.996 c -0.352 0.125 -1.48 0.113 -1.723 -0.023 m 1.68 -0.738 c 0.063 -1.031 0.023 -1.078 -0.863 -1.078 h -0.766 l -0.047 0.672 c -0.063 0.992 0 1.063 0.895 1.023 l 0.746 -0.031 l 0.035 -0.582 m -2.051 -1.254 c 0.137 -0.051 0.176 -0.23 0.176 -0.797 v -0.73 l -0.676 -0.035 c -1.023 -0.055 -1.105 0 -1.105 0.742 c 0 0.348 0.059 0.688 0.133 0.758 c 0.141 0.133 1.164 0.176 1.473 0.063 m 2 -1.93 c 0.133 -0.332 0.07 -1.305 -0.09 -1.434 c -0.094 -0.074 -0.426 -0.113 -0.809 -0.094 l -0.648 0.031 l -0.035 0.832 l -0.031 0.832 h 0.773 c 0.602 0 0.789 -0.035 0.84 -0.168 m 5.707 3.832 c 0.117 -0.109 0.234 -0.184 0.258 -0.16 c 0.07 0.059 -0.227 0.363 -0.355 0.363 c -0.066 0 -0.02 -0.09 0.098 -0.203 m -3.574 -5.555 c -0.141 -0.133 -0.172 -0.352 -0.145 -0.992 l 0.031 -0.82 l 1.824 -0.027 c 1.805 -0.031 2.137 0.023 2.129 0.336 c 0 0.066 -0.055 0.035 -0.117 -0.066 c -0.156 -0.258 -1.602 -0.277 -1.75 -0.02 c -0.086 0.152 -0.109 0.152 -0.242 0 c -0.191 -0.223 -1.371 -0.234 -1.559 -0.016 c -0.078 0.09 -0.117 0.422 -0.098 0.832 l 0.035 0.68 l 0.77 0.031 c 0.543 0.023 0.801 -0.008 0.863 -0.105 c 0.078 -0.113 0.113 -0.109 0.199 0.016 c 0.18 0.27 0.02 0.328 -0.883 0.328 c -0.66 0 -0.922 -0.043 -1.059 -0.176 m 3.633 -0.008 c 0.082 -0.133 0.172 -0.215 0.199 -0.188 c 0.031 0.031 -0.035 0.137 -0.148 0.238 c -0.191 0.176 -0.191 0.176 -0.051 -0.051" fill="#eb0302"/></svg>