
<svg xmlns="http://www.w3.org/2000/svg" xmlns:xlink="http://www.w3.org/1999/xlink" width="22px" height="22px" viewBox="0 0 22 22" version="1.1">
<g id="surface1">
<path style=" stroke:none;fill-rule:nonzero;fill:rgb(65.882353%,65.882353%,65.882353%);fill-opacity:1;" d="M 10.804688 0.363281 C 1.1875 -1.542969 -2.464844 11.527344 1.703125 18.625 C 5.023438 24.277344 16.398438 22.664062 20.640625 15.027344 C 24.882812 7.394531 18.523438 1.890625 10.804688 0.363281 Z M 10.804688 0.363281 "/>
<path style="fill-rule:nonzero;fill:rgb(63.921569%,63.921569%,63.921569%);fill-opacity:1;stroke-width:0.976;stroke-linecap:butt;stroke-linejoin:miter;stroke:rgb(25.098039%,25.098039%,25.098039%);stroke-opacity:1;stroke-miterlimit:4;" d="M 4.557724 -43.51269 L 43.514467 -43.51269 L 43.514467 -4.551726 L 4.557724 -4.551726 Z M 4.557724 -43.51269 " transform="matrix(0.309137,0,0,-0.296471,2.82932,4.088047)"/>
<path style=" stroke:none;fill-rule:nonzero;fill:rgb(24.705882%,24.705882%,24.705882%);fill-opacity:1;" d="M 8.414062 5.296875 L 8.414062 9.476562 L 4.058594 9.476562 L 4.058594 9.582031 L 8.414062 9.582031 L 8.414062 12.855469 L 4.058594 12.855469 L 4.058594 12.960938 L 8.414062 12.960938 L 8.414062 17.136719 L 8.523438 17.136719 L 8.523438 12.960938 L 11.9375 12.960938 L 11.9375 17.136719 L 12.050781 17.136719 L 12.050781 12.960938 L 16.402344 12.960938 L 16.402344 12.855469 L 12.050781 12.855469 L 12.050781 9.582031 L 16.402344 9.582031 L 16.402344 9.476562 L 12.050781 9.476562 L 12.050781 5.296875 L 11.9375 5.296875 L 11.9375 9.476562 L 8.523438 9.476562 L 8.523438 5.296875 Z M 8.523438 9.578125 L 11.9375 9.578125 L 11.9375 12.855469 L 8.523438 12.855469 Z M 8.523438 9.578125 "/>
<path style="fill-rule:evenodd;fill:rgb(25.098039%,25.098039%,25.098039%);fill-opacity:1;stroke-width:1;stroke-linecap:butt;stroke-linejoin:miter;stroke:rgb(75.294118%,75.294118%,75.294118%);stroke-opacity:1;stroke-miterlimit:4;" d="M 92.213989 180.599676 C 92.213989 188.690544 85.623041 195.235965 77.577538 195.235965 C 69.48658 195.235965 62.895631 188.690544 62.895631 180.599676 C 62.895631 172.508808 69.48658 165.963387 77.577538 165.963387 C 85.623041 165.963387 92.213989 172.508808 92.213989 180.599676 Z M 92.213989 180.599676 " transform="matrix(0.085937,0,0,0.0859379,-0.186311,-0.559427)"/>
</g>
</svg>
