<svg xmlns="http://www.w3.org/2000/svg" viewBox="0 0 22 22"><path d="m 0.195 10.977 c -1.652 -14.586 22 -14.387 21.723 0.258 c 0.781 13.621 -23.01 14.852 -21.723 -0.258" fill="#707f8f"/><path d="m 10.176 18.707 c -0.176 -0.188 -0.184 -0.227 -0.184 -0.762 v -0.566 l -0.406 -0.367 c -0.223 -0.207 -0.422 -0.391 -0.438 -0.41 c -0.016 -0.023 -0.125 -0.117 -0.238 -0.215 c -0.207 -0.172 -0.215 -0.176 -1.168 -0.176 h -0.961 l -0.098 0.211 c -0.23 0.508 -0.93 0.711 -1.348 0.398 c -0.723 -0.547 -0.727 -1.125 -0.012 -1.73 l 0.203 -0.172 v -1.746 l -0.516 -0.516 c -0.809 -0.801 -0.762 -0.77 -0.93 -0.648 c -0.207 0.152 -0.488 0.125 -0.77 -0.066 c -0.441 -0.305 -0.469 -0.352 -0.469 -0.891 c 0 -0.484 0.004 -0.492 0.234 -0.707 c 0.238 -0.219 0.395 -0.258 0.891 -0.227 c 0.203 0.012 0.281 -0.043 0.844 -0.582 c 0.344 -0.324 0.641 -0.648 0.66 -0.723 c 0.02 -0.07 0.043 -0.453 0.051 -0.848 c 0.012 -0.645 0 -0.727 -0.109 -0.82 c -0.609 -0.531 -0.633 -0.566 -0.633 -1 c 0 -0.391 0.008 -0.422 0.23 -0.641 c 0.484 -0.473 1.047 -0.461 1.539 0.031 l 0.258 0.258 l 0.934 -0.016 l 0.938 -0.02 l 0.344 -0.293 c 0.188 -0.164 0.387 -0.34 0.441 -0.395 c 0.055 -0.055 0.18 -0.172 0.281 -0.262 c 0.273 -0.234 0.289 -0.289 0.184 -0.547 c -0.125 -0.309 -0.121 -0.434 0.023 -0.719 c 0.219 -0.438 0.379 -0.527 0.945 -0.527 c 0.555 0 0.598 0.023 0.895 0.48 c 0.199 0.309 0.207 0.484 0.027 0.809 l -0.137 0.25 l 0.309 0.305 c 0.172 0.168 0.473 0.441 0.676 0.609 l 0.363 0.301 h 1.844 l 0.16 -0.215 c 0.102 -0.133 0.293 -0.27 0.512 -0.359 c 0.344 -0.145 0.352 -0.145 0.609 -0.031 c 0.363 0.164 0.586 0.387 0.707 0.715 c 0.102 0.27 0.102 0.285 -0.047 0.582 c -0.09 0.176 -0.25 0.371 -0.383 0.457 l -0.23 0.156 l 0.004 0.84 c 0 0.461 0.023 0.883 0.047 0.938 c 0.023 0.055 0.32 0.363 0.664 0.688 l 0.625 0.586 h 0.441 c 0.414 0.004 0.449 0.016 0.641 0.215 c 0.188 0.203 0.199 0.234 0.195 0.719 c 0 0.563 -0.031 0.625 -0.402 0.883 c -0.285 0.199 -0.531 0.219 -0.785 0.066 l -0.176 -0.109 l -0.582 0.57 c -0.32 0.316 -0.598 0.617 -0.621 0.668 c -0.023 0.055 -0.047 0.477 -0.047 0.934 l -0.004 0.836 l 0.242 0.246 c 0.133 0.133 0.289 0.355 0.352 0.488 c 0.102 0.234 0.102 0.262 0 0.523 c -0.133 0.344 -0.25 0.48 -0.547 0.637 c -0.449 0.234 -0.922 0.098 -1.266 -0.363 l -0.164 -0.223 h -1.797 l -0.621 0.563 c -0.641 0.574 -0.711 0.703 -0.535 0.941 c 0.105 0.145 0.117 0.5 0.02 0.695 c -0.039 0.078 -0.141 0.219 -0.23 0.316 c -0.152 0.168 -0.188 0.176 -0.73 0.176 c -0.555 0 -0.574 -0.004 -0.75 -0.195 m 0.953 -1.988 c 0.23 -0.418 0.176 -0.52 -0.277 -0.496 c -0.313 0.02 -0.363 0.039 -0.379 0.156 c -0.012 0.074 0.023 0.184 0.074 0.234 c 0.055 0.055 0.125 0.176 0.16 0.27 c 0.09 0.238 0.23 0.184 0.422 -0.164 m -1.105 -0.109 c 0 -0.172 -0.133 -0.32 -0.328 -0.371 c -0.223 -0.055 -0.219 0.016 0.027 0.273 c 0.227 0.242 0.301 0.266 0.301 0.098 m 1.977 -0.09 c 0.25 -0.25 0.262 -0.336 0.035 -0.277 c -0.238 0.063 -0.328 0.152 -0.328 0.328 c 0 0.203 0.047 0.195 0.293 -0.051 m -3.852 -0.816 c 0 -0.121 -0.238 -0.262 -0.453 -0.262 c -0.238 0 -0.605 0.168 -0.605 0.273 c 0 0.031 0.238 0.047 0.531 0.035 c 0.289 -0.008 0.527 -0.031 0.527 -0.047 m 3.418 -0.125 c 0.074 -0.059 0.156 -0.195 0.176 -0.309 c 0.023 -0.113 0.078 -0.242 0.129 -0.281 c 0.203 -0.176 0.012 -0.57 -0.277 -0.57 c -0.086 0 -0.207 -0.047 -0.27 -0.105 c -0.168 -0.156 -0.746 -0.188 -0.848 -0.051 c -0.043 0.063 -0.18 0.129 -0.305 0.148 c -0.148 0.027 -0.273 0.102 -0.359 0.215 l -0.125 0.176 l 0.129 0.145 c 0.07 0.078 0.148 0.23 0.172 0.336 c 0.023 0.105 0.098 0.254 0.168 0.328 c 0.113 0.125 0.168 0.133 0.695 0.105 c 0.383 -0.023 0.621 -0.07 0.715 -0.137 m -2.059 -0.086 c -0.105 -0.328 -0.105 -0.332 -0.168 -0.434 c -0.031 -0.055 -0.074 -0.152 -0.094 -0.219 c -0.035 -0.109 -0.047 -0.113 -0.152 -0.016 c -0.059 0.059 -0.176 0.105 -0.258 0.105 c -0.164 0 -0.375 0.168 -0.375 0.297 c 0 0.047 0.082 0.129 0.18 0.18 c 0.102 0.051 0.195 0.141 0.219 0.195 c 0.027 0.07 0.129 0.098 0.375 0.098 h 0.34 m 3.43 -0.199 c 0.145 -0.109 0.266 -0.234 0.266 -0.285 c 0 -0.113 -0.246 -0.285 -0.414 -0.285 c -0.074 0 -0.168 -0.043 -0.211 -0.098 c -0.105 -0.129 -0.188 -0.117 -0.188 0.023 c 0 0.066 -0.059 0.195 -0.125 0.285 c -0.07 0.09 -0.125 0.25 -0.125 0.359 c 0 0.191 0.008 0.199 0.27 0.199 c 0.199 0 0.332 -0.051 0.527 -0.199 m 1.457 0.07 c -0.238 -0.207 -0.82 -0.152 -0.82 0.078 c 0 0.027 0.219 0.051 0.484 0.047 h 0.484 m -7.555 -0.57 c 0.059 -0.066 0.168 -0.133 0.242 -0.145 c 0.121 -0.016 0.105 -0.051 -0.156 -0.324 c -0.164 -0.168 -0.32 -0.305 -0.355 -0.305 c -0.18 0 -0.414 0.719 -0.277 0.855 c 0.086 0.094 0.441 0.039 0.547 -0.082 m 8.133 -0.051 c 0.109 -0.148 0.094 -0.27 -0.074 -0.551 l -0.148 -0.246 l -0.285 0.285 c -0.289 0.281 -0.359 0.43 -0.203 0.43 c 0.043 0 0.133 0.063 0.199 0.133 c 0.133 0.152 0.379 0.125 0.512 -0.051 m -6.898 -0.461 c 0.086 -0.07 0.258 -0.137 0.383 -0.152 c 0.301 -0.031 0.371 -0.105 0.297 -0.316 c -0.035 -0.09 -0.094 -0.184 -0.129 -0.207 c -0.035 -0.023 -0.066 -0.121 -0.066 -0.215 c 0 -0.246 -0.285 -0.586 -0.492 -0.586 c -0.094 0 -0.215 -0.059 -0.277 -0.133 c -0.09 -0.105 -0.168 -0.129 -0.434 -0.113 c -0.309 0.02 -0.328 0.031 -0.348 0.211 c -0.012 0.102 -0.074 0.258 -0.141 0.344 c -0.184 0.238 -0.145 0.367 0.203 0.699 c 0.176 0.168 0.371 0.352 0.43 0.41 c 0.219 0.211 0.367 0.223 0.574 0.059 m 5.836 -0.156 c 0.488 -0.43 0.645 -0.641 0.605 -0.809 c -0.02 -0.09 -0.078 -0.207 -0.125 -0.262 c -0.051 -0.055 -0.09 -0.156 -0.09 -0.223 c -0.004 -0.234 -0.098 -0.305 -0.406 -0.293 c -0.184 0.004 -0.352 0.059 -0.449 0.137 c -0.09 0.07 -0.211 0.129 -0.27 0.129 c -0.16 0 -0.434 0.363 -0.434 0.574 c 0 0.098 -0.043 0.215 -0.098 0.262 c -0.059 0.051 -0.09 0.16 -0.078 0.277 c 0.016 0.18 0.039 0.199 0.246 0.207 c 0.133 0.004 0.301 0.063 0.398 0.141 c 0.211 0.172 0.387 0.137 0.699 -0.141 m -7.848 -0.371 c 0 -0.172 -0.113 -0.375 -0.211 -0.375 c -0.082 0 -0.129 0.605 -0.055 0.727 c 0.051 0.09 0.266 -0.195 0.266 -0.352 m 9.449 0.23 c 0.059 -0.156 0.047 -0.594 -0.02 -0.633 c -0.09 -0.059 -0.254 0.152 -0.254 0.324 c 0 0.309 0.191 0.527 0.273 0.309 m -6.04 -0.246 c 0.02 -0.051 0.117 -0.113 0.223 -0.137 c 0.164 -0.035 0.176 -0.055 0.098 -0.133 c -0.047 -0.051 -0.199 -0.109 -0.332 -0.133 c -0.137 -0.023 -0.277 -0.082 -0.316 -0.137 c -0.051 -0.074 -0.078 -0.078 -0.113 -0.016 c -0.031 0.047 0.004 0.156 0.082 0.266 c 0.074 0.102 0.133 0.227 0.133 0.281 c 0 0.125 0.18 0.129 0.227 0.008 m 2.531 -0.039 c -0.008 -0.043 0.059 -0.164 0.152 -0.266 c 0.129 -0.137 0.156 -0.199 0.098 -0.258 c -0.055 -0.055 -0.082 -0.047 -0.109 0.035 c -0.027 0.066 -0.113 0.105 -0.238 0.105 c -0.219 0 -0.5 0.168 -0.441 0.262 c 0.02 0.031 0.105 0.059 0.191 0.059 c 0.082 0 0.168 0.043 0.191 0.098 c 0.043 0.117 0.184 0.086 0.156 -0.035 m -1.227 -0.551 c 0.086 -0.059 0.211 -0.086 0.281 -0.07 c 0.082 0.023 0.176 -0.012 0.25 -0.086 c 0.074 -0.074 0.207 -0.125 0.336 -0.125 c 0.133 0 0.262 -0.047 0.328 -0.121 c 0.063 -0.066 0.195 -0.133 0.293 -0.145 c 0.102 -0.012 0.211 -0.078 0.25 -0.148 c 0.039 -0.07 0.117 -0.199 0.18 -0.281 c 0.059 -0.086 0.109 -0.195 0.109 -0.246 c 0 -0.055 0.055 -0.168 0.125 -0.258 c 0.066 -0.09 0.125 -0.219 0.125 -0.289 c 0 -0.07 0.055 -0.199 0.125 -0.289 c 0.168 -0.223 0.156 -0.582 -0.031 -0.953 c -0.086 -0.164 -0.156 -0.336 -0.156 -0.379 c 0 -0.043 -0.039 -0.109 -0.086 -0.152 c -0.051 -0.039 -0.105 -0.152 -0.125 -0.254 c -0.016 -0.098 -0.094 -0.285 -0.168 -0.414 c -0.105 -0.188 -0.172 -0.234 -0.32 -0.234 c -0.105 0 -0.258 -0.059 -0.348 -0.129 c -0.086 -0.07 -0.234 -0.129 -0.328 -0.129 c -0.094 0 -0.238 -0.051 -0.32 -0.117 c -0.293 -0.238 -1.098 -0.23 -1.332 0.012 c -0.059 0.059 -0.18 0.105 -0.27 0.105 c -0.094 0.004 -0.254 0.059 -0.355 0.129 c -0.102 0.07 -0.258 0.129 -0.344 0.129 c -0.203 0 -0.5 0.375 -0.5 0.629 c 0 0.102 -0.055 0.234 -0.125 0.301 c -0.066 0.063 -0.125 0.191 -0.125 0.289 c 0 0.094 -0.055 0.223 -0.125 0.285 c -0.098 0.094 -0.125 0.199 -0.125 0.488 c 0 0.309 0.023 0.387 0.125 0.441 c 0.082 0.047 0.125 0.137 0.125 0.262 c 0 0.102 0.055 0.242 0.117 0.305 c 0.063 0.066 0.133 0.207 0.152 0.313 c 0.047 0.242 0.348 0.598 0.504 0.598 c 0.066 0 0.172 0.043 0.23 0.098 c 0.059 0.055 0.215 0.117 0.348 0.137 c 0.133 0.023 0.309 0.094 0.391 0.16 c 0.082 0.063 0.227 0.117 0.324 0.117 c 0.094 0 0.191 0.027 0.211 0.063 c 0.055 0.086 0.074 0.082 0.254 -0.039 m -4.336 -0.348 c 0.262 -0.383 0.168 -0.684 -0.234 -0.766 c -0.133 -0.027 -0.289 -0.07 -0.348 -0.094 c -0.094 -0.043 -0.109 -0.008 -0.109 0.246 c 0 0.25 0.035 0.336 0.227 0.555 c 0.25 0.281 0.309 0.289 0.465 0.059 m 8.852 -0.055 c 0.152 -0.195 0.195 -0.313 0.195 -0.543 c 0 -0.277 -0.07 -0.379 -0.156 -0.23 c -0.023 0.035 -0.133 0.063 -0.246 0.063 c -0.125 0 -0.246 0.051 -0.316 0.129 c -0.102 0.113 -0.105 0.156 -0.035 0.398 c 0.07 0.242 0.211 0.426 0.328 0.43 c 0.02 0.004 0.125 -0.109 0.23 -0.246 m -7.371 -0.793 c -0.055 -0.113 -0.117 -0.285 -0.141 -0.383 c -0.02 -0.098 -0.078 -0.176 -0.129 -0.176 c -0.094 0 -0.148 0.156 -0.172 0.48 c -0.012 0.168 0.008 0.195 0.172 0.211 c 0.105 0.012 0.215 0.051 0.246 0.082 c 0.113 0.109 0.125 -0.012 0.023 -0.215 m 5.473 0.211 c 0.023 -0.035 0.121 -0.066 0.219 -0.066 c 0.238 0 0.254 -0.039 0.172 -0.402 c -0.078 -0.355 -0.234 -0.391 -0.301 -0.07 c -0.02 0.109 -0.086 0.27 -0.141 0.352 c -0.059 0.082 -0.105 0.172 -0.105 0.199 c 0 0.074 0.113 0.063 0.156 -0.012 m -8.08 -0.188 c 0 -0.203 -0.133 -0.383 -0.313 -0.422 c -0.281 -0.063 -0.297 0 -0.055 0.25 c 0.207 0.219 0.367 0.289 0.367 0.172 m 10.945 -0.109 c 0.297 -0.254 0.328 -0.344 0.121 -0.344 c -0.242 0 -0.32 0.066 -0.367 0.305 c -0.051 0.25 -0.008 0.258 0.246 0.039 m -1.66 -0.188 c 0.031 -0.055 0.16 -0.105 0.293 -0.117 c 0.133 -0.008 0.27 -0.063 0.309 -0.113 c 0.039 -0.051 0.117 -0.113 0.18 -0.137 c 0.09 -0.035 0.109 -0.129 0.117 -0.523 c 0.008 -0.266 0.016 -0.535 0.016 -0.594 c 0.004 -0.063 -0.055 -0.145 -0.133 -0.184 c -0.078 -0.039 -0.191 -0.117 -0.254 -0.176 c -0.063 -0.059 -0.168 -0.109 -0.23 -0.109 c -0.063 0 -0.211 -0.035 -0.328 -0.078 c -0.23 -0.086 -0.324 -0.016 -0.328 0.246 c 0 0.074 -0.055 0.188 -0.125 0.25 c -0.176 0.16 -0.176 0.781 -0.004 1 c 0.066 0.09 0.141 0.242 0.168 0.348 c 0.063 0.273 0.223 0.363 0.32 0.184 m -7.602 -0.09 c 0.035 -0.066 0.066 -0.18 0.066 -0.246 c 0 -0.066 0.055 -0.176 0.125 -0.238 c 0.09 -0.086 0.125 -0.195 0.125 -0.434 c 0 -0.219 -0.039 -0.363 -0.125 -0.477 c -0.07 -0.09 -0.125 -0.23 -0.125 -0.309 c 0 -0.211 -0.168 -0.332 -0.316 -0.234 c -0.066 0.043 -0.176 0.074 -0.238 0.074 c -0.066 0 -0.266 0.078 -0.438 0.172 l -0.32 0.168 v 0.59 c 0 0.582 0.004 0.586 0.195 0.734 c 0.105 0.078 0.305 0.16 0.438 0.18 c 0.133 0.02 0.258 0.059 0.277 0.09 c 0.063 0.098 0.27 0.059 0.336 -0.07 m -1.742 -0.531 c 0.004 -0.008 0.02 -0.184 0.035 -0.387 c 0.027 -0.305 0.012 -0.375 -0.074 -0.41 c -0.117 -0.047 -0.645 0.219 -0.695 0.352 c -0.047 0.117 0.219 0.387 0.41 0.414 c 0.258 0.043 0.32 0.047 0.324 0.031 m 11.313 -0.148 c 0.125 -0.09 0.23 -0.203 0.23 -0.254 c 0 -0.137 -0.461 -0.43 -0.633 -0.406 c -0.133 0.02 -0.148 0.059 -0.152 0.375 c -0.004 0.195 0.004 0.375 0.02 0.402 c 0.051 0.098 0.309 0.043 0.535 -0.117 m -8.758 -1.293 c 0 -0.082 0.043 -0.168 0.094 -0.188 c 0.055 -0.02 0.094 -0.09 0.094 -0.16 c 0 -0.098 -0.027 -0.113 -0.172 -0.078 c -0.414 0.102 -0.437 0.16 -0.258 0.645 c 0.063 0.176 0.07 0.176 0.156 0.055 c 0.047 -0.066 0.086 -0.191 0.086 -0.273 m 5.977 0.031 c 0.082 -0.316 0.035 -0.395 -0.281 -0.457 c -0.168 -0.031 -0.203 -0.016 -0.203 0.082 c 0 0.066 0.039 0.152 0.086 0.191 c 0.051 0.039 0.105 0.16 0.125 0.266 c 0.055 0.273 0.191 0.234 0.273 -0.082 m -8.52 -0.008 c 0.059 -0.094 0.063 -0.359 0.004 -0.359 c -0.066 0 -0.457 0.398 -0.457 0.465 c 0 0.078 0.395 -0.016 0.453 -0.105 m 11.219 0.105 c 0 -0.063 -0.387 -0.465 -0.449 -0.465 c -0.066 0 -0.063 0.148 0.012 0.348 c 0.047 0.125 0.105 0.164 0.25 0.164 c 0.105 0 0.188 -0.02 0.188 -0.047 m -10.484 -0.371 c 0.043 -0.051 0.156 -0.094 0.254 -0.094 c 0.371 0 0.445 -0.348 0.168 -0.82 l -0.121 -0.207 l -0.176 0.145 c -0.25 0.207 -0.375 0.449 -0.375 0.734 c 0 0.344 0.094 0.434 0.25 0.242 m 9.488 -0.156 c 0 -0.102 0.016 -0.23 0.035 -0.281 c 0.023 -0.063 -0.066 -0.211 -0.23 -0.398 l -0.27 -0.297 l -0.133 0.16 c -0.133 0.156 -0.25 0.641 -0.18 0.754 c 0.02 0.031 0.145 0.059 0.277 0.059 c 0.137 0 0.281 0.043 0.324 0.094 c 0.125 0.145 0.176 0.117 0.176 -0.09 m -7.883 -0.496 c 0.113 -0.02 0.234 -0.074 0.273 -0.125 c 0.039 -0.047 0.137 -0.086 0.223 -0.086 c 0.086 0 0.168 -0.051 0.188 -0.113 c 0.023 -0.063 0.078 -0.133 0.121 -0.16 c 0.047 -0.027 0.102 -0.152 0.121 -0.277 c 0.023 -0.129 0.082 -0.246 0.129 -0.262 c 0.047 -0.02 0.086 -0.117 0.086 -0.219 c 0 -0.203 -0.145 -0.316 -0.402 -0.316 c -0.09 0 -0.207 -0.059 -0.27 -0.129 c -0.211 -0.25 -0.41 -0.16 -1.012 0.461 c -0.344 0.355 -0.387 0.52 -0.188 0.777 c 0.066 0.09 0.125 0.176 0.125 0.195 c 0 0.02 0.027 0.109 0.063 0.207 c 0.051 0.137 0.09 0.16 0.203 0.129 c 0.074 -0.023 0.23 -0.059 0.34 -0.082 m 6.629 -0.078 c 0.039 -0.07 0.066 -0.18 0.066 -0.242 c 0 -0.066 0.055 -0.168 0.125 -0.23 c 0.07 -0.059 0.125 -0.164 0.125 -0.227 c 0 -0.168 -0.898 -1.035 -1.07 -1.035 c -0.074 0 -0.188 0.047 -0.25 0.105 c -0.066 0.059 -0.219 0.125 -0.348 0.145 c -0.164 0.027 -0.262 0.09 -0.328 0.211 c -0.086 0.16 -0.082 0.184 0.047 0.324 c 0.074 0.082 0.137 0.215 0.137 0.297 c 0 0.18 0.324 0.52 0.492 0.52 c 0.07 0 0.145 0.031 0.168 0.066 c 0.125 0.207 0.738 0.254 0.836 0.066 m -5.03 -0.551 c 0.02 -0.059 0.117 -0.098 0.242 -0.098 c 0.117 0 0.266 -0.039 0.332 -0.094 c 0.102 -0.082 0.105 -0.102 0.027 -0.16 c -0.055 -0.035 -0.156 -0.063 -0.23 -0.063 c -0.07 0 -0.148 -0.047 -0.168 -0.098 c -0.051 -0.137 -0.164 -0.121 -0.164 0.023 c 0 0.066 -0.059 0.191 -0.125 0.281 c -0.07 0.09 -0.125 0.195 -0.125 0.234 c 0 0.105 0.168 0.082 0.211 -0.027 m 3.098 0.031 c 0 -0.035 -0.059 -0.113 -0.125 -0.176 c -0.07 -0.059 -0.125 -0.188 -0.125 -0.285 c 0 -0.199 -0.07 -0.23 -0.188 -0.082 c -0.043 0.051 -0.125 0.098 -0.18 0.098 c -0.055 0 -0.141 0.027 -0.191 0.059 c -0.156 0.102 0.039 0.258 0.316 0.258 c 0.16 0 0.258 0.035 0.281 0.098 c 0.039 0.109 0.211 0.133 0.211 0.031 m -6.316 -0.203 c 0.117 -0.121 0.086 -0.383 -0.082 -0.66 l -0.156 -0.258 v 0.352 c 0.004 0.379 0.051 0.641 0.121 0.641 c 0.023 0 0.074 -0.031 0.117 -0.074 m 9.5 -0.34 c 0 -0.285 -0.02 -0.344 -0.094 -0.313 c -0.199 0.078 -0.195 0.664 0 0.664 c 0.07 0 0.094 -0.082 0.094 -0.352 m -4.367 -0.262 c 0.051 -0.047 0.211 -0.105 0.355 -0.129 c 0.219 -0.035 0.266 -0.066 0.266 -0.18 c 0 -0.078 -0.039 -0.195 -0.086 -0.266 c -0.047 -0.07 -0.105 -0.219 -0.129 -0.336 c -0.066 -0.301 -0.281 -0.395 -0.914 -0.387 c -0.602 0.008 -0.867 0.105 -0.867 0.324 c -0.004 0.082 -0.059 0.23 -0.125 0.336 c -0.125 0.195 -0.113 0.402 0.023 0.496 c 0.039 0.027 0.168 0.047 0.289 0.047 c 0.133 0 0.258 0.047 0.313 0.113 c 0.074 0.09 0.168 0.109 0.438 0.09 c 0.188 -0.012 0.383 -0.059 0.438 -0.109 m -4.242 -0.293 c 0.344 -0.297 0.375 -0.375 0.16 -0.375 c -0.082 0 -0.199 -0.059 -0.262 -0.133 c -0.078 -0.09 -0.176 -0.125 -0.305 -0.109 c -0.172 0.016 -0.195 0.043 -0.211 0.258 c -0.016 0.18 0.02 0.293 0.125 0.43 c 0.078 0.105 0.152 0.191 0.164 0.191 c 0.012 0.004 0.156 -0.117 0.328 -0.262 m 8.02 0.027 c 0.18 -0.207 0.191 -0.32 0.059 -0.516 c -0.121 -0.18 -0.375 -0.188 -0.465 -0.016 c -0.039 0.074 -0.129 0.129 -0.219 0.129 c -0.086 0 -0.156 0.023 -0.156 0.055 c 0 0.063 0.508 0.523 0.578 0.523 c 0.027 0 0.121 -0.082 0.203 -0.18 m -5.879 -0.313 c -0.023 -0.063 0.027 -0.148 0.137 -0.238 c 0.129 -0.105 0.16 -0.176 0.129 -0.277 c -0.086 -0.289 -0.793 -0.188 -1.012 0.145 c -0.113 0.18 -0.02 0.289 0.281 0.332 c 0.141 0.02 0.289 0.074 0.328 0.121 c 0.086 0.109 0.188 0.055 0.137 -0.078 m 3.656 -0.027 c 0.188 0 0.383 -0.109 0.383 -0.219 c 0 -0.047 -0.102 -0.18 -0.227 -0.289 c -0.191 -0.176 -0.262 -0.199 -0.516 -0.184 c -0.258 0.02 -0.293 0.039 -0.309 0.184 c -0.012 0.102 0.031 0.207 0.109 0.281 c 0.07 0.066 0.129 0.168 0.129 0.227 c 0 0.168 0.074 0.203 0.188 0.098 c 0.055 -0.055 0.164 -0.098 0.242 -0.098 m -5.02 -0.512 c 0.02 -0.035 -0.035 -0.063 -0.125 -0.063 c -0.094 0 -0.148 0.027 -0.125 0.063 c 0.02 0.035 0.074 0.066 0.125 0.066 c 0.047 0 0.102 -0.031 0.125 -0.066 m 6.379 -0.063 c 0.113 0 0.203 -0.031 0.203 -0.063 c 0 -0.039 -0.148 -0.059 -0.344 -0.051 c -0.238 0.012 -0.344 0.043 -0.344 0.105 c 0 0.059 0.047 0.074 0.141 0.047 c 0.078 -0.02 0.234 -0.039 0.344 -0.039 m -4.492 -0.738 c 0.168 -0.086 0.32 -0.379 0.242 -0.461 c -0.035 -0.035 -0.473 0.438 -0.477 0.508 c 0 0.066 0.016 0.063 0.234 -0.047 m 1.5 -0.105 c 0.012 -0.055 -0.027 -0.148 -0.082 -0.207 c -0.059 -0.059 -0.125 -0.184 -0.148 -0.281 c -0.074 -0.273 -0.254 -0.223 -0.434 0.121 c -0.219 0.422 -0.164 0.516 0.285 0.492 c 0.273 -0.016 0.363 -0.043 0.379 -0.125 m 0.887 0.094 c 0 -0.063 -0.387 -0.469 -0.445 -0.469 c -0.066 0 0.074 0.406 0.16 0.465 c 0.086 0.059 0.285 0.063 0.285 0.004" fill="#cfcfcf"/><path d="m 10.539 18.707 c -0.375 -0.273 -0.461 -0.582 -0.27 -0.984 c 0.109 -0.234 0.18 -0.305 0.367 -0.355 c 0.508 -0.145 0.711 -0.078 0.941 0.316 c 0.223 0.387 0.137 0.719 -0.27 1.043 c -0.277 0.223 -0.441 0.219 -0.77 -0.02 m -4.934 -2.027 c -0.199 -0.039 -0.492 -0.363 -0.535 -0.598 c -0.09 -0.465 0.469 -1.02 0.898 -0.895 c 0.285 0.082 0.535 0.328 0.617 0.594 c 0.063 0.211 0.059 0.273 -0.039 0.441 c -0.199 0.352 -0.57 0.531 -0.941 0.457 m 9.871 -0.109 c -0.289 -0.133 -0.473 -0.477 -0.426 -0.801 c 0.035 -0.219 0.09 -0.293 0.324 -0.453 c 0.316 -0.215 0.496 -0.238 0.762 -0.098 c 0.602 0.316 0.582 1.137 -0.031 1.379 c -0.215 0.082 -0.395 0.074 -0.629 -0.027 m -12.266 -5.04 c -0.129 -0.141 -0.266 -0.258 -0.301 -0.258 c -0.16 0 -0.051 -0.324 0.203 -0.605 c 0.305 -0.34 0.605 -0.43 1.01 -0.293 c 0.266 0.09 0.406 0.352 0.406 0.758 c 0 0.379 -0.34 0.652 -0.816 0.652 c -0.227 0 -0.297 -0.035 -0.5 -0.254 m 14.395 0.18 c -0.309 -0.172 -0.406 -0.324 -0.406 -0.625 c 0 -0.441 0.172 -0.688 0.52 -0.742 c 0.395 -0.063 0.637 0.012 0.82 0.246 c 0.09 0.113 0.188 0.238 0.223 0.281 c 0.129 0.164 0.059 0.371 -0.219 0.645 c -0.238 0.234 -0.313 0.27 -0.547 0.27 c -0.145 0 -0.324 -0.035 -0.391 -0.074 m -12.18 -4.887 c -0.277 -0.121 -0.484 -0.496 -0.438 -0.785 c 0.082 -0.516 0.645 -0.805 1.098 -0.566 c 0.457 0.246 0.594 0.816 0.27 1.129 c -0.34 0.328 -0.57 0.383 -0.926 0.223 m 10.238 0.047 c -0.066 -0.016 -0.227 -0.133 -0.355 -0.262 c -0.195 -0.191 -0.234 -0.277 -0.234 -0.48 c 0 -0.207 0.043 -0.297 0.242 -0.5 c 0.203 -0.211 0.281 -0.25 0.5 -0.25 c 0.457 0 0.816 0.313 0.816 0.707 c 0 0.25 -0.188 0.551 -0.43 0.691 c -0.242 0.141 -0.305 0.152 -0.539 0.094 m -4.93 -2.227 c -0.035 -0.012 -0.137 -0.039 -0.227 -0.059 c -0.121 -0.027 -0.195 -0.117 -0.297 -0.363 c -0.18 -0.422 -0.109 -0.68 0.246 -0.922 c 0.137 -0.09 0.246 -0.195 0.246 -0.23 c 0 -0.035 0.07 -0.063 0.152 -0.063 c 0.094 0 0.266 0.117 0.465 0.316 c 0.27 0.266 0.32 0.352 0.32 0.547 c 0 0.332 -0.234 0.719 -0.461 0.766 c -0.188 0.039 -0.34 0.043 -0.445 0.008" fill="#b2251a"/><path d="m 10.48 18.555 c -0.074 -0.055 -0.164 -0.184 -0.199 -0.289 c -0.094 -0.285 0.137 -0.715 0.426 -0.789 c 0.523 -0.141 0.922 0.172 0.855 0.672 c -0.016 0.141 -0.074 0.305 -0.129 0.359 c -0.141 0.145 -0.781 0.176 -0.953 0.047 m -5.02 -2.051 c -0.238 -0.141 -0.34 -0.434 -0.25 -0.734 c 0.055 -0.191 0.125 -0.27 0.324 -0.363 c 0.234 -0.105 0.281 -0.109 0.516 -0.023 c 0.672 0.242 0.57 1.098 -0.145 1.184 c -0.184 0.02 -0.336 0 -0.445 -0.063 m 9.953 -0.086 c -0.594 -0.48 0.008 -1.402 0.695 -1.07 c 0.449 0.223 0.531 0.586 0.215 0.957 c -0.172 0.199 -0.23 0.227 -0.484 0.227 c -0.18 -0.004 -0.344 -0.047 -0.426 -0.113 m -12.13 -4.934 c -0.109 -0.141 -0.133 -0.234 -0.109 -0.484 c 0.035 -0.379 0.145 -0.496 0.492 -0.535 c 0.402 -0.047 0.594 0.055 0.684 0.355 c 0.152 0.523 -0.07 0.844 -0.594 0.844 c -0.297 0 -0.355 -0.023 -0.473 -0.18 m 14.23 0.051 c -0.172 -0.176 -0.215 -0.418 -0.129 -0.715 c 0.086 -0.301 0.277 -0.402 0.68 -0.355 c 0.352 0.039 0.457 0.156 0.492 0.535 c 0.023 0.25 0.004 0.344 -0.105 0.484 c -0.117 0.156 -0.18 0.176 -0.473 0.176 c -0.254 0 -0.371 -0.031 -0.465 -0.125 m -12.191 -4.91 c -0.203 -0.207 -0.25 -0.363 -0.203 -0.629 c 0.07 -0.375 0.461 -0.605 0.816 -0.484 c 0.277 0.094 0.41 0.262 0.449 0.559 c 0.027 0.219 0.004 0.285 -0.168 0.488 c -0.172 0.199 -0.238 0.234 -0.465 0.234 c -0.203 0 -0.305 -0.039 -0.43 -0.168 m 10.199 0.012 c -0.273 -0.207 -0.316 -0.277 -0.316 -0.52 c 0 -0.238 0.137 -0.449 0.375 -0.574 c 0.273 -0.145 0.469 -0.117 0.715 0.102 c 0.188 0.168 0.219 0.242 0.219 0.469 c 0 0.215 -0.035 0.309 -0.176 0.445 c -0.262 0.254 -0.551 0.281 -0.816 0.078 m -4.855 -2.129 c -0.34 -0.074 -0.574 -0.656 -0.375 -0.926 c 0.211 -0.281 0.785 -0.344 1.066 -0.117 c 0.227 0.184 0.238 0.672 0.016 0.883 c -0.148 0.145 -0.457 0.215 -0.707 0.16" fill="#cd0302"/></svg>