<svg xmlns="http://www.w3.org/2000/svg" viewBox="0 0 22 22"><defs><linearGradient id="0" gradientUnits="userSpaceOnUse" y1="18.404" x2="0" y2="5.739"><stop stop-color="#000002"/><stop offset="1" stop-color="#111f21"/></linearGradient><linearGradient id="1" gradientUnits="userSpaceOnUse" y1="17.853" x2="0" y2="11.246"><stop stop-color="#fff" stop-opacity="0.459"/><stop offset="1" stop-color="#fff" stop-opacity="0.808"/></linearGradient></defs><path d="m 21.289 7.977 c 4.105 11.465 -10.656 17.04 -16.199 12.371 c -5.547 -4.668 -7.441 -12.664 -1.16 -16.691 c 6.281 -4.02 13.25 -7.145 17.359 4.32" fill="#dcdcdc"/><path d="m 14.203 6.84 c 1.613 1.117 2.668 2.984 2.668 5.094 c 0 3.422 -2.773 6.195 -6.195 6.195 c -2.109 0 -3.973 -1.055 -5.094 -2.668 c 0.285 0.504 0.637 0.965 1.043 1.367 c 1.125 1.023 2.617 1.645 4.258 1.645 c 3.496 0 6.332 -2.836 6.332 -6.332 c 0 -1.641 -0.621 -3.133 -1.645 -4.258 c -0.402 -0.406 -0.863 -0.758 -1.367 -1.043 m 1.367 1.043 c 1.063 1.133 1.715 2.652 1.715 4.328 c 0 3.496 -2.836 6.332 -6.332 6.332 c -1.676 0 -3.195 -0.652 -4.328 -1.715 c 1.145 1.141 2.719 1.852 4.465 1.852 c 3.496 0 6.332 -2.836 6.332 -6.332 c 0 -1.746 -0.707 -3.32 -1.852 -4.465" fill-opacity="0.051"/><path d="m 15.574 7.883 c 1.02 1.125 1.641 2.617 1.641 4.258 c 0 3.496 -2.836 6.332 -6.332 6.332 c -1.641 0 -3.133 -0.621 -4.258 -1.645 c 1.133 1.063 2.652 1.715 4.328 1.715 c 3.496 0 6.332 -2.836 6.332 -6.332 c 0 -1.676 -0.652 -3.195 -1.711 -4.328" fill-opacity="0.102"/><path d="m 12.813 6.117 c 2.371 0.867 4.059 3.145 4.059 5.816 c 0 3.422 -2.773 6.195 -6.195 6.195 c -2.672 0 -4.945 -1.688 -5.813 -4.059 c 0.961 2.957 3.926 4.777 6.996 4.301 c 3.074 -0.48 5.344 -3.121 5.359 -6.23 c -0.004 -2.75 -1.785 -5.184 -4.406 -6.02" fill-opacity="0.2"/><path d="m 10.816 5.738 c 3.496 0 6.332 2.836 6.332 6.332 c 0 3.5 -2.836 6.332 -6.332 6.332 c -3.5 0 -6.336 -2.832 -6.336 -6.332 c 0 -3.496 2.836 -6.332 6.336 -6.332" fill="url(#0)"/><path d="m 15.227 7.539 c 1.023 1.121 1.645 2.617 1.645 4.258 c 0 3.496 -2.836 6.332 -6.332 6.332 c -1.641 0 -3.133 -0.621 -4.258 -1.645 c 1.148 1.184 2.754 1.918 4.531 1.918 c 3.5 0 6.336 -2.832 6.336 -6.332 c 0 -1.777 -0.738 -3.383 -1.922 -4.531" fill-opacity="0.102"/><path d="m 10.816 11.246 c 1.824 0 3.301 1.48 3.301 3.305 c 0 1.824 -1.477 3.301 -3.301 3.301 c -1.828 0 -3.305 -1.477 -3.305 -3.301 c 0 -1.824 1.477 -3.305 3.305 -3.305" fill="url(#1)"/></svg>