<svg xmlns="http://www.w3.org/2000/svg" viewBox="0 0 22 22"><path d="m 16.664 2.734 c 19.48 18.11 -20.73 29.52 -16.297 5.477 c 2.188 -6.344 10.04 -11.293 16.297 -5.477" fill="#d7bfd7"/><g fill="#ff4500" fill-rule="evenodd"><path d="m 14.801 17.13 c 0 -0.023 -0.027 -0.035 -0.094 -0.035 c -0.066 0 -0.094 -0.008 -0.094 -0.035 c 0 -0.02 -0.023 -0.035 -0.059 -0.035 c -0.035 0 -0.059 -0.012 -0.059 -0.035 c 0 -0.016 -0.016 -0.035 -0.035 -0.035 c -0.02 0 -0.035 -0.008 -0.035 -0.023 c 0 -0.031 -0.059 -0.09 -0.09 -0.09 c -0.016 0 -0.027 -0.016 -0.027 -0.035 c 0 -0.02 -0.008 -0.035 -0.023 -0.035 c -0.012 0 -0.023 -0.016 -0.023 -0.035 c 0 -0.02 -0.016 -0.035 -0.035 -0.035 c -0.02 0 -0.035 -0.016 -0.035 -0.035 c 0 -0.02 -0.008 -0.035 -0.023 -0.035 c -0.012 0 -0.023 -0.027 -0.023 -0.059 c 0 -0.039 -0.012 -0.059 -0.035 -0.059 c -0.023 0 -0.035 -0.027 -0.035 -0.105 c 0 -0.059 -0.008 -0.105 -0.023 -0.105 c -0.012 0 -0.023 -0.102 -0.023 -0.258 c 0 -0.156 0.012 -0.254 0.023 -0.254 c 0.016 0 0.023 -0.043 0.023 -0.094 c 0 -0.07 0.012 -0.094 0.035 -0.094 c 0.023 0 0.035 -0.023 0.035 -0.059 c 0 -0.031 0.012 -0.059 0.023 -0.059 c 0.016 0 0.023 -0.023 0.023 -0.047 c 0 -0.027 0.012 -0.047 0.023 -0.047 c 0.012 0 0.031 -0.027 0.039 -0.059 c 0.008 -0.031 0.023 -0.059 0.035 -0.059 c 0.012 0 0.02 -0.016 0.02 -0.035 c 0 -0.02 0.016 -0.035 0.035 -0.035 c 0.02 0 0.035 -0.012 0.035 -0.023 c 0 -0.012 0.027 -0.023 0.059 -0.023 c 0.035 0 0.059 -0.012 0.059 -0.031 c 0 -0.02 0.027 -0.039 0.059 -0.047 c 0.031 -0.008 0.059 -0.027 0.059 -0.039 c 0 -0.012 0.027 -0.023 0.059 -0.023 c 0.035 0 0.059 -0.012 0.059 -0.035 c 0 -0.027 0.047 -0.035 0.293 -0.035 c 0.242 0 0.289 0.008 0.289 0.035 c 0 0.027 0.027 0.035 0.094 0.035 c 0.066 0 0.094 0.012 0.094 0.035 c 0 0.02 0.016 0.035 0.035 0.035 c 0.02 0 0.035 0.012 0.035 0.023 c 0 0.012 0.023 0.027 0.051 0.039 c 0.063 0.016 0.113 0.063 0.113 0.102 c 0 0.012 0.016 0.023 0.035 0.023 c 0.02 0 0.035 0.016 0.035 0.035 c 0 0.02 0.008 0.035 0.02 0.035 c 0.012 0 0.027 0.027 0.035 0.059 c 0.008 0.031 0.027 0.059 0.039 0.059 c 0.012 0 0.023 0.016 0.023 0.035 c 0 0.02 0.008 0.035 0.023 0.035 c 0.012 0 0.023 0.043 0.023 0.094 c 0 0.063 0.012 0.098 0.035 0.105 c 0.027 0.012 0.035 0.07 0.035 0.328 c 0 0.262 -0.008 0.313 -0.035 0.313 c -0.023 0 -0.035 0.023 -0.035 0.07 c 0 0.039 -0.012 0.07 -0.023 0.07 c -0.016 0 -0.023 0.027 -0.023 0.059 c 0 0.035 -0.016 0.059 -0.035 0.059 c -0.023 0 -0.035 0.023 -0.035 0.07 c 0 0.039 -0.012 0.07 -0.023 0.07 c -0.012 0 -0.023 0.016 -0.023 0.035 c 0 0.016 -0.012 0.035 -0.023 0.035 c -0.023 0 -0.051 0.016 -0.129 0.086 c -0.016 0.016 -0.043 0.027 -0.059 0.027 c -0.012 0 -0.023 0.016 -0.023 0.035 c 0 0.023 -0.023 0.035 -0.07 0.035 c -0.047 0 -0.07 0.012 -0.07 0.035 c 0 0.027 -0.023 0.035 -0.082 0.035 c -0.055 0 -0.082 0.012 -0.082 0.035 c 0 0.031 -0.039 0.035 -0.23 0.035 c -0.195 0 -0.234 -0.004 -0.234 -0.035"/><path d="m 10.01 10.41 c 0 -0.02 -0.008 -0.035 -0.023 -0.035 c -0.012 0 -0.023 -0.016 -0.023 -0.035 c 0 -0.02 -0.012 -0.035 -0.023 -0.035 c -0.043 0 -0.094 -0.066 -0.094 -0.117 c 0 -0.027 -0.016 -0.055 -0.035 -0.063 c -0.02 -0.008 -0.035 -0.027 -0.035 -0.047 c 0 -0.016 -0.008 -0.031 -0.023 -0.031 c -0.016 0 -0.039 -0.016 -0.059 -0.035 c -0.02 -0.016 -0.031 -0.043 -0.031 -0.059 c 0 -0.012 -0.02 -0.023 -0.035 -0.023 c -0.023 0 -0.035 -0.023 -0.035 -0.059 c 0 -0.031 -0.012 -0.059 -0.023 -0.059 c -0.016 0 -0.023 -0.02 -0.023 -0.047 c 0 -0.023 -0.012 -0.047 -0.027 -0.047 c -0.031 0 -0.09 -0.059 -0.09 -0.09 c 0 -0.016 -0.016 -0.027 -0.035 -0.027 c -0.023 0 -0.035 -0.02 -0.035 -0.059 c 0 -0.031 -0.012 -0.055 -0.023 -0.055 c -0.016 0 -0.023 -0.023 -0.023 -0.047 c 0 -0.027 -0.016 -0.047 -0.035 -0.047 c -0.02 0 -0.035 -0.012 -0.035 -0.023 c 0 -0.016 -0.016 -0.023 -0.035 -0.023 c -0.02 0 -0.035 -0.016 -0.035 -0.035 c 0 -0.02 -0.012 -0.035 -0.02 -0.035 c -0.012 0 -0.027 -0.027 -0.039 -0.059 c -0.008 -0.031 -0.023 -0.059 -0.035 -0.059 c -0.012 0 -0.023 -0.016 -0.023 -0.039 c 0 -0.039 -0.055 -0.102 -0.094 -0.102 c -0.012 0 -0.023 -0.016 -0.023 -0.035 c 0 -0.02 -0.008 -0.035 -0.02 -0.035 c -0.012 0 -0.027 -0.027 -0.035 -0.059 c -0.008 -0.031 -0.027 -0.059 -0.039 -0.059 c -0.012 0 -0.023 -0.016 -0.023 -0.035 c 0 -0.043 -0.055 -0.105 -0.09 -0.105 c -0.016 0 -0.027 -0.016 -0.027 -0.035 c 0 -0.02 -0.016 -0.035 -0.035 -0.035 c -0.02 0 -0.035 -0.02 -0.035 -0.059 c 0 -0.031 -0.008 -0.059 -0.023 -0.059 c -0.012 0 -0.023 -0.016 -0.023 -0.035 c 0 -0.016 -0.016 -0.035 -0.035 -0.035 c -0.02 0 -0.035 -0.016 -0.035 -0.031 c 0 -0.02 -0.008 -0.035 -0.023 -0.035 c -0.012 0 -0.023 -0.016 -0.023 -0.035 c 0 -0.02 -0.016 -0.035 -0.035 -0.035 c -0.02 0 -0.035 -0.023 -0.035 -0.059 c 0 -0.035 -0.008 -0.059 -0.02 -0.059 c -0.016 0 -0.023 -0.016 -0.023 -0.035 c 0 -0.02 -0.016 -0.035 -0.035 -0.035 c -0.02 0 -0.035 -0.016 -0.035 -0.035 c 0 -0.02 -0.012 -0.035 -0.023 -0.035 c -0.016 0 -0.023 -0.016 -0.023 -0.035 c 0 -0.02 -0.016 -0.035 -0.035 -0.035 c -0.016 0 -0.039 -0.027 -0.047 -0.059 c -0.008 -0.031 -0.023 -0.059 -0.035 -0.059 c -0.016 0 -0.023 -0.016 -0.023 -0.035 c 0 -0.02 -0.012 -0.035 -0.023 -0.035 c -0.016 0 -0.023 -0.016 -0.023 -0.035 c 0 -0.02 -0.016 -0.035 -0.035 -0.035 c -0.02 0 -0.035 -0.016 -0.035 -0.035 c 0 -0.02 -0.012 -0.035 -0.023 -0.035 c -0.008 0 -0.027 -0.027 -0.035 -0.059 c -0.008 -0.031 -0.023 -0.059 -0.035 -0.059 c -0.012 0 -0.023 -0.016 -0.023 -0.035 c 0 -0.02 -0.012 -0.035 -0.023 -0.035 c -0.012 0 -0.023 -0.016 -0.023 -0.035 c 0 -0.02 -0.016 -0.035 -0.035 -0.035 c -0.02 0 -0.035 -0.016 -0.035 -0.035 c 0 -0.02 -0.008 -0.035 -0.02 -0.035 c -0.012 0 -0.027 -0.023 -0.035 -0.059 c -0.008 -0.031 -0.027 -0.055 -0.039 -0.055 c -0.012 0 -0.023 -0.02 -0.023 -0.035 c 0 -0.02 -0.016 -0.035 -0.035 -0.035 c -0.02 0 -0.035 -0.016 -0.035 -0.035 c 0 -0.02 -0.012 -0.035 -0.023 -0.035 c -0.012 0 -0.023 -0.016 -0.023 -0.035 c 0 -0.02 -0.016 -0.035 -0.035 -0.035 c -0.02 0 -0.035 -0.023 -0.035 -0.059 c 0 -0.035 -0.008 -0.059 -0.023 -0.059 c -0.012 0 -0.023 -0.016 -0.023 -0.035 c 0 -0.02 -0.016 -0.035 -0.035 -0.035 c -0.02 0 -0.035 -0.016 -0.035 -0.035 c 0 -0.02 -0.008 -0.035 -0.023 -0.035 c -0.012 0 -0.023 -0.016 -0.023 -0.035 c 0 -0.02 -0.016 -0.035 -0.035 -0.035 c -0.02 0 -0.035 -0.023 -0.035 -0.059 c 0 -0.031 -0.008 -0.059 -0.023 -0.059 c -0.012 0 -0.023 -0.016 -0.023 -0.035 c 0 -0.02 -0.016 -0.035 -0.035 -0.035 c -0.016 0 -0.035 -0.016 -0.035 -0.035 c 0 -0.02 -0.016 -0.035 -0.035 -0.035 c -0.016 0 -0.031 -0.016 -0.031 -0.035 c 0 -0.02 -0.012 -0.035 -0.023 -0.035 c -0.012 0 -0.027 -0.027 -0.035 -0.059 c -0.008 -0.031 -0.023 -0.059 -0.039 -0.059 c -0.012 0 -0.02 -0.016 -0.02 -0.035 c 0 -0.02 -0.012 -0.035 -0.023 -0.035 c -0.016 0 -0.023 -0.016 -0.023 -0.035 c 0 -0.02 -0.016 -0.035 -0.035 -0.035 c -0.02 0 -0.035 -0.016 -0.035 -0.035 c 0 -0.016 -0.012 -0.035 -0.023 -0.035 c -0.012 0 -0.027 -0.023 -0.035 -0.055 c -0.008 -0.035 -0.023 -0.059 -0.035 -0.059 c -0.016 0 -0.023 -0.016 -0.023 -0.035 c 0 -0.02 -0.016 -0.035 -0.035 -0.035 c -0.02 0 -0.035 -0.016 -0.035 -0.035 c 0 -0.02 -0.012 -0.035 -0.023 -0.035 c -0.012 0 -0.023 -0.016 -0.023 -0.035 c 0 -0.02 -0.016 -0.035 -0.035 -0.035 c -0.023 0 -0.035 -0.023 -0.035 -0.059 c 0 -0.031 -0.012 -0.059 -0.023 -0.059 c -0.012 0 -0.023 -0.016 -0.023 -0.035 c 0 -0.02 -0.016 -0.035 -0.035 -0.035 c -0.02 0 -0.035 -0.016 -0.035 -0.035 c 0 -0.02 -0.012 -0.035 -0.023 -0.035 c -0.012 0 -0.023 -0.016 -0.023 -0.035 c 0 -0.02 -0.016 -0.035 -0.035 -0.035 c -0.023 0 -0.035 -0.023 -0.035 -0.059 c 0 -0.031 -0.012 -0.059 -0.023 -0.059 c -0.012 0 -0.023 -0.016 -0.023 -0.035 c 0 -0.02 -0.016 -0.035 -0.035 -0.035 c -0.02 0 -0.035 -0.016 -0.035 -0.035 c 0 -0.02 -0.016 -0.035 -0.035 -0.035 c -0.02 0 -0.035 -0.016 -0.035 -0.035 c 0 -0.02 -0.008 -0.035 -0.023 -0.035 c -0.012 0 -0.023 -0.008 -0.023 -0.023 c 0 -0.039 0.156 -0.027 0.172 0.012 c 0.012 0.023 0.047 0.035 0.121 0.035 c 0.078 0 0.105 0.012 0.105 0.035 c 0 0.027 0.027 0.035 0.129 0.035 c 0.07 0 0.129 0.012 0.129 0.023 c 0 0.012 0.035 0.023 0.082 0.023 c 0.055 0 0.078 0.012 0.078 0.035 c 0 0.027 0.031 0.035 0.117 0.035 c 0.09 0 0.117 0.008 0.117 0.035 c 0 0.027 0.027 0.035 0.098 0.035 c 0.051 0 0.109 0.016 0.129 0.035 c 0.02 0.02 0.07 0.035 0.113 0.035 c 0.059 0 0.082 0.012 0.082 0.035 c 0 0.027 0.031 0.035 0.129 0.035 c 0.07 0 0.129 0.012 0.129 0.023 c 0 0.012 0.035 0.023 0.082 0.023 c 0.055 0 0.082 0.012 0.082 0.035 c 0 0.027 0.027 0.035 0.113 0.035 c 0.09 0 0.117 0.008 0.117 0.035 c 0 0.027 0.031 0.035 0.129 0.035 c 0.098 0 0.129 0.008 0.129 0.035 c 0 0.023 0.023 0.035 0.082 0.035 c 0.059 0 0.082 0.012 0.082 0.035 c 0 0.027 0.031 0.035 0.129 0.035 c 0.07 0 0.129 0.008 0.129 0.023 c 0 0.012 0.035 0.023 0.082 0.023 c 0.055 0 0.082 0.008 0.082 0.035 c 0 0.023 0.027 0.035 0.113 0.035 c 0.09 0 0.117 0.008 0.117 0.035 c 0 0.027 0.031 0.035 0.129 0.035 c 0.098 0 0.129 0.008 0.129 0.035 c 0 0.023 0.023 0.035 0.082 0.035 c 0.059 0 0.082 0.008 0.082 0.035 c 0 0.023 0.031 0.035 0.129 0.035 c 0.07 0 0.129 0.008 0.129 0.023 c 0 0.012 0.035 0.023 0.082 0.023 c 0.055 0 0.082 0.008 0.082 0.031 c 0 0.027 0.027 0.035 0.125 0.035 c 0.102 0 0.129 0.012 0.129 0.035 c 0 0.027 0.031 0.035 0.117 0.035 c 0.09 0 0.117 0.012 0.117 0.035 c 0 0.027 0.023 0.035 0.082 0.035 c 0.047 0 0.082 0.012 0.082 0.023 c 0 0.016 0.059 0.023 0.129 0.023 c 0.098 0 0.129 0.008 0.129 0.035 c 0 0.027 0.023 0.035 0.094 0.035 c 0.066 0 0.094 0.012 0.094 0.035 c 0 0.027 0.027 0.035 0.117 0.035 c 0.086 0 0.113 0.008 0.113 0.035 c 0 0.027 0.031 0.035 0.117 0.035 c 0.09 0 0.117 0.008 0.117 0.035 c 0 0.023 0.027 0.035 0.082 0.035 c 0.047 0 0.082 0.012 0.082 0.023 c 0 0.012 0.059 0.023 0.129 0.023 c 0.098 0 0.129 0.008 0.129 0.035 c 0 0.027 0.027 0.035 0.117 0.035 c 0.086 0 0.117 0.008 0.117 0.035 c 0 0.027 0.023 0.035 0.094 0.035 c 0.066 0 0.09 0.008 0.09 0.035 c 0 0.027 0.031 0.035 0.117 0.035 c 0.09 0 0.117 0.008 0.117 0.035 c 0 0.023 0.027 0.035 0.082 0.035 c 0.047 0 0.082 0.012 0.082 0.023 c 0 0.012 0.059 0.023 0.129 0.023 c 0.098 0 0.129 0.008 0.129 0.035 c 0 0.027 0.027 0.035 0.117 0.035 c 0.086 0 0.117 0.008 0.117 0.035 c 0 0.023 0.023 0.035 0.094 0.035 c 0.066 0 0.094 0.008 0.094 0.035 c 0 0.027 0.027 0.035 0.113 0.035 c 0.09 0 0.117 0.008 0.117 0.035 c 0 0.023 0.027 0.035 0.094 0.035 c 0.051 0 0.094 0.008 0.094 0.023 c 0 0.012 0.055 0.023 0.117 0.023 c 0.09 0 0.117 0.008 0.117 0.035 c 0 0.023 0.027 0.035 0.117 0.035 c 0.086 0 0.117 0.008 0.117 0.035 c 0 0.023 0.023 0.035 0.094 0.035 c 0.066 0 0.094 0.008 0.094 0.035 c 0 0.023 0.027 0.035 0.113 0.035 c 0.09 0 0.117 0.008 0.117 0.031 c 0 0.027 0.027 0.035 0.094 0.035 c 0.051 0 0.094 0.012 0.094 0.023 c 0 0.016 0.055 0.023 0.117 0.023 c 0.09 0 0.117 0.012 0.117 0.035 c 0 0.027 0.027 0.035 0.117 0.035 c 0.086 0 0.117 0.012 0.117 0.035 c 0 0.027 0.023 0.035 0.094 0.035 c 0.066 0 0.094 0.012 0.094 0.035 c 0 0.027 0.027 0.035 0.113 0.035 c 0.066 0 0.117 0.012 0.117 0.023 c 0 0.016 0.055 0.023 0.117 0.023 c 0.09 0 0.117 0.008 0.117 0.035 c 0 0.027 0.027 0.035 0.094 0.035 c 0.066 0 0.094 0.012 0.094 0.035 c 0 0.027 0.027 0.035 0.117 0.035 c 0.09 0 0.117 0.008 0.117 0.035 c 0 0.027 0.023 0.035 0.094 0.035 c 0.066 0 0.094 0.012 0.094 0.035 c 0 0.027 0.027 0.035 0.117 0.035 c 0.063 0 0.113 0.012 0.113 0.023 c 0 0.012 0.027 0.023 0.059 0.023 c 0.039 0 0.059 0.012 0.059 0.035 c 0 0.027 -0.027 0.035 -0.117 0.035 c -0.086 0 -0.113 0.008 -0.113 0.035 c 0 0.027 -0.031 0.035 -0.117 0.035 c -0.066 0 -0.117 0.012 -0.117 0.023 c 0 0.012 -0.043 0.023 -0.094 0.023 c -0.066 0 -0.094 0.008 -0.094 0.035 c 0 0.027 -0.027 0.035 -0.117 0.035 c -0.09 0 -0.117 0.008 -0.117 0.035 c 0 0.027 -0.027 0.035 -0.117 0.035 c -0.086 0 -0.117 0.008 -0.117 0.035 c 0 0.023 -0.023 0.035 -0.094 0.035 c -0.051 0 -0.094 0.008 -0.094 0.023 c 0 0.012 -0.051 0.023 -0.113 0.023 c -0.09 0 -0.117 0.008 -0.117 0.035 c 0 0.023 -0.027 0.035 -0.094 0.035 c -0.051 0 -0.105 0.016 -0.125 0.035 c -0.02 0.02 -0.074 0.035 -0.121 0.035 c -0.059 0 -0.082 0.008 -0.082 0.035 c 0 0.023 -0.031 0.035 -0.129 0.035 c -0.098 0 -0.129 0.008 -0.129 0.035 c 0 0.023 -0.027 0.035 -0.105 0.035 c -0.055 0 -0.105 0.008 -0.105 0.023 c 0 0.012 -0.047 0.023 -0.102 0.023 c -0.078 0 -0.105 0.008 -0.105 0.031 c 0 0.027 -0.031 0.035 -0.117 0.035 c -0.09 0 -0.117 0.012 -0.117 0.035 c 0 0.027 -0.023 0.035 -0.082 0.035 c -0.043 0 -0.094 0.016 -0.113 0.035 c -0.02 0.02 -0.078 0.035 -0.129 0.035 c -0.07 0 -0.098 0.012 -0.098 0.035 c 0 0.027 -0.027 0.035 -0.117 0.035 c -0.063 0 -0.117 0.012 -0.117 0.023 c 0 0.016 -0.039 0.023 -0.09 0.023 c -0.051 0 -0.109 0.016 -0.125 0.035 c -0.02 0.02 -0.074 0.035 -0.121 0.035 c -0.059 0 -0.082 0.012 -0.082 0.035 c 0 0.027 -0.027 0.035 -0.117 0.035 c -0.09 0 -0.117 0.008 -0.117 0.035 c 0 0.027 -0.027 0.035 -0.117 0.035 c -0.086 0 -0.117 0.008 -0.117 0.035 c 0 0.027 -0.023 0.035 -0.094 0.035 c -0.051 0 -0.094 0.012 -0.094 0.023 c 0 0.012 -0.051 0.023 -0.113 0.023 c -0.09 0 -0.117 0.008 -0.117 0.035 c 0 0.027 -0.031 0.035 -0.117 0.035 c -0.09 0 -0.117 0.008 -0.117 0.035 c 0 0.023 -0.027 0.035 -0.094 0.035 c -0.066 0 -0.094 0.008 -0.094 0.035 c 0 0.027 -0.027 0.035 -0.117 0.035 c -0.086 0 -0.117 0.008 -0.117 0.035 c 0 0.027 -0.027 0.035 -0.117 0.035 c -0.063 0 -0.117 0.012 -0.117 0.023 c 0 0.012 -0.039 0.023 -0.09 0.023 c -0.07 0 -0.094 0.008 -0.094 0.035 c 0 0.027 -0.031 0.035 -0.117 0.035 c -0.09 0 -0.117 0.008 -0.117 0.035 c 0 0.027 -0.031 0.035 -0.129 0.035 c -0.098 0 -0.129 0.008 -0.129 0.035 c 0 0.023 -0.023 0.035 -0.082 0.035 c -0.043 0 -0.082 0.008 -0.082 0.023 c 0 0.012 -0.051 0.023 -0.117 0.023 c -0.086 0 -0.117 0.008 -0.117 0.035 c 0 0.023 -0.027 0.035 -0.117 0.035 c -0.082 0 -0.121 0.008 -0.129 0.035 c -0.008 0.02 -0.023 0.035 -0.035 0.035 c -0.012 0 -0.02 -0.016 -0.02 -0.035"/><path d="m 13 15.957 c 0 -0.016 -0.051 -0.023 -0.117 -0.023 c -0.086 0 -0.113 -0.012 -0.113 -0.035 c 0 -0.027 -0.031 -0.035 -0.117 -0.035 c -0.09 0 -0.117 -0.012 -0.117 -0.035 c 0 -0.027 -0.031 -0.035 -0.129 -0.035 c -0.098 0 -0.129 -0.008 -0.129 -0.035 c 0 -0.027 -0.027 -0.035 -0.117 -0.035 c -0.086 0 -0.117 -0.012 -0.117 -0.035 c 0 -0.027 -0.023 -0.035 -0.094 -0.035 c -0.051 0 -0.094 -0.012 -0.094 -0.023 c 0 -0.016 -0.051 -0.023 -0.117 -0.023 c -0.086 0 -0.113 -0.008 -0.113 -0.035 c 0 -0.027 -0.031 -0.035 -0.117 -0.035 c -0.09 0 -0.117 -0.008 -0.117 -0.035 c 0 -0.027 -0.031 -0.035 -0.117 -0.035 c -0.09 0 -0.117 -0.008 -0.117 -0.035 c 0 -0.027 -0.027 -0.035 -0.117 -0.035 c -0.086 0 -0.117 -0.008 -0.117 -0.035 c 0 -0.027 -0.027 -0.035 -0.129 -0.035 c -0.07 0 -0.129 -0.012 -0.129 -0.023 c 0 -0.012 -0.051 -0.023 -0.113 -0.023 c -0.09 0 -0.117 -0.008 -0.117 -0.035 c 0 -0.027 -0.031 -0.035 -0.117 -0.035 c -0.09 0 -0.117 -0.008 -0.117 -0.035 c 0 -0.023 -0.027 -0.035 -0.086 -0.035 c -0.043 0 -0.098 -0.016 -0.117 -0.035 c -0.02 -0.02 -0.074 -0.035 -0.125 -0.035 c -0.051 0 -0.094 -0.012 -0.094 -0.023 c 0 -0.012 -0.051 -0.023 -0.117 -0.023 c -0.086 0 -0.117 -0.008 -0.117 -0.035 c 0 -0.027 -0.027 -0.035 -0.113 -0.035 c -0.09 0 -0.117 -0.008 -0.117 -0.035 c 0 -0.027 -0.031 -0.035 -0.129 -0.035 c -0.102 0 -0.129 -0.008 -0.129 -0.035 c 0 -0.023 -0.027 -0.035 -0.117 -0.035 c -0.09 0 -0.117 -0.008 -0.117 -0.035 c 0 -0.023 -0.027 -0.035 -0.117 -0.035 c -0.063 0 -0.117 -0.008 -0.117 -0.023 c 0 -0.012 -0.051 -0.023 -0.117 -0.023 c -0.086 0 -0.117 -0.008 -0.117 -0.035 c 0 -0.023 -0.027 -0.035 -0.102 -0.035 c -0.078 0 -0.105 -0.008 -0.105 -0.035 c 0 -0.023 -0.027 -0.035 -0.105 -0.035 c -0.066 0 -0.105 -0.008 -0.113 -0.031 c -0.012 -0.027 -0.047 -0.035 -0.121 -0.035 c -0.078 0 -0.105 -0.012 -0.105 -0.035 c 0 -0.027 -0.031 -0.035 -0.129 -0.035 c -0.07 0 -0.129 -0.012 -0.129 -0.023 c 0 -0.016 -0.051 -0.023 -0.117 -0.023 c -0.086 0 -0.117 -0.012 -0.117 -0.035 c 0 -0.027 -0.027 -0.035 -0.113 -0.035 c -0.09 0 -0.117 -0.012 -0.117 -0.035 c 0 -0.027 -0.031 -0.035 -0.117 -0.035 c -0.09 0 -0.117 -0.008 -0.117 -0.035 c 0 -0.027 -0.027 -0.035 -0.094 -0.035 c -0.055 0 -0.113 -0.016 -0.133 -0.035 c -0.02 -0.02 -0.07 -0.035 -0.113 -0.035 c -0.043 0 -0.082 -0.012 -0.082 -0.023 c 0 -0.012 -0.059 -0.023 -0.129 -0.023 c -0.098 0 -0.129 -0.008 -0.129 -0.035 c 0 -0.027 -0.027 -0.035 -0.113 -0.035 c -0.09 0 -0.117 -0.008 -0.117 -0.035 c 0 -0.027 -0.031 -0.035 -0.117 -0.035 c -0.09 0 -0.117 -0.008 -0.117 -0.035 c 0 -0.027 -0.027 -0.035 -0.117 -0.035 c -0.09 0 -0.117 -0.008 -0.117 -0.035 c 0 -0.023 -0.027 -0.035 -0.094 -0.035 c -0.051 0 -0.094 -0.012 -0.094 -0.023 c 0 -0.012 -0.059 -0.023 -0.129 -0.023 c -0.098 0 -0.125 -0.008 -0.125 -0.035 c 0 -0.027 -0.027 -0.035 -0.105 -0.035 c -0.07 0 -0.105 -0.012 -0.113 -0.035 c -0.012 -0.023 -0.051 -0.035 -0.133 -0.035 c -0.09 0 -0.117 -0.008 -0.117 -0.035 c 0 -0.027 -0.027 -0.035 -0.117 -0.035 c -0.063 0 -0.117 -0.008 -0.117 -0.023 c 0 -0.012 -0.051 -0.023 -0.117 -0.023 c -0.086 0 -0.117 -0.008 -0.117 -0.035 c 0 -0.027 -0.027 -0.035 -0.117 -0.035 c -0.086 0 -0.113 -0.008 -0.113 -0.035 c 0 -0.023 -0.031 -0.035 -0.117 -0.035 c -0.066 0 -0.117 -0.008 -0.117 -0.023 c 0 -0.012 0.008 -0.023 0.023 -0.023 c 0.012 0 0.023 -0.063 0.023 -0.137 c 0 -0.109 0.008 -0.141 0.035 -0.141 c 0.027 0 0.035 -0.031 0.035 -0.129 c 0 -0.07 0.008 -0.129 0.023 -0.129 c 0.012 0 0.023 -0.043 0.023 -0.094 c 0 -0.055 0.016 -0.113 0.035 -0.133 c 0.02 -0.02 0.035 -0.074 0.035 -0.125 c 0 -0.051 0.008 -0.094 0.023 -0.094 c 0.012 0 0.023 -0.059 0.023 -0.129 c 0 -0.098 0.008 -0.129 0.035 -0.129 c 0.027 0 0.035 -0.027 0.035 -0.137 c 0 -0.078 0.008 -0.141 0.02 -0.141 c 0.016 0 0.023 -0.043 0.023 -0.094 c 0 -0.066 0.012 -0.094 0.035 -0.094 c 0.027 0 0.035 -0.031 0.035 -0.129 c 0 -0.098 0.012 -0.129 0.035 -0.129 c 0.027 0 0.035 -0.027 0.035 -0.129 c 0 -0.07 0.012 -0.129 0.023 -0.129 c 0.016 0 0.023 -0.043 0.023 -0.094 c 0 -0.055 0.016 -0.109 0.035 -0.129 c 0.023 -0.023 0.035 -0.078 0.035 -0.141 c 0 -0.055 0.012 -0.102 0.023 -0.102 c 0.016 0 0.023 -0.059 0.023 -0.129 c 0 -0.098 0.008 -0.129 0.035 -0.129 c 0.027 0 0.035 -0.031 0.035 -0.129 c 0 -0.07 0.012 -0.129 0.023 -0.129 c 0.012 0 0.023 -0.043 0.023 -0.094 c 0 -0.055 0.016 -0.109 0.035 -0.129 c 0.02 -0.023 0.035 -0.078 0.035 -0.141 c 0 -0.055 0.012 -0.102 0.023 -0.102 c 0.012 0 0.023 -0.059 0.023 -0.129 c 0 -0.098 0.008 -0.129 0.035 -0.129 c 0.027 0 0.035 -0.031 0.035 -0.129 c 0 -0.098 0.008 -0.129 0.035 -0.129 c 0.027 0 0.035 -0.023 0.035 -0.094 c 0 -0.051 0.012 -0.094 0.023 -0.094 c 0.012 0 0.023 -0.063 0.023 -0.141 c 0 -0.105 0.008 -0.137 0.035 -0.137 c 0.027 0 0.035 -0.031 0.035 -0.129 c 0 -0.07 0.012 -0.129 0.023 -0.129 c 0.012 0 0.023 -0.043 0.023 -0.094 c 0 -0.055 0.016 -0.113 0.035 -0.133 c 0.02 -0.02 0.035 -0.074 0.035 -0.125 c 0 -0.051 0.012 -0.094 0.023 -0.094 c 0.012 0 0.023 -0.059 0.023 -0.129 c 0 -0.098 0.008 -0.129 0.035 -0.129 c 0.027 0 0.035 -0.027 0.035 -0.137 c 0 -0.078 0.008 -0.141 0.023 -0.141 c 0.012 0 0.023 -0.047 0.023 -0.105 c 0 -0.078 0.008 -0.105 0.035 -0.105 c 0.023 0 0.035 -0.027 0.035 -0.117 c 0 -0.09 0.008 -0.117 0.035 -0.117 c 0.027 0 0.035 -0.027 0.035 -0.129 c 0 -0.07 0.008 -0.129 0.023 -0.129 c 0.012 0 0.023 -0.063 0.023 -0.137 c 0 -0.109 0.008 -0.141 0.035 -0.141 c 0.023 0 0.035 -0.027 0.035 -0.094 c 0 -0.051 0.008 -0.094 0.023 -0.094 c 0.012 0 0.023 -0.059 0.023 -0.129 c 0 -0.098 0.008 -0.129 0.035 -0.129 c 0.023 0 0.031 -0.031 0.031 -0.129 c 0 -0.07 0.012 -0.129 0.023 -0.129 c 0.016 0 0.023 -0.059 0.023 -0.129 c 0 -0.098 0.012 -0.129 0.035 -0.129 c 0.027 0 0.035 -0.023 0.035 -0.102 c 0 -0.059 0.012 -0.105 0.023 -0.105 c 0.016 0 0.023 -0.043 0.023 -0.094 c 0 -0.07 0.012 -0.094 0.035 -0.094 c 0.02 0 0.035 0.016 0.035 0.035 c 0 0.02 0.012 0.035 0.023 0.035 c 0.016 0 0.023 0.027 0.023 0.059 c 0 0.035 0.016 0.059 0.035 0.059 c 0.02 0 0.035 0.016 0.035 0.035 c 0 0.02 0.012 0.035 0.023 0.035 c 0.016 0 0.023 0.016 0.023 0.035 c 0 0.02 0.016 0.035 0.035 0.035 c 0.02 0 0.035 0.016 0.035 0.035 c 0 0.016 0.012 0.035 0.023 0.035 c 0.012 0 0.023 0.023 0.023 0.055 c 0 0.039 0.016 0.059 0.035 0.059 c 0.02 0 0.035 0.016 0.035 0.035 c 0 0.02 0.012 0.035 0.023 0.035 c 0.012 0 0.023 0.016 0.023 0.035 c 0 0.02 0.016 0.035 0.035 0.035 c 0.02 0 0.035 0.016 0.035 0.035 c 0 0.02 0.016 0.035 0.035 0.035 c 0.023 0 0.035 0.023 0.035 0.059 c 0 0.031 0.012 0.059 0.023 0.059 c 0.012 0 0.023 0.016 0.023 0.035 c 0 0.02 0.016 0.035 0.035 0.035 c 0.02 0 0.035 0.016 0.035 0.035 c 0 0.02 0.012 0.035 0.023 0.035 c 0.012 0 0.023 0.016 0.023 0.035 c 0 0.02 0.016 0.035 0.035 0.035 c 0.02 0 0.035 0.023 0.035 0.059 c 0 0.031 0.008 0.059 0.023 0.059 c 0.012 0 0.023 0.016 0.023 0.035 c 0 0.02 0.016 0.035 0.035 0.035 c 0.02 0 0.035 0.012 0.035 0.023 c 0 0.031 0.059 0.094 0.09 0.094 c 0.016 0 0.027 0.031 0.027 0.07 c 0 0.047 0.012 0.07 0.035 0.07 c 0.02 0 0.035 0.016 0.035 0.035 c 0 0.016 0.008 0.035 0.023 0.035 c 0.012 0 0.023 0.016 0.023 0.035 c 0 0.016 0.008 0.031 0.023 0.031 c 0.031 0 0.09 0.063 0.09 0.094 c 0 0.012 0.016 0.023 0.035 0.023 c 0.023 0 0.035 0.023 0.035 0.07 c 0 0.039 0.012 0.07 0.023 0.07 c 0.016 0 0.023 0.016 0.023 0.035 c 0 0.02 0.012 0.035 0.027 0.035 c 0.031 0 0.09 0.059 0.09 0.094 c 0 0.012 0.016 0.023 0.035 0.023 c 0.023 0 0.035 0.023 0.035 0.059 c 0 0.035 0.016 0.066 0.035 0.074 c 0.02 0.008 0.035 0.023 0.035 0.035 c 0 0.031 0.063 0.09 0.094 0.09 c 0.012 0 0.023 0.016 0.023 0.035 c 0 0.02 0.012 0.035 0.023 0.035 c 0.012 0 0.023 0.027 0.023 0.059 c 0 0.031 0.016 0.066 0.035 0.07 c 0.02 0.008 0.035 0.027 0.035 0.039 c 0 0.027 0.059 0.09 0.09 0.09 c 0.016 0 0.027 0.016 0.027 0.031 c 0 0.02 0.012 0.035 0.023 0.035 c 0.012 0 0.023 0.027 0.023 0.055 c 0 0.051 0.07 0.133 0.117 0.133 c 0.012 0 0.023 0.016 0.023 0.035 c 0 0.02 0.008 0.035 0.023 0.035 c 0.012 0 0.023 0.016 0.023 0.035 c 0 0.02 0.016 0.035 0.035 0.035 c 0.02 0 0.035 0.023 0.035 0.059 c 0 0.031 0.008 0.059 0.023 0.059 c 0.012 0 0.023 0.016 0.023 0.035 c 0 0.02 0.016 0.035 0.035 0.035 c 0.02 0 0.035 0.016 0.035 0.035 c 0 0.02 0.008 0.035 0.023 0.035 c 0.012 0 0.023 0.016 0.023 0.035 c 0 0.02 0.016 0.035 0.035 0.035 c 0.016 0 0.031 0.016 0.031 0.035 c 0 0.02 0.012 0.035 0.023 0.035 c 0.016 0 0.023 0.027 0.023 0.059 c 0 0.035 0.016 0.059 0.035 0.059 c 0.02 0 0.035 0.016 0.035 0.035 c 0 0.02 0.016 0.035 0.035 0.035 c 0.02 0 0.035 0.016 0.035 0.035 c 0 0.02 0.012 0.035 0.023 0.035 c 0.016 0 0.023 0.016 0.023 0.035 c 0 0.02 0.016 0.035 0.035 0.035 c 0.023 0 0.035 0.02 0.035 0.059 c 0 0.031 0.012 0.055 0.023 0.055 c 0.016 0 0.023 0.02 0.023 0.035 c 0 0.02 0.016 0.035 0.035 0.035 c 0.02 0 0.035 0.016 0.035 0.035 c 0 0.02 0.012 0.035 0.023 0.035 c 0.012 0 0.023 0.016 0.023 0.035 c 0 0.02 0.016 0.035 0.035 0.035 c 0.023 0 0.035 0.023 0.035 0.059 c 0 0.035 0.012 0.059 0.023 0.059 c 0.012 0 0.023 0.016 0.023 0.035 c 0 0.02 0.016 0.035 0.035 0.035 c 0.02 0 0.035 0.016 0.035 0.035 c 0 0.02 0.016 0.035 0.035 0.035 c 0.02 0 0.035 0.016 0.035 0.035 c 0 0.02 0.012 0.035 0.023 0.035 c 0.012 0 0.023 0.027 0.023 0.059 c 0 0.035 0.012 0.059 0.035 0.059 c 0.02 0 0.035 0.016 0.035 0.035 c 0 0.02 0.012 0.035 0.023 0.035 c 0.012 0 0.023 0.016 0.023 0.035 c 0 0.02 0.016 0.035 0.035 0.035 c 0.02 0 0.035 0.016 0.035 0.035 c 0 0.02 0.008 0.035 0.023 0.035 c 0.012 0 0.027 0.027 0.035 0.059 c 0.008 0.031 0.023 0.059 0.035 0.059 c 0.012 0 0.023 0.016 0.023 0.035 c 0 0.02 0.008 0.035 0.023 0.035 c 0.012 0 0.023 0.016 0.023 0.035 c 0 0.02 0.016 0.035 0.035 0.035 c 0.02 0 0.035 0.016 0.035 0.035 c 0 0.016 0.012 0.035 0.023 0.035 c 0.043 0 0.094 0.063 0.094 0.125 c 0 0.039 0.012 0.059 0.035 0.059 c 0.016 0 0.031 0.016 0.031 0.035 c 0 0.02 0.012 0.035 0.023 0.035 c 0.016 0 0.023 0.016 0.023 0.035 c 0 0.02 0.012 0.035 0.027 0.035 c 0.039 0 0.09 0.066 0.09 0.117 c 0 0.027 0.016 0.055 0.035 0.063 c 0.02 0.008 0.035 0.027 0.035 0.047 c 0 0.016 0.016 0.031 0.035 0.031 c 0.02 0 0.035 0.012 0.035 0.023 c 0 0.063 0.07 0.094 0.211 0.094 c 0.078 0 0.141 -0.012 0.141 -0.023 c 0 -0.012 0.039 -0.023 0.09 -0.023 c 0.051 0 0.109 -0.016 0.129 -0.035 c 0.02 -0.02 0.07 -0.035 0.117 -0.035 c 0.059 0 0.086 -0.012 0.086 -0.035 c 0 -0.027 0.027 -0.035 0.113 -0.035 c 0.09 0 0.117 -0.008 0.117 -0.035 c 0 -0.023 0.027 -0.035 0.094 -0.035 c 0.07 0 0.094 -0.008 0.094 -0.035 c 0 -0.027 0.027 -0.035 0.117 -0.035 c 0.066 0 0.117 -0.012 0.117 -0.023 c 0 -0.012 0.055 -0.023 0.117 -0.023 c 0.082 0 0.121 -0.008 0.133 -0.035 c 0.008 -0.02 0.043 -0.035 0.09 -0.035 c 0.055 0 0.082 -0.008 0.082 -0.035 c 0 -0.023 0.027 -0.035 0.113 -0.035 c 0.09 0 0.117 -0.008 0.117 -0.035 c 0 -0.027 0.031 -0.035 0.129 -0.035 c 0.098 0 0.129 -0.008 0.129 -0.035 c 0 -0.023 0.023 -0.035 0.082 -0.035 c 0.047 0 0.082 -0.008 0.082 -0.023 c 0 -0.012 0.059 -0.023 0.129 -0.023 c 0.098 0 0.129 -0.008 0.129 -0.035 c 0 -0.023 0.027 -0.035 0.105 -0.035 c 0.07 0 0.109 -0.008 0.117 -0.031 c 0.012 -0.023 0.047 -0.035 0.105 -0.035 c 0.066 0 0.09 -0.012 0.09 -0.035 c 0 -0.027 0.031 -0.035 0.117 -0.035 c 0.09 0 0.117 -0.012 0.117 -0.035 c 0 -0.027 0.027 -0.035 0.117 -0.035 c 0.066 0 0.117 -0.012 0.117 -0.023 c 0 -0.016 0.043 -0.023 0.09 -0.023 c 0.051 0 0.109 -0.016 0.129 -0.035 c 0.02 -0.02 0.07 -0.035 0.117 -0.035 c 0.059 0 0.086 -0.012 0.086 -0.035 c 0 -0.027 0.027 -0.035 0.113 -0.035 c 0.09 0 0.117 -0.008 0.117 -0.035 c 0 -0.027 0.031 -0.035 0.117 -0.035 c 0.09 0 0.117 -0.008 0.117 -0.035 c 0 -0.027 0.027 -0.035 0.094 -0.035 c 0.051 0 0.094 -0.012 0.094 -0.023 c 0 -0.012 0.051 -0.023 0.117 -0.023 c 0.086 0 0.117 -0.008 0.117 -0.035 c 0 -0.027 0.023 -0.035 0.09 -0.035 c 0.051 0 0.109 -0.016 0.129 -0.035 c 0.02 -0.02 0.07 -0.035 0.117 -0.035 c 0.059 0 0.082 -0.012 0.082 -0.035 c 0 -0.027 0.031 -0.035 0.117 -0.035 c 0.066 0 0.117 -0.012 0.117 -0.023 c 0 -0.012 0.043 -0.023 0.094 -0.023 c 0.051 0 0.105 -0.016 0.125 -0.035 c 0.02 -0.02 0.074 -0.035 0.117 -0.035 c 0.059 0 0.086 -0.012 0.086 -0.035 c 0 -0.027 0.027 -0.035 0.117 -0.035 c 0.086 0 0.117 -0.008 0.117 -0.035 c 0 -0.027 0.027 -0.035 0.125 -0.035 c 0.102 0 0.129 -0.008 0.129 -0.035 c 0 -0.023 0.027 -0.035 0.082 -0.035 c 0.047 0 0.082 -0.008 0.082 -0.023 c 0 -0.012 0.059 -0.023 0.129 -0.023 c 0.098 0 0.129 -0.008 0.129 -0.035 c 0 -0.023 0.027 -0.035 0.105 -0.035 c 0.074 0 0.109 -0.008 0.121 -0.035 c 0.008 -0.02 0.043 -0.035 0.09 -0.035 c 0.055 0 0.082 -0.008 0.082 -0.035 c 0 -0.023 0.027 -0.035 0.125 -0.035 c 0.102 0 0.129 -0.008 0.129 -0.035 c 0 -0.02 0.023 -0.035 0.047 -0.035 c 0.027 0 0.047 0.016 0.047 0.035 c 0 0.02 -0.008 0.035 -0.023 0.035 c -0.012 0 -0.023 0.059 -0.023 0.129 c 0 0.102 -0.008 0.129 -0.035 0.129 c -0.027 0 -0.035 0.031 -0.035 0.129 c 0 0.07 -0.008 0.129 -0.023 0.129 c -0.012 0 -0.023 0.07 -0.023 0.164 c 0 0.129 -0.004 0.164 -0.035 0.164 c -0.023 0 -0.035 0.027 -0.035 0.129 c 0 0.07 -0.008 0.125 -0.023 0.125 c -0.012 0 -0.023 0.059 -0.023 0.129 c 0 0.102 -0.008 0.129 -0.035 0.129 c -0.027 0 -0.031 0.035 -0.031 0.164 c 0 0.129 -0.008 0.164 -0.035 0.164 c -0.027 0 -0.035 0.031 -0.035 0.129 c 0 0.07 -0.012 0.129 -0.023 0.129 c -0.016 0 -0.023 0.063 -0.023 0.141 c 0 0.105 -0.008 0.137 -0.035 0.137 c -0.027 0 -0.035 0.035 -0.035 0.164 c 0 0.094 -0.012 0.164 -0.023 0.164 c -0.016 0 -0.023 0.059 -0.023 0.129 c 0 0.098 -0.008 0.129 -0.035 0.129 c -0.027 0 -0.035 0.031 -0.035 0.129 c 0 0.07 -0.012 0.129 -0.023 0.129 c -0.016 0 -0.023 0.07 -0.023 0.164 c 0 0.129 -0.008 0.16 -0.035 0.16 c -0.027 0 -0.035 0.031 -0.035 0.129 c 0 0.07 -0.012 0.129 -0.023 0.129 c -0.012 0 -0.023 0.059 -0.023 0.129 c 0 0.098 -0.008 0.129 -0.035 0.129 c -0.027 0 -0.035 0.035 -0.035 0.164 c 0 0.129 -0.008 0.164 -0.035 0.164 c -0.027 0 -0.035 0.027 -0.035 0.125 c 0 0.074 -0.012 0.129 -0.023 0.129 c -0.012 0 -0.023 0.063 -0.023 0.141 c 0 0.109 -0.008 0.141 -0.035 0.141 c -0.027 0 -0.035 0.031 -0.035 0.152 c 0 0.086 -0.012 0.152 -0.023 0.152 c -0.012 0 -0.023 0.063 -0.023 0.141 c 0 0.109 -0.008 0.141 -0.035 0.141 c -0.027 0 -0.035 0.027 -0.035 0.125 c 0 0.07 -0.012 0.129 -0.023 0.129 c -0.012 0 -0.023 0.035 -0.023 0.074 c 0 0.063 -0.004 0.07 -0.051 0.055 c -0.031 -0.012 -0.059 -0.027 -0.063 -0.039 c -0.004 -0.008 -0.023 -0.02 -0.039 -0.02 c -0.02 0 -0.035 -0.016 -0.035 -0.035 c 0 -0.02 -0.02 -0.035 -0.059 -0.035 c -0.035 0 -0.059 -0.012 -0.059 -0.035 c 0 -0.02 -0.02 -0.035 -0.059 -0.035 c -0.035 0 -0.055 -0.012 -0.055 -0.035 c 0 -0.02 -0.023 -0.035 -0.059 -0.035 c -0.039 0 -0.059 -0.012 -0.059 -0.035 c 0 -0.023 -0.027 -0.035 -0.094 -0.035 c -0.051 0 -0.094 -0.008 -0.094 -0.023 c 0 -0.012 -0.176 -0.023 -0.48 -0.023 c -0.301 0 -0.477 0.012 -0.477 0.023 c 0 0.016 -0.043 0.023 -0.094 0.023 c -0.066 0 -0.094 0.012 -0.094 0.035 c 0 0.023 -0.023 0.035 -0.059 0.035 c -0.035 0 -0.059 0.016 -0.059 0.035 c 0 0.023 -0.023 0.035 -0.059 0.035 c -0.035 0 -0.059 0.016 -0.059 0.035 c 0 0.023 -0.023 0.035 -0.059 0.035 c -0.035 0 -0.059 0.016 -0.059 0.035 c 0 0.02 -0.016 0.035 -0.035 0.035 c -0.02 0 -0.035 0.012 -0.035 0.023 c 0 0.012 -0.023 0.023 -0.059 0.023 c -0.035 0 -0.059 0.016 -0.059 0.035 c 0 0.02 -0.008 0.035 -0.023 0.035 c -0.012 0 -0.023 0.016 -0.023 0.035 c 0 0.02 -0.016 0.035 -0.035 0.035 c -0.016 0 -0.031 0.016 -0.031 0.035 c 0 0.02 -0.012 0.035 -0.023 0.035 c -0.016 0 -0.023 0.016 -0.023 0.035 c 0 0.02 -0.016 0.035 -0.035 0.035 c -0.023 0 -0.035 0.023 -0.035 0.059 c 0 0.031 -0.012 0.059 -0.023 0.059 c -0.016 0 -0.023 0.016 -0.023 0.035 c 0 0.02 -0.016 0.035 -0.035 0.035 c -0.02 0 -0.035 0.016 -0.035 0.035 c 0 0.02 -0.012 0.035 -0.023 0.035 c -0.012 0 -0.027 0.027 -0.035 0.059 c -0.008 0.031 -0.023 0.059 -0.035 0.059 c -0.016 0 -0.023 0.031 -0.023 0.07 c 0 0.035 -0.012 0.07 -0.023 0.07 c -0.012 0 -0.031 0.039 -0.039 0.09 c -0.008 0.055 -0.023 0.094 -0.035 0.094 c -0.012 0 -0.02 0.074 -0.02 0.164 c 0 0.129 -0.008 0.164 -0.035 0.164 c -0.027 0 -0.035 0.031 -0.035 0.129 v 0.129 h -0.082 c -0.043 0 -0.082 -0.012 -0.082 -0.023"/><path d="m 14.684 17.789 c 0 -0.027 -0.027 -0.035 -0.09 -0.035 c -0.063 0 -0.098 -0.012 -0.105 -0.035 c -0.008 -0.023 -0.043 -0.035 -0.098 -0.035 c -0.055 0 -0.082 -0.012 -0.082 -0.035 c 0 -0.023 -0.02 -0.035 -0.059 -0.035 c -0.031 0 -0.059 -0.012 -0.059 -0.027 c 0 -0.039 -0.063 -0.09 -0.113 -0.09 c -0.027 0 -0.047 -0.016 -0.047 -0.035 c 0 -0.02 -0.016 -0.035 -0.035 -0.035 c -0.02 0 -0.035 -0.016 -0.035 -0.035 c 0 -0.02 -0.016 -0.035 -0.035 -0.035 c -0.02 0 -0.035 -0.016 -0.035 -0.035 c 0 -0.02 -0.012 -0.035 -0.023 -0.035 c -0.016 0 -0.023 -0.016 -0.023 -0.035 c 0 -0.02 -0.012 -0.035 -0.027 -0.035 c -0.035 0 -0.082 -0.051 -0.102 -0.109 c -0.008 -0.031 -0.027 -0.055 -0.039 -0.055 c -0.012 0 -0.02 -0.02 -0.02 -0.047 c 0 -0.023 -0.012 -0.047 -0.023 -0.047 c -0.012 0 -0.023 -0.023 -0.023 -0.055 c 0 -0.039 -0.012 -0.059 -0.035 -0.059 c -0.023 0 -0.035 -0.023 -0.035 -0.07 c 0 -0.039 -0.008 -0.07 -0.02 -0.07 c -0.012 0 -0.027 -0.043 -0.035 -0.094 c -0.008 -0.051 -0.027 -0.094 -0.039 -0.094 c -0.012 0 -0.023 -0.059 -0.023 -0.129 c 0 -0.098 -0.008 -0.129 -0.035 -0.129 c -0.027 0 -0.035 -0.043 -0.035 -0.258 c 0 -0.211 0.008 -0.254 0.035 -0.254 c 0.027 0 0.035 -0.031 0.035 -0.129 c 0 -0.102 0.008 -0.129 0.035 -0.129 c 0.027 0 0.035 -0.027 0.035 -0.105 c 0 -0.059 0.012 -0.105 0.023 -0.105 c 0.012 0 0.023 -0.027 0.023 -0.059 c 0 -0.035 0.012 -0.059 0.035 -0.059 c 0.02 0 0.035 -0.02 0.035 -0.047 c 0 -0.023 0.012 -0.047 0.023 -0.047 c 0.012 0 0.023 -0.023 0.023 -0.059 c 0 -0.035 0.012 -0.059 0.035 -0.059 c 0.02 0 0.035 -0.016 0.035 -0.035 c 0 -0.02 0.012 -0.035 0.023 -0.035 c 0.012 0 0.023 -0.016 0.023 -0.035 c 0 -0.016 0.008 -0.035 0.023 -0.035 c 0.012 0 0.027 -0.023 0.035 -0.055 c 0.012 -0.039 0.031 -0.059 0.059 -0.059 c 0.027 0 0.047 -0.016 0.047 -0.035 c 0 -0.02 0.02 -0.035 0.047 -0.035 c 0.023 0 0.047 -0.012 0.047 -0.027 c 0 -0.035 0.051 -0.082 0.109 -0.102 c 0.027 -0.008 0.051 -0.027 0.051 -0.039 c 0 -0.012 0.016 -0.02 0.035 -0.02 c 0.02 0 0.035 -0.016 0.035 -0.035 c 0 -0.023 0.023 -0.035 0.059 -0.035 c 0.039 0 0.059 -0.016 0.059 -0.035 c 0 -0.027 0.027 -0.035 0.094 -0.035 c 0.051 0 0.094 -0.012 0.094 -0.023 c 0 -0.012 0.055 -0.023 0.117 -0.023 c 0.09 0 0.117 -0.008 0.117 -0.035 c 0 -0.027 0.039 -0.035 0.234 -0.035 c 0.191 0 0.23 0.008 0.23 0.035 c 0 0.027 0.035 0.035 0.152 0.035 c 0.086 0 0.152 0.012 0.152 0.023 c 0 0.012 0.027 0.023 0.059 0.023 c 0.035 0 0.059 0.012 0.059 0.035 c 0 0.02 0.023 0.035 0.059 0.035 c 0.035 0 0.059 0.012 0.059 0.035 c 0 0.02 0.023 0.035 0.059 0.035 c 0.031 0 0.059 0.012 0.059 0.023 c 0 0.047 0.063 0.094 0.125 0.094 c 0.039 0 0.063 0.012 0.063 0.035 c 0 0.02 0.008 0.035 0.023 0.035 c 0.012 0 0.023 0.016 0.023 0.035 c 0 0.02 0.016 0.035 0.035 0.035 c 0.016 0 0.031 0.016 0.031 0.035 c 0 0.02 0.012 0.035 0.023 0.035 c 0.016 0 0.023 0.016 0.023 0.035 c 0 0.016 0.012 0.035 0.027 0.035 c 0.043 0 0.09 0.063 0.09 0.125 c 0 0.039 0.016 0.059 0.035 0.059 c 0.02 0 0.035 0.016 0.035 0.035 c 0 0.02 0.012 0.035 0.023 0.035 c 0.016 0 0.023 0.027 0.023 0.059 c 0 0.039 0.016 0.059 0.035 0.059 c 0.027 0 0.035 0.027 0.035 0.105 c 0 0.078 0.012 0.105 0.035 0.105 c 0.027 0 0.035 0.027 0.035 0.094 c 0 0.051 0.012 0.094 0.023 0.094 c 0.016 0 0.023 0.148 0.023 0.395 c 0 0.25 -0.008 0.398 -0.023 0.398 c -0.012 0 -0.023 0.055 -0.023 0.117 c 0 0.09 -0.008 0.117 -0.035 0.117 c -0.023 0 -0.035 0.023 -0.035 0.07 c 0 0.047 -0.012 0.07 -0.035 0.07 c -0.02 0 -0.035 0.02 -0.035 0.059 c 0 0.031 -0.008 0.059 -0.023 0.059 c -0.012 0 -0.023 0.031 -0.023 0.07 c 0 0.047 -0.012 0.066 -0.035 0.066 c -0.02 0 -0.035 0.02 -0.035 0.035 c 0 0.02 -0.008 0.035 -0.023 0.035 c -0.012 0 -0.023 0.016 -0.023 0.035 c 0 0.02 -0.008 0.035 -0.023 0.035 c -0.027 0 -0.094 0.059 -0.094 0.082 c 0 0.008 -0.023 0.039 -0.055 0.07 c -0.035 0.027 -0.059 0.066 -0.059 0.078 c 0 0.016 -0.016 0.027 -0.035 0.027 c -0.02 0 -0.035 0.016 -0.035 0.035 c 0 0.02 -0.016 0.035 -0.035 0.035 c -0.02 0 -0.035 0.012 -0.035 0.023 c 0 0.012 -0.027 0.023 -0.059 0.023 c -0.039 0 -0.059 0.012 -0.059 0.035 c 0 0.023 -0.023 0.035 -0.059 0.035 c -0.035 0 -0.059 0.012 -0.059 0.035 c 0 0.023 -0.023 0.035 -0.059 0.035 c -0.035 0 -0.059 0.012 -0.059 0.035 c 0 0.027 -0.027 0.035 -0.117 0.035 c -0.086 0 -0.117 0.008 -0.117 0.035 c 0 0.031 -0.055 0.035 -0.348 0.035 c -0.297 0 -0.352 -0.004 -0.352 -0.035 m 0.699 -0.188 c 0 -0.023 0.027 -0.035 0.094 -0.035 c 0.051 0 0.105 -0.016 0.125 -0.035 c 0.02 -0.02 0.063 -0.035 0.098 -0.035 c 0.031 0 0.059 -0.012 0.059 -0.023 c 0 -0.043 0.063 -0.094 0.113 -0.094 c 0.027 0 0.051 -0.016 0.051 -0.035 c 0 -0.02 0.016 -0.035 0.035 -0.035 c 0.02 0 0.035 -0.016 0.035 -0.035 c 0 -0.02 0.008 -0.035 0.023 -0.035 c 0.012 0 0.023 -0.016 0.023 -0.035 c 0 -0.02 0.016 -0.035 0.035 -0.035 c 0.02 0 0.035 -0.016 0.035 -0.035 c 0 -0.02 0.012 -0.035 0.023 -0.035 c 0.031 0 0.094 -0.059 0.094 -0.09 c 0 -0.012 0.016 -0.027 0.035 -0.035 c 0.016 -0.008 0.031 -0.039 0.031 -0.07 c 0 -0.035 0.012 -0.059 0.023 -0.059 c 0.016 0 0.023 -0.027 0.023 -0.059 c 0 -0.039 0.016 -0.059 0.035 -0.059 c 0.027 0 0.035 -0.027 0.035 -0.105 c 0 -0.059 0.012 -0.105 0.023 -0.105 c 0.016 0 0.023 -0.07 0.023 -0.164 c 0 -0.129 0.008 -0.164 0.035 -0.164 c 0.027 0 0.035 -0.027 0.035 -0.129 c 0 -0.098 -0.008 -0.129 -0.035 -0.129 c -0.027 0 -0.035 -0.031 -0.035 -0.16 c 0 -0.094 -0.008 -0.164 -0.023 -0.164 c -0.012 0 -0.023 -0.047 -0.023 -0.105 c 0 -0.078 -0.008 -0.105 -0.035 -0.105 c -0.02 0 -0.035 -0.023 -0.035 -0.059 c 0 -0.031 -0.008 -0.059 -0.02 -0.059 c -0.012 0 -0.027 -0.027 -0.035 -0.059 c -0.008 -0.031 -0.023 -0.059 -0.039 -0.059 c -0.012 0 -0.02 -0.016 -0.02 -0.035 c 0 -0.043 -0.055 -0.105 -0.094 -0.105 c -0.012 0 -0.023 -0.016 -0.023 -0.035 c 0 -0.02 -0.016 -0.035 -0.035 -0.035 c -0.02 0 -0.035 -0.016 -0.035 -0.035 c 0 -0.02 -0.012 -0.035 -0.023 -0.035 c -0.016 0 -0.023 -0.016 -0.023 -0.035 c 0 -0.016 -0.016 -0.035 -0.035 -0.035 c -0.02 0 -0.035 -0.016 -0.035 -0.035 c 0 -0.02 -0.023 -0.031 -0.051 -0.031 c -0.051 0 -0.113 -0.051 -0.113 -0.094 c 0 -0.016 -0.031 -0.023 -0.07 -0.023 c -0.047 0 -0.07 -0.012 -0.07 -0.035 c 0 -0.027 -0.027 -0.035 -0.117 -0.035 c -0.086 0 -0.117 -0.012 -0.117 -0.035 c 0 -0.055 -0.633 -0.055 -0.684 0 c -0.02 0.02 -0.078 0.035 -0.133 0.035 c -0.066 0 -0.094 0.008 -0.094 0.035 c 0 0.02 -0.023 0.035 -0.059 0.035 c -0.035 0 -0.059 0.012 -0.059 0.035 c 0 0.02 -0.02 0.035 -0.047 0.035 c -0.051 0 -0.117 0.047 -0.117 0.09 c 0 0.016 -0.016 0.023 -0.035 0.023 c -0.016 0 -0.035 0.016 -0.035 0.035 c 0 0.02 -0.02 0.035 -0.043 0.035 c -0.027 0 -0.047 0.016 -0.047 0.035 c 0 0.02 -0.016 0.035 -0.035 0.035 c -0.016 0 -0.039 0.027 -0.047 0.059 c -0.008 0.035 -0.023 0.059 -0.035 0.059 c -0.016 0 -0.023 0.016 -0.023 0.035 c 0 0.02 -0.016 0.035 -0.035 0.035 c -0.02 0 -0.035 0.016 -0.035 0.035 c 0 0.02 -0.012 0.035 -0.023 0.035 c -0.016 0 -0.023 0.027 -0.023 0.055 c 0 0.031 -0.016 0.063 -0.035 0.07 c -0.023 0.008 -0.035 0.047 -0.035 0.109 c 0 0.051 -0.012 0.094 -0.023 0.094 c -0.012 0 -0.023 0.043 -0.023 0.094 c 0 0.055 -0.016 0.109 -0.035 0.129 c -0.051 0.055 -0.051 0.613 0 0.633 c 0.023 0.008 0.035 0.043 0.035 0.105 c 0 0.047 0.012 0.09 0.023 0.09 c 0.012 0 0.023 0.043 0.023 0.094 c 0 0.066 0.008 0.094 0.035 0.094 c 0.023 0 0.035 0.023 0.035 0.07 c 0 0.035 0.008 0.07 0.023 0.07 c 0.012 0 0.023 0.016 0.023 0.035 c 0 0.016 0.016 0.031 0.035 0.031 c 0.02 0 0.035 0.02 0.035 0.035 c 0 0.02 0.008 0.035 0.02 0.035 c 0.012 0 0.031 0.023 0.039 0.055 c 0.02 0.063 0.164 0.203 0.211 0.203 c 0.02 0 0.031 0.012 0.031 0.027 c 0 0.039 0.066 0.09 0.117 0.09 c 0.027 0 0.047 0.016 0.047 0.035 c 0 0.023 0.023 0.035 0.059 0.035 c 0.035 0 0.059 0.012 0.059 0.035 c 0 0.023 0.027 0.035 0.09 0.035 c 0.063 0 0.098 0.012 0.105 0.035 c 0.012 0.027 0.074 0.035 0.363 0.035 c 0.297 0 0.352 -0.004 0.352 -0.035"/><path d="m 14.914 17.391 c 0 -0.027 -0.012 -0.027 -0.121 -0.027 c -0.121 0 -0.125 -0.004 -0.125 -0.039 c 0 -0.031 -0.004 -0.035 -0.086 -0.035 c -0.082 0 -0.086 0 -0.086 -0.035 c 0 -0.031 -0.004 -0.035 -0.055 -0.035 c -0.051 0 -0.059 -0.008 -0.059 -0.031 c 0 -0.02 -0.012 -0.027 -0.031 -0.027 c -0.02 0 -0.027 -0.012 -0.027 -0.035 c 0 -0.031 -0.008 -0.035 -0.035 -0.035 c -0.027 0 -0.035 -0.008 -0.035 -0.031 c 0 -0.02 -0.012 -0.027 -0.031 -0.027 c -0.02 0 -0.027 -0.012 -0.027 -0.035 c 0 -0.027 -0.008 -0.039 -0.027 -0.039 c -0.02 0 -0.031 -0.008 -0.031 -0.027 c 0 -0.02 -0.008 -0.027 -0.027 -0.027 c -0.023 0 -0.031 -0.012 -0.031 -0.039 c 0 -0.023 -0.008 -0.035 -0.027 -0.035 c -0.023 0 -0.027 -0.008 -0.027 -0.059 c 0 -0.047 -0.008 -0.059 -0.031 -0.066 c -0.02 -0.004 -0.027 -0.023 -0.031 -0.066 c -0.004 -0.051 -0.008 -0.063 -0.035 -0.063 c -0.027 -0.008 -0.035 -0.016 -0.035 -0.07 c 0 -0.055 -0.004 -0.063 -0.027 -0.063 c -0.027 0 -0.027 -0.012 -0.027 -0.391 c 0 -0.379 0 -0.387 0.027 -0.387 c 0.023 0 0.027 -0.012 0.027 -0.066 c 0 -0.059 0.004 -0.063 0.039 -0.063 c 0.031 0 0.035 -0.008 0.035 -0.066 c 0 -0.055 0.004 -0.066 0.031 -0.066 c 0.027 0 0.027 0.008 0.02 0.047 c -0.004 0.023 -0.008 0.066 -0.008 0.094 c 0 0.039 -0.004 0.047 -0.027 0.047 c -0.027 0 -0.031 0.012 -0.031 0.102 c 0 0.09 0 0.102 -0.027 0.102 c -0.027 0 -0.031 0.008 -0.031 0.266 c 0 0.258 0.004 0.266 0.031 0.266 c 0.023 0 0.027 0.012 0.027 0.094 c 0 0.086 0.004 0.094 0.031 0.094 c 0.023 0 0.027 0.008 0.027 0.066 c 0 0.055 0.004 0.063 0.027 0.063 c 0.027 0 0.031 0.012 0.031 0.066 c 0 0.059 0 0.063 0.035 0.063 c 0.027 0 0.035 0.008 0.035 0.039 c 0 0.023 0.008 0.035 0.031 0.035 c 0.016 0 0.027 0.008 0.027 0.027 c 0 0.02 0.008 0.031 0.027 0.031 c 0.023 0 0.031 0.008 0.031 0.035 c 0 0.027 0.008 0.035 0.027 0.035 c 0.02 0 0.027 0.008 0.027 0.027 c 0 0.02 0.012 0.031 0.031 0.031 c 0.02 0 0.027 0.008 0.027 0.035 c 0 0.031 0.008 0.035 0.059 0.035 c 0.047 0 0.059 0.004 0.059 0.031 c 0 0.023 0.008 0.027 0.063 0.027 c 0.059 0 0.066 0.004 0.066 0.035 c 0 0.035 0.004 0.035 0.086 0.035 c 0.074 0 0.086 0.004 0.086 0.031 c 0 0.027 0.008 0.027 0.242 0.027 c 0.238 0 0.246 0 0.246 -0.027 c 0 -0.027 0.012 -0.031 0.086 -0.031 c 0.082 0 0.086 0 0.086 -0.035 c 0 -0.031 0.004 -0.035 0.066 -0.035 c 0.055 0 0.063 -0.004 0.063 -0.027 c 0 -0.027 0.012 -0.031 0.059 -0.031 c 0.051 0 0.059 -0.004 0.059 -0.035 c 0 -0.027 0.008 -0.035 0.027 -0.035 c 0.02 0 0.027 -0.012 0.027 -0.027 c 0 -0.023 0.016 -0.031 0.059 -0.039 c 0.055 -0.008 0.059 -0.012 0.059 -0.066 c 0 -0.051 0.004 -0.055 0.035 -0.055 c 0.031 0 0.035 -0.008 0.035 -0.035 c 0 -0.027 0.008 -0.039 0.031 -0.039 c 0.016 0 0.027 -0.008 0.027 -0.023 c 0 -0.016 0.012 -0.031 0.027 -0.035 c 0.023 -0.008 0.031 -0.02 0.031 -0.066 c 0 -0.051 0.004 -0.059 0.027 -0.059 c 0.027 0 0.031 -0.012 0.031 -0.102 c 0 -0.094 0 -0.102 0.027 -0.102 c 0.027 0 0.027 -0.008 0.027 -0.332 c 0 -0.32 0 -0.328 -0.027 -0.328 c -0.027 0 -0.027 -0.012 -0.027 -0.094 c 0 -0.086 -0.004 -0.094 -0.031 -0.094 c -0.023 0 -0.027 -0.012 -0.027 -0.066 c 0 -0.055 -0.004 -0.063 -0.027 -0.063 c -0.023 0 -0.031 -0.016 -0.039 -0.066 c -0.004 -0.043 -0.016 -0.066 -0.027 -0.066 c -0.016 0 -0.023 -0.012 -0.023 -0.035 c 0 -0.027 -0.004 -0.035 -0.035 -0.035 c -0.027 0 -0.035 -0.008 -0.035 -0.035 c 0 -0.027 -0.008 -0.039 -0.027 -0.039 c -0.02 0 -0.031 -0.008 -0.031 -0.027 c 0 -0.02 -0.008 -0.027 -0.027 -0.027 c -0.02 0 -0.031 -0.012 -0.031 -0.027 c 0 -0.023 -0.012 -0.031 -0.055 -0.039 c -0.043 -0.008 -0.059 -0.016 -0.059 -0.035 c 0 -0.023 -0.012 -0.027 -0.059 -0.027 c -0.051 0 -0.059 -0.004 -0.059 -0.039 c 0 -0.035 0 -0.035 -0.09 -0.035 c -0.086 0 -0.094 -0.004 -0.094 -0.027 c 0 -0.027 -0.012 -0.031 -0.305 -0.031 c -0.293 0 -0.301 0.004 -0.301 0.031 c 0 0.023 -0.012 0.027 -0.086 0.027 c -0.082 0 -0.086 0.004 -0.086 0.035 c 0 0.035 -0.004 0.039 -0.066 0.039 c -0.055 0 -0.063 -0.008 -0.063 -0.031 c 0 -0.02 0.008 -0.027 0.035 -0.027 c 0.027 0 0.035 -0.008 0.035 -0.035 c 0 -0.035 0.004 -0.039 0.086 -0.039 c 0.078 0 0.086 0 0.086 -0.027 c 0 -0.027 0.012 -0.027 0.121 -0.027 c 0.121 0 0.125 0 0.125 -0.039 c 0 -0.035 0 -0.035 0.121 -0.035 c 0.109 0 0.121 0.004 0.121 0.027 c 0 0.035 0.039 0.047 0.18 0.047 c 0.102 0 0.109 0 0.109 0.027 c 0 0.023 0.012 0.027 0.059 0.027 c 0.051 0 0.059 0.004 0.059 0.039 c 0 0.031 0.004 0.035 0.055 0.035 c 0.051 0 0.059 0.004 0.059 0.027 c 0 0.023 0.008 0.031 0.066 0.031 c 0.059 0 0.063 0 0.063 0.035 c 0 0.027 0.008 0.035 0.031 0.035 c 0.016 0 0.027 0.008 0.027 0.027 c 0 0.02 0.008 0.031 0.027 0.031 c 0.023 0 0.031 0.008 0.031 0.035 c 0 0.027 0.008 0.035 0.027 0.035 c 0.02 0 0.027 0.012 0.027 0.031 c 0 0.016 0.012 0.027 0.031 0.027 c 0.023 0 0.027 0.012 0.031 0.066 c 0.004 0.059 0.008 0.07 0.035 0.074 c 0.023 0.004 0.035 0.016 0.035 0.031 c 0 0.02 0.008 0.027 0.027 0.027 c 0.027 0 0.027 0.012 0.027 0.094 c 0 0.086 0.004 0.094 0.031 0.094 c 0.023 0 0.027 0.012 0.027 0.102 c 0 0.09 0.004 0.102 0.027 0.102 c 0.031 0 0.031 0.008 0.031 0.258 c 0 0.25 0 0.258 -0.031 0.258 c -0.023 0 -0.027 0.012 -0.027 0.102 c 0 0.09 -0.004 0.102 -0.027 0.102 c -0.027 0 -0.031 0.008 -0.031 0.094 c 0 0.082 0 0.094 -0.027 0.094 c -0.02 0 -0.027 0.008 -0.027 0.035 c 0 0.027 -0.008 0.035 -0.039 0.035 c -0.031 0 -0.035 0.008 -0.035 0.066 c 0 0.055 -0.004 0.063 -0.027 0.063 c -0.02 0 -0.031 0.012 -0.031 0.031 c 0 0.02 -0.008 0.027 -0.027 0.027 c -0.02 0 -0.027 0.012 -0.027 0.035 c 0 0.027 -0.008 0.039 -0.031 0.039 c -0.02 0 -0.027 0.008 -0.027 0.027 c 0 0.02 -0.012 0.027 -0.027 0.027 c -0.023 0 -0.031 0.012 -0.031 0.039 c 0 0.031 -0.004 0.035 -0.063 0.035 c -0.055 0 -0.066 0.004 -0.066 0.027 c 0 0.02 -0.016 0.027 -0.051 0.035 c -0.035 0.008 -0.051 0.016 -0.051 0.039 c 0 0.023 -0.008 0.027 -0.063 0.027 c -0.063 0 -0.066 0.004 -0.066 0.035 c 0 0.035 0 0.035 -0.121 0.035 c -0.113 0 -0.125 0.004 -0.125 0.031 c 0 0.027 -0.008 0.027 -0.141 0.027 c -0.137 0 -0.145 0 -0.145 -0.027"/><path d="m 14.25 15.1 c 0 -0.02 0.012 -0.027 0.031 -0.027 c 0.02 0 0.027 0.008 0.027 0.027 c 0 0.02 -0.008 0.031 -0.027 0.031 c -0.02 0 -0.031 -0.012 -0.031 -0.031"/><path d="m 14.02 15.34 c 0 -0.055 0.004 -0.066 0.027 -0.066 c 0.02 0 0.027 -0.008 0.027 -0.035 c 0 -0.027 0.008 -0.035 0.031 -0.035 c 0.023 0 0.027 0.008 0.027 0.066 c 0 0.059 -0.004 0.063 -0.035 0.063 c -0.031 0 -0.035 0.008 -0.035 0.035 c 0 0.023 -0.012 0.039 -0.023 0.039 c -0.016 0 -0.02 -0.02 -0.02 -0.066"/><path d="m 14.203 15.14 c 0.012 -0.004 0.027 -0.004 0.039 0 c 0.008 0.004 0 0.008 -0.02 0.008 c -0.02 0 -0.027 -0.004 -0.02 -0.008"/><path d="m 14.25 15.05 c 0 -0.023 0.012 -0.031 0.039 -0.031 c 0.027 0 0.035 -0.008 0.035 -0.035 c 0 -0.031 0.008 -0.035 0.051 -0.035 c 0.039 0 0.051 0.004 0.051 0.027 c 0 0.02 -0.012 0.027 -0.031 0.027 c -0.02 0 -0.027 0.012 -0.027 0.039 c 0 0.031 -0.008 0.035 -0.059 0.035 c -0.047 0 -0.059 -0.004 -0.059 -0.027"/><path d="m 14.438 14.973 c 0 -0.016 0.012 -0.027 0.023 -0.027 c 0.012 0 0.02 0.012 0.02 0.027 c 0 0.016 -0.008 0.027 -0.02 0.027 c -0.012 0 -0.023 -0.012 -0.023 -0.027"/><path d="m 14.14 15.176 c 0 -0.02 0.008 -0.031 0.027 -0.031 c 0.02 0 0.031 0.012 0.031 0.031 c 0 0.02 -0.012 0.027 -0.031 0.027 c -0.02 0 -0.027 -0.008 -0.027 -0.027"/><path d="m 14.195 15.176 c 0 -0.02 0.008 -0.031 0.027 -0.031 c 0.02 0 0.027 0.012 0.027 0.031 c 0 0.02 -0.008 0.027 -0.027 0.027 c -0.02 0 -0.027 -0.008 -0.027 -0.027"/><path d="m 14.195 15.1 c 0 -0.02 0.008 -0.027 0.027 -0.027 c 0.02 0 0.027 0.008 0.027 0.027 c 0 0.02 -0.008 0.031 -0.027 0.031 c -0.02 0 -0.027 -0.012 -0.027 -0.031"/></g></svg>