<svg xmlns="http://www.w3.org/2000/svg" viewBox="0 0 22 22"><path d="m 5.137 19.488 c 8.184 7.176 20.777 -4.145 15.688 -13.621 c -5.148 -9.578 -22.19 -7.03 -20.738 4.738 c 0.434 3.504 2.379 6.539 5.05 8.883" fill="#b0c3de"/><g fill="#fff"><path d="m 9.746 4.414 c -1.031 0 -1.867 0.922 -1.867 2.066 c 0 1.141 0.836 2.062 1.867 2.062 c 1.031 0 1.867 -0.922 1.867 -2.062 c 0 -1.141 -0.836 -2.066 -1.867 -2.066 m -0.523 4.734 c -1.629 0 -2.938 1.449 -2.938 3.246 c 0 1.801 1.309 3.254 2.938 3.254 h 1.047 c 1.629 0 2.941 -1.453 2.941 -3.254 c 0 -1.797 -1.313 -3.246 -2.941 -3.246 h -1.047"/><path d="m 13.258 8.742 h 4.91 v 1.352 h -4.91"/><path d="m 16.391 6.961 v 4.91 h -1.352 v -4.91"/></g></svg>