<svg xmlns="http://www.w3.org/2000/svg" viewBox="0 0 22 22"><path d="m 10.11 21.922 c 13.344 1.254 16.938 -19.891 3.234 -21.535 c -12.602 -2.035 -19.09 17.13 -6.57 20.969 c 1.059 0.418 2.215 0.41 3.336 0.566" fill="#66cdaa"/><g fill="#fff" fill-rule="evenodd"><path d="m 15.203 16.883 c 0 -0.027 -0.012 -0.035 -0.063 -0.035 c -0.043 0 -0.063 -0.008 -0.063 -0.027 c 0 -0.016 -0.02 -0.023 -0.063 -0.023 c -0.043 0 -0.063 -0.008 -0.063 -0.027 c 0 -0.02 -0.02 -0.027 -0.063 -0.027 c -0.043 0 -0.063 -0.008 -0.063 -0.027 c 0 -0.012 -0.016 -0.027 -0.035 -0.027 c -0.023 0 -0.035 -0.012 -0.035 -0.035 c 0 -0.027 -0.012 -0.035 -0.063 -0.035 c -0.043 0 -0.059 -0.008 -0.059 -0.023 c 0 -0.016 -0.012 -0.027 -0.027 -0.027 c -0.016 0 -0.027 -0.012 -0.027 -0.027 c 0 -0.02 -0.02 -0.027 -0.063 -0.027 c -0.043 0 -0.063 -0.008 -0.063 -0.027 c 0 -0.012 -0.012 -0.023 -0.027 -0.023 c -0.012 0 -0.023 -0.016 -0.023 -0.035 c 0 -0.027 -0.012 -0.039 -0.035 -0.039 c -0.02 0 -0.035 -0.012 -0.035 -0.023 c 0 -0.02 -0.02 -0.027 -0.063 -0.027 c -0.043 0 -0.063 -0.008 -0.063 -0.027 c 0 -0.016 -0.012 -0.027 -0.027 -0.027 c -0.016 0 -0.027 -0.016 -0.027 -0.035 c 0 -0.023 -0.012 -0.035 -0.035 -0.035 c -0.02 0 -0.035 -0.012 -0.035 -0.027 c 0 -0.016 -0.02 -0.023 -0.063 -0.023 c -0.043 0 -0.063 -0.012 -0.063 -0.027 c 0 -0.016 -0.012 -0.027 -0.027 -0.027 c -0.012 0 -0.023 -0.012 -0.023 -0.027 c 0 -0.016 -0.012 -0.027 -0.027 -0.027 c -0.016 0 -0.027 -0.016 -0.027 -0.035 c 0 -0.023 -0.012 -0.035 -0.035 -0.035 c -0.02 0 -0.035 -0.012 -0.035 -0.027 c 0 -0.012 -0.016 -0.023 -0.035 -0.023 c -0.02 0 -0.035 -0.012 -0.035 -0.027 c 0 -0.02 -0.02 -0.027 -0.055 -0.027 c -0.035 0 -0.051 -0.008 -0.051 -0.027 c 0 -0.016 -0.016 -0.027 -0.035 -0.027 c -0.027 0 -0.039 -0.012 -0.039 -0.035 c 0 -0.02 -0.012 -0.035 -0.023 -0.035 c -0.016 0 -0.027 -0.012 -0.027 -0.027 c 0 -0.012 -0.016 -0.023 -0.035 -0.023 c -0.02 0 -0.035 -0.012 -0.035 -0.027 c 0 -0.02 -0.02 -0.027 -0.063 -0.027 c -0.051 0 -0.063 -0.008 -0.063 -0.035 c 0 -0.02 -0.012 -0.035 -0.027 -0.035 c -0.016 0 -0.027 -0.012 -0.027 -0.027 c 0 -0.016 -0.012 -0.027 -0.023 -0.027 c -0.016 0 -0.027 -0.012 -0.027 -0.023 c 0 -0.016 -0.016 -0.027 -0.035 -0.027 c -0.02 0 -0.035 -0.012 -0.035 -0.027 c 0 -0.016 -0.012 -0.027 -0.027 -0.027 c -0.016 0 -0.027 -0.016 -0.027 -0.035 c 0 -0.023 -0.012 -0.035 -0.035 -0.035 c -0.02 0 -0.035 -0.012 -0.035 -0.027 c 0 -0.016 -0.016 -0.027 -0.035 -0.027 c -0.02 0 -0.035 -0.012 -0.035 -0.023 c 0 -0.016 -0.012 -0.027 -0.027 -0.027 c -0.016 0 -0.027 -0.012 -0.027 -0.027 c 0 -0.02 -0.02 -0.027 -0.063 -0.027 c -0.051 0 -0.063 -0.004 -0.063 -0.035 c 0 -0.02 -0.012 -0.035 -0.023 -0.035 c -0.016 0 -0.027 -0.012 -0.027 -0.027 c 0 -0.012 -0.016 -0.023 -0.035 -0.023 c -0.02 0 -0.035 -0.012 -0.035 -0.027 c 0 -0.016 -0.012 -0.027 -0.027 -0.027 c -0.016 0 -0.027 -0.016 -0.027 -0.035 c 0 -0.02 -0.012 -0.035 -0.027 -0.035 c -0.012 0 -0.027 -0.012 -0.027 -0.027 c 0 -0.016 -0.016 -0.027 -0.035 -0.027 c -0.02 0 -0.035 -0.012 -0.035 -0.027 c 0 -0.012 -0.012 -0.023 -0.023 -0.023 c -0.016 0 -0.027 -0.012 -0.027 -0.027 c 0 -0.016 -0.016 -0.027 -0.035 -0.027 c -0.02 0 -0.035 -0.012 -0.035 -0.027 c 0 -0.016 -0.027 -0.027 -0.063 -0.035 c -0.035 -0.008 -0.063 -0.023 -0.063 -0.035 c 0 -0.016 -0.012 -0.027 -0.027 -0.027 c -0.016 0 -0.027 -0.012 -0.027 -0.027 c 0 -0.012 -0.016 -0.023 -0.035 -0.023 c -0.02 0 -0.035 -0.012 -0.035 -0.027 c 0 -0.016 -0.012 -0.027 -0.027 -0.027 c -0.012 0 -0.023 -0.016 -0.023 -0.035 c 0 -0.023 -0.012 -0.035 -0.039 -0.035 c -0.02 0 -0.035 -0.012 -0.035 -0.027 c 0 -0.016 -0.012 -0.027 -0.023 -0.027 c -0.016 0 -0.027 -0.012 -0.027 -0.023 c 0 -0.016 -0.016 -0.027 -0.035 -0.027 c -0.023 0 -0.035 -0.012 -0.035 -0.035 c 0 -0.02 -0.012 -0.035 -0.027 -0.035 c -0.016 0 -0.027 -0.012 -0.027 -0.027 c 0 -0.016 -0.012 -0.027 -0.027 -0.027 c -0.012 0 -0.023 -0.012 -0.023 -0.027 c 0 -0.016 -0.02 -0.027 -0.039 -0.027 c -0.02 0 -0.035 -0.012 -0.035 -0.023 c 0 -0.016 -0.008 -0.027 -0.023 -0.027 c -0.012 0 -0.027 -0.016 -0.035 -0.035 c -0.004 -0.02 -0.02 -0.035 -0.035 -0.035 c -0.016 0 -0.027 -0.012 -0.027 -0.027 c 0 -0.02 -0.02 -0.027 -0.063 -0.027 c -0.043 0 -0.063 -0.008 -0.063 -0.027 c 0 -0.016 -0.02 -0.023 -0.063 -0.023 c -0.043 0 -0.063 0.008 -0.063 0.023 c 0 0.016 -0.012 0.027 -0.027 0.027 c -0.016 0 -0.031 0.016 -0.039 0.035 c -0.004 0.02 -0.02 0.035 -0.031 0.035 c -0.016 0 -0.027 0.02 -0.027 0.055 c 0 0.035 -0.008 0.051 -0.023 0.051 c -0.016 0 -0.027 0.016 -0.027 0.027 c 0 0.016 -0.016 0.027 -0.035 0.027 c -0.02 0 -0.035 0.012 -0.035 0.027 c 0 0.016 -0.012 0.027 -0.027 0.027 c -0.02 0 -0.027 0.016 -0.027 0.063 c 0 0.047 -0.008 0.059 -0.035 0.059 c -0.02 0 -0.035 0.012 -0.035 0.027 c 0 0.016 -0.012 0.027 -0.027 0.027 c -0.016 0 -0.027 0.016 -0.027 0.035 c 0 0.023 -0.012 0.035 -0.035 0.035 c -0.02 0 -0.035 0.012 -0.035 0.027 c 0 0.016 -0.012 0.027 -0.027 0.027 c -0.016 0 -0.023 0.016 -0.023 0.051 c 0 0.043 -0.008 0.055 -0.035 0.055 c -0.027 0 -0.039 0.012 -0.039 0.035 c 0 0.02 -0.012 0.035 -0.023 0.035 c -0.02 0 -0.027 0.02 -0.027 0.055 c 0 0.039 -0.008 0.051 -0.035 0.051 c -0.02 0 -0.035 0.012 -0.035 0.027 c 0 0.016 -0.012 0.027 -0.027 0.027 c -0.016 0 -0.027 0.016 -0.027 0.035 c 0 0.02 -0.012 0.035 -0.023 0.035 c -0.016 0 -0.031 0.023 -0.039 0.055 c -0.004 0.027 -0.023 0.051 -0.035 0.051 c -0.016 0 -0.027 0.016 -0.027 0.035 c 0 0.02 -0.012 0.035 -0.023 0.035 c -0.02 0 -0.027 0.02 -0.027 0.055 c 0 0.043 -0.008 0.055 -0.035 0.055 c -0.02 0 -0.035 0.012 -0.035 0.027 c 0 0.012 -0.012 0.023 -0.027 0.023 c -0.02 0 -0.027 0.02 -0.027 0.063 c 0 0.051 -0.008 0.063 -0.035 0.063 c -0.02 0 -0.035 0.012 -0.035 0.027 c 0 0.016 -0.012 0.027 -0.027 0.027 c -0.016 0 -0.027 0.008 -0.027 0.023 c 0 0.012 -0.016 0.027 -0.035 0.035 c -0.023 0.004 -0.035 0.023 -0.035 0.063 c 0 0.035 -0.008 0.055 -0.027 0.055 c -0.012 0 -0.023 0.012 -0.023 0.027 c 0 0.016 -0.016 0.027 -0.035 0.027 c -0.031 0 -0.039 0.012 -0.039 0.063 c 0 0.043 -0.008 0.059 -0.023 0.059 c -0.016 0 -0.027 0.012 -0.027 0.027 c 0 0.016 -0.016 0.027 -0.035 0.027 c -0.02 0 -0.035 0.012 -0.035 0.023 c 0 0.016 -0.012 0.031 -0.027 0.035 c -0.016 0.008 -0.027 0.035 -0.027 0.066 c 0 0.035 -0.008 0.051 -0.027 0.051 c -0.012 0 -0.023 0.012 -0.023 0.027 c 0 0.016 -0.016 0.027 -0.039 0.027 c -0.02 0 -0.035 0.012 -0.035 0.027 c 0 0.012 -0.012 0.027 -0.023 0.027 c -0.02 0 -0.027 0.016 -0.027 0.059 c 0 0.051 -0.008 0.063 -0.035 0.063 c -0.02 0 -0.035 0.012 -0.035 0.027 c 0 0.016 -0.012 0.027 -0.027 0.027 c -0.016 0 -0.027 0.016 -0.027 0.035 c 0 0.023 -0.012 0.035 -0.035 0.035 c -0.02 0 -0.035 0.012 -0.035 0.027 c 0 0.016 -0.012 0.027 -0.027 0.027 c -0.016 0 -0.027 0.012 -0.027 0.023 c 0 0.016 -0.016 0.027 -0.035 0.027 c -0.02 0 -0.035 0.012 -0.035 0.027 c 0 0.016 -0.012 0.027 -0.027 0.027 c -0.012 0 -0.023 0.016 -0.023 0.035 c 0 0.027 -0.012 0.035 -0.063 0.035 c -0.043 0 -0.063 0.008 -0.063 0.027 c 0 0.02 -0.023 0.027 -0.117 0.027 c -0.09 0 -0.113 -0.008 -0.113 -0.027 c 0 -0.023 -0.027 -0.027 -0.125 -0.027 c -0.113 0 -0.125 -0.004 -0.125 -0.035 c 0 -0.027 -0.012 -0.035 -0.059 -0.035 c -0.047 0 -0.063 -0.008 -0.063 -0.027 c 0 -0.02 -0.02 -0.027 -0.063 -0.027 c -0.043 0 -0.063 -0.008 -0.063 -0.027 c 0 -0.012 -0.012 -0.023 -0.027 -0.023 c -0.016 0 -0.027 -0.012 -0.027 -0.027 c 0 -0.016 -0.016 -0.027 -0.035 -0.027 c -0.02 0 -0.035 -0.012 -0.035 -0.027 c 0 -0.016 -0.023 -0.027 -0.063 -0.035 c -0.035 -0.008 -0.063 -0.023 -0.063 -0.035 c 0 -0.016 -0.012 -0.027 -0.023 -0.027 c -0.016 0 -0.027 -0.012 -0.027 -0.027 c 0 -0.012 -0.016 -0.023 -0.035 -0.023 c -0.031 0 -0.035 -0.012 -0.035 -0.063 c 0 -0.043 -0.008 -0.063 -0.027 -0.063 c -0.016 0 -0.027 -0.012 -0.027 -0.027 c 0 -0.016 -0.016 -0.027 -0.035 -0.027 c -0.027 0 -0.035 -0.012 -0.035 -0.063 c 0 -0.043 -0.008 -0.059 -0.027 -0.059 c -0.016 0 -0.027 -0.02 -0.027 -0.055 c 0 -0.043 -0.008 -0.055 -0.035 -0.055 c -0.031 0 -0.035 -0.012 -0.035 -0.141 c 0 -0.129 0.004 -0.141 0.035 -0.141 c 0.031 0 0.035 -0.012 0.035 -0.063 c 0 -0.043 0.008 -0.063 0.027 -0.063 c 0.02 0 0.027 -0.02 0.027 -0.055 c 0 -0.039 0.008 -0.051 0.035 -0.051 c 0.027 0 0.035 -0.012 0.035 -0.063 c 0 -0.043 0.008 -0.063 0.027 -0.063 c 0.016 0 0.027 -0.012 0.027 -0.027 c 0 -0.016 0.016 -0.027 0.035 -0.027 c 0.027 0 0.035 -0.012 0.035 -0.051 c 0 -0.035 0.008 -0.055 0.027 -0.055 c 0.012 0 0.023 -0.016 0.023 -0.035 c 0 -0.023 0.012 -0.035 0.035 -0.035 c 0.031 0 0.039 -0.012 0.039 -0.055 c 0 -0.035 0.008 -0.051 0.023 -0.051 c 0.016 0 0.027 -0.016 0.027 -0.035 c 0 -0.023 0.012 -0.035 0.035 -0.035 c 0.02 0 0.035 -0.012 0.035 -0.027 c 0 -0.016 0.012 -0.027 0.027 -0.027 c 0.02 0 0.027 -0.016 0.027 -0.055 c 0 -0.035 0.008 -0.051 0.027 -0.051 c 0.012 0 0.023 -0.016 0.023 -0.035 c 0 -0.023 0.012 -0.035 0.039 -0.035 c 0.02 0 0.035 -0.012 0.035 -0.027 c 0 -0.016 0.012 -0.027 0.023 -0.027 c 0.016 0 0.027 -0.012 0.027 -0.023 c 0 -0.016 0.016 -0.031 0.035 -0.035 c 0.027 -0.008 0.035 -0.023 0.035 -0.063 c 0 -0.039 0.012 -0.055 0.027 -0.055 c 0.016 0 0.027 -0.012 0.027 -0.027 c 0 -0.016 0.016 -0.027 0.035 -0.027 c 0.02 0 0.035 -0.012 0.035 -0.027 c 0 -0.012 0.012 -0.023 0.027 -0.023 c 0.016 0 0.027 -0.016 0.027 -0.039 c 0 -0.023 0.012 -0.035 0.035 -0.035 c 0.02 0 0.035 -0.012 0.035 -0.023 c 0 -0.016 0.012 -0.027 0.027 -0.027 c 0.016 0 0.023 -0.02 0.023 -0.055 c 0 -0.039 0.008 -0.051 0.035 -0.051 c 0.023 0 0.035 -0.012 0.035 -0.035 c 0 -0.023 0.012 -0.039 0.027 -0.039 c 0.016 0 0.027 -0.012 0.027 -0.023 c 0 -0.016 0.012 -0.027 0.027 -0.027 c 0.016 0 0.027 -0.012 0.027 -0.027 c 0 -0.016 0.016 -0.027 0.035 -0.027 c 0.02 0 0.035 -0.012 0.035 -0.027 c 0 -0.012 0.012 -0.023 0.027 -0.023 c 0.016 0 0.023 -0.02 0.023 -0.063 c 0 -0.051 0.008 -0.063 0.035 -0.063 c 0.023 0 0.039 -0.012 0.039 -0.027 c 0 -0.016 0.012 -0.027 0.023 -0.027 c 0.016 0 0.027 -0.016 0.027 -0.035 c 0 -0.023 0.012 -0.035 0.035 -0.035 c 0.02 0 0.035 -0.012 0.035 -0.027 c 0 -0.012 0.012 -0.023 0.027 -0.023 c 0.016 0 0.027 -0.012 0.027 -0.027 c 0 -0.016 0.016 -0.027 0.035 -0.027 c 0.02 0 0.035 -0.012 0.035 -0.027 c 0 -0.016 0.012 -0.027 0.027 -0.027 c 0.016 0 0.027 -0.016 0.027 -0.035 c 0 -0.023 0.012 -0.035 0.035 -0.035 c 0.02 0 0.035 -0.012 0.035 -0.027 c 0 -0.012 0.012 -0.023 0.023 -0.023 c 0.02 0 0.027 -0.02 0.027 -0.055 c 0 -0.043 0.008 -0.055 0.035 -0.055 c 0.023 0 0.035 -0.012 0.035 -0.035 c 0 -0.02 0.012 -0.035 0.027 -0.035 c 0.016 0 0.027 -0.012 0.027 -0.023 c 0 -0.016 0.012 -0.027 0.027 -0.027 c 0.016 0 0.027 -0.012 0.027 -0.027 c 0 -0.016 0.016 -0.027 0.035 -0.027 c 0.023 0 0.035 -0.012 0.035 -0.035 c 0 -0.02 0.012 -0.035 0.027 -0.035 c 0.012 0 0.023 -0.012 0.023 -0.027 c 0 -0.016 0.016 -0.027 0.035 -0.027 c 0.02 0 0.035 -0.012 0.035 -0.023 c 0 -0.016 0.016 -0.027 0.027 -0.027 c 0.016 0 0.027 -0.012 0.027 -0.027 c 0 -0.016 0.016 -0.027 0.035 -0.027 c 0.023 0 0.035 -0.012 0.035 -0.035 c 0 -0.02 0.012 -0.035 0.027 -0.035 c 0.016 0 0.027 -0.012 0.027 -0.027 c 0 -0.016 0.016 -0.027 0.035 -0.027 c 0.02 0 0.035 -0.012 0.035 -0.023 c 0 -0.016 0.012 -0.027 0.027 -0.027 c 0.016 0 0.027 -0.02 0.027 -0.063 c 0 -0.051 0.004 -0.063 0.035 -0.063 c 0.02 0 0.035 -0.012 0.035 -0.027 c 0 -0.012 0.012 -0.023 0.023 -0.023 c 0.016 0 0.027 -0.016 0.027 -0.027 c 0 -0.016 0.012 -0.027 0.027 -0.027 c 0.016 0 0.027 -0.016 0.027 -0.035 c 0 -0.023 0.012 -0.035 0.035 -0.035 c 0.02 0 0.035 -0.012 0.035 -0.027 c 0 -0.016 0.012 -0.027 0.027 -0.027 c 0.012 0 0.027 -0.012 0.027 -0.027 c 0 -0.012 0.016 -0.023 0.035 -0.023 c 0.02 0 0.035 -0.012 0.035 -0.027 c 0 -0.016 0.012 -0.027 0.023 -0.027 c 0.016 0 0.027 -0.016 0.027 -0.035 c 0 -0.023 0.012 -0.035 0.035 -0.035 c 0.02 0 0.035 -0.012 0.035 -0.027 c 0 -0.016 0.012 -0.027 0.027 -0.027 c 0.016 0 0.027 -0.012 0.027 -0.027 c 0 -0.012 0.016 -0.023 0.035 -0.023 c 0.02 0 0.035 -0.012 0.035 -0.027 c 0 -0.016 0.012 -0.027 0.027 -0.027 c 0.016 0 0.027 -0.016 0.027 -0.035 c 0 -0.023 0.012 -0.035 0.035 -0.035 c 0.02 0 0.035 -0.012 0.035 -0.027 c 0 -0.016 0.012 -0.027 0.027 -0.027 c 0.012 0 0.023 -0.012 0.023 -0.023 c 0 -0.016 0.016 -0.027 0.027 -0.027 c 0.016 0 0.027 -0.016 0.027 -0.035 c 0 -0.023 0.012 -0.035 0.035 -0.035 c 0.02 0 0.035 -0.012 0.035 -0.027 c 0 -0.016 0.012 -0.027 0.027 -0.027 c 0.016 0 0.027 -0.012 0.027 -0.027 c 0 -0.016 0.016 -0.027 0.035 -0.027 c 0.02 0 0.035 -0.012 0.035 -0.023 c 0 -0.016 0.012 -0.027 0.027 -0.027 c 0.012 0 0.023 -0.016 0.023 -0.035 c 0 -0.023 0.016 -0.035 0.039 -0.035 c 0.02 0 0.035 -0.012 0.035 -0.027 c 0 -0.016 0.012 -0.027 0.023 -0.027 c 0.016 0 0.027 -0.012 0.027 -0.027 c 0 -0.012 0.016 -0.023 0.035 -0.023 c 0.02 0 0.035 -0.012 0.035 -0.027 c 0 -0.016 0.012 -0.027 0.027 -0.027 c 0.016 0 0.027 -0.016 0.027 -0.035 c 0 -0.023 0.012 -0.035 0.035 -0.035 c 0.02 0 0.035 -0.012 0.035 -0.027 c 0 -0.016 0.012 -0.027 0.027 -0.027 c 0.016 0 0.027 -0.012 0.027 -0.027 c 0 -0.012 0.012 -0.023 0.023 -0.023 c 0.016 0 0.027 -0.012 0.027 -0.027 c 0 -0.016 0.016 -0.027 0.035 -0.027 c 0.023 0 0.035 -0.012 0.035 -0.035 c 0 -0.02 0.012 -0.035 0.027 -0.035 c 0.016 0 0.027 -0.012 0.027 -0.027 c 0 -0.016 0.016 -0.027 0.035 -0.027 c 0.02 0 0.035 -0.012 0.035 -0.023 c 0 -0.016 0.012 -0.027 0.027 -0.027 c 0.016 0 0.027 -0.016 0.027 -0.035 c 0 -0.031 -0.012 -0.035 -0.063 -0.035 c -0.043 0 -0.063 0.008 -0.063 0.023 c 0 0.023 -0.023 0.027 -0.117 0.027 c -0.086 0 -0.117 0.008 -0.125 0.027 c -0.008 0.02 -0.039 0.027 -0.125 0.027 c -0.102 0 -0.117 0.004 -0.125 0.035 c -0.008 0.031 -0.023 0.035 -0.129 0.035 c -0.098 0 -0.125 0.004 -0.125 0.027 c 0 0.02 -0.027 0.023 -0.148 0.023 c -0.121 0 -0.152 0.008 -0.152 0.027 c 0 0.023 -0.047 0.027 -0.328 0.027 c -0.277 0 -0.324 -0.004 -0.324 -0.027 c 0 -0.012 -0.016 -0.027 -0.039 -0.027 c -0.02 0 -0.035 -0.012 -0.035 -0.023 c 0 -0.016 -0.012 -0.027 -0.023 -0.027 c -0.016 0 -0.027 -0.016 -0.027 -0.035 c 0 -0.023 -0.012 -0.035 -0.035 -0.035 c -0.02 0 -0.035 -0.012 -0.035 -0.027 c 0 -0.016 -0.012 -0.027 -0.027 -0.027 c -0.02 0 -0.027 -0.016 -0.027 -0.051 c 0 -0.043 -0.008 -0.055 -0.035 -0.055 c -0.031 0 -0.035 -0.012 -0.035 -0.09 c 0 -0.066 -0.008 -0.086 -0.027 -0.086 c -0.02 0 -0.027 -0.023 -0.027 -0.09 c 0 -0.078 -0.004 -0.09 -0.035 -0.09 c -0.031 0 -0.035 -0.012 -0.035 -0.168 c 0 -0.156 0.004 -0.168 0.035 -0.168 c 0.031 0 0.035 -0.012 0.035 -0.063 c 0 -0.043 0.008 -0.063 0.027 -0.063 c 0.02 0 0.027 -0.016 0.027 -0.051 c 0 -0.043 0.008 -0.051 0.063 -0.063 c 0.035 -0.008 0.063 -0.02 0.063 -0.027 c 0 -0.008 0.027 -0.02 0.063 -0.027 c 0.035 -0.004 0.063 -0.02 0.063 -0.035 c 0 -0.02 0.02 -0.027 0.059 -0.027 c 0.043 0 0.063 -0.008 0.063 -0.027 c 0 -0.02 0.023 -0.023 0.09 -0.023 c 0.066 0 0.09 -0.008 0.09 -0.027 c 0 -0.02 0.023 -0.027 0.121 -0.027 c 0.113 0 0.125 -0.004 0.125 -0.035 c 0 -0.031 0.012 -0.035 0.125 -0.035 c 0.098 0 0.125 -0.004 0.125 -0.027 c 0 -0.02 0.027 -0.027 0.148 -0.027 c 0.121 0 0.152 -0.004 0.152 -0.023 c 0 -0.023 0.027 -0.027 0.16 -0.027 c 0.129 0 0.156 -0.004 0.156 -0.027 c 0 -0.02 0.027 -0.027 0.141 -0.027 c 0.16 0 0.215 -0.012 0.215 -0.047 c 0 -0.02 0.035 -0.023 0.16 -0.023 c 0.129 0 0.16 -0.004 0.16 -0.027 c 0 -0.02 0.039 -0.027 0.238 -0.027 c 0.199 0 0.238 -0.004 0.238 -0.023 c 0 -0.023 0.035 -0.027 0.215 -0.027 c 0.172 0 0.215 -0.004 0.223 -0.027 c 0.008 -0.023 0.051 -0.027 0.234 -0.027 c 0.246 0 0.305 -0.008 0.305 -0.047 c 0 -0.02 0.055 -0.023 0.309 -0.023 c 0.266 0 0.309 -0.004 0.309 -0.027 c 0 -0.023 0.063 -0.027 0.426 -0.027 c 0.363 0 0.43 -0.004 0.438 -0.023 c 0.008 -0.023 0.063 -0.027 0.344 -0.027 c 0.25 0 0.336 0.004 0.34 0.023 c 0.008 0.016 0.074 0.023 0.242 0.027 c 0.188 0.004 0.234 0.012 0.234 0.031 c 0 0.02 0.027 0.023 0.121 0.023 c 0.094 0 0.125 0.008 0.125 0.023 c 0 0.031 0.055 0.047 0.152 0.047 c 0.051 0 0.078 0.012 0.086 0.027 c 0.004 0.02 0.035 0.027 0.098 0.027 c 0.066 0 0.09 0.008 0.09 0.027 c 0 0.02 0.02 0.023 0.09 0.023 c 0.066 0 0.086 0.008 0.086 0.027 c 0 0.02 0.02 0.027 0.063 0.027 c 0.051 0 0.063 0.008 0.063 0.035 c 0 0.027 0.012 0.035 0.063 0.035 c 0.043 0 0.063 0.008 0.063 0.027 c 0 0.02 0.02 0.027 0.063 0.027 c 0.043 0 0.063 0.008 0.063 0.027 c 0 0.016 0.016 0.023 0.059 0.023 c 0.047 0 0.063 0.008 0.063 0.027 c 0 0.016 0.012 0.027 0.027 0.027 c 0.016 0 0.027 0.016 0.027 0.035 c 0 0.027 0.012 0.035 0.063 0.035 c 0.043 0 0.063 0.008 0.063 0.027 c 0 0.016 0.016 0.027 0.035 0.027 c 0.02 0 0.035 0.012 0.035 0.027 c 0 0.012 0.012 0.023 0.027 0.023 c 0.012 0 0.023 0.016 0.023 0.035 c 0 0.023 0.012 0.035 0.035 0.035 c 0.023 0 0.039 0.012 0.039 0.027 c 0 0.016 0.012 0.027 0.023 0.027 c 0.016 0 0.027 0.012 0.027 0.027 c 0 0.016 0.012 0.027 0.027 0.027 c 0.016 0 0.027 0.012 0.027 0.023 c 0 0.016 0.016 0.027 0.035 0.027 c 0.023 0 0.035 0.012 0.035 0.035 c 0 0.02 0.012 0.035 0.027 0.035 c 0.012 0 0.023 0.012 0.023 0.027 c 0 0.016 0.016 0.027 0.039 0.027 c 0.027 0 0.035 0.012 0.035 0.055 c 0 0.035 0.008 0.051 0.023 0.051 c 0.02 0 0.027 0.02 0.027 0.055 c 0 0.039 0.012 0.059 0.035 0.066 c 0.027 0.004 0.035 0.023 0.035 0.066 c 0 0.043 0.008 0.063 0.027 0.063 c 0.02 0 0.027 0.016 0.027 0.051 c 0 0.043 0.008 0.055 0.035 0.055 c 0.031 0 0.035 0.012 0.035 0.168 c 0 0.137 0.004 0.168 0.027 0.168 c 0.02 0 0.027 0.027 0.027 0.152 c 0 0.121 -0.008 0.148 -0.027 0.148 c -0.023 0 -0.027 0.027 -0.027 0.141 c 0 0.133 -0.004 0.145 -0.035 0.145 c -0.031 0 -0.035 0.012 -0.035 0.086 c 0 0.07 -0.008 0.09 -0.027 0.09 c -0.016 0 -0.027 0.02 -0.027 0.055 c 0 0.039 -0.008 0.051 -0.035 0.051 c -0.027 0 -0.035 0.012 -0.035 0.063 c 0 0.043 -0.008 0.063 -0.027 0.063 c -0.016 0 -0.023 0.02 -0.023 0.055 c 0 0.039 -0.008 0.051 -0.035 0.051 c -0.027 0 -0.039 0.012 -0.039 0.035 c 0 0.02 -0.012 0.039 -0.023 0.039 c -0.02 0 -0.027 0.016 -0.027 0.051 c 0 0.043 -0.008 0.055 -0.035 0.055 c -0.02 0 -0.035 0.012 -0.035 0.027 c 0 0.012 -0.012 0.023 -0.027 0.023 c -0.016 0 -0.027 0.016 -0.027 0.035 c 0 0.02 -0.012 0.035 -0.027 0.035 c -0.012 0 -0.023 0.016 -0.023 0.027 c 0 0.016 -0.012 0.027 -0.027 0.027 c -0.016 0 -0.031 0.023 -0.039 0.063 c -0.004 0.035 -0.02 0.063 -0.035 0.063 c -0.012 0 -0.023 0.012 -0.023 0.027 c 0 0.016 -0.02 0.023 -0.063 0.023 c -0.051 0 -0.063 0.008 -0.063 0.035 c 0 0.023 -0.012 0.039 -0.027 0.039 c -0.016 0 -0.027 0.008 -0.027 0.016 c 0 0.012 -0.016 0.02 -0.035 0.02 c -0.023 0 -0.035 0.012 -0.035 0.035 c 0 0.023 -0.012 0.035 -0.035 0.035 c -0.02 0 -0.035 0.012 -0.035 0.027 c 0 0.012 -0.012 0.023 -0.027 0.023 c -0.012 0 -0.023 0.012 -0.023 0.027 c 0 0.016 -0.016 0.027 -0.035 0.027 c -0.023 0 -0.039 0.012 -0.039 0.027 c 0 0.016 -0.016 0.027 -0.051 0.027 c -0.043 0 -0.055 0.008 -0.055 0.035 c 0 0.023 -0.012 0.035 -0.035 0.035 c -0.02 0 -0.035 0.012 -0.035 0.023 c 0 0.02 -0.02 0.027 -0.063 0.027 c -0.043 0 -0.063 0.008 -0.063 0.027 c 0 0.016 -0.012 0.027 -0.023 0.027 c -0.016 0 -0.027 0.016 -0.027 0.035 c 0 0.027 -0.012 0.035 -0.063 0.035 c -0.043 0 -0.063 0.008 -0.063 0.027 c 0 0.02 -0.02 0.027 -0.063 0.027 c -0.043 0 -0.063 0.008 -0.063 0.023 c 0 0.02 -0.02 0.027 -0.063 0.027 c -0.043 0 -0.063 0.008 -0.063 0.027 c 0 0.02 -0.016 0.027 -0.059 0.027 c -0.051 0 -0.063 0.008 -0.063 0.035 c 0 0.027 -0.012 0.035 -0.063 0.035 c -0.043 0 -0.063 0.008 -0.063 0.027 c 0 0.016 -0.02 0.023 -0.063 0.023 c -0.043 0 -0.063 0.012 -0.063 0.027 c 0 0.02 -0.02 0.027 -0.09 0.027 c -0.066 0 -0.086 0.008 -0.086 0.027 c 0 0.02 -0.02 0.027 -0.063 0.027 c -0.051 0 -0.063 0.004 -0.063 0.035 c 0 0.031 -0.012 0.035 -0.09 0.035 c -0.066 0 -0.086 0.004 -0.086 0.027 c 0 0.02 -0.023 0.023 -0.098 0.023 c -0.074 0 -0.098 0.008 -0.098 0.027 c 0 0.023 -0.027 0.027 -0.117 0.027 c -0.086 0 -0.117 0.008 -0.125 0.027 c -0.008 0.02 -0.035 0.027 -0.098 0.027 c -0.074 0 -0.086 0.004 -0.086 0.035 c 0 0.031 -0.012 0.035 -0.152 0.035 c -0.121 0 -0.148 0.004 -0.148 0.027 c 0 0.02 -0.027 0.023 -0.125 0.023 c -0.098 0 -0.125 0.008 -0.125 0.027 c 0 0.023 -0.031 0.027 -0.184 0.027 c -0.176 0 -0.188 0 -0.188 0.035 c 0 0.035 -0.012 0.035 -0.211 0.035 c -0.18 0 -0.215 0.004 -0.215 0.027 c 0 0.02 -0.023 0.027 -0.125 0.027 c -0.102 0 -0.121 0.004 -0.121 0.027 c 0 0.016 0.016 0.031 0.035 0.035 c 0.02 0.008 0.035 0.023 0.035 0.035 c 0 0.016 0.016 0.023 0.035 0.023 c 0.02 0 0.035 0.012 0.035 0.027 c 0 0.02 0.016 0.027 0.055 0.027 c 0.035 0 0.051 0.008 0.051 0.027 c 0 0.016 0.012 0.027 0.027 0.027 c 0.016 0 0.027 0.016 0.027 0.035 c 0 0.023 0.012 0.035 0.035 0.035 c 0.02 0 0.035 0.012 0.035 0.027 c 0 0.012 0.012 0.023 0.027 0.023 c 0.012 0 0.023 0.012 0.023 0.027 c 0 0.02 0.02 0.027 0.063 0.027 c 0.051 0 0.063 0.008 0.063 0.035 c 0 0.023 0.012 0.035 0.035 0.035 c 0.02 0 0.035 0.012 0.035 0.027 c 0 0.016 0.012 0.027 0.027 0.027 c 0.016 0 0.027 0.012 0.027 0.023 c 0 0.016 0.016 0.027 0.035 0.027 c 0.02 0 0.035 0.012 0.035 0.027 c 0 0.016 0.012 0.027 0.023 0.027 c 0.016 0 0.031 0.016 0.035 0.035 c 0.008 0.023 0.023 0.035 0.063 0.035 c 0.039 0 0.055 0.008 0.055 0.027 c 0 0.012 0.016 0.027 0.027 0.027 c 0.016 0 0.027 0.012 0.027 0.023 c 0 0.016 0.016 0.027 0.035 0.027 c 0.02 0 0.035 0.012 0.035 0.027 c 0 0.016 0.012 0.027 0.027 0.027 c 0.016 0 0.027 0.016 0.027 0.035 c 0 0.023 0.012 0.035 0.035 0.035 c 0.02 0 0.035 0.012 0.035 0.027 c 0 0.012 0.012 0.023 0.027 0.023 c 0.012 0 0.023 0.016 0.023 0.027 c 0 0.02 0.02 0.027 0.063 0.027 c 0.051 0 0.063 0.008 0.063 0.035 c 0 0.023 0.012 0.035 0.035 0.035 c 0.02 0 0.035 0.012 0.035 0.027 c 0 0.016 0.012 0.027 0.027 0.027 c 0.016 0 0.027 0.012 0.027 0.027 c 0 0.012 0.016 0.023 0.035 0.023 c 0.02 0 0.035 0.012 0.035 0.027 c 0 0.016 0.012 0.027 0.027 0.027 c 0.016 0 0.027 0.016 0.027 0.035 c 0 0.02 0.012 0.035 0.027 0.035 c 0.012 0 0.023 0.012 0.023 0.027 c 0 0.016 0.016 0.027 0.035 0.027 c 0.02 0 0.035 0.012 0.035 0.023 c 0 0.016 0.012 0.027 0.027 0.027 c 0.016 0 0.027 0.012 0.027 0.027 c 0 0.016 0.016 0.027 0.035 0.027 c 0.023 0 0.035 0.012 0.035 0.035 c 0 0.02 0.012 0.035 0.027 0.035 c 0.016 0 0.027 0.012 0.027 0.027 c 0 0.016 0.016 0.027 0.035 0.027 c 0.02 0 0.035 0.012 0.035 0.023 c 0 0.016 0.012 0.027 0.027 0.027 c 0.012 0 0.023 0.012 0.023 0.027 c 0 0.016 0.016 0.027 0.039 0.027 c 0.023 0 0.035 0.012 0.035 0.035 c 0 0.02 0.012 0.035 0.023 0.035 c 0.02 0 0.027 0.016 0.027 0.055 c 0 0.039 0.008 0.051 0.035 0.051 c 0.035 0 0.035 0.012 0.035 0.258 c 0 0.246 0 0.258 -0.035 0.258 c -0.027 0 -0.035 0.012 -0.035 0.063 c 0 0.043 -0.008 0.059 -0.027 0.059 c -0.016 0 -0.023 0.02 -0.023 0.055 c 0 0.043 -0.008 0.055 -0.035 0.055 c -0.027 0 -0.039 0.012 -0.039 0.035 c 0 0.02 -0.012 0.035 -0.023 0.035 c -0.016 0 -0.027 0.012 -0.027 0.027 c 0 0.012 -0.016 0.023 -0.035 0.023 c -0.02 0 -0.035 0.012 -0.035 0.027 c 0 0.02 -0.02 0.027 -0.063 0.027 c -0.043 0 -0.063 0.008 -0.063 0.027 c 0 0.02 -0.02 0.027 -0.063 0.027 c -0.051 0 -0.063 0.004 -0.063 0.035 c 0 0.027 -0.012 0.035 -0.078 0.035 c -0.07 0 -0.082 -0.008 -0.082 -0.035 m -0.918 -4.574 c 0 -0.031 0.012 -0.035 0.211 -0.035 c 0.18 0 0.215 -0.004 0.215 -0.027 c 0 -0.02 0.027 -0.023 0.148 -0.023 c 0.125 0 0.152 -0.008 0.152 -0.027 c 0 -0.023 0.023 -0.027 0.125 -0.027 c 0.098 0 0.121 -0.008 0.121 -0.027 c 0 -0.02 0.023 -0.027 0.09 -0.027 c 0.078 0 0.09 -0.004 0.09 -0.035 c 0 -0.031 0.012 -0.035 0.098 -0.035 c 0.074 0 0.098 -0.004 0.098 -0.027 c 0 -0.02 0.02 -0.023 0.086 -0.023 c 0.063 0 0.09 -0.008 0.09 -0.027 c 0 -0.016 0.027 -0.027 0.082 -0.031 c 0.047 -0.008 0.09 -0.02 0.09 -0.031 c 0.004 -0.008 0.035 -0.02 0.07 -0.02 c 0.047 0 0.059 -0.004 0.059 -0.035 c 0 -0.027 0.012 -0.035 0.063 -0.035 c 0.043 0 0.063 -0.008 0.063 -0.027 c 0 -0.016 0.02 -0.023 0.063 -0.023 c 0.043 0 0.063 -0.008 0.063 -0.027 c 0 -0.016 0.016 -0.027 0.035 -0.027 c 0.023 0 0.035 -0.012 0.035 -0.035 c 0 -0.027 0.012 -0.035 0.063 -0.035 c 0.043 0 0.063 -0.008 0.063 -0.027 c 0 -0.016 0.012 -0.027 0.023 -0.027 c 0.016 0 0.027 -0.008 0.027 -0.023 c 0 -0.016 0.027 -0.031 0.063 -0.035 c 0.035 -0.008 0.063 -0.02 0.063 -0.031 c 0 -0.008 0.012 -0.016 0.027 -0.016 c 0.012 0 0.027 -0.016 0.027 -0.035 c 0 -0.023 0.012 -0.035 0.035 -0.035 c 0.02 0 0.035 -0.012 0.035 -0.027 c 0 -0.016 0.012 -0.027 0.023 -0.027 c 0.016 0 0.027 -0.016 0.027 -0.035 c 0 -0.02 0.012 -0.035 0.027 -0.035 c 0.016 0 0.031 -0.02 0.039 -0.051 c 0.004 -0.031 0.02 -0.055 0.035 -0.055 c 0.016 0 0.023 -0.02 0.023 -0.055 c 0 -0.039 0.008 -0.051 0.035 -0.051 c 0.031 0 0.035 -0.012 0.035 -0.152 c 0 -0.137 -0.004 -0.148 -0.035 -0.148 c -0.027 0 -0.035 -0.012 -0.035 -0.063 c 0 -0.043 -0.008 -0.063 -0.027 -0.063 c -0.016 0 -0.027 -0.012 -0.027 -0.027 c 0 -0.016 -0.016 -0.027 -0.035 -0.027 c -0.02 0 -0.035 -0.012 -0.035 -0.023 c 0 -0.016 -0.012 -0.027 -0.027 -0.027 c -0.012 0 -0.023 -0.012 -0.023 -0.027 c 0 -0.02 -0.02 -0.027 -0.063 -0.027 c -0.051 0 -0.063 -0.008 -0.063 -0.035 c 0 -0.027 -0.012 -0.035 -0.063 -0.035 c -0.043 0 -0.063 -0.008 -0.063 -0.027 c 0 -0.02 -0.02 -0.027 -0.09 -0.027 c -0.066 0 -0.086 -0.004 -0.086 -0.023 c 0 -0.023 -0.027 -0.027 -0.121 -0.027 c -0.109 0 -0.125 -0.004 -0.133 -0.035 c -0.008 -0.035 -0.023 -0.035 -0.25 -0.035 c -0.203 0 -0.242 -0.004 -0.242 -0.027 c 0 -0.023 -0.063 -0.027 -0.461 -0.027 c -0.398 0 -0.461 0.004 -0.461 0.027 c 0 0.016 -0.016 0.027 -0.035 0.027 c -0.023 0 -0.035 0.012 -0.035 0.035 c 0 0.02 -0.012 0.035 -0.027 0.035 c -0.012 0 -0.023 0.012 -0.023 0.027 c 0 0.012 -0.012 0.023 -0.027 0.023 c -0.016 0 -0.027 0.012 -0.027 0.027 c 0 0.016 -0.016 0.027 -0.035 0.027 c -0.023 0 -0.035 0.012 -0.035 0.035 c 0 0.02 -0.012 0.035 -0.027 0.035 c -0.016 0 -0.027 0.012 -0.027 0.027 c 0 0.016 -0.016 0.027 -0.035 0.027 c -0.02 0 -0.035 0.012 -0.035 0.027 c 0 0.012 -0.012 0.023 -0.027 0.023 c -0.012 0 -0.023 0.012 -0.023 0.027 c 0 0.016 -0.016 0.027 -0.035 0.027 c -0.027 0 -0.039 0.012 -0.039 0.035 c 0 0.02 -0.012 0.035 -0.023 0.035 c -0.016 0 -0.027 0.012 -0.027 0.027 c 0 0.016 -0.016 0.027 -0.035 0.027 c -0.02 0 -0.035 0.012 -0.035 0.023 c 0 0.016 -0.012 0.027 -0.027 0.027 c -0.016 0 -0.027 0.012 -0.027 0.027 c 0 0.016 -0.016 0.027 -0.035 0.027 c -0.023 0 -0.035 0.012 -0.035 0.035 c 0 0.02 -0.012 0.035 -0.027 0.035 c -0.016 0 -0.027 0.016 -0.027 0.035 c 0 0.02 -0.012 0.035 -0.023 0.035 c -0.02 0 -0.027 0.02 -0.027 0.055 c 0 0.039 -0.008 0.051 -0.035 0.051 c -0.02 0 -0.035 0.012 -0.035 0.027 c 0 0.016 -0.012 0.027 -0.027 0.027 c -0.016 0 -0.027 0.012 -0.027 0.027 c 0 0.016 -0.016 0.027 -0.035 0.027 c -0.02 0 -0.035 0.012 -0.035 0.023 c 0 0.016 -0.012 0.027 -0.027 0.027 c -0.016 0 -0.027 0.016 -0.027 0.035 c 0 0.023 -0.012 0.035 -0.035 0.035 c -0.02 0 -0.035 0.012 -0.035 0.027 c 0 0.016 -0.012 0.027 -0.027 0.027 c -0.012 0 -0.023 0.012 -0.023 0.027 c 0 0.012 -0.016 0.023 -0.035 0.023 c -0.023 0 -0.035 0.012 -0.035 0.039 c 0 0.02 -0.016 0.035 -0.027 0.035 c -0.02 0 -0.027 0.016 -0.027 0.051 c 0 0.043 -0.008 0.055 -0.035 0.055 c -0.02 0 -0.035 0.012 -0.035 0.027 c 0 0.012 -0.012 0.023 -0.027 0.023 c -0.016 0 -0.027 0.016 -0.027 0.035 c 0 0.027 -0.012 0.039 -0.035 0.039 c -0.02 0 -0.035 0.012 -0.035 0.023 c 0 0.016 -0.012 0.027 -0.027 0.027 c -0.012 0 -0.027 0.012 -0.027 0.027 c 0 0.016 -0.012 0.027 -0.023 0.027 c -0.02 0 -0.027 0.02 -0.027 0.063 c 0 0.047 -0.008 0.063 -0.035 0.063 c -0.02 0 -0.035 0.012 -0.035 0.023 c 0 0.016 -0.012 0.027 -0.027 0.027 c -0.016 0 -0.027 0.012 -0.027 0.027 c 0 0.016 -0.016 0.027 -0.035 0.027 c -0.02 0 -0.035 0.012 -0.035 0.027 c 0 0.012 -0.012 0.023 -0.027 0.023 c -0.02 0 -0.027 0.023 -0.027 0.098 v 0.098 h 0.711 c 0.695 0 0.707 0 0.707 -0.035"/><path d="m 5.758 13.527 c 0 -0.02 -0.02 -0.027 -0.086 -0.027 c -0.078 0 -0.09 -0.004 -0.09 -0.035 c 0 -0.027 -0.012 -0.035 -0.063 -0.035 c -0.043 0 -0.063 -0.008 -0.063 -0.027 c 0 -0.02 -0.02 -0.027 -0.063 -0.027 c -0.043 0 -0.063 -0.008 -0.063 -0.027 c 0 -0.016 -0.016 -0.023 -0.063 -0.023 c -0.043 0 -0.059 -0.008 -0.059 -0.027 c 0 -0.016 -0.016 -0.027 -0.027 -0.027 c -0.016 0 -0.027 -0.016 -0.027 -0.035 c 0 -0.023 -0.012 -0.035 -0.035 -0.035 c -0.02 0 -0.035 -0.012 -0.035 -0.027 c 0 -0.016 -0.012 -0.027 -0.027 -0.027 c -0.016 0 -0.027 -0.012 -0.027 -0.023 c 0 -0.016 -0.016 -0.027 -0.035 -0.027 c -0.02 0 -0.035 -0.012 -0.035 -0.027 c 0 -0.016 -0.012 -0.027 -0.027 -0.027 c -0.012 0 -0.023 -0.016 -0.023 -0.035 c 0 -0.023 -0.016 -0.035 -0.039 -0.035 c -0.027 0 -0.035 -0.012 -0.035 -0.055 c 0 -0.035 -0.008 -0.051 -0.023 -0.051 c -0.023 0 -0.027 -0.023 -0.027 -0.09 c 0 -0.066 -0.008 -0.09 -0.027 -0.09 c -0.035 0 -0.035 -0.098 0 -0.133 c 0.016 -0.016 0.027 -0.055 0.027 -0.09 c 0 -0.039 0.008 -0.059 0.027 -0.059 c 0.016 0 0.023 -0.02 0.023 -0.063 c 0 -0.051 0.008 -0.063 0.035 -0.063 c 0.031 0 0.039 -0.012 0.039 -0.055 c 0 -0.035 0.008 -0.051 0.023 -0.051 c 0.02 0 0.027 -0.02 0.027 -0.063 c 0 -0.051 0.008 -0.063 0.035 -0.063 c 0.02 0 0.035 -0.012 0.035 -0.027 c 0 -0.012 0.012 -0.027 0.027 -0.027 c 0.02 0 0.027 -0.016 0.027 -0.051 c 0 -0.043 0.008 -0.055 0.035 -0.055 c 0.023 0 0.035 -0.012 0.035 -0.035 c 0 -0.02 0.012 -0.035 0.027 -0.035 c 0.016 0 0.027 -0.016 0.027 -0.051 c 0 -0.043 0.008 -0.055 0.035 -0.055 c 0.023 0 0.035 -0.012 0.035 -0.035 c 0 -0.02 0.012 -0.035 0.023 -0.035 c 0.02 0 0.027 -0.02 0.027 -0.055 c 0 -0.039 0.008 -0.051 0.035 -0.051 c 0.02 0 0.035 -0.012 0.035 -0.027 c 0 -0.016 0.012 -0.027 0.027 -0.027 c 0.016 0 0.027 -0.016 0.027 -0.035 c 0 -0.02 0.012 -0.035 0.027 -0.035 c 0.016 0 0.027 -0.02 0.027 -0.055 c 0 -0.039 0.008 -0.051 0.035 -0.051 c 0.02 0 0.035 -0.012 0.035 -0.027 c 0 -0.016 0.012 -0.027 0.027 -0.027 c 0.012 0 0.023 -0.016 0.023 -0.035 c 0 -0.023 0.012 -0.035 0.035 -0.035 c 0.02 0 0.035 -0.012 0.035 -0.027 c 0 -0.016 0.016 -0.027 0.027 -0.027 c 0.02 0 0.027 -0.016 0.027 -0.051 c 0 -0.043 0.008 -0.055 0.035 -0.055 c 0.023 0 0.035 -0.012 0.035 -0.035 c 0 -0.02 0.012 -0.035 0.027 -0.035 c 0.016 0 0.027 -0.012 0.027 -0.027 c 0 -0.016 0.016 -0.027 0.035 -0.027 c 0.02 0 0.035 -0.012 0.035 -0.027 c 0 -0.012 0.012 -0.023 0.027 -0.023 c 0.012 0 0.023 -0.016 0.023 -0.035 c 0 -0.02 0.012 -0.035 0.027 -0.035 c 0.012 0 0.031 -0.027 0.035 -0.055 c 0.008 -0.031 0.023 -0.055 0.039 -0.055 c 0.012 0 0.023 -0.012 0.023 -0.023 c 0 -0.016 0.012 -0.027 0.027 -0.027 c 0.016 0 0.027 -0.016 0.027 -0.035 c 0 -0.023 0.012 -0.035 0.035 -0.035 c 0.02 0 0.035 -0.012 0.035 -0.027 c 0 -0.016 0.012 -0.027 0.027 -0.027 c 0.016 0 0.027 -0.012 0.027 -0.023 c 0 -0.016 0.016 -0.031 0.035 -0.035 c 0.023 -0.008 0.035 -0.023 0.035 -0.063 c 0 -0.039 0.008 -0.055 0.027 -0.055 c 0.012 0 0.023 -0.012 0.023 -0.027 c 0 -0.016 0.016 -0.027 0.035 -0.027 c 0.02 0 0.035 -0.012 0.035 -0.027 c 0 -0.012 0.012 -0.027 0.027 -0.027 c 0.016 0 0.027 -0.016 0.027 -0.035 c 0 -0.023 0.012 -0.035 0.035 -0.035 c 0.02 0 0.035 -0.012 0.035 -0.023 c 0 -0.016 0.012 -0.027 0.027 -0.027 c 0.016 0 0.027 -0.012 0.027 -0.027 c 0 -0.016 0.016 -0.027 0.035 -0.027 c 0.02 0 0.035 -0.012 0.035 -0.027 c 0 -0.012 0.012 -0.023 0.027 -0.023 c 0.012 0 0.023 -0.016 0.023 -0.039 c 0 -0.023 0.012 -0.035 0.039 -0.035 c 0.02 0 0.035 -0.012 0.035 -0.023 c 0 -0.016 0.012 -0.027 0.023 -0.027 c 0.016 0 0.027 -0.016 0.027 -0.035 c 0 -0.02 0.012 -0.035 0.027 -0.035 c 0.02 0 0.027 -0.02 0.027 -0.055 c 0 -0.043 0.008 -0.055 0.035 -0.055 c 0.02 0 0.035 -0.012 0.035 -0.023 c 0 -0.016 0.012 -0.027 0.027 -0.027 c 0.012 0 0.027 -0.012 0.027 -0.027 c 0 -0.016 0.016 -0.027 0.035 -0.027 c 0.023 0 0.035 -0.012 0.035 -0.035 c 0 -0.02 0.012 -0.035 0.023 -0.035 c 0.016 0 0.027 -0.012 0.027 -0.027 c 0 -0.012 0.016 -0.023 0.035 -0.023 c 0.02 0 0.035 -0.012 0.035 -0.027 c 0 -0.016 0.012 -0.027 0.027 -0.027 c 0.016 0 0.027 -0.012 0.027 -0.027 c 0 -0.016 0.016 -0.027 0.035 -0.027 c 0.023 0 0.035 -0.012 0.035 -0.035 c 0 -0.02 0.012 -0.035 0.027 -0.035 c 0.016 0 0.027 -0.012 0.027 -0.027 c 0 -0.012 0.016 -0.023 0.035 -0.023 c 0.02 0 0.035 -0.012 0.035 -0.027 c 0 -0.016 0.012 -0.027 0.027 -0.027 c 0.012 0 0.023 -0.012 0.023 -0.027 c 0 -0.016 0.012 -0.027 0.027 -0.027 c 0.016 0 0.027 -0.016 0.027 -0.035 c 0 -0.023 0.012 -0.035 0.035 -0.035 c 0.02 0 0.035 -0.012 0.035 -0.023 c 0 -0.016 0.012 -0.027 0.027 -0.027 c 0.016 0 0.027 -0.012 0.027 -0.027 c 0 -0.016 0.016 -0.027 0.035 -0.027 c 0.023 0 0.035 -0.012 0.035 -0.035 c 0 -0.02 0.012 -0.035 0.027 -0.035 c 0.012 0 0.023 -0.012 0.023 -0.027 c 0 -0.016 0.016 -0.027 0.039 -0.027 c 0.02 0 0.035 -0.012 0.035 -0.023 c 0 -0.016 0.012 -0.027 0.023 -0.027 c 0.016 0 0.027 -0.012 0.027 -0.027 c 0 -0.016 0.016 -0.027 0.035 -0.027 c 0.023 0 0.035 -0.012 0.035 -0.035 c 0 -0.02 0.012 -0.035 0.027 -0.035 c 0.016 0 0.027 -0.012 0.027 -0.027 c 0 -0.016 0.016 -0.027 0.035 -0.027 c 0.02 0 0.035 -0.012 0.035 -0.023 c 0 -0.016 0.012 -0.027 0.027 -0.027 c 0.016 0 0.027 -0.012 0.027 -0.027 c 0 -0.016 0.012 -0.027 0.023 -0.027 c 0.016 0 0.027 -0.016 0.027 -0.035 c 0 -0.023 0.012 -0.035 0.035 -0.035 c 0.02 0 0.035 -0.012 0.035 -0.027 c 0 -0.012 0.012 -0.023 0.027 -0.023 c 0.016 0 0.027 -0.016 0.027 -0.027 c 0 -0.016 0.016 -0.027 0.035 -0.027 c 0.023 0 0.035 -0.012 0.035 -0.035 c 0 -0.02 0.012 -0.035 0.027 -0.035 c 0.016 0 0.027 -0.012 0.027 -0.027 c 0 -0.016 0.016 -0.027 0.035 -0.027 c 0.02 0 0.035 -0.012 0.035 -0.027 c 0 -0.012 0.012 -0.023 0.027 -0.023 c 0.012 0 0.023 -0.016 0.023 -0.039 c 0 -0.035 -0.004 -0.035 -0.23 -0.031 c -0.168 0.004 -0.238 0.012 -0.242 0.027 c -0.004 0.02 -0.066 0.023 -0.227 0.023 c -0.207 0 -0.219 0.004 -0.219 0.035 c 0 0.035 -0.012 0.035 -0.215 0.035 c -0.176 0 -0.211 0.004 -0.211 0.027 c 0 0.023 -0.035 0.027 -0.215 0.027 c -0.176 0 -0.211 0.004 -0.211 0.027 c 0 0.02 -0.059 0.023 -0.426 0.023 c -0.367 0 -0.426 -0.004 -0.426 -0.023 c 0 -0.02 -0.02 -0.027 -0.063 -0.027 c -0.043 0 -0.063 -0.008 -0.063 -0.027 c 0 -0.016 -0.016 -0.027 -0.035 -0.027 c -0.02 0 -0.035 -0.012 -0.035 -0.027 c 0 -0.012 -0.012 -0.023 -0.027 -0.023 c -0.012 0 -0.023 -0.016 -0.023 -0.035 c 0 -0.023 -0.012 -0.035 -0.035 -0.035 c -0.031 0 -0.039 -0.016 -0.039 -0.055 c 0 -0.035 -0.008 -0.055 -0.023 -0.055 c -0.02 0 -0.027 -0.02 -0.027 -0.074 c 0 -0.102 -0.016 -0.156 -0.047 -0.156 c -0.02 0 -0.023 -0.039 -0.023 -0.203 c 0 -0.16 0.004 -0.203 0.023 -0.203 c 0.031 0 0.047 -0.055 0.047 -0.156 c 0 -0.055 0.008 -0.074 0.027 -0.074 c 0.016 0 0.023 -0.02 0.023 -0.063 c 0 -0.051 0.008 -0.063 0.039 -0.063 c 0.02 0 0.035 -0.012 0.035 -0.027 c 0 -0.012 0.012 -0.023 0.023 -0.023 c 0.02 0 0.027 -0.02 0.027 -0.055 c 0 -0.051 0.004 -0.055 0.09 -0.055 c 0.078 0 0.094 -0.004 0.102 -0.035 c 0.008 -0.031 0.023 -0.035 0.121 -0.035 c 0.09 0 0.113 -0.004 0.113 -0.023 c 0 -0.023 0.031 -0.027 0.188 -0.027 c 0.152 0 0.184 -0.004 0.184 -0.027 c 0 -0.023 0.035 -0.027 0.215 -0.027 c 0.176 0 0.211 -0.004 0.211 -0.027 c 0 -0.02 0.035 -0.023 0.211 -0.023 c 0.227 0 0.27 -0.008 0.27 -0.047 c 0 -0.02 0.047 -0.027 0.254 -0.027 c 0.219 0 0.258 -0.004 0.258 -0.023 c 0 -0.023 0.051 -0.027 0.328 -0.027 c 0.281 0 0.328 -0.004 0.328 -0.027 c 0 -0.023 0.051 -0.027 0.344 -0.027 c 0.297 0 0.348 -0.004 0.348 -0.027 c 0 -0.02 0.051 -0.023 0.348 -0.023 c 0.371 -0.004 0.43 -0.008 0.43 -0.047 c 0 -0.02 0.086 -0.027 0.496 -0.027 c 0.43 0 0.496 0 0.496 -0.023 c 0 -0.023 0.098 -0.027 0.766 -0.027 c 0.664 0 0.762 -0.004 0.762 -0.027 c 0 -0.023 0.051 -0.027 0.363 -0.027 c 0.309 0 0.363 0.004 0.363 0.027 c 0 0.023 0.047 0.027 0.336 0.027 c 0.285 0 0.336 0.004 0.336 0.027 c 0 0.016 0.02 0.023 0.063 0.023 c 0.051 0 0.063 0.008 0.063 0.039 c 0 0.023 0.012 0.035 0.035 0.035 c 0.027 0 0.035 0.012 0.035 0.078 c 0 0.059 0.008 0.078 0.027 0.078 c 0.02 0 0.023 0.051 0.023 0.348 c 0 0.293 -0.004 0.344 -0.023 0.344 c -0.023 0 -0.027 0.023 -0.027 0.09 c 0 0.078 -0.004 0.09 -0.035 0.09 c -0.031 0 -0.035 0.012 -0.035 0.086 c 0 0.066 -0.008 0.09 -0.027 0.09 c -0.02 0 -0.027 0.02 -0.027 0.055 c 0 0.039 -0.008 0.051 -0.035 0.051 c -0.027 0 -0.035 0.012 -0.035 0.063 c 0 0.043 -0.008 0.063 -0.027 0.063 c -0.016 0 -0.027 0.012 -0.027 0.027 c 0 0.016 -0.016 0.027 -0.035 0.027 c -0.02 0 -0.035 0.012 -0.035 0.023 c 0 0.016 -0.012 0.027 -0.027 0.027 c -0.012 0 -0.023 0.016 -0.023 0.035 c 0 0.031 -0.012 0.035 -0.09 0.035 c -0.066 0 -0.09 0.008 -0.09 0.027 c 0 0.023 -0.023 0.027 -0.125 0.027 c -0.098 0 -0.121 0.004 -0.121 0.027 c 0 0.023 -0.145 0.027 -1.195 0.027 c -1.055 0 -1.199 0 -1.199 0.023 c 0 0.023 -0.039 0.027 -0.246 0.027 c -0.238 0 -0.25 0.004 -0.25 0.035 c 0 0.02 -0.012 0.035 -0.023 0.035 c -0.016 0 -0.027 0.012 -0.027 0.027 c 0 0.016 -0.016 0.027 -0.035 0.027 c -0.02 0 -0.035 0.012 -0.035 0.027 c 0 0.012 -0.012 0.023 -0.027 0.023 c -0.016 0 -0.027 0.016 -0.027 0.039 c 0 0.023 -0.012 0.035 -0.035 0.035 c -0.02 0 -0.035 0.012 -0.035 0.023 c 0 0.016 -0.012 0.027 -0.027 0.027 c -0.016 0 -0.027 0.012 -0.027 0.027 c 0 0.016 -0.012 0.027 -0.023 0.027 c -0.016 0 -0.027 0.016 -0.027 0.035 c 0 0.02 -0.012 0.035 -0.027 0.035 c -0.012 0 -0.027 0.023 -0.035 0.055 c -0.008 0.027 -0.023 0.051 -0.039 0.051 c -0.012 0 -0.023 0.012 -0.023 0.027 c 0 0.016 -0.016 0.027 -0.035 0.027 c -0.02 0 -0.035 0.012 -0.035 0.027 c 0 0.012 -0.012 0.023 -0.027 0.023 c -0.016 0 -0.027 0.016 -0.027 0.035 c 0 0.023 -0.012 0.035 -0.035 0.035 c -0.02 0 -0.035 0.012 -0.035 0.027 c 0 0.016 -0.012 0.027 -0.027 0.027 c -0.016 0 -0.023 0.02 -0.023 0.055 c 0 0.039 -0.008 0.051 -0.039 0.051 c -0.023 0 -0.035 0.012 -0.035 0.035 c 0 0.02 -0.012 0.035 -0.023 0.035 c -0.016 0 -0.027 0.012 -0.027 0.027 c 0 0.016 -0.016 0.027 -0.035 0.027 c -0.02 0 -0.035 0.012 -0.035 0.027 c 0 0.016 -0.012 0.027 -0.027 0.027 c -0.016 0 -0.027 0.016 -0.027 0.035 c 0 0.02 -0.012 0.035 -0.027 0.035 c -0.016 0 -0.023 0.016 -0.023 0.051 c 0 0.043 -0.012 0.055 -0.039 0.055 c -0.02 0 -0.035 0.012 -0.035 0.027 c 0 0.016 -0.012 0.027 -0.023 0.027 c -0.016 0 -0.027 0.016 -0.027 0.035 c 0 0.023 -0.012 0.035 -0.035 0.035 c -0.02 0 -0.035 0.012 -0.035 0.023 c 0 0.016 -0.012 0.027 -0.027 0.027 c -0.02 0 -0.027 0.02 -0.027 0.055 c 0 0.039 -0.008 0.055 -0.035 0.055 c -0.023 0 -0.035 0.012 -0.035 0.035 c 0 0.02 -0.012 0.035 -0.027 0.035 c -0.016 0 -0.027 0.012 -0.027 0.023 c 0 0.016 -0.016 0.027 -0.035 0.027 c -0.02 0 -0.035 0.012 -0.035 0.027 c 0 0.016 -0.012 0.027 -0.027 0.027 c -0.016 0 -0.023 0.02 -0.023 0.063 c 0 0.051 -0.008 0.063 -0.035 0.063 c -0.02 0 -0.039 0.012 -0.039 0.023 c 0 0.016 -0.012 0.027 -0.023 0.027 c -0.016 0 -0.027 0.012 -0.027 0.027 c 0 0.016 -0.012 0.027 -0.027 0.027 c -0.016 0 -0.027 0.016 -0.027 0.035 c 0 0.023 -0.012 0.035 -0.035 0.035 c -0.027 0 -0.035 0.012 -0.035 0.055 c 0 0.035 -0.008 0.051 -0.027 0.051 c -0.012 0 -0.023 0.012 -0.023 0.027 c 0 0.016 -0.016 0.027 -0.035 0.027 c -0.027 0 -0.039 0.012 -0.039 0.035 c 0 0.02 -0.012 0.035 -0.023 0.035 c -0.016 0 -0.027 0.016 -0.027 0.035 c 0 0.02 -0.012 0.035 -0.027 0.035 c -0.016 0 -0.031 0.023 -0.039 0.055 c -0.004 0.027 -0.02 0.051 -0.035 0.051 c -0.012 0 -0.023 0.012 -0.023 0.027 c 0 0.016 -0.016 0.027 -0.035 0.027 c -0.02 0 -0.035 0.012 -0.035 0.027 c 0 0.012 -0.012 0.023 -0.027 0.023 c -0.02 0 -0.027 0.02 -0.027 0.063 c 0 0.051 -0.004 0.063 -0.035 0.063 c -0.02 0 -0.035 0.012 -0.035 0.027 c 0 0.016 -0.012 0.027 -0.027 0.027 c -0.012 0 -0.023 0.012 -0.023 0.027 c 0 0.012 -0.012 0.023 -0.027 0.023 c -0.02 0 -0.027 0.02 -0.027 0.063 c 0 0.051 -0.008 0.063 -0.035 0.063 c -0.02 0 -0.035 0.012 -0.035 0.027 c 0 0.016 -0.012 0.027 -0.027 0.027 c -0.016 0 -0.027 0.012 -0.027 0.027 c 0 0.012 -0.016 0.023 -0.035 0.023 c -0.027 0 -0.035 0.012 -0.035 0.063 c 0 0.043 -0.008 0.063 -0.027 0.063 c -0.012 0 -0.023 0.012 -0.023 0.027 c 0 0.016 -0.016 0.027 -0.035 0.027 c -0.02 0 -0.039 0.012 -0.039 0.027 c 0 0.012 -0.012 0.023 -0.023 0.023 c -0.02 0 -0.027 0.02 -0.027 0.063 c 0 0.051 -0.008 0.063 -0.035 0.063 c -0.02 0 -0.035 0.012 -0.035 0.027 c 0 0.016 -0.012 0.027 -0.027 0.027 c -0.016 0 -0.027 0.012 -0.027 0.023 c 0 0.012 -0.016 0.027 -0.035 0.035 c -0.023 0.004 -0.035 0.023 -0.035 0.063 c 0 0.035 -0.008 0.055 -0.027 0.055 c -0.012 0 -0.027 0.012 -0.027 0.027 c 0 0.016 -0.016 0.027 -0.035 0.027 c -0.023 0 -0.035 0.012 -0.035 0.035 c 0 0.02 -0.008 0.035 -0.016 0.035 c -0.008 0 -0.02 0.023 -0.027 0.051 c -0.008 0.031 -0.023 0.055 -0.035 0.055 c -0.016 0 -0.027 0.012 -0.027 0.027 c 0 0.016 -0.016 0.027 -0.035 0.027 c -0.027 0 -0.035 0.012 -0.035 0.059 c 0 0.047 -0.008 0.063 -0.027 0.063 c -0.016 0 -0.027 0.012 -0.027 0.027 c 0 0.016 -0.016 0.027 -0.035 0.027 c -0.02 0 -0.035 0.012 -0.035 0.027 c 0 0.016 -0.012 0.027 -0.027 0.027 c -0.016 0 -0.023 0.016 -0.023 0.059 c 0 0.051 -0.008 0.063 -0.035 0.063 c -0.02 0 -0.035 0.012 -0.035 0.027 c 0 0.016 -0.016 0.027 -0.027 0.027 c -0.016 0 -0.027 0.016 -0.027 0.035 c 0 0.023 -0.012 0.035 -0.035 0.035 c -0.027 0 -0.035 0.012 -0.035 0.055 c 0 0.035 -0.008 0.051 -0.027 0.051 c -0.016 0 -0.027 0.012 -0.027 0.027 c 0 0.016 -0.016 0.027 -0.035 0.027 c -0.027 0 -0.035 0.012 -0.035 0.063 c 0 0.043 -0.008 0.063 -0.027 0.063 c -0.012 0 -0.027 0.012 -0.027 0.023 c 0 0.016 -0.012 0.027 -0.023 0.027 c -0.016 0 -0.027 0.012 -0.027 0.027 c 0 0.016 -0.016 0.027 -0.035 0.027 c -0.031 0 -0.035 0.012 -0.035 0.063 c 0 0.043 -0.008 0.063 -0.027 0.063 c -0.016 0 -0.027 0.012 -0.027 0.023 c 0 0.016 -0.016 0.027 -0.035 0.027 c -0.023 0 -0.035 0.012 -0.035 0.035 c 0 0.02 -0.012 0.035 -0.027 0.035 c -0.016 0 -0.027 0.02 -0.027 0.055 c 0 0.043 -0.008 0.055 -0.035 0.055 c -0.02 0 -0.035 0.012 -0.035 0.023 c 0 0.016 -0.012 0.027 -0.027 0.027 c -0.012 0 -0.023 0.016 -0.023 0.035 c 0 0.023 -0.012 0.035 -0.035 0.035 c -0.02 0 -0.035 0.012 -0.035 0.027 c 0 0.016 -0.012 0.027 -0.027 0.027 c -0.02 0 -0.027 0.016 -0.027 0.055 c 0 0.039 -0.008 0.051 -0.035 0.051 c -0.023 0 -0.035 0.012 -0.035 0.035 c 0 0.02 -0.012 0.035 -0.027 0.035 c -0.016 0 -0.027 0.012 -0.027 0.027 c 0 0.023 -0.035 0.027 -0.211 0.027 c -0.18 0 -0.215 -0.004 -0.215 -0.027"/></g></svg>