<svg xmlns="http://www.w3.org/2000/svg" viewBox="0 0 22 22"><path d="m 10.449 0.309 c -29.824 13.258 13.93 37.08 11.449 7.551 c -0.582 -4.445 -5.176 -9.117 -11.449 -7.551" fill="#e5c100"/><g fill="#fff" fill-rule="evenodd"><path d="m 9.918 14.57 c -0.168 -0.082 -0.32 -0.223 -0.344 -0.313 c -0.023 -0.086 -0.078 -0.16 -0.121 -0.16 c -0.043 0 -0.078 -0.117 -0.078 -0.266 c 0 -0.145 0.035 -0.266 0.078 -0.266 c 0.043 0 0.105 -0.094 0.133 -0.211 c 0.039 -0.148 0.141 -0.234 0.32 -0.273 c 0.148 -0.035 0.266 -0.098 0.266 -0.141 c 0 -0.121 -0.242 -0.102 -0.285 0.023 c -0.043 0.129 -0.949 0.133 -1.031 0.004 c -0.031 -0.047 -0.184 -0.113 -0.344 -0.148 c -0.156 -0.035 -0.289 -0.098 -0.289 -0.141 c 0 -0.039 -0.09 -0.102 -0.199 -0.137 c -0.109 -0.035 -0.285 -0.148 -0.387 -0.25 c -0.34 -0.332 -0.465 -0.41 -0.738 -0.465 c -0.148 -0.031 -0.27 -0.09 -0.27 -0.133 c 0 -0.039 -0.035 -0.074 -0.082 -0.074 c -0.047 0 -0.188 -0.039 -0.313 -0.09 c -0.203 -0.074 -0.219 -0.109 -0.129 -0.273 c 0.09 -0.168 0.16 -0.184 0.672 -0.152 c 0.316 0.02 0.602 0.078 0.633 0.125 c 0.035 0.051 0.199 0.145 0.371 0.211 c 0.172 0.07 0.344 0.176 0.383 0.238 c 0.039 0.066 0.125 0.117 0.199 0.117 c 0.07 0 0.125 0.047 0.125 0.102 c 0 0.059 0.023 0.086 0.047 0.059 c 0.074 -0.074 -0.055 -0.336 -0.164 -0.336 c -0.059 0 -0.219 -0.102 -0.359 -0.223 c -0.141 -0.121 -0.312 -0.223 -0.383 -0.223 c -0.07 0 -0.184 -0.059 -0.258 -0.133 c -0.074 -0.07 -0.27 -0.133 -0.438 -0.133 c -0.168 0 -0.305 -0.039 -0.305 -0.086 c 0 -0.051 0.039 -0.09 0.082 -0.09 c 0.043 0 0.102 -0.133 0.133 -0.301 c 0.031 -0.164 0.137 -0.387 0.23 -0.5 c 0.098 -0.109 0.176 -0.246 0.176 -0.305 c 0 -0.191 1.262 -1.375 1.465 -1.375 c 0.066 0 0.172 -0.051 0.234 -0.117 c 0.188 -0.187 0.895 -0.324 1.668 -0.324 c 0.723 0 1.504 0.137 1.504 0.266 c 0 0.039 0.121 0.113 0.266 0.164 c 0.148 0.051 0.266 0.133 0.266 0.184 c 0 0.051 0.047 0.094 0.102 0.094 c 0.098 0 0.695 0.586 0.695 0.684 c 0 0.164 -0.215 0.734 -0.277 0.734 c -0.043 0 -0.074 0.059 -0.074 0.133 c 0 0.074 0.039 0.133 0.086 0.133 c 0.051 0 0.09 -0.059 0.09 -0.133 c 0 -0.074 0.031 -0.133 0.07 -0.133 c 0.039 0 0.145 -0.16 0.23 -0.355 c 0.117 -0.266 0.207 -0.355 0.359 -0.355 c 0.336 0 0.367 0.438 0.035 0.441 c -0.035 0.004 -0.133 0.281 -0.219 0.625 c -0.09 0.34 -0.191 0.617 -0.23 0.617 c -0.039 0 -0.07 0.102 -0.07 0.223 c 0 0.371 0.164 0.246 0.227 -0.176 c 0.035 -0.223 0.086 -0.398 0.121 -0.398 c 0.031 0 0.109 -0.18 0.168 -0.398 c 0.102 -0.387 0.117 -0.398 0.449 -0.398 c 0.227 0 0.363 -0.047 0.398 -0.133 c 0.027 -0.074 0.102 -0.137 0.164 -0.137 c 0.117 0 0.332 -0.387 0.332 -0.59 c 0 -0.066 0.035 -0.117 0.078 -0.117 c 0.043 0 0.105 -0.164 0.137 -0.363 c 0.035 -0.234 0.152 -0.461 0.324 -0.629 l 0.266 -0.266 l -0.059 0.363 c -0.035 0.223 -0.023 0.363 0.031 0.363 c 0.047 0 0.113 -0.164 0.145 -0.363 c 0.035 -0.203 0.102 -0.441 0.148 -0.531 c 0.152 -0.285 0.664 -0.168 0.82 0.188 c 0.035 0.07 0.039 0.016 0.012 -0.121 c -0.047 -0.242 -0.035 -0.254 0.199 -0.195 c 0.137 0.035 0.266 0.082 0.285 0.102 c 0.105 0.105 0.105 1.133 0.004 1.328 c -0.137 0.25 -0.41 0.285 -0.469 0.059 c -0.031 -0.125 -0.043 -0.129 -0.051 -0.012 c -0.004 0.074 -0.113 0.184 -0.234 0.242 c -0.305 0.137 -0.563 -0.004 -0.633 -0.344 c -0.063 -0.316 -0.207 -0.348 -0.207 -0.047 c 0 0.332 0.41 0.699 0.699 0.625 c 0.129 -0.031 0.246 -0.094 0.262 -0.141 c 0.035 -0.094 0.547 -0.109 0.547 -0.016 c 0 0.039 0.098 0.18 0.215 0.32 c 0.121 0.137 0.195 0.305 0.168 0.375 c -0.063 0.16 -0.582 0.301 -1.121 0.301 c -0.355 0.004 -0.438 -0.027 -0.477 -0.176 c -0.055 -0.211 -0.086 -0.215 -0.254 -0.051 c -0.199 0.199 -0.152 0.293 0.184 0.355 c 0.172 0.031 0.309 0.098 0.309 0.145 c 0 0.047 0.09 0.082 0.195 0.082 c 0.145 0 0.168 0.027 0.098 0.098 c -0.055 0.055 -0.328 0.098 -0.609 0.094 c -0.469 -0.008 -0.531 0.016 -0.797 0.301 c -0.16 0.168 -0.332 0.305 -0.379 0.305 c -0.047 0 -0.148 0.063 -0.227 0.141 c -0.074 0.074 -0.379 0.18 -0.672 0.234 c -0.289 0.055 -0.531 0.133 -0.531 0.172 c 0 0.043 -0.039 0.074 -0.09 0.074 c -0.047 0 -0.086 -0.078 -0.086 -0.176 c 0 -0.098 -0.039 -0.18 -0.09 -0.18 c -0.047 0 -0.09 0.051 -0.09 0.113 c 0 0.059 -0.027 0.203 -0.059 0.32 c -0.047 0.188 -0.031 0.199 0.156 0.141 c 0.117 -0.035 0.227 -0.102 0.242 -0.141 c 0.02 -0.043 0.109 -0.078 0.203 -0.078 c 0.172 0 0.172 0 0 0.188 c -0.105 0.113 -0.289 0.188 -0.484 0.191 c -0.246 0.008 -0.324 0.051 -0.363 0.211 c -0.098 0.387 -0.434 0.648 -0.855 0.66 c -0.215 0.004 -0.316 0.027 -0.234 0.051 c 0.191 0.051 0.207 0.293 0.023 0.293 c -0.074 0 -0.133 0.059 -0.133 0.133 c 0 0.074 -0.039 0.133 -0.09 0.133 c -0.047 0 -0.086 -0.039 -0.086 -0.09 c 0 -0.184 -0.16 -0.074 -0.27 0.184 c -0.074 0.184 -0.133 0.238 -0.18 0.164 c -0.051 -0.082 -0.102 -0.074 -0.215 0.039 c -0.082 0.082 -0.18 0.145 -0.215 0.145 c -0.039 0 -0.109 0.133 -0.152 0.289 c -0.098 0.344 -0.305 0.395 -0.73 0.184 m 1.848 -1.621 c 0 -0.051 -0.078 -0.09 -0.176 -0.09 c -0.098 0 -0.176 0.039 -0.176 0.09 c 0 0.047 0.078 0.086 0.176 0.086 c 0.098 0 0.176 -0.039 0.176 -0.086 m -0.441 -0.09 c 0 -0.051 -0.238 -0.09 -0.535 -0.09 c -0.336 0 -0.52 0.035 -0.484 0.09 c 0.031 0.051 0.273 0.09 0.539 0.09 c 0.262 0 0.48 -0.039 0.48 -0.09 m -1.773 -0.621 c 0 -0.047 -0.039 -0.086 -0.086 -0.086 c -0.051 0 -0.09 0.039 -0.09 0.086 c 0 0.051 0.039 0.09 0.09 0.09 c 0.047 0 0.086 -0.039 0.086 -0.09 m -0.66 -0.23 c -0.078 -0.078 -0.164 -0.121 -0.191 -0.094 c -0.078 0.078 0.055 0.238 0.199 0.238 c 0.117 0 0.117 -0.02 -0.008 -0.145 m 1.836 -0.004 c 0.281 -0.031 0.508 -0.094 0.508 -0.141 c 0 -0.117 -1.059 -0.039 -1.137 0.086 c -0.031 0.051 -0.137 0.117 -0.234 0.145 c -0.098 0.027 -0.059 0.031 0.09 0.008 c 0.145 -0.023 0.492 -0.066 0.773 -0.098 m 1.836 0.059 c 0.18 -0.094 0.398 -0.645 0.324 -0.82 c -0.023 -0.066 -0.047 -0.047 -0.051 0.047 c -0.004 0.082 -0.043 0.152 -0.09 0.152 c -0.047 0 -0.133 0.137 -0.191 0.309 c -0.094 0.258 -0.16 0.309 -0.43 0.336 l -0.313 0.035 l 0.293 0.016 c 0.16 0.008 0.367 -0.023 0.457 -0.074 m -0.797 -0.09 c 0 -0.047 -0.098 -0.086 -0.219 -0.086 c -0.125 0 -0.223 0.039 -0.223 0.086 c 0 0.051 0.098 0.09 0.223 0.09 c 0.121 0 0.219 -0.039 0.219 -0.09 m 1.305 -1.063 c -0.027 -0.098 -0.012 -0.176 0.031 -0.176 c 0.047 0 0.082 -0.102 0.082 -0.223 c 0 -0.121 -0.039 -0.219 -0.09 -0.219 c -0.047 0 -0.086 0.055 -0.086 0.121 c 0 0.066 -0.027 0.246 -0.055 0.398 c -0.039 0.191 -0.023 0.277 0.051 0.277 c 0.066 0 0.094 -0.07 0.066 -0.18 m 3.922 -2.789 c 0 -0.34 -0.027 -0.398 -0.176 -0.398 c -0.141 0 -0.18 0.059 -0.18 0.27 c 0 0.254 0.145 0.516 0.289 0.523 c 0.035 0.004 0.066 -0.176 0.066 -0.395 m 0.582 0.188 c 0.078 -0.32 0.012 -0.629 -0.141 -0.629 c -0.148 0 -0.219 0.309 -0.137 0.629 c 0.066 0.273 0.207 0.273 0.277 0"/><path d="m 5.941 14.13 c -0.121 -0.051 -0.465 -0.699 -0.465 -0.887 c 0 -0.063 0.035 -0.117 0.078 -0.117 c 0.043 0 0.105 -0.16 0.137 -0.355 c 0.031 -0.199 0.113 -0.383 0.188 -0.41 c 0.07 -0.027 0.133 -0.102 0.133 -0.168 c 0 -0.063 0.078 -0.141 0.176 -0.172 c 0.098 -0.031 0.176 -0.094 0.176 -0.141 c 0 -0.043 0.063 -0.082 0.133 -0.082 c 0.074 0 0.133 0.031 0.133 0.07 c 0 0.039 0.18 0.121 0.398 0.188 c 0.336 0.098 0.41 0.16 0.48 0.414 c 0.078 0.293 -0.059 1.105 -0.145 0.855 c -0.023 -0.059 -0.094 -0.109 -0.156 -0.109 c -0.066 0 -0.145 0.051 -0.172 0.109 c -0.039 0.09 -0.063 0.09 -0.102 0 c -0.031 -0.059 -0.094 -0.109 -0.145 -0.109 c -0.16 0 -0.52 0.449 -0.574 0.715 c -0.051 0.262 -0.074 0.281 -0.273 0.199"/><path d="m 9.918 14.57 c -0.168 -0.082 -0.32 -0.223 -0.344 -0.313 c -0.023 -0.086 -0.078 -0.16 -0.121 -0.16 c -0.043 0 -0.078 -0.117 -0.078 -0.266 c 0 -0.145 0.035 -0.266 0.078 -0.266 c 0.043 0 0.105 -0.094 0.133 -0.211 c 0.039 -0.148 0.141 -0.234 0.32 -0.273 c 0.148 -0.035 0.266 -0.098 0.266 -0.141 c 0 -0.121 -0.242 -0.102 -0.285 0.023 c -0.051 0.152 -0.855 0.117 -1.176 -0.051 c -0.145 -0.078 -0.316 -0.141 -0.375 -0.145 c -0.063 0 -0.113 -0.035 -0.113 -0.082 c 0 -0.043 -0.09 -0.109 -0.199 -0.145 c -0.109 -0.035 -0.285 -0.148 -0.387 -0.25 c -0.34 -0.332 -0.465 -0.41 -0.738 -0.465 c -0.148 -0.031 -0.27 -0.09 -0.27 -0.133 c 0 -0.039 -0.035 -0.074 -0.082 -0.074 c -0.047 0 -0.188 -0.039 -0.313 -0.09 c -0.199 -0.074 -0.219 -0.113 -0.137 -0.266 c 0.148 -0.273 0.867 -0.242 1.496 0.066 c 0.273 0.133 0.531 0.293 0.57 0.355 c 0.039 0.059 0.125 0.109 0.191 0.109 c 0.066 0 0.141 0.051 0.164 0.109 c 0.031 0.078 0.047 0.082 0.051 0.008 c 0.004 -0.059 -0.121 -0.195 -0.281 -0.309 c -0.156 -0.109 -0.34 -0.254 -0.402 -0.316 c -0.066 -0.063 -0.191 -0.113 -0.281 -0.113 c -0.09 0 -0.176 -0.043 -0.195 -0.094 c -0.016 -0.051 -0.199 -0.117 -0.406 -0.145 c -0.203 -0.027 -0.375 -0.086 -0.375 -0.125 c 0 -0.043 0.035 -0.078 0.082 -0.078 c 0.043 0 0.102 -0.137 0.133 -0.301 c 0.031 -0.168 0.137 -0.402 0.23 -0.523 c 0.098 -0.121 0.176 -0.262 0.176 -0.305 c 0 -0.188 1.266 -1.352 1.469 -1.352 c 0.063 0 0.168 -0.051 0.23 -0.117 c 0.188 -0.187 0.895 -0.324 1.668 -0.324 c 0.723 0 1.504 0.137 1.504 0.266 c 0 0.039 0.121 0.113 0.266 0.164 c 0.148 0.051 0.266 0.133 0.266 0.184 c 0 0.051 0.047 0.094 0.102 0.094 c 0.098 0 0.695 0.586 0.695 0.684 c 0 0.164 -0.215 0.734 -0.277 0.734 c -0.043 0 -0.074 0.059 -0.074 0.133 c 0 0.074 0.039 0.133 0.086 0.133 c 0.051 0 0.09 -0.059 0.09 -0.133 c 0 -0.074 0.031 -0.133 0.07 -0.133 c 0.039 0 0.145 -0.16 0.23 -0.355 c 0.117 -0.266 0.207 -0.355 0.359 -0.355 c 0.336 0 0.367 0.438 0.031 0.441 c -0.031 0.004 -0.129 0.281 -0.219 0.625 c -0.086 0.34 -0.188 0.617 -0.227 0.617 c -0.039 0 -0.07 0.102 -0.07 0.223 c 0 0.359 0.148 0.254 0.215 -0.152 c 0.031 -0.203 0.094 -0.414 0.133 -0.465 c 0.039 -0.051 0.121 -0.242 0.18 -0.422 c 0.094 -0.297 0.141 -0.336 0.398 -0.336 c 0.336 0 0.934 -0.512 0.934 -0.801 c 0 -0.094 0.035 -0.172 0.078 -0.172 c 0.043 0 0.105 -0.164 0.137 -0.367 c 0.039 -0.234 0.156 -0.469 0.324 -0.641 l 0.27 -0.273 l -0.063 0.375 c -0.035 0.23 -0.023 0.375 0.031 0.375 c 0.047 0 0.113 -0.164 0.145 -0.363 c 0.031 -0.203 0.098 -0.441 0.148 -0.531 c 0.117 -0.223 0.445 -0.211 0.695 0.023 l 0.203 0.188 l -0.063 -0.199 c -0.059 -0.188 -0.047 -0.199 0.188 -0.141 c 0.141 0.035 0.273 0.082 0.293 0.102 c 0.105 0.105 0.105 1.133 0.004 1.328 c -0.137 0.25 -0.41 0.285 -0.469 0.059 c -0.031 -0.125 -0.043 -0.129 -0.051 -0.012 c -0.004 0.074 -0.113 0.184 -0.238 0.242 c -0.301 0.137 -0.559 -0.004 -0.629 -0.344 c -0.063 -0.316 -0.207 -0.348 -0.207 -0.047 c 0 0.332 0.41 0.699 0.699 0.625 c 0.129 -0.031 0.246 -0.094 0.262 -0.141 c 0.035 -0.094 0.547 -0.109 0.547 -0.016 c 0 0.039 0.098 0.18 0.215 0.32 c 0.121 0.137 0.195 0.305 0.168 0.375 c -0.063 0.16 -0.582 0.301 -1.121 0.301 c -0.355 0.004 -0.438 -0.027 -0.477 -0.176 c -0.055 -0.211 -0.086 -0.215 -0.258 -0.043 c -0.172 0.168 -0.098 0.281 0.234 0.355 c 0.145 0.031 0.266 0.094 0.266 0.137 c 0 0.047 0.086 0.082 0.191 0.082 c 0.145 0 0.172 0.027 0.098 0.098 c -0.055 0.055 -0.328 0.098 -0.609 0.094 c -0.465 -0.008 -0.531 0.02 -0.789 0.289 c -0.152 0.16 -0.363 0.324 -0.469 0.355 c -0.109 0.035 -0.195 0.098 -0.195 0.141 c 0 0.043 -0.238 0.125 -0.535 0.184 c -0.293 0.059 -0.555 0.141 -0.578 0.18 c -0.086 0.141 -0.215 0.082 -0.215 -0.098 c 0 -0.281 -0.148 -0.207 -0.211 0.102 c -0.07 0.355 -0.023 0.398 0.25 0.219 c 0.121 -0.078 0.281 -0.145 0.359 -0.145 c 0.27 0 -0.168 0.352 -0.484 0.383 c -0.219 0.027 -0.328 0.102 -0.426 0.289 c -0.211 0.41 -0.426 0.566 -0.793 0.574 c -0.184 0.004 -0.285 0.027 -0.223 0.051 c 0.156 0.063 0.137 0.297 -0.023 0.297 c -0.074 0 -0.133 0.059 -0.133 0.133 c 0 0.16 -0.148 0.176 -0.199 0.023 c -0.023 -0.063 -0.117 0.016 -0.219 0.184 c -0.113 0.18 -0.195 0.25 -0.223 0.18 c -0.027 -0.094 -0.074 -0.082 -0.191 0.035 c -0.086 0.086 -0.184 0.152 -0.223 0.152 c -0.039 0 -0.105 0.133 -0.152 0.289 c -0.098 0.344 -0.305 0.395 -0.73 0.184 m 1.848 -1.621 c 0 -0.051 -0.078 -0.09 -0.176 -0.09 c -0.098 0 -0.176 0.039 -0.176 0.09 c 0 0.047 0.078 0.086 0.176 0.086 c 0.098 0 0.176 -0.039 0.176 -0.086 m -0.484 -0.09 c 0.031 -0.055 -0.133 -0.09 -0.438 -0.09 c -0.273 0 -0.492 0.043 -0.492 0.09 c 0 0.051 0.195 0.09 0.438 0.09 c 0.238 0 0.461 -0.039 0.492 -0.09 m -1.73 -0.621 c 0 -0.047 -0.039 -0.086 -0.086 -0.086 c -0.051 0 -0.09 0.039 -0.09 0.086 c 0 0.051 0.039 0.09 0.09 0.09 c 0.047 0 0.086 -0.039 0.086 -0.09 m -0.66 -0.23 c -0.078 -0.078 -0.164 -0.121 -0.191 -0.094 c -0.082 0.078 0.055 0.238 0.199 0.238 c 0.117 0 0.117 -0.02 -0.008 -0.145 m 1.793 -0.004 c 0.258 -0.031 0.492 -0.094 0.523 -0.145 c 0.07 -0.117 -1.039 -0.023 -1.113 0.094 c -0.031 0.047 -0.113 0.109 -0.188 0.141 c -0.074 0.031 -0.031 0.039 0.09 0.012 c 0.121 -0.027 0.43 -0.074 0.688 -0.102 m 1.875 0.059 c 0.164 -0.086 0.359 -0.52 0.359 -0.789 c -0.004 -0.148 -0.172 0.098 -0.371 0.543 c -0.082 0.18 -0.184 0.246 -0.422 0.27 l -0.313 0.035 l 0.293 0.016 c 0.16 0.008 0.367 -0.023 0.453 -0.074 m -0.793 -0.09 c 0 -0.047 -0.098 -0.086 -0.219 -0.086 c -0.125 0 -0.223 0.039 -0.223 0.086 c 0 0.051 0.098 0.09 0.223 0.09 c 0.121 0 0.219 -0.039 0.219 -0.09 m 1.328 -1.016 c 0 -0.074 -0.039 -0.133 -0.086 -0.133 c -0.051 0 -0.09 0.059 -0.09 0.133 c 0 0.07 0.039 0.133 0.09 0.133 c 0.047 0 0.086 -0.063 0.086 -0.133 m 0.09 -0.445 c 0 -0.121 -0.039 -0.219 -0.09 -0.219 c -0.047 0 -0.086 0.098 -0.086 0.219 c 0 0.121 0.039 0.223 0.086 0.223 c 0.051 0 0.09 -0.102 0.09 -0.223 m 3.809 -2.445 c 0 -0.293 -0.027 -0.352 -0.156 -0.328 c -0.191 0.039 -0.254 0.461 -0.094 0.637 c 0.172 0.188 0.25 0.09 0.25 -0.309 m 0.566 0.313 c 0.027 -0.074 0.051 -0.254 0.051 -0.398 c 0 -0.199 -0.039 -0.258 -0.176 -0.258 c -0.137 0 -0.176 0.059 -0.176 0.258 c 0 0.469 0.18 0.711 0.301 0.398"/><path d="m 10.133 14.66 c -0.047 -0.031 -0.121 -0.059 -0.172 -0.059 c -0.051 0 -0.102 -0.031 -0.117 -0.063 c -0.012 -0.035 -0.07 -0.063 -0.129 -0.063 c -0.063 0 -0.102 -0.023 -0.102 -0.063 c 0 -0.035 -0.031 -0.063 -0.063 -0.063 c -0.043 0 -0.063 -0.039 -0.063 -0.125 c 0 -0.066 -0.02 -0.121 -0.043 -0.121 c -0.023 0 -0.039 -0.125 -0.039 -0.293 c 0 -0.164 0.016 -0.289 0.039 -0.289 c 0.023 0 0.043 -0.055 0.043 -0.125 c 0 -0.082 0.02 -0.121 0.063 -0.121 c 0.031 0 0.063 -0.027 0.063 -0.059 c 0 -0.031 0.055 -0.066 0.121 -0.082 c 0.07 -0.012 0.125 -0.051 0.125 -0.082 c 0 -0.035 -0.039 -0.047 -0.125 -0.035 c -0.066 0.008 -0.121 0.035 -0.121 0.055 c 0 0.086 -0.605 -0.02 -0.859 -0.152 c -0.063 -0.031 -0.137 -0.059 -0.16 -0.059 c -0.074 0 -0.324 -0.137 -0.359 -0.195 c -0.02 -0.031 -0.07 -0.055 -0.113 -0.055 c -0.047 0 -0.082 -0.02 -0.082 -0.039 c 0 -0.023 -0.047 -0.055 -0.105 -0.066 c -0.059 -0.016 -0.211 -0.129 -0.34 -0.25 c -0.129 -0.125 -0.266 -0.223 -0.309 -0.223 c -0.039 0 -0.074 -0.027 -0.074 -0.063 c 0 -0.039 -0.039 -0.063 -0.102 -0.063 c -0.055 0 -0.105 -0.02 -0.113 -0.043 c -0.008 -0.023 -0.094 -0.055 -0.188 -0.07 c -0.109 -0.012 -0.176 -0.043 -0.176 -0.078 c 0 -0.039 -0.055 -0.059 -0.168 -0.059 c -0.117 0 -0.164 -0.016 -0.164 -0.059 c 0 -0.039 -0.039 -0.063 -0.105 -0.063 c -0.063 0 -0.102 -0.023 -0.102 -0.063 c 0 -0.035 -0.027 -0.063 -0.063 -0.063 c -0.035 0 -0.063 -0.027 -0.063 -0.063 c 0 -0.035 0.027 -0.063 0.063 -0.063 c 0.035 0 0.063 -0.027 0.063 -0.063 c 0 -0.031 0.02 -0.063 0.043 -0.063 c 0.02 0 0.039 -0.027 0.039 -0.059 c 0 -0.055 0.086 -0.063 0.52 -0.063 c 0.43 0 0.516 0.008 0.516 0.063 c 0 0.035 0.039 0.059 0.098 0.059 c 0.055 0 0.113 0.031 0.125 0.063 c 0.012 0.035 0.07 0.063 0.129 0.063 c 0.066 0 0.105 0.023 0.105 0.063 c 0 0.039 0.035 0.063 0.098 0.063 c 0.055 0 0.109 0.027 0.121 0.063 c 0.016 0.035 0.074 0.063 0.129 0.063 c 0.066 0 0.105 0.023 0.105 0.063 c 0 0.031 0.027 0.059 0.063 0.059 c 0.035 0 0.063 0.031 0.063 0.063 c 0 0.039 0.039 0.063 0.09 0.063 c 0.047 0 0.109 0.035 0.141 0.074 c 0.027 0.039 0.066 0.059 0.086 0.039 c 0.039 -0.039 -0.18 -0.238 -0.262 -0.238 c -0.031 0 -0.055 -0.027 -0.055 -0.059 c 0 -0.035 -0.027 -0.063 -0.059 -0.063 c -0.031 0 -0.066 -0.027 -0.082 -0.063 c -0.012 -0.035 -0.059 -0.063 -0.105 -0.063 c -0.047 0 -0.086 -0.023 -0.086 -0.051 c 0 -0.063 -0.258 -0.199 -0.367 -0.199 c -0.043 0 -0.09 -0.027 -0.102 -0.063 c -0.012 -0.031 -0.07 -0.059 -0.125 -0.059 c -0.055 0 -0.109 -0.023 -0.117 -0.051 c -0.012 -0.027 -0.133 -0.059 -0.293 -0.066 c -0.262 -0.016 -0.277 -0.023 -0.277 -0.117 c 0 -0.059 0.023 -0.098 0.063 -0.098 c 0.039 0 0.063 -0.043 0.063 -0.129 c 0 -0.07 0.027 -0.152 0.063 -0.188 c 0.031 -0.035 0.059 -0.117 0.059 -0.184 c 0 -0.07 0.023 -0.121 0.055 -0.121 c 0.059 0 0.152 -0.188 0.152 -0.297 c 0 -0.043 0.031 -0.074 0.063 -0.074 c 0.043 0 0.063 -0.043 0.063 -0.125 c 0 -0.082 0.02 -0.125 0.063 -0.125 c 0.035 0 0.063 -0.027 0.063 -0.063 c 0 -0.035 0.027 -0.063 0.063 -0.063 c 0.035 0 0.063 -0.027 0.063 -0.063 c 0 -0.031 0.027 -0.063 0.063 -0.063 c 0.031 0 0.059 -0.027 0.059 -0.059 c 0 -0.035 0.02 -0.063 0.043 -0.063 c 0.023 0 0.043 -0.027 0.043 -0.063 c 0 -0.035 0.027 -0.063 0.063 -0.063 c 0.031 0 0.059 -0.027 0.059 -0.063 c 0 -0.035 0.031 -0.063 0.063 -0.063 c 0.035 0 0.063 -0.027 0.063 -0.063 c 0 -0.035 0.039 -0.063 0.086 -0.063 c 0.047 0 0.094 -0.027 0.105 -0.059 c 0.016 -0.035 0.051 -0.063 0.082 -0.063 c 0.031 0 0.059 -0.031 0.059 -0.063 c 0 -0.035 0.027 -0.063 0.063 -0.063 c 0.035 0 0.063 -0.027 0.063 -0.063 c 0 -0.039 0.039 -0.063 0.102 -0.063 c 0.066 0 0.105 -0.023 0.105 -0.063 c 0 -0.039 0.039 -0.063 0.121 -0.063 c 0.086 0 0.125 -0.02 0.125 -0.063 c 0 -0.035 0.039 -0.059 0.105 -0.059 c 0.063 0 0.102 -0.023 0.102 -0.063 c 0 -0.047 0.051 -0.062 0.188 -0.062 c 0.137 0 0.188 -0.016 0.188 -0.063 c 0 -0.047 0.043 -0.063 0.164 -0.063 c 0.121 0 0.164 -0.016 0.164 -0.063 c 0 -0.051 0.078 -0.063 0.457 -0.063 c 0.375 0 0.453 -0.008 0.453 -0.063 c 0 -0.031 0.02 -0.063 0.043 -0.063 c 0.023 0 0.043 0.031 0.043 0.063 c 0 0.051 0.07 0.063 0.414 0.063 c 0.34 0 0.41 0.012 0.41 0.063 c 0 0.047 0.047 0.063 0.168 0.063 c 0.117 0 0.164 0.016 0.164 0.063 c 0 0.039 0.039 0.063 0.102 0.063 c 0.055 0 0.109 0.027 0.121 0.062 c 0.012 0.031 0.07 0.063 0.129 0.063 c 0.066 0 0.105 0.023 0.105 0.059 c 0 0.043 0.039 0.063 0.125 0.063 c 0.082 0 0.121 0.023 0.121 0.063 c 0 0.035 0.02 0.063 0.043 0.063 c 0.023 0 0.043 0.027 0.043 0.063 c 0 0.043 0.039 0.063 0.121 0.063 c 0.086 0 0.125 0.02 0.125 0.063 c 0 0.031 0.027 0.063 0.063 0.063 c 0.035 0 0.063 0.027 0.063 0.063 c 0 0.031 0.02 0.059 0.043 0.059 c 0.02 0 0.039 0.031 0.039 0.063 c 0 0.035 0.027 0.063 0.063 0.063 c 0.035 0 0.063 0.027 0.063 0.063 c 0 0.035 0.027 0.063 0.063 0.063 c 0.035 0 0.063 0.027 0.063 0.063 c 0 0.035 0.027 0.063 0.063 0.063 c 0.043 0 0.059 0.043 0.059 0.164 c 0 0.121 -0.016 0.164 -0.059 0.164 c -0.039 0 -0.063 0.043 -0.063 0.109 c 0 0.059 -0.027 0.133 -0.063 0.168 c -0.035 0.035 -0.063 0.094 -0.063 0.137 c 0 0.043 -0.027 0.086 -0.063 0.098 c -0.07 0.027 -0.086 0.215 -0.023 0.254 c 0.047 0.027 0.211 -0.285 0.211 -0.398 c 0 -0.043 0.027 -0.074 0.063 -0.074 c 0.039 0 0.059 -0.043 0.059 -0.125 c 0 -0.082 0.023 -0.125 0.063 -0.125 c 0.035 0 0.063 -0.027 0.063 -0.063 c 0 -0.035 0.027 -0.063 0.063 -0.063 c 0.035 0 0.063 -0.027 0.063 -0.063 c 0 -0.047 0.051 -0.063 0.207 -0.063 c 0.156 0 0.207 0.016 0.207 0.063 c 0 0.035 0.027 0.063 0.063 0.063 c 0.035 0 0.063 0.039 0.063 0.094 c -0.004 0.066 -0.047 0.113 -0.168 0.172 c -0.133 0.066 -0.164 0.102 -0.164 0.195 c 0 0.078 -0.023 0.117 -0.063 0.117 c -0.039 0 -0.063 0.039 -0.063 0.102 c 0 0.055 -0.027 0.152 -0.063 0.215 c -0.031 0.066 -0.059 0.16 -0.063 0.211 c 0 0.051 -0.016 0.102 -0.035 0.113 c -0.023 0.012 -0.051 0.098 -0.066 0.188 c -0.016 0.094 -0.047 0.168 -0.066 0.168 c -0.02 0 -0.039 0.086 -0.039 0.188 c 0 0.227 0.098 0.238 0.117 0.016 c 0.008 -0.078 0.027 -0.18 0.047 -0.227 c 0.094 -0.219 0.168 -0.469 0.168 -0.57 c 0 -0.07 0.023 -0.109 0.063 -0.109 c 0.039 0 0.063 -0.039 0.063 -0.109 c 0 -0.059 0.027 -0.133 0.063 -0.168 c 0.035 -0.031 0.063 -0.098 0.063 -0.141 c 0 -0.07 0.031 -0.082 0.266 -0.082 c 0.262 0 0.52 -0.09 0.52 -0.188 c 0 -0.023 0.055 -0.063 0.125 -0.086 c 0.082 -0.035 0.125 -0.078 0.125 -0.137 c 0 -0.047 0.023 -0.086 0.051 -0.086 c 0.066 0 0.156 -0.227 0.156 -0.383 c 0 -0.07 0.02 -0.113 0.063 -0.113 c 0.043 0 0.059 -0.047 0.059 -0.18 c 0 -0.125 0.023 -0.191 0.063 -0.207 c 0.043 -0.016 0.063 -0.082 0.063 -0.191 c 0 -0.121 0.02 -0.164 0.063 -0.164 c 0.035 0 0.063 -0.031 0.063 -0.063 c 0 -0.035 0.02 -0.063 0.043 -0.063 c 0.02 0 0.039 -0.027 0.039 -0.063 c 0 -0.035 0.027 -0.063 0.063 -0.063 c 0.035 0 0.063 -0.027 0.063 -0.063 c 0 -0.035 0.027 -0.063 0.063 -0.063 c 0.035 0 0.063 -0.016 0.063 -0.039 c 0 -0.023 0.016 -0.043 0.039 -0.043 c 0.023 0 0.043 0.047 0.043 0.105 c 0 0.063 0.023 0.102 0.063 0.102 c 0.039 0 0.063 -0.039 0.063 -0.121 c 0 -0.066 0.027 -0.129 0.063 -0.141 c 0.031 -0.016 0.059 -0.063 0.059 -0.109 c 0 -0.047 0.027 -0.082 0.063 -0.082 c 0.035 0 0.063 -0.031 0.063 -0.063 c 0 -0.051 0.055 -0.063 0.23 -0.063 c 0.129 0 0.227 0.016 0.227 0.043 c 0 0.023 0.066 0.113 0.148 0.195 l 0.148 0.152 l -0.031 -0.195 l -0.027 -0.195 h 0.145 c 0.09 0 0.156 0.023 0.168 0.063 c 0.016 0.031 0.074 0.063 0.129 0.063 c 0.09 0 0.105 0.016 0.105 0.121 c 0 0.086 0.02 0.125 0.063 0.125 c 0.051 0 0.063 0.086 0.063 0.539 c 0 0.449 -0.012 0.539 -0.063 0.539 c -0.035 0 -0.063 0.016 -0.063 0.039 c 0 0.094 -0.168 0.207 -0.305 0.207 c -0.121 0 -0.145 -0.016 -0.172 -0.113 c -0.027 -0.109 -0.031 -0.109 -0.063 -0.023 c -0.051 0.133 -0.191 0.262 -0.289 0.262 c -0.047 0 -0.082 0.027 -0.082 0.063 c 0 0.039 -0.039 0.063 -0.102 0.063 c -0.066 0 -0.105 -0.023 -0.105 -0.063 c 0 -0.035 -0.02 -0.063 -0.043 -0.063 c -0.051 0 -0.207 -0.152 -0.207 -0.207 c 0 -0.023 -0.027 -0.043 -0.059 -0.043 c -0.047 0 -0.063 -0.047 -0.063 -0.188 c 0 -0.246 -0.098 -0.23 -0.117 0.016 c -0.012 0.133 0 0.172 0.051 0.172 c 0.039 0 0.066 0.039 0.066 0.094 c 0 0.105 0.164 0.281 0.262 0.281 c 0.039 0 0.066 0.02 0.066 0.039 c 0 0.023 0.059 0.043 0.125 0.043 c 0.07 0 0.125 -0.02 0.125 -0.043 c 0 -0.02 0.055 -0.039 0.125 -0.039 c 0.082 0 0.125 -0.023 0.125 -0.063 c 0 -0.102 0.473 -0.086 0.578 0.02 c 0.047 0.047 0.082 0.102 0.082 0.125 c 0 0.023 0.027 0.043 0.063 0.043 c 0.035 0 0.063 0.027 0.063 0.059 c 0 0.035 0.02 0.063 0.039 0.063 c 0.023 0 0.043 0.047 0.043 0.102 c 0 0.059 0.031 0.121 0.07 0.141 c 0.059 0.035 0.055 0.051 -0.043 0.156 c -0.059 0.066 -0.109 0.133 -0.109 0.152 c 0 0.016 -0.063 0.031 -0.141 0.031 c -0.078 0 -0.172 0.027 -0.207 0.063 c -0.047 0.047 -0.168 0.059 -0.52 0.059 c -0.402 0 -0.469 -0.008 -0.539 -0.082 c -0.047 -0.043 -0.082 -0.129 -0.082 -0.184 c 0 -0.066 -0.023 -0.105 -0.063 -0.105 c -0.035 0 -0.063 0.027 -0.063 0.063 c 0 0.035 -0.023 0.063 -0.055 0.063 c -0.027 0 -0.074 0.039 -0.105 0.086 c -0.043 0.07 -0.043 0.098 -0.004 0.137 c 0.035 0.035 0.055 0.031 0.066 -0.008 c 0.027 -0.07 0.098 -0.063 0.098 0.012 c 0 0.035 0.02 0.063 0.043 0.063 c 0.023 0 0.074 0.027 0.105 0.063 c 0.035 0.035 0.117 0.063 0.184 0.063 c 0.082 0 0.121 0.02 0.121 0.063 c 0 0.043 0.047 0.063 0.168 0.063 c 0.09 0 0.164 0.016 0.164 0.039 c 0 0.023 -0.02 0.043 -0.043 0.043 c -0.02 0 -0.039 0.027 -0.039 0.063 c 0 0.047 -0.055 0.059 -0.23 0.059 c -0.164 0 -0.234 0.02 -0.25 0.063 c -0.031 0.082 -0.098 0.082 -0.098 0 c 0 -0.066 -0.121 -0.078 -0.387 -0.035 c -0.156 0.027 -0.527 0.324 -0.527 0.422 c 0 0.027 -0.027 0.051 -0.059 0.051 c -0.035 0 -0.063 0.027 -0.063 0.063 c 0 0.035 -0.039 0.059 -0.105 0.059 c -0.059 0 -0.117 0.031 -0.129 0.063 c -0.012 0.035 -0.059 0.063 -0.105 0.063 c -0.043 0 -0.09 0.027 -0.102 0.063 c -0.012 0.035 -0.07 0.063 -0.125 0.063 c -0.055 0 -0.109 0.027 -0.125 0.063 c -0.016 0.043 -0.082 0.063 -0.227 0.063 c -0.141 0 -0.211 0.016 -0.227 0.063 c -0.016 0.039 -0.082 0.059 -0.203 0.059 c -0.105 0 -0.195 0.027 -0.227 0.063 c -0.027 0.035 -0.094 0.063 -0.148 0.063 c -0.09 0 -0.098 -0.02 -0.098 -0.168 c 0 -0.215 -0.102 -0.203 -0.117 0.016 c -0.008 0.086 -0.031 0.152 -0.055 0.152 c -0.02 0 -0.035 0.059 -0.035 0.125 c 0 0.07 0.016 0.125 0.039 0.125 c 0.023 0 0.043 -0.027 0.043 -0.063 c 0 -0.047 0.047 -0.063 0.164 -0.063 c 0.113 0 0.176 -0.02 0.191 -0.063 c 0.016 -0.039 0.078 -0.063 0.164 -0.063 c 0.098 0 0.141 0.02 0.141 0.063 c 0 0.035 -0.02 0.063 -0.039 0.063 c -0.023 0 -0.043 0.027 -0.043 0.063 c 0 0.035 -0.027 0.063 -0.063 0.063 c -0.035 0 -0.063 0.027 -0.063 0.063 c 0 0.043 -0.043 0.063 -0.164 0.063 c -0.121 0 -0.164 0.016 -0.164 0.059 c 0 0.078 -0.195 0.086 -0.219 0.012 c -0.027 -0.078 -0.238 0.176 -0.238 0.285 c 0 0.059 -0.023 0.098 -0.063 0.098 c -0.035 0 -0.063 0.02 -0.063 0.039 c 0 0.023 -0.063 0.105 -0.145 0.188 c -0.117 0.117 -0.188 0.148 -0.363 0.168 c -0.359 0.043 -0.418 0.059 -0.367 0.113 c 0.09 0.086 0.059 0.234 -0.055 0.262 c -0.074 0.02 -0.105 0.055 -0.105 0.121 c 0 0.117 -0.125 0.172 -0.188 0.086 c -0.027 -0.035 -0.063 -0.066 -0.078 -0.066 c -0.059 0 -0.188 0.176 -0.188 0.254 c 0 0.043 -0.027 0.078 -0.063 0.078 c -0.035 0 -0.063 0.027 -0.063 0.063 c 0 0.035 -0.02 0.063 -0.043 0.063 c -0.02 0 -0.039 -0.027 -0.039 -0.063 c 0 -0.035 -0.027 -0.063 -0.063 -0.063 c -0.035 0 -0.063 0.027 -0.063 0.063 c 0 0.035 -0.027 0.063 -0.063 0.063 c -0.113 0 -0.309 0.176 -0.309 0.277 c 0 0.051 -0.02 0.094 -0.043 0.094 c -0.023 0 -0.039 0.055 -0.039 0.125 c 0 0.082 -0.023 0.125 -0.063 0.125 c -0.035 0 -0.063 0.027 -0.063 0.063 c 0 0.082 -0.281 0.078 -0.391 -0.004 m 0.016 -1.695 c 0.043 -0.047 0.039 -0.066 -0.016 -0.086 c -0.09 -0.035 -0.191 0.008 -0.191 0.086 c 0 0.082 0.141 0.082 0.207 0 m 1.598 0.016 c 0.035 -0.055 -0.055 -0.117 -0.176 -0.117 c -0.102 0 -0.156 0.059 -0.117 0.121 c 0.035 0.059 0.258 0.055 0.293 -0.004 m -0.488 -0.129 c -0.02 -0.055 -0.637 -0.094 -0.809 -0.051 c -0.211 0.051 -0.02 0.102 0.391 0.102 c 0.328 0 0.43 -0.012 0.418 -0.051 m -1.738 -0.621 c -0.012 -0.027 -0.043 -0.051 -0.074 -0.051 c -0.031 0 -0.063 0.023 -0.07 0.051 c -0.012 0.031 0.02 0.051 0.07 0.051 c 0.055 0 0.082 -0.02 0.074 -0.051 m -0.527 -0.117 c 0 -0.023 -0.039 -0.055 -0.082 -0.066 c -0.043 -0.012 -0.09 -0.047 -0.102 -0.078 c -0.023 -0.066 -0.109 -0.078 -0.109 -0.02 c 0 0.023 0.035 0.082 0.074 0.125 c 0.074 0.09 0.219 0.113 0.219 0.039 m 3.469 -0.043 c 0.008 -0.02 0.039 -0.035 0.07 -0.035 c 0.035 0 0.059 -0.027 0.059 -0.063 c 0 -0.035 0.027 -0.063 0.063 -0.063 c 0.035 0 0.063 -0.027 0.063 -0.063 c 0 -0.035 0.02 -0.063 0.039 -0.063 c 0.035 0 0.168 -0.387 0.168 -0.492 c 0 -0.105 -0.082 -0.031 -0.172 0.152 c -0.055 0.109 -0.105 0.207 -0.121 0.215 c -0.012 0.012 -0.059 0.102 -0.102 0.195 c -0.082 0.176 -0.176 0.219 -0.48 0.219 c -0.063 0 -0.125 0.023 -0.141 0.047 c -0.02 0.031 0.055 0.035 0.258 0.016 c 0.156 -0.016 0.289 -0.047 0.297 -0.066 m -2.395 0.004 c 0 -0.02 0.086 -0.039 0.188 -0.039 c 0.137 0 0.184 -0.016 0.184 -0.063 c 0 -0.051 0.07 -0.063 0.371 -0.063 c 0.203 0 0.383 -0.02 0.395 -0.039 c 0.043 -0.07 -0.266 -0.098 -0.527 -0.047 c -0.141 0.027 -0.324 0.059 -0.402 0.07 c -0.078 0.012 -0.164 0.047 -0.188 0.074 c -0.02 0.023 -0.086 0.066 -0.145 0.094 l -0.102 0.051 h 0.113 c 0.063 0.004 0.113 -0.016 0.113 -0.039 m 1.688 -0.09 c -0.012 -0.031 -0.102 -0.059 -0.211 -0.066 c -0.152 -0.008 -0.195 0 -0.195 0.051 c 0 0.051 0.051 0.066 0.211 0.066 c 0.152 0 0.207 -0.016 0.195 -0.051 m 1.293 -1.07 c 0 -0.16 -0.098 -0.145 -0.117 0.016 c -0.008 0.078 0.008 0.113 0.051 0.113 c 0.047 0 0.066 -0.043 0.066 -0.129 m 0.102 -0.41 c 0 -0.109 -0.02 -0.188 -0.051 -0.199 c -0.035 -0.012 -0.051 0.047 -0.051 0.199 c 0 0.152 0.016 0.207 0.051 0.195 c 0.031 -0.012 0.051 -0.09 0.051 -0.195 m 3.789 -2.402 c 0 -0.328 -0.008 -0.371 -0.074 -0.371 c -0.133 0 -0.176 0.09 -0.176 0.359 c 0 0.203 0.016 0.262 0.063 0.262 c 0.035 0 0.063 0.027 0.063 0.063 c 0 0.031 0.027 0.063 0.063 0.063 c 0.051 0 0.063 -0.07 0.063 -0.375 m 0.578 0.313 c 0 -0.035 0.02 -0.063 0.043 -0.063 c 0.027 0 0.039 -0.113 0.031 -0.301 c -0.012 -0.297 -0.012 -0.301 -0.133 -0.313 c -0.152 -0.02 -0.188 0.043 -0.188 0.336 c 0 0.172 0.016 0.246 0.059 0.262 c 0.035 0.012 0.063 0.051 0.063 0.082 c 0 0.031 0.027 0.059 0.063 0.059 c 0.035 0 0.063 -0.027 0.063 -0.063 m -1.367 -0.375 c 0 -0.184 -0.051 -0.246 -0.098 -0.121 c -0.047 0.129 -0.027 0.309 0.039 0.309 c 0.043 0 0.059 -0.047 0.059 -0.188"/><path d="m 13.05 14.04 c 0 -0.039 -0.039 -0.063 -0.105 -0.063 c -0.063 0 -0.102 -0.023 -0.102 -0.063 c 0 -0.035 -0.027 -0.063 -0.063 -0.063 c -0.051 0 -0.063 -0.059 -0.063 -0.289 c 0 -0.23 0.012 -0.289 0.063 -0.289 c 0.043 0 0.063 -0.043 0.063 -0.125 c 0 -0.121 0 -0.125 0.227 -0.125 c 0.176 0 0.227 -0.012 0.227 -0.063 c 0 -0.039 0.039 -0.063 0.105 -0.063 c 0.063 0 0.102 -0.023 0.102 -0.059 c 0 -0.035 0.031 -0.063 0.063 -0.063 c 0.035 0 0.063 -0.027 0.063 -0.063 c 0 -0.035 0.027 -0.063 0.063 -0.063 c 0.035 0 0.063 -0.027 0.063 -0.063 c 0 -0.035 0.02 -0.063 0.043 -0.063 c 0.02 0 0.039 -0.055 0.039 -0.125 c 0 -0.082 0.02 -0.121 0.063 -0.121 c 0.035 0 0.063 -0.031 0.063 -0.063 c 0 -0.035 0.02 -0.063 0.039 -0.063 c 0.023 0 0.043 0.027 0.043 0.063 c 0 0.031 0.027 0.063 0.063 0.063 c 0.035 0 0.063 0.027 0.063 0.059 c 0 0.035 0.027 0.063 0.063 0.063 c 0.039 0 0.063 0.043 0.063 0.125 c 0 0.082 0.02 0.125 0.063 0.125 c 0.035 0 0.059 0.039 0.059 0.102 c 0 0.066 -0.023 0.105 -0.059 0.105 c -0.035 0 -0.063 0.027 -0.063 0.063 c 0 0.035 -0.031 0.063 -0.063 0.063 c -0.035 0 -0.063 0.027 -0.063 0.063 c 0 0.031 -0.027 0.059 -0.063 0.059 c -0.035 0 -0.063 0.031 -0.063 0.063 c 0 0.035 -0.02 0.063 -0.043 0.063 c -0.02 0 -0.039 -0.027 -0.039 -0.063 c 0 -0.039 -0.043 -0.063 -0.125 -0.063 c -0.082 0 -0.125 0.023 -0.125 0.063 c 0 0.035 -0.027 0.063 -0.063 0.063 c -0.031 0 -0.059 0.027 -0.059 0.063 c 0 0.035 -0.02 0.063 -0.043 0.063 c -0.023 0 -0.043 0.055 -0.043 0.125 c 0 0.082 -0.02 0.125 -0.063 0.125 c -0.047 0 -0.059 0.055 -0.059 0.246 v 0.25 h -0.168 c -0.117 0 -0.164 -0.02 -0.164 -0.063"/><path d="m 10.133 14.66 c -0.047 -0.031 -0.117 -0.059 -0.16 -0.059 c -0.043 0 -0.105 -0.031 -0.141 -0.063 c -0.031 -0.035 -0.098 -0.063 -0.141 -0.063 c -0.043 0 -0.078 -0.027 -0.078 -0.063 c 0 -0.035 -0.031 -0.063 -0.063 -0.063 c -0.043 0 -0.063 -0.039 -0.063 -0.125 c 0 -0.066 -0.02 -0.121 -0.043 -0.121 c -0.023 0 -0.039 -0.125 -0.039 -0.293 c 0 -0.164 0.016 -0.289 0.039 -0.289 c 0.023 0 0.043 -0.055 0.043 -0.125 c 0 -0.082 0.02 -0.121 0.063 -0.121 c 0.031 0 0.063 -0.027 0.063 -0.059 c 0 -0.031 0.055 -0.066 0.121 -0.082 c 0.07 -0.012 0.125 -0.043 0.125 -0.066 c 0 -0.055 -0.195 -0.055 -0.227 0 c -0.102 0.164 -1.293 -0.223 -1.625 -0.527 c -0.031 -0.031 -0.082 -0.055 -0.113 -0.055 c -0.031 0 -0.156 -0.094 -0.277 -0.207 c -0.121 -0.113 -0.262 -0.219 -0.313 -0.23 c -0.051 -0.016 -0.094 -0.051 -0.094 -0.082 c 0 -0.031 -0.035 -0.059 -0.078 -0.059 c -0.043 0 -0.133 -0.027 -0.195 -0.063 c -0.066 -0.035 -0.16 -0.063 -0.211 -0.063 c -0.059 0 -0.094 -0.023 -0.094 -0.063 c 0 -0.043 -0.047 -0.063 -0.168 -0.063 c -0.117 0 -0.164 -0.016 -0.164 -0.059 c 0 -0.035 -0.035 -0.063 -0.082 -0.063 c -0.086 0 -0.25 -0.137 -0.25 -0.207 c 0 -0.023 0.027 -0.043 0.063 -0.043 c 0.035 0 0.063 -0.027 0.063 -0.063 c 0 -0.031 0.02 -0.063 0.043 -0.063 c 0.02 0 0.039 -0.027 0.039 -0.063 c 0 -0.051 0.086 -0.059 0.52 -0.059 c 0.43 0 0.516 0.008 0.516 0.059 c 0 0.039 0.039 0.063 0.098 0.063 c 0.055 0 0.113 0.027 0.125 0.063 c 0.012 0.035 0.07 0.063 0.125 0.063 c 0.055 0 0.109 0.027 0.121 0.063 c 0.016 0.035 0.063 0.063 0.105 0.063 c 0.043 0 0.09 0.027 0.102 0.063 c 0.016 0.035 0.074 0.063 0.129 0.063 c 0.066 0 0.105 0.023 0.105 0.063 c 0 0.031 0.027 0.059 0.063 0.059 c 0.035 0 0.063 0.031 0.063 0.063 c 0 0.035 0.039 0.063 0.09 0.063 c 0.047 0 0.109 0.035 0.141 0.074 c 0.027 0.039 0.063 0.059 0.078 0.043 c 0.035 -0.031 -0.188 -0.242 -0.258 -0.242 c -0.027 0 -0.051 -0.027 -0.051 -0.059 c 0 -0.035 -0.027 -0.063 -0.059 -0.063 c -0.031 0 -0.066 -0.031 -0.082 -0.063 c -0.012 -0.035 -0.059 -0.063 -0.105 -0.063 c -0.047 0 -0.086 -0.02 -0.086 -0.039 c 0 -0.055 -0.266 -0.211 -0.363 -0.211 c -0.043 0 -0.094 -0.027 -0.105 -0.063 c -0.016 -0.031 -0.066 -0.063 -0.117 -0.063 c -0.055 0 -0.133 -0.027 -0.176 -0.063 c -0.047 -0.035 -0.172 -0.059 -0.301 -0.059 c -0.207 0 -0.219 -0.008 -0.219 -0.105 c 0 -0.063 0.023 -0.102 0.063 -0.102 c 0.043 0 0.063 -0.043 0.063 -0.141 c 0 -0.078 0.027 -0.164 0.059 -0.191 c 0.035 -0.027 0.063 -0.094 0.063 -0.148 c 0 -0.051 0.047 -0.145 0.105 -0.207 c 0.055 -0.063 0.102 -0.156 0.102 -0.211 c 0 -0.059 0.027 -0.098 0.063 -0.098 c 0.043 0 0.063 -0.039 0.063 -0.121 c 0 -0.086 0.02 -0.125 0.063 -0.125 c 0.035 0 0.063 -0.027 0.063 -0.063 c 0 -0.035 0.027 -0.063 0.063 -0.063 c 0.031 0 0.063 -0.027 0.063 -0.063 c 0 -0.031 0.027 -0.063 0.059 -0.063 c 0.035 0 0.063 -0.027 0.063 -0.063 c 0 -0.031 0.02 -0.059 0.043 -0.059 c 0.023 0 0.043 -0.031 0.043 -0.063 c 0 -0.035 0.027 -0.063 0.059 -0.063 c 0.035 0 0.063 -0.027 0.063 -0.063 c 0 -0.035 0.027 -0.063 0.063 -0.063 c 0.035 0 0.063 -0.027 0.063 -0.063 c 0 -0.035 0.039 -0.063 0.086 -0.063 c 0.043 0 0.094 -0.027 0.105 -0.063 c 0.016 -0.031 0.051 -0.059 0.082 -0.059 c 0.031 0 0.059 -0.031 0.059 -0.063 c 0 -0.035 0.027 -0.063 0.063 -0.063 c 0.031 0 0.063 -0.027 0.063 -0.063 c 0 -0.039 0.039 -0.063 0.102 -0.063 c 0.066 0 0.105 -0.023 0.105 -0.063 c 0 -0.043 0.039 -0.063 0.121 -0.063 c 0.086 0 0.125 -0.02 0.125 -0.063 c 0 -0.039 0.039 -0.063 0.105 -0.063 c 0.063 0 0.102 -0.023 0.102 -0.059 c 0 -0.047 0.047 -0.062 0.168 -0.062 c 0.109 0 0.176 -0.023 0.191 -0.063 c 0.016 -0.043 0.078 -0.063 0.184 -0.063 c 0.117 0 0.16 -0.02 0.16 -0.063 c 0 -0.051 0.078 -0.063 0.438 -0.063 c 0.348 0 0.441 -0.012 0.461 -0.063 c 0.027 -0.078 0.098 -0.078 0.098 0 c 0 0.051 0.07 0.063 0.41 0.063 c 0.344 0 0.414 0.012 0.414 0.063 c 0 0.047 0.047 0.063 0.168 0.063 c 0.117 0 0.164 0.016 0.164 0.063 c 0 0.035 0.039 0.063 0.102 0.063 c 0.051 0 0.109 0.027 0.121 0.062 c 0.012 0.031 0.07 0.059 0.129 0.059 c 0.066 0 0.105 0.023 0.105 0.063 c 0 0.043 0.039 0.063 0.121 0.063 c 0.086 0 0.125 0.023 0.125 0.063 c 0 0.035 0.02 0.063 0.043 0.063 c 0.023 0 0.039 0.027 0.039 0.063 c 0 0.039 0.043 0.063 0.125 0.063 c 0.082 0 0.125 0.02 0.125 0.063 c 0 0.031 0.027 0.063 0.063 0.063 c 0.035 0 0.063 0.027 0.063 0.059 c 0 0.035 0.02 0.063 0.039 0.063 c 0.023 0 0.043 0.027 0.043 0.063 c 0 0.035 0.027 0.063 0.063 0.063 c 0.035 0 0.063 0.027 0.063 0.063 c 0 0.035 0.027 0.063 0.063 0.063 c 0.031 0 0.063 0.027 0.063 0.063 c 0 0.031 0.027 0.063 0.059 0.063 c 0.047 0 0.063 0.043 0.063 0.16 c 0 0.105 -0.02 0.168 -0.063 0.184 c -0.031 0.016 -0.059 0.063 -0.059 0.113 c 0 0.047 -0.031 0.113 -0.063 0.148 c -0.035 0.031 -0.063 0.094 -0.063 0.137 c 0 0.043 -0.027 0.086 -0.063 0.098 c -0.078 0.031 -0.082 0.234 -0.008 0.234 c 0.059 0 0.195 -0.27 0.195 -0.387 c 0 -0.039 0.027 -0.066 0.059 -0.066 c 0.043 0 0.063 -0.043 0.063 -0.125 c 0 -0.082 0.023 -0.125 0.063 -0.125 c 0.035 0 0.063 -0.02 0.063 -0.043 c 0 -0.02 0.039 -0.078 0.082 -0.121 c 0.105 -0.105 0.457 -0.121 0.457 -0.023 c 0 0.035 0.027 0.063 0.063 0.063 c 0.035 0 0.063 0.039 0.063 0.094 c -0.004 0.066 -0.047 0.113 -0.168 0.172 c -0.133 0.063 -0.164 0.102 -0.164 0.191 c 0 0.063 -0.027 0.125 -0.063 0.137 c -0.035 0.016 -0.063 0.063 -0.063 0.105 c 0 0.047 -0.027 0.145 -0.059 0.219 c -0.031 0.078 -0.094 0.254 -0.133 0.395 c -0.043 0.145 -0.09 0.262 -0.109 0.262 c -0.016 0 -0.031 0.082 -0.031 0.184 c 0 0.105 0.02 0.188 0.039 0.188 c 0.047 0 0.086 -0.102 0.086 -0.215 c 0 -0.047 0.047 -0.215 0.105 -0.371 c 0.055 -0.16 0.102 -0.332 0.102 -0.391 c 0 -0.063 0.023 -0.098 0.063 -0.098 c 0.039 0 0.063 -0.043 0.063 -0.121 c 0 -0.066 0.027 -0.141 0.063 -0.172 c 0.035 -0.027 0.063 -0.086 0.063 -0.129 c 0 -0.066 0.031 -0.078 0.25 -0.078 c 0.246 0 0.457 -0.07 0.523 -0.176 c 0.016 -0.027 0.07 -0.07 0.113 -0.094 c 0.047 -0.027 0.102 -0.086 0.125 -0.137 c 0.023 -0.047 0.055 -0.09 0.07 -0.09 c 0.055 0 0.156 -0.238 0.156 -0.371 c 0 -0.082 0.023 -0.125 0.063 -0.125 c 0.047 0 0.063 -0.047 0.063 -0.168 c 0 -0.094 0.027 -0.195 0.063 -0.23 c 0.035 -0.035 0.063 -0.125 0.063 -0.203 c 0 -0.098 0.02 -0.145 0.063 -0.145 c 0.035 0 0.063 -0.027 0.063 -0.059 c 0 -0.035 0.02 -0.063 0.039 -0.063 c 0.023 0 0.043 -0.027 0.043 -0.063 c 0 -0.035 0.027 -0.063 0.063 -0.063 c 0.035 0 0.063 -0.027 0.063 -0.063 c 0 -0.035 0.027 -0.063 0.063 -0.063 c 0.031 0 0.063 -0.02 0.063 -0.039 c 0 -0.023 0.016 -0.043 0.039 -0.043 c 0.023 0 0.043 0.047 0.043 0.102 c 0 0.066 0.023 0.105 0.063 0.105 c 0.039 0 0.063 -0.043 0.063 -0.121 c 0 -0.063 0.027 -0.141 0.059 -0.168 c 0.035 -0.031 0.063 -0.078 0.063 -0.109 c 0 -0.031 0.027 -0.059 0.063 -0.059 c 0.035 0 0.063 -0.027 0.063 -0.063 c 0 -0.047 0.055 -0.059 0.227 -0.059 c 0.133 0 0.23 0.016 0.23 0.043 c 0 0.023 0.066 0.109 0.148 0.195 l 0.148 0.152 l -0.031 -0.195 l -0.027 -0.195 h 0.145 c 0.078 0 0.168 0.027 0.195 0.059 c 0.027 0.035 0.086 0.063 0.129 0.063 c 0.055 0 0.078 0.031 0.078 0.105 c 0 0.059 0.027 0.117 0.063 0.129 c 0.051 0.02 0.063 0.121 0.063 0.559 c 0 0.445 -0.012 0.531 -0.063 0.531 c -0.035 0 -0.063 0.02 -0.063 0.043 c 0 0.094 -0.172 0.207 -0.309 0.207 c -0.117 0 -0.148 -0.02 -0.184 -0.113 c -0.02 -0.063 -0.043 -0.086 -0.043 -0.047 c -0.004 0.09 -0.191 0.285 -0.273 0.285 c -0.035 0 -0.074 0.027 -0.086 0.063 c -0.031 0.082 -0.223 0.082 -0.223 0 c 0 -0.035 -0.02 -0.063 -0.043 -0.063 c -0.055 0 -0.207 -0.152 -0.207 -0.207 c 0 -0.023 -0.027 -0.043 -0.063 -0.043 c -0.043 0 -0.063 -0.047 -0.063 -0.164 c 0 -0.184 -0.059 -0.254 -0.098 -0.113 c -0.043 0.164 -0.027 0.277 0.039 0.277 c 0.035 0 0.063 0.039 0.063 0.094 c 0 0.105 0.164 0.281 0.262 0.281 c 0.039 0 0.066 0.016 0.066 0.039 c 0 0.023 0.059 0.043 0.125 0.043 c 0.07 0 0.125 -0.02 0.125 -0.043 c 0 -0.023 0.047 -0.039 0.105 -0.039 c 0.055 0 0.113 -0.031 0.129 -0.063 c 0.035 -0.102 0.488 -0.086 0.594 0.02 c 0.043 0.047 0.082 0.102 0.082 0.125 c 0 0.023 0.027 0.039 0.063 0.039 c 0.035 0 0.063 0.031 0.063 0.063 c 0 0.035 0.016 0.063 0.039 0.063 c 0.023 0 0.043 0.035 0.043 0.082 c 0 0.043 0.027 0.105 0.063 0.141 c 0.059 0.059 0.055 0.078 -0.039 0.18 c -0.059 0.063 -0.105 0.125 -0.105 0.141 c 0 0.016 -0.082 0.035 -0.176 0.051 c -0.098 0.012 -0.184 0.043 -0.191 0.066 c -0.008 0.027 -0.188 0.043 -0.484 0.043 c -0.418 0 -0.484 -0.008 -0.559 -0.082 c -0.043 -0.047 -0.082 -0.117 -0.082 -0.164 c 0 -0.102 -0.074 -0.148 -0.105 -0.066 c -0.016 0.035 -0.051 0.066 -0.082 0.066 c -0.066 0 -0.129 0.195 -0.078 0.238 c 0.016 0.016 0.039 0.008 0.047 -0.023 c 0.027 -0.07 0.094 -0.063 0.094 0.012 c 0 0.035 0.023 0.063 0.047 0.063 c 0.023 0 0.07 0.027 0.105 0.063 c 0.035 0.031 0.117 0.063 0.184 0.063 c 0.082 0 0.121 0.02 0.121 0.059 c 0 0.047 0.047 0.063 0.164 0.063 c 0.094 0 0.168 0.02 0.168 0.043 c 0 0.023 -0.02 0.043 -0.043 0.043 c -0.023 0 -0.039 0.027 -0.039 0.059 c 0 0.047 -0.051 0.063 -0.207 0.063 c -0.129 0 -0.227 0.023 -0.27 0.066 c -0.059 0.059 -0.07 0.059 -0.129 0 c -0.063 -0.066 -0.141 -0.066 -0.453 0 c -0.102 0.02 -0.434 0.316 -0.434 0.383 c 0 0.027 -0.027 0.047 -0.063 0.047 c -0.031 0 -0.063 0.031 -0.063 0.063 c 0 0.039 -0.039 0.063 -0.102 0.063 c -0.059 0 -0.117 0.027 -0.129 0.063 c -0.016 0.035 -0.063 0.063 -0.105 0.063 c -0.043 0 -0.09 0.027 -0.102 0.063 c -0.016 0.035 -0.07 0.063 -0.125 0.063 c -0.055 0 -0.109 0.027 -0.125 0.063 c -0.016 0.043 -0.086 0.063 -0.227 0.063 c -0.145 0 -0.211 0.016 -0.227 0.059 c -0.02 0.043 -0.082 0.063 -0.203 0.063 c -0.105 0 -0.195 0.027 -0.227 0.063 c -0.027 0.035 -0.098 0.063 -0.152 0.063 c -0.086 0 -0.098 -0.02 -0.098 -0.168 c 0 -0.215 -0.098 -0.203 -0.117 0.016 c -0.004 0.086 -0.027 0.152 -0.051 0.152 c -0.02 0 -0.039 0.055 -0.039 0.125 c 0 0.066 0.02 0.125 0.043 0.125 c 0.023 0 0.043 -0.027 0.043 -0.063 c 0 -0.043 0.043 -0.063 0.141 -0.063 c 0.078 0 0.168 -0.027 0.203 -0.063 c 0.082 -0.082 0.316 -0.082 0.316 0 c 0 0.035 -0.02 0.063 -0.043 0.063 c -0.02 0 -0.039 0.027 -0.039 0.063 c 0 0.035 -0.027 0.063 -0.063 0.063 c -0.035 0 -0.063 0.027 -0.063 0.063 c 0 0.043 -0.047 0.059 -0.164 0.059 c -0.125 0 -0.168 0.02 -0.168 0.07 c 0 0.055 -0.027 0.063 -0.16 0.039 c -0.141 -0.02 -0.168 -0.012 -0.227 0.078 c -0.039 0.055 -0.066 0.141 -0.066 0.184 c 0 0.051 -0.027 0.086 -0.063 0.086 c -0.035 0 -0.063 0.02 -0.063 0.039 c 0 0.023 -0.063 0.105 -0.145 0.184 c -0.117 0.121 -0.188 0.148 -0.43 0.188 c -0.16 0.023 -0.305 0.047 -0.32 0.047 c -0.02 0 -0.012 0.02 0.016 0.047 c 0.086 0.086 0.059 0.223 -0.051 0.273 c -0.059 0.027 -0.105 0.082 -0.105 0.129 c 0 0.109 -0.121 0.145 -0.211 0.063 c -0.07 -0.066 -0.082 -0.063 -0.16 0.027 c -0.043 0.055 -0.082 0.125 -0.082 0.152 c 0 0.027 -0.043 0.09 -0.09 0.141 c -0.078 0.078 -0.094 0.082 -0.125 0.02 c -0.051 -0.086 -0.117 -0.086 -0.117 -0.004 c 0 0.031 -0.031 0.063 -0.066 0.063 c -0.113 0 -0.309 0.176 -0.309 0.273 c 0 0.055 -0.016 0.098 -0.039 0.098 c -0.023 0 -0.043 0.055 -0.043 0.125 c 0 0.082 -0.02 0.125 -0.063 0.125 c -0.031 0 -0.063 0.027 -0.063 0.059 c 0 0.086 -0.277 0.082 -0.391 0 m 0.02 -1.695 c 0.043 -0.047 0.039 -0.066 -0.016 -0.086 c -0.09 -0.035 -0.191 0.008 -0.191 0.086 c 0 0.082 0.141 0.082 0.207 0 m 1.574 0.02 c 0.055 -0.035 0.055 -0.043 0 -0.082 c -0.117 -0.074 -0.332 -0.016 -0.273 0.078 c 0.035 0.059 0.188 0.059 0.273 0.004 m -0.48 -0.117 c 0.035 -0.055 -0.129 -0.086 -0.457 -0.086 c -0.336 -0.004 -0.469 0.027 -0.379 0.086 c 0.07 0.047 0.809 0.047 0.836 0 m -1.754 -0.648 c 0 -0.031 -0.02 -0.059 -0.043 -0.059 c -0.023 0 -0.039 0.027 -0.039 0.059 c 0 0.035 0.016 0.063 0.039 0.063 c 0.023 0 0.043 -0.027 0.043 -0.063 m -0.496 -0.102 c 0 -0.023 -0.035 -0.055 -0.074 -0.07 c -0.039 -0.016 -0.086 -0.051 -0.105 -0.082 c -0.02 -0.031 -0.051 -0.055 -0.074 -0.055 c -0.066 0 -0.039 0.09 0.051 0.172 c 0.098 0.082 0.203 0.102 0.203 0.035 m 3.484 -0.055 c 0.063 -0.027 0.113 -0.07 0.113 -0.102 c 0 -0.027 0.023 -0.051 0.055 -0.051 c 0.055 0 0.223 -0.336 0.262 -0.535 c 0.039 -0.188 -0.035 -0.156 -0.152 0.07 c -0.055 0.105 -0.113 0.207 -0.125 0.215 c -0.012 0.012 -0.059 0.102 -0.102 0.195 c -0.078 0.168 -0.09 0.176 -0.32 0.203 c -0.133 0.016 -0.25 0.047 -0.266 0.07 c -0.031 0.051 0.379 0 0.535 -0.066 m -2.43 0.012 c 0.012 -0.02 0.109 -0.039 0.207 -0.039 c 0.137 0 0.184 -0.016 0.184 -0.063 c 0 -0.051 0.07 -0.063 0.375 -0.063 c 0.352 0 0.492 -0.051 0.277 -0.105 c -0.16 -0.039 -0.992 0.113 -1.016 0.184 c -0.008 0.027 -0.039 0.047 -0.07 0.047 c -0.031 0 -0.066 0.02 -0.082 0.039 c -0.016 0.023 0.004 0.043 0.035 0.043 c 0.035 0 0.074 -0.02 0.09 -0.043 m 1.691 -0.078 c 0.031 -0.047 -0.074 -0.086 -0.246 -0.086 c -0.098 0 -0.141 0.02 -0.141 0.063 c 0 0.047 0.047 0.063 0.184 0.063 c 0.098 0 0.191 -0.016 0.203 -0.039 m 1.309 -1.063 c 0 -0.129 -0.098 -0.113 -0.117 0.02 c -0.008 0.059 0.008 0.09 0.051 0.09 c 0.043 0 0.066 -0.039 0.066 -0.109 m 0.102 -0.309 c 0.035 -0.105 -0.016 -0.336 -0.063 -0.305 c -0.051 0.031 -0.051 0.391 0 0.391 c 0.02 0 0.051 -0.039 0.063 -0.086 m 3.781 -2.535 c 0.008 -0.336 0.004 -0.359 -0.074 -0.359 c -0.113 0 -0.168 0.121 -0.168 0.371 c 0 0.148 0.02 0.219 0.063 0.234 c 0.035 0.012 0.063 0.051 0.063 0.086 c 0 0.031 0.023 0.051 0.051 0.043 c 0.035 -0.012 0.055 -0.133 0.066 -0.375 m 0.617 0.273 c 0.055 -0.117 0.07 -0.453 0.027 -0.566 c -0.031 -0.078 -0.188 -0.086 -0.258 -0.016 c -0.074 0.074 -0.063 0.523 0.012 0.555 c 0.035 0.012 0.063 0.051 0.063 0.082 c 0 0.098 0.102 0.063 0.156 -0.055 m -1.395 -0.301 c 0 -0.184 -0.063 -0.254 -0.102 -0.113 c -0.043 0.164 -0.027 0.277 0.039 0.277 c 0.043 0 0.059 -0.047 0.059 -0.164"/><path d="m 10.77 14.602 c 0 -0.195 0.016 -0.25 0.063 -0.25 c 0.043 0 0.063 -0.039 0.063 -0.125 c 0 -0.102 0.016 -0.121 0.102 -0.121 c 0.066 0 0.105 -0.023 0.105 -0.063 c 0 -0.035 0.02 -0.063 0.039 -0.063 c 0.023 0 0.043 0.027 0.043 0.063 c 0 0.035 0.027 0.063 0.063 0.063 c 0.035 0 0.063 0.027 0.063 0.063 c 0 0.031 0.027 0.059 0.063 0.059 c 0.039 0 0.063 0.043 0.063 0.125 c 0 0.082 0.02 0.125 0.059 0.125 c 0.047 0 0.063 0.047 0.063 0.188 v 0.184 h -0.785"/><path d="m 12.137 14.539 c 0 -0.035 -0.031 -0.063 -0.063 -0.063 c -0.047 0 -0.063 -0.051 -0.063 -0.188 c 0 -0.137 -0.016 -0.184 -0.063 -0.184 c -0.047 0 -0.063 -0.055 -0.063 -0.23 v -0.227 h 0.164 c 0.168 0 0.168 0 0.168 0.164 c 0 0.121 0.016 0.168 0.063 0.168 c 0.047 0 0.063 0.055 0.063 0.246 c 0 0.195 -0.016 0.25 -0.063 0.25 c -0.035 0 -0.063 0.027 -0.063 0.063 c 0 0.031 -0.02 0.063 -0.043 0.063 c -0.023 0 -0.039 -0.031 -0.039 -0.063"/><path d="m 13.5 13.875 c 0 -0.172 0.016 -0.227 0.063 -0.227 c 0.043 0 0.063 -0.043 0.063 -0.125 c 0 -0.082 0.02 -0.125 0.063 -0.125 c 0.035 0 0.063 -0.027 0.063 -0.059 c 0 -0.035 0.02 -0.063 0.043 -0.063 c 0.02 0 0.039 0.027 0.039 0.063 c 0 0.031 0.027 0.059 0.063 0.059 c 0.043 0 0.063 0.043 0.063 0.125 c 0 0.086 0.02 0.125 0.066 0.125 c 0.043 0 0.059 0.023 0.043 0.066 c -0.016 0.035 -0.027 0.137 -0.027 0.227 v 0.164 h -0.539"/><path d="m 14.203 13.859 c 0 -0.066 -0.027 -0.148 -0.063 -0.184 c -0.082 -0.086 -0.082 -0.398 0 -0.398 c 0.035 0 0.063 -0.031 0.063 -0.063 c 0 -0.035 0.02 -0.063 0.043 -0.063 c 0.023 0 0.043 0.027 0.043 0.063 c 0 0.031 0.027 0.063 0.059 0.063 c 0.043 0 0.063 0.039 0.063 0.121 c 0 0.086 0.023 0.125 0.063 0.125 c 0.043 0 0.063 -0.043 0.063 -0.145 c 0 -0.102 -0.02 -0.145 -0.063 -0.145 c -0.043 0 -0.063 -0.047 -0.063 -0.164 c 0 -0.094 0.02 -0.168 0.043 -0.168 c 0.023 0 0.043 0.027 0.043 0.063 c 0 0.035 0.027 0.063 0.059 0.063 c 0.043 0 0.063 0.043 0.063 0.125 c 0 0.082 0.023 0.125 0.063 0.125 c 0.047 0 0.063 0.051 0.063 0.227 c 0 0.125 -0.02 0.227 -0.043 0.227 c -0.02 0 -0.039 -0.027 -0.039 -0.063 c 0 -0.035 -0.039 -0.063 -0.082 -0.063 c -0.07 0 -0.082 0.027 -0.082 0.188 c 0 0.188 -0.004 0.188 -0.148 0.188 c -0.129 0 -0.145 -0.012 -0.145 -0.121"/><path d="m 7.461 13.875 c 0 -0.348 0 -0.352 0.102 -0.352 c 0.086 0 0.105 0.02 0.105 0.125 c 0 0.082 0.02 0.125 0.059 0.125 c 0.051 0 0.063 0.051 0.063 0.227 v 0.227 h -0.328"/><path d="m 7.05 14.391 c 0 -0.031 -0.027 -0.059 -0.066 -0.059 c -0.039 0 -0.063 -0.156 -0.063 -0.395 c 0 -0.234 0.023 -0.395 0.063 -0.395 c 0.039 0 0.066 -0.027 0.066 -0.059 c 0 -0.031 0.043 -0.059 0.098 -0.059 c 0.055 0 0.098 0.027 0.098 0.059 c 0 0.031 0.027 0.059 0.066 0.059 c 0.039 0 0.063 0.16 0.063 0.395 c 0 0.238 -0.023 0.395 -0.063 0.395 c -0.039 0 -0.066 0.027 -0.066 0.059 c 0 0.035 -0.043 0.059 -0.098 0.059 c -0.055 0 -0.098 -0.023 -0.098 -0.059"/><path d="m 6.547 14.414 c 0 -0.035 -0.035 -0.063 -0.082 -0.063 c -0.047 0 -0.082 -0.027 -0.082 -0.063 c 0 -0.031 -0.02 -0.063 -0.043 -0.063 c -0.02 0 -0.039 -0.074 -0.039 -0.164 c 0 -0.121 0.016 -0.164 0.063 -0.164 c 0.039 0 0.063 -0.043 0.063 -0.125 c 0 -0.082 0.02 -0.125 0.059 -0.125 c 0.035 0 0.063 -0.027 0.063 -0.063 c 0 -0.035 0.02 -0.063 0.043 -0.063 c 0.023 0 0.043 -0.027 0.043 -0.063 c 0 -0.035 0.039 -0.059 0.102 -0.059 h 0.105 v 1.074 h -0.148 c -0.098 0 -0.145 -0.02 -0.145 -0.063"/><path d="m 5.598 11.188 c 0 -0.035 -0.02 -0.063 -0.043 -0.063 c -0.023 0 -0.039 -0.027 -0.039 -0.063 c 0 -0.035 -0.027 -0.063 -0.063 -0.063 c -0.035 0 -0.063 -0.027 -0.063 -0.063 c 0 -0.039 -0.043 -0.063 -0.125 -0.063 c -0.082 0 -0.125 -0.02 -0.125 -0.063 c 0 -0.031 -0.016 -0.059 -0.039 -0.059 c -0.023 0 -0.043 -0.031 -0.043 -0.063 c 0 -0.035 -0.027 -0.063 -0.063 -0.063 c -0.035 0 -0.063 -0.027 -0.063 -0.063 c 0 -0.043 -0.039 -0.063 -0.121 -0.063 c -0.086 0 -0.125 -0.02 -0.125 -0.063 c 0 -0.035 -0.027 -0.063 -0.063 -0.063 c -0.035 0 -0.063 -0.027 -0.063 -0.063 c 0 -0.031 -0.02 -0.063 -0.043 -0.063 c -0.02 0 -0.039 -0.074 -0.039 -0.164 c 0 -0.09 0.02 -0.164 0.039 -0.164 c 0.023 0 0.043 0.027 0.043 0.063 c 0 0.035 0.039 0.063 0.102 0.063 c 0.066 0 0.105 0.023 0.105 0.059 c 0 0.051 0.055 0.063 0.25 0.063 c 0.191 0 0.246 0.016 0.246 0.063 c 0 0.039 0.039 0.063 0.105 0.063 c 0.063 0 0.102 0.023 0.102 0.063 c 0 0.043 0.047 0.063 0.164 0.063 c 0.121 0 0.168 0.016 0.168 0.063 c 0 0.043 0.047 0.063 0.184 0.063 c 0.141 0 0.188 0.016 0.188 0.059 c 0 0.039 0.039 0.063 0.105 0.063 c 0.082 0 0.102 0.023 0.102 0.105 c 0 0.094 -0.016 0.102 -0.164 0.102 c -0.121 0 -0.168 0.02 -0.168 0.063 c 0 0.043 -0.039 0.063 -0.121 0.063 c -0.113 0 -0.125 0.016 -0.125 0.125 c 0 0.105 -0.016 0.125 -0.105 0.125 c -0.063 0 -0.102 -0.023 -0.102 -0.063"/><path d="m 11.68 14.516 c 0 -0.082 -0.02 -0.121 -0.063 -0.121 c -0.039 0 -0.063 -0.043 -0.063 -0.125 c 0 -0.082 -0.02 -0.125 -0.059 -0.125 c -0.047 0 -0.063 -0.047 -0.063 -0.164 c 0 -0.121 0.016 -0.168 0.063 -0.168 c 0.031 0 0.059 -0.027 0.059 -0.063 c 0 -0.035 0.039 -0.059 0.105 -0.059 c 0.094 0 0.102 0.016 0.102 0.164 c 0 0.121 0.02 0.164 0.063 0.164 c 0.051 0 0.063 -0.051 0.063 -0.227 v -0.227 h 0.168 c 0.164 0 0.164 0 0.164 0.164 c 0 0.121 0.016 0.168 0.063 0.168 c 0.098 0 0.086 0.461 -0.016 0.551 c -0.137 0.125 -0.219 0.047 -0.262 -0.238 c -0.023 -0.152 -0.117 -0.125 -0.117 0.035 c 0 0.102 0.02 0.148 0.063 0.148 c 0.043 0 0.063 0.039 0.063 0.121 c 0 0.117 -0.008 0.125 -0.164 0.125 c -0.156 0 -0.168 -0.008 -0.168 -0.125"/></g></svg>