<svg xmlns="http://www.w3.org/2000/svg" viewBox="0 0 22 22"><path d="m 19.734 16.828 c 7.91 -11.25 -6.699 -22.652 -16.02 -13.484 c -8.777 8.641 -0.641 22.06 10.285 17.863 c 2.281 -0.875 4.281 -2.313 5.734 -4.375" fill="#778799"/><path d="m 13.98 3.891 c -0.766 0 -1.387 0.629 -1.387 1.406 c 0 0.773 0.621 1.402 1.387 1.402 c 0.762 0 1.383 -0.629 1.383 -1.402 c 0 -0.777 -0.621 -1.406 -1.383 -1.406 m -2.926 1.102 c -0.852 0 -1.715 0.215 -2.492 0.605 c -0.031 0.016 -0.051 0.039 -0.059 0.07 c -0.008 0.031 -0.004 0.063 0.012 0.09 l 1.121 1.805 c 0.027 0.043 0.086 0.063 0.137 0.043 c 0.414 -0.18 0.844 -0.27 1.281 -0.27 c 1.602 0 3 1.207 3.254 2.805 c 0.008 0.055 0.051 0.094 0.105 0.094 l 2.113 0.004 c 0.031 0 0.059 -0.016 0.078 -0.039 c 0.023 -0.023 0.031 -0.051 0.031 -0.082 c -0.117 -1.188 -0.613 -2.332 -1.402 -3.223 c -0.035 -0.043 -0.094 -0.051 -0.141 -0.02 c -0.32 0.207 -0.68 0.32 -1.047 0.32 c -1.066 0 -1.934 -0.875 -1.934 -1.953 c 0 0 0.004 -0.039 0.004 -0.043 c 0 -0.055 -0.039 -0.098 -0.09 -0.109 c -0.336 -0.059 -0.66 -0.098 -0.973 -0.098 m -3.367 1.172 c -0.023 0 -0.043 0.012 -0.063 0.023 c -0.914 0.715 -1.602 1.723 -1.938 2.836 c -0.012 0.043 0 0.09 0.035 0.117 c 0.461 0.371 0.734 0.938 0.734 1.523 c 0 0.582 -0.273 1.152 -0.734 1.523 c -0.035 0.027 -0.047 0.074 -0.035 0.117 c 0.332 1.102 1.012 2.105 1.914 2.816 c 0.027 0.02 0.059 0.027 0.086 0.023 c 0.031 -0.008 0.059 -0.023 0.074 -0.051 l 1.129 -1.801 c 0.031 -0.043 0.023 -0.105 -0.02 -0.141 c -0.707 -0.633 -1.117 -1.539 -1.117 -2.488 c 0 -0.957 0.414 -1.867 1.129 -2.5 c 0.043 -0.035 0.051 -0.098 0.023 -0.145 l -1.121 -1.805 c -0.02 -0.023 -0.043 -0.043 -0.074 -0.047 c -0.008 -0.004 -0.016 -0.004 -0.023 -0.004 m -3.141 3.09 c -0.781 0 -1.418 0.641 -1.418 1.438 c 0 0.793 0.637 1.438 1.418 1.438 c 0.785 0 1.418 -0.645 1.418 -1.438 c 0 -0.797 -0.633 -1.438 -1.418 -1.438 m 11.977 1.855 l -2.113 0.004 c -0.051 0 -0.098 0.039 -0.105 0.094 c -0.254 1.586 -1.652 2.785 -3.25 2.785 c -0.441 0 -0.879 -0.094 -1.297 -0.277 c -0.051 -0.02 -0.105 -0.004 -0.137 0.043 l -1.129 1.801 c -0.016 0.023 -0.02 0.059 -0.012 0.086 c 0.008 0.031 0.027 0.059 0.055 0.07 c 0.785 0.398 1.656 0.609 2.52 0.609 c 0.32 0 0.652 -0.031 0.992 -0.09 c 0.047 -0.012 0.082 -0.051 0.09 -0.098 c 0.109 -0.984 0.934 -1.73 1.91 -1.73 c 0.305 0 0.613 0.078 0.891 0.227 c 0.043 0.023 0.098 0.016 0.129 -0.02 c 0.887 -0.914 1.441 -2.117 1.566 -3.383 c 0.004 -0.031 -0.008 -0.063 -0.027 -0.086 c -0.02 -0.023 -0.051 -0.039 -0.082 -0.035 m -2.492 3.797 c -0.781 0 -1.418 0.641 -1.418 1.43 c 0 0.789 0.637 1.43 1.418 1.43 c 0.785 0 1.418 -0.641 1.418 -1.43 c 0 -0.789 -0.633 -1.43 -1.418 -1.43" fill="#fff"/></svg>