
<svg xmlns="http://www.w3.org/2000/svg" xmlns:xlink="http://www.w3.org/1999/xlink" width="22px" height="22px" viewBox="0 0 22 22" version="1.1">
<g id="surface1">
<path style=" stroke:none;fill-rule:nonzero;fill:rgb(82.745098%,82.745098%,82.745098%);fill-opacity:1;" d="M 2.796875 16.648438 C 7.605469 29.023438 27.378906 17.734375 20.53125 6.554688 C 16.492188 -4.132812 -3.472656 -0.839844 1.050781 11.957031 C 1.515625 13.566406 2.175781 15.101562 2.796875 16.648438 Z M 2.796875 16.648438 "/>
<path style="fill-rule:nonzero;fill:rgb(82.745098%,82.745098%,82.745098%);fill-opacity:1;stroke-width:8.564;stroke-linecap:butt;stroke-linejoin:round;stroke:rgb(100%,100%,100%);stroke-opacity:1;stroke-miterlimit:4;" d="M 69.622531 884.090969 L 69.622531 959.006026 L 181.549968 959.006026 L 181.549968 884.090969 Z M 69.622531 884.090969 " transform="matrix(0.0983827,0,0,0.0998527,-1.181681,-80.923378)"/>
<path style=" stroke:none;fill-rule:nonzero;fill:rgb(18.431373%,30.980392%,30.980392%);fill-opacity:1;" d="M 15.269531 5.65625 C 15.382812 5.746094 15.402344 5.914062 15.3125 6.027344 L 10.558594 11.984375 C 10.46875 12.097656 10.300781 12.117188 10.1875 12.023438 C 10.074219 11.933594 10.054688 11.769531 10.148438 11.65625 L 14.902344 5.699219 C 14.992188 5.585938 15.15625 5.566406 15.269531 5.65625 Z M 15.269531 5.65625 "/>
</g>
</svg>
