<svg xmlns="http://www.w3.org/2000/svg" viewBox="0 0 22 22"><defs><clipPath id="3"><path d="m 30.945 19.285 c 0 6.66 -5.34 12.05 -11.918 12.05 c -6.578 0 -11.918 -5.395 -11.918 -12.05 c 0 -6.66 5.34 -12.05 11.918 -12.05 c 6.578 0 11.918 5.395 11.918 12.05"/></clipPath><clipPath id="2"><path d="m 8 8 h 9 v 9 h -9"/></clipPath><clipPath id="0"><path d="m 4 3 h 14 v 17 h -14"/></clipPath><clipPath id="1"><path d="m 19.406 13.836 c 0 7.777 -5.633 14.08 -12.57 14.08 c -6.938 0 -12.57 -6.301 -12.57 -14.08 c 0 -7.777 5.633 -14.08 12.57 -14.08 c 6.938 0 12.57 6.301 12.57 14.08"/></clipPath></defs><path d="m 2.266 16.828 c -7.91 -11.25 6.699 -22.652 16.02 -13.484 c 8.781 8.641 0.641 22.06 -10.285 17.863 c -2.281 -0.875 -4.281 -2.313 -5.734 -4.375" fill="#778799"/><g clip-path="url(#0)"><g clip-path="url(#1)"><path d="m 10.785 3.789 c -2.184 0.719 -4.371 1.438 -6.555 2.156 c 0.16 5.34 1.383 11.852 6.555 13.758 c 5.23 -1.848 6.336 -8.477 6.559 -13.758 c -2.184 -0.719 -4.371 -1.438 -6.559 -2.156" fill="#f4d68e" fill-rule="evenodd"/></g></g><g clip-path="url(#2)"><g clip-path="url(#3)"><path d="m 14.781 8.05 c -0.074 0.004 -0.164 0.035 -0.215 0.086 l -5.426 5.484 c -0.031 0.035 -0.047 0.078 -0.066 0.125 l -0.809 2.27 c -0.086 0.227 0.191 0.488 0.414 0.402 l 2.23 -0.805 c 0.043 -0.016 0.098 -0.035 0.133 -0.07 l 5.426 -5.504 c 0.063 -0.07 0.078 -0.168 0.066 -0.262 c 0 0 0.004 -0.055 -0.016 -0.105 c -0.02 -0.055 -0.066 -0.125 -0.117 -0.211 c -0.098 -0.164 -0.258 -0.387 -0.563 -0.695 c -0.316 -0.324 -0.531 -0.496 -0.695 -0.594 c -0.082 -0.051 -0.16 -0.086 -0.211 -0.105 c -0.055 -0.02 -0.133 -0.016 -0.133 -0.016" fill="#364a53"/></g></g></svg>