<svg xmlns="http://www.w3.org/2000/svg" viewBox="0 0 22 22"><path d="m 0.207 10.188 c -1.254 13.344 19.895 16.938 21.535 3.234 c 2.035 -12.602 -17.13 -19.09 -20.965 -6.57 c -0.422 1.059 -0.414 2.215 -0.57 3.336" fill="#ff8c00"/><path d="m 10.531 18.328 c 0 -0.016 -0.121 -0.023 -0.316 -0.023 c -0.266 0 -0.316 -0.008 -0.316 -0.035 c 0 -0.027 -0.035 -0.035 -0.164 -0.035 c -0.094 0 -0.164 -0.012 -0.164 -0.023 c 0 -0.016 -0.066 -0.023 -0.152 -0.023 c -0.121 0 -0.152 -0.008 -0.152 -0.035 c 0 -0.027 -0.027 -0.035 -0.094 -0.035 c -0.055 0 -0.094 -0.012 -0.094 -0.023 c 0 -0.012 -0.059 -0.023 -0.129 -0.023 c -0.102 0 -0.133 -0.008 -0.133 -0.035 c 0 -0.027 -0.023 -0.035 -0.094 -0.035 c -0.066 0 -0.094 -0.012 -0.094 -0.035 c 0 -0.027 -0.023 -0.035 -0.094 -0.035 c -0.051 0 -0.094 -0.012 -0.094 -0.023 c 0 -0.016 -0.023 -0.023 -0.055 -0.023 c -0.031 0 -0.063 -0.016 -0.07 -0.035 c -0.008 -0.023 -0.043 -0.035 -0.098 -0.035 c -0.043 0 -0.082 -0.012 -0.082 -0.023 c 0 -0.016 -0.031 -0.023 -0.07 -0.023 c -0.047 0 -0.07 -0.012 -0.07 -0.035 c 0 -0.023 -0.023 -0.035 -0.059 -0.035 c -0.031 0 -0.059 -0.012 -0.059 -0.023 c 0 -0.016 -0.027 -0.023 -0.059 -0.023 c -0.035 0 -0.059 -0.016 -0.059 -0.035 c 0 -0.023 -0.023 -0.035 -0.07 -0.035 c -0.047 0 -0.07 -0.012 -0.07 -0.035 c 0 -0.023 -0.023 -0.035 -0.059 -0.035 c -0.031 0 -0.059 -0.012 -0.059 -0.023 c 0 -0.016 -0.031 -0.023 -0.07 -0.023 c -0.047 0 -0.07 -0.012 -0.07 -0.035 c 0 -0.02 -0.016 -0.035 -0.035 -0.035 c -0.02 0 -0.035 -0.012 -0.035 -0.027 c 0 -0.012 -0.027 -0.023 -0.059 -0.023 c -0.039 0 -0.059 -0.012 -0.059 -0.035 c 0 -0.02 -0.023 -0.035 -0.059 -0.035 c -0.035 0 -0.059 -0.008 -0.059 -0.023 c 0 -0.012 -0.016 -0.023 -0.035 -0.023 c -0.02 0 -0.035 -0.016 -0.035 -0.035 c 0 -0.02 -0.023 -0.035 -0.059 -0.035 c -0.035 0 -0.059 -0.008 -0.059 -0.023 c 0 -0.012 -0.02 -0.023 -0.039 -0.023 c -0.016 0 -0.035 -0.016 -0.035 -0.035 c 0 -0.02 -0.02 -0.035 -0.059 -0.035 c -0.035 0 -0.059 -0.012 -0.059 -0.035 c 0 -0.02 -0.016 -0.035 -0.035 -0.035 c -0.02 0 -0.035 -0.008 -0.035 -0.023 c 0 -0.012 -0.016 -0.023 -0.035 -0.023 c -0.02 0 -0.035 -0.016 -0.035 -0.035 c 0 -0.02 -0.016 -0.035 -0.035 -0.035 c -0.02 0 -0.035 -0.008 -0.035 -0.023 c 0 -0.012 -0.023 -0.023 -0.059 -0.023 c -0.035 0 -0.059 -0.012 -0.059 -0.035 c 0 -0.02 -0.012 -0.035 -0.023 -0.035 c -0.035 0 -0.094 -0.059 -0.094 -0.09 c 0 -0.016 -0.016 -0.027 -0.035 -0.027 c -0.02 0 -0.035 -0.012 -0.035 -0.023 c 0 -0.012 -0.016 -0.023 -0.035 -0.023 c -0.02 0 -0.035 -0.016 -0.035 -0.035 c 0 -0.02 -0.012 -0.035 -0.027 -0.035 c -0.012 0 -0.051 -0.027 -0.078 -0.059 c -0.031 -0.031 -0.078 -0.059 -0.105 -0.059 c -0.023 0 -0.047 -0.012 -0.047 -0.023 c 0 -0.035 -0.059 -0.094 -0.094 -0.094 c -0.012 0 -0.023 -0.027 -0.023 -0.059 c 0 -0.031 -0.012 -0.059 -0.027 -0.059 c -0.027 0 -0.09 -0.059 -0.09 -0.086 c 0 -0.027 -0.09 -0.102 -0.117 -0.102 c -0.016 0 -0.023 -0.012 -0.023 -0.027 c 0 -0.031 -0.059 -0.09 -0.094 -0.09 c -0.012 0 -0.023 -0.016 -0.023 -0.035 c 0 -0.02 -0.016 -0.035 -0.035 -0.035 c -0.02 0 -0.035 -0.012 -0.035 -0.023 c 0 -0.016 -0.016 -0.023 -0.035 -0.023 c -0.023 0 -0.035 -0.023 -0.035 -0.059 c 0 -0.035 -0.012 -0.059 -0.023 -0.059 c -0.016 0 -0.023 -0.016 -0.023 -0.035 c 0 -0.02 -0.016 -0.035 -0.035 -0.035 c -0.02 0 -0.035 -0.016 -0.035 -0.035 c 0 -0.02 -0.016 -0.035 -0.035 -0.035 c -0.02 0 -0.035 -0.023 -0.035 -0.051 c 0 -0.051 -0.051 -0.113 -0.094 -0.113 c -0.016 0 -0.023 -0.027 -0.023 -0.059 c 0 -0.039 -0.016 -0.063 -0.035 -0.063 c -0.02 0 -0.035 -0.016 -0.035 -0.035 c 0 -0.016 -0.012 -0.035 -0.023 -0.035 c -0.016 0 -0.023 -0.023 -0.023 -0.059 c 0 -0.031 -0.016 -0.059 -0.035 -0.059 c -0.016 0 -0.039 -0.023 -0.047 -0.059 c -0.008 -0.031 -0.023 -0.059 -0.039 -0.059 c -0.012 0 -0.023 -0.016 -0.023 -0.035 c 0 -0.02 -0.016 -0.035 -0.035 -0.035 c -0.02 0 -0.035 -0.02 -0.035 -0.059 c 0 -0.031 -0.008 -0.059 -0.023 -0.059 c -0.012 0 -0.023 -0.027 -0.023 -0.059 c 0 -0.035 -0.012 -0.059 -0.035 -0.059 c -0.02 0 -0.035 -0.02 -0.035 -0.059 c 0 -0.035 -0.012 -0.059 -0.035 -0.059 c -0.02 0 -0.035 -0.023 -0.035 -0.059 c 0 -0.031 -0.008 -0.059 -0.023 -0.059 c -0.012 0 -0.023 -0.027 -0.023 -0.059 c 0 -0.035 -0.012 -0.059 -0.035 -0.059 c -0.02 0 -0.035 -0.023 -0.035 -0.059 c 0 -0.035 -0.012 -0.059 -0.035 -0.059 c -0.023 0 -0.035 -0.027 -0.035 -0.094 c 0 -0.066 -0.008 -0.094 -0.035 -0.094 c -0.02 0 -0.035 -0.023 -0.035 -0.059 c 0 -0.031 -0.012 -0.059 -0.023 -0.059 c -0.012 0 -0.023 -0.043 -0.023 -0.094 c 0 -0.07 -0.008 -0.094 -0.035 -0.094 c -0.023 0 -0.035 -0.027 -0.035 -0.094 c 0 -0.07 -0.008 -0.094 -0.035 -0.094 c -0.027 0 -0.035 -0.027 -0.035 -0.105 c 0 -0.059 -0.012 -0.105 -0.023 -0.105 c -0.012 0 -0.023 -0.051 -0.023 -0.109 c 0 -0.078 -0.008 -0.105 -0.035 -0.105 c -0.027 0 -0.035 -0.031 -0.035 -0.141 c 0 -0.109 -0.008 -0.141 -0.035 -0.141 c -0.027 0 -0.035 -0.031 -0.035 -0.152 c 0 -0.086 -0.012 -0.152 -0.023 -0.152 c -0.016 0 -0.023 -0.105 -0.023 -0.27 c 0 -0.223 -0.008 -0.27 -0.035 -0.27 c -0.031 0 -0.035 -0.074 -0.035 -0.539 c 0 -0.465 0.004 -0.543 0.035 -0.543 c 0.027 0 0.035 -0.043 0.035 -0.27 c 0 -0.164 0.008 -0.27 0.023 -0.27 c 0.012 0 0.023 -0.066 0.023 -0.152 c 0 -0.121 0.008 -0.152 0.035 -0.152 c 0.027 0 0.035 -0.031 0.035 -0.141 c 0 -0.109 0.008 -0.141 0.035 -0.141 c 0.027 0 0.035 -0.027 0.035 -0.105 c 0 -0.059 0.012 -0.105 0.023 -0.105 c 0.012 0 0.023 -0.047 0.023 -0.105 c 0 -0.078 0.008 -0.105 0.035 -0.105 c 0.027 0 0.035 -0.027 0.035 -0.094 c 0 -0.07 0.012 -0.094 0.035 -0.094 c 0.027 0 0.035 -0.027 0.035 -0.094 c 0 -0.055 0.012 -0.098 0.023 -0.098 c 0.012 0 0.023 -0.023 0.023 -0.059 c 0 -0.035 0.016 -0.059 0.035 -0.059 c 0.023 0 0.035 -0.023 0.035 -0.082 c 0 -0.055 0.012 -0.082 0.035 -0.082 c 0.023 0 0.035 -0.023 0.035 -0.07 c 0 -0.047 0.012 -0.07 0.035 -0.07 c 0.023 0 0.035 -0.02 0.035 -0.059 c 0 -0.031 0.012 -0.059 0.023 -0.059 c 0.016 0 0.023 -0.027 0.023 -0.059 c 0 -0.035 0.016 -0.059 0.035 -0.059 c 0.023 0 0.035 -0.02 0.035 -0.059 c 0 -0.035 0.016 -0.059 0.035 -0.059 c 0.023 0 0.035 -0.023 0.035 -0.059 c 0 -0.031 0.012 -0.059 0.023 -0.059 c 0.016 0 0.023 -0.027 0.023 -0.059 c 0 -0.035 0.016 -0.059 0.035 -0.059 c 0.02 0 0.035 -0.016 0.035 -0.035 c 0 -0.02 0.012 -0.035 0.023 -0.035 c 0.016 0 0.031 -0.027 0.039 -0.059 c 0.008 -0.031 0.031 -0.059 0.047 -0.059 c 0.02 0 0.035 -0.023 0.035 -0.059 c 0 -0.031 0.008 -0.059 0.023 -0.059 c 0.012 0 0.023 -0.016 0.023 -0.035 c 0 -0.02 0.016 -0.035 0.035 -0.035 c 0.02 0 0.035 -0.023 0.035 -0.059 c 0 -0.031 0.008 -0.059 0.023 -0.059 c 0.043 0 0.094 -0.066 0.094 -0.117 c 0 -0.027 0.016 -0.047 0.035 -0.047 c 0.02 0 0.035 -0.016 0.035 -0.035 c 0 -0.02 0.012 -0.035 0.023 -0.035 c 0.047 0 0.094 -0.066 0.094 -0.129 c 0 -0.039 0.012 -0.059 0.035 -0.059 c 0.02 0 0.035 -0.012 0.035 -0.023 c 0 -0.016 0.016 -0.023 0.035 -0.023 c 0.02 0 0.035 -0.016 0.035 -0.035 c 0 -0.02 0.012 -0.035 0.023 -0.035 c 0.035 0 0.094 -0.063 0.094 -0.094 c 0 -0.016 0.016 -0.027 0.035 -0.027 c 0.02 0 0.035 -0.016 0.035 -0.035 c 0 -0.02 0.008 -0.035 0.02 -0.035 c 0.016 0 0.031 -0.023 0.039 -0.051 c 0.02 -0.059 0.066 -0.113 0.105 -0.113 c 0.012 0 0.023 -0.016 0.023 -0.035 c 0 -0.02 0.012 -0.035 0.023 -0.035 c 0.035 0 0.094 -0.059 0.094 -0.09 c 0 -0.016 0.016 -0.027 0.035 -0.027 c 0.02 0 0.035 -0.008 0.035 -0.023 c 0 -0.012 0.016 -0.023 0.035 -0.023 c 0.02 0 0.035 -0.016 0.035 -0.035 c 0 -0.02 0.023 -0.035 0.051 -0.035 c 0.027 0 0.074 -0.027 0.105 -0.059 c 0.027 -0.031 0.063 -0.059 0.078 -0.059 c 0.012 0 0.023 -0.012 0.023 -0.023 c 0 -0.035 0.059 -0.094 0.094 -0.094 c 0.012 0 0.023 -0.016 0.023 -0.035 c 0 -0.02 0.016 -0.035 0.035 -0.035 c 0.02 0 0.035 -0.012 0.035 -0.023 c 0 -0.012 0.027 -0.023 0.059 -0.023 c 0.039 0 0.059 -0.012 0.059 -0.035 c 0 -0.02 0.016 -0.035 0.035 -0.035 c 0.02 0 0.035 -0.012 0.035 -0.023 c 0 -0.012 0.016 -0.023 0.035 -0.023 c 0.02 0 0.035 -0.016 0.035 -0.035 c 0 -0.023 0.023 -0.035 0.059 -0.035 c 0.035 0 0.059 -0.012 0.059 -0.023 c 0 -0.012 0.02 -0.023 0.035 -0.023 c 0.02 0 0.039 -0.016 0.039 -0.035 c 0 -0.023 0.02 -0.035 0.059 -0.035 c 0.035 0 0.059 -0.016 0.059 -0.035 c 0 -0.02 0.016 -0.035 0.035 -0.035 c 0.02 0 0.035 -0.012 0.035 -0.023 c 0 -0.012 0.023 -0.023 0.059 -0.023 c 0.035 0 0.059 -0.016 0.059 -0.035 c 0 -0.02 0.016 -0.035 0.035 -0.035 c 0.02 0 0.035 -0.012 0.035 -0.023 c 0 -0.016 0.023 -0.023 0.059 -0.023 c 0.035 0 0.059 -0.016 0.059 -0.035 c 0 -0.023 0.023 -0.035 0.07 -0.035 c 0.039 0 0.07 -0.012 0.07 -0.023 c 0 -0.016 0.027 -0.023 0.059 -0.023 c 0.035 0 0.059 -0.016 0.059 -0.035 c 0 -0.023 0.023 -0.035 0.07 -0.035 c 0.047 0 0.07 -0.012 0.07 -0.035 c 0 -0.023 0.023 -0.035 0.059 -0.035 c 0.031 0 0.059 -0.012 0.059 -0.023 c 0 -0.016 0.027 -0.023 0.059 -0.023 c 0.035 0 0.059 -0.016 0.059 -0.035 c 0 -0.023 0.023 -0.035 0.07 -0.035 c 0.039 0 0.07 -0.012 0.07 -0.023 c 0 -0.016 0.039 -0.023 0.082 -0.023 c 0.055 0 0.09 -0.016 0.098 -0.035 c 0.008 -0.02 0.039 -0.035 0.07 -0.035 c 0.031 0 0.055 -0.012 0.055 -0.023 c 0 -0.016 0.043 -0.023 0.094 -0.023 c 0.07 0 0.094 -0.012 0.094 -0.035 c 0 -0.027 0.027 -0.035 0.094 -0.035 c 0.055 0 0.094 -0.012 0.094 -0.027 c 0 -0.012 0.047 -0.023 0.105 -0.023 c 0.063 0 0.117 -0.012 0.141 -0.035 c 0.02 -0.016 0.07 -0.035 0.117 -0.035 c 0.059 0 0.086 -0.008 0.086 -0.035 c 0 -0.027 0.031 -0.035 0.152 -0.035 c 0.086 0 0.152 -0.008 0.152 -0.023 c 0 -0.012 0.07 -0.023 0.164 -0.023 c 0.129 0 0.164 -0.004 0.164 -0.035 c 0 -0.027 0.051 -0.035 0.316 -0.035 c 0.195 0 0.316 -0.008 0.316 -0.023 c 0 -0.012 0.184 -0.023 0.508 -0.023 c 0.32 0 0.504 0.012 0.504 0.023 c 0 0.016 0.109 0.023 0.281 0.023 c 0.223 0 0.293 0.008 0.32 0.035 c 0.023 0.027 0.086 0.035 0.199 0.035 c 0.09 0 0.16 0.012 0.16 0.023 c 0 0.016 0.059 0.023 0.129 0.023 c 0.102 0 0.129 0.008 0.129 0.035 c 0 0.027 0.031 0.035 0.117 0.035 c 0.078 0 0.117 0.012 0.129 0.035 c 0.008 0.027 0.047 0.035 0.129 0.035 c 0.066 0 0.121 0.012 0.121 0.023 c 0 0.016 0.039 0.027 0.094 0.027 c 0.066 0 0.094 0.008 0.094 0.035 c 0 0.023 0.023 0.035 0.094 0.035 c 0.051 0 0.094 0.008 0.094 0.023 c 0 0.012 0.031 0.023 0.07 0.023 c 0.047 0 0.07 0.012 0.07 0.035 c 0 0.023 0.027 0.035 0.094 0.035 c 0.051 0 0.094 0.008 0.094 0.023 c 0 0.012 0.027 0.023 0.059 0.023 c 0.035 0 0.059 0.012 0.059 0.035 c 0 0.023 0.023 0.035 0.07 0.035 c 0.039 0 0.07 0.008 0.07 0.023 c 0 0.012 0.027 0.023 0.059 0.023 c 0.035 0 0.059 0.012 0.059 0.035 c 0 0.02 0.023 0.035 0.059 0.035 c 0.039 0 0.059 0.012 0.059 0.035 c 0 0.023 0.023 0.035 0.07 0.035 c 0.039 0 0.07 0.008 0.07 0.023 c 0 0.012 0.027 0.023 0.059 0.023 c 0.039 0 0.059 0.012 0.059 0.035 c 0 0.02 0.016 0.035 0.035 0.035 c 0.02 0 0.035 0.008 0.035 0.023 c 0 0.012 0.027 0.023 0.059 0.023 c 0.039 0 0.059 0.012 0.059 0.035 c 0 0.02 0.023 0.035 0.063 0.035 c 0.063 0 0.125 0.047 0.125 0.09 c 0 0.016 0.035 0.027 0.074 0.027 c 0.047 0 0.07 0.012 0.07 0.035 c 0 0.02 0.016 0.035 0.035 0.035 c 0.02 0 0.035 0.012 0.035 0.023 c 0 0.012 0.016 0.023 0.035 0.023 c 0.02 0 0.035 0.008 0.035 0.023 c 0 0.012 0.023 0.027 0.051 0.035 c 0.059 0.02 0.113 0.066 0.113 0.105 c 0 0.012 0.02 0.023 0.047 0.023 c 0.023 0 0.047 0.012 0.047 0.023 c 0 0.012 0.02 0.023 0.047 0.023 c 0.023 0 0.047 0.016 0.047 0.035 c 0 0.02 0.016 0.035 0.035 0.035 c 0.02 0 0.035 0.012 0.035 0.023 c 0 0.012 0.016 0.023 0.035 0.023 c 0.02 0 0.035 0.016 0.035 0.035 c 0 0.02 0.016 0.035 0.035 0.035 c 0.02 0 0.035 0.012 0.035 0.027 c 0 0.031 0.059 0.09 0.094 0.09 c 0.012 0 0.023 0.012 0.023 0.023 c 0 0.012 0.016 0.023 0.035 0.023 c 0.02 0 0.035 0.016 0.035 0.035 c 0 0.023 0.023 0.035 0.059 0.035 c 0.035 0 0.059 0.016 0.059 0.035 c 0 0.02 0.012 0.035 0.023 0.035 c 0.035 0 0.094 0.063 0.094 0.094 c 0 0.012 0.016 0.023 0.035 0.023 c 0.02 0 0.043 0.027 0.051 0.059 c 0.008 0.035 0.023 0.059 0.035 0.059 c 0.012 0 0.02 0.016 0.02 0.035 c 0 0.02 0.012 0.035 0.027 0.035 c 0.031 0 0.09 0.063 0.09 0.094 c 0 0.016 0.016 0.023 0.035 0.023 c 0.02 0 0.035 0.012 0.035 0.023 c 0 0.016 0.016 0.023 0.035 0.023 c 0.02 0 0.035 0.02 0.035 0.039 c 0 0.016 0.012 0.035 0.023 0.035 c 0.016 0 0.023 0.02 0.023 0.047 c 0 0.023 0.016 0.055 0.035 0.059 c 0.02 0.008 0.035 0.031 0.035 0.047 c 0 0.02 0.012 0.035 0.027 0.035 c 0.035 0 0.082 0.051 0.102 0.109 c 0.008 0.031 0.027 0.055 0.039 0.055 c 0.012 0 0.02 0.016 0.02 0.035 c 0 0.02 0.02 0.035 0.035 0.035 c 0.02 0 0.039 0.008 0.039 0.023 c 0 0.012 0.016 0.023 0.035 0.023 c 0.02 0 0.035 0.02 0.035 0.059 c 0 0.031 0.008 0.059 0.023 0.059 c 0.012 0 0.023 0.016 0.023 0.035 c 0 0.02 0.016 0.035 0.035 0.035 c 0.02 0 0.035 0.023 0.035 0.059 c 0 0.035 0.012 0.059 0.035 0.059 c 0.02 0 0.035 0.023 0.035 0.059 c 0 0.031 0.008 0.059 0.023 0.059 c 0.012 0 0.023 0.016 0.023 0.035 c 0 0.02 0.016 0.035 0.035 0.035 c 0.02 0 0.035 0.023 0.035 0.059 c 0 0.035 0.012 0.059 0.035 0.059 c 0.02 0 0.035 0.023 0.035 0.059 c 0 0.031 0.008 0.059 0.023 0.059 c 0.012 0 0.023 0.027 0.023 0.059 c 0 0.035 0.012 0.059 0.035 0.059 c 0.02 0 0.035 0.023 0.035 0.059 c 0 0.039 0.012 0.059 0.035 0.059 c 0.02 0 0.035 0.023 0.035 0.059 c 0 0.039 0.012 0.059 0.035 0.059 c 0.023 0 0.035 0.023 0.035 0.07 c 0 0.039 0.012 0.07 0.023 0.07 c 0.012 0 0.023 0.039 0.023 0.082 c 0 0.059 0.012 0.082 0.035 0.082 c 0.02 0 0.035 0.023 0.035 0.059 c 0 0.039 0.012 0.059 0.035 0.059 c 0.023 0 0.035 0.027 0.035 0.098 c 0 0.051 0.012 0.094 0.023 0.094 c 0.012 0 0.023 0.039 0.023 0.094 c 0 0.066 0.008 0.094 0.035 0.094 c 0.027 0 0.035 0.027 0.035 0.105 c 0 0.074 0.012 0.109 0.035 0.121 c 0.023 0.008 0.035 0.043 0.035 0.102 c 0 0.066 0.012 0.094 0.035 0.094 c 0.027 0 0.035 0.031 0.035 0.141 c 0 0.078 0.012 0.141 0.023 0.141 c 0.012 0 0.023 0.066 0.023 0.152 c 0 0.121 0.008 0.152 0.035 0.152 c 0.031 0 0.035 0.047 0.035 0.293 c 0 0.246 0.008 0.293 0.035 0.293 c 0.031 0 0.035 0.07 0.035 0.496 c 0 0.422 -0.004 0.492 -0.035 0.492 c -0.027 0 -0.035 0.047 -0.035 0.293 c 0 0.246 -0.004 0.293 -0.035 0.293 c -0.027 0 -0.035 0.031 -0.035 0.152 c 0 0.086 -0.012 0.152 -0.023 0.152 c -0.012 0 -0.023 0.063 -0.023 0.141 c 0 0.109 -0.008 0.141 -0.035 0.141 c -0.023 0 -0.035 0.027 -0.035 0.094 c 0 0.059 -0.012 0.094 -0.035 0.105 c -0.023 0.008 -0.035 0.047 -0.035 0.117 c 0 0.082 -0.008 0.109 -0.035 0.109 c -0.027 0 -0.035 0.023 -0.035 0.094 c 0 0.051 -0.012 0.094 -0.023 0.094 c -0.012 0 -0.023 0.039 -0.023 0.094 c 0 0.066 -0.012 0.094 -0.035 0.094 c -0.023 0 -0.035 0.02 -0.035 0.059 c 0 0.035 -0.016 0.059 -0.035 0.059 c -0.027 0 -0.035 0.023 -0.035 0.094 c 0 0.051 -0.012 0.094 -0.023 0.094 c -0.012 0 -0.023 0.027 -0.023 0.059 c 0 0.035 -0.016 0.059 -0.035 0.059 c -0.023 0 -0.035 0.023 -0.035 0.059 c 0 0.035 -0.016 0.059 -0.035 0.059 c -0.023 0 -0.035 0.023 -0.035 0.059 c 0 0.035 -0.016 0.059 -0.035 0.059 c -0.023 0 -0.035 0.023 -0.035 0.059 c 0 0.031 -0.012 0.059 -0.023 0.059 c -0.016 0 -0.023 0.027 -0.023 0.059 c 0 0.035 -0.016 0.059 -0.035 0.059 c -0.023 0 -0.035 0.023 -0.035 0.059 c 0 0.039 -0.016 0.059 -0.035 0.059 c -0.02 0 -0.035 0.016 -0.035 0.035 c 0 0.02 -0.012 0.035 -0.023 0.035 c -0.016 0 -0.023 0.027 -0.023 0.059 c 0 0.039 -0.016 0.059 -0.035 0.059 c -0.023 0 -0.035 0.023 -0.035 0.059 c 0 0.039 -0.016 0.059 -0.035 0.059 c -0.02 0 -0.035 0.016 -0.035 0.035 c 0 0.02 -0.012 0.035 -0.023 0.035 c -0.016 0 -0.023 0.027 -0.023 0.059 c 0 0.039 -0.016 0.059 -0.035 0.059 c -0.02 0 -0.035 0.012 -0.035 0.023 c 0 0.016 -0.02 0.023 -0.039 0.023 c -0.016 0 -0.035 0.016 -0.035 0.035 c 0 0.02 -0.008 0.035 -0.02 0.035 c -0.016 0 -0.031 0.027 -0.039 0.059 c -0.008 0.035 -0.023 0.063 -0.035 0.063 c -0.012 0 -0.023 0.016 -0.023 0.035 c 0 0.016 -0.008 0.035 -0.023 0.035 c -0.039 0 -0.117 0.078 -0.117 0.121 c 0 0.023 -0.008 0.043 -0.023 0.043 c -0.012 0 -0.023 0.016 -0.023 0.035 c 0 0.02 -0.016 0.035 -0.035 0.035 c -0.02 0 -0.035 0.008 -0.035 0.023 c 0 0.012 -0.016 0.023 -0.035 0.023 c -0.02 0 -0.035 0.012 -0.035 0.023 c 0 0.031 -0.059 0.094 -0.09 0.094 c -0.016 0 -0.027 0.016 -0.027 0.035 c 0 0.02 -0.016 0.035 -0.035 0.035 c -0.02 0 -0.035 0.016 -0.035 0.035 c 0 0.02 -0.016 0.035 -0.035 0.035 c -0.02 0 -0.035 0.016 -0.035 0.035 c 0 0.02 -0.012 0.035 -0.023 0.035 c -0.012 0 -0.023 0.02 -0.023 0.043 c 0 0.027 -0.023 0.051 -0.059 0.059 c -0.031 0.008 -0.059 0.027 -0.059 0.039 c 0 0.012 -0.016 0.023 -0.035 0.023 c -0.02 0 -0.035 0.012 -0.035 0.023 c 0 0.012 -0.016 0.023 -0.035 0.023 c -0.02 0 -0.035 0.016 -0.035 0.035 c 0 0.02 -0.016 0.035 -0.035 0.035 c -0.02 0 -0.035 0.012 -0.035 0.023 c 0 0.035 -0.059 0.094 -0.094 0.094 c -0.012 0 -0.023 0.016 -0.023 0.035 c 0 0.02 -0.016 0.035 -0.035 0.035 c -0.02 0 -0.035 0.012 -0.035 0.023 c 0 0.012 -0.016 0.023 -0.035 0.023 c -0.02 0 -0.035 0.016 -0.035 0.035 c 0 0.023 -0.023 0.035 -0.059 0.035 c -0.031 0 -0.059 0.012 -0.059 0.023 c 0 0.012 -0.016 0.023 -0.035 0.023 c -0.02 0 -0.035 0.012 -0.035 0.027 c 0 0.039 -0.063 0.09 -0.113 0.09 c -0.043 0 -0.121 0.078 -0.121 0.117 c 0 0.016 -0.016 0.023 -0.035 0.023 c -0.02 0 -0.035 0.012 -0.035 0.023 c 0 0.016 -0.035 0.023 -0.07 0.023 c -0.047 0 -0.074 0.012 -0.074 0.035 c 0 0.02 -0.02 0.035 -0.047 0.035 c -0.023 0 -0.047 0.012 -0.047 0.023 c 0 0.016 -0.02 0.023 -0.047 0.023 c -0.023 0 -0.047 0.016 -0.047 0.035 c 0 0.023 -0.02 0.035 -0.059 0.035 c -0.031 0 -0.059 0.012 -0.059 0.023 c 0 0.012 -0.023 0.027 -0.059 0.035 c -0.031 0.008 -0.059 0.023 -0.059 0.039 c 0 0.012 -0.016 0.02 -0.035 0.02 c -0.02 0 -0.035 0.012 -0.035 0.023 c 0 0.016 -0.031 0.023 -0.07 0.023 c -0.047 0 -0.07 0.012 -0.07 0.035 c 0 0.023 -0.02 0.035 -0.059 0.035 c -0.035 0 -0.059 0.016 -0.059 0.035 c 0 0.023 -0.023 0.039 -0.059 0.039 c -0.031 0 -0.059 0.008 -0.059 0.023 c 0 0.012 -0.031 0.023 -0.07 0.023 c -0.047 0 -0.07 0.012 -0.07 0.035 c 0 0.023 -0.023 0.035 -0.082 0.035 c -0.047 0 -0.082 0.008 -0.082 0.023 c 0 0.012 -0.031 0.023 -0.07 0.023 c -0.047 0 -0.07 0.012 -0.07 0.035 c 0 0.023 -0.027 0.035 -0.094 0.035 c -0.051 0 -0.094 0.008 -0.094 0.023 c 0 0.012 -0.031 0.023 -0.07 0.023 c -0.047 0 -0.07 0.012 -0.07 0.035 c 0 0.023 -0.031 0.035 -0.117 0.035 c -0.09 0 -0.117 0.008 -0.117 0.035 c 0 0.023 -0.027 0.035 -0.105 0.035 c -0.059 0 -0.109 0.008 -0.109 0.023 c 0 0.012 -0.039 0.023 -0.09 0.023 c -0.051 0 -0.109 0.016 -0.129 0.035 c -0.02 0.02 -0.078 0.035 -0.152 0.035 c -0.066 0 -0.121 0.008 -0.121 0.023 c 0 0.012 -0.07 0.023 -0.16 0.023 c -0.113 0 -0.176 0.008 -0.199 0.035 c -0.027 0.027 -0.098 0.035 -0.32 0.035 c -0.172 0 -0.281 0.008 -0.281 0.023 c 0 0.016 -0.184 0.023 -0.504 0.023 c -0.324 0 -0.508 -0.008 -0.508 -0.023 m 0.996 -2.57 c 0.027 -0.027 0.09 -0.035 0.258 -0.035 c 0.137 0 0.227 -0.012 0.227 -0.023 c 0 -0.016 0.078 -0.023 0.188 -0.023 c 0.152 0 0.188 -0.008 0.188 -0.035 c 0 -0.031 0.035 -0.035 0.176 -0.035 c 0.141 0 0.176 -0.008 0.176 -0.035 c 0 -0.027 0.031 -0.035 0.141 -0.035 c 0.078 0 0.141 -0.012 0.141 -0.023 c 0 -0.016 0.059 -0.023 0.129 -0.023 c 0.102 0 0.129 -0.008 0.129 -0.035 c 0 -0.027 0.031 -0.035 0.121 -0.035 c 0.063 0 0.117 -0.012 0.117 -0.023 c 0 -0.016 0.055 -0.023 0.129 -0.023 c 0.098 0 0.129 -0.012 0.129 -0.035 c 0 -0.027 0.023 -0.035 0.094 -0.035 c 0.051 0 0.094 -0.012 0.094 -0.023 c 0 -0.016 0.043 -0.023 0.094 -0.023 c 0.066 0 0.094 -0.012 0.094 -0.039 c 0 -0.023 0.023 -0.035 0.07 -0.035 c 0.039 0 0.07 -0.008 0.07 -0.023 c 0 -0.012 0.027 -0.023 0.059 -0.023 c 0.035 0 0.059 -0.012 0.059 -0.035 c 0 -0.023 0.023 -0.035 0.07 -0.035 c 0.039 0 0.07 -0.008 0.07 -0.023 c 0 -0.031 0.059 -0.094 0.094 -0.094 c 0.012 0 0.023 -0.016 0.023 -0.035 c 0 -0.02 0.012 -0.035 0.027 -0.035 c 0.031 0 0.09 -0.059 0.09 -0.09 c 0 -0.016 0.016 -0.027 0.035 -0.027 c 0.02 0 0.035 -0.008 0.035 -0.023 c 0 -0.012 0.016 -0.023 0.035 -0.023 c 0.023 0 0.035 -0.02 0.035 -0.059 c 0 -0.035 0.016 -0.059 0.035 -0.059 c 0.031 0 0.035 -0.039 0.035 -0.223 c 0 -0.184 -0.004 -0.223 -0.035 -0.223 c -0.02 0 -0.035 -0.023 -0.035 -0.059 c 0 -0.035 -0.012 -0.059 -0.035 -0.059 c -0.02 0 -0.035 -0.016 -0.035 -0.035 c 0 -0.02 -0.012 -0.035 -0.023 -0.035 c -0.035 0 -0.094 -0.059 -0.094 -0.094 c 0 -0.012 -0.016 -0.023 -0.035 -0.023 c -0.02 0 -0.035 -0.012 -0.035 -0.023 c 0 -0.012 -0.027 -0.023 -0.059 -0.023 c -0.035 0 -0.059 -0.016 -0.059 -0.035 c 0 -0.023 -0.023 -0.035 -0.07 -0.035 c -0.039 0 -0.07 -0.012 -0.07 -0.023 c 0 -0.016 -0.016 -0.023 -0.035 -0.023 c -0.02 0 -0.035 -0.016 -0.035 -0.035 c 0 -0.023 -0.023 -0.035 -0.059 -0.035 c -0.031 0 -0.059 -0.012 -0.059 -0.023 c 0 -0.016 -0.027 -0.023 -0.059 -0.023 c -0.035 0 -0.059 -0.016 -0.059 -0.035 c 0 -0.023 -0.023 -0.035 -0.07 -0.035 c -0.047 0 -0.07 -0.012 -0.07 -0.035 c 0 -0.023 -0.023 -0.035 -0.059 -0.035 c -0.031 0 -0.059 -0.012 -0.059 -0.023 c 0 -0.016 -0.031 -0.023 -0.07 -0.023 c -0.039 0 -0.07 -0.012 -0.07 -0.027 c 0 -0.043 -0.066 -0.09 -0.129 -0.09 c -0.039 0 -0.059 -0.016 -0.059 -0.035 c 0 -0.023 -0.023 -0.035 -0.059 -0.035 c -0.035 0 -0.059 -0.012 -0.059 -0.023 c 0 -0.016 -0.027 -0.023 -0.059 -0.023 c -0.039 0 -0.063 -0.016 -0.063 -0.035 c 0 -0.023 -0.023 -0.039 -0.07 -0.039 c -0.047 0 -0.07 -0.012 -0.07 -0.035 c 0 -0.02 -0.02 -0.035 -0.059 -0.035 c -0.031 0 -0.059 -0.008 -0.059 -0.023 c 0 -0.012 -0.031 -0.023 -0.07 -0.023 c -0.047 0 -0.07 -0.012 -0.07 -0.035 c 0 -0.02 -0.02 -0.035 -0.059 -0.035 c -0.031 0 -0.059 -0.008 -0.059 -0.023 c 0 -0.012 -0.027 -0.023 -0.059 -0.023 c -0.035 0 -0.059 -0.012 -0.059 -0.035 c 0 -0.023 -0.023 -0.035 -0.07 -0.035 c -0.039 0 -0.07 -0.008 -0.07 -0.023 c 0 -0.012 -0.016 -0.023 -0.035 -0.023 c -0.02 0 -0.035 -0.016 -0.035 -0.035 c 0 -0.02 -0.023 -0.035 -0.059 -0.035 c -0.031 0 -0.059 -0.008 -0.059 -0.023 c 0 -0.012 -0.027 -0.023 -0.059 -0.023 c -0.035 0 -0.059 -0.012 -0.059 -0.035 c 0 -0.02 -0.016 -0.035 -0.035 -0.035 c -0.02 0 -0.035 -0.016 -0.035 -0.035 c 0 -0.02 -0.016 -0.035 -0.035 -0.035 c -0.02 0 -0.035 -0.016 -0.035 -0.035 c 0 -0.039 0.082 -0.129 0.117 -0.129 c 0.012 0 0.023 -0.012 0.023 -0.023 c 0 -0.012 0.027 -0.027 0.059 -0.035 c 0.031 -0.008 0.059 -0.027 0.059 -0.039 c 0 -0.012 0.027 -0.02 0.059 -0.02 c 0.031 0 0.059 -0.012 0.059 -0.023 c 0 -0.012 0.047 -0.023 0.105 -0.023 c 0.078 0 0.105 -0.008 0.105 -0.035 c 0 -0.023 0.027 -0.035 0.094 -0.035 c 0.07 0 0.094 -0.008 0.094 -0.035 c 0 -0.027 0.031 -0.035 0.117 -0.035 c 0.066 0 0.117 -0.012 0.117 -0.023 c 0 -0.012 0.059 -0.023 0.129 -0.023 c 0.102 0 0.129 -0.008 0.129 -0.035 c 0 -0.027 0.035 -0.035 0.156 -0.035 c 0.086 0 0.152 -0.012 0.152 -0.023 c 0 -0.012 0.047 -0.023 0.105 -0.023 c 0.078 0 0.105 -0.008 0.105 -0.035 c 0 -0.027 0.027 -0.035 0.129 -0.035 c 0.07 0 0.129 -0.012 0.129 -0.023 c 0 -0.012 0.051 -0.023 0.117 -0.023 c 0.09 0 0.117 -0.008 0.117 -0.035 c 0 -0.027 0.027 -0.035 0.105 -0.035 c 0.059 0 0.105 -0.012 0.105 -0.023 c 0 -0.012 0.027 -0.023 0.059 -0.023 c 0.035 0 0.059 -0.016 0.059 -0.035 c 0 -0.023 0.023 -0.035 0.059 -0.035 c 0.039 0 0.059 -0.016 0.059 -0.035 c 0 -0.023 0.023 -0.035 0.07 -0.035 c 0.039 0 0.07 -0.012 0.07 -0.023 c 0 -0.016 0.016 -0.023 0.035 -0.023 c 0.02 0 0.035 -0.012 0.035 -0.027 c 0 -0.031 0.063 -0.09 0.094 -0.09 c 0.012 0 0.023 -0.016 0.023 -0.035 c 0 -0.02 0.016 -0.035 0.035 -0.035 c 0.023 0 0.035 -0.023 0.035 -0.059 c 0 -0.035 0.012 -0.059 0.023 -0.059 c 0.016 0 0.023 -0.066 0.023 -0.152 c 0 -0.086 -0.008 -0.156 -0.023 -0.156 c -0.012 0 -0.023 -0.016 -0.023 -0.035 c 0 -0.023 -0.023 -0.035 -0.07 -0.035 c -0.039 0 -0.07 -0.008 -0.07 -0.023 c 0 -0.012 -0.039 -0.023 -0.094 -0.023 c -0.066 0 -0.094 -0.008 -0.094 -0.035 c 0 -0.027 -0.035 -0.035 -0.199 -0.035 c -0.16 0 -0.199 0.008 -0.199 0.035 c 0 0.031 -0.043 0.035 -0.246 0.035 c -0.148 0 -0.246 0.012 -0.246 0.023 c 0 0.016 -0.078 0.023 -0.188 0.023 c -0.152 0 -0.188 0.008 -0.188 0.035 c 0 0.031 -0.035 0.035 -0.164 0.035 c -0.094 0 -0.168 0.012 -0.168 0.023 c 0 0.016 -0.055 0.023 -0.129 0.023 c -0.098 0 -0.129 0.012 -0.129 0.035 c 0 0.031 -0.031 0.035 -0.152 0.035 c -0.086 0 -0.152 0.012 -0.152 0.023 c 0 0.016 -0.043 0.023 -0.094 0.023 c -0.066 0 -0.094 0.012 -0.094 0.039 c 0 0.023 -0.031 0.035 -0.129 0.035 c -0.098 0 -0.129 0.008 -0.129 0.035 c 0 0.023 -0.027 0.035 -0.094 0.035 c -0.051 0 -0.094 0.008 -0.094 0.02 c 0 0.012 -0.055 0.023 -0.121 0.031 c -0.07 0.008 -0.129 0.023 -0.133 0.039 c -0.004 0.016 -0.051 0.027 -0.102 0.027 c -0.051 0 -0.09 0.008 -0.09 0.023 c 0 0.012 -0.031 0.023 -0.07 0.023 c -0.039 0 -0.086 0.016 -0.105 0.035 c -0.02 0.02 -0.07 0.035 -0.117 0.035 c -0.047 0 -0.086 0.008 -0.086 0.023 c 0 0.012 -0.031 0.023 -0.07 0.023 c -0.047 0 -0.07 0.012 -0.07 0.035 c 0 0.023 -0.023 0.035 -0.094 0.035 c -0.051 0 -0.094 0.008 -0.094 0.023 c 0 0.012 -0.023 0.023 -0.059 0.023 c -0.035 0 -0.059 0.012 -0.059 0.035 c 0 0.023 -0.023 0.035 -0.07 0.035 c -0.047 0 -0.07 0.012 -0.07 0.035 c 0 0.02 -0.023 0.035 -0.059 0.035 c -0.031 0 -0.059 0.012 -0.059 0.023 c 0 0.012 -0.031 0.023 -0.07 0.023 c -0.039 0 -0.07 0.012 -0.07 0.023 c 0 0.039 -0.063 0.094 -0.109 0.094 c -0.055 0 -0.125 0.078 -0.125 0.141 c 0 0.027 -0.016 0.047 -0.035 0.047 c -0.02 0 -0.035 0.016 -0.035 0.035 c 0 0.02 -0.016 0.035 -0.035 0.035 c -0.023 0 -0.035 0.023 -0.035 0.059 c 0 0.031 -0.012 0.059 -0.023 0.059 c -0.016 0 -0.023 0.117 -0.023 0.305 c 0 0.188 0.008 0.305 0.023 0.305 c 0.012 0 0.023 0.02 0.023 0.043 c 0 0.043 0.074 0.121 0.117 0.121 c 0.012 0 0.023 0.016 0.023 0.035 c 0 0.02 0.016 0.035 0.035 0.035 c 0.02 0 0.035 0.012 0.035 0.023 c 0 0.016 0.027 0.031 0.059 0.039 c 0.031 0.008 0.059 0.023 0.059 0.035 c 0 0.012 0.027 0.023 0.059 0.023 c 0.035 0 0.059 0.012 0.059 0.035 c 0 0.023 0.023 0.035 0.07 0.035 c 0.039 0 0.07 0.008 0.07 0.023 c 0 0.012 0.027 0.023 0.059 0.023 c 0.031 0 0.059 0.008 0.059 0.023 c 0 0.012 0.043 0.027 0.094 0.035 c 0.051 0.008 0.094 0.027 0.094 0.035 c 0 0.012 0.027 0.023 0.059 0.023 c 0.039 0 0.059 0.012 0.059 0.035 c 0 0.023 0.023 0.035 0.07 0.035 c 0.039 0 0.07 0.008 0.07 0.023 c 0 0.012 0.027 0.023 0.059 0.023 c 0.039 0 0.059 0.012 0.059 0.035 c 0 0.02 0.016 0.035 0.035 0.035 c 0.016 0 0.039 0.016 0.047 0.035 c 0.008 0.02 0.035 0.035 0.059 0.035 c 0.027 0 0.051 0.008 0.051 0.023 c 0 0.012 0.02 0.023 0.047 0.023 c 0.023 0 0.047 0.008 0.047 0.02 c 0 0.012 0.023 0.031 0.051 0.039 c 0.059 0.02 0.113 0.066 0.113 0.102 c 0 0.016 0.016 0.027 0.035 0.027 c 0.02 0 0.035 0.012 0.035 0.023 c 0 0.012 0.016 0.023 0.035 0.023 c 0.02 0 0.035 0.016 0.035 0.035 c 0 0.02 0.016 0.035 0.035 0.035 c 0.02 0 0.035 0.012 0.035 0.023 c 0 0.012 0.016 0.023 0.035 0.023 c 0.02 0 0.035 0.016 0.035 0.035 c 0 0.02 0.012 0.035 0.023 0.035 c 0.012 0 0.023 0.012 0.023 0.023 c 0 0.035 0.059 0.094 0.09 0.094 c 0.016 0 0.027 0.016 0.027 0.035 c 0 0.02 0.016 0.035 0.035 0.035 c 0.023 0 0.035 0.023 0.035 0.082 c 0 0.059 -0.012 0.082 -0.035 0.082 c -0.02 0 -0.035 0.012 -0.035 0.023 c 0 0.012 -0.016 0.023 -0.035 0.023 c -0.02 0 -0.035 0.016 -0.035 0.035 c 0 0.02 -0.012 0.035 -0.023 0.035 c -0.012 0 -0.023 0.016 -0.023 0.035 c 0 0.023 -0.023 0.035 -0.07 0.035 c -0.039 0 -0.07 0.012 -0.07 0.023 c 0 0.016 -0.043 0.023 -0.094 0.023 c -0.07 0 -0.094 0.012 -0.094 0.035 c 0 0.023 -0.023 0.035 -0.059 0.035 c -0.035 0 -0.059 0.012 -0.059 0.023 c 0 0.016 -0.043 0.023 -0.094 0.023 c -0.07 0 -0.094 0.012 -0.094 0.035 c 0 0.027 -0.031 0.035 -0.133 0.035 c -0.07 0 -0.129 0.012 -0.129 0.023 c 0 0.016 -0.25 0.023 -0.703 0.023 c -0.609 0 -0.703 0.008 -0.703 0.035 c 0 0.023 -0.023 0.035 -0.059 0.035 c -0.039 0 -0.059 0.016 -0.059 0.035 c 0 0.02 -0.012 0.035 -0.027 0.035 c -0.059 0 -0.09 0.074 -0.09 0.211 c 0 0.078 0.008 0.145 0.023 0.145 c 0.012 0 0.023 0.016 0.023 0.035 c 0 0.02 0.016 0.035 0.035 0.035 c 0.02 0 0.035 0.008 0.035 0.023 c 0 0.012 0.016 0.023 0.035 0.023 c 0.02 0 0.035 0.016 0.035 0.035 c 0 0.02 0.02 0.035 0.059 0.035 c 0.035 0 0.059 0.012 0.059 0.035 c 0 0.023 0.023 0.035 0.07 0.035 c 0.039 0 0.07 0.008 0.07 0.023 c 0 0.012 0.043 0.023 0.094 0.023 c 0.066 0 0.094 0.008 0.094 0.035 c 0 0.031 0.09 0.035 0.668 0.035 c 0.563 0 0.672 -0.008 0.703 -0.035 m -2.449 -4.145 c 0 -0.012 0.059 -0.023 0.129 -0.023 c 0.098 0 0.129 -0.008 0.129 -0.035 c 0 -0.027 0.023 -0.035 0.094 -0.035 c 0.066 0 0.094 -0.012 0.094 -0.035 c 0 -0.023 0.023 -0.035 0.059 -0.035 c 0.031 0 0.059 -0.012 0.059 -0.023 c 0 -0.012 0.016 -0.023 0.035 -0.023 c 0.02 0 0.035 -0.016 0.035 -0.035 c 0 -0.023 0.023 -0.035 0.059 -0.035 c 0.031 0 0.059 -0.012 0.059 -0.023 c 0 -0.016 0.016 -0.023 0.035 -0.023 c 0.02 0 0.035 -0.016 0.035 -0.035 c 0 -0.02 0.016 -0.035 0.035 -0.035 c 0.02 0 0.035 -0.012 0.035 -0.023 c 0 -0.012 0.027 -0.027 0.059 -0.035 c 0.031 -0.008 0.059 -0.023 0.059 -0.035 c 0 -0.016 0.016 -0.023 0.035 -0.023 c 0.02 0 0.035 -0.016 0.035 -0.035 c 0 -0.02 0.016 -0.035 0.035 -0.035 c 0.02 0 0.035 -0.012 0.035 -0.023 c 0 -0.016 0.016 -0.023 0.035 -0.023 c 0.02 0 0.035 -0.016 0.035 -0.035 c 0 -0.023 0.023 -0.035 0.059 -0.035 c 0.035 0 0.059 -0.012 0.059 -0.023 c 0 -0.016 0.016 -0.023 0.035 -0.023 c 0.02 0 0.035 -0.012 0.035 -0.027 c 0 -0.043 0.066 -0.09 0.129 -0.09 c 0.031 0 0.059 -0.012 0.059 -0.027 c 0 -0.031 0.063 -0.094 0.094 -0.094 c 0.016 0 0.023 -0.016 0.023 -0.035 c 0 -0.023 0.027 -0.035 0.074 -0.035 c 0.035 0 0.07 -0.008 0.07 -0.023 c 0 -0.035 0.051 -0.082 0.109 -0.102 c 0.031 -0.012 0.055 -0.027 0.055 -0.039 c 0 -0.012 0.016 -0.023 0.035 -0.023 c 0.02 0 0.035 -0.008 0.035 -0.023 c 0 -0.012 0.016 -0.023 0.035 -0.023 c 0.02 0 0.035 -0.016 0.035 -0.035 c 0 -0.02 0.02 -0.035 0.059 -0.035 c 0.031 0 0.059 -0.008 0.059 -0.023 c 0 -0.012 0.016 -0.023 0.035 -0.023 c 0.02 0 0.035 -0.016 0.035 -0.035 c 0 -0.02 0.016 -0.035 0.035 -0.035 c 0.02 0 0.035 -0.008 0.035 -0.023 c 0 -0.012 0.027 -0.023 0.059 -0.023 c 0.035 0 0.059 -0.012 0.059 -0.035 c 0 -0.02 0.016 -0.035 0.035 -0.035 c 0.02 0 0.035 -0.016 0.035 -0.035 c 0 -0.02 0.016 -0.035 0.035 -0.035 c 0.02 0 0.035 -0.012 0.035 -0.023 c 0 -0.012 0.027 -0.023 0.059 -0.023 c 0.035 0 0.059 -0.012 0.059 -0.035 c 0 -0.02 0.016 -0.035 0.035 -0.035 c 0.02 0 0.035 -0.012 0.035 -0.023 c 0 -0.012 0.016 -0.023 0.035 -0.023 c 0.02 0 0.035 -0.016 0.035 -0.035 c 0 -0.023 0.023 -0.035 0.059 -0.035 c 0.031 0 0.059 -0.012 0.059 -0.023 c 0 -0.012 0.016 -0.023 0.035 -0.023 c 0.02 0 0.035 -0.016 0.035 -0.035 c 0 -0.023 0.023 -0.035 0.059 -0.035 c 0.039 0 0.059 -0.012 0.059 -0.035 c 0 -0.02 0.012 -0.035 0.027 -0.035 c 0.031 0 0.09 -0.059 0.09 -0.094 c 0 -0.012 0.031 -0.023 0.07 -0.023 c 0.039 0 0.07 -0.012 0.07 -0.023 c 0 -0.012 0.016 -0.023 0.035 -0.023 c 0.02 0 0.035 -0.016 0.035 -0.035 c 0 -0.023 0.023 -0.035 0.059 -0.035 c 0.035 0 0.063 -0.012 0.063 -0.023 c 0 -0.012 0.016 -0.023 0.035 -0.023 c 0.016 0 0.035 -0.012 0.035 -0.027 c 0 -0.043 0.063 -0.09 0.125 -0.09 c 0.039 0 0.063 -0.016 0.063 -0.035 c 0 -0.02 0.008 -0.035 0.023 -0.035 c 0.012 0 0.023 -0.016 0.023 -0.035 c 0 -0.023 0.02 -0.035 0.059 -0.035 c 0.031 0 0.059 -0.012 0.059 -0.023 c 0 -0.016 0.02 -0.023 0.047 -0.023 c 0.023 0 0.047 -0.012 0.047 -0.027 c 0 -0.043 0.066 -0.09 0.125 -0.09 c 0.035 0 0.063 -0.012 0.063 -0.027 c 0 -0.043 0.066 -0.09 0.125 -0.09 c 0.035 0 0.063 -0.012 0.063 -0.027 c 0 -0.035 0.051 -0.082 0.113 -0.102 c 0.027 -0.008 0.051 -0.027 0.051 -0.039 c 0 -0.012 0.02 -0.023 0.047 -0.023 c 0.027 0 0.047 -0.008 0.047 -0.023 c 0 -0.043 0.066 -0.094 0.129 -0.094 c 0.031 0 0.059 -0.008 0.059 -0.023 c 0 -0.043 0.066 -0.094 0.129 -0.094 c 0.031 0 0.059 -0.012 0.059 -0.023 c 0 -0.047 0.066 -0.094 0.129 -0.094 c 0.039 0 0.059 -0.012 0.059 -0.035 c 0 -0.02 0.016 -0.035 0.035 -0.035 c 0.02 0 0.035 -0.012 0.035 -0.023 c 0 -0.031 0.063 -0.094 0.094 -0.094 c 0.012 0 0.023 -0.016 0.023 -0.035 c 0 -0.02 0.012 -0.035 0.027 -0.035 c 0.031 0 0.09 -0.059 0.09 -0.09 c 0 -0.016 0.016 -0.027 0.035 -0.027 c 0.023 0 0.035 -0.023 0.035 -0.059 c 0 -0.035 0.016 -0.059 0.035 -0.059 c 0.023 0 0.039 -0.023 0.039 -0.059 c 0 -0.035 0.012 -0.059 0.035 -0.059 c 0.027 0 0.035 -0.031 0.035 -0.152 c 0 -0.121 -0.008 -0.152 -0.035 -0.152 c -0.023 0 -0.035 -0.023 -0.035 -0.059 c 0 -0.035 -0.016 -0.059 -0.039 -0.059 c -0.016 0 -0.035 -0.016 -0.035 -0.035 c 0 -0.02 -0.016 -0.035 -0.035 -0.035 c -0.016 0 -0.035 -0.016 -0.035 -0.035 c 0 -0.023 -0.02 -0.035 -0.059 -0.035 c -0.031 0 -0.059 -0.012 -0.059 -0.023 c 0 -0.016 -0.039 -0.023 -0.094 -0.023 c -0.066 0 -0.094 -0.012 -0.094 -0.035 c 0 -0.031 -0.035 -0.035 -0.188 -0.035 c -0.145 0 -0.191 0.008 -0.203 0.035 c -0.008 0.023 -0.043 0.035 -0.105 0.035 c -0.047 0 -0.09 0.008 -0.09 0.023 c 0 0.012 -0.027 0.023 -0.059 0.023 c -0.035 0 -0.059 0.012 -0.059 0.035 c 0 0.023 -0.023 0.035 -0.07 0.035 c -0.047 0 -0.07 0.012 -0.07 0.035 c 0 0.02 -0.023 0.035 -0.059 0.035 c -0.031 0 -0.059 0.012 -0.059 0.023 c 0 0.012 -0.016 0.023 -0.035 0.023 c -0.02 0 -0.035 0.016 -0.035 0.035 c 0 0.02 -0.023 0.035 -0.059 0.035 c -0.035 0 -0.059 0.012 -0.059 0.023 c 0 0.012 -0.016 0.023 -0.035 0.023 c -0.02 0 -0.035 0.016 -0.035 0.035 c 0 0.023 -0.023 0.035 -0.059 0.035 c -0.035 0 -0.059 0.008 -0.059 0.02 c 0 0.012 -0.027 0.027 -0.059 0.035 c -0.035 0.012 -0.059 0.027 -0.059 0.039 c 0 0.012 -0.016 0.023 -0.035 0.023 c -0.02 0 -0.035 0.016 -0.035 0.035 c 0 0.023 -0.023 0.035 -0.07 0.035 c -0.039 0 -0.074 0.012 -0.074 0.023 c 0 0.012 -0.016 0.023 -0.035 0.023 c -0.016 0 -0.035 0.016 -0.035 0.035 c 0 0.023 -0.02 0.035 -0.059 0.035 c -0.031 0 -0.059 0.012 -0.059 0.023 c 0 0.012 -0.016 0.023 -0.035 0.023 c -0.02 0 -0.035 0.016 -0.035 0.035 c 0 0.023 -0.02 0.035 -0.059 0.035 c -0.031 0 -0.059 0.012 -0.059 0.023 c 0 0.012 -0.016 0.023 -0.035 0.023 c -0.02 0 -0.035 0.016 -0.035 0.035 c 0 0.023 -0.02 0.035 -0.059 0.035 c -0.031 0 -0.059 0.012 -0.059 0.023 c 0 0.012 -0.027 0.027 -0.059 0.035 c -0.031 0.008 -0.059 0.023 -0.059 0.035 c 0 0.016 -0.016 0.023 -0.035 0.023 c -0.02 0 -0.035 0.016 -0.035 0.035 c 0 0.023 -0.023 0.035 -0.059 0.035 c -0.031 0 -0.059 0.012 -0.059 0.023 c 0 0.016 -0.016 0.023 -0.035 0.023 c -0.02 0 -0.035 0.016 -0.035 0.035 c 0 0.023 -0.023 0.035 -0.059 0.035 c -0.063 0 -0.129 0.047 -0.129 0.094 c 0 0.012 -0.027 0.023 -0.059 0.023 c -0.031 0 -0.059 0.012 -0.059 0.023 c 0 0.016 -0.023 0.023 -0.047 0.023 c -0.027 0 -0.047 0.016 -0.047 0.035 c 0 0.02 -0.02 0.035 -0.047 0.035 c -0.027 0 -0.047 0.012 -0.047 0.023 c 0 0.016 -0.023 0.023 -0.047 0.023 c -0.027 0 -0.047 0.016 -0.047 0.035 c 0 0.02 -0.012 0.035 -0.023 0.035 c -0.016 0 -0.023 0.02 -0.023 0.039 c 0 0.023 -0.023 0.035 -0.07 0.035 c -0.039 0 -0.07 0.008 -0.07 0.023 c 0 0.012 -0.016 0.023 -0.035 0.023 c -0.02 0 -0.035 0.016 -0.035 0.035 c 0 0.02 -0.023 0.035 -0.059 0.035 c -0.035 0 -0.059 0.008 -0.059 0.023 c 0 0.012 -0.016 0.023 -0.035 0.023 c -0.02 0 -0.035 0.008 -0.035 0.023 c 0 0.043 -0.066 0.094 -0.129 0.094 c -0.039 0 -0.063 0.012 -0.063 0.035 c 0 0.02 -0.008 0.035 -0.023 0.035 c -0.012 0 -0.023 0.016 -0.023 0.035 c 0 0.023 -0.023 0.035 -0.07 0.035 c -0.035 0 -0.07 0.008 -0.07 0.023 c 0 0.012 -0.023 0.023 -0.059 0.023 c -0.035 0 -0.059 0.012 -0.059 0.035 c 0 0.027 -0.035 0.035 -0.188 0.035 c -0.148 0 -0.188 -0.008 -0.188 -0.035 c 0 -0.023 -0.023 -0.035 -0.059 -0.035 c -0.031 0 -0.059 -0.012 -0.059 -0.023 c 0 -0.016 -0.016 -0.023 -0.035 -0.023 c -0.02 0 -0.035 -0.016 -0.035 -0.035 c 0 -0.02 -0.016 -0.035 -0.035 -0.035 c -0.023 0 -0.035 -0.023 -0.035 -0.059 c 0 -0.035 -0.012 -0.059 -0.023 -0.059 c -0.012 0 -0.023 -0.074 -0.023 -0.176 c 0 -0.102 0.012 -0.18 0.023 -0.18 c 0.016 0 0.023 -0.098 0.023 -0.246 c 0 -0.148 -0.008 -0.246 -0.023 -0.246 c -0.012 0 -0.023 -0.051 -0.023 -0.117 c 0 -0.09 -0.008 -0.117 -0.035 -0.117 c -0.027 0 -0.035 -0.027 -0.035 -0.094 c 0 -0.066 -0.012 -0.094 -0.035 -0.094 c -0.023 0 -0.035 -0.023 -0.035 -0.059 c 0 -0.035 -0.012 -0.059 -0.035 -0.059 c -0.023 0 -0.035 -0.023 -0.035 -0.059 c 0 -0.031 -0.012 -0.059 -0.023 -0.059 c -0.012 0 -0.023 -0.016 -0.023 -0.035 c 0 -0.02 -0.016 -0.035 -0.035 -0.035 c -0.02 0 -0.035 -0.012 -0.035 -0.023 c 0 -0.012 -0.016 -0.023 -0.035 -0.023 c -0.023 0 -0.035 -0.023 -0.035 -0.059 c 0 -0.035 -0.016 -0.059 -0.035 -0.059 c -0.02 0 -0.035 -0.012 -0.035 -0.023 c 0 -0.012 -0.027 -0.031 -0.059 -0.039 c -0.035 -0.008 -0.059 -0.023 -0.059 -0.035 c 0 -0.031 -0.063 -0.09 -0.09 -0.09 c -0.012 0 -0.031 -0.016 -0.039 -0.035 c -0.02 -0.055 -1 -0.055 -1.055 0 c -0.02 0.02 -0.078 0.035 -0.129 0.035 c -0.055 0 -0.098 0.008 -0.098 0.023 c 0 0.012 -0.035 0.023 -0.082 0.023 c -0.051 0 -0.09 0.012 -0.098 0.031 c -0.004 0.02 -0.035 0.039 -0.066 0.047 c -0.035 0.008 -0.059 0.027 -0.059 0.039 c 0 0.012 -0.016 0.023 -0.035 0.023 c -0.02 0 -0.035 0.012 -0.035 0.023 c 0 0.012 -0.016 0.023 -0.035 0.023 c -0.02 0 -0.035 0.012 -0.035 0.023 c 0 0.035 -0.059 0.094 -0.094 0.094 c -0.012 0 -0.023 0.027 -0.023 0.059 c 0 0.035 -0.016 0.059 -0.035 0.059 c -0.02 0 -0.035 0.016 -0.035 0.035 c 0 0.02 -0.012 0.035 -0.023 0.035 c -0.016 0 -0.023 0.027 -0.023 0.059 c 0 0.035 -0.016 0.059 -0.035 0.059 c -0.023 0 -0.035 0.023 -0.035 0.059 c 0 0.035 -0.016 0.059 -0.035 0.059 c -0.031 0 -0.035 0.043 -0.035 0.246 c 0 0.203 0.004 0.246 0.035 0.246 c 0.02 0 0.035 0.023 0.035 0.059 c 0 0.039 0.012 0.059 0.035 0.059 c 0.02 0 0.035 0.023 0.035 0.059 c 0 0.035 0.008 0.059 0.023 0.059 c 0.012 0 0.023 0.027 0.023 0.055 c 0 0.055 0.07 0.133 0.117 0.133 c 0.012 0 0.023 0.012 0.023 0.027 c 0 0.031 0.059 0.094 0.09 0.094 c 0.016 0 0.027 0.016 0.027 0.035 c 0 0.02 0.012 0.035 0.023 0.035 c 0.035 0 0.094 0.059 0.094 0.09 c 0 0.016 0.016 0.027 0.035 0.027 c 0.02 0 0.035 0.008 0.035 0.023 c 0 0.012 0.016 0.023 0.035 0.023 c 0.02 0 0.035 0.016 0.035 0.035 c 0 0.02 0.016 0.035 0.035 0.035 c 0.02 0 0.035 0.008 0.035 0.023 c 0 0.012 0.027 0.027 0.059 0.035 c 0.031 0.008 0.059 0.023 0.059 0.035 c 0 0.012 0.016 0.023 0.035 0.023 c 0.02 0 0.035 0.008 0.035 0.023 c 0 0.012 0.027 0.027 0.059 0.035 c 0.031 0.008 0.059 0.023 0.059 0.035 c 0 0.012 0.031 0.023 0.07 0.023 c 0.047 0 0.07 0.012 0.07 0.035 c 0 0.02 0.023 0.035 0.059 0.035 c 0.035 0 0.059 0.012 0.059 0.023 c 0 0.012 0.027 0.023 0.059 0.023 c 0.039 0 0.059 0.012 0.059 0.035 c 0 0.023 0.023 0.035 0.063 0.035 c 0.063 0 0.125 0.047 0.125 0.09 c 0 0.016 0.02 0.027 0.039 0.027 c 0.043 0 0.105 0.055 0.105 0.094 c 0 0.012 0.016 0.023 0.035 0.023 c 0.02 0 0.035 0.023 0.035 0.055 c 0 0.031 0.012 0.066 0.027 0.074 c 0.023 0.008 0.023 0.016 0 0.027 c -0.016 0.004 -0.027 0.043 -0.027 0.082 c 0 0.043 -0.016 0.066 -0.035 0.066 c -0.023 0 -0.035 0.023 -0.035 0.059 c 0 0.035 -0.016 0.059 -0.039 0.059 c -0.016 0 -0.035 0.012 -0.035 0.023 c 0 0.012 -0.016 0.023 -0.035 0.023 c -0.02 0 -0.035 0.012 -0.035 0.027 c 0 0.043 -0.063 0.09 -0.125 0.09 c -0.035 0 -0.063 0.012 -0.063 0.027 c 0 0.051 -0.066 0.09 -0.148 0.09 c -0.059 0 -0.086 0.012 -0.086 0.035 c 0 0.02 -0.016 0.035 -0.035 0.035 c -0.02 0 -0.035 0.016 -0.035 0.035 c 0 0.02 -0.016 0.035 -0.035 0.035 c -0.02 0 -0.035 0.012 -0.035 0.023 c 0 0.016 -0.016 0.023 -0.035 0.023 c -0.02 0 -0.035 0.016 -0.035 0.035 c 0 0.02 -0.012 0.035 -0.023 0.035 c -0.012 0 -0.023 0.055 -0.023 0.117 c 0 0.066 -0.012 0.121 -0.023 0.121 c -0.012 0 -0.023 0.016 -0.023 0.035 c 0 0.016 0.012 0.035 0.023 0.035 c 0.012 0 0.023 0.051 0.023 0.117 c 0 0.063 0.012 0.117 0.023 0.117 c 0.012 0 0.023 0.016 0.023 0.035 c 0 0.02 0.016 0.035 0.035 0.035 c 0.02 0 0.035 0.008 0.035 0.023 c 0 0.012 0.016 0.023 0.035 0.023 c 0.02 0 0.035 0.016 0.035 0.035 c 0 0.02 0.016 0.035 0.035 0.035 c 0.02 0 0.035 0.008 0.035 0.023 c 0 0.012 0.043 0.023 0.094 0.023 c 0.07 0 0.094 0.008 0.094 0.035 c 0 0.02 0.023 0.035 0.063 0.035 c 0.031 0 0.074 0.016 0.094 0.035 c 0.023 0.023 0.082 0.035 0.164 0.035 c 0.07 0 0.129 0.012 0.129 0.023 c 0 0.012 0.078 0.023 0.188 0.023 c 0.109 0 0.188 -0.012 0.188 -0.023" fill="#fff" fill-rule="evenodd"/></svg>