<svg xmlns="http://www.w3.org/2000/svg" viewBox="0 0 22 22"><defs><clipPath><path d="m 7.156 16.258 h 10.559 v 1.578 h -10.559"/></clipPath></defs><path d="m 10.133 21.852 c 13.285 1.266 16.863 -20.05 3.219 -21.699 c -12.547 -2.051 -19.01 17.266 -6.543 21.13 c 1.055 0.426 2.207 0.418 3.32 0.574" fill="#dcdcdc"/><path d="m 5.03 5.754 h 0.176 v 11.719 h -0.176"/><path d="m 5.363 5.754 h 0.043 v 11.719 h -0.043"/><path d="m 5.563 5.754 h 0.352 v 11.719 h -0.352"/><path d="m 6.07 5.754 h 0.09 v 11.719 h -0.09"/><path d="m 6.313 5.754 h 0.129 v 11.719 h -0.129"/><path d="m 6.582 5.754 h 0.219 v 11.719 h -0.219"/><path d="m 7.02 5.746 h 0.223 v 10.133 h -0.223"/><path d="m 7.422 5.746 h 0.156 v 10.133 h -0.156"/><path d="m 7.711 5.746 h 0.242 v 10.133 h -0.242"/><path d="m 8.09 5.746 h 0.367 v 10.133 h -0.367"/><path d="m 8.59 5.746 h 0.723 v 10.184 h -0.723"/><path d="m 9.695 5.746 h 0.34 v 10.133 h -0.34"/><path d="m 10.23 5.746 h 0.176 v 10.133 h -0.176"/><path d="m 10.563 5.746 h 0.043 v 10.133 h -0.043"/><path d="m 10.762 5.746 h 0.352 v 10.133 h -0.352"/><path d="m 11.27 5.746 h 0.09 v 10.133 h -0.09"/><path d="m 11.512 5.746 h 0.129 v 10.133 h -0.129"/><path d="m 11.777 5.746 h 0.223 v 10.133 h -0.223"/><path d="m 12.223 5.746 h 0.223 v 10.133 h -0.223"/><path d="m 12.621 5.746 h 0.156 v 10.133 h -0.156"/><path d="m 12.91 5.746 h 0.242 v 10.133 h -0.242"/><path d="m 13.285 5.746 h 0.367 v 10.133 h -0.367"/><path d="m 13.805 5.723 h 0.723 v 10.184 h -0.723"/><path d="m 14.91 5.723 h 0.34 v 10.133 h -0.34"/><path d="m 15.441 5.723 h 0.18 v 10.133 h -0.18"/><path d="m 15.773 5.723 h 0.047 v 10.133 h -0.047"/><path d="m 15.973 5.723 h 0.355 v 10.133 h -0.355"/><path d="m 16.484 5.723 h 0.086 v 10.133 h -0.086"/><path d="m 16.727 5.723 h 0.129 v 10.133 h -0.129"/><path d="m 16.992 5.723 h 0.223 v 10.133 h -0.223"/><path d="m 17.438 5.723 h 0.219 v 10.133 h -0.219"/></svg>